/******/ (function(modules) { // webpackBootstrap
/******/ 	// The module cache
/******/ 	var installedModules = {};
/******/
/******/ 	// The require function
/******/ 	function __webpack_require__(moduleId) {
/******/
/******/ 		// Check if module is in cache
/******/ 		if(installedModules[moduleId]) {
/******/ 			return installedModules[moduleId].exports;
/******/ 		}
/******/ 		// Create a new module (and put it into the cache)
/******/ 		var module = installedModules[moduleId] = {
/******/ 			i: moduleId,
/******/ 			l: false,
/******/ 			exports: {}
/******/ 		};
/******/
/******/ 		// Execute the module function
/******/ 		modules[moduleId].call(module.exports, module, module.exports, __webpack_require__);
/******/
/******/ 		// Flag the module as loaded
/******/ 		module.l = true;
/******/
/******/ 		// Return the exports of the module
/******/ 		return module.exports;
/******/ 	}
/******/
/******/
/******/ 	// expose the modules object (__webpack_modules__)
/******/ 	__webpack_require__.m = modules;
/******/
/******/ 	// expose the module cache
/******/ 	__webpack_require__.c = installedModules;
/******/
/******/ 	// define getter function for harmony exports
/******/ 	__webpack_require__.d = function(exports, name, getter) {
/******/ 		if(!__webpack_require__.o(exports, name)) {
/******/ 			Object.defineProperty(exports, name, { enumerable: true, get: getter });
/******/ 		}
/******/ 	};
/******/
/******/ 	// define __esModule on exports
/******/ 	__webpack_require__.r = function(exports) {
/******/ 		if(typeof Symbol !== 'undefined' && Symbol.toStringTag) {
/******/ 			Object.defineProperty(exports, Symbol.toStringTag, { value: 'Module' });
/******/ 		}
/******/ 		Object.defineProperty(exports, '__esModule', { value: true });
/******/ 	};
/******/
/******/ 	// create a fake namespace object
/******/ 	// mode & 1: value is a module id, require it
/******/ 	// mode & 2: merge all properties of value into the ns
/******/ 	// mode & 4: return value when already ns object
/******/ 	// mode & 8|1: behave like require
/******/ 	__webpack_require__.t = function(value, mode) {
/******/ 		if(mode & 1) value = __webpack_require__(value);
/******/ 		if(mode & 8) return value;
/******/ 		if((mode & 4) && typeof value === 'object' && value && value.__esModule) return value;
/******/ 		var ns = Object.create(null);
/******/ 		__webpack_require__.r(ns);
/******/ 		Object.defineProperty(ns, 'default', { enumerable: true, value: value });
/******/ 		if(mode & 2 && typeof value != 'string') for(var key in value) __webpack_require__.d(ns, key, function(key) { return value[key]; }.bind(null, key));
/******/ 		return ns;
/******/ 	};
/******/
/******/ 	// getDefaultExport function for compatibility with non-harmony modules
/******/ 	__webpack_require__.n = function(module) {
/******/ 		var getter = module && module.__esModule ?
/******/ 			function getDefault() { return module['default']; } :
/******/ 			function getModuleExports() { return module; };
/******/ 		__webpack_require__.d(getter, 'a', getter);
/******/ 		return getter;
/******/ 	};
/******/
/******/ 	// Object.prototype.hasOwnProperty.call
/******/ 	__webpack_require__.o = function(object, property) { return Object.prototype.hasOwnProperty.call(object, property); };
/******/
/******/ 	// __webpack_public_path__
/******/ 	__webpack_require__.p = "";
/******/
/******/
/******/ 	// Load entry module and return exports
/******/ 	return __webpack_require__(__webpack_require__.s = 0);
/******/ })
/************************************************************************/
/******/ ([
/* 0 */
/***/ (function(module, exports) {

const mid1 = {
  "header": {
    "keySignatures": [
      {
        "key": "C",
        "scale": "major",
        "ticks": 0
      }
    ],
    "meta": [],
    "name": "遇见",
    "ppq": 480,
    "tempos": [
      {
        "bpm": 91.99998773333498,
        "ticks": 0
      }
    ],
    "timeSignatures": [
      {
        "ticks": 0,
        "timeSignature": [
          4,
          4
        ],
        "measures": 0
      }
    ]
  },
  "tracks": [
    {
      "channel": 0,
      "controlChanges": {
        "7": [
          {
            "number": 7,
            "ticks": 0,
            "time": 0,
            "value": 1
          },
          {
            "number": 7,
            "ticks": 0,
            "time": 0,
            "value": 0.7874015748031497
          },
          {
            "number": 7,
            "ticks": 0,
            "time": 0,
            "value": 0.7874015748031497
          },
          {
            "number": 7,
            "ticks": 0,
            "time": 0,
            "value": 0.7874015748031497
          },
          {
            "number": 7,
            "ticks": 26880,
            "time": 36.521744,
            "value": 0.7874015748031497
          }
        ]
      },
      "pitchBends": [
        {
          "ticks": 1200,
          "time": 1.6304349999999999,
          "value": -0.46875
        },
        {
          "ticks": 1232,
          "time": 1.6739132666666665,
          "value": -0.265625
        },
        {
          "ticks": 1260,
          "time": 1.7119567499999997,
          "value": -0.125
        },
        {
          "ticks": 1292,
          "time": 1.7554350166666666,
          "value": 0
        },
        {
          "ticks": 3840,
          "time": 5.217391999999999,
          "value": -0.46875
        },
        {
          "ticks": 3872,
          "time": 5.260870266666666,
          "value": -0.265625
        },
        {
          "ticks": 3900,
          "time": 5.29891375,
          "value": -0.125
        },
        {
          "ticks": 3932,
          "time": 5.342392016666666,
          "value": 0
        },
        {
          "ticks": 5040,
          "time": 6.847826999999999,
          "value": -0.46875
        },
        {
          "ticks": 5072,
          "time": 6.891305266666666,
          "value": -0.265625
        },
        {
          "ticks": 5100,
          "time": 6.929348749999999,
          "value": -0.125
        },
        {
          "ticks": 5132,
          "time": 6.972827016666666,
          "value": 0
        },
        {
          "ticks": 8160,
          "time": 11.086958,
          "value": -0.46875
        },
        {
          "ticks": 8192,
          "time": 11.130436266666665,
          "value": -0.265625
        },
        {
          "ticks": 8220,
          "time": 11.16847975,
          "value": -0.125
        },
        {
          "ticks": 8252,
          "time": 11.211958016666665,
          "value": 0
        },
        {
          "ticks": 9840,
          "time": 13.369566999999998,
          "value": -0.46875
        },
        {
          "ticks": 9872,
          "time": 13.413045266666664,
          "value": -0.265625
        },
        {
          "ticks": 9900,
          "time": 13.451088749999998,
          "value": -0.125
        },
        {
          "ticks": 9932,
          "time": 13.494567016666664,
          "value": 0
        },
        {
          "ticks": 12000,
          "time": 16.30435,
          "value": -0.46875
        },
        {
          "ticks": 12032,
          "time": 16.347828266666664,
          "value": -0.265625
        },
        {
          "ticks": 12060,
          "time": 16.38587175,
          "value": -0.125
        },
        {
          "ticks": 12092,
          "time": 16.429350016666664,
          "value": 0
        },
        {
          "ticks": 12960,
          "time": 17.608697999999997,
          "value": -0.46875
        },
        {
          "ticks": 12992,
          "time": 17.652176266666665,
          "value": -0.265625
        },
        {
          "ticks": 13020,
          "time": 17.690219749999997,
          "value": -0.125
        },
        {
          "ticks": 13052,
          "time": 17.733698016666665,
          "value": 0
        },
        {
          "ticks": 14160,
          "time": 19.239133,
          "value": -0.46875
        },
        {
          "ticks": 14192,
          "time": 19.282611266666663,
          "value": -0.265625
        },
        {
          "ticks": 14220,
          "time": 19.32065475,
          "value": -0.125
        },
        {
          "ticks": 14252,
          "time": 19.364133016666663,
          "value": 0
        },
        {
          "ticks": 15840,
          "time": 21.521741999999996,
          "value": -0.46875
        },
        {
          "ticks": 15872,
          "time": 21.565220266666667,
          "value": -0.265625
        },
        {
          "ticks": 15900,
          "time": 21.603263749999996,
          "value": -0.125
        },
        {
          "ticks": 15932,
          "time": 21.646742016666668,
          "value": 0
        },
        {
          "ticks": 17520,
          "time": 23.804350999999997,
          "value": -0.46875
        },
        {
          "ticks": 17552,
          "time": 23.847829266666665,
          "value": -0.265625
        },
        {
          "ticks": 17580,
          "time": 23.885872749999997,
          "value": -0.125
        },
        {
          "ticks": 17612,
          "time": 23.929351016666665,
          "value": 0
        },
        {
          "ticks": 20640,
          "time": 28.043481999999997,
          "value": -0.46875
        },
        {
          "ticks": 20672,
          "time": 28.086960266666665,
          "value": -0.265625
        },
        {
          "ticks": 20700,
          "time": 28.125003749999998,
          "value": -0.125
        },
        {
          "ticks": 20732,
          "time": 28.168482016666665,
          "value": 0
        }
      ],
      "instrument": {
        "family": "guitar",
        "number": 24,
        "name": "acoustic guitar (nylon)"
      },
      "name": "",
      "notes": [
        {
          "duration": 0.32608699999999996,
          "durationTicks": 240,
          "midi": 63,
          "name": "D#4",
          "ticks": 0,
          "time": 0,
          "velocity": 1
        },
        {
          "duration": 0.32608699999999996,
          "durationTicks": 240,
          "midi": 75,
          "name": "D#5",
          "ticks": 0,
          "time": 0,
          "velocity": 0.9448818897637795
        },
        {
          "duration": 0.6521739999999999,
          "durationTicks": 480,
          "midi": 75,
          "name": "D#5",
          "ticks": 0,
          "time": 0,
          "velocity": 0.9448818897637795
        },
        {
          "duration": 0.6521739999999999,
          "durationTicks": 480,
          "midi": 87,
          "name": "D#6",
          "ticks": 0,
          "time": 0,
          "velocity": 0.9448818897637795
        },
        {
          "duration": 0.32608699999999996,
          "durationTicks": 240,
          "midi": 51,
          "name": "D#3",
          "ticks": 240,
          "time": 0.32608699999999996,
          "velocity": 1
        },
        {
          "duration": 0.9782609999999998,
          "durationTicks": 720,
          "midi": 72,
          "name": "C5",
          "ticks": 240,
          "time": 0.32608699999999996,
          "velocity": 0.9448818897637795
        },
        {
          "duration": 0.6521739999999998,
          "durationTicks": 480,
          "midi": 75,
          "name": "D#5",
          "ticks": 240,
          "time": 0.32608699999999996,
          "velocity": 0.9448818897637795
        },
        {
          "duration": 0.8152174999999998,
          "durationTicks": 600,
          "midi": 56,
          "name": "G#3",
          "ticks": 480,
          "time": 0.6521739999999999,
          "velocity": 1
        },
        {
          "duration": 0.6521739999999999,
          "durationTicks": 480,
          "midi": 63,
          "name": "D#4",
          "ticks": 480,
          "time": 0.6521739999999999,
          "velocity": 0.9448818897637795
        },
        {
          "duration": 1.2228262499999998,
          "durationTicks": 900,
          "midi": 63,
          "name": "D#4",
          "ticks": 480,
          "time": 0.6521739999999999,
          "velocity": 0.9448818897637795
        },
        {
          "duration": 0.9782609999999999,
          "durationTicks": 720,
          "midi": 68,
          "name": "G#4",
          "ticks": 480,
          "time": 0.6521739999999999,
          "velocity": 0.9448818897637795
        },
        {
          "duration": 0.9782609999999999,
          "durationTicks": 720,
          "midi": 72,
          "name": "C5",
          "ticks": 480,
          "time": 0.6521739999999999,
          "velocity": 0.9448818897637795
        },
        {
          "duration": 0.9782609999999998,
          "durationTicks": 720,
          "midi": 68,
          "name": "G#4",
          "ticks": 720,
          "time": 0.9782609999999998,
          "velocity": 0.9448818897637795
        },
        {
          "duration": 0.326087,
          "durationTicks": 240,
          "midi": 75,
          "name": "D#5",
          "ticks": 960,
          "time": 1.3043479999999998,
          "velocity": 0.9448818897637795
        },
        {
          "duration": 0.6521739999999998,
          "durationTicks": 480,
          "midi": 75,
          "name": "D#5",
          "ticks": 960,
          "time": 1.3043479999999998,
          "velocity": 0.9448818897637795
        },
        {
          "duration": 0.1630434999999999,
          "durationTicks": 120,
          "midi": 56,
          "name": "G#3",
          "ticks": 1200,
          "time": 1.6304349999999999,
          "velocity": 1
        },
        {
          "duration": 0.652174,
          "durationTicks": 480,
          "midi": 70,
          "name": "A#4",
          "ticks": 1200,
          "time": 1.6304349999999999,
          "velocity": 0.9448818897637795
        },
        {
          "duration": 0.3260869999999998,
          "durationTicks": 240,
          "midi": 75,
          "name": "D#5",
          "ticks": 1200,
          "time": 1.6304349999999999,
          "velocity": 0.9448818897637795
        },
        {
          "duration": 0.652174,
          "durationTicks": 480,
          "midi": 82,
          "name": "A#5",
          "ticks": 1200,
          "time": 1.6304349999999999,
          "velocity": 0.9448818897637795
        },
        {
          "duration": 0.8152175000000002,
          "durationTicks": 600,
          "midi": 55,
          "name": "G3",
          "ticks": 1440,
          "time": 1.9565219999999997,
          "velocity": 1
        },
        {
          "duration": 0.652174,
          "durationTicks": 480,
          "midi": 63,
          "name": "D#4",
          "ticks": 1440,
          "time": 1.9565219999999997,
          "velocity": 0.9448818897637795
        },
        {
          "duration": 1.304348,
          "durationTicks": 960,
          "midi": 63,
          "name": "D#4",
          "ticks": 1440,
          "time": 1.9565219999999997,
          "velocity": 0.9448818897637795
        },
        {
          "duration": 0.9782609999999998,
          "durationTicks": 720,
          "midi": 67,
          "name": "G4",
          "ticks": 1440,
          "time": 1.9565219999999997,
          "velocity": 0.9448818897637795
        },
        {
          "duration": 0.32608700000000024,
          "durationTicks": 240,
          "midi": 70,
          "name": "A#4",
          "ticks": 1440,
          "time": 1.9565219999999997,
          "velocity": 0.9448818897637795
        },
        {
          "duration": 0.9782609999999998,
          "durationTicks": 720,
          "midi": 67,
          "name": "G4",
          "ticks": 1680,
          "time": 2.282609,
          "velocity": 0.9448818897637795
        },
        {
          "duration": 0.16304349999999967,
          "durationTicks": 120,
          "midi": 70,
          "name": "A#4",
          "ticks": 1680,
          "time": 2.282609,
          "velocity": 0.9448818897637795
        },
        {
          "duration": 0.6521739999999996,
          "durationTicks": 480,
          "midi": 80,
          "name": "G#5",
          "ticks": 1680,
          "time": 2.282609,
          "velocity": 0.9448818897637795
        },
        {
          "duration": 0.16304350000000012,
          "durationTicks": 120,
          "midi": 72,
          "name": "C5",
          "ticks": 1800,
          "time": 2.4456524999999996,
          "velocity": 0.9448818897637795
        },
        {
          "duration": 0.16304350000000012,
          "durationTicks": 120,
          "midi": 73,
          "name": "C#5",
          "ticks": 1920,
          "time": 2.6086959999999997,
          "velocity": 0.9448818897637795
        },
        {
          "duration": 0.3260869999999998,
          "durationTicks": 240,
          "midi": 75,
          "name": "D#5",
          "ticks": 1920,
          "time": 2.6086959999999997,
          "velocity": 0.9448818897637795
        },
        {
          "duration": 0.4891304999999999,
          "durationTicks": 360,
          "midi": 75,
          "name": "D#5",
          "ticks": 2040,
          "time": 2.7717395,
          "velocity": 0.9448818897637795
        },
        {
          "duration": 0.16304350000000012,
          "durationTicks": 120,
          "midi": 55,
          "name": "G3",
          "ticks": 2160,
          "time": 2.9347829999999995,
          "velocity": 1
        },
        {
          "duration": 0.16304350000000012,
          "durationTicks": 120,
          "midi": 77,
          "name": "F5",
          "ticks": 2160,
          "time": 2.9347829999999995,
          "velocity": 0.9448818897637795
        },
        {
          "duration": 0.32608700000000024,
          "durationTicks": 240,
          "midi": 79,
          "name": "G5",
          "ticks": 2160,
          "time": 2.9347829999999995,
          "velocity": 0.9448818897637795
        },
        {
          "duration": 0.16304350000000012,
          "durationTicks": 120,
          "midi": 79,
          "name": "G5",
          "ticks": 2280,
          "time": 3.0978264999999996,
          "velocity": 0.9448818897637795
        },
        {
          "duration": 0.3260869999999998,
          "durationTicks": 240,
          "midi": 53,
          "name": "F3",
          "ticks": 2400,
          "time": 3.2608699999999997,
          "velocity": 1
        },
        {
          "duration": 0.8967392499999995,
          "durationTicks": 660,
          "midi": 53,
          "name": "F3",
          "ticks": 2400,
          "time": 3.2608699999999997,
          "velocity": 0.9448818897637795
        },
        {
          "duration": 0.6521739999999996,
          "durationTicks": 480,
          "midi": 65,
          "name": "F4",
          "ticks": 2400,
          "time": 3.2608699999999997,
          "velocity": 0.9448818897637795
        },
        {
          "duration": 0.16304349999999967,
          "durationTicks": 120,
          "midi": 80,
          "name": "G#5",
          "ticks": 2400,
          "time": 3.2608699999999997,
          "velocity": 0.9448818897637795
        },
        {
          "duration": 1.304348,
          "durationTicks": 960,
          "midi": 80,
          "name": "G#5",
          "ticks": 2400,
          "time": 3.2608699999999997,
          "velocity": 0.9448818897637795
        },
        {
          "duration": 0.3260869999999998,
          "durationTicks": 240,
          "midi": 60,
          "name": "C4",
          "ticks": 2640,
          "time": 3.5869569999999995,
          "velocity": 0.9448818897637795
        },
        {
          "duration": 0.652174,
          "durationTicks": 480,
          "midi": 72,
          "name": "C5",
          "ticks": 2640,
          "time": 3.5869569999999995,
          "velocity": 0.9448818897637795
        },
        {
          "duration": 0.6521740000000005,
          "durationTicks": 480,
          "midi": 63,
          "name": "D#4",
          "ticks": 2880,
          "time": 3.9130439999999993,
          "velocity": 0.9448818897637795
        },
        {
          "duration": 0.6521740000000005,
          "durationTicks": 480,
          "midi": 65,
          "name": "F4",
          "ticks": 2880,
          "time": 3.9130439999999993,
          "velocity": 0.9448818897637795
        },
        {
          "duration": 0.32608700000000024,
          "durationTicks": 240,
          "midi": 68,
          "name": "G#4",
          "ticks": 2880,
          "time": 3.9130439999999993,
          "velocity": 0.9448818897637795
        },
        {
          "duration": 0.4891304999999999,
          "durationTicks": 360,
          "midi": 77,
          "name": "F5",
          "ticks": 2880,
          "time": 3.9130439999999993,
          "velocity": 0.9448818897637795
        },
        {
          "duration": 0.32608700000000024,
          "durationTicks": 240,
          "midi": 53,
          "name": "F3",
          "ticks": 3120,
          "time": 4.2391309999999995,
          "velocity": 1
        },
        {
          "duration": 0.6521739999999996,
          "durationTicks": 480,
          "midi": 72,
          "name": "C5",
          "ticks": 3120,
          "time": 4.2391309999999995,
          "velocity": 0.9448818897637795
        },
        {
          "duration": 0.32608700000000024,
          "durationTicks": 240,
          "midi": 77,
          "name": "F5",
          "ticks": 3120,
          "time": 4.2391309999999995,
          "velocity": 0.9448818897637795
        },
        {
          "duration": 0.16304350000000056,
          "durationTicks": 120,
          "midi": 79,
          "name": "G5",
          "ticks": 3240,
          "time": 4.402174499999999,
          "velocity": 0.9448818897637795
        },
        {
          "duration": 0.8152174999999993,
          "durationTicks": 600,
          "midi": 51,
          "name": "D#3",
          "ticks": 3360,
          "time": 4.565218,
          "velocity": 1
        },
        {
          "duration": 0.32608699999999935,
          "durationTicks": 240,
          "midi": 56,
          "name": "G#3",
          "ticks": 3360,
          "time": 4.565218,
          "velocity": 0.9448818897637795
        },
        {
          "duration": 0.6521739999999996,
          "durationTicks": 480,
          "midi": 63,
          "name": "D#4",
          "ticks": 3360,
          "time": 4.565218,
          "velocity": 0.9448818897637795
        },
        {
          "duration": 0.32608699999999935,
          "durationTicks": 240,
          "midi": 80,
          "name": "G#5",
          "ticks": 3360,
          "time": 4.565218,
          "velocity": 0.9448818897637795
        },
        {
          "duration": 0.32608700000000024,
          "durationTicks": 240,
          "midi": 60,
          "name": "C4",
          "ticks": 3600,
          "time": 4.891304999999999,
          "velocity": 0.9448818897637795
        },
        {
          "duration": 0.6521740000000005,
          "durationTicks": 480,
          "midi": 72,
          "name": "C5",
          "ticks": 3600,
          "time": 4.891304999999999,
          "velocity": 0.9448818897637795
        },
        {
          "duration": 0.32608700000000024,
          "durationTicks": 240,
          "midi": 77,
          "name": "F5",
          "ticks": 3600,
          "time": 4.891304999999999,
          "velocity": 0.9448818897637795
        },
        {
          "duration": 0.32608700000000024,
          "durationTicks": 240,
          "midi": 63,
          "name": "D#4",
          "ticks": 3840,
          "time": 5.217391999999999,
          "velocity": 0.9448818897637795
        },
        {
          "duration": 0.32608700000000024,
          "durationTicks": 240,
          "midi": 68,
          "name": "G#4",
          "ticks": 3840,
          "time": 5.217391999999999,
          "velocity": 0.9448818897637795
        },
        {
          "duration": 0.32608700000000024,
          "durationTicks": 240,
          "midi": 72,
          "name": "C5",
          "ticks": 3840,
          "time": 5.217391999999999,
          "velocity": 0.9448818897637795
        },
        {
          "duration": 0.6521739999999996,
          "durationTicks": 480,
          "midi": 80,
          "name": "G#5",
          "ticks": 3840,
          "time": 5.217391999999999,
          "velocity": 0.9448818897637795
        },
        {
          "duration": 0.32608699999999935,
          "durationTicks": 240,
          "midi": 51,
          "name": "D#3",
          "ticks": 4080,
          "time": 5.543479,
          "velocity": 1
        },
        {
          "duration": 0.32608699999999935,
          "durationTicks": 240,
          "midi": 67,
          "name": "G4",
          "ticks": 4080,
          "time": 5.543479,
          "velocity": 0.9448818897637795
        },
        {
          "duration": 0.32608699999999935,
          "durationTicks": 240,
          "midi": 70,
          "name": "A#4",
          "ticks": 4080,
          "time": 5.543479,
          "velocity": 0.9448818897637795
        },
        {
          "duration": 0.6521739999999996,
          "durationTicks": 480,
          "midi": 75,
          "name": "D#5",
          "ticks": 4080,
          "time": 5.543479,
          "velocity": 0.9448818897637795
        },
        {
          "duration": 0.8967392500000004,
          "durationTicks": 660,
          "midi": 49,
          "name": "C#3",
          "ticks": 4320,
          "time": 5.869565999999999,
          "velocity": 1
        },
        {
          "duration": 0.32608700000000024,
          "durationTicks": 240,
          "midi": 51,
          "name": "D#3",
          "ticks": 4320,
          "time": 5.869565999999999,
          "velocity": 0.9448818897637795
        },
        {
          "duration": 0.6521740000000005,
          "durationTicks": 480,
          "midi": 63,
          "name": "D#4",
          "ticks": 4320,
          "time": 5.869565999999999,
          "velocity": 0.9448818897637795
        },
        {
          "duration": 0.32608700000000024,
          "durationTicks": 240,
          "midi": 65,
          "name": "F4",
          "ticks": 4320,
          "time": 5.869565999999999,
          "velocity": 0.9448818897637795
        },
        {
          "duration": 0.9782609999999998,
          "durationTicks": 720,
          "midi": 68,
          "name": "G#4",
          "ticks": 4320,
          "time": 5.869565999999999,
          "velocity": 0.9448818897637795
        },
        {
          "duration": 0.32608700000000024,
          "durationTicks": 240,
          "midi": 56,
          "name": "G#3",
          "ticks": 4560,
          "time": 6.195652999999999,
          "velocity": 0.9448818897637795
        },
        {
          "duration": 0.32608700000000024,
          "durationTicks": 240,
          "midi": 67,
          "name": "G4",
          "ticks": 4560,
          "time": 6.195652999999999,
          "velocity": 0.9448818897637795
        },
        {
          "duration": 0.6521739999999996,
          "durationTicks": 480,
          "midi": 68,
          "name": "G#4",
          "ticks": 4560,
          "time": 6.195652999999999,
          "velocity": 0.9448818897637795
        },
        {
          "duration": 0.6521739999999996,
          "durationTicks": 480,
          "midi": 63,
          "name": "D#4",
          "ticks": 4800,
          "time": 6.521739999999999,
          "velocity": 0.9448818897637795
        },
        {
          "duration": 0.5706522499999993,
          "durationTicks": 420,
          "midi": 68,
          "name": "G#4",
          "ticks": 4800,
          "time": 6.521739999999999,
          "velocity": 0.9448818897637795
        },
        {
          "duration": 0.6521739999999996,
          "durationTicks": 480,
          "midi": 75,
          "name": "D#5",
          "ticks": 4800,
          "time": 6.521739999999999,
          "velocity": 0.9448818897637795
        },
        {
          "duration": 0.32608700000000024,
          "durationTicks": 240,
          "midi": 49,
          "name": "C#3",
          "ticks": 5040,
          "time": 6.847826999999999,
          "velocity": 1
        },
        {
          "duration": 0.6521740000000005,
          "durationTicks": 480,
          "midi": 67,
          "name": "G4",
          "ticks": 5040,
          "time": 6.847826999999999,
          "velocity": 0.9448818897637795
        },
        {
          "duration": 0.6521740000000005,
          "durationTicks": 480,
          "midi": 68,
          "name": "G#4",
          "ticks": 5040,
          "time": 6.847826999999999,
          "velocity": 0.9448818897637795
        },
        {
          "duration": 0.32608700000000024,
          "durationTicks": 240,
          "midi": 51,
          "name": "D#3",
          "ticks": 5280,
          "time": 7.173913999999999,
          "velocity": 1
        },
        {
          "duration": 0.8152175000000002,
          "durationTicks": 600,
          "midi": 51,
          "name": "D#3",
          "ticks": 5280,
          "time": 7.173913999999999,
          "velocity": 0.9448818897637795
        },
        {
          "duration": 0.6521739999999996,
          "durationTicks": 480,
          "midi": 63,
          "name": "D#4",
          "ticks": 5280,
          "time": 7.173913999999999,
          "velocity": 0.9448818897637795
        },
        {
          "duration": 0.6521739999999996,
          "durationTicks": 480,
          "midi": 63,
          "name": "D#4",
          "ticks": 5280,
          "time": 7.173913999999999,
          "velocity": 0.9448818897637795
        },
        {
          "duration": 0.6521739999999996,
          "durationTicks": 480,
          "midi": 70,
          "name": "A#4",
          "ticks": 5280,
          "time": 7.173913999999999,
          "velocity": 0.9448818897637795
        },
        {
          "duration": 0.32608699999999935,
          "durationTicks": 240,
          "midi": 56,
          "name": "G#3",
          "ticks": 5520,
          "time": 7.500000999999999,
          "velocity": 0.9448818897637795
        },
        {
          "duration": 0.32608699999999935,
          "durationTicks": 240,
          "midi": 68,
          "name": "G#4",
          "ticks": 5520,
          "time": 7.500000999999999,
          "velocity": 0.9448818897637795
        },
        {
          "duration": 0.6521740000000005,
          "durationTicks": 480,
          "midi": 70,
          "name": "A#4",
          "ticks": 5520,
          "time": 7.500000999999999,
          "velocity": 0.9448818897637795
        },
        {
          "duration": 0.6521740000000005,
          "durationTicks": 480,
          "midi": 63,
          "name": "D#4",
          "ticks": 5760,
          "time": 7.826087999999999,
          "velocity": 0.9448818897637795
        },
        {
          "duration": 0.6521740000000005,
          "durationTicks": 480,
          "midi": 70,
          "name": "A#4",
          "ticks": 5760,
          "time": 7.826087999999999,
          "velocity": 0.9448818897637795
        },
        {
          "duration": 0.6521740000000005,
          "durationTicks": 480,
          "midi": 80,
          "name": "G#5",
          "ticks": 5760,
          "time": 7.826087999999999,
          "velocity": 0.9448818897637795
        },
        {
          "duration": 0.32608699999999935,
          "durationTicks": 240,
          "midi": 51,
          "name": "D#3",
          "ticks": 6000,
          "time": 8.152175,
          "velocity": 1
        },
        {
          "duration": 0.6521739999999987,
          "durationTicks": 480,
          "midi": 75,
          "name": "D#5",
          "ticks": 6000,
          "time": 8.152175,
          "velocity": 0.9448818897637795
        },
        {
          "duration": 0.32608699999999935,
          "durationTicks": 240,
          "midi": 56,
          "name": "G#3",
          "ticks": 6240,
          "time": 8.478261999999999,
          "velocity": 1
        },
        {
          "duration": 1.1413045000000004,
          "durationTicks": 840,
          "midi": 56,
          "name": "G#3",
          "ticks": 6240,
          "time": 8.478261999999999,
          "velocity": 0.9448818897637795
        },
        {
          "duration": 0.6521740000000005,
          "durationTicks": 480,
          "midi": 63,
          "name": "D#4",
          "ticks": 6240,
          "time": 8.478261999999999,
          "velocity": 0.9448818897637795
        },
        {
          "duration": 0.6521740000000005,
          "durationTicks": 480,
          "midi": 68,
          "name": "G#4",
          "ticks": 6240,
          "time": 8.478261999999999,
          "velocity": 0.9448818897637795
        },
        {
          "duration": 0.9782609999999998,
          "durationTicks": 720,
          "midi": 68,
          "name": "G#4",
          "ticks": 6240,
          "time": 8.478261999999999,
          "velocity": 0.9448818897637795
        },
        {
          "duration": 0.6521740000000005,
          "durationTicks": 480,
          "midi": 72,
          "name": "C5",
          "ticks": 6240,
          "time": 8.478261999999999,
          "velocity": 0.9448818897637795
        },
        {
          "duration": 0.3260870000000011,
          "durationTicks": 240,
          "midi": 63,
          "name": "D#4",
          "ticks": 6480,
          "time": 8.804348999999998,
          "velocity": 0.9448818897637795
        },
        {
          "duration": 0.9782609999999998,
          "durationTicks": 720,
          "midi": 68,
          "name": "G#4",
          "ticks": 6480,
          "time": 8.804348999999998,
          "velocity": 0.9448818897637795
        },
        {
          "duration": 0.32608699999999935,
          "durationTicks": 240,
          "midi": 63,
          "name": "D#4",
          "ticks": 6720,
          "time": 9.130436,
          "velocity": 0.9448818897637795
        },
        {
          "duration": 0.32608699999999935,
          "durationTicks": 240,
          "midi": 70,
          "name": "A#4",
          "ticks": 6720,
          "time": 9.130436,
          "velocity": 0.9448818897637795
        },
        {
          "duration": 0.6521739999999987,
          "durationTicks": 480,
          "midi": 70,
          "name": "A#4",
          "ticks": 6720,
          "time": 9.130436,
          "velocity": 0.9448818897637795
        },
        {
          "duration": 0.32608699999999935,
          "durationTicks": 240,
          "midi": 65,
          "name": "F4",
          "ticks": 6960,
          "time": 9.456522999999999,
          "velocity": 0.9448818897637795
        },
        {
          "duration": 0.32608699999999935,
          "durationTicks": 240,
          "midi": 65,
          "name": "F4",
          "ticks": 6960,
          "time": 9.456522999999999,
          "velocity": 0.9448818897637795
        },
        {
          "duration": 0.9782609999999998,
          "durationTicks": 720,
          "midi": 56,
          "name": "G#3",
          "ticks": 7200,
          "time": 9.782609999999998,
          "velocity": 0.9448818897637795
        },
        {
          "duration": 1.304348000000001,
          "durationTicks": 960,
          "midi": 63,
          "name": "D#4",
          "ticks": 7200,
          "time": 9.782609999999998,
          "velocity": 0.9448818897637795
        },
        {
          "duration": 1.304348000000001,
          "durationTicks": 960,
          "midi": 68,
          "name": "G#4",
          "ticks": 7200,
          "time": 9.782609999999998,
          "velocity": 0.9448818897637795
        },
        {
          "duration": 1.304348000000001,
          "durationTicks": 960,
          "midi": 68,
          "name": "G#4",
          "ticks": 7200,
          "time": 9.782609999999998,
          "velocity": 0.9448818897637795
        },
        {
          "duration": 1.304348000000001,
          "durationTicks": 960,
          "midi": 72,
          "name": "C5",
          "ticks": 7200,
          "time": 9.782609999999998,
          "velocity": 0.9448818897637795
        },
        {
          "duration": 0.9782609999999998,
          "durationTicks": 720,
          "midi": 56,
          "name": "G#3",
          "ticks": 7440,
          "time": 10.108697,
          "velocity": 1
        },
        {
          "duration": 0.32608699999999935,
          "durationTicks": 240,
          "midi": 75,
          "name": "D#5",
          "ticks": 7440,
          "time": 10.108697,
          "velocity": 0.9448818897637795
        },
        {
          "duration": 0.32608699999999935,
          "durationTicks": 240,
          "midi": 77,
          "name": "F5",
          "ticks": 7680,
          "time": 10.434783999999999,
          "velocity": 0.9448818897637795
        },
        {
          "duration": 0.3260870000000011,
          "durationTicks": 240,
          "midi": 51,
          "name": "D#3",
          "ticks": 7920,
          "time": 10.760870999999998,
          "velocity": 1
        },
        {
          "duration": 0.3260870000000011,
          "durationTicks": 240,
          "midi": 79,
          "name": "G5",
          "ticks": 7920,
          "time": 10.760870999999998,
          "velocity": 0.9448818897637795
        },
        {
          "duration": 0.32608699999999935,
          "durationTicks": 240,
          "midi": 49,
          "name": "C#3",
          "ticks": 8160,
          "time": 11.086958,
          "velocity": 1
        },
        {
          "duration": 0.8152174999999993,
          "durationTicks": 600,
          "midi": 49,
          "name": "C#3",
          "ticks": 8160,
          "time": 11.086958,
          "velocity": 0.9448818897637795
        },
        {
          "duration": 0.6521739999999987,
          "durationTicks": 480,
          "midi": 56,
          "name": "G#3",
          "ticks": 8160,
          "time": 11.086958,
          "velocity": 0.9448818897637795
        },
        {
          "duration": 0.6521739999999987,
          "durationTicks": 480,
          "midi": 61,
          "name": "C#4",
          "ticks": 8160,
          "time": 11.086958,
          "velocity": 0.9448818897637795
        },
        {
          "duration": 0.6521739999999987,
          "durationTicks": 480,
          "midi": 65,
          "name": "F4",
          "ticks": 8160,
          "time": 11.086958,
          "velocity": 0.9448818897637795
        },
        {
          "duration": 0.6521739999999987,
          "durationTicks": 480,
          "midi": 80,
          "name": "G#5",
          "ticks": 8160,
          "time": 11.086958,
          "velocity": 0.9448818897637795
        },
        {
          "duration": 0.32608699999999935,
          "durationTicks": 240,
          "midi": 53,
          "name": "F3",
          "ticks": 8400,
          "time": 11.413044999999999,
          "velocity": 0.9448818897637795
        },
        {
          "duration": 0.6521740000000005,
          "durationTicks": 480,
          "midi": 68,
          "name": "G#4",
          "ticks": 8400,
          "time": 11.413044999999999,
          "velocity": 0.9448818897637795
        },
        {
          "duration": 0.6521740000000005,
          "durationTicks": 480,
          "midi": 56,
          "name": "G#3",
          "ticks": 8640,
          "time": 11.739131999999998,
          "velocity": 0.9448818897637795
        },
        {
          "duration": 0.6521740000000005,
          "durationTicks": 480,
          "midi": 61,
          "name": "C#4",
          "ticks": 8640,
          "time": 11.739131999999998,
          "velocity": 0.9448818897637795
        },
        {
          "duration": 0.6521740000000005,
          "durationTicks": 480,
          "midi": 73,
          "name": "C#5",
          "ticks": 8640,
          "time": 11.739131999999998,
          "velocity": 0.9448818897637795
        },
        {
          "duration": 0.3260870000000011,
          "durationTicks": 240,
          "midi": 79,
          "name": "G5",
          "ticks": 8640,
          "time": 11.739131999999998,
          "velocity": 0.9448818897637795
        },
        {
          "duration": 0.32608699999999935,
          "durationTicks": 240,
          "midi": 49,
          "name": "C#3",
          "ticks": 8880,
          "time": 12.065218999999999,
          "velocity": 1
        },
        {
          "duration": 0.32608699999999935,
          "durationTicks": 240,
          "midi": 80,
          "name": "G#5",
          "ticks": 8880,
          "time": 12.065218999999999,
          "velocity": 0.9448818897637795
        },
        {
          "duration": 0.8152174999999993,
          "durationTicks": 600,
          "midi": 51,
          "name": "D#3",
          "ticks": 9120,
          "time": 12.391305999999998,
          "velocity": 1
        },
        {
          "duration": 0.9782609999999998,
          "durationTicks": 720,
          "midi": 58,
          "name": "A#3",
          "ticks": 9120,
          "time": 12.391305999999998,
          "velocity": 0.9448818897637795
        },
        {
          "duration": 0.9782609999999998,
          "durationTicks": 720,
          "midi": 63,
          "name": "D#4",
          "ticks": 9120,
          "time": 12.391305999999998,
          "velocity": 0.9448818897637795
        },
        {
          "duration": 0.6521740000000005,
          "durationTicks": 480,
          "midi": 67,
          "name": "G4",
          "ticks": 9120,
          "time": 12.391305999999998,
          "velocity": 0.9448818897637795
        },
        {
          "duration": 0.9782609999999998,
          "durationTicks": 720,
          "midi": 67,
          "name": "G4",
          "ticks": 9120,
          "time": 12.391305999999998,
          "velocity": 0.9448818897637795
        },
        {
          "duration": 0.32608699999999935,
          "durationTicks": 240,
          "midi": 79,
          "name": "G5",
          "ticks": 9120,
          "time": 12.391305999999998,
          "velocity": 0.9448818897637795
        },
        {
          "duration": 0.6521740000000005,
          "durationTicks": 480,
          "midi": 70,
          "name": "A#4",
          "ticks": 9360,
          "time": 12.717392999999998,
          "velocity": 0.9448818897637795
        },
        {
          "duration": 0.3260870000000011,
          "durationTicks": 240,
          "midi": 77,
          "name": "F5",
          "ticks": 9360,
          "time": 12.717392999999998,
          "velocity": 0.9448818897637795
        },
        {
          "duration": 0.32608699999999935,
          "durationTicks": 240,
          "midi": 75,
          "name": "D#5",
          "ticks": 9600,
          "time": 13.043479999999999,
          "velocity": 0.9448818897637795
        },
        {
          "duration": 0.6521739999999987,
          "durationTicks": 480,
          "midi": 75,
          "name": "D#5",
          "ticks": 9600,
          "time": 13.043479999999999,
          "velocity": 0.9448818897637795
        },
        {
          "duration": 0.32608699999999935,
          "durationTicks": 240,
          "midi": 51,
          "name": "D#3",
          "ticks": 9840,
          "time": 13.369566999999998,
          "velocity": 1
        },
        {
          "duration": 0.6521740000000005,
          "durationTicks": 480,
          "midi": 70,
          "name": "A#4",
          "ticks": 9840,
          "time": 13.369566999999998,
          "velocity": 0.9448818897637795
        },
        {
          "duration": 0.16304350000000056,
          "durationTicks": 120,
          "midi": 72,
          "name": "C5",
          "ticks": 9840,
          "time": 13.369566999999998,
          "velocity": 0.9448818897637795
        },
        {
          "duration": 0.6521740000000005,
          "durationTicks": 480,
          "midi": 77,
          "name": "F5",
          "ticks": 9840,
          "time": 13.369566999999998,
          "velocity": 0.9448818897637795
        },
        {
          "duration": 0.1630434999999988,
          "durationTicks": 120,
          "midi": 73,
          "name": "C#5",
          "ticks": 9960,
          "time": 13.532610499999999,
          "velocity": 0.9448818897637795
        },
        {
          "duration": 0.3260870000000011,
          "durationTicks": 240,
          "midi": 56,
          "name": "G#3",
          "ticks": 10080,
          "time": 13.695653999999998,
          "velocity": 0.9448818897637795
        },
        {
          "duration": 0.6521740000000005,
          "durationTicks": 480,
          "midi": 60,
          "name": "C4",
          "ticks": 10080,
          "time": 13.695653999999998,
          "velocity": 1
        },
        {
          "duration": 0.6521740000000005,
          "durationTicks": 480,
          "midi": 68,
          "name": "G#4",
          "ticks": 10080,
          "time": 13.695653999999998,
          "velocity": 0.9448818897637795
        },
        {
          "duration": 0.3260870000000011,
          "durationTicks": 240,
          "midi": 75,
          "name": "D#5",
          "ticks": 10080,
          "time": 13.695653999999998,
          "velocity": 0.9448818897637795
        },
        {
          "duration": 0.4891304999999999,
          "durationTicks": 360,
          "midi": 60,
          "name": "C4",
          "ticks": 10320,
          "time": 14.021740999999999,
          "velocity": 0.9448818897637795
        },
        {
          "duration": 0.32608699999999935,
          "durationTicks": 240,
          "midi": 68,
          "name": "G#4",
          "ticks": 10320,
          "time": 14.021740999999999,
          "velocity": 0.9448818897637795
        },
        {
          "duration": 0.6521739999999987,
          "durationTicks": 480,
          "midi": 75,
          "name": "D#5",
          "ticks": 10320,
          "time": 14.021740999999999,
          "velocity": 0.9448818897637795
        },
        {
          "duration": 0.9782609999999998,
          "durationTicks": 720,
          "midi": 75,
          "name": "D#5",
          "ticks": 10320,
          "time": 14.021740999999999,
          "velocity": 0.9448818897637795
        },
        {
          "duration": 0.5706522500000002,
          "durationTicks": 420,
          "midi": 63,
          "name": "D#4",
          "ticks": 10560,
          "time": 14.347827999999998,
          "velocity": 0.9448818897637795
        },
        {
          "duration": 0.32608699999999935,
          "durationTicks": 240,
          "midi": 72,
          "name": "C5",
          "ticks": 10560,
          "time": 14.347827999999998,
          "velocity": 0.9448818897637795
        },
        {
          "duration": 0.6521740000000005,
          "durationTicks": 480,
          "midi": 72,
          "name": "C5",
          "ticks": 10560,
          "time": 14.347827999999998,
          "velocity": 0.9448818897637795
        },
        {
          "duration": 0.24456525000000084,
          "durationTicks": 180,
          "midi": 60,
          "name": "C4",
          "ticks": 10800,
          "time": 14.673914999999997,
          "velocity": 1
        },
        {
          "duration": 0.3260870000000011,
          "durationTicks": 240,
          "midi": 75,
          "name": "D#5",
          "ticks": 10800,
          "time": 14.673914999999997,
          "velocity": 0.9448818897637795
        },
        {
          "duration": 0.6521740000000005,
          "durationTicks": 480,
          "midi": 75,
          "name": "D#5",
          "ticks": 10800,
          "time": 14.673914999999997,
          "velocity": 0.9448818897637795
        },
        {
          "duration": 0.32608699999999935,
          "durationTicks": 240,
          "midi": 51,
          "name": "D#3",
          "ticks": 11040,
          "time": 15.000001999999999,
          "velocity": 0.9448818897637795
        },
        {
          "duration": 0.4891304999999999,
          "durationTicks": 360,
          "midi": 53,
          "name": "F3",
          "ticks": 11040,
          "time": 15.000001999999999,
          "velocity": 1
        },
        {
          "duration": 0.6521739999999987,
          "durationTicks": 480,
          "midi": 63,
          "name": "D#4",
          "ticks": 11040,
          "time": 15.000001999999999,
          "velocity": 0.9448818897637795
        },
        {
          "duration": 0.6521739999999987,
          "durationTicks": 480,
          "midi": 67,
          "name": "G4",
          "ticks": 11040,
          "time": 15.000001999999999,
          "velocity": 0.9448818897637795
        },
        {
          "duration": 0.6521739999999987,
          "durationTicks": 480,
          "midi": 67,
          "name": "G4",
          "ticks": 11040,
          "time": 15.000001999999999,
          "velocity": 0.9448818897637795
        },
        {
          "duration": 0.6521739999999987,
          "durationTicks": 480,
          "midi": 70,
          "name": "A#4",
          "ticks": 11040,
          "time": 15.000001999999999,
          "velocity": 0.9448818897637795
        },
        {
          "duration": 0.32608699999999935,
          "durationTicks": 240,
          "midi": 58,
          "name": "A#3",
          "ticks": 11280,
          "time": 15.326088999999998,
          "velocity": 0.9448818897637795
        },
        {
          "duration": 0.32608699999999935,
          "durationTicks": 240,
          "midi": 68,
          "name": "G#4",
          "ticks": 11280,
          "time": 15.326088999999998,
          "velocity": 0.9448818897637795
        },
        {
          "duration": 0.6521740000000005,
          "durationTicks": 480,
          "midi": 75,
          "name": "D#5",
          "ticks": 11280,
          "time": 15.326088999999998,
          "velocity": 0.9448818897637795
        },
        {
          "duration": 0.3260870000000011,
          "durationTicks": 240,
          "midi": 51,
          "name": "D#3",
          "ticks": 11520,
          "time": 15.652175999999997,
          "velocity": 0.9448818897637795
        },
        {
          "duration": 0.4891305000000017,
          "durationTicks": 360,
          "midi": 53,
          "name": "F3",
          "ticks": 11520,
          "time": 15.652175999999997,
          "velocity": 1
        },
        {
          "duration": 0.6521740000000023,
          "durationTicks": 480,
          "midi": 68,
          "name": "G#4",
          "ticks": 11520,
          "time": 15.652175999999997,
          "velocity": 0.9448818897637795
        },
        {
          "duration": 0.6521740000000023,
          "durationTicks": 480,
          "midi": 68,
          "name": "G#4",
          "ticks": 11520,
          "time": 15.652175999999997,
          "velocity": 0.9448818897637795
        },
        {
          "duration": 0.3260870000000011,
          "durationTicks": 240,
          "midi": 70,
          "name": "A#4",
          "ticks": 11520,
          "time": 15.652175999999997,
          "velocity": 0.9448818897637795
        },
        {
          "duration": 0.6521740000000023,
          "durationTicks": 480,
          "midi": 72,
          "name": "C5",
          "ticks": 11520,
          "time": 15.652175999999997,
          "velocity": 0.9448818897637795
        },
        {
          "duration": 0.3260870000000011,
          "durationTicks": 240,
          "midi": 56,
          "name": "G#3",
          "ticks": 11760,
          "time": 15.978262999999998,
          "velocity": 0.9448818897637795
        },
        {
          "duration": 0.3260870000000011,
          "durationTicks": 240,
          "midi": 72,
          "name": "C5",
          "ticks": 11760,
          "time": 15.978262999999998,
          "velocity": 0.9448818897637795
        },
        {
          "duration": 0.6521739999999987,
          "durationTicks": 480,
          "midi": 75,
          "name": "D#5",
          "ticks": 11760,
          "time": 15.978262999999998,
          "velocity": 0.9448818897637795
        },
        {
          "duration": 0.8152174999999993,
          "durationTicks": 600,
          "midi": 46,
          "name": "A#2",
          "ticks": 12000,
          "time": 16.30435,
          "velocity": 1
        },
        {
          "duration": 0.3260869999999976,
          "durationTicks": 240,
          "midi": 53,
          "name": "F3",
          "ticks": 12000,
          "time": 16.30435,
          "velocity": 0.9448818897637795
        },
        {
          "duration": 0.6521739999999987,
          "durationTicks": 480,
          "midi": 65,
          "name": "F4",
          "ticks": 12000,
          "time": 16.30435,
          "velocity": 0.9448818897637795
        },
        {
          "duration": 1.3043479999999974,
          "durationTicks": 960,
          "midi": 68,
          "name": "G#4",
          "ticks": 12000,
          "time": 16.30435,
          "velocity": 0.9448818897637795
        },
        {
          "duration": 0.6521739999999987,
          "durationTicks": 480,
          "midi": 70,
          "name": "A#4",
          "ticks": 12000,
          "time": 16.30435,
          "velocity": 0.9448818897637795
        },
        {
          "duration": 0.6521739999999987,
          "durationTicks": 480,
          "midi": 73,
          "name": "C#5",
          "ticks": 12000,
          "time": 16.30435,
          "velocity": 0.9448818897637795
        },
        {
          "duration": 1.3043479999999974,
          "durationTicks": 960,
          "midi": 73,
          "name": "C#5",
          "ticks": 12000,
          "time": 16.30435,
          "velocity": 0.9448818897637795
        },
        {
          "duration": 0.3260870000000011,
          "durationTicks": 240,
          "midi": 56,
          "name": "G#3",
          "ticks": 12240,
          "time": 16.630436999999997,
          "velocity": 0.9448818897637795
        },
        {
          "duration": 0.6521740000000023,
          "durationTicks": 480,
          "midi": 65,
          "name": "F4",
          "ticks": 12240,
          "time": 16.630436999999997,
          "velocity": 0.9448818897637795
        },
        {
          "duration": 0.6521739999999987,
          "durationTicks": 480,
          "midi": 61,
          "name": "C#4",
          "ticks": 12480,
          "time": 16.956523999999998,
          "velocity": 0.9448818897637795
        },
        {
          "duration": 0.3260870000000011,
          "durationTicks": 240,
          "midi": 72,
          "name": "C5",
          "ticks": 12480,
          "time": 16.956523999999998,
          "velocity": 0.9448818897637795
        },
        {
          "duration": 0.6521739999999987,
          "durationTicks": 480,
          "midi": 73,
          "name": "C#5",
          "ticks": 12480,
          "time": 16.956523999999998,
          "velocity": 0.9448818897637795
        },
        {
          "duration": 0.3260869999999976,
          "durationTicks": 240,
          "midi": 46,
          "name": "A#2",
          "ticks": 12720,
          "time": 17.282611,
          "velocity": 1
        },
        {
          "duration": 0.3260869999999976,
          "durationTicks": 240,
          "midi": 73,
          "name": "C#5",
          "ticks": 12720,
          "time": 17.282611,
          "velocity": 0.9448818897637795
        },
        {
          "duration": 0.8152174999999993,
          "durationTicks": 600,
          "midi": 51,
          "name": "D#3",
          "ticks": 12960,
          "time": 17.608697999999997,
          "velocity": 1
        },
        {
          "duration": 0.3260870000000011,
          "durationTicks": 240,
          "midi": 56,
          "name": "G#3",
          "ticks": 12960,
          "time": 17.608697999999997,
          "velocity": 0.9448818897637795
        },
        {
          "duration": 0.6521740000000023,
          "durationTicks": 480,
          "midi": 67,
          "name": "G4",
          "ticks": 12960,
          "time": 17.608697999999997,
          "velocity": 0.9448818897637795
        },
        {
          "duration": 0.9782609999999998,
          "durationTicks": 720,
          "midi": 70,
          "name": "A#4",
          "ticks": 12960,
          "time": 17.608697999999997,
          "velocity": 0.9448818897637795
        },
        {
          "duration": 0.3260870000000011,
          "durationTicks": 240,
          "midi": 75,
          "name": "D#5",
          "ticks": 12960,
          "time": 17.608697999999997,
          "velocity": 0.9448818897637795
        },
        {
          "duration": 1.304348000000001,
          "durationTicks": 960,
          "midi": 75,
          "name": "D#5",
          "ticks": 12960,
          "time": 17.608697999999997,
          "velocity": 0.9448818897637795
        },
        {
          "duration": 0.3260870000000011,
          "durationTicks": 240,
          "midi": 58,
          "name": "A#3",
          "ticks": 13200,
          "time": 17.934784999999998,
          "velocity": 0.9448818897637795
        },
        {
          "duration": 0.3260870000000011,
          "durationTicks": 240,
          "midi": 68,
          "name": "G#4",
          "ticks": 13200,
          "time": 17.934784999999998,
          "velocity": 0.9448818897637795
        },
        {
          "duration": 0.6521739999999987,
          "durationTicks": 480,
          "midi": 70,
          "name": "A#4",
          "ticks": 13200,
          "time": 17.934784999999998,
          "velocity": 0.9448818897637795
        },
        {
          "duration": 0.6521739999999987,
          "durationTicks": 480,
          "midi": 63,
          "name": "D#4",
          "ticks": 13440,
          "time": 18.260872,
          "velocity": 0.9448818897637795
        },
        {
          "duration": 0.6521739999999987,
          "durationTicks": 480,
          "midi": 70,
          "name": "A#4",
          "ticks": 13440,
          "time": 18.260872,
          "velocity": 0.9448818897637795
        },
        {
          "duration": 0.6521739999999987,
          "durationTicks": 480,
          "midi": 75,
          "name": "D#5",
          "ticks": 13440,
          "time": 18.260872,
          "velocity": 0.9448818897637795
        },
        {
          "duration": 0.4891305000000017,
          "durationTicks": 360,
          "midi": 51,
          "name": "D#3",
          "ticks": 13680,
          "time": 18.586958999999997,
          "velocity": 1
        },
        {
          "duration": 0.6521740000000023,
          "durationTicks": 480,
          "midi": 70,
          "name": "A#4",
          "ticks": 13680,
          "time": 18.586958999999997,
          "velocity": 0.9448818897637795
        },
        {
          "duration": 0.570652250000002,
          "durationTicks": 420,
          "midi": 72,
          "name": "C5",
          "ticks": 13680,
          "time": 18.586958999999997,
          "velocity": 0.9448818897637795
        },
        {
          "duration": 0.3260870000000011,
          "durationTicks": 240,
          "midi": 44,
          "name": "G#2",
          "ticks": 13920,
          "time": 18.913045999999998,
          "velocity": 0.9448818897637795
        },
        {
          "duration": 0.5706522499999984,
          "durationTicks": 420,
          "midi": 56,
          "name": "G#3",
          "ticks": 13920,
          "time": 18.913045999999998,
          "velocity": 1
        },
        {
          "duration": 0.6521739999999987,
          "durationTicks": 480,
          "midi": 68,
          "name": "G#4",
          "ticks": 13920,
          "time": 18.913045999999998,
          "velocity": 0.9448818897637795
        },
        {
          "duration": 0.9782609999999998,
          "durationTicks": 720,
          "midi": 68,
          "name": "G#4",
          "ticks": 13920,
          "time": 18.913045999999998,
          "velocity": 0.9448818897637795
        },
        {
          "duration": 0.9782609999999998,
          "durationTicks": 720,
          "midi": 72,
          "name": "C5",
          "ticks": 13920,
          "time": 18.913045999999998,
          "velocity": 0.9448818897637795
        },
        {
          "duration": 0.3260869999999976,
          "durationTicks": 240,
          "midi": 51,
          "name": "D#3",
          "ticks": 14160,
          "time": 19.239133,
          "velocity": 0.9448818897637795
        },
        {
          "duration": 0.6521739999999987,
          "durationTicks": 480,
          "midi": 63,
          "name": "D#4",
          "ticks": 14160,
          "time": 19.239133,
          "velocity": 0.9448818897637795
        },
        {
          "duration": 0.8152174999999993,
          "durationTicks": 600,
          "midi": 72,
          "name": "C5",
          "ticks": 14160,
          "time": 19.239133,
          "velocity": 0.9448818897637795
        },
        {
          "duration": 0.3260870000000011,
          "durationTicks": 240,
          "midi": 56,
          "name": "G#3",
          "ticks": 14400,
          "time": 19.565219999999997,
          "velocity": 0.9448818897637795
        },
        {
          "duration": 0.6521740000000023,
          "durationTicks": 480,
          "midi": 68,
          "name": "G#4",
          "ticks": 14400,
          "time": 19.565219999999997,
          "velocity": 0.9448818897637795
        },
        {
          "duration": 0.3260870000000011,
          "durationTicks": 240,
          "midi": 51,
          "name": "D#3",
          "ticks": 14640,
          "time": 19.891306999999998,
          "velocity": 1
        },
        {
          "duration": 0.3260870000000011,
          "durationTicks": 240,
          "midi": 63,
          "name": "D#4",
          "ticks": 14640,
          "time": 19.891306999999998,
          "velocity": 0.9448818897637795
        },
        {
          "duration": 0.3260870000000011,
          "durationTicks": 240,
          "midi": 72,
          "name": "C5",
          "ticks": 14640,
          "time": 19.891306999999998,
          "velocity": 0.9448818897637795
        },
        {
          "duration": 0.6521739999999987,
          "durationTicks": 480,
          "midi": 72,
          "name": "C5",
          "ticks": 14640,
          "time": 19.891306999999998,
          "velocity": 0.9448818897637795
        },
        {
          "duration": 0.16304350000000056,
          "durationTicks": 120,
          "midi": 73,
          "name": "C#5",
          "ticks": 14760,
          "time": 20.054350499999998,
          "velocity": 0.9448818897637795
        },
        {
          "duration": 0.3260869999999976,
          "durationTicks": 240,
          "midi": 44,
          "name": "G#2",
          "ticks": 14880,
          "time": 20.217394,
          "velocity": 0.9448818897637795
        },
        {
          "duration": 0.6521739999999987,
          "durationTicks": 480,
          "midi": 56,
          "name": "G#3",
          "ticks": 14880,
          "time": 20.217394,
          "velocity": 1
        },
        {
          "duration": 0.6521739999999987,
          "durationTicks": 480,
          "midi": 67,
          "name": "G4",
          "ticks": 14880,
          "time": 20.217394,
          "velocity": 0.9448818897637795
        },
        {
          "duration": 0.6521739999999987,
          "durationTicks": 480,
          "midi": 68,
          "name": "G#4",
          "ticks": 14880,
          "time": 20.217394,
          "velocity": 0.9448818897637795
        },
        {
          "duration": 0.6521739999999987,
          "durationTicks": 480,
          "midi": 72,
          "name": "C5",
          "ticks": 14880,
          "time": 20.217394,
          "velocity": 0.9448818897637795
        },
        {
          "duration": 0.3260870000000011,
          "durationTicks": 240,
          "midi": 51,
          "name": "D#3",
          "ticks": 15120,
          "time": 20.543480999999996,
          "velocity": 0.9448818897637795
        },
        {
          "duration": 0.6521740000000023,
          "durationTicks": 480,
          "midi": 70,
          "name": "A#4",
          "ticks": 15120,
          "time": 20.543480999999996,
          "velocity": 0.9448818897637795
        },
        {
          "duration": 0.3260870000000011,
          "durationTicks": 240,
          "midi": 75,
          "name": "D#5",
          "ticks": 15120,
          "time": 20.543480999999996,
          "velocity": 0.9448818897637795
        },
        {
          "duration": 0.4891305000000017,
          "durationTicks": 360,
          "midi": 48,
          "name": "C3",
          "ticks": 15360,
          "time": 20.869567999999997,
          "velocity": 1
        },
        {
          "duration": 0.3260870000000011,
          "durationTicks": 240,
          "midi": 60,
          "name": "C4",
          "ticks": 15360,
          "time": 20.869567999999997,
          "velocity": 0.9448818897637795
        },
        {
          "duration": 0.6521739999999987,
          "durationTicks": 480,
          "midi": 63,
          "name": "D#4",
          "ticks": 15360,
          "time": 20.869567999999997,
          "velocity": 0.9448818897637795
        },
        {
          "duration": 0.6521739999999987,
          "durationTicks": 480,
          "midi": 70,
          "name": "A#4",
          "ticks": 15360,
          "time": 20.869567999999997,
          "velocity": 0.9448818897637795
        },
        {
          "duration": 0.6521739999999987,
          "durationTicks": 480,
          "midi": 75,
          "name": "D#5",
          "ticks": 15360,
          "time": 20.869567999999997,
          "velocity": 0.9448818897637795
        },
        {
          "duration": 0.3260870000000011,
          "durationTicks": 240,
          "midi": 77,
          "name": "F5",
          "ticks": 15360,
          "time": 20.869567999999997,
          "velocity": 0.9448818897637795
        },
        {
          "duration": 0.3260869999999976,
          "durationTicks": 240,
          "midi": 56,
          "name": "G#3",
          "ticks": 15600,
          "time": 21.195655,
          "velocity": 0.9448818897637795
        },
        {
          "duration": 0.6521739999999987,
          "durationTicks": 480,
          "midi": 70,
          "name": "A#4",
          "ticks": 15600,
          "time": 21.195655,
          "velocity": 0.9448818897637795
        },
        {
          "duration": 0.3260869999999976,
          "durationTicks": 240,
          "midi": 79,
          "name": "G5",
          "ticks": 15600,
          "time": 21.195655,
          "velocity": 0.9448818897637795
        },
        {
          "duration": 0.3260870000000011,
          "durationTicks": 240,
          "midi": 49,
          "name": "C#3",
          "ticks": 15840,
          "time": 21.521741999999996,
          "velocity": 1
        },
        {
          "duration": 0.8152175000000028,
          "durationTicks": 600,
          "midi": 49,
          "name": "C#3",
          "ticks": 15840,
          "time": 21.521741999999996,
          "velocity": 0.9448818897637795
        },
        {
          "duration": 0.6521740000000023,
          "durationTicks": 480,
          "midi": 61,
          "name": "C#4",
          "ticks": 15840,
          "time": 21.521741999999996,
          "velocity": 0.9448818897637795
        },
        {
          "duration": 0.6521740000000023,
          "durationTicks": 480,
          "midi": 65,
          "name": "F4",
          "ticks": 15840,
          "time": 21.521741999999996,
          "velocity": 0.9448818897637795
        },
        {
          "duration": 0.6521740000000023,
          "durationTicks": 480,
          "midi": 68,
          "name": "G#4",
          "ticks": 15840,
          "time": 21.521741999999996,
          "velocity": 0.9448818897637795
        },
        {
          "duration": 0.6521740000000023,
          "durationTicks": 480,
          "midi": 80,
          "name": "G#5",
          "ticks": 15840,
          "time": 21.521741999999996,
          "velocity": 0.9448818897637795
        },
        {
          "duration": 0.3260870000000011,
          "durationTicks": 240,
          "midi": 56,
          "name": "G#3",
          "ticks": 16080,
          "time": 21.847828999999997,
          "velocity": 0.9448818897637795
        },
        {
          "duration": 0.6521739999999987,
          "durationTicks": 480,
          "midi": 65,
          "name": "F4",
          "ticks": 16080,
          "time": 21.847828999999997,
          "velocity": 0.9448818897637795
        },
        {
          "duration": 0.3260869999999976,
          "durationTicks": 240,
          "midi": 61,
          "name": "C#4",
          "ticks": 16320,
          "time": 22.173916,
          "velocity": 0.9448818897637795
        },
        {
          "duration": 0.6521739999999987,
          "durationTicks": 480,
          "midi": 73,
          "name": "C#5",
          "ticks": 16320,
          "time": 22.173916,
          "velocity": 0.9448818897637795
        },
        {
          "duration": 0.3260869999999976,
          "durationTicks": 240,
          "midi": 77,
          "name": "F5",
          "ticks": 16320,
          "time": 22.173916,
          "velocity": 0.9448818897637795
        },
        {
          "duration": 0.3260869999999976,
          "durationTicks": 240,
          "midi": 79,
          "name": "G5",
          "ticks": 16320,
          "time": 22.173916,
          "velocity": 0.9448818897637795
        },
        {
          "duration": 0.3260870000000011,
          "durationTicks": 240,
          "midi": 49,
          "name": "C#3",
          "ticks": 16560,
          "time": 22.500002999999996,
          "velocity": 1
        },
        {
          "duration": 0.6521740000000023,
          "durationTicks": 480,
          "midi": 65,
          "name": "F4",
          "ticks": 16560,
          "time": 22.500002999999996,
          "velocity": 0.9448818897637795
        },
        {
          "duration": 0.3260870000000011,
          "durationTicks": 240,
          "midi": 80,
          "name": "G#5",
          "ticks": 16560,
          "time": 22.500002999999996,
          "velocity": 0.9448818897637795
        },
        {
          "duration": 0.3260870000000011,
          "durationTicks": 240,
          "midi": 80,
          "name": "G#5",
          "ticks": 16560,
          "time": 22.500002999999996,
          "velocity": 0.9448818897637795
        },
        {
          "duration": 0.3260870000000011,
          "durationTicks": 240,
          "midi": 51,
          "name": "D#3",
          "ticks": 16800,
          "time": 22.826089999999997,
          "velocity": 1
        },
        {
          "duration": 0.8152174999999993,
          "durationTicks": 600,
          "midi": 51,
          "name": "D#3",
          "ticks": 16800,
          "time": 22.826089999999997,
          "velocity": 0.9448818897637795
        },
        {
          "duration": 0.6521739999999987,
          "durationTicks": 480,
          "midi": 63,
          "name": "D#4",
          "ticks": 16800,
          "time": 22.826089999999997,
          "velocity": 0.9448818897637795
        },
        {
          "duration": 0.6521739999999987,
          "durationTicks": 480,
          "midi": 75,
          "name": "D#5",
          "ticks": 16800,
          "time": 22.826089999999997,
          "velocity": 0.9448818897637795
        },
        {
          "duration": 0.6521739999999987,
          "durationTicks": 480,
          "midi": 79,
          "name": "G5",
          "ticks": 16800,
          "time": 22.826089999999997,
          "velocity": 0.9448818897637795
        },
        {
          "duration": 0.3260870000000011,
          "durationTicks": 240,
          "midi": 82,
          "name": "A#5",
          "ticks": 16800,
          "time": 22.826089999999997,
          "velocity": 0.9448818897637795
        },
        {
          "duration": 0.3260869999999976,
          "durationTicks": 240,
          "midi": 58,
          "name": "A#3",
          "ticks": 17040,
          "time": 23.152177,
          "velocity": 0.9448818897637795
        },
        {
          "duration": 0.6521739999999987,
          "durationTicks": 480,
          "midi": 70,
          "name": "A#4",
          "ticks": 17040,
          "time": 23.152177,
          "velocity": 0.9448818897637795
        },
        {
          "duration": 0.3260869999999976,
          "durationTicks": 240,
          "midi": 80,
          "name": "G#5",
          "ticks": 17040,
          "time": 23.152177,
          "velocity": 0.9448818897637795
        },
        {
          "duration": 0.6521740000000023,
          "durationTicks": 480,
          "midi": 63,
          "name": "D#4",
          "ticks": 17280,
          "time": 23.478263999999996,
          "velocity": 0.9448818897637795
        },
        {
          "duration": 0.6521740000000023,
          "durationTicks": 480,
          "midi": 75,
          "name": "D#5",
          "ticks": 17280,
          "time": 23.478263999999996,
          "velocity": 0.9448818897637795
        },
        {
          "duration": 0.3260870000000011,
          "durationTicks": 240,
          "midi": 80,
          "name": "G#5",
          "ticks": 17280,
          "time": 23.478263999999996,
          "velocity": 0.9448818897637795
        },
        {
          "duration": 0.3260870000000011,
          "durationTicks": 240,
          "midi": 82,
          "name": "A#5",
          "ticks": 17280,
          "time": 23.478263999999996,
          "velocity": 0.9448818897637795
        },
        {
          "duration": 0.3260870000000011,
          "durationTicks": 240,
          "midi": 51,
          "name": "D#3",
          "ticks": 17520,
          "time": 23.804350999999997,
          "velocity": 1
        },
        {
          "duration": 0.3260870000000011,
          "durationTicks": 240,
          "midi": 82,
          "name": "A#5",
          "ticks": 17520,
          "time": 23.804350999999997,
          "velocity": 0.9448818897637795
        },
        {
          "duration": 0.6521739999999987,
          "durationTicks": 480,
          "midi": 84,
          "name": "C6",
          "ticks": 17520,
          "time": 23.804350999999997,
          "velocity": 0.9448818897637795
        },
        {
          "duration": 0.3260869999999976,
          "durationTicks": 240,
          "midi": 56,
          "name": "G#3",
          "ticks": 17760,
          "time": 24.130437999999998,
          "velocity": 1
        },
        {
          "duration": 0.48913049999999814,
          "durationTicks": 360,
          "midi": 56,
          "name": "G#3",
          "ticks": 17760,
          "time": 24.130437999999998,
          "velocity": 0.9448818897637795
        },
        {
          "duration": 0.6521739999999987,
          "durationTicks": 480,
          "midi": 68,
          "name": "G#4",
          "ticks": 17760,
          "time": 24.130437999999998,
          "velocity": 0.9448818897637795
        },
        {
          "duration": 0.3260869999999976,
          "durationTicks": 240,
          "midi": 80,
          "name": "G#5",
          "ticks": 17760,
          "time": 24.130437999999998,
          "velocity": 0.9448818897637795
        },
        {
          "duration": 0.3260869999999976,
          "durationTicks": 240,
          "midi": 84,
          "name": "C6",
          "ticks": 17760,
          "time": 24.130437999999998,
          "velocity": 0.9448818897637795
        },
        {
          "duration": 0.3260870000000011,
          "durationTicks": 240,
          "midi": 63,
          "name": "D#4",
          "ticks": 18000,
          "time": 24.456524999999996,
          "velocity": 0.9448818897637795
        },
        {
          "duration": 0.6521740000000023,
          "durationTicks": 480,
          "midi": 72,
          "name": "C5",
          "ticks": 18000,
          "time": 24.456524999999996,
          "velocity": 0.9448818897637795
        },
        {
          "duration": 0.3260870000000011,
          "durationTicks": 240,
          "midi": 75,
          "name": "D#5",
          "ticks": 18000,
          "time": 24.456524999999996,
          "velocity": 0.9448818897637795
        },
        {
          "duration": 0.9782609999999998,
          "durationTicks": 720,
          "midi": 75,
          "name": "D#5",
          "ticks": 18000,
          "time": 24.456524999999996,
          "velocity": 0.9448818897637795
        },
        {
          "duration": 0.3260870000000011,
          "durationTicks": 240,
          "midi": 55,
          "name": "G3",
          "ticks": 18240,
          "time": 24.782611999999997,
          "velocity": 1
        },
        {
          "duration": 0.4891305000000017,
          "durationTicks": 360,
          "midi": 55,
          "name": "G3",
          "ticks": 18240,
          "time": 24.782611999999997,
          "velocity": 0.9448818897637795
        },
        {
          "duration": 0.3260870000000011,
          "durationTicks": 240,
          "midi": 63,
          "name": "D#4",
          "ticks": 18240,
          "time": 24.782611999999997,
          "velocity": 0.9448818897637795
        },
        {
          "duration": 0.6521739999999987,
          "durationTicks": 480,
          "midi": 67,
          "name": "G4",
          "ticks": 18240,
          "time": 24.782611999999997,
          "velocity": 0.9448818897637795
        },
        {
          "duration": 0.3260870000000011,
          "durationTicks": 240,
          "midi": 70,
          "name": "A#4",
          "ticks": 18240,
          "time": 24.782611999999997,
          "velocity": 0.9448818897637795
        },
        {
          "duration": 0.3260869999999976,
          "durationTicks": 240,
          "midi": 63,
          "name": "D#4",
          "ticks": 18480,
          "time": 25.108698999999998,
          "velocity": 0.9448818897637795
        },
        {
          "duration": 0.6521739999999987,
          "durationTicks": 480,
          "midi": 72,
          "name": "C5",
          "ticks": 18480,
          "time": 25.108698999999998,
          "velocity": 0.9448818897637795
        },
        {
          "duration": 0.48913049999999814,
          "durationTicks": 360,
          "midi": 75,
          "name": "D#5",
          "ticks": 18480,
          "time": 25.108698999999998,
          "velocity": 0.9448818897637795
        },
        {
          "duration": 0.3260870000000011,
          "durationTicks": 240,
          "midi": 53,
          "name": "F3",
          "ticks": 18720,
          "time": 25.434785999999995,
          "velocity": 1
        },
        {
          "duration": 0.4891305000000017,
          "durationTicks": 360,
          "midi": 53,
          "name": "F3",
          "ticks": 18720,
          "time": 25.434785999999995,
          "velocity": 0.9448818897637795
        },
        {
          "duration": 0.6521740000000023,
          "durationTicks": 480,
          "midi": 65,
          "name": "F4",
          "ticks": 18720,
          "time": 25.434785999999995,
          "velocity": 0.9448818897637795
        },
        {
          "duration": 0.3260870000000011,
          "durationTicks": 240,
          "midi": 75,
          "name": "D#5",
          "ticks": 18720,
          "time": 25.434785999999995,
          "velocity": 0.9448818897637795
        },
        {
          "duration": 0.3260870000000011,
          "durationTicks": 240,
          "midi": 80,
          "name": "G#5",
          "ticks": 18720,
          "time": 25.434785999999995,
          "velocity": 0.9448818897637795
        },
        {
          "duration": 0.3260870000000011,
          "durationTicks": 240,
          "midi": 63,
          "name": "D#4",
          "ticks": 18960,
          "time": 25.760872999999997,
          "velocity": 0.9448818897637795
        },
        {
          "duration": 0.3260870000000011,
          "durationTicks": 240,
          "midi": 68,
          "name": "G#4",
          "ticks": 18960,
          "time": 25.760872999999997,
          "velocity": 0.9448818897637795
        },
        {
          "duration": 0.3260870000000011,
          "durationTicks": 240,
          "midi": 75,
          "name": "D#5",
          "ticks": 18960,
          "time": 25.760872999999997,
          "velocity": 0.9448818897637795
        },
        {
          "duration": 0.6521739999999987,
          "durationTicks": 480,
          "midi": 75,
          "name": "D#5",
          "ticks": 18960,
          "time": 25.760872999999997,
          "velocity": 0.9448818897637795
        },
        {
          "duration": 0.6521739999999987,
          "durationTicks": 480,
          "midi": 51,
          "name": "D#3",
          "ticks": 19200,
          "time": 26.086959999999998,
          "velocity": 1
        },
        {
          "duration": 0.3260869999999976,
          "durationTicks": 240,
          "midi": 70,
          "name": "A#4",
          "ticks": 19200,
          "time": 26.086959999999998,
          "velocity": 0.9448818897637795
        },
        {
          "duration": 0.6521739999999987,
          "durationTicks": 480,
          "midi": 72,
          "name": "C5",
          "ticks": 19200,
          "time": 26.086959999999998,
          "velocity": 0.9448818897637795
        },
        {
          "duration": 0.3260869999999976,
          "durationTicks": 240,
          "midi": 75,
          "name": "D#5",
          "ticks": 19200,
          "time": 26.086959999999998,
          "velocity": 0.9448818897637795
        },
        {
          "duration": 0.3260869999999976,
          "durationTicks": 240,
          "midi": 79,
          "name": "G5",
          "ticks": 19200,
          "time": 26.086959999999998,
          "velocity": 0.9448818897637795
        },
        {
          "duration": 0.3260870000000011,
          "durationTicks": 240,
          "midi": 72,
          "name": "C5",
          "ticks": 19440,
          "time": 26.413046999999995,
          "velocity": 0.9448818897637795
        },
        {
          "duration": 0.3260870000000011,
          "durationTicks": 240,
          "midi": 75,
          "name": "D#5",
          "ticks": 19440,
          "time": 26.413046999999995,
          "velocity": 0.9448818897637795
        },
        {
          "duration": 0.6521740000000023,
          "durationTicks": 480,
          "midi": 75,
          "name": "D#5",
          "ticks": 19440,
          "time": 26.413046999999995,
          "velocity": 0.9448818897637795
        },
        {
          "duration": 0.8152174999999993,
          "durationTicks": 600,
          "midi": 49,
          "name": "C#3",
          "ticks": 19680,
          "time": 26.739133999999996,
          "velocity": 1
        },
        {
          "duration": 0.3260870000000011,
          "durationTicks": 240,
          "midi": 63,
          "name": "D#4",
          "ticks": 19680,
          "time": 26.739133999999996,
          "velocity": 0.9448818897637795
        },
        {
          "duration": 0.6521739999999987,
          "durationTicks": 480,
          "midi": 70,
          "name": "A#4",
          "ticks": 19680,
          "time": 26.739133999999996,
          "velocity": 0.9448818897637795
        },
        {
          "duration": 0.6521739999999987,
          "durationTicks": 480,
          "midi": 73,
          "name": "C#5",
          "ticks": 19680,
          "time": 26.739133999999996,
          "velocity": 0.9448818897637795
        },
        {
          "duration": 0.6521739999999987,
          "durationTicks": 480,
          "midi": 73,
          "name": "C#5",
          "ticks": 19680,
          "time": 26.739133999999996,
          "velocity": 0.9448818897637795
        },
        {
          "duration": 0.6521739999999987,
          "durationTicks": 480,
          "midi": 75,
          "name": "D#5",
          "ticks": 19680,
          "time": 26.739133999999996,
          "velocity": 0.9448818897637795
        },
        {
          "duration": 0.6521739999999987,
          "durationTicks": 480,
          "midi": 65,
          "name": "F4",
          "ticks": 19920,
          "time": 27.065220999999998,
          "velocity": 0.9448818897637795
        },
        {
          "duration": 0.3260870000000011,
          "durationTicks": 240,
          "midi": 61,
          "name": "C#4",
          "ticks": 20160,
          "time": 27.391307999999995,
          "velocity": 0.9448818897637795
        },
        {
          "duration": 0.3260870000000011,
          "durationTicks": 240,
          "midi": 72,
          "name": "C5",
          "ticks": 20160,
          "time": 27.391307999999995,
          "velocity": 0.9448818897637795
        },
        {
          "duration": 0.3260870000000011,
          "durationTicks": 240,
          "midi": 73,
          "name": "C#5",
          "ticks": 20160,
          "time": 27.391307999999995,
          "velocity": 0.9448818897637795
        },
        {
          "duration": 0.6521740000000023,
          "durationTicks": 480,
          "midi": 73,
          "name": "C#5",
          "ticks": 20160,
          "time": 27.391307999999995,
          "velocity": 0.9448818897637795
        },
        {
          "duration": 0.3260870000000011,
          "durationTicks": 240,
          "midi": 49,
          "name": "C#3",
          "ticks": 20400,
          "time": 27.717394999999996,
          "velocity": 1
        },
        {
          "duration": 0.3260870000000011,
          "durationTicks": 240,
          "midi": 56,
          "name": "G#3",
          "ticks": 20400,
          "time": 27.717394999999996,
          "velocity": 0.9448818897637795
        },
        {
          "duration": 0.16304350000000056,
          "durationTicks": 120,
          "midi": 72,
          "name": "C5",
          "ticks": 20400,
          "time": 27.717394999999996,
          "velocity": 0.9448818897637795
        },
        {
          "duration": 0.3260870000000011,
          "durationTicks": 240,
          "midi": 73,
          "name": "C#5",
          "ticks": 20400,
          "time": 27.717394999999996,
          "velocity": 0.9448818897637795
        },
        {
          "duration": 0.6521739999999987,
          "durationTicks": 480,
          "midi": 75,
          "name": "D#5",
          "ticks": 20400,
          "time": 27.717394999999996,
          "velocity": 0.9448818897637795
        },
        {
          "duration": 0.16304350000000056,
          "durationTicks": 120,
          "midi": 70,
          "name": "A#4",
          "ticks": 20520,
          "time": 27.880438499999997,
          "velocity": 0.9448818897637795
        },
        {
          "duration": 0.9782609999999998,
          "durationTicks": 720,
          "midi": 51,
          "name": "D#3",
          "ticks": 20640,
          "time": 28.043481999999997,
          "velocity": 1
        },
        {
          "duration": 0.3260869999999976,
          "durationTicks": 240,
          "midi": 63,
          "name": "D#4",
          "ticks": 20640,
          "time": 28.043481999999997,
          "velocity": 0.9448818897637795
        },
        {
          "duration": 0.5706522499999984,
          "durationTicks": 420,
          "midi": 68,
          "name": "G#4",
          "ticks": 20640,
          "time": 28.043481999999997,
          "velocity": 0.9448818897637795
        },
        {
          "duration": 0.48913049999999814,
          "durationTicks": 360,
          "midi": 75,
          "name": "D#5",
          "ticks": 20640,
          "time": 28.043481999999997,
          "velocity": 0.9448818897637795
        },
        {
          "duration": 0.6521739999999987,
          "durationTicks": 480,
          "midi": 80,
          "name": "G#5",
          "ticks": 20640,
          "time": 28.043481999999997,
          "velocity": 0.9448818897637795
        },
        {
          "duration": 0.3260870000000011,
          "durationTicks": 240,
          "midi": 58,
          "name": "A#3",
          "ticks": 20880,
          "time": 28.369568999999995,
          "velocity": 0.952755905511811
        },
        {
          "duration": 0.6521740000000023,
          "durationTicks": 480,
          "midi": 75,
          "name": "D#5",
          "ticks": 20880,
          "time": 28.369568999999995,
          "velocity": 0.9448818897637795
        },
        {
          "duration": 0.4891305000000017,
          "durationTicks": 360,
          "midi": 70,
          "name": "A#4",
          "ticks": 21000,
          "time": 28.532612499999995,
          "velocity": 0.9448818897637795
        },
        {
          "duration": 0.3260870000000011,
          "durationTicks": 240,
          "midi": 58,
          "name": "A#3",
          "ticks": 21120,
          "time": 28.695655999999996,
          "velocity": 0.9606299212598425
        },
        {
          "duration": 0.570652250000002,
          "durationTicks": 420,
          "midi": 63,
          "name": "D#4",
          "ticks": 21120,
          "time": 28.695655999999996,
          "velocity": 0.9606299212598425
        },
        {
          "duration": 0.570652250000002,
          "durationTicks": 420,
          "midi": 67,
          "name": "G4",
          "ticks": 21120,
          "time": 28.695655999999996,
          "velocity": 0.9606299212598425
        },
        {
          "duration": 0.6521739999999987,
          "durationTicks": 480,
          "midi": 68,
          "name": "G#4",
          "ticks": 21120,
          "time": 28.695655999999996,
          "velocity": 0.9448818897637795
        },
        {
          "duration": 0.3260869999999976,
          "durationTicks": 240,
          "midi": 51,
          "name": "D#3",
          "ticks": 21360,
          "time": 29.021742999999997,
          "velocity": 1
        },
        {
          "duration": 0.3260869999999976,
          "durationTicks": 240,
          "midi": 51,
          "name": "D#3",
          "ticks": 21360,
          "time": 29.021742999999997,
          "velocity": 0.968503937007874
        },
        {
          "duration": 0.3260869999999976,
          "durationTicks": 240,
          "midi": 68,
          "name": "G#4",
          "ticks": 21360,
          "time": 29.021742999999997,
          "velocity": 0.9448818897637795
        },
        {
          "duration": 0.6521739999999987,
          "durationTicks": 480,
          "midi": 75,
          "name": "D#5",
          "ticks": 21360,
          "time": 29.021742999999997,
          "velocity": 0.9448818897637795
        },
        {
          "duration": 1.4673915000000015,
          "durationTicks": 1080,
          "midi": 52,
          "name": "E3",
          "ticks": 21600,
          "time": 29.347829999999995,
          "velocity": 1
        },
        {
          "duration": 0.6521740000000023,
          "durationTicks": 480,
          "midi": 67,
          "name": "G4",
          "ticks": 21600,
          "time": 29.347829999999995,
          "velocity": 0.9448818897637795
        },
        {
          "duration": 0.3260870000000011,
          "durationTicks": 240,
          "midi": 68,
          "name": "G#4",
          "ticks": 21600,
          "time": 29.347829999999995,
          "velocity": 0.9763779527559056
        },
        {
          "duration": 0.6521740000000023,
          "durationTicks": 480,
          "midi": 71,
          "name": "B4",
          "ticks": 21600,
          "time": 29.347829999999995,
          "velocity": 0.9763779527559056
        },
        {
          "duration": 0.6521740000000023,
          "durationTicks": 480,
          "midi": 75,
          "name": "D#5",
          "ticks": 21600,
          "time": 29.347829999999995,
          "velocity": 0.9763779527559056
        },
        {
          "duration": 0.16304350000000056,
          "durationTicks": 120,
          "midi": 56,
          "name": "G#3",
          "ticks": 21840,
          "time": 29.673916999999996,
          "velocity": 0.9921259842519685
        },
        {
          "duration": 0.16304350000000056,
          "durationTicks": 120,
          "midi": 59,
          "name": "B3",
          "ticks": 21960,
          "time": 29.836960499999996,
          "velocity": 1
        },
        {
          "duration": 0.6521739999999987,
          "durationTicks": 480,
          "midi": 63,
          "name": "D#4",
          "ticks": 22080,
          "time": 30.000003999999997,
          "velocity": 1
        },
        {
          "duration": 0.16304350000000056,
          "durationTicks": 120,
          "midi": 68,
          "name": "G#4",
          "ticks": 22080,
          "time": 30.000003999999997,
          "velocity": 0.9448818897637795
        },
        {
          "duration": 1.793478499999999,
          "durationTicks": 1320,
          "midi": 68,
          "name": "G#4",
          "ticks": 22080,
          "time": 30.000003999999997,
          "velocity": 1
        },
        {
          "duration": 0.163043499999997,
          "durationTicks": 120,
          "midi": 70,
          "name": "A#4",
          "ticks": 22200,
          "time": 30.163047499999998,
          "velocity": 1
        },
        {
          "duration": 0.16304350000000056,
          "durationTicks": 120,
          "midi": 71,
          "name": "B4",
          "ticks": 22320,
          "time": 30.326090999999995,
          "velocity": 1
        },
        {
          "duration": 0.16304350000000056,
          "durationTicks": 120,
          "midi": 73,
          "name": "C#5",
          "ticks": 22440,
          "time": 30.489134499999995,
          "velocity": 1
        },
        {
          "duration": 0.3260870000000011,
          "durationTicks": 240,
          "midi": 61,
          "name": "C#4",
          "ticks": 22560,
          "time": 30.652177999999996,
          "velocity": 1
        },
        {
          "duration": 0.6521739999999987,
          "durationTicks": 480,
          "midi": 66,
          "name": "F#4",
          "ticks": 22560,
          "time": 30.652177999999996,
          "velocity": 1
        },
        {
          "duration": 0.3260870000000011,
          "durationTicks": 240,
          "midi": 70,
          "name": "A#4",
          "ticks": 22560,
          "time": 30.652177999999996,
          "velocity": 1
        },
        {
          "duration": 0.3260869999999976,
          "durationTicks": 240,
          "midi": 52,
          "name": "E3",
          "ticks": 22800,
          "time": 30.978264999999997,
          "velocity": 1
        },
        {
          "duration": 0.16304350000000056,
          "durationTicks": 120,
          "midi": 54,
          "name": "F#3",
          "ticks": 22800,
          "time": 30.978264999999997,
          "velocity": 1
        },
        {
          "duration": 0.3260869999999976,
          "durationTicks": 240,
          "midi": 71,
          "name": "B4",
          "ticks": 22800,
          "time": 30.978264999999997,
          "velocity": 1
        },
        {
          "duration": 0.163043499999997,
          "durationTicks": 120,
          "midi": 58,
          "name": "A#3",
          "ticks": 22920,
          "time": 31.141308499999997,
          "velocity": 1
        },
        {
          "duration": 0.3260870000000011,
          "durationTicks": 240,
          "midi": 47,
          "name": "B2",
          "ticks": 23040,
          "time": 31.304351999999994,
          "velocity": 1
        },
        {
          "duration": 0.3260870000000011,
          "durationTicks": 240,
          "midi": 61,
          "name": "C#4",
          "ticks": 23040,
          "time": 31.304351999999994,
          "velocity": 1
        },
        {
          "duration": 0.3260870000000011,
          "durationTicks": 240,
          "midi": 73,
          "name": "C#5",
          "ticks": 23040,
          "time": 31.304351999999994,
          "velocity": 1
        },
        {
          "duration": 0.3260870000000011,
          "durationTicks": 240,
          "midi": 44,
          "name": "G#2",
          "ticks": 23280,
          "time": 31.630438999999996,
          "velocity": 1
        },
        {
          "duration": 0.3260870000000011,
          "durationTicks": 240,
          "midi": 54,
          "name": "F#3",
          "ticks": 23280,
          "time": 31.630438999999996,
          "velocity": 1
        },
        {
          "duration": 0.08152175000000028,
          "durationTicks": 60,
          "midi": 66,
          "name": "F#4",
          "ticks": 23280,
          "time": 31.630438999999996,
          "velocity": 1
        },
        {
          "duration": 0.08152175000000028,
          "durationTicks": 60,
          "midi": 70,
          "name": "A#4",
          "ticks": 23280,
          "time": 31.630438999999996,
          "velocity": 1
        },
        {
          "duration": 0.08695653333333198,
          "durationTicks": 64,
          "midi": 71,
          "name": "B4",
          "ticks": 23280,
          "time": 31.630438999999996,
          "velocity": 1
        },
        {
          "duration": 0.10326088333333061,
          "durationTicks": 76,
          "midi": 75,
          "name": "D#5",
          "ticks": 23400,
          "time": 31.793482499999996,
          "velocity": 1
        },
        {
          "duration": 0.10326088333333061,
          "durationTicks": 76,
          "midi": 80,
          "name": "G#5",
          "ticks": 23400,
          "time": 31.793482499999996,
          "velocity": 1
        },
        {
          "duration": 0.10869566666666586,
          "durationTicks": 80,
          "midi": 83,
          "name": "B5",
          "ticks": 23400,
          "time": 31.793482499999996,
          "velocity": 1
        },
        {
          "duration": 0.6521740000000023,
          "durationTicks": 480,
          "midi": 52,
          "name": "E3",
          "ticks": 23520,
          "time": 31.956525999999997,
          "velocity": 1
        },
        {
          "duration": 0.3260870000000011,
          "durationTicks": 240,
          "midi": 58,
          "name": "A#3",
          "ticks": 23520,
          "time": 31.956525999999997,
          "velocity": 1
        },
        {
          "duration": 0.6576087833333304,
          "durationTicks": 484,
          "midi": 87,
          "name": "D#6",
          "ticks": 23520,
          "time": 31.956525999999997,
          "velocity": 1
        },
        {
          "duration": 0.16304350000000056,
          "durationTicks": 120,
          "midi": 59,
          "name": "B3",
          "ticks": 23760,
          "time": 32.282613,
          "velocity": 1
        },
        {
          "duration": 0.16304350000000056,
          "durationTicks": 120,
          "midi": 61,
          "name": "C#4",
          "ticks": 23880,
          "time": 32.4456565,
          "velocity": 1
        },
        {
          "duration": 0.326086999999994,
          "durationTicks": 240,
          "midi": 75,
          "name": "D#5",
          "ticks": 24000,
          "time": 32.6087,
          "velocity": 1
        },
        {
          "duration": 0.16304350000000056,
          "durationTicks": 120,
          "midi": 80,
          "name": "G#5",
          "ticks": 24000,
          "time": 32.6087,
          "velocity": 1
        },
        {
          "duration": 0.16304349999999346,
          "durationTicks": 120,
          "midi": 82,
          "name": "A#5",
          "ticks": 24120,
          "time": 32.7717435,
          "velocity": 1
        },
        {
          "duration": 0.3260870000000011,
          "durationTicks": 240,
          "midi": 49,
          "name": "C#3",
          "ticks": 24240,
          "time": 32.93478699999999,
          "velocity": 1
        },
        {
          "duration": 0.3260870000000011,
          "durationTicks": 240,
          "midi": 66,
          "name": "F#4",
          "ticks": 24240,
          "time": 32.93478699999999,
          "velocity": 1
        },
        {
          "duration": 0.16304350000000056,
          "durationTicks": 120,
          "midi": 83,
          "name": "B5",
          "ticks": 24240,
          "time": 32.93478699999999,
          "velocity": 1
        },
        {
          "duration": 0.16304350000000056,
          "durationTicks": 120,
          "midi": 87,
          "name": "D#6",
          "ticks": 24360,
          "time": 33.09783049999999,
          "velocity": 1
        },
        {
          "duration": 0.4891305000000017,
          "durationTicks": 360,
          "midi": 54,
          "name": "F#3",
          "ticks": 24480,
          "time": 33.260873999999994,
          "velocity": 1
        },
        {
          "duration": 0.3260870000000011,
          "durationTicks": 240,
          "midi": 66,
          "name": "F#4",
          "ticks": 24480,
          "time": 33.260873999999994,
          "velocity": 1
        },
        {
          "duration": 0.3260870000000011,
          "durationTicks": 240,
          "midi": 82,
          "name": "A#5",
          "ticks": 24480,
          "time": 33.260873999999994,
          "velocity": 1
        },
        {
          "duration": 0.3260870000000011,
          "durationTicks": 240,
          "midi": 85,
          "name": "C#6",
          "ticks": 24480,
          "time": 33.260873999999994,
          "velocity": 1
        },
        {
          "duration": 0.3260870000000011,
          "durationTicks": 240,
          "midi": 73,
          "name": "C#5",
          "ticks": 24720,
          "time": 33.586960999999995,
          "velocity": 1
        },
        {
          "duration": 0.3260870000000011,
          "durationTicks": 240,
          "midi": 78,
          "name": "F#5",
          "ticks": 24720,
          "time": 33.586960999999995,
          "velocity": 1
        },
        {
          "duration": 0.4891305000000017,
          "durationTicks": 360,
          "midi": 42,
          "name": "F#2",
          "ticks": 24960,
          "time": 33.913047999999996,
          "velocity": 1
        },
        {
          "duration": 0.6521740000000023,
          "durationTicks": 480,
          "midi": 78,
          "name": "F#5",
          "ticks": 24960,
          "time": 33.913047999999996,
          "velocity": 1
        },
        {
          "duration": 0.3260870000000011,
          "durationTicks": 240,
          "midi": 90,
          "name": "F#6",
          "ticks": 24960,
          "time": 33.913047999999996,
          "velocity": 1
        },
        {
          "duration": 0.3260870000000011,
          "durationTicks": 240,
          "midi": 88,
          "name": "E6",
          "ticks": 25200,
          "time": 34.239135,
          "velocity": 1
        },
        {
          "duration": 0.6521739999999951,
          "durationTicks": 480,
          "midi": 51,
          "name": "D#3",
          "ticks": 25440,
          "time": 34.565222,
          "velocity": 1
        },
        {
          "duration": 0.326086999999994,
          "durationTicks": 240,
          "midi": 58,
          "name": "A#3",
          "ticks": 25440,
          "time": 34.565222,
          "velocity": 1
        },
        {
          "duration": 0.326086999999994,
          "durationTicks": 240,
          "midi": 75,
          "name": "D#5",
          "ticks": 25440,
          "time": 34.565222,
          "velocity": 1
        },
        {
          "duration": 0.326086999999994,
          "durationTicks": 240,
          "midi": 82,
          "name": "A#5",
          "ticks": 25440,
          "time": 34.565222,
          "velocity": 1
        },
        {
          "duration": 0.326086999999994,
          "durationTicks": 240,
          "midi": 87,
          "name": "D#6",
          "ticks": 25440,
          "time": 34.565222,
          "velocity": 1
        },
        {
          "duration": 0.3260870000000011,
          "durationTicks": 240,
          "midi": 63,
          "name": "D#4",
          "ticks": 25680,
          "time": 34.89130899999999,
          "velocity": 1
        },
        {
          "duration": 0.16304350000000056,
          "durationTicks": 120,
          "midi": 82,
          "name": "A#5",
          "ticks": 25680,
          "time": 34.89130899999999,
          "velocity": 1
        },
        {
          "duration": 0.16304350000000056,
          "durationTicks": 120,
          "midi": 80,
          "name": "G#5",
          "ticks": 25800,
          "time": 35.05435249999999,
          "velocity": 1
        },
        {
          "duration": 0.3260870000000011,
          "durationTicks": 240,
          "midi": 63,
          "name": "D#4",
          "ticks": 25920,
          "time": 35.217395999999994,
          "velocity": 1
        },
        {
          "duration": 0.16304350000000056,
          "durationTicks": 120,
          "midi": 75,
          "name": "D#5",
          "ticks": 25920,
          "time": 35.217395999999994,
          "velocity": 1
        },
        {
          "duration": 0.16304350000000056,
          "durationTicks": 120,
          "midi": 80,
          "name": "G#5",
          "ticks": 26040,
          "time": 35.380439499999994,
          "velocity": 1
        },
        {
          "duration": 0.24456525000000084,
          "durationTicks": 180,
          "midi": 46,
          "name": "A#2",
          "ticks": 26160,
          "time": 35.543482999999995,
          "velocity": 1
        },
        {
          "duration": 0.3260870000000011,
          "durationTicks": 240,
          "midi": 58,
          "name": "A#3",
          "ticks": 26160,
          "time": 35.543482999999995,
          "velocity": 1
        },
        {
          "duration": 0.16304350000000056,
          "durationTicks": 120,
          "midi": 79,
          "name": "G5",
          "ticks": 26160,
          "time": 35.543482999999995,
          "velocity": 1
        },
        {
          "duration": 0.16304350000000056,
          "durationTicks": 120,
          "midi": 82,
          "name": "A#5",
          "ticks": 26160,
          "time": 35.543482999999995,
          "velocity": 1
        },
        {
          "duration": 0.16304350000000056,
          "durationTicks": 120,
          "midi": 82,
          "name": "A#5",
          "ticks": 26280,
          "time": 35.706526499999995,
          "velocity": 1
        },
        {
          "duration": 0.16304350000000056,
          "durationTicks": 120,
          "midi": 87,
          "name": "D#6",
          "ticks": 26280,
          "time": 35.706526499999995,
          "velocity": 1
        },
        {
          "duration": 0.6521740000000023,
          "durationTicks": 480,
          "midi": 39,
          "name": "D#2",
          "ticks": 26400,
          "time": 35.869569999999996,
          "velocity": 1
        },
        {
          "duration": 0.6521740000000023,
          "durationTicks": 480,
          "midi": 51,
          "name": "D#3",
          "ticks": 26400,
          "time": 35.869569999999996,
          "velocity": 1
        },
        {
          "duration": 0.6521740000000023,
          "durationTicks": 480,
          "midi": 91,
          "name": "G6",
          "ticks": 26400,
          "time": 35.869569999999996,
          "velocity": 1
        },
        {
          "duration": 0.6521740000000023,
          "durationTicks": 480,
          "midi": 94,
          "name": "A#6",
          "ticks": 26400,
          "time": 35.869569999999996,
          "velocity": 1
        },
        {
          "duration": 0.6521740000000023,
          "durationTicks": 480,
          "midi": 99,
          "name": "D#7",
          "ticks": 26400,
          "time": 35.869569999999996,
          "velocity": 1
        }
      ]
    }
  ]
}

const mid2 = {
  "header": {
    "keySignatures": [
      {
        "key": "C",
        "scale": "major",
        "ticks": 0
      }
    ],
    "meta": [
      {
        "text": "Prelude",
        "ticks": 0,
        "type": "marker"
      },
      {
        "text": "bdca426d104a26ac9dcb070447587523",
        "ticks": 0,
        "type": "text"
      },
      {
        "text": "Fugue",
        "ticks": 67200,
        "type": "marker"
      }
    ],
    "name": "十二平均律第一首",
    "ppq": 480,
    "tempos": [
      {
        "bpm": 73.99998273333736,
        "ticks": 0
      },
      {
        "bpm": 75.49999874166669,
        "ticks": 480
      },
      {
        "bpm": 73.99998273333736,
        "ticks": 600
      },
      {
        "bpm": 75,
        "ticks": 1560
      },
      {
        "bpm": 73.99998273333736,
        "ticks": 1920
      },
      {
        "bpm": 75.99996960001216,
        "ticks": 2280
      },
      {
        "bpm": 77.99997660000702,
        "ticks": 2400
      },
      {
        "bpm": 75.99996960001216,
        "ticks": 2520
      },
      {
        "bpm": 75.49999874166669,
        "ticks": 2880
      },
      {
        "bpm": 76.99997818333952,
        "ticks": 3240
      },
      {
        "bpm": 78.9999657666815,
        "ticks": 3360
      },
      {
        "bpm": 76.99997818333952,
        "ticks": 3480
      },
      {
        "bpm": 73.99998273333736,
        "ticks": 3720
      },
      {
        "bpm": 74.5000117958352,
        "ticks": 3840
      },
      {
        "bpm": 76.99997818333952,
        "ticks": 4200
      },
      {
        "bpm": 80,
        "ticks": 4320
      },
      {
        "bpm": 76.99997818333952,
        "ticks": 4440
      },
      {
        "bpm": 74.5000117958352,
        "ticks": 4800
      },
      {
        "bpm": 75.99996960001216,
        "ticks": 5160
      },
      {
        "bpm": 77.99997660000702,
        "ticks": 5280
      },
      {
        "bpm": 75.99996960001216,
        "ticks": 5400
      },
      {
        "bpm": 72.50001812500453,
        "ticks": 5640
      },
      {
        "bpm": 75.99996960001216,
        "ticks": 5760
      },
      {
        "bpm": 78.50002158750594,
        "ticks": 6240
      },
      {
        "bpm": 75.99996960001216,
        "ticks": 6360
      },
      {
        "bpm": 73.4999577375243,
        "ticks": 6600
      },
      {
        "bpm": 75.99996960001216,
        "ticks": 6720
      },
      {
        "bpm": 77.99997660000702,
        "ticks": 7200
      },
      {
        "bpm": 75.99996960001216,
        "ticks": 7320
      },
      {
        "bpm": 73.99998273333736,
        "ticks": 7680
      },
      {
        "bpm": 75.99996960001216,
        "ticks": 8040
      },
      {
        "bpm": 77.99997660000702,
        "ticks": 8160
      },
      {
        "bpm": 76.49997322500937,
        "ticks": 8280
      },
      {
        "bpm": 73.99998273333736,
        "ticks": 8640
      },
      {
        "bpm": 76.49997322500937,
        "ticks": 9000
      },
      {
        "bpm": 77.99997660000702,
        "ticks": 9120
      },
      {
        "bpm": 76.49997322500937,
        "ticks": 9240
      },
      {
        "bpm": 74.5000117958352,
        "ticks": 9480
      },
      {
        "bpm": 76.49997322500937,
        "ticks": 9600
      },
      {
        "bpm": 78.50002158750594,
        "ticks": 10080
      },
      {
        "bpm": 76.99997818333952,
        "ticks": 10200
      },
      {
        "bpm": 74.5000117958352,
        "ticks": 10560
      },
      {
        "bpm": 76.99997818333952,
        "ticks": 11040
      },
      {
        "bpm": 72.50001812500453,
        "ticks": 11400
      },
      {
        "bpm": 75,
        "ticks": 11520
      },
      {
        "bpm": 76.99997818333952,
        "ticks": 11880
      },
      {
        "bpm": 77.99997660000702,
        "ticks": 12000
      },
      {
        "bpm": 76.99997818333952,
        "ticks": 12120
      },
      {
        "bpm": 73.99998273333736,
        "ticks": 12360
      },
      {
        "bpm": 75,
        "ticks": 12480
      },
      {
        "bpm": 77.49995479169304,
        "ticks": 12840
      },
      {
        "bpm": 72.50001812500453,
        "ticks": 13320
      },
      {
        "bpm": 74.5000117958352,
        "ticks": 13440
      },
      {
        "bpm": 77.49995479169304,
        "ticks": 13920
      },
      {
        "bpm": 73.99998273333736,
        "ticks": 14280
      },
      {
        "bpm": 76.49997322500937,
        "ticks": 14400
      },
      {
        "bpm": 77.49995479169304,
        "ticks": 14880
      },
      {
        "bpm": 72.50001812500453,
        "ticks": 15240
      },
      {
        "bpm": 75.99996960001216,
        "ticks": 15360
      },
      {
        "bpm": 73.99998273333736,
        "ticks": 15960
      },
      {
        "bpm": 75.49999874166669,
        "ticks": 16320
      },
      {
        "bpm": 73.4999577375243,
        "ticks": 16920
      },
      {
        "bpm": 68.50003196668159,
        "ticks": 17160
      },
      {
        "bpm": 73.4999577375243,
        "ticks": 17280
      },
      {
        "bpm": 75,
        "ticks": 17640
      },
      {
        "bpm": 73.4999577375243,
        "ticks": 18240
      },
      {
        "bpm": 75.49999874166669,
        "ticks": 18600
      },
      {
        "bpm": 72.50001812500453,
        "ticks": 19080
      },
      {
        "bpm": 75.49999874166669,
        "ticks": 19200
      },
      {
        "bpm": 76.49997322500937,
        "ticks": 19680
      },
      {
        "bpm": 75.49999874166669,
        "ticks": 20160
      },
      {
        "bpm": 76.99997818333952,
        "ticks": 20640
      },
      {
        "bpm": 73.99998273333736,
        "ticks": 21020
      },
      {
        "bpm": 75.49999874166669,
        "ticks": 21120
      },
      {
        "bpm": 76.99997818333952,
        "ticks": 21600
      },
      {
        "bpm": 72.50001812500453,
        "ticks": 21960
      },
      {
        "bpm": 75.49999874166669,
        "ticks": 22080
      },
      {
        "bpm": 76.49997322500937,
        "ticks": 22580
      },
      {
        "bpm": 72.99998296667064,
        "ticks": 22920
      },
      {
        "bpm": 72.00002880001152,
        "ticks": 23040
      },
      {
        "bpm": 75.49999874166669,
        "ticks": 23160
      },
      {
        "bpm": 76.49997322500937,
        "ticks": 23520
      },
      {
        "bpm": 75.49999874166669,
        "ticks": 24000
      },
      {
        "bpm": 76.49997322500937,
        "ticks": 24480
      },
      {
        "bpm": 72.00002880001152,
        "ticks": 24840
      },
      {
        "bpm": 75,
        "ticks": 24960
      },
      {
        "bpm": 76.49997322500937,
        "ticks": 25440
      },
      {
        "bpm": 75,
        "ticks": 25920
      },
      {
        "bpm": 76.49997322500937,
        "ticks": 26400
      },
      {
        "bpm": 72.99998296667064,
        "ticks": 26760
      },
      {
        "bpm": 75,
        "ticks": 26880
      },
      {
        "bpm": 75.49999874166669,
        "ticks": 27240
      },
      {
        "bpm": 77.49995479169304,
        "ticks": 27360
      },
      {
        "bpm": 75.49999874166669,
        "ticks": 27840
      },
      {
        "bpm": 76.99997818333952,
        "ticks": 28320
      },
      {
        "bpm": 71.00003550001774,
        "ticks": 28680
      },
      {
        "bpm": 74.5000117958352,
        "ticks": 28800
      },
      {
        "bpm": 76.49997322500937,
        "ticks": 29280
      },
      {
        "bpm": 74.5000117958352,
        "ticks": 29760
      },
      {
        "bpm": 75.99996960001216,
        "ticks": 30240
      },
      {
        "bpm": 70.49998590000283,
        "ticks": 30600
      },
      {
        "bpm": 74.5000117958352,
        "ticks": 30720
      },
      {
        "bpm": 75.99996960001216,
        "ticks": 31200
      },
      {
        "bpm": 71.00003550001774,
        "ticks": 31560
      },
      {
        "bpm": 74.5000117958352,
        "ticks": 31680
      },
      {
        "bpm": 75.49999874166669,
        "ticks": 32160
      },
      {
        "bpm": 70.49998590000283,
        "ticks": 32520
      },
      {
        "bpm": 74.5000117958352,
        "ticks": 32640
      },
      {
        "bpm": 72.50001812500453,
        "ticks": 34560
      },
      {
        "bpm": 74.5000117958352,
        "ticks": 34920
      },
      {
        "bpm": 72.99998296667064,
        "ticks": 35520
      },
      {
        "bpm": 75,
        "ticks": 35880
      },
      {
        "bpm": 76.99997818333952,
        "ticks": 36960
      },
      {
        "bpm": 75.49999874166669,
        "ticks": 37080
      },
      {
        "bpm": 75,
        "ticks": 37440
      },
      {
        "bpm": 76.99997818333952,
        "ticks": 37920
      },
      {
        "bpm": 75,
        "ticks": 38040
      },
      {
        "bpm": 68.50003196668159,
        "ticks": 38280
      },
      {
        "bpm": 75,
        "ticks": 38400
      },
      {
        "bpm": 76.49997322500937,
        "ticks": 38880
      },
      {
        "bpm": 75,
        "ticks": 39360
      },
      {
        "bpm": 75.99996960001216,
        "ticks": 39840
      },
      {
        "bpm": 69.50002837917826,
        "ticks": 40200
      },
      {
        "bpm": 73.4999577375243,
        "ticks": 40320
      },
      {
        "bpm": 74.5000117958352,
        "ticks": 40800
      },
      {
        "bpm": 73.4999577375243,
        "ticks": 41280
      },
      {
        "bpm": 75,
        "ticks": 41760
      },
      {
        "bpm": 64,
        "ticks": 42120
      },
      {
        "bpm": 75.99996960001216,
        "ticks": 42240
      },
      {
        "bpm": 77.99997660000702,
        "ticks": 42840
      },
      {
        "bpm": 72.99998296667064,
        "ticks": 43080
      },
      {
        "bpm": 75.99996960001216,
        "ticks": 43200
      },
      {
        "bpm": 77.49995479169304,
        "ticks": 43800
      },
      {
        "bpm": 73.4999577375243,
        "ticks": 44040
      },
      {
        "bpm": 75.99996960001216,
        "ticks": 44520
      },
      {
        "bpm": 73.99998273333736,
        "ticks": 45120
      },
      {
        "bpm": 75.99996960001216,
        "ticks": 45480
      },
      {
        "bpm": 72.00002880001152,
        "ticks": 45960
      },
      {
        "bpm": 74.5000117958352,
        "ticks": 46080
      },
      {
        "bpm": 75.99996960001216,
        "ticks": 46560
      },
      {
        "bpm": 74.5000117958352,
        "ticks": 47040
      },
      {
        "bpm": 76.49997322500937,
        "ticks": 47520
      },
      {
        "bpm": 75.99996960001216,
        "ticks": 48000
      },
      {
        "bpm": 77.99997660000702,
        "ticks": 48480
      },
      {
        "bpm": 73.4999577375243,
        "ticks": 48840
      },
      {
        "bpm": 73.99998273333736,
        "ticks": 48960
      },
      {
        "bpm": 75.49999874166669,
        "ticks": 49080
      },
      {
        "bpm": 77.99997660000702,
        "ticks": 49440
      },
      {
        "bpm": 76.99997818333952,
        "ticks": 49680
      },
      {
        "bpm": 73.4999577375243,
        "ticks": 49800
      },
      {
        "bpm": 75.49999874166669,
        "ticks": 49920
      },
      {
        "bpm": 76.99997818333952,
        "ticks": 50400
      },
      {
        "bpm": 75.49999874166669,
        "ticks": 50880
      },
      {
        "bpm": 76.99997818333952,
        "ticks": 51360
      },
      {
        "bpm": 72.99998296667064,
        "ticks": 51720
      },
      {
        "bpm": 75.49999874166669,
        "ticks": 51840
      },
      {
        "bpm": 73.4999577375243,
        "ticks": 52440
      },
      {
        "bpm": 75.49999874166669,
        "ticks": 52800
      },
      {
        "bpm": 72.99998296667064,
        "ticks": 53400
      },
      {
        "bpm": 69.00001725000432,
        "ticks": 53640
      },
      {
        "bpm": 69.99998833333528,
        "ticks": 53760
      },
      {
        "bpm": 75,
        "ticks": 54120
      },
      {
        "bpm": 71.49998629583595,
        "ticks": 54720
      },
      {
        "bpm": 75,
        "ticks": 55080
      },
      {
        "bpm": 69.99998833333528,
        "ticks": 55560
      },
      {
        "bpm": 75,
        "ticks": 55680
      },
      {
        "bpm": 76.49997322500937,
        "ticks": 56280
      },
      {
        "bpm": 75,
        "ticks": 56640
      },
      {
        "bpm": 76.49997322500937,
        "ticks": 57240
      },
      {
        "bpm": 70.49998590000283,
        "ticks": 57600
      },
      {
        "bpm": 75,
        "ticks": 57720
      },
      {
        "bpm": 71.49998629583595,
        "ticks": 58560
      },
      {
        "bpm": 74.5000117958352,
        "ticks": 58680
      },
      {
        "bpm": 73.4999577375243,
        "ticks": 59520
      },
      {
        "bpm": 74.5000117958352,
        "ticks": 60000
      },
      {
        "bpm": 70.49998590000283,
        "ticks": 60360
      },
      {
        "bpm": 73.4999577375243,
        "ticks": 60480
      },
      {
        "bpm": 74.5000117958352,
        "ticks": 60960
      },
      {
        "bpm": 71.49998629583595,
        "ticks": 61320
      },
      {
        "bpm": 73.4999577375243,
        "ticks": 61440
      },
      {
        "bpm": 75.49999874166669,
        "ticks": 61800
      },
      {
        "bpm": 73.4999577375243,
        "ticks": 62020
      },
      {
        "bpm": 75.99996960001216,
        "ticks": 62400
      },
      {
        "bpm": 73.4999577375243,
        "ticks": 62520
      },
      {
        "bpm": 71.00003550001774,
        "ticks": 62880
      },
      {
        "bpm": 66.49997340001065,
        "ticks": 63120
      },
      {
        "bpm": 59.50002132084097,
        "ticks": 63240
      },
      {
        "bpm": 71.00003550001774,
        "ticks": 63360
      },
      {
        "bpm": 63.49999259166753,
        "ticks": 64320
      },
      {
        "bpm": 54.500021345841695,
        "ticks": 64800
      },
      {
        "bpm": 54.00000540000054,
        "ticks": 64820
      },
      {
        "bpm": 53.50001560417122,
        "ticks": 64840
      },
      {
        "bpm": 52.50000656250082,
        "ticks": 64860
      },
      {
        "bpm": 52.000006933334255,
        "ticks": 64880
      },
      {
        "bpm": 50.99998215000625,
        "ticks": 64900
      },
      {
        "bpm": 50.499992004167936,
        "ticks": 64920
      },
      {
        "bpm": 50,
        "ticks": 64940
      },
      {
        "bpm": 48.9999918333347,
        "ticks": 64960
      },
      {
        "bpm": 48.50001576250512,
        "ticks": 64980
      },
      {
        "bpm": 47.499996041666996,
        "ticks": 65000
      },
      {
        "bpm": 46.99999060000188,
        "ticks": 65020
      },
      {
        "bpm": 46.49998488750491,
        "ticks": 65040
      },
      {
        "bpm": 45.50001099583599,
        "ticks": 65060
      },
      {
        "bpm": 45.000011250002814,
        "ticks": 65080
      },
      {
        "bpm": 44.000011733336464,
        "ticks": 65100
      },
      {
        "bpm": 43.500010875002715,
        "ticks": 65120
      },
      {
        "bpm": 42.499991145835175,
        "ticks": 65140
      },
      {
        "bpm": 31.49999842500008,
        "ticks": 65160
      },
      {
        "bpm": 62.41002554650379,
        "ticks": 67200
      },
      {
        "bpm": 62.5,
        "ticks": 68160
      },
      {
        "bpm": 67.00002903334591,
        "ticks": 68520
      },
      {
        "bpm": 62.99999685000016,
        "ticks": 68640
      },
      {
        "bpm": 61.49998462500384,
        "ticks": 69120
      },
      {
        "bpm": 63.49999259166753,
        "ticks": 69360
      },
      {
        "bpm": 61.49998462500384,
        "ticks": 70200
      },
      {
        "bpm": 63.49999259166753,
        "ticks": 70320
      },
      {
        "bpm": 61.49998462500384,
        "ticks": 70800
      },
      {
        "bpm": 63.49999259166753,
        "ticks": 71040
      },
      {
        "bpm": 67.00002903334591,
        "ticks": 71400
      },
      {
        "bpm": 63.49999259166753,
        "ticks": 71520
      },
      {
        "bpm": 61.99999586666694,
        "ticks": 72000
      },
      {
        "bpm": 64,
        "ticks": 72240
      },
      {
        "bpm": 62.5,
        "ticks": 72960
      },
      {
        "bpm": 63.49999259166753,
        "ticks": 73200
      },
      {
        "bpm": 64,
        "ticks": 73440
      },
      {
        "bpm": 61.49998462500384,
        "ticks": 74160
      },
      {
        "bpm": 67.49999156250105,
        "ticks": 74280
      },
      {
        "bpm": 64,
        "ticks": 74400
      },
      {
        "bpm": 61.49998462500384,
        "ticks": 74880
      },
      {
        "bpm": 64,
        "ticks": 75120
      },
      {
        "bpm": 61.99999586666694,
        "ticks": 76080
      },
      {
        "bpm": 64,
        "ticks": 76320
      },
      {
        "bpm": 68.50003196668159,
        "ticks": 77160
      },
      {
        "bpm": 63.49999259166753,
        "ticks": 77280
      },
      {
        "bpm": 61.99999586666694,
        "ticks": 77760
      },
      {
        "bpm": 63.49999259166753,
        "ticks": 78000
      },
      {
        "bpm": 66.49997340001065,
        "ticks": 78480
      },
      {
        "bpm": 63.49999259166753,
        "ticks": 78720
      },
      {
        "bpm": 61.99999586666694,
        "ticks": 79440
      },
      {
        "bpm": 63.49999259166753,
        "ticks": 79680
      },
      {
        "bpm": 67.00002903334591,
        "ticks": 80040
      },
      {
        "bpm": 64,
        "ticks": 80160
      },
      {
        "bpm": 61.99999586666694,
        "ticks": 80660
      },
      {
        "bpm": 63.49999259166753,
        "ticks": 80880
      },
      {
        "bpm": 65.99999340000066,
        "ticks": 81360
      },
      {
        "bpm": 61.49998462500384,
        "ticks": 81600
      },
      {
        "bpm": 63.49999259166753,
        "ticks": 81840
      },
      {
        "bpm": 65.99999340000066,
        "ticks": 82320
      },
      {
        "bpm": 61.99999586666694,
        "ticks": 82440
      },
      {
        "bpm": 63.49999259166753,
        "ticks": 82560
      },
      {
        "bpm": 67.00002903334591,
        "ticks": 83880
      },
      {
        "bpm": 63.49999259166753,
        "ticks": 84000
      },
      {
        "bpm": 64,
        "ticks": 84360
      },
      {
        "bpm": 61.49998462500384,
        "ticks": 84480
      },
      {
        "bpm": 64,
        "ticks": 84720
      },
      {
        "bpm": 66.49997340001065,
        "ticks": 84960
      },
      {
        "bpm": 65.99999340000066,
        "ticks": 85060
      },
      {
        "bpm": 65.49996670418359,
        "ticks": 85160
      },
      {
        "bpm": 64.99999458333379,
        "ticks": 85260
      },
      {
        "bpm": 64.49996936251455,
        "ticks": 85360
      },
      {
        "bpm": 65.99999340000066,
        "ticks": 85440
      },
      {
        "bpm": 65.49996670418359,
        "ticks": 85560
      },
      {
        "bpm": 64.99999458333379,
        "ticks": 85680
      },
      {
        "bpm": 64.49996936251455,
        "ticks": 85800
      },
      {
        "bpm": 64,
        "ticks": 85920
      },
      {
        "bpm": 62.5,
        "ticks": 86160
      }
    ],
    "timeSignatures": [
      {
        "ticks": 0,
        "timeSignature": [
          4,
          4
        ],
        "measures": 0
      }
    ]
  },
  "tracks": [
    {
      "channel": 0,
      "controlChanges": {
        "7": [
          {
            "number": 7,
            "ticks": 0,
            "time": 0,
            "value": 0.7874015748031497
          },
          {
            "number": 7,
            "ticks": 0,
            "time": 0,
            "value": 0.7874015748031497
          },
          {
            "number": 7,
            "ticks": 67200,
            "time": 117.2545055833333,
            "value": 0.7874015748031497
          }
        ],
        "10": [
          {
            "number": 10,
            "ticks": 0,
            "time": 0,
            "value": 0.5039370078740157
          },
          {
            "number": 10,
            "ticks": 0,
            "time": 0,
            "value": 0.5039370078740157
          },
          {
            "number": 10,
            "ticks": 67200,
            "time": 117.2545055833333,
            "value": 0.5039370078740157
          }
        ],
        "64": [
          {
            "number": 64,
            "ticks": 0,
            "time": 0,
            "value": 1
          },
          {
            "number": 64,
            "ticks": 1930,
            "time": 3.2480003958333334,
            "value": 0
          },
          {
            "number": 64,
            "ticks": 2026,
            "time": 3.4101625958333335,
            "value": 1
          },
          {
            "number": 64,
            "ticks": 3849,
            "time": 6.4091176687499996,
            "value": 0
          },
          {
            "number": 64,
            "ticks": 3925,
            "time": 6.536634427083333,
            "value": 1
          },
          {
            "number": 64,
            "ticks": 5769,
            "time": 9.574903887499998,
            "value": 0
          },
          {
            "number": 64,
            "ticks": 5859,
            "time": 9.722930262499997,
            "value": 1
          },
          {
            "number": 64,
            "ticks": 7688,
            "time": 12.726877516666663,
            "value": 0
          },
          {
            "number": 64,
            "ticks": 7786,
            "time": 12.89241809583333,
            "value": 1
          },
          {
            "number": 64,
            "ticks": 9607,
            "time": 15.900815662499996,
            "value": 0
          },
          {
            "number": 64,
            "ticks": 9680,
            "time": 16.020096749999997,
            "value": 1
          },
          {
            "number": 64,
            "ticks": 11520,
            "time": 19.045871499999997,
            "value": 0
          },
          {
            "number": 64,
            "ticks": 11633,
            "time": 19.23420483333333,
            "value": 1
          },
          {
            "number": 64,
            "ticks": 13453,
            "time": 22.228200327083336,
            "value": 0
          },
          {
            "number": 64,
            "ticks": 13511,
            "time": 22.32551574791667,
            "value": 1
          },
          {
            "number": 64,
            "ticks": 15370,
            "time": 25.383408874999997,
            "value": 0
          },
          {
            "number": 64,
            "ticks": 15473,
            "time": 25.5528168375,
            "value": 1
          },
          {
            "number": 64,
            "ticks": 17290,
            "time": 28.5994380625,
            "value": 0
          },
          {
            "number": 64,
            "ticks": 17360,
            "time": 28.71848575,
            "value": 1
          },
          {
            "number": 64,
            "ticks": 19209,
            "time": 31.8234209125,
            "value": 0
          },
          {
            "number": 64,
            "ticks": 19299,
            "time": 31.9724275375,
            "value": 1
          },
          {
            "number": 64,
            "ticks": 21127,
            "time": 34.97962990416667,
            "value": 0
          },
          {
            "number": 64,
            "ticks": 21211,
            "time": 35.11870275416668,
            "value": 1
          },
          {
            "number": 64,
            "ticks": 23053,
            "time": 38.165474018750004,
            "value": 0
          },
          {
            "number": 64,
            "ticks": 23181,
            "time": 38.38600604583334,
            "value": 1
          },
          {
            "number": 64,
            "ticks": 24969,
            "time": 41.33784908333335,
            "value": 0
          },
          {
            "number": 64,
            "ticks": 25101,
            "time": 41.55784908333335,
            "value": 1
          },
          {
            "number": 64,
            "ticks": 26894,
            "time": 44.52421141666669,
            "value": 0
          },
          {
            "number": 64,
            "ticks": 27028,
            "time": 44.747544750000024,
            "value": 1
          },
          {
            "number": 64,
            "ticks": 28810,
            "time": 47.68091135416669,
            "value": 0
          },
          {
            "number": 64,
            "ticks": 28976,
            "time": 47.95943480000002,
            "value": 1
          },
          {
            "number": 64,
            "ticks": 30727,
            "time": 50.875801297916695,
            "value": 0
          },
          {
            "number": 64,
            "ticks": 30840,
            "time": 51.06539858333336,
            "value": 1
          },
          {
            "number": 64,
            "ticks": 32651,
            "time": 54.10541620625003,
            "value": 0
          },
          {
            "number": 64,
            "ticks": 32739,
            "time": 54.25306718958336,
            "value": 1
          },
          {
            "number": 64,
            "ticks": 34570,
            "time": 57.32567720833336,
            "value": 0
          },
          {
            "number": 64,
            "ticks": 34680,
            "time": 57.51533233333336,
            "value": 1
          },
          {
            "number": 64,
            "ticks": 36490,
            "time": 60.56894175000003,
            "value": 0
          },
          {
            "number": 64,
            "ticks": 36571,
            "time": 60.70394175000003,
            "value": 1
          },
          {
            "number": 64,
            "ticks": 38409,
            "time": 63.77189008333336,
            "value": 0
          },
          {
            "number": 64,
            "ticks": 38527,
            "time": 63.968556750000026,
            "value": 1
          },
          {
            "number": 64,
            "ticks": 40332,
            "time": 66.96954500833336,
            "value": 0
          },
          {
            "number": 64,
            "ticks": 40411,
            "time": 67.10389882708336,
            "value": 1
          },
          {
            "number": 64,
            "ticks": 42247,
            "time": 70.23304799583335,
            "value": 0
          },
          {
            "number": 64,
            "ticks": 42360,
            "time": 70.41890333333335,
            "value": 1
          },
          {
            "number": 64,
            "ticks": 44167,
            "time": 73.38839835208333,
            "value": 0
          },
          {
            "number": 64,
            "ticks": 44294,
            "time": 73.60438487083333,
            "value": 1
          },
          {
            "number": 64,
            "ticks": 46091,
            "time": 76.59995320624998,
            "value": 0
          },
          {
            "number": 64,
            "ticks": 46221,
            "time": 76.81807397708332,
            "value": 1
          },
          {
            "number": 64,
            "ticks": 48014,
            "time": 79.78904915833331,
            "value": 0
          },
          {
            "number": 64,
            "ticks": 48162,
            "time": 80.03247030833332,
            "value": 1
          },
          {
            "number": 64,
            "ticks": 49927,
            "time": 82.93032298749996,
            "value": 0
          },
          {
            "number": 64,
            "ticks": 49998,
            "time": 83.04787265833329,
            "value": 1
          },
          {
            "number": 64,
            "ticks": 51846,
            "time": 86.0871876083333,
            "value": 0
          },
          {
            "number": 64,
            "ticks": 51937,
            "time": 86.23784986249997,
            "value": 1
          },
          {
            "number": 64,
            "ticks": 53774,
            "time": 89.32960433749997,
            "value": 0
          },
          {
            "number": 64,
            "ticks": 53915,
            "time": 89.58139009374997,
            "value": 1
          },
          {
            "number": 64,
            "ticks": 55688,
            "time": 92.60445141666665,
            "value": 0
          },
          {
            "number": 64,
            "ticks": 55765,
            "time": 92.73278474999998,
            "value": 1
          },
          {
            "number": 64,
            "ticks": 57611,
            "time": 95.7870926333333,
            "value": 0
          },
          {
            "number": 64,
            "ticks": 57734,
            "time": 96.00368841666663,
            "value": 1
          },
          {
            "number": 64,
            "ticks": 59530,
            "time": 99.01654789583331,
            "value": 0
          },
          {
            "number": 64,
            "ticks": 59600,
            "time": 99.13559558333331,
            "value": 1
          },
          {
            "number": 64,
            "ticks": 61450,
            "time": 102.27981164583332,
            "value": 0
          },
          {
            "number": 64,
            "ticks": 61546,
            "time": 102.44307704583332,
            "value": 1
          },
          {
            "number": 64,
            "ticks": 63370,
            "time": 105.61296649999998,
            "value": 0
          },
          {
            "number": 64,
            "ticks": 63501,
            "time": 105.84360018749999,
            "value": 1
          },
          {
            "number": 64,
            "ticks": 65280,
            "time": 109.6354575833333,
            "value": 0
          },
          {
            "number": 64,
            "ticks": 65600,
            "time": 110.90529891666664,
            "value": 1
          },
          {
            "number": 64,
            "ticks": 67028,
            "time": 116.57196586666663,
            "value": 0
          }
        ],
        "91": [
          {
            "number": 91,
            "ticks": 0,
            "time": 0,
            "value": 1
          },
          {
            "number": 91,
            "ticks": 0,
            "time": 0,
            "value": 1
          },
          {
            "number": 91,
            "ticks": 1920,
            "time": 3.2311085,
            "value": 1
          },
          {
            "number": 91,
            "ticks": 1920,
            "time": 3.2311085,
            "value": 1
          },
          {
            "number": 91,
            "ticks": 3840,
            "time": 6.394017,
            "value": 1
          },
          {
            "number": 91,
            "ticks": 3840,
            "time": 6.394017,
            "value": 1
          },
          {
            "number": 91,
            "ticks": 5760,
            "time": 9.560101249999997,
            "value": 1
          },
          {
            "number": 91,
            "ticks": 5760,
            "time": 9.560101249999997,
            "value": 1
          },
          {
            "number": 91,
            "ticks": 7680,
            "time": 12.713363999999997,
            "value": 1
          },
          {
            "number": 91,
            "ticks": 7680,
            "time": 12.713363999999997,
            "value": 1
          },
          {
            "number": 91,
            "ticks": 9600,
            "time": 15.889377749999996,
            "value": 1
          },
          {
            "number": 91,
            "ticks": 9600,
            "time": 15.889377749999996,
            "value": 1
          },
          {
            "number": 91,
            "ticks": 11520,
            "time": 19.045871499999997,
            "value": 1
          },
          {
            "number": 91,
            "ticks": 11520,
            "time": 19.045871499999997,
            "value": 1
          },
          {
            "number": 91,
            "ticks": 13440,
            "time": 22.206388250000003,
            "value": 1
          },
          {
            "number": 91,
            "ticks": 13440,
            "time": 22.206388250000003,
            "value": 1
          },
          {
            "number": 91,
            "ticks": 15360,
            "time": 25.3669615,
            "value": 1
          },
          {
            "number": 91,
            "ticks": 15360,
            "time": 25.3669615,
            "value": 1
          },
          {
            "number": 91,
            "ticks": 17280,
            "time": 28.58243125,
            "value": 1
          },
          {
            "number": 91,
            "ticks": 17280,
            "time": 28.58243125,
            "value": 1
          },
          {
            "number": 91,
            "ticks": 19200,
            "time": 31.80852025,
            "value": 1
          },
          {
            "number": 91,
            "ticks": 19200,
            "time": 31.80852025,
            "value": 1
          },
          {
            "number": 91,
            "ticks": 21120,
            "time": 34.96804050000001,
            "value": 1
          },
          {
            "number": 91,
            "ticks": 21120,
            "time": 34.96804050000001,
            "value": 1
          },
          {
            "number": 91,
            "ticks": 23040,
            "time": 38.14290458333334,
            "value": 1
          },
          {
            "number": 91,
            "ticks": 23040,
            "time": 38.14290458333334,
            "value": 1
          },
          {
            "number": 91,
            "ticks": 24960,
            "time": 41.32284908333335,
            "value": 1
          },
          {
            "number": 91,
            "ticks": 24960,
            "time": 41.32284908333335,
            "value": 1
          },
          {
            "number": 91,
            "ticks": 26880,
            "time": 44.500878083333355,
            "value": 1
          },
          {
            "number": 91,
            "ticks": 26880,
            "time": 44.500878083333355,
            "value": 1
          },
          {
            "number": 91,
            "ticks": 28800,
            "time": 47.664132833333355,
            "value": 1
          },
          {
            "number": 91,
            "ticks": 28800,
            "time": 47.664132833333355,
            "value": 1
          },
          {
            "number": 91,
            "ticks": 30720,
            "time": 50.86405633333336,
            "value": 1
          },
          {
            "number": 91,
            "ticks": 30720,
            "time": 50.86405633333336,
            "value": 1
          },
          {
            "number": 91,
            "ticks": 32640,
            "time": 54.08695983333336,
            "value": 1
          },
          {
            "number": 91,
            "ticks": 32640,
            "time": 54.08695983333336,
            "value": 1
          },
          {
            "number": 91,
            "ticks": 34560,
            "time": 57.30843583333336,
            "value": 1
          },
          {
            "number": 91,
            "ticks": 34560,
            "time": 57.30843583333336,
            "value": 1
          },
          {
            "number": 91,
            "ticks": 36480,
            "time": 60.55227508333336,
            "value": 1
          },
          {
            "number": 91,
            "ticks": 36480,
            "time": 60.55227508333336,
            "value": 1
          },
          {
            "number": 91,
            "ticks": 38400,
            "time": 63.75689008333336,
            "value": 1
          },
          {
            "number": 91,
            "ticks": 38400,
            "time": 63.75689008333336,
            "value": 1
          },
          {
            "number": 91,
            "ticks": 40320,
            "time": 66.94913683333336,
            "value": 1
          },
          {
            "number": 91,
            "ticks": 40320,
            "time": 66.94913683333336,
            "value": 1
          },
          {
            "number": 91,
            "ticks": 42240,
            "time": 70.22153483333335,
            "value": 1
          },
          {
            "number": 91,
            "ticks": 42240,
            "time": 70.22153483333335,
            "value": 1
          },
          {
            "number": 91,
            "ticks": 44160,
            "time": 73.37649358333333,
            "value": 1
          },
          {
            "number": 91,
            "ticks": 44160,
            "time": 73.37649358333333,
            "value": 1
          },
          {
            "number": 91,
            "ticks": 46080,
            "time": 76.58149683333332,
            "value": 1
          },
          {
            "number": 91,
            "ticks": 46080,
            "time": 76.58149683333332,
            "value": 1
          },
          {
            "number": 91,
            "ticks": 48000,
            "time": 79.76602283333331,
            "value": 1
          },
          {
            "number": 91,
            "ticks": 48000,
            "time": 79.76602283333331,
            "value": 1
          },
          {
            "number": 91,
            "ticks": 49920,
            "time": 82.91873358333329,
            "value": 1
          },
          {
            "number": 91,
            "ticks": 49920,
            "time": 82.91873358333329,
            "value": 1
          },
          {
            "number": 91,
            "ticks": 51840,
            "time": 86.0772538333333,
            "value": 1
          },
          {
            "number": 91,
            "ticks": 51840,
            "time": 86.0772538333333,
            "value": 1
          },
          {
            "number": 91,
            "ticks": 53760,
            "time": 89.3046043333333,
            "value": 1
          },
          {
            "number": 91,
            "ticks": 53760,
            "time": 89.3046043333333,
            "value": 1
          },
          {
            "number": 91,
            "ticks": 55680,
            "time": 92.59111808333331,
            "value": 1
          },
          {
            "number": 91,
            "ticks": 55680,
            "time": 92.59111808333331,
            "value": 1
          },
          {
            "number": 91,
            "ticks": 57600,
            "time": 95.7675890833333,
            "value": 1
          },
          {
            "number": 91,
            "ticks": 57600,
            "time": 95.7675890833333,
            "value": 1
          },
          {
            "number": 91,
            "ticks": 59520,
            "time": 98.99954108333331,
            "value": 1
          },
          {
            "number": 91,
            "ticks": 59520,
            "time": 98.99954108333331,
            "value": 1
          }
        ]
      },
      "pitchBends": [],
      "instrument": {
        "family": "piano",
        "number": 0,
        "name": "acoustic grand piano"
      },
      "name": "Piano right",
      "notes": [
        {
          "duration": 1.6175947499999999,
          "durationTicks": 960,
          "midi": 60,
          "name": "C4",
          "ticks": 1,
          "time": 0.0016891895833333335,
          "velocity": 0.48031496062992124
        },
        {
          "duration": 1.4148919999999998,
          "durationTicks": 840,
          "midi": 64,
          "name": "E4",
          "ticks": 121,
          "time": 0.20439193958333335,
          "velocity": 0.44881889763779526
        },
        {
          "duration": 0.20270275,
          "durationTicks": 120,
          "midi": 67,
          "name": "G4",
          "ticks": 241,
          "time": 0.40709468958333334,
          "velocity": 0.4409448818897638
        },
        {
          "duration": 0.20266918958333335,
          "durationTicks": 120,
          "midi": 72,
          "name": "C5",
          "ticks": 361,
          "time": 0.6097974395833333,
          "velocity": 0.47244094488188976
        },
        {
          "duration": 0.17880795000000005,
          "durationTicks": 108,
          "midi": 76,
          "name": "E5",
          "ticks": 481,
          "time": 0.8124666291666667,
          "velocity": 0.49606299212598426
        },
        {
          "duration": 0.20270275000000004,
          "durationTicks": 120,
          "midi": 67,
          "name": "G4",
          "ticks": 601,
          "time": 1.0111756895833333,
          "velocity": 0.3937007874015748
        },
        {
          "duration": 0.20270275000000004,
          "durationTicks": 120,
          "midi": 72,
          "name": "C5",
          "ticks": 721,
          "time": 1.2138784395833333,
          "velocity": 0.3700787401574803
        },
        {
          "duration": 0.20270274999999982,
          "durationTicks": 120,
          "midi": 76,
          "name": "E5",
          "ticks": 841,
          "time": 1.4165811895833333,
          "velocity": 0.3700787401574803
        },
        {
          "duration": 1.61351375,
          "durationTicks": 960,
          "midi": 60,
          "name": "C4",
          "ticks": 961,
          "time": 1.6192839395833332,
          "velocity": 0.4881889763779528
        },
        {
          "duration": 1.4108109999999998,
          "durationTicks": 840,
          "midi": 64,
          "name": "E4",
          "ticks": 1081,
          "time": 1.8219866895833334,
          "velocity": 0.44881889763779526
        },
        {
          "duration": 0.20270274999999982,
          "durationTicks": 120,
          "midi": 67,
          "name": "G4",
          "ticks": 1201,
          "time": 2.0246894395833337,
          "velocity": 0.4409448818897638
        },
        {
          "duration": 0.20270274999999982,
          "durationTicks": 120,
          "midi": 72,
          "name": "C5",
          "ticks": 1321,
          "time": 2.2273921895833335,
          "velocity": 0.47244094488188976
        },
        {
          "duration": 0.18243247500000015,
          "durationTicks": 108,
          "midi": 76,
          "name": "E5",
          "ticks": 1441,
          "time": 2.4300949395833333,
          "velocity": 0.4881889763779528
        },
        {
          "duration": 0.20000000000000018,
          "durationTicks": 120,
          "midi": 67,
          "name": "G4",
          "ticks": 1561,
          "time": 2.6327751666666663,
          "velocity": 0.3937007874015748
        },
        {
          "duration": 0.20000000000000018,
          "durationTicks": 120,
          "midi": 72,
          "name": "C5",
          "ticks": 1681,
          "time": 2.8327751666666665,
          "velocity": 0.3779527559055118
        },
        {
          "duration": 0.20002252291666656,
          "durationTicks": 120,
          "midi": 76,
          "name": "E5",
          "ticks": 1801,
          "time": 3.0327751666666667,
          "velocity": 0.3779527559055118
        },
        {
          "duration": 1.5898564395833334,
          "durationTicks": 960,
          "midi": 60,
          "name": "C4",
          "ticks": 1921,
          "time": 3.2327976895833332,
          "velocity": 0.5118110236220472
        },
        {
          "duration": 1.3871536895833332,
          "durationTicks": 840,
          "midi": 62,
          "name": "D4",
          "ticks": 2041,
          "time": 3.4355004395833335,
          "velocity": 0.47244094488188976
        },
        {
          "duration": 0.20265829791666645,
          "durationTicks": 120,
          "midi": 69,
          "name": "A4",
          "ticks": 2161,
          "time": 3.6382031895833333,
          "velocity": 0.4409448818897638
        },
        {
          "duration": 0.1973263270833332,
          "durationTicks": 120,
          "midi": 74,
          "name": "D5",
          "ticks": 2281,
          "time": 3.8408614875,
          "velocity": 0.47244094488188976
        },
        {
          "duration": 0.17307697499999986,
          "durationTicks": 108,
          "midi": 77,
          "name": "F5",
          "ticks": 2401,
          "time": 4.038187814583333,
          "velocity": 0.5118110236220472
        },
        {
          "duration": 0.1973684999999996,
          "durationTicks": 120,
          "midi": 69,
          "name": "A4",
          "ticks": 2521,
          "time": 4.230537737500001,
          "velocity": 0.4015748031496063
        },
        {
          "duration": 0.1973684999999996,
          "durationTicks": 120,
          "midi": 74,
          "name": "D5",
          "ticks": 2641,
          "time": 4.4279062375,
          "velocity": 0.3937007874015748
        },
        {
          "duration": 0.19737939166666685,
          "durationTicks": 120,
          "midi": 77,
          "name": "F5",
          "ticks": 2761,
          "time": 4.6252747375,
          "velocity": 0.3937007874015748
        },
        {
          "duration": 1.5730407229166667,
          "durationTicks": 960,
          "midi": 60,
          "name": "C4",
          "ticks": 2881,
          "time": 4.822654129166667,
          "velocity": 0.5118110236220472
        },
        {
          "duration": 1.3743652229166665,
          "durationTicks": 840,
          "midi": 62,
          "name": "D4",
          "ticks": 3001,
          "time": 5.021329629166667,
          "velocity": 0.47244094488188976
        },
        {
          "duration": 0.19864324791666643,
          "durationTicks": 120,
          "midi": 69,
          "name": "A4",
          "ticks": 3121,
          "time": 5.220005129166666,
          "velocity": 0.4566929133858268
        },
        {
          "duration": 0.19476415208333364,
          "durationTicks": 120,
          "midi": 74,
          "name": "D5",
          "ticks": 3241,
          "time": 5.418648377083333,
          "velocity": 0.47244094488188976
        },
        {
          "duration": 0.1708861500000003,
          "durationTicks": 108,
          "midi": 77,
          "name": "F5",
          "ticks": 3361,
          "time": 5.613412529166666,
          "velocity": 0.5118110236220472
        },
        {
          "duration": 0.19480525000000082,
          "durationTicks": 120,
          "midi": 69,
          "name": "A4",
          "ticks": 3481,
          "time": 5.803327127083333,
          "velocity": 0.4094488188976378
        },
        {
          "duration": 0.19487106249999986,
          "durationTicks": 120,
          "midi": 74,
          "name": "D5",
          "ticks": 3601,
          "time": 5.9981323770833335,
          "velocity": 0.3937007874015748
        },
        {
          "duration": 0.2026914125000001,
          "durationTicks": 120,
          "midi": 77,
          "name": "F5",
          "ticks": 3721,
          "time": 6.193003439583333,
          "velocity": 0.3937007874015748
        },
        {
          "duration": 1.5707477499999998,
          "durationTicks": 960,
          "midi": 59,
          "name": "B3",
          "ticks": 3841,
          "time": 6.395694852083333,
          "velocity": 0.5118110236220472
        },
        {
          "duration": 1.3694055,
          "durationTicks": 840,
          "midi": 62,
          "name": "D4",
          "ticks": 3961,
          "time": 6.597037102083333,
          "velocity": 0.47244094488188976
        },
        {
          "duration": 0.20128777499999995,
          "durationTicks": 120,
          "midi": 67,
          "name": "G4",
          "ticks": 4081,
          "time": 6.798379352083333,
          "velocity": 0.4409448818897638
        },
        {
          "duration": 0.19474437291666735,
          "durationTicks": 120,
          "midi": 74,
          "name": "D5",
          "ticks": 4201,
          "time": 6.999667127083333,
          "velocity": 0.47244094488188976
        },
        {
          "duration": 0.1687499999999993,
          "durationTicks": 108,
          "midi": 77,
          "name": "F5",
          "ticks": 4321,
          "time": 7.1944115,
          "velocity": 0.5118110236220472
        },
        {
          "duration": 0.19480524999999993,
          "durationTicks": 120,
          "midi": 67,
          "name": "G4",
          "ticks": 4441,
          "time": 7.381972377083333,
          "velocity": 0.4015748031496063
        },
        {
          "duration": 0.19480525000000082,
          "durationTicks": 120,
          "midi": 74,
          "name": "D5",
          "ticks": 4561,
          "time": 7.576777627083333,
          "velocity": 0.3937007874015748
        },
        {
          "duration": 0.1948597249999997,
          "durationTicks": 120,
          "midi": 77,
          "name": "F5",
          "ticks": 4681,
          "time": 7.7715828770833335,
          "velocity": 0.3937007874015748
        },
        {
          "duration": 1.5953033854166634,
          "durationTicks": 960,
          "midi": 59,
          "name": "B3",
          "ticks": 4801,
          "time": 7.966442602083333,
          "velocity": 0.5118110236220472
        },
        {
          "duration": 1.3939611354166637,
          "durationTicks": 840,
          "midi": 62,
          "name": "D4",
          "ticks": 4921,
          "time": 8.167784852083333,
          "velocity": 0.47244094488188976
        },
        {
          "duration": 0.2013091354166665,
          "durationTicks": 120,
          "midi": 67,
          "name": "G4",
          "ticks": 5041,
          "time": 8.369127102083333,
          "velocity": 0.4409448818897638
        },
        {
          "duration": 0.1973263270833332,
          "durationTicks": 120,
          "midi": 74,
          "name": "D5",
          "ticks": 5161,
          "time": 8.5704362375,
          "velocity": 0.47244094488188976
        },
        {
          "duration": 0.17307697500000074,
          "durationTicks": 108,
          "midi": 77,
          "name": "F5",
          "ticks": 5281,
          "time": 8.767762564583332,
          "velocity": 0.5118110236220472
        },
        {
          "duration": 0.1973684999999996,
          "durationTicks": 120,
          "midi": 67,
          "name": "G4",
          "ticks": 5401,
          "time": 8.960112487499998,
          "velocity": 0.4094488188976378
        },
        {
          "duration": 0.19744790000000023,
          "durationTicks": 120,
          "midi": 74,
          "name": "D5",
          "ticks": 5521,
          "time": 9.157480987499998,
          "velocity": 0.3937007874015748
        },
        {
          "duration": 0.20681709999999853,
          "durationTicks": 120,
          "midi": 77,
          "name": "F5",
          "ticks": 5641,
          "time": 9.354928887499998,
          "velocity": 0.3937007874015748
        },
        {
          "duration": 1.5793754999999994,
          "durationTicks": 960,
          "midi": 60,
          "name": "C4",
          "ticks": 5761,
          "time": 9.561745987499997,
          "velocity": 0.48031496062992124
        },
        {
          "duration": 1.3820069999999998,
          "durationTicks": 840,
          "midi": 64,
          "name": "E4",
          "ticks": 5881,
          "time": 9.759114487499996,
          "velocity": 0.44881889763779526
        },
        {
          "duration": 0.1973684999999996,
          "durationTicks": 120,
          "midi": 67,
          "name": "G4",
          "ticks": 6001,
          "time": 9.956482987499998,
          "velocity": 0.41732283464566927
        },
        {
          "duration": 0.19731611875000077,
          "durationTicks": 120,
          "midi": 72,
          "name": "C5",
          "ticks": 6121,
          "time": 10.153851487499997,
          "velocity": 0.4330708661417323
        },
        {
          "duration": 0.17197447499999896,
          "durationTicks": 108,
          "midi": 76,
          "name": "E5",
          "ticks": 6241,
          "time": 10.351167606249998,
          "velocity": 0.47244094488188976
        },
        {
          "duration": 0.1973684999999996,
          "durationTicks": 120,
          "midi": 67,
          "name": "G4",
          "ticks": 6361,
          "time": 10.542302737499996,
          "velocity": 0.3937007874015748
        },
        {
          "duration": 0.19742444375000012,
          "durationTicks": 120,
          "midi": 72,
          "name": "C5",
          "ticks": 6481,
          "time": 10.739671237499996,
          "velocity": 0.3700787401574803
        },
        {
          "duration": 0.20402580624999977,
          "durationTicks": 120,
          "midi": 76,
          "name": "E5",
          "ticks": 6601,
          "time": 10.937095681249996,
          "velocity": 0.3700787401574803
        },
        {
          "duration": 1.5739317020833337,
          "durationTicks": 960,
          "midi": 60,
          "name": "C4",
          "ticks": 6721,
          "time": 11.141121487499996,
          "velocity": 0.4881889763779528
        },
        {
          "duration": 1.376563202083334,
          "durationTicks": 840,
          "midi": 64,
          "name": "E4",
          "ticks": 6841,
          "time": 11.338489987499996,
          "velocity": 0.44881889763779526
        },
        {
          "duration": 0.1973684999999996,
          "durationTicks": 120,
          "midi": 67,
          "name": "G4",
          "ticks": 6961,
          "time": 11.535858487499997,
          "velocity": 0.4330708661417323
        },
        {
          "duration": 0.1973263270833332,
          "durationTicks": 120,
          "midi": 72,
          "name": "C5",
          "ticks": 7081,
          "time": 11.733226987499997,
          "velocity": 0.44881889763779526
        },
        {
          "duration": 0.17307697500000074,
          "durationTicks": 108,
          "midi": 76,
          "name": "E5",
          "ticks": 7201,
          "time": 11.93055331458333,
          "velocity": 0.48031496062992124
        },
        {
          "duration": 0.1973684999999996,
          "durationTicks": 120,
          "midi": 67,
          "name": "G4",
          "ticks": 7321,
          "time": 12.122903237499996,
          "velocity": 0.3937007874015748
        },
        {
          "duration": 0.1973685000000014,
          "durationTicks": 120,
          "midi": 72,
          "name": "C5",
          "ticks": 7441,
          "time": 12.320271737499995,
          "velocity": 0.3779527559055118
        },
        {
          "duration": 0.19741295208333298,
          "durationTicks": 120,
          "midi": 76,
          "name": "E5",
          "ticks": 7561,
          "time": 12.517640237499997,
          "velocity": 0.3779527559055118
        },
        {
          "duration": 1.5860199999999995,
          "durationTicks": 960,
          "midi": 60,
          "name": "C4",
          "ticks": 7681,
          "time": 12.71505318958333,
          "velocity": 0.5275590551181102
        },
        {
          "duration": 1.3833172499999993,
          "durationTicks": 840,
          "midi": 64,
          "name": "E4",
          "ticks": 7801,
          "time": 12.91775593958333,
          "velocity": 0.4881889763779528
        },
        {
          "duration": 0.2026582979166669,
          "durationTicks": 120,
          "midi": 69,
          "name": "A4",
          "ticks": 7921,
          "time": 13.12045868958333,
          "velocity": 0.48031496062992124
        },
        {
          "duration": 0.1973263270833332,
          "durationTicks": 120,
          "midi": 76,
          "name": "E5",
          "ticks": 8041,
          "time": 13.323116987499997,
          "velocity": 0.5196850393700787
        },
        {
          "duration": 0.17307697500000074,
          "durationTicks": 108,
          "midi": 81,
          "name": "A5",
          "ticks": 8161,
          "time": 13.52044331458333,
          "velocity": 0.5511811023622047
        },
        {
          "duration": 0.1960785000000005,
          "durationTicks": 120,
          "midi": 69,
          "name": "A4",
          "ticks": 8281,
          "time": 13.712782487499997,
          "velocity": 0.4330708661417323
        },
        {
          "duration": 0.1960784999999987,
          "durationTicks": 120,
          "midi": 76,
          "name": "E5",
          "ticks": 8401,
          "time": 13.908860987499997,
          "velocity": 0.4015748031496063
        },
        {
          "duration": 0.19613370208333336,
          "durationTicks": 120,
          "midi": 81,
          "name": "A5",
          "ticks": 8521,
          "time": 14.104939487499996,
          "velocity": 0.4015748031496063
        },
        {
          "duration": 1.5899385479166668,
          "durationTicks": 960,
          "midi": 60,
          "name": "C4",
          "ticks": 8641,
          "time": 14.30107318958333,
          "velocity": 0.5354330708661418
        },
        {
          "duration": 1.3872357979166665,
          "durationTicks": 840,
          "midi": 64,
          "name": "E4",
          "ticks": 8761,
          "time": 14.50377593958333,
          "velocity": 0.4881889763779528
        },
        {
          "duration": 0.2026475479166674,
          "durationTicks": 120,
          "midi": 69,
          "name": "A4",
          "ticks": 8881,
          "time": 14.70647868958333,
          "velocity": 0.48031496062992124
        },
        {
          "duration": 0.19604707708333358,
          "durationTicks": 120,
          "midi": 76,
          "name": "E5",
          "ticks": 9001,
          "time": 14.909126237499997,
          "velocity": 0.5118110236220472
        },
        {
          "duration": 0.17307697500000074,
          "durationTicks": 108,
          "midi": 81,
          "name": "A5",
          "ticks": 9121,
          "time": 15.10517331458333,
          "velocity": 0.5354330708661418
        },
        {
          "duration": 0.1960785000000005,
          "durationTicks": 120,
          "midi": 69,
          "name": "A4",
          "ticks": 9241,
          "time": 15.297512487499997,
          "velocity": 0.4330708661417323
        },
        {
          "duration": 0.19612236458333143,
          "durationTicks": 120,
          "midi": 76,
          "name": "E5",
          "ticks": 9361,
          "time": 15.493590987499998,
          "velocity": 0.4094488188976378
        },
        {
          "duration": 0.201298385416667,
          "durationTicks": 120,
          "midi": 81,
          "name": "A5",
          "ticks": 9481,
          "time": 15.689713352083329,
          "velocity": 0.4094488188976378
        },
        {
          "duration": 1.559856364583334,
          "durationTicks": 960,
          "midi": 60,
          "name": "C4",
          "ticks": 9601,
          "time": 15.891011737499996,
          "velocity": 0.48031496062992124
        },
        {
          "duration": 1.3637778645833336,
          "durationTicks": 840,
          "midi": 62,
          "name": "D4",
          "ticks": 9721,
          "time": 16.087090237499996,
          "velocity": 0.44881889763779526
        },
        {
          "duration": 0.19607850000000226,
          "durationTicks": 120,
          "midi": 66,
          "name": "F#4",
          "ticks": 9841,
          "time": 16.283168737499995,
          "velocity": 0.4409448818897638
        },
        {
          "duration": 0.19603686874999937,
          "durationTicks": 120,
          "midi": 69,
          "name": "A4",
          "ticks": 9961,
          "time": 16.479247237499997,
          "velocity": 0.47244094488188976
        },
        {
          "duration": 0.17197447499999896,
          "durationTicks": 108,
          "midi": 74,
          "name": "D5",
          "ticks": 10081,
          "time": 16.675284106249997,
          "velocity": 0.49606299212598426
        },
        {
          "duration": 0.19480524999999815,
          "durationTicks": 120,
          "midi": 66,
          "name": "F#4",
          "ticks": 10201,
          "time": 16.86639787708333,
          "velocity": 0.3937007874015748
        },
        {
          "duration": 0.1948052500000017,
          "durationTicks": 120,
          "midi": 69,
          "name": "A4",
          "ticks": 10321,
          "time": 17.061203127083328,
          "velocity": 0.3700787401574803
        },
        {
          "duration": 0.1948597250000006,
          "durationTicks": 120,
          "midi": 74,
          "name": "D5",
          "ticks": 10441,
          "time": 17.25600837708333,
          "velocity": 0.3700787401574803
        },
        {
          "duration": 1.596670064583332,
          "durationTicks": 960,
          "midi": 60,
          "name": "C4",
          "ticks": 10561,
          "time": 17.45086810208333,
          "velocity": 0.4881889763779528
        },
        {
          "duration": 1.3953278145833323,
          "durationTicks": 840,
          "midi": 62,
          "name": "D4",
          "ticks": 10681,
          "time": 17.65221035208333,
          "velocity": 0.44881889763779526
        },
        {
          "duration": 0.20134224999999972,
          "durationTicks": 120,
          "midi": 66,
          "name": "F#4",
          "ticks": 10801,
          "time": 17.85355260208333,
          "velocity": 0.4409448818897638
        },
        {
          "duration": 0.20128777500000083,
          "durationTicks": 120,
          "midi": 69,
          "name": "A4",
          "ticks": 10921,
          "time": 18.05489485208333,
          "velocity": 0.47244094488188976
        },
        {
          "duration": 0.1753247249999994,
          "durationTicks": 108,
          "midi": 74,
          "name": "D5",
          "ticks": 11041,
          "time": 18.25618262708333,
          "velocity": 0.4881889763779528
        },
        {
          "duration": 0.1948052500000017,
          "durationTicks": 120,
          "midi": 66,
          "name": "F#4",
          "ticks": 11161,
          "time": 18.450987877083328,
          "velocity": 0.3937007874015748
        },
        {
          "duration": 0.19490601041666622,
          "durationTicks": 120,
          "midi": 69,
          "name": "A4",
          "ticks": 11281,
          "time": 18.64579312708333,
          "velocity": 0.3779527559055118
        },
        {
          "duration": 0.20683902916666597,
          "durationTicks": 120,
          "midi": 74,
          "name": "D5",
          "ticks": 11401,
          "time": 18.840699137499996,
          "velocity": 0.3779527559055118
        },
        {
          "duration": 1.5794262500000045,
          "durationTicks": 960,
          "midi": 59,
          "name": "B3",
          "ticks": 11521,
          "time": 19.047538166666662,
          "velocity": 0.5118110236220472
        },
        {
          "duration": 1.3794262500000016,
          "durationTicks": 840,
          "midi": 62,
          "name": "D4",
          "ticks": 11641,
          "time": 19.247538166666665,
          "velocity": 0.47244094488188976
        },
        {
          "duration": 0.19995671041666796,
          "durationTicks": 120,
          "midi": 67,
          "name": "G4",
          "ticks": 11761,
          "time": 19.447538166666664,
          "velocity": 0.4566929133858268
        },
        {
          "duration": 0.19478443750000096,
          "durationTicks": 120,
          "midi": 74,
          "name": "D5",
          "ticks": 11881,
          "time": 19.647494877083332,
          "velocity": 0.49606299212598426
        },
        {
          "duration": 0.17307697500000074,
          "durationTicks": 108,
          "midi": 79,
          "name": "G5",
          "ticks": 12001,
          "time": 19.842279314583333,
          "velocity": 0.5196850393700787
        },
        {
          "duration": 0.19480524999999815,
          "durationTicks": 120,
          "midi": 67,
          "name": "G4",
          "ticks": 12121,
          "time": 20.034607877083335,
          "velocity": 0.4015748031496063
        },
        {
          "duration": 0.19487106250000252,
          "durationTicks": 120,
          "midi": 74,
          "name": "D5",
          "ticks": 12241,
          "time": 20.229413127083333,
          "velocity": 0.3937007874015748
        },
        {
          "duration": 0.20268022708333078,
          "durationTicks": 120,
          "midi": 79,
          "name": "G5",
          "ticks": 12361,
          "time": 20.424284189583336,
          "velocity": 0.3937007874015748
        },
        {
          "duration": 1.5811016854166695,
          "durationTicks": 960,
          "midi": 59,
          "name": "B3",
          "ticks": 12481,
          "time": 20.626964416666667,
          "velocity": 0.5118110236220472
        },
        {
          "duration": 1.3811016854166667,
          "durationTicks": 840,
          "midi": 62,
          "name": "D4",
          "ticks": 12601,
          "time": 20.82696441666667,
          "velocity": 0.47244094488188976
        },
        {
          "duration": 0.19994623750000073,
          "durationTicks": 120,
          "midi": 67,
          "name": "G4",
          "ticks": 12721,
          "time": 21.02696441666667,
          "velocity": 0.4566929133858268
        },
        {
          "duration": 0.19354849999999857,
          "durationTicks": 120,
          "midi": 74,
          "name": "D5",
          "ticks": 12841,
          "time": 21.22691065416667,
          "velocity": 0.4881889763779528
        },
        {
          "duration": 0.17419365000000298,
          "durationTicks": 108,
          "midi": 79,
          "name": "G5",
          "ticks": 12961,
          "time": 21.420459154166668,
          "velocity": 0.5118110236220472
        },
        {
          "duration": 0.19354849999999857,
          "durationTicks": 120,
          "midi": 67,
          "name": "G4",
          "ticks": 13081,
          "time": 21.61400765416667,
          "velocity": 0.4094488188976378
        },
        {
          "duration": 0.19365973333333386,
          "durationTicks": 120,
          "midi": 74,
          "name": "D5",
          "ticks": 13201,
          "time": 21.80755615416667,
          "velocity": 0.3937007874015748
        },
        {
          "duration": 0.20685021458333352,
          "durationTicks": 120,
          "midi": 79,
          "name": "G5",
          "ticks": 13321,
          "time": 22.001215887500003,
          "velocity": 0.3937007874015748
        },
        {
          "duration": 1.5886733854166657,
          "durationTicks": 960,
          "midi": 59,
          "name": "B3",
          "ticks": 13441,
          "time": 22.208066102083336,
          "velocity": 0.48031496062992124
        },
        {
          "duration": 1.387331135416666,
          "durationTicks": 840,
          "midi": 60,
          "name": "C4",
          "ticks": 13561,
          "time": 22.409408352083336,
          "velocity": 0.44881889763779526
        },
        {
          "duration": 0.20134224999999972,
          "durationTicks": 120,
          "midi": 64,
          "name": "E4",
          "ticks": 13681,
          "time": 22.610750602083336,
          "velocity": 0.4409448818897638
        },
        {
          "duration": 0.2012773020833336,
          "durationTicks": 120,
          "midi": 67,
          "name": "G4",
          "ticks": 13801,
          "time": 22.812092852083335,
          "velocity": 0.47244094488188976
        },
        {
          "duration": 0.17419364999999942,
          "durationTicks": 108,
          "midi": 72,
          "name": "C5",
          "ticks": 13921,
          "time": 23.01337015416667,
          "velocity": 0.49606299212598426
        },
        {
          "duration": 0.19354850000000212,
          "durationTicks": 120,
          "midi": 64,
          "name": "E4",
          "ticks": 14041,
          "time": 23.206918654166667,
          "velocity": 0.3937007874015748
        },
        {
          "duration": 0.1936247854166666,
          "durationTicks": 120,
          "midi": 67,
          "name": "G4",
          "ticks": 14161,
          "time": 23.40046715416667,
          "velocity": 0.3700787401574803
        },
        {
          "duration": 0.20264754791666562,
          "durationTicks": 120,
          "midi": 72,
          "name": "C5",
          "ticks": 14281,
          "time": 23.594091939583336,
          "velocity": 0.3700787401574803
        },
        {
          "duration": 1.571866749999998,
          "durationTicks": 960,
          "midi": 59,
          "name": "B3",
          "ticks": 14401,
          "time": 23.796739487500002,
          "velocity": 0.4881889763779528
        },
        {
          "duration": 1.3757882499999994,
          "durationTicks": 840,
          "midi": 60,
          "name": "C4",
          "ticks": 14521,
          "time": 23.9928179875,
          "velocity": 0.44881889763779526
        },
        {
          "duration": 0.1960784999999987,
          "durationTicks": 120,
          "midi": 64,
          "name": "E4",
          "ticks": 14641,
          "time": 24.188896487500003,
          "velocity": 0.4409448818897638
        },
        {
          "duration": 0.19605741666666532,
          "durationTicks": 120,
          "midi": 67,
          "name": "G4",
          "ticks": 14761,
          "time": 24.3849749875,
          "velocity": 0.47244094488188976
        },
        {
          "duration": 0.17419364999999942,
          "durationTicks": 108,
          "midi": 72,
          "name": "C5",
          "ticks": 14881,
          "time": 24.581032404166667,
          "velocity": 0.4881889763779528
        },
        {
          "duration": 0.19354850000000212,
          "durationTicks": 120,
          "midi": 64,
          "name": "E4",
          "ticks": 15001,
          "time": 24.774580904166665,
          "velocity": 0.3937007874015748
        },
        {
          "duration": 0.1936597333333303,
          "durationTicks": 120,
          "midi": 67,
          "name": "G4",
          "ticks": 15121,
          "time": 24.968129404166667,
          "velocity": 0.3779527559055118
        },
        {
          "duration": 0.20681710000000209,
          "durationTicks": 120,
          "midi": 72,
          "name": "C5",
          "ticks": 15241,
          "time": 25.161789137499998,
          "velocity": 0.3779527559055118
        },
        {
          "duration": 1.5949616416666643,
          "durationTicks": 960,
          "midi": 57,
          "name": "A3",
          "ticks": 15361,
          "time": 25.3686062375,
          "velocity": 0.48031496062992124
        },
        {
          "duration": 1.3975931416666647,
          "durationTicks": 840,
          "midi": 60,
          "name": "C4",
          "ticks": 15481,
          "time": 25.5659747375,
          "velocity": 0.44881889763779526
        },
        {
          "duration": 0.1973684999999996,
          "durationTicks": 120,
          "midi": 64,
          "name": "E4",
          "ticks": 15601,
          "time": 25.7633432375,
          "velocity": 0.4409448818897638
        },
        {
          "duration": 0.1973684999999996,
          "durationTicks": 120,
          "midi": 67,
          "name": "G4",
          "ticks": 15721,
          "time": 25.9607117375,
          "velocity": 0.47244094488188976
        },
        {
          "duration": 0.1776316499999986,
          "durationTicks": 108,
          "midi": 72,
          "name": "C5",
          "ticks": 15841,
          "time": 26.1580802375,
          "velocity": 0.49606299212598426
        },
        {
          "duration": 0.20270275000000026,
          "durationTicks": 120,
          "midi": 64,
          "name": "E4",
          "ticks": 15961,
          "time": 26.35549318958333,
          "velocity": 0.3937007874015748
        },
        {
          "duration": 0.2027027499999967,
          "durationTicks": 120,
          "midi": 67,
          "name": "G4",
          "ticks": 16081,
          "time": 26.55819593958333,
          "velocity": 0.3700787401574803
        },
        {
          "duration": 0.2026691895833359,
          "durationTicks": 120,
          "midi": 72,
          "name": "C5",
          "ticks": 16201,
          "time": 26.76089868958333,
          "velocity": 0.3700787401574803
        },
        {
          "duration": 1.6205640520833349,
          "durationTicks": 960,
          "midi": 57,
          "name": "A3",
          "ticks": 16321,
          "time": 26.963567879166664,
          "velocity": 0.4881889763779528
        },
        {
          "duration": 1.4218885520833346,
          "durationTicks": 840,
          "midi": 60,
          "name": "C4",
          "ticks": 16441,
          "time": 27.162243379166664,
          "velocity": 0.44881889763779526
        },
        {
          "duration": 0.19867550000000023,
          "durationTicks": 120,
          "midi": 64,
          "name": "E4",
          "ticks": 16561,
          "time": 27.360918879166665,
          "velocity": 0.4409448818897638
        },
        {
          "duration": 0.19867550000000023,
          "durationTicks": 120,
          "midi": 67,
          "name": "G4",
          "ticks": 16681,
          "time": 27.559594379166665,
          "velocity": 0.47244094488188976
        },
        {
          "duration": 0.1788079499999995,
          "durationTicks": 108,
          "midi": 72,
          "name": "C5",
          "ticks": 16801,
          "time": 27.758269879166665,
          "velocity": 0.4881889763779528
        },
        {
          "duration": 0.20408175000000028,
          "durationTicks": 120,
          "midi": 64,
          "name": "E4",
          "ticks": 16921,
          "time": 27.95699043125,
          "velocity": 0.3937007874015748
        },
        {
          "duration": 0.20420588541666618,
          "durationTicks": 120,
          "midi": 67,
          "name": "G4",
          "ticks": 17041,
          "time": 28.16107218125,
          "velocity": 0.3779527559055118
        },
        {
          "duration": 0.218853864583334,
          "durationTicks": 120,
          "midi": 72,
          "name": "C5",
          "ticks": 17161,
          "time": 28.365278066666665,
          "velocity": 0.3779527559055118
        },
        {
          "duration": 1.6122452500000009,
          "durationTicks": 960,
          "midi": 50,
          "name": "D3",
          "ticks": 17281,
          "time": 28.58413193125,
          "velocity": 0.48031496062992124
        },
        {
          "duration": 1.4081635000000006,
          "durationTicks": 840,
          "midi": 57,
          "name": "A3",
          "ticks": 17401,
          "time": 28.78821368125,
          "velocity": 0.44881889763779526
        },
        {
          "duration": 0.20404773541666543,
          "durationTicks": 120,
          "midi": 62,
          "name": "D4",
          "ticks": 17521,
          "time": 28.99229543125,
          "velocity": 0.4409448818897638
        },
        {
          "duration": 0.20000000000000284,
          "durationTicks": 120,
          "midi": 66,
          "name": "F#4",
          "ticks": 17641,
          "time": 29.196343166666665,
          "velocity": 0.47244094488188976
        },
        {
          "duration": 0.17999999999999972,
          "durationTicks": 108,
          "midi": 72,
          "name": "C5",
          "ticks": 17761,
          "time": 29.396343166666668,
          "velocity": 0.49606299212598426
        },
        {
          "duration": 0.1999999999999993,
          "durationTicks": 120,
          "midi": 62,
          "name": "D4",
          "ticks": 17881,
          "time": 29.596343166666667,
          "velocity": 0.3937007874015748
        },
        {
          "duration": 0.1999999999999993,
          "durationTicks": 120,
          "midi": 66,
          "name": "F#4",
          "ticks": 18001,
          "time": 29.796343166666666,
          "velocity": 0.3700787401574803
        },
        {
          "duration": 0.20003401458333414,
          "durationTicks": 120,
          "midi": 72,
          "name": "C5",
          "ticks": 18121,
          "time": 29.996343166666666,
          "velocity": 0.3700787401574803
        },
        {
          "duration": 1.6137986979166676,
          "durationTicks": 960,
          "midi": 50,
          "name": "D3",
          "ticks": 18241,
          "time": 30.19637718125,
          "velocity": 0.4881889763779528
        },
        {
          "duration": 1.4097169479166674,
          "durationTicks": 840,
          "midi": 57,
          "name": "A3",
          "ticks": 18361,
          "time": 30.40045893125,
          "velocity": 0.44881889763779526
        },
        {
          "duration": 0.204036697916667,
          "durationTicks": 120,
          "midi": 62,
          "name": "D4",
          "ticks": 18481,
          "time": 30.60454068125,
          "velocity": 0.4409448818897638
        },
        {
          "duration": 0.19867550000000023,
          "durationTicks": 120,
          "midi": 66,
          "name": "F#4",
          "ticks": 18601,
          "time": 30.808577379166667,
          "velocity": 0.47244094488188976
        },
        {
          "duration": 0.1788079499999995,
          "durationTicks": 108,
          "midi": 72,
          "name": "C5",
          "ticks": 18721,
          "time": 31.007252879166668,
          "velocity": 0.4881889763779528
        },
        {
          "duration": 0.19867550000000023,
          "durationTicks": 120,
          "midi": 62,
          "name": "D4",
          "ticks": 18841,
          "time": 31.205928379166668,
          "velocity": 0.3937007874015748
        },
        {
          "duration": 0.19874400833333183,
          "durationTicks": 120,
          "midi": 66,
          "name": "F#4",
          "ticks": 18961,
          "time": 31.404603879166668,
          "velocity": 0.3779527559055118
        },
        {
          "duration": 0.20682799166666754,
          "durationTicks": 120,
          "midi": 72,
          "name": "C5",
          "ticks": 19081,
          "time": 31.6033478875,
          "velocity": 0.3779527559055118
        },
        {
          "duration": 1.5790159999999993,
          "durationTicks": 960,
          "midi": 55,
          "name": "G3",
          "ticks": 19201,
          "time": 31.810175879166668,
          "velocity": 0.44881889763779526
        },
        {
          "duration": 1.3803405000000026,
          "durationTicks": 840,
          "midi": 59,
          "name": "B3",
          "ticks": 19321,
          "time": 32.008851379166664,
          "velocity": 0.4330708661417323
        },
        {
          "duration": 0.19867550000000023,
          "durationTicks": 120,
          "midi": 62,
          "name": "D4",
          "ticks": 19441,
          "time": 32.207526879166664,
          "velocity": 0.41732283464566927
        },
        {
          "duration": 0.19865385833333704,
          "durationTicks": 120,
          "midi": 67,
          "name": "G4",
          "ticks": 19561,
          "time": 32.406202379166665,
          "velocity": 0.4409448818897638
        },
        {
          "duration": 0.17647064999999884,
          "durationTicks": 108,
          "midi": 71,
          "name": "B4",
          "ticks": 19681,
          "time": 32.6048562375,
          "velocity": 0.47244094488188976
        },
        {
          "duration": 0.1960784999999987,
          "durationTicks": 120,
          "midi": 62,
          "name": "D4",
          "ticks": 19801,
          "time": 32.8009347375,
          "velocity": 0.36220472440944884
        },
        {
          "duration": 0.19607850000000582,
          "durationTicks": 120,
          "midi": 67,
          "name": "G4",
          "ticks": 19921,
          "time": 32.9970132375,
          "velocity": 0.3543307086614173
        },
        {
          "duration": 0.1961001416666619,
          "durationTicks": 120,
          "midi": 71,
          "name": "B4",
          "ticks": 20041,
          "time": 33.193091737500005,
          "velocity": 0.3543307086614173
        },
        {
          "duration": 1.5805042500000042,
          "durationTicks": 960,
          "midi": 55,
          "name": "G3",
          "ticks": 20161,
          "time": 33.38919187916667,
          "velocity": 0.4566929133858268
        },
        {
          "duration": 1.381828750000004,
          "durationTicks": 840,
          "midi": 59,
          "name": "B3",
          "ticks": 20281,
          "time": 33.58786737916667,
          "velocity": 0.4330708661417323
        },
        {
          "duration": 0.19867550000000023,
          "durationTicks": 120,
          "midi": 62,
          "name": "D4",
          "ticks": 20401,
          "time": 33.78654287916667,
          "velocity": 0.41732283464566927
        },
        {
          "duration": 0.19864324791667087,
          "durationTicks": 120,
          "midi": 67,
          "name": "G4",
          "ticks": 20521,
          "time": 33.98521837916667,
          "velocity": 0.4409448818897638
        },
        {
          "duration": 0.17532472500000296,
          "durationTicks": 108,
          "midi": 71,
          "name": "B4",
          "ticks": 20641,
          "time": 34.18386162708334,
          "velocity": 0.4566929133858268
        },
        {
          "duration": 0.1948052499999946,
          "durationTicks": 120,
          "midi": 62,
          "name": "D4",
          "ticks": 20761,
          "time": 34.37866687708334,
          "velocity": 0.3700787401574803
        },
        {
          "duration": 0.1948052500000017,
          "durationTicks": 120,
          "midi": 67,
          "name": "G4",
          "ticks": 20881,
          "time": 34.573472127083335,
          "velocity": 0.3543307086614173
        },
        {
          "duration": 0.2014187520833346,
          "durationTicks": 120,
          "midi": 71,
          "name": "B4",
          "ticks": 21001,
          "time": 34.768277377083336,
          "velocity": 0.3543307086614173
        },
        {
          "duration": 1.586014249999998,
          "durationTicks": 960,
          "midi": 55,
          "name": "G3",
          "ticks": 21121,
          "time": 34.96969612916667,
          "velocity": 0.44881889763779526
        },
        {
          "duration": 1.3873387499999978,
          "durationTicks": 840,
          "midi": 58,
          "name": "A#3",
          "ticks": 21241,
          "time": 35.16837162916667,
          "velocity": 0.4330708661417323
        },
        {
          "duration": 0.19867550000000023,
          "durationTicks": 120,
          "midi": 64,
          "name": "E4",
          "ticks": 21361,
          "time": 35.36704712916667,
          "velocity": 0.41732283464566927
        },
        {
          "duration": 0.19864324791667087,
          "durationTicks": 120,
          "midi": 67,
          "name": "G4",
          "ticks": 21481,
          "time": 35.56572262916667,
          "velocity": 0.4409448818897638
        },
        {
          "duration": 0.17532472500000296,
          "durationTicks": 108,
          "midi": 73,
          "name": "C#5",
          "ticks": 21601,
          "time": 35.76436587708334,
          "velocity": 0.47244094488188976
        },
        {
          "duration": 0.1948052499999946,
          "durationTicks": 120,
          "midi": 64,
          "name": "E4",
          "ticks": 21721,
          "time": 35.959171127083344,
          "velocity": 0.36220472440944884
        },
        {
          "duration": 0.19490601041666622,
          "durationTicks": 120,
          "midi": 67,
          "name": "G4",
          "ticks": 21841,
          "time": 36.15397637708334,
          "velocity": 0.3543307086614173
        },
        {
          "duration": 0.206827991666664,
          "durationTicks": 120,
          "midi": 73,
          "name": "C#5",
          "ticks": 21961,
          "time": 36.348882387500005,
          "velocity": 0.3543307086614173
        },
        {
          "duration": 1.5889303145833367,
          "durationTicks": 960,
          "midi": 55,
          "name": "G3",
          "ticks": 22081,
          "time": 36.55571037916667,
          "velocity": 0.4566929133858268
        },
        {
          "duration": 1.3902548145833364,
          "durationTicks": 840,
          "midi": 58,
          "name": "A#3",
          "ticks": 22201,
          "time": 36.75438587916667,
          "velocity": 0.4330708661417323
        },
        {
          "duration": 0.19867550000000023,
          "durationTicks": 120,
          "midi": 64,
          "name": "E4",
          "ticks": 22321,
          "time": 36.95306137916667,
          "velocity": 0.41732283464566927
        },
        {
          "duration": 0.19867550000000023,
          "durationTicks": 120,
          "midi": 67,
          "name": "G4",
          "ticks": 22441,
          "time": 37.15173687916667,
          "velocity": 0.4409448818897638
        },
        {
          "duration": 0.17688184166666332,
          "durationTicks": 108,
          "midi": 73,
          "name": "C#5",
          "ticks": 22561,
          "time": 37.35041237916667,
          "velocity": 0.4566929133858268
        },
        {
          "duration": 0.1960784999999987,
          "durationTicks": 120,
          "midi": 64,
          "name": "E4",
          "ticks": 22681,
          "time": 37.54690207083333,
          "velocity": 0.3700787401574803
        },
        {
          "duration": 0.1961568416666708,
          "durationTicks": 120,
          "midi": 67,
          "name": "G4",
          "ticks": 22801,
          "time": 37.74298057083333,
          "velocity": 0.3543307086614173
        },
        {
          "duration": 0.20550328125000306,
          "durationTicks": 120,
          "midi": 73,
          "name": "C#5",
          "ticks": 22921,
          "time": 37.9391374125,
          "velocity": 0.3543307086614173
        },
        {
          "duration": 1.588593268750003,
          "durationTicks": 960,
          "midi": 53,
          "name": "F3",
          "ticks": 23041,
          "time": 38.144640693750006,
          "velocity": 0.48031496062992124
        },
        {
          "duration": 1.3803405000000026,
          "durationTicks": 840,
          "midi": 57,
          "name": "A3",
          "ticks": 23161,
          "time": 38.352893462500006,
          "velocity": 0.44881889763779526
        },
        {
          "duration": 0.19867550000000023,
          "durationTicks": 120,
          "midi": 62,
          "name": "D4",
          "ticks": 23281,
          "time": 38.551568962500006,
          "velocity": 0.4409448818897638
        },
        {
          "duration": 0.19865385833333704,
          "durationTicks": 120,
          "midi": 69,
          "name": "A4",
          "ticks": 23401,
          "time": 38.75024446250001,
          "velocity": 0.47244094488188976
        },
        {
          "duration": 0.17647064999999884,
          "durationTicks": 108,
          "midi": 74,
          "name": "D5",
          "ticks": 23521,
          "time": 38.948898320833344,
          "velocity": 0.49606299212598426
        },
        {
          "duration": 0.1960784999999987,
          "durationTicks": 120,
          "midi": 62,
          "name": "D4",
          "ticks": 23641,
          "time": 39.14497682083334,
          "velocity": 0.3937007874015748
        },
        {
          "duration": 0.19607850000000582,
          "durationTicks": 120,
          "midi": 69,
          "name": "A4",
          "ticks": 23761,
          "time": 39.34105532083334,
          "velocity": 0.3700787401574803
        },
        {
          "duration": 0.1961001416666619,
          "durationTicks": 120,
          "midi": 74,
          "name": "D5",
          "ticks": 23881,
          "time": 39.53713382083335,
          "velocity": 0.3700787401574803
        },
        {
          "duration": 1.5912817875000087,
          "durationTicks": 960,
          "midi": 53,
          "name": "F3",
          "ticks": 24001,
          "time": 39.73323396250001,
          "velocity": 0.4881889763779528
        },
        {
          "duration": 1.3926062875000085,
          "durationTicks": 840,
          "midi": 57,
          "name": "A3",
          "ticks": 24121,
          "time": 39.93190946250001,
          "velocity": 0.44881889763779526
        },
        {
          "duration": 0.19867550000000023,
          "durationTicks": 120,
          "midi": 62,
          "name": "D4",
          "ticks": 24241,
          "time": 40.13058496250001,
          "velocity": 0.4409448818897638
        },
        {
          "duration": 0.19865385833333704,
          "durationTicks": 120,
          "midi": 69,
          "name": "A4",
          "ticks": 24361,
          "time": 40.32926046250001,
          "velocity": 0.47244094488188976
        },
        {
          "duration": 0.17647064999999884,
          "durationTicks": 108,
          "midi": 74,
          "name": "D5",
          "ticks": 24481,
          "time": 40.52791432083335,
          "velocity": 0.4881889763779528
        },
        {
          "duration": 0.1960784999999987,
          "durationTicks": 120,
          "midi": 62,
          "name": "D4",
          "ticks": 24601,
          "time": 40.723992820833345,
          "velocity": 0.3937007874015748
        },
        {
          "duration": 0.19618062291667115,
          "durationTicks": 120,
          "midi": 69,
          "name": "A4",
          "ticks": 24721,
          "time": 40.920071320833344,
          "velocity": 0.3779527559055118
        },
        {
          "duration": 0.2082638062500024,
          "durationTicks": 120,
          "midi": 74,
          "name": "D5",
          "ticks": 24841,
          "time": 41.116251943750015,
          "velocity": 0.3779527559055118
        },
        {
          "duration": 1.5843139999999991,
          "durationTicks": 960,
          "midi": 53,
          "name": "F3",
          "ticks": 24961,
          "time": 41.32451575000002,
          "velocity": 0.44881889763779526
        },
        {
          "duration": 1.3843139999999963,
          "durationTicks": 840,
          "midi": 56,
          "name": "G#3",
          "ticks": 25081,
          "time": 41.52451575000002,
          "velocity": 0.4330708661417323
        },
        {
          "duration": 0.20000000000000284,
          "durationTicks": 120,
          "midi": 62,
          "name": "D4",
          "ticks": 25201,
          "time": 41.724515750000016,
          "velocity": 0.41732283464566927
        },
        {
          "duration": 0.19996732083333058,
          "durationTicks": 120,
          "midi": 65,
          "name": "F4",
          "ticks": 25321,
          "time": 41.92451575000002,
          "velocity": 0.4409448818897638
        },
        {
          "duration": 0.17647064999999884,
          "durationTicks": 108,
          "midi": 71,
          "name": "B4",
          "ticks": 25441,
          "time": 42.12448307083335,
          "velocity": 0.47244094488188976
        },
        {
          "duration": 0.1960784999999987,
          "durationTicks": 120,
          "midi": 62,
          "name": "D4",
          "ticks": 25561,
          "time": 42.32056157083335,
          "velocity": 0.36220472440944884
        },
        {
          "duration": 0.19607850000000582,
          "durationTicks": 120,
          "midi": 65,
          "name": "F4",
          "ticks": 25681,
          "time": 42.51664007083335,
          "velocity": 0.3543307086614173
        },
        {
          "duration": 0.19611117916666387,
          "durationTicks": 120,
          "midi": 71,
          "name": "B4",
          "ticks": 25801,
          "time": 42.71271857083335,
          "velocity": 0.3543307086614173
        },
        {
          "duration": 1.593715000000003,
          "durationTicks": 960,
          "midi": 53,
          "name": "F3",
          "ticks": 25921,
          "time": 42.90882975000002,
          "velocity": 0.4566929133858268
        },
        {
          "duration": 1.3937150000000003,
          "durationTicks": 840,
          "midi": 56,
          "name": "G#3",
          "ticks": 26041,
          "time": 43.10882975000002,
          "velocity": 0.4330708661417323
        },
        {
          "duration": 0.20000000000000284,
          "durationTicks": 120,
          "midi": 62,
          "name": "D4",
          "ticks": 26161,
          "time": 43.308829750000015,
          "velocity": 0.41732283464566927
        },
        {
          "duration": 0.19996732083333058,
          "durationTicks": 120,
          "midi": 65,
          "name": "F4",
          "ticks": 26281,
          "time": 43.50882975000002,
          "velocity": 0.4409448818897638
        },
        {
          "duration": 0.17647064999999884,
          "durationTicks": 108,
          "midi": 71,
          "name": "B4",
          "ticks": 26401,
          "time": 43.70879707083335,
          "velocity": 0.4566929133858268
        },
        {
          "duration": 0.1960784999999987,
          "durationTicks": 120,
          "midi": 62,
          "name": "D4",
          "ticks": 26521,
          "time": 43.90487557083335,
          "velocity": 0.3700787401574803
        },
        {
          "duration": 0.1961568416666708,
          "durationTicks": 120,
          "midi": 65,
          "name": "F4",
          "ticks": 26641,
          "time": 44.100954070833346,
          "velocity": 0.3543307086614173
        },
        {
          "duration": 0.20543383750000288,
          "durationTicks": 120,
          "midi": 71,
          "name": "B4",
          "ticks": 26761,
          "time": 44.29711091250002,
          "velocity": 0.3543307086614173
        },
        {
          "duration": 1.572858462500001,
          "durationTicks": 960,
          "midi": 52,
          "name": "E3",
          "ticks": 26881,
          "time": 44.50254475000002,
          "velocity": 0.44881889763779526
        },
        {
          "duration": 1.3728584624999982,
          "durationTicks": 840,
          "midi": 55,
          "name": "G3",
          "ticks": 27001,
          "time": 44.70254475000002,
          "velocity": 0.4330708661417323
        },
        {
          "duration": 0.19998896250000087,
          "durationTicks": 120,
          "midi": 60,
          "name": "C4",
          "ticks": 27121,
          "time": 44.90254475000002,
          "velocity": 0.41732283464566927
        },
        {
          "duration": 0.1986327750000072,
          "durationTicks": 120,
          "midi": 67,
          "name": "G4",
          "ticks": 27241,
          "time": 45.10253371250002,
          "velocity": 0.4409448818897638
        },
        {
          "duration": 0.17419364999999942,
          "durationTicks": 108,
          "midi": 72,
          "name": "C5",
          "ticks": 27361,
          "time": 45.301166487500026,
          "velocity": 0.47244094488188976
        },
        {
          "duration": 0.19354849999999857,
          "durationTicks": 120,
          "midi": 60,
          "name": "C4",
          "ticks": 27481,
          "time": 45.494714987500025,
          "velocity": 0.36220472440944884
        },
        {
          "duration": 0.19354849999999857,
          "durationTicks": 120,
          "midi": 67,
          "name": "G4",
          "ticks": 27601,
          "time": 45.68826348750002,
          "velocity": 0.3543307086614173
        },
        {
          "duration": 0.1935912249999987,
          "durationTicks": 120,
          "midi": 72,
          "name": "C5",
          "ticks": 27721,
          "time": 45.88181198750002,
          "velocity": 0.3543307086614173
        },
        {
          "duration": 1.5904074729166666,
          "durationTicks": 960,
          "midi": 52,
          "name": "E3",
          "ticks": 27841,
          "time": 46.07540321250002,
          "velocity": 0.4566929133858268
        },
        {
          "duration": 1.3917319729166664,
          "durationTicks": 840,
          "midi": 55,
          "name": "G3",
          "ticks": 27961,
          "time": 46.27407871250002,
          "velocity": 0.4330708661417323
        },
        {
          "duration": 0.19867550000000023,
          "durationTicks": 120,
          "midi": 60,
          "name": "C4",
          "ticks": 28081,
          "time": 46.47275421250002,
          "velocity": 0.41732283464566927
        },
        {
          "duration": 0.19864324791667087,
          "durationTicks": 120,
          "midi": 67,
          "name": "G4",
          "ticks": 28201,
          "time": 46.67142971250002,
          "velocity": 0.4409448818897638
        },
        {
          "duration": 0.17532472500000296,
          "durationTicks": 108,
          "midi": 72,
          "name": "C5",
          "ticks": 28321,
          "time": 46.87007296041669,
          "velocity": 0.4566929133858268
        },
        {
          "duration": 0.1948052499999946,
          "durationTicks": 120,
          "midi": 60,
          "name": "C4",
          "ticks": 28441,
          "time": 47.064878210416694,
          "velocity": 0.3700787401574803
        },
        {
          "duration": 0.1949424354166709,
          "durationTicks": 120,
          "midi": 67,
          "name": "G4",
          "ticks": 28561,
          "time": 47.25968346041669,
          "velocity": 0.3543307086614173
        },
        {
          "duration": 0.21118478958332787,
          "durationTicks": 120,
          "midi": 72,
          "name": "C5",
          "ticks": 28681,
          "time": 47.45462589583336,
          "velocity": 0.3543307086614173
        },
        {
          "duration": 1.5896830000000008,
          "durationTicks": 960,
          "midi": 52,
          "name": "E3",
          "ticks": 28801,
          "time": 47.66581068541669,
          "velocity": 0.4330708661417323
        },
        {
          "duration": 1.3883407499999976,
          "durationTicks": 840,
          "midi": 53,
          "name": "F3",
          "ticks": 28921,
          "time": 47.86715293541669,
          "velocity": 0.4015748031496063
        },
        {
          "duration": 0.20134225000000328,
          "durationTicks": 120,
          "midi": 57,
          "name": "A3",
          "ticks": 29041,
          "time": 48.06849518541669,
          "velocity": 0.3937007874015748
        },
        {
          "duration": 0.20129838541666345,
          "durationTicks": 120,
          "midi": 60,
          "name": "C4",
          "ticks": 29161,
          "time": 48.26983743541669,
          "velocity": 0.41732283464566927
        },
        {
          "duration": 0.17647064999999884,
          "durationTicks": 108,
          "midi": 65,
          "name": "F4",
          "ticks": 29281,
          "time": 48.471135820833354,
          "velocity": 0.4409448818897638
        },
        {
          "duration": 0.1960784999999987,
          "durationTicks": 120,
          "midi": 57,
          "name": "A3",
          "ticks": 29401,
          "time": 48.66721432083335,
          "velocity": 0.3543307086614173
        },
        {
          "duration": 0.19607850000000582,
          "durationTicks": 120,
          "midi": 60,
          "name": "C4",
          "ticks": 29521,
          "time": 48.86329282083335,
          "velocity": 0.33070866141732286
        },
        {
          "duration": 0.19612236458333143,
          "durationTicks": 120,
          "midi": 65,
          "name": "F4",
          "ticks": 29641,
          "time": 49.05937132083336,
          "velocity": 0.33070866141732286
        },
        {
          "duration": 1.6102405000000033,
          "durationTicks": 960,
          "midi": 52,
          "name": "E3",
          "ticks": 29761,
          "time": 49.25549368541669,
          "velocity": 0.4330708661417323
        },
        {
          "duration": 1.40889825,
          "durationTicks": 840,
          "midi": 53,
          "name": "F3",
          "ticks": 29881,
          "time": 49.45683593541669,
          "velocity": 0.4015748031496063
        },
        {
          "duration": 0.20134225000000328,
          "durationTicks": 120,
          "midi": 57,
          "name": "A3",
          "ticks": 30001,
          "time": 49.65817818541669,
          "velocity": 0.3937007874015748
        },
        {
          "duration": 0.20130913541666473,
          "durationTicks": 120,
          "midi": 60,
          "name": "C4",
          "ticks": 30121,
          "time": 49.85952043541669,
          "velocity": 0.41732283464566927
        },
        {
          "duration": 0.17763165000000214,
          "durationTicks": 108,
          "midi": 65,
          "name": "F4",
          "ticks": 30241,
          "time": 50.060829570833356,
          "velocity": 0.4330708661417323
        },
        {
          "duration": 0.19736850000000317,
          "durationTicks": 120,
          "midi": 57,
          "name": "A3",
          "ticks": 30361,
          "time": 50.25819807083335,
          "velocity": 0.3543307086614173
        },
        {
          "duration": 0.19749681249999895,
          "durationTicks": 120,
          "midi": 60,
          "name": "C4",
          "ticks": 30481,
          "time": 50.455566570833355,
          "velocity": 0.33858267716535434
        },
        {
          "duration": 0.21267080208333766,
          "durationTicks": 120,
          "midi": 65,
          "name": "F4",
          "ticks": 30601,
          "time": 50.653063383333354,
          "velocity": 0.33858267716535434
        },
        {
          "duration": 1.6087419999999995,
          "durationTicks": 960,
          "midi": 50,
          "name": "D3",
          "ticks": 30721,
          "time": 50.86573418541669,
          "velocity": 0.4330708661417323
        },
        {
          "duration": 1.4073997499999962,
          "durationTicks": 840,
          "midi": 53,
          "name": "F3",
          "ticks": 30841,
          "time": 51.067076435416695,
          "velocity": 0.4015748031496063
        },
        {
          "duration": 0.20134225000000328,
          "durationTicks": 120,
          "midi": 57,
          "name": "A3",
          "ticks": 30961,
          "time": 51.26841868541669,
          "velocity": 0.3937007874015748
        },
        {
          "duration": 0.20130913541666473,
          "durationTicks": 120,
          "midi": 60,
          "name": "C4",
          "ticks": 31081,
          "time": 51.469760935416694,
          "velocity": 0.41732283464566927
        },
        {
          "duration": 0.17763165000000214,
          "durationTicks": 108,
          "midi": 65,
          "name": "F4",
          "ticks": 31201,
          "time": 51.67107007083336,
          "velocity": 0.4409448818897638
        },
        {
          "duration": 0.19736850000000317,
          "durationTicks": 120,
          "midi": 57,
          "name": "A3",
          "ticks": 31321,
          "time": 51.868438570833355,
          "velocity": 0.3543307086614173
        },
        {
          "duration": 0.1974843250000049,
          "durationTicks": 120,
          "midi": 60,
          "name": "C4",
          "ticks": 31441,
          "time": 52.06580707083336,
          "velocity": 0.33070866141732286
        },
        {
          "duration": 0.21118478958332787,
          "durationTicks": 120,
          "midi": 65,
          "name": "F4",
          "ticks": 31561,
          "time": 52.26329139583336,
          "velocity": 0.33070866141732286
        },
        {
          "duration": 1.6141615000000016,
          "durationTicks": 960,
          "midi": 50,
          "name": "D3",
          "ticks": 31681,
          "time": 52.47447618541669,
          "velocity": 0.4330708661417323
        },
        {
          "duration": 1.4128192499999983,
          "durationTicks": 840,
          "midi": 53,
          "name": "F3",
          "ticks": 31801,
          "time": 52.675818435416694,
          "velocity": 0.4015748031496063
        },
        {
          "duration": 0.20134225000000328,
          "durationTicks": 120,
          "midi": 57,
          "name": "A3",
          "ticks": 31921,
          "time": 52.87716068541669,
          "velocity": 0.3937007874015748
        },
        {
          "duration": 0.20132002708332664,
          "durationTicks": 120,
          "midi": 60,
          "name": "C4",
          "ticks": 32041,
          "time": 53.078502935416694,
          "velocity": 0.41732283464566927
        },
        {
          "duration": 0.1788079500000066,
          "durationTicks": 108,
          "midi": 65,
          "name": "F4",
          "ticks": 32161,
          "time": 53.27982296250002,
          "velocity": 0.4330708661417323
        },
        {
          "duration": 0.19867550000000023,
          "durationTicks": 120,
          "midi": 57,
          "name": "A3",
          "ticks": 32281,
          "time": 53.47849846250002,
          "velocity": 0.3543307086614173
        },
        {
          "duration": 0.1987929208333341,
          "durationTicks": 120,
          "midi": 60,
          "name": "C4",
          "ticks": 32401,
          "time": 53.67717396250002,
          "velocity": 0.33858267716535434
        },
        {
          "duration": 0.21267080208333766,
          "durationTicks": 120,
          "midi": 65,
          "name": "F4",
          "ticks": 32521,
          "time": 53.875966883333355,
          "velocity": 0.33858267716535434
        },
        {
          "duration": 1.6107379999999978,
          "durationTicks": 960,
          "midi": 43,
          "name": "G2",
          "ticks": 32641,
          "time": 54.08863768541669,
          "velocity": 0.4330708661417323
        },
        {
          "duration": 1.4093957499999945,
          "durationTicks": 840,
          "midi": 50,
          "name": "D3",
          "ticks": 32761,
          "time": 54.289979935416696,
          "velocity": 0.4015748031496063
        },
        {
          "duration": 0.20134225000000328,
          "durationTicks": 120,
          "midi": 55,
          "name": "G3",
          "ticks": 32881,
          "time": 54.49132218541669,
          "velocity": 0.3937007874015748
        },
        {
          "duration": 0.20134224999999617,
          "durationTicks": 120,
          "midi": 59,
          "name": "B3",
          "ticks": 33001,
          "time": 54.692664435416695,
          "velocity": 0.41732283464566927
        },
        {
          "duration": 0.18120802500000366,
          "durationTicks": 108,
          "midi": 65,
          "name": "F4",
          "ticks": 33121,
          "time": 54.89400668541669,
          "velocity": 0.4409448818897638
        },
        {
          "duration": 0.20134224999999617,
          "durationTicks": 120,
          "midi": 55,
          "name": "G3",
          "ticks": 33241,
          "time": 55.095348935416695,
          "velocity": 0.3543307086614173
        },
        {
          "duration": 0.20134225000000328,
          "durationTicks": 120,
          "midi": 59,
          "name": "B3",
          "ticks": 33361,
          "time": 55.29669118541669,
          "velocity": 0.33070866141732286
        },
        {
          "duration": 0.20134224999999617,
          "durationTicks": 120,
          "midi": 65,
          "name": "F4",
          "ticks": 33481,
          "time": 55.498033435416694,
          "velocity": 0.33070866141732286
        },
        {
          "duration": 1.6107842854166705,
          "durationTicks": 960,
          "midi": 43,
          "name": "G2",
          "ticks": 33601,
          "time": 55.69937568541669,
          "velocity": 0.4330708661417323
        },
        {
          "duration": 1.4094420354166672,
          "durationTicks": 840,
          "midi": 50,
          "name": "D3",
          "ticks": 33721,
          "time": 55.900717935416694,
          "velocity": 0.4015748031496063
        },
        {
          "duration": 0.20134225000000328,
          "durationTicks": 120,
          "midi": 55,
          "name": "G3",
          "ticks": 33841,
          "time": 56.10206018541669,
          "velocity": 0.3937007874015748
        },
        {
          "duration": 0.20134225000000328,
          "durationTicks": 120,
          "midi": 59,
          "name": "B3",
          "ticks": 33961,
          "time": 56.30340243541669,
          "velocity": 0.41732283464566927
        },
        {
          "duration": 0.18120802499999655,
          "durationTicks": 108,
          "midi": 65,
          "name": "F4",
          "ticks": 34081,
          "time": 56.504744685416696,
          "velocity": 0.4330708661417323
        },
        {
          "duration": 0.20134225000000328,
          "durationTicks": 120,
          "midi": 55,
          "name": "G3",
          "ticks": 34201,
          "time": 56.70608693541669,
          "velocity": 0.3543307086614173
        },
        {
          "duration": 0.20134224999999617,
          "durationTicks": 120,
          "midi": 59,
          "name": "B3",
          "ticks": 34321,
          "time": 56.907429185416696,
          "velocity": 0.33858267716535434
        },
        {
          "duration": 0.2013885354166689,
          "durationTicks": 120,
          "midi": 65,
          "name": "F4",
          "ticks": 34441,
          "time": 57.10877143541669,
          "velocity": 0.33858267716535434
        },
        {
          "duration": 1.6273889416666663,
          "durationTicks": 960,
          "midi": 48,
          "name": "C3",
          "ticks": 34561,
          "time": 57.31015997083336,
          "velocity": 0.4330708661417323
        },
        {
          "duration": 1.420492441666667,
          "durationTicks": 840,
          "midi": 52,
          "name": "E3",
          "ticks": 34681,
          "time": 57.51705647083336,
          "velocity": 0.4015748031496063
        },
        {
          "duration": 0.20685021458333352,
          "durationTicks": 120,
          "midi": 55,
          "name": "G3",
          "ticks": 34801,
          "time": 57.72395297083336,
          "velocity": 0.3937007874015748
        },
        {
          "duration": 0.20134225000000328,
          "durationTicks": 120,
          "midi": 60,
          "name": "C4",
          "ticks": 34921,
          "time": 57.93080318541669,
          "velocity": 0.41732283464566927
        },
        {
          "duration": 0.18120802499999655,
          "durationTicks": 108,
          "midi": 64,
          "name": "E4",
          "ticks": 35041,
          "time": 58.132145435416696,
          "velocity": 0.4409448818897638
        },
        {
          "duration": 0.20134225000000328,
          "durationTicks": 120,
          "midi": 55,
          "name": "G3",
          "ticks": 35161,
          "time": 58.33348768541669,
          "velocity": 0.3543307086614173
        },
        {
          "duration": 0.20134224999999617,
          "durationTicks": 120,
          "midi": 60,
          "name": "C4",
          "ticks": 35281,
          "time": 58.534829935416695,
          "velocity": 0.33070866141732286
        },
        {
          "duration": 0.20137672708333554,
          "durationTicks": 120,
          "midi": 64,
          "name": "E4",
          "ticks": 35401,
          "time": 58.73617218541669,
          "velocity": 0.33070866141732286
        },
        {
          "duration": 1.6163928375000012,
          "durationTicks": 960,
          "midi": 48,
          "name": "C3",
          "ticks": 35521,
          "time": 58.93754891250003,
          "velocity": 0.4330708661417323
        },
        {
          "duration": 1.4109133374999985,
          "durationTicks": 840,
          "midi": 52,
          "name": "E3",
          "ticks": 35641,
          "time": 59.14302841250003,
          "velocity": 0.4015748031496063
        },
        {
          "duration": 0.20543383750000288,
          "durationTicks": 120,
          "midi": 55,
          "name": "G3",
          "ticks": 35761,
          "time": 59.348507912500025,
          "velocity": 0.3937007874015748
        },
        {
          "duration": 0.20000000000000284,
          "durationTicks": 120,
          "midi": 60,
          "name": "C4",
          "ticks": 35881,
          "time": 59.55394175000003,
          "velocity": 0.41732283464566927
        },
        {
          "duration": 0.17999999999999972,
          "durationTicks": 108,
          "midi": 64,
          "name": "E4",
          "ticks": 36001,
          "time": 59.75394175000003,
          "velocity": 0.4330708661417323
        },
        {
          "duration": 0.20000000000000284,
          "durationTicks": 120,
          "midi": 55,
          "name": "G3",
          "ticks": 36121,
          "time": 59.95394175000003,
          "velocity": 0.3543307086614173
        },
        {
          "duration": 0.20000000000000284,
          "durationTicks": 120,
          "midi": 60,
          "name": "C4",
          "ticks": 36241,
          "time": 60.15394175000003,
          "velocity": 0.33858267716535434
        },
        {
          "duration": 0.19999999999999574,
          "durationTicks": 120,
          "midi": 64,
          "name": "E4",
          "ticks": 36361,
          "time": 60.35394175000003,
          "velocity": 0.33858267716535434
        },
        {
          "duration": 1.5908317499999995,
          "durationTicks": 960,
          "midi": 48,
          "name": "C3",
          "ticks": 36481,
          "time": 60.55394175000003,
          "velocity": 0.4015748031496063
        },
        {
          "duration": 1.3908317499999967,
          "durationTicks": 840,
          "midi": 55,
          "name": "G3",
          "ticks": 36601,
          "time": 60.75394175000003,
          "velocity": 0.3779527559055118
        },
        {
          "duration": 0.20000000000000284,
          "durationTicks": 120,
          "midi": 58,
          "name": "A#3",
          "ticks": 36721,
          "time": 60.95394175000003,
          "velocity": 0.3700787401574803
        },
        {
          "duration": 0.1999567104166644,
          "durationTicks": 120,
          "midi": 60,
          "name": "C4",
          "ticks": 36841,
          "time": 61.15394175000003,
          "velocity": 0.3937007874015748
        },
        {
          "duration": 0.17532472500000296,
          "durationTicks": 108,
          "midi": 64,
          "name": "E4",
          "ticks": 36961,
          "time": 61.353898460416694,
          "velocity": 0.41732283464566927
        },
        {
          "duration": 0.19867550000000023,
          "durationTicks": 120,
          "midi": 58,
          "name": "A#3",
          "ticks": 37081,
          "time": 61.548735962500025,
          "velocity": 0.3228346456692913
        },
        {
          "duration": 0.19867550000000023,
          "durationTicks": 120,
          "midi": 60,
          "name": "C4",
          "ticks": 37201,
          "time": 61.747411462500025,
          "velocity": 0.31496062992125984
        },
        {
          "duration": 0.1986865375000022,
          "durationTicks": 120,
          "midi": 64,
          "name": "E4",
          "ticks": 37321,
          "time": 61.946086962500026,
          "velocity": 0.31496062992125984
        },
        {
          "duration": 1.6137832499999973,
          "durationTicks": 960,
          "midi": 48,
          "name": "C3",
          "ticks": 37441,
          "time": 62.14477350000003,
          "velocity": 0.4094488188976378
        },
        {
          "duration": 1.4137832499999945,
          "durationTicks": 840,
          "midi": 55,
          "name": "G3",
          "ticks": 37561,
          "time": 62.34477350000003,
          "velocity": 0.3779527559055118
        },
        {
          "duration": 0.20000000000000284,
          "durationTicks": 120,
          "midi": 58,
          "name": "A#3",
          "ticks": 37681,
          "time": 62.544773500000026,
          "velocity": 0.3700787401574803
        },
        {
          "duration": 0.1999567104166644,
          "durationTicks": 120,
          "midi": 60,
          "name": "C4",
          "ticks": 37801,
          "time": 62.74477350000003,
          "velocity": 0.3937007874015748
        },
        {
          "duration": 0.17532472500000296,
          "durationTicks": 108,
          "midi": 64,
          "name": "E4",
          "ticks": 37921,
          "time": 62.944730210416694,
          "velocity": 0.4094488188976378
        },
        {
          "duration": 0.20000000000000284,
          "durationTicks": 120,
          "midi": 58,
          "name": "A#3",
          "ticks": 38041,
          "time": 63.13957875000003,
          "velocity": 0.33070866141732286
        },
        {
          "duration": 0.20015815000000003,
          "durationTicks": 120,
          "midi": 60,
          "name": "C4",
          "ticks": 38161,
          "time": 63.33957875000003,
          "velocity": 0.31496062992125984
        },
        {
          "duration": 0.2188198499999956,
          "durationTicks": 120,
          "midi": 64,
          "name": "E4",
          "ticks": 38281,
          "time": 63.53973690000003,
          "velocity": 0.31496062992125984
        },
        {
          "duration": 1.584313999999992,
          "durationTicks": 960,
          "midi": 41,
          "name": "F2",
          "ticks": 38401,
          "time": 63.758556750000025,
          "velocity": 0.4015748031496063
        },
        {
          "duration": 1.3843139999999892,
          "durationTicks": 840,
          "midi": 53,
          "name": "F3",
          "ticks": 38521,
          "time": 63.95855675000003,
          "velocity": 0.3779527559055118
        },
        {
          "duration": 0.20000000000000284,
          "durationTicks": 120,
          "midi": 57,
          "name": "A3",
          "ticks": 38641,
          "time": 64.15855675000003,
          "velocity": 0.3700787401574803
        },
        {
          "duration": 0.19996732083332347,
          "durationTicks": 120,
          "midi": 60,
          "name": "C4",
          "ticks": 38761,
          "time": 64.35855675000003,
          "velocity": 0.3937007874015748
        },
        {
          "duration": 0.17647064999999884,
          "durationTicks": 108,
          "midi": 64,
          "name": "E4",
          "ticks": 38881,
          "time": 64.55852407083336,
          "velocity": 0.41732283464566927
        },
        {
          "duration": 0.1960784999999987,
          "durationTicks": 120,
          "midi": 57,
          "name": "A3",
          "ticks": 39001,
          "time": 64.75460257083336,
          "velocity": 0.3228346456692913
        },
        {
          "duration": 0.1960784999999987,
          "durationTicks": 120,
          "midi": 60,
          "name": "C4",
          "ticks": 39121,
          "time": 64.95068107083335,
          "velocity": 0.31496062992125984
        },
        {
          "duration": 0.19611117916666387,
          "durationTicks": 120,
          "midi": 64,
          "name": "E4",
          "ticks": 39241,
          "time": 65.14675957083335,
          "velocity": 0.31496062992125984
        },
        {
          "duration": 1.6079667645833382,
          "durationTicks": 960,
          "midi": 41,
          "name": "F2",
          "ticks": 39361,
          "time": 65.34287075000002,
          "velocity": 0.4094488188976378
        },
        {
          "duration": 1.4079667645833354,
          "durationTicks": 840,
          "midi": 53,
          "name": "F3",
          "ticks": 39481,
          "time": 65.54287075000002,
          "velocity": 0.3779527559055118
        },
        {
          "duration": 0.20000000000000284,
          "durationTicks": 120,
          "midi": 57,
          "name": "A3",
          "ticks": 39601,
          "time": 65.74287075000002,
          "velocity": 0.3700787401574803
        },
        {
          "duration": 0.19997807083332475,
          "durationTicks": 120,
          "midi": 60,
          "name": "C4",
          "ticks": 39721,
          "time": 65.94287075000003,
          "velocity": 0.3937007874015748
        },
        {
          "duration": 0.17763164999999503,
          "durationTicks": 108,
          "midi": 64,
          "name": "E4",
          "ticks": 39841,
          "time": 66.14284882083335,
          "velocity": 0.4094488188976378
        },
        {
          "duration": 0.19736849999999606,
          "durationTicks": 120,
          "midi": 57,
          "name": "A3",
          "ticks": 39961,
          "time": 66.34021732083335,
          "velocity": 0.33070866141732286
        },
        {
          "duration": 0.1975223229166687,
          "durationTicks": 120,
          "midi": 60,
          "name": "C4",
          "ticks": 40081,
          "time": 66.53758582083334,
          "velocity": 0.31496062992125984
        },
        {
          "duration": 0.2157293708333441,
          "durationTicks": 120,
          "midi": 64,
          "name": "E4",
          "ticks": 40201,
          "time": 66.73510814375001,
          "velocity": 0.31496062992125984
        },
        {
          "duration": 1.621696,
          "durationTicks": 960,
          "midi": 42,
          "name": "F#2",
          "ticks": 40321,
          "time": 66.95083751458336,
          "velocity": 0.4330708661417323
        },
        {
          "duration": 1.4176142499999997,
          "durationTicks": 840,
          "midi": 48,
          "name": "C3",
          "ticks": 40441,
          "time": 67.15491926458336,
          "velocity": 0.4015748031496063
        },
        {
          "duration": 0.20408175000000028,
          "durationTicks": 120,
          "midi": 57,
          "name": "A3",
          "ticks": 40561,
          "time": 67.35900101458336,
          "velocity": 0.3937007874015748
        },
        {
          "duration": 0.204058920833333,
          "durationTicks": 120,
          "midi": 60,
          "name": "C4",
          "ticks": 40681,
          "time": 67.56308276458336,
          "velocity": 0.41732283464566927
        },
        {
          "duration": 0.18120802500000366,
          "durationTicks": 108,
          "midi": 63,
          "name": "D#4",
          "ticks": 40801,
          "time": 67.76714168541669,
          "velocity": 0.4409448818897638
        },
        {
          "duration": 0.20134225000001038,
          "durationTicks": 120,
          "midi": 57,
          "name": "A3",
          "ticks": 40921,
          "time": 67.96848393541669,
          "velocity": 0.3543307086614173
        },
        {
          "duration": 0.20134224999999617,
          "durationTicks": 120,
          "midi": 60,
          "name": "C4",
          "ticks": 41041,
          "time": 68.1698261854167,
          "velocity": 0.33070866141732286
        },
        {
          "duration": 0.20136507916666346,
          "durationTicks": 120,
          "midi": 63,
          "name": "D#4",
          "ticks": 41161,
          "time": 68.37116843541669,
          "velocity": 0.33070866141732286
        },
        {
          "duration": 1.6506460562499967,
          "durationTicks": 960,
          "midi": 42,
          "name": "F#2",
          "ticks": 41281,
          "time": 68.57253351458336,
          "velocity": 0.4330708661417323
        },
        {
          "duration": 1.4465643062499964,
          "durationTicks": 840,
          "midi": 48,
          "name": "C3",
          "ticks": 41401,
          "time": 68.77661526458336,
          "velocity": 0.4015748031496063
        },
        {
          "duration": 0.20408175000000028,
          "durationTicks": 120,
          "midi": 57,
          "name": "A3",
          "ticks": 41521,
          "time": 68.98069701458336,
          "velocity": 0.3937007874015748
        },
        {
          "duration": 0.20404773541666543,
          "durationTicks": 120,
          "midi": 60,
          "name": "C4",
          "ticks": 41641,
          "time": 69.18477876458336,
          "velocity": 0.41732283464566927
        },
        {
          "duration": 0.18000000000000682,
          "durationTicks": 108,
          "midi": 63,
          "name": "D#4",
          "ticks": 41761,
          "time": 69.38882650000002,
          "velocity": 0.4330708661417323
        },
        {
          "duration": 0.20000000000000284,
          "durationTicks": 120,
          "midi": 57,
          "name": "A3",
          "ticks": 41881,
          "time": 69.58882650000002,
          "velocity": 0.3543307086614173
        },
        {
          "duration": 0.20028645833332348,
          "durationTicks": 120,
          "midi": 60,
          "name": "C4",
          "ticks": 42001,
          "time": 69.78882650000003,
          "velocity": 0.33858267716535434
        },
        {
          "duration": 0.23406661250000127,
          "durationTicks": 120,
          "midi": 63,
          "name": "D#4",
          "ticks": 42121,
          "time": 69.98911295833335,
          "velocity": 0.33858267716535434
        },
        {
          "duration": 1.5769374999999854,
          "durationTicks": 960,
          "midi": 44,
          "name": "G#2",
          "ticks": 42241,
          "time": 70.22317957083335,
          "velocity": 0.4015748031496063
        },
        {
          "duration": 1.3795689999999894,
          "durationTicks": 840,
          "midi": 53,
          "name": "F3",
          "ticks": 42361,
          "time": 70.42054807083335,
          "velocity": 0.3779527559055118
        },
        {
          "duration": 0.19736850000001027,
          "durationTicks": 120,
          "midi": 59,
          "name": "B3",
          "ticks": 42481,
          "time": 70.61791657083334,
          "velocity": 0.3700787401574803
        },
        {
          "duration": 0.19736849999999606,
          "durationTicks": 120,
          "midi": 60,
          "name": "C4",
          "ticks": 42601,
          "time": 70.81528507083335,
          "velocity": 0.3937007874015748
        },
        {
          "duration": 0.17763164999999503,
          "durationTicks": 108,
          "midi": 62,
          "name": "D4",
          "ticks": 42721,
          "time": 71.01265357083335,
          "velocity": 0.41732283464566927
        },
        {
          "duration": 0.19230774999999767,
          "durationTicks": 120,
          "midi": 59,
          "name": "B3",
          "ticks": 42841,
          "time": 71.20997989791668,
          "velocity": 0.3228346456692913
        },
        {
          "duration": 0.192417514583326,
          "durationTicks": 120,
          "midi": 60,
          "name": "C4",
          "ticks": 42961,
          "time": 71.40228764791668,
          "velocity": 0.31496062992125984
        },
        {
          "duration": 0.2054119083333319,
          "durationTicks": 120,
          "midi": 62,
          "name": "D4",
          "ticks": 43081,
          "time": 71.5947051625,
          "velocity": 0.31496062992125984
        },
        {
          "duration": 1.5780771937499907,
          "durationTicks": 960,
          "midi": 44,
          "name": "G#2",
          "ticks": 43201,
          "time": 71.80011707083334,
          "velocity": 0.4094488188976378
        },
        {
          "duration": 1.3807086937499946,
          "durationTicks": 840,
          "midi": 53,
          "name": "F3",
          "ticks": 43321,
          "time": 71.99748557083333,
          "velocity": 0.3779527559055118
        },
        {
          "duration": 0.19736850000001027,
          "durationTicks": 120,
          "midi": 59,
          "name": "B3",
          "ticks": 43441,
          "time": 72.19485407083333,
          "velocity": 0.3700787401574803
        },
        {
          "duration": 0.19736849999999606,
          "durationTicks": 120,
          "midi": 60,
          "name": "C4",
          "ticks": 43561,
          "time": 72.39222257083334,
          "velocity": 0.3937007874015748
        },
        {
          "duration": 0.17763164999999503,
          "durationTicks": 108,
          "midi": 62,
          "name": "D4",
          "ticks": 43681,
          "time": 72.58959107083334,
          "velocity": 0.4094488188976378
        },
        {
          "duration": 0.19354850000000567,
          "durationTicks": 120,
          "midi": 59,
          "name": "B3",
          "ticks": 43801,
          "time": 72.7869277375,
          "velocity": 0.33070866141732286
        },
        {
          "duration": 0.19363627708332842,
          "durationTicks": 120,
          "midi": 60,
          "name": "C4",
          "ticks": 43921,
          "time": 72.9804762375,
          "velocity": 0.31496062992125984
        },
        {
          "duration": 0.20408175000000028,
          "durationTicks": 120,
          "midi": 62,
          "name": "D4",
          "ticks": 44041,
          "time": 73.17411251458333,
          "velocity": 0.31496062992125984
        },
        {
          "duration": 1.5990762583333265,
          "durationTicks": 960,
          "midi": 43,
          "name": "G2",
          "ticks": 44161,
          "time": 73.37819426458333,
          "velocity": 0.4330708661417323
        },
        {
          "duration": 1.3949945083333262,
          "durationTicks": 840,
          "midi": 53,
          "name": "F3",
          "ticks": 44281,
          "time": 73.58227601458333,
          "velocity": 0.4015748031496063
        },
        {
          "duration": 0.20402580625000155,
          "durationTicks": 120,
          "midi": 55,
          "name": "G3",
          "ticks": 44401,
          "time": 73.78635776458333,
          "velocity": 0.3937007874015748
        },
        {
          "duration": 0.19736849999999606,
          "durationTicks": 120,
          "midi": 59,
          "name": "B3",
          "ticks": 44521,
          "time": 73.99038357083333,
          "velocity": 0.41732283464566927
        },
        {
          "duration": 0.17763165000000924,
          "durationTicks": 108,
          "midi": 62,
          "name": "D4",
          "ticks": 44641,
          "time": 74.18775207083333,
          "velocity": 0.4409448818897638
        },
        {
          "duration": 0.19736850000001027,
          "durationTicks": 120,
          "midi": 55,
          "name": "G3",
          "ticks": 44761,
          "time": 74.38512057083332,
          "velocity": 0.3543307086614173
        },
        {
          "duration": 0.19736849999999606,
          "durationTicks": 120,
          "midi": 59,
          "name": "B3",
          "ticks": 44881,
          "time": 74.58248907083333,
          "velocity": 0.33070866141732286
        },
        {
          "duration": 0.19741295208332588,
          "durationTicks": 120,
          "midi": 62,
          "name": "D4",
          "ticks": 45001,
          "time": 74.77985757083333,
          "velocity": 0.33070866141732286
        },
        {
          "duration": 1.6059041624999963,
          "durationTicks": 960,
          "midi": 43,
          "name": "G2",
          "ticks": 45121,
          "time": 74.97727052291665,
          "velocity": 0.4330708661417323
        },
        {
          "duration": 1.403201412499996,
          "durationTicks": 840,
          "midi": 53,
          "name": "F3",
          "ticks": 45241,
          "time": 75.17997327291665,
          "velocity": 0.4015748031496063
        },
        {
          "duration": 0.20265829791667045,
          "durationTicks": 120,
          "midi": 55,
          "name": "G3",
          "ticks": 45361,
          "time": 75.38267602291666,
          "velocity": 0.3937007874015748
        },
        {
          "duration": 0.19736849999999606,
          "durationTicks": 120,
          "midi": 59,
          "name": "B3",
          "ticks": 45481,
          "time": 75.58533432083333,
          "velocity": 0.41732283464566927
        },
        {
          "duration": 0.17763165000000924,
          "durationTicks": 108,
          "midi": 62,
          "name": "D4",
          "ticks": 45601,
          "time": 75.78270282083332,
          "velocity": 0.4330708661417323
        },
        {
          "duration": 0.19736850000001027,
          "durationTicks": 120,
          "midi": 55,
          "name": "G3",
          "ticks": 45721,
          "time": 75.98007132083332,
          "velocity": 0.3543307086614173
        },
        {
          "duration": 0.19745987291666722,
          "durationTicks": 120,
          "midi": 59,
          "name": "B3",
          "ticks": 45841,
          "time": 76.17743982083333,
          "velocity": 0.33858267716535434
        },
        {
          "duration": 0.20827499166665575,
          "durationTicks": 120,
          "midi": 62,
          "name": "D4",
          "ticks": 45961,
          "time": 76.37489969375,
          "velocity": 0.33858267716535434
        },
        {
          "duration": 1.5948429999999973,
          "durationTicks": 960,
          "midi": 43,
          "name": "G2",
          "ticks": 46081,
          "time": 76.58317468541665,
          "velocity": 0.4330708661417323
        },
        {
          "duration": 1.3935007500000012,
          "durationTicks": 840,
          "midi": 52,
          "name": "E3",
          "ticks": 46201,
          "time": 76.78451693541665,
          "velocity": 0.4015748031496063
        },
        {
          "duration": 0.20134224999999617,
          "durationTicks": 120,
          "midi": 55,
          "name": "G3",
          "ticks": 46321,
          "time": 76.98585918541666,
          "velocity": 0.3937007874015748
        },
        {
          "duration": 0.20130913541666473,
          "durationTicks": 120,
          "midi": 60,
          "name": "C4",
          "ticks": 46441,
          "time": 77.18720143541665,
          "velocity": 0.41732283464566927
        },
        {
          "duration": 0.17763164999999503,
          "durationTicks": 108,
          "midi": 64,
          "name": "E4",
          "ticks": 46561,
          "time": 77.38851057083332,
          "velocity": 0.4409448818897638
        },
        {
          "duration": 0.19736849999999606,
          "durationTicks": 120,
          "midi": 55,
          "name": "G3",
          "ticks": 46681,
          "time": 77.58587907083331,
          "velocity": 0.3543307086614173
        },
        {
          "duration": 0.19736850000001027,
          "durationTicks": 120,
          "midi": 60,
          "name": "C4",
          "ticks": 46801,
          "time": 77.78324757083331,
          "velocity": 0.33070866141732286
        },
        {
          "duration": 0.1974016145833275,
          "durationTicks": 120,
          "midi": 64,
          "name": "E4",
          "ticks": 46921,
          "time": 77.98061607083332,
          "velocity": 0.33070866141732286
        },
        {
          "duration": 1.5896498854166623,
          "durationTicks": 960,
          "midi": 43,
          "name": "G2",
          "ticks": 47041,
          "time": 78.17801768541665,
          "velocity": 0.4330708661417323
        },
        {
          "duration": 1.3883076354166661,
          "durationTicks": 840,
          "midi": 52,
          "name": "E3",
          "ticks": 47161,
          "time": 78.37935993541664,
          "velocity": 0.4015748031496063
        },
        {
          "duration": 0.20134224999999617,
          "durationTicks": 120,
          "midi": 55,
          "name": "G3",
          "ticks": 47281,
          "time": 78.58070218541665,
          "velocity": 0.3937007874015748
        },
        {
          "duration": 0.20129838541666345,
          "durationTicks": 120,
          "midi": 60,
          "name": "C4",
          "ticks": 47401,
          "time": 78.78204443541665,
          "velocity": 0.41732283464566927
        },
        {
          "duration": 0.17647064999999884,
          "durationTicks": 108,
          "midi": 64,
          "name": "E4",
          "ticks": 47521,
          "time": 78.98334282083331,
          "velocity": 0.4330708661417323
        },
        {
          "duration": 0.1960784999999987,
          "durationTicks": 120,
          "midi": 55,
          "name": "G3",
          "ticks": 47641,
          "time": 79.17942132083331,
          "velocity": 0.3543307086614173
        },
        {
          "duration": 0.1960784999999987,
          "durationTicks": 120,
          "midi": 60,
          "name": "C4",
          "ticks": 47761,
          "time": 79.37549982083331,
          "velocity": 0.33858267716535434
        },
        {
          "duration": 0.19608925,
          "durationTicks": 120,
          "midi": 64,
          "name": "E4",
          "ticks": 47881,
          "time": 79.57157832083331,
          "velocity": 0.33858267716535434
        },
        {
          "duration": 1.5705234520833216,
          "durationTicks": 960,
          "midi": 43,
          "name": "G2",
          "ticks": 48001,
          "time": 79.76766757083331,
          "velocity": 0.44881889763779526
        },
        {
          "duration": 1.3731549520833255,
          "durationTicks": 840,
          "midi": 50,
          "name": "D3",
          "ticks": 48121,
          "time": 79.9650360708333,
          "velocity": 0.4330708661417323
        },
        {
          "duration": 0.19736850000001027,
          "durationTicks": 120,
          "midi": 55,
          "name": "G3",
          "ticks": 48241,
          "time": 80.1624045708333,
          "velocity": 0.41732283464566927
        },
        {
          "duration": 0.19732632708333142,
          "durationTicks": 120,
          "midi": 60,
          "name": "C4",
          "ticks": 48361,
          "time": 80.35977307083331,
          "velocity": 0.4409448818897638
        },
        {
          "duration": 0.17307697500000074,
          "durationTicks": 108,
          "midi": 65,
          "name": "F4",
          "ticks": 48481,
          "time": 80.55709939791664,
          "velocity": 0.47244094488188976
        },
        {
          "duration": 0.19230774999999767,
          "durationTicks": 120,
          "midi": 55,
          "name": "G3",
          "ticks": 48601,
          "time": 80.74940714791664,
          "velocity": 0.36220472440944884
        },
        {
          "duration": 0.19240586666666104,
          "durationTicks": 120,
          "midi": 60,
          "name": "C4",
          "ticks": 48721,
          "time": 80.94171489791664,
          "velocity": 0.3543307086614173
        },
        {
          "duration": 0.20407025833333137,
          "durationTicks": 120,
          "midi": 65,
          "name": "F4",
          "ticks": 48841,
          "time": 81.1341207645833,
          "velocity": 0.3543307086614173
        },
        {
          "duration": 1.5821981895833233,
          "durationTicks": 960,
          "midi": 43,
          "name": "G2",
          "ticks": 48961,
          "time": 81.33819102291663,
          "velocity": 0.4566929133858268
        },
        {
          "duration": 1.379528999999991,
          "durationTicks": 840,
          "midi": 50,
          "name": "D3",
          "ticks": 49081,
          "time": 81.54086021249996,
          "velocity": 0.4330708661417323
        },
        {
          "duration": 0.19867549999999312,
          "durationTicks": 120,
          "midi": 55,
          "name": "G3",
          "ticks": 49201,
          "time": 81.73953571249997,
          "velocity": 0.41732283464566927
        },
        {
          "duration": 0.19862243541666658,
          "durationTicks": 120,
          "midi": 60,
          "name": "C4",
          "ticks": 49321,
          "time": 81.93821121249997,
          "velocity": 0.4409448818897638
        },
        {
          "duration": 0.17307697500000074,
          "durationTicks": 108,
          "midi": 65,
          "name": "F4",
          "ticks": 49441,
          "time": 82.13683364791663,
          "velocity": 0.4566929133858268
        },
        {
          "duration": 0.19232856249999486,
          "durationTicks": 120,
          "midi": 55,
          "name": "G3",
          "ticks": 49561,
          "time": 82.32914139791663,
          "velocity": 0.3700787401574803
        },
        {
          "duration": 0.1948825541666679,
          "durationTicks": 120,
          "midi": 60,
          "name": "C4",
          "ticks": 49681,
          "time": 82.52146996041662,
          "velocity": 0.3543307086614173
        },
        {
          "duration": 0.20403669791666346,
          "durationTicks": 120,
          "midi": 65,
          "name": "F4",
          "ticks": 49801,
          "time": 82.71635251458329,
          "velocity": 0.3543307086614173
        },
        {
          "duration": 1.5739230000000077,
          "durationTicks": 960,
          "midi": 43,
          "name": "G2",
          "ticks": 49921,
          "time": 82.92038921249996,
          "velocity": 0.44881889763779526
        },
        {
          "duration": 1.3752475000000004,
          "durationTicks": 840,
          "midi": 50,
          "name": "D3",
          "ticks": 50041,
          "time": 83.11906471249996,
          "velocity": 0.4330708661417323
        },
        {
          "duration": 0.19867550000000733,
          "durationTicks": 120,
          "midi": 55,
          "name": "G3",
          "ticks": 50161,
          "time": 83.31774021249996,
          "velocity": 0.41732283464566927
        },
        {
          "duration": 0.19864324791666377,
          "durationTicks": 120,
          "midi": 59,
          "name": "B3",
          "ticks": 50281,
          "time": 83.51641571249996,
          "velocity": 0.4409448818897638
        },
        {
          "duration": 0.17532472499999585,
          "durationTicks": 108,
          "midi": 65,
          "name": "F4",
          "ticks": 50401,
          "time": 83.71505896041663,
          "velocity": 0.47244094488188976
        },
        {
          "duration": 0.1948052500000017,
          "durationTicks": 120,
          "midi": 55,
          "name": "G3",
          "ticks": 50521,
          "time": 83.90986421041663,
          "velocity": 0.36220472440944884
        },
        {
          "duration": 0.1948052500000017,
          "durationTicks": 120,
          "midi": 59,
          "name": "B3",
          "ticks": 50641,
          "time": 84.10466946041663,
          "velocity": 0.3543307086614173
        },
        {
          "duration": 0.19483750208333106,
          "durationTicks": 120,
          "midi": 65,
          "name": "F4",
          "ticks": 50761,
          "time": 84.29947471041663,
          "velocity": 0.3543307086614173
        },
        {
          "duration": 1.5845972500000016,
          "durationTicks": 960,
          "midi": 43,
          "name": "G2",
          "ticks": 50881,
          "time": 84.49431221249996,
          "velocity": 0.4566929133858268
        },
        {
          "duration": 1.3859217499999943,
          "durationTicks": 840,
          "midi": 50,
          "name": "D3",
          "ticks": 51001,
          "time": 84.69298771249997,
          "velocity": 0.4330708661417323
        },
        {
          "duration": 0.19867550000000733,
          "durationTicks": 120,
          "midi": 55,
          "name": "G3",
          "ticks": 51121,
          "time": 84.89166321249996,
          "velocity": 0.41732283464566927
        },
        {
          "duration": 0.19864324791666377,
          "durationTicks": 120,
          "midi": 59,
          "name": "B3",
          "ticks": 51241,
          "time": 85.09033871249997,
          "velocity": 0.4409448818897638
        },
        {
          "duration": 0.17532472499999585,
          "durationTicks": 108,
          "midi": 65,
          "name": "F4",
          "ticks": 51361,
          "time": 85.28898196041663,
          "velocity": 0.4566929133858268
        },
        {
          "duration": 0.1948052500000017,
          "durationTicks": 120,
          "midi": 55,
          "name": "G3",
          "ticks": 51481,
          "time": 85.48378721041664,
          "velocity": 0.3700787401574803
        },
        {
          "duration": 0.19489420208333286,
          "durationTicks": 120,
          "midi": 59,
          "name": "B3",
          "ticks": 51601,
          "time": 85.67859246041664,
          "velocity": 0.3543307086614173
        },
        {
          "duration": 0.2054227999999938,
          "durationTicks": 120,
          "midi": 65,
          "name": "F4",
          "ticks": 51721,
          "time": 85.87348666249997,
          "velocity": 0.3543307086614173
        },
        {
          "duration": 1.6056227499999949,
          "durationTicks": 960,
          "midi": 43,
          "name": "G2",
          "ticks": 51841,
          "time": 86.07890946249996,
          "velocity": 0.48031496062992124
        },
        {
          "duration": 1.4069472499999875,
          "durationTicks": 840,
          "midi": 51,
          "name": "D#3",
          "ticks": 51961,
          "time": 86.27758496249997,
          "velocity": 0.44881889763779526
        },
        {
          "duration": 0.19867550000000733,
          "durationTicks": 120,
          "midi": 57,
          "name": "A3",
          "ticks": 52081,
          "time": 86.47626046249997,
          "velocity": 0.4409448818897638
        },
        {
          "duration": 0.19867549999999312,
          "durationTicks": 120,
          "midi": 60,
          "name": "C4",
          "ticks": 52201,
          "time": 86.67493596249997,
          "velocity": 0.47244094488188976
        },
        {
          "duration": 0.1788079500000066,
          "durationTicks": 108,
          "midi": 66,
          "name": "F#4",
          "ticks": 52321,
          "time": 86.87361146249997,
          "velocity": 0.49606299212598426
        },
        {
          "duration": 0.20408175000000028,
          "durationTicks": 120,
          "midi": 57,
          "name": "A3",
          "ticks": 52441,
          "time": 87.0723320145833,
          "velocity": 0.3937007874015748
        },
        {
          "duration": 0.20408175000000028,
          "durationTicks": 120,
          "midi": 60,
          "name": "C4",
          "ticks": 52561,
          "time": 87.2764137645833,
          "velocity": 0.3700787401574803
        },
        {
          "duration": 0.20403669791666346,
          "durationTicks": 120,
          "midi": 66,
          "name": "F#4",
          "ticks": 52681,
          "time": 87.4804955145833,
          "velocity": 0.3700787401574803
        },
        {
          "duration": 1.6218578354166766,
          "durationTicks": 960,
          "midi": 43,
          "name": "G2",
          "ticks": 52801,
          "time": 87.68453221249996,
          "velocity": 0.4881889763779528
        },
        {
          "duration": 1.4231823354166693,
          "durationTicks": 840,
          "midi": 51,
          "name": "D#3",
          "ticks": 52921,
          "time": 87.88320771249997,
          "velocity": 0.44881889763779526
        },
        {
          "duration": 0.19867550000000733,
          "durationTicks": 120,
          "midi": 57,
          "name": "A3",
          "ticks": 53041,
          "time": 88.08188321249996,
          "velocity": 0.4409448818897638
        },
        {
          "duration": 0.19867549999999312,
          "durationTicks": 120,
          "midi": 60,
          "name": "C4",
          "ticks": 53161,
          "time": 88.28055871249997,
          "velocity": 0.47244094488188976
        },
        {
          "duration": 0.1788079500000066,
          "durationTicks": 108,
          "midi": 66,
          "name": "F#4",
          "ticks": 53281,
          "time": 88.47923421249996,
          "velocity": 0.4881889763779528
        },
        {
          "duration": 0.2054794999999956,
          "durationTicks": 120,
          "midi": 57,
          "name": "A3",
          "ticks": 53401,
          "time": 88.67796641249996,
          "velocity": 0.3937007874015748
        },
        {
          "duration": 0.20557876458335045,
          "durationTicks": 120,
          "midi": 60,
          "name": "C4",
          "ticks": 53521,
          "time": 88.88344591249995,
          "velocity": 0.3779527559055118
        },
        {
          "duration": 0.21736537083333474,
          "durationTicks": 120,
          "midi": 66,
          "name": "F#4",
          "ticks": 53641,
          "time": 89.0890246770833,
          "velocity": 0.3779527559055118
        },
        {
          "duration": 1.6428197875000023,
          "durationTicks": 960,
          "midi": 43,
          "name": "G2",
          "ticks": 53761,
          "time": 89.30639004791664,
          "velocity": 0.5118110236220472
        },
        {
          "duration": 1.4285340375000004,
          "durationTicks": 840,
          "midi": 52,
          "name": "E3",
          "ticks": 53881,
          "time": 89.52067579791664,
          "velocity": 0.47244094488188976
        },
        {
          "duration": 0.21416670208333244,
          "durationTicks": 120,
          "midi": 55,
          "name": "G3",
          "ticks": 54001,
          "time": 89.73496154791664,
          "velocity": 0.4566929133858268
        },
        {
          "duration": 0.20000000000000284,
          "durationTicks": 120,
          "midi": 60,
          "name": "C4",
          "ticks": 54121,
          "time": 89.94912824999997,
          "velocity": 0.49606299212598426
        },
        {
          "duration": 0.1799999999999926,
          "durationTicks": 108,
          "midi": 67,
          "name": "G4",
          "ticks": 54241,
          "time": 90.14912824999998,
          "velocity": 0.5196850393700787
        },
        {
          "duration": 0.20000000000000284,
          "durationTicks": 120,
          "midi": 55,
          "name": "G3",
          "ticks": 54361,
          "time": 90.34912824999998,
          "velocity": 0.4015748031496063
        },
        {
          "duration": 0.19999999999998863,
          "durationTicks": 120,
          "midi": 60,
          "name": "C4",
          "ticks": 54481,
          "time": 90.54912824999998,
          "velocity": 0.3937007874015748
        },
        {
          "duration": 0.20008158541666887,
          "durationTicks": 120,
          "midi": 67,
          "name": "G4",
          "ticks": 54601,
          "time": 90.74912824999997,
          "velocity": 0.3937007874015748
        },
        {
          "duration": 1.6435749145833398,
          "durationTicks": 960,
          "midi": 43,
          "name": "G2",
          "ticks": 54721,
          "time": 90.94920983541664,
          "velocity": 0.5118110236220472
        },
        {
          "duration": 1.4337846645833423,
          "durationTicks": 840,
          "midi": 52,
          "name": "E3",
          "ticks": 54841,
          "time": 91.15900008541664,
          "velocity": 0.47244094488188976
        },
        {
          "duration": 0.20970866458333148,
          "durationTicks": 120,
          "midi": 55,
          "name": "G3",
          "ticks": 54961,
          "time": 91.36879033541665,
          "velocity": 0.4566929133858268
        },
        {
          "duration": 0.20000000000000284,
          "durationTicks": 120,
          "midi": 60,
          "name": "C4",
          "ticks": 55081,
          "time": 91.57849899999998,
          "velocity": 0.4881889763779528
        },
        {
          "duration": 0.1799999999999926,
          "durationTicks": 108,
          "midi": 67,
          "name": "G4",
          "ticks": 55201,
          "time": 91.77849899999998,
          "velocity": 0.5118110236220472
        },
        {
          "duration": 0.20000000000000284,
          "durationTicks": 120,
          "midi": 55,
          "name": "G3",
          "ticks": 55321,
          "time": 91.97849899999999,
          "velocity": 0.4094488188976378
        },
        {
          "duration": 0.20011904791665813,
          "durationTicks": 120,
          "midi": 60,
          "name": "C4",
          "ticks": 55441,
          "time": 92.17849899999999,
          "velocity": 0.3937007874015748
        },
        {
          "duration": 0.21416670208333244,
          "durationTicks": 120,
          "midi": 67,
          "name": "G4",
          "ticks": 55561,
          "time": 92.37861804791665,
          "velocity": 0.3937007874015748
        },
        {
          "duration": 1.5882354999999961,
          "durationTicks": 960,
          "midi": 43,
          "name": "G2",
          "ticks": 55681,
          "time": 92.59278474999998,
          "velocity": 0.4330708661417323
        },
        {
          "duration": 1.3882354999999933,
          "durationTicks": 840,
          "midi": 50,
          "name": "D3",
          "ticks": 55801,
          "time": 92.79278474999998,
          "velocity": 0.4015748031496063
        },
        {
          "duration": 0.20000000000000284,
          "durationTicks": 120,
          "midi": 55,
          "name": "G3",
          "ticks": 55921,
          "time": 92.99278474999998,
          "velocity": 0.3937007874015748
        },
        {
          "duration": 0.19999999999998863,
          "durationTicks": 120,
          "midi": 60,
          "name": "C4",
          "ticks": 56041,
          "time": 93.19278474999999,
          "velocity": 0.41732283464566927
        },
        {
          "duration": 0.18000000000000682,
          "durationTicks": 108,
          "midi": 65,
          "name": "F4",
          "ticks": 56161,
          "time": 93.39278474999998,
          "velocity": 0.4409448818897638
        },
        {
          "duration": 0.1960784999999987,
          "durationTicks": 120,
          "midi": 55,
          "name": "G3",
          "ticks": 56281,
          "time": 93.59275207083331,
          "velocity": 0.3543307086614173
        },
        {
          "duration": 0.1960784999999987,
          "durationTicks": 120,
          "midi": 60,
          "name": "C4",
          "ticks": 56401,
          "time": 93.78883057083331,
          "velocity": 0.33070866141732286
        },
        {
          "duration": 0.19611117916666387,
          "durationTicks": 120,
          "midi": 65,
          "name": "F4",
          "ticks": 56521,
          "time": 93.98490907083331,
          "velocity": 0.33070866141732286
        },
        {
          "duration": 1.588341883333328,
          "durationTicks": 960,
          "midi": 43,
          "name": "G2",
          "ticks": 56641,
          "time": 94.18102024999997,
          "velocity": 0.4330708661417323
        },
        {
          "duration": 1.3883418833333252,
          "durationTicks": 840,
          "midi": 50,
          "name": "D3",
          "ticks": 56761,
          "time": 94.38102024999998,
          "velocity": 0.4015748031496063
        },
        {
          "duration": 0.20000000000000284,
          "durationTicks": 120,
          "midi": 55,
          "name": "G3",
          "ticks": 56881,
          "time": 94.58102024999998,
          "velocity": 0.3937007874015748
        },
        {
          "duration": 0.19999999999998863,
          "durationTicks": 120,
          "midi": 60,
          "name": "C4",
          "ticks": 57001,
          "time": 94.78102024999998,
          "velocity": 0.41732283464566927
        },
        {
          "duration": 0.18000000000000682,
          "durationTicks": 108,
          "midi": 65,
          "name": "F4",
          "ticks": 57121,
          "time": 94.98102024999997,
          "velocity": 0.4330708661417323
        },
        {
          "duration": 0.1960784999999987,
          "durationTicks": 120,
          "midi": 55,
          "name": "G3",
          "ticks": 57241,
          "time": 95.18098757083331,
          "velocity": 0.3543307086614173
        },
        {
          "duration": 0.1960784999999987,
          "durationTicks": 120,
          "midi": 60,
          "name": "C4",
          "ticks": 57361,
          "time": 95.37706607083331,
          "velocity": 0.33858267716535434
        },
        {
          "duration": 0.19621756249999578,
          "durationTicks": 120,
          "midi": 65,
          "name": "F4",
          "ticks": 57481,
          "time": 95.5731445708333,
          "velocity": 0.33858267716535434
        },
        {
          "duration": 1.6127412020833418,
          "durationTicks": 960,
          "midi": 43,
          "name": "G2",
          "ticks": 57601,
          "time": 95.7693621333333,
          "velocity": 0.4330708661417323
        },
        {
          "duration": 1.4000815854166717,
          "durationTicks": 840,
          "midi": 50,
          "name": "D3",
          "ticks": 57721,
          "time": 95.98202174999997,
          "velocity": 0.4015748031496063
        },
        {
          "duration": 0.20000000000000284,
          "durationTicks": 120,
          "midi": 55,
          "name": "G3",
          "ticks": 57841,
          "time": 96.18202174999998,
          "velocity": 0.3937007874015748
        },
        {
          "duration": 0.20000000000000284,
          "durationTicks": 120,
          "midi": 59,
          "name": "B3",
          "ticks": 57961,
          "time": 96.38202174999998,
          "velocity": 0.41732283464566927
        },
        {
          "duration": 0.1799999999999926,
          "durationTicks": 108,
          "midi": 65,
          "name": "F4",
          "ticks": 58081,
          "time": 96.58202174999998,
          "velocity": 0.4409448818897638
        },
        {
          "duration": 0.20000000000000284,
          "durationTicks": 120,
          "midi": 55,
          "name": "G3",
          "ticks": 58201,
          "time": 96.78202174999997,
          "velocity": 0.3543307086614173
        },
        {
          "duration": 0.20000000000000284,
          "durationTicks": 120,
          "midi": 59,
          "name": "B3",
          "ticks": 58321,
          "time": 96.98202174999997,
          "velocity": 0.33070866141732286
        },
        {
          "duration": 0.20008158541666887,
          "durationTicks": 120,
          "midi": 65,
          "name": "F4",
          "ticks": 58441,
          "time": 97.18202174999998,
          "velocity": 0.33070866141732286
        },
        {
          "duration": 1.619138429166668,
          "durationTicks": 960,
          "midi": 43,
          "name": "G2",
          "ticks": 58561,
          "time": 97.38210333541664,
          "velocity": 0.4330708661417323
        },
        {
          "duration": 1.409418579166669,
          "durationTicks": 840,
          "midi": 50,
          "name": "D3",
          "ticks": 58681,
          "time": 97.59182318541664,
          "velocity": 0.4015748031496063
        },
        {
          "duration": 0.20134225000001038,
          "durationTicks": 120,
          "midi": 55,
          "name": "G3",
          "ticks": 58801,
          "time": 97.79316543541664,
          "velocity": 0.3937007874015748
        },
        {
          "duration": 0.20134224999999617,
          "durationTicks": 120,
          "midi": 59,
          "name": "B3",
          "ticks": 58921,
          "time": 97.99450768541665,
          "velocity": 0.41732283464566927
        },
        {
          "duration": 0.18120802500000366,
          "durationTicks": 108,
          "midi": 65,
          "name": "F4",
          "ticks": 59041,
          "time": 98.19584993541665,
          "velocity": 0.4330708661417323
        },
        {
          "duration": 0.20134224999999617,
          "durationTicks": 120,
          "midi": 55,
          "name": "G3",
          "ticks": 59161,
          "time": 98.39719218541664,
          "velocity": 0.3543307086614173
        },
        {
          "duration": 0.20134225000001038,
          "durationTicks": 120,
          "midi": 59,
          "name": "B3",
          "ticks": 59281,
          "time": 98.59853443541664,
          "velocity": 0.33858267716535434
        },
        {
          "duration": 0.20136507916666346,
          "durationTicks": 120,
          "midi": 65,
          "name": "F4",
          "ticks": 59401,
          "time": 98.79987668541665,
          "velocity": 0.33858267716535434
        },
        {
          "duration": 1.6331197500000059,
          "durationTicks": 960,
          "midi": 36,
          "name": "C2",
          "ticks": 59521,
          "time": 99.00124176458331,
          "velocity": 0.44881889763779526
        },
        {
          "duration": 1.4290380000000056,
          "durationTicks": 840,
          "midi": 48,
          "name": "C3",
          "ticks": 59641,
          "time": 99.20532351458331,
          "velocity": 0.4330708661417323
        },
        {
          "duration": 0.20408175000000028,
          "durationTicks": 120,
          "midi": 55,
          "name": "G3",
          "ticks": 59761,
          "time": 99.40940526458331,
          "velocity": 0.41732283464566927
        },
        {
          "duration": 0.204058920833333,
          "durationTicks": 120,
          "midi": 58,
          "name": "A#3",
          "ticks": 59881,
          "time": 99.61348701458331,
          "velocity": 0.4409448818897638
        },
        {
          "duration": 0.18120802500000366,
          "durationTicks": 108,
          "midi": 64,
          "name": "E4",
          "ticks": 60001,
          "time": 99.81754593541665,
          "velocity": 0.47244094488188976
        },
        {
          "duration": 0.20134225000001038,
          "durationTicks": 120,
          "midi": 55,
          "name": "G3",
          "ticks": 60121,
          "time": 100.01888818541664,
          "velocity": 0.36220472440944884
        },
        {
          "duration": 0.20143744791666052,
          "durationTicks": 120,
          "midi": 58,
          "name": "A#3",
          "ticks": 60241,
          "time": 100.22023043541665,
          "velocity": 0.3543307086614173
        },
        {
          "duration": 0.21269363125000496,
          "durationTicks": 120,
          "midi": 64,
          "name": "E4",
          "ticks": 60361,
          "time": 100.42166788333331,
          "velocity": 0.3543307086614173
        },
        {
          "duration": 1.6301440000000014,
          "durationTicks": 960,
          "midi": 36,
          "name": "C2",
          "ticks": 60481,
          "time": 100.63436151458332,
          "velocity": 0.4566929133858268
        },
        {
          "duration": 1.426062250000001,
          "durationTicks": 840,
          "midi": 48,
          "name": "C3",
          "ticks": 60601,
          "time": 100.83844326458332,
          "velocity": 0.4330708661417323
        },
        {
          "duration": 0.20408175000000028,
          "durationTicks": 120,
          "midi": 55,
          "name": "G3",
          "ticks": 60721,
          "time": 101.04252501458332,
          "velocity": 0.41732283464566927
        },
        {
          "duration": 0.204058920833333,
          "durationTicks": 120,
          "midi": 58,
          "name": "A#3",
          "ticks": 60841,
          "time": 101.24660676458332,
          "velocity": 0.4409448818897638
        },
        {
          "duration": 0.18120802500000366,
          "durationTicks": 108,
          "midi": 64,
          "name": "E4",
          "ticks": 60961,
          "time": 101.45066568541665,
          "velocity": 0.4566929133858268
        },
        {
          "duration": 0.20134225000001038,
          "durationTicks": 120,
          "midi": 55,
          "name": "G3",
          "ticks": 61081,
          "time": 101.65200793541665,
          "velocity": 0.3700787401574803
        },
        {
          "duration": 0.20141264999999464,
          "durationTicks": 120,
          "midi": 58,
          "name": "A#3",
          "ticks": 61201,
          "time": 101.85335018541666,
          "velocity": 0.3543307086614173
        },
        {
          "duration": 0.20974267916666633,
          "durationTicks": 120,
          "midi": 64,
          "name": "E4",
          "ticks": 61321,
          "time": 102.05476283541665,
          "velocity": 0.3543307086614173
        },
        {
          "duration": 3.332615922916659,
          "durationTicks": 1920,
          "midi": 36,
          "name": "C2",
          "ticks": 61441,
          "time": 102.26450551458332,
          "velocity": 0.4330708661417323
        },
        {
          "duration": 3.128474291666663,
          "durationTicks": 1800,
          "midi": 48,
          "name": "C3",
          "ticks": 61560,
          "time": 102.46688658333332,
          "velocity": 0.4015748031496063
        },
        {
          "duration": 0.20408175000000028,
          "durationTicks": 120,
          "midi": 53,
          "name": "F3",
          "ticks": 61680,
          "time": 102.67096833333332,
          "velocity": 0.3937007874015748
        },
        {
          "duration": 0.19867549999999312,
          "durationTicks": 120,
          "midi": 57,
          "name": "A3",
          "ticks": 61800,
          "time": 102.87505008333332,
          "velocity": 0.41732283464566927
        },
        {
          "duration": 0.19957654166668704,
          "durationTicks": 120,
          "midi": 60,
          "name": "C4",
          "ticks": 61920,
          "time": 103.07372558333331,
          "velocity": 0.4330708661417323
        },
        {
          "duration": 0.20408175000000028,
          "durationTicks": 120,
          "midi": 65,
          "name": "F4",
          "ticks": 62040,
          "time": 103.273302125,
          "velocity": 0.41732283464566927
        },
        {
          "duration": 0.20408175000000028,
          "durationTicks": 120,
          "midi": 60,
          "name": "C4",
          "ticks": 62160,
          "time": 103.477383875,
          "velocity": 0.41732283464566927
        },
        {
          "duration": 0.20408174999998607,
          "durationTicks": 120,
          "midi": 57,
          "name": "A3",
          "ticks": 62280,
          "time": 103.681465625,
          "velocity": 0.41732283464566927
        },
        {
          "duration": 0.19736849999999606,
          "durationTicks": 120,
          "midi": 60,
          "name": "C4",
          "ticks": 62400,
          "time": 103.88554737499999,
          "velocity": 0.4330708661417323
        },
        {
          "duration": 0.20408175000000028,
          "durationTicks": 120,
          "midi": 57,
          "name": "A3",
          "ticks": 62520,
          "time": 104.08291587499998,
          "velocity": 0.3937007874015748
        },
        {
          "duration": 0.20408175000000028,
          "durationTicks": 120,
          "midi": 53,
          "name": "F3",
          "ticks": 62640,
          "time": 104.28699762499998,
          "velocity": 0.3700787401574803
        },
        {
          "duration": 0.20408175000000028,
          "durationTicks": 120,
          "midi": 57,
          "name": "A3",
          "ticks": 62760,
          "time": 104.49107937499998,
          "velocity": 0.36220472440944884
        },
        {
          "duration": 0.21126750000000527,
          "durationTicks": 120,
          "midi": 53,
          "name": "F3",
          "ticks": 62880,
          "time": 104.69516112499998,
          "velocity": 0.36220472440944884
        },
        {
          "duration": 0.21126749999999106,
          "durationTicks": 120,
          "midi": 50,
          "name": "D3",
          "ticks": 63000,
          "time": 104.90642862499999,
          "velocity": 0.33070866141732286
        },
        {
          "duration": 0.22556400000000565,
          "durationTicks": 120,
          "midi": 53,
          "name": "F3",
          "ticks": 63120,
          "time": 105.11769612499998,
          "velocity": 0.33858267716535434
        },
        {
          "duration": 0.25210074999999676,
          "durationTicks": 120,
          "midi": 50,
          "name": "D3",
          "ticks": 63240,
          "time": 105.34326012499999,
          "velocity": 0.2992125984251969
        },
        {
          "duration": 4.042304399999992,
          "durationTicks": 1920,
          "midi": 36,
          "name": "C2",
          "ticks": 63361,
          "time": 105.59712143749998,
          "velocity": 0.4330708661417323
        },
        {
          "duration": 3.8288292083333175,
          "durationTicks": 1800,
          "midi": 50,
          "name": "D3",
          "ticks": 63480,
          "time": 105.80662837499999,
          "velocity": 0.4015748031496063
        },
        {
          "duration": 0.21126750000000527,
          "durationTicks": 120,
          "midi": 67,
          "name": "G4",
          "ticks": 63600,
          "time": 106.01789587499998,
          "velocity": 0.3937007874015748
        },
        {
          "duration": 0.21126750000000527,
          "durationTicks": 120,
          "midi": 71,
          "name": "B4",
          "ticks": 63720,
          "time": 106.22916337499998,
          "velocity": 0.41732283464566927
        },
        {
          "duration": 0.21126749999999106,
          "durationTicks": 120,
          "midi": 74,
          "name": "D5",
          "ticks": 63840,
          "time": 106.44043087499999,
          "velocity": 0.4330708661417323
        },
        {
          "duration": 0.21126750000000527,
          "durationTicks": 120,
          "midi": 77,
          "name": "F5",
          "ticks": 63960,
          "time": 106.65169837499998,
          "velocity": 0.47244094488188976
        },
        {
          "duration": 0.21126749999999106,
          "durationTicks": 120,
          "midi": 74,
          "name": "D5",
          "ticks": 64080,
          "time": 106.86296587499999,
          "velocity": 0.4330708661417323
        },
        {
          "duration": 0.21126750000000527,
          "durationTicks": 120,
          "midi": 71,
          "name": "B4",
          "ticks": 64200,
          "time": 107.07423337499998,
          "velocity": 0.41732283464566927
        },
        {
          "duration": 0.23622050000000172,
          "durationTicks": 120,
          "midi": 74,
          "name": "D5",
          "ticks": 64320,
          "time": 107.28550087499998,
          "velocity": 0.4409448818897638
        },
        {
          "duration": 0.23622050000000172,
          "durationTicks": 120,
          "midi": 71,
          "name": "B4",
          "ticks": 64440,
          "time": 107.52172137499998,
          "velocity": 0.41732283464566927
        },
        {
          "duration": 0.23622050000000172,
          "durationTicks": 120,
          "midi": 67,
          "name": "G4",
          "ticks": 64560,
          "time": 107.75794187499999,
          "velocity": 0.4409448818897638
        },
        {
          "duration": 0.23622050000000172,
          "durationTicks": 120,
          "midi": 71,
          "name": "B4",
          "ticks": 64680,
          "time": 107.99416237499999,
          "velocity": 0.41732283464566927
        },
        {
          "duration": 0.2836123749999899,
          "durationTicks": 120,
          "midi": 62,
          "name": "D4",
          "ticks": 64800,
          "time": 108.23038287499999,
          "velocity": 0.4330708661417323
        },
        {
          "duration": 0.30789483333332157,
          "durationTicks": 120,
          "midi": 65,
          "name": "F4",
          "ticks": 64920,
          "time": 108.51399524999998,
          "velocity": 0.3937007874015748
        },
        {
          "duration": 0.3373770000000036,
          "durationTicks": 120,
          "midi": 64,
          "name": "E4",
          "ticks": 65040,
          "time": 108.8218900833333,
          "velocity": 0.3937007874015748
        },
        {
          "duration": 0.4761905000000013,
          "durationTicks": 120,
          "midi": 62,
          "name": "D4",
          "ticks": 65160,
          "time": 109.1592670833333,
          "velocity": 0.3937007874015748
        },
        {
          "duration": 5.714286000000001,
          "durationTicks": 1440,
          "midi": 36,
          "name": "C2",
          "ticks": 65281,
          "time": 109.63942583749997,
          "velocity": 0.41732283464566927
        },
        {
          "duration": 5.714286000000001,
          "durationTicks": 1440,
          "midi": 48,
          "name": "C3",
          "ticks": 65281,
          "time": 109.63942583749997,
          "velocity": 0.41732283464566927
        },
        {
          "duration": 5.714286000000001,
          "durationTicks": 1440,
          "midi": 64,
          "name": "E4",
          "ticks": 65281,
          "time": 109.63942583749997,
          "velocity": 0.3937007874015748
        },
        {
          "duration": 5.714286000000001,
          "durationTicks": 1440,
          "midi": 67,
          "name": "G4",
          "ticks": 65281,
          "time": 109.63942583749997,
          "velocity": 0.3937007874015748
        },
        {
          "duration": 5.714286000000001,
          "durationTicks": 1440,
          "midi": 72,
          "name": "C5",
          "ticks": 65281,
          "time": 109.63942583749997,
          "velocity": 0.3937007874015748
        }
      ],
      "endOfTrackTicks": 86400
    }
  ]
}

const mid3 = {
  "header": {
    "keySignatures": [
      {
        "key": "C",
        "scale": "major",
        "ticks": 0
      }
    ],
    "meta": [],
    "name": "RXRS",
    "ppq": 480,
    "tempos": [
      {
        "bpm": 75,
        "ticks": 0
      }
    ],
    "timeSignatures": [
      {
        "ticks": 0,
        "timeSignature": [
          4,
          4
        ],
        "measures": 0
      }
    ]
  },
  "tracks": [
    {
      "channel": 0,
      "controlChanges": {
        "7": [
          {
            "number": 7,
            "ticks": 0,
            "time": 0,
            "value": 1
          },
          {
            "number": 7,
            "ticks": 0,
            "time": 0,
            "value": 0.7874015748031497
          },
          {
            "number": 7,
            "ticks": 0,
            "time": 0,
            "value": 0.9448818897637795
          },
          {
            "number": 7,
            "ticks": 0,
            "time": 0,
            "value": 0.5511811023622047
          },
          {
            "number": 7,
            "ticks": 0,
            "time": 0,
            "value": 0.6299212598425197
          },
          {
            "number": 7,
            "ticks": 0,
            "time": 0,
            "value": 0.47244094488188976
          },
          {
            "number": 7,
            "ticks": 0,
            "time": 0,
            "value": 0.47244094488188976
          },
          {
            "number": 7,
            "ticks": 21120,
            "time": 35.2,
            "value": 0.47244094488188976
          }
        ],
        "10": [
          {
            "number": 10,
            "ticks": 0,
            "time": 0,
            "value": 0.5039370078740157
          },
          {
            "number": 10,
            "ticks": 0,
            "time": 0,
            "value": 0.5039370078740157
          },
          {
            "number": 10,
            "ticks": 0,
            "time": 0,
            "value": 0.5039370078740157
          },
          {
            "number": 10,
            "ticks": 0,
            "time": 0,
            "value": 0.31496062992125984
          },
          {
            "number": 10,
            "ticks": 0,
            "time": 0,
            "value": 0.5511811023622047
          },
          {
            "number": 10,
            "ticks": 0,
            "time": 0,
            "value": 0.5039370078740157
          },
          {
            "number": 10,
            "ticks": 0,
            "time": 0,
            "value": 0.5039370078740157
          },
          {
            "number": 10,
            "ticks": 21120,
            "time": 35.2,
            "value": 0.5039370078740157
          }
        ]
      },
      "pitchBends": [],
      "instrument": {
        "family": "brass",
        "number": 56,
        "name": "trumpet"
      },
      "name": "",
      "notes": [
        {
          "duration": 0.4,
          "durationTicks": 240,
          "midi": 83,
          "name": "B5",
          "ticks": 0,
          "time": 0,
          "velocity": 0.9448818897637795
        },
        {
          "duration": 0.4,
          "durationTicks": 240,
          "midi": 81,
          "name": "A5",
          "ticks": 240,
          "time": 0.4,
          "velocity": 0.9448818897637795
        },
        {
          "duration": 0.19999999999999996,
          "durationTicks": 120,
          "midi": 43,
          "name": "G2",
          "ticks": 480,
          "time": 0.8,
          "velocity": 0.7874015748031497
        },
        {
          "duration": 0.09999999999999998,
          "durationTicks": 60,
          "midi": 62,
          "name": "D4",
          "ticks": 480,
          "time": 0.8,
          "velocity": 0.7874015748031497
        },
        {
          "duration": 0.30000000000000004,
          "durationTicks": 180,
          "midi": 62,
          "name": "D4",
          "ticks": 480,
          "time": 0.8,
          "velocity": 0.7874015748031497
        },
        {
          "duration": 0.09999999999999998,
          "durationTicks": 60,
          "midi": 67,
          "name": "G4",
          "ticks": 480,
          "time": 0.8,
          "velocity": 0.7874015748031497
        },
        {
          "duration": 0.30000000000000004,
          "durationTicks": 180,
          "midi": 67,
          "name": "G4",
          "ticks": 480,
          "time": 0.8,
          "velocity": 0.7874015748031497
        },
        {
          "duration": 0.40000000000000013,
          "durationTicks": 240,
          "midi": 79,
          "name": "G5",
          "ticks": 480,
          "time": 0.8,
          "velocity": 0.9448818897637795
        },
        {
          "duration": 0.8,
          "durationTicks": 480,
          "midi": 79,
          "name": "G5",
          "ticks": 480,
          "time": 0.8,
          "velocity": 0.6299212598425197
        },
        {
          "duration": 0.20000000000000018,
          "durationTicks": 120,
          "midi": 43,
          "name": "G2",
          "ticks": 600,
          "time": 1,
          "velocity": 0.7874015748031497
        },
        {
          "duration": 0.20000000000000018,
          "durationTicks": 120,
          "midi": 62,
          "name": "D4",
          "ticks": 600,
          "time": 1,
          "velocity": 0.7874015748031497
        },
        {
          "duration": 0.20000000000000018,
          "durationTicks": 120,
          "midi": 67,
          "name": "G4",
          "ticks": 600,
          "time": 1,
          "velocity": 0.7874015748031497
        },
        {
          "duration": 0.19999999999999996,
          "durationTicks": 120,
          "midi": 43,
          "name": "G2",
          "ticks": 720,
          "time": 1.2000000000000002,
          "velocity": 0.7874015748031497
        },
        {
          "duration": 0.3999999999999999,
          "durationTicks": 240,
          "midi": 59,
          "name": "B3",
          "ticks": 720,
          "time": 1.2000000000000002,
          "velocity": 0.7874015748031497
        },
        {
          "duration": 0.09999999999999987,
          "durationTicks": 60,
          "midi": 62,
          "name": "D4",
          "ticks": 720,
          "time": 1.2000000000000002,
          "velocity": 0.7874015748031497
        },
        {
          "duration": 0.09999999999999987,
          "durationTicks": 60,
          "midi": 67,
          "name": "G4",
          "ticks": 720,
          "time": 1.2000000000000002,
          "velocity": 0.7874015748031497
        },
        {
          "duration": 1.2000000000000002,
          "durationTicks": 720,
          "midi": 79,
          "name": "G5",
          "ticks": 720,
          "time": 1.2000000000000002,
          "velocity": 0.9448818897637795
        },
        {
          "duration": 0.19999999999999996,
          "durationTicks": 120,
          "midi": 43,
          "name": "G2",
          "ticks": 840,
          "time": 1.4000000000000001,
          "velocity": 0.7874015748031497
        },
        {
          "duration": 0.09999999999999987,
          "durationTicks": 60,
          "midi": 62,
          "name": "D4",
          "ticks": 840,
          "time": 1.4000000000000001,
          "velocity": 0.7874015748031497
        },
        {
          "duration": 0.09999999999999987,
          "durationTicks": 60,
          "midi": 67,
          "name": "G4",
          "ticks": 840,
          "time": 1.4000000000000001,
          "velocity": 0.7874015748031497
        },
        {
          "duration": 0.19999999999999996,
          "durationTicks": 120,
          "midi": 43,
          "name": "G2",
          "ticks": 960,
          "time": 1.6,
          "velocity": 0.7874015748031497
        },
        {
          "duration": 0.30000000000000004,
          "durationTicks": 180,
          "midi": 62,
          "name": "D4",
          "ticks": 960,
          "time": 1.6,
          "velocity": 0.7874015748031497
        },
        {
          "duration": 0.3999999999999999,
          "durationTicks": 240,
          "midi": 62,
          "name": "D4",
          "ticks": 960,
          "time": 1.6,
          "velocity": 0.7874015748031497
        },
        {
          "duration": 0.30000000000000004,
          "durationTicks": 180,
          "midi": 67,
          "name": "G4",
          "ticks": 960,
          "time": 1.6,
          "velocity": 0.7874015748031497
        },
        {
          "duration": 0.3999999999999999,
          "durationTicks": 240,
          "midi": 67,
          "name": "G4",
          "ticks": 960,
          "time": 1.6,
          "velocity": 0.7874015748031497
        },
        {
          "duration": 0.3999999999999999,
          "durationTicks": 240,
          "midi": 81,
          "name": "A5",
          "ticks": 960,
          "time": 1.6,
          "velocity": 0.9448818897637795
        },
        {
          "duration": 0.19999999999999996,
          "durationTicks": 120,
          "midi": 43,
          "name": "G2",
          "ticks": 1080,
          "time": 1.8,
          "velocity": 0.7874015748031497
        },
        {
          "duration": 0.20000000000000018,
          "durationTicks": 120,
          "midi": 43,
          "name": "G2",
          "ticks": 1200,
          "time": 2,
          "velocity": 0.7874015748031497
        },
        {
          "duration": 0.40000000000000036,
          "durationTicks": 240,
          "midi": 59,
          "name": "B3",
          "ticks": 1200,
          "time": 2,
          "velocity": 0.7874015748031497
        },
        {
          "duration": 0.10000000000000009,
          "durationTicks": 60,
          "midi": 62,
          "name": "D4",
          "ticks": 1200,
          "time": 2,
          "velocity": 0.7874015748031497
        },
        {
          "duration": 0.10000000000000009,
          "durationTicks": 60,
          "midi": 67,
          "name": "G4",
          "ticks": 1200,
          "time": 2,
          "velocity": 0.7874015748031497
        },
        {
          "duration": 0.40000000000000036,
          "durationTicks": 240,
          "midi": 83,
          "name": "B5",
          "ticks": 1200,
          "time": 2,
          "velocity": 0.9448818897637795
        },
        {
          "duration": 0.20000000000000018,
          "durationTicks": 120,
          "midi": 43,
          "name": "G2",
          "ticks": 1320,
          "time": 2.2,
          "velocity": 0.7874015748031497
        },
        {
          "duration": 0.10000000000000009,
          "durationTicks": 60,
          "midi": 62,
          "name": "D4",
          "ticks": 1320,
          "time": 2.2,
          "velocity": 0.7874015748031497
        },
        {
          "duration": 0.10000000000000009,
          "durationTicks": 60,
          "midi": 67,
          "name": "G4",
          "ticks": 1320,
          "time": 2.2,
          "velocity": 0.7874015748031497
        },
        {
          "duration": 0.19999999999999973,
          "durationTicks": 120,
          "midi": 50,
          "name": "D3",
          "ticks": 1440,
          "time": 2.4000000000000004,
          "velocity": 0.7874015748031497
        },
        {
          "duration": 0.19999999999999973,
          "durationTicks": 120,
          "midi": 62,
          "name": "D4",
          "ticks": 1440,
          "time": 2.4000000000000004,
          "velocity": 0.7874015748031497
        },
        {
          "duration": 0.2999999999999998,
          "durationTicks": 180,
          "midi": 62,
          "name": "D4",
          "ticks": 1440,
          "time": 2.4000000000000004,
          "velocity": 0.7874015748031497
        },
        {
          "duration": 0.2999999999999998,
          "durationTicks": 180,
          "midi": 66,
          "name": "F#4",
          "ticks": 1440,
          "time": 2.4000000000000004,
          "velocity": 0.7874015748031497
        },
        {
          "duration": 0.19999999999999973,
          "durationTicks": 120,
          "midi": 69,
          "name": "A4",
          "ticks": 1440,
          "time": 2.4000000000000004,
          "velocity": 0.7874015748031497
        },
        {
          "duration": 0.7999999999999998,
          "durationTicks": 480,
          "midi": 78,
          "name": "F#5",
          "ticks": 1440,
          "time": 2.4000000000000004,
          "velocity": 0.6299212598425197
        },
        {
          "duration": 0.3999999999999999,
          "durationTicks": 240,
          "midi": 86,
          "name": "D6",
          "ticks": 1440,
          "time": 2.4000000000000004,
          "velocity": 0.9448818897637795
        },
        {
          "duration": 0.20000000000000018,
          "durationTicks": 120,
          "midi": 50,
          "name": "D3",
          "ticks": 1560,
          "time": 2.6,
          "velocity": 0.7874015748031497
        },
        {
          "duration": 0.30000000000000027,
          "durationTicks": 180,
          "midi": 62,
          "name": "D4",
          "ticks": 1560,
          "time": 2.6,
          "velocity": 0.7874015748031497
        },
        {
          "duration": 0.6000000000000001,
          "durationTicks": 360,
          "midi": 69,
          "name": "A4",
          "ticks": 1560,
          "time": 2.6,
          "velocity": 0.7874015748031497
        },
        {
          "duration": 0.19999999999999973,
          "durationTicks": 120,
          "midi": 50,
          "name": "D3",
          "ticks": 1680,
          "time": 2.8000000000000003,
          "velocity": 0.7874015748031497
        },
        {
          "duration": 0.2999999999999998,
          "durationTicks": 180,
          "midi": 62,
          "name": "D4",
          "ticks": 1680,
          "time": 2.8000000000000003,
          "velocity": 0.7874015748031497
        },
        {
          "duration": 0.10000000000000009,
          "durationTicks": 60,
          "midi": 66,
          "name": "F#4",
          "ticks": 1680,
          "time": 2.8000000000000003,
          "velocity": 0.7874015748031497
        },
        {
          "duration": 0.20000000000000018,
          "durationTicks": 120,
          "midi": 50,
          "name": "D3",
          "ticks": 1800,
          "time": 3,
          "velocity": 0.7874015748031497
        },
        {
          "duration": 0.20000000000000018,
          "durationTicks": 120,
          "midi": 62,
          "name": "D4",
          "ticks": 1800,
          "time": 3,
          "velocity": 0.7874015748031497
        },
        {
          "duration": 0.10000000000000009,
          "durationTicks": 60,
          "midi": 66,
          "name": "F#4",
          "ticks": 1800,
          "time": 3,
          "velocity": 0.7874015748031497
        },
        {
          "duration": 0.20000000000000018,
          "durationTicks": 120,
          "midi": 50,
          "name": "D3",
          "ticks": 1920,
          "time": 3.2,
          "velocity": 0.7874015748031497
        },
        {
          "duration": 0.2999999999999998,
          "durationTicks": 180,
          "midi": 62,
          "name": "D4",
          "ticks": 1920,
          "time": 3.2,
          "velocity": 0.7874015748031497
        },
        {
          "duration": 0.3999999999999999,
          "durationTicks": 240,
          "midi": 62,
          "name": "D4",
          "ticks": 1920,
          "time": 3.2,
          "velocity": 0.7874015748031497
        },
        {
          "duration": 0.2999999999999998,
          "durationTicks": 180,
          "midi": 66,
          "name": "F#4",
          "ticks": 1920,
          "time": 3.2,
          "velocity": 0.7874015748031497
        },
        {
          "duration": 0.3999999999999999,
          "durationTicks": 240,
          "midi": 71,
          "name": "B4",
          "ticks": 1920,
          "time": 3.2,
          "velocity": 0.7874015748031497
        },
        {
          "duration": 0.7999999999999998,
          "durationTicks": 480,
          "midi": 79,
          "name": "G5",
          "ticks": 1920,
          "time": 3.2,
          "velocity": 0.6299212598425197
        },
        {
          "duration": 0.3999999999999999,
          "durationTicks": 240,
          "midi": 83,
          "name": "B5",
          "ticks": 1920,
          "time": 3.2,
          "velocity": 0.9448818897637795
        },
        {
          "duration": 0.19999999999999973,
          "durationTicks": 120,
          "midi": 50,
          "name": "D3",
          "ticks": 2040,
          "time": 3.4000000000000004,
          "velocity": 0.7874015748031497
        },
        {
          "duration": 0.20000000000000018,
          "durationTicks": 120,
          "midi": 50,
          "name": "D3",
          "ticks": 2160,
          "time": 3.6,
          "velocity": 0.7874015748031497
        },
        {
          "duration": 0.10000000000000009,
          "durationTicks": 60,
          "midi": 62,
          "name": "D4",
          "ticks": 2160,
          "time": 3.6,
          "velocity": 0.7874015748031497
        },
        {
          "duration": 0.10000000000000009,
          "durationTicks": 60,
          "midi": 66,
          "name": "F#4",
          "ticks": 2160,
          "time": 3.6,
          "velocity": 0.7874015748031497
        },
        {
          "duration": 0.3999999999999999,
          "durationTicks": 240,
          "midi": 74,
          "name": "D5",
          "ticks": 2160,
          "time": 3.6,
          "velocity": 0.7874015748031497
        },
        {
          "duration": 0.3999999999999999,
          "durationTicks": 240,
          "midi": 86,
          "name": "D6",
          "ticks": 2160,
          "time": 3.6,
          "velocity": 0.9448818897637795
        },
        {
          "duration": 0.19999999999999973,
          "durationTicks": 120,
          "midi": 50,
          "name": "D3",
          "ticks": 2280,
          "time": 3.8000000000000003,
          "velocity": 0.7874015748031497
        },
        {
          "duration": 0.10000000000000009,
          "durationTicks": 60,
          "midi": 62,
          "name": "D4",
          "ticks": 2280,
          "time": 3.8000000000000003,
          "velocity": 0.7874015748031497
        },
        {
          "duration": 0.10000000000000009,
          "durationTicks": 60,
          "midi": 66,
          "name": "F#4",
          "ticks": 2280,
          "time": 3.8000000000000003,
          "velocity": 0.7874015748031497
        },
        {
          "duration": 0.20000000000000018,
          "durationTicks": 120,
          "midi": 45,
          "name": "A2",
          "ticks": 2400,
          "time": 4,
          "velocity": 0.7874015748031497
        },
        {
          "duration": 0.2999999999999998,
          "durationTicks": 180,
          "midi": 57,
          "name": "A3",
          "ticks": 2400,
          "time": 4,
          "velocity": 0.7874015748031497
        },
        {
          "duration": 0.40000000000000036,
          "durationTicks": 240,
          "midi": 62,
          "name": "D4",
          "ticks": 2400,
          "time": 4,
          "velocity": 0.7874015748031497
        },
        {
          "duration": 0.2999999999999998,
          "durationTicks": 180,
          "midi": 64,
          "name": "E4",
          "ticks": 2400,
          "time": 4,
          "velocity": 0.7874015748031497
        },
        {
          "duration": 0.40000000000000036,
          "durationTicks": 240,
          "midi": 69,
          "name": "A4",
          "ticks": 2400,
          "time": 4,
          "velocity": 0.7874015748031497
        },
        {
          "duration": 1.6000000000000005,
          "durationTicks": 960,
          "midi": 76,
          "name": "E5",
          "ticks": 2400,
          "time": 4,
          "velocity": 0.6299212598425197
        },
        {
          "duration": 0.40000000000000036,
          "durationTicks": 240,
          "midi": 88,
          "name": "E6",
          "ticks": 2400,
          "time": 4,
          "velocity": 0.9448818897637795
        },
        {
          "duration": 0.20000000000000018,
          "durationTicks": 120,
          "midi": 45,
          "name": "A2",
          "ticks": 2520,
          "time": 4.2,
          "velocity": 0.7874015748031497
        },
        {
          "duration": 0.20000000000000018,
          "durationTicks": 120,
          "midi": 45,
          "name": "A2",
          "ticks": 2640,
          "time": 4.4,
          "velocity": 0.7874015748031497
        },
        {
          "duration": 0.09999999999999964,
          "durationTicks": 60,
          "midi": 57,
          "name": "A3",
          "ticks": 2640,
          "time": 4.4,
          "velocity": 0.7874015748031497
        },
        {
          "duration": 0.40000000000000036,
          "durationTicks": 240,
          "midi": 59,
          "name": "B3",
          "ticks": 2640,
          "time": 4.4,
          "velocity": 0.7874015748031497
        },
        {
          "duration": 0.09999999999999964,
          "durationTicks": 60,
          "midi": 64,
          "name": "E4",
          "ticks": 2640,
          "time": 4.4,
          "velocity": 0.7874015748031497
        },
        {
          "duration": 0.40000000000000036,
          "durationTicks": 240,
          "midi": 90,
          "name": "F#6",
          "ticks": 2640,
          "time": 4.4,
          "velocity": 0.9448818897637795
        },
        {
          "duration": 0.20000000000000018,
          "durationTicks": 120,
          "midi": 45,
          "name": "A2",
          "ticks": 2760,
          "time": 4.6000000000000005,
          "velocity": 0.7874015748031497
        },
        {
          "duration": 0.09999999999999964,
          "durationTicks": 60,
          "midi": 57,
          "name": "A3",
          "ticks": 2760,
          "time": 4.6000000000000005,
          "velocity": 0.7874015748031497
        },
        {
          "duration": 0.09999999999999964,
          "durationTicks": 60,
          "midi": 64,
          "name": "E4",
          "ticks": 2760,
          "time": 4.6000000000000005,
          "velocity": 0.7874015748031497
        },
        {
          "duration": 0.1999999999999993,
          "durationTicks": 120,
          "midi": 45,
          "name": "A2",
          "ticks": 2880,
          "time": 4.800000000000001,
          "velocity": 0.7874015748031497
        },
        {
          "duration": 0.2999999999999998,
          "durationTicks": 180,
          "midi": 57,
          "name": "A3",
          "ticks": 2880,
          "time": 4.800000000000001,
          "velocity": 0.7874015748031497
        },
        {
          "duration": 0.39999999999999947,
          "durationTicks": 240,
          "midi": 62,
          "name": "D4",
          "ticks": 2880,
          "time": 4.800000000000001,
          "velocity": 0.7874015748031497
        },
        {
          "duration": 0.2999999999999998,
          "durationTicks": 180,
          "midi": 64,
          "name": "E4",
          "ticks": 2880,
          "time": 4.800000000000001,
          "velocity": 0.7874015748031497
        },
        {
          "duration": 0.39999999999999947,
          "durationTicks": 240,
          "midi": 69,
          "name": "A4",
          "ticks": 2880,
          "time": 4.800000000000001,
          "velocity": 0.7874015748031497
        },
        {
          "duration": 0.39999999999999947,
          "durationTicks": 240,
          "midi": 88,
          "name": "E6",
          "ticks": 2880,
          "time": 4.800000000000001,
          "velocity": 0.9448818897637795
        },
        {
          "duration": 0.20000000000000018,
          "durationTicks": 120,
          "midi": 45,
          "name": "A2",
          "ticks": 3000,
          "time": 5,
          "velocity": 0.7874015748031497
        },
        {
          "duration": 0.20000000000000018,
          "durationTicks": 120,
          "midi": 45,
          "name": "A2",
          "ticks": 3120,
          "time": 5.2,
          "velocity": 0.7874015748031497
        },
        {
          "duration": 0.10000000000000053,
          "durationTicks": 60,
          "midi": 57,
          "name": "A3",
          "ticks": 3120,
          "time": 5.2,
          "velocity": 0.7874015748031497
        },
        {
          "duration": 0.40000000000000036,
          "durationTicks": 240,
          "midi": 60,
          "name": "C4",
          "ticks": 3120,
          "time": 5.2,
          "velocity": 0.7874015748031497
        },
        {
          "duration": 0.10000000000000053,
          "durationTicks": 60,
          "midi": 64,
          "name": "E4",
          "ticks": 3120,
          "time": 5.2,
          "velocity": 0.7874015748031497
        },
        {
          "duration": 0.40000000000000036,
          "durationTicks": 240,
          "midi": 86,
          "name": "D6",
          "ticks": 3120,
          "time": 5.2,
          "velocity": 0.9448818897637795
        },
        {
          "duration": 0.20000000000000018,
          "durationTicks": 120,
          "midi": 45,
          "name": "A2",
          "ticks": 3240,
          "time": 5.4,
          "velocity": 0.7874015748031497
        },
        {
          "duration": 0.09999999999999964,
          "durationTicks": 60,
          "midi": 57,
          "name": "A3",
          "ticks": 3240,
          "time": 5.4,
          "velocity": 0.7874015748031497
        },
        {
          "duration": 0.09999999999999964,
          "durationTicks": 60,
          "midi": 64,
          "name": "E4",
          "ticks": 3240,
          "time": 5.4,
          "velocity": 0.7874015748031497
        },
        {
          "duration": 0.20000000000000018,
          "durationTicks": 120,
          "midi": 52,
          "name": "E3",
          "ticks": 3360,
          "time": 5.6000000000000005,
          "velocity": 0.7874015748031497
        },
        {
          "duration": 0.2999999999999998,
          "durationTicks": 180,
          "midi": 52,
          "name": "E3",
          "ticks": 3360,
          "time": 5.6000000000000005,
          "velocity": 0.7874015748031497
        },
        {
          "duration": 0.2999999999999998,
          "durationTicks": 180,
          "midi": 59,
          "name": "B3",
          "ticks": 3360,
          "time": 5.6000000000000005,
          "velocity": 0.7874015748031497
        },
        {
          "duration": 0.39999999999999947,
          "durationTicks": 240,
          "midi": 62,
          "name": "D4",
          "ticks": 3360,
          "time": 5.6000000000000005,
          "velocity": 0.7874015748031497
        },
        {
          "duration": 0.39999999999999947,
          "durationTicks": 240,
          "midi": 67,
          "name": "G4",
          "ticks": 3360,
          "time": 5.6000000000000005,
          "velocity": 0.7874015748031497
        },
        {
          "duration": 2,
          "durationTicks": 1200,
          "midi": 71,
          "name": "B4",
          "ticks": 3360,
          "time": 5.6000000000000005,
          "velocity": 0.6299212598425197
        },
        {
          "duration": 0.39999999999999947,
          "durationTicks": 240,
          "midi": 83,
          "name": "B5",
          "ticks": 3360,
          "time": 5.6000000000000005,
          "velocity": 0.9448818897637795
        },
        {
          "duration": 0.1999999999999993,
          "durationTicks": 120,
          "midi": 52,
          "name": "E3",
          "ticks": 3480,
          "time": 5.800000000000001,
          "velocity": 0.7874015748031497
        },
        {
          "duration": 0.10000000000000053,
          "durationTicks": 60,
          "midi": 52,
          "name": "E3",
          "ticks": 3600,
          "time": 6,
          "velocity": 0.7874015748031497
        },
        {
          "duration": 0.20000000000000018,
          "durationTicks": 120,
          "midi": 52,
          "name": "E3",
          "ticks": 3600,
          "time": 6,
          "velocity": 0.7874015748031497
        },
        {
          "duration": 0.10000000000000053,
          "durationTicks": 60,
          "midi": 59,
          "name": "B3",
          "ticks": 3600,
          "time": 6,
          "velocity": 0.7874015748031497
        },
        {
          "duration": 0.3000000000000007,
          "durationTicks": 180,
          "midi": 59,
          "name": "B3",
          "ticks": 3600,
          "time": 6,
          "velocity": 0.7874015748031497
        },
        {
          "duration": 0.10000000000000053,
          "durationTicks": 60,
          "midi": 52,
          "name": "E3",
          "ticks": 3720,
          "time": 6.2,
          "velocity": 0.7874015748031497
        },
        {
          "duration": 0.20000000000000018,
          "durationTicks": 120,
          "midi": 52,
          "name": "E3",
          "ticks": 3720,
          "time": 6.2,
          "velocity": 0.7874015748031497
        },
        {
          "duration": 0.20000000000000018,
          "durationTicks": 120,
          "midi": 59,
          "name": "B3",
          "ticks": 3720,
          "time": 6.2,
          "velocity": 0.7874015748031497
        },
        {
          "duration": 0.20000000000000018,
          "durationTicks": 120,
          "midi": 52,
          "name": "E3",
          "ticks": 3840,
          "time": 6.4,
          "velocity": 0.7874015748031497
        },
        {
          "duration": 0.40000000000000036,
          "durationTicks": 240,
          "midi": 52,
          "name": "E3",
          "ticks": 3840,
          "time": 6.4,
          "velocity": 0.7874015748031497
        },
        {
          "duration": 0.40000000000000036,
          "durationTicks": 240,
          "midi": 59,
          "name": "B3",
          "ticks": 3840,
          "time": 6.4,
          "velocity": 0.7874015748031497
        },
        {
          "duration": 0.40000000000000036,
          "durationTicks": 240,
          "midi": 62,
          "name": "D4",
          "ticks": 3840,
          "time": 6.4,
          "velocity": 0.7874015748031497
        },
        {
          "duration": 0.40000000000000036,
          "durationTicks": 240,
          "midi": 67,
          "name": "G4",
          "ticks": 3840,
          "time": 6.4,
          "velocity": 0.7874015748031497
        },
        {
          "duration": 0.40000000000000036,
          "durationTicks": 240,
          "midi": 79,
          "name": "G5",
          "ticks": 3840,
          "time": 6.4,
          "velocity": 0.9448818897637795
        },
        {
          "duration": 0.20000000000000018,
          "durationTicks": 120,
          "midi": 52,
          "name": "E3",
          "ticks": 3960,
          "time": 6.6000000000000005,
          "velocity": 0.7874015748031497
        },
        {
          "duration": 0.1999999999999993,
          "durationTicks": 120,
          "midi": 52,
          "name": "E3",
          "ticks": 4080,
          "time": 6.800000000000001,
          "velocity": 0.7874015748031497
        },
        {
          "duration": 0.39999999999999947,
          "durationTicks": 240,
          "midi": 54,
          "name": "F#3",
          "ticks": 4080,
          "time": 6.800000000000001,
          "velocity": 0.7874015748031497
        },
        {
          "duration": 0.39999999999999947,
          "durationTicks": 240,
          "midi": 59,
          "name": "B3",
          "ticks": 4080,
          "time": 6.800000000000001,
          "velocity": 0.7874015748031497
        },
        {
          "duration": 0.39999999999999947,
          "durationTicks": 240,
          "midi": 62,
          "name": "D4",
          "ticks": 4080,
          "time": 6.800000000000001,
          "velocity": 0.7874015748031497
        },
        {
          "duration": 0.39999999999999947,
          "durationTicks": 240,
          "midi": 81,
          "name": "A5",
          "ticks": 4080,
          "time": 6.800000000000001,
          "velocity": 0.9448818897637795
        },
        {
          "duration": 0.20000000000000018,
          "durationTicks": 120,
          "midi": 52,
          "name": "E3",
          "ticks": 4200,
          "time": 7,
          "velocity": 0.7874015748031497
        },
        {
          "duration": 0.20000000000000018,
          "durationTicks": 120,
          "midi": 43,
          "name": "G2",
          "ticks": 4320,
          "time": 7.2,
          "velocity": 0.7874015748031497
        },
        {
          "duration": 0.2999999999999998,
          "durationTicks": 180,
          "midi": 55,
          "name": "G3",
          "ticks": 4320,
          "time": 7.2,
          "velocity": 0.7874015748031497
        },
        {
          "duration": 0.2999999999999998,
          "durationTicks": 180,
          "midi": 62,
          "name": "D4",
          "ticks": 4320,
          "time": 7.2,
          "velocity": 0.7874015748031497
        },
        {
          "duration": 0.40000000000000036,
          "durationTicks": 240,
          "midi": 67,
          "name": "G4",
          "ticks": 4320,
          "time": 7.2,
          "velocity": 0.7874015748031497
        },
        {
          "duration": 0.7999999999999998,
          "durationTicks": 480,
          "midi": 71,
          "name": "B4",
          "ticks": 4320,
          "time": 7.2,
          "velocity": 0.7874015748031497
        },
        {
          "duration": 0.40000000000000036,
          "durationTicks": 240,
          "midi": 83,
          "name": "B5",
          "ticks": 4320,
          "time": 7.2,
          "velocity": 0.9448818897637795
        },
        {
          "duration": 0.20000000000000018,
          "durationTicks": 120,
          "midi": 43,
          "name": "G2",
          "ticks": 4440,
          "time": 7.4,
          "velocity": 0.7874015748031497
        },
        {
          "duration": 0.20000000000000018,
          "durationTicks": 120,
          "midi": 43,
          "name": "G2",
          "ticks": 4560,
          "time": 7.6000000000000005,
          "velocity": 0.7874015748031497
        },
        {
          "duration": 0.09999999999999964,
          "durationTicks": 60,
          "midi": 55,
          "name": "G3",
          "ticks": 4560,
          "time": 7.6000000000000005,
          "velocity": 0.7874015748031497
        },
        {
          "duration": 0.09999999999999964,
          "durationTicks": 60,
          "midi": 62,
          "name": "D4",
          "ticks": 4560,
          "time": 7.6000000000000005,
          "velocity": 0.7874015748031497
        },
        {
          "duration": 0.39999999999999947,
          "durationTicks": 240,
          "midi": 67,
          "name": "G4",
          "ticks": 4560,
          "time": 7.6000000000000005,
          "velocity": 0.7874015748031497
        },
        {
          "duration": 0.39999999999999947,
          "durationTicks": 240,
          "midi": 71,
          "name": "B4",
          "ticks": 4560,
          "time": 7.6000000000000005,
          "velocity": 0.7874015748031497
        },
        {
          "duration": 0.1999999999999993,
          "durationTicks": 120,
          "midi": 43,
          "name": "G2",
          "ticks": 4680,
          "time": 7.800000000000001,
          "velocity": 0.7874015748031497
        },
        {
          "duration": 0.09999999999999964,
          "durationTicks": 60,
          "midi": 55,
          "name": "G3",
          "ticks": 4680,
          "time": 7.800000000000001,
          "velocity": 0.7874015748031497
        },
        {
          "duration": 0.09999999999999964,
          "durationTicks": 60,
          "midi": 62,
          "name": "D4",
          "ticks": 4680,
          "time": 7.800000000000001,
          "velocity": 0.7874015748031497
        },
        {
          "duration": 0.20000000000000107,
          "durationTicks": 120,
          "midi": 43,
          "name": "G2",
          "ticks": 4800,
          "time": 8,
          "velocity": 0.7874015748031497
        },
        {
          "duration": 0.3000000000000007,
          "durationTicks": 180,
          "midi": 55,
          "name": "G3",
          "ticks": 4800,
          "time": 8,
          "velocity": 0.7874015748031497
        },
        {
          "duration": 0.3000000000000007,
          "durationTicks": 180,
          "midi": 62,
          "name": "D4",
          "ticks": 4800,
          "time": 8,
          "velocity": 0.7874015748031497
        },
        {
          "duration": 0.20000000000000107,
          "durationTicks": 120,
          "midi": 67,
          "name": "G4",
          "ticks": 4800,
          "time": 8,
          "velocity": 0.7874015748031497
        },
        {
          "duration": 0.20000000000000107,
          "durationTicks": 120,
          "midi": 71,
          "name": "B4",
          "ticks": 4800,
          "time": 8,
          "velocity": 0.6299212598425197
        },
        {
          "duration": 0.8000000000000007,
          "durationTicks": 480,
          "midi": 71,
          "name": "B4",
          "ticks": 4800,
          "time": 8,
          "velocity": 0.7874015748031497
        },
        {
          "duration": 0.20000000000000107,
          "durationTicks": 120,
          "midi": 83,
          "name": "B5",
          "ticks": 4800,
          "time": 8,
          "velocity": 0.9448818897637795
        },
        {
          "duration": 0.1999999999999993,
          "durationTicks": 120,
          "midi": 43,
          "name": "G2",
          "ticks": 4920,
          "time": 8.200000000000001,
          "velocity": 0.7874015748031497
        },
        {
          "duration": 0.5999999999999996,
          "durationTicks": 360,
          "midi": 67,
          "name": "G4",
          "ticks": 4920,
          "time": 8.200000000000001,
          "velocity": 0.7874015748031497
        },
        {
          "duration": 0.5999999999999996,
          "durationTicks": 360,
          "midi": 71,
          "name": "B4",
          "ticks": 4920,
          "time": 8.200000000000001,
          "velocity": 0.7874015748031497
        },
        {
          "duration": 0.1999999999999993,
          "durationTicks": 120,
          "midi": 81,
          "name": "A5",
          "ticks": 4920,
          "time": 8.200000000000001,
          "velocity": 0.9448818897637795
        },
        {
          "duration": 0.1999999999999993,
          "durationTicks": 120,
          "midi": 43,
          "name": "G2",
          "ticks": 5040,
          "time": 8.4,
          "velocity": 0.7874015748031497
        },
        {
          "duration": 0.09999999999999964,
          "durationTicks": 60,
          "midi": 55,
          "name": "G3",
          "ticks": 5040,
          "time": 8.4,
          "velocity": 0.7874015748031497
        },
        {
          "duration": 0.09999999999999964,
          "durationTicks": 60,
          "midi": 62,
          "name": "D4",
          "ticks": 5040,
          "time": 8.4,
          "velocity": 0.7874015748031497
        },
        {
          "duration": 0.40000000000000036,
          "durationTicks": 240,
          "midi": 79,
          "name": "G5",
          "ticks": 5040,
          "time": 8.4,
          "velocity": 0.9448818897637795
        },
        {
          "duration": 0.20000000000000107,
          "durationTicks": 120,
          "midi": 43,
          "name": "G2",
          "ticks": 5160,
          "time": 8.6,
          "velocity": 0.7874015748031497
        },
        {
          "duration": 0.10000000000000142,
          "durationTicks": 60,
          "midi": 55,
          "name": "G3",
          "ticks": 5160,
          "time": 8.6,
          "velocity": 0.7874015748031497
        },
        {
          "duration": 0.10000000000000142,
          "durationTicks": 60,
          "midi": 62,
          "name": "D4",
          "ticks": 5160,
          "time": 8.6,
          "velocity": 0.7874015748031497
        },
        {
          "duration": 0.1999999999999993,
          "durationTicks": 120,
          "midi": 50,
          "name": "D3",
          "ticks": 5280,
          "time": 8.8,
          "velocity": 0.7874015748031497
        },
        {
          "duration": 0.29999999999999893,
          "durationTicks": 180,
          "midi": 55,
          "name": "G3",
          "ticks": 5280,
          "time": 8.8,
          "velocity": 0.7874015748031497
        },
        {
          "duration": 0.29999999999999893,
          "durationTicks": 180,
          "midi": 62,
          "name": "D4",
          "ticks": 5280,
          "time": 8.8,
          "velocity": 0.7874015748031497
        },
        {
          "duration": 0.40000000000000036,
          "durationTicks": 240,
          "midi": 62,
          "name": "D4",
          "ticks": 5280,
          "time": 8.8,
          "velocity": 0.7874015748031497
        },
        {
          "duration": 0.40000000000000036,
          "durationTicks": 240,
          "midi": 69,
          "name": "A4",
          "ticks": 5280,
          "time": 8.8,
          "velocity": 0.6299212598425197
        },
        {
          "duration": 1.1999999999999993,
          "durationTicks": 720,
          "midi": 69,
          "name": "A4",
          "ticks": 5280,
          "time": 8.8,
          "velocity": 0.7874015748031497
        },
        {
          "duration": 0.40000000000000036,
          "durationTicks": 240,
          "midi": 81,
          "name": "A5",
          "ticks": 5280,
          "time": 8.8,
          "velocity": 0.9448818897637795
        },
        {
          "duration": 0.20000000000000107,
          "durationTicks": 120,
          "midi": 50,
          "name": "D3",
          "ticks": 5400,
          "time": 9,
          "velocity": 0.7874015748031497
        },
        {
          "duration": 0.1999999999999993,
          "durationTicks": 120,
          "midi": 50,
          "name": "D3",
          "ticks": 5520,
          "time": 9.200000000000001,
          "velocity": 0.7874015748031497
        },
        {
          "duration": 0.09999999999999964,
          "durationTicks": 60,
          "midi": 55,
          "name": "G3",
          "ticks": 5520,
          "time": 9.200000000000001,
          "velocity": 0.7874015748031497
        },
        {
          "duration": 0.40000000000000036,
          "durationTicks": 240,
          "midi": 57,
          "name": "A3",
          "ticks": 5520,
          "time": 9.200000000000001,
          "velocity": 0.7874015748031497
        },
        {
          "duration": 0.09999999999999964,
          "durationTicks": 60,
          "midi": 62,
          "name": "D4",
          "ticks": 5520,
          "time": 9.200000000000001,
          "velocity": 0.7874015748031497
        },
        {
          "duration": 0.20000000000000107,
          "durationTicks": 120,
          "midi": 50,
          "name": "D3",
          "ticks": 5640,
          "time": 9.4,
          "velocity": 0.7874015748031497
        },
        {
          "duration": 0.09999999999999964,
          "durationTicks": 60,
          "midi": 55,
          "name": "G3",
          "ticks": 5640,
          "time": 9.4,
          "velocity": 0.7874015748031497
        },
        {
          "duration": 0.09999999999999964,
          "durationTicks": 60,
          "midi": 62,
          "name": "D4",
          "ticks": 5640,
          "time": 9.4,
          "velocity": 0.7874015748031497
        },
        {
          "duration": 0.1999999999999993,
          "durationTicks": 120,
          "midi": 50,
          "name": "D3",
          "ticks": 5760,
          "time": 9.600000000000001,
          "velocity": 0.7874015748031497
        },
        {
          "duration": 0.29999999999999893,
          "durationTicks": 180,
          "midi": 50,
          "name": "D3",
          "ticks": 5760,
          "time": 9.600000000000001,
          "velocity": 0.7874015748031497
        },
        {
          "duration": 0.29999999999999893,
          "durationTicks": 180,
          "midi": 57,
          "name": "A3",
          "ticks": 5760,
          "time": 9.600000000000001,
          "velocity": 0.7874015748031497
        },
        {
          "duration": 0.3999999999999986,
          "durationTicks": 240,
          "midi": 62,
          "name": "D4",
          "ticks": 5760,
          "time": 9.600000000000001,
          "velocity": 0.7874015748031497
        },
        {
          "duration": 0.7999999999999989,
          "durationTicks": 480,
          "midi": 69,
          "name": "A4",
          "ticks": 5760,
          "time": 9.600000000000001,
          "velocity": 0.7874015748031497
        },
        {
          "duration": 0.3999999999999986,
          "durationTicks": 240,
          "midi": 78,
          "name": "F#5",
          "ticks": 5760,
          "time": 9.600000000000001,
          "velocity": 0.9448818897637795
        },
        {
          "duration": 0.1999999999999993,
          "durationTicks": 120,
          "midi": 50,
          "name": "D3",
          "ticks": 5880,
          "time": 9.8,
          "velocity": 0.7874015748031497
        },
        {
          "duration": 0.10000000000000142,
          "durationTicks": 60,
          "midi": 50,
          "name": "D3",
          "ticks": 6000,
          "time": 10,
          "velocity": 0.7874015748031497
        },
        {
          "duration": 0.20000000000000107,
          "durationTicks": 120,
          "midi": 50,
          "name": "D3",
          "ticks": 6000,
          "time": 10,
          "velocity": 0.7874015748031497
        },
        {
          "duration": 0.10000000000000142,
          "durationTicks": 60,
          "midi": 57,
          "name": "A3",
          "ticks": 6000,
          "time": 10,
          "velocity": 0.7874015748031497
        },
        {
          "duration": 0.3000000000000007,
          "durationTicks": 180,
          "midi": 57,
          "name": "A3",
          "ticks": 6000,
          "time": 10,
          "velocity": 0.7874015748031497
        },
        {
          "duration": 0.40000000000000036,
          "durationTicks": 240,
          "midi": 79,
          "name": "G5",
          "ticks": 6000,
          "time": 10,
          "velocity": 0.9448818897637795
        },
        {
          "duration": 0.09999999999999964,
          "durationTicks": 60,
          "midi": 50,
          "name": "D3",
          "ticks": 6120,
          "time": 10.200000000000001,
          "velocity": 0.7874015748031497
        },
        {
          "duration": 0.1999999999999993,
          "durationTicks": 120,
          "midi": 50,
          "name": "D3",
          "ticks": 6120,
          "time": 10.200000000000001,
          "velocity": 0.7874015748031497
        },
        {
          "duration": 0.1999999999999993,
          "durationTicks": 120,
          "midi": 57,
          "name": "A3",
          "ticks": 6120,
          "time": 10.200000000000001,
          "velocity": 0.7874015748031497
        },
        {
          "duration": 0.20000000000000107,
          "durationTicks": 120,
          "midi": 45,
          "name": "A2",
          "ticks": 6240,
          "time": 10.4,
          "velocity": 0.7874015748031497
        },
        {
          "duration": 0.3000000000000007,
          "durationTicks": 180,
          "midi": 50,
          "name": "D3",
          "ticks": 6240,
          "time": 10.4,
          "velocity": 0.7874015748031497
        },
        {
          "duration": 0.3000000000000007,
          "durationTicks": 180,
          "midi": 57,
          "name": "A3",
          "ticks": 6240,
          "time": 10.4,
          "velocity": 0.7874015748031497
        },
        {
          "duration": 0.40000000000000036,
          "durationTicks": 240,
          "midi": 64,
          "name": "E4",
          "ticks": 6240,
          "time": 10.4,
          "velocity": 0.7874015748031497
        },
        {
          "duration": 0.40000000000000036,
          "durationTicks": 240,
          "midi": 69,
          "name": "A4",
          "ticks": 6240,
          "time": 10.4,
          "velocity": 0.7874015748031497
        },
        {
          "duration": 1.5999999999999996,
          "durationTicks": 960,
          "midi": 76,
          "name": "E5",
          "ticks": 6240,
          "time": 10.4,
          "velocity": 0.6299212598425197
        },
        {
          "duration": 0.40000000000000036,
          "durationTicks": 240,
          "midi": 81,
          "name": "A5",
          "ticks": 6240,
          "time": 10.4,
          "velocity": 0.9448818897637795
        },
        {
          "duration": 0.1999999999999993,
          "durationTicks": 120,
          "midi": 45,
          "name": "A2",
          "ticks": 6360,
          "time": 10.600000000000001,
          "velocity": 0.7874015748031497
        },
        {
          "duration": 0.1999999999999993,
          "durationTicks": 120,
          "midi": 45,
          "name": "A2",
          "ticks": 6480,
          "time": 10.8,
          "velocity": 0.7874015748031497
        },
        {
          "duration": 0.09999999999999964,
          "durationTicks": 60,
          "midi": 50,
          "name": "D3",
          "ticks": 6480,
          "time": 10.8,
          "velocity": 0.7874015748031497
        },
        {
          "duration": 0.09999999999999964,
          "durationTicks": 60,
          "midi": 57,
          "name": "A3",
          "ticks": 6480,
          "time": 10.8,
          "velocity": 0.7874015748031497
        },
        {
          "duration": 0.40000000000000036,
          "durationTicks": 240,
          "midi": 60,
          "name": "C4",
          "ticks": 6480,
          "time": 10.8,
          "velocity": 0.7874015748031497
        },
        {
          "duration": 0.1999999999999993,
          "durationTicks": 120,
          "midi": 81,
          "name": "A5",
          "ticks": 6480,
          "time": 10.8,
          "velocity": 0.9448818897637795
        },
        {
          "duration": 0.20000000000000107,
          "durationTicks": 120,
          "midi": 45,
          "name": "A2",
          "ticks": 6600,
          "time": 11,
          "velocity": 0.7874015748031497
        },
        {
          "duration": 0.10000000000000142,
          "durationTicks": 60,
          "midi": 50,
          "name": "D3",
          "ticks": 6600,
          "time": 11,
          "velocity": 0.7874015748031497
        },
        {
          "duration": 0.10000000000000142,
          "durationTicks": 60,
          "midi": 57,
          "name": "A3",
          "ticks": 6600,
          "time": 11,
          "velocity": 0.7874015748031497
        },
        {
          "duration": 0.20000000000000107,
          "durationTicks": 120,
          "midi": 81,
          "name": "A5",
          "ticks": 6600,
          "time": 11,
          "velocity": 0.9448818897637795
        },
        {
          "duration": 0.1999999999999993,
          "durationTicks": 120,
          "midi": 45,
          "name": "A2",
          "ticks": 6720,
          "time": 11.200000000000001,
          "velocity": 0.7874015748031497
        },
        {
          "duration": 0.29999999999999893,
          "durationTicks": 180,
          "midi": 50,
          "name": "D3",
          "ticks": 6720,
          "time": 11.200000000000001,
          "velocity": 0.7874015748031497
        },
        {
          "duration": 0.29999999999999893,
          "durationTicks": 180,
          "midi": 57,
          "name": "A3",
          "ticks": 6720,
          "time": 11.200000000000001,
          "velocity": 0.7874015748031497
        },
        {
          "duration": 0.40000000000000036,
          "durationTicks": 240,
          "midi": 64,
          "name": "E4",
          "ticks": 6720,
          "time": 11.200000000000001,
          "velocity": 0.7874015748031497
        },
        {
          "duration": 0.40000000000000036,
          "durationTicks": 240,
          "midi": 69,
          "name": "A4",
          "ticks": 6720,
          "time": 11.200000000000001,
          "velocity": 0.7874015748031497
        },
        {
          "duration": 0.40000000000000036,
          "durationTicks": 240,
          "midi": 79,
          "name": "G5",
          "ticks": 6720,
          "time": 11.200000000000001,
          "velocity": 0.9448818897637795
        },
        {
          "duration": 0.20000000000000107,
          "durationTicks": 120,
          "midi": 45,
          "name": "A2",
          "ticks": 6840,
          "time": 11.4,
          "velocity": 0.7874015748031497
        },
        {
          "duration": 0.1999999999999993,
          "durationTicks": 120,
          "midi": 45,
          "name": "A2",
          "ticks": 6960,
          "time": 11.600000000000001,
          "velocity": 0.7874015748031497
        },
        {
          "duration": 0.09999999999999964,
          "durationTicks": 60,
          "midi": 50,
          "name": "D3",
          "ticks": 6960,
          "time": 11.600000000000001,
          "velocity": 0.7874015748031497
        },
        {
          "duration": 0.09999999999999964,
          "durationTicks": 60,
          "midi": 57,
          "name": "A3",
          "ticks": 6960,
          "time": 11.600000000000001,
          "velocity": 0.7874015748031497
        },
        {
          "duration": 0.3999999999999986,
          "durationTicks": 240,
          "midi": 60,
          "name": "C4",
          "ticks": 6960,
          "time": 11.600000000000001,
          "velocity": 0.7874015748031497
        },
        {
          "duration": 0.3999999999999986,
          "durationTicks": 240,
          "midi": 78,
          "name": "F#5",
          "ticks": 6960,
          "time": 11.600000000000001,
          "velocity": 0.9448818897637795
        },
        {
          "duration": 0.1999999999999993,
          "durationTicks": 120,
          "midi": 45,
          "name": "A2",
          "ticks": 7080,
          "time": 11.8,
          "velocity": 0.7874015748031497
        },
        {
          "duration": 0.09999999999999964,
          "durationTicks": 60,
          "midi": 50,
          "name": "D3",
          "ticks": 7080,
          "time": 11.8,
          "velocity": 0.7874015748031497
        },
        {
          "duration": 0.09999999999999964,
          "durationTicks": 60,
          "midi": 57,
          "name": "A3",
          "ticks": 7080,
          "time": 11.8,
          "velocity": 0.7874015748031497
        },
        {
          "duration": 0.20000000000000107,
          "durationTicks": 120,
          "midi": 52,
          "name": "E3",
          "ticks": 7200,
          "time": 12,
          "velocity": 0.7874015748031497
        },
        {
          "duration": 0.3000000000000007,
          "durationTicks": 180,
          "midi": 52,
          "name": "E3",
          "ticks": 7200,
          "time": 12,
          "velocity": 0.7874015748031497
        },
        {
          "duration": 0.3000000000000007,
          "durationTicks": 180,
          "midi": 59,
          "name": "B3",
          "ticks": 7200,
          "time": 12,
          "velocity": 0.7874015748031497
        },
        {
          "duration": 0.40000000000000036,
          "durationTicks": 240,
          "midi": 64,
          "name": "E4",
          "ticks": 7200,
          "time": 12,
          "velocity": 0.7874015748031497
        },
        {
          "duration": 0.40000000000000036,
          "durationTicks": 240,
          "midi": 67,
          "name": "G4",
          "ticks": 7200,
          "time": 12,
          "velocity": 0.7874015748031497
        },
        {
          "duration": 0.40000000000000036,
          "durationTicks": 240,
          "midi": 76,
          "name": "E5",
          "ticks": 7200,
          "time": 12,
          "velocity": 0.9448818897637795
        },
        {
          "duration": 1.200000000000001,
          "durationTicks": 720,
          "midi": 83,
          "name": "B5",
          "ticks": 7200,
          "time": 12,
          "velocity": 0.6299212598425197
        },
        {
          "duration": 0.1999999999999993,
          "durationTicks": 120,
          "midi": 52,
          "name": "E3",
          "ticks": 7320,
          "time": 12.200000000000001,
          "velocity": 0.7874015748031497
        },
        {
          "duration": 0.09999999999999964,
          "durationTicks": 60,
          "midi": 52,
          "name": "E3",
          "ticks": 7440,
          "time": 12.4,
          "velocity": 0.7874015748031497
        },
        {
          "duration": 0.20000000000000107,
          "durationTicks": 120,
          "midi": 52,
          "name": "E3",
          "ticks": 7440,
          "time": 12.4,
          "velocity": 0.7874015748031497
        },
        {
          "duration": 0.09999999999999964,
          "durationTicks": 60,
          "midi": 59,
          "name": "B3",
          "ticks": 7440,
          "time": 12.4,
          "velocity": 0.7874015748031497
        },
        {
          "duration": 0.3000000000000007,
          "durationTicks": 180,
          "midi": 59,
          "name": "B3",
          "ticks": 7440,
          "time": 12.4,
          "velocity": 0.7874015748031497
        },
        {
          "duration": 0.09999999999999964,
          "durationTicks": 60,
          "midi": 52,
          "name": "E3",
          "ticks": 7560,
          "time": 12.600000000000001,
          "velocity": 0.7874015748031497
        },
        {
          "duration": 0.1999999999999993,
          "durationTicks": 120,
          "midi": 52,
          "name": "E3",
          "ticks": 7560,
          "time": 12.600000000000001,
          "velocity": 0.7874015748031497
        },
        {
          "duration": 0.1999999999999993,
          "durationTicks": 120,
          "midi": 59,
          "name": "B3",
          "ticks": 7560,
          "time": 12.600000000000001,
          "velocity": 0.7874015748031497
        },
        {
          "duration": 0.1999999999999993,
          "durationTicks": 120,
          "midi": 52,
          "name": "E3",
          "ticks": 7680,
          "time": 12.8,
          "velocity": 0.7874015748031497
        },
        {
          "duration": 0.40000000000000036,
          "durationTicks": 240,
          "midi": 64,
          "name": "E4",
          "ticks": 7680,
          "time": 12.8,
          "velocity": 0.7874015748031497
        },
        {
          "duration": 0.40000000000000036,
          "durationTicks": 240,
          "midi": 64,
          "name": "E4",
          "ticks": 7680,
          "time": 12.8,
          "velocity": 0.7874015748031497
        },
        {
          "duration": 0.40000000000000036,
          "durationTicks": 240,
          "midi": 67,
          "name": "G4",
          "ticks": 7680,
          "time": 12.8,
          "velocity": 0.7874015748031497
        },
        {
          "duration": 0.40000000000000036,
          "durationTicks": 240,
          "midi": 71,
          "name": "B4",
          "ticks": 7680,
          "time": 12.8,
          "velocity": 0.7874015748031497
        },
        {
          "duration": 0.8000000000000007,
          "durationTicks": 480,
          "midi": 83,
          "name": "B5",
          "ticks": 7680,
          "time": 12.8,
          "velocity": 0.9448818897637795
        },
        {
          "duration": 0.20000000000000107,
          "durationTicks": 120,
          "midi": 52,
          "name": "E3",
          "ticks": 7800,
          "time": 13,
          "velocity": 0.7874015748031497
        },
        {
          "duration": 0.1999999999999993,
          "durationTicks": 120,
          "midi": 52,
          "name": "E3",
          "ticks": 7920,
          "time": 13.200000000000001,
          "velocity": 0.7874015748031497
        },
        {
          "duration": 0.40000000000000036,
          "durationTicks": 240,
          "midi": 59,
          "name": "B3",
          "ticks": 7920,
          "time": 13.200000000000001,
          "velocity": 0.7874015748031497
        },
        {
          "duration": 0.40000000000000036,
          "durationTicks": 240,
          "midi": 66,
          "name": "F#4",
          "ticks": 7920,
          "time": 13.200000000000001,
          "velocity": 0.7874015748031497
        },
        {
          "duration": 0.40000000000000036,
          "durationTicks": 240,
          "midi": 74,
          "name": "D5",
          "ticks": 7920,
          "time": 13.200000000000001,
          "velocity": 0.7874015748031497
        },
        {
          "duration": 0.40000000000000036,
          "durationTicks": 240,
          "midi": 81,
          "name": "A5",
          "ticks": 7920,
          "time": 13.200000000000001,
          "velocity": 0.9448818897637795
        },
        {
          "duration": 0.20000000000000107,
          "durationTicks": 120,
          "midi": 52,
          "name": "E3",
          "ticks": 8040,
          "time": 13.4,
          "velocity": 0.7874015748031497
        },
        {
          "duration": 0.1999999999999993,
          "durationTicks": 120,
          "midi": 43,
          "name": "G2",
          "ticks": 8160,
          "time": 13.600000000000001,
          "velocity": 0.7874015748031497
        },
        {
          "duration": 0.09999999999999964,
          "durationTicks": 60,
          "midi": 62,
          "name": "D4",
          "ticks": 8160,
          "time": 13.600000000000001,
          "velocity": 0.7874015748031497
        },
        {
          "duration": 0.29999999999999893,
          "durationTicks": 180,
          "midi": 62,
          "name": "D4",
          "ticks": 8160,
          "time": 13.600000000000001,
          "velocity": 0.7874015748031497
        },
        {
          "duration": 0.09999999999999964,
          "durationTicks": 60,
          "midi": 67,
          "name": "G4",
          "ticks": 8160,
          "time": 13.600000000000001,
          "velocity": 0.7874015748031497
        },
        {
          "duration": 0.29999999999999893,
          "durationTicks": 180,
          "midi": 67,
          "name": "G4",
          "ticks": 8160,
          "time": 13.600000000000001,
          "velocity": 0.7874015748031497
        },
        {
          "duration": 0.3999999999999986,
          "durationTicks": 240,
          "midi": 79,
          "name": "G5",
          "ticks": 8160,
          "time": 13.600000000000001,
          "velocity": 0.6299212598425197
        },
        {
          "duration": 0.7999999999999989,
          "durationTicks": 480,
          "midi": 79,
          "name": "G5",
          "ticks": 8160,
          "time": 13.600000000000001,
          "velocity": 0.9448818897637795
        },
        {
          "duration": 0.1999999999999993,
          "durationTicks": 120,
          "midi": 43,
          "name": "G2",
          "ticks": 8280,
          "time": 13.8,
          "velocity": 0.7874015748031497
        },
        {
          "duration": 0.1999999999999993,
          "durationTicks": 120,
          "midi": 62,
          "name": "D4",
          "ticks": 8280,
          "time": 13.8,
          "velocity": 0.7874015748031497
        },
        {
          "duration": 0.1999999999999993,
          "durationTicks": 120,
          "midi": 67,
          "name": "G4",
          "ticks": 8280,
          "time": 13.8,
          "velocity": 0.7874015748031497
        },
        {
          "duration": 0.20000000000000107,
          "durationTicks": 120,
          "midi": 43,
          "name": "G2",
          "ticks": 8400,
          "time": 14,
          "velocity": 0.7874015748031497
        },
        {
          "duration": 0.10000000000000142,
          "durationTicks": 60,
          "midi": 62,
          "name": "D4",
          "ticks": 8400,
          "time": 14,
          "velocity": 0.7874015748031497
        },
        {
          "duration": 0.3000000000000007,
          "durationTicks": 180,
          "midi": 62,
          "name": "D4",
          "ticks": 8400,
          "time": 14,
          "velocity": 0.7874015748031497
        },
        {
          "duration": 0.10000000000000142,
          "durationTicks": 60,
          "midi": 67,
          "name": "G4",
          "ticks": 8400,
          "time": 14,
          "velocity": 0.7874015748031497
        },
        {
          "duration": 0.3000000000000007,
          "durationTicks": 180,
          "midi": 67,
          "name": "G4",
          "ticks": 8400,
          "time": 14,
          "velocity": 0.7874015748031497
        },
        {
          "duration": 1.200000000000001,
          "durationTicks": 720,
          "midi": 79,
          "name": "G5",
          "ticks": 8400,
          "time": 14,
          "velocity": 0.9448818897637795
        },
        {
          "duration": 0.1999999999999993,
          "durationTicks": 120,
          "midi": 43,
          "name": "G2",
          "ticks": 8520,
          "time": 14.200000000000001,
          "velocity": 0.7874015748031497
        },
        {
          "duration": 0.1999999999999993,
          "durationTicks": 120,
          "midi": 62,
          "name": "D4",
          "ticks": 8520,
          "time": 14.200000000000001,
          "velocity": 0.7874015748031497
        },
        {
          "duration": 0.1999999999999993,
          "durationTicks": 120,
          "midi": 67,
          "name": "G4",
          "ticks": 8520,
          "time": 14.200000000000001,
          "velocity": 0.7874015748031497
        },
        {
          "duration": 0.20000000000000107,
          "durationTicks": 120,
          "midi": 43,
          "name": "G2",
          "ticks": 8640,
          "time": 14.4,
          "velocity": 0.7874015748031497
        },
        {
          "duration": 0.20000000000000107,
          "durationTicks": 120,
          "midi": 62,
          "name": "D4",
          "ticks": 8640,
          "time": 14.4,
          "velocity": 0.7874015748031497
        },
        {
          "duration": 0.3000000000000007,
          "durationTicks": 180,
          "midi": 62,
          "name": "D4",
          "ticks": 8640,
          "time": 14.4,
          "velocity": 0.7874015748031497
        },
        {
          "duration": 0.20000000000000107,
          "durationTicks": 120,
          "midi": 67,
          "name": "G4",
          "ticks": 8640,
          "time": 14.4,
          "velocity": 0.7874015748031497
        },
        {
          "duration": 0.3000000000000007,
          "durationTicks": 180,
          "midi": 67,
          "name": "G4",
          "ticks": 8640,
          "time": 14.4,
          "velocity": 0.7874015748031497
        },
        {
          "duration": 0.40000000000000036,
          "durationTicks": 240,
          "midi": 81,
          "name": "A5",
          "ticks": 8640,
          "time": 14.4,
          "velocity": 0.9448818897637795
        },
        {
          "duration": 0.1999999999999993,
          "durationTicks": 120,
          "midi": 43,
          "name": "G2",
          "ticks": 8760,
          "time": 14.600000000000001,
          "velocity": 0.7874015748031497
        },
        {
          "duration": 0.29999999999999893,
          "durationTicks": 180,
          "midi": 62,
          "name": "D4",
          "ticks": 8760,
          "time": 14.600000000000001,
          "velocity": 0.7874015748031497
        },
        {
          "duration": 0.29999999999999893,
          "durationTicks": 180,
          "midi": 67,
          "name": "G4",
          "ticks": 8760,
          "time": 14.600000000000001,
          "velocity": 0.7874015748031497
        },
        {
          "duration": 0.1999999999999993,
          "durationTicks": 120,
          "midi": 43,
          "name": "G2",
          "ticks": 8880,
          "time": 14.8,
          "velocity": 0.7874015748031497
        },
        {
          "duration": 0.3000000000000007,
          "durationTicks": 180,
          "midi": 62,
          "name": "D4",
          "ticks": 8880,
          "time": 14.8,
          "velocity": 0.7874015748031497
        },
        {
          "duration": 0.3000000000000007,
          "durationTicks": 180,
          "midi": 67,
          "name": "G4",
          "ticks": 8880,
          "time": 14.8,
          "velocity": 0.7874015748031497
        },
        {
          "duration": 0.40000000000000036,
          "durationTicks": 240,
          "midi": 83,
          "name": "B5",
          "ticks": 8880,
          "time": 14.8,
          "velocity": 0.9448818897637795
        },
        {
          "duration": 0.20000000000000107,
          "durationTicks": 120,
          "midi": 43,
          "name": "G2",
          "ticks": 9000,
          "time": 15,
          "velocity": 0.7874015748031497
        },
        {
          "duration": 0.20000000000000107,
          "durationTicks": 120,
          "midi": 62,
          "name": "D4",
          "ticks": 9000,
          "time": 15,
          "velocity": 0.7874015748031497
        },
        {
          "duration": 0.20000000000000107,
          "durationTicks": 120,
          "midi": 67,
          "name": "G4",
          "ticks": 9000,
          "time": 15,
          "velocity": 0.7874015748031497
        },
        {
          "duration": 0.1999999999999993,
          "durationTicks": 120,
          "midi": 50,
          "name": "D3",
          "ticks": 9120,
          "time": 15.200000000000001,
          "velocity": 0.7874015748031497
        },
        {
          "duration": 0.1999999999999993,
          "durationTicks": 120,
          "midi": 62,
          "name": "D4",
          "ticks": 9120,
          "time": 15.200000000000001,
          "velocity": 0.7874015748031497
        },
        {
          "duration": 0.29999999999999893,
          "durationTicks": 180,
          "midi": 62,
          "name": "D4",
          "ticks": 9120,
          "time": 15.200000000000001,
          "velocity": 0.7874015748031497
        },
        {
          "duration": 0.29999999999999893,
          "durationTicks": 180,
          "midi": 66,
          "name": "F#4",
          "ticks": 9120,
          "time": 15.200000000000001,
          "velocity": 0.7874015748031497
        },
        {
          "duration": 0.1999999999999993,
          "durationTicks": 120,
          "midi": 69,
          "name": "A4",
          "ticks": 9120,
          "time": 15.200000000000001,
          "velocity": 0.7874015748031497
        },
        {
          "duration": 0.7999999999999989,
          "durationTicks": 480,
          "midi": 78,
          "name": "F#5",
          "ticks": 9120,
          "time": 15.200000000000001,
          "velocity": 0.6299212598425197
        },
        {
          "duration": 0.40000000000000036,
          "durationTicks": 240,
          "midi": 86,
          "name": "D6",
          "ticks": 9120,
          "time": 15.200000000000001,
          "velocity": 0.9448818897637795
        },
        {
          "duration": 0.20000000000000107,
          "durationTicks": 120,
          "midi": 50,
          "name": "D3",
          "ticks": 9240,
          "time": 15.4,
          "velocity": 0.7874015748031497
        },
        {
          "duration": 0.3000000000000007,
          "durationTicks": 180,
          "midi": 62,
          "name": "D4",
          "ticks": 9240,
          "time": 15.4,
          "velocity": 0.7874015748031497
        },
        {
          "duration": 0.5999999999999996,
          "durationTicks": 360,
          "midi": 69,
          "name": "A4",
          "ticks": 9240,
          "time": 15.4,
          "velocity": 0.7874015748031497
        },
        {
          "duration": 0.1999999999999993,
          "durationTicks": 120,
          "midi": 50,
          "name": "D3",
          "ticks": 9360,
          "time": 15.600000000000001,
          "velocity": 0.7874015748031497
        },
        {
          "duration": 0.29999999999999893,
          "durationTicks": 180,
          "midi": 62,
          "name": "D4",
          "ticks": 9360,
          "time": 15.600000000000001,
          "velocity": 0.7874015748031497
        },
        {
          "duration": 0.09999999999999964,
          "durationTicks": 60,
          "midi": 66,
          "name": "F#4",
          "ticks": 9360,
          "time": 15.600000000000001,
          "velocity": 0.7874015748031497
        },
        {
          "duration": 0.1999999999999993,
          "durationTicks": 120,
          "midi": 50,
          "name": "D3",
          "ticks": 9480,
          "time": 15.8,
          "velocity": 0.7874015748031497
        },
        {
          "duration": 0.1999999999999993,
          "durationTicks": 120,
          "midi": 62,
          "name": "D4",
          "ticks": 9480,
          "time": 15.8,
          "velocity": 0.7874015748031497
        },
        {
          "duration": 0.09999999999999964,
          "durationTicks": 60,
          "midi": 66,
          "name": "F#4",
          "ticks": 9480,
          "time": 15.8,
          "velocity": 0.7874015748031497
        },
        {
          "duration": 0.1999999999999993,
          "durationTicks": 120,
          "midi": 50,
          "name": "D3",
          "ticks": 9600,
          "time": 16,
          "velocity": 0.7874015748031497
        },
        {
          "duration": 0.3000000000000007,
          "durationTicks": 180,
          "midi": 62,
          "name": "D4",
          "ticks": 9600,
          "time": 16,
          "velocity": 0.7874015748031497
        },
        {
          "duration": 0.40000000000000213,
          "durationTicks": 240,
          "midi": 62,
          "name": "D4",
          "ticks": 9600,
          "time": 16,
          "velocity": 0.7874015748031497
        },
        {
          "duration": 0.3000000000000007,
          "durationTicks": 180,
          "midi": 66,
          "name": "F#4",
          "ticks": 9600,
          "time": 16,
          "velocity": 0.7874015748031497
        },
        {
          "duration": 0.40000000000000213,
          "durationTicks": 240,
          "midi": 71,
          "name": "B4",
          "ticks": 9600,
          "time": 16,
          "velocity": 0.7874015748031497
        },
        {
          "duration": 0.8000000000000007,
          "durationTicks": 480,
          "midi": 79,
          "name": "G5",
          "ticks": 9600,
          "time": 16,
          "velocity": 0.6299212598425197
        },
        {
          "duration": 0.40000000000000213,
          "durationTicks": 240,
          "midi": 83,
          "name": "B5",
          "ticks": 9600,
          "time": 16,
          "velocity": 0.9448818897637795
        },
        {
          "duration": 0.20000000000000284,
          "durationTicks": 120,
          "midi": 50,
          "name": "D3",
          "ticks": 9720,
          "time": 16.2,
          "velocity": 0.7874015748031497
        },
        {
          "duration": 0.1999999999999993,
          "durationTicks": 120,
          "midi": 50,
          "name": "D3",
          "ticks": 9840,
          "time": 16.400000000000002,
          "velocity": 0.7874015748031497
        },
        {
          "duration": 0.09999999999999787,
          "durationTicks": 60,
          "midi": 62,
          "name": "D4",
          "ticks": 9840,
          "time": 16.400000000000002,
          "velocity": 0.7874015748031497
        },
        {
          "duration": 0.09999999999999787,
          "durationTicks": 60,
          "midi": 66,
          "name": "F#4",
          "ticks": 9840,
          "time": 16.400000000000002,
          "velocity": 0.7874015748031497
        },
        {
          "duration": 0.3999999999999986,
          "durationTicks": 240,
          "midi": 74,
          "name": "D5",
          "ticks": 9840,
          "time": 16.400000000000002,
          "velocity": 0.7874015748031497
        },
        {
          "duration": 0.3999999999999986,
          "durationTicks": 240,
          "midi": 86,
          "name": "D6",
          "ticks": 9840,
          "time": 16.400000000000002,
          "velocity": 0.9448818897637795
        },
        {
          "duration": 0.1999999999999993,
          "durationTicks": 120,
          "midi": 50,
          "name": "D3",
          "ticks": 9960,
          "time": 16.6,
          "velocity": 0.7874015748031497
        },
        {
          "duration": 0.09999999999999787,
          "durationTicks": 60,
          "midi": 62,
          "name": "D4",
          "ticks": 9960,
          "time": 16.6,
          "velocity": 0.7874015748031497
        },
        {
          "duration": 0.09999999999999787,
          "durationTicks": 60,
          "midi": 66,
          "name": "F#4",
          "ticks": 9960,
          "time": 16.6,
          "velocity": 0.7874015748031497
        },
        {
          "duration": 0.1999999999999993,
          "durationTicks": 120,
          "midi": 45,
          "name": "A2",
          "ticks": 10080,
          "time": 16.8,
          "velocity": 0.7874015748031497
        },
        {
          "duration": 0.3000000000000007,
          "durationTicks": 180,
          "midi": 57,
          "name": "A3",
          "ticks": 10080,
          "time": 16.8,
          "velocity": 0.7874015748031497
        },
        {
          "duration": 0.3999999999999986,
          "durationTicks": 240,
          "midi": 62,
          "name": "D4",
          "ticks": 10080,
          "time": 16.8,
          "velocity": 0.7874015748031497
        },
        {
          "duration": 0.3000000000000007,
          "durationTicks": 180,
          "midi": 64,
          "name": "E4",
          "ticks": 10080,
          "time": 16.8,
          "velocity": 0.7874015748031497
        },
        {
          "duration": 0.3999999999999986,
          "durationTicks": 240,
          "midi": 69,
          "name": "A4",
          "ticks": 10080,
          "time": 16.8,
          "velocity": 0.7874015748031497
        },
        {
          "duration": 1.6000000000000014,
          "durationTicks": 960,
          "midi": 76,
          "name": "E5",
          "ticks": 10080,
          "time": 16.8,
          "velocity": 0.6299212598425197
        },
        {
          "duration": 0.3999999999999986,
          "durationTicks": 240,
          "midi": 88,
          "name": "E6",
          "ticks": 10080,
          "time": 16.8,
          "velocity": 0.9448818897637795
        },
        {
          "duration": 0.1999999999999993,
          "durationTicks": 120,
          "midi": 45,
          "name": "A2",
          "ticks": 10200,
          "time": 17,
          "velocity": 0.7874015748031497
        },
        {
          "duration": 0.20000000000000284,
          "durationTicks": 120,
          "midi": 45,
          "name": "A2",
          "ticks": 10320,
          "time": 17.2,
          "velocity": 0.7874015748031497
        },
        {
          "duration": 0.10000000000000142,
          "durationTicks": 60,
          "midi": 57,
          "name": "A3",
          "ticks": 10320,
          "time": 17.2,
          "velocity": 0.7874015748031497
        },
        {
          "duration": 0.40000000000000213,
          "durationTicks": 240,
          "midi": 59,
          "name": "B3",
          "ticks": 10320,
          "time": 17.2,
          "velocity": 0.7874015748031497
        },
        {
          "duration": 0.10000000000000142,
          "durationTicks": 60,
          "midi": 64,
          "name": "E4",
          "ticks": 10320,
          "time": 17.2,
          "velocity": 0.7874015748031497
        },
        {
          "duration": 0.40000000000000213,
          "durationTicks": 240,
          "midi": 90,
          "name": "F#6",
          "ticks": 10320,
          "time": 17.2,
          "velocity": 0.9448818897637795
        },
        {
          "duration": 0.1999999999999993,
          "durationTicks": 120,
          "midi": 45,
          "name": "A2",
          "ticks": 10440,
          "time": 17.400000000000002,
          "velocity": 0.7874015748031497
        },
        {
          "duration": 0.09999999999999787,
          "durationTicks": 60,
          "midi": 57,
          "name": "A3",
          "ticks": 10440,
          "time": 17.400000000000002,
          "velocity": 0.7874015748031497
        },
        {
          "duration": 0.09999999999999787,
          "durationTicks": 60,
          "midi": 64,
          "name": "E4",
          "ticks": 10440,
          "time": 17.400000000000002,
          "velocity": 0.7874015748031497
        },
        {
          "duration": 0.1999999999999993,
          "durationTicks": 120,
          "midi": 45,
          "name": "A2",
          "ticks": 10560,
          "time": 17.6,
          "velocity": 0.7874015748031497
        },
        {
          "duration": 0.3000000000000007,
          "durationTicks": 180,
          "midi": 57,
          "name": "A3",
          "ticks": 10560,
          "time": 17.6,
          "velocity": 0.7874015748031497
        },
        {
          "duration": 0.3999999999999986,
          "durationTicks": 240,
          "midi": 62,
          "name": "D4",
          "ticks": 10560,
          "time": 17.6,
          "velocity": 0.7874015748031497
        },
        {
          "duration": 0.3000000000000007,
          "durationTicks": 180,
          "midi": 64,
          "name": "E4",
          "ticks": 10560,
          "time": 17.6,
          "velocity": 0.7874015748031497
        },
        {
          "duration": 0.3999999999999986,
          "durationTicks": 240,
          "midi": 69,
          "name": "A4",
          "ticks": 10560,
          "time": 17.6,
          "velocity": 0.7874015748031497
        },
        {
          "duration": 0.3999999999999986,
          "durationTicks": 240,
          "midi": 88,
          "name": "E6",
          "ticks": 10560,
          "time": 17.6,
          "velocity": 0.9448818897637795
        },
        {
          "duration": 0.1999999999999993,
          "durationTicks": 120,
          "midi": 45,
          "name": "A2",
          "ticks": 10680,
          "time": 17.8,
          "velocity": 0.7874015748031497
        },
        {
          "duration": 0.1999999999999993,
          "durationTicks": 120,
          "midi": 45,
          "name": "A2",
          "ticks": 10800,
          "time": 18,
          "velocity": 0.7874015748031497
        },
        {
          "duration": 0.10000000000000142,
          "durationTicks": 60,
          "midi": 57,
          "name": "A3",
          "ticks": 10800,
          "time": 18,
          "velocity": 0.7874015748031497
        },
        {
          "duration": 0.40000000000000213,
          "durationTicks": 240,
          "midi": 60,
          "name": "C4",
          "ticks": 10800,
          "time": 18,
          "velocity": 0.7874015748031497
        },
        {
          "duration": 0.10000000000000142,
          "durationTicks": 60,
          "midi": 64,
          "name": "E4",
          "ticks": 10800,
          "time": 18,
          "velocity": 0.7874015748031497
        },
        {
          "duration": 0.40000000000000213,
          "durationTicks": 240,
          "midi": 86,
          "name": "D6",
          "ticks": 10800,
          "time": 18,
          "velocity": 0.9448818897637795
        },
        {
          "duration": 0.20000000000000284,
          "durationTicks": 120,
          "midi": 45,
          "name": "A2",
          "ticks": 10920,
          "time": 18.2,
          "velocity": 0.7874015748031497
        },
        {
          "duration": 0.10000000000000142,
          "durationTicks": 60,
          "midi": 57,
          "name": "A3",
          "ticks": 10920,
          "time": 18.2,
          "velocity": 0.7874015748031497
        },
        {
          "duration": 0.10000000000000142,
          "durationTicks": 60,
          "midi": 64,
          "name": "E4",
          "ticks": 10920,
          "time": 18.2,
          "velocity": 0.7874015748031497
        },
        {
          "duration": 0.1999999999999993,
          "durationTicks": 120,
          "midi": 52,
          "name": "E3",
          "ticks": 11040,
          "time": 18.400000000000002,
          "velocity": 0.7874015748031497
        },
        {
          "duration": 0.29999999999999716,
          "durationTicks": 180,
          "midi": 52,
          "name": "E3",
          "ticks": 11040,
          "time": 18.400000000000002,
          "velocity": 0.7874015748031497
        },
        {
          "duration": 0.29999999999999716,
          "durationTicks": 180,
          "midi": 59,
          "name": "B3",
          "ticks": 11040,
          "time": 18.400000000000002,
          "velocity": 0.7874015748031497
        },
        {
          "duration": 0.3999999999999986,
          "durationTicks": 240,
          "midi": 62,
          "name": "D4",
          "ticks": 11040,
          "time": 18.400000000000002,
          "velocity": 0.7874015748031497
        },
        {
          "duration": 0.3999999999999986,
          "durationTicks": 240,
          "midi": 67,
          "name": "G4",
          "ticks": 11040,
          "time": 18.400000000000002,
          "velocity": 0.7874015748031497
        },
        {
          "duration": 2,
          "durationTicks": 1200,
          "midi": 71,
          "name": "B4",
          "ticks": 11040,
          "time": 18.400000000000002,
          "velocity": 0.6299212598425197
        },
        {
          "duration": 0.3999999999999986,
          "durationTicks": 240,
          "midi": 83,
          "name": "B5",
          "ticks": 11040,
          "time": 18.400000000000002,
          "velocity": 0.9448818897637795
        },
        {
          "duration": 0.1999999999999993,
          "durationTicks": 120,
          "midi": 52,
          "name": "E3",
          "ticks": 11160,
          "time": 18.6,
          "velocity": 0.7874015748031497
        },
        {
          "duration": 0.10000000000000142,
          "durationTicks": 60,
          "midi": 52,
          "name": "E3",
          "ticks": 11280,
          "time": 18.8,
          "velocity": 0.7874015748031497
        },
        {
          "duration": 0.1999999999999993,
          "durationTicks": 120,
          "midi": 52,
          "name": "E3",
          "ticks": 11280,
          "time": 18.8,
          "velocity": 0.7874015748031497
        },
        {
          "duration": 0.10000000000000142,
          "durationTicks": 60,
          "midi": 59,
          "name": "B3",
          "ticks": 11280,
          "time": 18.8,
          "velocity": 0.7874015748031497
        },
        {
          "duration": 0.3000000000000007,
          "durationTicks": 180,
          "midi": 59,
          "name": "B3",
          "ticks": 11280,
          "time": 18.8,
          "velocity": 0.7874015748031497
        },
        {
          "duration": 0.10000000000000142,
          "durationTicks": 60,
          "midi": 52,
          "name": "E3",
          "ticks": 11400,
          "time": 19,
          "velocity": 0.7874015748031497
        },
        {
          "duration": 0.20000000000000284,
          "durationTicks": 120,
          "midi": 52,
          "name": "E3",
          "ticks": 11400,
          "time": 19,
          "velocity": 0.7874015748031497
        },
        {
          "duration": 0.20000000000000284,
          "durationTicks": 120,
          "midi": 59,
          "name": "B3",
          "ticks": 11400,
          "time": 19,
          "velocity": 0.7874015748031497
        },
        {
          "duration": 0.1999999999999993,
          "durationTicks": 120,
          "midi": 52,
          "name": "E3",
          "ticks": 11520,
          "time": 19.200000000000003,
          "velocity": 0.7874015748031497
        },
        {
          "duration": 0.3999999999999986,
          "durationTicks": 240,
          "midi": 52,
          "name": "E3",
          "ticks": 11520,
          "time": 19.200000000000003,
          "velocity": 0.7874015748031497
        },
        {
          "duration": 0.3999999999999986,
          "durationTicks": 240,
          "midi": 59,
          "name": "B3",
          "ticks": 11520,
          "time": 19.200000000000003,
          "velocity": 0.7874015748031497
        },
        {
          "duration": 0.3999999999999986,
          "durationTicks": 240,
          "midi": 62,
          "name": "D4",
          "ticks": 11520,
          "time": 19.200000000000003,
          "velocity": 0.7874015748031497
        },
        {
          "duration": 0.3999999999999986,
          "durationTicks": 240,
          "midi": 67,
          "name": "G4",
          "ticks": 11520,
          "time": 19.200000000000003,
          "velocity": 0.7874015748031497
        },
        {
          "duration": 0.3999999999999986,
          "durationTicks": 240,
          "midi": 79,
          "name": "G5",
          "ticks": 11520,
          "time": 19.200000000000003,
          "velocity": 0.9448818897637795
        },
        {
          "duration": 0.1999999999999993,
          "durationTicks": 120,
          "midi": 52,
          "name": "E3",
          "ticks": 11640,
          "time": 19.400000000000002,
          "velocity": 0.7874015748031497
        },
        {
          "duration": 0.1999999999999993,
          "durationTicks": 120,
          "midi": 52,
          "name": "E3",
          "ticks": 11760,
          "time": 19.6,
          "velocity": 0.7874015748031497
        },
        {
          "duration": 0.3999999999999986,
          "durationTicks": 240,
          "midi": 54,
          "name": "F#3",
          "ticks": 11760,
          "time": 19.6,
          "velocity": 0.7874015748031497
        },
        {
          "duration": 0.3999999999999986,
          "durationTicks": 240,
          "midi": 59,
          "name": "B3",
          "ticks": 11760,
          "time": 19.6,
          "velocity": 0.7874015748031497
        },
        {
          "duration": 0.3999999999999986,
          "durationTicks": 240,
          "midi": 62,
          "name": "D4",
          "ticks": 11760,
          "time": 19.6,
          "velocity": 0.7874015748031497
        },
        {
          "duration": 0.3999999999999986,
          "durationTicks": 240,
          "midi": 81,
          "name": "A5",
          "ticks": 11760,
          "time": 19.6,
          "velocity": 0.9448818897637795
        },
        {
          "duration": 0.1999999999999993,
          "durationTicks": 120,
          "midi": 52,
          "name": "E3",
          "ticks": 11880,
          "time": 19.8,
          "velocity": 0.7874015748031497
        },
        {
          "duration": 0.20000000000000284,
          "durationTicks": 120,
          "midi": 43,
          "name": "G2",
          "ticks": 12000,
          "time": 20,
          "velocity": 0.7874015748031497
        },
        {
          "duration": 0.3000000000000007,
          "durationTicks": 180,
          "midi": 55,
          "name": "G3",
          "ticks": 12000,
          "time": 20,
          "velocity": 0.7874015748031497
        },
        {
          "duration": 0.3000000000000007,
          "durationTicks": 180,
          "midi": 62,
          "name": "D4",
          "ticks": 12000,
          "time": 20,
          "velocity": 0.7874015748031497
        },
        {
          "duration": 0.40000000000000213,
          "durationTicks": 240,
          "midi": 67,
          "name": "G4",
          "ticks": 12000,
          "time": 20,
          "velocity": 0.7874015748031497
        },
        {
          "duration": 0.8000000000000007,
          "durationTicks": 480,
          "midi": 71,
          "name": "B4",
          "ticks": 12000,
          "time": 20,
          "velocity": 0.7874015748031497
        },
        {
          "duration": 0.40000000000000213,
          "durationTicks": 240,
          "midi": 83,
          "name": "B5",
          "ticks": 12000,
          "time": 20,
          "velocity": 0.9448818897637795
        },
        {
          "duration": 0.1999999999999993,
          "durationTicks": 120,
          "midi": 43,
          "name": "G2",
          "ticks": 12120,
          "time": 20.200000000000003,
          "velocity": 0.7874015748031497
        },
        {
          "duration": 0.1999999999999993,
          "durationTicks": 120,
          "midi": 43,
          "name": "G2",
          "ticks": 12240,
          "time": 20.400000000000002,
          "velocity": 0.7874015748031497
        },
        {
          "duration": 0.09999999999999787,
          "durationTicks": 60,
          "midi": 55,
          "name": "G3",
          "ticks": 12240,
          "time": 20.400000000000002,
          "velocity": 0.7874015748031497
        },
        {
          "duration": 0.09999999999999787,
          "durationTicks": 60,
          "midi": 62,
          "name": "D4",
          "ticks": 12240,
          "time": 20.400000000000002,
          "velocity": 0.7874015748031497
        },
        {
          "duration": 0.3999999999999986,
          "durationTicks": 240,
          "midi": 67,
          "name": "G4",
          "ticks": 12240,
          "time": 20.400000000000002,
          "velocity": 0.7874015748031497
        },
        {
          "duration": 0.3999999999999986,
          "durationTicks": 240,
          "midi": 71,
          "name": "B4",
          "ticks": 12240,
          "time": 20.400000000000002,
          "velocity": 0.7874015748031497
        },
        {
          "duration": 0.1999999999999993,
          "durationTicks": 120,
          "midi": 43,
          "name": "G2",
          "ticks": 12360,
          "time": 20.6,
          "velocity": 0.7874015748031497
        },
        {
          "duration": 0.10000000000000142,
          "durationTicks": 60,
          "midi": 55,
          "name": "G3",
          "ticks": 12360,
          "time": 20.6,
          "velocity": 0.7874015748031497
        },
        {
          "duration": 0.10000000000000142,
          "durationTicks": 60,
          "midi": 62,
          "name": "D4",
          "ticks": 12360,
          "time": 20.6,
          "velocity": 0.7874015748031497
        },
        {
          "duration": 0.1999999999999993,
          "durationTicks": 120,
          "midi": 43,
          "name": "G2",
          "ticks": 12480,
          "time": 20.8,
          "velocity": 0.7874015748031497
        },
        {
          "duration": 0.3000000000000007,
          "durationTicks": 180,
          "midi": 55,
          "name": "G3",
          "ticks": 12480,
          "time": 20.8,
          "velocity": 0.7874015748031497
        },
        {
          "duration": 0.3000000000000007,
          "durationTicks": 180,
          "midi": 62,
          "name": "D4",
          "ticks": 12480,
          "time": 20.8,
          "velocity": 0.7874015748031497
        },
        {
          "duration": 0.1999999999999993,
          "durationTicks": 120,
          "midi": 67,
          "name": "G4",
          "ticks": 12480,
          "time": 20.8,
          "velocity": 0.7874015748031497
        },
        {
          "duration": 0.1999999999999993,
          "durationTicks": 120,
          "midi": 71,
          "name": "B4",
          "ticks": 12480,
          "time": 20.8,
          "velocity": 0.6299212598425197
        },
        {
          "duration": 0.8000000000000007,
          "durationTicks": 480,
          "midi": 71,
          "name": "B4",
          "ticks": 12480,
          "time": 20.8,
          "velocity": 0.7874015748031497
        },
        {
          "duration": 0.1999999999999993,
          "durationTicks": 120,
          "midi": 83,
          "name": "B5",
          "ticks": 12480,
          "time": 20.8,
          "velocity": 0.9448818897637795
        },
        {
          "duration": 0.20000000000000284,
          "durationTicks": 120,
          "midi": 43,
          "name": "G2",
          "ticks": 12600,
          "time": 21,
          "velocity": 0.7874015748031497
        },
        {
          "duration": 0.6000000000000014,
          "durationTicks": 360,
          "midi": 67,
          "name": "G4",
          "ticks": 12600,
          "time": 21,
          "velocity": 0.7874015748031497
        },
        {
          "duration": 0.6000000000000014,
          "durationTicks": 360,
          "midi": 71,
          "name": "B4",
          "ticks": 12600,
          "time": 21,
          "velocity": 0.7874015748031497
        },
        {
          "duration": 0.20000000000000284,
          "durationTicks": 120,
          "midi": 81,
          "name": "A5",
          "ticks": 12600,
          "time": 21,
          "velocity": 0.9448818897637795
        },
        {
          "duration": 0.1999999999999993,
          "durationTicks": 120,
          "midi": 43,
          "name": "G2",
          "ticks": 12720,
          "time": 21.200000000000003,
          "velocity": 0.7874015748031497
        },
        {
          "duration": 0.09999999999999787,
          "durationTicks": 60,
          "midi": 55,
          "name": "G3",
          "ticks": 12720,
          "time": 21.200000000000003,
          "velocity": 0.7874015748031497
        },
        {
          "duration": 0.09999999999999787,
          "durationTicks": 60,
          "midi": 62,
          "name": "D4",
          "ticks": 12720,
          "time": 21.200000000000003,
          "velocity": 0.7874015748031497
        },
        {
          "duration": 0.3999999999999986,
          "durationTicks": 240,
          "midi": 79,
          "name": "G5",
          "ticks": 12720,
          "time": 21.200000000000003,
          "velocity": 0.9448818897637795
        },
        {
          "duration": 0.1999999999999993,
          "durationTicks": 120,
          "midi": 43,
          "name": "G2",
          "ticks": 12840,
          "time": 21.400000000000002,
          "velocity": 0.7874015748031497
        },
        {
          "duration": 0.09999999999999787,
          "durationTicks": 60,
          "midi": 55,
          "name": "G3",
          "ticks": 12840,
          "time": 21.400000000000002,
          "velocity": 0.7874015748031497
        },
        {
          "duration": 0.09999999999999787,
          "durationTicks": 60,
          "midi": 62,
          "name": "D4",
          "ticks": 12840,
          "time": 21.400000000000002,
          "velocity": 0.7874015748031497
        },
        {
          "duration": 0.1999999999999993,
          "durationTicks": 120,
          "midi": 50,
          "name": "D3",
          "ticks": 12960,
          "time": 21.6,
          "velocity": 0.7874015748031497
        },
        {
          "duration": 0.3000000000000007,
          "durationTicks": 180,
          "midi": 55,
          "name": "G3",
          "ticks": 12960,
          "time": 21.6,
          "velocity": 0.7874015748031497
        },
        {
          "duration": 0.3000000000000007,
          "durationTicks": 180,
          "midi": 62,
          "name": "D4",
          "ticks": 12960,
          "time": 21.6,
          "velocity": 0.7874015748031497
        },
        {
          "duration": 0.3999999999999986,
          "durationTicks": 240,
          "midi": 62,
          "name": "D4",
          "ticks": 12960,
          "time": 21.6,
          "velocity": 0.7874015748031497
        },
        {
          "duration": 0.3999999999999986,
          "durationTicks": 240,
          "midi": 69,
          "name": "A4",
          "ticks": 12960,
          "time": 21.6,
          "velocity": 0.6299212598425197
        },
        {
          "duration": 1.1999999999999993,
          "durationTicks": 720,
          "midi": 69,
          "name": "A4",
          "ticks": 12960,
          "time": 21.6,
          "velocity": 0.7874015748031497
        },
        {
          "duration": 0.3999999999999986,
          "durationTicks": 240,
          "midi": 81,
          "name": "A5",
          "ticks": 12960,
          "time": 21.6,
          "velocity": 0.9448818897637795
        },
        {
          "duration": 0.1999999999999993,
          "durationTicks": 120,
          "midi": 50,
          "name": "D3",
          "ticks": 13080,
          "time": 21.8,
          "velocity": 0.7874015748031497
        },
        {
          "duration": 0.20000000000000284,
          "durationTicks": 120,
          "midi": 50,
          "name": "D3",
          "ticks": 13200,
          "time": 22,
          "velocity": 0.7874015748031497
        },
        {
          "duration": 0.10000000000000142,
          "durationTicks": 60,
          "midi": 55,
          "name": "G3",
          "ticks": 13200,
          "time": 22,
          "velocity": 0.7874015748031497
        },
        {
          "duration": 0.40000000000000213,
          "durationTicks": 240,
          "midi": 57,
          "name": "A3",
          "ticks": 13200,
          "time": 22,
          "velocity": 0.7874015748031497
        },
        {
          "duration": 0.10000000000000142,
          "durationTicks": 60,
          "midi": 62,
          "name": "D4",
          "ticks": 13200,
          "time": 22,
          "velocity": 0.7874015748031497
        },
        {
          "duration": 0.1999999999999993,
          "durationTicks": 120,
          "midi": 50,
          "name": "D3",
          "ticks": 13320,
          "time": 22.200000000000003,
          "velocity": 0.7874015748031497
        },
        {
          "duration": 0.09999999999999787,
          "durationTicks": 60,
          "midi": 55,
          "name": "G3",
          "ticks": 13320,
          "time": 22.200000000000003,
          "velocity": 0.7874015748031497
        },
        {
          "duration": 0.09999999999999787,
          "durationTicks": 60,
          "midi": 62,
          "name": "D4",
          "ticks": 13320,
          "time": 22.200000000000003,
          "velocity": 0.7874015748031497
        },
        {
          "duration": 0.1999999999999993,
          "durationTicks": 120,
          "midi": 50,
          "name": "D3",
          "ticks": 13440,
          "time": 22.400000000000002,
          "velocity": 0.7874015748031497
        },
        {
          "duration": 0.3000000000000007,
          "durationTicks": 180,
          "midi": 50,
          "name": "D3",
          "ticks": 13440,
          "time": 22.400000000000002,
          "velocity": 0.7874015748031497
        },
        {
          "duration": 0.3000000000000007,
          "durationTicks": 180,
          "midi": 57,
          "name": "A3",
          "ticks": 13440,
          "time": 22.400000000000002,
          "velocity": 0.7874015748031497
        },
        {
          "duration": 0.3999999999999986,
          "durationTicks": 240,
          "midi": 62,
          "name": "D4",
          "ticks": 13440,
          "time": 22.400000000000002,
          "velocity": 0.7874015748031497
        },
        {
          "duration": 0.8000000000000007,
          "durationTicks": 480,
          "midi": 69,
          "name": "A4",
          "ticks": 13440,
          "time": 22.400000000000002,
          "velocity": 0.7874015748031497
        },
        {
          "duration": 0.3999999999999986,
          "durationTicks": 240,
          "midi": 83,
          "name": "B5",
          "ticks": 13440,
          "time": 22.400000000000002,
          "velocity": 0.9448818897637795
        },
        {
          "duration": 0.1999999999999993,
          "durationTicks": 120,
          "midi": 50,
          "name": "D3",
          "ticks": 13560,
          "time": 22.6,
          "velocity": 0.7874015748031497
        },
        {
          "duration": 0.10000000000000142,
          "durationTicks": 60,
          "midi": 50,
          "name": "D3",
          "ticks": 13680,
          "time": 22.8,
          "velocity": 0.7874015748031497
        },
        {
          "duration": 0.1999999999999993,
          "durationTicks": 120,
          "midi": 50,
          "name": "D3",
          "ticks": 13680,
          "time": 22.8,
          "velocity": 0.7874015748031497
        },
        {
          "duration": 0.10000000000000142,
          "durationTicks": 60,
          "midi": 57,
          "name": "A3",
          "ticks": 13680,
          "time": 22.8,
          "velocity": 0.7874015748031497
        },
        {
          "duration": 0.3000000000000007,
          "durationTicks": 180,
          "midi": 57,
          "name": "A3",
          "ticks": 13680,
          "time": 22.8,
          "velocity": 0.7874015748031497
        },
        {
          "duration": 0.40000000000000213,
          "durationTicks": 240,
          "midi": 81,
          "name": "A5",
          "ticks": 13680,
          "time": 22.8,
          "velocity": 0.9448818897637795
        },
        {
          "duration": 0.10000000000000142,
          "durationTicks": 60,
          "midi": 50,
          "name": "D3",
          "ticks": 13800,
          "time": 23,
          "velocity": 0.7874015748031497
        },
        {
          "duration": 0.20000000000000284,
          "durationTicks": 120,
          "midi": 50,
          "name": "D3",
          "ticks": 13800,
          "time": 23,
          "velocity": 0.7874015748031497
        },
        {
          "duration": 0.20000000000000284,
          "durationTicks": 120,
          "midi": 57,
          "name": "A3",
          "ticks": 13800,
          "time": 23,
          "velocity": 0.7874015748031497
        },
        {
          "duration": 0.1999999999999993,
          "durationTicks": 120,
          "midi": 48,
          "name": "C3",
          "ticks": 13920,
          "time": 23.200000000000003,
          "velocity": 0.7874015748031497
        },
        {
          "duration": 0.29999999999999716,
          "durationTicks": 180,
          "midi": 48,
          "name": "C3",
          "ticks": 13920,
          "time": 23.200000000000003,
          "velocity": 0.7874015748031497
        },
        {
          "duration": 0.29999999999999716,
          "durationTicks": 180,
          "midi": 57,
          "name": "A3",
          "ticks": 13920,
          "time": 23.200000000000003,
          "velocity": 0.7874015748031497
        },
        {
          "duration": 0.3999999999999986,
          "durationTicks": 240,
          "midi": 64,
          "name": "E4",
          "ticks": 13920,
          "time": 23.200000000000003,
          "velocity": 0.7874015748031497
        },
        {
          "duration": 2,
          "durationTicks": 1200,
          "midi": 67,
          "name": "G4",
          "ticks": 13920,
          "time": 23.200000000000003,
          "velocity": 0.6299212598425197
        },
        {
          "duration": 0.3999999999999986,
          "durationTicks": 240,
          "midi": 69,
          "name": "A4",
          "ticks": 13920,
          "time": 23.200000000000003,
          "velocity": 0.7874015748031497
        },
        {
          "duration": 0.3999999999999986,
          "durationTicks": 240,
          "midi": 79,
          "name": "G5",
          "ticks": 13920,
          "time": 23.200000000000003,
          "velocity": 0.9448818897637795
        },
        {
          "duration": 0.1999999999999993,
          "durationTicks": 120,
          "midi": 48,
          "name": "C3",
          "ticks": 14040,
          "time": 23.400000000000002,
          "velocity": 0.7874015748031497
        },
        {
          "duration": 0.10000000000000142,
          "durationTicks": 60,
          "midi": 48,
          "name": "C3",
          "ticks": 14160,
          "time": 23.6,
          "velocity": 0.7874015748031497
        },
        {
          "duration": 0.1999999999999993,
          "durationTicks": 120,
          "midi": 48,
          "name": "C3",
          "ticks": 14160,
          "time": 23.6,
          "velocity": 0.7874015748031497
        },
        {
          "duration": 0.10000000000000142,
          "durationTicks": 60,
          "midi": 57,
          "name": "A3",
          "ticks": 14160,
          "time": 23.6,
          "velocity": 0.7874015748031497
        },
        {
          "duration": 0.3999999999999986,
          "durationTicks": 240,
          "midi": 60,
          "name": "C4",
          "ticks": 14160,
          "time": 23.6,
          "velocity": 0.7874015748031497
        },
        {
          "duration": 0.1999999999999993,
          "durationTicks": 120,
          "midi": 79,
          "name": "G5",
          "ticks": 14160,
          "time": 23.6,
          "velocity": 0.9448818897637795
        },
        {
          "duration": 0.10000000000000142,
          "durationTicks": 60,
          "midi": 48,
          "name": "C3",
          "ticks": 14280,
          "time": 23.8,
          "velocity": 0.7874015748031497
        },
        {
          "duration": 0.1999999999999993,
          "durationTicks": 120,
          "midi": 48,
          "name": "C3",
          "ticks": 14280,
          "time": 23.8,
          "velocity": 0.7874015748031497
        },
        {
          "duration": 0.10000000000000142,
          "durationTicks": 60,
          "midi": 57,
          "name": "A3",
          "ticks": 14280,
          "time": 23.8,
          "velocity": 0.7874015748031497
        },
        {
          "duration": 0.1999999999999993,
          "durationTicks": 120,
          "midi": 79,
          "name": "G5",
          "ticks": 14280,
          "time": 23.8,
          "velocity": 0.9448818897637795
        },
        {
          "duration": 0.20000000000000284,
          "durationTicks": 120,
          "midi": 50,
          "name": "D3",
          "ticks": 14400,
          "time": 24,
          "velocity": 0.7874015748031497
        },
        {
          "duration": 0.3000000000000007,
          "durationTicks": 180,
          "midi": 50,
          "name": "D3",
          "ticks": 14400,
          "time": 24,
          "velocity": 0.7874015748031497
        },
        {
          "duration": 0.3000000000000007,
          "durationTicks": 180,
          "midi": 57,
          "name": "A3",
          "ticks": 14400,
          "time": 24,
          "velocity": 0.7874015748031497
        },
        {
          "duration": 0.40000000000000213,
          "durationTicks": 240,
          "midi": 64,
          "name": "E4",
          "ticks": 14400,
          "time": 24,
          "velocity": 0.7874015748031497
        },
        {
          "duration": 0.40000000000000213,
          "durationTicks": 240,
          "midi": 69,
          "name": "A4",
          "ticks": 14400,
          "time": 24,
          "velocity": 0.7874015748031497
        },
        {
          "duration": 0.40000000000000213,
          "durationTicks": 240,
          "midi": 78,
          "name": "F#5",
          "ticks": 14400,
          "time": 24,
          "velocity": 0.9448818897637795
        },
        {
          "duration": 0.1999999999999993,
          "durationTicks": 120,
          "midi": 50,
          "name": "D3",
          "ticks": 14520,
          "time": 24.200000000000003,
          "velocity": 0.7874015748031497
        },
        {
          "duration": 0.09999999999999787,
          "durationTicks": 60,
          "midi": 50,
          "name": "D3",
          "ticks": 14640,
          "time": 24.400000000000002,
          "velocity": 0.7874015748031497
        },
        {
          "duration": 0.1999999999999993,
          "durationTicks": 120,
          "midi": 50,
          "name": "D3",
          "ticks": 14640,
          "time": 24.400000000000002,
          "velocity": 0.7874015748031497
        },
        {
          "duration": 0.09999999999999787,
          "durationTicks": 60,
          "midi": 57,
          "name": "A3",
          "ticks": 14640,
          "time": 24.400000000000002,
          "velocity": 0.7874015748031497
        },
        {
          "duration": 0.3999999999999986,
          "durationTicks": 240,
          "midi": 62,
          "name": "D4",
          "ticks": 14640,
          "time": 24.400000000000002,
          "velocity": 0.7874015748031497
        },
        {
          "duration": 0.3999999999999986,
          "durationTicks": 240,
          "midi": 71,
          "name": "B4",
          "ticks": 14640,
          "time": 24.400000000000002,
          "velocity": 0.7874015748031497
        },
        {
          "duration": 0.3999999999999986,
          "durationTicks": 240,
          "midi": 74,
          "name": "D5",
          "ticks": 14640,
          "time": 24.400000000000002,
          "velocity": 0.9448818897637795
        },
        {
          "duration": 0.10000000000000142,
          "durationTicks": 60,
          "midi": 50,
          "name": "D3",
          "ticks": 14760,
          "time": 24.6,
          "velocity": 0.7874015748031497
        },
        {
          "duration": 0.1999999999999993,
          "durationTicks": 120,
          "midi": 50,
          "name": "D3",
          "ticks": 14760,
          "time": 24.6,
          "velocity": 0.7874015748031497
        },
        {
          "duration": 0.10000000000000142,
          "durationTicks": 60,
          "midi": 57,
          "name": "A3",
          "ticks": 14760,
          "time": 24.6,
          "velocity": 0.7874015748031497
        },
        {
          "duration": 0.3999999999999986,
          "durationTicks": 240,
          "midi": 71,
          "name": "B4",
          "ticks": 14760,
          "time": 24.6,
          "velocity": 0.7874015748031497
        },
        {
          "duration": 0.1999999999999993,
          "durationTicks": 120,
          "midi": 52,
          "name": "E3",
          "ticks": 14880,
          "time": 24.8,
          "velocity": 0.7874015748031497
        },
        {
          "duration": 0.3000000000000007,
          "durationTicks": 180,
          "midi": 52,
          "name": "E3",
          "ticks": 14880,
          "time": 24.8,
          "velocity": 0.7874015748031497
        },
        {
          "duration": 0.3000000000000007,
          "durationTicks": 180,
          "midi": 59,
          "name": "B3",
          "ticks": 14880,
          "time": 24.8,
          "velocity": 0.7874015748031497
        },
        {
          "duration": 0.40000000000000213,
          "durationTicks": 240,
          "midi": 64,
          "name": "E4",
          "ticks": 14880,
          "time": 24.8,
          "velocity": 0.7874015748031497
        },
        {
          "duration": 0.8000000000000007,
          "durationTicks": 480,
          "midi": 67,
          "name": "G4",
          "ticks": 14880,
          "time": 24.8,
          "velocity": 0.7874015748031497
        },
        {
          "duration": 1.6000000000000014,
          "durationTicks": 960,
          "midi": 76,
          "name": "E5",
          "ticks": 14880,
          "time": 24.8,
          "velocity": 0.9448818897637795
        },
        {
          "duration": 1.1999999999999993,
          "durationTicks": 720,
          "midi": 79,
          "name": "G5",
          "ticks": 14880,
          "time": 24.8,
          "velocity": 0.7874015748031497
        },
        {
          "duration": 0.20000000000000284,
          "durationTicks": 120,
          "midi": 52,
          "name": "E3",
          "ticks": 15000,
          "time": 25,
          "velocity": 0.7874015748031497
        },
        {
          "duration": 1.2000000000000028,
          "durationTicks": 720,
          "midi": 79,
          "name": "G5",
          "ticks": 15000,
          "time": 25,
          "velocity": 0.7874015748031497
        },
        {
          "duration": 0.09999999999999787,
          "durationTicks": 60,
          "midi": 52,
          "name": "E3",
          "ticks": 15120,
          "time": 25.200000000000003,
          "velocity": 0.7874015748031497
        },
        {
          "duration": 0.1999999999999993,
          "durationTicks": 120,
          "midi": 52,
          "name": "E3",
          "ticks": 15120,
          "time": 25.200000000000003,
          "velocity": 0.7874015748031497
        },
        {
          "duration": 0.09999999999999787,
          "durationTicks": 60,
          "midi": 59,
          "name": "B3",
          "ticks": 15120,
          "time": 25.200000000000003,
          "velocity": 0.7874015748031497
        },
        {
          "duration": 0.29999999999999716,
          "durationTicks": 180,
          "midi": 59,
          "name": "B3",
          "ticks": 15120,
          "time": 25.200000000000003,
          "velocity": 0.7874015748031497
        },
        {
          "duration": 0.09999999999999787,
          "durationTicks": 60,
          "midi": 52,
          "name": "E3",
          "ticks": 15240,
          "time": 25.400000000000002,
          "velocity": 0.7874015748031497
        },
        {
          "duration": 0.1999999999999993,
          "durationTicks": 120,
          "midi": 52,
          "name": "E3",
          "ticks": 15240,
          "time": 25.400000000000002,
          "velocity": 0.7874015748031497
        },
        {
          "duration": 0.1999999999999993,
          "durationTicks": 120,
          "midi": 59,
          "name": "B3",
          "ticks": 15240,
          "time": 25.400000000000002,
          "velocity": 0.7874015748031497
        },
        {
          "duration": 0.1999999999999993,
          "durationTicks": 120,
          "midi": 52,
          "name": "E3",
          "ticks": 15360,
          "time": 25.6,
          "velocity": 0.7874015748031497
        },
        {
          "duration": 0.3000000000000007,
          "durationTicks": 180,
          "midi": 52,
          "name": "E3",
          "ticks": 15360,
          "time": 25.6,
          "velocity": 0.7874015748031497
        },
        {
          "duration": 0.3000000000000007,
          "durationTicks": 180,
          "midi": 59,
          "name": "B3",
          "ticks": 15360,
          "time": 25.6,
          "velocity": 0.7874015748031497
        },
        {
          "duration": 0.3999999999999986,
          "durationTicks": 240,
          "midi": 64,
          "name": "E4",
          "ticks": 15360,
          "time": 25.6,
          "velocity": 0.7874015748031497
        },
        {
          "duration": 0.3999999999999986,
          "durationTicks": 240,
          "midi": 67,
          "name": "G4",
          "ticks": 15360,
          "time": 25.6,
          "velocity": 0.7874015748031497
        },
        {
          "duration": 0.1999999999999993,
          "durationTicks": 120,
          "midi": 52,
          "name": "E3",
          "ticks": 15480,
          "time": 25.8,
          "velocity": 0.7874015748031497
        },
        {
          "duration": 0.10000000000000142,
          "durationTicks": 60,
          "midi": 52,
          "name": "E3",
          "ticks": 15600,
          "time": 26,
          "velocity": 0.7874015748031497
        },
        {
          "duration": 0.20000000000000284,
          "durationTicks": 120,
          "midi": 52,
          "name": "E3",
          "ticks": 15600,
          "time": 26,
          "velocity": 0.7874015748031497
        },
        {
          "duration": 0.10000000000000142,
          "durationTicks": 60,
          "midi": 59,
          "name": "B3",
          "ticks": 15600,
          "time": 26,
          "velocity": 0.7874015748031497
        },
        {
          "duration": 0.3000000000000007,
          "durationTicks": 180,
          "midi": 59,
          "name": "B3",
          "ticks": 15600,
          "time": 26,
          "velocity": 0.7874015748031497
        },
        {
          "duration": 0.40000000000000213,
          "durationTicks": 240,
          "midi": 71,
          "name": "B4",
          "ticks": 15600,
          "time": 26,
          "velocity": 0.7874015748031497
        },
        {
          "duration": 0.09999999999999787,
          "durationTicks": 60,
          "midi": 52,
          "name": "E3",
          "ticks": 15720,
          "time": 26.200000000000003,
          "velocity": 0.7874015748031497
        },
        {
          "duration": 0.1999999999999993,
          "durationTicks": 120,
          "midi": 52,
          "name": "E3",
          "ticks": 15720,
          "time": 26.200000000000003,
          "velocity": 0.7874015748031497
        },
        {
          "duration": 0.1999999999999993,
          "durationTicks": 120,
          "midi": 59,
          "name": "B3",
          "ticks": 15720,
          "time": 26.200000000000003,
          "velocity": 0.7874015748031497
        },
        {
          "duration": 0.3999999999999986,
          "durationTicks": 240,
          "midi": 71,
          "name": "B4",
          "ticks": 15720,
          "time": 26.200000000000003,
          "velocity": 0.7874015748031497
        },
        {
          "duration": 0.1999999999999993,
          "durationTicks": 120,
          "midi": 45,
          "name": "A2",
          "ticks": 15840,
          "time": 26.400000000000002,
          "velocity": 0.7874015748031497
        },
        {
          "duration": 0.09333333333333371,
          "durationTicks": 56,
          "midi": 57,
          "name": "A3",
          "ticks": 15840,
          "time": 26.400000000000002,
          "velocity": 0.7874015748031497
        },
        {
          "duration": 0.09333333333333371,
          "durationTicks": 56,
          "midi": 60,
          "name": "C4",
          "ticks": 15840,
          "time": 26.400000000000002,
          "velocity": 0.7874015748031497
        },
        {
          "duration": 1,
          "durationTicks": 600,
          "midi": 72,
          "name": "C5",
          "ticks": 15840,
          "time": 26.400000000000002,
          "velocity": 0.7874015748031497
        },
        {
          "duration": 0.1999999999999993,
          "durationTicks": 120,
          "midi": 45,
          "name": "A2",
          "ticks": 15960,
          "time": 26.6,
          "velocity": 0.7874015748031497
        },
        {
          "duration": 0.09333333333333371,
          "durationTicks": 56,
          "midi": 57,
          "name": "A3",
          "ticks": 15960,
          "time": 26.6,
          "velocity": 0.7874015748031497
        },
        {
          "duration": 0.09333333333333371,
          "durationTicks": 56,
          "midi": 60,
          "name": "C4",
          "ticks": 15960,
          "time": 26.6,
          "velocity": 0.7874015748031497
        },
        {
          "duration": 1,
          "durationTicks": 600,
          "midi": 72,
          "name": "C5",
          "ticks": 15960,
          "time": 26.6,
          "velocity": 0.7874015748031497
        },
        {
          "duration": 0.1999999999999993,
          "durationTicks": 120,
          "midi": 45,
          "name": "A2",
          "ticks": 16080,
          "time": 26.8,
          "velocity": 0.7874015748031497
        },
        {
          "duration": 0.09333333333333371,
          "durationTicks": 56,
          "midi": 57,
          "name": "A3",
          "ticks": 16080,
          "time": 26.8,
          "velocity": 0.7874015748031497
        },
        {
          "duration": 0.09333333333333371,
          "durationTicks": 56,
          "midi": 60,
          "name": "C4",
          "ticks": 16080,
          "time": 26.8,
          "velocity": 0.7874015748031497
        },
        {
          "duration": 0.20000000000000284,
          "durationTicks": 120,
          "midi": 45,
          "name": "A2",
          "ticks": 16200,
          "time": 27,
          "velocity": 0.7874015748031497
        },
        {
          "duration": 0.10000000000000142,
          "durationTicks": 60,
          "midi": 57,
          "name": "A3",
          "ticks": 16200,
          "time": 27,
          "velocity": 0.7874015748031497
        },
        {
          "duration": 0.10000000000000142,
          "durationTicks": 60,
          "midi": 60,
          "name": "C4",
          "ticks": 16200,
          "time": 27,
          "velocity": 0.7874015748031497
        },
        {
          "duration": 0.1999999999999993,
          "durationTicks": 120,
          "midi": 45,
          "name": "A2",
          "ticks": 16320,
          "time": 27.200000000000003,
          "velocity": 0.7874015748031497
        },
        {
          "duration": 0.293333333333333,
          "durationTicks": 176,
          "midi": 57,
          "name": "A3",
          "ticks": 16320,
          "time": 27.200000000000003,
          "velocity": 0.7874015748031497
        },
        {
          "duration": 0.293333333333333,
          "durationTicks": 176,
          "midi": 60,
          "name": "C4",
          "ticks": 16320,
          "time": 27.200000000000003,
          "velocity": 0.7874015748031497
        },
        {
          "duration": 0.1999999999999993,
          "durationTicks": 120,
          "midi": 45,
          "name": "A2",
          "ticks": 16440,
          "time": 27.400000000000002,
          "velocity": 0.7874015748031497
        },
        {
          "duration": 0.1999999999999993,
          "durationTicks": 120,
          "midi": 45,
          "name": "A2",
          "ticks": 16560,
          "time": 27.6,
          "velocity": 0.7874015748031497
        },
        {
          "duration": 0.10000000000000142,
          "durationTicks": 60,
          "midi": 57,
          "name": "A3",
          "ticks": 16560,
          "time": 27.6,
          "velocity": 0.7874015748031497
        },
        {
          "duration": 0.10000000000000142,
          "durationTicks": 60,
          "midi": 60,
          "name": "C4",
          "ticks": 16560,
          "time": 27.6,
          "velocity": 0.7874015748031497
        },
        {
          "duration": 0.3999999999999986,
          "durationTicks": 240,
          "midi": 79,
          "name": "G5",
          "ticks": 16560,
          "time": 27.6,
          "velocity": 0.7874015748031497
        },
        {
          "duration": 0.1999999999999993,
          "durationTicks": 120,
          "midi": 45,
          "name": "A2",
          "ticks": 16680,
          "time": 27.8,
          "velocity": 0.7874015748031497
        },
        {
          "duration": 0.10000000000000142,
          "durationTicks": 60,
          "midi": 57,
          "name": "A3",
          "ticks": 16680,
          "time": 27.8,
          "velocity": 0.7874015748031497
        },
        {
          "duration": 0.10000000000000142,
          "durationTicks": 60,
          "midi": 60,
          "name": "C4",
          "ticks": 16680,
          "time": 27.8,
          "velocity": 0.7874015748031497
        },
        {
          "duration": 0.40000000000000213,
          "durationTicks": 240,
          "midi": 79,
          "name": "G5",
          "ticks": 16680,
          "time": 27.8,
          "velocity": 0.7874015748031497
        },
        {
          "duration": 0.20000000000000284,
          "durationTicks": 120,
          "midi": 42,
          "name": "F#2",
          "ticks": 16800,
          "time": 28,
          "velocity": 0.7874015748031497
        },
        {
          "duration": 0.09333333333333371,
          "durationTicks": 56,
          "midi": 54,
          "name": "F#3",
          "ticks": 16800,
          "time": 28,
          "velocity": 0.7874015748031497
        },
        {
          "duration": 0.09333333333333371,
          "durationTicks": 56,
          "midi": 57,
          "name": "A3",
          "ticks": 16800,
          "time": 28,
          "velocity": 0.7874015748031497
        },
        {
          "duration": 2,
          "durationTicks": 1200,
          "midi": 78,
          "name": "F#5",
          "ticks": 16800,
          "time": 28,
          "velocity": 0.7874015748031497
        },
        {
          "duration": 0.1999999999999993,
          "durationTicks": 120,
          "midi": 42,
          "name": "F#2",
          "ticks": 16920,
          "time": 28.200000000000003,
          "velocity": 0.7874015748031497
        },
        {
          "duration": 0.09333333333333371,
          "durationTicks": 56,
          "midi": 54,
          "name": "F#3",
          "ticks": 16920,
          "time": 28.200000000000003,
          "velocity": 0.7874015748031497
        },
        {
          "duration": 0.09333333333333371,
          "durationTicks": 56,
          "midi": 57,
          "name": "A3",
          "ticks": 16920,
          "time": 28.200000000000003,
          "velocity": 0.7874015748031497
        },
        {
          "duration": 2,
          "durationTicks": 1200,
          "midi": 78,
          "name": "F#5",
          "ticks": 16920,
          "time": 28.200000000000003,
          "velocity": 0.7874015748031497
        },
        {
          "duration": 0.1999999999999993,
          "durationTicks": 120,
          "midi": 42,
          "name": "F#2",
          "ticks": 17040,
          "time": 28.400000000000002,
          "velocity": 0.7874015748031497
        },
        {
          "duration": 0.09333333333333371,
          "durationTicks": 56,
          "midi": 54,
          "name": "F#3",
          "ticks": 17040,
          "time": 28.400000000000002,
          "velocity": 0.7874015748031497
        },
        {
          "duration": 0.09333333333333371,
          "durationTicks": 56,
          "midi": 57,
          "name": "A3",
          "ticks": 17040,
          "time": 28.400000000000002,
          "velocity": 0.7874015748031497
        },
        {
          "duration": 0.1999999999999993,
          "durationTicks": 120,
          "midi": 42,
          "name": "F#2",
          "ticks": 17160,
          "time": 28.6,
          "velocity": 0.7874015748031497
        },
        {
          "duration": 0.10000000000000142,
          "durationTicks": 60,
          "midi": 54,
          "name": "F#3",
          "ticks": 17160,
          "time": 28.6,
          "velocity": 0.7874015748031497
        },
        {
          "duration": 0.10000000000000142,
          "durationTicks": 60,
          "midi": 57,
          "name": "A3",
          "ticks": 17160,
          "time": 28.6,
          "velocity": 0.7874015748031497
        },
        {
          "duration": 0.1999999999999993,
          "durationTicks": 120,
          "midi": 42,
          "name": "F#2",
          "ticks": 17280,
          "time": 28.8,
          "velocity": 0.7874015748031497
        },
        {
          "duration": 0.293333333333333,
          "durationTicks": 176,
          "midi": 54,
          "name": "F#3",
          "ticks": 17280,
          "time": 28.8,
          "velocity": 0.7874015748031497
        },
        {
          "duration": 0.293333333333333,
          "durationTicks": 176,
          "midi": 57,
          "name": "A3",
          "ticks": 17280,
          "time": 28.8,
          "velocity": 0.7874015748031497
        },
        {
          "duration": 0.20000000000000284,
          "durationTicks": 120,
          "midi": 42,
          "name": "F#2",
          "ticks": 17400,
          "time": 29,
          "velocity": 0.7874015748031497
        },
        {
          "duration": 0.1999999999999993,
          "durationTicks": 120,
          "midi": 42,
          "name": "F#2",
          "ticks": 17520,
          "time": 29.200000000000003,
          "velocity": 0.7874015748031497
        },
        {
          "duration": 0.09999999999999787,
          "durationTicks": 60,
          "midi": 54,
          "name": "F#3",
          "ticks": 17520,
          "time": 29.200000000000003,
          "velocity": 0.7874015748031497
        },
        {
          "duration": 0.09999999999999787,
          "durationTicks": 60,
          "midi": 57,
          "name": "A3",
          "ticks": 17520,
          "time": 29.200000000000003,
          "velocity": 0.7874015748031497
        },
        {
          "duration": 0.1999999999999993,
          "durationTicks": 120,
          "midi": 42,
          "name": "F#2",
          "ticks": 17640,
          "time": 29.400000000000002,
          "velocity": 0.7874015748031497
        },
        {
          "duration": 0.09999999999999787,
          "durationTicks": 60,
          "midi": 54,
          "name": "F#3",
          "ticks": 17640,
          "time": 29.400000000000002,
          "velocity": 0.7874015748031497
        },
        {
          "duration": 0.09999999999999787,
          "durationTicks": 60,
          "midi": 57,
          "name": "A3",
          "ticks": 17640,
          "time": 29.400000000000002,
          "velocity": 0.7874015748031497
        },
        {
          "duration": 0.1999999999999993,
          "durationTicks": 120,
          "midi": 42,
          "name": "F#2",
          "ticks": 17760,
          "time": 29.6,
          "velocity": 0.7874015748031497
        },
        {
          "duration": 0.09333333333333371,
          "durationTicks": 56,
          "midi": 54,
          "name": "F#3",
          "ticks": 17760,
          "time": 29.6,
          "velocity": 0.7874015748031497
        },
        {
          "duration": 0.09333333333333371,
          "durationTicks": 56,
          "midi": 57,
          "name": "A3",
          "ticks": 17760,
          "time": 29.6,
          "velocity": 0.7874015748031497
        },
        {
          "duration": 0.3000000000000007,
          "durationTicks": 180,
          "midi": 54,
          "name": "F#3",
          "ticks": 17880,
          "time": 29.8,
          "velocity": 0.7874015748031497
        },
        {
          "duration": 0.3000000000000007,
          "durationTicks": 180,
          "midi": 57,
          "name": "A3",
          "ticks": 17880,
          "time": 29.8,
          "velocity": 0.7874015748031497
        },
        {
          "duration": 0.20000000000000284,
          "durationTicks": 120,
          "midi": 42,
          "name": "F#2",
          "ticks": 18000,
          "time": 30,
          "velocity": 0.7874015748031497
        },
        {
          "duration": 0.09333333333333371,
          "durationTicks": 56,
          "midi": 54,
          "name": "F#3",
          "ticks": 18120,
          "time": 30.200000000000003,
          "velocity": 0.7874015748031497
        },
        {
          "duration": 0.09333333333333371,
          "durationTicks": 56,
          "midi": 57,
          "name": "A3",
          "ticks": 18120,
          "time": 30.200000000000003,
          "velocity": 0.7874015748031497
        },
        {
          "duration": 0.1999999999999993,
          "durationTicks": 120,
          "midi": 42,
          "name": "F#2",
          "ticks": 18240,
          "time": 30.400000000000002,
          "velocity": 0.7874015748031497
        },
        {
          "duration": 0.293333333333333,
          "durationTicks": 176,
          "midi": 54,
          "name": "F#3",
          "ticks": 18240,
          "time": 30.400000000000002,
          "velocity": 0.7874015748031497
        },
        {
          "duration": 0.293333333333333,
          "durationTicks": 176,
          "midi": 57,
          "name": "A3",
          "ticks": 18240,
          "time": 30.400000000000002,
          "velocity": 0.7874015748031497
        },
        {
          "duration": 0.3999999999999986,
          "durationTicks": 240,
          "midi": 79,
          "name": "G5",
          "ticks": 18240,
          "time": 30.400000000000002,
          "velocity": 0.7874015748031497
        },
        {
          "duration": 0.1999999999999993,
          "durationTicks": 120,
          "midi": 42,
          "name": "F#2",
          "ticks": 18360,
          "time": 30.6,
          "velocity": 0.7874015748031497
        },
        {
          "duration": 0.3999999999999986,
          "durationTicks": 240,
          "midi": 79,
          "name": "G5",
          "ticks": 18360,
          "time": 30.6,
          "velocity": 0.7874015748031497
        },
        {
          "duration": 0.1999999999999993,
          "durationTicks": 120,
          "midi": 42,
          "name": "F#2",
          "ticks": 18480,
          "time": 30.8,
          "velocity": 0.7874015748031497
        },
        {
          "duration": 0.10000000000000142,
          "durationTicks": 60,
          "midi": 54,
          "name": "F#3",
          "ticks": 18480,
          "time": 30.8,
          "velocity": 0.7874015748031497
        },
        {
          "duration": 0.10000000000000142,
          "durationTicks": 60,
          "midi": 57,
          "name": "A3",
          "ticks": 18480,
          "time": 30.8,
          "velocity": 0.7874015748031497
        },
        {
          "duration": 0.40000000000000213,
          "durationTicks": 240,
          "midi": 81,
          "name": "A5",
          "ticks": 18480,
          "time": 30.8,
          "velocity": 0.7874015748031497
        },
        {
          "duration": 0.20000000000000284,
          "durationTicks": 120,
          "midi": 42,
          "name": "F#2",
          "ticks": 18600,
          "time": 31,
          "velocity": 0.7874015748031497
        },
        {
          "duration": 0.10000000000000142,
          "durationTicks": 60,
          "midi": 54,
          "name": "F#3",
          "ticks": 18600,
          "time": 31,
          "velocity": 0.7874015748031497
        },
        {
          "duration": 0.10000000000000142,
          "durationTicks": 60,
          "midi": 57,
          "name": "A3",
          "ticks": 18600,
          "time": 31,
          "velocity": 0.7874015748031497
        },
        {
          "duration": 0.40000000000000213,
          "durationTicks": 240,
          "midi": 81,
          "name": "A5",
          "ticks": 18600,
          "time": 31,
          "velocity": 0.7874015748031497
        },
        {
          "duration": 0.1999999999999993,
          "durationTicks": 120,
          "midi": 47,
          "name": "B2",
          "ticks": 18720,
          "time": 31.200000000000003,
          "velocity": 0.7874015748031497
        },
        {
          "duration": 0.09333333333333371,
          "durationTicks": 56,
          "midi": 54,
          "name": "F#3",
          "ticks": 18720,
          "time": 31.200000000000003,
          "velocity": 0.7874015748031497
        },
        {
          "duration": 0.09333333333333371,
          "durationTicks": 56,
          "midi": 59,
          "name": "B3",
          "ticks": 18720,
          "time": 31.200000000000003,
          "velocity": 0.7874015748031497
        },
        {
          "duration": 3.1999999999999957,
          "durationTicks": 1920,
          "midi": 78,
          "name": "F#5",
          "ticks": 18720,
          "time": 31.200000000000003,
          "velocity": 0.7874015748031497
        },
        {
          "duration": 0.1999999999999993,
          "durationTicks": 120,
          "midi": 47,
          "name": "B2",
          "ticks": 18840,
          "time": 31.400000000000002,
          "velocity": 0.7874015748031497
        },
        {
          "duration": 0.09333333333333371,
          "durationTicks": 56,
          "midi": 54,
          "name": "F#3",
          "ticks": 18840,
          "time": 31.400000000000002,
          "velocity": 0.7874015748031497
        },
        {
          "duration": 0.09333333333333371,
          "durationTicks": 56,
          "midi": 59,
          "name": "B3",
          "ticks": 18840,
          "time": 31.400000000000002,
          "velocity": 0.7874015748031497
        },
        {
          "duration": 3.1999999999999993,
          "durationTicks": 1920,
          "midi": 78,
          "name": "F#5",
          "ticks": 18840,
          "time": 31.400000000000002,
          "velocity": 0.7874015748031497
        },
        {
          "duration": 0.1999999999999993,
          "durationTicks": 120,
          "midi": 47,
          "name": "B2",
          "ticks": 18960,
          "time": 31.6,
          "velocity": 0.7874015748031497
        },
        {
          "duration": 0.09333333333333371,
          "durationTicks": 56,
          "midi": 54,
          "name": "F#3",
          "ticks": 18960,
          "time": 31.6,
          "velocity": 0.7874015748031497
        },
        {
          "duration": 0.09333333333333371,
          "durationTicks": 56,
          "midi": 59,
          "name": "B3",
          "ticks": 18960,
          "time": 31.6,
          "velocity": 0.7874015748031497
        },
        {
          "duration": 0.1999999999999993,
          "durationTicks": 120,
          "midi": 47,
          "name": "B2",
          "ticks": 19080,
          "time": 31.8,
          "velocity": 0.7874015748031497
        },
        {
          "duration": 0.10000000000000142,
          "durationTicks": 60,
          "midi": 54,
          "name": "F#3",
          "ticks": 19080,
          "time": 31.8,
          "velocity": 0.7874015748031497
        },
        {
          "duration": 0.10000000000000142,
          "durationTicks": 60,
          "midi": 59,
          "name": "B3",
          "ticks": 19080,
          "time": 31.8,
          "velocity": 0.7874015748031497
        },
        {
          "duration": 0.20000000000000284,
          "durationTicks": 120,
          "midi": 47,
          "name": "B2",
          "ticks": 19200,
          "time": 32,
          "velocity": 0.7874015748031497
        },
        {
          "duration": 0.09333333333333371,
          "durationTicks": 56,
          "midi": 54,
          "name": "F#3",
          "ticks": 19200,
          "time": 32,
          "velocity": 0.7874015748031497
        },
        {
          "duration": 0.09333333333333371,
          "durationTicks": 56,
          "midi": 59,
          "name": "B3",
          "ticks": 19200,
          "time": 32,
          "velocity": 0.7874015748031497
        },
        {
          "duration": 0.19999999999999574,
          "durationTicks": 120,
          "midi": 47,
          "name": "B2",
          "ticks": 19320,
          "time": 32.2,
          "velocity": 0.7874015748031497
        },
        {
          "duration": 0.09333333333333371,
          "durationTicks": 56,
          "midi": 54,
          "name": "F#3",
          "ticks": 19320,
          "time": 32.2,
          "velocity": 0.7874015748031497
        },
        {
          "duration": 0.09333333333333371,
          "durationTicks": 56,
          "midi": 59,
          "name": "B3",
          "ticks": 19320,
          "time": 32.2,
          "velocity": 0.7874015748031497
        },
        {
          "duration": 0.20000000000000284,
          "durationTicks": 120,
          "midi": 47,
          "name": "B2",
          "ticks": 19440,
          "time": 32.4,
          "velocity": 0.7874015748031497
        },
        {
          "duration": 0.09333333333333371,
          "durationTicks": 56,
          "midi": 54,
          "name": "F#3",
          "ticks": 19440,
          "time": 32.4,
          "velocity": 0.7874015748031497
        },
        {
          "duration": 0.09333333333333371,
          "durationTicks": 56,
          "midi": 59,
          "name": "B3",
          "ticks": 19440,
          "time": 32.4,
          "velocity": 0.7874015748031497
        },
        {
          "duration": 0.20000000000000284,
          "durationTicks": 120,
          "midi": 47,
          "name": "B2",
          "ticks": 19560,
          "time": 32.6,
          "velocity": 0.7874015748031497
        },
        {
          "duration": 0.10000000000000142,
          "durationTicks": 60,
          "midi": 54,
          "name": "F#3",
          "ticks": 19560,
          "time": 32.6,
          "velocity": 0.7874015748031497
        },
        {
          "duration": 0.10000000000000142,
          "durationTicks": 60,
          "midi": 59,
          "name": "B3",
          "ticks": 19560,
          "time": 32.6,
          "velocity": 0.7874015748031497
        },
        {
          "duration": 1.5999999999999943,
          "durationTicks": 960,
          "midi": 47,
          "name": "B2",
          "ticks": 19680,
          "time": 32.800000000000004,
          "velocity": 0.7874015748031497
        },
        {
          "duration": 1.5999999999999943,
          "durationTicks": 960,
          "midi": 54,
          "name": "F#3",
          "ticks": 19680,
          "time": 32.800000000000004,
          "velocity": 0.7874015748031497
        },
        {
          "duration": 1.5999999999999943,
          "durationTicks": 960,
          "midi": 59,
          "name": "B3",
          "ticks": 19680,
          "time": 32.800000000000004,
          "velocity": 0.7874015748031497
        }
      ]
    },
  ]
}

const mid4 = {
  "header": {
    "keySignatures": [
      {
        "key": "C",
        "scale": "major",
        "ticks": 0
      }
    ],
    "meta": [
      {
        "text": "NE",
        "ticks": 0,
        "type": "text"
      }
    ],
    "name": "眉飞色舞-郑秀文",
    "ppq": 480,
    "tempos": [
      {
        "bpm": 109.99990833340972,
        "ticks": 0
      }
    ],
    "timeSignatures": [
      {
        "ticks": 0,
        "timeSignature": [
          4,
          4
        ],
        "measures": 0
      }
    ]
  },
  "tracks": [
    {
      "channel": 0,
      "controlChanges": {
        "7": [
          {
            "number": 7,
            "ticks": 0,
            "time": 0,
            "value": 0.5511811023622047
          },
          {
            "number": 7,
            "ticks": 0,
            "time": 0,
            "value": 0.6299212598425197
          },
          {
            "number": 7,
            "ticks": 0,
            "time": 0,
            "value": 0.47244094488188976
          },
          {
            "number": 7,
            "ticks": 0,
            "time": 0,
            "value": 0.9448818897637795
          },
          {
            "number": 7,
            "ticks": 0,
            "time": 0,
            "value": 1
          },
          {
            "number": 7,
            "ticks": 0,
            "time": 0,
            "value": 0.6299212598425197
          },
          {
            "number": 7,
            "ticks": 30720,
            "time": 34.90912,
            "value": 0.6299212598425197
          }
        ],
        "10": [
          {
            "number": 10,
            "ticks": 0,
            "time": 0,
            "value": 0.6614173228346457
          },
          {
            "number": 10,
            "ticks": 0,
            "time": 0,
            "value": 0.5039370078740157
          },
          {
            "number": 10,
            "ticks": 0,
            "time": 0,
            "value": 0.5039370078740157
          },
          {
            "number": 10,
            "ticks": 0,
            "time": 0,
            "value": 0.5039370078740157
          },
          {
            "number": 10,
            "ticks": 0,
            "time": 0,
            "value": 0.5039370078740157
          },
          {
            "number": 10,
            "ticks": 0,
            "time": 0,
            "value": 0.3464566929133858
          },
          {
            "number": 10,
            "ticks": 30720,
            "time": 34.90912,
            "value": 0.3464566929133858
          }
        ]
      },
      "pitchBends": [],
      "instrument": {
        "family": "strings",
        "number": 46,
        "name": "orchestral harp"
      },
      "name": "",
      "notes": [
        {
          "duration": 0.23295473958333332,
          "durationTicks": 205,
          "midi": 73,
          "name": "C#5",
          "ticks": 0,
          "time": 0,
          "velocity": 0.7874015748031497
        },
        {
          "duration": 0.13409102083333335,
          "durationTicks": 118,
          "midi": 66,
          "name": "F#4",
          "ticks": 120,
          "time": 0.13636375,
          "velocity": 0.7874015748031497
        },
        {
          "duration": 0.16477286458333334,
          "durationTicks": 145,
          "midi": 70,
          "name": "A#4",
          "ticks": 120,
          "time": 0.13636375,
          "velocity": 0.7874015748031497
        },
        {
          "duration": 4.0909125,
          "durationTicks": 3600,
          "midi": 47,
          "name": "B2",
          "ticks": 240,
          "time": 0.2727275,
          "velocity": 0.7874015748031497
        },
        {
          "duration": 4.36364,
          "durationTicks": 3840,
          "midi": 47,
          "name": "B2",
          "ticks": 240,
          "time": 0.2727275,
          "velocity": 0.7874015748031497
        },
        {
          "duration": 0.1113637291666667,
          "durationTicks": 98,
          "midi": 63,
          "name": "D#4",
          "ticks": 240,
          "time": 0.2727275,
          "velocity": 0.7874015748031497
        },
        {
          "duration": 4.0909125,
          "durationTicks": 3600,
          "midi": 63,
          "name": "D#4",
          "ticks": 240,
          "time": 0.2727275,
          "velocity": 0.7874015748031497
        },
        {
          "duration": 4.22727625,
          "durationTicks": 3720,
          "midi": 66,
          "name": "F#4",
          "ticks": 240,
          "time": 0.2727275,
          "velocity": 0.7874015748031497
        },
        {
          "duration": 4.36364,
          "durationTicks": 3840,
          "midi": 70,
          "name": "A#4",
          "ticks": 240,
          "time": 0.2727275,
          "velocity": 0.7874015748031497
        },
        {
          "duration": 4.36364,
          "durationTicks": 3840,
          "midi": 73,
          "name": "C#5",
          "ticks": 240,
          "time": 0.2727275,
          "velocity": 0.7874015748031497
        },
        {
          "duration": 0.51818225,
          "durationTicks": 456,
          "midi": 82,
          "name": "A#5",
          "ticks": 240,
          "time": 0.2727275,
          "velocity": 0.7874015748031497
        },
        {
          "duration": 3.27273,
          "durationTicks": 2880,
          "midi": 82,
          "name": "A#5",
          "ticks": 240,
          "time": 0.2727275,
          "velocity": 1
        },
        {
          "duration": 3.818185,
          "durationTicks": 3360,
          "midi": 59,
          "name": "B3",
          "ticks": 480,
          "time": 0.545455,
          "velocity": 0.7874015748031497
        },
        {
          "duration": 3.6818212500000005,
          "durationTicks": 3240,
          "midi": 61,
          "name": "C#4",
          "ticks": 720,
          "time": 0.8181825,
          "velocity": 0.7874015748031497
        },
        {
          "duration": 0.5181822500000002,
          "durationTicks": 456,
          "midi": 78,
          "name": "F#5",
          "ticks": 720,
          "time": 0.8181825,
          "velocity": 1
        },
        {
          "duration": 3.4090937500000003,
          "durationTicks": 3000,
          "midi": 66,
          "name": "F#4",
          "ticks": 960,
          "time": 1.09091,
          "velocity": 0.7874015748031497
        },
        {
          "duration": 0.20568198958333328,
          "durationTicks": 181,
          "midi": 77,
          "name": "F5",
          "ticks": 1200,
          "time": 1.3636375,
          "velocity": 1
        },
        {
          "duration": 0.2147729062499999,
          "durationTicks": 189,
          "midi": 75,
          "name": "D#5",
          "ticks": 1440,
          "time": 1.636365,
          "velocity": 1
        },
        {
          "duration": 0.21477290625000012,
          "durationTicks": 189,
          "midi": 77,
          "name": "F5",
          "ticks": 1680,
          "time": 1.9090925,
          "velocity": 1
        },
        {
          "duration": 0.2238638229166665,
          "durationTicks": 197,
          "midi": 78,
          "name": "F#5",
          "ticks": 1920,
          "time": 2.18182,
          "velocity": 1
        },
        {
          "duration": 0.3886366875,
          "durationTicks": 342,
          "midi": 75,
          "name": "D#5",
          "ticks": 2160,
          "time": 2.4545475000000003,
          "velocity": 1
        },
        {
          "duration": 0.13636375000000012,
          "durationTicks": 120,
          "midi": 77,
          "name": "F5",
          "ticks": 2400,
          "time": 2.727275,
          "velocity": 0.7874015748031497
        },
        {
          "duration": 0.3886366875,
          "durationTicks": 342,
          "midi": 77,
          "name": "F5",
          "ticks": 2520,
          "time": 2.8636387500000002,
          "velocity": 1
        },
        {
          "duration": 0.13636375000000012,
          "durationTicks": 120,
          "midi": 78,
          "name": "F#5",
          "ticks": 2640,
          "time": 3.0000025,
          "velocity": 0.7874015748031497
        },
        {
          "duration": 0.777273375,
          "durationTicks": 684,
          "midi": 78,
          "name": "F#5",
          "ticks": 2880,
          "time": 3.27273,
          "velocity": 1
        },
        {
          "duration": 0.25795476041666676,
          "durationTicks": 227,
          "midi": 85,
          "name": "C#6",
          "ticks": 2880,
          "time": 3.27273,
          "velocity": 0.7874015748031497
        },
        {
          "duration": 1.09091,
          "durationTicks": 960,
          "midi": 85,
          "name": "C#6",
          "ticks": 3120,
          "time": 3.5454575000000004,
          "velocity": 0.7874015748031497
        },
        {
          "duration": 2.04545625,
          "durationTicks": 1800,
          "midi": 46,
          "name": "A#2",
          "ticks": 4080,
          "time": 4.6363675,
          "velocity": 0.7874015748031497
        },
        {
          "duration": 2.18182,
          "durationTicks": 1920,
          "midi": 46,
          "name": "A#2",
          "ticks": 4080,
          "time": 4.6363675,
          "velocity": 0.7874015748031497
        },
        {
          "duration": 2.18182,
          "durationTicks": 1920,
          "midi": 65,
          "name": "F4",
          "ticks": 4080,
          "time": 4.6363675,
          "velocity": 0.7874015748031497
        },
        {
          "duration": 1.9090924999999999,
          "durationTicks": 1680,
          "midi": 68,
          "name": "G#4",
          "ticks": 4080,
          "time": 4.6363675,
          "velocity": 0.7874015748031497
        },
        {
          "duration": 2.18182,
          "durationTicks": 1920,
          "midi": 73,
          "name": "C#5",
          "ticks": 4080,
          "time": 4.6363675,
          "velocity": 0.7874015748031497
        },
        {
          "duration": 2.18182,
          "durationTicks": 1920,
          "midi": 80,
          "name": "G#5",
          "ticks": 4080,
          "time": 4.6363675,
          "velocity": 0.7874015748031497
        },
        {
          "duration": 0.5181822499999997,
          "durationTicks": 456,
          "midi": 82,
          "name": "A#5",
          "ticks": 4080,
          "time": 4.6363675,
          "velocity": 1
        },
        {
          "duration": 1.6363649999999996,
          "durationTicks": 1440,
          "midi": 56,
          "name": "G#3",
          "ticks": 4320,
          "time": 4.909095000000001,
          "velocity": 0.7874015748031497
        },
        {
          "duration": 1.3636375000000003,
          "durationTicks": 1200,
          "midi": 61,
          "name": "C#4",
          "ticks": 4560,
          "time": 5.1818225,
          "velocity": 0.7874015748031497
        },
        {
          "duration": 0.5181822499999997,
          "durationTicks": 456,
          "midi": 78,
          "name": "F#5",
          "ticks": 4560,
          "time": 5.1818225,
          "velocity": 1
        },
        {
          "duration": 1.3636375000000003,
          "durationTicks": 1200,
          "midi": 68,
          "name": "G#4",
          "ticks": 4800,
          "time": 5.45455,
          "velocity": 0.7874015748031497
        },
        {
          "duration": 0.21022744791666614,
          "durationTicks": 185,
          "midi": 77,
          "name": "F5",
          "ticks": 5040,
          "time": 5.7272775000000005,
          "velocity": 1
        },
        {
          "duration": 0.20113653125000042,
          "durationTicks": 177,
          "midi": 75,
          "name": "D#5",
          "ticks": 5280,
          "time": 6.000005,
          "velocity": 1
        },
        {
          "duration": 0.20113653125000042,
          "durationTicks": 177,
          "midi": 77,
          "name": "F5",
          "ticks": 5520,
          "time": 6.2727325,
          "velocity": 1
        },
        {
          "duration": 0.21022744791666614,
          "durationTicks": 185,
          "midi": 78,
          "name": "F#5",
          "ticks": 5760,
          "time": 6.54546,
          "velocity": 1
        },
        {
          "duration": 1.7727287500000006,
          "durationTicks": 1560,
          "midi": 51,
          "name": "D#3",
          "ticks": 6000,
          "time": 6.8181875000000005,
          "velocity": 0.7874015748031497
        },
        {
          "duration": 2.18182,
          "durationTicks": 1920,
          "midi": 51,
          "name": "D#3",
          "ticks": 6000,
          "time": 6.8181875000000005,
          "velocity": 0.7874015748031497
        },
        {
          "duration": 2.045456249999999,
          "durationTicks": 1800,
          "midi": 61,
          "name": "C#4",
          "ticks": 6000,
          "time": 6.8181875000000005,
          "velocity": 0.7874015748031497
        },
        {
          "duration": 1.9090924999999999,
          "durationTicks": 1680,
          "midi": 66,
          "name": "F#4",
          "ticks": 6000,
          "time": 6.8181875000000005,
          "velocity": 0.7874015748031497
        },
        {
          "duration": 2.18182,
          "durationTicks": 1920,
          "midi": 70,
          "name": "A#4",
          "ticks": 6000,
          "time": 6.8181875000000005,
          "velocity": 0.7874015748031497
        },
        {
          "duration": 0.3886366875,
          "durationTicks": 342,
          "midi": 75,
          "name": "D#5",
          "ticks": 6000,
          "time": 6.8181875000000005,
          "velocity": 1
        },
        {
          "duration": 0.40909124999999946,
          "durationTicks": 360,
          "midi": 78,
          "name": "F#5",
          "ticks": 6000,
          "time": 6.8181875000000005,
          "velocity": 0.7874015748031497
        },
        {
          "duration": 1.5000012500000004,
          "durationTicks": 1320,
          "midi": 58,
          "name": "A#3",
          "ticks": 6240,
          "time": 7.090915000000001,
          "velocity": 0.7874015748031497
        },
        {
          "duration": 1.0636372499999993,
          "durationTicks": 936,
          "midi": 78,
          "name": "F#5",
          "ticks": 6240,
          "time": 7.090915000000001,
          "velocity": 0.7874015748031497
        },
        {
          "duration": 0.13636374999999923,
          "durationTicks": 120,
          "midi": 82,
          "name": "A#5",
          "ticks": 6240,
          "time": 7.090915000000001,
          "velocity": 0.7874015748031497
        },
        {
          "duration": 0.3886366875000009,
          "durationTicks": 342,
          "midi": 77,
          "name": "F5",
          "ticks": 6360,
          "time": 7.22727875,
          "velocity": 1
        },
        {
          "duration": 1.6363650000000005,
          "durationTicks": 1440,
          "midi": 61,
          "name": "C#4",
          "ticks": 6480,
          "time": 7.3636425,
          "velocity": 0.7874015748031497
        },
        {
          "duration": 1.2272737499999993,
          "durationTicks": 1080,
          "midi": 66,
          "name": "F#4",
          "ticks": 6720,
          "time": 7.63637,
          "velocity": 0.7874015748031497
        },
        {
          "duration": 0.13636375000000012,
          "durationTicks": 120,
          "midi": 77,
          "name": "F5",
          "ticks": 6720,
          "time": 7.63637,
          "velocity": 0.7874015748031497
        },
        {
          "duration": 0.6818187500000006,
          "durationTicks": 600,
          "midi": 78,
          "name": "F#5",
          "ticks": 6720,
          "time": 7.63637,
          "velocity": 1
        },
        {
          "duration": 0.13636375000000012,
          "durationTicks": 120,
          "midi": 80,
          "name": "G#5",
          "ticks": 6720,
          "time": 7.63637,
          "velocity": 0.7874015748031497
        },
        {
          "duration": 0.136363750000001,
          "durationTicks": 120,
          "midi": 75,
          "name": "D#5",
          "ticks": 7200,
          "time": 8.181825,
          "velocity": 0.7874015748031497
        },
        {
          "duration": 0.27272750000000023,
          "durationTicks": 240,
          "midi": 78,
          "name": "F#5",
          "ticks": 7200,
          "time": 8.181825,
          "velocity": 0.7874015748031497
        },
        {
          "duration": 0.40909124999999946,
          "durationTicks": 360,
          "midi": 77,
          "name": "F5",
          "ticks": 7440,
          "time": 8.4545525,
          "velocity": 0.7874015748031497
        },
        {
          "duration": 0.13636374999999923,
          "durationTicks": 120,
          "midi": 73,
          "name": "C#5",
          "ticks": 7680,
          "time": 8.72728,
          "velocity": 0.7874015748031497
        },
        {
          "duration": 0.27272750000000023,
          "durationTicks": 240,
          "midi": 77,
          "name": "F5",
          "ticks": 7680,
          "time": 8.72728,
          "velocity": 0.7874015748031497
        },
        {
          "duration": 2.045456249999999,
          "durationTicks": 1800,
          "midi": 44,
          "name": "G#2",
          "ticks": 7920,
          "time": 9.0000075,
          "velocity": 0.7874015748031497
        },
        {
          "duration": 2.045456249999999,
          "durationTicks": 1800,
          "midi": 56,
          "name": "G#3",
          "ticks": 7920,
          "time": 9.0000075,
          "velocity": 0.7874015748031497
        },
        {
          "duration": 2.18182,
          "durationTicks": 1920,
          "midi": 63,
          "name": "D#4",
          "ticks": 7920,
          "time": 9.0000075,
          "velocity": 0.7874015748031497
        },
        {
          "duration": 2.045456249999999,
          "durationTicks": 1800,
          "midi": 66,
          "name": "F#4",
          "ticks": 7920,
          "time": 9.0000075,
          "velocity": 0.7874015748031497
        },
        {
          "duration": 0.13636374999999923,
          "durationTicks": 120,
          "midi": 71,
          "name": "B4",
          "ticks": 7920,
          "time": 9.0000075,
          "velocity": 0.7874015748031497
        },
        {
          "duration": 2.18182,
          "durationTicks": 1920,
          "midi": 71,
          "name": "B4",
          "ticks": 7920,
          "time": 9.0000075,
          "velocity": 0.7874015748031497
        },
        {
          "duration": 0.13636374999999923,
          "durationTicks": 120,
          "midi": 75,
          "name": "D#5",
          "ticks": 7920,
          "time": 9.0000075,
          "velocity": 0.7874015748031497
        },
        {
          "duration": 2.18182,
          "durationTicks": 1920,
          "midi": 78,
          "name": "F#5",
          "ticks": 7920,
          "time": 9.0000075,
          "velocity": 0.7874015748031497
        },
        {
          "duration": 0.5181822499999988,
          "durationTicks": 456,
          "midi": 80,
          "name": "G#5",
          "ticks": 7920,
          "time": 9.0000075,
          "velocity": 1
        },
        {
          "duration": 1.9090924999999999,
          "durationTicks": 1680,
          "midi": 56,
          "name": "G#3",
          "ticks": 8160,
          "time": 9.272735,
          "velocity": 0.7874015748031497
        },
        {
          "duration": 1.6363649999999996,
          "durationTicks": 1440,
          "midi": 59,
          "name": "B3",
          "ticks": 8400,
          "time": 9.545462500000001,
          "velocity": 0.7874015748031497
        },
        {
          "duration": 0.5181822499999988,
          "durationTicks": 456,
          "midi": 77,
          "name": "F5",
          "ticks": 8400,
          "time": 9.545462500000001,
          "velocity": 1
        },
        {
          "duration": 1.3636374999999994,
          "durationTicks": 1200,
          "midi": 66,
          "name": "F#4",
          "ticks": 8640,
          "time": 9.818190000000001,
          "velocity": 0.7874015748031497
        },
        {
          "duration": 0.1863637916666665,
          "durationTicks": 164,
          "midi": 73,
          "name": "C#5",
          "ticks": 8880,
          "time": 10.0909175,
          "velocity": 1
        },
        {
          "duration": 0.21363654166666635,
          "durationTicks": 188,
          "midi": 73,
          "name": "C#5",
          "ticks": 9120,
          "time": 10.363645,
          "velocity": 1
        },
        {
          "duration": 0.2590911250000012,
          "durationTicks": 228,
          "midi": 75,
          "name": "D#5",
          "ticks": 9360,
          "time": 10.6363725,
          "velocity": 1
        },
        {
          "duration": 0.2590911250000012,
          "durationTicks": 228,
          "midi": 77,
          "name": "F5",
          "ticks": 9600,
          "time": 10.9091,
          "velocity": 1
        },
        {
          "duration": 2.045456249999999,
          "durationTicks": 1800,
          "midi": 46,
          "name": "A#2",
          "ticks": 9840,
          "time": 11.1818275,
          "velocity": 0.7874015748031497
        },
        {
          "duration": 2.18182,
          "durationTicks": 1920,
          "midi": 46,
          "name": "A#2",
          "ticks": 9840,
          "time": 11.1818275,
          "velocity": 0.7874015748031497
        },
        {
          "duration": 2.18182,
          "durationTicks": 1920,
          "midi": 65,
          "name": "F4",
          "ticks": 9840,
          "time": 11.1818275,
          "velocity": 0.7874015748031497
        },
        {
          "duration": 2.045456249999999,
          "durationTicks": 1800,
          "midi": 68,
          "name": "G#4",
          "ticks": 9840,
          "time": 11.1818275,
          "velocity": 0.7874015748031497
        },
        {
          "duration": 0.16818195833333327,
          "durationTicks": 148,
          "midi": 73,
          "name": "C#5",
          "ticks": 9840,
          "time": 11.1818275,
          "velocity": 1
        },
        {
          "duration": 0.47727312499999996,
          "durationTicks": 420,
          "midi": 73,
          "name": "C#5",
          "ticks": 9840,
          "time": 11.1818275,
          "velocity": 0.7874015748031497
        },
        {
          "duration": 1.0772736250000001,
          "durationTicks": 948,
          "midi": 77,
          "name": "F5",
          "ticks": 9840,
          "time": 11.1818275,
          "velocity": 0.7874015748031497
        },
        {
          "duration": 1.7727287499999989,
          "durationTicks": 1560,
          "midi": 56,
          "name": "G#3",
          "ticks": 10080,
          "time": 11.454555000000001,
          "velocity": 0.7874015748031497
        },
        {
          "duration": 1.8954561250000008,
          "durationTicks": 1668,
          "midi": 73,
          "name": "C#5",
          "ticks": 10080,
          "time": 11.454555000000001,
          "velocity": 1
        },
        {
          "duration": 1.5000012499999986,
          "durationTicks": 1320,
          "midi": 61,
          "name": "C#4",
          "ticks": 10320,
          "time": 11.727282500000001,
          "velocity": 0.7874015748031497
        },
        {
          "duration": 0.2590911249999994,
          "durationTicks": 228,
          "midi": 75,
          "name": "D#5",
          "ticks": 10320,
          "time": 11.727282500000001,
          "velocity": 1
        },
        {
          "duration": 1.3636375000000012,
          "durationTicks": 1200,
          "midi": 68,
          "name": "G#4",
          "ticks": 10560,
          "time": 12.00001,
          "velocity": 0.7874015748031497
        },
        {
          "duration": 0.8045461250000017,
          "durationTicks": 708,
          "midi": 77,
          "name": "F5",
          "ticks": 10560,
          "time": 12.00001,
          "velocity": 1
        },
        {
          "duration": 0.2590911250000012,
          "durationTicks": 228,
          "midi": 78,
          "name": "F#5",
          "ticks": 10800,
          "time": 12.2727375,
          "velocity": 1
        },
        {
          "duration": 0.8181825000000007,
          "durationTicks": 720,
          "midi": 77,
          "name": "F5",
          "ticks": 11040,
          "time": 12.545465,
          "velocity": 1
        },
        {
          "duration": 0.2590911250000012,
          "durationTicks": 228,
          "midi": 75,
          "name": "D#5",
          "ticks": 11280,
          "time": 12.8181925,
          "velocity": 1
        },
        {
          "duration": 0.27272750000000023,
          "durationTicks": 240,
          "midi": 73,
          "name": "C#5",
          "ticks": 11520,
          "time": 13.09092,
          "velocity": 1
        },
        {
          "duration": 0.178409239583333,
          "durationTicks": 157,
          "midi": 85,
          "name": "C#6",
          "ticks": 11520,
          "time": 13.09092,
          "velocity": 0.7874015748031497
        },
        {
          "duration": 0.12272737500000197,
          "durationTicks": 108,
          "midi": 78,
          "name": "F#5",
          "ticks": 11640,
          "time": 13.22728375,
          "velocity": 0.7874015748031497
        },
        {
          "duration": 0.16477286458333396,
          "durationTicks": 145,
          "midi": 82,
          "name": "A#5",
          "ticks": 11640,
          "time": 13.22728375,
          "velocity": 0.7874015748031497
        },
        {
          "duration": 4.363639999999998,
          "durationTicks": 3840,
          "midi": 51,
          "name": "D#3",
          "ticks": 11760,
          "time": 13.3636475,
          "velocity": 0.7874015748031497
        },
        {
          "duration": 4.363639999999998,
          "durationTicks": 3840,
          "midi": 61,
          "name": "C#4",
          "ticks": 11760,
          "time": 13.3636475,
          "velocity": 0.7874015748031497
        },
        {
          "duration": 1.7727287500000006,
          "durationTicks": 1560,
          "midi": 66,
          "name": "F#4",
          "ticks": 11760,
          "time": 13.3636475,
          "velocity": 0.7874015748031497
        },
        {
          "duration": 0.2590911250000012,
          "durationTicks": 228,
          "midi": 70,
          "name": "A#4",
          "ticks": 11760,
          "time": 13.3636475,
          "velocity": 1
        },
        {
          "duration": 1.5000012500000004,
          "durationTicks": 1320,
          "midi": 70,
          "name": "A#4",
          "ticks": 11760,
          "time": 13.3636475,
          "velocity": 0.7874015748031497
        },
        {
          "duration": 0.9545462499999999,
          "durationTicks": 840,
          "midi": 73,
          "name": "C#5",
          "ticks": 11760,
          "time": 13.3636475,
          "velocity": 0.7874015748031497
        },
        {
          "duration": 0.13636374999999923,
          "durationTicks": 120,
          "midi": 77,
          "name": "F5",
          "ticks": 11760,
          "time": 13.3636475,
          "velocity": 0.7874015748031497
        },
        {
          "duration": 0.13636374999999923,
          "durationTicks": 120,
          "midi": 78,
          "name": "F#5",
          "ticks": 12000,
          "time": 13.636375000000001,
          "velocity": 0.7874015748031497
        },
        {
          "duration": 0.13636374999999923,
          "durationTicks": 120,
          "midi": 77,
          "name": "F5",
          "ticks": 12240,
          "time": 13.909102500000001,
          "velocity": 0.7874015748031497
        },
        {
          "duration": 1.3636374999999994,
          "durationTicks": 1200,
          "midi": 73,
          "name": "C#5",
          "ticks": 12480,
          "time": 14.181830000000001,
          "velocity": 0.7874015748031497
        },
        {
          "duration": 0.136363750000001,
          "durationTicks": 120,
          "midi": 68,
          "name": "G#4",
          "ticks": 12720,
          "time": 14.4545575,
          "velocity": 0.7874015748031497
        },
        {
          "duration": 3.000002499999999,
          "durationTicks": 2640,
          "midi": 70,
          "name": "A#4",
          "ticks": 12960,
          "time": 14.727285,
          "velocity": 0.7874015748031497
        },
        {
          "duration": 2.7250022708333326,
          "durationTicks": 2398,
          "midi": 66,
          "name": "F#4",
          "ticks": 13200,
          "time": 15.0000125,
          "velocity": 0.7874015748031497
        },
        {
          "duration": 0.3011366145833332,
          "durationTicks": 265,
          "midi": 65,
          "name": "F4",
          "ticks": 13440,
          "time": 15.27274,
          "velocity": 0.7874015748031497
        },
        {
          "duration": 0.27272749999999846,
          "durationTicks": 240,
          "midi": 44,
          "name": "G#2",
          "ticks": 15120,
          "time": 17.181832500000002,
          "velocity": 0.7874015748031497
        },
        {
          "duration": 0.27272749999999846,
          "durationTicks": 240,
          "midi": 77,
          "name": "F5",
          "ticks": 15120,
          "time": 17.181832500000002,
          "velocity": 0.7874015748031497
        },
        {
          "duration": 0.27272749999999846,
          "durationTicks": 240,
          "midi": 46,
          "name": "A#2",
          "ticks": 15360,
          "time": 17.45456,
          "velocity": 0.7874015748031497
        },
        {
          "duration": 0.23295473958333446,
          "durationTicks": 205,
          "midi": 73,
          "name": "C#5",
          "ticks": 15360,
          "time": 17.45456,
          "velocity": 0.7874015748031497
        },
        {
          "duration": 0.27272749999999846,
          "durationTicks": 240,
          "midi": 78,
          "name": "F#5",
          "ticks": 15360,
          "time": 17.45456,
          "velocity": 0.7874015748031497
        },
        {
          "duration": 0.13636374999999745,
          "durationTicks": 120,
          "midi": 66,
          "name": "F#4",
          "ticks": 15480,
          "time": 17.59092375,
          "velocity": 0.7874015748031497
        },
        {
          "duration": 0.16477286458333396,
          "durationTicks": 145,
          "midi": 70,
          "name": "A#4",
          "ticks": 15480,
          "time": 17.59092375,
          "velocity": 0.7874015748031497
        },
        {
          "duration": 1.6363650000000014,
          "durationTicks": 1440,
          "midi": 47,
          "name": "B2",
          "ticks": 15600,
          "time": 17.7272875,
          "velocity": 0.7874015748031497
        },
        {
          "duration": 2.045456250000001,
          "durationTicks": 1800,
          "midi": 47,
          "name": "B2",
          "ticks": 15600,
          "time": 17.7272875,
          "velocity": 0.7874015748031497
        },
        {
          "duration": 3.7500031250000028,
          "durationTicks": 3300,
          "midi": 47,
          "name": "B2",
          "ticks": 15600,
          "time": 17.7272875,
          "velocity": 0.7874015748031497
        },
        {
          "duration": 0.11136372916666915,
          "durationTicks": 98,
          "midi": 63,
          "name": "D#4",
          "ticks": 15600,
          "time": 17.7272875,
          "velocity": 0.7874015748031497
        },
        {
          "duration": 4.36364,
          "durationTicks": 3840,
          "midi": 63,
          "name": "D#4",
          "ticks": 15600,
          "time": 17.7272875,
          "velocity": 0.7874015748031497
        },
        {
          "duration": 4.227276250000003,
          "durationTicks": 3720,
          "midi": 66,
          "name": "F#4",
          "ticks": 15600,
          "time": 17.7272875,
          "velocity": 0.7874015748031497
        },
        {
          "duration": 4.36364,
          "durationTicks": 3840,
          "midi": 70,
          "name": "A#4",
          "ticks": 15600,
          "time": 17.7272875,
          "velocity": 0.7874015748031497
        },
        {
          "duration": 4.36364,
          "durationTicks": 3840,
          "midi": 73,
          "name": "C#5",
          "ticks": 15600,
          "time": 17.7272875,
          "velocity": 0.7874015748031497
        },
        {
          "duration": 1.6068195208333336,
          "durationTicks": 1414,
          "midi": 75,
          "name": "D#5",
          "ticks": 15600,
          "time": 17.7272875,
          "velocity": 0.7874015748031497
        },
        {
          "duration": 0.5215913437499999,
          "durationTicks": 459,
          "midi": 82,
          "name": "A#5",
          "ticks": 15600,
          "time": 17.7272875,
          "velocity": 1
        },
        {
          "duration": 3.8181849999999997,
          "durationTicks": 3360,
          "midi": 59,
          "name": "B3",
          "ticks": 15840,
          "time": 18.000015,
          "velocity": 0.7874015748031497
        },
        {
          "duration": 3.6818212500000023,
          "durationTicks": 3240,
          "midi": 61,
          "name": "C#4",
          "ticks": 16080,
          "time": 18.2727425,
          "velocity": 0.7874015748031497
        },
        {
          "duration": 0.5340913541666659,
          "durationTicks": 470,
          "midi": 78,
          "name": "F#5",
          "ticks": 16080,
          "time": 18.2727425,
          "velocity": 1
        },
        {
          "duration": 3.5454574999999977,
          "durationTicks": 3120,
          "midi": 66,
          "name": "F#4",
          "ticks": 16320,
          "time": 18.54547,
          "velocity": 0.7874015748031497
        },
        {
          "duration": 0.22500018750000095,
          "durationTicks": 198,
          "midi": 77,
          "name": "F5",
          "ticks": 16560,
          "time": 18.8181975,
          "velocity": 1
        },
        {
          "duration": 1.1977282708333306,
          "durationTicks": 1054,
          "midi": 75,
          "name": "D#5",
          "ticks": 16800,
          "time": 19.090925000000002,
          "velocity": 1
        },
        {
          "duration": 0.272727500000002,
          "durationTicks": 240,
          "midi": 77,
          "name": "F5",
          "ticks": 17040,
          "time": 19.3636525,
          "velocity": 1
        },
        {
          "duration": 2.1818199999999983,
          "durationTicks": 1920,
          "midi": 47,
          "name": "B2",
          "ticks": 17280,
          "time": 19.636380000000003,
          "velocity": 0.7874015748031497
        },
        {
          "duration": 0.27272749999999846,
          "durationTicks": 240,
          "midi": 78,
          "name": "F#5",
          "ticks": 17280,
          "time": 19.636380000000003,
          "velocity": 1
        },
        {
          "duration": 2.1818199999999983,
          "durationTicks": 1920,
          "midi": 47,
          "name": "B2",
          "ticks": 17520,
          "time": 19.9091075,
          "velocity": 0.7874015748031497
        },
        {
          "duration": 1.090910000000001,
          "durationTicks": 960,
          "midi": 75,
          "name": "D#5",
          "ticks": 17520,
          "time": 19.9091075,
          "velocity": 1
        },
        {
          "duration": 0.136363750000001,
          "durationTicks": 120,
          "midi": 77,
          "name": "F5",
          "ticks": 17760,
          "time": 20.181835,
          "velocity": 0.7874015748031497
        },
        {
          "duration": 0.3704548541666668,
          "durationTicks": 326,
          "midi": 77,
          "name": "F5",
          "ticks": 17880,
          "time": 20.31819875,
          "velocity": 1
        },
        {
          "duration": 0.136363750000001,
          "durationTicks": 120,
          "midi": 78,
          "name": "F#5",
          "ticks": 18000,
          "time": 20.4545625,
          "velocity": 0.7874015748031497
        },
        {
          "duration": 0.8181825000000025,
          "durationTicks": 720,
          "midi": 78,
          "name": "F#5",
          "ticks": 18240,
          "time": 20.72729,
          "velocity": 1
        },
        {
          "duration": 0.25795476041666987,
          "durationTicks": 227,
          "midi": 85,
          "name": "C#6",
          "ticks": 18240,
          "time": 20.72729,
          "velocity": 0.7874015748031497
        },
        {
          "duration": 1.0909099999999974,
          "durationTicks": 960,
          "midi": 77,
          "name": "F5",
          "ticks": 18480,
          "time": 21.000017500000002,
          "velocity": 0.7874015748031497
        },
        {
          "duration": 0.5454549999999969,
          "durationTicks": 480,
          "midi": 47,
          "name": "B2",
          "ticks": 18960,
          "time": 21.545472500000002,
          "velocity": 0.7874015748031497
        },
        {
          "duration": 1.6363650000000014,
          "durationTicks": 1440,
          "midi": 46,
          "name": "A#2",
          "ticks": 19440,
          "time": 22.0909275,
          "velocity": 0.7874015748031497
        },
        {
          "duration": 2.045456250000001,
          "durationTicks": 1800,
          "midi": 46,
          "name": "A#2",
          "ticks": 19440,
          "time": 22.0909275,
          "velocity": 0.7874015748031497
        },
        {
          "duration": 2.181820000000002,
          "durationTicks": 1920,
          "midi": 46,
          "name": "A#2",
          "ticks": 19440,
          "time": 22.0909275,
          "velocity": 0.7874015748031497
        },
        {
          "duration": 2.181820000000002,
          "durationTicks": 1920,
          "midi": 65,
          "name": "F4",
          "ticks": 19440,
          "time": 22.0909275,
          "velocity": 0.7874015748031497
        },
        {
          "duration": 1.9090924999999999,
          "durationTicks": 1680,
          "midi": 68,
          "name": "G#4",
          "ticks": 19440,
          "time": 22.0909275,
          "velocity": 0.7874015748031497
        },
        {
          "duration": 1.6363650000000014,
          "durationTicks": 1440,
          "midi": 73,
          "name": "C#5",
          "ticks": 19440,
          "time": 22.0909275,
          "velocity": 0.7874015748031497
        },
        {
          "duration": 2.181820000000002,
          "durationTicks": 1920,
          "midi": 73,
          "name": "C#5",
          "ticks": 19440,
          "time": 22.0909275,
          "velocity": 0.7874015748031497
        },
        {
          "duration": 0.5068186041666678,
          "durationTicks": 446,
          "midi": 82,
          "name": "A#5",
          "ticks": 19440,
          "time": 22.0909275,
          "velocity": 1
        },
        {
          "duration": 1.6363649999999978,
          "durationTicks": 1440,
          "midi": 56,
          "name": "G#3",
          "ticks": 19680,
          "time": 22.363655,
          "velocity": 0.7874015748031497
        },
        {
          "duration": 1.3636374999999994,
          "durationTicks": 1200,
          "midi": 61,
          "name": "C#4",
          "ticks": 19920,
          "time": 22.6363825,
          "velocity": 0.7874015748031497
        },
        {
          "duration": 0.17045468750000126,
          "durationTicks": 150,
          "midi": 82,
          "name": "A#5",
          "ticks": 19920,
          "time": 22.6363825,
          "velocity": 1
        },
        {
          "duration": 1.3636374999999994,
          "durationTicks": 1200,
          "midi": 68,
          "name": "G#4",
          "ticks": 20160,
          "time": 22.909110000000002,
          "velocity": 0.7874015748031497
        },
        {
          "duration": 0.21363654166666635,
          "durationTicks": 188,
          "midi": 83,
          "name": "B5",
          "ticks": 20160,
          "time": 22.909110000000002,
          "velocity": 1
        },
        {
          "duration": 0.2590911250000012,
          "durationTicks": 228,
          "midi": 85,
          "name": "C#6",
          "ticks": 20400,
          "time": 23.1818375,
          "velocity": 1
        },
        {
          "duration": 0.2590911250000012,
          "durationTicks": 228,
          "midi": 83,
          "name": "B5",
          "ticks": 20640,
          "time": 23.454565000000002,
          "velocity": 1
        },
        {
          "duration": 0.5454550000000005,
          "durationTicks": 480,
          "midi": 76,
          "name": "E5",
          "ticks": 20880,
          "time": 23.7272925,
          "velocity": 0.7874015748031497
        },
        {
          "duration": 0.27272749999999846,
          "durationTicks": 240,
          "midi": 82,
          "name": "A#5",
          "ticks": 20880,
          "time": 23.7272925,
          "velocity": 1
        },
        {
          "duration": 0.409091250000003,
          "durationTicks": 360,
          "midi": 46,
          "name": "A#2",
          "ticks": 21120,
          "time": 24.00002,
          "velocity": 0.7874015748031497
        },
        {
          "duration": 0.25000020833333636,
          "durationTicks": 220,
          "midi": 83,
          "name": "B5",
          "ticks": 21120,
          "time": 24.00002,
          "velocity": 1
        },
        {
          "duration": 0.8181824999999989,
          "durationTicks": 720,
          "midi": 51,
          "name": "D#3",
          "ticks": 21360,
          "time": 24.2727475,
          "velocity": 0.7874015748031497
        },
        {
          "duration": 1.7727287499999989,
          "durationTicks": 1560,
          "midi": 51,
          "name": "D#3",
          "ticks": 21360,
          "time": 24.2727475,
          "velocity": 0.7874015748031497
        },
        {
          "duration": 2.1818199999999983,
          "durationTicks": 1920,
          "midi": 51,
          "name": "D#3",
          "ticks": 21360,
          "time": 24.2727475,
          "velocity": 0.7874015748031497
        },
        {
          "duration": 2.045456250000001,
          "durationTicks": 1800,
          "midi": 61,
          "name": "C#4",
          "ticks": 21360,
          "time": 24.2727475,
          "velocity": 0.7874015748031497
        },
        {
          "duration": 2.1818199999999983,
          "durationTicks": 1920,
          "midi": 63,
          "name": "D#4",
          "ticks": 21360,
          "time": 24.2727475,
          "velocity": 0.7874015748031497
        },
        {
          "duration": 1.9090924999999999,
          "durationTicks": 1680,
          "midi": 67,
          "name": "G4",
          "ticks": 21360,
          "time": 24.2727475,
          "velocity": 0.7874015748031497
        },
        {
          "duration": 2.1818199999999983,
          "durationTicks": 1920,
          "midi": 70,
          "name": "A#4",
          "ticks": 21360,
          "time": 24.2727475,
          "velocity": 0.7874015748031497
        },
        {
          "duration": 2.1818199999999983,
          "durationTicks": 1920,
          "midi": 75,
          "name": "D#5",
          "ticks": 21360,
          "time": 24.2727475,
          "velocity": 0.7874015748031497
        },
        {
          "duration": 0.3954548750000022,
          "durationTicks": 348,
          "midi": 82,
          "name": "A#5",
          "ticks": 21360,
          "time": 24.2727475,
          "velocity": 1
        },
        {
          "duration": 1.5000012500000004,
          "durationTicks": 1320,
          "midi": 58,
          "name": "A#3",
          "ticks": 21600,
          "time": 24.545475,
          "velocity": 0.7874015748031497
        },
        {
          "duration": 0.136363750000001,
          "durationTicks": 120,
          "midi": 79,
          "name": "G5",
          "ticks": 21600,
          "time": 24.545475,
          "velocity": 0.7874015748031497
        },
        {
          "duration": 0.136363750000001,
          "durationTicks": 120,
          "midi": 82,
          "name": "A#5",
          "ticks": 21600,
          "time": 24.545475,
          "velocity": 0.7874015748031497
        },
        {
          "duration": 0.3318184583333341,
          "durationTicks": 292,
          "midi": 80,
          "name": "G#5",
          "ticks": 21720,
          "time": 24.68183875,
          "velocity": 1
        },
        {
          "duration": 1.6363649999999978,
          "durationTicks": 1440,
          "midi": 61,
          "name": "C#4",
          "ticks": 21840,
          "time": 24.8182025,
          "velocity": 0.7874015748031497
        },
        {
          "duration": 0.5454550000000005,
          "durationTicks": 480,
          "midi": 46,
          "name": "A#2",
          "ticks": 22080,
          "time": 25.09093,
          "velocity": 0.7874015748031497
        },
        {
          "duration": 1.3636374999999994,
          "durationTicks": 1200,
          "midi": 67,
          "name": "G4",
          "ticks": 22080,
          "time": 25.09093,
          "velocity": 0.7874015748031497
        },
        {
          "duration": 0.136363750000001,
          "durationTicks": 120,
          "midi": 79,
          "name": "G5",
          "ticks": 22080,
          "time": 25.09093,
          "velocity": 1
        },
        {
          "duration": 0.8181825000000025,
          "durationTicks": 720,
          "midi": 79,
          "name": "G5",
          "ticks": 22080,
          "time": 25.09093,
          "velocity": 0.7874015748031497
        },
        {
          "duration": 0.136363750000001,
          "durationTicks": 120,
          "midi": 82,
          "name": "A#5",
          "ticks": 22080,
          "time": 25.09093,
          "velocity": 0.7874015748031497
        },
        {
          "duration": 0.8181824999999989,
          "durationTicks": 720,
          "midi": 51,
          "name": "D#3",
          "ticks": 22560,
          "time": 25.636385,
          "velocity": 0.7874015748031497
        },
        {
          "duration": 0.136363750000001,
          "durationTicks": 120,
          "midi": 82,
          "name": "A#5",
          "ticks": 22560,
          "time": 25.636385,
          "velocity": 0.7874015748031497
        },
        {
          "duration": 0.136363750000001,
          "durationTicks": 120,
          "midi": 85,
          "name": "C#6",
          "ticks": 22560,
          "time": 25.636385,
          "velocity": 0.7874015748031497
        },
        {
          "duration": 0.136363750000001,
          "durationTicks": 120,
          "midi": 73,
          "name": "C#5",
          "ticks": 23040,
          "time": 26.18184,
          "velocity": 0.7874015748031497
        },
        {
          "duration": 0.136363750000001,
          "durationTicks": 120,
          "midi": 77,
          "name": "F5",
          "ticks": 23040,
          "time": 26.18184,
          "velocity": 0.7874015748031497
        },
        {
          "duration": 1.6363650000000014,
          "durationTicks": 1440,
          "midi": 44,
          "name": "G#2",
          "ticks": 23280,
          "time": 26.4545675,
          "velocity": 0.7874015748031497
        },
        {
          "duration": 2.045456250000001,
          "durationTicks": 1800,
          "midi": 44,
          "name": "G#2",
          "ticks": 23280,
          "time": 26.4545675,
          "velocity": 0.7874015748031497
        },
        {
          "duration": 2.045456250000001,
          "durationTicks": 1800,
          "midi": 56,
          "name": "G#3",
          "ticks": 23280,
          "time": 26.4545675,
          "velocity": 0.7874015748031497
        },
        {
          "duration": 2.181820000000002,
          "durationTicks": 1920,
          "midi": 63,
          "name": "D#4",
          "ticks": 23280,
          "time": 26.4545675,
          "velocity": 0.7874015748031497
        },
        {
          "duration": 2.045456250000001,
          "durationTicks": 1800,
          "midi": 66,
          "name": "F#4",
          "ticks": 23280,
          "time": 26.4545675,
          "velocity": 0.7874015748031497
        },
        {
          "duration": 0.136363750000001,
          "durationTicks": 120,
          "midi": 71,
          "name": "B4",
          "ticks": 23280,
          "time": 26.4545675,
          "velocity": 0.7874015748031497
        },
        {
          "duration": 2.181820000000002,
          "durationTicks": 1920,
          "midi": 71,
          "name": "B4",
          "ticks": 23280,
          "time": 26.4545675,
          "velocity": 0.7874015748031497
        },
        {
          "duration": 2.181820000000002,
          "durationTicks": 1920,
          "midi": 71,
          "name": "B4",
          "ticks": 23280,
          "time": 26.4545675,
          "velocity": 0.7874015748031497
        },
        {
          "duration": 0.136363750000001,
          "durationTicks": 120,
          "midi": 75,
          "name": "D#5",
          "ticks": 23280,
          "time": 26.4545675,
          "velocity": 0.7874015748031497
        },
        {
          "duration": 0.509091333333334,
          "durationTicks": 448,
          "midi": 80,
          "name": "G#5",
          "ticks": 23280,
          "time": 26.4545675,
          "velocity": 1
        },
        {
          "duration": 1.9090924999999999,
          "durationTicks": 1680,
          "midi": 56,
          "name": "G#3",
          "ticks": 23520,
          "time": 26.727295,
          "velocity": 0.7874015748031497
        },
        {
          "duration": 1.6363650000000014,
          "durationTicks": 1440,
          "midi": 59,
          "name": "B3",
          "ticks": 23760,
          "time": 27.0000225,
          "velocity": 0.7874015748031497
        },
        {
          "duration": 0.5181822500000024,
          "durationTicks": 456,
          "midi": 77,
          "name": "F5",
          "ticks": 23760,
          "time": 27.0000225,
          "velocity": 1
        },
        {
          "duration": 1.3636374999999994,
          "durationTicks": 1200,
          "midi": 66,
          "name": "F#4",
          "ticks": 24000,
          "time": 27.272750000000002,
          "velocity": 0.7874015748031497
        },
        {
          "duration": 0.22727291666666716,
          "durationTicks": 200,
          "midi": 73,
          "name": "C#5",
          "ticks": 24240,
          "time": 27.5454775,
          "velocity": 1
        },
        {
          "duration": 0.27272749999999846,
          "durationTicks": 240,
          "midi": 73,
          "name": "C#5",
          "ticks": 24480,
          "time": 27.818205000000003,
          "velocity": 1
        },
        {
          "duration": 0.272727500000002,
          "durationTicks": 240,
          "midi": 75,
          "name": "D#5",
          "ticks": 24720,
          "time": 28.0909325,
          "velocity": 1
        },
        {
          "duration": 0.27272749999999846,
          "durationTicks": 240,
          "midi": 44,
          "name": "G#2",
          "ticks": 24960,
          "time": 28.363660000000003,
          "velocity": 0.7874015748031497
        },
        {
          "duration": 0.27272749999999846,
          "durationTicks": 240,
          "midi": 77,
          "name": "F5",
          "ticks": 24960,
          "time": 28.363660000000003,
          "velocity": 1
        },
        {
          "duration": 1.6363650000000014,
          "durationTicks": 1440,
          "midi": 46,
          "name": "A#2",
          "ticks": 25200,
          "time": 28.6363875,
          "velocity": 0.7874015748031497
        },
        {
          "duration": 2.045456250000001,
          "durationTicks": 1800,
          "midi": 46,
          "name": "A#2",
          "ticks": 25200,
          "time": 28.6363875,
          "velocity": 0.7874015748031497
        },
        {
          "duration": 2.1818199999999983,
          "durationTicks": 1920,
          "midi": 46,
          "name": "A#2",
          "ticks": 25200,
          "time": 28.6363875,
          "velocity": 0.7874015748031497
        },
        {
          "duration": 2.1818199999999983,
          "durationTicks": 1920,
          "midi": 65,
          "name": "F4",
          "ticks": 25200,
          "time": 28.6363875,
          "velocity": 0.7874015748031497
        },
        {
          "duration": 2.045456250000001,
          "durationTicks": 1800,
          "midi": 68,
          "name": "G#4",
          "ticks": 25200,
          "time": 28.6363875,
          "velocity": 0.7874015748031497
        },
        {
          "duration": 0.2272729166666636,
          "durationTicks": 200,
          "midi": 73,
          "name": "C#5",
          "ticks": 25200,
          "time": 28.6363875,
          "velocity": 1
        },
        {
          "duration": 0.5454550000000005,
          "durationTicks": 480,
          "midi": 73,
          "name": "C#5",
          "ticks": 25200,
          "time": 28.6363875,
          "velocity": 0.7874015748031497
        },
        {
          "duration": 2.131819958333331,
          "durationTicks": 1876,
          "midi": 73,
          "name": "C#5",
          "ticks": 25200,
          "time": 28.6363875,
          "velocity": 0.7874015748031497
        },
        {
          "duration": 1.7727287500000024,
          "durationTicks": 1560,
          "midi": 56,
          "name": "G#3",
          "ticks": 25440,
          "time": 28.909115,
          "velocity": 0.7874015748031497
        },
        {
          "duration": 1.9090924999999999,
          "durationTicks": 1680,
          "midi": 73,
          "name": "C#5",
          "ticks": 25440,
          "time": 28.909115,
          "velocity": 1
        },
        {
          "duration": 1.5000012500000004,
          "durationTicks": 1320,
          "midi": 61,
          "name": "C#4",
          "ticks": 25680,
          "time": 29.181842500000002,
          "velocity": 0.7874015748031497
        },
        {
          "duration": 0.2590911250000012,
          "durationTicks": 228,
          "midi": 75,
          "name": "D#5",
          "ticks": 25680,
          "time": 29.181842500000002,
          "velocity": 1
        },
        {
          "duration": 1.3636374999999994,
          "durationTicks": 1200,
          "midi": 68,
          "name": "G#4",
          "ticks": 25920,
          "time": 29.45457,
          "velocity": 0.7874015748031497
        },
        {
          "duration": 0.2590911250000012,
          "durationTicks": 228,
          "midi": 77,
          "name": "F5",
          "ticks": 25920,
          "time": 29.45457,
          "velocity": 1
        },
        {
          "duration": 0.23181837499999602,
          "durationTicks": 204,
          "midi": 78,
          "name": "F#5",
          "ticks": 26160,
          "time": 29.727297500000002,
          "velocity": 1
        },
        {
          "duration": 0.25000020833333636,
          "durationTicks": 220,
          "midi": 77,
          "name": "F5",
          "ticks": 26400,
          "time": 30.000025,
          "velocity": 1
        },
        {
          "duration": 0.20454562499999795,
          "durationTicks": 180,
          "midi": 75,
          "name": "D#5",
          "ticks": 26640,
          "time": 30.272752500000003,
          "velocity": 1
        },
        {
          "duration": 0.27272749999999846,
          "durationTicks": 240,
          "midi": 46,
          "name": "A#2",
          "ticks": 26880,
          "time": 30.54548,
          "velocity": 0.7874015748031497
        },
        {
          "duration": 0.27272749999999846,
          "durationTicks": 240,
          "midi": 73,
          "name": "C#5",
          "ticks": 26880,
          "time": 30.54548,
          "velocity": 1
        },
        {
          "duration": 0.17840923958333477,
          "durationTicks": 157,
          "midi": 85,
          "name": "C#6",
          "ticks": 26880,
          "time": 30.54548,
          "velocity": 0.7874015748031497
        },
        {
          "duration": 0.1227273750000002,
          "durationTicks": 108,
          "midi": 78,
          "name": "F#5",
          "ticks": 27000,
          "time": 30.681843750000002,
          "velocity": 0.7874015748031497
        },
        {
          "duration": 0.16477286458333396,
          "durationTicks": 145,
          "midi": 82,
          "name": "A#5",
          "ticks": 27000,
          "time": 30.681843750000002,
          "velocity": 0.7874015748031497
        },
        {
          "duration": 1.636365000000005,
          "durationTicks": 1440,
          "midi": 51,
          "name": "D#3",
          "ticks": 27120,
          "time": 30.8182075,
          "velocity": 0.7874015748031497
        },
        {
          "duration": 2.181820000000002,
          "durationTicks": 1920,
          "midi": 51,
          "name": "D#3",
          "ticks": 27120,
          "time": 30.8182075,
          "velocity": 0.7874015748031497
        },
        {
          "duration": 4.090912500000002,
          "durationTicks": 3600,
          "midi": 51,
          "name": "D#3",
          "ticks": 27120,
          "time": 30.8182075,
          "velocity": 0.7874015748031497
        },
        {
          "duration": 1.7727287499999989,
          "durationTicks": 1560,
          "midi": 61,
          "name": "C#4",
          "ticks": 27120,
          "time": 30.8182075,
          "velocity": 0.7874015748031497
        },
        {
          "duration": 1.363637500000003,
          "durationTicks": 1200,
          "midi": 66,
          "name": "F#4",
          "ticks": 27120,
          "time": 30.8182075,
          "velocity": 0.7874015748031497
        },
        {
          "duration": 1.500001250000004,
          "durationTicks": 1320,
          "midi": 70,
          "name": "A#4",
          "ticks": 27120,
          "time": 30.8182075,
          "velocity": 0.7874015748031497
        },
        {
          "duration": 0.7681824583333352,
          "durationTicks": 676,
          "midi": 75,
          "name": "D#5",
          "ticks": 27120,
          "time": 30.8182075,
          "velocity": 1
        },
        {
          "duration": 4.090912500000002,
          "durationTicks": 3600,
          "midi": 75,
          "name": "D#5",
          "ticks": 27120,
          "time": 30.8182075,
          "velocity": 0.7874015748031497
        },
        {
          "duration": 0.136363750000001,
          "durationTicks": 120,
          "midi": 77,
          "name": "F5",
          "ticks": 27120,
          "time": 30.8182075,
          "velocity": 0.7874015748031497
        },
        {
          "duration": 0.8181824999999989,
          "durationTicks": 720,
          "midi": 58,
          "name": "A#3",
          "ticks": 27360,
          "time": 31.090935,
          "velocity": 0.7874015748031497
        },
        {
          "duration": 0.136363750000001,
          "durationTicks": 120,
          "midi": 78,
          "name": "F#5",
          "ticks": 27360,
          "time": 31.090935,
          "velocity": 0.7874015748031497
        },
        {
          "duration": 1.6363650000000014,
          "durationTicks": 1440,
          "midi": 61,
          "name": "C#4",
          "ticks": 27600,
          "time": 31.3636625,
          "velocity": 0.7874015748031497
        },
        {
          "duration": 0.136363750000001,
          "durationTicks": 120,
          "midi": 77,
          "name": "F5",
          "ticks": 27600,
          "time": 31.3636625,
          "velocity": 0.7874015748031497
        },
        {
          "duration": 0.9545462499999964,
          "durationTicks": 840,
          "midi": 66,
          "name": "F#4",
          "ticks": 27840,
          "time": 31.636390000000002,
          "velocity": 0.7874015748031497
        },
        {
          "duration": 0.13636374999999745,
          "durationTicks": 120,
          "midi": 73,
          "name": "C#5",
          "ticks": 27840,
          "time": 31.636390000000002,
          "velocity": 0.7874015748031497
        },
        {
          "duration": 0.136363750000001,
          "durationTicks": 120,
          "midi": 68,
          "name": "G#4",
          "ticks": 28080,
          "time": 31.9091175,
          "velocity": 0.7874015748031497
        },
        {
          "duration": 2.727274999999999,
          "durationTicks": 2400,
          "midi": 58,
          "name": "A#3",
          "ticks": 28320,
          "time": 32.181845,
          "velocity": 0.7874015748031497
        },
        {
          "duration": 0.8181824999999989,
          "durationTicks": 720,
          "midi": 70,
          "name": "A#4",
          "ticks": 28320,
          "time": 32.181845,
          "velocity": 0.7874015748031497
        },
        {
          "duration": 0.2727274999999949,
          "durationTicks": 240,
          "midi": 65,
          "name": "F4",
          "ticks": 28560,
          "time": 32.454572500000005,
          "velocity": 0.7874015748031497
        },
        {
          "duration": 0.5454549999999969,
          "durationTicks": 480,
          "midi": 66,
          "name": "F#4",
          "ticks": 28560,
          "time": 32.454572500000005,
          "velocity": 0.7874015748031497
        },
        {
          "duration": 0.272727500000002,
          "durationTicks": 240,
          "midi": 46,
          "name": "A#2",
          "ticks": 28800,
          "time": 32.7273,
          "velocity": 0.7874015748031497
        },
        {
          "duration": 2.181820000000002,
          "durationTicks": 1920,
          "midi": 63,
          "name": "D#4",
          "ticks": 28800,
          "time": 32.7273,
          "velocity": 0.7874015748031497
        },
        {
          "duration": 0.2045456250000015,
          "durationTicks": 180,
          "midi": 65,
          "name": "F4",
          "ticks": 28800,
          "time": 32.7273,
          "velocity": 0.7874015748031497
        },
        {
          "duration": 1.9090924999999999,
          "durationTicks": 1680,
          "midi": 39,
          "name": "D#2",
          "ticks": 29040,
          "time": 33.0000275,
          "velocity": 0.7874015748031497
        }
      ]
    }
  ]
}

const mid5 = {
  "header": {
    "keySignatures": [
      {
        "key": "C",
        "scale": "major",
        "ticks": 0
      }
    ],
    "meta": [
      {
        "text": "NE",
        "ticks": 0,
        "type": "text"
      }
    ],
    "name": "斗牛市之歌",
    "ppq": 480,
    "tempos": [
      {
        "bpm": 130.00013000013,
        "ticks": 0
      }
    ],
    "timeSignatures": [
      {
        "ticks": 0,
        "timeSignature": [
          2,
          4
        ],
        "measures": 0
      }
    ]
  },
  "tracks": [
    {
      "channel": 0,
      "controlChanges": {
        "7": [
          {
            "number": 7,
            "ticks": 0,
            "time": 0,
            "value": 0.9448818897637795
          },
          {
            "number": 7,
            "ticks": 0,
            "time": 0,
            "value": 0.9448818897637795
          },
          {
            "number": 7,
            "ticks": 0,
            "time": 0,
            "value": 0.9448818897637795
          },
          {
            "number": 7,
            "ticks": 0,
            "time": 0,
            "value": 0.9448818897637795
          },
          {
            "number": 7,
            "ticks": 16320,
            "time": 15.692291999999998,
            "value": 0.9448818897637795
          }
        ],
        "10": [
          {
            "number": 10,
            "ticks": 0,
            "time": 0,
            "value": 0.5039370078740157
          }
        ]
      },
      "pitchBends": [],
      "instrument": {
        "family": "brass",
        "number": 56,
        "name": "trumpet"
      },
      "name": "",
      "notes": [
        {
          "duration": 0.22980746249999998,
          "durationTicks": 239,
          "midi": 71,
          "name": "B4",
          "ticks": 240,
          "time": 0.23076899999999997,
          "velocity": 0.9448818897637795
        },
        {
          "duration": 0.1721152124999999,
          "durationTicks": 179,
          "midi": 72,
          "name": "C5",
          "ticks": 480,
          "time": 0.46153799999999995,
          "velocity": 0.9448818897637795
        },
        {
          "duration": 0.22980746249999995,
          "durationTicks": 239,
          "midi": 52,
          "name": "E3",
          "ticks": 720,
          "time": 0.6923069999999999,
          "velocity": 0.9448818897637795
        },
        {
          "duration": 1.3836524624999997,
          "durationTicks": 1439,
          "midi": 76,
          "name": "E5",
          "ticks": 720,
          "time": 0.6923069999999999,
          "velocity": 0.9448818897637795
        },
        {
          "duration": 0.08749991249999989,
          "durationTicks": 91,
          "midi": 59,
          "name": "B3",
          "ticks": 960,
          "time": 0.9230759999999999,
          "velocity": 0.7559055118110236
        },
        {
          "duration": 0.09807682500000003,
          "durationTicks": 102,
          "midi": 64,
          "name": "E4",
          "ticks": 960,
          "time": 0.9230759999999999,
          "velocity": 0.7559055118110236
        },
        {
          "duration": 0.22980746250000017,
          "durationTicks": 239,
          "midi": 47,
          "name": "B2",
          "ticks": 1200,
          "time": 1.1538449999999998,
          "velocity": 0.9448818897637795
        },
        {
          "duration": 0.09615375000000004,
          "durationTicks": 100,
          "midi": 59,
          "name": "B3",
          "ticks": 1440,
          "time": 1.3846139999999998,
          "velocity": 0.7559055118110236
        },
        {
          "duration": 0.09807682499999992,
          "durationTicks": 102,
          "midi": 64,
          "name": "E4",
          "ticks": 1440,
          "time": 1.3846139999999998,
          "velocity": 0.7559055118110236
        },
        {
          "duration": 0.22980746249999995,
          "durationTicks": 239,
          "midi": 52,
          "name": "E3",
          "ticks": 1680,
          "time": 1.6153829999999998,
          "velocity": 0.9448818897637795
        },
        {
          "duration": 0.0874999125,
          "durationTicks": 91,
          "midi": 59,
          "name": "B3",
          "ticks": 1920,
          "time": 1.8461519999999998,
          "velocity": 0.7559055118110236
        },
        {
          "duration": 0.08653837499999995,
          "durationTicks": 90,
          "midi": 64,
          "name": "E4",
          "ticks": 1920,
          "time": 1.8461519999999998,
          "velocity": 0.7559055118110236
        },
        {
          "duration": 0.22980746250000017,
          "durationTicks": 239,
          "midi": 47,
          "name": "B2",
          "ticks": 2160,
          "time": 2.0769209999999996,
          "velocity": 0.9448818897637795
        },
        {
          "duration": 0.11442296250000039,
          "durationTicks": 119,
          "midi": 74,
          "name": "D5",
          "ticks": 2160,
          "time": 2.0769209999999996,
          "velocity": 0.9448818897637795
        },
        {
          "duration": 0.09423067499999993,
          "durationTicks": 98,
          "midi": 59,
          "name": "B3",
          "ticks": 2400,
          "time": 2.3076899999999996,
          "velocity": 0.7559055118110236
        },
        {
          "duration": 0.0951922125000002,
          "durationTicks": 99,
          "midi": 64,
          "name": "E4",
          "ticks": 2400,
          "time": 2.3076899999999996,
          "velocity": 0.7559055118110236
        },
        {
          "duration": 0.05673071250000028,
          "durationTicks": 59,
          "midi": 76,
          "name": "E5",
          "ticks": 2400,
          "time": 2.3076899999999996,
          "velocity": 0.9448818897637795
        },
        {
          "duration": 0.056730712499999836,
          "durationTicks": 59,
          "midi": 74,
          "name": "D5",
          "ticks": 2520,
          "time": 2.4230745,
          "velocity": 0.9448818897637795
        },
        {
          "duration": 0.22980746250000017,
          "durationTicks": 239,
          "midi": 52,
          "name": "E3",
          "ticks": 2640,
          "time": 2.5384589999999996,
          "velocity": 0.9448818897637795
        },
        {
          "duration": 1.2644218125000002,
          "durationTicks": 1315,
          "midi": 71,
          "name": "B4",
          "ticks": 2640,
          "time": 2.5384589999999996,
          "velocity": 0.9448818897637795
        },
        {
          "duration": 0.09038452500000016,
          "durationTicks": 94,
          "midi": 59,
          "name": "B3",
          "ticks": 2880,
          "time": 2.7692279999999996,
          "velocity": 0.7559055118110236
        },
        {
          "duration": 0.07980761250000024,
          "durationTicks": 83,
          "midi": 64,
          "name": "E4",
          "ticks": 2880,
          "time": 2.7692279999999996,
          "velocity": 0.7559055118110236
        },
        {
          "duration": 0.22980746250000017,
          "durationTicks": 239,
          "midi": 47,
          "name": "B2",
          "ticks": 3120,
          "time": 2.9999969999999996,
          "velocity": 0.9448818897637795
        },
        {
          "duration": 0.05673071250000028,
          "durationTicks": 59,
          "midi": 98,
          "name": "D7",
          "ticks": 3120,
          "time": 2.9999969999999996,
          "velocity": 0.7559055118110236
        },
        {
          "duration": 0.056730712499999836,
          "durationTicks": 59,
          "midi": 100,
          "name": "E7",
          "ticks": 3240,
          "time": 3.1153815,
          "velocity": 0.7559055118110236
        },
        {
          "duration": 0.07980761250000024,
          "durationTicks": 83,
          "midi": 59,
          "name": "B3",
          "ticks": 3360,
          "time": 3.2307659999999996,
          "velocity": 0.7559055118110236
        },
        {
          "duration": 0.0817306874999999,
          "durationTicks": 85,
          "midi": 64,
          "name": "E4",
          "ticks": 3360,
          "time": 3.2307659999999996,
          "velocity": 0.7559055118110236
        },
        {
          "duration": 0.05673071250000028,
          "durationTicks": 59,
          "midi": 98,
          "name": "D7",
          "ticks": 3360,
          "time": 3.2307659999999996,
          "velocity": 0.7559055118110236
        },
        {
          "duration": 0.056730712499999836,
          "durationTicks": 59,
          "midi": 96,
          "name": "C7",
          "ticks": 3480,
          "time": 3.3461505,
          "velocity": 0.7559055118110236
        },
        {
          "duration": 0.22980746250000017,
          "durationTicks": 239,
          "midi": 52,
          "name": "E3",
          "ticks": 3600,
          "time": 3.4615349999999996,
          "velocity": 0.9448818897637795
        },
        {
          "duration": 0.11442296249999995,
          "durationTicks": 119,
          "midi": 95,
          "name": "B6",
          "ticks": 3600,
          "time": 3.4615349999999996,
          "velocity": 0.7559055118110236
        },
        {
          "duration": 0.08846145000000005,
          "durationTicks": 92,
          "midi": 59,
          "name": "B3",
          "ticks": 3840,
          "time": 3.6923039999999996,
          "velocity": 0.7559055118110236
        },
        {
          "duration": 0.08557683750000011,
          "durationTicks": 89,
          "midi": 64,
          "name": "E4",
          "ticks": 3840,
          "time": 3.6923039999999996,
          "velocity": 0.7559055118110236
        },
        {
          "duration": 0.22980746250000017,
          "durationTicks": 239,
          "midi": 47,
          "name": "B2",
          "ticks": 4080,
          "time": 3.9230729999999996,
          "velocity": 0.9448818897637795
        },
        {
          "duration": 0.22980746250000017,
          "durationTicks": 239,
          "midi": 68,
          "name": "G#4",
          "ticks": 4080,
          "time": 3.9230729999999996,
          "velocity": 0.9448818897637795
        },
        {
          "duration": 0.08749991250000022,
          "durationTicks": 91,
          "midi": 59,
          "name": "B3",
          "ticks": 4320,
          "time": 4.153841999999999,
          "velocity": 0.7559055118110236
        },
        {
          "duration": 0.08942298749999988,
          "durationTicks": 93,
          "midi": 64,
          "name": "E4",
          "ticks": 4320,
          "time": 4.153841999999999,
          "velocity": 0.7559055118110236
        },
        {
          "duration": 0.05673071250000028,
          "durationTicks": 59,
          "midi": 69,
          "name": "A4",
          "ticks": 4320,
          "time": 4.153841999999999,
          "velocity": 0.9448818897637795
        },
        {
          "duration": 0.22980746250000017,
          "durationTicks": 239,
          "midi": 52,
          "name": "E3",
          "ticks": 4560,
          "time": 4.384611,
          "velocity": 0.9448818897637795
        },
        {
          "duration": 1.0701912374999996,
          "durationTicks": 1113,
          "midi": 71,
          "name": "B4",
          "ticks": 4560,
          "time": 4.384611,
          "velocity": 0.9448818897637795
        },
        {
          "duration": 0.07788453750000013,
          "durationTicks": 81,
          "midi": 59,
          "name": "B3",
          "ticks": 4800,
          "time": 4.615379999999999,
          "velocity": 0.7559055118110236
        },
        {
          "duration": 0.07980761250000068,
          "durationTicks": 83,
          "midi": 64,
          "name": "E4",
          "ticks": 4800,
          "time": 4.615379999999999,
          "velocity": 0.7559055118110236
        },
        {
          "duration": 0.22980746250000017,
          "durationTicks": 239,
          "midi": 88,
          "name": "E6",
          "ticks": 4800,
          "time": 4.615379999999999,
          "velocity": 0.7559055118110236
        },
        {
          "duration": 0.22980746250000017,
          "durationTicks": 239,
          "midi": 47,
          "name": "B2",
          "ticks": 5040,
          "time": 4.846149,
          "velocity": 0.9448818897637795
        },
        {
          "duration": 0.05673071250000028,
          "durationTicks": 59,
          "midi": 92,
          "name": "G#6",
          "ticks": 5040,
          "time": 4.846149,
          "velocity": 0.7559055118110236
        },
        {
          "duration": 0.05673071249999939,
          "durationTicks": 59,
          "midi": 88,
          "name": "E6",
          "ticks": 5160,
          "time": 4.9615335,
          "velocity": 0.7559055118110236
        },
        {
          "duration": 0.06346147499999955,
          "durationTicks": 66,
          "midi": 59,
          "name": "B3",
          "ticks": 5280,
          "time": 5.076917999999999,
          "velocity": 0.7559055118110236
        },
        {
          "duration": 0.06442301249999982,
          "durationTicks": 67,
          "midi": 64,
          "name": "E4",
          "ticks": 5280,
          "time": 5.076917999999999,
          "velocity": 0.7559055118110236
        },
        {
          "duration": 0.05673071250000028,
          "durationTicks": 59,
          "midi": 92,
          "name": "G#6",
          "ticks": 5280,
          "time": 5.076917999999999,
          "velocity": 0.7559055118110236
        },
        {
          "duration": 0.05673071250000028,
          "durationTicks": 59,
          "midi": 93,
          "name": "A6",
          "ticks": 5400,
          "time": 5.192302499999999,
          "velocity": 0.7559055118110236
        },
        {
          "duration": 0.22980746250000017,
          "durationTicks": 239,
          "midi": 52,
          "name": "E3",
          "ticks": 5520,
          "time": 5.307687,
          "velocity": 0.9448818897637795
        },
        {
          "duration": 0.11442296249999995,
          "durationTicks": 119,
          "midi": 95,
          "name": "B6",
          "ticks": 5520,
          "time": 5.307687,
          "velocity": 0.7559055118110236
        },
        {
          "duration": 0.07019223750000059,
          "durationTicks": 73,
          "midi": 59,
          "name": "B3",
          "ticks": 5760,
          "time": 5.538455999999999,
          "velocity": 0.7559055118110236
        },
        {
          "duration": 0.07403838749999991,
          "durationTicks": 77,
          "midi": 64,
          "name": "E4",
          "ticks": 5760,
          "time": 5.538455999999999,
          "velocity": 0.7559055118110236
        },
        {
          "duration": 0.09999990000000025,
          "durationTicks": 104,
          "midi": 69,
          "name": "A4",
          "ticks": 5760,
          "time": 5.538455999999999,
          "velocity": 0.9448818897637795
        },
        {
          "duration": 0.22980746250000017,
          "durationTicks": 239,
          "midi": 47,
          "name": "B2",
          "ticks": 6000,
          "time": 5.769225,
          "velocity": 0.9448818897637795
        },
        {
          "duration": 0.05673071249999939,
          "durationTicks": 59,
          "midi": 67,
          "name": "G4",
          "ticks": 6000,
          "time": 5.769225,
          "velocity": 0.9448818897637795
        },
        {
          "duration": 0.05673071250000028,
          "durationTicks": 59,
          "midi": 69,
          "name": "A4",
          "ticks": 6120,
          "time": 5.884609499999999,
          "velocity": 0.9448818897637795
        },
        {
          "duration": 0.05384610000000034,
          "durationTicks": 56,
          "midi": 59,
          "name": "B3",
          "ticks": 6240,
          "time": 5.999993999999999,
          "velocity": 0.7559055118110236
        },
        {
          "duration": 0.07788453750000013,
          "durationTicks": 81,
          "midi": 64,
          "name": "E4",
          "ticks": 6240,
          "time": 5.999993999999999,
          "velocity": 0.7559055118110236
        },
        {
          "duration": 0.05673071250000028,
          "durationTicks": 59,
          "midi": 67,
          "name": "G4",
          "ticks": 6240,
          "time": 5.999993999999999,
          "velocity": 0.9448818897637795
        },
        {
          "duration": 0.05673071250000028,
          "durationTicks": 59,
          "midi": 65,
          "name": "F4",
          "ticks": 6360,
          "time": 6.115378499999999,
          "velocity": 0.9448818897637795
        },
        {
          "duration": 0.22980746249999928,
          "durationTicks": 239,
          "midi": 52,
          "name": "E3",
          "ticks": 6480,
          "time": 6.230763,
          "velocity": 0.9448818897637795
        },
        {
          "duration": 0.30673046249999913,
          "durationTicks": 319,
          "midi": 64,
          "name": "E4",
          "ticks": 6480,
          "time": 6.230763,
          "velocity": 0.9448818897637795
        },
        {
          "duration": 0.07596146249999958,
          "durationTicks": 79,
          "midi": 59,
          "name": "B3",
          "ticks": 6720,
          "time": 6.461531999999999,
          "velocity": 0.7559055118110236
        },
        {
          "duration": 0.5432686875000003,
          "durationTicks": 565,
          "midi": 64,
          "name": "E4",
          "ticks": 6720,
          "time": 6.461531999999999,
          "velocity": 0.7559055118110236
        },
        {
          "duration": 0.22980746250000017,
          "durationTicks": 239,
          "midi": 88,
          "name": "E6",
          "ticks": 6720,
          "time": 6.461531999999999,
          "velocity": 0.7559055118110236
        },
        {
          "duration": 0.22980746249999928,
          "durationTicks": 239,
          "midi": 47,
          "name": "B2",
          "ticks": 6960,
          "time": 6.692301,
          "velocity": 0.9448818897637795
        },
        {
          "duration": 0.05673071249999939,
          "durationTicks": 59,
          "midi": 92,
          "name": "G#6",
          "ticks": 6960,
          "time": 6.692301,
          "velocity": 0.7559055118110236
        },
        {
          "duration": 0.05673071250000028,
          "durationTicks": 59,
          "midi": 88,
          "name": "E6",
          "ticks": 7080,
          "time": 6.807685499999999,
          "velocity": 0.7559055118110236
        },
        {
          "duration": 0.07596146249999958,
          "durationTicks": 79,
          "midi": 59,
          "name": "B3",
          "ticks": 7200,
          "time": 6.923069999999999,
          "velocity": 0.7559055118110236
        },
        {
          "duration": 0.548076375,
          "durationTicks": 570,
          "midi": 64,
          "name": "E4",
          "ticks": 7200,
          "time": 6.923069999999999,
          "velocity": 0.7559055118110236
        },
        {
          "duration": 0.05673071250000028,
          "durationTicks": 59,
          "midi": 92,
          "name": "G#6",
          "ticks": 7200,
          "time": 6.923069999999999,
          "velocity": 0.7559055118110236
        },
        {
          "duration": 0.05673071250000028,
          "durationTicks": 59,
          "midi": 95,
          "name": "B6",
          "ticks": 7320,
          "time": 7.038454499999999,
          "velocity": 0.7559055118110236
        },
        {
          "duration": 0.22980746249999928,
          "durationTicks": 239,
          "midi": 52,
          "name": "E3",
          "ticks": 7440,
          "time": 7.153839,
          "velocity": 0.9448818897637795
        },
        {
          "duration": 0.11442296249999995,
          "durationTicks": 119,
          "midi": 100,
          "name": "E7",
          "ticks": 7440,
          "time": 7.153839,
          "velocity": 0.7559055118110236
        },
        {
          "duration": 0.08173068749999945,
          "durationTicks": 85,
          "midi": 59,
          "name": "B3",
          "ticks": 7680,
          "time": 7.384607999999999,
          "velocity": 0.7559055118110236
        },
        {
          "duration": 0.08846144999999961,
          "durationTicks": 92,
          "midi": 64,
          "name": "E4",
          "ticks": 7680,
          "time": 7.384607999999999,
          "velocity": 0.7559055118110236
        },
        {
          "duration": 0.22980746249999928,
          "durationTicks": 239,
          "midi": 47,
          "name": "B2",
          "ticks": 7920,
          "time": 7.615376999999999,
          "velocity": 0.9448818897637795
        },
        {
          "duration": 0.22980746249999928,
          "durationTicks": 239,
          "midi": 71,
          "name": "B4",
          "ticks": 7920,
          "time": 7.615376999999999,
          "velocity": 0.9448818897637795
        },
        {
          "duration": 0.060576862500000495,
          "durationTicks": 63,
          "midi": 59,
          "name": "B3",
          "ticks": 8160,
          "time": 7.846145999999999,
          "velocity": 0.7559055118110236
        },
        {
          "duration": 0.07403838749999991,
          "durationTicks": 77,
          "midi": 64,
          "name": "E4",
          "ticks": 8160,
          "time": 7.846145999999999,
          "velocity": 0.7559055118110236
        },
        {
          "duration": 0.12403833750000004,
          "durationTicks": 129,
          "midi": 72,
          "name": "C5",
          "ticks": 8160,
          "time": 7.846145999999999,
          "velocity": 0.9448818897637795
        },
        {
          "duration": 0.2298074624999984,
          "durationTicks": 239,
          "midi": 52,
          "name": "E3",
          "ticks": 8400,
          "time": 8.076915,
          "velocity": 0.9448818897637795
        },
        {
          "duration": 1.06538355,
          "durationTicks": 1108,
          "midi": 76,
          "name": "E5",
          "ticks": 8400,
          "time": 8.076915,
          "velocity": 0.9448818897637795
        },
        {
          "duration": 0.087499912500002,
          "durationTicks": 91,
          "midi": 59,
          "name": "B3",
          "ticks": 8640,
          "time": 8.307683999999998,
          "velocity": 0.7559055118110236
        },
        {
          "duration": 0.0980768249999997,
          "durationTicks": 102,
          "midi": 64,
          "name": "E4",
          "ticks": 8640,
          "time": 8.307683999999998,
          "velocity": 0.7559055118110236
        },
        {
          "duration": 0.22980746250000017,
          "durationTicks": 239,
          "midi": 47,
          "name": "B2",
          "ticks": 8880,
          "time": 8.538452999999999,
          "velocity": 0.9448818897637795
        },
        {
          "duration": 0.05673071250000028,
          "durationTicks": 59,
          "midi": 97,
          "name": "C#7",
          "ticks": 8880,
          "time": 8.538452999999999,
          "velocity": 0.7559055118110236
        },
        {
          "duration": 0.056730712499998504,
          "durationTicks": 59,
          "midi": 95,
          "name": "B6",
          "ticks": 9000,
          "time": 8.6538375,
          "velocity": 0.7559055118110236
        },
        {
          "duration": 0.09615374999999915,
          "durationTicks": 100,
          "midi": 59,
          "name": "B3",
          "ticks": 9120,
          "time": 8.769222,
          "velocity": 0.7559055118110236
        },
        {
          "duration": 0.0980768249999997,
          "durationTicks": 102,
          "midi": 64,
          "name": "E4",
          "ticks": 9120,
          "time": 8.769222,
          "velocity": 0.7559055118110236
        },
        {
          "duration": 0.056730712499998504,
          "durationTicks": 59,
          "midi": 97,
          "name": "C#7",
          "ticks": 9120,
          "time": 8.769222,
          "velocity": 0.7559055118110236
        },
        {
          "duration": 0.05673071250000028,
          "durationTicks": 59,
          "midi": 98,
          "name": "D7",
          "ticks": 9240,
          "time": 8.884606499999999,
          "velocity": 0.7559055118110236
        },
        {
          "duration": 0.2298074624999984,
          "durationTicks": 239,
          "midi": 52,
          "name": "E3",
          "ticks": 9360,
          "time": 8.999991,
          "velocity": 0.9448818897637795
        },
        {
          "duration": 0.11442296249999906,
          "durationTicks": 119,
          "midi": 100,
          "name": "E7",
          "ticks": 9360,
          "time": 8.999991,
          "velocity": 0.7559055118110236
        },
        {
          "duration": 0.087499912500002,
          "durationTicks": 91,
          "midi": 59,
          "name": "B3",
          "ticks": 9600,
          "time": 9.230759999999998,
          "velocity": 0.7559055118110236
        },
        {
          "duration": 0.08653837499999995,
          "durationTicks": 90,
          "midi": 64,
          "name": "E4",
          "ticks": 9600,
          "time": 9.230759999999998,
          "velocity": 0.7559055118110236
        },
        {
          "duration": 0.10384605000000136,
          "durationTicks": 108,
          "midi": 74,
          "name": "D5",
          "ticks": 9600,
          "time": 9.230759999999998,
          "velocity": 0.9448818897637795
        },
        {
          "duration": 0.22980746250000017,
          "durationTicks": 239,
          "midi": 47,
          "name": "B2",
          "ticks": 9840,
          "time": 9.461528999999999,
          "velocity": 0.9448818897637795
        },
        {
          "duration": 0.05673071250000028,
          "durationTicks": 59,
          "midi": 72,
          "name": "C5",
          "ticks": 9840,
          "time": 9.461528999999999,
          "velocity": 0.9448818897637795
        },
        {
          "duration": 0.05673071250000028,
          "durationTicks": 59,
          "midi": 71,
          "name": "B4",
          "ticks": 9960,
          "time": 9.576913499999998,
          "velocity": 0.9448818897637795
        },
        {
          "duration": 0.0942306749999986,
          "durationTicks": 98,
          "midi": 59,
          "name": "B3",
          "ticks": 10080,
          "time": 9.692298,
          "velocity": 0.7559055118110236
        },
        {
          "duration": 0.09519221250000065,
          "durationTicks": 99,
          "midi": 64,
          "name": "E4",
          "ticks": 10080,
          "time": 9.692298,
          "velocity": 0.7559055118110236
        },
        {
          "duration": 0.056730712499998504,
          "durationTicks": 59,
          "midi": 69,
          "name": "A4",
          "ticks": 10080,
          "time": 9.692298,
          "velocity": 0.9448818897637795
        },
        {
          "duration": 0.05673071250000028,
          "durationTicks": 59,
          "midi": 71,
          "name": "B4",
          "ticks": 10200,
          "time": 9.807682499999999,
          "velocity": 0.9448818897637795
        },
        {
          "duration": 0.2298074624999984,
          "durationTicks": 239,
          "midi": 48,
          "name": "C3",
          "ticks": 10320,
          "time": 9.923067,
          "velocity": 0.9448818897637795
        },
        {
          "duration": 0.17211521249999784,
          "durationTicks": 179,
          "midi": 72,
          "name": "C5",
          "ticks": 10320,
          "time": 9.923067,
          "velocity": 0.9448818897637795
        },
        {
          "duration": 0.08461530000000117,
          "durationTicks": 88,
          "midi": 55,
          "name": "G3",
          "ticks": 10560,
          "time": 10.153835999999998,
          "velocity": 0.7559055118110236
        },
        {
          "duration": 0.09038452500000105,
          "durationTicks": 94,
          "midi": 60,
          "name": "C4",
          "ticks": 10560,
          "time": 10.153835999999998,
          "velocity": 0.7559055118110236
        },
        {
          "duration": 0.07980761249999979,
          "durationTicks": 83,
          "midi": 64,
          "name": "E4",
          "ticks": 10560,
          "time": 10.153835999999998,
          "velocity": 0.7559055118110236
        },
        {
          "duration": 0.07596146250000047,
          "durationTicks": 79,
          "midi": 74,
          "name": "D5",
          "ticks": 10560,
          "time": 10.153835999999998,
          "velocity": 0.9448818897637795
        },
        {
          "duration": 0.07596146250000047,
          "durationTicks": 79,
          "midi": 72,
          "name": "C5",
          "ticks": 10640,
          "time": 10.230758999999999,
          "velocity": 0.9448818897637795
        },
        {
          "duration": 0.07596146250000047,
          "durationTicks": 79,
          "midi": 71,
          "name": "B4",
          "ticks": 10720,
          "time": 10.307681999999998,
          "velocity": 0.9448818897637795
        },
        {
          "duration": 0.22980746250000017,
          "durationTicks": 239,
          "midi": 43,
          "name": "G2",
          "ticks": 10800,
          "time": 10.384604999999999,
          "velocity": 0.9448818897637795
        },
        {
          "duration": 0.6913454624999993,
          "durationTicks": 719,
          "midi": 72,
          "name": "C5",
          "ticks": 10800,
          "time": 10.384604999999999,
          "velocity": 0.9448818897637795
        },
        {
          "duration": 0.07980761249999979,
          "durationTicks": 83,
          "midi": 55,
          "name": "G3",
          "ticks": 11040,
          "time": 10.615374,
          "velocity": 0.7559055118110236
        },
        {
          "duration": 0.07980761249999979,
          "durationTicks": 83,
          "midi": 60,
          "name": "C4",
          "ticks": 11040,
          "time": 10.615374,
          "velocity": 0.7559055118110236
        },
        {
          "duration": 0.08173068749999857,
          "durationTicks": 85,
          "midi": 64,
          "name": "E4",
          "ticks": 11040,
          "time": 10.615374,
          "velocity": 0.7559055118110236
        },
        {
          "duration": 0.2298074624999984,
          "durationTicks": 239,
          "midi": 41,
          "name": "F2",
          "ticks": 11280,
          "time": 10.846143,
          "velocity": 0.9448818897637795
        },
        {
          "duration": 0.037499962500000095,
          "durationTicks": 39,
          "midi": 98,
          "name": "D7",
          "ticks": 11280,
          "time": 10.846143,
          "velocity": 0.7559055118110236
        },
        {
          "duration": 0.037499962500000095,
          "durationTicks": 39,
          "midi": 96,
          "name": "C7",
          "ticks": 11320,
          "time": 10.884604499999998,
          "velocity": 0.7559055118110236
        },
        {
          "duration": 0.037499962500000095,
          "durationTicks": 39,
          "midi": 98,
          "name": "D7",
          "ticks": 11360,
          "time": 10.923065999999999,
          "velocity": 0.7559055118110236
        },
        {
          "duration": 0.037499962500000095,
          "durationTicks": 39,
          "midi": 96,
          "name": "C7",
          "ticks": 11400,
          "time": 10.961527499999999,
          "velocity": 0.7559055118110236
        },
        {
          "duration": 0.037499962500000095,
          "durationTicks": 39,
          "midi": 98,
          "name": "D7",
          "ticks": 11440,
          "time": 10.999988999999998,
          "velocity": 0.7559055118110236
        },
        {
          "duration": 0.03749996249999832,
          "durationTicks": 39,
          "midi": 96,
          "name": "C7",
          "ticks": 11480,
          "time": 11.0384505,
          "velocity": 0.7559055118110236
        },
        {
          "duration": 0.0884614500000005,
          "durationTicks": 92,
          "midi": 60,
          "name": "C4",
          "ticks": 11520,
          "time": 11.076911999999998,
          "velocity": 0.7559055118110236
        },
        {
          "duration": 0.08557683749999967,
          "durationTicks": 89,
          "midi": 65,
          "name": "F4",
          "ticks": 11520,
          "time": 11.076911999999998,
          "velocity": 0.7559055118110236
        },
        {
          "duration": 0.05673071250000028,
          "durationTicks": 59,
          "midi": 70,
          "name": "A#4",
          "ticks": 11520,
          "time": 11.076911999999998,
          "velocity": 0.9448818897637795
        },
        {
          "duration": 0.037499962500000095,
          "durationTicks": 39,
          "midi": 98,
          "name": "D7",
          "ticks": 11520,
          "time": 11.076911999999998,
          "velocity": 0.7559055118110236
        },
        {
          "duration": 0.037499962500000095,
          "durationTicks": 39,
          "midi": 96,
          "name": "C7",
          "ticks": 11560,
          "time": 11.115373499999999,
          "velocity": 0.7559055118110236
        },
        {
          "duration": 0.03749996249999832,
          "durationTicks": 39,
          "midi": 98,
          "name": "D7",
          "ticks": 11600,
          "time": 11.153834999999999,
          "velocity": 0.7559055118110236
        },
        {
          "duration": 0.056730712499998504,
          "durationTicks": 59,
          "midi": 72,
          "name": "C5",
          "ticks": 11640,
          "time": 11.1922965,
          "velocity": 0.9448818897637795
        },
        {
          "duration": 0.037499962500000095,
          "durationTicks": 39,
          "midi": 96,
          "name": "C7",
          "ticks": 11640,
          "time": 11.1922965,
          "velocity": 0.7559055118110236
        },
        {
          "duration": 0.037499962500000095,
          "durationTicks": 39,
          "midi": 98,
          "name": "D7",
          "ticks": 11680,
          "time": 11.230757999999998,
          "velocity": 0.7559055118110236
        },
        {
          "duration": 0.17211521249999784,
          "durationTicks": 179,
          "midi": 96,
          "name": "C7",
          "ticks": 11720,
          "time": 11.2692195,
          "velocity": 0.7559055118110236
        },
        {
          "duration": 0.2298074624999984,
          "durationTicks": 239,
          "midi": 48,
          "name": "C3",
          "ticks": 11760,
          "time": 11.307680999999999,
          "velocity": 0.9448818897637795
        },
        {
          "duration": 0.056730712499998504,
          "durationTicks": 59,
          "midi": 70,
          "name": "A#4",
          "ticks": 11760,
          "time": 11.307680999999999,
          "velocity": 0.9448818897637795
        },
        {
          "duration": 0.05673071250000028,
          "durationTicks": 59,
          "midi": 69,
          "name": "A4",
          "ticks": 11880,
          "time": 11.423065499999998,
          "velocity": 0.9448818897637795
        },
        {
          "duration": 0.08749991250000022,
          "durationTicks": 91,
          "midi": 60,
          "name": "C4",
          "ticks": 12000,
          "time": 11.53845,
          "velocity": 0.7559055118110236
        },
        {
          "duration": 0.08942298750000077,
          "durationTicks": 93,
          "midi": 65,
          "name": "F4",
          "ticks": 12000,
          "time": 11.53845,
          "velocity": 0.7559055118110236
        },
        {
          "duration": 0.056730712499998504,
          "durationTicks": 59,
          "midi": 67,
          "name": "G4",
          "ticks": 12000,
          "time": 11.53845,
          "velocity": 0.9448818897637795
        },
        {
          "duration": 0.056730712499998504,
          "durationTicks": 59,
          "midi": 69,
          "name": "A4",
          "ticks": 12120,
          "time": 11.653834499999999,
          "velocity": 0.9448818897637795
        },
        {
          "duration": 0.22980746250000017,
          "durationTicks": 239,
          "midi": 46,
          "name": "A#2",
          "ticks": 12240,
          "time": 11.769218999999998,
          "velocity": 0.9448818897637795
        },
        {
          "duration": 0.17211521249999961,
          "durationTicks": 179,
          "midi": 70,
          "name": "A#4",
          "ticks": 12240,
          "time": 11.769218999999998,
          "velocity": 0.9448818897637795
        },
        {
          "duration": 0.07211531250000114,
          "durationTicks": 75,
          "midi": 58,
          "name": "A#3",
          "ticks": 12480,
          "time": 11.999987999999998,
          "velocity": 0.7559055118110236
        },
        {
          "duration": 0.07788453749999924,
          "durationTicks": 81,
          "midi": 62,
          "name": "D4",
          "ticks": 12480,
          "time": 11.999987999999998,
          "velocity": 0.7559055118110236
        },
        {
          "duration": 0.07980761249999979,
          "durationTicks": 83,
          "midi": 65,
          "name": "F4",
          "ticks": 12480,
          "time": 11.999987999999998,
          "velocity": 0.7559055118110236
        },
        {
          "duration": 0.07596146250000047,
          "durationTicks": 79,
          "midi": 72,
          "name": "C5",
          "ticks": 12480,
          "time": 11.999987999999998,
          "velocity": 0.9448818897637795
        },
        {
          "duration": 0.07596146250000047,
          "durationTicks": 79,
          "midi": 70,
          "name": "A#4",
          "ticks": 12560,
          "time": 12.076910999999999,
          "velocity": 0.9448818897637795
        },
        {
          "duration": 0.07596146250000047,
          "durationTicks": 79,
          "midi": 69,
          "name": "A4",
          "ticks": 12640,
          "time": 12.153833999999998,
          "velocity": 0.9448818897637795
        },
        {
          "duration": 0.2298074624999984,
          "durationTicks": 239,
          "midi": 41,
          "name": "F2",
          "ticks": 12720,
          "time": 12.230756999999999,
          "velocity": 0.9448818897637795
        },
        {
          "duration": 0.6913454624999993,
          "durationTicks": 719,
          "midi": 70,
          "name": "A#4",
          "ticks": 12720,
          "time": 12.230756999999999,
          "velocity": 0.9448818897637795
        },
        {
          "duration": 0.06346147499999866,
          "durationTicks": 66,
          "midi": 58,
          "name": "A#3",
          "ticks": 12960,
          "time": 12.461526,
          "velocity": 0.7559055118110236
        },
        {
          "duration": 0.06346147499999866,
          "durationTicks": 66,
          "midi": 62,
          "name": "D4",
          "ticks": 12960,
          "time": 12.461526,
          "velocity": 0.7559055118110236
        },
        {
          "duration": 0.06442301249999893,
          "durationTicks": 67,
          "midi": 65,
          "name": "F4",
          "ticks": 12960,
          "time": 12.461526,
          "velocity": 0.7559055118110236
        },
        {
          "duration": 0.22980746250000017,
          "durationTicks": 239,
          "midi": 46,
          "name": "A#2",
          "ticks": 13200,
          "time": 12.692294999999998,
          "velocity": 0.9448818897637795
        },
        {
          "duration": 0.03749996250000187,
          "durationTicks": 39,
          "midi": 96,
          "name": "C7",
          "ticks": 13200,
          "time": 12.692294999999998,
          "velocity": 0.7559055118110236
        },
        {
          "duration": 0.037499962500000095,
          "durationTicks": 39,
          "midi": 94,
          "name": "A#6",
          "ticks": 13240,
          "time": 12.730756499999998,
          "velocity": 0.7559055118110236
        },
        {
          "duration": 0.03749996249999832,
          "durationTicks": 39,
          "midi": 96,
          "name": "C7",
          "ticks": 13280,
          "time": 12.769217999999999,
          "velocity": 0.7559055118110236
        },
        {
          "duration": 0.037499962500000095,
          "durationTicks": 39,
          "midi": 94,
          "name": "A#6",
          "ticks": 13320,
          "time": 12.807679499999999,
          "velocity": 0.7559055118110236
        },
        {
          "duration": 0.037499962500000095,
          "durationTicks": 39,
          "midi": 96,
          "name": "C7",
          "ticks": 13360,
          "time": 12.846140999999998,
          "velocity": 0.7559055118110236
        },
        {
          "duration": 0.03749996249999832,
          "durationTicks": 39,
          "midi": 94,
          "name": "A#6",
          "ticks": 13400,
          "time": 12.8846025,
          "velocity": 0.7559055118110236
        },
        {
          "duration": 0.06346147500000043,
          "durationTicks": 66,
          "midi": 58,
          "name": "A#3",
          "ticks": 13440,
          "time": 12.923063999999998,
          "velocity": 0.7559055118110236
        },
        {
          "duration": 0.07019223750000059,
          "durationTicks": 73,
          "midi": 62,
          "name": "D4",
          "ticks": 13440,
          "time": 12.923063999999998,
          "velocity": 0.7559055118110236
        },
        {
          "duration": 0.07403838749999991,
          "durationTicks": 77,
          "midi": 65,
          "name": "F4",
          "ticks": 13440,
          "time": 12.923063999999998,
          "velocity": 0.7559055118110236
        },
        {
          "duration": 0.05673071250000028,
          "durationTicks": 59,
          "midi": 69,
          "name": "A4",
          "ticks": 13440,
          "time": 12.923063999999998,
          "velocity": 0.9448818897637795
        },
        {
          "duration": 0.037499962500000095,
          "durationTicks": 39,
          "midi": 96,
          "name": "C7",
          "ticks": 13440,
          "time": 12.923063999999998,
          "velocity": 0.7559055118110236
        },
        {
          "duration": 0.037499962500000095,
          "durationTicks": 39,
          "midi": 94,
          "name": "A#6",
          "ticks": 13480,
          "time": 12.961525499999999,
          "velocity": 0.7559055118110236
        },
        {
          "duration": 0.03749996249999832,
          "durationTicks": 39,
          "midi": 96,
          "name": "C7",
          "ticks": 13520,
          "time": 12.999986999999999,
          "velocity": 0.7559055118110236
        },
        {
          "duration": 0.05673071250000028,
          "durationTicks": 59,
          "midi": 70,
          "name": "A#4",
          "ticks": 13560,
          "time": 13.038448499999998,
          "velocity": 0.9448818897637795
        },
        {
          "duration": 0.03749996250000187,
          "durationTicks": 39,
          "midi": 94,
          "name": "A#6",
          "ticks": 13560,
          "time": 13.038448499999998,
          "velocity": 0.7559055118110236
        },
        {
          "duration": 0.037499962500000095,
          "durationTicks": 39,
          "midi": 96,
          "name": "C7",
          "ticks": 13600,
          "time": 13.076909999999998,
          "velocity": 0.7559055118110236
        },
        {
          "duration": 0.17211521249999961,
          "durationTicks": 179,
          "midi": 94,
          "name": "A#6",
          "ticks": 13640,
          "time": 13.115371499999998,
          "velocity": 0.7559055118110236
        },
        {
          "duration": 0.2298074624999984,
          "durationTicks": 239,
          "midi": 41,
          "name": "F2",
          "ticks": 13680,
          "time": 13.153832999999999,
          "velocity": 0.9448818897637795
        },
        {
          "duration": 0.056730712499998504,
          "durationTicks": 59,
          "midi": 69,
          "name": "A4",
          "ticks": 13680,
          "time": 13.153832999999999,
          "velocity": 0.9448818897637795
        },
        {
          "duration": 0.05673071250000028,
          "durationTicks": 59,
          "midi": 68,
          "name": "G#4",
          "ticks": 13800,
          "time": 13.269217499999998,
          "velocity": 0.9448818897637795
        },
        {
          "duration": 0.07211531249999936,
          "durationTicks": 75,
          "midi": 58,
          "name": "A#3",
          "ticks": 13920,
          "time": 13.384602,
          "velocity": 0.7559055118110236
        },
        {
          "duration": 0.05384609999999945,
          "durationTicks": 56,
          "midi": 62,
          "name": "D4",
          "ticks": 13920,
          "time": 13.384602,
          "velocity": 0.7559055118110236
        },
        {
          "duration": 0.07788453749999924,
          "durationTicks": 81,
          "midi": 65,
          "name": "F4",
          "ticks": 13920,
          "time": 13.384602,
          "velocity": 0.7559055118110236
        },
        {
          "duration": 0.056730712499998504,
          "durationTicks": 59,
          "midi": 66,
          "name": "F#4",
          "ticks": 13920,
          "time": 13.384602,
          "velocity": 0.9448818897637795
        },
        {
          "duration": 0.056730712499998504,
          "durationTicks": 59,
          "midi": 68,
          "name": "G#4",
          "ticks": 14040,
          "time": 13.499986499999999,
          "velocity": 0.9448818897637795
        },
        {
          "duration": 0.22980746250000017,
          "durationTicks": 239,
          "midi": 45,
          "name": "A2",
          "ticks": 14160,
          "time": 13.615370999999998,
          "velocity": 0.9448818897637795
        },
        {
          "duration": 0.17211521249999961,
          "durationTicks": 179,
          "midi": 69,
          "name": "A4",
          "ticks": 14160,
          "time": 13.615370999999998,
          "velocity": 0.9448818897637795
        },
        {
          "duration": 0.07596146250000047,
          "durationTicks": 79,
          "midi": 60,
          "name": "C4",
          "ticks": 14400,
          "time": 13.846139999999998,
          "velocity": 0.7559055118110236
        },
        {
          "duration": 0.07596146250000047,
          "durationTicks": 79,
          "midi": 64,
          "name": "E4",
          "ticks": 14400,
          "time": 13.846139999999998,
          "velocity": 0.7559055118110236
        },
        {
          "duration": 0.07596146250000047,
          "durationTicks": 79,
          "midi": 70,
          "name": "A#4",
          "ticks": 14400,
          "time": 13.846139999999998,
          "velocity": 0.9448818897637795
        },
        {
          "duration": 0.07596146250000047,
          "durationTicks": 79,
          "midi": 69,
          "name": "A4",
          "ticks": 14480,
          "time": 13.923062999999999,
          "velocity": 0.9448818897637795
        },
        {
          "duration": 0.07596146250000047,
          "durationTicks": 79,
          "midi": 68,
          "name": "G#4",
          "ticks": 14560,
          "time": 13.999985999999998,
          "velocity": 0.9448818897637795
        },
        {
          "duration": 0.2298074624999984,
          "durationTicks": 239,
          "midi": 40,
          "name": "E2",
          "ticks": 14640,
          "time": 14.076908999999999,
          "velocity": 0.9448818897637795
        },
        {
          "duration": 0.6913454624999993,
          "durationTicks": 719,
          "midi": 69,
          "name": "A4",
          "ticks": 14640,
          "time": 14.076908999999999,
          "velocity": 0.9448818897637795
        },
        {
          "duration": 0.07596146249999869,
          "durationTicks": 79,
          "midi": 60,
          "name": "C4",
          "ticks": 14880,
          "time": 14.307678,
          "velocity": 0.7559055118110236
        },
        {
          "duration": 0.08173068749999857,
          "durationTicks": 85,
          "midi": 64,
          "name": "E4",
          "ticks": 14880,
          "time": 14.307678,
          "velocity": 0.7559055118110236
        },
        {
          "duration": 0.22980746250000017,
          "durationTicks": 239,
          "midi": 45,
          "name": "A2",
          "ticks": 15120,
          "time": 14.538446999999998,
          "velocity": 0.9448818897637795
        },
        {
          "duration": 0.037499962500000095,
          "durationTicks": 39,
          "midi": 95,
          "name": "B6",
          "ticks": 15120,
          "time": 14.538446999999998,
          "velocity": 0.7559055118110236
        },
        {
          "duration": 0.037499962500000095,
          "durationTicks": 39,
          "midi": 93,
          "name": "A6",
          "ticks": 15160,
          "time": 14.576908499999998,
          "velocity": 0.7559055118110236
        },
        {
          "duration": 0.03749996249999832,
          "durationTicks": 39,
          "midi": 95,
          "name": "B6",
          "ticks": 15200,
          "time": 14.615369999999999,
          "velocity": 0.7559055118110236
        },
        {
          "duration": 0.037499962500000095,
          "durationTicks": 39,
          "midi": 93,
          "name": "A6",
          "ticks": 15240,
          "time": 14.653831499999999,
          "velocity": 0.7559055118110236
        },
        {
          "duration": 0.037499962500000095,
          "durationTicks": 39,
          "midi": 95,
          "name": "B6",
          "ticks": 15280,
          "time": 14.692292999999998,
          "velocity": 0.7559055118110236
        },
        {
          "duration": 0.03749996249999832,
          "durationTicks": 39,
          "midi": 93,
          "name": "A6",
          "ticks": 15320,
          "time": 14.7307545,
          "velocity": 0.7559055118110236
        },
        {
          "duration": 0.08173068750000034,
          "durationTicks": 85,
          "midi": 60,
          "name": "C4",
          "ticks": 15360,
          "time": 14.769215999999998,
          "velocity": 0.7559055118110236
        },
        {
          "duration": 0.08846145000000227,
          "durationTicks": 92,
          "midi": 64,
          "name": "E4",
          "ticks": 15360,
          "time": 14.769215999999998,
          "velocity": 0.7559055118110236
        },
        {
          "duration": 0.07596146250000047,
          "durationTicks": 79,
          "midi": 69,
          "name": "A4",
          "ticks": 15360,
          "time": 14.769215999999998,
          "velocity": 0.9448818897637795
        },
        {
          "duration": 0.03749996249999832,
          "durationTicks": 39,
          "midi": 95,
          "name": "B6",
          "ticks": 15360,
          "time": 14.769215999999998,
          "velocity": 0.7559055118110236
        },
        {
          "duration": 0.037499962500000095,
          "durationTicks": 39,
          "midi": 93,
          "name": "A6",
          "ticks": 15400,
          "time": 14.807677499999999,
          "velocity": 0.7559055118110236
        },
        {
          "duration": 0.07596146250000047,
          "durationTicks": 79,
          "midi": 71,
          "name": "B4",
          "ticks": 15440,
          "time": 14.846138999999997,
          "velocity": 0.9448818897637795
        },
        {
          "duration": 0.03749996250000187,
          "durationTicks": 39,
          "midi": 95,
          "name": "B6",
          "ticks": 15440,
          "time": 14.846138999999997,
          "velocity": 0.7559055118110236
        },
        {
          "duration": 0.037499962500000095,
          "durationTicks": 39,
          "midi": 93,
          "name": "A6",
          "ticks": 15480,
          "time": 14.884600499999998,
          "velocity": 0.7559055118110236
        },
        {
          "duration": 0.07596146249999869,
          "durationTicks": 79,
          "midi": 69,
          "name": "A4",
          "ticks": 15520,
          "time": 14.923062,
          "velocity": 0.9448818897637795
        },
        {
          "duration": 0.03749996249999832,
          "durationTicks": 39,
          "midi": 95,
          "name": "B6",
          "ticks": 15520,
          "time": 14.923062,
          "velocity": 0.7559055118110236
        },
        {
          "duration": 0.1721152125000014,
          "durationTicks": 179,
          "midi": 93,
          "name": "A6",
          "ticks": 15560,
          "time": 14.961523499999997,
          "velocity": 0.7559055118110236
        },
        {
          "duration": 0.22980746250000017,
          "durationTicks": 239,
          "midi": 40,
          "name": "E2",
          "ticks": 15600,
          "time": 14.999984999999999,
          "velocity": 0.9448818897637795
        },
        {
          "duration": 0.07596146249999869,
          "durationTicks": 79,
          "midi": 67,
          "name": "G4",
          "ticks": 15600,
          "time": 14.999984999999999,
          "velocity": 0.9448818897637795
        },
        {
          "duration": 0.07596146249999869,
          "durationTicks": 79,
          "midi": 69,
          "name": "A4",
          "ticks": 15680,
          "time": 15.076907999999998,
          "velocity": 0.9448818897637795
        },
        {
          "duration": 0.07596146249999869,
          "durationTicks": 79,
          "midi": 67,
          "name": "G4",
          "ticks": 15760,
          "time": 15.153831,
          "velocity": 0.9448818897637795
        },
        {
          "duration": 0.06057686250000138,
          "durationTicks": 63,
          "midi": 60,
          "name": "C4",
          "ticks": 15840,
          "time": 15.230753999999997,
          "velocity": 0.7559055118110236
        },
        {
          "duration": 0.07403838750000169,
          "durationTicks": 77,
          "midi": 64,
          "name": "E4",
          "ticks": 15840,
          "time": 15.230753999999997,
          "velocity": 0.7559055118110236
        },
        {
          "duration": 0.07596146250000047,
          "durationTicks": 79,
          "midi": 65,
          "name": "F4",
          "ticks": 15840,
          "time": 15.230753999999997,
          "velocity": 0.9448818897637795
        },
        {
          "duration": 0.07596146250000047,
          "durationTicks": 79,
          "midi": 67,
          "name": "G4",
          "ticks": 15920,
          "time": 15.307676999999996,
          "velocity": 0.9448818897637795
        },
        {
          "duration": 0.07596146250000047,
          "durationTicks": 79,
          "midi": 65,
          "name": "F4",
          "ticks": 16000,
          "time": 15.384599999999999,
          "velocity": 0.9448818897637795
        }
      ]
    }
  ]
}

const mid6 = {
  "header": {
    "keySignatures": [
      {
        "key": "C",
        "scale": "major",
        "ticks": 0
      }
    ],
    "meta": [],
    "name": "安静-周杰伦",
    "ppq": 480,
    "tempos": [
      {
        "bpm": 71.00003550001774,
        "ticks": 0
      },
      {
        "bpm": 73.39997235267708,
        "ticks": 1920
      }
    ],
    "timeSignatures": [
      {
        "ticks": 0,
        "timeSignature": [
          4,
          4
        ],
        "measures": 0
      }
    ]
  },
  "tracks": [
    {
      "channel": 0,
      "controlChanges": {
        "7": [
          {
            "number": 7,
            "ticks": 0,
            "time": 0,
            "value": 0.6299212598425197
          },
          {
            "number": 7,
            "ticks": 0,
            "time": 0,
            "value": 0.7086614173228346
          },
          {
            "number": 7,
            "ticks": 0,
            "time": 0,
            "value": 1
          },
          {
            "number": 7,
            "ticks": 0,
            "time": 0,
            "value": 0.6299212598425197
          },
          {
            "number": 7,
            "ticks": 15360,
            "time": 26.268572,
            "value": 0.6299212598425197
          }
        ],
        "10": [
          {
            "number": 10,
            "ticks": 0,
            "time": 0,
            "value": 0.5039370078740157
          },
          {
            "number": 10,
            "ticks": 0,
            "time": 0,
            "value": 0.5039370078740157
          },
          {
            "number": 10,
            "ticks": 0,
            "time": 0,
            "value": 0.5118110236220472
          },
          {
            "number": 10,
            "ticks": 0,
            "time": 0,
            "value": 0.5905511811023622
          },
          {
            "number": 10,
            "ticks": 15360,
            "time": 26.268572,
            "value": 0.5905511811023622
          }
        ]
      },
      "pitchBends": [],
      "instrument": {
        "family": "chromatic percussion",
        "number": 10,
        "name": "music box"
      },
      "name": "",
      "notes": [
        {
          "duration": 1.1267600000000002,
          "durationTicks": 640,
          "midi": 58,
          "name": "A#3",
          "ticks": 1,
          "time": 0.0017605625000000002,
          "velocity": 1
        },
        {
          "duration": 0.8450700000000002,
          "durationTicks": 480,
          "midi": 62,
          "name": "D4",
          "ticks": 1,
          "time": 0.0017605625000000002,
          "velocity": 1
        },
        {
          "duration": 0.6338025,
          "durationTicks": 360,
          "midi": 65,
          "name": "F4",
          "ticks": 1,
          "time": 0.0017605625000000002,
          "velocity": 1
        },
        {
          "duration": 0.6338025,
          "durationTicks": 360,
          "midi": 70,
          "name": "A#4",
          "ticks": 1,
          "time": 0.0017605625000000002,
          "velocity": 1
        },
        {
          "duration": 0.6338025,
          "durationTicks": 360,
          "midi": 74,
          "name": "D5",
          "ticks": 1,
          "time": 0.0017605625000000002,
          "velocity": 1
        },
        {
          "duration": 0.8450700000000002,
          "durationTicks": 480,
          "midi": 74,
          "name": "D5",
          "ticks": 1,
          "time": 0.0017605625000000002,
          "velocity": 1
        },
        {
          "duration": 0.404929375,
          "durationTicks": 230,
          "midi": 65,
          "name": "F4",
          "ticks": 240,
          "time": 0.42253500000000005,
          "velocity": 1
        },
        {
          "duration": 0.6338025000000002,
          "durationTicks": 360,
          "midi": 65,
          "name": "F4",
          "ticks": 480,
          "time": 0.8450700000000001,
          "velocity": 1
        },
        {
          "duration": 0.8450700000000001,
          "durationTicks": 480,
          "midi": 65,
          "name": "F4",
          "ticks": 480,
          "time": 0.8450700000000001,
          "velocity": 1
        },
        {
          "duration": 0.6338025000000002,
          "durationTicks": 360,
          "midi": 70,
          "name": "A#4",
          "ticks": 480,
          "time": 0.8450700000000001,
          "velocity": 1
        },
        {
          "duration": 0.40492937500000015,
          "durationTicks": 230,
          "midi": 74,
          "name": "D5",
          "ticks": 480,
          "time": 0.8450700000000001,
          "velocity": 1
        },
        {
          "duration": 0.6338025000000002,
          "durationTicks": 360,
          "midi": 74,
          "name": "D5",
          "ticks": 480,
          "time": 0.8450700000000001,
          "velocity": 1
        },
        {
          "duration": 0.8450700000000001,
          "durationTicks": 480,
          "midi": 77,
          "name": "F5",
          "ticks": 480,
          "time": 0.8450700000000001,
          "velocity": 1
        },
        {
          "duration": 0.35211250000000005,
          "durationTicks": 200,
          "midi": 58,
          "name": "A#3",
          "ticks": 720,
          "time": 1.267605,
          "velocity": 1
        },
        {
          "duration": 0.40492937500000026,
          "durationTicks": 230,
          "midi": 75,
          "name": "D#5",
          "ticks": 720,
          "time": 1.267605,
          "velocity": 1
        },
        {
          "duration": 0.84507,
          "durationTicks": 480,
          "midi": 58,
          "name": "A#3",
          "ticks": 960,
          "time": 1.6901400000000002,
          "velocity": 1
        },
        {
          "duration": 1.1971825,
          "durationTicks": 680,
          "midi": 58,
          "name": "A#3",
          "ticks": 960,
          "time": 1.6901400000000002,
          "velocity": 1
        },
        {
          "duration": 0.6338025,
          "durationTicks": 360,
          "midi": 65,
          "name": "F4",
          "ticks": 960,
          "time": 1.6901400000000002,
          "velocity": 1
        },
        {
          "duration": 0.6338025,
          "durationTicks": 360,
          "midi": 70,
          "name": "A#4",
          "ticks": 960,
          "time": 1.6901400000000002,
          "velocity": 1
        },
        {
          "duration": 0.84507,
          "durationTicks": 480,
          "midi": 70,
          "name": "A#4",
          "ticks": 960,
          "time": 1.6901400000000002,
          "velocity": 1
        },
        {
          "duration": 0.6338025,
          "durationTicks": 360,
          "midi": 74,
          "name": "D5",
          "ticks": 960,
          "time": 1.6901400000000002,
          "velocity": 1
        },
        {
          "duration": 0.4049293749999998,
          "durationTicks": 230,
          "midi": 77,
          "name": "F5",
          "ticks": 960,
          "time": 1.6901400000000002,
          "velocity": 1
        },
        {
          "duration": 0.40492937500000004,
          "durationTicks": 230,
          "midi": 75,
          "name": "D#5",
          "ticks": 1200,
          "time": 2.1126750000000003,
          "velocity": 1
        },
        {
          "duration": 0.6338025000000003,
          "durationTicks": 360,
          "midi": 65,
          "name": "F4",
          "ticks": 1440,
          "time": 2.53521,
          "velocity": 1
        },
        {
          "duration": 0.8450700000000002,
          "durationTicks": 480,
          "midi": 65,
          "name": "F4",
          "ticks": 1440,
          "time": 2.53521,
          "velocity": 1
        },
        {
          "duration": 0.6338025000000003,
          "durationTicks": 360,
          "midi": 70,
          "name": "A#4",
          "ticks": 1440,
          "time": 2.53521,
          "velocity": 1
        },
        {
          "duration": 0.40492937500000004,
          "durationTicks": 230,
          "midi": 74,
          "name": "D5",
          "ticks": 1440,
          "time": 2.53521,
          "velocity": 1
        },
        {
          "duration": 0.6338025000000003,
          "durationTicks": 360,
          "midi": 74,
          "name": "D5",
          "ticks": 1440,
          "time": 2.53521,
          "velocity": 1
        },
        {
          "duration": 0.8274643749999999,
          "durationTicks": 470,
          "midi": 77,
          "name": "F5",
          "ticks": 1440,
          "time": 2.53521,
          "velocity": 1
        },
        {
          "duration": 0.4225349999999999,
          "durationTicks": 240,
          "midi": 58,
          "name": "A#3",
          "ticks": 1680,
          "time": 2.9577450000000005,
          "velocity": 1
        },
        {
          "duration": 0.4225349999999999,
          "durationTicks": 240,
          "midi": 77,
          "name": "F5",
          "ticks": 1680,
          "time": 2.9577450000000005,
          "velocity": 1
        },
        {
          "duration": 1.1580385833333335,
          "durationTicks": 680,
          "midi": 57,
          "name": "A3",
          "ticks": 1920,
          "time": 3.3802800000000004,
          "velocity": 1
        },
        {
          "duration": 0.8174389999999998,
          "durationTicks": 480,
          "midi": 62,
          "name": "D4",
          "ticks": 1920,
          "time": 3.3802800000000004,
          "velocity": 1
        },
        {
          "duration": 0.6130792499999997,
          "durationTicks": 360,
          "midi": 69,
          "name": "A4",
          "ticks": 1920,
          "time": 3.3802800000000004,
          "velocity": 1
        },
        {
          "duration": 0.6130792499999997,
          "durationTicks": 360,
          "midi": 74,
          "name": "D5",
          "ticks": 1920,
          "time": 3.3802800000000004,
          "velocity": 1
        },
        {
          "duration": 0.8174389999999998,
          "durationTicks": 480,
          "midi": 74,
          "name": "D5",
          "ticks": 1920,
          "time": 3.3802800000000004,
          "velocity": 1
        },
        {
          "duration": 0.6130792499999997,
          "durationTicks": 360,
          "midi": 77,
          "name": "F5",
          "ticks": 1920,
          "time": 3.3802800000000004,
          "velocity": 1
        },
        {
          "duration": 0.39168952083333286,
          "durationTicks": 230,
          "midi": 65,
          "name": "F4",
          "ticks": 2160,
          "time": 3.7889995000000005,
          "velocity": 1
        },
        {
          "duration": 0.8174390000000002,
          "durationTicks": 480,
          "midi": 65,
          "name": "F4",
          "ticks": 2400,
          "time": 4.197719,
          "velocity": 1
        },
        {
          "duration": 0.6130792500000002,
          "durationTicks": 360,
          "midi": 69,
          "name": "A4",
          "ticks": 2400,
          "time": 4.197719,
          "velocity": 1
        },
        {
          "duration": 0.3916895208333333,
          "durationTicks": 230,
          "midi": 74,
          "name": "D5",
          "ticks": 2400,
          "time": 4.197719,
          "velocity": 1
        },
        {
          "duration": 0.6130792500000002,
          "durationTicks": 360,
          "midi": 74,
          "name": "D5",
          "ticks": 2400,
          "time": 4.197719,
          "velocity": 1
        },
        {
          "duration": 0.6130792500000002,
          "durationTicks": 360,
          "midi": 77,
          "name": "F5",
          "ticks": 2400,
          "time": 4.197719,
          "velocity": 1
        },
        {
          "duration": 0.8174390000000002,
          "durationTicks": 480,
          "midi": 77,
          "name": "F5",
          "ticks": 2400,
          "time": 4.197719,
          "velocity": 1
        },
        {
          "duration": 0.34059958333333373,
          "durationTicks": 200,
          "midi": 57,
          "name": "A3",
          "ticks": 2640,
          "time": 4.6064385,
          "velocity": 1
        },
        {
          "duration": 0.3916895208333333,
          "durationTicks": 230,
          "midi": 75,
          "name": "D#5",
          "ticks": 2640,
          "time": 4.6064385,
          "velocity": 1
        },
        {
          "duration": 0.8174389999999994,
          "durationTicks": 480,
          "midi": 57,
          "name": "A3",
          "ticks": 2880,
          "time": 5.0151580000000004,
          "velocity": 1
        },
        {
          "duration": 0.4087195000000001,
          "durationTicks": 240,
          "midi": 62,
          "name": "D4",
          "ticks": 2880,
          "time": 5.0151580000000004,
          "velocity": 1
        },
        {
          "duration": 0.6130792500000002,
          "durationTicks": 360,
          "midi": 69,
          "name": "A4",
          "ticks": 2880,
          "time": 5.0151580000000004,
          "velocity": 1
        },
        {
          "duration": 0.4087195000000001,
          "durationTicks": 240,
          "midi": 74,
          "name": "D5",
          "ticks": 2880,
          "time": 5.0151580000000004,
          "velocity": 1
        },
        {
          "duration": 0.6130792500000002,
          "durationTicks": 360,
          "midi": 74,
          "name": "D5",
          "ticks": 2880,
          "time": 5.0151580000000004,
          "velocity": 1
        },
        {
          "duration": 0.3916895208333333,
          "durationTicks": 230,
          "midi": 77,
          "name": "F5",
          "ticks": 2880,
          "time": 5.0151580000000004,
          "velocity": 1
        },
        {
          "duration": 0.6130792500000002,
          "durationTicks": 360,
          "midi": 77,
          "name": "F5",
          "ticks": 2880,
          "time": 5.0151580000000004,
          "velocity": 1
        },
        {
          "duration": 0.749319083333333,
          "durationTicks": 440,
          "midi": 57,
          "name": "A3",
          "ticks": 3120,
          "time": 5.423877500000001,
          "velocity": 1
        },
        {
          "duration": 0.40871949999999924,
          "durationTicks": 240,
          "midi": 69,
          "name": "A4",
          "ticks": 3120,
          "time": 5.423877500000001,
          "velocity": 1
        },
        {
          "duration": 0.3916895208333333,
          "durationTicks": 230,
          "midi": 75,
          "name": "D#5",
          "ticks": 3120,
          "time": 5.423877500000001,
          "velocity": 1
        },
        {
          "duration": 0.8174390000000002,
          "durationTicks": 480,
          "midi": 65,
          "name": "F4",
          "ticks": 3360,
          "time": 5.832597,
          "velocity": 1
        },
        {
          "duration": 0.8174390000000002,
          "durationTicks": 480,
          "midi": 69,
          "name": "A4",
          "ticks": 3360,
          "time": 5.832597,
          "velocity": 1
        },
        {
          "duration": 0.3916895208333333,
          "durationTicks": 230,
          "midi": 74,
          "name": "D5",
          "ticks": 3360,
          "time": 5.832597,
          "velocity": 1
        },
        {
          "duration": 0.8174390000000002,
          "durationTicks": 480,
          "midi": 74,
          "name": "D5",
          "ticks": 3360,
          "time": 5.832597,
          "velocity": 1
        },
        {
          "duration": 0.8004090208333334,
          "durationTicks": 470,
          "midi": 77,
          "name": "F5",
          "ticks": 3360,
          "time": 5.832597,
          "velocity": 1
        },
        {
          "duration": 0.8174390000000002,
          "durationTicks": 480,
          "midi": 77,
          "name": "F5",
          "ticks": 3360,
          "time": 5.832597,
          "velocity": 1
        },
        {
          "duration": 0.4087195000000001,
          "durationTicks": 240,
          "midi": 57,
          "name": "A3",
          "ticks": 3600,
          "time": 6.2413165,
          "velocity": 1
        },
        {
          "duration": 0.4087195000000001,
          "durationTicks": 240,
          "midi": 77,
          "name": "F5",
          "ticks": 3600,
          "time": 6.2413165,
          "velocity": 1
        },
        {
          "duration": 1.0899186666666676,
          "durationTicks": 640,
          "midi": 55,
          "name": "G3",
          "ticks": 3840,
          "time": 6.650036,
          "velocity": 1
        },
        {
          "duration": 0.8174390000000002,
          "durationTicks": 480,
          "midi": 62,
          "name": "D4",
          "ticks": 3840,
          "time": 6.650036,
          "velocity": 1
        },
        {
          "duration": 0.6130792500000002,
          "durationTicks": 360,
          "midi": 65,
          "name": "F4",
          "ticks": 3840,
          "time": 6.650036,
          "velocity": 1
        },
        {
          "duration": 0.6130792500000002,
          "durationTicks": 360,
          "midi": 69,
          "name": "A4",
          "ticks": 3840,
          "time": 6.650036,
          "velocity": 1
        },
        {
          "duration": 0.6130792500000002,
          "durationTicks": 360,
          "midi": 74,
          "name": "D5",
          "ticks": 3840,
          "time": 6.650036,
          "velocity": 1
        },
        {
          "duration": 0.8174390000000002,
          "durationTicks": 480,
          "midi": 74,
          "name": "D5",
          "ticks": 3840,
          "time": 6.650036,
          "velocity": 1
        },
        {
          "duration": 0.3916895208333333,
          "durationTicks": 230,
          "midi": 65,
          "name": "F4",
          "ticks": 4080,
          "time": 7.0587555,
          "velocity": 1
        },
        {
          "duration": 0.6130792500000002,
          "durationTicks": 360,
          "midi": 65,
          "name": "F4",
          "ticks": 4320,
          "time": 7.467475,
          "velocity": 1
        },
        {
          "duration": 0.8174390000000002,
          "durationTicks": 480,
          "midi": 65,
          "name": "F4",
          "ticks": 4320,
          "time": 7.467475,
          "velocity": 1
        },
        {
          "duration": 0.6130792500000002,
          "durationTicks": 360,
          "midi": 69,
          "name": "A4",
          "ticks": 4320,
          "time": 7.467475,
          "velocity": 1
        },
        {
          "duration": 0.3916895208333333,
          "durationTicks": 230,
          "midi": 74,
          "name": "D5",
          "ticks": 4320,
          "time": 7.467475,
          "velocity": 1
        },
        {
          "duration": 0.6130792500000002,
          "durationTicks": 360,
          "midi": 74,
          "name": "D5",
          "ticks": 4320,
          "time": 7.467475,
          "velocity": 1
        },
        {
          "duration": 0.8174390000000002,
          "durationTicks": 480,
          "midi": 77,
          "name": "F5",
          "ticks": 4320,
          "time": 7.467475,
          "velocity": 1
        },
        {
          "duration": 0.4087195000000001,
          "durationTicks": 240,
          "midi": 55,
          "name": "G3",
          "ticks": 4560,
          "time": 7.8761945,
          "velocity": 1
        },
        {
          "duration": 0.3916895208333333,
          "durationTicks": 230,
          "midi": 75,
          "name": "D#5",
          "ticks": 4560,
          "time": 7.8761945,
          "velocity": 1
        },
        {
          "duration": 1.158038583333333,
          "durationTicks": 680,
          "midi": 55,
          "name": "G3",
          "ticks": 4800,
          "time": 8.284914,
          "velocity": 1
        },
        {
          "duration": 0.8174390000000002,
          "durationTicks": 480,
          "midi": 58,
          "name": "A#3",
          "ticks": 4800,
          "time": 8.284914,
          "velocity": 1
        },
        {
          "duration": 0.6130792500000002,
          "durationTicks": 360,
          "midi": 65,
          "name": "F4",
          "ticks": 4800,
          "time": 8.284914,
          "velocity": 1
        },
        {
          "duration": 0.6130792500000002,
          "durationTicks": 360,
          "midi": 69,
          "name": "A4",
          "ticks": 4800,
          "time": 8.284914,
          "velocity": 1
        },
        {
          "duration": 0.8174390000000002,
          "durationTicks": 480,
          "midi": 70,
          "name": "A#4",
          "ticks": 4800,
          "time": 8.284914,
          "velocity": 1
        },
        {
          "duration": 0.6130792500000002,
          "durationTicks": 360,
          "midi": 74,
          "name": "D5",
          "ticks": 4800,
          "time": 8.284914,
          "velocity": 1
        },
        {
          "duration": 0.3916895208333333,
          "durationTicks": 230,
          "midi": 77,
          "name": "F5",
          "ticks": 4800,
          "time": 8.284914,
          "velocity": 1
        },
        {
          "duration": 0.3916895208333333,
          "durationTicks": 230,
          "midi": 75,
          "name": "D#5",
          "ticks": 5040,
          "time": 8.6936335,
          "velocity": 1
        },
        {
          "duration": 0.6130792500000002,
          "durationTicks": 360,
          "midi": 65,
          "name": "F4",
          "ticks": 5280,
          "time": 9.102353,
          "velocity": 1
        },
        {
          "duration": 0.8174390000000002,
          "durationTicks": 480,
          "midi": 65,
          "name": "F4",
          "ticks": 5280,
          "time": 9.102353,
          "velocity": 1
        },
        {
          "duration": 0.6130792500000002,
          "durationTicks": 360,
          "midi": 69,
          "name": "A4",
          "ticks": 5280,
          "time": 9.102353,
          "velocity": 1
        },
        {
          "duration": 0.3916895208333333,
          "durationTicks": 230,
          "midi": 74,
          "name": "D5",
          "ticks": 5280,
          "time": 9.102353,
          "velocity": 1
        },
        {
          "duration": 0.6130792500000002,
          "durationTicks": 360,
          "midi": 74,
          "name": "D5",
          "ticks": 5280,
          "time": 9.102353,
          "velocity": 1
        },
        {
          "duration": 0.8174390000000002,
          "durationTicks": 480,
          "midi": 77,
          "name": "F5",
          "ticks": 5280,
          "time": 9.102353,
          "velocity": 1
        },
        {
          "duration": 0.4087195000000001,
          "durationTicks": 240,
          "midi": 55,
          "name": "G3",
          "ticks": 5520,
          "time": 9.511072500000001,
          "velocity": 1
        },
        {
          "duration": 0.3916895208333333,
          "durationTicks": 230,
          "midi": 70,
          "name": "A#4",
          "ticks": 5520,
          "time": 9.511072500000001,
          "velocity": 1
        },
        {
          "duration": 1.158038583333333,
          "durationTicks": 680,
          "midi": 53,
          "name": "F3",
          "ticks": 5760,
          "time": 9.919792000000001,
          "velocity": 1
        },
        {
          "duration": 1.6348780000000005,
          "durationTicks": 960,
          "midi": 62,
          "name": "D4",
          "ticks": 5760,
          "time": 9.919792000000001,
          "velocity": 1
        },
        {
          "duration": 0.6130792500000002,
          "durationTicks": 360,
          "midi": 65,
          "name": "F4",
          "ticks": 5760,
          "time": 9.919792000000001,
          "velocity": 1
        },
        {
          "duration": 0.6130792500000002,
          "durationTicks": 360,
          "midi": 70,
          "name": "A#4",
          "ticks": 5760,
          "time": 9.919792000000001,
          "velocity": 1
        },
        {
          "duration": 0.3916895208333333,
          "durationTicks": 230,
          "midi": 72,
          "name": "C5",
          "ticks": 5760,
          "time": 9.919792000000001,
          "velocity": 1
        },
        {
          "duration": 0.6130792500000002,
          "durationTicks": 360,
          "midi": 74,
          "name": "D5",
          "ticks": 5760,
          "time": 9.919792000000001,
          "velocity": 1
        },
        {
          "duration": 1.4305182500000004,
          "durationTicks": 840,
          "midi": 74,
          "name": "D5",
          "ticks": 5760,
          "time": 9.919792000000001,
          "velocity": 1
        },
        {
          "duration": 0.39168952083333153,
          "durationTicks": 230,
          "midi": 72,
          "name": "C5",
          "ticks": 6000,
          "time": 10.328511500000001,
          "velocity": 1
        },
        {
          "duration": 0.6130792500000002,
          "durationTicks": 360,
          "midi": 65,
          "name": "F4",
          "ticks": 6240,
          "time": 10.737231000000001,
          "velocity": 1
        },
        {
          "duration": 0.6130792500000002,
          "durationTicks": 360,
          "midi": 70,
          "name": "A#4",
          "ticks": 6240,
          "time": 10.737231000000001,
          "velocity": 1
        },
        {
          "duration": 0.39168952083333153,
          "durationTicks": 230,
          "midi": 72,
          "name": "C5",
          "ticks": 6240,
          "time": 10.737231000000001,
          "velocity": 1
        },
        {
          "duration": 0.8174390000000002,
          "durationTicks": 480,
          "midi": 74,
          "name": "D5",
          "ticks": 6240,
          "time": 10.737231000000001,
          "velocity": 1
        },
        {
          "duration": 0.34059958333333284,
          "durationTicks": 200,
          "midi": 53,
          "name": "F3",
          "ticks": 6480,
          "time": 11.145950500000001,
          "velocity": 1
        },
        {
          "duration": 0.7833790416666666,
          "durationTicks": 460,
          "midi": 74,
          "name": "D5",
          "ticks": 6480,
          "time": 11.145950500000001,
          "velocity": 1
        },
        {
          "duration": 1.158038583333333,
          "durationTicks": 680,
          "midi": 53,
          "name": "F3",
          "ticks": 6720,
          "time": 11.554670000000002,
          "velocity": 1
        },
        {
          "duration": 0.8174390000000002,
          "durationTicks": 480,
          "midi": 57,
          "name": "A3",
          "ticks": 6720,
          "time": 11.554670000000002,
          "velocity": 1
        },
        {
          "duration": 0.6130792500000002,
          "durationTicks": 360,
          "midi": 69,
          "name": "A4",
          "ticks": 6720,
          "time": 11.554670000000002,
          "velocity": 1
        },
        {
          "duration": 0.8174390000000002,
          "durationTicks": 480,
          "midi": 69,
          "name": "A4",
          "ticks": 6720,
          "time": 11.554670000000002,
          "velocity": 1
        },
        {
          "duration": 0.6130792500000002,
          "durationTicks": 360,
          "midi": 74,
          "name": "D5",
          "ticks": 6720,
          "time": 11.554670000000002,
          "velocity": 1
        },
        {
          "duration": 0.6130792500000002,
          "durationTicks": 360,
          "midi": 77,
          "name": "F5",
          "ticks": 6720,
          "time": 11.554670000000002,
          "velocity": 1
        },
        {
          "duration": 1.158038583333333,
          "durationTicks": 680,
          "midi": 70,
          "name": "A#4",
          "ticks": 6960,
          "time": 11.963389500000002,
          "velocity": 1
        },
        {
          "duration": 0.8174389999999985,
          "durationTicks": 480,
          "midi": 53,
          "name": "F3",
          "ticks": 7200,
          "time": 12.372109000000002,
          "velocity": 1
        },
        {
          "duration": 0.8174389999999985,
          "durationTicks": 480,
          "midi": 65,
          "name": "F4",
          "ticks": 7200,
          "time": 12.372109000000002,
          "velocity": 1
        },
        {
          "duration": 0.6130792500000002,
          "durationTicks": 360,
          "midi": 69,
          "name": "A4",
          "ticks": 7200,
          "time": 12.372109000000002,
          "velocity": 1
        },
        {
          "duration": 0.4087195000000001,
          "durationTicks": 240,
          "midi": 75,
          "name": "D#5",
          "ticks": 7200,
          "time": 12.372109000000002,
          "velocity": 1
        },
        {
          "duration": 0.40871949999999835,
          "durationTicks": 240,
          "midi": 53,
          "name": "F3",
          "ticks": 7440,
          "time": 12.780828500000002,
          "velocity": 1
        },
        {
          "duration": 0.40871949999999835,
          "durationTicks": 240,
          "midi": 74,
          "name": "D5",
          "ticks": 7440,
          "time": 12.780828500000002,
          "velocity": 1
        },
        {
          "duration": 1.0899186666666676,
          "durationTicks": 640,
          "midi": 51,
          "name": "D#3",
          "ticks": 7680,
          "time": 13.189548,
          "velocity": 1
        },
        {
          "duration": 2.4523170000000007,
          "durationTicks": 1440,
          "midi": 55,
          "name": "G3",
          "ticks": 7680,
          "time": 13.189548,
          "velocity": 1
        },
        {
          "duration": 2.4523170000000007,
          "durationTicks": 1440,
          "midi": 67,
          "name": "G4",
          "ticks": 7680,
          "time": 13.189548,
          "velocity": 1
        },
        {
          "duration": 0.6130792500000002,
          "durationTicks": 360,
          "midi": 70,
          "name": "A#4",
          "ticks": 7680,
          "time": 13.189548,
          "velocity": 1
        },
        {
          "duration": 0.6130792500000002,
          "durationTicks": 360,
          "midi": 74,
          "name": "D5",
          "ticks": 7680,
          "time": 13.189548,
          "velocity": 1
        },
        {
          "duration": 0.6130792500000002,
          "durationTicks": 360,
          "midi": 77,
          "name": "F5",
          "ticks": 7680,
          "time": 13.189548,
          "velocity": 1
        },
        {
          "duration": 0.3916895208333333,
          "durationTicks": 230,
          "midi": 77,
          "name": "F5",
          "ticks": 7920,
          "time": 13.5982675,
          "velocity": 1
        },
        {
          "duration": 0.6130792500000002,
          "durationTicks": 360,
          "midi": 70,
          "name": "A#4",
          "ticks": 8160,
          "time": 14.006987,
          "velocity": 1
        },
        {
          "duration": 0.6130792500000002,
          "durationTicks": 360,
          "midi": 74,
          "name": "D5",
          "ticks": 8160,
          "time": 14.006987,
          "velocity": 1
        },
        {
          "duration": 0.3916895208333333,
          "durationTicks": 230,
          "midi": 77,
          "name": "F5",
          "ticks": 8160,
          "time": 14.006987,
          "velocity": 1
        },
        {
          "duration": 0.6130792500000002,
          "durationTicks": 360,
          "midi": 77,
          "name": "F5",
          "ticks": 8160,
          "time": 14.006987,
          "velocity": 1
        },
        {
          "duration": 0.34059958333333284,
          "durationTicks": 200,
          "midi": 51,
          "name": "D#3",
          "ticks": 8400,
          "time": 14.4157065,
          "velocity": 1
        },
        {
          "duration": 0.3916895208333333,
          "durationTicks": 230,
          "midi": 70,
          "name": "A#4",
          "ticks": 8400,
          "time": 14.4157065,
          "velocity": 1
        },
        {
          "duration": 1.158038583333333,
          "durationTicks": 680,
          "midi": 51,
          "name": "D#3",
          "ticks": 8640,
          "time": 14.824426,
          "velocity": 1
        },
        {
          "duration": 0.3916895208333333,
          "durationTicks": 230,
          "midi": 70,
          "name": "A#4",
          "ticks": 8640,
          "time": 14.824426,
          "velocity": 1
        },
        {
          "duration": 0.6130792500000002,
          "durationTicks": 360,
          "midi": 70,
          "name": "A#4",
          "ticks": 8640,
          "time": 14.824426,
          "velocity": 1
        },
        {
          "duration": 0.6130792500000002,
          "durationTicks": 360,
          "midi": 74,
          "name": "D5",
          "ticks": 8640,
          "time": 14.824426,
          "velocity": 1
        },
        {
          "duration": 0.6130792500000002,
          "durationTicks": 360,
          "midi": 77,
          "name": "F5",
          "ticks": 8640,
          "time": 14.824426,
          "velocity": 1
        },
        {
          "duration": 0.3916895208333333,
          "durationTicks": 230,
          "midi": 69,
          "name": "A4",
          "ticks": 8880,
          "time": 15.233145500000001,
          "velocity": 1
        },
        {
          "duration": 0.8174389999999985,
          "durationTicks": 480,
          "midi": 57,
          "name": "A3",
          "ticks": 9120,
          "time": 15.641865000000001,
          "velocity": 1
        },
        {
          "duration": 0.8174389999999985,
          "durationTicks": 480,
          "midi": 69,
          "name": "A4",
          "ticks": 9120,
          "time": 15.641865000000001,
          "velocity": 1
        },
        {
          "duration": 0.3916895208333333,
          "durationTicks": 230,
          "midi": 70,
          "name": "A#4",
          "ticks": 9120,
          "time": 15.641865000000001,
          "velocity": 1
        },
        {
          "duration": 0.6130792500000002,
          "durationTicks": 360,
          "midi": 70,
          "name": "A#4",
          "ticks": 9120,
          "time": 15.641865000000001,
          "velocity": 1
        },
        {
          "duration": 0.6130792500000002,
          "durationTicks": 360,
          "midi": 74,
          "name": "D5",
          "ticks": 9120,
          "time": 15.641865000000001,
          "velocity": 1
        },
        {
          "duration": 0.6130792500000002,
          "durationTicks": 360,
          "midi": 77,
          "name": "F5",
          "ticks": 9120,
          "time": 15.641865000000001,
          "velocity": 1
        },
        {
          "duration": 0.4087195000000001,
          "durationTicks": 240,
          "midi": 51,
          "name": "D#3",
          "ticks": 9360,
          "time": 16.0505845,
          "velocity": 1
        },
        {
          "duration": 0.3916895208333351,
          "durationTicks": 230,
          "midi": 70,
          "name": "A#4",
          "ticks": 9360,
          "time": 16.0505845,
          "velocity": 1
        },
        {
          "duration": 1.1580385833333366,
          "durationTicks": 680,
          "midi": 50,
          "name": "D3",
          "ticks": 9600,
          "time": 16.459304,
          "velocity": 1
        },
        {
          "duration": 0.8174390000000002,
          "durationTicks": 480,
          "midi": 58,
          "name": "A#3",
          "ticks": 9600,
          "time": 16.459304,
          "velocity": 1
        },
        {
          "duration": 0.613079250000002,
          "durationTicks": 360,
          "midi": 69,
          "name": "A4",
          "ticks": 9600,
          "time": 16.459304,
          "velocity": 1
        },
        {
          "duration": 0.8174390000000002,
          "durationTicks": 480,
          "midi": 70,
          "name": "A#4",
          "ticks": 9600,
          "time": 16.459304,
          "velocity": 1
        },
        {
          "duration": 0.613079250000002,
          "durationTicks": 360,
          "midi": 74,
          "name": "D5",
          "ticks": 9600,
          "time": 16.459304,
          "velocity": 1
        },
        {
          "duration": 0.613079250000002,
          "durationTicks": 360,
          "midi": 77,
          "name": "F5",
          "ticks": 9600,
          "time": 16.459304,
          "velocity": 1
        },
        {
          "duration": 0.3916895208333351,
          "durationTicks": 230,
          "midi": 77,
          "name": "F5",
          "ticks": 9840,
          "time": 16.8680235,
          "velocity": 1
        },
        {
          "duration": 0.8174390000000002,
          "durationTicks": 480,
          "midi": 53,
          "name": "F3",
          "ticks": 10080,
          "time": 17.276743,
          "velocity": 1
        },
        {
          "duration": 0.8174390000000002,
          "durationTicks": 480,
          "midi": 65,
          "name": "F4",
          "ticks": 10080,
          "time": 17.276743,
          "velocity": 1
        },
        {
          "duration": 0.613079250000002,
          "durationTicks": 360,
          "midi": 69,
          "name": "A4",
          "ticks": 10080,
          "time": 17.276743,
          "velocity": 1
        },
        {
          "duration": 0.613079250000002,
          "durationTicks": 360,
          "midi": 74,
          "name": "D5",
          "ticks": 10080,
          "time": 17.276743,
          "velocity": 1
        },
        {
          "duration": 0.3916895208333351,
          "durationTicks": 230,
          "midi": 77,
          "name": "F5",
          "ticks": 10080,
          "time": 17.276743,
          "velocity": 1
        },
        {
          "duration": 0.613079250000002,
          "durationTicks": 360,
          "midi": 77,
          "name": "F5",
          "ticks": 10080,
          "time": 17.276743,
          "velocity": 1
        },
        {
          "duration": 0.4087195000000001,
          "durationTicks": 240,
          "midi": 50,
          "name": "D3",
          "ticks": 10320,
          "time": 17.6854625,
          "velocity": 1
        },
        {
          "duration": 0.3916895208333351,
          "durationTicks": 230,
          "midi": 70,
          "name": "A#4",
          "ticks": 10320,
          "time": 17.6854625,
          "velocity": 1
        },
        {
          "duration": 0.8174390000000002,
          "durationTicks": 480,
          "midi": 55,
          "name": "G3",
          "ticks": 10560,
          "time": 18.094182,
          "velocity": 1
        },
        {
          "duration": 1.6348780000000005,
          "durationTicks": 960,
          "midi": 58,
          "name": "A#3",
          "ticks": 10560,
          "time": 18.094182,
          "velocity": 1
        },
        {
          "duration": 0.3916895208333351,
          "durationTicks": 230,
          "midi": 69,
          "name": "A4",
          "ticks": 10560,
          "time": 18.094182,
          "velocity": 1
        },
        {
          "duration": 0.613079250000002,
          "durationTicks": 360,
          "midi": 69,
          "name": "A4",
          "ticks": 10560,
          "time": 18.094182,
          "velocity": 1
        },
        {
          "duration": 1.2091285208333353,
          "durationTicks": 710,
          "midi": 70,
          "name": "A#4",
          "ticks": 10560,
          "time": 18.094182,
          "velocity": 1
        },
        {
          "duration": 0.613079250000002,
          "durationTicks": 360,
          "midi": 74,
          "name": "D5",
          "ticks": 10560,
          "time": 18.094182,
          "velocity": 1
        },
        {
          "duration": 0.613079250000002,
          "durationTicks": 360,
          "midi": 77,
          "name": "F5",
          "ticks": 10560,
          "time": 18.094182,
          "velocity": 1
        },
        {
          "duration": 0.3916895208333351,
          "durationTicks": 230,
          "midi": 69,
          "name": "A4",
          "ticks": 10800,
          "time": 18.5029015,
          "velocity": 1
        },
        {
          "duration": 0.8174390000000002,
          "durationTicks": 480,
          "midi": 58,
          "name": "A#3",
          "ticks": 11040,
          "time": 18.911621,
          "velocity": 1
        },
        {
          "duration": 0.6130792499999984,
          "durationTicks": 360,
          "midi": 69,
          "name": "A4",
          "ticks": 11040,
          "time": 18.911621,
          "velocity": 1
        },
        {
          "duration": 0.8004090208333352,
          "durationTicks": 470,
          "midi": 70,
          "name": "A#4",
          "ticks": 11040,
          "time": 18.911621,
          "velocity": 1
        },
        {
          "duration": 0.6130792499999984,
          "durationTicks": 360,
          "midi": 74,
          "name": "D5",
          "ticks": 11040,
          "time": 18.911621,
          "velocity": 1
        },
        {
          "duration": 0.6130792499999984,
          "durationTicks": 360,
          "midi": 77,
          "name": "F5",
          "ticks": 11040,
          "time": 18.911621,
          "velocity": 1
        },
        {
          "duration": 0.4087195000000001,
          "durationTicks": 240,
          "midi": 70,
          "name": "A#4",
          "ticks": 11280,
          "time": 19.3203405,
          "velocity": 1
        },
        {
          "duration": 1.6348780000000005,
          "durationTicks": 960,
          "midi": 51,
          "name": "D#3",
          "ticks": 11520,
          "time": 19.72906,
          "velocity": 1
        },
        {
          "duration": 1.158038583333333,
          "durationTicks": 680,
          "midi": 60,
          "name": "C4",
          "ticks": 11520,
          "time": 19.72906,
          "velocity": 1
        },
        {
          "duration": 1.6348780000000005,
          "durationTicks": 960,
          "midi": 63,
          "name": "D#4",
          "ticks": 11520,
          "time": 19.72906,
          "velocity": 1
        },
        {
          "duration": 0.6130792499999984,
          "durationTicks": 360,
          "midi": 67,
          "name": "G4",
          "ticks": 11520,
          "time": 19.72906,
          "velocity": 1
        },
        {
          "duration": 0.6130792499999984,
          "durationTicks": 360,
          "midi": 72,
          "name": "C5",
          "ticks": 11520,
          "time": 19.72906,
          "velocity": 1
        },
        {
          "duration": 0.6130792499999984,
          "durationTicks": 360,
          "midi": 75,
          "name": "D#5",
          "ticks": 11520,
          "time": 19.72906,
          "velocity": 1
        },
        {
          "duration": 0.3916895208333351,
          "durationTicks": 230,
          "midi": 75,
          "name": "D#5",
          "ticks": 11760,
          "time": 20.1377795,
          "velocity": 1
        },
        {
          "duration": 0.6130792499999984,
          "durationTicks": 360,
          "midi": 67,
          "name": "G4",
          "ticks": 12000,
          "time": 20.546499,
          "velocity": 1
        },
        {
          "duration": 0.6130792499999984,
          "durationTicks": 360,
          "midi": 72,
          "name": "C5",
          "ticks": 12000,
          "time": 20.546499,
          "velocity": 1
        },
        {
          "duration": 0.39168952083333153,
          "durationTicks": 230,
          "midi": 75,
          "name": "D#5",
          "ticks": 12000,
          "time": 20.546499,
          "velocity": 1
        },
        {
          "duration": 0.6130792499999984,
          "durationTicks": 360,
          "midi": 75,
          "name": "D#5",
          "ticks": 12000,
          "time": 20.546499,
          "velocity": 1
        },
        {
          "duration": 0.34059958333333284,
          "durationTicks": 200,
          "midi": 60,
          "name": "C4",
          "ticks": 12240,
          "time": 20.9552185,
          "velocity": 1
        },
        {
          "duration": 0.39168952083333153,
          "durationTicks": 230,
          "midi": 74,
          "name": "D5",
          "ticks": 12240,
          "time": 20.9552185,
          "velocity": 1
        },
        {
          "duration": 0.8174390000000002,
          "durationTicks": 480,
          "midi": 48,
          "name": "C3",
          "ticks": 12480,
          "time": 21.363938,
          "velocity": 1
        },
        {
          "duration": 0.8174390000000002,
          "durationTicks": 480,
          "midi": 60,
          "name": "C4",
          "ticks": 12480,
          "time": 21.363938,
          "velocity": 1
        },
        {
          "duration": 0.8174390000000002,
          "durationTicks": 480,
          "midi": 60,
          "name": "C4",
          "ticks": 12480,
          "time": 21.363938,
          "velocity": 1
        },
        {
          "duration": 0.4087195000000001,
          "durationTicks": 240,
          "midi": 67,
          "name": "G4",
          "ticks": 12480,
          "time": 21.363938,
          "velocity": 1
        },
        {
          "duration": 0.4087195000000001,
          "durationTicks": 240,
          "midi": 72,
          "name": "C5",
          "ticks": 12480,
          "time": 21.363938,
          "velocity": 1
        },
        {
          "duration": 0.39168952083333153,
          "durationTicks": 230,
          "midi": 74,
          "name": "D5",
          "ticks": 12480,
          "time": 21.363938,
          "velocity": 1
        },
        {
          "duration": 0.4087195000000001,
          "durationTicks": 240,
          "midi": 75,
          "name": "D#5",
          "ticks": 12480,
          "time": 21.363938,
          "velocity": 1
        },
        {
          "duration": 0.6811991666666657,
          "durationTicks": 400,
          "midi": 60,
          "name": "C4",
          "ticks": 12720,
          "time": 21.7726575,
          "velocity": 1
        },
        {
          "duration": 0.39168952083333153,
          "durationTicks": 230,
          "midi": 72,
          "name": "C5",
          "ticks": 12720,
          "time": 21.7726575,
          "velocity": 1
        },
        {
          "duration": 0.4087195000000001,
          "durationTicks": 240,
          "midi": 55,
          "name": "G3",
          "ticks": 12960,
          "time": 22.181377,
          "velocity": 1
        },
        {
          "duration": 0.4087195000000001,
          "durationTicks": 240,
          "midi": 67,
          "name": "G4",
          "ticks": 12960,
          "time": 22.181377,
          "velocity": 1
        },
        {
          "duration": 0.6130792499999984,
          "durationTicks": 360,
          "midi": 67,
          "name": "G4",
          "ticks": 12960,
          "time": 22.181377,
          "velocity": 1
        },
        {
          "duration": 0.39168952083333153,
          "durationTicks": 230,
          "midi": 72,
          "name": "C5",
          "ticks": 12960,
          "time": 22.181377,
          "velocity": 1
        },
        {
          "duration": 0.4087195000000001,
          "durationTicks": 240,
          "midi": 72,
          "name": "C5",
          "ticks": 12960,
          "time": 22.181377,
          "velocity": 1
        },
        {
          "duration": 0.4087195000000001,
          "durationTicks": 240,
          "midi": 75,
          "name": "D#5",
          "ticks": 12960,
          "time": 22.181377,
          "velocity": 1
        },
        {
          "duration": 0.40871949999999657,
          "durationTicks": 240,
          "midi": 58,
          "name": "A#3",
          "ticks": 13200,
          "time": 22.5900965,
          "velocity": 1
        },
        {
          "duration": 0.34059958333333284,
          "durationTicks": 200,
          "midi": 60,
          "name": "C4",
          "ticks": 13200,
          "time": 22.5900965,
          "velocity": 1
        },
        {
          "duration": 0.39168952083333153,
          "durationTicks": 230,
          "midi": 70,
          "name": "A#4",
          "ticks": 13200,
          "time": 22.5900965,
          "velocity": 1
        },
        {
          "duration": 0.40871949999999657,
          "durationTicks": 240,
          "midi": 70,
          "name": "A#4",
          "ticks": 13200,
          "time": 22.5900965,
          "velocity": 1
        },
        {
          "duration": 0.40871949999999657,
          "durationTicks": 240,
          "midi": 70,
          "name": "A#4",
          "ticks": 13200,
          "time": 22.5900965,
          "velocity": 1
        },
        {
          "duration": 1.0899186666666658,
          "durationTicks": 640,
          "midi": 53,
          "name": "F3",
          "ticks": 13440,
          "time": 22.998815999999998,
          "velocity": 1
        },
        {
          "duration": 1.5667580833333368,
          "durationTicks": 920,
          "midi": 53,
          "name": "F3",
          "ticks": 13440,
          "time": 22.998815999999998,
          "velocity": 1
        },
        {
          "duration": 1.6348780000000005,
          "durationTicks": 960,
          "midi": 65,
          "name": "F4",
          "ticks": 13440,
          "time": 22.998815999999998,
          "velocity": 1
        },
        {
          "duration": 0.613079250000002,
          "durationTicks": 360,
          "midi": 67,
          "name": "G4",
          "ticks": 13440,
          "time": 22.998815999999998,
          "velocity": 1
        },
        {
          "duration": 0.4087195000000001,
          "durationTicks": 240,
          "midi": 72,
          "name": "C5",
          "ticks": 13440,
          "time": 22.998815999999998,
          "velocity": 1
        },
        {
          "duration": 0.613079250000002,
          "durationTicks": 360,
          "midi": 77,
          "name": "F5",
          "ticks": 13440,
          "time": 22.998815999999998,
          "velocity": 1
        },
        {
          "duration": 0.3916895208333351,
          "durationTicks": 230,
          "midi": 75,
          "name": "D#5",
          "ticks": 13680,
          "time": 23.407535499999998,
          "velocity": 1
        },
        {
          "duration": 0.4087195000000001,
          "durationTicks": 240,
          "midi": 67,
          "name": "G4",
          "ticks": 13920,
          "time": 23.816254999999998,
          "velocity": 1
        },
        {
          "duration": 0.4087195000000001,
          "durationTicks": 240,
          "midi": 72,
          "name": "C5",
          "ticks": 13920,
          "time": 23.816254999999998,
          "velocity": 1
        },
        {
          "duration": 0.3916895208333351,
          "durationTicks": 230,
          "midi": 75,
          "name": "D#5",
          "ticks": 13920,
          "time": 23.816254999999998,
          "velocity": 1
        },
        {
          "duration": 0.4087195000000001,
          "durationTicks": 240,
          "midi": 77,
          "name": "F5",
          "ticks": 13920,
          "time": 23.816254999999998,
          "velocity": 1
        },
        {
          "duration": 0.3916895208333351,
          "durationTicks": 230,
          "midi": 74,
          "name": "D5",
          "ticks": 14160,
          "time": 24.2249745,
          "velocity": 1
        },
        {
          "duration": 0.34059958333333284,
          "durationTicks": 200,
          "midi": 53,
          "name": "F3",
          "ticks": 14200,
          "time": 24.293094416666666,
          "velocity": 1
        },
        {
          "duration": 0.3405995833333364,
          "durationTicks": 200,
          "midi": 53,
          "name": "F3",
          "ticks": 14400,
          "time": 24.633694,
          "velocity": 1
        },
        {
          "duration": 1.6348780000000005,
          "durationTicks": 960,
          "midi": 57,
          "name": "A3",
          "ticks": 14400,
          "time": 24.633694,
          "velocity": 1
        },
        {
          "duration": 0.4087195000000001,
          "durationTicks": 240,
          "midi": 67,
          "name": "G4",
          "ticks": 14400,
          "time": 24.633694,
          "velocity": 1
        },
        {
          "duration": 1.6348780000000005,
          "durationTicks": 960,
          "midi": 69,
          "name": "A4",
          "ticks": 14400,
          "time": 24.633694,
          "velocity": 1
        },
        {
          "duration": 0.4087195000000001,
          "durationTicks": 240,
          "midi": 72,
          "name": "C5",
          "ticks": 14400,
          "time": 24.633694,
          "velocity": 1
        },
        {
          "duration": 0.3916895208333351,
          "durationTicks": 230,
          "midi": 74,
          "name": "D5",
          "ticks": 14400,
          "time": 24.633694,
          "velocity": 1
        },
        {
          "duration": 0.4087195000000001,
          "durationTicks": 240,
          "midi": 77,
          "name": "F5",
          "ticks": 14400,
          "time": 24.633694,
          "velocity": 1
        },
        {
          "duration": 0.4087195000000001,
          "durationTicks": 240,
          "midi": 67,
          "name": "G4",
          "ticks": 14640,
          "time": 25.0424135,
          "velocity": 1
        },
        {
          "duration": 0.3916895208333351,
          "durationTicks": 230,
          "midi": 72,
          "name": "C5",
          "ticks": 14640,
          "time": 25.0424135,
          "velocity": 1
        },
        {
          "duration": 0.3405995833333364,
          "durationTicks": 200,
          "midi": 65,
          "name": "F4",
          "ticks": 14880,
          "time": 25.451133,
          "velocity": 1
        },
        {
          "duration": 0.4087195000000001,
          "durationTicks": 240,
          "midi": 67,
          "name": "G4",
          "ticks": 14880,
          "time": 25.451133,
          "velocity": 1
        },
        {
          "duration": 0.4087195000000001,
          "durationTicks": 240,
          "midi": 70,
          "name": "A#4",
          "ticks": 14880,
          "time": 25.451133,
          "velocity": 1
        },
        {
          "duration": 0.3916895208333351,
          "durationTicks": 230,
          "midi": 72,
          "name": "C5",
          "ticks": 14880,
          "time": 25.451133,
          "velocity": 1
        },
        {
          "duration": 0.4087195000000001,
          "durationTicks": 240,
          "midi": 72,
          "name": "C5",
          "ticks": 14880,
          "time": 25.451133,
          "velocity": 1
        },
        {
          "duration": 0.3405995833333364,
          "durationTicks": 200,
          "midi": 60,
          "name": "C4",
          "ticks": 15120,
          "time": 25.8598525,
          "velocity": 1
        },
        {
          "duration": 0.3916895208333351,
          "durationTicks": 230,
          "midi": 70,
          "name": "A#4",
          "ticks": 15120,
          "time": 25.8598525,
          "velocity": 1
        }
      ]
    }
  ]
}

const mid7 = {
  "header": {
    "keySignatures": [
      {
        "key": "C",
        "scale": "major",
        "ticks": 0
      }
    ],
    "meta": [],
    "name": "Colorful Day——朴树",
    "ppq": 480,
    "tempos": [
      {
        "bpm": 85.00004250002125,
        "ticks": 0
      }
    ],
    "timeSignatures": [
      {
        "ticks": 0,
        "timeSignature": [
          4,
          4
        ],
        "measures": 0
      }
    ]
  },
  "tracks": [
    {
      "channel": 0,
      "controlChanges": {
        "7": [
          {
            "number": 7,
            "ticks": 0,
            "time": 0,
            "value": 0.7086614173228346
          },
          {
            "number": 7,
            "ticks": 0,
            "time": 0,
            "value": 1
          },
          {
            "number": 7,
            "ticks": 0,
            "time": 0,
            "value": 1
          },
          {
            "number": 7,
            "ticks": 0,
            "time": 0,
            "value": 0.5511811023622047
          },
          {
            "number": 7,
            "ticks": 17280,
            "time": 25.411752,
            "value": 0.5511811023622047
          }
        ],
        "10": [
          {
            "number": 10,
            "ticks": 0,
            "time": 0,
            "value": 0.15748031496062992
          },
          {
            "number": 10,
            "ticks": 0,
            "time": 0,
            "value": 0.5039370078740157
          },
          {
            "number": 10,
            "ticks": 0,
            "time": 0,
            "value": 0.5039370078740157
          },
          {
            "number": 10,
            "ticks": 0,
            "time": 0,
            "value": 0.7086614173228346
          },
          {
            "number": 10,
            "ticks": 17280,
            "time": 25.411752,
            "value": 0.7086614173228346
          }
        ]
      },
      "pitchBends": [
        {
          "ticks": 1332,
          "time": 1.95882255,
          "value": -0.484375
        },
        {
          "ticks": 1356,
          "time": 1.99411665,
          "value": -0.25
        },
        {
          "ticks": 1376,
          "time": 2.0235284,
          "value": -0.109375
        },
        {
          "ticks": 1392,
          "time": 2.0470578,
          "value": 0
        },
        {
          "ticks": 3252,
          "time": 4.78235055,
          "value": -0.984375
        },
        {
          "ticks": 3276,
          "time": 4.81764465,
          "value": -0.359375
        },
        {
          "ticks": 3296,
          "time": 4.8470564,
          "value": -0.1875
        },
        {
          "ticks": 3320,
          "time": 4.8823505,
          "value": 0
        },
        {
          "ticks": 8536,
          "time": 12.552934900000002,
          "value": -0.984375
        },
        {
          "ticks": 8572,
          "time": 12.60587605,
          "value": -0.328125
        },
        {
          "ticks": 8596,
          "time": 12.64117015,
          "value": -0.171875
        },
        {
          "ticks": 8624,
          "time": 12.682346599999999,
          "value": 0
        },
        {
          "ticks": 10576,
          "time": 15.5529334,
          "value": -0.484375
        },
        {
          "ticks": 10600,
          "time": 15.588227499999999,
          "value": -0.25
        },
        {
          "ticks": 10620,
          "time": 15.61763925,
          "value": -0.109375
        },
        {
          "ticks": 10636,
          "time": 15.641168650000001,
          "value": 0
        },
        {
          "ticks": 15852,
          "time": 23.31175305,
          "value": -0.984375
        },
        {
          "ticks": 15864,
          "time": 23.329400099999997,
          "value": -0.296875
        },
        {
          "ticks": 15872,
          "time": 23.3411648,
          "value": -0.125
        },
        {
          "ticks": 15888,
          "time": 23.364694200000002,
          "value": 0
        },
        {
          "ticks": 16220,
          "time": 23.85292925,
          "value": -0.984375
        },
        {
          "ticks": 16240,
          "time": 23.882341,
          "value": -0.390625
        },
        {
          "ticks": 16256,
          "time": 23.9058704,
          "value": -0.203125
        },
        {
          "ticks": 16280,
          "time": 23.9411645,
          "value": 0
        }
      ],
      "instrument": {
        "family": "guitar",
        "number": 25,
        "name": "acoustic guitar (steel)"
      },
      "name": "",
      "notes": [
        {
          "duration": 0.17058814999999972,
          "durationTicks": 116,
          "midi": 65,
          "name": "F4",
          "ticks": 856,
          "time": 1.2588229000000002,
          "velocity": 1
        },
        {
          "duration": 0.17058814999999994,
          "durationTicks": 116,
          "midi": 77,
          "name": "F5",
          "ticks": 976,
          "time": 1.4352934,
          "velocity": 1
        },
        {
          "duration": 0.2764704499999999,
          "durationTicks": 188,
          "midi": 75,
          "name": "D#5",
          "ticks": 1096,
          "time": 1.6117639,
          "velocity": 1
        },
        {
          "duration": 0.3470586499999999,
          "durationTicks": 236,
          "midi": 75,
          "name": "D#5",
          "ticks": 1336,
          "time": 1.9647048999999999,
          "velocity": 1
        },
        {
          "duration": 0.18235285,
          "durationTicks": 124,
          "midi": 46,
          "name": "A#2",
          "ticks": 1456,
          "time": 2.1411754,
          "velocity": 1
        },
        {
          "duration": 0.35294099999999995,
          "durationTicks": 240,
          "midi": 53,
          "name": "F3",
          "ticks": 1456,
          "time": 2.1411754,
          "velocity": 1
        },
        {
          "duration": 0.7058819999999999,
          "durationTicks": 480,
          "midi": 58,
          "name": "A#3",
          "ticks": 1456,
          "time": 2.1411754,
          "velocity": 1
        },
        {
          "duration": 0.7058819999999999,
          "durationTicks": 480,
          "midi": 62,
          "name": "D4",
          "ticks": 1456,
          "time": 2.1411754,
          "velocity": 1
        },
        {
          "duration": 0.7058819999999999,
          "durationTicks": 480,
          "midi": 65,
          "name": "F4",
          "ticks": 1456,
          "time": 2.1411754,
          "velocity": 1
        },
        {
          "duration": 1.0529406500000005,
          "durationTicks": 716,
          "midi": 74,
          "name": "D5",
          "ticks": 1576,
          "time": 2.3176459,
          "velocity": 1
        },
        {
          "duration": 0.7882349000000004,
          "durationTicks": 536,
          "midi": 46,
          "name": "A#2",
          "ticks": 1696,
          "time": 2.4941164,
          "velocity": 1
        },
        {
          "duration": 0.35294099999999995,
          "durationTicks": 240,
          "midi": 58,
          "name": "A#3",
          "ticks": 1696,
          "time": 2.4941164,
          "velocity": 1
        },
        {
          "duration": 0.3529410000000004,
          "durationTicks": 240,
          "midi": 58,
          "name": "A#3",
          "ticks": 1936,
          "time": 2.8470573999999997,
          "velocity": 1
        },
        {
          "duration": 0.3529410000000004,
          "durationTicks": 240,
          "midi": 62,
          "name": "D4",
          "ticks": 1936,
          "time": 2.8470573999999997,
          "velocity": 1
        },
        {
          "duration": 0.3529410000000004,
          "durationTicks": 240,
          "midi": 62,
          "name": "D4",
          "ticks": 1936,
          "time": 2.8470573999999997,
          "velocity": 1
        },
        {
          "duration": 0.3529410000000004,
          "durationTicks": 240,
          "midi": 65,
          "name": "F4",
          "ticks": 1936,
          "time": 2.8470573999999997,
          "velocity": 1
        },
        {
          "duration": 0.3823527499999999,
          "durationTicks": 260,
          "midi": 53,
          "name": "F3",
          "ticks": 2176,
          "time": 3.1999984,
          "velocity": 1
        },
        {
          "duration": 0.17647049999999975,
          "durationTicks": 120,
          "midi": 58,
          "name": "A#3",
          "ticks": 2176,
          "time": 3.1999984,
          "velocity": 1
        },
        {
          "duration": 0.17647049999999975,
          "durationTicks": 120,
          "midi": 62,
          "name": "D4",
          "ticks": 2176,
          "time": 3.1999984,
          "velocity": 1
        },
        {
          "duration": 0.17647049999999975,
          "durationTicks": 120,
          "midi": 65,
          "name": "F4",
          "ticks": 2176,
          "time": 3.1999984,
          "velocity": 1
        },
        {
          "duration": 0.06470585000000018,
          "durationTicks": 44,
          "midi": 46,
          "name": "A#2",
          "ticks": 2296,
          "time": 3.3764689,
          "velocity": 1
        },
        {
          "duration": 0.1764705000000002,
          "durationTicks": 120,
          "midi": 58,
          "name": "A#3",
          "ticks": 2296,
          "time": 3.3764689,
          "velocity": 1
        },
        {
          "duration": 0.1764705000000002,
          "durationTicks": 120,
          "midi": 62,
          "name": "D4",
          "ticks": 2296,
          "time": 3.3764689,
          "velocity": 1
        },
        {
          "duration": 0.1764705000000002,
          "durationTicks": 120,
          "midi": 65,
          "name": "F4",
          "ticks": 2296,
          "time": 3.3764689,
          "velocity": 1
        },
        {
          "duration": 0.08235290000000006,
          "durationTicks": 56,
          "midi": 46,
          "name": "A#2",
          "ticks": 2416,
          "time": 3.5529394,
          "velocity": 1
        },
        {
          "duration": 0.08823524999999988,
          "durationTicks": 60,
          "midi": 58,
          "name": "A#3",
          "ticks": 2416,
          "time": 3.5529394,
          "velocity": 1
        },
        {
          "duration": 0.35294099999999995,
          "durationTicks": 240,
          "midi": 58,
          "name": "A#3",
          "ticks": 2416,
          "time": 3.5529394,
          "velocity": 1
        },
        {
          "duration": 0.08823524999999988,
          "durationTicks": 60,
          "midi": 62,
          "name": "D4",
          "ticks": 2416,
          "time": 3.5529394,
          "velocity": 1
        },
        {
          "duration": 0.08823524999999988,
          "durationTicks": 60,
          "midi": 65,
          "name": "F4",
          "ticks": 2416,
          "time": 3.5529394,
          "velocity": 1
        },
        {
          "duration": 0.17058815000000038,
          "durationTicks": 116,
          "midi": 77,
          "name": "F5",
          "ticks": 2416,
          "time": 3.5529394,
          "velocity": 1
        },
        {
          "duration": 0.5294114999999997,
          "durationTicks": 360,
          "midi": 58,
          "name": "A#3",
          "ticks": 2536,
          "time": 3.7294099,
          "velocity": 1
        },
        {
          "duration": 0.1764705000000002,
          "durationTicks": 120,
          "midi": 62,
          "name": "D4",
          "ticks": 2536,
          "time": 3.7294099,
          "velocity": 1
        },
        {
          "duration": 0.1764705000000002,
          "durationTicks": 120,
          "midi": 65,
          "name": "F4",
          "ticks": 2536,
          "time": 3.7294099,
          "velocity": 1
        },
        {
          "duration": 0.3470586500000006,
          "durationTicks": 236,
          "midi": 75,
          "name": "D#5",
          "ticks": 2536,
          "time": 3.7294099,
          "velocity": 1
        },
        {
          "duration": 0.5529409000000003,
          "durationTicks": 376,
          "midi": 46,
          "name": "A#2",
          "ticks": 2656,
          "time": 3.9058804,
          "velocity": 1
        },
        {
          "duration": 0.3529409999999995,
          "durationTicks": 240,
          "midi": 58,
          "name": "A#3",
          "ticks": 2656,
          "time": 3.9058804,
          "velocity": 1
        },
        {
          "duration": 0.3529409999999995,
          "durationTicks": 240,
          "midi": 62,
          "name": "D4",
          "ticks": 2656,
          "time": 3.9058804,
          "velocity": 1
        },
        {
          "duration": 0.3529409999999995,
          "durationTicks": 240,
          "midi": 65,
          "name": "F4",
          "ticks": 2656,
          "time": 3.9058804,
          "velocity": 1
        },
        {
          "duration": 0.34705865000000014,
          "durationTicks": 236,
          "midi": 74,
          "name": "D5",
          "ticks": 2776,
          "time": 4.0823509,
          "velocity": 1
        },
        {
          "duration": 0.3823527500000008,
          "durationTicks": 260,
          "midi": 53,
          "name": "F3",
          "ticks": 2896,
          "time": 4.2588213999999995,
          "velocity": 1
        },
        {
          "duration": 0.3529410000000004,
          "durationTicks": 240,
          "midi": 58,
          "name": "A#3",
          "ticks": 2896,
          "time": 4.2588213999999995,
          "velocity": 1
        },
        {
          "duration": 0.3529410000000004,
          "durationTicks": 240,
          "midi": 62,
          "name": "D4",
          "ticks": 2896,
          "time": 4.2588213999999995,
          "velocity": 1
        },
        {
          "duration": 0.3529410000000004,
          "durationTicks": 240,
          "midi": 65,
          "name": "F4",
          "ticks": 2896,
          "time": 4.2588213999999995,
          "velocity": 1
        },
        {
          "duration": 0.34705865000000014,
          "durationTicks": 236,
          "midi": 75,
          "name": "D#5",
          "ticks": 3016,
          "time": 4.4352919,
          "velocity": 1
        },
        {
          "duration": 0.27058810000000033,
          "durationTicks": 184,
          "midi": 46,
          "name": "A#2",
          "ticks": 3136,
          "time": 4.6117624,
          "velocity": 1
        },
        {
          "duration": 0.17647049999999975,
          "durationTicks": 120,
          "midi": 58,
          "name": "A#3",
          "ticks": 3136,
          "time": 4.6117624,
          "velocity": 1
        },
        {
          "duration": 0.32352925,
          "durationTicks": 220,
          "midi": 58,
          "name": "A#3",
          "ticks": 3136,
          "time": 4.6117624,
          "velocity": 1
        },
        {
          "duration": 0.17647049999999975,
          "durationTicks": 120,
          "midi": 62,
          "name": "D4",
          "ticks": 3136,
          "time": 4.6117624,
          "velocity": 1
        },
        {
          "duration": 0.17647049999999975,
          "durationTicks": 120,
          "midi": 65,
          "name": "F4",
          "ticks": 3136,
          "time": 4.6117624,
          "velocity": 1
        },
        {
          "duration": 0.17647050000000064,
          "durationTicks": 120,
          "midi": 58,
          "name": "A#3",
          "ticks": 3256,
          "time": 4.7882329,
          "velocity": 1
        },
        {
          "duration": 0.17647050000000064,
          "durationTicks": 120,
          "midi": 62,
          "name": "D4",
          "ticks": 3256,
          "time": 4.7882329,
          "velocity": 1
        },
        {
          "duration": 0.17647050000000064,
          "durationTicks": 120,
          "midi": 65,
          "name": "F4",
          "ticks": 3256,
          "time": 4.7882329,
          "velocity": 1
        },
        {
          "duration": 0.5235291500000008,
          "durationTicks": 356,
          "midi": 74,
          "name": "D5",
          "ticks": 3256,
          "time": 4.7882329,
          "velocity": 1
        },
        {
          "duration": 0.18235285,
          "durationTicks": 124,
          "midi": 41,
          "name": "F2",
          "ticks": 3376,
          "time": 4.9647034,
          "velocity": 1
        },
        {
          "duration": 0.08823524999999943,
          "durationTicks": 60,
          "midi": 53,
          "name": "F3",
          "ticks": 3376,
          "time": 4.9647034,
          "velocity": 1
        },
        {
          "duration": 0.7058819999999999,
          "durationTicks": 480,
          "midi": 57,
          "name": "A3",
          "ticks": 3376,
          "time": 4.9647034,
          "velocity": 1
        },
        {
          "duration": 0.7058819999999999,
          "durationTicks": 480,
          "midi": 60,
          "name": "C4",
          "ticks": 3376,
          "time": 4.9647034,
          "velocity": 1
        },
        {
          "duration": 0.7058819999999999,
          "durationTicks": 480,
          "midi": 65,
          "name": "F4",
          "ticks": 3376,
          "time": 4.9647034,
          "velocity": 1
        },
        {
          "duration": 0.08823525000000032,
          "durationTicks": 60,
          "midi": 55,
          "name": "G3",
          "ticks": 3436,
          "time": 5.05293865,
          "velocity": 1
        },
        {
          "duration": 0.5294115000000001,
          "durationTicks": 360,
          "midi": 57,
          "name": "A3",
          "ticks": 3496,
          "time": 5.1411739,
          "velocity": 1
        },
        {
          "duration": 0.7294114,
          "durationTicks": 496,
          "midi": 41,
          "name": "F2",
          "ticks": 3616,
          "time": 5.3176444,
          "velocity": 1
        },
        {
          "duration": 1.052940650000001,
          "durationTicks": 716,
          "midi": 72,
          "name": "C5",
          "ticks": 3616,
          "time": 5.3176444,
          "velocity": 1
        },
        {
          "duration": 0.3529409999999995,
          "durationTicks": 240,
          "midi": 57,
          "name": "A3",
          "ticks": 3856,
          "time": 5.6705854,
          "velocity": 1
        },
        {
          "duration": 0.3529409999999995,
          "durationTicks": 240,
          "midi": 60,
          "name": "C4",
          "ticks": 3856,
          "time": 5.6705854,
          "velocity": 1
        },
        {
          "duration": 0.3529409999999995,
          "durationTicks": 240,
          "midi": 65,
          "name": "F4",
          "ticks": 3856,
          "time": 5.6705854,
          "velocity": 1
        },
        {
          "duration": 0.3529409999999995,
          "durationTicks": 240,
          "midi": 65,
          "name": "F4",
          "ticks": 3856,
          "time": 5.6705854,
          "velocity": 1
        },
        {
          "duration": 0.17647050000000064,
          "durationTicks": 120,
          "midi": 57,
          "name": "A3",
          "ticks": 4096,
          "time": 6.0235264,
          "velocity": 1
        },
        {
          "duration": 0.17647050000000064,
          "durationTicks": 120,
          "midi": 57,
          "name": "A3",
          "ticks": 4096,
          "time": 6.0235264,
          "velocity": 1
        },
        {
          "duration": 0.17647050000000064,
          "durationTicks": 120,
          "midi": 60,
          "name": "C4",
          "ticks": 4096,
          "time": 6.0235264,
          "velocity": 1
        },
        {
          "duration": 0.17647050000000064,
          "durationTicks": 120,
          "midi": 65,
          "name": "F4",
          "ticks": 4096,
          "time": 6.0235264,
          "velocity": 1
        },
        {
          "duration": 0.06470584999999929,
          "durationTicks": 44,
          "midi": 41,
          "name": "F2",
          "ticks": 4216,
          "time": 6.1999969,
          "velocity": 1
        },
        {
          "duration": 0.17647049999999975,
          "durationTicks": 120,
          "midi": 53,
          "name": "F3",
          "ticks": 4216,
          "time": 6.1999969,
          "velocity": 1
        },
        {
          "duration": 0.17647049999999975,
          "durationTicks": 120,
          "midi": 57,
          "name": "A3",
          "ticks": 4216,
          "time": 6.1999969,
          "velocity": 1
        },
        {
          "duration": 0.17647049999999975,
          "durationTicks": 120,
          "midi": 60,
          "name": "C4",
          "ticks": 4216,
          "time": 6.1999969,
          "velocity": 1
        },
        {
          "duration": 0.17647049999999975,
          "durationTicks": 120,
          "midi": 65,
          "name": "F4",
          "ticks": 4216,
          "time": 6.1999969,
          "velocity": 1
        },
        {
          "duration": 0.08823525000000032,
          "durationTicks": 60,
          "midi": 57,
          "name": "A3",
          "ticks": 4336,
          "time": 6.3764674,
          "velocity": 1
        },
        {
          "duration": 0.17647049999999975,
          "durationTicks": 120,
          "midi": 57,
          "name": "A3",
          "ticks": 4336,
          "time": 6.3764674,
          "velocity": 1
        },
        {
          "duration": 0.08823525000000032,
          "durationTicks": 60,
          "midi": 60,
          "name": "C4",
          "ticks": 4336,
          "time": 6.3764674,
          "velocity": 1
        },
        {
          "duration": 0.08823525000000032,
          "durationTicks": 60,
          "midi": 65,
          "name": "F4",
          "ticks": 4336,
          "time": 6.3764674,
          "velocity": 1
        },
        {
          "duration": 0.17647049999999975,
          "durationTicks": 120,
          "midi": 57,
          "name": "A3",
          "ticks": 4456,
          "time": 6.5529379,
          "velocity": 1
        },
        {
          "duration": 0.17647049999999975,
          "durationTicks": 120,
          "midi": 58,
          "name": "A#3",
          "ticks": 4456,
          "time": 6.5529379,
          "velocity": 1
        },
        {
          "duration": 0.17647049999999975,
          "durationTicks": 120,
          "midi": 60,
          "name": "C4",
          "ticks": 4456,
          "time": 6.5529379,
          "velocity": 1
        },
        {
          "duration": 0.17647049999999975,
          "durationTicks": 120,
          "midi": 65,
          "name": "F4",
          "ticks": 4456,
          "time": 6.5529379,
          "velocity": 1
        },
        {
          "duration": 0.6235290999999998,
          "durationTicks": 424,
          "midi": 41,
          "name": "F2",
          "ticks": 4576,
          "time": 6.7294084,
          "velocity": 1
        },
        {
          "duration": 0.17647050000000064,
          "durationTicks": 120,
          "midi": 57,
          "name": "A3",
          "ticks": 4576,
          "time": 6.7294084,
          "velocity": 1
        },
        {
          "duration": 0.3529410000000004,
          "durationTicks": 240,
          "midi": 57,
          "name": "A3",
          "ticks": 4576,
          "time": 6.7294084,
          "velocity": 1
        },
        {
          "duration": 0.3529410000000004,
          "durationTicks": 240,
          "midi": 60,
          "name": "C4",
          "ticks": 4576,
          "time": 6.7294084,
          "velocity": 1
        },
        {
          "duration": 0.3529410000000004,
          "durationTicks": 240,
          "midi": 65,
          "name": "F4",
          "ticks": 4576,
          "time": 6.7294084,
          "velocity": 1
        },
        {
          "duration": 0.8823524999999997,
          "durationTicks": 600,
          "midi": 53,
          "name": "F3",
          "ticks": 4696,
          "time": 6.9058789,
          "velocity": 1
        },
        {
          "duration": 0.14705875000000024,
          "durationTicks": 100,
          "midi": 67,
          "name": "G4",
          "ticks": 4696,
          "time": 6.9058789,
          "velocity": 1
        },
        {
          "duration": 0.3529410000000004,
          "durationTicks": 240,
          "midi": 57,
          "name": "A3",
          "ticks": 4816,
          "time": 7.0823494,
          "velocity": 1
        },
        {
          "duration": 0.3529410000000004,
          "durationTicks": 240,
          "midi": 60,
          "name": "C4",
          "ticks": 4816,
          "time": 7.0823494,
          "velocity": 1
        },
        {
          "duration": 0.3529410000000004,
          "durationTicks": 240,
          "midi": 65,
          "name": "F4",
          "ticks": 4816,
          "time": 7.0823494,
          "velocity": 1
        },
        {
          "duration": 0.17058815000000038,
          "durationTicks": 116,
          "midi": 67,
          "name": "G4",
          "ticks": 4816,
          "time": 7.0823494,
          "velocity": 1
        },
        {
          "duration": 0.17058815000000038,
          "durationTicks": 116,
          "midi": 70,
          "name": "A#4",
          "ticks": 4936,
          "time": 7.2588199,
          "velocity": 1
        },
        {
          "duration": 0.32941159999999936,
          "durationTicks": 224,
          "midi": 41,
          "name": "F2",
          "ticks": 5056,
          "time": 7.4352904,
          "velocity": 1
        },
        {
          "duration": 0.17647049999999975,
          "durationTicks": 120,
          "midi": 57,
          "name": "A3",
          "ticks": 5056,
          "time": 7.4352904,
          "velocity": 1
        },
        {
          "duration": 0.17647049999999975,
          "durationTicks": 120,
          "midi": 60,
          "name": "C4",
          "ticks": 5056,
          "time": 7.4352904,
          "velocity": 1
        },
        {
          "duration": 0.17647049999999975,
          "durationTicks": 120,
          "midi": 65,
          "name": "F4",
          "ticks": 5056,
          "time": 7.4352904,
          "velocity": 1
        },
        {
          "duration": 0.8764701500000003,
          "durationTicks": 596,
          "midi": 72,
          "name": "C5",
          "ticks": 5056,
          "time": 7.4352904,
          "velocity": 1
        },
        {
          "duration": 0.17647049999999975,
          "durationTicks": 120,
          "midi": 57,
          "name": "A3",
          "ticks": 5176,
          "time": 7.6117609,
          "velocity": 1
        },
        {
          "duration": 0.17647049999999975,
          "durationTicks": 120,
          "midi": 60,
          "name": "C4",
          "ticks": 5176,
          "time": 7.6117609,
          "velocity": 1
        },
        {
          "duration": 0.17647049999999975,
          "durationTicks": 120,
          "midi": 65,
          "name": "F4",
          "ticks": 5176,
          "time": 7.6117609,
          "velocity": 1
        },
        {
          "duration": 0.17058815000000038,
          "durationTicks": 116,
          "midi": 48,
          "name": "C3",
          "ticks": 5296,
          "time": 7.7882314,
          "velocity": 1
        },
        {
          "duration": 0.3529410000000004,
          "durationTicks": 240,
          "midi": 55,
          "name": "G3",
          "ticks": 5296,
          "time": 7.7882314,
          "velocity": 1
        },
        {
          "duration": 0.7058819999999999,
          "durationTicks": 480,
          "midi": 55,
          "name": "G3",
          "ticks": 5296,
          "time": 7.7882314,
          "velocity": 1
        },
        {
          "duration": 0.7058819999999999,
          "durationTicks": 480,
          "midi": 60,
          "name": "C4",
          "ticks": 5296,
          "time": 7.7882314,
          "velocity": 1
        },
        {
          "duration": 0.7058819999999999,
          "durationTicks": 480,
          "midi": 63,
          "name": "D#4",
          "ticks": 5296,
          "time": 7.7882314,
          "velocity": 1
        },
        {
          "duration": 0.7411761000000006,
          "durationTicks": 504,
          "midi": 48,
          "name": "C3",
          "ticks": 5536,
          "time": 8.1411724,
          "velocity": 1
        },
        {
          "duration": 0.3529409999999995,
          "durationTicks": 240,
          "midi": 58,
          "name": "A#3",
          "ticks": 5536,
          "time": 8.1411724,
          "velocity": 1
        },
        {
          "duration": 0.1352940500000006,
          "durationTicks": 92,
          "midi": 67,
          "name": "G4",
          "ticks": 5656,
          "time": 8.3176429,
          "velocity": 1
        },
        {
          "duration": 0.3529409999999995,
          "durationTicks": 240,
          "midi": 55,
          "name": "G3",
          "ticks": 5776,
          "time": 8.4941134,
          "velocity": 1
        },
        {
          "duration": 0.3529409999999995,
          "durationTicks": 240,
          "midi": 60,
          "name": "C4",
          "ticks": 5776,
          "time": 8.4941134,
          "velocity": 1
        },
        {
          "duration": 0.3529409999999995,
          "durationTicks": 240,
          "midi": 63,
          "name": "D#4",
          "ticks": 5776,
          "time": 8.4941134,
          "velocity": 1
        },
        {
          "duration": 0.3529409999999995,
          "durationTicks": 240,
          "midi": 63,
          "name": "D#4",
          "ticks": 5776,
          "time": 8.4941134,
          "velocity": 1
        },
        {
          "duration": 0.17058815000000038,
          "durationTicks": 116,
          "midi": 67,
          "name": "G4",
          "ticks": 5776,
          "time": 8.4941134,
          "velocity": 1
        },
        {
          "duration": 0.17058815000000038,
          "durationTicks": 116,
          "midi": 70,
          "name": "A#4",
          "ticks": 5896,
          "time": 8.6705839,
          "velocity": 1
        },
        {
          "duration": 0.17647050000000064,
          "durationTicks": 120,
          "midi": 55,
          "name": "G3",
          "ticks": 6016,
          "time": 8.8470544,
          "velocity": 1
        },
        {
          "duration": 0.3529410000000013,
          "durationTicks": 240,
          "midi": 55,
          "name": "G3",
          "ticks": 6016,
          "time": 8.8470544,
          "velocity": 1
        },
        {
          "duration": 0.17647050000000064,
          "durationTicks": 120,
          "midi": 60,
          "name": "C4",
          "ticks": 6016,
          "time": 8.8470544,
          "velocity": 1
        },
        {
          "duration": 0.17647050000000064,
          "durationTicks": 120,
          "midi": 63,
          "name": "D#4",
          "ticks": 6016,
          "time": 8.8470544,
          "velocity": 1
        },
        {
          "duration": 0.31176455000000125,
          "durationTicks": 212,
          "midi": 72,
          "name": "C5",
          "ticks": 6016,
          "time": 8.8470544,
          "velocity": 1
        },
        {
          "duration": 0.08235290000000006,
          "durationTicks": 56,
          "midi": 48,
          "name": "C3",
          "ticks": 6136,
          "time": 9.0235249,
          "velocity": 1
        },
        {
          "duration": 0.17647050000000064,
          "durationTicks": 120,
          "midi": 55,
          "name": "G3",
          "ticks": 6136,
          "time": 9.0235249,
          "velocity": 1
        },
        {
          "duration": 0.17647050000000064,
          "durationTicks": 120,
          "midi": 60,
          "name": "C4",
          "ticks": 6136,
          "time": 9.0235249,
          "velocity": 1
        },
        {
          "duration": 0.17647050000000064,
          "durationTicks": 120,
          "midi": 63,
          "name": "D#4",
          "ticks": 6136,
          "time": 9.0235249,
          "velocity": 1
        },
        {
          "duration": 0.17058815000000038,
          "durationTicks": 116,
          "midi": 48,
          "name": "C3",
          "ticks": 6256,
          "time": 9.1999954,
          "velocity": 1
        },
        {
          "duration": 0.08823525000000032,
          "durationTicks": 60,
          "midi": 55,
          "name": "G3",
          "ticks": 6256,
          "time": 9.1999954,
          "velocity": 1
        },
        {
          "duration": 0.08823525000000032,
          "durationTicks": 60,
          "midi": 60,
          "name": "C4",
          "ticks": 6256,
          "time": 9.1999954,
          "velocity": 1
        },
        {
          "duration": 0.08823525000000032,
          "durationTicks": 60,
          "midi": 63,
          "name": "D#4",
          "ticks": 6256,
          "time": 9.1999954,
          "velocity": 1
        },
        {
          "duration": 0.3529409999999995,
          "durationTicks": 240,
          "midi": 63,
          "name": "D#4",
          "ticks": 6256,
          "time": 9.1999954,
          "velocity": 1
        },
        {
          "duration": 1.4058816499999995,
          "durationTicks": 956,
          "midi": 72,
          "name": "C5",
          "ticks": 6256,
          "time": 9.1999954,
          "velocity": 1
        },
        {
          "duration": 0.17647050000000064,
          "durationTicks": 120,
          "midi": 55,
          "name": "G3",
          "ticks": 6376,
          "time": 9.3764659,
          "velocity": 1
        },
        {
          "duration": 0.17647050000000064,
          "durationTicks": 120,
          "midi": 60,
          "name": "C4",
          "ticks": 6376,
          "time": 9.3764659,
          "velocity": 1
        },
        {
          "duration": 0.5294115000000001,
          "durationTicks": 360,
          "midi": 63,
          "name": "D#4",
          "ticks": 6376,
          "time": 9.3764659,
          "velocity": 1
        },
        {
          "duration": 0.9352936500000002,
          "durationTicks": 636,
          "midi": 48,
          "name": "C3",
          "ticks": 6496,
          "time": 9.5529364,
          "velocity": 1
        },
        {
          "duration": 0.3529409999999995,
          "durationTicks": 240,
          "midi": 55,
          "name": "G3",
          "ticks": 6496,
          "time": 9.5529364,
          "velocity": 1
        },
        {
          "duration": 0.3529409999999995,
          "durationTicks": 240,
          "midi": 60,
          "name": "C4",
          "ticks": 6496,
          "time": 9.5529364,
          "velocity": 1
        },
        {
          "duration": 0.3529409999999995,
          "durationTicks": 240,
          "midi": 63,
          "name": "D#4",
          "ticks": 6496,
          "time": 9.5529364,
          "velocity": 1
        },
        {
          "duration": 0.3529410000000013,
          "durationTicks": 240,
          "midi": 55,
          "name": "G3",
          "ticks": 6736,
          "time": 9.9058774,
          "velocity": 1
        },
        {
          "duration": 0.5294115000000001,
          "durationTicks": 360,
          "midi": 55,
          "name": "G3",
          "ticks": 6736,
          "time": 9.9058774,
          "velocity": 1
        },
        {
          "duration": 0.3529410000000013,
          "durationTicks": 240,
          "midi": 60,
          "name": "C4",
          "ticks": 6736,
          "time": 9.9058774,
          "velocity": 1
        },
        {
          "duration": 0.3529410000000013,
          "durationTicks": 240,
          "midi": 63,
          "name": "D#4",
          "ticks": 6736,
          "time": 9.9058774,
          "velocity": 1
        },
        {
          "duration": 0.17647049999999886,
          "durationTicks": 120,
          "midi": 55,
          "name": "G3",
          "ticks": 6976,
          "time": 10.258818400000001,
          "velocity": 1
        },
        {
          "duration": 0.17647049999999886,
          "durationTicks": 120,
          "midi": 60,
          "name": "C4",
          "ticks": 6976,
          "time": 10.258818400000001,
          "velocity": 1
        },
        {
          "duration": 0.17647049999999886,
          "durationTicks": 120,
          "midi": 63,
          "name": "D#4",
          "ticks": 6976,
          "time": 10.258818400000001,
          "velocity": 1
        },
        {
          "duration": 0.08823525000000032,
          "durationTicks": 60,
          "midi": 53,
          "name": "F3",
          "ticks": 7096,
          "time": 10.4352889,
          "velocity": 1
        },
        {
          "duration": 0.17647050000000064,
          "durationTicks": 120,
          "midi": 55,
          "name": "G3",
          "ticks": 7096,
          "time": 10.4352889,
          "velocity": 1
        },
        {
          "duration": 0.17647050000000064,
          "durationTicks": 120,
          "midi": 60,
          "name": "C4",
          "ticks": 7096,
          "time": 10.4352889,
          "velocity": 1
        },
        {
          "duration": 0.17647050000000064,
          "durationTicks": 120,
          "midi": 63,
          "name": "D#4",
          "ticks": 7096,
          "time": 10.4352889,
          "velocity": 1
        },
        {
          "duration": 0.08823525000000032,
          "durationTicks": 60,
          "midi": 55,
          "name": "G3",
          "ticks": 7156,
          "time": 10.52352415,
          "velocity": 1
        },
        {
          "duration": 0.1235293500000001,
          "durationTicks": 84,
          "midi": 41,
          "name": "F2",
          "ticks": 7216,
          "time": 10.6117594,
          "velocity": 1
        },
        {
          "duration": 0.3529409999999995,
          "durationTicks": 240,
          "midi": 57,
          "name": "A3",
          "ticks": 7216,
          "time": 10.6117594,
          "velocity": 1
        },
        {
          "duration": 0.7058820000000008,
          "durationTicks": 480,
          "midi": 57,
          "name": "A3",
          "ticks": 7216,
          "time": 10.6117594,
          "velocity": 1
        },
        {
          "duration": 0.7058820000000008,
          "durationTicks": 480,
          "midi": 60,
          "name": "C4",
          "ticks": 7216,
          "time": 10.6117594,
          "velocity": 1
        },
        {
          "duration": 0.7058820000000008,
          "durationTicks": 480,
          "midi": 65,
          "name": "F4",
          "ticks": 7216,
          "time": 10.6117594,
          "velocity": 1
        },
        {
          "duration": 0.7411760999999988,
          "durationTicks": 504,
          "midi": 41,
          "name": "F2",
          "ticks": 7456,
          "time": 10.9647004,
          "velocity": 1
        },
        {
          "duration": 0.3529410000000013,
          "durationTicks": 240,
          "midi": 65,
          "name": "F4",
          "ticks": 7456,
          "time": 10.9647004,
          "velocity": 1
        },
        {
          "duration": 0.3529409999999995,
          "durationTicks": 240,
          "midi": 57,
          "name": "A3",
          "ticks": 7696,
          "time": 11.317641400000001,
          "velocity": 1
        },
        {
          "duration": 0.3529409999999995,
          "durationTicks": 240,
          "midi": 57,
          "name": "A3",
          "ticks": 7696,
          "time": 11.317641400000001,
          "velocity": 1
        },
        {
          "duration": 0.3529409999999995,
          "durationTicks": 240,
          "midi": 60,
          "name": "C4",
          "ticks": 7696,
          "time": 11.317641400000001,
          "velocity": 1
        },
        {
          "duration": 0.3529409999999995,
          "durationTicks": 240,
          "midi": 65,
          "name": "F4",
          "ticks": 7696,
          "time": 11.317641400000001,
          "velocity": 1
        },
        {
          "duration": 0.3529410000000013,
          "durationTicks": 240,
          "midi": 53,
          "name": "F3",
          "ticks": 7936,
          "time": 11.6705824,
          "velocity": 1
        },
        {
          "duration": 0.17647050000000064,
          "durationTicks": 120,
          "midi": 57,
          "name": "A3",
          "ticks": 7936,
          "time": 11.6705824,
          "velocity": 1
        },
        {
          "duration": 0.17647050000000064,
          "durationTicks": 120,
          "midi": 60,
          "name": "C4",
          "ticks": 7936,
          "time": 11.6705824,
          "velocity": 1
        },
        {
          "duration": 0.14117640000000087,
          "durationTicks": 96,
          "midi": 65,
          "name": "F4",
          "ticks": 7936,
          "time": 11.6705824,
          "velocity": 1
        },
        {
          "duration": 0.17647050000000064,
          "durationTicks": 120,
          "midi": 65,
          "name": "F4",
          "ticks": 7936,
          "time": 11.6705824,
          "velocity": 1
        },
        {
          "duration": 0.08235289999999829,
          "durationTicks": 56,
          "midi": 41,
          "name": "F2",
          "ticks": 8056,
          "time": 11.847052900000001,
          "velocity": 1
        },
        {
          "duration": 0.17647050000000064,
          "durationTicks": 120,
          "midi": 57,
          "name": "A3",
          "ticks": 8056,
          "time": 11.847052900000001,
          "velocity": 1
        },
        {
          "duration": 0.17647050000000064,
          "durationTicks": 120,
          "midi": 60,
          "name": "C4",
          "ticks": 8056,
          "time": 11.847052900000001,
          "velocity": 1
        },
        {
          "duration": 0.1705881499999986,
          "durationTicks": 116,
          "midi": 65,
          "name": "F4",
          "ticks": 8056,
          "time": 11.847052900000001,
          "velocity": 1
        },
        {
          "duration": 0.17647050000000064,
          "durationTicks": 120,
          "midi": 65,
          "name": "F4",
          "ticks": 8056,
          "time": 11.847052900000001,
          "velocity": 1
        },
        {
          "duration": 0.12352934999999654,
          "durationTicks": 84,
          "midi": 40,
          "name": "E2",
          "ticks": 8176,
          "time": 12.023523400000002,
          "velocity": 1
        },
        {
          "duration": 0.08823524999999854,
          "durationTicks": 60,
          "midi": 57,
          "name": "A3",
          "ticks": 8176,
          "time": 12.023523400000002,
          "velocity": 1
        },
        {
          "duration": 0.3529409999999995,
          "durationTicks": 240,
          "midi": 57,
          "name": "A3",
          "ticks": 8176,
          "time": 12.023523400000002,
          "velocity": 1
        },
        {
          "duration": 0.08823524999999854,
          "durationTicks": 60,
          "midi": 60,
          "name": "C4",
          "ticks": 8176,
          "time": 12.023523400000002,
          "velocity": 1
        },
        {
          "duration": 0.08823524999999854,
          "durationTicks": 60,
          "midi": 65,
          "name": "F4",
          "ticks": 8176,
          "time": 12.023523400000002,
          "velocity": 1
        },
        {
          "duration": 0.17058814999999683,
          "durationTicks": 116,
          "midi": 74,
          "name": "D5",
          "ticks": 8176,
          "time": 12.023523400000002,
          "velocity": 1
        },
        {
          "duration": 0.12352934999999832,
          "durationTicks": 84,
          "midi": 41,
          "name": "F2",
          "ticks": 8296,
          "time": 12.1999939,
          "velocity": 1
        },
        {
          "duration": 0.5294115000000001,
          "durationTicks": 360,
          "midi": 57,
          "name": "A3",
          "ticks": 8296,
          "time": 12.1999939,
          "velocity": 1
        },
        {
          "duration": 0.17647050000000064,
          "durationTicks": 120,
          "midi": 60,
          "name": "C4",
          "ticks": 8296,
          "time": 12.1999939,
          "velocity": 1
        },
        {
          "duration": 0.17647050000000064,
          "durationTicks": 120,
          "midi": 65,
          "name": "F4",
          "ticks": 8296,
          "time": 12.1999939,
          "velocity": 1
        },
        {
          "duration": 0.1705881499999986,
          "durationTicks": 116,
          "midi": 72,
          "name": "C5",
          "ticks": 8296,
          "time": 12.1999939,
          "velocity": 1
        },
        {
          "duration": 0.34705864999999747,
          "durationTicks": 236,
          "midi": 41,
          "name": "F2",
          "ticks": 8416,
          "time": 12.376464400000001,
          "velocity": 1
        },
        {
          "duration": 0.3529409999999995,
          "durationTicks": 240,
          "midi": 57,
          "name": "A3",
          "ticks": 8416,
          "time": 12.376464400000001,
          "velocity": 1
        },
        {
          "duration": 0.3529409999999995,
          "durationTicks": 240,
          "midi": 60,
          "name": "C4",
          "ticks": 8416,
          "time": 12.376464400000001,
          "velocity": 1
        },
        {
          "duration": 0.3529409999999995,
          "durationTicks": 240,
          "midi": 65,
          "name": "F4",
          "ticks": 8416,
          "time": 12.376464400000001,
          "velocity": 1
        },
        {
          "duration": 0.5235291499999963,
          "durationTicks": 356,
          "midi": 72,
          "name": "C5",
          "ticks": 8536,
          "time": 12.552934900000002,
          "velocity": 1
        },
        {
          "duration": 0.08235289999999829,
          "durationTicks": 56,
          "midi": 53,
          "name": "F3",
          "ticks": 8656,
          "time": 12.729405400000001,
          "velocity": 1
        },
        {
          "duration": 0.3529409999999995,
          "durationTicks": 240,
          "midi": 57,
          "name": "A3",
          "ticks": 8656,
          "time": 12.729405400000001,
          "velocity": 1
        },
        {
          "duration": 0.3529409999999995,
          "durationTicks": 240,
          "midi": 58,
          "name": "A#3",
          "ticks": 8656,
          "time": 12.729405400000001,
          "velocity": 1
        },
        {
          "duration": 0.3529409999999995,
          "durationTicks": 240,
          "midi": 60,
          "name": "C4",
          "ticks": 8656,
          "time": 12.729405400000001,
          "velocity": 1
        },
        {
          "duration": 0.3529409999999995,
          "durationTicks": 240,
          "midi": 65,
          "name": "F4",
          "ticks": 8656,
          "time": 12.729405400000001,
          "velocity": 1
        },
        {
          "duration": 0.08235289999999829,
          "durationTicks": 56,
          "midi": 53,
          "name": "F3",
          "ticks": 8776,
          "time": 12.905875900000002,
          "velocity": 1
        },
        {
          "duration": 0.2588233999999989,
          "durationTicks": 176,
          "midi": 51,
          "name": "D#3",
          "ticks": 8896,
          "time": 13.0823464,
          "velocity": 1
        },
        {
          "duration": 0.17647050000000064,
          "durationTicks": 120,
          "midi": 57,
          "name": "A3",
          "ticks": 8896,
          "time": 13.0823464,
          "velocity": 1
        },
        {
          "duration": 0.17647050000000064,
          "durationTicks": 120,
          "midi": 60,
          "name": "C4",
          "ticks": 8896,
          "time": 13.0823464,
          "velocity": 1
        },
        {
          "duration": 0.3529410000000013,
          "durationTicks": 240,
          "midi": 60,
          "name": "C4",
          "ticks": 8896,
          "time": 13.0823464,
          "velocity": 1
        },
        {
          "duration": 0.17647050000000064,
          "durationTicks": 120,
          "midi": 65,
          "name": "F4",
          "ticks": 8896,
          "time": 13.0823464,
          "velocity": 1
        },
        {
          "duration": 1.4058816499999995,
          "durationTicks": 956,
          "midi": 70,
          "name": "A#4",
          "ticks": 8896,
          "time": 13.0823464,
          "velocity": 1
        },
        {
          "duration": 0.17647050000000064,
          "durationTicks": 120,
          "midi": 57,
          "name": "A3",
          "ticks": 9016,
          "time": 13.258816900000001,
          "velocity": 1
        },
        {
          "duration": 0.17647050000000064,
          "durationTicks": 120,
          "midi": 60,
          "name": "C4",
          "ticks": 9016,
          "time": 13.258816900000001,
          "velocity": 1
        },
        {
          "duration": 0.17647050000000064,
          "durationTicks": 120,
          "midi": 65,
          "name": "F4",
          "ticks": 9016,
          "time": 13.258816900000001,
          "velocity": 1
        },
        {
          "duration": 0.18235284999999912,
          "durationTicks": 124,
          "midi": 46,
          "name": "A#2",
          "ticks": 9136,
          "time": 13.435287400000002,
          "velocity": 1
        },
        {
          "duration": 0.705881999999999,
          "durationTicks": 480,
          "midi": 58,
          "name": "A#3",
          "ticks": 9136,
          "time": 13.435287400000002,
          "velocity": 1
        },
        {
          "duration": 0.705881999999999,
          "durationTicks": 480,
          "midi": 62,
          "name": "D4",
          "ticks": 9136,
          "time": 13.435287400000002,
          "velocity": 1
        },
        {
          "duration": 0.705881999999999,
          "durationTicks": 480,
          "midi": 65,
          "name": "F4",
          "ticks": 9136,
          "time": 13.435287400000002,
          "velocity": 1
        },
        {
          "duration": 0.7882348999999973,
          "durationTicks": 536,
          "midi": 46,
          "name": "A#2",
          "ticks": 9376,
          "time": 13.788228400000001,
          "velocity": 1
        },
        {
          "duration": 0.3529409999999995,
          "durationTicks": 240,
          "midi": 74,
          "name": "D5",
          "ticks": 9376,
          "time": 13.788228400000001,
          "velocity": 1
        },
        {
          "duration": 0.3529410000000013,
          "durationTicks": 240,
          "midi": 58,
          "name": "A#3",
          "ticks": 9616,
          "time": 14.1411694,
          "velocity": 1
        },
        {
          "duration": 0.3529410000000013,
          "durationTicks": 240,
          "midi": 62,
          "name": "D4",
          "ticks": 9616,
          "time": 14.1411694,
          "velocity": 1
        },
        {
          "duration": 0.3529410000000013,
          "durationTicks": 240,
          "midi": 65,
          "name": "F4",
          "ticks": 9616,
          "time": 14.1411694,
          "velocity": 1
        },
        {
          "duration": 0.7058820000000008,
          "durationTicks": 480,
          "midi": 74,
          "name": "D5",
          "ticks": 9616,
          "time": 14.1411694,
          "velocity": 1
        },
        {
          "duration": 0.17647049999999886,
          "durationTicks": 120,
          "midi": 58,
          "name": "A#3",
          "ticks": 9856,
          "time": 14.494110400000002,
          "velocity": 1
        },
        {
          "duration": 0.17647049999999886,
          "durationTicks": 120,
          "midi": 62,
          "name": "D4",
          "ticks": 9856,
          "time": 14.494110400000002,
          "velocity": 1
        },
        {
          "duration": 0.17647049999999886,
          "durationTicks": 120,
          "midi": 65,
          "name": "F4",
          "ticks": 9856,
          "time": 14.494110400000002,
          "velocity": 1
        },
        {
          "duration": 0.06470584999999929,
          "durationTicks": 44,
          "midi": 46,
          "name": "A#2",
          "ticks": 9976,
          "time": 14.670580900000001,
          "velocity": 1
        },
        {
          "duration": 0.17647050000000064,
          "durationTicks": 120,
          "midi": 58,
          "name": "A#3",
          "ticks": 9976,
          "time": 14.670580900000001,
          "velocity": 1
        },
        {
          "duration": 0.17647050000000064,
          "durationTicks": 120,
          "midi": 62,
          "name": "D4",
          "ticks": 9976,
          "time": 14.670580900000001,
          "velocity": 1
        },
        {
          "duration": 0.1705881499999986,
          "durationTicks": 116,
          "midi": 65,
          "name": "F4",
          "ticks": 9976,
          "time": 14.670580900000001,
          "velocity": 1
        },
        {
          "duration": 0.17647050000000064,
          "durationTicks": 120,
          "midi": 65,
          "name": "F4",
          "ticks": 9976,
          "time": 14.670580900000001,
          "velocity": 1
        },
        {
          "duration": 0.08235289999999829,
          "durationTicks": 56,
          "midi": 46,
          "name": "A#2",
          "ticks": 10096,
          "time": 14.847051400000002,
          "velocity": 1
        },
        {
          "duration": 0.08823525000000032,
          "durationTicks": 60,
          "midi": 58,
          "name": "A#3",
          "ticks": 10096,
          "time": 14.847051400000002,
          "velocity": 1
        },
        {
          "duration": 0.3529409999999995,
          "durationTicks": 240,
          "midi": 58,
          "name": "A#3",
          "ticks": 10096,
          "time": 14.847051400000002,
          "velocity": 1
        },
        {
          "duration": 0.08823525000000032,
          "durationTicks": 60,
          "midi": 62,
          "name": "D4",
          "ticks": 10096,
          "time": 14.847051400000002,
          "velocity": 1
        },
        {
          "duration": 0.08823525000000032,
          "durationTicks": 60,
          "midi": 65,
          "name": "F4",
          "ticks": 10096,
          "time": 14.847051400000002,
          "velocity": 1
        },
        {
          "duration": 0.17058814999999683,
          "durationTicks": 116,
          "midi": 77,
          "name": "F5",
          "ticks": 10096,
          "time": 14.847051400000002,
          "velocity": 1
        },
        {
          "duration": 0.5294114999999984,
          "durationTicks": 360,
          "midi": 58,
          "name": "A#3",
          "ticks": 10216,
          "time": 15.023521900000002,
          "velocity": 1
        },
        {
          "duration": 0.17647049999999886,
          "durationTicks": 120,
          "midi": 62,
          "name": "D4",
          "ticks": 10216,
          "time": 15.023521900000002,
          "velocity": 1
        },
        {
          "duration": 0.17647049999999886,
          "durationTicks": 120,
          "midi": 65,
          "name": "F4",
          "ticks": 10216,
          "time": 15.023521900000002,
          "velocity": 1
        },
        {
          "duration": 0.5235291499999963,
          "durationTicks": 356,
          "midi": 75,
          "name": "D#5",
          "ticks": 10216,
          "time": 15.023521900000002,
          "velocity": 1
        },
        {
          "duration": 0.5529408999999994,
          "durationTicks": 376,
          "midi": 46,
          "name": "A#2",
          "ticks": 10336,
          "time": 15.199992400000001,
          "velocity": 1
        },
        {
          "duration": 0.3529409999999995,
          "durationTicks": 240,
          "midi": 58,
          "name": "A#3",
          "ticks": 10336,
          "time": 15.199992400000001,
          "velocity": 1
        },
        {
          "duration": 0.3529409999999995,
          "durationTicks": 240,
          "midi": 62,
          "name": "D4",
          "ticks": 10336,
          "time": 15.199992400000001,
          "velocity": 1
        },
        {
          "duration": 0.3529409999999995,
          "durationTicks": 240,
          "midi": 65,
          "name": "F4",
          "ticks": 10336,
          "time": 15.199992400000001,
          "velocity": 1
        },
        {
          "duration": 0.382352749999999,
          "durationTicks": 260,
          "midi": 53,
          "name": "F3",
          "ticks": 10576,
          "time": 15.5529334,
          "velocity": 1
        },
        {
          "duration": 0.3529410000000013,
          "durationTicks": 240,
          "midi": 58,
          "name": "A#3",
          "ticks": 10576,
          "time": 15.5529334,
          "velocity": 1
        },
        {
          "duration": 0.3529410000000013,
          "durationTicks": 240,
          "midi": 62,
          "name": "D4",
          "ticks": 10576,
          "time": 15.5529334,
          "velocity": 1
        },
        {
          "duration": 0.3529410000000013,
          "durationTicks": 240,
          "midi": 65,
          "name": "F4",
          "ticks": 10576,
          "time": 15.5529334,
          "velocity": 1
        },
        {
          "duration": 0.34705864999999925,
          "durationTicks": 236,
          "midi": 74,
          "name": "D5",
          "ticks": 10576,
          "time": 15.5529334,
          "velocity": 1
        },
        {
          "duration": 0.27058809999999767,
          "durationTicks": 184,
          "midi": 46,
          "name": "A#2",
          "ticks": 10816,
          "time": 15.905874400000002,
          "velocity": 1
        },
        {
          "duration": 0.17647050000000064,
          "durationTicks": 120,
          "midi": 58,
          "name": "A#3",
          "ticks": 10816,
          "time": 15.905874400000002,
          "velocity": 1
        },
        {
          "duration": 0.32352925,
          "durationTicks": 220,
          "midi": 58,
          "name": "A#3",
          "ticks": 10816,
          "time": 15.905874400000002,
          "velocity": 1
        },
        {
          "duration": 0.17647050000000064,
          "durationTicks": 120,
          "midi": 62,
          "name": "D4",
          "ticks": 10816,
          "time": 15.905874400000002,
          "velocity": 1
        },
        {
          "duration": 0.17647050000000064,
          "durationTicks": 120,
          "midi": 65,
          "name": "F4",
          "ticks": 10816,
          "time": 15.905874400000002,
          "velocity": 1
        },
        {
          "duration": 0.17058814999999683,
          "durationTicks": 116,
          "midi": 75,
          "name": "D#5",
          "ticks": 10816,
          "time": 15.905874400000002,
          "velocity": 1
        },
        {
          "duration": 0.17647050000000064,
          "durationTicks": 120,
          "midi": 58,
          "name": "A#3",
          "ticks": 10936,
          "time": 16.082344900000002,
          "velocity": 1
        },
        {
          "duration": 0.17647050000000064,
          "durationTicks": 120,
          "midi": 62,
          "name": "D4",
          "ticks": 10936,
          "time": 16.082344900000002,
          "velocity": 1
        },
        {
          "duration": 0.17647050000000064,
          "durationTicks": 120,
          "midi": 65,
          "name": "F4",
          "ticks": 10936,
          "time": 16.082344900000002,
          "velocity": 1
        },
        {
          "duration": 0.34705864999999747,
          "durationTicks": 236,
          "midi": 74,
          "name": "D5",
          "ticks": 10936,
          "time": 16.082344900000002,
          "velocity": 1
        },
        {
          "duration": 0.18235284999999735,
          "durationTicks": 124,
          "midi": 41,
          "name": "F2",
          "ticks": 11056,
          "time": 16.258815400000003,
          "velocity": 1
        },
        {
          "duration": 0.08823524999999677,
          "durationTicks": 60,
          "midi": 53,
          "name": "F3",
          "ticks": 11056,
          "time": 16.258815400000003,
          "velocity": 1
        },
        {
          "duration": 0.705881999999999,
          "durationTicks": 480,
          "midi": 57,
          "name": "A3",
          "ticks": 11056,
          "time": 16.258815400000003,
          "velocity": 1
        },
        {
          "duration": 0.705881999999999,
          "durationTicks": 480,
          "midi": 60,
          "name": "C4",
          "ticks": 11056,
          "time": 16.258815400000003,
          "velocity": 1
        },
        {
          "duration": 0.705881999999999,
          "durationTicks": 480,
          "midi": 65,
          "name": "F4",
          "ticks": 11056,
          "time": 16.258815400000003,
          "velocity": 1
        },
        {
          "duration": 0.08823525000000032,
          "durationTicks": 60,
          "midi": 55,
          "name": "G3",
          "ticks": 11116,
          "time": 16.34705065,
          "velocity": 1
        },
        {
          "duration": 0.5294115000000019,
          "durationTicks": 360,
          "midi": 57,
          "name": "A3",
          "ticks": 11176,
          "time": 16.4352859,
          "velocity": 1
        },
        {
          "duration": 1.5823521499999984,
          "durationTicks": 1076,
          "midi": 72,
          "name": "C5",
          "ticks": 11176,
          "time": 16.4352859,
          "velocity": 1
        },
        {
          "duration": 0.7294114,
          "durationTicks": 496,
          "midi": 41,
          "name": "F2",
          "ticks": 11296,
          "time": 16.6117564,
          "velocity": 1
        },
        {
          "duration": 0.35294099999999773,
          "durationTicks": 240,
          "midi": 57,
          "name": "A3",
          "ticks": 11536,
          "time": 16.964697400000002,
          "velocity": 1
        },
        {
          "duration": 0.35294099999999773,
          "durationTicks": 240,
          "midi": 60,
          "name": "C4",
          "ticks": 11536,
          "time": 16.964697400000002,
          "velocity": 1
        },
        {
          "duration": 0.35294099999999773,
          "durationTicks": 240,
          "midi": 65,
          "name": "F4",
          "ticks": 11536,
          "time": 16.964697400000002,
          "velocity": 1
        },
        {
          "duration": 0.35294099999999773,
          "durationTicks": 240,
          "midi": 65,
          "name": "F4",
          "ticks": 11536,
          "time": 16.964697400000002,
          "velocity": 1
        },
        {
          "duration": 0.17647050000000064,
          "durationTicks": 120,
          "midi": 57,
          "name": "A3",
          "ticks": 11776,
          "time": 17.3176384,
          "velocity": 1
        },
        {
          "duration": 0.17647050000000064,
          "durationTicks": 120,
          "midi": 57,
          "name": "A3",
          "ticks": 11776,
          "time": 17.3176384,
          "velocity": 1
        },
        {
          "duration": 0.17647050000000064,
          "durationTicks": 120,
          "midi": 60,
          "name": "C4",
          "ticks": 11776,
          "time": 17.3176384,
          "velocity": 1
        },
        {
          "duration": 0.17647050000000064,
          "durationTicks": 120,
          "midi": 65,
          "name": "F4",
          "ticks": 11776,
          "time": 17.3176384,
          "velocity": 1
        },
        {
          "duration": 0.06470584999999929,
          "durationTicks": 44,
          "midi": 41,
          "name": "F2",
          "ticks": 11896,
          "time": 17.4941089,
          "velocity": 1
        },
        {
          "duration": 0.17647050000000064,
          "durationTicks": 120,
          "midi": 53,
          "name": "F3",
          "ticks": 11896,
          "time": 17.4941089,
          "velocity": 1
        },
        {
          "duration": 0.17647050000000064,
          "durationTicks": 120,
          "midi": 57,
          "name": "A3",
          "ticks": 11896,
          "time": 17.4941089,
          "velocity": 1
        },
        {
          "duration": 0.17647050000000064,
          "durationTicks": 120,
          "midi": 60,
          "name": "C4",
          "ticks": 11896,
          "time": 17.4941089,
          "velocity": 1
        },
        {
          "duration": 0.17647050000000064,
          "durationTicks": 120,
          "midi": 65,
          "name": "F4",
          "ticks": 11896,
          "time": 17.4941089,
          "velocity": 1
        },
        {
          "duration": 0.08823525000000032,
          "durationTicks": 60,
          "midi": 57,
          "name": "A3",
          "ticks": 12016,
          "time": 17.6705794,
          "velocity": 1
        },
        {
          "duration": 0.17647050000000064,
          "durationTicks": 120,
          "midi": 57,
          "name": "A3",
          "ticks": 12016,
          "time": 17.6705794,
          "velocity": 1
        },
        {
          "duration": 0.08823525000000032,
          "durationTicks": 60,
          "midi": 60,
          "name": "C4",
          "ticks": 12016,
          "time": 17.6705794,
          "velocity": 1
        },
        {
          "duration": 0.08823525000000032,
          "durationTicks": 60,
          "midi": 65,
          "name": "F4",
          "ticks": 12016,
          "time": 17.6705794,
          "velocity": 1
        },
        {
          "duration": 0.17647050000000064,
          "durationTicks": 120,
          "midi": 57,
          "name": "A3",
          "ticks": 12136,
          "time": 17.847049900000002,
          "velocity": 1
        },
        {
          "duration": 0.17647050000000064,
          "durationTicks": 120,
          "midi": 58,
          "name": "A#3",
          "ticks": 12136,
          "time": 17.847049900000002,
          "velocity": 1
        },
        {
          "duration": 0.17647050000000064,
          "durationTicks": 120,
          "midi": 60,
          "name": "C4",
          "ticks": 12136,
          "time": 17.847049900000002,
          "velocity": 1
        },
        {
          "duration": 0.17647050000000064,
          "durationTicks": 120,
          "midi": 65,
          "name": "F4",
          "ticks": 12136,
          "time": 17.847049900000002,
          "velocity": 1
        },
        {
          "duration": 0.623529099999999,
          "durationTicks": 424,
          "midi": 41,
          "name": "F2",
          "ticks": 12256,
          "time": 18.023520400000002,
          "velocity": 1
        },
        {
          "duration": 0.17647050000000064,
          "durationTicks": 120,
          "midi": 57,
          "name": "A3",
          "ticks": 12256,
          "time": 18.023520400000002,
          "velocity": 1
        },
        {
          "duration": 0.35294099999999773,
          "durationTicks": 240,
          "midi": 57,
          "name": "A3",
          "ticks": 12256,
          "time": 18.023520400000002,
          "velocity": 1
        },
        {
          "duration": 0.35294099999999773,
          "durationTicks": 240,
          "midi": 60,
          "name": "C4",
          "ticks": 12256,
          "time": 18.023520400000002,
          "velocity": 1
        },
        {
          "duration": 0.35294099999999773,
          "durationTicks": 240,
          "midi": 65,
          "name": "F4",
          "ticks": 12256,
          "time": 18.023520400000002,
          "velocity": 1
        },
        {
          "duration": 0.8823524999999997,
          "durationTicks": 600,
          "midi": 53,
          "name": "F3",
          "ticks": 12376,
          "time": 18.199990900000003,
          "velocity": 1
        },
        {
          "duration": 0.3529410000000013,
          "durationTicks": 240,
          "midi": 57,
          "name": "A3",
          "ticks": 12496,
          "time": 18.3764614,
          "velocity": 1
        },
        {
          "duration": 0.3529410000000013,
          "durationTicks": 240,
          "midi": 60,
          "name": "C4",
          "ticks": 12496,
          "time": 18.3764614,
          "velocity": 1
        },
        {
          "duration": 0.3529410000000013,
          "durationTicks": 240,
          "midi": 65,
          "name": "F4",
          "ticks": 12496,
          "time": 18.3764614,
          "velocity": 1
        },
        {
          "duration": 0.32941160000000025,
          "durationTicks": 224,
          "midi": 41,
          "name": "F2",
          "ticks": 12736,
          "time": 18.7294024,
          "velocity": 1
        },
        {
          "duration": 0.17647050000000064,
          "durationTicks": 120,
          "midi": 57,
          "name": "A3",
          "ticks": 12736,
          "time": 18.7294024,
          "velocity": 1
        },
        {
          "duration": 0.17647050000000064,
          "durationTicks": 120,
          "midi": 60,
          "name": "C4",
          "ticks": 12736,
          "time": 18.7294024,
          "velocity": 1
        },
        {
          "duration": 0.17647050000000064,
          "durationTicks": 120,
          "midi": 65,
          "name": "F4",
          "ticks": 12736,
          "time": 18.7294024,
          "velocity": 1
        },
        {
          "duration": 0.17647050000000064,
          "durationTicks": 120,
          "midi": 57,
          "name": "A3",
          "ticks": 12856,
          "time": 18.905872900000002,
          "velocity": 1
        },
        {
          "duration": 0.17647050000000064,
          "durationTicks": 120,
          "midi": 60,
          "name": "C4",
          "ticks": 12856,
          "time": 18.905872900000002,
          "velocity": 1
        },
        {
          "duration": 0.17647050000000064,
          "durationTicks": 120,
          "midi": 65,
          "name": "F4",
          "ticks": 12856,
          "time": 18.905872900000002,
          "velocity": 1
        },
        {
          "duration": 0.17058814999999683,
          "durationTicks": 116,
          "midi": 48,
          "name": "C3",
          "ticks": 12976,
          "time": 19.082343400000003,
          "velocity": 1
        },
        {
          "duration": 0.35294099999999773,
          "durationTicks": 240,
          "midi": 55,
          "name": "G3",
          "ticks": 12976,
          "time": 19.082343400000003,
          "velocity": 1
        },
        {
          "duration": 0.705881999999999,
          "durationTicks": 480,
          "midi": 55,
          "name": "G3",
          "ticks": 12976,
          "time": 19.082343400000003,
          "velocity": 1
        },
        {
          "duration": 0.705881999999999,
          "durationTicks": 480,
          "midi": 60,
          "name": "C4",
          "ticks": 12976,
          "time": 19.082343400000003,
          "velocity": 1
        },
        {
          "duration": 0.705881999999999,
          "durationTicks": 480,
          "midi": 63,
          "name": "D#4",
          "ticks": 12976,
          "time": 19.082343400000003,
          "velocity": 1
        },
        {
          "duration": 0.7411761000000006,
          "durationTicks": 504,
          "midi": 48,
          "name": "C3",
          "ticks": 13216,
          "time": 19.4352844,
          "velocity": 1
        },
        {
          "duration": 0.3529410000000013,
          "durationTicks": 240,
          "midi": 58,
          "name": "A#3",
          "ticks": 13216,
          "time": 19.4352844,
          "velocity": 1
        },
        {
          "duration": 0.1529410999999996,
          "durationTicks": 104,
          "midi": 67,
          "name": "G4",
          "ticks": 13336,
          "time": 19.6117549,
          "velocity": 1
        },
        {
          "duration": 0.3529410000000013,
          "durationTicks": 240,
          "midi": 55,
          "name": "G3",
          "ticks": 13456,
          "time": 19.7882254,
          "velocity": 1
        },
        {
          "duration": 0.3529410000000013,
          "durationTicks": 240,
          "midi": 60,
          "name": "C4",
          "ticks": 13456,
          "time": 19.7882254,
          "velocity": 1
        },
        {
          "duration": 0.3529410000000013,
          "durationTicks": 240,
          "midi": 63,
          "name": "D#4",
          "ticks": 13456,
          "time": 19.7882254,
          "velocity": 1
        },
        {
          "duration": 0.3529410000000013,
          "durationTicks": 240,
          "midi": 63,
          "name": "D#4",
          "ticks": 13456,
          "time": 19.7882254,
          "velocity": 1
        },
        {
          "duration": 0.17058814999999683,
          "durationTicks": 116,
          "midi": 67,
          "name": "G4",
          "ticks": 13456,
          "time": 19.7882254,
          "velocity": 1
        },
        {
          "duration": 0.17058814999999683,
          "durationTicks": 116,
          "midi": 70,
          "name": "A#4",
          "ticks": 13576,
          "time": 19.964695900000002,
          "velocity": 1
        },
        {
          "duration": 0.1764704999999971,
          "durationTicks": 120,
          "midi": 55,
          "name": "G3",
          "ticks": 13696,
          "time": 20.141166400000003,
          "velocity": 1
        },
        {
          "duration": 0.35294099999999773,
          "durationTicks": 240,
          "midi": 55,
          "name": "G3",
          "ticks": 13696,
          "time": 20.141166400000003,
          "velocity": 1
        },
        {
          "duration": 0.1764704999999971,
          "durationTicks": 120,
          "midi": 60,
          "name": "C4",
          "ticks": 13696,
          "time": 20.141166400000003,
          "velocity": 1
        },
        {
          "duration": 0.1764704999999971,
          "durationTicks": 120,
          "midi": 63,
          "name": "D#4",
          "ticks": 13696,
          "time": 20.141166400000003,
          "velocity": 1
        },
        {
          "duration": 0.8764701499999958,
          "durationTicks": 596,
          "midi": 72,
          "name": "C5",
          "ticks": 13696,
          "time": 20.141166400000003,
          "velocity": 1
        },
        {
          "duration": 0.08235290000000006,
          "durationTicks": 56,
          "midi": 48,
          "name": "C3",
          "ticks": 13816,
          "time": 20.3176369,
          "velocity": 1
        },
        {
          "duration": 0.17647050000000064,
          "durationTicks": 120,
          "midi": 55,
          "name": "G3",
          "ticks": 13816,
          "time": 20.3176369,
          "velocity": 1
        },
        {
          "duration": 0.17647050000000064,
          "durationTicks": 120,
          "midi": 60,
          "name": "C4",
          "ticks": 13816,
          "time": 20.3176369,
          "velocity": 1
        },
        {
          "duration": 0.17647050000000064,
          "durationTicks": 120,
          "midi": 63,
          "name": "D#4",
          "ticks": 13816,
          "time": 20.3176369,
          "velocity": 1
        },
        {
          "duration": 0.17058814999999683,
          "durationTicks": 116,
          "midi": 48,
          "name": "C3",
          "ticks": 13936,
          "time": 20.4941074,
          "velocity": 1
        },
        {
          "duration": 0.08823525000000032,
          "durationTicks": 60,
          "midi": 55,
          "name": "G3",
          "ticks": 13936,
          "time": 20.4941074,
          "velocity": 1
        },
        {
          "duration": 0.08823525000000032,
          "durationTicks": 60,
          "midi": 60,
          "name": "C4",
          "ticks": 13936,
          "time": 20.4941074,
          "velocity": 1
        },
        {
          "duration": 0.08823525000000032,
          "durationTicks": 60,
          "midi": 63,
          "name": "D#4",
          "ticks": 13936,
          "time": 20.4941074,
          "velocity": 1
        },
        {
          "duration": 0.3529410000000013,
          "durationTicks": 240,
          "midi": 63,
          "name": "D#4",
          "ticks": 13936,
          "time": 20.4941074,
          "velocity": 1
        },
        {
          "duration": 0.17647050000000064,
          "durationTicks": 120,
          "midi": 55,
          "name": "G3",
          "ticks": 14056,
          "time": 20.6705779,
          "velocity": 1
        },
        {
          "duration": 0.17647050000000064,
          "durationTicks": 120,
          "midi": 60,
          "name": "C4",
          "ticks": 14056,
          "time": 20.6705779,
          "velocity": 1
        },
        {
          "duration": 0.5294114999999984,
          "durationTicks": 360,
          "midi": 63,
          "name": "D#4",
          "ticks": 14056,
          "time": 20.6705779,
          "velocity": 1
        },
        {
          "duration": 0.9352936499999984,
          "durationTicks": 636,
          "midi": 48,
          "name": "C3",
          "ticks": 14176,
          "time": 20.847048400000002,
          "velocity": 1
        },
        {
          "duration": 0.35294099999999773,
          "durationTicks": 240,
          "midi": 55,
          "name": "G3",
          "ticks": 14176,
          "time": 20.847048400000002,
          "velocity": 1
        },
        {
          "duration": 0.35294099999999773,
          "durationTicks": 240,
          "midi": 60,
          "name": "C4",
          "ticks": 14176,
          "time": 20.847048400000002,
          "velocity": 1
        },
        {
          "duration": 0.35294099999999773,
          "durationTicks": 240,
          "midi": 63,
          "name": "D#4",
          "ticks": 14176,
          "time": 20.847048400000002,
          "velocity": 1
        },
        {
          "duration": 0.1588234499999963,
          "durationTicks": 108,
          "midi": 67,
          "name": "G4",
          "ticks": 14296,
          "time": 21.023518900000003,
          "velocity": 1
        },
        {
          "duration": 0.3529410000000013,
          "durationTicks": 240,
          "midi": 55,
          "name": "G3",
          "ticks": 14416,
          "time": 21.1999894,
          "velocity": 1
        },
        {
          "duration": 0.5294115000000019,
          "durationTicks": 360,
          "midi": 55,
          "name": "G3",
          "ticks": 14416,
          "time": 21.1999894,
          "velocity": 1
        },
        {
          "duration": 0.3529410000000013,
          "durationTicks": 240,
          "midi": 60,
          "name": "C4",
          "ticks": 14416,
          "time": 21.1999894,
          "velocity": 1
        },
        {
          "duration": 0.3529410000000013,
          "durationTicks": 240,
          "midi": 63,
          "name": "D#4",
          "ticks": 14416,
          "time": 21.1999894,
          "velocity": 1
        },
        {
          "duration": 0.17058815000000038,
          "durationTicks": 116,
          "midi": 67,
          "name": "G4",
          "ticks": 14416,
          "time": 21.1999894,
          "velocity": 1
        },
        {
          "duration": 0.34705864999999747,
          "durationTicks": 236,
          "midi": 70,
          "name": "A#4",
          "ticks": 14536,
          "time": 21.3764599,
          "velocity": 1
        },
        {
          "duration": 0.17647050000000064,
          "durationTicks": 120,
          "midi": 55,
          "name": "G3",
          "ticks": 14656,
          "time": 21.5529304,
          "velocity": 1
        },
        {
          "duration": 0.17647050000000064,
          "durationTicks": 120,
          "midi": 60,
          "name": "C4",
          "ticks": 14656,
          "time": 21.5529304,
          "velocity": 1
        },
        {
          "duration": 0.17647050000000064,
          "durationTicks": 120,
          "midi": 63,
          "name": "D#4",
          "ticks": 14656,
          "time": 21.5529304,
          "velocity": 1
        },
        {
          "duration": 0.08823525000000032,
          "durationTicks": 60,
          "midi": 53,
          "name": "F3",
          "ticks": 14776,
          "time": 21.7294009,
          "velocity": 1
        },
        {
          "duration": 0.17647050000000064,
          "durationTicks": 120,
          "midi": 55,
          "name": "G3",
          "ticks": 14776,
          "time": 21.7294009,
          "velocity": 1
        },
        {
          "duration": 0.17647050000000064,
          "durationTicks": 120,
          "midi": 60,
          "name": "C4",
          "ticks": 14776,
          "time": 21.7294009,
          "velocity": 1
        },
        {
          "duration": 0.17647050000000064,
          "durationTicks": 120,
          "midi": 63,
          "name": "D#4",
          "ticks": 14776,
          "time": 21.7294009,
          "velocity": 1
        },
        {
          "duration": 0.8764701499999958,
          "durationTicks": 596,
          "midi": 72,
          "name": "C5",
          "ticks": 14776,
          "time": 21.7294009,
          "velocity": 1
        },
        {
          "duration": 0.08823525000000032,
          "durationTicks": 60,
          "midi": 55,
          "name": "G3",
          "ticks": 14836,
          "time": 21.817636150000002,
          "velocity": 1
        },
        {
          "duration": 0.12352934999999832,
          "durationTicks": 84,
          "midi": 41,
          "name": "F2",
          "ticks": 14896,
          "time": 21.905871400000002,
          "velocity": 1
        },
        {
          "duration": 0.35294099999999773,
          "durationTicks": 240,
          "midi": 57,
          "name": "A3",
          "ticks": 14896,
          "time": 21.905871400000002,
          "velocity": 1
        },
        {
          "duration": 0.7058819999999955,
          "durationTicks": 480,
          "midi": 57,
          "name": "A3",
          "ticks": 14896,
          "time": 21.905871400000002,
          "velocity": 1
        },
        {
          "duration": 0.7058819999999955,
          "durationTicks": 480,
          "midi": 60,
          "name": "C4",
          "ticks": 14896,
          "time": 21.905871400000002,
          "velocity": 1
        },
        {
          "duration": 0.7058819999999955,
          "durationTicks": 480,
          "midi": 65,
          "name": "F4",
          "ticks": 14896,
          "time": 21.905871400000002,
          "velocity": 1
        },
        {
          "duration": 0.7411761000000006,
          "durationTicks": 504,
          "midi": 41,
          "name": "F2",
          "ticks": 15136,
          "time": 22.2588124,
          "velocity": 1
        },
        {
          "duration": 0.35294099999999773,
          "durationTicks": 240,
          "midi": 65,
          "name": "F4",
          "ticks": 15136,
          "time": 22.2588124,
          "velocity": 1
        },
        {
          "duration": 0.3529410000000013,
          "durationTicks": 240,
          "midi": 57,
          "name": "A3",
          "ticks": 15376,
          "time": 22.611753399999998,
          "velocity": 1
        },
        {
          "duration": 0.3529410000000013,
          "durationTicks": 240,
          "midi": 57,
          "name": "A3",
          "ticks": 15376,
          "time": 22.611753399999998,
          "velocity": 1
        },
        {
          "duration": 0.3529410000000013,
          "durationTicks": 240,
          "midi": 60,
          "name": "C4",
          "ticks": 15376,
          "time": 22.611753399999998,
          "velocity": 1
        },
        {
          "duration": 0.3529410000000013,
          "durationTicks": 240,
          "midi": 65,
          "name": "F4",
          "ticks": 15376,
          "time": 22.611753399999998,
          "velocity": 1
        },
        {
          "duration": 0.3529410000000013,
          "durationTicks": 240,
          "midi": 53,
          "name": "F3",
          "ticks": 15616,
          "time": 22.9646944,
          "velocity": 1
        },
        {
          "duration": 0.17647050000000064,
          "durationTicks": 120,
          "midi": 57,
          "name": "A3",
          "ticks": 15616,
          "time": 22.9646944,
          "velocity": 1
        },
        {
          "duration": 0.17647050000000064,
          "durationTicks": 120,
          "midi": 60,
          "name": "C4",
          "ticks": 15616,
          "time": 22.9646944,
          "velocity": 1
        },
        {
          "duration": 0.13529405000000239,
          "durationTicks": 92,
          "midi": 65,
          "name": "F4",
          "ticks": 15616,
          "time": 22.9646944,
          "velocity": 1
        },
        {
          "duration": 0.17647050000000064,
          "durationTicks": 120,
          "midi": 65,
          "name": "F4",
          "ticks": 15616,
          "time": 22.9646944,
          "velocity": 1
        },
        {
          "duration": 0.08235290000000006,
          "durationTicks": 56,
          "midi": 41,
          "name": "F2",
          "ticks": 15736,
          "time": 23.1411649,
          "velocity": 1
        },
        {
          "duration": 0.17647050000000064,
          "durationTicks": 120,
          "midi": 57,
          "name": "A3",
          "ticks": 15736,
          "time": 23.1411649,
          "velocity": 1
        },
        {
          "duration": 0.17647050000000064,
          "durationTicks": 120,
          "midi": 60,
          "name": "C4",
          "ticks": 15736,
          "time": 23.1411649,
          "velocity": 1
        },
        {
          "duration": 0.17058815000000038,
          "durationTicks": 116,
          "midi": 65,
          "name": "F4",
          "ticks": 15736,
          "time": 23.1411649,
          "velocity": 1
        },
        {
          "duration": 0.17647050000000064,
          "durationTicks": 120,
          "midi": 65,
          "name": "F4",
          "ticks": 15736,
          "time": 23.1411649,
          "velocity": 1
        },
        {
          "duration": 0.12352935000000187,
          "durationTicks": 84,
          "midi": 40,
          "name": "E2",
          "ticks": 15856,
          "time": 23.3176354,
          "velocity": 1
        },
        {
          "duration": 0.08823525000000032,
          "durationTicks": 60,
          "midi": 57,
          "name": "A3",
          "ticks": 15856,
          "time": 23.3176354,
          "velocity": 1
        },
        {
          "duration": 0.35294099999999773,
          "durationTicks": 240,
          "midi": 57,
          "name": "A3",
          "ticks": 15856,
          "time": 23.3176354,
          "velocity": 1
        },
        {
          "duration": 0.08823525000000032,
          "durationTicks": 60,
          "midi": 60,
          "name": "C4",
          "ticks": 15856,
          "time": 23.3176354,
          "velocity": 1
        },
        {
          "duration": 0.08823525000000032,
          "durationTicks": 60,
          "midi": 65,
          "name": "F4",
          "ticks": 15856,
          "time": 23.3176354,
          "velocity": 1
        },
        {
          "duration": 0.17058815000000038,
          "durationTicks": 116,
          "midi": 74,
          "name": "D5",
          "ticks": 15856,
          "time": 23.3176354,
          "velocity": 1
        },
        {
          "duration": 0.12352935000000542,
          "durationTicks": 84,
          "midi": 41,
          "name": "F2",
          "ticks": 15976,
          "time": 23.494105899999997,
          "velocity": 1
        },
        {
          "duration": 0.5294115000000019,
          "durationTicks": 360,
          "midi": 57,
          "name": "A3",
          "ticks": 15976,
          "time": 23.494105899999997,
          "velocity": 1
        },
        {
          "duration": 0.17647050000000064,
          "durationTicks": 120,
          "midi": 60,
          "name": "C4",
          "ticks": 15976,
          "time": 23.494105899999997,
          "velocity": 1
        },
        {
          "duration": 0.17647050000000064,
          "durationTicks": 120,
          "midi": 65,
          "name": "F4",
          "ticks": 15976,
          "time": 23.494105899999997,
          "velocity": 1
        },
        {
          "duration": 0.3294116000000038,
          "durationTicks": 224,
          "midi": 72,
          "name": "C5",
          "ticks": 15976,
          "time": 23.494105899999997,
          "velocity": 1
        },
        {
          "duration": 0.347058650000001,
          "durationTicks": 236,
          "midi": 41,
          "name": "F2",
          "ticks": 16096,
          "time": 23.670576399999998,
          "velocity": 1
        },
        {
          "duration": 0.3529410000000013,
          "durationTicks": 240,
          "midi": 57,
          "name": "A3",
          "ticks": 16096,
          "time": 23.670576399999998,
          "velocity": 1
        },
        {
          "duration": 0.3529410000000013,
          "durationTicks": 240,
          "midi": 60,
          "name": "C4",
          "ticks": 16096,
          "time": 23.670576399999998,
          "velocity": 1
        },
        {
          "duration": 0.3529410000000013,
          "durationTicks": 240,
          "midi": 65,
          "name": "F4",
          "ticks": 16096,
          "time": 23.670576399999998,
          "velocity": 1
        },
        {
          "duration": 0.5235291500000017,
          "durationTicks": 356,
          "midi": 72,
          "name": "C5",
          "ticks": 16216,
          "time": 23.8470469,
          "velocity": 1
        },
        {
          "duration": 0.08235290000000006,
          "durationTicks": 56,
          "midi": 53,
          "name": "F3",
          "ticks": 16336,
          "time": 24.0235174,
          "velocity": 1
        },
        {
          "duration": 0.3529410000000013,
          "durationTicks": 240,
          "midi": 57,
          "name": "A3",
          "ticks": 16336,
          "time": 24.0235174,
          "velocity": 1
        },
        {
          "duration": 0.3529410000000013,
          "durationTicks": 240,
          "midi": 58,
          "name": "A#3",
          "ticks": 16336,
          "time": 24.0235174,
          "velocity": 1
        },
        {
          "duration": 0.3529410000000013,
          "durationTicks": 240,
          "midi": 60,
          "name": "C4",
          "ticks": 16336,
          "time": 24.0235174,
          "velocity": 1
        },
        {
          "duration": 0.3529410000000013,
          "durationTicks": 240,
          "midi": 65,
          "name": "F4",
          "ticks": 16336,
          "time": 24.0235174,
          "velocity": 1
        },
        {
          "duration": 0.08235290000000006,
          "durationTicks": 56,
          "midi": 53,
          "name": "F3",
          "ticks": 16456,
          "time": 24.1999879,
          "velocity": 1
        },
        {
          "duration": 0.08235290000000006,
          "durationTicks": 56,
          "midi": 51,
          "name": "D#3",
          "ticks": 16576,
          "time": 24.3764584,
          "velocity": 1
        },
        {
          "duration": 0.1764704999999971,
          "durationTicks": 120,
          "midi": 57,
          "name": "A3",
          "ticks": 16576,
          "time": 24.3764584,
          "velocity": 1
        },
        {
          "duration": 0.1764704999999971,
          "durationTicks": 120,
          "midi": 60,
          "name": "C4",
          "ticks": 16576,
          "time": 24.3764584,
          "velocity": 1
        },
        {
          "duration": 0.35294099999999773,
          "durationTicks": 240,
          "midi": 60,
          "name": "C4",
          "ticks": 16576,
          "time": 24.3764584,
          "velocity": 1
        },
        {
          "duration": 0.1764704999999971,
          "durationTicks": 120,
          "midi": 65,
          "name": "F4",
          "ticks": 16576,
          "time": 24.3764584,
          "velocity": 1
        },
        {
          "duration": 0.34705864999999747,
          "durationTicks": 236,
          "midi": 70,
          "name": "A#4",
          "ticks": 16576,
          "time": 24.3764584,
          "velocity": 1
        },
        {
          "duration": 0.08235290000000006,
          "durationTicks": 56,
          "midi": 50,
          "name": "D3",
          "ticks": 16696,
          "time": 24.552928899999998,
          "velocity": 1
        },
        {
          "duration": 0.17647050000000064,
          "durationTicks": 120,
          "midi": 57,
          "name": "A3",
          "ticks": 16696,
          "time": 24.552928899999998,
          "velocity": 1
        },
        {
          "duration": 0.17647050000000064,
          "durationTicks": 120,
          "midi": 60,
          "name": "C4",
          "ticks": 16696,
          "time": 24.552928899999998,
          "velocity": 1
        },
        {
          "duration": 0.17647050000000064,
          "durationTicks": 120,
          "midi": 65,
          "name": "F4",
          "ticks": 16696,
          "time": 24.552928899999998,
          "velocity": 1
        }
      ]
    }
  ]
}

const mid8 = {
  "header": {
    "keySignatures": [
      {
        "key": "C",
        "scale": "major",
        "ticks": 0
      }
    ],
    "meta": [],
    "name": "浪花一朵朵",
    "ppq": 480,
    "tempos": [
      {
        "bpm": 150.99999748333337,
        "ticks": 0
      }
    ],
    "timeSignatures": [
      {
        "ticks": 0,
        "timeSignature": [
          4,
          4
        ],
        "measures": 0
      }
    ]
  },
  "tracks": [
    {
      "channel": 0,
      "controlChanges": {
        "7": [
          {
            "number": 7,
            "ticks": 0,
            "time": 0,
            "value": 0.6299212598425197
          },
          {
            "number": 7,
            "ticks": 0,
            "time": 0,
            "value": 0.7086614173228346
          },
          {
            "number": 7,
            "ticks": 0,
            "time": 0,
            "value": 1
          },
          {
            "number": 7,
            "ticks": 0,
            "time": 0,
            "value": 1
          },
          {
            "number": 7,
            "ticks": 0,
            "time": 0,
            "value": 0.7086614173228346
          },
          {
            "number": 7,
            "ticks": 32640,
            "time": 27.019868000000002,
            "value": 0.7086614173228346
          }
        ],
        "10": [
          {
            "number": 10,
            "ticks": 0,
            "time": 0,
            "value": 0.5039370078740157
          },
          {
            "number": 10,
            "ticks": 0,
            "time": 0,
            "value": 0.5039370078740157
          },
          {
            "number": 10,
            "ticks": 0,
            "time": 0,
            "value": 0.5039370078740157
          },
          {
            "number": 10,
            "ticks": 0,
            "time": 0,
            "value": 0.5039370078740157
          },
          {
            "number": 10,
            "ticks": 0,
            "time": 0,
            "value": 0.5039370078740157
          },
          {
            "number": 10,
            "ticks": 32640,
            "time": 27.019868000000002,
            "value": 0.5039370078740157
          }
        ]
      },
      "pitchBends": [
        {
          "ticks": 20,
          "time": 0.016556291666666667,
          "value": -0.640625
        },
        {
          "ticks": 28,
          "time": 0.023178808333333335,
          "value": -0.60888671875
        },
        {
          "ticks": 35,
          "time": 0.02897351041666667,
          "value": -0.5771484375
        },
        {
          "ticks": 43,
          "time": 0.035596027083333336,
          "value": -0.54541015625
        },
        {
          "ticks": 50,
          "time": 0.04139072916666667,
          "value": -0.513671875
        },
        {
          "ticks": 58,
          "time": 0.048013245833333336,
          "value": -0.48193359375
        },
        {
          "ticks": 65,
          "time": 0.05380794791666666,
          "value": -0.4501953125
        },
        {
          "ticks": 68,
          "time": 0.05629139166666667,
          "value": -0.4375
        },
        {
          "ticks": 76,
          "time": 0.06291390833333334,
          "value": -0.369140625
        },
        {
          "ticks": 83,
          "time": 0.06870861041666666,
          "value": -0.30078125
        },
        {
          "ticks": 91,
          "time": 0.07533112708333334,
          "value": -0.232421875
        },
        {
          "ticks": 92,
          "time": 0.07615894166666667,
          "value": -0.21875
        },
        {
          "ticks": 100,
          "time": 0.08278145833333334,
          "value": -0.1978759765625
        },
        {
          "ticks": 107,
          "time": 0.08857616041666667,
          "value": -0.177001953125
        },
        {
          "ticks": 115,
          "time": 0.09519867708333334,
          "value": -0.156005859375
        },
        {
          "ticks": 120,
          "time": 0.09933775,
          "value": -0.140625
        },
        {
          "ticks": 128,
          "time": 0.10596026666666666,
          "value": -0.111328125
        },
        {
          "ticks": 135,
          "time": 0.11175496875,
          "value": -0.08203125
        },
        {
          "ticks": 143,
          "time": 0.11837748541666666,
          "value": -0.052734375
        },
        {
          "ticks": 150,
          "time": 0.1241721875,
          "value": -0.0234375
        },
        {
          "ticks": 156,
          "time": 0.12913907500000002,
          "value": 0
        },
        {
          "ticks": 164,
          "time": 0.13576159166666668,
          "value": -0.0057373046875
        },
        {
          "ticks": 171,
          "time": 0.14155629375,
          "value": -0.0115966796875
        },
        {
          "ticks": 179,
          "time": 0.14817881041666667,
          "value": -0.0174560546875
        },
        {
          "ticks": 186,
          "time": 0.15397351250000002,
          "value": -0.0233154296875
        },
        {
          "ticks": 194,
          "time": 0.16059602916666668,
          "value": -0.029052734375
        },
        {
          "ticks": 201,
          "time": 0.16639073125,
          "value": -0.034912109375
        },
        {
          "ticks": 209,
          "time": 0.17301324791666667,
          "value": -0.040771484375
        },
        {
          "ticks": 216,
          "time": 0.17880795000000002,
          "value": -0.046630859375
        },
        {
          "ticks": 224,
          "time": 0.18543046666666668,
          "value": -0.0523681640625
        },
        {
          "ticks": 231,
          "time": 0.19122516875,
          "value": -0.0582275390625
        },
        {
          "ticks": 239,
          "time": 0.19784768541666667,
          "value": -0.0640869140625
        },
        {
          "ticks": 246,
          "time": 0.2036423875,
          "value": -0.0699462890625
        },
        {
          "ticks": 254,
          "time": 0.21026490416666668,
          "value": -0.07568359375
        },
        {
          "ticks": 261,
          "time": 0.21605960624999998,
          "value": -0.08154296875
        },
        {
          "ticks": 269,
          "time": 0.22268212291666667,
          "value": -0.08740234375
        },
        {
          "ticks": 276,
          "time": 0.228476825,
          "value": -0.09326171875
        },
        {
          "ticks": 284,
          "time": 0.23509934166666668,
          "value": -0.09912109375
        },
        {
          "ticks": 291,
          "time": 0.24089404374999998,
          "value": -0.1048583984375
        },
        {
          "ticks": 299,
          "time": 0.24751656041666667,
          "value": -0.1107177734375
        },
        {
          "ticks": 306,
          "time": 0.25331126249999997,
          "value": -0.1165771484375
        },
        {
          "ticks": 314,
          "time": 0.25993377916666666,
          "value": -0.1224365234375
        },
        {
          "ticks": 321,
          "time": 0.26572848125,
          "value": -0.128173828125
        },
        {
          "ticks": 329,
          "time": 0.27235099791666667,
          "value": -0.134033203125
        },
        {
          "ticks": 336,
          "time": 0.2781457,
          "value": -0.139892578125
        },
        {
          "ticks": 344,
          "time": 0.2847682166666667,
          "value": -0.145751953125
        },
        {
          "ticks": 351,
          "time": 0.29056291875,
          "value": -0.1514892578125
        },
        {
          "ticks": 359,
          "time": 0.2971854354166667,
          "value": -0.1573486328125
        },
        {
          "ticks": 366,
          "time": 0.30298013749999997,
          "value": -0.1632080078125
        },
        {
          "ticks": 374,
          "time": 0.30960265416666666,
          "value": -0.1690673828125
        },
        {
          "ticks": 381,
          "time": 0.31539735625,
          "value": -0.1749267578125
        },
        {
          "ticks": 389,
          "time": 0.32201987291666667,
          "value": -0.1806640625
        },
        {
          "ticks": 396,
          "time": 0.327814575,
          "value": -0.1865234375
        },
        {
          "ticks": 404,
          "time": 0.3344370916666667,
          "value": -0.1923828125
        },
        {
          "ticks": 411,
          "time": 0.34023179375,
          "value": -0.1982421875
        },
        {
          "ticks": 419,
          "time": 0.3468543104166667,
          "value": -0.2039794921875
        },
        {
          "ticks": 426,
          "time": 0.35264901249999997,
          "value": -0.2098388671875
        },
        {
          "ticks": 434,
          "time": 0.35927152916666666,
          "value": -0.2156982421875
        },
        {
          "ticks": 441,
          "time": 0.36506623125,
          "value": -0.2215576171875
        },
        {
          "ticks": 449,
          "time": 0.3716887479166667,
          "value": -0.227294921875
        },
        {
          "ticks": 456,
          "time": 0.37748345,
          "value": -0.233154296875
        },
        {
          "ticks": 464,
          "time": 0.3841059666666667,
          "value": -0.239013671875
        },
        {
          "ticks": 471,
          "time": 0.38990066875,
          "value": -0.244873046875
        },
        {
          "ticks": 479,
          "time": 0.3965231854166667,
          "value": -0.2506103515625
        },
        {
          "ticks": 486,
          "time": 0.40231788749999997,
          "value": -0.2564697265625
        },
        {
          "ticks": 494,
          "time": 0.40894040416666666,
          "value": -0.2623291015625
        },
        {
          "ticks": 501,
          "time": 0.41473510625,
          "value": -0.2681884765625
        },
        {
          "ticks": 509,
          "time": 0.4213576229166666,
          "value": -0.2740478515625
        },
        {
          "ticks": 516,
          "time": 0.427152325,
          "value": -0.27978515625
        },
        {
          "ticks": 524,
          "time": 0.43377484166666663,
          "value": -0.28564453125
        },
        {
          "ticks": 531,
          "time": 0.43956954375,
          "value": -0.29150390625
        },
        {
          "ticks": 539,
          "time": 0.44619206041666665,
          "value": -0.29736328125
        },
        {
          "ticks": 546,
          "time": 0.45198676249999997,
          "value": -0.3031005859375
        },
        {
          "ticks": 554,
          "time": 0.45860927916666666,
          "value": -0.3089599609375
        },
        {
          "ticks": 561,
          "time": 0.46440398125,
          "value": -0.3148193359375
        },
        {
          "ticks": 569,
          "time": 0.4710264979166666,
          "value": -0.3206787109375
        },
        {
          "ticks": 576,
          "time": 0.4768212,
          "value": -0.326416015625
        },
        {
          "ticks": 584,
          "time": 0.48344371666666663,
          "value": -0.332275390625
        },
        {
          "ticks": 591,
          "time": 0.48923841875,
          "value": -0.338134765625
        },
        {
          "ticks": 599,
          "time": 0.49586093541666665,
          "value": -0.343994140625
        },
        {
          "ticks": 606,
          "time": 0.5016556375,
          "value": -0.349853515625
        },
        {
          "ticks": 614,
          "time": 0.5082781541666667,
          "value": -0.3555908203125
        },
        {
          "ticks": 621,
          "time": 0.51407285625,
          "value": -0.3614501953125
        },
        {
          "ticks": 629,
          "time": 0.5206953729166667,
          "value": -0.3673095703125
        },
        {
          "ticks": 636,
          "time": 0.526490075,
          "value": -0.3731689453125
        },
        {
          "ticks": 644,
          "time": 0.5331125916666667,
          "value": -0.37890625
        },
        {
          "ticks": 651,
          "time": 0.53890729375,
          "value": -0.384765625
        },
        {
          "ticks": 659,
          "time": 0.5455298104166666,
          "value": -0.390625
        },
        {
          "ticks": 666,
          "time": 0.5513245125,
          "value": -0.396484375
        },
        {
          "ticks": 674,
          "time": 0.5579470291666666,
          "value": -0.4022216796875
        },
        {
          "ticks": 681,
          "time": 0.56374173125,
          "value": -0.4080810546875
        },
        {
          "ticks": 689,
          "time": 0.5703642479166666,
          "value": -0.4139404296875
        },
        {
          "ticks": 696,
          "time": 0.57615895,
          "value": -0.4197998046875
        },
        {
          "ticks": 704,
          "time": 0.5827814666666666,
          "value": -0.425537109375
        },
        {
          "ticks": 711,
          "time": 0.58857616875,
          "value": -0.431396484375
        },
        {
          "ticks": 719,
          "time": 0.5951986854166667,
          "value": -0.437255859375
        },
        {
          "ticks": 726,
          "time": 0.6009933875,
          "value": -0.443115234375
        },
        {
          "ticks": 734,
          "time": 0.6076159041666667,
          "value": -0.448974609375
        },
        {
          "ticks": 741,
          "time": 0.61341060625,
          "value": -0.4547119140625
        },
        {
          "ticks": 749,
          "time": 0.6200331229166667,
          "value": -0.4605712890625
        },
        {
          "ticks": 756,
          "time": 0.625827825,
          "value": -0.4664306640625
        },
        {
          "ticks": 764,
          "time": 0.6324503416666667,
          "value": -0.4722900390625
        },
        {
          "ticks": 771,
          "time": 0.63824504375,
          "value": -0.47802734375
        },
        {
          "ticks": 779,
          "time": 0.6448675604166666,
          "value": -0.48388671875
        },
        {
          "ticks": 786,
          "time": 0.6506622625,
          "value": -0.48974609375
        },
        {
          "ticks": 794,
          "time": 0.6572847791666666,
          "value": -0.49560546875
        },
        {
          "ticks": 801,
          "time": 0.66307948125,
          "value": -0.5013427734375
        },
        {
          "ticks": 809,
          "time": 0.6697019979166666,
          "value": -0.5072021484375
        },
        {
          "ticks": 816,
          "time": 0.6754967,
          "value": -0.5130615234375
        },
        {
          "ticks": 824,
          "time": 0.6821192166666666,
          "value": -0.5189208984375
        },
        {
          "ticks": 831,
          "time": 0.68791391875,
          "value": -0.5247802734375
        },
        {
          "ticks": 839,
          "time": 0.6945364354166667,
          "value": -0.530517578125
        },
        {
          "ticks": 846,
          "time": 0.7003311375,
          "value": -0.536376953125
        },
        {
          "ticks": 854,
          "time": 0.7069536541666667,
          "value": -0.542236328125
        },
        {
          "ticks": 861,
          "time": 0.71274835625,
          "value": -0.548095703125
        },
        {
          "ticks": 869,
          "time": 0.7193708729166667,
          "value": -0.5538330078125
        },
        {
          "ticks": 876,
          "time": 0.725165575,
          "value": -0.5596923828125
        },
        {
          "ticks": 884,
          "time": 0.7317880916666667,
          "value": -0.5655517578125
        },
        {
          "ticks": 891,
          "time": 0.73758279375,
          "value": -0.5714111328125
        },
        {
          "ticks": 899,
          "time": 0.7442053104166666,
          "value": -0.5771484375
        },
        {
          "ticks": 906,
          "time": 0.7500000125,
          "value": -0.5830078125
        },
        {
          "ticks": 914,
          "time": 0.7566225291666666,
          "value": -0.5888671875
        },
        {
          "ticks": 921,
          "time": 0.76241723125,
          "value": -0.5947265625
        },
        {
          "ticks": 929,
          "time": 0.7690397479166666,
          "value": -0.6005859375
        },
        {
          "ticks": 936,
          "time": 0.77483445,
          "value": -0.6063232421875
        },
        {
          "ticks": 944,
          "time": 0.7814569666666666,
          "value": -0.6121826171875
        },
        {
          "ticks": 951,
          "time": 0.78725166875,
          "value": -0.6180419921875
        },
        {
          "ticks": 959,
          "time": 0.7938741854166667,
          "value": -0.6239013671875
        },
        {
          "ticks": 966,
          "time": 0.7996688875000001,
          "value": -0.629638671875
        },
        {
          "ticks": 974,
          "time": 0.8062914041666668,
          "value": -0.635498046875
        },
        {
          "ticks": 980,
          "time": 0.8112582916666666,
          "value": -0.640625
        },
        {
          "ticks": 988,
          "time": 0.8178808083333333,
          "value": -0.60888671875
        },
        {
          "ticks": 995,
          "time": 0.8236755104166666,
          "value": -0.5771484375
        },
        {
          "ticks": 1003,
          "time": 0.8302980270833332,
          "value": -0.54541015625
        },
        {
          "ticks": 1010,
          "time": 0.8360927291666667,
          "value": -0.513671875
        },
        {
          "ticks": 1018,
          "time": 0.8427152458333332,
          "value": -0.48193359375
        },
        {
          "ticks": 1025,
          "time": 0.8485099479166667,
          "value": -0.4501953125
        },
        {
          "ticks": 1028,
          "time": 0.8509933916666667,
          "value": -0.4375
        },
        {
          "ticks": 1036,
          "time": 0.8576159083333333,
          "value": -0.369140625
        },
        {
          "ticks": 1043,
          "time": 0.8634106104166667,
          "value": -0.30078125
        },
        {
          "ticks": 1051,
          "time": 0.8700331270833334,
          "value": -0.232421875
        },
        {
          "ticks": 1052,
          "time": 0.8708609416666667,
          "value": -0.21875
        },
        {
          "ticks": 1060,
          "time": 0.8774834583333334,
          "value": -0.1978759765625
        },
        {
          "ticks": 1067,
          "time": 0.8832781604166667,
          "value": -0.177001953125
        },
        {
          "ticks": 1075,
          "time": 0.8899006770833334,
          "value": -0.156005859375
        },
        {
          "ticks": 1080,
          "time": 0.89403975,
          "value": -0.140625
        },
        {
          "ticks": 1088,
          "time": 0.9006622666666667,
          "value": -0.111328125
        },
        {
          "ticks": 1095,
          "time": 0.90645696875,
          "value": -0.08203125
        },
        {
          "ticks": 1103,
          "time": 0.9130794854166666,
          "value": -0.052734375
        },
        {
          "ticks": 1110,
          "time": 0.9188741875,
          "value": -0.0234375
        },
        {
          "ticks": 1116,
          "time": 0.9238410750000001,
          "value": 0
        },
        {
          "ticks": 1124,
          "time": 0.9304635916666667,
          "value": -0.0008544921875
        },
        {
          "ticks": 1131,
          "time": 0.9362582937500001,
          "value": -0.0018310546875
        },
        {
          "ticks": 1139,
          "time": 0.9428808104166667,
          "value": -0.002685546875
        },
        {
          "ticks": 1146,
          "time": 0.9486755125,
          "value": -0.003662109375
        },
        {
          "ticks": 1154,
          "time": 0.9552980291666667,
          "value": -0.004638671875
        },
        {
          "ticks": 1161,
          "time": 0.96109273125,
          "value": -0.0054931640625
        },
        {
          "ticks": 1169,
          "time": 0.9677152479166667,
          "value": -0.0064697265625
        },
        {
          "ticks": 1176,
          "time": 0.9735099500000001,
          "value": -0.0074462890625
        },
        {
          "ticks": 1184,
          "time": 0.9801324666666668,
          "value": -0.00830078125
        },
        {
          "ticks": 1191,
          "time": 0.9859271687500001,
          "value": -0.00927734375
        },
        {
          "ticks": 1199,
          "time": 0.9925496854166668,
          "value": -0.01025390625
        },
        {
          "ticks": 1206,
          "time": 0.9983443875000001,
          "value": -0.0111083984375
        },
        {
          "ticks": 1214,
          "time": 1.0049669041666667,
          "value": -0.0120849609375
        },
        {
          "ticks": 1221,
          "time": 1.01076160625,
          "value": -0.0130615234375
        },
        {
          "ticks": 1229,
          "time": 1.0173841229166667,
          "value": -0.013916015625
        },
        {
          "ticks": 1236,
          "time": 1.023178825,
          "value": -0.014892578125
        },
        {
          "ticks": 1244,
          "time": 1.0298013416666667,
          "value": -0.015869140625
        },
        {
          "ticks": 1251,
          "time": 1.03559604375,
          "value": -0.0167236328125
        },
        {
          "ticks": 1259,
          "time": 1.0422185604166667,
          "value": -0.0177001953125
        },
        {
          "ticks": 1266,
          "time": 1.0480132625,
          "value": -0.0186767578125
        },
        {
          "ticks": 1274,
          "time": 1.0546357791666667,
          "value": -0.01953125
        },
        {
          "ticks": 1281,
          "time": 1.06043048125,
          "value": -0.0205078125
        },
        {
          "ticks": 1289,
          "time": 1.0670529979166667,
          "value": -0.0213623046875
        },
        {
          "ticks": 1296,
          "time": 1.0728477,
          "value": -0.0223388671875
        },
        {
          "ticks": 1304,
          "time": 1.0794702166666668,
          "value": -0.0233154296875
        },
        {
          "ticks": 1311,
          "time": 1.08526491875,
          "value": -0.024169921875
        },
        {
          "ticks": 1319,
          "time": 1.0918874354166668,
          "value": -0.025146484375
        },
        {
          "ticks": 1326,
          "time": 1.0976821375,
          "value": -0.026123046875
        },
        {
          "ticks": 1334,
          "time": 1.1043046541666668,
          "value": -0.0269775390625
        },
        {
          "ticks": 1341,
          "time": 1.1100993562500001,
          "value": -0.0279541015625
        },
        {
          "ticks": 1349,
          "time": 1.1167218729166668,
          "value": -0.0289306640625
        },
        {
          "ticks": 1356,
          "time": 1.1225165750000001,
          "value": -0.02978515625
        },
        {
          "ticks": 1364,
          "time": 1.1291390916666668,
          "value": -0.03076171875
        },
        {
          "ticks": 1371,
          "time": 1.1349337937500001,
          "value": -0.03173828125
        },
        {
          "ticks": 1379,
          "time": 1.1415563104166668,
          "value": -0.0325927734375
        },
        {
          "ticks": 1386,
          "time": 1.1473510125000002,
          "value": -0.0335693359375
        },
        {
          "ticks": 1394,
          "time": 1.1539735291666668,
          "value": -0.0345458984375
        },
        {
          "ticks": 1401,
          "time": 1.1597682312500002,
          "value": -0.035400390625
        },
        {
          "ticks": 1409,
          "time": 1.1663907479166666,
          "value": -0.036376953125
        },
        {
          "ticks": 1416,
          "time": 1.1721854500000002,
          "value": -0.037353515625
        },
        {
          "ticks": 1424,
          "time": 1.1788079666666667,
          "value": -0.0382080078125
        },
        {
          "ticks": 1431,
          "time": 1.1846026687500002,
          "value": -0.0391845703125
        },
        {
          "ticks": 1439,
          "time": 1.1912251854166667,
          "value": -0.0401611328125
        },
        {
          "ticks": 1446,
          "time": 1.1970198875,
          "value": -0.041015625
        },
        {
          "ticks": 1454,
          "time": 1.2036424041666667,
          "value": -0.0419921875
        },
        {
          "ticks": 1461,
          "time": 1.20943710625,
          "value": -0.0428466796875
        },
        {
          "ticks": 1469,
          "time": 1.2160596229166667,
          "value": -0.0438232421875
        },
        {
          "ticks": 1476,
          "time": 1.221854325,
          "value": -0.0447998046875
        },
        {
          "ticks": 1484,
          "time": 1.2284768416666667,
          "value": -0.045654296875
        },
        {
          "ticks": 1491,
          "time": 1.23427154375,
          "value": -0.046630859375
        },
        {
          "ticks": 1499,
          "time": 1.2408940604166667,
          "value": -0.047607421875
        },
        {
          "ticks": 1506,
          "time": 1.2466887625,
          "value": -0.0484619140625
        },
        {
          "ticks": 1514,
          "time": 1.2533112791666667,
          "value": -0.0494384765625
        },
        {
          "ticks": 1521,
          "time": 1.25910598125,
          "value": -0.0504150390625
        },
        {
          "ticks": 1529,
          "time": 1.2657284979166668,
          "value": -0.05126953125
        },
        {
          "ticks": 1536,
          "time": 1.2715232,
          "value": -0.05224609375
        },
        {
          "ticks": 1544,
          "time": 1.2781457166666668,
          "value": -0.05322265625
        },
        {
          "ticks": 1551,
          "time": 1.28394041875,
          "value": -0.0540771484375
        },
        {
          "ticks": 1559,
          "time": 1.2905629354166668,
          "value": -0.0550537109375
        },
        {
          "ticks": 1566,
          "time": 1.2963576375,
          "value": -0.0560302734375
        },
        {
          "ticks": 1574,
          "time": 1.3029801541666668,
          "value": -0.056884765625
        },
        {
          "ticks": 1581,
          "time": 1.3087748562500001,
          "value": -0.057861328125
        },
        {
          "ticks": 1589,
          "time": 1.3153973729166668,
          "value": -0.058837890625
        },
        {
          "ticks": 1596,
          "time": 1.3211920750000001,
          "value": -0.0596923828125
        },
        {
          "ticks": 1604,
          "time": 1.3278145916666668,
          "value": -0.0606689453125
        },
        {
          "ticks": 1611,
          "time": 1.3336092937500001,
          "value": -0.0616455078125
        },
        {
          "ticks": 1619,
          "time": 1.3402318104166668,
          "value": -0.0625
        },
        {
          "ticks": 1626,
          "time": 1.3460265125000002,
          "value": -0.0634765625
        },
        {
          "ticks": 1634,
          "time": 1.3526490291666668,
          "value": -0.0643310546875
        },
        {
          "ticks": 1641,
          "time": 1.3584437312500002,
          "value": -0.0653076171875
        },
        {
          "ticks": 1649,
          "time": 1.3650662479166666,
          "value": -0.0662841796875
        },
        {
          "ticks": 1656,
          "time": 1.3708609500000002,
          "value": -0.067138671875
        },
        {
          "ticks": 1664,
          "time": 1.3774834666666667,
          "value": -0.068115234375
        },
        {
          "ticks": 1671,
          "time": 1.3832781687500002,
          "value": -0.069091796875
        },
        {
          "ticks": 1679,
          "time": 1.3899006854166667,
          "value": -0.0699462890625
        },
        {
          "ticks": 1686,
          "time": 1.3956953875,
          "value": -0.0709228515625
        },
        {
          "ticks": 1694,
          "time": 1.4023179041666667,
          "value": -0.0718994140625
        },
        {
          "ticks": 1701,
          "time": 1.40811260625,
          "value": -0.07275390625
        },
        {
          "ticks": 1709,
          "time": 1.4147351229166667,
          "value": -0.07373046875
        },
        {
          "ticks": 1716,
          "time": 1.420529825,
          "value": -0.07470703125
        },
        {
          "ticks": 1724,
          "time": 1.4271523416666667,
          "value": -0.0755615234375
        },
        {
          "ticks": 1731,
          "time": 1.43294704375,
          "value": -0.0765380859375
        },
        {
          "ticks": 1739,
          "time": 1.4395695604166667,
          "value": -0.0775146484375
        },
        {
          "ticks": 1746,
          "time": 1.4453642625,
          "value": -0.078369140625
        },
        {
          "ticks": 1754,
          "time": 1.4519867791666667,
          "value": -0.079345703125
        },
        {
          "ticks": 1761,
          "time": 1.45778148125,
          "value": -0.080322265625
        },
        {
          "ticks": 1769,
          "time": 1.4644039979166668,
          "value": -0.0811767578125
        },
        {
          "ticks": 1776,
          "time": 1.4701987,
          "value": -0.0821533203125
        },
        {
          "ticks": 1784,
          "time": 1.4768212166666668,
          "value": -0.0830078125
        },
        {
          "ticks": 1791,
          "time": 1.48261591875,
          "value": -0.083984375
        },
        {
          "ticks": 1799,
          "time": 1.4892384354166668,
          "value": -0.0849609375
        },
        {
          "ticks": 1806,
          "time": 1.4950331375,
          "value": -0.0858154296875
        },
        {
          "ticks": 1814,
          "time": 1.5016556541666668,
          "value": -0.0867919921875
        },
        {
          "ticks": 1821,
          "time": 1.5074503562500001,
          "value": -0.0877685546875
        },
        {
          "ticks": 1829,
          "time": 1.5140728729166668,
          "value": -0.088623046875
        },
        {
          "ticks": 1836,
          "time": 1.5198675750000001,
          "value": -0.089599609375
        },
        {
          "ticks": 1844,
          "time": 1.5264900916666668,
          "value": -0.090576171875
        },
        {
          "ticks": 1851,
          "time": 1.5322847937500002,
          "value": -0.0914306640625
        },
        {
          "ticks": 1859,
          "time": 1.5389073104166668,
          "value": -0.0924072265625
        },
        {
          "ticks": 1866,
          "time": 1.5447020125000002,
          "value": -0.0933837890625
        },
        {
          "ticks": 1874,
          "time": 1.5513245291666669,
          "value": -0.09423828125
        },
        {
          "ticks": 1881,
          "time": 1.5571192312500002,
          "value": -0.09521484375
        },
        {
          "ticks": 1889,
          "time": 1.5637417479166666,
          "value": -0.09619140625
        },
        {
          "ticks": 1896,
          "time": 1.5695364500000002,
          "value": -0.0970458984375
        },
        {
          "ticks": 1904,
          "time": 1.5761589666666667,
          "value": -0.0980224609375
        },
        {
          "ticks": 1911,
          "time": 1.5819536687500002,
          "value": -0.0989990234375
        },
        {
          "ticks": 1919,
          "time": 1.5885761854166667,
          "value": -0.099853515625
        },
        {
          "ticks": 1926,
          "time": 1.5943708875,
          "value": -0.100830078125
        },
        {
          "ticks": 1934,
          "time": 1.6009934041666667,
          "value": -0.101806640625
        },
        {
          "ticks": 1941,
          "time": 1.60678810625,
          "value": -0.1026611328125
        },
        {
          "ticks": 1949,
          "time": 1.6134106229166667,
          "value": -0.1036376953125
        },
        {
          "ticks": 1956,
          "time": 1.619205325,
          "value": -0.1044921875
        },
        {
          "ticks": 1964,
          "time": 1.6258278416666667,
          "value": -0.10546875
        },
        {
          "ticks": 1971,
          "time": 1.63162254375,
          "value": -0.1064453125
        },
        {
          "ticks": 1979,
          "time": 1.6382450604166667,
          "value": -0.1072998046875
        },
        {
          "ticks": 1986,
          "time": 1.6440397625,
          "value": -0.1082763671875
        },
        {
          "ticks": 1994,
          "time": 1.6506622791666667,
          "value": -0.1092529296875
        },
        {
          "ticks": 2001,
          "time": 1.65645698125,
          "value": -0.110107421875
        },
        {
          "ticks": 2009,
          "time": 1.6630794979166668,
          "value": -0.111083984375
        },
        {
          "ticks": 2016,
          "time": 1.6688742,
          "value": -0.112060546875
        },
        {
          "ticks": 2024,
          "time": 1.6754967166666668,
          "value": -0.1129150390625
        },
        {
          "ticks": 2031,
          "time": 1.68129141875,
          "value": -0.1138916015625
        },
        {
          "ticks": 2039,
          "time": 1.6879139354166668,
          "value": -0.1148681640625
        },
        {
          "ticks": 2046,
          "time": 1.6937086375000001,
          "value": -0.11572265625
        },
        {
          "ticks": 2054,
          "time": 1.7003311541666668,
          "value": -0.11669921875
        },
        {
          "ticks": 2061,
          "time": 1.7061258562500001,
          "value": -0.11767578125
        },
        {
          "ticks": 2069,
          "time": 1.7127483729166668,
          "value": -0.1185302734375
        },
        {
          "ticks": 2076,
          "time": 1.7185430750000001,
          "value": -0.1195068359375
        },
        {
          "ticks": 2084,
          "time": 1.7251655916666668,
          "value": -0.1204833984375
        },
        {
          "ticks": 2091,
          "time": 1.7309602937500002,
          "value": -0.121337890625
        },
        {
          "ticks": 2099,
          "time": 1.7375828104166668,
          "value": -0.122314453125
        },
        {
          "ticks": 2106,
          "time": 1.7433775125000002,
          "value": -0.123291015625
        },
        {
          "ticks": 2114,
          "time": 1.7500000291666669,
          "value": -0.1241455078125
        },
        {
          "ticks": 2121,
          "time": 1.7557947312500002,
          "value": -0.1251220703125
        },
        {
          "ticks": 2129,
          "time": 1.7624172479166667,
          "value": -0.1259765625
        },
        {
          "ticks": 2136,
          "time": 1.7682119500000002,
          "value": -0.126953125
        },
        {
          "ticks": 2144,
          "time": 1.7748344666666667,
          "value": -0.1279296875
        },
        {
          "ticks": 2151,
          "time": 1.7806291687500002,
          "value": -0.1287841796875
        },
        {
          "ticks": 2159,
          "time": 1.7872516854166667,
          "value": -0.1297607421875
        },
        {
          "ticks": 2166,
          "time": 1.7930463875,
          "value": -0.1307373046875
        },
        {
          "ticks": 2174,
          "time": 1.7996689041666667,
          "value": -0.131591796875
        },
        {
          "ticks": 2181,
          "time": 1.80546360625,
          "value": -0.132568359375
        },
        {
          "ticks": 2189,
          "time": 1.8120861229166667,
          "value": -0.133544921875
        },
        {
          "ticks": 2196,
          "time": 1.817880825,
          "value": -0.1343994140625
        },
        {
          "ticks": 2204,
          "time": 1.8245033416666667,
          "value": -0.1353759765625
        },
        {
          "ticks": 2211,
          "time": 1.83029804375,
          "value": -0.1363525390625
        },
        {
          "ticks": 2219,
          "time": 1.8369205604166667,
          "value": -0.13720703125
        },
        {
          "ticks": 2226,
          "time": 1.8427152625,
          "value": -0.13818359375
        },
        {
          "ticks": 2234,
          "time": 1.8493377791666668,
          "value": -0.13916015625
        },
        {
          "ticks": 2241,
          "time": 1.85513248125,
          "value": -0.1400146484375
        },
        {
          "ticks": 2249,
          "time": 1.8617549979166668,
          "value": -0.1409912109375
        },
        {
          "ticks": 2256,
          "time": 1.8675497,
          "value": -0.1419677734375
        },
        {
          "ticks": 2264,
          "time": 1.8741722166666668,
          "value": -0.142822265625
        },
        {
          "ticks": 2271,
          "time": 1.87996691875,
          "value": -0.143798828125
        },
        {
          "ticks": 2279,
          "time": 1.8865894354166668,
          "value": -0.144775390625
        },
        {
          "ticks": 2286,
          "time": 1.8923841375000001,
          "value": -0.1456298828125
        },
        {
          "ticks": 2294,
          "time": 1.8990066541666668,
          "value": -0.1466064453125
        },
        {
          "ticks": 2301,
          "time": 1.9048013562500001,
          "value": -0.1474609375
        },
        {
          "ticks": 2309,
          "time": 1.9114238729166668,
          "value": -0.1484375
        },
        {
          "ticks": 2316,
          "time": 1.9172185750000001,
          "value": -0.1494140625
        },
        {
          "ticks": 2324,
          "time": 1.9238410916666668,
          "value": -0.1502685546875
        },
        {
          "ticks": 2331,
          "time": 1.9296357937500002,
          "value": -0.1512451171875
        },
        {
          "ticks": 2339,
          "time": 1.9362583104166669,
          "value": -0.1522216796875
        },
        {
          "ticks": 2346,
          "time": 1.9420530125000002,
          "value": -0.153076171875
        },
        {
          "ticks": 2354,
          "time": 1.9486755291666669,
          "value": -0.154052734375
        },
        {
          "ticks": 2361,
          "time": 1.9544702312500002,
          "value": -0.155029296875
        },
        {
          "ticks": 2369,
          "time": 1.9610927479166667,
          "value": -0.1558837890625
        },
        {
          "ticks": 2376,
          "time": 1.9668874500000002,
          "value": -0.1568603515625
        },
        {
          "ticks": 2384,
          "time": 1.9735099666666667,
          "value": -0.1578369140625
        },
        {
          "ticks": 2391,
          "time": 1.9793046687500002,
          "value": -0.15869140625
        },
        {
          "ticks": 2399,
          "time": 1.9859271854166667,
          "value": -0.15966796875
        },
        {
          "ticks": 2406,
          "time": 1.9917218875,
          "value": -0.16064453125
        },
        {
          "ticks": 2414,
          "time": 1.9983444041666667,
          "value": -0.1614990234375
        },
        {
          "ticks": 2421,
          "time": 2.0041391062500002,
          "value": -0.1624755859375
        },
        {
          "ticks": 2429,
          "time": 2.0107616229166667,
          "value": -0.1634521484375
        },
        {
          "ticks": 2436,
          "time": 2.0165563250000003,
          "value": -0.164306640625
        },
        {
          "ticks": 2444,
          "time": 2.0231788416666667,
          "value": -0.165283203125
        },
        {
          "ticks": 2451,
          "time": 2.0289735437500003,
          "value": -0.1661376953125
        },
        {
          "ticks": 2459,
          "time": 2.0355960604166667,
          "value": -0.1671142578125
        },
        {
          "ticks": 2466,
          "time": 2.0413907625000003,
          "value": -0.1680908203125
        },
        {
          "ticks": 2474,
          "time": 2.0480132791666668,
          "value": -0.1689453125
        },
        {
          "ticks": 2481,
          "time": 2.0538079812500003,
          "value": -0.169921875
        },
        {
          "ticks": 2489,
          "time": 2.0604304979166668,
          "value": -0.1708984375
        },
        {
          "ticks": 2496,
          "time": 2.0662252000000003,
          "value": -0.1717529296875
        },
        {
          "ticks": 2504,
          "time": 2.072847716666667,
          "value": -0.1727294921875
        },
        {
          "ticks": 2511,
          "time": 2.0786424187500003,
          "value": -0.1737060546875
        },
        {
          "ticks": 2519,
          "time": 2.085264935416667,
          "value": -0.174560546875
        },
        {
          "ticks": 2526,
          "time": 2.0910596375,
          "value": -0.175537109375
        },
        {
          "ticks": 2534,
          "time": 2.097682154166667,
          "value": -0.176513671875
        },
        {
          "ticks": 2541,
          "time": 2.10347685625,
          "value": -0.1773681640625
        },
        {
          "ticks": 2549,
          "time": 2.110099372916667,
          "value": -0.1783447265625
        },
        {
          "ticks": 2556,
          "time": 2.115894075,
          "value": -0.1793212890625
        },
        {
          "ticks": 2564,
          "time": 2.122516591666667,
          "value": -0.18017578125
        },
        {
          "ticks": 2571,
          "time": 2.12831129375,
          "value": -0.18115234375
        },
        {
          "ticks": 2579,
          "time": 2.134933810416667,
          "value": -0.18212890625
        },
        {
          "ticks": 2586,
          "time": 2.1407285125,
          "value": -0.1829833984375
        },
        {
          "ticks": 2594,
          "time": 2.147351029166667,
          "value": -0.1839599609375
        },
        {
          "ticks": 2601,
          "time": 2.15314573125,
          "value": -0.1849365234375
        },
        {
          "ticks": 2609,
          "time": 2.159768247916667,
          "value": -0.185791015625
        },
        {
          "ticks": 2616,
          "time": 2.16556295,
          "value": -0.186767578125
        },
        {
          "ticks": 2624,
          "time": 2.172185466666667,
          "value": -0.1876220703125
        },
        {
          "ticks": 2631,
          "time": 2.17798016875,
          "value": -0.1885986328125
        },
        {
          "ticks": 2639,
          "time": 2.184602685416667,
          "value": -0.1895751953125
        },
        {
          "ticks": 2646,
          "time": 2.1903973875,
          "value": -0.1904296875
        },
        {
          "ticks": 2654,
          "time": 2.197019904166667,
          "value": -0.19140625
        },
        {
          "ticks": 2661,
          "time": 2.20281460625,
          "value": -0.1923828125
        },
        {
          "ticks": 2669,
          "time": 2.209437122916667,
          "value": -0.1932373046875
        },
        {
          "ticks": 2676,
          "time": 2.215231825,
          "value": -0.1942138671875
        },
        {
          "ticks": 2684,
          "time": 2.221854341666667,
          "value": -0.1951904296875
        },
        {
          "ticks": 2691,
          "time": 2.22764904375,
          "value": -0.196044921875
        },
        {
          "ticks": 2699,
          "time": 2.234271560416667,
          "value": -0.197021484375
        },
        {
          "ticks": 2706,
          "time": 2.2400662625,
          "value": -0.197998046875
        },
        {
          "ticks": 2714,
          "time": 2.246688779166667,
          "value": -0.1988525390625
        },
        {
          "ticks": 2721,
          "time": 2.25248348125,
          "value": -0.1998291015625
        },
        {
          "ticks": 2729,
          "time": 2.2591059979166666,
          "value": -0.2008056640625
        },
        {
          "ticks": 2736,
          "time": 2.2649007,
          "value": -0.20166015625
        },
        {
          "ticks": 2744,
          "time": 2.2715232166666666,
          "value": -0.20263671875
        },
        {
          "ticks": 2751,
          "time": 2.27731791875,
          "value": -0.20361328125
        },
        {
          "ticks": 2759,
          "time": 2.2839404354166666,
          "value": -0.2044677734375
        },
        {
          "ticks": 2766,
          "time": 2.2897351375,
          "value": -0.2054443359375
        },
        {
          "ticks": 2774,
          "time": 2.2963576541666666,
          "value": -0.2064208984375
        },
        {
          "ticks": 2781,
          "time": 2.30215235625,
          "value": -0.207275390625
        },
        {
          "ticks": 2789,
          "time": 2.3087748729166666,
          "value": -0.208251953125
        },
        {
          "ticks": 2796,
          "time": 2.314569575,
          "value": -0.2091064453125
        },
        {
          "ticks": 2804,
          "time": 2.3211920916666666,
          "value": -0.2100830078125
        },
        {
          "ticks": 2811,
          "time": 2.32698679375,
          "value": -0.2110595703125
        },
        {
          "ticks": 2819,
          "time": 2.3336093104166666,
          "value": -0.2119140625
        },
        {
          "ticks": 2826,
          "time": 2.3394040125,
          "value": -0.212890625
        },
        {
          "ticks": 2834,
          "time": 2.3460265291666667,
          "value": -0.2138671875
        },
        {
          "ticks": 2841,
          "time": 2.35182123125,
          "value": -0.2147216796875
        },
        {
          "ticks": 2849,
          "time": 2.3584437479166667,
          "value": -0.2156982421875
        },
        {
          "ticks": 2856,
          "time": 2.36423845,
          "value": -0.2166748046875
        },
        {
          "ticks": 2864,
          "time": 2.3708609666666667,
          "value": -0.217529296875
        },
        {
          "ticks": 2871,
          "time": 2.3766556687500002,
          "value": -0.218505859375
        },
        {
          "ticks": 2879,
          "time": 2.3832781854166667,
          "value": -0.219482421875
        },
        {
          "ticks": 2886,
          "time": 2.3890728875000002,
          "value": -0.2203369140625
        },
        {
          "ticks": 2894,
          "time": 2.3956954041666667,
          "value": -0.2213134765625
        },
        {
          "ticks": 2901,
          "time": 2.4014901062500003,
          "value": -0.2222900390625
        },
        {
          "ticks": 2909,
          "time": 2.4081126229166667,
          "value": -0.22314453125
        },
        {
          "ticks": 2916,
          "time": 2.4139073250000003,
          "value": -0.22412109375
        },
        {
          "ticks": 2924,
          "time": 2.4205298416666667,
          "value": -0.22509765625
        },
        {
          "ticks": 2931,
          "time": 2.4263245437500003,
          "value": -0.2259521484375
        },
        {
          "ticks": 2939,
          "time": 2.4329470604166668,
          "value": -0.2269287109375
        },
        {
          "ticks": 2946,
          "time": 2.4387417625000003,
          "value": -0.227783203125
        },
        {
          "ticks": 2954,
          "time": 2.4453642791666668,
          "value": -0.228759765625
        },
        {
          "ticks": 2961,
          "time": 2.4511589812500003,
          "value": -0.229736328125
        },
        {
          "ticks": 2969,
          "time": 2.457781497916667,
          "value": -0.2305908203125
        },
        {
          "ticks": 2976,
          "time": 2.4635762000000003,
          "value": -0.2315673828125
        },
        {
          "ticks": 2984,
          "time": 2.470198716666667,
          "value": -0.2325439453125
        },
        {
          "ticks": 2991,
          "time": 2.4759934187500003,
          "value": -0.2333984375
        },
        {
          "ticks": 2999,
          "time": 2.482615935416667,
          "value": -0.234375
        },
        {
          "ticks": 3006,
          "time": 2.4884106375,
          "value": -0.2353515625
        },
        {
          "ticks": 3014,
          "time": 2.495033154166667,
          "value": -0.2362060546875
        },
        {
          "ticks": 3021,
          "time": 2.50082785625,
          "value": -0.2371826171875
        },
        {
          "ticks": 3029,
          "time": 2.507450372916667,
          "value": -0.2381591796875
        },
        {
          "ticks": 3036,
          "time": 2.513245075,
          "value": -0.239013671875
        },
        {
          "ticks": 3044,
          "time": 2.519867591666667,
          "value": -0.239990234375
        },
        {
          "ticks": 3051,
          "time": 2.52566229375,
          "value": -0.240966796875
        },
        {
          "ticks": 3059,
          "time": 2.532284810416667,
          "value": -0.2418212890625
        },
        {
          "ticks": 3066,
          "time": 2.5380795125,
          "value": -0.2427978515625
        },
        {
          "ticks": 3074,
          "time": 2.544702029166667,
          "value": -0.2437744140625
        },
        {
          "ticks": 3081,
          "time": 2.55049673125,
          "value": -0.24462890625
        },
        {
          "ticks": 3089,
          "time": 2.557119247916667,
          "value": -0.24560546875
        },
        {
          "ticks": 3096,
          "time": 2.56291395,
          "value": -0.24658203125
        },
        {
          "ticks": 3104,
          "time": 2.569536466666667,
          "value": -0.2474365234375
        },
        {
          "ticks": 3111,
          "time": 2.57533116875,
          "value": -0.2484130859375
        },
        {
          "ticks": 3119,
          "time": 2.581953685416667,
          "value": -0.249267578125
        },
        {
          "ticks": 3126,
          "time": 2.5877483875,
          "value": -0.250244140625
        },
        {
          "ticks": 3134,
          "time": 2.594370904166667,
          "value": -0.251220703125
        },
        {
          "ticks": 3141,
          "time": 2.60016560625,
          "value": -0.2520751953125
        },
        {
          "ticks": 3149,
          "time": 2.606788122916667,
          "value": -0.2530517578125
        },
        {
          "ticks": 3156,
          "time": 2.612582825,
          "value": -0.2540283203125
        },
        {
          "ticks": 3164,
          "time": 2.619205341666667,
          "value": -0.2548828125
        },
        {
          "ticks": 3171,
          "time": 2.62500004375,
          "value": -0.255859375
        },
        {
          "ticks": 3179,
          "time": 2.631622560416667,
          "value": -0.2568359375
        },
        {
          "ticks": 3186,
          "time": 2.6374172625,
          "value": -0.2576904296875
        },
        {
          "ticks": 3194,
          "time": 2.644039779166667,
          "value": -0.2586669921875
        },
        {
          "ticks": 3201,
          "time": 2.64983448125,
          "value": -0.2596435546875
        },
        {
          "ticks": 3209,
          "time": 2.6564569979166666,
          "value": -0.260498046875
        },
        {
          "ticks": 3216,
          "time": 2.6622517,
          "value": -0.261474609375
        },
        {
          "ticks": 3224,
          "time": 2.6688742166666666,
          "value": -0.262451171875
        },
        {
          "ticks": 3231,
          "time": 2.67466891875,
          "value": -0.2633056640625
        },
        {
          "ticks": 3239,
          "time": 2.6812914354166666,
          "value": -0.2642822265625
        },
        {
          "ticks": 3246,
          "time": 2.6870861375,
          "value": -0.2652587890625
        },
        {
          "ticks": 3254,
          "time": 2.6937086541666666,
          "value": -0.26611328125
        },
        {
          "ticks": 3261,
          "time": 2.69950335625,
          "value": -0.26708984375
        },
        {
          "ticks": 3269,
          "time": 2.7061258729166666,
          "value": -0.26806640625
        },
        {
          "ticks": 3276,
          "time": 2.711920575,
          "value": -0.2689208984375
        },
        {
          "ticks": 3284,
          "time": 2.7185430916666666,
          "value": -0.2698974609375
        },
        {
          "ticks": 3291,
          "time": 2.72433779375,
          "value": -0.270751953125
        },
        {
          "ticks": 3299,
          "time": 2.7309603104166666,
          "value": -0.271728515625
        },
        {
          "ticks": 3306,
          "time": 2.7367550125,
          "value": -0.272705078125
        },
        {
          "ticks": 3314,
          "time": 2.7433775291666667,
          "value": -0.2735595703125
        },
        {
          "ticks": 3321,
          "time": 2.74917223125,
          "value": -0.2745361328125
        },
        {
          "ticks": 3329,
          "time": 2.7557947479166667,
          "value": -0.2755126953125
        },
        {
          "ticks": 3336,
          "time": 2.7615894500000002,
          "value": -0.2763671875
        },
        {
          "ticks": 3344,
          "time": 2.7682119666666667,
          "value": -0.27734375
        },
        {
          "ticks": 3351,
          "time": 2.7740066687500002,
          "value": -0.2783203125
        },
        {
          "ticks": 3359,
          "time": 2.7806291854166667,
          "value": -0.2791748046875
        },
        {
          "ticks": 3366,
          "time": 2.7864238875000003,
          "value": -0.2801513671875
        },
        {
          "ticks": 3374,
          "time": 2.7930464041666667,
          "value": -0.2811279296875
        },
        {
          "ticks": 3381,
          "time": 2.7988411062500003,
          "value": -0.281982421875
        },
        {
          "ticks": 3389,
          "time": 2.8054636229166667,
          "value": -0.282958984375
        },
        {
          "ticks": 3396,
          "time": 2.8112583250000003,
          "value": -0.283935546875
        },
        {
          "ticks": 3404,
          "time": 2.8178808416666667,
          "value": -0.2847900390625
        },
        {
          "ticks": 3411,
          "time": 2.8236755437500003,
          "value": -0.2857666015625
        },
        {
          "ticks": 3419,
          "time": 2.8302980604166668,
          "value": -0.2867431640625
        },
        {
          "ticks": 3426,
          "time": 2.8360927625000003,
          "value": -0.28759765625
        },
        {
          "ticks": 3434,
          "time": 2.8427152791666668,
          "value": -0.28857421875
        },
        {
          "ticks": 3441,
          "time": 2.8485099812500003,
          "value": -0.28955078125
        },
        {
          "ticks": 3449,
          "time": 2.855132497916667,
          "value": -0.2904052734375
        },
        {
          "ticks": 3456,
          "time": 2.8609272000000003,
          "value": -0.2913818359375
        },
        {
          "ticks": 3464,
          "time": 2.867549716666667,
          "value": -0.292236328125
        },
        {
          "ticks": 3471,
          "time": 2.8733444187500004,
          "value": -0.293212890625
        },
        {
          "ticks": 3479,
          "time": 2.879966935416667,
          "value": -0.294189453125
        },
        {
          "ticks": 3486,
          "time": 2.8857616375,
          "value": -0.2950439453125
        },
        {
          "ticks": 3494,
          "time": 2.892384154166667,
          "value": -0.2960205078125
        },
        {
          "ticks": 3501,
          "time": 2.89817885625,
          "value": -0.2969970703125
        },
        {
          "ticks": 3509,
          "time": 2.904801372916667,
          "value": -0.2978515625
        },
        {
          "ticks": 3516,
          "time": 2.910596075,
          "value": -0.298828125
        },
        {
          "ticks": 3524,
          "time": 2.917218591666667,
          "value": -0.2998046875
        },
        {
          "ticks": 3531,
          "time": 2.92301329375,
          "value": -0.3006591796875
        },
        {
          "ticks": 3539,
          "time": 2.929635810416667,
          "value": -0.3016357421875
        },
        {
          "ticks": 3546,
          "time": 2.9354305125,
          "value": -0.3026123046875
        },
        {
          "ticks": 3554,
          "time": 2.942053029166667,
          "value": -0.303466796875
        },
        {
          "ticks": 3561,
          "time": 2.94784773125,
          "value": -0.304443359375
        },
        {
          "ticks": 3569,
          "time": 2.954470247916667,
          "value": -0.305419921875
        },
        {
          "ticks": 3576,
          "time": 2.96026495,
          "value": -0.3062744140625
        },
        {
          "ticks": 3584,
          "time": 2.966887466666667,
          "value": -0.3072509765625
        },
        {
          "ticks": 3591,
          "time": 2.97268216875,
          "value": -0.3082275390625
        },
        {
          "ticks": 3599,
          "time": 2.979304685416667,
          "value": -0.30908203125
        },
        {
          "ticks": 3606,
          "time": 2.9850993875,
          "value": -0.31005859375
        },
        {
          "ticks": 3614,
          "time": 2.991721904166667,
          "value": -0.3109130859375
        },
        {
          "ticks": 3621,
          "time": 2.99751660625,
          "value": -0.3118896484375
        },
        {
          "ticks": 3629,
          "time": 3.004139122916667,
          "value": -0.3128662109375
        },
        {
          "ticks": 3636,
          "time": 3.009933825,
          "value": -0.313720703125
        },
        {
          "ticks": 3644,
          "time": 3.016556341666667,
          "value": -0.314697265625
        },
        {
          "ticks": 3651,
          "time": 3.02235104375,
          "value": -0.315673828125
        },
        {
          "ticks": 3659,
          "time": 3.028973560416667,
          "value": -0.3165283203125
        },
        {
          "ticks": 3666,
          "time": 3.0347682625,
          "value": -0.3175048828125
        },
        {
          "ticks": 3674,
          "time": 3.041390779166667,
          "value": -0.3184814453125
        },
        {
          "ticks": 3681,
          "time": 3.04718548125,
          "value": -0.3193359375
        },
        {
          "ticks": 3689,
          "time": 3.0538079979166666,
          "value": -0.3203125
        },
        {
          "ticks": 3696,
          "time": 3.0596027,
          "value": -0.3212890625
        },
        {
          "ticks": 3704,
          "time": 3.0662252166666666,
          "value": -0.3221435546875
        },
        {
          "ticks": 3711,
          "time": 3.07201991875,
          "value": -0.3231201171875
        },
        {
          "ticks": 3719,
          "time": 3.0786424354166666,
          "value": -0.3240966796875
        },
        {
          "ticks": 3726,
          "time": 3.0844371375,
          "value": -0.324951171875
        },
        {
          "ticks": 3734,
          "time": 3.0910596541666666,
          "value": -0.325927734375
        },
        {
          "ticks": 3741,
          "time": 3.09685435625,
          "value": -0.326904296875
        },
        {
          "ticks": 3749,
          "time": 3.1034768729166666,
          "value": -0.3277587890625
        },
        {
          "ticks": 3756,
          "time": 3.109271575,
          "value": -0.3287353515625
        },
        {
          "ticks": 3764,
          "time": 3.1158940916666666,
          "value": -0.3297119140625
        },
        {
          "ticks": 3771,
          "time": 3.12168879375,
          "value": -0.33056640625
        },
        {
          "ticks": 3779,
          "time": 3.1283113104166667,
          "value": -0.33154296875
        },
        {
          "ticks": 3786,
          "time": 3.1341060125,
          "value": -0.3323974609375
        },
        {
          "ticks": 3794,
          "time": 3.1407285291666667,
          "value": -0.3333740234375
        },
        {
          "ticks": 3801,
          "time": 3.14652323125,
          "value": -0.3343505859375
        },
        {
          "ticks": 3809,
          "time": 3.1531457479166667,
          "value": -0.335205078125
        },
        {
          "ticks": 3816,
          "time": 3.1589404500000002,
          "value": -0.336181640625
        },
        {
          "ticks": 3824,
          "time": 3.1655629666666667,
          "value": -0.337158203125
        },
        {
          "ticks": 3831,
          "time": 3.1713576687500002,
          "value": -0.3380126953125
        },
        {
          "ticks": 3839,
          "time": 3.1779801854166667,
          "value": -0.3389892578125
        },
        {
          "ticks": 3846,
          "time": 3.1837748875,
          "value": -0.3399658203125
        },
        {
          "ticks": 3854,
          "time": 3.1903974041666667,
          "value": -0.3408203125
        },
        {
          "ticks": 3861,
          "time": 3.19619210625,
          "value": -0.341796875
        },
        {
          "ticks": 3869,
          "time": 3.2028146229166667,
          "value": -0.3427734375
        },
        {
          "ticks": 3876,
          "time": 3.208609325,
          "value": -0.3436279296875
        },
        {
          "ticks": 3884,
          "time": 3.2152318416666668,
          "value": -0.3446044921875
        },
        {
          "ticks": 3891,
          "time": 3.22102654375,
          "value": -0.3455810546875
        },
        {
          "ticks": 3899,
          "time": 3.2276490604166668,
          "value": -0.346435546875
        },
        {
          "ticks": 3906,
          "time": 3.2334437625,
          "value": -0.347412109375
        },
        {
          "ticks": 3914,
          "time": 3.240066279166667,
          "value": -0.348388671875
        },
        {
          "ticks": 3921,
          "time": 3.24586098125,
          "value": -0.3492431640625
        },
        {
          "ticks": 3929,
          "time": 3.252483497916667,
          "value": -0.3502197265625
        },
        {
          "ticks": 3936,
          "time": 3.2582782,
          "value": -0.3511962890625
        },
        {
          "ticks": 3944,
          "time": 3.264900716666667,
          "value": -0.35205078125
        },
        {
          "ticks": 3951,
          "time": 3.27069541875,
          "value": -0.35302734375
        },
        {
          "ticks": 3959,
          "time": 3.277317935416667,
          "value": -0.3538818359375
        },
        {
          "ticks": 3966,
          "time": 3.2831126375,
          "value": -0.3548583984375
        },
        {
          "ticks": 3974,
          "time": 3.289735154166667,
          "value": -0.3558349609375
        },
        {
          "ticks": 3981,
          "time": 3.29552985625,
          "value": -0.356689453125
        },
        {
          "ticks": 3989,
          "time": 3.302152372916667,
          "value": -0.357666015625
        },
        {
          "ticks": 3996,
          "time": 3.307947075,
          "value": -0.358642578125
        },
        {
          "ticks": 4004,
          "time": 3.314569591666667,
          "value": -0.3594970703125
        },
        {
          "ticks": 4011,
          "time": 3.32036429375,
          "value": -0.3604736328125
        },
        {
          "ticks": 4019,
          "time": 3.326986810416667,
          "value": -0.3614501953125
        },
        {
          "ticks": 4026,
          "time": 3.3327815125,
          "value": -0.3623046875
        },
        {
          "ticks": 4034,
          "time": 3.339404029166667,
          "value": -0.36328125
        },
        {
          "ticks": 4041,
          "time": 3.34519873125,
          "value": -0.3642578125
        },
        {
          "ticks": 4049,
          "time": 3.351821247916667,
          "value": -0.3651123046875
        },
        {
          "ticks": 4056,
          "time": 3.35761595,
          "value": -0.3660888671875
        },
        {
          "ticks": 4064,
          "time": 3.364238466666667,
          "value": -0.3670654296875
        },
        {
          "ticks": 4071,
          "time": 3.3700331687499996,
          "value": -0.367919921875
        },
        {
          "ticks": 4079,
          "time": 3.376655685416667,
          "value": -0.368896484375
        },
        {
          "ticks": 4086,
          "time": 3.3824503874999996,
          "value": -0.369873046875
        },
        {
          "ticks": 4094,
          "time": 3.389072904166667,
          "value": -0.3707275390625
        },
        {
          "ticks": 4101,
          "time": 3.3948676062499996,
          "value": -0.3717041015625
        },
        {
          "ticks": 4109,
          "time": 3.401490122916667,
          "value": -0.3726806640625
        },
        {
          "ticks": 4116,
          "time": 3.4072848249999996,
          "value": -0.37353515625
        },
        {
          "ticks": 4124,
          "time": 3.413907341666667,
          "value": -0.37451171875
        },
        {
          "ticks": 4131,
          "time": 3.4197020437499996,
          "value": -0.3753662109375
        },
        {
          "ticks": 4139,
          "time": 3.426324560416667,
          "value": -0.3763427734375
        },
        {
          "ticks": 4146,
          "time": 3.4321192624999997,
          "value": -0.3773193359375
        },
        {
          "ticks": 4154,
          "time": 3.438741779166667,
          "value": -0.378173828125
        },
        {
          "ticks": 4161,
          "time": 3.4445364812499997,
          "value": -0.379150390625
        },
        {
          "ticks": 4169,
          "time": 3.4511589979166666,
          "value": -0.380126953125
        },
        {
          "ticks": 4176,
          "time": 3.4569536999999997,
          "value": -0.3809814453125
        },
        {
          "ticks": 4184,
          "time": 3.4635762166666666,
          "value": -0.3819580078125
        },
        {
          "ticks": 4191,
          "time": 3.4693709187499997,
          "value": -0.3829345703125
        },
        {
          "ticks": 4199,
          "time": 3.4759934354166666,
          "value": -0.3837890625
        },
        {
          "ticks": 4206,
          "time": 3.4817881374999997,
          "value": -0.384765625
        },
        {
          "ticks": 4214,
          "time": 3.4884106541666666,
          "value": -0.3857421875
        },
        {
          "ticks": 4221,
          "time": 3.4942053562499997,
          "value": -0.3865966796875
        },
        {
          "ticks": 4229,
          "time": 3.5008278729166666,
          "value": -0.3875732421875
        },
        {
          "ticks": 4236,
          "time": 3.5066225749999997,
          "value": -0.3885498046875
        },
        {
          "ticks": 4244,
          "time": 3.5132450916666667,
          "value": -0.389404296875
        },
        {
          "ticks": 4251,
          "time": 3.5190397937499998,
          "value": -0.390380859375
        },
        {
          "ticks": 4259,
          "time": 3.5256623104166667,
          "value": -0.391357421875
        },
        {
          "ticks": 4266,
          "time": 3.5314570124999998,
          "value": -0.3922119140625
        },
        {
          "ticks": 4274,
          "time": 3.5380795291666667,
          "value": -0.3931884765625
        },
        {
          "ticks": 4281,
          "time": 3.54387423125,
          "value": -0.39404296875
        },
        {
          "ticks": 4289,
          "time": 3.5504967479166667,
          "value": -0.39501953125
        },
        {
          "ticks": 4296,
          "time": 3.55629145,
          "value": -0.39599609375
        },
        {
          "ticks": 4304,
          "time": 3.5629139666666667,
          "value": -0.3968505859375
        },
        {
          "ticks": 4311,
          "time": 3.56870866875,
          "value": -0.3978271484375
        },
        {
          "ticks": 4319,
          "time": 3.5753311854166667,
          "value": -0.3988037109375
        },
        {
          "ticks": 4326,
          "time": 3.5811258875,
          "value": -0.399658203125
        },
        {
          "ticks": 4334,
          "time": 3.5877484041666667,
          "value": -0.400634765625
        },
        {
          "ticks": 4341,
          "time": 3.59354310625,
          "value": -0.401611328125
        },
        {
          "ticks": 4349,
          "time": 3.6001656229166668,
          "value": -0.4024658203125
        },
        {
          "ticks": 4356,
          "time": 3.605960325,
          "value": -0.4034423828125
        },
        {
          "ticks": 4364,
          "time": 3.6125828416666668,
          "value": -0.4044189453125
        },
        {
          "ticks": 4371,
          "time": 3.61837754375,
          "value": -0.4052734375
        },
        {
          "ticks": 4379,
          "time": 3.625000060416667,
          "value": -0.40625
        },
        {
          "ticks": 4386,
          "time": 3.6307947625,
          "value": -0.4072265625
        },
        {
          "ticks": 4394,
          "time": 3.637417279166667,
          "value": -0.4080810546875
        },
        {
          "ticks": 4401,
          "time": 3.64321198125,
          "value": -0.4090576171875
        },
        {
          "ticks": 4409,
          "time": 3.649834497916667,
          "value": -0.4100341796875
        },
        {
          "ticks": 4416,
          "time": 3.6556292,
          "value": -0.410888671875
        },
        {
          "ticks": 4424,
          "time": 3.662251716666667,
          "value": -0.411865234375
        },
        {
          "ticks": 4431,
          "time": 3.66804641875,
          "value": -0.412841796875
        },
        {
          "ticks": 4439,
          "time": 3.674668935416667,
          "value": -0.4136962890625
        },
        {
          "ticks": 4446,
          "time": 3.6804636375,
          "value": -0.4146728515625
        },
        {
          "ticks": 4454,
          "time": 3.687086154166667,
          "value": -0.41552734375
        },
        {
          "ticks": 4461,
          "time": 3.69288085625,
          "value": -0.41650390625
        },
        {
          "ticks": 4469,
          "time": 3.699503372916667,
          "value": -0.41748046875
        },
        {
          "ticks": 4476,
          "time": 3.705298075,
          "value": -0.4183349609375
        },
        {
          "ticks": 4484,
          "time": 3.711920591666667,
          "value": -0.4193115234375
        },
        {
          "ticks": 4491,
          "time": 3.71771529375,
          "value": -0.4202880859375
        },
        {
          "ticks": 4499,
          "time": 3.724337810416667,
          "value": -0.421142578125
        },
        {
          "ticks": 4506,
          "time": 3.7301325125,
          "value": -0.422119140625
        },
        {
          "ticks": 4514,
          "time": 3.736755029166667,
          "value": -0.423095703125
        },
        {
          "ticks": 4521,
          "time": 3.74254973125,
          "value": -0.4239501953125
        },
        {
          "ticks": 4529,
          "time": 3.749172247916667,
          "value": -0.4249267578125
        },
        {
          "ticks": 4536,
          "time": 3.75496695,
          "value": -0.4259033203125
        },
        {
          "ticks": 4544,
          "time": 3.761589466666667,
          "value": -0.4267578125
        },
        {
          "ticks": 4551,
          "time": 3.7673841687499996,
          "value": -0.427734375
        },
        {
          "ticks": 4559,
          "time": 3.774006685416667,
          "value": -0.4287109375
        },
        {
          "ticks": 4566,
          "time": 3.7798013874999996,
          "value": -0.4295654296875
        },
        {
          "ticks": 4574,
          "time": 3.786423904166667,
          "value": -0.4305419921875
        },
        {
          "ticks": 4581,
          "time": 3.7922186062499996,
          "value": -0.4315185546875
        },
        {
          "ticks": 4589,
          "time": 3.798841122916667,
          "value": -0.432373046875
        },
        {
          "ticks": 4596,
          "time": 3.8046358249999996,
          "value": -0.433349609375
        },
        {
          "ticks": 4604,
          "time": 3.811258341666667,
          "value": -0.434326171875
        },
        {
          "ticks": 4611,
          "time": 3.8170530437499997,
          "value": -0.4351806640625
        },
        {
          "ticks": 4619,
          "time": 3.823675560416667,
          "value": -0.4361572265625
        },
        {
          "ticks": 4626,
          "time": 3.8294702624999997,
          "value": -0.43701171875
        },
        {
          "ticks": 4634,
          "time": 3.836092779166667,
          "value": -0.43798828125
        },
        {
          "ticks": 4641,
          "time": 3.8418874812499997,
          "value": -0.43896484375
        },
        {
          "ticks": 4649,
          "time": 3.8485099979166666,
          "value": -0.4398193359375
        },
        {
          "ticks": 4656,
          "time": 3.8543046999999997,
          "value": -0.4407958984375
        },
        {
          "ticks": 4664,
          "time": 3.8609272166666666,
          "value": -0.4417724609375
        },
        {
          "ticks": 4671,
          "time": 3.8667219187499997,
          "value": -0.442626953125
        },
        {
          "ticks": 4679,
          "time": 3.8733444354166666,
          "value": -0.443603515625
        },
        {
          "ticks": 4686,
          "time": 3.8791391374999997,
          "value": -0.444580078125
        },
        {
          "ticks": 4694,
          "time": 3.8857616541666666,
          "value": -0.4454345703125
        },
        {
          "ticks": 4701,
          "time": 3.8915563562499997,
          "value": -0.4464111328125
        },
        {
          "ticks": 4709,
          "time": 3.8981788729166666,
          "value": -0.4473876953125
        },
        {
          "ticks": 4716,
          "time": 3.9039735749999998,
          "value": -0.4482421875
        },
        {
          "ticks": 4724,
          "time": 3.9105960916666667,
          "value": -0.44921875
        },
        {
          "ticks": 4731,
          "time": 3.9163907937499998,
          "value": -0.4501953125
        },
        {
          "ticks": 4739,
          "time": 3.9230133104166667,
          "value": -0.4510498046875
        },
        {
          "ticks": 4746,
          "time": 3.9288080125,
          "value": -0.4520263671875
        },
        {
          "ticks": 4754,
          "time": 3.9354305291666667,
          "value": -0.4530029296875
        },
        {
          "ticks": 4761,
          "time": 3.94122523125,
          "value": -0.453857421875
        },
        {
          "ticks": 4769,
          "time": 3.9478477479166667,
          "value": -0.454833984375
        },
        {
          "ticks": 4776,
          "time": 3.95364245,
          "value": -0.4556884765625
        },
        {
          "ticks": 4784,
          "time": 3.9602649666666667,
          "value": -0.4566650390625
        },
        {
          "ticks": 4791,
          "time": 3.96605966875,
          "value": -0.4576416015625
        },
        {
          "ticks": 4799,
          "time": 3.9726821854166667,
          "value": -0.45849609375
        },
        {
          "ticks": 4806,
          "time": 3.9784768875,
          "value": -0.45947265625
        },
        {
          "ticks": 4814,
          "time": 3.9850994041666667,
          "value": -0.46044921875
        },
        {
          "ticks": 4821,
          "time": 3.99089410625,
          "value": -0.4613037109375
        },
        {
          "ticks": 4829,
          "time": 3.9975166229166668,
          "value": -0.4622802734375
        },
        {
          "ticks": 4836,
          "time": 4.003311324999999,
          "value": -0.4632568359375
        },
        {
          "ticks": 4844,
          "time": 4.009933841666667,
          "value": -0.464111328125
        },
        {
          "ticks": 4851,
          "time": 4.01572854375,
          "value": -0.465087890625
        },
        {
          "ticks": 4859,
          "time": 4.022351060416667,
          "value": -0.466064453125
        },
        {
          "ticks": 4866,
          "time": 4.0281457624999994,
          "value": -0.4669189453125
        },
        {
          "ticks": 4874,
          "time": 4.034768279166667,
          "value": -0.4678955078125
        },
        {
          "ticks": 4881,
          "time": 4.04056298125,
          "value": -0.4688720703125
        },
        {
          "ticks": 4889,
          "time": 4.047185497916667,
          "value": -0.4697265625
        },
        {
          "ticks": 4896,
          "time": 4.0529801999999995,
          "value": -0.470703125
        },
        {
          "ticks": 4904,
          "time": 4.059602716666666,
          "value": -0.4716796875
        },
        {
          "ticks": 4911,
          "time": 4.06539741875,
          "value": -0.4725341796875
        },
        {
          "ticks": 4919,
          "time": 4.072019935416667,
          "value": -0.4735107421875
        },
        {
          "ticks": 4926,
          "time": 4.0778146374999995,
          "value": -0.4744873046875
        },
        {
          "ticks": 4934,
          "time": 4.084437154166666,
          "value": -0.475341796875
        },
        {
          "ticks": 4941,
          "time": 4.09023185625,
          "value": -0.476318359375
        },
        {
          "ticks": 4949,
          "time": 4.096854372916667,
          "value": -0.4771728515625
        },
        {
          "ticks": 4956,
          "time": 4.1026490749999995,
          "value": -0.4781494140625
        },
        {
          "ticks": 4964,
          "time": 4.1092715916666664,
          "value": -0.4791259765625
        },
        {
          "ticks": 4971,
          "time": 4.11506629375,
          "value": -0.47998046875
        },
        {
          "ticks": 4979,
          "time": 4.121688810416667,
          "value": -0.48095703125
        },
        {
          "ticks": 4986,
          "time": 4.1274835125,
          "value": -0.48193359375
        },
        {
          "ticks": 4994,
          "time": 4.1341060291666665,
          "value": -0.4827880859375
        },
        {
          "ticks": 5001,
          "time": 4.13990073125,
          "value": -0.4837646484375
        },
        {
          "ticks": 5009,
          "time": 4.146523247916667,
          "value": -0.4847412109375
        },
        {
          "ticks": 5016,
          "time": 4.15231795,
          "value": -0.485595703125
        },
        {
          "ticks": 5024,
          "time": 4.1589404666666665,
          "value": -0.486572265625
        },
        {
          "ticks": 5031,
          "time": 4.16473516875,
          "value": -0.487548828125
        },
        {
          "ticks": 5039,
          "time": 4.171357685416667,
          "value": -0.4884033203125
        },
        {
          "ticks": 5046,
          "time": 4.1771523875,
          "value": -0.4893798828125
        },
        {
          "ticks": 5054,
          "time": 4.1837749041666665,
          "value": -0.4903564453125
        },
        {
          "ticks": 5061,
          "time": 4.18956960625,
          "value": -0.4912109375
        },
        {
          "ticks": 5069,
          "time": 4.196192122916667,
          "value": -0.4921875
        },
        {
          "ticks": 5076,
          "time": 4.201986825,
          "value": -0.4931640625
        },
        {
          "ticks": 5084,
          "time": 4.208609341666667,
          "value": -0.4940185546875
        },
        {
          "ticks": 5091,
          "time": 4.21440404375,
          "value": -0.4949951171875
        },
        {
          "ticks": 5099,
          "time": 4.221026560416667,
          "value": -0.4959716796875
        },
        {
          "ticks": 5106,
          "time": 4.2268212625,
          "value": -0.496826171875
        },
        {
          "ticks": 5114,
          "time": 4.233443779166667,
          "value": -0.497802734375
        },
        {
          "ticks": 5121,
          "time": 4.23923848125,
          "value": -0.4986572265625
        },
        {
          "ticks": 5129,
          "time": 4.245860997916667,
          "value": -0.4996337890625
        },
        {
          "ticks": 5136,
          "time": 4.2516557,
          "value": -0.5006103515625
        },
        {
          "ticks": 5144,
          "time": 4.258278216666667,
          "value": -0.50146484375
        },
        {
          "ticks": 5151,
          "time": 4.26407291875,
          "value": -0.50244140625
        },
        {
          "ticks": 5159,
          "time": 4.270695435416667,
          "value": -0.50341796875
        },
        {
          "ticks": 5166,
          "time": 4.2764901375,
          "value": -0.5042724609375
        },
        {
          "ticks": 5174,
          "time": 4.283112654166667,
          "value": -0.5052490234375
        },
        {
          "ticks": 5181,
          "time": 4.28890735625,
          "value": -0.5062255859375
        },
        {
          "ticks": 5189,
          "time": 4.295529872916667,
          "value": -0.507080078125
        },
        {
          "ticks": 5196,
          "time": 4.301324575,
          "value": -0.508056640625
        },
        {
          "ticks": 5204,
          "time": 4.307947091666667,
          "value": -0.509033203125
        },
        {
          "ticks": 5211,
          "time": 4.31374179375,
          "value": -0.5098876953125
        },
        {
          "ticks": 5219,
          "time": 4.320364310416667,
          "value": -0.5108642578125
        },
        {
          "ticks": 5226,
          "time": 4.3261590125,
          "value": -0.5118408203125
        },
        {
          "ticks": 5234,
          "time": 4.332781529166667,
          "value": -0.5126953125
        },
        {
          "ticks": 5241,
          "time": 4.33857623125,
          "value": -0.513671875
        },
        {
          "ticks": 5249,
          "time": 4.345198747916667,
          "value": -0.5146484375
        },
        {
          "ticks": 5256,
          "time": 4.35099345,
          "value": -0.5155029296875
        },
        {
          "ticks": 5264,
          "time": 4.357615966666667,
          "value": -0.5164794921875
        },
        {
          "ticks": 5271,
          "time": 4.363410668749999,
          "value": -0.5174560546875
        },
        {
          "ticks": 5279,
          "time": 4.370033185416667,
          "value": -0.518310546875
        },
        {
          "ticks": 5286,
          "time": 4.3758278875,
          "value": -0.519287109375
        },
        {
          "ticks": 5294,
          "time": 4.382450404166667,
          "value": -0.5201416015625
        },
        {
          "ticks": 5301,
          "time": 4.388245106249999,
          "value": -0.5211181640625
        },
        {
          "ticks": 5309,
          "time": 4.394867622916667,
          "value": -0.5220947265625
        },
        {
          "ticks": 5316,
          "time": 4.400662325,
          "value": -0.52294921875
        },
        {
          "ticks": 5324,
          "time": 4.407284841666667,
          "value": -0.52392578125
        },
        {
          "ticks": 5331,
          "time": 4.4130795437499994,
          "value": -0.52490234375
        },
        {
          "ticks": 5339,
          "time": 4.419702060416667,
          "value": -0.5257568359375
        },
        {
          "ticks": 5346,
          "time": 4.4254967625,
          "value": -0.5267333984375
        },
        {
          "ticks": 5354,
          "time": 4.432119279166667,
          "value": -0.5277099609375
        },
        {
          "ticks": 5361,
          "time": 4.4379139812499995,
          "value": -0.528564453125
        },
        {
          "ticks": 5369,
          "time": 4.444536497916666,
          "value": -0.529541015625
        },
        {
          "ticks": 5376,
          "time": 4.4503312,
          "value": -0.530517578125
        },
        {
          "ticks": 5384,
          "time": 4.456953716666667,
          "value": -0.5313720703125
        },
        {
          "ticks": 5391,
          "time": 4.4627484187499995,
          "value": -0.5323486328125
        },
        {
          "ticks": 5399,
          "time": 4.469370935416666,
          "value": -0.5333251953125
        },
        {
          "ticks": 5406,
          "time": 4.4751656375,
          "value": -0.5341796875
        },
        {
          "ticks": 5414,
          "time": 4.481788154166667,
          "value": -0.53515625
        },
        {
          "ticks": 5421,
          "time": 4.4875828562499995,
          "value": -0.5361328125
        },
        {
          "ticks": 5429,
          "time": 4.494205372916666,
          "value": -0.5369873046875
        },
        {
          "ticks": 5436,
          "time": 4.500000075,
          "value": -0.5379638671875
        },
        {
          "ticks": 5444,
          "time": 4.506622591666667,
          "value": -0.538818359375
        },
        {
          "ticks": 5451,
          "time": 4.51241729375,
          "value": -0.539794921875
        },
        {
          "ticks": 5459,
          "time": 4.5190398104166665,
          "value": -0.540771484375
        },
        {
          "ticks": 5466,
          "time": 4.5248345125,
          "value": -0.5416259765625
        },
        {
          "ticks": 5474,
          "time": 4.531457029166667,
          "value": -0.5426025390625
        },
        {
          "ticks": 5481,
          "time": 4.53725173125,
          "value": -0.5435791015625
        },
        {
          "ticks": 5489,
          "time": 4.5438742479166665,
          "value": -0.54443359375
        },
        {
          "ticks": 5496,
          "time": 4.54966895,
          "value": -0.54541015625
        },
        {
          "ticks": 5504,
          "time": 4.556291466666667,
          "value": -0.54638671875
        },
        {
          "ticks": 5511,
          "time": 4.56208616875,
          "value": -0.5472412109375
        },
        {
          "ticks": 5519,
          "time": 4.5687086854166665,
          "value": -0.5482177734375
        },
        {
          "ticks": 5526,
          "time": 4.5745033875,
          "value": -0.5491943359375
        },
        {
          "ticks": 5534,
          "time": 4.581125904166667,
          "value": -0.550048828125
        },
        {
          "ticks": 5541,
          "time": 4.58692060625,
          "value": -0.551025390625
        },
        {
          "ticks": 5549,
          "time": 4.5935431229166666,
          "value": -0.552001953125
        },
        {
          "ticks": 5556,
          "time": 4.599337825,
          "value": -0.5528564453125
        },
        {
          "ticks": 5564,
          "time": 4.605960341666667,
          "value": -0.5538330078125
        },
        {
          "ticks": 5571,
          "time": 4.61175504375,
          "value": -0.5548095703125
        },
        {
          "ticks": 5579,
          "time": 4.618377560416667,
          "value": -0.5556640625
        },
        {
          "ticks": 5586,
          "time": 4.6241722625,
          "value": -0.556640625
        },
        {
          "ticks": 5594,
          "time": 4.630794779166667,
          "value": -0.5576171875
        },
        {
          "ticks": 5601,
          "time": 4.63658948125,
          "value": -0.5584716796875
        },
        {
          "ticks": 5609,
          "time": 4.643211997916667,
          "value": -0.5594482421875
        },
        {
          "ticks": 5616,
          "time": 4.6490067,
          "value": -0.560302734375
        },
        {
          "ticks": 5624,
          "time": 4.655629216666667,
          "value": -0.561279296875
        },
        {
          "ticks": 5631,
          "time": 4.66142391875,
          "value": -0.562255859375
        },
        {
          "ticks": 5639,
          "time": 4.668046435416667,
          "value": -0.5631103515625
        },
        {
          "ticks": 5646,
          "time": 4.6738411375,
          "value": -0.5640869140625
        },
        {
          "ticks": 5654,
          "time": 4.680463654166667,
          "value": -0.5650634765625
        },
        {
          "ticks": 5661,
          "time": 4.68625835625,
          "value": -0.56591796875
        },
        {
          "ticks": 5669,
          "time": 4.692880872916667,
          "value": -0.56689453125
        },
        {
          "ticks": 5676,
          "time": 4.698675575,
          "value": -0.56787109375
        },
        {
          "ticks": 5684,
          "time": 4.705298091666667,
          "value": -0.5687255859375
        },
        {
          "ticks": 5691,
          "time": 4.71109279375,
          "value": -0.5697021484375
        },
        {
          "ticks": 5699,
          "time": 4.717715310416667,
          "value": -0.5706787109375
        },
        {
          "ticks": 5706,
          "time": 4.7235100125,
          "value": -0.571533203125
        },
        {
          "ticks": 5714,
          "time": 4.730132529166667,
          "value": -0.572509765625
        },
        {
          "ticks": 5721,
          "time": 4.73592723125,
          "value": -0.573486328125
        },
        {
          "ticks": 5729,
          "time": 4.742549747916667,
          "value": -0.5743408203125
        },
        {
          "ticks": 5736,
          "time": 4.74834445,
          "value": -0.5753173828125
        },
        {
          "ticks": 5744,
          "time": 4.754966966666667,
          "value": -0.5762939453125
        },
        {
          "ticks": 5751,
          "time": 4.76076166875,
          "value": -0.5771484375
        },
        {
          "ticks": 5759,
          "time": 4.767384185416667,
          "value": -0.578125
        },
        {
          "ticks": 5766,
          "time": 4.773178887499999,
          "value": -0.5791015625
        },
        {
          "ticks": 5774,
          "time": 4.779801404166667,
          "value": -0.5799560546875
        },
        {
          "ticks": 5781,
          "time": 4.78559610625,
          "value": -0.5809326171875
        },
        {
          "ticks": 5789,
          "time": 4.792218622916667,
          "value": -0.581787109375
        },
        {
          "ticks": 5796,
          "time": 4.798013324999999,
          "value": -0.582763671875
        },
        {
          "ticks": 5804,
          "time": 4.804635841666667,
          "value": -0.583740234375
        },
        {
          "ticks": 5811,
          "time": 4.81043054375,
          "value": -0.5845947265625
        },
        {
          "ticks": 5819,
          "time": 4.817053060416667,
          "value": -0.5855712890625
        },
        {
          "ticks": 5826,
          "time": 4.8228477624999995,
          "value": -0.5865478515625
        },
        {
          "ticks": 5834,
          "time": 4.829470279166667,
          "value": -0.58740234375
        },
        {
          "ticks": 5841,
          "time": 4.83526498125,
          "value": -0.58837890625
        },
        {
          "ticks": 5849,
          "time": 4.841887497916667,
          "value": -0.58935546875
        },
        {
          "ticks": 5856,
          "time": 4.8476821999999995,
          "value": -0.5902099609375
        },
        {
          "ticks": 5864,
          "time": 4.854304716666666,
          "value": -0.5911865234375
        },
        {
          "ticks": 5871,
          "time": 4.86009941875,
          "value": -0.5921630859375
        },
        {
          "ticks": 5879,
          "time": 4.866721935416667,
          "value": -0.593017578125
        },
        {
          "ticks": 5886,
          "time": 4.8725166374999995,
          "value": -0.593994140625
        },
        {
          "ticks": 5894,
          "time": 4.879139154166666,
          "value": -0.594970703125
        },
        {
          "ticks": 5901,
          "time": 4.88493385625,
          "value": -0.5958251953125
        },
        {
          "ticks": 5909,
          "time": 4.891556372916667,
          "value": -0.5968017578125
        },
        {
          "ticks": 5916,
          "time": 4.8973510749999996,
          "value": -0.5977783203125
        },
        {
          "ticks": 5924,
          "time": 4.9039735916666665,
          "value": -0.5986328125
        },
        {
          "ticks": 5931,
          "time": 4.90976829375,
          "value": -0.599609375
        },
        {
          "ticks": 5939,
          "time": 4.916390810416667,
          "value": -0.6005859375
        },
        {
          "ticks": 5946,
          "time": 4.9221855125,
          "value": -0.6014404296875
        },
        {
          "ticks": 5954,
          "time": 4.9288080291666665,
          "value": -0.6024169921875
        },
        {
          "ticks": 5961,
          "time": 4.93460273125,
          "value": -0.603271484375
        },
        {
          "ticks": 5969,
          "time": 4.941225247916667,
          "value": -0.604248046875
        },
        {
          "ticks": 5976,
          "time": 4.94701995,
          "value": -0.605224609375
        },
        {
          "ticks": 5984,
          "time": 4.9536424666666665,
          "value": -0.6060791015625
        },
        {
          "ticks": 5991,
          "time": 4.95943716875,
          "value": -0.6070556640625
        },
        {
          "ticks": 5999,
          "time": 4.966059685416667,
          "value": -0.6080322265625
        },
        {
          "ticks": 6006,
          "time": 4.9718543875,
          "value": -0.60888671875
        },
        {
          "ticks": 6014,
          "time": 4.9784769041666666,
          "value": -0.60986328125
        },
        {
          "ticks": 6021,
          "time": 4.98427160625,
          "value": -0.61083984375
        },
        {
          "ticks": 6029,
          "time": 4.990894122916667,
          "value": -0.6116943359375
        },
        {
          "ticks": 6036,
          "time": 4.996688825,
          "value": -0.6126708984375
        },
        {
          "ticks": 6044,
          "time": 5.003311341666667,
          "value": -0.6136474609375
        },
        {
          "ticks": 6051,
          "time": 5.00910604375,
          "value": -0.614501953125
        },
        {
          "ticks": 6059,
          "time": 5.015728560416667,
          "value": -0.615478515625
        },
        {
          "ticks": 6066,
          "time": 5.0215232625,
          "value": -0.616455078125
        },
        {
          "ticks": 6074,
          "time": 5.028145779166667,
          "value": -0.6173095703125
        },
        {
          "ticks": 6081,
          "time": 5.03394048125,
          "value": -0.6182861328125
        },
        {
          "ticks": 6089,
          "time": 5.040562997916667,
          "value": -0.6192626953125
        },
        {
          "ticks": 6096,
          "time": 5.0463577,
          "value": -0.6201171875
        },
        {
          "ticks": 6104,
          "time": 5.052980216666667,
          "value": -0.62109375
        },
        {
          "ticks": 6111,
          "time": 5.05877491875,
          "value": -0.6219482421875
        },
        {
          "ticks": 6119,
          "time": 5.065397435416667,
          "value": -0.6229248046875
        },
        {
          "ticks": 6126,
          "time": 5.0711921375,
          "value": -0.6239013671875
        },
        {
          "ticks": 6134,
          "time": 5.077814654166667,
          "value": -0.624755859375
        },
        {
          "ticks": 6141,
          "time": 5.08360935625,
          "value": -0.625732421875
        },
        {
          "ticks": 6149,
          "time": 5.090231872916667,
          "value": -0.626708984375
        },
        {
          "ticks": 6156,
          "time": 5.096026575,
          "value": -0.6275634765625
        },
        {
          "ticks": 6164,
          "time": 5.102649091666667,
          "value": -0.6285400390625
        },
        {
          "ticks": 6171,
          "time": 5.10844379375,
          "value": -0.6295166015625
        },
        {
          "ticks": 6179,
          "time": 5.115066310416667,
          "value": -0.63037109375
        },
        {
          "ticks": 6186,
          "time": 5.1208610125,
          "value": -0.63134765625
        },
        {
          "ticks": 6194,
          "time": 5.127483529166667,
          "value": -0.63232421875
        },
        {
          "ticks": 6201,
          "time": 5.13327823125,
          "value": -0.6331787109375
        },
        {
          "ticks": 6209,
          "time": 5.139900747916667,
          "value": -0.6341552734375
        },
        {
          "ticks": 6216,
          "time": 5.14569545,
          "value": -0.6351318359375
        },
        {
          "ticks": 6224,
          "time": 5.152317966666667,
          "value": -0.635986328125
        },
        {
          "ticks": 6231,
          "time": 5.158112668749999,
          "value": -0.636962890625
        },
        {
          "ticks": 6239,
          "time": 5.164735185416667,
          "value": -0.637939453125
        },
        {
          "ticks": 6246,
          "time": 5.1705298875,
          "value": -0.6387939453125
        },
        {
          "ticks": 6254,
          "time": 5.177152404166667,
          "value": -0.6397705078125
        },
        {
          "ticks": 6260,
          "time": 5.182119291666667,
          "value": -0.640625
        },
        {
          "ticks": 6268,
          "time": 5.188741808333334,
          "value": -0.60888671875
        },
        {
          "ticks": 6275,
          "time": 5.1945365104166665,
          "value": -0.5771484375
        },
        {
          "ticks": 6283,
          "time": 5.201159027083333,
          "value": -0.54541015625
        },
        {
          "ticks": 6290,
          "time": 5.206953729166667,
          "value": -0.513671875
        },
        {
          "ticks": 6298,
          "time": 5.213576245833334,
          "value": -0.48193359375
        },
        {
          "ticks": 6305,
          "time": 5.219370947916667,
          "value": -0.4501953125
        },
        {
          "ticks": 6308,
          "time": 5.2218543916666675,
          "value": -0.4375
        },
        {
          "ticks": 6316,
          "time": 5.228476908333334,
          "value": -0.369140625
        },
        {
          "ticks": 6323,
          "time": 5.234271610416667,
          "value": -0.30078125
        },
        {
          "ticks": 6331,
          "time": 5.240894127083333,
          "value": -0.232421875
        },
        {
          "ticks": 6332,
          "time": 5.2417219416666665,
          "value": -0.21875
        },
        {
          "ticks": 6340,
          "time": 5.248344458333333,
          "value": -0.1978759765625
        },
        {
          "ticks": 6347,
          "time": 5.254139160416667,
          "value": -0.177001953125
        },
        {
          "ticks": 6355,
          "time": 5.260761677083334,
          "value": -0.156005859375
        },
        {
          "ticks": 6360,
          "time": 5.26490075,
          "value": -0.140625
        },
        {
          "ticks": 6368,
          "time": 5.271523266666667,
          "value": -0.111328125
        },
        {
          "ticks": 6375,
          "time": 5.27731796875,
          "value": -0.08203125
        },
        {
          "ticks": 6383,
          "time": 5.283940485416667,
          "value": -0.052734375
        },
        {
          "ticks": 6390,
          "time": 5.2897351875,
          "value": -0.0234375
        },
        {
          "ticks": 6396,
          "time": 5.294702075,
          "value": 0
        },
        {
          "ticks": 6404,
          "time": 5.301324591666667,
          "value": -0.0020751953125
        },
        {
          "ticks": 6411,
          "time": 5.30711929375,
          "value": -0.004150390625
        },
        {
          "ticks": 6419,
          "time": 5.3137418104166665,
          "value": -0.00634765625
        },
        {
          "ticks": 6426,
          "time": 5.3195365125,
          "value": -0.0084228515625
        },
        {
          "ticks": 6434,
          "time": 5.326159029166667,
          "value": -0.010498046875
        },
        {
          "ticks": 6441,
          "time": 5.33195373125,
          "value": -0.0126953125
        },
        {
          "ticks": 6449,
          "time": 5.3385762479166665,
          "value": -0.0147705078125
        },
        {
          "ticks": 6456,
          "time": 5.34437095,
          "value": -0.0169677734375
        },
        {
          "ticks": 6464,
          "time": 5.350993466666667,
          "value": -0.01904296875
        },
        {
          "ticks": 6471,
          "time": 5.35678816875,
          "value": -0.0211181640625
        },
        {
          "ticks": 6479,
          "time": 5.3634106854166665,
          "value": -0.0233154296875
        },
        {
          "ticks": 6486,
          "time": 5.3692053875,
          "value": -0.025390625
        },
        {
          "ticks": 6494,
          "time": 5.375827904166667,
          "value": -0.027587890625
        },
        {
          "ticks": 6501,
          "time": 5.38162260625,
          "value": -0.0296630859375
        },
        {
          "ticks": 6509,
          "time": 5.388245122916667,
          "value": -0.03173828125
        },
        {
          "ticks": 6516,
          "time": 5.394039825,
          "value": -0.033935546875
        },
        {
          "ticks": 6524,
          "time": 5.400662341666667,
          "value": -0.0360107421875
        },
        {
          "ticks": 6531,
          "time": 5.40645704375,
          "value": -0.0380859375
        },
        {
          "ticks": 6539,
          "time": 5.413079560416667,
          "value": -0.040283203125
        },
        {
          "ticks": 6546,
          "time": 5.4188742625,
          "value": -0.0423583984375
        },
        {
          "ticks": 6554,
          "time": 5.425496779166667,
          "value": -0.0445556640625
        },
        {
          "ticks": 6561,
          "time": 5.43129148125,
          "value": -0.046630859375
        },
        {
          "ticks": 6569,
          "time": 5.437913997916667,
          "value": -0.0487060546875
        },
        {
          "ticks": 6576,
          "time": 5.4437087,
          "value": -0.0509033203125
        },
        {
          "ticks": 6584,
          "time": 5.450331216666667,
          "value": -0.052978515625
        },
        {
          "ticks": 6591,
          "time": 5.45612591875,
          "value": -0.05517578125
        },
        {
          "ticks": 6599,
          "time": 5.462748435416667,
          "value": -0.0572509765625
        },
        {
          "ticks": 6606,
          "time": 5.4685431375,
          "value": -0.059326171875
        },
        {
          "ticks": 6614,
          "time": 5.475165654166667,
          "value": -0.0615234375
        },
        {
          "ticks": 6621,
          "time": 5.48096035625,
          "value": -0.0635986328125
        },
        {
          "ticks": 6629,
          "time": 5.487582872916667,
          "value": -0.065673828125
        },
        {
          "ticks": 6636,
          "time": 5.493377575,
          "value": -0.06787109375
        },
        {
          "ticks": 6644,
          "time": 5.500000091666667,
          "value": -0.0699462890625
        },
        {
          "ticks": 6651,
          "time": 5.50579479375,
          "value": -0.0721435546875
        },
        {
          "ticks": 6659,
          "time": 5.512417310416667,
          "value": -0.07421875
        },
        {
          "ticks": 6666,
          "time": 5.5182120125,
          "value": -0.0762939453125
        },
        {
          "ticks": 6674,
          "time": 5.524834529166667,
          "value": -0.0784912109375
        },
        {
          "ticks": 6681,
          "time": 5.53062923125,
          "value": -0.08056640625
        },
        {
          "ticks": 6689,
          "time": 5.537251747916667,
          "value": -0.082763671875
        },
        {
          "ticks": 6696,
          "time": 5.54304645,
          "value": -0.0848388671875
        },
        {
          "ticks": 6704,
          "time": 5.549668966666667,
          "value": -0.0869140625
        },
        {
          "ticks": 6711,
          "time": 5.55546366875,
          "value": -0.089111328125
        },
        {
          "ticks": 6719,
          "time": 5.562086185416667,
          "value": -0.0911865234375
        },
        {
          "ticks": 6726,
          "time": 5.567880887499999,
          "value": -0.09326171875
        },
        {
          "ticks": 6734,
          "time": 5.574503404166667,
          "value": -0.095458984375
        },
        {
          "ticks": 6741,
          "time": 5.58029810625,
          "value": -0.0975341796875
        },
        {
          "ticks": 6749,
          "time": 5.586920622916667,
          "value": -0.0997314453125
        },
        {
          "ticks": 6756,
          "time": 5.5927153249999995,
          "value": -0.101806640625
        },
        {
          "ticks": 6764,
          "time": 5.599337841666667,
          "value": -0.1038818359375
        },
        {
          "ticks": 6771,
          "time": 5.60513254375,
          "value": -0.1060791015625
        },
        {
          "ticks": 6779,
          "time": 5.611755060416667,
          "value": -0.108154296875
        },
        {
          "ticks": 6786,
          "time": 5.6175497624999995,
          "value": -0.1103515625
        },
        {
          "ticks": 6794,
          "time": 5.624172279166667,
          "value": -0.1124267578125
        },
        {
          "ticks": 6801,
          "time": 5.62996698125,
          "value": -0.114501953125
        },
        {
          "ticks": 6809,
          "time": 5.636589497916667,
          "value": -0.11669921875
        },
        {
          "ticks": 6816,
          "time": 5.6423841999999995,
          "value": -0.1187744140625
        },
        {
          "ticks": 6824,
          "time": 5.649006716666666,
          "value": -0.120849609375
        },
        {
          "ticks": 6831,
          "time": 5.65480141875,
          "value": -0.123046875
        },
        {
          "ticks": 6839,
          "time": 5.661423935416667,
          "value": -0.1251220703125
        },
        {
          "ticks": 6846,
          "time": 5.6672186374999995,
          "value": -0.1273193359375
        },
        {
          "ticks": 6854,
          "time": 5.6738411541666665,
          "value": -0.12939453125
        },
        {
          "ticks": 6861,
          "time": 5.67963585625,
          "value": -0.1314697265625
        },
        {
          "ticks": 6869,
          "time": 5.686258372916667,
          "value": -0.1336669921875
        },
        {
          "ticks": 6876,
          "time": 5.692053075,
          "value": -0.1357421875
        },
        {
          "ticks": 6884,
          "time": 5.6986755916666665,
          "value": -0.137939453125
        },
        {
          "ticks": 6891,
          "time": 5.70447029375,
          "value": -0.1400146484375
        },
        {
          "ticks": 6899,
          "time": 5.711092810416667,
          "value": -0.14208984375
        },
        {
          "ticks": 6906,
          "time": 5.7168875125,
          "value": -0.144287109375
        },
        {
          "ticks": 6914,
          "time": 5.7235100291666665,
          "value": -0.1463623046875
        },
        {
          "ticks": 6921,
          "time": 5.72930473125,
          "value": -0.1484375
        },
        {
          "ticks": 6929,
          "time": 5.735927247916667,
          "value": -0.150634765625
        },
        {
          "ticks": 6936,
          "time": 5.74172195,
          "value": -0.1527099609375
        },
        {
          "ticks": 6944,
          "time": 5.7483444666666665,
          "value": -0.1549072265625
        },
        {
          "ticks": 6951,
          "time": 5.75413916875,
          "value": -0.156982421875
        },
        {
          "ticks": 6959,
          "time": 5.760761685416667,
          "value": -0.1590576171875
        },
        {
          "ticks": 6966,
          "time": 5.7665563875,
          "value": -0.1612548828125
        },
        {
          "ticks": 6974,
          "time": 5.773178904166667,
          "value": -0.163330078125
        },
        {
          "ticks": 6981,
          "time": 5.77897360625,
          "value": -0.16552734375
        },
        {
          "ticks": 6989,
          "time": 5.785596122916667,
          "value": -0.1676025390625
        },
        {
          "ticks": 6996,
          "time": 5.791390825,
          "value": -0.169677734375
        },
        {
          "ticks": 7004,
          "time": 5.798013341666667,
          "value": -0.171875
        },
        {
          "ticks": 7011,
          "time": 5.80380804375,
          "value": -0.1739501953125
        },
        {
          "ticks": 7019,
          "time": 5.810430560416667,
          "value": -0.176025390625
        },
        {
          "ticks": 7026,
          "time": 5.8162252625,
          "value": -0.17822265625
        },
        {
          "ticks": 7034,
          "time": 5.822847779166667,
          "value": -0.1802978515625
        },
        {
          "ticks": 7041,
          "time": 5.82864248125,
          "value": -0.1824951171875
        },
        {
          "ticks": 7049,
          "time": 5.835264997916667,
          "value": -0.1845703125
        },
        {
          "ticks": 7056,
          "time": 5.8410597,
          "value": -0.1866455078125
        },
        {
          "ticks": 7064,
          "time": 5.847682216666667,
          "value": -0.1888427734375
        },
        {
          "ticks": 7071,
          "time": 5.85347691875,
          "value": -0.19091796875
        },
        {
          "ticks": 7079,
          "time": 5.860099435416667,
          "value": -0.193115234375
        },
        {
          "ticks": 7086,
          "time": 5.8658941375,
          "value": -0.1951904296875
        },
        {
          "ticks": 7094,
          "time": 5.872516654166667,
          "value": -0.197265625
        },
        {
          "ticks": 7101,
          "time": 5.87831135625,
          "value": -0.199462890625
        },
        {
          "ticks": 7109,
          "time": 5.884933872916667,
          "value": -0.2015380859375
        },
        {
          "ticks": 7116,
          "time": 5.890728575,
          "value": -0.20361328125
        },
        {
          "ticks": 7124,
          "time": 5.897351091666667,
          "value": -0.205810546875
        },
        {
          "ticks": 7131,
          "time": 5.90314579375,
          "value": -0.2078857421875
        },
        {
          "ticks": 7139,
          "time": 5.909768310416667,
          "value": -0.2100830078125
        },
        {
          "ticks": 7146,
          "time": 5.9155630125,
          "value": -0.212158203125
        },
        {
          "ticks": 7154,
          "time": 5.922185529166667,
          "value": -0.2142333984375
        },
        {
          "ticks": 7161,
          "time": 5.92798023125,
          "value": -0.2164306640625
        },
        {
          "ticks": 7169,
          "time": 5.934602747916667,
          "value": -0.218505859375
        },
        {
          "ticks": 7176,
          "time": 5.94039745,
          "value": -0.220703125
        },
        {
          "ticks": 7184,
          "time": 5.947019966666667,
          "value": -0.2227783203125
        },
        {
          "ticks": 7191,
          "time": 5.952814668749999,
          "value": -0.224853515625
        },
        {
          "ticks": 7199,
          "time": 5.959437185416667,
          "value": -0.22705078125
        },
        {
          "ticks": 7206,
          "time": 5.9652318875,
          "value": -0.2291259765625
        },
        {
          "ticks": 7214,
          "time": 5.971854404166667,
          "value": -0.231201171875
        },
        {
          "ticks": 7221,
          "time": 5.9776491062499995,
          "value": -0.2333984375
        },
        {
          "ticks": 7229,
          "time": 5.984271622916667,
          "value": -0.2354736328125
        },
        {
          "ticks": 7236,
          "time": 5.990066325,
          "value": -0.2376708984375
        },
        {
          "ticks": 7244,
          "time": 5.996688841666667,
          "value": -0.23974609375
        },
        {
          "ticks": 7251,
          "time": 6.0024835437499995,
          "value": -0.2418212890625
        },
        {
          "ticks": 7259,
          "time": 6.009106060416667,
          "value": -0.2440185546875
        },
        {
          "ticks": 7266,
          "time": 6.0149007625,
          "value": -0.24609375
        },
        {
          "ticks": 7274,
          "time": 6.021523279166667,
          "value": -0.248291015625
        },
        {
          "ticks": 7281,
          "time": 6.0273179812499995,
          "value": -0.2503662109375
        },
        {
          "ticks": 7289,
          "time": 6.033940497916666,
          "value": -0.25244140625
        },
        {
          "ticks": 7296,
          "time": 6.0397352,
          "value": -0.254638671875
        },
        {
          "ticks": 7304,
          "time": 6.046357716666667,
          "value": -0.2567138671875
        },
        {
          "ticks": 7311,
          "time": 6.0521524187499995,
          "value": -0.2587890625
        },
        {
          "ticks": 7319,
          "time": 6.0587749354166665,
          "value": -0.260986328125
        },
        {
          "ticks": 7326,
          "time": 6.0645696375,
          "value": -0.2630615234375
        },
        {
          "ticks": 7334,
          "time": 6.071192154166667,
          "value": -0.2652587890625
        },
        {
          "ticks": 7341,
          "time": 6.07698685625,
          "value": -0.267333984375
        },
        {
          "ticks": 7349,
          "time": 6.0836093729166665,
          "value": -0.2694091796875
        },
        {
          "ticks": 7356,
          "time": 6.089404075,
          "value": -0.2716064453125
        },
        {
          "ticks": 7364,
          "time": 6.096026591666667,
          "value": -0.273681640625
        },
        {
          "ticks": 7371,
          "time": 6.10182129375,
          "value": -0.27587890625
        },
        {
          "ticks": 7379,
          "time": 6.1084438104166665,
          "value": -0.2779541015625
        },
        {
          "ticks": 7386,
          "time": 6.1142385125,
          "value": -0.280029296875
        },
        {
          "ticks": 7394,
          "time": 6.120861029166667,
          "value": -0.2822265625
        },
        {
          "ticks": 7401,
          "time": 6.12665573125,
          "value": -0.2843017578125
        },
        {
          "ticks": 7409,
          "time": 6.1332782479166665,
          "value": -0.286376953125
        },
        {
          "ticks": 7416,
          "time": 6.13907295,
          "value": -0.28857421875
        },
        {
          "ticks": 7424,
          "time": 6.145695466666667,
          "value": -0.2906494140625
        },
        {
          "ticks": 7431,
          "time": 6.15149016875,
          "value": -0.2928466796875
        },
        {
          "ticks": 7439,
          "time": 6.158112685416667,
          "value": -0.294921875
        },
        {
          "ticks": 7446,
          "time": 6.1639073875,
          "value": -0.2969970703125
        },
        {
          "ticks": 7454,
          "time": 6.170529904166667,
          "value": -0.2991943359375
        },
        {
          "ticks": 7461,
          "time": 6.17632460625,
          "value": -0.30126953125
        },
        {
          "ticks": 7469,
          "time": 6.182947122916667,
          "value": -0.303466796875
        },
        {
          "ticks": 7476,
          "time": 6.188741825,
          "value": -0.3055419921875
        },
        {
          "ticks": 7484,
          "time": 6.195364341666667,
          "value": -0.3076171875
        },
        {
          "ticks": 7491,
          "time": 6.20115904375,
          "value": -0.309814453125
        },
        {
          "ticks": 7499,
          "time": 6.207781560416667,
          "value": -0.3118896484375
        },
        {
          "ticks": 7506,
          "time": 6.2135762625,
          "value": -0.3140869140625
        },
        {
          "ticks": 7514,
          "time": 6.220198779166667,
          "value": -0.316162109375
        },
        {
          "ticks": 7521,
          "time": 6.22599348125,
          "value": -0.3182373046875
        },
        {
          "ticks": 7529,
          "time": 6.232615997916667,
          "value": -0.3204345703125
        },
        {
          "ticks": 7536,
          "time": 6.2384107,
          "value": -0.322509765625
        },
        {
          "ticks": 7544,
          "time": 6.245033216666667,
          "value": -0.3245849609375
        },
        {
          "ticks": 7551,
          "time": 6.25082791875,
          "value": -0.3267822265625
        },
        {
          "ticks": 7559,
          "time": 6.257450435416667,
          "value": -0.328857421875
        },
        {
          "ticks": 7566,
          "time": 6.2632451375,
          "value": -0.3310546875
        },
        {
          "ticks": 7574,
          "time": 6.269867654166667,
          "value": -0.3331298828125
        },
        {
          "ticks": 7581,
          "time": 6.27566235625,
          "value": -0.335205078125
        },
        {
          "ticks": 7589,
          "time": 6.282284872916667,
          "value": -0.33740234375
        },
        {
          "ticks": 7596,
          "time": 6.288079575,
          "value": -0.3394775390625
        },
        {
          "ticks": 7604,
          "time": 6.294702091666667,
          "value": -0.3416748046875
        },
        {
          "ticks": 7611,
          "time": 6.30049679375,
          "value": -0.34375
        },
        {
          "ticks": 7619,
          "time": 6.307119310416667,
          "value": -0.3458251953125
        },
        {
          "ticks": 7626,
          "time": 6.3129140125,
          "value": -0.3480224609375
        },
        {
          "ticks": 7634,
          "time": 6.319536529166667,
          "value": -0.35009765625
        },
        {
          "ticks": 7641,
          "time": 6.32533123125,
          "value": -0.3521728515625
        },
        {
          "ticks": 7649,
          "time": 6.331953747916667,
          "value": -0.3543701171875
        },
        {
          "ticks": 7656,
          "time": 6.33774845,
          "value": -0.3564453125
        },
        {
          "ticks": 7664,
          "time": 6.344370966666667,
          "value": -0.358642578125
        },
        {
          "ticks": 7671,
          "time": 6.35016566875,
          "value": -0.3607177734375
        },
        {
          "ticks": 7679,
          "time": 6.356788185416667,
          "value": -0.36279296875
        },
        {
          "ticks": 7686,
          "time": 6.3625828874999995,
          "value": -0.364990234375
        },
        {
          "ticks": 7694,
          "time": 6.369205404166666,
          "value": -0.3670654296875
        },
        {
          "ticks": 7701,
          "time": 6.37500010625,
          "value": -0.3692626953125
        },
        {
          "ticks": 7709,
          "time": 6.381622622916666,
          "value": -0.371337890625
        },
        {
          "ticks": 7716,
          "time": 6.3874173249999995,
          "value": -0.3734130859375
        },
        {
          "ticks": 7724,
          "time": 6.394039841666666,
          "value": -0.3756103515625
        },
        {
          "ticks": 7731,
          "time": 6.39983454375,
          "value": -0.377685546875
        },
        {
          "ticks": 7739,
          "time": 6.406457060416666,
          "value": -0.3797607421875
        },
        {
          "ticks": 7746,
          "time": 6.4122517624999995,
          "value": -0.3819580078125
        },
        {
          "ticks": 7754,
          "time": 6.418874279166666,
          "value": -0.384033203125
        },
        {
          "ticks": 7761,
          "time": 6.42466898125,
          "value": -0.38623046875
        },
        {
          "ticks": 7769,
          "time": 6.431291497916666,
          "value": -0.3883056640625
        },
        {
          "ticks": 7776,
          "time": 6.4370861999999995,
          "value": -0.390380859375
        },
        {
          "ticks": 7784,
          "time": 6.4437087166666664,
          "value": -0.392578125
        },
        {
          "ticks": 7791,
          "time": 6.44950341875,
          "value": -0.3946533203125
        },
        {
          "ticks": 7799,
          "time": 6.456125935416666,
          "value": -0.3968505859375
        },
        {
          "ticks": 7806,
          "time": 6.4619206375,
          "value": -0.39892578125
        },
        {
          "ticks": 7814,
          "time": 6.4685431541666665,
          "value": -0.4010009765625
        },
        {
          "ticks": 7821,
          "time": 6.47433785625,
          "value": -0.4031982421875
        },
        {
          "ticks": 7829,
          "time": 6.480960372916666,
          "value": -0.4052734375
        },
        {
          "ticks": 7836,
          "time": 6.486755075,
          "value": -0.4073486328125
        },
        {
          "ticks": 7844,
          "time": 6.4933775916666665,
          "value": -0.4095458984375
        },
        {
          "ticks": 7851,
          "time": 6.49917229375,
          "value": -0.41162109375
        },
        {
          "ticks": 7859,
          "time": 6.505794810416666,
          "value": -0.413818359375
        },
        {
          "ticks": 7866,
          "time": 6.5115895125,
          "value": -0.4158935546875
        },
        {
          "ticks": 7874,
          "time": 6.5182120291666665,
          "value": -0.41796875
        },
        {
          "ticks": 7881,
          "time": 6.52400673125,
          "value": -0.420166015625
        },
        {
          "ticks": 7889,
          "time": 6.530629247916666,
          "value": -0.4222412109375
        },
        {
          "ticks": 7896,
          "time": 6.53642395,
          "value": -0.4244384765625
        },
        {
          "ticks": 7904,
          "time": 6.543046466666667,
          "value": -0.426513671875
        },
        {
          "ticks": 7911,
          "time": 6.54884116875,
          "value": -0.4285888671875
        },
        {
          "ticks": 7919,
          "time": 6.555463685416666,
          "value": -0.4307861328125
        },
        {
          "ticks": 7926,
          "time": 6.5612583875,
          "value": -0.432861328125
        },
        {
          "ticks": 7934,
          "time": 6.567880904166667,
          "value": -0.4349365234375
        },
        {
          "ticks": 7941,
          "time": 6.57367560625,
          "value": -0.4371337890625
        },
        {
          "ticks": 7949,
          "time": 6.580298122916666,
          "value": -0.439208984375
        },
        {
          "ticks": 7956,
          "time": 6.586092825,
          "value": -0.44140625
        },
        {
          "ticks": 7964,
          "time": 6.592715341666666,
          "value": -0.4434814453125
        },
        {
          "ticks": 7971,
          "time": 6.59851004375,
          "value": -0.445556640625
        },
        {
          "ticks": 7979,
          "time": 6.605132560416666,
          "value": -0.44775390625
        },
        {
          "ticks": 7986,
          "time": 6.6109272625,
          "value": -0.4498291015625
        },
        {
          "ticks": 7994,
          "time": 6.617549779166666,
          "value": -0.4520263671875
        },
        {
          "ticks": 8001,
          "time": 6.62334448125,
          "value": -0.4541015625
        },
        {
          "ticks": 8009,
          "time": 6.629966997916666,
          "value": -0.4561767578125
        },
        {
          "ticks": 8016,
          "time": 6.6357617,
          "value": -0.4583740234375
        },
        {
          "ticks": 8024,
          "time": 6.642384216666666,
          "value": -0.46044921875
        },
        {
          "ticks": 8031,
          "time": 6.64817891875,
          "value": -0.4625244140625
        },
        {
          "ticks": 8039,
          "time": 6.654801435416666,
          "value": -0.4647216796875
        },
        {
          "ticks": 8046,
          "time": 6.6605961375,
          "value": -0.466796875
        },
        {
          "ticks": 8054,
          "time": 6.667218654166666,
          "value": -0.468994140625
        },
        {
          "ticks": 8061,
          "time": 6.67301335625,
          "value": -0.4710693359375
        },
        {
          "ticks": 8069,
          "time": 6.679635872916666,
          "value": -0.47314453125
        },
        {
          "ticks": 8076,
          "time": 6.685430575,
          "value": -0.475341796875
        },
        {
          "ticks": 8084,
          "time": 6.692053091666666,
          "value": -0.4774169921875
        },
        {
          "ticks": 8091,
          "time": 6.69784779375,
          "value": -0.4796142578125
        },
        {
          "ticks": 8099,
          "time": 6.704470310416666,
          "value": -0.481689453125
        },
        {
          "ticks": 8106,
          "time": 6.7102650125,
          "value": -0.4837646484375
        },
        {
          "ticks": 8114,
          "time": 6.716887529166666,
          "value": -0.4859619140625
        },
        {
          "ticks": 8121,
          "time": 6.72268223125,
          "value": -0.488037109375
        },
        {
          "ticks": 8129,
          "time": 6.729304747916666,
          "value": -0.4901123046875
        },
        {
          "ticks": 8136,
          "time": 6.73509945,
          "value": -0.4923095703125
        },
        {
          "ticks": 8144,
          "time": 6.741721966666666,
          "value": -0.494384765625
        },
        {
          "ticks": 8151,
          "time": 6.7475166687499994,
          "value": -0.49658203125
        },
        {
          "ticks": 8159,
          "time": 6.754139185416666,
          "value": -0.4986572265625
        },
        {
          "ticks": 8166,
          "time": 6.7599338875,
          "value": -0.500732421875
        },
        {
          "ticks": 8174,
          "time": 6.766556404166666,
          "value": -0.5029296875
        },
        {
          "ticks": 8181,
          "time": 6.7723511062499995,
          "value": -0.5050048828125
        },
        {
          "ticks": 8189,
          "time": 6.778973622916666,
          "value": -0.5072021484375
        },
        {
          "ticks": 8196,
          "time": 6.784768325,
          "value": -0.50927734375
        },
        {
          "ticks": 8204,
          "time": 6.791390841666666,
          "value": -0.5113525390625
        },
        {
          "ticks": 8211,
          "time": 6.7971855437499995,
          "value": -0.5135498046875
        },
        {
          "ticks": 8219,
          "time": 6.803808060416666,
          "value": -0.515625
        },
        {
          "ticks": 8226,
          "time": 6.8096027625,
          "value": -0.5177001953125
        },
        {
          "ticks": 8234,
          "time": 6.816225279166666,
          "value": -0.5198974609375
        },
        {
          "ticks": 8241,
          "time": 6.8220199812499995,
          "value": -0.52197265625
        },
        {
          "ticks": 8249,
          "time": 6.828642497916666,
          "value": -0.524169921875
        },
        {
          "ticks": 8256,
          "time": 6.8344372,
          "value": -0.5262451171875
        },
        {
          "ticks": 8264,
          "time": 6.841059716666666,
          "value": -0.5283203125
        },
        {
          "ticks": 8271,
          "time": 6.84685441875,
          "value": -0.530517578125
        },
        {
          "ticks": 8279,
          "time": 6.8534769354166665,
          "value": -0.5325927734375
        },
        {
          "ticks": 8286,
          "time": 6.8592716375,
          "value": -0.5347900390625
        },
        {
          "ticks": 8294,
          "time": 6.865894154166666,
          "value": -0.536865234375
        },
        {
          "ticks": 8301,
          "time": 6.87168885625,
          "value": -0.5389404296875
        },
        {
          "ticks": 8309,
          "time": 6.8783113729166665,
          "value": -0.5411376953125
        },
        {
          "ticks": 8316,
          "time": 6.884106075,
          "value": -0.543212890625
        },
        {
          "ticks": 8324,
          "time": 6.890728591666666,
          "value": -0.5452880859375
        },
        {
          "ticks": 8331,
          "time": 6.89652329375,
          "value": -0.5474853515625
        },
        {
          "ticks": 8339,
          "time": 6.9031458104166665,
          "value": -0.549560546875
        },
        {
          "ticks": 8346,
          "time": 6.9089405125,
          "value": -0.5517578125
        },
        {
          "ticks": 8354,
          "time": 6.915563029166666,
          "value": -0.5538330078125
        },
        {
          "ticks": 8361,
          "time": 6.92135773125,
          "value": -0.555908203125
        },
        {
          "ticks": 8369,
          "time": 6.927980247916667,
          "value": -0.55810546875
        },
        {
          "ticks": 8376,
          "time": 6.93377495,
          "value": -0.5601806640625
        },
        {
          "ticks": 8384,
          "time": 6.940397466666666,
          "value": -0.5623779296875
        },
        {
          "ticks": 8391,
          "time": 6.94619216875,
          "value": -0.564453125
        },
        {
          "ticks": 8399,
          "time": 6.952814685416667,
          "value": -0.5665283203125
        },
        {
          "ticks": 8406,
          "time": 6.9586093875,
          "value": -0.5687255859375
        },
        {
          "ticks": 8414,
          "time": 6.965231904166666,
          "value": -0.57080078125
        },
        {
          "ticks": 8421,
          "time": 6.97102660625,
          "value": -0.5728759765625
        },
        {
          "ticks": 8429,
          "time": 6.977649122916667,
          "value": -0.5750732421875
        },
        {
          "ticks": 8436,
          "time": 6.983443825,
          "value": -0.5771484375
        },
        {
          "ticks": 8444,
          "time": 6.990066341666666,
          "value": -0.579345703125
        },
        {
          "ticks": 8451,
          "time": 6.99586104375,
          "value": -0.5814208984375
        },
        {
          "ticks": 8459,
          "time": 7.002483560416666,
          "value": -0.58349609375
        },
        {
          "ticks": 8466,
          "time": 7.0082782625,
          "value": -0.585693359375
        },
        {
          "ticks": 8474,
          "time": 7.014900779166666,
          "value": -0.5877685546875
        },
        {
          "ticks": 8481,
          "time": 7.02069548125,
          "value": -0.5899658203125
        },
        {
          "ticks": 8489,
          "time": 7.027317997916666,
          "value": -0.592041015625
        },
        {
          "ticks": 8496,
          "time": 7.0331127,
          "value": -0.5941162109375
        },
        {
          "ticks": 8504,
          "time": 7.039735216666666,
          "value": -0.5963134765625
        },
        {
          "ticks": 8511,
          "time": 7.04552991875,
          "value": -0.598388671875
        },
        {
          "ticks": 8519,
          "time": 7.052152435416666,
          "value": -0.6005859375
        },
        {
          "ticks": 8526,
          "time": 7.0579471375,
          "value": -0.6026611328125
        },
        {
          "ticks": 8534,
          "time": 7.064569654166666,
          "value": -0.604736328125
        },
        {
          "ticks": 8541,
          "time": 7.07036435625,
          "value": -0.60693359375
        },
        {
          "ticks": 8549,
          "time": 7.076986872916666,
          "value": -0.6090087890625
        },
        {
          "ticks": 8556,
          "time": 7.082781575,
          "value": -0.611083984375
        },
        {
          "ticks": 8564,
          "time": 7.089404091666666,
          "value": -0.61328125
        },
        {
          "ticks": 8571,
          "time": 7.09519879375,
          "value": -0.6153564453125
        },
        {
          "ticks": 8579,
          "time": 7.101821310416666,
          "value": -0.6175537109375
        },
        {
          "ticks": 8586,
          "time": 7.1076160125,
          "value": -0.61962890625
        },
        {
          "ticks": 8594,
          "time": 7.114238529166666,
          "value": -0.6217041015625
        },
        {
          "ticks": 8601,
          "time": 7.12003323125,
          "value": -0.6239013671875
        },
        {
          "ticks": 8609,
          "time": 7.126655747916666,
          "value": -0.6259765625
        },
        {
          "ticks": 8616,
          "time": 7.13245045,
          "value": -0.628173828125
        },
        {
          "ticks": 8624,
          "time": 7.139072966666666,
          "value": -0.6302490234375
        },
        {
          "ticks": 8631,
          "time": 7.14486766875,
          "value": -0.63232421875
        },
        {
          "ticks": 8639,
          "time": 7.151490185416666,
          "value": -0.634521484375
        },
        {
          "ticks": 8646,
          "time": 7.1572848874999995,
          "value": -0.6365966796875
        },
        {
          "ticks": 8654,
          "time": 7.163907404166666,
          "value": -0.638671875
        },
        {
          "ticks": 8660,
          "time": 7.1688742916666675,
          "value": -0.640625
        },
        {
          "ticks": 8668,
          "time": 7.1754968083333335,
          "value": -0.60888671875
        },
        {
          "ticks": 8675,
          "time": 7.181291510416667,
          "value": -0.5771484375
        },
        {
          "ticks": 8683,
          "time": 7.187914027083334,
          "value": -0.54541015625
        },
        {
          "ticks": 8690,
          "time": 7.1937087291666675,
          "value": -0.513671875
        },
        {
          "ticks": 8698,
          "time": 7.2003312458333335,
          "value": -0.48193359375
        },
        {
          "ticks": 8705,
          "time": 7.206125947916667,
          "value": -0.4501953125
        },
        {
          "ticks": 8708,
          "time": 7.208609391666666,
          "value": -0.4375
        },
        {
          "ticks": 8716,
          "time": 7.215231908333334,
          "value": -0.369140625
        },
        {
          "ticks": 8723,
          "time": 7.221026610416667,
          "value": -0.30078125
        },
        {
          "ticks": 8731,
          "time": 7.2276491270833345,
          "value": -0.232421875
        },
        {
          "ticks": 8732,
          "time": 7.228476941666667,
          "value": -0.21875
        },
        {
          "ticks": 8740,
          "time": 7.235099458333333,
          "value": -0.1978759765625
        },
        {
          "ticks": 8747,
          "time": 7.240894160416667,
          "value": -0.177001953125
        },
        {
          "ticks": 8755,
          "time": 7.2475166770833335,
          "value": -0.156005859375
        },
        {
          "ticks": 8760,
          "time": 7.25165575,
          "value": -0.140625
        },
        {
          "ticks": 8768,
          "time": 7.258278266666666,
          "value": -0.111328125
        },
        {
          "ticks": 8775,
          "time": 7.26407296875,
          "value": -0.08203125
        },
        {
          "ticks": 8783,
          "time": 7.270695485416667,
          "value": -0.052734375
        },
        {
          "ticks": 8790,
          "time": 7.2764901875,
          "value": -0.0234375
        },
        {
          "ticks": 8796,
          "time": 7.281457075,
          "value": 0
        },
        {
          "ticks": 8804,
          "time": 7.2880795916666665,
          "value": -0.001220703125
        },
        {
          "ticks": 8811,
          "time": 7.29387429375,
          "value": -0.0025634765625
        },
        {
          "ticks": 8819,
          "time": 7.300496810416666,
          "value": -0.0037841796875
        },
        {
          "ticks": 8826,
          "time": 7.3062915125,
          "value": -0.005126953125
        },
        {
          "ticks": 8834,
          "time": 7.3129140291666666,
          "value": -0.0064697265625
        },
        {
          "ticks": 8841,
          "time": 7.31870873125,
          "value": -0.0076904296875
        },
        {
          "ticks": 8849,
          "time": 7.325331247916666,
          "value": -0.009033203125
        },
        {
          "ticks": 8856,
          "time": 7.33112595,
          "value": -0.0103759765625
        },
        {
          "ticks": 8864,
          "time": 7.337748466666667,
          "value": -0.0115966796875
        },
        {
          "ticks": 8871,
          "time": 7.34354316875,
          "value": -0.012939453125
        },
        {
          "ticks": 8879,
          "time": 7.350165685416666,
          "value": -0.01416015625
        },
        {
          "ticks": 8886,
          "time": 7.3559603875,
          "value": -0.0155029296875
        },
        {
          "ticks": 8894,
          "time": 7.362582904166667,
          "value": -0.016845703125
        },
        {
          "ticks": 8901,
          "time": 7.36837760625,
          "value": -0.01806640625
        },
        {
          "ticks": 8909,
          "time": 7.375000122916666,
          "value": -0.0194091796875
        },
        {
          "ticks": 8916,
          "time": 7.380794825,
          "value": -0.020751953125
        },
        {
          "ticks": 8924,
          "time": 7.387417341666666,
          "value": -0.02197265625
        },
        {
          "ticks": 8931,
          "time": 7.39321204375,
          "value": -0.0233154296875
        },
        {
          "ticks": 8939,
          "time": 7.399834560416666,
          "value": -0.0245361328125
        },
        {
          "ticks": 8946,
          "time": 7.4056292625,
          "value": -0.02587890625
        },
        {
          "ticks": 8954,
          "time": 7.412251779166666,
          "value": -0.0272216796875
        },
        {
          "ticks": 8961,
          "time": 7.41804648125,
          "value": -0.0284423828125
        },
        {
          "ticks": 8969,
          "time": 7.424668997916666,
          "value": -0.02978515625
        },
        {
          "ticks": 8976,
          "time": 7.4304637,
          "value": -0.0311279296875
        },
        {
          "ticks": 8984,
          "time": 7.437086216666666,
          "value": -0.0323486328125
        },
        {
          "ticks": 8991,
          "time": 7.44288091875,
          "value": -0.03369140625
        },
        {
          "ticks": 8999,
          "time": 7.449503435416666,
          "value": -0.034912109375
        },
        {
          "ticks": 9006,
          "time": 7.4552981375,
          "value": -0.0362548828125
        },
        {
          "ticks": 9014,
          "time": 7.461920654166666,
          "value": -0.03759765625
        },
        {
          "ticks": 9021,
          "time": 7.46771535625,
          "value": -0.038818359375
        },
        {
          "ticks": 9029,
          "time": 7.474337872916666,
          "value": -0.0401611328125
        },
        {
          "ticks": 9036,
          "time": 7.480132575,
          "value": -0.04150390625
        },
        {
          "ticks": 9044,
          "time": 7.486755091666666,
          "value": -0.042724609375
        },
        {
          "ticks": 9051,
          "time": 7.49254979375,
          "value": -0.0440673828125
        },
        {
          "ticks": 9059,
          "time": 7.499172310416666,
          "value": -0.0452880859375
        },
        {
          "ticks": 9066,
          "time": 7.5049670125,
          "value": -0.046630859375
        },
        {
          "ticks": 9074,
          "time": 7.511589529166666,
          "value": -0.0479736328125
        },
        {
          "ticks": 9081,
          "time": 7.51738423125,
          "value": -0.0491943359375
        },
        {
          "ticks": 9089,
          "time": 7.524006747916666,
          "value": -0.050537109375
        },
        {
          "ticks": 9096,
          "time": 7.52980145,
          "value": -0.0518798828125
        },
        {
          "ticks": 9104,
          "time": 7.536423966666666,
          "value": -0.0531005859375
        },
        {
          "ticks": 9111,
          "time": 7.5422186687499995,
          "value": -0.054443359375
        },
        {
          "ticks": 9119,
          "time": 7.548841185416666,
          "value": -0.0556640625
        },
        {
          "ticks": 9126,
          "time": 7.5546358875,
          "value": -0.0570068359375
        },
        {
          "ticks": 9134,
          "time": 7.561258404166666,
          "value": -0.058349609375
        },
        {
          "ticks": 9141,
          "time": 7.5670531062499995,
          "value": -0.0595703125
        },
        {
          "ticks": 9149,
          "time": 7.573675622916666,
          "value": -0.0609130859375
        },
        {
          "ticks": 9156,
          "time": 7.579470325,
          "value": -0.062255859375
        },
        {
          "ticks": 9164,
          "time": 7.586092841666666,
          "value": -0.0634765625
        },
        {
          "ticks": 9171,
          "time": 7.5918875437499995,
          "value": -0.0648193359375
        },
        {
          "ticks": 9179,
          "time": 7.598510060416666,
          "value": -0.0660400390625
        },
        {
          "ticks": 9186,
          "time": 7.6043047625,
          "value": -0.0673828125
        },
        {
          "ticks": 9194,
          "time": 7.610927279166666,
          "value": -0.0687255859375
        },
        {
          "ticks": 9201,
          "time": 7.6167219812499996,
          "value": -0.0699462890625
        },
        {
          "ticks": 9209,
          "time": 7.6233444979166665,
          "value": -0.0712890625
        },
        {
          "ticks": 9216,
          "time": 7.6291392,
          "value": -0.0726318359375
        },
        {
          "ticks": 9224,
          "time": 7.635761716666666,
          "value": -0.0738525390625
        },
        {
          "ticks": 9231,
          "time": 7.64155641875,
          "value": -0.0751953125
        },
        {
          "ticks": 9239,
          "time": 7.6481789354166665,
          "value": -0.076416015625
        },
        {
          "ticks": 9246,
          "time": 7.6539736375,
          "value": -0.0777587890625
        },
        {
          "ticks": 9254,
          "time": 7.660596154166666,
          "value": -0.0791015625
        },
        {
          "ticks": 9261,
          "time": 7.66639085625,
          "value": -0.080322265625
        },
        {
          "ticks": 9269,
          "time": 7.6730133729166665,
          "value": -0.0816650390625
        },
        {
          "ticks": 9276,
          "time": 7.678808075,
          "value": -0.0830078125
        },
        {
          "ticks": 9284,
          "time": 7.685430591666666,
          "value": -0.084228515625
        },
        {
          "ticks": 9291,
          "time": 7.69122529375,
          "value": -0.0855712890625
        },
        {
          "ticks": 9299,
          "time": 7.6978478104166665,
          "value": -0.0867919921875
        },
        {
          "ticks": 9306,
          "time": 7.7036425125,
          "value": -0.088134765625
        },
        {
          "ticks": 9314,
          "time": 7.710265029166666,
          "value": -0.0894775390625
        },
        {
          "ticks": 9321,
          "time": 7.71605973125,
          "value": -0.0906982421875
        },
        {
          "ticks": 9329,
          "time": 7.722682247916667,
          "value": -0.092041015625
        },
        {
          "ticks": 9336,
          "time": 7.72847695,
          "value": -0.0933837890625
        },
        {
          "ticks": 9344,
          "time": 7.735099466666666,
          "value": -0.0946044921875
        },
        {
          "ticks": 9351,
          "time": 7.74089416875,
          "value": -0.095947265625
        },
        {
          "ticks": 9359,
          "time": 7.747516685416667,
          "value": -0.09716796875
        },
        {
          "ticks": 9366,
          "time": 7.7533113875,
          "value": -0.0985107421875
        },
        {
          "ticks": 9374,
          "time": 7.759933904166666,
          "value": -0.099853515625
        },
        {
          "ticks": 9381,
          "time": 7.76572860625,
          "value": -0.10107421875
        },
        {
          "ticks": 9389,
          "time": 7.772351122916667,
          "value": -0.1024169921875
        },
        {
          "ticks": 9396,
          "time": 7.778145825,
          "value": -0.103759765625
        },
        {
          "ticks": 9404,
          "time": 7.784768341666666,
          "value": -0.10498046875
        },
        {
          "ticks": 9411,
          "time": 7.79056304375,
          "value": -0.1063232421875
        },
        {
          "ticks": 9419,
          "time": 7.797185560416666,
          "value": -0.1075439453125
        },
        {
          "ticks": 9426,
          "time": 7.8029802625,
          "value": -0.10888671875
        },
        {
          "ticks": 9434,
          "time": 7.809602779166666,
          "value": -0.1102294921875
        },
        {
          "ticks": 9441,
          "time": 7.81539748125,
          "value": -0.1114501953125
        },
        {
          "ticks": 9449,
          "time": 7.822019997916666,
          "value": -0.11279296875
        },
        {
          "ticks": 9456,
          "time": 7.8278147,
          "value": -0.1141357421875
        },
        {
          "ticks": 9464,
          "time": 7.834437216666666,
          "value": -0.1153564453125
        },
        {
          "ticks": 9471,
          "time": 7.84023191875,
          "value": -0.11669921875
        },
        {
          "ticks": 9479,
          "time": 7.846854435416666,
          "value": -0.117919921875
        },
        {
          "ticks": 9486,
          "time": 7.8526491375,
          "value": -0.1192626953125
        },
        {
          "ticks": 9494,
          "time": 7.859271654166666,
          "value": -0.12060546875
        },
        {
          "ticks": 9501,
          "time": 7.86506635625,
          "value": -0.121826171875
        },
        {
          "ticks": 9509,
          "time": 7.871688872916666,
          "value": -0.1231689453125
        },
        {
          "ticks": 9516,
          "time": 7.877483575,
          "value": -0.12451171875
        },
        {
          "ticks": 9524,
          "time": 7.884106091666666,
          "value": -0.125732421875
        },
        {
          "ticks": 9531,
          "time": 7.88990079375,
          "value": -0.1270751953125
        },
        {
          "ticks": 9539,
          "time": 7.896523310416666,
          "value": -0.12841796875
        },
        {
          "ticks": 9546,
          "time": 7.9023180125,
          "value": -0.129638671875
        },
        {
          "ticks": 9554,
          "time": 7.908940529166666,
          "value": -0.1309814453125
        },
        {
          "ticks": 9561,
          "time": 7.91473523125,
          "value": -0.1322021484375
        },
        {
          "ticks": 9569,
          "time": 7.921357747916666,
          "value": -0.133544921875
        },
        {
          "ticks": 9576,
          "time": 7.92715245,
          "value": -0.1348876953125
        },
        {
          "ticks": 9584,
          "time": 7.933774966666666,
          "value": -0.1361083984375
        },
        {
          "ticks": 9591,
          "time": 7.93956966875,
          "value": -0.137451171875
        },
        {
          "ticks": 9599,
          "time": 7.946192185416666,
          "value": -0.1387939453125
        },
        {
          "ticks": 9606,
          "time": 7.9519868874999995,
          "value": -0.1400146484375
        },
        {
          "ticks": 9614,
          "time": 7.958609404166666,
          "value": -0.141357421875
        },
        {
          "ticks": 9621,
          "time": 7.96440410625,
          "value": -0.142578125
        },
        {
          "ticks": 9629,
          "time": 7.971026622916666,
          "value": -0.1439208984375
        },
        {
          "ticks": 9636,
          "time": 7.9768213249999995,
          "value": -0.145263671875
        },
        {
          "ticks": 9644,
          "time": 7.983443841666666,
          "value": -0.146484375
        },
        {
          "ticks": 9651,
          "time": 7.98923854375,
          "value": -0.1478271484375
        },
        {
          "ticks": 9659,
          "time": 7.995861060416666,
          "value": -0.149169921875
        },
        {
          "ticks": 9666,
          "time": 8.0016557625,
          "value": -0.150390625
        },
        {
          "ticks": 9674,
          "time": 8.008278279166666,
          "value": -0.1517333984375
        },
        {
          "ticks": 9681,
          "time": 8.01407298125,
          "value": -0.1529541015625
        },
        {
          "ticks": 9689,
          "time": 8.020695497916666,
          "value": -0.154296875
        },
        {
          "ticks": 9696,
          "time": 8.0264902,
          "value": -0.1556396484375
        },
        {
          "ticks": 9704,
          "time": 8.033112716666666,
          "value": -0.1568603515625
        },
        {
          "ticks": 9711,
          "time": 8.03890741875,
          "value": -0.158203125
        },
        {
          "ticks": 9719,
          "time": 8.045529935416667,
          "value": -0.1595458984375
        },
        {
          "ticks": 9726,
          "time": 8.0513246375,
          "value": -0.1607666015625
        },
        {
          "ticks": 9734,
          "time": 8.057947154166666,
          "value": -0.162109375
        },
        {
          "ticks": 9741,
          "time": 8.06374185625,
          "value": -0.163330078125
        },
        {
          "ticks": 9749,
          "time": 8.070364372916666,
          "value": -0.1646728515625
        },
        {
          "ticks": 9756,
          "time": 8.076159075,
          "value": -0.166015625
        },
        {
          "ticks": 9764,
          "time": 8.082781591666667,
          "value": -0.167236328125
        },
        {
          "ticks": 9771,
          "time": 8.08857629375,
          "value": -0.1685791015625
        },
        {
          "ticks": 9779,
          "time": 8.095198810416667,
          "value": -0.169921875
        },
        {
          "ticks": 9786,
          "time": 8.1009935125,
          "value": -0.171142578125
        },
        {
          "ticks": 9794,
          "time": 8.107616029166666,
          "value": -0.1724853515625
        },
        {
          "ticks": 9801,
          "time": 8.11341073125,
          "value": -0.1737060546875
        },
        {
          "ticks": 9809,
          "time": 8.120033247916666,
          "value": -0.175048828125
        },
        {
          "ticks": 9816,
          "time": 8.12582795,
          "value": -0.1763916015625
        },
        {
          "ticks": 9824,
          "time": 8.132450466666667,
          "value": -0.1776123046875
        },
        {
          "ticks": 9831,
          "time": 8.13824516875,
          "value": -0.178955078125
        },
        {
          "ticks": 9839,
          "time": 8.144867685416667,
          "value": -0.1802978515625
        },
        {
          "ticks": 9846,
          "time": 8.1506623875,
          "value": -0.1815185546875
        },
        {
          "ticks": 9854,
          "time": 8.157284904166666,
          "value": -0.182861328125
        },
        {
          "ticks": 9861,
          "time": 8.16307960625,
          "value": -0.18408203125
        },
        {
          "ticks": 9869,
          "time": 8.169702122916666,
          "value": -0.1854248046875
        },
        {
          "ticks": 9876,
          "time": 8.175496825,
          "value": -0.186767578125
        },
        {
          "ticks": 9884,
          "time": 8.182119341666667,
          "value": -0.18798828125
        },
        {
          "ticks": 9891,
          "time": 8.18791404375,
          "value": -0.1893310546875
        },
        {
          "ticks": 9899,
          "time": 8.194536560416665,
          "value": -0.190673828125
        },
        {
          "ticks": 9906,
          "time": 8.2003312625,
          "value": -0.19189453125
        },
        {
          "ticks": 9914,
          "time": 8.206953779166666,
          "value": -0.1932373046875
        },
        {
          "ticks": 9921,
          "time": 8.21274848125,
          "value": -0.1944580078125
        },
        {
          "ticks": 9929,
          "time": 8.219370997916666,
          "value": -0.19580078125
        },
        {
          "ticks": 9936,
          "time": 8.2251657,
          "value": -0.1971435546875
        },
        {
          "ticks": 9944,
          "time": 8.231788216666667,
          "value": -0.1983642578125
        },
        {
          "ticks": 9951,
          "time": 8.23758291875,
          "value": -0.19970703125
        },
        {
          "ticks": 9959,
          "time": 8.244205435416665,
          "value": -0.2010498046875
        },
        {
          "ticks": 9966,
          "time": 8.2500001375,
          "value": -0.2022705078125
        },
        {
          "ticks": 9974,
          "time": 8.256622654166666,
          "value": -0.20361328125
        },
        {
          "ticks": 9981,
          "time": 8.26241735625,
          "value": -0.204833984375
        },
        {
          "ticks": 9989,
          "time": 8.269039872916666,
          "value": -0.2061767578125
        },
        {
          "ticks": 9996,
          "time": 8.274834575,
          "value": -0.20751953125
        },
        {
          "ticks": 10004,
          "time": 8.281457091666667,
          "value": -0.208740234375
        },
        {
          "ticks": 10011,
          "time": 8.28725179375,
          "value": -0.2100830078125
        },
        {
          "ticks": 10019,
          "time": 8.293874310416665,
          "value": -0.21142578125
        },
        {
          "ticks": 10026,
          "time": 8.2996690125,
          "value": -0.212646484375
        },
        {
          "ticks": 10034,
          "time": 8.306291529166666,
          "value": -0.2139892578125
        },
        {
          "ticks": 10041,
          "time": 8.31208623125,
          "value": -0.2152099609375
        },
        {
          "ticks": 10049,
          "time": 8.318708747916666,
          "value": -0.216552734375
        },
        {
          "ticks": 10056,
          "time": 8.32450345,
          "value": -0.2178955078125
        },
        {
          "ticks": 10064,
          "time": 8.331125966666667,
          "value": -0.2191162109375
        },
        {
          "ticks": 10071,
          "time": 8.33692066875,
          "value": -0.220458984375
        },
        {
          "ticks": 10079,
          "time": 8.343543185416666,
          "value": -0.2218017578125
        },
        {
          "ticks": 10086,
          "time": 8.349337887499999,
          "value": -0.2230224609375
        },
        {
          "ticks": 10094,
          "time": 8.355960404166666,
          "value": -0.224365234375
        },
        {
          "ticks": 10101,
          "time": 8.36175510625,
          "value": -0.2255859375
        },
        {
          "ticks": 10109,
          "time": 8.368377622916666,
          "value": -0.2269287109375
        },
        {
          "ticks": 10116,
          "time": 8.374172325,
          "value": -0.228271484375
        },
        {
          "ticks": 10124,
          "time": 8.380794841666667,
          "value": -0.2294921875
        },
        {
          "ticks": 10131,
          "time": 8.38658954375,
          "value": -0.2308349609375
        },
        {
          "ticks": 10139,
          "time": 8.393212060416666,
          "value": -0.232177734375
        },
        {
          "ticks": 10146,
          "time": 8.3990067625,
          "value": -0.2333984375
        },
        {
          "ticks": 10154,
          "time": 8.405629279166666,
          "value": -0.2347412109375
        },
        {
          "ticks": 10161,
          "time": 8.41142398125,
          "value": -0.2359619140625
        },
        {
          "ticks": 10169,
          "time": 8.418046497916666,
          "value": -0.2373046875
        },
        {
          "ticks": 10176,
          "time": 8.4238412,
          "value": -0.2386474609375
        },
        {
          "ticks": 10184,
          "time": 8.430463716666667,
          "value": -0.2398681640625
        },
        {
          "ticks": 10191,
          "time": 8.43625841875,
          "value": -0.2412109375
        },
        {
          "ticks": 10199,
          "time": 8.442880935416666,
          "value": -0.2425537109375
        },
        {
          "ticks": 10206,
          "time": 8.4486756375,
          "value": -0.2437744140625
        },
        {
          "ticks": 10214,
          "time": 8.455298154166666,
          "value": -0.2451171875
        },
        {
          "ticks": 10221,
          "time": 8.46109285625,
          "value": -0.2464599609375
        },
        {
          "ticks": 10229,
          "time": 8.467715372916667,
          "value": -0.2476806640625
        },
        {
          "ticks": 10236,
          "time": 8.473510075,
          "value": -0.2490234375
        },
        {
          "ticks": 10244,
          "time": 8.480132591666667,
          "value": -0.250244140625
        },
        {
          "ticks": 10251,
          "time": 8.48592729375,
          "value": -0.2515869140625
        },
        {
          "ticks": 10259,
          "time": 8.492549810416666,
          "value": -0.2529296875
        },
        {
          "ticks": 10266,
          "time": 8.4983445125,
          "value": -0.254150390625
        },
        {
          "ticks": 10274,
          "time": 8.504967029166666,
          "value": -0.2554931640625
        },
        {
          "ticks": 10281,
          "time": 8.51076173125,
          "value": -0.2568359375
        },
        {
          "ticks": 10289,
          "time": 8.517384247916667,
          "value": -0.258056640625
        },
        {
          "ticks": 10296,
          "time": 8.52317895,
          "value": -0.2593994140625
        },
        {
          "ticks": 10304,
          "time": 8.529801466666667,
          "value": -0.2606201171875
        },
        {
          "ticks": 10311,
          "time": 8.53559616875,
          "value": -0.261962890625
        },
        {
          "ticks": 10319,
          "time": 8.542218685416666,
          "value": -0.2633056640625
        },
        {
          "ticks": 10326,
          "time": 8.5480133875,
          "value": -0.2645263671875
        },
        {
          "ticks": 10334,
          "time": 8.554635904166666,
          "value": -0.265869140625
        },
        {
          "ticks": 10341,
          "time": 8.56043060625,
          "value": -0.2672119140625
        },
        {
          "ticks": 10349,
          "time": 8.567053122916667,
          "value": -0.2684326171875
        },
        {
          "ticks": 10356,
          "time": 8.572847825,
          "value": -0.269775390625
        },
        {
          "ticks": 10364,
          "time": 8.579470341666665,
          "value": -0.27099609375
        },
        {
          "ticks": 10371,
          "time": 8.58526504375,
          "value": -0.2723388671875
        },
        {
          "ticks": 10379,
          "time": 8.591887560416666,
          "value": -0.273681640625
        },
        {
          "ticks": 10386,
          "time": 8.5976822625,
          "value": -0.27490234375
        },
        {
          "ticks": 10394,
          "time": 8.604304779166666,
          "value": -0.2762451171875
        },
        {
          "ticks": 10401,
          "time": 8.61009948125,
          "value": -0.277587890625
        },
        {
          "ticks": 10409,
          "time": 8.616721997916667,
          "value": -0.27880859375
        },
        {
          "ticks": 10416,
          "time": 8.6225167,
          "value": -0.2801513671875
        },
        {
          "ticks": 10424,
          "time": 8.629139216666665,
          "value": -0.2813720703125
        },
        {
          "ticks": 10431,
          "time": 8.63493391875,
          "value": -0.28271484375
        },
        {
          "ticks": 10439,
          "time": 8.641556435416666,
          "value": -0.2840576171875
        },
        {
          "ticks": 10446,
          "time": 8.6473511375,
          "value": -0.2852783203125
        },
        {
          "ticks": 10454,
          "time": 8.653973654166666,
          "value": -0.28662109375
        },
        {
          "ticks": 10461,
          "time": 8.65976835625,
          "value": -0.2879638671875
        },
        {
          "ticks": 10469,
          "time": 8.666390872916667,
          "value": -0.2891845703125
        },
        {
          "ticks": 10476,
          "time": 8.672185575,
          "value": -0.29052734375
        },
        {
          "ticks": 10484,
          "time": 8.678808091666665,
          "value": -0.291748046875
        },
        {
          "ticks": 10491,
          "time": 8.68460279375,
          "value": -0.2930908203125
        },
        {
          "ticks": 10499,
          "time": 8.691225310416666,
          "value": -0.29443359375
        },
        {
          "ticks": 10506,
          "time": 8.6970200125,
          "value": -0.295654296875
        },
        {
          "ticks": 10514,
          "time": 8.703642529166666,
          "value": -0.2969970703125
        },
        {
          "ticks": 10521,
          "time": 8.70943723125,
          "value": -0.29833984375
        },
        {
          "ticks": 10529,
          "time": 8.716059747916667,
          "value": -0.299560546875
        },
        {
          "ticks": 10536,
          "time": 8.72185445,
          "value": -0.3009033203125
        },
        {
          "ticks": 10544,
          "time": 8.728476966666666,
          "value": -0.3021240234375
        },
        {
          "ticks": 10551,
          "time": 8.734271668749999,
          "value": -0.303466796875
        },
        {
          "ticks": 10559,
          "time": 8.740894185416666,
          "value": -0.3048095703125
        },
        {
          "ticks": 10566,
          "time": 8.7466888875,
          "value": -0.3060302734375
        },
        {
          "ticks": 10574,
          "time": 8.753311404166666,
          "value": -0.307373046875
        },
        {
          "ticks": 10581,
          "time": 8.75910610625,
          "value": -0.3087158203125
        },
        {
          "ticks": 10589,
          "time": 8.765728622916667,
          "value": -0.3099365234375
        },
        {
          "ticks": 10596,
          "time": 8.771523325,
          "value": -0.311279296875
        },
        {
          "ticks": 10604,
          "time": 8.778145841666666,
          "value": -0.3125
        },
        {
          "ticks": 10611,
          "time": 8.783940543749999,
          "value": -0.3138427734375
        },
        {
          "ticks": 10619,
          "time": 8.790563060416666,
          "value": -0.315185546875
        },
        {
          "ticks": 10626,
          "time": 8.7963577625,
          "value": -0.31640625
        },
        {
          "ticks": 10634,
          "time": 8.802980279166666,
          "value": -0.3177490234375
        },
        {
          "ticks": 10641,
          "time": 8.80877498125,
          "value": -0.319091796875
        },
        {
          "ticks": 10649,
          "time": 8.815397497916667,
          "value": -0.3203125
        },
        {
          "ticks": 10656,
          "time": 8.8211922,
          "value": -0.3216552734375
        },
        {
          "ticks": 10664,
          "time": 8.827814716666666,
          "value": -0.3228759765625
        },
        {
          "ticks": 10671,
          "time": 8.83360941875,
          "value": -0.32421875
        },
        {
          "ticks": 10679,
          "time": 8.840231935416666,
          "value": -0.3255615234375
        },
        {
          "ticks": 10686,
          "time": 8.8460266375,
          "value": -0.3267822265625
        },
        {
          "ticks": 10694,
          "time": 8.852649154166667,
          "value": -0.328125
        },
        {
          "ticks": 10701,
          "time": 8.85844385625,
          "value": -0.3294677734375
        },
        {
          "ticks": 10709,
          "time": 8.865066372916667,
          "value": -0.3306884765625
        },
        {
          "ticks": 10716,
          "time": 8.870861075,
          "value": -0.33203125
        },
        {
          "ticks": 10724,
          "time": 8.877483591666666,
          "value": -0.333251953125
        },
        {
          "ticks": 10731,
          "time": 8.88327829375,
          "value": -0.3345947265625
        },
        {
          "ticks": 10739,
          "time": 8.889900810416666,
          "value": -0.3359375
        },
        {
          "ticks": 10746,
          "time": 8.8956955125,
          "value": -0.337158203125
        },
        {
          "ticks": 10754,
          "time": 8.902318029166667,
          "value": -0.3385009765625
        },
        {
          "ticks": 10761,
          "time": 8.90811273125,
          "value": -0.33984375
        },
        {
          "ticks": 10769,
          "time": 8.914735247916667,
          "value": -0.341064453125
        },
        {
          "ticks": 10776,
          "time": 8.92052995,
          "value": -0.3424072265625
        },
        {
          "ticks": 10784,
          "time": 8.927152466666666,
          "value": -0.3436279296875
        },
        {
          "ticks": 10791,
          "time": 8.93294716875,
          "value": -0.344970703125
        },
        {
          "ticks": 10799,
          "time": 8.939569685416666,
          "value": -0.3463134765625
        },
        {
          "ticks": 10806,
          "time": 8.9453643875,
          "value": -0.3475341796875
        },
        {
          "ticks": 10814,
          "time": 8.951986904166667,
          "value": -0.348876953125
        },
        {
          "ticks": 10821,
          "time": 8.95778160625,
          "value": -0.3502197265625
        },
        {
          "ticks": 10829,
          "time": 8.964404122916667,
          "value": -0.3514404296875
        },
        {
          "ticks": 10836,
          "time": 8.970198825,
          "value": -0.352783203125
        },
        {
          "ticks": 10844,
          "time": 8.976821341666666,
          "value": -0.35400390625
        },
        {
          "ticks": 10851,
          "time": 8.98261604375,
          "value": -0.3553466796875
        },
        {
          "ticks": 10859,
          "time": 8.989238560416666,
          "value": -0.356689453125
        },
        {
          "ticks": 10866,
          "time": 8.9950332625,
          "value": -0.35791015625
        },
        {
          "ticks": 10874,
          "time": 9.001655779166667,
          "value": -0.3592529296875
        },
        {
          "ticks": 10881,
          "time": 9.00745048125,
          "value": -0.360595703125
        },
        {
          "ticks": 10889,
          "time": 9.014072997916665,
          "value": -0.36181640625
        },
        {
          "ticks": 10896,
          "time": 9.0198677,
          "value": -0.3631591796875
        },
        {
          "ticks": 10904,
          "time": 9.026490216666666,
          "value": -0.364501953125
        },
        {
          "ticks": 10911,
          "time": 9.03228491875,
          "value": -0.36572265625
        },
        {
          "ticks": 10919,
          "time": 9.038907435416666,
          "value": -0.3670654296875
        },
        {
          "ticks": 10926,
          "time": 9.0447021375,
          "value": -0.3682861328125
        },
        {
          "ticks": 10934,
          "time": 9.051324654166667,
          "value": -0.36962890625
        },
        {
          "ticks": 10941,
          "time": 9.05711935625,
          "value": -0.3709716796875
        },
        {
          "ticks": 10949,
          "time": 9.063741872916665,
          "value": -0.3721923828125
        },
        {
          "ticks": 10956,
          "time": 9.069536575,
          "value": -0.37353515625
        },
        {
          "ticks": 10964,
          "time": 9.076159091666666,
          "value": -0.3748779296875
        },
        {
          "ticks": 10971,
          "time": 9.08195379375,
          "value": -0.3760986328125
        },
        {
          "ticks": 10979,
          "time": 9.088576310416666,
          "value": -0.37744140625
        },
        {
          "ticks": 10986,
          "time": 9.0943710125,
          "value": -0.378662109375
        },
        {
          "ticks": 10994,
          "time": 9.100993529166667,
          "value": -0.3800048828125
        },
        {
          "ticks": 11001,
          "time": 9.10678823125,
          "value": -0.38134765625
        },
        {
          "ticks": 11009,
          "time": 9.113410747916665,
          "value": -0.382568359375
        },
        {
          "ticks": 11016,
          "time": 9.11920545,
          "value": -0.3839111328125
        },
        {
          "ticks": 11024,
          "time": 9.125827966666666,
          "value": -0.38525390625
        },
        {
          "ticks": 11031,
          "time": 9.13162266875,
          "value": -0.386474609375
        },
        {
          "ticks": 11039,
          "time": 9.138245185416666,
          "value": -0.3878173828125
        },
        {
          "ticks": 11046,
          "time": 9.1440398875,
          "value": -0.3890380859375
        },
        {
          "ticks": 11054,
          "time": 9.150662404166667,
          "value": -0.390380859375
        },
        {
          "ticks": 11061,
          "time": 9.15645710625,
          "value": -0.3917236328125
        },
        {
          "ticks": 11069,
          "time": 9.163079622916666,
          "value": -0.3929443359375
        },
        {
          "ticks": 11076,
          "time": 9.168874324999999,
          "value": -0.394287109375
        },
        {
          "ticks": 11084,
          "time": 9.175496841666666,
          "value": -0.3956298828125
        },
        {
          "ticks": 11091,
          "time": 9.18129154375,
          "value": -0.3968505859375
        },
        {
          "ticks": 11099,
          "time": 9.187914060416666,
          "value": -0.398193359375
        },
        {
          "ticks": 11106,
          "time": 9.1937087625,
          "value": -0.3994140625
        },
        {
          "ticks": 11114,
          "time": 9.200331279166667,
          "value": -0.4007568359375
        },
        {
          "ticks": 11121,
          "time": 9.20612598125,
          "value": -0.402099609375
        },
        {
          "ticks": 11129,
          "time": 9.212748497916666,
          "value": -0.4033203125
        },
        {
          "ticks": 11136,
          "time": 9.2185432,
          "value": -0.4046630859375
        },
        {
          "ticks": 11144,
          "time": 9.225165716666666,
          "value": -0.406005859375
        },
        {
          "ticks": 11151,
          "time": 9.23096041875,
          "value": -0.4072265625
        },
        {
          "ticks": 11159,
          "time": 9.237582935416667,
          "value": -0.4085693359375
        },
        {
          "ticks": 11166,
          "time": 9.2433776375,
          "value": -0.4097900390625
        },
        {
          "ticks": 11174,
          "time": 9.250000154166667,
          "value": -0.4111328125
        },
        {
          "ticks": 11181,
          "time": 9.25579485625,
          "value": -0.4124755859375
        },
        {
          "ticks": 11189,
          "time": 9.262417372916666,
          "value": -0.4136962890625
        },
        {
          "ticks": 11196,
          "time": 9.268212075,
          "value": -0.4150390625
        },
        {
          "ticks": 11204,
          "time": 9.274834591666666,
          "value": -0.4163818359375
        },
        {
          "ticks": 11211,
          "time": 9.28062929375,
          "value": -0.4176025390625
        },
        {
          "ticks": 11219,
          "time": 9.287251810416667,
          "value": -0.4189453125
        },
        {
          "ticks": 11226,
          "time": 9.2930465125,
          "value": -0.420166015625
        },
        {
          "ticks": 11234,
          "time": 9.299669029166667,
          "value": -0.4215087890625
        },
        {
          "ticks": 11241,
          "time": 9.30546373125,
          "value": -0.4228515625
        },
        {
          "ticks": 11249,
          "time": 9.312086247916666,
          "value": -0.424072265625
        },
        {
          "ticks": 11256,
          "time": 9.31788095,
          "value": -0.4254150390625
        },
        {
          "ticks": 11264,
          "time": 9.324503466666666,
          "value": -0.4267578125
        },
        {
          "ticks": 11271,
          "time": 9.33029816875,
          "value": -0.427978515625
        },
        {
          "ticks": 11279,
          "time": 9.336920685416667,
          "value": -0.4293212890625
        },
        {
          "ticks": 11286,
          "time": 9.3427153875,
          "value": -0.4305419921875
        },
        {
          "ticks": 11294,
          "time": 9.349337904166667,
          "value": -0.431884765625
        },
        {
          "ticks": 11301,
          "time": 9.35513260625,
          "value": -0.4332275390625
        },
        {
          "ticks": 11309,
          "time": 9.361755122916666,
          "value": -0.4344482421875
        },
        {
          "ticks": 11316,
          "time": 9.367549825,
          "value": -0.435791015625
        },
        {
          "ticks": 11324,
          "time": 9.374172341666666,
          "value": -0.4371337890625
        },
        {
          "ticks": 11331,
          "time": 9.37996704375,
          "value": -0.4383544921875
        },
        {
          "ticks": 11339,
          "time": 9.386589560416667,
          "value": -0.439697265625
        },
        {
          "ticks": 11346,
          "time": 9.3923842625,
          "value": -0.44091796875
        },
        {
          "ticks": 11354,
          "time": 9.399006779166665,
          "value": -0.4422607421875
        },
        {
          "ticks": 11361,
          "time": 9.40480148125,
          "value": -0.443603515625
        },
        {
          "ticks": 11369,
          "time": 9.411423997916666,
          "value": -0.44482421875
        },
        {
          "ticks": 11376,
          "time": 9.4172187,
          "value": -0.4461669921875
        },
        {
          "ticks": 11384,
          "time": 9.423841216666666,
          "value": -0.447509765625
        },
        {
          "ticks": 11391,
          "time": 9.42963591875,
          "value": -0.44873046875
        },
        {
          "ticks": 11399,
          "time": 9.436258435416667,
          "value": -0.4500732421875
        },
        {
          "ticks": 11406,
          "time": 9.4420531375,
          "value": -0.4512939453125
        },
        {
          "ticks": 11414,
          "time": 9.448675654166665,
          "value": -0.45263671875
        },
        {
          "ticks": 11421,
          "time": 9.45447035625,
          "value": -0.4539794921875
        },
        {
          "ticks": 11429,
          "time": 9.461092872916666,
          "value": -0.4552001953125
        },
        {
          "ticks": 11436,
          "time": 9.466887575,
          "value": -0.45654296875
        },
        {
          "ticks": 11444,
          "time": 9.473510091666666,
          "value": -0.4578857421875
        },
        {
          "ticks": 11451,
          "time": 9.47930479375,
          "value": -0.4591064453125
        },
        {
          "ticks": 11459,
          "time": 9.485927310416667,
          "value": -0.46044921875
        },
        {
          "ticks": 11466,
          "time": 9.4917220125,
          "value": -0.461669921875
        },
        {
          "ticks": 11474,
          "time": 9.498344529166665,
          "value": -0.4630126953125
        },
        {
          "ticks": 11481,
          "time": 9.50413923125,
          "value": -0.46435546875
        },
        {
          "ticks": 11489,
          "time": 9.510761747916666,
          "value": -0.465576171875
        },
        {
          "ticks": 11496,
          "time": 9.51655645,
          "value": -0.4669189453125
        },
        {
          "ticks": 11504,
          "time": 9.523178966666666,
          "value": -0.46826171875
        },
        {
          "ticks": 11511,
          "time": 9.52897366875,
          "value": -0.469482421875
        },
        {
          "ticks": 11519,
          "time": 9.535596185416667,
          "value": -0.4708251953125
        },
        {
          "ticks": 11526,
          "time": 9.5413908875,
          "value": -0.4720458984375
        },
        {
          "ticks": 11534,
          "time": 9.548013404166666,
          "value": -0.473388671875
        },
        {
          "ticks": 11541,
          "time": 9.553808106249999,
          "value": -0.4747314453125
        },
        {
          "ticks": 11549,
          "time": 9.560430622916666,
          "value": -0.4759521484375
        },
        {
          "ticks": 11556,
          "time": 9.566225325,
          "value": -0.477294921875
        },
        {
          "ticks": 11564,
          "time": 9.572847841666666,
          "value": -0.4786376953125
        },
        {
          "ticks": 11571,
          "time": 9.57864254375,
          "value": -0.4798583984375
        },
        {
          "ticks": 11579,
          "time": 9.585265060416667,
          "value": -0.481201171875
        },
        {
          "ticks": 11586,
          "time": 9.5910597625,
          "value": -0.4825439453125
        },
        {
          "ticks": 11594,
          "time": 9.597682279166666,
          "value": -0.4837646484375
        },
        {
          "ticks": 11601,
          "time": 9.60347698125,
          "value": -0.485107421875
        },
        {
          "ticks": 11609,
          "time": 9.610099497916666,
          "value": -0.486328125
        },
        {
          "ticks": 11616,
          "time": 9.6158942,
          "value": -0.4876708984375
        },
        {
          "ticks": 11624,
          "time": 9.622516716666667,
          "value": -0.489013671875
        },
        {
          "ticks": 11631,
          "time": 9.62831141875,
          "value": -0.490234375
        },
        {
          "ticks": 11639,
          "time": 9.634933935416667,
          "value": -0.4915771484375
        },
        {
          "ticks": 11646,
          "time": 9.6407286375,
          "value": -0.492919921875
        },
        {
          "ticks": 11654,
          "time": 9.647351154166666,
          "value": -0.494140625
        },
        {
          "ticks": 11661,
          "time": 9.65314585625,
          "value": -0.4954833984375
        },
        {
          "ticks": 11669,
          "time": 9.659768372916666,
          "value": -0.4967041015625
        },
        {
          "ticks": 11676,
          "time": 9.665563075,
          "value": -0.498046875
        },
        {
          "ticks": 11684,
          "time": 9.672185591666667,
          "value": -0.4993896484375
        },
        {
          "ticks": 11691,
          "time": 9.67798029375,
          "value": -0.5006103515625
        },
        {
          "ticks": 11699,
          "time": 9.684602810416667,
          "value": -0.501953125
        },
        {
          "ticks": 11706,
          "time": 9.6903975125,
          "value": -0.5032958984375
        },
        {
          "ticks": 11714,
          "time": 9.697020029166666,
          "value": -0.5045166015625
        },
        {
          "ticks": 11721,
          "time": 9.70281473125,
          "value": -0.505859375
        },
        {
          "ticks": 11729,
          "time": 9.709437247916666,
          "value": -0.507080078125
        },
        {
          "ticks": 11736,
          "time": 9.71523195,
          "value": -0.5084228515625
        },
        {
          "ticks": 11744,
          "time": 9.721854466666667,
          "value": -0.509765625
        },
        {
          "ticks": 11751,
          "time": 9.72764916875,
          "value": -0.510986328125
        },
        {
          "ticks": 11759,
          "time": 9.734271685416667,
          "value": -0.5123291015625
        },
        {
          "ticks": 11766,
          "time": 9.7400663875,
          "value": -0.513671875
        },
        {
          "ticks": 11774,
          "time": 9.746688904166666,
          "value": -0.514892578125
        },
        {
          "ticks": 11781,
          "time": 9.75248360625,
          "value": -0.5162353515625
        },
        {
          "ticks": 11789,
          "time": 9.759106122916666,
          "value": -0.5174560546875
        },
        {
          "ticks": 11796,
          "time": 9.764900825,
          "value": -0.518798828125
        },
        {
          "ticks": 11804,
          "time": 9.771523341666667,
          "value": -0.5201416015625
        },
        {
          "ticks": 11811,
          "time": 9.77731804375,
          "value": -0.5213623046875
        },
        {
          "ticks": 11819,
          "time": 9.783940560416665,
          "value": -0.522705078125
        },
        {
          "ticks": 11826,
          "time": 9.7897352625,
          "value": -0.5240478515625
        },
        {
          "ticks": 11834,
          "time": 9.796357779166666,
          "value": -0.5252685546875
        },
        {
          "ticks": 11841,
          "time": 9.80215248125,
          "value": -0.526611328125
        },
        {
          "ticks": 11849,
          "time": 9.808774997916666,
          "value": -0.52783203125
        },
        {
          "ticks": 11856,
          "time": 9.8145697,
          "value": -0.5291748046875
        },
        {
          "ticks": 11864,
          "time": 9.821192216666667,
          "value": -0.530517578125
        },
        {
          "ticks": 11871,
          "time": 9.82698691875,
          "value": -0.53173828125
        },
        {
          "ticks": 11879,
          "time": 9.833609435416665,
          "value": -0.5330810546875
        },
        {
          "ticks": 11886,
          "time": 9.8394041375,
          "value": -0.534423828125
        },
        {
          "ticks": 11894,
          "time": 9.846026654166666,
          "value": -0.53564453125
        },
        {
          "ticks": 11901,
          "time": 9.85182135625,
          "value": -0.5369873046875
        },
        {
          "ticks": 11909,
          "time": 9.858443872916666,
          "value": -0.5382080078125
        },
        {
          "ticks": 11916,
          "time": 9.864238575,
          "value": -0.53955078125
        },
        {
          "ticks": 11924,
          "time": 9.870861091666667,
          "value": -0.5408935546875
        },
        {
          "ticks": 11931,
          "time": 9.87665579375,
          "value": -0.5421142578125
        },
        {
          "ticks": 11939,
          "time": 9.883278310416665,
          "value": -0.54345703125
        },
        {
          "ticks": 11946,
          "time": 9.8890730125,
          "value": -0.5447998046875
        },
        {
          "ticks": 11954,
          "time": 9.895695529166666,
          "value": -0.5460205078125
        },
        {
          "ticks": 11961,
          "time": 9.90149023125,
          "value": -0.54736328125
        },
        {
          "ticks": 11969,
          "time": 9.908112747916666,
          "value": -0.548583984375
        },
        {
          "ticks": 11976,
          "time": 9.91390745,
          "value": -0.5499267578125
        },
        {
          "ticks": 11984,
          "time": 9.920529966666667,
          "value": -0.55126953125
        },
        {
          "ticks": 11991,
          "time": 9.92632466875,
          "value": -0.552490234375
        },
        {
          "ticks": 11999,
          "time": 9.932947185416666,
          "value": -0.5538330078125
        },
        {
          "ticks": 12006,
          "time": 9.938741887499999,
          "value": -0.55517578125
        },
        {
          "ticks": 12014,
          "time": 9.945364404166666,
          "value": -0.556396484375
        },
        {
          "ticks": 12021,
          "time": 9.95115910625,
          "value": -0.5577392578125
        },
        {
          "ticks": 12029,
          "time": 9.957781622916666,
          "value": -0.5589599609375
        },
        {
          "ticks": 12036,
          "time": 9.963576325,
          "value": -0.560302734375
        },
        {
          "ticks": 12044,
          "time": 9.970198841666667,
          "value": -0.5616455078125
        },
        {
          "ticks": 12051,
          "time": 9.97599354375,
          "value": -0.5628662109375
        },
        {
          "ticks": 12059,
          "time": 9.982616060416666,
          "value": -0.564208984375
        },
        {
          "ticks": 12066,
          "time": 9.9884107625,
          "value": -0.5655517578125
        },
        {
          "ticks": 12074,
          "time": 9.995033279166666,
          "value": -0.5667724609375
        },
        {
          "ticks": 12081,
          "time": 10.00082798125,
          "value": -0.568115234375
        },
        {
          "ticks": 12089,
          "time": 10.007450497916667,
          "value": -0.5693359375
        },
        {
          "ticks": 12096,
          "time": 10.0132452,
          "value": -0.5706787109375
        },
        {
          "ticks": 12104,
          "time": 10.019867716666667,
          "value": -0.572021484375
        },
        {
          "ticks": 12111,
          "time": 10.02566241875,
          "value": -0.5732421875
        },
        {
          "ticks": 12119,
          "time": 10.032284935416666,
          "value": -0.5745849609375
        },
        {
          "ticks": 12126,
          "time": 10.0380796375,
          "value": -0.575927734375
        },
        {
          "ticks": 12134,
          "time": 10.044702154166666,
          "value": -0.5771484375
        },
        {
          "ticks": 12141,
          "time": 10.05049685625,
          "value": -0.5784912109375
        },
        {
          "ticks": 12149,
          "time": 10.057119372916667,
          "value": -0.5797119140625
        },
        {
          "ticks": 12156,
          "time": 10.062914075,
          "value": -0.5810546875
        },
        {
          "ticks": 12164,
          "time": 10.069536591666667,
          "value": -0.5823974609375
        },
        {
          "ticks": 12171,
          "time": 10.07533129375,
          "value": -0.5836181640625
        },
        {
          "ticks": 12179,
          "time": 10.081953810416666,
          "value": -0.5849609375
        },
        {
          "ticks": 12186,
          "time": 10.0877485125,
          "value": -0.5863037109375
        },
        {
          "ticks": 12194,
          "time": 10.094371029166666,
          "value": -0.5875244140625
        },
        {
          "ticks": 12201,
          "time": 10.10016573125,
          "value": -0.5888671875
        },
        {
          "ticks": 12209,
          "time": 10.106788247916667,
          "value": -0.590087890625
        },
        {
          "ticks": 12216,
          "time": 10.11258295,
          "value": -0.5914306640625
        },
        {
          "ticks": 12224,
          "time": 10.119205466666667,
          "value": -0.5927734375
        },
        {
          "ticks": 12231,
          "time": 10.12500016875,
          "value": -0.593994140625
        },
        {
          "ticks": 12239,
          "time": 10.131622685416666,
          "value": -0.5953369140625
        },
        {
          "ticks": 12246,
          "time": 10.1374173875,
          "value": -0.5966796875
        },
        {
          "ticks": 12254,
          "time": 10.144039904166666,
          "value": -0.597900390625
        },
        {
          "ticks": 12261,
          "time": 10.14983460625,
          "value": -0.5992431640625
        },
        {
          "ticks": 12269,
          "time": 10.156457122916667,
          "value": -0.6005859375
        },
        {
          "ticks": 12276,
          "time": 10.162251825,
          "value": -0.601806640625
        },
        {
          "ticks": 12284,
          "time": 10.168874341666665,
          "value": -0.6031494140625
        },
        {
          "ticks": 12291,
          "time": 10.17466904375,
          "value": -0.6043701171875
        },
        {
          "ticks": 12299,
          "time": 10.181291560416666,
          "value": -0.605712890625
        },
        {
          "ticks": 12306,
          "time": 10.1870862625,
          "value": -0.6070556640625
        },
        {
          "ticks": 12314,
          "time": 10.193708779166666,
          "value": -0.6082763671875
        },
        {
          "ticks": 12321,
          "time": 10.19950348125,
          "value": -0.609619140625
        },
        {
          "ticks": 12329,
          "time": 10.206125997916667,
          "value": -0.6109619140625
        },
        {
          "ticks": 12336,
          "time": 10.2119207,
          "value": -0.6121826171875
        },
        {
          "ticks": 12344,
          "time": 10.218543216666665,
          "value": -0.613525390625
        },
        {
          "ticks": 12351,
          "time": 10.22433791875,
          "value": -0.61474609375
        },
        {
          "ticks": 12359,
          "time": 10.230960435416666,
          "value": -0.6160888671875
        },
        {
          "ticks": 12366,
          "time": 10.2367551375,
          "value": -0.617431640625
        },
        {
          "ticks": 12374,
          "time": 10.243377654166666,
          "value": -0.61865234375
        },
        {
          "ticks": 12381,
          "time": 10.24917235625,
          "value": -0.6199951171875
        },
        {
          "ticks": 12389,
          "time": 10.255794872916667,
          "value": -0.621337890625
        },
        {
          "ticks": 12396,
          "time": 10.261589575,
          "value": -0.62255859375
        },
        {
          "ticks": 12404,
          "time": 10.268212091666665,
          "value": -0.6239013671875
        },
        {
          "ticks": 12411,
          "time": 10.27400679375,
          "value": -0.6251220703125
        },
        {
          "ticks": 12419,
          "time": 10.280629310416666,
          "value": -0.62646484375
        },
        {
          "ticks": 12426,
          "time": 10.2864240125,
          "value": -0.6278076171875
        },
        {
          "ticks": 12434,
          "time": 10.293046529166666,
          "value": -0.6290283203125
        },
        {
          "ticks": 12441,
          "time": 10.29884123125,
          "value": -0.63037109375
        },
        {
          "ticks": 12449,
          "time": 10.305463747916667,
          "value": -0.6317138671875
        },
        {
          "ticks": 12456,
          "time": 10.31125845,
          "value": -0.6329345703125
        },
        {
          "ticks": 12464,
          "time": 10.317880966666666,
          "value": -0.63427734375
        },
        {
          "ticks": 12471,
          "time": 10.323675668749999,
          "value": -0.635498046875
        },
        {
          "ticks": 12479,
          "time": 10.330298185416666,
          "value": -0.6368408203125
        },
        {
          "ticks": 12486,
          "time": 10.3360928875,
          "value": -0.63818359375
        },
        {
          "ticks": 12494,
          "time": 10.342715404166666,
          "value": -0.639404296875
        },
        {
          "ticks": 12500,
          "time": 10.347682291666667,
          "value": -0.640625
        },
        {
          "ticks": 12508,
          "time": 10.354304808333334,
          "value": -0.60888671875
        },
        {
          "ticks": 12515,
          "time": 10.360099510416667,
          "value": -0.5771484375
        },
        {
          "ticks": 12523,
          "time": 10.366722027083334,
          "value": -0.54541015625
        },
        {
          "ticks": 12530,
          "time": 10.372516729166668,
          "value": -0.513671875
        },
        {
          "ticks": 12538,
          "time": 10.379139245833334,
          "value": -0.48193359375
        },
        {
          "ticks": 12545,
          "time": 10.384933947916668,
          "value": -0.4501953125
        },
        {
          "ticks": 12548,
          "time": 10.387417391666666,
          "value": -0.4375
        },
        {
          "ticks": 12556,
          "time": 10.394039908333335,
          "value": -0.369140625
        },
        {
          "ticks": 12563,
          "time": 10.399834610416667,
          "value": -0.30078125
        },
        {
          "ticks": 12571,
          "time": 10.406457127083334,
          "value": -0.232421875
        },
        {
          "ticks": 12572,
          "time": 10.407284941666667,
          "value": -0.21875
        },
        {
          "ticks": 12580,
          "time": 10.413907458333334,
          "value": -0.1978759765625
        },
        {
          "ticks": 12587,
          "time": 10.419702160416668,
          "value": -0.177001953125
        },
        {
          "ticks": 12595,
          "time": 10.426324677083333,
          "value": -0.156005859375
        },
        {
          "ticks": 12600,
          "time": 10.43046375,
          "value": -0.140625
        },
        {
          "ticks": 12608,
          "time": 10.437086266666666,
          "value": -0.111328125
        },
        {
          "ticks": 12615,
          "time": 10.44288096875,
          "value": -0.08203125
        },
        {
          "ticks": 12623,
          "time": 10.449503485416667,
          "value": -0.052734375
        },
        {
          "ticks": 12630,
          "time": 10.4552981875,
          "value": -0.0234375
        },
        {
          "ticks": 12636,
          "time": 10.460265075,
          "value": 0
        },
        {
          "ticks": 12644,
          "time": 10.466887591666666,
          "value": -0.001220703125
        },
        {
          "ticks": 12651,
          "time": 10.47268229375,
          "value": -0.0025634765625
        },
        {
          "ticks": 12659,
          "time": 10.479304810416666,
          "value": -0.0037841796875
        },
        {
          "ticks": 12666,
          "time": 10.4850995125,
          "value": -0.005126953125
        },
        {
          "ticks": 12674,
          "time": 10.491722029166667,
          "value": -0.0064697265625
        },
        {
          "ticks": 12681,
          "time": 10.49751673125,
          "value": -0.0076904296875
        },
        {
          "ticks": 12689,
          "time": 10.504139247916667,
          "value": -0.009033203125
        },
        {
          "ticks": 12696,
          "time": 10.50993395,
          "value": -0.0103759765625
        },
        {
          "ticks": 12704,
          "time": 10.516556466666666,
          "value": -0.0115966796875
        },
        {
          "ticks": 12711,
          "time": 10.52235116875,
          "value": -0.012939453125
        },
        {
          "ticks": 12719,
          "time": 10.528973685416666,
          "value": -0.01416015625
        },
        {
          "ticks": 12726,
          "time": 10.5347683875,
          "value": -0.0155029296875
        },
        {
          "ticks": 12734,
          "time": 10.541390904166667,
          "value": -0.016845703125
        },
        {
          "ticks": 12741,
          "time": 10.54718560625,
          "value": -0.01806640625
        },
        {
          "ticks": 12749,
          "time": 10.553808122916667,
          "value": -0.0194091796875
        },
        {
          "ticks": 12756,
          "time": 10.559602825,
          "value": -0.020751953125
        },
        {
          "ticks": 12764,
          "time": 10.566225341666666,
          "value": -0.02197265625
        },
        {
          "ticks": 12771,
          "time": 10.57202004375,
          "value": -0.0233154296875
        },
        {
          "ticks": 12779,
          "time": 10.578642560416666,
          "value": -0.0245361328125
        },
        {
          "ticks": 12786,
          "time": 10.5844372625,
          "value": -0.02587890625
        },
        {
          "ticks": 12794,
          "time": 10.591059779166667,
          "value": -0.0272216796875
        },
        {
          "ticks": 12801,
          "time": 10.59685448125,
          "value": -0.0284423828125
        },
        {
          "ticks": 12809,
          "time": 10.603476997916665,
          "value": -0.02978515625
        },
        {
          "ticks": 12816,
          "time": 10.6092717,
          "value": -0.0311279296875
        },
        {
          "ticks": 12824,
          "time": 10.615894216666666,
          "value": -0.0323486328125
        },
        {
          "ticks": 12831,
          "time": 10.62168891875,
          "value": -0.03369140625
        },
        {
          "ticks": 12839,
          "time": 10.628311435416666,
          "value": -0.034912109375
        },
        {
          "ticks": 12846,
          "time": 10.6341061375,
          "value": -0.0362548828125
        },
        {
          "ticks": 12854,
          "time": 10.640728654166667,
          "value": -0.03759765625
        },
        {
          "ticks": 12861,
          "time": 10.64652335625,
          "value": -0.038818359375
        },
        {
          "ticks": 12869,
          "time": 10.653145872916665,
          "value": -0.0401611328125
        },
        {
          "ticks": 12876,
          "time": 10.658940575,
          "value": -0.04150390625
        },
        {
          "ticks": 12884,
          "time": 10.665563091666666,
          "value": -0.042724609375
        },
        {
          "ticks": 12891,
          "time": 10.67135779375,
          "value": -0.0440673828125
        },
        {
          "ticks": 12899,
          "time": 10.677980310416666,
          "value": -0.0452880859375
        },
        {
          "ticks": 12906,
          "time": 10.6837750125,
          "value": -0.046630859375
        },
        {
          "ticks": 12914,
          "time": 10.690397529166667,
          "value": -0.0479736328125
        },
        {
          "ticks": 12921,
          "time": 10.69619223125,
          "value": -0.0491943359375
        },
        {
          "ticks": 12929,
          "time": 10.702814747916666,
          "value": -0.050537109375
        },
        {
          "ticks": 12936,
          "time": 10.70860945,
          "value": -0.0518798828125
        },
        {
          "ticks": 12944,
          "time": 10.715231966666666,
          "value": -0.0531005859375
        },
        {
          "ticks": 12951,
          "time": 10.72102666875,
          "value": -0.054443359375
        },
        {
          "ticks": 12959,
          "time": 10.727649185416666,
          "value": -0.0556640625
        },
        {
          "ticks": 12966,
          "time": 10.7334438875,
          "value": -0.0570068359375
        },
        {
          "ticks": 12974,
          "time": 10.740066404166667,
          "value": -0.058349609375
        },
        {
          "ticks": 12981,
          "time": 10.74586110625,
          "value": -0.0595703125
        },
        {
          "ticks": 12989,
          "time": 10.752483622916666,
          "value": -0.0609130859375
        },
        {
          "ticks": 12996,
          "time": 10.758278325,
          "value": -0.062255859375
        },
        {
          "ticks": 13004,
          "time": 10.764900841666666,
          "value": -0.0634765625
        },
        {
          "ticks": 13011,
          "time": 10.77069554375,
          "value": -0.0648193359375
        },
        {
          "ticks": 13019,
          "time": 10.777318060416667,
          "value": -0.0660400390625
        },
        {
          "ticks": 13026,
          "time": 10.7831127625,
          "value": -0.0673828125
        },
        {
          "ticks": 13034,
          "time": 10.789735279166667,
          "value": -0.0687255859375
        },
        {
          "ticks": 13041,
          "time": 10.79552998125,
          "value": -0.0699462890625
        },
        {
          "ticks": 13049,
          "time": 10.802152497916666,
          "value": -0.0712890625
        },
        {
          "ticks": 13056,
          "time": 10.8079472,
          "value": -0.0726318359375
        },
        {
          "ticks": 13064,
          "time": 10.814569716666666,
          "value": -0.0738525390625
        },
        {
          "ticks": 13071,
          "time": 10.82036441875,
          "value": -0.0751953125
        },
        {
          "ticks": 13079,
          "time": 10.826986935416667,
          "value": -0.076416015625
        },
        {
          "ticks": 13086,
          "time": 10.8327816375,
          "value": -0.0777587890625
        },
        {
          "ticks": 13094,
          "time": 10.839404154166667,
          "value": -0.0791015625
        },
        {
          "ticks": 13101,
          "time": 10.84519885625,
          "value": -0.080322265625
        },
        {
          "ticks": 13109,
          "time": 10.851821372916666,
          "value": -0.0816650390625
        },
        {
          "ticks": 13116,
          "time": 10.857616075,
          "value": -0.0830078125
        },
        {
          "ticks": 13124,
          "time": 10.864238591666666,
          "value": -0.084228515625
        },
        {
          "ticks": 13131,
          "time": 10.87003329375,
          "value": -0.0855712890625
        },
        {
          "ticks": 13139,
          "time": 10.876655810416667,
          "value": -0.0867919921875
        },
        {
          "ticks": 13146,
          "time": 10.8824505125,
          "value": -0.088134765625
        },
        {
          "ticks": 13154,
          "time": 10.889073029166667,
          "value": -0.0894775390625
        },
        {
          "ticks": 13161,
          "time": 10.89486773125,
          "value": -0.0906982421875
        },
        {
          "ticks": 13169,
          "time": 10.901490247916666,
          "value": -0.092041015625
        },
        {
          "ticks": 13176,
          "time": 10.90728495,
          "value": -0.0933837890625
        },
        {
          "ticks": 13184,
          "time": 10.913907466666666,
          "value": -0.0946044921875
        },
        {
          "ticks": 13191,
          "time": 10.91970216875,
          "value": -0.095947265625
        },
        {
          "ticks": 13199,
          "time": 10.926324685416667,
          "value": -0.09716796875
        },
        {
          "ticks": 13206,
          "time": 10.9321193875,
          "value": -0.0985107421875
        },
        {
          "ticks": 13214,
          "time": 10.938741904166667,
          "value": -0.099853515625
        },
        {
          "ticks": 13221,
          "time": 10.94453660625,
          "value": -0.10107421875
        },
        {
          "ticks": 13229,
          "time": 10.951159122916666,
          "value": -0.1024169921875
        },
        {
          "ticks": 13236,
          "time": 10.956953825,
          "value": -0.103759765625
        },
        {
          "ticks": 13244,
          "time": 10.963576341666666,
          "value": -0.10498046875
        },
        {
          "ticks": 13251,
          "time": 10.96937104375,
          "value": -0.1063232421875
        },
        {
          "ticks": 13259,
          "time": 10.975993560416667,
          "value": -0.1075439453125
        },
        {
          "ticks": 13266,
          "time": 10.9817882625,
          "value": -0.10888671875
        },
        {
          "ticks": 13274,
          "time": 10.988410779166665,
          "value": -0.1102294921875
        },
        {
          "ticks": 13281,
          "time": 10.99420548125,
          "value": -0.1114501953125
        },
        {
          "ticks": 13289,
          "time": 11.000827997916666,
          "value": -0.11279296875
        },
        {
          "ticks": 13296,
          "time": 11.0066227,
          "value": -0.1141357421875
        },
        {
          "ticks": 13304,
          "time": 11.013245216666666,
          "value": -0.1153564453125
        },
        {
          "ticks": 13311,
          "time": 11.01903991875,
          "value": -0.11669921875
        },
        {
          "ticks": 13319,
          "time": 11.025662435416667,
          "value": -0.117919921875
        },
        {
          "ticks": 13326,
          "time": 11.0314571375,
          "value": -0.1192626953125
        },
        {
          "ticks": 13334,
          "time": 11.038079654166665,
          "value": -0.12060546875
        },
        {
          "ticks": 13341,
          "time": 11.04387435625,
          "value": -0.121826171875
        },
        {
          "ticks": 13349,
          "time": 11.050496872916666,
          "value": -0.1231689453125
        },
        {
          "ticks": 13356,
          "time": 11.056291575,
          "value": -0.12451171875
        },
        {
          "ticks": 13364,
          "time": 11.062914091666666,
          "value": -0.125732421875
        },
        {
          "ticks": 13371,
          "time": 11.06870879375,
          "value": -0.1270751953125
        },
        {
          "ticks": 13379,
          "time": 11.075331310416667,
          "value": -0.12841796875
        },
        {
          "ticks": 13386,
          "time": 11.0811260125,
          "value": -0.129638671875
        },
        {
          "ticks": 13394,
          "time": 11.087748529166666,
          "value": -0.1309814453125
        },
        {
          "ticks": 13401,
          "time": 11.09354323125,
          "value": -0.1322021484375
        },
        {
          "ticks": 13409,
          "time": 11.100165747916666,
          "value": -0.133544921875
        },
        {
          "ticks": 13416,
          "time": 11.10596045,
          "value": -0.1348876953125
        },
        {
          "ticks": 13424,
          "time": 11.112582966666666,
          "value": -0.1361083984375
        },
        {
          "ticks": 13431,
          "time": 11.11837766875,
          "value": -0.137451171875
        },
        {
          "ticks": 13439,
          "time": 11.125000185416667,
          "value": -0.1387939453125
        },
        {
          "ticks": 13446,
          "time": 11.1307948875,
          "value": -0.1400146484375
        },
        {
          "ticks": 13454,
          "time": 11.137417404166666,
          "value": -0.141357421875
        },
        {
          "ticks": 13461,
          "time": 11.14321210625,
          "value": -0.142578125
        },
        {
          "ticks": 13469,
          "time": 11.149834622916666,
          "value": -0.1439208984375
        },
        {
          "ticks": 13476,
          "time": 11.155629325,
          "value": -0.145263671875
        },
        {
          "ticks": 13484,
          "time": 11.162251841666667,
          "value": -0.146484375
        },
        {
          "ticks": 13491,
          "time": 11.16804654375,
          "value": -0.1478271484375
        },
        {
          "ticks": 13499,
          "time": 11.174669060416667,
          "value": -0.149169921875
        },
        {
          "ticks": 13506,
          "time": 11.1804637625,
          "value": -0.150390625
        },
        {
          "ticks": 13514,
          "time": 11.187086279166666,
          "value": -0.1517333984375
        },
        {
          "ticks": 13521,
          "time": 11.19288098125,
          "value": -0.1529541015625
        },
        {
          "ticks": 13529,
          "time": 11.199503497916666,
          "value": -0.154296875
        },
        {
          "ticks": 13536,
          "time": 11.2052982,
          "value": -0.1556396484375
        },
        {
          "ticks": 13544,
          "time": 11.211920716666667,
          "value": -0.1568603515625
        },
        {
          "ticks": 13551,
          "time": 11.21771541875,
          "value": -0.158203125
        },
        {
          "ticks": 13559,
          "time": 11.224337935416667,
          "value": -0.1595458984375
        },
        {
          "ticks": 13566,
          "time": 11.2301326375,
          "value": -0.1607666015625
        },
        {
          "ticks": 13574,
          "time": 11.236755154166666,
          "value": -0.162109375
        },
        {
          "ticks": 13581,
          "time": 11.24254985625,
          "value": -0.163330078125
        },
        {
          "ticks": 13589,
          "time": 11.249172372916666,
          "value": -0.1646728515625
        },
        {
          "ticks": 13596,
          "time": 11.254967075,
          "value": -0.166015625
        },
        {
          "ticks": 13604,
          "time": 11.261589591666667,
          "value": -0.167236328125
        },
        {
          "ticks": 13611,
          "time": 11.26738429375,
          "value": -0.1685791015625
        },
        {
          "ticks": 13619,
          "time": 11.274006810416667,
          "value": -0.169921875
        },
        {
          "ticks": 13626,
          "time": 11.2798015125,
          "value": -0.171142578125
        },
        {
          "ticks": 13634,
          "time": 11.286424029166666,
          "value": -0.1724853515625
        },
        {
          "ticks": 13641,
          "time": 11.29221873125,
          "value": -0.1737060546875
        },
        {
          "ticks": 13649,
          "time": 11.298841247916666,
          "value": -0.175048828125
        },
        {
          "ticks": 13656,
          "time": 11.30463595,
          "value": -0.1763916015625
        },
        {
          "ticks": 13664,
          "time": 11.311258466666667,
          "value": -0.1776123046875
        },
        {
          "ticks": 13671,
          "time": 11.31705316875,
          "value": -0.178955078125
        },
        {
          "ticks": 13679,
          "time": 11.323675685416667,
          "value": -0.1802978515625
        },
        {
          "ticks": 13686,
          "time": 11.3294703875,
          "value": -0.1815185546875
        },
        {
          "ticks": 13694,
          "time": 11.336092904166666,
          "value": -0.182861328125
        },
        {
          "ticks": 13701,
          "time": 11.34188760625,
          "value": -0.18408203125
        },
        {
          "ticks": 13709,
          "time": 11.348510122916666,
          "value": -0.1854248046875
        },
        {
          "ticks": 13716,
          "time": 11.354304825,
          "value": -0.186767578125
        },
        {
          "ticks": 13724,
          "time": 11.360927341666667,
          "value": -0.18798828125
        },
        {
          "ticks": 13731,
          "time": 11.36672204375,
          "value": -0.1893310546875
        },
        {
          "ticks": 13739,
          "time": 11.373344560416665,
          "value": -0.190673828125
        },
        {
          "ticks": 13746,
          "time": 11.3791392625,
          "value": -0.19189453125
        },
        {
          "ticks": 13754,
          "time": 11.385761779166666,
          "value": -0.1932373046875
        },
        {
          "ticks": 13761,
          "time": 11.39155648125,
          "value": -0.1944580078125
        },
        {
          "ticks": 13769,
          "time": 11.398178997916666,
          "value": -0.19580078125
        },
        {
          "ticks": 13776,
          "time": 11.4039737,
          "value": -0.1971435546875
        },
        {
          "ticks": 13784,
          "time": 11.410596216666667,
          "value": -0.1983642578125
        },
        {
          "ticks": 13791,
          "time": 11.41639091875,
          "value": -0.19970703125
        },
        {
          "ticks": 13799,
          "time": 11.423013435416665,
          "value": -0.2010498046875
        },
        {
          "ticks": 13806,
          "time": 11.4288081375,
          "value": -0.2022705078125
        },
        {
          "ticks": 13814,
          "time": 11.435430654166666,
          "value": -0.20361328125
        },
        {
          "ticks": 13821,
          "time": 11.44122535625,
          "value": -0.204833984375
        },
        {
          "ticks": 13829,
          "time": 11.447847872916666,
          "value": -0.2061767578125
        },
        {
          "ticks": 13836,
          "time": 11.453642575,
          "value": -0.20751953125
        },
        {
          "ticks": 13844,
          "time": 11.460265091666667,
          "value": -0.208740234375
        },
        {
          "ticks": 13851,
          "time": 11.46605979375,
          "value": -0.2100830078125
        },
        {
          "ticks": 13859,
          "time": 11.472682310416666,
          "value": -0.21142578125
        },
        {
          "ticks": 13866,
          "time": 11.4784770125,
          "value": -0.212646484375
        },
        {
          "ticks": 13874,
          "time": 11.485099529166666,
          "value": -0.2139892578125
        },
        {
          "ticks": 13881,
          "time": 11.49089423125,
          "value": -0.2152099609375
        },
        {
          "ticks": 13889,
          "time": 11.497516747916666,
          "value": -0.216552734375
        },
        {
          "ticks": 13896,
          "time": 11.50331145,
          "value": -0.2178955078125
        },
        {
          "ticks": 13904,
          "time": 11.509933966666667,
          "value": -0.2191162109375
        },
        {
          "ticks": 13911,
          "time": 11.51572866875,
          "value": -0.220458984375
        },
        {
          "ticks": 13919,
          "time": 11.522351185416666,
          "value": -0.2218017578125
        },
        {
          "ticks": 13926,
          "time": 11.5281458875,
          "value": -0.2230224609375
        },
        {
          "ticks": 13934,
          "time": 11.534768404166666,
          "value": -0.224365234375
        },
        {
          "ticks": 13941,
          "time": 11.54056310625,
          "value": -0.2255859375
        },
        {
          "ticks": 13949,
          "time": 11.547185622916667,
          "value": -0.2269287109375
        },
        {
          "ticks": 13956,
          "time": 11.552980325,
          "value": -0.228271484375
        },
        {
          "ticks": 13964,
          "time": 11.559602841666667,
          "value": -0.2294921875
        },
        {
          "ticks": 13971,
          "time": 11.56539754375,
          "value": -0.2308349609375
        },
        {
          "ticks": 13979,
          "time": 11.572020060416666,
          "value": -0.232177734375
        },
        {
          "ticks": 13986,
          "time": 11.5778147625,
          "value": -0.2333984375
        },
        {
          "ticks": 13994,
          "time": 11.584437279166666,
          "value": -0.2347412109375
        },
        {
          "ticks": 14001,
          "time": 11.59023198125,
          "value": -0.2359619140625
        },
        {
          "ticks": 14009,
          "time": 11.596854497916667,
          "value": -0.2373046875
        },
        {
          "ticks": 14016,
          "time": 11.6026492,
          "value": -0.2386474609375
        },
        {
          "ticks": 14024,
          "time": 11.609271716666667,
          "value": -0.2398681640625
        },
        {
          "ticks": 14031,
          "time": 11.61506641875,
          "value": -0.2412109375
        },
        {
          "ticks": 14039,
          "time": 11.621688935416666,
          "value": -0.2425537109375
        },
        {
          "ticks": 14046,
          "time": 11.6274836375,
          "value": -0.2437744140625
        },
        {
          "ticks": 14054,
          "time": 11.634106154166666,
          "value": -0.2451171875
        },
        {
          "ticks": 14061,
          "time": 11.63990085625,
          "value": -0.2464599609375
        },
        {
          "ticks": 14069,
          "time": 11.646523372916667,
          "value": -0.2476806640625
        },
        {
          "ticks": 14076,
          "time": 11.652318075,
          "value": -0.2490234375
        },
        {
          "ticks": 14084,
          "time": 11.658940591666667,
          "value": -0.250244140625
        },
        {
          "ticks": 14091,
          "time": 11.66473529375,
          "value": -0.2515869140625
        },
        {
          "ticks": 14099,
          "time": 11.671357810416666,
          "value": -0.2529296875
        },
        {
          "ticks": 14106,
          "time": 11.6771525125,
          "value": -0.254150390625
        },
        {
          "ticks": 14114,
          "time": 11.683775029166666,
          "value": -0.2554931640625
        },
        {
          "ticks": 14121,
          "time": 11.68956973125,
          "value": -0.2568359375
        },
        {
          "ticks": 14129,
          "time": 11.696192247916667,
          "value": -0.258056640625
        },
        {
          "ticks": 14136,
          "time": 11.70198695,
          "value": -0.2593994140625
        },
        {
          "ticks": 14144,
          "time": 11.708609466666667,
          "value": -0.2606201171875
        },
        {
          "ticks": 14151,
          "time": 11.71440416875,
          "value": -0.261962890625
        },
        {
          "ticks": 14159,
          "time": 11.721026685416666,
          "value": -0.2633056640625
        },
        {
          "ticks": 14166,
          "time": 11.7268213875,
          "value": -0.2645263671875
        },
        {
          "ticks": 14174,
          "time": 11.733443904166666,
          "value": -0.265869140625
        },
        {
          "ticks": 14181,
          "time": 11.73923860625,
          "value": -0.2672119140625
        },
        {
          "ticks": 14189,
          "time": 11.745861122916667,
          "value": -0.2684326171875
        },
        {
          "ticks": 14196,
          "time": 11.751655825,
          "value": -0.269775390625
        },
        {
          "ticks": 14204,
          "time": 11.758278341666665,
          "value": -0.27099609375
        },
        {
          "ticks": 14211,
          "time": 11.76407304375,
          "value": -0.2723388671875
        },
        {
          "ticks": 14219,
          "time": 11.770695560416666,
          "value": -0.273681640625
        },
        {
          "ticks": 14226,
          "time": 11.7764902625,
          "value": -0.27490234375
        },
        {
          "ticks": 14234,
          "time": 11.783112779166666,
          "value": -0.2762451171875
        },
        {
          "ticks": 14241,
          "time": 11.78890748125,
          "value": -0.277587890625
        },
        {
          "ticks": 14249,
          "time": 11.795529997916667,
          "value": -0.27880859375
        },
        {
          "ticks": 14256,
          "time": 11.8013247,
          "value": -0.2801513671875
        },
        {
          "ticks": 14264,
          "time": 11.807947216666665,
          "value": -0.2813720703125
        },
        {
          "ticks": 14271,
          "time": 11.81374191875,
          "value": -0.28271484375
        },
        {
          "ticks": 14279,
          "time": 11.820364435416666,
          "value": -0.2840576171875
        },
        {
          "ticks": 14286,
          "time": 11.8261591375,
          "value": -0.2852783203125
        },
        {
          "ticks": 14294,
          "time": 11.832781654166666,
          "value": -0.28662109375
        },
        {
          "ticks": 14301,
          "time": 11.83857635625,
          "value": -0.2879638671875
        },
        {
          "ticks": 14309,
          "time": 11.845198872916667,
          "value": -0.2891845703125
        },
        {
          "ticks": 14316,
          "time": 11.850993575,
          "value": -0.29052734375
        },
        {
          "ticks": 14324,
          "time": 11.857616091666666,
          "value": -0.291748046875
        },
        {
          "ticks": 14331,
          "time": 11.86341079375,
          "value": -0.2930908203125
        },
        {
          "ticks": 14339,
          "time": 11.870033310416666,
          "value": -0.29443359375
        },
        {
          "ticks": 14346,
          "time": 11.8758280125,
          "value": -0.295654296875
        },
        {
          "ticks": 14354,
          "time": 11.882450529166666,
          "value": -0.2969970703125
        },
        {
          "ticks": 14361,
          "time": 11.88824523125,
          "value": -0.29833984375
        },
        {
          "ticks": 14369,
          "time": 11.894867747916667,
          "value": -0.299560546875
        },
        {
          "ticks": 14376,
          "time": 11.90066245,
          "value": -0.3009033203125
        },
        {
          "ticks": 14384,
          "time": 11.907284966666666,
          "value": -0.3021240234375
        },
        {
          "ticks": 14391,
          "time": 11.91307966875,
          "value": -0.303466796875
        },
        {
          "ticks": 14399,
          "time": 11.919702185416666,
          "value": -0.3048095703125
        },
        {
          "ticks": 14406,
          "time": 11.9254968875,
          "value": -0.3060302734375
        },
        {
          "ticks": 14414,
          "time": 11.932119404166666,
          "value": -0.307373046875
        },
        {
          "ticks": 14421,
          "time": 11.93791410625,
          "value": -0.3087158203125
        },
        {
          "ticks": 14429,
          "time": 11.944536622916667,
          "value": -0.3099365234375
        },
        {
          "ticks": 14436,
          "time": 11.950331325,
          "value": -0.311279296875
        },
        {
          "ticks": 14444,
          "time": 11.956953841666666,
          "value": -0.3125
        },
        {
          "ticks": 14451,
          "time": 11.96274854375,
          "value": -0.3138427734375
        },
        {
          "ticks": 14459,
          "time": 11.969371060416666,
          "value": -0.315185546875
        },
        {
          "ticks": 14466,
          "time": 11.9751657625,
          "value": -0.31640625
        },
        {
          "ticks": 14474,
          "time": 11.981788279166667,
          "value": -0.3177490234375
        },
        {
          "ticks": 14481,
          "time": 11.98758298125,
          "value": -0.319091796875
        },
        {
          "ticks": 14489,
          "time": 11.994205497916667,
          "value": -0.3203125
        },
        {
          "ticks": 14496,
          "time": 12.0000002,
          "value": -0.3216552734375
        },
        {
          "ticks": 14504,
          "time": 12.006622716666666,
          "value": -0.3228759765625
        },
        {
          "ticks": 14511,
          "time": 12.01241741875,
          "value": -0.32421875
        },
        {
          "ticks": 14519,
          "time": 12.019039935416666,
          "value": -0.3255615234375
        },
        {
          "ticks": 14526,
          "time": 12.0248346375,
          "value": -0.3267822265625
        },
        {
          "ticks": 14534,
          "time": 12.031457154166667,
          "value": -0.328125
        },
        {
          "ticks": 14541,
          "time": 12.03725185625,
          "value": -0.3294677734375
        },
        {
          "ticks": 14549,
          "time": 12.043874372916667,
          "value": -0.3306884765625
        },
        {
          "ticks": 14556,
          "time": 12.049669075,
          "value": -0.33203125
        },
        {
          "ticks": 14564,
          "time": 12.056291591666666,
          "value": -0.333251953125
        },
        {
          "ticks": 14571,
          "time": 12.06208629375,
          "value": -0.3345947265625
        },
        {
          "ticks": 14579,
          "time": 12.068708810416666,
          "value": -0.3359375
        },
        {
          "ticks": 14586,
          "time": 12.0745035125,
          "value": -0.337158203125
        },
        {
          "ticks": 14594,
          "time": 12.081126029166667,
          "value": -0.3385009765625
        },
        {
          "ticks": 14601,
          "time": 12.08692073125,
          "value": -0.33984375
        },
        {
          "ticks": 14609,
          "time": 12.093543247916667,
          "value": -0.341064453125
        },
        {
          "ticks": 14616,
          "time": 12.09933795,
          "value": -0.3424072265625
        },
        {
          "ticks": 14624,
          "time": 12.105960466666666,
          "value": -0.3436279296875
        },
        {
          "ticks": 14631,
          "time": 12.11175516875,
          "value": -0.344970703125
        },
        {
          "ticks": 14639,
          "time": 12.118377685416666,
          "value": -0.3463134765625
        },
        {
          "ticks": 14646,
          "time": 12.1241723875,
          "value": -0.3475341796875
        },
        {
          "ticks": 14654,
          "time": 12.130794904166667,
          "value": -0.348876953125
        },
        {
          "ticks": 14661,
          "time": 12.13658960625,
          "value": -0.3502197265625
        },
        {
          "ticks": 14669,
          "time": 12.143212122916667,
          "value": -0.3514404296875
        },
        {
          "ticks": 14676,
          "time": 12.149006825,
          "value": -0.352783203125
        },
        {
          "ticks": 14684,
          "time": 12.155629341666666,
          "value": -0.35400390625
        },
        {
          "ticks": 14691,
          "time": 12.16142404375,
          "value": -0.3553466796875
        },
        {
          "ticks": 14699,
          "time": 12.168046560416666,
          "value": -0.356689453125
        },
        {
          "ticks": 14706,
          "time": 12.1738412625,
          "value": -0.35791015625
        },
        {
          "ticks": 14714,
          "time": 12.180463779166667,
          "value": -0.3592529296875
        },
        {
          "ticks": 14721,
          "time": 12.18625848125,
          "value": -0.360595703125
        },
        {
          "ticks": 14729,
          "time": 12.192880997916665,
          "value": -0.36181640625
        },
        {
          "ticks": 14736,
          "time": 12.1986757,
          "value": -0.3631591796875
        },
        {
          "ticks": 14744,
          "time": 12.205298216666666,
          "value": -0.364501953125
        },
        {
          "ticks": 14751,
          "time": 12.21109291875,
          "value": -0.36572265625
        },
        {
          "ticks": 14759,
          "time": 12.217715435416666,
          "value": -0.3670654296875
        },
        {
          "ticks": 14766,
          "time": 12.2235101375,
          "value": -0.3682861328125
        },
        {
          "ticks": 14774,
          "time": 12.230132654166667,
          "value": -0.36962890625
        },
        {
          "ticks": 14781,
          "time": 12.23592735625,
          "value": -0.3709716796875
        },
        {
          "ticks": 14789,
          "time": 12.242549872916666,
          "value": -0.3721923828125
        },
        {
          "ticks": 14796,
          "time": 12.248344575,
          "value": -0.37353515625
        },
        {
          "ticks": 14804,
          "time": 12.254967091666666,
          "value": -0.3748779296875
        },
        {
          "ticks": 14811,
          "time": 12.26076179375,
          "value": -0.3760986328125
        },
        {
          "ticks": 14819,
          "time": 12.267384310416666,
          "value": -0.37744140625
        },
        {
          "ticks": 14826,
          "time": 12.2731790125,
          "value": -0.378662109375
        },
        {
          "ticks": 14834,
          "time": 12.279801529166667,
          "value": -0.3800048828125
        },
        {
          "ticks": 14841,
          "time": 12.28559623125,
          "value": -0.38134765625
        },
        {
          "ticks": 14849,
          "time": 12.292218747916666,
          "value": -0.382568359375
        },
        {
          "ticks": 14856,
          "time": 12.298013450000001,
          "value": -0.3839111328125
        },
        {
          "ticks": 14864,
          "time": 12.304635966666666,
          "value": -0.38525390625
        },
        {
          "ticks": 14871,
          "time": 12.31043066875,
          "value": -0.386474609375
        },
        {
          "ticks": 14879,
          "time": 12.317053185416666,
          "value": -0.3878173828125
        },
        {
          "ticks": 14886,
          "time": 12.3228478875,
          "value": -0.3890380859375
        },
        {
          "ticks": 14894,
          "time": 12.329470404166667,
          "value": -0.390380859375
        },
        {
          "ticks": 14901,
          "time": 12.33526510625,
          "value": -0.3917236328125
        },
        {
          "ticks": 14909,
          "time": 12.341887622916666,
          "value": -0.3929443359375
        },
        {
          "ticks": 14916,
          "time": 12.347682325,
          "value": -0.394287109375
        },
        {
          "ticks": 14924,
          "time": 12.354304841666666,
          "value": -0.3956298828125
        },
        {
          "ticks": 14931,
          "time": 12.36009954375,
          "value": -0.3968505859375
        },
        {
          "ticks": 14939,
          "time": 12.366722060416667,
          "value": -0.398193359375
        },
        {
          "ticks": 14946,
          "time": 12.3725167625,
          "value": -0.3994140625
        },
        {
          "ticks": 14954,
          "time": 12.379139279166667,
          "value": -0.4007568359375
        },
        {
          "ticks": 14961,
          "time": 12.38493398125,
          "value": -0.402099609375
        },
        {
          "ticks": 14969,
          "time": 12.391556497916666,
          "value": -0.4033203125
        },
        {
          "ticks": 14976,
          "time": 12.3973512,
          "value": -0.4046630859375
        },
        {
          "ticks": 14984,
          "time": 12.403973716666666,
          "value": -0.406005859375
        },
        {
          "ticks": 14991,
          "time": 12.40976841875,
          "value": -0.4072265625
        },
        {
          "ticks": 14999,
          "time": 12.416390935416667,
          "value": -0.4085693359375
        },
        {
          "ticks": 15006,
          "time": 12.4221856375,
          "value": -0.4097900390625
        },
        {
          "ticks": 15014,
          "time": 12.428808154166667,
          "value": -0.4111328125
        },
        {
          "ticks": 15021,
          "time": 12.43460285625,
          "value": -0.4124755859375
        },
        {
          "ticks": 15029,
          "time": 12.441225372916666,
          "value": -0.4136962890625
        },
        {
          "ticks": 15036,
          "time": 12.447020075,
          "value": -0.4150390625
        },
        {
          "ticks": 15044,
          "time": 12.453642591666666,
          "value": -0.4163818359375
        },
        {
          "ticks": 15051,
          "time": 12.45943729375,
          "value": -0.4176025390625
        },
        {
          "ticks": 15059,
          "time": 12.466059810416667,
          "value": -0.4189453125
        },
        {
          "ticks": 15066,
          "time": 12.4718545125,
          "value": -0.420166015625
        },
        {
          "ticks": 15074,
          "time": 12.478477029166667,
          "value": -0.4215087890625
        },
        {
          "ticks": 15081,
          "time": 12.48427173125,
          "value": -0.4228515625
        },
        {
          "ticks": 15089,
          "time": 12.490894247916666,
          "value": -0.424072265625
        },
        {
          "ticks": 15096,
          "time": 12.49668895,
          "value": -0.4254150390625
        },
        {
          "ticks": 15104,
          "time": 12.503311466666666,
          "value": -0.4267578125
        },
        {
          "ticks": 15111,
          "time": 12.50910616875,
          "value": -0.427978515625
        },
        {
          "ticks": 15119,
          "time": 12.515728685416667,
          "value": -0.4293212890625
        },
        {
          "ticks": 15126,
          "time": 12.5215233875,
          "value": -0.4305419921875
        },
        {
          "ticks": 15134,
          "time": 12.528145904166667,
          "value": -0.431884765625
        },
        {
          "ticks": 15141,
          "time": 12.53394060625,
          "value": -0.4332275390625
        },
        {
          "ticks": 15149,
          "time": 12.540563122916666,
          "value": -0.4344482421875
        },
        {
          "ticks": 15156,
          "time": 12.546357825,
          "value": -0.435791015625
        },
        {
          "ticks": 15164,
          "time": 12.552980341666666,
          "value": -0.4371337890625
        },
        {
          "ticks": 15171,
          "time": 12.55877504375,
          "value": -0.4383544921875
        },
        {
          "ticks": 15179,
          "time": 12.565397560416667,
          "value": -0.439697265625
        },
        {
          "ticks": 15186,
          "time": 12.5711922625,
          "value": -0.44091796875
        },
        {
          "ticks": 15194,
          "time": 12.577814779166665,
          "value": -0.4422607421875
        },
        {
          "ticks": 15201,
          "time": 12.58360948125,
          "value": -0.443603515625
        },
        {
          "ticks": 15209,
          "time": 12.590231997916666,
          "value": -0.44482421875
        },
        {
          "ticks": 15216,
          "time": 12.5960267,
          "value": -0.4461669921875
        },
        {
          "ticks": 15224,
          "time": 12.602649216666666,
          "value": -0.447509765625
        },
        {
          "ticks": 15231,
          "time": 12.60844391875,
          "value": -0.44873046875
        },
        {
          "ticks": 15239,
          "time": 12.615066435416667,
          "value": -0.4500732421875
        },
        {
          "ticks": 15246,
          "time": 12.6208611375,
          "value": -0.4512939453125
        },
        {
          "ticks": 15254,
          "time": 12.627483654166666,
          "value": -0.45263671875
        },
        {
          "ticks": 15261,
          "time": 12.63327835625,
          "value": -0.4539794921875
        },
        {
          "ticks": 15269,
          "time": 12.639900872916666,
          "value": -0.4552001953125
        },
        {
          "ticks": 15276,
          "time": 12.645695575,
          "value": -0.45654296875
        },
        {
          "ticks": 15284,
          "time": 12.652318091666666,
          "value": -0.4578857421875
        },
        {
          "ticks": 15291,
          "time": 12.65811279375,
          "value": -0.4591064453125
        },
        {
          "ticks": 15299,
          "time": 12.664735310416667,
          "value": -0.46044921875
        },
        {
          "ticks": 15306,
          "time": 12.6705300125,
          "value": -0.461669921875
        },
        {
          "ticks": 15314,
          "time": 12.677152529166666,
          "value": -0.4630126953125
        },
        {
          "ticks": 15321,
          "time": 12.682947231250001,
          "value": -0.46435546875
        },
        {
          "ticks": 15329,
          "time": 12.689569747916666,
          "value": -0.465576171875
        },
        {
          "ticks": 15336,
          "time": 12.69536445,
          "value": -0.4669189453125
        },
        {
          "ticks": 15344,
          "time": 12.701986966666666,
          "value": -0.46826171875
        },
        {
          "ticks": 15351,
          "time": 12.70778166875,
          "value": -0.469482421875
        },
        {
          "ticks": 15359,
          "time": 12.714404185416667,
          "value": -0.4708251953125
        },
        {
          "ticks": 15366,
          "time": 12.720198887500002,
          "value": -0.4720458984375
        },
        {
          "ticks": 15374,
          "time": 12.726821404166667,
          "value": -0.473388671875
        },
        {
          "ticks": 15381,
          "time": 12.732616106250001,
          "value": -0.4747314453125
        },
        {
          "ticks": 15389,
          "time": 12.739238622916668,
          "value": -0.4759521484375
        },
        {
          "ticks": 15396,
          "time": 12.745033325000001,
          "value": -0.477294921875
        },
        {
          "ticks": 15404,
          "time": 12.751655841666668,
          "value": -0.4786376953125
        },
        {
          "ticks": 15411,
          "time": 12.757450543750002,
          "value": -0.4798583984375
        },
        {
          "ticks": 15419,
          "time": 12.764073060416667,
          "value": -0.481201171875
        },
        {
          "ticks": 15426,
          "time": 12.769867762500002,
          "value": -0.4825439453125
        },
        {
          "ticks": 15434,
          "time": 12.776490279166667,
          "value": -0.4837646484375
        },
        {
          "ticks": 15441,
          "time": 12.782284981250001,
          "value": -0.485107421875
        },
        {
          "ticks": 15449,
          "time": 12.788907497916668,
          "value": -0.486328125
        },
        {
          "ticks": 15456,
          "time": 12.794702200000001,
          "value": -0.4876708984375
        },
        {
          "ticks": 15464,
          "time": 12.801324716666668,
          "value": -0.489013671875
        },
        {
          "ticks": 15471,
          "time": 12.807119418750002,
          "value": -0.490234375
        },
        {
          "ticks": 15479,
          "time": 12.813741935416667,
          "value": -0.4915771484375
        },
        {
          "ticks": 15486,
          "time": 12.8195366375,
          "value": -0.492919921875
        },
        {
          "ticks": 15494,
          "time": 12.826159154166668,
          "value": -0.494140625
        },
        {
          "ticks": 15501,
          "time": 12.831953856250001,
          "value": -0.4954833984375
        },
        {
          "ticks": 15509,
          "time": 12.838576372916668,
          "value": -0.4967041015625
        },
        {
          "ticks": 15516,
          "time": 12.844371075000002,
          "value": -0.498046875
        },
        {
          "ticks": 15524,
          "time": 12.850993591666668,
          "value": -0.4993896484375
        },
        {
          "ticks": 15531,
          "time": 12.856788293750002,
          "value": -0.5006103515625
        },
        {
          "ticks": 15539,
          "time": 12.863410810416667,
          "value": -0.501953125
        },
        {
          "ticks": 15546,
          "time": 12.8692055125,
          "value": -0.5032958984375
        },
        {
          "ticks": 15554,
          "time": 12.875828029166668,
          "value": -0.5045166015625
        },
        {
          "ticks": 15561,
          "time": 12.881622731250001,
          "value": -0.505859375
        },
        {
          "ticks": 15569,
          "time": 12.888245247916668,
          "value": -0.507080078125
        },
        {
          "ticks": 15576,
          "time": 12.894039950000002,
          "value": -0.5084228515625
        },
        {
          "ticks": 15584,
          "time": 12.900662466666668,
          "value": -0.509765625
        },
        {
          "ticks": 15591,
          "time": 12.906457168750002,
          "value": -0.510986328125
        },
        {
          "ticks": 15599,
          "time": 12.913079685416667,
          "value": -0.5123291015625
        },
        {
          "ticks": 15606,
          "time": 12.9188743875,
          "value": -0.513671875
        },
        {
          "ticks": 15614,
          "time": 12.925496904166668,
          "value": -0.514892578125
        },
        {
          "ticks": 15621,
          "time": 12.931291606250001,
          "value": -0.5162353515625
        },
        {
          "ticks": 15629,
          "time": 12.937914122916668,
          "value": -0.5174560546875
        },
        {
          "ticks": 15636,
          "time": 12.943708825000002,
          "value": -0.518798828125
        },
        {
          "ticks": 15644,
          "time": 12.950331341666669,
          "value": -0.5201416015625
        },
        {
          "ticks": 15651,
          "time": 12.956126043750002,
          "value": -0.5213623046875
        },
        {
          "ticks": 15659,
          "time": 12.962748560416667,
          "value": -0.522705078125
        },
        {
          "ticks": 15666,
          "time": 12.9685432625,
          "value": -0.5240478515625
        },
        {
          "ticks": 15674,
          "time": 12.975165779166668,
          "value": -0.5252685546875
        },
        {
          "ticks": 15681,
          "time": 12.980960481250001,
          "value": -0.526611328125
        },
        {
          "ticks": 15689,
          "time": 12.987582997916668,
          "value": -0.52783203125
        },
        {
          "ticks": 15696,
          "time": 12.993377700000002,
          "value": -0.5291748046875
        },
        {
          "ticks": 15704,
          "time": 13.000000216666669,
          "value": -0.530517578125
        },
        {
          "ticks": 15711,
          "time": 13.005794918750002,
          "value": -0.53173828125
        },
        {
          "ticks": 15719,
          "time": 13.012417435416667,
          "value": -0.5330810546875
        },
        {
          "ticks": 15726,
          "time": 13.0182121375,
          "value": -0.534423828125
        },
        {
          "ticks": 15734,
          "time": 13.024834654166668,
          "value": -0.53564453125
        },
        {
          "ticks": 15741,
          "time": 13.030629356250001,
          "value": -0.5369873046875
        },
        {
          "ticks": 15749,
          "time": 13.037251872916668,
          "value": -0.5382080078125
        },
        {
          "ticks": 15756,
          "time": 13.043046575000002,
          "value": -0.53955078125
        },
        {
          "ticks": 15764,
          "time": 13.049669091666667,
          "value": -0.5408935546875
        },
        {
          "ticks": 15771,
          "time": 13.055463793750002,
          "value": -0.5421142578125
        },
        {
          "ticks": 15779,
          "time": 13.062086310416667,
          "value": -0.54345703125
        },
        {
          "ticks": 15786,
          "time": 13.067881012500001,
          "value": -0.5447998046875
        },
        {
          "ticks": 15794,
          "time": 13.074503529166668,
          "value": -0.5460205078125
        },
        {
          "ticks": 15801,
          "time": 13.080298231250001,
          "value": -0.54736328125
        },
        {
          "ticks": 15809,
          "time": 13.086920747916668,
          "value": -0.548583984375
        },
        {
          "ticks": 15816,
          "time": 13.092715450000002,
          "value": -0.5499267578125
        },
        {
          "ticks": 15824,
          "time": 13.099337966666667,
          "value": -0.55126953125
        },
        {
          "ticks": 15831,
          "time": 13.105132668750002,
          "value": -0.552490234375
        },
        {
          "ticks": 15839,
          "time": 13.111755185416667,
          "value": -0.5538330078125
        },
        {
          "ticks": 15846,
          "time": 13.117549887500001,
          "value": -0.55517578125
        },
        {
          "ticks": 15854,
          "time": 13.124172404166668,
          "value": -0.556396484375
        },
        {
          "ticks": 15861,
          "time": 13.129967106250001,
          "value": -0.5577392578125
        },
        {
          "ticks": 15869,
          "time": 13.136589622916668,
          "value": -0.5589599609375
        },
        {
          "ticks": 15876,
          "time": 13.142384325000002,
          "value": -0.560302734375
        },
        {
          "ticks": 15884,
          "time": 13.149006841666667,
          "value": -0.5616455078125
        },
        {
          "ticks": 15891,
          "time": 13.154801543750002,
          "value": -0.5628662109375
        },
        {
          "ticks": 15899,
          "time": 13.161424060416667,
          "value": -0.564208984375
        },
        {
          "ticks": 15906,
          "time": 13.167218762500001,
          "value": -0.5655517578125
        },
        {
          "ticks": 15914,
          "time": 13.173841279166668,
          "value": -0.5667724609375
        },
        {
          "ticks": 15921,
          "time": 13.179635981250001,
          "value": -0.568115234375
        },
        {
          "ticks": 15929,
          "time": 13.186258497916668,
          "value": -0.5693359375
        },
        {
          "ticks": 15936,
          "time": 13.192053200000002,
          "value": -0.5706787109375
        },
        {
          "ticks": 15944,
          "time": 13.198675716666667,
          "value": -0.572021484375
        },
        {
          "ticks": 15951,
          "time": 13.20447041875,
          "value": -0.5732421875
        },
        {
          "ticks": 15959,
          "time": 13.211092935416668,
          "value": -0.5745849609375
        },
        {
          "ticks": 15966,
          "time": 13.216887637500001,
          "value": -0.575927734375
        },
        {
          "ticks": 15974,
          "time": 13.223510154166668,
          "value": -0.5771484375
        },
        {
          "ticks": 15981,
          "time": 13.229304856250002,
          "value": -0.5784912109375
        },
        {
          "ticks": 15989,
          "time": 13.235927372916668,
          "value": -0.5797119140625
        },
        {
          "ticks": 15996,
          "time": 13.241722075000002,
          "value": -0.5810546875
        },
        {
          "ticks": 16004,
          "time": 13.248344591666667,
          "value": -0.5823974609375
        },
        {
          "ticks": 16011,
          "time": 13.25413929375,
          "value": -0.5836181640625
        },
        {
          "ticks": 16019,
          "time": 13.260761810416668,
          "value": -0.5849609375
        },
        {
          "ticks": 16026,
          "time": 13.266556512500001,
          "value": -0.5863037109375
        },
        {
          "ticks": 16034,
          "time": 13.273179029166668,
          "value": -0.5875244140625
        },
        {
          "ticks": 16041,
          "time": 13.278973731250002,
          "value": -0.5888671875
        },
        {
          "ticks": 16049,
          "time": 13.285596247916668,
          "value": -0.590087890625
        },
        {
          "ticks": 16056,
          "time": 13.291390950000002,
          "value": -0.5914306640625
        },
        {
          "ticks": 16064,
          "time": 13.298013466666667,
          "value": -0.5927734375
        },
        {
          "ticks": 16071,
          "time": 13.30380816875,
          "value": -0.593994140625
        },
        {
          "ticks": 16079,
          "time": 13.310430685416668,
          "value": -0.5953369140625
        },
        {
          "ticks": 16086,
          "time": 13.316225387500001,
          "value": -0.5966796875
        },
        {
          "ticks": 16094,
          "time": 13.322847904166668,
          "value": -0.597900390625
        },
        {
          "ticks": 16101,
          "time": 13.328642606250002,
          "value": -0.5992431640625
        },
        {
          "ticks": 16109,
          "time": 13.335265122916669,
          "value": -0.6005859375
        },
        {
          "ticks": 16116,
          "time": 13.341059825000002,
          "value": -0.601806640625
        },
        {
          "ticks": 16124,
          "time": 13.347682341666667,
          "value": -0.6031494140625
        },
        {
          "ticks": 16131,
          "time": 13.35347704375,
          "value": -0.6043701171875
        },
        {
          "ticks": 16139,
          "time": 13.360099560416668,
          "value": -0.605712890625
        },
        {
          "ticks": 16146,
          "time": 13.365894262500001,
          "value": -0.6070556640625
        },
        {
          "ticks": 16154,
          "time": 13.372516779166668,
          "value": -0.6082763671875
        },
        {
          "ticks": 16161,
          "time": 13.378311481250002,
          "value": -0.609619140625
        },
        {
          "ticks": 16169,
          "time": 13.384933997916669,
          "value": -0.6109619140625
        },
        {
          "ticks": 16176,
          "time": 13.390728700000002,
          "value": -0.6121826171875
        },
        {
          "ticks": 16184,
          "time": 13.397351216666667,
          "value": -0.613525390625
        },
        {
          "ticks": 16191,
          "time": 13.40314591875,
          "value": -0.61474609375
        },
        {
          "ticks": 16199,
          "time": 13.409768435416668,
          "value": -0.6160888671875
        },
        {
          "ticks": 16206,
          "time": 13.415563137500001,
          "value": -0.617431640625
        },
        {
          "ticks": 16214,
          "time": 13.422185654166668,
          "value": -0.61865234375
        },
        {
          "ticks": 16221,
          "time": 13.427980356250002,
          "value": -0.6199951171875
        },
        {
          "ticks": 16229,
          "time": 13.434602872916667,
          "value": -0.621337890625
        },
        {
          "ticks": 16236,
          "time": 13.440397575000002,
          "value": -0.62255859375
        },
        {
          "ticks": 16244,
          "time": 13.447020091666667,
          "value": -0.6239013671875
        },
        {
          "ticks": 16251,
          "time": 13.45281479375,
          "value": -0.6251220703125
        },
        {
          "ticks": 16259,
          "time": 13.459437310416668,
          "value": -0.62646484375
        },
        {
          "ticks": 16266,
          "time": 13.465232012500001,
          "value": -0.6278076171875
        },
        {
          "ticks": 16274,
          "time": 13.471854529166668,
          "value": -0.6290283203125
        },
        {
          "ticks": 16281,
          "time": 13.477649231250002,
          "value": -0.63037109375
        },
        {
          "ticks": 16289,
          "time": 13.484271747916667,
          "value": -0.6317138671875
        },
        {
          "ticks": 16296,
          "time": 13.490066450000002,
          "value": -0.6329345703125
        },
        {
          "ticks": 16304,
          "time": 13.496688966666667,
          "value": -0.63427734375
        },
        {
          "ticks": 16311,
          "time": 13.502483668750001,
          "value": -0.635498046875
        },
        {
          "ticks": 16319,
          "time": 13.509106185416668,
          "value": -0.6368408203125
        },
        {
          "ticks": 16326,
          "time": 13.514900887500001,
          "value": -0.63818359375
        },
        {
          "ticks": 16334,
          "time": 13.521523404166668,
          "value": -0.639404296875
        },
        {
          "ticks": 16340,
          "time": 13.526490291666667,
          "value": -0.640625
        },
        {
          "ticks": 16348,
          "time": 13.533112808333332,
          "value": -0.60888671875
        },
        {
          "ticks": 16355,
          "time": 13.538907510416665,
          "value": -0.5771484375
        },
        {
          "ticks": 16363,
          "time": 13.545530027083332,
          "value": -0.54541015625
        },
        {
          "ticks": 16370,
          "time": 13.551324729166666,
          "value": -0.513671875
        },
        {
          "ticks": 16378,
          "time": 13.557947245833333,
          "value": -0.48193359375
        },
        {
          "ticks": 16385,
          "time": 13.563741947916666,
          "value": -0.4501953125
        },
        {
          "ticks": 16388,
          "time": 13.566225391666666,
          "value": -0.4375
        },
        {
          "ticks": 16396,
          "time": 13.572847908333333,
          "value": -0.369140625
        },
        {
          "ticks": 16403,
          "time": 13.578642610416667,
          "value": -0.30078125
        },
        {
          "ticks": 16411,
          "time": 13.585265127083334,
          "value": -0.232421875
        },
        {
          "ticks": 16412,
          "time": 13.586092941666669,
          "value": -0.21875
        },
        {
          "ticks": 16420,
          "time": 13.592715458333334,
          "value": -0.1978759765625
        },
        {
          "ticks": 16427,
          "time": 13.598510160416668,
          "value": -0.177001953125
        },
        {
          "ticks": 16435,
          "time": 13.605132677083335,
          "value": -0.156005859375
        },
        {
          "ticks": 16440,
          "time": 13.60927175,
          "value": -0.140625
        },
        {
          "ticks": 16448,
          "time": 13.615894266666666,
          "value": -0.111328125
        },
        {
          "ticks": 16455,
          "time": 13.62168896875,
          "value": -0.08203125
        },
        {
          "ticks": 16463,
          "time": 13.628311485416667,
          "value": -0.052734375
        },
        {
          "ticks": 16470,
          "time": 13.6341061875,
          "value": -0.0234375
        },
        {
          "ticks": 16476,
          "time": 13.639073075,
          "value": 0
        },
        {
          "ticks": 16484,
          "time": 13.645695591666668,
          "value": -0.002685546875
        },
        {
          "ticks": 16491,
          "time": 13.651490293750001,
          "value": -0.00537109375
        },
        {
          "ticks": 16499,
          "time": 13.658112810416668,
          "value": -0.008056640625
        },
        {
          "ticks": 16506,
          "time": 13.663907512500002,
          "value": -0.0107421875
        },
        {
          "ticks": 16514,
          "time": 13.670530029166668,
          "value": -0.013427734375
        },
        {
          "ticks": 16521,
          "time": 13.676324731250002,
          "value": -0.01611328125
        },
        {
          "ticks": 16529,
          "time": 13.682947247916667,
          "value": -0.018798828125
        },
        {
          "ticks": 16536,
          "time": 13.68874195,
          "value": -0.021484375
        },
        {
          "ticks": 16544,
          "time": 13.695364466666668,
          "value": -0.024169921875
        },
        {
          "ticks": 16551,
          "time": 13.701159168750001,
          "value": -0.02685546875
        },
        {
          "ticks": 16559,
          "time": 13.707781685416668,
          "value": -0.029541015625
        },
        {
          "ticks": 16566,
          "time": 13.713576387500002,
          "value": -0.0322265625
        },
        {
          "ticks": 16574,
          "time": 13.720198904166669,
          "value": -0.034912109375
        },
        {
          "ticks": 16581,
          "time": 13.725993606250002,
          "value": -0.03759765625
        },
        {
          "ticks": 16589,
          "time": 13.732616122916667,
          "value": -0.040283203125
        },
        {
          "ticks": 16596,
          "time": 13.738410825,
          "value": -0.0430908203125
        },
        {
          "ticks": 16604,
          "time": 13.745033341666668,
          "value": -0.0457763671875
        },
        {
          "ticks": 16611,
          "time": 13.750828043750001,
          "value": -0.0484619140625
        },
        {
          "ticks": 16619,
          "time": 13.757450560416668,
          "value": -0.0511474609375
        },
        {
          "ticks": 16626,
          "time": 13.763245262500002,
          "value": -0.0538330078125
        },
        {
          "ticks": 16634,
          "time": 13.769867779166669,
          "value": -0.0565185546875
        },
        {
          "ticks": 16641,
          "time": 13.775662481250002,
          "value": -0.0592041015625
        },
        {
          "ticks": 16649,
          "time": 13.782284997916667,
          "value": -0.0618896484375
        },
        {
          "ticks": 16656,
          "time": 13.7880797,
          "value": -0.0645751953125
        },
        {
          "ticks": 16664,
          "time": 13.794702216666668,
          "value": -0.0672607421875
        },
        {
          "ticks": 16671,
          "time": 13.800496918750001,
          "value": -0.0699462890625
        },
        {
          "ticks": 16679,
          "time": 13.807119435416668,
          "value": -0.0726318359375
        },
        {
          "ticks": 16686,
          "time": 13.812914137500002,
          "value": -0.0753173828125
        },
        {
          "ticks": 16694,
          "time": 13.819536654166667,
          "value": -0.0780029296875
        },
        {
          "ticks": 16701,
          "time": 13.825331356250002,
          "value": -0.0806884765625
        },
        {
          "ticks": 16709,
          "time": 13.831953872916667,
          "value": -0.0833740234375
        },
        {
          "ticks": 16716,
          "time": 13.837748575,
          "value": -0.086181640625
        },
        {
          "ticks": 16724,
          "time": 13.844371091666668,
          "value": -0.0888671875
        },
        {
          "ticks": 16731,
          "time": 13.850165793750001,
          "value": -0.091552734375
        },
        {
          "ticks": 16739,
          "time": 13.856788310416668,
          "value": -0.09423828125
        },
        {
          "ticks": 16746,
          "time": 13.862583012500002,
          "value": -0.096923828125
        },
        {
          "ticks": 16754,
          "time": 13.869205529166667,
          "value": -0.099609375
        },
        {
          "ticks": 16761,
          "time": 13.875000231250002,
          "value": -0.102294921875
        },
        {
          "ticks": 16769,
          "time": 13.881622747916667,
          "value": -0.10498046875
        },
        {
          "ticks": 16776,
          "time": 13.887417450000001,
          "value": -0.107666015625
        },
        {
          "ticks": 16784,
          "time": 13.894039966666668,
          "value": -0.1103515625
        },
        {
          "ticks": 16791,
          "time": 13.899834668750001,
          "value": -0.113037109375
        },
        {
          "ticks": 16799,
          "time": 13.906457185416668,
          "value": -0.11572265625
        },
        {
          "ticks": 16806,
          "time": 13.912251887500002,
          "value": -0.118408203125
        },
        {
          "ticks": 16814,
          "time": 13.918874404166667,
          "value": -0.12109375
        },
        {
          "ticks": 16821,
          "time": 13.924669106250002,
          "value": -0.123779296875
        },
        {
          "ticks": 16829,
          "time": 13.931291622916667,
          "value": -0.12646484375
        },
        {
          "ticks": 16836,
          "time": 13.937086325000001,
          "value": -0.1292724609375
        },
        {
          "ticks": 16844,
          "time": 13.943708841666668,
          "value": -0.1319580078125
        },
        {
          "ticks": 16851,
          "time": 13.949503543750001,
          "value": -0.1346435546875
        },
        {
          "ticks": 16859,
          "time": 13.956126060416668,
          "value": -0.1373291015625
        },
        {
          "ticks": 16866,
          "time": 13.961920762500002,
          "value": -0.1400146484375
        },
        {
          "ticks": 16874,
          "time": 13.968543279166667,
          "value": -0.1427001953125
        },
        {
          "ticks": 16881,
          "time": 13.97433798125,
          "value": -0.1453857421875
        },
        {
          "ticks": 16889,
          "time": 13.980960497916668,
          "value": -0.1480712890625
        },
        {
          "ticks": 16896,
          "time": 13.986755200000001,
          "value": -0.1507568359375
        },
        {
          "ticks": 16904,
          "time": 13.993377716666668,
          "value": -0.1534423828125
        },
        {
          "ticks": 16911,
          "time": 13.999172418750002,
          "value": -0.1561279296875
        },
        {
          "ticks": 16919,
          "time": 14.005794935416668,
          "value": -0.1588134765625
        },
        {
          "ticks": 16926,
          "time": 14.011589637500002,
          "value": -0.1614990234375
        },
        {
          "ticks": 16934,
          "time": 14.018212154166667,
          "value": -0.1641845703125
        },
        {
          "ticks": 16941,
          "time": 14.02400685625,
          "value": -0.1668701171875
        },
        {
          "ticks": 16949,
          "time": 14.030629372916668,
          "value": -0.1695556640625
        },
        {
          "ticks": 16956,
          "time": 14.036424075000001,
          "value": -0.17236328125
        },
        {
          "ticks": 16964,
          "time": 14.043046591666668,
          "value": -0.175048828125
        },
        {
          "ticks": 16971,
          "time": 14.048841293750002,
          "value": -0.177734375
        },
        {
          "ticks": 16979,
          "time": 14.055463810416668,
          "value": -0.180419921875
        },
        {
          "ticks": 16986,
          "time": 14.061258512500002,
          "value": -0.18310546875
        },
        {
          "ticks": 16994,
          "time": 14.067881029166667,
          "value": -0.185791015625
        },
        {
          "ticks": 17001,
          "time": 14.07367573125,
          "value": -0.1884765625
        },
        {
          "ticks": 17009,
          "time": 14.080298247916668,
          "value": -0.191162109375
        },
        {
          "ticks": 17016,
          "time": 14.086092950000001,
          "value": -0.19384765625
        },
        {
          "ticks": 17024,
          "time": 14.092715466666668,
          "value": -0.196533203125
        },
        {
          "ticks": 17031,
          "time": 14.098510168750002,
          "value": -0.19921875
        },
        {
          "ticks": 17039,
          "time": 14.105132685416669,
          "value": -0.201904296875
        },
        {
          "ticks": 17046,
          "time": 14.110927387500002,
          "value": -0.20458984375
        },
        {
          "ticks": 17054,
          "time": 14.117549904166667,
          "value": -0.207275390625
        },
        {
          "ticks": 17061,
          "time": 14.12334460625,
          "value": -0.2099609375
        },
        {
          "ticks": 17069,
          "time": 14.129967122916668,
          "value": -0.212646484375
        },
        {
          "ticks": 17076,
          "time": 14.135761825000001,
          "value": -0.2154541015625
        },
        {
          "ticks": 17084,
          "time": 14.142384341666668,
          "value": -0.2181396484375
        },
        {
          "ticks": 17091,
          "time": 14.148179043750002,
          "value": -0.2208251953125
        },
        {
          "ticks": 17099,
          "time": 14.154801560416669,
          "value": -0.2235107421875
        },
        {
          "ticks": 17106,
          "time": 14.160596262500002,
          "value": -0.2261962890625
        },
        {
          "ticks": 17114,
          "time": 14.167218779166667,
          "value": -0.2288818359375
        },
        {
          "ticks": 17121,
          "time": 14.17301348125,
          "value": -0.2315673828125
        },
        {
          "ticks": 17129,
          "time": 14.179635997916668,
          "value": -0.2342529296875
        },
        {
          "ticks": 17136,
          "time": 14.185430700000001,
          "value": -0.2369384765625
        },
        {
          "ticks": 17144,
          "time": 14.192053216666668,
          "value": -0.2396240234375
        },
        {
          "ticks": 17151,
          "time": 14.197847918750002,
          "value": -0.2423095703125
        },
        {
          "ticks": 17159,
          "time": 14.204470435416669,
          "value": -0.2449951171875
        },
        {
          "ticks": 17166,
          "time": 14.210265137500002,
          "value": -0.2476806640625
        },
        {
          "ticks": 17174,
          "time": 14.216887654166667,
          "value": -0.2503662109375
        },
        {
          "ticks": 17181,
          "time": 14.22268235625,
          "value": -0.2530517578125
        },
        {
          "ticks": 17189,
          "time": 14.229304872916668,
          "value": -0.2557373046875
        },
        {
          "ticks": 17196,
          "time": 14.235099575000001,
          "value": -0.258544921875
        },
        {
          "ticks": 17204,
          "time": 14.241722091666668,
          "value": -0.26123046875
        },
        {
          "ticks": 17211,
          "time": 14.247516793750002,
          "value": -0.263916015625
        },
        {
          "ticks": 17219,
          "time": 14.254139310416667,
          "value": -0.2666015625
        },
        {
          "ticks": 17226,
          "time": 14.259934012500002,
          "value": -0.269287109375
        },
        {
          "ticks": 17234,
          "time": 14.266556529166667,
          "value": -0.27197265625
        },
        {
          "ticks": 17241,
          "time": 14.272351231250001,
          "value": -0.274658203125
        },
        {
          "ticks": 17249,
          "time": 14.278973747916668,
          "value": -0.27734375
        },
        {
          "ticks": 17256,
          "time": 14.284768450000001,
          "value": -0.280029296875
        },
        {
          "ticks": 17264,
          "time": 14.291390966666668,
          "value": -0.28271484375
        },
        {
          "ticks": 17271,
          "time": 14.297185668750002,
          "value": -0.285400390625
        },
        {
          "ticks": 17279,
          "time": 14.303808185416667,
          "value": -0.2880859375
        },
        {
          "ticks": 17286,
          "time": 14.309602887500002,
          "value": -0.290771484375
        },
        {
          "ticks": 17294,
          "time": 14.316225404166667,
          "value": -0.29345703125
        },
        {
          "ticks": 17301,
          "time": 14.322020106250001,
          "value": -0.296142578125
        },
        {
          "ticks": 17309,
          "time": 14.328642622916668,
          "value": -0.298828125
        },
        {
          "ticks": 17316,
          "time": 14.334437325000001,
          "value": -0.3016357421875
        },
        {
          "ticks": 17324,
          "time": 14.341059841666668,
          "value": -0.3043212890625
        },
        {
          "ticks": 17331,
          "time": 14.346854543750002,
          "value": -0.3070068359375
        },
        {
          "ticks": 17339,
          "time": 14.353477060416667,
          "value": -0.3096923828125
        },
        {
          "ticks": 17346,
          "time": 14.359271762500002,
          "value": -0.3123779296875
        },
        {
          "ticks": 17354,
          "time": 14.365894279166668,
          "value": -0.3150634765625
        },
        {
          "ticks": 17361,
          "time": 14.371688981250001,
          "value": -0.3177490234375
        },
        {
          "ticks": 17369,
          "time": 14.378311497916668,
          "value": -0.3204345703125
        },
        {
          "ticks": 17376,
          "time": 14.384106200000002,
          "value": -0.3231201171875
        },
        {
          "ticks": 17384,
          "time": 14.390728716666668,
          "value": -0.3258056640625
        },
        {
          "ticks": 17391,
          "time": 14.396523418750002,
          "value": -0.3284912109375
        },
        {
          "ticks": 17399,
          "time": 14.403145935416667,
          "value": -0.3311767578125
        },
        {
          "ticks": 17406,
          "time": 14.4089406375,
          "value": -0.3338623046875
        },
        {
          "ticks": 17414,
          "time": 14.415563154166668,
          "value": -0.3365478515625
        },
        {
          "ticks": 17421,
          "time": 14.421357856250001,
          "value": -0.3392333984375
        },
        {
          "ticks": 17429,
          "time": 14.427980372916668,
          "value": -0.3419189453125
        },
        {
          "ticks": 17436,
          "time": 14.433775075000002,
          "value": -0.3447265625
        },
        {
          "ticks": 17444,
          "time": 14.440397591666668,
          "value": -0.347412109375
        },
        {
          "ticks": 17451,
          "time": 14.446192293750002,
          "value": -0.35009765625
        },
        {
          "ticks": 17459,
          "time": 14.452814810416667,
          "value": -0.352783203125
        },
        {
          "ticks": 17466,
          "time": 14.4586095125,
          "value": -0.35546875
        },
        {
          "ticks": 17474,
          "time": 14.465232029166668,
          "value": -0.358154296875
        },
        {
          "ticks": 17481,
          "time": 14.471026731250001,
          "value": -0.36083984375
        },
        {
          "ticks": 17489,
          "time": 14.477649247916668,
          "value": -0.363525390625
        },
        {
          "ticks": 17496,
          "time": 14.483443950000002,
          "value": -0.3662109375
        },
        {
          "ticks": 17504,
          "time": 14.490066466666669,
          "value": -0.368896484375
        },
        {
          "ticks": 17511,
          "time": 14.495861168750002,
          "value": -0.37158203125
        },
        {
          "ticks": 17519,
          "time": 14.502483685416667,
          "value": -0.374267578125
        },
        {
          "ticks": 17526,
          "time": 14.5082783875,
          "value": -0.376953125
        },
        {
          "ticks": 17534,
          "time": 14.514900904166668,
          "value": -0.379638671875
        },
        {
          "ticks": 17541,
          "time": 14.520695606250001,
          "value": -0.38232421875
        },
        {
          "ticks": 17549,
          "time": 14.527318122916668,
          "value": -0.385009765625
        },
        {
          "ticks": 17556,
          "time": 14.533112825000002,
          "value": -0.3878173828125
        },
        {
          "ticks": 17564,
          "time": 14.539735341666669,
          "value": -0.3905029296875
        },
        {
          "ticks": 17571,
          "time": 14.545530043750002,
          "value": -0.3931884765625
        },
        {
          "ticks": 17579,
          "time": 14.552152560416667,
          "value": -0.3958740234375
        },
        {
          "ticks": 17586,
          "time": 14.5579472625,
          "value": -0.3985595703125
        },
        {
          "ticks": 17594,
          "time": 14.564569779166668,
          "value": -0.4012451171875
        },
        {
          "ticks": 17601,
          "time": 14.570364481250001,
          "value": -0.4039306640625
        },
        {
          "ticks": 17609,
          "time": 14.576986997916668,
          "value": -0.4066162109375
        },
        {
          "ticks": 17616,
          "time": 14.582781700000002,
          "value": -0.4093017578125
        },
        {
          "ticks": 17624,
          "time": 14.589404216666669,
          "value": -0.4119873046875
        },
        {
          "ticks": 17631,
          "time": 14.595198918750002,
          "value": -0.4146728515625
        },
        {
          "ticks": 17639,
          "time": 14.601821435416667,
          "value": -0.4173583984375
        },
        {
          "ticks": 17646,
          "time": 14.6076161375,
          "value": -0.4200439453125
        },
        {
          "ticks": 17654,
          "time": 14.614238654166668,
          "value": -0.4227294921875
        },
        {
          "ticks": 17661,
          "time": 14.620033356250001,
          "value": -0.4254150390625
        },
        {
          "ticks": 17669,
          "time": 14.626655872916668,
          "value": -0.4281005859375
        },
        {
          "ticks": 17676,
          "time": 14.632450575000002,
          "value": -0.430908203125
        },
        {
          "ticks": 17684,
          "time": 14.639073091666667,
          "value": -0.43359375
        },
        {
          "ticks": 17691,
          "time": 14.644867793750002,
          "value": -0.436279296875
        },
        {
          "ticks": 17699,
          "time": 14.651490310416667,
          "value": -0.43896484375
        },
        {
          "ticks": 17706,
          "time": 14.657285012500001,
          "value": -0.441650390625
        },
        {
          "ticks": 17714,
          "time": 14.663907529166668,
          "value": -0.4443359375
        },
        {
          "ticks": 17721,
          "time": 14.669702231250001,
          "value": -0.447021484375
        },
        {
          "ticks": 17729,
          "time": 14.676324747916668,
          "value": -0.44970703125
        },
        {
          "ticks": 17736,
          "time": 14.682119450000002,
          "value": -0.452392578125
        },
        {
          "ticks": 17744,
          "time": 14.688741966666667,
          "value": -0.455078125
        },
        {
          "ticks": 17751,
          "time": 14.694536668750002,
          "value": -0.457763671875
        },
        {
          "ticks": 17759,
          "time": 14.701159185416667,
          "value": -0.46044921875
        },
        {
          "ticks": 17766,
          "time": 14.706953887500001,
          "value": -0.463134765625
        },
        {
          "ticks": 17774,
          "time": 14.713576404166668,
          "value": -0.4658203125
        },
        {
          "ticks": 17781,
          "time": 14.719371106250001,
          "value": -0.468505859375
        },
        {
          "ticks": 17789,
          "time": 14.725993622916668,
          "value": -0.47119140625
        },
        {
          "ticks": 17796,
          "time": 14.731788325000002,
          "value": -0.4739990234375
        },
        {
          "ticks": 17804,
          "time": 14.738410841666667,
          "value": -0.4766845703125
        },
        {
          "ticks": 17811,
          "time": 14.744205543750002,
          "value": -0.4793701171875
        },
        {
          "ticks": 17819,
          "time": 14.750828060416667,
          "value": -0.4820556640625
        },
        {
          "ticks": 17826,
          "time": 14.756622762500001,
          "value": -0.4847412109375
        },
        {
          "ticks": 17834,
          "time": 14.763245279166668,
          "value": -0.4874267578125
        },
        {
          "ticks": 17841,
          "time": 14.769039981250002,
          "value": -0.4901123046875
        },
        {
          "ticks": 17849,
          "time": 14.775662497916668,
          "value": -0.4927978515625
        },
        {
          "ticks": 17856,
          "time": 14.781457200000002,
          "value": -0.4954833984375
        },
        {
          "ticks": 17864,
          "time": 14.788079716666667,
          "value": -0.4981689453125
        },
        {
          "ticks": 17871,
          "time": 14.79387441875,
          "value": -0.5008544921875
        },
        {
          "ticks": 17879,
          "time": 14.800496935416668,
          "value": -0.5035400390625
        },
        {
          "ticks": 17886,
          "time": 14.806291637500001,
          "value": -0.5062255859375
        },
        {
          "ticks": 17894,
          "time": 14.812914154166668,
          "value": -0.5089111328125
        },
        {
          "ticks": 17901,
          "time": 14.818708856250002,
          "value": -0.5115966796875
        },
        {
          "ticks": 17909,
          "time": 14.825331372916668,
          "value": -0.5142822265625
        },
        {
          "ticks": 17916,
          "time": 14.831126075000002,
          "value": -0.51708984375
        },
        {
          "ticks": 17924,
          "time": 14.837748591666667,
          "value": -0.519775390625
        },
        {
          "ticks": 17931,
          "time": 14.84354329375,
          "value": -0.5224609375
        },
        {
          "ticks": 17939,
          "time": 14.850165810416668,
          "value": -0.525146484375
        },
        {
          "ticks": 17946,
          "time": 14.855960512500001,
          "value": -0.52783203125
        },
        {
          "ticks": 17954,
          "time": 14.862583029166668,
          "value": -0.530517578125
        },
        {
          "ticks": 17961,
          "time": 14.868377731250002,
          "value": -0.533203125
        },
        {
          "ticks": 17969,
          "time": 14.875000247916669,
          "value": -0.535888671875
        },
        {
          "ticks": 17976,
          "time": 14.880794950000002,
          "value": -0.53857421875
        },
        {
          "ticks": 17984,
          "time": 14.887417466666667,
          "value": -0.541259765625
        },
        {
          "ticks": 17991,
          "time": 14.89321216875,
          "value": -0.5439453125
        },
        {
          "ticks": 17999,
          "time": 14.899834685416668,
          "value": -0.546630859375
        },
        {
          "ticks": 18006,
          "time": 14.905629387500001,
          "value": -0.54931640625
        },
        {
          "ticks": 18014,
          "time": 14.912251904166668,
          "value": -0.552001953125
        },
        {
          "ticks": 18021,
          "time": 14.918046606250002,
          "value": -0.5546875
        },
        {
          "ticks": 18029,
          "time": 14.924669122916669,
          "value": -0.557373046875
        },
        {
          "ticks": 18036,
          "time": 14.930463825000002,
          "value": -0.5601806640625
        },
        {
          "ticks": 18044,
          "time": 14.937086341666667,
          "value": -0.5628662109375
        },
        {
          "ticks": 18051,
          "time": 14.94288104375,
          "value": -0.5655517578125
        },
        {
          "ticks": 18059,
          "time": 14.949503560416668,
          "value": -0.5682373046875
        },
        {
          "ticks": 18066,
          "time": 14.955298262500001,
          "value": -0.5709228515625
        },
        {
          "ticks": 18074,
          "time": 14.961920779166668,
          "value": -0.5736083984375
        },
        {
          "ticks": 18081,
          "time": 14.967715481250002,
          "value": -0.5762939453125
        },
        {
          "ticks": 18089,
          "time": 14.974337997916669,
          "value": -0.5789794921875
        },
        {
          "ticks": 18096,
          "time": 14.980132700000002,
          "value": -0.5816650390625
        },
        {
          "ticks": 18104,
          "time": 14.986755216666667,
          "value": -0.5843505859375
        },
        {
          "ticks": 18111,
          "time": 14.99254991875,
          "value": -0.5870361328125
        },
        {
          "ticks": 18119,
          "time": 14.999172435416668,
          "value": -0.5897216796875
        },
        {
          "ticks": 18126,
          "time": 15.004967137500001,
          "value": -0.5924072265625
        },
        {
          "ticks": 18134,
          "time": 15.011589654166668,
          "value": -0.5950927734375
        },
        {
          "ticks": 18141,
          "time": 15.017384356250002,
          "value": -0.5977783203125
        },
        {
          "ticks": 18149,
          "time": 15.024006872916667,
          "value": -0.6005859375
        },
        {
          "ticks": 18156,
          "time": 15.029801575000002,
          "value": -0.603271484375
        },
        {
          "ticks": 18164,
          "time": 15.036424091666667,
          "value": -0.60595703125
        },
        {
          "ticks": 18171,
          "time": 15.042218793750001,
          "value": -0.608642578125
        },
        {
          "ticks": 18179,
          "time": 15.048841310416668,
          "value": -0.611328125
        },
        {
          "ticks": 18186,
          "time": 15.054636012500001,
          "value": -0.614013671875
        },
        {
          "ticks": 18194,
          "time": 15.061258529166668,
          "value": -0.61669921875
        },
        {
          "ticks": 18201,
          "time": 15.067053231250002,
          "value": -0.619384765625
        },
        {
          "ticks": 18209,
          "time": 15.073675747916667,
          "value": -0.6220703125
        },
        {
          "ticks": 18216,
          "time": 15.079470450000002,
          "value": -0.624755859375
        },
        {
          "ticks": 18224,
          "time": 15.086092966666667,
          "value": -0.62744140625
        },
        {
          "ticks": 18231,
          "time": 15.091887668750001,
          "value": -0.630126953125
        },
        {
          "ticks": 18239,
          "time": 15.098510185416668,
          "value": -0.6328125
        },
        {
          "ticks": 18246,
          "time": 15.104304887500001,
          "value": -0.635498046875
        },
        {
          "ticks": 18254,
          "time": 15.110927404166668,
          "value": -0.63818359375
        },
        {
          "ticks": 18260,
          "time": 15.115894291666667,
          "value": -0.640625
        },
        {
          "ticks": 18268,
          "time": 15.122516808333332,
          "value": -0.60888671875
        },
        {
          "ticks": 18275,
          "time": 15.128311510416665,
          "value": -0.5771484375
        },
        {
          "ticks": 18283,
          "time": 15.134934027083332,
          "value": -0.54541015625
        },
        {
          "ticks": 18290,
          "time": 15.140728729166666,
          "value": -0.513671875
        },
        {
          "ticks": 18298,
          "time": 15.147351245833333,
          "value": -0.48193359375
        },
        {
          "ticks": 18305,
          "time": 15.153145947916666,
          "value": -0.4501953125
        },
        {
          "ticks": 18308,
          "time": 15.155629391666666,
          "value": -0.4375
        },
        {
          "ticks": 18316,
          "time": 15.162251908333333,
          "value": -0.369140625
        },
        {
          "ticks": 18323,
          "time": 15.168046610416667,
          "value": -0.30078125
        },
        {
          "ticks": 18331,
          "time": 15.174669127083334,
          "value": -0.232421875
        },
        {
          "ticks": 18332,
          "time": 15.175496941666669,
          "value": -0.21875
        },
        {
          "ticks": 18340,
          "time": 15.182119458333334,
          "value": -0.1978759765625
        },
        {
          "ticks": 18347,
          "time": 15.187914160416668,
          "value": -0.177001953125
        },
        {
          "ticks": 18355,
          "time": 15.194536677083335,
          "value": -0.156005859375
        },
        {
          "ticks": 18360,
          "time": 15.19867575,
          "value": -0.140625
        },
        {
          "ticks": 18368,
          "time": 15.205298266666667,
          "value": -0.111328125
        },
        {
          "ticks": 18375,
          "time": 15.21109296875,
          "value": -0.08203125
        },
        {
          "ticks": 18383,
          "time": 15.217715485416667,
          "value": -0.052734375
        },
        {
          "ticks": 18390,
          "time": 15.2235101875,
          "value": -0.0234375
        },
        {
          "ticks": 18396,
          "time": 15.228477075,
          "value": 0
        },
        {
          "ticks": 18404,
          "time": 15.235099591666668,
          "value": -0.00146484375
        },
        {
          "ticks": 18411,
          "time": 15.240894293750001,
          "value": -0.0029296875
        },
        {
          "ticks": 18419,
          "time": 15.247516810416668,
          "value": -0.00439453125
        },
        {
          "ticks": 18426,
          "time": 15.253311512500002,
          "value": -0.005859375
        },
        {
          "ticks": 18434,
          "time": 15.259934029166669,
          "value": -0.0074462890625
        },
        {
          "ticks": 18441,
          "time": 15.265728731250002,
          "value": -0.0089111328125
        },
        {
          "ticks": 18449,
          "time": 15.272351247916667,
          "value": -0.0103759765625
        },
        {
          "ticks": 18456,
          "time": 15.27814595,
          "value": -0.0118408203125
        },
        {
          "ticks": 18464,
          "time": 15.284768466666668,
          "value": -0.0133056640625
        },
        {
          "ticks": 18471,
          "time": 15.290563168750001,
          "value": -0.014892578125
        },
        {
          "ticks": 18479,
          "time": 15.297185685416668,
          "value": -0.016357421875
        },
        {
          "ticks": 18486,
          "time": 15.302980387500002,
          "value": -0.017822265625
        },
        {
          "ticks": 18494,
          "time": 15.309602904166669,
          "value": -0.019287109375
        },
        {
          "ticks": 18501,
          "time": 15.315397606250002,
          "value": -0.020751953125
        },
        {
          "ticks": 18509,
          "time": 15.322020122916667,
          "value": -0.0223388671875
        },
        {
          "ticks": 18516,
          "time": 15.327814825,
          "value": -0.0238037109375
        },
        {
          "ticks": 18524,
          "time": 15.334437341666668,
          "value": -0.0252685546875
        },
        {
          "ticks": 18531,
          "time": 15.340232043750001,
          "value": -0.0267333984375
        },
        {
          "ticks": 18539,
          "time": 15.346854560416668,
          "value": -0.0281982421875
        },
        {
          "ticks": 18546,
          "time": 15.352649262500002,
          "value": -0.02978515625
        },
        {
          "ticks": 18554,
          "time": 15.359271779166669,
          "value": -0.03125
        },
        {
          "ticks": 18561,
          "time": 15.365066481250002,
          "value": -0.03271484375
        },
        {
          "ticks": 18569,
          "time": 15.371688997916667,
          "value": -0.0341796875
        },
        {
          "ticks": 18576,
          "time": 15.3774837,
          "value": -0.0357666015625
        },
        {
          "ticks": 18584,
          "time": 15.384106216666668,
          "value": -0.0372314453125
        },
        {
          "ticks": 18591,
          "time": 15.389900918750001,
          "value": -0.0386962890625
        },
        {
          "ticks": 18599,
          "time": 15.396523435416668,
          "value": -0.0401611328125
        },
        {
          "ticks": 18606,
          "time": 15.402318137500002,
          "value": -0.0416259765625
        },
        {
          "ticks": 18614,
          "time": 15.408940654166667,
          "value": -0.043212890625
        },
        {
          "ticks": 18621,
          "time": 15.414735356250002,
          "value": -0.044677734375
        },
        {
          "ticks": 18629,
          "time": 15.421357872916667,
          "value": -0.046142578125
        },
        {
          "ticks": 18636,
          "time": 15.427152575000001,
          "value": -0.047607421875
        },
        {
          "ticks": 18644,
          "time": 15.433775091666668,
          "value": -0.049072265625
        },
        {
          "ticks": 18651,
          "time": 15.439569793750001,
          "value": -0.0506591796875
        },
        {
          "ticks": 18659,
          "time": 15.446192310416668,
          "value": -0.0521240234375
        },
        {
          "ticks": 18666,
          "time": 15.451987012500002,
          "value": -0.0535888671875
        },
        {
          "ticks": 18674,
          "time": 15.458609529166667,
          "value": -0.0550537109375
        },
        {
          "ticks": 18681,
          "time": 15.464404231250002,
          "value": -0.0565185546875
        },
        {
          "ticks": 18689,
          "time": 15.471026747916667,
          "value": -0.05810546875
        },
        {
          "ticks": 18696,
          "time": 15.476821450000001,
          "value": -0.0595703125
        },
        {
          "ticks": 18704,
          "time": 15.483443966666668,
          "value": -0.06103515625
        },
        {
          "ticks": 18711,
          "time": 15.489238668750001,
          "value": -0.0625
        },
        {
          "ticks": 18719,
          "time": 15.495861185416668,
          "value": -0.06396484375
        },
        {
          "ticks": 18726,
          "time": 15.501655887500002,
          "value": -0.0655517578125
        },
        {
          "ticks": 18734,
          "time": 15.508278404166667,
          "value": -0.0670166015625
        },
        {
          "ticks": 18741,
          "time": 15.514073106250002,
          "value": -0.0684814453125
        },
        {
          "ticks": 18749,
          "time": 15.520695622916667,
          "value": -0.0699462890625
        },
        {
          "ticks": 18756,
          "time": 15.526490325000001,
          "value": -0.071533203125
        },
        {
          "ticks": 18764,
          "time": 15.533112841666668,
          "value": -0.072998046875
        },
        {
          "ticks": 18771,
          "time": 15.538907543750001,
          "value": -0.074462890625
        },
        {
          "ticks": 18779,
          "time": 15.545530060416668,
          "value": -0.075927734375
        },
        {
          "ticks": 18786,
          "time": 15.551324762500002,
          "value": -0.077392578125
        },
        {
          "ticks": 18794,
          "time": 15.557947279166667,
          "value": -0.0789794921875
        },
        {
          "ticks": 18801,
          "time": 15.56374198125,
          "value": -0.0804443359375
        },
        {
          "ticks": 18809,
          "time": 15.570364497916668,
          "value": -0.0819091796875
        },
        {
          "ticks": 18816,
          "time": 15.576159200000001,
          "value": -0.0833740234375
        },
        {
          "ticks": 18824,
          "time": 15.582781716666668,
          "value": -0.0848388671875
        },
        {
          "ticks": 18831,
          "time": 15.588576418750002,
          "value": -0.08642578125
        },
        {
          "ticks": 18839,
          "time": 15.595198935416668,
          "value": -0.087890625
        },
        {
          "ticks": 18846,
          "time": 15.600993637500002,
          "value": -0.08935546875
        },
        {
          "ticks": 18854,
          "time": 15.607616154166667,
          "value": -0.0908203125
        },
        {
          "ticks": 18861,
          "time": 15.61341085625,
          "value": -0.09228515625
        },
        {
          "ticks": 18869,
          "time": 15.620033372916668,
          "value": -0.0938720703125
        },
        {
          "ticks": 18876,
          "time": 15.625828075000001,
          "value": -0.0953369140625
        },
        {
          "ticks": 18884,
          "time": 15.632450591666668,
          "value": -0.0968017578125
        },
        {
          "ticks": 18891,
          "time": 15.638245293750002,
          "value": -0.0982666015625
        },
        {
          "ticks": 18899,
          "time": 15.644867810416669,
          "value": -0.0997314453125
        },
        {
          "ticks": 18906,
          "time": 15.650662512500002,
          "value": -0.101318359375
        },
        {
          "ticks": 18914,
          "time": 15.657285029166667,
          "value": -0.102783203125
        },
        {
          "ticks": 18921,
          "time": 15.66307973125,
          "value": -0.104248046875
        },
        {
          "ticks": 18929,
          "time": 15.669702247916668,
          "value": -0.105712890625
        },
        {
          "ticks": 18936,
          "time": 15.675496950000001,
          "value": -0.1072998046875
        },
        {
          "ticks": 18944,
          "time": 15.682119466666668,
          "value": -0.1087646484375
        },
        {
          "ticks": 18951,
          "time": 15.687914168750002,
          "value": -0.1102294921875
        },
        {
          "ticks": 18959,
          "time": 15.694536685416669,
          "value": -0.1116943359375
        },
        {
          "ticks": 18966,
          "time": 15.700331387500002,
          "value": -0.1131591796875
        },
        {
          "ticks": 18974,
          "time": 15.706953904166667,
          "value": -0.11474609375
        },
        {
          "ticks": 18981,
          "time": 15.71274860625,
          "value": -0.1162109375
        },
        {
          "ticks": 18989,
          "time": 15.719371122916668,
          "value": -0.11767578125
        },
        {
          "ticks": 18996,
          "time": 15.725165825000001,
          "value": -0.119140625
        },
        {
          "ticks": 19004,
          "time": 15.731788341666668,
          "value": -0.12060546875
        },
        {
          "ticks": 19011,
          "time": 15.737583043750002,
          "value": -0.1221923828125
        },
        {
          "ticks": 19019,
          "time": 15.744205560416669,
          "value": -0.1236572265625
        },
        {
          "ticks": 19026,
          "time": 15.750000262500002,
          "value": -0.1251220703125
        },
        {
          "ticks": 19034,
          "time": 15.756622779166667,
          "value": -0.1265869140625
        },
        {
          "ticks": 19041,
          "time": 15.76241748125,
          "value": -0.1280517578125
        },
        {
          "ticks": 19049,
          "time": 15.769039997916668,
          "value": -0.129638671875
        },
        {
          "ticks": 19056,
          "time": 15.774834700000001,
          "value": -0.131103515625
        },
        {
          "ticks": 19064,
          "time": 15.781457216666668,
          "value": -0.132568359375
        },
        {
          "ticks": 19071,
          "time": 15.787251918750002,
          "value": -0.134033203125
        },
        {
          "ticks": 19079,
          "time": 15.793874435416669,
          "value": -0.135498046875
        },
        {
          "ticks": 19086,
          "time": 15.799669137500002,
          "value": -0.1370849609375
        },
        {
          "ticks": 19094,
          "time": 15.806291654166667,
          "value": -0.1385498046875
        },
        {
          "ticks": 19101,
          "time": 15.812086356250001,
          "value": -0.1400146484375
        },
        {
          "ticks": 19109,
          "time": 15.818708872916668,
          "value": -0.1414794921875
        },
        {
          "ticks": 19116,
          "time": 15.824503575000001,
          "value": -0.14306640625
        },
        {
          "ticks": 19124,
          "time": 15.831126091666668,
          "value": -0.14453125
        },
        {
          "ticks": 19131,
          "time": 15.836920793750002,
          "value": -0.14599609375
        },
        {
          "ticks": 19139,
          "time": 15.843543310416667,
          "value": -0.1474609375
        },
        {
          "ticks": 19146,
          "time": 15.849338012500002,
          "value": -0.14892578125
        },
        {
          "ticks": 19154,
          "time": 15.855960529166667,
          "value": -0.1505126953125
        },
        {
          "ticks": 19161,
          "time": 15.861755231250001,
          "value": -0.1519775390625
        },
        {
          "ticks": 19169,
          "time": 15.868377747916668,
          "value": -0.1534423828125
        },
        {
          "ticks": 19176,
          "time": 15.874172450000001,
          "value": -0.1549072265625
        },
        {
          "ticks": 19184,
          "time": 15.880794966666668,
          "value": -0.1563720703125
        },
        {
          "ticks": 19191,
          "time": 15.886589668750002,
          "value": -0.157958984375
        },
        {
          "ticks": 19199,
          "time": 15.893212185416667,
          "value": -0.159423828125
        },
        {
          "ticks": 19206,
          "time": 15.899006887500002,
          "value": -0.160888671875
        },
        {
          "ticks": 19214,
          "time": 15.905629404166667,
          "value": -0.162353515625
        },
        {
          "ticks": 19221,
          "time": 15.911424106250001,
          "value": -0.163818359375
        },
        {
          "ticks": 19229,
          "time": 15.918046622916668,
          "value": -0.1654052734375
        },
        {
          "ticks": 19236,
          "time": 15.923841325000001,
          "value": -0.1668701171875
        },
        {
          "ticks": 19244,
          "time": 15.930463841666668,
          "value": -0.1683349609375
        },
        {
          "ticks": 19251,
          "time": 15.936258543750002,
          "value": -0.1697998046875
        },
        {
          "ticks": 19259,
          "time": 15.942881060416667,
          "value": -0.1712646484375
        },
        {
          "ticks": 19266,
          "time": 15.948675762500002,
          "value": -0.1728515625
        },
        {
          "ticks": 19274,
          "time": 15.955298279166668,
          "value": -0.17431640625
        },
        {
          "ticks": 19281,
          "time": 15.961092981250001,
          "value": -0.17578125
        },
        {
          "ticks": 19289,
          "time": 15.967715497916668,
          "value": -0.17724609375
        },
        {
          "ticks": 19296,
          "time": 15.973510200000002,
          "value": -0.1788330078125
        },
        {
          "ticks": 19304,
          "time": 15.980132716666668,
          "value": -0.1802978515625
        },
        {
          "ticks": 19311,
          "time": 15.985927418750002,
          "value": -0.1817626953125
        },
        {
          "ticks": 19319,
          "time": 15.992549935416667,
          "value": -0.1832275390625
        },
        {
          "ticks": 19326,
          "time": 15.9983446375,
          "value": -0.1846923828125
        },
        {
          "ticks": 19334,
          "time": 16.004967154166668,
          "value": -0.186279296875
        },
        {
          "ticks": 19341,
          "time": 16.010761856250003,
          "value": -0.187744140625
        },
        {
          "ticks": 19349,
          "time": 16.017384372916666,
          "value": -0.189208984375
        },
        {
          "ticks": 19356,
          "time": 16.023179075,
          "value": -0.190673828125
        },
        {
          "ticks": 19364,
          "time": 16.02980159166667,
          "value": -0.192138671875
        },
        {
          "ticks": 19371,
          "time": 16.03559629375,
          "value": -0.1937255859375
        },
        {
          "ticks": 19379,
          "time": 16.042218810416667,
          "value": -0.1951904296875
        },
        {
          "ticks": 19386,
          "time": 16.048013512500003,
          "value": -0.1966552734375
        },
        {
          "ticks": 19394,
          "time": 16.05463602916667,
          "value": -0.1981201171875
        },
        {
          "ticks": 19401,
          "time": 16.06043073125,
          "value": -0.1995849609375
        },
        {
          "ticks": 19409,
          "time": 16.067053247916668,
          "value": -0.201171875
        },
        {
          "ticks": 19416,
          "time": 16.07284795,
          "value": -0.20263671875
        },
        {
          "ticks": 19424,
          "time": 16.079470466666667,
          "value": -0.2041015625
        },
        {
          "ticks": 19431,
          "time": 16.085265168750002,
          "value": -0.20556640625
        },
        {
          "ticks": 19439,
          "time": 16.09188768541667,
          "value": -0.20703125
        },
        {
          "ticks": 19446,
          "time": 16.0976823875,
          "value": -0.2086181640625
        },
        {
          "ticks": 19454,
          "time": 16.104304904166668,
          "value": -0.2100830078125
        },
        {
          "ticks": 19461,
          "time": 16.110099606250003,
          "value": -0.2115478515625
        },
        {
          "ticks": 19469,
          "time": 16.116722122916666,
          "value": -0.2130126953125
        },
        {
          "ticks": 19476,
          "time": 16.122516825,
          "value": -0.214599609375
        },
        {
          "ticks": 19484,
          "time": 16.12913934166667,
          "value": -0.216064453125
        },
        {
          "ticks": 19491,
          "time": 16.13493404375,
          "value": -0.217529296875
        },
        {
          "ticks": 19499,
          "time": 16.141556560416667,
          "value": -0.218994140625
        },
        {
          "ticks": 19506,
          "time": 16.147351262500003,
          "value": -0.220458984375
        },
        {
          "ticks": 19514,
          "time": 16.15397377916667,
          "value": -0.2220458984375
        },
        {
          "ticks": 19521,
          "time": 16.15976848125,
          "value": -0.2235107421875
        },
        {
          "ticks": 19529,
          "time": 16.16639099791667,
          "value": -0.2249755859375
        },
        {
          "ticks": 19536,
          "time": 16.1721857,
          "value": -0.2264404296875
        },
        {
          "ticks": 19544,
          "time": 16.178808216666667,
          "value": -0.2279052734375
        },
        {
          "ticks": 19551,
          "time": 16.184602918750002,
          "value": -0.2294921875
        },
        {
          "ticks": 19559,
          "time": 16.19122543541667,
          "value": -0.23095703125
        },
        {
          "ticks": 19566,
          "time": 16.1970201375,
          "value": -0.232421875
        },
        {
          "ticks": 19574,
          "time": 16.203642654166668,
          "value": -0.23388671875
        },
        {
          "ticks": 19581,
          "time": 16.209437356250003,
          "value": -0.2353515625
        },
        {
          "ticks": 19589,
          "time": 16.216059872916667,
          "value": -0.2369384765625
        },
        {
          "ticks": 19596,
          "time": 16.221854575000002,
          "value": -0.2384033203125
        },
        {
          "ticks": 19604,
          "time": 16.22847709166667,
          "value": -0.2398681640625
        },
        {
          "ticks": 19611,
          "time": 16.23427179375,
          "value": -0.2413330078125
        },
        {
          "ticks": 19619,
          "time": 16.240894310416667,
          "value": -0.2427978515625
        },
        {
          "ticks": 19626,
          "time": 16.246689012500003,
          "value": -0.244384765625
        },
        {
          "ticks": 19634,
          "time": 16.253311529166666,
          "value": -0.245849609375
        },
        {
          "ticks": 19641,
          "time": 16.25910623125,
          "value": -0.247314453125
        },
        {
          "ticks": 19649,
          "time": 16.26572874791667,
          "value": -0.248779296875
        },
        {
          "ticks": 19656,
          "time": 16.27152345,
          "value": -0.2503662109375
        },
        {
          "ticks": 19664,
          "time": 16.278145966666667,
          "value": -0.2518310546875
        },
        {
          "ticks": 19671,
          "time": 16.283940668750002,
          "value": -0.2532958984375
        },
        {
          "ticks": 19679,
          "time": 16.29056318541667,
          "value": -0.2547607421875
        },
        {
          "ticks": 19686,
          "time": 16.2963578875,
          "value": -0.2562255859375
        },
        {
          "ticks": 19694,
          "time": 16.302980404166668,
          "value": -0.2578125
        },
        {
          "ticks": 19701,
          "time": 16.308775106250003,
          "value": -0.25927734375
        },
        {
          "ticks": 19709,
          "time": 16.315397622916667,
          "value": -0.2607421875
        },
        {
          "ticks": 19716,
          "time": 16.321192325000002,
          "value": -0.26220703125
        },
        {
          "ticks": 19724,
          "time": 16.32781484166667,
          "value": -0.263671875
        },
        {
          "ticks": 19731,
          "time": 16.33360954375,
          "value": -0.2652587890625
        },
        {
          "ticks": 19739,
          "time": 16.340232060416668,
          "value": -0.2667236328125
        },
        {
          "ticks": 19746,
          "time": 16.346026762500003,
          "value": -0.2681884765625
        },
        {
          "ticks": 19754,
          "time": 16.352649279166666,
          "value": -0.2696533203125
        },
        {
          "ticks": 19761,
          "time": 16.35844398125,
          "value": -0.2711181640625
        },
        {
          "ticks": 19769,
          "time": 16.36506649791667,
          "value": -0.272705078125
        },
        {
          "ticks": 19776,
          "time": 16.3708612,
          "value": -0.274169921875
        },
        {
          "ticks": 19784,
          "time": 16.377483716666667,
          "value": -0.275634765625
        },
        {
          "ticks": 19791,
          "time": 16.383278418750002,
          "value": -0.277099609375
        },
        {
          "ticks": 19799,
          "time": 16.38990093541667,
          "value": -0.278564453125
        },
        {
          "ticks": 19806,
          "time": 16.3956956375,
          "value": -0.2801513671875
        },
        {
          "ticks": 19814,
          "time": 16.402318154166668,
          "value": -0.2816162109375
        },
        {
          "ticks": 19821,
          "time": 16.40811285625,
          "value": -0.2830810546875
        },
        {
          "ticks": 19829,
          "time": 16.414735372916667,
          "value": -0.2845458984375
        },
        {
          "ticks": 19836,
          "time": 16.420530075000002,
          "value": -0.2861328125
        },
        {
          "ticks": 19844,
          "time": 16.42715259166667,
          "value": -0.28759765625
        },
        {
          "ticks": 19851,
          "time": 16.43294729375,
          "value": -0.2890625
        },
        {
          "ticks": 19859,
          "time": 16.439569810416668,
          "value": -0.29052734375
        },
        {
          "ticks": 19866,
          "time": 16.445364512500003,
          "value": -0.2919921875
        },
        {
          "ticks": 19874,
          "time": 16.451987029166666,
          "value": -0.2935791015625
        },
        {
          "ticks": 19881,
          "time": 16.45778173125,
          "value": -0.2950439453125
        },
        {
          "ticks": 19889,
          "time": 16.46440424791667,
          "value": -0.2965087890625
        },
        {
          "ticks": 19896,
          "time": 16.47019895,
          "value": -0.2979736328125
        },
        {
          "ticks": 19904,
          "time": 16.476821466666667,
          "value": -0.2994384765625
        },
        {
          "ticks": 19911,
          "time": 16.482616168750003,
          "value": -0.301025390625
        },
        {
          "ticks": 19919,
          "time": 16.48923868541667,
          "value": -0.302490234375
        },
        {
          "ticks": 19926,
          "time": 16.4950333875,
          "value": -0.303955078125
        },
        {
          "ticks": 19934,
          "time": 16.501655904166668,
          "value": -0.305419921875
        },
        {
          "ticks": 19941,
          "time": 16.50745060625,
          "value": -0.306884765625
        },
        {
          "ticks": 19949,
          "time": 16.514073122916667,
          "value": -0.3084716796875
        },
        {
          "ticks": 19956,
          "time": 16.519867825000002,
          "value": -0.3099365234375
        },
        {
          "ticks": 19964,
          "time": 16.52649034166667,
          "value": -0.3114013671875
        },
        {
          "ticks": 19971,
          "time": 16.53228504375,
          "value": -0.3128662109375
        },
        {
          "ticks": 19979,
          "time": 16.538907560416668,
          "value": -0.3143310546875
        },
        {
          "ticks": 19986,
          "time": 16.544702262500003,
          "value": -0.31591796875
        },
        {
          "ticks": 19994,
          "time": 16.551324779166666,
          "value": -0.3173828125
        },
        {
          "ticks": 20001,
          "time": 16.55711948125,
          "value": -0.31884765625
        },
        {
          "ticks": 20009,
          "time": 16.56374199791667,
          "value": -0.3203125
        },
        {
          "ticks": 20016,
          "time": 16.5695367,
          "value": -0.3218994140625
        },
        {
          "ticks": 20024,
          "time": 16.576159216666667,
          "value": -0.3233642578125
        },
        {
          "ticks": 20031,
          "time": 16.581953918750003,
          "value": -0.3248291015625
        },
        {
          "ticks": 20039,
          "time": 16.58857643541667,
          "value": -0.3262939453125
        },
        {
          "ticks": 20046,
          "time": 16.5943711375,
          "value": -0.3277587890625
        },
        {
          "ticks": 20054,
          "time": 16.60099365416667,
          "value": -0.329345703125
        },
        {
          "ticks": 20061,
          "time": 16.60678835625,
          "value": -0.330810546875
        },
        {
          "ticks": 20069,
          "time": 16.613410872916667,
          "value": -0.332275390625
        },
        {
          "ticks": 20076,
          "time": 16.619205575000002,
          "value": -0.333740234375
        },
        {
          "ticks": 20084,
          "time": 16.62582809166667,
          "value": -0.335205078125
        },
        {
          "ticks": 20091,
          "time": 16.63162279375,
          "value": -0.3367919921875
        },
        {
          "ticks": 20099,
          "time": 16.638245310416668,
          "value": -0.3382568359375
        },
        {
          "ticks": 20106,
          "time": 16.644040012500003,
          "value": -0.3397216796875
        },
        {
          "ticks": 20114,
          "time": 16.650662529166667,
          "value": -0.3411865234375
        },
        {
          "ticks": 20121,
          "time": 16.656457231250002,
          "value": -0.3426513671875
        },
        {
          "ticks": 20129,
          "time": 16.66307974791667,
          "value": -0.34423828125
        },
        {
          "ticks": 20136,
          "time": 16.66887445,
          "value": -0.345703125
        },
        {
          "ticks": 20144,
          "time": 16.675496966666667,
          "value": -0.34716796875
        },
        {
          "ticks": 20151,
          "time": 16.681291668750003,
          "value": -0.3486328125
        },
        {
          "ticks": 20159,
          "time": 16.687914185416666,
          "value": -0.35009765625
        },
        {
          "ticks": 20166,
          "time": 16.6937088875,
          "value": -0.3516845703125
        },
        {
          "ticks": 20174,
          "time": 16.70033140416667,
          "value": -0.3531494140625
        },
        {
          "ticks": 20181,
          "time": 16.70612610625,
          "value": -0.3546142578125
        },
        {
          "ticks": 20189,
          "time": 16.712748622916667,
          "value": -0.3560791015625
        },
        {
          "ticks": 20196,
          "time": 16.718543325000002,
          "value": -0.357666015625
        },
        {
          "ticks": 20204,
          "time": 16.72516584166667,
          "value": -0.359130859375
        },
        {
          "ticks": 20211,
          "time": 16.73096054375,
          "value": -0.360595703125
        },
        {
          "ticks": 20219,
          "time": 16.737583060416668,
          "value": -0.362060546875
        },
        {
          "ticks": 20226,
          "time": 16.743377762500003,
          "value": -0.363525390625
        },
        {
          "ticks": 20234,
          "time": 16.750000279166667,
          "value": -0.3651123046875
        },
        {
          "ticks": 20241,
          "time": 16.755794981250002,
          "value": -0.3665771484375
        },
        {
          "ticks": 20249,
          "time": 16.76241749791667,
          "value": -0.3680419921875
        },
        {
          "ticks": 20256,
          "time": 16.7682122,
          "value": -0.3695068359375
        },
        {
          "ticks": 20264,
          "time": 16.774834716666668,
          "value": -0.3709716796875
        },
        {
          "ticks": 20271,
          "time": 16.780629418750003,
          "value": -0.37255859375
        },
        {
          "ticks": 20279,
          "time": 16.787251935416666,
          "value": -0.3740234375
        },
        {
          "ticks": 20286,
          "time": 16.7930466375,
          "value": -0.37548828125
        },
        {
          "ticks": 20294,
          "time": 16.79966915416667,
          "value": -0.376953125
        },
        {
          "ticks": 20301,
          "time": 16.80546385625,
          "value": -0.37841796875
        },
        {
          "ticks": 20309,
          "time": 16.812086372916667,
          "value": -0.3800048828125
        },
        {
          "ticks": 20316,
          "time": 16.817881075000003,
          "value": -0.3814697265625
        },
        {
          "ticks": 20324,
          "time": 16.82450359166667,
          "value": -0.3829345703125
        },
        {
          "ticks": 20331,
          "time": 16.83029829375,
          "value": -0.3843994140625
        },
        {
          "ticks": 20339,
          "time": 16.836920810416668,
          "value": -0.3858642578125
        },
        {
          "ticks": 20346,
          "time": 16.8427155125,
          "value": -0.387451171875
        },
        {
          "ticks": 20354,
          "time": 16.849338029166667,
          "value": -0.388916015625
        },
        {
          "ticks": 20361,
          "time": 16.855132731250002,
          "value": -0.390380859375
        },
        {
          "ticks": 20369,
          "time": 16.86175524791667,
          "value": -0.391845703125
        },
        {
          "ticks": 20376,
          "time": 16.86754995,
          "value": -0.3934326171875
        },
        {
          "ticks": 20384,
          "time": 16.874172466666668,
          "value": -0.3948974609375
        },
        {
          "ticks": 20391,
          "time": 16.879967168750003,
          "value": -0.3963623046875
        },
        {
          "ticks": 20399,
          "time": 16.886589685416666,
          "value": -0.3978271484375
        },
        {
          "ticks": 20406,
          "time": 16.8923843875,
          "value": -0.3992919921875
        },
        {
          "ticks": 20414,
          "time": 16.89900690416667,
          "value": -0.40087890625
        },
        {
          "ticks": 20421,
          "time": 16.90480160625,
          "value": -0.40234375
        },
        {
          "ticks": 20429,
          "time": 16.911424122916667,
          "value": -0.40380859375
        },
        {
          "ticks": 20436,
          "time": 16.917218825000003,
          "value": -0.4052734375
        },
        {
          "ticks": 20444,
          "time": 16.92384134166667,
          "value": -0.40673828125
        },
        {
          "ticks": 20451,
          "time": 16.92963604375,
          "value": -0.4083251953125
        },
        {
          "ticks": 20459,
          "time": 16.936258560416668,
          "value": -0.4097900390625
        },
        {
          "ticks": 20466,
          "time": 16.9420532625,
          "value": -0.4112548828125
        },
        {
          "ticks": 20474,
          "time": 16.948675779166667,
          "value": -0.4127197265625
        },
        {
          "ticks": 20481,
          "time": 16.954470481250002,
          "value": -0.4141845703125
        },
        {
          "ticks": 20489,
          "time": 16.96109299791667,
          "value": -0.415771484375
        },
        {
          "ticks": 20496,
          "time": 16.9668877,
          "value": -0.417236328125
        },
        {
          "ticks": 20504,
          "time": 16.973510216666668,
          "value": -0.418701171875
        },
        {
          "ticks": 20511,
          "time": 16.979304918750003,
          "value": -0.420166015625
        },
        {
          "ticks": 20519,
          "time": 16.985927435416666,
          "value": -0.421630859375
        },
        {
          "ticks": 20526,
          "time": 16.991722137500002,
          "value": -0.4232177734375
        },
        {
          "ticks": 20534,
          "time": 16.99834465416667,
          "value": -0.4246826171875
        },
        {
          "ticks": 20541,
          "time": 17.00413935625,
          "value": -0.4261474609375
        },
        {
          "ticks": 20549,
          "time": 17.010761872916667,
          "value": -0.4276123046875
        },
        {
          "ticks": 20556,
          "time": 17.016556575000003,
          "value": -0.42919921875
        },
        {
          "ticks": 20564,
          "time": 17.023179091666666,
          "value": -0.4306640625
        },
        {
          "ticks": 20571,
          "time": 17.02897379375,
          "value": -0.43212890625
        },
        {
          "ticks": 20579,
          "time": 17.03559631041667,
          "value": -0.43359375
        },
        {
          "ticks": 20586,
          "time": 17.0413910125,
          "value": -0.43505859375
        },
        {
          "ticks": 20594,
          "time": 17.048013529166667,
          "value": -0.4366455078125
        },
        {
          "ticks": 20601,
          "time": 17.053808231250002,
          "value": -0.4381103515625
        },
        {
          "ticks": 20609,
          "time": 17.06043074791667,
          "value": -0.4395751953125
        },
        {
          "ticks": 20616,
          "time": 17.06622545,
          "value": -0.4410400390625
        },
        {
          "ticks": 20624,
          "time": 17.072847966666668,
          "value": -0.4425048828125
        },
        {
          "ticks": 20631,
          "time": 17.078642668750003,
          "value": -0.444091796875
        },
        {
          "ticks": 20639,
          "time": 17.085265185416667,
          "value": -0.445556640625
        },
        {
          "ticks": 20646,
          "time": 17.091059887500002,
          "value": -0.447021484375
        },
        {
          "ticks": 20654,
          "time": 17.09768240416667,
          "value": -0.448486328125
        },
        {
          "ticks": 20661,
          "time": 17.10347710625,
          "value": -0.449951171875
        },
        {
          "ticks": 20669,
          "time": 17.110099622916668,
          "value": -0.4515380859375
        },
        {
          "ticks": 20676,
          "time": 17.115894325000003,
          "value": -0.4530029296875
        },
        {
          "ticks": 20684,
          "time": 17.122516841666666,
          "value": -0.4544677734375
        },
        {
          "ticks": 20691,
          "time": 17.12831154375,
          "value": -0.4559326171875
        },
        {
          "ticks": 20699,
          "time": 17.13493406041667,
          "value": -0.4573974609375
        },
        {
          "ticks": 20706,
          "time": 17.1407287625,
          "value": -0.458984375
        },
        {
          "ticks": 20714,
          "time": 17.147351279166667,
          "value": -0.46044921875
        },
        {
          "ticks": 20721,
          "time": 17.153145981250002,
          "value": -0.4619140625
        },
        {
          "ticks": 20729,
          "time": 17.15976849791667,
          "value": -0.46337890625
        },
        {
          "ticks": 20736,
          "time": 17.1655632,
          "value": -0.4649658203125
        },
        {
          "ticks": 20744,
          "time": 17.172185716666668,
          "value": -0.4664306640625
        },
        {
          "ticks": 20751,
          "time": 17.17798041875,
          "value": -0.4678955078125
        },
        {
          "ticks": 20759,
          "time": 17.184602935416667,
          "value": -0.4693603515625
        },
        {
          "ticks": 20766,
          "time": 17.190397637500002,
          "value": -0.4708251953125
        },
        {
          "ticks": 20774,
          "time": 17.19702015416667,
          "value": -0.472412109375
        },
        {
          "ticks": 20781,
          "time": 17.20281485625,
          "value": -0.473876953125
        },
        {
          "ticks": 20789,
          "time": 17.209437372916668,
          "value": -0.475341796875
        },
        {
          "ticks": 20796,
          "time": 17.215232075000003,
          "value": -0.476806640625
        },
        {
          "ticks": 20804,
          "time": 17.221854591666666,
          "value": -0.478271484375
        },
        {
          "ticks": 20811,
          "time": 17.22764929375,
          "value": -0.4798583984375
        },
        {
          "ticks": 20819,
          "time": 17.23427181041667,
          "value": -0.4813232421875
        },
        {
          "ticks": 20826,
          "time": 17.2400665125,
          "value": -0.4827880859375
        },
        {
          "ticks": 20834,
          "time": 17.246689029166667,
          "value": -0.4842529296875
        },
        {
          "ticks": 20841,
          "time": 17.252483731250003,
          "value": -0.4857177734375
        },
        {
          "ticks": 20849,
          "time": 17.25910624791667,
          "value": -0.4873046875
        },
        {
          "ticks": 20856,
          "time": 17.26490095,
          "value": -0.48876953125
        },
        {
          "ticks": 20864,
          "time": 17.271523466666668,
          "value": -0.490234375
        },
        {
          "ticks": 20871,
          "time": 17.27731816875,
          "value": -0.49169921875
        },
        {
          "ticks": 20879,
          "time": 17.283940685416667,
          "value": -0.4931640625
        },
        {
          "ticks": 20886,
          "time": 17.289735387500002,
          "value": -0.4947509765625
        },
        {
          "ticks": 20894,
          "time": 17.29635790416667,
          "value": -0.4962158203125
        },
        {
          "ticks": 20901,
          "time": 17.30215260625,
          "value": -0.4976806640625
        },
        {
          "ticks": 20909,
          "time": 17.308775122916668,
          "value": -0.4991455078125
        },
        {
          "ticks": 20916,
          "time": 17.314569825000003,
          "value": -0.500732421875
        },
        {
          "ticks": 20924,
          "time": 17.321192341666666,
          "value": -0.502197265625
        },
        {
          "ticks": 20931,
          "time": 17.32698704375,
          "value": -0.503662109375
        },
        {
          "ticks": 20939,
          "time": 17.33360956041667,
          "value": -0.505126953125
        },
        {
          "ticks": 20946,
          "time": 17.3394042625,
          "value": -0.506591796875
        },
        {
          "ticks": 20954,
          "time": 17.346026779166667,
          "value": -0.5081787109375
        },
        {
          "ticks": 20961,
          "time": 17.351821481250003,
          "value": -0.5096435546875
        },
        {
          "ticks": 20969,
          "time": 17.35844399791667,
          "value": -0.5111083984375
        },
        {
          "ticks": 20976,
          "time": 17.3642387,
          "value": -0.5125732421875
        },
        {
          "ticks": 20984,
          "time": 17.37086121666667,
          "value": -0.5140380859375
        },
        {
          "ticks": 20991,
          "time": 17.37665591875,
          "value": -0.515625
        },
        {
          "ticks": 20999,
          "time": 17.383278435416667,
          "value": -0.51708984375
        },
        {
          "ticks": 21006,
          "time": 17.389073137500002,
          "value": -0.5185546875
        },
        {
          "ticks": 21014,
          "time": 17.39569565416667,
          "value": -0.52001953125
        },
        {
          "ticks": 21021,
          "time": 17.40149035625,
          "value": -0.521484375
        },
        {
          "ticks": 21029,
          "time": 17.408112872916668,
          "value": -0.5230712890625
        },
        {
          "ticks": 21036,
          "time": 17.413907575000003,
          "value": -0.5245361328125
        },
        {
          "ticks": 21044,
          "time": 17.420530091666667,
          "value": -0.5260009765625
        },
        {
          "ticks": 21051,
          "time": 17.426324793750002,
          "value": -0.5274658203125
        },
        {
          "ticks": 21059,
          "time": 17.43294731041667,
          "value": -0.5289306640625
        },
        {
          "ticks": 21066,
          "time": 17.4387420125,
          "value": -0.530517578125
        },
        {
          "ticks": 21074,
          "time": 17.445364529166667,
          "value": -0.531982421875
        },
        {
          "ticks": 21081,
          "time": 17.451159231250003,
          "value": -0.533447265625
        },
        {
          "ticks": 21089,
          "time": 17.457781747916666,
          "value": -0.534912109375
        },
        {
          "ticks": 21096,
          "time": 17.46357645,
          "value": -0.5364990234375
        },
        {
          "ticks": 21104,
          "time": 17.47019896666667,
          "value": -0.5379638671875
        },
        {
          "ticks": 21111,
          "time": 17.47599366875,
          "value": -0.5394287109375
        },
        {
          "ticks": 21119,
          "time": 17.482616185416667,
          "value": -0.5408935546875
        },
        {
          "ticks": 21126,
          "time": 17.488410887500002,
          "value": -0.5423583984375
        },
        {
          "ticks": 21134,
          "time": 17.49503340416667,
          "value": -0.5439453125
        },
        {
          "ticks": 21141,
          "time": 17.50082810625,
          "value": -0.54541015625
        },
        {
          "ticks": 21149,
          "time": 17.507450622916668,
          "value": -0.546875
        },
        {
          "ticks": 21156,
          "time": 17.513245325000003,
          "value": -0.54833984375
        },
        {
          "ticks": 21164,
          "time": 17.519867841666667,
          "value": -0.5498046875
        },
        {
          "ticks": 21171,
          "time": 17.525662543750002,
          "value": -0.5513916015625
        },
        {
          "ticks": 21179,
          "time": 17.53228506041667,
          "value": -0.5528564453125
        },
        {
          "ticks": 21186,
          "time": 17.5380797625,
          "value": -0.5543212890625
        },
        {
          "ticks": 21194,
          "time": 17.544702279166668,
          "value": -0.5557861328125
        },
        {
          "ticks": 21201,
          "time": 17.550496981250003,
          "value": -0.5572509765625
        },
        {
          "ticks": 21209,
          "time": 17.557119497916666,
          "value": -0.558837890625
        },
        {
          "ticks": 21216,
          "time": 17.5629142,
          "value": -0.560302734375
        },
        {
          "ticks": 21224,
          "time": 17.56953671666667,
          "value": -0.561767578125
        },
        {
          "ticks": 21231,
          "time": 17.57533141875,
          "value": -0.563232421875
        },
        {
          "ticks": 21239,
          "time": 17.581953935416667,
          "value": -0.564697265625
        },
        {
          "ticks": 21246,
          "time": 17.587748637500003,
          "value": -0.5662841796875
        },
        {
          "ticks": 21254,
          "time": 17.59437115416667,
          "value": -0.5677490234375
        },
        {
          "ticks": 21261,
          "time": 17.60016585625,
          "value": -0.5692138671875
        },
        {
          "ticks": 21269,
          "time": 17.606788372916668,
          "value": -0.5706787109375
        },
        {
          "ticks": 21276,
          "time": 17.612583075,
          "value": -0.572265625
        },
        {
          "ticks": 21284,
          "time": 17.619205591666667,
          "value": -0.57373046875
        },
        {
          "ticks": 21291,
          "time": 17.625000293750002,
          "value": -0.5751953125
        },
        {
          "ticks": 21299,
          "time": 17.63162281041667,
          "value": -0.57666015625
        },
        {
          "ticks": 21306,
          "time": 17.6374175125,
          "value": -0.578125
        },
        {
          "ticks": 21314,
          "time": 17.644040029166668,
          "value": -0.5797119140625
        },
        {
          "ticks": 21321,
          "time": 17.649834731250003,
          "value": -0.5811767578125
        },
        {
          "ticks": 21329,
          "time": 17.656457247916666,
          "value": -0.5826416015625
        },
        {
          "ticks": 21336,
          "time": 17.66225195,
          "value": -0.5841064453125
        },
        {
          "ticks": 21344,
          "time": 17.66887446666667,
          "value": -0.5855712890625
        },
        {
          "ticks": 21351,
          "time": 17.67466916875,
          "value": -0.587158203125
        },
        {
          "ticks": 21359,
          "time": 17.681291685416667,
          "value": -0.588623046875
        },
        {
          "ticks": 21366,
          "time": 17.687086387500003,
          "value": -0.590087890625
        },
        {
          "ticks": 21374,
          "time": 17.69370890416667,
          "value": -0.591552734375
        },
        {
          "ticks": 21381,
          "time": 17.69950360625,
          "value": -0.593017578125
        },
        {
          "ticks": 21389,
          "time": 17.706126122916668,
          "value": -0.5946044921875
        },
        {
          "ticks": 21396,
          "time": 17.711920825,
          "value": -0.5960693359375
        },
        {
          "ticks": 21404,
          "time": 17.718543341666667,
          "value": -0.5975341796875
        },
        {
          "ticks": 21411,
          "time": 17.724338043750002,
          "value": -0.5989990234375
        },
        {
          "ticks": 21419,
          "time": 17.73096056041667,
          "value": -0.6005859375
        },
        {
          "ticks": 21426,
          "time": 17.7367552625,
          "value": -0.60205078125
        },
        {
          "ticks": 21434,
          "time": 17.743377779166668,
          "value": -0.603515625
        },
        {
          "ticks": 21441,
          "time": 17.749172481250003,
          "value": -0.60498046875
        },
        {
          "ticks": 21449,
          "time": 17.755794997916666,
          "value": -0.6064453125
        },
        {
          "ticks": 21456,
          "time": 17.761589700000002,
          "value": -0.6080322265625
        },
        {
          "ticks": 21464,
          "time": 17.76821221666667,
          "value": -0.6094970703125
        },
        {
          "ticks": 21471,
          "time": 17.77400691875,
          "value": -0.6109619140625
        },
        {
          "ticks": 21479,
          "time": 17.780629435416667,
          "value": -0.6124267578125
        },
        {
          "ticks": 21486,
          "time": 17.786424137500003,
          "value": -0.6138916015625
        },
        {
          "ticks": 21494,
          "time": 17.793046654166666,
          "value": -0.615478515625
        },
        {
          "ticks": 21501,
          "time": 17.79884135625,
          "value": -0.616943359375
        },
        {
          "ticks": 21509,
          "time": 17.80546387291667,
          "value": -0.618408203125
        },
        {
          "ticks": 21516,
          "time": 17.811258575,
          "value": -0.619873046875
        },
        {
          "ticks": 21524,
          "time": 17.817881091666667,
          "value": -0.621337890625
        },
        {
          "ticks": 21531,
          "time": 17.823675793750002,
          "value": -0.6229248046875
        },
        {
          "ticks": 21539,
          "time": 17.83029831041667,
          "value": -0.6243896484375
        },
        {
          "ticks": 21546,
          "time": 17.8360930125,
          "value": -0.6258544921875
        },
        {
          "ticks": 21554,
          "time": 17.842715529166668,
          "value": -0.6273193359375
        },
        {
          "ticks": 21561,
          "time": 17.848510231250003,
          "value": -0.6287841796875
        },
        {
          "ticks": 21569,
          "time": 17.855132747916667,
          "value": -0.63037109375
        },
        {
          "ticks": 21576,
          "time": 17.860927450000002,
          "value": -0.6318359375
        },
        {
          "ticks": 21584,
          "time": 17.86754996666667,
          "value": -0.63330078125
        },
        {
          "ticks": 21591,
          "time": 17.87334466875,
          "value": -0.634765625
        },
        {
          "ticks": 21599,
          "time": 17.879967185416668,
          "value": -0.6363525390625
        },
        {
          "ticks": 21606,
          "time": 17.885761887500003,
          "value": -0.6378173828125
        },
        {
          "ticks": 21614,
          "time": 17.892384404166666,
          "value": -0.6392822265625
        },
        {
          "ticks": 21620,
          "time": 17.897351291666666,
          "value": -0.640625
        },
        {
          "ticks": 21628,
          "time": 17.903973808333333,
          "value": -0.60888671875
        },
        {
          "ticks": 21635,
          "time": 17.909768510416665,
          "value": -0.5771484375
        },
        {
          "ticks": 21643,
          "time": 17.916391027083332,
          "value": -0.54541015625
        },
        {
          "ticks": 21650,
          "time": 17.922185729166667,
          "value": -0.513671875
        },
        {
          "ticks": 21658,
          "time": 17.928808245833334,
          "value": -0.48193359375
        },
        {
          "ticks": 21665,
          "time": 17.934602947916666,
          "value": -0.4501953125
        },
        {
          "ticks": 21668,
          "time": 17.937086391666668,
          "value": -0.4375
        },
        {
          "ticks": 21676,
          "time": 17.943708908333335,
          "value": -0.369140625
        },
        {
          "ticks": 21683,
          "time": 17.949503610416667,
          "value": -0.30078125
        },
        {
          "ticks": 21691,
          "time": 17.956126127083333,
          "value": -0.232421875
        },
        {
          "ticks": 21692,
          "time": 17.95695394166667,
          "value": -0.21875
        },
        {
          "ticks": 21700,
          "time": 17.963576458333335,
          "value": -0.1978759765625
        },
        {
          "ticks": 21707,
          "time": 17.969371160416667,
          "value": -0.177001953125
        },
        {
          "ticks": 21715,
          "time": 17.975993677083334,
          "value": -0.156005859375
        },
        {
          "ticks": 21720,
          "time": 17.98013275,
          "value": -0.140625
        },
        {
          "ticks": 21728,
          "time": 17.986755266666666,
          "value": -0.111328125
        },
        {
          "ticks": 21735,
          "time": 17.99254996875,
          "value": -0.08203125
        },
        {
          "ticks": 21743,
          "time": 17.99917248541667,
          "value": -0.052734375
        },
        {
          "ticks": 21750,
          "time": 18.0049671875,
          "value": -0.0234375
        },
        {
          "ticks": 21756,
          "time": 18.009934075,
          "value": 0
        },
        {
          "ticks": 21764,
          "time": 18.016556591666667,
          "value": -0.0020751953125
        },
        {
          "ticks": 21771,
          "time": 18.022351293750003,
          "value": -0.004150390625
        },
        {
          "ticks": 21779,
          "time": 18.02897381041667,
          "value": -0.00634765625
        },
        {
          "ticks": 21786,
          "time": 18.0347685125,
          "value": -0.0084228515625
        },
        {
          "ticks": 21794,
          "time": 18.041391029166668,
          "value": -0.010498046875
        },
        {
          "ticks": 21801,
          "time": 18.04718573125,
          "value": -0.0126953125
        },
        {
          "ticks": 21809,
          "time": 18.053808247916667,
          "value": -0.0147705078125
        },
        {
          "ticks": 21816,
          "time": 18.059602950000002,
          "value": -0.0169677734375
        },
        {
          "ticks": 21824,
          "time": 18.06622546666667,
          "value": -0.01904296875
        },
        {
          "ticks": 21831,
          "time": 18.07202016875,
          "value": -0.0211181640625
        },
        {
          "ticks": 21839,
          "time": 18.078642685416668,
          "value": -0.0233154296875
        },
        {
          "ticks": 21846,
          "time": 18.084437387500003,
          "value": -0.025390625
        },
        {
          "ticks": 21854,
          "time": 18.091059904166666,
          "value": -0.027587890625
        },
        {
          "ticks": 21861,
          "time": 18.09685460625,
          "value": -0.0296630859375
        },
        {
          "ticks": 21869,
          "time": 18.10347712291667,
          "value": -0.03173828125
        },
        {
          "ticks": 21876,
          "time": 18.109271825,
          "value": -0.033935546875
        },
        {
          "ticks": 21884,
          "time": 18.115894341666667,
          "value": -0.0360107421875
        },
        {
          "ticks": 21891,
          "time": 18.121689043750003,
          "value": -0.0380859375
        },
        {
          "ticks": 21899,
          "time": 18.12831156041667,
          "value": -0.040283203125
        },
        {
          "ticks": 21906,
          "time": 18.1341062625,
          "value": -0.0423583984375
        },
        {
          "ticks": 21914,
          "time": 18.14072877916667,
          "value": -0.0445556640625
        },
        {
          "ticks": 21921,
          "time": 18.14652348125,
          "value": -0.046630859375
        },
        {
          "ticks": 21929,
          "time": 18.153145997916667,
          "value": -0.0487060546875
        },
        {
          "ticks": 21936,
          "time": 18.158940700000002,
          "value": -0.0509033203125
        },
        {
          "ticks": 21944,
          "time": 18.16556321666667,
          "value": -0.052978515625
        },
        {
          "ticks": 21951,
          "time": 18.17135791875,
          "value": -0.05517578125
        },
        {
          "ticks": 21959,
          "time": 18.177980435416668,
          "value": -0.0572509765625
        },
        {
          "ticks": 21966,
          "time": 18.183775137500003,
          "value": -0.059326171875
        },
        {
          "ticks": 21974,
          "time": 18.190397654166667,
          "value": -0.0615234375
        },
        {
          "ticks": 21981,
          "time": 18.196192356250002,
          "value": -0.0635986328125
        },
        {
          "ticks": 21989,
          "time": 18.20281487291667,
          "value": -0.065673828125
        },
        {
          "ticks": 21996,
          "time": 18.208609575,
          "value": -0.06787109375
        },
        {
          "ticks": 22004,
          "time": 18.215232091666667,
          "value": -0.0699462890625
        },
        {
          "ticks": 22011,
          "time": 18.221026793750003,
          "value": -0.0721435546875
        },
        {
          "ticks": 22019,
          "time": 18.227649310416666,
          "value": -0.07421875
        },
        {
          "ticks": 22026,
          "time": 18.2334440125,
          "value": -0.0762939453125
        },
        {
          "ticks": 22034,
          "time": 18.24006652916667,
          "value": -0.0784912109375
        },
        {
          "ticks": 22041,
          "time": 18.24586123125,
          "value": -0.08056640625
        },
        {
          "ticks": 22049,
          "time": 18.252483747916667,
          "value": -0.082763671875
        },
        {
          "ticks": 22056,
          "time": 18.258278450000002,
          "value": -0.0848388671875
        },
        {
          "ticks": 22064,
          "time": 18.26490096666667,
          "value": -0.0869140625
        },
        {
          "ticks": 22071,
          "time": 18.27069566875,
          "value": -0.089111328125
        },
        {
          "ticks": 22079,
          "time": 18.277318185416668,
          "value": -0.0911865234375
        },
        {
          "ticks": 22086,
          "time": 18.283112887500003,
          "value": -0.09326171875
        },
        {
          "ticks": 22094,
          "time": 18.289735404166667,
          "value": -0.095458984375
        },
        {
          "ticks": 22101,
          "time": 18.295530106250002,
          "value": -0.0975341796875
        },
        {
          "ticks": 22109,
          "time": 18.30215262291667,
          "value": -0.0997314453125
        },
        {
          "ticks": 22116,
          "time": 18.307947325,
          "value": -0.101806640625
        },
        {
          "ticks": 22124,
          "time": 18.314569841666668,
          "value": -0.1038818359375
        },
        {
          "ticks": 22131,
          "time": 18.320364543750003,
          "value": -0.1060791015625
        },
        {
          "ticks": 22139,
          "time": 18.326987060416666,
          "value": -0.108154296875
        },
        {
          "ticks": 22146,
          "time": 18.3327817625,
          "value": -0.1103515625
        },
        {
          "ticks": 22154,
          "time": 18.33940427916667,
          "value": -0.1124267578125
        },
        {
          "ticks": 22161,
          "time": 18.34519898125,
          "value": -0.114501953125
        },
        {
          "ticks": 22169,
          "time": 18.351821497916667,
          "value": -0.11669921875
        },
        {
          "ticks": 22176,
          "time": 18.357616200000002,
          "value": -0.1187744140625
        },
        {
          "ticks": 22184,
          "time": 18.36423871666667,
          "value": -0.120849609375
        },
        {
          "ticks": 22191,
          "time": 18.37003341875,
          "value": -0.123046875
        },
        {
          "ticks": 22199,
          "time": 18.376655935416668,
          "value": -0.1251220703125
        },
        {
          "ticks": 22206,
          "time": 18.3824506375,
          "value": -0.1273193359375
        },
        {
          "ticks": 22214,
          "time": 18.389073154166667,
          "value": -0.12939453125
        },
        {
          "ticks": 22221,
          "time": 18.394867856250002,
          "value": -0.1314697265625
        },
        {
          "ticks": 22229,
          "time": 18.40149037291667,
          "value": -0.1336669921875
        },
        {
          "ticks": 22236,
          "time": 18.407285075,
          "value": -0.1357421875
        },
        {
          "ticks": 22244,
          "time": 18.413907591666668,
          "value": -0.137939453125
        },
        {
          "ticks": 22251,
          "time": 18.419702293750003,
          "value": -0.1400146484375
        },
        {
          "ticks": 22259,
          "time": 18.426324810416666,
          "value": -0.14208984375
        },
        {
          "ticks": 22266,
          "time": 18.4321195125,
          "value": -0.144287109375
        },
        {
          "ticks": 22274,
          "time": 18.43874202916667,
          "value": -0.1463623046875
        },
        {
          "ticks": 22281,
          "time": 18.44453673125,
          "value": -0.1484375
        },
        {
          "ticks": 22289,
          "time": 18.451159247916667,
          "value": -0.150634765625
        },
        {
          "ticks": 22296,
          "time": 18.456953950000003,
          "value": -0.1527099609375
        },
        {
          "ticks": 22304,
          "time": 18.46357646666667,
          "value": -0.1549072265625
        },
        {
          "ticks": 22311,
          "time": 18.46937116875,
          "value": -0.156982421875
        },
        {
          "ticks": 22319,
          "time": 18.475993685416668,
          "value": -0.1590576171875
        },
        {
          "ticks": 22326,
          "time": 18.4817883875,
          "value": -0.1612548828125
        },
        {
          "ticks": 22334,
          "time": 18.488410904166667,
          "value": -0.163330078125
        },
        {
          "ticks": 22341,
          "time": 18.494205606250002,
          "value": -0.16552734375
        },
        {
          "ticks": 22349,
          "time": 18.50082812291667,
          "value": -0.1676025390625
        },
        {
          "ticks": 22356,
          "time": 18.506622825,
          "value": -0.169677734375
        },
        {
          "ticks": 22364,
          "time": 18.513245341666668,
          "value": -0.171875
        },
        {
          "ticks": 22371,
          "time": 18.519040043750003,
          "value": -0.1739501953125
        },
        {
          "ticks": 22379,
          "time": 18.525662560416666,
          "value": -0.176025390625
        },
        {
          "ticks": 22386,
          "time": 18.531457262500002,
          "value": -0.17822265625
        },
        {
          "ticks": 22394,
          "time": 18.53807977916667,
          "value": -0.1802978515625
        },
        {
          "ticks": 22401,
          "time": 18.54387448125,
          "value": -0.1824951171875
        },
        {
          "ticks": 22409,
          "time": 18.550496997916667,
          "value": -0.1845703125
        },
        {
          "ticks": 22416,
          "time": 18.556291700000003,
          "value": -0.1866455078125
        },
        {
          "ticks": 22424,
          "time": 18.56291421666667,
          "value": -0.1888427734375
        },
        {
          "ticks": 22431,
          "time": 18.56870891875,
          "value": -0.19091796875
        },
        {
          "ticks": 22439,
          "time": 18.57533143541667,
          "value": -0.193115234375
        },
        {
          "ticks": 22446,
          "time": 18.5811261375,
          "value": -0.1951904296875
        },
        {
          "ticks": 22454,
          "time": 18.587748654166667,
          "value": -0.197265625
        },
        {
          "ticks": 22461,
          "time": 18.593543356250002,
          "value": -0.199462890625
        },
        {
          "ticks": 22469,
          "time": 18.60016587291667,
          "value": -0.2015380859375
        },
        {
          "ticks": 22476,
          "time": 18.605960575,
          "value": -0.20361328125
        },
        {
          "ticks": 22484,
          "time": 18.612583091666668,
          "value": -0.205810546875
        },
        {
          "ticks": 22491,
          "time": 18.618377793750003,
          "value": -0.2078857421875
        },
        {
          "ticks": 22499,
          "time": 18.625000310416667,
          "value": -0.2100830078125
        },
        {
          "ticks": 22506,
          "time": 18.630795012500002,
          "value": -0.212158203125
        },
        {
          "ticks": 22514,
          "time": 18.63741752916667,
          "value": -0.2142333984375
        },
        {
          "ticks": 22521,
          "time": 18.64321223125,
          "value": -0.2164306640625
        },
        {
          "ticks": 22529,
          "time": 18.649834747916668,
          "value": -0.218505859375
        },
        {
          "ticks": 22536,
          "time": 18.655629450000003,
          "value": -0.220703125
        },
        {
          "ticks": 22544,
          "time": 18.662251966666666,
          "value": -0.2227783203125
        },
        {
          "ticks": 22551,
          "time": 18.66804666875,
          "value": -0.224853515625
        },
        {
          "ticks": 22559,
          "time": 18.67466918541667,
          "value": -0.22705078125
        },
        {
          "ticks": 22566,
          "time": 18.6804638875,
          "value": -0.2291259765625
        },
        {
          "ticks": 22574,
          "time": 18.687086404166667,
          "value": -0.231201171875
        },
        {
          "ticks": 22581,
          "time": 18.692881106250002,
          "value": -0.2333984375
        },
        {
          "ticks": 22589,
          "time": 18.69950362291667,
          "value": -0.2354736328125
        },
        {
          "ticks": 22596,
          "time": 18.705298325,
          "value": -0.2376708984375
        },
        {
          "ticks": 22604,
          "time": 18.711920841666668,
          "value": -0.23974609375
        },
        {
          "ticks": 22611,
          "time": 18.717715543750003,
          "value": -0.2418212890625
        },
        {
          "ticks": 22619,
          "time": 18.724338060416667,
          "value": -0.2440185546875
        },
        {
          "ticks": 22626,
          "time": 18.730132762500002,
          "value": -0.24609375
        },
        {
          "ticks": 22634,
          "time": 18.73675527916667,
          "value": -0.248291015625
        },
        {
          "ticks": 22641,
          "time": 18.74254998125,
          "value": -0.2503662109375
        },
        {
          "ticks": 22649,
          "time": 18.749172497916668,
          "value": -0.25244140625
        },
        {
          "ticks": 22656,
          "time": 18.754967200000003,
          "value": -0.254638671875
        },
        {
          "ticks": 22664,
          "time": 18.761589716666666,
          "value": -0.2567138671875
        },
        {
          "ticks": 22671,
          "time": 18.76738441875,
          "value": -0.2587890625
        },
        {
          "ticks": 22679,
          "time": 18.77400693541667,
          "value": -0.260986328125
        },
        {
          "ticks": 22686,
          "time": 18.7798016375,
          "value": -0.2630615234375
        },
        {
          "ticks": 22694,
          "time": 18.786424154166667,
          "value": -0.2652587890625
        },
        {
          "ticks": 22701,
          "time": 18.792218856250003,
          "value": -0.267333984375
        },
        {
          "ticks": 22709,
          "time": 18.79884137291667,
          "value": -0.2694091796875
        },
        {
          "ticks": 22716,
          "time": 18.804636075,
          "value": -0.2716064453125
        },
        {
          "ticks": 22724,
          "time": 18.811258591666668,
          "value": -0.273681640625
        },
        {
          "ticks": 22731,
          "time": 18.81705329375,
          "value": -0.27587890625
        },
        {
          "ticks": 22739,
          "time": 18.823675810416667,
          "value": -0.2779541015625
        },
        {
          "ticks": 22746,
          "time": 18.829470512500002,
          "value": -0.280029296875
        },
        {
          "ticks": 22754,
          "time": 18.83609302916667,
          "value": -0.2822265625
        },
        {
          "ticks": 22761,
          "time": 18.84188773125,
          "value": -0.2843017578125
        },
        {
          "ticks": 22769,
          "time": 18.848510247916668,
          "value": -0.286376953125
        },
        {
          "ticks": 22776,
          "time": 18.854304950000003,
          "value": -0.28857421875
        },
        {
          "ticks": 22784,
          "time": 18.860927466666666,
          "value": -0.2906494140625
        },
        {
          "ticks": 22791,
          "time": 18.86672216875,
          "value": -0.2928466796875
        },
        {
          "ticks": 22799,
          "time": 18.87334468541667,
          "value": -0.294921875
        },
        {
          "ticks": 22806,
          "time": 18.8791393875,
          "value": -0.2969970703125
        },
        {
          "ticks": 22814,
          "time": 18.885761904166667,
          "value": -0.2991943359375
        },
        {
          "ticks": 22821,
          "time": 18.891556606250003,
          "value": -0.30126953125
        },
        {
          "ticks": 22829,
          "time": 18.89817912291667,
          "value": -0.303466796875
        },
        {
          "ticks": 22836,
          "time": 18.903973825,
          "value": -0.3055419921875
        },
        {
          "ticks": 22844,
          "time": 18.91059634166667,
          "value": -0.3076171875
        },
        {
          "ticks": 22851,
          "time": 18.91639104375,
          "value": -0.309814453125
        },
        {
          "ticks": 22859,
          "time": 18.923013560416667,
          "value": -0.3118896484375
        },
        {
          "ticks": 22866,
          "time": 18.928808262500002,
          "value": -0.3140869140625
        },
        {
          "ticks": 22874,
          "time": 18.93543077916667,
          "value": -0.316162109375
        },
        {
          "ticks": 22881,
          "time": 18.94122548125,
          "value": -0.3182373046875
        },
        {
          "ticks": 22889,
          "time": 18.947847997916668,
          "value": -0.3204345703125
        },
        {
          "ticks": 22896,
          "time": 18.953642700000003,
          "value": -0.322509765625
        },
        {
          "ticks": 22904,
          "time": 18.960265216666667,
          "value": -0.3245849609375
        },
        {
          "ticks": 22911,
          "time": 18.966059918750002,
          "value": -0.3267822265625
        },
        {
          "ticks": 22919,
          "time": 18.97268243541667,
          "value": -0.328857421875
        },
        {
          "ticks": 22926,
          "time": 18.9784771375,
          "value": -0.3310546875
        },
        {
          "ticks": 22934,
          "time": 18.985099654166667,
          "value": -0.3331298828125
        },
        {
          "ticks": 22941,
          "time": 18.990894356250003,
          "value": -0.335205078125
        },
        {
          "ticks": 22949,
          "time": 18.997516872916666,
          "value": -0.33740234375
        },
        {
          "ticks": 22956,
          "time": 19.003311575,
          "value": -0.3394775390625
        },
        {
          "ticks": 22964,
          "time": 19.00993409166667,
          "value": -0.3416748046875
        },
        {
          "ticks": 22971,
          "time": 19.01572879375,
          "value": -0.34375
        },
        {
          "ticks": 22979,
          "time": 19.022351310416667,
          "value": -0.3458251953125
        },
        {
          "ticks": 22986,
          "time": 19.028146012500002,
          "value": -0.3480224609375
        },
        {
          "ticks": 22994,
          "time": 19.03476852916667,
          "value": -0.35009765625
        },
        {
          "ticks": 23001,
          "time": 19.04056323125,
          "value": -0.3521728515625
        },
        {
          "ticks": 23009,
          "time": 19.047185747916668,
          "value": -0.3543701171875
        },
        {
          "ticks": 23016,
          "time": 19.052980450000003,
          "value": -0.3564453125
        },
        {
          "ticks": 23024,
          "time": 19.059602966666667,
          "value": -0.358642578125
        },
        {
          "ticks": 23031,
          "time": 19.065397668750002,
          "value": -0.3607177734375
        },
        {
          "ticks": 23039,
          "time": 19.07202018541667,
          "value": -0.36279296875
        },
        {
          "ticks": 23046,
          "time": 19.0778148875,
          "value": -0.364990234375
        },
        {
          "ticks": 23054,
          "time": 19.084437404166668,
          "value": -0.3670654296875
        },
        {
          "ticks": 23061,
          "time": 19.090232106250003,
          "value": -0.3692626953125
        },
        {
          "ticks": 23069,
          "time": 19.096854622916666,
          "value": -0.371337890625
        },
        {
          "ticks": 23076,
          "time": 19.102649325,
          "value": -0.3734130859375
        },
        {
          "ticks": 23084,
          "time": 19.10927184166667,
          "value": -0.3756103515625
        },
        {
          "ticks": 23091,
          "time": 19.11506654375,
          "value": -0.377685546875
        },
        {
          "ticks": 23099,
          "time": 19.121689060416667,
          "value": -0.3797607421875
        },
        {
          "ticks": 23106,
          "time": 19.127483762500002,
          "value": -0.3819580078125
        },
        {
          "ticks": 23114,
          "time": 19.13410627916667,
          "value": -0.384033203125
        },
        {
          "ticks": 23121,
          "time": 19.13990098125,
          "value": -0.38623046875
        },
        {
          "ticks": 23129,
          "time": 19.146523497916668,
          "value": -0.3883056640625
        },
        {
          "ticks": 23136,
          "time": 19.1523182,
          "value": -0.390380859375
        },
        {
          "ticks": 23144,
          "time": 19.158940716666667,
          "value": -0.392578125
        },
        {
          "ticks": 23151,
          "time": 19.164735418750002,
          "value": -0.3946533203125
        },
        {
          "ticks": 23159,
          "time": 19.17135793541667,
          "value": -0.3968505859375
        },
        {
          "ticks": 23166,
          "time": 19.1771526375,
          "value": -0.39892578125
        },
        {
          "ticks": 23174,
          "time": 19.183775154166668,
          "value": -0.4010009765625
        },
        {
          "ticks": 23181,
          "time": 19.189569856250003,
          "value": -0.4031982421875
        },
        {
          "ticks": 23189,
          "time": 19.196192372916666,
          "value": -0.4052734375
        },
        {
          "ticks": 23196,
          "time": 19.201987075,
          "value": -0.4073486328125
        },
        {
          "ticks": 23204,
          "time": 19.20860959166667,
          "value": -0.4095458984375
        },
        {
          "ticks": 23211,
          "time": 19.21440429375,
          "value": -0.41162109375
        },
        {
          "ticks": 23219,
          "time": 19.221026810416667,
          "value": -0.413818359375
        },
        {
          "ticks": 23226,
          "time": 19.226821512500003,
          "value": -0.4158935546875
        },
        {
          "ticks": 23234,
          "time": 19.23344402916667,
          "value": -0.41796875
        },
        {
          "ticks": 23241,
          "time": 19.23923873125,
          "value": -0.420166015625
        },
        {
          "ticks": 23249,
          "time": 19.245861247916668,
          "value": -0.4222412109375
        },
        {
          "ticks": 23256,
          "time": 19.25165595,
          "value": -0.4244384765625
        },
        {
          "ticks": 23264,
          "time": 19.258278466666667,
          "value": -0.426513671875
        },
        {
          "ticks": 23271,
          "time": 19.264073168750002,
          "value": -0.4285888671875
        },
        {
          "ticks": 23279,
          "time": 19.27069568541667,
          "value": -0.4307861328125
        },
        {
          "ticks": 23286,
          "time": 19.2764903875,
          "value": -0.432861328125
        },
        {
          "ticks": 23294,
          "time": 19.283112904166668,
          "value": -0.4349365234375
        },
        {
          "ticks": 23301,
          "time": 19.288907606250003,
          "value": -0.4371337890625
        },
        {
          "ticks": 23309,
          "time": 19.295530122916666,
          "value": -0.439208984375
        },
        {
          "ticks": 23316,
          "time": 19.301324825000002,
          "value": -0.44140625
        },
        {
          "ticks": 23324,
          "time": 19.30794734166667,
          "value": -0.4434814453125
        },
        {
          "ticks": 23331,
          "time": 19.31374204375,
          "value": -0.445556640625
        },
        {
          "ticks": 23339,
          "time": 19.320364560416667,
          "value": -0.44775390625
        },
        {
          "ticks": 23346,
          "time": 19.326159262500003,
          "value": -0.4498291015625
        },
        {
          "ticks": 23354,
          "time": 19.33278177916667,
          "value": -0.4520263671875
        },
        {
          "ticks": 23361,
          "time": 19.33857648125,
          "value": -0.4541015625
        },
        {
          "ticks": 23369,
          "time": 19.34519899791667,
          "value": -0.4561767578125
        },
        {
          "ticks": 23376,
          "time": 19.3509937,
          "value": -0.4583740234375
        },
        {
          "ticks": 23384,
          "time": 19.357616216666667,
          "value": -0.46044921875
        },
        {
          "ticks": 23391,
          "time": 19.363410918750002,
          "value": -0.4625244140625
        },
        {
          "ticks": 23399,
          "time": 19.37003343541667,
          "value": -0.4647216796875
        },
        {
          "ticks": 23406,
          "time": 19.3758281375,
          "value": -0.466796875
        },
        {
          "ticks": 23414,
          "time": 19.382450654166668,
          "value": -0.468994140625
        },
        {
          "ticks": 23421,
          "time": 19.388245356250003,
          "value": -0.4710693359375
        },
        {
          "ticks": 23429,
          "time": 19.394867872916667,
          "value": -0.47314453125
        },
        {
          "ticks": 23436,
          "time": 19.400662575000002,
          "value": -0.475341796875
        },
        {
          "ticks": 23444,
          "time": 19.40728509166667,
          "value": -0.4774169921875
        },
        {
          "ticks": 23451,
          "time": 19.41307979375,
          "value": -0.4796142578125
        },
        {
          "ticks": 23459,
          "time": 19.419702310416668,
          "value": -0.481689453125
        },
        {
          "ticks": 23466,
          "time": 19.425497012500003,
          "value": -0.4837646484375
        },
        {
          "ticks": 23474,
          "time": 19.432119529166666,
          "value": -0.4859619140625
        },
        {
          "ticks": 23481,
          "time": 19.43791423125,
          "value": -0.488037109375
        },
        {
          "ticks": 23489,
          "time": 19.44453674791667,
          "value": -0.4901123046875
        },
        {
          "ticks": 23496,
          "time": 19.45033145,
          "value": -0.4923095703125
        },
        {
          "ticks": 23504,
          "time": 19.456953966666667,
          "value": -0.494384765625
        },
        {
          "ticks": 23511,
          "time": 19.462748668750002,
          "value": -0.49658203125
        },
        {
          "ticks": 23519,
          "time": 19.46937118541667,
          "value": -0.4986572265625
        },
        {
          "ticks": 23526,
          "time": 19.4751658875,
          "value": -0.500732421875
        },
        {
          "ticks": 23534,
          "time": 19.481788404166668,
          "value": -0.5029296875
        },
        {
          "ticks": 23541,
          "time": 19.487583106250003,
          "value": -0.5050048828125
        },
        {
          "ticks": 23549,
          "time": 19.494205622916667,
          "value": -0.5072021484375
        },
        {
          "ticks": 23556,
          "time": 19.500000325000002,
          "value": -0.50927734375
        },
        {
          "ticks": 23564,
          "time": 19.50662284166667,
          "value": -0.5113525390625
        },
        {
          "ticks": 23571,
          "time": 19.51241754375,
          "value": -0.5135498046875
        },
        {
          "ticks": 23579,
          "time": 19.519040060416668,
          "value": -0.515625
        },
        {
          "ticks": 23586,
          "time": 19.524834762500003,
          "value": -0.5177001953125
        },
        {
          "ticks": 23594,
          "time": 19.531457279166666,
          "value": -0.5198974609375
        },
        {
          "ticks": 23601,
          "time": 19.53725198125,
          "value": -0.52197265625
        },
        {
          "ticks": 23609,
          "time": 19.54387449791667,
          "value": -0.524169921875
        },
        {
          "ticks": 23616,
          "time": 19.5496692,
          "value": -0.5262451171875
        },
        {
          "ticks": 23624,
          "time": 19.556291716666667,
          "value": -0.5283203125
        },
        {
          "ticks": 23631,
          "time": 19.562086418750003,
          "value": -0.530517578125
        },
        {
          "ticks": 23639,
          "time": 19.56870893541667,
          "value": -0.5325927734375
        },
        {
          "ticks": 23646,
          "time": 19.5745036375,
          "value": -0.5347900390625
        },
        {
          "ticks": 23654,
          "time": 19.581126154166668,
          "value": -0.536865234375
        },
        {
          "ticks": 23661,
          "time": 19.58692085625,
          "value": -0.5389404296875
        },
        {
          "ticks": 23669,
          "time": 19.593543372916667,
          "value": -0.5411376953125
        },
        {
          "ticks": 23676,
          "time": 19.599338075000002,
          "value": -0.543212890625
        },
        {
          "ticks": 23684,
          "time": 19.60596059166667,
          "value": -0.5452880859375
        },
        {
          "ticks": 23691,
          "time": 19.61175529375,
          "value": -0.5474853515625
        },
        {
          "ticks": 23699,
          "time": 19.618377810416668,
          "value": -0.549560546875
        },
        {
          "ticks": 23706,
          "time": 19.624172512500003,
          "value": -0.5517578125
        },
        {
          "ticks": 23714,
          "time": 19.630795029166666,
          "value": -0.5538330078125
        },
        {
          "ticks": 23721,
          "time": 19.63658973125,
          "value": -0.555908203125
        },
        {
          "ticks": 23729,
          "time": 19.64321224791667,
          "value": -0.55810546875
        },
        {
          "ticks": 23736,
          "time": 19.64900695,
          "value": -0.5601806640625
        },
        {
          "ticks": 23744,
          "time": 19.655629466666667,
          "value": -0.5623779296875
        },
        {
          "ticks": 23751,
          "time": 19.661424168750003,
          "value": -0.564453125
        },
        {
          "ticks": 23759,
          "time": 19.66804668541667,
          "value": -0.5665283203125
        },
        {
          "ticks": 23766,
          "time": 19.6738413875,
          "value": -0.5687255859375
        },
        {
          "ticks": 23774,
          "time": 19.68046390416667,
          "value": -0.57080078125
        },
        {
          "ticks": 23781,
          "time": 19.68625860625,
          "value": -0.5728759765625
        },
        {
          "ticks": 23789,
          "time": 19.692881122916667,
          "value": -0.5750732421875
        },
        {
          "ticks": 23796,
          "time": 19.698675825000002,
          "value": -0.5771484375
        },
        {
          "ticks": 23804,
          "time": 19.70529834166667,
          "value": -0.579345703125
        },
        {
          "ticks": 23811,
          "time": 19.71109304375,
          "value": -0.5814208984375
        },
        {
          "ticks": 23819,
          "time": 19.717715560416668,
          "value": -0.58349609375
        },
        {
          "ticks": 23826,
          "time": 19.723510262500003,
          "value": -0.585693359375
        },
        {
          "ticks": 23834,
          "time": 19.730132779166667,
          "value": -0.5877685546875
        },
        {
          "ticks": 23841,
          "time": 19.735927481250002,
          "value": -0.5899658203125
        },
        {
          "ticks": 23849,
          "time": 19.74254999791667,
          "value": -0.592041015625
        },
        {
          "ticks": 23856,
          "time": 19.7483447,
          "value": -0.5941162109375
        },
        {
          "ticks": 23864,
          "time": 19.754967216666667,
          "value": -0.5963134765625
        },
        {
          "ticks": 23871,
          "time": 19.760761918750003,
          "value": -0.598388671875
        },
        {
          "ticks": 23879,
          "time": 19.76738443541667,
          "value": -0.6005859375
        },
        {
          "ticks": 23886,
          "time": 19.7731791375,
          "value": -0.6026611328125
        },
        {
          "ticks": 23894,
          "time": 19.77980165416667,
          "value": -0.604736328125
        },
        {
          "ticks": 23901,
          "time": 19.78559635625,
          "value": -0.60693359375
        },
        {
          "ticks": 23909,
          "time": 19.792218872916667,
          "value": -0.6090087890625
        },
        {
          "ticks": 23916,
          "time": 19.798013575000002,
          "value": -0.611083984375
        },
        {
          "ticks": 23924,
          "time": 19.80463609166667,
          "value": -0.61328125
        },
        {
          "ticks": 23931,
          "time": 19.81043079375,
          "value": -0.6153564453125
        },
        {
          "ticks": 23939,
          "time": 19.817053310416668,
          "value": -0.6175537109375
        },
        {
          "ticks": 23946,
          "time": 19.822848012500003,
          "value": -0.61962890625
        },
        {
          "ticks": 23954,
          "time": 19.829470529166667,
          "value": -0.6217041015625
        },
        {
          "ticks": 23961,
          "time": 19.835265231250002,
          "value": -0.6239013671875
        },
        {
          "ticks": 23969,
          "time": 19.84188774791667,
          "value": -0.6259765625
        },
        {
          "ticks": 23976,
          "time": 19.84768245,
          "value": -0.628173828125
        },
        {
          "ticks": 23984,
          "time": 19.854304966666668,
          "value": -0.6302490234375
        },
        {
          "ticks": 23991,
          "time": 19.860099668750003,
          "value": -0.63232421875
        },
        {
          "ticks": 23999,
          "time": 19.866722185416666,
          "value": -0.634521484375
        },
        {
          "ticks": 24006,
          "time": 19.8725168875,
          "value": -0.6365966796875
        },
        {
          "ticks": 24014,
          "time": 19.87913940416667,
          "value": -0.638671875
        },
        {
          "ticks": 24020,
          "time": 19.884106291666665,
          "value": -0.640625
        },
        {
          "ticks": 24028,
          "time": 19.890728808333332,
          "value": -0.60888671875
        },
        {
          "ticks": 24035,
          "time": 19.896523510416667,
          "value": -0.5771484375
        },
        {
          "ticks": 24043,
          "time": 19.903146027083334,
          "value": -0.54541015625
        },
        {
          "ticks": 24050,
          "time": 19.908940729166666,
          "value": -0.513671875
        },
        {
          "ticks": 24058,
          "time": 19.915563245833333,
          "value": -0.48193359375
        },
        {
          "ticks": 24065,
          "time": 19.921357947916665,
          "value": -0.4501953125
        },
        {
          "ticks": 24068,
          "time": 19.923841391666667,
          "value": -0.4375
        },
        {
          "ticks": 24076,
          "time": 19.930463908333333,
          "value": -0.369140625
        },
        {
          "ticks": 24083,
          "time": 19.936258610416665,
          "value": -0.30078125
        },
        {
          "ticks": 24091,
          "time": 19.942881127083332,
          "value": -0.232421875
        },
        {
          "ticks": 24092,
          "time": 19.943708941666667,
          "value": -0.21875
        },
        {
          "ticks": 24100,
          "time": 19.950331458333334,
          "value": -0.1978759765625
        },
        {
          "ticks": 24107,
          "time": 19.95612616041667,
          "value": -0.177001953125
        },
        {
          "ticks": 24115,
          "time": 19.962748677083336,
          "value": -0.156005859375
        },
        {
          "ticks": 24120,
          "time": 19.96688775,
          "value": -0.140625
        },
        {
          "ticks": 24128,
          "time": 19.97351026666667,
          "value": -0.111328125
        },
        {
          "ticks": 24135,
          "time": 19.97930496875,
          "value": -0.08203125
        },
        {
          "ticks": 24143,
          "time": 19.985927485416667,
          "value": -0.052734375
        },
        {
          "ticks": 24150,
          "time": 19.9917221875,
          "value": -0.0234375
        },
        {
          "ticks": 24156,
          "time": 19.996689075000003,
          "value": 0
        },
        {
          "ticks": 24164,
          "time": 20.00331159166667,
          "value": -0.002685546875
        },
        {
          "ticks": 24171,
          "time": 20.00910629375,
          "value": -0.00537109375
        },
        {
          "ticks": 24179,
          "time": 20.015728810416668,
          "value": -0.008056640625
        },
        {
          "ticks": 24186,
          "time": 20.0215235125,
          "value": -0.0107421875
        },
        {
          "ticks": 24194,
          "time": 20.028146029166667,
          "value": -0.013427734375
        },
        {
          "ticks": 24201,
          "time": 20.033940731250002,
          "value": -0.01611328125
        },
        {
          "ticks": 24209,
          "time": 20.04056324791667,
          "value": -0.018798828125
        },
        {
          "ticks": 24216,
          "time": 20.04635795,
          "value": -0.021484375
        },
        {
          "ticks": 24224,
          "time": 20.052980466666668,
          "value": -0.024169921875
        },
        {
          "ticks": 24231,
          "time": 20.058775168750003,
          "value": -0.02685546875
        },
        {
          "ticks": 24239,
          "time": 20.065397685416666,
          "value": -0.029541015625
        },
        {
          "ticks": 24246,
          "time": 20.071192387500002,
          "value": -0.0322265625
        },
        {
          "ticks": 24254,
          "time": 20.07781490416667,
          "value": -0.034912109375
        },
        {
          "ticks": 24261,
          "time": 20.08360960625,
          "value": -0.03759765625
        },
        {
          "ticks": 24269,
          "time": 20.090232122916667,
          "value": -0.040283203125
        },
        {
          "ticks": 24276,
          "time": 20.096026825000003,
          "value": -0.0430908203125
        },
        {
          "ticks": 24284,
          "time": 20.10264934166667,
          "value": -0.0457763671875
        },
        {
          "ticks": 24291,
          "time": 20.10844404375,
          "value": -0.0484619140625
        },
        {
          "ticks": 24299,
          "time": 20.11506656041667,
          "value": -0.0511474609375
        },
        {
          "ticks": 24306,
          "time": 20.1208612625,
          "value": -0.0538330078125
        },
        {
          "ticks": 24314,
          "time": 20.127483779166667,
          "value": -0.0565185546875
        },
        {
          "ticks": 24321,
          "time": 20.133278481250002,
          "value": -0.0592041015625
        },
        {
          "ticks": 24329,
          "time": 20.13990099791667,
          "value": -0.0618896484375
        },
        {
          "ticks": 24336,
          "time": 20.1456957,
          "value": -0.0645751953125
        },
        {
          "ticks": 24344,
          "time": 20.152318216666668,
          "value": -0.0672607421875
        },
        {
          "ticks": 24351,
          "time": 20.158112918750003,
          "value": -0.0699462890625
        },
        {
          "ticks": 24359,
          "time": 20.164735435416667,
          "value": -0.0726318359375
        },
        {
          "ticks": 24366,
          "time": 20.170530137500002,
          "value": -0.0753173828125
        },
        {
          "ticks": 24374,
          "time": 20.17715265416667,
          "value": -0.0780029296875
        },
        {
          "ticks": 24381,
          "time": 20.18294735625,
          "value": -0.0806884765625
        },
        {
          "ticks": 24389,
          "time": 20.189569872916667,
          "value": -0.0833740234375
        },
        {
          "ticks": 24396,
          "time": 20.195364575000003,
          "value": -0.086181640625
        },
        {
          "ticks": 24404,
          "time": 20.201987091666666,
          "value": -0.0888671875
        },
        {
          "ticks": 24411,
          "time": 20.20778179375,
          "value": -0.091552734375
        },
        {
          "ticks": 24419,
          "time": 20.21440431041667,
          "value": -0.09423828125
        },
        {
          "ticks": 24426,
          "time": 20.2201990125,
          "value": -0.096923828125
        },
        {
          "ticks": 24434,
          "time": 20.226821529166667,
          "value": -0.099609375
        },
        {
          "ticks": 24441,
          "time": 20.232616231250002,
          "value": -0.102294921875
        },
        {
          "ticks": 24449,
          "time": 20.23923874791667,
          "value": -0.10498046875
        },
        {
          "ticks": 24456,
          "time": 20.24503345,
          "value": -0.107666015625
        },
        {
          "ticks": 24464,
          "time": 20.251655966666668,
          "value": -0.1103515625
        },
        {
          "ticks": 24471,
          "time": 20.257450668750003,
          "value": -0.113037109375
        },
        {
          "ticks": 24479,
          "time": 20.264073185416667,
          "value": -0.11572265625
        },
        {
          "ticks": 24486,
          "time": 20.269867887500002,
          "value": -0.118408203125
        },
        {
          "ticks": 24494,
          "time": 20.27649040416667,
          "value": -0.12109375
        },
        {
          "ticks": 24501,
          "time": 20.28228510625,
          "value": -0.123779296875
        },
        {
          "ticks": 24509,
          "time": 20.288907622916668,
          "value": -0.12646484375
        },
        {
          "ticks": 24516,
          "time": 20.294702325000003,
          "value": -0.1292724609375
        },
        {
          "ticks": 24524,
          "time": 20.301324841666666,
          "value": -0.1319580078125
        },
        {
          "ticks": 24531,
          "time": 20.30711954375,
          "value": -0.1346435546875
        },
        {
          "ticks": 24539,
          "time": 20.31374206041667,
          "value": -0.1373291015625
        },
        {
          "ticks": 24546,
          "time": 20.3195367625,
          "value": -0.1400146484375
        },
        {
          "ticks": 24554,
          "time": 20.326159279166667,
          "value": -0.1427001953125
        },
        {
          "ticks": 24561,
          "time": 20.331953981250003,
          "value": -0.1453857421875
        },
        {
          "ticks": 24569,
          "time": 20.33857649791667,
          "value": -0.1480712890625
        },
        {
          "ticks": 24576,
          "time": 20.3443712,
          "value": -0.1507568359375
        },
        {
          "ticks": 24584,
          "time": 20.350993716666668,
          "value": -0.1534423828125
        },
        {
          "ticks": 24591,
          "time": 20.35678841875,
          "value": -0.1561279296875
        },
        {
          "ticks": 24599,
          "time": 20.363410935416667,
          "value": -0.1588134765625
        },
        {
          "ticks": 24606,
          "time": 20.369205637500002,
          "value": -0.1614990234375
        },
        {
          "ticks": 24614,
          "time": 20.37582815416667,
          "value": -0.1641845703125
        },
        {
          "ticks": 24621,
          "time": 20.38162285625,
          "value": -0.1668701171875
        },
        {
          "ticks": 24629,
          "time": 20.388245372916668,
          "value": -0.1695556640625
        },
        {
          "ticks": 24636,
          "time": 20.394040075000003,
          "value": -0.17236328125
        },
        {
          "ticks": 24644,
          "time": 20.400662591666666,
          "value": -0.175048828125
        },
        {
          "ticks": 24651,
          "time": 20.40645729375,
          "value": -0.177734375
        },
        {
          "ticks": 24659,
          "time": 20.41307981041667,
          "value": -0.180419921875
        },
        {
          "ticks": 24666,
          "time": 20.4188745125,
          "value": -0.18310546875
        },
        {
          "ticks": 24674,
          "time": 20.425497029166667,
          "value": -0.185791015625
        },
        {
          "ticks": 24681,
          "time": 20.431291731250003,
          "value": -0.1884765625
        },
        {
          "ticks": 24689,
          "time": 20.43791424791667,
          "value": -0.191162109375
        },
        {
          "ticks": 24696,
          "time": 20.44370895,
          "value": -0.19384765625
        },
        {
          "ticks": 24704,
          "time": 20.45033146666667,
          "value": -0.196533203125
        },
        {
          "ticks": 24711,
          "time": 20.45612616875,
          "value": -0.19921875
        },
        {
          "ticks": 24719,
          "time": 20.462748685416667,
          "value": -0.201904296875
        },
        {
          "ticks": 24726,
          "time": 20.468543387500002,
          "value": -0.20458984375
        },
        {
          "ticks": 24734,
          "time": 20.47516590416667,
          "value": -0.207275390625
        },
        {
          "ticks": 24741,
          "time": 20.48096060625,
          "value": -0.2099609375
        },
        {
          "ticks": 24749,
          "time": 20.487583122916668,
          "value": -0.212646484375
        },
        {
          "ticks": 24756,
          "time": 20.493377825000003,
          "value": -0.2154541015625
        },
        {
          "ticks": 24764,
          "time": 20.500000341666667,
          "value": -0.2181396484375
        },
        {
          "ticks": 24771,
          "time": 20.505795043750002,
          "value": -0.2208251953125
        },
        {
          "ticks": 24779,
          "time": 20.51241756041667,
          "value": -0.2235107421875
        },
        {
          "ticks": 24786,
          "time": 20.5182122625,
          "value": -0.2261962890625
        },
        {
          "ticks": 24794,
          "time": 20.524834779166667,
          "value": -0.2288818359375
        },
        {
          "ticks": 24801,
          "time": 20.530629481250003,
          "value": -0.2315673828125
        },
        {
          "ticks": 24809,
          "time": 20.53725199791667,
          "value": -0.2342529296875
        },
        {
          "ticks": 24816,
          "time": 20.5430467,
          "value": -0.2369384765625
        },
        {
          "ticks": 24824,
          "time": 20.54966921666667,
          "value": -0.2396240234375
        },
        {
          "ticks": 24831,
          "time": 20.55546391875,
          "value": -0.2423095703125
        },
        {
          "ticks": 24839,
          "time": 20.562086435416667,
          "value": -0.2449951171875
        },
        {
          "ticks": 24846,
          "time": 20.567881137500002,
          "value": -0.2476806640625
        },
        {
          "ticks": 24854,
          "time": 20.57450365416667,
          "value": -0.2503662109375
        },
        {
          "ticks": 24861,
          "time": 20.58029835625,
          "value": -0.2530517578125
        },
        {
          "ticks": 24869,
          "time": 20.586920872916668,
          "value": -0.2557373046875
        },
        {
          "ticks": 24876,
          "time": 20.592715575000003,
          "value": -0.258544921875
        },
        {
          "ticks": 24884,
          "time": 20.599338091666667,
          "value": -0.26123046875
        },
        {
          "ticks": 24891,
          "time": 20.605132793750002,
          "value": -0.263916015625
        },
        {
          "ticks": 24899,
          "time": 20.61175531041667,
          "value": -0.2666015625
        },
        {
          "ticks": 24906,
          "time": 20.6175500125,
          "value": -0.269287109375
        },
        {
          "ticks": 24914,
          "time": 20.624172529166668,
          "value": -0.27197265625
        },
        {
          "ticks": 24921,
          "time": 20.629967231250003,
          "value": -0.274658203125
        },
        {
          "ticks": 24929,
          "time": 20.636589747916666,
          "value": -0.27734375
        },
        {
          "ticks": 24936,
          "time": 20.64238445,
          "value": -0.280029296875
        },
        {
          "ticks": 24944,
          "time": 20.64900696666667,
          "value": -0.28271484375
        },
        {
          "ticks": 24951,
          "time": 20.65480166875,
          "value": -0.285400390625
        },
        {
          "ticks": 24959,
          "time": 20.661424185416667,
          "value": -0.2880859375
        },
        {
          "ticks": 24966,
          "time": 20.667218887500002,
          "value": -0.290771484375
        },
        {
          "ticks": 24974,
          "time": 20.67384140416667,
          "value": -0.29345703125
        },
        {
          "ticks": 24981,
          "time": 20.67963610625,
          "value": -0.296142578125
        },
        {
          "ticks": 24989,
          "time": 20.686258622916668,
          "value": -0.298828125
        },
        {
          "ticks": 24996,
          "time": 20.692053325000003,
          "value": -0.3016357421875
        },
        {
          "ticks": 25004,
          "time": 20.698675841666667,
          "value": -0.3043212890625
        },
        {
          "ticks": 25011,
          "time": 20.704470543750002,
          "value": -0.3070068359375
        },
        {
          "ticks": 25019,
          "time": 20.71109306041667,
          "value": -0.3096923828125
        },
        {
          "ticks": 25026,
          "time": 20.7168877625,
          "value": -0.3123779296875
        },
        {
          "ticks": 25034,
          "time": 20.723510279166668,
          "value": -0.3150634765625
        },
        {
          "ticks": 25041,
          "time": 20.729304981250003,
          "value": -0.3177490234375
        },
        {
          "ticks": 25049,
          "time": 20.735927497916666,
          "value": -0.3204345703125
        },
        {
          "ticks": 25056,
          "time": 20.7417222,
          "value": -0.3231201171875
        },
        {
          "ticks": 25064,
          "time": 20.74834471666667,
          "value": -0.3258056640625
        },
        {
          "ticks": 25071,
          "time": 20.75413941875,
          "value": -0.3284912109375
        },
        {
          "ticks": 25079,
          "time": 20.760761935416667,
          "value": -0.3311767578125
        },
        {
          "ticks": 25086,
          "time": 20.766556637500003,
          "value": -0.3338623046875
        },
        {
          "ticks": 25094,
          "time": 20.77317915416667,
          "value": -0.3365478515625
        },
        {
          "ticks": 25101,
          "time": 20.77897385625,
          "value": -0.3392333984375
        },
        {
          "ticks": 25109,
          "time": 20.785596372916668,
          "value": -0.3419189453125
        },
        {
          "ticks": 25116,
          "time": 20.791391075,
          "value": -0.3447265625
        },
        {
          "ticks": 25124,
          "time": 20.798013591666667,
          "value": -0.347412109375
        },
        {
          "ticks": 25131,
          "time": 20.803808293750002,
          "value": -0.35009765625
        },
        {
          "ticks": 25139,
          "time": 20.81043081041667,
          "value": -0.352783203125
        },
        {
          "ticks": 25146,
          "time": 20.8162255125,
          "value": -0.35546875
        },
        {
          "ticks": 25154,
          "time": 20.822848029166668,
          "value": -0.358154296875
        },
        {
          "ticks": 25161,
          "time": 20.828642731250003,
          "value": -0.36083984375
        },
        {
          "ticks": 25169,
          "time": 20.835265247916666,
          "value": -0.363525390625
        },
        {
          "ticks": 25176,
          "time": 20.841059950000002,
          "value": -0.3662109375
        },
        {
          "ticks": 25184,
          "time": 20.84768246666667,
          "value": -0.368896484375
        },
        {
          "ticks": 25191,
          "time": 20.85347716875,
          "value": -0.37158203125
        },
        {
          "ticks": 25199,
          "time": 20.860099685416667,
          "value": -0.374267578125
        },
        {
          "ticks": 25206,
          "time": 20.865894387500003,
          "value": -0.376953125
        },
        {
          "ticks": 25214,
          "time": 20.87251690416667,
          "value": -0.379638671875
        },
        {
          "ticks": 25221,
          "time": 20.87831160625,
          "value": -0.38232421875
        },
        {
          "ticks": 25229,
          "time": 20.88493412291667,
          "value": -0.385009765625
        },
        {
          "ticks": 25236,
          "time": 20.890728825,
          "value": -0.3878173828125
        },
        {
          "ticks": 25244,
          "time": 20.897351341666667,
          "value": -0.3905029296875
        },
        {
          "ticks": 25251,
          "time": 20.903146043750002,
          "value": -0.3931884765625
        },
        {
          "ticks": 25259,
          "time": 20.90976856041667,
          "value": -0.3958740234375
        },
        {
          "ticks": 25266,
          "time": 20.9155632625,
          "value": -0.3985595703125
        },
        {
          "ticks": 25274,
          "time": 20.922185779166668,
          "value": -0.4012451171875
        },
        {
          "ticks": 25281,
          "time": 20.927980481250003,
          "value": -0.4039306640625
        },
        {
          "ticks": 25289,
          "time": 20.934602997916667,
          "value": -0.4066162109375
        },
        {
          "ticks": 25296,
          "time": 20.940397700000002,
          "value": -0.4093017578125
        },
        {
          "ticks": 25304,
          "time": 20.94702021666667,
          "value": -0.4119873046875
        },
        {
          "ticks": 25311,
          "time": 20.95281491875,
          "value": -0.4146728515625
        },
        {
          "ticks": 25319,
          "time": 20.959437435416667,
          "value": -0.4173583984375
        },
        {
          "ticks": 25326,
          "time": 20.965232137500003,
          "value": -0.4200439453125
        },
        {
          "ticks": 25334,
          "time": 20.971854654166666,
          "value": -0.4227294921875
        },
        {
          "ticks": 25341,
          "time": 20.97764935625,
          "value": -0.4254150390625
        },
        {
          "ticks": 25349,
          "time": 20.98427187291667,
          "value": -0.4281005859375
        },
        {
          "ticks": 25356,
          "time": 20.990066575,
          "value": -0.430908203125
        },
        {
          "ticks": 25364,
          "time": 20.996689091666667,
          "value": -0.43359375
        },
        {
          "ticks": 25371,
          "time": 21.002483793750002,
          "value": -0.436279296875
        },
        {
          "ticks": 25379,
          "time": 21.00910631041667,
          "value": -0.43896484375
        },
        {
          "ticks": 25386,
          "time": 21.0149010125,
          "value": -0.441650390625
        },
        {
          "ticks": 25394,
          "time": 21.021523529166668,
          "value": -0.4443359375
        },
        {
          "ticks": 25401,
          "time": 21.027318231250003,
          "value": -0.447021484375
        },
        {
          "ticks": 25409,
          "time": 21.033940747916667,
          "value": -0.44970703125
        },
        {
          "ticks": 25416,
          "time": 21.039735450000002,
          "value": -0.452392578125
        },
        {
          "ticks": 25424,
          "time": 21.04635796666667,
          "value": -0.455078125
        },
        {
          "ticks": 25431,
          "time": 21.05215266875,
          "value": -0.457763671875
        },
        {
          "ticks": 25439,
          "time": 21.058775185416668,
          "value": -0.46044921875
        },
        {
          "ticks": 25446,
          "time": 21.064569887500003,
          "value": -0.463134765625
        },
        {
          "ticks": 25454,
          "time": 21.071192404166666,
          "value": -0.4658203125
        },
        {
          "ticks": 25461,
          "time": 21.07698710625,
          "value": -0.468505859375
        },
        {
          "ticks": 25469,
          "time": 21.08360962291667,
          "value": -0.47119140625
        },
        {
          "ticks": 25476,
          "time": 21.089404325,
          "value": -0.4739990234375
        },
        {
          "ticks": 25484,
          "time": 21.096026841666667,
          "value": -0.4766845703125
        },
        {
          "ticks": 25491,
          "time": 21.101821543750003,
          "value": -0.4793701171875
        },
        {
          "ticks": 25499,
          "time": 21.10844406041667,
          "value": -0.4820556640625
        },
        {
          "ticks": 25506,
          "time": 21.1142387625,
          "value": -0.4847412109375
        },
        {
          "ticks": 25514,
          "time": 21.120861279166668,
          "value": -0.4874267578125
        },
        {
          "ticks": 25521,
          "time": 21.12665598125,
          "value": -0.4901123046875
        },
        {
          "ticks": 25529,
          "time": 21.133278497916667,
          "value": -0.4927978515625
        },
        {
          "ticks": 25536,
          "time": 21.139073200000002,
          "value": -0.4954833984375
        },
        {
          "ticks": 25544,
          "time": 21.14569571666667,
          "value": -0.4981689453125
        },
        {
          "ticks": 25551,
          "time": 21.15149041875,
          "value": -0.5008544921875
        },
        {
          "ticks": 25559,
          "time": 21.158112935416668,
          "value": -0.5035400390625
        },
        {
          "ticks": 25566,
          "time": 21.163907637500003,
          "value": -0.5062255859375
        },
        {
          "ticks": 25574,
          "time": 21.170530154166666,
          "value": -0.5089111328125
        },
        {
          "ticks": 25581,
          "time": 21.17632485625,
          "value": -0.5115966796875
        },
        {
          "ticks": 25589,
          "time": 21.18294737291667,
          "value": -0.5142822265625
        },
        {
          "ticks": 25596,
          "time": 21.188742075,
          "value": -0.51708984375
        },
        {
          "ticks": 25604,
          "time": 21.195364591666667,
          "value": -0.519775390625
        },
        {
          "ticks": 25611,
          "time": 21.201159293750003,
          "value": -0.5224609375
        },
        {
          "ticks": 25619,
          "time": 21.20778181041667,
          "value": -0.525146484375
        },
        {
          "ticks": 25626,
          "time": 21.2135765125,
          "value": -0.52783203125
        },
        {
          "ticks": 25634,
          "time": 21.22019902916667,
          "value": -0.530517578125
        },
        {
          "ticks": 25641,
          "time": 21.22599373125,
          "value": -0.533203125
        },
        {
          "ticks": 25649,
          "time": 21.232616247916667,
          "value": -0.535888671875
        },
        {
          "ticks": 25656,
          "time": 21.238410950000002,
          "value": -0.53857421875
        },
        {
          "ticks": 25664,
          "time": 21.24503346666667,
          "value": -0.541259765625
        },
        {
          "ticks": 25671,
          "time": 21.25082816875,
          "value": -0.5439453125
        },
        {
          "ticks": 25679,
          "time": 21.257450685416668,
          "value": -0.546630859375
        },
        {
          "ticks": 25686,
          "time": 21.263245387500003,
          "value": -0.54931640625
        },
        {
          "ticks": 25694,
          "time": 21.269867904166667,
          "value": -0.552001953125
        },
        {
          "ticks": 25701,
          "time": 21.275662606250002,
          "value": -0.5546875
        },
        {
          "ticks": 25709,
          "time": 21.28228512291667,
          "value": -0.557373046875
        },
        {
          "ticks": 25716,
          "time": 21.288079825,
          "value": -0.5601806640625
        },
        {
          "ticks": 25724,
          "time": 21.294702341666667,
          "value": -0.5628662109375
        },
        {
          "ticks": 25731,
          "time": 21.300497043750003,
          "value": -0.5655517578125
        },
        {
          "ticks": 25739,
          "time": 21.30711956041667,
          "value": -0.5682373046875
        },
        {
          "ticks": 25746,
          "time": 21.3129142625,
          "value": -0.5709228515625
        },
        {
          "ticks": 25754,
          "time": 21.31953677916667,
          "value": -0.5736083984375
        },
        {
          "ticks": 25761,
          "time": 21.32533148125,
          "value": -0.5762939453125
        },
        {
          "ticks": 25769,
          "time": 21.331953997916667,
          "value": -0.5789794921875
        },
        {
          "ticks": 25776,
          "time": 21.337748700000002,
          "value": -0.5816650390625
        },
        {
          "ticks": 25784,
          "time": 21.34437121666667,
          "value": -0.5843505859375
        },
        {
          "ticks": 25791,
          "time": 21.35016591875,
          "value": -0.5870361328125
        },
        {
          "ticks": 25799,
          "time": 21.356788435416668,
          "value": -0.5897216796875
        },
        {
          "ticks": 25806,
          "time": 21.362583137500003,
          "value": -0.5924072265625
        },
        {
          "ticks": 25814,
          "time": 21.369205654166667,
          "value": -0.5950927734375
        },
        {
          "ticks": 25821,
          "time": 21.375000356250002,
          "value": -0.5977783203125
        },
        {
          "ticks": 25829,
          "time": 21.38162287291667,
          "value": -0.6005859375
        },
        {
          "ticks": 25836,
          "time": 21.387417575,
          "value": -0.603271484375
        },
        {
          "ticks": 25844,
          "time": 21.394040091666668,
          "value": -0.60595703125
        },
        {
          "ticks": 25851,
          "time": 21.399834793750003,
          "value": -0.608642578125
        },
        {
          "ticks": 25859,
          "time": 21.406457310416666,
          "value": -0.611328125
        },
        {
          "ticks": 25866,
          "time": 21.4122520125,
          "value": -0.614013671875
        },
        {
          "ticks": 25874,
          "time": 21.41887452916667,
          "value": -0.61669921875
        },
        {
          "ticks": 25881,
          "time": 21.42466923125,
          "value": -0.619384765625
        },
        {
          "ticks": 25889,
          "time": 21.431291747916667,
          "value": -0.6220703125
        },
        {
          "ticks": 25896,
          "time": 21.437086450000002,
          "value": -0.624755859375
        },
        {
          "ticks": 25904,
          "time": 21.44370896666667,
          "value": -0.62744140625
        },
        {
          "ticks": 25911,
          "time": 21.44950366875,
          "value": -0.630126953125
        },
        {
          "ticks": 25919,
          "time": 21.456126185416668,
          "value": -0.6328125
        },
        {
          "ticks": 25926,
          "time": 21.461920887500003,
          "value": -0.635498046875
        },
        {
          "ticks": 25934,
          "time": 21.468543404166667,
          "value": -0.63818359375
        },
        {
          "ticks": 25940,
          "time": 21.473510291666667,
          "value": -0.640625
        },
        {
          "ticks": 25948,
          "time": 21.480132808333334,
          "value": -0.60888671875
        },
        {
          "ticks": 25955,
          "time": 21.485927510416666,
          "value": -0.5771484375
        },
        {
          "ticks": 25963,
          "time": 21.492550027083333,
          "value": -0.54541015625
        },
        {
          "ticks": 25970,
          "time": 21.498344729166668,
          "value": -0.513671875
        },
        {
          "ticks": 25978,
          "time": 21.50496724583333,
          "value": -0.48193359375
        },
        {
          "ticks": 25985,
          "time": 21.510761947916667,
          "value": -0.4501953125
        },
        {
          "ticks": 25988,
          "time": 21.51324539166667,
          "value": -0.4375
        },
        {
          "ticks": 25996,
          "time": 21.51986790833333,
          "value": -0.369140625
        },
        {
          "ticks": 26003,
          "time": 21.525662610416667,
          "value": -0.30078125
        },
        {
          "ticks": 26011,
          "time": 21.532285127083334,
          "value": -0.232421875
        },
        {
          "ticks": 26012,
          "time": 21.53311294166667,
          "value": -0.21875
        },
        {
          "ticks": 26020,
          "time": 21.539735458333336,
          "value": -0.1978759765625
        },
        {
          "ticks": 26027,
          "time": 21.545530160416668,
          "value": -0.177001953125
        },
        {
          "ticks": 26035,
          "time": 21.552152677083335,
          "value": -0.156005859375
        },
        {
          "ticks": 26040,
          "time": 21.55629175,
          "value": -0.140625
        },
        {
          "ticks": 26048,
          "time": 21.562914266666667,
          "value": -0.111328125
        },
        {
          "ticks": 26055,
          "time": 21.568708968750002,
          "value": -0.08203125
        },
        {
          "ticks": 26063,
          "time": 21.575331485416665,
          "value": -0.052734375
        },
        {
          "ticks": 26070,
          "time": 21.5811261875,
          "value": -0.0234375
        },
        {
          "ticks": 26076,
          "time": 21.586093075,
          "value": 0
        },
        {
          "ticks": 26084,
          "time": 21.592715591666668,
          "value": -0.002685546875
        },
        {
          "ticks": 26091,
          "time": 21.598510293750003,
          "value": -0.00537109375
        },
        {
          "ticks": 26099,
          "time": 21.605132810416666,
          "value": -0.008056640625
        },
        {
          "ticks": 26106,
          "time": 21.6109275125,
          "value": -0.0107421875
        },
        {
          "ticks": 26114,
          "time": 21.61755002916667,
          "value": -0.013427734375
        },
        {
          "ticks": 26121,
          "time": 21.62334473125,
          "value": -0.01611328125
        },
        {
          "ticks": 26129,
          "time": 21.629967247916667,
          "value": -0.018798828125
        },
        {
          "ticks": 26136,
          "time": 21.635761950000003,
          "value": -0.021484375
        },
        {
          "ticks": 26144,
          "time": 21.64238446666667,
          "value": -0.024169921875
        },
        {
          "ticks": 26151,
          "time": 21.64817916875,
          "value": -0.02685546875
        },
        {
          "ticks": 26159,
          "time": 21.65480168541667,
          "value": -0.029541015625
        },
        {
          "ticks": 26166,
          "time": 21.6605963875,
          "value": -0.0322265625
        },
        {
          "ticks": 26174,
          "time": 21.667218904166667,
          "value": -0.034912109375
        },
        {
          "ticks": 26181,
          "time": 21.673013606250002,
          "value": -0.03759765625
        },
        {
          "ticks": 26189,
          "time": 21.67963612291667,
          "value": -0.040283203125
        },
        {
          "ticks": 26196,
          "time": 21.685430825,
          "value": -0.0430908203125
        },
        {
          "ticks": 26204,
          "time": 21.692053341666668,
          "value": -0.0457763671875
        },
        {
          "ticks": 26211,
          "time": 21.697848043750003,
          "value": -0.0484619140625
        },
        {
          "ticks": 26219,
          "time": 21.704470560416667,
          "value": -0.0511474609375
        },
        {
          "ticks": 26226,
          "time": 21.710265262500002,
          "value": -0.0538330078125
        },
        {
          "ticks": 26234,
          "time": 21.71688777916667,
          "value": -0.0565185546875
        },
        {
          "ticks": 26241,
          "time": 21.72268248125,
          "value": -0.0592041015625
        },
        {
          "ticks": 26249,
          "time": 21.729304997916667,
          "value": -0.0618896484375
        },
        {
          "ticks": 26256,
          "time": 21.735099700000003,
          "value": -0.0645751953125
        },
        {
          "ticks": 26264,
          "time": 21.74172221666667,
          "value": -0.0672607421875
        },
        {
          "ticks": 26271,
          "time": 21.74751691875,
          "value": -0.0699462890625
        },
        {
          "ticks": 26279,
          "time": 21.75413943541667,
          "value": -0.0726318359375
        },
        {
          "ticks": 26286,
          "time": 21.7599341375,
          "value": -0.0753173828125
        },
        {
          "ticks": 26294,
          "time": 21.766556654166667,
          "value": -0.0780029296875
        },
        {
          "ticks": 26301,
          "time": 21.772351356250002,
          "value": -0.0806884765625
        },
        {
          "ticks": 26309,
          "time": 21.77897387291667,
          "value": -0.0833740234375
        },
        {
          "ticks": 26316,
          "time": 21.784768575,
          "value": -0.086181640625
        },
        {
          "ticks": 26324,
          "time": 21.791391091666668,
          "value": -0.0888671875
        },
        {
          "ticks": 26331,
          "time": 21.797185793750003,
          "value": -0.091552734375
        },
        {
          "ticks": 26339,
          "time": 21.803808310416667,
          "value": -0.09423828125
        },
        {
          "ticks": 26346,
          "time": 21.809603012500002,
          "value": -0.096923828125
        },
        {
          "ticks": 26354,
          "time": 21.81622552916667,
          "value": -0.099609375
        },
        {
          "ticks": 26361,
          "time": 21.82202023125,
          "value": -0.102294921875
        },
        {
          "ticks": 26369,
          "time": 21.828642747916668,
          "value": -0.10498046875
        },
        {
          "ticks": 26376,
          "time": 21.834437450000003,
          "value": -0.107666015625
        },
        {
          "ticks": 26384,
          "time": 21.841059966666666,
          "value": -0.1103515625
        },
        {
          "ticks": 26391,
          "time": 21.84685466875,
          "value": -0.113037109375
        },
        {
          "ticks": 26399,
          "time": 21.85347718541667,
          "value": -0.11572265625
        },
        {
          "ticks": 26406,
          "time": 21.8592718875,
          "value": -0.118408203125
        },
        {
          "ticks": 26414,
          "time": 21.865894404166667,
          "value": -0.12109375
        },
        {
          "ticks": 26421,
          "time": 21.871689106250003,
          "value": -0.123779296875
        },
        {
          "ticks": 26429,
          "time": 21.87831162291667,
          "value": -0.12646484375
        },
        {
          "ticks": 26436,
          "time": 21.884106325,
          "value": -0.1292724609375
        },
        {
          "ticks": 26444,
          "time": 21.890728841666668,
          "value": -0.1319580078125
        },
        {
          "ticks": 26451,
          "time": 21.896523543750003,
          "value": -0.1346435546875
        },
        {
          "ticks": 26459,
          "time": 21.903146060416667,
          "value": -0.1373291015625
        },
        {
          "ticks": 26466,
          "time": 21.908940762500002,
          "value": -0.1400146484375
        },
        {
          "ticks": 26474,
          "time": 21.91556327916667,
          "value": -0.1427001953125
        },
        {
          "ticks": 26481,
          "time": 21.92135798125,
          "value": -0.1453857421875
        },
        {
          "ticks": 26489,
          "time": 21.927980497916668,
          "value": -0.1480712890625
        },
        {
          "ticks": 26496,
          "time": 21.933775200000003,
          "value": -0.1507568359375
        },
        {
          "ticks": 26504,
          "time": 21.940397716666666,
          "value": -0.1534423828125
        },
        {
          "ticks": 26511,
          "time": 21.94619241875,
          "value": -0.1561279296875
        },
        {
          "ticks": 26519,
          "time": 21.95281493541667,
          "value": -0.1588134765625
        },
        {
          "ticks": 26526,
          "time": 21.9586096375,
          "value": -0.1614990234375
        },
        {
          "ticks": 26534,
          "time": 21.965232154166667,
          "value": -0.1641845703125
        },
        {
          "ticks": 26541,
          "time": 21.971026856250003,
          "value": -0.1668701171875
        },
        {
          "ticks": 26549,
          "time": 21.97764937291667,
          "value": -0.1695556640625
        },
        {
          "ticks": 26556,
          "time": 21.983444075,
          "value": -0.17236328125
        },
        {
          "ticks": 26564,
          "time": 21.990066591666668,
          "value": -0.175048828125
        },
        {
          "ticks": 26571,
          "time": 21.99586129375,
          "value": -0.177734375
        },
        {
          "ticks": 26579,
          "time": 22.002483810416667,
          "value": -0.180419921875
        },
        {
          "ticks": 26586,
          "time": 22.008278512500002,
          "value": -0.18310546875
        },
        {
          "ticks": 26594,
          "time": 22.01490102916667,
          "value": -0.185791015625
        },
        {
          "ticks": 26601,
          "time": 22.02069573125,
          "value": -0.1884765625
        },
        {
          "ticks": 26609,
          "time": 22.027318247916668,
          "value": -0.191162109375
        },
        {
          "ticks": 26616,
          "time": 22.033112950000003,
          "value": -0.19384765625
        },
        {
          "ticks": 26624,
          "time": 22.039735466666666,
          "value": -0.196533203125
        },
        {
          "ticks": 26631,
          "time": 22.045530168750002,
          "value": -0.19921875
        },
        {
          "ticks": 26639,
          "time": 22.05215268541667,
          "value": -0.201904296875
        },
        {
          "ticks": 26646,
          "time": 22.0579473875,
          "value": -0.20458984375
        },
        {
          "ticks": 26654,
          "time": 22.064569904166667,
          "value": -0.207275390625
        },
        {
          "ticks": 26661,
          "time": 22.070364606250003,
          "value": -0.2099609375
        },
        {
          "ticks": 26669,
          "time": 22.07698712291667,
          "value": -0.212646484375
        },
        {
          "ticks": 26676,
          "time": 22.082781825,
          "value": -0.2154541015625
        },
        {
          "ticks": 26684,
          "time": 22.08940434166667,
          "value": -0.2181396484375
        },
        {
          "ticks": 26691,
          "time": 22.09519904375,
          "value": -0.2208251953125
        },
        {
          "ticks": 26699,
          "time": 22.101821560416667,
          "value": -0.2235107421875
        },
        {
          "ticks": 26706,
          "time": 22.107616262500002,
          "value": -0.2261962890625
        },
        {
          "ticks": 26714,
          "time": 22.11423877916667,
          "value": -0.2288818359375
        },
        {
          "ticks": 26721,
          "time": 22.12003348125,
          "value": -0.2315673828125
        },
        {
          "ticks": 26729,
          "time": 22.126655997916668,
          "value": -0.2342529296875
        },
        {
          "ticks": 26736,
          "time": 22.132450700000003,
          "value": -0.2369384765625
        },
        {
          "ticks": 26744,
          "time": 22.139073216666667,
          "value": -0.2396240234375
        },
        {
          "ticks": 26751,
          "time": 22.144867918750002,
          "value": -0.2423095703125
        },
        {
          "ticks": 26759,
          "time": 22.15149043541667,
          "value": -0.2449951171875
        },
        {
          "ticks": 26766,
          "time": 22.1572851375,
          "value": -0.2476806640625
        },
        {
          "ticks": 26774,
          "time": 22.163907654166668,
          "value": -0.2503662109375
        },
        {
          "ticks": 26781,
          "time": 22.169702356250003,
          "value": -0.2530517578125
        },
        {
          "ticks": 26789,
          "time": 22.176324872916666,
          "value": -0.2557373046875
        },
        {
          "ticks": 26796,
          "time": 22.182119575,
          "value": -0.258544921875
        },
        {
          "ticks": 26804,
          "time": 22.18874209166667,
          "value": -0.26123046875
        },
        {
          "ticks": 26811,
          "time": 22.19453679375,
          "value": -0.263916015625
        },
        {
          "ticks": 26819,
          "time": 22.201159310416667,
          "value": -0.2666015625
        },
        {
          "ticks": 26826,
          "time": 22.206954012500002,
          "value": -0.269287109375
        },
        {
          "ticks": 26834,
          "time": 22.21357652916667,
          "value": -0.27197265625
        },
        {
          "ticks": 26841,
          "time": 22.21937123125,
          "value": -0.274658203125
        },
        {
          "ticks": 26849,
          "time": 22.225993747916668,
          "value": -0.27734375
        },
        {
          "ticks": 26856,
          "time": 22.231788450000003,
          "value": -0.280029296875
        },
        {
          "ticks": 26864,
          "time": 22.238410966666667,
          "value": -0.28271484375
        },
        {
          "ticks": 26871,
          "time": 22.244205668750002,
          "value": -0.285400390625
        },
        {
          "ticks": 26879,
          "time": 22.25082818541667,
          "value": -0.2880859375
        },
        {
          "ticks": 26886,
          "time": 22.2566228875,
          "value": -0.290771484375
        },
        {
          "ticks": 26894,
          "time": 22.263245404166668,
          "value": -0.29345703125
        },
        {
          "ticks": 26901,
          "time": 22.269040106250003,
          "value": -0.296142578125
        },
        {
          "ticks": 26909,
          "time": 22.275662622916666,
          "value": -0.298828125
        },
        {
          "ticks": 26916,
          "time": 22.281457325,
          "value": -0.3016357421875
        },
        {
          "ticks": 26924,
          "time": 22.28807984166667,
          "value": -0.3043212890625
        },
        {
          "ticks": 26931,
          "time": 22.29387454375,
          "value": -0.3070068359375
        },
        {
          "ticks": 26939,
          "time": 22.300497060416667,
          "value": -0.3096923828125
        },
        {
          "ticks": 26946,
          "time": 22.306291762500003,
          "value": -0.3123779296875
        },
        {
          "ticks": 26954,
          "time": 22.31291427916667,
          "value": -0.3150634765625
        },
        {
          "ticks": 26961,
          "time": 22.31870898125,
          "value": -0.3177490234375
        },
        {
          "ticks": 26969,
          "time": 22.325331497916668,
          "value": -0.3204345703125
        },
        {
          "ticks": 26976,
          "time": 22.3311262,
          "value": -0.3231201171875
        },
        {
          "ticks": 26984,
          "time": 22.337748716666667,
          "value": -0.3258056640625
        },
        {
          "ticks": 26991,
          "time": 22.343543418750002,
          "value": -0.3284912109375
        },
        {
          "ticks": 26999,
          "time": 22.35016593541667,
          "value": -0.3311767578125
        },
        {
          "ticks": 27006,
          "time": 22.3559606375,
          "value": -0.3338623046875
        },
        {
          "ticks": 27014,
          "time": 22.362583154166668,
          "value": -0.3365478515625
        },
        {
          "ticks": 27021,
          "time": 22.368377856250003,
          "value": -0.3392333984375
        },
        {
          "ticks": 27029,
          "time": 22.375000372916666,
          "value": -0.3419189453125
        },
        {
          "ticks": 27036,
          "time": 22.380795075,
          "value": -0.3447265625
        },
        {
          "ticks": 27044,
          "time": 22.38741759166667,
          "value": -0.347412109375
        },
        {
          "ticks": 27051,
          "time": 22.39321229375,
          "value": -0.35009765625
        },
        {
          "ticks": 27059,
          "time": 22.399834810416667,
          "value": -0.352783203125
        },
        {
          "ticks": 27066,
          "time": 22.405629512500003,
          "value": -0.35546875
        },
        {
          "ticks": 27074,
          "time": 22.41225202916667,
          "value": -0.358154296875
        },
        {
          "ticks": 27081,
          "time": 22.41804673125,
          "value": -0.36083984375
        },
        {
          "ticks": 27089,
          "time": 22.42466924791667,
          "value": -0.363525390625
        },
        {
          "ticks": 27096,
          "time": 22.43046395,
          "value": -0.3662109375
        },
        {
          "ticks": 27104,
          "time": 22.437086466666667,
          "value": -0.368896484375
        },
        {
          "ticks": 27111,
          "time": 22.442881168750002,
          "value": -0.37158203125
        },
        {
          "ticks": 27119,
          "time": 22.44950368541667,
          "value": -0.374267578125
        },
        {
          "ticks": 27126,
          "time": 22.4552983875,
          "value": -0.376953125
        },
        {
          "ticks": 27134,
          "time": 22.461920904166668,
          "value": -0.379638671875
        },
        {
          "ticks": 27141,
          "time": 22.467715606250003,
          "value": -0.38232421875
        },
        {
          "ticks": 27149,
          "time": 22.474338122916667,
          "value": -0.385009765625
        },
        {
          "ticks": 27156,
          "time": 22.480132825000002,
          "value": -0.3878173828125
        },
        {
          "ticks": 27164,
          "time": 22.48675534166667,
          "value": -0.3905029296875
        },
        {
          "ticks": 27171,
          "time": 22.49255004375,
          "value": -0.3931884765625
        },
        {
          "ticks": 27179,
          "time": 22.499172560416667,
          "value": -0.3958740234375
        },
        {
          "ticks": 27186,
          "time": 22.504967262500003,
          "value": -0.3985595703125
        },
        {
          "ticks": 27194,
          "time": 22.51158977916667,
          "value": -0.4012451171875
        },
        {
          "ticks": 27201,
          "time": 22.51738448125,
          "value": -0.4039306640625
        },
        {
          "ticks": 27209,
          "time": 22.52400699791667,
          "value": -0.4066162109375
        },
        {
          "ticks": 27216,
          "time": 22.5298017,
          "value": -0.4093017578125
        },
        {
          "ticks": 27224,
          "time": 22.536424216666667,
          "value": -0.4119873046875
        },
        {
          "ticks": 27231,
          "time": 22.542218918750002,
          "value": -0.4146728515625
        },
        {
          "ticks": 27239,
          "time": 22.54884143541667,
          "value": -0.4173583984375
        },
        {
          "ticks": 27246,
          "time": 22.5546361375,
          "value": -0.4200439453125
        },
        {
          "ticks": 27254,
          "time": 22.561258654166668,
          "value": -0.4227294921875
        },
        {
          "ticks": 27261,
          "time": 22.567053356250003,
          "value": -0.4254150390625
        },
        {
          "ticks": 27269,
          "time": 22.573675872916667,
          "value": -0.4281005859375
        },
        {
          "ticks": 27276,
          "time": 22.579470575000002,
          "value": -0.430908203125
        },
        {
          "ticks": 27284,
          "time": 22.58609309166667,
          "value": -0.43359375
        },
        {
          "ticks": 27291,
          "time": 22.59188779375,
          "value": -0.436279296875
        },
        {
          "ticks": 27299,
          "time": 22.598510310416668,
          "value": -0.43896484375
        },
        {
          "ticks": 27306,
          "time": 22.604305012500003,
          "value": -0.441650390625
        },
        {
          "ticks": 27314,
          "time": 22.610927529166666,
          "value": -0.4443359375
        },
        {
          "ticks": 27321,
          "time": 22.61672223125,
          "value": -0.447021484375
        },
        {
          "ticks": 27329,
          "time": 22.62334474791667,
          "value": -0.44970703125
        },
        {
          "ticks": 27336,
          "time": 22.62913945,
          "value": -0.452392578125
        },
        {
          "ticks": 27344,
          "time": 22.635761966666667,
          "value": -0.455078125
        },
        {
          "ticks": 27351,
          "time": 22.641556668750003,
          "value": -0.457763671875
        },
        {
          "ticks": 27359,
          "time": 22.64817918541667,
          "value": -0.46044921875
        },
        {
          "ticks": 27366,
          "time": 22.6539738875,
          "value": -0.463134765625
        },
        {
          "ticks": 27374,
          "time": 22.660596404166668,
          "value": -0.4658203125
        },
        {
          "ticks": 27381,
          "time": 22.666391106250003,
          "value": -0.468505859375
        },
        {
          "ticks": 27389,
          "time": 22.673013622916667,
          "value": -0.47119140625
        },
        {
          "ticks": 27396,
          "time": 22.678808325000002,
          "value": -0.4739990234375
        },
        {
          "ticks": 27404,
          "time": 22.68543084166667,
          "value": -0.4766845703125
        },
        {
          "ticks": 27411,
          "time": 22.69122554375,
          "value": -0.4793701171875
        },
        {
          "ticks": 27419,
          "time": 22.697848060416668,
          "value": -0.4820556640625
        },
        {
          "ticks": 27426,
          "time": 22.703642762500003,
          "value": -0.4847412109375
        },
        {
          "ticks": 27434,
          "time": 22.710265279166666,
          "value": -0.4874267578125
        },
        {
          "ticks": 27441,
          "time": 22.71605998125,
          "value": -0.4901123046875
        },
        {
          "ticks": 27449,
          "time": 22.72268249791667,
          "value": -0.4927978515625
        },
        {
          "ticks": 27456,
          "time": 22.7284772,
          "value": -0.4954833984375
        },
        {
          "ticks": 27464,
          "time": 22.735099716666667,
          "value": -0.4981689453125
        },
        {
          "ticks": 27471,
          "time": 22.740894418750003,
          "value": -0.5008544921875
        },
        {
          "ticks": 27479,
          "time": 22.74751693541667,
          "value": -0.5035400390625
        },
        {
          "ticks": 27486,
          "time": 22.7533116375,
          "value": -0.5062255859375
        },
        {
          "ticks": 27494,
          "time": 22.759934154166668,
          "value": -0.5089111328125
        },
        {
          "ticks": 27501,
          "time": 22.76572885625,
          "value": -0.5115966796875
        },
        {
          "ticks": 27509,
          "time": 22.772351372916667,
          "value": -0.5142822265625
        },
        {
          "ticks": 27516,
          "time": 22.778146075000002,
          "value": -0.51708984375
        },
        {
          "ticks": 27524,
          "time": 22.78476859166667,
          "value": -0.519775390625
        },
        {
          "ticks": 27531,
          "time": 22.79056329375,
          "value": -0.5224609375
        },
        {
          "ticks": 27539,
          "time": 22.797185810416668,
          "value": -0.525146484375
        },
        {
          "ticks": 27546,
          "time": 22.802980512500003,
          "value": -0.52783203125
        },
        {
          "ticks": 27554,
          "time": 22.809603029166666,
          "value": -0.530517578125
        },
        {
          "ticks": 27561,
          "time": 22.815397731250002,
          "value": -0.533203125
        },
        {
          "ticks": 27569,
          "time": 22.82202024791667,
          "value": -0.535888671875
        },
        {
          "ticks": 27576,
          "time": 22.82781495,
          "value": -0.53857421875
        },
        {
          "ticks": 27584,
          "time": 22.834437466666667,
          "value": -0.541259765625
        },
        {
          "ticks": 27591,
          "time": 22.840232168750003,
          "value": -0.5439453125
        },
        {
          "ticks": 27599,
          "time": 22.84685468541667,
          "value": -0.546630859375
        },
        {
          "ticks": 27606,
          "time": 22.8526493875,
          "value": -0.54931640625
        },
        {
          "ticks": 27614,
          "time": 22.85927190416667,
          "value": -0.552001953125
        },
        {
          "ticks": 27621,
          "time": 22.86506660625,
          "value": -0.5546875
        },
        {
          "ticks": 27629,
          "time": 22.871689122916667,
          "value": -0.557373046875
        },
        {
          "ticks": 27636,
          "time": 22.877483825000002,
          "value": -0.5601806640625
        },
        {
          "ticks": 27644,
          "time": 22.88410634166667,
          "value": -0.5628662109375
        },
        {
          "ticks": 27651,
          "time": 22.88990104375,
          "value": -0.5655517578125
        },
        {
          "ticks": 27659,
          "time": 22.896523560416668,
          "value": -0.5682373046875
        },
        {
          "ticks": 27666,
          "time": 22.902318262500003,
          "value": -0.5709228515625
        },
        {
          "ticks": 27674,
          "time": 22.908940779166667,
          "value": -0.5736083984375
        },
        {
          "ticks": 27681,
          "time": 22.914735481250002,
          "value": -0.5762939453125
        },
        {
          "ticks": 27689,
          "time": 22.92135799791667,
          "value": -0.5789794921875
        },
        {
          "ticks": 27696,
          "time": 22.9271527,
          "value": -0.5816650390625
        },
        {
          "ticks": 27704,
          "time": 22.933775216666668,
          "value": -0.5843505859375
        },
        {
          "ticks": 27711,
          "time": 22.939569918750003,
          "value": -0.5870361328125
        },
        {
          "ticks": 27719,
          "time": 22.94619243541667,
          "value": -0.5897216796875
        },
        {
          "ticks": 27726,
          "time": 22.9519871375,
          "value": -0.5924072265625
        },
        {
          "ticks": 27734,
          "time": 22.95860965416667,
          "value": -0.5950927734375
        },
        {
          "ticks": 27741,
          "time": 22.96440435625,
          "value": -0.5977783203125
        },
        {
          "ticks": 27749,
          "time": 22.971026872916667,
          "value": -0.6005859375
        },
        {
          "ticks": 27756,
          "time": 22.976821575000002,
          "value": -0.603271484375
        },
        {
          "ticks": 27764,
          "time": 22.98344409166667,
          "value": -0.60595703125
        },
        {
          "ticks": 27771,
          "time": 22.98923879375,
          "value": -0.608642578125
        },
        {
          "ticks": 27779,
          "time": 22.995861310416668,
          "value": -0.611328125
        },
        {
          "ticks": 27786,
          "time": 23.001656012500003,
          "value": -0.614013671875
        },
        {
          "ticks": 27794,
          "time": 23.008278529166667,
          "value": -0.61669921875
        },
        {
          "ticks": 27801,
          "time": 23.014073231250002,
          "value": -0.619384765625
        },
        {
          "ticks": 27809,
          "time": 23.02069574791667,
          "value": -0.6220703125
        },
        {
          "ticks": 27816,
          "time": 23.02649045,
          "value": -0.624755859375
        },
        {
          "ticks": 27824,
          "time": 23.033112966666668,
          "value": -0.62744140625
        },
        {
          "ticks": 27831,
          "time": 23.038907668750003,
          "value": -0.630126953125
        },
        {
          "ticks": 27839,
          "time": 23.045530185416666,
          "value": -0.6328125
        },
        {
          "ticks": 27846,
          "time": 23.0513248875,
          "value": -0.635498046875
        },
        {
          "ticks": 27854,
          "time": 23.05794740416667,
          "value": -0.63818359375
        },
        {
          "ticks": 27860,
          "time": 23.062914291666665,
          "value": -0.640625
        },
        {
          "ticks": 27868,
          "time": 23.069536808333332,
          "value": -0.60888671875
        },
        {
          "ticks": 27875,
          "time": 23.075331510416667,
          "value": -0.5771484375
        },
        {
          "ticks": 27883,
          "time": 23.081954027083334,
          "value": -0.54541015625
        },
        {
          "ticks": 27890,
          "time": 23.087748729166666,
          "value": -0.513671875
        },
        {
          "ticks": 27898,
          "time": 23.094371245833333,
          "value": -0.48193359375
        },
        {
          "ticks": 27905,
          "time": 23.100165947916665,
          "value": -0.4501953125
        },
        {
          "ticks": 27908,
          "time": 23.102649391666667,
          "value": -0.4375
        },
        {
          "ticks": 27916,
          "time": 23.109271908333334,
          "value": -0.369140625
        },
        {
          "ticks": 27923,
          "time": 23.115066610416665,
          "value": -0.30078125
        },
        {
          "ticks": 27931,
          "time": 23.121689127083332,
          "value": -0.232421875
        },
        {
          "ticks": 27932,
          "time": 23.122516941666667,
          "value": -0.21875
        },
        {
          "ticks": 27940,
          "time": 23.129139458333334,
          "value": -0.1978759765625
        },
        {
          "ticks": 27947,
          "time": 23.13493416041667,
          "value": -0.177001953125
        },
        {
          "ticks": 27955,
          "time": 23.141556677083337,
          "value": -0.156005859375
        },
        {
          "ticks": 27960,
          "time": 23.14569575,
          "value": -0.140625
        },
        {
          "ticks": 27968,
          "time": 23.15231826666667,
          "value": -0.111328125
        },
        {
          "ticks": 27975,
          "time": 23.15811296875,
          "value": -0.08203125
        },
        {
          "ticks": 27983,
          "time": 23.164735485416667,
          "value": -0.052734375
        },
        {
          "ticks": 27990,
          "time": 23.1705301875,
          "value": -0.0234375
        },
        {
          "ticks": 27996,
          "time": 23.175497075000003,
          "value": 0
        },
        {
          "ticks": 28004,
          "time": 23.18211959166667,
          "value": -0.002685546875
        },
        {
          "ticks": 28011,
          "time": 23.18791429375,
          "value": -0.00537109375
        },
        {
          "ticks": 28019,
          "time": 23.19453681041667,
          "value": -0.008056640625
        },
        {
          "ticks": 28026,
          "time": 23.2003315125,
          "value": -0.0107421875
        },
        {
          "ticks": 28034,
          "time": 23.206954029166667,
          "value": -0.013427734375
        },
        {
          "ticks": 28041,
          "time": 23.212748731250002,
          "value": -0.01611328125
        },
        {
          "ticks": 28049,
          "time": 23.21937124791667,
          "value": -0.018798828125
        },
        {
          "ticks": 28056,
          "time": 23.22516595,
          "value": -0.021484375
        },
        {
          "ticks": 28064,
          "time": 23.231788466666668,
          "value": -0.024169921875
        },
        {
          "ticks": 28071,
          "time": 23.237583168750003,
          "value": -0.02685546875
        },
        {
          "ticks": 28079,
          "time": 23.244205685416667,
          "value": -0.029541015625
        },
        {
          "ticks": 28086,
          "time": 23.250000387500002,
          "value": -0.0322265625
        },
        {
          "ticks": 28094,
          "time": 23.25662290416667,
          "value": -0.034912109375
        },
        {
          "ticks": 28101,
          "time": 23.26241760625,
          "value": -0.03759765625
        },
        {
          "ticks": 28109,
          "time": 23.269040122916667,
          "value": -0.040283203125
        },
        {
          "ticks": 28116,
          "time": 23.274834825000003,
          "value": -0.0430908203125
        },
        {
          "ticks": 28124,
          "time": 23.28145734166667,
          "value": -0.0457763671875
        },
        {
          "ticks": 28131,
          "time": 23.28725204375,
          "value": -0.0484619140625
        },
        {
          "ticks": 28139,
          "time": 23.29387456041667,
          "value": -0.0511474609375
        },
        {
          "ticks": 28146,
          "time": 23.2996692625,
          "value": -0.0538330078125
        },
        {
          "ticks": 28154,
          "time": 23.306291779166667,
          "value": -0.0565185546875
        },
        {
          "ticks": 28161,
          "time": 23.312086481250002,
          "value": -0.0592041015625
        },
        {
          "ticks": 28169,
          "time": 23.31870899791667,
          "value": -0.0618896484375
        },
        {
          "ticks": 28176,
          "time": 23.3245037,
          "value": -0.0645751953125
        },
        {
          "ticks": 28184,
          "time": 23.331126216666668,
          "value": -0.0672607421875
        },
        {
          "ticks": 28191,
          "time": 23.336920918750003,
          "value": -0.0699462890625
        },
        {
          "ticks": 28199,
          "time": 23.343543435416667,
          "value": -0.0726318359375
        },
        {
          "ticks": 28206,
          "time": 23.349338137500002,
          "value": -0.0753173828125
        },
        {
          "ticks": 28214,
          "time": 23.35596065416667,
          "value": -0.0780029296875
        },
        {
          "ticks": 28221,
          "time": 23.36175535625,
          "value": -0.0806884765625
        },
        {
          "ticks": 28229,
          "time": 23.368377872916668,
          "value": -0.0833740234375
        },
        {
          "ticks": 28236,
          "time": 23.374172575000003,
          "value": -0.086181640625
        },
        {
          "ticks": 28244,
          "time": 23.380795091666666,
          "value": -0.0888671875
        },
        {
          "ticks": 28251,
          "time": 23.38658979375,
          "value": -0.091552734375
        },
        {
          "ticks": 28259,
          "time": 23.39321231041667,
          "value": -0.09423828125
        },
        {
          "ticks": 28266,
          "time": 23.3990070125,
          "value": -0.096923828125
        },
        {
          "ticks": 28274,
          "time": 23.405629529166667,
          "value": -0.099609375
        },
        {
          "ticks": 28281,
          "time": 23.411424231250002,
          "value": -0.102294921875
        },
        {
          "ticks": 28289,
          "time": 23.41804674791667,
          "value": -0.10498046875
        },
        {
          "ticks": 28296,
          "time": 23.42384145,
          "value": -0.107666015625
        },
        {
          "ticks": 28304,
          "time": 23.430463966666668,
          "value": -0.1103515625
        },
        {
          "ticks": 28311,
          "time": 23.436258668750003,
          "value": -0.113037109375
        },
        {
          "ticks": 28319,
          "time": 23.442881185416667,
          "value": -0.11572265625
        },
        {
          "ticks": 28326,
          "time": 23.448675887500002,
          "value": -0.118408203125
        },
        {
          "ticks": 28334,
          "time": 23.45529840416667,
          "value": -0.12109375
        },
        {
          "ticks": 28341,
          "time": 23.46109310625,
          "value": -0.123779296875
        },
        {
          "ticks": 28349,
          "time": 23.467715622916668,
          "value": -0.12646484375
        },
        {
          "ticks": 28356,
          "time": 23.473510325000003,
          "value": -0.1292724609375
        },
        {
          "ticks": 28364,
          "time": 23.480132841666666,
          "value": -0.1319580078125
        },
        {
          "ticks": 28371,
          "time": 23.48592754375,
          "value": -0.1346435546875
        },
        {
          "ticks": 28379,
          "time": 23.49255006041667,
          "value": -0.1373291015625
        },
        {
          "ticks": 28386,
          "time": 23.4983447625,
          "value": -0.1400146484375
        },
        {
          "ticks": 28394,
          "time": 23.504967279166667,
          "value": -0.1427001953125
        },
        {
          "ticks": 28401,
          "time": 23.510761981250003,
          "value": -0.1453857421875
        },
        {
          "ticks": 28409,
          "time": 23.51738449791667,
          "value": -0.1480712890625
        },
        {
          "ticks": 28416,
          "time": 23.5231792,
          "value": -0.1507568359375
        },
        {
          "ticks": 28424,
          "time": 23.529801716666668,
          "value": -0.1534423828125
        },
        {
          "ticks": 28431,
          "time": 23.53559641875,
          "value": -0.1561279296875
        },
        {
          "ticks": 28439,
          "time": 23.542218935416667,
          "value": -0.1588134765625
        },
        {
          "ticks": 28446,
          "time": 23.548013637500002,
          "value": -0.1614990234375
        },
        {
          "ticks": 28454,
          "time": 23.55463615416667,
          "value": -0.1641845703125
        },
        {
          "ticks": 28461,
          "time": 23.56043085625,
          "value": -0.1668701171875
        },
        {
          "ticks": 28469,
          "time": 23.567053372916668,
          "value": -0.1695556640625
        },
        {
          "ticks": 28476,
          "time": 23.572848075000003,
          "value": -0.17236328125
        },
        {
          "ticks": 28484,
          "time": 23.579470591666666,
          "value": -0.175048828125
        },
        {
          "ticks": 28491,
          "time": 23.585265293750002,
          "value": -0.177734375
        },
        {
          "ticks": 28499,
          "time": 23.59188781041667,
          "value": -0.180419921875
        },
        {
          "ticks": 28506,
          "time": 23.5976825125,
          "value": -0.18310546875
        },
        {
          "ticks": 28514,
          "time": 23.604305029166667,
          "value": -0.185791015625
        },
        {
          "ticks": 28521,
          "time": 23.610099731250003,
          "value": -0.1884765625
        },
        {
          "ticks": 28529,
          "time": 23.61672224791667,
          "value": -0.191162109375
        },
        {
          "ticks": 28536,
          "time": 23.62251695,
          "value": -0.19384765625
        },
        {
          "ticks": 28544,
          "time": 23.62913946666667,
          "value": -0.196533203125
        },
        {
          "ticks": 28551,
          "time": 23.63493416875,
          "value": -0.19921875
        },
        {
          "ticks": 28559,
          "time": 23.641556685416667,
          "value": -0.201904296875
        },
        {
          "ticks": 28566,
          "time": 23.647351387500002,
          "value": -0.20458984375
        },
        {
          "ticks": 28574,
          "time": 23.65397390416667,
          "value": -0.207275390625
        },
        {
          "ticks": 28581,
          "time": 23.65976860625,
          "value": -0.2099609375
        },
        {
          "ticks": 28589,
          "time": 23.666391122916668,
          "value": -0.212646484375
        },
        {
          "ticks": 28596,
          "time": 23.672185825000003,
          "value": -0.2154541015625
        },
        {
          "ticks": 28604,
          "time": 23.678808341666667,
          "value": -0.2181396484375
        },
        {
          "ticks": 28611,
          "time": 23.684603043750002,
          "value": -0.2208251953125
        },
        {
          "ticks": 28619,
          "time": 23.69122556041667,
          "value": -0.2235107421875
        },
        {
          "ticks": 28626,
          "time": 23.6970202625,
          "value": -0.2261962890625
        },
        {
          "ticks": 28634,
          "time": 23.703642779166668,
          "value": -0.2288818359375
        },
        {
          "ticks": 28641,
          "time": 23.709437481250003,
          "value": -0.2315673828125
        },
        {
          "ticks": 28649,
          "time": 23.71605999791667,
          "value": -0.2342529296875
        },
        {
          "ticks": 28656,
          "time": 23.7218547,
          "value": -0.2369384765625
        },
        {
          "ticks": 28664,
          "time": 23.72847721666667,
          "value": -0.2396240234375
        },
        {
          "ticks": 28671,
          "time": 23.73427191875,
          "value": -0.2423095703125
        },
        {
          "ticks": 28679,
          "time": 23.740894435416667,
          "value": -0.2449951171875
        },
        {
          "ticks": 28686,
          "time": 23.746689137500002,
          "value": -0.2476806640625
        },
        {
          "ticks": 28694,
          "time": 23.75331165416667,
          "value": -0.2503662109375
        },
        {
          "ticks": 28701,
          "time": 23.75910635625,
          "value": -0.2530517578125
        },
        {
          "ticks": 28709,
          "time": 23.765728872916668,
          "value": -0.2557373046875
        },
        {
          "ticks": 28716,
          "time": 23.771523575000003,
          "value": -0.258544921875
        },
        {
          "ticks": 28724,
          "time": 23.778146091666667,
          "value": -0.26123046875
        },
        {
          "ticks": 28731,
          "time": 23.783940793750002,
          "value": -0.263916015625
        },
        {
          "ticks": 28739,
          "time": 23.79056331041667,
          "value": -0.2666015625
        },
        {
          "ticks": 28746,
          "time": 23.7963580125,
          "value": -0.269287109375
        },
        {
          "ticks": 28754,
          "time": 23.802980529166668,
          "value": -0.27197265625
        },
        {
          "ticks": 28761,
          "time": 23.808775231250003,
          "value": -0.274658203125
        },
        {
          "ticks": 28769,
          "time": 23.815397747916666,
          "value": -0.27734375
        },
        {
          "ticks": 28776,
          "time": 23.82119245,
          "value": -0.280029296875
        },
        {
          "ticks": 28784,
          "time": 23.82781496666667,
          "value": -0.28271484375
        },
        {
          "ticks": 28791,
          "time": 23.83360966875,
          "value": -0.285400390625
        },
        {
          "ticks": 28799,
          "time": 23.840232185416667,
          "value": -0.2880859375
        },
        {
          "ticks": 28806,
          "time": 23.846026887500003,
          "value": -0.290771484375
        },
        {
          "ticks": 28814,
          "time": 23.85264940416667,
          "value": -0.29345703125
        },
        {
          "ticks": 28821,
          "time": 23.85844410625,
          "value": -0.296142578125
        },
        {
          "ticks": 28829,
          "time": 23.865066622916668,
          "value": -0.298828125
        },
        {
          "ticks": 28836,
          "time": 23.870861325000003,
          "value": -0.3016357421875
        },
        {
          "ticks": 28844,
          "time": 23.877483841666667,
          "value": -0.3043212890625
        },
        {
          "ticks": 28851,
          "time": 23.883278543750002,
          "value": -0.3070068359375
        },
        {
          "ticks": 28859,
          "time": 23.88990106041667,
          "value": -0.3096923828125
        },
        {
          "ticks": 28866,
          "time": 23.8956957625,
          "value": -0.3123779296875
        },
        {
          "ticks": 28874,
          "time": 23.902318279166668,
          "value": -0.3150634765625
        },
        {
          "ticks": 28881,
          "time": 23.908112981250003,
          "value": -0.3177490234375
        },
        {
          "ticks": 28889,
          "time": 23.914735497916666,
          "value": -0.3204345703125
        },
        {
          "ticks": 28896,
          "time": 23.9205302,
          "value": -0.3231201171875
        },
        {
          "ticks": 28904,
          "time": 23.92715271666667,
          "value": -0.3258056640625
        },
        {
          "ticks": 28911,
          "time": 23.93294741875,
          "value": -0.3284912109375
        },
        {
          "ticks": 28919,
          "time": 23.939569935416667,
          "value": -0.3311767578125
        },
        {
          "ticks": 28926,
          "time": 23.945364637500003,
          "value": -0.3338623046875
        },
        {
          "ticks": 28934,
          "time": 23.95198715416667,
          "value": -0.3365478515625
        },
        {
          "ticks": 28941,
          "time": 23.95778185625,
          "value": -0.3392333984375
        },
        {
          "ticks": 28949,
          "time": 23.96440437291667,
          "value": -0.3419189453125
        },
        {
          "ticks": 28956,
          "time": 23.970199075,
          "value": -0.3447265625
        },
        {
          "ticks": 28964,
          "time": 23.976821591666667,
          "value": -0.347412109375
        },
        {
          "ticks": 28971,
          "time": 23.982616293750002,
          "value": -0.35009765625
        },
        {
          "ticks": 28979,
          "time": 23.98923881041667,
          "value": -0.352783203125
        },
        {
          "ticks": 28986,
          "time": 23.9950335125,
          "value": -0.35546875
        },
        {
          "ticks": 28994,
          "time": 24.001656029166668,
          "value": -0.358154296875
        },
        {
          "ticks": 29001,
          "time": 24.007450731250003,
          "value": -0.36083984375
        },
        {
          "ticks": 29009,
          "time": 24.014073247916667,
          "value": -0.363525390625
        },
        {
          "ticks": 29016,
          "time": 24.019867950000002,
          "value": -0.3662109375
        },
        {
          "ticks": 29024,
          "time": 24.02649046666667,
          "value": -0.368896484375
        },
        {
          "ticks": 29031,
          "time": 24.03228516875,
          "value": -0.37158203125
        },
        {
          "ticks": 29039,
          "time": 24.038907685416667,
          "value": -0.374267578125
        },
        {
          "ticks": 29046,
          "time": 24.044702387500003,
          "value": -0.376953125
        },
        {
          "ticks": 29054,
          "time": 24.05132490416667,
          "value": -0.379638671875
        },
        {
          "ticks": 29061,
          "time": 24.05711960625,
          "value": -0.38232421875
        },
        {
          "ticks": 29069,
          "time": 24.06374212291667,
          "value": -0.385009765625
        },
        {
          "ticks": 29076,
          "time": 24.069536825,
          "value": -0.3878173828125
        },
        {
          "ticks": 29084,
          "time": 24.076159341666667,
          "value": -0.3905029296875
        },
        {
          "ticks": 29091,
          "time": 24.081954043750002,
          "value": -0.3931884765625
        },
        {
          "ticks": 29099,
          "time": 24.08857656041667,
          "value": -0.3958740234375
        },
        {
          "ticks": 29106,
          "time": 24.0943712625,
          "value": -0.3985595703125
        },
        {
          "ticks": 29114,
          "time": 24.100993779166668,
          "value": -0.4012451171875
        },
        {
          "ticks": 29121,
          "time": 24.106788481250003,
          "value": -0.4039306640625
        },
        {
          "ticks": 29129,
          "time": 24.113410997916667,
          "value": -0.4066162109375
        },
        {
          "ticks": 29136,
          "time": 24.119205700000002,
          "value": -0.4093017578125
        },
        {
          "ticks": 29144,
          "time": 24.12582821666667,
          "value": -0.4119873046875
        },
        {
          "ticks": 29151,
          "time": 24.13162291875,
          "value": -0.4146728515625
        },
        {
          "ticks": 29159,
          "time": 24.138245435416668,
          "value": -0.4173583984375
        },
        {
          "ticks": 29166,
          "time": 24.144040137500003,
          "value": -0.4200439453125
        },
        {
          "ticks": 29174,
          "time": 24.150662654166666,
          "value": -0.4227294921875
        },
        {
          "ticks": 29181,
          "time": 24.15645735625,
          "value": -0.4254150390625
        },
        {
          "ticks": 29189,
          "time": 24.16307987291667,
          "value": -0.4281005859375
        },
        {
          "ticks": 29196,
          "time": 24.168874575,
          "value": -0.430908203125
        },
        {
          "ticks": 29204,
          "time": 24.175497091666667,
          "value": -0.43359375
        },
        {
          "ticks": 29211,
          "time": 24.181291793750002,
          "value": -0.436279296875
        },
        {
          "ticks": 29219,
          "time": 24.18791431041667,
          "value": -0.43896484375
        },
        {
          "ticks": 29226,
          "time": 24.1937090125,
          "value": -0.441650390625
        },
        {
          "ticks": 29234,
          "time": 24.200331529166668,
          "value": -0.4443359375
        },
        {
          "ticks": 29241,
          "time": 24.206126231250003,
          "value": -0.447021484375
        },
        {
          "ticks": 29249,
          "time": 24.212748747916667,
          "value": -0.44970703125
        },
        {
          "ticks": 29256,
          "time": 24.218543450000002,
          "value": -0.452392578125
        },
        {
          "ticks": 29264,
          "time": 24.22516596666667,
          "value": -0.455078125
        },
        {
          "ticks": 29271,
          "time": 24.23096066875,
          "value": -0.457763671875
        },
        {
          "ticks": 29279,
          "time": 24.237583185416668,
          "value": -0.46044921875
        },
        {
          "ticks": 29286,
          "time": 24.243377887500003,
          "value": -0.463134765625
        },
        {
          "ticks": 29294,
          "time": 24.250000404166666,
          "value": -0.4658203125
        },
        {
          "ticks": 29301,
          "time": 24.25579510625,
          "value": -0.468505859375
        },
        {
          "ticks": 29309,
          "time": 24.26241762291667,
          "value": -0.47119140625
        },
        {
          "ticks": 29316,
          "time": 24.268212325,
          "value": -0.4739990234375
        },
        {
          "ticks": 29324,
          "time": 24.274834841666667,
          "value": -0.4766845703125
        },
        {
          "ticks": 29331,
          "time": 24.280629543750003,
          "value": -0.4793701171875
        },
        {
          "ticks": 29339,
          "time": 24.28725206041667,
          "value": -0.4820556640625
        },
        {
          "ticks": 29346,
          "time": 24.2930467625,
          "value": -0.4847412109375
        },
        {
          "ticks": 29354,
          "time": 24.299669279166668,
          "value": -0.4874267578125
        },
        {
          "ticks": 29361,
          "time": 24.30546398125,
          "value": -0.4901123046875
        },
        {
          "ticks": 29369,
          "time": 24.312086497916667,
          "value": -0.4927978515625
        },
        {
          "ticks": 29376,
          "time": 24.317881200000002,
          "value": -0.4954833984375
        },
        {
          "ticks": 29384,
          "time": 24.32450371666667,
          "value": -0.4981689453125
        },
        {
          "ticks": 29391,
          "time": 24.33029841875,
          "value": -0.5008544921875
        },
        {
          "ticks": 29399,
          "time": 24.336920935416668,
          "value": -0.5035400390625
        },
        {
          "ticks": 29406,
          "time": 24.342715637500003,
          "value": -0.5062255859375
        },
        {
          "ticks": 29414,
          "time": 24.349338154166666,
          "value": -0.5089111328125
        },
        {
          "ticks": 29421,
          "time": 24.355132856250002,
          "value": -0.5115966796875
        },
        {
          "ticks": 29429,
          "time": 24.36175537291667,
          "value": -0.5142822265625
        },
        {
          "ticks": 29436,
          "time": 24.367550075,
          "value": -0.51708984375
        },
        {
          "ticks": 29444,
          "time": 24.374172591666667,
          "value": -0.519775390625
        },
        {
          "ticks": 29451,
          "time": 24.379967293750003,
          "value": -0.5224609375
        },
        {
          "ticks": 29459,
          "time": 24.38658981041667,
          "value": -0.525146484375
        },
        {
          "ticks": 29466,
          "time": 24.3923845125,
          "value": -0.52783203125
        },
        {
          "ticks": 29474,
          "time": 24.39900702916667,
          "value": -0.530517578125
        },
        {
          "ticks": 29481,
          "time": 24.40480173125,
          "value": -0.533203125
        },
        {
          "ticks": 29489,
          "time": 24.411424247916667,
          "value": -0.535888671875
        },
        {
          "ticks": 29496,
          "time": 24.417218950000002,
          "value": -0.53857421875
        },
        {
          "ticks": 29504,
          "time": 24.42384146666667,
          "value": -0.541259765625
        },
        {
          "ticks": 29511,
          "time": 24.42963616875,
          "value": -0.5439453125
        },
        {
          "ticks": 29519,
          "time": 24.436258685416668,
          "value": -0.546630859375
        },
        {
          "ticks": 29526,
          "time": 24.442053387500003,
          "value": -0.54931640625
        },
        {
          "ticks": 29534,
          "time": 24.448675904166667,
          "value": -0.552001953125
        },
        {
          "ticks": 29541,
          "time": 24.454470606250002,
          "value": -0.5546875
        },
        {
          "ticks": 29549,
          "time": 24.46109312291667,
          "value": -0.557373046875
        },
        {
          "ticks": 29556,
          "time": 24.466887825,
          "value": -0.5601806640625
        },
        {
          "ticks": 29564,
          "time": 24.473510341666668,
          "value": -0.5628662109375
        },
        {
          "ticks": 29571,
          "time": 24.479305043750003,
          "value": -0.5655517578125
        },
        {
          "ticks": 29579,
          "time": 24.48592756041667,
          "value": -0.5682373046875
        },
        {
          "ticks": 29586,
          "time": 24.4917222625,
          "value": -0.5709228515625
        },
        {
          "ticks": 29594,
          "time": 24.49834477916667,
          "value": -0.5736083984375
        },
        {
          "ticks": 29601,
          "time": 24.50413948125,
          "value": -0.5762939453125
        },
        {
          "ticks": 29609,
          "time": 24.510761997916667,
          "value": -0.5789794921875
        },
        {
          "ticks": 29616,
          "time": 24.516556700000002,
          "value": -0.5816650390625
        },
        {
          "ticks": 29624,
          "time": 24.52317921666667,
          "value": -0.5843505859375
        },
        {
          "ticks": 29631,
          "time": 24.52897391875,
          "value": -0.5870361328125
        },
        {
          "ticks": 29639,
          "time": 24.535596435416668,
          "value": -0.5897216796875
        },
        {
          "ticks": 29646,
          "time": 24.541391137500003,
          "value": -0.5924072265625
        },
        {
          "ticks": 29654,
          "time": 24.548013654166667,
          "value": -0.5950927734375
        },
        {
          "ticks": 29661,
          "time": 24.553808356250002,
          "value": -0.5977783203125
        },
        {
          "ticks": 29669,
          "time": 24.56043087291667,
          "value": -0.6005859375
        },
        {
          "ticks": 29676,
          "time": 24.566225575,
          "value": -0.603271484375
        },
        {
          "ticks": 29684,
          "time": 24.572848091666668,
          "value": -0.60595703125
        },
        {
          "ticks": 29691,
          "time": 24.578642793750003,
          "value": -0.608642578125
        },
        {
          "ticks": 29699,
          "time": 24.585265310416666,
          "value": -0.611328125
        },
        {
          "ticks": 29706,
          "time": 24.5910600125,
          "value": -0.614013671875
        },
        {
          "ticks": 29714,
          "time": 24.59768252916667,
          "value": -0.61669921875
        },
        {
          "ticks": 29721,
          "time": 24.60347723125,
          "value": -0.619384765625
        },
        {
          "ticks": 29729,
          "time": 24.610099747916667,
          "value": -0.6220703125
        },
        {
          "ticks": 29736,
          "time": 24.615894450000003,
          "value": -0.624755859375
        },
        {
          "ticks": 29744,
          "time": 24.62251696666667,
          "value": -0.62744140625
        },
        {
          "ticks": 29751,
          "time": 24.62831166875,
          "value": -0.630126953125
        },
        {
          "ticks": 29759,
          "time": 24.634934185416668,
          "value": -0.6328125
        },
        {
          "ticks": 29766,
          "time": 24.640728887500003,
          "value": -0.635498046875
        },
        {
          "ticks": 29774,
          "time": 24.647351404166667,
          "value": -0.63818359375
        },
        {
          "ticks": 29780,
          "time": 24.652318291666667,
          "value": -0.640625
        },
        {
          "ticks": 29788,
          "time": 24.658940808333334,
          "value": -0.60888671875
        },
        {
          "ticks": 29795,
          "time": 24.664735510416666,
          "value": -0.5771484375
        },
        {
          "ticks": 29803,
          "time": 24.671358027083333,
          "value": -0.54541015625
        },
        {
          "ticks": 29810,
          "time": 24.677152729166668,
          "value": -0.513671875
        },
        {
          "ticks": 29818,
          "time": 24.68377524583333,
          "value": -0.48193359375
        },
        {
          "ticks": 29825,
          "time": 24.689569947916667,
          "value": -0.4501953125
        },
        {
          "ticks": 29828,
          "time": 24.69205339166667,
          "value": -0.4375
        },
        {
          "ticks": 29836,
          "time": 24.698675908333332,
          "value": -0.369140625
        },
        {
          "ticks": 29843,
          "time": 24.704470610416667,
          "value": -0.30078125
        },
        {
          "ticks": 29851,
          "time": 24.711093127083334,
          "value": -0.232421875
        },
        {
          "ticks": 29852,
          "time": 24.71192094166667,
          "value": -0.21875
        },
        {
          "ticks": 29860,
          "time": 24.718543458333336,
          "value": -0.1978759765625
        },
        {
          "ticks": 29867,
          "time": 24.724338160416668,
          "value": -0.177001953125
        },
        {
          "ticks": 29875,
          "time": 24.730960677083335,
          "value": -0.156005859375
        },
        {
          "ticks": 29880,
          "time": 24.73509975,
          "value": -0.140625
        },
        {
          "ticks": 29888,
          "time": 24.741722266666667,
          "value": -0.111328125
        },
        {
          "ticks": 29895,
          "time": 24.747516968750002,
          "value": -0.08203125
        },
        {
          "ticks": 29903,
          "time": 24.754139485416665,
          "value": -0.052734375
        },
        {
          "ticks": 29910,
          "time": 24.7599341875,
          "value": -0.0234375
        },
        {
          "ticks": 29916,
          "time": 24.764901075,
          "value": 0
        }
      ],
      "instrument": {
        "family": "guitar",
        "number": 25,
        "name": "acoustic guitar (steel)"
      },
      "name": "",
      "notes": [
        {
          "duration": 0.1986755,
          "durationTicks": 240,
          "midi": 55,
          "name": "G3",
          "ticks": 0,
          "time": 0,
          "velocity": 1
        },
        {
          "duration": 0.3907284833333333,
          "durationTicks": 472,
          "midi": 59,
          "name": "B3",
          "ticks": 0,
          "time": 0,
          "velocity": 0.5196850393700787
        },
        {
          "duration": 0.208609275,
          "durationTicks": 252,
          "midi": 67,
          "name": "G4",
          "ticks": 0,
          "time": 0,
          "velocity": 0.5196850393700787
        },
        {
          "duration": 0.1986755,
          "durationTicks": 240,
          "midi": 71,
          "name": "B4",
          "ticks": 0,
          "time": 0,
          "velocity": 1
        },
        {
          "duration": 0.208609275,
          "durationTicks": 252,
          "midi": 71,
          "name": "B4",
          "ticks": 0,
          "time": 0,
          "velocity": 0.4566929133858268
        },
        {
          "duration": 0.1986755,
          "durationTicks": 240,
          "midi": 50,
          "name": "D3",
          "ticks": 240,
          "time": 0.1986755,
          "velocity": 1
        },
        {
          "duration": 0.17549669166666665,
          "durationTicks": 212,
          "midi": 67,
          "name": "G4",
          "ticks": 240,
          "time": 0.1986755,
          "velocity": 0.4566929133858268
        },
        {
          "duration": 0.1986755,
          "durationTicks": 240,
          "midi": 67,
          "name": "G4",
          "ticks": 240,
          "time": 0.1986755,
          "velocity": 0.6220472440944882
        },
        {
          "duration": 0.1986755,
          "durationTicks": 240,
          "midi": 71,
          "name": "B4",
          "ticks": 240,
          "time": 0.1986755,
          "velocity": 0.6220472440944882
        },
        {
          "duration": 0.1986755,
          "durationTicks": 240,
          "midi": 55,
          "name": "G3",
          "ticks": 480,
          "time": 0.397351,
          "velocity": 1
        },
        {
          "duration": 0.016556291666666723,
          "durationTicks": 20,
          "midi": 59,
          "name": "B3",
          "ticks": 480,
          "time": 0.397351,
          "velocity": 0.5196850393700787
        },
        {
          "duration": 0.1986755,
          "durationTicks": 240,
          "midi": 62,
          "name": "D4",
          "ticks": 480,
          "time": 0.397351,
          "velocity": 0.4566929133858268
        },
        {
          "duration": 0.04304635833333337,
          "durationTicks": 52,
          "midi": 67,
          "name": "G4",
          "ticks": 480,
          "time": 0.397351,
          "velocity": 0.6220472440944882
        },
        {
          "duration": 0.1986755,
          "durationTicks": 240,
          "midi": 67,
          "name": "G4",
          "ticks": 480,
          "time": 0.397351,
          "velocity": 0.5196850393700787
        },
        {
          "duration": 0.5894039833333333,
          "durationTicks": 712,
          "midi": 71,
          "name": "B4",
          "ticks": 480,
          "time": 0.397351,
          "velocity": 0.6220472440944882
        },
        {
          "duration": 0.3741721916666667,
          "durationTicks": 452,
          "midi": 74,
          "name": "D5",
          "ticks": 480,
          "time": 0.397351,
          "velocity": 1
        },
        {
          "duration": 0.1986755,
          "durationTicks": 240,
          "midi": 57,
          "name": "A3",
          "ticks": 720,
          "time": 0.5960265,
          "velocity": 1
        },
        {
          "duration": 0.1754966916666667,
          "durationTicks": 212,
          "midi": 59,
          "name": "B3",
          "ticks": 720,
          "time": 0.5960265,
          "velocity": 0.4566929133858268
        },
        {
          "duration": 0.1986755,
          "durationTicks": 240,
          "midi": 59,
          "name": "B3",
          "ticks": 720,
          "time": 0.5960265,
          "velocity": 0.5196850393700787
        },
        {
          "duration": 0.3907284833333333,
          "durationTicks": 472,
          "midi": 62,
          "name": "D4",
          "ticks": 720,
          "time": 0.5960265,
          "velocity": 0.6220472440944882
        },
        {
          "duration": 0.1986755,
          "durationTicks": 240,
          "midi": 67,
          "name": "G4",
          "ticks": 720,
          "time": 0.5960265,
          "velocity": 0.5196850393700787
        },
        {
          "duration": 0.9867549833333333,
          "durationTicks": 1192,
          "midi": 48,
          "name": "C3",
          "ticks": 960,
          "time": 0.794702,
          "velocity": 1
        },
        {
          "duration": 0.1986755,
          "durationTicks": 240,
          "midi": 60,
          "name": "C4",
          "ticks": 960,
          "time": 0.794702,
          "velocity": 0.5196850393700787
        },
        {
          "duration": 0.3907284833333333,
          "durationTicks": 472,
          "midi": 60,
          "name": "C4",
          "ticks": 960,
          "time": 0.794702,
          "velocity": 0.4566929133858268
        },
        {
          "duration": 0.3741721916666667,
          "durationTicks": 452,
          "midi": 67,
          "name": "G4",
          "ticks": 960,
          "time": 0.794702,
          "velocity": 0.5196850393700787
        },
        {
          "duration": 0.16556291666666656,
          "durationTicks": 200,
          "midi": 79,
          "name": "G5",
          "ticks": 960,
          "time": 0.794702,
          "velocity": 1
        },
        {
          "duration": 0.009933774999999923,
          "durationTicks": 12,
          "midi": 64,
          "name": "E4",
          "ticks": 1200,
          "time": 0.9933775,
          "velocity": 0.4566929133858268
        },
        {
          "duration": 0.1986755,
          "durationTicks": 240,
          "midi": 64,
          "name": "E4",
          "ticks": 1200,
          "time": 0.9933775,
          "velocity": 0.6220472440944882
        },
        {
          "duration": 0.009933774999999923,
          "durationTicks": 12,
          "midi": 72,
          "name": "C5",
          "ticks": 1200,
          "time": 0.9933775,
          "velocity": 0.6220472440944882
        },
        {
          "duration": 0.1754966916666667,
          "durationTicks": 212,
          "midi": 79,
          "name": "G5",
          "ticks": 1200,
          "time": 0.9933775,
          "velocity": 1
        },
        {
          "duration": 0.009933774999999923,
          "durationTicks": 12,
          "midi": 60,
          "name": "C4",
          "ticks": 1440,
          "time": 1.192053,
          "velocity": 0.5196850393700787
        },
        {
          "duration": 0.5894039833333333,
          "durationTicks": 712,
          "midi": 64,
          "name": "E4",
          "ticks": 1440,
          "time": 1.192053,
          "velocity": 0.6220472440944882
        },
        {
          "duration": 0.009933774999999923,
          "durationTicks": 12,
          "midi": 67,
          "name": "G4",
          "ticks": 1440,
          "time": 1.192053,
          "velocity": 0.4566929133858268
        },
        {
          "duration": 0.1986755,
          "durationTicks": 240,
          "midi": 67,
          "name": "G4",
          "ticks": 1440,
          "time": 1.192053,
          "velocity": 0.5196850393700787
        },
        {
          "duration": 0.397351,
          "durationTicks": 480,
          "midi": 72,
          "name": "C5",
          "ticks": 1440,
          "time": 1.192053,
          "velocity": 0.6220472440944882
        },
        {
          "duration": 0.1754966916666667,
          "durationTicks": 212,
          "midi": 79,
          "name": "G5",
          "ticks": 1440,
          "time": 1.192053,
          "velocity": 1
        },
        {
          "duration": 0.1754966916666667,
          "durationTicks": 212,
          "midi": 60,
          "name": "C4",
          "ticks": 1680,
          "time": 1.3907285,
          "velocity": 0.5196850393700787
        },
        {
          "duration": 0.1986755,
          "durationTicks": 240,
          "midi": 67,
          "name": "G4",
          "ticks": 1680,
          "time": 1.3907285,
          "velocity": 0.5196850393700787
        },
        {
          "duration": 0.3907284833333333,
          "durationTicks": 472,
          "midi": 72,
          "name": "C5",
          "ticks": 1680,
          "time": 1.3907285,
          "velocity": 0.4566929133858268
        },
        {
          "duration": 0.16556291666666656,
          "durationTicks": 200,
          "midi": 79,
          "name": "G5",
          "ticks": 1680,
          "time": 1.3907285,
          "velocity": 1
        },
        {
          "duration": 0.016556291666666834,
          "durationTicks": 20,
          "midi": 60,
          "name": "C4",
          "ticks": 1920,
          "time": 1.589404,
          "velocity": 0.5196850393700787
        },
        {
          "duration": 0.016556291666666834,
          "durationTicks": 20,
          "midi": 67,
          "name": "G4",
          "ticks": 1920,
          "time": 1.589404,
          "velocity": 0.5196850393700787
        },
        {
          "duration": 0.1986755,
          "durationTicks": 240,
          "midi": 76,
          "name": "E5",
          "ticks": 1920,
          "time": 1.589404,
          "velocity": 0.4566929133858268
        },
        {
          "duration": 0.1986755,
          "durationTicks": 240,
          "midi": 79,
          "name": "G5",
          "ticks": 1920,
          "time": 1.589404,
          "velocity": 1
        },
        {
          "duration": 0.1986755,
          "durationTicks": 240,
          "midi": 48,
          "name": "C3",
          "ticks": 2160,
          "time": 1.7880795,
          "velocity": 1
        },
        {
          "duration": 0.17549669166666648,
          "durationTicks": 212,
          "midi": 60,
          "name": "C4",
          "ticks": 2160,
          "time": 1.7880795,
          "velocity": 0.5196850393700787
        },
        {
          "duration": 0.009933775000000145,
          "durationTicks": 12,
          "midi": 64,
          "name": "E4",
          "ticks": 2160,
          "time": 1.7880795,
          "velocity": 0.6220472440944882
        },
        {
          "duration": 0.20860927500000015,
          "durationTicks": 252,
          "midi": 67,
          "name": "G4",
          "ticks": 2160,
          "time": 1.7880795,
          "velocity": 0.5196850393700787
        },
        {
          "duration": 0.009933775000000145,
          "durationTicks": 12,
          "midi": 72,
          "name": "C5",
          "ticks": 2160,
          "time": 1.7880795,
          "velocity": 0.6220472440944882
        },
        {
          "duration": 0.1986755,
          "durationTicks": 240,
          "midi": 72,
          "name": "C5",
          "ticks": 2160,
          "time": 1.7880795,
          "velocity": 0.4566929133858268
        },
        {
          "duration": 0.19205298333333332,
          "durationTicks": 232,
          "midi": 76,
          "name": "E5",
          "ticks": 2160,
          "time": 1.7880795,
          "velocity": 1
        },
        {
          "duration": 0.19867549999999978,
          "durationTicks": 240,
          "midi": 50,
          "name": "D3",
          "ticks": 2400,
          "time": 1.986755,
          "velocity": 1
        },
        {
          "duration": 0.39072848333333354,
          "durationTicks": 472,
          "midi": 60,
          "name": "C4",
          "ticks": 2400,
          "time": 1.986755,
          "velocity": 0.5196850393700787
        },
        {
          "duration": 0.19867549999999978,
          "durationTicks": 240,
          "midi": 64,
          "name": "E4",
          "ticks": 2400,
          "time": 1.986755,
          "velocity": 0.6220472440944882
        },
        {
          "duration": 0.19867549999999978,
          "durationTicks": 240,
          "midi": 67,
          "name": "G4",
          "ticks": 2400,
          "time": 1.986755,
          "velocity": 0.4566929133858268
        },
        {
          "duration": 0.3741721916666667,
          "durationTicks": 452,
          "midi": 67,
          "name": "G4",
          "ticks": 2400,
          "time": 1.986755,
          "velocity": 0.5196850393700787
        },
        {
          "duration": 0.5894039833333333,
          "durationTicks": 712,
          "midi": 72,
          "name": "C5",
          "ticks": 2400,
          "time": 1.986755,
          "velocity": 0.6220472440944882
        },
        {
          "duration": 0.19867549999999978,
          "durationTicks": 240,
          "midi": 76,
          "name": "E5",
          "ticks": 2400,
          "time": 1.986755,
          "velocity": 1
        },
        {
          "duration": 0.19867550000000023,
          "durationTicks": 240,
          "midi": 52,
          "name": "E3",
          "ticks": 2640,
          "time": 2.1854305,
          "velocity": 1
        },
        {
          "duration": 0.39072848333333354,
          "durationTicks": 472,
          "midi": 62,
          "name": "D4",
          "ticks": 2640,
          "time": 2.1854305,
          "velocity": 0.6220472440944882
        },
        {
          "duration": 0.19867550000000023,
          "durationTicks": 240,
          "midi": 64,
          "name": "E4",
          "ticks": 2640,
          "time": 2.1854305,
          "velocity": 0.4566929133858268
        },
        {
          "duration": 0.165562916666667,
          "durationTicks": 200,
          "midi": 74,
          "name": "D5",
          "ticks": 2640,
          "time": 2.1854305,
          "velocity": 1
        },
        {
          "duration": 1.192053,
          "durationTicks": 1440,
          "midi": 55,
          "name": "G3",
          "ticks": 2880,
          "time": 2.384106,
          "velocity": 1
        },
        {
          "duration": 0.03311258333333322,
          "durationTicks": 40,
          "midi": 59,
          "name": "B3",
          "ticks": 2880,
          "time": 2.384106,
          "velocity": 0.5196850393700787
        },
        {
          "duration": 0.19867550000000023,
          "durationTicks": 240,
          "midi": 59,
          "name": "B3",
          "ticks": 2880,
          "time": 2.384106,
          "velocity": 0.4566929133858268
        },
        {
          "duration": 0.009933774999999923,
          "durationTicks": 12,
          "midi": 67,
          "name": "G4",
          "ticks": 2880,
          "time": 2.384106,
          "velocity": 0.5196850393700787
        },
        {
          "duration": 0.19205298333333332,
          "durationTicks": 232,
          "midi": 74,
          "name": "D5",
          "ticks": 2880,
          "time": 2.384106,
          "velocity": 1
        },
        {
          "duration": 0.17549669166666648,
          "durationTicks": 212,
          "midi": 59,
          "name": "B3",
          "ticks": 3120,
          "time": 2.5827815000000003,
          "velocity": 0.5196850393700787
        },
        {
          "duration": 0.19867549999999978,
          "durationTicks": 240,
          "midi": 62,
          "name": "D4",
          "ticks": 3120,
          "time": 2.5827815000000003,
          "velocity": 0.4566929133858268
        },
        {
          "duration": 0.009933774999999923,
          "durationTicks": 12,
          "midi": 67,
          "name": "G4",
          "ticks": 3120,
          "time": 2.5827815000000003,
          "velocity": 0.5196850393700787
        },
        {
          "duration": 0.19867549999999978,
          "durationTicks": 240,
          "midi": 67,
          "name": "G4",
          "ticks": 3120,
          "time": 2.5827815000000003,
          "velocity": 0.6220472440944882
        },
        {
          "duration": 0.009933774999999923,
          "durationTicks": 12,
          "midi": 71,
          "name": "B4",
          "ticks": 3120,
          "time": 2.5827815000000003,
          "velocity": 0.6220472440944882
        },
        {
          "duration": 0.19205298333333332,
          "durationTicks": 232,
          "midi": 74,
          "name": "D5",
          "ticks": 3120,
          "time": 2.5827815000000003,
          "velocity": 1
        },
        {
          "duration": 0.026490066666666756,
          "durationTicks": 32,
          "midi": 59,
          "name": "B3",
          "ticks": 3360,
          "time": 2.781457,
          "velocity": 0.5196850393700787
        },
        {
          "duration": 0.026490066666666756,
          "durationTicks": 32,
          "midi": 67,
          "name": "G4",
          "ticks": 3360,
          "time": 2.781457,
          "velocity": 0.6220472440944882
        },
        {
          "duration": 0.19867549999999978,
          "durationTicks": 240,
          "midi": 67,
          "name": "G4",
          "ticks": 3360,
          "time": 2.781457,
          "velocity": 0.4566929133858268
        },
        {
          "duration": 0.397351,
          "durationTicks": 480,
          "midi": 67,
          "name": "G4",
          "ticks": 3360,
          "time": 2.781457,
          "velocity": 0.5196850393700787
        },
        {
          "duration": 0.397351,
          "durationTicks": 480,
          "midi": 71,
          "name": "B4",
          "ticks": 3360,
          "time": 2.781457,
          "velocity": 0.6220472440944882
        },
        {
          "duration": 0.19205298333333332,
          "durationTicks": 232,
          "midi": 74,
          "name": "D5",
          "ticks": 3360,
          "time": 2.781457,
          "velocity": 1
        },
        {
          "duration": 0.17549669166666693,
          "durationTicks": 212,
          "midi": 59,
          "name": "B3",
          "ticks": 3600,
          "time": 2.9801325,
          "velocity": 0.5196850393700787
        },
        {
          "duration": 0.3907284833333331,
          "durationTicks": 472,
          "midi": 67,
          "name": "G4",
          "ticks": 3600,
          "time": 2.9801325,
          "velocity": 0.5196850393700787
        },
        {
          "duration": 0.3907284833333331,
          "durationTicks": 472,
          "midi": 71,
          "name": "B4",
          "ticks": 3600,
          "time": 2.9801325,
          "velocity": 0.4566929133858268
        },
        {
          "duration": 0.19205298333333376,
          "durationTicks": 232,
          "midi": 74,
          "name": "D5",
          "ticks": 3600,
          "time": 2.9801325,
          "velocity": 1
        },
        {
          "duration": 0.3907284833333331,
          "durationTicks": 472,
          "midi": 59,
          "name": "B3",
          "ticks": 3840,
          "time": 3.178808,
          "velocity": 0.5196850393700787
        },
        {
          "duration": 0.20860927500000015,
          "durationTicks": 252,
          "midi": 67,
          "name": "G4",
          "ticks": 3840,
          "time": 3.178808,
          "velocity": 0.5196850393700787
        },
        {
          "duration": 0.19205298333333287,
          "durationTicks": 232,
          "midi": 74,
          "name": "D5",
          "ticks": 3840,
          "time": 3.178808,
          "velocity": 1
        },
        {
          "duration": 0.19867550000000023,
          "durationTicks": 240,
          "midi": 74,
          "name": "D5",
          "ticks": 3840,
          "time": 3.178808,
          "velocity": 0.4566929133858268
        },
        {
          "duration": 0.17549669166666648,
          "durationTicks": 212,
          "midi": 67,
          "name": "G4",
          "ticks": 4080,
          "time": 3.3774835000000003,
          "velocity": 1
        },
        {
          "duration": 0.19205298333333287,
          "durationTicks": 232,
          "midi": 67,
          "name": "G4",
          "ticks": 4080,
          "time": 3.3774835000000003,
          "velocity": 0.6220472440944882
        },
        {
          "duration": 0.009933774999999923,
          "durationTicks": 12,
          "midi": 71,
          "name": "B4",
          "ticks": 4080,
          "time": 3.3774835000000003,
          "velocity": 0.6220472440944882
        },
        {
          "duration": 0.19867549999999978,
          "durationTicks": 240,
          "midi": 71,
          "name": "B4",
          "ticks": 4080,
          "time": 3.3774835000000003,
          "velocity": 0.4566929133858268
        },
        {
          "duration": 0.01655629166666639,
          "durationTicks": 20,
          "midi": 59,
          "name": "B3",
          "ticks": 4320,
          "time": 3.576159,
          "velocity": 0.5196850393700787
        },
        {
          "duration": 0.19867549999999978,
          "durationTicks": 240,
          "midi": 59,
          "name": "B3",
          "ticks": 4320,
          "time": 3.576159,
          "velocity": 1
        },
        {
          "duration": 0.043046358333333146,
          "durationTicks": 52,
          "midi": 67,
          "name": "G4",
          "ticks": 4320,
          "time": 3.576159,
          "velocity": 0.6220472440944882
        },
        {
          "duration": 0.19867549999999978,
          "durationTicks": 240,
          "midi": 67,
          "name": "G4",
          "ticks": 4320,
          "time": 3.576159,
          "velocity": 1
        },
        {
          "duration": 0.19867549999999978,
          "durationTicks": 240,
          "midi": 67,
          "name": "G4",
          "ticks": 4320,
          "time": 3.576159,
          "velocity": 0.4566929133858268
        },
        {
          "duration": 0.21523179166666662,
          "durationTicks": 260,
          "midi": 67,
          "name": "G4",
          "ticks": 4320,
          "time": 3.576159,
          "velocity": 0.5196850393700787
        },
        {
          "duration": 0.5894039833333333,
          "durationTicks": 712,
          "midi": 71,
          "name": "B4",
          "ticks": 4320,
          "time": 3.576159,
          "velocity": 0.6220472440944882
        },
        {
          "duration": 0.19867550000000023,
          "durationTicks": 240,
          "midi": 55,
          "name": "G3",
          "ticks": 4560,
          "time": 3.7748345,
          "velocity": 1
        },
        {
          "duration": 0.17549669166666693,
          "durationTicks": 212,
          "midi": 59,
          "name": "B3",
          "ticks": 4560,
          "time": 3.7748345,
          "velocity": 0.5196850393700787
        },
        {
          "duration": 0.19867550000000023,
          "durationTicks": 240,
          "midi": 62,
          "name": "D4",
          "ticks": 4560,
          "time": 3.7748345,
          "velocity": 0.6220472440944882
        },
        {
          "duration": 0.39072848333333354,
          "durationTicks": 472,
          "midi": 62,
          "name": "D4",
          "ticks": 4560,
          "time": 3.7748345,
          "velocity": 0.4566929133858268
        },
        {
          "duration": 0.19867550000000023,
          "durationTicks": 240,
          "midi": 67,
          "name": "G4",
          "ticks": 4560,
          "time": 3.7748345,
          "velocity": 0.5196850393700787
        },
        {
          "duration": 0.19867550000000023,
          "durationTicks": 240,
          "midi": 57,
          "name": "A3",
          "ticks": 4800,
          "time": 3.97351,
          "velocity": 0.5196850393700787
        },
        {
          "duration": 0.39072848333333265,
          "durationTicks": 472,
          "midi": 57,
          "name": "A3",
          "ticks": 4800,
          "time": 3.97351,
          "velocity": 1
        },
        {
          "duration": 0.39072848333333265,
          "durationTicks": 472,
          "midi": 57,
          "name": "A3",
          "ticks": 4800,
          "time": 3.97351,
          "velocity": 0.4566929133858268
        },
        {
          "duration": 0.2086092749999997,
          "durationTicks": 252,
          "midi": 66,
          "name": "F#4",
          "ticks": 4800,
          "time": 3.97351,
          "velocity": 0.5196850393700787
        },
        {
          "duration": 0.17549669166666693,
          "durationTicks": 212,
          "midi": 69,
          "name": "A4",
          "ticks": 4800,
          "time": 3.97351,
          "velocity": 1
        },
        {
          "duration": 0.19867549999999934,
          "durationTicks": 240,
          "midi": 62,
          "name": "D4",
          "ticks": 5040,
          "time": 4.1721855,
          "velocity": 0.4566929133858268
        },
        {
          "duration": 0.17549669166666604,
          "durationTicks": 212,
          "midi": 66,
          "name": "F#4",
          "ticks": 5040,
          "time": 4.1721855,
          "velocity": 0.6220472440944882
        },
        {
          "duration": 0.009933774999999478,
          "durationTicks": 12,
          "midi": 69,
          "name": "A4",
          "ticks": 5040,
          "time": 4.1721855,
          "velocity": 0.6220472440944882
        },
        {
          "duration": 0.17549669166666604,
          "durationTicks": 212,
          "midi": 69,
          "name": "A4",
          "ticks": 5040,
          "time": 4.1721855,
          "velocity": 1
        },
        {
          "duration": 0.009933775000000367,
          "durationTicks": 12,
          "midi": 57,
          "name": "A3",
          "ticks": 5280,
          "time": 4.370861,
          "velocity": 0.5196850393700787
        },
        {
          "duration": 0.37417219166666715,
          "durationTicks": 452,
          "midi": 57,
          "name": "A3",
          "ticks": 5280,
          "time": 4.370861,
          "velocity": 1
        },
        {
          "duration": 0.009933775000000367,
          "durationTicks": 12,
          "midi": 66,
          "name": "F#4",
          "ticks": 5280,
          "time": 4.370861,
          "velocity": 0.6220472440944882
        },
        {
          "duration": 0.19867550000000023,
          "durationTicks": 240,
          "midi": 66,
          "name": "F#4",
          "ticks": 5280,
          "time": 4.370861,
          "velocity": 0.4566929133858268
        },
        {
          "duration": 0.39735100000000045,
          "durationTicks": 480,
          "midi": 66,
          "name": "F#4",
          "ticks": 5280,
          "time": 4.370861,
          "velocity": 0.5196850393700787
        },
        {
          "duration": 0.19867550000000023,
          "durationTicks": 240,
          "midi": 69,
          "name": "A4",
          "ticks": 5280,
          "time": 4.370861,
          "velocity": 0.6220472440944882
        },
        {
          "duration": 0.39735100000000045,
          "durationTicks": 480,
          "midi": 69,
          "name": "A4",
          "ticks": 5280,
          "time": 4.370861,
          "velocity": 1
        },
        {
          "duration": 0.21523179166666662,
          "durationTicks": 260,
          "midi": 57,
          "name": "A3",
          "ticks": 5520,
          "time": 4.5695365,
          "velocity": 0.5196850393700787
        },
        {
          "duration": 0.21523179166666662,
          "durationTicks": 260,
          "midi": 66,
          "name": "F#4",
          "ticks": 5520,
          "time": 4.5695365,
          "velocity": 0.5196850393700787
        },
        {
          "duration": 0.19867550000000023,
          "durationTicks": 240,
          "midi": 67,
          "name": "G4",
          "ticks": 5520,
          "time": 4.5695365,
          "velocity": 1
        },
        {
          "duration": 0.39072848333333354,
          "durationTicks": 472,
          "midi": 69,
          "name": "A4",
          "ticks": 5520,
          "time": 4.5695365,
          "velocity": 0.4566929133858268
        },
        {
          "duration": 0.19867550000000023,
          "durationTicks": 240,
          "midi": 57,
          "name": "A3",
          "ticks": 5760,
          "time": 4.768212,
          "velocity": 0.5196850393700787
        },
        {
          "duration": 0.19205298333333332,
          "durationTicks": 232,
          "midi": 66,
          "name": "F#4",
          "ticks": 5760,
          "time": 4.768212,
          "velocity": 0.5196850393700787
        },
        {
          "duration": 0.2086092749999997,
          "durationTicks": 252,
          "midi": 69,
          "name": "A4",
          "ticks": 5760,
          "time": 4.768212,
          "velocity": 1
        },
        {
          "duration": 0.19867550000000023,
          "durationTicks": 240,
          "midi": 74,
          "name": "D5",
          "ticks": 5760,
          "time": 4.768212,
          "velocity": 0.4566929133858268
        },
        {
          "duration": 0.19867550000000023,
          "durationTicks": 240,
          "midi": 52,
          "name": "E3",
          "ticks": 6000,
          "time": 4.9668875,
          "velocity": 1
        },
        {
          "duration": 0.17549669166666604,
          "durationTicks": 212,
          "midi": 57,
          "name": "A3",
          "ticks": 6000,
          "time": 4.9668875,
          "velocity": 0.5196850393700787
        },
        {
          "duration": 0.009933774999999478,
          "durationTicks": 12,
          "midi": 66,
          "name": "F#4",
          "ticks": 6000,
          "time": 4.9668875,
          "velocity": 0.5196850393700787
        },
        {
          "duration": 0.2086092749999997,
          "durationTicks": 252,
          "midi": 66,
          "name": "F#4",
          "ticks": 6000,
          "time": 4.9668875,
          "velocity": 0.6220472440944882
        },
        {
          "duration": 0.19867550000000023,
          "durationTicks": 240,
          "midi": 69,
          "name": "A4",
          "ticks": 6000,
          "time": 4.9668875,
          "velocity": 0.6220472440944882
        },
        {
          "duration": 0.19867550000000023,
          "durationTicks": 240,
          "midi": 69,
          "name": "A4",
          "ticks": 6000,
          "time": 4.9668875,
          "velocity": 0.4566929133858268
        },
        {
          "duration": 0.19867549999999934,
          "durationTicks": 240,
          "midi": 55,
          "name": "G3",
          "ticks": 6240,
          "time": 5.165563000000001,
          "velocity": 1
        },
        {
          "duration": 0.39072848333333265,
          "durationTicks": 472,
          "midi": 57,
          "name": "A3",
          "ticks": 6240,
          "time": 5.165563000000001,
          "velocity": 0.5196850393700787
        },
        {
          "duration": 0.19867549999999934,
          "durationTicks": 240,
          "midi": 66,
          "name": "F#4",
          "ticks": 6240,
          "time": 5.165563000000001,
          "velocity": 0.6220472440944882
        },
        {
          "duration": 0.19867549999999934,
          "durationTicks": 240,
          "midi": 66,
          "name": "F#4",
          "ticks": 6240,
          "time": 5.165563000000001,
          "velocity": 0.4566929133858268
        },
        {
          "duration": 0.37417219166666627,
          "durationTicks": 452,
          "midi": 66,
          "name": "F#4",
          "ticks": 6240,
          "time": 5.165563000000001,
          "velocity": 0.5196850393700787
        },
        {
          "duration": 0.5894039833333329,
          "durationTicks": 712,
          "midi": 69,
          "name": "A4",
          "ticks": 6240,
          "time": 5.165563000000001,
          "velocity": 0.6220472440944882
        },
        {
          "duration": 0.19867549999999934,
          "durationTicks": 240,
          "midi": 74,
          "name": "D5",
          "ticks": 6240,
          "time": 5.165563000000001,
          "velocity": 1
        },
        {
          "duration": 0.19867550000000023,
          "durationTicks": 240,
          "midi": 52,
          "name": "E3",
          "ticks": 6480,
          "time": 5.3642385,
          "velocity": 1
        },
        {
          "duration": 0.19867550000000023,
          "durationTicks": 240,
          "midi": 62,
          "name": "D4",
          "ticks": 6480,
          "time": 5.3642385,
          "velocity": 0.6220472440944882
        },
        {
          "duration": 0.39072848333333354,
          "durationTicks": 472,
          "midi": 62,
          "name": "D4",
          "ticks": 6480,
          "time": 5.3642385,
          "velocity": 0.4566929133858268
        },
        {
          "duration": 0.19205298333333332,
          "durationTicks": 232,
          "midi": 71,
          "name": "B4",
          "ticks": 6480,
          "time": 5.3642385,
          "velocity": 1
        },
        {
          "duration": 0.19867550000000023,
          "durationTicks": 240,
          "midi": 55,
          "name": "G3",
          "ticks": 6720,
          "time": 5.562914,
          "velocity": 1
        },
        {
          "duration": 0.03311258333333367,
          "durationTicks": 40,
          "midi": 59,
          "name": "B3",
          "ticks": 6720,
          "time": 5.562914,
          "velocity": 0.5196850393700787
        },
        {
          "duration": 0.19867550000000023,
          "durationTicks": 240,
          "midi": 59,
          "name": "B3",
          "ticks": 6720,
          "time": 5.562914,
          "velocity": 0.4566929133858268
        },
        {
          "duration": 0.009933775000000367,
          "durationTicks": 12,
          "midi": 67,
          "name": "G4",
          "ticks": 6720,
          "time": 5.562914,
          "velocity": 0.5196850393700787
        },
        {
          "duration": 0.2086092749999997,
          "durationTicks": 252,
          "midi": 71,
          "name": "B4",
          "ticks": 6720,
          "time": 5.562914,
          "velocity": 1
        },
        {
          "duration": 0.19867549999999934,
          "durationTicks": 240,
          "midi": 50,
          "name": "D3",
          "ticks": 6960,
          "time": 5.7615895,
          "velocity": 1
        },
        {
          "duration": 0.17549669166666604,
          "durationTicks": 212,
          "midi": 59,
          "name": "B3",
          "ticks": 6960,
          "time": 5.7615895,
          "velocity": 0.5196850393700787
        },
        {
          "duration": 0.19867549999999934,
          "durationTicks": 240,
          "midi": 62,
          "name": "D4",
          "ticks": 6960,
          "time": 5.7615895,
          "velocity": 0.4566929133858268
        },
        {
          "duration": 0.009933774999999478,
          "durationTicks": 12,
          "midi": 67,
          "name": "G4",
          "ticks": 6960,
          "time": 5.7615895,
          "velocity": 0.5196850393700787
        },
        {
          "duration": 0.19867549999999934,
          "durationTicks": 240,
          "midi": 67,
          "name": "G4",
          "ticks": 6960,
          "time": 5.7615895,
          "velocity": 0.6220472440944882
        },
        {
          "duration": 0.08278145833333372,
          "durationTicks": 100,
          "midi": 71,
          "name": "B4",
          "ticks": 6960,
          "time": 5.7615895,
          "velocity": 0.6220472440944882
        },
        {
          "duration": 0.19205298333333332,
          "durationTicks": 232,
          "midi": 55,
          "name": "G3",
          "ticks": 7200,
          "time": 5.960265,
          "velocity": 1
        },
        {
          "duration": 0.026490066666666756,
          "durationTicks": 32,
          "midi": 59,
          "name": "B3",
          "ticks": 7200,
          "time": 5.960265,
          "velocity": 0.5196850393700787
        },
        {
          "duration": 0.026490066666666756,
          "durationTicks": 32,
          "midi": 67,
          "name": "G4",
          "ticks": 7200,
          "time": 5.960265,
          "velocity": 0.6220472440944882
        },
        {
          "duration": 0.19867550000000023,
          "durationTicks": 240,
          "midi": 67,
          "name": "G4",
          "ticks": 7200,
          "time": 5.960265,
          "velocity": 0.4566929133858268
        },
        {
          "duration": 0.39735100000000045,
          "durationTicks": 480,
          "midi": 67,
          "name": "G4",
          "ticks": 7200,
          "time": 5.960265,
          "velocity": 0.5196850393700787
        },
        {
          "duration": 0.39735100000000045,
          "durationTicks": 480,
          "midi": 71,
          "name": "B4",
          "ticks": 7200,
          "time": 5.960265,
          "velocity": 0.6220472440944882
        },
        {
          "duration": 0.39735100000000045,
          "durationTicks": 480,
          "midi": 55,
          "name": "G3",
          "ticks": 7440,
          "time": 6.1589405,
          "velocity": 1
        },
        {
          "duration": 0.17549669166666693,
          "durationTicks": 212,
          "midi": 59,
          "name": "B3",
          "ticks": 7440,
          "time": 6.1589405,
          "velocity": 0.5196850393700787
        },
        {
          "duration": 0.39072848333333354,
          "durationTicks": 472,
          "midi": 67,
          "name": "G4",
          "ticks": 7440,
          "time": 6.1589405,
          "velocity": 0.5196850393700787
        },
        {
          "duration": 0.39072848333333354,
          "durationTicks": 472,
          "midi": 71,
          "name": "B4",
          "ticks": 7440,
          "time": 6.1589405,
          "velocity": 0.4566929133858268
        },
        {
          "duration": 0.39072848333333354,
          "durationTicks": 472,
          "midi": 59,
          "name": "B3",
          "ticks": 7680,
          "time": 6.357616,
          "velocity": 0.5196850393700787
        },
        {
          "duration": 0.2086092749999997,
          "durationTicks": 252,
          "midi": 67,
          "name": "G4",
          "ticks": 7680,
          "time": 6.357616,
          "velocity": 0.5196850393700787
        },
        {
          "duration": 0.2086092749999997,
          "durationTicks": 252,
          "midi": 71,
          "name": "B4",
          "ticks": 7680,
          "time": 6.357616,
          "velocity": 1
        },
        {
          "duration": 0.19867550000000023,
          "durationTicks": 240,
          "midi": 74,
          "name": "D5",
          "ticks": 7680,
          "time": 6.357616,
          "velocity": 0.4566929133858268
        },
        {
          "duration": 0.19867550000000023,
          "durationTicks": 240,
          "midi": 57,
          "name": "A3",
          "ticks": 7920,
          "time": 6.5562915,
          "velocity": 1
        },
        {
          "duration": 0.17549669166666604,
          "durationTicks": 212,
          "midi": 67,
          "name": "G4",
          "ticks": 7920,
          "time": 6.5562915,
          "velocity": 0.6220472440944882
        },
        {
          "duration": 0.19867550000000023,
          "durationTicks": 240,
          "midi": 71,
          "name": "B4",
          "ticks": 7920,
          "time": 6.5562915,
          "velocity": 0.6220472440944882
        },
        {
          "duration": 0.19867550000000023,
          "durationTicks": 240,
          "midi": 71,
          "name": "B4",
          "ticks": 7920,
          "time": 6.5562915,
          "velocity": 0.4566929133858268
        },
        {
          "duration": 0.19867549999999934,
          "durationTicks": 240,
          "midi": 55,
          "name": "G3",
          "ticks": 8160,
          "time": 6.754967000000001,
          "velocity": 1
        },
        {
          "duration": 0.01655629166666639,
          "durationTicks": 20,
          "midi": 59,
          "name": "B3",
          "ticks": 8160,
          "time": 6.754967000000001,
          "velocity": 0.5196850393700787
        },
        {
          "duration": 0.043046358333333146,
          "durationTicks": 52,
          "midi": 67,
          "name": "G4",
          "ticks": 8160,
          "time": 6.754967000000001,
          "velocity": 0.6220472440944882
        },
        {
          "duration": 0.19867549999999934,
          "durationTicks": 240,
          "midi": 67,
          "name": "G4",
          "ticks": 8160,
          "time": 6.754967000000001,
          "velocity": 0.4566929133858268
        },
        {
          "duration": 0.19867549999999934,
          "durationTicks": 240,
          "midi": 67,
          "name": "G4",
          "ticks": 8160,
          "time": 6.754967000000001,
          "velocity": 0.5196850393700787
        },
        {
          "duration": 0.5894039833333329,
          "durationTicks": 712,
          "midi": 71,
          "name": "B4",
          "ticks": 8160,
          "time": 6.754967000000001,
          "velocity": 0.6220472440944882
        },
        {
          "duration": 0.3807947083333323,
          "durationTicks": 460,
          "midi": 74,
          "name": "D5",
          "ticks": 8160,
          "time": 6.754967000000001,
          "velocity": 1
        },
        {
          "duration": 0.19867550000000023,
          "durationTicks": 240,
          "midi": 50,
          "name": "D3",
          "ticks": 8400,
          "time": 6.9536425,
          "velocity": 1
        },
        {
          "duration": 0.17549669166666693,
          "durationTicks": 212,
          "midi": 59,
          "name": "B3",
          "ticks": 8400,
          "time": 6.9536425,
          "velocity": 0.5196850393700787
        },
        {
          "duration": 0.19867550000000023,
          "durationTicks": 240,
          "midi": 62,
          "name": "D4",
          "ticks": 8400,
          "time": 6.9536425,
          "velocity": 0.6220472440944882
        },
        {
          "duration": 0.39072848333333354,
          "durationTicks": 472,
          "midi": 62,
          "name": "D4",
          "ticks": 8400,
          "time": 6.9536425,
          "velocity": 0.4566929133858268
        },
        {
          "duration": 0.19867550000000023,
          "durationTicks": 240,
          "midi": 67,
          "name": "G4",
          "ticks": 8400,
          "time": 6.9536425,
          "velocity": 0.5196850393700787
        },
        {
          "duration": 0.39735099999999957,
          "durationTicks": 480,
          "midi": 48,
          "name": "C3",
          "ticks": 8640,
          "time": 7.152318,
          "velocity": 1
        },
        {
          "duration": 0.19867550000000023,
          "durationTicks": 240,
          "midi": 60,
          "name": "C4",
          "ticks": 8640,
          "time": 7.152318,
          "velocity": 0.5196850393700787
        },
        {
          "duration": 0.39072848333333354,
          "durationTicks": 472,
          "midi": 60,
          "name": "C4",
          "ticks": 8640,
          "time": 7.152318,
          "velocity": 0.4566929133858268
        },
        {
          "duration": 0.37417219166666627,
          "durationTicks": 452,
          "midi": 67,
          "name": "G4",
          "ticks": 8640,
          "time": 7.152318,
          "velocity": 0.5196850393700787
        },
        {
          "duration": 0.17549669166666693,
          "durationTicks": 212,
          "midi": 79,
          "name": "G5",
          "ticks": 8640,
          "time": 7.152318,
          "velocity": 1
        },
        {
          "duration": 0.009933774999999478,
          "durationTicks": 12,
          "midi": 64,
          "name": "E4",
          "ticks": 8880,
          "time": 7.3509935,
          "velocity": 0.4566929133858268
        },
        {
          "duration": 0.19867549999999934,
          "durationTicks": 240,
          "midi": 64,
          "name": "E4",
          "ticks": 8880,
          "time": 7.3509935,
          "velocity": 0.6220472440944882
        },
        {
          "duration": 0.009933774999999478,
          "durationTicks": 12,
          "midi": 72,
          "name": "C5",
          "ticks": 8880,
          "time": 7.3509935,
          "velocity": 0.6220472440944882
        },
        {
          "duration": 0.17549669166666604,
          "durationTicks": 212,
          "midi": 79,
          "name": "G5",
          "ticks": 8880,
          "time": 7.3509935,
          "velocity": 1
        },
        {
          "duration": 0.009933774999999478,
          "durationTicks": 12,
          "midi": 60,
          "name": "C4",
          "ticks": 9120,
          "time": 7.549669,
          "velocity": 0.5196850393700787
        },
        {
          "duration": 0.37417219166666715,
          "durationTicks": 452,
          "midi": 60,
          "name": "C4",
          "ticks": 9120,
          "time": 7.549669,
          "velocity": 1
        },
        {
          "duration": 0.5894039833333338,
          "durationTicks": 712,
          "midi": 64,
          "name": "E4",
          "ticks": 9120,
          "time": 7.549669,
          "velocity": 0.6220472440944882
        },
        {
          "duration": 0.009933774999999478,
          "durationTicks": 12,
          "midi": 67,
          "name": "G4",
          "ticks": 9120,
          "time": 7.549669,
          "velocity": 0.4566929133858268
        },
        {
          "duration": 0.19867550000000023,
          "durationTicks": 240,
          "midi": 67,
          "name": "G4",
          "ticks": 9120,
          "time": 7.549669,
          "velocity": 0.5196850393700787
        },
        {
          "duration": 0.39735100000000045,
          "durationTicks": 480,
          "midi": 72,
          "name": "C5",
          "ticks": 9120,
          "time": 7.549669,
          "velocity": 0.6220472440944882
        },
        {
          "duration": 0.17549669166666693,
          "durationTicks": 212,
          "midi": 79,
          "name": "G5",
          "ticks": 9120,
          "time": 7.549669,
          "velocity": 1
        },
        {
          "duration": 0.19867550000000023,
          "durationTicks": 240,
          "midi": 60,
          "name": "C4",
          "ticks": 9360,
          "time": 7.7483445,
          "velocity": 0.5196850393700787
        },
        {
          "duration": 0.19867550000000023,
          "durationTicks": 240,
          "midi": 67,
          "name": "G4",
          "ticks": 9360,
          "time": 7.7483445,
          "velocity": 0.5196850393700787
        },
        {
          "duration": 0.39072848333333354,
          "durationTicks": 472,
          "midi": 72,
          "name": "C5",
          "ticks": 9360,
          "time": 7.7483445,
          "velocity": 0.4566929133858268
        },
        {
          "duration": 0.16556291666666745,
          "durationTicks": 200,
          "midi": 79,
          "name": "G5",
          "ticks": 9360,
          "time": 7.7483445,
          "velocity": 1
        },
        {
          "duration": 0.19867550000000023,
          "durationTicks": 240,
          "midi": 48,
          "name": "C3",
          "ticks": 9600,
          "time": 7.94702,
          "velocity": 1
        },
        {
          "duration": 0.016556291666667278,
          "durationTicks": 20,
          "midi": 60,
          "name": "C4",
          "ticks": 9600,
          "time": 7.94702,
          "velocity": 0.5196850393700787
        },
        {
          "duration": 0.016556291666667278,
          "durationTicks": 20,
          "midi": 67,
          "name": "G4",
          "ticks": 9600,
          "time": 7.94702,
          "velocity": 0.5196850393700787
        },
        {
          "duration": 0.19867550000000023,
          "durationTicks": 240,
          "midi": 76,
          "name": "E5",
          "ticks": 9600,
          "time": 7.94702,
          "velocity": 0.4566929133858268
        },
        {
          "duration": 0.19867550000000023,
          "durationTicks": 240,
          "midi": 79,
          "name": "G5",
          "ticks": 9600,
          "time": 7.94702,
          "velocity": 1
        },
        {
          "duration": 0.19867550000000023,
          "durationTicks": 240,
          "midi": 52,
          "name": "E3",
          "ticks": 9840,
          "time": 8.1456955,
          "velocity": 1
        },
        {
          "duration": 0.17549669166666604,
          "durationTicks": 212,
          "midi": 60,
          "name": "C4",
          "ticks": 9840,
          "time": 8.1456955,
          "velocity": 0.5196850393700787
        },
        {
          "duration": 0.00993377499999859,
          "durationTicks": 12,
          "midi": 64,
          "name": "E4",
          "ticks": 9840,
          "time": 8.1456955,
          "velocity": 0.6220472440944882
        },
        {
          "duration": 0.20860927499999882,
          "durationTicks": 252,
          "midi": 67,
          "name": "G4",
          "ticks": 9840,
          "time": 8.1456955,
          "velocity": 0.5196850393700787
        },
        {
          "duration": 0.00993377499999859,
          "durationTicks": 12,
          "midi": 72,
          "name": "C5",
          "ticks": 9840,
          "time": 8.1456955,
          "velocity": 0.6220472440944882
        },
        {
          "duration": 0.19867550000000023,
          "durationTicks": 240,
          "midi": 72,
          "name": "C5",
          "ticks": 9840,
          "time": 8.1456955,
          "velocity": 0.4566929133858268
        },
        {
          "duration": 0.19205298333333332,
          "durationTicks": 232,
          "midi": 76,
          "name": "E5",
          "ticks": 9840,
          "time": 8.1456955,
          "velocity": 1
        },
        {
          "duration": 0.19867550000000023,
          "durationTicks": 240,
          "midi": 57,
          "name": "A3",
          "ticks": 10080,
          "time": 8.344371,
          "velocity": 1
        },
        {
          "duration": 0.39072848333333354,
          "durationTicks": 472,
          "midi": 60,
          "name": "C4",
          "ticks": 10080,
          "time": 8.344371,
          "velocity": 0.5196850393700787
        },
        {
          "duration": 0.19867550000000023,
          "durationTicks": 240,
          "midi": 64,
          "name": "E4",
          "ticks": 10080,
          "time": 8.344371,
          "velocity": 0.6220472440944882
        },
        {
          "duration": 0.19867550000000023,
          "durationTicks": 240,
          "midi": 67,
          "name": "G4",
          "ticks": 10080,
          "time": 8.344371,
          "velocity": 0.4566929133858268
        },
        {
          "duration": 0.37417219166666627,
          "durationTicks": 452,
          "midi": 67,
          "name": "G4",
          "ticks": 10080,
          "time": 8.344371,
          "velocity": 0.5196850393700787
        },
        {
          "duration": 0.5894039833333338,
          "durationTicks": 712,
          "midi": 72,
          "name": "C5",
          "ticks": 10080,
          "time": 8.344371,
          "velocity": 0.6220472440944882
        },
        {
          "duration": 0.19867550000000023,
          "durationTicks": 240,
          "midi": 76,
          "name": "E5",
          "ticks": 10080,
          "time": 8.344371,
          "velocity": 1
        },
        {
          "duration": 0.19205298333333332,
          "durationTicks": 232,
          "midi": 55,
          "name": "G3",
          "ticks": 10320,
          "time": 8.5430465,
          "velocity": 1
        },
        {
          "duration": 0.39072848333333354,
          "durationTicks": 472,
          "midi": 62,
          "name": "D4",
          "ticks": 10320,
          "time": 8.5430465,
          "velocity": 0.6220472440944882
        },
        {
          "duration": 0.19867549999999845,
          "durationTicks": 240,
          "midi": 64,
          "name": "E4",
          "ticks": 10320,
          "time": 8.5430465,
          "velocity": 0.4566929133858268
        },
        {
          "duration": 0.15894039999999876,
          "durationTicks": 192,
          "midi": 74,
          "name": "D5",
          "ticks": 10320,
          "time": 8.5430465,
          "velocity": 1
        },
        {
          "duration": 0.19867550000000023,
          "durationTicks": 240,
          "midi": 55,
          "name": "G3",
          "ticks": 10560,
          "time": 8.741722,
          "velocity": 1
        },
        {
          "duration": 0.033112583333334555,
          "durationTicks": 40,
          "midi": 59,
          "name": "B3",
          "ticks": 10560,
          "time": 8.741722,
          "velocity": 0.5196850393700787
        },
        {
          "duration": 0.19867550000000023,
          "durationTicks": 240,
          "midi": 59,
          "name": "B3",
          "ticks": 10560,
          "time": 8.741722,
          "velocity": 0.4566929133858268
        },
        {
          "duration": 0.009933775000000367,
          "durationTicks": 12,
          "midi": 67,
          "name": "G4",
          "ticks": 10560,
          "time": 8.741722,
          "velocity": 0.5196850393700787
        },
        {
          "duration": 0.16556291666666745,
          "durationTicks": 200,
          "midi": 74,
          "name": "D5",
          "ticks": 10560,
          "time": 8.741722,
          "velocity": 1
        },
        {
          "duration": 0.19867550000000023,
          "durationTicks": 240,
          "midi": 50,
          "name": "D3",
          "ticks": 10800,
          "time": 8.9403975,
          "velocity": 1
        },
        {
          "duration": 0.17549669166666781,
          "durationTicks": 212,
          "midi": 59,
          "name": "B3",
          "ticks": 10800,
          "time": 8.9403975,
          "velocity": 0.5196850393700787
        },
        {
          "duration": 0.19867550000000023,
          "durationTicks": 240,
          "midi": 62,
          "name": "D4",
          "ticks": 10800,
          "time": 8.9403975,
          "velocity": 0.4566929133858268
        },
        {
          "duration": 0.009933775000000367,
          "durationTicks": 12,
          "midi": 67,
          "name": "G4",
          "ticks": 10800,
          "time": 8.9403975,
          "velocity": 0.5196850393700787
        },
        {
          "duration": 0.19867550000000023,
          "durationTicks": 240,
          "midi": 67,
          "name": "G4",
          "ticks": 10800,
          "time": 8.9403975,
          "velocity": 0.6220472440944882
        },
        {
          "duration": 0.009933775000000367,
          "durationTicks": 12,
          "midi": 71,
          "name": "B4",
          "ticks": 10800,
          "time": 8.9403975,
          "velocity": 0.6220472440944882
        },
        {
          "duration": 0.17549669166666781,
          "durationTicks": 212,
          "midi": 74,
          "name": "D5",
          "ticks": 10800,
          "time": 8.9403975,
          "velocity": 1
        },
        {
          "duration": 0.5960265000000007,
          "durationTicks": 720,
          "midi": 55,
          "name": "G3",
          "ticks": 11040,
          "time": 9.139073,
          "velocity": 1
        },
        {
          "duration": 0.026490066666667644,
          "durationTicks": 32,
          "midi": 59,
          "name": "B3",
          "ticks": 11040,
          "time": 9.139073,
          "velocity": 0.5196850393700787
        },
        {
          "duration": 0.026490066666667644,
          "durationTicks": 32,
          "midi": 67,
          "name": "G4",
          "ticks": 11040,
          "time": 9.139073,
          "velocity": 0.6220472440944882
        },
        {
          "duration": 0.19867550000000023,
          "durationTicks": 240,
          "midi": 67,
          "name": "G4",
          "ticks": 11040,
          "time": 9.139073,
          "velocity": 0.4566929133858268
        },
        {
          "duration": 0.39735100000000045,
          "durationTicks": 480,
          "midi": 67,
          "name": "G4",
          "ticks": 11040,
          "time": 9.139073,
          "velocity": 0.5196850393700787
        },
        {
          "duration": 0.39735100000000045,
          "durationTicks": 480,
          "midi": 71,
          "name": "B4",
          "ticks": 11040,
          "time": 9.139073,
          "velocity": 0.6220472440944882
        },
        {
          "duration": 0.17549669166666781,
          "durationTicks": 212,
          "midi": 74,
          "name": "D5",
          "ticks": 11040,
          "time": 9.139073,
          "velocity": 1
        },
        {
          "duration": 0.17549669166666604,
          "durationTicks": 212,
          "midi": 59,
          "name": "B3",
          "ticks": 11280,
          "time": 9.3377485,
          "velocity": 0.5196850393700787
        },
        {
          "duration": 0.39072848333333354,
          "durationTicks": 472,
          "midi": 67,
          "name": "G4",
          "ticks": 11280,
          "time": 9.3377485,
          "velocity": 0.5196850393700787
        },
        {
          "duration": 0.39072848333333354,
          "durationTicks": 472,
          "midi": 71,
          "name": "B4",
          "ticks": 11280,
          "time": 9.3377485,
          "velocity": 0.4566929133858268
        },
        {
          "duration": 0.16556291666666745,
          "durationTicks": 200,
          "midi": 74,
          "name": "D5",
          "ticks": 11280,
          "time": 9.3377485,
          "velocity": 1
        },
        {
          "duration": 0.39072848333333354,
          "durationTicks": 472,
          "midi": 59,
          "name": "B3",
          "ticks": 11520,
          "time": 9.536424,
          "velocity": 0.5196850393700787
        },
        {
          "duration": 0.20860927499999882,
          "durationTicks": 252,
          "midi": 67,
          "name": "G4",
          "ticks": 11520,
          "time": 9.536424,
          "velocity": 0.5196850393700787
        },
        {
          "duration": 0.19867550000000023,
          "durationTicks": 240,
          "midi": 74,
          "name": "D5",
          "ticks": 11520,
          "time": 9.536424,
          "velocity": 1
        },
        {
          "duration": 0.19867550000000023,
          "durationTicks": 240,
          "midi": 74,
          "name": "D5",
          "ticks": 11520,
          "time": 9.536424,
          "velocity": 0.4566929133858268
        },
        {
          "duration": 0.19867550000000023,
          "durationTicks": 240,
          "midi": 50,
          "name": "D3",
          "ticks": 11760,
          "time": 9.7350995,
          "velocity": 1
        },
        {
          "duration": 0.17549669166666604,
          "durationTicks": 212,
          "midi": 67,
          "name": "G4",
          "ticks": 11760,
          "time": 9.7350995,
          "velocity": 1
        },
        {
          "duration": 0.19205298333333332,
          "durationTicks": 232,
          "midi": 67,
          "name": "G4",
          "ticks": 11760,
          "time": 9.7350995,
          "velocity": 0.6220472440944882
        },
        {
          "duration": 0.00993377499999859,
          "durationTicks": 12,
          "midi": 71,
          "name": "B4",
          "ticks": 11760,
          "time": 9.7350995,
          "velocity": 0.6220472440944882
        },
        {
          "duration": 0.19867550000000023,
          "durationTicks": 240,
          "midi": 71,
          "name": "B4",
          "ticks": 11760,
          "time": 9.7350995,
          "velocity": 0.4566929133858268
        },
        {
          "duration": 0.19867550000000023,
          "durationTicks": 240,
          "midi": 55,
          "name": "G3",
          "ticks": 12000,
          "time": 9.933775,
          "velocity": 1
        },
        {
          "duration": 0.016556291666667278,
          "durationTicks": 20,
          "midi": 59,
          "name": "B3",
          "ticks": 12000,
          "time": 9.933775,
          "velocity": 0.5196850393700787
        },
        {
          "duration": 0.043046358333333146,
          "durationTicks": 52,
          "midi": 67,
          "name": "G4",
          "ticks": 12000,
          "time": 9.933775,
          "velocity": 0.6220472440944882
        },
        {
          "duration": 0.19867550000000023,
          "durationTicks": 240,
          "midi": 67,
          "name": "G4",
          "ticks": 12000,
          "time": 9.933775,
          "velocity": 1
        },
        {
          "duration": 0.19867550000000023,
          "durationTicks": 240,
          "midi": 67,
          "name": "G4",
          "ticks": 12000,
          "time": 9.933775,
          "velocity": 0.4566929133858268
        },
        {
          "duration": 0.24834437500000028,
          "durationTicks": 300,
          "midi": 67,
          "name": "G4",
          "ticks": 12000,
          "time": 9.933775,
          "velocity": 0.5196850393700787
        },
        {
          "duration": 0.5894039833333338,
          "durationTicks": 712,
          "midi": 71,
          "name": "B4",
          "ticks": 12000,
          "time": 9.933775,
          "velocity": 0.6220472440944882
        },
        {
          "duration": 0.19867550000000023,
          "durationTicks": 240,
          "midi": 50,
          "name": "D3",
          "ticks": 12240,
          "time": 10.132450500000001,
          "velocity": 1
        },
        {
          "duration": 0.17549669166666604,
          "durationTicks": 212,
          "midi": 59,
          "name": "B3",
          "ticks": 12240,
          "time": 10.132450500000001,
          "velocity": 0.5196850393700787
        },
        {
          "duration": 0.19867550000000023,
          "durationTicks": 240,
          "midi": 62,
          "name": "D4",
          "ticks": 12240,
          "time": 10.132450500000001,
          "velocity": 0.6220472440944882
        },
        {
          "duration": 0.39072848333333354,
          "durationTicks": 472,
          "midi": 62,
          "name": "D4",
          "ticks": 12240,
          "time": 10.132450500000001,
          "velocity": 0.4566929133858268
        },
        {
          "duration": 0.19867550000000023,
          "durationTicks": 240,
          "midi": 67,
          "name": "G4",
          "ticks": 12240,
          "time": 10.132450500000001,
          "velocity": 0.5196850393700787
        },
        {
          "duration": 0.19867549999999845,
          "durationTicks": 240,
          "midi": 57,
          "name": "A3",
          "ticks": 12480,
          "time": 10.331126000000001,
          "velocity": 1
        },
        {
          "duration": 0.5960264999999989,
          "durationTicks": 720,
          "midi": 57,
          "name": "A3",
          "ticks": 12480,
          "time": 10.331126000000001,
          "velocity": 0.4566929133858268
        },
        {
          "duration": 0.39072848333333354,
          "durationTicks": 472,
          "midi": 62,
          "name": "D4",
          "ticks": 12480,
          "time": 10.331126000000001,
          "velocity": 0.5196850393700787
        },
        {
          "duration": 0.20860927499999882,
          "durationTicks": 252,
          "midi": 66,
          "name": "F#4",
          "ticks": 12480,
          "time": 10.331126000000001,
          "velocity": 0.5196850393700787
        },
        {
          "duration": 0.16556291666666567,
          "durationTicks": 200,
          "midi": 69,
          "name": "A4",
          "ticks": 12480,
          "time": 10.331126000000001,
          "velocity": 1
        },
        {
          "duration": 0.19867550000000023,
          "durationTicks": 240,
          "midi": 62,
          "name": "D4",
          "ticks": 12720,
          "time": 10.5298015,
          "velocity": 0.4566929133858268
        },
        {
          "duration": 0.17549669166666781,
          "durationTicks": 212,
          "midi": 66,
          "name": "F#4",
          "ticks": 12720,
          "time": 10.5298015,
          "velocity": 0.6220472440944882
        },
        {
          "duration": 0.009933775000000367,
          "durationTicks": 12,
          "midi": 69,
          "name": "A4",
          "ticks": 12720,
          "time": 10.5298015,
          "velocity": 0.6220472440944882
        },
        {
          "duration": 0.16556291666666745,
          "durationTicks": 200,
          "midi": 69,
          "name": "A4",
          "ticks": 12720,
          "time": 10.5298015,
          "velocity": 1
        },
        {
          "duration": 0.009933775000000367,
          "durationTicks": 12,
          "midi": 62,
          "name": "D4",
          "ticks": 12960,
          "time": 10.728477,
          "velocity": 0.5196850393700787
        },
        {
          "duration": 0.009933775000000367,
          "durationTicks": 12,
          "midi": 66,
          "name": "F#4",
          "ticks": 12960,
          "time": 10.728477,
          "velocity": 0.6220472440944882
        },
        {
          "duration": 0.19867550000000023,
          "durationTicks": 240,
          "midi": 66,
          "name": "F#4",
          "ticks": 12960,
          "time": 10.728477,
          "velocity": 0.4566929133858268
        },
        {
          "duration": 0.39735100000000045,
          "durationTicks": 480,
          "midi": 66,
          "name": "F#4",
          "ticks": 12960,
          "time": 10.728477,
          "velocity": 0.5196850393700787
        },
        {
          "duration": 0.19867550000000023,
          "durationTicks": 240,
          "midi": 69,
          "name": "A4",
          "ticks": 12960,
          "time": 10.728477,
          "velocity": 0.6220472440944882
        },
        {
          "duration": 0.39735100000000045,
          "durationTicks": 480,
          "midi": 69,
          "name": "A4",
          "ticks": 12960,
          "time": 10.728477,
          "velocity": 1
        },
        {
          "duration": 0.19867550000000023,
          "durationTicks": 240,
          "midi": 52,
          "name": "E3",
          "ticks": 13200,
          "time": 10.9271525,
          "velocity": 1
        },
        {
          "duration": 0.17549669166666604,
          "durationTicks": 212,
          "midi": 62,
          "name": "D4",
          "ticks": 13200,
          "time": 10.9271525,
          "velocity": 0.5196850393700787
        },
        {
          "duration": 0.2152317916666675,
          "durationTicks": 260,
          "midi": 66,
          "name": "F#4",
          "ticks": 13200,
          "time": 10.9271525,
          "velocity": 0.5196850393700787
        },
        {
          "duration": 0.39072848333333354,
          "durationTicks": 472,
          "midi": 69,
          "name": "A4",
          "ticks": 13200,
          "time": 10.9271525,
          "velocity": 0.4566929133858268
        },
        {
          "duration": 0.19867550000000023,
          "durationTicks": 240,
          "midi": 71,
          "name": "B4",
          "ticks": 13200,
          "time": 10.9271525,
          "velocity": 1
        },
        {
          "duration": 0.5960265000000007,
          "durationTicks": 720,
          "midi": 50,
          "name": "D3",
          "ticks": 13440,
          "time": 11.125828,
          "velocity": 1
        },
        {
          "duration": 0.016556291666667278,
          "durationTicks": 20,
          "midi": 62,
          "name": "D4",
          "ticks": 13440,
          "time": 11.125828,
          "velocity": 0.5196850393700787
        },
        {
          "duration": 0.19205298333333332,
          "durationTicks": 232,
          "midi": 66,
          "name": "F#4",
          "ticks": 13440,
          "time": 11.125828,
          "velocity": 0.5196850393700787
        },
        {
          "duration": 0.19867550000000023,
          "durationTicks": 240,
          "midi": 69,
          "name": "A4",
          "ticks": 13440,
          "time": 11.125828,
          "velocity": 1
        },
        {
          "duration": 0.19867550000000023,
          "durationTicks": 240,
          "midi": 74,
          "name": "D5",
          "ticks": 13440,
          "time": 11.125828,
          "velocity": 0.4566929133858268
        },
        {
          "duration": 0.17549669166666604,
          "durationTicks": 212,
          "midi": 62,
          "name": "D4",
          "ticks": 13680,
          "time": 11.3245035,
          "velocity": 0.5196850393700787
        },
        {
          "duration": 0.00993377499999859,
          "durationTicks": 12,
          "midi": 66,
          "name": "F#4",
          "ticks": 13680,
          "time": 11.3245035,
          "velocity": 0.5196850393700787
        },
        {
          "duration": 0.20860927499999882,
          "durationTicks": 252,
          "midi": 66,
          "name": "F#4",
          "ticks": 13680,
          "time": 11.3245035,
          "velocity": 0.6220472440944882
        },
        {
          "duration": 0.19867550000000023,
          "durationTicks": 240,
          "midi": 67,
          "name": "G4",
          "ticks": 13680,
          "time": 11.3245035,
          "velocity": 1
        },
        {
          "duration": 0.00993377499999859,
          "durationTicks": 12,
          "midi": 69,
          "name": "A4",
          "ticks": 13680,
          "time": 11.3245035,
          "velocity": 0.6220472440944882
        },
        {
          "duration": 0.19867550000000023,
          "durationTicks": 240,
          "midi": 69,
          "name": "A4",
          "ticks": 13680,
          "time": 11.3245035,
          "velocity": 0.4566929133858268
        },
        {
          "duration": 0.39072848333333354,
          "durationTicks": 472,
          "midi": 62,
          "name": "D4",
          "ticks": 13920,
          "time": 11.523179,
          "velocity": 0.5196850393700787
        },
        {
          "duration": 0.3973509999999987,
          "durationTicks": 480,
          "midi": 64,
          "name": "E4",
          "ticks": 13920,
          "time": 11.523179,
          "velocity": 1
        },
        {
          "duration": 0.19867550000000023,
          "durationTicks": 240,
          "midi": 66,
          "name": "F#4",
          "ticks": 13920,
          "time": 11.523179,
          "velocity": 0.6220472440944882
        },
        {
          "duration": 0.19867550000000023,
          "durationTicks": 240,
          "midi": 66,
          "name": "F#4",
          "ticks": 13920,
          "time": 11.523179,
          "velocity": 0.4566929133858268
        },
        {
          "duration": 0.37417219166666627,
          "durationTicks": 452,
          "midi": 66,
          "name": "F#4",
          "ticks": 13920,
          "time": 11.523179,
          "velocity": 0.5196850393700787
        },
        {
          "duration": 0.5894039833333338,
          "durationTicks": 712,
          "midi": 69,
          "name": "A4",
          "ticks": 13920,
          "time": 11.523179,
          "velocity": 0.6220472440944882
        },
        {
          "duration": 0.19867549999999845,
          "durationTicks": 240,
          "midi": 57,
          "name": "A3",
          "ticks": 14160,
          "time": 11.721854500000001,
          "velocity": 1
        },
        {
          "duration": 0.19867549999999845,
          "durationTicks": 240,
          "midi": 62,
          "name": "D4",
          "ticks": 14160,
          "time": 11.721854500000001,
          "velocity": 0.6220472440944882
        },
        {
          "duration": 0.231788083333333,
          "durationTicks": 280,
          "midi": 62,
          "name": "D4",
          "ticks": 14160,
          "time": 11.721854500000001,
          "velocity": 0.4566929133858268
        },
        {
          "duration": 0.19867550000000023,
          "durationTicks": 240,
          "midi": 55,
          "name": "G3",
          "ticks": 14400,
          "time": 11.92053,
          "velocity": 1
        },
        {
          "duration": 0.19867550000000023,
          "durationTicks": 240,
          "midi": 59,
          "name": "B3",
          "ticks": 14400,
          "time": 11.92053,
          "velocity": 0.4566929133858268
        },
        {
          "duration": 0.1920529833333351,
          "durationTicks": 232,
          "midi": 62,
          "name": "D4",
          "ticks": 14400,
          "time": 11.92053,
          "velocity": 0.5196850393700787
        },
        {
          "duration": 0.009933775000000367,
          "durationTicks": 12,
          "midi": 67,
          "name": "G4",
          "ticks": 14400,
          "time": 11.92053,
          "velocity": 1
        },
        {
          "duration": 0.2086092750000006,
          "durationTicks": 252,
          "midi": 67,
          "name": "G4",
          "ticks": 14400,
          "time": 11.92053,
          "velocity": 0.5196850393700787
        },
        {
          "duration": 0.19867550000000023,
          "durationTicks": 240,
          "midi": 57,
          "name": "A3",
          "ticks": 14640,
          "time": 12.1192055,
          "velocity": 1
        },
        {
          "duration": 0.17549669166666781,
          "durationTicks": 212,
          "midi": 62,
          "name": "D4",
          "ticks": 14640,
          "time": 12.1192055,
          "velocity": 0.4566929133858268
        },
        {
          "duration": 0.19867550000000023,
          "durationTicks": 240,
          "midi": 62,
          "name": "D4",
          "ticks": 14640,
          "time": 12.1192055,
          "velocity": 0.5196850393700787
        },
        {
          "duration": 0.19867550000000023,
          "durationTicks": 240,
          "midi": 67,
          "name": "G4",
          "ticks": 14640,
          "time": 12.1192055,
          "velocity": 0.5196850393700787
        },
        {
          "duration": 0.22516556666666787,
          "durationTicks": 272,
          "midi": 67,
          "name": "G4",
          "ticks": 14640,
          "time": 12.1192055,
          "velocity": 0.6220472440944882
        },
        {
          "duration": 0.009933775000000367,
          "durationTicks": 12,
          "midi": 71,
          "name": "B4",
          "ticks": 14640,
          "time": 12.1192055,
          "velocity": 0.6220472440944882
        },
        {
          "duration": 0.19867550000000023,
          "durationTicks": 240,
          "midi": 59,
          "name": "B3",
          "ticks": 14880,
          "time": 12.317881,
          "velocity": 1
        },
        {
          "duration": 0.026490066666667644,
          "durationTicks": 32,
          "midi": 62,
          "name": "D4",
          "ticks": 14880,
          "time": 12.317881,
          "velocity": 0.5196850393700787
        },
        {
          "duration": 0.04304635833333492,
          "durationTicks": 52,
          "midi": 67,
          "name": "G4",
          "ticks": 14880,
          "time": 12.317881,
          "velocity": 0.6220472440944882
        },
        {
          "duration": 0.19867550000000023,
          "durationTicks": 240,
          "midi": 67,
          "name": "G4",
          "ticks": 14880,
          "time": 12.317881,
          "velocity": 0.4566929133858268
        },
        {
          "duration": 0.39735100000000045,
          "durationTicks": 480,
          "midi": 67,
          "name": "G4",
          "ticks": 14880,
          "time": 12.317881,
          "velocity": 0.5196850393700787
        },
        {
          "duration": 0.39735100000000045,
          "durationTicks": 480,
          "midi": 71,
          "name": "B4",
          "ticks": 14880,
          "time": 12.317881,
          "velocity": 0.6220472440944882
        },
        {
          "duration": 0.19867550000000023,
          "durationTicks": 240,
          "midi": 57,
          "name": "A3",
          "ticks": 15120,
          "time": 12.5165565,
          "velocity": 1
        },
        {
          "duration": 0.17549669166666604,
          "durationTicks": 212,
          "midi": 62,
          "name": "D4",
          "ticks": 15120,
          "time": 12.5165565,
          "velocity": 0.5196850393700787
        },
        {
          "duration": 0.39072848333333354,
          "durationTicks": 472,
          "midi": 67,
          "name": "G4",
          "ticks": 15120,
          "time": 12.5165565,
          "velocity": 0.5196850393700787
        },
        {
          "duration": 0.3476821250000004,
          "durationTicks": 420,
          "midi": 71,
          "name": "B4",
          "ticks": 15120,
          "time": 12.5165565,
          "velocity": 0.4566929133858268
        },
        {
          "duration": 0.19867550000000023,
          "durationTicks": 240,
          "midi": 55,
          "name": "G3",
          "ticks": 15360,
          "time": 12.715232,
          "velocity": 1
        },
        {
          "duration": 0.39072848333333354,
          "durationTicks": 472,
          "midi": 62,
          "name": "D4",
          "ticks": 15360,
          "time": 12.715232,
          "velocity": 0.5196850393700787
        },
        {
          "duration": 0.20860927499999882,
          "durationTicks": 252,
          "midi": 67,
          "name": "G4",
          "ticks": 15360,
          "time": 12.715232,
          "velocity": 0.5196850393700787
        },
        {
          "duration": 0.19205298333333332,
          "durationTicks": 232,
          "midi": 71,
          "name": "B4",
          "ticks": 15360,
          "time": 12.715232,
          "velocity": 1
        },
        {
          "duration": 0.19867550000000023,
          "durationTicks": 240,
          "midi": 74,
          "name": "D5",
          "ticks": 15360,
          "time": 12.715232,
          "velocity": 0.4566929133858268
        },
        {
          "duration": 0.19867550000000023,
          "durationTicks": 240,
          "midi": 50,
          "name": "D3",
          "ticks": 15600,
          "time": 12.9139075,
          "velocity": 1
        },
        {
          "duration": 0.17549669166666781,
          "durationTicks": 212,
          "midi": 67,
          "name": "G4",
          "ticks": 15600,
          "time": 12.9139075,
          "velocity": 0.6220472440944882
        },
        {
          "duration": 0.00993377499999859,
          "durationTicks": 12,
          "midi": 71,
          "name": "B4",
          "ticks": 15600,
          "time": 12.9139075,
          "velocity": 0.6220472440944882
        },
        {
          "duration": 0.16556291666666567,
          "durationTicks": 200,
          "midi": 71,
          "name": "B4",
          "ticks": 15600,
          "time": 12.9139075,
          "velocity": 1
        },
        {
          "duration": 0.19867550000000023,
          "durationTicks": 240,
          "midi": 71,
          "name": "B4",
          "ticks": 15600,
          "time": 12.9139075,
          "velocity": 0.4566929133858268
        },
        {
          "duration": 0.19867550000000023,
          "durationTicks": 240,
          "midi": 55,
          "name": "G3",
          "ticks": 15840,
          "time": 13.112583,
          "velocity": 1
        },
        {
          "duration": 0.0165562916666655,
          "durationTicks": 20,
          "midi": 62,
          "name": "D4",
          "ticks": 15840,
          "time": 13.112583,
          "velocity": 0.5196850393700787
        },
        {
          "duration": 0.043046358333333146,
          "durationTicks": 52,
          "midi": 67,
          "name": "G4",
          "ticks": 15840,
          "time": 13.112583,
          "velocity": 0.6220472440944882
        },
        {
          "duration": 0.19867550000000023,
          "durationTicks": 240,
          "midi": 67,
          "name": "G4",
          "ticks": 15840,
          "time": 13.112583,
          "velocity": 0.4566929133858268
        },
        {
          "duration": 0.19867550000000023,
          "durationTicks": 240,
          "midi": 67,
          "name": "G4",
          "ticks": 15840,
          "time": 13.112583,
          "velocity": 0.5196850393700787
        },
        {
          "duration": 0.5894039833333338,
          "durationTicks": 712,
          "midi": 71,
          "name": "B4",
          "ticks": 15840,
          "time": 13.112583,
          "velocity": 0.6220472440944882
        },
        {
          "duration": 0.37417219166666804,
          "durationTicks": 452,
          "midi": 74,
          "name": "D5",
          "ticks": 15840,
          "time": 13.112583,
          "velocity": 1
        },
        {
          "duration": 0.19867550000000023,
          "durationTicks": 240,
          "midi": 57,
          "name": "A3",
          "ticks": 16080,
          "time": 13.311258500000001,
          "velocity": 1
        },
        {
          "duration": 0.17549669166666781,
          "durationTicks": 212,
          "midi": 62,
          "name": "D4",
          "ticks": 16080,
          "time": 13.311258500000001,
          "velocity": 0.6220472440944882
        },
        {
          "duration": 0.19867550000000023,
          "durationTicks": 240,
          "midi": 62,
          "name": "D4",
          "ticks": 16080,
          "time": 13.311258500000001,
          "velocity": 0.4566929133858268
        },
        {
          "duration": 0.39072848333333354,
          "durationTicks": 472,
          "midi": 62,
          "name": "D4",
          "ticks": 16080,
          "time": 13.311258500000001,
          "velocity": 0.5196850393700787
        },
        {
          "duration": 0.19867550000000023,
          "durationTicks": 240,
          "midi": 67,
          "name": "G4",
          "ticks": 16080,
          "time": 13.311258500000001,
          "velocity": 0.5196850393700787
        },
        {
          "duration": 0.19867549999999845,
          "durationTicks": 240,
          "midi": 60,
          "name": "C4",
          "ticks": 16320,
          "time": 13.509934000000001,
          "velocity": 0.5196850393700787
        },
        {
          "duration": 0.39072848333333354,
          "durationTicks": 472,
          "midi": 60,
          "name": "C4",
          "ticks": 16320,
          "time": 13.509934000000001,
          "velocity": 1
        },
        {
          "duration": 0.40728477499999904,
          "durationTicks": 492,
          "midi": 60,
          "name": "C4",
          "ticks": 16320,
          "time": 13.509934000000001,
          "velocity": 0.4566929133858268
        },
        {
          "duration": 0.37417219166666627,
          "durationTicks": 452,
          "midi": 67,
          "name": "G4",
          "ticks": 16320,
          "time": 13.509934000000001,
          "velocity": 0.5196850393700787
        },
        {
          "duration": 0.16556291666666567,
          "durationTicks": 200,
          "midi": 79,
          "name": "G5",
          "ticks": 16320,
          "time": 13.509934000000001,
          "velocity": 1
        },
        {
          "duration": 0.009933775000000367,
          "durationTicks": 12,
          "midi": 64,
          "name": "E4",
          "ticks": 16560,
          "time": 13.7086095,
          "velocity": 0.4566929133858268
        },
        {
          "duration": 0.19867550000000023,
          "durationTicks": 240,
          "midi": 64,
          "name": "E4",
          "ticks": 16560,
          "time": 13.7086095,
          "velocity": 0.6220472440944882
        },
        {
          "duration": 0.009933775000000367,
          "durationTicks": 12,
          "midi": 72,
          "name": "C5",
          "ticks": 16560,
          "time": 13.7086095,
          "velocity": 0.6220472440944882
        },
        {
          "duration": 0.17549669166666781,
          "durationTicks": 212,
          "midi": 79,
          "name": "G5",
          "ticks": 16560,
          "time": 13.7086095,
          "velocity": 1
        },
        {
          "duration": 0.37417219166666804,
          "durationTicks": 452,
          "midi": 60,
          "name": "C4",
          "ticks": 16800,
          "time": 13.907285,
          "velocity": 0.5196850393700787
        },
        {
          "duration": 0.5894039833333338,
          "durationTicks": 712,
          "midi": 64,
          "name": "E4",
          "ticks": 16800,
          "time": 13.907285,
          "velocity": 0.6220472440944882
        },
        {
          "duration": 0.009933775000000367,
          "durationTicks": 12,
          "midi": 67,
          "name": "G4",
          "ticks": 16800,
          "time": 13.907285,
          "velocity": 0.4566929133858268
        },
        {
          "duration": 0.19867550000000023,
          "durationTicks": 240,
          "midi": 67,
          "name": "G4",
          "ticks": 16800,
          "time": 13.907285,
          "velocity": 0.5196850393700787
        },
        {
          "duration": 0.39735100000000045,
          "durationTicks": 480,
          "midi": 72,
          "name": "C5",
          "ticks": 16800,
          "time": 13.907285,
          "velocity": 0.6220472440944882
        },
        {
          "duration": 0.17549669166666781,
          "durationTicks": 212,
          "midi": 79,
          "name": "G5",
          "ticks": 16800,
          "time": 13.907285,
          "velocity": 1
        },
        {
          "duration": 0.21523179166666573,
          "durationTicks": 260,
          "midi": 60,
          "name": "C4",
          "ticks": 17040,
          "time": 14.1059605,
          "velocity": 0.5196850393700787
        },
        {
          "duration": 0.19867550000000023,
          "durationTicks": 240,
          "midi": 67,
          "name": "G4",
          "ticks": 17040,
          "time": 14.1059605,
          "velocity": 0.5196850393700787
        },
        {
          "duration": 0.39072848333333354,
          "durationTicks": 472,
          "midi": 72,
          "name": "C5",
          "ticks": 17040,
          "time": 14.1059605,
          "velocity": 0.4566929133858268
        },
        {
          "duration": 0.16556291666666567,
          "durationTicks": 200,
          "midi": 79,
          "name": "G5",
          "ticks": 17040,
          "time": 14.1059605,
          "velocity": 1
        },
        {
          "duration": 0.19867550000000023,
          "durationTicks": 240,
          "midi": 60,
          "name": "C4",
          "ticks": 17280,
          "time": 14.304636,
          "velocity": 0.5196850393700787
        },
        {
          "duration": 0.0165562916666655,
          "durationTicks": 20,
          "midi": 67,
          "name": "G4",
          "ticks": 17280,
          "time": 14.304636,
          "velocity": 0.5196850393700787
        },
        {
          "duration": 0.19867550000000023,
          "durationTicks": 240,
          "midi": 76,
          "name": "E5",
          "ticks": 17280,
          "time": 14.304636,
          "velocity": 0.4566929133858268
        },
        {
          "duration": 0.19867550000000023,
          "durationTicks": 240,
          "midi": 79,
          "name": "G5",
          "ticks": 17280,
          "time": 14.304636,
          "velocity": 1
        },
        {
          "duration": 0.19867550000000023,
          "durationTicks": 240,
          "midi": 48,
          "name": "C3",
          "ticks": 17520,
          "time": 14.5033115,
          "velocity": 1
        },
        {
          "duration": 0.17549669166666781,
          "durationTicks": 212,
          "midi": 60,
          "name": "C4",
          "ticks": 17520,
          "time": 14.5033115,
          "velocity": 0.5196850393700787
        },
        {
          "duration": 0.00993377499999859,
          "durationTicks": 12,
          "midi": 64,
          "name": "E4",
          "ticks": 17520,
          "time": 14.5033115,
          "velocity": 0.6220472440944882
        },
        {
          "duration": 0.20860927499999882,
          "durationTicks": 252,
          "midi": 67,
          "name": "G4",
          "ticks": 17520,
          "time": 14.5033115,
          "velocity": 0.5196850393700787
        },
        {
          "duration": 0.00993377499999859,
          "durationTicks": 12,
          "midi": 72,
          "name": "C5",
          "ticks": 17520,
          "time": 14.5033115,
          "velocity": 0.6220472440944882
        },
        {
          "duration": 0.19867550000000023,
          "durationTicks": 240,
          "midi": 72,
          "name": "C5",
          "ticks": 17520,
          "time": 14.5033115,
          "velocity": 0.4566929133858268
        },
        {
          "duration": 0.19205298333333332,
          "durationTicks": 232,
          "midi": 76,
          "name": "E5",
          "ticks": 17520,
          "time": 14.5033115,
          "velocity": 1
        },
        {
          "duration": 0.19867550000000023,
          "durationTicks": 240,
          "midi": 50,
          "name": "D3",
          "ticks": 17760,
          "time": 14.701987,
          "velocity": 1
        },
        {
          "duration": 0.39072848333333354,
          "durationTicks": 472,
          "midi": 60,
          "name": "C4",
          "ticks": 17760,
          "time": 14.701987,
          "velocity": 0.5196850393700787
        },
        {
          "duration": 0.19867550000000023,
          "durationTicks": 240,
          "midi": 64,
          "name": "E4",
          "ticks": 17760,
          "time": 14.701987,
          "velocity": 0.6220472440944882
        },
        {
          "duration": 0.19867550000000023,
          "durationTicks": 240,
          "midi": 67,
          "name": "G4",
          "ticks": 17760,
          "time": 14.701987,
          "velocity": 0.4566929133858268
        },
        {
          "duration": 0.37417219166666804,
          "durationTicks": 452,
          "midi": 67,
          "name": "G4",
          "ticks": 17760,
          "time": 14.701987,
          "velocity": 0.5196850393700787
        },
        {
          "duration": 0.5894039833333338,
          "durationTicks": 712,
          "midi": 72,
          "name": "C5",
          "ticks": 17760,
          "time": 14.701987,
          "velocity": 0.6220472440944882
        },
        {
          "duration": 0.19867550000000023,
          "durationTicks": 240,
          "midi": 76,
          "name": "E5",
          "ticks": 17760,
          "time": 14.701987,
          "velocity": 1
        },
        {
          "duration": 0.19867549999999845,
          "durationTicks": 240,
          "midi": 52,
          "name": "E3",
          "ticks": 18000,
          "time": 14.900662500000001,
          "velocity": 1
        },
        {
          "duration": 0.39072848333333354,
          "durationTicks": 472,
          "midi": 62,
          "name": "D4",
          "ticks": 18000,
          "time": 14.900662500000001,
          "velocity": 0.6220472440944882
        },
        {
          "duration": 0.19867549999999845,
          "durationTicks": 240,
          "midi": 64,
          "name": "E4",
          "ticks": 18000,
          "time": 14.900662500000001,
          "velocity": 0.4566929133858268
        },
        {
          "duration": 0.16556291666666567,
          "durationTicks": 200,
          "midi": 74,
          "name": "D5",
          "ticks": 18000,
          "time": 14.900662500000001,
          "velocity": 1
        },
        {
          "duration": 0.19867550000000023,
          "durationTicks": 240,
          "midi": 55,
          "name": "G3",
          "ticks": 18240,
          "time": 15.099338,
          "velocity": 1
        },
        {
          "duration": 0.033112583333334555,
          "durationTicks": 40,
          "midi": 59,
          "name": "B3",
          "ticks": 18240,
          "time": 15.099338,
          "velocity": 0.5196850393700787
        },
        {
          "duration": 0.19867550000000023,
          "durationTicks": 240,
          "midi": 59,
          "name": "B3",
          "ticks": 18240,
          "time": 15.099338,
          "velocity": 0.4566929133858268
        },
        {
          "duration": 0.009933775000000367,
          "durationTicks": 12,
          "midi": 67,
          "name": "G4",
          "ticks": 18240,
          "time": 15.099338,
          "velocity": 0.5196850393700787
        },
        {
          "duration": 0.1920529833333351,
          "durationTicks": 232,
          "midi": 74,
          "name": "D5",
          "ticks": 18240,
          "time": 15.099338,
          "velocity": 1
        },
        {
          "duration": 0.19867550000000023,
          "durationTicks": 240,
          "midi": 50,
          "name": "D3",
          "ticks": 18480,
          "time": 15.2980135,
          "velocity": 1
        },
        {
          "duration": 0.17549669166666781,
          "durationTicks": 212,
          "midi": 59,
          "name": "B3",
          "ticks": 18480,
          "time": 15.2980135,
          "velocity": 0.5196850393700787
        },
        {
          "duration": 0.19867550000000023,
          "durationTicks": 240,
          "midi": 62,
          "name": "D4",
          "ticks": 18480,
          "time": 15.2980135,
          "velocity": 0.4566929133858268
        },
        {
          "duration": 0.009933775000000367,
          "durationTicks": 12,
          "midi": 67,
          "name": "G4",
          "ticks": 18480,
          "time": 15.2980135,
          "velocity": 0.5196850393700787
        },
        {
          "duration": 0.19867550000000023,
          "durationTicks": 240,
          "midi": 67,
          "name": "G4",
          "ticks": 18480,
          "time": 15.2980135,
          "velocity": 0.6220472440944882
        },
        {
          "duration": 0.009933775000000367,
          "durationTicks": 12,
          "midi": 71,
          "name": "B4",
          "ticks": 18480,
          "time": 15.2980135,
          "velocity": 0.6220472440944882
        },
        {
          "duration": 0.1920529833333351,
          "durationTicks": 232,
          "midi": 74,
          "name": "D5",
          "ticks": 18480,
          "time": 15.2980135,
          "velocity": 1
        },
        {
          "duration": 0.5894039833333338,
          "durationTicks": 712,
          "midi": 55,
          "name": "G3",
          "ticks": 18720,
          "time": 15.496689,
          "velocity": 1
        },
        {
          "duration": 0.026490066666667644,
          "durationTicks": 32,
          "midi": 59,
          "name": "B3",
          "ticks": 18720,
          "time": 15.496689,
          "velocity": 0.5196850393700787
        },
        {
          "duration": 0.026490066666667644,
          "durationTicks": 32,
          "midi": 67,
          "name": "G4",
          "ticks": 18720,
          "time": 15.496689,
          "velocity": 0.6220472440944882
        },
        {
          "duration": 0.19867550000000023,
          "durationTicks": 240,
          "midi": 67,
          "name": "G4",
          "ticks": 18720,
          "time": 15.496689,
          "velocity": 0.4566929133858268
        },
        {
          "duration": 0.39735100000000045,
          "durationTicks": 480,
          "midi": 67,
          "name": "G4",
          "ticks": 18720,
          "time": 15.496689,
          "velocity": 0.5196850393700787
        },
        {
          "duration": 0.39735100000000045,
          "durationTicks": 480,
          "midi": 71,
          "name": "B4",
          "ticks": 18720,
          "time": 15.496689,
          "velocity": 0.6220472440944882
        },
        {
          "duration": 0.19205298333333332,
          "durationTicks": 232,
          "midi": 74,
          "name": "D5",
          "ticks": 18720,
          "time": 15.496689,
          "velocity": 1
        },
        {
          "duration": 0.17549669166666781,
          "durationTicks": 212,
          "midi": 59,
          "name": "B3",
          "ticks": 18960,
          "time": 15.6953645,
          "velocity": 0.5196850393700787
        },
        {
          "duration": 0.39072848333333354,
          "durationTicks": 472,
          "midi": 67,
          "name": "G4",
          "ticks": 18960,
          "time": 15.6953645,
          "velocity": 0.5196850393700787
        },
        {
          "duration": 0.39072848333333354,
          "durationTicks": 472,
          "midi": 71,
          "name": "B4",
          "ticks": 18960,
          "time": 15.6953645,
          "velocity": 0.4566929133858268
        },
        {
          "duration": 0.19205298333333332,
          "durationTicks": 232,
          "midi": 74,
          "name": "D5",
          "ticks": 18960,
          "time": 15.6953645,
          "velocity": 1
        },
        {
          "duration": 0.39072848333333354,
          "durationTicks": 472,
          "midi": 59,
          "name": "B3",
          "ticks": 19200,
          "time": 15.89404,
          "velocity": 0.5196850393700787
        },
        {
          "duration": 0.2086092750000006,
          "durationTicks": 252,
          "midi": 67,
          "name": "G4",
          "ticks": 19200,
          "time": 15.89404,
          "velocity": 0.5196850393700787
        },
        {
          "duration": 0.19205298333333332,
          "durationTicks": 232,
          "midi": 74,
          "name": "D5",
          "ticks": 19200,
          "time": 15.89404,
          "velocity": 1
        },
        {
          "duration": 0.19867550000000023,
          "durationTicks": 240,
          "midi": 74,
          "name": "D5",
          "ticks": 19200,
          "time": 15.89404,
          "velocity": 0.4566929133858268
        },
        {
          "duration": 0.19867550000000023,
          "durationTicks": 240,
          "midi": 55,
          "name": "G3",
          "ticks": 19440,
          "time": 16.0927155,
          "velocity": 1
        },
        {
          "duration": 0.17549669166666604,
          "durationTicks": 212,
          "midi": 67,
          "name": "G4",
          "ticks": 19440,
          "time": 16.0927155,
          "velocity": 1
        },
        {
          "duration": 0.19205298333333332,
          "durationTicks": 232,
          "midi": 67,
          "name": "G4",
          "ticks": 19440,
          "time": 16.0927155,
          "velocity": 0.6220472440944882
        },
        {
          "duration": 0.009933775000000367,
          "durationTicks": 12,
          "midi": 71,
          "name": "B4",
          "ticks": 19440,
          "time": 16.0927155,
          "velocity": 0.6220472440944882
        },
        {
          "duration": 0.19867550000000023,
          "durationTicks": 240,
          "midi": 71,
          "name": "B4",
          "ticks": 19440,
          "time": 16.0927155,
          "velocity": 0.4566929133858268
        },
        {
          "duration": 0.016556291666663725,
          "durationTicks": 20,
          "midi": 59,
          "name": "B3",
          "ticks": 19680,
          "time": 16.291391,
          "velocity": 0.5196850393700787
        },
        {
          "duration": 0.19867550000000023,
          "durationTicks": 240,
          "midi": 59,
          "name": "B3",
          "ticks": 19680,
          "time": 16.291391,
          "velocity": 1
        },
        {
          "duration": 0.04304635833333492,
          "durationTicks": 52,
          "midi": 67,
          "name": "G4",
          "ticks": 19680,
          "time": 16.291391,
          "velocity": 0.6220472440944882
        },
        {
          "duration": 0.19867550000000023,
          "durationTicks": 240,
          "midi": 67,
          "name": "G4",
          "ticks": 19680,
          "time": 16.291391,
          "velocity": 1
        },
        {
          "duration": 0.19867550000000023,
          "durationTicks": 240,
          "midi": 67,
          "name": "G4",
          "ticks": 19680,
          "time": 16.291391,
          "velocity": 0.4566929133858268
        },
        {
          "duration": 0.21523179166666395,
          "durationTicks": 260,
          "midi": 67,
          "name": "G4",
          "ticks": 19680,
          "time": 16.291391,
          "velocity": 0.5196850393700787
        },
        {
          "duration": 0.5894039833333338,
          "durationTicks": 712,
          "midi": 71,
          "name": "B4",
          "ticks": 19680,
          "time": 16.291391,
          "velocity": 0.6220472440944882
        },
        {
          "duration": 0.19867550000000023,
          "durationTicks": 240,
          "midi": 55,
          "name": "G3",
          "ticks": 19920,
          "time": 16.4900665,
          "velocity": 1
        },
        {
          "duration": 0.17549669166666604,
          "durationTicks": 212,
          "midi": 59,
          "name": "B3",
          "ticks": 19920,
          "time": 16.4900665,
          "velocity": 0.5196850393700787
        },
        {
          "duration": 0.19867550000000023,
          "durationTicks": 240,
          "midi": 62,
          "name": "D4",
          "ticks": 19920,
          "time": 16.4900665,
          "velocity": 0.6220472440944882
        },
        {
          "duration": 0.39072848333333354,
          "durationTicks": 472,
          "midi": 62,
          "name": "D4",
          "ticks": 19920,
          "time": 16.4900665,
          "velocity": 0.4566929133858268
        },
        {
          "duration": 0.19867550000000023,
          "durationTicks": 240,
          "midi": 67,
          "name": "G4",
          "ticks": 19920,
          "time": 16.4900665,
          "velocity": 0.5196850393700787
        },
        {
          "duration": 0.19867550000000023,
          "durationTicks": 240,
          "midi": 57,
          "name": "A3",
          "ticks": 20160,
          "time": 16.688742,
          "velocity": 0.5196850393700787
        },
        {
          "duration": 0.39072848333333354,
          "durationTicks": 472,
          "midi": 57,
          "name": "A3",
          "ticks": 20160,
          "time": 16.688742,
          "velocity": 1
        },
        {
          "duration": 0.39072848333333354,
          "durationTicks": 472,
          "midi": 57,
          "name": "A3",
          "ticks": 20160,
          "time": 16.688742,
          "velocity": 0.4566929133858268
        },
        {
          "duration": 0.20860927499999704,
          "durationTicks": 252,
          "midi": 66,
          "name": "F#4",
          "ticks": 20160,
          "time": 16.688742,
          "velocity": 0.5196850393700787
        },
        {
          "duration": 0.17549669166666604,
          "durationTicks": 212,
          "midi": 69,
          "name": "A4",
          "ticks": 20160,
          "time": 16.688742,
          "velocity": 1
        },
        {
          "duration": 0.19867550000000023,
          "durationTicks": 240,
          "midi": 62,
          "name": "D4",
          "ticks": 20400,
          "time": 16.8874175,
          "velocity": 0.4566929133858268
        },
        {
          "duration": 0.17549669166666604,
          "durationTicks": 212,
          "midi": 66,
          "name": "F#4",
          "ticks": 20400,
          "time": 16.8874175,
          "velocity": 0.6220472440944882
        },
        {
          "duration": 0.009933774999996814,
          "durationTicks": 12,
          "midi": 69,
          "name": "A4",
          "ticks": 20400,
          "time": 16.8874175,
          "velocity": 0.6220472440944882
        },
        {
          "duration": 0.17549669166666604,
          "durationTicks": 212,
          "midi": 69,
          "name": "A4",
          "ticks": 20400,
          "time": 16.8874175,
          "velocity": 1
        },
        {
          "duration": 0.009933774999996814,
          "durationTicks": 12,
          "midi": 57,
          "name": "A3",
          "ticks": 20640,
          "time": 17.086093,
          "velocity": 0.5196850393700787
        },
        {
          "duration": 0.37417219166666627,
          "durationTicks": 452,
          "midi": 57,
          "name": "A3",
          "ticks": 20640,
          "time": 17.086093,
          "velocity": 1
        },
        {
          "duration": 0.009933774999996814,
          "durationTicks": 12,
          "midi": 66,
          "name": "F#4",
          "ticks": 20640,
          "time": 17.086093,
          "velocity": 0.6220472440944882
        },
        {
          "duration": 0.19867550000000023,
          "durationTicks": 240,
          "midi": 66,
          "name": "F#4",
          "ticks": 20640,
          "time": 17.086093,
          "velocity": 0.4566929133858268
        },
        {
          "duration": 0.3973509999999969,
          "durationTicks": 480,
          "midi": 66,
          "name": "F#4",
          "ticks": 20640,
          "time": 17.086093,
          "velocity": 0.5196850393700787
        },
        {
          "duration": 0.19867550000000023,
          "durationTicks": 240,
          "midi": 69,
          "name": "A4",
          "ticks": 20640,
          "time": 17.086093,
          "velocity": 0.6220472440944882
        },
        {
          "duration": 0.3973509999999969,
          "durationTicks": 480,
          "midi": 69,
          "name": "A4",
          "ticks": 20640,
          "time": 17.086093,
          "velocity": 1
        },
        {
          "duration": 0.21523179166666395,
          "durationTicks": 260,
          "midi": 57,
          "name": "A3",
          "ticks": 20880,
          "time": 17.284768500000002,
          "velocity": 0.5196850393700787
        },
        {
          "duration": 0.21523179166666395,
          "durationTicks": 260,
          "midi": 66,
          "name": "F#4",
          "ticks": 20880,
          "time": 17.284768500000002,
          "velocity": 0.5196850393700787
        },
        {
          "duration": 0.19867549999999667,
          "durationTicks": 240,
          "midi": 67,
          "name": "G4",
          "ticks": 20880,
          "time": 17.284768500000002,
          "velocity": 1
        },
        {
          "duration": 0.39072848333333354,
          "durationTicks": 472,
          "midi": 69,
          "name": "A4",
          "ticks": 20880,
          "time": 17.284768500000002,
          "velocity": 0.4566929133858268
        },
        {
          "duration": 0.19867550000000023,
          "durationTicks": 240,
          "midi": 57,
          "name": "A3",
          "ticks": 21120,
          "time": 17.483444,
          "velocity": 0.5196850393700787
        },
        {
          "duration": 0.19205298333333687,
          "durationTicks": 232,
          "midi": 66,
          "name": "F#4",
          "ticks": 21120,
          "time": 17.483444,
          "velocity": 0.5196850393700787
        },
        {
          "duration": 0.2086092750000006,
          "durationTicks": 252,
          "midi": 69,
          "name": "A4",
          "ticks": 21120,
          "time": 17.483444,
          "velocity": 1
        },
        {
          "duration": 0.19867550000000023,
          "durationTicks": 240,
          "midi": 74,
          "name": "D5",
          "ticks": 21120,
          "time": 17.483444,
          "velocity": 0.4566929133858268
        },
        {
          "duration": 0.19867550000000023,
          "durationTicks": 240,
          "midi": 52,
          "name": "E3",
          "ticks": 21360,
          "time": 17.6821195,
          "velocity": 1
        },
        {
          "duration": 0.1754966916666696,
          "durationTicks": 212,
          "midi": 57,
          "name": "A3",
          "ticks": 21360,
          "time": 17.6821195,
          "velocity": 0.5196850393700787
        },
        {
          "duration": 0.009933775000000367,
          "durationTicks": 12,
          "midi": 66,
          "name": "F#4",
          "ticks": 21360,
          "time": 17.6821195,
          "velocity": 0.5196850393700787
        },
        {
          "duration": 0.2086092750000006,
          "durationTicks": 252,
          "midi": 66,
          "name": "F#4",
          "ticks": 21360,
          "time": 17.6821195,
          "velocity": 0.6220472440944882
        },
        {
          "duration": 0.19867550000000023,
          "durationTicks": 240,
          "midi": 69,
          "name": "A4",
          "ticks": 21360,
          "time": 17.6821195,
          "velocity": 0.6220472440944882
        },
        {
          "duration": 0.19867550000000023,
          "durationTicks": 240,
          "midi": 69,
          "name": "A4",
          "ticks": 21360,
          "time": 17.6821195,
          "velocity": 0.4566929133858268
        },
        {
          "duration": 0.19867550000000023,
          "durationTicks": 240,
          "midi": 55,
          "name": "G3",
          "ticks": 21600,
          "time": 17.880795,
          "velocity": 1
        },
        {
          "duration": 0.39072848333333354,
          "durationTicks": 472,
          "midi": 57,
          "name": "A3",
          "ticks": 21600,
          "time": 17.880795,
          "velocity": 0.5196850393700787
        },
        {
          "duration": 0.19867550000000023,
          "durationTicks": 240,
          "midi": 66,
          "name": "F#4",
          "ticks": 21600,
          "time": 17.880795,
          "velocity": 0.6220472440944882
        },
        {
          "duration": 0.19867550000000023,
          "durationTicks": 240,
          "midi": 66,
          "name": "F#4",
          "ticks": 21600,
          "time": 17.880795,
          "velocity": 0.4566929133858268
        },
        {
          "duration": 0.3741721916666698,
          "durationTicks": 452,
          "midi": 66,
          "name": "F#4",
          "ticks": 21600,
          "time": 17.880795,
          "velocity": 0.5196850393700787
        },
        {
          "duration": 0.5894039833333338,
          "durationTicks": 712,
          "midi": 69,
          "name": "A4",
          "ticks": 21600,
          "time": 17.880795,
          "velocity": 0.6220472440944882
        },
        {
          "duration": 0.19867550000000023,
          "durationTicks": 240,
          "midi": 74,
          "name": "D5",
          "ticks": 21600,
          "time": 17.880795,
          "velocity": 1
        },
        {
          "duration": 0.19867550000000023,
          "durationTicks": 240,
          "midi": 52,
          "name": "E3",
          "ticks": 21840,
          "time": 18.0794705,
          "velocity": 1
        },
        {
          "duration": 0.19867550000000023,
          "durationTicks": 240,
          "midi": 62,
          "name": "D4",
          "ticks": 21840,
          "time": 18.0794705,
          "velocity": 0.6220472440944882
        },
        {
          "duration": 0.39072848333333354,
          "durationTicks": 472,
          "midi": 62,
          "name": "D4",
          "ticks": 21840,
          "time": 18.0794705,
          "velocity": 0.4566929133858268
        },
        {
          "duration": 0.19205298333333332,
          "durationTicks": 232,
          "midi": 71,
          "name": "B4",
          "ticks": 21840,
          "time": 18.0794705,
          "velocity": 1
        },
        {
          "duration": 0.19867550000000023,
          "durationTicks": 240,
          "midi": 55,
          "name": "G3",
          "ticks": 22080,
          "time": 18.278146,
          "velocity": 1
        },
        {
          "duration": 0.033112583333334555,
          "durationTicks": 40,
          "midi": 59,
          "name": "B3",
          "ticks": 22080,
          "time": 18.278146,
          "velocity": 0.5196850393700787
        },
        {
          "duration": 0.19867550000000023,
          "durationTicks": 240,
          "midi": 59,
          "name": "B3",
          "ticks": 22080,
          "time": 18.278146,
          "velocity": 0.4566929133858268
        },
        {
          "duration": 0.009933775000000367,
          "durationTicks": 12,
          "midi": 67,
          "name": "G4",
          "ticks": 22080,
          "time": 18.278146,
          "velocity": 0.5196850393700787
        },
        {
          "duration": 0.2086092750000006,
          "durationTicks": 252,
          "midi": 71,
          "name": "B4",
          "ticks": 22080,
          "time": 18.278146,
          "velocity": 1
        },
        {
          "duration": 0.19867550000000023,
          "durationTicks": 240,
          "midi": 50,
          "name": "D3",
          "ticks": 22320,
          "time": 18.4768215,
          "velocity": 1
        },
        {
          "duration": 0.1754966916666696,
          "durationTicks": 212,
          "midi": 59,
          "name": "B3",
          "ticks": 22320,
          "time": 18.4768215,
          "velocity": 0.5196850393700787
        },
        {
          "duration": 0.19867550000000023,
          "durationTicks": 240,
          "midi": 62,
          "name": "D4",
          "ticks": 22320,
          "time": 18.4768215,
          "velocity": 0.4566929133858268
        },
        {
          "duration": 0.009933775000000367,
          "durationTicks": 12,
          "midi": 67,
          "name": "G4",
          "ticks": 22320,
          "time": 18.4768215,
          "velocity": 0.5196850393700787
        },
        {
          "duration": 0.19867550000000023,
          "durationTicks": 240,
          "midi": 67,
          "name": "G4",
          "ticks": 22320,
          "time": 18.4768215,
          "velocity": 0.6220472440944882
        },
        {
          "duration": 0.08278145833333639,
          "durationTicks": 100,
          "midi": 71,
          "name": "B4",
          "ticks": 22320,
          "time": 18.4768215,
          "velocity": 0.6220472440944882
        },
        {
          "duration": 0.5960265000000007,
          "durationTicks": 720,
          "midi": 55,
          "name": "G3",
          "ticks": 22560,
          "time": 18.675497,
          "velocity": 1
        },
        {
          "duration": 0.026490066666667644,
          "durationTicks": 32,
          "midi": 59,
          "name": "B3",
          "ticks": 22560,
          "time": 18.675497,
          "velocity": 0.5196850393700787
        },
        {
          "duration": 0.026490066666667644,
          "durationTicks": 32,
          "midi": 67,
          "name": "G4",
          "ticks": 22560,
          "time": 18.675497,
          "velocity": 0.6220472440944882
        },
        {
          "duration": 0.19867550000000023,
          "durationTicks": 240,
          "midi": 67,
          "name": "G4",
          "ticks": 22560,
          "time": 18.675497,
          "velocity": 0.4566929133858268
        },
        {
          "duration": 0.5894039833333338,
          "durationTicks": 712,
          "midi": 67,
          "name": "G4",
          "ticks": 22560,
          "time": 18.675497,
          "velocity": 0.5196850393700787
        },
        {
          "duration": 0.5894039833333338,
          "durationTicks": 712,
          "midi": 71,
          "name": "B4",
          "ticks": 22560,
          "time": 18.675497,
          "velocity": 0.6220472440944882
        },
        {
          "duration": 0.39072848333333354,
          "durationTicks": 472,
          "midi": 59,
          "name": "B3",
          "ticks": 23040,
          "time": 19.072848,
          "velocity": 0.5196850393700787
        },
        {
          "duration": 0.2086092750000006,
          "durationTicks": 252,
          "midi": 67,
          "name": "G4",
          "ticks": 23040,
          "time": 19.072848,
          "velocity": 0.5196850393700787
        },
        {
          "duration": 0.2086092750000006,
          "durationTicks": 252,
          "midi": 71,
          "name": "B4",
          "ticks": 23040,
          "time": 19.072848,
          "velocity": 1
        },
        {
          "duration": 0.19867550000000023,
          "durationTicks": 240,
          "midi": 74,
          "name": "D5",
          "ticks": 23040,
          "time": 19.072848,
          "velocity": 0.4566929133858268
        },
        {
          "duration": 0.19867550000000023,
          "durationTicks": 240,
          "midi": 57,
          "name": "A3",
          "ticks": 23280,
          "time": 19.2715235,
          "velocity": 1
        },
        {
          "duration": 0.17549669166666604,
          "durationTicks": 212,
          "midi": 67,
          "name": "G4",
          "ticks": 23280,
          "time": 19.2715235,
          "velocity": 0.6220472440944882
        },
        {
          "duration": 0.19867550000000023,
          "durationTicks": 240,
          "midi": 71,
          "name": "B4",
          "ticks": 23280,
          "time": 19.2715235,
          "velocity": 0.6220472440944882
        },
        {
          "duration": 0.19867550000000023,
          "durationTicks": 240,
          "midi": 71,
          "name": "B4",
          "ticks": 23280,
          "time": 19.2715235,
          "velocity": 0.4566929133858268
        },
        {
          "duration": 0.19867550000000023,
          "durationTicks": 240,
          "midi": 55,
          "name": "G3",
          "ticks": 23520,
          "time": 19.470199,
          "velocity": 1
        },
        {
          "duration": 0.016556291666663725,
          "durationTicks": 20,
          "midi": 59,
          "name": "B3",
          "ticks": 23520,
          "time": 19.470199,
          "velocity": 0.5196850393700787
        },
        {
          "duration": 0.04304635833333492,
          "durationTicks": 52,
          "midi": 67,
          "name": "G4",
          "ticks": 23520,
          "time": 19.470199,
          "velocity": 0.6220472440944882
        },
        {
          "duration": 0.19867550000000023,
          "durationTicks": 240,
          "midi": 67,
          "name": "G4",
          "ticks": 23520,
          "time": 19.470199,
          "velocity": 0.4566929133858268
        },
        {
          "duration": 0.19867550000000023,
          "durationTicks": 240,
          "midi": 67,
          "name": "G4",
          "ticks": 23520,
          "time": 19.470199,
          "velocity": 0.5196850393700787
        },
        {
          "duration": 0.5894039833333338,
          "durationTicks": 712,
          "midi": 71,
          "name": "B4",
          "ticks": 23520,
          "time": 19.470199,
          "velocity": 0.6220472440944882
        },
        {
          "duration": 0.3807947083333332,
          "durationTicks": 460,
          "midi": 74,
          "name": "D5",
          "ticks": 23520,
          "time": 19.470199,
          "velocity": 1
        },
        {
          "duration": 0.19867550000000023,
          "durationTicks": 240,
          "midi": 50,
          "name": "D3",
          "ticks": 23760,
          "time": 19.6688745,
          "velocity": 1
        },
        {
          "duration": 0.17549669166666604,
          "durationTicks": 212,
          "midi": 59,
          "name": "B3",
          "ticks": 23760,
          "time": 19.6688745,
          "velocity": 0.5196850393700787
        },
        {
          "duration": 0.19867550000000023,
          "durationTicks": 240,
          "midi": 62,
          "name": "D4",
          "ticks": 23760,
          "time": 19.6688745,
          "velocity": 0.6220472440944882
        },
        {
          "duration": 0.39072848333333354,
          "durationTicks": 472,
          "midi": 62,
          "name": "D4",
          "ticks": 23760,
          "time": 19.6688745,
          "velocity": 0.4566929133858268
        },
        {
          "duration": 0.19867550000000023,
          "durationTicks": 240,
          "midi": 67,
          "name": "G4",
          "ticks": 23760,
          "time": 19.6688745,
          "velocity": 0.5196850393700787
        },
        {
          "duration": 0.39735100000000045,
          "durationTicks": 480,
          "midi": 48,
          "name": "C3",
          "ticks": 24000,
          "time": 19.86755,
          "velocity": 1
        },
        {
          "duration": 0.19867550000000023,
          "durationTicks": 240,
          "midi": 60,
          "name": "C4",
          "ticks": 24000,
          "time": 19.86755,
          "velocity": 0.5196850393700787
        },
        {
          "duration": 0.39072848333333354,
          "durationTicks": 472,
          "midi": 60,
          "name": "C4",
          "ticks": 24000,
          "time": 19.86755,
          "velocity": 0.4566929133858268
        },
        {
          "duration": 0.37417219166666627,
          "durationTicks": 452,
          "midi": 67,
          "name": "G4",
          "ticks": 24000,
          "time": 19.86755,
          "velocity": 0.5196850393700787
        },
        {
          "duration": 0.17549669166666604,
          "durationTicks": 212,
          "midi": 79,
          "name": "G5",
          "ticks": 24000,
          "time": 19.86755,
          "velocity": 1
        },
        {
          "duration": 0.009933774999996814,
          "durationTicks": 12,
          "midi": 64,
          "name": "E4",
          "ticks": 24240,
          "time": 20.0662255,
          "velocity": 0.4566929133858268
        },
        {
          "duration": 0.19867550000000023,
          "durationTicks": 240,
          "midi": 64,
          "name": "E4",
          "ticks": 24240,
          "time": 20.0662255,
          "velocity": 0.6220472440944882
        },
        {
          "duration": 0.009933774999996814,
          "durationTicks": 12,
          "midi": 72,
          "name": "C5",
          "ticks": 24240,
          "time": 20.0662255,
          "velocity": 0.6220472440944882
        },
        {
          "duration": 0.17549669166666604,
          "durationTicks": 212,
          "midi": 79,
          "name": "G5",
          "ticks": 24240,
          "time": 20.0662255,
          "velocity": 1
        },
        {
          "duration": 0.009933774999996814,
          "durationTicks": 12,
          "midi": 60,
          "name": "C4",
          "ticks": 24480,
          "time": 20.264901000000002,
          "velocity": 0.5196850393700787
        },
        {
          "duration": 0.37417219166666627,
          "durationTicks": 452,
          "midi": 60,
          "name": "C4",
          "ticks": 24480,
          "time": 20.264901000000002,
          "velocity": 1
        },
        {
          "duration": 0.5894039833333338,
          "durationTicks": 712,
          "midi": 64,
          "name": "E4",
          "ticks": 24480,
          "time": 20.264901000000002,
          "velocity": 0.6220472440944882
        },
        {
          "duration": 0.009933774999996814,
          "durationTicks": 12,
          "midi": 67,
          "name": "G4",
          "ticks": 24480,
          "time": 20.264901000000002,
          "velocity": 0.4566929133858268
        },
        {
          "duration": 0.19867550000000023,
          "durationTicks": 240,
          "midi": 67,
          "name": "G4",
          "ticks": 24480,
          "time": 20.264901000000002,
          "velocity": 0.5196850393700787
        },
        {
          "duration": 0.39735100000000045,
          "durationTicks": 480,
          "midi": 72,
          "name": "C5",
          "ticks": 24480,
          "time": 20.264901000000002,
          "velocity": 0.6220472440944882
        },
        {
          "duration": 0.17549669166666604,
          "durationTicks": 212,
          "midi": 79,
          "name": "G5",
          "ticks": 24480,
          "time": 20.264901000000002,
          "velocity": 1
        },
        {
          "duration": 0.19867550000000023,
          "durationTicks": 240,
          "midi": 60,
          "name": "C4",
          "ticks": 24720,
          "time": 20.463576500000002,
          "velocity": 0.5196850393700787
        },
        {
          "duration": 0.19867550000000023,
          "durationTicks": 240,
          "midi": 67,
          "name": "G4",
          "ticks": 24720,
          "time": 20.463576500000002,
          "velocity": 0.5196850393700787
        },
        {
          "duration": 0.39072848333333354,
          "durationTicks": 472,
          "midi": 72,
          "name": "C5",
          "ticks": 24720,
          "time": 20.463576500000002,
          "velocity": 0.4566929133858268
        },
        {
          "duration": 0.16556291666666567,
          "durationTicks": 200,
          "midi": 79,
          "name": "G5",
          "ticks": 24720,
          "time": 20.463576500000002,
          "velocity": 1
        },
        {
          "duration": 0.19867549999999667,
          "durationTicks": 240,
          "midi": 48,
          "name": "C3",
          "ticks": 24960,
          "time": 20.662252000000002,
          "velocity": 1
        },
        {
          "duration": 0.016556291666663725,
          "durationTicks": 20,
          "midi": 60,
          "name": "C4",
          "ticks": 24960,
          "time": 20.662252000000002,
          "velocity": 0.5196850393700787
        },
        {
          "duration": 0.016556291666663725,
          "durationTicks": 20,
          "midi": 67,
          "name": "G4",
          "ticks": 24960,
          "time": 20.662252000000002,
          "velocity": 0.5196850393700787
        },
        {
          "duration": 0.19867549999999667,
          "durationTicks": 240,
          "midi": 76,
          "name": "E5",
          "ticks": 24960,
          "time": 20.662252000000002,
          "velocity": 0.4566929133858268
        },
        {
          "duration": 0.19867549999999667,
          "durationTicks": 240,
          "midi": 79,
          "name": "G5",
          "ticks": 24960,
          "time": 20.662252000000002,
          "velocity": 1
        },
        {
          "duration": 0.19867550000000023,
          "durationTicks": 240,
          "midi": 52,
          "name": "E3",
          "ticks": 25200,
          "time": 20.8609275,
          "velocity": 1
        },
        {
          "duration": 0.1754966916666696,
          "durationTicks": 212,
          "midi": 60,
          "name": "C4",
          "ticks": 25200,
          "time": 20.8609275,
          "velocity": 0.5196850393700787
        },
        {
          "duration": 0.009933775000000367,
          "durationTicks": 12,
          "midi": 64,
          "name": "E4",
          "ticks": 25200,
          "time": 20.8609275,
          "velocity": 0.6220472440944882
        },
        {
          "duration": 0.2086092750000006,
          "durationTicks": 252,
          "midi": 67,
          "name": "G4",
          "ticks": 25200,
          "time": 20.8609275,
          "velocity": 0.5196850393700787
        },
        {
          "duration": 0.009933775000000367,
          "durationTicks": 12,
          "midi": 72,
          "name": "C5",
          "ticks": 25200,
          "time": 20.8609275,
          "velocity": 0.6220472440944882
        },
        {
          "duration": 0.19867550000000023,
          "durationTicks": 240,
          "midi": 72,
          "name": "C5",
          "ticks": 25200,
          "time": 20.8609275,
          "velocity": 0.4566929133858268
        },
        {
          "duration": 0.19205298333333687,
          "durationTicks": 232,
          "midi": 76,
          "name": "E5",
          "ticks": 25200,
          "time": 20.8609275,
          "velocity": 1
        },
        {
          "duration": 0.19867550000000023,
          "durationTicks": 240,
          "midi": 57,
          "name": "A3",
          "ticks": 25440,
          "time": 21.059603,
          "velocity": 1
        },
        {
          "duration": 0.39072848333333354,
          "durationTicks": 472,
          "midi": 60,
          "name": "C4",
          "ticks": 25440,
          "time": 21.059603,
          "velocity": 0.5196850393700787
        },
        {
          "duration": 0.19867550000000023,
          "durationTicks": 240,
          "midi": 64,
          "name": "E4",
          "ticks": 25440,
          "time": 21.059603,
          "velocity": 0.6220472440944882
        },
        {
          "duration": 0.19867550000000023,
          "durationTicks": 240,
          "midi": 67,
          "name": "G4",
          "ticks": 25440,
          "time": 21.059603,
          "velocity": 0.4566929133858268
        },
        {
          "duration": 0.3741721916666698,
          "durationTicks": 452,
          "midi": 67,
          "name": "G4",
          "ticks": 25440,
          "time": 21.059603,
          "velocity": 0.5196850393700787
        },
        {
          "duration": 0.5894039833333338,
          "durationTicks": 712,
          "midi": 72,
          "name": "C5",
          "ticks": 25440,
          "time": 21.059603,
          "velocity": 0.6220472440944882
        },
        {
          "duration": 0.19867550000000023,
          "durationTicks": 240,
          "midi": 76,
          "name": "E5",
          "ticks": 25440,
          "time": 21.059603,
          "velocity": 1
        },
        {
          "duration": 0.19205298333333332,
          "durationTicks": 232,
          "midi": 55,
          "name": "G3",
          "ticks": 25680,
          "time": 21.2582785,
          "velocity": 1
        },
        {
          "duration": 0.39072848333333354,
          "durationTicks": 472,
          "midi": 62,
          "name": "D4",
          "ticks": 25680,
          "time": 21.2582785,
          "velocity": 0.6220472440944882
        },
        {
          "duration": 0.19867550000000023,
          "durationTicks": 240,
          "midi": 64,
          "name": "E4",
          "ticks": 25680,
          "time": 21.2582785,
          "velocity": 0.4566929133858268
        },
        {
          "duration": 0.1589404000000023,
          "durationTicks": 192,
          "midi": 74,
          "name": "D5",
          "ticks": 25680,
          "time": 21.2582785,
          "velocity": 1
        },
        {
          "duration": 0.19867550000000023,
          "durationTicks": 240,
          "midi": 55,
          "name": "G3",
          "ticks": 25920,
          "time": 21.456954,
          "velocity": 1
        },
        {
          "duration": 0.033112583333334555,
          "durationTicks": 40,
          "midi": 59,
          "name": "B3",
          "ticks": 25920,
          "time": 21.456954,
          "velocity": 0.5196850393700787
        },
        {
          "duration": 0.19867550000000023,
          "durationTicks": 240,
          "midi": 59,
          "name": "B3",
          "ticks": 25920,
          "time": 21.456954,
          "velocity": 0.4566929133858268
        },
        {
          "duration": 0.009933775000000367,
          "durationTicks": 12,
          "midi": 67,
          "name": "G4",
          "ticks": 25920,
          "time": 21.456954,
          "velocity": 0.5196850393700787
        },
        {
          "duration": 0.16556291666666567,
          "durationTicks": 200,
          "midi": 74,
          "name": "D5",
          "ticks": 25920,
          "time": 21.456954,
          "velocity": 1
        },
        {
          "duration": 0.19867550000000023,
          "durationTicks": 240,
          "midi": 50,
          "name": "D3",
          "ticks": 26160,
          "time": 21.6556295,
          "velocity": 1
        },
        {
          "duration": 0.1754966916666696,
          "durationTicks": 212,
          "midi": 59,
          "name": "B3",
          "ticks": 26160,
          "time": 21.6556295,
          "velocity": 0.5196850393700787
        },
        {
          "duration": 0.19867550000000023,
          "durationTicks": 240,
          "midi": 62,
          "name": "D4",
          "ticks": 26160,
          "time": 21.6556295,
          "velocity": 0.4566929133858268
        },
        {
          "duration": 0.009933775000000367,
          "durationTicks": 12,
          "midi": 67,
          "name": "G4",
          "ticks": 26160,
          "time": 21.6556295,
          "velocity": 0.5196850393700787
        },
        {
          "duration": 0.19867550000000023,
          "durationTicks": 240,
          "midi": 67,
          "name": "G4",
          "ticks": 26160,
          "time": 21.6556295,
          "velocity": 0.6220472440944882
        },
        {
          "duration": 0.009933775000000367,
          "durationTicks": 12,
          "midi": 71,
          "name": "B4",
          "ticks": 26160,
          "time": 21.6556295,
          "velocity": 0.6220472440944882
        },
        {
          "duration": 0.1754966916666696,
          "durationTicks": 212,
          "midi": 74,
          "name": "D5",
          "ticks": 26160,
          "time": 21.6556295,
          "velocity": 1
        },
        {
          "duration": 0.5960265000000007,
          "durationTicks": 720,
          "midi": 55,
          "name": "G3",
          "ticks": 26400,
          "time": 21.854305,
          "velocity": 1
        },
        {
          "duration": 0.026490066666667644,
          "durationTicks": 32,
          "midi": 59,
          "name": "B3",
          "ticks": 26400,
          "time": 21.854305,
          "velocity": 0.5196850393700787
        },
        {
          "duration": 0.026490066666667644,
          "durationTicks": 32,
          "midi": 67,
          "name": "G4",
          "ticks": 26400,
          "time": 21.854305,
          "velocity": 0.6220472440944882
        },
        {
          "duration": 0.19867550000000023,
          "durationTicks": 240,
          "midi": 67,
          "name": "G4",
          "ticks": 26400,
          "time": 21.854305,
          "velocity": 0.4566929133858268
        },
        {
          "duration": 0.39735100000000045,
          "durationTicks": 480,
          "midi": 67,
          "name": "G4",
          "ticks": 26400,
          "time": 21.854305,
          "velocity": 0.5196850393700787
        },
        {
          "duration": 0.39735100000000045,
          "durationTicks": 480,
          "midi": 71,
          "name": "B4",
          "ticks": 26400,
          "time": 21.854305,
          "velocity": 0.6220472440944882
        },
        {
          "duration": 0.1754966916666696,
          "durationTicks": 212,
          "midi": 74,
          "name": "D5",
          "ticks": 26400,
          "time": 21.854305,
          "velocity": 1
        },
        {
          "duration": 0.1754966916666696,
          "durationTicks": 212,
          "midi": 59,
          "name": "B3",
          "ticks": 26640,
          "time": 22.0529805,
          "velocity": 0.5196850393700787
        },
        {
          "duration": 0.39072848333333354,
          "durationTicks": 472,
          "midi": 67,
          "name": "G4",
          "ticks": 26640,
          "time": 22.0529805,
          "velocity": 0.5196850393700787
        },
        {
          "duration": 0.39072848333333354,
          "durationTicks": 472,
          "midi": 71,
          "name": "B4",
          "ticks": 26640,
          "time": 22.0529805,
          "velocity": 0.4566929133858268
        },
        {
          "duration": 0.16556291666666567,
          "durationTicks": 200,
          "midi": 74,
          "name": "D5",
          "ticks": 26640,
          "time": 22.0529805,
          "velocity": 1
        },
        {
          "duration": 0.39072848333333354,
          "durationTicks": 472,
          "midi": 59,
          "name": "B3",
          "ticks": 26880,
          "time": 22.251656,
          "velocity": 0.5196850393700787
        },
        {
          "duration": 0.2086092750000006,
          "durationTicks": 252,
          "midi": 67,
          "name": "G4",
          "ticks": 26880,
          "time": 22.251656,
          "velocity": 0.5196850393700787
        },
        {
          "duration": 0.19867550000000023,
          "durationTicks": 240,
          "midi": 74,
          "name": "D5",
          "ticks": 26880,
          "time": 22.251656,
          "velocity": 1
        },
        {
          "duration": 0.19867550000000023,
          "durationTicks": 240,
          "midi": 74,
          "name": "D5",
          "ticks": 26880,
          "time": 22.251656,
          "velocity": 0.4566929133858268
        },
        {
          "duration": 0.19867550000000023,
          "durationTicks": 240,
          "midi": 50,
          "name": "D3",
          "ticks": 27120,
          "time": 22.4503315,
          "velocity": 1
        },
        {
          "duration": 0.17549669166666604,
          "durationTicks": 212,
          "midi": 67,
          "name": "G4",
          "ticks": 27120,
          "time": 22.4503315,
          "velocity": 1
        },
        {
          "duration": 0.19205298333333332,
          "durationTicks": 232,
          "midi": 67,
          "name": "G4",
          "ticks": 27120,
          "time": 22.4503315,
          "velocity": 0.6220472440944882
        },
        {
          "duration": 0.009933775000000367,
          "durationTicks": 12,
          "midi": 71,
          "name": "B4",
          "ticks": 27120,
          "time": 22.4503315,
          "velocity": 0.6220472440944882
        },
        {
          "duration": 0.19867550000000023,
          "durationTicks": 240,
          "midi": 71,
          "name": "B4",
          "ticks": 27120,
          "time": 22.4503315,
          "velocity": 0.4566929133858268
        },
        {
          "duration": 0.19867550000000023,
          "durationTicks": 240,
          "midi": 55,
          "name": "G3",
          "ticks": 27360,
          "time": 22.649007,
          "velocity": 1
        },
        {
          "duration": 0.016556291666663725,
          "durationTicks": 20,
          "midi": 59,
          "name": "B3",
          "ticks": 27360,
          "time": 22.649007,
          "velocity": 0.5196850393700787
        },
        {
          "duration": 0.04304635833333492,
          "durationTicks": 52,
          "midi": 67,
          "name": "G4",
          "ticks": 27360,
          "time": 22.649007,
          "velocity": 0.6220472440944882
        },
        {
          "duration": 0.19867550000000023,
          "durationTicks": 240,
          "midi": 67,
          "name": "G4",
          "ticks": 27360,
          "time": 22.649007,
          "velocity": 1
        },
        {
          "duration": 0.19867550000000023,
          "durationTicks": 240,
          "midi": 67,
          "name": "G4",
          "ticks": 27360,
          "time": 22.649007,
          "velocity": 0.4566929133858268
        },
        {
          "duration": 0.2483443749999985,
          "durationTicks": 300,
          "midi": 67,
          "name": "G4",
          "ticks": 27360,
          "time": 22.649007,
          "velocity": 0.5196850393700787
        },
        {
          "duration": 0.5894039833333338,
          "durationTicks": 712,
          "midi": 71,
          "name": "B4",
          "ticks": 27360,
          "time": 22.649007,
          "velocity": 0.6220472440944882
        },
        {
          "duration": 0.19867550000000023,
          "durationTicks": 240,
          "midi": 50,
          "name": "D3",
          "ticks": 27600,
          "time": 22.8476825,
          "velocity": 1
        },
        {
          "duration": 0.17549669166666604,
          "durationTicks": 212,
          "midi": 59,
          "name": "B3",
          "ticks": 27600,
          "time": 22.8476825,
          "velocity": 0.5196850393700787
        },
        {
          "duration": 0.19867550000000023,
          "durationTicks": 240,
          "midi": 62,
          "name": "D4",
          "ticks": 27600,
          "time": 22.8476825,
          "velocity": 0.6220472440944882
        },
        {
          "duration": 0.39072848333333354,
          "durationTicks": 472,
          "midi": 62,
          "name": "D4",
          "ticks": 27600,
          "time": 22.8476825,
          "velocity": 0.4566929133858268
        },
        {
          "duration": 0.19867550000000023,
          "durationTicks": 240,
          "midi": 67,
          "name": "G4",
          "ticks": 27600,
          "time": 22.8476825,
          "velocity": 0.5196850393700787
        },
        {
          "duration": 0.19867550000000023,
          "durationTicks": 240,
          "midi": 57,
          "name": "A3",
          "ticks": 27840,
          "time": 23.046358,
          "velocity": 1
        },
        {
          "duration": 0.5960265000000007,
          "durationTicks": 720,
          "midi": 57,
          "name": "A3",
          "ticks": 27840,
          "time": 23.046358,
          "velocity": 0.4566929133858268
        },
        {
          "duration": 0.39072848333333354,
          "durationTicks": 472,
          "midi": 62,
          "name": "D4",
          "ticks": 27840,
          "time": 23.046358,
          "velocity": 0.5196850393700787
        },
        {
          "duration": 0.20860927499999704,
          "durationTicks": 252,
          "midi": 66,
          "name": "F#4",
          "ticks": 27840,
          "time": 23.046358,
          "velocity": 0.5196850393700787
        },
        {
          "duration": 0.16556291666666567,
          "durationTicks": 200,
          "midi": 69,
          "name": "A4",
          "ticks": 27840,
          "time": 23.046358,
          "velocity": 1
        },
        {
          "duration": 0.19867550000000023,
          "durationTicks": 240,
          "midi": 62,
          "name": "D4",
          "ticks": 28080,
          "time": 23.2450335,
          "velocity": 0.4566929133858268
        },
        {
          "duration": 0.17549669166666604,
          "durationTicks": 212,
          "midi": 66,
          "name": "F#4",
          "ticks": 28080,
          "time": 23.2450335,
          "velocity": 0.6220472440944882
        },
        {
          "duration": 0.009933774999996814,
          "durationTicks": 12,
          "midi": 69,
          "name": "A4",
          "ticks": 28080,
          "time": 23.2450335,
          "velocity": 0.6220472440944882
        },
        {
          "duration": 0.16556291666666567,
          "durationTicks": 200,
          "midi": 69,
          "name": "A4",
          "ticks": 28080,
          "time": 23.2450335,
          "velocity": 1
        },
        {
          "duration": 0.009933774999996814,
          "durationTicks": 12,
          "midi": 62,
          "name": "D4",
          "ticks": 28320,
          "time": 23.443709000000002,
          "velocity": 0.5196850393700787
        },
        {
          "duration": 0.009933774999996814,
          "durationTicks": 12,
          "midi": 66,
          "name": "F#4",
          "ticks": 28320,
          "time": 23.443709000000002,
          "velocity": 0.6220472440944882
        },
        {
          "duration": 0.19867550000000023,
          "durationTicks": 240,
          "midi": 66,
          "name": "F#4",
          "ticks": 28320,
          "time": 23.443709000000002,
          "velocity": 0.4566929133858268
        },
        {
          "duration": 0.3973509999999969,
          "durationTicks": 480,
          "midi": 66,
          "name": "F#4",
          "ticks": 28320,
          "time": 23.443709000000002,
          "velocity": 0.5196850393700787
        },
        {
          "duration": 0.19867550000000023,
          "durationTicks": 240,
          "midi": 69,
          "name": "A4",
          "ticks": 28320,
          "time": 23.443709000000002,
          "velocity": 0.6220472440944882
        },
        {
          "duration": 0.3973509999999969,
          "durationTicks": 480,
          "midi": 69,
          "name": "A4",
          "ticks": 28320,
          "time": 23.443709000000002,
          "velocity": 1
        },
        {
          "duration": 0.19867549999999667,
          "durationTicks": 240,
          "midi": 52,
          "name": "E3",
          "ticks": 28560,
          "time": 23.642384500000002,
          "velocity": 1
        },
        {
          "duration": 0.17549669166666604,
          "durationTicks": 212,
          "midi": 62,
          "name": "D4",
          "ticks": 28560,
          "time": 23.642384500000002,
          "velocity": 0.5196850393700787
        },
        {
          "duration": 0.21523179166666395,
          "durationTicks": 260,
          "midi": 66,
          "name": "F#4",
          "ticks": 28560,
          "time": 23.642384500000002,
          "velocity": 0.5196850393700787
        },
        {
          "duration": 0.39072848333333354,
          "durationTicks": 472,
          "midi": 69,
          "name": "A4",
          "ticks": 28560,
          "time": 23.642384500000002,
          "velocity": 0.4566929133858268
        },
        {
          "duration": 0.19867549999999667,
          "durationTicks": 240,
          "midi": 71,
          "name": "B4",
          "ticks": 28560,
          "time": 23.642384500000002,
          "velocity": 1
        },
        {
          "duration": 0.5960265000000007,
          "durationTicks": 720,
          "midi": 50,
          "name": "D3",
          "ticks": 28800,
          "time": 23.84106,
          "velocity": 1
        },
        {
          "duration": 0.016556291666667278,
          "durationTicks": 20,
          "midi": 62,
          "name": "D4",
          "ticks": 28800,
          "time": 23.84106,
          "velocity": 0.5196850393700787
        },
        {
          "duration": 0.19205298333333687,
          "durationTicks": 232,
          "midi": 66,
          "name": "F#4",
          "ticks": 28800,
          "time": 23.84106,
          "velocity": 0.5196850393700787
        },
        {
          "duration": 0.19867550000000023,
          "durationTicks": 240,
          "midi": 69,
          "name": "A4",
          "ticks": 28800,
          "time": 23.84106,
          "velocity": 1
        },
        {
          "duration": 0.19867550000000023,
          "durationTicks": 240,
          "midi": 74,
          "name": "D5",
          "ticks": 28800,
          "time": 23.84106,
          "velocity": 0.4566929133858268
        },
        {
          "duration": 0.1754966916666696,
          "durationTicks": 212,
          "midi": 62,
          "name": "D4",
          "ticks": 29040,
          "time": 24.0397355,
          "velocity": 0.5196850393700787
        },
        {
          "duration": 0.009933775000000367,
          "durationTicks": 12,
          "midi": 66,
          "name": "F#4",
          "ticks": 29040,
          "time": 24.0397355,
          "velocity": 0.5196850393700787
        },
        {
          "duration": 0.2086092750000006,
          "durationTicks": 252,
          "midi": 66,
          "name": "F#4",
          "ticks": 29040,
          "time": 24.0397355,
          "velocity": 0.6220472440944882
        },
        {
          "duration": 0.19867550000000023,
          "durationTicks": 240,
          "midi": 67,
          "name": "G4",
          "ticks": 29040,
          "time": 24.0397355,
          "velocity": 1
        },
        {
          "duration": 0.009933775000000367,
          "durationTicks": 12,
          "midi": 69,
          "name": "A4",
          "ticks": 29040,
          "time": 24.0397355,
          "velocity": 0.6220472440944882
        },
        {
          "duration": 0.19867550000000023,
          "durationTicks": 240,
          "midi": 69,
          "name": "A4",
          "ticks": 29040,
          "time": 24.0397355,
          "velocity": 0.4566929133858268
        },
        {
          "duration": 0.39072848333333354,
          "durationTicks": 472,
          "midi": 62,
          "name": "D4",
          "ticks": 29280,
          "time": 24.238411,
          "velocity": 0.5196850393700787
        },
        {
          "duration": 0.39735100000000045,
          "durationTicks": 480,
          "midi": 64,
          "name": "E4",
          "ticks": 29280,
          "time": 24.238411,
          "velocity": 1
        },
        {
          "duration": 0.19867550000000023,
          "durationTicks": 240,
          "midi": 66,
          "name": "F#4",
          "ticks": 29280,
          "time": 24.238411,
          "velocity": 0.6220472440944882
        },
        {
          "duration": 0.19867550000000023,
          "durationTicks": 240,
          "midi": 66,
          "name": "F#4",
          "ticks": 29280,
          "time": 24.238411,
          "velocity": 0.4566929133858268
        },
        {
          "duration": 0.3741721916666698,
          "durationTicks": 452,
          "midi": 66,
          "name": "F#4",
          "ticks": 29280,
          "time": 24.238411,
          "velocity": 0.5196850393700787
        },
        {
          "duration": 0.5894039833333338,
          "durationTicks": 712,
          "midi": 69,
          "name": "A4",
          "ticks": 29280,
          "time": 24.238411,
          "velocity": 0.6220472440944882
        },
        {
          "duration": 0.19867550000000023,
          "durationTicks": 240,
          "midi": 57,
          "name": "A3",
          "ticks": 29520,
          "time": 24.4370865,
          "velocity": 1
        },
        {
          "duration": 0.19867550000000023,
          "durationTicks": 240,
          "midi": 62,
          "name": "D4",
          "ticks": 29520,
          "time": 24.4370865,
          "velocity": 0.6220472440944882
        },
        {
          "duration": 0.23178808333333478,
          "durationTicks": 280,
          "midi": 62,
          "name": "D4",
          "ticks": 29520,
          "time": 24.4370865,
          "velocity": 0.4566929133858268
        },
        {
          "duration": 0.19867550000000023,
          "durationTicks": 240,
          "midi": 55,
          "name": "G3",
          "ticks": 29760,
          "time": 24.635762,
          "velocity": 1
        },
        {
          "duration": 0.19867550000000023,
          "durationTicks": 240,
          "midi": 59,
          "name": "B3",
          "ticks": 29760,
          "time": 24.635762,
          "velocity": 0.4566929133858268
        },
        {
          "duration": 0.19205298333333332,
          "durationTicks": 232,
          "midi": 62,
          "name": "D4",
          "ticks": 29760,
          "time": 24.635762,
          "velocity": 0.5196850393700787
        },
        {
          "duration": 0.009933775000000367,
          "durationTicks": 12,
          "midi": 67,
          "name": "G4",
          "ticks": 29760,
          "time": 24.635762,
          "velocity": 1
        },
        {
          "duration": 0.2086092750000006,
          "durationTicks": 252,
          "midi": 67,
          "name": "G4",
          "ticks": 29760,
          "time": 24.635762,
          "velocity": 0.5196850393700787
        },
        {
          "duration": 0.19867550000000023,
          "durationTicks": 240,
          "midi": 57,
          "name": "A3",
          "ticks": 30000,
          "time": 24.8344375,
          "velocity": 1
        },
        {
          "duration": 0.1754966916666696,
          "durationTicks": 212,
          "midi": 62,
          "name": "D4",
          "ticks": 30000,
          "time": 24.8344375,
          "velocity": 0.4566929133858268
        },
        {
          "duration": 0.19867550000000023,
          "durationTicks": 240,
          "midi": 62,
          "name": "D4",
          "ticks": 30000,
          "time": 24.8344375,
          "velocity": 0.5196850393700787
        },
        {
          "duration": 0.19867550000000023,
          "durationTicks": 240,
          "midi": 67,
          "name": "G4",
          "ticks": 30000,
          "time": 24.8344375,
          "velocity": 0.5196850393700787
        },
        {
          "duration": 0.22516556666666787,
          "durationTicks": 272,
          "midi": 67,
          "name": "G4",
          "ticks": 30000,
          "time": 24.8344375,
          "velocity": 0.6220472440944882
        },
        {
          "duration": 0.009933775000000367,
          "durationTicks": 12,
          "midi": 71,
          "name": "B4",
          "ticks": 30000,
          "time": 24.8344375,
          "velocity": 0.6220472440944882
        },
        {
          "duration": 0.19867550000000023,
          "durationTicks": 240,
          "midi": 59,
          "name": "B3",
          "ticks": 30240,
          "time": 25.033113,
          "velocity": 1
        },
        {
          "duration": 0.026490066666667644,
          "durationTicks": 32,
          "midi": 62,
          "name": "D4",
          "ticks": 30240,
          "time": 25.033113,
          "velocity": 0.5196850393700787
        },
        {
          "duration": 0.04304635833333492,
          "durationTicks": 52,
          "midi": 67,
          "name": "G4",
          "ticks": 30240,
          "time": 25.033113,
          "velocity": 0.6220472440944882
        },
        {
          "duration": 0.19867550000000023,
          "durationTicks": 240,
          "midi": 67,
          "name": "G4",
          "ticks": 30240,
          "time": 25.033113,
          "velocity": 0.4566929133858268
        },
        {
          "duration": 0.39735100000000045,
          "durationTicks": 480,
          "midi": 67,
          "name": "G4",
          "ticks": 30240,
          "time": 25.033113,
          "velocity": 0.5196850393700787
        },
        {
          "duration": 0.39735100000000045,
          "durationTicks": 480,
          "midi": 71,
          "name": "B4",
          "ticks": 30240,
          "time": 25.033113,
          "velocity": 0.6220472440944882
        },
        {
          "duration": 0.19867550000000023,
          "durationTicks": 240,
          "midi": 57,
          "name": "A3",
          "ticks": 30480,
          "time": 25.2317885,
          "velocity": 1
        },
        {
          "duration": 0.1754966916666696,
          "durationTicks": 212,
          "midi": 62,
          "name": "D4",
          "ticks": 30480,
          "time": 25.2317885,
          "velocity": 0.5196850393700787
        },
        {
          "duration": 0.39072848333333354,
          "durationTicks": 472,
          "midi": 67,
          "name": "G4",
          "ticks": 30480,
          "time": 25.2317885,
          "velocity": 0.5196850393700787
        },
        {
          "duration": 0.39072848333333354,
          "durationTicks": 472,
          "midi": 71,
          "name": "B4",
          "ticks": 30480,
          "time": 25.2317885,
          "velocity": 0.4566929133858268
        }
      ]
    },
  ]
}

const mid9={
  "header": {
    "keySignatures": [
      {
        "key": "C",
        "scale": "major",
        "ticks": 0
      }
    ],
    "meta": [],
    "name": "di da di",
    "ppq": 480,
    "tempos": [
      {
        "bpm": 126.000126000126,
        "ticks": 0
      }
    ],
    "timeSignatures": [
      {
        "ticks": 0,
        "timeSignature": [
          4,
          4
        ],
        "measures": 0
      }
    ]
  },
  "tracks": [
    {
      "channel": 0,
      "controlChanges": {
        "7": [
          {
            "number": 7,
            "ticks": 0,
            "time": 0,
            "value": 0.3937007874015748
          },
          {
            "number": 7,
            "ticks": 0,
            "time": 0,
            "value": 0.7086614173228346
          },
          {
            "number": 7,
            "ticks": 0,
            "time": 0,
            "value": 0.7086614173228346
          },
          {
            "number": 7,
            "ticks": 0,
            "time": 0,
            "value": 1
          },
          {
            "number": 7,
            "ticks": 0,
            "time": 0,
            "value": 1
          },
          {
            "number": 7,
            "ticks": 0,
            "time": 0,
            "value": 0.7086614173228346
          },
          {
            "number": 7,
            "ticks": 30720,
            "time": 30.47616,
            "value": 0.7086614173228346
          }
        ],
        "10": [
          {
            "number": 10,
            "ticks": 0,
            "time": 0,
            "value": 0.2677165354330709
          },
          {
            "number": 10,
            "ticks": 0,
            "time": 0,
            "value": 0.3464566929133858
          },
          {
            "number": 10,
            "ticks": 0,
            "time": 0,
            "value": 0.5039370078740157
          },
          {
            "number": 10,
            "ticks": 0,
            "time": 0,
            "value": 0.5039370078740157
          },
          {
            "number": 10,
            "ticks": 0,
            "time": 0,
            "value": 0.5039370078740157
          },
          {
            "number": 10,
            "ticks": 0,
            "time": 0,
            "value": 0.5039370078740157
          },
          {
            "number": 10,
            "ticks": 30720,
            "time": 30.47616,
            "value": 0.5039370078740157
          }
        ]
      },
      "pitchBends": [
        {
          "ticks": 968,
          "time": 0.9603165,
          "value": -0.546875
        },
        {
          "ticks": 988,
          "time": 0.9801577499999999,
          "value": -0.28125
        },
        {
          "ticks": 1008,
          "time": 0.9999990000000001,
          "value": -0.109375
        },
        {
          "ticks": 1028,
          "time": 1.01984025,
          "value": 0
        },
        {
          "ticks": 2880,
          "time": 2.8571400000000002,
          "value": -0.546875
        },
        {
          "ticks": 2900,
          "time": 2.87698125,
          "value": -0.28125
        },
        {
          "ticks": 2920,
          "time": 2.8968225,
          "value": -0.109375
        },
        {
          "ticks": 2944,
          "time": 2.9206320000000003,
          "value": 0
        },
        {
          "ticks": 3360,
          "time": 3.33333,
          "value": -0.546875
        },
        {
          "ticks": 3380,
          "time": 3.35317125,
          "value": -0.28125
        },
        {
          "ticks": 3400,
          "time": 3.3730124999999997,
          "value": -0.109375
        },
        {
          "ticks": 3424,
          "time": 3.3968220000000002,
          "value": 0
        },
        {
          "ticks": 3840,
          "time": 3.80952,
          "value": -0.546875
        },
        {
          "ticks": 3860,
          "time": 3.82936125,
          "value": -0.28125
        },
        {
          "ticks": 3880,
          "time": 3.8492025,
          "value": -0.109375
        },
        {
          "ticks": 3904,
          "time": 3.8730119999999997,
          "value": 0
        },
        {
          "ticks": 4320,
          "time": 4.28571,
          "value": -0.546875
        },
        {
          "ticks": 4340,
          "time": 4.30555125,
          "value": -0.28125
        },
        {
          "ticks": 4360,
          "time": 4.3253925,
          "value": -0.109375
        },
        {
          "ticks": 4384,
          "time": 4.349202,
          "value": 0
        },
        {
          "ticks": 5760,
          "time": 5.7142800000000005,
          "value": -0.546875
        },
        {
          "ticks": 5780,
          "time": 5.734121249999999,
          "value": -0.28125
        },
        {
          "ticks": 5800,
          "time": 5.7539625,
          "value": -0.109375
        },
        {
          "ticks": 5824,
          "time": 5.777772,
          "value": 0
        },
        {
          "ticks": 6720,
          "time": 6.66666,
          "value": -0.546875
        },
        {
          "ticks": 6740,
          "time": 6.68650125,
          "value": -0.28125
        },
        {
          "ticks": 6760,
          "time": 6.7063425,
          "value": -0.109375
        },
        {
          "ticks": 6784,
          "time": 6.7301519999999995,
          "value": 0
        },
        {
          "ticks": 7200,
          "time": 7.14285,
          "value": -0.546875
        },
        {
          "ticks": 7220,
          "time": 7.16269125,
          "value": -0.28125
        },
        {
          "ticks": 7240,
          "time": 7.182532500000001,
          "value": -0.109375
        },
        {
          "ticks": 7264,
          "time": 7.206342,
          "value": 0
        },
        {
          "ticks": 7680,
          "time": 7.61904,
          "value": -0.546875
        },
        {
          "ticks": 7700,
          "time": 7.638881250000001,
          "value": -0.28125
        },
        {
          "ticks": 7720,
          "time": 7.6587225,
          "value": -0.109375
        },
        {
          "ticks": 7744,
          "time": 7.682532,
          "value": 0
        },
        {
          "ticks": 8160,
          "time": 8.09523,
          "value": -0.546875
        },
        {
          "ticks": 8180,
          "time": 8.11507125,
          "value": -0.28125
        },
        {
          "ticks": 8200,
          "time": 8.134912499999999,
          "value": -0.109375
        },
        {
          "ticks": 8224,
          "time": 8.158722,
          "value": 0
        },
        {
          "ticks": 9600,
          "time": 9.5238,
          "value": -0.546875
        },
        {
          "ticks": 9620,
          "time": 9.54364125,
          "value": -0.28125
        },
        {
          "ticks": 9640,
          "time": 9.5634825,
          "value": -0.109375
        },
        {
          "ticks": 9664,
          "time": 9.587292,
          "value": 0
        },
        {
          "ticks": 10560,
          "time": 10.47618,
          "value": -0.546875
        },
        {
          "ticks": 10580,
          "time": 10.49602125,
          "value": -0.28125
        },
        {
          "ticks": 10600,
          "time": 10.515862499999999,
          "value": -0.109375
        },
        {
          "ticks": 10624,
          "time": 10.539672,
          "value": 0
        },
        {
          "ticks": 11040,
          "time": 10.95237,
          "value": -0.546875
        },
        {
          "ticks": 11060,
          "time": 10.97221125,
          "value": -0.28125
        },
        {
          "ticks": 11080,
          "time": 10.9920525,
          "value": -0.109375
        },
        {
          "ticks": 11104,
          "time": 11.015862,
          "value": 0
        },
        {
          "ticks": 11520,
          "time": 11.428560000000001,
          "value": -0.546875
        },
        {
          "ticks": 11540,
          "time": 11.44840125,
          "value": -0.28125
        },
        {
          "ticks": 11560,
          "time": 11.468242499999999,
          "value": -0.109375
        },
        {
          "ticks": 11584,
          "time": 11.492052,
          "value": 0
        },
        {
          "ticks": 12240,
          "time": 12.142845,
          "value": -0.546875
        },
        {
          "ticks": 12260,
          "time": 12.16268625,
          "value": -0.28125
        },
        {
          "ticks": 12280,
          "time": 12.182527499999999,
          "value": -0.109375
        },
        {
          "ticks": 12304,
          "time": 12.206337,
          "value": 0
        },
        {
          "ticks": 16320,
          "time": 16.19046,
          "value": -0.546875
        },
        {
          "ticks": 16340,
          "time": 16.21030125,
          "value": -0.28125
        },
        {
          "ticks": 16360,
          "time": 16.2301425,
          "value": -0.109375
        },
        {
          "ticks": 16384,
          "time": 16.253951999999998,
          "value": 0
        },
        {
          "ticks": 16800,
          "time": 16.66665,
          "value": -0.546875
        },
        {
          "ticks": 16820,
          "time": 16.68649125,
          "value": -0.28125
        },
        {
          "ticks": 16840,
          "time": 16.706332500000002,
          "value": -0.109375
        },
        {
          "ticks": 16864,
          "time": 16.730142,
          "value": 0
        },
        {
          "ticks": 17760,
          "time": 17.61903,
          "value": -0.546875
        },
        {
          "ticks": 17780,
          "time": 17.638871249999998,
          "value": -0.28125
        },
        {
          "ticks": 17800,
          "time": 17.6587125,
          "value": -0.109375
        },
        {
          "ticks": 17824,
          "time": 17.682522,
          "value": 0
        },
        {
          "ticks": 18240,
          "time": 18.09522,
          "value": -0.546875
        },
        {
          "ticks": 18260,
          "time": 18.11506125,
          "value": -0.28125
        },
        {
          "ticks": 18280,
          "time": 18.134902500000003,
          "value": -0.109375
        },
        {
          "ticks": 18304,
          "time": 18.158712,
          "value": 0
        },
        {
          "ticks": 18720,
          "time": 18.57141,
          "value": -0.546875
        },
        {
          "ticks": 18740,
          "time": 18.59125125,
          "value": -0.28125
        },
        {
          "ticks": 18760,
          "time": 18.6110925,
          "value": -0.109375
        },
        {
          "ticks": 18784,
          "time": 18.634902,
          "value": 0
        },
        {
          "ticks": 19200,
          "time": 19.0476,
          "value": -0.546875
        },
        {
          "ticks": 19220,
          "time": 19.067441249999998,
          "value": -0.28125
        },
        {
          "ticks": 19240,
          "time": 19.0872825,
          "value": -0.109375
        },
        {
          "ticks": 19264,
          "time": 19.111092,
          "value": 0
        },
        {
          "ticks": 19680,
          "time": 19.52379,
          "value": -0.546875
        },
        {
          "ticks": 19700,
          "time": 19.54363125,
          "value": -0.28125
        },
        {
          "ticks": 19720,
          "time": 19.5634725,
          "value": -0.109375
        },
        {
          "ticks": 19744,
          "time": 19.587282,
          "value": 0
        },
        {
          "ticks": 20160,
          "time": 19.99998,
          "value": -0.546875
        },
        {
          "ticks": 20180,
          "time": 20.01982125,
          "value": -0.28125
        },
        {
          "ticks": 20200,
          "time": 20.039662500000002,
          "value": -0.109375
        },
        {
          "ticks": 20224,
          "time": 20.063472,
          "value": 0
        },
        {
          "ticks": 21120,
          "time": 20.95236,
          "value": -0.546875
        },
        {
          "ticks": 21140,
          "time": 20.972201249999998,
          "value": -0.28125
        },
        {
          "ticks": 21160,
          "time": 20.9920425,
          "value": -0.109375
        },
        {
          "ticks": 21184,
          "time": 21.015852,
          "value": 0
        },
        {
          "ticks": 22080,
          "time": 21.90474,
          "value": -0.546875
        },
        {
          "ticks": 22100,
          "time": 21.92458125,
          "value": -0.28125
        },
        {
          "ticks": 22120,
          "time": 21.9444225,
          "value": -0.109375
        },
        {
          "ticks": 22144,
          "time": 21.968232,
          "value": 0
        },
        {
          "ticks": 22560,
          "time": 22.38093,
          "value": -0.546875
        },
        {
          "ticks": 22580,
          "time": 22.40077125,
          "value": -0.28125
        },
        {
          "ticks": 22600,
          "time": 22.4206125,
          "value": -0.109375
        },
        {
          "ticks": 22624,
          "time": 22.444422,
          "value": 0
        },
        {
          "ticks": 23040,
          "time": 22.857120000000002,
          "value": -0.546875
        },
        {
          "ticks": 23060,
          "time": 22.876961249999997,
          "value": -0.28125
        },
        {
          "ticks": 23080,
          "time": 22.8968025,
          "value": -0.109375
        },
        {
          "ticks": 23104,
          "time": 22.920612,
          "value": 0
        },
        {
          "ticks": 23520,
          "time": 23.33331,
          "value": -0.546875
        },
        {
          "ticks": 23540,
          "time": 23.35315125,
          "value": -0.28125
        },
        {
          "ticks": 23560,
          "time": 23.372992500000002,
          "value": -0.109375
        },
        {
          "ticks": 23584,
          "time": 23.396802,
          "value": 0
        },
        {
          "ticks": 24000,
          "time": 23.8095,
          "value": -0.546875
        },
        {
          "ticks": 24020,
          "time": 23.82934125,
          "value": -0.28125
        },
        {
          "ticks": 24040,
          "time": 23.8491825,
          "value": -0.109375
        },
        {
          "ticks": 24064,
          "time": 23.872992,
          "value": 0
        },
        {
          "ticks": 24480,
          "time": 24.28569,
          "value": -0.546875
        },
        {
          "ticks": 24500,
          "time": 24.305531249999998,
          "value": -0.28125
        },
        {
          "ticks": 24520,
          "time": 24.3253725,
          "value": -0.109375
        },
        {
          "ticks": 24544,
          "time": 24.349182,
          "value": 0
        },
        {
          "ticks": 25440,
          "time": 25.23807,
          "value": -0.546875
        },
        {
          "ticks": 25460,
          "time": 25.25791125,
          "value": -0.28125
        },
        {
          "ticks": 25480,
          "time": 25.277752500000002,
          "value": -0.109375
        },
        {
          "ticks": 25504,
          "time": 25.301562,
          "value": 0
        },
        {
          "ticks": 25920,
          "time": 25.71426,
          "value": -0.546875
        },
        {
          "ticks": 25940,
          "time": 25.73410125,
          "value": -0.28125
        },
        {
          "ticks": 25960,
          "time": 25.7539425,
          "value": -0.109375
        },
        {
          "ticks": 25984,
          "time": 25.777752,
          "value": 0
        },
        {
          "ticks": 26400,
          "time": 26.19045,
          "value": -0.546875
        },
        {
          "ticks": 26420,
          "time": 26.210291249999997,
          "value": -0.28125
        },
        {
          "ticks": 26440,
          "time": 26.2301325,
          "value": -0.109375
        },
        {
          "ticks": 26464,
          "time": 26.253942,
          "value": 0
        },
        {
          "ticks": 26880,
          "time": 26.66664,
          "value": -0.546875
        },
        {
          "ticks": 26900,
          "time": 26.68648125,
          "value": -0.28125
        },
        {
          "ticks": 26920,
          "time": 26.706322500000002,
          "value": -0.109375
        },
        {
          "ticks": 26944,
          "time": 26.730132,
          "value": 0
        },
        {
          "ticks": 27600,
          "time": 27.380925,
          "value": -0.546875
        },
        {
          "ticks": 27620,
          "time": 27.40076625,
          "value": -0.28125
        },
        {
          "ticks": 27640,
          "time": 27.420607500000003,
          "value": -0.109375
        },
        {
          "ticks": 27664,
          "time": 27.444417,
          "value": 0
        }
      ],
      "instrument": {
        "family": "guitar",
        "number": 27,
        "name": "electric guitar (clean)"
      },
      "name": "",
      "notes": [
        {
          "duration": 0.238095,
          "durationTicks": 240,
          "midi": 71,
          "name": "B4",
          "ticks": 0,
          "time": 0,
          "velocity": 1
        },
        {
          "duration": 0.238095,
          "durationTicks": 240,
          "midi": 73,
          "name": "C#5",
          "ticks": 240,
          "time": 0.238095,
          "velocity": 1
        },
        {
          "duration": 0.23809500000000006,
          "durationTicks": 240,
          "midi": 74,
          "name": "D5",
          "ticks": 480,
          "time": 0.47619,
          "velocity": 1
        },
        {
          "duration": 0.23809499999999995,
          "durationTicks": 240,
          "midi": 76,
          "name": "E5",
          "ticks": 720,
          "time": 0.7142850000000001,
          "velocity": 1
        },
        {
          "duration": 0.42857100000000004,
          "durationTicks": 432,
          "midi": 47,
          "name": "B2",
          "ticks": 960,
          "time": 0.95238,
          "velocity": 1
        },
        {
          "duration": 0.95238,
          "durationTicks": 960,
          "midi": 59,
          "name": "B3",
          "ticks": 960,
          "time": 0.95238,
          "velocity": 1
        },
        {
          "duration": 2.0238075,
          "durationTicks": 2040,
          "midi": 66,
          "name": "F#4",
          "ticks": 960,
          "time": 0.95238,
          "velocity": 1
        },
        {
          "duration": 0.23809499999999995,
          "durationTicks": 240,
          "midi": 78,
          "name": "F#5",
          "ticks": 960,
          "time": 0.95238,
          "velocity": 1
        },
        {
          "duration": 1.4285700000000001,
          "durationTicks": 1440,
          "midi": 59,
          "name": "B3",
          "ticks": 1440,
          "time": 1.4285700000000001,
          "velocity": 1
        },
        {
          "duration": 0.4761899999999999,
          "durationTicks": 480,
          "midi": 62,
          "name": "D4",
          "ticks": 1440,
          "time": 1.4285700000000001,
          "velocity": 1
        },
        {
          "duration": 0.23809499999999995,
          "durationTicks": 240,
          "midi": 78,
          "name": "F#5",
          "ticks": 1440,
          "time": 1.4285700000000001,
          "velocity": 1
        },
        {
          "duration": 0.23809499999999995,
          "durationTicks": 240,
          "midi": 83,
          "name": "B5",
          "ticks": 1440,
          "time": 1.4285700000000001,
          "velocity": 1
        },
        {
          "duration": 0.2499997500000002,
          "durationTicks": 252,
          "midi": 47,
          "name": "B2",
          "ticks": 1680,
          "time": 1.666665,
          "velocity": 1
        },
        {
          "duration": 0.23809499999999995,
          "durationTicks": 240,
          "midi": 76,
          "name": "E5",
          "ticks": 1680,
          "time": 1.666665,
          "velocity": 1
        },
        {
          "duration": 0.23809499999999995,
          "durationTicks": 240,
          "midi": 81,
          "name": "A5",
          "ticks": 1680,
          "time": 1.666665,
          "velocity": 1
        },
        {
          "duration": 0.40872975,
          "durationTicks": 412,
          "midi": 50,
          "name": "D3",
          "ticks": 1920,
          "time": 1.90476,
          "velocity": 1
        },
        {
          "duration": 0.23809499999999995,
          "durationTicks": 240,
          "midi": 78,
          "name": "F#5",
          "ticks": 1920,
          "time": 1.90476,
          "velocity": 1
        },
        {
          "duration": 0.23809499999999995,
          "durationTicks": 240,
          "midi": 83,
          "name": "B5",
          "ticks": 1920,
          "time": 1.90476,
          "velocity": 1
        },
        {
          "duration": 0.5952375000000001,
          "durationTicks": 600,
          "midi": 59,
          "name": "B3",
          "ticks": 2400,
          "time": 2.38095,
          "velocity": 1
        },
        {
          "duration": 0.47619000000000034,
          "durationTicks": 480,
          "midi": 62,
          "name": "D4",
          "ticks": 2400,
          "time": 2.38095,
          "velocity": 1
        },
        {
          "duration": 0.23809499999999995,
          "durationTicks": 240,
          "midi": 78,
          "name": "F#5",
          "ticks": 2400,
          "time": 2.38095,
          "velocity": 1
        },
        {
          "duration": 0.23809499999999995,
          "durationTicks": 240,
          "midi": 83,
          "name": "B5",
          "ticks": 2400,
          "time": 2.38095,
          "velocity": 1
        },
        {
          "duration": 0.2777775,
          "durationTicks": 280,
          "midi": 47,
          "name": "B2",
          "ticks": 2640,
          "time": 2.619045,
          "velocity": 1
        },
        {
          "duration": 0.2380950000000004,
          "durationTicks": 240,
          "midi": 76,
          "name": "E5",
          "ticks": 2640,
          "time": 2.619045,
          "velocity": 1
        },
        {
          "duration": 0.2380950000000004,
          "durationTicks": 240,
          "midi": 81,
          "name": "A5",
          "ticks": 2640,
          "time": 2.619045,
          "velocity": 1
        },
        {
          "duration": 0.23809499999999995,
          "durationTicks": 240,
          "midi": 78,
          "name": "F#5",
          "ticks": 2880,
          "time": 2.8571400000000002,
          "velocity": 1
        },
        {
          "duration": 0.23809499999999995,
          "durationTicks": 240,
          "midi": 83,
          "name": "B5",
          "ticks": 2880,
          "time": 2.8571400000000002,
          "velocity": 1
        },
        {
          "duration": 0.27777749999999957,
          "durationTicks": 280,
          "midi": 47,
          "name": "B2",
          "ticks": 3120,
          "time": 3.095235,
          "velocity": 1
        },
        {
          "duration": 0.11904749999999975,
          "durationTicks": 120,
          "midi": 59,
          "name": "B3",
          "ticks": 3120,
          "time": 3.095235,
          "velocity": 1
        },
        {
          "duration": 0.11904749999999975,
          "durationTicks": 120,
          "midi": 62,
          "name": "D4",
          "ticks": 3120,
          "time": 3.095235,
          "velocity": 1
        },
        {
          "duration": 0.23809499999999995,
          "durationTicks": 240,
          "midi": 76,
          "name": "E5",
          "ticks": 3120,
          "time": 3.095235,
          "velocity": 1
        },
        {
          "duration": 0.23809499999999995,
          "durationTicks": 240,
          "midi": 81,
          "name": "A5",
          "ticks": 3120,
          "time": 3.095235,
          "velocity": 1
        },
        {
          "duration": 0.3571424999999997,
          "durationTicks": 360,
          "midi": 59,
          "name": "B3",
          "ticks": 3360,
          "time": 3.33333,
          "velocity": 1
        },
        {
          "duration": 0.4761899999999999,
          "durationTicks": 480,
          "midi": 66,
          "name": "F#4",
          "ticks": 3360,
          "time": 3.33333,
          "velocity": 1
        },
        {
          "duration": 0.23809499999999995,
          "durationTicks": 240,
          "midi": 78,
          "name": "F#5",
          "ticks": 3360,
          "time": 3.33333,
          "velocity": 1
        },
        {
          "duration": 0.23809499999999995,
          "durationTicks": 240,
          "midi": 83,
          "name": "B5",
          "ticks": 3360,
          "time": 3.33333,
          "velocity": 1
        },
        {
          "duration": 0.23809499999999995,
          "durationTicks": 240,
          "midi": 47,
          "name": "B2",
          "ticks": 3600,
          "time": 3.571425,
          "velocity": 1
        },
        {
          "duration": 0.23809499999999995,
          "durationTicks": 240,
          "midi": 59,
          "name": "B3",
          "ticks": 3600,
          "time": 3.571425,
          "velocity": 1
        },
        {
          "duration": 0.11904749999999975,
          "durationTicks": 120,
          "midi": 62,
          "name": "D4",
          "ticks": 3600,
          "time": 3.571425,
          "velocity": 1
        },
        {
          "duration": 0.23809499999999995,
          "durationTicks": 240,
          "midi": 76,
          "name": "E5",
          "ticks": 3600,
          "time": 3.571425,
          "velocity": 1
        },
        {
          "duration": 0.23809499999999995,
          "durationTicks": 240,
          "midi": 81,
          "name": "A5",
          "ticks": 3600,
          "time": 3.571425,
          "velocity": 1
        },
        {
          "duration": 0.09126974999999993,
          "durationTicks": 92,
          "midi": 50,
          "name": "D3",
          "ticks": 3840,
          "time": 3.80952,
          "velocity": 1
        },
        {
          "duration": 0.4761899999999999,
          "durationTicks": 480,
          "midi": 62,
          "name": "D4",
          "ticks": 3840,
          "time": 3.80952,
          "velocity": 1
        },
        {
          "duration": 0.4761899999999999,
          "durationTicks": 480,
          "midi": 71,
          "name": "B4",
          "ticks": 3840,
          "time": 3.80952,
          "velocity": 1
        },
        {
          "duration": 0.2380950000000004,
          "durationTicks": 240,
          "midi": 78,
          "name": "F#5",
          "ticks": 3840,
          "time": 3.80952,
          "velocity": 1
        },
        {
          "duration": 0.2380950000000004,
          "durationTicks": 240,
          "midi": 83,
          "name": "B5",
          "ticks": 3840,
          "time": 3.80952,
          "velocity": 1
        },
        {
          "duration": 0.2380949999999995,
          "durationTicks": 240,
          "midi": 50,
          "name": "D3",
          "ticks": 4080,
          "time": 4.047615,
          "velocity": 1
        },
        {
          "duration": 0.35714249999999925,
          "durationTicks": 360,
          "midi": 59,
          "name": "B3",
          "ticks": 4080,
          "time": 4.047615,
          "velocity": 1
        },
        {
          "duration": 0.35714249999999925,
          "durationTicks": 360,
          "midi": 62,
          "name": "D4",
          "ticks": 4080,
          "time": 4.047615,
          "velocity": 1
        },
        {
          "duration": 0.03968249999999962,
          "durationTicks": 40,
          "midi": 69,
          "name": "A4",
          "ticks": 4080,
          "time": 4.047615,
          "velocity": 1
        },
        {
          "duration": 0.2380949999999995,
          "durationTicks": 240,
          "midi": 71,
          "name": "B4",
          "ticks": 4080,
          "time": 4.047615,
          "velocity": 1
        },
        {
          "duration": 0.2380949999999995,
          "durationTicks": 240,
          "midi": 76,
          "name": "E5",
          "ticks": 4080,
          "time": 4.047615,
          "velocity": 1
        },
        {
          "duration": 0.2380949999999995,
          "durationTicks": 240,
          "midi": 81,
          "name": "A5",
          "ticks": 4080,
          "time": 4.047615,
          "velocity": 1
        },
        {
          "duration": 0.4761899999999999,
          "durationTicks": 480,
          "midi": 54,
          "name": "F#3",
          "ticks": 4320,
          "time": 4.28571,
          "velocity": 1
        },
        {
          "duration": 0.2976187499999998,
          "durationTicks": 300,
          "midi": 69,
          "name": "A4",
          "ticks": 4320,
          "time": 4.28571,
          "velocity": 1
        },
        {
          "duration": 0.4761899999999999,
          "durationTicks": 480,
          "midi": 74,
          "name": "D5",
          "ticks": 4320,
          "time": 4.28571,
          "velocity": 1
        },
        {
          "duration": 0.2380950000000004,
          "durationTicks": 240,
          "midi": 78,
          "name": "F#5",
          "ticks": 4320,
          "time": 4.28571,
          "velocity": 1
        },
        {
          "duration": 0.2380950000000004,
          "durationTicks": 240,
          "midi": 83,
          "name": "B5",
          "ticks": 4320,
          "time": 4.28571,
          "velocity": 1
        },
        {
          "duration": 0.11904749999999975,
          "durationTicks": 120,
          "midi": 59,
          "name": "B3",
          "ticks": 4560,
          "time": 4.523805,
          "velocity": 1
        },
        {
          "duration": 0.11904749999999975,
          "durationTicks": 120,
          "midi": 62,
          "name": "D4",
          "ticks": 4560,
          "time": 4.523805,
          "velocity": 1
        },
        {
          "duration": 0.2380949999999995,
          "durationTicks": 240,
          "midi": 69,
          "name": "A4",
          "ticks": 4560,
          "time": 4.523805,
          "velocity": 1
        },
        {
          "duration": 1.1309512499999999,
          "durationTicks": 1140,
          "midi": 71,
          "name": "B4",
          "ticks": 4560,
          "time": 4.523805,
          "velocity": 1
        },
        {
          "duration": 0.2380949999999995,
          "durationTicks": 240,
          "midi": 76,
          "name": "E5",
          "ticks": 4560,
          "time": 4.523805,
          "velocity": 1
        },
        {
          "duration": 0.2380949999999995,
          "durationTicks": 240,
          "midi": 81,
          "name": "A5",
          "ticks": 4560,
          "time": 4.523805,
          "velocity": 1
        },
        {
          "duration": 0.40872975,
          "durationTicks": 412,
          "midi": 52,
          "name": "E3",
          "ticks": 4800,
          "time": 4.7619,
          "velocity": 1
        },
        {
          "duration": 0.11904750000000064,
          "durationTicks": 120,
          "midi": 66,
          "name": "F#4",
          "ticks": 4800,
          "time": 4.7619,
          "velocity": 1
        },
        {
          "duration": 0.11904750000000064,
          "durationTicks": 120,
          "midi": 73,
          "name": "C#5",
          "ticks": 4800,
          "time": 4.7619,
          "velocity": 1
        },
        {
          "duration": 0.2380950000000004,
          "durationTicks": 240,
          "midi": 78,
          "name": "F#5",
          "ticks": 4800,
          "time": 4.7619,
          "velocity": 1
        },
        {
          "duration": 0.2380950000000004,
          "durationTicks": 240,
          "midi": 83,
          "name": "B5",
          "ticks": 4800,
          "time": 4.7619,
          "velocity": 1
        },
        {
          "duration": 0.4761900000000008,
          "durationTicks": 480,
          "midi": 59,
          "name": "B3",
          "ticks": 5280,
          "time": 5.23809,
          "velocity": 1
        },
        {
          "duration": 0.4761900000000008,
          "durationTicks": 480,
          "midi": 64,
          "name": "E4",
          "ticks": 5280,
          "time": 5.23809,
          "velocity": 1
        },
        {
          "duration": 0.2380950000000004,
          "durationTicks": 240,
          "midi": 78,
          "name": "F#5",
          "ticks": 5280,
          "time": 5.23809,
          "velocity": 1
        },
        {
          "duration": 0.2380950000000004,
          "durationTicks": 240,
          "midi": 83,
          "name": "B5",
          "ticks": 5280,
          "time": 5.23809,
          "velocity": 1
        },
        {
          "duration": 0.2380950000000004,
          "durationTicks": 240,
          "midi": 52,
          "name": "E3",
          "ticks": 5520,
          "time": 5.476185,
          "velocity": 1
        },
        {
          "duration": 1.0714274999999995,
          "durationTicks": 1080,
          "midi": 64,
          "name": "E4",
          "ticks": 5520,
          "time": 5.476185,
          "velocity": 1
        },
        {
          "duration": 1.3095225,
          "durationTicks": 1320,
          "midi": 71,
          "name": "B4",
          "ticks": 5520,
          "time": 5.476185,
          "velocity": 1
        },
        {
          "duration": 0.2380950000000004,
          "durationTicks": 240,
          "midi": 76,
          "name": "E5",
          "ticks": 5520,
          "time": 5.476185,
          "velocity": 1
        },
        {
          "duration": 0.2380950000000004,
          "durationTicks": 240,
          "midi": 81,
          "name": "A5",
          "ticks": 5520,
          "time": 5.476185,
          "velocity": 1
        },
        {
          "duration": 0.39682499999999976,
          "durationTicks": 400,
          "midi": 55,
          "name": "G3",
          "ticks": 5760,
          "time": 5.7142800000000005,
          "velocity": 1
        },
        {
          "duration": 0.2380949999999995,
          "durationTicks": 240,
          "midi": 78,
          "name": "F#5",
          "ticks": 5760,
          "time": 5.7142800000000005,
          "velocity": 1
        },
        {
          "duration": 0.2380949999999995,
          "durationTicks": 240,
          "midi": 83,
          "name": "B5",
          "ticks": 5760,
          "time": 5.7142800000000005,
          "velocity": 1
        },
        {
          "duration": 0.35714249999999925,
          "durationTicks": 360,
          "midi": 59,
          "name": "B3",
          "ticks": 6240,
          "time": 6.19047,
          "velocity": 1
        },
        {
          "duration": 0.5952374999999996,
          "durationTicks": 600,
          "midi": 64,
          "name": "E4",
          "ticks": 6240,
          "time": 6.19047,
          "velocity": 1
        },
        {
          "duration": 0.2380949999999995,
          "durationTicks": 240,
          "midi": 78,
          "name": "F#5",
          "ticks": 6240,
          "time": 6.19047,
          "velocity": 1
        },
        {
          "duration": 0.2380949999999995,
          "durationTicks": 240,
          "midi": 83,
          "name": "B5",
          "ticks": 6240,
          "time": 6.19047,
          "velocity": 1
        },
        {
          "duration": 0.23015849999999993,
          "durationTicks": 232,
          "midi": 52,
          "name": "E3",
          "ticks": 6480,
          "time": 6.428565,
          "velocity": 1
        },
        {
          "duration": 0.2380950000000004,
          "durationTicks": 240,
          "midi": 76,
          "name": "E5",
          "ticks": 6480,
          "time": 6.428565,
          "velocity": 1
        },
        {
          "duration": 0.2380950000000004,
          "durationTicks": 240,
          "midi": 81,
          "name": "A5",
          "ticks": 6480,
          "time": 6.428565,
          "velocity": 1
        },
        {
          "duration": 0.2380949999999995,
          "durationTicks": 240,
          "midi": 78,
          "name": "F#5",
          "ticks": 6720,
          "time": 6.66666,
          "velocity": 1
        },
        {
          "duration": 0.2380949999999995,
          "durationTicks": 240,
          "midi": 83,
          "name": "B5",
          "ticks": 6720,
          "time": 6.66666,
          "velocity": 1
        },
        {
          "duration": 0.26984100000000044,
          "durationTicks": 272,
          "midi": 52,
          "name": "E3",
          "ticks": 6960,
          "time": 6.904755,
          "velocity": 1
        },
        {
          "duration": 0.11904750000000064,
          "durationTicks": 120,
          "midi": 59,
          "name": "B3",
          "ticks": 6960,
          "time": 6.904755,
          "velocity": 1
        },
        {
          "duration": 0.11904750000000064,
          "durationTicks": 120,
          "midi": 64,
          "name": "E4",
          "ticks": 6960,
          "time": 6.904755,
          "velocity": 1
        },
        {
          "duration": 0.2380950000000004,
          "durationTicks": 240,
          "midi": 76,
          "name": "E5",
          "ticks": 6960,
          "time": 6.904755,
          "velocity": 1
        },
        {
          "duration": 0.05952375000000032,
          "durationTicks": 60,
          "midi": 77,
          "name": "F5",
          "ticks": 6960,
          "time": 6.904755,
          "velocity": 1
        },
        {
          "duration": 0.4761899999999999,
          "durationTicks": 480,
          "midi": 78,
          "name": "F#5",
          "ticks": 6960,
          "time": 6.904755,
          "velocity": 1
        },
        {
          "duration": 0.2380950000000004,
          "durationTicks": 240,
          "midi": 81,
          "name": "A5",
          "ticks": 6960,
          "time": 6.904755,
          "velocity": 1
        },
        {
          "duration": 0.4761899999999999,
          "durationTicks": 480,
          "midi": 59,
          "name": "B3",
          "ticks": 7200,
          "time": 7.14285,
          "velocity": 1
        },
        {
          "duration": 0.4761899999999999,
          "durationTicks": 480,
          "midi": 66,
          "name": "F#4",
          "ticks": 7200,
          "time": 7.14285,
          "velocity": 1
        },
        {
          "duration": 0.7142850000000003,
          "durationTicks": 720,
          "midi": 78,
          "name": "F#5",
          "ticks": 7200,
          "time": 7.14285,
          "velocity": 1
        },
        {
          "duration": 0.2380949999999995,
          "durationTicks": 240,
          "midi": 83,
          "name": "B5",
          "ticks": 7200,
          "time": 7.14285,
          "velocity": 1
        },
        {
          "duration": 0.2380950000000004,
          "durationTicks": 240,
          "midi": 52,
          "name": "E3",
          "ticks": 7440,
          "time": 7.380945,
          "velocity": 1
        },
        {
          "duration": 0.35714250000000014,
          "durationTicks": 360,
          "midi": 59,
          "name": "B3",
          "ticks": 7440,
          "time": 7.380945,
          "velocity": 1
        },
        {
          "duration": 0.2380950000000004,
          "durationTicks": 240,
          "midi": 64,
          "name": "E4",
          "ticks": 7440,
          "time": 7.380945,
          "velocity": 1
        },
        {
          "duration": 0.2380950000000004,
          "durationTicks": 240,
          "midi": 76,
          "name": "E5",
          "ticks": 7440,
          "time": 7.380945,
          "velocity": 1
        },
        {
          "duration": 0.2380950000000004,
          "durationTicks": 240,
          "midi": 81,
          "name": "A5",
          "ticks": 7440,
          "time": 7.380945,
          "velocity": 1
        },
        {
          "duration": 0.11904749999999975,
          "durationTicks": 120,
          "midi": 55,
          "name": "G3",
          "ticks": 7680,
          "time": 7.61904,
          "velocity": 1
        },
        {
          "duration": 0.4761900000000008,
          "durationTicks": 480,
          "midi": 62,
          "name": "D4",
          "ticks": 7680,
          "time": 7.61904,
          "velocity": 1
        },
        {
          "duration": 0.4761900000000008,
          "durationTicks": 480,
          "midi": 71,
          "name": "B4",
          "ticks": 7680,
          "time": 7.61904,
          "velocity": 1
        },
        {
          "duration": 0.4761900000000008,
          "durationTicks": 480,
          "midi": 78,
          "name": "F#5",
          "ticks": 7680,
          "time": 7.61904,
          "velocity": 1
        },
        {
          "duration": 0.2380950000000004,
          "durationTicks": 240,
          "midi": 83,
          "name": "B5",
          "ticks": 7680,
          "time": 7.61904,
          "velocity": 1
        },
        {
          "duration": 0.2380950000000004,
          "durationTicks": 240,
          "midi": 55,
          "name": "G3",
          "ticks": 7920,
          "time": 7.857135,
          "velocity": 1
        },
        {
          "duration": 0.11904749999999975,
          "durationTicks": 120,
          "midi": 59,
          "name": "B3",
          "ticks": 7920,
          "time": 7.857135,
          "velocity": 1
        },
        {
          "duration": 0.11904749999999975,
          "durationTicks": 120,
          "midi": 64,
          "name": "E4",
          "ticks": 7920,
          "time": 7.857135,
          "velocity": 1
        },
        {
          "duration": 0.2380950000000004,
          "durationTicks": 240,
          "midi": 76,
          "name": "E5",
          "ticks": 7920,
          "time": 7.857135,
          "velocity": 1
        },
        {
          "duration": 0.2380950000000004,
          "durationTicks": 240,
          "midi": 81,
          "name": "A5",
          "ticks": 7920,
          "time": 7.857135,
          "velocity": 1
        },
        {
          "duration": 0.2380949999999995,
          "durationTicks": 240,
          "midi": 59,
          "name": "B3",
          "ticks": 8160,
          "time": 8.09523,
          "velocity": 1
        },
        {
          "duration": 0.476189999999999,
          "durationTicks": 480,
          "midi": 69,
          "name": "A4",
          "ticks": 8160,
          "time": 8.09523,
          "velocity": 1
        },
        {
          "duration": 0.476189999999999,
          "durationTicks": 480,
          "midi": 74,
          "name": "D5",
          "ticks": 8160,
          "time": 8.09523,
          "velocity": 1
        },
        {
          "duration": 0.2380949999999995,
          "durationTicks": 240,
          "midi": 78,
          "name": "F#5",
          "ticks": 8160,
          "time": 8.09523,
          "velocity": 1
        },
        {
          "duration": 0.2380949999999995,
          "durationTicks": 240,
          "midi": 83,
          "name": "B5",
          "ticks": 8160,
          "time": 8.09523,
          "velocity": 1
        },
        {
          "duration": 0.03968249999999962,
          "durationTicks": 40,
          "midi": 57,
          "name": "A3",
          "ticks": 8400,
          "time": 8.333325,
          "velocity": 1
        },
        {
          "duration": 0.03968249999999962,
          "durationTicks": 40,
          "midi": 58,
          "name": "A#3",
          "ticks": 8400,
          "time": 8.333325,
          "velocity": 1
        },
        {
          "duration": 0.11904749999999886,
          "durationTicks": 120,
          "midi": 59,
          "name": "B3",
          "ticks": 8400,
          "time": 8.333325,
          "velocity": 1
        },
        {
          "duration": 0.11904749999999886,
          "durationTicks": 120,
          "midi": 64,
          "name": "E4",
          "ticks": 8400,
          "time": 8.333325,
          "velocity": 1
        },
        {
          "duration": 0.2380949999999995,
          "durationTicks": 240,
          "midi": 76,
          "name": "E5",
          "ticks": 8400,
          "time": 8.333325,
          "velocity": 1
        },
        {
          "duration": 0.2380949999999995,
          "durationTicks": 240,
          "midi": 81,
          "name": "A5",
          "ticks": 8400,
          "time": 8.333325,
          "velocity": 1
        },
        {
          "duration": 0.03968249999999962,
          "durationTicks": 40,
          "midi": 54,
          "name": "F#3",
          "ticks": 8520,
          "time": 8.4523725,
          "velocity": 1
        },
        {
          "duration": 0.03968249999999962,
          "durationTicks": 40,
          "midi": 55,
          "name": "G3",
          "ticks": 8520,
          "time": 8.4523725,
          "velocity": 1
        },
        {
          "duration": 0.03968249999999962,
          "durationTicks": 40,
          "midi": 56,
          "name": "G#3",
          "ticks": 8520,
          "time": 8.4523725,
          "velocity": 1
        },
        {
          "duration": 0.4563487500000001,
          "durationTicks": 460,
          "midi": 52,
          "name": "E3",
          "ticks": 8640,
          "time": 8.57142,
          "velocity": 1
        },
        {
          "duration": 0.03968249999999962,
          "durationTicks": 40,
          "midi": 53,
          "name": "F3",
          "ticks": 8640,
          "time": 8.57142,
          "velocity": 1
        },
        {
          "duration": 0.11904750000000064,
          "durationTicks": 120,
          "midi": 66,
          "name": "F#4",
          "ticks": 8640,
          "time": 8.57142,
          "velocity": 1
        },
        {
          "duration": 0.11904750000000064,
          "durationTicks": 120,
          "midi": 73,
          "name": "C#5",
          "ticks": 8640,
          "time": 8.57142,
          "velocity": 1
        },
        {
          "duration": 0.2380949999999995,
          "durationTicks": 240,
          "midi": 78,
          "name": "F#5",
          "ticks": 8640,
          "time": 8.57142,
          "velocity": 1
        },
        {
          "duration": 0.2380949999999995,
          "durationTicks": 240,
          "midi": 83,
          "name": "B5",
          "ticks": 8640,
          "time": 8.57142,
          "velocity": 1
        },
        {
          "duration": 0.476189999999999,
          "durationTicks": 480,
          "midi": 59,
          "name": "B3",
          "ticks": 9120,
          "time": 9.04761,
          "velocity": 1
        },
        {
          "duration": 0.476189999999999,
          "durationTicks": 480,
          "midi": 64,
          "name": "E4",
          "ticks": 9120,
          "time": 9.04761,
          "velocity": 1
        },
        {
          "duration": 0.2380949999999995,
          "durationTicks": 240,
          "midi": 78,
          "name": "F#5",
          "ticks": 9120,
          "time": 9.04761,
          "velocity": 1
        },
        {
          "duration": 0.2380949999999995,
          "durationTicks": 240,
          "midi": 83,
          "name": "B5",
          "ticks": 9120,
          "time": 9.04761,
          "velocity": 1
        },
        {
          "duration": 0.2380949999999995,
          "durationTicks": 240,
          "midi": 52,
          "name": "E3",
          "ticks": 9360,
          "time": 9.285705,
          "velocity": 1
        },
        {
          "duration": 0.5952374999999996,
          "durationTicks": 600,
          "midi": 64,
          "name": "E4",
          "ticks": 9360,
          "time": 9.285705,
          "velocity": 1
        },
        {
          "duration": 1.3095225,
          "durationTicks": 1320,
          "midi": 71,
          "name": "B4",
          "ticks": 9360,
          "time": 9.285705,
          "velocity": 1
        },
        {
          "duration": 0.2380949999999995,
          "durationTicks": 240,
          "midi": 76,
          "name": "E5",
          "ticks": 9360,
          "time": 9.285705,
          "velocity": 1
        },
        {
          "duration": 0.2380949999999995,
          "durationTicks": 240,
          "midi": 81,
          "name": "A5",
          "ticks": 9360,
          "time": 9.285705,
          "velocity": 1
        },
        {
          "duration": 0.4563487500000001,
          "durationTicks": 460,
          "midi": 55,
          "name": "G3",
          "ticks": 9600,
          "time": 9.5238,
          "velocity": 1
        },
        {
          "duration": 0.23809500000000128,
          "durationTicks": 240,
          "midi": 78,
          "name": "F#5",
          "ticks": 9600,
          "time": 9.5238,
          "velocity": 1
        },
        {
          "duration": 0.23809500000000128,
          "durationTicks": 240,
          "midi": 83,
          "name": "B5",
          "ticks": 9600,
          "time": 9.5238,
          "velocity": 1
        },
        {
          "duration": 0.11904749999999886,
          "durationTicks": 120,
          "midi": 59,
          "name": "B3",
          "ticks": 9840,
          "time": 9.761895,
          "velocity": 1
        },
        {
          "duration": 0.7142849999999985,
          "durationTicks": 720,
          "midi": 64,
          "name": "E4",
          "ticks": 9840,
          "time": 9.761895,
          "velocity": 1
        },
        {
          "duration": 0.2380949999999995,
          "durationTicks": 240,
          "midi": 78,
          "name": "F#5",
          "ticks": 10080,
          "time": 9.99999,
          "velocity": 1
        },
        {
          "duration": 0.2380949999999995,
          "durationTicks": 240,
          "midi": 83,
          "name": "B5",
          "ticks": 10080,
          "time": 9.99999,
          "velocity": 1
        },
        {
          "duration": 0.24999974999999885,
          "durationTicks": 252,
          "midi": 52,
          "name": "E3",
          "ticks": 10320,
          "time": 10.238085,
          "velocity": 1
        },
        {
          "duration": 0.35714250000000014,
          "durationTicks": 360,
          "midi": 59,
          "name": "B3",
          "ticks": 10320,
          "time": 10.238085,
          "velocity": 1
        },
        {
          "duration": 0.39682499999999976,
          "durationTicks": 400,
          "midi": 64,
          "name": "E4",
          "ticks": 10320,
          "time": 10.238085,
          "velocity": 1
        },
        {
          "duration": 0.2380949999999995,
          "durationTicks": 240,
          "midi": 76,
          "name": "E5",
          "ticks": 10320,
          "time": 10.238085,
          "velocity": 1
        },
        {
          "duration": 0.2380949999999995,
          "durationTicks": 240,
          "midi": 81,
          "name": "A5",
          "ticks": 10320,
          "time": 10.238085,
          "velocity": 1
        },
        {
          "duration": 0.23809500000000128,
          "durationTicks": 240,
          "midi": 78,
          "name": "F#5",
          "ticks": 10560,
          "time": 10.47618,
          "velocity": 1
        },
        {
          "duration": 0.23809500000000128,
          "durationTicks": 240,
          "midi": 83,
          "name": "B5",
          "ticks": 10560,
          "time": 10.47618,
          "velocity": 1
        },
        {
          "duration": 0.24999974999999885,
          "durationTicks": 252,
          "midi": 52,
          "name": "E3",
          "ticks": 10800,
          "time": 10.714275,
          "velocity": 1
        },
        {
          "duration": 0.11904749999999886,
          "durationTicks": 120,
          "midi": 59,
          "name": "B3",
          "ticks": 10800,
          "time": 10.714275,
          "velocity": 1
        },
        {
          "duration": 0.11904749999999886,
          "durationTicks": 120,
          "midi": 64,
          "name": "E4",
          "ticks": 10800,
          "time": 10.714275,
          "velocity": 1
        },
        {
          "duration": 0.2380949999999995,
          "durationTicks": 240,
          "midi": 76,
          "name": "E5",
          "ticks": 10800,
          "time": 10.714275,
          "velocity": 1
        },
        {
          "duration": 0.2380949999999995,
          "durationTicks": 240,
          "midi": 81,
          "name": "A5",
          "ticks": 10800,
          "time": 10.714275,
          "velocity": 1
        },
        {
          "duration": 0.4761900000000008,
          "durationTicks": 480,
          "midi": 59,
          "name": "B3",
          "ticks": 11040,
          "time": 10.95237,
          "velocity": 1
        },
        {
          "duration": 0.4761900000000008,
          "durationTicks": 480,
          "midi": 66,
          "name": "F#4",
          "ticks": 11040,
          "time": 10.95237,
          "velocity": 1
        },
        {
          "duration": 0.2380949999999995,
          "durationTicks": 240,
          "midi": 78,
          "name": "F#5",
          "ticks": 11040,
          "time": 10.95237,
          "velocity": 1
        },
        {
          "duration": 0.2380949999999995,
          "durationTicks": 240,
          "midi": 83,
          "name": "B5",
          "ticks": 11040,
          "time": 10.95237,
          "velocity": 1
        },
        {
          "duration": 0.24999974999999885,
          "durationTicks": 252,
          "midi": 52,
          "name": "E3",
          "ticks": 11280,
          "time": 11.190465,
          "velocity": 1
        },
        {
          "duration": 0.23809500000000128,
          "durationTicks": 240,
          "midi": 59,
          "name": "B3",
          "ticks": 11280,
          "time": 11.190465,
          "velocity": 1
        },
        {
          "duration": 0.23809500000000128,
          "durationTicks": 240,
          "midi": 64,
          "name": "E4",
          "ticks": 11280,
          "time": 11.190465,
          "velocity": 1
        },
        {
          "duration": 0.03968249999999962,
          "durationTicks": 40,
          "midi": 69,
          "name": "A4",
          "ticks": 11280,
          "time": 11.190465,
          "velocity": 1
        },
        {
          "duration": 0.43650750000000116,
          "durationTicks": 440,
          "midi": 71,
          "name": "B4",
          "ticks": 11280,
          "time": 11.190465,
          "velocity": 1
        },
        {
          "duration": 0.23809500000000128,
          "durationTicks": 240,
          "midi": 76,
          "name": "E5",
          "ticks": 11280,
          "time": 11.190465,
          "velocity": 1
        },
        {
          "duration": 0.23809500000000128,
          "durationTicks": 240,
          "midi": 81,
          "name": "A5",
          "ticks": 11280,
          "time": 11.190465,
          "velocity": 1
        },
        {
          "duration": 0.09920624999999816,
          "durationTicks": 100,
          "midi": 55,
          "name": "G3",
          "ticks": 11520,
          "time": 11.428560000000001,
          "velocity": 1
        },
        {
          "duration": 0.476189999999999,
          "durationTicks": 480,
          "midi": 62,
          "name": "D4",
          "ticks": 11520,
          "time": 11.428560000000001,
          "velocity": 1
        },
        {
          "duration": 0.476189999999999,
          "durationTicks": 480,
          "midi": 69,
          "name": "A4",
          "ticks": 11520,
          "time": 11.428560000000001,
          "velocity": 1
        },
        {
          "duration": 0.2380949999999995,
          "durationTicks": 240,
          "midi": 78,
          "name": "F#5",
          "ticks": 11520,
          "time": 11.428560000000001,
          "velocity": 1
        },
        {
          "duration": 0.2380949999999995,
          "durationTicks": 240,
          "midi": 83,
          "name": "B5",
          "ticks": 11520,
          "time": 11.428560000000001,
          "velocity": 1
        },
        {
          "duration": 0.23015849999999993,
          "durationTicks": 232,
          "midi": 55,
          "name": "G3",
          "ticks": 11760,
          "time": 11.666655,
          "velocity": 1
        },
        {
          "duration": 0.11904749999999886,
          "durationTicks": 120,
          "midi": 59,
          "name": "B3",
          "ticks": 11760,
          "time": 11.666655,
          "velocity": 1
        },
        {
          "duration": 0.11904749999999886,
          "durationTicks": 120,
          "midi": 64,
          "name": "E4",
          "ticks": 11760,
          "time": 11.666655,
          "velocity": 1
        },
        {
          "duration": 0.2380949999999995,
          "durationTicks": 240,
          "midi": 73,
          "name": "C#5",
          "ticks": 11760,
          "time": 11.666655,
          "velocity": 1
        },
        {
          "duration": 0.2380949999999995,
          "durationTicks": 240,
          "midi": 76,
          "name": "E5",
          "ticks": 11760,
          "time": 11.666655,
          "velocity": 1
        },
        {
          "duration": 0.2380949999999995,
          "durationTicks": 240,
          "midi": 81,
          "name": "A5",
          "ticks": 11760,
          "time": 11.666655,
          "velocity": 1
        },
        {
          "duration": 0.2380949999999995,
          "durationTicks": 240,
          "midi": 57,
          "name": "A3",
          "ticks": 12000,
          "time": 11.90475,
          "velocity": 1
        },
        {
          "duration": 0.4761900000000008,
          "durationTicks": 480,
          "midi": 64,
          "name": "E4",
          "ticks": 12000,
          "time": 11.90475,
          "velocity": 1
        },
        {
          "duration": 0.4761900000000008,
          "durationTicks": 480,
          "midi": 71,
          "name": "B4",
          "ticks": 12000,
          "time": 11.90475,
          "velocity": 1
        },
        {
          "duration": 0.2380949999999995,
          "durationTicks": 240,
          "midi": 74,
          "name": "D5",
          "ticks": 12000,
          "time": 11.90475,
          "velocity": 1
        },
        {
          "duration": 0.11904750000000064,
          "durationTicks": 120,
          "midi": 78,
          "name": "F#5",
          "ticks": 12000,
          "time": 11.90475,
          "velocity": 1
        },
        {
          "duration": 0.11904750000000064,
          "durationTicks": 120,
          "midi": 83,
          "name": "B5",
          "ticks": 12000,
          "time": 11.90475,
          "velocity": 1
        },
        {
          "duration": 0.23809500000000128,
          "durationTicks": 240,
          "midi": 59,
          "name": "B3",
          "ticks": 12240,
          "time": 12.142845,
          "velocity": 1
        },
        {
          "duration": 0.23809500000000128,
          "durationTicks": 240,
          "midi": 59,
          "name": "B3",
          "ticks": 12240,
          "time": 12.142845,
          "velocity": 1
        },
        {
          "duration": 0.23809500000000128,
          "durationTicks": 240,
          "midi": 64,
          "name": "E4",
          "ticks": 12240,
          "time": 12.142845,
          "velocity": 1
        },
        {
          "duration": 0.23809500000000128,
          "durationTicks": 240,
          "midi": 76,
          "name": "E5",
          "ticks": 12240,
          "time": 12.142845,
          "velocity": 1
        },
        {
          "duration": 0.23809500000000128,
          "durationTicks": 240,
          "midi": 78,
          "name": "F#5",
          "ticks": 12240,
          "time": 12.142845,
          "velocity": 1
        },
        {
          "duration": 0.23809500000000128,
          "durationTicks": 240,
          "midi": 81,
          "name": "A5",
          "ticks": 12240,
          "time": 12.142845,
          "velocity": 1
        },
        {
          "duration": 0.4365074999999994,
          "durationTicks": 440,
          "midi": 47,
          "name": "B2",
          "ticks": 12480,
          "time": 12.38094,
          "velocity": 1
        },
        {
          "duration": 0.9523799999999998,
          "durationTicks": 960,
          "midi": 59,
          "name": "B3",
          "ticks": 12480,
          "time": 12.38094,
          "velocity": 1
        },
        {
          "duration": 2.7380924999999987,
          "durationTicks": 2760,
          "midi": 66,
          "name": "F#4",
          "ticks": 12480,
          "time": 12.38094,
          "velocity": 1
        },
        {
          "duration": 1.2499987499999996,
          "durationTicks": 1260,
          "midi": 71,
          "name": "B4",
          "ticks": 12720,
          "time": 12.619035,
          "velocity": 1
        },
        {
          "duration": 1.2499987499999996,
          "durationTicks": 1260,
          "midi": 78,
          "name": "F#5",
          "ticks": 12720,
          "time": 12.619035,
          "velocity": 1
        },
        {
          "duration": 0.8333325000000009,
          "durationTicks": 840,
          "midi": 59,
          "name": "B3",
          "ticks": 12960,
          "time": 12.85713,
          "velocity": 1
        },
        {
          "duration": 0.4761900000000008,
          "durationTicks": 480,
          "midi": 62,
          "name": "D4",
          "ticks": 12960,
          "time": 12.85713,
          "velocity": 1
        },
        {
          "duration": 0.23809500000000128,
          "durationTicks": 240,
          "midi": 47,
          "name": "B2",
          "ticks": 13200,
          "time": 13.095225,
          "velocity": 1
        },
        {
          "duration": 0.42857099999999804,
          "durationTicks": 432,
          "midi": 50,
          "name": "D3",
          "ticks": 13440,
          "time": 13.33332,
          "velocity": 1
        },
        {
          "duration": 0.7142850000000003,
          "durationTicks": 720,
          "midi": 59,
          "name": "B3",
          "ticks": 13680,
          "time": 13.571415,
          "velocity": 1
        },
        {
          "duration": 0.11904750000000064,
          "durationTicks": 120,
          "midi": 62,
          "name": "D4",
          "ticks": 13680,
          "time": 13.571415,
          "velocity": 1
        },
        {
          "duration": 0.24999974999999885,
          "durationTicks": 252,
          "midi": 47,
          "name": "B2",
          "ticks": 14160,
          "time": 14.047605,
          "velocity": 1
        },
        {
          "duration": 0.7142849999999985,
          "durationTicks": 720,
          "midi": 59,
          "name": "B3",
          "ticks": 14160,
          "time": 14.047605,
          "velocity": 1
        },
        {
          "duration": 0.2380949999999995,
          "durationTicks": 240,
          "midi": 64,
          "name": "E4",
          "ticks": 14160,
          "time": 14.047605,
          "velocity": 1
        },
        {
          "duration": 0.3293647499999999,
          "durationTicks": 332,
          "midi": 47,
          "name": "B2",
          "ticks": 14640,
          "time": 14.523795,
          "velocity": 1
        },
        {
          "duration": 0.5952374999999996,
          "durationTicks": 600,
          "midi": 59,
          "name": "B3",
          "ticks": 14640,
          "time": 14.523795,
          "velocity": 1
        },
        {
          "duration": 0.2380949999999995,
          "durationTicks": 240,
          "midi": 62,
          "name": "D4",
          "ticks": 14640,
          "time": 14.523795,
          "velocity": 1
        },
        {
          "duration": 0.17857125000000096,
          "durationTicks": 180,
          "midi": 73,
          "name": "C#5",
          "ticks": 14640,
          "time": 14.523795,
          "velocity": 1
        },
        {
          "duration": 0.2380949999999995,
          "durationTicks": 240,
          "midi": 47,
          "name": "B2",
          "ticks": 15120,
          "time": 14.999985,
          "velocity": 1
        },
        {
          "duration": 0.2380949999999995,
          "durationTicks": 240,
          "midi": 59,
          "name": "B3",
          "ticks": 15120,
          "time": 14.999985,
          "velocity": 1
        },
        {
          "duration": 0.2380949999999995,
          "durationTicks": 240,
          "midi": 64,
          "name": "E4",
          "ticks": 15120,
          "time": 14.999985,
          "velocity": 1
        },
        {
          "duration": 0.05952375000000032,
          "durationTicks": 60,
          "midi": 72,
          "name": "C5",
          "ticks": 15120,
          "time": 14.999985,
          "velocity": 1
        },
        {
          "duration": 0.17857124999999918,
          "durationTicks": 180,
          "midi": 73,
          "name": "C#5",
          "ticks": 15120,
          "time": 14.999985,
          "velocity": 1
        },
        {
          "duration": 0.09920625000000172,
          "durationTicks": 100,
          "midi": 50,
          "name": "D3",
          "ticks": 15360,
          "time": 15.23808,
          "velocity": 1
        },
        {
          "duration": 0.2380949999999995,
          "durationTicks": 240,
          "midi": 71,
          "name": "B4",
          "ticks": 15360,
          "time": 15.23808,
          "velocity": 1
        },
        {
          "duration": 0.23809500000000128,
          "durationTicks": 240,
          "midi": 50,
          "name": "D3",
          "ticks": 15600,
          "time": 15.476175,
          "velocity": 1
        },
        {
          "duration": 0.23809500000000128,
          "durationTicks": 240,
          "midi": 59,
          "name": "B3",
          "ticks": 15600,
          "time": 15.476175,
          "velocity": 1
        },
        {
          "duration": 0.23809500000000128,
          "durationTicks": 240,
          "midi": 62,
          "name": "D4",
          "ticks": 15600,
          "time": 15.476175,
          "velocity": 1
        },
        {
          "duration": 0.05952375000000032,
          "durationTicks": 60,
          "midi": 72,
          "name": "C5",
          "ticks": 15600,
          "time": 15.476175,
          "velocity": 1
        },
        {
          "duration": 0.23809500000000128,
          "durationTicks": 240,
          "midi": 73,
          "name": "C#5",
          "ticks": 15600,
          "time": 15.476175,
          "velocity": 1
        },
        {
          "duration": 0.7738087499999988,
          "durationTicks": 780,
          "midi": 73,
          "name": "C#5",
          "ticks": 15600,
          "time": 15.476175,
          "velocity": 1
        },
        {
          "duration": 0.2380949999999995,
          "durationTicks": 240,
          "midi": 52,
          "name": "E3",
          "ticks": 15840,
          "time": 15.71427,
          "velocity": 1
        },
        {
          "duration": 0.2380949999999995,
          "durationTicks": 240,
          "midi": 74,
          "name": "D5",
          "ticks": 15840,
          "time": 15.71427,
          "velocity": 1
        },
        {
          "duration": 0.23809500000000128,
          "durationTicks": 240,
          "midi": 54,
          "name": "F#3",
          "ticks": 16080,
          "time": 15.952365,
          "velocity": 1
        },
        {
          "duration": 0.11904750000000064,
          "durationTicks": 120,
          "midi": 59,
          "name": "B3",
          "ticks": 16080,
          "time": 15.952365,
          "velocity": 1
        },
        {
          "duration": 0.11904750000000064,
          "durationTicks": 120,
          "midi": 64,
          "name": "E4",
          "ticks": 16080,
          "time": 15.952365,
          "velocity": 1
        },
        {
          "duration": 0.23809500000000128,
          "durationTicks": 240,
          "midi": 76,
          "name": "E5",
          "ticks": 16080,
          "time": 15.952365,
          "velocity": 1
        },
        {
          "duration": 0.5079360000000008,
          "durationTicks": 512,
          "midi": 47,
          "name": "B2",
          "ticks": 16320,
          "time": 16.19046,
          "velocity": 1
        },
        {
          "duration": 0.952379999999998,
          "durationTicks": 960,
          "midi": 59,
          "name": "B3",
          "ticks": 16320,
          "time": 16.19046,
          "velocity": 1
        },
        {
          "duration": 2.0238075,
          "durationTicks": 2040,
          "midi": 66,
          "name": "F#4",
          "ticks": 16320,
          "time": 16.19046,
          "velocity": 1
        },
        {
          "duration": 0.23809499999999773,
          "durationTicks": 240,
          "midi": 78,
          "name": "F#5",
          "ticks": 16320,
          "time": 16.19046,
          "velocity": 1
        },
        {
          "duration": 0.8333325000000009,
          "durationTicks": 840,
          "midi": 59,
          "name": "B3",
          "ticks": 16800,
          "time": 16.66665,
          "velocity": 1
        },
        {
          "duration": 0.35714249999999836,
          "durationTicks": 360,
          "midi": 62,
          "name": "D4",
          "ticks": 16800,
          "time": 16.66665,
          "velocity": 1
        },
        {
          "duration": 0.23809499999999773,
          "durationTicks": 240,
          "midi": 78,
          "name": "F#5",
          "ticks": 16800,
          "time": 16.66665,
          "velocity": 1
        },
        {
          "duration": 0.23809499999999773,
          "durationTicks": 240,
          "midi": 83,
          "name": "B5",
          "ticks": 16800,
          "time": 16.66665,
          "velocity": 1
        },
        {
          "duration": 0.23809500000000128,
          "durationTicks": 240,
          "midi": 47,
          "name": "B2",
          "ticks": 17040,
          "time": 16.904745,
          "velocity": 1
        },
        {
          "duration": 0.23809500000000128,
          "durationTicks": 240,
          "midi": 76,
          "name": "E5",
          "ticks": 17040,
          "time": 16.904745,
          "velocity": 1
        },
        {
          "duration": 0.23809500000000128,
          "durationTicks": 240,
          "midi": 81,
          "name": "A5",
          "ticks": 17040,
          "time": 16.904745,
          "velocity": 1
        },
        {
          "duration": 0.476189999999999,
          "durationTicks": 480,
          "midi": 50,
          "name": "D3",
          "ticks": 17280,
          "time": 17.14284,
          "velocity": 1
        },
        {
          "duration": 0.23809500000000128,
          "durationTicks": 240,
          "midi": 78,
          "name": "F#5",
          "ticks": 17280,
          "time": 17.14284,
          "velocity": 1
        },
        {
          "duration": 0.23809500000000128,
          "durationTicks": 240,
          "midi": 83,
          "name": "B5",
          "ticks": 17280,
          "time": 17.14284,
          "velocity": 1
        },
        {
          "duration": 0.8333325000000009,
          "durationTicks": 840,
          "midi": 59,
          "name": "B3",
          "ticks": 17520,
          "time": 17.380935,
          "velocity": 1
        },
        {
          "duration": 0.11904750000000064,
          "durationTicks": 120,
          "midi": 62,
          "name": "D4",
          "ticks": 17520,
          "time": 17.380935,
          "velocity": 1
        },
        {
          "duration": 0.23809500000000128,
          "durationTicks": 240,
          "midi": 78,
          "name": "F#5",
          "ticks": 17760,
          "time": 17.61903,
          "velocity": 1
        },
        {
          "duration": 0.23809500000000128,
          "durationTicks": 240,
          "midi": 83,
          "name": "B5",
          "ticks": 17760,
          "time": 17.61903,
          "velocity": 1
        },
        {
          "duration": 0.2579362500000002,
          "durationTicks": 260,
          "midi": 47,
          "name": "B2",
          "ticks": 18000,
          "time": 17.857125,
          "velocity": 1
        },
        {
          "duration": 0.3571425000000019,
          "durationTicks": 360,
          "midi": 59,
          "name": "B3",
          "ticks": 18000,
          "time": 17.857125,
          "velocity": 1
        },
        {
          "duration": 0.3571425000000019,
          "durationTicks": 360,
          "midi": 62,
          "name": "D4",
          "ticks": 18000,
          "time": 17.857125,
          "velocity": 1
        },
        {
          "duration": 0.23809500000000128,
          "durationTicks": 240,
          "midi": 76,
          "name": "E5",
          "ticks": 18000,
          "time": 17.857125,
          "velocity": 1
        },
        {
          "duration": 0.23809500000000128,
          "durationTicks": 240,
          "midi": 81,
          "name": "A5",
          "ticks": 18000,
          "time": 17.857125,
          "velocity": 1
        },
        {
          "duration": 0.23809499999999773,
          "durationTicks": 240,
          "midi": 78,
          "name": "F#5",
          "ticks": 18240,
          "time": 18.09522,
          "velocity": 1
        },
        {
          "duration": 0.23809499999999773,
          "durationTicks": 240,
          "midi": 83,
          "name": "B5",
          "ticks": 18240,
          "time": 18.09522,
          "velocity": 1
        },
        {
          "duration": 0.28968225000000203,
          "durationTicks": 292,
          "midi": 47,
          "name": "B2",
          "ticks": 18480,
          "time": 18.333315,
          "velocity": 1
        },
        {
          "duration": 0.11904750000000064,
          "durationTicks": 120,
          "midi": 59,
          "name": "B3",
          "ticks": 18480,
          "time": 18.333315,
          "velocity": 1
        },
        {
          "duration": 0.11904750000000064,
          "durationTicks": 120,
          "midi": 62,
          "name": "D4",
          "ticks": 18480,
          "time": 18.333315,
          "velocity": 1
        },
        {
          "duration": 0.23809500000000128,
          "durationTicks": 240,
          "midi": 76,
          "name": "E5",
          "ticks": 18480,
          "time": 18.333315,
          "velocity": 1
        },
        {
          "duration": 0.23809500000000128,
          "durationTicks": 240,
          "midi": 81,
          "name": "A5",
          "ticks": 18480,
          "time": 18.333315,
          "velocity": 1
        },
        {
          "duration": 0.476189999999999,
          "durationTicks": 480,
          "midi": 59,
          "name": "B3",
          "ticks": 18720,
          "time": 18.57141,
          "velocity": 1
        },
        {
          "duration": 0.476189999999999,
          "durationTicks": 480,
          "midi": 66,
          "name": "F#4",
          "ticks": 18720,
          "time": 18.57141,
          "velocity": 1
        },
        {
          "duration": 0.23809500000000128,
          "durationTicks": 240,
          "midi": 78,
          "name": "F#5",
          "ticks": 18720,
          "time": 18.57141,
          "velocity": 1
        },
        {
          "duration": 0.23809500000000128,
          "durationTicks": 240,
          "midi": 83,
          "name": "B5",
          "ticks": 18720,
          "time": 18.57141,
          "velocity": 1
        },
        {
          "duration": 0.23809499999999773,
          "durationTicks": 240,
          "midi": 47,
          "name": "B2",
          "ticks": 18960,
          "time": 18.809505,
          "velocity": 1
        },
        {
          "duration": 0.23809499999999773,
          "durationTicks": 240,
          "midi": 59,
          "name": "B3",
          "ticks": 18960,
          "time": 18.809505,
          "velocity": 1
        },
        {
          "duration": 0.23809499999999773,
          "durationTicks": 240,
          "midi": 62,
          "name": "D4",
          "ticks": 18960,
          "time": 18.809505,
          "velocity": 1
        },
        {
          "duration": 0.23809499999999773,
          "durationTicks": 240,
          "midi": 76,
          "name": "E5",
          "ticks": 18960,
          "time": 18.809505,
          "velocity": 1
        },
        {
          "duration": 0.23809499999999773,
          "durationTicks": 240,
          "midi": 81,
          "name": "A5",
          "ticks": 18960,
          "time": 18.809505,
          "velocity": 1
        },
        {
          "duration": 0.09920625000000172,
          "durationTicks": 100,
          "midi": 50,
          "name": "D3",
          "ticks": 19200,
          "time": 19.0476,
          "velocity": 1
        },
        {
          "duration": 0.47619000000000256,
          "durationTicks": 480,
          "midi": 62,
          "name": "D4",
          "ticks": 19200,
          "time": 19.0476,
          "velocity": 1
        },
        {
          "duration": 0.47619000000000256,
          "durationTicks": 480,
          "midi": 71,
          "name": "B4",
          "ticks": 19200,
          "time": 19.0476,
          "velocity": 1
        },
        {
          "duration": 0.23809500000000128,
          "durationTicks": 240,
          "midi": 78,
          "name": "F#5",
          "ticks": 19200,
          "time": 19.0476,
          "velocity": 1
        },
        {
          "duration": 0.23809500000000128,
          "durationTicks": 240,
          "midi": 83,
          "name": "B5",
          "ticks": 19200,
          "time": 19.0476,
          "velocity": 1
        },
        {
          "duration": 0.23809500000000128,
          "durationTicks": 240,
          "midi": 50,
          "name": "D3",
          "ticks": 19440,
          "time": 19.285695,
          "velocity": 1
        },
        {
          "duration": 0.23809500000000128,
          "durationTicks": 240,
          "midi": 59,
          "name": "B3",
          "ticks": 19440,
          "time": 19.285695,
          "velocity": 1
        },
        {
          "duration": 0.23809500000000128,
          "durationTicks": 240,
          "midi": 62,
          "name": "D4",
          "ticks": 19440,
          "time": 19.285695,
          "velocity": 1
        },
        {
          "duration": 0.23809500000000128,
          "durationTicks": 240,
          "midi": 76,
          "name": "E5",
          "ticks": 19440,
          "time": 19.285695,
          "velocity": 1
        },
        {
          "duration": 0.23809500000000128,
          "durationTicks": 240,
          "midi": 81,
          "name": "A5",
          "ticks": 19440,
          "time": 19.285695,
          "velocity": 1
        },
        {
          "duration": 0.4563487500000001,
          "durationTicks": 460,
          "midi": 54,
          "name": "F#3",
          "ticks": 19680,
          "time": 19.52379,
          "velocity": 1
        },
        {
          "duration": 0.476189999999999,
          "durationTicks": 480,
          "midi": 69,
          "name": "A4",
          "ticks": 19680,
          "time": 19.52379,
          "velocity": 1
        },
        {
          "duration": 0.23809499999999773,
          "durationTicks": 240,
          "midi": 74,
          "name": "D5",
          "ticks": 19680,
          "time": 19.52379,
          "velocity": 1
        },
        {
          "duration": 0.476189999999999,
          "durationTicks": 480,
          "midi": 74,
          "name": "D5",
          "ticks": 19680,
          "time": 19.52379,
          "velocity": 1
        },
        {
          "duration": 0.23809499999999773,
          "durationTicks": 240,
          "midi": 78,
          "name": "F#5",
          "ticks": 19680,
          "time": 19.52379,
          "velocity": 1
        },
        {
          "duration": 0.23809499999999773,
          "durationTicks": 240,
          "midi": 83,
          "name": "B5",
          "ticks": 19680,
          "time": 19.52379,
          "velocity": 1
        },
        {
          "duration": 0.11904750000000064,
          "durationTicks": 120,
          "midi": 59,
          "name": "B3",
          "ticks": 19920,
          "time": 19.761885,
          "velocity": 1
        },
        {
          "duration": 0.11904750000000064,
          "durationTicks": 120,
          "midi": 62,
          "name": "D4",
          "ticks": 19920,
          "time": 19.761885,
          "velocity": 1
        },
        {
          "duration": 0.23809500000000128,
          "durationTicks": 240,
          "midi": 73,
          "name": "C#5",
          "ticks": 19920,
          "time": 19.761885,
          "velocity": 1
        },
        {
          "duration": 0.23809500000000128,
          "durationTicks": 240,
          "midi": 76,
          "name": "E5",
          "ticks": 19920,
          "time": 19.761885,
          "velocity": 1
        },
        {
          "duration": 0.23809500000000128,
          "durationTicks": 240,
          "midi": 81,
          "name": "A5",
          "ticks": 19920,
          "time": 19.761885,
          "velocity": 1
        },
        {
          "duration": 0.4563487500000001,
          "durationTicks": 460,
          "midi": 52,
          "name": "E3",
          "ticks": 20160,
          "time": 19.99998,
          "velocity": 1
        },
        {
          "duration": 0.11904750000000064,
          "durationTicks": 120,
          "midi": 66,
          "name": "F#4",
          "ticks": 20160,
          "time": 19.99998,
          "velocity": 1
        },
        {
          "duration": 0.11904750000000064,
          "durationTicks": 120,
          "midi": 73,
          "name": "C#5",
          "ticks": 20160,
          "time": 19.99998,
          "velocity": 1
        },
        {
          "duration": 0.23809499999999773,
          "durationTicks": 240,
          "midi": 78,
          "name": "F#5",
          "ticks": 20160,
          "time": 19.99998,
          "velocity": 1
        },
        {
          "duration": 0.23809499999999773,
          "durationTicks": 240,
          "midi": 83,
          "name": "B5",
          "ticks": 20160,
          "time": 19.99998,
          "velocity": 1
        },
        {
          "duration": 0.476189999999999,
          "durationTicks": 480,
          "midi": 59,
          "name": "B3",
          "ticks": 20640,
          "time": 20.47617,
          "velocity": 1
        },
        {
          "duration": 0.476189999999999,
          "durationTicks": 480,
          "midi": 64,
          "name": "E4",
          "ticks": 20640,
          "time": 20.47617,
          "velocity": 1
        },
        {
          "duration": 0.23809500000000128,
          "durationTicks": 240,
          "midi": 78,
          "name": "F#5",
          "ticks": 20640,
          "time": 20.47617,
          "velocity": 1
        },
        {
          "duration": 0.23809500000000128,
          "durationTicks": 240,
          "midi": 83,
          "name": "B5",
          "ticks": 20640,
          "time": 20.47617,
          "velocity": 1
        },
        {
          "duration": 0.23809499999999773,
          "durationTicks": 240,
          "midi": 52,
          "name": "E3",
          "ticks": 20880,
          "time": 20.714265,
          "velocity": 1
        },
        {
          "duration": 0.5952374999999996,
          "durationTicks": 600,
          "midi": 64,
          "name": "E4",
          "ticks": 20880,
          "time": 20.714265,
          "velocity": 1
        },
        {
          "duration": 1.3095225,
          "durationTicks": 1320,
          "midi": 71,
          "name": "B4",
          "ticks": 20880,
          "time": 20.714265,
          "velocity": 1
        },
        {
          "duration": 1.3095225,
          "durationTicks": 1320,
          "midi": 71,
          "name": "B4",
          "ticks": 20880,
          "time": 20.714265,
          "velocity": 1
        },
        {
          "duration": 0.23809499999999773,
          "durationTicks": 240,
          "midi": 76,
          "name": "E5",
          "ticks": 20880,
          "time": 20.714265,
          "velocity": 1
        },
        {
          "duration": 0.23809499999999773,
          "durationTicks": 240,
          "midi": 81,
          "name": "A5",
          "ticks": 20880,
          "time": 20.714265,
          "velocity": 1
        },
        {
          "duration": 0.45634875000000363,
          "durationTicks": 460,
          "midi": 55,
          "name": "G3",
          "ticks": 21120,
          "time": 20.95236,
          "velocity": 1
        },
        {
          "duration": 0.23809500000000128,
          "durationTicks": 240,
          "midi": 78,
          "name": "F#5",
          "ticks": 21120,
          "time": 20.95236,
          "velocity": 1
        },
        {
          "duration": 0.23809500000000128,
          "durationTicks": 240,
          "midi": 83,
          "name": "B5",
          "ticks": 21120,
          "time": 20.95236,
          "velocity": 1
        },
        {
          "duration": 0.11904750000000064,
          "durationTicks": 120,
          "midi": 59,
          "name": "B3",
          "ticks": 21360,
          "time": 21.190455,
          "velocity": 1
        },
        {
          "duration": 0.7142850000000003,
          "durationTicks": 720,
          "midi": 64,
          "name": "E4",
          "ticks": 21360,
          "time": 21.190455,
          "velocity": 1
        },
        {
          "duration": 0.23809499999999773,
          "durationTicks": 240,
          "midi": 78,
          "name": "F#5",
          "ticks": 21600,
          "time": 21.42855,
          "velocity": 1
        },
        {
          "duration": 0.23809499999999773,
          "durationTicks": 240,
          "midi": 83,
          "name": "B5",
          "ticks": 21600,
          "time": 21.42855,
          "velocity": 1
        },
        {
          "duration": 0.2301585000000017,
          "durationTicks": 232,
          "midi": 52,
          "name": "E3",
          "ticks": 21840,
          "time": 21.666645,
          "velocity": 1
        },
        {
          "duration": 0.23809500000000128,
          "durationTicks": 240,
          "midi": 59,
          "name": "B3",
          "ticks": 21840,
          "time": 21.666645,
          "velocity": 1
        },
        {
          "duration": 0.3571425000000019,
          "durationTicks": 360,
          "midi": 64,
          "name": "E4",
          "ticks": 21840,
          "time": 21.666645,
          "velocity": 1
        },
        {
          "duration": 0.23809500000000128,
          "durationTicks": 240,
          "midi": 76,
          "name": "E5",
          "ticks": 21840,
          "time": 21.666645,
          "velocity": 1
        },
        {
          "duration": 0.23809500000000128,
          "durationTicks": 240,
          "midi": 81,
          "name": "A5",
          "ticks": 21840,
          "time": 21.666645,
          "velocity": 1
        },
        {
          "duration": 0.23809500000000128,
          "durationTicks": 240,
          "midi": 78,
          "name": "F#5",
          "ticks": 22080,
          "time": 21.90474,
          "velocity": 1
        },
        {
          "duration": 0.23809500000000128,
          "durationTicks": 240,
          "midi": 83,
          "name": "B5",
          "ticks": 22080,
          "time": 21.90474,
          "velocity": 1
        },
        {
          "duration": 0.2777774999999991,
          "durationTicks": 280,
          "midi": 52,
          "name": "E3",
          "ticks": 22320,
          "time": 22.142835,
          "velocity": 1
        },
        {
          "duration": 0.11904749999999709,
          "durationTicks": 120,
          "midi": 59,
          "name": "B3",
          "ticks": 22320,
          "time": 22.142835,
          "velocity": 1
        },
        {
          "duration": 0.11904749999999709,
          "durationTicks": 120,
          "midi": 64,
          "name": "E4",
          "ticks": 22320,
          "time": 22.142835,
          "velocity": 1
        },
        {
          "duration": 0.23809499999999773,
          "durationTicks": 240,
          "midi": 76,
          "name": "E5",
          "ticks": 22320,
          "time": 22.142835,
          "velocity": 1
        },
        {
          "duration": 0.23809499999999773,
          "durationTicks": 240,
          "midi": 81,
          "name": "A5",
          "ticks": 22320,
          "time": 22.142835,
          "velocity": 1
        },
        {
          "duration": 0.47619000000000256,
          "durationTicks": 480,
          "midi": 59,
          "name": "B3",
          "ticks": 22560,
          "time": 22.38093,
          "velocity": 1
        },
        {
          "duration": 0.47619000000000256,
          "durationTicks": 480,
          "midi": 66,
          "name": "F#4",
          "ticks": 22560,
          "time": 22.38093,
          "velocity": 1
        },
        {
          "duration": 0.23809500000000128,
          "durationTicks": 240,
          "midi": 78,
          "name": "F#5",
          "ticks": 22560,
          "time": 22.38093,
          "velocity": 1
        },
        {
          "duration": 0.23809500000000128,
          "durationTicks": 240,
          "midi": 83,
          "name": "B5",
          "ticks": 22560,
          "time": 22.38093,
          "velocity": 1
        },
        {
          "duration": 0.21825375000000236,
          "durationTicks": 220,
          "midi": 52,
          "name": "E3",
          "ticks": 22800,
          "time": 22.619025,
          "velocity": 1
        },
        {
          "duration": 0.23809500000000128,
          "durationTicks": 240,
          "midi": 54,
          "name": "F#3",
          "ticks": 22800,
          "time": 22.619025,
          "velocity": 1
        },
        {
          "duration": 0.23809500000000128,
          "durationTicks": 240,
          "midi": 59,
          "name": "B3",
          "ticks": 22800,
          "time": 22.619025,
          "velocity": 1
        },
        {
          "duration": 0.23809500000000128,
          "durationTicks": 240,
          "midi": 64,
          "name": "E4",
          "ticks": 22800,
          "time": 22.619025,
          "velocity": 1
        },
        {
          "duration": 0.23809500000000128,
          "durationTicks": 240,
          "midi": 76,
          "name": "E5",
          "ticks": 22800,
          "time": 22.619025,
          "velocity": 1
        },
        {
          "duration": 0.23809500000000128,
          "durationTicks": 240,
          "midi": 81,
          "name": "A5",
          "ticks": 22800,
          "time": 22.619025,
          "velocity": 1
        },
        {
          "duration": 0.07936499999999569,
          "durationTicks": 80,
          "midi": 55,
          "name": "G3",
          "ticks": 23040,
          "time": 22.857120000000002,
          "velocity": 1
        },
        {
          "duration": 0.23809499999999773,
          "durationTicks": 240,
          "midi": 59,
          "name": "B3",
          "ticks": 23040,
          "time": 22.857120000000002,
          "velocity": 1
        },
        {
          "duration": 0.476189999999999,
          "durationTicks": 480,
          "midi": 62,
          "name": "D4",
          "ticks": 23040,
          "time": 22.857120000000002,
          "velocity": 1
        },
        {
          "duration": 0.476189999999999,
          "durationTicks": 480,
          "midi": 71,
          "name": "B4",
          "ticks": 23040,
          "time": 22.857120000000002,
          "velocity": 1
        },
        {
          "duration": 0.23809499999999773,
          "durationTicks": 240,
          "midi": 78,
          "name": "F#5",
          "ticks": 23040,
          "time": 22.857120000000002,
          "velocity": 1
        },
        {
          "duration": 0.23809499999999773,
          "durationTicks": 240,
          "midi": 83,
          "name": "B5",
          "ticks": 23040,
          "time": 22.857120000000002,
          "velocity": 1
        },
        {
          "duration": 0.23809500000000128,
          "durationTicks": 240,
          "midi": 55,
          "name": "G3",
          "ticks": 23280,
          "time": 23.095215,
          "velocity": 1
        },
        {
          "duration": 0.23809500000000128,
          "durationTicks": 240,
          "midi": 59,
          "name": "B3",
          "ticks": 23280,
          "time": 23.095215,
          "velocity": 1
        },
        {
          "duration": 0.23809500000000128,
          "durationTicks": 240,
          "midi": 61,
          "name": "C#4",
          "ticks": 23280,
          "time": 23.095215,
          "velocity": 1
        },
        {
          "duration": 0.23809500000000128,
          "durationTicks": 240,
          "midi": 64,
          "name": "E4",
          "ticks": 23280,
          "time": 23.095215,
          "velocity": 1
        },
        {
          "duration": 0.23809500000000128,
          "durationTicks": 240,
          "midi": 76,
          "name": "E5",
          "ticks": 23280,
          "time": 23.095215,
          "velocity": 1
        },
        {
          "duration": 0.23809500000000128,
          "durationTicks": 240,
          "midi": 81,
          "name": "A5",
          "ticks": 23280,
          "time": 23.095215,
          "velocity": 1
        },
        {
          "duration": 0.23809499999999773,
          "durationTicks": 240,
          "midi": 59,
          "name": "B3",
          "ticks": 23520,
          "time": 23.33331,
          "velocity": 1
        },
        {
          "duration": 0.23809499999999773,
          "durationTicks": 240,
          "midi": 62,
          "name": "D4",
          "ticks": 23520,
          "time": 23.33331,
          "velocity": 1
        },
        {
          "duration": 0.476189999999999,
          "durationTicks": 480,
          "midi": 69,
          "name": "A4",
          "ticks": 23520,
          "time": 23.33331,
          "velocity": 1
        },
        {
          "duration": 0.476189999999999,
          "durationTicks": 480,
          "midi": 74,
          "name": "D5",
          "ticks": 23520,
          "time": 23.33331,
          "velocity": 1
        },
        {
          "duration": 0.23809499999999773,
          "durationTicks": 240,
          "midi": 78,
          "name": "F#5",
          "ticks": 23520,
          "time": 23.33331,
          "velocity": 1
        },
        {
          "duration": 0.23809499999999773,
          "durationTicks": 240,
          "midi": 83,
          "name": "B5",
          "ticks": 23520,
          "time": 23.33331,
          "velocity": 1
        },
        {
          "duration": 0.0396825000000014,
          "durationTicks": 40,
          "midi": 57,
          "name": "A3",
          "ticks": 23760,
          "time": 23.571405,
          "velocity": 1
        },
        {
          "duration": 0.0396825000000014,
          "durationTicks": 40,
          "midi": 58,
          "name": "A#3",
          "ticks": 23760,
          "time": 23.571405,
          "velocity": 1
        },
        {
          "duration": 0.11904750000000064,
          "durationTicks": 120,
          "midi": 59,
          "name": "B3",
          "ticks": 23760,
          "time": 23.571405,
          "velocity": 1
        },
        {
          "duration": 0.11904750000000064,
          "durationTicks": 120,
          "midi": 64,
          "name": "E4",
          "ticks": 23760,
          "time": 23.571405,
          "velocity": 1
        },
        {
          "duration": 0.2976187500000016,
          "durationTicks": 300,
          "midi": 69,
          "name": "A4",
          "ticks": 23760,
          "time": 23.571405,
          "velocity": 1
        },
        {
          "duration": 0.23809500000000128,
          "durationTicks": 240,
          "midi": 76,
          "name": "E5",
          "ticks": 23760,
          "time": 23.571405,
          "velocity": 1
        },
        {
          "duration": 0.23809500000000128,
          "durationTicks": 240,
          "midi": 81,
          "name": "A5",
          "ticks": 23760,
          "time": 23.571405,
          "velocity": 1
        },
        {
          "duration": 0.0396825000000014,
          "durationTicks": 40,
          "midi": 54,
          "name": "F#3",
          "ticks": 23880,
          "time": 23.6904525,
          "velocity": 1
        },
        {
          "duration": 0.0396825000000014,
          "durationTicks": 40,
          "midi": 55,
          "name": "G3",
          "ticks": 23880,
          "time": 23.6904525,
          "velocity": 1
        },
        {
          "duration": 0.0396825000000014,
          "durationTicks": 40,
          "midi": 56,
          "name": "G#3",
          "ticks": 23880,
          "time": 23.6904525,
          "velocity": 1
        },
        {
          "duration": 0.4563487500000001,
          "durationTicks": 460,
          "midi": 52,
          "name": "E3",
          "ticks": 24000,
          "time": 23.8095,
          "velocity": 1
        },
        {
          "duration": 0.0396825000000014,
          "durationTicks": 40,
          "midi": 53,
          "name": "F3",
          "ticks": 24000,
          "time": 23.8095,
          "velocity": 1
        },
        {
          "duration": 0.11904750000000064,
          "durationTicks": 120,
          "midi": 66,
          "name": "F#4",
          "ticks": 24000,
          "time": 23.8095,
          "velocity": 1
        },
        {
          "duration": 0.11904750000000064,
          "durationTicks": 120,
          "midi": 73,
          "name": "C#5",
          "ticks": 24000,
          "time": 23.8095,
          "velocity": 1
        },
        {
          "duration": 0.23809500000000128,
          "durationTicks": 240,
          "midi": 78,
          "name": "F#5",
          "ticks": 24000,
          "time": 23.8095,
          "velocity": 1
        },
        {
          "duration": 0.23809500000000128,
          "durationTicks": 240,
          "midi": 83,
          "name": "B5",
          "ticks": 24000,
          "time": 23.8095,
          "velocity": 1
        },
        {
          "duration": 0.47619000000000256,
          "durationTicks": 480,
          "midi": 59,
          "name": "B3",
          "ticks": 24480,
          "time": 24.28569,
          "velocity": 1
        },
        {
          "duration": 0.47619000000000256,
          "durationTicks": 480,
          "midi": 64,
          "name": "E4",
          "ticks": 24480,
          "time": 24.28569,
          "velocity": 1
        },
        {
          "duration": 0.23809500000000128,
          "durationTicks": 240,
          "midi": 78,
          "name": "F#5",
          "ticks": 24480,
          "time": 24.28569,
          "velocity": 1
        },
        {
          "duration": 0.23809500000000128,
          "durationTicks": 240,
          "midi": 83,
          "name": "B5",
          "ticks": 24480,
          "time": 24.28569,
          "velocity": 1
        },
        {
          "duration": 0.23809500000000128,
          "durationTicks": 240,
          "midi": 52,
          "name": "E3",
          "ticks": 24720,
          "time": 24.523785,
          "velocity": 1
        },
        {
          "duration": 0.5952374999999996,
          "durationTicks": 600,
          "midi": 64,
          "name": "E4",
          "ticks": 24720,
          "time": 24.523785,
          "velocity": 1
        },
        {
          "duration": 1.3095225,
          "durationTicks": 1320,
          "midi": 71,
          "name": "B4",
          "ticks": 24720,
          "time": 24.523785,
          "velocity": 1
        },
        {
          "duration": 0.23809500000000128,
          "durationTicks": 240,
          "midi": 76,
          "name": "E5",
          "ticks": 24720,
          "time": 24.523785,
          "velocity": 1
        },
        {
          "duration": 0.23809500000000128,
          "durationTicks": 240,
          "midi": 81,
          "name": "A5",
          "ticks": 24720,
          "time": 24.523785,
          "velocity": 1
        },
        {
          "duration": 0.42857099999999804,
          "durationTicks": 432,
          "midi": 55,
          "name": "G3",
          "ticks": 24960,
          "time": 24.76188,
          "velocity": 1
        },
        {
          "duration": 0.23809499999999773,
          "durationTicks": 240,
          "midi": 78,
          "name": "F#5",
          "ticks": 24960,
          "time": 24.76188,
          "velocity": 1
        },
        {
          "duration": 0.23809499999999773,
          "durationTicks": 240,
          "midi": 83,
          "name": "B5",
          "ticks": 24960,
          "time": 24.76188,
          "velocity": 1
        },
        {
          "duration": 0.11904750000000064,
          "durationTicks": 120,
          "midi": 59,
          "name": "B3",
          "ticks": 25200,
          "time": 24.999975,
          "velocity": 1
        },
        {
          "duration": 0.5952374999999996,
          "durationTicks": 600,
          "midi": 64,
          "name": "E4",
          "ticks": 25200,
          "time": 24.999975,
          "velocity": 1
        },
        {
          "duration": 0.23809500000000128,
          "durationTicks": 240,
          "midi": 78,
          "name": "F#5",
          "ticks": 25440,
          "time": 25.23807,
          "velocity": 1
        },
        {
          "duration": 0.23809500000000128,
          "durationTicks": 240,
          "midi": 83,
          "name": "B5",
          "ticks": 25440,
          "time": 25.23807,
          "velocity": 1
        },
        {
          "duration": 0.23809499999999773,
          "durationTicks": 240,
          "midi": 52,
          "name": "E3",
          "ticks": 25680,
          "time": 25.476165,
          "velocity": 1
        },
        {
          "duration": 0.11904749999999709,
          "durationTicks": 120,
          "midi": 59,
          "name": "B3",
          "ticks": 25680,
          "time": 25.476165,
          "velocity": 1
        },
        {
          "duration": 0.23809499999999773,
          "durationTicks": 240,
          "midi": 62,
          "name": "D4",
          "ticks": 25680,
          "time": 25.476165,
          "velocity": 1
        },
        {
          "duration": 0.35714249999999836,
          "durationTicks": 360,
          "midi": 64,
          "name": "E4",
          "ticks": 25680,
          "time": 25.476165,
          "velocity": 1
        },
        {
          "duration": 0.23809499999999773,
          "durationTicks": 240,
          "midi": 76,
          "name": "E5",
          "ticks": 25680,
          "time": 25.476165,
          "velocity": 1
        },
        {
          "duration": 0.23809499999999773,
          "durationTicks": 240,
          "midi": 81,
          "name": "A5",
          "ticks": 25680,
          "time": 25.476165,
          "velocity": 1
        },
        {
          "duration": 0.23809500000000128,
          "durationTicks": 240,
          "midi": 78,
          "name": "F#5",
          "ticks": 25920,
          "time": 25.71426,
          "velocity": 1
        },
        {
          "duration": 0.23809500000000128,
          "durationTicks": 240,
          "midi": 83,
          "name": "B5",
          "ticks": 25920,
          "time": 25.71426,
          "velocity": 1
        },
        {
          "duration": 0.2777774999999991,
          "durationTicks": 280,
          "midi": 52,
          "name": "E3",
          "ticks": 26160,
          "time": 25.952355,
          "velocity": 1
        },
        {
          "duration": 0.11904750000000064,
          "durationTicks": 120,
          "midi": 59,
          "name": "B3",
          "ticks": 26160,
          "time": 25.952355,
          "velocity": 1
        },
        {
          "duration": 0.65476125,
          "durationTicks": 660,
          "midi": 62,
          "name": "D4",
          "ticks": 26160,
          "time": 25.952355,
          "velocity": 1
        },
        {
          "duration": 0.11904750000000064,
          "durationTicks": 120,
          "midi": 64,
          "name": "E4",
          "ticks": 26160,
          "time": 25.952355,
          "velocity": 1
        },
        {
          "duration": 0.23809499999999773,
          "durationTicks": 240,
          "midi": 76,
          "name": "E5",
          "ticks": 26160,
          "time": 25.952355,
          "velocity": 1
        },
        {
          "duration": 0.23809499999999773,
          "durationTicks": 240,
          "midi": 81,
          "name": "A5",
          "ticks": 26160,
          "time": 25.952355,
          "velocity": 1
        },
        {
          "duration": 0.47619000000000256,
          "durationTicks": 480,
          "midi": 59,
          "name": "B3",
          "ticks": 26400,
          "time": 26.19045,
          "velocity": 1
        },
        {
          "duration": 0.47619000000000256,
          "durationTicks": 480,
          "midi": 66,
          "name": "F#4",
          "ticks": 26400,
          "time": 26.19045,
          "velocity": 1
        },
        {
          "duration": 0.23809500000000128,
          "durationTicks": 240,
          "midi": 78,
          "name": "F#5",
          "ticks": 26400,
          "time": 26.19045,
          "velocity": 1
        },
        {
          "duration": 0.23809500000000128,
          "durationTicks": 240,
          "midi": 83,
          "name": "B5",
          "ticks": 26400,
          "time": 26.19045,
          "velocity": 1
        },
        {
          "duration": 0.23809500000000128,
          "durationTicks": 240,
          "midi": 52,
          "name": "E3",
          "ticks": 26640,
          "time": 26.428545,
          "velocity": 1
        },
        {
          "duration": 0.3571425000000019,
          "durationTicks": 360,
          "midi": 59,
          "name": "B3",
          "ticks": 26640,
          "time": 26.428545,
          "velocity": 1
        },
        {
          "duration": 0.3571425000000019,
          "durationTicks": 360,
          "midi": 64,
          "name": "E4",
          "ticks": 26640,
          "time": 26.428545,
          "velocity": 1
        },
        {
          "duration": 0.23809500000000128,
          "durationTicks": 240,
          "midi": 76,
          "name": "E5",
          "ticks": 26640,
          "time": 26.428545,
          "velocity": 1
        },
        {
          "duration": 0.23809500000000128,
          "durationTicks": 240,
          "midi": 81,
          "name": "A5",
          "ticks": 26640,
          "time": 26.428545,
          "velocity": 1
        },
        {
          "duration": 0.09126975000000215,
          "durationTicks": 92,
          "midi": 55,
          "name": "G3",
          "ticks": 26880,
          "time": 26.66664,
          "velocity": 1
        },
        {
          "duration": 0.476189999999999,
          "durationTicks": 480,
          "midi": 62,
          "name": "D4",
          "ticks": 26880,
          "time": 26.66664,
          "velocity": 1
        },
        {
          "duration": 0.476189999999999,
          "durationTicks": 480,
          "midi": 69,
          "name": "A4",
          "ticks": 26880,
          "time": 26.66664,
          "velocity": 1
        },
        {
          "duration": 0.23809499999999773,
          "durationTicks": 240,
          "midi": 78,
          "name": "F#5",
          "ticks": 26880,
          "time": 26.66664,
          "velocity": 1
        },
        {
          "duration": 0.23809499999999773,
          "durationTicks": 240,
          "midi": 83,
          "name": "B5",
          "ticks": 26880,
          "time": 26.66664,
          "velocity": 1
        },
        {
          "duration": 0.23809500000000128,
          "durationTicks": 240,
          "midi": 55,
          "name": "G3",
          "ticks": 27120,
          "time": 26.904735,
          "velocity": 1
        },
        {
          "duration": 0.11904750000000064,
          "durationTicks": 120,
          "midi": 59,
          "name": "B3",
          "ticks": 27120,
          "time": 26.904735,
          "velocity": 1
        },
        {
          "duration": 0.11904750000000064,
          "durationTicks": 120,
          "midi": 64,
          "name": "E4",
          "ticks": 27120,
          "time": 26.904735,
          "velocity": 1
        },
        {
          "duration": 0.23809500000000128,
          "durationTicks": 240,
          "midi": 76,
          "name": "E5",
          "ticks": 27120,
          "time": 26.904735,
          "velocity": 1
        },
        {
          "duration": 0.23809500000000128,
          "durationTicks": 240,
          "midi": 81,
          "name": "A5",
          "ticks": 27120,
          "time": 26.904735,
          "velocity": 1
        },
        {
          "duration": 0.23809500000000128,
          "durationTicks": 240,
          "midi": 57,
          "name": "A3",
          "ticks": 27360,
          "time": 27.14283,
          "velocity": 1
        },
        {
          "duration": 0.35714249999999836,
          "durationTicks": 360,
          "midi": 64,
          "name": "E4",
          "ticks": 27360,
          "time": 27.14283,
          "velocity": 1
        },
        {
          "duration": 0.476189999999999,
          "durationTicks": 480,
          "midi": 71,
          "name": "B4",
          "ticks": 27360,
          "time": 27.14283,
          "velocity": 1
        },
        {
          "duration": 0.11904750000000064,
          "durationTicks": 120,
          "midi": 78,
          "name": "F#5",
          "ticks": 27360,
          "time": 27.14283,
          "velocity": 1
        },
        {
          "duration": 0.11904750000000064,
          "durationTicks": 120,
          "midi": 83,
          "name": "B5",
          "ticks": 27360,
          "time": 27.14283,
          "velocity": 1
        },
        {
          "duration": 0.11904749999999709,
          "durationTicks": 120,
          "midi": 59,
          "name": "B3",
          "ticks": 27600,
          "time": 27.380925,
          "velocity": 1
        },
        {
          "duration": 0.23809499999999773,
          "durationTicks": 240,
          "midi": 59,
          "name": "B3",
          "ticks": 27600,
          "time": 27.380925,
          "velocity": 1
        },
        {
          "duration": 0.23809499999999773,
          "durationTicks": 240,
          "midi": 64,
          "name": "E4",
          "ticks": 27600,
          "time": 27.380925,
          "velocity": 1
        },
        {
          "duration": 0.23809499999999773,
          "durationTicks": 240,
          "midi": 78,
          "name": "F#5",
          "ticks": 27600,
          "time": 27.380925,
          "velocity": 1
        },
        {
          "duration": 0.23809499999999773,
          "durationTicks": 240,
          "midi": 83,
          "name": "B5",
          "ticks": 27600,
          "time": 27.380925,
          "velocity": 1
        },
        {
          "duration": 0.47619000000000256,
          "durationTicks": 480,
          "midi": 47,
          "name": "B2",
          "ticks": 27840,
          "time": 27.61902,
          "velocity": 1
        },
        {
          "duration": 0.9523800000000016,
          "durationTicks": 960,
          "midi": 59,
          "name": "B3",
          "ticks": 27840,
          "time": 27.61902,
          "velocity": 1
        },
        {
          "duration": 2.857140000000001,
          "durationTicks": 2880,
          "midi": 66,
          "name": "F#4",
          "ticks": 27840,
          "time": 27.61902,
          "velocity": 1
        },
        {
          "duration": 1.5476175000000012,
          "durationTicks": 1560,
          "midi": 71,
          "name": "B4",
          "ticks": 28080,
          "time": 27.857115,
          "velocity": 1
        },
        {
          "duration": 1.5476175000000012,
          "durationTicks": 1560,
          "midi": 78,
          "name": "F#5",
          "ticks": 28080,
          "time": 27.857115,
          "velocity": 1
        },
        {
          "duration": 0.8333324999999974,
          "durationTicks": 840,
          "midi": 59,
          "name": "B3",
          "ticks": 28320,
          "time": 28.09521,
          "velocity": 1
        },
        {
          "duration": 0.476189999999999,
          "durationTicks": 480,
          "midi": 62,
          "name": "D4",
          "ticks": 28320,
          "time": 28.09521,
          "velocity": 1
        },
        {
          "duration": 0.23809500000000128,
          "durationTicks": 240,
          "midi": 47,
          "name": "B2",
          "ticks": 28560,
          "time": 28.333305,
          "velocity": 1
        },
        {
          "duration": 0.476189999999999,
          "durationTicks": 480,
          "midi": 50,
          "name": "D3",
          "ticks": 28800,
          "time": 28.5714,
          "velocity": 1
        },
        {
          "duration": 0.7142849999999967,
          "durationTicks": 720,
          "midi": 59,
          "name": "B3",
          "ticks": 29040,
          "time": 28.809495000000002,
          "velocity": 1
        },
        {
          "duration": 0.11904749999999709,
          "durationTicks": 120,
          "midi": 62,
          "name": "D4",
          "ticks": 29040,
          "time": 28.809495000000002,
          "velocity": 1
        },
        {
          "duration": 0.25793624999999665,
          "durationTicks": 260,
          "midi": 47,
          "name": "B2",
          "ticks": 29520,
          "time": 29.285685,
          "velocity": 1
        },
        {
          "duration": 0.7142850000000003,
          "durationTicks": 720,
          "midi": 59,
          "name": "B3",
          "ticks": 29520,
          "time": 29.285685,
          "velocity": 1
        },
        {
          "duration": 0.23809499999999773,
          "durationTicks": 240,
          "midi": 64,
          "name": "E4",
          "ticks": 29520,
          "time": 29.285685,
          "velocity": 1
        },
        {
          "duration": 0.2777775000000027,
          "durationTicks": 280,
          "midi": 47,
          "name": "B2",
          "ticks": 30000,
          "time": 29.761875,
          "velocity": 1
        },
        {
          "duration": 0.7142850000000003,
          "durationTicks": 720,
          "midi": 59,
          "name": "B3",
          "ticks": 30000,
          "time": 29.761875,
          "velocity": 1
        },
        {
          "duration": 0.23809500000000128,
          "durationTicks": 240,
          "midi": 62,
          "name": "D4",
          "ticks": 30000,
          "time": 29.761875,
          "velocity": 1
        },
        {
          "duration": 0.23809500000000128,
          "durationTicks": 240,
          "midi": 47,
          "name": "B2",
          "ticks": 30480,
          "time": 30.238065,
          "velocity": 1
        },
        {
          "duration": 0.23809500000000128,
          "durationTicks": 240,
          "midi": 59,
          "name": "B3",
          "ticks": 30480,
          "time": 30.238065,
          "velocity": 1
        },
        {
          "duration": 0.23809500000000128,
          "durationTicks": 240,
          "midi": 64,
          "name": "E4",
          "ticks": 30480,
          "time": 30.238065,
          "velocity": 1
        },
        {
          "duration": 0.05952375000000032,
          "durationTicks": 60,
          "midi": 77,
          "name": "F5",
          "ticks": 30480,
          "time": 30.238065,
          "velocity": 1
        },
        {
          "duration": 0.15873000000000204,
          "durationTicks": 160,
          "midi": 78,
          "name": "F#5",
          "ticks": 30480,
          "time": 30.238065,
          "velocity": 1
        }
      ]
    }
  ]
}

const mid10 = {
  "header": {
    "keySignatures": [
      {
        "key": "C",
        "scale": "major",
        "ticks": 0
      }
    ],
    "meta": [
      {
        "text": "æ è®° ##",
        "ticks": 0,
        "type": "marker"
      },
      {
        "text": "BMF",
        "ticks": 0,
        "type": "text"
      }
    ],
    "name": "I Believe",
    "ppq": 480,
    "tempos": [
      {
        "bpm": 64.99999458333379,
        "ticks": 0
      }
    ],
    "timeSignatures": [
      {
        "ticks": 0,
        "timeSignature": [
          4,
          4
        ],
        "measures": 0
      }
    ]
  },
  "tracks": [
    {
      "channel": 0,
      "controlChanges": {
        "7": [
          {
            "number": 7,
            "ticks": 0,
            "time": 0,
            "value": 0.7086614173228346
          },
          {
            "number": 7,
            "ticks": 0,
            "time": 0,
            "value": 0.9448818897637795
          },
          {
            "number": 7,
            "ticks": 0,
            "time": 0,
            "value": 0.5511811023622047
          },
          {
            "number": 7,
            "ticks": 0,
            "time": 0,
            "value": 0.7086614173228346
          },
          {
            "number": 7,
            "ticks": 0,
            "time": 0,
            "value": 0.9448818897637795
          },
          {
            "number": 7,
            "ticks": 0,
            "time": 0,
            "value": 1
          },
          {
            "number": 7,
            "ticks": 0,
            "time": 0,
            "value": 1
          },
          {
            "number": 7,
            "ticks": 59520,
            "time": 114.461548,
            "value": 1
          }
        ],
        "10": [
          {
            "number": 10,
            "ticks": 0,
            "time": 0,
            "value": 0.5039370078740157
          },
          {
            "number": 10,
            "ticks": 0,
            "time": 0,
            "value": 0.5039370078740157
          },
          {
            "number": 10,
            "ticks": 0,
            "time": 0,
            "value": 0.5039370078740157
          },
          {
            "number": 10,
            "ticks": 0,
            "time": 0,
            "value": 0.5039370078740157
          },
          {
            "number": 10,
            "ticks": 0,
            "time": 0,
            "value": 0.5039370078740157
          },
          {
            "number": 10,
            "ticks": 0,
            "time": 0,
            "value": 0.5039370078740157
          },
          {
            "number": 10,
            "ticks": 0,
            "time": 0,
            "value": 0.5039370078740157
          },
          {
            "number": 10,
            "ticks": 59520,
            "time": 114.461548,
            "value": 0.5039370078740157
          }
        ]
      },
      "pitchBends": [],
      "instrument": {
        "family": "synth lead",
        "number": 80,
        "name": "lead 1 (square)"
      },
      "name": "",
      "notes": [
        {
          "duration": 0.26923079166666664,
          "durationTicks": 140,
          "midi": 79,
          "name": "G5",
          "ticks": 0,
          "time": 0,
          "velocity": 0.6299212598425197
        },
        {
          "duration": 0.11538462499999999,
          "durationTicks": 60,
          "midi": 83,
          "name": "B5",
          "ticks": 0,
          "time": 0,
          "velocity": 0.41732283464566927
        },
        {
          "duration": 1.2538462583333332,
          "durationTicks": 652,
          "midi": 48,
          "name": "C3",
          "ticks": 120,
          "time": 0.23076924999999998,
          "velocity": 0.7401574803149606
        },
        {
          "duration": 0.4923077333333333,
          "durationTicks": 256,
          "midi": 88,
          "name": "E6",
          "ticks": 120,
          "time": 0.23076924999999998,
          "velocity": 0.905511811023622
        },
        {
          "duration": 1.3307693416666666,
          "durationTicks": 692,
          "midi": 55,
          "name": "G3",
          "ticks": 360,
          "time": 0.6923077499999999,
          "velocity": 0.7795275590551181
        },
        {
          "duration": 0.4692308083333334,
          "durationTicks": 244,
          "midi": 83,
          "name": "B5",
          "ticks": 360,
          "time": 0.6923077499999999,
          "velocity": 0.8110236220472441
        },
        {
          "duration": 1.2384616416666665,
          "durationTicks": 644,
          "midi": 62,
          "name": "D4",
          "ticks": 600,
          "time": 1.15384625,
          "velocity": 0.7795275590551181
        },
        {
          "duration": 0.5153846583333332,
          "durationTicks": 268,
          "midi": 81,
          "name": "A5",
          "ticks": 600,
          "time": 1.15384625,
          "velocity": 0.8267716535433071
        },
        {
          "duration": 0.4923077333333332,
          "durationTicks": 256,
          "midi": 79,
          "name": "G5",
          "ticks": 840,
          "time": 1.6153847499999998,
          "velocity": 1
        },
        {
          "duration": 1.4230770416666667,
          "durationTicks": 740,
          "midi": 47,
          "name": "B2",
          "ticks": 1080,
          "time": 2.0769232499999997,
          "velocity": 0.7244094488188977
        },
        {
          "duration": 1.5076924333333332,
          "durationTicks": 784,
          "midi": 86,
          "name": "D6",
          "ticks": 1080,
          "time": 2.0769232499999997,
          "velocity": 1
        },
        {
          "duration": 1.3076924166666668,
          "durationTicks": 680,
          "midi": 69,
          "name": "A4",
          "ticks": 1320,
          "time": 2.5384617499999997,
          "velocity": 0.7559055118110236
        },
        {
          "duration": 0.9538462333333331,
          "durationTicks": 496,
          "midi": 62,
          "name": "D4",
          "ticks": 1560,
          "time": 3.00000025,
          "velocity": 0.7559055118110236
        },
        {
          "duration": 0.38461541666666665,
          "durationTicks": 200,
          "midi": 55,
          "name": "G3",
          "ticks": 1800,
          "time": 3.46153875,
          "velocity": 0.7244094488188977
        },
        {
          "duration": 1.3692308833333335,
          "durationTicks": 712,
          "midi": 45,
          "name": "A2",
          "ticks": 2040,
          "time": 3.9230772499999995,
          "velocity": 0.7007874015748031
        },
        {
          "duration": 0.4615385000000005,
          "durationTicks": 240,
          "midi": 84,
          "name": "C6",
          "ticks": 2040,
          "time": 3.9230772499999995,
          "velocity": 1
        },
        {
          "duration": 1.3692308833333326,
          "durationTicks": 712,
          "midi": 57,
          "name": "A3",
          "ticks": 2280,
          "time": 4.38461575,
          "velocity": 0.7086614173228346
        },
        {
          "duration": 0.43076926666666626,
          "durationTicks": 224,
          "midi": 83,
          "name": "B5",
          "ticks": 2280,
          "time": 4.38461575,
          "velocity": 0.8267716535433071
        },
        {
          "duration": 1.0461539333333336,
          "durationTicks": 544,
          "midi": 60,
          "name": "C4",
          "ticks": 2520,
          "time": 4.84615425,
          "velocity": 0.7401574803149606
        },
        {
          "duration": 0.5307692749999999,
          "durationTicks": 276,
          "midi": 76,
          "name": "E5",
          "ticks": 2520,
          "time": 4.84615425,
          "velocity": 0.8740157480314961
        },
        {
          "duration": 0.4461538833333334,
          "durationTicks": 232,
          "midi": 64,
          "name": "E4",
          "ticks": 2760,
          "time": 5.307692749999999,
          "velocity": 0.7559055118110236
        },
        {
          "duration": 0.45384619166666695,
          "durationTicks": 236,
          "midi": 77,
          "name": "F5",
          "ticks": 2760,
          "time": 5.307692749999999,
          "velocity": 0.9133858267716536
        },
        {
          "duration": 1.400000116666666,
          "durationTicks": 728,
          "midi": 50,
          "name": "D3",
          "ticks": 3000,
          "time": 5.76923125,
          "velocity": 0.9606299212598425
        },
        {
          "duration": 0.946153925,
          "durationTicks": 492,
          "midi": 78,
          "name": "F#5",
          "ticks": 3000,
          "time": 5.76923125,
          "velocity": 0.9921259842519685
        },
        {
          "duration": 1.4230770416666658,
          "durationTicks": 740,
          "midi": 60,
          "name": "C4",
          "ticks": 3240,
          "time": 6.230769749999999,
          "velocity": 0.7007874015748031
        },
        {
          "duration": 1.1384616333333328,
          "durationTicks": 592,
          "midi": 69,
          "name": "A4",
          "ticks": 3480,
          "time": 6.692308249999999,
          "velocity": 0.7401574803149606
        },
        {
          "duration": 0.9307693083333328,
          "durationTicks": 484,
          "midi": 83,
          "name": "B5",
          "ticks": 3480,
          "time": 6.692308249999999,
          "velocity": 0.9921259842519685
        },
        {
          "duration": 1.3846155000000007,
          "durationTicks": 720,
          "midi": 43,
          "name": "G2",
          "ticks": 3960,
          "time": 7.615385249999999,
          "velocity": 0.7874015748031497
        },
        {
          "duration": 1.8384616916666676,
          "durationTicks": 956,
          "midi": 43,
          "name": "G2",
          "ticks": 3960,
          "time": 7.615385249999999,
          "velocity": 0.7401574803149606
        },
        {
          "duration": 1.4076924250000005,
          "durationTicks": 732,
          "midi": 55,
          "name": "G3",
          "ticks": 3960,
          "time": 7.615385249999999,
          "velocity": 0.7874015748031497
        },
        {
          "duration": 1.6000001333333334,
          "durationTicks": 832,
          "midi": 55,
          "name": "G3",
          "ticks": 3960,
          "time": 7.615385249999999,
          "velocity": 0.8110236220472441
        },
        {
          "duration": 1.8384616916666676,
          "durationTicks": 956,
          "midi": 59,
          "name": "B3",
          "ticks": 3960,
          "time": 7.615385249999999,
          "velocity": 0.5905511811023622
        },
        {
          "duration": 1.7923078416666662,
          "durationTicks": 932,
          "midi": 67,
          "name": "G4",
          "ticks": 3960,
          "time": 7.615385249999999,
          "velocity": 0.3858267716535433
        },
        {
          "duration": 0.4230769583333345,
          "durationTicks": 220,
          "midi": 79,
          "name": "G5",
          "ticks": 3960,
          "time": 7.615385249999999,
          "velocity": 1
        },
        {
          "duration": 0.507692350000001,
          "durationTicks": 264,
          "midi": 50,
          "name": "D3",
          "ticks": 4200,
          "time": 8.076923749999999,
          "velocity": 0.7874015748031497
        },
        {
          "duration": 1.3461539583333337,
          "durationTicks": 700,
          "midi": 55,
          "name": "G3",
          "ticks": 4200,
          "time": 8.076923749999999,
          "velocity": 0.6299212598425197
        },
        {
          "duration": 0.9692308500000006,
          "durationTicks": 504,
          "midi": 62,
          "name": "D4",
          "ticks": 4200,
          "time": 8.076923749999999,
          "velocity": 0.8267716535433071
        },
        {
          "duration": 0.4615385000000014,
          "durationTicks": 240,
          "midi": 57,
          "name": "A3",
          "ticks": 4440,
          "time": 8.538462249999998,
          "velocity": 0.6771653543307087
        },
        {
          "duration": 0.9538462333333335,
          "durationTicks": 496,
          "midi": 59,
          "name": "B3",
          "ticks": 4440,
          "time": 8.538462249999998,
          "velocity": 0.7401574803149606
        },
        {
          "duration": 0.923077000000001,
          "durationTicks": 480,
          "midi": 67,
          "name": "G4",
          "ticks": 4440,
          "time": 8.538462249999998,
          "velocity": 0.8740157480314961
        },
        {
          "duration": 0.5000000416666648,
          "durationTicks": 260,
          "midi": 59,
          "name": "B3",
          "ticks": 4680,
          "time": 9.00000075,
          "velocity": 0.7244094488188977
        },
        {
          "duration": 0.4000000333333329,
          "durationTicks": 208,
          "midi": 62,
          "name": "D4",
          "ticks": 4680,
          "time": 9.00000075,
          "velocity": 0.8267716535433071
        },
        {
          "duration": 0.4923077333333321,
          "durationTicks": 256,
          "midi": 71,
          "name": "B4",
          "ticks": 4680,
          "time": 9.00000075,
          "velocity": 0.8110236220472441
        },
        {
          "duration": 1.4615385833333328,
          "durationTicks": 760,
          "midi": 43,
          "name": "G2",
          "ticks": 4920,
          "time": 9.46153925,
          "velocity": 0.25984251968503935
        },
        {
          "duration": 3.1692310333333324,
          "durationTicks": 1648,
          "midi": 43,
          "name": "G2",
          "ticks": 4920,
          "time": 9.46153925,
          "velocity": 0.7559055118110236
        },
        {
          "duration": 1.0000000833333331,
          "durationTicks": 520,
          "midi": 52,
          "name": "E3",
          "ticks": 4920,
          "time": 9.46153925,
          "velocity": 0.7244094488188977
        },
        {
          "duration": 1.0153846999999985,
          "durationTicks": 528,
          "midi": 55,
          "name": "G3",
          "ticks": 4920,
          "time": 9.46153925,
          "velocity": 0.7874015748031497
        },
        {
          "duration": 1.3461539583333337,
          "durationTicks": 700,
          "midi": 55,
          "name": "G3",
          "ticks": 4920,
          "time": 9.46153925,
          "velocity": 0.905511811023622
        },
        {
          "duration": 0.9692308500000006,
          "durationTicks": 504,
          "midi": 60,
          "name": "C4",
          "ticks": 4920,
          "time": 9.46153925,
          "velocity": 0.6377952755905512
        },
        {
          "duration": 0.984615466666666,
          "durationTicks": 512,
          "midi": 64,
          "name": "E4",
          "ticks": 4920,
          "time": 9.46153925,
          "velocity": 0.49606299212598426
        },
        {
          "duration": 1.0000000833333331,
          "durationTicks": 520,
          "midi": 64,
          "name": "E4",
          "ticks": 4920,
          "time": 9.46153925,
          "velocity": 0.7952755905511811
        },
        {
          "duration": 0.9615385416666662,
          "durationTicks": 500,
          "midi": 72,
          "name": "C5",
          "ticks": 4920,
          "time": 9.46153925,
          "velocity": 0.905511811023622
        },
        {
          "duration": 1.192307791666666,
          "durationTicks": 620,
          "midi": 55,
          "name": "G3",
          "ticks": 5160,
          "time": 9.92307775,
          "velocity": 0.6929133858267716
        },
        {
          "duration": 0.9615385416666662,
          "durationTicks": 500,
          "midi": 64,
          "name": "E4",
          "ticks": 5160,
          "time": 9.92307775,
          "velocity": 0.7007874015748031
        },
        {
          "duration": 0.5230769666666664,
          "durationTicks": 272,
          "midi": 54,
          "name": "F#3",
          "ticks": 5400,
          "time": 10.384616249999999,
          "velocity": 0.6614173228346457
        },
        {
          "duration": 0.9923077750000004,
          "durationTicks": 516,
          "midi": 62,
          "name": "D4",
          "ticks": 5400,
          "time": 10.384616249999999,
          "velocity": 0.6614173228346457
        },
        {
          "duration": 0.923077000000001,
          "durationTicks": 480,
          "midi": 66,
          "name": "F#4",
          "ticks": 5400,
          "time": 10.384616249999999,
          "velocity": 0.49606299212598426
        },
        {
          "duration": 0.9538462333333335,
          "durationTicks": 496,
          "midi": 67,
          "name": "G4",
          "ticks": 5400,
          "time": 10.384616249999999,
          "velocity": 0.8818897637795275
        },
        {
          "duration": 0.9692308500000006,
          "durationTicks": 504,
          "midi": 67,
          "name": "G4",
          "ticks": 5400,
          "time": 10.384616249999999,
          "velocity": 0.3937007874015748
        },
        {
          "duration": 0.9923077750000004,
          "durationTicks": 516,
          "midi": 76,
          "name": "E5",
          "ticks": 5400,
          "time": 10.384616249999999,
          "velocity": 0.8503937007874016
        },
        {
          "duration": 0.4692308083333341,
          "durationTicks": 244,
          "midi": 55,
          "name": "G3",
          "ticks": 5640,
          "time": 10.846154749999998,
          "velocity": 0.3464566929133858
        },
        {
          "duration": 1.4461539666666656,
          "durationTicks": 752,
          "midi": 43,
          "name": "G2",
          "ticks": 5880,
          "time": 11.30769325,
          "velocity": 0.7401574803149606
        },
        {
          "duration": 0.9692308500000006,
          "durationTicks": 504,
          "midi": 50,
          "name": "D3",
          "ticks": 5880,
          "time": 11.30769325,
          "velocity": 0.6771653543307087
        },
        {
          "duration": 1.3000001083333323,
          "durationTicks": 676,
          "midi": 55,
          "name": "G3",
          "ticks": 5880,
          "time": 11.30769325,
          "velocity": 0.7874015748031497
        },
        {
          "duration": 1.3769231916666662,
          "durationTicks": 716,
          "midi": 55,
          "name": "G3",
          "ticks": 5880,
          "time": 11.30769325,
          "velocity": 0.9133858267716536
        },
        {
          "duration": 1.4307693500000003,
          "durationTicks": 744,
          "midi": 59,
          "name": "B3",
          "ticks": 5880,
          "time": 11.30769325,
          "velocity": 0.5905511811023622
        },
        {
          "duration": 0.9076923833333321,
          "durationTicks": 472,
          "midi": 62,
          "name": "D4",
          "ticks": 5880,
          "time": 11.30769325,
          "velocity": 0.3858267716535433
        },
        {
          "duration": 1.3538462666666664,
          "durationTicks": 704,
          "midi": 62,
          "name": "D4",
          "ticks": 5880,
          "time": 11.30769325,
          "velocity": 0.8031496062992126
        },
        {
          "duration": 1.3769231916666662,
          "durationTicks": 716,
          "midi": 74,
          "name": "D5",
          "ticks": 5880,
          "time": 11.30769325,
          "velocity": 0.8740157480314961
        },
        {
          "duration": 1.153846249999999,
          "durationTicks": 600,
          "midi": 50,
          "name": "D3",
          "ticks": 6120,
          "time": 11.76923175,
          "velocity": 0.6614173228346457
        },
        {
          "duration": 1.3461539583333337,
          "durationTicks": 700,
          "midi": 55,
          "name": "G3",
          "ticks": 6120,
          "time": 11.76923175,
          "velocity": 0.5354330708661418
        },
        {
          "duration": 1.230769333333333,
          "durationTicks": 640,
          "midi": 62,
          "name": "D4",
          "ticks": 6120,
          "time": 11.76923175,
          "velocity": 0.7244094488188977
        },
        {
          "duration": 0.46153849999999963,
          "durationTicks": 240,
          "midi": 57,
          "name": "A3",
          "ticks": 6360,
          "time": 12.230770249999999,
          "velocity": 0.6377952755905512
        },
        {
          "duration": 0.9153846916666666,
          "durationTicks": 476,
          "midi": 59,
          "name": "B3",
          "ticks": 6360,
          "time": 12.230770249999999,
          "velocity": 0.6771653543307087
        },
        {
          "duration": 0.3538461833333333,
          "durationTicks": 184,
          "midi": 67,
          "name": "G4",
          "ticks": 6360,
          "time": 12.230770249999999,
          "velocity": 0.6220472440944882
        },
        {
          "duration": 0.507692350000001,
          "durationTicks": 264,
          "midi": 59,
          "name": "B3",
          "ticks": 6600,
          "time": 12.692308749999999,
          "velocity": 0.6614173228346457
        },
        {
          "duration": 0.46153849999999963,
          "durationTicks": 240,
          "midi": 62,
          "name": "D4",
          "ticks": 6600,
          "time": 12.692308749999999,
          "velocity": 0.7086614173228346
        },
        {
          "duration": 0.10000000833333367,
          "durationTicks": 52,
          "midi": 71,
          "name": "B4",
          "ticks": 6600,
          "time": 12.692308749999999,
          "velocity": 0.4566929133858268
        },
        {
          "duration": 1.853846308333333,
          "durationTicks": 964,
          "midi": 38,
          "name": "D2",
          "ticks": 6840,
          "time": 13.153847249999998,
          "velocity": 0.6771653543307087
        },
        {
          "duration": 0.9000000749999995,
          "durationTicks": 468,
          "midi": 50,
          "name": "D3",
          "ticks": 6840,
          "time": 13.153847249999998,
          "velocity": 0.7874015748031497
        },
        {
          "duration": 1.3692308833333335,
          "durationTicks": 712,
          "midi": 50,
          "name": "D3",
          "ticks": 6840,
          "time": 13.153847249999998,
          "velocity": 0.6299212598425197
        },
        {
          "duration": 1.738461683333334,
          "durationTicks": 904,
          "midi": 54,
          "name": "F#3",
          "ticks": 6840,
          "time": 13.153847249999998,
          "velocity": 0.7401574803149606
        },
        {
          "duration": 1.853846308333333,
          "durationTicks": 964,
          "midi": 57,
          "name": "A3",
          "ticks": 6840,
          "time": 13.153847249999998,
          "velocity": 0.7244094488188977
        },
        {
          "duration": 0.9923077750000004,
          "durationTicks": 516,
          "midi": 60,
          "name": "C4",
          "ticks": 6840,
          "time": 13.153847249999998,
          "velocity": 0.6377952755905512
        },
        {
          "duration": 1.3692308833333335,
          "durationTicks": 712,
          "midi": 62,
          "name": "D4",
          "ticks": 6840,
          "time": 13.153847249999998,
          "velocity": 0.5669291338582677
        },
        {
          "duration": 0.923077000000001,
          "durationTicks": 480,
          "midi": 67,
          "name": "G4",
          "ticks": 6840,
          "time": 13.153847249999998,
          "velocity": 0.5905511811023622
        },
        {
          "duration": 1.3384616499999993,
          "durationTicks": 696,
          "midi": 72,
          "name": "C5",
          "ticks": 6840,
          "time": 13.153847249999998,
          "velocity": 0.4330708661417323
        },
        {
          "duration": 0.6769231333333323,
          "durationTicks": 352,
          "midi": 48,
          "name": "C3",
          "ticks": 7320,
          "time": 14.07692425,
          "velocity": 0.6299212598425197
        },
        {
          "duration": 0.9076923833333339,
          "durationTicks": 472,
          "midi": 62,
          "name": "D4",
          "ticks": 7320,
          "time": 14.07692425,
          "velocity": 0.47244094488188976
        },
        {
          "duration": 0.6769231333333323,
          "durationTicks": 352,
          "midi": 66,
          "name": "F#4",
          "ticks": 7320,
          "time": 14.07692425,
          "velocity": 0.49606299212598426
        },
        {
          "duration": 1.6000001333333334,
          "durationTicks": 832,
          "midi": 43,
          "name": "G2",
          "ticks": 7800,
          "time": 15.000001249999999,
          "velocity": 0.9921259842519685
        },
        {
          "duration": 1.7538462999999975,
          "durationTicks": 912,
          "midi": 55,
          "name": "G3",
          "ticks": 7800,
          "time": 15.000001249999999,
          "velocity": 0.7874015748031497
        },
        {
          "duration": 0.923077000000001,
          "durationTicks": 480,
          "midi": 50,
          "name": "D3",
          "ticks": 8040,
          "time": 15.461539749999998,
          "velocity": 0.9921259842519685
        },
        {
          "duration": 0.923077000000001,
          "durationTicks": 480,
          "midi": 59,
          "name": "B3",
          "ticks": 8280,
          "time": 15.923078249999998,
          "velocity": 0.9921259842519685
        },
        {
          "duration": 0.40769234166666557,
          "durationTicks": 212,
          "midi": 74,
          "name": "D5",
          "ticks": 8280,
          "time": 15.923078249999998,
          "velocity": 0.968503937007874
        },
        {
          "duration": 0.476923116666665,
          "durationTicks": 248,
          "midi": 55,
          "name": "G3",
          "ticks": 8520,
          "time": 16.38461675,
          "velocity": 0.9921259842519685
        },
        {
          "duration": 0.2153846333333327,
          "durationTicks": 112,
          "midi": 67,
          "name": "G4",
          "ticks": 8520,
          "time": 16.38461675,
          "velocity": 0.968503937007874
        },
        {
          "duration": 0.4846154250000012,
          "durationTicks": 252,
          "midi": 69,
          "name": "A4",
          "ticks": 8640,
          "time": 16.615385999999997,
          "velocity": 0.968503937007874
        },
        {
          "duration": 0.46153849999999963,
          "durationTicks": 240,
          "midi": 43,
          "name": "G2",
          "ticks": 8760,
          "time": 16.84615525,
          "velocity": 0.9921259842519685
        },
        {
          "duration": 1.7076924499999997,
          "durationTicks": 888,
          "midi": 55,
          "name": "G3",
          "ticks": 8760,
          "time": 16.84615525,
          "velocity": 0.7874015748031497
        },
        {
          "duration": 0.46153849999999963,
          "durationTicks": 240,
          "midi": 62,
          "name": "D4",
          "ticks": 8760,
          "time": 16.84615525,
          "velocity": 0.7401574803149606
        },
        {
          "duration": 0.46153849999999963,
          "durationTicks": 240,
          "midi": 66,
          "name": "F#4",
          "ticks": 8760,
          "time": 16.84615525,
          "velocity": 0.7401574803149606
        },
        {
          "duration": 0.46153849999999963,
          "durationTicks": 240,
          "midi": 50,
          "name": "D3",
          "ticks": 9000,
          "time": 17.30769375,
          "velocity": 0.9921259842519685
        },
        {
          "duration": 0.46153849999999963,
          "durationTicks": 240,
          "midi": 57,
          "name": "A3",
          "ticks": 9240,
          "time": 17.769232249999998,
          "velocity": 0.9921259842519685
        },
        {
          "duration": 0.46153849999999963,
          "durationTicks": 240,
          "midi": 62,
          "name": "D4",
          "ticks": 9240,
          "time": 17.769232249999998,
          "velocity": 0.9921259842519685
        },
        {
          "duration": 0.46153849999999963,
          "durationTicks": 240,
          "midi": 57,
          "name": "A3",
          "ticks": 9480,
          "time": 18.230770749999998,
          "velocity": 0.9921259842519685
        },
        {
          "duration": 0.21538463333333624,
          "durationTicks": 112,
          "midi": 69,
          "name": "A4",
          "ticks": 9480,
          "time": 18.230770749999998,
          "velocity": 0.968503937007874
        },
        {
          "duration": 0.2153846333333327,
          "durationTicks": 112,
          "midi": 71,
          "name": "B4",
          "ticks": 9600,
          "time": 18.46154,
          "velocity": 0.968503937007874
        },
        {
          "duration": 0.46153849999999963,
          "durationTicks": 240,
          "midi": 43,
          "name": "G2",
          "ticks": 9720,
          "time": 18.692309249999997,
          "velocity": 0.9921259842519685
        },
        {
          "duration": 1.6230770583333332,
          "durationTicks": 844,
          "midi": 55,
          "name": "G3",
          "ticks": 9720,
          "time": 18.692309249999997,
          "velocity": 0.7874015748031497
        },
        {
          "duration": 0.4230769583333327,
          "durationTicks": 220,
          "midi": 72,
          "name": "C5",
          "ticks": 9720,
          "time": 18.692309249999997,
          "velocity": 0.968503937007874
        },
        {
          "duration": 0.46153849999999963,
          "durationTicks": 240,
          "midi": 52,
          "name": "E3",
          "ticks": 9960,
          "time": 19.153847749999997,
          "velocity": 0.9921259842519685
        },
        {
          "duration": 0.19230770833333466,
          "durationTicks": 100,
          "midi": 71,
          "name": "B4",
          "ticks": 9960,
          "time": 19.153847749999997,
          "velocity": 0.968503937007874
        },
        {
          "duration": 0.4461538833333343,
          "durationTicks": 232,
          "midi": 72,
          "name": "C5",
          "ticks": 10080,
          "time": 19.384617,
          "velocity": 0.968503937007874
        },
        {
          "duration": 0.4615385000000032,
          "durationTicks": 240,
          "midi": 60,
          "name": "C4",
          "ticks": 10200,
          "time": 19.615386249999997,
          "velocity": 0.9921259842519685
        },
        {
          "duration": 0.4230769583333327,
          "durationTicks": 220,
          "midi": 74,
          "name": "D5",
          "ticks": 10320,
          "time": 19.8461555,
          "velocity": 0.968503937007874
        },
        {
          "duration": 0.46153849999999963,
          "durationTicks": 240,
          "midi": 55,
          "name": "G3",
          "ticks": 10440,
          "time": 20.07692475,
          "velocity": 0.9921259842519685
        },
        {
          "duration": 0.46153849999999963,
          "durationTicks": 240,
          "midi": 74,
          "name": "D5",
          "ticks": 10560,
          "time": 20.307693999999998,
          "velocity": 0.968503937007874
        },
        {
          "duration": 0.9230769999999993,
          "durationTicks": 480,
          "midi": 43,
          "name": "G2",
          "ticks": 10680,
          "time": 20.53846325,
          "velocity": 0.9921259842519685
        },
        {
          "duration": 0.46153849999999963,
          "durationTicks": 240,
          "midi": 55,
          "name": "G3",
          "ticks": 10680,
          "time": 20.53846325,
          "velocity": 0.9921259842519685
        },
        {
          "duration": 0.9000000750000012,
          "durationTicks": 468,
          "midi": 55,
          "name": "G3",
          "ticks": 10680,
          "time": 20.53846325,
          "velocity": 0.7874015748031497
        },
        {
          "duration": 0.9230769999999993,
          "durationTicks": 480,
          "midi": 59,
          "name": "B3",
          "ticks": 10680,
          "time": 20.53846325,
          "velocity": 0.9921259842519685
        },
        {
          "duration": 0.1153846250000008,
          "durationTicks": 60,
          "midi": 71,
          "name": "B4",
          "ticks": 10800,
          "time": 20.769232499999998,
          "velocity": 0.968503937007874
        },
        {
          "duration": 0.1153846250000008,
          "durationTicks": 60,
          "midi": 72,
          "name": "C5",
          "ticks": 10800,
          "time": 20.769232499999998,
          "velocity": 0.968503937007874
        },
        {
          "duration": 0.476923116666665,
          "durationTicks": 248,
          "midi": 55,
          "name": "G3",
          "ticks": 10920,
          "time": 21.00000175,
          "velocity": 0.9921259842519685
        },
        {
          "duration": 0.9230769999999993,
          "durationTicks": 480,
          "midi": 39,
          "name": "D#2",
          "ticks": 11160,
          "time": 21.46154025,
          "velocity": 0.9921259842519685
        },
        {
          "duration": 0.9615385416666662,
          "durationTicks": 500,
          "midi": 51,
          "name": "D#3",
          "ticks": 11160,
          "time": 21.46154025,
          "velocity": 0.7874015748031497
        },
        {
          "duration": 0.9230769999999993,
          "durationTicks": 480,
          "midi": 54,
          "name": "F#3",
          "ticks": 11160,
          "time": 21.46154025,
          "velocity": 0.9921259842519685
        },
        {
          "duration": 0.9230769999999993,
          "durationTicks": 480,
          "midi": 59,
          "name": "B3",
          "ticks": 11160,
          "time": 21.46154025,
          "velocity": 0.9921259842519685
        },
        {
          "duration": 0.46153849999999963,
          "durationTicks": 240,
          "midi": 57,
          "name": "A3",
          "ticks": 11400,
          "time": 21.92307875,
          "velocity": 0.9921259842519685
        },
        {
          "duration": 0.46153849999999963,
          "durationTicks": 240,
          "midi": 40,
          "name": "E2",
          "ticks": 11640,
          "time": 22.384617249999998,
          "velocity": 0.9921259842519685
        },
        {
          "duration": 1.9153847749999997,
          "durationTicks": 996,
          "midi": 52,
          "name": "E3",
          "ticks": 11640,
          "time": 22.384617249999998,
          "velocity": 0.7874015748031497
        },
        {
          "duration": 0.46153849999999963,
          "durationTicks": 240,
          "midi": 55,
          "name": "G3",
          "ticks": 11880,
          "time": 22.846155749999998,
          "velocity": 0.9921259842519685
        },
        {
          "duration": 0.46153849999999963,
          "durationTicks": 240,
          "midi": 62,
          "name": "D4",
          "ticks": 12120,
          "time": 23.307694249999997,
          "velocity": 0.9921259842519685
        },
        {
          "duration": 0.4230769583333327,
          "durationTicks": 220,
          "midi": 71,
          "name": "B4",
          "ticks": 12120,
          "time": 23.307694249999997,
          "velocity": 0.968503937007874
        },
        {
          "duration": 0.46153849999999963,
          "durationTicks": 240,
          "midi": 59,
          "name": "B3",
          "ticks": 12360,
          "time": 23.769232749999997,
          "velocity": 0.9921259842519685
        },
        {
          "duration": 0.21538463333333624,
          "durationTicks": 112,
          "midi": 64,
          "name": "E4",
          "ticks": 12360,
          "time": 23.769232749999997,
          "velocity": 0.968503937007874
        },
        {
          "duration": 0.5769231250000004,
          "durationTicks": 300,
          "midi": 69,
          "name": "A4",
          "ticks": 12480,
          "time": 24.000002,
          "velocity": 0.968503937007874
        },
        {
          "duration": 0.4615385000000032,
          "durationTicks": 240,
          "midi": 45,
          "name": "A2",
          "ticks": 12600,
          "time": 24.230771249999997,
          "velocity": 0.9921259842519685
        },
        {
          "duration": 1.846154000000002,
          "durationTicks": 960,
          "midi": 57,
          "name": "A3",
          "ticks": 12600,
          "time": 24.230771249999997,
          "velocity": 0.7874015748031497
        },
        {
          "duration": 0.4615385000000032,
          "durationTicks": 240,
          "midi": 61,
          "name": "C#4",
          "ticks": 12600,
          "time": 24.230771249999997,
          "velocity": 0.9921259842519685
        },
        {
          "duration": 0.46153849999999963,
          "durationTicks": 240,
          "midi": 52,
          "name": "E3",
          "ticks": 12840,
          "time": 24.69230975,
          "velocity": 0.9921259842519685
        },
        {
          "duration": 0.46153849999999963,
          "durationTicks": 240,
          "midi": 61,
          "name": "C#4",
          "ticks": 13080,
          "time": 25.15384825,
          "velocity": 0.9921259842519685
        },
        {
          "duration": 0.46153849999999963,
          "durationTicks": 240,
          "midi": 64,
          "name": "E4",
          "ticks": 13080,
          "time": 25.15384825,
          "velocity": 0.9921259842519685
        },
        {
          "duration": 0.4692308083333323,
          "durationTicks": 244,
          "midi": 57,
          "name": "A3",
          "ticks": 13320,
          "time": 25.61538675,
          "velocity": 0.9921259842519685
        },
        {
          "duration": 0.2153846333333327,
          "durationTicks": 112,
          "midi": 64,
          "name": "E4",
          "ticks": 13320,
          "time": 25.61538675,
          "velocity": 0.968503937007874
        },
        {
          "duration": 0.21538463333333624,
          "durationTicks": 112,
          "midi": 66,
          "name": "F#4",
          "ticks": 13440,
          "time": 25.846155999999997,
          "velocity": 0.968503937007874
        },
        {
          "duration": 0.46153849999999963,
          "durationTicks": 240,
          "midi": 48,
          "name": "C3",
          "ticks": 13560,
          "time": 26.07692525,
          "velocity": 0.9921259842519685
        },
        {
          "duration": 0.9230769999999993,
          "durationTicks": 480,
          "midi": 60,
          "name": "C4",
          "ticks": 13560,
          "time": 26.07692525,
          "velocity": 0.7874015748031497
        },
        {
          "duration": 0.46153849999999963,
          "durationTicks": 240,
          "midi": 66,
          "name": "F#4",
          "ticks": 13560,
          "time": 26.07692525,
          "velocity": 0.4881889763779528
        },
        {
          "duration": 0.4230769583333327,
          "durationTicks": 220,
          "midi": 67,
          "name": "G4",
          "ticks": 13560,
          "time": 26.07692525,
          "velocity": 0.968503937007874
        },
        {
          "duration": 0.46153849999999963,
          "durationTicks": 240,
          "midi": 69,
          "name": "A4",
          "ticks": 13560,
          "time": 26.07692525,
          "velocity": 0.7401574803149606
        },
        {
          "duration": 0.46153849999999963,
          "durationTicks": 240,
          "midi": 57,
          "name": "A3",
          "ticks": 13800,
          "time": 26.53846375,
          "velocity": 0.7401574803149606
        },
        {
          "duration": 0.9230769999999993,
          "durationTicks": 480,
          "midi": 60,
          "name": "C4",
          "ticks": 13800,
          "time": 26.53846375,
          "velocity": 0.4881889763779528
        },
        {
          "duration": 0.46153849999999963,
          "durationTicks": 240,
          "midi": 63,
          "name": "D#4",
          "ticks": 13800,
          "time": 26.53846375,
          "velocity": 0.4881889763779528
        },
        {
          "duration": 0.2153846333333327,
          "durationTicks": 112,
          "midi": 66,
          "name": "F#4",
          "ticks": 13800,
          "time": 26.53846375,
          "velocity": 0.968503937007874
        },
        {
          "duration": 0.4461538833333343,
          "durationTicks": 232,
          "midi": 67,
          "name": "G4",
          "ticks": 13920,
          "time": 26.769232999999996,
          "velocity": 0.968503937007874
        },
        {
          "duration": 0.6769231333333359,
          "durationTicks": 352,
          "midi": 60,
          "name": "C4",
          "ticks": 14040,
          "time": 27.000002249999998,
          "velocity": 0.7401574803149606
        },
        {
          "duration": 0.46153849999999963,
          "durationTicks": 240,
          "midi": 66,
          "name": "F#4",
          "ticks": 14040,
          "time": 27.000002249999998,
          "velocity": 0.4881889763779528
        },
        {
          "duration": 0.46153849999999963,
          "durationTicks": 240,
          "midi": 69,
          "name": "A4",
          "ticks": 14040,
          "time": 27.000002249999998,
          "velocity": 0.7401574803149606
        },
        {
          "duration": 0.42307695833332915,
          "durationTicks": 220,
          "midi": 69,
          "name": "A4",
          "ticks": 14160,
          "time": 27.2307715,
          "velocity": 0.968503937007874
        },
        {
          "duration": 0.46153849999999963,
          "durationTicks": 240,
          "midi": 60,
          "name": "C4",
          "ticks": 14280,
          "time": 27.461540749999998,
          "velocity": 0.4881889763779528
        },
        {
          "duration": 0.46153849999999963,
          "durationTicks": 240,
          "midi": 63,
          "name": "D#4",
          "ticks": 14280,
          "time": 27.461540749999998,
          "velocity": 0.4881889763779528
        },
        {
          "duration": 0.7538462166666662,
          "durationTicks": 392,
          "midi": 69,
          "name": "A4",
          "ticks": 14400,
          "time": 27.69231,
          "velocity": 0.968503937007874
        },
        {
          "duration": 0.46153849999999963,
          "durationTicks": 240,
          "midi": 50,
          "name": "D3",
          "ticks": 14520,
          "time": 27.923079249999997,
          "velocity": 0.9921259842519685
        },
        {
          "duration": 0.46153849999999963,
          "durationTicks": 240,
          "midi": 62,
          "name": "D4",
          "ticks": 14520,
          "time": 27.923079249999997,
          "velocity": 0.4881889763779528
        },
        {
          "duration": 1.6153847500000005,
          "durationTicks": 840,
          "midi": 62,
          "name": "D4",
          "ticks": 14520,
          "time": 27.923079249999997,
          "velocity": 0.7874015748031497
        },
        {
          "duration": 0.46153849999999963,
          "durationTicks": 240,
          "midi": 66,
          "name": "F#4",
          "ticks": 14520,
          "time": 27.923079249999997,
          "velocity": 0.4881889763779528
        },
        {
          "duration": 0.46153849999999963,
          "durationTicks": 240,
          "midi": 57,
          "name": "A3",
          "ticks": 14760,
          "time": 28.384617749999997,
          "velocity": 0.9921259842519685
        },
        {
          "duration": 0.46153849999999963,
          "durationTicks": 240,
          "midi": 66,
          "name": "F#4",
          "ticks": 15000,
          "time": 28.846156249999996,
          "velocity": 0.7401574803149606
        },
        {
          "duration": 0.4307692666666689,
          "durationTicks": 224,
          "midi": 62,
          "name": "D4",
          "ticks": 15240,
          "time": 29.307694749999996,
          "velocity": 0.9921259842519685
        },
        {
          "duration": 0.2538461749999996,
          "durationTicks": 132,
          "midi": 60,
          "name": "C4",
          "ticks": 15360,
          "time": 29.538463999999998,
          "velocity": 0.9921259842519685
        },
        {
          "duration": 1.6000001333333316,
          "durationTicks": 832,
          "midi": 43,
          "name": "G2",
          "ticks": 15480,
          "time": 29.76923325,
          "velocity": 0.9921259842519685
        },
        {
          "duration": 1.769230916666661,
          "durationTicks": 920,
          "midi": 55,
          "name": "G3",
          "ticks": 15480,
          "time": 29.76923325,
          "velocity": 0.7874015748031497
        },
        {
          "duration": 0.9230769999999993,
          "durationTicks": 480,
          "midi": 59,
          "name": "B3",
          "ticks": 15480,
          "time": 29.76923325,
          "velocity": 0.7401574803149606
        },
        {
          "duration": 0.9230769999999993,
          "durationTicks": 480,
          "midi": 50,
          "name": "D3",
          "ticks": 15720,
          "time": 30.23077175,
          "velocity": 0.9921259842519685
        },
        {
          "duration": 0.9230769999999993,
          "durationTicks": 480,
          "midi": 59,
          "name": "B3",
          "ticks": 15960,
          "time": 30.69231025,
          "velocity": 0.9921259842519685
        },
        {
          "duration": 0.40769234166666735,
          "durationTicks": 212,
          "midi": 74,
          "name": "D5",
          "ticks": 15960,
          "time": 30.69231025,
          "velocity": 0.968503937007874
        },
        {
          "duration": 0.476923116666665,
          "durationTicks": 248,
          "midi": 55,
          "name": "G3",
          "ticks": 16200,
          "time": 31.153848749999998,
          "velocity": 0.9921259842519685
        },
        {
          "duration": 0.2153846333333327,
          "durationTicks": 112,
          "midi": 67,
          "name": "G4",
          "ticks": 16200,
          "time": 31.153848749999998,
          "velocity": 0.968503937007874
        },
        {
          "duration": 0.4846154250000012,
          "durationTicks": 252,
          "midi": 69,
          "name": "A4",
          "ticks": 16320,
          "time": 31.384617999999996,
          "velocity": 0.968503937007874
        },
        {
          "duration": 0.4615385000000032,
          "durationTicks": 240,
          "midi": 43,
          "name": "G2",
          "ticks": 16440,
          "time": 31.615387249999998,
          "velocity": 0.9921259842519685
        },
        {
          "duration": 1.7000001416666706,
          "durationTicks": 884,
          "midi": 55,
          "name": "G3",
          "ticks": 16440,
          "time": 31.615387249999998,
          "velocity": 0.7874015748031497
        },
        {
          "duration": 0.4615385000000032,
          "durationTicks": 240,
          "midi": 62,
          "name": "D4",
          "ticks": 16440,
          "time": 31.615387249999998,
          "velocity": 0.7401574803149606
        },
        {
          "duration": 0.4615385000000032,
          "durationTicks": 240,
          "midi": 66,
          "name": "F#4",
          "ticks": 16440,
          "time": 31.615387249999998,
          "velocity": 0.7401574803149606
        },
        {
          "duration": 0.4615384999999961,
          "durationTicks": 240,
          "midi": 50,
          "name": "D3",
          "ticks": 16680,
          "time": 32.07692575,
          "velocity": 0.9921259842519685
        },
        {
          "duration": 0.4615385000000032,
          "durationTicks": 240,
          "midi": 57,
          "name": "A3",
          "ticks": 16920,
          "time": 32.53846425,
          "velocity": 0.9921259842519685
        },
        {
          "duration": 0.4615385000000032,
          "durationTicks": 240,
          "midi": 62,
          "name": "D4",
          "ticks": 16920,
          "time": 32.53846425,
          "velocity": 0.9921259842519685
        },
        {
          "duration": 0.4615384999999961,
          "durationTicks": 240,
          "midi": 57,
          "name": "A3",
          "ticks": 17160,
          "time": 33.00000275,
          "velocity": 0.9921259842519685
        },
        {
          "duration": 0.21538463333332913,
          "durationTicks": 112,
          "midi": 69,
          "name": "A4",
          "ticks": 17160,
          "time": 33.00000275,
          "velocity": 0.968503937007874
        },
        {
          "duration": 0.21538463333333624,
          "durationTicks": 112,
          "midi": 71,
          "name": "B4",
          "ticks": 17280,
          "time": 33.230771999999995,
          "velocity": 0.968503937007874
        },
        {
          "duration": 0.4615385000000032,
          "durationTicks": 240,
          "midi": 43,
          "name": "G2",
          "ticks": 17400,
          "time": 33.461541249999996,
          "velocity": 0.9921259842519685
        },
        {
          "duration": 1.7307693750000013,
          "durationTicks": 900,
          "midi": 55,
          "name": "G3",
          "ticks": 17400,
          "time": 33.461541249999996,
          "velocity": 0.7874015748031497
        },
        {
          "duration": 0.4230769583333398,
          "durationTicks": 220,
          "midi": 72,
          "name": "C5",
          "ticks": 17400,
          "time": 33.461541249999996,
          "velocity": 0.968503937007874
        },
        {
          "duration": 0.4615384999999961,
          "durationTicks": 240,
          "midi": 52,
          "name": "E3",
          "ticks": 17640,
          "time": 33.92307975,
          "velocity": 0.9921259842519685
        },
        {
          "duration": 0.1923077083333311,
          "durationTicks": 100,
          "midi": 71,
          "name": "B4",
          "ticks": 17640,
          "time": 33.92307975,
          "velocity": 0.968503937007874
        },
        {
          "duration": 0.44615388333333783,
          "durationTicks": 232,
          "midi": 72,
          "name": "C5",
          "ticks": 17760,
          "time": 34.153848999999994,
          "velocity": 0.968503937007874
        },
        {
          "duration": 0.4615385000000032,
          "durationTicks": 240,
          "midi": 60,
          "name": "C4",
          "ticks": 17880,
          "time": 34.384618249999995,
          "velocity": 0.9921259842519685
        },
        {
          "duration": 0.4230769583333327,
          "durationTicks": 220,
          "midi": 74,
          "name": "D5",
          "ticks": 18000,
          "time": 34.6153875,
          "velocity": 0.968503937007874
        },
        {
          "duration": 0.4615384999999961,
          "durationTicks": 240,
          "midi": 55,
          "name": "G3",
          "ticks": 18120,
          "time": 34.84615675,
          "velocity": 0.9921259842519685
        },
        {
          "duration": 0.4615384999999961,
          "durationTicks": 240,
          "midi": 74,
          "name": "D5",
          "ticks": 18240,
          "time": 35.076926,
          "velocity": 0.968503937007874
        },
        {
          "duration": 0.9230769999999993,
          "durationTicks": 480,
          "midi": 43,
          "name": "G2",
          "ticks": 18360,
          "time": 35.307695249999995,
          "velocity": 0.9921259842519685
        },
        {
          "duration": 0.4615385000000032,
          "durationTicks": 240,
          "midi": 55,
          "name": "G3",
          "ticks": 18360,
          "time": 35.307695249999995,
          "velocity": 0.9921259842519685
        },
        {
          "duration": 0.8384616083333327,
          "durationTicks": 436,
          "midi": 55,
          "name": "G3",
          "ticks": 18360,
          "time": 35.307695249999995,
          "velocity": 0.7874015748031497
        },
        {
          "duration": 0.9230769999999993,
          "durationTicks": 480,
          "midi": 59,
          "name": "B3",
          "ticks": 18360,
          "time": 35.307695249999995,
          "velocity": 0.9921259842519685
        },
        {
          "duration": 0.11538462499999724,
          "durationTicks": 60,
          "midi": 71,
          "name": "B4",
          "ticks": 18480,
          "time": 35.538464499999996,
          "velocity": 0.968503937007874
        },
        {
          "duration": 0.11538462499999724,
          "durationTicks": 60,
          "midi": 72,
          "name": "C5",
          "ticks": 18480,
          "time": 35.538464499999996,
          "velocity": 0.968503937007874
        },
        {
          "duration": 0.47692311666666143,
          "durationTicks": 248,
          "midi": 55,
          "name": "G3",
          "ticks": 18600,
          "time": 35.76923375,
          "velocity": 0.9921259842519685
        },
        {
          "duration": 0.9230770000000064,
          "durationTicks": 480,
          "midi": 39,
          "name": "D#2",
          "ticks": 18840,
          "time": 36.230772249999994,
          "velocity": 0.9921259842519685
        },
        {
          "duration": 0.9230770000000064,
          "durationTicks": 480,
          "midi": 51,
          "name": "D#3",
          "ticks": 18840,
          "time": 36.230772249999994,
          "velocity": 0.7874015748031497
        },
        {
          "duration": 0.9230770000000064,
          "durationTicks": 480,
          "midi": 54,
          "name": "F#3",
          "ticks": 18840,
          "time": 36.230772249999994,
          "velocity": 0.9921259842519685
        },
        {
          "duration": 0.9230770000000064,
          "durationTicks": 480,
          "midi": 59,
          "name": "B3",
          "ticks": 18840,
          "time": 36.230772249999994,
          "velocity": 0.9921259842519685
        },
        {
          "duration": 0.4615385000000032,
          "durationTicks": 240,
          "midi": 57,
          "name": "A3",
          "ticks": 19080,
          "time": 36.69231075,
          "velocity": 0.9921259842519685
        },
        {
          "duration": 0.4615384999999961,
          "durationTicks": 240,
          "midi": 40,
          "name": "E2",
          "ticks": 19320,
          "time": 37.15384925,
          "velocity": 0.9921259842519685
        },
        {
          "duration": 1.8692309249999965,
          "durationTicks": 972,
          "midi": 52,
          "name": "E3",
          "ticks": 19320,
          "time": 37.15384925,
          "velocity": 0.7874015748031497
        },
        {
          "duration": 0.4615385000000032,
          "durationTicks": 240,
          "midi": 55,
          "name": "G3",
          "ticks": 19560,
          "time": 37.61538775,
          "velocity": 0.9921259842519685
        },
        {
          "duration": 0.4230769583333327,
          "durationTicks": 220,
          "midi": 71,
          "name": "B4",
          "ticks": 19680,
          "time": 37.846157,
          "velocity": 0.968503937007874
        },
        {
          "duration": 0.4615384999999961,
          "durationTicks": 240,
          "midi": 62,
          "name": "D4",
          "ticks": 19800,
          "time": 38.07692625,
          "velocity": 0.9921259842519685
        },
        {
          "duration": 0.44615388333333783,
          "durationTicks": 232,
          "midi": 76,
          "name": "E5",
          "ticks": 19920,
          "time": 38.307695499999994,
          "velocity": 0.968503937007874
        },
        {
          "duration": 0.4615385000000032,
          "durationTicks": 240,
          "midi": 59,
          "name": "B3",
          "ticks": 20040,
          "time": 38.538464749999996,
          "velocity": 0.9921259842519685
        },
        {
          "duration": 0.4230769583333327,
          "durationTicks": 220,
          "midi": 71,
          "name": "B4",
          "ticks": 20160,
          "time": 38.769234,
          "velocity": 0.968503937007874
        },
        {
          "duration": 0.4615384999999961,
          "durationTicks": 240,
          "midi": 45,
          "name": "A2",
          "ticks": 20280,
          "time": 39.00000325,
          "velocity": 0.9921259842519685
        },
        {
          "duration": 1.7307693750000013,
          "durationTicks": 900,
          "midi": 57,
          "name": "A3",
          "ticks": 20280,
          "time": 39.00000325,
          "velocity": 0.7874015748031497
        },
        {
          "duration": 0.4615384999999961,
          "durationTicks": 240,
          "midi": 61,
          "name": "C#4",
          "ticks": 20280,
          "time": 39.00000325,
          "velocity": 0.9921259842519685
        },
        {
          "duration": 0.5769231250000004,
          "durationTicks": 300,
          "midi": 69,
          "name": "A4",
          "ticks": 20400,
          "time": 39.23077249999999,
          "velocity": 0.968503937007874
        },
        {
          "duration": 0.4615385000000032,
          "durationTicks": 240,
          "midi": 52,
          "name": "E3",
          "ticks": 20520,
          "time": 39.461541749999995,
          "velocity": 0.9921259842519685
        },
        {
          "duration": 0.4615384999999961,
          "durationTicks": 240,
          "midi": 61,
          "name": "C#4",
          "ticks": 20760,
          "time": 39.92308025,
          "velocity": 0.9921259842519685
        },
        {
          "duration": 0.4615384999999961,
          "durationTicks": 240,
          "midi": 64,
          "name": "E4",
          "ticks": 20760,
          "time": 39.92308025,
          "velocity": 0.9921259842519685
        },
        {
          "duration": 0.4615385000000032,
          "durationTicks": 240,
          "midi": 57,
          "name": "A3",
          "ticks": 21000,
          "time": 40.384618749999994,
          "velocity": 0.9921259842519685
        },
        {
          "duration": 0.21538463333333624,
          "durationTicks": 112,
          "midi": 64,
          "name": "E4",
          "ticks": 21000,
          "time": 40.384618749999994,
          "velocity": 0.968503937007874
        },
        {
          "duration": 0.21538463333333624,
          "durationTicks": 112,
          "midi": 66,
          "name": "F#4",
          "ticks": 21120,
          "time": 40.615387999999996,
          "velocity": 0.968503937007874
        },
        {
          "duration": 0.4615384999999961,
          "durationTicks": 240,
          "midi": 48,
          "name": "C3",
          "ticks": 21240,
          "time": 40.84615725,
          "velocity": 0.9921259842519685
        },
        {
          "duration": 0.9230769999999993,
          "durationTicks": 480,
          "midi": 60,
          "name": "C4",
          "ticks": 21240,
          "time": 40.84615725,
          "velocity": 0.7874015748031497
        },
        {
          "duration": 0.4615384999999961,
          "durationTicks": 240,
          "midi": 66,
          "name": "F#4",
          "ticks": 21240,
          "time": 40.84615725,
          "velocity": 0.4881889763779528
        },
        {
          "duration": 0.4230769583333327,
          "durationTicks": 220,
          "midi": 67,
          "name": "G4",
          "ticks": 21240,
          "time": 40.84615725,
          "velocity": 0.968503937007874
        },
        {
          "duration": 0.4615384999999961,
          "durationTicks": 240,
          "midi": 69,
          "name": "A4",
          "ticks": 21240,
          "time": 40.84615725,
          "velocity": 0.7401574803149606
        },
        {
          "duration": 0.4615385000000032,
          "durationTicks": 240,
          "midi": 57,
          "name": "A3",
          "ticks": 21480,
          "time": 41.30769574999999,
          "velocity": 0.7401574803149606
        },
        {
          "duration": 0.9230770000000064,
          "durationTicks": 480,
          "midi": 60,
          "name": "C4",
          "ticks": 21480,
          "time": 41.30769574999999,
          "velocity": 0.4881889763779528
        },
        {
          "duration": 0.4615385000000032,
          "durationTicks": 240,
          "midi": 63,
          "name": "D#4",
          "ticks": 21480,
          "time": 41.30769574999999,
          "velocity": 0.4881889763779528
        },
        {
          "duration": 0.21538463333333624,
          "durationTicks": 112,
          "midi": 66,
          "name": "F#4",
          "ticks": 21480,
          "time": 41.30769574999999,
          "velocity": 0.968503937007874
        },
        {
          "duration": 0.44615388333333783,
          "durationTicks": 232,
          "midi": 67,
          "name": "G4",
          "ticks": 21600,
          "time": 41.538464999999995,
          "velocity": 0.968503937007874
        },
        {
          "duration": 0.9230769999999993,
          "durationTicks": 480,
          "midi": 60,
          "name": "C4",
          "ticks": 21720,
          "time": 41.76923425,
          "velocity": 0.7401574803149606
        },
        {
          "duration": 0.4615385000000032,
          "durationTicks": 240,
          "midi": 66,
          "name": "F#4",
          "ticks": 21720,
          "time": 41.76923425,
          "velocity": 0.4881889763779528
        },
        {
          "duration": 0.4615385000000032,
          "durationTicks": 240,
          "midi": 69,
          "name": "A4",
          "ticks": 21720,
          "time": 41.76923425,
          "velocity": 0.7401574803149606
        },
        {
          "duration": 0.4615384999999961,
          "durationTicks": 240,
          "midi": 69,
          "name": "A4",
          "ticks": 21840,
          "time": 42.0000035,
          "velocity": 0.968503937007874
        },
        {
          "duration": 0.4615384999999961,
          "durationTicks": 240,
          "midi": 60,
          "name": "C4",
          "ticks": 21960,
          "time": 42.23077275,
          "velocity": 0.4881889763779528
        },
        {
          "duration": 0.4615384999999961,
          "durationTicks": 240,
          "midi": 63,
          "name": "D#4",
          "ticks": 21960,
          "time": 42.23077275,
          "velocity": 0.4881889763779528
        },
        {
          "duration": 0.7923077583333367,
          "durationTicks": 412,
          "midi": 69,
          "name": "A4",
          "ticks": 22080,
          "time": 42.461541999999994,
          "velocity": 0.968503937007874
        },
        {
          "duration": 0.4615385000000032,
          "durationTicks": 240,
          "midi": 50,
          "name": "D3",
          "ticks": 22200,
          "time": 42.692311249999996,
          "velocity": 0.9921259842519685
        },
        {
          "duration": 0.4615385000000032,
          "durationTicks": 240,
          "midi": 62,
          "name": "D4",
          "ticks": 22200,
          "time": 42.692311249999996,
          "velocity": 0.4881889763779528
        },
        {
          "duration": 1.3846155000000024,
          "durationTicks": 720,
          "midi": 62,
          "name": "D4",
          "ticks": 22200,
          "time": 42.692311249999996,
          "velocity": 0.7874015748031497
        },
        {
          "duration": 0.4615385000000032,
          "durationTicks": 240,
          "midi": 66,
          "name": "F#4",
          "ticks": 22200,
          "time": 42.692311249999996,
          "velocity": 0.4881889763779528
        },
        {
          "duration": 0.4615384999999961,
          "durationTicks": 240,
          "midi": 57,
          "name": "A3",
          "ticks": 22440,
          "time": 43.15384975,
          "velocity": 0.9921259842519685
        },
        {
          "duration": 0.4615385000000032,
          "durationTicks": 240,
          "midi": 57,
          "name": "A3",
          "ticks": 22680,
          "time": 43.615388249999995,
          "velocity": 0.4881889763779528
        },
        {
          "duration": 0.8153846833333347,
          "durationTicks": 424,
          "midi": 62,
          "name": "D4",
          "ticks": 22680,
          "time": 43.615388249999995,
          "velocity": 0.9921259842519685
        },
        {
          "duration": 0.4615384999999961,
          "durationTicks": 240,
          "midi": 57,
          "name": "A3",
          "ticks": 22920,
          "time": 44.07692675,
          "velocity": 0.9921259842519685
        },
        {
          "duration": 0.4615384999999961,
          "durationTicks": 240,
          "midi": 60,
          "name": "C4",
          "ticks": 22920,
          "time": 44.07692675,
          "velocity": 0.9921259842519685
        },
        {
          "duration": 0.4615385000000032,
          "durationTicks": 240,
          "midi": 48,
          "name": "C3",
          "ticks": 23160,
          "time": 44.538465249999994,
          "velocity": 0.9921259842519685
        },
        {
          "duration": 0.4615385000000032,
          "durationTicks": 240,
          "midi": 55,
          "name": "G3",
          "ticks": 23160,
          "time": 44.538465249999994,
          "velocity": 0.9921259842519685
        },
        {
          "duration": 0.4615385000000032,
          "durationTicks": 240,
          "midi": 60,
          "name": "C4",
          "ticks": 23160,
          "time": 44.538465249999994,
          "velocity": 0.9921259842519685
        },
        {
          "duration": 1.8461539999999985,
          "durationTicks": 960,
          "midi": 60,
          "name": "C4",
          "ticks": 23160,
          "time": 44.538465249999994,
          "velocity": 0.7874015748031497
        },
        {
          "duration": 1.8461539999999985,
          "durationTicks": 960,
          "midi": 60,
          "name": "C4",
          "ticks": 23160,
          "time": 44.538465249999994,
          "velocity": 0.5905511811023622
        },
        {
          "duration": 0.9230769999999993,
          "durationTicks": 480,
          "midi": 74,
          "name": "D5",
          "ticks": 23160,
          "time": 44.538465249999994,
          "velocity": 0.5905511811023622
        },
        {
          "duration": 0.9384616166666646,
          "durationTicks": 488,
          "midi": 74,
          "name": "D5",
          "ticks": 23160,
          "time": 44.538465249999994,
          "velocity": 0.6929133858267716
        },
        {
          "duration": 0.4615384999999961,
          "durationTicks": 240,
          "midi": 55,
          "name": "G3",
          "ticks": 23400,
          "time": 45.00000375,
          "velocity": 0.9921259842519685
        },
        {
          "duration": 0.4615385000000032,
          "durationTicks": 240,
          "midi": 64,
          "name": "E4",
          "ticks": 23640,
          "time": 45.461542249999994,
          "velocity": 0.9921259842519685
        },
        {
          "duration": 0.44615388333333783,
          "durationTicks": 232,
          "midi": 67,
          "name": "G4",
          "ticks": 23640,
          "time": 45.461542249999994,
          "velocity": 0.968503937007874
        },
        {
          "duration": 0.5307692750000044,
          "durationTicks": 276,
          "midi": 72,
          "name": "C5",
          "ticks": 23640,
          "time": 45.461542249999994,
          "velocity": 0.6299212598425197
        },
        {
          "duration": 0.5307692750000044,
          "durationTicks": 276,
          "midi": 72,
          "name": "C5",
          "ticks": 23640,
          "time": 45.461542249999994,
          "velocity": 0.7795275590551181
        },
        {
          "duration": 0.46923080833332875,
          "durationTicks": 244,
          "midi": 60,
          "name": "C4",
          "ticks": 23880,
          "time": 45.92308075,
          "velocity": 0.9921259842519685
        },
        {
          "duration": 0.4461538833333307,
          "durationTicks": 232,
          "midi": 69,
          "name": "A4",
          "ticks": 23880,
          "time": 45.92308075,
          "velocity": 0.968503937007874
        },
        {
          "duration": 0.5230769666666717,
          "durationTicks": 272,
          "midi": 71,
          "name": "B4",
          "ticks": 23880,
          "time": 45.92308075,
          "velocity": 0.5669291338582677
        },
        {
          "duration": 0.538461583333337,
          "durationTicks": 280,
          "midi": 71,
          "name": "B4",
          "ticks": 23880,
          "time": 45.92308075,
          "velocity": 0.8110236220472441
        },
        {
          "duration": 0.4615385000000032,
          "durationTicks": 240,
          "midi": 47,
          "name": "B2",
          "ticks": 24120,
          "time": 46.38461924999999,
          "velocity": 0.9921259842519685
        },
        {
          "duration": 1.815384766666675,
          "durationTicks": 944,
          "midi": 59,
          "name": "B3",
          "ticks": 24120,
          "time": 46.38461924999999,
          "velocity": 0.5354330708661418
        },
        {
          "duration": 1.8461540000000056,
          "durationTicks": 960,
          "midi": 59,
          "name": "B3",
          "ticks": 24120,
          "time": 46.38461924999999,
          "velocity": 0.7874015748031497
        },
        {
          "duration": 0.8923077666666686,
          "durationTicks": 464,
          "midi": 69,
          "name": "A4",
          "ticks": 24120,
          "time": 46.38461924999999,
          "velocity": 0.5669291338582677
        },
        {
          "duration": 0.8923077666666686,
          "durationTicks": 464,
          "midi": 69,
          "name": "A4",
          "ticks": 24120,
          "time": 46.38461924999999,
          "velocity": 0.7795275590551181
        },
        {
          "duration": 0.4230769583333398,
          "durationTicks": 220,
          "midi": 71,
          "name": "B4",
          "ticks": 24120,
          "time": 46.38461924999999,
          "velocity": 0.968503937007874
        },
        {
          "duration": 0.4615385000000032,
          "durationTicks": 240,
          "midi": 55,
          "name": "G3",
          "ticks": 24360,
          "time": 46.846157749999996,
          "velocity": 0.9921259842519685
        },
        {
          "duration": 0.21538463333333624,
          "durationTicks": 112,
          "midi": 74,
          "name": "D5",
          "ticks": 24360,
          "time": 46.846157749999996,
          "velocity": 0.968503937007874
        },
        {
          "duration": 0.4461538833333307,
          "durationTicks": 232,
          "midi": 74,
          "name": "D5",
          "ticks": 24480,
          "time": 47.076927,
          "velocity": 0.968503937007874
        },
        {
          "duration": 0.4615384999999961,
          "durationTicks": 240,
          "midi": 62,
          "name": "D4",
          "ticks": 24600,
          "time": 47.30769625,
          "velocity": 0.9921259842519685
        },
        {
          "duration": 0.9230769999999993,
          "durationTicks": 480,
          "midi": 67,
          "name": "G4",
          "ticks": 24600,
          "time": 47.30769625,
          "velocity": 0.5590551181102362
        },
        {
          "duration": 1.0307693166666638,
          "durationTicks": 536,
          "midi": 67,
          "name": "G4",
          "ticks": 24600,
          "time": 47.30769625,
          "velocity": 0.905511811023622
        },
        {
          "duration": 0.5076923499999992,
          "durationTicks": 264,
          "midi": 59,
          "name": "B3",
          "ticks": 24840,
          "time": 47.769234749999995,
          "velocity": 0.9921259842519685
        },
        {
          "duration": 0.21538463333333624,
          "durationTicks": 112,
          "midi": 74,
          "name": "D5",
          "ticks": 24960,
          "time": 48.000004,
          "velocity": 0.968503937007874
        },
        {
          "duration": 0.9230769999999993,
          "durationTicks": 480,
          "midi": 45,
          "name": "A2",
          "ticks": 25080,
          "time": 48.23077325,
          "velocity": 0.9921259842519685
        },
        {
          "duration": 0.9000000750000012,
          "durationTicks": 468,
          "midi": 57,
          "name": "A3",
          "ticks": 25080,
          "time": 48.23077325,
          "velocity": 0.5354330708661418
        },
        {
          "duration": 0.95384623333333,
          "durationTicks": 496,
          "midi": 57,
          "name": "A3",
          "ticks": 25080,
          "time": 48.23077325,
          "velocity": 0.7874015748031497
        },
        {
          "duration": 0.4230769583333327,
          "durationTicks": 220,
          "midi": 74,
          "name": "D5",
          "ticks": 25080,
          "time": 48.23077325,
          "velocity": 0.5590551181102362
        },
        {
          "duration": 1.0000000833333331,
          "durationTicks": 520,
          "midi": 74,
          "name": "D5",
          "ticks": 25080,
          "time": 48.23077325,
          "velocity": 0.968503937007874
        },
        {
          "duration": 1.4000001166666678,
          "durationTicks": 728,
          "midi": 55,
          "name": "G3",
          "ticks": 25320,
          "time": 48.692311749999995,
          "velocity": 0.9921259842519685
        },
        {
          "duration": 0.44615388333333783,
          "durationTicks": 232,
          "midi": 76,
          "name": "E5",
          "ticks": 25320,
          "time": 48.692311749999995,
          "velocity": 0.968503937007874
        },
        {
          "duration": 0.4615384999999961,
          "durationTicks": 240,
          "midi": 50,
          "name": "D3",
          "ticks": 25560,
          "time": 49.15385025,
          "velocity": 0.9921259842519685
        },
        {
          "duration": 0.6769231333333323,
          "durationTicks": 352,
          "midi": 50,
          "name": "D3",
          "ticks": 25560,
          "time": 49.15385025,
          "velocity": 0.5511811023622047
        },
        {
          "duration": 0.9384616166666646,
          "durationTicks": 488,
          "midi": 62,
          "name": "D4",
          "ticks": 25560,
          "time": 49.15385025,
          "velocity": 0.7874015748031497
        },
        {
          "duration": 0.4615384999999961,
          "durationTicks": 240,
          "midi": 64,
          "name": "E4",
          "ticks": 25560,
          "time": 49.15385025,
          "velocity": 0.9921259842519685
        },
        {
          "duration": 0.4230769583333327,
          "durationTicks": 220,
          "midi": 72,
          "name": "C5",
          "ticks": 25560,
          "time": 49.15385025,
          "velocity": 0.968503937007874
        },
        {
          "duration": 0.661538516666667,
          "durationTicks": 344,
          "midi": 74,
          "name": "D5",
          "ticks": 25560,
          "time": 49.15385025,
          "velocity": 0.5196850393700787
        },
        {
          "duration": 0.9230769999999993,
          "durationTicks": 480,
          "midi": 76,
          "name": "E5",
          "ticks": 25560,
          "time": 49.15385025,
          "velocity": 0.6299212598425197
        },
        {
          "duration": 0.4615385000000032,
          "durationTicks": 240,
          "midi": 60,
          "name": "C4",
          "ticks": 25800,
          "time": 49.615388749999994,
          "velocity": 0.9921259842519685
        },
        {
          "duration": 0.21538463333333624,
          "durationTicks": 112,
          "midi": 74,
          "name": "D5",
          "ticks": 25800,
          "time": 49.615388749999994,
          "velocity": 0.968503937007874
        },
        {
          "duration": 0.4615385000000032,
          "durationTicks": 240,
          "midi": 74,
          "name": "D5",
          "ticks": 25920,
          "time": 49.846157999999996,
          "velocity": 0.968503937007874
        },
        {
          "duration": 0.9230769999999993,
          "durationTicks": 480,
          "midi": 43,
          "name": "G2",
          "ticks": 26040,
          "time": 50.07692725,
          "velocity": 0.9921259842519685
        },
        {
          "duration": 0.9230769999999993,
          "durationTicks": 480,
          "midi": 55,
          "name": "G3",
          "ticks": 26040,
          "time": 50.07692725,
          "velocity": 0.5118110236220472
        },
        {
          "duration": 1.5000001249999997,
          "durationTicks": 780,
          "midi": 55,
          "name": "G3",
          "ticks": 26040,
          "time": 50.07692725,
          "velocity": 0.7874015748031497
        },
        {
          "duration": 1.3769231916666627,
          "durationTicks": 716,
          "midi": 67,
          "name": "G4",
          "ticks": 26040,
          "time": 50.07692725,
          "velocity": 0.8740157480314961
        },
        {
          "duration": 0.34615387499999883,
          "durationTicks": 180,
          "midi": 71,
          "name": "B4",
          "ticks": 26040,
          "time": 50.07692725,
          "velocity": 0.8267716535433071
        },
        {
          "duration": 1.8923078499999946,
          "durationTicks": 984,
          "midi": 74,
          "name": "D5",
          "ticks": 26040,
          "time": 50.07692725,
          "velocity": 0.5511811023622047
        },
        {
          "duration": 0.4307692666666654,
          "durationTicks": 224,
          "midi": 71,
          "name": "B4",
          "ticks": 26160,
          "time": 50.3076965,
          "velocity": 0.968503937007874
        },
        {
          "duration": 0.11538462499999724,
          "durationTicks": 60,
          "midi": 72,
          "name": "C5",
          "ticks": 26160,
          "time": 50.3076965,
          "velocity": 0.968503937007874
        },
        {
          "duration": 1.469230891666669,
          "durationTicks": 764,
          "midi": 55,
          "name": "G3",
          "ticks": 26280,
          "time": 50.53846574999999,
          "velocity": 0.9921259842519685
        },
        {
          "duration": 0.4615384999999961,
          "durationTicks": 240,
          "midi": 57,
          "name": "A3",
          "ticks": 26520,
          "time": 51.000004249999996,
          "velocity": 0.9921259842519685
        },
        {
          "duration": 0.40000003333332756,
          "durationTicks": 208,
          "midi": 79,
          "name": "G5",
          "ticks": 26520,
          "time": 51.000004249999996,
          "velocity": 1
        },
        {
          "duration": 0.23076924999999449,
          "durationTicks": 120,
          "midi": 71,
          "name": "B4",
          "ticks": 26640,
          "time": 51.2307735,
          "velocity": 0.2125984251968504
        },
        {
          "duration": 0.4615385000000032,
          "durationTicks": 240,
          "midi": 59,
          "name": "B3",
          "ticks": 26760,
          "time": 51.46154274999999,
          "velocity": 0.9921259842519685
        },
        {
          "duration": 0.21538463333333624,
          "durationTicks": 112,
          "midi": 76,
          "name": "E5",
          "ticks": 26760,
          "time": 51.46154274999999,
          "velocity": 0.968503937007874
        },
        {
          "duration": 0.21538463333333624,
          "durationTicks": 112,
          "midi": 78,
          "name": "F#5",
          "ticks": 26880,
          "time": 51.692311999999994,
          "velocity": 0.968503937007874
        },
        {
          "duration": 0.4615385000000032,
          "durationTicks": 240,
          "midi": 40,
          "name": "E2",
          "ticks": 27000,
          "time": 51.923081249999996,
          "velocity": 0.9921259842519685
        },
        {
          "duration": 1.8692309249999965,
          "durationTicks": 972,
          "midi": 52,
          "name": "E3",
          "ticks": 27000,
          "time": 51.923081249999996,
          "velocity": 0.6614173228346457
        },
        {
          "duration": 1.8692309249999965,
          "durationTicks": 972,
          "midi": 52,
          "name": "E3",
          "ticks": 27000,
          "time": 51.923081249999996,
          "velocity": 0.7874015748031497
        },
        {
          "duration": 1.5538462833333284,
          "durationTicks": 808,
          "midi": 71,
          "name": "B4",
          "ticks": 27000,
          "time": 51.923081249999996,
          "velocity": 0.4645669291338583
        },
        {
          "duration": 1.8076924583333351,
          "durationTicks": 940,
          "midi": 71,
          "name": "B4",
          "ticks": 27000,
          "time": 51.923081249999996,
          "velocity": 0.36220472440944884
        },
        {
          "duration": 1.3769231916666698,
          "durationTicks": 716,
          "midi": 76,
          "name": "E5",
          "ticks": 27000,
          "time": 51.923081249999996,
          "velocity": 0.7559055118110236
        },
        {
          "duration": 0.4230769583333327,
          "durationTicks": 220,
          "midi": 79,
          "name": "G5",
          "ticks": 27000,
          "time": 51.923081249999996,
          "velocity": 0.5511811023622047
        },
        {
          "duration": 1.2538462583333327,
          "durationTicks": 652,
          "midi": 79,
          "name": "G5",
          "ticks": 27000,
          "time": 51.923081249999996,
          "velocity": 0.968503937007874
        },
        {
          "duration": 0.4615384999999961,
          "durationTicks": 240,
          "midi": 59,
          "name": "B3",
          "ticks": 27240,
          "time": 52.38461975,
          "velocity": 0.9921259842519685
        },
        {
          "duration": 0.21538463333332913,
          "durationTicks": 112,
          "midi": 78,
          "name": "F#5",
          "ticks": 27240,
          "time": 52.38461975,
          "velocity": 0.968503937007874
        },
        {
          "duration": 1.1615385583333335,
          "durationTicks": 604,
          "midi": 79,
          "name": "G5",
          "ticks": 27360,
          "time": 52.61538899999999,
          "velocity": 0.968503937007874
        },
        {
          "duration": 0.4615385000000032,
          "durationTicks": 240,
          "midi": 64,
          "name": "E4",
          "ticks": 27480,
          "time": 52.846158249999995,
          "velocity": 0.9921259842519685
        },
        {
          "duration": 0.4615384999999961,
          "durationTicks": 240,
          "midi": 59,
          "name": "B3",
          "ticks": 27720,
          "time": 53.30769675,
          "velocity": 0.9921259842519685
        },
        {
          "duration": 0.43846157499999805,
          "durationTicks": 228,
          "midi": 71,
          "name": "B4",
          "ticks": 27720,
          "time": 53.30769675,
          "velocity": 0.968503937007874
        },
        {
          "duration": 0.4615385000000032,
          "durationTicks": 240,
          "midi": 45,
          "name": "A2",
          "ticks": 27960,
          "time": 53.769235249999994,
          "velocity": 0.9921259842519685
        },
        {
          "duration": 1.5692309000000009,
          "durationTicks": 816,
          "midi": 57,
          "name": "A3",
          "ticks": 27960,
          "time": 53.769235249999994,
          "velocity": 0.5905511811023622
        },
        {
          "duration": 1.8461539999999985,
          "durationTicks": 960,
          "midi": 57,
          "name": "A3",
          "ticks": 27960,
          "time": 53.769235249999994,
          "velocity": 0.7874015748031497
        },
        {
          "duration": 0.4615385000000032,
          "durationTicks": 240,
          "midi": 69,
          "name": "A4",
          "ticks": 27960,
          "time": 53.769235249999994,
          "velocity": 0.2755905511811024
        },
        {
          "duration": 1.2538462583333327,
          "durationTicks": 652,
          "midi": 69,
          "name": "A4",
          "ticks": 27960,
          "time": 53.769235249999994,
          "velocity": 0.968503937007874
        },
        {
          "duration": 1.692307833333338,
          "durationTicks": 880,
          "midi": 69,
          "name": "A4",
          "ticks": 27960,
          "time": 53.769235249999994,
          "velocity": 0.36220472440944884
        },
        {
          "duration": 1.692307833333338,
          "durationTicks": 880,
          "midi": 73,
          "name": "C#5",
          "ticks": 27960,
          "time": 53.769235249999994,
          "velocity": 0.33070866141732286
        },
        {
          "duration": 0.6538462083333343,
          "durationTicks": 340,
          "midi": 76,
          "name": "E5",
          "ticks": 27960,
          "time": 53.769235249999994,
          "velocity": 0.2204724409448819
        },
        {
          "duration": 0.4615384999999961,
          "durationTicks": 240,
          "midi": 52,
          "name": "E3",
          "ticks": 28200,
          "time": 54.23077375,
          "velocity": 0.9921259842519685
        },
        {
          "duration": 0.538461583333337,
          "durationTicks": 280,
          "midi": 76,
          "name": "E5",
          "ticks": 28200,
          "time": 54.23077375,
          "velocity": 0.968503937007874
        },
        {
          "duration": 0.4461538833333307,
          "durationTicks": 232,
          "midi": 76,
          "name": "E5",
          "ticks": 28320,
          "time": 54.461543,
          "velocity": 0.968503937007874
        },
        {
          "duration": 0.36923080000000397,
          "durationTicks": 192,
          "midi": 61,
          "name": "C#4",
          "ticks": 28440,
          "time": 54.69231224999999,
          "velocity": 0.9921259842519685
        },
        {
          "duration": 0.8384616083333327,
          "durationTicks": 436,
          "midi": 69,
          "name": "A4",
          "ticks": 28440,
          "time": 54.69231224999999,
          "velocity": 0.31496062992125984
        },
        {
          "duration": 0.8692308416666705,
          "durationTicks": 452,
          "midi": 76,
          "name": "E5",
          "ticks": 28440,
          "time": 54.69231224999999,
          "velocity": 0.6377952755905512
        },
        {
          "duration": 0.538461583333337,
          "durationTicks": 280,
          "midi": 57,
          "name": "A3",
          "ticks": 28680,
          "time": 55.15385075,
          "velocity": 0.9921259842519685
        },
        {
          "duration": 0.1923077083333311,
          "durationTicks": 100,
          "midi": 76,
          "name": "E5",
          "ticks": 28800,
          "time": 55.38462,
          "velocity": 0.968503937007874
        },
        {
          "duration": 0.4615385000000032,
          "durationTicks": 240,
          "midi": 45,
          "name": "A2",
          "ticks": 28920,
          "time": 55.61538924999999,
          "velocity": 0.9921259842519685
        },
        {
          "duration": 1.838461691666673,
          "durationTicks": 956,
          "midi": 57,
          "name": "A3",
          "ticks": 28920,
          "time": 55.61538924999999,
          "velocity": 0.7874015748031497
        },
        {
          "duration": 0.4615385000000032,
          "durationTicks": 240,
          "midi": 64,
          "name": "E4",
          "ticks": 28920,
          "time": 55.61538924999999,
          "velocity": 0.3779527559055118
        },
        {
          "duration": 4.892308100000001,
          "durationTicks": 2544,
          "midi": 64,
          "name": "E4",
          "ticks": 28920,
          "time": 55.61538924999999,
          "velocity": 0.9921259842519685
        },
        {
          "duration": 1.346153958333339,
          "durationTicks": 700,
          "midi": 69,
          "name": "A4",
          "ticks": 28920,
          "time": 55.61538924999999,
          "velocity": 0.30708661417322836
        },
        {
          "duration": 1.3538462666666717,
          "durationTicks": 704,
          "midi": 72,
          "name": "C5",
          "ticks": 28920,
          "time": 55.61538924999999,
          "velocity": 0.5354330708661418
        },
        {
          "duration": 3.33076950833334,
          "durationTicks": 1732,
          "midi": 72,
          "name": "C5",
          "ticks": 28920,
          "time": 55.61538924999999,
          "velocity": 0.36220472440944884
        },
        {
          "duration": 0.40769234166667445,
          "durationTicks": 212,
          "midi": 76,
          "name": "E5",
          "ticks": 28920,
          "time": 55.61538924999999,
          "velocity": 0.968503937007874
        },
        {
          "duration": 0.4615384999999961,
          "durationTicks": 240,
          "midi": 55,
          "name": "G3",
          "ticks": 29160,
          "time": 56.076927749999996,
          "velocity": 0.9921259842519685
        },
        {
          "duration": 0.1923077083333382,
          "durationTicks": 100,
          "midi": 76,
          "name": "E5",
          "ticks": 29160,
          "time": 56.076927749999996,
          "velocity": 0.968503937007874
        },
        {
          "duration": 0.11538462499999724,
          "durationTicks": 60,
          "midi": 76,
          "name": "E5",
          "ticks": 29280,
          "time": 56.307697,
          "velocity": 0.968503937007874
        },
        {
          "duration": 0.11538462499999724,
          "durationTicks": 60,
          "midi": 77,
          "name": "F5",
          "ticks": 29280,
          "time": 56.307697,
          "velocity": 0.968503937007874
        },
        {
          "duration": 0.4615385000000032,
          "durationTicks": 240,
          "midi": 60,
          "name": "C4",
          "ticks": 29400,
          "time": 56.53846624999999,
          "velocity": 0.9921259842519685
        },
        {
          "duration": 0.4230769583333398,
          "durationTicks": 220,
          "midi": 76,
          "name": "E5",
          "ticks": 29400,
          "time": 56.53846624999999,
          "velocity": 0.968503937007874
        },
        {
          "duration": 0.4615385000000032,
          "durationTicks": 240,
          "midi": 57,
          "name": "A3",
          "ticks": 29640,
          "time": 57.000004749999995,
          "velocity": 0.9921259842519685
        },
        {
          "duration": 0.17692309166667286,
          "durationTicks": 92,
          "midi": 74,
          "name": "D5",
          "ticks": 29640,
          "time": 57.000004749999995,
          "velocity": 0.968503937007874
        },
        {
          "duration": 0.3615384916666642,
          "durationTicks": 188,
          "midi": 74,
          "name": "D5",
          "ticks": 29760,
          "time": 57.230774,
          "velocity": 0.968503937007874
        },
        {
          "duration": 0.4615384999999961,
          "durationTicks": 240,
          "midi": 50,
          "name": "D3",
          "ticks": 29880,
          "time": 57.46154325,
          "velocity": 0.9921259842519685
        },
        {
          "duration": 1.5615385916666682,
          "durationTicks": 812,
          "midi": 50,
          "name": "D3",
          "ticks": 29880,
          "time": 57.46154325,
          "velocity": 0.5511811023622047
        },
        {
          "duration": 2.2923078833333292,
          "durationTicks": 1192,
          "midi": 50,
          "name": "D3",
          "ticks": 29880,
          "time": 57.46154325,
          "velocity": 0.9133858267716536
        },
        {
          "duration": 0.9846154666666678,
          "durationTicks": 512,
          "midi": 62,
          "name": "D4",
          "ticks": 29880,
          "time": 57.46154325,
          "velocity": 0.7874015748031497
        },
        {
          "duration": 1.2923077999999961,
          "durationTicks": 672,
          "midi": 62,
          "name": "D4",
          "ticks": 29880,
          "time": 57.46154325,
          "velocity": 0.5118110236220472
        },
        {
          "duration": 0.09230769999999922,
          "durationTicks": 48,
          "midi": 66,
          "name": "F#4",
          "ticks": 29880,
          "time": 57.46154325,
          "velocity": 0.25984251968503935
        },
        {
          "duration": 2.6538463749999934,
          "durationTicks": 1380,
          "midi": 74,
          "name": "D5",
          "ticks": 29880,
          "time": 57.46154325,
          "velocity": 0.6062992125984252
        },
        {
          "duration": 0.36923079999999686,
          "durationTicks": 192,
          "midi": 57,
          "name": "A3",
          "ticks": 30120,
          "time": 57.923081749999994,
          "velocity": 0.9921259842519685
        },
        {
          "duration": 2.5538463666666686,
          "durationTicks": 1328,
          "midi": 62,
          "name": "D4",
          "ticks": 30120,
          "time": 57.923081749999994,
          "velocity": 0.29133858267716534
        },
        {
          "duration": 2.2923078833333292,
          "durationTicks": 1192,
          "midi": 62,
          "name": "D4",
          "ticks": 30360,
          "time": 58.38462025,
          "velocity": 0.9921259842519685
        },
        {
          "duration": 0.9076923833333339,
          "durationTicks": 472,
          "midi": 72,
          "name": "C5",
          "ticks": 30360,
          "time": 58.38462025,
          "velocity": 0.7559055118110236
        },
        {
          "duration": 1.907692466666667,
          "durationTicks": 992,
          "midi": 62,
          "name": "D4",
          "ticks": 30600,
          "time": 58.846158749999994,
          "velocity": 0.5826771653543307
        },
        {
          "duration": 0.36923080000000397,
          "durationTicks": 192,
          "midi": 67,
          "name": "G4",
          "ticks": 30600,
          "time": 58.846158749999994,
          "velocity": 0.952755905511811
        },
        {
          "duration": 1.1692308666666662,
          "durationTicks": 608,
          "midi": 50,
          "name": "D3",
          "ticks": 30840,
          "time": 59.30769725,
          "velocity": 0.8503937007874016
        },
        {
          "duration": 1.223077025000002,
          "durationTicks": 636,
          "midi": 74,
          "name": "D5",
          "ticks": 30840,
          "time": 59.30769725,
          "velocity": 0.2755905511811024
        },
        {
          "duration": 1.4846155083333343,
          "durationTicks": 772,
          "midi": 74,
          "name": "D5",
          "ticks": 30840,
          "time": 59.30769725,
          "velocity": 0.8110236220472441
        },
        {
          "duration": 0.44615388333333783,
          "durationTicks": 232,
          "midi": 57,
          "name": "A3",
          "ticks": 31080,
          "time": 59.76923574999999,
          "velocity": 0.8503937007874016
        },
        {
          "duration": 0.5769231250000004,
          "durationTicks": 300,
          "midi": 62,
          "name": "D4",
          "ticks": 31320,
          "time": 60.230774249999996,
          "velocity": 0.8503937007874016
        },
        {
          "duration": 0.4615385000000032,
          "durationTicks": 240,
          "midi": 43,
          "name": "G2",
          "ticks": 31800,
          "time": 61.153851249999995,
          "velocity": 0.9921259842519685
        },
        {
          "duration": 1.5076924333333395,
          "durationTicks": 784,
          "midi": 43,
          "name": "G2",
          "ticks": 31800,
          "time": 61.153851249999995,
          "velocity": 0.3858267716535433
        },
        {
          "duration": 1.1846154833333316,
          "durationTicks": 616,
          "midi": 55,
          "name": "G3",
          "ticks": 31800,
          "time": 61.153851249999995,
          "velocity": 0.7874015748031497
        },
        {
          "duration": 1.6230770583333367,
          "durationTicks": 844,
          "midi": 55,
          "name": "G3",
          "ticks": 31800,
          "time": 61.153851249999995,
          "velocity": 0.3858267716535433
        },
        {
          "duration": 0.5307692750000044,
          "durationTicks": 276,
          "midi": 62,
          "name": "D4",
          "ticks": 31800,
          "time": 61.153851249999995,
          "velocity": 0.5354330708661418
        },
        {
          "duration": 0.8846154583333288,
          "durationTicks": 460,
          "midi": 71,
          "name": "B4",
          "ticks": 31800,
          "time": 61.153851249999995,
          "velocity": 0.41732283464566927
        },
        {
          "duration": 1.6307693666666623,
          "durationTicks": 848,
          "midi": 74,
          "name": "D5",
          "ticks": 31800,
          "time": 61.153851249999995,
          "velocity": 0.3858267716535433
        },
        {
          "duration": 1.9230770833333253,
          "durationTicks": 1000,
          "midi": 83,
          "name": "B5",
          "ticks": 31800,
          "time": 61.153851249999995,
          "velocity": 0.3858267716535433
        },
        {
          "duration": 0.4615384999999961,
          "durationTicks": 240,
          "midi": 50,
          "name": "D3",
          "ticks": 32040,
          "time": 61.61538975,
          "velocity": 0.9921259842519685
        },
        {
          "duration": 1.2846154916666634,
          "durationTicks": 668,
          "midi": 55,
          "name": "G3",
          "ticks": 32040,
          "time": 61.61538975,
          "velocity": 0.8110236220472441
        },
        {
          "duration": 0.4615384999999961,
          "durationTicks": 240,
          "midi": 62,
          "name": "D4",
          "ticks": 32040,
          "time": 61.61538975,
          "velocity": 1
        },
        {
          "duration": 0.4615385000000032,
          "durationTicks": 240,
          "midi": 59,
          "name": "B3",
          "ticks": 32280,
          "time": 62.076928249999995,
          "velocity": 0.9921259842519685
        },
        {
          "duration": 0.3846154166666693,
          "durationTicks": 200,
          "midi": 62,
          "name": "D4",
          "ticks": 32280,
          "time": 62.076928249999995,
          "velocity": 0.8740157480314961
        },
        {
          "duration": 0.4615385000000032,
          "durationTicks": 240,
          "midi": 67,
          "name": "G4",
          "ticks": 32280,
          "time": 62.076928249999995,
          "velocity": 1
        },
        {
          "duration": 0.4538461916666563,
          "durationTicks": 236,
          "midi": 55,
          "name": "G3",
          "ticks": 32520,
          "time": 62.53846675,
          "velocity": 0.9921259842519685
        },
        {
          "duration": 0.4615384999999961,
          "durationTicks": 240,
          "midi": 55,
          "name": "G3",
          "ticks": 32520,
          "time": 62.53846675,
          "velocity": 0.7637795275590551
        },
        {
          "duration": 0.10000000833333189,
          "durationTicks": 52,
          "midi": 62,
          "name": "D4",
          "ticks": 32520,
          "time": 62.53846675,
          "velocity": 0.8110236220472441
        },
        {
          "duration": 0.13846155000000238,
          "durationTicks": 72,
          "midi": 71,
          "name": "B4",
          "ticks": 32520,
          "time": 62.53846675,
          "velocity": 0.8110236220472441
        },
        {
          "duration": 0.4615384999999961,
          "durationTicks": 240,
          "midi": 74,
          "name": "D5",
          "ticks": 32520,
          "time": 62.53846675,
          "velocity": 1
        },
        {
          "duration": 0.4615385000000032,
          "durationTicks": 240,
          "midi": 45,
          "name": "A2",
          "ticks": 32760,
          "time": 63.000005249999994,
          "velocity": 0.9921259842519685
        },
        {
          "duration": 1.153846250000008,
          "durationTicks": 600,
          "midi": 45,
          "name": "A2",
          "ticks": 32760,
          "time": 63.000005249999994,
          "velocity": 0.2755905511811024
        },
        {
          "duration": 1.269230874999998,
          "durationTicks": 660,
          "midi": 57,
          "name": "A3",
          "ticks": 32760,
          "time": 63.000005249999994,
          "velocity": 0.7874015748031497
        },
        {
          "duration": 1.4153847333333331,
          "durationTicks": 736,
          "midi": 57,
          "name": "A3",
          "ticks": 32760,
          "time": 63.000005249999994,
          "velocity": 0.5039370078740157
        },
        {
          "duration": 1.2923078000000103,
          "durationTicks": 672,
          "midi": 64,
          "name": "E4",
          "ticks": 32760,
          "time": 63.000005249999994,
          "velocity": 0.8110236220472441
        },
        {
          "duration": 0.4615385000000032,
          "durationTicks": 240,
          "midi": 72,
          "name": "C5",
          "ticks": 32760,
          "time": 63.000005249999994,
          "velocity": 1
        },
        {
          "duration": 0.9000000749999941,
          "durationTicks": 468,
          "midi": 72,
          "name": "C5",
          "ticks": 32760,
          "time": 63.000005249999994,
          "velocity": 0.8740157480314961
        },
        {
          "duration": 1.276923183333345,
          "durationTicks": 664,
          "midi": 76,
          "name": "E5",
          "ticks": 32760,
          "time": 63.000005249999994,
          "velocity": 0.2992125984251969
        },
        {
          "duration": 1.7769232249999973,
          "durationTicks": 924,
          "midi": 84,
          "name": "C6",
          "ticks": 32760,
          "time": 63.000005249999994,
          "velocity": 0.3858267716535433
        },
        {
          "duration": 0.4615384999999961,
          "durationTicks": 240,
          "midi": 52,
          "name": "E3",
          "ticks": 33000,
          "time": 63.46154375,
          "velocity": 0.9921259842519685
        },
        {
          "duration": 1.3769231916666556,
          "durationTicks": 716,
          "midi": 57,
          "name": "A3",
          "ticks": 33000,
          "time": 63.46154375,
          "velocity": 0.5669291338582677
        },
        {
          "duration": 0.23076924999999449,
          "durationTicks": 120,
          "midi": 71,
          "name": "B4",
          "ticks": 33000,
          "time": 63.46154375,
          "velocity": 1
        },
        {
          "duration": 0.4615385000000103,
          "durationTicks": 240,
          "midi": 72,
          "name": "C5",
          "ticks": 33120,
          "time": 63.69231299999999,
          "velocity": 1
        },
        {
          "duration": 0.4615385000000032,
          "durationTicks": 240,
          "midi": 60,
          "name": "C4",
          "ticks": 33240,
          "time": 63.92308224999999,
          "velocity": 0.9921259842519685
        },
        {
          "duration": 0.4538461916666563,
          "durationTicks": 236,
          "midi": 76,
          "name": "E5",
          "ticks": 33240,
          "time": 63.92308224999999,
          "velocity": 0.968503937007874
        },
        {
          "duration": 0.46153849999998897,
          "durationTicks": 240,
          "midi": 76,
          "name": "E5",
          "ticks": 33360,
          "time": 64.1538515,
          "velocity": 1
        },
        {
          "duration": 0.4615385000000032,
          "durationTicks": 240,
          "midi": 55,
          "name": "G3",
          "ticks": 33480,
          "time": 64.38462075,
          "velocity": 0.9921259842519685
        },
        {
          "duration": 0.2307692500000087,
          "durationTicks": 120,
          "midi": 74,
          "name": "D5",
          "ticks": 33600,
          "time": 64.61538999999999,
          "velocity": 1
        },
        {
          "duration": 0.46153849999998897,
          "durationTicks": 240,
          "midi": 47,
          "name": "B2",
          "ticks": 33720,
          "time": 64.84615925,
          "velocity": 0.9921259842519685
        },
        {
          "duration": 1.2615385666666583,
          "durationTicks": 656,
          "midi": 47,
          "name": "B2",
          "ticks": 33720,
          "time": 64.84615925,
          "velocity": 0.2204724409448819
        },
        {
          "duration": 1.4461539666666567,
          "durationTicks": 752,
          "midi": 59,
          "name": "B3",
          "ticks": 33720,
          "time": 64.84615925,
          "velocity": 0.2125984251968504
        },
        {
          "duration": 1.807692458333321,
          "durationTicks": 940,
          "midi": 59,
          "name": "B3",
          "ticks": 33720,
          "time": 64.84615925,
          "velocity": 0.7874015748031497
        },
        {
          "duration": 0.46923080833333586,
          "durationTicks": 244,
          "midi": 67,
          "name": "G4",
          "ticks": 33720,
          "time": 64.84615925,
          "velocity": 0.7795275590551181
        },
        {
          "duration": 0.46153849999998897,
          "durationTicks": 240,
          "midi": 74,
          "name": "D5",
          "ticks": 33720,
          "time": 64.84615925,
          "velocity": 1
        },
        {
          "duration": 0.561538508333328,
          "durationTicks": 292,
          "midi": 74,
          "name": "D5",
          "ticks": 33720,
          "time": 64.84615925,
          "velocity": 0.28346456692913385
        },
        {
          "duration": 1.4769231999999874,
          "durationTicks": 768,
          "midi": 74,
          "name": "D5",
          "ticks": 33720,
          "time": 64.84615925,
          "velocity": 0.8740157480314961
        },
        {
          "duration": 0.930769308333339,
          "durationTicks": 484,
          "midi": 83,
          "name": "B5",
          "ticks": 33720,
          "time": 64.84615925,
          "velocity": 0.30708661417322836
        },
        {
          "duration": 0.4615385000000032,
          "durationTicks": 240,
          "midi": 55,
          "name": "G3",
          "ticks": 33960,
          "time": 65.30769774999999,
          "velocity": 0.9921259842519685
        },
        {
          "duration": 1.3846155000000095,
          "durationTicks": 720,
          "midi": 59,
          "name": "B3",
          "ticks": 33960,
          "time": 65.30769774999999,
          "velocity": 0.7559055118110236
        },
        {
          "duration": 0.4615385000000032,
          "durationTicks": 240,
          "midi": 62,
          "name": "D4",
          "ticks": 34200,
          "time": 65.76923624999999,
          "velocity": 0.9921259842519685
        },
        {
          "duration": 0.4615385000000032,
          "durationTicks": 240,
          "midi": 67,
          "name": "G4",
          "ticks": 34200,
          "time": 65.76923624999999,
          "velocity": 1
        },
        {
          "duration": 0.5692308166666606,
          "durationTicks": 296,
          "midi": 67,
          "name": "G4",
          "ticks": 34200,
          "time": 65.76923624999999,
          "velocity": 0.905511811023622
        },
        {
          "duration": 0.9230770000000064,
          "durationTicks": 480,
          "midi": 79,
          "name": "G5",
          "ticks": 34200,
          "time": 65.76923624999999,
          "velocity": 0.7874015748031497
        },
        {
          "duration": 0.47692311666666853,
          "durationTicks": 248,
          "midi": 59,
          "name": "B3",
          "ticks": 34440,
          "time": 66.23077475,
          "velocity": 0.9921259842519685
        },
        {
          "duration": 0.5000000416666666,
          "durationTicks": 260,
          "midi": 74,
          "name": "D5",
          "ticks": 34440,
          "time": 66.23077475,
          "velocity": 0.8267716535433071
        },
        {
          "duration": 0.5307692749999973,
          "durationTicks": 276,
          "midi": 79,
          "name": "G5",
          "ticks": 34440,
          "time": 66.23077475,
          "velocity": 1
        },
        {
          "duration": 0.4615385000000032,
          "durationTicks": 240,
          "midi": 40,
          "name": "E2",
          "ticks": 34680,
          "time": 66.69231325,
          "velocity": 0.9921259842519685
        },
        {
          "duration": 1.323077033333334,
          "durationTicks": 688,
          "midi": 40,
          "name": "E2",
          "ticks": 34680,
          "time": 66.69231325,
          "velocity": 1
        },
        {
          "duration": 1.2307693333333276,
          "durationTicks": 640,
          "midi": 52,
          "name": "E3",
          "ticks": 34680,
          "time": 66.69231325,
          "velocity": 0.7952755905511811
        },
        {
          "duration": 1.461538583333322,
          "durationTicks": 760,
          "midi": 52,
          "name": "E3",
          "ticks": 34680,
          "time": 66.69231325,
          "velocity": 0.7874015748031497
        },
        {
          "duration": 0.33846156666665195,
          "durationTicks": 176,
          "midi": 68,
          "name": "G#4",
          "ticks": 34680,
          "time": 66.69231325,
          "velocity": 0.8740157480314961
        },
        {
          "duration": 0.4615385000000032,
          "durationTicks": 240,
          "midi": 78,
          "name": "F#5",
          "ticks": 34680,
          "time": 66.69231325,
          "velocity": 1
        },
        {
          "duration": 0.9692308499999882,
          "durationTicks": 504,
          "midi": 80,
          "name": "G#5",
          "ticks": 34680,
          "time": 66.69231325,
          "velocity": 0.6062992125984252
        },
        {
          "duration": 1.36923088333333,
          "durationTicks": 712,
          "midi": 52,
          "name": "E3",
          "ticks": 34920,
          "time": 67.15385175,
          "velocity": 0.8267716535433071
        },
        {
          "duration": 0.46153849999998897,
          "durationTicks": 240,
          "midi": 56,
          "name": "G#3",
          "ticks": 34920,
          "time": 67.15385175,
          "velocity": 0.9921259842519685
        },
        {
          "duration": 0.8692308416666634,
          "durationTicks": 452,
          "midi": 64,
          "name": "E4",
          "ticks": 34920,
          "time": 67.15385175,
          "velocity": 0.2440944881889764
        },
        {
          "duration": 0.46153849999998897,
          "durationTicks": 240,
          "midi": 76,
          "name": "E5",
          "ticks": 34920,
          "time": 67.15385175,
          "velocity": 1
        },
        {
          "duration": 0.46923080833335007,
          "durationTicks": 244,
          "midi": 56,
          "name": "G#3",
          "ticks": 35160,
          "time": 67.61539024999999,
          "velocity": 0.8110236220472441
        },
        {
          "duration": 0.4615385000000032,
          "durationTicks": 240,
          "midi": 59,
          "name": "B3",
          "ticks": 35160,
          "time": 67.61539024999999,
          "velocity": 0.9921259842519685
        },
        {
          "duration": 0.4615385000000032,
          "durationTicks": 240,
          "midi": 76,
          "name": "E5",
          "ticks": 35160,
          "time": 67.61539024999999,
          "velocity": 1
        },
        {
          "duration": 0.9230770000000064,
          "durationTicks": 480,
          "midi": 83,
          "name": "B5",
          "ticks": 35160,
          "time": 67.61539024999999,
          "velocity": 0.6062992125984252
        },
        {
          "duration": 0.4615385000000032,
          "durationTicks": 240,
          "midi": 52,
          "name": "E3",
          "ticks": 35400,
          "time": 68.07692875,
          "velocity": 0.9921259842519685
        },
        {
          "duration": 0.5000000416666666,
          "durationTicks": 260,
          "midi": 52,
          "name": "E3",
          "ticks": 35400,
          "time": 68.07692875,
          "velocity": 0.7874015748031497
        },
        {
          "duration": 0.4538461916666563,
          "durationTicks": 236,
          "midi": 59,
          "name": "B3",
          "ticks": 35400,
          "time": 68.07692875,
          "velocity": 0.9133858267716536
        },
        {
          "duration": 0.4615385000000032,
          "durationTicks": 240,
          "midi": 45,
          "name": "A2",
          "ticks": 35640,
          "time": 68.53846725,
          "velocity": 0.5984251968503937
        },
        {
          "duration": 1.423077041666673,
          "durationTicks": 740,
          "midi": 45,
          "name": "A2",
          "ticks": 35640,
          "time": 68.53846725,
          "velocity": 0.9921259842519685
        },
        {
          "duration": 1.3615385749999973,
          "durationTicks": 708,
          "midi": 57,
          "name": "A3",
          "ticks": 35640,
          "time": 68.53846725,
          "velocity": 0.7874015748031497
        },
        {
          "duration": 1.7692309166666718,
          "durationTicks": 920,
          "midi": 60,
          "name": "C4",
          "ticks": 35640,
          "time": 68.53846725,
          "velocity": 0.9921259842519685
        },
        {
          "duration": 0.4615385000000032,
          "durationTicks": 240,
          "midi": 74,
          "name": "D5",
          "ticks": 35640,
          "time": 68.53846725,
          "velocity": 1
        },
        {
          "duration": 5.507692766666665,
          "durationTicks": 2864,
          "midi": 84,
          "name": "C6",
          "ticks": 35640,
          "time": 68.53846725,
          "velocity": 0.3858267716535433
        },
        {
          "duration": 0.7000000583333303,
          "durationTicks": 364,
          "midi": 52,
          "name": "E3",
          "ticks": 35880,
          "time": 69.00000575,
          "velocity": 0.905511811023622
        },
        {
          "duration": 0.46153849999998897,
          "durationTicks": 240,
          "midi": 55,
          "name": "G3",
          "ticks": 35880,
          "time": 69.00000575,
          "velocity": 0.9921259842519685
        },
        {
          "duration": 0.46153849999998897,
          "durationTicks": 240,
          "midi": 76,
          "name": "E5",
          "ticks": 35880,
          "time": 69.00000575,
          "velocity": 1
        },
        {
          "duration": 0.43846157500000515,
          "durationTicks": 228,
          "midi": 57,
          "name": "A3",
          "ticks": 36120,
          "time": 69.46154424999999,
          "velocity": 0.3937007874015748
        },
        {
          "duration": 0.907692383333341,
          "durationTicks": 472,
          "midi": 57,
          "name": "A3",
          "ticks": 36120,
          "time": 69.46154424999999,
          "velocity": 0.2125984251968504
        },
        {
          "duration": 0.4615385000000032,
          "durationTicks": 240,
          "midi": 64,
          "name": "E4",
          "ticks": 36120,
          "time": 69.46154424999999,
          "velocity": 0.9921259842519685
        },
        {
          "duration": 0.7000000583333446,
          "durationTicks": 364,
          "midi": 64,
          "name": "E4",
          "ticks": 36120,
          "time": 69.46154424999999,
          "velocity": 0.8503937007874016
        },
        {
          "duration": 0.4615385000000032,
          "durationTicks": 240,
          "midi": 72,
          "name": "C5",
          "ticks": 36120,
          "time": 69.46154424999999,
          "velocity": 1
        },
        {
          "duration": 0.684615441666665,
          "durationTicks": 356,
          "midi": 52,
          "name": "E3",
          "ticks": 36360,
          "time": 69.92308274999999,
          "velocity": 0.7795275590551181
        },
        {
          "duration": 0.3692308000000111,
          "durationTicks": 192,
          "midi": 59,
          "name": "B3",
          "ticks": 36360,
          "time": 69.92308274999999,
          "velocity": 0.9921259842519685
        },
        {
          "duration": 0.2307692500000087,
          "durationTicks": 120,
          "midi": 71,
          "name": "B4",
          "ticks": 36360,
          "time": 69.92308274999999,
          "velocity": 1
        },
        {
          "duration": 0.46153849999998897,
          "durationTicks": 240,
          "midi": 72,
          "name": "C5",
          "ticks": 36480,
          "time": 70.153852,
          "velocity": 1
        },
        {
          "duration": 0.4615385000000032,
          "durationTicks": 240,
          "midi": 44,
          "name": "G#2",
          "ticks": 36600,
          "time": 70.38462125,
          "velocity": 0.9921259842519685
        },
        {
          "duration": 1.6769232166666654,
          "durationTicks": 872,
          "midi": 44,
          "name": "G#2",
          "ticks": 36600,
          "time": 70.38462125,
          "velocity": 0.1889763779527559
        },
        {
          "duration": 1.2615385666666583,
          "durationTicks": 656,
          "midi": 56,
          "name": "G#3",
          "ticks": 36600,
          "time": 70.38462125,
          "velocity": 0.4330708661417323
        },
        {
          "duration": 1.6692309083333328,
          "durationTicks": 868,
          "midi": 56,
          "name": "G#3",
          "ticks": 36600,
          "time": 70.38462125,
          "velocity": 0.7874015748031497
        },
        {
          "duration": 0.8000000666666551,
          "durationTicks": 416,
          "midi": 60,
          "name": "C4",
          "ticks": 36600,
          "time": 70.38462125,
          "velocity": 0.8110236220472441
        },
        {
          "duration": 0.8000000666666551,
          "durationTicks": 416,
          "midi": 64,
          "name": "E4",
          "ticks": 36600,
          "time": 70.38462125,
          "velocity": 0.8503937007874016
        },
        {
          "duration": 0.46153849999998897,
          "durationTicks": 240,
          "midi": 52,
          "name": "E3",
          "ticks": 36840,
          "time": 70.84615975,
          "velocity": 0.9921259842519685
        },
        {
          "duration": 1.2384616416666603,
          "durationTicks": 644,
          "midi": 56,
          "name": "G#3",
          "ticks": 36840,
          "time": 70.84615975,
          "velocity": 0.7086614173228346
        },
        {
          "duration": 0.23076924999999449,
          "durationTicks": 120,
          "midi": 64,
          "name": "E4",
          "ticks": 36960,
          "time": 71.07692899999999,
          "velocity": 1
        },
        {
          "duration": 0.4615385000000032,
          "durationTicks": 240,
          "midi": 59,
          "name": "B3",
          "ticks": 37080,
          "time": 71.30769824999999,
          "velocity": 0.9921259842519685
        },
        {
          "duration": 1.2000001000000111,
          "durationTicks": 624,
          "midi": 60,
          "name": "C4",
          "ticks": 37080,
          "time": 71.30769824999999,
          "velocity": 0.9921259842519685
        },
        {
          "duration": 1.0461539333333434,
          "durationTicks": 544,
          "midi": 64,
          "name": "E4",
          "ticks": 37080,
          "time": 71.30769824999999,
          "velocity": 0.9921259842519685
        },
        {
          "duration": 0.4615385000000032,
          "durationTicks": 240,
          "midi": 66,
          "name": "F#4",
          "ticks": 37080,
          "time": 71.30769824999999,
          "velocity": 1
        },
        {
          "duration": 0.4615385000000032,
          "durationTicks": 240,
          "midi": 52,
          "name": "E3",
          "ticks": 37320,
          "time": 71.76923674999999,
          "velocity": 0.9921259842519685
        },
        {
          "duration": 0.4307692666666725,
          "durationTicks": 224,
          "midi": 56,
          "name": "G#3",
          "ticks": 37320,
          "time": 71.76923674999999,
          "velocity": 0.7874015748031497
        },
        {
          "duration": 0.4615385000000032,
          "durationTicks": 240,
          "midi": 67,
          "name": "G4",
          "ticks": 37320,
          "time": 71.76923674999999,
          "velocity": 1
        },
        {
          "duration": 0.4615385000000032,
          "durationTicks": 240,
          "midi": 43,
          "name": "G2",
          "ticks": 37560,
          "time": 72.23077525,
          "velocity": 0.9921259842519685
        },
        {
          "duration": 1.1923077916666784,
          "durationTicks": 620,
          "midi": 43,
          "name": "G2",
          "ticks": 37560,
          "time": 72.23077525,
          "velocity": 0.25196850393700787
        },
        {
          "duration": 1.2692308750000052,
          "durationTicks": 660,
          "midi": 55,
          "name": "G3",
          "ticks": 37560,
          "time": 72.23077525,
          "velocity": 0.31496062992125984
        },
        {
          "duration": 1.6692309083333328,
          "durationTicks": 868,
          "midi": 55,
          "name": "G3",
          "ticks": 37560,
          "time": 72.23077525,
          "velocity": 0.7874015748031497
        },
        {
          "duration": 0.7769231416666713,
          "durationTicks": 404,
          "midi": 60,
          "name": "C4",
          "ticks": 37560,
          "time": 72.23077525,
          "velocity": 0.968503937007874
        },
        {
          "duration": 1.1230770166666701,
          "durationTicks": 584,
          "midi": 64,
          "name": "E4",
          "ticks": 37560,
          "time": 72.23077525,
          "velocity": 0.905511811023622
        },
        {
          "duration": 0.4615385000000032,
          "durationTicks": 240,
          "midi": 72,
          "name": "C5",
          "ticks": 37560,
          "time": 72.23077525,
          "velocity": 1
        },
        {
          "duration": 0.4615385000000032,
          "durationTicks": 240,
          "midi": 52,
          "name": "E3",
          "ticks": 37800,
          "time": 72.69231375,
          "velocity": 0.9921259842519685
        },
        {
          "duration": 1.3846154999999953,
          "durationTicks": 720,
          "midi": 55,
          "name": "G3",
          "ticks": 37800,
          "time": 72.69231375,
          "velocity": 0.7637795275590551
        },
        {
          "duration": 0.23076924999999449,
          "durationTicks": 120,
          "midi": 74,
          "name": "D5",
          "ticks": 37800,
          "time": 72.69231375,
          "velocity": 1
        },
        {
          "duration": 0.6923077499999977,
          "durationTicks": 360,
          "midi": 76,
          "name": "E5",
          "ticks": 37920,
          "time": 72.92308299999999,
          "velocity": 1
        },
        {
          "duration": 0.46153849999998897,
          "durationTicks": 240,
          "midi": 60,
          "name": "C4",
          "ticks": 38040,
          "time": 73.15385225,
          "velocity": 0.9921259842519685
        },
        {
          "duration": 0.8461539166666654,
          "durationTicks": 440,
          "midi": 60,
          "name": "C4",
          "ticks": 38040,
          "time": 73.15385225,
          "velocity": 0.8740157480314961
        },
        {
          "duration": 0.8461539166666654,
          "durationTicks": 440,
          "midi": 64,
          "name": "E4",
          "ticks": 38040,
          "time": 73.15385225,
          "velocity": 0.8740157480314961
        },
        {
          "duration": 0.46923080833335007,
          "durationTicks": 244,
          "midi": 55,
          "name": "G3",
          "ticks": 38280,
          "time": 73.61539074999999,
          "velocity": 0.9921259842519685
        },
        {
          "duration": 0.46923080833335007,
          "durationTicks": 244,
          "midi": 55,
          "name": "G3",
          "ticks": 38280,
          "time": 73.61539074999999,
          "velocity": 0.7874015748031497
        },
        {
          "duration": 0.4615385000000032,
          "durationTicks": 240,
          "midi": 74,
          "name": "D5",
          "ticks": 38280,
          "time": 73.61539074999999,
          "velocity": 1
        },
        {
          "duration": 1.8461539999999985,
          "durationTicks": 960,
          "midi": 38,
          "name": "D2",
          "ticks": 38520,
          "time": 74.07692924999999,
          "velocity": 1
        },
        {
          "duration": 0.4615385000000032,
          "durationTicks": 240,
          "midi": 50,
          "name": "D3",
          "ticks": 38520,
          "time": 74.07692924999999,
          "velocity": 0.7874015748031497
        },
        {
          "duration": 1.0076923916666658,
          "durationTicks": 524,
          "midi": 50,
          "name": "D3",
          "ticks": 38520,
          "time": 74.07692924999999,
          "velocity": 0.9921259842519685
        },
        {
          "duration": 1.469230891666669,
          "durationTicks": 764,
          "midi": 50,
          "name": "D3",
          "ticks": 38520,
          "time": 74.07692924999999,
          "velocity": 0.7874015748031497
        },
        {
          "duration": 0.6923077499999977,
          "durationTicks": 360,
          "midi": 69,
          "name": "A4",
          "ticks": 38520,
          "time": 74.07692924999999,
          "velocity": 1
        },
        {
          "duration": 1.4000001166666607,
          "durationTicks": 728,
          "midi": 50,
          "name": "D3",
          "ticks": 38760,
          "time": 74.53846775,
          "velocity": 0.7795275590551181
        },
        {
          "duration": 0.4615385000000032,
          "durationTicks": 240,
          "midi": 57,
          "name": "A3",
          "ticks": 38760,
          "time": 74.53846775,
          "velocity": 0.9921259842519685
        },
        {
          "duration": 0.36923079999999686,
          "durationTicks": 192,
          "midi": 62,
          "name": "D4",
          "ticks": 38760,
          "time": 74.53846775,
          "velocity": 0.6377952755905512
        },
        {
          "duration": 0.5307692749999973,
          "durationTicks": 276,
          "midi": 62,
          "name": "D4",
          "ticks": 38760,
          "time": 74.53846775,
          "velocity": 0.8267716535433071
        },
        {
          "duration": 0.4153846500000071,
          "durationTicks": 216,
          "midi": 66,
          "name": "F#4",
          "ticks": 38760,
          "time": 74.53846775,
          "velocity": 0.7637795275590551
        },
        {
          "duration": 0.4846154250000012,
          "durationTicks": 252,
          "midi": 66,
          "name": "F#4",
          "ticks": 38760,
          "time": 74.53846775,
          "velocity": 0.968503937007874
        },
        {
          "duration": 0.9000000749999941,
          "durationTicks": 468,
          "midi": 62,
          "name": "D4",
          "ticks": 39000,
          "time": 75.00000625,
          "velocity": 0.7874015748031497
        },
        {
          "duration": 0.4769231166666543,
          "durationTicks": 248,
          "midi": 64,
          "name": "E4",
          "ticks": 39000,
          "time": 75.00000625,
          "velocity": 0.7401574803149606
        },
        {
          "duration": 0.8000000666666551,
          "durationTicks": 416,
          "midi": 64,
          "name": "E4",
          "ticks": 39000,
          "time": 75.00000625,
          "velocity": 0.9921259842519685
        },
        {
          "duration": 0.46153849999998897,
          "durationTicks": 240,
          "midi": 66,
          "name": "F#4",
          "ticks": 39000,
          "time": 75.00000625,
          "velocity": 0.9921259842519685
        },
        {
          "duration": 0.5076923499999992,
          "durationTicks": 264,
          "midi": 67,
          "name": "G4",
          "ticks": 39000,
          "time": 75.00000625,
          "velocity": 0.7401574803149606
        },
        {
          "duration": 0.9000000749999941,
          "durationTicks": 468,
          "midi": 67,
          "name": "G4",
          "ticks": 39000,
          "time": 75.00000625,
          "velocity": 0.9921259842519685
        },
        {
          "duration": 0.4615385000000032,
          "durationTicks": 240,
          "midi": 62,
          "name": "D4",
          "ticks": 39240,
          "time": 75.46154474999999,
          "velocity": 0.9921259842519685
        },
        {
          "duration": 0.5153846583333461,
          "durationTicks": 268,
          "midi": 69,
          "name": "A4",
          "ticks": 39240,
          "time": 75.46154474999999,
          "velocity": 0.7244094488188977
        },
        {
          "duration": 0.5846154333333402,
          "durationTicks": 304,
          "midi": 69,
          "name": "A4",
          "ticks": 39240,
          "time": 75.46154474999999,
          "velocity": 1
        },
        {
          "duration": 0.4615385000000032,
          "durationTicks": 240,
          "midi": 43,
          "name": "G2",
          "ticks": 39480,
          "time": 75.92308324999999,
          "velocity": 0.7637795275590551
        },
        {
          "duration": 1.3615385749999973,
          "durationTicks": 708,
          "midi": 43,
          "name": "G2",
          "ticks": 39480,
          "time": 75.92308324999999,
          "velocity": 0.9921259842519685
        },
        {
          "duration": 1.400000116666675,
          "durationTicks": 728,
          "midi": 43,
          "name": "G2",
          "ticks": 39480,
          "time": 75.92308324999999,
          "velocity": 0.8740157480314961
        },
        {
          "duration": 1.3153847250000013,
          "durationTicks": 684,
          "midi": 55,
          "name": "G3",
          "ticks": 39480,
          "time": 75.92308324999999,
          "velocity": 0.7874015748031497
        },
        {
          "duration": 0.5230769666666646,
          "durationTicks": 272,
          "midi": 62,
          "name": "D4",
          "ticks": 39480,
          "time": 75.92308324999999,
          "velocity": 0.6614173228346457
        },
        {
          "duration": 0.9230770000000064,
          "durationTicks": 480,
          "midi": 62,
          "name": "D4",
          "ticks": 39480,
          "time": 75.92308324999999,
          "velocity": 1
        },
        {
          "duration": 0.46923080833333586,
          "durationTicks": 244,
          "midi": 71,
          "name": "B4",
          "ticks": 39480,
          "time": 75.92308324999999,
          "velocity": 0.6771653543307087
        },
        {
          "duration": 0.9384616166666717,
          "durationTicks": 488,
          "midi": 71,
          "name": "B4",
          "ticks": 39480,
          "time": 75.92308324999999,
          "velocity": 1
        },
        {
          "duration": 0.4615385000000032,
          "durationTicks": 240,
          "midi": 50,
          "name": "D3",
          "ticks": 39720,
          "time": 76.38462175,
          "velocity": 0.9921259842519685
        },
        {
          "duration": 0.930769308333339,
          "durationTicks": 484,
          "midi": 50,
          "name": "D3",
          "ticks": 39720,
          "time": 76.38462175,
          "velocity": 0.8503937007874016
        },
        {
          "duration": 1.2923078000000032,
          "durationTicks": 672,
          "midi": 62,
          "name": "D4",
          "ticks": 39720,
          "time": 76.38462175,
          "velocity": 1
        },
        {
          "duration": 0.8384616083333327,
          "durationTicks": 436,
          "midi": 55,
          "name": "G3",
          "ticks": 39960,
          "time": 76.84616025,
          "velocity": 0.5354330708661418
        },
        {
          "duration": 0.9230769999999922,
          "durationTicks": 480,
          "midi": 55,
          "name": "G3",
          "ticks": 39960,
          "time": 76.84616025,
          "velocity": 0.7244094488188977
        },
        {
          "duration": 0.4615385000000032,
          "durationTicks": 240,
          "midi": 59,
          "name": "B3",
          "ticks": 39960,
          "time": 76.84616025,
          "velocity": 0.9921259842519685
        },
        {
          "duration": 0.5076923499999992,
          "durationTicks": 264,
          "midi": 59,
          "name": "B3",
          "ticks": 39960,
          "time": 76.84616025,
          "velocity": 0.9921259842519685
        },
        {
          "duration": 0.4615385000000032,
          "durationTicks": 240,
          "midi": 67,
          "name": "G4",
          "ticks": 39960,
          "time": 76.84616025,
          "velocity": 1
        },
        {
          "duration": 0.7923077583333367,
          "durationTicks": 412,
          "midi": 74,
          "name": "D5",
          "ticks": 39960,
          "time": 76.84616025,
          "velocity": 0.6614173228346457
        },
        {
          "duration": 0.46923080833333586,
          "durationTicks": 244,
          "midi": 55,
          "name": "G3",
          "ticks": 40200,
          "time": 77.30769875,
          "velocity": 0.9921259842519685
        },
        {
          "duration": 0.5230769666666504,
          "durationTicks": 272,
          "midi": 55,
          "name": "G3",
          "ticks": 40200,
          "time": 77.30769875,
          "velocity": 0.7874015748031497
        },
        {
          "duration": 0.46153849999998897,
          "durationTicks": 240,
          "midi": 62,
          "name": "D4",
          "ticks": 40200,
          "time": 77.30769875,
          "velocity": 0.9921259842519685
        },
        {
          "duration": 0.46153849999998897,
          "durationTicks": 240,
          "midi": 74,
          "name": "D5",
          "ticks": 40200,
          "time": 77.30769875,
          "velocity": 1
        },
        {
          "duration": 0.4615385000000032,
          "durationTicks": 240,
          "midi": 45,
          "name": "A2",
          "ticks": 40440,
          "time": 77.76923724999999,
          "velocity": 0.5590551181102362
        },
        {
          "duration": 1.423077041666673,
          "durationTicks": 740,
          "midi": 45,
          "name": "A2",
          "ticks": 40440,
          "time": 77.76923724999999,
          "velocity": 0.9921259842519685
        },
        {
          "duration": 1.1461539416666682,
          "durationTicks": 596,
          "midi": 57,
          "name": "A3",
          "ticks": 40440,
          "time": 77.76923724999999,
          "velocity": 0.7874015748031497
        },
        {
          "duration": 0.6230769750000036,
          "durationTicks": 324,
          "midi": 60,
          "name": "C4",
          "ticks": 40440,
          "time": 77.76923724999999,
          "velocity": 0.8740157480314961
        },
        {
          "duration": 1.4615385833333363,
          "durationTicks": 760,
          "midi": 64,
          "name": "E4",
          "ticks": 40440,
          "time": 77.76923724999999,
          "velocity": 0.6771653543307087
        },
        {
          "duration": 0.5615385083333422,
          "durationTicks": 292,
          "midi": 69,
          "name": "A4",
          "ticks": 40440,
          "time": 77.76923724999999,
          "velocity": 0.905511811023622
        },
        {
          "duration": 0.4615385000000032,
          "durationTicks": 240,
          "midi": 72,
          "name": "C5",
          "ticks": 40440,
          "time": 77.76923724999999,
          "velocity": 1
        },
        {
          "duration": 0.907692383333341,
          "durationTicks": 472,
          "midi": 72,
          "name": "C5",
          "ticks": 40440,
          "time": 77.76923724999999,
          "velocity": 0.6220472440944882
        },
        {
          "duration": 0.4615385000000032,
          "durationTicks": 240,
          "midi": 52,
          "name": "E3",
          "ticks": 40680,
          "time": 78.23077574999999,
          "velocity": 0.9921259842519685
        },
        {
          "duration": 0.9538462333333371,
          "durationTicks": 496,
          "midi": 57,
          "name": "A3",
          "ticks": 40680,
          "time": 78.23077574999999,
          "velocity": 0.2755905511811024
        },
        {
          "duration": 0.23076924999999449,
          "durationTicks": 120,
          "midi": 71,
          "name": "B4",
          "ticks": 40680,
          "time": 78.23077574999999,
          "velocity": 1
        },
        {
          "duration": 0.4615385000000032,
          "durationTicks": 240,
          "midi": 72,
          "name": "C5",
          "ticks": 40800,
          "time": 78.46154499999999,
          "velocity": 1
        },
        {
          "duration": 0.8615385333333307,
          "durationTicks": 448,
          "midi": 57,
          "name": "A3",
          "ticks": 40920,
          "time": 78.69231425,
          "velocity": 0.2677165354330709
        },
        {
          "duration": 0.4307692666666725,
          "durationTicks": 224,
          "midi": 60,
          "name": "C4",
          "ticks": 40920,
          "time": 78.69231425,
          "velocity": 0.9921259842519685
        },
        {
          "duration": 0.4615385000000032,
          "durationTicks": 240,
          "midi": 60,
          "name": "C4",
          "ticks": 40920,
          "time": 78.69231425,
          "velocity": 0.8740157480314961
        },
        {
          "duration": 0.8692308416666634,
          "durationTicks": 452,
          "midi": 69,
          "name": "A4",
          "ticks": 40920,
          "time": 78.69231425,
          "velocity": 0.8740157480314961
        },
        {
          "duration": 0.6923077499999977,
          "durationTicks": 360,
          "midi": 76,
          "name": "E5",
          "ticks": 40920,
          "time": 78.69231425,
          "velocity": 0.6771653543307087
        },
        {
          "duration": 0.7000000583333446,
          "durationTicks": 364,
          "midi": 76,
          "name": "E5",
          "ticks": 41040,
          "time": 78.92308349999999,
          "velocity": 1
        },
        {
          "duration": 0.46153849999998897,
          "durationTicks": 240,
          "midi": 55,
          "name": "G3",
          "ticks": 41160,
          "time": 79.15385275,
          "velocity": 0.9921259842519685
        },
        {
          "duration": 0.4461538833333236,
          "durationTicks": 232,
          "midi": 57,
          "name": "A3",
          "ticks": 41160,
          "time": 79.15385275,
          "velocity": 0.7559055118110236
        },
        {
          "duration": 0.23076924999999449,
          "durationTicks": 120,
          "midi": 74,
          "name": "D5",
          "ticks": 41280,
          "time": 79.384622,
          "velocity": 1
        },
        {
          "duration": 0.4615385000000032,
          "durationTicks": 240,
          "midi": 47,
          "name": "B2",
          "ticks": 41400,
          "time": 79.61539124999999,
          "velocity": 0.9921259842519685
        },
        {
          "duration": 1.623077058333351,
          "durationTicks": 844,
          "midi": 47,
          "name": "B2",
          "ticks": 41400,
          "time": 79.61539124999999,
          "velocity": 0.44881889763779526
        },
        {
          "duration": 1.053846241666676,
          "durationTicks": 548,
          "midi": 59,
          "name": "B3",
          "ticks": 41400,
          "time": 79.61539124999999,
          "velocity": 0.5354330708661418
        },
        {
          "duration": 1.2923078000000174,
          "durationTicks": 672,
          "midi": 59,
          "name": "B3",
          "ticks": 41400,
          "time": 79.61539124999999,
          "velocity": 0.7874015748031497
        },
        {
          "duration": 1.3846155000000095,
          "durationTicks": 720,
          "midi": 62,
          "name": "D4",
          "ticks": 41400,
          "time": 79.61539124999999,
          "velocity": 0.905511811023622
        },
        {
          "duration": 1.7923078416666698,
          "durationTicks": 932,
          "midi": 67,
          "name": "G4",
          "ticks": 41400,
          "time": 79.61539124999999,
          "velocity": 0.5511811023622047
        },
        {
          "duration": 0.4230769583333398,
          "durationTicks": 220,
          "midi": 71,
          "name": "B4",
          "ticks": 41400,
          "time": 79.61539124999999,
          "velocity": 0.8740157480314961
        },
        {
          "duration": 0.4615385000000032,
          "durationTicks": 240,
          "midi": 74,
          "name": "D5",
          "ticks": 41400,
          "time": 79.61539124999999,
          "velocity": 1
        },
        {
          "duration": 1.761538608333339,
          "durationTicks": 916,
          "midi": 74,
          "name": "D5",
          "ticks": 41400,
          "time": 79.61539124999999,
          "velocity": 0.5905511811023622
        },
        {
          "duration": 0.4615385000000032,
          "durationTicks": 240,
          "midi": 55,
          "name": "G3",
          "ticks": 41640,
          "time": 80.07692974999999,
          "velocity": 0.9921259842519685
        },
        {
          "duration": 1.246153949999993,
          "durationTicks": 648,
          "midi": 59,
          "name": "B3",
          "ticks": 41640,
          "time": 80.07692974999999,
          "velocity": 0.7795275590551181
        },
        {
          "duration": 0.8461539166666654,
          "durationTicks": 440,
          "midi": 62,
          "name": "D4",
          "ticks": 41880,
          "time": 80.53846825,
          "velocity": 0.9921259842519685
        },
        {
          "duration": 0.9230770000000064,
          "durationTicks": 480,
          "midi": 74,
          "name": "D5",
          "ticks": 41880,
          "time": 80.53846825,
          "velocity": 0.8740157480314961
        },
        {
          "duration": 0.3230769499999866,
          "durationTicks": 168,
          "midi": 59,
          "name": "B3",
          "ticks": 42120,
          "time": 81.00000675,
          "velocity": 0.9921259842519685
        },
        {
          "duration": 0.4615385000000032,
          "durationTicks": 240,
          "midi": 59,
          "name": "B3",
          "ticks": 42120,
          "time": 81.00000675,
          "velocity": 0.7874015748031497
        },
        {
          "duration": 1.6846155249999981,
          "durationTicks": 876,
          "midi": 59,
          "name": "B3",
          "ticks": 42120,
          "time": 81.00000675,
          "velocity": 0.7637795275590551
        },
        {
          "duration": 0.2538461750000067,
          "durationTicks": 132,
          "midi": 74,
          "name": "D5",
          "ticks": 42240,
          "time": 81.23077599999999,
          "velocity": 1
        },
        {
          "duration": 0.46153849999998897,
          "durationTicks": 240,
          "midi": 47,
          "name": "B2",
          "ticks": 42360,
          "time": 81.46154525,
          "velocity": 0.5511811023622047
        },
        {
          "duration": 1.4307693499999914,
          "durationTicks": 744,
          "midi": 47,
          "name": "B2",
          "ticks": 42360,
          "time": 81.46154525,
          "velocity": 0.9921259842519685
        },
        {
          "duration": 1.3846154999999953,
          "durationTicks": 720,
          "midi": 59,
          "name": "B3",
          "ticks": 42360,
          "time": 81.46154525,
          "velocity": 0.7874015748031497
        },
        {
          "duration": 0.46153849999998897,
          "durationTicks": 240,
          "midi": 75,
          "name": "D#5",
          "ticks": 42360,
          "time": 81.46154525,
          "velocity": 1
        },
        {
          "duration": 0.6923077499999977,
          "durationTicks": 360,
          "midi": 75,
          "name": "D#5",
          "ticks": 42360,
          "time": 81.46154525,
          "velocity": 0.6062992125984252
        },
        {
          "duration": 0.4615385000000032,
          "durationTicks": 240,
          "midi": 54,
          "name": "F#3",
          "ticks": 42600,
          "time": 81.92308374999999,
          "velocity": 0.9921259842519685
        },
        {
          "duration": 1.3538462666666788,
          "durationTicks": 704,
          "midi": 59,
          "name": "B3",
          "ticks": 42600,
          "time": 81.92308374999999,
          "velocity": 0.7637795275590551
        },
        {
          "duration": 1.0384616250000107,
          "durationTicks": 540,
          "midi": 63,
          "name": "D#4",
          "ticks": 42600,
          "time": 81.92308374999999,
          "velocity": 1
        },
        {
          "duration": 0.4923077333333339,
          "durationTicks": 256,
          "midi": 75,
          "name": "D#5",
          "ticks": 42600,
          "time": 81.92308374999999,
          "velocity": 1
        },
        {
          "duration": 0.46153849999998897,
          "durationTicks": 240,
          "midi": 76,
          "name": "E5",
          "ticks": 42720,
          "time": 82.153853,
          "velocity": 1
        },
        {
          "duration": 0.907692383333341,
          "durationTicks": 472,
          "midi": 59,
          "name": "B3",
          "ticks": 42840,
          "time": 82.38462224999999,
          "velocity": 0.9921259842519685
        },
        {
          "duration": 0.4846154250000012,
          "durationTicks": 252,
          "midi": 66,
          "name": "F#4",
          "ticks": 42840,
          "time": 82.38462224999999,
          "velocity": 0.8267716535433071
        },
        {
          "duration": 0.6923077499999977,
          "durationTicks": 360,
          "midi": 78,
          "name": "F#5",
          "ticks": 42840,
          "time": 82.38462224999999,
          "velocity": 0.6299212598425197
        },
        {
          "duration": 0.7000000583333446,
          "durationTicks": 364,
          "midi": 78,
          "name": "F#5",
          "ticks": 42960,
          "time": 82.61539149999999,
          "velocity": 1
        },
        {
          "duration": 0.4615385000000032,
          "durationTicks": 240,
          "midi": 57,
          "name": "A3",
          "ticks": 43080,
          "time": 82.84616075,
          "velocity": 0.9921259842519685
        },
        {
          "duration": 0.08461539166665943,
          "durationTicks": 44,
          "midi": 71,
          "name": "B4",
          "ticks": 43080,
          "time": 82.84616075,
          "velocity": 0.8110236220472441
        },
        {
          "duration": 0.6923077499999977,
          "durationTicks": 360,
          "midi": 78,
          "name": "F#5",
          "ticks": 43200,
          "time": 83.07692999999999,
          "velocity": 1
        },
        {
          "duration": 0.46153849999998897,
          "durationTicks": 240,
          "midi": 52,
          "name": "E3",
          "ticks": 43320,
          "time": 83.30769925,
          "velocity": 0.7874015748031497
        },
        {
          "duration": 1.2615385666666583,
          "durationTicks": 656,
          "midi": 52,
          "name": "E3",
          "ticks": 43320,
          "time": 83.30769925,
          "velocity": 0.9921259842519685
        },
        {
          "duration": 1.5923078249999918,
          "durationTicks": 828,
          "midi": 52,
          "name": "E3",
          "ticks": 43320,
          "time": 83.30769925,
          "velocity": 0.7874015748031497
        },
        {
          "duration": 0.607692358333324,
          "durationTicks": 316,
          "midi": 59,
          "name": "B3",
          "ticks": 43320,
          "time": 83.30769925,
          "velocity": 0.7086614173228346
        },
        {
          "duration": 1.6615385999999859,
          "durationTicks": 864,
          "midi": 62,
          "name": "D4",
          "ticks": 43320,
          "time": 83.30769925,
          "velocity": 0.8740157480314961
        },
        {
          "duration": 1.6230770583333367,
          "durationTicks": 844,
          "midi": 67,
          "name": "G4",
          "ticks": 43320,
          "time": 83.30769925,
          "velocity": 0.8740157480314961
        },
        {
          "duration": 2.7692309999999907,
          "durationTicks": 1440,
          "midi": 76,
          "name": "E5",
          "ticks": 43320,
          "time": 83.30769925,
          "velocity": 0.6299212598425197
        },
        {
          "duration": 1.2692308750000052,
          "durationTicks": 660,
          "midi": 52,
          "name": "E3",
          "ticks": 43560,
          "time": 83.76923774999999,
          "velocity": 0.7559055118110236
        },
        {
          "duration": 0.4615385000000032,
          "durationTicks": 240,
          "midi": 59,
          "name": "B3",
          "ticks": 43560,
          "time": 83.76923774999999,
          "velocity": 0.9921259842519685
        },
        {
          "duration": 0.9230770000000064,
          "durationTicks": 480,
          "midi": 64,
          "name": "E4",
          "ticks": 43560,
          "time": 83.76923774999999,
          "velocity": 0.2204724409448819
        },
        {
          "duration": 0.2307692500000087,
          "durationTicks": 120,
          "midi": 79,
          "name": "G5",
          "ticks": 43560,
          "time": 83.76923774999999,
          "velocity": 1
        },
        {
          "duration": 0.9230769999999922,
          "durationTicks": 480,
          "midi": 79,
          "name": "G5",
          "ticks": 43680,
          "time": 84.000007,
          "velocity": 1
        },
        {
          "duration": 0.7692308333333244,
          "durationTicks": 400,
          "midi": 59,
          "name": "B3",
          "ticks": 43800,
          "time": 84.23077624999999,
          "velocity": 0.7244094488188977
        },
        {
          "duration": 0.661538516666667,
          "durationTicks": 344,
          "midi": 64,
          "name": "E4",
          "ticks": 43800,
          "time": 84.23077624999999,
          "velocity": 0.9921259842519685
        },
        {
          "duration": 0.46923080833333586,
          "durationTicks": 244,
          "midi": 52,
          "name": "E3",
          "ticks": 44040,
          "time": 84.69231475,
          "velocity": 0.7874015748031497
        },
        {
          "duration": 0.4615385000000032,
          "durationTicks": 240,
          "midi": 59,
          "name": "B3",
          "ticks": 44040,
          "time": 84.69231475,
          "velocity": 0.9921259842519685
        },
        {
          "duration": 0.46153849999998897,
          "durationTicks": 240,
          "midi": 50,
          "name": "D3",
          "ticks": 44280,
          "time": 85.15385325,
          "velocity": 0.5905511811023622
        },
        {
          "duration": 1.2384616416666603,
          "durationTicks": 644,
          "midi": 50,
          "name": "D3",
          "ticks": 44280,
          "time": 85.15385325,
          "velocity": 0.9921259842519685
        },
        {
          "duration": 1.3000001083333217,
          "durationTicks": 676,
          "midi": 50,
          "name": "D3",
          "ticks": 44280,
          "time": 85.15385325,
          "velocity": 0.7874015748031497
        },
        {
          "duration": 1.4076924250000076,
          "durationTicks": 732,
          "midi": 50,
          "name": "D3",
          "ticks": 44280,
          "time": 85.15385325,
          "velocity": 0.8740157480314961
        },
        {
          "duration": 1.4076924250000076,
          "durationTicks": 732,
          "midi": 59,
          "name": "B3",
          "ticks": 44280,
          "time": 85.15385325,
          "velocity": 0.8503937007874016
        },
        {
          "duration": 1.3000001083333217,
          "durationTicks": 676,
          "midi": 62,
          "name": "D4",
          "ticks": 44280,
          "time": 85.15385325,
          "velocity": 0.5511811023622047
        },
        {
          "duration": 1.3846154999999953,
          "durationTicks": 720,
          "midi": 62,
          "name": "D4",
          "ticks": 44280,
          "time": 85.15385325,
          "velocity": 0.8110236220472441
        },
        {
          "duration": 1.3000001083333217,
          "durationTicks": 676,
          "midi": 67,
          "name": "G4",
          "ticks": 44280,
          "time": 85.15385325,
          "velocity": 0.7795275590551181
        },
        {
          "duration": 0.4615385000000032,
          "durationTicks": 240,
          "midi": 57,
          "name": "A3",
          "ticks": 44520,
          "time": 85.61539174999999,
          "velocity": 0.9921259842519685
        },
        {
          "duration": 0.4615385000000032,
          "durationTicks": 240,
          "midi": 79,
          "name": "G5",
          "ticks": 44520,
          "time": 85.61539174999999,
          "velocity": 1
        },
        {
          "duration": 0.5307692750000115,
          "durationTicks": 276,
          "midi": 62,
          "name": "D4",
          "ticks": 44760,
          "time": 86.07693024999999,
          "velocity": 0.9921259842519685
        },
        {
          "duration": 0.861538533333345,
          "durationTicks": 448,
          "midi": 74,
          "name": "D5",
          "ticks": 44760,
          "time": 86.07693024999999,
          "velocity": 0.4251968503937008
        },
        {
          "duration": 0.4615385000000032,
          "durationTicks": 240,
          "midi": 78,
          "name": "F#5",
          "ticks": 44760,
          "time": 86.07693024999999,
          "velocity": 1
        },
        {
          "duration": 0.44615388333333783,
          "durationTicks": 232,
          "midi": 50,
          "name": "D3",
          "ticks": 45000,
          "time": 86.53846874999999,
          "velocity": 0.7874015748031497
        },
        {
          "duration": 0.4615385000000032,
          "durationTicks": 240,
          "midi": 59,
          "name": "B3",
          "ticks": 45000,
          "time": 86.53846874999999,
          "velocity": 0.9921259842519685
        },
        {
          "duration": 0.4615385000000032,
          "durationTicks": 240,
          "midi": 79,
          "name": "G5",
          "ticks": 45000,
          "time": 86.53846874999999,
          "velocity": 1
        },
        {
          "duration": 0.4615385000000032,
          "durationTicks": 240,
          "midi": 49,
          "name": "C#3",
          "ticks": 45240,
          "time": 87.00000725,
          "velocity": 0.3779527559055118
        },
        {
          "duration": 1.8692309249999965,
          "durationTicks": 972,
          "midi": 49,
          "name": "C#3",
          "ticks": 45240,
          "time": 87.00000725,
          "velocity": 0.9921259842519685
        },
        {
          "duration": 3.100000258333324,
          "durationTicks": 1612,
          "midi": 49,
          "name": "C#3",
          "ticks": 45240,
          "time": 87.00000725,
          "velocity": 0.7874015748031497
        },
        {
          "duration": 3.2384618083333407,
          "durationTicks": 1684,
          "midi": 49,
          "name": "C#3",
          "ticks": 45240,
          "time": 87.00000725,
          "velocity": 0.7559055118110236
        },
        {
          "duration": 1.3846154999999953,
          "durationTicks": 720,
          "midi": 61,
          "name": "C#4",
          "ticks": 45240,
          "time": 87.00000725,
          "velocity": 0.2283464566929134
        },
        {
          "duration": 1.7076924499999961,
          "durationTicks": 888,
          "midi": 61,
          "name": "C#4",
          "ticks": 45240,
          "time": 87.00000725,
          "velocity": 0.7244094488188977
        },
        {
          "duration": 3.007692558333332,
          "durationTicks": 1564,
          "midi": 69,
          "name": "A4",
          "ticks": 45240,
          "time": 87.00000725,
          "velocity": 0.905511811023622
        },
        {
          "duration": 0.6923077499999977,
          "durationTicks": 360,
          "midi": 76,
          "name": "E5",
          "ticks": 45240,
          "time": 87.00000725,
          "velocity": 0.2755905511811024
        },
        {
          "duration": 0.4615385000000032,
          "durationTicks": 240,
          "midi": 78,
          "name": "F#5",
          "ticks": 45240,
          "time": 87.00000725,
          "velocity": 1
        },
        {
          "duration": 0.46153849999998897,
          "durationTicks": 240,
          "midi": 55,
          "name": "G3",
          "ticks": 45480,
          "time": 87.46154575,
          "velocity": 0.9921259842519685
        },
        {
          "duration": 1.1538462499999866,
          "durationTicks": 600,
          "midi": 76,
          "name": "E5",
          "ticks": 45480,
          "time": 87.46154575,
          "velocity": 1
        },
        {
          "duration": 1.2076924083333296,
          "durationTicks": 628,
          "midi": 76,
          "name": "E5",
          "ticks": 45600,
          "time": 87.692315,
          "velocity": 1
        },
        {
          "duration": 2.0461540166666765,
          "durationTicks": 1064,
          "midi": 61,
          "name": "C#4",
          "ticks": 45720,
          "time": 87.92308424999999,
          "velocity": 0.9921259842519685
        },
        {
          "duration": 0.4615385000000032,
          "durationTicks": 240,
          "midi": 64,
          "name": "E4",
          "ticks": 45960,
          "time": 88.38462274999999,
          "velocity": 0.9921259842519685
        },
        {
          "duration": 1.2076924083333296,
          "durationTicks": 628,
          "midi": 61,
          "name": "C#4",
          "ticks": 46200,
          "time": 88.84616125,
          "velocity": 0.7874015748031497
        },
        {
          "duration": 1.8692309249999965,
          "durationTicks": 972,
          "midi": 61,
          "name": "C#4",
          "ticks": 46200,
          "time": 88.84616125,
          "velocity": 0.5826771653543307
        },
        {
          "duration": 1.8461539999999985,
          "durationTicks": 960,
          "midi": 64,
          "name": "E4",
          "ticks": 46200,
          "time": 88.84616125,
          "velocity": 0.9921259842519685
        },
        {
          "duration": 1.3615385749999973,
          "durationTicks": 708,
          "midi": 69,
          "name": "A4",
          "ticks": 46200,
          "time": 88.84616125,
          "velocity": 0.2125984251968504
        },
        {
          "duration": 1.2538462583333398,
          "durationTicks": 652,
          "midi": 48,
          "name": "C3",
          "ticks": 47160,
          "time": 90.69231525,
          "velocity": 0.7401574803149606
        },
        {
          "duration": 1.6769232166666654,
          "durationTicks": 872,
          "midi": 60,
          "name": "C4",
          "ticks": 47160,
          "time": 90.69231525,
          "velocity": 0.7874015748031497
        },
        {
          "duration": 0.47692311666666853,
          "durationTicks": 248,
          "midi": 76,
          "name": "E5",
          "ticks": 47160,
          "time": 90.69231525,
          "velocity": 0.5905511811023622
        },
        {
          "duration": 0.5000000416666666,
          "durationTicks": 260,
          "midi": 88,
          "name": "E6",
          "ticks": 47160,
          "time": 90.69231525,
          "velocity": 0.9133858267716536
        },
        {
          "duration": 1.3307693416666666,
          "durationTicks": 692,
          "midi": 55,
          "name": "G3",
          "ticks": 47400,
          "time": 91.15385375,
          "velocity": 0.7795275590551181
        },
        {
          "duration": 0.5000000416666666,
          "durationTicks": 260,
          "midi": 71,
          "name": "B4",
          "ticks": 47400,
          "time": 91.15385375,
          "velocity": 0.7637795275590551
        },
        {
          "duration": 1.4000001166666607,
          "durationTicks": 728,
          "midi": 83,
          "name": "B5",
          "ticks": 47400,
          "time": 91.15385375,
          "velocity": 0.8110236220472441
        },
        {
          "duration": 1.2384616416666603,
          "durationTicks": 644,
          "midi": 62,
          "name": "D4",
          "ticks": 47640,
          "time": 91.61539225,
          "velocity": 0.7795275590551181
        },
        {
          "duration": 0.43076926666665827,
          "durationTicks": 224,
          "midi": 69,
          "name": "A4",
          "ticks": 47640,
          "time": 91.61539225,
          "velocity": 0.7007874015748031
        },
        {
          "duration": 0.6923077499999977,
          "durationTicks": 360,
          "midi": 71,
          "name": "B4",
          "ticks": 47640,
          "time": 91.61539225,
          "velocity": 1
        },
        {
          "duration": 0.9230769999999922,
          "durationTicks": 480,
          "midi": 81,
          "name": "A5",
          "ticks": 47640,
          "time": 91.61539225,
          "velocity": 0.7244094488188977
        },
        {
          "duration": 0.5538461999999953,
          "durationTicks": 288,
          "midi": 67,
          "name": "G4",
          "ticks": 47880,
          "time": 92.07693074999999,
          "velocity": 0.7874015748031497
        },
        {
          "duration": 0.4846154250000154,
          "durationTicks": 252,
          "midi": 79,
          "name": "G5",
          "ticks": 47880,
          "time": 92.07693074999999,
          "velocity": 0.7795275590551181
        },
        {
          "duration": 0.11538462499999014,
          "durationTicks": 60,
          "midi": 71,
          "name": "B4",
          "ticks": 48000,
          "time": 92.3077,
          "velocity": 1
        },
        {
          "duration": 0.11538462499999014,
          "durationTicks": 60,
          "midi": 72,
          "name": "C5",
          "ticks": 48000,
          "time": 92.3077,
          "velocity": 1
        },
        {
          "duration": 1.423077041666673,
          "durationTicks": 740,
          "midi": 47,
          "name": "B2",
          "ticks": 48120,
          "time": 92.53846924999999,
          "velocity": 0.7244094488188977
        },
        {
          "duration": 1.6769232166666654,
          "durationTicks": 872,
          "midi": 59,
          "name": "B3",
          "ticks": 48120,
          "time": 92.53846924999999,
          "velocity": 0.7874015748031497
        },
        {
          "duration": 0.9230770000000064,
          "durationTicks": 480,
          "midi": 69,
          "name": "A4",
          "ticks": 48120,
          "time": 92.53846924999999,
          "velocity": 1
        },
        {
          "duration": 1.8000001500000025,
          "durationTicks": 936,
          "midi": 74,
          "name": "D5",
          "ticks": 48120,
          "time": 92.53846924999999,
          "velocity": 0.6220472440944882
        },
        {
          "duration": 1.2384616416666745,
          "durationTicks": 644,
          "midi": 86,
          "name": "D6",
          "ticks": 48120,
          "time": 92.53846924999999,
          "velocity": 0.9133858267716536
        },
        {
          "duration": 1.3076924166666686,
          "durationTicks": 680,
          "midi": 69,
          "name": "A4",
          "ticks": 48360,
          "time": 93.00000775,
          "velocity": 0.7559055118110236
        },
        {
          "duration": 0.9538462333333229,
          "durationTicks": 496,
          "midi": 62,
          "name": "D4",
          "ticks": 48600,
          "time": 93.46154625,
          "velocity": 0.7559055118110236
        },
        {
          "duration": 0.3846154166666764,
          "durationTicks": 200,
          "midi": 55,
          "name": "G3",
          "ticks": 48840,
          "time": 93.92308474999999,
          "velocity": 0.7244094488188977
        },
        {
          "duration": 0.23076924999999449,
          "durationTicks": 120,
          "midi": 71,
          "name": "B4",
          "ticks": 48960,
          "time": 94.153854,
          "velocity": 1
        },
        {
          "duration": 1.36923088333333,
          "durationTicks": 712,
          "midi": 45,
          "name": "A2",
          "ticks": 49080,
          "time": 94.38462324999999,
          "velocity": 0.7007874015748031
        },
        {
          "duration": 1.523077050000012,
          "durationTicks": 792,
          "midi": 57,
          "name": "A3",
          "ticks": 49080,
          "time": 94.38462324999999,
          "velocity": 0.7874015748031497
        },
        {
          "duration": 1.6769232166666654,
          "durationTicks": 872,
          "midi": 57,
          "name": "A3",
          "ticks": 49080,
          "time": 94.38462324999999,
          "velocity": 0.9133858267716536
        },
        {
          "duration": 0.2307692500000087,
          "durationTicks": 120,
          "midi": 72,
          "name": "C5",
          "ticks": 49080,
          "time": 94.38462324999999,
          "velocity": 1
        },
        {
          "duration": 0.5230769666666646,
          "durationTicks": 272,
          "midi": 72,
          "name": "C5",
          "ticks": 49080,
          "time": 94.38462324999999,
          "velocity": 0.6614173228346457
        },
        {
          "duration": 0.2692307916666721,
          "durationTicks": 140,
          "midi": 84,
          "name": "C6",
          "ticks": 49080,
          "time": 94.38462324999999,
          "velocity": 1
        },
        {
          "duration": 0.6923077499999977,
          "durationTicks": 360,
          "midi": 71,
          "name": "B4",
          "ticks": 49200,
          "time": 94.6153925,
          "velocity": 1
        },
        {
          "duration": 1.3692308833333442,
          "durationTicks": 712,
          "midi": 57,
          "name": "A3",
          "ticks": 49440,
          "time": 95.07693099999999,
          "velocity": 0.7086614173228346
        },
        {
          "duration": 0.807692375000002,
          "durationTicks": 420,
          "midi": 64,
          "name": "E4",
          "ticks": 49440,
          "time": 95.07693099999999,
          "velocity": 0.8503937007874016
        },
        {
          "duration": 0.5230769666666646,
          "durationTicks": 272,
          "midi": 71,
          "name": "B4",
          "ticks": 49440,
          "time": 95.07693099999999,
          "velocity": 0.6771653543307087
        },
        {
          "duration": 1.0461539333333434,
          "durationTicks": 544,
          "midi": 60,
          "name": "C4",
          "ticks": 49680,
          "time": 95.53846949999999,
          "velocity": 0.7401574803149606
        },
        {
          "duration": 0.5615385083333422,
          "durationTicks": 292,
          "midi": 64,
          "name": "E4",
          "ticks": 49680,
          "time": 95.53846949999999,
          "velocity": 0.7952755905511811
        },
        {
          "duration": 0.6230769750000036,
          "durationTicks": 324,
          "midi": 64,
          "name": "E4",
          "ticks": 49680,
          "time": 95.53846949999999,
          "velocity": 1
        },
        {
          "duration": 4.392308058333342,
          "durationTicks": 2284,
          "midi": 67,
          "name": "G4",
          "ticks": 49680,
          "time": 95.53846949999999,
          "velocity": 0.8503937007874016
        },
        {
          "duration": 0.44615388333333783,
          "durationTicks": 232,
          "midi": 64,
          "name": "E4",
          "ticks": 49920,
          "time": 96.000008,
          "velocity": 0.7559055118110236
        },
        {
          "duration": 0.34615387499999883,
          "durationTicks": 180,
          "midi": 65,
          "name": "F4",
          "ticks": 49920,
          "time": 96.000008,
          "velocity": 1
        },
        {
          "duration": 0.8384616083333327,
          "durationTicks": 436,
          "midi": 65,
          "name": "F4",
          "ticks": 49920,
          "time": 96.000008,
          "velocity": 0.7401574803149606
        },
        {
          "duration": 0.7000000583333446,
          "durationTicks": 364,
          "midi": 71,
          "name": "B4",
          "ticks": 49920,
          "time": 96.000008,
          "velocity": 0.7007874015748031
        },
        {
          "duration": 1.0384616250000107,
          "durationTicks": 540,
          "midi": 66,
          "name": "F#4",
          "ticks": 50040,
          "time": 96.23077724999999,
          "velocity": 1
        },
        {
          "duration": 4.630769616666669,
          "durationTicks": 2408,
          "midi": 50,
          "name": "D3",
          "ticks": 50280,
          "time": 96.69231574999999,
          "velocity": 0.6220472440944882
        },
        {
          "duration": 2.769231000000005,
          "durationTicks": 1440,
          "midi": 66,
          "name": "F#4",
          "ticks": 50280,
          "time": 96.69231574999999,
          "velocity": 0.5590551181102362
        },
        {
          "duration": 4.838461941666665,
          "durationTicks": 2516,
          "midi": 50,
          "name": "D3",
          "ticks": 50400,
          "time": 96.92308499999999,
          "velocity": 0.7874015748031497
        },
        {
          "duration": 4.638461925000016,
          "durationTicks": 2412,
          "midi": 60,
          "name": "C4",
          "ticks": 50400,
          "time": 96.92308499999999,
          "velocity": 0.6220472440944882
        },
        {
          "duration": 2.938461783333338,
          "durationTicks": 1528,
          "midi": 62,
          "name": "D4",
          "ticks": 50400,
          "time": 96.92308499999999,
          "velocity": 0.41732283464566927
        },
        {
          "duration": 3.0000002499999994,
          "durationTicks": 1560,
          "midi": 69,
          "name": "A4",
          "ticks": 50400,
          "time": 96.92308499999999,
          "velocity": 0.6220472440944882
        },
        {
          "duration": 3.3461541250000124,
          "durationTicks": 1740,
          "midi": 72,
          "name": "C5",
          "ticks": 50400,
          "time": 96.92308499999999,
          "velocity": 0.905511811023622
        },
        {
          "duration": 0.4615385000000032,
          "durationTicks": 240,
          "midi": 71,
          "name": "B4",
          "ticks": 51240,
          "time": 98.53846974999999,
          "velocity": 1
        },
        {
          "duration": 1.3846154999999953,
          "durationTicks": 720,
          "midi": 69,
          "name": "A4",
          "ticks": 51480,
          "time": 99.00000825,
          "velocity": 1
        },
        {
          "duration": 1.3692308833333442,
          "durationTicks": 712,
          "midi": 69,
          "name": "A4",
          "ticks": 51960,
          "time": 99.92308524999999,
          "velocity": 1
        },
        {
          "duration": 3.176923341666665,
          "durationTicks": 1652,
          "midi": 67,
          "name": "G4",
          "ticks": 52200,
          "time": 100.38462374999999,
          "velocity": 1
        },
        {
          "duration": 1.3846154999999953,
          "durationTicks": 720,
          "midi": 43,
          "name": "G2",
          "ticks": 52920,
          "time": 101.76923925,
          "velocity": 0.7401574803149606
        },
        {
          "duration": 1.4076924249999934,
          "durationTicks": 732,
          "midi": 55,
          "name": "G3",
          "ticks": 52920,
          "time": 101.76923925,
          "velocity": 0.7874015748031497
        },
        {
          "duration": 1.6000001333333245,
          "durationTicks": 832,
          "midi": 55,
          "name": "G3",
          "ticks": 52920,
          "time": 101.76923925,
          "velocity": 0.8110236220472441
        },
        {
          "duration": 0.4230769583333256,
          "durationTicks": 220,
          "midi": 79,
          "name": "G5",
          "ticks": 52920,
          "time": 101.76923925,
          "velocity": 1
        },
        {
          "duration": 0.5076923499999992,
          "durationTicks": 264,
          "midi": 50,
          "name": "D3",
          "ticks": 53160,
          "time": 102.23077774999999,
          "velocity": 0.7874015748031497
        },
        {
          "duration": 1.346153958333332,
          "durationTicks": 700,
          "midi": 55,
          "name": "G3",
          "ticks": 53160,
          "time": 102.23077774999999,
          "velocity": 0.6299212598425197
        },
        {
          "duration": 0.9692308500000024,
          "durationTicks": 504,
          "midi": 62,
          "name": "D4",
          "ticks": 53160,
          "time": 102.23077774999999,
          "velocity": 0.8267716535433071
        },
        {
          "duration": 0.4615385000000032,
          "durationTicks": 240,
          "midi": 57,
          "name": "A3",
          "ticks": 53400,
          "time": 102.69231624999999,
          "velocity": 0.6771653543307087
        },
        {
          "duration": 0.9538462333333371,
          "durationTicks": 496,
          "midi": 59,
          "name": "B3",
          "ticks": 53400,
          "time": 102.69231624999999,
          "velocity": 0.7401574803149606
        },
        {
          "duration": 0.9230770000000064,
          "durationTicks": 480,
          "midi": 67,
          "name": "G4",
          "ticks": 53400,
          "time": 102.69231624999999,
          "velocity": 0.8740157480314961
        },
        {
          "duration": 0.5000000416666666,
          "durationTicks": 260,
          "midi": 59,
          "name": "B3",
          "ticks": 53640,
          "time": 103.15385475,
          "velocity": 0.7244094488188977
        },
        {
          "duration": 0.4000000333333418,
          "durationTicks": 208,
          "midi": 62,
          "name": "D4",
          "ticks": 53640,
          "time": 103.15385475,
          "velocity": 0.8267716535433071
        },
        {
          "duration": 0.4923077333333339,
          "durationTicks": 256,
          "midi": 71,
          "name": "B4",
          "ticks": 53640,
          "time": 103.15385475,
          "velocity": 0.8110236220472441
        },
        {
          "duration": 1.461538583333322,
          "durationTicks": 760,
          "midi": 43,
          "name": "G2",
          "ticks": 53880,
          "time": 103.61539325,
          "velocity": 0.25984251968503935
        },
        {
          "duration": 3.1692310333333324,
          "durationTicks": 1648,
          "midi": 43,
          "name": "G2",
          "ticks": 53880,
          "time": 103.61539325,
          "velocity": 0.7559055118110236
        },
        {
          "duration": 1.000000083333319,
          "durationTicks": 520,
          "midi": 52,
          "name": "E3",
          "ticks": 53880,
          "time": 103.61539325,
          "velocity": 0.7244094488188977
        },
        {
          "duration": 1.0153846999999843,
          "durationTicks": 528,
          "midi": 55,
          "name": "G3",
          "ticks": 53880,
          "time": 103.61539325,
          "velocity": 0.7874015748031497
        },
        {
          "duration": 1.3461539583333177,
          "durationTicks": 700,
          "midi": 55,
          "name": "G3",
          "ticks": 53880,
          "time": 103.61539325,
          "velocity": 0.905511811023622
        },
        {
          "duration": 0.9692308499999882,
          "durationTicks": 504,
          "midi": 60,
          "name": "C4",
          "ticks": 53880,
          "time": 103.61539325,
          "velocity": 0.6377952755905512
        },
        {
          "duration": 0.9846154666666536,
          "durationTicks": 512,
          "midi": 64,
          "name": "E4",
          "ticks": 53880,
          "time": 103.61539325,
          "velocity": 0.49606299212598426
        },
        {
          "duration": 1.000000083333319,
          "durationTicks": 520,
          "midi": 64,
          "name": "E4",
          "ticks": 53880,
          "time": 103.61539325,
          "velocity": 0.7952755905511811
        },
        {
          "duration": 0.9615385416666697,
          "durationTicks": 500,
          "midi": 72,
          "name": "C5",
          "ticks": 53880,
          "time": 103.61539325,
          "velocity": 0.905511811023622
        },
        {
          "duration": 1.1384616333333355,
          "durationTicks": 592,
          "midi": 55,
          "name": "G3",
          "ticks": 54120,
          "time": 104.07693174999999,
          "velocity": 0.6929133858267716
        },
        {
          "duration": 0.9615385416666697,
          "durationTicks": 500,
          "midi": 64,
          "name": "E4",
          "ticks": 54120,
          "time": 104.07693174999999,
          "velocity": 0.7007874015748031
        },
        {
          "duration": 0.5230769666666646,
          "durationTicks": 272,
          "midi": 54,
          "name": "F#3",
          "ticks": 54360,
          "time": 104.53847024999999,
          "velocity": 0.6614173228346457
        },
        {
          "duration": 0.9923077750000004,
          "durationTicks": 516,
          "midi": 62,
          "name": "D4",
          "ticks": 54360,
          "time": 104.53847024999999,
          "velocity": 0.6614173228346457
        },
        {
          "duration": 0.9230770000000064,
          "durationTicks": 480,
          "midi": 66,
          "name": "F#4",
          "ticks": 54360,
          "time": 104.53847024999999,
          "velocity": 0.49606299212598426
        },
        {
          "duration": 0.9538462333333371,
          "durationTicks": 496,
          "midi": 67,
          "name": "G4",
          "ticks": 54360,
          "time": 104.53847024999999,
          "velocity": 0.8818897637795275
        },
        {
          "duration": 0.9692308500000024,
          "durationTicks": 504,
          "midi": 67,
          "name": "G4",
          "ticks": 54360,
          "time": 104.53847024999999,
          "velocity": 0.3937007874015748
        },
        {
          "duration": 0.9923077750000004,
          "durationTicks": 516,
          "midi": 76,
          "name": "E5",
          "ticks": 54360,
          "time": 104.53847024999999,
          "velocity": 0.8503937007874016
        },
        {
          "duration": 0.46923080833333586,
          "durationTicks": 244,
          "midi": 55,
          "name": "G3",
          "ticks": 54600,
          "time": 105.00000874999999,
          "velocity": 0.3464566929133858
        },
        {
          "duration": 1.4461539666666567,
          "durationTicks": 752,
          "midi": 43,
          "name": "G2",
          "ticks": 54840,
          "time": 105.46154725,
          "velocity": 0.7401574803149606
        },
        {
          "duration": 0.9692308499999882,
          "durationTicks": 504,
          "midi": 50,
          "name": "D3",
          "ticks": 54840,
          "time": 105.46154725,
          "velocity": 0.6771653543307087
        },
        {
          "duration": 1.3000001083333217,
          "durationTicks": 676,
          "midi": 55,
          "name": "G3",
          "ticks": 54840,
          "time": 105.46154725,
          "velocity": 0.7874015748031497
        },
        {
          "duration": 1.3769231916666627,
          "durationTicks": 716,
          "midi": 55,
          "name": "G3",
          "ticks": 54840,
          "time": 105.46154725,
          "velocity": 0.9133858267716536
        },
        {
          "duration": 1.4307693499999914,
          "durationTicks": 744,
          "midi": 59,
          "name": "B3",
          "ticks": 54840,
          "time": 105.46154725,
          "velocity": 0.5905511811023622
        },
        {
          "duration": 0.9076923833333268,
          "durationTicks": 472,
          "midi": 62,
          "name": "D4",
          "ticks": 54840,
          "time": 105.46154725,
          "velocity": 0.3858267716535433
        },
        {
          "duration": 1.3538462666666646,
          "durationTicks": 704,
          "midi": 62,
          "name": "D4",
          "ticks": 54840,
          "time": 105.46154725,
          "velocity": 0.8031496062992126
        },
        {
          "duration": 1.3769231916666627,
          "durationTicks": 716,
          "midi": 74,
          "name": "D5",
          "ticks": 54840,
          "time": 105.46154725,
          "velocity": 0.8740157480314961
        },
        {
          "duration": 1.1538462499999866,
          "durationTicks": 600,
          "midi": 50,
          "name": "D3",
          "ticks": 55080,
          "time": 105.92308575,
          "velocity": 0.6614173228346457
        },
        {
          "duration": 1.3461539583333177,
          "durationTicks": 700,
          "midi": 55,
          "name": "G3",
          "ticks": 55080,
          "time": 105.92308575,
          "velocity": 0.5354330708661418
        },
        {
          "duration": 1.2307693333333276,
          "durationTicks": 640,
          "midi": 62,
          "name": "D4",
          "ticks": 55080,
          "time": 105.92308575,
          "velocity": 0.7244094488188977
        },
        {
          "duration": 0.4615385000000032,
          "durationTicks": 240,
          "midi": 57,
          "name": "A3",
          "ticks": 55320,
          "time": 106.38462424999999,
          "velocity": 0.6377952755905512
        },
        {
          "duration": 0.9153846916666595,
          "durationTicks": 476,
          "midi": 59,
          "name": "B3",
          "ticks": 55320,
          "time": 106.38462424999999,
          "velocity": 0.6771653543307087
        },
        {
          "duration": 0.3538461833333457,
          "durationTicks": 184,
          "midi": 67,
          "name": "G4",
          "ticks": 55320,
          "time": 106.38462424999999,
          "velocity": 0.6220472440944882
        },
        {
          "duration": 0.5076923499999992,
          "durationTicks": 264,
          "midi": 59,
          "name": "B3",
          "ticks": 55560,
          "time": 106.84616274999999,
          "velocity": 0.6614173228346457
        },
        {
          "duration": 0.4615385000000032,
          "durationTicks": 240,
          "midi": 62,
          "name": "D4",
          "ticks": 55560,
          "time": 106.84616274999999,
          "velocity": 0.7086614173228346
        },
        {
          "duration": 0.100000008333339,
          "durationTicks": 52,
          "midi": 71,
          "name": "B4",
          "ticks": 55560,
          "time": 106.84616274999999,
          "velocity": 0.4566929133858268
        },
        {
          "duration": 0.5461538916666626,
          "durationTicks": 284,
          "midi": 38,
          "name": "D2",
          "ticks": 55800,
          "time": 107.30770125,
          "velocity": 0.6771653543307087
        },
        {
          "duration": 0.8692308416666634,
          "durationTicks": 452,
          "midi": 50,
          "name": "D3",
          "ticks": 55800,
          "time": 107.30770125,
          "velocity": 0.7874015748031497
        },
        {
          "duration": 0.9000000749999941,
          "durationTicks": 468,
          "midi": 50,
          "name": "D3",
          "ticks": 55800,
          "time": 107.30770125,
          "velocity": 0.8503937007874016
        },
        {
          "duration": 1.269230874999991,
          "durationTicks": 660,
          "midi": 50,
          "name": "D3",
          "ticks": 55800,
          "time": 107.30770125,
          "velocity": 0.6299212598425197
        },
        {
          "duration": 0.9923077750000004,
          "durationTicks": 516,
          "midi": 60,
          "name": "C4",
          "ticks": 55800,
          "time": 107.30770125,
          "velocity": 0.6377952755905512
        },
        {
          "duration": 1.36923088333333,
          "durationTicks": 712,
          "midi": 62,
          "name": "D4",
          "ticks": 55800,
          "time": 107.30770125,
          "velocity": 0.5669291338582677
        },
        {
          "duration": 1.2846154916666563,
          "durationTicks": 668,
          "midi": 66,
          "name": "F#4",
          "ticks": 55800,
          "time": 107.30770125,
          "velocity": 0.5354330708661418
        },
        {
          "duration": 0.9230769999999922,
          "durationTicks": 480,
          "midi": 67,
          "name": "G4",
          "ticks": 55800,
          "time": 107.30770125,
          "velocity": 0.5905511811023622
        },
        {
          "duration": 1.3384616499999993,
          "durationTicks": 696,
          "midi": 72,
          "name": "C5",
          "ticks": 55800,
          "time": 107.30770125,
          "velocity": 0.4330708661417323
        },
        {
          "duration": 0.5692308166666606,
          "durationTicks": 296,
          "midi": 57,
          "name": "A3",
          "ticks": 55920,
          "time": 107.53847049999999,
          "velocity": 0.7244094488188977
        },
        {
          "duration": 0.5923077416666587,
          "durationTicks": 308,
          "midi": 50,
          "name": "D3",
          "ticks": 56160,
          "time": 108.00000899999999,
          "velocity": 0.6220472440944882
        },
        {
          "duration": 0.8461539166666796,
          "durationTicks": 440,
          "midi": 48,
          "name": "C3",
          "ticks": 56280,
          "time": 108.23077824999999,
          "velocity": 0.6299212598425197
        },
        {
          "duration": 1.3307693416666666,
          "durationTicks": 692,
          "midi": 50,
          "name": "D3",
          "ticks": 56280,
          "time": 108.23077824999999,
          "velocity": 0.7874015748031497
        },
        {
          "duration": 0.6230769750000036,
          "durationTicks": 324,
          "midi": 57,
          "name": "A3",
          "ticks": 56280,
          "time": 108.23077824999999,
          "velocity": 0.6220472440944882
        },
        {
          "duration": 0.8230769916666674,
          "durationTicks": 428,
          "midi": 62,
          "name": "D4",
          "ticks": 56280,
          "time": 108.23077824999999,
          "velocity": 0.47244094488188976
        },
        {
          "duration": 1.0000000833333331,
          "durationTicks": 520,
          "midi": 66,
          "name": "F#4",
          "ticks": 56280,
          "time": 108.23077824999999,
          "velocity": 0.49606299212598426
        },
        {
          "duration": 0.4000000333333418,
          "durationTicks": 208,
          "midi": 86,
          "name": "D6",
          "ticks": 56280,
          "time": 108.23077824999999,
          "velocity": 0.8110236220472441
        },
        {
          "duration": 0.6769231333333323,
          "durationTicks": 352,
          "midi": 62,
          "name": "D4",
          "ticks": 56400,
          "time": 108.4615475,
          "velocity": 0.6220472440944882
        },
        {
          "duration": 2.546154058333329,
          "durationTicks": 1324,
          "midi": 43,
          "name": "G2",
          "ticks": 57000,
          "time": 109.61539375,
          "velocity": 0.5826771653543307
        },
        {
          "duration": 3.869231091666663,
          "durationTicks": 2012,
          "midi": 43,
          "name": "G2",
          "ticks": 57000,
          "time": 109.61539375,
          "velocity": 0.49606299212598426
        },
        {
          "duration": 2.546154058333329,
          "durationTicks": 1324,
          "midi": 50,
          "name": "D3",
          "ticks": 57000,
          "time": 109.61539375,
          "velocity": 0.49606299212598426
        },
        {
          "duration": 3.1923079583333305,
          "durationTicks": 1660,
          "midi": 55,
          "name": "G3",
          "ticks": 57000,
          "time": 109.61539375,
          "velocity": 0.7874015748031497
        },
        {
          "duration": 3.8307695499999994,
          "durationTicks": 1992,
          "midi": 55,
          "name": "G3",
          "ticks": 57000,
          "time": 109.61539375,
          "velocity": 0.5826771653543307
        },
        {
          "duration": 2.6461540666666536,
          "durationTicks": 1376,
          "midi": 57,
          "name": "A3",
          "ticks": 57000,
          "time": 109.61539375,
          "velocity": 0.28346456692913385
        },
        {
          "duration": 3.7538464666666584,
          "durationTicks": 1952,
          "midi": 62,
          "name": "D4",
          "ticks": 57000,
          "time": 109.61539375,
          "velocity": 0.5826771653543307
        },
        {
          "duration": 3.869231091666663,
          "durationTicks": 2012,
          "midi": 67,
          "name": "G4",
          "ticks": 57000,
          "time": 109.61539375,
          "velocity": 0.6771653543307087
        },
        {
          "duration": 3.8307695499999994,
          "durationTicks": 1992,
          "midi": 79,
          "name": "G5",
          "ticks": 57000,
          "time": 109.61539375,
          "velocity": 0.6771653543307087
        },
        {
          "duration": 3.7538464666666584,
          "durationTicks": 1952,
          "midi": 86,
          "name": "D6",
          "ticks": 57000,
          "time": 109.61539375,
          "velocity": 0.6771653543307087
        },
        {
          "duration": 3.6846156916666644,
          "durationTicks": 1916,
          "midi": 71,
          "name": "B4",
          "ticks": 57120,
          "time": 109.84616299999999,
          "velocity": 0.5826771653543307
        },
        {
          "duration": 3.6153849166666703,
          "durationTicks": 1880,
          "midi": 79,
          "name": "G5",
          "ticks": 57120,
          "time": 109.84616299999999,
          "velocity": 0.5826771653543307
        },
        {
          "duration": 3.6846156916666644,
          "durationTicks": 1916,
          "midi": 91,
          "name": "G6",
          "ticks": 57120,
          "time": 109.84616299999999,
          "velocity": 0.6771653543307087
        },
        {
          "duration": 3.6076926083333376,
          "durationTicks": 1876,
          "midi": 98,
          "name": "D7",
          "ticks": 57120,
          "time": 109.84616299999999,
          "velocity": 0.6771653543307087
        }
      ]
    }
  ]
}

const mid11 = {
  "header": {
    "keySignatures": [
      {
        "key": "C",
        "scale": "major",
        "ticks": 0
      }
    ],
    "meta": [],
    "name": "",
    "ppq": 480,
    "tempos": [
      {
        "bpm": 91.99998773333498,
        "ticks": 0
      }
    ],
    "timeSignatures": [
      {
        "ticks": 0,
        "timeSignature": [
          4,
          4
        ],
        "measures": 0
      }
    ]
  },
  "tracks": [
    {
      "channel": 0,
      "controlChanges": {},
      "pitchBends": [],
      "instrument": {
        "family": "piano",
        "number": 0,
        "name": "acoustic grand piano"
      },
      "name": "",
      "notes": [],
      "endOfTrackTicks": 30720
    },
    {
      "channel": 0,
      "controlChanges": {
        "7": [
          {
            "number": 7,
            "ticks": 0,
            "time": 0,
            "value": 0.9448818897637795
          }
        ]
      },
      "pitchBends": [],
      "instrument": {
        "family": "brass",
        "number": 56,
        "name": "trumpet"
      },
      "name": "",
      "notes": [
        {
          "duration": 0.32608699999999996,
          "durationTicks": 240,
          "midi": 71,
          "name": "B4",
          "ticks": 0,
          "time": 0,
          "velocity": 0.952755905511811
        },
        {
          "duration": 0.02717391666666663,
          "durationTicks": 20,
          "midi": 77,
          "name": "F5",
          "ticks": 240,
          "time": 0.32608699999999996,
          "velocity": 0.8267716535433071
        },
        {
          "duration": 0.47282615,
          "durationTicks": 348,
          "midi": 78,
          "name": "F#5",
          "ticks": 240,
          "time": 0.32608699999999996,
          "velocity": 0.952755905511811
        },
        {
          "duration": 0.326087,
          "durationTicks": 240,
          "midi": 76,
          "name": "E5",
          "ticks": 600,
          "time": 0.8152174999999999,
          "velocity": 0.952755905511811
        },
        {
          "duration": 0.4891304999999999,
          "durationTicks": 360,
          "midi": 76,
          "name": "E5",
          "ticks": 960,
          "time": 1.3043479999999998,
          "velocity": 0.952755905511811
        },
        {
          "duration": 0.32608700000000024,
          "durationTicks": 240,
          "midi": 76,
          "name": "E5",
          "ticks": 1440,
          "time": 1.9565219999999997,
          "velocity": 0.952755905511811
        },
        {
          "duration": 0.3260869999999998,
          "durationTicks": 240,
          "midi": 78,
          "name": "F#5",
          "ticks": 1680,
          "time": 2.282609,
          "velocity": 0.952755905511811
        },
        {
          "duration": 0.3260869999999998,
          "durationTicks": 240,
          "midi": 80,
          "name": "G#5",
          "ticks": 1920,
          "time": 2.6086959999999997,
          "velocity": 0.952755905511811
        },
        {
          "duration": 0.32608700000000024,
          "durationTicks": 240,
          "midi": 83,
          "name": "B5",
          "ticks": 2160,
          "time": 2.9347829999999995,
          "velocity": 0.952755905511811
        },
        {
          "duration": 0.04347826666666643,
          "durationTicks": 32,
          "midi": 79,
          "name": "G5",
          "ticks": 2400,
          "time": 3.2608699999999997,
          "velocity": 0.8267716535433071
        },
        {
          "duration": 0.5760870333333332,
          "durationTicks": 424,
          "midi": 80,
          "name": "G#5",
          "ticks": 2400,
          "time": 3.2608699999999997,
          "velocity": 0.952755905511811
        },
        {
          "duration": 0.8152175000000002,
          "durationTicks": 600,
          "midi": 80,
          "name": "G#5",
          "ticks": 2880,
          "time": 3.9130439999999993,
          "velocity": 0.952755905511811
        },
        {
          "duration": 0.32608700000000024,
          "durationTicks": 240,
          "midi": 83,
          "name": "B5",
          "ticks": 3840,
          "time": 5.217391999999999,
          "velocity": 0.952755905511811
        },
        {
          "duration": 0.32608699999999935,
          "durationTicks": 240,
          "midi": 88,
          "name": "E6",
          "ticks": 4080,
          "time": 5.543479,
          "velocity": 0.952755905511811
        },
        {
          "duration": 0.32608700000000024,
          "durationTicks": 240,
          "midi": 88,
          "name": "E6",
          "ticks": 4320,
          "time": 5.869565999999999,
          "velocity": 0.952755905511811
        },
        {
          "duration": 0.32608700000000024,
          "durationTicks": 240,
          "midi": 87,
          "name": "D#6",
          "ticks": 4560,
          "time": 6.195652999999999,
          "velocity": 0.952755905511811
        },
        {
          "duration": 0.32608699999999935,
          "durationTicks": 240,
          "midi": 87,
          "name": "D#6",
          "ticks": 4800,
          "time": 6.521739999999999,
          "velocity": 0.952755905511811
        },
        {
          "duration": 0.4891304999999999,
          "durationTicks": 360,
          "midi": 85,
          "name": "C#6",
          "ticks": 5040,
          "time": 6.847826999999999,
          "velocity": 0.952755905511811
        },
        {
          "duration": 0.32608700000000024,
          "durationTicks": 240,
          "midi": 80,
          "name": "G#5",
          "ticks": 5400,
          "time": 7.336957499999999,
          "velocity": 0.952755905511811
        },
        {
          "duration": 0.021739133333333882,
          "durationTicks": 16,
          "midi": 79,
          "name": "G5",
          "ticks": 5760,
          "time": 7.826087999999999,
          "velocity": 0.952755905511811
        },
        {
          "duration": 2.2826090000000008,
          "durationTicks": 1680,
          "midi": 80,
          "name": "G#5",
          "ticks": 5760,
          "time": 7.826087999999999,
          "velocity": 0.952755905511811
        },
        {
          "duration": 0.32608699999999935,
          "durationTicks": 240,
          "midi": 80,
          "name": "G#5",
          "ticks": 7680,
          "time": 10.434783999999999,
          "velocity": 0.952755905511811
        },
        {
          "duration": 0.4891304999999999,
          "durationTicks": 360,
          "midi": 78,
          "name": "F#5",
          "ticks": 7920,
          "time": 10.760870999999998,
          "velocity": 0.952755905511811
        },
        {
          "duration": 0.3260870000000011,
          "durationTicks": 240,
          "midi": 76,
          "name": "E5",
          "ticks": 8280,
          "time": 11.250001499999998,
          "velocity": 0.952755905511811
        },
        {
          "duration": 0.4891304999999999,
          "durationTicks": 360,
          "midi": 76,
          "name": "E5",
          "ticks": 8640,
          "time": 11.739131999999998,
          "velocity": 0.952755905511811
        },
        {
          "duration": 0.32608699999999935,
          "durationTicks": 240,
          "midi": 73,
          "name": "C#5",
          "ticks": 9120,
          "time": 12.391305999999998,
          "velocity": 0.952755905511811
        },
        {
          "duration": 0.3260870000000011,
          "durationTicks": 240,
          "midi": 76,
          "name": "E5",
          "ticks": 9360,
          "time": 12.717392999999998,
          "velocity": 0.952755905511811
        },
        {
          "duration": 0.32608699999999935,
          "durationTicks": 240,
          "midi": 73,
          "name": "C#5",
          "ticks": 9600,
          "time": 13.043479999999999,
          "velocity": 0.952755905511811
        },
        {
          "duration": 0.016304349999998635,
          "durationTicks": 12,
          "midi": 77,
          "name": "F5",
          "ticks": 9840,
          "time": 13.369566999999998,
          "velocity": 0.952755905511811
        },
        {
          "duration": 0.3804348333333323,
          "durationTicks": 280,
          "midi": 78,
          "name": "F#5",
          "ticks": 9840,
          "time": 13.369566999999998,
          "velocity": 0.952755905511811
        },
        {
          "duration": 0.4891304999999999,
          "durationTicks": 360,
          "midi": 78,
          "name": "F#5",
          "ticks": 10200,
          "time": 13.858697499999998,
          "velocity": 0.952755905511811
        },
        {
          "duration": 0.16304350000000056,
          "durationTicks": 120,
          "midi": 75,
          "name": "D#5",
          "ticks": 10560,
          "time": 14.347827999999998,
          "velocity": 0.952755905511811
        },
        {
          "duration": 0.1630434999999988,
          "durationTicks": 120,
          "midi": 73,
          "name": "C#5",
          "ticks": 10680,
          "time": 14.510871499999999,
          "velocity": 0.952755905511811
        },
        {
          "duration": 0.9782609999999998,
          "durationTicks": 720,
          "midi": 71,
          "name": "B4",
          "ticks": 10800,
          "time": 14.673914999999997,
          "velocity": 0.952755905511811
        },
        {
          "duration": 0.021739133333333882,
          "durationTicks": 16,
          "midi": 77,
          "name": "F5",
          "ticks": 11760,
          "time": 15.978262999999998,
          "velocity": 0.952755905511811
        },
        {
          "duration": 0.2717391666666664,
          "durationTicks": 200,
          "midi": 78,
          "name": "F#5",
          "ticks": 11760,
          "time": 15.978262999999998,
          "velocity": 0.952755905511811
        },
        {
          "duration": 0.3260869999999976,
          "durationTicks": 240,
          "midi": 78,
          "name": "F#5",
          "ticks": 12000,
          "time": 16.30435,
          "velocity": 0.952755905511811
        },
        {
          "duration": 0.3260870000000011,
          "durationTicks": 240,
          "midi": 80,
          "name": "G#5",
          "ticks": 12240,
          "time": 16.630436999999997,
          "velocity": 0.952755905511811
        },
        {
          "duration": 0.6521739999999987,
          "durationTicks": 480,
          "midi": 73,
          "name": "C#5",
          "ticks": 12480,
          "time": 16.956523999999998,
          "velocity": 0.952755905511811
        },
        {
          "duration": 0.3260870000000011,
          "durationTicks": 240,
          "midi": 71,
          "name": "B4",
          "ticks": 12960,
          "time": 17.608697999999997,
          "velocity": 0.952755905511811
        },
        {
          "duration": 0.16304350000000056,
          "durationTicks": 120,
          "midi": 73,
          "name": "C#5",
          "ticks": 13200,
          "time": 17.934784999999998,
          "velocity": 0.952755905511811
        },
        {
          "duration": 0.3260869999999976,
          "durationTicks": 240,
          "midi": 76,
          "name": "E5",
          "ticks": 13320,
          "time": 18.0978285,
          "velocity": 0.952755905511811
        },
        {
          "duration": 0.16304350000000056,
          "durationTicks": 120,
          "midi": 75,
          "name": "D#5",
          "ticks": 13560,
          "time": 18.423915499999996,
          "velocity": 0.952755905511811
        },
        {
          "duration": 1.630435000000002,
          "durationTicks": 1200,
          "midi": 76,
          "name": "E5",
          "ticks": 13680,
          "time": 18.586958999999997,
          "velocity": 0.952755905511811
        },
        {
          "duration": 0.3260870000000011,
          "durationTicks": 240,
          "midi": 71,
          "name": "B4",
          "ticks": 15360,
          "time": 20.869567999999997,
          "velocity": 0.952755905511811
        },
        {
          "duration": 0.010869566666663388,
          "durationTicks": 8,
          "midi": 77,
          "name": "F5",
          "ticks": 15600,
          "time": 21.195655,
          "velocity": 0.952755905511811
        },
        {
          "duration": 0.4673913666666678,
          "durationTicks": 344,
          "midi": 78,
          "name": "F#5",
          "ticks": 15600,
          "time": 21.195655,
          "velocity": 0.952755905511811
        },
        {
          "duration": 0.4891305000000017,
          "durationTicks": 360,
          "midi": 76,
          "name": "E5",
          "ticks": 15960,
          "time": 21.684785499999997,
          "velocity": 0.952755905511811
        },
        {
          "duration": 0.48913049999999814,
          "durationTicks": 360,
          "midi": 76,
          "name": "E5",
          "ticks": 16320,
          "time": 22.173916,
          "velocity": 0.952755905511811
        },
        {
          "duration": 0.3260870000000011,
          "durationTicks": 240,
          "midi": 76,
          "name": "E5",
          "ticks": 16800,
          "time": 22.826089999999997,
          "velocity": 0.952755905511811
        },
        {
          "duration": 0.3260869999999976,
          "durationTicks": 240,
          "midi": 78,
          "name": "F#5",
          "ticks": 17040,
          "time": 23.152177,
          "velocity": 0.952755905511811
        },
        {
          "duration": 0.3260870000000011,
          "durationTicks": 240,
          "midi": 80,
          "name": "G#5",
          "ticks": 17280,
          "time": 23.478263999999996,
          "velocity": 0.952755905511811
        },
        {
          "duration": 0.3260870000000011,
          "durationTicks": 240,
          "midi": 83,
          "name": "B5",
          "ticks": 17520,
          "time": 23.804350999999997,
          "velocity": 0.952755905511811
        },
        {
          "duration": 0.02173913333333033,
          "durationTicks": 16,
          "midi": 79,
          "name": "G5",
          "ticks": 17760,
          "time": 24.130437999999998,
          "velocity": 0.952755905511811
        },
        {
          "duration": 0.6250000833333331,
          "durationTicks": 460,
          "midi": 80,
          "name": "G#5",
          "ticks": 17760,
          "time": 24.130437999999998,
          "velocity": 0.952755905511811
        },
        {
          "duration": 0.9782609999999998,
          "durationTicks": 720,
          "midi": 80,
          "name": "G#5",
          "ticks": 18240,
          "time": 24.782611999999997,
          "velocity": 0.952755905511811
        },
        {
          "duration": 0.3260869999999976,
          "durationTicks": 240,
          "midi": 83,
          "name": "B5",
          "ticks": 19200,
          "time": 26.086959999999998,
          "velocity": 0.952755905511811
        },
        {
          "duration": 0.16304350000000056,
          "durationTicks": 120,
          "midi": 88,
          "name": "E6",
          "ticks": 19440,
          "time": 26.413046999999995,
          "velocity": 0.952755905511811
        },
        {
          "duration": 0.3260870000000011,
          "durationTicks": 240,
          "midi": 88,
          "name": "E6",
          "ticks": 19680,
          "time": 26.739133999999996,
          "velocity": 0.952755905511811
        },
        {
          "duration": 0.02173913333333033,
          "durationTicks": 16,
          "midi": 86,
          "name": "D6",
          "ticks": 19920,
          "time": 27.065220999999998,
          "velocity": 0.952755905511811
        },
        {
          "duration": 0.29891308333333555,
          "durationTicks": 220,
          "midi": 87,
          "name": "D#6",
          "ticks": 19920,
          "time": 27.065220999999998,
          "velocity": 0.952755905511811
        },
        {
          "duration": 0.3260870000000011,
          "durationTicks": 240,
          "midi": 87,
          "name": "D#6",
          "ticks": 20160,
          "time": 27.391307999999995,
          "velocity": 0.952755905511811
        },
        {
          "duration": 0.6521739999999987,
          "durationTicks": 480,
          "midi": 85,
          "name": "C#6",
          "ticks": 20400,
          "time": 27.717394999999996,
          "velocity": 0.952755905511811
        },
        {
          "duration": 0.3260870000000011,
          "durationTicks": 240,
          "midi": 80,
          "name": "G#5",
          "ticks": 20880,
          "time": 28.369568999999995,
          "velocity": 0.952755905511811
        },
        {
          "duration": 0.021739133333333882,
          "durationTicks": 16,
          "midi": 79,
          "name": "G5",
          "ticks": 21120,
          "time": 28.695655999999996,
          "velocity": 0.952755905511811
        },
        {
          "duration": 2.1195655,
          "durationTicks": 1560,
          "midi": 80,
          "name": "G#5",
          "ticks": 21120,
          "time": 28.695655999999996,
          "velocity": 0.952755905511811
        },
        {
          "duration": 0.3260870000000011,
          "durationTicks": 240,
          "midi": 80,
          "name": "G#5",
          "ticks": 23040,
          "time": 31.304351999999994,
          "velocity": 0.952755905511811
        },
        {
          "duration": 0.4891305000000017,
          "durationTicks": 360,
          "midi": 78,
          "name": "F#5",
          "ticks": 23280,
          "time": 31.630438999999996,
          "velocity": 0.952755905511811
        },
        {
          "duration": 0.4891305000000017,
          "durationTicks": 360,
          "midi": 76,
          "name": "E5",
          "ticks": 23640,
          "time": 32.1195695,
          "velocity": 0.952755905511811
        },
        {
          "duration": 0.6521739999999951,
          "durationTicks": 480,
          "midi": 76,
          "name": "E5",
          "ticks": 24000,
          "time": 32.6087,
          "velocity": 0.952755905511811
        },
        {
          "duration": 0.021739133333333882,
          "durationTicks": 16,
          "midi": 84,
          "name": "C6",
          "ticks": 24480,
          "time": 33.260873999999994,
          "velocity": 0.7952755905511811
        },
        {
          "duration": 0.2989130833333391,
          "durationTicks": 220,
          "midi": 85,
          "name": "C#6",
          "ticks": 24480,
          "time": 33.260873999999994,
          "velocity": 0.952755905511811
        },
        {
          "duration": 0.3260870000000011,
          "durationTicks": 240,
          "midi": 85,
          "name": "C#6",
          "ticks": 24720,
          "time": 33.586960999999995,
          "velocity": 0.952755905511811
        },
        {
          "duration": 0.3260870000000011,
          "durationTicks": 240,
          "midi": 83,
          "name": "B5",
          "ticks": 24960,
          "time": 33.913047999999996,
          "velocity": 0.952755905511811
        },
        {
          "duration": 0.3260870000000011,
          "durationTicks": 240,
          "midi": 83,
          "name": "B5",
          "ticks": 25200,
          "time": 34.239135,
          "velocity": 0.952755905511811
        },
        {
          "duration": 0.010869566666663388,
          "durationTicks": 8,
          "midi": 79,
          "name": "G5",
          "ticks": 25440,
          "time": 34.565222,
          "velocity": 0.952755905511811
        },
        {
          "duration": 1.793478499999999,
          "durationTicks": 1320,
          "midi": 80,
          "name": "G#5",
          "ticks": 25440,
          "time": 34.565222,
          "velocity": 0.952755905511811
        },
        {
          "duration": 0.16304350000000056,
          "durationTicks": 120,
          "midi": 78,
          "name": "F#5",
          "ticks": 27120,
          "time": 36.84783099999999,
          "velocity": 0.952755905511811
        },
        {
          "duration": 0.3260870000000011,
          "durationTicks": 240,
          "midi": 78,
          "name": "F#5",
          "ticks": 27360,
          "time": 37.17391799999999,
          "velocity": 0.952755905511811
        },
        {
          "duration": 0.3260870000000011,
          "durationTicks": 240,
          "midi": 80,
          "name": "G#5",
          "ticks": 27600,
          "time": 37.500004999999994,
          "velocity": 0.952755905511811
        },
        {
          "duration": 0.6521740000000023,
          "durationTicks": 480,
          "midi": 81,
          "name": "A5",
          "ticks": 27840,
          "time": 37.826091999999996,
          "velocity": 0.952755905511811
        },
        {
          "duration": 0.326086999999994,
          "durationTicks": 240,
          "midi": 80,
          "name": "G#5",
          "ticks": 28320,
          "time": 38.478266,
          "velocity": 0.952755905511811
        },
        {
          "duration": 0.14673915000000193,
          "durationTicks": 108,
          "midi": 78,
          "name": "F#5",
          "ticks": 28560,
          "time": 38.80435299999999,
          "velocity": 0.952755905511811
        },
        {
          "duration": 0.3260870000000011,
          "durationTicks": 240,
          "midi": 76,
          "name": "E5",
          "ticks": 28680,
          "time": 38.96739649999999,
          "velocity": 0.952755905511811
        },
        {
          "duration": 0.16304350000000056,
          "durationTicks": 120,
          "midi": 75,
          "name": "D#5",
          "ticks": 28920,
          "time": 39.293483499999994,
          "velocity": 0.952755905511811
        },
        {
          "duration": 2.2826090000000008,
          "durationTicks": 1680,
          "midi": 76,
          "name": "E5",
          "ticks": 29040,
          "time": 39.456526999999994,
          "velocity": 0.952755905511811
        }
      ]
    },
    {
      "channel": 1,
      "controlChanges": {
        "7": [
          {
            "number": 7,
            "ticks": 0,
            "time": 0,
            "value": 0.8661417322834646
          }
        ]
      },
      "pitchBends": [],
      "instrument": {
        "family": "piano",
        "number": 0,
        "name": "acoustic grand piano"
      },
      "name": "",
      "notes": [
        {
          "duration": 2.6086959999999997,
          "durationTicks": 1920,
          "midi": 40,
          "name": "E2",
          "ticks": 240,
          "time": 0.32608699999999996,
          "velocity": 0.6456692913385826
        },
        {
          "duration": 0.9782609999999998,
          "durationTicks": 720,
          "midi": 63,
          "name": "D#4",
          "ticks": 240,
          "time": 0.32608699999999996,
          "velocity": 0.7401574803149606
        },
        {
          "duration": 0.9782609999999998,
          "durationTicks": 720,
          "midi": 66,
          "name": "F#4",
          "ticks": 240,
          "time": 0.32608699999999996,
          "velocity": 0.889763779527559
        },
        {
          "duration": 1.9565219999999997,
          "durationTicks": 1440,
          "midi": 47,
          "name": "B2",
          "ticks": 720,
          "time": 0.9782609999999998,
          "velocity": 0.5354330708661418
        },
        {
          "duration": 1.6304349999999996,
          "durationTicks": 1200,
          "midi": 52,
          "name": "E3",
          "ticks": 960,
          "time": 1.3043479999999998,
          "velocity": 0.5669291338582677
        },
        {
          "duration": 1.6304349999999996,
          "durationTicks": 1200,
          "midi": 64,
          "name": "E4",
          "ticks": 960,
          "time": 1.3043479999999998,
          "velocity": 0.7401574803149606
        },
        {
          "duration": 1.6304349999999996,
          "durationTicks": 1200,
          "midi": 68,
          "name": "G#4",
          "ticks": 960,
          "time": 1.3043479999999998,
          "velocity": 0.8267716535433071
        },
        {
          "duration": 0.652174,
          "durationTicks": 480,
          "midi": 44,
          "name": "G#2",
          "ticks": 2160,
          "time": 2.9347829999999995,
          "velocity": 0.7559055118110236
        },
        {
          "duration": 0.652174,
          "durationTicks": 480,
          "midi": 63,
          "name": "D#4",
          "ticks": 2160,
          "time": 2.9347829999999995,
          "velocity": 0.8031496062992126
        },
        {
          "duration": 0.8152175000000002,
          "durationTicks": 600,
          "midi": 66,
          "name": "F#4",
          "ticks": 2160,
          "time": 2.9347829999999995,
          "velocity": 0.905511811023622
        },
        {
          "duration": 1.956522,
          "durationTicks": 1440,
          "midi": 51,
          "name": "D#3",
          "ticks": 2640,
          "time": 3.5869569999999995,
          "velocity": 0.7007874015748031
        },
        {
          "duration": 1.956522,
          "durationTicks": 1440,
          "midi": 59,
          "name": "B3",
          "ticks": 2640,
          "time": 3.5869569999999995,
          "velocity": 0.7559055118110236
        },
        {
          "duration": 1.6304350000000003,
          "durationTicks": 1200,
          "midi": 64,
          "name": "E4",
          "ticks": 2880,
          "time": 3.9130439999999993,
          "velocity": 0.8110236220472441
        },
        {
          "duration": 1.6304350000000003,
          "durationTicks": 1200,
          "midi": 68,
          "name": "G#4",
          "ticks": 2880,
          "time": 3.9130439999999993,
          "velocity": 0.7795275590551181
        },
        {
          "duration": 2.608696,
          "durationTicks": 1920,
          "midi": 49,
          "name": "C#3",
          "ticks": 4080,
          "time": 5.543479,
          "velocity": 0.7007874015748031
        },
        {
          "duration": 2.608696,
          "durationTicks": 1920,
          "midi": 56,
          "name": "G#3",
          "ticks": 4080,
          "time": 5.543479,
          "velocity": 0.8110236220472441
        },
        {
          "duration": 2.608696,
          "durationTicks": 1920,
          "midi": 59,
          "name": "B3",
          "ticks": 4080,
          "time": 5.543479,
          "velocity": 0.7874015748031497
        },
        {
          "duration": 2.608696,
          "durationTicks": 1920,
          "midi": 64,
          "name": "E4",
          "ticks": 4080,
          "time": 5.543479,
          "velocity": 0.8346456692913385
        },
        {
          "duration": 2.6086959999999983,
          "durationTicks": 1920,
          "midi": 47,
          "name": "B2",
          "ticks": 6000,
          "time": 8.152175,
          "velocity": 0.6929133858267716
        },
        {
          "duration": 1.1413044999999986,
          "durationTicks": 840,
          "midi": 62,
          "name": "D4",
          "ticks": 6000,
          "time": 8.152175,
          "velocity": 0.9921259842519685
        },
        {
          "duration": 2.282608999999999,
          "durationTicks": 1680,
          "midi": 56,
          "name": "G#3",
          "ticks": 6240,
          "time": 8.478261999999999,
          "velocity": 0.7795275590551181
        },
        {
          "duration": 1.6304350000000003,
          "durationTicks": 1200,
          "midi": 59,
          "name": "B3",
          "ticks": 6480,
          "time": 8.804348999999998,
          "velocity": 0.7952755905511811
        },
        {
          "duration": 0.6521739999999987,
          "durationTicks": 480,
          "midi": 66,
          "name": "F#4",
          "ticks": 6720,
          "time": 9.130436,
          "velocity": 0.7559055118110236
        },
        {
          "duration": 0.9782609999999998,
          "durationTicks": 720,
          "midi": 64,
          "name": "E4",
          "ticks": 7200,
          "time": 9.782609999999998,
          "velocity": 0.8503937007874016
        },
        {
          "duration": 2.4456524999999996,
          "durationTicks": 1800,
          "midi": 45,
          "name": "A2",
          "ticks": 7920,
          "time": 10.760870999999998,
          "velocity": 0.7795275590551181
        },
        {
          "duration": 0.9782609999999998,
          "durationTicks": 720,
          "midi": 61,
          "name": "C#4",
          "ticks": 7920,
          "time": 10.760870999999998,
          "velocity": 0.6456692913385826
        },
        {
          "duration": 0.6521740000000005,
          "durationTicks": 480,
          "midi": 64,
          "name": "E4",
          "ticks": 7920,
          "time": 10.760870999999998,
          "velocity": 0.7952755905511811
        },
        {
          "duration": 0.9782609999999998,
          "durationTicks": 720,
          "midi": 68,
          "name": "G#4",
          "ticks": 7920,
          "time": 10.760870999999998,
          "velocity": 0.7559055118110236
        },
        {
          "duration": 1.6304350000000003,
          "durationTicks": 1200,
          "midi": 64,
          "name": "E4",
          "ticks": 8640,
          "time": 11.739131999999998,
          "velocity": 0.8110236220472441
        },
        {
          "duration": 1.6304350000000003,
          "durationTicks": 1200,
          "midi": 71,
          "name": "B4",
          "ticks": 8640,
          "time": 11.739131999999998,
          "velocity": 0.7401574803149606
        },
        {
          "duration": 2.608696,
          "durationTicks": 1920,
          "midi": 44,
          "name": "G#2",
          "ticks": 9840,
          "time": 13.369566999999998,
          "velocity": 0.6929133858267716
        },
        {
          "duration": 0.32608699999999935,
          "durationTicks": 240,
          "midi": 59,
          "name": "B3",
          "ticks": 9840,
          "time": 13.369566999999998,
          "velocity": 0.7086614173228346
        },
        {
          "duration": 0.4891304999999999,
          "durationTicks": 360,
          "midi": 63,
          "name": "D#4",
          "ticks": 9840,
          "time": 13.369566999999998,
          "velocity": 0.7244094488188977
        },
        {
          "duration": 0.9782609999999998,
          "durationTicks": 720,
          "midi": 66,
          "name": "F#4",
          "ticks": 9840,
          "time": 13.369566999999998,
          "velocity": 0.7637795275590551
        },
        {
          "duration": 2.2826090000000008,
          "durationTicks": 1680,
          "midi": 56,
          "name": "G#3",
          "ticks": 10080,
          "time": 13.695653999999998,
          "velocity": 0.7559055118110236
        },
        {
          "duration": 1.9565219999999997,
          "durationTicks": 1440,
          "midi": 59,
          "name": "B3",
          "ticks": 10320,
          "time": 14.021740999999999,
          "velocity": 0.7401574803149606
        },
        {
          "duration": 1.6304350000000003,
          "durationTicks": 1200,
          "midi": 63,
          "name": "D#4",
          "ticks": 10560,
          "time": 14.347827999999998,
          "velocity": 0.6614173228346457
        },
        {
          "duration": 2.6086959999999983,
          "durationTicks": 1920,
          "midi": 42,
          "name": "F#2",
          "ticks": 11760,
          "time": 15.978262999999998,
          "velocity": 0.8503937007874016
        },
        {
          "duration": 0.9782609999999998,
          "durationTicks": 720,
          "midi": 52,
          "name": "E3",
          "ticks": 11760,
          "time": 15.978262999999998,
          "velocity": 0.7637795275590551
        },
        {
          "duration": 0.6521739999999987,
          "durationTicks": 480,
          "midi": 57,
          "name": "A3",
          "ticks": 11760,
          "time": 15.978262999999998,
          "velocity": 0.7086614173228346
        },
        {
          "duration": 0.6521739999999987,
          "durationTicks": 480,
          "midi": 49,
          "name": "C#3",
          "ticks": 12000,
          "time": 16.30435,
          "velocity": 0.7401574803149606
        },
        {
          "duration": 0.3260870000000011,
          "durationTicks": 240,
          "midi": 57,
          "name": "A3",
          "ticks": 12240,
          "time": 16.630436999999997,
          "velocity": 0.6929133858267716
        },
        {
          "duration": 1.6304349999999985,
          "durationTicks": 1200,
          "midi": 47,
          "name": "B2",
          "ticks": 12480,
          "time": 16.956523999999998,
          "velocity": 0.7086614173228346
        },
        {
          "duration": 1.6304349999999985,
          "durationTicks": 1200,
          "midi": 59,
          "name": "B3",
          "ticks": 12480,
          "time": 16.956523999999998,
          "velocity": 0.7086614173228346
        },
        {
          "duration": 1.6304349999999985,
          "durationTicks": 1200,
          "midi": 64,
          "name": "E4",
          "ticks": 12480,
          "time": 16.956523999999998,
          "velocity": 0.7086614173228346
        },
        {
          "duration": 1.6304349999999985,
          "durationTicks": 1200,
          "midi": 66,
          "name": "F#4",
          "ticks": 12480,
          "time": 16.956523999999998,
          "velocity": 0.8346456692913385
        },
        {
          "duration": 1.304348000000001,
          "durationTicks": 960,
          "midi": 40,
          "name": "E2",
          "ticks": 13680,
          "time": 18.586958999999997,
          "velocity": 0.7795275590551181
        },
        {
          "duration": 1.304348000000001,
          "durationTicks": 960,
          "midi": 68,
          "name": "G#4",
          "ticks": 13680,
          "time": 18.586958999999997,
          "velocity": 0.8503937007874016
        },
        {
          "duration": 1.304348000000001,
          "durationTicks": 960,
          "midi": 71,
          "name": "B4",
          "ticks": 13680,
          "time": 18.586958999999997,
          "velocity": 0.8031496062992126
        },
        {
          "duration": 0.9782609999999998,
          "durationTicks": 720,
          "midi": 47,
          "name": "B2",
          "ticks": 13920,
          "time": 18.913045999999998,
          "velocity": 0.7952755905511811
        },
        {
          "duration": 0.6521739999999987,
          "durationTicks": 480,
          "midi": 52,
          "name": "E3",
          "ticks": 14160,
          "time": 19.239133,
          "velocity": 0.7952755905511811
        },
        {
          "duration": 0.3260870000000011,
          "durationTicks": 240,
          "midi": 59,
          "name": "B3",
          "ticks": 14400,
          "time": 19.565219999999997,
          "velocity": 0.8346456692913385
        },
        {
          "duration": 1.304348000000001,
          "durationTicks": 960,
          "midi": 47,
          "name": "B2",
          "ticks": 14640,
          "time": 19.891306999999998,
          "velocity": 0.8346456692913385
        },
        {
          "duration": 0.6521739999999987,
          "durationTicks": 480,
          "midi": 61,
          "name": "C#4",
          "ticks": 14640,
          "time": 19.891306999999998,
          "velocity": 0.7795275590551181
        },
        {
          "duration": 0.6521739999999987,
          "durationTicks": 480,
          "midi": 64,
          "name": "E4",
          "ticks": 14640,
          "time": 19.891306999999998,
          "velocity": 0.6929133858267716
        },
        {
          "duration": 0.6521739999999987,
          "durationTicks": 480,
          "midi": 69,
          "name": "A4",
          "ticks": 14640,
          "time": 19.891306999999998,
          "velocity": 0.7244094488188977
        },
        {
          "duration": 0.9782609999999998,
          "durationTicks": 720,
          "midi": 54,
          "name": "F#3",
          "ticks": 14880,
          "time": 20.217394,
          "velocity": 0.6614173228346457
        },
        {
          "duration": 0.6521740000000023,
          "durationTicks": 480,
          "midi": 61,
          "name": "C#4",
          "ticks": 15120,
          "time": 20.543480999999996,
          "velocity": 0.6456692913385826
        },
        {
          "duration": 0.6521740000000023,
          "durationTicks": 480,
          "midi": 64,
          "name": "E4",
          "ticks": 15120,
          "time": 20.543480999999996,
          "velocity": 0.6377952755905512
        },
        {
          "duration": 0.6521740000000023,
          "durationTicks": 480,
          "midi": 66,
          "name": "F#4",
          "ticks": 15120,
          "time": 20.543480999999996,
          "velocity": 0.6456692913385826
        },
        {
          "duration": 2.6086959999999983,
          "durationTicks": 1920,
          "midi": 40,
          "name": "E2",
          "ticks": 15600,
          "time": 21.195655,
          "velocity": 0.7637795275590551
        },
        {
          "duration": 0.6521739999999987,
          "durationTicks": 480,
          "midi": 52,
          "name": "E3",
          "ticks": 15600,
          "time": 21.195655,
          "velocity": 0.6929133858267716
        },
        {
          "duration": 0.9782609999999998,
          "durationTicks": 720,
          "midi": 66,
          "name": "F#4",
          "ticks": 15600,
          "time": 21.195655,
          "velocity": 0.8267716535433071
        },
        {
          "duration": 0.9782609999999998,
          "durationTicks": 720,
          "midi": 71,
          "name": "B4",
          "ticks": 15600,
          "time": 21.195655,
          "velocity": 0.8346456692913385
        },
        {
          "duration": 0.3260870000000011,
          "durationTicks": 240,
          "midi": 59,
          "name": "B3",
          "ticks": 16080,
          "time": 21.847828999999997,
          "velocity": 0.6456692913385826
        },
        {
          "duration": 1.6304349999999985,
          "durationTicks": 1200,
          "midi": 56,
          "name": "G#3",
          "ticks": 16320,
          "time": 22.173916,
          "velocity": 0.8110236220472441
        },
        {
          "duration": 0.9782609999999998,
          "durationTicks": 720,
          "midi": 68,
          "name": "G#4",
          "ticks": 16320,
          "time": 22.173916,
          "velocity": 0.7637795275590551
        },
        {
          "duration": 0.3260869999999976,
          "durationTicks": 240,
          "midi": 71,
          "name": "B4",
          "ticks": 17040,
          "time": 23.152177,
          "velocity": 0.8031496062992126
        },
        {
          "duration": 0.3260870000000011,
          "durationTicks": 240,
          "midi": 59,
          "name": "B3",
          "ticks": 17280,
          "time": 23.478263999999996,
          "velocity": 0.5826771653543307
        },
        {
          "duration": 2.2826090000000008,
          "durationTicks": 1680,
          "midi": 51,
          "name": "D#3",
          "ticks": 17520,
          "time": 23.804350999999997,
          "velocity": 0.7007874015748031
        },
        {
          "duration": 0.3260870000000011,
          "durationTicks": 240,
          "midi": 59,
          "name": "B3",
          "ticks": 17520,
          "time": 23.804350999999997,
          "velocity": 0.7007874015748031
        },
        {
          "duration": 0.9782609999999998,
          "durationTicks": 720,
          "midi": 68,
          "name": "G#4",
          "ticks": 17520,
          "time": 23.804350999999997,
          "velocity": 0.7007874015748031
        },
        {
          "duration": 0.3260869999999976,
          "durationTicks": 240,
          "midi": 59,
          "name": "B3",
          "ticks": 17760,
          "time": 24.130437999999998,
          "velocity": 0.7244094488188977
        },
        {
          "duration": 0.6521740000000023,
          "durationTicks": 480,
          "midi": 59,
          "name": "B3",
          "ticks": 18000,
          "time": 24.456524999999996,
          "velocity": 0.5669291338582677
        },
        {
          "duration": 1.304348000000001,
          "durationTicks": 960,
          "midi": 63,
          "name": "D#4",
          "ticks": 18240,
          "time": 24.782611999999997,
          "velocity": 0.5354330708661418
        },
        {
          "duration": 1.304348000000001,
          "durationTicks": 960,
          "midi": 66,
          "name": "F#4",
          "ticks": 18240,
          "time": 24.782611999999997,
          "velocity": 0.7952755905511811
        },
        {
          "duration": 2.5271742500000016,
          "durationTicks": 1860,
          "midi": 49,
          "name": "C#3",
          "ticks": 19440,
          "time": 26.413046999999995,
          "velocity": 0.6377952755905512
        },
        {
          "duration": 0.9782609999999998,
          "durationTicks": 720,
          "midi": 64,
          "name": "E4",
          "ticks": 19440,
          "time": 26.413046999999995,
          "velocity": 0.8110236220472441
        },
        {
          "duration": 0.8152175000000028,
          "durationTicks": 600,
          "midi": 68,
          "name": "G#4",
          "ticks": 19440,
          "time": 26.413046999999995,
          "velocity": 0.968503937007874
        },
        {
          "duration": 2.2826090000000008,
          "durationTicks": 1680,
          "midi": 56,
          "name": "G#3",
          "ticks": 19680,
          "time": 26.739133999999996,
          "velocity": 0.5826771653543307
        },
        {
          "duration": 1.9565219999999997,
          "durationTicks": 1440,
          "midi": 59,
          "name": "B3",
          "ticks": 19920,
          "time": 27.065220999999998,
          "velocity": 0.8110236220472441
        },
        {
          "duration": 1.630435000000002,
          "durationTicks": 1200,
          "midi": 64,
          "name": "E4",
          "ticks": 20160,
          "time": 27.391307999999995,
          "velocity": 0.7401574803149606
        },
        {
          "duration": 2.445652499999998,
          "durationTicks": 1800,
          "midi": 47,
          "name": "B2",
          "ticks": 21360,
          "time": 29.021742999999997,
          "velocity": 0.6929133858267716
        },
        {
          "duration": 0.48913049999999814,
          "durationTicks": 360,
          "midi": 62,
          "name": "D4",
          "ticks": 21360,
          "time": 29.021742999999997,
          "velocity": 0.889763779527559
        },
        {
          "duration": 0.9782609999999998,
          "durationTicks": 720,
          "midi": 66,
          "name": "F#4",
          "ticks": 21360,
          "time": 29.021742999999997,
          "velocity": 0.8976377952755905
        },
        {
          "duration": 2.03804375,
          "durationTicks": 1500,
          "midi": 56,
          "name": "G#3",
          "ticks": 21600,
          "time": 29.347829999999995,
          "velocity": 0.8110236220472441
        },
        {
          "duration": 0.3260870000000011,
          "durationTicks": 240,
          "midi": 59,
          "name": "B3",
          "ticks": 21840,
          "time": 29.673916999999996,
          "velocity": 0.7795275590551181
        },
        {
          "duration": 0.733695749999999,
          "durationTicks": 540,
          "midi": 62,
          "name": "D4",
          "ticks": 22080,
          "time": 30.000003999999997,
          "velocity": 0.7795275590551181
        },
        {
          "duration": 0.9782609999999998,
          "durationTicks": 720,
          "midi": 66,
          "name": "F#4",
          "ticks": 22560,
          "time": 30.652177999999996,
          "velocity": 0.8818897637795275
        },
        {
          "duration": 2.608696000000002,
          "durationTicks": 1920,
          "midi": 45,
          "name": "A2",
          "ticks": 23280,
          "time": 31.630438999999996,
          "velocity": 0.8031496062992126
        },
        {
          "duration": 2.608696000000002,
          "durationTicks": 1920,
          "midi": 57,
          "name": "A3",
          "ticks": 23280,
          "time": 31.630438999999996,
          "velocity": 0.7559055118110236
        },
        {
          "duration": 0.6521740000000023,
          "durationTicks": 480,
          "midi": 61,
          "name": "C#4",
          "ticks": 23280,
          "time": 31.630438999999996,
          "velocity": 0.7952755905511811
        },
        {
          "duration": 0.6521740000000023,
          "durationTicks": 480,
          "midi": 64,
          "name": "E4",
          "ticks": 23280,
          "time": 31.630438999999996,
          "velocity": 0.8031496062992126
        },
        {
          "duration": 0.9782610000000034,
          "durationTicks": 720,
          "midi": 68,
          "name": "G#4",
          "ticks": 23280,
          "time": 31.630438999999996,
          "velocity": 0.7401574803149606
        },
        {
          "duration": 1.6304349999999985,
          "durationTicks": 1200,
          "midi": 61,
          "name": "C#4",
          "ticks": 24000,
          "time": 32.6087,
          "velocity": 0.7637795275590551
        },
        {
          "duration": 1.6304349999999985,
          "durationTicks": 1200,
          "midi": 64,
          "name": "E4",
          "ticks": 24000,
          "time": 32.6087,
          "velocity": 0.6929133858267716
        },
        {
          "duration": 2.608695999999995,
          "durationTicks": 1920,
          "midi": 44,
          "name": "G#2",
          "ticks": 25200,
          "time": 34.239135,
          "velocity": 0.7244094488188977
        },
        {
          "duration": 0.3260870000000011,
          "durationTicks": 240,
          "midi": 54,
          "name": "F#3",
          "ticks": 25200,
          "time": 34.239135,
          "velocity": 0.6771653543307087
        },
        {
          "duration": 0.5706522499999949,
          "durationTicks": 420,
          "midi": 59,
          "name": "B3",
          "ticks": 25200,
          "time": 34.239135,
          "velocity": 0.7007874015748031
        },
        {
          "duration": 0.6521739999999951,
          "durationTicks": 480,
          "midi": 63,
          "name": "D#4",
          "ticks": 25200,
          "time": 34.239135,
          "velocity": 0.7244094488188977
        },
        {
          "duration": 1.6304349999999985,
          "durationTicks": 1200,
          "midi": 54,
          "name": "F#3",
          "ticks": 25440,
          "time": 34.565222,
          "velocity": 0.6456692913385826
        },
        {
          "duration": 0.3260870000000011,
          "durationTicks": 240,
          "midi": 59,
          "name": "B3",
          "ticks": 25680,
          "time": 34.89130899999999,
          "velocity": 0.7086614173228346
        },
        {
          "duration": 1.6304349999999985,
          "durationTicks": 1200,
          "midi": 66,
          "name": "F#4",
          "ticks": 25920,
          "time": 35.217395999999994,
          "velocity": 0.7795275590551181
        },
        {
          "duration": 0.9782610000000034,
          "durationTicks": 720,
          "midi": 42,
          "name": "F#2",
          "ticks": 27120,
          "time": 36.84783099999999,
          "velocity": 0.7637795275590551
        },
        {
          "duration": 0.3260870000000011,
          "durationTicks": 240,
          "midi": 52,
          "name": "E3",
          "ticks": 27120,
          "time": 36.84783099999999,
          "velocity": 0.7795275590551181
        },
        {
          "duration": 0.3260870000000011,
          "durationTicks": 240,
          "midi": 57,
          "name": "A3",
          "ticks": 27120,
          "time": 36.84783099999999,
          "velocity": 0.8661417322834646
        },
        {
          "duration": 0.3260870000000011,
          "durationTicks": 240,
          "midi": 61,
          "name": "C#4",
          "ticks": 27120,
          "time": 36.84783099999999,
          "velocity": 0.8031496062992126
        },
        {
          "duration": 0.3260870000000011,
          "durationTicks": 240,
          "midi": 52,
          "name": "E3",
          "ticks": 27360,
          "time": 37.17391799999999,
          "velocity": 0.6377952755905512
        },
        {
          "duration": 0.3260870000000011,
          "durationTicks": 240,
          "midi": 57,
          "name": "A3",
          "ticks": 27600,
          "time": 37.500004999999994,
          "velocity": 0.6614173228346457
        },
        {
          "duration": 1.6304349999999985,
          "durationTicks": 1200,
          "midi": 47,
          "name": "B2",
          "ticks": 27840,
          "time": 37.826091999999996,
          "velocity": 0.7559055118110236
        },
        {
          "duration": 1.6304349999999985,
          "durationTicks": 1200,
          "midi": 57,
          "name": "A3",
          "ticks": 27840,
          "time": 37.826091999999996,
          "velocity": 0.7637795275590551
        },
        {
          "duration": 1.5489132499999982,
          "durationTicks": 1140,
          "midi": 61,
          "name": "C#4",
          "ticks": 27840,
          "time": 37.826091999999996,
          "velocity": 0.7401574803149606
        },
        {
          "duration": 1.1413044999999968,
          "durationTicks": 840,
          "midi": 64,
          "name": "E4",
          "ticks": 27840,
          "time": 37.826091999999996,
          "velocity": 0.8503937007874016
        },
        {
          "duration": 1.5489132499999982,
          "durationTicks": 1140,
          "midi": 66,
          "name": "F#4",
          "ticks": 27840,
          "time": 37.826091999999996,
          "velocity": 0.8740157480314961
        },
        {
          "duration": 2.2826090000000008,
          "durationTicks": 1680,
          "midi": 40,
          "name": "E2",
          "ticks": 29040,
          "time": 39.456526999999994,
          "velocity": 0.6614173228346457
        },
        {
          "duration": 0.3260870000000011,
          "durationTicks": 240,
          "midi": 59,
          "name": "B3",
          "ticks": 29040,
          "time": 39.456526999999994,
          "velocity": 0.8031496062992126
        },
        {
          "duration": 0.6521740000000023,
          "durationTicks": 480,
          "midi": 64,
          "name": "E4",
          "ticks": 29040,
          "time": 39.456526999999994,
          "velocity": 0.8740157480314961
        },
        {
          "duration": 0.6521740000000023,
          "durationTicks": 480,
          "midi": 68,
          "name": "G#4",
          "ticks": 29040,
          "time": 39.456526999999994,
          "velocity": 0.8031496062992126
        },
        {
          "duration": 1.9565219999999997,
          "durationTicks": 1440,
          "midi": 52,
          "name": "E3",
          "ticks": 29280,
          "time": 39.782613999999995,
          "velocity": 0.7007874015748031
        },
        {
          "duration": 0.3260870000000011,
          "durationTicks": 240,
          "midi": 59,
          "name": "B3",
          "ticks": 29520,
          "time": 40.108700999999996,
          "velocity": 0.6377952755905512
        },
        {
          "duration": 0.326086999999994,
          "durationTicks": 240,
          "midi": 64,
          "name": "E4",
          "ticks": 29760,
          "time": 40.434788,
          "velocity": 0.905511811023622
        },
        {
          "duration": 0.3260870000000011,
          "durationTicks": 240,
          "midi": 59,
          "name": "B3",
          "ticks": 30000,
          "time": 40.76087499999999,
          "velocity": 0.6299212598425197
        },
        {
          "duration": 0.570652250000002,
          "durationTicks": 420,
          "midi": 71,
          "name": "B4",
          "ticks": 30240,
          "time": 41.08696199999999,
          "velocity": 1
        },
        {
          "duration": 0.3260870000000011,
          "durationTicks": 240,
          "midi": 59,
          "name": "B3",
          "ticks": 30480,
          "time": 41.413048999999994,
          "velocity": 0.6929133858267716
        }
      ],
      "endOfTrackTicks": 30720
    }
  ]
}

// import { scale, Session, getChordsByProgression, chords } from 'scribbletune/browser';
// import { getToneMonoSynth, samplers } from './sounds';

// console.log(chords())

// const btnStart = document.getElementById('start');
const btnPlay = document.getElementById('play');
const btnReset = document.getElementById('reset');
//const btnDrum = document.getElementById('drum');
const progress = document.getElementById('progress');

btnPlay.style.backgroundColor = 'rgb(252, 201,185)'

// btnStart.addEventListener('click', () => {
//     Tone.context.resume().then(() => Tone.Transport.start());
// });

window.onload = function(){
    Tone.context.resume().then(() => {
      Tone.Transport.start()
      Tone.getContext().lookAhead = 0
      Tone.Transport.bpm.value = 50;
    });
}

// 播放鼓点
// const player = new Tone.Player("https://tonejs.github.io/audio/drum-samples/breakbeat.mp3").toDestination();
// player.loop = true;
// player.autostart = true;

// btnDrum.addEventListener('click', (e) => {
//   if(btnDrum.textContent === '播放鼓点'){
//     player.start();
//     btnDrum.textContent = '停止鼓点'
//   }
//   else{
//     player.stop();
//     btnDrum.textContent = '播放鼓点'
//   }
// });


// const synth = new Tone.Synth().toDestination();
// const seq = new Tone.Sequence((time, note) => {
// 	synth.triggerAttackRelease(note, 0.1, time);
// 	// subdivisions are given as subarrays
// }, ["C4"]);

// const synth = new Tone.PolySynth().toDestination();
// set the attributes across all the voices using 'set'
//synth.set({ detune: -1200 });

// const sampler = new Tone.Sampler({
// 	urls: {
// 		A1: "A1.mp3",
// 		A2: "A2.mp3",
// 	},
// 	baseUrl: "https://tonejs.github.io/audio/casio/",
// 	onload: () => {
// 		sampler.triggerAttackRelease(["C1", "E1", "G1", "B1"], 0.5);
// 	}
// }).toDestination();

//const plucky = new Tone.PluckSynth().toDestination();


// const session = new Session();
// const kickChannel = session.createChannel({
// 	sample: 'https://scribbletune.com/sounds/kick.wav',
// 	clips: [
// 		{ pattern: 'x' }
// 	]
// });

// const snareChannel = session.createChannel({
// 	sample: 'https://scribbletune.com/sounds/snare.wav',
// 	clips: [
// 		{ pattern: '-x' }
// 	]
// });

// const chChannel = session.createChannel({
// 	sample: 'https://scribbletune.com/sounds/ch.wav',
// 	clips: [
// 		{ pattern: '[xx][xx][xxx][xx]' }
// 	]
// });

// kickChannel.startClip(0);
// snareChannel.startClip(0);
// chChannel.startClip(0);


function getQueryVariable(variable)
{
    var query = window.location.search.substring(1);
    var vars = query.split("&");
    for (var i=0;i<vars.length;i++) {
        var pair = vars[i].split("=");
        if(pair[0] == variable){return pair[1];}
    }
    return(false);
}
const songs = {
  '1':mid10,
  '2':mid2,
  '3':mid3,
  '4':mid4,
  '5':mid5,
  '6':mid6,
  '7':mid7,
  '8':mid8,
  '9':mid9,
  '10':mid1,
  '11':mid11,
}
const id = getQueryVariable('id');
const mid = songs[id];
document.getElementById('title').textContent = mid.header.name;

// const chorus = new Tone.Chorus(4, 2.5, 0.5).toDestination().start();
// const synth = new Tone.PolySynth().connect(chorus);

const synth = new Tone.PolySynth(Tone.Synth, {
  envelope: {
    attack: 0.02,
    decay: 0.1,
    sustain: 0.3,
    release: 1,
  },
}).toDestination();

const notes2 = [
  ["C2","C4", "E4", "G4", "B4", "E5"],
  ["C2","C4", "E4", "G4", "B4", "E5"],
  ["B2","D4", "F4", "A4", "C5", "F5"],
  ["A2","D4", "F4", "A4", "C5", "G5"],
  ["G2","D3", "F4", "G4", "B4", "G5"],
  ["G2","D3", "F4", "G4", "B4", "F5"],
  ["F2","A3", "E4", "A4", "C5", "E5"],
  ["G2","B3", "F4", "F4", "G4", "D5"],
  ["A2","C4", "E4", "G4", "A4", "C5"],
  ["A2","C4", "E4", "G4", "A4", "C5"], 
  ["A2","C4", "E4", "G4", "A4", "D5"], 
  ["B2","C4", "E4", "G4", "A4", "E5"],
  ["C2","C4", "E4", "G4", "A4", "E5"],
  ["G2","B3", "D4", "F4", "G4", "D5"],
  ["G2","B3", "D4", "F4", "G4", "D5"],

  ["C2","C4", "E4", "G4", "B4", "E5"],
  ["C2","C4", "E4", "G4", "B4", "E5"],
  ["B2","D4", "F4", "A4", "C5", "F5"],
  ["A2","D4", "F4", "A4", "C5", "G5"],
  ["G2","D3", "F4", "G4", "B4", "G5"],
  ["G2","D3", "F4", "G4", "B4", "F5"],
  ["F2","A3", "E4", "A4", "C5", "E5"],
  ["G2","B3", "F4", "F4", "G4", "D5"],
  ["A2","C4", "E4", "G4", "A4", "C5"],
  ["A2","C4", "E4", "G4", "A4", "C5"], 
  ["A2","C4", "E4", "G4", "A4", "D5"], 
  ["B2","C4", "E4", "G4", "A4", "E5"],
  ["D2","C4", "E4", "F4", "A4", "D5"],
  ["G2","B3", "D4", "F4", "B4", "C5"],
  ["C2","C4", "E4", "G4", "B4", "C5"],

  ["G2","B3", "E4", "G4", "B4", "D5"],
  ["G2","B3", "E4", "G4", "B4", "D5"],
  ["F2","D4", "F4", "A4", "C5", "E5"],
  ["F2","D4", "F4", "A4", "C5", "C5"],
  ["G2","D3", "F4", "G4", "B4", "D5"],
  ["G2","D3", "F4", "G4", "B4", "E5"],
  ["F5"],
  ["G2","B3", "F4", "F4", "G4", "E5"],
  ["A2","C4", "E4", "G4", "A4", "C5"],
  ["A2","C4", "E4", "G4", "A4", "D5"], 
  ["A2","C4", "E4", "G4", "A4", "E5"], 
  ["F5"],
  ["D2","C4", "E4", "F4", "A4", "E5"],
  ["G2","B3", "D4", "F4", "B4", "D5"],
  ["A2","D4", "E4", "G4", "B4", "C5"],
  ["D2","C4", "D4", "F#4", "A4", "D5"],
  ["D2","G3", "B3", "G4"],

  ["C2","C4", "E4", "G4", "B4", "E5"],
  ["C2","C4", "E4", "G4", "B4", "E5"],
  ["B2","D4", "F4", "A4", "C5", "F5"],
  ["A2","D4", "F4", "A4", "C5", "G5"],
  ["G2","D3", "F4", "G4", "B4", "G5"],
  ["G2","D3", "F4", "G4", "B4", "F5"],
  ["F2","A3", "E4", "A4", "C5", "E5"],
  ["G2","B3", "F4", "F4", "G4", "D5"],
  ["A2","C4", "E4", "G4", "A4", "C5"],
  ["A2","C4", "E4", "G4", "A4", "C5"], 
  ["A2","C4", "E4", "G4", "A4", "D5"], 
  ["B2","C4", "E4", "G4", "A4", "E5"],
  ["D2","C4", "E4", "F4", "A4", "D5"],
  ["G2","B3", "D4", "F4", "B4", "C5"],
  ["C2","C4", "E4", "G4", "B4", "C5"],
]  

const {notes, times} = midToNotes(mid);

function midToNotes(mid){
  const tracks = [];
  const map = {}
  mid.tracks.forEach(k=>{
    const items = k.notes;
    items.forEach(item=>{
      const time = item.time;
      let chord = map[time];
      if(chord){
        chord.push({
          name: item.name,
          duration:item.duration,
          velocity: item.velocity
        })
      }
      else{
        map[time] = [{
          name: item.name,
          duration:item.duration,
          velocity: item.velocity
        }]
      }
      
    })
  })
  const notes = [];
  const times =[];
  // console.log(map, 2323)
  let keyArr =   Object.keys(map).sort(function(a, b)   {        
    return (+a) - (+b);   //升序
  });
  for(let k of keyArr){
    notes.push(map[k])
    times.push(k)
  }
  console.log(times)
  return {notes, times}
}

let activeClipIdx = 0;
let note;
btnPlay.addEventListener('touchstart', (e) => {
   noteOn();
   e.preventDefault();
});

btnPlay.addEventListener('touchend', () => {
  noteOff();
});

btnPlay.addEventListener('mousedown', (e) => {
  noteOn();
});

btnPlay.addEventListener('mouseup', () => {
 noteOff();
});

btnReset.addEventListener('click', () => {
  activeClipIdx = 0
  // stopMoveLine();
})

// window.addEventListener('keydown', (e) => {
//   noteOn();
// });

// window.addEventListener('keyup', () => {
//  noteOff();
// });

function noteOn(){
  startTimer();
  const note = notes[activeClipIdx];
  note.forEach(k=>{
    synth.triggerAttack(k.name, Tone.now(), k.velocity);
  })
  btnPlay.style.backgroundColor= 'rgb(252, 201,185, .5)'
}

function noteOff(){
  const note = notes[activeClipIdx];
  note.forEach(k=>{
    synth.triggerRelease(k.name);
  })
  btnPlay.style.backgroundColor = 'rgb(252, 201,185)'
  if(activeClipIdx === notes.length-1){
    activeClipIdx=0;
  }
  else{
    activeClipIdx++
  }
}

let timer;
function startTimer(){
  clearInterval(timer);
  const time1 =  times[activeClipIdx];
  const time2 =  times[activeClipIdx+1];
  // console.log(time1, time2, activeClipIdx)
  // console.log(times.length, 2323)
  if(time2){
    const len = (time2-time1)*1000
    let start = Date.now()
    let time;
    timer = setInterval(()=>{
      if(time<=0){
        clearInterval(timer);
        time = 0;
        progress.style.width = 0 + '%'
        // noteOff();
        // noteOn();
        return
      }
      time = len - (Date.now()-start);
      const percent = Math.ceil(time*100/len) 
      progress.style.width = percent + '%'
      
    }, 30)
  }
  else{
    // noteOff();
    // noteOn();
  }
}



// const TIME_WIDTH = bpm; // 1000ms->100px　1ms->0.1px 30ms->3px
// const ITERVAL_VAl = 30;
// const LINE_PADDING = 14;

// const line = document.getElementById('line');
// line.style.left = LINE_PADDING + 'px'
// let timer;
// const speed = TIME_WIDTH * ITERVAL_VAl/1000

// function startMoveLine(){
//   clearInterval(timer);
//   const time = times[activeClipIdx];
//   line.style.left = time*TIME_WIDTH + LINE_PADDING + 'px'
//   timer = setInterval(()=>{
//     line.style.left = line.offsetLeft + speed + 'px'
//   }, ITERVAL_VAl)
// }

// function stopMoveLine(){
//   clearInterval(timer);
//   line.style.left = LINE_PADDING + 'px'
// }

// const ctx = document.getElementById('chart');
// ctx.width = times[times.length-1]*TIME_WIDTH;

// const chartData = times.map(k=>{
//   return{
//     x:k,
//     y:0,
//   }
// })

// // chart
// chart = new Chart(ctx, {
//   type: 'scatter',
//   data: {
//     datasets: [{
//       label: 'Scatter Dataset',
//       data:chartData,
//       backgroundColor: 'rgb(255, 99, 132)'
//     }]
//   },
//   options: {
//     responsive:false,
//     scales: {
//       x: {
//         type: 'linear',
//         position: 'top'
//       },
//       y: {
//         display:false,
//         beginAtZero: true,
//         max:0.1
//       },
//     },
//     layout:{
//       // autoPadding:true,
//       padding:{
//         // left:0,
//         // top:0,
//         // bottom:10
//       }
//     },
//     plugins: {
//       legend: {
//           display: false,
//           labels: {
//               color: 'rgb(255, 99, 132)'
//           }
//       }
//     }
//   }

// });



/***/ })
/******/ ]);