{
  "header": {
    "keySignatures": [
      {
        "key": "C",
        "scale": "major",
        "ticks": 0
      }
    ],
    "meta": [],
    "name": "MIDI 01",
    "ppq": 480,
    "tempos": [
      {
        "bpm": 165.000165000165,
        "ticks": 0
      }
    ],
    "timeSignatures": [
      {
        "ticks": 0,
        "timeSignature": [
          3,
          4
        ],
        "measures": 0
      }
    ]
  },
  "tracks": [
    {
      "channel": 0,
      "controlChanges": {},
      "pitchBends": [],
      "instrument": {
        "family": "piano",
        "number": 0,
        "name": "acoustic grand piano"
      },
      "name": "MIDI 01",
      "notes": [
        {
          "duration": 1.090908,
          "durationTicks": 1440,
          "midi": 60,
          "name": "C4",
          "ticks": 0,
          "time": 0,
          "velocity": 0.7874015748031497
        },
        {
          "duration": 0.9090900000000001,
          "durationTicks": 1200,
          "midi": 83,
          "name": "B5",
          "ticks": 0,
          "time": 0,
          "velocity": 0.7874015748031497
        },
        {
          "duration": 0.7272719999999999,
          "durationTicks": 960,
          "midi": 64,
          "name": "E4",
          "ticks": 480,
          "time": 0.363636,
          "velocity": 0.6692913385826772
        },
        {
          "duration": 0.7272719999999999,
          "durationTicks": 960,
          "midi": 71,
          "name": "B4",
          "ticks": 480,
          "time": 0.363636,
          "velocity": 0.6692913385826772
        },
        {
          "duration": 0.18181799999999992,
          "durationTicks": 240,
          "midi": 81,
          "name": "A5",
          "ticks": 1200,
          "time": 0.9090900000000001,
          "velocity": 0.7874015748031497
        },
        {
          "duration": 1.090908,
          "durationTicks": 1440,
          "midi": 57,
          "name": "A3",
          "ticks": 1440,
          "time": 1.090908,
          "velocity": 0.7874015748031497
        },
        {
          "duration": 0.9090900000000002,
          "durationTicks": 1200,
          "midi": 83,
          "name": "B5",
          "ticks": 1440,
          "time": 1.090908,
          "velocity": 0.7874015748031497
        },
        {
          "duration": 0.7272719999999999,
          "durationTicks": 960,
          "midi": 60,
          "name": "C4",
          "ticks": 1920,
          "time": 1.454544,
          "velocity": 0.6692913385826772
        },
        {
          "duration": 0.7272719999999999,
          "durationTicks": 960,
          "midi": 67,
          "name": "G4",
          "ticks": 1920,
          "time": 1.454544,
          "velocity": 0.6692913385826772
        },
        {
          "duration": 0.1818179999999998,
          "durationTicks": 240,
          "midi": 81,
          "name": "A5",
          "ticks": 2640,
          "time": 1.9999980000000002,
          "velocity": 0.7874015748031497
        },
        {
          "duration": 1.0909080000000002,
          "durationTicks": 1440,
          "midi": 53,
          "name": "F3",
          "ticks": 2880,
          "time": 2.181816,
          "velocity": 0.7874015748031497
        },
        {
          "duration": 0.90909,
          "durationTicks": 1200,
          "midi": 79,
          "name": "G5",
          "ticks": 2880,
          "time": 2.181816,
          "velocity": 0.7874015748031497
        },
        {
          "duration": 0.7272720000000001,
          "durationTicks": 960,
          "midi": 57,
          "name": "A3",
          "ticks": 3360,
          "time": 2.545452,
          "velocity": 0.6692913385826772
        },
        {
          "duration": 0.7272720000000001,
          "durationTicks": 960,
          "midi": 64,
          "name": "E4",
          "ticks": 3360,
          "time": 2.545452,
          "velocity": 0.6692913385826772
        },
        {
          "duration": 0.18181800000000026,
          "durationTicks": 240,
          "midi": 77,
          "name": "F5",
          "ticks": 4080,
          "time": 3.090906,
          "velocity": 0.7874015748031497
        },
        {
          "duration": 1.0909079999999998,
          "durationTicks": 1440,
          "midi": 50,
          "name": "D3",
          "ticks": 4320,
          "time": 3.272724,
          "velocity": 0.7874015748031497
        },
        {
          "duration": 0.90909,
          "durationTicks": 1200,
          "midi": 79,
          "name": "G5",
          "ticks": 4320,
          "time": 3.272724,
          "velocity": 0.7874015748031497
        },
        {
          "duration": 0.7272719999999997,
          "durationTicks": 960,
          "midi": 53,
          "name": "F3",
          "ticks": 4800,
          "time": 3.6363600000000003,
          "velocity": 0.6692913385826772
        },
        {
          "duration": 0.7272719999999997,
          "durationTicks": 960,
          "midi": 60,
          "name": "C4",
          "ticks": 4800,
          "time": 3.6363600000000003,
          "velocity": 0.6692913385826772
        },
        {
          "duration": 0.1818179999999998,
          "durationTicks": 240,
          "midi": 77,
          "name": "F5",
          "ticks": 5520,
          "time": 4.181814,
          "velocity": 0.7874015748031497
        },
        {
          "duration": 1.0909080000000007,
          "durationTicks": 1440,
          "midi": 59,
          "name": "B3",
          "ticks": 5760,
          "time": 4.363632,
          "velocity": 0.7874015748031497
        },
        {
          "duration": 0.90909,
          "durationTicks": 1200,
          "midi": 76,
          "name": "E5",
          "ticks": 5760,
          "time": 4.363632,
          "velocity": 0.7874015748031497
        },
        {
          "duration": 0.7272720000000001,
          "durationTicks": 960,
          "midi": 65,
          "name": "F4",
          "ticks": 6240,
          "time": 4.7272680000000005,
          "velocity": 0.6692913385826772
        },
        {
          "duration": 0.7272720000000001,
          "durationTicks": 960,
          "midi": 69,
          "name": "A4",
          "ticks": 6240,
          "time": 4.7272680000000005,
          "velocity": 0.6692913385826772
        },
        {
          "duration": 0.1818180000000007,
          "durationTicks": 240,
          "midi": 74,
          "name": "D5",
          "ticks": 6960,
          "time": 5.272722,
          "velocity": 0.7874015748031497
        },
        {
          "duration": 1.0909079999999998,
          "durationTicks": 1440,
          "midi": 52,
          "name": "E3",
          "ticks": 7200,
          "time": 5.454540000000001,
          "velocity": 0.7874015748031497
        },
        {
          "duration": 0.90909,
          "durationTicks": 1200,
          "midi": 69,
          "name": "A4",
          "ticks": 7200,
          "time": 5.454540000000001,
          "velocity": 0.7874015748031497
        },
        {
          "duration": 0.7272720000000001,
          "durationTicks": 960,
          "midi": 56,
          "name": "G#3",
          "ticks": 7680,
          "time": 5.818176,
          "velocity": 0.6692913385826772
        },
        {
          "duration": 0.7272720000000001,
          "durationTicks": 960,
          "midi": 62,
          "name": "D4",
          "ticks": 7680,
          "time": 5.818176,
          "velocity": 0.6692913385826772
        },
        {
          "duration": 0.1818179999999998,
          "durationTicks": 240,
          "midi": 71,
          "name": "B4",
          "ticks": 8400,
          "time": 6.363630000000001,
          "velocity": 0.7874015748031497
        },
        {
          "duration": 1.0909079999999998,
          "durationTicks": 1440,
          "midi": 57,
          "name": "A3",
          "ticks": 8640,
          "time": 6.545448,
          "velocity": 0.7874015748031497
        },
        {
          "duration": 0.7272720000000001,
          "durationTicks": 960,
          "midi": 73,
          "name": "C#5",
          "ticks": 8640,
          "time": 6.545448,
          "velocity": 0.7874015748031497
        },
        {
          "duration": 0.7272720000000001,
          "durationTicks": 960,
          "midi": 61,
          "name": "C#4",
          "ticks": 9120,
          "time": 6.909084,
          "velocity": 0.6692913385826772
        },
        {
          "duration": 0.7272720000000001,
          "durationTicks": 960,
          "midi": 68,
          "name": "G#4",
          "ticks": 9120,
          "time": 6.909084,
          "velocity": 0.6692913385826772
        },
        {
          "duration": 0.3636359999999996,
          "durationTicks": 480,
          "midi": 76,
          "name": "E5",
          "ticks": 9600,
          "time": 7.2727200000000005,
          "velocity": 0.7874015748031497
        },
        {
          "duration": 1.0909079999999998,
          "durationTicks": 1440,
          "midi": 57,
          "name": "A3",
          "ticks": 10080,
          "time": 7.636356,
          "velocity": 0.7874015748031497
        },
        {
          "duration": 1.0909079999999998,
          "durationTicks": 1440,
          "midi": 80,
          "name": "G#5",
          "ticks": 10080,
          "time": 7.636356,
          "velocity": 0.7874015748031497
        },
        {
          "duration": 0.7272719999999993,
          "durationTicks": 960,
          "midi": 61,
          "name": "C#4",
          "ticks": 10560,
          "time": 7.999992000000001,
          "velocity": 0.6692913385826772
        },
        {
          "duration": 0.7272719999999993,
          "durationTicks": 960,
          "midi": 68,
          "name": "G#4",
          "ticks": 10560,
          "time": 7.999992000000001,
          "velocity": 0.6692913385826772
        },
        {
          "duration": 1.0909080000000007,
          "durationTicks": 1440,
          "midi": 60,
          "name": "C4",
          "ticks": 11520,
          "time": 8.727264,
          "velocity": 0.7874015748031497
        },
        {
          "duration": 0.9090900000000008,
          "durationTicks": 1200,
          "midi": 83,
          "name": "B5",
          "ticks": 11520,
          "time": 8.727264,
          "velocity": 0.7874015748031497
        },
        {
          "duration": 0.727272000000001,
          "durationTicks": 960,
          "midi": 64,
          "name": "E4",
          "ticks": 12000,
          "time": 9.0909,
          "velocity": 0.6692913385826772
        },
        {
          "duration": 0.727272000000001,
          "durationTicks": 960,
          "midi": 71,
          "name": "B4",
          "ticks": 12000,
          "time": 9.0909,
          "velocity": 0.6692913385826772
        },
        {
          "duration": 0.1818179999999998,
          "durationTicks": 240,
          "midi": 81,
          "name": "A5",
          "ticks": 12720,
          "time": 9.636354,
          "velocity": 0.7874015748031497
        },
        {
          "duration": 1.0909080000000007,
          "durationTicks": 1440,
          "midi": 57,
          "name": "A3",
          "ticks": 12960,
          "time": 9.818172,
          "velocity": 0.7874015748031497
        },
        {
          "duration": 0.9090899999999991,
          "durationTicks": 1200,
          "midi": 83,
          "name": "B5",
          "ticks": 12960,
          "time": 9.818172,
          "velocity": 0.7874015748031497
        },
        {
          "duration": 0.727272000000001,
          "durationTicks": 960,
          "midi": 60,
          "name": "C4",
          "ticks": 13440,
          "time": 10.181808,
          "velocity": 0.6692913385826772
        },
        {
          "duration": 0.727272000000001,
          "durationTicks": 960,
          "midi": 67,
          "name": "G4",
          "ticks": 13440,
          "time": 10.181808,
          "velocity": 0.6692913385826772
        },
        {
          "duration": 0.1818180000000016,
          "durationTicks": 240,
          "midi": 84,
          "name": "C6",
          "ticks": 14160,
          "time": 10.727262,
          "velocity": 0.7874015748031497
        },
        {
          "duration": 1.0909079999999989,
          "durationTicks": 1440,
          "midi": 56,
          "name": "G#3",
          "ticks": 14400,
          "time": 10.909080000000001,
          "velocity": 0.7874015748031497
        },
        {
          "duration": 0.9090899999999991,
          "durationTicks": 1200,
          "midi": 79,
          "name": "G5",
          "ticks": 14400,
          "time": 10.909080000000001,
          "velocity": 0.7874015748031497
        },
        {
          "duration": 0.7272719999999993,
          "durationTicks": 960,
          "midi": 60,
          "name": "C4",
          "ticks": 14880,
          "time": 11.272716,
          "velocity": 0.6692913385826772
        },
        {
          "duration": 0.7272719999999993,
          "durationTicks": 960,
          "midi": 67,
          "name": "G4",
          "ticks": 14880,
          "time": 11.272716,
          "velocity": 0.6692913385826772
        },
        {
          "duration": 0.1818179999999998,
          "durationTicks": 240,
          "midi": 77,
          "name": "F5",
          "ticks": 15600,
          "time": 11.81817,
          "velocity": 0.7874015748031497
        },
        {
          "duration": 1.0909080000000007,
          "durationTicks": 1440,
          "midi": 53,
          "name": "F3",
          "ticks": 15840,
          "time": 11.999988,
          "velocity": 0.7874015748031497
        },
        {
          "duration": 0.9090900000000008,
          "durationTicks": 1200,
          "midi": 79,
          "name": "G5",
          "ticks": 15840,
          "time": 11.999988,
          "velocity": 0.7874015748031497
        },
        {
          "duration": 0.727272000000001,
          "durationTicks": 960,
          "midi": 56,
          "name": "G#3",
          "ticks": 16320,
          "time": 12.363624,
          "velocity": 0.6692913385826772
        },
        {
          "duration": 0.727272000000001,
          "durationTicks": 960,
          "midi": 63,
          "name": "D#4",
          "ticks": 16320,
          "time": 12.363624,
          "velocity": 0.6692913385826772
        },
        {
          "duration": 0.1818179999999998,
          "durationTicks": 240,
          "midi": 80,
          "name": "G#5",
          "ticks": 17040,
          "time": 12.909078000000001,
          "velocity": 0.7874015748031497
        },
        {
          "duration": 1.0909080000000007,
          "durationTicks": 1440,
          "midi": 52,
          "name": "E3",
          "ticks": 17280,
          "time": 13.090896,
          "velocity": 0.7874015748031497
        },
        {
          "duration": 0.9090899999999991,
          "durationTicks": 1200,
          "midi": 75,
          "name": "D#5",
          "ticks": 17280,
          "time": 13.090896,
          "velocity": 0.7874015748031497
        },
        {
          "duration": 0.727272000000001,
          "durationTicks": 960,
          "midi": 56,
          "name": "G#3",
          "ticks": 17760,
          "time": 13.454532,
          "velocity": 0.6692913385826772
        },
        {
          "duration": 0.727272000000001,
          "durationTicks": 960,
          "midi": 63,
          "name": "D#4",
          "ticks": 17760,
          "time": 13.454532,
          "velocity": 0.6692913385826772
        },
        {
          "duration": 0.1818180000000016,
          "durationTicks": 240,
          "midi": 73,
          "name": "C#5",
          "ticks": 18480,
          "time": 13.999986,
          "velocity": 0.7874015748031497
        },
        {
          "duration": 1.0909079999999989,
          "durationTicks": 1440,
          "midi": 49,
          "name": "C#3",
          "ticks": 18720,
          "time": 14.181804000000001,
          "velocity": 0.7874015748031497
        },
        {
          "duration": 0.9090899999999991,
          "durationTicks": 1200,
          "midi": 68,
          "name": "G#4",
          "ticks": 18720,
          "time": 14.181804000000001,
          "velocity": 0.7874015748031497
        },
        {
          "duration": 0.7272719999999993,
          "durationTicks": 960,
          "midi": 52,
          "name": "E3",
          "ticks": 19200,
          "time": 14.545440000000001,
          "velocity": 0.7874015748031497
        },
        {
          "duration": 0.7272719999999993,
          "durationTicks": 960,
          "midi": 59,
          "name": "B3",
          "ticks": 19200,
          "time": 14.545440000000001,
          "velocity": 0.7874015748031497
        },
        {
          "duration": 0.1818179999999998,
          "durationTicks": 240,
          "midi": 70,
          "name": "A#4",
          "ticks": 19920,
          "time": 15.090894,
          "velocity": 0.7874015748031497
        },
        {
          "duration": 2.727269999999999,
          "durationTicks": 3600,
          "midi": 51,
          "name": "D#3",
          "ticks": 20160,
          "time": 15.272712,
          "velocity": 0.7874015748031497
        },
        {
          "duration": 1.2727260000000005,
          "durationTicks": 1680,
          "midi": 72,
          "name": "C5",
          "ticks": 20160,
          "time": 15.272712,
          "velocity": 0.7874015748031497
        },
        {
          "duration": 1.2727260000000005,
          "durationTicks": 1680,
          "midi": 55,
          "name": "G3",
          "ticks": 20760,
          "time": 15.727257,
          "velocity": 0.5669291338582677
        },
        {
          "duration": 1.2727260000000005,
          "durationTicks": 1680,
          "midi": 61,
          "name": "C#4",
          "ticks": 20760,
          "time": 15.727257,
          "velocity": 0.5669291338582677
        },
        {
          "duration": 1.4545439999999985,
          "durationTicks": 1920,
          "midi": 71,
          "name": "B4",
          "ticks": 21840,
          "time": 16.545438,
          "velocity": 0.7244094488188977
        },
        {
          "duration": 0.999998999999999,
          "durationTicks": 1320,
          "midi": 55,
          "name": "G3",
          "ticks": 22440,
          "time": 16.999983,
          "velocity": 0.5984251968503937
        },
        {
          "duration": 0.999998999999999,
          "durationTicks": 1320,
          "midi": 61,
          "name": "C#4",
          "ticks": 22440,
          "time": 16.999983,
          "velocity": 0.4251968503937008
        },
        {
          "duration": 1.0909080000000024,
          "durationTicks": 1440,
          "midi": 60,
          "name": "C4",
          "ticks": 23760,
          "time": 17.999982,
          "velocity": 0.7874015748031497
        },
        {
          "duration": 0.9090900000000026,
          "durationTicks": 1200,
          "midi": 83,
          "name": "B5",
          "ticks": 23760,
          "time": 17.999982,
          "velocity": 0.7874015748031497
        },
        {
          "duration": 0.7272719999999993,
          "durationTicks": 960,
          "midi": 64,
          "name": "E4",
          "ticks": 24240,
          "time": 18.363618000000002,
          "velocity": 0.6692913385826772
        },
        {
          "duration": 0.7272719999999993,
          "durationTicks": 960,
          "midi": 71,
          "name": "B4",
          "ticks": 24240,
          "time": 18.363618000000002,
          "velocity": 0.6692913385826772
        },
        {
          "duration": 0.1818179999999998,
          "durationTicks": 240,
          "midi": 81,
          "name": "A5",
          "ticks": 24960,
          "time": 18.909072000000002,
          "velocity": 0.7874015748031497
        },
        {
          "duration": 1.0909079999999989,
          "durationTicks": 1440,
          "midi": 57,
          "name": "A3",
          "ticks": 25200,
          "time": 19.09089,
          "velocity": 0.7874015748031497
        },
        {
          "duration": 0.9090899999999991,
          "durationTicks": 1200,
          "midi": 83,
          "name": "B5",
          "ticks": 25200,
          "time": 19.09089,
          "velocity": 0.7874015748031497
        },
        {
          "duration": 0.7272719999999993,
          "durationTicks": 960,
          "midi": 60,
          "name": "C4",
          "ticks": 25680,
          "time": 19.454526,
          "velocity": 0.6692913385826772
        },
        {
          "duration": 0.7272719999999993,
          "durationTicks": 960,
          "midi": 67,
          "name": "G4",
          "ticks": 25680,
          "time": 19.454526,
          "velocity": 0.6692913385826772
        },
        {
          "duration": 0.1818179999999998,
          "durationTicks": 240,
          "midi": 81,
          "name": "A5",
          "ticks": 26400,
          "time": 19.99998,
          "velocity": 0.7874015748031497
        },
        {
          "duration": 1.0909079999999989,
          "durationTicks": 1440,
          "midi": 53,
          "name": "F3",
          "ticks": 26640,
          "time": 20.181798,
          "velocity": 0.7874015748031497
        },
        {
          "duration": 0.9090899999999991,
          "durationTicks": 1200,
          "midi": 79,
          "name": "G5",
          "ticks": 26640,
          "time": 20.181798,
          "velocity": 0.7874015748031497
        },
        {
          "duration": 0.7272719999999993,
          "durationTicks": 960,
          "midi": 57,
          "name": "A3",
          "ticks": 27120,
          "time": 20.545434,
          "velocity": 0.6692913385826772
        },
        {
          "duration": 0.7272719999999993,
          "durationTicks": 960,
          "midi": 64,
          "name": "E4",
          "ticks": 27120,
          "time": 20.545434,
          "velocity": 0.6692913385826772
        },
        {
          "duration": 0.1818179999999998,
          "durationTicks": 240,
          "midi": 77,
          "name": "F5",
          "ticks": 27840,
          "time": 21.090888,
          "velocity": 0.7874015748031497
        },
        {
          "duration": 1.0909080000000024,
          "durationTicks": 1440,
          "midi": 50,
          "name": "D3",
          "ticks": 28080,
          "time": 21.272706,
          "velocity": 0.7874015748031497
        },
        {
          "duration": 0.9090900000000026,
          "durationTicks": 1200,
          "midi": 79,
          "name": "G5",
          "ticks": 28080,
          "time": 21.272706,
          "velocity": 0.7874015748031497
        },
        {
          "duration": 0.7272719999999993,
          "durationTicks": 960,
          "midi": 53,
          "name": "F3",
          "ticks": 28560,
          "time": 21.636342000000003,
          "velocity": 0.6692913385826772
        },
        {
          "duration": 0.7272719999999993,
          "durationTicks": 960,
          "midi": 60,
          "name": "C4",
          "ticks": 28560,
          "time": 21.636342000000003,
          "velocity": 0.6692913385826772
        },
        {
          "duration": 0.1818179999999998,
          "durationTicks": 240,
          "midi": 77,
          "name": "F5",
          "ticks": 29280,
          "time": 22.181796000000002,
          "velocity": 0.7874015748031497
        },
        {
          "duration": 1.0909079999999989,
          "durationTicks": 1440,
          "midi": 59,
          "name": "B3",
          "ticks": 29520,
          "time": 22.363614000000002,
          "velocity": 0.7874015748031497
        },
        {
          "duration": 0.9090899999999991,
          "durationTicks": 1200,
          "midi": 76,
          "name": "E5",
          "ticks": 29520,
          "time": 22.363614000000002,
          "velocity": 0.7874015748031497
        },
        {
          "duration": 0.7272719999999993,
          "durationTicks": 960,
          "midi": 65,
          "name": "F4",
          "ticks": 30000,
          "time": 22.72725,
          "velocity": 0.6692913385826772
        },
        {
          "duration": 0.7272719999999993,
          "durationTicks": 960,
          "midi": 69,
          "name": "A4",
          "ticks": 30000,
          "time": 22.72725,
          "velocity": 0.6692913385826772
        },
        {
          "duration": 0.1818179999999998,
          "durationTicks": 240,
          "midi": 74,
          "name": "D5",
          "ticks": 30720,
          "time": 23.272704,
          "velocity": 0.7874015748031497
        },
        {
          "duration": 1.0909079999999989,
          "durationTicks": 1440,
          "midi": 52,
          "name": "E3",
          "ticks": 30960,
          "time": 23.454522,
          "velocity": 0.7874015748031497
        },
        {
          "duration": 0.9090899999999991,
          "durationTicks": 1200,
          "midi": 69,
          "name": "A4",
          "ticks": 30960,
          "time": 23.454522,
          "velocity": 0.7874015748031497
        },
        {
          "duration": 0.7272719999999993,
          "durationTicks": 960,
          "midi": 56,
          "name": "G#3",
          "ticks": 31440,
          "time": 23.818158,
          "velocity": 0.6692913385826772
        },
        {
          "duration": 0.7272719999999993,
          "durationTicks": 960,
          "midi": 62,
          "name": "D4",
          "ticks": 31440,
          "time": 23.818158,
          "velocity": 0.6692913385826772
        },
        {
          "duration": 0.1818179999999998,
          "durationTicks": 240,
          "midi": 71,
          "name": "B4",
          "ticks": 32160,
          "time": 24.363612,
          "velocity": 0.7874015748031497
        },
        {
          "duration": 1.0909080000000024,
          "durationTicks": 1440,
          "midi": 57,
          "name": "A3",
          "ticks": 32400,
          "time": 24.54543,
          "velocity": 0.7874015748031497
        },
        {
          "duration": 0.7272720000000028,
          "durationTicks": 960,
          "midi": 73,
          "name": "C#5",
          "ticks": 32400,
          "time": 24.54543,
          "velocity": 0.7874015748031497
        },
        {
          "duration": 0.7272720000000028,
          "durationTicks": 960,
          "midi": 61,
          "name": "C#4",
          "ticks": 32880,
          "time": 24.909066,
          "velocity": 0.6692913385826772
        },
        {
          "duration": 0.7272720000000028,
          "durationTicks": 960,
          "midi": 68,
          "name": "G#4",
          "ticks": 32880,
          "time": 24.909066,
          "velocity": 0.6692913385826772
        },
        {
          "duration": 0.3636359999999996,
          "durationTicks": 480,
          "midi": 76,
          "name": "E5",
          "ticks": 33360,
          "time": 25.272702000000002,
          "velocity": 0.7874015748031497
        },
        {
          "duration": 1.0909079999999989,
          "durationTicks": 1440,
          "midi": 57,
          "name": "A3",
          "ticks": 33840,
          "time": 25.636338000000002,
          "velocity": 0.7874015748031497
        },
        {
          "duration": 1.0909079999999989,
          "durationTicks": 1440,
          "midi": 80,
          "name": "G#5",
          "ticks": 33840,
          "time": 25.636338000000002,
          "velocity": 0.7874015748031497
        },
        {
          "duration": 0.6363629999999993,
          "durationTicks": 840,
          "midi": 61,
          "name": "C#4",
          "ticks": 34320,
          "time": 25.999974,
          "velocity": 0.6692913385826772
        },
        {
          "duration": 0.6363629999999993,
          "durationTicks": 840,
          "midi": 68,
          "name": "G#4",
          "ticks": 34320,
          "time": 25.999974,
          "velocity": 0.6692913385826772
        },
        {
          "duration": 0.40909050000000136,
          "durationTicks": 540,
          "midi": 72,
          "name": "C5",
          "ticks": 35160,
          "time": 26.636337,
          "velocity": 0.6220472440944882
        },
        {
          "duration": 0.3863632499999987,
          "durationTicks": 510,
          "midi": 76,
          "name": "E5",
          "ticks": 35220,
          "time": 26.681791500000003,
          "velocity": 0.6220472440944882
        },
        {
          "duration": 1.0909079999999989,
          "durationTicks": 1440,
          "midi": 60,
          "name": "C4",
          "ticks": 35280,
          "time": 26.727246,
          "velocity": 0.7874015748031497
        },
        {
          "duration": 0.9090899999999991,
          "durationTicks": 1200,
          "midi": 83,
          "name": "B5",
          "ticks": 35280,
          "time": 26.727246,
          "velocity": 0.7874015748031497
        },
        {
          "duration": 0.7272719999999993,
          "durationTicks": 960,
          "midi": 64,
          "name": "E4",
          "ticks": 35760,
          "time": 27.090882,
          "velocity": 0.6692913385826772
        },
        {
          "duration": 0.7272719999999993,
          "durationTicks": 960,
          "midi": 71,
          "name": "B4",
          "ticks": 35760,
          "time": 27.090882,
          "velocity": 0.6692913385826772
        },
        {
          "duration": 0.1818179999999998,
          "durationTicks": 240,
          "midi": 81,
          "name": "A5",
          "ticks": 36480,
          "time": 27.636336,
          "velocity": 0.7874015748031497
        },
        {
          "duration": 1.0909080000000024,
          "durationTicks": 1440,
          "midi": 57,
          "name": "A3",
          "ticks": 36720,
          "time": 27.818154,
          "velocity": 0.7874015748031497
        },
        {
          "duration": 0.9090900000000026,
          "durationTicks": 1200,
          "midi": 76,
          "name": "E5",
          "ticks": 36720,
          "time": 27.818154,
          "velocity": 0.6692913385826772
        },
        {
          "duration": 0.9090900000000026,
          "durationTicks": 1200,
          "midi": 83,
          "name": "B5",
          "ticks": 36720,
          "time": 27.818154,
          "velocity": 0.7874015748031497
        },
        {
          "duration": 0.7272720000000028,
          "durationTicks": 960,
          "midi": 60,
          "name": "C4",
          "ticks": 37200,
          "time": 28.18179,
          "velocity": 0.6692913385826772
        },
        {
          "duration": 0.7272720000000028,
          "durationTicks": 960,
          "midi": 67,
          "name": "G4",
          "ticks": 37200,
          "time": 28.18179,
          "velocity": 0.6692913385826772
        },
        {
          "duration": 0.1818179999999998,
          "durationTicks": 240,
          "midi": 84,
          "name": "C6",
          "ticks": 37920,
          "time": 28.727244000000002,
          "velocity": 0.7874015748031497
        },
        {
          "duration": 1.0909079999999989,
          "durationTicks": 1440,
          "midi": 56,
          "name": "G#3",
          "ticks": 38160,
          "time": 28.909062000000002,
          "velocity": 0.7874015748031497
        },
        {
          "duration": 0.9090899999999991,
          "durationTicks": 1200,
          "midi": 72,
          "name": "C5",
          "ticks": 38160,
          "time": 28.909062000000002,
          "velocity": 0.6692913385826772
        },
        {
          "duration": 0.9090899999999991,
          "durationTicks": 1200,
          "midi": 79,
          "name": "G5",
          "ticks": 38160,
          "time": 28.909062000000002,
          "velocity": 0.7874015748031497
        },
        {
          "duration": 0.7272719999999993,
          "durationTicks": 960,
          "midi": 60,
          "name": "C4",
          "ticks": 38640,
          "time": 29.272698000000002,
          "velocity": 0.6692913385826772
        },
        {
          "duration": 0.7272719999999993,
          "durationTicks": 960,
          "midi": 67,
          "name": "G4",
          "ticks": 38640,
          "time": 29.272698000000002,
          "velocity": 0.6692913385826772
        },
        {
          "duration": 0.1818179999999998,
          "durationTicks": 240,
          "midi": 77,
          "name": "F5",
          "ticks": 39360,
          "time": 29.818152,
          "velocity": 0.7874015748031497
        },
        {
          "duration": 1.0909079999999989,
          "durationTicks": 1440,
          "midi": 53,
          "name": "F3",
          "ticks": 39600,
          "time": 29.99997,
          "velocity": 0.7874015748031497
        },
        {
          "duration": 0.9090899999999991,
          "durationTicks": 1200,
          "midi": 79,
          "name": "G5",
          "ticks": 39600,
          "time": 29.99997,
          "velocity": 0.7874015748031497
        },
        {
          "duration": 0.7272719999999993,
          "durationTicks": 960,
          "midi": 56,
          "name": "G#3",
          "ticks": 40080,
          "time": 30.363606,
          "velocity": 0.6692913385826772
        },
        {
          "duration": 0.7272719999999993,
          "durationTicks": 960,
          "midi": 63,
          "name": "D#4",
          "ticks": 40080,
          "time": 30.363606,
          "velocity": 0.6692913385826772
        },
        {
          "duration": 0.1818179999999998,
          "durationTicks": 240,
          "midi": 80,
          "name": "G#5",
          "ticks": 40800,
          "time": 30.90906,
          "velocity": 0.7874015748031497
        },
        {
          "duration": 1.0909080000000024,
          "durationTicks": 1440,
          "midi": 52,
          "name": "E3",
          "ticks": 41040,
          "time": 31.090878,
          "velocity": 0.7874015748031497
        },
        {
          "duration": 0.9090900000000026,
          "durationTicks": 1200,
          "midi": 68,
          "name": "G#4",
          "ticks": 41040,
          "time": 31.090878,
          "velocity": 0.6692913385826772
        },
        {
          "duration": 0.9090900000000026,
          "durationTicks": 1200,
          "midi": 75,
          "name": "D#5",
          "ticks": 41040,
          "time": 31.090878,
          "velocity": 0.7874015748031497
        },
        {
          "duration": 0.7272720000000028,
          "durationTicks": 960,
          "midi": 56,
          "name": "G#3",
          "ticks": 41520,
          "time": 31.454514,
          "velocity": 0.6692913385826772
        },
        {
          "duration": 0.7272720000000028,
          "durationTicks": 960,
          "midi": 63,
          "name": "D#4",
          "ticks": 41520,
          "time": 31.454514,
          "velocity": 0.6692913385826772
        },
        {
          "duration": 0.1818179999999998,
          "durationTicks": 240,
          "midi": 73,
          "name": "C#5",
          "ticks": 42240,
          "time": 31.999968000000003,
          "velocity": 0.7874015748031497
        },
        {
          "duration": 1.0909079999999989,
          "durationTicks": 1440,
          "midi": 49,
          "name": "C#3",
          "ticks": 42480,
          "time": 32.181786,
          "velocity": 0.7874015748031497
        },
        {
          "duration": 0.9090899999999991,
          "durationTicks": 1200,
          "midi": 68,
          "name": "G#4",
          "ticks": 42480,
          "time": 32.181786,
          "velocity": 0.7874015748031497
        },
        {
          "duration": 0.7272719999999993,
          "durationTicks": 960,
          "midi": 52,
          "name": "E3",
          "ticks": 42960,
          "time": 32.545422,
          "velocity": 0.6692913385826772
        },
        {
          "duration": 0.7272719999999993,
          "durationTicks": 960,
          "midi": 59,
          "name": "B3",
          "ticks": 42960,
          "time": 32.545422,
          "velocity": 0.6692913385826772
        },
        {
          "duration": 0.1818179999999998,
          "durationTicks": 240,
          "midi": 70,
          "name": "A#4",
          "ticks": 43680,
          "time": 33.090876,
          "velocity": 0.7874015748031497
        },
        {
          "duration": 2.727269999999997,
          "durationTicks": 3600,
          "midi": 51,
          "name": "D#3",
          "ticks": 43920,
          "time": 33.272694,
          "velocity": 0.7874015748031497
        },
        {
          "duration": 1.2727259999999987,
          "durationTicks": 1680,
          "midi": 72,
          "name": "C5",
          "ticks": 43920,
          "time": 33.272694,
          "velocity": 0.7874015748031497
        },
        {
          "duration": 1.2727259999999987,
          "durationTicks": 1680,
          "midi": 55,
          "name": "G3",
          "ticks": 44520,
          "time": 33.727239000000004,
          "velocity": 0.5669291338582677
        },
        {
          "duration": 1.2727259999999987,
          "durationTicks": 1680,
          "midi": 61,
          "name": "C#4",
          "ticks": 44520,
          "time": 33.727239000000004,
          "velocity": 0.5669291338582677
        },
        {
          "duration": 1.4545439999999985,
          "durationTicks": 1920,
          "midi": 71,
          "name": "B4",
          "ticks": 45600,
          "time": 34.54542,
          "velocity": 0.7244094488188977
        },
        {
          "duration": 0.9999989999999954,
          "durationTicks": 1320,
          "midi": 55,
          "name": "G3",
          "ticks": 46200,
          "time": 34.999965,
          "velocity": 0.5984251968503937
        },
        {
          "duration": 0.9999989999999954,
          "durationTicks": 1320,
          "midi": 61,
          "name": "C#4",
          "ticks": 46200,
          "time": 34.999965,
          "velocity": 0.4251968503937008
        },
        {
          "duration": 1.090908000000006,
          "durationTicks": 1440,
          "midi": 56,
          "name": "G#3",
          "ticks": 47520,
          "time": 35.999964,
          "velocity": 0.7874015748031497
        },
        {
          "duration": 0.9090900000000062,
          "durationTicks": 1200,
          "midi": 70,
          "name": "A#4",
          "ticks": 47520,
          "time": 35.999964,
          "velocity": 0.7874015748031497
        },
        {
          "duration": 0.7272720000000064,
          "durationTicks": 960,
          "midi": 59,
          "name": "B3",
          "ticks": 48000,
          "time": 36.3636,
          "velocity": 0.6692913385826772
        },
        {
          "duration": 0.7272720000000064,
          "durationTicks": 960,
          "midi": 63,
          "name": "D#4",
          "ticks": 48000,
          "time": 36.3636,
          "velocity": 0.6692913385826772
        },
        {
          "duration": 0.1818179999999998,
          "durationTicks": 240,
          "midi": 68,
          "name": "G#4",
          "ticks": 48720,
          "time": 36.909054000000005,
          "velocity": 0.7874015748031497
        },
        {
          "duration": 1.0909079999999989,
          "durationTicks": 1440,
          "midi": 54,
          "name": "F#3",
          "ticks": 48960,
          "time": 37.090872000000005,
          "velocity": 0.7874015748031497
        },
        {
          "duration": 0.9090899999999991,
          "durationTicks": 1200,
          "midi": 70,
          "name": "A#4",
          "ticks": 48960,
          "time": 37.090872000000005,
          "velocity": 0.7874015748031497
        },
        {
          "duration": 0.7272719999999993,
          "durationTicks": 960,
          "midi": 59,
          "name": "B3",
          "ticks": 49440,
          "time": 37.454508000000004,
          "velocity": 0.6692913385826772
        },
        {
          "duration": 0.7272719999999993,
          "durationTicks": 960,
          "midi": 63,
          "name": "D#4",
          "ticks": 49440,
          "time": 37.454508000000004,
          "velocity": 0.6692913385826772
        },
        {
          "duration": 0.1818179999999998,
          "durationTicks": 240,
          "midi": 71,
          "name": "B4",
          "ticks": 50160,
          "time": 37.999962000000004,
          "velocity": 0.7874015748031497
        },
        {
          "duration": 1.0909079999999989,
          "durationTicks": 1440,
          "midi": 52,
          "name": "E3",
          "ticks": 50400,
          "time": 38.18178,
          "velocity": 0.7874015748031497
        },
        {
          "duration": 0.9090899999999991,
          "durationTicks": 1200,
          "midi": 75,
          "name": "D#5",
          "ticks": 50400,
          "time": 38.18178,
          "velocity": 0.7874015748031497
        },
        {
          "duration": 0.7272719999999993,
          "durationTicks": 960,
          "midi": 56,
          "name": "G#3",
          "ticks": 50880,
          "time": 38.545416,
          "velocity": 0.6692913385826772
        },
        {
          "duration": 0.7272719999999993,
          "durationTicks": 960,
          "midi": 63,
          "name": "D#4",
          "ticks": 50880,
          "time": 38.545416,
          "velocity": 0.6692913385826772
        },
        {
          "duration": 0.1818179999999998,
          "durationTicks": 240,
          "midi": 73,
          "name": "C#5",
          "ticks": 51600,
          "time": 39.09087,
          "velocity": 0.7874015748031497
        },
        {
          "duration": 1.0909079999999989,
          "durationTicks": 1440,
          "midi": 51,
          "name": "D#3",
          "ticks": 51840,
          "time": 39.272688,
          "velocity": 0.7874015748031497
        },
        {
          "duration": 0.9090899999999991,
          "durationTicks": 1200,
          "midi": 68,
          "name": "G#4",
          "ticks": 51840,
          "time": 39.272688,
          "velocity": 0.7874015748031497
        },
        {
          "duration": 0.7272719999999993,
          "durationTicks": 960,
          "midi": 52,
          "name": "E3",
          "ticks": 52320,
          "time": 39.636324,
          "velocity": 0.6692913385826772
        },
        {
          "duration": 0.7272719999999993,
          "durationTicks": 960,
          "midi": 59,
          "name": "B3",
          "ticks": 52320,
          "time": 39.636324,
          "velocity": 0.6692913385826772
        },
        {
          "duration": 0.1818179999999998,
          "durationTicks": 240,
          "midi": 71,
          "name": "B4",
          "ticks": 53040,
          "time": 40.181778,
          "velocity": 0.7874015748031497
        },
        {
          "duration": 1.0909079999999989,
          "durationTicks": 1440,
          "midi": 49,
          "name": "C#3",
          "ticks": 53280,
          "time": 40.363596,
          "velocity": 0.7874015748031497
        },
        {
          "duration": 0.9090899999999991,
          "durationTicks": 1200,
          "midi": 71,
          "name": "B4",
          "ticks": 53280,
          "time": 40.363596,
          "velocity": 0.7874015748031497
        },
        {
          "duration": 0.7272719999999993,
          "durationTicks": 960,
          "midi": 52,
          "name": "E3",
          "ticks": 53760,
          "time": 40.727232,
          "velocity": 0.6692913385826772
        },
        {
          "duration": 0.7272719999999993,
          "durationTicks": 960,
          "midi": 59,
          "name": "B3",
          "ticks": 53760,
          "time": 40.727232,
          "velocity": 0.6692913385826772
        },
        {
          "duration": 0.1818179999999998,
          "durationTicks": 240,
          "midi": 70,
          "name": "A#4",
          "ticks": 54480,
          "time": 41.272686,
          "velocity": 0.7874015748031497
        },
        {
          "duration": 1.0909079999999989,
          "durationTicks": 1440,
          "midi": 51,
          "name": "D#3",
          "ticks": 54720,
          "time": 41.454504,
          "velocity": 0.7874015748031497
        },
        {
          "duration": 0.9090899999999991,
          "durationTicks": 1200,
          "midi": 64,
          "name": "E4",
          "ticks": 54720,
          "time": 41.454504,
          "velocity": 0.7874015748031497
        },
        {
          "duration": 0.7272719999999993,
          "durationTicks": 960,
          "midi": 55,
          "name": "G3",
          "ticks": 55200,
          "time": 41.81814,
          "velocity": 0.6692913385826772
        },
        {
          "duration": 0.7272719999999993,
          "durationTicks": 960,
          "midi": 61,
          "name": "C#4",
          "ticks": 55200,
          "time": 41.81814,
          "velocity": 0.6692913385826772
        },
        {
          "duration": 0.1818179999999998,
          "durationTicks": 240,
          "midi": 71,
          "name": "B4",
          "ticks": 55920,
          "time": 42.363594,
          "velocity": 0.7874015748031497
        },
        {
          "duration": 1.8181800000000052,
          "durationTicks": 2400,
          "midi": 56,
          "name": "G#3",
          "ticks": 56160,
          "time": 42.545412,
          "velocity": 0.7874015748031497
        },
        {
          "duration": 1.2727260000000058,
          "durationTicks": 1680,
          "midi": 70,
          "name": "A#4",
          "ticks": 56160,
          "time": 42.545412,
          "velocity": 0.7874015748031497
        },
        {
          "duration": 0.8181810000000027,
          "durationTicks": 1080,
          "midi": 59,
          "name": "B3",
          "ticks": 56760,
          "time": 42.999957,
          "velocity": 0.6141732283464567
        },
        {
          "duration": 0.8181810000000027,
          "durationTicks": 1080,
          "midi": 66,
          "name": "F#4",
          "ticks": 56760,
          "time": 42.999957,
          "velocity": 0.6141732283464567
        },
        {
          "duration": 1.0909079999999989,
          "durationTicks": 1440,
          "midi": 68,
          "name": "G#4",
          "ticks": 57840,
          "time": 43.818138000000005,
          "velocity": 0.6929133858267716
        },
        {
          "duration": 0.9090899999999991,
          "durationTicks": 1200,
          "midi": 59,
          "name": "B3",
          "ticks": 58440,
          "time": 44.272683,
          "velocity": 0.6299212598425197
        },
        {
          "duration": 0.9090899999999991,
          "durationTicks": 1200,
          "midi": 66,
          "name": "F#4",
          "ticks": 58440,
          "time": 44.272683,
          "velocity": 0.44881889763779526
        },
        {
          "duration": 0.13636350000000164,
          "durationTicks": 180,
          "midi": 75,
          "name": "D#5",
          "ticks": 59520,
          "time": 45.090864,
          "velocity": 0.7874015748031497
        },
        {
          "duration": 1.0909079999999989,
          "durationTicks": 1440,
          "midi": 55,
          "name": "G3",
          "ticks": 59760,
          "time": 45.272682,
          "velocity": 0.7874015748031497
        },
        {
          "duration": 0.9090899999999991,
          "durationTicks": 1200,
          "midi": 75,
          "name": "D#5",
          "ticks": 59760,
          "time": 45.272682,
          "velocity": 0.7874015748031497
        },
        {
          "duration": 0.7272719999999993,
          "durationTicks": 960,
          "midi": 59,
          "name": "B3",
          "ticks": 60240,
          "time": 45.636318,
          "velocity": 0.6141732283464567
        },
        {
          "duration": 0.7272719999999993,
          "durationTicks": 960,
          "midi": 64,
          "name": "E4",
          "ticks": 60240,
          "time": 45.636318,
          "velocity": 0.6141732283464567
        },
        {
          "duration": 0.1818179999999998,
          "durationTicks": 240,
          "midi": 73,
          "name": "C#5",
          "ticks": 60960,
          "time": 46.181772,
          "velocity": 0.7874015748031497
        },
        {
          "duration": 0.7272719999999993,
          "durationTicks": 960,
          "midi": 54,
          "name": "F#3",
          "ticks": 61200,
          "time": 46.36359,
          "velocity": 0.7874015748031497
        },
        {
          "duration": 0.9090899999999991,
          "durationTicks": 1200,
          "midi": 75,
          "name": "D#5",
          "ticks": 61200,
          "time": 46.36359,
          "velocity": 0.7874015748031497
        },
        {
          "duration": 0.7272719999999993,
          "durationTicks": 960,
          "midi": 58,
          "name": "A#3",
          "ticks": 61680,
          "time": 46.727226,
          "velocity": 0.6141732283464567
        },
        {
          "duration": 0.7272719999999993,
          "durationTicks": 960,
          "midi": 64,
          "name": "E4",
          "ticks": 61680,
          "time": 46.727226,
          "velocity": 0.6141732283464567
        },
        {
          "duration": 0.7272719999999993,
          "durationTicks": 960,
          "midi": 64,
          "name": "E4",
          "ticks": 61680,
          "time": 46.727226,
          "velocity": 0.6141732283464567
        },
        {
          "duration": 0.3636359999999996,
          "durationTicks": 480,
          "midi": 52,
          "name": "E3",
          "ticks": 62160,
          "time": 47.090862,
          "velocity": 0.7874015748031497
        },
        {
          "duration": 0.1818179999999998,
          "durationTicks": 240,
          "midi": 76,
          "name": "E5",
          "ticks": 62400,
          "time": 47.27268,
          "velocity": 0.7874015748031497
        },
        {
          "duration": 1.0909079999999989,
          "durationTicks": 1440,
          "midi": 51,
          "name": "D#3",
          "ticks": 62640,
          "time": 47.454498,
          "velocity": 0.7874015748031497
        },
        {
          "duration": 0.9090899999999991,
          "durationTicks": 1200,
          "midi": 78,
          "name": "F#5",
          "ticks": 62640,
          "time": 47.454498,
          "velocity": 0.7874015748031497
        },
        {
          "duration": 0.7272719999999993,
          "durationTicks": 960,
          "midi": 54,
          "name": "F#3",
          "ticks": 63120,
          "time": 47.818134,
          "velocity": 0.6141732283464567
        },
        {
          "duration": 0.7272719999999993,
          "durationTicks": 960,
          "midi": 61,
          "name": "C#4",
          "ticks": 63120,
          "time": 47.818134,
          "velocity": 0.6141732283464567
        },
        {
          "duration": 0.1818179999999998,
          "durationTicks": 240,
          "midi": 76,
          "name": "E5",
          "ticks": 63840,
          "time": 48.363588,
          "velocity": 0.7874015748031497
        },
        {
          "duration": 1.0909079999999989,
          "durationTicks": 1440,
          "midi": 51,
          "name": "D#3",
          "ticks": 64080,
          "time": 48.545406,
          "velocity": 0.7874015748031497
        },
        {
          "duration": 0.9090899999999991,
          "durationTicks": 1200,
          "midi": 68,
          "name": "G#4",
          "ticks": 64080,
          "time": 48.545406,
          "velocity": 0.7874015748031497
        },
        {
          "duration": 0.7272719999999993,
          "durationTicks": 960,
          "midi": 52,
          "name": "E3",
          "ticks": 64560,
          "time": 48.909042,
          "velocity": 0.6141732283464567
        },
        {
          "duration": 0.7272719999999993,
          "durationTicks": 960,
          "midi": 59,
          "name": "B3",
          "ticks": 64560,
          "time": 48.909042,
          "velocity": 0.6141732283464567
        },
        {
          "duration": 0.1818179999999998,
          "durationTicks": 240,
          "midi": 76,
          "name": "E5",
          "ticks": 65280,
          "time": 49.454496,
          "velocity": 0.7874015748031497
        },
        {
          "duration": 1.090908000000006,
          "durationTicks": 1440,
          "midi": 49,
          "name": "C#3",
          "ticks": 65520,
          "time": 49.636314,
          "velocity": 0.7874015748031497
        },
        {
          "duration": 0.9090900000000062,
          "durationTicks": 1200,
          "midi": 75,
          "name": "D#5",
          "ticks": 65520,
          "time": 49.636314,
          "velocity": 0.7874015748031497
        },
        {
          "duration": 0.7272719999999993,
          "durationTicks": 960,
          "midi": 52,
          "name": "E3",
          "ticks": 66000,
          "time": 49.999950000000005,
          "velocity": 0.6141732283464567
        },
        {
          "duration": 0.7272719999999993,
          "durationTicks": 960,
          "midi": 59,
          "name": "B3",
          "ticks": 66000,
          "time": 49.999950000000005,
          "velocity": 0.6141732283464567
        },
        {
          "duration": 0.1818179999999998,
          "durationTicks": 240,
          "midi": 73,
          "name": "C#5",
          "ticks": 66720,
          "time": 50.545404000000005,
          "velocity": 0.7874015748031497
        },
        {
          "duration": 1.0909079999999989,
          "durationTicks": 1440,
          "midi": 52,
          "name": "E3",
          "ticks": 66960,
          "time": 50.727222000000005,
          "velocity": 0.7874015748031497
        },
        {
          "duration": 0.9090899999999991,
          "durationTicks": 1200,
          "midi": 67,
          "name": "G4",
          "ticks": 66960,
          "time": 50.727222000000005,
          "velocity": 0.7874015748031497
        },
        {
          "duration": 0.7272719999999993,
          "durationTicks": 960,
          "midi": 58,
          "name": "A#3",
          "ticks": 67440,
          "time": 51.090858000000004,
          "velocity": 0.6141732283464567
        },
        {
          "duration": 0.7272719999999993,
          "durationTicks": 960,
          "midi": 63,
          "name": "D#4",
          "ticks": 67440,
          "time": 51.090858000000004,
          "velocity": 0.6141732283464567
        },
        {
          "duration": 0.1818179999999998,
          "durationTicks": 240,
          "midi": 75,
          "name": "D#5",
          "ticks": 68160,
          "time": 51.636312000000004,
          "velocity": 0.7874015748031497
        },
        {
          "duration": 1.2727259999999987,
          "durationTicks": 1680,
          "midi": 51,
          "name": "D#3",
          "ticks": 68400,
          "time": 51.818130000000004,
          "velocity": 0.7874015748031497
        },
        {
          "duration": 1.2727259999999987,
          "durationTicks": 1680,
          "midi": 73,
          "name": "C#5",
          "ticks": 68400,
          "time": 51.818130000000004,
          "velocity": 0.7874015748031497
        },
        {
          "duration": 0.8181810000000027,
          "durationTicks": 1080,
          "midi": 59,
          "name": "B3",
          "ticks": 69000,
          "time": 52.272675,
          "velocity": 0.6141732283464567
        },
        {
          "duration": 1.2727259999999987,
          "durationTicks": 1680,
          "midi": 51,
          "name": "D#3",
          "ticks": 70080,
          "time": 53.090856,
          "velocity": 0.5275590551181102
        },
        {
          "duration": 1.2727259999999987,
          "durationTicks": 1680,
          "midi": 71,
          "name": "B4",
          "ticks": 70080,
          "time": 53.090856,
          "velocity": 0.6535433070866141
        },
        {
          "duration": 0.8181809999999956,
          "durationTicks": 1080,
          "midi": 56,
          "name": "G#3",
          "ticks": 70680,
          "time": 53.545401000000005,
          "velocity": 0.5590551181102362
        },
        {
          "duration": 0.8181809999999956,
          "durationTicks": 1080,
          "midi": 59,
          "name": "B3",
          "ticks": 70680,
          "time": 53.545401000000005,
          "velocity": 0.4094488188976378
        },
        {
          "duration": 0.1818179999999998,
          "durationTicks": 240,
          "midi": 78,
          "name": "F#5",
          "ticks": 71760,
          "time": 54.363582,
          "velocity": 0.7874015748031497
        },
        {
          "duration": 1.0909079999999989,
          "durationTicks": 1440,
          "midi": 52,
          "name": "E3",
          "ticks": 72000,
          "time": 54.5454,
          "velocity": 0.7874015748031497
        },
        {
          "duration": 0.9090899999999991,
          "durationTicks": 1200,
          "midi": 78,
          "name": "F#5",
          "ticks": 72000,
          "time": 54.5454,
          "velocity": 0.7874015748031497
        },
        {
          "duration": 0.7272719999999993,
          "durationTicks": 960,
          "midi": 55,
          "name": "G3",
          "ticks": 72480,
          "time": 54.909036,
          "velocity": 0.6141732283464567
        },
        {
          "duration": 0.7272719999999993,
          "durationTicks": 960,
          "midi": 62,
          "name": "D4",
          "ticks": 72480,
          "time": 54.909036,
          "velocity": 0.6141732283464567
        },
        {
          "duration": 0.1818179999999998,
          "durationTicks": 240,
          "midi": 76,
          "name": "E5",
          "ticks": 73200,
          "time": 55.45449,
          "velocity": 0.7874015748031497
        },
        {
          "duration": 1.090908000000006,
          "durationTicks": 1440,
          "midi": 57,
          "name": "A3",
          "ticks": 73440,
          "time": 55.636308,
          "velocity": 0.7874015748031497
        },
        {
          "duration": 0.9090900000000062,
          "durationTicks": 1200,
          "midi": 78,
          "name": "F#5",
          "ticks": 73440,
          "time": 55.636308,
          "velocity": 0.7874015748031497
        },
        {
          "duration": 0.7272720000000064,
          "durationTicks": 960,
          "midi": 61,
          "name": "C#4",
          "ticks": 73920,
          "time": 55.999944,
          "velocity": 0.6141732283464567
        },
        {
          "duration": 0.7272720000000064,
          "durationTicks": 960,
          "midi": 70,
          "name": "A#4",
          "ticks": 73920,
          "time": 55.999944,
          "velocity": 0.6141732283464567
        },
        {
          "duration": 0.1818179999999998,
          "durationTicks": 240,
          "midi": 79,
          "name": "G5",
          "ticks": 74640,
          "time": 56.545398000000006,
          "velocity": 0.7874015748031497
        },
        {
          "duration": 1.0909079999999989,
          "durationTicks": 1440,
          "midi": 54,
          "name": "F#3",
          "ticks": 74880,
          "time": 56.727216000000006,
          "velocity": 0.7874015748031497
        },
        {
          "duration": 0.9090899999999991,
          "durationTicks": 1200,
          "midi": 81,
          "name": "A5",
          "ticks": 74880,
          "time": 56.727216000000006,
          "velocity": 0.7874015748031497
        },
        {
          "duration": 0.7272719999999993,
          "durationTicks": 960,
          "midi": 57,
          "name": "A3",
          "ticks": 75360,
          "time": 57.090852000000005,
          "velocity": 0.6141732283464567
        },
        {
          "duration": 0.7272719999999993,
          "durationTicks": 960,
          "midi": 64,
          "name": "E4",
          "ticks": 75360,
          "time": 57.090852000000005,
          "velocity": 0.6141732283464567
        },
        {
          "duration": 0.1818179999999998,
          "durationTicks": 240,
          "midi": 79,
          "name": "G5",
          "ticks": 76080,
          "time": 57.636306000000005,
          "velocity": 0.7874015748031497
        },
        {
          "duration": 1.0909079999999989,
          "durationTicks": 1440,
          "midi": 54,
          "name": "F#3",
          "ticks": 76320,
          "time": 57.818124000000005,
          "velocity": 0.7874015748031497
        },
        {
          "duration": 0.9090899999999991,
          "durationTicks": 1200,
          "midi": 71,
          "name": "B4",
          "ticks": 76320,
          "time": 57.818124000000005,
          "velocity": 0.7874015748031497
        },
        {
          "duration": 0.7272719999999993,
          "durationTicks": 960,
          "midi": 55,
          "name": "G3",
          "ticks": 76800,
          "time": 58.181760000000004,
          "velocity": 0.6141732283464567
        },
        {
          "duration": 0.7272719999999993,
          "durationTicks": 960,
          "midi": 62,
          "name": "D4",
          "ticks": 76800,
          "time": 58.181760000000004,
          "velocity": 0.6141732283464567
        },
        {
          "duration": 0.1818179999999998,
          "durationTicks": 240,
          "midi": 79,
          "name": "G5",
          "ticks": 77520,
          "time": 58.727214000000004,
          "velocity": 0.7874015748031497
        },
        {
          "duration": 1.0909079999999989,
          "durationTicks": 1440,
          "midi": 52,
          "name": "E3",
          "ticks": 77760,
          "time": 58.909032,
          "velocity": 0.7874015748031497
        },
        {
          "duration": 0.9090899999999991,
          "durationTicks": 1200,
          "midi": 78,
          "name": "F#5",
          "ticks": 77760,
          "time": 58.909032,
          "velocity": 0.7874015748031497
        },
        {
          "duration": 0.7272719999999993,
          "durationTicks": 960,
          "midi": 55,
          "name": "G3",
          "ticks": 78240,
          "time": 59.272668,
          "velocity": 0.6141732283464567
        },
        {
          "duration": 0.7272719999999993,
          "durationTicks": 960,
          "midi": 62,
          "name": "D4",
          "ticks": 78240,
          "time": 59.272668,
          "velocity": 0.6141732283464567
        },
        {
          "duration": 0.1818179999999998,
          "durationTicks": 240,
          "midi": 76,
          "name": "E5",
          "ticks": 78960,
          "time": 59.818122,
          "velocity": 0.7874015748031497
        },
        {
          "duration": 1.0909079999999989,
          "durationTicks": 1440,
          "midi": 52,
          "name": "E3",
          "ticks": 79200,
          "time": 59.99994,
          "velocity": 0.7874015748031497
        },
        {
          "duration": 0.9090899999999991,
          "durationTicks": 1200,
          "midi": 67,
          "name": "G4",
          "ticks": 79200,
          "time": 59.99994,
          "velocity": 0.7874015748031497
        },
        {
          "duration": 0.7272719999999993,
          "durationTicks": 960,
          "midi": 58,
          "name": "A#3",
          "ticks": 79680,
          "time": 60.363576,
          "velocity": 0.6141732283464567
        },
        {
          "duration": 0.7272719999999993,
          "durationTicks": 960,
          "midi": 62,
          "name": "D4",
          "ticks": 79680,
          "time": 60.363576,
          "velocity": 0.6141732283464567
        },
        {
          "duration": 0.1818179999999998,
          "durationTicks": 240,
          "midi": 78,
          "name": "F#5",
          "ticks": 80400,
          "time": 60.90903,
          "velocity": 0.7874015748031497
        },
        {
          "duration": 1.0909079999999989,
          "durationTicks": 1440,
          "midi": 50,
          "name": "D3",
          "ticks": 80640,
          "time": 61.090848,
          "velocity": 0.7874015748031497
        },
        {
          "duration": 0.9090899999999991,
          "durationTicks": 1200,
          "midi": 76,
          "name": "E5",
          "ticks": 80640,
          "time": 61.090848,
          "velocity": 0.7874015748031497
        },
        {
          "duration": 0.7272719999999993,
          "durationTicks": 960,
          "midi": 58,
          "name": "A#3",
          "ticks": 81120,
          "time": 61.454484,
          "velocity": 0.6141732283464567
        },
        {
          "duration": 0.7272719999999993,
          "durationTicks": 960,
          "midi": 61,
          "name": "C#4",
          "ticks": 81120,
          "time": 61.454484,
          "velocity": 0.6141732283464567
        },
        {
          "duration": 0.1818179999999998,
          "durationTicks": 240,
          "midi": 74,
          "name": "D5",
          "ticks": 81840,
          "time": 61.999938,
          "velocity": 0.7874015748031497
        },
        {
          "duration": 1.090908000000006,
          "durationTicks": 1440,
          "midi": 50,
          "name": "D3",
          "ticks": 82080,
          "time": 62.181756,
          "velocity": 0.7874015748031497
        },
        {
          "duration": 0.9090899999999991,
          "durationTicks": 1200,
          "midi": 66,
          "name": "F#4",
          "ticks": 82080,
          "time": 62.181756,
          "velocity": 0.7874015748031497
        },
        {
          "duration": 0.7272720000000064,
          "durationTicks": 960,
          "midi": 56,
          "name": "G#3",
          "ticks": 82560,
          "time": 62.545392,
          "velocity": 0.6141732283464567
        },
        {
          "duration": 0.7272720000000064,
          "durationTicks": 960,
          "midi": 59,
          "name": "B3",
          "ticks": 82560,
          "time": 62.545392,
          "velocity": 0.6141732283464567
        },
        {
          "duration": 0.18181800000000692,
          "durationTicks": 240,
          "midi": 74,
          "name": "D5",
          "ticks": 83280,
          "time": 63.090846,
          "velocity": 0.7874015748031497
        },
        {
          "duration": 1.0909079999999989,
          "durationTicks": 1440,
          "midi": 49,
          "name": "C#3",
          "ticks": 83520,
          "time": 63.272664000000006,
          "velocity": 0.6692913385826772
        },
        {
          "duration": 0.909089999999992,
          "durationTicks": 1200,
          "midi": 74,
          "name": "D5",
          "ticks": 83520,
          "time": 63.272664000000006,
          "velocity": 0.6929133858267716
        },
        {
          "duration": 0.7272719999999993,
          "durationTicks": 960,
          "midi": 53,
          "name": "F3",
          "ticks": 84000,
          "time": 63.636300000000006,
          "velocity": 0.6141732283464567
        },
        {
          "duration": 0.7272719999999993,
          "durationTicks": 960,
          "midi": 59,
          "name": "B3",
          "ticks": 84000,
          "time": 63.636300000000006,
          "velocity": 0.6141732283464567
        },
        {
          "duration": 0.18181800000000692,
          "durationTicks": 240,
          "midi": 73,
          "name": "C#5",
          "ticks": 84720,
          "time": 64.181754,
          "velocity": 0.6929133858267716
        },
        {
          "duration": 1.2727259999999916,
          "durationTicks": 1680,
          "midi": 49,
          "name": "C#3",
          "ticks": 84960,
          "time": 64.363572,
          "velocity": 0.5669291338582677
        },
        {
          "duration": 0.9999990000000025,
          "durationTicks": 1320,
          "midi": 76,
          "name": "E5",
          "ticks": 84960,
          "time": 64.363572,
          "velocity": 0.6929133858267716
        },
        {
          "duration": 0.909089999999992,
          "durationTicks": 1200,
          "midi": 53,
          "name": "F3",
          "ticks": 85440,
          "time": 64.727208,
          "velocity": 0.5196850393700787
        },
        {
          "duration": 0.909089999999992,
          "durationTicks": 1200,
          "midi": 59,
          "name": "B3",
          "ticks": 85440,
          "time": 64.727208,
          "velocity": 0.5196850393700787
        },
        {
          "duration": 0.27272699999998906,
          "durationTicks": 360,
          "midi": 75,
          "name": "D#5",
          "ticks": 86280,
          "time": 65.36357100000001,
          "velocity": 0.6929133858267716
        },
        {
          "duration": 3.090906000000004,
          "durationTicks": 4080,
          "midi": 54,
          "name": "F#3",
          "ticks": 86640,
          "time": 65.636298,
          "velocity": 0.6141732283464567
        },
        {
          "duration": 1.090908000000013,
          "durationTicks": 1440,
          "midi": 74,
          "name": "D5",
          "ticks": 86640,
          "time": 65.636298,
          "velocity": 0.6929133858267716
        },
        {
          "duration": 2.5454519999999974,
          "durationTicks": 3360,
          "midi": 58,
          "name": "A#3",
          "ticks": 87360,
          "time": 66.181752,
          "velocity": 0.5118110236220472
        },
        {
          "duration": 2.5454519999999974,
          "durationTicks": 3360,
          "midi": 67,
          "name": "G4",
          "ticks": 87360,
          "time": 66.181752,
          "velocity": 0.5118110236220472
        },
        {
          "duration": 1.5454529999999949,
          "durationTicks": 2040,
          "midi": 70,
          "name": "A#4",
          "ticks": 88680,
          "time": 67.181751,
          "velocity": 0.5354330708661418
        },
        {
          "duration": 3.2727239999999966,
          "durationTicks": 4320,
          "midi": 47,
          "name": "B2",
          "ticks": 90720,
          "time": 68.727204,
          "velocity": 0.7795275590551181
        },
        {
          "duration": 0.24242399999999975,
          "durationTicks": 320,
          "midi": 54,
          "name": "F#3",
          "ticks": 91200,
          "time": 69.09084,
          "velocity": 0.5905511811023622
        },
        {
          "duration": 0.4848479999999995,
          "durationTicks": 640,
          "midi": 62,
          "name": "D4",
          "ticks": 91200,
          "time": 69.09084,
          "velocity": 0.5669291338582677
        },
        {
          "duration": 0.24242399999999975,
          "durationTicks": 320,
          "midi": 66,
          "name": "F#4",
          "ticks": 91200,
          "time": 69.09084,
          "velocity": 0.5905511811023622
        },
        {
          "duration": 0.24242399999999975,
          "durationTicks": 320,
          "midi": 54,
          "name": "F#3",
          "ticks": 91520,
          "time": 69.333264,
          "velocity": 0.6299212598425197
        },
        {
          "duration": 0.24242399999999975,
          "durationTicks": 320,
          "midi": 66,
          "name": "F#4",
          "ticks": 91520,
          "time": 69.333264,
          "velocity": 0.6299212598425197
        },
        {
          "duration": 0.24242399999999975,
          "durationTicks": 320,
          "midi": 55,
          "name": "G3",
          "ticks": 91840,
          "time": 69.575688,
          "velocity": 0.6850393700787402
        },
        {
          "duration": 0.4848479999999995,
          "durationTicks": 640,
          "midi": 62,
          "name": "D4",
          "ticks": 91840,
          "time": 69.575688,
          "velocity": 0.6614173228346457
        },
        {
          "duration": 0.24242399999999975,
          "durationTicks": 320,
          "midi": 67,
          "name": "G4",
          "ticks": 91840,
          "time": 69.575688,
          "velocity": 0.6850393700787402
        },
        {
          "duration": 0.24242399999999975,
          "durationTicks": 320,
          "midi": 55,
          "name": "G3",
          "ticks": 92160,
          "time": 69.818112,
          "velocity": 0.7637795275590551
        },
        {
          "duration": 0.24242399999999975,
          "durationTicks": 320,
          "midi": 67,
          "name": "G4",
          "ticks": 92160,
          "time": 69.818112,
          "velocity": 0.7637795275590551
        },
        {
          "duration": 0.24242400000001396,
          "durationTicks": 320,
          "midi": 57,
          "name": "A3",
          "ticks": 92480,
          "time": 70.060536,
          "velocity": 0.7952755905511811
        },
        {
          "duration": 1.939391999999998,
          "durationTicks": 2560,
          "midi": 62,
          "name": "D4",
          "ticks": 92480,
          "time": 70.060536,
          "velocity": 0.7559055118110236
        },
        {
          "duration": 0.24242400000001396,
          "durationTicks": 320,
          "midi": 69,
          "name": "A4",
          "ticks": 92480,
          "time": 70.060536,
          "velocity": 0.7952755905511811
        },
        {
          "duration": 1.696967999999984,
          "durationTicks": 2240,
          "midi": 57,
          "name": "A3",
          "ticks": 92800,
          "time": 70.30296000000001,
          "velocity": 0.7559055118110236
        },
        {
          "duration": 1.696967999999984,
          "durationTicks": 2240,
          "midi": 69,
          "name": "A4",
          "ticks": 92800,
          "time": 70.30296000000001,
          "velocity": 0.9606299212598425
        },
        {
          "duration": 3.272724000000011,
          "durationTicks": 4320,
          "midi": 45,
          "name": "A2",
          "ticks": 95040,
          "time": 71.999928,
          "velocity": 0.7874015748031497
        },
        {
          "duration": 0.24242399999999975,
          "durationTicks": 320,
          "midi": 52,
          "name": "E3",
          "ticks": 95520,
          "time": 72.363564,
          "velocity": 0.49606299212598426
        },
        {
          "duration": 0.4848480000000137,
          "durationTicks": 640,
          "midi": 60,
          "name": "C4",
          "ticks": 95520,
          "time": 72.363564,
          "velocity": 0.47244094488188976
        },
        {
          "duration": 0.24242399999999975,
          "durationTicks": 320,
          "midi": 64,
          "name": "E4",
          "ticks": 95520,
          "time": 72.363564,
          "velocity": 0.44881889763779526
        },
        {
          "duration": 0.24242400000001396,
          "durationTicks": 320,
          "midi": 52,
          "name": "E3",
          "ticks": 95840,
          "time": 72.605988,
          "velocity": 0.5354330708661418
        },
        {
          "duration": 0.24242400000001396,
          "durationTicks": 320,
          "midi": 64,
          "name": "E4",
          "ticks": 95840,
          "time": 72.605988,
          "velocity": 0.5984251968503937
        },
        {
          "duration": 0.24242399999998554,
          "durationTicks": 320,
          "midi": 54,
          "name": "F#3",
          "ticks": 96160,
          "time": 72.84841200000001,
          "velocity": 0.5905511811023622
        },
        {
          "duration": 0.4848479999999853,
          "durationTicks": 640,
          "midi": 60,
          "name": "C4",
          "ticks": 96160,
          "time": 72.84841200000001,
          "velocity": 0.5669291338582677
        },
        {
          "duration": 0.24242399999998554,
          "durationTicks": 320,
          "midi": 66,
          "name": "F#4",
          "ticks": 96160,
          "time": 72.84841200000001,
          "velocity": 0.7007874015748031
        },
        {
          "duration": 0.24242399999999975,
          "durationTicks": 320,
          "midi": 54,
          "name": "F#3",
          "ticks": 96480,
          "time": 73.090836,
          "velocity": 0.6692913385826772
        },
        {
          "duration": 0.24242399999999975,
          "durationTicks": 320,
          "midi": 66,
          "name": "F#4",
          "ticks": 96480,
          "time": 73.090836,
          "velocity": 0.7874015748031497
        },
        {
          "duration": 0.24242400000001396,
          "durationTicks": 320,
          "midi": 55,
          "name": "G3",
          "ticks": 96800,
          "time": 73.33326,
          "velocity": 0.7007874015748031
        },
        {
          "duration": 1.5757560000000126,
          "durationTicks": 2080,
          "midi": 60,
          "name": "C4",
          "ticks": 96800,
          "time": 73.33326,
          "velocity": 0.6614173228346457
        },
        {
          "duration": 0.24242400000001396,
          "durationTicks": 320,
          "midi": 67,
          "name": "G4",
          "ticks": 96800,
          "time": 73.33326,
          "velocity": 0.8267716535433071
        },
        {
          "duration": 1.3333319999999986,
          "durationTicks": 1760,
          "midi": 57,
          "name": "A3",
          "ticks": 97120,
          "time": 73.57568400000001,
          "velocity": 0.6614173228346457
        },
        {
          "duration": 1.3333319999999986,
          "durationTicks": 1760,
          "midi": 67,
          "name": "G4",
          "ticks": 97120,
          "time": 73.57568400000001,
          "velocity": 0.889763779527559
        },
        {
          "duration": 0.3636359999999996,
          "durationTicks": 480,
          "midi": 54,
          "name": "F#3",
          "ticks": 98880,
          "time": 74.90901600000001,
          "velocity": 0.5984251968503937
        },
        {
          "duration": 0.3636359999999996,
          "durationTicks": 480,
          "midi": 66,
          "name": "F#4",
          "ticks": 98880,
          "time": 74.90901600000001,
          "velocity": 0.7874015748031497
        },
        {
          "duration": 8.727263999999991,
          "durationTicks": 11520,
          "midi": 47,
          "name": "B2",
          "ticks": 99360,
          "time": 75.27265200000001,
          "velocity": 0.7874015748031497
        },
        {
          "duration": 0.1818179999999927,
          "durationTicks": 240,
          "midi": 54,
          "name": "F#3",
          "ticks": 99360,
          "time": 75.27265200000001,
          "velocity": 0.6377952755905512
        },
        {
          "duration": 8.727263999999991,
          "durationTicks": 11520,
          "midi": 62,
          "name": "D4",
          "ticks": 99360,
          "time": 75.27265200000001,
          "velocity": 0.7480314960629921
        },
        {
          "duration": 0.1818179999999927,
          "durationTicks": 240,
          "midi": 66,
          "name": "F#4",
          "ticks": 99360,
          "time": 75.27265200000001,
          "velocity": 0.905511811023622
        },
        {
          "duration": 0.18181800000000692,
          "durationTicks": 240,
          "midi": 57,
          "name": "A3",
          "ticks": 99600,
          "time": 75.45447,
          "velocity": 0.6377952755905512
        },
        {
          "duration": 0.18181800000000692,
          "durationTicks": 240,
          "midi": 69,
          "name": "A4",
          "ticks": 99600,
          "time": 75.45447,
          "velocity": 0.7874015748031497
        },
        {
          "duration": 8.363627999999991,
          "durationTicks": 11040,
          "midi": 54,
          "name": "F#3",
          "ticks": 99840,
          "time": 75.63628800000001,
          "velocity": 0.6377952755905512
        },
        {
          "duration": 8.363627999999991,
          "durationTicks": 11040,
          "midi": 66,
          "name": "F#4",
          "ticks": 99840,
          "time": 75.63628800000001,
          "velocity": 0.7874015748031497
        },
        {
          "duration": 0.5454539999999923,
          "durationTicks": 720,
          "midi": 71,
          "name": "B4",
          "ticks": 102240,
          "time": 77.454468,
          "velocity": 0.3464566929133858
        },
        {
          "duration": 0.3636359999999996,
          "durationTicks": 480,
          "midi": 76,
          "name": "E5",
          "ticks": 102960,
          "time": 77.999922,
          "velocity": 0.4330708661417323
        },
        {
          "duration": 0.3636359999999996,
          "durationTicks": 480,
          "midi": 74,
          "name": "D5",
          "ticks": 103440,
          "time": 78.363558,
          "velocity": 0.5196850393700787
        },
        {
          "duration": 0.2727270000000033,
          "durationTicks": 360,
          "midi": 78,
          "name": "F#5",
          "ticks": 103920,
          "time": 78.727194,
          "velocity": 0.5275590551181102
        },
        {
          "duration": 0.2727270000000033,
          "durationTicks": 360,
          "midi": 71,
          "name": "B4",
          "ticks": 104280,
          "time": 78.999921,
          "velocity": 0.5196850393700787
        },
        {
          "duration": 0.1818179999999927,
          "durationTicks": 240,
          "midi": 76,
          "name": "E5",
          "ticks": 104640,
          "time": 79.272648,
          "velocity": 0.4645669291338583
        },
        {
          "duration": 0.18181800000000692,
          "durationTicks": 240,
          "midi": 74,
          "name": "D5",
          "ticks": 104880,
          "time": 79.454466,
          "velocity": 0.5433070866141733
        },
        {
          "duration": 0.12121199999999988,
          "durationTicks": 160,
          "midi": 78,
          "name": "F#5",
          "ticks": 105120,
          "time": 79.636284,
          "velocity": 0.5590551181102362
        },
        {
          "duration": 0.12121199999999988,
          "durationTicks": 160,
          "midi": 71,
          "name": "B4",
          "ticks": 105280,
          "time": 79.757496,
          "velocity": 0.5669291338582677
        },
        {
          "duration": 0.12121199999999988,
          "durationTicks": 160,
          "midi": 76,
          "name": "E5",
          "ticks": 105440,
          "time": 79.878708,
          "velocity": 0.6062992125984252
        },
        {
          "duration": 0.12121199999999988,
          "durationTicks": 160,
          "midi": 74,
          "name": "D5",
          "ticks": 105600,
          "time": 79.99992,
          "velocity": 0.6062992125984252
        },
        {
          "duration": 0.12121199999999988,
          "durationTicks": 160,
          "midi": 78,
          "name": "F#5",
          "ticks": 105760,
          "time": 80.121132,
          "velocity": 0.5984251968503937
        },
        {
          "duration": 0.12121199999999988,
          "durationTicks": 160,
          "midi": 71,
          "name": "B4",
          "ticks": 105920,
          "time": 80.242344,
          "velocity": 0.5590551181102362
        },
        {
          "duration": 0.12121199999999988,
          "durationTicks": 160,
          "midi": 76,
          "name": "E5",
          "ticks": 106080,
          "time": 80.363556,
          "velocity": 0.4645669291338583
        },
        {
          "duration": 0.12121199999999988,
          "durationTicks": 160,
          "midi": 74,
          "name": "D5",
          "ticks": 106240,
          "time": 80.484768,
          "velocity": 0.44881889763779526
        },
        {
          "duration": 0.12121199999999988,
          "durationTicks": 160,
          "midi": 78,
          "name": "F#5",
          "ticks": 106400,
          "time": 80.60598,
          "velocity": 0.44881889763779526
        },
        {
          "duration": 0.18181800000000692,
          "durationTicks": 240,
          "midi": 71,
          "name": "B4",
          "ticks": 106560,
          "time": 80.727192,
          "velocity": 0.47244094488188976
        },
        {
          "duration": 0.1818179999999927,
          "durationTicks": 240,
          "midi": 76,
          "name": "E5",
          "ticks": 106800,
          "time": 80.90901000000001,
          "velocity": 0.4330708661417323
        },
        {
          "duration": 0.18181800000000692,
          "durationTicks": 240,
          "midi": 74,
          "name": "D5",
          "ticks": 107040,
          "time": 81.090828,
          "velocity": 0.4330708661417323
        },
        {
          "duration": 0.1818179999999927,
          "durationTicks": 240,
          "midi": 78,
          "name": "F#5",
          "ticks": 107280,
          "time": 81.27264600000001,
          "velocity": 0.4251968503937008
        },
        {
          "duration": 0.24242399999999975,
          "durationTicks": 320,
          "midi": 71,
          "name": "B4",
          "ticks": 107520,
          "time": 81.454464,
          "velocity": 0.3858267716535433
        },
        {
          "duration": 0.3030300000000068,
          "durationTicks": 400,
          "midi": 76,
          "name": "E5",
          "ticks": 107840,
          "time": 81.696888,
          "velocity": 0.4094488188976378
        },
        {
          "duration": 0.5454539999999923,
          "durationTicks": 720,
          "midi": 74,
          "name": "D5",
          "ticks": 108240,
          "time": 81.99991800000001,
          "velocity": 0.3543307086614173
        },
        {
          "duration": 1.4545439999999985,
          "durationTicks": 1920,
          "midi": 78,
          "name": "F#5",
          "ticks": 108960,
          "time": 82.545372,
          "velocity": 0.3464566929133858
        },
        {
          "duration": 1.0909079999999989,
          "durationTicks": 1440,
          "midi": 60,
          "name": "C4",
          "ticks": 110880,
          "time": 83.999916,
          "velocity": 0.7874015748031497
        },
        {
          "duration": 0.9090900000000062,
          "durationTicks": 1200,
          "midi": 83,
          "name": "B5",
          "ticks": 110880,
          "time": 83.999916,
          "velocity": 0.7874015748031497
        },
        {
          "duration": 0.7272719999999993,
          "durationTicks": 960,
          "midi": 64,
          "name": "E4",
          "ticks": 111360,
          "time": 84.363552,
          "velocity": 0.6692913385826772
        },
        {
          "duration": 0.7272719999999993,
          "durationTicks": 960,
          "midi": 71,
          "name": "B4",
          "ticks": 111360,
          "time": 84.363552,
          "velocity": 0.6692913385826772
        },
        {
          "duration": 0.1818179999999927,
          "durationTicks": 240,
          "midi": 81,
          "name": "A5",
          "ticks": 112080,
          "time": 84.909006,
          "velocity": 0.7874015748031497
        },
        {
          "duration": 1.0909079999999989,
          "durationTicks": 1440,
          "midi": 57,
          "name": "A3",
          "ticks": 112320,
          "time": 85.090824,
          "velocity": 0.7874015748031497
        },
        {
          "duration": 0.9090900000000062,
          "durationTicks": 1200,
          "midi": 83,
          "name": "B5",
          "ticks": 112320,
          "time": 85.090824,
          "velocity": 0.7874015748031497
        },
        {
          "duration": 0.7272719999999993,
          "durationTicks": 960,
          "midi": 60,
          "name": "C4",
          "ticks": 112800,
          "time": 85.45446,
          "velocity": 0.6692913385826772
        },
        {
          "duration": 0.7272719999999993,
          "durationTicks": 960,
          "midi": 67,
          "name": "G4",
          "ticks": 112800,
          "time": 85.45446,
          "velocity": 0.6692913385826772
        },
        {
          "duration": 0.1818179999999927,
          "durationTicks": 240,
          "midi": 81,
          "name": "A5",
          "ticks": 113520,
          "time": 85.999914,
          "velocity": 0.7874015748031497
        },
        {
          "duration": 1.090908000000013,
          "durationTicks": 1440,
          "midi": 53,
          "name": "F3",
          "ticks": 113760,
          "time": 86.181732,
          "velocity": 0.7874015748031497
        },
        {
          "duration": 0.9090900000000062,
          "durationTicks": 1200,
          "midi": 79,
          "name": "G5",
          "ticks": 113760,
          "time": 86.181732,
          "velocity": 0.7874015748031497
        },
        {
          "duration": 0.7272719999999993,
          "durationTicks": 960,
          "midi": 57,
          "name": "A3",
          "ticks": 114240,
          "time": 86.54536800000001,
          "velocity": 0.6692913385826772
        },
        {
          "duration": 0.7272719999999993,
          "durationTicks": 960,
          "midi": 64,
          "name": "E4",
          "ticks": 114240,
          "time": 86.54536800000001,
          "velocity": 0.6692913385826772
        },
        {
          "duration": 0.18181800000000692,
          "durationTicks": 240,
          "midi": 77,
          "name": "F5",
          "ticks": 114960,
          "time": 87.090822,
          "velocity": 0.7874015748031497
        },
        {
          "duration": 1.0909079999999989,
          "durationTicks": 1440,
          "midi": 50,
          "name": "D3",
          "ticks": 115200,
          "time": 87.27264000000001,
          "velocity": 0.7874015748031497
        },
        {
          "duration": 0.909089999999992,
          "durationTicks": 1200,
          "midi": 79,
          "name": "G5",
          "ticks": 115200,
          "time": 87.27264000000001,
          "velocity": 0.7874015748031497
        },
        {
          "duration": 0.7272719999999993,
          "durationTicks": 960,
          "midi": 53,
          "name": "F3",
          "ticks": 115680,
          "time": 87.63627600000001,
          "velocity": 0.6692913385826772
        },
        {
          "duration": 0.7272719999999993,
          "durationTicks": 960,
          "midi": 60,
          "name": "C4",
          "ticks": 115680,
          "time": 87.63627600000001,
          "velocity": 0.6692913385826772
        },
        {
          "duration": 0.18181800000000692,
          "durationTicks": 240,
          "midi": 77,
          "name": "F5",
          "ticks": 116400,
          "time": 88.18173,
          "velocity": 0.7874015748031497
        },
        {
          "duration": 1.0909079999999989,
          "durationTicks": 1440,
          "midi": 59,
          "name": "B3",
          "ticks": 116640,
          "time": 88.36354800000001,
          "velocity": 0.7874015748031497
        },
        {
          "duration": 0.909089999999992,
          "durationTicks": 1200,
          "midi": 76,
          "name": "E5",
          "ticks": 116640,
          "time": 88.36354800000001,
          "velocity": 0.7874015748031497
        },
        {
          "duration": 0.7272719999999993,
          "durationTicks": 960,
          "midi": 65,
          "name": "F4",
          "ticks": 117120,
          "time": 88.72718400000001,
          "velocity": 0.6692913385826772
        },
        {
          "duration": 0.7272719999999993,
          "durationTicks": 960,
          "midi": 69,
          "name": "A4",
          "ticks": 117120,
          "time": 88.72718400000001,
          "velocity": 0.6692913385826772
        },
        {
          "duration": 0.18181800000000692,
          "durationTicks": 240,
          "midi": 74,
          "name": "D5",
          "ticks": 117840,
          "time": 89.272638,
          "velocity": 0.7874015748031497
        },
        {
          "duration": 1.0909079999999989,
          "durationTicks": 1440,
          "midi": 52,
          "name": "E3",
          "ticks": 118080,
          "time": 89.45445600000001,
          "velocity": 0.7874015748031497
        },
        {
          "duration": 0.909089999999992,
          "durationTicks": 1200,
          "midi": 69,
          "name": "A4",
          "ticks": 118080,
          "time": 89.45445600000001,
          "velocity": 0.7874015748031497
        },
        {
          "duration": 0.7272719999999993,
          "durationTicks": 960,
          "midi": 56,
          "name": "G#3",
          "ticks": 118560,
          "time": 89.81809200000001,
          "velocity": 0.6692913385826772
        },
        {
          "duration": 0.7272719999999993,
          "durationTicks": 960,
          "midi": 62,
          "name": "D4",
          "ticks": 118560,
          "time": 89.81809200000001,
          "velocity": 0.6692913385826772
        },
        {
          "duration": 0.18181800000000692,
          "durationTicks": 240,
          "midi": 71,
          "name": "B4",
          "ticks": 119280,
          "time": 90.363546,
          "velocity": 0.7874015748031497
        },
        {
          "duration": 1.0909079999999989,
          "durationTicks": 1440,
          "midi": 57,
          "name": "A3",
          "ticks": 119520,
          "time": 90.545364,
          "velocity": 0.7874015748031497
        },
        {
          "duration": 0.7272719999999993,
          "durationTicks": 960,
          "midi": 73,
          "name": "C#5",
          "ticks": 119520,
          "time": 90.545364,
          "velocity": 0.7874015748031497
        },
        {
          "duration": 0.7272719999999993,
          "durationTicks": 960,
          "midi": 61,
          "name": "C#4",
          "ticks": 120000,
          "time": 90.909,
          "velocity": 0.6692913385826772
        },
        {
          "duration": 0.7272719999999993,
          "durationTicks": 960,
          "midi": 68,
          "name": "G#4",
          "ticks": 120000,
          "time": 90.909,
          "velocity": 0.6692913385826772
        },
        {
          "duration": 0.3636359999999996,
          "durationTicks": 480,
          "midi": 76,
          "name": "E5",
          "ticks": 120480,
          "time": 91.272636,
          "velocity": 0.7874015748031497
        },
        {
          "duration": 1.0909079999999989,
          "durationTicks": 1440,
          "midi": 57,
          "name": "A3",
          "ticks": 120960,
          "time": 91.636272,
          "velocity": 0.7874015748031497
        },
        {
          "duration": 1.0909079999999989,
          "durationTicks": 1440,
          "midi": 80,
          "name": "G#5",
          "ticks": 120960,
          "time": 91.636272,
          "velocity": 0.7874015748031497
        },
        {
          "duration": 0.7272719999999993,
          "durationTicks": 960,
          "midi": 61,
          "name": "C#4",
          "ticks": 121440,
          "time": 91.999908,
          "velocity": 0.6692913385826772
        },
        {
          "duration": 0.7272719999999993,
          "durationTicks": 960,
          "midi": 68,
          "name": "G#4",
          "ticks": 121440,
          "time": 91.999908,
          "velocity": 0.6692913385826772
        },
        {
          "duration": 1.0909079999999989,
          "durationTicks": 1440,
          "midi": 60,
          "name": "C4",
          "ticks": 122400,
          "time": 92.72718,
          "velocity": 0.7874015748031497
        },
        {
          "duration": 0.9090900000000062,
          "durationTicks": 1200,
          "midi": 83,
          "name": "B5",
          "ticks": 122400,
          "time": 92.72718,
          "velocity": 0.7874015748031497
        },
        {
          "duration": 0.7272719999999993,
          "durationTicks": 960,
          "midi": 64,
          "name": "E4",
          "ticks": 122880,
          "time": 93.090816,
          "velocity": 0.6692913385826772
        },
        {
          "duration": 0.7272719999999993,
          "durationTicks": 960,
          "midi": 71,
          "name": "B4",
          "ticks": 122880,
          "time": 93.090816,
          "velocity": 0.6692913385826772
        },
        {
          "duration": 0.1818179999999927,
          "durationTicks": 240,
          "midi": 81,
          "name": "A5",
          "ticks": 123600,
          "time": 93.63627000000001,
          "velocity": 0.7874015748031497
        },
        {
          "duration": 1.0909079999999989,
          "durationTicks": 1440,
          "midi": 57,
          "name": "A3",
          "ticks": 123840,
          "time": 93.818088,
          "velocity": 0.7874015748031497
        },
        {
          "duration": 0.9090900000000062,
          "durationTicks": 1200,
          "midi": 83,
          "name": "B5",
          "ticks": 123840,
          "time": 93.818088,
          "velocity": 0.7874015748031497
        },
        {
          "duration": 0.7272719999999993,
          "durationTicks": 960,
          "midi": 60,
          "name": "C4",
          "ticks": 124320,
          "time": 94.181724,
          "velocity": 0.6692913385826772
        },
        {
          "duration": 0.7272719999999993,
          "durationTicks": 960,
          "midi": 67,
          "name": "G4",
          "ticks": 124320,
          "time": 94.181724,
          "velocity": 0.6692913385826772
        },
        {
          "duration": 0.1818179999999927,
          "durationTicks": 240,
          "midi": 84,
          "name": "C6",
          "ticks": 125040,
          "time": 94.72717800000001,
          "velocity": 0.7874015748031497
        },
        {
          "duration": 1.0909079999999989,
          "durationTicks": 1440,
          "midi": 56,
          "name": "G#3",
          "ticks": 125280,
          "time": 94.908996,
          "velocity": 0.7874015748031497
        },
        {
          "duration": 0.9090900000000062,
          "durationTicks": 1200,
          "midi": 79,
          "name": "G5",
          "ticks": 125280,
          "time": 94.908996,
          "velocity": 0.7874015748031497
        },
        {
          "duration": 0.7272719999999993,
          "durationTicks": 960,
          "midi": 60,
          "name": "C4",
          "ticks": 125760,
          "time": 95.272632,
          "velocity": 0.6692913385826772
        },
        {
          "duration": 0.7272719999999993,
          "durationTicks": 960,
          "midi": 67,
          "name": "G4",
          "ticks": 125760,
          "time": 95.272632,
          "velocity": 0.6692913385826772
        },
        {
          "duration": 0.1818179999999927,
          "durationTicks": 240,
          "midi": 77,
          "name": "F5",
          "ticks": 126480,
          "time": 95.81808600000001,
          "velocity": 0.7874015748031497
        },
        {
          "duration": 1.0909079999999989,
          "durationTicks": 1440,
          "midi": 53,
          "name": "F3",
          "ticks": 126720,
          "time": 95.999904,
          "velocity": 0.7874015748031497
        },
        {
          "duration": 0.9090900000000062,
          "durationTicks": 1200,
          "midi": 79,
          "name": "G5",
          "ticks": 126720,
          "time": 95.999904,
          "velocity": 0.7874015748031497
        },
        {
          "duration": 0.7272719999999993,
          "durationTicks": 960,
          "midi": 56,
          "name": "G#3",
          "ticks": 127200,
          "time": 96.36354,
          "velocity": 0.6692913385826772
        },
        {
          "duration": 0.7272719999999993,
          "durationTicks": 960,
          "midi": 63,
          "name": "D#4",
          "ticks": 127200,
          "time": 96.36354,
          "velocity": 0.6692913385826772
        },
        {
          "duration": 0.1818179999999927,
          "durationTicks": 240,
          "midi": 80,
          "name": "G#5",
          "ticks": 127920,
          "time": 96.908994,
          "velocity": 0.7874015748031497
        },
        {
          "duration": 1.0909079999999989,
          "durationTicks": 1440,
          "midi": 52,
          "name": "E3",
          "ticks": 128160,
          "time": 97.090812,
          "velocity": 0.7874015748031497
        },
        {
          "duration": 0.9090900000000062,
          "durationTicks": 1200,
          "midi": 75,
          "name": "D#5",
          "ticks": 128160,
          "time": 97.090812,
          "velocity": 0.7874015748031497
        },
        {
          "duration": 0.7272719999999993,
          "durationTicks": 960,
          "midi": 56,
          "name": "G#3",
          "ticks": 128640,
          "time": 97.454448,
          "velocity": 0.6692913385826772
        },
        {
          "duration": 0.7272719999999993,
          "durationTicks": 960,
          "midi": 63,
          "name": "D#4",
          "ticks": 128640,
          "time": 97.454448,
          "velocity": 0.6692913385826772
        },
        {
          "duration": 0.1818179999999927,
          "durationTicks": 240,
          "midi": 73,
          "name": "C#5",
          "ticks": 129360,
          "time": 97.999902,
          "velocity": 0.7874015748031497
        },
        {
          "duration": 1.0909079999999989,
          "durationTicks": 1440,
          "midi": 49,
          "name": "C#3",
          "ticks": 129600,
          "time": 98.18172,
          "velocity": 0.7874015748031497
        },
        {
          "duration": 0.9090900000000062,
          "durationTicks": 1200,
          "midi": 68,
          "name": "G#4",
          "ticks": 129600,
          "time": 98.18172,
          "velocity": 0.7874015748031497
        },
        {
          "duration": 0.7272719999999993,
          "durationTicks": 960,
          "midi": 52,
          "name": "E3",
          "ticks": 130080,
          "time": 98.545356,
          "velocity": 0.7874015748031497
        },
        {
          "duration": 0.7272719999999993,
          "durationTicks": 960,
          "midi": 59,
          "name": "B3",
          "ticks": 130080,
          "time": 98.545356,
          "velocity": 0.7874015748031497
        },
        {
          "duration": 0.1818179999999927,
          "durationTicks": 240,
          "midi": 70,
          "name": "A#4",
          "ticks": 130800,
          "time": 99.09081,
          "velocity": 0.7874015748031497
        },
        {
          "duration": 2.0909070000000014,
          "durationTicks": 2760,
          "midi": 51,
          "name": "D#3",
          "ticks": 131040,
          "time": 99.272628,
          "velocity": 0.7874015748031497
        },
        {
          "duration": 1.090908000000013,
          "durationTicks": 1440,
          "midi": 72,
          "name": "C5",
          "ticks": 131040,
          "time": 99.272628,
          "velocity": 0.7874015748031497
        },
        {
          "duration": 1.090908000000013,
          "durationTicks": 1440,
          "midi": 55,
          "name": "G3",
          "ticks": 131520,
          "time": 99.636264,
          "velocity": 0.5669291338582677
        },
        {
          "duration": 1.090908000000013,
          "durationTicks": 1440,
          "midi": 61,
          "name": "C#4",
          "ticks": 131520,
          "time": 99.636264,
          "velocity": 0.5669291338582677
        },
        {
          "duration": 0.9999989999999883,
          "durationTicks": 1320,
          "midi": 71,
          "name": "B4",
          "ticks": 132480,
          "time": 100.36353600000001,
          "velocity": 0.5984251968503937
        },
        {
          "duration": 0.6363629999999887,
          "durationTicks": 840,
          "midi": 55,
          "name": "G3",
          "ticks": 132960,
          "time": 100.72717200000001,
          "velocity": 0.5984251968503937
        },
        {
          "duration": 0.6363629999999887,
          "durationTicks": 840,
          "midi": 61,
          "name": "C#4",
          "ticks": 132960,
          "time": 100.72717200000001,
          "velocity": 0.4251968503937008
        },
        {
          "duration": 0.4545450000000102,
          "durationTicks": 600,
          "midi": 72,
          "name": "C5",
          "ticks": 133800,
          "time": 101.363535,
          "velocity": 0.5354330708661418
        },
        {
          "duration": 0.4090905000000049,
          "durationTicks": 540,
          "midi": 76,
          "name": "E5",
          "ticks": 133860,
          "time": 101.4089895,
          "velocity": 0.5905511811023622
        },
        {
          "duration": 1.0909079999999989,
          "durationTicks": 1440,
          "midi": 60,
          "name": "C4",
          "ticks": 133920,
          "time": 101.45444400000001,
          "velocity": 0.7952755905511811
        },
        {
          "duration": 0.909089999999992,
          "durationTicks": 1200,
          "midi": 83,
          "name": "B5",
          "ticks": 133920,
          "time": 101.45444400000001,
          "velocity": 0.7952755905511811
        },
        {
          "duration": 0.7272719999999993,
          "durationTicks": 960,
          "midi": 64,
          "name": "E4",
          "ticks": 134400,
          "time": 101.81808000000001,
          "velocity": 0.6692913385826772
        },
        {
          "duration": 0.7272719999999993,
          "durationTicks": 960,
          "midi": 71,
          "name": "B4",
          "ticks": 134400,
          "time": 101.81808000000001,
          "velocity": 0.6692913385826772
        },
        {
          "duration": 0.18181800000000692,
          "durationTicks": 240,
          "midi": 81,
          "name": "A5",
          "ticks": 135120,
          "time": 102.363534,
          "velocity": 0.7874015748031497
        },
        {
          "duration": 1.0909079999999989,
          "durationTicks": 1440,
          "midi": 57,
          "name": "A3",
          "ticks": 135360,
          "time": 102.54535200000001,
          "velocity": 0.7874015748031497
        },
        {
          "duration": 0.909089999999992,
          "durationTicks": 1200,
          "midi": 83,
          "name": "B5",
          "ticks": 135360,
          "time": 102.54535200000001,
          "velocity": 0.7874015748031497
        },
        {
          "duration": 0.7272719999999993,
          "durationTicks": 960,
          "midi": 60,
          "name": "C4",
          "ticks": 135840,
          "time": 102.90898800000001,
          "velocity": 0.6692913385826772
        },
        {
          "duration": 0.7272719999999993,
          "durationTicks": 960,
          "midi": 67,
          "name": "G4",
          "ticks": 135840,
          "time": 102.90898800000001,
          "velocity": 0.6692913385826772
        },
        {
          "duration": 0.18181800000000692,
          "durationTicks": 240,
          "midi": 81,
          "name": "A5",
          "ticks": 136560,
          "time": 103.454442,
          "velocity": 0.7874015748031497
        },
        {
          "duration": 1.0909079999999989,
          "durationTicks": 1440,
          "midi": 53,
          "name": "F3",
          "ticks": 136800,
          "time": 103.63626000000001,
          "velocity": 0.7874015748031497
        },
        {
          "duration": 0.909089999999992,
          "durationTicks": 1200,
          "midi": 79,
          "name": "G5",
          "ticks": 136800,
          "time": 103.63626000000001,
          "velocity": 0.7874015748031497
        },
        {
          "duration": 0.7272719999999993,
          "durationTicks": 960,
          "midi": 57,
          "name": "A3",
          "ticks": 137280,
          "time": 103.999896,
          "velocity": 0.6692913385826772
        },
        {
          "duration": 0.7272719999999993,
          "durationTicks": 960,
          "midi": 64,
          "name": "E4",
          "ticks": 137280,
          "time": 103.999896,
          "velocity": 0.6692913385826772
        },
        {
          "duration": 0.18181800000000692,
          "durationTicks": 240,
          "midi": 77,
          "name": "F5",
          "ticks": 138000,
          "time": 104.54535,
          "velocity": 0.7874015748031497
        },
        {
          "duration": 1.0909079999999989,
          "durationTicks": 1440,
          "midi": 50,
          "name": "D3",
          "ticks": 138240,
          "time": 104.727168,
          "velocity": 0.7874015748031497
        },
        {
          "duration": 0.909089999999992,
          "durationTicks": 1200,
          "midi": 79,
          "name": "G5",
          "ticks": 138240,
          "time": 104.727168,
          "velocity": 0.7874015748031497
        },
        {
          "duration": 0.7272719999999993,
          "durationTicks": 960,
          "midi": 53,
          "name": "F3",
          "ticks": 138720,
          "time": 105.090804,
          "velocity": 0.6692913385826772
        },
        {
          "duration": 0.7272719999999993,
          "durationTicks": 960,
          "midi": 60,
          "name": "C4",
          "ticks": 138720,
          "time": 105.090804,
          "velocity": 0.6692913385826772
        },
        {
          "duration": 0.18181800000000692,
          "durationTicks": 240,
          "midi": 77,
          "name": "F5",
          "ticks": 139440,
          "time": 105.636258,
          "velocity": 0.7874015748031497
        },
        {
          "duration": 1.0909079999999989,
          "durationTicks": 1440,
          "midi": 59,
          "name": "B3",
          "ticks": 139680,
          "time": 105.818076,
          "velocity": 0.7874015748031497
        },
        {
          "duration": 0.9090900000000062,
          "durationTicks": 1200,
          "midi": 76,
          "name": "E5",
          "ticks": 139680,
          "time": 105.818076,
          "velocity": 0.7874015748031497
        },
        {
          "duration": 0.7272719999999993,
          "durationTicks": 960,
          "midi": 65,
          "name": "F4",
          "ticks": 140160,
          "time": 106.181712,
          "velocity": 0.6692913385826772
        },
        {
          "duration": 0.7272719999999993,
          "durationTicks": 960,
          "midi": 69,
          "name": "A4",
          "ticks": 140160,
          "time": 106.181712,
          "velocity": 0.6692913385826772
        },
        {
          "duration": 0.1818179999999927,
          "durationTicks": 240,
          "midi": 74,
          "name": "D5",
          "ticks": 140880,
          "time": 106.72716600000001,
          "velocity": 0.7874015748031497
        },
        {
          "duration": 1.0909079999999989,
          "durationTicks": 1440,
          "midi": 52,
          "name": "E3",
          "ticks": 141120,
          "time": 106.908984,
          "velocity": 0.7874015748031497
        },
        {
          "duration": 0.9090900000000062,
          "durationTicks": 1200,
          "midi": 69,
          "name": "A4",
          "ticks": 141120,
          "time": 106.908984,
          "velocity": 0.7874015748031497
        },
        {
          "duration": 0.7272719999999993,
          "durationTicks": 960,
          "midi": 56,
          "name": "G#3",
          "ticks": 141600,
          "time": 107.27262,
          "velocity": 0.6692913385826772
        },
        {
          "duration": 0.7272719999999993,
          "durationTicks": 960,
          "midi": 62,
          "name": "D4",
          "ticks": 141600,
          "time": 107.27262,
          "velocity": 0.6692913385826772
        },
        {
          "duration": 0.1818179999999927,
          "durationTicks": 240,
          "midi": 71,
          "name": "B4",
          "ticks": 142320,
          "time": 107.81807400000001,
          "velocity": 0.7874015748031497
        },
        {
          "duration": 1.0909079999999989,
          "durationTicks": 1440,
          "midi": 57,
          "name": "A3",
          "ticks": 142560,
          "time": 107.999892,
          "velocity": 0.7874015748031497
        },
        {
          "duration": 0.7272719999999993,
          "durationTicks": 960,
          "midi": 73,
          "name": "C#5",
          "ticks": 142560,
          "time": 107.999892,
          "velocity": 0.7874015748031497
        },
        {
          "duration": 0.7272719999999993,
          "durationTicks": 960,
          "midi": 61,
          "name": "C#4",
          "ticks": 143040,
          "time": 108.363528,
          "velocity": 0.6692913385826772
        },
        {
          "duration": 0.7272719999999993,
          "durationTicks": 960,
          "midi": 68,
          "name": "G#4",
          "ticks": 143040,
          "time": 108.363528,
          "velocity": 0.6692913385826772
        },
        {
          "duration": 0.3636359999999996,
          "durationTicks": 480,
          "midi": 76,
          "name": "E5",
          "ticks": 143520,
          "time": 108.727164,
          "velocity": 0.7874015748031497
        },
        {
          "duration": 1.0909079999999989,
          "durationTicks": 1440,
          "midi": 57,
          "name": "A3",
          "ticks": 144000,
          "time": 109.0908,
          "velocity": 0.7874015748031497
        },
        {
          "duration": 1.0227262500000052,
          "durationTicks": 1350,
          "midi": 80,
          "name": "G#5",
          "ticks": 144000,
          "time": 109.0908,
          "velocity": 0.7874015748031497
        },
        {
          "duration": 0.09090899999999635,
          "durationTicks": 120,
          "midi": 72,
          "name": "C5",
          "ticks": 145200,
          "time": 109.99989000000001,
          "velocity": 0.6692913385826772
        },
        {
          "duration": 0.09090899999999635,
          "durationTicks": 120,
          "midi": 76,
          "name": "E5",
          "ticks": 145320,
          "time": 110.090799,
          "velocity": 0.6692913385826772
        },
        {
          "duration": 1.0909079999999989,
          "durationTicks": 1440,
          "midi": 60,
          "name": "C4",
          "ticks": 145440,
          "time": 110.181708,
          "velocity": 0.7874015748031497
        },
        {
          "duration": 0.9090900000000062,
          "durationTicks": 1200,
          "midi": 83,
          "name": "B5",
          "ticks": 145440,
          "time": 110.181708,
          "velocity": 0.7874015748031497
        },
        {
          "duration": 0.7272719999999993,
          "durationTicks": 960,
          "midi": 64,
          "name": "E4",
          "ticks": 145920,
          "time": 110.545344,
          "velocity": 0.6692913385826772
        },
        {
          "duration": 0.7272719999999993,
          "durationTicks": 960,
          "midi": 71,
          "name": "B4",
          "ticks": 145920,
          "time": 110.545344,
          "velocity": 0.6692913385826772
        },
        {
          "duration": 0.1818179999999927,
          "durationTicks": 240,
          "midi": 81,
          "name": "A5",
          "ticks": 146640,
          "time": 111.090798,
          "velocity": 0.7874015748031497
        },
        {
          "duration": 1.0909079999999989,
          "durationTicks": 1440,
          "midi": 57,
          "name": "A3",
          "ticks": 146880,
          "time": 111.272616,
          "velocity": 0.7874015748031497
        },
        {
          "duration": 0.9090900000000062,
          "durationTicks": 1200,
          "midi": 83,
          "name": "B5",
          "ticks": 146880,
          "time": 111.272616,
          "velocity": 0.7874015748031497
        },
        {
          "duration": 0.7272719999999993,
          "durationTicks": 960,
          "midi": 60,
          "name": "C4",
          "ticks": 147360,
          "time": 111.636252,
          "velocity": 0.6692913385826772
        },
        {
          "duration": 0.7272719999999993,
          "durationTicks": 960,
          "midi": 67,
          "name": "G4",
          "ticks": 147360,
          "time": 111.636252,
          "velocity": 0.6692913385826772
        },
        {
          "duration": 0.1818179999999927,
          "durationTicks": 240,
          "midi": 84,
          "name": "C6",
          "ticks": 148080,
          "time": 112.181706,
          "velocity": 0.7874015748031497
        },
        {
          "duration": 1.090908000000013,
          "durationTicks": 1440,
          "midi": 56,
          "name": "G#3",
          "ticks": 148320,
          "time": 112.363524,
          "velocity": 0.7874015748031497
        },
        {
          "duration": 0.9090900000000062,
          "durationTicks": 1200,
          "midi": 72,
          "name": "C5",
          "ticks": 148320,
          "time": 112.363524,
          "velocity": 0.6141732283464567
        },
        {
          "duration": 0.9090900000000062,
          "durationTicks": 1200,
          "midi": 79,
          "name": "G5",
          "ticks": 148320,
          "time": 112.363524,
          "velocity": 0.7874015748031497
        },
        {
          "duration": 0.7272720000000135,
          "durationTicks": 960,
          "midi": 60,
          "name": "C4",
          "ticks": 148800,
          "time": 112.72716,
          "velocity": 0.6692913385826772
        },
        {
          "duration": 0.7272720000000135,
          "durationTicks": 960,
          "midi": 67,
          "name": "G4",
          "ticks": 148800,
          "time": 112.72716,
          "velocity": 0.6692913385826772
        },
        {
          "duration": 0.18181800000000692,
          "durationTicks": 240,
          "midi": 77,
          "name": "F5",
          "ticks": 149520,
          "time": 113.272614,
          "velocity": 0.7874015748031497
        },
        {
          "duration": 1.0909079999999989,
          "durationTicks": 1440,
          "midi": 53,
          "name": "F3",
          "ticks": 149760,
          "time": 113.45443200000001,
          "velocity": 0.7874015748031497
        },
        {
          "duration": 0.909089999999992,
          "durationTicks": 1200,
          "midi": 72,
          "name": "C5",
          "ticks": 149760,
          "time": 113.45443200000001,
          "velocity": 0.6141732283464567
        },
        {
          "duration": 0.909089999999992,
          "durationTicks": 1200,
          "midi": 79,
          "name": "G5",
          "ticks": 149760,
          "time": 113.45443200000001,
          "velocity": 0.7874015748031497
        },
        {
          "duration": 0.7272719999999993,
          "durationTicks": 960,
          "midi": 56,
          "name": "G#3",
          "ticks": 150240,
          "time": 113.81806800000001,
          "velocity": 0.6692913385826772
        },
        {
          "duration": 0.7272719999999993,
          "durationTicks": 960,
          "midi": 63,
          "name": "D#4",
          "ticks": 150240,
          "time": 113.81806800000001,
          "velocity": 0.6692913385826772
        },
        {
          "duration": 0.18181800000000692,
          "durationTicks": 240,
          "midi": 80,
          "name": "G#5",
          "ticks": 150960,
          "time": 114.363522,
          "velocity": 0.7874015748031497
        },
        {
          "duration": 1.0909079999999989,
          "durationTicks": 1440,
          "midi": 52,
          "name": "E3",
          "ticks": 151200,
          "time": 114.54534000000001,
          "velocity": 0.7874015748031497
        },
        {
          "duration": 0.909089999999992,
          "durationTicks": 1200,
          "midi": 68,
          "name": "G#4",
          "ticks": 151200,
          "time": 114.54534000000001,
          "velocity": 0.6141732283464567
        },
        {
          "duration": 0.909089999999992,
          "durationTicks": 1200,
          "midi": 75,
          "name": "D#5",
          "ticks": 151200,
          "time": 114.54534000000001,
          "velocity": 0.7874015748031497
        },
        {
          "duration": 0.7272719999999993,
          "durationTicks": 960,
          "midi": 56,
          "name": "G#3",
          "ticks": 151680,
          "time": 114.90897600000001,
          "velocity": 0.6692913385826772
        },
        {
          "duration": 0.7272719999999993,
          "durationTicks": 960,
          "midi": 63,
          "name": "D#4",
          "ticks": 151680,
          "time": 114.90897600000001,
          "velocity": 0.6692913385826772
        },
        {
          "duration": 0.18181800000000692,
          "durationTicks": 240,
          "midi": 73,
          "name": "C#5",
          "ticks": 152400,
          "time": 115.45443,
          "velocity": 0.7874015748031497
        },
        {
          "duration": 1.0909079999999989,
          "durationTicks": 1440,
          "midi": 49,
          "name": "C#3",
          "ticks": 152640,
          "time": 115.63624800000001,
          "velocity": 0.7874015748031497
        },
        {
          "duration": 0.909089999999992,
          "durationTicks": 1200,
          "midi": 68,
          "name": "G#4",
          "ticks": 152640,
          "time": 115.63624800000001,
          "velocity": 0.7874015748031497
        },
        {
          "duration": 0.7272719999999993,
          "durationTicks": 960,
          "midi": 52,
          "name": "E3",
          "ticks": 153120,
          "time": 115.99988400000001,
          "velocity": 0.6692913385826772
        },
        {
          "duration": 0.7272719999999993,
          "durationTicks": 960,
          "midi": 59,
          "name": "B3",
          "ticks": 153120,
          "time": 115.99988400000001,
          "velocity": 0.6692913385826772
        },
        {
          "duration": 0.18181800000000692,
          "durationTicks": 240,
          "midi": 70,
          "name": "A#4",
          "ticks": 153840,
          "time": 116.545338,
          "velocity": 0.7874015748031497
        },
        {
          "duration": 3.2727239999999966,
          "durationTicks": 4320,
          "midi": 51,
          "name": "D#3",
          "ticks": 154080,
          "time": 116.72715600000001,
          "velocity": 0.7874015748031497
        },
        {
          "duration": 1.2727259999999916,
          "durationTicks": 1680,
          "midi": 72,
          "name": "C5",
          "ticks": 154080,
          "time": 116.72715600000001,
          "velocity": 0.7874015748031497
        },
        {
          "duration": 1.4545439999999985,
          "durationTicks": 1920,
          "midi": 55,
          "name": "G3",
          "ticks": 154560,
          "time": 117.09079200000001,
          "velocity": 0.5669291338582677
        },
        {
          "duration": 1.4545439999999985,
          "durationTicks": 1920,
          "midi": 61,
          "name": "C#4",
          "ticks": 154560,
          "time": 117.09079200000001,
          "velocity": 0.5669291338582677
        },
        {
          "duration": 1.999998000000005,
          "durationTicks": 2640,
          "midi": 71,
          "name": "B4",
          "ticks": 155760,
          "time": 117.999882,
          "velocity": 0.7244094488188977
        },
        {
          "duration": 1.4545439999999985,
          "durationTicks": 1920,
          "midi": 55,
          "name": "G3",
          "ticks": 156480,
          "time": 118.545336,
          "velocity": 0.5984251968503937
        },
        {
          "duration": 1.4545439999999985,
          "durationTicks": 1920,
          "midi": 61,
          "name": "C#4",
          "ticks": 156480,
          "time": 118.545336,
          "velocity": 0.4251968503937008
        },
        {
          "duration": 3.2727239999999966,
          "durationTicks": 4320,
          "midi": 44,
          "name": "G#2",
          "ticks": 158400,
          "time": 119.99988,
          "velocity": 0.7795275590551181
        },
        {
          "duration": 0.24242400000001396,
          "durationTicks": 320,
          "midi": 51,
          "name": "D#3",
          "ticks": 158880,
          "time": 120.363516,
          "velocity": 0.5905511811023622
        },
        {
          "duration": 0.4848479999999995,
          "durationTicks": 640,
          "midi": 59,
          "name": "B3",
          "ticks": 158880,
          "time": 120.363516,
          "velocity": 0.47244094488188976
        },
        {
          "duration": 0.24242400000001396,
          "durationTicks": 320,
          "midi": 63,
          "name": "D#4",
          "ticks": 158880,
          "time": 120.363516,
          "velocity": 0.5905511811023622
        },
        {
          "duration": 0.24242399999998554,
          "durationTicks": 320,
          "midi": 51,
          "name": "D#3",
          "ticks": 159200,
          "time": 120.60594000000002,
          "velocity": 0.6299212598425197
        },
        {
          "duration": 0.24242399999998554,
          "durationTicks": 320,
          "midi": 63,
          "name": "D#4",
          "ticks": 159200,
          "time": 120.60594000000002,
          "velocity": 0.6299212598425197
        },
        {
          "duration": 0.24242399999999975,
          "durationTicks": 320,
          "midi": 52,
          "name": "E3",
          "ticks": 159520,
          "time": 120.848364,
          "velocity": 0.6850393700787402
        },
        {
          "duration": 0.4848480000000137,
          "durationTicks": 640,
          "midi": 59,
          "name": "B3",
          "ticks": 159520,
          "time": 120.848364,
          "velocity": 0.5669291338582677
        },
        {
          "duration": 0.24242399999999975,
          "durationTicks": 320,
          "midi": 64,
          "name": "E4",
          "ticks": 159520,
          "time": 120.848364,
          "velocity": 0.6850393700787402
        },
        {
          "duration": 0.24242400000001396,
          "durationTicks": 320,
          "midi": 52,
          "name": "E3",
          "ticks": 159840,
          "time": 121.090788,
          "velocity": 0.7637795275590551
        },
        {
          "duration": 0.24242400000001396,
          "durationTicks": 320,
          "midi": 64,
          "name": "E4",
          "ticks": 159840,
          "time": 121.090788,
          "velocity": 0.7637795275590551
        },
        {
          "duration": 0.24242399999998554,
          "durationTicks": 320,
          "midi": 54,
          "name": "F#3",
          "ticks": 160160,
          "time": 121.33321200000002,
          "velocity": 0.7952755905511811
        },
        {
          "duration": 1.9393919999999838,
          "durationTicks": 2560,
          "midi": 59,
          "name": "B3",
          "ticks": 160160,
          "time": 121.33321200000002,
          "velocity": 0.6614173228346457
        },
        {
          "duration": 0.24242399999998554,
          "durationTicks": 320,
          "midi": 66,
          "name": "F#4",
          "ticks": 160160,
          "time": 121.33321200000002,
          "velocity": 0.7952755905511811
        },
        {
          "duration": 1.6969679999999983,
          "durationTicks": 2240,
          "midi": 54,
          "name": "F#3",
          "ticks": 160480,
          "time": 121.575636,
          "velocity": 0.7559055118110236
        },
        {
          "duration": 1.6969679999999983,
          "durationTicks": 2240,
          "midi": 66,
          "name": "F#4",
          "ticks": 160480,
          "time": 121.575636,
          "velocity": 0.8740157480314961
        },
        {
          "duration": 3.272724000000011,
          "durationTicks": 4320,
          "midi": 42,
          "name": "F#2",
          "ticks": 162720,
          "time": 123.272604,
          "velocity": 0.7874015748031497
        },
        {
          "duration": 0.24242400000001396,
          "durationTicks": 320,
          "midi": 49,
          "name": "C#3",
          "ticks": 163200,
          "time": 123.63624,
          "velocity": 0.49606299212598426
        },
        {
          "duration": 0.4848479999999995,
          "durationTicks": 640,
          "midi": 57,
          "name": "A3",
          "ticks": 163200,
          "time": 123.63624,
          "velocity": 0.47244094488188976
        },
        {
          "duration": 0.24242400000001396,
          "durationTicks": 320,
          "midi": 61,
          "name": "C#4",
          "ticks": 163200,
          "time": 123.63624,
          "velocity": 0.44881889763779526
        },
        {
          "duration": 0.24242399999998554,
          "durationTicks": 320,
          "midi": 49,
          "name": "C#3",
          "ticks": 163520,
          "time": 123.87866400000001,
          "velocity": 0.5354330708661418
        },
        {
          "duration": 0.24242399999998554,
          "durationTicks": 320,
          "midi": 61,
          "name": "C#4",
          "ticks": 163520,
          "time": 123.87866400000001,
          "velocity": 0.5984251968503937
        },
        {
          "duration": 0.24242399999999975,
          "durationTicks": 320,
          "midi": 51,
          "name": "D#3",
          "ticks": 163840,
          "time": 124.121088,
          "velocity": 0.5905511811023622
        },
        {
          "duration": 0.4848480000000137,
          "durationTicks": 640,
          "midi": 57,
          "name": "A3",
          "ticks": 163840,
          "time": 124.121088,
          "velocity": 0.5669291338582677
        },
        {
          "duration": 0.24242399999999975,
          "durationTicks": 320,
          "midi": 63,
          "name": "D#4",
          "ticks": 163840,
          "time": 124.121088,
          "velocity": 0.7007874015748031
        },
        {
          "duration": 0.24242400000001396,
          "durationTicks": 320,
          "midi": 51,
          "name": "D#3",
          "ticks": 164160,
          "time": 124.363512,
          "velocity": 0.6692913385826772
        },
        {
          "duration": 0.24242400000001396,
          "durationTicks": 320,
          "midi": 63,
          "name": "D#4",
          "ticks": 164160,
          "time": 124.363512,
          "velocity": 0.7874015748031497
        },
        {
          "duration": 0.24242399999998554,
          "durationTicks": 320,
          "midi": 52,
          "name": "E3",
          "ticks": 164480,
          "time": 124.60593600000001,
          "velocity": 0.7007874015748031
        },
        {
          "duration": 1.5757559999999842,
          "durationTicks": 2080,
          "midi": 57,
          "name": "A3",
          "ticks": 164480,
          "time": 124.60593600000001,
          "velocity": 0.6614173228346457
        },
        {
          "duration": 0.24242399999998554,
          "durationTicks": 320,
          "midi": 64,
          "name": "E4",
          "ticks": 164480,
          "time": 124.60593600000001,
          "velocity": 0.7874015748031497
        },
        {
          "duration": 1.3333319999999986,
          "durationTicks": 1760,
          "midi": 54,
          "name": "F#3",
          "ticks": 164800,
          "time": 124.84836,
          "velocity": 0.6614173228346457
        },
        {
          "duration": 1.3333319999999986,
          "durationTicks": 1760,
          "midi": 64,
          "name": "E4",
          "ticks": 164800,
          "time": 124.84836,
          "velocity": 0.7874015748031497
        },
        {
          "duration": 0.36363600000001384,
          "durationTicks": 480,
          "midi": 51,
          "name": "D#3",
          "ticks": 166560,
          "time": 126.181692,
          "velocity": 0.5984251968503937
        },
        {
          "duration": 0.36363600000001384,
          "durationTicks": 480,
          "midi": 63,
          "name": "D#4",
          "ticks": 166560,
          "time": 126.181692,
          "velocity": 0.7874015748031497
        },
        {
          "duration": 8.727263999999991,
          "durationTicks": 11520,
          "midi": 44,
          "name": "G#2",
          "ticks": 167040,
          "time": 126.54532800000001,
          "velocity": 0.7874015748031497
        },
        {
          "duration": 0.1818179999999927,
          "durationTicks": 240,
          "midi": 51,
          "name": "D#3",
          "ticks": 167040,
          "time": 126.54532800000001,
          "velocity": 0.6377952755905512
        },
        {
          "duration": 8.727263999999991,
          "durationTicks": 11520,
          "midi": 59,
          "name": "B3",
          "ticks": 167040,
          "time": 126.54532800000001,
          "velocity": 0.6614173228346457
        },
        {
          "duration": 0.1818179999999927,
          "durationTicks": 240,
          "midi": 63,
          "name": "D#4",
          "ticks": 167040,
          "time": 126.54532800000001,
          "velocity": 0.7874015748031497
        },
        {
          "duration": 0.18181800000000692,
          "durationTicks": 240,
          "midi": 54,
          "name": "F#3",
          "ticks": 167280,
          "time": 126.727146,
          "velocity": 0.6377952755905512
        },
        {
          "duration": 0.18181800000000692,
          "durationTicks": 240,
          "midi": 66,
          "name": "F#4",
          "ticks": 167280,
          "time": 126.727146,
          "velocity": 0.7874015748031497
        },
        {
          "duration": 8.363627999999991,
          "durationTicks": 11040,
          "midi": 51,
          "name": "D#3",
          "ticks": 167520,
          "time": 126.90896400000001,
          "velocity": 0.6377952755905512
        },
        {
          "duration": 8.363627999999991,
          "durationTicks": 11040,
          "midi": 63,
          "name": "D#4",
          "ticks": 167520,
          "time": 126.90896400000001,
          "velocity": 0.7874015748031497
        },
        {
          "duration": 0.5454540000000065,
          "durationTicks": 720,
          "midi": 68,
          "name": "G#4",
          "ticks": 169920,
          "time": 128.727144,
          "velocity": 0.3464566929133858
        },
        {
          "duration": 0.3636359999999854,
          "durationTicks": 480,
          "midi": 73,
          "name": "C#5",
          "ticks": 170640,
          "time": 129.27259800000002,
          "velocity": 0.4330708661417323
        },
        {
          "duration": 0.36363600000001384,
          "durationTicks": 480,
          "midi": 71,
          "name": "B4",
          "ticks": 171120,
          "time": 129.636234,
          "velocity": 0.5196850393700787
        },
        {
          "duration": 0.2727270000000033,
          "durationTicks": 360,
          "midi": 75,
          "name": "D#5",
          "ticks": 171600,
          "time": 129.99987000000002,
          "velocity": 0.5275590551181102
        },
        {
          "duration": 0.27272699999997485,
          "durationTicks": 360,
          "midi": 68,
          "name": "G#4",
          "ticks": 171960,
          "time": 130.27259700000002,
          "velocity": 0.5196850393700787
        },
        {
          "duration": 0.18181800000002113,
          "durationTicks": 240,
          "midi": 73,
          "name": "C#5",
          "ticks": 172320,
          "time": 130.545324,
          "velocity": 0.4645669291338583
        },
        {
          "duration": 0.1818179999999927,
          "durationTicks": 240,
          "midi": 71,
          "name": "B4",
          "ticks": 172560,
          "time": 130.72714200000001,
          "velocity": 0.5433070866141733
        },
        {
          "duration": 0.12121199999998566,
          "durationTicks": 160,
          "midi": 75,
          "name": "D#5",
          "ticks": 172800,
          "time": 130.90896,
          "velocity": 0.5590551181102362
        },
        {
          "duration": 0.12121200000001409,
          "durationTicks": 160,
          "midi": 68,
          "name": "G#4",
          "ticks": 172960,
          "time": 131.030172,
          "velocity": 0.5669291338582677
        },
        {
          "duration": 0.12121199999998566,
          "durationTicks": 160,
          "midi": 73,
          "name": "C#5",
          "ticks": 173120,
          "time": 131.151384,
          "velocity": 0.6062992125984252
        },
        {
          "duration": 0.12121200000001409,
          "durationTicks": 160,
          "midi": 71,
          "name": "B4",
          "ticks": 173280,
          "time": 131.272596,
          "velocity": 0.6062992125984252
        },
        {
          "duration": 0.12121200000001409,
          "durationTicks": 160,
          "midi": 75,
          "name": "D#5",
          "ticks": 173440,
          "time": 131.393808,
          "velocity": 0.5984251968503937
        },
        {
          "duration": 0.12121199999998566,
          "durationTicks": 160,
          "midi": 68,
          "name": "G#4",
          "ticks": 173600,
          "time": 131.51502000000002,
          "velocity": 0.5590551181102362
        },
        {
          "duration": 0.12121199999998566,
          "durationTicks": 160,
          "midi": 73,
          "name": "C#5",
          "ticks": 173760,
          "time": 131.636232,
          "velocity": 0.4645669291338583
        },
        {
          "duration": 0.12121200000001409,
          "durationTicks": 160,
          "midi": 71,
          "name": "B4",
          "ticks": 173920,
          "time": 131.757444,
          "velocity": 0.44881889763779526
        },
        {
          "duration": 0.12121199999998566,
          "durationTicks": 160,
          "midi": 75,
          "name": "D#5",
          "ticks": 174080,
          "time": 131.878656,
          "velocity": 0.44881889763779526
        },
        {
          "duration": 0.18181800000002113,
          "durationTicks": 240,
          "midi": 68,
          "name": "G#4",
          "ticks": 174240,
          "time": 131.999868,
          "velocity": 0.47244094488188976
        },
        {
          "duration": 0.1818179999999927,
          "durationTicks": 240,
          "midi": 73,
          "name": "C#5",
          "ticks": 174480,
          "time": 132.181686,
          "velocity": 0.4330708661417323
        },
        {
          "duration": 0.1818179999999927,
          "durationTicks": 240,
          "midi": 71,
          "name": "B4",
          "ticks": 174720,
          "time": 132.363504,
          "velocity": 0.4330708661417323
        },
        {
          "duration": 0.1818179999999927,
          "durationTicks": 240,
          "midi": 75,
          "name": "D#5",
          "ticks": 174960,
          "time": 132.545322,
          "velocity": 0.4251968503937008
        },
        {
          "duration": 0.24242400000002817,
          "durationTicks": 320,
          "midi": 68,
          "name": "G#4",
          "ticks": 175200,
          "time": 132.72714,
          "velocity": 0.3858267716535433
        },
        {
          "duration": 0.30302999999997837,
          "durationTicks": 400,
          "midi": 73,
          "name": "C#5",
          "ticks": 175520,
          "time": 132.96956400000002,
          "velocity": 0.4094488188976378
        },
        {
          "duration": 0.5454540000000065,
          "durationTicks": 720,
          "midi": 71,
          "name": "B4",
          "ticks": 175920,
          "time": 133.272594,
          "velocity": 0.3543307086614173
        },
        {
          "duration": 1.4545439999999985,
          "durationTicks": 1920,
          "midi": 75,
          "name": "D#5",
          "ticks": 176640,
          "time": 133.818048,
          "velocity": 0.3464566929133858
        }
      ],
      "endOfTrackTicks": 197760
    }
  ]
}