{
  "header": {
    "keySignatures": [
      {
        "key": "C",
        "scale": "major",
        "ticks": 0
      }
    ],
    "meta": [],
    "name": "冨田恵一 - falling",
    "ppq": 480,
    "tempos": [
      {
        "bpm": 104.99992125005906,
        "ticks": 0
      }
    ],
    "timeSignatures": [
      {
        "ticks": 0,
        "timeSignature": [
          4,
          4
        ],
        "measures": 0
      }
    ]
  },
  "tracks": [
    {
      "channel": 0,
      "controlChanges": {},
      "pitchBends": [],
      "instrument": {
        "family": "piano",
        "number": 0,
        "name": "acoustic grand piano"
      },
      "name": "冨田恵一 - falling",
      "notes": [],
      "endOfTrackTicks": 276480
    },
    {
      "channel": 0,
      "controlChanges": {},
      "pitchBends": [],
      "instrument": {
        "family": "piano",
        "number": 1,
        "name": "acoustic grand piano"
      },
      "name": "",
      "notes": [
        {
          "duration": 0.2857145,
          "durationTicks": 240,
          "midi": 50,
          "name": "D3",
          "ticks": 0,
          "time": 0,
          "velocity": 0.47244094488188976
        },
        {
          "duration": 0.2857145,
          "durationTicks": 240,
          "midi": 58,
          "name": "A#3",
          "ticks": 240,
          "time": 0.2857145,
          "velocity": 0.2677165354330709
        },
        {
          "duration": 0.2857145,
          "durationTicks": 240,
          "midi": 60,
          "name": "C4",
          "ticks": 480,
          "time": 0.571429,
          "velocity": 0.2204724409448819
        },
        {
          "duration": 0.5714290000000001,
          "durationTicks": 480,
          "midi": 65,
          "name": "F4",
          "ticks": 720,
          "time": 0.8571435,
          "velocity": 0.3700787401574803
        },
        {
          "duration": 0.5714290000000001,
          "durationTicks": 480,
          "midi": 69,
          "name": "A4",
          "ticks": 720,
          "time": 0.8571435,
          "velocity": 0.33070866141732286
        },
        {
          "duration": 0.26190495833333327,
          "durationTicks": 220,
          "midi": 58,
          "name": "A#3",
          "ticks": 1200,
          "time": 1.4285725,
          "velocity": 0.31496062992125984
        },
        {
          "duration": 0.2619049583333335,
          "durationTicks": 220,
          "midi": 60,
          "name": "C4",
          "ticks": 1440,
          "time": 1.714287,
          "velocity": 0.29133858267716534
        },
        {
          "duration": 0.2619049583333335,
          "durationTicks": 220,
          "midi": 65,
          "name": "F4",
          "ticks": 1680,
          "time": 2.0000014999999998,
          "velocity": 0.3700787401574803
        },
        {
          "duration": 0.2619049583333335,
          "durationTicks": 220,
          "midi": 69,
          "name": "A4",
          "ticks": 1680,
          "time": 2.0000014999999998,
          "velocity": 0.2992125984251969
        },
        {
          "duration": 0.3095240416666667,
          "durationTicks": 260,
          "midi": 50,
          "name": "D3",
          "ticks": 1920,
          "time": 2.285716,
          "velocity": 0.4094488188976378
        },
        {
          "duration": 0.2857145000000001,
          "durationTicks": 240,
          "midi": 58,
          "name": "A#3",
          "ticks": 2160,
          "time": 2.5714305,
          "velocity": 0.2992125984251969
        },
        {
          "duration": 0.28571449999999965,
          "durationTicks": 240,
          "midi": 60,
          "name": "C4",
          "ticks": 2400,
          "time": 2.857145,
          "velocity": 0.25196850393700787
        },
        {
          "duration": 0.2857145000000001,
          "durationTicks": 240,
          "midi": 65,
          "name": "F4",
          "ticks": 2640,
          "time": 3.1428594999999997,
          "velocity": 0.41732283464566927
        },
        {
          "duration": 0.2857145000000001,
          "durationTicks": 240,
          "midi": 69,
          "name": "A4",
          "ticks": 2640,
          "time": 3.1428594999999997,
          "velocity": 0.29133858267716534
        },
        {
          "duration": 0.2857145000000001,
          "durationTicks": 240,
          "midi": 77,
          "name": "F5",
          "ticks": 2880,
          "time": 3.428574,
          "velocity": 0.3937007874015748
        },
        {
          "duration": 0.28571449999999965,
          "durationTicks": 240,
          "midi": 58,
          "name": "A#3",
          "ticks": 3120,
          "time": 3.7142885,
          "velocity": 0.31496062992125984
        },
        {
          "duration": 0.2857145000000001,
          "durationTicks": 240,
          "midi": 60,
          "name": "C4",
          "ticks": 3360,
          "time": 4.0000029999999995,
          "velocity": 0.29133858267716534
        },
        {
          "duration": 0.2857145000000001,
          "durationTicks": 240,
          "midi": 81,
          "name": "A5",
          "ticks": 3360,
          "time": 4.0000029999999995,
          "velocity": 0.4330708661417323
        },
        {
          "duration": 0.2857145000000001,
          "durationTicks": 240,
          "midi": 65,
          "name": "F4",
          "ticks": 3600,
          "time": 4.2857175,
          "velocity": 0.3464566929133858
        },
        {
          "duration": 0.3333335833333342,
          "durationTicks": 280,
          "midi": 69,
          "name": "A4",
          "ticks": 3600,
          "time": 4.2857175,
          "velocity": 0.3858267716535433
        },
        {
          "duration": 0.2857145000000001,
          "durationTicks": 240,
          "midi": 89,
          "name": "F6",
          "ticks": 3600,
          "time": 4.2857175,
          "velocity": 0.2677165354330709
        },
        {
          "duration": 0.2857145000000001,
          "durationTicks": 240,
          "midi": 52,
          "name": "E3",
          "ticks": 3840,
          "time": 4.571432,
          "velocity": 0.5984251968503937
        },
        {
          "duration": 0.2857145000000001,
          "durationTicks": 240,
          "midi": 67,
          "name": "G4",
          "ticks": 3840,
          "time": 4.571432,
          "velocity": 0.3228346456692913
        },
        {
          "duration": 0.2857145000000001,
          "durationTicks": 240,
          "midi": 83,
          "name": "B5",
          "ticks": 3840,
          "time": 4.571432,
          "velocity": 0.4330708661417323
        },
        {
          "duration": 0.26190495833333394,
          "durationTicks": 220,
          "midi": 60,
          "name": "C4",
          "ticks": 4080,
          "time": 4.8571465,
          "velocity": 0.3700787401574803
        },
        {
          "duration": 0.2857145000000001,
          "durationTicks": 240,
          "midi": 62,
          "name": "D4",
          "ticks": 4320,
          "time": 5.142861,
          "velocity": 0.31496062992125984
        },
        {
          "duration": 0.5476194583333331,
          "durationTicks": 460,
          "midi": 67,
          "name": "G4",
          "ticks": 4560,
          "time": 5.4285755,
          "velocity": 0.7165354330708661
        },
        {
          "duration": 0.5476194583333331,
          "durationTicks": 460,
          "midi": 71,
          "name": "B4",
          "ticks": 4560,
          "time": 5.4285755,
          "velocity": 0.2047244094488189
        },
        {
          "duration": 0.5476194583333331,
          "durationTicks": 460,
          "midi": 76,
          "name": "E5",
          "ticks": 4560,
          "time": 5.4285755,
          "velocity": 0.2992125984251969
        },
        {
          "duration": 0.2857145000000001,
          "durationTicks": 240,
          "midi": 59,
          "name": "B3",
          "ticks": 5040,
          "time": 6.000004499999999,
          "velocity": 0.2204724409448819
        },
        {
          "duration": 0.2857145000000001,
          "durationTicks": 240,
          "midi": 60,
          "name": "C4",
          "ticks": 5040,
          "time": 6.000004499999999,
          "velocity": 0.31496062992125984
        },
        {
          "duration": 0.30952404166666625,
          "durationTicks": 260,
          "midi": 62,
          "name": "D4",
          "ticks": 5280,
          "time": 6.285718999999999,
          "velocity": 0.33070866141732286
        },
        {
          "duration": 0.30952404166666625,
          "durationTicks": 260,
          "midi": 59,
          "name": "B3",
          "ticks": 5520,
          "time": 6.5714334999999995,
          "velocity": 0.2440944881889764
        },
        {
          "duration": 0.30952404166666625,
          "durationTicks": 260,
          "midi": 67,
          "name": "G4",
          "ticks": 5520,
          "time": 6.5714334999999995,
          "velocity": 0.6850393700787402
        },
        {
          "duration": 0.2857145000000001,
          "durationTicks": 240,
          "midi": 52,
          "name": "E3",
          "ticks": 5760,
          "time": 6.857148,
          "velocity": 0.5196850393700787
        },
        {
          "duration": 0.2857145000000001,
          "durationTicks": 240,
          "midi": 60,
          "name": "C4",
          "ticks": 6000,
          "time": 7.1428625,
          "velocity": 0.4094488188976378
        },
        {
          "duration": 0.2857145000000001,
          "durationTicks": 240,
          "midi": 62,
          "name": "D4",
          "ticks": 6240,
          "time": 7.428577,
          "velocity": 0.30708661417322836
        },
        {
          "duration": 0.5476194583333331,
          "durationTicks": 460,
          "midi": 57,
          "name": "A3",
          "ticks": 6480,
          "time": 7.7142915,
          "velocity": 0.2204724409448819
        },
        {
          "duration": 0.5476194583333331,
          "durationTicks": 460,
          "midi": 60,
          "name": "C4",
          "ticks": 6480,
          "time": 7.7142915,
          "velocity": 0.30708661417322836
        },
        {
          "duration": 0.5476194583333331,
          "durationTicks": 460,
          "midi": 62,
          "name": "D4",
          "ticks": 6480,
          "time": 7.7142915,
          "velocity": 0.23622047244094488
        },
        {
          "duration": 0.5476194583333331,
          "durationTicks": 460,
          "midi": 67,
          "name": "G4",
          "ticks": 6480,
          "time": 7.7142915,
          "velocity": 0.6614173228346457
        },
        {
          "duration": 0.5476194583333331,
          "durationTicks": 460,
          "midi": 71,
          "name": "B4",
          "ticks": 6480,
          "time": 7.7142915,
          "velocity": 0.1889763779527559
        },
        {
          "duration": 0.2857144999999992,
          "durationTicks": 240,
          "midi": 60,
          "name": "C4",
          "ticks": 6960,
          "time": 8.2857205,
          "velocity": 0.29133858267716534
        },
        {
          "duration": 0.26190495833333394,
          "durationTicks": 220,
          "midi": 40,
          "name": "E2",
          "ticks": 7200,
          "time": 8.571435,
          "velocity": 0.47244094488188976
        },
        {
          "duration": 0.26190495833333394,
          "durationTicks": 220,
          "midi": 62,
          "name": "D4",
          "ticks": 7200,
          "time": 8.571435,
          "velocity": 0.33070866141732286
        },
        {
          "duration": 0.26190495833333394,
          "durationTicks": 220,
          "midi": 71,
          "name": "B4",
          "ticks": 7200,
          "time": 8.571435,
          "velocity": 0.3700787401574803
        },
        {
          "duration": 0.26190495833333394,
          "durationTicks": 220,
          "midi": 83,
          "name": "B5",
          "ticks": 7200,
          "time": 8.571435,
          "velocity": 0.3700787401574803
        },
        {
          "duration": 0.11904770833333345,
          "durationTicks": 100,
          "midi": 67,
          "name": "G4",
          "ticks": 7440,
          "time": 8.8571495,
          "velocity": 0.5905511811023622
        },
        {
          "duration": 0.11904770833333345,
          "durationTicks": 100,
          "midi": 71,
          "name": "B4",
          "ticks": 7440,
          "time": 8.8571495,
          "velocity": 0.30708661417322836
        },
        {
          "duration": 0.11904770833333345,
          "durationTicks": 100,
          "midi": 83,
          "name": "B5",
          "ticks": 7560,
          "time": 9.000006749999999,
          "velocity": 0.3228346456692913
        },
        {
          "duration": 0.2857144999999992,
          "durationTicks": 240,
          "midi": 41,
          "name": "F2",
          "ticks": 7680,
          "time": 9.142864,
          "velocity": 0.5039370078740157
        },
        {
          "duration": 0.2857144999999992,
          "durationTicks": 240,
          "midi": 53,
          "name": "F3",
          "ticks": 7680,
          "time": 9.142864,
          "velocity": 0.5039370078740157
        },
        {
          "duration": 0.2857144999999992,
          "durationTicks": 240,
          "midi": 61,
          "name": "C#4",
          "ticks": 7680,
          "time": 9.142864,
          "velocity": 0.1732283464566929
        },
        {
          "duration": 0.2857144999999992,
          "durationTicks": 240,
          "midi": 63,
          "name": "D#4",
          "ticks": 7680,
          "time": 9.142864,
          "velocity": 0.1732283464566929
        },
        {
          "duration": 0.2857144999999992,
          "durationTicks": 240,
          "midi": 68,
          "name": "G#4",
          "ticks": 7680,
          "time": 9.142864,
          "velocity": 0.2283464566929134
        },
        {
          "duration": 0.2857144999999992,
          "durationTicks": 240,
          "midi": 84,
          "name": "C6",
          "ticks": 7680,
          "time": 9.142864,
          "velocity": 0.33070866141732286
        },
        {
          "duration": 0.309524041666668,
          "durationTicks": 260,
          "midi": 61,
          "name": "C#4",
          "ticks": 7920,
          "time": 9.428578499999999,
          "velocity": 0.2440944881889764
        },
        {
          "duration": 0.2857144999999992,
          "durationTicks": 240,
          "midi": 63,
          "name": "D#4",
          "ticks": 8160,
          "time": 9.714293,
          "velocity": 0.28346456692913385
        },
        {
          "duration": 0.26190495833333394,
          "durationTicks": 220,
          "midi": 68,
          "name": "G#4",
          "ticks": 8400,
          "time": 10.000007499999999,
          "velocity": 0.2755905511811024
        },
        {
          "duration": 0.26190495833333394,
          "durationTicks": 220,
          "midi": 72,
          "name": "C5",
          "ticks": 8400,
          "time": 10.000007499999999,
          "velocity": 0.28346456692913385
        },
        {
          "duration": 0.2857144999999992,
          "durationTicks": 240,
          "midi": 56,
          "name": "G#3",
          "ticks": 8640,
          "time": 10.285722,
          "velocity": 0.2283464566929134
        },
        {
          "duration": 0.2857144999999992,
          "durationTicks": 240,
          "midi": 61,
          "name": "C#4",
          "ticks": 8640,
          "time": 10.285722,
          "velocity": 0.23622047244094488
        },
        {
          "duration": 0.285714500000001,
          "durationTicks": 240,
          "midi": 53,
          "name": "F3",
          "ticks": 8880,
          "time": 10.571436499999999,
          "velocity": 0.3464566929133858
        },
        {
          "duration": 0.285714500000001,
          "durationTicks": 240,
          "midi": 61,
          "name": "C#4",
          "ticks": 8880,
          "time": 10.571436499999999,
          "velocity": 0.3464566929133858
        },
        {
          "duration": 0.285714500000001,
          "durationTicks": 240,
          "midi": 63,
          "name": "D#4",
          "ticks": 8880,
          "time": 10.571436499999999,
          "velocity": 0.2125984251968504
        },
        {
          "duration": 0.285714500000001,
          "durationTicks": 240,
          "midi": 68,
          "name": "G#4",
          "ticks": 8880,
          "time": 10.571436499999999,
          "velocity": 0.2204724409448819
        },
        {
          "duration": 0.285714500000001,
          "durationTicks": 240,
          "midi": 82,
          "name": "A#5",
          "ticks": 8880,
          "time": 10.571436499999999,
          "velocity": 0.3858267716535433
        },
        {
          "duration": 0.14285724999999871,
          "durationTicks": 120,
          "midi": 61,
          "name": "C#4",
          "ticks": 9120,
          "time": 10.857151,
          "velocity": 0.33858267716535434
        },
        {
          "duration": 0.14285724999999871,
          "durationTicks": 120,
          "midi": 63,
          "name": "D#4",
          "ticks": 9120,
          "time": 10.857151,
          "velocity": 0.2204724409448819
        },
        {
          "duration": 0.14285724999999871,
          "durationTicks": 120,
          "midi": 65,
          "name": "F4",
          "ticks": 9120,
          "time": 10.857151,
          "velocity": 0.30708661417322836
        },
        {
          "duration": 0.14285724999999871,
          "durationTicks": 120,
          "midi": 68,
          "name": "G#4",
          "ticks": 9120,
          "time": 10.857151,
          "velocity": 0.25984251968503935
        },
        {
          "duration": 0.40476220833333265,
          "durationTicks": 340,
          "midi": 80,
          "name": "G#5",
          "ticks": 9240,
          "time": 11.000008249999999,
          "velocity": 0.36220472440944884
        },
        {
          "duration": 0.2857144999999992,
          "durationTicks": 240,
          "midi": 34,
          "name": "A#1",
          "ticks": 9600,
          "time": 11.42858,
          "velocity": 0.5354330708661418
        },
        {
          "duration": 0.2857144999999992,
          "durationTicks": 240,
          "midi": 46,
          "name": "A#2",
          "ticks": 9600,
          "time": 11.42858,
          "velocity": 0.5354330708661418
        },
        {
          "duration": 0.2857144999999992,
          "durationTicks": 240,
          "midi": 55,
          "name": "G3",
          "ticks": 9600,
          "time": 11.42858,
          "velocity": 0.1968503937007874
        },
        {
          "duration": 0.2857144999999992,
          "durationTicks": 240,
          "midi": 60,
          "name": "C4",
          "ticks": 9600,
          "time": 11.42858,
          "velocity": 0.1732283464566929
        },
        {
          "duration": 0.2857144999999992,
          "durationTicks": 240,
          "midi": 65,
          "name": "F4",
          "ticks": 9600,
          "time": 11.42858,
          "velocity": 0.29133858267716534
        },
        {
          "duration": 0.2857144999999992,
          "durationTicks": 240,
          "midi": 81,
          "name": "A5",
          "ticks": 9600,
          "time": 11.42858,
          "velocity": 0.3858267716535433
        },
        {
          "duration": 0.26190495833333216,
          "durationTicks": 220,
          "midi": 55,
          "name": "G3",
          "ticks": 9840,
          "time": 11.7142945,
          "velocity": 0.3937007874015748
        },
        {
          "duration": 0.26190495833333394,
          "durationTicks": 220,
          "midi": 60,
          "name": "C4",
          "ticks": 10080,
          "time": 12.000008999999999,
          "velocity": 0.2440944881889764
        },
        {
          "duration": 0.5952385416666672,
          "durationTicks": 500,
          "midi": 65,
          "name": "F4",
          "ticks": 10320,
          "time": 12.2857235,
          "velocity": 0.4015748031496063
        },
        {
          "duration": 0.5952385416666672,
          "durationTicks": 500,
          "midi": 69,
          "name": "A4",
          "ticks": 10320,
          "time": 12.2857235,
          "velocity": 0.30708661417322836
        },
        {
          "duration": 0.3333335833333315,
          "durationTicks": 280,
          "midi": 46,
          "name": "A#2",
          "ticks": 10800,
          "time": 12.8571525,
          "velocity": 0.4566929133858268
        },
        {
          "duration": 0.285714500000001,
          "durationTicks": 240,
          "midi": 65,
          "name": "F4",
          "ticks": 11040,
          "time": 13.142866999999999,
          "velocity": 0.33070866141732286
        },
        {
          "duration": 0.285714500000001,
          "durationTicks": 240,
          "midi": 69,
          "name": "A4",
          "ticks": 11040,
          "time": 13.142866999999999,
          "velocity": 0.30708661417322836
        },
        {
          "duration": 0.14285724999999871,
          "durationTicks": 120,
          "midi": 36,
          "name": "C2",
          "ticks": 11280,
          "time": 13.4285815,
          "velocity": 0.30708661417322836
        },
        {
          "duration": 0.19047633333333103,
          "durationTicks": 160,
          "midi": 46,
          "name": "A#2",
          "ticks": 11280,
          "time": 13.4285815,
          "velocity": 0.4251968503937008
        },
        {
          "duration": 0.16666679166666754,
          "durationTicks": 140,
          "midi": 38,
          "name": "D2",
          "ticks": 11400,
          "time": 13.571438749999999,
          "velocity": 0.3228346456692913
        },
        {
          "duration": 0.2857144999999992,
          "durationTicks": 240,
          "midi": 39,
          "name": "D#2",
          "ticks": 11520,
          "time": 13.714296,
          "velocity": 0.47244094488188976
        },
        {
          "duration": 0.2857144999999992,
          "durationTicks": 240,
          "midi": 51,
          "name": "D#3",
          "ticks": 11520,
          "time": 13.714296,
          "velocity": 0.36220472440944884
        },
        {
          "duration": 0.2857144999999992,
          "durationTicks": 240,
          "midi": 65,
          "name": "F4",
          "ticks": 11520,
          "time": 13.714296,
          "velocity": 0.2755905511811024
        },
        {
          "duration": 0.2857144999999992,
          "durationTicks": 240,
          "midi": 66,
          "name": "F#4",
          "ticks": 11520,
          "time": 13.714296,
          "velocity": 0.2047244094488189
        },
        {
          "duration": 0.2857144999999992,
          "durationTicks": 240,
          "midi": 70,
          "name": "A#4",
          "ticks": 11520,
          "time": 13.714296,
          "velocity": 0.4094488188976378
        },
        {
          "duration": 0.2857144999999992,
          "durationTicks": 240,
          "midi": 82,
          "name": "A#5",
          "ticks": 11520,
          "time": 13.714296,
          "velocity": 0.4094488188976378
        },
        {
          "duration": 0.285714500000001,
          "durationTicks": 240,
          "midi": 58,
          "name": "A#3",
          "ticks": 11760,
          "time": 14.000010499999998,
          "velocity": 0.29133858267716534
        },
        {
          "duration": 0.2857144999999992,
          "durationTicks": 240,
          "midi": 61,
          "name": "C#4",
          "ticks": 12000,
          "time": 14.285725,
          "velocity": 0.2992125984251969
        },
        {
          "duration": 0.2857144999999992,
          "durationTicks": 240,
          "midi": 89,
          "name": "F6",
          "ticks": 12000,
          "time": 14.285725,
          "velocity": 0.25196850393700787
        },
        {
          "duration": 0.285714500000001,
          "durationTicks": 240,
          "midi": 66,
          "name": "F#4",
          "ticks": 12240,
          "time": 14.571439499999999,
          "velocity": 0.4566929133858268
        },
        {
          "duration": 0.26190495833333216,
          "durationTicks": 220,
          "midi": 70,
          "name": "A#4",
          "ticks": 12480,
          "time": 14.857154,
          "velocity": 0.4566929133858268
        },
        {
          "duration": 0.309524041666668,
          "durationTicks": 260,
          "midi": 66,
          "name": "F#4",
          "ticks": 12720,
          "time": 15.142868499999999,
          "velocity": 0.4645669291338583
        },
        {
          "duration": 0.26190495833333216,
          "durationTicks": 220,
          "midi": 78,
          "name": "F#5",
          "ticks": 12720,
          "time": 15.142868499999999,
          "velocity": 0.3700787401574803
        },
        {
          "duration": 0.2857144999999992,
          "durationTicks": 240,
          "midi": 54,
          "name": "F#3",
          "ticks": 12960,
          "time": 15.428583,
          "velocity": 0.36220472440944884
        },
        {
          "duration": 0.3333335833333315,
          "durationTicks": 280,
          "midi": 58,
          "name": "A#3",
          "ticks": 12960,
          "time": 15.428583,
          "velocity": 0.2440944881889764
        },
        {
          "duration": 0.2857144999999992,
          "durationTicks": 240,
          "midi": 61,
          "name": "C#4",
          "ticks": 12960,
          "time": 15.428583,
          "velocity": 0.3464566929133858
        },
        {
          "duration": 0.309524041666668,
          "durationTicks": 260,
          "midi": 58,
          "name": "A#3",
          "ticks": 13200,
          "time": 15.714297499999999,
          "velocity": 0.3779527559055118
        },
        {
          "duration": 0.309524041666668,
          "durationTicks": 260,
          "midi": 70,
          "name": "A#4",
          "ticks": 13200,
          "time": 15.714297499999999,
          "velocity": 0.3779527559055118
        },
        {
          "duration": 0.21428587499999807,
          "durationTicks": 180,
          "midi": 54,
          "name": "F#3",
          "ticks": 13320,
          "time": 15.85715475,
          "velocity": 0.30708661417322836
        },
        {
          "duration": 0.26190495833333216,
          "durationTicks": 220,
          "midi": 32,
          "name": "G#1",
          "ticks": 13440,
          "time": 16.000011999999998,
          "velocity": 0.5826771653543307
        },
        {
          "duration": 0.26190495833333216,
          "durationTicks": 220,
          "midi": 41,
          "name": "F2",
          "ticks": 13440,
          "time": 16.000011999999998,
          "velocity": 0.2755905511811024
        },
        {
          "duration": 0.26190495833333216,
          "durationTicks": 220,
          "midi": 53,
          "name": "F3",
          "ticks": 13440,
          "time": 16.000011999999998,
          "velocity": 0.2125984251968504
        },
        {
          "duration": 0.26190495833333216,
          "durationTicks": 220,
          "midi": 77,
          "name": "F5",
          "ticks": 13440,
          "time": 16.000011999999998,
          "velocity": 0.33070866141732286
        },
        {
          "duration": 0.14285724999999871,
          "durationTicks": 120,
          "midi": 54,
          "name": "F#3",
          "ticks": 13680,
          "time": 16.2857265,
          "velocity": 0.2992125984251969
        },
        {
          "duration": 0.14285724999999871,
          "durationTicks": 120,
          "midi": 58,
          "name": "A#3",
          "ticks": 13680,
          "time": 16.2857265,
          "velocity": 0.23622047244094488
        },
        {
          "duration": 0.16666679166666754,
          "durationTicks": 140,
          "midi": 78,
          "name": "F#5",
          "ticks": 13800,
          "time": 16.428583749999998,
          "velocity": 0.25196850393700787
        },
        {
          "duration": 0.09523816666666818,
          "durationTicks": 80,
          "midi": 79,
          "name": "G5",
          "ticks": 13800,
          "time": 16.428583749999998,
          "velocity": 0.2440944881889764
        },
        {
          "duration": 0.1190477083333299,
          "durationTicks": 100,
          "midi": 58,
          "name": "A#3",
          "ticks": 13920,
          "time": 16.571441,
          "velocity": 0.33070866141732286
        },
        {
          "duration": 0.1190477083333299,
          "durationTicks": 100,
          "midi": 61,
          "name": "C#4",
          "ticks": 13920,
          "time": 16.571441,
          "velocity": 0.29133858267716534
        },
        {
          "duration": 0.09523816666666463,
          "durationTicks": 80,
          "midi": 80,
          "name": "G#5",
          "ticks": 13920,
          "time": 16.571441,
          "velocity": 0.3228346456692913
        },
        {
          "duration": 0.40476220833333443,
          "durationTicks": 340,
          "midi": 59,
          "name": "B3",
          "ticks": 14040,
          "time": 16.71429825,
          "velocity": 0.2125984251968504
        },
        {
          "duration": 3.1428595,
          "durationTicks": 2640,
          "midi": 44,
          "name": "G#2",
          "ticks": 14400,
          "time": 17.14287,
          "velocity": 0.4881889763779528
        },
        {
          "duration": 3.1666690416666654,
          "durationTicks": 2660,
          "midi": 54,
          "name": "F#3",
          "ticks": 14400,
          "time": 17.14287,
          "velocity": 0.2755905511811024
        },
        {
          "duration": 3.1666690416666654,
          "durationTicks": 2660,
          "midi": 57,
          "name": "A3",
          "ticks": 14400,
          "time": 17.14287,
          "velocity": 0.2125984251968504
        },
        {
          "duration": 3.1428595,
          "durationTicks": 2640,
          "midi": 60,
          "name": "C4",
          "ticks": 14400,
          "time": 17.14287,
          "velocity": 0.23622047244094488
        },
        {
          "duration": 3.095240416666666,
          "durationTicks": 2600,
          "midi": 64,
          "name": "E4",
          "ticks": 14400,
          "time": 17.14287,
          "velocity": 0.3543307086614173
        },
        {
          "duration": 3.095240416666666,
          "durationTicks": 2600,
          "midi": 76,
          "name": "E5",
          "ticks": 14400,
          "time": 17.14287,
          "velocity": 0.2677165354330709
        },
        {
          "duration": 0.21428587500000162,
          "durationTicks": 180,
          "midi": 64,
          "name": "E4",
          "ticks": 17040,
          "time": 20.2857295,
          "velocity": 0.25984251968503935
        },
        {
          "duration": 0.14285724999999871,
          "durationTicks": 120,
          "midi": 68,
          "name": "G#4",
          "ticks": 17040,
          "time": 20.2857295,
          "velocity": 0.25984251968503935
        },
        {
          "duration": 0.09523816666666818,
          "durationTicks": 80,
          "midi": 59,
          "name": "B3",
          "ticks": 17160,
          "time": 20.428586749999997,
          "velocity": 0.25984251968503935
        },
        {
          "duration": 0.16666679166666754,
          "durationTicks": 140,
          "midi": 61,
          "name": "C#4",
          "ticks": 17160,
          "time": 20.428586749999997,
          "velocity": 0.2440944881889764
        },
        {
          "duration": 0.26190495833333216,
          "durationTicks": 220,
          "midi": 49,
          "name": "C#3",
          "ticks": 17280,
          "time": 20.571444,
          "velocity": 0.48031496062992124
        },
        {
          "duration": 0.33333358333333507,
          "durationTicks": 280,
          "midi": 57,
          "name": "A3",
          "ticks": 17280,
          "time": 20.571444,
          "velocity": 0.2440944881889764
        },
        {
          "duration": 0.2619049583333357,
          "durationTicks": 220,
          "midi": 57,
          "name": "A3",
          "ticks": 17520,
          "time": 20.857158499999997,
          "velocity": 0.33070866141732286
        },
        {
          "duration": 0.2619049583333357,
          "durationTicks": 220,
          "midi": 69,
          "name": "A4",
          "ticks": 17520,
          "time": 20.857158499999997,
          "velocity": 0.33070866141732286
        },
        {
          "duration": 0.285714500000001,
          "durationTicks": 240,
          "midi": 64,
          "name": "E4",
          "ticks": 17760,
          "time": 21.142872999999998,
          "velocity": 0.2125984251968504
        },
        {
          "duration": 0.30952404166666625,
          "durationTicks": 260,
          "midi": 68,
          "name": "G#4",
          "ticks": 18000,
          "time": 21.4285875,
          "velocity": 0.2992125984251969
        },
        {
          "duration": 0.26190495833333216,
          "durationTicks": 220,
          "midi": 69,
          "name": "A4",
          "ticks": 18240,
          "time": 21.714302,
          "velocity": 0.5590551181102362
        },
        {
          "duration": 0.26190495833333216,
          "durationTicks": 220,
          "midi": 81,
          "name": "A5",
          "ticks": 18240,
          "time": 21.714302,
          "velocity": 0.5590551181102362
        },
        {
          "duration": 0.14285725000000227,
          "durationTicks": 120,
          "midi": 57,
          "name": "A3",
          "ticks": 18480,
          "time": 22.000016499999997,
          "velocity": 0.4566929133858268
        },
        {
          "duration": 0.1904763333333328,
          "durationTicks": 160,
          "midi": 71,
          "name": "B4",
          "ticks": 18600,
          "time": 22.14287375,
          "velocity": 0.5433070866141733
        },
        {
          "duration": 0.2619049583333357,
          "durationTicks": 220,
          "midi": 64,
          "name": "E4",
          "ticks": 18720,
          "time": 22.285731,
          "velocity": 0.2440944881889764
        },
        {
          "duration": 0.26190495833333216,
          "durationTicks": 220,
          "midi": 59,
          "name": "B3",
          "ticks": 18960,
          "time": 22.5714455,
          "velocity": 0.25984251968503935
        },
        {
          "duration": 0.26190495833333216,
          "durationTicks": 220,
          "midi": 68,
          "name": "G#4",
          "ticks": 18960,
          "time": 22.5714455,
          "velocity": 0.2204724409448819
        },
        {
          "duration": 0.3095240416666627,
          "durationTicks": 260,
          "midi": 49,
          "name": "C#3",
          "ticks": 19200,
          "time": 22.85716,
          "velocity": 0.3464566929133858
        },
        {
          "duration": 0.16666679166666754,
          "durationTicks": 140,
          "midi": 57,
          "name": "A3",
          "ticks": 19440,
          "time": 23.142874499999998,
          "velocity": 0.33858267716535434
        },
        {
          "duration": 0.14285724999999871,
          "durationTicks": 120,
          "midi": 69,
          "name": "A4",
          "ticks": 19560,
          "time": 23.28573175,
          "velocity": 0.5118110236220472
        },
        {
          "duration": 0.285714500000001,
          "durationTicks": 240,
          "midi": 64,
          "name": "E4",
          "ticks": 19680,
          "time": 23.428589,
          "velocity": 0.2283464566929134
        },
        {
          "duration": 0.5476194583333331,
          "durationTicks": 460,
          "midi": 67,
          "name": "G4",
          "ticks": 19920,
          "time": 23.7143035,
          "velocity": 0.44881889763779526
        },
        {
          "duration": 0.5476194583333331,
          "durationTicks": 460,
          "midi": 68,
          "name": "G#4",
          "ticks": 19920,
          "time": 23.7143035,
          "velocity": 0.3779527559055118
        },
        {
          "duration": 0.30952404166666625,
          "durationTicks": 260,
          "midi": 57,
          "name": "A3",
          "ticks": 20400,
          "time": 24.285732499999998,
          "velocity": 0.49606299212598426
        },
        {
          "duration": 0.21428587500000162,
          "durationTicks": 180,
          "midi": 69,
          "name": "A4",
          "ticks": 20520,
          "time": 24.428589749999997,
          "velocity": 0.6692913385826772
        },
        {
          "duration": 0.5714289999999984,
          "durationTicks": 480,
          "midi": 64,
          "name": "E4",
          "ticks": 20640,
          "time": 24.571447,
          "velocity": 0.2440944881889764
        },
        {
          "duration": 0.285714500000001,
          "durationTicks": 240,
          "midi": 48,
          "name": "C3",
          "ticks": 21120,
          "time": 25.142875999999998,
          "velocity": 0.3464566929133858
        },
        {
          "duration": 0.2619049583333357,
          "durationTicks": 220,
          "midi": 54,
          "name": "F#3",
          "ticks": 21360,
          "time": 25.4285905,
          "velocity": 0.2283464566929134
        },
        {
          "duration": 0.2380954166666669,
          "durationTicks": 200,
          "midi": 64,
          "name": "E4",
          "ticks": 21360,
          "time": 25.4285905,
          "velocity": 0.2992125984251969
        },
        {
          "duration": 0.28571449999999743,
          "durationTicks": 240,
          "midi": 57,
          "name": "A3",
          "ticks": 21600,
          "time": 25.714305,
          "velocity": 0.3700787401574803
        },
        {
          "duration": 0.28571449999999743,
          "durationTicks": 240,
          "midi": 63,
          "name": "D#4",
          "ticks": 21600,
          "time": 25.714305,
          "velocity": 0.4094488188976378
        },
        {
          "duration": 0.30952404166666625,
          "durationTicks": 260,
          "midi": 64,
          "name": "E4",
          "ticks": 21840,
          "time": 26.000019499999997,
          "velocity": 0.31496062992125984
        },
        {
          "duration": 0.2619049583333357,
          "durationTicks": 220,
          "midi": 57,
          "name": "A3",
          "ticks": 22080,
          "time": 26.285733999999998,
          "velocity": 0.29133858267716534
        },
        {
          "duration": 0.285714500000001,
          "durationTicks": 240,
          "midi": 57,
          "name": "A3",
          "ticks": 22320,
          "time": 26.5714485,
          "velocity": 0.41732283464566927
        },
        {
          "duration": 0.28571449999999743,
          "durationTicks": 240,
          "midi": 64,
          "name": "E4",
          "ticks": 22560,
          "time": 26.857163,
          "velocity": 0.2677165354330709
        },
        {
          "duration": 0.09523816666666463,
          "durationTicks": 80,
          "midi": 58,
          "name": "A#3",
          "ticks": 22800,
          "time": 27.142877499999997,
          "velocity": 0.2992125984251969
        },
        {
          "duration": 0.14285725000000227,
          "durationTicks": 120,
          "midi": 66,
          "name": "F#4",
          "ticks": 22800,
          "time": 27.142877499999997,
          "velocity": 0.4645669291338583
        },
        {
          "duration": 0.11904770833333345,
          "durationTicks": 100,
          "midi": 59,
          "name": "B3",
          "ticks": 22920,
          "time": 27.28573475,
          "velocity": 0.28346456692913385
        },
        {
          "duration": 0.285714500000001,
          "durationTicks": 240,
          "midi": 48,
          "name": "C3",
          "ticks": 23040,
          "time": 27.428592,
          "velocity": 0.4094488188976378
        },
        {
          "duration": 0.285714500000001,
          "durationTicks": 240,
          "midi": 60,
          "name": "C4",
          "ticks": 23040,
          "time": 27.428592,
          "velocity": 0.4094488188976378
        },
        {
          "duration": 0.3095240416666627,
          "durationTicks": 260,
          "midi": 54,
          "name": "F#3",
          "ticks": 23280,
          "time": 27.7143065,
          "velocity": 0.2283464566929134
        },
        {
          "duration": 0.2619049583333357,
          "durationTicks": 220,
          "midi": 57,
          "name": "A3",
          "ticks": 23520,
          "time": 28.000020999999997,
          "velocity": 0.3779527559055118
        },
        {
          "duration": 0.119047708333337,
          "durationTicks": 100,
          "midi": 61,
          "name": "C#4",
          "ticks": 23760,
          "time": 28.285735499999998,
          "velocity": 0.29133858267716534
        },
        {
          "duration": 0.119047708333337,
          "durationTicks": 100,
          "midi": 64,
          "name": "E4",
          "ticks": 23760,
          "time": 28.285735499999998,
          "velocity": 0.29133858267716534
        },
        {
          "duration": 0.16666679166666398,
          "durationTicks": 140,
          "midi": 62,
          "name": "D4",
          "ticks": 23880,
          "time": 28.42859275,
          "velocity": 0.33070866141732286
        },
        {
          "duration": 0.09523816666666463,
          "durationTicks": 80,
          "midi": 63,
          "name": "D#4",
          "ticks": 23880,
          "time": 28.42859275,
          "velocity": 0.3464566929133858
        },
        {
          "duration": 0.2619049583333357,
          "durationTicks": 220,
          "midi": 64,
          "name": "E4",
          "ticks": 24000,
          "time": 28.57145,
          "velocity": 0.3700787401574803
        },
        {
          "duration": 0.28571449999999743,
          "durationTicks": 240,
          "midi": 57,
          "name": "A3",
          "ticks": 24240,
          "time": 28.8571645,
          "velocity": 0.3700787401574803
        },
        {
          "duration": 0.285714500000001,
          "durationTicks": 240,
          "midi": 64,
          "name": "E4",
          "ticks": 24480,
          "time": 29.142878999999997,
          "velocity": 0.33070866141732286
        },
        {
          "duration": 0.285714500000001,
          "durationTicks": 240,
          "midi": 57,
          "name": "A3",
          "ticks": 24720,
          "time": 29.428593499999998,
          "velocity": 0.2440944881889764
        },
        {
          "duration": 0.285714500000001,
          "durationTicks": 240,
          "midi": 64,
          "name": "E4",
          "ticks": 24720,
          "time": 29.428593499999998,
          "velocity": 0.33858267716535434
        },
        {
          "duration": 0.285714500000001,
          "durationTicks": 240,
          "midi": 66,
          "name": "F#4",
          "ticks": 24720,
          "time": 29.428593499999998,
          "velocity": 0.33070866141732286
        },
        {
          "duration": 0.26190495833333216,
          "durationTicks": 220,
          "midi": 47,
          "name": "B2",
          "ticks": 24960,
          "time": 29.714308,
          "velocity": 0.5275590551181102
        },
        {
          "duration": 0.26190495833333216,
          "durationTicks": 220,
          "midi": 66,
          "name": "F#4",
          "ticks": 24960,
          "time": 29.714308,
          "velocity": 0.2440944881889764
        },
        {
          "duration": 0.2619049583333357,
          "durationTicks": 220,
          "midi": 56,
          "name": "G#3",
          "ticks": 25200,
          "time": 30.000022499999996,
          "velocity": 0.3779527559055118
        },
        {
          "duration": 0.285714500000001,
          "durationTicks": 240,
          "midi": 63,
          "name": "D#4",
          "ticks": 25440,
          "time": 30.285736999999997,
          "velocity": 0.29133858267716534
        },
        {
          "duration": 0.285714500000001,
          "durationTicks": 240,
          "midi": 64,
          "name": "E4",
          "ticks": 25440,
          "time": 30.285736999999997,
          "velocity": 0.3858267716535433
        },
        {
          "duration": 0.40476220833333443,
          "durationTicks": 340,
          "midi": 59,
          "name": "B3",
          "ticks": 25680,
          "time": 30.5714515,
          "velocity": 0.2677165354330709
        },
        {
          "duration": 0.40476220833333443,
          "durationTicks": 340,
          "midi": 64,
          "name": "E4",
          "ticks": 25680,
          "time": 30.5714515,
          "velocity": 0.41732283464566927
        },
        {
          "duration": 0.21428587499999807,
          "durationTicks": 180,
          "midi": 59,
          "name": "B3",
          "ticks": 25920,
          "time": 30.857166,
          "velocity": 0.4094488188976378
        },
        {
          "duration": 0.285714500000001,
          "durationTicks": 240,
          "midi": 56,
          "name": "G#3",
          "ticks": 26160,
          "time": 31.142880499999997,
          "velocity": 0.3779527559055118
        },
        {
          "duration": 0.2380954166666669,
          "durationTicks": 200,
          "midi": 64,
          "name": "E4",
          "ticks": 26160,
          "time": 31.142880499999997,
          "velocity": 0.2755905511811024
        },
        {
          "duration": 0.5714289999999984,
          "durationTicks": 480,
          "midi": 63,
          "name": "D#4",
          "ticks": 26400,
          "time": 31.428594999999998,
          "velocity": 0.4330708661417323
        },
        {
          "duration": 0.619048083333336,
          "durationTicks": 520,
          "midi": 64,
          "name": "E4",
          "ticks": 26400,
          "time": 31.428594999999998,
          "velocity": 0.44881889763779526
        },
        {
          "duration": 0.3095240416666698,
          "durationTicks": 260,
          "midi": 46,
          "name": "A#2",
          "ticks": 26880,
          "time": 32.000023999999996,
          "velocity": 0.33070866141732286
        },
        {
          "duration": 0.3095240416666698,
          "durationTicks": 260,
          "midi": 58,
          "name": "A#3",
          "ticks": 26880,
          "time": 32.000023999999996,
          "velocity": 0.2204724409448819
        },
        {
          "duration": 0.16666679166666398,
          "durationTicks": 140,
          "midi": 52,
          "name": "E3",
          "ticks": 27120,
          "time": 32.2857385,
          "velocity": 0.4015748031496063
        },
        {
          "duration": 0.19047633333333636,
          "durationTicks": 160,
          "midi": 63,
          "name": "D#4",
          "ticks": 27240,
          "time": 32.42859575,
          "velocity": 0.5511811023622047
        },
        {
          "duration": 0.28571449999999743,
          "durationTicks": 240,
          "midi": 56,
          "name": "G#3",
          "ticks": 27360,
          "time": 32.571453,
          "velocity": 0.36220472440944884
        },
        {
          "duration": 0.4523812916666685,
          "durationTicks": 380,
          "midi": 61,
          "name": "C#4",
          "ticks": 27600,
          "time": 32.857167499999996,
          "velocity": 0.6299212598425197
        },
        {
          "duration": 0.4523812916666685,
          "durationTicks": 380,
          "midi": 63,
          "name": "D#4",
          "ticks": 27600,
          "time": 32.857167499999996,
          "velocity": 0.5826771653543307
        },
        {
          "duration": 0.09523816666666107,
          "durationTicks": 80,
          "midi": 63,
          "name": "D#4",
          "ticks": 27960,
          "time": 33.28573925,
          "velocity": 0.5433070866141733
        },
        {
          "duration": 0.28571449999999743,
          "durationTicks": 240,
          "midi": 56,
          "name": "G#3",
          "ticks": 28080,
          "time": 33.4285965,
          "velocity": 0.3937007874015748
        },
        {
          "duration": 0.28571450000000453,
          "durationTicks": 240,
          "midi": 52,
          "name": "E3",
          "ticks": 28320,
          "time": 33.714310999999995,
          "velocity": 0.3464566929133858
        },
        {
          "duration": 0.3095240416666698,
          "durationTicks": 260,
          "midi": 61,
          "name": "C#4",
          "ticks": 28320,
          "time": 33.714310999999995,
          "velocity": 0.2992125984251969
        },
        {
          "duration": 0.2380954166666669,
          "durationTicks": 200,
          "midi": 64,
          "name": "E4",
          "ticks": 28320,
          "time": 33.714310999999995,
          "velocity": 0.41732283464566927
        },
        {
          "duration": 0.28571450000000453,
          "durationTicks": 240,
          "midi": 68,
          "name": "G#4",
          "ticks": 28320,
          "time": 33.714310999999995,
          "velocity": 0.2755905511811024
        },
        {
          "duration": 0.28571449999999743,
          "durationTicks": 240,
          "midi": 56,
          "name": "G#3",
          "ticks": 28560,
          "time": 34.0000255,
          "velocity": 0.3464566929133858
        },
        {
          "duration": 0.28571449999999743,
          "durationTicks": 240,
          "midi": 59,
          "name": "B3",
          "ticks": 28560,
          "time": 34.0000255,
          "velocity": 0.4094488188976378
        },
        {
          "duration": 0.28571449999999743,
          "durationTicks": 240,
          "midi": 45,
          "name": "A2",
          "ticks": 28800,
          "time": 34.28574,
          "velocity": 0.31496062992125984
        },
        {
          "duration": 0.28571449999999743,
          "durationTicks": 240,
          "midi": 61,
          "name": "C#4",
          "ticks": 28800,
          "time": 34.28574,
          "velocity": 0.4251968503937008
        },
        {
          "duration": 0.28571450000000453,
          "durationTicks": 240,
          "midi": 56,
          "name": "G#3",
          "ticks": 29040,
          "time": 34.571454499999994,
          "velocity": 0.29133858267716534
        },
        {
          "duration": 0.28571449999999743,
          "durationTicks": 240,
          "midi": 61,
          "name": "C#4",
          "ticks": 29280,
          "time": 34.857169,
          "velocity": 0.41732283464566927
        },
        {
          "duration": 0.5476194583333367,
          "durationTicks": 460,
          "midi": 65,
          "name": "F4",
          "ticks": 29520,
          "time": 35.142883499999996,
          "velocity": 0.33070866141732286
        },
        {
          "duration": 0.5476194583333367,
          "durationTicks": 460,
          "midi": 68,
          "name": "G#4",
          "ticks": 29520,
          "time": 35.142883499999996,
          "velocity": 0.2283464566929134
        },
        {
          "duration": 0.3095240416666627,
          "durationTicks": 260,
          "midi": 56,
          "name": "G#3",
          "ticks": 30000,
          "time": 35.7143125,
          "velocity": 0.44881889763779526
        },
        {
          "duration": 0.28571450000000453,
          "durationTicks": 240,
          "midi": 59,
          "name": "B3",
          "ticks": 30240,
          "time": 36.000026999999996,
          "velocity": 0.1968503937007874
        },
        {
          "duration": 0.28571450000000453,
          "durationTicks": 240,
          "midi": 61,
          "name": "C#4",
          "ticks": 30240,
          "time": 36.000026999999996,
          "velocity": 0.2755905511811024
        },
        {
          "duration": 0.28571450000000453,
          "durationTicks": 240,
          "midi": 68,
          "name": "G#4",
          "ticks": 30240,
          "time": 36.000026999999996,
          "velocity": 0.1889763779527559
        },
        {
          "duration": 0.14285724999999871,
          "durationTicks": 120,
          "midi": 65,
          "name": "F4",
          "ticks": 30480,
          "time": 36.2857415,
          "velocity": 0.2992125984251969
        },
        {
          "duration": 0.14285724999999871,
          "durationTicks": 120,
          "midi": 68,
          "name": "G#4",
          "ticks": 30480,
          "time": 36.2857415,
          "velocity": 0.2204724409448819
        },
        {
          "duration": 0.14285724999999871,
          "durationTicks": 120,
          "midi": 50,
          "name": "D3",
          "ticks": 30600,
          "time": 36.42859875,
          "velocity": 0.16535433070866143
        },
        {
          "duration": 0.14285724999999871,
          "durationTicks": 120,
          "midi": 68,
          "name": "G#4",
          "ticks": 30600,
          "time": 36.42859875,
          "velocity": 0.2440944881889764
        },
        {
          "duration": 0.28571449999999743,
          "durationTicks": 240,
          "midi": 45,
          "name": "A2",
          "ticks": 30720,
          "time": 36.571456,
          "velocity": 0.36220472440944884
        },
        {
          "duration": 0.28571449999999743,
          "durationTicks": 240,
          "midi": 57,
          "name": "A3",
          "ticks": 30720,
          "time": 36.571456,
          "velocity": 0.36220472440944884
        },
        {
          "duration": 0.28571449999999743,
          "durationTicks": 240,
          "midi": 66,
          "name": "F#4",
          "ticks": 30720,
          "time": 36.571456,
          "velocity": 0.1889763779527559
        },
        {
          "duration": 0.28571449999999743,
          "durationTicks": 240,
          "midi": 69,
          "name": "A4",
          "ticks": 30720,
          "time": 36.571456,
          "velocity": 0.2125984251968504
        },
        {
          "duration": 0.28571450000000453,
          "durationTicks": 240,
          "midi": 57,
          "name": "A3",
          "ticks": 30960,
          "time": 36.857170499999995,
          "velocity": 0.5039370078740157
        },
        {
          "duration": 0.28571450000000453,
          "durationTicks": 240,
          "midi": 66,
          "name": "F#4",
          "ticks": 30960,
          "time": 36.857170499999995,
          "velocity": 0.1889763779527559
        },
        {
          "duration": 0.28571450000000453,
          "durationTicks": 240,
          "midi": 69,
          "name": "A4",
          "ticks": 30960,
          "time": 36.857170499999995,
          "velocity": 0.2677165354330709
        },
        {
          "duration": 0.28571449999999743,
          "durationTicks": 240,
          "midi": 66,
          "name": "F#4",
          "ticks": 31200,
          "time": 37.142885,
          "velocity": 0.2992125984251969
        },
        {
          "duration": 0.28571449999999743,
          "durationTicks": 240,
          "midi": 69,
          "name": "A4",
          "ticks": 31200,
          "time": 37.142885,
          "velocity": 0.33858267716535434
        },
        {
          "duration": 0.14285724999999871,
          "durationTicks": 120,
          "midi": 66,
          "name": "F#4",
          "ticks": 31440,
          "time": 37.4285995,
          "velocity": 0.33070866141732286
        },
        {
          "duration": 0.14285724999999871,
          "durationTicks": 120,
          "midi": 49,
          "name": "C#3",
          "ticks": 31560,
          "time": 37.571456749999996,
          "velocity": 0.1889763779527559
        },
        {
          "duration": 0.26190495833333216,
          "durationTicks": 220,
          "midi": 44,
          "name": "G#2",
          "ticks": 31680,
          "time": 37.714313999999995,
          "velocity": 0.4645669291338583
        },
        {
          "duration": 0.3095240416666698,
          "durationTicks": 260,
          "midi": 56,
          "name": "G#3",
          "ticks": 31680,
          "time": 37.714313999999995,
          "velocity": 0.4645669291338583
        },
        {
          "duration": 0.3095240416666698,
          "durationTicks": 260,
          "midi": 59,
          "name": "B3",
          "ticks": 31680,
          "time": 37.714313999999995,
          "velocity": 0.2125984251968504
        },
        {
          "duration": 0.3095240416666698,
          "durationTicks": 260,
          "midi": 64,
          "name": "E4",
          "ticks": 31680,
          "time": 37.714313999999995,
          "velocity": 0.2047244094488189
        },
        {
          "duration": 0.26190495833333216,
          "durationTicks": 220,
          "midi": 54,
          "name": "F#3",
          "ticks": 31920,
          "time": 38.0000285,
          "velocity": 0.2755905511811024
        },
        {
          "duration": 0.28571450000000453,
          "durationTicks": 240,
          "midi": 59,
          "name": "B3",
          "ticks": 32160,
          "time": 38.285743,
          "velocity": 0.36220472440944884
        },
        {
          "duration": 0.28571450000000453,
          "durationTicks": 240,
          "midi": 64,
          "name": "E4",
          "ticks": 32160,
          "time": 38.285743,
          "velocity": 0.3543307086614173
        },
        {
          "duration": 0.28571450000000453,
          "durationTicks": 240,
          "midi": 71,
          "name": "B4",
          "ticks": 32160,
          "time": 38.285743,
          "velocity": 0.33858267716535434
        },
        {
          "duration": 0.3095240416666627,
          "durationTicks": 260,
          "midi": 44,
          "name": "G#2",
          "ticks": 32400,
          "time": 38.5714575,
          "velocity": 0.31496062992125984
        },
        {
          "duration": 0.3095240416666627,
          "durationTicks": 260,
          "midi": 59,
          "name": "B3",
          "ticks": 32400,
          "time": 38.5714575,
          "velocity": 0.2755905511811024
        },
        {
          "duration": 0.28571449999999743,
          "durationTicks": 240,
          "midi": 42,
          "name": "F#2",
          "ticks": 32640,
          "time": 38.857172,
          "velocity": 0.5905511811023622
        },
        {
          "duration": 0.28571449999999743,
          "durationTicks": 240,
          "midi": 57,
          "name": "A3",
          "ticks": 32640,
          "time": 38.857172,
          "velocity": 0.2755905511811024
        },
        {
          "duration": 0.28571449999999743,
          "durationTicks": 240,
          "midi": 61,
          "name": "C#4",
          "ticks": 32640,
          "time": 38.857172,
          "velocity": 0.1732283464566929
        },
        {
          "duration": 0.28571449999999743,
          "durationTicks": 240,
          "midi": 68,
          "name": "G#4",
          "ticks": 32640,
          "time": 38.857172,
          "velocity": 0.18110236220472442
        },
        {
          "duration": 0.28571449999999743,
          "durationTicks": 240,
          "midi": 70,
          "name": "A#4",
          "ticks": 32640,
          "time": 38.857172,
          "velocity": 0.36220472440944884
        },
        {
          "duration": 0.28571449999999743,
          "durationTicks": 240,
          "midi": 76,
          "name": "E5",
          "ticks": 32640,
          "time": 38.857172,
          "velocity": 0.23622047244094488
        },
        {
          "duration": 0.28571450000000453,
          "durationTicks": 240,
          "midi": 52,
          "name": "E3",
          "ticks": 32880,
          "time": 39.142886499999996,
          "velocity": 0.2992125984251969
        },
        {
          "duration": 0.28571449999999743,
          "durationTicks": 240,
          "midi": 57,
          "name": "A3",
          "ticks": 33120,
          "time": 39.428601,
          "velocity": 0.4881889763779528
        },
        {
          "duration": 0.28571449999999743,
          "durationTicks": 240,
          "midi": 69,
          "name": "A4",
          "ticks": 33120,
          "time": 39.428601,
          "velocity": 0.31496062992125984
        },
        {
          "duration": 0.28571449999999743,
          "durationTicks": 240,
          "midi": 76,
          "name": "E5",
          "ticks": 33120,
          "time": 39.428601,
          "velocity": 0.23622047244094488
        },
        {
          "duration": 0.5476194583333296,
          "durationTicks": 460,
          "midi": 59,
          "name": "B3",
          "ticks": 33360,
          "time": 39.7143155,
          "velocity": 0.4566929133858268
        },
        {
          "duration": 0.28571449999999743,
          "durationTicks": 240,
          "midi": 52,
          "name": "E3",
          "ticks": 33840,
          "time": 40.2857445,
          "velocity": 0.33858267716535434
        },
        {
          "duration": 0.28571449999999743,
          "durationTicks": 240,
          "midi": 71,
          "name": "B4",
          "ticks": 33840,
          "time": 40.2857445,
          "velocity": 0.5511811023622047
        },
        {
          "duration": 0.28571449999999743,
          "durationTicks": 240,
          "midi": 57,
          "name": "A3",
          "ticks": 34080,
          "time": 40.571459,
          "velocity": 0.3858267716535433
        },
        {
          "duration": 0.28571449999999743,
          "durationTicks": 240,
          "midi": 61,
          "name": "C#4",
          "ticks": 34080,
          "time": 40.571459,
          "velocity": 0.1968503937007874
        },
        {
          "duration": 0.28571449999999743,
          "durationTicks": 240,
          "midi": 66,
          "name": "F#4",
          "ticks": 34080,
          "time": 40.571459,
          "velocity": 0.1968503937007874
        },
        {
          "duration": 0.28571449999999743,
          "durationTicks": 240,
          "midi": 69,
          "name": "A4",
          "ticks": 34080,
          "time": 40.571459,
          "velocity": 0.3858267716535433
        },
        {
          "duration": 0.28571450000000453,
          "durationTicks": 240,
          "midi": 59,
          "name": "B3",
          "ticks": 34320,
          "time": 40.857173499999995,
          "velocity": 0.29133858267716534
        },
        {
          "duration": 0.238095416666674,
          "durationTicks": 200,
          "midi": 62,
          "name": "D4",
          "ticks": 34320,
          "time": 40.857173499999995,
          "velocity": 0.23622047244094488
        },
        {
          "duration": 0.238095416666674,
          "durationTicks": 200,
          "midi": 63,
          "name": "D#4",
          "ticks": 34320,
          "time": 40.857173499999995,
          "velocity": 0.2125984251968504
        },
        {
          "duration": 0.28571450000000453,
          "durationTicks": 240,
          "midi": 66,
          "name": "F#4",
          "ticks": 34320,
          "time": 40.857173499999995,
          "velocity": 0.2283464566929134
        },
        {
          "duration": 0.28571449999999743,
          "durationTicks": 240,
          "midi": 41,
          "name": "F2",
          "ticks": 34560,
          "time": 41.142888,
          "velocity": 0.30708661417322836
        },
        {
          "duration": 0.28571449999999743,
          "durationTicks": 240,
          "midi": 44,
          "name": "G#2",
          "ticks": 34560,
          "time": 41.142888,
          "velocity": 0.33858267716535434
        },
        {
          "duration": 0.28571449999999743,
          "durationTicks": 240,
          "midi": 65,
          "name": "F4",
          "ticks": 34560,
          "time": 41.142888,
          "velocity": 0.23622047244094488
        },
        {
          "duration": 0.1666667916666711,
          "durationTicks": 140,
          "midi": 54,
          "name": "F#3",
          "ticks": 34800,
          "time": 41.4286025,
          "velocity": 0.31496062992125984
        },
        {
          "duration": 0.11904770833333345,
          "durationTicks": 100,
          "midi": 69,
          "name": "A4",
          "ticks": 34920,
          "time": 41.571459749999995,
          "velocity": 0.48031496062992124
        },
        {
          "duration": 0.28571450000000453,
          "durationTicks": 240,
          "midi": 60,
          "name": "C4",
          "ticks": 35040,
          "time": 41.714316999999994,
          "velocity": 0.25984251968503935
        },
        {
          "duration": 0.28571450000000453,
          "durationTicks": 240,
          "midi": 65,
          "name": "F4",
          "ticks": 35040,
          "time": 41.714316999999994,
          "velocity": 0.4881889763779528
        },
        {
          "duration": 0.19047633333332925,
          "durationTicks": 160,
          "midi": 54,
          "name": "F#3",
          "ticks": 35280,
          "time": 42.0000315,
          "velocity": 0.3464566929133858
        },
        {
          "duration": 0.19047633333332925,
          "durationTicks": 160,
          "midi": 60,
          "name": "C4",
          "ticks": 35280,
          "time": 42.0000315,
          "velocity": 0.25984251968503935
        },
        {
          "duration": 0.19047633333332925,
          "durationTicks": 160,
          "midi": 66,
          "name": "F#4",
          "ticks": 35400,
          "time": 42.14288875,
          "velocity": 0.41732283464566927
        },
        {
          "duration": 0.28571450000000453,
          "durationTicks": 240,
          "midi": 44,
          "name": "G#2",
          "ticks": 35520,
          "time": 42.285745999999996,
          "velocity": 0.33858267716535434
        },
        {
          "duration": 0.28571450000000453,
          "durationTicks": 240,
          "midi": 56,
          "name": "G#3",
          "ticks": 35520,
          "time": 42.285745999999996,
          "velocity": 0.4409448818897638
        },
        {
          "duration": 0.28571450000000453,
          "durationTicks": 240,
          "midi": 60,
          "name": "C4",
          "ticks": 35520,
          "time": 42.285745999999996,
          "velocity": 0.2204724409448819
        },
        {
          "duration": 0.28571450000000453,
          "durationTicks": 240,
          "midi": 64,
          "name": "E4",
          "ticks": 35520,
          "time": 42.285745999999996,
          "velocity": 0.4015748031496063
        },
        {
          "duration": 0.28571450000000453,
          "durationTicks": 240,
          "midi": 68,
          "name": "G#4",
          "ticks": 35520,
          "time": 42.285745999999996,
          "velocity": 0.5984251968503937
        },
        {
          "duration": 0.28571449999999743,
          "durationTicks": 240,
          "midi": 54,
          "name": "F#3",
          "ticks": 35760,
          "time": 42.5714605,
          "velocity": 0.25196850393700787
        },
        {
          "duration": 0.28571449999999743,
          "durationTicks": 240,
          "midi": 60,
          "name": "C4",
          "ticks": 36000,
          "time": 42.857175,
          "velocity": 0.2204724409448819
        },
        {
          "duration": 0.14285724999999871,
          "durationTicks": 120,
          "midi": 64,
          "name": "E4",
          "ticks": 36240,
          "time": 43.142889499999995,
          "velocity": 0.3464566929133858
        },
        {
          "duration": 0.1666667916666711,
          "durationTicks": 140,
          "midi": 62,
          "name": "D4",
          "ticks": 36360,
          "time": 43.285746749999994,
          "velocity": 0.2204724409448819
        },
        {
          "duration": 0.28571449999999743,
          "durationTicks": 240,
          "midi": 45,
          "name": "A2",
          "ticks": 36480,
          "time": 43.428604,
          "velocity": 0.33070866141732286
        },
        {
          "duration": 0.28571449999999743,
          "durationTicks": 240,
          "midi": 61,
          "name": "C#4",
          "ticks": 36480,
          "time": 43.428604,
          "velocity": 0.2440944881889764
        },
        {
          "duration": 0.33333358333332797,
          "durationTicks": 280,
          "midi": 68,
          "name": "G#4",
          "ticks": 36480,
          "time": 43.428604,
          "velocity": 0.5118110236220472
        },
        {
          "duration": 0.14285724999999871,
          "durationTicks": 120,
          "midi": 56,
          "name": "G#3",
          "ticks": 36720,
          "time": 43.7143185,
          "velocity": 0.3228346456692913
        },
        {
          "duration": 0.1666667916666711,
          "durationTicks": 140,
          "midi": 64,
          "name": "E4",
          "ticks": 36720,
          "time": 43.7143185,
          "velocity": 0.3228346456692913
        },
        {
          "duration": 0.14285724999999871,
          "durationTicks": 120,
          "midi": 61,
          "name": "C#4",
          "ticks": 36840,
          "time": 43.857175749999996,
          "velocity": 0.36220472440944884
        },
        {
          "duration": 0.14285724999999871,
          "durationTicks": 120,
          "midi": 64,
          "name": "E4",
          "ticks": 36840,
          "time": 43.857175749999996,
          "velocity": 0.31496062992125984
        },
        {
          "duration": 0.26190495833333216,
          "durationTicks": 220,
          "midi": 61,
          "name": "C#4",
          "ticks": 36960,
          "time": 44.000032999999995,
          "velocity": 0.41732283464566927
        },
        {
          "duration": 0.26190495833333216,
          "durationTicks": 220,
          "midi": 63,
          "name": "D#4",
          "ticks": 36960,
          "time": 44.000032999999995,
          "velocity": 0.28346456692913385
        },
        {
          "duration": 0.26190495833333216,
          "durationTicks": 220,
          "midi": 89,
          "name": "F6",
          "ticks": 36960,
          "time": 44.000032999999995,
          "velocity": 0.2440944881889764
        },
        {
          "duration": 0.26190495833332506,
          "durationTicks": 220,
          "midi": 64,
          "name": "E4",
          "ticks": 37200,
          "time": 44.2857475,
          "velocity": 0.3858267716535433
        },
        {
          "duration": 0.28571449999999743,
          "durationTicks": 240,
          "midi": 64,
          "name": "E4",
          "ticks": 37440,
          "time": 44.571462,
          "velocity": 0.6220472440944882
        },
        {
          "duration": 0.26190495833333216,
          "durationTicks": 220,
          "midi": 56,
          "name": "G#3",
          "ticks": 37680,
          "time": 44.857176499999994,
          "velocity": 0.2992125984251969
        },
        {
          "duration": 0.3095240416666698,
          "durationTicks": 260,
          "midi": 85,
          "name": "C#6",
          "ticks": 37680,
          "time": 44.857176499999994,
          "velocity": 0.1732283464566929
        },
        {
          "duration": 0.26190495833333216,
          "durationTicks": 220,
          "midi": 61,
          "name": "C#4",
          "ticks": 37920,
          "time": 45.142891,
          "velocity": 0.30708661417322836
        },
        {
          "duration": 0.14285724999999871,
          "durationTicks": 120,
          "midi": 64,
          "name": "E4",
          "ticks": 38160,
          "time": 45.428605499999996,
          "velocity": 0.2755905511811024
        },
        {
          "duration": 0.11904770833333345,
          "durationTicks": 100,
          "midi": 65,
          "name": "F4",
          "ticks": 38160,
          "time": 45.428605499999996,
          "velocity": 0.2204724409448819
        },
        {
          "duration": 0.11904770833333345,
          "durationTicks": 100,
          "midi": 66,
          "name": "F#4",
          "ticks": 38160,
          "time": 45.428605499999996,
          "velocity": 0.2283464566929134
        },
        {
          "duration": 0.09523816666666818,
          "durationTicks": 80,
          "midi": 51,
          "name": "D#3",
          "ticks": 38280,
          "time": 45.571462749999995,
          "velocity": 0.28346456692913385
        },
        {
          "duration": 0.1666667916666711,
          "durationTicks": 140,
          "midi": 61,
          "name": "C#4",
          "ticks": 38280,
          "time": 45.571462749999995,
          "velocity": 0.2755905511811024
        },
        {
          "duration": 0.09523816666666818,
          "durationTicks": 80,
          "midi": 67,
          "name": "G4",
          "ticks": 38280,
          "time": 45.571462749999995,
          "velocity": 0.2440944881889764
        },
        {
          "duration": 1.4285724999999942,
          "durationTicks": 1200,
          "midi": 61,
          "name": "C#4",
          "ticks": 38400,
          "time": 45.71432,
          "velocity": 0.4330708661417323
        },
        {
          "duration": 1.4761915833333248,
          "durationTicks": 1240,
          "midi": 68,
          "name": "G#4",
          "ticks": 38400,
          "time": 45.71432,
          "velocity": 0.2283464566929134
        },
        {
          "duration": 1.3809534166666637,
          "durationTicks": 1160,
          "midi": 69,
          "name": "A4",
          "ticks": 38400,
          "time": 45.71432,
          "velocity": 0.3700787401574803
        },
        {
          "duration": 1.4285724999999942,
          "durationTicks": 1200,
          "midi": 81,
          "name": "A5",
          "ticks": 38400,
          "time": 45.71432,
          "velocity": 0.2125984251968504
        },
        {
          "duration": 0.5476194583333296,
          "durationTicks": 460,
          "midi": 69,
          "name": "A4",
          "ticks": 39600,
          "time": 47.142892499999995,
          "velocity": 0.5118110236220472
        },
        {
          "duration": 0.21428587500000162,
          "durationTicks": 180,
          "midi": 64,
          "name": "E4",
          "ticks": 39960,
          "time": 47.57146425,
          "velocity": 0.23622047244094488
        },
        {
          "duration": 0.11904770833333345,
          "durationTicks": 100,
          "midi": 67,
          "name": "G4",
          "ticks": 40080,
          "time": 47.7143215,
          "velocity": 0.2677165354330709
        },
        {
          "duration": 0.14285724999999871,
          "durationTicks": 120,
          "midi": 68,
          "name": "G#4",
          "ticks": 40200,
          "time": 47.857178749999996,
          "velocity": 0.2755905511811024
        },
        {
          "duration": 0.09523816666666818,
          "durationTicks": 80,
          "midi": 69,
          "name": "A4",
          "ticks": 40200,
          "time": 47.857178749999996,
          "velocity": 0.25984251968503935
        },
        {
          "duration": 0.26190495833333216,
          "durationTicks": 220,
          "midi": 32,
          "name": "G#1",
          "ticks": 40320,
          "time": 48.000035999999994,
          "velocity": 0.6220472440944882
        },
        {
          "duration": 0.3095240416666698,
          "durationTicks": 260,
          "midi": 44,
          "name": "G#2",
          "ticks": 40320,
          "time": 48.000035999999994,
          "velocity": 0.5905511811023622
        },
        {
          "duration": 0.26190495833333216,
          "durationTicks": 220,
          "midi": 70,
          "name": "A#4",
          "ticks": 40320,
          "time": 48.000035999999994,
          "velocity": 0.3228346456692913
        },
        {
          "duration": 0.28571449999999743,
          "durationTicks": 240,
          "midi": 54,
          "name": "F#3",
          "ticks": 40560,
          "time": 48.2857505,
          "velocity": 0.25984251968503935
        },
        {
          "duration": 0.14285724999999871,
          "durationTicks": 120,
          "midi": 59,
          "name": "B3",
          "ticks": 40800,
          "time": 48.571464999999996,
          "velocity": 0.33070866141732286
        },
        {
          "duration": 0.14285724999999871,
          "durationTicks": 120,
          "midi": 63,
          "name": "D#4",
          "ticks": 40800,
          "time": 48.571464999999996,
          "velocity": 0.23622047244094488
        },
        {
          "duration": 0.07142862500000291,
          "durationTicks": 60,
          "midi": 62,
          "name": "D4",
          "ticks": 40920,
          "time": 48.714322249999995,
          "velocity": 0.1889763779527559
        },
        {
          "duration": 0.28571450000000453,
          "durationTicks": 240,
          "midi": 44,
          "name": "G#2",
          "ticks": 41040,
          "time": 48.857179499999994,
          "velocity": 0.3228346456692913
        },
        {
          "duration": 0.28571450000000453,
          "durationTicks": 240,
          "midi": 71,
          "name": "B4",
          "ticks": 41040,
          "time": 48.857179499999994,
          "velocity": 0.3464566929133858
        },
        {
          "duration": 0.28571449999999743,
          "durationTicks": 240,
          "midi": 37,
          "name": "C#2",
          "ticks": 41280,
          "time": 49.142894,
          "velocity": 0.4015748031496063
        },
        {
          "duration": 0.33333358333332797,
          "durationTicks": 280,
          "midi": 59,
          "name": "B3",
          "ticks": 41280,
          "time": 49.142894,
          "velocity": 0.4015748031496063
        },
        {
          "duration": 0.14285724999999871,
          "durationTicks": 120,
          "midi": 53,
          "name": "F3",
          "ticks": 41520,
          "time": 49.428608499999996,
          "velocity": 0.2677165354330709
        },
        {
          "duration": 0.14285724999999871,
          "durationTicks": 120,
          "midi": 59,
          "name": "B3",
          "ticks": 41520,
          "time": 49.428608499999996,
          "velocity": 0.2440944881889764
        },
        {
          "duration": 0.14285724999999871,
          "durationTicks": 120,
          "midi": 62,
          "name": "D4",
          "ticks": 41520,
          "time": 49.428608499999996,
          "velocity": 0.6614173228346457
        },
        {
          "duration": 0.14285724999999871,
          "durationTicks": 120,
          "midi": 64,
          "name": "E4",
          "ticks": 41520,
          "time": 49.428608499999996,
          "velocity": 0.25196850393700787
        },
        {
          "duration": 0.14285724999999871,
          "durationTicks": 120,
          "midi": 68,
          "name": "G#4",
          "ticks": 41520,
          "time": 49.428608499999996,
          "velocity": 0.3858267716535433
        },
        {
          "duration": 0.11904770833333345,
          "durationTicks": 100,
          "midi": 64,
          "name": "E4",
          "ticks": 41640,
          "time": 49.571465749999994,
          "velocity": 0.33858267716535434
        },
        {
          "duration": 0.28571449999999743,
          "durationTicks": 240,
          "midi": 49,
          "name": "C#3",
          "ticks": 41760,
          "time": 49.714323,
          "velocity": 0.30708661417322836
        },
        {
          "duration": 0.28571449999999743,
          "durationTicks": 240,
          "midi": 45,
          "name": "A2",
          "ticks": 42000,
          "time": 50.0000375,
          "velocity": 0.23622047244094488
        },
        {
          "duration": 0.28571449999999743,
          "durationTicks": 240,
          "midi": 59,
          "name": "B3",
          "ticks": 42000,
          "time": 50.0000375,
          "velocity": 0.3464566929133858
        },
        {
          "duration": 0.28571450000000453,
          "durationTicks": 240,
          "midi": 42,
          "name": "F#2",
          "ticks": 42240,
          "time": 50.285751999999995,
          "velocity": 0.6141732283464567
        },
        {
          "duration": 0.28571450000000453,
          "durationTicks": 240,
          "midi": 63,
          "name": "D#4",
          "ticks": 42240,
          "time": 50.285751999999995,
          "velocity": 0.5118110236220472
        },
        {
          "duration": 0.26190495833332506,
          "durationTicks": 220,
          "midi": 52,
          "name": "E3",
          "ticks": 42480,
          "time": 50.5714665,
          "velocity": 0.29133858267716534
        },
        {
          "duration": 0.28571449999999743,
          "durationTicks": 240,
          "midi": 56,
          "name": "G#3",
          "ticks": 42720,
          "time": 50.857181,
          "velocity": 0.36220472440944884
        },
        {
          "duration": 0.28571449999999743,
          "durationTicks": 240,
          "midi": 59,
          "name": "B3",
          "ticks": 42720,
          "time": 50.857181,
          "velocity": 0.2677165354330709
        },
        {
          "duration": 0.28571450000000453,
          "durationTicks": 240,
          "midi": 42,
          "name": "F#2",
          "ticks": 42960,
          "time": 51.142895499999995,
          "velocity": 0.48031496062992124
        },
        {
          "duration": 0.28571450000000453,
          "durationTicks": 240,
          "midi": 44,
          "name": "G#2",
          "ticks": 42960,
          "time": 51.142895499999995,
          "velocity": 0.36220472440944884
        },
        {
          "duration": 0.28571450000000453,
          "durationTicks": 240,
          "midi": 61,
          "name": "C#4",
          "ticks": 42960,
          "time": 51.142895499999995,
          "velocity": 0.5984251968503937
        },
        {
          "duration": 0.14285724999999871,
          "durationTicks": 120,
          "midi": 45,
          "name": "A2",
          "ticks": 43200,
          "time": 51.42861,
          "velocity": 0.3464566929133858
        },
        {
          "duration": 0.14285724999999871,
          "durationTicks": 120,
          "midi": 52,
          "name": "E3",
          "ticks": 43200,
          "time": 51.42861,
          "velocity": 0.31496062992125984
        },
        {
          "duration": 0.14285724999999871,
          "durationTicks": 120,
          "midi": 60,
          "name": "C4",
          "ticks": 43200,
          "time": 51.42861,
          "velocity": 0.25984251968503935
        },
        {
          "duration": 0.11904770833332634,
          "durationTicks": 100,
          "midi": 63,
          "name": "D#4",
          "ticks": 43320,
          "time": 51.57146725,
          "velocity": 0.29133858267716534
        },
        {
          "duration": 0.28571449999999743,
          "durationTicks": 240,
          "midi": 46,
          "name": "A#2",
          "ticks": 43440,
          "time": 51.7143245,
          "velocity": 0.3700787401574803
        },
        {
          "duration": 0.28571449999999743,
          "durationTicks": 240,
          "midi": 56,
          "name": "G#3",
          "ticks": 43440,
          "time": 51.7143245,
          "velocity": 0.4566929133858268
        },
        {
          "duration": 0.28571450000000453,
          "durationTicks": 240,
          "midi": 42,
          "name": "F#2",
          "ticks": 43680,
          "time": 52.000038999999994,
          "velocity": 0.47244094488188976
        },
        {
          "duration": 0.28571450000000453,
          "durationTicks": 240,
          "midi": 64,
          "name": "E4",
          "ticks": 43680,
          "time": 52.000038999999994,
          "velocity": 0.25196850393700787
        },
        {
          "duration": 0.3095240416666698,
          "durationTicks": 260,
          "midi": 37,
          "name": "C#2",
          "ticks": 43920,
          "time": 52.2857535,
          "velocity": 0.44881889763779526
        },
        {
          "duration": 0.3095240416666698,
          "durationTicks": 260,
          "midi": 52,
          "name": "E3",
          "ticks": 43920,
          "time": 52.2857535,
          "velocity": 0.30708661417322836
        },
        {
          "duration": 0.26190495833333216,
          "durationTicks": 220,
          "midi": 35,
          "name": "B1",
          "ticks": 44160,
          "time": 52.571467999999996,
          "velocity": 0.5905511811023622
        },
        {
          "duration": 0.26190495833333216,
          "durationTicks": 220,
          "midi": 47,
          "name": "B2",
          "ticks": 44160,
          "time": 52.571467999999996,
          "velocity": 0.5905511811023622
        },
        {
          "duration": 0.26190495833333216,
          "durationTicks": 220,
          "midi": 57,
          "name": "A3",
          "ticks": 44160,
          "time": 52.571467999999996,
          "velocity": 0.36220472440944884
        },
        {
          "duration": 0.26190495833333216,
          "durationTicks": 220,
          "midi": 61,
          "name": "C#4",
          "ticks": 44160,
          "time": 52.571467999999996,
          "velocity": 0.5275590551181102
        },
        {
          "duration": 0.26190495833333216,
          "durationTicks": 220,
          "midi": 52,
          "name": "E3",
          "ticks": 44400,
          "time": 52.85718249999999,
          "velocity": 0.23622047244094488
        },
        {
          "duration": 0.28571449999999743,
          "durationTicks": 240,
          "midi": 57,
          "name": "A3",
          "ticks": 44640,
          "time": 53.142897,
          "velocity": 0.31496062992125984
        },
        {
          "duration": 0.28571450000000453,
          "durationTicks": 240,
          "midi": 47,
          "name": "B2",
          "ticks": 44880,
          "time": 53.428611499999995,
          "velocity": 0.4094488188976378
        },
        {
          "duration": 0.28571450000000453,
          "durationTicks": 240,
          "midi": 66,
          "name": "F#4",
          "ticks": 44880,
          "time": 53.428611499999995,
          "velocity": 0.4015748031496063
        },
        {
          "duration": 0.28571449999999743,
          "durationTicks": 240,
          "midi": 42,
          "name": "F#2",
          "ticks": 45120,
          "time": 53.714326,
          "velocity": 0.5118110236220472
        },
        {
          "duration": 0.28571449999999743,
          "durationTicks": 240,
          "midi": 73,
          "name": "C#5",
          "ticks": 45120,
          "time": 53.714326,
          "velocity": 0.2047244094488189
        },
        {
          "duration": 0.28571449999999743,
          "durationTicks": 240,
          "midi": 52,
          "name": "E3",
          "ticks": 45360,
          "time": 54.0000405,
          "velocity": 0.31496062992125984
        },
        {
          "duration": 0.2380954166666669,
          "durationTicks": 200,
          "midi": 54,
          "name": "F#3",
          "ticks": 45360,
          "time": 54.0000405,
          "velocity": 0.5511811023622047
        },
        {
          "duration": 0.28571450000000453,
          "durationTicks": 240,
          "midi": 57,
          "name": "A3",
          "ticks": 45600,
          "time": 54.285754999999995,
          "velocity": 0.3779527559055118
        },
        {
          "duration": 0.28571450000000453,
          "durationTicks": 240,
          "midi": 69,
          "name": "A4",
          "ticks": 45600,
          "time": 54.285754999999995,
          "velocity": 0.33858267716535434
        },
        {
          "duration": 0.11904770833332634,
          "durationTicks": 100,
          "midi": 47,
          "name": "B2",
          "ticks": 45840,
          "time": 54.5714695,
          "velocity": 0.5433070866141733
        },
        {
          "duration": 0.14285724999999871,
          "durationTicks": 120,
          "midi": 52,
          "name": "E3",
          "ticks": 45960,
          "time": 54.71432675,
          "velocity": 0.2440944881889764
        },
        {
          "duration": 1.2142866249999997,
          "durationTicks": 1020,
          "midi": 57,
          "name": "A3",
          "ticks": 45960,
          "time": 54.71432675,
          "velocity": 0.33858267716535434
        },
        {
          "duration": 1.1190484583333316,
          "durationTicks": 940,
          "midi": 47,
          "name": "B2",
          "ticks": 46080,
          "time": 54.857184,
          "velocity": 0.5433070866141733
        },
        {
          "duration": 1.1190484583333316,
          "durationTicks": 940,
          "midi": 59,
          "name": "B3",
          "ticks": 46080,
          "time": 54.857184,
          "velocity": 0.5039370078740157
        },
        {
          "duration": 1.1190484583333316,
          "durationTicks": 940,
          "midi": 61,
          "name": "C#4",
          "ticks": 46080,
          "time": 54.857184,
          "velocity": 0.2992125984251969
        },
        {
          "duration": 0.571429000000002,
          "durationTicks": 480,
          "midi": 46,
          "name": "A#2",
          "ticks": 47040,
          "time": 56.00004199999999,
          "velocity": 0.5826771653543307
        },
        {
          "duration": 0.6190480833333325,
          "durationTicks": 520,
          "midi": 50,
          "name": "D3",
          "ticks": 47040,
          "time": 56.00004199999999,
          "velocity": 0.2283464566929134
        },
        {
          "duration": 0.571429000000002,
          "durationTicks": 480,
          "midi": 56,
          "name": "G#3",
          "ticks": 47040,
          "time": 56.00004199999999,
          "velocity": 0.31496062992125984
        },
        {
          "duration": 0.571429000000002,
          "durationTicks": 480,
          "midi": 58,
          "name": "A#3",
          "ticks": 47040,
          "time": 56.00004199999999,
          "velocity": 0.5826771653543307
        },
        {
          "duration": 0.571429000000002,
          "durationTicks": 480,
          "midi": 61,
          "name": "C#4",
          "ticks": 47040,
          "time": 56.00004199999999,
          "velocity": 0.31496062992125984
        },
        {
          "duration": 0.6190480833333325,
          "durationTicks": 520,
          "midi": 64,
          "name": "E4",
          "ticks": 47040,
          "time": 56.00004199999999,
          "velocity": 0.30708661417322836
        },
        {
          "duration": 0.5238099166666714,
          "durationTicks": 440,
          "midi": 73,
          "name": "C#5",
          "ticks": 47040,
          "time": 56.00004199999999,
          "velocity": 0.31496062992125984
        },
        {
          "duration": 0.5238099166666714,
          "durationTicks": 440,
          "midi": 76,
          "name": "E5",
          "ticks": 47040,
          "time": 56.00004199999999,
          "velocity": 0.2992125984251969
        },
        {
          "duration": 0.238095416666674,
          "durationTicks": 200,
          "midi": 56,
          "name": "G#3",
          "ticks": 47520,
          "time": 56.571470999999995,
          "velocity": 0.2440944881889764
        },
        {
          "duration": 0.21428587500000162,
          "durationTicks": 180,
          "midi": 57,
          "name": "A3",
          "ticks": 47640,
          "time": 56.714328249999994,
          "velocity": 0.36220472440944884
        },
        {
          "duration": 0.11904770833332634,
          "durationTicks": 100,
          "midi": 56,
          "name": "G#3",
          "ticks": 47760,
          "time": 56.8571855,
          "velocity": 0.2677165354330709
        },
        {
          "duration": 0.09523816666666818,
          "durationTicks": 80,
          "midi": 52,
          "name": "E3",
          "ticks": 47880,
          "time": 57.00004275,
          "velocity": 0.2755905511811024
        },
        {
          "duration": 0.5476194583333296,
          "durationTicks": 460,
          "midi": 33,
          "name": "A1",
          "ticks": 48000,
          "time": 57.1429,
          "velocity": 0.4881889763779528
        },
        {
          "duration": 0.5476194583333296,
          "durationTicks": 460,
          "midi": 45,
          "name": "A2",
          "ticks": 48000,
          "time": 57.1429,
          "velocity": 0.3937007874015748
        },
        {
          "duration": 0.5476194583333296,
          "durationTicks": 460,
          "midi": 55,
          "name": "G3",
          "ticks": 48000,
          "time": 57.1429,
          "velocity": 0.36220472440944884
        },
        {
          "duration": 0.5476194583333296,
          "durationTicks": 460,
          "midi": 59,
          "name": "B3",
          "ticks": 48000,
          "time": 57.1429,
          "velocity": 0.2440944881889764
        },
        {
          "duration": 0.5476194583333296,
          "durationTicks": 460,
          "midi": 63,
          "name": "D#4",
          "ticks": 48000,
          "time": 57.1429,
          "velocity": 0.2204724409448819
        },
        {
          "duration": 0.28571449999999743,
          "durationTicks": 240,
          "midi": 45,
          "name": "A2",
          "ticks": 48480,
          "time": 57.714329,
          "velocity": 0.41732283464566927
        },
        {
          "duration": 0.26190495833332506,
          "durationTicks": 220,
          "midi": 55,
          "name": "G3",
          "ticks": 48480,
          "time": 57.714329,
          "velocity": 0.4094488188976378
        },
        {
          "duration": 0.28571449999999743,
          "durationTicks": 240,
          "midi": 59,
          "name": "B3",
          "ticks": 48480,
          "time": 57.714329,
          "velocity": 0.23622047244094488
        },
        {
          "duration": 0.28571449999999743,
          "durationTicks": 240,
          "midi": 63,
          "name": "D#4",
          "ticks": 48480,
          "time": 57.714329,
          "velocity": 0.2992125984251969
        },
        {
          "duration": 0.28571449999999743,
          "durationTicks": 240,
          "midi": 40,
          "name": "E2",
          "ticks": 48720,
          "time": 58.0000435,
          "velocity": 0.4015748031496063
        },
        {
          "duration": 0.28571449999999743,
          "durationTicks": 240,
          "midi": 45,
          "name": "A2",
          "ticks": 48720,
          "time": 58.0000435,
          "velocity": 0.2440944881889764
        },
        {
          "duration": 0.28571449999999743,
          "durationTicks": 240,
          "midi": 55,
          "name": "G3",
          "ticks": 48720,
          "time": 58.0000435,
          "velocity": 0.36220472440944884
        },
        {
          "duration": 0.28571449999999743,
          "durationTicks": 240,
          "midi": 59,
          "name": "B3",
          "ticks": 48720,
          "time": 58.0000435,
          "velocity": 0.30708661417322836
        },
        {
          "duration": 0.28571449999999743,
          "durationTicks": 240,
          "midi": 61,
          "name": "C#4",
          "ticks": 48720,
          "time": 58.0000435,
          "velocity": 0.23622047244094488
        },
        {
          "duration": 0.28571449999999743,
          "durationTicks": 240,
          "midi": 66,
          "name": "F#4",
          "ticks": 48720,
          "time": 58.0000435,
          "velocity": 0.25196850393700787
        },
        {
          "duration": 0.28571450000000453,
          "durationTicks": 240,
          "midi": 40,
          "name": "E2",
          "ticks": 48960,
          "time": 58.285757999999994,
          "velocity": 0.5039370078740157
        },
        {
          "duration": 0.28571450000000453,
          "durationTicks": 240,
          "midi": 66,
          "name": "F#4",
          "ticks": 48960,
          "time": 58.285757999999994,
          "velocity": 0.31496062992125984
        },
        {
          "duration": 0.5714289999999949,
          "durationTicks": 480,
          "midi": 55,
          "name": "G3",
          "ticks": 49200,
          "time": 58.5714725,
          "velocity": 0.33070866141732286
        },
        {
          "duration": 0.5714289999999949,
          "durationTicks": 480,
          "midi": 59,
          "name": "B3",
          "ticks": 49200,
          "time": 58.5714725,
          "velocity": 0.3858267716535433
        },
        {
          "duration": 0.5714289999999949,
          "durationTicks": 480,
          "midi": 61,
          "name": "C#4",
          "ticks": 49200,
          "time": 58.5714725,
          "velocity": 0.2440944881889764
        },
        {
          "duration": 0.5714289999999949,
          "durationTicks": 480,
          "midi": 63,
          "name": "D#4",
          "ticks": 49200,
          "time": 58.5714725,
          "velocity": 0.29133858267716534
        },
        {
          "duration": 0.5714289999999949,
          "durationTicks": 480,
          "midi": 66,
          "name": "F#4",
          "ticks": 49200,
          "time": 58.5714725,
          "velocity": 0.5826771653543307
        },
        {
          "duration": 0.28571450000000453,
          "durationTicks": 240,
          "midi": 33,
          "name": "A1",
          "ticks": 49680,
          "time": 59.142901499999994,
          "velocity": 0.5590551181102362
        },
        {
          "duration": 0.28571450000000453,
          "durationTicks": 240,
          "midi": 45,
          "name": "A2",
          "ticks": 49680,
          "time": 59.142901499999994,
          "velocity": 0.5590551181102362
        },
        {
          "duration": 0.26190495833333216,
          "durationTicks": 220,
          "midi": 45,
          "name": "A2",
          "ticks": 49920,
          "time": 59.428616,
          "velocity": 0.6062992125984252
        },
        {
          "duration": 0.26190495833333216,
          "durationTicks": 220,
          "midi": 54,
          "name": "F#3",
          "ticks": 49920,
          "time": 59.428616,
          "velocity": 0.29133858267716534
        },
        {
          "duration": 0.26190495833333216,
          "durationTicks": 220,
          "midi": 57,
          "name": "A3",
          "ticks": 49920,
          "time": 59.428616,
          "velocity": 0.2992125984251969
        },
        {
          "duration": 0.26190495833333216,
          "durationTicks": 220,
          "midi": 66,
          "name": "F#4",
          "ticks": 49920,
          "time": 59.428616,
          "velocity": 0.29133858267716534
        },
        {
          "duration": 0.28571449999999743,
          "durationTicks": 240,
          "midi": 45,
          "name": "A2",
          "ticks": 50160,
          "time": 59.714330499999996,
          "velocity": 0.5984251968503937
        },
        {
          "duration": 0.28571449999999743,
          "durationTicks": 240,
          "midi": 60,
          "name": "C4",
          "ticks": 50160,
          "time": 59.714330499999996,
          "velocity": 0.2440944881889764
        },
        {
          "duration": 0.28571449999999743,
          "durationTicks": 240,
          "midi": 64,
          "name": "E4",
          "ticks": 50160,
          "time": 59.714330499999996,
          "velocity": 0.6456692913385826
        },
        {
          "duration": 0.28571450000000453,
          "durationTicks": 240,
          "midi": 45,
          "name": "A2",
          "ticks": 50400,
          "time": 60.00004499999999,
          "velocity": 0.5354330708661418
        },
        {
          "duration": 0.28571450000000453,
          "durationTicks": 240,
          "midi": 64,
          "name": "E4",
          "ticks": 50400,
          "time": 60.00004499999999,
          "velocity": 0.4330708661417323
        },
        {
          "duration": 0.28571449999999743,
          "durationTicks": 240,
          "midi": 40,
          "name": "E2",
          "ticks": 50640,
          "time": 60.2857595,
          "velocity": 0.4015748031496063
        },
        {
          "duration": 0.28571449999999743,
          "durationTicks": 240,
          "midi": 45,
          "name": "A2",
          "ticks": 50640,
          "time": 60.2857595,
          "velocity": 0.29133858267716534
        },
        {
          "duration": 0.28571449999999743,
          "durationTicks": 240,
          "midi": 54,
          "name": "F#3",
          "ticks": 50640,
          "time": 60.2857595,
          "velocity": 0.25196850393700787
        },
        {
          "duration": 0.28571449999999743,
          "durationTicks": 240,
          "midi": 60,
          "name": "C4",
          "ticks": 50640,
          "time": 60.2857595,
          "velocity": 0.2677165354330709
        },
        {
          "duration": 0.28571449999999743,
          "durationTicks": 240,
          "midi": 64,
          "name": "E4",
          "ticks": 50640,
          "time": 60.2857595,
          "velocity": 0.44881889763779526
        },
        {
          "duration": 0.28571450000000453,
          "durationTicks": 240,
          "midi": 54,
          "name": "F#3",
          "ticks": 50880,
          "time": 60.571473999999995,
          "velocity": 0.2440944881889764
        },
        {
          "duration": 0.28571450000000453,
          "durationTicks": 240,
          "midi": 59,
          "name": "B3",
          "ticks": 50880,
          "time": 60.571473999999995,
          "velocity": 0.2755905511811024
        },
        {
          "duration": 0.28571450000000453,
          "durationTicks": 240,
          "midi": 60,
          "name": "C4",
          "ticks": 50880,
          "time": 60.571473999999995,
          "velocity": 0.29133858267716534
        },
        {
          "duration": 0.28571449999999743,
          "durationTicks": 240,
          "midi": 28,
          "name": "E1",
          "ticks": 51120,
          "time": 60.8571885,
          "velocity": 0.5905511811023622
        },
        {
          "duration": 0.28571449999999743,
          "durationTicks": 240,
          "midi": 40,
          "name": "E2",
          "ticks": 51120,
          "time": 60.8571885,
          "velocity": 0.5905511811023622
        },
        {
          "duration": 0.28571449999999743,
          "durationTicks": 240,
          "midi": 54,
          "name": "F#3",
          "ticks": 51120,
          "time": 60.8571885,
          "velocity": 0.25984251968503935
        },
        {
          "duration": 0.28571449999999743,
          "durationTicks": 240,
          "midi": 59,
          "name": "B3",
          "ticks": 51120,
          "time": 60.8571885,
          "velocity": 0.3700787401574803
        },
        {
          "duration": 0.28571449999999743,
          "durationTicks": 240,
          "midi": 60,
          "name": "C4",
          "ticks": 51120,
          "time": 60.8571885,
          "velocity": 0.23622047244094488
        },
        {
          "duration": 0.28571449999999743,
          "durationTicks": 240,
          "midi": 30,
          "name": "F#1",
          "ticks": 51360,
          "time": 61.142903,
          "velocity": 0.48031496062992124
        },
        {
          "duration": 0.28571449999999743,
          "durationTicks": 240,
          "midi": 47,
          "name": "B2",
          "ticks": 51360,
          "time": 61.142903,
          "velocity": 0.30708661417322836
        },
        {
          "duration": 0.28571450000000453,
          "durationTicks": 240,
          "midi": 31,
          "name": "G1",
          "ticks": 51600,
          "time": 61.428617499999994,
          "velocity": 0.33858267716535434
        },
        {
          "duration": 0.28571450000000453,
          "durationTicks": 240,
          "midi": 59,
          "name": "B3",
          "ticks": 51600,
          "time": 61.428617499999994,
          "velocity": 0.5196850393700787
        },
        {
          "duration": 0.28571449999999743,
          "durationTicks": 240,
          "midi": 32,
          "name": "G#1",
          "ticks": 51840,
          "time": 61.714332,
          "velocity": 0.30708661417322836
        },
        {
          "duration": 0.28571449999999743,
          "durationTicks": 240,
          "midi": 44,
          "name": "G#2",
          "ticks": 51840,
          "time": 61.714332,
          "velocity": 0.3228346456692913
        },
        {
          "duration": 0.28571449999999743,
          "durationTicks": 240,
          "midi": 47,
          "name": "B2",
          "ticks": 51840,
          "time": 61.714332,
          "velocity": 0.5669291338582677
        },
        {
          "duration": 0.3095240416666698,
          "durationTicks": 260,
          "midi": 66,
          "name": "F#4",
          "ticks": 52080,
          "time": 62.000046499999996,
          "velocity": 0.48031496062992124
        },
        {
          "duration": 0.26190495833333216,
          "durationTicks": 220,
          "midi": 44,
          "name": "G#2",
          "ticks": 52320,
          "time": 62.285760999999994,
          "velocity": 0.29133858267716534
        },
        {
          "duration": 0.26190495833333216,
          "durationTicks": 220,
          "midi": 47,
          "name": "B2",
          "ticks": 52320,
          "time": 62.285760999999994,
          "velocity": 0.29133858267716534
        },
        {
          "duration": 0.26190495833333216,
          "durationTicks": 220,
          "midi": 54,
          "name": "F#3",
          "ticks": 52320,
          "time": 62.285760999999994,
          "velocity": 0.2677165354330709
        },
        {
          "duration": 0.26190495833333216,
          "durationTicks": 220,
          "midi": 59,
          "name": "B3",
          "ticks": 52320,
          "time": 62.285760999999994,
          "velocity": 0.29133858267716534
        },
        {
          "duration": 0.26190495833333216,
          "durationTicks": 220,
          "midi": 68,
          "name": "G#4",
          "ticks": 52320,
          "time": 62.285760999999994,
          "velocity": 0.48031496062992124
        },
        {
          "duration": 0.3095240416666698,
          "durationTicks": 260,
          "midi": 39,
          "name": "D#2",
          "ticks": 52560,
          "time": 62.5714755,
          "velocity": 0.5590551181102362
        },
        {
          "duration": 0.28571449999999743,
          "durationTicks": 240,
          "midi": 51,
          "name": "D#3",
          "ticks": 52800,
          "time": 62.857189999999996,
          "velocity": 0.7086614173228346
        },
        {
          "duration": 0.28571449999999743,
          "durationTicks": 240,
          "midi": 59,
          "name": "B3",
          "ticks": 52800,
          "time": 62.857189999999996,
          "velocity": 0.2677165354330709
        },
        {
          "duration": 0.571429000000002,
          "durationTicks": 480,
          "midi": 54,
          "name": "F#3",
          "ticks": 53040,
          "time": 63.14290449999999,
          "velocity": 0.2125984251968504
        },
        {
          "duration": 0.571429000000002,
          "durationTicks": 480,
          "midi": 59,
          "name": "B3",
          "ticks": 53040,
          "time": 63.14290449999999,
          "velocity": 0.31496062992125984
        },
        {
          "duration": 0.571429000000002,
          "durationTicks": 480,
          "midi": 63,
          "name": "D#4",
          "ticks": 53040,
          "time": 63.14290449999999,
          "velocity": 0.2204724409448819
        },
        {
          "duration": 0.11904770833333345,
          "durationTicks": 100,
          "midi": 49,
          "name": "C#3",
          "ticks": 53520,
          "time": 63.714333499999995,
          "velocity": 0.3779527559055118
        },
        {
          "duration": 0.11904770833333345,
          "durationTicks": 100,
          "midi": 54,
          "name": "F#3",
          "ticks": 53520,
          "time": 63.714333499999995,
          "velocity": 0.1889763779527559
        },
        {
          "duration": 0.09523816666666818,
          "durationTicks": 80,
          "midi": 60,
          "name": "C4",
          "ticks": 53520,
          "time": 63.714333499999995,
          "velocity": 0.2204724409448819
        },
        {
          "duration": 0.09523816666666818,
          "durationTicks": 80,
          "midi": 63,
          "name": "D#4",
          "ticks": 53520,
          "time": 63.714333499999995,
          "velocity": 0.2440944881889764
        },
        {
          "duration": 0.09523816666666818,
          "durationTicks": 80,
          "midi": 61,
          "name": "C#4",
          "ticks": 53640,
          "time": 63.857190749999994,
          "velocity": 0.3464566929133858
        },
        {
          "duration": 0.14285724999999871,
          "durationTicks": 120,
          "midi": 64,
          "name": "E4",
          "ticks": 53640,
          "time": 63.857190749999994,
          "velocity": 0.2440944881889764
        },
        {
          "duration": 0.35714312500000034,
          "durationTicks": 300,
          "midi": 65,
          "name": "F4",
          "ticks": 53640,
          "time": 63.857190749999994,
          "velocity": 0.25984251968503935
        },
        {
          "duration": 0.26190495833333216,
          "durationTicks": 220,
          "midi": 37,
          "name": "C#2",
          "ticks": 53760,
          "time": 64.00004799999999,
          "velocity": 0.4094488188976378
        },
        {
          "duration": 0.26190495833333216,
          "durationTicks": 220,
          "midi": 54,
          "name": "F#3",
          "ticks": 53760,
          "time": 64.00004799999999,
          "velocity": 0.2440944881889764
        },
        {
          "duration": 0.26190495833333216,
          "durationTicks": 220,
          "midi": 63,
          "name": "D#4",
          "ticks": 53760,
          "time": 64.00004799999999,
          "velocity": 0.2440944881889764
        },
        {
          "duration": 0.26190495833333216,
          "durationTicks": 220,
          "midi": 59,
          "name": "B3",
          "ticks": 54000,
          "time": 64.28576249999999,
          "velocity": 0.25196850393700787
        },
        {
          "duration": 0.28571449999999743,
          "durationTicks": 240,
          "midi": 63,
          "name": "D#4",
          "ticks": 54240,
          "time": 64.571477,
          "velocity": 0.5275590551181102
        },
        {
          "duration": 0.28571449999999743,
          "durationTicks": 240,
          "midi": 37,
          "name": "C#2",
          "ticks": 54480,
          "time": 64.8571915,
          "velocity": 0.48031496062992124
        },
        {
          "duration": 0.28571449999999743,
          "durationTicks": 240,
          "midi": 39,
          "name": "D#2",
          "ticks": 54480,
          "time": 64.8571915,
          "velocity": 0.33858267716535434
        },
        {
          "duration": 0.28571449999999743,
          "durationTicks": 240,
          "midi": 35,
          "name": "B1",
          "ticks": 54720,
          "time": 65.142906,
          "velocity": 0.33070866141732286
        },
        {
          "duration": 0.28571449999999743,
          "durationTicks": 240,
          "midi": 47,
          "name": "B2",
          "ticks": 54720,
          "time": 65.142906,
          "velocity": 0.5590551181102362
        },
        {
          "duration": 0.28571449999999743,
          "durationTicks": 240,
          "midi": 59,
          "name": "B3",
          "ticks": 54720,
          "time": 65.142906,
          "velocity": 0.5590551181102362
        },
        {
          "duration": 0.28571449999999743,
          "durationTicks": 240,
          "midi": 62,
          "name": "D4",
          "ticks": 54720,
          "time": 65.142906,
          "velocity": 0.25984251968503935
        },
        {
          "duration": 0.28571449999999743,
          "durationTicks": 240,
          "midi": 65,
          "name": "F4",
          "ticks": 54720,
          "time": 65.142906,
          "velocity": 0.2677165354330709
        },
        {
          "duration": 0.28571449999999743,
          "durationTicks": 240,
          "midi": 53,
          "name": "F3",
          "ticks": 54960,
          "time": 65.4286205,
          "velocity": 0.2992125984251969
        },
        {
          "duration": 0.42857175000000325,
          "durationTicks": 360,
          "midi": 56,
          "name": "G#3",
          "ticks": 55200,
          "time": 65.71433499999999,
          "velocity": 0.47244094488188976
        },
        {
          "duration": 0.14285725000000582,
          "durationTicks": 120,
          "midi": 66,
          "name": "F#4",
          "ticks": 55560,
          "time": 66.14290675,
          "velocity": 0.2755905511811024
        },
        {
          "duration": 0.28571449999999743,
          "durationTicks": 240,
          "midi": 34,
          "name": "A#1",
          "ticks": 55680,
          "time": 66.285764,
          "velocity": 0.3779527559055118
        },
        {
          "duration": 0.28571449999999743,
          "durationTicks": 240,
          "midi": 61,
          "name": "C#4",
          "ticks": 55680,
          "time": 66.285764,
          "velocity": 0.25984251968503935
        },
        {
          "duration": 0.28571449999999743,
          "durationTicks": 240,
          "midi": 64,
          "name": "E4",
          "ticks": 55680,
          "time": 66.285764,
          "velocity": 0.25984251968503935
        },
        {
          "duration": 0.26190495833333216,
          "durationTicks": 220,
          "midi": 56,
          "name": "G#3",
          "ticks": 55920,
          "time": 66.5714785,
          "velocity": 0.33858267716535434
        },
        {
          "duration": 0.28571449999999743,
          "durationTicks": 240,
          "midi": 61,
          "name": "C#4",
          "ticks": 56160,
          "time": 66.857193,
          "velocity": 0.3700787401574803
        },
        {
          "duration": 0.28571449999999743,
          "durationTicks": 240,
          "midi": 64,
          "name": "E4",
          "ticks": 56160,
          "time": 66.857193,
          "velocity": 0.2440944881889764
        },
        {
          "duration": 0.28571449999999743,
          "durationTicks": 240,
          "midi": 34,
          "name": "A#1",
          "ticks": 56400,
          "time": 67.14290749999999,
          "velocity": 0.4409448818897638
        },
        {
          "duration": 0.28571450000001164,
          "durationTicks": 240,
          "midi": 33,
          "name": "A1",
          "ticks": 56640,
          "time": 67.42862199999999,
          "velocity": 0.2755905511811024
        },
        {
          "duration": 0.28571450000001164,
          "durationTicks": 240,
          "midi": 45,
          "name": "A2",
          "ticks": 56640,
          "time": 67.42862199999999,
          "velocity": 0.23622047244094488
        },
        {
          "duration": 0.28571450000001164,
          "durationTicks": 240,
          "midi": 54,
          "name": "F#3",
          "ticks": 56640,
          "time": 67.42862199999999,
          "velocity": 0.4566929133858268
        },
        {
          "duration": 0.28571450000001164,
          "durationTicks": 240,
          "midi": 60,
          "name": "C4",
          "ticks": 56640,
          "time": 67.42862199999999,
          "velocity": 0.2204724409448819
        },
        {
          "duration": 0.28571450000001164,
          "durationTicks": 240,
          "midi": 63,
          "name": "D#4",
          "ticks": 56640,
          "time": 67.42862199999999,
          "velocity": 0.2677165354330709
        },
        {
          "duration": 0.28571450000001164,
          "durationTicks": 240,
          "midi": 66,
          "name": "F#4",
          "ticks": 56640,
          "time": 67.42862199999999,
          "velocity": 0.4566929133858268
        },
        {
          "duration": 0.28571450000001164,
          "durationTicks": 240,
          "midi": 69,
          "name": "A4",
          "ticks": 56640,
          "time": 67.42862199999999,
          "velocity": 0.3228346456692913
        },
        {
          "duration": 0.28571450000001164,
          "durationTicks": 240,
          "midi": 75,
          "name": "D#5",
          "ticks": 56640,
          "time": 67.42862199999999,
          "velocity": 0.2677165354330709
        },
        {
          "duration": 0.1428572499999916,
          "durationTicks": 120,
          "midi": 33,
          "name": "A1",
          "ticks": 56880,
          "time": 67.7143365,
          "velocity": 0.33858267716535434
        },
        {
          "duration": 0.1428572499999916,
          "durationTicks": 120,
          "midi": 45,
          "name": "A2",
          "ticks": 56880,
          "time": 67.7143365,
          "velocity": 0.3700787401574803
        },
        {
          "duration": 0.1428572499999916,
          "durationTicks": 120,
          "midi": 54,
          "name": "F#3",
          "ticks": 56880,
          "time": 67.7143365,
          "velocity": 0.48031496062992124
        },
        {
          "duration": 0.1428572499999916,
          "durationTicks": 120,
          "midi": 60,
          "name": "C4",
          "ticks": 56880,
          "time": 67.7143365,
          "velocity": 0.48031496062992124
        },
        {
          "duration": 0.09523816666666107,
          "durationTicks": 80,
          "midi": 66,
          "name": "F#4",
          "ticks": 56880,
          "time": 67.7143365,
          "velocity": 0.48031496062992124
        },
        {
          "duration": 0.0714286249999958,
          "durationTicks": 60,
          "midi": 67,
          "name": "G4",
          "ticks": 57000,
          "time": 67.85719375,
          "velocity": 0.3858267716535433
        },
        {
          "duration": 0.28571449999999743,
          "durationTicks": 240,
          "midi": 45,
          "name": "A2",
          "ticks": 57120,
          "time": 68.000051,
          "velocity": 0.36220472440944884
        },
        {
          "duration": 0.28571449999999743,
          "durationTicks": 240,
          "midi": 33,
          "name": "A1",
          "ticks": 57360,
          "time": 68.2857655,
          "velocity": 0.33858267716535434
        },
        {
          "duration": 0.28571449999999743,
          "durationTicks": 240,
          "midi": 45,
          "name": "A2",
          "ticks": 57360,
          "time": 68.2857655,
          "velocity": 0.2992125984251969
        },
        {
          "duration": 0.28571449999999743,
          "durationTicks": 240,
          "midi": 60,
          "name": "C4",
          "ticks": 57360,
          "time": 68.2857655,
          "velocity": 0.33858267716535434
        },
        {
          "duration": 0.28571449999999743,
          "durationTicks": 240,
          "midi": 69,
          "name": "A4",
          "ticks": 57360,
          "time": 68.2857655,
          "velocity": 0.2047244094488189
        },
        {
          "duration": 0.28571449999999743,
          "durationTicks": 240,
          "midi": 32,
          "name": "G#1",
          "ticks": 57600,
          "time": 68.57148,
          "velocity": 0.4015748031496063
        },
        {
          "duration": 0.28571449999999743,
          "durationTicks": 240,
          "midi": 44,
          "name": "G#2",
          "ticks": 57600,
          "time": 68.57148,
          "velocity": 0.33070866141732286
        },
        {
          "duration": 0.28571449999999743,
          "durationTicks": 240,
          "midi": 59,
          "name": "B3",
          "ticks": 57600,
          "time": 68.57148,
          "velocity": 0.2125984251968504
        },
        {
          "duration": 0.28571449999999743,
          "durationTicks": 240,
          "midi": 66,
          "name": "F#4",
          "ticks": 57600,
          "time": 68.57148,
          "velocity": 0.4645669291338583
        },
        {
          "duration": 0.28571449999999743,
          "durationTicks": 240,
          "midi": 71,
          "name": "B4",
          "ticks": 57600,
          "time": 68.57148,
          "velocity": 0.2047244094488189
        },
        {
          "duration": 0.26190495833333216,
          "durationTicks": 220,
          "midi": 54,
          "name": "F#3",
          "ticks": 57840,
          "time": 68.85719449999999,
          "velocity": 0.3464566929133858
        },
        {
          "duration": 0.26190495833333216,
          "durationTicks": 220,
          "midi": 59,
          "name": "B3",
          "ticks": 57840,
          "time": 68.85719449999999,
          "velocity": 0.4330708661417323
        },
        {
          "duration": 0.3095240416666769,
          "durationTicks": 260,
          "midi": 64,
          "name": "E4",
          "ticks": 57840,
          "time": 68.85719449999999,
          "velocity": 0.48031496062992124
        },
        {
          "duration": 0.26190495833333216,
          "durationTicks": 220,
          "midi": 76,
          "name": "E5",
          "ticks": 57840,
          "time": 68.85719449999999,
          "velocity": 0.48031496062992124
        },
        {
          "duration": 0.35714312499999323,
          "durationTicks": 300,
          "midi": 59,
          "name": "B3",
          "ticks": 57960,
          "time": 69.00005175,
          "velocity": 0.3464566929133858
        },
        {
          "duration": 0.3095240416666769,
          "durationTicks": 260,
          "midi": 64,
          "name": "E4",
          "ticks": 58080,
          "time": 69.14290899999999,
          "velocity": 0.36220472440944884
        },
        {
          "duration": 0.26190495833333216,
          "durationTicks": 220,
          "midi": 38,
          "name": "D2",
          "ticks": 58320,
          "time": 69.4286235,
          "velocity": 0.5275590551181102
        },
        {
          "duration": 0.3095240416666627,
          "durationTicks": 260,
          "midi": 50,
          "name": "D3",
          "ticks": 58320,
          "time": 69.4286235,
          "velocity": 0.5275590551181102
        },
        {
          "duration": 0.3095240416666627,
          "durationTicks": 260,
          "midi": 54,
          "name": "F#3",
          "ticks": 58320,
          "time": 69.4286235,
          "velocity": 0.2677165354330709
        },
        {
          "duration": 0.3095240416666627,
          "durationTicks": 260,
          "midi": 60,
          "name": "C4",
          "ticks": 58320,
          "time": 69.4286235,
          "velocity": 0.2755905511811024
        },
        {
          "duration": 0.3095240416666627,
          "durationTicks": 260,
          "midi": 63,
          "name": "D#4",
          "ticks": 58320,
          "time": 69.4286235,
          "velocity": 0.25196850393700787
        },
        {
          "duration": 0.3095240416666627,
          "durationTicks": 260,
          "midi": 64,
          "name": "E4",
          "ticks": 58320,
          "time": 69.4286235,
          "velocity": 0.4330708661417323
        },
        {
          "duration": 0.3095240416666627,
          "durationTicks": 260,
          "midi": 69,
          "name": "A4",
          "ticks": 58320,
          "time": 69.4286235,
          "velocity": 0.25196850393700787
        },
        {
          "duration": 0.11904770833332634,
          "durationTicks": 100,
          "midi": 66,
          "name": "F#4",
          "ticks": 58560,
          "time": 69.714338,
          "velocity": 0.3858267716535433
        },
        {
          "duration": 0.1428572499999916,
          "durationTicks": 120,
          "midi": 72,
          "name": "C5",
          "ticks": 58560,
          "time": 69.714338,
          "velocity": 0.2283464566929134
        },
        {
          "duration": 0.11904770833334055,
          "durationTicks": 100,
          "midi": 38,
          "name": "D2",
          "ticks": 58680,
          "time": 69.85719524999999,
          "velocity": 0.3700787401574803
        },
        {
          "duration": 0.28571449999999743,
          "durationTicks": 240,
          "midi": 32,
          "name": "G#1",
          "ticks": 58800,
          "time": 70.0000525,
          "velocity": 0.36220472440944884
        },
        {
          "duration": 0.28571449999999743,
          "durationTicks": 240,
          "midi": 54,
          "name": "F#3",
          "ticks": 58800,
          "time": 70.0000525,
          "velocity": 0.29133858267716534
        },
        {
          "duration": 0.28571449999999743,
          "durationTicks": 240,
          "midi": 58,
          "name": "A#3",
          "ticks": 58800,
          "time": 70.0000525,
          "velocity": 0.4881889763779528
        },
        {
          "duration": 0.28571449999999743,
          "durationTicks": 240,
          "midi": 60,
          "name": "C4",
          "ticks": 58800,
          "time": 70.0000525,
          "velocity": 0.31496062992125984
        },
        {
          "duration": 0.28571449999999743,
          "durationTicks": 240,
          "midi": 64,
          "name": "E4",
          "ticks": 58800,
          "time": 70.0000525,
          "velocity": 0.3700787401574803
        },
        {
          "duration": 0.28571449999999743,
          "durationTicks": 240,
          "midi": 72,
          "name": "C5",
          "ticks": 58800,
          "time": 70.0000525,
          "velocity": 0.31496062992125984
        },
        {
          "duration": 0.28571449999999743,
          "durationTicks": 240,
          "midi": 78,
          "name": "F#5",
          "ticks": 58800,
          "time": 70.0000525,
          "velocity": 0.31496062992125984
        },
        {
          "duration": 0.14285725000000582,
          "durationTicks": 120,
          "midi": 38,
          "name": "D2",
          "ticks": 59040,
          "time": 70.28576699999999,
          "velocity": 0.4330708661417323
        },
        {
          "duration": 0.14285725000000582,
          "durationTicks": 120,
          "midi": 64,
          "name": "E4",
          "ticks": 59040,
          "time": 70.28576699999999,
          "velocity": 0.2440944881889764
        },
        {
          "duration": 0.14285725000000582,
          "durationTicks": 120,
          "midi": 68,
          "name": "G#4",
          "ticks": 59040,
          "time": 70.28576699999999,
          "velocity": 0.2440944881889764
        },
        {
          "duration": 0.14285725000000582,
          "durationTicks": 120,
          "midi": 76,
          "name": "E5",
          "ticks": 59040,
          "time": 70.28576699999999,
          "velocity": 0.2047244094488189
        },
        {
          "duration": 0.14285725000000582,
          "durationTicks": 120,
          "midi": 80,
          "name": "G#5",
          "ticks": 59040,
          "time": 70.28576699999999,
          "velocity": 0.2440944881889764
        },
        {
          "duration": 0.21428587500000162,
          "durationTicks": 180,
          "midi": 68,
          "name": "G#4",
          "ticks": 59160,
          "time": 70.42862425,
          "velocity": 0.2755905511811024
        },
        {
          "duration": 0.19047633333333636,
          "durationTicks": 160,
          "midi": 60,
          "name": "C4",
          "ticks": 59280,
          "time": 70.57148149999999,
          "velocity": 0.5196850393700787
        },
        {
          "duration": 0.1666667916666711,
          "durationTicks": 140,
          "midi": 38,
          "name": "D2",
          "ticks": 59400,
          "time": 70.71433875,
          "velocity": 0.3464566929133858
        },
        {
          "duration": 0.28571449999999743,
          "durationTicks": 240,
          "midi": 37,
          "name": "C#2",
          "ticks": 59520,
          "time": 70.857196,
          "velocity": 0.4015748031496063
        },
        {
          "duration": 0.28571449999999743,
          "durationTicks": 240,
          "midi": 49,
          "name": "C#3",
          "ticks": 59520,
          "time": 70.857196,
          "velocity": 0.4015748031496063
        },
        {
          "duration": 0.28571449999999743,
          "durationTicks": 240,
          "midi": 54,
          "name": "F#3",
          "ticks": 59520,
          "time": 70.857196,
          "velocity": 0.2440944881889764
        },
        {
          "duration": 0.28571449999999743,
          "durationTicks": 240,
          "midi": 59,
          "name": "B3",
          "ticks": 59520,
          "time": 70.857196,
          "velocity": 0.4566929133858268
        },
        {
          "duration": 0.28571449999999743,
          "durationTicks": 240,
          "midi": 63,
          "name": "D#4",
          "ticks": 59520,
          "time": 70.857196,
          "velocity": 0.2992125984251969
        },
        {
          "duration": 0.28571449999999743,
          "durationTicks": 240,
          "midi": 68,
          "name": "G#4",
          "ticks": 59520,
          "time": 70.857196,
          "velocity": 0.33858267716535434
        },
        {
          "duration": 0.28571449999999743,
          "durationTicks": 240,
          "midi": 71,
          "name": "B4",
          "ticks": 59520,
          "time": 70.857196,
          "velocity": 0.4566929133858268
        },
        {
          "duration": 0.28571449999999743,
          "durationTicks": 240,
          "midi": 75,
          "name": "D#5",
          "ticks": 59520,
          "time": 70.857196,
          "velocity": 0.2440944881889764
        },
        {
          "duration": 0.28571449999999743,
          "durationTicks": 240,
          "midi": 80,
          "name": "G#5",
          "ticks": 59520,
          "time": 70.857196,
          "velocity": 0.29133858267716534
        },
        {
          "duration": 0.21428587500000162,
          "durationTicks": 180,
          "midi": 71,
          "name": "B4",
          "ticks": 59640,
          "time": 71.00005325,
          "velocity": 0.3779527559055118
        },
        {
          "duration": 0.11904770833332634,
          "durationTicks": 100,
          "midi": 54,
          "name": "F#3",
          "ticks": 59760,
          "time": 71.1429105,
          "velocity": 0.2440944881889764
        },
        {
          "duration": 0.14285725000000582,
          "durationTicks": 120,
          "midi": 59,
          "name": "B3",
          "ticks": 59880,
          "time": 71.28576774999999,
          "velocity": 0.41732283464566927
        },
        {
          "duration": 0.14285725000000582,
          "durationTicks": 120,
          "midi": 68,
          "name": "G#4",
          "ticks": 59880,
          "time": 71.28576774999999,
          "velocity": 0.31496062992125984
        },
        {
          "duration": 0.14285725000000582,
          "durationTicks": 120,
          "midi": 76,
          "name": "E5",
          "ticks": 59880,
          "time": 71.28576774999999,
          "velocity": 0.1968503937007874
        },
        {
          "duration": 0.1666667916666711,
          "durationTicks": 140,
          "midi": 63,
          "name": "D#4",
          "ticks": 60000,
          "time": 71.428625,
          "velocity": 0.30708661417322836
        },
        {
          "duration": 0.1666667916666711,
          "durationTicks": 140,
          "midi": 66,
          "name": "F#4",
          "ticks": 60000,
          "time": 71.428625,
          "velocity": 0.31496062992125984
        },
        {
          "duration": 0.1666667916666711,
          "durationTicks": 140,
          "midi": 75,
          "name": "D#5",
          "ticks": 60000,
          "time": 71.428625,
          "velocity": 0.2677165354330709
        },
        {
          "duration": 0.19047633333332215,
          "durationTicks": 160,
          "midi": 64,
          "name": "E4",
          "ticks": 60120,
          "time": 71.57148225,
          "velocity": 0.25984251968503935
        },
        {
          "duration": 0.19047633333332215,
          "durationTicks": 160,
          "midi": 73,
          "name": "C#5",
          "ticks": 60120,
          "time": 71.57148225,
          "velocity": 0.2283464566929134
        },
        {
          "duration": 0.1428572499999916,
          "durationTicks": 120,
          "midi": 76,
          "name": "E5",
          "ticks": 60120,
          "time": 71.57148225,
          "velocity": 0.2677165354330709
        },
        {
          "duration": 0.26190495833333216,
          "durationTicks": 220,
          "midi": 32,
          "name": "G#1",
          "ticks": 60240,
          "time": 71.7143395,
          "velocity": 0.4015748031496063
        },
        {
          "duration": 0.26190495833333216,
          "durationTicks": 220,
          "midi": 44,
          "name": "G#2",
          "ticks": 60240,
          "time": 71.7143395,
          "velocity": 0.33858267716535434
        },
        {
          "duration": 0.26190495833333216,
          "durationTicks": 220,
          "midi": 49,
          "name": "C#3",
          "ticks": 60240,
          "time": 71.7143395,
          "velocity": 0.4015748031496063
        },
        {
          "duration": 0.26190495833333216,
          "durationTicks": 220,
          "midi": 63,
          "name": "D#4",
          "ticks": 60240,
          "time": 71.7143395,
          "velocity": 0.33070866141732286
        },
        {
          "duration": 0.26190495833333216,
          "durationTicks": 220,
          "midi": 68,
          "name": "G#4",
          "ticks": 60240,
          "time": 71.7143395,
          "velocity": 0.29133858267716534
        },
        {
          "duration": 0.26190495833333216,
          "durationTicks": 220,
          "midi": 71,
          "name": "B4",
          "ticks": 60240,
          "time": 71.7143395,
          "velocity": 0.2992125984251969
        },
        {
          "duration": 0.26190495833333216,
          "durationTicks": 220,
          "midi": 75,
          "name": "D#5",
          "ticks": 60240,
          "time": 71.7143395,
          "velocity": 0.2047244094488189
        },
        {
          "duration": 0.14285725000000582,
          "durationTicks": 120,
          "midi": 49,
          "name": "C#3",
          "ticks": 60480,
          "time": 72.00005399999999,
          "velocity": 0.36220472440944884
        },
        {
          "duration": 0.14285725000000582,
          "durationTicks": 120,
          "midi": 54,
          "name": "F#3",
          "ticks": 60480,
          "time": 72.00005399999999,
          "velocity": 0.2755905511811024
        },
        {
          "duration": 0.14285725000000582,
          "durationTicks": 120,
          "midi": 59,
          "name": "B3",
          "ticks": 60480,
          "time": 72.00005399999999,
          "velocity": 0.44881889763779526
        },
        {
          "duration": 0.14285725000000582,
          "durationTicks": 120,
          "midi": 71,
          "name": "B4",
          "ticks": 60480,
          "time": 72.00005399999999,
          "velocity": 0.2440944881889764
        },
        {
          "duration": 0.1428572499999916,
          "durationTicks": 120,
          "midi": 44,
          "name": "G#2",
          "ticks": 60600,
          "time": 72.14291125,
          "velocity": 0.33070866141732286
        },
        {
          "duration": 0.14285725000000582,
          "durationTicks": 120,
          "midi": 49,
          "name": "C#3",
          "ticks": 60720,
          "time": 72.28576849999999,
          "velocity": 0.33070866141732286
        },
        {
          "duration": 0.14285725000000582,
          "durationTicks": 120,
          "midi": 54,
          "name": "F#3",
          "ticks": 60720,
          "time": 72.28576849999999,
          "velocity": 0.4094488188976378
        },
        {
          "duration": 0.14285725000000582,
          "durationTicks": 120,
          "midi": 63,
          "name": "D#4",
          "ticks": 60720,
          "time": 72.28576849999999,
          "velocity": 0.33070866141732286
        },
        {
          "duration": 0.14285725000000582,
          "durationTicks": 120,
          "midi": 71,
          "name": "B4",
          "ticks": 60720,
          "time": 72.28576849999999,
          "velocity": 0.29133858267716534
        },
        {
          "duration": 0.14285725000000582,
          "durationTicks": 120,
          "midi": 75,
          "name": "D#5",
          "ticks": 60720,
          "time": 72.28576849999999,
          "velocity": 0.2992125984251969
        },
        {
          "duration": 0.14285725000000582,
          "durationTicks": 120,
          "midi": 71,
          "name": "B4",
          "ticks": 60840,
          "time": 72.42862575,
          "velocity": 0.28346456692913385
        },
        {
          "duration": 0.28571449999999743,
          "durationTicks": 240,
          "midi": 49,
          "name": "C#3",
          "ticks": 60960,
          "time": 72.571483,
          "velocity": 0.30708661417322836
        },
        {
          "duration": 0.28571449999999743,
          "durationTicks": 240,
          "midi": 59,
          "name": "B3",
          "ticks": 60960,
          "time": 72.571483,
          "velocity": 0.33070866141732286
        },
        {
          "duration": 0.28571449999999743,
          "durationTicks": 240,
          "midi": 63,
          "name": "D#4",
          "ticks": 60960,
          "time": 72.571483,
          "velocity": 0.3858267716535433
        },
        {
          "duration": 0.1428572499999916,
          "durationTicks": 120,
          "midi": 32,
          "name": "G#1",
          "ticks": 61200,
          "time": 72.8571975,
          "velocity": 0.3779527559055118
        },
        {
          "duration": 0.1428572499999916,
          "durationTicks": 120,
          "midi": 44,
          "name": "G#2",
          "ticks": 61200,
          "time": 72.8571975,
          "velocity": 0.3779527559055118
        },
        {
          "duration": 0.11904770833334055,
          "durationTicks": 100,
          "midi": 65,
          "name": "F4",
          "ticks": 61320,
          "time": 73.00005474999999,
          "velocity": 0.3543307086614173
        },
        {
          "duration": 0.8571435000000065,
          "durationTicks": 720,
          "midi": 37,
          "name": "C#2",
          "ticks": 61440,
          "time": 73.142912,
          "velocity": 0.4094488188976378
        },
        {
          "duration": 0.8571435000000065,
          "durationTicks": 720,
          "midi": 49,
          "name": "C#3",
          "ticks": 61440,
          "time": 73.142912,
          "velocity": 0.4094488188976378
        },
        {
          "duration": 0.8571435000000065,
          "durationTicks": 720,
          "midi": 53,
          "name": "F3",
          "ticks": 61440,
          "time": 73.142912,
          "velocity": 0.3543307086614173
        },
        {
          "duration": 0.8571435000000065,
          "durationTicks": 720,
          "midi": 59,
          "name": "B3",
          "ticks": 61440,
          "time": 73.142912,
          "velocity": 0.2677165354330709
        },
        {
          "duration": 0.8571435000000065,
          "durationTicks": 720,
          "midi": 61,
          "name": "C#4",
          "ticks": 61440,
          "time": 73.142912,
          "velocity": 0.2755905511811024
        },
        {
          "duration": 0.8571435000000065,
          "durationTicks": 720,
          "midi": 64,
          "name": "E4",
          "ticks": 61440,
          "time": 73.142912,
          "velocity": 0.3779527559055118
        },
        {
          "duration": 0.2142858749999874,
          "durationTicks": 180,
          "midi": 36,
          "name": "C2",
          "ticks": 62160,
          "time": 74.0000555,
          "velocity": 0.31496062992125984
        },
        {
          "duration": 0.7380957916666517,
          "durationTicks": 620,
          "midi": 31,
          "name": "G1",
          "ticks": 62400,
          "time": 74.28577,
          "velocity": 0.3700787401574803
        },
        {
          "duration": 0.7380957916666517,
          "durationTicks": 620,
          "midi": 43,
          "name": "G2",
          "ticks": 62400,
          "time": 74.28577,
          "velocity": 0.3700787401574803
        },
        {
          "duration": 0.6904767083333354,
          "durationTicks": 580,
          "midi": 53,
          "name": "F3",
          "ticks": 62400,
          "time": 74.28577,
          "velocity": 0.23622047244094488
        },
        {
          "duration": 0.6904767083333354,
          "durationTicks": 580,
          "midi": 55,
          "name": "G3",
          "ticks": 62400,
          "time": 74.28577,
          "velocity": 0.3858267716535433
        },
        {
          "duration": 0.7380957916666517,
          "durationTicks": 620,
          "midi": 59,
          "name": "B3",
          "ticks": 62400,
          "time": 74.28577,
          "velocity": 0.25984251968503935
        },
        {
          "duration": 0.7380957916666517,
          "durationTicks": 620,
          "midi": 63,
          "name": "D#4",
          "ticks": 62400,
          "time": 74.28577,
          "velocity": 0.29133858267716534
        },
        {
          "duration": 0.23809541666665268,
          "durationTicks": 200,
          "midi": 41,
          "name": "F2",
          "ticks": 63000,
          "time": 75.00005625,
          "velocity": 0.29133858267716534
        },
        {
          "duration": 0.23809541666665268,
          "durationTicks": 200,
          "midi": 43,
          "name": "G2",
          "ticks": 63000,
          "time": 75.00005625,
          "velocity": 0.4330708661417323
        },
        {
          "duration": 0.19047633333333636,
          "durationTicks": 160,
          "midi": 28,
          "name": "E1",
          "ticks": 63240,
          "time": 75.28577075,
          "velocity": 0.2204724409448819
        },
        {
          "duration": 0.14285725000000582,
          "durationTicks": 120,
          "midi": 30,
          "name": "F#1",
          "ticks": 63360,
          "time": 75.42862799999999,
          "velocity": 0.6299212598425197
        },
        {
          "duration": 0.14285725000000582,
          "durationTicks": 120,
          "midi": 42,
          "name": "F#2",
          "ticks": 63360,
          "time": 75.42862799999999,
          "velocity": 0.6299212598425197
        },
        {
          "duration": 0.14285725000000582,
          "durationTicks": 120,
          "midi": 56,
          "name": "G#3",
          "ticks": 63360,
          "time": 75.42862799999999,
          "velocity": 0.25196850393700787
        },
        {
          "duration": 0.14285725000000582,
          "durationTicks": 120,
          "midi": 57,
          "name": "A3",
          "ticks": 63360,
          "time": 75.42862799999999,
          "velocity": 0.33070866141732286
        },
        {
          "duration": 0.14285725000000582,
          "durationTicks": 120,
          "midi": 61,
          "name": "C#4",
          "ticks": 63360,
          "time": 75.42862799999999,
          "velocity": 0.23622047244094488
        },
        {
          "duration": 0.11904770833334055,
          "durationTicks": 100,
          "midi": 61,
          "name": "C#4",
          "ticks": 63480,
          "time": 75.57148525,
          "velocity": 0.3937007874015748
        },
        {
          "duration": 0.1428572499999916,
          "durationTicks": 120,
          "midi": 52,
          "name": "E3",
          "ticks": 63600,
          "time": 75.7143425,
          "velocity": 0.28346456692913385
        },
        {
          "duration": 0.28571449999999743,
          "durationTicks": 240,
          "midi": 37,
          "name": "C#2",
          "ticks": 63720,
          "time": 75.85719974999999,
          "velocity": 0.3228346456692913
        },
        {
          "duration": 0.28571449999999743,
          "durationTicks": 240,
          "midi": 57,
          "name": "A3",
          "ticks": 63720,
          "time": 75.85719974999999,
          "velocity": 0.33070866141732286
        },
        {
          "duration": 0.14285725000000582,
          "durationTicks": 120,
          "midi": 61,
          "name": "C#4",
          "ticks": 63960,
          "time": 76.14291424999999,
          "velocity": 0.36220472440944884
        },
        {
          "duration": 0.14285725000000582,
          "durationTicks": 120,
          "midi": 64,
          "name": "E4",
          "ticks": 63960,
          "time": 76.14291424999999,
          "velocity": 0.23622047244094488
        },
        {
          "duration": 0.11904770833334055,
          "durationTicks": 100,
          "midi": 66,
          "name": "F#4",
          "ticks": 63960,
          "time": 76.14291424999999,
          "velocity": 0.3779527559055118
        },
        {
          "duration": 0.26190495833333216,
          "durationTicks": 220,
          "midi": 42,
          "name": "F#2",
          "ticks": 64080,
          "time": 76.2857715,
          "velocity": 0.6456692913385826
        },
        {
          "duration": 0.11904770833334055,
          "durationTicks": 100,
          "midi": 64,
          "name": "E4",
          "ticks": 64320,
          "time": 76.571486,
          "velocity": 0.4015748031496063
        },
        {
          "duration": 0.11904770833334055,
          "durationTicks": 100,
          "midi": 68,
          "name": "G#4",
          "ticks": 64320,
          "time": 76.571486,
          "velocity": 0.4566929133858268
        },
        {
          "duration": 0.11904770833334055,
          "durationTicks": 100,
          "midi": 83,
          "name": "B5",
          "ticks": 64320,
          "time": 76.571486,
          "velocity": 0.3464566929133858
        },
        {
          "duration": 0.1428572499999916,
          "durationTicks": 120,
          "midi": 42,
          "name": "F#2",
          "ticks": 64440,
          "time": 76.71434325,
          "velocity": 0.44881889763779526
        },
        {
          "duration": 0.1666667916666711,
          "durationTicks": 140,
          "midi": 37,
          "name": "C#2",
          "ticks": 64560,
          "time": 76.85720049999999,
          "velocity": 0.33858267716535434
        },
        {
          "duration": 0.1666667916666711,
          "durationTicks": 140,
          "midi": 52,
          "name": "E3",
          "ticks": 64560,
          "time": 76.85720049999999,
          "velocity": 0.36220472440944884
        },
        {
          "duration": 0.1666667916666711,
          "durationTicks": 140,
          "midi": 73,
          "name": "C#5",
          "ticks": 64560,
          "time": 76.85720049999999,
          "velocity": 0.2677165354330709
        },
        {
          "duration": 0.14285725000000582,
          "durationTicks": 120,
          "midi": 57,
          "name": "A3",
          "ticks": 64680,
          "time": 77.00005775,
          "velocity": 0.31496062992125984
        },
        {
          "duration": 0.1428572499999916,
          "durationTicks": 120,
          "midi": 30,
          "name": "F#1",
          "ticks": 64800,
          "time": 77.142915,
          "velocity": 0.47244094488188976
        },
        {
          "duration": 0.1428572499999916,
          "durationTicks": 120,
          "midi": 59,
          "name": "B3",
          "ticks": 64800,
          "time": 77.142915,
          "velocity": 0.1889763779527559
        },
        {
          "duration": 0.1428572499999916,
          "durationTicks": 120,
          "midi": 68,
          "name": "G#4",
          "ticks": 64800,
          "time": 77.142915,
          "velocity": 0.33070866141732286
        },
        {
          "duration": 0.16666679166665688,
          "durationTicks": 140,
          "midi": 61,
          "name": "C#4",
          "ticks": 64920,
          "time": 77.28577225,
          "velocity": 0.2283464566929134
        },
        {
          "duration": 0.28571449999999743,
          "durationTicks": 240,
          "midi": 40,
          "name": "E2",
          "ticks": 65040,
          "time": 77.4286295,
          "velocity": 0.31496062992125984
        },
        {
          "duration": 0.1428572499999916,
          "durationTicks": 120,
          "midi": 32,
          "name": "G#1",
          "ticks": 65280,
          "time": 77.714344,
          "velocity": 0.4881889763779528
        },
        {
          "duration": 0.1428572499999916,
          "durationTicks": 120,
          "midi": 51,
          "name": "D#3",
          "ticks": 65280,
          "time": 77.714344,
          "velocity": 0.29133858267716534
        },
        {
          "duration": 0.1428572499999916,
          "durationTicks": 120,
          "midi": 58,
          "name": "A#3",
          "ticks": 65280,
          "time": 77.714344,
          "velocity": 0.2677165354330709
        },
        {
          "duration": 0.1428572499999916,
          "durationTicks": 120,
          "midi": 59,
          "name": "B3",
          "ticks": 65280,
          "time": 77.714344,
          "velocity": 0.3937007874015748
        },
        {
          "duration": 0.1428572499999916,
          "durationTicks": 120,
          "midi": 61,
          "name": "C#4",
          "ticks": 65280,
          "time": 77.714344,
          "velocity": 0.2125984251968504
        },
        {
          "duration": 0.1428572499999916,
          "durationTicks": 120,
          "midi": 64,
          "name": "E4",
          "ticks": 65280,
          "time": 77.714344,
          "velocity": 0.1968503937007874
        },
        {
          "duration": 0.1428572499999916,
          "durationTicks": 120,
          "midi": 70,
          "name": "A#4",
          "ticks": 65280,
          "time": 77.714344,
          "velocity": 0.2677165354330709
        },
        {
          "duration": 0.11904770833334055,
          "durationTicks": 100,
          "midi": 61,
          "name": "C#4",
          "ticks": 65400,
          "time": 77.85720124999999,
          "velocity": 0.3779527559055118
        },
        {
          "duration": 0.14285725000000582,
          "durationTicks": 120,
          "midi": 54,
          "name": "F#3",
          "ticks": 65520,
          "time": 78.0000585,
          "velocity": 0.25984251968503935
        },
        {
          "duration": 0.14285725000000582,
          "durationTicks": 120,
          "midi": 59,
          "name": "B3",
          "ticks": 65520,
          "time": 78.0000585,
          "velocity": 0.3464566929133858
        },
        {
          "duration": 0.14285725000000582,
          "durationTicks": 120,
          "midi": 70,
          "name": "A#4",
          "ticks": 65520,
          "time": 78.0000585,
          "velocity": 0.2440944881889764
        },
        {
          "duration": 0.3095240416666627,
          "durationTicks": 260,
          "midi": 39,
          "name": "D#2",
          "ticks": 65640,
          "time": 78.14291575,
          "velocity": 0.3779527559055118
        },
        {
          "duration": 0.26190495833333216,
          "durationTicks": 220,
          "midi": 70,
          "name": "A#4",
          "ticks": 65640,
          "time": 78.14291575,
          "velocity": 0.30708661417322836
        },
        {
          "duration": 0.1428572499999916,
          "durationTicks": 120,
          "midi": 59,
          "name": "B3",
          "ticks": 65880,
          "time": 78.42863025,
          "velocity": 0.2677165354330709
        },
        {
          "duration": 0.3095240416666627,
          "durationTicks": 260,
          "midi": 44,
          "name": "G#2",
          "ticks": 66000,
          "time": 78.57148749999999,
          "velocity": 0.4645669291338583
        },
        {
          "duration": 0.3095240416666627,
          "durationTicks": 260,
          "midi": 63,
          "name": "D#4",
          "ticks": 66000,
          "time": 78.57148749999999,
          "velocity": 0.2992125984251969
        },
        {
          "duration": 0.3095240416666627,
          "durationTicks": 260,
          "midi": 66,
          "name": "F#4",
          "ticks": 66000,
          "time": 78.57148749999999,
          "velocity": 0.31496062992125984
        },
        {
          "duration": 0.3095240416666627,
          "durationTicks": 260,
          "midi": 71,
          "name": "B4",
          "ticks": 66000,
          "time": 78.57148749999999,
          "velocity": 0.2283464566929134
        },
        {
          "duration": 0.3095240416666627,
          "durationTicks": 260,
          "midi": 83,
          "name": "B5",
          "ticks": 66000,
          "time": 78.57148749999999,
          "velocity": 0.2283464566929134
        },
        {
          "duration": 0.16666679166665688,
          "durationTicks": 140,
          "midi": 44,
          "name": "G#2",
          "ticks": 66240,
          "time": 78.857202,
          "velocity": 0.36220472440944884
        },
        {
          "duration": 0.11904770833332634,
          "durationTicks": 100,
          "midi": 56,
          "name": "G#3",
          "ticks": 66240,
          "time": 78.857202,
          "velocity": 0.4409448818897638
        },
        {
          "duration": 0.16666679166665688,
          "durationTicks": 140,
          "midi": 59,
          "name": "B3",
          "ticks": 66240,
          "time": 78.857202,
          "velocity": 0.25984251968503935
        },
        {
          "duration": 0.11904770833332634,
          "durationTicks": 100,
          "midi": 68,
          "name": "G#4",
          "ticks": 66240,
          "time": 78.857202,
          "velocity": 0.4409448818897638
        },
        {
          "duration": 0.11904770833332634,
          "durationTicks": 100,
          "midi": 71,
          "name": "B4",
          "ticks": 66240,
          "time": 78.857202,
          "velocity": 0.2283464566929134
        },
        {
          "duration": 0.14285725000000582,
          "durationTicks": 120,
          "midi": 44,
          "name": "G#2",
          "ticks": 66360,
          "time": 79.00005924999999,
          "velocity": 0.4566929133858268
        },
        {
          "duration": 0.14285725000000582,
          "durationTicks": 120,
          "midi": 63,
          "name": "D#4",
          "ticks": 66360,
          "time": 79.00005924999999,
          "velocity": 0.2677165354330709
        },
        {
          "duration": 0.16666679166665688,
          "durationTicks": 140,
          "midi": 39,
          "name": "D#2",
          "ticks": 66480,
          "time": 79.1429165,
          "velocity": 0.4015748031496063
        },
        {
          "duration": 0.16666679166665688,
          "durationTicks": 140,
          "midi": 54,
          "name": "F#3",
          "ticks": 66480,
          "time": 79.1429165,
          "velocity": 0.2755905511811024
        },
        {
          "duration": 0.14285725000000582,
          "durationTicks": 120,
          "midi": 58,
          "name": "A#3",
          "ticks": 66600,
          "time": 79.28577374999999,
          "velocity": 0.3858267716535433
        },
        {
          "duration": 0.14285725000000582,
          "durationTicks": 120,
          "midi": 32,
          "name": "G#1",
          "ticks": 66720,
          "time": 79.428631,
          "velocity": 0.4881889763779528
        },
        {
          "duration": 0.14285725000000582,
          "durationTicks": 120,
          "midi": 59,
          "name": "B3",
          "ticks": 66720,
          "time": 79.428631,
          "velocity": 0.2992125984251969
        },
        {
          "duration": 0.14285725000000582,
          "durationTicks": 120,
          "midi": 63,
          "name": "D#4",
          "ticks": 66720,
          "time": 79.428631,
          "velocity": 0.25984251968503935
        },
        {
          "duration": 0.11904770833332634,
          "durationTicks": 100,
          "midi": 59,
          "name": "B3",
          "ticks": 66840,
          "time": 79.57148825,
          "velocity": 0.3464566929133858
        },
        {
          "duration": 0.14285725000000582,
          "durationTicks": 120,
          "midi": 31,
          "name": "G1",
          "ticks": 66960,
          "time": 79.7143455,
          "velocity": 0.25984251968503935
        },
        {
          "duration": 0.14285725000000582,
          "durationTicks": 120,
          "midi": 40,
          "name": "E2",
          "ticks": 66960,
          "time": 79.7143455,
          "velocity": 0.41732283464566927
        },
        {
          "duration": 0.14285725000000582,
          "durationTicks": 120,
          "midi": 44,
          "name": "G#2",
          "ticks": 66960,
          "time": 79.7143455,
          "velocity": 0.4330708661417323
        },
        {
          "duration": 0.21428587500000162,
          "durationTicks": 180,
          "midi": 66,
          "name": "F#4",
          "ticks": 66960,
          "time": 79.7143455,
          "velocity": 0.2047244094488189
        },
        {
          "duration": 0.16666679166665688,
          "durationTicks": 140,
          "midi": 32,
          "name": "G#1",
          "ticks": 67080,
          "time": 79.85720275,
          "velocity": 0.3228346456692913
        },
        {
          "duration": 0.0714286249999958,
          "durationTicks": 60,
          "midi": 63,
          "name": "D#4",
          "ticks": 67080,
          "time": 79.85720275,
          "velocity": 0.30708661417322836
        },
        {
          "duration": 0.0714286249999958,
          "durationTicks": 60,
          "midi": 67,
          "name": "G4",
          "ticks": 67080,
          "time": 79.85720275,
          "velocity": 0.3858267716535433
        },
        {
          "duration": 0.28571449999999743,
          "durationTicks": 240,
          "midi": 33,
          "name": "A1",
          "ticks": 67200,
          "time": 80.00005999999999,
          "velocity": 0.41732283464566927
        },
        {
          "duration": 0.28571449999999743,
          "durationTicks": 240,
          "midi": 40,
          "name": "E2",
          "ticks": 67200,
          "time": 80.00005999999999,
          "velocity": 0.3700787401574803
        },
        {
          "duration": 0.28571449999999743,
          "durationTicks": 240,
          "midi": 45,
          "name": "A2",
          "ticks": 67200,
          "time": 80.00005999999999,
          "velocity": 0.41732283464566927
        },
        {
          "duration": 0.28571449999999743,
          "durationTicks": 240,
          "midi": 56,
          "name": "G#3",
          "ticks": 67200,
          "time": 80.00005999999999,
          "velocity": 0.31496062992125984
        },
        {
          "duration": 0.28571449999999743,
          "durationTicks": 240,
          "midi": 60,
          "name": "C4",
          "ticks": 67200,
          "time": 80.00005999999999,
          "velocity": 0.2125984251968504
        },
        {
          "duration": 0.28571449999999743,
          "durationTicks": 240,
          "midi": 64,
          "name": "E4",
          "ticks": 67200,
          "time": 80.00005999999999,
          "velocity": 0.4330708661417323
        },
        {
          "duration": 0.28571449999999743,
          "durationTicks": 240,
          "midi": 68,
          "name": "G#4",
          "ticks": 67200,
          "time": 80.00005999999999,
          "velocity": 0.31496062992125984
        },
        {
          "duration": 0.28571449999999743,
          "durationTicks": 240,
          "midi": 76,
          "name": "E5",
          "ticks": 67200,
          "time": 80.00005999999999,
          "velocity": 0.2047244094488189
        },
        {
          "duration": 0.14285725000000582,
          "durationTicks": 120,
          "midi": 60,
          "name": "C4",
          "ticks": 67440,
          "time": 80.28577449999999,
          "velocity": 0.29133858267716534
        },
        {
          "duration": 0.3095240416666627,
          "durationTicks": 260,
          "midi": 40,
          "name": "E2",
          "ticks": 67560,
          "time": 80.42863175,
          "velocity": 0.4094488188976378
        },
        {
          "duration": 0.3095240416666627,
          "durationTicks": 260,
          "midi": 56,
          "name": "G#3",
          "ticks": 67560,
          "time": 80.42863175,
          "velocity": 0.33858267716535434
        },
        {
          "duration": 0.3095240416666627,
          "durationTicks": 260,
          "midi": 60,
          "name": "C4",
          "ticks": 67560,
          "time": 80.42863175,
          "velocity": 0.28346456692913385
        },
        {
          "duration": 0.14285725000000582,
          "durationTicks": 120,
          "midi": 40,
          "name": "E2",
          "ticks": 67800,
          "time": 80.71434624999999,
          "velocity": 0.2677165354330709
        },
        {
          "duration": 0.14285725000000582,
          "durationTicks": 120,
          "midi": 60,
          "name": "C4",
          "ticks": 67800,
          "time": 80.71434624999999,
          "velocity": 0.28346456692913385
        },
        {
          "duration": 0.14285725000000582,
          "durationTicks": 120,
          "midi": 64,
          "name": "E4",
          "ticks": 67800,
          "time": 80.71434624999999,
          "velocity": 0.5590551181102362
        },
        {
          "duration": 0.16666679166665688,
          "durationTicks": 140,
          "midi": 45,
          "name": "A2",
          "ticks": 67920,
          "time": 80.8572035,
          "velocity": 0.33070866141732286
        },
        {
          "duration": 0.11904770833334055,
          "durationTicks": 100,
          "midi": 54,
          "name": "F#3",
          "ticks": 67920,
          "time": 80.8572035,
          "velocity": 0.29133858267716534
        },
        {
          "duration": 0.14285725000000582,
          "durationTicks": 120,
          "midi": 60,
          "name": "C4",
          "ticks": 68040,
          "time": 81.00006074999999,
          "velocity": 0.30708661417322836
        },
        {
          "duration": 0.14285725000000582,
          "durationTicks": 120,
          "midi": 64,
          "name": "E4",
          "ticks": 68040,
          "time": 81.00006074999999,
          "velocity": 0.4409448818897638
        },
        {
          "duration": 0.26190495833333216,
          "durationTicks": 220,
          "midi": 45,
          "name": "A2",
          "ticks": 68160,
          "time": 81.142918,
          "velocity": 0.5118110236220472
        },
        {
          "duration": 0.26190495833333216,
          "durationTicks": 220,
          "midi": 60,
          "name": "C4",
          "ticks": 68160,
          "time": 81.142918,
          "velocity": 0.29133858267716534
        },
        {
          "duration": 0.26190495833333216,
          "durationTicks": 220,
          "midi": 66,
          "name": "F#4",
          "ticks": 68160,
          "time": 81.142918,
          "velocity": 0.3228346456692913
        },
        {
          "duration": 0.14285725000000582,
          "durationTicks": 120,
          "midi": 45,
          "name": "A2",
          "ticks": 68400,
          "time": 81.42863249999999,
          "velocity": 0.4566929133858268
        },
        {
          "duration": 0.14285725000000582,
          "durationTicks": 120,
          "midi": 54,
          "name": "F#3",
          "ticks": 68400,
          "time": 81.42863249999999,
          "velocity": 0.2992125984251969
        },
        {
          "duration": 0.14285725000000582,
          "durationTicks": 120,
          "midi": 64,
          "name": "E4",
          "ticks": 68400,
          "time": 81.42863249999999,
          "velocity": 0.5984251968503937
        },
        {
          "duration": 0.11904770833334055,
          "durationTicks": 100,
          "midi": 40,
          "name": "E2",
          "ticks": 68520,
          "time": 81.57148975,
          "velocity": 0.4409448818897638
        },
        {
          "duration": 0.16666679166665688,
          "durationTicks": 140,
          "midi": 60,
          "name": "C4",
          "ticks": 68520,
          "time": 81.57148975,
          "velocity": 0.3228346456692913
        },
        {
          "duration": 0.28571450000001164,
          "durationTicks": 240,
          "midi": 59,
          "name": "B3",
          "ticks": 68640,
          "time": 81.71434699999999,
          "velocity": 0.2755905511811024
        },
        {
          "duration": 0.28571450000001164,
          "durationTicks": 240,
          "midi": 64,
          "name": "E4",
          "ticks": 68640,
          "time": 81.71434699999999,
          "velocity": 0.5039370078740157
        },
        {
          "duration": 0.28571449999999743,
          "durationTicks": 240,
          "midi": 45,
          "name": "A2",
          "ticks": 68880,
          "time": 82.0000615,
          "velocity": 0.3543307086614173
        },
        {
          "duration": 0.33333358333332797,
          "durationTicks": 280,
          "midi": 63,
          "name": "D#4",
          "ticks": 68880,
          "time": 82.0000615,
          "velocity": 0.6220472440944882
        },
        {
          "duration": 0.28571449999999743,
          "durationTicks": 240,
          "midi": 47,
          "name": "B2",
          "ticks": 69120,
          "time": 82.285776,
          "velocity": 0.30708661417322836
        },
        {
          "duration": 0.28571449999999743,
          "durationTicks": 240,
          "midi": 56,
          "name": "G#3",
          "ticks": 69120,
          "time": 82.285776,
          "velocity": 0.30708661417322836
        },
        {
          "duration": 0.28571449999999743,
          "durationTicks": 240,
          "midi": 59,
          "name": "B3",
          "ticks": 69120,
          "time": 82.285776,
          "velocity": 0.31496062992125984
        },
        {
          "duration": 0.3333335833333422,
          "durationTicks": 280,
          "midi": 63,
          "name": "D#4",
          "ticks": 69120,
          "time": 82.285776,
          "velocity": 0.7637795275590551
        },
        {
          "duration": 0.28571449999999743,
          "durationTicks": 240,
          "midi": 64,
          "name": "E4",
          "ticks": 69120,
          "time": 82.285776,
          "velocity": 0.2677165354330709
        },
        {
          "duration": 0.14285725000000582,
          "durationTicks": 120,
          "midi": 33,
          "name": "A1",
          "ticks": 69360,
          "time": 82.5714905,
          "velocity": 0.2125984251968504
        },
        {
          "duration": 0.14285725000000582,
          "durationTicks": 120,
          "midi": 47,
          "name": "B2",
          "ticks": 69360,
          "time": 82.5714905,
          "velocity": 0.3464566929133858
        },
        {
          "duration": 0.16666679166665688,
          "durationTicks": 140,
          "midi": 44,
          "name": "G#2",
          "ticks": 69480,
          "time": 82.71434775,
          "velocity": 0.4881889763779528
        },
        {
          "duration": 0.11904770833332634,
          "durationTicks": 100,
          "midi": 56,
          "name": "G#3",
          "ticks": 69480,
          "time": 82.71434775,
          "velocity": 0.4330708661417323
        },
        {
          "duration": 0.14285725000000582,
          "durationTicks": 120,
          "midi": 44,
          "name": "G#2",
          "ticks": 69600,
          "time": 82.857205,
          "velocity": 0.5590551181102362
        },
        {
          "duration": 0.14285725000000582,
          "durationTicks": 120,
          "midi": 63,
          "name": "D#4",
          "ticks": 69600,
          "time": 82.857205,
          "velocity": 0.3858267716535433
        },
        {
          "duration": 0.1428572499999916,
          "durationTicks": 120,
          "midi": 59,
          "name": "B3",
          "ticks": 69720,
          "time": 83.00006225,
          "velocity": 0.28346456692913385
        },
        {
          "duration": 0.14285725000000582,
          "durationTicks": 120,
          "midi": 47,
          "name": "B2",
          "ticks": 69840,
          "time": 83.14291949999999,
          "velocity": 0.5511811023622047
        },
        {
          "duration": 0.14285725000000582,
          "durationTicks": 120,
          "midi": 59,
          "name": "B3",
          "ticks": 69840,
          "time": 83.14291949999999,
          "velocity": 0.5511811023622047
        },
        {
          "duration": 0.14285725000000582,
          "durationTicks": 120,
          "midi": 71,
          "name": "B4",
          "ticks": 69840,
          "time": 83.14291949999999,
          "velocity": 0.33858267716535434
        },
        {
          "duration": 0.19047633333333636,
          "durationTicks": 160,
          "midi": 61,
          "name": "C#4",
          "ticks": 69960,
          "time": 83.28577675,
          "velocity": 0.41732283464566927
        },
        {
          "duration": 0.28571450000001164,
          "durationTicks": 240,
          "midi": 47,
          "name": "B2",
          "ticks": 70080,
          "time": 83.42863399999999,
          "velocity": 0.5039370078740157
        },
        {
          "duration": 0.28571450000001164,
          "durationTicks": 240,
          "midi": 49,
          "name": "C#3",
          "ticks": 70080,
          "time": 83.42863399999999,
          "velocity": 0.4409448818897638
        },
        {
          "duration": 0.28571450000001164,
          "durationTicks": 240,
          "midi": 59,
          "name": "B3",
          "ticks": 70080,
          "time": 83.42863399999999,
          "velocity": 0.5039370078740157
        },
        {
          "duration": 0.28571450000001164,
          "durationTicks": 240,
          "midi": 63,
          "name": "D#4",
          "ticks": 70080,
          "time": 83.42863399999999,
          "velocity": 0.29133858267716534
        },
        {
          "duration": 0.28571450000001164,
          "durationTicks": 240,
          "midi": 66,
          "name": "F#4",
          "ticks": 70080,
          "time": 83.42863399999999,
          "velocity": 0.25984251968503935
        },
        {
          "duration": 0.28571450000001164,
          "durationTicks": 240,
          "midi": 85,
          "name": "C#6",
          "ticks": 70080,
          "time": 83.42863399999999,
          "velocity": 0.5433070866141733
        },
        {
          "duration": 0.16666679166665688,
          "durationTicks": 140,
          "midi": 47,
          "name": "B2",
          "ticks": 70320,
          "time": 83.7143485,
          "velocity": 0.5433070866141733
        },
        {
          "duration": 0.16666679166665688,
          "durationTicks": 140,
          "midi": 54,
          "name": "F#3",
          "ticks": 70320,
          "time": 83.7143485,
          "velocity": 0.4881889763779528
        },
        {
          "duration": 0.16666679166665688,
          "durationTicks": 140,
          "midi": 59,
          "name": "B3",
          "ticks": 70320,
          "time": 83.7143485,
          "velocity": 0.5433070866141733
        },
        {
          "duration": 0.16666679166665688,
          "durationTicks": 140,
          "midi": 63,
          "name": "D#4",
          "ticks": 70320,
          "time": 83.7143485,
          "velocity": 0.29133858267716534
        },
        {
          "duration": 0.16666679166665688,
          "durationTicks": 140,
          "midi": 66,
          "name": "F#4",
          "ticks": 70320,
          "time": 83.7143485,
          "velocity": 0.4881889763779528
        },
        {
          "duration": 0.16666679166665688,
          "durationTicks": 140,
          "midi": 71,
          "name": "B4",
          "ticks": 70320,
          "time": 83.7143485,
          "velocity": 0.3700787401574803
        },
        {
          "duration": 0.14285725000000582,
          "durationTicks": 120,
          "midi": 44,
          "name": "G#2",
          "ticks": 70440,
          "time": 83.85720574999999,
          "velocity": 0.41732283464566927
        },
        {
          "duration": 0.14285725000000582,
          "durationTicks": 120,
          "midi": 63,
          "name": "D#4",
          "ticks": 70440,
          "time": 83.85720574999999,
          "velocity": 0.2677165354330709
        },
        {
          "duration": 0.14285725000000582,
          "durationTicks": 120,
          "midi": 68,
          "name": "G#4",
          "ticks": 70440,
          "time": 83.85720574999999,
          "velocity": 0.2677165354330709
        },
        {
          "duration": 0.11904770833334055,
          "durationTicks": 100,
          "midi": 43,
          "name": "G2",
          "ticks": 70560,
          "time": 84.000063,
          "velocity": 0.4881889763779528
        },
        {
          "duration": 0.11904770833334055,
          "durationTicks": 100,
          "midi": 67,
          "name": "G4",
          "ticks": 70560,
          "time": 84.000063,
          "velocity": 0.4330708661417323
        },
        {
          "duration": 0.14285725000000582,
          "durationTicks": 120,
          "midi": 63,
          "name": "D#4",
          "ticks": 70680,
          "time": 84.14292024999999,
          "velocity": 0.29133858267716534
        },
        {
          "duration": 0.14285725000000582,
          "durationTicks": 120,
          "midi": 71,
          "name": "B4",
          "ticks": 70680,
          "time": 84.14292024999999,
          "velocity": 0.2204724409448819
        },
        {
          "duration": 0.14285725000000582,
          "durationTicks": 120,
          "midi": 75,
          "name": "D#5",
          "ticks": 70680,
          "time": 84.14292024999999,
          "velocity": 0.29133858267716534
        },
        {
          "duration": 0.14285725000000582,
          "durationTicks": 120,
          "midi": 32,
          "name": "G#1",
          "ticks": 70800,
          "time": 84.2857775,
          "velocity": 0.36220472440944884
        },
        {
          "duration": 0.14285725000000582,
          "durationTicks": 120,
          "midi": 44,
          "name": "G#2",
          "ticks": 70800,
          "time": 84.2857775,
          "velocity": 0.3228346456692913
        },
        {
          "duration": 0.11904770833334055,
          "durationTicks": 100,
          "midi": 63,
          "name": "D#4",
          "ticks": 70800,
          "time": 84.2857775,
          "velocity": 0.25984251968503935
        },
        {
          "duration": 0.11904770833334055,
          "durationTicks": 100,
          "midi": 68,
          "name": "G#4",
          "ticks": 70800,
          "time": 84.2857775,
          "velocity": 0.25196850393700787
        },
        {
          "duration": 0.11904770833332634,
          "durationTicks": 100,
          "midi": 43,
          "name": "G2",
          "ticks": 70920,
          "time": 84.42863475,
          "velocity": 0.4330708661417323
        },
        {
          "duration": 0.14285725000000582,
          "durationTicks": 120,
          "midi": 42,
          "name": "F#2",
          "ticks": 71040,
          "time": 84.57149199999999,
          "velocity": 0.4566929133858268
        },
        {
          "duration": 0.14285725000000582,
          "durationTicks": 120,
          "midi": 57,
          "name": "A3",
          "ticks": 71040,
          "time": 84.57149199999999,
          "velocity": 0.33070866141732286
        },
        {
          "duration": 0.14285725000000582,
          "durationTicks": 120,
          "midi": 61,
          "name": "C#4",
          "ticks": 71040,
          "time": 84.57149199999999,
          "velocity": 0.2677165354330709
        },
        {
          "duration": 0.14285725000000582,
          "durationTicks": 120,
          "midi": 69,
          "name": "A4",
          "ticks": 71040,
          "time": 84.57149199999999,
          "velocity": 0.33070866141732286
        },
        {
          "duration": 0.14285725000000582,
          "durationTicks": 120,
          "midi": 78,
          "name": "F#5",
          "ticks": 71040,
          "time": 84.57149199999999,
          "velocity": 0.36220472440944884
        },
        {
          "duration": 0.11904770833334055,
          "durationTicks": 100,
          "midi": 61,
          "name": "C#4",
          "ticks": 71160,
          "time": 84.71434925,
          "velocity": 0.3543307086614173
        },
        {
          "duration": 0.19047633333335057,
          "durationTicks": 160,
          "midi": 52,
          "name": "E3",
          "ticks": 71280,
          "time": 84.85720649999999,
          "velocity": 0.23622047244094488
        },
        {
          "duration": 0.3095240416666627,
          "durationTicks": 260,
          "midi": 37,
          "name": "C#2",
          "ticks": 71400,
          "time": 85.00006375,
          "velocity": 0.3464566929133858
        },
        {
          "duration": 0.26190495833333216,
          "durationTicks": 220,
          "midi": 61,
          "name": "C#4",
          "ticks": 71400,
          "time": 85.00006375,
          "velocity": 0.5354330708661418
        },
        {
          "duration": 0.26190495833333216,
          "durationTicks": 220,
          "midi": 69,
          "name": "A4",
          "ticks": 71400,
          "time": 85.00006375,
          "velocity": 0.3464566929133858
        },
        {
          "duration": 0.14285725000000582,
          "durationTicks": 120,
          "midi": 32,
          "name": "G#1",
          "ticks": 71640,
          "time": 85.28577824999999,
          "velocity": 0.2992125984251969
        },
        {
          "duration": 0.14285725000000582,
          "durationTicks": 120,
          "midi": 61,
          "name": "C#4",
          "ticks": 71640,
          "time": 85.28577824999999,
          "velocity": 0.5905511811023622
        },
        {
          "duration": 0.26190495833333216,
          "durationTicks": 220,
          "midi": 30,
          "name": "F#1",
          "ticks": 71760,
          "time": 85.4286355,
          "velocity": 0.6771653543307087
        },
        {
          "duration": 0.26190495833333216,
          "durationTicks": 220,
          "midi": 42,
          "name": "F#2",
          "ticks": 71760,
          "time": 85.4286355,
          "velocity": 0.6771653543307087
        },
        {
          "duration": 0.26190495833333216,
          "durationTicks": 220,
          "midi": 64,
          "name": "E4",
          "ticks": 71760,
          "time": 85.4286355,
          "velocity": 0.1968503937007874
        },
        {
          "duration": 0.26190495833333216,
          "durationTicks": 220,
          "midi": 69,
          "name": "A4",
          "ticks": 71760,
          "time": 85.4286355,
          "velocity": 0.2204724409448819
        },
        {
          "duration": 0.16666679166665688,
          "durationTicks": 140,
          "midi": 64,
          "name": "E4",
          "ticks": 72000,
          "time": 85.71435,
          "velocity": 0.33858267716535434
        },
        {
          "duration": 0.16666679166665688,
          "durationTicks": 140,
          "midi": 68,
          "name": "G#4",
          "ticks": 72000,
          "time": 85.71435,
          "velocity": 0.3228346456692913
        },
        {
          "duration": 0.16666679166665688,
          "durationTicks": 140,
          "midi": 71,
          "name": "B4",
          "ticks": 72000,
          "time": 85.71435,
          "velocity": 0.33858267716535434
        },
        {
          "duration": 0.16666679166665688,
          "durationTicks": 140,
          "midi": 83,
          "name": "B5",
          "ticks": 72000,
          "time": 85.71435,
          "velocity": 0.33858267716535434
        },
        {
          "duration": 0.14285725000000582,
          "durationTicks": 120,
          "midi": 37,
          "name": "C#2",
          "ticks": 72120,
          "time": 85.85720724999999,
          "velocity": 0.36220472440944884
        },
        {
          "duration": 0.14285725000000582,
          "durationTicks": 120,
          "midi": 69,
          "name": "A4",
          "ticks": 72120,
          "time": 85.85720724999999,
          "velocity": 0.23622047244094488
        },
        {
          "duration": 0.14285725000000582,
          "durationTicks": 120,
          "midi": 73,
          "name": "C#5",
          "ticks": 72120,
          "time": 85.85720724999999,
          "velocity": 0.31496062992125984
        },
        {
          "duration": 0.16666679166665688,
          "durationTicks": 140,
          "midi": 40,
          "name": "E2",
          "ticks": 72240,
          "time": 86.0000645,
          "velocity": 0.3779527559055118
        },
        {
          "duration": 0.1428572499999916,
          "durationTicks": 120,
          "midi": 41,
          "name": "F2",
          "ticks": 72360,
          "time": 86.14292175,
          "velocity": 0.2755905511811024
        },
        {
          "duration": 0.1428572499999916,
          "durationTicks": 120,
          "midi": 57,
          "name": "A3",
          "ticks": 72360,
          "time": 86.14292175,
          "velocity": 0.33070866141732286
        },
        {
          "duration": 0.1428572499999916,
          "durationTicks": 120,
          "midi": 69,
          "name": "A4",
          "ticks": 72360,
          "time": 86.14292175,
          "velocity": 0.33070866141732286
        },
        {
          "duration": 0.14285725000000582,
          "durationTicks": 120,
          "midi": 35,
          "name": "B1",
          "ticks": 72480,
          "time": 86.28577899999999,
          "velocity": 0.30708661417322836
        },
        {
          "duration": 0.14285725000000582,
          "durationTicks": 120,
          "midi": 56,
          "name": "G#3",
          "ticks": 72480,
          "time": 86.28577899999999,
          "velocity": 0.5275590551181102
        },
        {
          "duration": 0.11904770833334055,
          "durationTicks": 100,
          "midi": 37,
          "name": "C#2",
          "ticks": 72600,
          "time": 86.42863625,
          "velocity": 0.36220472440944884
        },
        {
          "duration": 0.28571450000001164,
          "durationTicks": 240,
          "midi": 30,
          "name": "F#1",
          "ticks": 72720,
          "time": 86.57149349999999,
          "velocity": 0.4015748031496063
        },
        {
          "duration": 0.28571450000001164,
          "durationTicks": 240,
          "midi": 42,
          "name": "F#2",
          "ticks": 72720,
          "time": 86.57149349999999,
          "velocity": 0.3858267716535433
        },
        {
          "duration": 0.28571449999999743,
          "durationTicks": 240,
          "midi": 32,
          "name": "G#1",
          "ticks": 72960,
          "time": 86.857208,
          "velocity": 0.4015748031496063
        },
        {
          "duration": 0.28571449999999743,
          "durationTicks": 240,
          "midi": 44,
          "name": "G#2",
          "ticks": 72960,
          "time": 86.857208,
          "velocity": 0.4015748031496063
        },
        {
          "duration": 0.28571449999999743,
          "durationTicks": 240,
          "midi": 58,
          "name": "A#3",
          "ticks": 72960,
          "time": 86.857208,
          "velocity": 0.4094488188976378
        },
        {
          "duration": 0.28571449999999743,
          "durationTicks": 240,
          "midi": 59,
          "name": "B3",
          "ticks": 72960,
          "time": 86.857208,
          "velocity": 0.4566929133858268
        },
        {
          "duration": 0.28571449999999743,
          "durationTicks": 240,
          "midi": 61,
          "name": "C#4",
          "ticks": 72960,
          "time": 86.857208,
          "velocity": 0.2047244094488189
        },
        {
          "duration": 0.28571449999999743,
          "durationTicks": 240,
          "midi": 63,
          "name": "D#4",
          "ticks": 72960,
          "time": 86.857208,
          "velocity": 0.25984251968503935
        },
        {
          "duration": 0.28571449999999743,
          "durationTicks": 240,
          "midi": 70,
          "name": "A#4",
          "ticks": 72960,
          "time": 86.857208,
          "velocity": 0.4094488188976378
        },
        {
          "duration": 0.28571449999999743,
          "durationTicks": 240,
          "midi": 75,
          "name": "D#5",
          "ticks": 72960,
          "time": 86.857208,
          "velocity": 0.25984251968503935
        },
        {
          "duration": 0.28571449999999743,
          "durationTicks": 240,
          "midi": 83,
          "name": "B5",
          "ticks": 72960,
          "time": 86.857208,
          "velocity": 0.31496062992125984
        },
        {
          "duration": 0.19047633333333636,
          "durationTicks": 160,
          "midi": 61,
          "name": "C#4",
          "ticks": 73200,
          "time": 87.1429225,
          "velocity": 0.6456692913385826
        },
        {
          "duration": 0.19047633333333636,
          "durationTicks": 160,
          "midi": 82,
          "name": "A#5",
          "ticks": 73200,
          "time": 87.1429225,
          "velocity": 0.2677165354330709
        },
        {
          "duration": 0.11904770833334055,
          "durationTicks": 100,
          "midi": 39,
          "name": "D#2",
          "ticks": 73320,
          "time": 87.28577974999999,
          "velocity": 0.41732283464566927
        },
        {
          "duration": 0.11904770833334055,
          "durationTicks": 100,
          "midi": 70,
          "name": "A#4",
          "ticks": 73320,
          "time": 87.28577974999999,
          "velocity": 0.36220472440944884
        },
        {
          "duration": 0.11904770833334055,
          "durationTicks": 100,
          "midi": 82,
          "name": "A#5",
          "ticks": 73320,
          "time": 87.28577974999999,
          "velocity": 0.2283464566929134
        },
        {
          "duration": 0.14285725000000582,
          "durationTicks": 120,
          "midi": 44,
          "name": "G#2",
          "ticks": 73440,
          "time": 87.428637,
          "velocity": 0.25984251968503935
        },
        {
          "duration": 0.16666679166665688,
          "durationTicks": 140,
          "midi": 42,
          "name": "F#2",
          "ticks": 73560,
          "time": 87.57149425,
          "velocity": 0.1889763779527559
        },
        {
          "duration": 0.16666679166665688,
          "durationTicks": 140,
          "midi": 59,
          "name": "B3",
          "ticks": 73560,
          "time": 87.57149425,
          "velocity": 0.2755905511811024
        },
        {
          "duration": 0.16666679166665688,
          "durationTicks": 140,
          "midi": 70,
          "name": "A#4",
          "ticks": 73560,
          "time": 87.57149425,
          "velocity": 0.2992125984251969
        },
        {
          "duration": 0.14285725000000582,
          "durationTicks": 120,
          "midi": 32,
          "name": "G#1",
          "ticks": 73680,
          "time": 87.71435149999999,
          "velocity": 0.3779527559055118
        },
        {
          "duration": 0.14285725000000582,
          "durationTicks": 120,
          "midi": 44,
          "name": "G#2",
          "ticks": 73680,
          "time": 87.71435149999999,
          "velocity": 0.36220472440944884
        },
        {
          "duration": 0.14285725000000582,
          "durationTicks": 120,
          "midi": 45,
          "name": "A2",
          "ticks": 73680,
          "time": 87.71435149999999,
          "velocity": 0.29133858267716534
        },
        {
          "duration": 0.14285725000000582,
          "durationTicks": 120,
          "midi": 63,
          "name": "D#4",
          "ticks": 73680,
          "time": 87.71435149999999,
          "velocity": 0.2755905511811024
        },
        {
          "duration": 0.14285725000000582,
          "durationTicks": 120,
          "midi": 66,
          "name": "F#4",
          "ticks": 73680,
          "time": 87.71435149999999,
          "velocity": 0.31496062992125984
        },
        {
          "duration": 0.14285725000000582,
          "durationTicks": 120,
          "midi": 71,
          "name": "B4",
          "ticks": 73680,
          "time": 87.71435149999999,
          "velocity": 0.2755905511811024
        },
        {
          "duration": 0.14285725000000582,
          "durationTicks": 120,
          "midi": 83,
          "name": "B5",
          "ticks": 73680,
          "time": 87.71435149999999,
          "velocity": 0.2677165354330709
        },
        {
          "duration": 0.16666679166665688,
          "durationTicks": 140,
          "midi": 46,
          "name": "A#2",
          "ticks": 73800,
          "time": 87.85720875,
          "velocity": 0.33070866141732286
        },
        {
          "duration": 0.14285725000000582,
          "durationTicks": 120,
          "midi": 44,
          "name": "G#2",
          "ticks": 73920,
          "time": 88.00006599999999,
          "velocity": 0.48031496062992124
        },
        {
          "duration": 0.14285725000000582,
          "durationTicks": 120,
          "midi": 56,
          "name": "G#3",
          "ticks": 73920,
          "time": 88.00006599999999,
          "velocity": 0.48031496062992124
        },
        {
          "duration": 0.14285725000000582,
          "durationTicks": 120,
          "midi": 68,
          "name": "G#4",
          "ticks": 73920,
          "time": 88.00006599999999,
          "velocity": 0.3464566929133858
        },
        {
          "duration": 0.1666667916666711,
          "durationTicks": 140,
          "midi": 71,
          "name": "B4",
          "ticks": 73920,
          "time": 88.00006599999999,
          "velocity": 0.2440944881889764
        },
        {
          "duration": 0.14285725000000582,
          "durationTicks": 120,
          "midi": 59,
          "name": "B3",
          "ticks": 74040,
          "time": 88.14292325,
          "velocity": 0.33858267716535434
        },
        {
          "duration": 0.16666679166665688,
          "durationTicks": 140,
          "midi": 44,
          "name": "G#2",
          "ticks": 74160,
          "time": 88.2857805,
          "velocity": 0.5196850393700787
        },
        {
          "duration": 0.11904770833332634,
          "durationTicks": 100,
          "midi": 54,
          "name": "F#3",
          "ticks": 74160,
          "time": 88.2857805,
          "velocity": 0.2677165354330709
        },
        {
          "duration": 0.11904770833332634,
          "durationTicks": 100,
          "midi": 63,
          "name": "D#4",
          "ticks": 74160,
          "time": 88.2857805,
          "velocity": 0.2125984251968504
        },
        {
          "duration": 0.14285725000000582,
          "durationTicks": 120,
          "midi": 51,
          "name": "D#3",
          "ticks": 74280,
          "time": 88.42863775,
          "velocity": 0.41732283464566927
        },
        {
          "duration": 0.14285725000000582,
          "durationTicks": 120,
          "midi": 58,
          "name": "A#3",
          "ticks": 74280,
          "time": 88.42863775,
          "velocity": 0.4409448818897638
        },
        {
          "duration": 0.26190495833333216,
          "durationTicks": 220,
          "midi": 59,
          "name": "B3",
          "ticks": 74400,
          "time": 88.571495,
          "velocity": 0.31496062992125984
        },
        {
          "duration": 0.26190495833333216,
          "durationTicks": 220,
          "midi": 63,
          "name": "D#4",
          "ticks": 74400,
          "time": 88.571495,
          "velocity": 0.3700787401574803
        },
        {
          "duration": 0.26190495833333216,
          "durationTicks": 220,
          "midi": 68,
          "name": "G#4",
          "ticks": 74400,
          "time": 88.571495,
          "velocity": 0.5275590551181102
        },
        {
          "duration": 0.3095240416666627,
          "durationTicks": 260,
          "midi": 40,
          "name": "E2",
          "ticks": 74640,
          "time": 88.8572095,
          "velocity": 0.3543307086614173
        },
        {
          "duration": 0.3095240416666627,
          "durationTicks": 260,
          "midi": 44,
          "name": "G#2",
          "ticks": 74640,
          "time": 88.8572095,
          "velocity": 0.4015748031496063
        },
        {
          "duration": 0.26190495833333216,
          "durationTicks": 220,
          "midi": 65,
          "name": "F4",
          "ticks": 74640,
          "time": 88.8572095,
          "velocity": 0.2283464566929134
        },
        {
          "duration": 0.14285725000000582,
          "durationTicks": 120,
          "midi": 33,
          "name": "A1",
          "ticks": 74880,
          "time": 89.142924,
          "velocity": 0.30708661417322836
        },
        {
          "duration": 0.14285725000000582,
          "durationTicks": 120,
          "midi": 45,
          "name": "A2",
          "ticks": 74880,
          "time": 89.142924,
          "velocity": 0.2992125984251969
        },
        {
          "duration": 0.14285725000000582,
          "durationTicks": 120,
          "midi": 57,
          "name": "A3",
          "ticks": 74880,
          "time": 89.142924,
          "velocity": 0.25196850393700787
        },
        {
          "duration": 0.14285725000000582,
          "durationTicks": 120,
          "midi": 60,
          "name": "C4",
          "ticks": 74880,
          "time": 89.142924,
          "velocity": 0.2677165354330709
        },
        {
          "duration": 0.14285725000000582,
          "durationTicks": 120,
          "midi": 64,
          "name": "E4",
          "ticks": 74880,
          "time": 89.142924,
          "velocity": 0.2204724409448819
        },
        {
          "duration": 0.14285725000000582,
          "durationTicks": 120,
          "midi": 68,
          "name": "G#4",
          "ticks": 74880,
          "time": 89.142924,
          "velocity": 0.6850393700787402
        },
        {
          "duration": 0.14285725000000582,
          "durationTicks": 120,
          "midi": 72,
          "name": "C5",
          "ticks": 74880,
          "time": 89.142924,
          "velocity": 0.2677165354330709
        },
        {
          "duration": 0.14285725000000582,
          "durationTicks": 120,
          "midi": 76,
          "name": "E5",
          "ticks": 74880,
          "time": 89.142924,
          "velocity": 0.2204724409448819
        },
        {
          "duration": 0.09523816666666107,
          "durationTicks": 80,
          "midi": 44,
          "name": "G#2",
          "ticks": 75000,
          "time": 89.28578125,
          "velocity": 0.3779527559055118
        },
        {
          "duration": 0.09523816666666107,
          "durationTicks": 80,
          "midi": 64,
          "name": "E4",
          "ticks": 75000,
          "time": 89.28578125,
          "velocity": 0.30708661417322836
        },
        {
          "duration": 0.14285725000000582,
          "durationTicks": 120,
          "midi": 43,
          "name": "G2",
          "ticks": 75120,
          "time": 89.42863849999999,
          "velocity": 0.29133858267716534
        },
        {
          "duration": 0.11904770833334055,
          "durationTicks": 100,
          "midi": 33,
          "name": "A1",
          "ticks": 75240,
          "time": 89.57149575,
          "velocity": 0.30708661417322836
        },
        {
          "duration": 0.11904770833334055,
          "durationTicks": 100,
          "midi": 64,
          "name": "E4",
          "ticks": 75240,
          "time": 89.57149575,
          "velocity": 0.47244094488188976
        },
        {
          "duration": 0.14285725000000582,
          "durationTicks": 120,
          "midi": 36,
          "name": "C2",
          "ticks": 75360,
          "time": 89.71435299999999,
          "velocity": 0.33070866141732286
        },
        {
          "duration": 0.14285725000000582,
          "durationTicks": 120,
          "midi": 68,
          "name": "G#4",
          "ticks": 75360,
          "time": 89.71435299999999,
          "velocity": 0.3779527559055118
        },
        {
          "duration": 0.16666679166665688,
          "durationTicks": 140,
          "midi": 35,
          "name": "B1",
          "ticks": 75480,
          "time": 89.85721025,
          "velocity": 0.31496062992125984
        },
        {
          "duration": 0.16666679166665688,
          "durationTicks": 140,
          "midi": 64,
          "name": "E4",
          "ticks": 75480,
          "time": 89.85721025,
          "velocity": 0.25984251968503935
        },
        {
          "duration": 0.28571449999999743,
          "durationTicks": 240,
          "midi": 33,
          "name": "A1",
          "ticks": 75600,
          "time": 90.0000675,
          "velocity": 0.3937007874015748
        },
        {
          "duration": 0.28571449999999743,
          "durationTicks": 240,
          "midi": 64,
          "name": "E4",
          "ticks": 75600,
          "time": 90.0000675,
          "velocity": 0.28346456692913385
        },
        {
          "duration": 0.28571449999999743,
          "durationTicks": 240,
          "midi": 75,
          "name": "D#5",
          "ticks": 75600,
          "time": 90.0000675,
          "velocity": 0.2204724409448819
        },
        {
          "duration": 0.28571449999999743,
          "durationTicks": 240,
          "midi": 45,
          "name": "A2",
          "ticks": 75840,
          "time": 90.285782,
          "velocity": 0.5039370078740157
        },
        {
          "duration": 0.28571449999999743,
          "durationTicks": 240,
          "midi": 54,
          "name": "F#3",
          "ticks": 75840,
          "time": 90.285782,
          "velocity": 0.2755905511811024
        },
        {
          "duration": 0.28571449999999743,
          "durationTicks": 240,
          "midi": 60,
          "name": "C4",
          "ticks": 75840,
          "time": 90.285782,
          "velocity": 0.2283464566929134
        },
        {
          "duration": 0.28571449999999743,
          "durationTicks": 240,
          "midi": 64,
          "name": "E4",
          "ticks": 75840,
          "time": 90.285782,
          "velocity": 0.4409448818897638
        },
        {
          "duration": 0.28571449999999743,
          "durationTicks": 240,
          "midi": 72,
          "name": "C5",
          "ticks": 75840,
          "time": 90.285782,
          "velocity": 0.2283464566929134
        },
        {
          "duration": 0.11904770833334055,
          "durationTicks": 100,
          "midi": 54,
          "name": "F#3",
          "ticks": 76080,
          "time": 90.5714965,
          "velocity": 0.4015748031496063
        },
        {
          "duration": 0.28571449999999743,
          "durationTicks": 240,
          "midi": 47,
          "name": "B2",
          "ticks": 76200,
          "time": 90.71435375,
          "velocity": 0.2755905511811024
        },
        {
          "duration": 0.28571449999999743,
          "durationTicks": 240,
          "midi": 60,
          "name": "C4",
          "ticks": 76200,
          "time": 90.71435375,
          "velocity": 0.28346456692913385
        },
        {
          "duration": 0.1428572499999916,
          "durationTicks": 120,
          "midi": 60,
          "name": "C4",
          "ticks": 76440,
          "time": 91.00006825,
          "velocity": 0.23622047244094488
        },
        {
          "duration": 0.3095240416666627,
          "durationTicks": 260,
          "midi": 47,
          "name": "B2",
          "ticks": 76560,
          "time": 91.14292549999999,
          "velocity": 0.2992125984251969
        },
        {
          "duration": 0.26190495833334637,
          "durationTicks": 220,
          "midi": 71,
          "name": "B4",
          "ticks": 76560,
          "time": 91.14292549999999,
          "velocity": 0.2204724409448819
        },
        {
          "duration": 1.1428579999999897,
          "durationTicks": 960,
          "midi": 33,
          "name": "A1",
          "ticks": 76800,
          "time": 91.42864,
          "velocity": 0.28346456692913385
        },
        {
          "duration": 1.1428579999999897,
          "durationTicks": 960,
          "midi": 54,
          "name": "F#3",
          "ticks": 76800,
          "time": 91.42864,
          "velocity": 0.3937007874015748
        },
        {
          "duration": 1.1428579999999897,
          "durationTicks": 960,
          "midi": 60,
          "name": "C4",
          "ticks": 76800,
          "time": 91.42864,
          "velocity": 0.3228346456692913
        },
        {
          "duration": 1.1428579999999897,
          "durationTicks": 960,
          "midi": 64,
          "name": "E4",
          "ticks": 76800,
          "time": 91.42864,
          "velocity": 0.4409448818897638
        },
        {
          "duration": 1.1428579999999897,
          "durationTicks": 960,
          "midi": 69,
          "name": "A4",
          "ticks": 76800,
          "time": 91.42864,
          "velocity": 0.2992125984251969
        },
        {
          "duration": 0.5714290000000091,
          "durationTicks": 480,
          "midi": 64,
          "name": "E4",
          "ticks": 77760,
          "time": 92.57149799999999,
          "velocity": 0.31496062992125984
        },
        {
          "duration": 0.5476194583333296,
          "durationTicks": 460,
          "midi": 66,
          "name": "F#4",
          "ticks": 78240,
          "time": 93.142927,
          "velocity": 0.30708661417322836
        },
        {
          "duration": 0.28571449999999743,
          "durationTicks": 240,
          "midi": 32,
          "name": "G#1",
          "ticks": 78720,
          "time": 93.714356,
          "velocity": 0.3779527559055118
        },
        {
          "duration": 0.28571449999999743,
          "durationTicks": 240,
          "midi": 44,
          "name": "G#2",
          "ticks": 78720,
          "time": 93.714356,
          "velocity": 0.3779527559055118
        },
        {
          "duration": 0.28571449999999743,
          "durationTicks": 240,
          "midi": 51,
          "name": "D#3",
          "ticks": 78720,
          "time": 93.714356,
          "velocity": 0.33070866141732286
        },
        {
          "duration": 0.28571449999999743,
          "durationTicks": 240,
          "midi": 54,
          "name": "F#3",
          "ticks": 78720,
          "time": 93.714356,
          "velocity": 0.2755905511811024
        },
        {
          "duration": 0.28571449999999743,
          "durationTicks": 240,
          "midi": 60,
          "name": "C4",
          "ticks": 78720,
          "time": 93.714356,
          "velocity": 0.36220472440944884
        },
        {
          "duration": 0.26190495833333216,
          "durationTicks": 220,
          "midi": 65,
          "name": "F4",
          "ticks": 78720,
          "time": 93.714356,
          "velocity": 0.41732283464566927
        },
        {
          "duration": 0.26190495833333216,
          "durationTicks": 220,
          "midi": 68,
          "name": "G#4",
          "ticks": 78720,
          "time": 93.714356,
          "velocity": 0.33070866141732286
        },
        {
          "duration": 0.26190495833333216,
          "durationTicks": 220,
          "midi": 72,
          "name": "C5",
          "ticks": 78720,
          "time": 93.714356,
          "velocity": 0.36220472440944884
        },
        {
          "duration": 0.14285725000000582,
          "durationTicks": 120,
          "midi": 54,
          "name": "F#3",
          "ticks": 78960,
          "time": 94.00007049999999,
          "velocity": 0.3228346456692913
        },
        {
          "duration": 0.26190495833333216,
          "durationTicks": 220,
          "midi": 60,
          "name": "C4",
          "ticks": 79080,
          "time": 94.14292775,
          "velocity": 0.31496062992125984
        },
        {
          "duration": 0.16666679166665688,
          "durationTicks": 140,
          "midi": 65,
          "name": "F4",
          "ticks": 79320,
          "time": 94.42864225,
          "velocity": 0.33070866141732286
        },
        {
          "duration": 0.28571450000001164,
          "durationTicks": 240,
          "midi": 44,
          "name": "G#2",
          "ticks": 79440,
          "time": 94.57149949999999,
          "velocity": 0.4409448818897638
        },
        {
          "duration": 0.28571449999999743,
          "durationTicks": 240,
          "midi": 68,
          "name": "G#4",
          "ticks": 79680,
          "time": 94.857214,
          "velocity": 0.3464566929133858
        },
        {
          "duration": 0.11904770833334055,
          "durationTicks": 100,
          "midi": 54,
          "name": "F#3",
          "ticks": 79920,
          "time": 95.1429285,
          "velocity": 0.2283464566929134
        },
        {
          "duration": 0.11904770833334055,
          "durationTicks": 100,
          "midi": 65,
          "name": "F4",
          "ticks": 79920,
          "time": 95.1429285,
          "velocity": 0.33070866141732286
        },
        {
          "duration": 0.28571450000001164,
          "durationTicks": 240,
          "midi": 60,
          "name": "C4",
          "ticks": 80040,
          "time": 95.28578574999999,
          "velocity": 0.29133858267716534
        },
        {
          "duration": 0.19047633333333636,
          "durationTicks": 160,
          "midi": 41,
          "name": "F2",
          "ticks": 80280,
          "time": 95.57150025,
          "velocity": 0.1968503937007874
        },
        {
          "duration": 0.1428572499999916,
          "durationTicks": 120,
          "midi": 65,
          "name": "F4",
          "ticks": 80280,
          "time": 95.57150025,
          "velocity": 0.33070866141732286
        },
        {
          "duration": 0.1428572499999916,
          "durationTicks": 120,
          "midi": 68,
          "name": "G#4",
          "ticks": 80280,
          "time": 95.57150025,
          "velocity": 0.31496062992125984
        },
        {
          "duration": 0.3095240416666627,
          "durationTicks": 260,
          "midi": 39,
          "name": "D#2",
          "ticks": 80400,
          "time": 95.71435749999999,
          "velocity": 0.4094488188976378
        },
        {
          "duration": 0.11904770833334055,
          "durationTicks": 100,
          "midi": 44,
          "name": "G#2",
          "ticks": 80640,
          "time": 96.00007199999999,
          "velocity": 0.41732283464566927
        },
        {
          "duration": 0.14285725000000582,
          "durationTicks": 120,
          "midi": 54,
          "name": "F#3",
          "ticks": 80640,
          "time": 96.00007199999999,
          "velocity": 0.33070866141732286
        },
        {
          "duration": 0.14285725000000582,
          "durationTicks": 120,
          "midi": 60,
          "name": "C4",
          "ticks": 80640,
          "time": 96.00007199999999,
          "velocity": 0.2677165354330709
        },
        {
          "duration": 0.11904770833334055,
          "durationTicks": 100,
          "midi": 64,
          "name": "E4",
          "ticks": 80640,
          "time": 96.00007199999999,
          "velocity": 0.29133858267716534
        },
        {
          "duration": 0.11904770833334055,
          "durationTicks": 100,
          "midi": 76,
          "name": "E5",
          "ticks": 80640,
          "time": 96.00007199999999,
          "velocity": 0.2755905511811024
        },
        {
          "duration": 0.11904770833334055,
          "durationTicks": 100,
          "midi": 39,
          "name": "D#2",
          "ticks": 80760,
          "time": 96.14292925,
          "velocity": 0.4015748031496063
        },
        {
          "duration": 0.09523816666666107,
          "durationTicks": 80,
          "midi": 44,
          "name": "G#2",
          "ticks": 80880,
          "time": 96.2857865,
          "velocity": 0.3937007874015748
        },
        {
          "duration": 0.26190495833334637,
          "durationTicks": 220,
          "midi": 60,
          "name": "C4",
          "ticks": 81000,
          "time": 96.42864374999999,
          "velocity": 0.2677165354330709
        },
        {
          "duration": 0.1666667916666711,
          "durationTicks": 140,
          "midi": 64,
          "name": "E4",
          "ticks": 81240,
          "time": 96.71435824999999,
          "velocity": 0.3700787401574803
        },
        {
          "duration": 0.28571449999999743,
          "durationTicks": 240,
          "midi": 43,
          "name": "G2",
          "ticks": 81360,
          "time": 96.8572155,
          "velocity": 0.36220472440944884
        },
        {
          "duration": 0.3095240416666627,
          "durationTicks": 260,
          "midi": 32,
          "name": "G#1",
          "ticks": 81600,
          "time": 97.14292999999999,
          "velocity": 0.44881889763779526
        },
        {
          "duration": 0.28571449999999743,
          "durationTicks": 240,
          "midi": 36,
          "name": "C2",
          "ticks": 81600,
          "time": 97.14292999999999,
          "velocity": 0.5118110236220472
        },
        {
          "duration": 0.28571449999999743,
          "durationTicks": 240,
          "midi": 44,
          "name": "G#2",
          "ticks": 81600,
          "time": 97.14292999999999,
          "velocity": 0.3543307086614173
        },
        {
          "duration": 0.28571449999999743,
          "durationTicks": 240,
          "midi": 56,
          "name": "G#3",
          "ticks": 81600,
          "time": 97.14292999999999,
          "velocity": 0.3543307086614173
        },
        {
          "duration": 0.28571449999999743,
          "durationTicks": 240,
          "midi": 60,
          "name": "C4",
          "ticks": 81600,
          "time": 97.14292999999999,
          "velocity": 0.2283464566929134
        },
        {
          "duration": 0.28571449999999743,
          "durationTicks": 240,
          "midi": 64,
          "name": "E4",
          "ticks": 81600,
          "time": 97.14292999999999,
          "velocity": 0.2992125984251969
        },
        {
          "duration": 0.28571449999999743,
          "durationTicks": 240,
          "midi": 68,
          "name": "G#4",
          "ticks": 81600,
          "time": 97.14292999999999,
          "velocity": 0.2440944881889764
        },
        {
          "duration": 0.28571449999999743,
          "durationTicks": 240,
          "midi": 71,
          "name": "B4",
          "ticks": 81600,
          "time": 97.14292999999999,
          "velocity": 0.2755905511811024
        },
        {
          "duration": 0.28571449999999743,
          "durationTicks": 240,
          "midi": 83,
          "name": "B5",
          "ticks": 81600,
          "time": 97.14292999999999,
          "velocity": 0.2204724409448819
        },
        {
          "duration": 0.28571449999999743,
          "durationTicks": 240,
          "midi": 60,
          "name": "C4",
          "ticks": 81840,
          "time": 97.42864449999999,
          "velocity": 0.3228346456692913
        },
        {
          "duration": 0.5714290000000091,
          "durationTicks": 480,
          "midi": 56,
          "name": "G#3",
          "ticks": 82080,
          "time": 97.71435899999999,
          "velocity": 0.33070866141732286
        },
        {
          "duration": 0.5714290000000091,
          "durationTicks": 480,
          "midi": 60,
          "name": "C4",
          "ticks": 82080,
          "time": 97.71435899999999,
          "velocity": 0.33070866141732286
        },
        {
          "duration": 0.5714290000000091,
          "durationTicks": 480,
          "midi": 64,
          "name": "E4",
          "ticks": 82080,
          "time": 97.71435899999999,
          "velocity": 0.2283464566929134
        },
        {
          "duration": 0.26190495833333216,
          "durationTicks": 220,
          "midi": 37,
          "name": "C#2",
          "ticks": 82560,
          "time": 98.285788,
          "velocity": 0.6850393700787402
        },
        {
          "duration": 0.28571449999999743,
          "durationTicks": 240,
          "midi": 49,
          "name": "C#3",
          "ticks": 82560,
          "time": 98.285788,
          "velocity": 0.6220472440944882
        },
        {
          "duration": 0.28571449999999743,
          "durationTicks": 240,
          "midi": 57,
          "name": "A3",
          "ticks": 82560,
          "time": 98.285788,
          "velocity": 0.2204724409448819
        },
        {
          "duration": 0.28571449999999743,
          "durationTicks": 240,
          "midi": 59,
          "name": "B3",
          "ticks": 82560,
          "time": 98.285788,
          "velocity": 0.2204724409448819
        },
        {
          "duration": 0.28571449999999743,
          "durationTicks": 240,
          "midi": 61,
          "name": "C#4",
          "ticks": 82560,
          "time": 98.285788,
          "velocity": 0.3937007874015748
        },
        {
          "duration": 0.28571449999999743,
          "durationTicks": 240,
          "midi": 64,
          "name": "E4",
          "ticks": 82560,
          "time": 98.285788,
          "velocity": 0.2440944881889764
        },
        {
          "duration": 0.11904770833334055,
          "durationTicks": 100,
          "midi": 57,
          "name": "A3",
          "ticks": 82800,
          "time": 98.5715025,
          "velocity": 0.30708661417322836
        },
        {
          "duration": 0.42857174999998904,
          "durationTicks": 360,
          "midi": 59,
          "name": "B3",
          "ticks": 82920,
          "time": 98.71435975,
          "velocity": 0.25196850393700787
        },
        {
          "duration": 0.42857174999998904,
          "durationTicks": 360,
          "midi": 64,
          "name": "E4",
          "ticks": 82920,
          "time": 98.71435975,
          "velocity": 0.2125984251968504
        },
        {
          "duration": 0.28571450000001164,
          "durationTicks": 240,
          "midi": 57,
          "name": "A3",
          "ticks": 83280,
          "time": 99.14293149999999,
          "velocity": 0.31496062992125984
        },
        {
          "duration": 0.28571450000001164,
          "durationTicks": 240,
          "midi": 64,
          "name": "E4",
          "ticks": 83280,
          "time": 99.14293149999999,
          "velocity": 0.4881889763779528
        },
        {
          "duration": 0.28571449999999743,
          "durationTicks": 240,
          "midi": 64,
          "name": "E4",
          "ticks": 83520,
          "time": 99.428646,
          "velocity": 0.3779527559055118
        },
        {
          "duration": 0.28571449999999743,
          "durationTicks": 240,
          "midi": 66,
          "name": "F#4",
          "ticks": 83520,
          "time": 99.428646,
          "velocity": 0.29133858267716534
        },
        {
          "duration": 0.28571449999999743,
          "durationTicks": 240,
          "midi": 68,
          "name": "G#4",
          "ticks": 83520,
          "time": 99.428646,
          "velocity": 0.33858267716535434
        },
        {
          "duration": 0.19047633333333636,
          "durationTicks": 160,
          "midi": 57,
          "name": "A3",
          "ticks": 83760,
          "time": 99.7143605,
          "velocity": 0.29133858267716534
        },
        {
          "duration": 0.09523816666666107,
          "durationTicks": 80,
          "midi": 71,
          "name": "B4",
          "ticks": 83760,
          "time": 99.7143605,
          "velocity": 0.5433070866141733
        },
        {
          "duration": 0.3095240416666627,
          "durationTicks": 260,
          "midi": 59,
          "name": "B3",
          "ticks": 83880,
          "time": 99.85721774999999,
          "velocity": 0.5669291338582677
        },
        {
          "duration": 0.14285725000000582,
          "durationTicks": 120,
          "midi": 64,
          "name": "E4",
          "ticks": 84120,
          "time": 100.14293224999999,
          "velocity": 0.2992125984251969
        },
        {
          "duration": 0.26190495833334637,
          "durationTicks": 220,
          "midi": 32,
          "name": "G#1",
          "ticks": 84240,
          "time": 100.28578949999999,
          "velocity": 0.36220472440944884
        },
        {
          "duration": 0.26190495833334637,
          "durationTicks": 220,
          "midi": 68,
          "name": "G#4",
          "ticks": 84240,
          "time": 100.28578949999999,
          "velocity": 0.2677165354330709
        },
        {
          "duration": 0.26190495833334637,
          "durationTicks": 220,
          "midi": 37,
          "name": "C#2",
          "ticks": 84480,
          "time": 100.57150399999999,
          "velocity": 0.5196850393700787
        },
        {
          "duration": 0.3095240416666627,
          "durationTicks": 260,
          "midi": 64,
          "name": "E4",
          "ticks": 84480,
          "time": 100.57150399999999,
          "velocity": 0.2755905511811024
        },
        {
          "duration": 0.1666667916666711,
          "durationTicks": 140,
          "midi": 64,
          "name": "E4",
          "ticks": 84720,
          "time": 100.85721849999999,
          "velocity": 0.2204724409448819
        },
        {
          "duration": 0.28571449999999743,
          "durationTicks": 240,
          "midi": 59,
          "name": "B3",
          "ticks": 84840,
          "time": 101.00007575,
          "velocity": 0.29133858267716534
        },
        {
          "duration": 0.28571449999999743,
          "durationTicks": 240,
          "midi": 64,
          "name": "E4",
          "ticks": 84840,
          "time": 101.00007575,
          "velocity": 0.23622047244094488
        },
        {
          "duration": 0.1666667916666711,
          "durationTicks": 140,
          "midi": 64,
          "name": "E4",
          "ticks": 85080,
          "time": 101.28579024999999,
          "velocity": 0.23622047244094488
        },
        {
          "duration": 0.28571449999999743,
          "durationTicks": 240,
          "midi": 57,
          "name": "A3",
          "ticks": 85200,
          "time": 101.4286475,
          "velocity": 0.2440944881889764
        },
        {
          "duration": 0.28571449999999743,
          "durationTicks": 240,
          "midi": 64,
          "name": "E4",
          "ticks": 85440,
          "time": 101.714362,
          "velocity": 0.30708661417322836
        },
        {
          "duration": 0.28571449999999743,
          "durationTicks": 240,
          "midi": 68,
          "name": "G#4",
          "ticks": 85440,
          "time": 101.714362,
          "velocity": 0.29133858267716534
        },
        {
          "duration": 0.16666679166665688,
          "durationTicks": 140,
          "midi": 57,
          "name": "A3",
          "ticks": 85680,
          "time": 102.00007649999999,
          "velocity": 0.3779527559055118
        },
        {
          "duration": 0.28571449999999743,
          "durationTicks": 240,
          "midi": 59,
          "name": "B3",
          "ticks": 85800,
          "time": 102.14293375,
          "velocity": 0.29133858267716534
        },
        {
          "duration": 0.28571449999999743,
          "durationTicks": 240,
          "midi": 64,
          "name": "E4",
          "ticks": 85800,
          "time": 102.14293375,
          "velocity": 0.1889763779527559
        },
        {
          "duration": 0.28571449999999743,
          "durationTicks": 240,
          "midi": 64,
          "name": "E4",
          "ticks": 86040,
          "time": 102.42864825,
          "velocity": 0.2992125984251969
        },
        {
          "duration": 0.14285725000000582,
          "durationTicks": 120,
          "midi": 37,
          "name": "C#2",
          "ticks": 86280,
          "time": 102.71436274999999,
          "velocity": 0.3700787401574803
        },
        {
          "duration": 0.3095240416666627,
          "durationTicks": 260,
          "midi": 36,
          "name": "C2",
          "ticks": 86400,
          "time": 102.85722,
          "velocity": 0.49606299212598426
        },
        {
          "duration": 0.3095240416666627,
          "durationTicks": 260,
          "midi": 48,
          "name": "C3",
          "ticks": 86400,
          "time": 102.85722,
          "velocity": 0.3779527559055118
        },
        {
          "duration": 0.3095240416666627,
          "durationTicks": 260,
          "midi": 68,
          "name": "G#4",
          "ticks": 86400,
          "time": 102.85722,
          "velocity": 0.6614173228346457
        },
        {
          "duration": 0.16666679166665688,
          "durationTicks": 140,
          "midi": 54,
          "name": "F#3",
          "ticks": 86640,
          "time": 103.1429345,
          "velocity": 0.30708661417322836
        },
        {
          "duration": 0.16666679166665688,
          "durationTicks": 140,
          "midi": 63,
          "name": "D#4",
          "ticks": 86640,
          "time": 103.1429345,
          "velocity": 0.2992125984251969
        },
        {
          "duration": 0.16666679166665688,
          "durationTicks": 140,
          "midi": 64,
          "name": "E4",
          "ticks": 86640,
          "time": 103.1429345,
          "velocity": 0.25984251968503935
        },
        {
          "duration": 0.16666679166665688,
          "durationTicks": 140,
          "midi": 69,
          "name": "A4",
          "ticks": 86640,
          "time": 103.1429345,
          "velocity": 0.2440944881889764
        },
        {
          "duration": 0.14285725000000582,
          "durationTicks": 120,
          "midi": 57,
          "name": "A3",
          "ticks": 86760,
          "time": 103.28579174999999,
          "velocity": 0.23622047244094488
        },
        {
          "duration": 0.14285725000000582,
          "durationTicks": 120,
          "midi": 64,
          "name": "E4",
          "ticks": 86880,
          "time": 103.428649,
          "velocity": 0.25984251968503935
        },
        {
          "duration": 0.11904770833334055,
          "durationTicks": 100,
          "midi": 57,
          "name": "A3",
          "ticks": 87000,
          "time": 103.57150625,
          "velocity": 0.2047244094488189
        },
        {
          "duration": 0.11904770833334055,
          "durationTicks": 100,
          "midi": 60,
          "name": "C4",
          "ticks": 87000,
          "time": 103.57150625,
          "velocity": 0.2204724409448819
        },
        {
          "duration": 0.11904770833334055,
          "durationTicks": 100,
          "midi": 64,
          "name": "E4",
          "ticks": 87000,
          "time": 103.57150625,
          "velocity": 0.2992125984251969
        },
        {
          "duration": 0.28571449999999743,
          "durationTicks": 240,
          "midi": 54,
          "name": "F#3",
          "ticks": 87120,
          "time": 103.71436349999999,
          "velocity": 0.2283464566929134
        },
        {
          "duration": 0.28571450000001164,
          "durationTicks": 240,
          "midi": 57,
          "name": "A3",
          "ticks": 87360,
          "time": 104.00007799999999,
          "velocity": 0.23622047244094488
        },
        {
          "duration": 0.28571450000001164,
          "durationTicks": 240,
          "midi": 60,
          "name": "C4",
          "ticks": 87360,
          "time": 104.00007799999999,
          "velocity": 0.2755905511811024
        },
        {
          "duration": 0.28571450000001164,
          "durationTicks": 240,
          "midi": 64,
          "name": "E4",
          "ticks": 87360,
          "time": 104.00007799999999,
          "velocity": 0.3700787401574803
        },
        {
          "duration": 0.28571450000001164,
          "durationTicks": 240,
          "midi": 66,
          "name": "F#4",
          "ticks": 87360,
          "time": 104.00007799999999,
          "velocity": 0.5118110236220472
        },
        {
          "duration": 0.1428572499999916,
          "durationTicks": 120,
          "midi": 54,
          "name": "F#3",
          "ticks": 87600,
          "time": 104.2857925,
          "velocity": 0.4330708661417323
        },
        {
          "duration": 0.26190495833334637,
          "durationTicks": 220,
          "midi": 57,
          "name": "A3",
          "ticks": 87720,
          "time": 104.42864974999999,
          "velocity": 0.3779527559055118
        },
        {
          "duration": 0.14285725000000582,
          "durationTicks": 120,
          "midi": 64,
          "name": "E4",
          "ticks": 87960,
          "time": 104.71436424999999,
          "velocity": 0.29133858267716534
        },
        {
          "duration": 0.11904770833334055,
          "durationTicks": 100,
          "midi": 54,
          "name": "F#3",
          "ticks": 88080,
          "time": 104.8572215,
          "velocity": 0.2440944881889764
        },
        {
          "duration": 0.11904770833334055,
          "durationTicks": 100,
          "midi": 57,
          "name": "A3",
          "ticks": 88080,
          "time": 104.8572215,
          "velocity": 0.36220472440944884
        },
        {
          "duration": 0.1428572499999916,
          "durationTicks": 120,
          "midi": 59,
          "name": "B3",
          "ticks": 88200,
          "time": 105.00007875,
          "velocity": 0.2204724409448819
        },
        {
          "duration": 0.3095240416666627,
          "durationTicks": 260,
          "midi": 48,
          "name": "C3",
          "ticks": 88320,
          "time": 105.14293599999999,
          "velocity": 0.4881889763779528
        },
        {
          "duration": 0.3095240416666627,
          "durationTicks": 260,
          "midi": 60,
          "name": "C4",
          "ticks": 88320,
          "time": 105.14293599999999,
          "velocity": 0.4094488188976378
        },
        {
          "duration": 0.11904770833334055,
          "durationTicks": 100,
          "midi": 54,
          "name": "F#3",
          "ticks": 88560,
          "time": 105.42865049999999,
          "velocity": 0.29133858267716534
        },
        {
          "duration": 0.1428572499999916,
          "durationTicks": 120,
          "midi": 57,
          "name": "A3",
          "ticks": 88680,
          "time": 105.57150775,
          "velocity": 0.4251968503937008
        },
        {
          "duration": 0.14285725000000582,
          "durationTicks": 120,
          "midi": 45,
          "name": "A2",
          "ticks": 88800,
          "time": 105.71436499999999,
          "velocity": 0.4409448818897638
        },
        {
          "duration": 0.11904770833334055,
          "durationTicks": 100,
          "midi": 64,
          "name": "E4",
          "ticks": 88920,
          "time": 105.85722224999999,
          "velocity": 0.33858267716535434
        },
        {
          "duration": 0.1428572499999916,
          "durationTicks": 120,
          "midi": 54,
          "name": "F#3",
          "ticks": 89040,
          "time": 106.0000795,
          "velocity": 0.2755905511811024
        },
        {
          "duration": 0.11904770833334055,
          "durationTicks": 100,
          "midi": 63,
          "name": "D#4",
          "ticks": 89160,
          "time": 106.14293674999999,
          "velocity": 0.1889763779527559
        },
        {
          "duration": 0.28571449999999743,
          "durationTicks": 240,
          "midi": 42,
          "name": "F#2",
          "ticks": 89280,
          "time": 106.285794,
          "velocity": 0.3700787401574803
        },
        {
          "duration": 0.28571449999999743,
          "durationTicks": 240,
          "midi": 64,
          "name": "E4",
          "ticks": 89280,
          "time": 106.285794,
          "velocity": 0.3464566929133858
        },
        {
          "duration": 0.28571449999999743,
          "durationTicks": 240,
          "midi": 66,
          "name": "F#4",
          "ticks": 89280,
          "time": 106.285794,
          "velocity": 0.5039370078740157
        },
        {
          "duration": 0.14285725000000582,
          "durationTicks": 120,
          "midi": 54,
          "name": "F#3",
          "ticks": 89520,
          "time": 106.5715085,
          "velocity": 0.44881889763779526
        },
        {
          "duration": 0.14285725000000582,
          "durationTicks": 120,
          "midi": 67,
          "name": "G4",
          "ticks": 89520,
          "time": 106.5715085,
          "velocity": 0.25984251968503935
        },
        {
          "duration": 0.16666679166665688,
          "durationTicks": 140,
          "midi": 57,
          "name": "A3",
          "ticks": 89640,
          "time": 106.71436575,
          "velocity": 0.4015748031496063
        },
        {
          "duration": 0.16666679166665688,
          "durationTicks": 140,
          "midi": 69,
          "name": "A4",
          "ticks": 89640,
          "time": 106.71436575,
          "velocity": 0.4015748031496063
        },
        {
          "duration": 0.14285725000000582,
          "durationTicks": 120,
          "midi": 36,
          "name": "C2",
          "ticks": 89760,
          "time": 106.85722299999999,
          "velocity": 0.4409448818897638
        },
        {
          "duration": 0.14285725000000582,
          "durationTicks": 120,
          "midi": 71,
          "name": "B4",
          "ticks": 89760,
          "time": 106.85722299999999,
          "velocity": 0.2677165354330709
        },
        {
          "duration": 0.1428572499999916,
          "durationTicks": 120,
          "midi": 64,
          "name": "E4",
          "ticks": 89880,
          "time": 107.00008025,
          "velocity": 0.3700787401574803
        },
        {
          "duration": 0.1428572499999916,
          "durationTicks": 120,
          "midi": 72,
          "name": "C5",
          "ticks": 89880,
          "time": 107.00008025,
          "velocity": 0.2992125984251969
        },
        {
          "duration": 0.11904770833334055,
          "durationTicks": 100,
          "midi": 35,
          "name": "B1",
          "ticks": 90000,
          "time": 107.14293749999999,
          "velocity": 0.3464566929133858
        },
        {
          "duration": 0.11904770833334055,
          "durationTicks": 100,
          "midi": 74,
          "name": "D5",
          "ticks": 90000,
          "time": 107.14293749999999,
          "velocity": 0.30708661417322836
        },
        {
          "duration": 0.14285725000000582,
          "durationTicks": 120,
          "midi": 64,
          "name": "E4",
          "ticks": 90120,
          "time": 107.28579475,
          "velocity": 0.3464566929133858
        },
        {
          "duration": 0.14285725000000582,
          "durationTicks": 120,
          "midi": 76,
          "name": "E5",
          "ticks": 90120,
          "time": 107.28579475,
          "velocity": 0.3464566929133858
        },
        {
          "duration": 0.3095240416666485,
          "durationTicks": 260,
          "midi": 35,
          "name": "B1",
          "ticks": 90240,
          "time": 107.428652,
          "velocity": 0.33858267716535434
        },
        {
          "duration": 0.26190495833333216,
          "durationTicks": 220,
          "midi": 66,
          "name": "F#4",
          "ticks": 90240,
          "time": 107.428652,
          "velocity": 0.2440944881889764
        },
        {
          "duration": 0.26190495833333216,
          "durationTicks": 220,
          "midi": 75,
          "name": "D#5",
          "ticks": 90240,
          "time": 107.428652,
          "velocity": 0.29133858267716534
        },
        {
          "duration": 0.16666679166665688,
          "durationTicks": 140,
          "midi": 56,
          "name": "G#3",
          "ticks": 90480,
          "time": 107.7143665,
          "velocity": 0.30708661417322836
        },
        {
          "duration": 0.14285725000000582,
          "durationTicks": 120,
          "midi": 63,
          "name": "D#4",
          "ticks": 90600,
          "time": 107.85722374999999,
          "velocity": 0.28346456692913385
        },
        {
          "duration": 0.11904770833334055,
          "durationTicks": 100,
          "midi": 56,
          "name": "G#3",
          "ticks": 90720,
          "time": 108.000081,
          "velocity": 0.2677165354330709
        },
        {
          "duration": 0.11904770833334055,
          "durationTicks": 100,
          "midi": 59,
          "name": "B3",
          "ticks": 90720,
          "time": 108.000081,
          "velocity": 0.30708661417322836
        },
        {
          "duration": 0.11904770833334055,
          "durationTicks": 100,
          "midi": 63,
          "name": "D#4",
          "ticks": 90720,
          "time": 108.000081,
          "velocity": 0.31496062992125984
        },
        {
          "duration": 0.14285725000000582,
          "durationTicks": 120,
          "midi": 64,
          "name": "E4",
          "ticks": 90720,
          "time": 108.000081,
          "velocity": 0.2047244094488189
        },
        {
          "duration": 0.11904770833332634,
          "durationTicks": 100,
          "midi": 64,
          "name": "E4",
          "ticks": 90840,
          "time": 108.14293825,
          "velocity": 0.49606299212598426
        },
        {
          "duration": 0.2380954166666669,
          "durationTicks": 200,
          "midi": 56,
          "name": "G#3",
          "ticks": 90960,
          "time": 108.28579549999999,
          "velocity": 0.33070866141732286
        },
        {
          "duration": 0.2380954166666669,
          "durationTicks": 200,
          "midi": 59,
          "name": "B3",
          "ticks": 91200,
          "time": 108.57150999999999,
          "velocity": 0.5196850393700787
        },
        {
          "duration": 0.2380954166666669,
          "durationTicks": 200,
          "midi": 64,
          "name": "E4",
          "ticks": 91200,
          "time": 108.57150999999999,
          "velocity": 0.29133858267716534
        },
        {
          "duration": 0.14285725000000582,
          "durationTicks": 120,
          "midi": 56,
          "name": "G#3",
          "ticks": 91440,
          "time": 108.85722449999999,
          "velocity": 0.41732283464566927
        },
        {
          "duration": 0.19047633333333636,
          "durationTicks": 160,
          "midi": 63,
          "name": "D#4",
          "ticks": 91560,
          "time": 109.00008174999999,
          "velocity": 0.2992125984251969
        },
        {
          "duration": 0.28571449999999743,
          "durationTicks": 240,
          "midi": 59,
          "name": "B3",
          "ticks": 91680,
          "time": 109.142939,
          "velocity": 0.2992125984251969
        },
        {
          "duration": 0.28571449999999743,
          "durationTicks": 240,
          "midi": 64,
          "name": "E4",
          "ticks": 91680,
          "time": 109.142939,
          "velocity": 0.2677165354330709
        },
        {
          "duration": 0.0714286249999958,
          "durationTicks": 60,
          "midi": 73,
          "name": "C#5",
          "ticks": 91680,
          "time": 109.142939,
          "velocity": 0.2440944881889764
        },
        {
          "duration": 0.11904770833334055,
          "durationTicks": 100,
          "midi": 32,
          "name": "G#1",
          "ticks": 91920,
          "time": 109.4286535,
          "velocity": 0.49606299212598426
        },
        {
          "duration": 0.11904770833334055,
          "durationTicks": 100,
          "midi": 47,
          "name": "B2",
          "ticks": 91920,
          "time": 109.4286535,
          "velocity": 0.3228346456692913
        },
        {
          "duration": 0.11904770833334055,
          "durationTicks": 100,
          "midi": 56,
          "name": "G#3",
          "ticks": 91920,
          "time": 109.4286535,
          "velocity": 0.33070866141732286
        },
        {
          "duration": 0.11904770833334055,
          "durationTicks": 100,
          "midi": 62,
          "name": "D4",
          "ticks": 91920,
          "time": 109.4286535,
          "velocity": 0.7086614173228346
        },
        {
          "duration": 0.14285725000000582,
          "durationTicks": 120,
          "midi": 35,
          "name": "B1",
          "ticks": 92040,
          "time": 109.57151074999999,
          "velocity": 0.3700787401574803
        },
        {
          "duration": 0.26190495833333216,
          "durationTicks": 220,
          "midi": 34,
          "name": "A#1",
          "ticks": 92160,
          "time": 109.714368,
          "velocity": 0.4015748031496063
        },
        {
          "duration": 0.26190495833333216,
          "durationTicks": 220,
          "midi": 58,
          "name": "A#3",
          "ticks": 92160,
          "time": 109.714368,
          "velocity": 0.25196850393700787
        },
        {
          "duration": 0.26190495833333216,
          "durationTicks": 220,
          "midi": 63,
          "name": "D#4",
          "ticks": 92160,
          "time": 109.714368,
          "velocity": 0.3700787401574803
        },
        {
          "duration": 0.11904770833334055,
          "durationTicks": 100,
          "midi": 52,
          "name": "E3",
          "ticks": 92400,
          "time": 110.00008249999999,
          "velocity": 0.33858267716535434
        },
        {
          "duration": 0.11904770833334055,
          "durationTicks": 100,
          "midi": 58,
          "name": "A#3",
          "ticks": 92400,
          "time": 110.00008249999999,
          "velocity": 0.2992125984251969
        },
        {
          "duration": 0.11904770833334055,
          "durationTicks": 100,
          "midi": 61,
          "name": "C#4",
          "ticks": 92400,
          "time": 110.00008249999999,
          "velocity": 0.2440944881889764
        },
        {
          "duration": 0.11904770833334055,
          "durationTicks": 100,
          "midi": 64,
          "name": "E4",
          "ticks": 92400,
          "time": 110.00008249999999,
          "velocity": 0.2677165354330709
        },
        {
          "duration": 0.11904770833334055,
          "durationTicks": 100,
          "midi": 68,
          "name": "G#4",
          "ticks": 92400,
          "time": 110.00008249999999,
          "velocity": 0.2440944881889764
        },
        {
          "duration": 0.11904770833334055,
          "durationTicks": 100,
          "midi": 75,
          "name": "D#5",
          "ticks": 92400,
          "time": 110.00008249999999,
          "velocity": 0.28346456692913385
        },
        {
          "duration": 0.28571449999999743,
          "durationTicks": 240,
          "midi": 56,
          "name": "G#3",
          "ticks": 92520,
          "time": 110.14293975,
          "velocity": 0.33858267716535434
        },
        {
          "duration": 0.14285725000000582,
          "durationTicks": 120,
          "midi": 63,
          "name": "D#4",
          "ticks": 92760,
          "time": 110.42865425,
          "velocity": 0.36220472440944884
        },
        {
          "duration": 0.28571449999999743,
          "durationTicks": 240,
          "midi": 39,
          "name": "D#2",
          "ticks": 92880,
          "time": 110.5715115,
          "velocity": 0.29133858267716534
        },
        {
          "duration": 0.28571449999999743,
          "durationTicks": 240,
          "midi": 52,
          "name": "E3",
          "ticks": 92880,
          "time": 110.5715115,
          "velocity": 0.33070866141732286
        },
        {
          "duration": 0.28571449999999743,
          "durationTicks": 240,
          "midi": 61,
          "name": "C#4",
          "ticks": 92880,
          "time": 110.5715115,
          "velocity": 0.4094488188976378
        },
        {
          "duration": 0.28571449999999743,
          "durationTicks": 240,
          "midi": 64,
          "name": "E4",
          "ticks": 92880,
          "time": 110.5715115,
          "velocity": 0.25984251968503935
        },
        {
          "duration": 0.28571449999999743,
          "durationTicks": 240,
          "midi": 68,
          "name": "G#4",
          "ticks": 92880,
          "time": 110.5715115,
          "velocity": 0.3228346456692913
        },
        {
          "duration": 0.11904770833334055,
          "durationTicks": 100,
          "midi": 61,
          "name": "C#4",
          "ticks": 93120,
          "time": 110.857226,
          "velocity": 0.5275590551181102
        },
        {
          "duration": 0.19047633333333636,
          "durationTicks": 160,
          "midi": 68,
          "name": "G#4",
          "ticks": 93120,
          "time": 110.857226,
          "velocity": 0.2755905511811024
        },
        {
          "duration": 0.09523816666666107,
          "durationTicks": 80,
          "midi": 63,
          "name": "D#4",
          "ticks": 93240,
          "time": 111.00008324999999,
          "velocity": 0.2992125984251969
        },
        {
          "duration": 0.1428572499999916,
          "durationTicks": 120,
          "midi": 52,
          "name": "E3",
          "ticks": 93360,
          "time": 111.1429405,
          "velocity": 0.33858267716535434
        },
        {
          "duration": 0.11904770833334055,
          "durationTicks": 100,
          "midi": 56,
          "name": "G#3",
          "ticks": 93480,
          "time": 111.28579774999999,
          "velocity": 0.36220472440944884
        },
        {
          "duration": 0.14285725000000582,
          "durationTicks": 120,
          "midi": 64,
          "name": "E4",
          "ticks": 93600,
          "time": 111.42865499999999,
          "velocity": 0.47244094488188976
        },
        {
          "duration": 0.16666679166665688,
          "durationTicks": 140,
          "midi": 61,
          "name": "C#4",
          "ticks": 93720,
          "time": 111.57151225,
          "velocity": 0.3779527559055118
        },
        {
          "duration": 0.28571449999999743,
          "durationTicks": 240,
          "midi": 34,
          "name": "A#1",
          "ticks": 93840,
          "time": 111.71436949999999,
          "velocity": 0.47244094488188976
        },
        {
          "duration": 0.28571449999999743,
          "durationTicks": 240,
          "midi": 59,
          "name": "B3",
          "ticks": 93840,
          "time": 111.71436949999999,
          "velocity": 0.4094488188976378
        },
        {
          "duration": 0.28571450000001164,
          "durationTicks": 240,
          "midi": 33,
          "name": "A1",
          "ticks": 94080,
          "time": 112.00008399999999,
          "velocity": 0.4409448818897638
        },
        {
          "duration": 0.28571450000001164,
          "durationTicks": 240,
          "midi": 45,
          "name": "A2",
          "ticks": 94080,
          "time": 112.00008399999999,
          "velocity": 0.4409448818897638
        },
        {
          "duration": 0.28571450000001164,
          "durationTicks": 240,
          "midi": 61,
          "name": "C#4",
          "ticks": 94080,
          "time": 112.00008399999999,
          "velocity": 0.4566929133858268
        },
        {
          "duration": 0.16666679166665688,
          "durationTicks": 140,
          "midi": 56,
          "name": "G#3",
          "ticks": 94320,
          "time": 112.2857985,
          "velocity": 0.2440944881889764
        },
        {
          "duration": 0.14285725000000582,
          "durationTicks": 120,
          "midi": 61,
          "name": "C#4",
          "ticks": 94440,
          "time": 112.42865574999999,
          "velocity": 0.5354330708661418
        },
        {
          "duration": 0.11904770833334055,
          "durationTicks": 100,
          "midi": 77,
          "name": "F5",
          "ticks": 94560,
          "time": 112.571513,
          "velocity": 0.3700787401574803
        },
        {
          "duration": 0.19047633333335057,
          "durationTicks": 160,
          "midi": 65,
          "name": "F4",
          "ticks": 94680,
          "time": 112.71437024999999,
          "velocity": 0.3779527559055118
        },
        {
          "duration": 0.14285725000000582,
          "durationTicks": 120,
          "midi": 73,
          "name": "C#5",
          "ticks": 94680,
          "time": 112.71437024999999,
          "velocity": 0.2677165354330709
        },
        {
          "duration": 0.11904770833334055,
          "durationTicks": 100,
          "midi": 56,
          "name": "G#3",
          "ticks": 94800,
          "time": 112.8572275,
          "velocity": 0.25984251968503935
        },
        {
          "duration": 0.09523816666666107,
          "durationTicks": 80,
          "midi": 71,
          "name": "B4",
          "ticks": 94920,
          "time": 113.00008475,
          "velocity": 0.3464566929133858
        },
        {
          "duration": 0.14285725000000582,
          "durationTicks": 120,
          "midi": 68,
          "name": "G#4",
          "ticks": 95040,
          "time": 113.14294199999999,
          "velocity": 0.30708661417322836
        },
        {
          "duration": 0.11904770833334055,
          "durationTicks": 100,
          "midi": 69,
          "name": "A4",
          "ticks": 95160,
          "time": 113.28579925,
          "velocity": 0.2677165354330709
        },
        {
          "duration": 0.14285725000000582,
          "durationTicks": 120,
          "midi": 56,
          "name": "G#3",
          "ticks": 95280,
          "time": 113.42865649999999,
          "velocity": 0.33070866141732286
        },
        {
          "duration": 0.26190495833333216,
          "durationTicks": 220,
          "midi": 61,
          "name": "C#4",
          "ticks": 95400,
          "time": 113.57151375,
          "velocity": 0.3700787401574803
        },
        {
          "duration": 0.26190495833333216,
          "durationTicks": 220,
          "midi": 65,
          "name": "F4",
          "ticks": 95400,
          "time": 113.57151375,
          "velocity": 0.2283464566929134
        },
        {
          "duration": 0.26190495833333216,
          "durationTicks": 220,
          "midi": 69,
          "name": "A4",
          "ticks": 95400,
          "time": 113.57151375,
          "velocity": 0.31496062992125984
        },
        {
          "duration": 0.16666679166665688,
          "durationTicks": 140,
          "midi": 65,
          "name": "F4",
          "ticks": 95640,
          "time": 113.85722824999999,
          "velocity": 0.33070866141732286
        },
        {
          "duration": 0.28571449999999743,
          "durationTicks": 240,
          "midi": 33,
          "name": "A1",
          "ticks": 95760,
          "time": 114.0000855,
          "velocity": 0.33858267716535434
        },
        {
          "duration": 0.28571449999999743,
          "durationTicks": 240,
          "midi": 40,
          "name": "E2",
          "ticks": 95760,
          "time": 114.0000855,
          "velocity": 0.3700787401574803
        },
        {
          "duration": 0.28571449999999743,
          "durationTicks": 240,
          "midi": 47,
          "name": "B2",
          "ticks": 95760,
          "time": 114.0000855,
          "velocity": 0.23622047244094488
        },
        {
          "duration": 0.28571449999999743,
          "durationTicks": 240,
          "midi": 56,
          "name": "G#3",
          "ticks": 95760,
          "time": 114.0000855,
          "velocity": 0.28346456692913385
        },
        {
          "duration": 0.28571449999999743,
          "durationTicks": 240,
          "midi": 45,
          "name": "A2",
          "ticks": 96000,
          "time": 114.2858,
          "velocity": 0.5118110236220472
        },
        {
          "duration": 0.28571449999999743,
          "durationTicks": 240,
          "midi": 66,
          "name": "F#4",
          "ticks": 96000,
          "time": 114.2858,
          "velocity": 0.16535433070866143
        },
        {
          "duration": 0.28571449999999743,
          "durationTicks": 240,
          "midi": 69,
          "name": "A4",
          "ticks": 96000,
          "time": 114.2858,
          "velocity": 0.2283464566929134
        },
        {
          "duration": 0.11904770833334055,
          "durationTicks": 100,
          "midi": 61,
          "name": "C#4",
          "ticks": 96240,
          "time": 114.57151449999999,
          "velocity": 0.23622047244094488
        },
        {
          "duration": 0.28571449999999743,
          "durationTicks": 240,
          "midi": 66,
          "name": "F#4",
          "ticks": 96360,
          "time": 114.71437175,
          "velocity": 0.3228346456692913
        },
        {
          "duration": 0.1428572499999916,
          "durationTicks": 120,
          "midi": 67,
          "name": "G4",
          "ticks": 96600,
          "time": 115.00008625,
          "velocity": 0.2047244094488189
        },
        {
          "duration": 0.1428572499999916,
          "durationTicks": 120,
          "midi": 69,
          "name": "A4",
          "ticks": 96600,
          "time": 115.00008625,
          "velocity": 0.4566929133858268
        },
        {
          "duration": 0.1666667916666711,
          "durationTicks": 140,
          "midi": 45,
          "name": "A2",
          "ticks": 96720,
          "time": 115.14294349999999,
          "velocity": 0.4094488188976378
        },
        {
          "duration": 0.11904770833334055,
          "durationTicks": 100,
          "midi": 68,
          "name": "G#4",
          "ticks": 96720,
          "time": 115.14294349999999,
          "velocity": 0.2755905511811024
        },
        {
          "duration": 0.09523816666666107,
          "durationTicks": 80,
          "midi": 66,
          "name": "F#4",
          "ticks": 96840,
          "time": 115.28580074999999,
          "velocity": 0.33070866141732286
        },
        {
          "duration": 0.1428572499999916,
          "durationTicks": 120,
          "midi": 44,
          "name": "G#2",
          "ticks": 96960,
          "time": 115.428658,
          "velocity": 0.6141732283464567
        },
        {
          "duration": 0.1428572499999916,
          "durationTicks": 120,
          "midi": 54,
          "name": "F#3",
          "ticks": 96960,
          "time": 115.428658,
          "velocity": 0.33070866141732286
        },
        {
          "duration": 0.1428572499999916,
          "durationTicks": 120,
          "midi": 56,
          "name": "G#3",
          "ticks": 96960,
          "time": 115.428658,
          "velocity": 0.6141732283464567
        },
        {
          "duration": 0.1428572499999916,
          "durationTicks": 120,
          "midi": 59,
          "name": "B3",
          "ticks": 96960,
          "time": 115.428658,
          "velocity": 0.1968503937007874
        },
        {
          "duration": 0.11904770833332634,
          "durationTicks": 100,
          "midi": 64,
          "name": "E4",
          "ticks": 96960,
          "time": 115.428658,
          "velocity": 0.23622047244094488
        },
        {
          "duration": 0.11904770833334055,
          "durationTicks": 100,
          "midi": 60,
          "name": "C4",
          "ticks": 97080,
          "time": 115.57151524999999,
          "velocity": 0.3464566929133858
        },
        {
          "duration": 0.1428572499999916,
          "durationTicks": 120,
          "midi": 54,
          "name": "F#3",
          "ticks": 97200,
          "time": 115.7143725,
          "velocity": 0.25984251968503935
        },
        {
          "duration": 0.1428572499999916,
          "durationTicks": 120,
          "midi": 59,
          "name": "B3",
          "ticks": 97200,
          "time": 115.7143725,
          "velocity": 0.28346456692913385
        },
        {
          "duration": 0.1428572499999916,
          "durationTicks": 120,
          "midi": 71,
          "name": "B4",
          "ticks": 97200,
          "time": 115.7143725,
          "velocity": 0.28346456692913385
        },
        {
          "duration": 0.11904770833334055,
          "durationTicks": 100,
          "midi": 57,
          "name": "A3",
          "ticks": 97320,
          "time": 115.85722974999999,
          "velocity": 0.2677165354330709
        },
        {
          "duration": 0.11904770833334055,
          "durationTicks": 100,
          "midi": 64,
          "name": "E4",
          "ticks": 97320,
          "time": 115.85722974999999,
          "velocity": 0.1968503937007874
        },
        {
          "duration": 0.09523816666666107,
          "durationTicks": 80,
          "midi": 56,
          "name": "G#3",
          "ticks": 97440,
          "time": 116.000087,
          "velocity": 0.31496062992125984
        },
        {
          "duration": 0.11904770833332634,
          "durationTicks": 100,
          "midi": 57,
          "name": "A3",
          "ticks": 97560,
          "time": 116.14294425,
          "velocity": 0.25984251968503935
        },
        {
          "duration": 0.16666679166665688,
          "durationTicks": 140,
          "midi": 64,
          "name": "E4",
          "ticks": 97560,
          "time": 116.14294425,
          "velocity": 0.3228346456692913
        },
        {
          "duration": 0.28571449999999743,
          "durationTicks": 240,
          "midi": 44,
          "name": "G#2",
          "ticks": 97680,
          "time": 116.28580149999999,
          "velocity": 0.4409448818897638
        },
        {
          "duration": 0.28571449999999743,
          "durationTicks": 240,
          "midi": 58,
          "name": "A#3",
          "ticks": 97680,
          "time": 116.28580149999999,
          "velocity": 0.25984251968503935
        },
        {
          "duration": 0.28571449999999743,
          "durationTicks": 240,
          "midi": 42,
          "name": "F#2",
          "ticks": 97920,
          "time": 116.57151599999999,
          "velocity": 0.6377952755905512
        },
        {
          "duration": 0.28571449999999743,
          "durationTicks": 240,
          "midi": 57,
          "name": "A3",
          "ticks": 97920,
          "time": 116.57151599999999,
          "velocity": 0.25984251968503935
        },
        {
          "duration": 0.28571449999999743,
          "durationTicks": 240,
          "midi": 61,
          "name": "C#4",
          "ticks": 97920,
          "time": 116.57151599999999,
          "velocity": 0.23622047244094488
        },
        {
          "duration": 0.28571449999999743,
          "durationTicks": 240,
          "midi": 64,
          "name": "E4",
          "ticks": 97920,
          "time": 116.57151599999999,
          "velocity": 0.29133858267716534
        },
        {
          "duration": 0.28571449999999743,
          "durationTicks": 240,
          "midi": 68,
          "name": "G#4",
          "ticks": 97920,
          "time": 116.57151599999999,
          "velocity": 0.1889763779527559
        },
        {
          "duration": 0.28571449999999743,
          "durationTicks": 240,
          "midi": 76,
          "name": "E5",
          "ticks": 97920,
          "time": 116.57151599999999,
          "velocity": 0.29133858267716534
        },
        {
          "duration": 0.1666667916666711,
          "durationTicks": 140,
          "midi": 52,
          "name": "E3",
          "ticks": 98160,
          "time": 116.85723049999999,
          "velocity": 0.29133858267716534
        },
        {
          "duration": 0.28571449999999743,
          "durationTicks": 240,
          "midi": 57,
          "name": "A3",
          "ticks": 98280,
          "time": 117.00008774999999,
          "velocity": 0.4330708661417323
        },
        {
          "duration": 0.28571449999999743,
          "durationTicks": 240,
          "midi": 64,
          "name": "E4",
          "ticks": 98280,
          "time": 117.00008774999999,
          "velocity": 0.3228346456692913
        },
        {
          "duration": 0.28571449999999743,
          "durationTicks": 240,
          "midi": 69,
          "name": "A4",
          "ticks": 98280,
          "time": 117.00008774999999,
          "velocity": 0.4330708661417323
        },
        {
          "duration": 0.2380954166666669,
          "durationTicks": 200,
          "midi": 71,
          "name": "B4",
          "ticks": 98280,
          "time": 117.00008774999999,
          "velocity": 0.2992125984251969
        },
        {
          "duration": 0.28571449999999743,
          "durationTicks": 240,
          "midi": 76,
          "name": "E5",
          "ticks": 98280,
          "time": 117.00008774999999,
          "velocity": 0.3228346456692913
        },
        {
          "duration": 0.14285725000000582,
          "durationTicks": 120,
          "midi": 32,
          "name": "G#1",
          "ticks": 98520,
          "time": 117.28580224999999,
          "velocity": 0.36220472440944884
        },
        {
          "duration": 0.14285725000000582,
          "durationTicks": 120,
          "midi": 59,
          "name": "B3",
          "ticks": 98520,
          "time": 117.28580224999999,
          "velocity": 0.29133858267716534
        },
        {
          "duration": 0.26190495833333216,
          "durationTicks": 220,
          "midi": 30,
          "name": "F#1",
          "ticks": 98640,
          "time": 117.4286595,
          "velocity": 0.5118110236220472
        },
        {
          "duration": 0.21428587500000162,
          "durationTicks": 180,
          "midi": 59,
          "name": "B3",
          "ticks": 98640,
          "time": 117.4286595,
          "velocity": 0.8503937007874016
        },
        {
          "duration": 0.21428587500000162,
          "durationTicks": 180,
          "midi": 76,
          "name": "E5",
          "ticks": 98640,
          "time": 117.4286595,
          "velocity": 0.29133858267716534
        },
        {
          "duration": 0.28571449999999743,
          "durationTicks": 240,
          "midi": 64,
          "name": "E4",
          "ticks": 98880,
          "time": 117.71437399999999,
          "velocity": 0.2992125984251969
        },
        {
          "duration": 0.14285725000000582,
          "durationTicks": 120,
          "midi": 52,
          "name": "E3",
          "ticks": 99120,
          "time": 118.00008849999999,
          "velocity": 0.33070866141732286
        },
        {
          "duration": 0.14285725000000582,
          "durationTicks": 120,
          "midi": 71,
          "name": "B4",
          "ticks": 99120,
          "time": 118.00008849999999,
          "velocity": 0.6929133858267716
        },
        {
          "duration": 0.11904770833334055,
          "durationTicks": 100,
          "midi": 57,
          "name": "A3",
          "ticks": 99240,
          "time": 118.14294575,
          "velocity": 0.4094488188976378
        },
        {
          "duration": 0.16666679166665688,
          "durationTicks": 140,
          "midi": 69,
          "name": "A4",
          "ticks": 99240,
          "time": 118.14294575,
          "velocity": 0.4094488188976378
        },
        {
          "duration": 0.14285725000000582,
          "durationTicks": 120,
          "midi": 61,
          "name": "C#4",
          "ticks": 99360,
          "time": 118.28580299999999,
          "velocity": 0.30708661417322836
        },
        {
          "duration": 0.14285725000000582,
          "durationTicks": 120,
          "midi": 66,
          "name": "F#4",
          "ticks": 99360,
          "time": 118.28580299999999,
          "velocity": 0.2204724409448819
        },
        {
          "duration": 0.16666679166665688,
          "durationTicks": 140,
          "midi": 59,
          "name": "B3",
          "ticks": 99480,
          "time": 118.42866025,
          "velocity": 0.48031496062992124
        },
        {
          "duration": 0.1428572499999916,
          "durationTicks": 120,
          "midi": 30,
          "name": "F#1",
          "ticks": 99600,
          "time": 118.5715175,
          "velocity": 0.31496062992125984
        },
        {
          "duration": 0.1428572499999916,
          "durationTicks": 120,
          "midi": 31,
          "name": "G1",
          "ticks": 99600,
          "time": 118.5715175,
          "velocity": 0.3858267716535433
        },
        {
          "duration": 0.1428572499999916,
          "durationTicks": 120,
          "midi": 52,
          "name": "E3",
          "ticks": 99600,
          "time": 118.5715175,
          "velocity": 0.23622047244094488
        },
        {
          "duration": 0.1428572499999916,
          "durationTicks": 120,
          "midi": 63,
          "name": "D#4",
          "ticks": 99600,
          "time": 118.5715175,
          "velocity": 0.2283464566929134
        },
        {
          "duration": 0.1428572499999916,
          "durationTicks": 120,
          "midi": 70,
          "name": "A#4",
          "ticks": 99600,
          "time": 118.5715175,
          "velocity": 0.5984251968503937
        },
        {
          "duration": 0.11904770833334055,
          "durationTicks": 100,
          "midi": 64,
          "name": "E4",
          "ticks": 99720,
          "time": 118.71437474999999,
          "velocity": 0.1889763779527559
        },
        {
          "duration": 0.28571449999999743,
          "durationTicks": 240,
          "midi": 32,
          "name": "G#1",
          "ticks": 99840,
          "time": 118.857232,
          "velocity": 0.4881889763779528
        },
        {
          "duration": 0.28571449999999743,
          "durationTicks": 240,
          "midi": 65,
          "name": "F4",
          "ticks": 99840,
          "time": 118.857232,
          "velocity": 0.2283464566929134
        },
        {
          "duration": 0.11904770833334055,
          "durationTicks": 100,
          "midi": 54,
          "name": "F#3",
          "ticks": 100080,
          "time": 119.1429465,
          "velocity": 0.29133858267716534
        },
        {
          "duration": 0.11904770833334055,
          "durationTicks": 100,
          "midi": 65,
          "name": "F4",
          "ticks": 100080,
          "time": 119.1429465,
          "velocity": 0.3464566929133858
        },
        {
          "duration": 0.11904770833334055,
          "durationTicks": 100,
          "midi": 69,
          "name": "A4",
          "ticks": 100080,
          "time": 119.1429465,
          "velocity": 0.6141732283464567
        },
        {
          "duration": 0.11904770833334055,
          "durationTicks": 100,
          "midi": 72,
          "name": "C5",
          "ticks": 100080,
          "time": 119.1429465,
          "velocity": 0.30708661417322836
        },
        {
          "duration": 0.11904770833334055,
          "durationTicks": 100,
          "midi": 77,
          "name": "F5",
          "ticks": 100080,
          "time": 119.1429465,
          "velocity": 0.3464566929133858
        },
        {
          "duration": 0.28571449999999743,
          "durationTicks": 240,
          "midi": 60,
          "name": "C4",
          "ticks": 100200,
          "time": 119.28580375,
          "velocity": 0.2755905511811024
        },
        {
          "duration": 0.19047633333333636,
          "durationTicks": 160,
          "midi": 68,
          "name": "G#4",
          "ticks": 100440,
          "time": 119.57151825,
          "velocity": 0.2283464566929134
        },
        {
          "duration": 0.3095240416666627,
          "durationTicks": 260,
          "midi": 32,
          "name": "G#1",
          "ticks": 100560,
          "time": 119.71437549999999,
          "velocity": 0.48031496062992124
        },
        {
          "duration": 0.3095240416666627,
          "durationTicks": 260,
          "midi": 54,
          "name": "F#3",
          "ticks": 100560,
          "time": 119.71437549999999,
          "velocity": 0.31496062992125984
        },
        {
          "duration": 0.3095240416666627,
          "durationTicks": 260,
          "midi": 56,
          "name": "G#3",
          "ticks": 100560,
          "time": 119.71437549999999,
          "velocity": 0.2755905511811024
        },
        {
          "duration": 0.26190495833334637,
          "durationTicks": 220,
          "midi": 60,
          "name": "C4",
          "ticks": 100560,
          "time": 119.71437549999999,
          "velocity": 0.33858267716535434
        },
        {
          "duration": 0.26190495833334637,
          "durationTicks": 220,
          "midi": 64,
          "name": "E4",
          "ticks": 100560,
          "time": 119.71437549999999,
          "velocity": 0.25984251968503935
        },
        {
          "duration": 0.3095240416666627,
          "durationTicks": 260,
          "midi": 68,
          "name": "G#4",
          "ticks": 100560,
          "time": 119.71437549999999,
          "velocity": 0.3543307086614173
        },
        {
          "duration": 0.26190495833334637,
          "durationTicks": 220,
          "midi": 72,
          "name": "C5",
          "ticks": 100560,
          "time": 119.71437549999999,
          "velocity": 0.33858267716535434
        },
        {
          "duration": 0.28571450000001164,
          "durationTicks": 240,
          "midi": 44,
          "name": "G#2",
          "ticks": 100800,
          "time": 120.00008999999999,
          "velocity": 0.30708661417322836
        },
        {
          "duration": 0.28571450000001164,
          "durationTicks": 240,
          "midi": 56,
          "name": "G#3",
          "ticks": 100800,
          "time": 120.00008999999999,
          "velocity": 0.6929133858267716
        },
        {
          "duration": 0.28571450000001164,
          "durationTicks": 240,
          "midi": 64,
          "name": "E4",
          "ticks": 100800,
          "time": 120.00008999999999,
          "velocity": 0.33070866141732286
        },
        {
          "duration": 0.1428572499999916,
          "durationTicks": 120,
          "midi": 39,
          "name": "D#2",
          "ticks": 101040,
          "time": 120.2858045,
          "velocity": 0.3464566929133858
        },
        {
          "duration": 0.26190495833334637,
          "durationTicks": 220,
          "midi": 44,
          "name": "G#2",
          "ticks": 101160,
          "time": 120.42866174999999,
          "velocity": 0.3228346456692913
        },
        {
          "duration": 0.11904770833334055,
          "durationTicks": 100,
          "midi": 39,
          "name": "D#2",
          "ticks": 101400,
          "time": 120.71437624999999,
          "velocity": 0.41732283464566927
        },
        {
          "duration": 0.14285725000000582,
          "durationTicks": 120,
          "midi": 44,
          "name": "G#2",
          "ticks": 101520,
          "time": 120.85723349999999,
          "velocity": 0.3543307086614173
        },
        {
          "duration": 0.09523816666666107,
          "durationTicks": 80,
          "midi": 66,
          "name": "F#4",
          "ticks": 101520,
          "time": 120.85723349999999,
          "velocity": 0.3779527559055118
        },
        {
          "duration": 0.16666679166665688,
          "durationTicks": 140,
          "midi": 34,
          "name": "A#1",
          "ticks": 101640,
          "time": 121.00009075,
          "velocity": 0.3464566929133858
        },
        {
          "duration": 0.11904770833332634,
          "durationTicks": 100,
          "midi": 68,
          "name": "G#4",
          "ticks": 101640,
          "time": 121.00009075,
          "velocity": 0.33858267716535434
        },
        {
          "duration": 0.28571449999999743,
          "durationTicks": 240,
          "midi": 33,
          "name": "A1",
          "ticks": 101760,
          "time": 121.14294799999999,
          "velocity": 0.4566929133858268
        },
        {
          "duration": 0.28571449999999743,
          "durationTicks": 240,
          "midi": 45,
          "name": "A2",
          "ticks": 101760,
          "time": 121.14294799999999,
          "velocity": 0.4566929133858268
        },
        {
          "duration": 0.28571449999999743,
          "durationTicks": 240,
          "midi": 57,
          "name": "A3",
          "ticks": 101760,
          "time": 121.14294799999999,
          "velocity": 0.2992125984251969
        },
        {
          "duration": 0.28571449999999743,
          "durationTicks": 240,
          "midi": 61,
          "name": "C#4",
          "ticks": 101760,
          "time": 121.14294799999999,
          "velocity": 0.2992125984251969
        },
        {
          "duration": 0.21428587500000162,
          "durationTicks": 180,
          "midi": 64,
          "name": "E4",
          "ticks": 101880,
          "time": 121.28580525,
          "velocity": 0.30708661417322836
        },
        {
          "duration": 0.11904770833334055,
          "durationTicks": 100,
          "midi": 56,
          "name": "G#3",
          "ticks": 102000,
          "time": 121.42866249999999,
          "velocity": 0.2755905511811024
        },
        {
          "duration": 0.14285725000000582,
          "durationTicks": 120,
          "midi": 40,
          "name": "E2",
          "ticks": 102120,
          "time": 121.57151975,
          "velocity": 0.4094488188976378
        },
        {
          "duration": 0.14285725000000582,
          "durationTicks": 120,
          "midi": 45,
          "name": "A2",
          "ticks": 102120,
          "time": 121.57151975,
          "velocity": 0.4094488188976378
        },
        {
          "duration": 0.14285725000000582,
          "durationTicks": 120,
          "midi": 56,
          "name": "G#3",
          "ticks": 102120,
          "time": 121.57151975,
          "velocity": 0.29133858267716534
        },
        {
          "duration": 0.14285725000000582,
          "durationTicks": 120,
          "midi": 61,
          "name": "C#4",
          "ticks": 102120,
          "time": 121.57151975,
          "velocity": 0.33070866141732286
        },
        {
          "duration": 0.14285725000000582,
          "durationTicks": 120,
          "midi": 64,
          "name": "E4",
          "ticks": 102120,
          "time": 121.57151975,
          "velocity": 0.3858267716535433
        },
        {
          "duration": 0.14285725000000582,
          "durationTicks": 120,
          "midi": 73,
          "name": "C#5",
          "ticks": 102120,
          "time": 121.57151975,
          "velocity": 0.23622047244094488
        },
        {
          "duration": 0.26190495833333216,
          "durationTicks": 220,
          "midi": 64,
          "name": "E4",
          "ticks": 102240,
          "time": 121.714377,
          "velocity": 0.3779527559055118
        },
        {
          "duration": 0.28571449999999743,
          "durationTicks": 240,
          "midi": 45,
          "name": "A2",
          "ticks": 102480,
          "time": 122.0000915,
          "velocity": 0.3464566929133858
        },
        {
          "duration": 0.26190495833333216,
          "durationTicks": 220,
          "midi": 66,
          "name": "F#4",
          "ticks": 102480,
          "time": 122.0000915,
          "velocity": 0.4094488188976378
        },
        {
          "duration": 0.28571449999999743,
          "durationTicks": 240,
          "midi": 45,
          "name": "A2",
          "ticks": 102720,
          "time": 122.285806,
          "velocity": 0.4330708661417323
        },
        {
          "duration": 0.28571449999999743,
          "durationTicks": 240,
          "midi": 59,
          "name": "B3",
          "ticks": 102720,
          "time": 122.285806,
          "velocity": 0.2283464566929134
        },
        {
          "duration": 0.28571449999999743,
          "durationTicks": 240,
          "midi": 61,
          "name": "C#4",
          "ticks": 102720,
          "time": 122.285806,
          "velocity": 0.2755905511811024
        },
        {
          "duration": 0.28571449999999743,
          "durationTicks": 240,
          "midi": 64,
          "name": "E4",
          "ticks": 102720,
          "time": 122.285806,
          "velocity": 0.3858267716535433
        },
        {
          "duration": 0.28571449999999743,
          "durationTicks": 240,
          "midi": 80,
          "name": "G#5",
          "ticks": 102720,
          "time": 122.285806,
          "velocity": 0.2677165354330709
        },
        {
          "duration": 0.28571449999999743,
          "durationTicks": 240,
          "midi": 85,
          "name": "C#6",
          "ticks": 102720,
          "time": 122.285806,
          "velocity": 0.2047244094488189
        },
        {
          "duration": 0.14285725000000582,
          "durationTicks": 120,
          "midi": 56,
          "name": "G#3",
          "ticks": 102960,
          "time": 122.57152049999999,
          "velocity": 0.33858267716535434
        },
        {
          "duration": 0.28571449999999743,
          "durationTicks": 240,
          "midi": 45,
          "name": "A2",
          "ticks": 103080,
          "time": 122.71437775,
          "velocity": 0.2992125984251969
        },
        {
          "duration": 0.28571449999999743,
          "durationTicks": 240,
          "midi": 52,
          "name": "E3",
          "ticks": 103080,
          "time": 122.71437775,
          "velocity": 0.36220472440944884
        },
        {
          "duration": 0.28571449999999743,
          "durationTicks": 240,
          "midi": 59,
          "name": "B3",
          "ticks": 103080,
          "time": 122.71437775,
          "velocity": 0.2440944881889764
        },
        {
          "duration": 0.28571449999999743,
          "durationTicks": 240,
          "midi": 61,
          "name": "C#4",
          "ticks": 103080,
          "time": 122.71437775,
          "velocity": 0.2677165354330709
        },
        {
          "duration": 0.28571449999999743,
          "durationTicks": 240,
          "midi": 64,
          "name": "E4",
          "ticks": 103080,
          "time": 122.71437775,
          "velocity": 0.5590551181102362
        },
        {
          "duration": 0.28571449999999743,
          "durationTicks": 240,
          "midi": 89,
          "name": "F6",
          "ticks": 103080,
          "time": 122.71437775,
          "velocity": 0.2755905511811024
        },
        {
          "duration": 0.11904770833334055,
          "durationTicks": 100,
          "midi": 64,
          "name": "E4",
          "ticks": 103320,
          "time": 123.00009225,
          "velocity": 0.7637795275590551
        },
        {
          "duration": 0.28571450000001164,
          "durationTicks": 240,
          "midi": 45,
          "name": "A2",
          "ticks": 103440,
          "time": 123.14294949999999,
          "velocity": 0.2755905511811024
        },
        {
          "duration": 0.28571450000001164,
          "durationTicks": 240,
          "midi": 66,
          "name": "F#4",
          "ticks": 103440,
          "time": 123.14294949999999,
          "velocity": 0.2992125984251969
        },
        {
          "duration": 0.28571449999999743,
          "durationTicks": 240,
          "midi": 51,
          "name": "D#3",
          "ticks": 103680,
          "time": 123.428664,
          "velocity": 0.31496062992125984
        },
        {
          "duration": 0.28571449999999743,
          "durationTicks": 240,
          "midi": 55,
          "name": "G3",
          "ticks": 103680,
          "time": 123.428664,
          "velocity": 0.31496062992125984
        },
        {
          "duration": 0.33333358333332797,
          "durationTicks": 280,
          "midi": 61,
          "name": "C#4",
          "ticks": 103680,
          "time": 123.428664,
          "velocity": 0.31496062992125984
        },
        {
          "duration": 0.23809541666665268,
          "durationTicks": 200,
          "midi": 69,
          "name": "A4",
          "ticks": 103680,
          "time": 123.428664,
          "velocity": 0.33070866141732286
        },
        {
          "duration": 0.23809541666665268,
          "durationTicks": 200,
          "midi": 81,
          "name": "A5",
          "ticks": 103680,
          "time": 123.428664,
          "velocity": 0.30708661417322836
        },
        {
          "duration": 0.1428572499999916,
          "durationTicks": 120,
          "midi": 55,
          "name": "G3",
          "ticks": 103920,
          "time": 123.7143785,
          "velocity": 0.5590551181102362
        },
        {
          "duration": 0.1666667916666711,
          "durationTicks": 140,
          "midi": 61,
          "name": "C#4",
          "ticks": 104040,
          "time": 123.85723574999999,
          "velocity": 0.29133858267716534
        },
        {
          "duration": 0.14285725000000582,
          "durationTicks": 120,
          "midi": 39,
          "name": "D#2",
          "ticks": 104160,
          "time": 124.00009299999999,
          "velocity": 0.5118110236220472
        },
        {
          "duration": 0.1428572499999916,
          "durationTicks": 120,
          "midi": 64,
          "name": "E4",
          "ticks": 104280,
          "time": 124.14295025,
          "velocity": 0.33070866141732286
        },
        {
          "duration": 0.26190495833334637,
          "durationTicks": 220,
          "midi": 55,
          "name": "G3",
          "ticks": 104400,
          "time": 124.28580749999999,
          "velocity": 0.4566929133858268
        },
        {
          "duration": 0.26190495833334637,
          "durationTicks": 220,
          "midi": 69,
          "name": "A4",
          "ticks": 104640,
          "time": 124.57152199999999,
          "velocity": 0.7480314960629921
        },
        {
          "duration": 0.26190495833334637,
          "durationTicks": 220,
          "midi": 78,
          "name": "F#5",
          "ticks": 104640,
          "time": 124.57152199999999,
          "velocity": 0.30708661417322836
        },
        {
          "duration": 0.1428572499999916,
          "durationTicks": 120,
          "midi": 45,
          "name": "A2",
          "ticks": 104880,
          "time": 124.8572365,
          "velocity": 0.30708661417322836
        },
        {
          "duration": 0.1428572499999916,
          "durationTicks": 120,
          "midi": 55,
          "name": "G3",
          "ticks": 104880,
          "time": 124.8572365,
          "velocity": 0.48031496062992124
        },
        {
          "duration": 0.1428572499999916,
          "durationTicks": 120,
          "midi": 76,
          "name": "E5",
          "ticks": 104880,
          "time": 124.8572365,
          "velocity": 0.2755905511811024
        },
        {
          "duration": 0.1428572499999916,
          "durationTicks": 120,
          "midi": 82,
          "name": "A#5",
          "ticks": 104880,
          "time": 124.8572365,
          "velocity": 0.2755905511811024
        },
        {
          "duration": 0.11904770833334055,
          "durationTicks": 100,
          "midi": 51,
          "name": "D#3",
          "ticks": 105000,
          "time": 125.00009374999999,
          "velocity": 0.3464566929133858
        },
        {
          "duration": 0.11904770833334055,
          "durationTicks": 100,
          "midi": 61,
          "name": "C#4",
          "ticks": 105000,
          "time": 125.00009374999999,
          "velocity": 0.3464566929133858
        },
        {
          "duration": 0.1428572499999916,
          "durationTicks": 120,
          "midi": 67,
          "name": "G4",
          "ticks": 105120,
          "time": 125.142951,
          "velocity": 0.5826771653543307
        },
        {
          "duration": 0.11904770833334055,
          "durationTicks": 100,
          "midi": 45,
          "name": "A2",
          "ticks": 105240,
          "time": 125.28580824999999,
          "velocity": 0.33858267716535434
        },
        {
          "duration": 0.1666667916666711,
          "durationTicks": 140,
          "midi": 64,
          "name": "E4",
          "ticks": 105240,
          "time": 125.28580824999999,
          "velocity": 0.33858267716535434
        },
        {
          "duration": 0.1428572499999916,
          "durationTicks": 120,
          "midi": 39,
          "name": "D#2",
          "ticks": 105360,
          "time": 125.4286655,
          "velocity": 0.41732283464566927
        },
        {
          "duration": 0.1428572499999916,
          "durationTicks": 120,
          "midi": 55,
          "name": "G3",
          "ticks": 105360,
          "time": 125.4286655,
          "velocity": 0.6614173228346457
        },
        {
          "duration": 0.11904770833334055,
          "durationTicks": 100,
          "midi": 33,
          "name": "A1",
          "ticks": 105480,
          "time": 125.57152274999999,
          "velocity": 0.41732283464566927
        },
        {
          "duration": 0.11904770833334055,
          "durationTicks": 100,
          "midi": 61,
          "name": "C#4",
          "ticks": 105480,
          "time": 125.57152274999999,
          "velocity": 0.25196850393700787
        },
        {
          "duration": 0.28571449999999743,
          "durationTicks": 240,
          "midi": 32,
          "name": "G#1",
          "ticks": 105600,
          "time": 125.71437999999999,
          "velocity": 0.48031496062992124
        },
        {
          "duration": 0.28571449999999743,
          "durationTicks": 240,
          "midi": 44,
          "name": "G#2",
          "ticks": 105600,
          "time": 125.71437999999999,
          "velocity": 0.48031496062992124
        },
        {
          "duration": 0.28571449999999743,
          "durationTicks": 240,
          "midi": 56,
          "name": "G#3",
          "ticks": 105600,
          "time": 125.71437999999999,
          "velocity": 0.48031496062992124
        },
        {
          "duration": 0.28571449999999743,
          "durationTicks": 240,
          "midi": 59,
          "name": "B3",
          "ticks": 105600,
          "time": 125.71437999999999,
          "velocity": 0.2283464566929134
        },
        {
          "duration": 0.28571449999999743,
          "durationTicks": 240,
          "midi": 63,
          "name": "D#4",
          "ticks": 105600,
          "time": 125.71437999999999,
          "velocity": 0.1889763779527559
        },
        {
          "duration": 0.28571449999999743,
          "durationTicks": 240,
          "midi": 66,
          "name": "F#4",
          "ticks": 105600,
          "time": 125.71437999999999,
          "velocity": 0.2125984251968504
        },
        {
          "duration": 0.28571449999999743,
          "durationTicks": 240,
          "midi": 75,
          "name": "D#5",
          "ticks": 105600,
          "time": 125.71437999999999,
          "velocity": 0.1889763779527559
        },
        {
          "duration": 0.28571449999999743,
          "durationTicks": 240,
          "midi": 83,
          "name": "B5",
          "ticks": 105600,
          "time": 125.71437999999999,
          "velocity": 0.2283464566929134
        },
        {
          "duration": 0.14285725000000582,
          "durationTicks": 120,
          "midi": 54,
          "name": "F#3",
          "ticks": 105840,
          "time": 126.00009449999999,
          "velocity": 0.33858267716535434
        },
        {
          "duration": 0.14285725000000582,
          "durationTicks": 120,
          "midi": 59,
          "name": "B3",
          "ticks": 105840,
          "time": 126.00009449999999,
          "velocity": 0.2204724409448819
        },
        {
          "duration": 0.14285725000000582,
          "durationTicks": 120,
          "midi": 63,
          "name": "D#4",
          "ticks": 105840,
          "time": 126.00009449999999,
          "velocity": 0.3464566929133858
        },
        {
          "duration": 0.14285725000000582,
          "durationTicks": 120,
          "midi": 66,
          "name": "F#4",
          "ticks": 105840,
          "time": 126.00009449999999,
          "velocity": 0.33858267716535434
        },
        {
          "duration": 0.3095240416666627,
          "durationTicks": 260,
          "midi": 32,
          "name": "G#1",
          "ticks": 105960,
          "time": 126.14295175,
          "velocity": 0.44881889763779526
        },
        {
          "duration": 0.14285725000000582,
          "durationTicks": 120,
          "midi": 54,
          "name": "F#3",
          "ticks": 106200,
          "time": 126.42866624999999,
          "velocity": 0.4015748031496063
        },
        {
          "duration": 0.14285725000000582,
          "durationTicks": 120,
          "midi": 59,
          "name": "B3",
          "ticks": 106200,
          "time": 126.42866624999999,
          "velocity": 0.23622047244094488
        },
        {
          "duration": 0.14285725000000582,
          "durationTicks": 120,
          "midi": 63,
          "name": "D#4",
          "ticks": 106200,
          "time": 126.42866624999999,
          "velocity": 0.2204724409448819
        },
        {
          "duration": 0.14285725000000582,
          "durationTicks": 120,
          "midi": 66,
          "name": "F#4",
          "ticks": 106200,
          "time": 126.42866624999999,
          "velocity": 0.4015748031496063
        },
        {
          "duration": 0.11904770833332634,
          "durationTicks": 100,
          "midi": 32,
          "name": "G#1",
          "ticks": 106320,
          "time": 126.5715235,
          "velocity": 0.48031496062992124
        },
        {
          "duration": 0.11904770833332634,
          "durationTicks": 100,
          "midi": 44,
          "name": "G#2",
          "ticks": 106320,
          "time": 126.5715235,
          "velocity": 0.4094488188976378
        },
        {
          "duration": 0.16666679166665688,
          "durationTicks": 140,
          "midi": 56,
          "name": "G#3",
          "ticks": 106320,
          "time": 126.5715235,
          "velocity": 0.3858267716535433
        },
        {
          "duration": 0.11904770833332634,
          "durationTicks": 100,
          "midi": 59,
          "name": "B3",
          "ticks": 106320,
          "time": 126.5715235,
          "velocity": 0.2440944881889764
        },
        {
          "duration": 0.14285725000000582,
          "durationTicks": 120,
          "midi": 38,
          "name": "D2",
          "ticks": 106440,
          "time": 126.71438074999999,
          "velocity": 0.33858267716535434
        },
        {
          "duration": 0.35714312500000744,
          "durationTicks": 300,
          "midi": 59,
          "name": "B3",
          "ticks": 106440,
          "time": 126.71438074999999,
          "velocity": 0.3937007874015748
        },
        {
          "duration": 0.3095240416666627,
          "durationTicks": 260,
          "midi": 37,
          "name": "C#2",
          "ticks": 106560,
          "time": 126.857238,
          "velocity": 0.48031496062992124
        },
        {
          "duration": 0.3095240416666627,
          "durationTicks": 260,
          "midi": 49,
          "name": "C#3",
          "ticks": 106560,
          "time": 126.857238,
          "velocity": 0.48031496062992124
        },
        {
          "duration": 0.26190495833333216,
          "durationTicks": 220,
          "midi": 53,
          "name": "F3",
          "ticks": 106560,
          "time": 126.857238,
          "velocity": 0.1968503937007874
        },
        {
          "duration": 0.3095240416666627,
          "durationTicks": 260,
          "midi": 64,
          "name": "E4",
          "ticks": 106560,
          "time": 126.857238,
          "velocity": 0.1968503937007874
        },
        {
          "duration": 0.26190495833333216,
          "durationTicks": 220,
          "midi": 68,
          "name": "G#4",
          "ticks": 106560,
          "time": 126.857238,
          "velocity": 0.2677165354330709
        },
        {
          "duration": 0.3095240416666627,
          "durationTicks": 260,
          "midi": 76,
          "name": "E5",
          "ticks": 106560,
          "time": 126.857238,
          "velocity": 0.1968503937007874
        },
        {
          "duration": 0.14285725000000582,
          "durationTicks": 120,
          "midi": 53,
          "name": "F3",
          "ticks": 106800,
          "time": 127.14295249999999,
          "velocity": 0.2677165354330709
        },
        {
          "duration": 0.14285725000000582,
          "durationTicks": 120,
          "midi": 59,
          "name": "B3",
          "ticks": 106800,
          "time": 127.14295249999999,
          "velocity": 0.4645669291338583
        },
        {
          "duration": 0.14285725000000582,
          "durationTicks": 120,
          "midi": 61,
          "name": "C#4",
          "ticks": 106800,
          "time": 127.14295249999999,
          "velocity": 0.5118110236220472
        },
        {
          "duration": 0.11904770833334055,
          "durationTicks": 100,
          "midi": 63,
          "name": "D#4",
          "ticks": 106800,
          "time": 127.14295249999999,
          "velocity": 0.31496062992125984
        },
        {
          "duration": 0.26190495833333216,
          "durationTicks": 220,
          "midi": 53,
          "name": "F3",
          "ticks": 106920,
          "time": 127.28580975,
          "velocity": 0.25984251968503935
        },
        {
          "duration": 0.26190495833333216,
          "durationTicks": 220,
          "midi": 59,
          "name": "B3",
          "ticks": 106920,
          "time": 127.28580975,
          "velocity": 0.2755905511811024
        },
        {
          "duration": 0.26190495833333216,
          "durationTicks": 220,
          "midi": 61,
          "name": "C#4",
          "ticks": 106920,
          "time": 127.28580975,
          "velocity": 0.30708661417322836
        },
        {
          "duration": 0.26190495833333216,
          "durationTicks": 220,
          "midi": 64,
          "name": "E4",
          "ticks": 106920,
          "time": 127.28580975,
          "velocity": 0.3543307086614173
        },
        {
          "duration": 0.26190495833333216,
          "durationTicks": 220,
          "midi": 68,
          "name": "G#4",
          "ticks": 106920,
          "time": 127.28580975,
          "velocity": 0.2677165354330709
        },
        {
          "duration": 0.16666679166665688,
          "durationTicks": 140,
          "midi": 59,
          "name": "B3",
          "ticks": 107160,
          "time": 127.57152425,
          "velocity": 0.29133858267716534
        },
        {
          "duration": 0.16666679166665688,
          "durationTicks": 140,
          "midi": 64,
          "name": "E4",
          "ticks": 107160,
          "time": 127.57152425,
          "velocity": 0.3937007874015748
        },
        {
          "duration": 0.14285725000000582,
          "durationTicks": 120,
          "midi": 32,
          "name": "G#1",
          "ticks": 107280,
          "time": 127.71438149999999,
          "velocity": 0.36220472440944884
        },
        {
          "duration": 0.14285725000000582,
          "durationTicks": 120,
          "midi": 33,
          "name": "A1",
          "ticks": 107280,
          "time": 127.71438149999999,
          "velocity": 0.3464566929133858
        },
        {
          "duration": 0.14285725000000582,
          "durationTicks": 120,
          "midi": 45,
          "name": "A2",
          "ticks": 107280,
          "time": 127.71438149999999,
          "velocity": 0.30708661417322836
        },
        {
          "duration": 0.14285725000000582,
          "durationTicks": 120,
          "midi": 59,
          "name": "B3",
          "ticks": 107280,
          "time": 127.71438149999999,
          "velocity": 0.29133858267716534
        },
        {
          "duration": 0.14285725000000582,
          "durationTicks": 120,
          "midi": 61,
          "name": "C#4",
          "ticks": 107280,
          "time": 127.71438149999999,
          "velocity": 0.33858267716535434
        },
        {
          "duration": 0.14285725000000582,
          "durationTicks": 120,
          "midi": 64,
          "name": "E4",
          "ticks": 107280,
          "time": 127.71438149999999,
          "velocity": 0.2204724409448819
        },
        {
          "duration": 0.14285725000000582,
          "durationTicks": 120,
          "midi": 68,
          "name": "G#4",
          "ticks": 107280,
          "time": 127.71438149999999,
          "velocity": 0.2283464566929134
        },
        {
          "duration": 0.14285725000000582,
          "durationTicks": 120,
          "midi": 71,
          "name": "B4",
          "ticks": 107280,
          "time": 127.71438149999999,
          "velocity": 0.25984251968503935
        },
        {
          "duration": 0.11904770833334055,
          "durationTicks": 100,
          "midi": 43,
          "name": "G2",
          "ticks": 107400,
          "time": 127.85723875,
          "velocity": 0.29133858267716534
        },
        {
          "duration": 0.28571450000001164,
          "durationTicks": 240,
          "midi": 42,
          "name": "F#2",
          "ticks": 107520,
          "time": 128.00009599999998,
          "velocity": 0.6299212598425197
        },
        {
          "duration": 0.28571450000001164,
          "durationTicks": 240,
          "midi": 59,
          "name": "B3",
          "ticks": 107520,
          "time": 128.00009599999998,
          "velocity": 0.25984251968503935
        },
        {
          "duration": 0.28571450000001164,
          "durationTicks": 240,
          "midi": 63,
          "name": "D#4",
          "ticks": 107520,
          "time": 128.00009599999998,
          "velocity": 0.3464566929133858
        },
        {
          "duration": 0.28571450000001164,
          "durationTicks": 240,
          "midi": 64,
          "name": "E4",
          "ticks": 107520,
          "time": 128.00009599999998,
          "velocity": 0.2677165354330709
        },
        {
          "duration": 0.28571450000001164,
          "durationTicks": 240,
          "midi": 68,
          "name": "G#4",
          "ticks": 107520,
          "time": 128.00009599999998,
          "velocity": 0.2125984251968504
        },
        {
          "duration": 0.1428572499999916,
          "durationTicks": 120,
          "midi": 52,
          "name": "E3",
          "ticks": 107760,
          "time": 128.2858105,
          "velocity": 0.29133858267716534
        },
        {
          "duration": 0.11904770833334055,
          "durationTicks": 100,
          "midi": 56,
          "name": "G#3",
          "ticks": 107880,
          "time": 128.42866775,
          "velocity": 0.3858267716535433
        },
        {
          "duration": 0.19047633333335057,
          "durationTicks": 160,
          "midi": 59,
          "name": "B3",
          "ticks": 107880,
          "time": 128.42866775,
          "velocity": 0.2677165354330709
        },
        {
          "duration": 0.1666667916666711,
          "durationTicks": 140,
          "midi": 64,
          "name": "E4",
          "ticks": 107880,
          "time": 128.42866775,
          "velocity": 0.2440944881889764
        },
        {
          "duration": 0.11904770833334055,
          "durationTicks": 100,
          "midi": 68,
          "name": "G#4",
          "ticks": 107880,
          "time": 128.42866775,
          "velocity": 0.2204724409448819
        },
        {
          "duration": 0.11904770833334055,
          "durationTicks": 100,
          "midi": 78,
          "name": "F#5",
          "ticks": 107880,
          "time": 128.42866775,
          "velocity": 0.33070866141732286
        },
        {
          "duration": 0.09523816666666107,
          "durationTicks": 80,
          "midi": 41,
          "name": "F2",
          "ticks": 108000,
          "time": 128.57152499999998,
          "velocity": 0.3779527559055118
        },
        {
          "duration": 0.1428572499999916,
          "durationTicks": 120,
          "midi": 59,
          "name": "B3",
          "ticks": 108120,
          "time": 128.71438225,
          "velocity": 0.3464566929133858
        },
        {
          "duration": 0.26190495833333216,
          "durationTicks": 220,
          "midi": 37,
          "name": "C#2",
          "ticks": 108240,
          "time": 128.8572395,
          "velocity": 0.36220472440944884
        },
        {
          "duration": 0.26190495833333216,
          "durationTicks": 220,
          "midi": 42,
          "name": "F#2",
          "ticks": 108240,
          "time": 128.8572395,
          "velocity": 0.4251968503937008
        },
        {
          "duration": 0.26190495833333216,
          "durationTicks": 220,
          "midi": 60,
          "name": "C4",
          "ticks": 108240,
          "time": 128.8572395,
          "velocity": 0.33858267716535434
        },
        {
          "duration": 0.3095240416666627,
          "durationTicks": 260,
          "midi": 61,
          "name": "C#4",
          "ticks": 108240,
          "time": 128.8572395,
          "velocity": 0.4330708661417323
        },
        {
          "duration": 0.26190495833333216,
          "durationTicks": 220,
          "midi": 64,
          "name": "E4",
          "ticks": 108240,
          "time": 128.8572395,
          "velocity": 0.25984251968503935
        },
        {
          "duration": 0.26190495833333216,
          "durationTicks": 220,
          "midi": 68,
          "name": "G#4",
          "ticks": 108240,
          "time": 128.8572395,
          "velocity": 0.25984251968503935
        },
        {
          "duration": 0.26190495833333216,
          "durationTicks": 220,
          "midi": 72,
          "name": "C5",
          "ticks": 108240,
          "time": 128.8572395,
          "velocity": 0.33858267716535434
        },
        {
          "duration": 0.26190495833333216,
          "durationTicks": 220,
          "midi": 73,
          "name": "C#5",
          "ticks": 108240,
          "time": 128.8572395,
          "velocity": 0.2047244094488189
        },
        {
          "duration": 0.26190495833333216,
          "durationTicks": 220,
          "midi": 42,
          "name": "F#2",
          "ticks": 108480,
          "time": 129.142954,
          "velocity": 0.5511811023622047
        },
        {
          "duration": 0.26190495833333216,
          "durationTicks": 220,
          "midi": 56,
          "name": "G#3",
          "ticks": 108480,
          "time": 129.142954,
          "velocity": 0.2755905511811024
        },
        {
          "duration": 0.26190495833333216,
          "durationTicks": 220,
          "midi": 60,
          "name": "C4",
          "ticks": 108480,
          "time": 129.142954,
          "velocity": 0.4015748031496063
        },
        {
          "duration": 0.11904770833334055,
          "durationTicks": 100,
          "midi": 30,
          "name": "F#1",
          "ticks": 108720,
          "time": 129.4286685,
          "velocity": 0.5118110236220472
        },
        {
          "duration": 0.11904770833334055,
          "durationTicks": 100,
          "midi": 52,
          "name": "E3",
          "ticks": 108720,
          "time": 129.4286685,
          "velocity": 0.2992125984251969
        },
        {
          "duration": 0.14285725000002003,
          "durationTicks": 120,
          "midi": 56,
          "name": "G#3",
          "ticks": 108840,
          "time": 129.57152574999998,
          "velocity": 0.3543307086614173
        },
        {
          "duration": 0.14285725000002003,
          "durationTicks": 120,
          "midi": 64,
          "name": "E4",
          "ticks": 108840,
          "time": 129.57152574999998,
          "velocity": 0.29133858267716534
        },
        {
          "duration": 0.14285725000002003,
          "durationTicks": 120,
          "midi": 68,
          "name": "G#4",
          "ticks": 108840,
          "time": 129.57152574999998,
          "velocity": 0.2283464566929134
        },
        {
          "duration": 0.26190495833333216,
          "durationTicks": 220,
          "midi": 64,
          "name": "E4",
          "ticks": 108960,
          "time": 129.714383,
          "velocity": 0.7086614173228346
        },
        {
          "duration": 0.26190495833333216,
          "durationTicks": 220,
          "midi": 76,
          "name": "E5",
          "ticks": 108960,
          "time": 129.714383,
          "velocity": 0.7086614173228346
        },
        {
          "duration": 0.14285725000002003,
          "durationTicks": 120,
          "midi": 40,
          "name": "E2",
          "ticks": 109200,
          "time": 130.00009749999998,
          "velocity": 0.29133858267716534
        },
        {
          "duration": 0.14285725000002003,
          "durationTicks": 120,
          "midi": 59,
          "name": "B3",
          "ticks": 109200,
          "time": 130.00009749999998,
          "velocity": 0.5826771653543307
        },
        {
          "duration": 0.11904770833334055,
          "durationTicks": 100,
          "midi": 36,
          "name": "C2",
          "ticks": 109320,
          "time": 130.14295475,
          "velocity": 0.3700787401574803
        },
        {
          "duration": 0.11904770833334055,
          "durationTicks": 100,
          "midi": 64,
          "name": "E4",
          "ticks": 109320,
          "time": 130.14295475,
          "velocity": 0.2283464566929134
        },
        {
          "duration": 0.16666679166664267,
          "durationTicks": 140,
          "midi": 68,
          "name": "G#4",
          "ticks": 109320,
          "time": 130.14295475,
          "velocity": 0.23622047244094488
        },
        {
          "duration": 0.28571450000001164,
          "durationTicks": 240,
          "midi": 35,
          "name": "B1",
          "ticks": 109440,
          "time": 130.285812,
          "velocity": 0.3779527559055118
        },
        {
          "duration": 0.28571450000001164,
          "durationTicks": 240,
          "midi": 47,
          "name": "B2",
          "ticks": 109440,
          "time": 130.285812,
          "velocity": 0.6614173228346457
        },
        {
          "duration": 0.28571450000001164,
          "durationTicks": 240,
          "midi": 57,
          "name": "A3",
          "ticks": 109440,
          "time": 130.285812,
          "velocity": 0.30708661417322836
        },
        {
          "duration": 0.28571450000001164,
          "durationTicks": 240,
          "midi": 61,
          "name": "C#4",
          "ticks": 109440,
          "time": 130.285812,
          "velocity": 0.4409448818897638
        },
        {
          "duration": 0.4285717499999748,
          "durationTicks": 360,
          "midi": 52,
          "name": "E3",
          "ticks": 109680,
          "time": 130.5715265,
          "velocity": 0.2204724409448819
        },
        {
          "duration": 0.14285725000002003,
          "durationTicks": 120,
          "midi": 52,
          "name": "E3",
          "ticks": 110040,
          "time": 131.00009824999998,
          "velocity": 0.2125984251968504
        },
        {
          "duration": 0.14285725000002003,
          "durationTicks": 120,
          "midi": 61,
          "name": "C#4",
          "ticks": 110040,
          "time": 131.00009824999998,
          "velocity": 0.4409448818897638
        },
        {
          "duration": 0.26190495833333216,
          "durationTicks": 220,
          "midi": 42,
          "name": "F#2",
          "ticks": 110160,
          "time": 131.1429555,
          "velocity": 0.2992125984251969
        },
        {
          "duration": 0.26190495833333216,
          "durationTicks": 220,
          "midi": 47,
          "name": "B2",
          "ticks": 110160,
          "time": 131.1429555,
          "velocity": 0.4409448818897638
        },
        {
          "duration": 0.26190495833333216,
          "durationTicks": 220,
          "midi": 64,
          "name": "E4",
          "ticks": 110160,
          "time": 131.1429555,
          "velocity": 0.23622047244094488
        },
        {
          "duration": 0.26190495833333216,
          "durationTicks": 220,
          "midi": 69,
          "name": "A4",
          "ticks": 110160,
          "time": 131.1429555,
          "velocity": 0.33858267716535434
        },
        {
          "duration": 0.3095240416666627,
          "durationTicks": 260,
          "midi": 47,
          "name": "B2",
          "ticks": 110400,
          "time": 131.42866999999998,
          "velocity": 0.33858267716535434
        },
        {
          "duration": 0.2619049583333606,
          "durationTicks": 220,
          "midi": 66,
          "name": "F#4",
          "ticks": 110400,
          "time": 131.42866999999998,
          "velocity": 0.48031496062992124
        },
        {
          "duration": 0.11904770833334055,
          "durationTicks": 100,
          "midi": 52,
          "name": "E3",
          "ticks": 110640,
          "time": 131.7143845,
          "velocity": 0.2992125984251969
        },
        {
          "duration": 0.1666667916666711,
          "durationTicks": 140,
          "midi": 47,
          "name": "B2",
          "ticks": 110760,
          "time": 131.85724175,
          "velocity": 0.4645669291338583
        },
        {
          "duration": 0.14285725000002003,
          "durationTicks": 120,
          "midi": 57,
          "name": "A3",
          "ticks": 110760,
          "time": 131.85724175,
          "velocity": 0.4015748031496063
        },
        {
          "duration": 0.1428572499999916,
          "durationTicks": 120,
          "midi": 64,
          "name": "E4",
          "ticks": 110880,
          "time": 132.000099,
          "velocity": 0.41732283464566927
        },
        {
          "duration": 0.11904770833331213,
          "durationTicks": 100,
          "midi": 68,
          "name": "G#4",
          "ticks": 110880,
          "time": 132.000099,
          "velocity": 0.3228346456692913
        },
        {
          "duration": 0.1428572499999916,
          "durationTicks": 120,
          "midi": 76,
          "name": "E5",
          "ticks": 110880,
          "time": 132.000099,
          "velocity": 0.41732283464566927
        },
        {
          "duration": 0.11904770833334055,
          "durationTicks": 100,
          "midi": 64,
          "name": "E4",
          "ticks": 111000,
          "time": 132.14295625,
          "velocity": 0.3937007874015748
        },
        {
          "duration": 0.23809541666665268,
          "durationTicks": 200,
          "midi": 42,
          "name": "F#2",
          "ticks": 111120,
          "time": 132.2858135,
          "velocity": 0.33070866141732286
        },
        {
          "duration": 0.2857144999999832,
          "durationTicks": 240,
          "midi": 35,
          "name": "B1",
          "ticks": 111360,
          "time": 132.571528,
          "velocity": 0.25984251968503935
        },
        {
          "duration": 0.2857144999999832,
          "durationTicks": 240,
          "midi": 61,
          "name": "C#4",
          "ticks": 111360,
          "time": 132.571528,
          "velocity": 0.3779527559055118
        },
        {
          "duration": 0.3095240416666627,
          "durationTicks": 260,
          "midi": 66,
          "name": "F#4",
          "ticks": 111360,
          "time": 132.571528,
          "velocity": 0.44881889763779526
        },
        {
          "duration": 0.14285725000002003,
          "durationTicks": 120,
          "midi": 69,
          "name": "A4",
          "ticks": 111600,
          "time": 132.85724249999998,
          "velocity": 0.33070866141732286
        },
        {
          "duration": 0.11904770833334055,
          "durationTicks": 100,
          "midi": 61,
          "name": "C#4",
          "ticks": 111720,
          "time": 133.00009975,
          "velocity": 0.33070866141732286
        },
        {
          "duration": 0.2857144999999832,
          "durationTicks": 240,
          "midi": 69,
          "name": "A4",
          "ticks": 111840,
          "time": 133.142957,
          "velocity": 0.3228346456692913
        },
        {
          "duration": 0.1666667916666711,
          "durationTicks": 140,
          "midi": 35,
          "name": "B1",
          "ticks": 112080,
          "time": 133.42867149999998,
          "velocity": 0.3464566929133858
        },
        {
          "duration": 0.1428572499999916,
          "durationTicks": 120,
          "midi": 35,
          "name": "B1",
          "ticks": 112200,
          "time": 133.57152875,
          "velocity": 0.3464566929133858
        },
        {
          "duration": 0.26190495833333216,
          "durationTicks": 220,
          "midi": 34,
          "name": "A#1",
          "ticks": 112320,
          "time": 133.714386,
          "velocity": 0.47244094488188976
        },
        {
          "duration": 0.3095240416666627,
          "durationTicks": 260,
          "midi": 46,
          "name": "A#2",
          "ticks": 112320,
          "time": 133.714386,
          "velocity": 0.4330708661417323
        },
        {
          "duration": 0.35714312499999323,
          "durationTicks": 300,
          "midi": 50,
          "name": "D3",
          "ticks": 112320,
          "time": 133.714386,
          "velocity": 0.25196850393700787
        },
        {
          "duration": 0.26190495833333216,
          "durationTicks": 220,
          "midi": 56,
          "name": "G#3",
          "ticks": 112320,
          "time": 133.714386,
          "velocity": 0.4566929133858268
        },
        {
          "duration": 0.26190495833333216,
          "durationTicks": 220,
          "midi": 61,
          "name": "C#4",
          "ticks": 112320,
          "time": 133.714386,
          "velocity": 0.29133858267716534
        },
        {
          "duration": 0.26190495833333216,
          "durationTicks": 220,
          "midi": 64,
          "name": "E4",
          "ticks": 112320,
          "time": 133.714386,
          "velocity": 0.3700787401574803
        },
        {
          "duration": 0.21428587500000162,
          "durationTicks": 180,
          "midi": 68,
          "name": "G#4",
          "ticks": 112320,
          "time": 133.714386,
          "velocity": 0.5196850393700787
        },
        {
          "duration": 0.21428587500000162,
          "durationTicks": 180,
          "midi": 80,
          "name": "G#5",
          "ticks": 112320,
          "time": 133.714386,
          "velocity": 0.31496062992125984
        },
        {
          "duration": 0.26190495833333216,
          "durationTicks": 220,
          "midi": 83,
          "name": "B5",
          "ticks": 112320,
          "time": 133.714386,
          "velocity": 0.3700787401574803
        },
        {
          "duration": 0.16666679166664267,
          "durationTicks": 140,
          "midi": 56,
          "name": "G#3",
          "ticks": 112560,
          "time": 134.0001005,
          "velocity": 0.5275590551181102
        },
        {
          "duration": 0.28571450000001164,
          "durationTicks": 240,
          "midi": 40,
          "name": "E2",
          "ticks": 112680,
          "time": 134.14295775,
          "velocity": 0.29133858267716534
        },
        {
          "duration": 0.09523816666666107,
          "durationTicks": 80,
          "midi": 34,
          "name": "A#1",
          "ticks": 112920,
          "time": 134.42867225,
          "velocity": 0.5590551181102362
        },
        {
          "duration": 0.2857144999999832,
          "durationTicks": 240,
          "midi": 28,
          "name": "E1",
          "ticks": 113040,
          "time": 134.5715295,
          "velocity": 0.33858267716535434
        },
        {
          "duration": 0.2857144999999832,
          "durationTicks": 240,
          "midi": 33,
          "name": "A1",
          "ticks": 113040,
          "time": 134.5715295,
          "velocity": 0.3700787401574803
        },
        {
          "duration": 0.2857144999999832,
          "durationTicks": 240,
          "midi": 45,
          "name": "A2",
          "ticks": 113040,
          "time": 134.5715295,
          "velocity": 0.3700787401574803
        },
        {
          "duration": 0.28571450000001164,
          "durationTicks": 240,
          "midi": 33,
          "name": "A1",
          "ticks": 113280,
          "time": 134.85724399999998,
          "velocity": 0.3779527559055118
        },
        {
          "duration": 0.28571450000001164,
          "durationTicks": 240,
          "midi": 55,
          "name": "G3",
          "ticks": 113280,
          "time": 134.85724399999998,
          "velocity": 0.25196850393700787
        },
        {
          "duration": 0.28571450000001164,
          "durationTicks": 240,
          "midi": 59,
          "name": "B3",
          "ticks": 113280,
          "time": 134.85724399999998,
          "velocity": 0.5984251968503937
        },
        {
          "duration": 0.28571450000001164,
          "durationTicks": 240,
          "midi": 63,
          "name": "D#4",
          "ticks": 113280,
          "time": 134.85724399999998,
          "velocity": 0.28346456692913385
        },
        {
          "duration": 0.28571450000001164,
          "durationTicks": 240,
          "midi": 66,
          "name": "F#4",
          "ticks": 113280,
          "time": 134.85724399999998,
          "velocity": 0.31496062992125984
        },
        {
          "duration": 0.28571450000001164,
          "durationTicks": 240,
          "midi": 71,
          "name": "B4",
          "ticks": 113280,
          "time": 134.85724399999998,
          "velocity": 0.5984251968503937
        },
        {
          "duration": 0.28571450000001164,
          "durationTicks": 240,
          "midi": 83,
          "name": "B5",
          "ticks": 113280,
          "time": 134.85724399999998,
          "velocity": 0.28346456692913385
        },
        {
          "duration": 0.1428572499999916,
          "durationTicks": 120,
          "midi": 55,
          "name": "G3",
          "ticks": 113520,
          "time": 135.1429585,
          "velocity": 0.44881889763779526
        },
        {
          "duration": 0.1428572499999916,
          "durationTicks": 120,
          "midi": 63,
          "name": "D#4",
          "ticks": 113520,
          "time": 135.1429585,
          "velocity": 0.30708661417322836
        },
        {
          "duration": 0.11904770833334055,
          "durationTicks": 100,
          "midi": 55,
          "name": "G3",
          "ticks": 113640,
          "time": 135.28581574999998,
          "velocity": 0.5433070866141733
        },
        {
          "duration": 0.1666667916666711,
          "durationTicks": 140,
          "midi": 59,
          "name": "B3",
          "ticks": 113640,
          "time": 135.28581574999998,
          "velocity": 0.25984251968503935
        },
        {
          "duration": 0.11904770833334055,
          "durationTicks": 100,
          "midi": 63,
          "name": "D#4",
          "ticks": 113640,
          "time": 135.28581574999998,
          "velocity": 0.29133858267716534
        },
        {
          "duration": 0.16666679166664267,
          "durationTicks": 140,
          "midi": 64,
          "name": "E4",
          "ticks": 113760,
          "time": 135.428673,
          "velocity": 0.25984251968503935
        },
        {
          "duration": 0.1428572499999916,
          "durationTicks": 120,
          "midi": 59,
          "name": "B3",
          "ticks": 113880,
          "time": 135.57153025,
          "velocity": 0.2440944881889764
        },
        {
          "duration": 0.1428572499999916,
          "durationTicks": 120,
          "midi": 63,
          "name": "D#4",
          "ticks": 113880,
          "time": 135.57153025,
          "velocity": 0.3464566929133858
        },
        {
          "duration": 0.28571450000001164,
          "durationTicks": 240,
          "midi": 39,
          "name": "D#2",
          "ticks": 114000,
          "time": 135.7143875,
          "velocity": 0.3779527559055118
        },
        {
          "duration": 0.3095240416666627,
          "durationTicks": 260,
          "midi": 45,
          "name": "A2",
          "ticks": 114000,
          "time": 135.7143875,
          "velocity": 0.3858267716535433
        },
        {
          "duration": 0.3095240416666627,
          "durationTicks": 260,
          "midi": 55,
          "name": "G3",
          "ticks": 114000,
          "time": 135.7143875,
          "velocity": 0.2755905511811024
        },
        {
          "duration": 0.28571450000001164,
          "durationTicks": 240,
          "midi": 59,
          "name": "B3",
          "ticks": 114000,
          "time": 135.7143875,
          "velocity": 0.1968503937007874
        },
        {
          "duration": 0.28571450000001164,
          "durationTicks": 240,
          "midi": 63,
          "name": "D#4",
          "ticks": 114000,
          "time": 135.7143875,
          "velocity": 0.33070866141732286
        },
        {
          "duration": 0.28571450000001164,
          "durationTicks": 240,
          "midi": 66,
          "name": "F#4",
          "ticks": 114000,
          "time": 135.7143875,
          "velocity": 0.2440944881889764
        },
        {
          "duration": 0.2857144999999832,
          "durationTicks": 240,
          "midi": 45,
          "name": "A2",
          "ticks": 114240,
          "time": 136.000102,
          "velocity": 0.3779527559055118
        },
        {
          "duration": 0.2857144999999832,
          "durationTicks": 240,
          "midi": 59,
          "name": "B3",
          "ticks": 114240,
          "time": 136.000102,
          "velocity": 0.25984251968503935
        },
        {
          "duration": 0.11904770833334055,
          "durationTicks": 100,
          "midi": 55,
          "name": "G3",
          "ticks": 114480,
          "time": 136.28581649999998,
          "velocity": 0.4094488188976378
        },
        {
          "duration": 0.11904770833334055,
          "durationTicks": 100,
          "midi": 63,
          "name": "D#4",
          "ticks": 114480,
          "time": 136.28581649999998,
          "velocity": 0.25196850393700787
        },
        {
          "duration": 0.1428572499999916,
          "durationTicks": 120,
          "midi": 59,
          "name": "B3",
          "ticks": 114600,
          "time": 136.42867375,
          "velocity": 0.25984251968503935
        },
        {
          "duration": 0.1428572499999916,
          "durationTicks": 120,
          "midi": 67,
          "name": "G4",
          "ticks": 114600,
          "time": 136.42867375,
          "velocity": 0.4251968503937008
        },
        {
          "duration": 0.1428572499999916,
          "durationTicks": 120,
          "midi": 45,
          "name": "A2",
          "ticks": 114720,
          "time": 136.571531,
          "velocity": 0.4881889763779528
        },
        {
          "duration": 0.11904770833334055,
          "durationTicks": 100,
          "midi": 63,
          "name": "D#4",
          "ticks": 114840,
          "time": 136.71438824999998,
          "velocity": 0.2992125984251969
        },
        {
          "duration": 0.2857144999999832,
          "durationTicks": 240,
          "midi": 59,
          "name": "B3",
          "ticks": 114960,
          "time": 136.8572455,
          "velocity": 0.2283464566929134
        },
        {
          "duration": 0.28571450000001164,
          "durationTicks": 240,
          "midi": 45,
          "name": "A2",
          "ticks": 115200,
          "time": 137.14296,
          "velocity": 0.49606299212598426
        },
        {
          "duration": 0.28571450000001164,
          "durationTicks": 240,
          "midi": 60,
          "name": "C4",
          "ticks": 115200,
          "time": 137.14296,
          "velocity": 0.1968503937007874
        },
        {
          "duration": 0.28571450000001164,
          "durationTicks": 240,
          "midi": 64,
          "name": "E4",
          "ticks": 115200,
          "time": 137.14296,
          "velocity": 0.2440944881889764
        },
        {
          "duration": 0.1428572499999916,
          "durationTicks": 120,
          "midi": 33,
          "name": "A1",
          "ticks": 115440,
          "time": 137.4286745,
          "velocity": 0.5039370078740157
        },
        {
          "duration": 0.1428572499999916,
          "durationTicks": 120,
          "midi": 54,
          "name": "F#3",
          "ticks": 115440,
          "time": 137.4286745,
          "velocity": 0.28346456692913385
        },
        {
          "duration": 0.1428572499999916,
          "durationTicks": 120,
          "midi": 64,
          "name": "E4",
          "ticks": 115440,
          "time": 137.4286745,
          "velocity": 0.2992125984251969
        },
        {
          "duration": 0.11904770833334055,
          "durationTicks": 100,
          "midi": 33,
          "name": "A1",
          "ticks": 115560,
          "time": 137.57153175,
          "velocity": 0.36220472440944884
        },
        {
          "duration": 0.14285725000002003,
          "durationTicks": 120,
          "midi": 64,
          "name": "E4",
          "ticks": 115680,
          "time": 137.71438899999998,
          "velocity": 0.5905511811023622
        },
        {
          "duration": 0.14285725000002003,
          "durationTicks": 120,
          "midi": 71,
          "name": "B4",
          "ticks": 115680,
          "time": 137.71438899999998,
          "velocity": 0.3700787401574803
        },
        {
          "duration": 0.14285725000002003,
          "durationTicks": 120,
          "midi": 72,
          "name": "C5",
          "ticks": 115680,
          "time": 137.71438899999998,
          "velocity": 0.36220472440944884
        },
        {
          "duration": 0.16666679166664267,
          "durationTicks": 140,
          "midi": 45,
          "name": "A2",
          "ticks": 115800,
          "time": 137.85724625,
          "velocity": 0.33070866141732286
        },
        {
          "duration": 0.16666679166664267,
          "durationTicks": 140,
          "midi": 54,
          "name": "F#3",
          "ticks": 115800,
          "time": 137.85724625,
          "velocity": 0.2440944881889764
        },
        {
          "duration": 0.1428572499999916,
          "durationTicks": 120,
          "midi": 57,
          "name": "A3",
          "ticks": 115920,
          "time": 138.0001035,
          "velocity": 0.33070866141732286
        },
        {
          "duration": 0.1666667916666711,
          "durationTicks": 140,
          "midi": 64,
          "name": "E4",
          "ticks": 116040,
          "time": 138.14296075,
          "velocity": 0.5669291338582677
        },
        {
          "duration": 0.1666667916666711,
          "durationTicks": 140,
          "midi": 66,
          "name": "F#4",
          "ticks": 116040,
          "time": 138.14296075,
          "velocity": 0.28346456692913385
        },
        {
          "duration": 0.1666667916666711,
          "durationTicks": 140,
          "midi": 69,
          "name": "A4",
          "ticks": 116040,
          "time": 138.14296075,
          "velocity": 0.2677165354330709
        },
        {
          "duration": 0.1666667916666711,
          "durationTicks": 140,
          "midi": 72,
          "name": "C5",
          "ticks": 116040,
          "time": 138.14296075,
          "velocity": 0.2755905511811024
        },
        {
          "duration": 0.14285725000002003,
          "durationTicks": 120,
          "midi": 40,
          "name": "E2",
          "ticks": 116160,
          "time": 138.28581799999998,
          "velocity": 0.4330708661417323
        },
        {
          "duration": 0.14285725000002003,
          "durationTicks": 120,
          "midi": 45,
          "name": "A2",
          "ticks": 116160,
          "time": 138.28581799999998,
          "velocity": 0.33858267716535434
        },
        {
          "duration": 0.14285725000002003,
          "durationTicks": 120,
          "midi": 64,
          "name": "E4",
          "ticks": 116160,
          "time": 138.28581799999998,
          "velocity": 0.36220472440944884
        },
        {
          "duration": 0.2857144999999832,
          "durationTicks": 240,
          "midi": 54,
          "name": "F#3",
          "ticks": 116280,
          "time": 138.42867525,
          "velocity": 0.2677165354330709
        },
        {
          "duration": 0.14285725000002003,
          "durationTicks": 120,
          "midi": 60,
          "name": "C4",
          "ticks": 116520,
          "time": 138.71438974999998,
          "velocity": 0.48031496062992124
        },
        {
          "duration": 0.11904770833334055,
          "durationTicks": 100,
          "midi": 45,
          "name": "A2",
          "ticks": 116640,
          "time": 138.857247,
          "velocity": 0.31496062992125984
        },
        {
          "duration": 0.11904770833334055,
          "durationTicks": 100,
          "midi": 46,
          "name": "A#2",
          "ticks": 116640,
          "time": 138.857247,
          "velocity": 0.36220472440944884
        },
        {
          "duration": 0.1428572499999916,
          "durationTicks": 120,
          "midi": 47,
          "name": "B2",
          "ticks": 116760,
          "time": 139.00010425,
          "velocity": 0.3858267716535433
        },
        {
          "duration": 0.1428572499999916,
          "durationTicks": 120,
          "midi": 57,
          "name": "A3",
          "ticks": 116760,
          "time": 139.00010425,
          "velocity": 0.2992125984251969
        },
        {
          "duration": 0.1428572499999916,
          "durationTicks": 120,
          "midi": 64,
          "name": "E4",
          "ticks": 116760,
          "time": 139.00010425,
          "velocity": 0.31496062992125984
        },
        {
          "duration": 0.1666667916666711,
          "durationTicks": 140,
          "midi": 45,
          "name": "A2",
          "ticks": 116880,
          "time": 139.14296149999998,
          "velocity": 0.2992125984251969
        },
        {
          "duration": 0.1666667916666711,
          "durationTicks": 140,
          "midi": 54,
          "name": "F#3",
          "ticks": 116880,
          "time": 139.14296149999998,
          "velocity": 0.33858267716535434
        },
        {
          "duration": 0.1666667916666711,
          "durationTicks": 140,
          "midi": 59,
          "name": "B3",
          "ticks": 116880,
          "time": 139.14296149999998,
          "velocity": 0.5748031496062992
        },
        {
          "duration": 0.1666667916666711,
          "durationTicks": 140,
          "midi": 71,
          "name": "B4",
          "ticks": 116880,
          "time": 139.14296149999998,
          "velocity": 0.2440944881889764
        },
        {
          "duration": 0.1428572499999916,
          "durationTicks": 120,
          "midi": 47,
          "name": "B2",
          "ticks": 117000,
          "time": 139.28581875,
          "velocity": 0.5669291338582677
        },
        {
          "duration": 0.2857144999999832,
          "durationTicks": 240,
          "midi": 44,
          "name": "G#2",
          "ticks": 117120,
          "time": 139.428676,
          "velocity": 0.5433070866141733
        },
        {
          "duration": 0.26190495833333216,
          "durationTicks": 220,
          "midi": 63,
          "name": "D#4",
          "ticks": 117120,
          "time": 139.428676,
          "velocity": 0.4015748031496063
        },
        {
          "duration": 0.14285725000002003,
          "durationTicks": 120,
          "midi": 54,
          "name": "F#3",
          "ticks": 117360,
          "time": 139.71439049999998,
          "velocity": 0.5511811023622047
        },
        {
          "duration": 0.14285725000002003,
          "durationTicks": 120,
          "midi": 59,
          "name": "B3",
          "ticks": 117360,
          "time": 139.71439049999998,
          "velocity": 0.2992125984251969
        },
        {
          "duration": 0.14285725000002003,
          "durationTicks": 120,
          "midi": 63,
          "name": "D#4",
          "ticks": 117360,
          "time": 139.71439049999998,
          "velocity": 0.3543307086614173
        },
        {
          "duration": 0.19047633333335057,
          "durationTicks": 160,
          "midi": 66,
          "name": "F#4",
          "ticks": 117360,
          "time": 139.71439049999998,
          "velocity": 0.5511811023622047
        },
        {
          "duration": 0.26190495833333216,
          "durationTicks": 220,
          "midi": 59,
          "name": "B3",
          "ticks": 117480,
          "time": 139.85724775,
          "velocity": 0.23622047244094488
        },
        {
          "duration": 0.11904770833334055,
          "durationTicks": 100,
          "midi": 47,
          "name": "B2",
          "ticks": 117720,
          "time": 140.14296224999998,
          "velocity": 0.23622047244094488
        },
        {
          "duration": 0.11904770833334055,
          "durationTicks": 100,
          "midi": 59,
          "name": "B3",
          "ticks": 117720,
          "time": 140.14296224999998,
          "velocity": 0.23622047244094488
        },
        {
          "duration": 0.11904770833334055,
          "durationTicks": 100,
          "midi": 63,
          "name": "D#4",
          "ticks": 117720,
          "time": 140.14296224999998,
          "velocity": 0.2755905511811024
        },
        {
          "duration": 0.2857144999999832,
          "durationTicks": 240,
          "midi": 39,
          "name": "D#2",
          "ticks": 117840,
          "time": 140.2858195,
          "velocity": 0.41732283464566927
        },
        {
          "duration": 0.2857144999999832,
          "durationTicks": 240,
          "midi": 44,
          "name": "G#2",
          "ticks": 117840,
          "time": 140.2858195,
          "velocity": 0.31496062992125984
        },
        {
          "duration": 0.28571450000001164,
          "durationTicks": 240,
          "midi": 44,
          "name": "G#2",
          "ticks": 118080,
          "time": 140.57153399999999,
          "velocity": 0.33858267716535434
        },
        {
          "duration": 0.28571450000001164,
          "durationTicks": 240,
          "midi": 56,
          "name": "G#3",
          "ticks": 118080,
          "time": 140.57153399999999,
          "velocity": 0.5984251968503937
        },
        {
          "duration": 0.28571450000001164,
          "durationTicks": 240,
          "midi": 58,
          "name": "A#3",
          "ticks": 118080,
          "time": 140.57153399999999,
          "velocity": 0.29133858267716534
        },
        {
          "duration": 0.28571450000001164,
          "durationTicks": 240,
          "midi": 59,
          "name": "B3",
          "ticks": 118080,
          "time": 140.57153399999999,
          "velocity": 0.2992125984251969
        },
        {
          "duration": 0.28571450000001164,
          "durationTicks": 240,
          "midi": 63,
          "name": "D#4",
          "ticks": 118080,
          "time": 140.57153399999999,
          "velocity": 0.23622047244094488
        },
        {
          "duration": 0.11904770833334055,
          "durationTicks": 100,
          "midi": 32,
          "name": "G#1",
          "ticks": 118320,
          "time": 140.8572485,
          "velocity": 0.33070866141732286
        },
        {
          "duration": 0.11904770833334055,
          "durationTicks": 100,
          "midi": 56,
          "name": "G#3",
          "ticks": 118320,
          "time": 140.8572485,
          "velocity": 0.48031496062992124
        },
        {
          "duration": 0.11904770833334055,
          "durationTicks": 100,
          "midi": 66,
          "name": "F#4",
          "ticks": 118320,
          "time": 140.8572485,
          "velocity": 0.25984251968503935
        },
        {
          "duration": 0.28571450000001164,
          "durationTicks": 240,
          "midi": 58,
          "name": "A#3",
          "ticks": 118440,
          "time": 141.00010575,
          "velocity": 0.23622047244094488
        },
        {
          "duration": 0.28571450000001164,
          "durationTicks": 240,
          "midi": 59,
          "name": "B3",
          "ticks": 118440,
          "time": 141.00010575,
          "velocity": 0.33858267716535434
        },
        {
          "duration": 0.1428572499999916,
          "durationTicks": 120,
          "midi": 63,
          "name": "D#4",
          "ticks": 118680,
          "time": 141.28582025,
          "velocity": 0.29133858267716534
        },
        {
          "duration": 0.1666667916666711,
          "durationTicks": 140,
          "midi": 39,
          "name": "D#2",
          "ticks": 118800,
          "time": 141.4286775,
          "velocity": 0.3464566929133858
        },
        {
          "duration": 0.1666667916666711,
          "durationTicks": 140,
          "midi": 44,
          "name": "G#2",
          "ticks": 118800,
          "time": 141.4286775,
          "velocity": 0.25196850393700787
        },
        {
          "duration": 0.1666667916666711,
          "durationTicks": 140,
          "midi": 56,
          "name": "G#3",
          "ticks": 118800,
          "time": 141.4286775,
          "velocity": 0.44881889763779526
        },
        {
          "duration": 0.1666667916666711,
          "durationTicks": 140,
          "midi": 60,
          "name": "C4",
          "ticks": 118800,
          "time": 141.4286775,
          "velocity": 0.1968503937007874
        },
        {
          "duration": 0.14285725000002003,
          "durationTicks": 120,
          "midi": 38,
          "name": "D2",
          "ticks": 118920,
          "time": 141.57153474999998,
          "velocity": 0.3700787401574803
        },
        {
          "duration": 0.14285725000002003,
          "durationTicks": 120,
          "midi": 61,
          "name": "C#4",
          "ticks": 118920,
          "time": 141.57153474999998,
          "velocity": 0.23622047244094488
        },
        {
          "duration": 0.14285725000002003,
          "durationTicks": 120,
          "midi": 64,
          "name": "E4",
          "ticks": 118920,
          "time": 141.57153474999998,
          "velocity": 0.2283464566929134
        },
        {
          "duration": 0.09523816666666107,
          "durationTicks": 80,
          "midi": 65,
          "name": "F4",
          "ticks": 118920,
          "time": 141.57153474999998,
          "velocity": 0.2047244094488189
        },
        {
          "duration": 0.09523816666666107,
          "durationTicks": 80,
          "midi": 68,
          "name": "G#4",
          "ticks": 118920,
          "time": 141.57153474999998,
          "velocity": 0.5590551181102362
        },
        {
          "duration": 0.2857144999999832,
          "durationTicks": 240,
          "midi": 37,
          "name": "C#2",
          "ticks": 119040,
          "time": 141.714392,
          "velocity": 0.36220472440944884
        },
        {
          "duration": 0.2857144999999832,
          "durationTicks": 240,
          "midi": 66,
          "name": "F#4",
          "ticks": 119040,
          "time": 141.714392,
          "velocity": 0.23622047244094488
        },
        {
          "duration": 0.1428572499999916,
          "durationTicks": 120,
          "midi": 54,
          "name": "F#3",
          "ticks": 119280,
          "time": 142.0001065,
          "velocity": 0.25984251968503935
        },
        {
          "duration": 0.2619049583333606,
          "durationTicks": 220,
          "midi": 59,
          "name": "B3",
          "ticks": 119400,
          "time": 142.14296374999998,
          "velocity": 0.23622047244094488
        },
        {
          "duration": 0.2619049583333606,
          "durationTicks": 220,
          "midi": 63,
          "name": "D#4",
          "ticks": 119400,
          "time": 142.14296374999998,
          "velocity": 0.3858267716535433
        },
        {
          "duration": 0.1666667916666711,
          "durationTicks": 140,
          "midi": 32,
          "name": "G#1",
          "ticks": 119640,
          "time": 142.42867825,
          "velocity": 0.3700787401574803
        },
        {
          "duration": 0.1666667916666711,
          "durationTicks": 140,
          "midi": 63,
          "name": "D#4",
          "ticks": 119640,
          "time": 142.42867825,
          "velocity": 0.41732283464566927
        },
        {
          "duration": 0.14285725000002003,
          "durationTicks": 120,
          "midi": 37,
          "name": "C#2",
          "ticks": 119760,
          "time": 142.57153549999998,
          "velocity": 0.4566929133858268
        },
        {
          "duration": 0.16666679166664267,
          "durationTicks": 140,
          "midi": 32,
          "name": "G#1",
          "ticks": 119880,
          "time": 142.71439275,
          "velocity": 0.4251968503937008
        },
        {
          "duration": 0.28571450000001164,
          "durationTicks": 240,
          "midi": 35,
          "name": "B1",
          "ticks": 120000,
          "time": 142.85725,
          "velocity": 0.4409448818897638
        },
        {
          "duration": 0.28571450000001164,
          "durationTicks": 240,
          "midi": 47,
          "name": "B2",
          "ticks": 120000,
          "time": 142.85725,
          "velocity": 0.4645669291338583
        },
        {
          "duration": 0.28571450000001164,
          "durationTicks": 240,
          "midi": 59,
          "name": "B3",
          "ticks": 120000,
          "time": 142.85725,
          "velocity": 0.4645669291338583
        },
        {
          "duration": 0.28571450000001164,
          "durationTicks": 240,
          "midi": 62,
          "name": "D4",
          "ticks": 120000,
          "time": 142.85725,
          "velocity": 0.31496062992125984
        },
        {
          "duration": 0.28571450000001164,
          "durationTicks": 240,
          "midi": 65,
          "name": "F4",
          "ticks": 120000,
          "time": 142.85725,
          "velocity": 0.25984251968503935
        },
        {
          "duration": 0.11904770833331213,
          "durationTicks": 100,
          "midi": 35,
          "name": "B1",
          "ticks": 120240,
          "time": 143.1429645,
          "velocity": 0.3464566929133858
        },
        {
          "duration": 0.1428572499999916,
          "durationTicks": 120,
          "midi": 56,
          "name": "G#3",
          "ticks": 120360,
          "time": 143.28582175,
          "velocity": 0.36220472440944884
        },
        {
          "duration": 0.26190495833333216,
          "durationTicks": 220,
          "midi": 62,
          "name": "D4",
          "ticks": 120480,
          "time": 143.428679,
          "velocity": 0.4015748031496063
        },
        {
          "duration": 0.16666679166664267,
          "durationTicks": 140,
          "midi": 37,
          "name": "C#2",
          "ticks": 120720,
          "time": 143.7143935,
          "velocity": 0.3700787401574803
        },
        {
          "duration": 0.16666679166664267,
          "durationTicks": 140,
          "midi": 47,
          "name": "B2",
          "ticks": 120720,
          "time": 143.7143935,
          "velocity": 0.3464566929133858
        },
        {
          "duration": 0.1666667916666711,
          "durationTicks": 140,
          "midi": 35,
          "name": "B1",
          "ticks": 120840,
          "time": 143.85725075,
          "velocity": 0.3543307086614173
        },
        {
          "duration": 0.09523816666666107,
          "durationTicks": 80,
          "midi": 62,
          "name": "D4",
          "ticks": 120840,
          "time": 143.85725075,
          "velocity": 0.2992125984251969
        },
        {
          "duration": 0.09523816666666107,
          "durationTicks": 80,
          "midi": 65,
          "name": "F4",
          "ticks": 120840,
          "time": 143.85725075,
          "velocity": 0.2755905511811024
        },
        {
          "duration": 0.28571450000001164,
          "durationTicks": 240,
          "midi": 34,
          "name": "A#1",
          "ticks": 120960,
          "time": 144.00010799999998,
          "velocity": 0.33858267716535434
        },
        {
          "duration": 0.28571450000001164,
          "durationTicks": 240,
          "midi": 46,
          "name": "A#2",
          "ticks": 120960,
          "time": 144.00010799999998,
          "velocity": 0.3228346456692913
        },
        {
          "duration": 0.28571450000001164,
          "durationTicks": 240,
          "midi": 52,
          "name": "E3",
          "ticks": 120960,
          "time": 144.00010799999998,
          "velocity": 0.3700787401574803
        },
        {
          "duration": 0.28571450000001164,
          "durationTicks": 240,
          "midi": 56,
          "name": "G#3",
          "ticks": 120960,
          "time": 144.00010799999998,
          "velocity": 0.1968503937007874
        },
        {
          "duration": 0.28571450000001164,
          "durationTicks": 240,
          "midi": 61,
          "name": "C#4",
          "ticks": 120960,
          "time": 144.00010799999998,
          "velocity": 0.2204724409448819
        },
        {
          "duration": 0.28571450000001164,
          "durationTicks": 240,
          "midi": 64,
          "name": "E4",
          "ticks": 120960,
          "time": 144.00010799999998,
          "velocity": 0.29133858267716534
        },
        {
          "duration": 0.2619049583333606,
          "durationTicks": 220,
          "midi": 73,
          "name": "C#5",
          "ticks": 120960,
          "time": 144.00010799999998,
          "velocity": 0.2204724409448819
        },
        {
          "duration": 0.1428572499999916,
          "durationTicks": 120,
          "midi": 46,
          "name": "A#2",
          "ticks": 121200,
          "time": 144.2858225,
          "velocity": 0.44881889763779526
        },
        {
          "duration": 0.1428572499999916,
          "durationTicks": 120,
          "midi": 56,
          "name": "G#3",
          "ticks": 121200,
          "time": 144.2858225,
          "velocity": 0.2440944881889764
        },
        {
          "duration": 0.11904770833334055,
          "durationTicks": 100,
          "midi": 33,
          "name": "A1",
          "ticks": 121320,
          "time": 144.42867975,
          "velocity": 0.36220472440944884
        },
        {
          "duration": 0.14285725000002003,
          "durationTicks": 120,
          "midi": 68,
          "name": "G#4",
          "ticks": 121440,
          "time": 144.57153699999998,
          "velocity": 0.33070866141732286
        },
        {
          "duration": 0.16666679166664267,
          "durationTicks": 140,
          "midi": 40,
          "name": "E2",
          "ticks": 121560,
          "time": 144.71439425,
          "velocity": 0.2755905511811024
        },
        {
          "duration": 0.11904770833334055,
          "durationTicks": 100,
          "midi": 64,
          "name": "E4",
          "ticks": 121560,
          "time": 144.71439425,
          "velocity": 0.4330708661417323
        },
        {
          "duration": 0.28571450000001164,
          "durationTicks": 240,
          "midi": 34,
          "name": "A#1",
          "ticks": 121680,
          "time": 144.8572515,
          "velocity": 0.5590551181102362
        },
        {
          "duration": 0.3333335833333422,
          "durationTicks": 280,
          "midi": 33,
          "name": "A1",
          "ticks": 121920,
          "time": 145.142966,
          "velocity": 0.4566929133858268
        },
        {
          "duration": 0.3333335833333422,
          "durationTicks": 280,
          "midi": 45,
          "name": "A2",
          "ticks": 121920,
          "time": 145.142966,
          "velocity": 0.4566929133858268
        },
        {
          "duration": 0.2857144999999832,
          "durationTicks": 240,
          "midi": 57,
          "name": "A3",
          "ticks": 121920,
          "time": 145.142966,
          "velocity": 0.31496062992125984
        },
        {
          "duration": 0.2857144999999832,
          "durationTicks": 240,
          "midi": 60,
          "name": "C4",
          "ticks": 121920,
          "time": 145.142966,
          "velocity": 0.33858267716535434
        },
        {
          "duration": 0.2857144999999832,
          "durationTicks": 240,
          "midi": 63,
          "name": "D#4",
          "ticks": 121920,
          "time": 145.142966,
          "velocity": 0.25984251968503935
        },
        {
          "duration": 0.2857144999999832,
          "durationTicks": 240,
          "midi": 66,
          "name": "F#4",
          "ticks": 121920,
          "time": 145.142966,
          "velocity": 0.5118110236220472
        },
        {
          "duration": 0.3333335833333422,
          "durationTicks": 280,
          "midi": 69,
          "name": "A4",
          "ticks": 121920,
          "time": 145.142966,
          "velocity": 0.31496062992125984
        },
        {
          "duration": 0.2857144999999832,
          "durationTicks": 240,
          "midi": 72,
          "name": "C5",
          "ticks": 121920,
          "time": 145.142966,
          "velocity": 0.33858267716535434
        },
        {
          "duration": 0.1666667916666711,
          "durationTicks": 140,
          "midi": 54,
          "name": "F#3",
          "ticks": 122160,
          "time": 145.42868049999998,
          "velocity": 0.3937007874015748
        },
        {
          "duration": 0.1666667916666711,
          "durationTicks": 140,
          "midi": 66,
          "name": "F#4",
          "ticks": 122160,
          "time": 145.42868049999998,
          "velocity": 0.4566929133858268
        },
        {
          "duration": 0.1428572499999916,
          "durationTicks": 120,
          "midi": 57,
          "name": "A3",
          "ticks": 122280,
          "time": 145.57153775,
          "velocity": 0.3464566929133858
        },
        {
          "duration": 0.1428572499999916,
          "durationTicks": 120,
          "midi": 60,
          "name": "C4",
          "ticks": 122280,
          "time": 145.57153775,
          "velocity": 0.2755905511811024
        },
        {
          "duration": 0.1428572499999916,
          "durationTicks": 120,
          "midi": 67,
          "name": "G4",
          "ticks": 122280,
          "time": 145.57153775,
          "velocity": 0.2440944881889764
        },
        {
          "duration": 0.11904770833334055,
          "durationTicks": 100,
          "midi": 72,
          "name": "C5",
          "ticks": 122400,
          "time": 145.714395,
          "velocity": 0.2992125984251969
        },
        {
          "duration": 0.1428572499999916,
          "durationTicks": 120,
          "midi": 60,
          "name": "C4",
          "ticks": 122520,
          "time": 145.85725225,
          "velocity": 0.5196850393700787
        },
        {
          "duration": 0.1428572499999916,
          "durationTicks": 120,
          "midi": 63,
          "name": "D#4",
          "ticks": 122520,
          "time": 145.85725225,
          "velocity": 0.36220472440944884
        },
        {
          "duration": 0.1666667916666711,
          "durationTicks": 140,
          "midi": 33,
          "name": "A1",
          "ticks": 122640,
          "time": 146.00010949999998,
          "velocity": 0.4566929133858268
        },
        {
          "duration": 0.1666667916666711,
          "durationTicks": 140,
          "midi": 45,
          "name": "A2",
          "ticks": 122640,
          "time": 146.00010949999998,
          "velocity": 0.4566929133858268
        },
        {
          "duration": 0.1666667916666711,
          "durationTicks": 140,
          "midi": 60,
          "name": "C4",
          "ticks": 122640,
          "time": 146.00010949999998,
          "velocity": 0.5196850393700787
        },
        {
          "duration": 0.1666667916666711,
          "durationTicks": 140,
          "midi": 69,
          "name": "A4",
          "ticks": 122640,
          "time": 146.00010949999998,
          "velocity": 0.2440944881889764
        },
        {
          "duration": 0.1666667916666711,
          "durationTicks": 140,
          "midi": 72,
          "name": "C5",
          "ticks": 122640,
          "time": 146.00010949999998,
          "velocity": 0.3779527559055118
        },
        {
          "duration": 0.1428572499999916,
          "durationTicks": 120,
          "midi": 60,
          "name": "C4",
          "ticks": 122760,
          "time": 146.14296675,
          "velocity": 0.4094488188976378
        },
        {
          "duration": 0.1428572499999916,
          "durationTicks": 120,
          "midi": 32,
          "name": "G#1",
          "ticks": 122880,
          "time": 146.285824,
          "velocity": 0.4881889763779528
        },
        {
          "duration": 0.1428572499999916,
          "durationTicks": 120,
          "midi": 44,
          "name": "G#2",
          "ticks": 122880,
          "time": 146.285824,
          "velocity": 0.4881889763779528
        },
        {
          "duration": 0.1428572499999916,
          "durationTicks": 120,
          "midi": 54,
          "name": "F#3",
          "ticks": 122880,
          "time": 146.285824,
          "velocity": 0.3464566929133858
        },
        {
          "duration": 0.1428572499999916,
          "durationTicks": 120,
          "midi": 59,
          "name": "B3",
          "ticks": 122880,
          "time": 146.285824,
          "velocity": 0.2755905511811024
        },
        {
          "duration": 0.1428572499999916,
          "durationTicks": 120,
          "midi": 64,
          "name": "E4",
          "ticks": 122880,
          "time": 146.285824,
          "velocity": 0.2677165354330709
        },
        {
          "duration": 0.1428572499999916,
          "durationTicks": 120,
          "midi": 66,
          "name": "F#4",
          "ticks": 122880,
          "time": 146.285824,
          "velocity": 0.5118110236220472
        },
        {
          "duration": 0.11904770833334055,
          "durationTicks": 100,
          "midi": 66,
          "name": "F#4",
          "ticks": 123000,
          "time": 146.42868124999998,
          "velocity": 0.44881889763779526
        },
        {
          "duration": 0.09523816666666107,
          "durationTicks": 80,
          "midi": 64,
          "name": "E4",
          "ticks": 123120,
          "time": 146.5715385,
          "velocity": 0.3858267716535433
        },
        {
          "duration": 0.1428572499999916,
          "durationTicks": 120,
          "midi": 71,
          "name": "B4",
          "ticks": 123120,
          "time": 146.5715385,
          "velocity": 0.3543307086614173
        },
        {
          "duration": 0.40476220833332377,
          "durationTicks": 340,
          "midi": 39,
          "name": "D#2",
          "ticks": 123240,
          "time": 146.71439575,
          "velocity": 0.4015748031496063
        },
        {
          "duration": 0.40476220833332377,
          "durationTicks": 340,
          "midi": 59,
          "name": "B3",
          "ticks": 123240,
          "time": 146.71439575,
          "velocity": 0.33858267716535434
        },
        {
          "duration": 0.2857144999999832,
          "durationTicks": 240,
          "midi": 38,
          "name": "D2",
          "ticks": 123600,
          "time": 147.1429675,
          "velocity": 0.4015748031496063
        },
        {
          "duration": 0.2857144999999832,
          "durationTicks": 240,
          "midi": 50,
          "name": "D3",
          "ticks": 123600,
          "time": 147.1429675,
          "velocity": 0.33070866141732286
        },
        {
          "duration": 0.2857144999999832,
          "durationTicks": 240,
          "midi": 60,
          "name": "C4",
          "ticks": 123600,
          "time": 147.1429675,
          "velocity": 0.31496062992125984
        },
        {
          "duration": 0.2857144999999832,
          "durationTicks": 240,
          "midi": 64,
          "name": "E4",
          "ticks": 123600,
          "time": 147.1429675,
          "velocity": 0.5275590551181102
        },
        {
          "duration": 0.2857144999999832,
          "durationTicks": 240,
          "midi": 72,
          "name": "C5",
          "ticks": 123600,
          "time": 147.1429675,
          "velocity": 0.31496062992125984
        },
        {
          "duration": 0.28571450000001164,
          "durationTicks": 240,
          "midi": 60,
          "name": "C4",
          "ticks": 123840,
          "time": 147.42868199999998,
          "velocity": 0.23622047244094488
        },
        {
          "duration": 0.28571450000001164,
          "durationTicks": 240,
          "midi": 66,
          "name": "F#4",
          "ticks": 123840,
          "time": 147.42868199999998,
          "velocity": 0.2283464566929134
        },
        {
          "duration": 0.28571450000001164,
          "durationTicks": 240,
          "midi": 72,
          "name": "C5",
          "ticks": 123840,
          "time": 147.42868199999998,
          "velocity": 0.23622047244094488
        },
        {
          "duration": 0.28571450000001164,
          "durationTicks": 240,
          "midi": 78,
          "name": "F#5",
          "ticks": 123840,
          "time": 147.42868199999998,
          "velocity": 0.2283464566929134
        },
        {
          "duration": 0.1428572499999916,
          "durationTicks": 120,
          "midi": 50,
          "name": "D3",
          "ticks": 124080,
          "time": 147.7143965,
          "velocity": 0.31496062992125984
        },
        {
          "duration": 0.1428572499999916,
          "durationTicks": 120,
          "midi": 54,
          "name": "F#3",
          "ticks": 124080,
          "time": 147.7143965,
          "velocity": 0.3700787401574803
        },
        {
          "duration": 0.1428572499999916,
          "durationTicks": 120,
          "midi": 59,
          "name": "B3",
          "ticks": 124080,
          "time": 147.7143965,
          "velocity": 0.4409448818897638
        },
        {
          "duration": 0.1428572499999916,
          "durationTicks": 120,
          "midi": 64,
          "name": "E4",
          "ticks": 124080,
          "time": 147.7143965,
          "velocity": 0.2440944881889764
        },
        {
          "duration": 0.1428572499999916,
          "durationTicks": 120,
          "midi": 72,
          "name": "C5",
          "ticks": 124080,
          "time": 147.7143965,
          "velocity": 0.3779527559055118
        },
        {
          "duration": 0.14285725000002003,
          "durationTicks": 120,
          "midi": 60,
          "name": "C4",
          "ticks": 124200,
          "time": 147.85725374999998,
          "velocity": 0.5196850393700787
        },
        {
          "duration": 0.11904770833331213,
          "durationTicks": 100,
          "midi": 68,
          "name": "G#4",
          "ticks": 124320,
          "time": 148.000111,
          "velocity": 0.30708661417322836
        },
        {
          "duration": 0.11904770833331213,
          "durationTicks": 100,
          "midi": 80,
          "name": "G#5",
          "ticks": 124320,
          "time": 148.000111,
          "velocity": 0.2440944881889764
        },
        {
          "duration": 0.1428572499999916,
          "durationTicks": 120,
          "midi": 32,
          "name": "G#1",
          "ticks": 124440,
          "time": 148.14296825,
          "velocity": 0.4251968503937008
        },
        {
          "duration": 0.1428572499999916,
          "durationTicks": 120,
          "midi": 44,
          "name": "G#2",
          "ticks": 124440,
          "time": 148.14296825,
          "velocity": 0.36220472440944884
        },
        {
          "duration": 0.1428572499999916,
          "durationTicks": 120,
          "midi": 64,
          "name": "E4",
          "ticks": 124440,
          "time": 148.14296825,
          "velocity": 0.2204724409448819
        },
        {
          "duration": 0.26190495833333216,
          "durationTicks": 220,
          "midi": 38,
          "name": "D2",
          "ticks": 124560,
          "time": 148.2858255,
          "velocity": 0.36220472440944884
        },
        {
          "duration": 0.3095240416666911,
          "durationTicks": 260,
          "midi": 59,
          "name": "B3",
          "ticks": 124560,
          "time": 148.2858255,
          "velocity": 0.4566929133858268
        },
        {
          "duration": 0.26190495833333216,
          "durationTicks": 220,
          "midi": 60,
          "name": "C4",
          "ticks": 124560,
          "time": 148.2858255,
          "velocity": 0.33070866141732286
        },
        {
          "duration": 0.3095240416666627,
          "durationTicks": 260,
          "midi": 37,
          "name": "C#2",
          "ticks": 124800,
          "time": 148.57154,
          "velocity": 0.44881889763779526
        },
        {
          "duration": 0.26190495833330374,
          "durationTicks": 220,
          "midi": 54,
          "name": "F#3",
          "ticks": 124800,
          "time": 148.57154,
          "velocity": 0.2047244094488189
        },
        {
          "duration": 0.3095240416666627,
          "durationTicks": 260,
          "midi": 59,
          "name": "B3",
          "ticks": 124800,
          "time": 148.57154,
          "velocity": 0.3937007874015748
        },
        {
          "duration": 0.26190495833330374,
          "durationTicks": 220,
          "midi": 63,
          "name": "D#4",
          "ticks": 124800,
          "time": 148.57154,
          "velocity": 0.33070866141732286
        },
        {
          "duration": 0.3095240416666627,
          "durationTicks": 260,
          "midi": 68,
          "name": "G#4",
          "ticks": 124800,
          "time": 148.57154,
          "velocity": 0.2677165354330709
        },
        {
          "duration": 0.26190495833330374,
          "durationTicks": 220,
          "midi": 71,
          "name": "B4",
          "ticks": 124800,
          "time": 148.57154,
          "velocity": 0.4409448818897638
        },
        {
          "duration": 0.26190495833330374,
          "durationTicks": 220,
          "midi": 75,
          "name": "D#5",
          "ticks": 124800,
          "time": 148.57154,
          "velocity": 0.31496062992125984
        },
        {
          "duration": 0.3095240416666627,
          "durationTicks": 260,
          "midi": 80,
          "name": "G#5",
          "ticks": 124800,
          "time": 148.57154,
          "velocity": 0.2125984251968504
        },
        {
          "duration": 0.1666667916666995,
          "durationTicks": 140,
          "midi": 59,
          "name": "B3",
          "ticks": 125040,
          "time": 148.85725449999998,
          "velocity": 0.5433070866141733
        },
        {
          "duration": 0.1666667916666995,
          "durationTicks": 140,
          "midi": 71,
          "name": "B4",
          "ticks": 125040,
          "time": 148.85725449999998,
          "velocity": 0.5118110236220472
        },
        {
          "duration": 0.1428572499999916,
          "durationTicks": 120,
          "midi": 54,
          "name": "F#3",
          "ticks": 125160,
          "time": 149.00011175,
          "velocity": 0.25984251968503935
        },
        {
          "duration": 0.1428572499999916,
          "durationTicks": 120,
          "midi": 59,
          "name": "B3",
          "ticks": 125160,
          "time": 149.00011175,
          "velocity": 0.5669291338582677
        },
        {
          "duration": 0.1428572499999916,
          "durationTicks": 120,
          "midi": 68,
          "name": "G#4",
          "ticks": 125160,
          "time": 149.00011175,
          "velocity": 0.36220472440944884
        },
        {
          "duration": 0.1428572499999916,
          "durationTicks": 120,
          "midi": 76,
          "name": "E5",
          "ticks": 125160,
          "time": 149.00011175,
          "velocity": 0.1889763779527559
        },
        {
          "duration": 0.1428572499999916,
          "durationTicks": 120,
          "midi": 66,
          "name": "F#4",
          "ticks": 125280,
          "time": 149.142969,
          "velocity": 0.31496062992125984
        },
        {
          "duration": 0.1428572499999916,
          "durationTicks": 120,
          "midi": 75,
          "name": "D#5",
          "ticks": 125280,
          "time": 149.142969,
          "velocity": 0.23622047244094488
        },
        {
          "duration": 0.11904770833331213,
          "durationTicks": 100,
          "midi": 78,
          "name": "F#5",
          "ticks": 125280,
          "time": 149.142969,
          "velocity": 0.2992125984251969
        },
        {
          "duration": 0.1666667916666711,
          "durationTicks": 140,
          "midi": 64,
          "name": "E4",
          "ticks": 125400,
          "time": 149.28582624999999,
          "velocity": 0.25984251968503935
        },
        {
          "duration": 0.11904770833334055,
          "durationTicks": 100,
          "midi": 73,
          "name": "C#5",
          "ticks": 125400,
          "time": 149.28582624999999,
          "velocity": 0.2204724409448819
        },
        {
          "duration": 0.11904770833334055,
          "durationTicks": 100,
          "midi": 76,
          "name": "E5",
          "ticks": 125400,
          "time": 149.28582624999999,
          "velocity": 0.25196850393700787
        },
        {
          "duration": 0.28571450000001164,
          "durationTicks": 240,
          "midi": 32,
          "name": "G#1",
          "ticks": 125520,
          "time": 149.42868349999998,
          "velocity": 0.3464566929133858
        },
        {
          "duration": 0.28571450000001164,
          "durationTicks": 240,
          "midi": 49,
          "name": "C#3",
          "ticks": 125520,
          "time": 149.42868349999998,
          "velocity": 0.3464566929133858
        },
        {
          "duration": 0.28571450000001164,
          "durationTicks": 240,
          "midi": 54,
          "name": "F#3",
          "ticks": 125520,
          "time": 149.42868349999998,
          "velocity": 0.2204724409448819
        },
        {
          "duration": 0.28571450000001164,
          "durationTicks": 240,
          "midi": 56,
          "name": "G#3",
          "ticks": 125520,
          "time": 149.42868349999998,
          "velocity": 0.23622047244094488
        },
        {
          "duration": 0.2380954166666811,
          "durationTicks": 200,
          "midi": 59,
          "name": "B3",
          "ticks": 125520,
          "time": 149.42868349999998,
          "velocity": 0.4881889763779528
        },
        {
          "duration": 0.28571450000001164,
          "durationTicks": 240,
          "midi": 75,
          "name": "D#5",
          "ticks": 125520,
          "time": 149.42868349999998,
          "velocity": 0.2440944881889764
        },
        {
          "duration": 0.1428572499999916,
          "durationTicks": 120,
          "midi": 49,
          "name": "C#3",
          "ticks": 125760,
          "time": 149.714398,
          "velocity": 0.30708661417322836
        },
        {
          "duration": 0.1428572499999916,
          "durationTicks": 120,
          "midi": 68,
          "name": "G#4",
          "ticks": 125760,
          "time": 149.714398,
          "velocity": 0.2992125984251969
        },
        {
          "duration": 0.1428572499999916,
          "durationTicks": 120,
          "midi": 71,
          "name": "B4",
          "ticks": 125760,
          "time": 149.714398,
          "velocity": 0.3858267716535433
        },
        {
          "duration": 0.1428572499999916,
          "durationTicks": 120,
          "midi": 75,
          "name": "D#5",
          "ticks": 125760,
          "time": 149.714398,
          "velocity": 0.3700787401574803
        },
        {
          "duration": 0.11904770833334055,
          "durationTicks": 100,
          "midi": 32,
          "name": "G#1",
          "ticks": 125880,
          "time": 149.85725524999998,
          "velocity": 0.3543307086614173
        },
        {
          "duration": 0.40476220833332377,
          "durationTicks": 340,
          "midi": 37,
          "name": "C#2",
          "ticks": 126000,
          "time": 150.0001125,
          "velocity": 0.4330708661417323
        },
        {
          "duration": 0.40476220833332377,
          "durationTicks": 340,
          "midi": 49,
          "name": "C#3",
          "ticks": 126000,
          "time": 150.0001125,
          "velocity": 0.4330708661417323
        },
        {
          "duration": 0.1428572499999916,
          "durationTicks": 120,
          "midi": 40,
          "name": "E2",
          "ticks": 126360,
          "time": 150.42868425,
          "velocity": 0.3464566929133858
        },
        {
          "duration": 0.1428572499999916,
          "durationTicks": 120,
          "midi": 63,
          "name": "D#4",
          "ticks": 126360,
          "time": 150.42868425,
          "velocity": 0.30708661417322836
        },
        {
          "duration": 0.11904770833331213,
          "durationTicks": 100,
          "midi": 44,
          "name": "G#2",
          "ticks": 126480,
          "time": 150.5715415,
          "velocity": 0.3700787401574803
        },
        {
          "duration": 0.21428587500000162,
          "durationTicks": 180,
          "midi": 66,
          "name": "F#4",
          "ticks": 126480,
          "time": 150.5715415,
          "velocity": 0.3464566929133858
        },
        {
          "duration": 0.19047633333332215,
          "durationTicks": 160,
          "midi": 68,
          "name": "G#4",
          "ticks": 126480,
          "time": 150.5715415,
          "velocity": 0.30708661417322836
        },
        {
          "duration": 0.1666667916666711,
          "durationTicks": 140,
          "midi": 49,
          "name": "C#3",
          "ticks": 126600,
          "time": 150.71439875,
          "velocity": 0.36220472440944884
        },
        {
          "duration": 0.0952381666666895,
          "durationTicks": 80,
          "midi": 65,
          "name": "F4",
          "ticks": 126600,
          "time": 150.71439875,
          "velocity": 0.41732283464566927
        },
        {
          "duration": 0.14285725000002003,
          "durationTicks": 120,
          "midi": 47,
          "name": "B2",
          "ticks": 126720,
          "time": 150.85725599999998,
          "velocity": 0.3779527559055118
        },
        {
          "duration": 0.14285725000002003,
          "durationTicks": 120,
          "midi": 49,
          "name": "C#3",
          "ticks": 126720,
          "time": 150.85725599999998,
          "velocity": 0.3779527559055118
        },
        {
          "duration": 0.14285725000002003,
          "durationTicks": 120,
          "midi": 53,
          "name": "F3",
          "ticks": 126720,
          "time": 150.85725599999998,
          "velocity": 0.41732283464566927
        },
        {
          "duration": 0.11904770833334055,
          "durationTicks": 100,
          "midi": 59,
          "name": "B3",
          "ticks": 126720,
          "time": 150.85725599999998,
          "velocity": 0.30708661417322836
        },
        {
          "duration": 0.14285725000002003,
          "durationTicks": 120,
          "midi": 60,
          "name": "C4",
          "ticks": 126720,
          "time": 150.85725599999998,
          "velocity": 0.5590551181102362
        },
        {
          "duration": 0.11904770833334055,
          "durationTicks": 100,
          "midi": 64,
          "name": "E4",
          "ticks": 126720,
          "time": 150.85725599999998,
          "velocity": 0.4645669291338583
        },
        {
          "duration": 0.11904770833334055,
          "durationTicks": 100,
          "midi": 71,
          "name": "B4",
          "ticks": 126720,
          "time": 150.85725599999998,
          "velocity": 0.30708661417322836
        },
        {
          "duration": 0.2857144999999832,
          "durationTicks": 240,
          "midi": 61,
          "name": "C#4",
          "ticks": 126840,
          "time": 151.00011325,
          "velocity": 0.4330708661417323
        },
        {
          "duration": 0.2857144999999832,
          "durationTicks": 240,
          "midi": 63,
          "name": "D#4",
          "ticks": 126840,
          "time": 151.00011325,
          "velocity": 0.1968503937007874
        },
        {
          "duration": 0.14285725000002003,
          "durationTicks": 120,
          "midi": 38,
          "name": "D2",
          "ticks": 127080,
          "time": 151.28582774999998,
          "velocity": 0.23622047244094488
        },
        {
          "duration": 0.1666667916666711,
          "durationTicks": 140,
          "midi": 44,
          "name": "G#2",
          "ticks": 127200,
          "time": 151.428685,
          "velocity": 0.4094488188976378
        },
        {
          "duration": 0.19047633333332215,
          "durationTicks": 160,
          "midi": 64,
          "name": "E4",
          "ticks": 127320,
          "time": 151.57154225,
          "velocity": 0.31496062992125984
        },
        {
          "duration": 0.14285725000002003,
          "durationTicks": 120,
          "midi": 49,
          "name": "C#3",
          "ticks": 127440,
          "time": 151.71439949999998,
          "velocity": 0.4409448818897638
        },
        {
          "duration": 0.11904770833331213,
          "durationTicks": 100,
          "midi": 33,
          "name": "A1",
          "ticks": 127560,
          "time": 151.85725675,
          "velocity": 0.4094488188976378
        },
        {
          "duration": 0.2857144999999832,
          "durationTicks": 240,
          "midi": 43,
          "name": "G2",
          "ticks": 127680,
          "time": 152.000114,
          "velocity": 0.3700787401574803
        },
        {
          "duration": 0.2857144999999832,
          "durationTicks": 240,
          "midi": 59,
          "name": "B3",
          "ticks": 127680,
          "time": 152.000114,
          "velocity": 0.1968503937007874
        },
        {
          "duration": 0.2857144999999832,
          "durationTicks": 240,
          "midi": 63,
          "name": "D#4",
          "ticks": 127680,
          "time": 152.000114,
          "velocity": 0.3228346456692913
        },
        {
          "duration": 0.2857144999999832,
          "durationTicks": 240,
          "midi": 68,
          "name": "G#4",
          "ticks": 127680,
          "time": 152.000114,
          "velocity": 0.2755905511811024
        },
        {
          "duration": 0.14285725000002003,
          "durationTicks": 120,
          "midi": 59,
          "name": "B3",
          "ticks": 127920,
          "time": 152.28582849999998,
          "velocity": 0.2204724409448819
        },
        {
          "duration": 0.1666667916666711,
          "durationTicks": 140,
          "midi": 33,
          "name": "A1",
          "ticks": 128040,
          "time": 152.42868575,
          "velocity": 0.33070866141732286
        },
        {
          "duration": 0.1428572499999916,
          "durationTicks": 120,
          "midi": 37,
          "name": "C#2",
          "ticks": 128160,
          "time": 152.571543,
          "velocity": 0.3858267716535433
        },
        {
          "duration": 0.1428572499999916,
          "durationTicks": 120,
          "midi": 49,
          "name": "C#3",
          "ticks": 128160,
          "time": 152.571543,
          "velocity": 0.33858267716535434
        },
        {
          "duration": 0.1428572499999916,
          "durationTicks": 120,
          "midi": 68,
          "name": "G#4",
          "ticks": 128160,
          "time": 152.571543,
          "velocity": 0.30708661417322836
        },
        {
          "duration": 0.14285725000002003,
          "durationTicks": 120,
          "midi": 63,
          "name": "D#4",
          "ticks": 128280,
          "time": 152.71440024999998,
          "velocity": 0.36220472440944884
        },
        {
          "duration": 0.1666667916666711,
          "durationTicks": 140,
          "midi": 31,
          "name": "G1",
          "ticks": 128400,
          "time": 152.8572575,
          "velocity": 0.5196850393700787
        },
        {
          "duration": 0.11904770833331213,
          "durationTicks": 100,
          "midi": 63,
          "name": "D#4",
          "ticks": 128400,
          "time": 152.8572575,
          "velocity": 0.36220472440944884
        },
        {
          "duration": 0.11904770833331213,
          "durationTicks": 100,
          "midi": 65,
          "name": "F4",
          "ticks": 128400,
          "time": 152.8572575,
          "velocity": 0.2755905511811024
        },
        {
          "duration": 0.1428572499999916,
          "durationTicks": 120,
          "midi": 31,
          "name": "G1",
          "ticks": 128520,
          "time": 153.00011475,
          "velocity": 0.5748031496062992
        },
        {
          "duration": 0.3095240416666911,
          "durationTicks": 260,
          "midi": 30,
          "name": "F#1",
          "ticks": 128640,
          "time": 153.142972,
          "velocity": 0.48031496062992124
        },
        {
          "duration": 0.3095240416666911,
          "durationTicks": 260,
          "midi": 42,
          "name": "F#2",
          "ticks": 128640,
          "time": 153.142972,
          "velocity": 0.48031496062992124
        },
        {
          "duration": 0.26190495833333216,
          "durationTicks": 220,
          "midi": 57,
          "name": "A3",
          "ticks": 128640,
          "time": 153.142972,
          "velocity": 0.44881889763779526
        },
        {
          "duration": 0.26190495833333216,
          "durationTicks": 220,
          "midi": 61,
          "name": "C#4",
          "ticks": 128640,
          "time": 153.142972,
          "velocity": 0.2283464566929134
        },
        {
          "duration": 0.26190495833333216,
          "durationTicks": 220,
          "midi": 64,
          "name": "E4",
          "ticks": 128640,
          "time": 153.142972,
          "velocity": 0.2440944881889764
        },
        {
          "duration": 0.3095240416666911,
          "durationTicks": 260,
          "midi": 69,
          "name": "A4",
          "ticks": 128640,
          "time": 153.142972,
          "velocity": 0.4409448818897638
        },
        {
          "duration": 0.11904770833331213,
          "durationTicks": 100,
          "midi": 42,
          "name": "F#2",
          "ticks": 128880,
          "time": 153.4286865,
          "velocity": 0.4015748031496063
        },
        {
          "duration": 0.0714286249999816,
          "durationTicks": 60,
          "midi": 52,
          "name": "E3",
          "ticks": 128880,
          "time": 153.4286865,
          "velocity": 0.29133858267716534
        },
        {
          "duration": 0.11904770833331213,
          "durationTicks": 100,
          "midi": 64,
          "name": "E4",
          "ticks": 128880,
          "time": 153.4286865,
          "velocity": 0.29133858267716534
        },
        {
          "duration": 0.28571450000001164,
          "durationTicks": 240,
          "midi": 37,
          "name": "C#2",
          "ticks": 129000,
          "time": 153.57154375,
          "velocity": 0.33858267716535434
        },
        {
          "duration": 0.28571450000001164,
          "durationTicks": 240,
          "midi": 57,
          "name": "A3",
          "ticks": 129000,
          "time": 153.57154375,
          "velocity": 0.29133858267716534
        },
        {
          "duration": 0.28571450000001164,
          "durationTicks": 240,
          "midi": 61,
          "name": "C#4",
          "ticks": 129000,
          "time": 153.57154375,
          "velocity": 0.4015748031496063
        },
        {
          "duration": 0.11904770833331213,
          "durationTicks": 100,
          "midi": 66,
          "name": "F#4",
          "ticks": 129240,
          "time": 153.85725825,
          "velocity": 0.3228346456692913
        },
        {
          "duration": 0.28571450000001164,
          "durationTicks": 240,
          "midi": 42,
          "name": "F#2",
          "ticks": 129360,
          "time": 154.0001155,
          "velocity": 0.5433070866141733
        },
        {
          "duration": 0.2857144999999832,
          "durationTicks": 240,
          "midi": 42,
          "name": "F#2",
          "ticks": 129600,
          "time": 154.28583,
          "velocity": 0.4330708661417323
        },
        {
          "duration": 0.2857144999999832,
          "durationTicks": 240,
          "midi": 52,
          "name": "E3",
          "ticks": 129600,
          "time": 154.28583,
          "velocity": 0.2755905511811024
        },
        {
          "duration": 0.2857144999999832,
          "durationTicks": 240,
          "midi": 61,
          "name": "C#4",
          "ticks": 129600,
          "time": 154.28583,
          "velocity": 0.25196850393700787
        },
        {
          "duration": 0.2857144999999832,
          "durationTicks": 240,
          "midi": 64,
          "name": "E4",
          "ticks": 129600,
          "time": 154.28583,
          "velocity": 0.2755905511811024
        },
        {
          "duration": 0.2857144999999832,
          "durationTicks": 240,
          "midi": 68,
          "name": "G#4",
          "ticks": 129600,
          "time": 154.28583,
          "velocity": 0.48031496062992124
        },
        {
          "duration": 0.2857144999999832,
          "durationTicks": 240,
          "midi": 83,
          "name": "B5",
          "ticks": 129600,
          "time": 154.28583,
          "velocity": 0.41732283464566927
        },
        {
          "duration": 0.1428572499999916,
          "durationTicks": 120,
          "midi": 37,
          "name": "C#2",
          "ticks": 129840,
          "time": 154.5715445,
          "velocity": 0.36220472440944884
        },
        {
          "duration": 0.1428572499999916,
          "durationTicks": 120,
          "midi": 52,
          "name": "E3",
          "ticks": 129840,
          "time": 154.5715445,
          "velocity": 0.25984251968503935
        },
        {
          "duration": 0.1428572499999916,
          "durationTicks": 120,
          "midi": 73,
          "name": "C#5",
          "ticks": 129840,
          "time": 154.5715445,
          "velocity": 0.3228346456692913
        },
        {
          "duration": 0.11904770833334055,
          "durationTicks": 100,
          "midi": 57,
          "name": "A3",
          "ticks": 129960,
          "time": 154.71440174999998,
          "velocity": 0.3228346456692913
        },
        {
          "duration": 0.1666667916666711,
          "durationTicks": 140,
          "midi": 30,
          "name": "F#1",
          "ticks": 130080,
          "time": 154.857259,
          "velocity": 0.3937007874015748
        },
        {
          "duration": 0.1428572499999916,
          "durationTicks": 120,
          "midi": 61,
          "name": "C#4",
          "ticks": 130200,
          "time": 155.00011625,
          "velocity": 0.29133858267716534
        },
        {
          "duration": 0.3095240416666911,
          "durationTicks": 260,
          "midi": 40,
          "name": "E2",
          "ticks": 130320,
          "time": 155.14297349999998,
          "velocity": 0.2755905511811024
        },
        {
          "duration": 0.3095240416666911,
          "durationTicks": 260,
          "midi": 42,
          "name": "F#2",
          "ticks": 130320,
          "time": 155.14297349999998,
          "velocity": 0.2755905511811024
        },
        {
          "duration": 0.1666667916666711,
          "durationTicks": 140,
          "midi": 32,
          "name": "G#1",
          "ticks": 130560,
          "time": 155.428688,
          "velocity": 0.4645669291338583
        },
        {
          "duration": 0.11904770833331213,
          "durationTicks": 100,
          "midi": 44,
          "name": "G#2",
          "ticks": 130560,
          "time": 155.428688,
          "velocity": 0.44881889763779526
        },
        {
          "duration": 0.1666667916666711,
          "durationTicks": 140,
          "midi": 51,
          "name": "D#3",
          "ticks": 130560,
          "time": 155.428688,
          "velocity": 0.30708661417322836
        },
        {
          "duration": 0.11904770833331213,
          "durationTicks": 100,
          "midi": 58,
          "name": "A#3",
          "ticks": 130560,
          "time": 155.428688,
          "velocity": 0.4409448818897638
        },
        {
          "duration": 0.1666667916666711,
          "durationTicks": 140,
          "midi": 59,
          "name": "B3",
          "ticks": 130560,
          "time": 155.428688,
          "velocity": 0.30708661417322836
        },
        {
          "duration": 0.1666667916666711,
          "durationTicks": 140,
          "midi": 61,
          "name": "C#4",
          "ticks": 130560,
          "time": 155.428688,
          "velocity": 0.2755905511811024
        },
        {
          "duration": 0.21428587500000162,
          "durationTicks": 180,
          "midi": 70,
          "name": "A#4",
          "ticks": 130560,
          "time": 155.428688,
          "velocity": 0.31496062992125984
        },
        {
          "duration": 0.1428572499999916,
          "durationTicks": 120,
          "midi": 61,
          "name": "C#4",
          "ticks": 130680,
          "time": 155.57154524999999,
          "velocity": 0.41732283464566927
        },
        {
          "duration": 0.11904770833334055,
          "durationTicks": 100,
          "midi": 54,
          "name": "F#3",
          "ticks": 130800,
          "time": 155.71440249999998,
          "velocity": 0.23622047244094488
        },
        {
          "duration": 0.2857144999999832,
          "durationTicks": 240,
          "midi": 39,
          "name": "D#2",
          "ticks": 130920,
          "time": 155.85725975,
          "velocity": 0.4015748031496063
        },
        {
          "duration": 0.11904770833334055,
          "durationTicks": 100,
          "midi": 54,
          "name": "F#3",
          "ticks": 131160,
          "time": 156.14297424999998,
          "velocity": 0.23622047244094488
        },
        {
          "duration": 0.11904770833334055,
          "durationTicks": 100,
          "midi": 59,
          "name": "B3",
          "ticks": 131160,
          "time": 156.14297424999998,
          "velocity": 0.2440944881889764
        },
        {
          "duration": 0.2857144999999832,
          "durationTicks": 240,
          "midi": 32,
          "name": "G#1",
          "ticks": 131280,
          "time": 156.2858315,
          "velocity": 0.3858267716535433
        },
        {
          "duration": 0.2857144999999832,
          "durationTicks": 240,
          "midi": 44,
          "name": "G#2",
          "ticks": 131280,
          "time": 156.2858315,
          "velocity": 0.5196850393700787
        },
        {
          "duration": 0.2857144999999832,
          "durationTicks": 240,
          "midi": 56,
          "name": "G#3",
          "ticks": 131280,
          "time": 156.2858315,
          "velocity": 0.5196850393700787
        },
        {
          "duration": 0.2857144999999832,
          "durationTicks": 240,
          "midi": 63,
          "name": "D#4",
          "ticks": 131280,
          "time": 156.2858315,
          "velocity": 0.2992125984251969
        },
        {
          "duration": 0.2857144999999832,
          "durationTicks": 240,
          "midi": 71,
          "name": "B4",
          "ticks": 131280,
          "time": 156.2858315,
          "velocity": 0.23622047244094488
        },
        {
          "duration": 0.14285725000002003,
          "durationTicks": 120,
          "midi": 56,
          "name": "G#3",
          "ticks": 131520,
          "time": 156.57154599999998,
          "velocity": 0.3779527559055118
        },
        {
          "duration": 0.14285725000002003,
          "durationTicks": 120,
          "midi": 68,
          "name": "G#4",
          "ticks": 131520,
          "time": 156.57154599999998,
          "velocity": 0.3779527559055118
        },
        {
          "duration": 0.14285725000002003,
          "durationTicks": 120,
          "midi": 71,
          "name": "B4",
          "ticks": 131520,
          "time": 156.57154599999998,
          "velocity": 0.2283464566929134
        },
        {
          "duration": 0.1666667916666711,
          "durationTicks": 140,
          "midi": 44,
          "name": "G#2",
          "ticks": 131640,
          "time": 156.71440325,
          "velocity": 0.5118110236220472
        },
        {
          "duration": 0.1666667916666711,
          "durationTicks": 140,
          "midi": 63,
          "name": "D#4",
          "ticks": 131640,
          "time": 156.71440325,
          "velocity": 0.2283464566929134
        },
        {
          "duration": 0.1428572499999916,
          "durationTicks": 120,
          "midi": 39,
          "name": "D#2",
          "ticks": 131760,
          "time": 156.8572605,
          "velocity": 0.4015748031496063
        },
        {
          "duration": 0.1428572499999916,
          "durationTicks": 120,
          "midi": 54,
          "name": "F#3",
          "ticks": 131760,
          "time": 156.8572605,
          "velocity": 0.23622047244094488
        },
        {
          "duration": 0.1666667916666711,
          "durationTicks": 140,
          "midi": 44,
          "name": "G#2",
          "ticks": 131880,
          "time": 157.00011775,
          "velocity": 0.2992125984251969
        },
        {
          "duration": 0.1666667916666711,
          "durationTicks": 140,
          "midi": 70,
          "name": "A#4",
          "ticks": 131880,
          "time": 157.00011775,
          "velocity": 0.3700787401574803
        },
        {
          "duration": 0.1666667916666995,
          "durationTicks": 140,
          "midi": 32,
          "name": "G#1",
          "ticks": 132000,
          "time": 157.14297499999998,
          "velocity": 0.4566929133858268
        },
        {
          "duration": 0.14285725000002003,
          "durationTicks": 120,
          "midi": 58,
          "name": "A#3",
          "ticks": 132000,
          "time": 157.14297499999998,
          "velocity": 0.3700787401574803
        },
        {
          "duration": 0.14285725000002003,
          "durationTicks": 120,
          "midi": 63,
          "name": "D#4",
          "ticks": 132000,
          "time": 157.14297499999998,
          "velocity": 0.25984251968503935
        },
        {
          "duration": 0.1428572499999916,
          "durationTicks": 120,
          "midi": 59,
          "name": "B3",
          "ticks": 132120,
          "time": 157.28583225,
          "velocity": 0.3228346456692913
        },
        {
          "duration": 0.11904770833331213,
          "durationTicks": 100,
          "midi": 32,
          "name": "G#1",
          "ticks": 132240,
          "time": 157.4286895,
          "velocity": 0.4409448818897638
        },
        {
          "duration": 0.11904770833331213,
          "durationTicks": 100,
          "midi": 40,
          "name": "E2",
          "ticks": 132240,
          "time": 157.4286895,
          "velocity": 0.44881889763779526
        },
        {
          "duration": 0.11904770833331213,
          "durationTicks": 100,
          "midi": 44,
          "name": "G#2",
          "ticks": 132240,
          "time": 157.4286895,
          "velocity": 0.4409448818897638
        },
        {
          "duration": 0.0952381666666895,
          "durationTicks": 80,
          "midi": 63,
          "name": "D#4",
          "ticks": 132360,
          "time": 157.57154674999998,
          "velocity": 0.2992125984251969
        },
        {
          "duration": 0.35714312500002166,
          "durationTicks": 300,
          "midi": 67,
          "name": "G4",
          "ticks": 132360,
          "time": 157.57154674999998,
          "velocity": 0.3779527559055118
        },
        {
          "duration": 0.26190495833330374,
          "durationTicks": 220,
          "midi": 33,
          "name": "A1",
          "ticks": 132480,
          "time": 157.714404,
          "velocity": 0.4881889763779528
        },
        {
          "duration": 0.26190495833330374,
          "durationTicks": 220,
          "midi": 45,
          "name": "A2",
          "ticks": 132480,
          "time": 157.714404,
          "velocity": 0.4881889763779528
        },
        {
          "duration": 0.3095240416666627,
          "durationTicks": 260,
          "midi": 56,
          "name": "G#3",
          "ticks": 132480,
          "time": 157.714404,
          "velocity": 0.1968503937007874
        },
        {
          "duration": 0.3095240416666627,
          "durationTicks": 260,
          "midi": 60,
          "name": "C4",
          "ticks": 132480,
          "time": 157.714404,
          "velocity": 0.2440944881889764
        },
        {
          "duration": 0.26190495833330374,
          "durationTicks": 220,
          "midi": 64,
          "name": "E4",
          "ticks": 132480,
          "time": 157.714404,
          "velocity": 0.23622047244094488
        },
        {
          "duration": 0.3095240416666627,
          "durationTicks": 260,
          "midi": 76,
          "name": "E5",
          "ticks": 132480,
          "time": 157.714404,
          "velocity": 0.2047244094488189
        },
        {
          "duration": 0.1666667916666711,
          "durationTicks": 140,
          "midi": 40,
          "name": "E2",
          "ticks": 132720,
          "time": 158.00011849999999,
          "velocity": 0.2677165354330709
        },
        {
          "duration": 0.1666667916666711,
          "durationTicks": 140,
          "midi": 56,
          "name": "G#3",
          "ticks": 132720,
          "time": 158.00011849999999,
          "velocity": 0.5590551181102362
        },
        {
          "duration": 0.14285725000002003,
          "durationTicks": 120,
          "midi": 40,
          "name": "E2",
          "ticks": 132840,
          "time": 158.14297574999998,
          "velocity": 0.48031496062992124
        },
        {
          "duration": 0.14285725000002003,
          "durationTicks": 120,
          "midi": 60,
          "name": "C4",
          "ticks": 132840,
          "time": 158.14297574999998,
          "velocity": 0.23622047244094488
        },
        {
          "duration": 0.14285725000002003,
          "durationTicks": 120,
          "midi": 64,
          "name": "E4",
          "ticks": 132840,
          "time": 158.14297574999998,
          "velocity": 0.41732283464566927
        },
        {
          "duration": 0.1428572499999916,
          "durationTicks": 120,
          "midi": 66,
          "name": "F#4",
          "ticks": 132960,
          "time": 158.285833,
          "velocity": 0.4015748031496063
        },
        {
          "duration": 0.1666667916666711,
          "durationTicks": 140,
          "midi": 60,
          "name": "C4",
          "ticks": 133080,
          "time": 158.42869025,
          "velocity": 0.2204724409448819
        },
        {
          "duration": 0.1666667916666711,
          "durationTicks": 140,
          "midi": 64,
          "name": "E4",
          "ticks": 133080,
          "time": 158.42869025,
          "velocity": 0.48031496062992124
        },
        {
          "duration": 0.14285725000002003,
          "durationTicks": 120,
          "midi": 47,
          "name": "B2",
          "ticks": 133200,
          "time": 158.57154749999998,
          "velocity": 0.2755905511811024
        },
        {
          "duration": 0.14285725000002003,
          "durationTicks": 120,
          "midi": 54,
          "name": "F#3",
          "ticks": 133200,
          "time": 158.57154749999998,
          "velocity": 0.2125984251968504
        },
        {
          "duration": 0.14285725000002003,
          "durationTicks": 120,
          "midi": 60,
          "name": "C4",
          "ticks": 133200,
          "time": 158.57154749999998,
          "velocity": 0.25984251968503935
        },
        {
          "duration": 0.1666667916666711,
          "durationTicks": 140,
          "midi": 64,
          "name": "E4",
          "ticks": 133320,
          "time": 158.71440475,
          "velocity": 0.5984251968503937
        },
        {
          "duration": 0.28571450000001164,
          "durationTicks": 240,
          "midi": 45,
          "name": "A2",
          "ticks": 133440,
          "time": 158.857262,
          "velocity": 0.33858267716535434
        },
        {
          "duration": 0.28571450000001164,
          "durationTicks": 240,
          "midi": 60,
          "name": "C4",
          "ticks": 133440,
          "time": 158.857262,
          "velocity": 0.2992125984251969
        },
        {
          "duration": 0.28571450000001164,
          "durationTicks": 240,
          "midi": 64,
          "name": "E4",
          "ticks": 133440,
          "time": 158.857262,
          "velocity": 0.5590551181102362
        },
        {
          "duration": 0.28571450000001164,
          "durationTicks": 240,
          "midi": 66,
          "name": "F#4",
          "ticks": 133440,
          "time": 158.857262,
          "velocity": 0.33858267716535434
        },
        {
          "duration": 0.19047633333332215,
          "durationTicks": 160,
          "midi": 45,
          "name": "A2",
          "ticks": 133680,
          "time": 159.1429765,
          "velocity": 0.4409448818897638
        },
        {
          "duration": 0.1428572499999916,
          "durationTicks": 120,
          "midi": 64,
          "name": "E4",
          "ticks": 133680,
          "time": 159.1429765,
          "velocity": 0.4015748031496063
        },
        {
          "duration": 0.11904770833331213,
          "durationTicks": 100,
          "midi": 40,
          "name": "E2",
          "ticks": 133800,
          "time": 159.28583375,
          "velocity": 0.4409448818897638
        },
        {
          "duration": 0.1428572499999916,
          "durationTicks": 120,
          "midi": 54,
          "name": "F#3",
          "ticks": 133920,
          "time": 159.428691,
          "velocity": 0.28346456692913385
        },
        {
          "duration": 0.1428572499999916,
          "durationTicks": 120,
          "midi": 64,
          "name": "E4",
          "ticks": 133920,
          "time": 159.428691,
          "velocity": 0.49606299212598426
        },
        {
          "duration": 0.14285725000002003,
          "durationTicks": 120,
          "midi": 40,
          "name": "E2",
          "ticks": 134040,
          "time": 159.57154824999998,
          "velocity": 0.31496062992125984
        },
        {
          "duration": 0.35714312500002166,
          "durationTicks": 300,
          "midi": 63,
          "name": "D#4",
          "ticks": 134040,
          "time": 159.57154824999998,
          "velocity": 0.3464566929133858
        },
        {
          "duration": 0.26190495833330374,
          "durationTicks": 220,
          "midi": 45,
          "name": "A2",
          "ticks": 134160,
          "time": 159.7144055,
          "velocity": 0.44881889763779526
        },
        {
          "duration": 0.26190495833333216,
          "durationTicks": 220,
          "midi": 47,
          "name": "B2",
          "ticks": 134400,
          "time": 160.00011999999998,
          "velocity": 0.4409448818897638
        },
        {
          "duration": 0.26190495833333216,
          "durationTicks": 220,
          "midi": 56,
          "name": "G#3",
          "ticks": 134400,
          "time": 160.00011999999998,
          "velocity": 0.2440944881889764
        },
        {
          "duration": 0.26190495833333216,
          "durationTicks": 220,
          "midi": 59,
          "name": "B3",
          "ticks": 134400,
          "time": 160.00011999999998,
          "velocity": 0.4409448818897638
        },
        {
          "duration": 0.26190495833333216,
          "durationTicks": 220,
          "midi": 64,
          "name": "E4",
          "ticks": 134400,
          "time": 160.00011999999998,
          "velocity": 0.4015748031496063
        },
        {
          "duration": 0.1666667916666711,
          "durationTicks": 140,
          "midi": 47,
          "name": "B2",
          "ticks": 134640,
          "time": 160.2858345,
          "velocity": 0.3779527559055118
        },
        {
          "duration": 0.11904770833331213,
          "durationTicks": 100,
          "midi": 63,
          "name": "D#4",
          "ticks": 134640,
          "time": 160.2858345,
          "velocity": 0.44881889763779526
        },
        {
          "duration": 0.1428572499999916,
          "durationTicks": 120,
          "midi": 32,
          "name": "G#1",
          "ticks": 134760,
          "time": 160.42869174999998,
          "velocity": 0.5196850393700787
        },
        {
          "duration": 0.1428572499999916,
          "durationTicks": 120,
          "midi": 44,
          "name": "G#2",
          "ticks": 134760,
          "time": 160.42869174999998,
          "velocity": 0.5196850393700787
        },
        {
          "duration": 0.1428572499999916,
          "durationTicks": 120,
          "midi": 56,
          "name": "G#3",
          "ticks": 134760,
          "time": 160.42869174999998,
          "velocity": 0.3858267716535433
        },
        {
          "duration": 0.1428572499999916,
          "durationTicks": 120,
          "midi": 68,
          "name": "G#4",
          "ticks": 134760,
          "time": 160.42869174999998,
          "velocity": 0.2992125984251969
        },
        {
          "duration": 0.11904770833334055,
          "durationTicks": 100,
          "midi": 56,
          "name": "G#3",
          "ticks": 134880,
          "time": 160.57154899999998,
          "velocity": 0.4409448818897638
        },
        {
          "duration": 0.1666667916666995,
          "durationTicks": 140,
          "midi": 63,
          "name": "D#4",
          "ticks": 134880,
          "time": 160.57154899999998,
          "velocity": 0.5905511811023622
        },
        {
          "duration": 0.1428572499999916,
          "durationTicks": 120,
          "midi": 59,
          "name": "B3",
          "ticks": 135000,
          "time": 160.71440625,
          "velocity": 0.4094488188976378
        },
        {
          "duration": 0.1666667916666711,
          "durationTicks": 140,
          "midi": 45,
          "name": "A2",
          "ticks": 135120,
          "time": 160.8572635,
          "velocity": 0.29133858267716534
        },
        {
          "duration": 0.1666667916666711,
          "durationTicks": 140,
          "midi": 47,
          "name": "B2",
          "ticks": 135120,
          "time": 160.8572635,
          "velocity": 0.4094488188976378
        },
        {
          "duration": 0.1666667916666711,
          "durationTicks": 140,
          "midi": 68,
          "name": "G#4",
          "ticks": 135120,
          "time": 160.8572635,
          "velocity": 0.2992125984251969
        },
        {
          "duration": 0.1666667916666995,
          "durationTicks": 140,
          "midi": 59,
          "name": "B3",
          "ticks": 135240,
          "time": 161.00012074999998,
          "velocity": 0.3779527559055118
        },
        {
          "duration": 0.1666667916666995,
          "durationTicks": 140,
          "midi": 61,
          "name": "C#4",
          "ticks": 135240,
          "time": 161.00012074999998,
          "velocity": 0.4566929133858268
        },
        {
          "duration": 0.2857144999999832,
          "durationTicks": 240,
          "midi": 47,
          "name": "B2",
          "ticks": 135360,
          "time": 161.142978,
          "velocity": 0.3779527559055118
        },
        {
          "duration": 0.2857144999999832,
          "durationTicks": 240,
          "midi": 49,
          "name": "C#3",
          "ticks": 135360,
          "time": 161.142978,
          "velocity": 0.4251968503937008
        },
        {
          "duration": 0.2857144999999832,
          "durationTicks": 240,
          "midi": 54,
          "name": "F#3",
          "ticks": 135360,
          "time": 161.142978,
          "velocity": 0.25984251968503935
        },
        {
          "duration": 0.2857144999999832,
          "durationTicks": 240,
          "midi": 59,
          "name": "B3",
          "ticks": 135360,
          "time": 161.142978,
          "velocity": 0.33858267716535434
        },
        {
          "duration": 0.2857144999999832,
          "durationTicks": 240,
          "midi": 63,
          "name": "D#4",
          "ticks": 135360,
          "time": 161.142978,
          "velocity": 0.23622047244094488
        },
        {
          "duration": 0.2857144999999832,
          "durationTicks": 240,
          "midi": 85,
          "name": "C#6",
          "ticks": 135360,
          "time": 161.142978,
          "velocity": 0.5511811023622047
        },
        {
          "duration": 0.14285725000002003,
          "durationTicks": 120,
          "midi": 47,
          "name": "B2",
          "ticks": 135600,
          "time": 161.42869249999998,
          "velocity": 0.4251968503937008
        },
        {
          "duration": 0.14285725000002003,
          "durationTicks": 120,
          "midi": 54,
          "name": "F#3",
          "ticks": 135600,
          "time": 161.42869249999998,
          "velocity": 0.29133858267716534
        },
        {
          "duration": 0.14285725000002003,
          "durationTicks": 120,
          "midi": 59,
          "name": "B3",
          "ticks": 135600,
          "time": 161.42869249999998,
          "velocity": 0.4251968503937008
        },
        {
          "duration": 0.1666667916666711,
          "durationTicks": 140,
          "midi": 44,
          "name": "G#2",
          "ticks": 135720,
          "time": 161.57154975,
          "velocity": 0.3858267716535433
        },
        {
          "duration": 0.11904770833331213,
          "durationTicks": 100,
          "midi": 49,
          "name": "C#3",
          "ticks": 135720,
          "time": 161.57154975,
          "velocity": 0.4645669291338583
        },
        {
          "duration": 0.11904770833331213,
          "durationTicks": 100,
          "midi": 68,
          "name": "G#4",
          "ticks": 135720,
          "time": 161.57154975,
          "velocity": 0.25196850393700787
        },
        {
          "duration": 0.1428572499999916,
          "durationTicks": 120,
          "midi": 43,
          "name": "G2",
          "ticks": 135840,
          "time": 161.714407,
          "velocity": 0.48031496062992124
        },
        {
          "duration": 0.1428572499999916,
          "durationTicks": 120,
          "midi": 67,
          "name": "G4",
          "ticks": 135840,
          "time": 161.714407,
          "velocity": 0.3228346456692913
        },
        {
          "duration": 0.1428572499999916,
          "durationTicks": 120,
          "midi": 79,
          "name": "G5",
          "ticks": 135840,
          "time": 161.714407,
          "velocity": 0.3228346456692913
        },
        {
          "duration": 0.11904770833334055,
          "durationTicks": 100,
          "midi": 54,
          "name": "F#3",
          "ticks": 135960,
          "time": 161.85726425,
          "velocity": 0.2677165354330709
        },
        {
          "duration": 0.11904770833334055,
          "durationTicks": 100,
          "midi": 63,
          "name": "D#4",
          "ticks": 135960,
          "time": 161.85726425,
          "velocity": 0.30708661417322836
        },
        {
          "duration": 0.14285725000002003,
          "durationTicks": 120,
          "midi": 44,
          "name": "G#2",
          "ticks": 136080,
          "time": 162.00012149999998,
          "velocity": 0.33070866141732286
        },
        {
          "duration": 0.14285725000002003,
          "durationTicks": 120,
          "midi": 68,
          "name": "G#4",
          "ticks": 136080,
          "time": 162.00012149999998,
          "velocity": 0.31496062992125984
        },
        {
          "duration": 0.1666667916666711,
          "durationTicks": 140,
          "midi": 43,
          "name": "G2",
          "ticks": 136200,
          "time": 162.14297875,
          "velocity": 0.41732283464566927
        },
        {
          "duration": 0.1666667916666711,
          "durationTicks": 140,
          "midi": 67,
          "name": "G4",
          "ticks": 136200,
          "time": 162.14297875,
          "velocity": 0.31496062992125984
        },
        {
          "duration": 0.1666667916666711,
          "durationTicks": 140,
          "midi": 71,
          "name": "B4",
          "ticks": 136200,
          "time": 162.14297875,
          "velocity": 0.23622047244094488
        },
        {
          "duration": 0.42857175000000325,
          "durationTicks": 360,
          "midi": 42,
          "name": "F#2",
          "ticks": 136320,
          "time": 162.285836,
          "velocity": 0.3700787401574803
        },
        {
          "duration": 0.42857175000000325,
          "durationTicks": 360,
          "midi": 56,
          "name": "G#3",
          "ticks": 136320,
          "time": 162.285836,
          "velocity": 0.25984251968503935
        },
        {
          "duration": 0.42857175000000325,
          "durationTicks": 360,
          "midi": 57,
          "name": "A3",
          "ticks": 136320,
          "time": 162.285836,
          "velocity": 0.49606299212598426
        },
        {
          "duration": 0.42857175000000325,
          "durationTicks": 360,
          "midi": 61,
          "name": "C#4",
          "ticks": 136320,
          "time": 162.285836,
          "velocity": 0.28346456692913385
        },
        {
          "duration": 0.42857175000000325,
          "durationTicks": 360,
          "midi": 64,
          "name": "E4",
          "ticks": 136320,
          "time": 162.285836,
          "velocity": 0.2677165354330709
        },
        {
          "duration": 0.4523812916666827,
          "durationTicks": 380,
          "midi": 69,
          "name": "A4",
          "ticks": 136320,
          "time": 162.285836,
          "velocity": 0.4881889763779528
        },
        {
          "duration": 0.28571450000001164,
          "durationTicks": 240,
          "midi": 37,
          "name": "C#2",
          "ticks": 136680,
          "time": 162.71440775,
          "velocity": 0.41732283464566927
        },
        {
          "duration": 0.1428572499999916,
          "durationTicks": 120,
          "midi": 32,
          "name": "G#1",
          "ticks": 136920,
          "time": 163.00012225,
          "velocity": 0.33070866141732286
        },
        {
          "duration": 0.1428572499999916,
          "durationTicks": 120,
          "midi": 56,
          "name": "G#3",
          "ticks": 136920,
          "time": 163.00012225,
          "velocity": 0.2440944881889764
        },
        {
          "duration": 0.09523816666666107,
          "durationTicks": 80,
          "midi": 64,
          "name": "E4",
          "ticks": 136920,
          "time": 163.00012225,
          "velocity": 0.29133858267716534
        },
        {
          "duration": 0.09523816666666107,
          "durationTicks": 80,
          "midi": 88,
          "name": "E6",
          "ticks": 136920,
          "time": 163.00012225,
          "velocity": 0.3464566929133858
        },
        {
          "duration": 0.1428572499999916,
          "durationTicks": 120,
          "midi": 30,
          "name": "F#1",
          "ticks": 137040,
          "time": 163.1429795,
          "velocity": 0.3464566929133858
        },
        {
          "duration": 0.1428572499999916,
          "durationTicks": 120,
          "midi": 69,
          "name": "A4",
          "ticks": 137040,
          "time": 163.1429795,
          "velocity": 0.2125984251968504
        },
        {
          "duration": 0.1428572499999916,
          "durationTicks": 120,
          "midi": 56,
          "name": "G#3",
          "ticks": 137160,
          "time": 163.28583675,
          "velocity": 0.2440944881889764
        },
        {
          "duration": 0.1428572499999916,
          "durationTicks": 120,
          "midi": 57,
          "name": "A3",
          "ticks": 137160,
          "time": 163.28583675,
          "velocity": 0.29133858267716534
        },
        {
          "duration": 0.1428572499999916,
          "durationTicks": 120,
          "midi": 61,
          "name": "C#4",
          "ticks": 137160,
          "time": 163.28583675,
          "velocity": 0.30708661417322836
        },
        {
          "duration": 0.1428572499999916,
          "durationTicks": 120,
          "midi": 64,
          "name": "E4",
          "ticks": 137160,
          "time": 163.28583675,
          "velocity": 0.30708661417322836
        },
        {
          "duration": 0.1428572499999916,
          "durationTicks": 120,
          "midi": 69,
          "name": "A4",
          "ticks": 137160,
          "time": 163.28583675,
          "velocity": 0.29133858267716534
        },
        {
          "duration": 0.1428572499999916,
          "durationTicks": 120,
          "midi": 85,
          "name": "C#6",
          "ticks": 137160,
          "time": 163.28583675,
          "velocity": 0.29133858267716534
        },
        {
          "duration": 0.14285725000002003,
          "durationTicks": 120,
          "midi": 42,
          "name": "F#2",
          "ticks": 137280,
          "time": 163.42869399999998,
          "velocity": 0.5118110236220472
        },
        {
          "duration": 0.14285725000002003,
          "durationTicks": 120,
          "midi": 68,
          "name": "G#4",
          "ticks": 137280,
          "time": 163.42869399999998,
          "velocity": 0.3700787401574803
        },
        {
          "duration": 0.14285725000002003,
          "durationTicks": 120,
          "midi": 83,
          "name": "B5",
          "ticks": 137280,
          "time": 163.42869399999998,
          "velocity": 0.3700787401574803
        },
        {
          "duration": 0.1666667916666711,
          "durationTicks": 140,
          "midi": 37,
          "name": "C#2",
          "ticks": 137400,
          "time": 163.57155125,
          "velocity": 0.3700787401574803
        },
        {
          "duration": 0.11904770833331213,
          "durationTicks": 100,
          "midi": 81,
          "name": "A5",
          "ticks": 137400,
          "time": 163.57155125,
          "velocity": 0.25196850393700787
        },
        {
          "duration": 0.1428572499999916,
          "durationTicks": 120,
          "midi": 40,
          "name": "E2",
          "ticks": 137520,
          "time": 163.7144085,
          "velocity": 0.4645669291338583
        },
        {
          "duration": 0.1428572499999916,
          "durationTicks": 120,
          "midi": 80,
          "name": "G#5",
          "ticks": 137520,
          "time": 163.7144085,
          "velocity": 0.2992125984251969
        },
        {
          "duration": 0.3095240416666911,
          "durationTicks": 260,
          "midi": 41,
          "name": "F2",
          "ticks": 137640,
          "time": 163.85726574999998,
          "velocity": 0.33070866141732286
        },
        {
          "duration": 0.26190495833333216,
          "durationTicks": 220,
          "midi": 57,
          "name": "A3",
          "ticks": 137640,
          "time": 163.85726574999998,
          "velocity": 0.31496062992125984
        },
        {
          "duration": 0.1428572499999916,
          "durationTicks": 120,
          "midi": 37,
          "name": "C#2",
          "ticks": 137880,
          "time": 164.14298025,
          "velocity": 0.3779527559055118
        },
        {
          "duration": 0.11904770833331213,
          "durationTicks": 100,
          "midi": 61,
          "name": "C#4",
          "ticks": 137880,
          "time": 164.14298025,
          "velocity": 0.3779527559055118
        },
        {
          "duration": 0.11904770833334055,
          "durationTicks": 100,
          "midi": 30,
          "name": "F#1",
          "ticks": 138000,
          "time": 164.28583749999999,
          "velocity": 0.41732283464566927
        },
        {
          "duration": 0.11904770833334055,
          "durationTicks": 100,
          "midi": 40,
          "name": "E2",
          "ticks": 138000,
          "time": 164.28583749999999,
          "velocity": 0.4094488188976378
        },
        {
          "duration": 0.11904770833334055,
          "durationTicks": 100,
          "midi": 69,
          "name": "A4",
          "ticks": 138000,
          "time": 164.28583749999999,
          "velocity": 0.2440944881889764
        },
        {
          "duration": 0.14285725000002003,
          "durationTicks": 120,
          "midi": 31,
          "name": "G1",
          "ticks": 138120,
          "time": 164.42869474999998,
          "velocity": 0.3464566929133858
        },
        {
          "duration": 0.3095240416666627,
          "durationTicks": 260,
          "midi": 32,
          "name": "G#1",
          "ticks": 138240,
          "time": 164.571552,
          "velocity": 0.48031496062992124
        },
        {
          "duration": 0.3095240416666627,
          "durationTicks": 260,
          "midi": 44,
          "name": "G#2",
          "ticks": 138240,
          "time": 164.571552,
          "velocity": 0.33070866141732286
        },
        {
          "duration": 0.26190495833330374,
          "durationTicks": 220,
          "midi": 54,
          "name": "F#3",
          "ticks": 138240,
          "time": 164.571552,
          "velocity": 0.2283464566929134
        },
        {
          "duration": 0.26190495833330374,
          "durationTicks": 220,
          "midi": 58,
          "name": "A#3",
          "ticks": 138240,
          "time": 164.571552,
          "velocity": 0.25196850393700787
        },
        {
          "duration": 0.3095240416666627,
          "durationTicks": 260,
          "midi": 59,
          "name": "B3",
          "ticks": 138240,
          "time": 164.571552,
          "velocity": 0.4881889763779528
        },
        {
          "duration": 0.26190495833330374,
          "durationTicks": 220,
          "midi": 61,
          "name": "C#4",
          "ticks": 138240,
          "time": 164.571552,
          "velocity": 0.30708661417322836
        },
        {
          "duration": 0.21428587500000162,
          "durationTicks": 180,
          "midi": 61,
          "name": "C#4",
          "ticks": 138360,
          "time": 164.71440925,
          "velocity": 0.6692913385826772
        },
        {
          "duration": 0.11904770833334055,
          "durationTicks": 100,
          "midi": 54,
          "name": "F#3",
          "ticks": 138480,
          "time": 164.85726649999998,
          "velocity": 0.25984251968503935
        },
        {
          "duration": 0.11904770833334055,
          "durationTicks": 100,
          "midi": 66,
          "name": "F#4",
          "ticks": 138480,
          "time": 164.85726649999998,
          "velocity": 0.25984251968503935
        },
        {
          "duration": 0.2857144999999832,
          "durationTicks": 240,
          "midi": 39,
          "name": "D#2",
          "ticks": 138600,
          "time": 165.00012375,
          "velocity": 0.3779527559055118
        },
        {
          "duration": 0.14285725000002003,
          "durationTicks": 120,
          "midi": 59,
          "name": "B3",
          "ticks": 138840,
          "time": 165.28583824999998,
          "velocity": 0.2755905511811024
        },
        {
          "duration": 0.14285725000002003,
          "durationTicks": 120,
          "midi": 62,
          "name": "D4",
          "ticks": 138840,
          "time": 165.28583824999998,
          "velocity": 0.33858267716535434
        },
        {
          "duration": 0.3095240416666627,
          "durationTicks": 260,
          "midi": 44,
          "name": "G#2",
          "ticks": 138960,
          "time": 165.4286955,
          "velocity": 0.49606299212598426
        },
        {
          "duration": 0.3095240416666627,
          "durationTicks": 260,
          "midi": 54,
          "name": "F#3",
          "ticks": 138960,
          "time": 165.4286955,
          "velocity": 0.2755905511811024
        },
        {
          "duration": 0.3095240416666627,
          "durationTicks": 260,
          "midi": 63,
          "name": "D#4",
          "ticks": 138960,
          "time": 165.4286955,
          "velocity": 0.2755905511811024
        },
        {
          "duration": 0.3095240416666627,
          "durationTicks": 260,
          "midi": 66,
          "name": "F#4",
          "ticks": 138960,
          "time": 165.4286955,
          "velocity": 0.2755905511811024
        },
        {
          "duration": 0.1428572499999916,
          "durationTicks": 120,
          "midi": 44,
          "name": "G#2",
          "ticks": 139200,
          "time": 165.71441,
          "velocity": 0.36220472440944884
        },
        {
          "duration": 0.1428572499999916,
          "durationTicks": 120,
          "midi": 68,
          "name": "G#4",
          "ticks": 139200,
          "time": 165.71441,
          "velocity": 0.25984251968503935
        },
        {
          "duration": 0.11904770833334055,
          "durationTicks": 100,
          "midi": 54,
          "name": "F#3",
          "ticks": 139320,
          "time": 165.85726724999998,
          "velocity": 0.2677165354330709
        },
        {
          "duration": 0.11904770833334055,
          "durationTicks": 100,
          "midi": 63,
          "name": "D#4",
          "ticks": 139320,
          "time": 165.85726724999998,
          "velocity": 0.28346456692913385
        },
        {
          "duration": 0.11904770833334055,
          "durationTicks": 100,
          "midi": 66,
          "name": "F#4",
          "ticks": 139320,
          "time": 165.85726724999998,
          "velocity": 0.2677165354330709
        },
        {
          "duration": 0.11904770833334055,
          "durationTicks": 100,
          "midi": 70,
          "name": "A#4",
          "ticks": 139320,
          "time": 165.85726724999998,
          "velocity": 0.29133858267716534
        },
        {
          "duration": 0.1428572499999916,
          "durationTicks": 120,
          "midi": 39,
          "name": "D#2",
          "ticks": 139440,
          "time": 166.0001245,
          "velocity": 0.4015748031496063
        },
        {
          "duration": 0.1666667916666711,
          "durationTicks": 140,
          "midi": 58,
          "name": "A#3",
          "ticks": 139560,
          "time": 166.14298175,
          "velocity": 0.3700787401574803
        },
        {
          "duration": 0.14285725000002003,
          "durationTicks": 120,
          "midi": 32,
          "name": "G#1",
          "ticks": 139680,
          "time": 166.28583899999998,
          "velocity": 0.4881889763779528
        },
        {
          "duration": 0.14285725000002003,
          "durationTicks": 120,
          "midi": 44,
          "name": "G#2",
          "ticks": 139680,
          "time": 166.28583899999998,
          "velocity": 0.4881889763779528
        },
        {
          "duration": 0.14285725000002003,
          "durationTicks": 120,
          "midi": 54,
          "name": "F#3",
          "ticks": 139680,
          "time": 166.28583899999998,
          "velocity": 0.23622047244094488
        },
        {
          "duration": 0.14285725000002003,
          "durationTicks": 120,
          "midi": 63,
          "name": "D#4",
          "ticks": 139680,
          "time": 166.28583899999998,
          "velocity": 0.29133858267716534
        },
        {
          "duration": 0.14285725000002003,
          "durationTicks": 120,
          "midi": 70,
          "name": "A#4",
          "ticks": 139680,
          "time": 166.28583899999998,
          "velocity": 0.3700787401574803
        },
        {
          "duration": 0.1666667916666711,
          "durationTicks": 140,
          "midi": 59,
          "name": "B3",
          "ticks": 139800,
          "time": 166.42869625,
          "velocity": 0.2677165354330709
        },
        {
          "duration": 0.1428572499999916,
          "durationTicks": 120,
          "midi": 39,
          "name": "D#2",
          "ticks": 139920,
          "time": 166.5715535,
          "velocity": 0.4409448818897638
        },
        {
          "duration": 0.1428572499999916,
          "durationTicks": 120,
          "midi": 40,
          "name": "E2",
          "ticks": 139920,
          "time": 166.5715535,
          "velocity": 0.3779527559055118
        },
        {
          "duration": 0.1666667916666711,
          "durationTicks": 140,
          "midi": 44,
          "name": "G#2",
          "ticks": 140040,
          "time": 166.71441074999998,
          "velocity": 0.33070866141732286
        },
        {
          "duration": 0.1666667916666711,
          "durationTicks": 140,
          "midi": 63,
          "name": "D#4",
          "ticks": 140040,
          "time": 166.71441074999998,
          "velocity": 0.2204724409448819
        },
        {
          "duration": 0.1666667916666711,
          "durationTicks": 140,
          "midi": 68,
          "name": "G#4",
          "ticks": 140040,
          "time": 166.71441074999998,
          "velocity": 0.5984251968503937
        },
        {
          "duration": 0.28571450000001164,
          "durationTicks": 240,
          "midi": 33,
          "name": "A1",
          "ticks": 140160,
          "time": 166.85726799999998,
          "velocity": 0.41732283464566927
        },
        {
          "duration": 0.28571450000001164,
          "durationTicks": 240,
          "midi": 40,
          "name": "E2",
          "ticks": 140160,
          "time": 166.85726799999998,
          "velocity": 0.36220472440944884
        },
        {
          "duration": 0.28571450000001164,
          "durationTicks": 240,
          "midi": 45,
          "name": "A2",
          "ticks": 140160,
          "time": 166.85726799999998,
          "velocity": 0.3858267716535433
        },
        {
          "duration": 0.28571450000001164,
          "durationTicks": 240,
          "midi": 57,
          "name": "A3",
          "ticks": 140160,
          "time": 166.85726799999998,
          "velocity": 0.30708661417322836
        },
        {
          "duration": 0.28571450000001164,
          "durationTicks": 240,
          "midi": 60,
          "name": "C4",
          "ticks": 140160,
          "time": 166.85726799999998,
          "velocity": 0.2283464566929134
        },
        {
          "duration": 0.28571450000001164,
          "durationTicks": 240,
          "midi": 64,
          "name": "E4",
          "ticks": 140160,
          "time": 166.85726799999998,
          "velocity": 0.4015748031496063
        },
        {
          "duration": 0.28571450000001164,
          "durationTicks": 240,
          "midi": 71,
          "name": "B4",
          "ticks": 140160,
          "time": 166.85726799999998,
          "velocity": 0.31496062992125984
        },
        {
          "duration": 0.28571450000001164,
          "durationTicks": 240,
          "midi": 74,
          "name": "D5",
          "ticks": 140160,
          "time": 166.85726799999998,
          "velocity": 0.31496062992125984
        },
        {
          "duration": 0.21428587500000162,
          "durationTicks": 180,
          "midi": 64,
          "name": "E4",
          "ticks": 140400,
          "time": 167.1429825,
          "velocity": 0.49606299212598426
        },
        {
          "duration": 0.14285725000002003,
          "durationTicks": 120,
          "midi": 40,
          "name": "E2",
          "ticks": 140520,
          "time": 167.28583974999998,
          "velocity": 0.41732283464566927
        },
        {
          "duration": 0.14285725000002003,
          "durationTicks": 120,
          "midi": 45,
          "name": "A2",
          "ticks": 140520,
          "time": 167.28583974999998,
          "velocity": 0.36220472440944884
        },
        {
          "duration": 0.14285725000002003,
          "durationTicks": 120,
          "midi": 57,
          "name": "A3",
          "ticks": 140520,
          "time": 167.28583974999998,
          "velocity": 0.36220472440944884
        },
        {
          "duration": 0.14285725000002003,
          "durationTicks": 120,
          "midi": 60,
          "name": "C4",
          "ticks": 140520,
          "time": 167.28583974999998,
          "velocity": 0.29133858267716534
        },
        {
          "duration": 0.14285725000002003,
          "durationTicks": 120,
          "midi": 64,
          "name": "E4",
          "ticks": 140520,
          "time": 167.28583974999998,
          "velocity": 0.3858267716535433
        },
        {
          "duration": 0.11904770833331213,
          "durationTicks": 100,
          "midi": 64,
          "name": "E4",
          "ticks": 140640,
          "time": 167.428697,
          "velocity": 0.3779527559055118
        },
        {
          "duration": 0.1428572499999916,
          "durationTicks": 120,
          "midi": 40,
          "name": "E2",
          "ticks": 140760,
          "time": 167.57155425,
          "velocity": 0.2755905511811024
        },
        {
          "duration": 0.19047633333332215,
          "durationTicks": 160,
          "midi": 60,
          "name": "C4",
          "ticks": 140760,
          "time": 167.57155425,
          "velocity": 0.25984251968503935
        },
        {
          "duration": 0.1428572499999916,
          "durationTicks": 120,
          "midi": 64,
          "name": "E4",
          "ticks": 140760,
          "time": 167.57155425,
          "velocity": 0.3858267716535433
        },
        {
          "duration": 0.19047633333332215,
          "durationTicks": 160,
          "midi": 66,
          "name": "F#4",
          "ticks": 140760,
          "time": 167.57155425,
          "velocity": 0.4409448818897638
        },
        {
          "duration": 0.1666667916666711,
          "durationTicks": 140,
          "midi": 45,
          "name": "A2",
          "ticks": 140880,
          "time": 167.71441149999998,
          "velocity": 0.3858267716535433
        },
        {
          "duration": 0.1666667916666711,
          "durationTicks": 140,
          "midi": 57,
          "name": "A3",
          "ticks": 140880,
          "time": 167.71441149999998,
          "velocity": 0.30708661417322836
        },
        {
          "duration": 0.1666667916666711,
          "durationTicks": 140,
          "midi": 60,
          "name": "C4",
          "ticks": 140880,
          "time": 167.71441149999998,
          "velocity": 0.2125984251968504
        },
        {
          "duration": 0.1428572499999916,
          "durationTicks": 120,
          "midi": 60,
          "name": "C4",
          "ticks": 141000,
          "time": 167.85726875,
          "velocity": 0.2677165354330709
        },
        {
          "duration": 0.1428572499999916,
          "durationTicks": 120,
          "midi": 64,
          "name": "E4",
          "ticks": 141000,
          "time": 167.85726875,
          "velocity": 0.5039370078740157
        },
        {
          "duration": 0.1428572499999916,
          "durationTicks": 120,
          "midi": 45,
          "name": "A2",
          "ticks": 141120,
          "time": 168.000126,
          "velocity": 0.44881889763779526
        },
        {
          "duration": 0.1428572499999916,
          "durationTicks": 120,
          "midi": 57,
          "name": "A3",
          "ticks": 141120,
          "time": 168.000126,
          "velocity": 0.44881889763779526
        },
        {
          "duration": 0.1428572499999916,
          "durationTicks": 120,
          "midi": 64,
          "name": "E4",
          "ticks": 141120,
          "time": 168.000126,
          "velocity": 0.5039370078740157
        },
        {
          "duration": 0.1428572499999916,
          "durationTicks": 120,
          "midi": 66,
          "name": "F#4",
          "ticks": 141120,
          "time": 168.000126,
          "velocity": 0.2283464566929134
        },
        {
          "duration": 0.11904770833331213,
          "durationTicks": 100,
          "midi": 57,
          "name": "A3",
          "ticks": 141240,
          "time": 168.14298325,
          "velocity": 0.5511811023622047
        },
        {
          "duration": 0.11904770833331213,
          "durationTicks": 100,
          "midi": 60,
          "name": "C4",
          "ticks": 141240,
          "time": 168.14298325,
          "velocity": 0.2992125984251969
        },
        {
          "duration": 0.11904770833331213,
          "durationTicks": 100,
          "midi": 64,
          "name": "E4",
          "ticks": 141240,
          "time": 168.14298325,
          "velocity": 0.5118110236220472
        },
        {
          "duration": 0.11904770833331213,
          "durationTicks": 100,
          "midi": 66,
          "name": "F#4",
          "ticks": 141240,
          "time": 168.14298325,
          "velocity": 0.2677165354330709
        },
        {
          "duration": 0.11904770833331213,
          "durationTicks": 100,
          "midi": 69,
          "name": "A4",
          "ticks": 141240,
          "time": 168.14298325,
          "velocity": 0.29133858267716534
        },
        {
          "duration": 0.14285725000002003,
          "durationTicks": 120,
          "midi": 45,
          "name": "A2",
          "ticks": 141360,
          "time": 168.28584049999998,
          "velocity": 0.44881889763779526
        },
        {
          "duration": 0.14285725000002003,
          "durationTicks": 120,
          "midi": 54,
          "name": "F#3",
          "ticks": 141360,
          "time": 168.28584049999998,
          "velocity": 0.31496062992125984
        },
        {
          "duration": 0.11904770833331213,
          "durationTicks": 100,
          "midi": 40,
          "name": "E2",
          "ticks": 141480,
          "time": 168.42869775,
          "velocity": 0.48031496062992124
        },
        {
          "duration": 0.1666667916666711,
          "durationTicks": 140,
          "midi": 60,
          "name": "C4",
          "ticks": 141480,
          "time": 168.42869775,
          "velocity": 0.30708661417322836
        },
        {
          "duration": 0.28571450000001164,
          "durationTicks": 240,
          "midi": 45,
          "name": "A2",
          "ticks": 141600,
          "time": 168.571555,
          "velocity": 0.36220472440944884
        },
        {
          "duration": 0.28571450000001164,
          "durationTicks": 240,
          "midi": 64,
          "name": "E4",
          "ticks": 141600,
          "time": 168.571555,
          "velocity": 0.5511811023622047
        },
        {
          "duration": 0.28571450000001164,
          "durationTicks": 240,
          "midi": 66,
          "name": "F#4",
          "ticks": 141600,
          "time": 168.571555,
          "velocity": 0.33858267716535434
        },
        {
          "duration": 0.28571450000001164,
          "durationTicks": 240,
          "midi": 69,
          "name": "A4",
          "ticks": 141600,
          "time": 168.571555,
          "velocity": 0.2440944881889764
        },
        {
          "duration": 0.28571450000001164,
          "durationTicks": 240,
          "midi": 72,
          "name": "C5",
          "ticks": 141600,
          "time": 168.571555,
          "velocity": 0.3779527559055118
        },
        {
          "duration": 0.1428572499999916,
          "durationTicks": 120,
          "midi": 45,
          "name": "A2",
          "ticks": 141840,
          "time": 168.8572695,
          "velocity": 0.30708661417322836
        },
        {
          "duration": 0.1428572499999916,
          "durationTicks": 120,
          "midi": 64,
          "name": "E4",
          "ticks": 141840,
          "time": 168.8572695,
          "velocity": 0.47244094488188976
        },
        {
          "duration": 0.1428572499999916,
          "durationTicks": 120,
          "midi": 68,
          "name": "G#4",
          "ticks": 141840,
          "time": 168.8572695,
          "velocity": 0.2677165354330709
        },
        {
          "duration": 0.1666667916666711,
          "durationTicks": 140,
          "midi": 66,
          "name": "F#4",
          "ticks": 141960,
          "time": 169.00012675,
          "velocity": 0.30708661417322836
        },
        {
          "duration": 0.1666667916666711,
          "durationTicks": 140,
          "midi": 69,
          "name": "A4",
          "ticks": 141960,
          "time": 169.00012675,
          "velocity": 0.2992125984251969
        },
        {
          "duration": 0.28571450000001164,
          "durationTicks": 240,
          "midi": 47,
          "name": "B2",
          "ticks": 142080,
          "time": 169.14298399999998,
          "velocity": 0.4881889763779528
        },
        {
          "duration": 0.28571450000001164,
          "durationTicks": 240,
          "midi": 52,
          "name": "E3",
          "ticks": 142080,
          "time": 169.14298399999998,
          "velocity": 0.3700787401574803
        },
        {
          "duration": 0.28571450000001164,
          "durationTicks": 240,
          "midi": 56,
          "name": "G#3",
          "ticks": 142080,
          "time": 169.14298399999998,
          "velocity": 0.33858267716535434
        },
        {
          "duration": 0.28571450000001164,
          "durationTicks": 240,
          "midi": 59,
          "name": "B3",
          "ticks": 142080,
          "time": 169.14298399999998,
          "velocity": 0.4881889763779528
        },
        {
          "duration": 0.28571450000001164,
          "durationTicks": 240,
          "midi": 64,
          "name": "E4",
          "ticks": 142080,
          "time": 169.14298399999998,
          "velocity": 0.41732283464566927
        },
        {
          "duration": 0.28571450000001164,
          "durationTicks": 240,
          "midi": 68,
          "name": "G#4",
          "ticks": 142080,
          "time": 169.14298399999998,
          "velocity": 0.2677165354330709
        },
        {
          "duration": 0.28571450000001164,
          "durationTicks": 240,
          "midi": 71,
          "name": "B4",
          "ticks": 142080,
          "time": 169.14298399999998,
          "velocity": 0.3464566929133858
        },
        {
          "duration": 0.11904770833331213,
          "durationTicks": 100,
          "midi": 52,
          "name": "E3",
          "ticks": 142320,
          "time": 169.4286985,
          "velocity": 0.33070866141732286
        },
        {
          "duration": 0.11904770833331213,
          "durationTicks": 100,
          "midi": 68,
          "name": "G#4",
          "ticks": 142320,
          "time": 169.4286985,
          "velocity": 0.2677165354330709
        },
        {
          "duration": 0.1428572499999916,
          "durationTicks": 120,
          "midi": 44,
          "name": "G#2",
          "ticks": 142440,
          "time": 169.57155575,
          "velocity": 0.5275590551181102
        },
        {
          "duration": 0.1428572499999916,
          "durationTicks": 120,
          "midi": 59,
          "name": "B3",
          "ticks": 142440,
          "time": 169.57155575,
          "velocity": 0.23622047244094488
        },
        {
          "duration": 0.19047633333332215,
          "durationTicks": 160,
          "midi": 68,
          "name": "G#4",
          "ticks": 142440,
          "time": 169.57155575,
          "velocity": 0.33070866141732286
        },
        {
          "duration": 0.1428572499999916,
          "durationTicks": 120,
          "midi": 82,
          "name": "A#5",
          "ticks": 142440,
          "time": 169.57155575,
          "velocity": 0.28346456692913385
        },
        {
          "duration": 0.11904770833334055,
          "durationTicks": 100,
          "midi": 59,
          "name": "B3",
          "ticks": 142560,
          "time": 169.71441299999998,
          "velocity": 0.23622047244094488
        },
        {
          "duration": 0.1428572499999916,
          "durationTicks": 120,
          "midi": 45,
          "name": "A2",
          "ticks": 142680,
          "time": 169.85727025,
          "velocity": 0.2992125984251969
        },
        {
          "duration": 0.11904770833331213,
          "durationTicks": 100,
          "midi": 47,
          "name": "B2",
          "ticks": 142800,
          "time": 170.0001275,
          "velocity": 0.3858267716535433
        },
        {
          "duration": 0.1666667916666711,
          "durationTicks": 140,
          "midi": 59,
          "name": "B3",
          "ticks": 142800,
          "time": 170.0001275,
          "velocity": 0.4645669291338583
        },
        {
          "duration": 0.11904770833331213,
          "durationTicks": 100,
          "midi": 68,
          "name": "G#4",
          "ticks": 142800,
          "time": 170.0001275,
          "velocity": 0.2992125984251969
        },
        {
          "duration": 0.0952381666666895,
          "durationTicks": 80,
          "midi": 59,
          "name": "B3",
          "ticks": 142920,
          "time": 170.14298474999998,
          "velocity": 0.3858267716535433
        },
        {
          "duration": 0.14285725000002003,
          "durationTicks": 120,
          "midi": 71,
          "name": "B4",
          "ticks": 142920,
          "time": 170.14298474999998,
          "velocity": 0.25984251968503935
        },
        {
          "duration": 0.2857144999999832,
          "durationTicks": 240,
          "midi": 47,
          "name": "B2",
          "ticks": 143040,
          "time": 170.285842,
          "velocity": 0.36220472440944884
        },
        {
          "duration": 0.2857144999999832,
          "durationTicks": 240,
          "midi": 49,
          "name": "C#3",
          "ticks": 143040,
          "time": 170.285842,
          "velocity": 0.2992125984251969
        },
        {
          "duration": 0.2857144999999832,
          "durationTicks": 240,
          "midi": 59,
          "name": "B3",
          "ticks": 143040,
          "time": 170.285842,
          "velocity": 0.36220472440944884
        },
        {
          "duration": 0.2857144999999832,
          "durationTicks": 240,
          "midi": 63,
          "name": "D#4",
          "ticks": 143040,
          "time": 170.285842,
          "velocity": 0.2755905511811024
        },
        {
          "duration": 0.2857144999999832,
          "durationTicks": 240,
          "midi": 66,
          "name": "F#4",
          "ticks": 143040,
          "time": 170.285842,
          "velocity": 0.23622047244094488
        },
        {
          "duration": 0.2857144999999832,
          "durationTicks": 240,
          "midi": 73,
          "name": "C#5",
          "ticks": 143040,
          "time": 170.285842,
          "velocity": 0.5118110236220472
        },
        {
          "duration": 0.2857144999999832,
          "durationTicks": 240,
          "midi": 85,
          "name": "C#6",
          "ticks": 143040,
          "time": 170.285842,
          "velocity": 0.5118110236220472
        },
        {
          "duration": 0.1428572499999916,
          "durationTicks": 120,
          "midi": 47,
          "name": "B2",
          "ticks": 143280,
          "time": 170.57155649999999,
          "velocity": 0.36220472440944884
        },
        {
          "duration": 0.1428572499999916,
          "durationTicks": 120,
          "midi": 54,
          "name": "F#3",
          "ticks": 143280,
          "time": 170.57155649999999,
          "velocity": 0.2992125984251969
        },
        {
          "duration": 0.1428572499999916,
          "durationTicks": 120,
          "midi": 59,
          "name": "B3",
          "ticks": 143280,
          "time": 170.57155649999999,
          "velocity": 0.36220472440944884
        },
        {
          "duration": 0.1428572499999916,
          "durationTicks": 120,
          "midi": 63,
          "name": "D#4",
          "ticks": 143280,
          "time": 170.57155649999999,
          "velocity": 0.25984251968503935
        },
        {
          "duration": 0.1428572499999916,
          "durationTicks": 120,
          "midi": 66,
          "name": "F#4",
          "ticks": 143280,
          "time": 170.57155649999999,
          "velocity": 0.31496062992125984
        },
        {
          "duration": 0.1428572499999916,
          "durationTicks": 120,
          "midi": 71,
          "name": "B4",
          "ticks": 143280,
          "time": 170.57155649999999,
          "velocity": 0.3858267716535433
        },
        {
          "duration": 0.0952381666666895,
          "durationTicks": 80,
          "midi": 83,
          "name": "B5",
          "ticks": 143280,
          "time": 170.57155649999999,
          "velocity": 0.3858267716535433
        },
        {
          "duration": 0.1666667916666995,
          "durationTicks": 140,
          "midi": 44,
          "name": "G#2",
          "ticks": 143400,
          "time": 170.71441374999998,
          "velocity": 0.44881889763779526
        },
        {
          "duration": 0.1428572499999916,
          "durationTicks": 120,
          "midi": 43,
          "name": "G2",
          "ticks": 143520,
          "time": 170.857271,
          "velocity": 0.4566929133858268
        },
        {
          "duration": 0.1428572499999916,
          "durationTicks": 120,
          "midi": 55,
          "name": "G3",
          "ticks": 143520,
          "time": 170.857271,
          "velocity": 0.4645669291338583
        },
        {
          "duration": 0.1428572499999916,
          "durationTicks": 120,
          "midi": 67,
          "name": "G4",
          "ticks": 143520,
          "time": 170.857271,
          "velocity": 0.4645669291338583
        },
        {
          "duration": 0.11904770833331213,
          "durationTicks": 100,
          "midi": 49,
          "name": "C#3",
          "ticks": 143640,
          "time": 171.00012825,
          "velocity": 0.49606299212598426
        },
        {
          "duration": 0.11904770833331213,
          "durationTicks": 100,
          "midi": 59,
          "name": "B3",
          "ticks": 143640,
          "time": 171.00012825,
          "velocity": 0.36220472440944884
        },
        {
          "duration": 0.11904770833331213,
          "durationTicks": 100,
          "midi": 63,
          "name": "D#4",
          "ticks": 143640,
          "time": 171.00012825,
          "velocity": 0.30708661417322836
        },
        {
          "duration": 0.14285725000002003,
          "durationTicks": 120,
          "midi": 44,
          "name": "G#2",
          "ticks": 143760,
          "time": 171.14298549999998,
          "velocity": 0.3779527559055118
        },
        {
          "duration": 0.1666667916666711,
          "durationTicks": 140,
          "midi": 43,
          "name": "G2",
          "ticks": 143880,
          "time": 171.28584275,
          "velocity": 0.4094488188976378
        },
        {
          "duration": 0.1666667916666711,
          "durationTicks": 140,
          "midi": 67,
          "name": "G4",
          "ticks": 143880,
          "time": 171.28584275,
          "velocity": 0.36220472440944884
        },
        {
          "duration": 0.42857175000000325,
          "durationTicks": 360,
          "midi": 42,
          "name": "F#2",
          "ticks": 144000,
          "time": 171.4287,
          "velocity": 0.5905511811023622
        },
        {
          "duration": 0.42857175000000325,
          "durationTicks": 360,
          "midi": 49,
          "name": "C#3",
          "ticks": 144000,
          "time": 171.4287,
          "velocity": 0.33070866141732286
        },
        {
          "duration": 0.42857175000000325,
          "durationTicks": 360,
          "midi": 57,
          "name": "A3",
          "ticks": 144000,
          "time": 171.4287,
          "velocity": 0.2992125984251969
        },
        {
          "duration": 0.42857175000000325,
          "durationTicks": 360,
          "midi": 61,
          "name": "C#4",
          "ticks": 144000,
          "time": 171.4287,
          "velocity": 0.33070866141732286
        },
        {
          "duration": 0.42857175000000325,
          "durationTicks": 360,
          "midi": 64,
          "name": "E4",
          "ticks": 144000,
          "time": 171.4287,
          "velocity": 0.2283464566929134
        },
        {
          "duration": 0.1428572499999916,
          "durationTicks": 120,
          "midi": 37,
          "name": "C#2",
          "ticks": 144360,
          "time": 171.85727175,
          "velocity": 0.31496062992125984
        },
        {
          "duration": 0.21428587500000162,
          "durationTicks": 180,
          "midi": 33,
          "name": "A1",
          "ticks": 144480,
          "time": 172.000129,
          "velocity": 0.33858267716535434
        },
        {
          "duration": 0.11904770833331213,
          "durationTicks": 100,
          "midi": 42,
          "name": "F#2",
          "ticks": 144480,
          "time": 172.000129,
          "velocity": 0.48031496062992124
        },
        {
          "duration": 0.14285725000002003,
          "durationTicks": 120,
          "midi": 32,
          "name": "G#1",
          "ticks": 144600,
          "time": 172.14298624999998,
          "velocity": 0.33858267716535434
        },
        {
          "duration": 0.1666667916666711,
          "durationTicks": 140,
          "midi": 30,
          "name": "F#1",
          "ticks": 144720,
          "time": 172.2858435,
          "velocity": 0.31496062992125984
        },
        {
          "duration": 0.1666667916666711,
          "durationTicks": 140,
          "midi": 42,
          "name": "F#2",
          "ticks": 144720,
          "time": 172.2858435,
          "velocity": 0.2677165354330709
        },
        {
          "duration": 0.19047633333332215,
          "durationTicks": 160,
          "midi": 65,
          "name": "F4",
          "ticks": 144720,
          "time": 172.2858435,
          "velocity": 0.29133858267716534
        },
        {
          "duration": 0.1666667916666711,
          "durationTicks": 140,
          "midi": 69,
          "name": "A4",
          "ticks": 144720,
          "time": 172.2858435,
          "velocity": 0.31496062992125984
        },
        {
          "duration": 0.1428572499999916,
          "durationTicks": 120,
          "midi": 42,
          "name": "F#2",
          "ticks": 144840,
          "time": 172.42870075,
          "velocity": 0.2440944881889764
        },
        {
          "duration": 0.14285725000002003,
          "durationTicks": 120,
          "midi": 30,
          "name": "F#1",
          "ticks": 144960,
          "time": 172.57155799999998,
          "velocity": 0.44881889763779526
        },
        {
          "duration": 0.14285725000002003,
          "durationTicks": 120,
          "midi": 52,
          "name": "E3",
          "ticks": 144960,
          "time": 172.57155799999998,
          "velocity": 0.2992125984251969
        },
        {
          "duration": 0.14285725000002003,
          "durationTicks": 120,
          "midi": 59,
          "name": "B3",
          "ticks": 144960,
          "time": 172.57155799999998,
          "velocity": 0.2440944881889764
        },
        {
          "duration": 0.14285725000002003,
          "durationTicks": 120,
          "midi": 64,
          "name": "E4",
          "ticks": 144960,
          "time": 172.57155799999998,
          "velocity": 0.2992125984251969
        },
        {
          "duration": 0.14285725000002003,
          "durationTicks": 120,
          "midi": 68,
          "name": "G#4",
          "ticks": 144960,
          "time": 172.57155799999998,
          "velocity": 0.3858267716535433
        },
        {
          "duration": 0.14285725000002003,
          "durationTicks": 120,
          "midi": 71,
          "name": "B4",
          "ticks": 144960,
          "time": 172.57155799999998,
          "velocity": 0.33858267716535434
        },
        {
          "duration": 0.1666667916666711,
          "durationTicks": 140,
          "midi": 37,
          "name": "C#2",
          "ticks": 145080,
          "time": 172.71441525,
          "velocity": 0.36220472440944884
        },
        {
          "duration": 0.1666667916666711,
          "durationTicks": 140,
          "midi": 42,
          "name": "F#2",
          "ticks": 145080,
          "time": 172.71441525,
          "velocity": 0.33070866141732286
        },
        {
          "duration": 0.11904770833331213,
          "durationTicks": 100,
          "midi": 61,
          "name": "C#4",
          "ticks": 145080,
          "time": 172.71441525,
          "velocity": 0.2440944881889764
        },
        {
          "duration": 0.11904770833331213,
          "durationTicks": 100,
          "midi": 64,
          "name": "E4",
          "ticks": 145080,
          "time": 172.71441525,
          "velocity": 0.2992125984251969
        },
        {
          "duration": 0.1428572499999916,
          "durationTicks": 120,
          "midi": 40,
          "name": "E2",
          "ticks": 145200,
          "time": 172.8572725,
          "velocity": 0.2755905511811024
        },
        {
          "duration": 0.11904770833334055,
          "durationTicks": 100,
          "midi": 41,
          "name": "F2",
          "ticks": 145320,
          "time": 173.00012974999999,
          "velocity": 0.2440944881889764
        },
        {
          "duration": 0.1666667916666711,
          "durationTicks": 140,
          "midi": 57,
          "name": "A3",
          "ticks": 145320,
          "time": 173.00012974999999,
          "velocity": 0.30708661417322836
        },
        {
          "duration": 0.11904770833334055,
          "durationTicks": 100,
          "midi": 71,
          "name": "B4",
          "ticks": 145320,
          "time": 173.00012974999999,
          "velocity": 0.4881889763779528
        },
        {
          "duration": 0.14285725000002003,
          "durationTicks": 120,
          "midi": 42,
          "name": "F#2",
          "ticks": 145440,
          "time": 173.14298699999998,
          "velocity": 0.3464566929133858
        },
        {
          "duration": 0.14285725000002003,
          "durationTicks": 120,
          "midi": 56,
          "name": "G#3",
          "ticks": 145440,
          "time": 173.14298699999998,
          "velocity": 0.5196850393700787
        },
        {
          "duration": 0.14285725000002003,
          "durationTicks": 120,
          "midi": 57,
          "name": "A3",
          "ticks": 145440,
          "time": 173.14298699999998,
          "velocity": 0.2755905511811024
        },
        {
          "duration": 0.14285725000002003,
          "durationTicks": 120,
          "midi": 61,
          "name": "C#4",
          "ticks": 145440,
          "time": 173.14298699999998,
          "velocity": 0.2755905511811024
        },
        {
          "duration": 0.14285725000002003,
          "durationTicks": 120,
          "midi": 64,
          "name": "E4",
          "ticks": 145440,
          "time": 173.14298699999998,
          "velocity": 0.23622047244094488
        },
        {
          "duration": 0.1666667916666711,
          "durationTicks": 140,
          "midi": 37,
          "name": "C#2",
          "ticks": 145560,
          "time": 173.28584425,
          "velocity": 0.36220472440944884
        },
        {
          "duration": 0.1428572499999916,
          "durationTicks": 120,
          "midi": 30,
          "name": "F#1",
          "ticks": 145680,
          "time": 173.4287015,
          "velocity": 0.4251968503937008
        },
        {
          "duration": 0.1428572499999916,
          "durationTicks": 120,
          "midi": 42,
          "name": "F#2",
          "ticks": 145680,
          "time": 173.4287015,
          "velocity": 0.3779527559055118
        },
        {
          "duration": 0.11904770833334055,
          "durationTicks": 100,
          "midi": 59,
          "name": "B3",
          "ticks": 145800,
          "time": 173.57155874999998,
          "velocity": 0.2047244094488189
        },
        {
          "duration": 0.2857144999999832,
          "durationTicks": 240,
          "midi": 32,
          "name": "G#1",
          "ticks": 145920,
          "time": 173.714416,
          "velocity": 0.5039370078740157
        },
        {
          "duration": 0.2857144999999832,
          "durationTicks": 240,
          "midi": 49,
          "name": "C#3",
          "ticks": 145920,
          "time": 173.714416,
          "velocity": 0.3464566929133858
        },
        {
          "duration": 0.2857144999999832,
          "durationTicks": 240,
          "midi": 58,
          "name": "A#3",
          "ticks": 145920,
          "time": 173.714416,
          "velocity": 0.2440944881889764
        },
        {
          "duration": 0.2857144999999832,
          "durationTicks": 240,
          "midi": 61,
          "name": "C#4",
          "ticks": 145920,
          "time": 173.714416,
          "velocity": 0.3464566929133858
        },
        {
          "duration": 0.2857144999999832,
          "durationTicks": 240,
          "midi": 70,
          "name": "A#4",
          "ticks": 145920,
          "time": 173.714416,
          "velocity": 0.2992125984251969
        },
        {
          "duration": 0.2857144999999832,
          "durationTicks": 240,
          "midi": 82,
          "name": "A#5",
          "ticks": 145920,
          "time": 173.714416,
          "velocity": 0.2992125984251969
        },
        {
          "duration": 0.21428587500000162,
          "durationTicks": 180,
          "midi": 61,
          "name": "C#4",
          "ticks": 146040,
          "time": 173.85727325,
          "velocity": 0.6062992125984252
        },
        {
          "duration": 0.14285725000002003,
          "durationTicks": 120,
          "midi": 54,
          "name": "F#3",
          "ticks": 146160,
          "time": 174.00013049999998,
          "velocity": 0.2440944881889764
        },
        {
          "duration": 0.2857144999999832,
          "durationTicks": 240,
          "midi": 39,
          "name": "D#2",
          "ticks": 146280,
          "time": 174.14298775,
          "velocity": 0.3779527559055118
        },
        {
          "duration": 0.2857144999999832,
          "durationTicks": 240,
          "midi": 70,
          "name": "A#4",
          "ticks": 146280,
          "time": 174.14298775,
          "velocity": 0.4251968503937008
        },
        {
          "duration": 0.1428572499999916,
          "durationTicks": 120,
          "midi": 50,
          "name": "D3",
          "ticks": 146520,
          "time": 174.42870225,
          "velocity": 0.2755905511811024
        },
        {
          "duration": 0.1428572499999916,
          "durationTicks": 120,
          "midi": 62,
          "name": "D4",
          "ticks": 146520,
          "time": 174.42870225,
          "velocity": 0.2204724409448819
        },
        {
          "duration": 0.3095240416666911,
          "durationTicks": 260,
          "midi": 32,
          "name": "G#1",
          "ticks": 146640,
          "time": 174.57155949999998,
          "velocity": 0.3937007874015748
        },
        {
          "duration": 0.3095240416666911,
          "durationTicks": 260,
          "midi": 44,
          "name": "G#2",
          "ticks": 146640,
          "time": 174.57155949999998,
          "velocity": 0.3937007874015748
        },
        {
          "duration": 0.3095240416666911,
          "durationTicks": 260,
          "midi": 56,
          "name": "G#3",
          "ticks": 146640,
          "time": 174.57155949999998,
          "velocity": 0.3937007874015748
        },
        {
          "duration": 0.3095240416666911,
          "durationTicks": 260,
          "midi": 63,
          "name": "D#4",
          "ticks": 146640,
          "time": 174.57155949999998,
          "velocity": 0.29133858267716534
        },
        {
          "duration": 0.3095240416666911,
          "durationTicks": 260,
          "midi": 66,
          "name": "F#4",
          "ticks": 146640,
          "time": 174.57155949999998,
          "velocity": 0.31496062992125984
        },
        {
          "duration": 0.3095240416666911,
          "durationTicks": 260,
          "midi": 69,
          "name": "A4",
          "ticks": 146640,
          "time": 174.57155949999998,
          "velocity": 0.29133858267716534
        },
        {
          "duration": 0.3095240416666911,
          "durationTicks": 260,
          "midi": 71,
          "name": "B4",
          "ticks": 146640,
          "time": 174.57155949999998,
          "velocity": 0.2283464566929134
        },
        {
          "duration": 0.1428572499999916,
          "durationTicks": 120,
          "midi": 32,
          "name": "G#1",
          "ticks": 146880,
          "time": 174.857274,
          "velocity": 0.4330708661417323
        },
        {
          "duration": 0.1428572499999916,
          "durationTicks": 120,
          "midi": 39,
          "name": "D#2",
          "ticks": 146880,
          "time": 174.857274,
          "velocity": 0.33070866141732286
        },
        {
          "duration": 0.1428572499999916,
          "durationTicks": 120,
          "midi": 44,
          "name": "G#2",
          "ticks": 146880,
          "time": 174.857274,
          "velocity": 0.31496062992125984
        },
        {
          "duration": 0.1428572499999916,
          "durationTicks": 120,
          "midi": 68,
          "name": "G#4",
          "ticks": 146880,
          "time": 174.857274,
          "velocity": 0.4330708661417323
        },
        {
          "duration": 0.11904770833334055,
          "durationTicks": 100,
          "midi": 44,
          "name": "G#2",
          "ticks": 147000,
          "time": 175.00013124999998,
          "velocity": 0.4015748031496063
        },
        {
          "duration": 0.11904770833334055,
          "durationTicks": 100,
          "midi": 71,
          "name": "B4",
          "ticks": 147000,
          "time": 175.00013124999998,
          "velocity": 0.44881889763779526
        },
        {
          "duration": 0.2857144999999832,
          "durationTicks": 240,
          "midi": 39,
          "name": "D#2",
          "ticks": 147120,
          "time": 175.1429885,
          "velocity": 0.33070866141732286
        },
        {
          "duration": 0.2857144999999832,
          "durationTicks": 240,
          "midi": 54,
          "name": "F#3",
          "ticks": 147120,
          "time": 175.1429885,
          "velocity": 0.25196850393700787
        },
        {
          "duration": 0.2857144999999832,
          "durationTicks": 240,
          "midi": 63,
          "name": "D#4",
          "ticks": 147120,
          "time": 175.1429885,
          "velocity": 0.1968503937007874
        },
        {
          "duration": 0.42857175000000325,
          "durationTicks": 360,
          "midi": 32,
          "name": "G#1",
          "ticks": 147360,
          "time": 175.42870299999998,
          "velocity": 0.44881889763779526
        },
        {
          "duration": 0.42857175000000325,
          "durationTicks": 360,
          "midi": 44,
          "name": "G#2",
          "ticks": 147360,
          "time": 175.42870299999998,
          "velocity": 0.44881889763779526
        },
        {
          "duration": 0.42857175000000325,
          "durationTicks": 360,
          "midi": 58,
          "name": "A#3",
          "ticks": 147360,
          "time": 175.42870299999998,
          "velocity": 0.36220472440944884
        },
        {
          "duration": 0.42857175000000325,
          "durationTicks": 360,
          "midi": 59,
          "name": "B3",
          "ticks": 147360,
          "time": 175.42870299999998,
          "velocity": 0.6850393700787402
        },
        {
          "duration": 0.42857175000000325,
          "durationTicks": 360,
          "midi": 63,
          "name": "D#4",
          "ticks": 147360,
          "time": 175.42870299999998,
          "velocity": 0.25984251968503935
        },
        {
          "duration": 0.42857175000000325,
          "durationTicks": 360,
          "midi": 71,
          "name": "B4",
          "ticks": 147360,
          "time": 175.42870299999998,
          "velocity": 0.6850393700787402
        },
        {
          "duration": 0.1428572499999916,
          "durationTicks": 120,
          "midi": 32,
          "name": "G#1",
          "ticks": 147720,
          "time": 175.85727475,
          "velocity": 0.3464566929133858
        },
        {
          "duration": 0.0952381666666895,
          "durationTicks": 80,
          "midi": 63,
          "name": "D#4",
          "ticks": 147720,
          "time": 175.85727475,
          "velocity": 0.25984251968503935
        },
        {
          "duration": 0.26190495833333216,
          "durationTicks": 220,
          "midi": 33,
          "name": "A1",
          "ticks": 147840,
          "time": 176.00013199999998,
          "velocity": 0.4566929133858268
        },
        {
          "duration": 0.3095240416666911,
          "durationTicks": 260,
          "midi": 56,
          "name": "G#3",
          "ticks": 147840,
          "time": 176.00013199999998,
          "velocity": 0.25984251968503935
        },
        {
          "duration": 0.3095240416666911,
          "durationTicks": 260,
          "midi": 60,
          "name": "C4",
          "ticks": 147840,
          "time": 176.00013199999998,
          "velocity": 0.2283464566929134
        },
        {
          "duration": 0.3095240416666911,
          "durationTicks": 260,
          "midi": 64,
          "name": "E4",
          "ticks": 147840,
          "time": 176.00013199999998,
          "velocity": 0.1968503937007874
        },
        {
          "duration": 0.26190495833333216,
          "durationTicks": 220,
          "midi": 68,
          "name": "G#4",
          "ticks": 147840,
          "time": 176.00013199999998,
          "velocity": 0.30708661417322836
        },
        {
          "duration": 0.3095240416666911,
          "durationTicks": 260,
          "midi": 76,
          "name": "E5",
          "ticks": 147840,
          "time": 176.00013199999998,
          "velocity": 0.1968503937007874
        },
        {
          "duration": 0.11904770833331213,
          "durationTicks": 100,
          "midi": 56,
          "name": "G#3",
          "ticks": 148080,
          "time": 176.2858465,
          "velocity": 0.4015748031496063
        },
        {
          "duration": 0.11904770833331213,
          "durationTicks": 100,
          "midi": 60,
          "name": "C4",
          "ticks": 148080,
          "time": 176.2858465,
          "velocity": 0.29133858267716534
        },
        {
          "duration": 0.11904770833331213,
          "durationTicks": 100,
          "midi": 66,
          "name": "F#4",
          "ticks": 148080,
          "time": 176.2858465,
          "velocity": 0.5826771653543307
        },
        {
          "duration": 0.14285725000002003,
          "durationTicks": 120,
          "midi": 40,
          "name": "E2",
          "ticks": 148200,
          "time": 176.42870374999998,
          "velocity": 0.3858267716535433
        },
        {
          "duration": 0.14285725000002003,
          "durationTicks": 120,
          "midi": 64,
          "name": "E4",
          "ticks": 148200,
          "time": 176.42870374999998,
          "velocity": 0.3464566929133858
        },
        {
          "duration": 0.1428572499999916,
          "durationTicks": 120,
          "midi": 66,
          "name": "F#4",
          "ticks": 148320,
          "time": 176.571561,
          "velocity": 0.6692913385826772
        },
        {
          "duration": 0.19047633333332215,
          "durationTicks": 160,
          "midi": 64,
          "name": "E4",
          "ticks": 148440,
          "time": 176.71441825,
          "velocity": 0.41732283464566927
        },
        {
          "duration": 0.26190495833333216,
          "durationTicks": 220,
          "midi": 46,
          "name": "A#2",
          "ticks": 148560,
          "time": 176.8572755,
          "velocity": 0.3700787401574803
        },
        {
          "duration": 0.26190495833333216,
          "durationTicks": 220,
          "midi": 54,
          "name": "F#3",
          "ticks": 148560,
          "time": 176.8572755,
          "velocity": 0.25984251968503935
        },
        {
          "duration": 0.26190495833333216,
          "durationTicks": 220,
          "midi": 56,
          "name": "G#3",
          "ticks": 148560,
          "time": 176.8572755,
          "velocity": 0.23622047244094488
        },
        {
          "duration": 0.3095240416666911,
          "durationTicks": 260,
          "midi": 64,
          "name": "E4",
          "ticks": 148560,
          "time": 176.8572755,
          "velocity": 0.4881889763779528
        },
        {
          "duration": 0.3095240416666627,
          "durationTicks": 260,
          "midi": 54,
          "name": "F#3",
          "ticks": 148800,
          "time": 177.14299,
          "velocity": 0.33858267716535434
        },
        {
          "duration": 0.3095240416666627,
          "durationTicks": 260,
          "midi": 57,
          "name": "A3",
          "ticks": 148800,
          "time": 177.14299,
          "velocity": 0.31496062992125984
        },
        {
          "duration": 0.3095240416666627,
          "durationTicks": 260,
          "midi": 60,
          "name": "C4",
          "ticks": 148800,
          "time": 177.14299,
          "velocity": 0.2677165354330709
        },
        {
          "duration": 0.3095240416666627,
          "durationTicks": 260,
          "midi": 64,
          "name": "E4",
          "ticks": 148800,
          "time": 177.14299,
          "velocity": 0.4881889763779528
        },
        {
          "duration": 0.3095240416666627,
          "durationTicks": 260,
          "midi": 66,
          "name": "F#4",
          "ticks": 148800,
          "time": 177.14299,
          "velocity": 0.5590551181102362
        },
        {
          "duration": 0.1666667916666995,
          "durationTicks": 140,
          "midi": 45,
          "name": "A2",
          "ticks": 149040,
          "time": 177.42870449999998,
          "velocity": 0.47244094488188976
        },
        {
          "duration": 0.11904770833334055,
          "durationTicks": 100,
          "midi": 54,
          "name": "F#3",
          "ticks": 149040,
          "time": 177.42870449999998,
          "velocity": 0.2992125984251969
        },
        {
          "duration": 0.11904770833334055,
          "durationTicks": 100,
          "midi": 60,
          "name": "C4",
          "ticks": 149040,
          "time": 177.42870449999998,
          "velocity": 0.2755905511811024
        },
        {
          "duration": 0.11904770833334055,
          "durationTicks": 100,
          "midi": 64,
          "name": "E4",
          "ticks": 149040,
          "time": 177.42870449999998,
          "velocity": 0.5826771653543307
        },
        {
          "duration": 0.1428572499999916,
          "durationTicks": 120,
          "midi": 40,
          "name": "E2",
          "ticks": 149160,
          "time": 177.57156175,
          "velocity": 0.41732283464566927
        },
        {
          "duration": 0.2857144999999832,
          "durationTicks": 240,
          "midi": 54,
          "name": "F#3",
          "ticks": 149280,
          "time": 177.714419,
          "velocity": 0.3700787401574803
        },
        {
          "duration": 0.2857144999999832,
          "durationTicks": 240,
          "midi": 59,
          "name": "B3",
          "ticks": 149280,
          "time": 177.714419,
          "velocity": 0.2677165354330709
        },
        {
          "duration": 0.2857144999999832,
          "durationTicks": 240,
          "midi": 64,
          "name": "E4",
          "ticks": 149280,
          "time": 177.714419,
          "velocity": 0.6220472440944882
        },
        {
          "duration": 0.28571450000001164,
          "durationTicks": 240,
          "midi": 45,
          "name": "A2",
          "ticks": 149520,
          "time": 178.00013349999998,
          "velocity": 0.4015748031496063
        },
        {
          "duration": 0.28571450000001164,
          "durationTicks": 240,
          "midi": 63,
          "name": "D#4",
          "ticks": 149520,
          "time": 178.00013349999998,
          "velocity": 0.3858267716535433
        },
        {
          "duration": 0.28571450000001164,
          "durationTicks": 240,
          "midi": 75,
          "name": "D#5",
          "ticks": 149520,
          "time": 178.00013349999998,
          "velocity": 0.3464566929133858
        },
        {
          "duration": 0.28571450000001164,
          "durationTicks": 240,
          "midi": 47,
          "name": "B2",
          "ticks": 149760,
          "time": 178.285848,
          "velocity": 0.3464566929133858
        },
        {
          "duration": 0.28571450000001164,
          "durationTicks": 240,
          "midi": 56,
          "name": "G#3",
          "ticks": 149760,
          "time": 178.285848,
          "velocity": 0.33858267716535434
        },
        {
          "duration": 0.28571450000001164,
          "durationTicks": 240,
          "midi": 59,
          "name": "B3",
          "ticks": 149760,
          "time": 178.285848,
          "velocity": 0.3464566929133858
        },
        {
          "duration": 0.28571450000001164,
          "durationTicks": 240,
          "midi": 64,
          "name": "E4",
          "ticks": 149760,
          "time": 178.285848,
          "velocity": 0.28346456692913385
        },
        {
          "duration": 0.1428572499999916,
          "durationTicks": 120,
          "midi": 52,
          "name": "E3",
          "ticks": 150000,
          "time": 178.5715625,
          "velocity": 0.25984251968503935
        },
        {
          "duration": 0.1428572499999916,
          "durationTicks": 120,
          "midi": 56,
          "name": "G#3",
          "ticks": 150000,
          "time": 178.5715625,
          "velocity": 0.4015748031496063
        },
        {
          "duration": 0.1428572499999916,
          "durationTicks": 120,
          "midi": 59,
          "name": "B3",
          "ticks": 150000,
          "time": 178.5715625,
          "velocity": 0.23622047244094488
        },
        {
          "duration": 0.1428572499999916,
          "durationTicks": 120,
          "midi": 63,
          "name": "D#4",
          "ticks": 150000,
          "time": 178.5715625,
          "velocity": 0.44881889763779526
        },
        {
          "duration": 0.1428572499999916,
          "durationTicks": 120,
          "midi": 75,
          "name": "D#5",
          "ticks": 150000,
          "time": 178.5715625,
          "velocity": 0.44881889763779526
        },
        {
          "duration": 0.1666667916666711,
          "durationTicks": 140,
          "midi": 44,
          "name": "G#2",
          "ticks": 150120,
          "time": 178.71441975,
          "velocity": 0.49606299212598426
        },
        {
          "duration": 0.14285725000002003,
          "durationTicks": 120,
          "midi": 56,
          "name": "G#3",
          "ticks": 150240,
          "time": 178.85727699999998,
          "velocity": 0.4566929133858268
        },
        {
          "duration": 0.1428572499999916,
          "durationTicks": 120,
          "midi": 45,
          "name": "A2",
          "ticks": 150360,
          "time": 179.00013425,
          "velocity": 0.30708661417322836
        },
        {
          "duration": 0.09523816666666107,
          "durationTicks": 80,
          "midi": 59,
          "name": "B3",
          "ticks": 150360,
          "time": 179.00013425,
          "velocity": 0.2677165354330709
        },
        {
          "duration": 0.11904770833331213,
          "durationTicks": 100,
          "midi": 47,
          "name": "B2",
          "ticks": 150480,
          "time": 179.1429915,
          "velocity": 0.3937007874015748
        },
        {
          "duration": 0.11904770833331213,
          "durationTicks": 100,
          "midi": 68,
          "name": "G#4",
          "ticks": 150480,
          "time": 179.1429915,
          "velocity": 0.3464566929133858
        },
        {
          "duration": 0.19047633333332215,
          "durationTicks": 160,
          "midi": 61,
          "name": "C#4",
          "ticks": 150600,
          "time": 179.28584874999999,
          "velocity": 0.41732283464566927
        },
        {
          "duration": 0.26190495833333216,
          "durationTicks": 220,
          "midi": 49,
          "name": "C#3",
          "ticks": 150720,
          "time": 179.42870599999998,
          "velocity": 0.4409448818897638
        },
        {
          "duration": 0.26190495833333216,
          "durationTicks": 220,
          "midi": 61,
          "name": "C#4",
          "ticks": 150720,
          "time": 179.42870599999998,
          "velocity": 0.4015748031496063
        },
        {
          "duration": 0.26190495833333216,
          "durationTicks": 220,
          "midi": 63,
          "name": "D#4",
          "ticks": 150720,
          "time": 179.42870599999998,
          "velocity": 0.25984251968503935
        },
        {
          "duration": 0.26190495833333216,
          "durationTicks": 220,
          "midi": 85,
          "name": "C#6",
          "ticks": 150720,
          "time": 179.42870599999998,
          "velocity": 0.3937007874015748
        },
        {
          "duration": 0.1428572499999916,
          "durationTicks": 120,
          "midi": 47,
          "name": "B2",
          "ticks": 150960,
          "time": 179.7144205,
          "velocity": 0.4330708661417323
        },
        {
          "duration": 0.1428572499999916,
          "durationTicks": 120,
          "midi": 54,
          "name": "F#3",
          "ticks": 150960,
          "time": 179.7144205,
          "velocity": 0.4015748031496063
        },
        {
          "duration": 0.1428572499999916,
          "durationTicks": 120,
          "midi": 59,
          "name": "B3",
          "ticks": 150960,
          "time": 179.7144205,
          "velocity": 0.3937007874015748
        },
        {
          "duration": 0.14285725000002003,
          "durationTicks": 120,
          "midi": 44,
          "name": "G#2",
          "ticks": 151080,
          "time": 179.85727774999998,
          "velocity": 0.5196850393700787
        },
        {
          "duration": 0.0952381666666895,
          "durationTicks": 80,
          "midi": 58,
          "name": "A#3",
          "ticks": 151080,
          "time": 179.85727774999998,
          "velocity": 0.2992125984251969
        },
        {
          "duration": 0.1428572499999916,
          "durationTicks": 120,
          "midi": 43,
          "name": "G2",
          "ticks": 151200,
          "time": 180.000135,
          "velocity": 0.44881889763779526
        },
        {
          "duration": 0.1428572499999916,
          "durationTicks": 120,
          "midi": 55,
          "name": "G3",
          "ticks": 151200,
          "time": 180.000135,
          "velocity": 0.3464566929133858
        },
        {
          "duration": 0.1428572499999916,
          "durationTicks": 120,
          "midi": 79,
          "name": "G5",
          "ticks": 151200,
          "time": 180.000135,
          "velocity": 0.31496062992125984
        },
        {
          "duration": 0.11904770833331213,
          "durationTicks": 100,
          "midi": 54,
          "name": "F#3",
          "ticks": 151320,
          "time": 180.14299225,
          "velocity": 0.2755905511811024
        },
        {
          "duration": 0.11904770833331213,
          "durationTicks": 100,
          "midi": 63,
          "name": "D#4",
          "ticks": 151320,
          "time": 180.14299225,
          "velocity": 0.29133858267716534
        },
        {
          "duration": 0.1428572499999916,
          "durationTicks": 120,
          "midi": 44,
          "name": "G#2",
          "ticks": 151440,
          "time": 180.28584949999998,
          "velocity": 0.41732283464566927
        },
        {
          "duration": 0.1428572499999916,
          "durationTicks": 120,
          "midi": 45,
          "name": "A2",
          "ticks": 151440,
          "time": 180.28584949999998,
          "velocity": 0.2992125984251969
        },
        {
          "duration": 0.1428572499999916,
          "durationTicks": 120,
          "midi": 80,
          "name": "G#5",
          "ticks": 151440,
          "time": 180.28584949999998,
          "velocity": 0.29133858267716534
        },
        {
          "duration": 0.11904770833334055,
          "durationTicks": 100,
          "midi": 43,
          "name": "G2",
          "ticks": 151560,
          "time": 180.42870674999998,
          "velocity": 0.44881889763779526
        },
        {
          "duration": 0.11904770833334055,
          "durationTicks": 100,
          "midi": 55,
          "name": "G3",
          "ticks": 151560,
          "time": 180.42870674999998,
          "velocity": 0.31496062992125984
        },
        {
          "duration": 0.1428572499999916,
          "durationTicks": 120,
          "midi": 30,
          "name": "F#1",
          "ticks": 151680,
          "time": 180.571564,
          "velocity": 0.30708661417322836
        },
        {
          "duration": 0.1428572499999916,
          "durationTicks": 120,
          "midi": 54,
          "name": "F#3",
          "ticks": 151680,
          "time": 180.571564,
          "velocity": 0.31496062992125984
        },
        {
          "duration": 0.1428572499999916,
          "durationTicks": 120,
          "midi": 57,
          "name": "A3",
          "ticks": 151680,
          "time": 180.571564,
          "velocity": 0.2992125984251969
        },
        {
          "duration": 0.1428572499999916,
          "durationTicks": 120,
          "midi": 60,
          "name": "C4",
          "ticks": 151680,
          "time": 180.571564,
          "velocity": 0.4094488188976378
        },
        {
          "duration": 0.1428572499999916,
          "durationTicks": 120,
          "midi": 61,
          "name": "C#4",
          "ticks": 151680,
          "time": 180.571564,
          "velocity": 0.2992125984251969
        },
        {
          "duration": 0.1428572499999916,
          "durationTicks": 120,
          "midi": 70,
          "name": "A#4",
          "ticks": 151680,
          "time": 180.571564,
          "velocity": 0.2440944881889764
        },
        {
          "duration": 0.1428572499999916,
          "durationTicks": 120,
          "midi": 78,
          "name": "F#5",
          "ticks": 151680,
          "time": 180.571564,
          "velocity": 0.4094488188976378
        },
        {
          "duration": 0.26190495833333216,
          "durationTicks": 220,
          "midi": 61,
          "name": "C#4",
          "ticks": 151800,
          "time": 180.71442125,
          "velocity": 0.5196850393700787
        },
        {
          "duration": 0.1666667916666711,
          "durationTicks": 140,
          "midi": 57,
          "name": "A3",
          "ticks": 152040,
          "time": 181.00013575,
          "velocity": 0.30708661417322836
        },
        {
          "duration": 0.1666667916666711,
          "durationTicks": 140,
          "midi": 61,
          "name": "C#4",
          "ticks": 152040,
          "time": 181.00013575,
          "velocity": 0.6220472440944882
        },
        {
          "duration": 0.1428572499999916,
          "durationTicks": 120,
          "midi": 61,
          "name": "C#4",
          "ticks": 152160,
          "time": 181.142993,
          "velocity": 0.6220472440944882
        },
        {
          "duration": 0.0952381666666895,
          "durationTicks": 80,
          "midi": 62,
          "name": "D4",
          "ticks": 152160,
          "time": 181.142993,
          "velocity": 0.30708661417322836
        },
        {
          "duration": 0.14285725000002003,
          "durationTicks": 120,
          "midi": 32,
          "name": "G#1",
          "ticks": 152280,
          "time": 181.28585024999998,
          "velocity": 0.31496062992125984
        },
        {
          "duration": 0.26190495833330374,
          "durationTicks": 220,
          "midi": 30,
          "name": "F#1",
          "ticks": 152400,
          "time": 181.4287075,
          "velocity": 0.33858267716535434
        },
        {
          "duration": 0.26190495833330374,
          "durationTicks": 220,
          "midi": 55,
          "name": "G3",
          "ticks": 152400,
          "time": 181.4287075,
          "velocity": 0.31496062992125984
        },
        {
          "duration": 0.26190495833330374,
          "durationTicks": 220,
          "midi": 61,
          "name": "C#4",
          "ticks": 152400,
          "time": 181.4287075,
          "velocity": 0.2440944881889764
        },
        {
          "duration": 0.3095240416666627,
          "durationTicks": 260,
          "midi": 66,
          "name": "F#4",
          "ticks": 152400,
          "time": 181.4287075,
          "velocity": 0.2677165354330709
        },
        {
          "duration": 0.11904770833334055,
          "durationTicks": 100,
          "midi": 52,
          "name": "E3",
          "ticks": 152640,
          "time": 181.71442199999998,
          "velocity": 0.2677165354330709
        },
        {
          "duration": 0.11904770833334055,
          "durationTicks": 100,
          "midi": 59,
          "name": "B3",
          "ticks": 152640,
          "time": 181.71442199999998,
          "velocity": 0.25196850393700787
        },
        {
          "duration": 0.11904770833334055,
          "durationTicks": 100,
          "midi": 64,
          "name": "E4",
          "ticks": 152640,
          "time": 181.71442199999998,
          "velocity": 0.23622047244094488
        },
        {
          "duration": 0.11904770833334055,
          "durationTicks": 100,
          "midi": 68,
          "name": "G#4",
          "ticks": 152640,
          "time": 181.71442199999998,
          "velocity": 0.5590551181102362
        },
        {
          "duration": 0.11904770833334055,
          "durationTicks": 100,
          "midi": 83,
          "name": "B5",
          "ticks": 152640,
          "time": 181.71442199999998,
          "velocity": 0.36220472440944884
        },
        {
          "duration": 0.14285725000002003,
          "durationTicks": 120,
          "midi": 37,
          "name": "C#2",
          "ticks": 152760,
          "time": 181.85727924999998,
          "velocity": 0.33858267716535434
        },
        {
          "duration": 0.14285725000002003,
          "durationTicks": 120,
          "midi": 71,
          "name": "B4",
          "ticks": 152760,
          "time": 181.85727924999998,
          "velocity": 0.44881889763779526
        },
        {
          "duration": 0.1666667916666711,
          "durationTicks": 140,
          "midi": 40,
          "name": "E2",
          "ticks": 152880,
          "time": 182.0001365,
          "velocity": 0.31496062992125984
        },
        {
          "duration": 0.1428572499999916,
          "durationTicks": 120,
          "midi": 41,
          "name": "F2",
          "ticks": 153000,
          "time": 182.14299375,
          "velocity": 0.2204724409448819
        },
        {
          "duration": 0.1428572499999916,
          "durationTicks": 120,
          "midi": 57,
          "name": "A3",
          "ticks": 153000,
          "time": 182.14299375,
          "velocity": 0.31496062992125984
        },
        {
          "duration": 0.14285725000002003,
          "durationTicks": 120,
          "midi": 56,
          "name": "G#3",
          "ticks": 153120,
          "time": 182.28585099999998,
          "velocity": 0.6377952755905512
        },
        {
          "duration": 0.14285725000002003,
          "durationTicks": 120,
          "midi": 61,
          "name": "C#4",
          "ticks": 153120,
          "time": 182.28585099999998,
          "velocity": 0.2755905511811024
        },
        {
          "duration": 0.11904770833331213,
          "durationTicks": 100,
          "midi": 37,
          "name": "C#2",
          "ticks": 153240,
          "time": 182.42870825,
          "velocity": 0.3543307086614173
        },
        {
          "duration": 0.28571450000001164,
          "durationTicks": 240,
          "midi": 40,
          "name": "E2",
          "ticks": 153360,
          "time": 182.5715655,
          "velocity": 0.33070866141732286
        },
        {
          "duration": 0.28571450000001164,
          "durationTicks": 240,
          "midi": 42,
          "name": "F#2",
          "ticks": 153360,
          "time": 182.5715655,
          "velocity": 0.2992125984251969
        },
        {
          "duration": 0.2857144999999832,
          "durationTicks": 240,
          "midi": 32,
          "name": "G#1",
          "ticks": 153600,
          "time": 182.85728,
          "velocity": 0.4251968503937008
        },
        {
          "duration": 0.2857144999999832,
          "durationTicks": 240,
          "midi": 44,
          "name": "G#2",
          "ticks": 153600,
          "time": 182.85728,
          "velocity": 0.4251968503937008
        },
        {
          "duration": 0.2857144999999832,
          "durationTicks": 240,
          "midi": 51,
          "name": "D#3",
          "ticks": 153600,
          "time": 182.85728,
          "velocity": 0.31496062992125984
        },
        {
          "duration": 0.2857144999999832,
          "durationTicks": 240,
          "midi": 59,
          "name": "B3",
          "ticks": 153600,
          "time": 182.85728,
          "velocity": 0.4409448818897638
        },
        {
          "duration": 0.2857144999999832,
          "durationTicks": 240,
          "midi": 61,
          "name": "C#4",
          "ticks": 153600,
          "time": 182.85728,
          "velocity": 0.2755905511811024
        },
        {
          "duration": 0.2857144999999832,
          "durationTicks": 240,
          "midi": 63,
          "name": "D#4",
          "ticks": 153600,
          "time": 182.85728,
          "velocity": 0.2440944881889764
        },
        {
          "duration": 0.33333358333331375,
          "durationTicks": 280,
          "midi": 70,
          "name": "A#4",
          "ticks": 153600,
          "time": 182.85728,
          "velocity": 0.2125984251968504
        },
        {
          "duration": 0.2857144999999832,
          "durationTicks": 240,
          "midi": 82,
          "name": "A#5",
          "ticks": 153600,
          "time": 182.85728,
          "velocity": 0.2125984251968504
        },
        {
          "duration": 0.0952381666666895,
          "durationTicks": 80,
          "midi": 32,
          "name": "G#1",
          "ticks": 153840,
          "time": 183.1429945,
          "velocity": 0.3464566929133858
        },
        {
          "duration": 0.19047633333332215,
          "durationTicks": 160,
          "midi": 61,
          "name": "C#4",
          "ticks": 153840,
          "time": 183.1429945,
          "velocity": 0.5669291338582677
        },
        {
          "duration": 0.3095240416666911,
          "durationTicks": 260,
          "midi": 39,
          "name": "D#2",
          "ticks": 153960,
          "time": 183.28585174999998,
          "velocity": 0.30708661417322836
        },
        {
          "duration": 0.1428572499999916,
          "durationTicks": 120,
          "midi": 32,
          "name": "G#1",
          "ticks": 154200,
          "time": 183.57156625,
          "velocity": 0.30708661417322836
        },
        {
          "duration": 0.1428572499999916,
          "durationTicks": 120,
          "midi": 50,
          "name": "D3",
          "ticks": 154200,
          "time": 183.57156625,
          "velocity": 0.4094488188976378
        },
        {
          "duration": 0.26190495833333216,
          "durationTicks": 220,
          "midi": 39,
          "name": "D#2",
          "ticks": 154320,
          "time": 183.71442349999998,
          "velocity": 0.33070866141732286
        },
        {
          "duration": 0.3095240416666911,
          "durationTicks": 260,
          "midi": 59,
          "name": "B3",
          "ticks": 154320,
          "time": 183.71442349999998,
          "velocity": 0.3228346456692913
        },
        {
          "duration": 0.3095240416666911,
          "durationTicks": 260,
          "midi": 63,
          "name": "D#4",
          "ticks": 154320,
          "time": 183.71442349999998,
          "velocity": 0.3779527559055118
        },
        {
          "duration": 0.3095240416666911,
          "durationTicks": 260,
          "midi": 71,
          "name": "B4",
          "ticks": 154320,
          "time": 183.71442349999998,
          "velocity": 0.3228346456692913
        },
        {
          "duration": 0.11904770833331213,
          "durationTicks": 100,
          "midi": 59,
          "name": "B3",
          "ticks": 154560,
          "time": 184.000138,
          "velocity": 0.4409448818897638
        },
        {
          "duration": 0.1428572499999916,
          "durationTicks": 120,
          "midi": 37,
          "name": "C#2",
          "ticks": 154680,
          "time": 184.14299524999998,
          "velocity": 0.47244094488188976
        },
        {
          "duration": 0.1666667916666995,
          "durationTicks": 140,
          "midi": 47,
          "name": "B2",
          "ticks": 154800,
          "time": 184.28585249999998,
          "velocity": 0.3779527559055118
        },
        {
          "duration": 0.1428572499999916,
          "durationTicks": 120,
          "midi": 61,
          "name": "C#4",
          "ticks": 154920,
          "time": 184.42870975,
          "velocity": 0.33070866141732286
        },
        {
          "duration": 0.1428572499999916,
          "durationTicks": 120,
          "midi": 59,
          "name": "B3",
          "ticks": 155040,
          "time": 184.571567,
          "velocity": 0.6771653543307087
        },
        {
          "duration": 0.1666667916666995,
          "durationTicks": 140,
          "midi": 37,
          "name": "C#2",
          "ticks": 155160,
          "time": 184.71442424999998,
          "velocity": 0.36220472440944884
        },
        {
          "duration": 0.1428572499999916,
          "durationTicks": 120,
          "midi": 37,
          "name": "C#2",
          "ticks": 155280,
          "time": 184.8572815,
          "velocity": 0.48031496062992124
        },
        {
          "duration": 0.11904770833331213,
          "durationTicks": 100,
          "midi": 31,
          "name": "G1",
          "ticks": 155400,
          "time": 185.00013875,
          "velocity": 0.4094488188976378
        },
        {
          "duration": 0.11904770833331213,
          "durationTicks": 100,
          "midi": 68,
          "name": "G#4",
          "ticks": 155400,
          "time": 185.00013875,
          "velocity": 0.7559055118110236
        },
        {
          "duration": 0.28571450000001164,
          "durationTicks": 240,
          "midi": 42,
          "name": "F#2",
          "ticks": 155520,
          "time": 185.14299599999998,
          "velocity": 0.3858267716535433
        },
        {
          "duration": 0.28571450000001164,
          "durationTicks": 240,
          "midi": 57,
          "name": "A3",
          "ticks": 155520,
          "time": 185.14299599999998,
          "velocity": 0.31496062992125984
        },
        {
          "duration": 0.28571450000001164,
          "durationTicks": 240,
          "midi": 61,
          "name": "C#4",
          "ticks": 155520,
          "time": 185.14299599999998,
          "velocity": 0.3464566929133858
        },
        {
          "duration": 0.28571450000001164,
          "durationTicks": 240,
          "midi": 64,
          "name": "E4",
          "ticks": 155520,
          "time": 185.14299599999998,
          "velocity": 0.23622047244094488
        },
        {
          "duration": 0.28571450000001164,
          "durationTicks": 240,
          "midi": 76,
          "name": "E5",
          "ticks": 155520,
          "time": 185.14299599999998,
          "velocity": 0.23622047244094488
        },
        {
          "duration": 0.42857175000000325,
          "durationTicks": 360,
          "midi": 64,
          "name": "E4",
          "ticks": 155760,
          "time": 185.4287105,
          "velocity": 0.4409448818897638
        },
        {
          "duration": 0.42857175000000325,
          "durationTicks": 360,
          "midi": 68,
          "name": "G#4",
          "ticks": 155760,
          "time": 185.4287105,
          "velocity": 0.3464566929133858
        },
        {
          "duration": 0.19047633333332215,
          "durationTicks": 160,
          "midi": 66,
          "name": "F#4",
          "ticks": 156120,
          "time": 185.85728225,
          "velocity": 0.3228346456692913
        },
        {
          "duration": 0.26190495833333216,
          "durationTicks": 220,
          "midi": 64,
          "name": "E4",
          "ticks": 156240,
          "time": 186.0001395,
          "velocity": 0.4409448818897638
        },
        {
          "duration": 0.26190495833333216,
          "durationTicks": 220,
          "midi": 68,
          "name": "G#4",
          "ticks": 156240,
          "time": 186.0001395,
          "velocity": 0.4566929133858268
        },
        {
          "duration": 0.26190495833333216,
          "durationTicks": 220,
          "midi": 71,
          "name": "B4",
          "ticks": 156240,
          "time": 186.0001395,
          "velocity": 0.23622047244094488
        },
        {
          "duration": 0.26190495833333216,
          "durationTicks": 220,
          "midi": 80,
          "name": "G#5",
          "ticks": 156240,
          "time": 186.0001395,
          "velocity": 0.2755905511811024
        },
        {
          "duration": 0.1666667916666711,
          "durationTicks": 140,
          "midi": 32,
          "name": "G#1",
          "ticks": 156480,
          "time": 186.285854,
          "velocity": 0.4015748031496063
        },
        {
          "duration": 0.11904770833331213,
          "durationTicks": 100,
          "midi": 44,
          "name": "G#2",
          "ticks": 156480,
          "time": 186.285854,
          "velocity": 0.3858267716535433
        },
        {
          "duration": 0.11904770833331213,
          "durationTicks": 100,
          "midi": 54,
          "name": "F#3",
          "ticks": 156480,
          "time": 186.285854,
          "velocity": 0.23622047244094488
        },
        {
          "duration": 0.11904770833331213,
          "durationTicks": 100,
          "midi": 59,
          "name": "B3",
          "ticks": 156480,
          "time": 186.285854,
          "velocity": 0.25984251968503935
        },
        {
          "duration": 0.11904770833331213,
          "durationTicks": 100,
          "midi": 64,
          "name": "E4",
          "ticks": 156480,
          "time": 186.285854,
          "velocity": 0.4881889763779528
        },
        {
          "duration": 0.2857144999999832,
          "durationTicks": 240,
          "midi": 32,
          "name": "G#1",
          "ticks": 156600,
          "time": 186.42871125,
          "velocity": 0.30708661417322836
        },
        {
          "duration": 0.2857144999999832,
          "durationTicks": 240,
          "midi": 44,
          "name": "G#2",
          "ticks": 156600,
          "time": 186.42871125,
          "velocity": 0.36220472440944884
        },
        {
          "duration": 0.14285725000002003,
          "durationTicks": 120,
          "midi": 32,
          "name": "G#1",
          "ticks": 156840,
          "time": 186.71442574999998,
          "velocity": 0.4881889763779528
        },
        {
          "duration": 0.14285725000002003,
          "durationTicks": 120,
          "midi": 40,
          "name": "E2",
          "ticks": 156840,
          "time": 186.71442574999998,
          "velocity": 0.33070866141732286
        },
        {
          "duration": 0.1666667916666711,
          "durationTicks": 140,
          "midi": 73,
          "name": "C#5",
          "ticks": 156960,
          "time": 186.857283,
          "velocity": 0.2125984251968504
        },
        {
          "duration": 0.1428572499999916,
          "durationTicks": 120,
          "midi": 44,
          "name": "G#2",
          "ticks": 157080,
          "time": 187.00014025,
          "velocity": 0.3464566929133858
        },
        {
          "duration": 0.1666667916666995,
          "durationTicks": 140,
          "midi": 32,
          "name": "G#1",
          "ticks": 157200,
          "time": 187.14299749999998,
          "velocity": 0.3700787401574803
        },
        {
          "duration": 0.1666667916666995,
          "durationTicks": 140,
          "midi": 40,
          "name": "E2",
          "ticks": 157200,
          "time": 187.14299749999998,
          "velocity": 0.33070866141732286
        },
        {
          "duration": 0.1428572499999916,
          "durationTicks": 120,
          "midi": 39,
          "name": "D#2",
          "ticks": 157320,
          "time": 187.28585475,
          "velocity": 0.31496062992125984
        },
        {
          "duration": 0.28571450000001164,
          "durationTicks": 240,
          "midi": 38,
          "name": "D2",
          "ticks": 157440,
          "time": 187.428712,
          "velocity": 0.4015748031496063
        },
        {
          "duration": 0.28571450000001164,
          "durationTicks": 240,
          "midi": 45,
          "name": "A2",
          "ticks": 157440,
          "time": 187.428712,
          "velocity": 0.2125984251968504
        },
        {
          "duration": 0.28571450000001164,
          "durationTicks": 240,
          "midi": 50,
          "name": "D3",
          "ticks": 157440,
          "time": 187.428712,
          "velocity": 0.4015748031496063
        },
        {
          "duration": 0.28571450000001164,
          "durationTicks": 240,
          "midi": 54,
          "name": "F#3",
          "ticks": 157440,
          "time": 187.428712,
          "velocity": 0.25196850393700787
        },
        {
          "duration": 0.28571450000001164,
          "durationTicks": 240,
          "midi": 57,
          "name": "A3",
          "ticks": 157440,
          "time": 187.428712,
          "velocity": 0.5669291338582677
        },
        {
          "duration": 0.28571450000001164,
          "durationTicks": 240,
          "midi": 60,
          "name": "C4",
          "ticks": 157440,
          "time": 187.428712,
          "velocity": 0.33070866141732286
        },
        {
          "duration": 0.28571450000001164,
          "durationTicks": 240,
          "midi": 64,
          "name": "E4",
          "ticks": 157440,
          "time": 187.428712,
          "velocity": 0.4566929133858268
        },
        {
          "duration": 0.28571450000001164,
          "durationTicks": 240,
          "midi": 69,
          "name": "A4",
          "ticks": 157440,
          "time": 187.428712,
          "velocity": 0.5669291338582677
        },
        {
          "duration": 0.28571450000001164,
          "durationTicks": 240,
          "midi": 72,
          "name": "C5",
          "ticks": 157440,
          "time": 187.428712,
          "velocity": 0.33070866141732286
        },
        {
          "duration": 0.28571450000001164,
          "durationTicks": 240,
          "midi": 84,
          "name": "C6",
          "ticks": 157440,
          "time": 187.428712,
          "velocity": 0.2440944881889764
        },
        {
          "duration": 0.09523816666666107,
          "durationTicks": 80,
          "midi": 38,
          "name": "D2",
          "ticks": 157680,
          "time": 187.7144265,
          "velocity": 0.41732283464566927
        },
        {
          "duration": 0.11904770833331213,
          "durationTicks": 100,
          "midi": 45,
          "name": "A2",
          "ticks": 157800,
          "time": 187.85728375,
          "velocity": 0.4330708661417323
        },
        {
          "duration": 0.11904770833331213,
          "durationTicks": 100,
          "midi": 50,
          "name": "D3",
          "ticks": 157800,
          "time": 187.85728375,
          "velocity": 0.41732283464566927
        },
        {
          "duration": 0.1428572499999916,
          "durationTicks": 120,
          "midi": 64,
          "name": "E4",
          "ticks": 157920,
          "time": 188.00014099999999,
          "velocity": 0.47244094488188976
        },
        {
          "duration": 0.1428572499999916,
          "durationTicks": 120,
          "midi": 69,
          "name": "A4",
          "ticks": 157920,
          "time": 188.00014099999999,
          "velocity": 0.5039370078740157
        },
        {
          "duration": 0.11904770833334055,
          "durationTicks": 100,
          "midi": 38,
          "name": "D2",
          "ticks": 158040,
          "time": 188.14299824999998,
          "velocity": 0.3700787401574803
        },
        {
          "duration": 0.1428572499999916,
          "durationTicks": 120,
          "midi": 50,
          "name": "D3",
          "ticks": 158160,
          "time": 188.2858555,
          "velocity": 0.31496062992125984
        },
        {
          "duration": 0.1428572499999916,
          "durationTicks": 120,
          "midi": 60,
          "name": "C4",
          "ticks": 158160,
          "time": 188.2858555,
          "velocity": 0.3858267716535433
        },
        {
          "duration": 0.1428572499999916,
          "durationTicks": 120,
          "midi": 64,
          "name": "E4",
          "ticks": 158160,
          "time": 188.2858555,
          "velocity": 0.5905511811023622
        },
        {
          "duration": 0.1428572499999916,
          "durationTicks": 120,
          "midi": 69,
          "name": "A4",
          "ticks": 158160,
          "time": 188.2858555,
          "velocity": 0.6535433070866141
        },
        {
          "duration": 0.1428572499999916,
          "durationTicks": 120,
          "midi": 72,
          "name": "C5",
          "ticks": 158160,
          "time": 188.2858555,
          "velocity": 0.3858267716535433
        },
        {
          "duration": 0.09523816666666107,
          "durationTicks": 80,
          "midi": 81,
          "name": "A5",
          "ticks": 158160,
          "time": 188.2858555,
          "velocity": 0.33070866141732286
        },
        {
          "duration": 0.11904770833331213,
          "durationTicks": 100,
          "midi": 50,
          "name": "D3",
          "ticks": 158280,
          "time": 188.42871275,
          "velocity": 0.4566929133858268
        },
        {
          "duration": 0.14285725000002003,
          "durationTicks": 120,
          "midi": 69,
          "name": "A4",
          "ticks": 158400,
          "time": 188.57156999999998,
          "velocity": 0.36220472440944884
        },
        {
          "duration": 0.26190495833330374,
          "durationTicks": 220,
          "midi": 33,
          "name": "A1",
          "ticks": 158520,
          "time": 188.71442725,
          "velocity": 0.33070866141732286
        },
        {
          "duration": 0.26190495833330374,
          "durationTicks": 220,
          "midi": 45,
          "name": "A2",
          "ticks": 158520,
          "time": 188.71442725,
          "velocity": 0.3858267716535433
        },
        {
          "duration": 0.26190495833330374,
          "durationTicks": 220,
          "midi": 60,
          "name": "C4",
          "ticks": 158520,
          "time": 188.71442725,
          "velocity": 0.3228346456692913
        },
        {
          "duration": 0.2857144999999832,
          "durationTicks": 240,
          "midi": 79,
          "name": "G5",
          "ticks": 158520,
          "time": 188.71442725,
          "velocity": 0.2283464566929134
        },
        {
          "duration": 0.0952381666666895,
          "durationTicks": 80,
          "midi": 38,
          "name": "D2",
          "ticks": 158760,
          "time": 189.00014174999998,
          "velocity": 0.5196850393700787
        },
        {
          "duration": 0.1428572499999916,
          "durationTicks": 120,
          "midi": 50,
          "name": "D3",
          "ticks": 158760,
          "time": 189.00014174999998,
          "velocity": 0.5118110236220472
        },
        {
          "duration": 0.1428572499999916,
          "durationTicks": 120,
          "midi": 60,
          "name": "C4",
          "ticks": 158760,
          "time": 189.00014174999998,
          "velocity": 0.33858267716535434
        },
        {
          "duration": 0.19047633333332215,
          "durationTicks": 160,
          "midi": 71,
          "name": "B4",
          "ticks": 158760,
          "time": 189.00014174999998,
          "velocity": 0.28346456692913385
        },
        {
          "duration": 0.19047633333332215,
          "durationTicks": 160,
          "midi": 78,
          "name": "F#5",
          "ticks": 158760,
          "time": 189.00014174999998,
          "velocity": 0.36220472440944884
        },
        {
          "duration": 0.1666667916666995,
          "durationTicks": 140,
          "midi": 59,
          "name": "B3",
          "ticks": 158880,
          "time": 189.14299899999997,
          "velocity": 0.2283464566929134
        },
        {
          "duration": 0.11904770833334055,
          "durationTicks": 100,
          "midi": 66,
          "name": "F#4",
          "ticks": 158880,
          "time": 189.14299899999997,
          "velocity": 0.5590551181102362
        },
        {
          "duration": 0.1666667916666995,
          "durationTicks": 140,
          "midi": 69,
          "name": "A4",
          "ticks": 158880,
          "time": 189.14299899999997,
          "velocity": 0.2677165354330709
        },
        {
          "duration": 0.07142862500001002,
          "durationTicks": 60,
          "midi": 72,
          "name": "C5",
          "ticks": 158880,
          "time": 189.14299899999997,
          "velocity": 0.5590551181102362
        },
        {
          "duration": 0.1666667916666995,
          "durationTicks": 140,
          "midi": 78,
          "name": "F#5",
          "ticks": 158880,
          "time": 189.14299899999997,
          "velocity": 0.2755905511811024
        },
        {
          "duration": 0.1428572499999916,
          "durationTicks": 120,
          "midi": 38,
          "name": "D2",
          "ticks": 159000,
          "time": 189.28585625,
          "velocity": 0.3543307086614173
        },
        {
          "duration": 0.1428572499999916,
          "durationTicks": 120,
          "midi": 50,
          "name": "D3",
          "ticks": 159000,
          "time": 189.28585625,
          "velocity": 0.3543307086614173
        },
        {
          "duration": 0.1428572499999916,
          "durationTicks": 120,
          "midi": 59,
          "name": "B3",
          "ticks": 159000,
          "time": 189.28585625,
          "velocity": 0.30708661417322836
        },
        {
          "duration": 0.1428572499999916,
          "durationTicks": 120,
          "midi": 71,
          "name": "B4",
          "ticks": 159000,
          "time": 189.28585625,
          "velocity": 0.30708661417322836
        },
        {
          "duration": 0.1428572499999916,
          "durationTicks": 120,
          "midi": 40,
          "name": "E2",
          "ticks": 159120,
          "time": 189.4287135,
          "velocity": 0.33070866141732286
        },
        {
          "duration": 0.1428572499999916,
          "durationTicks": 120,
          "midi": 45,
          "name": "A2",
          "ticks": 159120,
          "time": 189.4287135,
          "velocity": 0.3543307086614173
        },
        {
          "duration": 0.1428572499999916,
          "durationTicks": 120,
          "midi": 68,
          "name": "G#4",
          "ticks": 159120,
          "time": 189.4287135,
          "velocity": 0.5511811023622047
        },
        {
          "duration": 0.11904770833334055,
          "durationTicks": 100,
          "midi": 38,
          "name": "D2",
          "ticks": 159240,
          "time": 189.57157074999998,
          "velocity": 0.2992125984251969
        },
        {
          "duration": 0.11904770833334055,
          "durationTicks": 100,
          "midi": 50,
          "name": "D3",
          "ticks": 159240,
          "time": 189.57157074999998,
          "velocity": 0.2992125984251969
        },
        {
          "duration": 0.11904770833334055,
          "durationTicks": 100,
          "midi": 59,
          "name": "B3",
          "ticks": 159240,
          "time": 189.57157074999998,
          "velocity": 0.31496062992125984
        },
        {
          "duration": 0.2857144999999832,
          "durationTicks": 240,
          "midi": 37,
          "name": "C#2",
          "ticks": 159360,
          "time": 189.714428,
          "velocity": 0.3779527559055118
        },
        {
          "duration": 0.2857144999999832,
          "durationTicks": 240,
          "midi": 49,
          "name": "C#3",
          "ticks": 159360,
          "time": 189.714428,
          "velocity": 0.3779527559055118
        },
        {
          "duration": 0.2857144999999832,
          "durationTicks": 240,
          "midi": 54,
          "name": "F#3",
          "ticks": 159360,
          "time": 189.714428,
          "velocity": 0.3464566929133858
        },
        {
          "duration": 0.2857144999999832,
          "durationTicks": 240,
          "midi": 59,
          "name": "B3",
          "ticks": 159360,
          "time": 189.714428,
          "velocity": 0.28346456692913385
        },
        {
          "duration": 0.2857144999999832,
          "durationTicks": 240,
          "midi": 63,
          "name": "D#4",
          "ticks": 159360,
          "time": 189.714428,
          "velocity": 0.2677165354330709
        },
        {
          "duration": 0.2857144999999832,
          "durationTicks": 240,
          "midi": 68,
          "name": "G#4",
          "ticks": 159360,
          "time": 189.714428,
          "velocity": 0.5433070866141733
        },
        {
          "duration": 0.14285725000002003,
          "durationTicks": 120,
          "midi": 35,
          "name": "B1",
          "ticks": 159600,
          "time": 190.00014249999998,
          "velocity": 0.30708661417322836
        },
        {
          "duration": 0.11904770833331213,
          "durationTicks": 100,
          "midi": 37,
          "name": "C#2",
          "ticks": 159720,
          "time": 190.14299975,
          "velocity": 0.3779527559055118
        },
        {
          "duration": 0.1428572499999916,
          "durationTicks": 120,
          "midi": 66,
          "name": "F#4",
          "ticks": 159840,
          "time": 190.285857,
          "velocity": 0.31496062992125984
        },
        {
          "duration": 0.11904770833331213,
          "durationTicks": 100,
          "midi": 37,
          "name": "C#2",
          "ticks": 159960,
          "time": 190.42871424999998,
          "velocity": 0.2992125984251969
        },
        {
          "duration": 0.1666667916666711,
          "durationTicks": 140,
          "midi": 63,
          "name": "D#4",
          "ticks": 159960,
          "time": 190.42871424999998,
          "velocity": 0.3858267716535433
        },
        {
          "duration": 0.14285725000002003,
          "durationTicks": 120,
          "midi": 35,
          "name": "B1",
          "ticks": 160080,
          "time": 190.57157149999998,
          "velocity": 0.30708661417322836
        },
        {
          "duration": 0.1666667916666711,
          "durationTicks": 140,
          "midi": 36,
          "name": "C2",
          "ticks": 160200,
          "time": 190.71442875,
          "velocity": 0.2992125984251969
        },
        {
          "duration": 0.1666667916666711,
          "durationTicks": 140,
          "midi": 37,
          "name": "C#2",
          "ticks": 160200,
          "time": 190.71442875,
          "velocity": 0.30708661417322836
        },
        {
          "duration": 0.28571450000001164,
          "durationTicks": 240,
          "midi": 37,
          "name": "C#2",
          "ticks": 160320,
          "time": 190.857286,
          "velocity": 0.36220472440944884
        },
        {
          "duration": 0.28571450000001164,
          "durationTicks": 240,
          "midi": 68,
          "name": "G#4",
          "ticks": 160320,
          "time": 190.857286,
          "velocity": 0.8188976377952756
        },
        {
          "duration": 0.11904770833331213,
          "durationTicks": 100,
          "midi": 35,
          "name": "B1",
          "ticks": 160560,
          "time": 191.1430005,
          "velocity": 0.3464566929133858
        },
        {
          "duration": 0.11904770833331213,
          "durationTicks": 100,
          "midi": 49,
          "name": "C#3",
          "ticks": 160560,
          "time": 191.1430005,
          "velocity": 0.3858267716535433
        },
        {
          "duration": 0.2857144999999832,
          "durationTicks": 240,
          "midi": 37,
          "name": "C#2",
          "ticks": 160680,
          "time": 191.28585775,
          "velocity": 0.3700787401574803
        },
        {
          "duration": 0.2857144999999832,
          "durationTicks": 240,
          "midi": 59,
          "name": "B3",
          "ticks": 160680,
          "time": 191.28585775,
          "velocity": 0.3464566929133858
        },
        {
          "duration": 0.14285725000002003,
          "durationTicks": 120,
          "midi": 37,
          "name": "C#2",
          "ticks": 160920,
          "time": 191.57157224999997,
          "velocity": 0.4094488188976378
        },
        {
          "duration": 0.14285725000002003,
          "durationTicks": 120,
          "midi": 49,
          "name": "C#3",
          "ticks": 160920,
          "time": 191.57157224999997,
          "velocity": 0.4094488188976378
        },
        {
          "duration": 0.14285725000002003,
          "durationTicks": 120,
          "midi": 63,
          "name": "D#4",
          "ticks": 160920,
          "time": 191.57157224999997,
          "velocity": 0.25984251968503935
        },
        {
          "duration": 0.3095240416666627,
          "durationTicks": 260,
          "midi": 35,
          "name": "B1",
          "ticks": 161040,
          "time": 191.7144295,
          "velocity": 0.33858267716535434
        },
        {
          "duration": 0.3095240416666627,
          "durationTicks": 260,
          "midi": 49,
          "name": "C#3",
          "ticks": 161040,
          "time": 191.7144295,
          "velocity": 0.3464566929133858
        },
        {
          "duration": 0.14285725000002003,
          "durationTicks": 120,
          "midi": 37,
          "name": "C#2",
          "ticks": 161280,
          "time": 192.00014399999998,
          "velocity": 0.33070866141732286
        },
        {
          "duration": 0.14285725000002003,
          "durationTicks": 120,
          "midi": 49,
          "name": "C#3",
          "ticks": 161280,
          "time": 192.00014399999998,
          "velocity": 0.33070866141732286
        },
        {
          "duration": 0.14285725000002003,
          "durationTicks": 120,
          "midi": 54,
          "name": "F#3",
          "ticks": 161280,
          "time": 192.00014399999998,
          "velocity": 0.4094488188976378
        },
        {
          "duration": 0.14285725000002003,
          "durationTicks": 120,
          "midi": 59,
          "name": "B3",
          "ticks": 161280,
          "time": 192.00014399999998,
          "velocity": 0.29133858267716534
        },
        {
          "duration": 0.14285725000002003,
          "durationTicks": 120,
          "midi": 63,
          "name": "D#4",
          "ticks": 161280,
          "time": 192.00014399999998,
          "velocity": 0.2440944881889764
        },
        {
          "duration": 0.11904770833334055,
          "durationTicks": 100,
          "midi": 66,
          "name": "F#4",
          "ticks": 161280,
          "time": 192.00014399999998,
          "velocity": 0.5433070866141733
        },
        {
          "duration": 0.11904770833331213,
          "durationTicks": 100,
          "midi": 68,
          "name": "G#4",
          "ticks": 161400,
          "time": 192.14300125,
          "velocity": 0.3464566929133858
        },
        {
          "duration": 0.1428572499999916,
          "durationTicks": 120,
          "midi": 35,
          "name": "B1",
          "ticks": 161520,
          "time": 192.2858585,
          "velocity": 0.30708661417322836
        },
        {
          "duration": 0.11904770833334055,
          "durationTicks": 100,
          "midi": 35,
          "name": "B1",
          "ticks": 161640,
          "time": 192.42871574999998,
          "velocity": 0.33070866141732286
        },
        {
          "duration": 0.11904770833334055,
          "durationTicks": 100,
          "midi": 37,
          "name": "C#2",
          "ticks": 161640,
          "time": 192.42871574999998,
          "velocity": 0.4330708661417323
        },
        {
          "duration": 0.11904770833334055,
          "durationTicks": 100,
          "midi": 63,
          "name": "D#4",
          "ticks": 161640,
          "time": 192.42871574999998,
          "velocity": 0.23622047244094488
        },
        {
          "duration": 0.19047633333332215,
          "durationTicks": 160,
          "midi": 63,
          "name": "D#4",
          "ticks": 161760,
          "time": 192.571573,
          "velocity": 0.23622047244094488
        },
        {
          "duration": 0.1428572499999916,
          "durationTicks": 120,
          "midi": 68,
          "name": "G#4",
          "ticks": 161760,
          "time": 192.571573,
          "velocity": 0.4330708661417323
        },
        {
          "duration": 0.1666667916666711,
          "durationTicks": 140,
          "midi": 37,
          "name": "C#2",
          "ticks": 161880,
          "time": 192.71443025,
          "velocity": 0.3858267716535433
        },
        {
          "duration": 0.1428572499999916,
          "durationTicks": 120,
          "midi": 35,
          "name": "B1",
          "ticks": 162000,
          "time": 192.85728749999998,
          "velocity": 0.3228346456692913
        },
        {
          "duration": 0.1428572499999916,
          "durationTicks": 120,
          "midi": 53,
          "name": "F3",
          "ticks": 162000,
          "time": 192.85728749999998,
          "velocity": 0.25984251968503935
        },
        {
          "duration": 0.1428572499999916,
          "durationTicks": 120,
          "midi": 59,
          "name": "B3",
          "ticks": 162000,
          "time": 192.85728749999998,
          "velocity": 0.31496062992125984
        },
        {
          "duration": 0.1428572499999916,
          "durationTicks": 120,
          "midi": 63,
          "name": "D#4",
          "ticks": 162000,
          "time": 192.85728749999998,
          "velocity": 0.41732283464566927
        },
        {
          "duration": 0.1428572499999916,
          "durationTicks": 120,
          "midi": 65,
          "name": "F4",
          "ticks": 162000,
          "time": 192.85728749999998,
          "velocity": 0.25984251968503935
        },
        {
          "duration": 0.1428572499999916,
          "durationTicks": 120,
          "midi": 68,
          "name": "G#4",
          "ticks": 162000,
          "time": 192.85728749999998,
          "velocity": 0.4330708661417323
        },
        {
          "duration": 0.1666667916666995,
          "durationTicks": 140,
          "midi": 63,
          "name": "D#4",
          "ticks": 162120,
          "time": 193.00014474999998,
          "velocity": 0.4330708661417323
        },
        {
          "duration": 0.1666667916666995,
          "durationTicks": 140,
          "midi": 69,
          "name": "A4",
          "ticks": 162120,
          "time": 193.00014474999998,
          "velocity": 0.36220472440944884
        },
        {
          "duration": 0.2857144999999832,
          "durationTicks": 240,
          "midi": 37,
          "name": "C#2",
          "ticks": 162240,
          "time": 193.143002,
          "velocity": 0.4330708661417323
        },
        {
          "duration": 0.2857144999999832,
          "durationTicks": 240,
          "midi": 63,
          "name": "D#4",
          "ticks": 162240,
          "time": 193.143002,
          "velocity": 0.23622047244094488
        },
        {
          "duration": 0.11904770833334055,
          "durationTicks": 100,
          "midi": 32,
          "name": "G#1",
          "ticks": 162480,
          "time": 193.42871649999998,
          "velocity": 0.4015748031496063
        },
        {
          "duration": 0.11904770833334055,
          "durationTicks": 100,
          "midi": 63,
          "name": "D#4",
          "ticks": 162480,
          "time": 193.42871649999998,
          "velocity": 0.2677165354330709
        },
        {
          "duration": 0.1428572499999916,
          "durationTicks": 120,
          "midi": 37,
          "name": "C#2",
          "ticks": 162600,
          "time": 193.57157375,
          "velocity": 0.44881889763779526
        },
        {
          "duration": 0.1428572499999916,
          "durationTicks": 120,
          "midi": 71,
          "name": "B4",
          "ticks": 162600,
          "time": 193.57157375,
          "velocity": 0.5039370078740157
        },
        {
          "duration": 0.1666667916666711,
          "durationTicks": 140,
          "midi": 53,
          "name": "F3",
          "ticks": 162720,
          "time": 193.714431,
          "velocity": 0.28346456692913385
        },
        {
          "duration": 0.11904770833331213,
          "durationTicks": 100,
          "midi": 63,
          "name": "D#4",
          "ticks": 162720,
          "time": 193.714431,
          "velocity": 0.2440944881889764
        },
        {
          "duration": 0.28571450000001164,
          "durationTicks": 240,
          "midi": 37,
          "name": "C#2",
          "ticks": 162840,
          "time": 193.85728824999998,
          "velocity": 0.31496062992125984
        },
        {
          "duration": 0.28571450000001164,
          "durationTicks": 240,
          "midi": 53,
          "name": "F3",
          "ticks": 162840,
          "time": 193.85728824999998,
          "velocity": 0.25984251968503935
        },
        {
          "duration": 0.1428572499999916,
          "durationTicks": 120,
          "midi": 36,
          "name": "C2",
          "ticks": 163080,
          "time": 194.14300275,
          "velocity": 0.3228346456692913
        },
        {
          "duration": 0.28571450000001164,
          "durationTicks": 240,
          "midi": 35,
          "name": "B1",
          "ticks": 163200,
          "time": 194.28585999999999,
          "velocity": 0.4094488188976378
        },
        {
          "duration": 0.28571450000001164,
          "durationTicks": 240,
          "midi": 47,
          "name": "B2",
          "ticks": 163200,
          "time": 194.28585999999999,
          "velocity": 0.2992125984251969
        },
        {
          "duration": 0.28571450000001164,
          "durationTicks": 240,
          "midi": 52,
          "name": "E3",
          "ticks": 163200,
          "time": 194.28585999999999,
          "velocity": 0.29133858267716534
        },
        {
          "duration": 0.28571450000001164,
          "durationTicks": 240,
          "midi": 57,
          "name": "A3",
          "ticks": 163200,
          "time": 194.28585999999999,
          "velocity": 0.5275590551181102
        },
        {
          "duration": 0.28571450000001164,
          "durationTicks": 240,
          "midi": 61,
          "name": "C#4",
          "ticks": 163200,
          "time": 194.28585999999999,
          "velocity": 0.28346456692913385
        },
        {
          "duration": 0.28571450000001164,
          "durationTicks": 240,
          "midi": 64,
          "name": "E4",
          "ticks": 163200,
          "time": 194.28585999999999,
          "velocity": 0.23622047244094488
        },
        {
          "duration": 0.28571450000001164,
          "durationTicks": 240,
          "midi": 69,
          "name": "A4",
          "ticks": 163200,
          "time": 194.28585999999999,
          "velocity": 0.6141732283464567
        },
        {
          "duration": 0.1428572499999916,
          "durationTicks": 120,
          "midi": 33,
          "name": "A1",
          "ticks": 163440,
          "time": 194.5715745,
          "velocity": 0.2755905511811024
        },
        {
          "duration": 0.1428572499999916,
          "durationTicks": 120,
          "midi": 52,
          "name": "E3",
          "ticks": 163440,
          "time": 194.5715745,
          "velocity": 0.31496062992125984
        },
        {
          "duration": 0.26190495833333216,
          "durationTicks": 220,
          "midi": 35,
          "name": "B1",
          "ticks": 163560,
          "time": 194.71443175,
          "velocity": 0.33858267716535434
        },
        {
          "duration": 0.26190495833333216,
          "durationTicks": 220,
          "midi": 52,
          "name": "E3",
          "ticks": 163560,
          "time": 194.71443175,
          "velocity": 0.2755905511811024
        },
        {
          "duration": 0.26190495833333216,
          "durationTicks": 220,
          "midi": 57,
          "name": "A3",
          "ticks": 163560,
          "time": 194.71443175,
          "velocity": 0.5275590551181102
        },
        {
          "duration": 0.26190495833333216,
          "durationTicks": 220,
          "midi": 61,
          "name": "C#4",
          "ticks": 163560,
          "time": 194.71443175,
          "velocity": 0.2440944881889764
        },
        {
          "duration": 0.26190495833333216,
          "durationTicks": 220,
          "midi": 64,
          "name": "E4",
          "ticks": 163560,
          "time": 194.71443175,
          "velocity": 0.2755905511811024
        },
        {
          "duration": 0.11904770833331213,
          "durationTicks": 100,
          "midi": 47,
          "name": "B2",
          "ticks": 163800,
          "time": 195.00014625,
          "velocity": 0.2992125984251969
        },
        {
          "duration": 0.2857144999999832,
          "durationTicks": 240,
          "midi": 33,
          "name": "A1",
          "ticks": 163920,
          "time": 195.1430035,
          "velocity": 0.2755905511811024
        },
        {
          "duration": 0.2857144999999832,
          "durationTicks": 240,
          "midi": 61,
          "name": "C#4",
          "ticks": 163920,
          "time": 195.1430035,
          "velocity": 0.4015748031496063
        },
        {
          "duration": 0.2857144999999832,
          "durationTicks": 240,
          "midi": 64,
          "name": "E4",
          "ticks": 163920,
          "time": 195.1430035,
          "velocity": 0.2204724409448819
        },
        {
          "duration": 0.28571450000001164,
          "durationTicks": 240,
          "midi": 35,
          "name": "B1",
          "ticks": 164160,
          "time": 195.42871799999998,
          "velocity": 0.36220472440944884
        },
        {
          "duration": 0.28571450000001164,
          "durationTicks": 240,
          "midi": 66,
          "name": "F#4",
          "ticks": 164160,
          "time": 195.42871799999998,
          "velocity": 0.2992125984251969
        },
        {
          "duration": 0.11904770833331213,
          "durationTicks": 100,
          "midi": 33,
          "name": "A1",
          "ticks": 164400,
          "time": 195.7144325,
          "velocity": 0.36220472440944884
        },
        {
          "duration": 0.11904770833331213,
          "durationTicks": 100,
          "midi": 52,
          "name": "E3",
          "ticks": 164400,
          "time": 195.7144325,
          "velocity": 0.33070866141732286
        },
        {
          "duration": 0.11904770833331213,
          "durationTicks": 100,
          "midi": 57,
          "name": "A3",
          "ticks": 164400,
          "time": 195.7144325,
          "velocity": 0.3937007874015748
        },
        {
          "duration": 0.28571450000001164,
          "durationTicks": 240,
          "midi": 35,
          "name": "B1",
          "ticks": 164520,
          "time": 195.85728974999998,
          "velocity": 0.3228346456692913
        },
        {
          "duration": 0.1428572499999916,
          "durationTicks": 120,
          "midi": 35,
          "name": "B1",
          "ticks": 164760,
          "time": 196.14300425,
          "velocity": 0.3858267716535433
        },
        {
          "duration": 0.1428572499999916,
          "durationTicks": 120,
          "midi": 47,
          "name": "B2",
          "ticks": 164760,
          "time": 196.14300425,
          "velocity": 0.2677165354330709
        },
        {
          "duration": 0.1428572499999916,
          "durationTicks": 120,
          "midi": 52,
          "name": "E3",
          "ticks": 164760,
          "time": 196.14300425,
          "velocity": 0.2677165354330709
        },
        {
          "duration": 0.1428572499999916,
          "durationTicks": 120,
          "midi": 57,
          "name": "A3",
          "ticks": 164760,
          "time": 196.14300425,
          "velocity": 0.3464566929133858
        },
        {
          "duration": 0.1428572499999916,
          "durationTicks": 120,
          "midi": 61,
          "name": "C#4",
          "ticks": 164760,
          "time": 196.14300425,
          "velocity": 0.28346456692913385
        },
        {
          "duration": 0.1428572499999916,
          "durationTicks": 120,
          "midi": 64,
          "name": "E4",
          "ticks": 164760,
          "time": 196.14300425,
          "velocity": 0.2677165354330709
        },
        {
          "duration": 0.11904770833334055,
          "durationTicks": 100,
          "midi": 33,
          "name": "A1",
          "ticks": 164880,
          "time": 196.28586149999998,
          "velocity": 0.2992125984251969
        },
        {
          "duration": 0.1428572499999916,
          "durationTicks": 120,
          "midi": 34,
          "name": "A#1",
          "ticks": 165000,
          "time": 196.42871875,
          "velocity": 0.33858267716535434
        },
        {
          "duration": 0.1428572499999916,
          "durationTicks": 120,
          "midi": 35,
          "name": "B1",
          "ticks": 165120,
          "time": 196.571576,
          "velocity": 0.47244094488188976
        },
        {
          "duration": 0.1428572499999916,
          "durationTicks": 120,
          "midi": 57,
          "name": "A3",
          "ticks": 165120,
          "time": 196.571576,
          "velocity": 0.31496062992125984
        },
        {
          "duration": 0.1428572499999916,
          "durationTicks": 120,
          "midi": 61,
          "name": "C#4",
          "ticks": 165120,
          "time": 196.571576,
          "velocity": 0.23622047244094488
        },
        {
          "duration": 0.1428572499999916,
          "durationTicks": 120,
          "midi": 64,
          "name": "E4",
          "ticks": 165120,
          "time": 196.571576,
          "velocity": 0.29133858267716534
        },
        {
          "duration": 0.1428572499999916,
          "durationTicks": 120,
          "midi": 69,
          "name": "A4",
          "ticks": 165120,
          "time": 196.571576,
          "velocity": 0.31496062992125984
        },
        {
          "duration": 0.11904770833331213,
          "durationTicks": 100,
          "midi": 57,
          "name": "A3",
          "ticks": 165240,
          "time": 196.71443324999998,
          "velocity": 0.5826771653543307
        },
        {
          "duration": 0.11904770833331213,
          "durationTicks": 100,
          "midi": 69,
          "name": "A4",
          "ticks": 165240,
          "time": 196.71443324999998,
          "velocity": 0.5826771653543307
        },
        {
          "duration": 0.14285725000002003,
          "durationTicks": 120,
          "midi": 35,
          "name": "B1",
          "ticks": 165360,
          "time": 196.85729049999998,
          "velocity": 0.3779527559055118
        },
        {
          "duration": 0.11904770833331213,
          "durationTicks": 100,
          "midi": 33,
          "name": "A1",
          "ticks": 165480,
          "time": 197.00014775,
          "velocity": 0.49606299212598426
        },
        {
          "duration": 0.11904770833331213,
          "durationTicks": 100,
          "midi": 39,
          "name": "D#2",
          "ticks": 165480,
          "time": 197.00014775,
          "velocity": 0.29133858267716534
        },
        {
          "duration": 0.11904770833331213,
          "durationTicks": 100,
          "midi": 57,
          "name": "A3",
          "ticks": 165480,
          "time": 197.00014775,
          "velocity": 0.4330708661417323
        },
        {
          "duration": 0.11904770833331213,
          "durationTicks": 100,
          "midi": 61,
          "name": "C#4",
          "ticks": 165480,
          "time": 197.00014775,
          "velocity": 0.2204724409448819
        },
        {
          "duration": 0.1428572499999916,
          "durationTicks": 120,
          "midi": 40,
          "name": "E2",
          "ticks": 165600,
          "time": 197.143005,
          "velocity": 0.25984251968503935
        },
        {
          "duration": 0.1428572499999916,
          "durationTicks": 120,
          "midi": 69,
          "name": "A4",
          "ticks": 165600,
          "time": 197.143005,
          "velocity": 0.6299212598425197
        },
        {
          "duration": 0.11904770833334055,
          "durationTicks": 100,
          "midi": 39,
          "name": "D#2",
          "ticks": 165720,
          "time": 197.28586224999998,
          "velocity": 0.30708661417322836
        },
        {
          "duration": 0.1428572499999916,
          "durationTicks": 120,
          "midi": 40,
          "name": "E2",
          "ticks": 165840,
          "time": 197.4287195,
          "velocity": 0.2677165354330709
        },
        {
          "duration": 0.1428572499999916,
          "durationTicks": 120,
          "midi": 51,
          "name": "D#3",
          "ticks": 165840,
          "time": 197.4287195,
          "velocity": 0.25984251968503935
        },
        {
          "duration": 0.1428572499999916,
          "durationTicks": 120,
          "midi": 57,
          "name": "A3",
          "ticks": 165840,
          "time": 197.4287195,
          "velocity": 0.3858267716535433
        },
        {
          "duration": 0.1428572499999916,
          "durationTicks": 120,
          "midi": 61,
          "name": "C#4",
          "ticks": 165840,
          "time": 197.4287195,
          "velocity": 0.23622047244094488
        },
        {
          "duration": 0.1428572499999916,
          "durationTicks": 120,
          "midi": 69,
          "name": "A4",
          "ticks": 165840,
          "time": 197.4287195,
          "velocity": 0.4330708661417323
        },
        {
          "duration": 0.1666667916666711,
          "durationTicks": 140,
          "midi": 40,
          "name": "E2",
          "ticks": 165960,
          "time": 197.57157675,
          "velocity": 0.2755905511811024
        },
        {
          "duration": 0.28571450000001164,
          "durationTicks": 240,
          "midi": 41,
          "name": "F2",
          "ticks": 166080,
          "time": 197.71443399999998,
          "velocity": 0.2283464566929134
        },
        {
          "duration": 0.28571450000001164,
          "durationTicks": 240,
          "midi": 64,
          "name": "E4",
          "ticks": 166080,
          "time": 197.71443399999998,
          "velocity": 0.23622047244094488
        },
        {
          "duration": 0.11904770833331213,
          "durationTicks": 100,
          "midi": 39,
          "name": "D#2",
          "ticks": 166320,
          "time": 198.0001485,
          "velocity": 0.36220472440944884
        },
        {
          "duration": 0.11904770833331213,
          "durationTicks": 100,
          "midi": 69,
          "name": "A4",
          "ticks": 166320,
          "time": 198.0001485,
          "velocity": 0.28346456692913385
        },
        {
          "duration": 0.11904770833331213,
          "durationTicks": 100,
          "midi": 42,
          "name": "F#2",
          "ticks": 166440,
          "time": 198.14300575,
          "velocity": 0.3464566929133858
        },
        {
          "duration": 0.14285725000002003,
          "durationTicks": 120,
          "midi": 57,
          "name": "A3",
          "ticks": 166560,
          "time": 198.28586299999998,
          "velocity": 0.6141732283464567
        },
        {
          "duration": 0.14285725000002003,
          "durationTicks": 120,
          "midi": 64,
          "name": "E4",
          "ticks": 166560,
          "time": 198.28586299999998,
          "velocity": 0.2677165354330709
        },
        {
          "duration": 0.11904770833331213,
          "durationTicks": 100,
          "midi": 33,
          "name": "A1",
          "ticks": 166680,
          "time": 198.42872025,
          "velocity": 0.3700787401574803
        },
        {
          "duration": 0.11904770833331213,
          "durationTicks": 100,
          "midi": 39,
          "name": "D#2",
          "ticks": 166680,
          "time": 198.42872025,
          "velocity": 0.3228346456692913
        },
        {
          "duration": 0.11904770833331213,
          "durationTicks": 100,
          "midi": 45,
          "name": "A2",
          "ticks": 166680,
          "time": 198.42872025,
          "velocity": 0.30708661417322836
        },
        {
          "duration": 0.28571450000001164,
          "durationTicks": 240,
          "midi": 35,
          "name": "B1",
          "ticks": 166800,
          "time": 198.5715775,
          "velocity": 0.2677165354330709
        },
        {
          "duration": 0.2857144999999832,
          "durationTicks": 240,
          "midi": 37,
          "name": "C#2",
          "ticks": 167040,
          "time": 198.857292,
          "velocity": 0.3700787401574803
        },
        {
          "duration": 0.2857144999999832,
          "durationTicks": 240,
          "midi": 47,
          "name": "B2",
          "ticks": 167040,
          "time": 198.857292,
          "velocity": 0.29133858267716534
        },
        {
          "duration": 0.2857144999999832,
          "durationTicks": 240,
          "midi": 49,
          "name": "C#3",
          "ticks": 167040,
          "time": 198.857292,
          "velocity": 0.3700787401574803
        },
        {
          "duration": 0.2857144999999832,
          "durationTicks": 240,
          "midi": 59,
          "name": "B3",
          "ticks": 167040,
          "time": 198.857292,
          "velocity": 0.28346456692913385
        },
        {
          "duration": 0.2857144999999832,
          "durationTicks": 240,
          "midi": 63,
          "name": "D#4",
          "ticks": 167040,
          "time": 198.857292,
          "velocity": 0.2755905511811024
        },
        {
          "duration": 0.2857144999999832,
          "durationTicks": 240,
          "midi": 68,
          "name": "G#4",
          "ticks": 167040,
          "time": 198.857292,
          "velocity": 0.6299212598425197
        },
        {
          "duration": 0.2857144999999832,
          "durationTicks": 240,
          "midi": 71,
          "name": "B4",
          "ticks": 167040,
          "time": 198.857292,
          "velocity": 0.28346456692913385
        },
        {
          "duration": 0.2857144999999832,
          "durationTicks": 240,
          "midi": 75,
          "name": "D#5",
          "ticks": 167040,
          "time": 198.857292,
          "velocity": 0.4566929133858268
        },
        {
          "duration": 0.1428572499999916,
          "durationTicks": 120,
          "midi": 35,
          "name": "B1",
          "ticks": 167280,
          "time": 199.14300649999998,
          "velocity": 0.25196850393700787
        },
        {
          "duration": 0.14285725000002003,
          "durationTicks": 120,
          "midi": 37,
          "name": "C#2",
          "ticks": 167400,
          "time": 199.28586374999998,
          "velocity": 0.3779527559055118
        },
        {
          "duration": 0.14285725000002003,
          "durationTicks": 120,
          "midi": 66,
          "name": "F#4",
          "ticks": 167400,
          "time": 199.28586374999998,
          "velocity": 0.3779527559055118
        },
        {
          "duration": 0.1428572499999916,
          "durationTicks": 120,
          "midi": 68,
          "name": "G#4",
          "ticks": 167520,
          "time": 199.428721,
          "velocity": 0.5275590551181102
        },
        {
          "duration": 0.11904770833331213,
          "durationTicks": 100,
          "midi": 37,
          "name": "C#2",
          "ticks": 167640,
          "time": 199.57157825,
          "velocity": 0.3779527559055118
        },
        {
          "duration": 0.11904770833331213,
          "durationTicks": 100,
          "midi": 63,
          "name": "D#4",
          "ticks": 167640,
          "time": 199.57157825,
          "velocity": 0.25984251968503935
        },
        {
          "duration": 0.14285725000002003,
          "durationTicks": 120,
          "midi": 35,
          "name": "B1",
          "ticks": 167760,
          "time": 199.71443549999998,
          "velocity": 0.3228346456692913
        },
        {
          "duration": 0.14285725000002003,
          "durationTicks": 120,
          "midi": 66,
          "name": "F#4",
          "ticks": 167760,
          "time": 199.71443549999998,
          "velocity": 0.25196850393700787
        },
        {
          "duration": 0.14285725000002003,
          "durationTicks": 120,
          "midi": 71,
          "name": "B4",
          "ticks": 167760,
          "time": 199.71443549999998,
          "velocity": 0.28346456692913385
        },
        {
          "duration": 0.14285725000002003,
          "durationTicks": 120,
          "midi": 83,
          "name": "B5",
          "ticks": 167760,
          "time": 199.71443549999998,
          "velocity": 0.28346456692913385
        },
        {
          "duration": 0.11904770833331213,
          "durationTicks": 100,
          "midi": 36,
          "name": "C2",
          "ticks": 167880,
          "time": 199.85729275,
          "velocity": 0.31496062992125984
        },
        {
          "duration": 0.2857144999999832,
          "durationTicks": 240,
          "midi": 37,
          "name": "C#2",
          "ticks": 168000,
          "time": 200.00015,
          "velocity": 0.33070866141732286
        },
        {
          "duration": 0.2857144999999832,
          "durationTicks": 240,
          "midi": 49,
          "name": "C#3",
          "ticks": 168000,
          "time": 200.00015,
          "velocity": 0.33070866141732286
        },
        {
          "duration": 0.2857144999999832,
          "durationTicks": 240,
          "midi": 66,
          "name": "F#4",
          "ticks": 168000,
          "time": 200.00015,
          "velocity": 0.2440944881889764
        },
        {
          "duration": 0.2857144999999832,
          "durationTicks": 240,
          "midi": 68,
          "name": "G#4",
          "ticks": 168000,
          "time": 200.00015,
          "velocity": 0.5118110236220472
        },
        {
          "duration": 0.11904770833334055,
          "durationTicks": 100,
          "midi": 37,
          "name": "C#2",
          "ticks": 168240,
          "time": 200.28586449999997,
          "velocity": 0.4015748031496063
        },
        {
          "duration": 0.11904770833334055,
          "durationTicks": 100,
          "midi": 82,
          "name": "A#5",
          "ticks": 168240,
          "time": 200.28586449999997,
          "velocity": 0.2677165354330709
        },
        {
          "duration": 0.2857144999999832,
          "durationTicks": 240,
          "midi": 37,
          "name": "C#2",
          "ticks": 168360,
          "time": 200.42872175,
          "velocity": 0.5196850393700787
        },
        {
          "duration": 0.14285725000002003,
          "durationTicks": 120,
          "midi": 37,
          "name": "C#2",
          "ticks": 168600,
          "time": 200.71443624999998,
          "velocity": 0.3937007874015748
        },
        {
          "duration": 0.14285725000002003,
          "durationTicks": 120,
          "midi": 63,
          "name": "D#4",
          "ticks": 168600,
          "time": 200.71443624999998,
          "velocity": 0.2992125984251969
        },
        {
          "duration": 0.3095240416666627,
          "durationTicks": 260,
          "midi": 35,
          "name": "B1",
          "ticks": 168720,
          "time": 200.8572935,
          "velocity": 0.3464566929133858
        },
        {
          "duration": 0.3095240416666627,
          "durationTicks": 260,
          "midi": 61,
          "name": "C#4",
          "ticks": 168720,
          "time": 200.8572935,
          "velocity": 0.33858267716535434
        },
        {
          "duration": 0.3095240416666627,
          "durationTicks": 260,
          "midi": 69,
          "name": "A4",
          "ticks": 168720,
          "time": 200.8572935,
          "velocity": 0.1968503937007874
        },
        {
          "duration": 0.3095240416666627,
          "durationTicks": 260,
          "midi": 73,
          "name": "C#5",
          "ticks": 168720,
          "time": 200.8572935,
          "velocity": 0.2755905511811024
        },
        {
          "duration": 0.3095240416666627,
          "durationTicks": 260,
          "midi": 81,
          "name": "A5",
          "ticks": 168720,
          "time": 200.8572935,
          "velocity": 0.1968503937007874
        },
        {
          "duration": 0.3095240416666911,
          "durationTicks": 260,
          "midi": 37,
          "name": "C#2",
          "ticks": 168960,
          "time": 201.14300799999998,
          "velocity": 0.36220472440944884
        },
        {
          "duration": 0.26190495833333216,
          "durationTicks": 220,
          "midi": 54,
          "name": "F#3",
          "ticks": 168960,
          "time": 201.14300799999998,
          "velocity": 0.23622047244094488
        },
        {
          "duration": 0.3095240416666911,
          "durationTicks": 260,
          "midi": 59,
          "name": "B3",
          "ticks": 168960,
          "time": 201.14300799999998,
          "velocity": 0.30708661417322836
        },
        {
          "duration": 0.26190495833333216,
          "durationTicks": 220,
          "midi": 63,
          "name": "D#4",
          "ticks": 168960,
          "time": 201.14300799999998,
          "velocity": 0.30708661417322836
        },
        {
          "duration": 0.3095240416666911,
          "durationTicks": 260,
          "midi": 68,
          "name": "G#4",
          "ticks": 168960,
          "time": 201.14300799999998,
          "velocity": 0.2440944881889764
        },
        {
          "duration": 0.3095240416666911,
          "durationTicks": 260,
          "midi": 71,
          "name": "B4",
          "ticks": 168960,
          "time": 201.14300799999998,
          "velocity": 0.25196850393700787
        },
        {
          "duration": 0.1428572499999916,
          "durationTicks": 120,
          "midi": 35,
          "name": "B1",
          "ticks": 169200,
          "time": 201.4287225,
          "velocity": 0.31496062992125984
        },
        {
          "duration": 0.11904770833331213,
          "durationTicks": 100,
          "midi": 37,
          "name": "C#2",
          "ticks": 169320,
          "time": 201.57157974999998,
          "velocity": 0.4094488188976378
        },
        {
          "duration": 0.14285725000002003,
          "durationTicks": 120,
          "midi": 80,
          "name": "G#5",
          "ticks": 169440,
          "time": 201.71443699999998,
          "velocity": 0.5275590551181102
        },
        {
          "duration": 0.1666667916666711,
          "durationTicks": 140,
          "midi": 37,
          "name": "C#2",
          "ticks": 169560,
          "time": 201.85729425,
          "velocity": 0.36220472440944884
        },
        {
          "duration": 0.1428572499999916,
          "durationTicks": 120,
          "midi": 35,
          "name": "B1",
          "ticks": 169680,
          "time": 202.0001515,
          "velocity": 0.33858267716535434
        },
        {
          "duration": 0.1428572499999916,
          "durationTicks": 120,
          "midi": 53,
          "name": "F3",
          "ticks": 169680,
          "time": 202.0001515,
          "velocity": 0.3464566929133858
        },
        {
          "duration": 0.1428572499999916,
          "durationTicks": 120,
          "midi": 63,
          "name": "D#4",
          "ticks": 169680,
          "time": 202.0001515,
          "velocity": 0.31496062992125984
        },
        {
          "duration": 0.1428572499999916,
          "durationTicks": 120,
          "midi": 69,
          "name": "A4",
          "ticks": 169680,
          "time": 202.0001515,
          "velocity": 0.2283464566929134
        },
        {
          "duration": 0.1428572499999916,
          "durationTicks": 120,
          "midi": 73,
          "name": "C#5",
          "ticks": 169680,
          "time": 202.0001515,
          "velocity": 0.18110236220472442
        },
        {
          "duration": 0.1428572499999916,
          "durationTicks": 120,
          "midi": 77,
          "name": "F5",
          "ticks": 169680,
          "time": 202.0001515,
          "velocity": 0.25984251968503935
        },
        {
          "duration": 0.1428572499999916,
          "durationTicks": 120,
          "midi": 81,
          "name": "A5",
          "ticks": 169680,
          "time": 202.0001515,
          "velocity": 0.2047244094488189
        },
        {
          "duration": 0.1428572499999916,
          "durationTicks": 120,
          "midi": 82,
          "name": "A#5",
          "ticks": 169680,
          "time": 202.0001515,
          "velocity": 0.25984251968503935
        },
        {
          "duration": 0.26190495833333216,
          "durationTicks": 220,
          "midi": 37,
          "name": "C#2",
          "ticks": 169800,
          "time": 202.14300874999998,
          "velocity": 0.2755905511811024
        },
        {
          "duration": 0.26190495833333216,
          "durationTicks": 220,
          "midi": 69,
          "name": "A4",
          "ticks": 169800,
          "time": 202.14300874999998,
          "velocity": 0.4330708661417323
        },
        {
          "duration": 0.1428572499999916,
          "durationTicks": 120,
          "midi": 37,
          "name": "C#2",
          "ticks": 170040,
          "time": 202.42872325,
          "velocity": 0.3700787401574803
        },
        {
          "duration": 0.11904770833334055,
          "durationTicks": 100,
          "midi": 71,
          "name": "B4",
          "ticks": 170160,
          "time": 202.57158049999998,
          "velocity": 0.33858267716535434
        },
        {
          "duration": 0.14285725000002003,
          "durationTicks": 120,
          "midi": 41,
          "name": "F2",
          "ticks": 170280,
          "time": 202.71443774999997,
          "velocity": 0.36220472440944884
        },
        {
          "duration": 0.11904770833331213,
          "durationTicks": 100,
          "midi": 62,
          "name": "D4",
          "ticks": 170400,
          "time": 202.857295,
          "velocity": 0.2677165354330709
        },
        {
          "duration": 0.1428572499999916,
          "durationTicks": 120,
          "midi": 41,
          "name": "F2",
          "ticks": 170520,
          "time": 203.00015224999999,
          "velocity": 0.29133858267716534
        },
        {
          "duration": 0.1428572499999916,
          "durationTicks": 120,
          "midi": 65,
          "name": "F4",
          "ticks": 170520,
          "time": 203.00015224999999,
          "velocity": 0.33070866141732286
        },
        {
          "duration": 0.1428572499999916,
          "durationTicks": 120,
          "midi": 71,
          "name": "B4",
          "ticks": 170520,
          "time": 203.00015224999999,
          "velocity": 0.5826771653543307
        },
        {
          "duration": 0.1428572499999916,
          "durationTicks": 120,
          "midi": 74,
          "name": "D5",
          "ticks": 170520,
          "time": 203.00015224999999,
          "velocity": 0.1968503937007874
        },
        {
          "duration": 0.11904770833334055,
          "durationTicks": 100,
          "midi": 44,
          "name": "G#2",
          "ticks": 170640,
          "time": 203.14300949999998,
          "velocity": 0.33070866141732286
        },
        {
          "duration": 0.1428572499999916,
          "durationTicks": 120,
          "midi": 43,
          "name": "G2",
          "ticks": 170760,
          "time": 203.28586675,
          "velocity": 0.2755905511811024
        },
        {
          "duration": 0.26190495833333216,
          "durationTicks": 220,
          "midi": 42,
          "name": "F#2",
          "ticks": 170880,
          "time": 203.428724,
          "velocity": 0.30708661417322836
        },
        {
          "duration": 0.26190495833333216,
          "durationTicks": 220,
          "midi": 54,
          "name": "F#3",
          "ticks": 170880,
          "time": 203.428724,
          "velocity": 0.31496062992125984
        },
        {
          "duration": 0.26190495833333216,
          "durationTicks": 220,
          "midi": 57,
          "name": "A3",
          "ticks": 170880,
          "time": 203.428724,
          "velocity": 0.49606299212598426
        },
        {
          "duration": 0.26190495833333216,
          "durationTicks": 220,
          "midi": 61,
          "name": "C#4",
          "ticks": 170880,
          "time": 203.428724,
          "velocity": 0.3464566929133858
        },
        {
          "duration": 0.26190495833333216,
          "durationTicks": 220,
          "midi": 65,
          "name": "F4",
          "ticks": 170880,
          "time": 203.428724,
          "velocity": 0.3700787401574803
        },
        {
          "duration": 0.26190495833333216,
          "durationTicks": 220,
          "midi": 69,
          "name": "A4",
          "ticks": 170880,
          "time": 203.428724,
          "velocity": 0.5433070866141733
        },
        {
          "duration": 0.3095240416666627,
          "durationTicks": 260,
          "midi": 77,
          "name": "F5",
          "ticks": 170880,
          "time": 203.428724,
          "velocity": 0.2440944881889764
        },
        {
          "duration": 0.26190495833333216,
          "durationTicks": 220,
          "midi": 85,
          "name": "C#6",
          "ticks": 170880,
          "time": 203.428724,
          "velocity": 0.23622047244094488
        },
        {
          "duration": 0.1666667916666711,
          "durationTicks": 140,
          "midi": 37,
          "name": "C#2",
          "ticks": 171120,
          "time": 203.7144385,
          "velocity": 0.28346456692913385
        },
        {
          "duration": 0.1428572499999916,
          "durationTicks": 120,
          "midi": 42,
          "name": "F#2",
          "ticks": 171240,
          "time": 203.85729575,
          "velocity": 0.31496062992125984
        },
        {
          "duration": 0.1428572499999916,
          "durationTicks": 120,
          "midi": 61,
          "name": "C#4",
          "ticks": 171240,
          "time": 203.85729575,
          "velocity": 0.28346456692913385
        },
        {
          "duration": 0.1428572499999916,
          "durationTicks": 120,
          "midi": 57,
          "name": "A3",
          "ticks": 171360,
          "time": 204.00015299999998,
          "velocity": 0.5590551181102362
        },
        {
          "duration": 0.11904770833334055,
          "durationTicks": 100,
          "midi": 42,
          "name": "F#2",
          "ticks": 171480,
          "time": 204.14301024999997,
          "velocity": 0.25984251968503935
        },
        {
          "duration": 0.11904770833334055,
          "durationTicks": 100,
          "midi": 61,
          "name": "C#4",
          "ticks": 171480,
          "time": 204.14301024999997,
          "velocity": 0.2992125984251969
        },
        {
          "duration": 0.1428572499999916,
          "durationTicks": 120,
          "midi": 37,
          "name": "C#2",
          "ticks": 171600,
          "time": 204.2858675,
          "velocity": 0.29133858267716534
        },
        {
          "duration": 0.1428572499999916,
          "durationTicks": 120,
          "midi": 53,
          "name": "F3",
          "ticks": 171600,
          "time": 204.2858675,
          "velocity": 0.4409448818897638
        },
        {
          "duration": 0.19047633333332215,
          "durationTicks": 160,
          "midi": 77,
          "name": "F5",
          "ticks": 171600,
          "time": 204.2858675,
          "velocity": 0.18110236220472442
        },
        {
          "duration": 0.11904770833331213,
          "durationTicks": 100,
          "midi": 41,
          "name": "F2",
          "ticks": 171720,
          "time": 204.42872475,
          "velocity": 0.4094488188976378
        },
        {
          "duration": 0.14285725000002003,
          "durationTicks": 120,
          "midi": 40,
          "name": "E2",
          "ticks": 171840,
          "time": 204.57158199999998,
          "velocity": 0.31496062992125984
        },
        {
          "duration": 0.14285725000002003,
          "durationTicks": 120,
          "midi": 52,
          "name": "E3",
          "ticks": 171840,
          "time": 204.57158199999998,
          "velocity": 0.30708661417322836
        },
        {
          "duration": 0.14285725000002003,
          "durationTicks": 120,
          "midi": 57,
          "name": "A3",
          "ticks": 171840,
          "time": 204.57158199999998,
          "velocity": 0.4251968503937008
        },
        {
          "duration": 0.14285725000002003,
          "durationTicks": 120,
          "midi": 61,
          "name": "C#4",
          "ticks": 171840,
          "time": 204.57158199999998,
          "velocity": 0.2755905511811024
        },
        {
          "duration": 0.14285725000002003,
          "durationTicks": 120,
          "midi": 64,
          "name": "E4",
          "ticks": 171840,
          "time": 204.57158199999998,
          "velocity": 0.33070866141732286
        },
        {
          "duration": 0.11904770833331213,
          "durationTicks": 100,
          "midi": 40,
          "name": "E2",
          "ticks": 171960,
          "time": 204.71443925,
          "velocity": 0.4094488188976378
        },
        {
          "duration": 0.1428572499999916,
          "durationTicks": 120,
          "midi": 40,
          "name": "E2",
          "ticks": 172080,
          "time": 204.8572965,
          "velocity": 0.41732283464566927
        },
        {
          "duration": 0.3095240416666911,
          "durationTicks": 260,
          "midi": 37,
          "name": "C#2",
          "ticks": 172200,
          "time": 205.00015374999998,
          "velocity": 0.3779527559055118
        },
        {
          "duration": 0.1428572499999916,
          "durationTicks": 120,
          "midi": 37,
          "name": "C#2",
          "ticks": 172440,
          "time": 205.28586825,
          "velocity": 0.3779527559055118
        },
        {
          "duration": 0.1428572499999916,
          "durationTicks": 120,
          "midi": 57,
          "name": "A3",
          "ticks": 172440,
          "time": 205.28586825,
          "velocity": 0.4566929133858268
        },
        {
          "duration": 0.1666667916666711,
          "durationTicks": 140,
          "midi": 40,
          "name": "E2",
          "ticks": 172560,
          "time": 205.42872549999998,
          "velocity": 0.2992125984251969
        },
        {
          "duration": 0.11904770833331213,
          "durationTicks": 100,
          "midi": 50,
          "name": "D3",
          "ticks": 172560,
          "time": 205.42872549999998,
          "velocity": 0.31496062992125984
        },
        {
          "duration": 0.1666667916666711,
          "durationTicks": 140,
          "midi": 64,
          "name": "E4",
          "ticks": 172560,
          "time": 205.42872549999998,
          "velocity": 0.36220472440944884
        },
        {
          "duration": 0.1666667916666711,
          "durationTicks": 140,
          "midi": 71,
          "name": "B4",
          "ticks": 172560,
          "time": 205.42872549999998,
          "velocity": 0.2204724409448819
        },
        {
          "duration": 0.19047633333332215,
          "durationTicks": 160,
          "midi": 59,
          "name": "B3",
          "ticks": 172680,
          "time": 205.57158274999998,
          "velocity": 0.3543307086614173
        },
        {
          "duration": 0.14285725000002003,
          "durationTicks": 120,
          "midi": 60,
          "name": "C4",
          "ticks": 172680,
          "time": 205.57158274999998,
          "velocity": 0.2677165354330709
        },
        {
          "duration": 0.3095240416666627,
          "durationTicks": 260,
          "midi": 39,
          "name": "D#2",
          "ticks": 172800,
          "time": 205.71444,
          "velocity": 0.4330708661417323
        },
        {
          "duration": 0.3095240416666627,
          "durationTicks": 260,
          "midi": 54,
          "name": "F#3",
          "ticks": 172800,
          "time": 205.71444,
          "velocity": 0.33858267716535434
        },
        {
          "duration": 0.3095240416666627,
          "durationTicks": 260,
          "midi": 57,
          "name": "A3",
          "ticks": 172800,
          "time": 205.71444,
          "velocity": 0.25196850393700787
        },
        {
          "duration": 0.3095240416666627,
          "durationTicks": 260,
          "midi": 61,
          "name": "C#4",
          "ticks": 172800,
          "time": 205.71444,
          "velocity": 0.28346456692913385
        },
        {
          "duration": 0.3095240416666627,
          "durationTicks": 260,
          "midi": 66,
          "name": "F#4",
          "ticks": 172800,
          "time": 205.71444,
          "velocity": 0.33858267716535434
        },
        {
          "duration": 0.3095240416666627,
          "durationTicks": 260,
          "midi": 69,
          "name": "A4",
          "ticks": 172800,
          "time": 205.71444,
          "velocity": 0.25196850393700787
        },
        {
          "duration": 0.3095240416666627,
          "durationTicks": 260,
          "midi": 73,
          "name": "C#5",
          "ticks": 172800,
          "time": 205.71444,
          "velocity": 0.25984251968503935
        },
        {
          "duration": 0.11904770833334055,
          "durationTicks": 100,
          "midi": 39,
          "name": "D#2",
          "ticks": 173040,
          "time": 206.00015449999998,
          "velocity": 0.3779527559055118
        },
        {
          "duration": 0.11904770833334055,
          "durationTicks": 100,
          "midi": 66,
          "name": "F#4",
          "ticks": 173040,
          "time": 206.00015449999998,
          "velocity": 0.2283464566929134
        },
        {
          "duration": 0.1428572499999916,
          "durationTicks": 120,
          "midi": 33,
          "name": "A1",
          "ticks": 173160,
          "time": 206.14301175,
          "velocity": 0.3858267716535433
        },
        {
          "duration": 0.1428572499999916,
          "durationTicks": 120,
          "midi": 57,
          "name": "A3",
          "ticks": 173280,
          "time": 206.285869,
          "velocity": 0.3700787401574803
        },
        {
          "duration": 0.1428572499999916,
          "durationTicks": 120,
          "midi": 61,
          "name": "C#4",
          "ticks": 173280,
          "time": 206.285869,
          "velocity": 0.3779527559055118
        },
        {
          "duration": 0.1428572499999916,
          "durationTicks": 120,
          "midi": 66,
          "name": "F#4",
          "ticks": 173280,
          "time": 206.285869,
          "velocity": 0.2440944881889764
        },
        {
          "duration": 0.1428572499999916,
          "durationTicks": 120,
          "midi": 69,
          "name": "A4",
          "ticks": 173280,
          "time": 206.285869,
          "velocity": 0.47244094488188976
        },
        {
          "duration": 0.11904770833334055,
          "durationTicks": 100,
          "midi": 39,
          "name": "D#2",
          "ticks": 173400,
          "time": 206.42872624999998,
          "velocity": 0.33858267716535434
        },
        {
          "duration": 0.5714290000000233,
          "durationTicks": 480,
          "midi": 32,
          "name": "G#1",
          "ticks": 173520,
          "time": 206.57158349999997,
          "velocity": 0.44881889763779526
        },
        {
          "duration": 0.5714290000000233,
          "durationTicks": 480,
          "midi": 33,
          "name": "A1",
          "ticks": 173520,
          "time": 206.57158349999997,
          "velocity": 0.48031496062992124
        },
        {
          "duration": 0.5714290000000233,
          "durationTicks": 480,
          "midi": 44,
          "name": "G#2",
          "ticks": 173520,
          "time": 206.57158349999997,
          "velocity": 0.36220472440944884
        },
        {
          "duration": 0.5714290000000233,
          "durationTicks": 480,
          "midi": 54,
          "name": "F#3",
          "ticks": 173520,
          "time": 206.57158349999997,
          "velocity": 0.29133858267716534
        },
        {
          "duration": 0.5714290000000233,
          "durationTicks": 480,
          "midi": 60,
          "name": "C4",
          "ticks": 173520,
          "time": 206.57158349999997,
          "velocity": 0.25984251968503935
        },
        {
          "duration": 0.5714290000000233,
          "durationTicks": 480,
          "midi": 62,
          "name": "D4",
          "ticks": 173520,
          "time": 206.57158349999997,
          "velocity": 0.2992125984251969
        },
        {
          "duration": 0.5714290000000233,
          "durationTicks": 480,
          "midi": 66,
          "name": "F#4",
          "ticks": 173520,
          "time": 206.57158349999997,
          "velocity": 0.29133858267716534
        },
        {
          "duration": 0.5714290000000233,
          "durationTicks": 480,
          "midi": 71,
          "name": "B4",
          "ticks": 173520,
          "time": 206.57158349999997,
          "velocity": 0.23622047244094488
        },
        {
          "duration": 0.5714290000000233,
          "durationTicks": 480,
          "midi": 74,
          "name": "D5",
          "ticks": 173520,
          "time": 206.57158349999997,
          "velocity": 0.23622047244094488
        },
        {
          "duration": 0.1428572499999916,
          "durationTicks": 120,
          "midi": 32,
          "name": "G#1",
          "ticks": 174000,
          "time": 207.1430125,
          "velocity": 0.5590551181102362
        },
        {
          "duration": 0.1428572499999916,
          "durationTicks": 120,
          "midi": 62,
          "name": "D4",
          "ticks": 174000,
          "time": 207.1430125,
          "velocity": 0.3858267716535433
        },
        {
          "duration": 0.1428572499999916,
          "durationTicks": 120,
          "midi": 69,
          "name": "A4",
          "ticks": 174000,
          "time": 207.1430125,
          "velocity": 0.3464566929133858
        },
        {
          "duration": 0.11904770833331213,
          "durationTicks": 100,
          "midi": 39,
          "name": "D#2",
          "ticks": 174120,
          "time": 207.28586975,
          "velocity": 0.3779527559055118
        },
        {
          "duration": 0.14285725000002003,
          "durationTicks": 120,
          "midi": 60,
          "name": "C4",
          "ticks": 174240,
          "time": 207.42872699999998,
          "velocity": 0.2204724409448819
        },
        {
          "duration": 0.1428572499999916,
          "durationTicks": 120,
          "midi": 32,
          "name": "G#1",
          "ticks": 174360,
          "time": 207.57158425,
          "velocity": 0.3464566929133858
        },
        {
          "duration": 0.1428572499999916,
          "durationTicks": 120,
          "midi": 39,
          "name": "D#2",
          "ticks": 174480,
          "time": 207.7144415,
          "velocity": 0.3464566929133858
        },
        {
          "duration": 0.1428572499999916,
          "durationTicks": 120,
          "midi": 62,
          "name": "D4",
          "ticks": 174480,
          "time": 207.7144415,
          "velocity": 0.30708661417322836
        },
        {
          "duration": 0.1428572499999916,
          "durationTicks": 120,
          "midi": 38,
          "name": "D2",
          "ticks": 174600,
          "time": 207.85729874999998,
          "velocity": 0.33070866141732286
        },
        {
          "duration": 0.28571450000001164,
          "durationTicks": 240,
          "midi": 37,
          "name": "C#2",
          "ticks": 174720,
          "time": 208.00015599999998,
          "velocity": 0.4409448818897638
        },
        {
          "duration": 0.28571450000001164,
          "durationTicks": 240,
          "midi": 49,
          "name": "C#3",
          "ticks": 174720,
          "time": 208.00015599999998,
          "velocity": 0.4409448818897638
        },
        {
          "duration": 0.28571450000001164,
          "durationTicks": 240,
          "midi": 59,
          "name": "B3",
          "ticks": 174720,
          "time": 208.00015599999998,
          "velocity": 0.1889763779527559
        },
        {
          "duration": 0.28571450000001164,
          "durationTicks": 240,
          "midi": 64,
          "name": "E4",
          "ticks": 174720,
          "time": 208.00015599999998,
          "velocity": 0.25196850393700787
        },
        {
          "duration": 0.28571450000001164,
          "durationTicks": 240,
          "midi": 68,
          "name": "G#4",
          "ticks": 174720,
          "time": 208.00015599999998,
          "velocity": 0.6299212598425197
        },
        {
          "duration": 0.28571450000001164,
          "durationTicks": 240,
          "midi": 75,
          "name": "D#5",
          "ticks": 174720,
          "time": 208.00015599999998,
          "velocity": 0.25196850393700787
        },
        {
          "duration": 0.11904770833331213,
          "durationTicks": 100,
          "midi": 32,
          "name": "G#1",
          "ticks": 174960,
          "time": 208.2858705,
          "velocity": 0.30708661417322836
        },
        {
          "duration": 0.28571450000001164,
          "durationTicks": 240,
          "midi": 37,
          "name": "C#2",
          "ticks": 175080,
          "time": 208.42872774999998,
          "velocity": 0.3543307086614173
        },
        {
          "duration": 0.11904770833331213,
          "durationTicks": 100,
          "midi": 37,
          "name": "C#2",
          "ticks": 175320,
          "time": 208.71444225,
          "velocity": 0.3858267716535433
        },
        {
          "duration": 0.1428572499999916,
          "durationTicks": 120,
          "midi": 39,
          "name": "D#2",
          "ticks": 175440,
          "time": 208.85729949999998,
          "velocity": 0.3464566929133858
        },
        {
          "duration": 0.1428572499999916,
          "durationTicks": 120,
          "midi": 58,
          "name": "A#3",
          "ticks": 175440,
          "time": 208.85729949999998,
          "velocity": 0.36220472440944884
        },
        {
          "duration": 0.1428572499999916,
          "durationTicks": 120,
          "midi": 70,
          "name": "A#4",
          "ticks": 175440,
          "time": 208.85729949999998,
          "velocity": 0.3937007874015748
        },
        {
          "duration": 0.1666667916666995,
          "durationTicks": 140,
          "midi": 37,
          "name": "C#2",
          "ticks": 175560,
          "time": 209.00015674999997,
          "velocity": 0.3464566929133858
        },
        {
          "duration": 0.11904770833334055,
          "durationTicks": 100,
          "midi": 71,
          "name": "B4",
          "ticks": 175560,
          "time": 209.00015674999997,
          "velocity": 0.3543307086614173
        },
        {
          "duration": 0.1428572499999916,
          "durationTicks": 120,
          "midi": 35,
          "name": "B1",
          "ticks": 175680,
          "time": 209.143014,
          "velocity": 0.29133858267716534
        },
        {
          "duration": 0.1428572499999916,
          "durationTicks": 120,
          "midi": 59,
          "name": "B3",
          "ticks": 175680,
          "time": 209.143014,
          "velocity": 0.41732283464566927
        },
        {
          "duration": 0.1428572499999916,
          "durationTicks": 120,
          "midi": 64,
          "name": "E4",
          "ticks": 175680,
          "time": 209.143014,
          "velocity": 0.33858267716535434
        },
        {
          "duration": 0.26190495833333216,
          "durationTicks": 220,
          "midi": 35,
          "name": "B1",
          "ticks": 175800,
          "time": 209.28587124999999,
          "velocity": 0.3779527559055118
        },
        {
          "duration": 0.26190495833330374,
          "durationTicks": 220,
          "midi": 32,
          "name": "G#1",
          "ticks": 176040,
          "time": 209.57158575,
          "velocity": 0.3543307086614173
        },
        {
          "duration": 0.14285725000002003,
          "durationTicks": 120,
          "midi": 64,
          "name": "E4",
          "ticks": 176280,
          "time": 209.85730024999998,
          "velocity": 0.30708661417322836
        },
        {
          "duration": 0.1666667916666711,
          "durationTicks": 140,
          "midi": 35,
          "name": "B1",
          "ticks": 176400,
          "time": 210.0001575,
          "velocity": 0.2992125984251969
        },
        {
          "duration": 0.1428572499999916,
          "durationTicks": 120,
          "midi": 64,
          "name": "E4",
          "ticks": 176520,
          "time": 210.14301475,
          "velocity": 0.29133858267716534
        },
        {
          "duration": 0.1428572499999916,
          "durationTicks": 120,
          "midi": 74,
          "name": "D5",
          "ticks": 176520,
          "time": 210.14301475,
          "velocity": 0.1968503937007874
        },
        {
          "duration": 0.11904770833331213,
          "durationTicks": 100,
          "midi": 34,
          "name": "A#1",
          "ticks": 176640,
          "time": 210.28587199999998,
          "velocity": 0.4015748031496063
        },
        {
          "duration": 0.11904770833331213,
          "durationTicks": 100,
          "midi": 46,
          "name": "A#2",
          "ticks": 176640,
          "time": 210.28587199999998,
          "velocity": 0.4015748031496063
        },
        {
          "duration": 0.11904770833331213,
          "durationTicks": 100,
          "midi": 62,
          "name": "D4",
          "ticks": 176640,
          "time": 210.28587199999998,
          "velocity": 0.31496062992125984
        },
        {
          "duration": 0.28571450000001164,
          "durationTicks": 240,
          "midi": 66,
          "name": "F#4",
          "ticks": 176760,
          "time": 210.42872924999998,
          "velocity": 0.5039370078740157
        },
        {
          "duration": 0.28571450000001164,
          "durationTicks": 240,
          "midi": 68,
          "name": "G#4",
          "ticks": 176760,
          "time": 210.42872924999998,
          "velocity": 0.4566929133858268
        },
        {
          "duration": 0.28571450000001164,
          "durationTicks": 240,
          "midi": 40,
          "name": "E2",
          "ticks": 177000,
          "time": 210.71444375,
          "velocity": 0.30708661417322836
        },
        {
          "duration": 0.28571450000001164,
          "durationTicks": 240,
          "midi": 66,
          "name": "F#4",
          "ticks": 177000,
          "time": 210.71444375,
          "velocity": 0.28346456692913385
        },
        {
          "duration": 0.11904770833331213,
          "durationTicks": 100,
          "midi": 34,
          "name": "A#1",
          "ticks": 177240,
          "time": 211.00015825,
          "velocity": 0.30708661417322836
        },
        {
          "duration": 0.11904770833331213,
          "durationTicks": 100,
          "midi": 66,
          "name": "F#4",
          "ticks": 177240,
          "time": 211.00015825,
          "velocity": 0.4015748031496063
        },
        {
          "duration": 0.1428572499999916,
          "durationTicks": 120,
          "midi": 33,
          "name": "A1",
          "ticks": 177360,
          "time": 211.1430155,
          "velocity": 0.44881889763779526
        },
        {
          "duration": 0.09523816666666107,
          "durationTicks": 80,
          "midi": 73,
          "name": "C#5",
          "ticks": 177360,
          "time": 211.1430155,
          "velocity": 0.25984251968503935
        },
        {
          "duration": 0.1428572499999916,
          "durationTicks": 120,
          "midi": 77,
          "name": "F5",
          "ticks": 177360,
          "time": 211.1430155,
          "velocity": 0.3858267716535433
        },
        {
          "duration": 0.1428572499999916,
          "durationTicks": 120,
          "midi": 86,
          "name": "D6",
          "ticks": 177360,
          "time": 211.1430155,
          "velocity": 0.41732283464566927
        },
        {
          "duration": 0.07142862500001002,
          "durationTicks": 60,
          "midi": 46,
          "name": "A#2",
          "ticks": 177480,
          "time": 211.28587274999998,
          "velocity": 0.3700787401574803
        },
        {
          "duration": 0.14285725000002003,
          "durationTicks": 120,
          "midi": 66,
          "name": "F#4",
          "ticks": 177600,
          "time": 211.42872999999997,
          "velocity": 0.5511811023622047
        },
        {
          "duration": 0.26190495833330374,
          "durationTicks": 220,
          "midi": 40,
          "name": "E2",
          "ticks": 177720,
          "time": 211.57158725,
          "velocity": 0.2992125984251969
        },
        {
          "duration": 0.11904770833334055,
          "durationTicks": 100,
          "midi": 34,
          "name": "A#1",
          "ticks": 177960,
          "time": 211.85730174999998,
          "velocity": 0.4330708661417323
        },
        {
          "duration": 0.11904770833334055,
          "durationTicks": 100,
          "midi": 46,
          "name": "A#2",
          "ticks": 177960,
          "time": 211.85730174999998,
          "velocity": 0.4330708661417323
        },
        {
          "duration": 0.1666667916666995,
          "durationTicks": 140,
          "midi": 56,
          "name": "G#3",
          "ticks": 177960,
          "time": 211.85730174999998,
          "velocity": 0.33858267716535434
        },
        {
          "duration": 0.1428572499999916,
          "durationTicks": 120,
          "midi": 60,
          "name": "C4",
          "ticks": 178080,
          "time": 212.000159,
          "velocity": 0.4094488188976378
        },
        {
          "duration": 0.19047633333332215,
          "durationTicks": 160,
          "midi": 64,
          "name": "E4",
          "ticks": 178080,
          "time": 212.000159,
          "velocity": 0.4409448818897638
        },
        {
          "duration": 0.1428572499999916,
          "durationTicks": 120,
          "midi": 72,
          "name": "C5",
          "ticks": 178080,
          "time": 212.000159,
          "velocity": 0.4094488188976378
        },
        {
          "duration": 0.19047633333332215,
          "durationTicks": 160,
          "midi": 76,
          "name": "E5",
          "ticks": 178080,
          "time": 212.000159,
          "velocity": 0.4409448818897638
        },
        {
          "duration": 0.11904770833331213,
          "durationTicks": 100,
          "midi": 48,
          "name": "C3",
          "ticks": 178200,
          "time": 212.14301625,
          "velocity": 0.36220472440944884
        },
        {
          "duration": 0.1666667916666711,
          "durationTicks": 140,
          "midi": 62,
          "name": "D4",
          "ticks": 178200,
          "time": 212.14301625,
          "velocity": 0.25984251968503935
        },
        {
          "duration": 0.14285725000002003,
          "durationTicks": 120,
          "midi": 40,
          "name": "E2",
          "ticks": 178320,
          "time": 212.28587349999998,
          "velocity": 0.2440944881889764
        },
        {
          "duration": 0.19047633333332215,
          "durationTicks": 160,
          "midi": 34,
          "name": "A#1",
          "ticks": 178440,
          "time": 212.42873075,
          "velocity": 0.4881889763779528
        },
        {
          "duration": 0.19047633333332215,
          "durationTicks": 160,
          "midi": 46,
          "name": "A#2",
          "ticks": 178440,
          "time": 212.42873075,
          "velocity": 0.4881889763779528
        },
        {
          "duration": 0.26190495833333216,
          "durationTicks": 220,
          "midi": 33,
          "name": "A1",
          "ticks": 178560,
          "time": 212.571588,
          "velocity": 0.4409448818897638
        },
        {
          "duration": 0.26190495833333216,
          "durationTicks": 220,
          "midi": 45,
          "name": "A2",
          "ticks": 178560,
          "time": 212.571588,
          "velocity": 0.4409448818897638
        },
        {
          "duration": 0.3095240416666627,
          "durationTicks": 260,
          "midi": 59,
          "name": "B3",
          "ticks": 178560,
          "time": 212.571588,
          "velocity": 0.36220472440944884
        },
        {
          "duration": 0.3095240416666627,
          "durationTicks": 260,
          "midi": 60,
          "name": "C4",
          "ticks": 178560,
          "time": 212.571588,
          "velocity": 0.4015748031496063
        },
        {
          "duration": 0.3095240416666627,
          "durationTicks": 260,
          "midi": 66,
          "name": "F#4",
          "ticks": 178560,
          "time": 212.571588,
          "velocity": 0.5590551181102362
        },
        {
          "duration": 0.26190495833333216,
          "durationTicks": 220,
          "midi": 67,
          "name": "G4",
          "ticks": 178560,
          "time": 212.571588,
          "velocity": 0.5275590551181102
        },
        {
          "duration": 0.3095240416666627,
          "durationTicks": 260,
          "midi": 71,
          "name": "B4",
          "ticks": 178560,
          "time": 212.571588,
          "velocity": 0.36220472440944884
        },
        {
          "duration": 0.3095240416666627,
          "durationTicks": 260,
          "midi": 74,
          "name": "D5",
          "ticks": 178560,
          "time": 212.571588,
          "velocity": 0.1889763779527559
        },
        {
          "duration": 0.3095240416666627,
          "durationTicks": 260,
          "midi": 83,
          "name": "B5",
          "ticks": 178560,
          "time": 212.571588,
          "velocity": 0.33070866141732286
        },
        {
          "duration": 0.11904770833334055,
          "durationTicks": 100,
          "midi": 67,
          "name": "G4",
          "ticks": 178800,
          "time": 212.85730249999997,
          "velocity": 0.3464566929133858
        },
        {
          "duration": 0.1428572499999916,
          "durationTicks": 120,
          "midi": 36,
          "name": "C2",
          "ticks": 178920,
          "time": 213.00015975,
          "velocity": 0.3464566929133858
        },
        {
          "duration": 0.1428572499999916,
          "durationTicks": 120,
          "midi": 59,
          "name": "B3",
          "ticks": 178920,
          "time": 213.00015975,
          "velocity": 0.2755905511811024
        },
        {
          "duration": 0.1428572499999916,
          "durationTicks": 120,
          "midi": 71,
          "name": "B4",
          "ticks": 178920,
          "time": 213.00015975,
          "velocity": 0.25196850393700787
        },
        {
          "duration": 0.1666667916666711,
          "durationTicks": 140,
          "midi": 45,
          "name": "A2",
          "ticks": 179040,
          "time": 213.143017,
          "velocity": 0.44881889763779526
        },
        {
          "duration": 0.14285725000002003,
          "durationTicks": 120,
          "midi": 36,
          "name": "C2",
          "ticks": 179160,
          "time": 213.28587424999998,
          "velocity": 0.3464566929133858
        },
        {
          "duration": 0.14285725000002003,
          "durationTicks": 120,
          "midi": 60,
          "name": "C4",
          "ticks": 179160,
          "time": 213.28587424999998,
          "velocity": 0.25984251968503935
        },
        {
          "duration": 0.14285725000002003,
          "durationTicks": 120,
          "midi": 72,
          "name": "C5",
          "ticks": 179160,
          "time": 213.28587424999998,
          "velocity": 0.2440944881889764
        },
        {
          "duration": 0.14285725000002003,
          "durationTicks": 120,
          "midi": 76,
          "name": "E5",
          "ticks": 179160,
          "time": 213.28587424999998,
          "velocity": 0.2047244094488189
        },
        {
          "duration": 0.14285725000002003,
          "durationTicks": 120,
          "midi": 84,
          "name": "C6",
          "ticks": 179160,
          "time": 213.28587424999998,
          "velocity": 0.25984251968503935
        },
        {
          "duration": 0.1666667916666711,
          "durationTicks": 140,
          "midi": 38,
          "name": "D2",
          "ticks": 179280,
          "time": 213.4287315,
          "velocity": 0.36220472440944884
        },
        {
          "duration": 0.11904770833331213,
          "durationTicks": 100,
          "midi": 45,
          "name": "A2",
          "ticks": 179280,
          "time": 213.4287315,
          "velocity": 0.28346456692913385
        },
        {
          "duration": 0.11904770833331213,
          "durationTicks": 100,
          "midi": 50,
          "name": "D3",
          "ticks": 179280,
          "time": 213.4287315,
          "velocity": 0.29133858267716534
        },
        {
          "duration": 0.1666667916666711,
          "durationTicks": 140,
          "midi": 71,
          "name": "B4",
          "ticks": 179280,
          "time": 213.4287315,
          "velocity": 0.2204724409448819
        },
        {
          "duration": 0.1666667916666711,
          "durationTicks": 140,
          "midi": 83,
          "name": "B5",
          "ticks": 179280,
          "time": 213.4287315,
          "velocity": 0.3228346456692913
        },
        {
          "duration": 0.1428572499999916,
          "durationTicks": 120,
          "midi": 71,
          "name": "B4",
          "ticks": 179400,
          "time": 213.57158875,
          "velocity": 0.2755905511811024
        },
        {
          "duration": 0.1428572499999916,
          "durationTicks": 120,
          "midi": 39,
          "name": "D#2",
          "ticks": 179520,
          "time": 213.71444599999998,
          "velocity": 0.2677165354330709
        },
        {
          "duration": 0.1428572499999916,
          "durationTicks": 120,
          "midi": 45,
          "name": "A2",
          "ticks": 179520,
          "time": 213.71444599999998,
          "velocity": 0.3464566929133858
        },
        {
          "duration": 0.1428572499999916,
          "durationTicks": 120,
          "midi": 60,
          "name": "C4",
          "ticks": 179520,
          "time": 213.71444599999998,
          "velocity": 0.1968503937007874
        },
        {
          "duration": 0.1428572499999916,
          "durationTicks": 120,
          "midi": 64,
          "name": "E4",
          "ticks": 179520,
          "time": 213.71444599999998,
          "velocity": 0.4094488188976378
        },
        {
          "duration": 0.1428572499999916,
          "durationTicks": 120,
          "midi": 76,
          "name": "E5",
          "ticks": 179520,
          "time": 213.71444599999998,
          "velocity": 0.23622047244094488
        },
        {
          "duration": 0.11904770833334055,
          "durationTicks": 100,
          "midi": 39,
          "name": "D#2",
          "ticks": 179640,
          "time": 213.85730324999997,
          "velocity": 0.33070866141732286
        },
        {
          "duration": 0.2857144999999832,
          "durationTicks": 240,
          "midi": 62,
          "name": "D4",
          "ticks": 179760,
          "time": 214.0001605,
          "velocity": 0.2125984251968504
        },
        {
          "duration": 0.14285725000002003,
          "durationTicks": 120,
          "midi": 40,
          "name": "E2",
          "ticks": 180000,
          "time": 214.28587499999998,
          "velocity": 0.3779527559055118
        },
        {
          "duration": 0.14285725000002003,
          "durationTicks": 120,
          "midi": 64,
          "name": "E4",
          "ticks": 180000,
          "time": 214.28587499999998,
          "velocity": 0.2992125984251969
        },
        {
          "duration": 0.1666667916666711,
          "durationTicks": 140,
          "midi": 41,
          "name": "F2",
          "ticks": 180120,
          "time": 214.42873225,
          "velocity": 0.2677165354330709
        },
        {
          "duration": 0.1666667916666711,
          "durationTicks": 140,
          "midi": 60,
          "name": "C4",
          "ticks": 180120,
          "time": 214.42873225,
          "velocity": 0.31496062992125984
        },
        {
          "duration": 0.1666667916666711,
          "durationTicks": 140,
          "midi": 62,
          "name": "D4",
          "ticks": 180120,
          "time": 214.42873225,
          "velocity": 0.1889763779527559
        },
        {
          "duration": 0.1666667916666711,
          "durationTicks": 140,
          "midi": 67,
          "name": "G4",
          "ticks": 180120,
          "time": 214.42873225,
          "velocity": 0.2677165354330709
        },
        {
          "duration": 0.1428572499999916,
          "durationTicks": 120,
          "midi": 40,
          "name": "E2",
          "ticks": 180240,
          "time": 214.5715895,
          "velocity": 0.3464566929133858
        },
        {
          "duration": 0.1428572499999916,
          "durationTicks": 120,
          "midi": 45,
          "name": "A2",
          "ticks": 180240,
          "time": 214.5715895,
          "velocity": 0.3464566929133858
        },
        {
          "duration": 0.1428572499999916,
          "durationTicks": 120,
          "midi": 59,
          "name": "B3",
          "ticks": 180240,
          "time": 214.5715895,
          "velocity": 0.36220472440944884
        },
        {
          "duration": 0.1428572499999916,
          "durationTicks": 120,
          "midi": 62,
          "name": "D4",
          "ticks": 180240,
          "time": 214.5715895,
          "velocity": 0.1968503937007874
        },
        {
          "duration": 0.1428572499999916,
          "durationTicks": 120,
          "midi": 71,
          "name": "B4",
          "ticks": 180240,
          "time": 214.5715895,
          "velocity": 0.36220472440944884
        },
        {
          "duration": 0.14285725000002003,
          "durationTicks": 120,
          "midi": 43,
          "name": "G2",
          "ticks": 180360,
          "time": 214.71444674999998,
          "velocity": 0.30708661417322836
        },
        {
          "duration": 0.14285725000002003,
          "durationTicks": 120,
          "midi": 67,
          "name": "G4",
          "ticks": 180360,
          "time": 214.71444674999998,
          "velocity": 0.2283464566929134
        },
        {
          "duration": 0.11904770833331213,
          "durationTicks": 100,
          "midi": 45,
          "name": "A2",
          "ticks": 180480,
          "time": 214.857304,
          "velocity": 0.33858267716535434
        },
        {
          "duration": 0.11904770833331213,
          "durationTicks": 100,
          "midi": 48,
          "name": "C3",
          "ticks": 180480,
          "time": 214.857304,
          "velocity": 0.2677165354330709
        },
        {
          "duration": 0.11904770833331213,
          "durationTicks": 100,
          "midi": 55,
          "name": "G3",
          "ticks": 180480,
          "time": 214.857304,
          "velocity": 0.31496062992125984
        },
        {
          "duration": 0.11904770833331213,
          "durationTicks": 100,
          "midi": 59,
          "name": "B3",
          "ticks": 180480,
          "time": 214.857304,
          "velocity": 0.2992125984251969
        },
        {
          "duration": 0.11904770833331213,
          "durationTicks": 100,
          "midi": 60,
          "name": "C4",
          "ticks": 180480,
          "time": 214.857304,
          "velocity": 0.3464566929133858
        },
        {
          "duration": 0.11904770833331213,
          "durationTicks": 100,
          "midi": 66,
          "name": "F#4",
          "ticks": 180480,
          "time": 214.857304,
          "velocity": 0.3779527559055118
        },
        {
          "duration": 0.1428572499999916,
          "durationTicks": 120,
          "midi": 43,
          "name": "G2",
          "ticks": 180600,
          "time": 215.00016125,
          "velocity": 0.2755905511811024
        },
        {
          "duration": 0.1428572499999916,
          "durationTicks": 120,
          "midi": 67,
          "name": "G4",
          "ticks": 180600,
          "time": 215.00016125,
          "velocity": 0.5433070866141733
        },
        {
          "duration": 0.1666667916666711,
          "durationTicks": 140,
          "midi": 40,
          "name": "E2",
          "ticks": 180720,
          "time": 215.14301849999998,
          "velocity": 0.23622047244094488
        },
        {
          "duration": 0.1666667916666711,
          "durationTicks": 140,
          "midi": 44,
          "name": "G#2",
          "ticks": 180720,
          "time": 215.14301849999998,
          "velocity": 0.3543307086614173
        },
        {
          "duration": 0.14285725000002003,
          "durationTicks": 120,
          "midi": 32,
          "name": "G#1",
          "ticks": 180840,
          "time": 215.28587574999997,
          "velocity": 0.4015748031496063
        },
        {
          "duration": 0.14285725000002003,
          "durationTicks": 120,
          "midi": 33,
          "name": "A1",
          "ticks": 180840,
          "time": 215.28587574999997,
          "velocity": 0.3937007874015748
        },
        {
          "duration": 0.14285725000002003,
          "durationTicks": 120,
          "midi": 40,
          "name": "E2",
          "ticks": 180840,
          "time": 215.28587574999997,
          "velocity": 0.2204724409448819
        },
        {
          "duration": 0.14285725000002003,
          "durationTicks": 120,
          "midi": 59,
          "name": "B3",
          "ticks": 180840,
          "time": 215.28587574999997,
          "velocity": 0.2677165354330709
        },
        {
          "duration": 0.1666667916666711,
          "durationTicks": 140,
          "midi": 45,
          "name": "A2",
          "ticks": 180960,
          "time": 215.428733,
          "velocity": 0.3464566929133858
        },
        {
          "duration": 0.1428572499999916,
          "durationTicks": 120,
          "midi": 45,
          "name": "A2",
          "ticks": 181080,
          "time": 215.57159024999999,
          "velocity": 0.4094488188976378
        },
        {
          "duration": 0.1428572499999916,
          "durationTicks": 120,
          "midi": 60,
          "name": "C4",
          "ticks": 181080,
          "time": 215.57159024999999,
          "velocity": 0.28346456692913385
        },
        {
          "duration": 0.1666667916666995,
          "durationTicks": 140,
          "midi": 45,
          "name": "A2",
          "ticks": 181200,
          "time": 215.71444749999998,
          "velocity": 0.4015748031496063
        },
        {
          "duration": 0.1666667916666995,
          "durationTicks": 140,
          "midi": 50,
          "name": "D3",
          "ticks": 181200,
          "time": 215.71444749999998,
          "velocity": 0.23622047244094488
        },
        {
          "duration": 0.1666667916666995,
          "durationTicks": 140,
          "midi": 59,
          "name": "B3",
          "ticks": 181200,
          "time": 215.71444749999998,
          "velocity": 0.30708661417322836
        },
        {
          "duration": 0.1666667916666995,
          "durationTicks": 140,
          "midi": 62,
          "name": "D4",
          "ticks": 181200,
          "time": 215.71444749999998,
          "velocity": 0.3543307086614173
        },
        {
          "duration": 0.1666667916666995,
          "durationTicks": 140,
          "midi": 71,
          "name": "B4",
          "ticks": 181200,
          "time": 215.71444749999998,
          "velocity": 0.30708661417322836
        },
        {
          "duration": 0.1428572499999916,
          "durationTicks": 120,
          "midi": 45,
          "name": "A2",
          "ticks": 181320,
          "time": 215.85730475,
          "velocity": 0.41732283464566927
        },
        {
          "duration": 0.1666667916666711,
          "durationTicks": 140,
          "midi": 66,
          "name": "F#4",
          "ticks": 181320,
          "time": 215.85730475,
          "velocity": 0.33070866141732286
        },
        {
          "duration": 0.1428572499999916,
          "durationTicks": 120,
          "midi": 33,
          "name": "A1",
          "ticks": 181440,
          "time": 216.000162,
          "velocity": 0.4015748031496063
        },
        {
          "duration": 0.1428572499999916,
          "durationTicks": 120,
          "midi": 45,
          "name": "A2",
          "ticks": 181440,
          "time": 216.000162,
          "velocity": 0.4015748031496063
        },
        {
          "duration": 0.1428572499999916,
          "durationTicks": 120,
          "midi": 48,
          "name": "C3",
          "ticks": 181440,
          "time": 216.000162,
          "velocity": 0.33070866141732286
        },
        {
          "duration": 0.1428572499999916,
          "durationTicks": 120,
          "midi": 64,
          "name": "E4",
          "ticks": 181440,
          "time": 216.000162,
          "velocity": 0.2755905511811024
        },
        {
          "duration": 0.1666667916666711,
          "durationTicks": 140,
          "midi": 47,
          "name": "B2",
          "ticks": 181560,
          "time": 216.14301924999998,
          "velocity": 0.23622047244094488
        },
        {
          "duration": 0.11904770833334055,
          "durationTicks": 100,
          "midi": 50,
          "name": "D3",
          "ticks": 181560,
          "time": 216.14301924999998,
          "velocity": 0.29133858267716534
        },
        {
          "duration": 0.1428572499999916,
          "durationTicks": 120,
          "midi": 51,
          "name": "D#3",
          "ticks": 181680,
          "time": 216.2858765,
          "velocity": 0.2755905511811024
        },
        {
          "duration": 0.11904770833331213,
          "durationTicks": 100,
          "midi": 48,
          "name": "C3",
          "ticks": 181800,
          "time": 216.42873375,
          "velocity": 0.3228346456692913
        },
        {
          "duration": 0.11904770833331213,
          "durationTicks": 100,
          "midi": 59,
          "name": "B3",
          "ticks": 181800,
          "time": 216.42873375,
          "velocity": 0.3779527559055118
        },
        {
          "duration": 0.11904770833331213,
          "durationTicks": 100,
          "midi": 60,
          "name": "C4",
          "ticks": 181800,
          "time": 216.42873375,
          "velocity": 0.3228346456692913
        },
        {
          "duration": 0.11904770833331213,
          "durationTicks": 100,
          "midi": 72,
          "name": "C5",
          "ticks": 181800,
          "time": 216.42873375,
          "velocity": 0.2204724409448819
        },
        {
          "duration": 0.1428572499999916,
          "durationTicks": 120,
          "midi": 64,
          "name": "E4",
          "ticks": 181920,
          "time": 216.57159099999998,
          "velocity": 0.3464566929133858
        },
        {
          "duration": 0.40476220833332377,
          "durationTicks": 340,
          "midi": 45,
          "name": "A2",
          "ticks": 182040,
          "time": 216.71444824999998,
          "velocity": 0.3700787401574803
        },
        {
          "duration": 0.11904770833334055,
          "durationTicks": 100,
          "midi": 47,
          "name": "B2",
          "ticks": 182400,
          "time": 217.14301999999998,
          "velocity": 0.4094488188976378
        },
        {
          "duration": 0.1666667916666995,
          "durationTicks": 140,
          "midi": 57,
          "name": "A3",
          "ticks": 182400,
          "time": 217.14301999999998,
          "velocity": 0.2992125984251969
        },
        {
          "duration": 0.1666667916666995,
          "durationTicks": 140,
          "midi": 61,
          "name": "C#4",
          "ticks": 182400,
          "time": 217.14301999999998,
          "velocity": 0.25984251968503935
        },
        {
          "duration": 0.1666667916666995,
          "durationTicks": 140,
          "midi": 64,
          "name": "E4",
          "ticks": 182400,
          "time": 217.14301999999998,
          "velocity": 0.3779527559055118
        },
        {
          "duration": 0.1666667916666995,
          "durationTicks": 140,
          "midi": 69,
          "name": "A4",
          "ticks": 182400,
          "time": 217.14301999999998,
          "velocity": 0.2992125984251969
        },
        {
          "duration": 0.1428572499999916,
          "durationTicks": 120,
          "midi": 66,
          "name": "F#4",
          "ticks": 182520,
          "time": 217.28587725,
          "velocity": 0.2677165354330709
        },
        {
          "duration": 0.1428572499999916,
          "durationTicks": 120,
          "midi": 97,
          "name": "C#7",
          "ticks": 182520,
          "time": 217.28587725,
          "velocity": 0.2755905511811024
        },
        {
          "duration": 0.11904770833331213,
          "durationTicks": 100,
          "midi": 33,
          "name": "A1",
          "ticks": 182640,
          "time": 217.4287345,
          "velocity": 0.2992125984251969
        },
        {
          "duration": 0.11904770833331213,
          "durationTicks": 100,
          "midi": 76,
          "name": "E5",
          "ticks": 182640,
          "time": 217.4287345,
          "velocity": 0.25984251968503935
        },
        {
          "duration": 0.1428572499999916,
          "durationTicks": 120,
          "midi": 34,
          "name": "A#1",
          "ticks": 182760,
          "time": 217.57159174999998,
          "velocity": 0.3779527559055118
        },
        {
          "duration": 0.11904770833334055,
          "durationTicks": 100,
          "midi": 47,
          "name": "B2",
          "ticks": 182880,
          "time": 217.71444899999997,
          "velocity": 0.4566929133858268
        },
        {
          "duration": 0.1428572499999916,
          "durationTicks": 120,
          "midi": 76,
          "name": "E5",
          "ticks": 183000,
          "time": 217.85730625,
          "velocity": 0.2992125984251969
        },
        {
          "duration": 0.1428572499999916,
          "durationTicks": 120,
          "midi": 33,
          "name": "A1",
          "ticks": 183120,
          "time": 218.00016349999999,
          "velocity": 0.30708661417322836
        },
        {
          "duration": 0.1428572499999916,
          "durationTicks": 120,
          "midi": 45,
          "name": "A2",
          "ticks": 183120,
          "time": 218.00016349999999,
          "velocity": 0.4094488188976378
        },
        {
          "duration": 0.11904770833334055,
          "durationTicks": 100,
          "midi": 46,
          "name": "A#2",
          "ticks": 183240,
          "time": 218.14302074999998,
          "velocity": 0.29133858267716534
        },
        {
          "duration": 0.11904770833334055,
          "durationTicks": 100,
          "midi": 66,
          "name": "F#4",
          "ticks": 183240,
          "time": 218.14302074999998,
          "velocity": 0.5275590551181102
        },
        {
          "duration": 0.2857144999999832,
          "durationTicks": 240,
          "midi": 47,
          "name": "B2",
          "ticks": 183360,
          "time": 218.285878,
          "velocity": 0.48031496062992124
        },
        {
          "duration": 0.2857144999999832,
          "durationTicks": 240,
          "midi": 64,
          "name": "E4",
          "ticks": 183360,
          "time": 218.285878,
          "velocity": 0.33858267716535434
        },
        {
          "duration": 0.14285725000002003,
          "durationTicks": 120,
          "midi": 33,
          "name": "A1",
          "ticks": 183600,
          "time": 218.57159249999998,
          "velocity": 0.36220472440944884
        },
        {
          "duration": 0.14285725000002003,
          "durationTicks": 120,
          "midi": 45,
          "name": "A2",
          "ticks": 183600,
          "time": 218.57159249999998,
          "velocity": 0.33070866141732286
        },
        {
          "duration": 0.1666667916666711,
          "durationTicks": 140,
          "midi": 46,
          "name": "A#2",
          "ticks": 183720,
          "time": 218.71444975,
          "velocity": 0.31496062992125984
        },
        {
          "duration": 0.1428572499999916,
          "durationTicks": 120,
          "midi": 47,
          "name": "B2",
          "ticks": 183840,
          "time": 218.857307,
          "velocity": 0.3464566929133858
        },
        {
          "duration": 0.11904770833331213,
          "durationTicks": 100,
          "midi": 33,
          "name": "A1",
          "ticks": 183960,
          "time": 219.00016424999998,
          "velocity": 0.2047244094488189
        },
        {
          "duration": 0.1666667916666711,
          "durationTicks": 140,
          "midi": 61,
          "name": "C#4",
          "ticks": 183960,
          "time": 219.00016424999998,
          "velocity": 0.3464566929133858
        },
        {
          "duration": 0.19047633333332215,
          "durationTicks": 160,
          "midi": 45,
          "name": "A2",
          "ticks": 184080,
          "time": 219.14302149999997,
          "velocity": 0.33858267716535434
        },
        {
          "duration": 0.1666667916666711,
          "durationTicks": 140,
          "midi": 33,
          "name": "A1",
          "ticks": 184200,
          "time": 219.28587875,
          "velocity": 0.30708661417322836
        },
        {
          "duration": 0.1666667916666711,
          "durationTicks": 140,
          "midi": 45,
          "name": "A2",
          "ticks": 184200,
          "time": 219.28587875,
          "velocity": 0.3464566929133858
        },
        {
          "duration": 0.1666667916666711,
          "durationTicks": 140,
          "midi": 47,
          "name": "B2",
          "ticks": 184200,
          "time": 219.28587875,
          "velocity": 0.2677165354330709
        },
        {
          "duration": 0.28571450000001164,
          "durationTicks": 240,
          "midi": 32,
          "name": "G#1",
          "ticks": 184320,
          "time": 219.428736,
          "velocity": 0.3779527559055118
        },
        {
          "duration": 0.28571450000001164,
          "durationTicks": 240,
          "midi": 44,
          "name": "G#2",
          "ticks": 184320,
          "time": 219.428736,
          "velocity": 0.3779527559055118
        },
        {
          "duration": 0.28571450000001164,
          "durationTicks": 240,
          "midi": 54,
          "name": "F#3",
          "ticks": 184320,
          "time": 219.428736,
          "velocity": 0.3858267716535433
        },
        {
          "duration": 0.28571450000001164,
          "durationTicks": 240,
          "midi": 59,
          "name": "B3",
          "ticks": 184320,
          "time": 219.428736,
          "velocity": 0.2283464566929134
        },
        {
          "duration": 0.28571450000001164,
          "durationTicks": 240,
          "midi": 63,
          "name": "D#4",
          "ticks": 184320,
          "time": 219.428736,
          "velocity": 0.31496062992125984
        },
        {
          "duration": 0.3095240416666911,
          "durationTicks": 260,
          "midi": 71,
          "name": "B4",
          "ticks": 184320,
          "time": 219.428736,
          "velocity": 0.2283464566929134
        },
        {
          "duration": 0.28571450000001164,
          "durationTicks": 240,
          "midi": 75,
          "name": "D#5",
          "ticks": 184320,
          "time": 219.428736,
          "velocity": 0.2283464566929134
        },
        {
          "duration": 0.11904770833331213,
          "durationTicks": 100,
          "midi": 42,
          "name": "F#2",
          "ticks": 184560,
          "time": 219.7144505,
          "velocity": 0.30708661417322836
        },
        {
          "duration": 0.11904770833331213,
          "durationTicks": 100,
          "midi": 75,
          "name": "D#5",
          "ticks": 184560,
          "time": 219.7144505,
          "velocity": 0.4015748031496063
        },
        {
          "duration": 0.11904770833331213,
          "durationTicks": 100,
          "midi": 78,
          "name": "F#5",
          "ticks": 184560,
          "time": 219.7144505,
          "velocity": 0.3700787401574803
        },
        {
          "duration": 0.1428572499999916,
          "durationTicks": 120,
          "midi": 43,
          "name": "G2",
          "ticks": 184680,
          "time": 219.85730775,
          "velocity": 0.3464566929133858
        },
        {
          "duration": 0.1666667916666711,
          "durationTicks": 140,
          "midi": 44,
          "name": "G#2",
          "ticks": 184800,
          "time": 220.00016499999998,
          "velocity": 0.3464566929133858
        },
        {
          "duration": 0.11904770833334055,
          "durationTicks": 100,
          "midi": 75,
          "name": "D#5",
          "ticks": 184800,
          "time": 220.00016499999998,
          "velocity": 0.2440944881889764
        },
        {
          "duration": 0.14285725000002003,
          "durationTicks": 120,
          "midi": 44,
          "name": "G#2",
          "ticks": 184920,
          "time": 220.14302224999997,
          "velocity": 0.36220472440944884
        },
        {
          "duration": 0.0952381666666895,
          "durationTicks": 80,
          "midi": 78,
          "name": "F#5",
          "ticks": 184920,
          "time": 220.14302224999997,
          "velocity": 0.3700787401574803
        },
        {
          "duration": 0.26190495833330374,
          "durationTicks": 220,
          "midi": 35,
          "name": "B1",
          "ticks": 185040,
          "time": 220.2858795,
          "velocity": 0.3700787401574803
        },
        {
          "duration": 0.26190495833330374,
          "durationTicks": 220,
          "midi": 49,
          "name": "C#3",
          "ticks": 185040,
          "time": 220.2858795,
          "velocity": 0.3937007874015748
        },
        {
          "duration": 0.26190495833330374,
          "durationTicks": 220,
          "midi": 54,
          "name": "F#3",
          "ticks": 185040,
          "time": 220.2858795,
          "velocity": 0.41732283464566927
        },
        {
          "duration": 0.26190495833330374,
          "durationTicks": 220,
          "midi": 63,
          "name": "D#4",
          "ticks": 185040,
          "time": 220.2858795,
          "velocity": 0.3464566929133858
        },
        {
          "duration": 0.33333358333331375,
          "durationTicks": 280,
          "midi": 74,
          "name": "D5",
          "ticks": 185040,
          "time": 220.2858795,
          "velocity": 0.1732283464566929
        },
        {
          "duration": 0.26190495833330374,
          "durationTicks": 220,
          "midi": 75,
          "name": "D#5",
          "ticks": 185040,
          "time": 220.2858795,
          "velocity": 0.2204724409448819
        },
        {
          "duration": 0.14285725000002003,
          "durationTicks": 120,
          "midi": 37,
          "name": "C#2",
          "ticks": 185280,
          "time": 220.57159399999998,
          "velocity": 0.44881889763779526
        },
        {
          "duration": 0.14285725000002003,
          "durationTicks": 120,
          "midi": 75,
          "name": "D#5",
          "ticks": 185280,
          "time": 220.57159399999998,
          "velocity": 0.3464566929133858
        },
        {
          "duration": 0.14285725000002003,
          "durationTicks": 120,
          "midi": 78,
          "name": "F#5",
          "ticks": 185280,
          "time": 220.57159399999998,
          "velocity": 0.3464566929133858
        },
        {
          "duration": 0.11904770833331213,
          "durationTicks": 100,
          "midi": 71,
          "name": "B4",
          "ticks": 185400,
          "time": 220.71445125,
          "velocity": 0.3464566929133858
        },
        {
          "duration": 0.1428572499999916,
          "durationTicks": 120,
          "midi": 35,
          "name": "B1",
          "ticks": 185520,
          "time": 220.8573085,
          "velocity": 0.36220472440944884
        },
        {
          "duration": 0.1428572499999916,
          "durationTicks": 120,
          "midi": 37,
          "name": "C#2",
          "ticks": 185520,
          "time": 220.8573085,
          "velocity": 0.4094488188976378
        },
        {
          "duration": 0.11904770833334055,
          "durationTicks": 100,
          "midi": 36,
          "name": "C2",
          "ticks": 185640,
          "time": 221.00016574999998,
          "velocity": 0.36220472440944884
        },
        {
          "duration": 0.11904770833334055,
          "durationTicks": 100,
          "midi": 75,
          "name": "D#5",
          "ticks": 185640,
          "time": 221.00016574999998,
          "velocity": 0.3464566929133858
        },
        {
          "duration": 0.11904770833334055,
          "durationTicks": 100,
          "midi": 78,
          "name": "F#5",
          "ticks": 185640,
          "time": 221.00016574999998,
          "velocity": 0.3464566929133858
        },
        {
          "duration": 0.4285717499999748,
          "durationTicks": 360,
          "midi": 37,
          "name": "C#2",
          "ticks": 185760,
          "time": 221.143023,
          "velocity": 0.4330708661417323
        },
        {
          "duration": 0.4285717499999748,
          "durationTicks": 360,
          "midi": 69,
          "name": "A4",
          "ticks": 185760,
          "time": 221.143023,
          "velocity": 0.25984251968503935
        },
        {
          "duration": 0.1666667916666995,
          "durationTicks": 140,
          "midi": 31,
          "name": "G1",
          "ticks": 186120,
          "time": 221.57159474999997,
          "velocity": 0.41732283464566927
        },
        {
          "duration": 0.2857144999999832,
          "durationTicks": 240,
          "midi": 42,
          "name": "F#2",
          "ticks": 186240,
          "time": 221.714452,
          "velocity": 0.4094488188976378
        },
        {
          "duration": 0.2857144999999832,
          "durationTicks": 240,
          "midi": 52,
          "name": "E3",
          "ticks": 186240,
          "time": 221.714452,
          "velocity": 0.3464566929133858
        },
        {
          "duration": 0.2857144999999832,
          "durationTicks": 240,
          "midi": 57,
          "name": "A3",
          "ticks": 186240,
          "time": 221.714452,
          "velocity": 0.2440944881889764
        },
        {
          "duration": 0.2857144999999832,
          "durationTicks": 240,
          "midi": 61,
          "name": "C#4",
          "ticks": 186240,
          "time": 221.714452,
          "velocity": 0.2440944881889764
        },
        {
          "duration": 0.2857144999999832,
          "durationTicks": 240,
          "midi": 64,
          "name": "E4",
          "ticks": 186240,
          "time": 221.714452,
          "velocity": 0.3464566929133858
        },
        {
          "duration": 0.2857144999999832,
          "durationTicks": 240,
          "midi": 68,
          "name": "G#4",
          "ticks": 186240,
          "time": 221.714452,
          "velocity": 0.2677165354330709
        },
        {
          "duration": 0.2857144999999832,
          "durationTicks": 240,
          "midi": 76,
          "name": "E5",
          "ticks": 186240,
          "time": 221.714452,
          "velocity": 0.2440944881889764
        },
        {
          "duration": 0.3095240416666627,
          "durationTicks": 260,
          "midi": 80,
          "name": "G#5",
          "ticks": 186240,
          "time": 221.714452,
          "velocity": 0.2677165354330709
        },
        {
          "duration": 0.11904770833334055,
          "durationTicks": 100,
          "midi": 30,
          "name": "F#1",
          "ticks": 186480,
          "time": 222.00016649999998,
          "velocity": 0.5275590551181102
        },
        {
          "duration": 0.11904770833334055,
          "durationTicks": 100,
          "midi": 69,
          "name": "A4",
          "ticks": 186480,
          "time": 222.00016649999998,
          "velocity": 0.3700787401574803
        },
        {
          "duration": 0.2857144999999832,
          "durationTicks": 240,
          "midi": 37,
          "name": "C#2",
          "ticks": 186600,
          "time": 222.14302375,
          "velocity": 0.2992125984251969
        },
        {
          "duration": 0.1428572499999916,
          "durationTicks": 120,
          "midi": 42,
          "name": "F#2",
          "ticks": 186840,
          "time": 222.42873824999998,
          "velocity": 0.30708661417322836
        },
        {
          "duration": 0.1666667916666995,
          "durationTicks": 140,
          "midi": 30,
          "name": "F#1",
          "ticks": 186960,
          "time": 222.57159549999997,
          "velocity": 0.3464566929133858
        },
        {
          "duration": 0.1666667916666995,
          "durationTicks": 140,
          "midi": 37,
          "name": "C#2",
          "ticks": 186960,
          "time": 222.57159549999997,
          "velocity": 0.3858267716535433
        },
        {
          "duration": 0.11904770833334055,
          "durationTicks": 100,
          "midi": 42,
          "name": "F#2",
          "ticks": 186960,
          "time": 222.57159549999997,
          "velocity": 0.36220472440944884
        },
        {
          "duration": 0.1666667916666995,
          "durationTicks": 140,
          "midi": 69,
          "name": "A4",
          "ticks": 186960,
          "time": 222.57159549999997,
          "velocity": 0.29133858267716534
        },
        {
          "duration": 0.1428572499999916,
          "durationTicks": 120,
          "midi": 73,
          "name": "C#5",
          "ticks": 187080,
          "time": 222.71445275,
          "velocity": 0.29133858267716534
        },
        {
          "duration": 0.1428572499999916,
          "durationTicks": 120,
          "midi": 37,
          "name": "C#2",
          "ticks": 187200,
          "time": 222.85730999999998,
          "velocity": 0.25984251968503935
        },
        {
          "duration": 0.1428572499999916,
          "durationTicks": 120,
          "midi": 44,
          "name": "G#2",
          "ticks": 187200,
          "time": 222.85730999999998,
          "velocity": 0.31496062992125984
        },
        {
          "duration": 0.1428572499999916,
          "durationTicks": 120,
          "midi": 54,
          "name": "F#3",
          "ticks": 187200,
          "time": 222.85730999999998,
          "velocity": 0.41732283464566927
        },
        {
          "duration": 0.1428572499999916,
          "durationTicks": 120,
          "midi": 56,
          "name": "G#3",
          "ticks": 187200,
          "time": 222.85730999999998,
          "velocity": 0.31496062992125984
        },
        {
          "duration": 0.1428572499999916,
          "durationTicks": 120,
          "midi": 59,
          "name": "B3",
          "ticks": 187200,
          "time": 222.85730999999998,
          "velocity": 0.33858267716535434
        },
        {
          "duration": 0.1428572499999916,
          "durationTicks": 120,
          "midi": 64,
          "name": "E4",
          "ticks": 187200,
          "time": 222.85730999999998,
          "velocity": 0.3228346456692913
        },
        {
          "duration": 0.1428572499999916,
          "durationTicks": 120,
          "midi": 66,
          "name": "F#4",
          "ticks": 187200,
          "time": 222.85730999999998,
          "velocity": 0.41732283464566927
        },
        {
          "duration": 0.11904770833331213,
          "durationTicks": 100,
          "midi": 71,
          "name": "B4",
          "ticks": 187200,
          "time": 222.85730999999998,
          "velocity": 0.33858267716535434
        },
        {
          "duration": 0.1428572499999916,
          "durationTicks": 120,
          "midi": 76,
          "name": "E5",
          "ticks": 187200,
          "time": 222.85730999999998,
          "velocity": 0.2677165354330709
        },
        {
          "duration": 0.28571450000001164,
          "durationTicks": 240,
          "midi": 32,
          "name": "G#1",
          "ticks": 187320,
          "time": 223.00016724999998,
          "velocity": 0.41732283464566927
        },
        {
          "duration": 0.28571450000001164,
          "durationTicks": 240,
          "midi": 44,
          "name": "G#2",
          "ticks": 187320,
          "time": 223.00016724999998,
          "velocity": 0.33858267716535434
        },
        {
          "duration": 0.1428572499999916,
          "durationTicks": 120,
          "midi": 40,
          "name": "E2",
          "ticks": 187560,
          "time": 223.28588175,
          "velocity": 0.4094488188976378
        },
        {
          "duration": 0.1428572499999916,
          "durationTicks": 120,
          "midi": 59,
          "name": "B3",
          "ticks": 187560,
          "time": 223.28588175,
          "velocity": 0.29133858267716534
        },
        {
          "duration": 0.1428572499999916,
          "durationTicks": 120,
          "midi": 64,
          "name": "E4",
          "ticks": 187560,
          "time": 223.28588175,
          "velocity": 0.3464566929133858
        },
        {
          "duration": 0.14285725000002003,
          "durationTicks": 120,
          "midi": 56,
          "name": "G#3",
          "ticks": 187680,
          "time": 223.42873899999998,
          "velocity": 0.3700787401574803
        },
        {
          "duration": 0.14285725000002003,
          "durationTicks": 120,
          "midi": 66,
          "name": "F#4",
          "ticks": 187680,
          "time": 223.42873899999998,
          "velocity": 0.2755905511811024
        },
        {
          "duration": 0.1666667916666711,
          "durationTicks": 140,
          "midi": 44,
          "name": "G#2",
          "ticks": 187800,
          "time": 223.57159625,
          "velocity": 0.4330708661417323
        },
        {
          "duration": 0.1666667916666711,
          "durationTicks": 140,
          "midi": 68,
          "name": "G#4",
          "ticks": 187800,
          "time": 223.57159625,
          "velocity": 0.2677165354330709
        },
        {
          "duration": 0.1428572499999916,
          "durationTicks": 120,
          "midi": 40,
          "name": "E2",
          "ticks": 187920,
          "time": 223.7144535,
          "velocity": 0.4566929133858268
        },
        {
          "duration": 0.1428572499999916,
          "durationTicks": 120,
          "midi": 64,
          "name": "E4",
          "ticks": 187920,
          "time": 223.7144535,
          "velocity": 0.33070866141732286
        },
        {
          "duration": 0.1428572499999916,
          "durationTicks": 120,
          "midi": 73,
          "name": "C#5",
          "ticks": 187920,
          "time": 223.7144535,
          "velocity": 0.2204724409448819
        },
        {
          "duration": 0.1428572499999916,
          "durationTicks": 120,
          "midi": 76,
          "name": "E5",
          "ticks": 187920,
          "time": 223.7144535,
          "velocity": 0.23622047244094488
        },
        {
          "duration": 0.1666667916666711,
          "durationTicks": 140,
          "midi": 32,
          "name": "G#1",
          "ticks": 188040,
          "time": 223.85731074999998,
          "velocity": 0.30708661417322836
        },
        {
          "duration": 0.1666667916666711,
          "durationTicks": 140,
          "midi": 44,
          "name": "G#2",
          "ticks": 188040,
          "time": 223.85731074999998,
          "velocity": 0.33858267716535434
        },
        {
          "duration": 0.1666667916666711,
          "durationTicks": 140,
          "midi": 63,
          "name": "D#4",
          "ticks": 188040,
          "time": 223.85731074999998,
          "velocity": 0.25196850393700787
        },
        {
          "duration": 0.21428587500000162,
          "durationTicks": 180,
          "midi": 66,
          "name": "F#4",
          "ticks": 188040,
          "time": 223.85731074999998,
          "velocity": 0.4566929133858268
        },
        {
          "duration": 0.1666667916666711,
          "durationTicks": 140,
          "midi": 75,
          "name": "D#5",
          "ticks": 188040,
          "time": 223.85731074999998,
          "velocity": 0.2755905511811024
        },
        {
          "duration": 0.11904770833334055,
          "durationTicks": 100,
          "midi": 78,
          "name": "F#5",
          "ticks": 188040,
          "time": 223.85731074999998,
          "velocity": 0.5039370078740157
        },
        {
          "duration": 0.42857175000000325,
          "durationTicks": 360,
          "midi": 33,
          "name": "A1",
          "ticks": 188160,
          "time": 224.00016799999997,
          "velocity": 0.47244094488188976
        },
        {
          "duration": 0.42857175000000325,
          "durationTicks": 360,
          "midi": 45,
          "name": "A2",
          "ticks": 188160,
          "time": 224.00016799999997,
          "velocity": 0.3228346456692913
        },
        {
          "duration": 0.42857175000000325,
          "durationTicks": 360,
          "midi": 59,
          "name": "B3",
          "ticks": 188160,
          "time": 224.00016799999997,
          "velocity": 0.23622047244094488
        },
        {
          "duration": 0.42857175000000325,
          "durationTicks": 360,
          "midi": 61,
          "name": "C#4",
          "ticks": 188160,
          "time": 224.00016799999997,
          "velocity": 0.2204724409448819
        },
        {
          "duration": 0.42857175000000325,
          "durationTicks": 360,
          "midi": 64,
          "name": "E4",
          "ticks": 188160,
          "time": 224.00016799999997,
          "velocity": 0.23622047244094488
        },
        {
          "duration": 0.42857175000000325,
          "durationTicks": 360,
          "midi": 68,
          "name": "G#4",
          "ticks": 188160,
          "time": 224.00016799999997,
          "velocity": 0.4409448818897638
        },
        {
          "duration": 0.42857175000000325,
          "durationTicks": 360,
          "midi": 76,
          "name": "E5",
          "ticks": 188160,
          "time": 224.00016799999997,
          "velocity": 0.2047244094488189
        },
        {
          "duration": 0.42857175000000325,
          "durationTicks": 360,
          "midi": 80,
          "name": "G#5",
          "ticks": 188160,
          "time": 224.00016799999997,
          "velocity": 0.4409448818897638
        },
        {
          "duration": 0.14285725000002003,
          "durationTicks": 120,
          "midi": 33,
          "name": "A1",
          "ticks": 188520,
          "time": 224.42873974999998,
          "velocity": 0.5984251968503937
        },
        {
          "duration": 0.14285725000002003,
          "durationTicks": 120,
          "midi": 40,
          "name": "E2",
          "ticks": 188520,
          "time": 224.42873974999998,
          "velocity": 0.3937007874015748
        },
        {
          "duration": 0.14285725000002003,
          "durationTicks": 120,
          "midi": 56,
          "name": "G#3",
          "ticks": 188520,
          "time": 224.42873974999998,
          "velocity": 0.3464566929133858
        },
        {
          "duration": 0.11904770833331213,
          "durationTicks": 100,
          "midi": 63,
          "name": "D#4",
          "ticks": 188640,
          "time": 224.571597,
          "velocity": 0.2125984251968504
        },
        {
          "duration": 0.11904770833331213,
          "durationTicks": 100,
          "midi": 66,
          "name": "F#4",
          "ticks": 188640,
          "time": 224.571597,
          "velocity": 0.48031496062992124
        },
        {
          "duration": 0.11904770833331213,
          "durationTicks": 100,
          "midi": 75,
          "name": "D#5",
          "ticks": 188640,
          "time": 224.571597,
          "velocity": 0.25196850393700787
        },
        {
          "duration": 0.11904770833331213,
          "durationTicks": 100,
          "midi": 78,
          "name": "F#5",
          "ticks": 188640,
          "time": 224.571597,
          "velocity": 0.48031496062992124
        },
        {
          "duration": 0.28571450000001164,
          "durationTicks": 240,
          "midi": 40,
          "name": "E2",
          "ticks": 188760,
          "time": 224.71445425,
          "velocity": 0.3779527559055118
        },
        {
          "duration": 0.1428572499999916,
          "durationTicks": 120,
          "midi": 75,
          "name": "D#5",
          "ticks": 189000,
          "time": 225.00016875,
          "velocity": 0.2755905511811024
        },
        {
          "duration": 0.1428572499999916,
          "durationTicks": 120,
          "midi": 35,
          "name": "B1",
          "ticks": 189120,
          "time": 225.143026,
          "velocity": 0.36220472440944884
        },
        {
          "duration": 0.1428572499999916,
          "durationTicks": 120,
          "midi": 57,
          "name": "A3",
          "ticks": 189120,
          "time": 225.143026,
          "velocity": 0.2992125984251969
        },
        {
          "duration": 0.1428572499999916,
          "durationTicks": 120,
          "midi": 64,
          "name": "E4",
          "ticks": 189120,
          "time": 225.143026,
          "velocity": 0.4094488188976378
        },
        {
          "duration": 0.1428572499999916,
          "durationTicks": 120,
          "midi": 69,
          "name": "A4",
          "ticks": 189120,
          "time": 225.143026,
          "velocity": 0.2992125984251969
        },
        {
          "duration": 0.1428572499999916,
          "durationTicks": 120,
          "midi": 71,
          "name": "B4",
          "ticks": 189120,
          "time": 225.143026,
          "velocity": 0.2677165354330709
        },
        {
          "duration": 0.1428572499999916,
          "durationTicks": 120,
          "midi": 73,
          "name": "C#5",
          "ticks": 189120,
          "time": 225.143026,
          "velocity": 0.30708661417322836
        },
        {
          "duration": 0.1428572499999916,
          "durationTicks": 120,
          "midi": 76,
          "name": "E5",
          "ticks": 189120,
          "time": 225.143026,
          "velocity": 0.4094488188976378
        },
        {
          "duration": 0.42857175000000325,
          "durationTicks": 360,
          "midi": 57,
          "name": "A3",
          "ticks": 189240,
          "time": 225.28588324999998,
          "velocity": 0.30708661417322836
        },
        {
          "duration": 0.28571450000001164,
          "durationTicks": 240,
          "midi": 31,
          "name": "G1",
          "ticks": 189600,
          "time": 225.714455,
          "velocity": 0.3464566929133858
        },
        {
          "duration": 0.28571450000001164,
          "durationTicks": 240,
          "midi": 43,
          "name": "G2",
          "ticks": 189600,
          "time": 225.714455,
          "velocity": 0.3464566929133858
        },
        {
          "duration": 0.28571450000001164,
          "durationTicks": 240,
          "midi": 63,
          "name": "D#4",
          "ticks": 189600,
          "time": 225.714455,
          "velocity": 0.6299212598425197
        },
        {
          "duration": 0.28571450000001164,
          "durationTicks": 240,
          "midi": 67,
          "name": "G4",
          "ticks": 189600,
          "time": 225.714455,
          "velocity": 0.4015748031496063
        },
        {
          "duration": 0.28571450000001164,
          "durationTicks": 240,
          "midi": 68,
          "name": "G#4",
          "ticks": 189600,
          "time": 225.714455,
          "velocity": 0.29133858267716534
        },
        {
          "duration": 0.28571450000001164,
          "durationTicks": 240,
          "midi": 71,
          "name": "B4",
          "ticks": 189600,
          "time": 225.714455,
          "velocity": 0.25984251968503935
        },
        {
          "duration": 0.28571450000001164,
          "durationTicks": 240,
          "midi": 75,
          "name": "D#5",
          "ticks": 189600,
          "time": 225.714455,
          "velocity": 0.3858267716535433
        },
        {
          "duration": 0.28571450000001164,
          "durationTicks": 240,
          "midi": 79,
          "name": "G5",
          "ticks": 189600,
          "time": 225.714455,
          "velocity": 0.4015748031496063
        },
        {
          "duration": 0.28571450000001164,
          "durationTicks": 240,
          "midi": 80,
          "name": "G#5",
          "ticks": 189600,
          "time": 225.714455,
          "velocity": 0.2677165354330709
        },
        {
          "duration": 0.28571450000001164,
          "durationTicks": 240,
          "midi": 83,
          "name": "B5",
          "ticks": 189600,
          "time": 225.714455,
          "velocity": 0.25984251968503935
        },
        {
          "duration": 0.1428572499999916,
          "durationTicks": 120,
          "midi": 76,
          "name": "E5",
          "ticks": 189840,
          "time": 226.0001695,
          "velocity": 0.1968503937007874
        },
        {
          "duration": 0.07142862500001002,
          "durationTicks": 60,
          "midi": 69,
          "name": "A4",
          "ticks": 189960,
          "time": 226.14302675,
          "velocity": 0.31496062992125984
        },
        {
          "duration": 0.07142862500001002,
          "durationTicks": 60,
          "midi": 77,
          "name": "F5",
          "ticks": 189960,
          "time": 226.14302675,
          "velocity": 0.2440944881889764
        },
        {
          "duration": 0.1666667916666711,
          "durationTicks": 140,
          "midi": 79,
          "name": "G5",
          "ticks": 189960,
          "time": 226.14302675,
          "velocity": 0.3779527559055118
        },
        {
          "duration": 0.07142862500001002,
          "durationTicks": 60,
          "midi": 81,
          "name": "A5",
          "ticks": 189960,
          "time": 226.14302675,
          "velocity": 0.2992125984251969
        },
        {
          "duration": 0.11904770833331213,
          "durationTicks": 100,
          "midi": 82,
          "name": "A#5",
          "ticks": 189960,
          "time": 226.14302675,
          "velocity": 0.3464566929133858
        },
        {
          "duration": 0.42857175000000325,
          "durationTicks": 360,
          "midi": 30,
          "name": "F#1",
          "ticks": 190080,
          "time": 226.28588399999998,
          "velocity": 0.4881889763779528
        },
        {
          "duration": 0.42857175000000325,
          "durationTicks": 360,
          "midi": 42,
          "name": "F#2",
          "ticks": 190080,
          "time": 226.28588399999998,
          "velocity": 0.4881889763779528
        },
        {
          "duration": 0.42857175000000325,
          "durationTicks": 360,
          "midi": 56,
          "name": "G#3",
          "ticks": 190080,
          "time": 226.28588399999998,
          "velocity": 0.2992125984251969
        },
        {
          "duration": 0.42857175000000325,
          "durationTicks": 360,
          "midi": 57,
          "name": "A3",
          "ticks": 190080,
          "time": 226.28588399999998,
          "velocity": 0.4330708661417323
        },
        {
          "duration": 0.42857175000000325,
          "durationTicks": 360,
          "midi": 61,
          "name": "C#4",
          "ticks": 190080,
          "time": 226.28588399999998,
          "velocity": 0.3937007874015748
        },
        {
          "duration": 0.42857175000000325,
          "durationTicks": 360,
          "midi": 69,
          "name": "A4",
          "ticks": 190080,
          "time": 226.28588399999998,
          "velocity": 0.4330708661417323
        },
        {
          "duration": 0.42857175000000325,
          "durationTicks": 360,
          "midi": 73,
          "name": "C#5",
          "ticks": 190080,
          "time": 226.28588399999998,
          "velocity": 0.3228346456692913
        },
        {
          "duration": 0.3095240416666911,
          "durationTicks": 260,
          "midi": 37,
          "name": "C#2",
          "ticks": 190440,
          "time": 226.71445574999998,
          "velocity": 0.33070866141732286
        },
        {
          "duration": 0.26190495833333216,
          "durationTicks": 220,
          "midi": 61,
          "name": "C#4",
          "ticks": 190440,
          "time": 226.71445574999998,
          "velocity": 0.4566929133858268
        },
        {
          "duration": 0.1428572499999916,
          "durationTicks": 120,
          "midi": 69,
          "name": "A4",
          "ticks": 190680,
          "time": 227.00017025,
          "velocity": 0.2755905511811024
        },
        {
          "duration": 0.26190495833333216,
          "durationTicks": 220,
          "midi": 42,
          "name": "F#2",
          "ticks": 190800,
          "time": 227.1430275,
          "velocity": 0.47244094488188976
        },
        {
          "duration": 0.26190495833333216,
          "durationTicks": 220,
          "midi": 69,
          "name": "A4",
          "ticks": 190800,
          "time": 227.1430275,
          "velocity": 0.3779527559055118
        },
        {
          "duration": 0.1666667916666711,
          "durationTicks": 140,
          "midi": 42,
          "name": "F#2",
          "ticks": 191040,
          "time": 227.428742,
          "velocity": 0.4409448818897638
        },
        {
          "duration": 0.11904770833331213,
          "durationTicks": 100,
          "midi": 64,
          "name": "E4",
          "ticks": 191040,
          "time": 227.428742,
          "velocity": 0.25984251968503935
        },
        {
          "duration": 0.1666667916666711,
          "durationTicks": 140,
          "midi": 68,
          "name": "G#4",
          "ticks": 191040,
          "time": 227.428742,
          "velocity": 0.4645669291338583
        },
        {
          "duration": 0.1428572499999916,
          "durationTicks": 120,
          "midi": 42,
          "name": "F#2",
          "ticks": 191160,
          "time": 227.57159925,
          "velocity": 0.4094488188976378
        },
        {
          "duration": 0.1666667916666711,
          "durationTicks": 140,
          "midi": 37,
          "name": "C#2",
          "ticks": 191280,
          "time": 227.71445649999998,
          "velocity": 0.3228346456692913
        },
        {
          "duration": 0.14285725000002003,
          "durationTicks": 120,
          "midi": 57,
          "name": "A3",
          "ticks": 191400,
          "time": 227.85731374999997,
          "velocity": 0.3228346456692913
        },
        {
          "duration": 0.14285725000002003,
          "durationTicks": 120,
          "midi": 69,
          "name": "A4",
          "ticks": 191400,
          "time": 227.85731374999997,
          "velocity": 0.3228346456692913
        },
        {
          "duration": 0.1428572499999916,
          "durationTicks": 120,
          "midi": 30,
          "name": "F#1",
          "ticks": 191520,
          "time": 228.000171,
          "velocity": 0.41732283464566927
        },
        {
          "duration": 0.1428572499999916,
          "durationTicks": 120,
          "midi": 68,
          "name": "G#4",
          "ticks": 191520,
          "time": 228.000171,
          "velocity": 0.4409448818897638
        },
        {
          "duration": 0.11904770833331213,
          "durationTicks": 100,
          "midi": 56,
          "name": "G#3",
          "ticks": 191640,
          "time": 228.14302825,
          "velocity": 0.31496062992125984
        },
        {
          "duration": 0.11904770833331213,
          "durationTicks": 100,
          "midi": 61,
          "name": "C#4",
          "ticks": 191640,
          "time": 228.14302825,
          "velocity": 0.2677165354330709
        },
        {
          "duration": 0.14285725000002003,
          "durationTicks": 120,
          "midi": 30,
          "name": "F#1",
          "ticks": 191760,
          "time": 228.28588549999998,
          "velocity": 0.4881889763779528
        },
        {
          "duration": 0.14285725000002003,
          "durationTicks": 120,
          "midi": 40,
          "name": "E2",
          "ticks": 191760,
          "time": 228.28588549999998,
          "velocity": 0.36220472440944884
        },
        {
          "duration": 0.14285725000002003,
          "durationTicks": 120,
          "midi": 42,
          "name": "F#2",
          "ticks": 191760,
          "time": 228.28588549999998,
          "velocity": 0.4881889763779528
        },
        {
          "duration": 0.14285725000002003,
          "durationTicks": 120,
          "midi": 52,
          "name": "E3",
          "ticks": 191760,
          "time": 228.28588549999998,
          "velocity": 0.36220472440944884
        },
        {
          "duration": 0.1666667916666711,
          "durationTicks": 140,
          "midi": 30,
          "name": "F#1",
          "ticks": 191880,
          "time": 228.42874275,
          "velocity": 0.2992125984251969
        },
        {
          "duration": 0.11904770833331213,
          "durationTicks": 100,
          "midi": 71,
          "name": "B4",
          "ticks": 191880,
          "time": 228.42874275,
          "velocity": 0.3464566929133858
        },
        {
          "duration": 0.2857144999999832,
          "durationTicks": 240,
          "midi": 32,
          "name": "G#1",
          "ticks": 192000,
          "time": 228.5716,
          "velocity": 0.4330708661417323
        },
        {
          "duration": 0.2857144999999832,
          "durationTicks": 240,
          "midi": 51,
          "name": "D#3",
          "ticks": 192000,
          "time": 228.5716,
          "velocity": 0.31496062992125984
        },
        {
          "duration": 0.2857144999999832,
          "durationTicks": 240,
          "midi": 56,
          "name": "G#3",
          "ticks": 192000,
          "time": 228.5716,
          "velocity": 0.25196850393700787
        },
        {
          "duration": 0.2857144999999832,
          "durationTicks": 240,
          "midi": 58,
          "name": "A#3",
          "ticks": 192000,
          "time": 228.5716,
          "velocity": 0.3464566929133858
        },
        {
          "duration": 0.2857144999999832,
          "durationTicks": 240,
          "midi": 59,
          "name": "B3",
          "ticks": 192000,
          "time": 228.5716,
          "velocity": 0.4015748031496063
        },
        {
          "duration": 0.2857144999999832,
          "durationTicks": 240,
          "midi": 63,
          "name": "D#4",
          "ticks": 192000,
          "time": 228.5716,
          "velocity": 0.2755905511811024
        },
        {
          "duration": 0.14285725000002003,
          "durationTicks": 120,
          "midi": 54,
          "name": "F#3",
          "ticks": 192240,
          "time": 228.85731449999997,
          "velocity": 0.2283464566929134
        },
        {
          "duration": 0.14285725000002003,
          "durationTicks": 120,
          "midi": 66,
          "name": "F#4",
          "ticks": 192240,
          "time": 228.85731449999997,
          "velocity": 0.2283464566929134
        },
        {
          "duration": 0.3095240416666627,
          "durationTicks": 260,
          "midi": 39,
          "name": "D#2",
          "ticks": 192360,
          "time": 229.00017175,
          "velocity": 0.3858267716535433
        },
        {
          "duration": 0.14285725000002003,
          "durationTicks": 120,
          "midi": 59,
          "name": "B3",
          "ticks": 192600,
          "time": 229.28588624999998,
          "velocity": 0.33070866141732286
        },
        {
          "duration": 0.14285725000002003,
          "durationTicks": 120,
          "midi": 71,
          "name": "B4",
          "ticks": 192600,
          "time": 229.28588624999998,
          "velocity": 0.33070866141732286
        },
        {
          "duration": 0.1666667916666711,
          "durationTicks": 140,
          "midi": 32,
          "name": "G#1",
          "ticks": 192720,
          "time": 229.4287435,
          "velocity": 0.3700787401574803
        },
        {
          "duration": 0.1666667916666711,
          "durationTicks": 140,
          "midi": 44,
          "name": "G#2",
          "ticks": 192720,
          "time": 229.4287435,
          "velocity": 0.3700787401574803
        },
        {
          "duration": 0.21428587500000162,
          "durationTicks": 180,
          "midi": 63,
          "name": "D#4",
          "ticks": 192720,
          "time": 229.4287435,
          "velocity": 0.2755905511811024
        },
        {
          "duration": 0.1666667916666711,
          "durationTicks": 140,
          "midi": 66,
          "name": "F#4",
          "ticks": 192720,
          "time": 229.4287435,
          "velocity": 0.5433070866141733
        },
        {
          "duration": 0.11904770833331213,
          "durationTicks": 100,
          "midi": 71,
          "name": "B4",
          "ticks": 192720,
          "time": 229.4287435,
          "velocity": 0.28346456692913385
        },
        {
          "duration": 0.1428572499999916,
          "durationTicks": 120,
          "midi": 71,
          "name": "B4",
          "ticks": 192840,
          "time": 229.57160075,
          "velocity": 0.3700787401574803
        },
        {
          "duration": 0.14285725000002003,
          "durationTicks": 120,
          "midi": 32,
          "name": "G#1",
          "ticks": 192960,
          "time": 229.71445799999998,
          "velocity": 0.4409448818897638
        },
        {
          "duration": 0.14285725000002003,
          "durationTicks": 120,
          "midi": 39,
          "name": "D#2",
          "ticks": 192960,
          "time": 229.71445799999998,
          "velocity": 0.31496062992125984
        },
        {
          "duration": 0.14285725000002003,
          "durationTicks": 120,
          "midi": 44,
          "name": "G#2",
          "ticks": 192960,
          "time": 229.71445799999998,
          "velocity": 0.31496062992125984
        },
        {
          "duration": 0.14285725000002003,
          "durationTicks": 120,
          "midi": 68,
          "name": "G#4",
          "ticks": 192960,
          "time": 229.71445799999998,
          "velocity": 0.31496062992125984
        },
        {
          "duration": 0.1428572499999916,
          "durationTicks": 120,
          "midi": 44,
          "name": "G#2",
          "ticks": 193080,
          "time": 229.85731525,
          "velocity": 0.4330708661417323
        },
        {
          "duration": 0.1428572499999916,
          "durationTicks": 120,
          "midi": 39,
          "name": "D#2",
          "ticks": 193200,
          "time": 230.0001725,
          "velocity": 0.3464566929133858
        },
        {
          "duration": 0.1428572499999916,
          "durationTicks": 120,
          "midi": 54,
          "name": "F#3",
          "ticks": 193200,
          "time": 230.0001725,
          "velocity": 0.2204724409448819
        },
        {
          "duration": 0.1428572499999916,
          "durationTicks": 120,
          "midi": 63,
          "name": "D#4",
          "ticks": 193200,
          "time": 230.0001725,
          "velocity": 0.2283464566929134
        },
        {
          "duration": 0.1428572499999916,
          "durationTicks": 120,
          "midi": 82,
          "name": "A#5",
          "ticks": 193200,
          "time": 230.0001725,
          "velocity": 0.30708661417322836
        },
        {
          "duration": 0.1428572499999916,
          "durationTicks": 120,
          "midi": 58,
          "name": "A#3",
          "ticks": 193320,
          "time": 230.14302974999998,
          "velocity": 0.3543307086614173
        },
        {
          "duration": 0.14285725000002003,
          "durationTicks": 120,
          "midi": 32,
          "name": "G#1",
          "ticks": 193440,
          "time": 230.28588699999997,
          "velocity": 0.4015748031496063
        },
        {
          "duration": 0.14285725000002003,
          "durationTicks": 120,
          "midi": 63,
          "name": "D#4",
          "ticks": 193440,
          "time": 230.28588699999997,
          "velocity": 0.2440944881889764
        },
        {
          "duration": 0.1666667916666711,
          "durationTicks": 140,
          "midi": 59,
          "name": "B3",
          "ticks": 193560,
          "time": 230.42874425,
          "velocity": 0.3858267716535433
        },
        {
          "duration": 0.1428572499999916,
          "durationTicks": 120,
          "midi": 28,
          "name": "E1",
          "ticks": 193680,
          "time": 230.57160149999999,
          "velocity": 0.4409448818897638
        },
        {
          "duration": 0.1428572499999916,
          "durationTicks": 120,
          "midi": 40,
          "name": "E2",
          "ticks": 193680,
          "time": 230.57160149999999,
          "velocity": 0.4409448818897638
        },
        {
          "duration": 0.1428572499999916,
          "durationTicks": 120,
          "midi": 44,
          "name": "G#2",
          "ticks": 193680,
          "time": 230.57160149999999,
          "velocity": 0.3858267716535433
        },
        {
          "duration": 0.1666667916666995,
          "durationTicks": 140,
          "midi": 32,
          "name": "G#1",
          "ticks": 193800,
          "time": 230.71445874999998,
          "velocity": 0.33858267716535434
        },
        {
          "duration": 0.2857144999999832,
          "durationTicks": 240,
          "midi": 33,
          "name": "A1",
          "ticks": 193920,
          "time": 230.857316,
          "velocity": 0.4409448818897638
        },
        {
          "duration": 0.2857144999999832,
          "durationTicks": 240,
          "midi": 45,
          "name": "A2",
          "ticks": 193920,
          "time": 230.857316,
          "velocity": 0.2992125984251969
        },
        {
          "duration": 0.2857144999999832,
          "durationTicks": 240,
          "midi": 52,
          "name": "E3",
          "ticks": 193920,
          "time": 230.857316,
          "velocity": 0.4015748031496063
        },
        {
          "duration": 0.2857144999999832,
          "durationTicks": 240,
          "midi": 56,
          "name": "G#3",
          "ticks": 193920,
          "time": 230.857316,
          "velocity": 0.2440944881889764
        },
        {
          "duration": 0.2857144999999832,
          "durationTicks": 240,
          "midi": 60,
          "name": "C4",
          "ticks": 193920,
          "time": 230.857316,
          "velocity": 0.25196850393700787
        },
        {
          "duration": 0.2857144999999832,
          "durationTicks": 240,
          "midi": 64,
          "name": "E4",
          "ticks": 193920,
          "time": 230.857316,
          "velocity": 0.25196850393700787
        },
        {
          "duration": 0.2857144999999832,
          "durationTicks": 240,
          "midi": 82,
          "name": "A#5",
          "ticks": 193920,
          "time": 230.857316,
          "velocity": 0.28346456692913385
        },
        {
          "duration": 0.1428572499999916,
          "durationTicks": 120,
          "midi": 56,
          "name": "G#3",
          "ticks": 194160,
          "time": 231.14303049999998,
          "velocity": 0.3543307086614173
        },
        {
          "duration": 0.1666667916666995,
          "durationTicks": 140,
          "midi": 40,
          "name": "E2",
          "ticks": 194280,
          "time": 231.28588774999997,
          "velocity": 0.48031496062992124
        },
        {
          "duration": 0.1666667916666995,
          "durationTicks": 140,
          "midi": 60,
          "name": "C4",
          "ticks": 194280,
          "time": 231.28588774999997,
          "velocity": 0.25984251968503935
        },
        {
          "duration": 0.1666667916666711,
          "durationTicks": 140,
          "midi": 66,
          "name": "F#4",
          "ticks": 194400,
          "time": 231.428745,
          "velocity": 0.5354330708661418
        },
        {
          "duration": 0.1428572499999916,
          "durationTicks": 120,
          "midi": 64,
          "name": "E4",
          "ticks": 194520,
          "time": 231.57160224999998,
          "velocity": 0.31496062992125984
        },
        {
          "duration": 0.2380954166666811,
          "durationTicks": 200,
          "midi": 54,
          "name": "F#3",
          "ticks": 194640,
          "time": 231.71445949999998,
          "velocity": 0.3464566929133858
        },
        {
          "duration": 0.26190495833333216,
          "durationTicks": 220,
          "midi": 60,
          "name": "C4",
          "ticks": 194640,
          "time": 231.71445949999998,
          "velocity": 0.29133858267716534
        },
        {
          "duration": 0.11904770833331213,
          "durationTicks": 100,
          "midi": 45,
          "name": "A2",
          "ticks": 194880,
          "time": 232.000174,
          "velocity": 0.47244094488188976
        },
        {
          "duration": 0.11904770833331213,
          "durationTicks": 100,
          "midi": 60,
          "name": "C4",
          "ticks": 194880,
          "time": 232.000174,
          "velocity": 0.2440944881889764
        },
        {
          "duration": 0.11904770833331213,
          "durationTicks": 100,
          "midi": 64,
          "name": "E4",
          "ticks": 194880,
          "time": 232.000174,
          "velocity": 0.30708661417322836
        },
        {
          "duration": 0.14285725000002003,
          "durationTicks": 120,
          "midi": 60,
          "name": "C4",
          "ticks": 195000,
          "time": 232.14303124999998,
          "velocity": 0.2283464566929134
        },
        {
          "duration": 0.11904770833331213,
          "durationTicks": 100,
          "midi": 45,
          "name": "A2",
          "ticks": 195120,
          "time": 232.2858885,
          "velocity": 0.3937007874015748
        },
        {
          "duration": 0.11904770833331213,
          "durationTicks": 100,
          "midi": 54,
          "name": "F#3",
          "ticks": 195120,
          "time": 232.2858885,
          "velocity": 0.2677165354330709
        },
        {
          "duration": 0.1428572499999916,
          "durationTicks": 120,
          "midi": 40,
          "name": "E2",
          "ticks": 195240,
          "time": 232.42874575,
          "velocity": 0.4330708661417323
        },
        {
          "duration": 0.1428572499999916,
          "durationTicks": 120,
          "midi": 60,
          "name": "C4",
          "ticks": 195240,
          "time": 232.42874575,
          "velocity": 0.2283464566929134
        },
        {
          "duration": 0.1428572499999916,
          "durationTicks": 120,
          "midi": 54,
          "name": "F#3",
          "ticks": 195360,
          "time": 232.57160299999998,
          "velocity": 0.33070866141732286
        },
        {
          "duration": 0.1428572499999916,
          "durationTicks": 120,
          "midi": 64,
          "name": "E4",
          "ticks": 195360,
          "time": 232.57160299999998,
          "velocity": 0.5039370078740157
        },
        {
          "duration": 0.19047633333332215,
          "durationTicks": 160,
          "midi": 65,
          "name": "F4",
          "ticks": 195360,
          "time": 232.57160299999998,
          "velocity": 0.3700787401574803
        },
        {
          "duration": 0.11904770833334055,
          "durationTicks": 100,
          "midi": 64,
          "name": "E4",
          "ticks": 195480,
          "time": 232.71446024999997,
          "velocity": 0.36220472440944884
        },
        {
          "duration": 0.2857144999999832,
          "durationTicks": 240,
          "midi": 35,
          "name": "B1",
          "ticks": 195600,
          "time": 232.8573175,
          "velocity": 0.2992125984251969
        },
        {
          "duration": 0.2857144999999832,
          "durationTicks": 240,
          "midi": 45,
          "name": "A2",
          "ticks": 195600,
          "time": 232.8573175,
          "velocity": 0.29133858267716534
        },
        {
          "duration": 0.33333358333331375,
          "durationTicks": 280,
          "midi": 63,
          "name": "D#4",
          "ticks": 195600,
          "time": 232.8573175,
          "velocity": 0.4015748031496063
        },
        {
          "duration": 0.28571450000001164,
          "durationTicks": 240,
          "midi": 47,
          "name": "B2",
          "ticks": 195840,
          "time": 233.14303199999998,
          "velocity": 0.4094488188976378
        },
        {
          "duration": 0.28571450000001164,
          "durationTicks": 240,
          "midi": 56,
          "name": "G#3",
          "ticks": 195840,
          "time": 233.14303199999998,
          "velocity": 0.25984251968503935
        },
        {
          "duration": 0.3333335833333422,
          "durationTicks": 280,
          "midi": 64,
          "name": "E4",
          "ticks": 195840,
          "time": 233.14303199999998,
          "velocity": 0.3700787401574803
        },
        {
          "duration": 0.1428572499999916,
          "durationTicks": 120,
          "midi": 63,
          "name": "D#4",
          "ticks": 196080,
          "time": 233.4287465,
          "velocity": 0.4409448818897638
        },
        {
          "duration": 0.11904770833334055,
          "durationTicks": 100,
          "midi": 44,
          "name": "G#2",
          "ticks": 196200,
          "time": 233.57160374999998,
          "velocity": 0.5511811023622047
        },
        {
          "duration": 0.11904770833334055,
          "durationTicks": 100,
          "midi": 61,
          "name": "C#4",
          "ticks": 196200,
          "time": 233.57160374999998,
          "velocity": 0.25984251968503935
        },
        {
          "duration": 0.1666667916666995,
          "durationTicks": 140,
          "midi": 63,
          "name": "D#4",
          "ticks": 196320,
          "time": 233.71446099999997,
          "velocity": 0.4015748031496063
        },
        {
          "duration": 0.1428572499999916,
          "durationTicks": 120,
          "midi": 45,
          "name": "A2",
          "ticks": 196440,
          "time": 233.85731825,
          "velocity": 0.30708661417322836
        },
        {
          "duration": 0.1428572499999916,
          "durationTicks": 120,
          "midi": 59,
          "name": "B3",
          "ticks": 196440,
          "time": 233.85731825,
          "velocity": 0.2755905511811024
        },
        {
          "duration": 0.11904770833331213,
          "durationTicks": 100,
          "midi": 47,
          "name": "B2",
          "ticks": 196560,
          "time": 234.00017549999998,
          "velocity": 0.5196850393700787
        },
        {
          "duration": 0.11904770833331213,
          "durationTicks": 100,
          "midi": 59,
          "name": "B3",
          "ticks": 196560,
          "time": 234.00017549999998,
          "velocity": 0.5196850393700787
        },
        {
          "duration": 0.14285725000002003,
          "durationTicks": 120,
          "midi": 61,
          "name": "C#4",
          "ticks": 196680,
          "time": 234.14303274999997,
          "velocity": 0.4094488188976378
        },
        {
          "duration": 0.3095240416666627,
          "durationTicks": 260,
          "midi": 49,
          "name": "C#3",
          "ticks": 196800,
          "time": 234.28589,
          "velocity": 0.4094488188976378
        },
        {
          "duration": 0.3095240416666627,
          "durationTicks": 260,
          "midi": 59,
          "name": "B3",
          "ticks": 196800,
          "time": 234.28589,
          "velocity": 0.4251968503937008
        },
        {
          "duration": 0.3095240416666627,
          "durationTicks": 260,
          "midi": 63,
          "name": "D#4",
          "ticks": 196800,
          "time": 234.28589,
          "velocity": 0.2677165354330709
        },
        {
          "duration": 0.1666667916666711,
          "durationTicks": 140,
          "midi": 47,
          "name": "B2",
          "ticks": 197040,
          "time": 234.57160449999998,
          "velocity": 0.4881889763779528
        },
        {
          "duration": 0.1666667916666711,
          "durationTicks": 140,
          "midi": 54,
          "name": "F#3",
          "ticks": 197040,
          "time": 234.57160449999998,
          "velocity": 0.30708661417322836
        },
        {
          "duration": 0.1666667916666711,
          "durationTicks": 140,
          "midi": 59,
          "name": "B3",
          "ticks": 197040,
          "time": 234.57160449999998,
          "velocity": 0.4881889763779528
        },
        {
          "duration": 0.1428572499999916,
          "durationTicks": 120,
          "midi": 44,
          "name": "G#2",
          "ticks": 197160,
          "time": 234.71446175,
          "velocity": 0.3858267716535433
        },
        {
          "duration": 0.1428572499999916,
          "durationTicks": 120,
          "midi": 59,
          "name": "B3",
          "ticks": 197160,
          "time": 234.71446175,
          "velocity": 0.4015748031496063
        },
        {
          "duration": 0.1428572499999916,
          "durationTicks": 120,
          "midi": 43,
          "name": "G2",
          "ticks": 197280,
          "time": 234.857319,
          "velocity": 0.4409448818897638
        },
        {
          "duration": 0.11904770833334055,
          "durationTicks": 100,
          "midi": 54,
          "name": "F#3",
          "ticks": 197400,
          "time": 235.00017624999998,
          "velocity": 0.2283464566929134
        },
        {
          "duration": 0.11904770833334055,
          "durationTicks": 100,
          "midi": 59,
          "name": "B3",
          "ticks": 197400,
          "time": 235.00017624999998,
          "velocity": 0.2677165354330709
        },
        {
          "duration": 0.11904770833334055,
          "durationTicks": 100,
          "midi": 63,
          "name": "D#4",
          "ticks": 197400,
          "time": 235.00017624999998,
          "velocity": 0.25984251968503935
        },
        {
          "duration": 0.28571450000001164,
          "durationTicks": 240,
          "midi": 32,
          "name": "G#1",
          "ticks": 197520,
          "time": 235.14303349999997,
          "velocity": 0.4409448818897638
        },
        {
          "duration": 0.28571450000001164,
          "durationTicks": 240,
          "midi": 44,
          "name": "G#2",
          "ticks": 197520,
          "time": 235.14303349999997,
          "velocity": 0.4251968503937008
        },
        {
          "duration": 0.28571450000001164,
          "durationTicks": 240,
          "midi": 49,
          "name": "C#3",
          "ticks": 197520,
          "time": 235.14303349999997,
          "velocity": 0.23622047244094488
        },
        {
          "duration": 0.42857175000000325,
          "durationTicks": 360,
          "midi": 42,
          "name": "F#2",
          "ticks": 197760,
          "time": 235.42874799999998,
          "velocity": 0.36220472440944884
        },
        {
          "duration": 0.42857175000000325,
          "durationTicks": 360,
          "midi": 56,
          "name": "G#3",
          "ticks": 197760,
          "time": 235.42874799999998,
          "velocity": 0.23622047244094488
        },
        {
          "duration": 0.42857175000000325,
          "durationTicks": 360,
          "midi": 57,
          "name": "A3",
          "ticks": 197760,
          "time": 235.42874799999998,
          "velocity": 0.2204724409448819
        },
        {
          "duration": 0.42857175000000325,
          "durationTicks": 360,
          "midi": 59,
          "name": "B3",
          "ticks": 197760,
          "time": 235.42874799999998,
          "velocity": 0.41732283464566927
        },
        {
          "duration": 0.42857175000000325,
          "durationTicks": 360,
          "midi": 61,
          "name": "C#4",
          "ticks": 197760,
          "time": 235.42874799999998,
          "velocity": 0.30708661417322836
        },
        {
          "duration": 0.26190495833333216,
          "durationTicks": 220,
          "midi": 37,
          "name": "C#2",
          "ticks": 198120,
          "time": 235.85731975,
          "velocity": 0.36220472440944884
        },
        {
          "duration": 0.1666667916666711,
          "durationTicks": 140,
          "midi": 32,
          "name": "G#1",
          "ticks": 198360,
          "time": 236.14303425,
          "velocity": 0.33070866141732286
        },
        {
          "duration": 0.1666667916666711,
          "durationTicks": 140,
          "midi": 62,
          "name": "D4",
          "ticks": 198360,
          "time": 236.14303425,
          "velocity": 0.36220472440944884
        },
        {
          "duration": 0.2857144999999832,
          "durationTicks": 240,
          "midi": 30,
          "name": "F#1",
          "ticks": 198480,
          "time": 236.2858915,
          "velocity": 0.5354330708661418
        },
        {
          "duration": 0.0714286249999816,
          "durationTicks": 60,
          "midi": 64,
          "name": "E4",
          "ticks": 198480,
          "time": 236.2858915,
          "velocity": 0.29133858267716534
        },
        {
          "duration": 0.11904770833334055,
          "durationTicks": 100,
          "midi": 42,
          "name": "F#2",
          "ticks": 198720,
          "time": 236.57160599999997,
          "velocity": 0.6141732283464567
        },
        {
          "duration": 0.1666667916666995,
          "durationTicks": 140,
          "midi": 64,
          "name": "E4",
          "ticks": 198720,
          "time": 236.57160599999997,
          "velocity": 0.2755905511811024
        },
        {
          "duration": 0.1666667916666995,
          "durationTicks": 140,
          "midi": 68,
          "name": "G#4",
          "ticks": 198720,
          "time": 236.57160599999997,
          "velocity": 0.47244094488188976
        },
        {
          "duration": 0.11904770833334055,
          "durationTicks": 100,
          "midi": 83,
          "name": "B5",
          "ticks": 198720,
          "time": 236.57160599999997,
          "velocity": 0.30708661417322836
        },
        {
          "duration": 0.1428572499999916,
          "durationTicks": 120,
          "midi": 37,
          "name": "C#2",
          "ticks": 198840,
          "time": 236.71446325,
          "velocity": 0.3543307086614173
        },
        {
          "duration": 0.1428572499999916,
          "durationTicks": 120,
          "midi": 69,
          "name": "A4",
          "ticks": 198840,
          "time": 236.71446325,
          "velocity": 0.2283464566929134
        },
        {
          "duration": 0.1428572499999916,
          "durationTicks": 120,
          "midi": 73,
          "name": "C#5",
          "ticks": 198840,
          "time": 236.71446325,
          "velocity": 0.3228346456692913
        },
        {
          "duration": 0.1666667916666711,
          "durationTicks": 140,
          "midi": 40,
          "name": "E2",
          "ticks": 198960,
          "time": 236.8573205,
          "velocity": 0.3543307086614173
        },
        {
          "duration": 0.14285725000002003,
          "durationTicks": 120,
          "midi": 41,
          "name": "F2",
          "ticks": 199080,
          "time": 237.00017774999998,
          "velocity": 0.33070866141732286
        },
        {
          "duration": 0.07142862500001002,
          "durationTicks": 60,
          "midi": 42,
          "name": "F#2",
          "ticks": 199080,
          "time": 237.00017774999998,
          "velocity": 0.4330708661417323
        },
        {
          "duration": 0.14285725000002003,
          "durationTicks": 120,
          "midi": 57,
          "name": "A3",
          "ticks": 199080,
          "time": 237.00017774999998,
          "velocity": 0.3700787401574803
        },
        {
          "duration": 0.1428572499999916,
          "durationTicks": 120,
          "midi": 42,
          "name": "F#2",
          "ticks": 199200,
          "time": 237.143035,
          "velocity": 0.4251968503937008
        },
        {
          "duration": 0.1428572499999916,
          "durationTicks": 120,
          "midi": 56,
          "name": "G#3",
          "ticks": 199200,
          "time": 237.143035,
          "velocity": 0.5511811023622047
        },
        {
          "duration": 0.1428572499999916,
          "durationTicks": 120,
          "midi": 61,
          "name": "C#4",
          "ticks": 199200,
          "time": 237.143035,
          "velocity": 0.25984251968503935
        },
        {
          "duration": 0.11904770833331213,
          "durationTicks": 100,
          "midi": 37,
          "name": "C#2",
          "ticks": 199320,
          "time": 237.28589225,
          "velocity": 0.3700787401574803
        },
        {
          "duration": 0.28571450000001164,
          "durationTicks": 240,
          "midi": 30,
          "name": "F#1",
          "ticks": 199440,
          "time": 237.42874949999998,
          "velocity": 0.31496062992125984
        },
        {
          "duration": 0.28571450000001164,
          "durationTicks": 240,
          "midi": 42,
          "name": "F#2",
          "ticks": 199440,
          "time": 237.42874949999998,
          "velocity": 0.31496062992125984
        },
        {
          "duration": 0.28571450000001164,
          "durationTicks": 240,
          "midi": 52,
          "name": "E3",
          "ticks": 199440,
          "time": 237.42874949999998,
          "velocity": 0.36220472440944884
        },
        {
          "duration": 0.2857144999999832,
          "durationTicks": 240,
          "midi": 32,
          "name": "G#1",
          "ticks": 199680,
          "time": 237.714464,
          "velocity": 0.48031496062992124
        },
        {
          "duration": 0.2857144999999832,
          "durationTicks": 240,
          "midi": 58,
          "name": "A#3",
          "ticks": 199680,
          "time": 237.714464,
          "velocity": 0.29133858267716534
        },
        {
          "duration": 0.2857144999999832,
          "durationTicks": 240,
          "midi": 59,
          "name": "B3",
          "ticks": 199680,
          "time": 237.714464,
          "velocity": 0.4409448818897638
        },
        {
          "duration": 0.2857144999999832,
          "durationTicks": 240,
          "midi": 63,
          "name": "D#4",
          "ticks": 199680,
          "time": 237.714464,
          "velocity": 0.25984251968503935
        },
        {
          "duration": 0.14285725000002003,
          "durationTicks": 120,
          "midi": 54,
          "name": "F#3",
          "ticks": 199920,
          "time": 238.00017849999998,
          "velocity": 0.25984251968503935
        },
        {
          "duration": 0.19047633333332215,
          "durationTicks": 160,
          "midi": 61,
          "name": "C#4",
          "ticks": 199920,
          "time": 238.00017849999998,
          "velocity": 0.7086614173228346
        },
        {
          "duration": 0.14285725000002003,
          "durationTicks": 120,
          "midi": 63,
          "name": "D#4",
          "ticks": 199920,
          "time": 238.00017849999998,
          "velocity": 0.25196850393700787
        },
        {
          "duration": 0.11904770833331213,
          "durationTicks": 100,
          "midi": 39,
          "name": "D#2",
          "ticks": 200040,
          "time": 238.14303575,
          "velocity": 0.3858267716535433
        },
        {
          "duration": 0.11904770833331213,
          "durationTicks": 100,
          "midi": 58,
          "name": "A#3",
          "ticks": 200040,
          "time": 238.14303575,
          "velocity": 0.36220472440944884
        },
        {
          "duration": 0.1428572499999916,
          "durationTicks": 120,
          "midi": 61,
          "name": "C#4",
          "ticks": 200160,
          "time": 238.285893,
          "velocity": 0.5984251968503937
        },
        {
          "duration": 0.1666667916666711,
          "durationTicks": 140,
          "midi": 59,
          "name": "B3",
          "ticks": 200280,
          "time": 238.42875024999998,
          "velocity": 0.2440944881889764
        },
        {
          "duration": 0.1666667916666711,
          "durationTicks": 140,
          "midi": 62,
          "name": "D4",
          "ticks": 200280,
          "time": 238.42875024999998,
          "velocity": 0.3937007874015748
        },
        {
          "duration": 0.2857144999999832,
          "durationTicks": 240,
          "midi": 44,
          "name": "G#2",
          "ticks": 200400,
          "time": 238.5716075,
          "velocity": 0.47244094488188976
        },
        {
          "duration": 0.2857144999999832,
          "durationTicks": 240,
          "midi": 59,
          "name": "B3",
          "ticks": 200400,
          "time": 238.5716075,
          "velocity": 0.23622047244094488
        },
        {
          "duration": 0.0714286249999816,
          "durationTicks": 60,
          "midi": 63,
          "name": "D#4",
          "ticks": 200400,
          "time": 238.5716075,
          "velocity": 0.3464566929133858
        },
        {
          "duration": 0.2857144999999832,
          "durationTicks": 240,
          "midi": 66,
          "name": "F#4",
          "ticks": 200400,
          "time": 238.5716075,
          "velocity": 0.3779527559055118
        },
        {
          "duration": 0.11904770833331213,
          "durationTicks": 100,
          "midi": 39,
          "name": "D#2",
          "ticks": 200640,
          "time": 238.85732199999998,
          "velocity": 0.3464566929133858
        },
        {
          "duration": 0.11904770833331213,
          "durationTicks": 100,
          "midi": 68,
          "name": "G#4",
          "ticks": 200640,
          "time": 238.85732199999998,
          "velocity": 0.4409448818897638
        },
        {
          "duration": 0.14285725000002003,
          "durationTicks": 120,
          "midi": 44,
          "name": "G#2",
          "ticks": 200760,
          "time": 239.00017924999997,
          "velocity": 0.44881889763779526
        },
        {
          "duration": 0.14285725000002003,
          "durationTicks": 120,
          "midi": 58,
          "name": "A#3",
          "ticks": 200760,
          "time": 239.00017924999997,
          "velocity": 0.2204724409448819
        },
        {
          "duration": 0.14285725000002003,
          "durationTicks": 120,
          "midi": 59,
          "name": "B3",
          "ticks": 200760,
          "time": 239.00017924999997,
          "velocity": 0.2283464566929134
        },
        {
          "duration": 0.1666667916666711,
          "durationTicks": 140,
          "midi": 39,
          "name": "D#2",
          "ticks": 200880,
          "time": 239.1430365,
          "velocity": 0.36220472440944884
        },
        {
          "duration": 0.1666667916666711,
          "durationTicks": 140,
          "midi": 54,
          "name": "F#3",
          "ticks": 200880,
          "time": 239.1430365,
          "velocity": 0.2677165354330709
        },
        {
          "duration": 0.1428572499999916,
          "durationTicks": 120,
          "midi": 58,
          "name": "A#3",
          "ticks": 201000,
          "time": 239.28589374999999,
          "velocity": 0.31496062992125984
        },
        {
          "duration": 0.14285725000002003,
          "durationTicks": 120,
          "midi": 32,
          "name": "G#1",
          "ticks": 201120,
          "time": 239.42875099999998,
          "velocity": 0.3228346456692913
        },
        {
          "duration": 0.14285725000002003,
          "durationTicks": 120,
          "midi": 44,
          "name": "G#2",
          "ticks": 201120,
          "time": 239.42875099999998,
          "velocity": 0.3228346456692913
        },
        {
          "duration": 0.14285725000002003,
          "durationTicks": 120,
          "midi": 58,
          "name": "A#3",
          "ticks": 201120,
          "time": 239.42875099999998,
          "velocity": 0.33858267716535434
        },
        {
          "duration": 0.14285725000002003,
          "durationTicks": 120,
          "midi": 59,
          "name": "B3",
          "ticks": 201120,
          "time": 239.42875099999998,
          "velocity": 0.2755905511811024
        },
        {
          "duration": 0.14285725000002003,
          "durationTicks": 120,
          "midi": 63,
          "name": "D#4",
          "ticks": 201120,
          "time": 239.42875099999998,
          "velocity": 0.25984251968503935
        },
        {
          "duration": 0.11904770833331213,
          "durationTicks": 100,
          "midi": 54,
          "name": "F#3",
          "ticks": 201240,
          "time": 239.57160825,
          "velocity": 0.2440944881889764
        },
        {
          "duration": 0.1666667916666711,
          "durationTicks": 140,
          "midi": 59,
          "name": "B3",
          "ticks": 201240,
          "time": 239.57160825,
          "velocity": 0.2755905511811024
        },
        {
          "duration": 0.1428572499999916,
          "durationTicks": 120,
          "midi": 39,
          "name": "D#2",
          "ticks": 201360,
          "time": 239.7144655,
          "velocity": 0.47244094488188976
        },
        {
          "duration": 0.1428572499999916,
          "durationTicks": 120,
          "midi": 44,
          "name": "G#2",
          "ticks": 201360,
          "time": 239.7144655,
          "velocity": 0.4409448818897638
        },
        {
          "duration": 0.11904770833334055,
          "durationTicks": 100,
          "midi": 39,
          "name": "D#2",
          "ticks": 201480,
          "time": 239.85732274999998,
          "velocity": 0.36220472440944884
        },
        {
          "duration": 0.11904770833334055,
          "durationTicks": 100,
          "midi": 44,
          "name": "G#2",
          "ticks": 201480,
          "time": 239.85732274999998,
          "velocity": 0.30708661417322836
        },
        {
          "duration": 0.11904770833334055,
          "durationTicks": 100,
          "midi": 68,
          "name": "G#4",
          "ticks": 201480,
          "time": 239.85732274999998,
          "velocity": 0.7559055118110236
        },
        {
          "duration": 0.28571450000001164,
          "durationTicks": 240,
          "midi": 33,
          "name": "A1",
          "ticks": 201600,
          "time": 240.00017999999997,
          "velocity": 0.4330708661417323
        },
        {
          "duration": 0.28571450000001164,
          "durationTicks": 240,
          "midi": 40,
          "name": "E2",
          "ticks": 201600,
          "time": 240.00017999999997,
          "velocity": 0.3464566929133858
        },
        {
          "duration": 0.28571450000001164,
          "durationTicks": 240,
          "midi": 45,
          "name": "A2",
          "ticks": 201600,
          "time": 240.00017999999997,
          "velocity": 0.4330708661417323
        },
        {
          "duration": 0.28571450000001164,
          "durationTicks": 240,
          "midi": 52,
          "name": "E3",
          "ticks": 201600,
          "time": 240.00017999999997,
          "velocity": 0.3464566929133858
        },
        {
          "duration": 0.28571450000001164,
          "durationTicks": 240,
          "midi": 56,
          "name": "G#3",
          "ticks": 201600,
          "time": 240.00017999999997,
          "velocity": 0.4015748031496063
        },
        {
          "duration": 0.28571450000001164,
          "durationTicks": 240,
          "midi": 60,
          "name": "C4",
          "ticks": 201600,
          "time": 240.00017999999997,
          "velocity": 0.2204724409448819
        },
        {
          "duration": 0.28571450000001164,
          "durationTicks": 240,
          "midi": 64,
          "name": "E4",
          "ticks": 201600,
          "time": 240.00017999999997,
          "velocity": 0.2677165354330709
        },
        {
          "duration": 0.28571450000001164,
          "durationTicks": 240,
          "midi": 72,
          "name": "C5",
          "ticks": 201600,
          "time": 240.00017999999997,
          "velocity": 0.2204724409448819
        },
        {
          "duration": 0.1428572499999916,
          "durationTicks": 120,
          "midi": 56,
          "name": "G#3",
          "ticks": 201840,
          "time": 240.28589449999998,
          "velocity": 0.3543307086614173
        },
        {
          "duration": 0.1428572499999916,
          "durationTicks": 120,
          "midi": 60,
          "name": "C4",
          "ticks": 201840,
          "time": 240.28589449999998,
          "velocity": 0.31496062992125984
        },
        {
          "duration": 0.1428572499999916,
          "durationTicks": 120,
          "midi": 64,
          "name": "E4",
          "ticks": 201840,
          "time": 240.28589449999998,
          "velocity": 0.33858267716535434
        },
        {
          "duration": 0.11904770833334055,
          "durationTicks": 100,
          "midi": 40,
          "name": "E2",
          "ticks": 201960,
          "time": 240.42875174999998,
          "velocity": 0.4566929133858268
        },
        {
          "duration": 0.2857144999999832,
          "durationTicks": 240,
          "midi": 60,
          "name": "C4",
          "ticks": 202080,
          "time": 240.571609,
          "velocity": 0.2204724409448819
        },
        {
          "duration": 0.2857144999999832,
          "durationTicks": 240,
          "midi": 64,
          "name": "E4",
          "ticks": 202080,
          "time": 240.571609,
          "velocity": 0.3543307086614173
        },
        {
          "duration": 0.2380954166666811,
          "durationTicks": 200,
          "midi": 66,
          "name": "F#4",
          "ticks": 202080,
          "time": 240.571609,
          "velocity": 0.2992125984251969
        },
        {
          "duration": 0.14285725000002003,
          "durationTicks": 120,
          "midi": 45,
          "name": "A2",
          "ticks": 202320,
          "time": 240.85732349999998,
          "velocity": 0.3858267716535433
        },
        {
          "duration": 0.14285725000002003,
          "durationTicks": 120,
          "midi": 46,
          "name": "A#2",
          "ticks": 202320,
          "time": 240.85732349999998,
          "velocity": 0.33070866141732286
        },
        {
          "duration": 0.14285725000002003,
          "durationTicks": 120,
          "midi": 54,
          "name": "F#3",
          "ticks": 202320,
          "time": 240.85732349999998,
          "velocity": 0.2204724409448819
        },
        {
          "duration": 0.14285725000002003,
          "durationTicks": 120,
          "midi": 60,
          "name": "C4",
          "ticks": 202320,
          "time": 240.85732349999998,
          "velocity": 0.30708661417322836
        },
        {
          "duration": 0.14285725000002003,
          "durationTicks": 120,
          "midi": 64,
          "name": "E4",
          "ticks": 202320,
          "time": 240.85732349999998,
          "velocity": 0.44881889763779526
        },
        {
          "duration": 0.1666667916666711,
          "durationTicks": 140,
          "midi": 47,
          "name": "B2",
          "ticks": 202440,
          "time": 241.00018075,
          "velocity": 0.31496062992125984
        },
        {
          "duration": 0.1666667916666711,
          "durationTicks": 140,
          "midi": 56,
          "name": "G#3",
          "ticks": 202440,
          "time": 241.00018075,
          "velocity": 0.25984251968503935
        },
        {
          "duration": 0.2857144999999832,
          "durationTicks": 240,
          "midi": 45,
          "name": "A2",
          "ticks": 202560,
          "time": 241.143038,
          "velocity": 0.23622047244094488
        },
        {
          "duration": 0.2857144999999832,
          "durationTicks": 240,
          "midi": 57,
          "name": "A3",
          "ticks": 202560,
          "time": 241.143038,
          "velocity": 0.2283464566929134
        },
        {
          "duration": 0.2857144999999832,
          "durationTicks": 240,
          "midi": 60,
          "name": "C4",
          "ticks": 202560,
          "time": 241.143038,
          "velocity": 0.2283464566929134
        },
        {
          "duration": 0.2857144999999832,
          "durationTicks": 240,
          "midi": 64,
          "name": "E4",
          "ticks": 202560,
          "time": 241.143038,
          "velocity": 0.4015748031496063
        },
        {
          "duration": 0.2857144999999832,
          "durationTicks": 240,
          "midi": 66,
          "name": "F#4",
          "ticks": 202560,
          "time": 241.143038,
          "velocity": 0.2204724409448819
        },
        {
          "duration": 0.2857144999999832,
          "durationTicks": 240,
          "midi": 69,
          "name": "A4",
          "ticks": 202560,
          "time": 241.143038,
          "velocity": 0.1968503937007874
        },
        {
          "duration": 0.11904770833334055,
          "durationTicks": 100,
          "midi": 54,
          "name": "F#3",
          "ticks": 202800,
          "time": 241.42875249999997,
          "velocity": 0.2283464566929134
        },
        {
          "duration": 0.1428572499999916,
          "durationTicks": 120,
          "midi": 40,
          "name": "E2",
          "ticks": 202920,
          "time": 241.57160975,
          "velocity": 0.4409448818897638
        },
        {
          "duration": 0.1428572499999916,
          "durationTicks": 120,
          "midi": 60,
          "name": "C4",
          "ticks": 202920,
          "time": 241.57160975,
          "velocity": 0.25984251968503935
        },
        {
          "duration": 0.1428572499999916,
          "durationTicks": 120,
          "midi": 64,
          "name": "E4",
          "ticks": 202920,
          "time": 241.57160975,
          "velocity": 0.4251968503937008
        },
        {
          "duration": 0.11904770833331213,
          "durationTicks": 100,
          "midi": 54,
          "name": "F#3",
          "ticks": 203040,
          "time": 241.71446699999998,
          "velocity": 0.28346456692913385
        },
        {
          "duration": 0.11904770833331213,
          "durationTicks": 100,
          "midi": 59,
          "name": "B3",
          "ticks": 203040,
          "time": 241.71446699999998,
          "velocity": 0.30708661417322836
        },
        {
          "duration": 0.14285725000002003,
          "durationTicks": 120,
          "midi": 64,
          "name": "E4",
          "ticks": 203160,
          "time": 241.85732424999998,
          "velocity": 0.4015748031496063
        },
        {
          "duration": 0.26190495833330374,
          "durationTicks": 220,
          "midi": 45,
          "name": "A2",
          "ticks": 203280,
          "time": 242.0001815,
          "velocity": 0.48031496062992124
        },
        {
          "duration": 0.28571450000001164,
          "durationTicks": 240,
          "midi": 47,
          "name": "B2",
          "ticks": 203520,
          "time": 242.28589599999998,
          "velocity": 0.2992125984251969
        },
        {
          "duration": 0.28571450000001164,
          "durationTicks": 240,
          "midi": 56,
          "name": "G#3",
          "ticks": 203520,
          "time": 242.28589599999998,
          "velocity": 0.3858267716535433
        },
        {
          "duration": 0.28571450000001164,
          "durationTicks": 240,
          "midi": 59,
          "name": "B3",
          "ticks": 203520,
          "time": 242.28589599999998,
          "velocity": 0.3543307086614173
        },
        {
          "duration": 0.28571450000001164,
          "durationTicks": 240,
          "midi": 64,
          "name": "E4",
          "ticks": 203520,
          "time": 242.28589599999998,
          "velocity": 0.4566929133858268
        },
        {
          "duration": 0.28571450000001164,
          "durationTicks": 240,
          "midi": 68,
          "name": "G#4",
          "ticks": 203520,
          "time": 242.28589599999998,
          "velocity": 0.2204724409448819
        },
        {
          "duration": 0.28571450000001164,
          "durationTicks": 240,
          "midi": 71,
          "name": "B4",
          "ticks": 203520,
          "time": 242.28589599999998,
          "velocity": 0.3543307086614173
        },
        {
          "duration": 0.1428572499999916,
          "durationTicks": 120,
          "midi": 33,
          "name": "A1",
          "ticks": 203760,
          "time": 242.5716105,
          "velocity": 0.2204724409448819
        },
        {
          "duration": 0.11904770833331213,
          "durationTicks": 100,
          "midi": 44,
          "name": "G#2",
          "ticks": 203880,
          "time": 242.71446774999998,
          "velocity": 0.5826771653543307
        },
        {
          "duration": 0.11904770833331213,
          "durationTicks": 100,
          "midi": 56,
          "name": "G#3",
          "ticks": 203880,
          "time": 242.71446774999998,
          "velocity": 0.5826771653543307
        },
        {
          "duration": 0.28571450000001164,
          "durationTicks": 240,
          "midi": 45,
          "name": "A2",
          "ticks": 204000,
          "time": 242.85732499999997,
          "velocity": 0.30708661417322836
        },
        {
          "duration": 0.28571450000001164,
          "durationTicks": 240,
          "midi": 59,
          "name": "B3",
          "ticks": 204000,
          "time": 242.85732499999997,
          "velocity": 0.25984251968503935
        },
        {
          "duration": 0.28571450000001164,
          "durationTicks": 240,
          "midi": 45,
          "name": "A2",
          "ticks": 204240,
          "time": 243.1430395,
          "velocity": 0.28346456692913385
        },
        {
          "duration": 0.28571450000001164,
          "durationTicks": 240,
          "midi": 47,
          "name": "B2",
          "ticks": 204240,
          "time": 243.1430395,
          "velocity": 0.48031496062992124
        },
        {
          "duration": 0.2857144999999832,
          "durationTicks": 240,
          "midi": 49,
          "name": "C#3",
          "ticks": 204480,
          "time": 243.428754,
          "velocity": 0.4645669291338583
        },
        {
          "duration": 0.2857144999999832,
          "durationTicks": 240,
          "midi": 59,
          "name": "B3",
          "ticks": 204480,
          "time": 243.428754,
          "velocity": 0.31496062992125984
        },
        {
          "duration": 0.3095240416666627,
          "durationTicks": 260,
          "midi": 63,
          "name": "D#4",
          "ticks": 204480,
          "time": 243.428754,
          "velocity": 0.28346456692913385
        },
        {
          "duration": 0.2857144999999832,
          "durationTicks": 240,
          "midi": 66,
          "name": "F#4",
          "ticks": 204480,
          "time": 243.428754,
          "velocity": 0.23622047244094488
        },
        {
          "duration": 0.2857144999999832,
          "durationTicks": 240,
          "midi": 73,
          "name": "C#5",
          "ticks": 204480,
          "time": 243.428754,
          "velocity": 0.4094488188976378
        },
        {
          "duration": 0.2857144999999832,
          "durationTicks": 240,
          "midi": 85,
          "name": "C#6",
          "ticks": 204480,
          "time": 243.428754,
          "velocity": 0.4094488188976378
        },
        {
          "duration": 0.11904770833334055,
          "durationTicks": 100,
          "midi": 47,
          "name": "B2",
          "ticks": 204720,
          "time": 243.71446849999998,
          "velocity": 0.3858267716535433
        },
        {
          "duration": 0.11904770833334055,
          "durationTicks": 100,
          "midi": 54,
          "name": "F#3",
          "ticks": 204720,
          "time": 243.71446849999998,
          "velocity": 0.2677165354330709
        },
        {
          "duration": 0.11904770833334055,
          "durationTicks": 100,
          "midi": 59,
          "name": "B3",
          "ticks": 204720,
          "time": 243.71446849999998,
          "velocity": 0.3858267716535433
        },
        {
          "duration": 0.11904770833334055,
          "durationTicks": 100,
          "midi": 71,
          "name": "B4",
          "ticks": 204720,
          "time": 243.71446849999998,
          "velocity": 0.41732283464566927
        },
        {
          "duration": 0.11904770833334055,
          "durationTicks": 100,
          "midi": 83,
          "name": "B5",
          "ticks": 204720,
          "time": 243.71446849999998,
          "velocity": 0.41732283464566927
        },
        {
          "duration": 0.14285725000002003,
          "durationTicks": 120,
          "midi": 44,
          "name": "G#2",
          "ticks": 204840,
          "time": 243.85732574999997,
          "velocity": 0.4566929133858268
        },
        {
          "duration": 0.14285725000002003,
          "durationTicks": 120,
          "midi": 80,
          "name": "G#5",
          "ticks": 204840,
          "time": 243.85732574999997,
          "velocity": 0.25984251968503935
        },
        {
          "duration": 0.11904770833331213,
          "durationTicks": 100,
          "midi": 43,
          "name": "G2",
          "ticks": 204960,
          "time": 244.000183,
          "velocity": 0.5039370078740157
        },
        {
          "duration": 0.11904770833331213,
          "durationTicks": 100,
          "midi": 79,
          "name": "G5",
          "ticks": 204960,
          "time": 244.000183,
          "velocity": 0.3464566929133858
        },
        {
          "duration": 0.1428572499999916,
          "durationTicks": 120,
          "midi": 63,
          "name": "D#4",
          "ticks": 205080,
          "time": 244.14304024999998,
          "velocity": 0.25984251968503935
        },
        {
          "duration": 0.1666667916666995,
          "durationTicks": 140,
          "midi": 44,
          "name": "G#2",
          "ticks": 205200,
          "time": 244.28589749999998,
          "velocity": 0.4015748031496063
        },
        {
          "duration": 0.1666667916666995,
          "durationTicks": 140,
          "midi": 49,
          "name": "C#3",
          "ticks": 205200,
          "time": 244.28589749999998,
          "velocity": 0.25196850393700787
        },
        {
          "duration": 0.1666667916666995,
          "durationTicks": 140,
          "midi": 73,
          "name": "C#5",
          "ticks": 205200,
          "time": 244.28589749999998,
          "velocity": 0.2440944881889764
        },
        {
          "duration": 0.1428572499999916,
          "durationTicks": 120,
          "midi": 43,
          "name": "G2",
          "ticks": 205320,
          "time": 244.42875475,
          "velocity": 0.44881889763779526
        },
        {
          "duration": 0.1428572499999916,
          "durationTicks": 120,
          "midi": 79,
          "name": "G5",
          "ticks": 205320,
          "time": 244.42875475,
          "velocity": 0.4330708661417323
        },
        {
          "duration": 0.1428572499999916,
          "durationTicks": 120,
          "midi": 42,
          "name": "F#2",
          "ticks": 205440,
          "time": 244.571612,
          "velocity": 0.36220472440944884
        },
        {
          "duration": 0.1428572499999916,
          "durationTicks": 120,
          "midi": 57,
          "name": "A3",
          "ticks": 205440,
          "time": 244.571612,
          "velocity": 0.2283464566929134
        },
        {
          "duration": 0.1428572499999916,
          "durationTicks": 120,
          "midi": 61,
          "name": "C#4",
          "ticks": 205440,
          "time": 244.571612,
          "velocity": 0.33070866141732286
        },
        {
          "duration": 0.26190495833333216,
          "durationTicks": 220,
          "midi": 61,
          "name": "C#4",
          "ticks": 205560,
          "time": 244.71446924999998,
          "velocity": 0.33858267716535434
        },
        {
          "duration": 0.11904770833331213,
          "durationTicks": 100,
          "midi": 37,
          "name": "C#2",
          "ticks": 205800,
          "time": 245.00018375,
          "velocity": 0.3858267716535433
        },
        {
          "duration": 0.1428572499999916,
          "durationTicks": 120,
          "midi": 42,
          "name": "F#2",
          "ticks": 205920,
          "time": 245.14304099999998,
          "velocity": 0.33858267716535434
        },
        {
          "duration": 0.11904770833334055,
          "durationTicks": 100,
          "midi": 64,
          "name": "E4",
          "ticks": 206040,
          "time": 245.28589824999997,
          "velocity": 0.2677165354330709
        },
        {
          "duration": 0.07142862500001002,
          "durationTicks": 60,
          "midi": 66,
          "name": "F#4",
          "ticks": 206040,
          "time": 245.28589824999997,
          "velocity": 0.33070866141732286
        },
        {
          "duration": 0.2857144999999832,
          "durationTicks": 240,
          "midi": 42,
          "name": "F#2",
          "ticks": 206160,
          "time": 245.4287555,
          "velocity": 0.30708661417322836
        },
        {
          "duration": 0.2857144999999832,
          "durationTicks": 240,
          "midi": 69,
          "name": "A4",
          "ticks": 206160,
          "time": 245.4287555,
          "velocity": 0.2992125984251969
        },
        {
          "duration": 0.28571450000001164,
          "durationTicks": 240,
          "midi": 42,
          "name": "F#2",
          "ticks": 206400,
          "time": 245.71446999999998,
          "velocity": 0.4330708661417323
        },
        {
          "duration": 0.28571450000001164,
          "durationTicks": 240,
          "midi": 59,
          "name": "B3",
          "ticks": 206400,
          "time": 245.71446999999998,
          "velocity": 0.23622047244094488
        },
        {
          "duration": 0.28571450000001164,
          "durationTicks": 240,
          "midi": 61,
          "name": "C#4",
          "ticks": 206400,
          "time": 245.71446999999998,
          "velocity": 0.1968503937007874
        },
        {
          "duration": 0.28571450000001164,
          "durationTicks": 240,
          "midi": 64,
          "name": "E4",
          "ticks": 206400,
          "time": 245.71446999999998,
          "velocity": 0.29133858267716534
        },
        {
          "duration": 0.28571450000001164,
          "durationTicks": 240,
          "midi": 71,
          "name": "B4",
          "ticks": 206400,
          "time": 245.71446999999998,
          "velocity": 0.33858267716535434
        },
        {
          "duration": 0.28571450000001164,
          "durationTicks": 240,
          "midi": 83,
          "name": "B5",
          "ticks": 206400,
          "time": 245.71446999999998,
          "velocity": 0.33858267716535434
        },
        {
          "duration": 0.11904770833331213,
          "durationTicks": 100,
          "midi": 37,
          "name": "C#2",
          "ticks": 206640,
          "time": 246.0001845,
          "velocity": 0.3464566929133858
        },
        {
          "duration": 0.11904770833331213,
          "durationTicks": 100,
          "midi": 52,
          "name": "E3",
          "ticks": 206640,
          "time": 246.0001845,
          "velocity": 0.33070866141732286
        },
        {
          "duration": 0.11904770833331213,
          "durationTicks": 100,
          "midi": 73,
          "name": "C#5",
          "ticks": 206640,
          "time": 246.0001845,
          "velocity": 0.31496062992125984
        },
        {
          "duration": 0.1428572499999916,
          "durationTicks": 120,
          "midi": 71,
          "name": "B4",
          "ticks": 206760,
          "time": 246.14304174999998,
          "velocity": 0.36220472440944884
        },
        {
          "duration": 0.3095240416666911,
          "durationTicks": 260,
          "midi": 30,
          "name": "F#1",
          "ticks": 206880,
          "time": 246.28589899999997,
          "velocity": 0.4566929133858268
        },
        {
          "duration": 0.3095240416666911,
          "durationTicks": 260,
          "midi": 37,
          "name": "C#2",
          "ticks": 207120,
          "time": 246.57161349999998,
          "velocity": 0.3937007874015748
        },
        {
          "duration": 0.3095240416666911,
          "durationTicks": 260,
          "midi": 40,
          "name": "E2",
          "ticks": 207120,
          "time": 246.57161349999998,
          "velocity": 0.3228346456692913
        },
        {
          "duration": 0.3095240416666911,
          "durationTicks": 260,
          "midi": 42,
          "name": "F#2",
          "ticks": 207120,
          "time": 246.57161349999998,
          "velocity": 0.5118110236220472
        },
        {
          "duration": 0.3095240416666911,
          "durationTicks": 260,
          "midi": 49,
          "name": "C#3",
          "ticks": 207120,
          "time": 246.57161349999998,
          "velocity": 0.3937007874015748
        },
        {
          "duration": 0.2857144999999832,
          "durationTicks": 240,
          "midi": 32,
          "name": "G#1",
          "ticks": 207360,
          "time": 246.857328,
          "velocity": 0.3858267716535433
        },
        {
          "duration": 0.2857144999999832,
          "durationTicks": 240,
          "midi": 49,
          "name": "C#3",
          "ticks": 207360,
          "time": 246.857328,
          "velocity": 0.3700787401574803
        },
        {
          "duration": 0.2857144999999832,
          "durationTicks": 240,
          "midi": 51,
          "name": "D#3",
          "ticks": 207360,
          "time": 246.857328,
          "velocity": 0.3858267716535433
        },
        {
          "duration": 0.2857144999999832,
          "durationTicks": 240,
          "midi": 58,
          "name": "A#3",
          "ticks": 207360,
          "time": 246.857328,
          "velocity": 0.2440944881889764
        },
        {
          "duration": 0.2857144999999832,
          "durationTicks": 240,
          "midi": 59,
          "name": "B3",
          "ticks": 207360,
          "time": 246.857328,
          "velocity": 0.2755905511811024
        },
        {
          "duration": 0.2857144999999832,
          "durationTicks": 240,
          "midi": 61,
          "name": "C#4",
          "ticks": 207360,
          "time": 246.857328,
          "velocity": 0.2440944881889764
        },
        {
          "duration": 0.2857144999999832,
          "durationTicks": 240,
          "midi": 70,
          "name": "A#4",
          "ticks": 207360,
          "time": 246.857328,
          "velocity": 0.2440944881889764
        },
        {
          "duration": 0.14285725000002003,
          "durationTicks": 120,
          "midi": 54,
          "name": "F#3",
          "ticks": 207600,
          "time": 247.14304249999998,
          "velocity": 0.2283464566929134
        },
        {
          "duration": 0.14285725000002003,
          "durationTicks": 120,
          "midi": 59,
          "name": "B3",
          "ticks": 207600,
          "time": 247.14304249999998,
          "velocity": 0.31496062992125984
        },
        {
          "duration": 0.26190495833330374,
          "durationTicks": 220,
          "midi": 39,
          "name": "D#2",
          "ticks": 207720,
          "time": 247.28589975,
          "velocity": 0.4409448818897638
        },
        {
          "duration": 0.26190495833330374,
          "durationTicks": 220,
          "midi": 70,
          "name": "A#4",
          "ticks": 207720,
          "time": 247.28589975,
          "velocity": 0.4330708661417323
        },
        {
          "duration": 0.11904770833331213,
          "durationTicks": 100,
          "midi": 59,
          "name": "B3",
          "ticks": 207960,
          "time": 247.57161424999998,
          "velocity": 0.23622047244094488
        },
        {
          "duration": 0.11904770833331213,
          "durationTicks": 100,
          "midi": 64,
          "name": "E4",
          "ticks": 207960,
          "time": 247.57161424999998,
          "velocity": 0.30708661417322836
        },
        {
          "duration": 0.14285725000002003,
          "durationTicks": 120,
          "midi": 32,
          "name": "G#1",
          "ticks": 208080,
          "time": 247.71447149999997,
          "velocity": 0.44881889763779526
        },
        {
          "duration": 0.14285725000002003,
          "durationTicks": 120,
          "midi": 44,
          "name": "G#2",
          "ticks": 208080,
          "time": 247.71447149999997,
          "velocity": 0.4015748031496063
        },
        {
          "duration": 0.14285725000002003,
          "durationTicks": 120,
          "midi": 63,
          "name": "D#4",
          "ticks": 208080,
          "time": 247.71447149999997,
          "velocity": 0.2677165354330709
        },
        {
          "duration": 0.14285725000002003,
          "durationTicks": 120,
          "midi": 66,
          "name": "F#4",
          "ticks": 208080,
          "time": 247.71447149999997,
          "velocity": 0.2755905511811024
        },
        {
          "duration": 0.14285725000002003,
          "durationTicks": 120,
          "midi": 71,
          "name": "B4",
          "ticks": 208080,
          "time": 247.71447149999997,
          "velocity": 0.25984251968503935
        },
        {
          "duration": 0.1666667916666711,
          "durationTicks": 140,
          "midi": 58,
          "name": "A#3",
          "ticks": 208200,
          "time": 247.85732875,
          "velocity": 0.2677165354330709
        },
        {
          "duration": 0.1428572499999916,
          "durationTicks": 120,
          "midi": 32,
          "name": "G#1",
          "ticks": 208320,
          "time": 248.00018599999999,
          "velocity": 0.4251968503937008
        },
        {
          "duration": 0.1428572499999916,
          "durationTicks": 120,
          "midi": 39,
          "name": "D#2",
          "ticks": 208320,
          "time": 248.00018599999999,
          "velocity": 0.33858267716535434
        },
        {
          "duration": 0.1428572499999916,
          "durationTicks": 120,
          "midi": 59,
          "name": "B3",
          "ticks": 208320,
          "time": 248.00018599999999,
          "velocity": 0.36220472440944884
        },
        {
          "duration": 0.1428572499999916,
          "durationTicks": 120,
          "midi": 63,
          "name": "D#4",
          "ticks": 208320,
          "time": 248.00018599999999,
          "velocity": 0.18110236220472442
        },
        {
          "duration": 0.1428572499999916,
          "durationTicks": 120,
          "midi": 68,
          "name": "G#4",
          "ticks": 208320,
          "time": 248.00018599999999,
          "velocity": 0.33858267716535434
        },
        {
          "duration": 0.1428572499999916,
          "durationTicks": 120,
          "midi": 71,
          "name": "B4",
          "ticks": 208320,
          "time": 248.00018599999999,
          "velocity": 0.36220472440944884
        },
        {
          "duration": 0.14285725000002003,
          "durationTicks": 120,
          "midi": 44,
          "name": "G#2",
          "ticks": 208440,
          "time": 248.14304324999998,
          "velocity": 0.3858267716535433
        },
        {
          "duration": 0.11904770833331213,
          "durationTicks": 100,
          "midi": 39,
          "name": "D#2",
          "ticks": 208560,
          "time": 248.2859005,
          "velocity": 0.3858267716535433
        },
        {
          "duration": 0.11904770833331213,
          "durationTicks": 100,
          "midi": 54,
          "name": "F#3",
          "ticks": 208560,
          "time": 248.2859005,
          "velocity": 0.25984251968503935
        },
        {
          "duration": 0.11904770833331213,
          "durationTicks": 100,
          "midi": 59,
          "name": "B3",
          "ticks": 208560,
          "time": 248.2859005,
          "velocity": 0.5433070866141733
        },
        {
          "duration": 0.11904770833331213,
          "durationTicks": 100,
          "midi": 63,
          "name": "D#4",
          "ticks": 208560,
          "time": 248.2859005,
          "velocity": 0.18110236220472442
        },
        {
          "duration": 0.11904770833331213,
          "durationTicks": 100,
          "midi": 66,
          "name": "F#4",
          "ticks": 208560,
          "time": 248.2859005,
          "velocity": 0.25984251968503935
        },
        {
          "duration": 0.1428572499999916,
          "durationTicks": 120,
          "midi": 56,
          "name": "G#3",
          "ticks": 208680,
          "time": 248.42875775,
          "velocity": 0.4330708661417323
        },
        {
          "duration": 0.1428572499999916,
          "durationTicks": 120,
          "midi": 58,
          "name": "A#3",
          "ticks": 208680,
          "time": 248.42875775,
          "velocity": 0.41732283464566927
        },
        {
          "duration": 0.11904770833334055,
          "durationTicks": 100,
          "midi": 32,
          "name": "G#1",
          "ticks": 208800,
          "time": 248.57161499999998,
          "velocity": 0.44881889763779526
        },
        {
          "duration": 0.11904770833334055,
          "durationTicks": 100,
          "midi": 44,
          "name": "G#2",
          "ticks": 208800,
          "time": 248.57161499999998,
          "velocity": 0.44881889763779526
        },
        {
          "duration": 0.11904770833334055,
          "durationTicks": 100,
          "midi": 58,
          "name": "A#3",
          "ticks": 208800,
          "time": 248.57161499999998,
          "velocity": 0.3464566929133858
        },
        {
          "duration": 0.11904770833334055,
          "durationTicks": 100,
          "midi": 63,
          "name": "D#4",
          "ticks": 208800,
          "time": 248.57161499999998,
          "velocity": 0.2440944881889764
        },
        {
          "duration": 0.14285725000002003,
          "durationTicks": 120,
          "midi": 59,
          "name": "B3",
          "ticks": 208920,
          "time": 248.71447224999997,
          "velocity": 0.4094488188976378
        },
        {
          "duration": 0.14285725000002003,
          "durationTicks": 120,
          "midi": 71,
          "name": "B4",
          "ticks": 208920,
          "time": 248.71447224999997,
          "velocity": 0.4094488188976378
        },
        {
          "duration": 0.1666667916666711,
          "durationTicks": 140,
          "midi": 44,
          "name": "G#2",
          "ticks": 209040,
          "time": 248.8573295,
          "velocity": 0.4094488188976378
        },
        {
          "duration": 0.1666667916666711,
          "durationTicks": 140,
          "midi": 32,
          "name": "G#1",
          "ticks": 209160,
          "time": 249.00018674999998,
          "velocity": 0.33858267716535434
        },
        {
          "duration": 0.28571450000001164,
          "durationTicks": 240,
          "midi": 33,
          "name": "A1",
          "ticks": 209280,
          "time": 249.14304399999997,
          "velocity": 0.4330708661417323
        },
        {
          "duration": 0.28571450000001164,
          "durationTicks": 240,
          "midi": 40,
          "name": "E2",
          "ticks": 209280,
          "time": 249.14304399999997,
          "velocity": 0.33070866141732286
        },
        {
          "duration": 0.28571450000001164,
          "durationTicks": 240,
          "midi": 45,
          "name": "A2",
          "ticks": 209280,
          "time": 249.14304399999997,
          "velocity": 0.4330708661417323
        },
        {
          "duration": 0.28571450000001164,
          "durationTicks": 240,
          "midi": 56,
          "name": "G#3",
          "ticks": 209280,
          "time": 249.14304399999997,
          "velocity": 0.29133858267716534
        },
        {
          "duration": 0.28571450000001164,
          "durationTicks": 240,
          "midi": 60,
          "name": "C4",
          "ticks": 209280,
          "time": 249.14304399999997,
          "velocity": 0.25984251968503935
        },
        {
          "duration": 0.28571450000001164,
          "durationTicks": 240,
          "midi": 64,
          "name": "E4",
          "ticks": 209280,
          "time": 249.14304399999997,
          "velocity": 0.3464566929133858
        },
        {
          "duration": 0.1428572499999916,
          "durationTicks": 120,
          "midi": 66,
          "name": "F#4",
          "ticks": 209520,
          "time": 249.4287585,
          "velocity": 0.5433070866141733
        },
        {
          "duration": 0.11904770833334055,
          "durationTicks": 100,
          "midi": 40,
          "name": "E2",
          "ticks": 209640,
          "time": 249.57161574999998,
          "velocity": 0.41732283464566927
        },
        {
          "duration": 0.11904770833334055,
          "durationTicks": 100,
          "midi": 60,
          "name": "C4",
          "ticks": 209640,
          "time": 249.57161574999998,
          "velocity": 0.2204724409448819
        },
        {
          "duration": 0.11904770833334055,
          "durationTicks": 100,
          "midi": 64,
          "name": "E4",
          "ticks": 209640,
          "time": 249.57161574999998,
          "velocity": 0.2755905511811024
        },
        {
          "duration": 0.2857144999999832,
          "durationTicks": 240,
          "midi": 45,
          "name": "A2",
          "ticks": 209760,
          "time": 249.714473,
          "velocity": 0.2677165354330709
        },
        {
          "duration": 0.2857144999999832,
          "durationTicks": 240,
          "midi": 66,
          "name": "F#4",
          "ticks": 209760,
          "time": 249.714473,
          "velocity": 0.48031496062992124
        },
        {
          "duration": 0.19047633333332215,
          "durationTicks": 160,
          "midi": 45,
          "name": "A2",
          "ticks": 210000,
          "time": 250.00018749999998,
          "velocity": 0.41732283464566927
        },
        {
          "duration": 0.1428572499999916,
          "durationTicks": 120,
          "midi": 54,
          "name": "F#3",
          "ticks": 210000,
          "time": 250.00018749999998,
          "velocity": 0.2125984251968504
        },
        {
          "duration": 0.1428572499999916,
          "durationTicks": 120,
          "midi": 60,
          "name": "C4",
          "ticks": 210000,
          "time": 250.00018749999998,
          "velocity": 0.2677165354330709
        },
        {
          "duration": 0.1428572499999916,
          "durationTicks": 120,
          "midi": 61,
          "name": "C#4",
          "ticks": 210000,
          "time": 250.00018749999998,
          "velocity": 0.1968503937007874
        },
        {
          "duration": 0.19047633333332215,
          "durationTicks": 160,
          "midi": 63,
          "name": "D#4",
          "ticks": 210000,
          "time": 250.00018749999998,
          "velocity": 0.2677165354330709
        },
        {
          "duration": 0.1428572499999916,
          "durationTicks": 120,
          "midi": 64,
          "name": "E4",
          "ticks": 210000,
          "time": 250.00018749999998,
          "velocity": 0.3543307086614173
        },
        {
          "duration": 0.1666667916666995,
          "durationTicks": 140,
          "midi": 64,
          "name": "E4",
          "ticks": 210120,
          "time": 250.14304474999997,
          "velocity": 0.3543307086614173
        },
        {
          "duration": 0.2857144999999832,
          "durationTicks": 240,
          "midi": 45,
          "name": "A2",
          "ticks": 210240,
          "time": 250.285902,
          "velocity": 0.2677165354330709
        },
        {
          "duration": 0.2857144999999832,
          "durationTicks": 240,
          "midi": 60,
          "name": "C4",
          "ticks": 210240,
          "time": 250.285902,
          "velocity": 0.2755905511811024
        },
        {
          "duration": 0.2857144999999832,
          "durationTicks": 240,
          "midi": 64,
          "name": "E4",
          "ticks": 210240,
          "time": 250.285902,
          "velocity": 0.3464566929133858
        },
        {
          "duration": 0.1666667916666995,
          "durationTicks": 140,
          "midi": 45,
          "name": "A2",
          "ticks": 210480,
          "time": 250.57161649999998,
          "velocity": 0.29133858267716534
        },
        {
          "duration": 0.14285725000002003,
          "durationTicks": 120,
          "midi": 60,
          "name": "C4",
          "ticks": 210480,
          "time": 250.57161649999998,
          "velocity": 0.31496062992125984
        },
        {
          "duration": 0.1666667916666995,
          "durationTicks": 140,
          "midi": 64,
          "name": "E4",
          "ticks": 210480,
          "time": 250.57161649999998,
          "velocity": 0.5354330708661418
        },
        {
          "duration": 0.1428572499999916,
          "durationTicks": 120,
          "midi": 40,
          "name": "E2",
          "ticks": 210600,
          "time": 250.71447375,
          "velocity": 0.44881889763779526
        },
        {
          "duration": 0.11904770833331213,
          "durationTicks": 100,
          "midi": 64,
          "name": "E4",
          "ticks": 210600,
          "time": 250.71447375,
          "velocity": 0.5669291338582677
        },
        {
          "duration": 0.35714312499999323,
          "durationTicks": 300,
          "midi": 64,
          "name": "E4",
          "ticks": 210600,
          "time": 250.71447375,
          "velocity": 0.5118110236220472
        },
        {
          "duration": 0.2857144999999832,
          "durationTicks": 240,
          "midi": 54,
          "name": "F#3",
          "ticks": 210720,
          "time": 250.857331,
          "velocity": 0.33070866141732286
        },
        {
          "duration": 0.2857144999999832,
          "durationTicks": 240,
          "midi": 60,
          "name": "C4",
          "ticks": 210720,
          "time": 250.857331,
          "velocity": 0.29133858267716534
        },
        {
          "duration": 0.35714312499999323,
          "durationTicks": 300,
          "midi": 63,
          "name": "D#4",
          "ticks": 210840,
          "time": 251.00018824999998,
          "velocity": 0.4251968503937008
        },
        {
          "duration": 0.26190495833333216,
          "durationTicks": 220,
          "midi": 35,
          "name": "B1",
          "ticks": 210960,
          "time": 251.14304549999997,
          "velocity": 0.29133858267716534
        },
        {
          "duration": 0.26190495833333216,
          "durationTicks": 220,
          "midi": 45,
          "name": "A2",
          "ticks": 210960,
          "time": 251.14304549999997,
          "velocity": 0.47244094488188976
        },
        {
          "duration": 0.3095240416666911,
          "durationTicks": 260,
          "midi": 47,
          "name": "B2",
          "ticks": 211200,
          "time": 251.42875999999998,
          "velocity": 0.2440944881889764
        },
        {
          "duration": 0.3095240416666911,
          "durationTicks": 260,
          "midi": 56,
          "name": "G#3",
          "ticks": 211200,
          "time": 251.42875999999998,
          "velocity": 0.3700787401574803
        },
        {
          "duration": 0.3095240416666911,
          "durationTicks": 260,
          "midi": 59,
          "name": "B3",
          "ticks": 211200,
          "time": 251.42875999999998,
          "velocity": 0.29133858267716534
        },
        {
          "duration": 0.3095240416666911,
          "durationTicks": 260,
          "midi": 62,
          "name": "D4",
          "ticks": 211200,
          "time": 251.42875999999998,
          "velocity": 0.3779527559055118
        },
        {
          "duration": 0.3095240416666911,
          "durationTicks": 260,
          "midi": 64,
          "name": "E4",
          "ticks": 211200,
          "time": 251.42875999999998,
          "velocity": 0.2992125984251969
        },
        {
          "duration": 0.1666667916666711,
          "durationTicks": 140,
          "midi": 44,
          "name": "G#2",
          "ticks": 211440,
          "time": 251.7144745,
          "velocity": 0.3858267716535433
        },
        {
          "duration": 0.19047633333332215,
          "durationTicks": 160,
          "midi": 47,
          "name": "B2",
          "ticks": 211440,
          "time": 251.7144745,
          "velocity": 0.2992125984251969
        },
        {
          "duration": 0.1666667916666711,
          "durationTicks": 140,
          "midi": 52,
          "name": "E3",
          "ticks": 211440,
          "time": 251.7144745,
          "velocity": 0.25984251968503935
        },
        {
          "duration": 0.1666667916666711,
          "durationTicks": 140,
          "midi": 63,
          "name": "D#4",
          "ticks": 211440,
          "time": 251.7144745,
          "velocity": 0.3464566929133858
        },
        {
          "duration": 0.1428572499999916,
          "durationTicks": 120,
          "midi": 44,
          "name": "G#2",
          "ticks": 211560,
          "time": 251.85733175,
          "velocity": 0.5196850393700787
        },
        {
          "duration": 0.14285725000002003,
          "durationTicks": 120,
          "midi": 56,
          "name": "G#3",
          "ticks": 211680,
          "time": 252.00018899999998,
          "velocity": 0.3858267716535433
        },
        {
          "duration": 0.11904770833331213,
          "durationTicks": 100,
          "midi": 59,
          "name": "B3",
          "ticks": 211800,
          "time": 252.14304625,
          "velocity": 0.30708661417322836
        },
        {
          "duration": 0.1428572499999916,
          "durationTicks": 120,
          "midi": 47,
          "name": "B2",
          "ticks": 211920,
          "time": 252.2859035,
          "velocity": 0.36220472440944884
        },
        {
          "duration": 0.1666667916666711,
          "durationTicks": 140,
          "midi": 61,
          "name": "C#4",
          "ticks": 212040,
          "time": 252.42876074999998,
          "velocity": 0.49606299212598426
        },
        {
          "duration": 0.28571450000001164,
          "durationTicks": 240,
          "midi": 32,
          "name": "G#1",
          "ticks": 212160,
          "time": 252.57161799999997,
          "velocity": 0.41732283464566927
        },
        {
          "duration": 0.28571450000001164,
          "durationTicks": 240,
          "midi": 44,
          "name": "G#2",
          "ticks": 212160,
          "time": 252.57161799999997,
          "velocity": 0.25984251968503935
        },
        {
          "duration": 0.28571450000001164,
          "durationTicks": 240,
          "midi": 49,
          "name": "C#3",
          "ticks": 212160,
          "time": 252.57161799999997,
          "velocity": 0.3700787401574803
        },
        {
          "duration": 0.28571450000001164,
          "durationTicks": 240,
          "midi": 59,
          "name": "B3",
          "ticks": 212160,
          "time": 252.57161799999997,
          "velocity": 0.33070866141732286
        },
        {
          "duration": 0.28571450000001164,
          "durationTicks": 240,
          "midi": 61,
          "name": "C#4",
          "ticks": 212160,
          "time": 252.57161799999997,
          "velocity": 0.3543307086614173
        },
        {
          "duration": 0.28571450000001164,
          "durationTicks": 240,
          "midi": 63,
          "name": "D#4",
          "ticks": 212160,
          "time": 252.57161799999997,
          "velocity": 0.25984251968503935
        },
        {
          "duration": 0.28571450000001164,
          "durationTicks": 240,
          "midi": 85,
          "name": "C#6",
          "ticks": 212160,
          "time": 252.57161799999997,
          "velocity": 0.3779527559055118
        },
        {
          "duration": 0.1428572499999916,
          "durationTicks": 120,
          "midi": 47,
          "name": "B2",
          "ticks": 212400,
          "time": 252.85733249999998,
          "velocity": 0.5275590551181102
        },
        {
          "duration": 0.1428572499999916,
          "durationTicks": 120,
          "midi": 54,
          "name": "F#3",
          "ticks": 212400,
          "time": 252.85733249999998,
          "velocity": 0.3464566929133858
        },
        {
          "duration": 0.0952381666666895,
          "durationTicks": 80,
          "midi": 58,
          "name": "A#3",
          "ticks": 212400,
          "time": 252.85733249999998,
          "velocity": 0.33858267716535434
        },
        {
          "duration": 0.1428572499999916,
          "durationTicks": 120,
          "midi": 59,
          "name": "B3",
          "ticks": 212400,
          "time": 252.85733249999998,
          "velocity": 0.5275590551181102
        },
        {
          "duration": 0.1428572499999916,
          "durationTicks": 120,
          "midi": 63,
          "name": "D#4",
          "ticks": 212400,
          "time": 252.85733249999998,
          "velocity": 0.28346456692913385
        },
        {
          "duration": 0.1428572499999916,
          "durationTicks": 120,
          "midi": 83,
          "name": "B5",
          "ticks": 212400,
          "time": 252.85733249999998,
          "velocity": 0.3700787401574803
        },
        {
          "duration": 0.14285725000002003,
          "durationTicks": 120,
          "midi": 44,
          "name": "G#2",
          "ticks": 212520,
          "time": 253.00018974999998,
          "velocity": 0.31496062992125984
        },
        {
          "duration": 0.14285725000002003,
          "durationTicks": 120,
          "midi": 56,
          "name": "G#3",
          "ticks": 212520,
          "time": 253.00018974999998,
          "velocity": 0.31496062992125984
        },
        {
          "duration": 0.14285725000002003,
          "durationTicks": 120,
          "midi": 68,
          "name": "G#4",
          "ticks": 212520,
          "time": 253.00018974999998,
          "velocity": 0.30708661417322836
        },
        {
          "duration": 0.1428572499999916,
          "durationTicks": 120,
          "midi": 43,
          "name": "G2",
          "ticks": 212640,
          "time": 253.143047,
          "velocity": 0.47244094488188976
        },
        {
          "duration": 0.1428572499999916,
          "durationTicks": 120,
          "midi": 55,
          "name": "G3",
          "ticks": 212640,
          "time": 253.143047,
          "velocity": 0.3858267716535433
        },
        {
          "duration": 0.1428572499999916,
          "durationTicks": 120,
          "midi": 59,
          "name": "B3",
          "ticks": 212640,
          "time": 253.143047,
          "velocity": 0.30708661417322836
        },
        {
          "duration": 0.1428572499999916,
          "durationTicks": 120,
          "midi": 67,
          "name": "G4",
          "ticks": 212640,
          "time": 253.143047,
          "velocity": 0.3700787401574803
        },
        {
          "duration": 0.1428572499999916,
          "durationTicks": 120,
          "midi": 54,
          "name": "F#3",
          "ticks": 212760,
          "time": 253.28590425,
          "velocity": 0.3779527559055118
        },
        {
          "duration": 0.1428572499999916,
          "durationTicks": 120,
          "midi": 63,
          "name": "D#4",
          "ticks": 212760,
          "time": 253.28590425,
          "velocity": 0.30708661417322836
        },
        {
          "duration": 0.11904770833334055,
          "durationTicks": 100,
          "midi": 32,
          "name": "G#1",
          "ticks": 212880,
          "time": 253.42876149999998,
          "velocity": 0.3858267716535433
        },
        {
          "duration": 0.11904770833334055,
          "durationTicks": 100,
          "midi": 44,
          "name": "G#2",
          "ticks": 212880,
          "time": 253.42876149999998,
          "velocity": 0.33070866141732286
        },
        {
          "duration": 0.11904770833334055,
          "durationTicks": 100,
          "midi": 49,
          "name": "C#3",
          "ticks": 212880,
          "time": 253.42876149999998,
          "velocity": 0.28346456692913385
        },
        {
          "duration": 0.11904770833334055,
          "durationTicks": 100,
          "midi": 68,
          "name": "G#4",
          "ticks": 212880,
          "time": 253.42876149999998,
          "velocity": 0.2992125984251969
        },
        {
          "duration": 0.14285725000002003,
          "durationTicks": 120,
          "midi": 43,
          "name": "G2",
          "ticks": 213000,
          "time": 253.57161874999997,
          "velocity": 0.3858267716535433
        },
        {
          "duration": 0.14285725000002003,
          "durationTicks": 120,
          "midi": 55,
          "name": "G3",
          "ticks": 213000,
          "time": 253.57161874999997,
          "velocity": 0.4409448818897638
        },
        {
          "duration": 0.14285725000002003,
          "durationTicks": 120,
          "midi": 67,
          "name": "G4",
          "ticks": 213000,
          "time": 253.57161874999997,
          "velocity": 0.4409448818897638
        },
        {
          "duration": 0.26190495833330374,
          "durationTicks": 220,
          "midi": 42,
          "name": "F#2",
          "ticks": 213120,
          "time": 253.714476,
          "velocity": 0.5354330708661418
        },
        {
          "duration": 0.26190495833330374,
          "durationTicks": 220,
          "midi": 57,
          "name": "A3",
          "ticks": 213120,
          "time": 253.714476,
          "velocity": 0.31496062992125984
        },
        {
          "duration": 0.26190495833330374,
          "durationTicks": 220,
          "midi": 59,
          "name": "B3",
          "ticks": 213120,
          "time": 253.714476,
          "velocity": 0.3228346456692913
        },
        {
          "duration": 0.26190495833330374,
          "durationTicks": 220,
          "midi": 61,
          "name": "C#4",
          "ticks": 213120,
          "time": 253.714476,
          "velocity": 0.2755905511811024
        },
        {
          "duration": 0.19047633333332215,
          "durationTicks": 160,
          "midi": 52,
          "name": "E3",
          "ticks": 213360,
          "time": 254.00019049999997,
          "velocity": 0.25984251968503935
        },
        {
          "duration": 0.2857144999999832,
          "durationTicks": 240,
          "midi": 37,
          "name": "C#2",
          "ticks": 213480,
          "time": 254.14304775,
          "velocity": 0.3858267716535433
        },
        {
          "duration": 0.1666667916666711,
          "durationTicks": 140,
          "midi": 32,
          "name": "G#1",
          "ticks": 213720,
          "time": 254.42876224999998,
          "velocity": 0.33070866141732286
        },
        {
          "duration": 0.0952381666666895,
          "durationTicks": 80,
          "midi": 65,
          "name": "F4",
          "ticks": 213720,
          "time": 254.42876224999998,
          "velocity": 0.36220472440944884
        },
        {
          "duration": 0.2857144999999832,
          "durationTicks": 240,
          "midi": 30,
          "name": "F#1",
          "ticks": 213840,
          "time": 254.5716195,
          "velocity": 0.5433070866141733
        },
        {
          "duration": 0.2857144999999832,
          "durationTicks": 240,
          "midi": 42,
          "name": "F#2",
          "ticks": 213840,
          "time": 254.5716195,
          "velocity": 0.5433070866141733
        },
        {
          "duration": 0.33333358333331375,
          "durationTicks": 280,
          "midi": 66,
          "name": "F#4",
          "ticks": 213840,
          "time": 254.5716195,
          "velocity": 0.4409448818897638
        },
        {
          "duration": 0.1428572499999916,
          "durationTicks": 120,
          "midi": 59,
          "name": "B3",
          "ticks": 214080,
          "time": 254.85733399999998,
          "velocity": 0.2440944881889764
        },
        {
          "duration": 0.1428572499999916,
          "durationTicks": 120,
          "midi": 64,
          "name": "E4",
          "ticks": 214080,
          "time": 254.85733399999998,
          "velocity": 0.25196850393700787
        },
        {
          "duration": 0.1428572499999916,
          "durationTicks": 120,
          "midi": 68,
          "name": "G#4",
          "ticks": 214080,
          "time": 254.85733399999998,
          "velocity": 0.48031496062992124
        },
        {
          "duration": 0.1428572499999916,
          "durationTicks": 120,
          "midi": 71,
          "name": "B4",
          "ticks": 214080,
          "time": 254.85733399999998,
          "velocity": 0.33070866141732286
        },
        {
          "duration": 0.1666667916666995,
          "durationTicks": 140,
          "midi": 37,
          "name": "C#2",
          "ticks": 214200,
          "time": 255.00019124999997,
          "velocity": 0.36220472440944884
        },
        {
          "duration": 0.1428572499999916,
          "durationTicks": 120,
          "midi": 40,
          "name": "E2",
          "ticks": 214320,
          "time": 255.1430485,
          "velocity": 0.41732283464566927
        },
        {
          "duration": 0.1428572499999916,
          "durationTicks": 120,
          "midi": 71,
          "name": "B4",
          "ticks": 214320,
          "time": 255.1430485,
          "velocity": 0.3779527559055118
        },
        {
          "duration": 0.1428572499999916,
          "durationTicks": 120,
          "midi": 73,
          "name": "C#5",
          "ticks": 214320,
          "time": 255.1430485,
          "velocity": 0.23622047244094488
        },
        {
          "duration": 0.3095240416666911,
          "durationTicks": 260,
          "midi": 57,
          "name": "A3",
          "ticks": 214440,
          "time": 255.28590574999998,
          "velocity": 0.33070866141732286
        },
        {
          "duration": 0.1428572499999916,
          "durationTicks": 120,
          "midi": 37,
          "name": "C#2",
          "ticks": 214680,
          "time": 255.57162025,
          "velocity": 0.3700787401574803
        },
        {
          "duration": 0.26190495833333216,
          "durationTicks": 220,
          "midi": 42,
          "name": "F#2",
          "ticks": 214800,
          "time": 255.7144775,
          "velocity": 0.3700787401574803
        },
        {
          "duration": 0.26190495833333216,
          "durationTicks": 220,
          "midi": 52,
          "name": "E3",
          "ticks": 214800,
          "time": 255.7144775,
          "velocity": 0.31496062992125984
        },
        {
          "duration": 0.3095240416666911,
          "durationTicks": 260,
          "midi": 32,
          "name": "G#1",
          "ticks": 215040,
          "time": 256.00019199999997,
          "velocity": 0.4409448818897638
        },
        {
          "duration": 0.3095240416666911,
          "durationTicks": 260,
          "midi": 49,
          "name": "C#3",
          "ticks": 215040,
          "time": 256.00019199999997,
          "velocity": 0.2677165354330709
        },
        {
          "duration": 0.3095240416666911,
          "durationTicks": 260,
          "midi": 58,
          "name": "A#3",
          "ticks": 215040,
          "time": 256.00019199999997,
          "velocity": 0.23622047244094488
        },
        {
          "duration": 0.3095240416666911,
          "durationTicks": 260,
          "midi": 61,
          "name": "C#4",
          "ticks": 215040,
          "time": 256.00019199999997,
          "velocity": 0.2677165354330709
        },
        {
          "duration": 0.3095240416666911,
          "durationTicks": 260,
          "midi": 70,
          "name": "A#4",
          "ticks": 215040,
          "time": 256.00019199999997,
          "velocity": 0.25196850393700787
        },
        {
          "duration": 0.3095240416666911,
          "durationTicks": 260,
          "midi": 71,
          "name": "B4",
          "ticks": 215040,
          "time": 256.00019199999997,
          "velocity": 0.36220472440944884
        },
        {
          "duration": 0.3095240416666911,
          "durationTicks": 260,
          "midi": 82,
          "name": "A#5",
          "ticks": 215040,
          "time": 256.00019199999997,
          "velocity": 0.25196850393700787
        },
        {
          "duration": 0.1666667916666711,
          "durationTicks": 140,
          "midi": 54,
          "name": "F#3",
          "ticks": 215280,
          "time": 256.2859065,
          "velocity": 0.2440944881889764
        },
        {
          "duration": 0.1666667916666711,
          "durationTicks": 140,
          "midi": 61,
          "name": "C#4",
          "ticks": 215280,
          "time": 256.2859065,
          "velocity": 0.5669291338582677
        },
        {
          "duration": 0.2857144999999832,
          "durationTicks": 240,
          "midi": 39,
          "name": "D#2",
          "ticks": 215400,
          "time": 256.42876375,
          "velocity": 0.4094488188976378
        },
        {
          "duration": 0.2857144999999832,
          "durationTicks": 240,
          "midi": 70,
          "name": "A#4",
          "ticks": 215400,
          "time": 256.42876375,
          "velocity": 0.25984251968503935
        },
        {
          "duration": 0.11904770833336897,
          "durationTicks": 100,
          "midi": 59,
          "name": "B3",
          "ticks": 215640,
          "time": 256.71447824999996,
          "velocity": 0.2440944881889764
        },
        {
          "duration": 0.11904770833336897,
          "durationTicks": 100,
          "midi": 62,
          "name": "D4",
          "ticks": 215640,
          "time": 256.71447824999996,
          "velocity": 0.3779527559055118
        },
        {
          "duration": 0.2857144999999832,
          "durationTicks": 240,
          "midi": 32,
          "name": "G#1",
          "ticks": 215760,
          "time": 256.8573355,
          "velocity": 0.41732283464566927
        },
        {
          "duration": 0.2857144999999832,
          "durationTicks": 240,
          "midi": 56,
          "name": "G#3",
          "ticks": 215760,
          "time": 256.8573355,
          "velocity": 0.3858267716535433
        },
        {
          "duration": 0.2857144999999832,
          "durationTicks": 240,
          "midi": 63,
          "name": "D#4",
          "ticks": 215760,
          "time": 256.8573355,
          "velocity": 0.2755905511811024
        },
        {
          "duration": 0.2857144999999832,
          "durationTicks": 240,
          "midi": 66,
          "name": "F#4",
          "ticks": 215760,
          "time": 256.8573355,
          "velocity": 0.4409448818897638
        },
        {
          "duration": 0.2857144999999832,
          "durationTicks": 240,
          "midi": 68,
          "name": "G#4",
          "ticks": 215760,
          "time": 256.8573355,
          "velocity": 0.3858267716535433
        },
        {
          "duration": 0.14285725000002003,
          "durationTicks": 120,
          "midi": 32,
          "name": "G#1",
          "ticks": 216000,
          "time": 257.14304999999996,
          "velocity": 0.4330708661417323
        },
        {
          "duration": 0.14285725000002003,
          "durationTicks": 120,
          "midi": 59,
          "name": "B3",
          "ticks": 216000,
          "time": 257.14304999999996,
          "velocity": 0.31496062992125984
        },
        {
          "duration": 0.14285725000002003,
          "durationTicks": 120,
          "midi": 68,
          "name": "G#4",
          "ticks": 216000,
          "time": 257.14304999999996,
          "velocity": 0.4645669291338583
        },
        {
          "duration": 0.14285725000002003,
          "durationTicks": 120,
          "midi": 71,
          "name": "B4",
          "ticks": 216000,
          "time": 257.14304999999996,
          "velocity": 0.31496062992125984
        },
        {
          "duration": 0.1666667916666711,
          "durationTicks": 140,
          "midi": 44,
          "name": "G#2",
          "ticks": 216120,
          "time": 257.28590725,
          "velocity": 0.4094488188976378
        },
        {
          "duration": 0.11904770833331213,
          "durationTicks": 100,
          "midi": 56,
          "name": "G#3",
          "ticks": 216120,
          "time": 257.28590725,
          "velocity": 0.5275590551181102
        },
        {
          "duration": 0.1428572499999632,
          "durationTicks": 120,
          "midi": 39,
          "name": "D#2",
          "ticks": 216240,
          "time": 257.4287645,
          "velocity": 0.36220472440944884
        },
        {
          "duration": 0.1428572499999632,
          "durationTicks": 120,
          "midi": 54,
          "name": "F#3",
          "ticks": 216240,
          "time": 257.4287645,
          "velocity": 0.23622047244094488
        },
        {
          "duration": 0.1666667916666711,
          "durationTicks": 140,
          "midi": 58,
          "name": "A#3",
          "ticks": 216360,
          "time": 257.57162174999996,
          "velocity": 0.4094488188976378
        },
        {
          "duration": 0.2857144999999832,
          "durationTicks": 240,
          "midi": 32,
          "name": "G#1",
          "ticks": 216480,
          "time": 257.714479,
          "velocity": 0.3937007874015748
        },
        {
          "duration": 0.2857144999999832,
          "durationTicks": 240,
          "midi": 56,
          "name": "G#3",
          "ticks": 216480,
          "time": 257.714479,
          "velocity": 0.6220472440944882
        },
        {
          "duration": 0.2857144999999832,
          "durationTicks": 240,
          "midi": 58,
          "name": "A#3",
          "ticks": 216480,
          "time": 257.714479,
          "velocity": 0.36220472440944884
        },
        {
          "duration": 0.2857144999999832,
          "durationTicks": 240,
          "midi": 59,
          "name": "B3",
          "ticks": 216480,
          "time": 257.714479,
          "velocity": 0.5826771653543307
        },
        {
          "duration": 0.2857144999999832,
          "durationTicks": 240,
          "midi": 63,
          "name": "D#4",
          "ticks": 216480,
          "time": 257.714479,
          "velocity": 0.25984251968503935
        },
        {
          "duration": 0.1666667916666711,
          "durationTicks": 140,
          "midi": 39,
          "name": "D#2",
          "ticks": 216720,
          "time": 258.00019349999997,
          "velocity": 0.33858267716535434
        },
        {
          "duration": 0.11904770833331213,
          "durationTicks": 100,
          "midi": 71,
          "name": "B4",
          "ticks": 216720,
          "time": 258.00019349999997,
          "velocity": 0.3937007874015748
        },
        {
          "duration": 0.14285725000002003,
          "durationTicks": 120,
          "midi": 32,
          "name": "G#1",
          "ticks": 216840,
          "time": 258.14305075,
          "velocity": 0.30708661417322836
        },
        {
          "duration": 0.14285725000002003,
          "durationTicks": 120,
          "midi": 44,
          "name": "G#2",
          "ticks": 216840,
          "time": 258.14305075,
          "velocity": 0.30708661417322836
        },
        {
          "duration": 0.14285725000002003,
          "durationTicks": 120,
          "midi": 68,
          "name": "G#4",
          "ticks": 216840,
          "time": 258.14305075,
          "velocity": 0.47244094488188976
        },
        {
          "duration": 0.2619049583332753,
          "durationTicks": 220,
          "midi": 33,
          "name": "A1",
          "ticks": 216960,
          "time": 258.285908,
          "velocity": 0.4330708661417323
        },
        {
          "duration": 0.2619049583332753,
          "durationTicks": 220,
          "midi": 56,
          "name": "G#3",
          "ticks": 216960,
          "time": 258.285908,
          "velocity": 0.3779527559055118
        },
        {
          "duration": 0.2619049583332753,
          "durationTicks": 220,
          "midi": 60,
          "name": "C4",
          "ticks": 216960,
          "time": 258.285908,
          "velocity": 0.2440944881889764
        },
        {
          "duration": 0.2619049583332753,
          "durationTicks": 220,
          "midi": 64,
          "name": "E4",
          "ticks": 216960,
          "time": 258.285908,
          "velocity": 0.2125984251968504
        },
        {
          "duration": 0.11904770833331213,
          "durationTicks": 100,
          "midi": 56,
          "name": "G#3",
          "ticks": 217200,
          "time": 258.5716225,
          "velocity": 0.33070866141732286
        },
        {
          "duration": 0.11904770833331213,
          "durationTicks": 100,
          "midi": 60,
          "name": "C4",
          "ticks": 217200,
          "time": 258.5716225,
          "velocity": 0.2677165354330709
        },
        {
          "duration": 0.11904770833331213,
          "durationTicks": 100,
          "midi": 64,
          "name": "E4",
          "ticks": 217200,
          "time": 258.5716225,
          "velocity": 0.3858267716535433
        },
        {
          "duration": 0.1428572499999632,
          "durationTicks": 120,
          "midi": 40,
          "name": "E2",
          "ticks": 217320,
          "time": 258.71447975,
          "velocity": 0.4645669291338583
        },
        {
          "duration": 0.1428572499999632,
          "durationTicks": 120,
          "midi": 60,
          "name": "C4",
          "ticks": 217320,
          "time": 258.71447975,
          "velocity": 0.25196850393700787
        },
        {
          "duration": 0.14285725000002003,
          "durationTicks": 120,
          "midi": 56,
          "name": "G#3",
          "ticks": 217440,
          "time": 258.857337,
          "velocity": 0.44881889763779526
        },
        {
          "duration": 0.14285725000002003,
          "durationTicks": 120,
          "midi": 64,
          "name": "E4",
          "ticks": 217440,
          "time": 258.857337,
          "velocity": 0.4094488188976378
        },
        {
          "duration": 0.14285725000002003,
          "durationTicks": 120,
          "midi": 66,
          "name": "F#4",
          "ticks": 217440,
          "time": 258.857337,
          "velocity": 0.25196850393700787
        },
        {
          "duration": 0.11904770833331213,
          "durationTicks": 100,
          "midi": 64,
          "name": "E4",
          "ticks": 217560,
          "time": 259.00019425,
          "velocity": 0.47244094488188976
        },
        {
          "duration": 0.28571450000004006,
          "durationTicks": 240,
          "midi": 47,
          "name": "B2",
          "ticks": 217680,
          "time": 259.14305149999996,
          "velocity": 0.25984251968503935
        },
        {
          "duration": 0.28571450000004006,
          "durationTicks": 240,
          "midi": 54,
          "name": "F#3",
          "ticks": 217680,
          "time": 259.14305149999996,
          "velocity": 0.3858267716535433
        },
        {
          "duration": 0.28571450000004006,
          "durationTicks": 240,
          "midi": 56,
          "name": "G#3",
          "ticks": 217680,
          "time": 259.14305149999996,
          "velocity": 0.5433070866141733
        },
        {
          "duration": 0.28571450000004006,
          "durationTicks": 240,
          "midi": 60,
          "name": "C4",
          "ticks": 217680,
          "time": 259.14305149999996,
          "velocity": 0.2755905511811024
        },
        {
          "duration": 0.2857144999999832,
          "durationTicks": 240,
          "midi": 45,
          "name": "A2",
          "ticks": 217920,
          "time": 259.428766,
          "velocity": 0.4330708661417323
        },
        {
          "duration": 0.2857144999999832,
          "durationTicks": 240,
          "midi": 56,
          "name": "G#3",
          "ticks": 217920,
          "time": 259.428766,
          "velocity": 0.3464566929133858
        },
        {
          "duration": 0.2857144999999832,
          "durationTicks": 240,
          "midi": 57,
          "name": "A3",
          "ticks": 217920,
          "time": 259.428766,
          "velocity": 0.3858267716535433
        },
        {
          "duration": 0.2857144999999832,
          "durationTicks": 240,
          "midi": 60,
          "name": "C4",
          "ticks": 217920,
          "time": 259.428766,
          "velocity": 0.2677165354330709
        },
        {
          "duration": 0.2857144999999832,
          "durationTicks": 240,
          "midi": 64,
          "name": "E4",
          "ticks": 217920,
          "time": 259.428766,
          "velocity": 0.31496062992125984
        },
        {
          "duration": 0.14285725000002003,
          "durationTicks": 120,
          "midi": 45,
          "name": "A2",
          "ticks": 218160,
          "time": 259.7144805,
          "velocity": 0.3779527559055118
        },
        {
          "duration": 0.14285725000002003,
          "durationTicks": 120,
          "midi": 54,
          "name": "F#3",
          "ticks": 218160,
          "time": 259.7144805,
          "velocity": 0.2677165354330709
        },
        {
          "duration": 0.11904770833331213,
          "durationTicks": 100,
          "midi": 40,
          "name": "E2",
          "ticks": 218280,
          "time": 259.85733775,
          "velocity": 0.4645669291338583
        },
        {
          "duration": 0.11904770833331213,
          "durationTicks": 100,
          "midi": 60,
          "name": "C4",
          "ticks": 218280,
          "time": 259.85733775,
          "velocity": 0.2047244094488189
        },
        {
          "duration": 0.28571450000004006,
          "durationTicks": 240,
          "midi": 64,
          "name": "E4",
          "ticks": 218400,
          "time": 260.00019499999996,
          "velocity": 0.3700787401574803
        },
        {
          "duration": 0.2857144999999832,
          "durationTicks": 240,
          "midi": 45,
          "name": "A2",
          "ticks": 218640,
          "time": 260.2859095,
          "velocity": 0.30708661417322836
        },
        {
          "duration": 0.26190495833333216,
          "durationTicks": 220,
          "midi": 47,
          "name": "B2",
          "ticks": 218880,
          "time": 260.571624,
          "velocity": 0.4094488188976378
        },
        {
          "duration": 0.26190495833333216,
          "durationTicks": 220,
          "midi": 56,
          "name": "G#3",
          "ticks": 218880,
          "time": 260.571624,
          "velocity": 0.6062992125984252
        },
        {
          "duration": 0.26190495833333216,
          "durationTicks": 220,
          "midi": 59,
          "name": "B3",
          "ticks": 218880,
          "time": 260.571624,
          "velocity": 0.4094488188976378
        },
        {
          "duration": 0.11904770833331213,
          "durationTicks": 100,
          "midi": 47,
          "name": "B2",
          "ticks": 219120,
          "time": 260.85733849999997,
          "velocity": 0.23622047244094488
        },
        {
          "duration": 0.11904770833331213,
          "durationTicks": 100,
          "midi": 52,
          "name": "E3",
          "ticks": 219120,
          "time": 260.85733849999997,
          "velocity": 0.3937007874015748
        },
        {
          "duration": 0.11904770833331213,
          "durationTicks": 100,
          "midi": 56,
          "name": "G#3",
          "ticks": 219120,
          "time": 260.85733849999997,
          "velocity": 0.44881889763779526
        },
        {
          "duration": 0.2857144999999832,
          "durationTicks": 240,
          "midi": 32,
          "name": "G#1",
          "ticks": 219240,
          "time": 261.00019575,
          "velocity": 0.5196850393700787
        },
        {
          "duration": 0.2857144999999832,
          "durationTicks": 240,
          "midi": 44,
          "name": "G#2",
          "ticks": 219240,
          "time": 261.00019575,
          "velocity": 0.5433070866141733
        },
        {
          "duration": 0.14285725000002003,
          "durationTicks": 120,
          "midi": 45,
          "name": "A2",
          "ticks": 219480,
          "time": 261.28591025,
          "velocity": 0.2755905511811024
        },
        {
          "duration": 0.14285725000002003,
          "durationTicks": 120,
          "midi": 56,
          "name": "G#3",
          "ticks": 219480,
          "time": 261.28591025,
          "velocity": 0.6141732283464567
        },
        {
          "duration": 0.14285725000002003,
          "durationTicks": 120,
          "midi": 59,
          "name": "B3",
          "ticks": 219480,
          "time": 261.28591025,
          "velocity": 0.29133858267716534
        },
        {
          "duration": 0.14285725000002003,
          "durationTicks": 120,
          "midi": 64,
          "name": "E4",
          "ticks": 219480,
          "time": 261.28591025,
          "velocity": 0.3228346456692913
        },
        {
          "duration": 0.1666667916666711,
          "durationTicks": 140,
          "midi": 47,
          "name": "B2",
          "ticks": 219600,
          "time": 261.4287675,
          "velocity": 0.4409448818897638
        },
        {
          "duration": 0.1666667916666711,
          "durationTicks": 140,
          "midi": 67,
          "name": "G4",
          "ticks": 219600,
          "time": 261.4287675,
          "velocity": 0.25196850393700787
        },
        {
          "duration": 0.09523816666666107,
          "durationTicks": 80,
          "midi": 47,
          "name": "B2",
          "ticks": 219720,
          "time": 261.57162475,
          "velocity": 0.4566929133858268
        },
        {
          "duration": 0.09523816666666107,
          "durationTicks": 80,
          "midi": 59,
          "name": "B3",
          "ticks": 219720,
          "time": 261.57162475,
          "velocity": 0.4566929133858268
        },
        {
          "duration": 0.1666667916666711,
          "durationTicks": 140,
          "midi": 64,
          "name": "E4",
          "ticks": 219720,
          "time": 261.57162475,
          "velocity": 0.2755905511811024
        },
        {
          "duration": 0.14285725000002003,
          "durationTicks": 120,
          "midi": 49,
          "name": "C#3",
          "ticks": 219840,
          "time": 261.714482,
          "velocity": 0.41732283464566927
        },
        {
          "duration": 0.14285725000002003,
          "durationTicks": 120,
          "midi": 63,
          "name": "D#4",
          "ticks": 219840,
          "time": 261.714482,
          "velocity": 0.2677165354330709
        },
        {
          "duration": 0.14285725000002003,
          "durationTicks": 120,
          "midi": 66,
          "name": "F#4",
          "ticks": 219840,
          "time": 261.714482,
          "velocity": 0.2440944881889764
        },
        {
          "duration": 0.11904770833331213,
          "durationTicks": 100,
          "midi": 85,
          "name": "C#6",
          "ticks": 219840,
          "time": 261.714482,
          "velocity": 0.5275590551181102
        },
        {
          "duration": 0.11904770833331213,
          "durationTicks": 100,
          "midi": 63,
          "name": "D#4",
          "ticks": 219960,
          "time": 261.85733925,
          "velocity": 0.2677165354330709
        },
        {
          "duration": 0.14285725000002003,
          "durationTicks": 120,
          "midi": 47,
          "name": "B2",
          "ticks": 220080,
          "time": 262.00019649999996,
          "velocity": 0.36220472440944884
        },
        {
          "duration": 0.14285725000002003,
          "durationTicks": 120,
          "midi": 59,
          "name": "B3",
          "ticks": 220080,
          "time": 262.00019649999996,
          "velocity": 0.2992125984251969
        },
        {
          "duration": 0.14285725000002003,
          "durationTicks": 120,
          "midi": 63,
          "name": "D#4",
          "ticks": 220080,
          "time": 262.00019649999996,
          "velocity": 0.2677165354330709
        },
        {
          "duration": 0.1666667916666711,
          "durationTicks": 140,
          "midi": 44,
          "name": "G#2",
          "ticks": 220200,
          "time": 262.14305375,
          "velocity": 0.44881889763779526
        },
        {
          "duration": 0.11904770833331213,
          "durationTicks": 100,
          "midi": 59,
          "name": "B3",
          "ticks": 220200,
          "time": 262.14305375,
          "velocity": 0.3543307086614173
        },
        {
          "duration": 0.11904770833331213,
          "durationTicks": 100,
          "midi": 68,
          "name": "G#4",
          "ticks": 220200,
          "time": 262.14305375,
          "velocity": 0.33070866141732286
        },
        {
          "duration": 0.1428572499999632,
          "durationTicks": 120,
          "midi": 43,
          "name": "G2",
          "ticks": 220320,
          "time": 262.285911,
          "velocity": 0.48031496062992124
        },
        {
          "duration": 0.1428572499999632,
          "durationTicks": 120,
          "midi": 55,
          "name": "G3",
          "ticks": 220320,
          "time": 262.285911,
          "velocity": 0.3779527559055118
        },
        {
          "duration": 0.1428572499999632,
          "durationTicks": 120,
          "midi": 67,
          "name": "G4",
          "ticks": 220320,
          "time": 262.285911,
          "velocity": 0.3228346456692913
        },
        {
          "duration": 0.14285725000002003,
          "durationTicks": 120,
          "midi": 59,
          "name": "B3",
          "ticks": 220440,
          "time": 262.42876824999996,
          "velocity": 0.33070866141732286
        },
        {
          "duration": 0.14285725000002003,
          "durationTicks": 120,
          "midi": 63,
          "name": "D#4",
          "ticks": 220440,
          "time": 262.42876824999996,
          "velocity": 0.29133858267716534
        },
        {
          "duration": 0.14285725000002003,
          "durationTicks": 120,
          "midi": 45,
          "name": "A2",
          "ticks": 220560,
          "time": 262.5716255,
          "velocity": 0.3779527559055118
        },
        {
          "duration": 0.14285725000002003,
          "durationTicks": 120,
          "midi": 56,
          "name": "G#3",
          "ticks": 220560,
          "time": 262.5716255,
          "velocity": 0.3543307086614173
        },
        {
          "duration": 0.14285725000002003,
          "durationTicks": 120,
          "midi": 63,
          "name": "D#4",
          "ticks": 220560,
          "time": 262.5716255,
          "velocity": 0.25984251968503935
        },
        {
          "duration": 0.14285725000002003,
          "durationTicks": 120,
          "midi": 68,
          "name": "G#4",
          "ticks": 220560,
          "time": 262.5716255,
          "velocity": 0.2992125984251969
        },
        {
          "duration": 0.1428572499999632,
          "durationTicks": 120,
          "midi": 43,
          "name": "G2",
          "ticks": 220680,
          "time": 262.71448275,
          "velocity": 0.41732283464566927
        },
        {
          "duration": 0.11904770833331213,
          "durationTicks": 100,
          "midi": 55,
          "name": "G3",
          "ticks": 220680,
          "time": 262.71448275,
          "velocity": 0.31496062992125984
        },
        {
          "duration": 0.11904770833331213,
          "durationTicks": 100,
          "midi": 63,
          "name": "D#4",
          "ticks": 220680,
          "time": 262.71448275,
          "velocity": 0.2440944881889764
        },
        {
          "duration": 0.28571450000004006,
          "durationTicks": 240,
          "midi": 30,
          "name": "F#1",
          "ticks": 220800,
          "time": 262.85733999999997,
          "velocity": 0.4251968503937008
        },
        {
          "duration": 0.28571450000004006,
          "durationTicks": 240,
          "midi": 42,
          "name": "F#2",
          "ticks": 220800,
          "time": 262.85733999999997,
          "velocity": 0.4251968503937008
        },
        {
          "duration": 0.28571450000004006,
          "durationTicks": 240,
          "midi": 57,
          "name": "A3",
          "ticks": 220800,
          "time": 262.85733999999997,
          "velocity": 0.3858267716535433
        },
        {
          "duration": 0.28571450000004006,
          "durationTicks": 240,
          "midi": 59,
          "name": "B3",
          "ticks": 220800,
          "time": 262.85733999999997,
          "velocity": 0.3543307086614173
        },
        {
          "duration": 0.28571450000004006,
          "durationTicks": 240,
          "midi": 61,
          "name": "C#4",
          "ticks": 220800,
          "time": 262.85733999999997,
          "velocity": 0.2992125984251969
        },
        {
          "duration": 0.28571450000004006,
          "durationTicks": 240,
          "midi": 69,
          "name": "A4",
          "ticks": 220800,
          "time": 262.85733999999997,
          "velocity": 0.3858267716535433
        },
        {
          "duration": 0.2142858749999732,
          "durationTicks": 180,
          "midi": 42,
          "name": "F#2",
          "ticks": 220920,
          "time": 263.00019725,
          "velocity": 0.4094488188976378
        },
        {
          "duration": 0.1666667916666711,
          "durationTicks": 140,
          "midi": 52,
          "name": "E3",
          "ticks": 221040,
          "time": 263.1430545,
          "velocity": 0.2283464566929134
        },
        {
          "duration": 0.14285725000002003,
          "durationTicks": 120,
          "midi": 37,
          "name": "C#2",
          "ticks": 221160,
          "time": 263.28591174999997,
          "velocity": 0.31496062992125984
        },
        {
          "duration": 0.14285725000002003,
          "durationTicks": 120,
          "midi": 42,
          "name": "F#2",
          "ticks": 221160,
          "time": 263.28591174999997,
          "velocity": 0.36220472440944884
        },
        {
          "duration": 0.11904770833331213,
          "durationTicks": 100,
          "midi": 82,
          "name": "A#5",
          "ticks": 221280,
          "time": 263.428769,
          "velocity": 0.25984251968503935
        },
        {
          "duration": 0.19047633333332215,
          "durationTicks": 160,
          "midi": 40,
          "name": "E2",
          "ticks": 221400,
          "time": 263.57162625,
          "velocity": 0.3464566929133858
        },
        {
          "duration": 0.19047633333332215,
          "durationTicks": 160,
          "midi": 52,
          "name": "E3",
          "ticks": 221400,
          "time": 263.57162625,
          "velocity": 0.23622047244094488
        },
        {
          "duration": 0.3095240416666911,
          "durationTicks": 260,
          "midi": 42,
          "name": "F#2",
          "ticks": 221520,
          "time": 263.7144835,
          "velocity": 0.3937007874015748
        },
        {
          "duration": 0.3095240416666911,
          "durationTicks": 260,
          "midi": 69,
          "name": "A4",
          "ticks": 221520,
          "time": 263.7144835,
          "velocity": 0.30708661417322836
        },
        {
          "duration": 0.2857144999999832,
          "durationTicks": 240,
          "midi": 42,
          "name": "F#2",
          "ticks": 221760,
          "time": 264.000198,
          "velocity": 0.4015748031496063
        },
        {
          "duration": 0.2857144999999832,
          "durationTicks": 240,
          "midi": 59,
          "name": "B3",
          "ticks": 221760,
          "time": 264.000198,
          "velocity": 0.2283464566929134
        },
        {
          "duration": 0.2857144999999832,
          "durationTicks": 240,
          "midi": 61,
          "name": "C#4",
          "ticks": 221760,
          "time": 264.000198,
          "velocity": 0.2283464566929134
        },
        {
          "duration": 0.2857144999999832,
          "durationTicks": 240,
          "midi": 64,
          "name": "E4",
          "ticks": 221760,
          "time": 264.000198,
          "velocity": 0.2755905511811024
        },
        {
          "duration": 0.2857144999999832,
          "durationTicks": 240,
          "midi": 68,
          "name": "G#4",
          "ticks": 221760,
          "time": 264.000198,
          "velocity": 0.4645669291338583
        },
        {
          "duration": 0.2857144999999832,
          "durationTicks": 240,
          "midi": 71,
          "name": "B4",
          "ticks": 221760,
          "time": 264.000198,
          "velocity": 0.36220472440944884
        },
        {
          "duration": 0.2857144999999832,
          "durationTicks": 240,
          "midi": 83,
          "name": "B5",
          "ticks": 221760,
          "time": 264.000198,
          "velocity": 0.36220472440944884
        },
        {
          "duration": 0.2857144999999832,
          "durationTicks": 240,
          "midi": 37,
          "name": "C#2",
          "ticks": 222000,
          "time": 264.2859125,
          "velocity": 0.33858267716535434
        },
        {
          "duration": 0.2857144999999832,
          "durationTicks": 240,
          "midi": 52,
          "name": "E3",
          "ticks": 222000,
          "time": 264.2859125,
          "velocity": 0.25984251968503935
        },
        {
          "duration": 0.2857144999999832,
          "durationTicks": 240,
          "midi": 61,
          "name": "C#4",
          "ticks": 222000,
          "time": 264.2859125,
          "velocity": 0.25196850393700787
        },
        {
          "duration": 0.2857144999999832,
          "durationTicks": 240,
          "midi": 82,
          "name": "A#5",
          "ticks": 222000,
          "time": 264.2859125,
          "velocity": 0.29133858267716534
        },
        {
          "duration": 0.14285725000002003,
          "durationTicks": 120,
          "midi": 30,
          "name": "F#1",
          "ticks": 222240,
          "time": 264.571627,
          "velocity": 0.3858267716535433
        },
        {
          "duration": 0.1666667916666711,
          "durationTicks": 140,
          "midi": 61,
          "name": "C#4",
          "ticks": 222360,
          "time": 264.71448425,
          "velocity": 0.2283464566929134
        },
        {
          "duration": 0.28571450000004006,
          "durationTicks": 240,
          "midi": 30,
          "name": "F#1",
          "ticks": 222480,
          "time": 264.85734149999996,
          "velocity": 0.36220472440944884
        },
        {
          "duration": 0.28571450000004006,
          "durationTicks": 240,
          "midi": 37,
          "name": "C#2",
          "ticks": 222480,
          "time": 264.85734149999996,
          "velocity": 0.4094488188976378
        },
        {
          "duration": 0.28571450000004006,
          "durationTicks": 240,
          "midi": 40,
          "name": "E2",
          "ticks": 222480,
          "time": 264.85734149999996,
          "velocity": 0.36220472440944884
        },
        {
          "duration": 0.28571450000004006,
          "durationTicks": 240,
          "midi": 42,
          "name": "F#2",
          "ticks": 222480,
          "time": 264.85734149999996,
          "velocity": 0.36220472440944884
        },
        {
          "duration": 0.28571450000004006,
          "durationTicks": 240,
          "midi": 56,
          "name": "G#3",
          "ticks": 222480,
          "time": 264.85734149999996,
          "velocity": 0.28346456692913385
        },
        {
          "duration": 0.2380954166666811,
          "durationTicks": 200,
          "midi": 80,
          "name": "G#5",
          "ticks": 222480,
          "time": 264.85734149999996,
          "velocity": 0.25984251968503935
        },
        {
          "duration": 0.28571450000004006,
          "durationTicks": 240,
          "midi": 82,
          "name": "A#5",
          "ticks": 222480,
          "time": 264.85734149999996,
          "velocity": 0.23622047244094488
        },
        {
          "duration": 0.26190495833333216,
          "durationTicks": 220,
          "midi": 32,
          "name": "G#1",
          "ticks": 222720,
          "time": 265.143056,
          "velocity": 0.4409448818897638
        },
        {
          "duration": 0.3095240416666343,
          "durationTicks": 260,
          "midi": 44,
          "name": "G#2",
          "ticks": 222720,
          "time": 265.143056,
          "velocity": 0.3858267716535433
        },
        {
          "duration": 0.3095240416666343,
          "durationTicks": 260,
          "midi": 56,
          "name": "G#3",
          "ticks": 222720,
          "time": 265.143056,
          "velocity": 0.29133858267716534
        },
        {
          "duration": 0.3095240416666343,
          "durationTicks": 260,
          "midi": 58,
          "name": "A#3",
          "ticks": 222720,
          "time": 265.143056,
          "velocity": 0.3858267716535433
        },
        {
          "duration": 0.3095240416666343,
          "durationTicks": 260,
          "midi": 59,
          "name": "B3",
          "ticks": 222720,
          "time": 265.143056,
          "velocity": 0.4330708661417323
        },
        {
          "duration": 0.3095240416666343,
          "durationTicks": 260,
          "midi": 61,
          "name": "C#4",
          "ticks": 222720,
          "time": 265.143056,
          "velocity": 0.2677165354330709
        },
        {
          "duration": 0.3095240416666343,
          "durationTicks": 260,
          "midi": 70,
          "name": "A#4",
          "ticks": 222720,
          "time": 265.143056,
          "velocity": 0.3858267716535433
        },
        {
          "duration": 0.3095240416666343,
          "durationTicks": 260,
          "midi": 82,
          "name": "A#5",
          "ticks": 222720,
          "time": 265.143056,
          "velocity": 0.2047244094488189
        },
        {
          "duration": 0.3095240416666343,
          "durationTicks": 260,
          "midi": 83,
          "name": "B5",
          "ticks": 222720,
          "time": 265.143056,
          "velocity": 0.29133858267716534
        },
        {
          "duration": 0.21428587500003005,
          "durationTicks": 180,
          "midi": 30,
          "name": "F#1",
          "ticks": 222840,
          "time": 265.28591324999996,
          "velocity": 0.28346456692913385
        },
        {
          "duration": 0.21428587500003005,
          "durationTicks": 180,
          "midi": 61,
          "name": "C#4",
          "ticks": 222840,
          "time": 265.28591324999996,
          "velocity": 0.4881889763779528
        },
        {
          "duration": 0.2857144999999832,
          "durationTicks": 240,
          "midi": 39,
          "name": "D#2",
          "ticks": 223080,
          "time": 265.57162775,
          "velocity": 0.41732283464566927
        },
        {
          "duration": 0.14285725000002003,
          "durationTicks": 120,
          "midi": 59,
          "name": "B3",
          "ticks": 223320,
          "time": 265.85734225,
          "velocity": 0.2283464566929134
        },
        {
          "duration": 0.2857144999999832,
          "durationTicks": 240,
          "midi": 39,
          "name": "D#2",
          "ticks": 223440,
          "time": 266.0001995,
          "velocity": 0.33858267716535434
        },
        {
          "duration": 0.2857144999999832,
          "durationTicks": 240,
          "midi": 44,
          "name": "G#2",
          "ticks": 223440,
          "time": 266.0001995,
          "velocity": 0.4330708661417323
        },
        {
          "duration": 0.2857144999999832,
          "durationTicks": 240,
          "midi": 56,
          "name": "G#3",
          "ticks": 223440,
          "time": 266.0001995,
          "velocity": 0.4330708661417323
        },
        {
          "duration": 0.2857144999999832,
          "durationTicks": 240,
          "midi": 63,
          "name": "D#4",
          "ticks": 223440,
          "time": 266.0001995,
          "velocity": 0.2677165354330709
        },
        {
          "duration": 0.33333358333328533,
          "durationTicks": 280,
          "midi": 65,
          "name": "F4",
          "ticks": 223440,
          "time": 266.0001995,
          "velocity": 0.33070866141732286
        },
        {
          "duration": 0.2857144999999832,
          "durationTicks": 240,
          "midi": 66,
          "name": "F#4",
          "ticks": 223440,
          "time": 266.0001995,
          "velocity": 0.33858267716535434
        },
        {
          "duration": 0.2619049583332753,
          "durationTicks": 220,
          "midi": 69,
          "name": "A4",
          "ticks": 223440,
          "time": 266.0001995,
          "velocity": 0.48031496062992124
        },
        {
          "duration": 0.2857144999999832,
          "durationTicks": 240,
          "midi": 71,
          "name": "B4",
          "ticks": 223440,
          "time": 266.0001995,
          "velocity": 0.31496062992125984
        },
        {
          "duration": 0.14285725000002003,
          "durationTicks": 120,
          "midi": 39,
          "name": "D#2",
          "ticks": 223680,
          "time": 266.285914,
          "velocity": 0.31496062992125984
        },
        {
          "duration": 0.14285725000002003,
          "durationTicks": 120,
          "midi": 44,
          "name": "G#2",
          "ticks": 223680,
          "time": 266.285914,
          "velocity": 0.3464566929133858
        },
        {
          "duration": 0.14285725000002003,
          "durationTicks": 120,
          "midi": 68,
          "name": "G#4",
          "ticks": 223680,
          "time": 266.285914,
          "velocity": 0.5196850393700787
        },
        {
          "duration": 0.14285725000002003,
          "durationTicks": 120,
          "midi": 71,
          "name": "B4",
          "ticks": 223680,
          "time": 266.285914,
          "velocity": 0.33858267716535434
        },
        {
          "duration": 0.11904770833331213,
          "durationTicks": 100,
          "midi": 44,
          "name": "G#2",
          "ticks": 223800,
          "time": 266.42877125,
          "velocity": 0.4330708661417323
        },
        {
          "duration": 0.11904770833331213,
          "durationTicks": 100,
          "midi": 71,
          "name": "B4",
          "ticks": 223800,
          "time": 266.42877125,
          "velocity": 0.5905511811023622
        },
        {
          "duration": 0.14285725000002003,
          "durationTicks": 120,
          "midi": 39,
          "name": "D#2",
          "ticks": 223920,
          "time": 266.5716285,
          "velocity": 0.3464566929133858
        },
        {
          "duration": 0.14285725000002003,
          "durationTicks": 120,
          "midi": 54,
          "name": "F#3",
          "ticks": 223920,
          "time": 266.5716285,
          "velocity": 0.2440944881889764
        },
        {
          "duration": 0.14285725000002003,
          "durationTicks": 120,
          "midi": 63,
          "name": "D#4",
          "ticks": 223920,
          "time": 266.5716285,
          "velocity": 0.2440944881889764
        },
        {
          "duration": 0.11904770833331213,
          "durationTicks": 100,
          "midi": 58,
          "name": "A#3",
          "ticks": 224040,
          "time": 266.71448575,
          "velocity": 0.2992125984251969
        },
        {
          "duration": 0.14285725000002003,
          "durationTicks": 120,
          "midi": 32,
          "name": "G#1",
          "ticks": 224160,
          "time": 266.85734299999996,
          "velocity": 0.4094488188976378
        },
        {
          "duration": 0.14285725000002003,
          "durationTicks": 120,
          "midi": 44,
          "name": "G#2",
          "ticks": 224160,
          "time": 266.85734299999996,
          "velocity": 0.4094488188976378
        },
        {
          "duration": 0.14285725000002003,
          "durationTicks": 120,
          "midi": 66,
          "name": "F#4",
          "ticks": 224160,
          "time": 266.85734299999996,
          "velocity": 0.2677165354330709
        },
        {
          "duration": 0.14285725000002003,
          "durationTicks": 120,
          "midi": 71,
          "name": "B4",
          "ticks": 224160,
          "time": 266.85734299999996,
          "velocity": 0.6220472440944882
        },
        {
          "duration": 0.1666667916666711,
          "durationTicks": 140,
          "midi": 59,
          "name": "B3",
          "ticks": 224280,
          "time": 267.00020025,
          "velocity": 0.3700787401574803
        },
        {
          "duration": 0.1666667916666711,
          "durationTicks": 140,
          "midi": 63,
          "name": "D#4",
          "ticks": 224280,
          "time": 267.00020025,
          "velocity": 0.2677165354330709
        },
        {
          "duration": 0.1428572499999632,
          "durationTicks": 120,
          "midi": 40,
          "name": "E2",
          "ticks": 224400,
          "time": 267.1430575,
          "velocity": 0.41732283464566927
        },
        {
          "duration": 0.1428572499999632,
          "durationTicks": 120,
          "midi": 44,
          "name": "G#2",
          "ticks": 224400,
          "time": 267.1430575,
          "velocity": 0.41732283464566927
        },
        {
          "duration": 0.11904770833336897,
          "durationTicks": 100,
          "midi": 63,
          "name": "D#4",
          "ticks": 224520,
          "time": 267.28591474999996,
          "velocity": 0.2204724409448819
        },
        {
          "duration": 0.2857144999999832,
          "durationTicks": 240,
          "midi": 33,
          "name": "A1",
          "ticks": 224640,
          "time": 267.428772,
          "velocity": 0.47244094488188976
        },
        {
          "duration": 0.2857144999999832,
          "durationTicks": 240,
          "midi": 45,
          "name": "A2",
          "ticks": 224640,
          "time": 267.428772,
          "velocity": 0.47244094488188976
        },
        {
          "duration": 0.2857144999999832,
          "durationTicks": 240,
          "midi": 52,
          "name": "E3",
          "ticks": 224640,
          "time": 267.428772,
          "velocity": 0.33070866141732286
        },
        {
          "duration": 0.2857144999999832,
          "durationTicks": 240,
          "midi": 56,
          "name": "G#3",
          "ticks": 224640,
          "time": 267.428772,
          "velocity": 0.25984251968503935
        },
        {
          "duration": 0.2857144999999832,
          "durationTicks": 240,
          "midi": 60,
          "name": "C4",
          "ticks": 224640,
          "time": 267.428772,
          "velocity": 0.30708661417322836
        },
        {
          "duration": 0.2857144999999832,
          "durationTicks": 240,
          "midi": 64,
          "name": "E4",
          "ticks": 224640,
          "time": 267.428772,
          "velocity": 0.2677165354330709
        },
        {
          "duration": 0.2857144999999832,
          "durationTicks": 240,
          "midi": 76,
          "name": "E5",
          "ticks": 224640,
          "time": 267.428772,
          "velocity": 0.25984251968503935
        },
        {
          "duration": 0.11904770833336897,
          "durationTicks": 100,
          "midi": 56,
          "name": "G#3",
          "ticks": 224880,
          "time": 267.71448649999996,
          "velocity": 0.41732283464566927
        },
        {
          "duration": 0.11904770833336897,
          "durationTicks": 100,
          "midi": 60,
          "name": "C4",
          "ticks": 224880,
          "time": 267.71448649999996,
          "velocity": 0.2677165354330709
        },
        {
          "duration": 0.11904770833336897,
          "durationTicks": 100,
          "midi": 64,
          "name": "E4",
          "ticks": 224880,
          "time": 267.71448649999996,
          "velocity": 0.4330708661417323
        },
        {
          "duration": 0.14285725000002003,
          "durationTicks": 120,
          "midi": 40,
          "name": "E2",
          "ticks": 225000,
          "time": 267.85734375,
          "velocity": 0.3858267716535433
        },
        {
          "duration": 0.1666667916666711,
          "durationTicks": 140,
          "midi": 56,
          "name": "G#3",
          "ticks": 225120,
          "time": 268.000201,
          "velocity": 0.2755905511811024
        },
        {
          "duration": 0.11904770833331213,
          "durationTicks": 100,
          "midi": 60,
          "name": "C4",
          "ticks": 225120,
          "time": 268.000201,
          "velocity": 0.28346456692913385
        },
        {
          "duration": 0.1666667916666711,
          "durationTicks": 140,
          "midi": 66,
          "name": "F#4",
          "ticks": 225120,
          "time": 268.000201,
          "velocity": 0.36220472440944884
        },
        {
          "duration": 0.14285725000002003,
          "durationTicks": 120,
          "midi": 64,
          "name": "E4",
          "ticks": 225240,
          "time": 268.14305824999997,
          "velocity": 0.25984251968503935
        },
        {
          "duration": 0.26190495833333216,
          "durationTicks": 220,
          "midi": 46,
          "name": "A#2",
          "ticks": 225360,
          "time": 268.2859155,
          "velocity": 0.36220472440944884
        },
        {
          "duration": 0.26190495833333216,
          "durationTicks": 220,
          "midi": 54,
          "name": "F#3",
          "ticks": 225360,
          "time": 268.2859155,
          "velocity": 0.2440944881889764
        },
        {
          "duration": 0.3095240416666911,
          "durationTicks": 260,
          "midi": 60,
          "name": "C4",
          "ticks": 225360,
          "time": 268.2859155,
          "velocity": 0.2992125984251969
        },
        {
          "duration": 0.28571450000004006,
          "durationTicks": 240,
          "midi": 45,
          "name": "A2",
          "ticks": 225600,
          "time": 268.57162999999997,
          "velocity": 0.33858267716535434
        },
        {
          "duration": 0.28571450000004006,
          "durationTicks": 240,
          "midi": 60,
          "name": "C4",
          "ticks": 225600,
          "time": 268.57162999999997,
          "velocity": 0.2755905511811024
        },
        {
          "duration": 0.28571450000004006,
          "durationTicks": 240,
          "midi": 64,
          "name": "E4",
          "ticks": 225600,
          "time": 268.57162999999997,
          "velocity": 0.3700787401574803
        },
        {
          "duration": 0.28571450000004006,
          "durationTicks": 240,
          "midi": 66,
          "name": "F#4",
          "ticks": 225600,
          "time": 268.57162999999997,
          "velocity": 0.33070866141732286
        },
        {
          "duration": 0.1428572499999632,
          "durationTicks": 120,
          "midi": 45,
          "name": "A2",
          "ticks": 225840,
          "time": 268.8573445,
          "velocity": 0.2677165354330709
        },
        {
          "duration": 0.1428572499999632,
          "durationTicks": 120,
          "midi": 54,
          "name": "F#3",
          "ticks": 225840,
          "time": 268.8573445,
          "velocity": 0.2677165354330709
        },
        {
          "duration": 0.1428572499999632,
          "durationTicks": 120,
          "midi": 64,
          "name": "E4",
          "ticks": 225840,
          "time": 268.8573445,
          "velocity": 0.4645669291338583
        },
        {
          "duration": 0.11904770833331213,
          "durationTicks": 100,
          "midi": 40,
          "name": "E2",
          "ticks": 225960,
          "time": 269.00020175,
          "velocity": 0.44881889763779526
        },
        {
          "duration": 0.2857144999999832,
          "durationTicks": 240,
          "midi": 59,
          "name": "B3",
          "ticks": 226080,
          "time": 269.143059,
          "velocity": 0.2677165354330709
        },
        {
          "duration": 0.2857144999999832,
          "durationTicks": 240,
          "midi": 60,
          "name": "C4",
          "ticks": 226080,
          "time": 269.143059,
          "velocity": 0.2992125984251969
        },
        {
          "duration": 0.33333358333328533,
          "durationTicks": 280,
          "midi": 64,
          "name": "E4",
          "ticks": 226080,
          "time": 269.143059,
          "velocity": 0.3228346456692913
        },
        {
          "duration": 0.14285725000002003,
          "durationTicks": 120,
          "midi": 45,
          "name": "A2",
          "ticks": 226320,
          "time": 269.4287735,
          "velocity": 0.3858267716535433
        },
        {
          "duration": 0.14285725000002003,
          "durationTicks": 120,
          "midi": 63,
          "name": "D#4",
          "ticks": 226320,
          "time": 269.4287735,
          "velocity": 0.4015748031496063
        },
        {
          "duration": 0.11904770833331213,
          "durationTicks": 100,
          "midi": 63,
          "name": "D#4",
          "ticks": 226440,
          "time": 269.57163075,
          "velocity": 0.48031496062992124
        },
        {
          "duration": 0.28571450000004006,
          "durationTicks": 240,
          "midi": 47,
          "name": "B2",
          "ticks": 226560,
          "time": 269.71448799999996,
          "velocity": 0.44881889763779526
        },
        {
          "duration": 0.28571450000004006,
          "durationTicks": 240,
          "midi": 56,
          "name": "G#3",
          "ticks": 226560,
          "time": 269.71448799999996,
          "velocity": 0.31496062992125984
        },
        {
          "duration": 0.28571450000004006,
          "durationTicks": 240,
          "midi": 59,
          "name": "B3",
          "ticks": 226560,
          "time": 269.71448799999996,
          "velocity": 0.44881889763779526
        },
        {
          "duration": 0.28571450000004006,
          "durationTicks": 240,
          "midi": 64,
          "name": "E4",
          "ticks": 226560,
          "time": 269.71448799999996,
          "velocity": 0.33858267716535434
        },
        {
          "duration": 0.11904770833331213,
          "durationTicks": 100,
          "midi": 56,
          "name": "G#3",
          "ticks": 226800,
          "time": 270.0002025,
          "velocity": 0.2755905511811024
        },
        {
          "duration": 0.11904770833331213,
          "durationTicks": 100,
          "midi": 59,
          "name": "B3",
          "ticks": 226800,
          "time": 270.0002025,
          "velocity": 0.2755905511811024
        },
        {
          "duration": 0.11904770833331213,
          "durationTicks": 100,
          "midi": 63,
          "name": "D#4",
          "ticks": 226800,
          "time": 270.0002025,
          "velocity": 0.3700787401574803
        },
        {
          "duration": 0.14285725000002003,
          "durationTicks": 120,
          "midi": 44,
          "name": "G#2",
          "ticks": 226920,
          "time": 270.14305974999996,
          "velocity": 0.6929133858267716
        },
        {
          "duration": 0.26190495833333216,
          "durationTicks": 220,
          "midi": 44,
          "name": "G#2",
          "ticks": 227040,
          "time": 270.285917,
          "velocity": 0.6535433070866141
        },
        {
          "duration": 0.26190495833333216,
          "durationTicks": 220,
          "midi": 56,
          "name": "G#3",
          "ticks": 227040,
          "time": 270.285917,
          "velocity": 0.3700787401574803
        },
        {
          "duration": 0.26190495833333216,
          "durationTicks": 220,
          "midi": 59,
          "name": "B3",
          "ticks": 227040,
          "time": 270.285917,
          "velocity": 0.23622047244094488
        },
        {
          "duration": 0.26190495833333216,
          "durationTicks": 220,
          "midi": 63,
          "name": "D#4",
          "ticks": 227040,
          "time": 270.285917,
          "velocity": 0.5433070866141733
        },
        {
          "duration": 0.1666667916666711,
          "durationTicks": 140,
          "midi": 40,
          "name": "E2",
          "ticks": 227280,
          "time": 270.57163149999997,
          "velocity": 0.28346456692913385
        },
        {
          "duration": 0.1666667916666711,
          "durationTicks": 140,
          "midi": 47,
          "name": "B2",
          "ticks": 227280,
          "time": 270.57163149999997,
          "velocity": 0.3779527559055118
        },
        {
          "duration": 0.1666667916666711,
          "durationTicks": 140,
          "midi": 56,
          "name": "G#3",
          "ticks": 227280,
          "time": 270.57163149999997,
          "velocity": 0.28346456692913385
        },
        {
          "duration": 0.1666667916666711,
          "durationTicks": 140,
          "midi": 57,
          "name": "A3",
          "ticks": 227280,
          "time": 270.57163149999997,
          "velocity": 0.23622047244094488
        },
        {
          "duration": 0.1666667916666711,
          "durationTicks": 140,
          "midi": 59,
          "name": "B3",
          "ticks": 227280,
          "time": 270.57163149999997,
          "velocity": 0.3464566929133858
        },
        {
          "duration": 0.1666667916666711,
          "durationTicks": 140,
          "midi": 61,
          "name": "C#4",
          "ticks": 227400,
          "time": 270.71448875,
          "velocity": 0.3937007874015748
        },
        {
          "duration": 0.1428572499999632,
          "durationTicks": 120,
          "midi": 32,
          "name": "G#1",
          "ticks": 227520,
          "time": 270.857346,
          "velocity": 0.3700787401574803
        },
        {
          "duration": 0.1428572499999632,
          "durationTicks": 120,
          "midi": 39,
          "name": "D#2",
          "ticks": 227520,
          "time": 270.857346,
          "velocity": 0.33858267716535434
        },
        {
          "duration": 0.1428572499999632,
          "durationTicks": 120,
          "midi": 49,
          "name": "C#3",
          "ticks": 227520,
          "time": 270.857346,
          "velocity": 0.41732283464566927
        },
        {
          "duration": 0.1428572499999632,
          "durationTicks": 120,
          "midi": 59,
          "name": "B3",
          "ticks": 227520,
          "time": 270.857346,
          "velocity": 0.33858267716535434
        },
        {
          "duration": 0.1428572499999632,
          "durationTicks": 120,
          "midi": 63,
          "name": "D#4",
          "ticks": 227520,
          "time": 270.857346,
          "velocity": 0.2440944881889764
        },
        {
          "duration": 0.1428572499999632,
          "durationTicks": 120,
          "midi": 66,
          "name": "F#4",
          "ticks": 227520,
          "time": 270.857346,
          "velocity": 0.2440944881889764
        },
        {
          "duration": 0.1428572499999632,
          "durationTicks": 120,
          "midi": 85,
          "name": "C#6",
          "ticks": 227520,
          "time": 270.857346,
          "velocity": 0.48031496062992124
        },
        {
          "duration": 0.11904770833331213,
          "durationTicks": 100,
          "midi": 42,
          "name": "F#2",
          "ticks": 227640,
          "time": 271.00020324999997,
          "velocity": 0.4094488188976378
        },
        {
          "duration": 0.14285725000002003,
          "durationTicks": 120,
          "midi": 47,
          "name": "B2",
          "ticks": 227760,
          "time": 271.1430605,
          "velocity": 0.3543307086614173
        },
        {
          "duration": 0.14285725000002003,
          "durationTicks": 120,
          "midi": 54,
          "name": "F#3",
          "ticks": 227760,
          "time": 271.1430605,
          "velocity": 0.2283464566929134
        },
        {
          "duration": 0.14285725000002003,
          "durationTicks": 120,
          "midi": 59,
          "name": "B3",
          "ticks": 227760,
          "time": 271.1430605,
          "velocity": 0.29133858267716534
        },
        {
          "duration": 0.14285725000002003,
          "durationTicks": 120,
          "midi": 63,
          "name": "D#4",
          "ticks": 227760,
          "time": 271.1430605,
          "velocity": 0.25984251968503935
        },
        {
          "duration": 0.14285725000002003,
          "durationTicks": 120,
          "midi": 83,
          "name": "B5",
          "ticks": 227760,
          "time": 271.1430605,
          "velocity": 0.4251968503937008
        },
        {
          "duration": 0.11904770833331213,
          "durationTicks": 100,
          "midi": 32,
          "name": "G#1",
          "ticks": 227880,
          "time": 271.28591775,
          "velocity": 0.36220472440944884
        },
        {
          "duration": 0.14285725000002003,
          "durationTicks": 120,
          "midi": 43,
          "name": "G2",
          "ticks": 228000,
          "time": 271.428775,
          "velocity": 0.4251968503937008
        },
        {
          "duration": 0.14285725000002003,
          "durationTicks": 120,
          "midi": 55,
          "name": "G3",
          "ticks": 228000,
          "time": 271.428775,
          "velocity": 0.4015748031496063
        },
        {
          "duration": 0.09523816666666107,
          "durationTicks": 80,
          "midi": 67,
          "name": "G4",
          "ticks": 228000,
          "time": 271.428775,
          "velocity": 0.4330708661417323
        },
        {
          "duration": 0.11904770833331213,
          "durationTicks": 100,
          "midi": 54,
          "name": "F#3",
          "ticks": 228120,
          "time": 271.57163225,
          "velocity": 0.2755905511811024
        },
        {
          "duration": 0.11904770833331213,
          "durationTicks": 100,
          "midi": 63,
          "name": "D#4",
          "ticks": 228120,
          "time": 271.57163225,
          "velocity": 0.2992125984251969
        },
        {
          "duration": 0.14285725000002003,
          "durationTicks": 120,
          "midi": 32,
          "name": "G#1",
          "ticks": 228240,
          "time": 271.71448949999996,
          "velocity": 0.4409448818897638
        },
        {
          "duration": 0.14285725000002003,
          "durationTicks": 120,
          "midi": 49,
          "name": "C#3",
          "ticks": 228240,
          "time": 271.71448949999996,
          "velocity": 0.2440944881889764
        },
        {
          "duration": 0.14285725000002003,
          "durationTicks": 120,
          "midi": 43,
          "name": "G2",
          "ticks": 228360,
          "time": 271.85734675,
          "velocity": 0.4094488188976378
        },
        {
          "duration": 0.14285725000002003,
          "durationTicks": 120,
          "midi": 55,
          "name": "G3",
          "ticks": 228360,
          "time": 271.85734675,
          "velocity": 0.33070866141732286
        },
        {
          "duration": 0.14285725000002003,
          "durationTicks": 120,
          "midi": 67,
          "name": "G4",
          "ticks": 228360,
          "time": 271.85734675,
          "velocity": 0.3543307086614173
        },
        {
          "duration": 0.2857144999999832,
          "durationTicks": 240,
          "midi": 42,
          "name": "F#2",
          "ticks": 228480,
          "time": 272.000204,
          "velocity": 0.4566929133858268
        },
        {
          "duration": 0.2857144999999832,
          "durationTicks": 240,
          "midi": 54,
          "name": "F#3",
          "ticks": 228480,
          "time": 272.000204,
          "velocity": 0.4566929133858268
        },
        {
          "duration": 0.2857144999999832,
          "durationTicks": 240,
          "midi": 57,
          "name": "A3",
          "ticks": 228480,
          "time": 272.000204,
          "velocity": 0.3464566929133858
        },
        {
          "duration": 0.2857144999999832,
          "durationTicks": 240,
          "midi": 59,
          "name": "B3",
          "ticks": 228480,
          "time": 272.000204,
          "velocity": 0.3464566929133858
        },
        {
          "duration": 0.2857144999999832,
          "durationTicks": 240,
          "midi": 61,
          "name": "C#4",
          "ticks": 228480,
          "time": 272.000204,
          "velocity": 0.29133858267716534
        },
        {
          "duration": 0.2857144999999832,
          "durationTicks": 240,
          "midi": 69,
          "name": "A4",
          "ticks": 228480,
          "time": 272.000204,
          "velocity": 0.3464566929133858
        },
        {
          "duration": 0.11904770833331213,
          "durationTicks": 100,
          "midi": 30,
          "name": "F#1",
          "ticks": 228720,
          "time": 272.2859185,
          "velocity": 0.5590551181102362
        },
        {
          "duration": 0.1666667916666711,
          "durationTicks": 140,
          "midi": 52,
          "name": "E3",
          "ticks": 228720,
          "time": 272.2859185,
          "velocity": 0.3779527559055118
        },
        {
          "duration": 0.1428572499999632,
          "durationTicks": 120,
          "midi": 69,
          "name": "A4",
          "ticks": 228840,
          "time": 272.42877575,
          "velocity": 0.44881889763779526
        },
        {
          "duration": 0.26190495833333216,
          "durationTicks": 220,
          "midi": 32,
          "name": "G#1",
          "ticks": 228960,
          "time": 272.57163299999996,
          "velocity": 0.25196850393700787
        },
        {
          "duration": 0.1666667916666711,
          "durationTicks": 140,
          "midi": 57,
          "name": "A3",
          "ticks": 229200,
          "time": 272.8573475,
          "velocity": 0.29133858267716534
        },
        {
          "duration": 0.1666667916666711,
          "durationTicks": 140,
          "midi": 66,
          "name": "F#4",
          "ticks": 229200,
          "time": 272.8573475,
          "velocity": 0.4330708661417323
        },
        {
          "duration": 0.14285725000002003,
          "durationTicks": 120,
          "midi": 30,
          "name": "F#1",
          "ticks": 229320,
          "time": 273.00020474999997,
          "velocity": 0.5354330708661418
        },
        {
          "duration": 0.14285725000002003,
          "durationTicks": 120,
          "midi": 59,
          "name": "B3",
          "ticks": 229440,
          "time": 273.143062,
          "velocity": 0.2283464566929134
        },
        {
          "duration": 0.14285725000002003,
          "durationTicks": 120,
          "midi": 64,
          "name": "E4",
          "ticks": 229440,
          "time": 273.143062,
          "velocity": 0.2755905511811024
        },
        {
          "duration": 0.14285725000002003,
          "durationTicks": 120,
          "midi": 71,
          "name": "B4",
          "ticks": 229440,
          "time": 273.143062,
          "velocity": 0.33858267716535434
        },
        {
          "duration": 0.1666667916666711,
          "durationTicks": 140,
          "midi": 37,
          "name": "C#2",
          "ticks": 229560,
          "time": 273.28591925,
          "velocity": 0.36220472440944884
        },
        {
          "duration": 0.1666667916666711,
          "durationTicks": 140,
          "midi": 52,
          "name": "E3",
          "ticks": 229560,
          "time": 273.28591925,
          "velocity": 0.33858267716535434
        },
        {
          "duration": 0.14285725000002003,
          "durationTicks": 120,
          "midi": 40,
          "name": "E2",
          "ticks": 229680,
          "time": 273.42877649999997,
          "velocity": 0.2677165354330709
        },
        {
          "duration": 0.26190495833333216,
          "durationTicks": 220,
          "midi": 41,
          "name": "F2",
          "ticks": 229800,
          "time": 273.57163375,
          "velocity": 0.2677165354330709
        },
        {
          "duration": 0.26190495833333216,
          "durationTicks": 220,
          "midi": 57,
          "name": "A3",
          "ticks": 229800,
          "time": 273.57163375,
          "velocity": 0.3464566929133858
        },
        {
          "duration": 0.26190495833333216,
          "durationTicks": 220,
          "midi": 59,
          "name": "B3",
          "ticks": 229800,
          "time": 273.57163375,
          "velocity": 0.4330708661417323
        },
        {
          "duration": 0.2142858749999732,
          "durationTicks": 180,
          "midi": 38,
          "name": "D2",
          "ticks": 229920,
          "time": 273.714491,
          "velocity": 0.25984251968503935
        },
        {
          "duration": 0.11904770833331213,
          "durationTicks": 100,
          "midi": 37,
          "name": "C#2",
          "ticks": 230040,
          "time": 273.85734825,
          "velocity": 0.3700787401574803
        },
        {
          "duration": 0.2857144999999832,
          "durationTicks": 240,
          "midi": 30,
          "name": "F#1",
          "ticks": 230160,
          "time": 274.0002055,
          "velocity": 0.30708661417322836
        },
        {
          "duration": 0.2857144999999832,
          "durationTicks": 240,
          "midi": 40,
          "name": "E2",
          "ticks": 230160,
          "time": 274.0002055,
          "velocity": 0.3937007874015748
        },
        {
          "duration": 0.2857144999999832,
          "durationTicks": 240,
          "midi": 80,
          "name": "G#5",
          "ticks": 230160,
          "time": 274.0002055,
          "velocity": 0.25984251968503935
        },
        {
          "duration": 0.2857144999999832,
          "durationTicks": 240,
          "midi": 32,
          "name": "G#1",
          "ticks": 230400,
          "time": 274.28592,
          "velocity": 0.44881889763779526
        },
        {
          "duration": 0.2857144999999832,
          "durationTicks": 240,
          "midi": 49,
          "name": "C#3",
          "ticks": 230400,
          "time": 274.28592,
          "velocity": 0.3700787401574803
        },
        {
          "duration": 0.2857144999999832,
          "durationTicks": 240,
          "midi": 58,
          "name": "A#3",
          "ticks": 230400,
          "time": 274.28592,
          "velocity": 0.29133858267716534
        },
        {
          "duration": 0.2857144999999832,
          "durationTicks": 240,
          "midi": 59,
          "name": "B3",
          "ticks": 230400,
          "time": 274.28592,
          "velocity": 0.33070866141732286
        },
        {
          "duration": 0.2857144999999832,
          "durationTicks": 240,
          "midi": 61,
          "name": "C#4",
          "ticks": 230400,
          "time": 274.28592,
          "velocity": 0.30708661417322836
        },
        {
          "duration": 0.2857144999999832,
          "durationTicks": 240,
          "midi": 70,
          "name": "A#4",
          "ticks": 230400,
          "time": 274.28592,
          "velocity": 0.29133858267716534
        },
        {
          "duration": 0.2857144999999832,
          "durationTicks": 240,
          "midi": 82,
          "name": "A#5",
          "ticks": 230400,
          "time": 274.28592,
          "velocity": 0.29133858267716534
        },
        {
          "duration": 0.2142858749999732,
          "durationTicks": 180,
          "midi": 61,
          "name": "C#4",
          "ticks": 230520,
          "time": 274.42877725,
          "velocity": 0.5039370078740157
        },
        {
          "duration": 0.16666679166672793,
          "durationTicks": 140,
          "midi": 44,
          "name": "G#2",
          "ticks": 230640,
          "time": 274.57163449999996,
          "velocity": 0.33858267716535434
        },
        {
          "duration": 0.11904770833336897,
          "durationTicks": 100,
          "midi": 82,
          "name": "A#5",
          "ticks": 230640,
          "time": 274.57163449999996,
          "velocity": 0.2677165354330709
        },
        {
          "duration": 0.2857144999999832,
          "durationTicks": 240,
          "midi": 39,
          "name": "D#2",
          "ticks": 230760,
          "time": 274.71449175,
          "velocity": 0.36220472440944884
        },
        {
          "duration": 0.14285725000002003,
          "durationTicks": 120,
          "midi": 59,
          "name": "B3",
          "ticks": 231000,
          "time": 275.00020624999996,
          "velocity": 0.2440944881889764
        },
        {
          "duration": 0.3095240416666911,
          "durationTicks": 260,
          "midi": 32,
          "name": "G#1",
          "ticks": 231120,
          "time": 275.1430635,
          "velocity": 0.4015748031496063
        },
        {
          "duration": 0.3095240416666911,
          "durationTicks": 260,
          "midi": 44,
          "name": "G#2",
          "ticks": 231120,
          "time": 275.1430635,
          "velocity": 0.4251968503937008
        },
        {
          "duration": 0.3095240416666911,
          "durationTicks": 260,
          "midi": 56,
          "name": "G#3",
          "ticks": 231120,
          "time": 275.1430635,
          "velocity": 0.4251968503937008
        },
        {
          "duration": 0.3095240416666911,
          "durationTicks": 260,
          "midi": 63,
          "name": "D#4",
          "ticks": 231120,
          "time": 275.1430635,
          "velocity": 0.29133858267716534
        },
        {
          "duration": 0.14285725000002003,
          "durationTicks": 120,
          "midi": 32,
          "name": "G#1",
          "ticks": 231360,
          "time": 275.42877799999997,
          "velocity": 0.3858267716535433
        },
        {
          "duration": 0.14285725000002003,
          "durationTicks": 120,
          "midi": 39,
          "name": "D#2",
          "ticks": 231360,
          "time": 275.42877799999997,
          "velocity": 0.29133858267716534
        },
        {
          "duration": 0.14285725000002003,
          "durationTicks": 120,
          "midi": 44,
          "name": "G#2",
          "ticks": 231360,
          "time": 275.42877799999997,
          "velocity": 0.4015748031496063
        },
        {
          "duration": 0.14285725000002003,
          "durationTicks": 120,
          "midi": 59,
          "name": "B3",
          "ticks": 231360,
          "time": 275.42877799999997,
          "velocity": 0.29133858267716534
        },
        {
          "duration": 0.14285725000002003,
          "durationTicks": 120,
          "midi": 68,
          "name": "G#4",
          "ticks": 231360,
          "time": 275.42877799999997,
          "velocity": 0.2755905511811024
        },
        {
          "duration": 0.14285725000002003,
          "durationTicks": 120,
          "midi": 71,
          "name": "B4",
          "ticks": 231360,
          "time": 275.42877799999997,
          "velocity": 0.29133858267716534
        },
        {
          "duration": 0.14285725000002003,
          "durationTicks": 120,
          "midi": 44,
          "name": "G#2",
          "ticks": 231480,
          "time": 275.57163525,
          "velocity": 0.3464566929133858
        },
        {
          "duration": 0.1428572499999632,
          "durationTicks": 120,
          "midi": 39,
          "name": "D#2",
          "ticks": 231600,
          "time": 275.7144925,
          "velocity": 0.36220472440944884
        },
        {
          "duration": 0.1428572499999632,
          "durationTicks": 120,
          "midi": 54,
          "name": "F#3",
          "ticks": 231600,
          "time": 275.7144925,
          "velocity": 0.2440944881889764
        },
        {
          "duration": 0.1428572499999632,
          "durationTicks": 120,
          "midi": 63,
          "name": "D#4",
          "ticks": 231600,
          "time": 275.7144925,
          "velocity": 0.2440944881889764
        },
        {
          "duration": 0.14285725000002003,
          "durationTicks": 120,
          "midi": 39,
          "name": "D#2",
          "ticks": 231720,
          "time": 275.85734974999997,
          "velocity": 0.44881889763779526
        },
        {
          "duration": 0.14285725000002003,
          "durationTicks": 120,
          "midi": 58,
          "name": "A#3",
          "ticks": 231720,
          "time": 275.85734974999997,
          "velocity": 0.3700787401574803
        },
        {
          "duration": 0.14285725000002003,
          "durationTicks": 120,
          "midi": 32,
          "name": "G#1",
          "ticks": 231840,
          "time": 276.000207,
          "velocity": 0.3228346456692913
        },
        {
          "duration": 0.14285725000002003,
          "durationTicks": 120,
          "midi": 44,
          "name": "G#2",
          "ticks": 231840,
          "time": 276.000207,
          "velocity": 0.3228346456692913
        },
        {
          "duration": 0.14285725000002003,
          "durationTicks": 120,
          "midi": 56,
          "name": "G#3",
          "ticks": 231840,
          "time": 276.000207,
          "velocity": 0.4015748031496063
        },
        {
          "duration": 0.14285725000002003,
          "durationTicks": 120,
          "midi": 63,
          "name": "D#4",
          "ticks": 231840,
          "time": 276.000207,
          "velocity": 0.2440944881889764
        },
        {
          "duration": 0.1666667916666711,
          "durationTicks": 140,
          "midi": 59,
          "name": "B3",
          "ticks": 231960,
          "time": 276.14306425,
          "velocity": 0.4015748031496063
        },
        {
          "duration": 0.14285725000002003,
          "durationTicks": 120,
          "midi": 39,
          "name": "D#2",
          "ticks": 232080,
          "time": 276.2859215,
          "velocity": 0.36220472440944884
        },
        {
          "duration": 0.14285725000002003,
          "durationTicks": 120,
          "midi": 40,
          "name": "E2",
          "ticks": 232080,
          "time": 276.2859215,
          "velocity": 0.2992125984251969
        },
        {
          "duration": 0.14285725000002003,
          "durationTicks": 120,
          "midi": 44,
          "name": "G#2",
          "ticks": 232080,
          "time": 276.2859215,
          "velocity": 0.41732283464566927
        },
        {
          "duration": 0.11904770833331213,
          "durationTicks": 100,
          "midi": 44,
          "name": "G#2",
          "ticks": 232200,
          "time": 276.42877875,
          "velocity": 0.2992125984251969
        },
        {
          "duration": 0.11904770833331213,
          "durationTicks": 100,
          "midi": 68,
          "name": "G#4",
          "ticks": 232200,
          "time": 276.42877875,
          "velocity": 0.6771653543307087
        },
        {
          "duration": 0.28571450000004006,
          "durationTicks": 240,
          "midi": 33,
          "name": "A1",
          "ticks": 232320,
          "time": 276.57163599999996,
          "velocity": 0.4251968503937008
        },
        {
          "duration": 0.28571450000004006,
          "durationTicks": 240,
          "midi": 45,
          "name": "A2",
          "ticks": 232320,
          "time": 276.57163599999996,
          "velocity": 0.4251968503937008
        },
        {
          "duration": 0.28571450000004006,
          "durationTicks": 240,
          "midi": 56,
          "name": "G#3",
          "ticks": 232320,
          "time": 276.57163599999996,
          "velocity": 0.4409448818897638
        },
        {
          "duration": 0.28571450000004006,
          "durationTicks": 240,
          "midi": 60,
          "name": "C4",
          "ticks": 232320,
          "time": 276.57163599999996,
          "velocity": 0.2440944881889764
        },
        {
          "duration": 0.28571450000004006,
          "durationTicks": 240,
          "midi": 64,
          "name": "E4",
          "ticks": 232320,
          "time": 276.57163599999996,
          "velocity": 0.2677165354330709
        },
        {
          "duration": 0.1428572499999632,
          "durationTicks": 120,
          "midi": 55,
          "name": "G3",
          "ticks": 232560,
          "time": 276.8573505,
          "velocity": 0.25196850393700787
        },
        {
          "duration": 0.19047633333332215,
          "durationTicks": 160,
          "midi": 56,
          "name": "G#3",
          "ticks": 232560,
          "time": 276.8573505,
          "velocity": 0.4330708661417323
        },
        {
          "duration": 0.1428572499999632,
          "durationTicks": 120,
          "midi": 64,
          "name": "E4",
          "ticks": 232560,
          "time": 276.8573505,
          "velocity": 0.4015748031496063
        },
        {
          "duration": 0.1428572499999632,
          "durationTicks": 120,
          "midi": 68,
          "name": "G#4",
          "ticks": 232560,
          "time": 276.8573505,
          "velocity": 0.41732283464566927
        },
        {
          "duration": 0.16666679166672793,
          "durationTicks": 140,
          "midi": 40,
          "name": "E2",
          "ticks": 232680,
          "time": 277.00020774999996,
          "velocity": 0.4566929133858268
        },
        {
          "duration": 0.16666679166672793,
          "durationTicks": 140,
          "midi": 60,
          "name": "C4",
          "ticks": 232680,
          "time": 277.00020774999996,
          "velocity": 0.25984251968503935
        },
        {
          "duration": 0.14285725000002003,
          "durationTicks": 120,
          "midi": 60,
          "name": "C4",
          "ticks": 232800,
          "time": 277.143065,
          "velocity": 0.23622047244094488
        },
        {
          "duration": 0.14285725000002003,
          "durationTicks": 120,
          "midi": 64,
          "name": "E4",
          "ticks": 232800,
          "time": 277.143065,
          "velocity": 0.3228346456692913
        },
        {
          "duration": 0.09523816666666107,
          "durationTicks": 80,
          "midi": 66,
          "name": "F#4",
          "ticks": 232800,
          "time": 277.143065,
          "velocity": 0.3228346456692913
        },
        {
          "duration": 0.14285725000002003,
          "durationTicks": 120,
          "midi": 68,
          "name": "G#4",
          "ticks": 232800,
          "time": 277.143065,
          "velocity": 0.4015748031496063
        },
        {
          "duration": 0.1428572499999632,
          "durationTicks": 120,
          "midi": 40,
          "name": "E2",
          "ticks": 232920,
          "time": 277.28592225,
          "velocity": 0.3464566929133858
        },
        {
          "duration": 0.26190495833333216,
          "durationTicks": 220,
          "midi": 46,
          "name": "A#2",
          "ticks": 233040,
          "time": 277.42877949999996,
          "velocity": 0.3464566929133858
        },
        {
          "duration": 0.26190495833333216,
          "durationTicks": 220,
          "midi": 47,
          "name": "B2",
          "ticks": 233040,
          "time": 277.42877949999996,
          "velocity": 0.29133858267716534
        },
        {
          "duration": 0.26190495833333216,
          "durationTicks": 220,
          "midi": 54,
          "name": "F#3",
          "ticks": 233040,
          "time": 277.42877949999996,
          "velocity": 0.2755905511811024
        },
        {
          "duration": 0.26190495833333216,
          "durationTicks": 220,
          "midi": 60,
          "name": "C4",
          "ticks": 233040,
          "time": 277.42877949999996,
          "velocity": 0.2755905511811024
        },
        {
          "duration": 0.26190495833333216,
          "durationTicks": 220,
          "midi": 64,
          "name": "E4",
          "ticks": 233040,
          "time": 277.42877949999996,
          "velocity": 0.3937007874015748
        },
        {
          "duration": 0.2857144999999832,
          "durationTicks": 240,
          "midi": 45,
          "name": "A2",
          "ticks": 233280,
          "time": 277.714494,
          "velocity": 0.4015748031496063
        },
        {
          "duration": 0.2857144999999832,
          "durationTicks": 240,
          "midi": 60,
          "name": "C4",
          "ticks": 233280,
          "time": 277.714494,
          "velocity": 0.2755905511811024
        },
        {
          "duration": 0.2857144999999832,
          "durationTicks": 240,
          "midi": 64,
          "name": "E4",
          "ticks": 233280,
          "time": 277.714494,
          "velocity": 0.4409448818897638
        },
        {
          "duration": 0.14285725000002003,
          "durationTicks": 120,
          "midi": 45,
          "name": "A2",
          "ticks": 233520,
          "time": 278.0002085,
          "velocity": 0.44881889763779526
        },
        {
          "duration": 0.14285725000002003,
          "durationTicks": 120,
          "midi": 54,
          "name": "F#3",
          "ticks": 233520,
          "time": 278.0002085,
          "velocity": 0.25984251968503935
        },
        {
          "duration": 0.1428572499999632,
          "durationTicks": 120,
          "midi": 40,
          "name": "E2",
          "ticks": 233640,
          "time": 278.14306575,
          "velocity": 0.4094488188976378
        },
        {
          "duration": 0.1428572499999632,
          "durationTicks": 120,
          "midi": 47,
          "name": "B2",
          "ticks": 233640,
          "time": 278.14306575,
          "velocity": 0.3464566929133858
        },
        {
          "duration": 0.14285725000002003,
          "durationTicks": 120,
          "midi": 56,
          "name": "G#3",
          "ticks": 233760,
          "time": 278.28592299999997,
          "velocity": 0.5590551181102362
        },
        {
          "duration": 0.14285725000002003,
          "durationTicks": 120,
          "midi": 60,
          "name": "C4",
          "ticks": 233760,
          "time": 278.28592299999997,
          "velocity": 0.30708661417322836
        },
        {
          "duration": 0.1666667916666711,
          "durationTicks": 140,
          "midi": 45,
          "name": "A2",
          "ticks": 233880,
          "time": 278.42878025,
          "velocity": 0.36220472440944884
        },
        {
          "duration": 0.11904770833331213,
          "durationTicks": 100,
          "midi": 64,
          "name": "E4",
          "ticks": 233880,
          "time": 278.42878025,
          "velocity": 0.33858267716535434
        },
        {
          "duration": 0.2857144999999832,
          "durationTicks": 240,
          "midi": 45,
          "name": "A2",
          "ticks": 234000,
          "time": 278.5716375,
          "velocity": 0.5039370078740157
        },
        {
          "duration": 0.2857144999999832,
          "durationTicks": 240,
          "midi": 47,
          "name": "B2",
          "ticks": 234000,
          "time": 278.5716375,
          "velocity": 0.2283464566929134
        },
        {
          "duration": 0.2857144999999832,
          "durationTicks": 240,
          "midi": 47,
          "name": "B2",
          "ticks": 234240,
          "time": 278.857352,
          "velocity": 0.48031496062992124
        },
        {
          "duration": 0.2857144999999832,
          "durationTicks": 240,
          "midi": 56,
          "name": "G#3",
          "ticks": 234240,
          "time": 278.857352,
          "velocity": 0.6692913385826772
        },
        {
          "duration": 0.2857144999999832,
          "durationTicks": 240,
          "midi": 59,
          "name": "B3",
          "ticks": 234240,
          "time": 278.857352,
          "velocity": 0.48031496062992124
        },
        {
          "duration": 0.2857144999999832,
          "durationTicks": 240,
          "midi": 64,
          "name": "E4",
          "ticks": 234240,
          "time": 278.857352,
          "velocity": 0.33070866141732286
        },
        {
          "duration": 0.14285725000002003,
          "durationTicks": 120,
          "midi": 47,
          "name": "B2",
          "ticks": 234480,
          "time": 279.1430665,
          "velocity": 0.3464566929133858
        },
        {
          "duration": 0.14285725000002003,
          "durationTicks": 120,
          "midi": 52,
          "name": "E3",
          "ticks": 234480,
          "time": 279.1430665,
          "velocity": 0.33070866141732286
        },
        {
          "duration": 0.1666667916666711,
          "durationTicks": 140,
          "midi": 44,
          "name": "G#2",
          "ticks": 234600,
          "time": 279.28592375,
          "velocity": 0.5118110236220472
        },
        {
          "duration": 0.28571450000004006,
          "durationTicks": 240,
          "midi": 56,
          "name": "G#3",
          "ticks": 234720,
          "time": 279.42878099999996,
          "velocity": 0.5354330708661418
        },
        {
          "duration": 0.26190495833333216,
          "durationTicks": 220,
          "midi": 47,
          "name": "B2",
          "ticks": 234960,
          "time": 279.7144955,
          "velocity": 0.48031496062992124
        },
        {
          "duration": 0.26190495833333216,
          "durationTicks": 220,
          "midi": 68,
          "name": "G#4",
          "ticks": 234960,
          "time": 279.7144955,
          "velocity": 0.5196850393700787
        },
        {
          "duration": 0.3095240416666911,
          "durationTicks": 260,
          "midi": 47,
          "name": "B2",
          "ticks": 235200,
          "time": 280.00021,
          "velocity": 0.4015748031496063
        },
        {
          "duration": 0.26190495833333216,
          "durationTicks": 220,
          "midi": 49,
          "name": "C#3",
          "ticks": 235200,
          "time": 280.00021,
          "velocity": 0.31496062992125984
        },
        {
          "duration": 0.3095240416666911,
          "durationTicks": 260,
          "midi": 61,
          "name": "C#4",
          "ticks": 235200,
          "time": 280.00021,
          "velocity": 0.2204724409448819
        },
        {
          "duration": 0.3095240416666911,
          "durationTicks": 260,
          "midi": 63,
          "name": "D#4",
          "ticks": 235200,
          "time": 280.00021,
          "velocity": 0.25984251968503935
        },
        {
          "duration": 0.3095240416666911,
          "durationTicks": 260,
          "midi": 85,
          "name": "C#6",
          "ticks": 235200,
          "time": 280.00021,
          "velocity": 0.5275590551181102
        },
        {
          "duration": 0.1666667916666711,
          "durationTicks": 140,
          "midi": 35,
          "name": "B1",
          "ticks": 235440,
          "time": 280.28592449999996,
          "velocity": 0.3464566929133858
        },
        {
          "duration": 0.1666667916666711,
          "durationTicks": 140,
          "midi": 47,
          "name": "B2",
          "ticks": 235440,
          "time": 280.28592449999996,
          "velocity": 0.3464566929133858
        },
        {
          "duration": 0.1666667916666711,
          "durationTicks": 140,
          "midi": 71,
          "name": "B4",
          "ticks": 235440,
          "time": 280.28592449999996,
          "velocity": 0.3858267716535433
        },
        {
          "duration": 0.14285725000002003,
          "durationTicks": 120,
          "midi": 44,
          "name": "G#2",
          "ticks": 235560,
          "time": 280.42878175,
          "velocity": 0.4251968503937008
        },
        {
          "duration": 0.14285725000002003,
          "durationTicks": 120,
          "midi": 68,
          "name": "G#4",
          "ticks": 235560,
          "time": 280.42878175,
          "velocity": 0.3464566929133858
        },
        {
          "duration": 0.2619049583332753,
          "durationTicks": 220,
          "midi": 43,
          "name": "G2",
          "ticks": 235680,
          "time": 280.571639,
          "velocity": 0.44881889763779526
        },
        {
          "duration": 0.3095240416666343,
          "durationTicks": 260,
          "midi": 67,
          "name": "G4",
          "ticks": 235680,
          "time": 280.571639,
          "velocity": 0.33070866141732286
        },
        {
          "duration": 0.14285725000002003,
          "durationTicks": 120,
          "midi": 45,
          "name": "A2",
          "ticks": 235920,
          "time": 280.8573535,
          "velocity": 0.33858267716535434
        },
        {
          "duration": 0.14285725000002003,
          "durationTicks": 120,
          "midi": 68,
          "name": "G#4",
          "ticks": 235920,
          "time": 280.8573535,
          "velocity": 0.29133858267716534
        },
        {
          "duration": 0.1666667916666711,
          "durationTicks": 140,
          "midi": 67,
          "name": "G4",
          "ticks": 236040,
          "time": 281.00021075,
          "velocity": 0.4015748031496063
        },
        {
          "duration": 0.2857144999999832,
          "durationTicks": 240,
          "midi": 30,
          "name": "F#1",
          "ticks": 236160,
          "time": 281.14306799999997,
          "velocity": 0.5039370078740157
        },
        {
          "duration": 0.2857144999999832,
          "durationTicks": 240,
          "midi": 42,
          "name": "F#2",
          "ticks": 236160,
          "time": 281.14306799999997,
          "velocity": 0.5039370078740157
        },
        {
          "duration": 0.2857144999999832,
          "durationTicks": 240,
          "midi": 57,
          "name": "A3",
          "ticks": 236160,
          "time": 281.14306799999997,
          "velocity": 0.30708661417322836
        },
        {
          "duration": 0.2857144999999832,
          "durationTicks": 240,
          "midi": 61,
          "name": "C#4",
          "ticks": 236160,
          "time": 281.14306799999997,
          "velocity": 0.30708661417322836
        },
        {
          "duration": 0.2857144999999832,
          "durationTicks": 240,
          "midi": 66,
          "name": "F#4",
          "ticks": 236160,
          "time": 281.14306799999997,
          "velocity": 0.31496062992125984
        },
        {
          "duration": 0.2857144999999832,
          "durationTicks": 240,
          "midi": 69,
          "name": "A4",
          "ticks": 236160,
          "time": 281.14306799999997,
          "velocity": 0.30708661417322836
        },
        {
          "duration": 0.14285725000002003,
          "durationTicks": 120,
          "midi": 42,
          "name": "F#2",
          "ticks": 236400,
          "time": 281.42878249999995,
          "velocity": 0.41732283464566927
        },
        {
          "duration": 0.14285725000002003,
          "durationTicks": 120,
          "midi": 37,
          "name": "C#2",
          "ticks": 236520,
          "time": 281.57163975,
          "velocity": 0.5275590551181102
        },
        {
          "duration": 0.1428572499999632,
          "durationTicks": 120,
          "midi": 42,
          "name": "F#2",
          "ticks": 236640,
          "time": 281.714497,
          "velocity": 0.3543307086614173
        },
        {
          "duration": 0.1428572499999632,
          "durationTicks": 120,
          "midi": 61,
          "name": "C#4",
          "ticks": 236640,
          "time": 281.714497,
          "velocity": 0.7244094488188977
        },
        {
          "duration": 0.14285725000002003,
          "durationTicks": 120,
          "midi": 52,
          "name": "E3",
          "ticks": 236760,
          "time": 281.85735424999996,
          "velocity": 0.2677165354330709
        },
        {
          "duration": 0.26190495833333216,
          "durationTicks": 220,
          "midi": 42,
          "name": "F#2",
          "ticks": 236880,
          "time": 282.0002115,
          "velocity": 0.28346456692913385
        },
        {
          "duration": 0.26190495833333216,
          "durationTicks": 220,
          "midi": 66,
          "name": "F#4",
          "ticks": 236880,
          "time": 282.0002115,
          "velocity": 0.47244094488188976
        },
        {
          "duration": 0.28571450000004006,
          "durationTicks": 240,
          "midi": 42,
          "name": "F#2",
          "ticks": 237120,
          "time": 282.28592599999996,
          "velocity": 0.4094488188976378
        },
        {
          "duration": 0.28571450000004006,
          "durationTicks": 240,
          "midi": 52,
          "name": "E3",
          "ticks": 237120,
          "time": 282.28592599999996,
          "velocity": 0.28346456692913385
        },
        {
          "duration": 0.28571450000004006,
          "durationTicks": 240,
          "midi": 61,
          "name": "C#4",
          "ticks": 237120,
          "time": 282.28592599999996,
          "velocity": 0.2677165354330709
        },
        {
          "duration": 0.28571450000004006,
          "durationTicks": 240,
          "midi": 64,
          "name": "E4",
          "ticks": 237120,
          "time": 282.28592599999996,
          "velocity": 0.28346456692913385
        },
        {
          "duration": 0.28571450000004006,
          "durationTicks": 240,
          "midi": 68,
          "name": "G#4",
          "ticks": 237120,
          "time": 282.28592599999996,
          "velocity": 0.41732283464566927
        },
        {
          "duration": 0.28571450000004006,
          "durationTicks": 240,
          "midi": 73,
          "name": "C#5",
          "ticks": 237120,
          "time": 282.28592599999996,
          "velocity": 0.2047244094488189
        },
        {
          "duration": 0.28571450000004006,
          "durationTicks": 240,
          "midi": 83,
          "name": "B5",
          "ticks": 237120,
          "time": 282.28592599999996,
          "velocity": 0.31496062992125984
        },
        {
          "duration": 0.1428572499999632,
          "durationTicks": 120,
          "midi": 37,
          "name": "C#2",
          "ticks": 237360,
          "time": 282.5716405,
          "velocity": 0.3464566929133858
        },
        {
          "duration": 0.14285725000002003,
          "durationTicks": 120,
          "midi": 52,
          "name": "E3",
          "ticks": 237480,
          "time": 282.71449774999996,
          "velocity": 0.2992125984251969
        },
        {
          "duration": 0.14285725000002003,
          "durationTicks": 120,
          "midi": 57,
          "name": "A3",
          "ticks": 237480,
          "time": 282.71449774999996,
          "velocity": 0.33070866141732286
        },
        {
          "duration": 0.14285725000002003,
          "durationTicks": 120,
          "midi": 30,
          "name": "F#1",
          "ticks": 237600,
          "time": 282.857355,
          "velocity": 0.33070866141732286
        },
        {
          "duration": 0.11904770833331213,
          "durationTicks": 100,
          "midi": 68,
          "name": "G#4",
          "ticks": 237720,
          "time": 283.00021225,
          "velocity": 0.6299212598425197
        },
        {
          "duration": 0.14285725000002003,
          "durationTicks": 120,
          "midi": 30,
          "name": "F#1",
          "ticks": 237840,
          "time": 283.14306949999997,
          "velocity": 0.30708661417322836
        },
        {
          "duration": 0.14285725000002003,
          "durationTicks": 120,
          "midi": 42,
          "name": "F#2",
          "ticks": 237840,
          "time": 283.14306949999997,
          "velocity": 0.2755905511811024
        },
        {
          "duration": 0.14285725000002003,
          "durationTicks": 120,
          "midi": 52,
          "name": "E3",
          "ticks": 237840,
          "time": 283.14306949999997,
          "velocity": 0.25984251968503935
        },
        {
          "duration": 0.07142862500001002,
          "durationTicks": 60,
          "midi": 70,
          "name": "A#4",
          "ticks": 237960,
          "time": 283.28592675,
          "velocity": 0.2283464566929134
        },
        {
          "duration": 0.2857144999999832,
          "durationTicks": 240,
          "midi": 32,
          "name": "G#1",
          "ticks": 238080,
          "time": 283.428784,
          "velocity": 0.5275590551181102
        },
        {
          "duration": 0.2857144999999832,
          "durationTicks": 240,
          "midi": 44,
          "name": "G#2",
          "ticks": 238080,
          "time": 283.428784,
          "velocity": 0.47244094488188976
        },
        {
          "duration": 0.2857144999999832,
          "durationTicks": 240,
          "midi": 56,
          "name": "G#3",
          "ticks": 238080,
          "time": 283.428784,
          "velocity": 0.2283464566929134
        },
        {
          "duration": 0.2857144999999832,
          "durationTicks": 240,
          "midi": 58,
          "name": "A#3",
          "ticks": 238080,
          "time": 283.428784,
          "velocity": 0.2992125984251969
        },
        {
          "duration": 0.2857144999999832,
          "durationTicks": 240,
          "midi": 59,
          "name": "B3",
          "ticks": 238080,
          "time": 283.428784,
          "velocity": 0.4094488188976378
        },
        {
          "duration": 0.2857144999999832,
          "durationTicks": 240,
          "midi": 61,
          "name": "C#4",
          "ticks": 238080,
          "time": 283.428784,
          "velocity": 0.28346456692913385
        },
        {
          "duration": 0.2857144999999832,
          "durationTicks": 240,
          "midi": 82,
          "name": "A#5",
          "ticks": 238080,
          "time": 283.428784,
          "velocity": 0.23622047244094488
        },
        {
          "duration": 0.14285725000002003,
          "durationTicks": 120,
          "midi": 54,
          "name": "F#3",
          "ticks": 238320,
          "time": 283.7144985,
          "velocity": 0.25196850393700787
        },
        {
          "duration": 0.14285725000002003,
          "durationTicks": 120,
          "midi": 58,
          "name": "A#3",
          "ticks": 238320,
          "time": 283.7144985,
          "velocity": 0.30708661417322836
        },
        {
          "duration": 0.14285725000002003,
          "durationTicks": 120,
          "midi": 61,
          "name": "C#4",
          "ticks": 238320,
          "time": 283.7144985,
          "velocity": 0.6929133858267716
        },
        {
          "duration": 0.2619049583332753,
          "durationTicks": 220,
          "midi": 39,
          "name": "D#2",
          "ticks": 238440,
          "time": 283.85735575,
          "velocity": 0.4015748031496063
        },
        {
          "duration": 0.2619049583332753,
          "durationTicks": 220,
          "midi": 58,
          "name": "A#3",
          "ticks": 238440,
          "time": 283.85735575,
          "velocity": 0.36220472440944884
        },
        {
          "duration": 0.2619049583332753,
          "durationTicks": 220,
          "midi": 63,
          "name": "D#4",
          "ticks": 238440,
          "time": 283.85735575,
          "velocity": 0.2125984251968504
        },
        {
          "duration": 0.11904770833331213,
          "durationTicks": 100,
          "midi": 54,
          "name": "F#3",
          "ticks": 238680,
          "time": 284.14307025,
          "velocity": 0.2755905511811024
        },
        {
          "duration": 0.1428572499999632,
          "durationTicks": 120,
          "midi": 59,
          "name": "B3",
          "ticks": 238680,
          "time": 284.14307025,
          "velocity": 0.2755905511811024
        },
        {
          "duration": 0.11904770833331213,
          "durationTicks": 100,
          "midi": 62,
          "name": "D4",
          "ticks": 238680,
          "time": 284.14307025,
          "velocity": 0.2755905511811024
        },
        {
          "duration": 0.16666679166672793,
          "durationTicks": 140,
          "midi": 44,
          "name": "G#2",
          "ticks": 238800,
          "time": 284.28592749999996,
          "velocity": 0.3464566929133858
        },
        {
          "duration": 0.16666679166672793,
          "durationTicks": 140,
          "midi": 63,
          "name": "D#4",
          "ticks": 238800,
          "time": 284.28592749999996,
          "velocity": 0.25984251968503935
        },
        {
          "duration": 0.16666679166672793,
          "durationTicks": 140,
          "midi": 66,
          "name": "F#4",
          "ticks": 238800,
          "time": 284.28592749999996,
          "velocity": 0.33070866141732286
        },
        {
          "duration": 0.14285725000002003,
          "durationTicks": 120,
          "midi": 63,
          "name": "D#4",
          "ticks": 238920,
          "time": 284.42878475,
          "velocity": 0.23622047244094488
        },
        {
          "duration": 0.14285725000002003,
          "durationTicks": 120,
          "midi": 66,
          "name": "F#4",
          "ticks": 238920,
          "time": 284.42878475,
          "velocity": 0.30708661417322836
        },
        {
          "duration": 0.1666667916666711,
          "durationTicks": 140,
          "midi": 68,
          "name": "G#4",
          "ticks": 239040,
          "time": 284.571642,
          "velocity": 0.3858267716535433
        },
        {
          "duration": 0.11904770833331213,
          "durationTicks": 100,
          "midi": 71,
          "name": "B4",
          "ticks": 239040,
          "time": 284.571642,
          "velocity": 0.25984251968503935
        },
        {
          "duration": 0.14285725000002003,
          "durationTicks": 120,
          "midi": 44,
          "name": "G#2",
          "ticks": 239160,
          "time": 284.71449924999996,
          "velocity": 0.4566929133858268
        },
        {
          "duration": 0.1666667916666711,
          "durationTicks": 140,
          "midi": 39,
          "name": "D#2",
          "ticks": 239280,
          "time": 284.8573565,
          "velocity": 0.3779527559055118
        },
        {
          "duration": 0.1666667916666711,
          "durationTicks": 140,
          "midi": 54,
          "name": "F#3",
          "ticks": 239280,
          "time": 284.8573565,
          "velocity": 0.25984251968503935
        },
        {
          "duration": 0.1666667916666711,
          "durationTicks": 140,
          "midi": 63,
          "name": "D#4",
          "ticks": 239280,
          "time": 284.8573565,
          "velocity": 0.31496062992125984
        },
        {
          "duration": 0.1666667916666711,
          "durationTicks": 140,
          "midi": 66,
          "name": "F#4",
          "ticks": 239280,
          "time": 284.8573565,
          "velocity": 0.25984251968503935
        },
        {
          "duration": 0.1428572499999632,
          "durationTicks": 120,
          "midi": 58,
          "name": "A#3",
          "ticks": 239400,
          "time": 285.00021375,
          "velocity": 0.33858267716535434
        },
        {
          "duration": 0.14285725000002003,
          "durationTicks": 120,
          "midi": 32,
          "name": "G#1",
          "ticks": 239520,
          "time": 285.14307099999996,
          "velocity": 0.4566929133858268
        },
        {
          "duration": 0.14285725000002003,
          "durationTicks": 120,
          "midi": 44,
          "name": "G#2",
          "ticks": 239520,
          "time": 285.14307099999996,
          "velocity": 0.4566929133858268
        },
        {
          "duration": 0.14285725000002003,
          "durationTicks": 120,
          "midi": 59,
          "name": "B3",
          "ticks": 239520,
          "time": 285.14307099999996,
          "velocity": 0.2677165354330709
        },
        {
          "duration": 0.14285725000002003,
          "durationTicks": 120,
          "midi": 63,
          "name": "D#4",
          "ticks": 239520,
          "time": 285.14307099999996,
          "velocity": 0.25984251968503935
        },
        {
          "duration": 0.11904770833331213,
          "durationTicks": 100,
          "midi": 59,
          "name": "B3",
          "ticks": 239640,
          "time": 285.28592825,
          "velocity": 0.47244094488188976
        },
        {
          "duration": 0.11904770833331213,
          "durationTicks": 100,
          "midi": 63,
          "name": "D#4",
          "ticks": 239640,
          "time": 285.28592825,
          "velocity": 0.2677165354330709
        },
        {
          "duration": 0.1428572499999632,
          "durationTicks": 120,
          "midi": 39,
          "name": "D#2",
          "ticks": 239760,
          "time": 285.4287855,
          "velocity": 0.41732283464566927
        },
        {
          "duration": 0.1428572499999632,
          "durationTicks": 120,
          "midi": 40,
          "name": "E2",
          "ticks": 239760,
          "time": 285.4287855,
          "velocity": 0.4409448818897638
        },
        {
          "duration": 0.1428572499999632,
          "durationTicks": 120,
          "midi": 44,
          "name": "G#2",
          "ticks": 239760,
          "time": 285.4287855,
          "velocity": 0.3937007874015748
        },
        {
          "duration": 0.1428572499999632,
          "durationTicks": 120,
          "midi": 78,
          "name": "F#5",
          "ticks": 239760,
          "time": 285.4287855,
          "velocity": 0.2204724409448819
        },
        {
          "duration": 0.11904770833331213,
          "durationTicks": 100,
          "midi": 39,
          "name": "D#2",
          "ticks": 239880,
          "time": 285.57164274999997,
          "velocity": 0.3937007874015748
        },
        {
          "duration": 0.11904770833331213,
          "durationTicks": 100,
          "midi": 44,
          "name": "G#2",
          "ticks": 239880,
          "time": 285.57164274999997,
          "velocity": 0.33858267716535434
        },
        {
          "duration": 0.11904770833331213,
          "durationTicks": 100,
          "midi": 63,
          "name": "D#4",
          "ticks": 239880,
          "time": 285.57164274999997,
          "velocity": 0.31496062992125984
        },
        {
          "duration": 0.42857175000000325,
          "durationTicks": 360,
          "midi": 33,
          "name": "A1",
          "ticks": 240000,
          "time": 285.7145,
          "velocity": 0.44881889763779526
        },
        {
          "duration": 0.42857175000000325,
          "durationTicks": 360,
          "midi": 56,
          "name": "G#3",
          "ticks": 240000,
          "time": 285.7145,
          "velocity": 0.5984251968503937
        },
        {
          "duration": 0.42857175000000325,
          "durationTicks": 360,
          "midi": 60,
          "name": "C4",
          "ticks": 240000,
          "time": 285.7145,
          "velocity": 0.25984251968503935
        },
        {
          "duration": 0.42857175000000325,
          "durationTicks": 360,
          "midi": 64,
          "name": "E4",
          "ticks": 240000,
          "time": 285.7145,
          "velocity": 0.3464566929133858
        },
        {
          "duration": 0.42857175000000325,
          "durationTicks": 360,
          "midi": 76,
          "name": "E5",
          "ticks": 240000,
          "time": 285.7145,
          "velocity": 0.29133858267716534
        },
        {
          "duration": 0.11904770833331213,
          "durationTicks": 100,
          "midi": 40,
          "name": "E2",
          "ticks": 240360,
          "time": 286.14307175,
          "velocity": 0.4409448818897638
        },
        {
          "duration": 0.11904770833331213,
          "durationTicks": 100,
          "midi": 74,
          "name": "D5",
          "ticks": 240360,
          "time": 286.14307175,
          "velocity": 0.28346456692913385
        },
        {
          "duration": 0.1428572499999632,
          "durationTicks": 120,
          "midi": 45,
          "name": "A2",
          "ticks": 240480,
          "time": 286.285929,
          "velocity": 0.2992125984251969
        },
        {
          "duration": 0.11904770833331213,
          "durationTicks": 100,
          "midi": 64,
          "name": "E4",
          "ticks": 240600,
          "time": 286.42878625,
          "velocity": 0.5039370078740157
        },
        {
          "duration": 0.11904770833331213,
          "durationTicks": 100,
          "midi": 78,
          "name": "F#5",
          "ticks": 240600,
          "time": 286.42878625,
          "velocity": 0.33070866141732286
        },
        {
          "duration": 0.11904770833331213,
          "durationTicks": 100,
          "midi": 45,
          "name": "A2",
          "ticks": 240720,
          "time": 286.5716435,
          "velocity": 0.30708661417322836
        },
        {
          "duration": 0.09523816666666107,
          "durationTicks": 80,
          "midi": 46,
          "name": "A#2",
          "ticks": 240720,
          "time": 286.5716435,
          "velocity": 0.33858267716535434
        },
        {
          "duration": 0.14285725000002003,
          "durationTicks": 120,
          "midi": 47,
          "name": "B2",
          "ticks": 240840,
          "time": 286.71450074999996,
          "velocity": 0.3228346456692913
        },
        {
          "duration": 0.09523816666671792,
          "durationTicks": 80,
          "midi": 78,
          "name": "F#5",
          "ticks": 240840,
          "time": 286.71450074999996,
          "velocity": 0.3858267716535433
        },
        {
          "duration": 0.11904770833331213,
          "durationTicks": 100,
          "midi": 45,
          "name": "A2",
          "ticks": 240960,
          "time": 286.857358,
          "velocity": 0.4330708661417323
        },
        {
          "duration": 0.11904770833331213,
          "durationTicks": 100,
          "midi": 54,
          "name": "F#3",
          "ticks": 240960,
          "time": 286.857358,
          "velocity": 0.2755905511811024
        },
        {
          "duration": 0.11904770833331213,
          "durationTicks": 100,
          "midi": 64,
          "name": "E4",
          "ticks": 240960,
          "time": 286.857358,
          "velocity": 0.33858267716535434
        },
        {
          "duration": 0.1666667916666711,
          "durationTicks": 140,
          "midi": 66,
          "name": "F#4",
          "ticks": 240960,
          "time": 286.857358,
          "velocity": 0.3858267716535433
        },
        {
          "duration": 0.1428572499999632,
          "durationTicks": 120,
          "midi": 78,
          "name": "F#5",
          "ticks": 241080,
          "time": 287.00021525,
          "velocity": 0.3543307086614173
        },
        {
          "duration": 0.11904770833336897,
          "durationTicks": 100,
          "midi": 76,
          "name": "E5",
          "ticks": 241200,
          "time": 287.14307249999996,
          "velocity": 0.2755905511811024
        },
        {
          "duration": 0.14285725000002003,
          "durationTicks": 120,
          "midi": 40,
          "name": "E2",
          "ticks": 241320,
          "time": 287.28592975,
          "velocity": 0.4566929133858268
        },
        {
          "duration": 0.14285725000002003,
          "durationTicks": 120,
          "midi": 74,
          "name": "D5",
          "ticks": 241320,
          "time": 287.28592975,
          "velocity": 0.29133858267716534
        },
        {
          "duration": 0.11904770833331213,
          "durationTicks": 100,
          "midi": 54,
          "name": "F#3",
          "ticks": 241440,
          "time": 287.428787,
          "velocity": 0.3543307086614173
        },
        {
          "duration": 0.11904770833336897,
          "durationTicks": 100,
          "midi": 64,
          "name": "E4",
          "ticks": 241560,
          "time": 287.57164424999996,
          "velocity": 0.2755905511811024
        },
        {
          "duration": 0.11904770833336897,
          "durationTicks": 100,
          "midi": 74,
          "name": "D5",
          "ticks": 241560,
          "time": 287.57164424999996,
          "velocity": 0.2755905511811024
        },
        {
          "duration": 0.14285725000002003,
          "durationTicks": 120,
          "midi": 45,
          "name": "A2",
          "ticks": 241680,
          "time": 287.7145015,
          "velocity": 0.47244094488188976
        },
        {
          "duration": 0.11904770833331213,
          "durationTicks": 100,
          "midi": 69,
          "name": "A4",
          "ticks": 241800,
          "time": 287.85735875,
          "velocity": 0.30708661417322836
        },
        {
          "duration": 0.28571450000004006,
          "durationTicks": 240,
          "midi": 47,
          "name": "B2",
          "ticks": 241920,
          "time": 288.00021599999997,
          "velocity": 0.5196850393700787
        },
        {
          "duration": 0.28571450000004006,
          "durationTicks": 240,
          "midi": 56,
          "name": "G#3",
          "ticks": 241920,
          "time": 288.00021599999997,
          "velocity": 0.36220472440944884
        },
        {
          "duration": 0.28571450000004006,
          "durationTicks": 240,
          "midi": 59,
          "name": "B3",
          "ticks": 241920,
          "time": 288.00021599999997,
          "velocity": 0.2283464566929134
        },
        {
          "duration": 0.28571450000004006,
          "durationTicks": 240,
          "midi": 64,
          "name": "E4",
          "ticks": 241920,
          "time": 288.00021599999997,
          "velocity": 0.2047244094488189
        },
        {
          "duration": 0.28571450000004006,
          "durationTicks": 240,
          "midi": 68,
          "name": "G#4",
          "ticks": 241920,
          "time": 288.00021599999997,
          "velocity": 0.36220472440944884
        },
        {
          "duration": 0.28571450000004006,
          "durationTicks": 240,
          "midi": 71,
          "name": "B4",
          "ticks": 241920,
          "time": 288.00021599999997,
          "velocity": 0.2283464566929134
        },
        {
          "duration": 0.1428572499999632,
          "durationTicks": 120,
          "midi": 47,
          "name": "B2",
          "ticks": 242160,
          "time": 288.2859305,
          "velocity": 0.3858267716535433
        },
        {
          "duration": 0.1428572499999632,
          "durationTicks": 120,
          "midi": 52,
          "name": "E3",
          "ticks": 242160,
          "time": 288.2859305,
          "velocity": 0.31496062992125984
        },
        {
          "duration": 0.1428572499999632,
          "durationTicks": 120,
          "midi": 59,
          "name": "B3",
          "ticks": 242160,
          "time": 288.2859305,
          "velocity": 0.3228346456692913
        },
        {
          "duration": 0.1428572499999632,
          "durationTicks": 120,
          "midi": 64,
          "name": "E4",
          "ticks": 242160,
          "time": 288.2859305,
          "velocity": 0.31496062992125984
        },
        {
          "duration": 0.1428572499999632,
          "durationTicks": 120,
          "midi": 71,
          "name": "B4",
          "ticks": 242160,
          "time": 288.2859305,
          "velocity": 0.3228346456692913
        },
        {
          "duration": 0.1666667916666711,
          "durationTicks": 140,
          "midi": 44,
          "name": "G#2",
          "ticks": 242280,
          "time": 288.42878774999997,
          "velocity": 0.49606299212598426
        },
        {
          "duration": 0.11904770833331213,
          "durationTicks": 100,
          "midi": 56,
          "name": "G#3",
          "ticks": 242280,
          "time": 288.42878774999997,
          "velocity": 0.5511811023622047
        },
        {
          "duration": 0.11904770833331213,
          "durationTicks": 100,
          "midi": 59,
          "name": "B3",
          "ticks": 242280,
          "time": 288.42878774999997,
          "velocity": 0.30708661417322836
        },
        {
          "duration": 0.11904770833331213,
          "durationTicks": 100,
          "midi": 64,
          "name": "E4",
          "ticks": 242280,
          "time": 288.42878774999997,
          "velocity": 0.3228346456692913
        },
        {
          "duration": 0.14285725000002003,
          "durationTicks": 120,
          "midi": 44,
          "name": "G#2",
          "ticks": 242400,
          "time": 288.571645,
          "velocity": 0.5984251968503937
        },
        {
          "duration": 0.1666667916666711,
          "durationTicks": 140,
          "midi": 40,
          "name": "E2",
          "ticks": 242520,
          "time": 288.71450225,
          "velocity": 0.28346456692913385
        },
        {
          "duration": 0.1666667916666711,
          "durationTicks": 140,
          "midi": 59,
          "name": "B3",
          "ticks": 242520,
          "time": 288.71450225,
          "velocity": 0.29133858267716534
        },
        {
          "duration": 0.14285725000002003,
          "durationTicks": 120,
          "midi": 45,
          "name": "A2",
          "ticks": 242640,
          "time": 288.8573595,
          "velocity": 0.28346456692913385
        },
        {
          "duration": 0.14285725000002003,
          "durationTicks": 120,
          "midi": 47,
          "name": "B2",
          "ticks": 242640,
          "time": 288.8573595,
          "velocity": 0.3779527559055118
        },
        {
          "duration": 0.14285725000002003,
          "durationTicks": 120,
          "midi": 59,
          "name": "B3",
          "ticks": 242640,
          "time": 288.8573595,
          "velocity": 0.33858267716535434
        },
        {
          "duration": 0.14285725000002003,
          "durationTicks": 120,
          "midi": 61,
          "name": "C#4",
          "ticks": 242640,
          "time": 288.8573595,
          "velocity": 0.2677165354330709
        },
        {
          "duration": 0.14285725000002003,
          "durationTicks": 120,
          "midi": 64,
          "name": "E4",
          "ticks": 242640,
          "time": 288.8573595,
          "velocity": 0.2755905511811024
        },
        {
          "duration": 0.14285725000002003,
          "durationTicks": 120,
          "midi": 68,
          "name": "G#4",
          "ticks": 242640,
          "time": 288.8573595,
          "velocity": 0.3228346456692913
        },
        {
          "duration": 0.1428572499999632,
          "durationTicks": 120,
          "midi": 83,
          "name": "B5",
          "ticks": 242760,
          "time": 289.00021675,
          "velocity": 0.47244094488188976
        },
        {
          "duration": 0.11904770833336897,
          "durationTicks": 100,
          "midi": 49,
          "name": "C#3",
          "ticks": 242880,
          "time": 289.14307399999996,
          "velocity": 0.47244094488188976
        },
        {
          "duration": 0.11904770833336897,
          "durationTicks": 100,
          "midi": 59,
          "name": "B3",
          "ticks": 242880,
          "time": 289.14307399999996,
          "velocity": 0.2283464566929134
        },
        {
          "duration": 0.11904770833336897,
          "durationTicks": 100,
          "midi": 61,
          "name": "C#4",
          "ticks": 242880,
          "time": 289.14307399999996,
          "velocity": 0.33858267716535434
        },
        {
          "duration": 0.11904770833336897,
          "durationTicks": 100,
          "midi": 63,
          "name": "D#4",
          "ticks": 242880,
          "time": 289.14307399999996,
          "velocity": 0.25984251968503935
        },
        {
          "duration": 0.11904770833336897,
          "durationTicks": 100,
          "midi": 71,
          "name": "B4",
          "ticks": 242880,
          "time": 289.14307399999996,
          "velocity": 0.2204724409448819
        },
        {
          "duration": 0.11904770833336897,
          "durationTicks": 100,
          "midi": 85,
          "name": "C#6",
          "ticks": 242880,
          "time": 289.14307399999996,
          "velocity": 0.3937007874015748
        },
        {
          "duration": 0.14285725000002003,
          "durationTicks": 120,
          "midi": 75,
          "name": "D#5",
          "ticks": 243000,
          "time": 289.28593125,
          "velocity": 0.2440944881889764
        },
        {
          "duration": 0.11904770833331213,
          "durationTicks": 100,
          "midi": 49,
          "name": "C#3",
          "ticks": 243120,
          "time": 289.4287885,
          "velocity": 0.4330708661417323
        },
        {
          "duration": 0.11904770833331213,
          "durationTicks": 100,
          "midi": 59,
          "name": "B3",
          "ticks": 243120,
          "time": 289.4287885,
          "velocity": 0.41732283464566927
        },
        {
          "duration": 0.11904770833331213,
          "durationTicks": 100,
          "midi": 71,
          "name": "B4",
          "ticks": 243120,
          "time": 289.4287885,
          "velocity": 0.44881889763779526
        },
        {
          "duration": 0.14285725000002003,
          "durationTicks": 120,
          "midi": 44,
          "name": "G#2",
          "ticks": 243240,
          "time": 289.57164574999996,
          "velocity": 0.3937007874015748
        },
        {
          "duration": 0.14285725000002003,
          "durationTicks": 120,
          "midi": 68,
          "name": "G#4",
          "ticks": 243240,
          "time": 289.57164574999996,
          "velocity": 0.2677165354330709
        },
        {
          "duration": 0.11904770833331213,
          "durationTicks": 100,
          "midi": 43,
          "name": "G2",
          "ticks": 243360,
          "time": 289.714503,
          "velocity": 0.4330708661417323
        },
        {
          "duration": 0.11904770833331213,
          "durationTicks": 100,
          "midi": 67,
          "name": "G4",
          "ticks": 243360,
          "time": 289.714503,
          "velocity": 0.29133858267716534
        },
        {
          "duration": 0.1428572499999632,
          "durationTicks": 120,
          "midi": 49,
          "name": "C#3",
          "ticks": 243480,
          "time": 289.85736025,
          "velocity": 0.2992125984251969
        },
        {
          "duration": 0.1428572499999632,
          "durationTicks": 120,
          "midi": 54,
          "name": "F#3",
          "ticks": 243480,
          "time": 289.85736025,
          "velocity": 0.30708661417322836
        },
        {
          "duration": 0.1428572499999632,
          "durationTicks": 120,
          "midi": 59,
          "name": "B3",
          "ticks": 243480,
          "time": 289.85736025,
          "velocity": 0.30708661417322836
        },
        {
          "duration": 0.1428572499999632,
          "durationTicks": 120,
          "midi": 63,
          "name": "D#4",
          "ticks": 243480,
          "time": 289.85736025,
          "velocity": 0.2992125984251969
        },
        {
          "duration": 0.1428572499999632,
          "durationTicks": 120,
          "midi": 71,
          "name": "B4",
          "ticks": 243480,
          "time": 289.85736025,
          "velocity": 0.30708661417322836
        },
        {
          "duration": 0.1666667916666711,
          "durationTicks": 140,
          "midi": 32,
          "name": "G#1",
          "ticks": 243600,
          "time": 290.00021749999996,
          "velocity": 0.3858267716535433
        },
        {
          "duration": 0.1666667916666711,
          "durationTicks": 140,
          "midi": 44,
          "name": "G#2",
          "ticks": 243600,
          "time": 290.00021749999996,
          "velocity": 0.31496062992125984
        },
        {
          "duration": 0.1666667916666711,
          "durationTicks": 140,
          "midi": 45,
          "name": "A2",
          "ticks": 243600,
          "time": 290.00021749999996,
          "velocity": 0.31496062992125984
        },
        {
          "duration": 0.1666667916666711,
          "durationTicks": 140,
          "midi": 68,
          "name": "G#4",
          "ticks": 243600,
          "time": 290.00021749999996,
          "velocity": 0.2992125984251969
        },
        {
          "duration": 0.14285725000002003,
          "durationTicks": 120,
          "midi": 67,
          "name": "G4",
          "ticks": 243720,
          "time": 290.14307475,
          "velocity": 0.29133858267716534
        },
        {
          "duration": 0.5714289999999664,
          "durationTicks": 480,
          "midi": 42,
          "name": "F#2",
          "ticks": 243840,
          "time": 290.285932,
          "velocity": 0.3779527559055118
        },
        {
          "duration": 0.5714289999999664,
          "durationTicks": 480,
          "midi": 57,
          "name": "A3",
          "ticks": 243840,
          "time": 290.285932,
          "velocity": 0.31496062992125984
        },
        {
          "duration": 0.5714289999999664,
          "durationTicks": 480,
          "midi": 59,
          "name": "B3",
          "ticks": 243840,
          "time": 290.285932,
          "velocity": 0.2992125984251969
        },
        {
          "duration": 0.5714289999999664,
          "durationTicks": 480,
          "midi": 61,
          "name": "C#4",
          "ticks": 243840,
          "time": 290.285932,
          "velocity": 0.33070866141732286
        },
        {
          "duration": 0.5714289999999664,
          "durationTicks": 480,
          "midi": 64,
          "name": "E4",
          "ticks": 243840,
          "time": 290.285932,
          "velocity": 0.29133858267716534
        },
        {
          "duration": 0.5714289999999664,
          "durationTicks": 480,
          "midi": 69,
          "name": "A4",
          "ticks": 243840,
          "time": 290.285932,
          "velocity": 0.25196850393700787
        },
        {
          "duration": 0.14285725000002003,
          "durationTicks": 120,
          "midi": 33,
          "name": "A1",
          "ticks": 244320,
          "time": 290.85736099999997,
          "velocity": 0.31496062992125984
        },
        {
          "duration": 0.1666667916666711,
          "durationTicks": 140,
          "midi": 32,
          "name": "G#1",
          "ticks": 244440,
          "time": 291.00021825,
          "velocity": 0.2992125984251969
        },
        {
          "duration": 0.2857144999999832,
          "durationTicks": 240,
          "midi": 30,
          "name": "F#1",
          "ticks": 244560,
          "time": 291.1430755,
          "velocity": 0.41732283464566927
        },
        {
          "duration": 0.1428572499999632,
          "durationTicks": 120,
          "midi": 42,
          "name": "F#2",
          "ticks": 244800,
          "time": 291.42879,
          "velocity": 0.3700787401574803
        },
        {
          "duration": 0.1428572499999632,
          "durationTicks": 120,
          "midi": 61,
          "name": "C#4",
          "ticks": 244800,
          "time": 291.42879,
          "velocity": 0.2992125984251969
        },
        {
          "duration": 0.1428572499999632,
          "durationTicks": 120,
          "midi": 64,
          "name": "E4",
          "ticks": 244800,
          "time": 291.42879,
          "velocity": 0.2992125984251969
        },
        {
          "duration": 0.1428572499999632,
          "durationTicks": 120,
          "midi": 68,
          "name": "G#4",
          "ticks": 244800,
          "time": 291.42879,
          "velocity": 0.25984251968503935
        },
        {
          "duration": 0.1428572499999632,
          "durationTicks": 120,
          "midi": 83,
          "name": "B5",
          "ticks": 244800,
          "time": 291.42879,
          "velocity": 0.31496062992125984
        },
        {
          "duration": 0.14285725000002003,
          "durationTicks": 120,
          "midi": 37,
          "name": "C#2",
          "ticks": 244920,
          "time": 291.57164724999996,
          "velocity": 0.33858267716535434
        },
        {
          "duration": 0.11904770833331213,
          "durationTicks": 100,
          "midi": 40,
          "name": "E2",
          "ticks": 245040,
          "time": 291.7145045,
          "velocity": 0.3700787401574803
        },
        {
          "duration": 0.11904770833331213,
          "durationTicks": 100,
          "midi": 73,
          "name": "C#5",
          "ticks": 245040,
          "time": 291.7145045,
          "velocity": 0.2677165354330709
        },
        {
          "duration": 0.11904770833331213,
          "durationTicks": 100,
          "midi": 83,
          "name": "B5",
          "ticks": 245040,
          "time": 291.7145045,
          "velocity": 0.2992125984251969
        },
        {
          "duration": 0.1428572499999632,
          "durationTicks": 120,
          "midi": 41,
          "name": "F2",
          "ticks": 245160,
          "time": 291.85736175,
          "velocity": 0.25196850393700787
        },
        {
          "duration": 0.1428572499999632,
          "durationTicks": 120,
          "midi": 57,
          "name": "A3",
          "ticks": 245160,
          "time": 291.85736175,
          "velocity": 0.31496062992125984
        },
        {
          "duration": 0.11904770833336897,
          "durationTicks": 100,
          "midi": 59,
          "name": "B3",
          "ticks": 245280,
          "time": 292.00021899999996,
          "velocity": 0.2283464566929134
        },
        {
          "duration": 0.11904770833336897,
          "durationTicks": 100,
          "midi": 64,
          "name": "E4",
          "ticks": 245280,
          "time": 292.00021899999996,
          "velocity": 0.2047244094488189
        },
        {
          "duration": 0.14285725000002003,
          "durationTicks": 120,
          "midi": 37,
          "name": "C#2",
          "ticks": 245400,
          "time": 292.14307625,
          "velocity": 0.33070866141732286
        },
        {
          "duration": 0.14285725000002003,
          "durationTicks": 120,
          "midi": 61,
          "name": "C#4",
          "ticks": 245400,
          "time": 292.14307625,
          "velocity": 0.2283464566929134
        },
        {
          "duration": 0.2857144999999832,
          "durationTicks": 240,
          "midi": 30,
          "name": "F#1",
          "ticks": 245520,
          "time": 292.2859335,
          "velocity": 0.3779527559055118
        },
        {
          "duration": 0.2857144999999832,
          "durationTicks": 240,
          "midi": 40,
          "name": "E2",
          "ticks": 245520,
          "time": 292.2859335,
          "velocity": 0.33858267716535434
        },
        {
          "duration": 0.2857144999999832,
          "durationTicks": 240,
          "midi": 42,
          "name": "F#2",
          "ticks": 245520,
          "time": 292.2859335,
          "velocity": 0.33070866141732286
        },
        {
          "duration": 0.2857144999999832,
          "durationTicks": 240,
          "midi": 52,
          "name": "E3",
          "ticks": 245520,
          "time": 292.2859335,
          "velocity": 0.33858267716535434
        },
        {
          "duration": 0.2857144999999832,
          "durationTicks": 240,
          "midi": 32,
          "name": "G#1",
          "ticks": 245760,
          "time": 292.571648,
          "velocity": 0.44881889763779526
        },
        {
          "duration": 0.2857144999999832,
          "durationTicks": 240,
          "midi": 44,
          "name": "G#2",
          "ticks": 245760,
          "time": 292.571648,
          "velocity": 0.36220472440944884
        },
        {
          "duration": 0.2857144999999832,
          "durationTicks": 240,
          "midi": 58,
          "name": "A#3",
          "ticks": 245760,
          "time": 292.571648,
          "velocity": 0.2440944881889764
        },
        {
          "duration": 0.2857144999999832,
          "durationTicks": 240,
          "midi": 59,
          "name": "B3",
          "ticks": 245760,
          "time": 292.571648,
          "velocity": 0.31496062992125984
        },
        {
          "duration": 0.2857144999999832,
          "durationTicks": 240,
          "midi": 61,
          "name": "C#4",
          "ticks": 245760,
          "time": 292.571648,
          "velocity": 0.2283464566929134
        },
        {
          "duration": 0.2857144999999832,
          "durationTicks": 240,
          "midi": 70,
          "name": "A#4",
          "ticks": 245760,
          "time": 292.571648,
          "velocity": 0.2204724409448819
        },
        {
          "duration": 0.2857144999999832,
          "durationTicks": 240,
          "midi": 82,
          "name": "A#5",
          "ticks": 245760,
          "time": 292.571648,
          "velocity": 0.1732283464566929
        },
        {
          "duration": 0.14285725000002003,
          "durationTicks": 120,
          "midi": 54,
          "name": "F#3",
          "ticks": 246000,
          "time": 292.85736249999997,
          "velocity": 0.2047244094488189
        },
        {
          "duration": 0.190476333333379,
          "durationTicks": 160,
          "midi": 61,
          "name": "C#4",
          "ticks": 246000,
          "time": 292.85736249999997,
          "velocity": 0.2677165354330709
        },
        {
          "duration": 0.26190495833333216,
          "durationTicks": 220,
          "midi": 39,
          "name": "D#2",
          "ticks": 246120,
          "time": 293.00021975,
          "velocity": 0.33858267716535434
        },
        {
          "duration": 0.11904770833336897,
          "durationTicks": 100,
          "midi": 59,
          "name": "B3",
          "ticks": 246360,
          "time": 293.28593424999997,
          "velocity": 0.2283464566929134
        },
        {
          "duration": 0.11904770833336897,
          "durationTicks": 100,
          "midi": 62,
          "name": "D4",
          "ticks": 246360,
          "time": 293.28593424999997,
          "velocity": 0.30708661417322836
        },
        {
          "duration": 0.2857144999999832,
          "durationTicks": 240,
          "midi": 32,
          "name": "G#1",
          "ticks": 246480,
          "time": 293.4287915,
          "velocity": 0.36220472440944884
        },
        {
          "duration": 0.2857144999999832,
          "durationTicks": 240,
          "midi": 44,
          "name": "G#2",
          "ticks": 246480,
          "time": 293.4287915,
          "velocity": 0.44881889763779526
        },
        {
          "duration": 0.2857144999999832,
          "durationTicks": 240,
          "midi": 56,
          "name": "G#3",
          "ticks": 246480,
          "time": 293.4287915,
          "velocity": 0.44881889763779526
        },
        {
          "duration": 0.2857144999999832,
          "durationTicks": 240,
          "midi": 63,
          "name": "D#4",
          "ticks": 246480,
          "time": 293.4287915,
          "velocity": 0.2440944881889764
        },
        {
          "duration": 0.2857144999999832,
          "durationTicks": 240,
          "midi": 66,
          "name": "F#4",
          "ticks": 246480,
          "time": 293.4287915,
          "velocity": 0.28346456692913385
        },
        {
          "duration": 0.2857144999999832,
          "durationTicks": 240,
          "midi": 71,
          "name": "B4",
          "ticks": 246480,
          "time": 293.4287915,
          "velocity": 0.2204724409448819
        },
        {
          "duration": 0.2857144999999832,
          "durationTicks": 240,
          "midi": 32,
          "name": "G#1",
          "ticks": 246720,
          "time": 293.714506,
          "velocity": 0.3228346456692913
        },
        {
          "duration": 0.2857144999999832,
          "durationTicks": 240,
          "midi": 39,
          "name": "D#2",
          "ticks": 246720,
          "time": 293.714506,
          "velocity": 0.2755905511811024
        },
        {
          "duration": 0.2857144999999832,
          "durationTicks": 240,
          "midi": 44,
          "name": "G#2",
          "ticks": 246720,
          "time": 293.714506,
          "velocity": 0.2755905511811024
        },
        {
          "duration": 0.2857144999999832,
          "durationTicks": 240,
          "midi": 68,
          "name": "G#4",
          "ticks": 246720,
          "time": 293.714506,
          "velocity": 0.2755905511811024
        },
        {
          "duration": 0.2857144999999832,
          "durationTicks": 240,
          "midi": 71,
          "name": "B4",
          "ticks": 246720,
          "time": 293.714506,
          "velocity": 0.25984251968503935
        },
        {
          "duration": 0.11904770833336897,
          "durationTicks": 100,
          "midi": 39,
          "name": "D#2",
          "ticks": 246960,
          "time": 294.00022049999995,
          "velocity": 0.31496062992125984
        },
        {
          "duration": 0.11904770833336897,
          "durationTicks": 100,
          "midi": 63,
          "name": "D#4",
          "ticks": 246960,
          "time": 294.00022049999995,
          "velocity": 0.23622047244094488
        },
        {
          "duration": 0.14285725000002003,
          "durationTicks": 120,
          "midi": 58,
          "name": "A#3",
          "ticks": 247080,
          "time": 294.14307775,
          "velocity": 0.25196850393700787
        },
        {
          "duration": 0.16666679166661424,
          "durationTicks": 140,
          "midi": 32,
          "name": "G#1",
          "ticks": 247200,
          "time": 294.285935,
          "velocity": 0.28346456692913385
        },
        {
          "duration": 0.16666679166661424,
          "durationTicks": 140,
          "midi": 44,
          "name": "G#2",
          "ticks": 247200,
          "time": 294.285935,
          "velocity": 0.28346456692913385
        },
        {
          "duration": 0.11904770833336897,
          "durationTicks": 100,
          "midi": 59,
          "name": "B3",
          "ticks": 247200,
          "time": 294.285935,
          "velocity": 0.2677165354330709
        },
        {
          "duration": 0.11904770833336897,
          "durationTicks": 100,
          "midi": 68,
          "name": "G#4",
          "ticks": 247200,
          "time": 294.285935,
          "velocity": 0.3464566929133858
        },
        {
          "duration": 0.14285725000002003,
          "durationTicks": 120,
          "midi": 63,
          "name": "D#4",
          "ticks": 247320,
          "time": 294.42879224999996,
          "velocity": 0.2283464566929134
        },
        {
          "duration": 0.14285725000002003,
          "durationTicks": 120,
          "midi": 71,
          "name": "B4",
          "ticks": 247320,
          "time": 294.42879224999996,
          "velocity": 0.3779527559055118
        },
        {
          "duration": 0.1666667916666711,
          "durationTicks": 140,
          "midi": 40,
          "name": "E2",
          "ticks": 247440,
          "time": 294.5716495,
          "velocity": 0.29133858267716534
        },
        {
          "duration": 0.1666667916666711,
          "durationTicks": 140,
          "midi": 44,
          "name": "G#2",
          "ticks": 247440,
          "time": 294.5716495,
          "velocity": 0.31496062992125984
        },
        {
          "duration": 0.1666667916666711,
          "durationTicks": 140,
          "midi": 66,
          "name": "F#4",
          "ticks": 247440,
          "time": 294.5716495,
          "velocity": 0.44881889763779526
        },
        {
          "duration": 0.1666667916666711,
          "durationTicks": 140,
          "midi": 78,
          "name": "F#5",
          "ticks": 247440,
          "time": 294.5716495,
          "velocity": 0.44881889763779526
        },
        {
          "duration": 0.16666679166661424,
          "durationTicks": 140,
          "midi": 32,
          "name": "G#1",
          "ticks": 247560,
          "time": 294.71450675,
          "velocity": 0.2677165354330709
        },
        {
          "duration": 0.1428572499999632,
          "durationTicks": 120,
          "midi": 68,
          "name": "G#4",
          "ticks": 247560,
          "time": 294.71450675,
          "velocity": 0.4015748031496063
        },
        {
          "duration": 0.28571450000004006,
          "durationTicks": 240,
          "midi": 33,
          "name": "A1",
          "ticks": 247680,
          "time": 294.85736399999996,
          "velocity": 0.3228346456692913
        },
        {
          "duration": 0.28571450000004006,
          "durationTicks": 240,
          "midi": 40,
          "name": "E2",
          "ticks": 247680,
          "time": 294.85736399999996,
          "velocity": 0.33070866141732286
        },
        {
          "duration": 0.28571450000004006,
          "durationTicks": 240,
          "midi": 45,
          "name": "A2",
          "ticks": 247680,
          "time": 294.85736399999996,
          "velocity": 0.3228346456692913
        },
        {
          "duration": 0.28571450000004006,
          "durationTicks": 240,
          "midi": 56,
          "name": "G#3",
          "ticks": 247680,
          "time": 294.85736399999996,
          "velocity": 0.23622047244094488
        },
        {
          "duration": 0.28571450000004006,
          "durationTicks": 240,
          "midi": 60,
          "name": "C4",
          "ticks": 247680,
          "time": 294.85736399999996,
          "velocity": 0.2125984251968504
        },
        {
          "duration": 0.28571450000004006,
          "durationTicks": 240,
          "midi": 64,
          "name": "E4",
          "ticks": 247680,
          "time": 294.85736399999996,
          "velocity": 0.2204724409448819
        },
        {
          "duration": 0.1428572499999632,
          "durationTicks": 120,
          "midi": 64,
          "name": "E4",
          "ticks": 247920,
          "time": 295.1430785,
          "velocity": 0.3228346456692913
        },
        {
          "duration": 0.261904958333389,
          "durationTicks": 220,
          "midi": 40,
          "name": "E2",
          "ticks": 248040,
          "time": 295.28593574999996,
          "velocity": 0.30708661417322836
        },
        {
          "duration": 0.261904958333389,
          "durationTicks": 220,
          "midi": 64,
          "name": "E4",
          "ticks": 248040,
          "time": 295.28593574999996,
          "velocity": 0.3543307086614173
        },
        {
          "duration": 0.16666679166661424,
          "durationTicks": 140,
          "midi": 64,
          "name": "E4",
          "ticks": 248280,
          "time": 295.57165025,
          "velocity": 0.25196850393700787
        },
        {
          "duration": 0.16666679166661424,
          "durationTicks": 140,
          "midi": 66,
          "name": "F#4",
          "ticks": 248280,
          "time": 295.57165025,
          "velocity": 0.2204724409448819
        },
        {
          "duration": 0.28571450000004006,
          "durationTicks": 240,
          "midi": 45,
          "name": "A2",
          "ticks": 248400,
          "time": 295.71450749999997,
          "velocity": 0.28346456692913385
        },
        {
          "duration": 0.28571450000004006,
          "durationTicks": 240,
          "midi": 46,
          "name": "A#2",
          "ticks": 248400,
          "time": 295.71450749999997,
          "velocity": 0.25984251968503935
        },
        {
          "duration": 0.28571450000004006,
          "durationTicks": 240,
          "midi": 54,
          "name": "F#3",
          "ticks": 248400,
          "time": 295.71450749999997,
          "velocity": 0.2204724409448819
        },
        {
          "duration": 0.28571450000004006,
          "durationTicks": 240,
          "midi": 60,
          "name": "C4",
          "ticks": 248400,
          "time": 295.71450749999997,
          "velocity": 0.2677165354330709
        },
        {
          "duration": 0.28571450000004006,
          "durationTicks": 240,
          "midi": 64,
          "name": "E4",
          "ticks": 248400,
          "time": 295.71450749999997,
          "velocity": 0.30708661417322836
        },
        {
          "duration": 0.2857144999999832,
          "durationTicks": 240,
          "midi": 45,
          "name": "A2",
          "ticks": 248640,
          "time": 296.000222,
          "velocity": 0.31496062992125984
        },
        {
          "duration": 0.2857144999999832,
          "durationTicks": 240,
          "midi": 64,
          "name": "E4",
          "ticks": 248640,
          "time": 296.000222,
          "velocity": 0.28346456692913385
        },
        {
          "duration": 0.11904770833336897,
          "durationTicks": 100,
          "midi": 45,
          "name": "A2",
          "ticks": 248880,
          "time": 296.2859365,
          "velocity": 0.2992125984251969
        },
        {
          "duration": 0.28571450000004006,
          "durationTicks": 240,
          "midi": 40,
          "name": "E2",
          "ticks": 249000,
          "time": 296.42879374999995,
          "velocity": 0.29133858267716534
        },
        {
          "duration": 0.1428572499999632,
          "durationTicks": 120,
          "midi": 64,
          "name": "E4",
          "ticks": 249240,
          "time": 296.71450825,
          "velocity": 0.2755905511811024
        },
        {
          "duration": 0.3095240416666911,
          "durationTicks": 260,
          "midi": 45,
          "name": "A2",
          "ticks": 249360,
          "time": 296.85736549999996,
          "velocity": 0.30708661417322836
        },
        {
          "duration": 0.1428572499999632,
          "durationTicks": 120,
          "midi": 47,
          "name": "B2",
          "ticks": 249600,
          "time": 297.14308,
          "velocity": 0.29133858267716534
        },
        {
          "duration": 0.1428572499999632,
          "durationTicks": 120,
          "midi": 56,
          "name": "G#3",
          "ticks": 249600,
          "time": 297.14308,
          "velocity": 0.2204724409448819
        },
        {
          "duration": 0.1428572499999632,
          "durationTicks": 120,
          "midi": 59,
          "name": "B3",
          "ticks": 249600,
          "time": 297.14308,
          "velocity": 0.2204724409448819
        },
        {
          "duration": 0.1428572499999632,
          "durationTicks": 120,
          "midi": 64,
          "name": "E4",
          "ticks": 249600,
          "time": 297.14308,
          "velocity": 0.2440944881889764
        },
        {
          "duration": 0.11904770833336897,
          "durationTicks": 100,
          "midi": 64,
          "name": "E4",
          "ticks": 249720,
          "time": 297.28593724999996,
          "velocity": 0.2440944881889764
        },
        {
          "duration": 0.14285725000002003,
          "durationTicks": 120,
          "midi": 56,
          "name": "G#3",
          "ticks": 249840,
          "time": 297.4287945,
          "velocity": 0.2047244094488189
        },
        {
          "duration": 0.26190495833333216,
          "durationTicks": 220,
          "midi": 44,
          "name": "G#2",
          "ticks": 249960,
          "time": 297.57165175,
          "velocity": 0.33070866141732286
        },
        {
          "duration": 0.16666679166661424,
          "durationTicks": 140,
          "midi": 59,
          "name": "B3",
          "ticks": 250200,
          "time": 297.85736625,
          "velocity": 0.23622047244094488
        },
        {
          "duration": 0.1428572499999632,
          "durationTicks": 120,
          "midi": 45,
          "name": "A2",
          "ticks": 250320,
          "time": 298.0002235,
          "velocity": 0.2125984251968504
        },
        {
          "duration": 0.1428572499999632,
          "durationTicks": 120,
          "midi": 47,
          "name": "B2",
          "ticks": 250320,
          "time": 298.0002235,
          "velocity": 0.2677165354330709
        },
        {
          "duration": 0.11904770833336897,
          "durationTicks": 100,
          "midi": 59,
          "name": "B3",
          "ticks": 250440,
          "time": 298.14308074999997,
          "velocity": 0.2677165354330709
        },
        {
          "duration": 0.2857144999999832,
          "durationTicks": 240,
          "midi": 49,
          "name": "C#3",
          "ticks": 250560,
          "time": 298.285938,
          "velocity": 0.28346456692913385
        },
        {
          "duration": 0.2857144999999832,
          "durationTicks": 240,
          "midi": 63,
          "name": "D#4",
          "ticks": 250560,
          "time": 298.285938,
          "velocity": 0.2204724409448819
        },
        {
          "duration": 0.2857144999999832,
          "durationTicks": 240,
          "midi": 66,
          "name": "F#4",
          "ticks": 250560,
          "time": 298.285938,
          "velocity": 0.16535433070866143
        },
        {
          "duration": 0.2857144999999832,
          "durationTicks": 240,
          "midi": 85,
          "name": "C#6",
          "ticks": 250560,
          "time": 298.285938,
          "velocity": 0.2440944881889764
        },
        {
          "duration": 0.1666667916666711,
          "durationTicks": 140,
          "midi": 47,
          "name": "B2",
          "ticks": 250800,
          "time": 298.57165249999997,
          "velocity": 0.23622047244094488
        },
        {
          "duration": 0.1666667916666711,
          "durationTicks": 140,
          "midi": 54,
          "name": "F#3",
          "ticks": 250800,
          "time": 298.57165249999997,
          "velocity": 0.2125984251968504
        },
        {
          "duration": 0.1666667916666711,
          "durationTicks": 140,
          "midi": 63,
          "name": "D#4",
          "ticks": 250800,
          "time": 298.57165249999997,
          "velocity": 0.1889763779527559
        },
        {
          "duration": 0.1666667916666711,
          "durationTicks": 140,
          "midi": 83,
          "name": "B5",
          "ticks": 250800,
          "time": 298.57165249999997,
          "velocity": 0.25196850393700787
        },
        {
          "duration": 0.1428572499999632,
          "durationTicks": 120,
          "midi": 44,
          "name": "G#2",
          "ticks": 250920,
          "time": 298.71450975,
          "velocity": 0.25984251968503935
        },
        {
          "duration": 0.1428572499999632,
          "durationTicks": 120,
          "midi": 68,
          "name": "G#4",
          "ticks": 250920,
          "time": 298.71450975,
          "velocity": 0.1889763779527559
        },
        {
          "duration": 0.11904770833336897,
          "durationTicks": 100,
          "midi": 43,
          "name": "G2",
          "ticks": 251040,
          "time": 298.85736699999995,
          "velocity": 0.2677165354330709
        },
        {
          "duration": 0.2857144999999832,
          "durationTicks": 240,
          "midi": 63,
          "name": "D#4",
          "ticks": 251160,
          "time": 299.00022425,
          "velocity": 0.2047244094488189
        },
        {
          "duration": 0.14285725000002003,
          "durationTicks": 120,
          "midi": 43,
          "name": "G2",
          "ticks": 251400,
          "time": 299.28593874999996,
          "velocity": 0.23622047244094488
        },
        {
          "duration": 0.3095240416666343,
          "durationTicks": 260,
          "midi": 42,
          "name": "F#2",
          "ticks": 251520,
          "time": 299.428796,
          "velocity": 0.2283464566929134
        },
        {
          "duration": 0.26190495833333216,
          "durationTicks": 220,
          "midi": 57,
          "name": "A3",
          "ticks": 251520,
          "time": 299.428796,
          "velocity": 0.23622047244094488
        },
        {
          "duration": 0.3095240416666343,
          "durationTicks": 260,
          "midi": 60,
          "name": "C4",
          "ticks": 251520,
          "time": 299.428796,
          "velocity": 0.2440944881889764
        },
        {
          "duration": 0.3095240416666343,
          "durationTicks": 260,
          "midi": 61,
          "name": "C#4",
          "ticks": 251520,
          "time": 299.428796,
          "velocity": 0.2047244094488189
        },
        {
          "duration": 0.26190495833333216,
          "durationTicks": 220,
          "midi": 64,
          "name": "E4",
          "ticks": 251520,
          "time": 299.428796,
          "velocity": 0.1968503937007874
        },
        {
          "duration": 0.5952385416666743,
          "durationTicks": 500,
          "midi": 52,
          "name": "E3",
          "ticks": 251760,
          "time": 299.71451049999996,
          "velocity": 0.2047244094488189
        },
        {
          "duration": 0.5952385416666743,
          "durationTicks": 500,
          "midi": 61,
          "name": "C#4",
          "ticks": 251760,
          "time": 299.71451049999996,
          "velocity": 0.25984251968503935
        },
        {
          "duration": 0.5952385416666743,
          "durationTicks": 500,
          "midi": 64,
          "name": "E4",
          "ticks": 251760,
          "time": 299.71451049999996,
          "velocity": 0.18110236220472442
        },
        {
          "duration": 0.2857144999999832,
          "durationTicks": 240,
          "midi": 30,
          "name": "F#1",
          "ticks": 252240,
          "time": 300.2859395,
          "velocity": 0.25984251968503935
        },
        {
          "duration": 0.2857144999999832,
          "durationTicks": 240,
          "midi": 42,
          "name": "F#2",
          "ticks": 252240,
          "time": 300.2859395,
          "velocity": 0.25984251968503935
        },
        {
          "duration": 0.2857144999999832,
          "durationTicks": 240,
          "midi": 66,
          "name": "F#4",
          "ticks": 252240,
          "time": 300.2859395,
          "velocity": 0.1968503937007874
        },
        {
          "duration": 0.14285725000002003,
          "durationTicks": 120,
          "midi": 68,
          "name": "G#4",
          "ticks": 252480,
          "time": 300.57165399999997,
          "velocity": 0.1889763779527559
        },
        {
          "duration": 0.14285725000002003,
          "durationTicks": 120,
          "midi": 71,
          "name": "B4",
          "ticks": 252480,
          "time": 300.57165399999997,
          "velocity": 0.1889763779527559
        },
        {
          "duration": 0.14285725000002003,
          "durationTicks": 120,
          "midi": 83,
          "name": "B5",
          "ticks": 252480,
          "time": 300.57165399999997,
          "velocity": 0.1889763779527559
        },
        {
          "duration": 0.16666679166661424,
          "durationTicks": 140,
          "midi": 37,
          "name": "C#2",
          "ticks": 252600,
          "time": 300.71451125,
          "velocity": 0.1968503937007874
        },
        {
          "duration": 0.16666679166661424,
          "durationTicks": 140,
          "midi": 40,
          "name": "E2",
          "ticks": 252720,
          "time": 300.8573685,
          "velocity": 0.2125984251968504
        },
        {
          "duration": 0.2857144999999832,
          "durationTicks": 240,
          "midi": 57,
          "name": "A3",
          "ticks": 252840,
          "time": 301.00022574999997,
          "velocity": 0.1889763779527559
        },
        {
          "duration": 0.14285725000002003,
          "durationTicks": 120,
          "midi": 37,
          "name": "C#2",
          "ticks": 253080,
          "time": 301.28594024999995,
          "velocity": 0.1889763779527559
        },
        {
          "duration": 0.261904958333389,
          "durationTicks": 220,
          "midi": 30,
          "name": "F#1",
          "ticks": 253200,
          "time": 301.4287975,
          "velocity": 0.1889763779527559
        },
        {
          "duration": 0.261904958333389,
          "durationTicks": 220,
          "midi": 32,
          "name": "G#1",
          "ticks": 253200,
          "time": 301.4287975,
          "velocity": 0.1968503937007874
        },
        {
          "duration": 0.3095240416666343,
          "durationTicks": 260,
          "midi": 40,
          "name": "E2",
          "ticks": 253200,
          "time": 301.4287975,
          "velocity": 0.2204724409448819
        },
        {
          "duration": 0.3095240416666911,
          "durationTicks": 260,
          "midi": 32,
          "name": "G#1",
          "ticks": 253440,
          "time": 301.71451199999996,
          "velocity": 0.2047244094488189
        },
        {
          "duration": 0.3095240416666911,
          "durationTicks": 260,
          "midi": 58,
          "name": "A#3",
          "ticks": 253440,
          "time": 301.71451199999996,
          "velocity": 0.1889763779527559
        },
        {
          "duration": 0.3095240416666911,
          "durationTicks": 260,
          "midi": 59,
          "name": "B3",
          "ticks": 253440,
          "time": 301.71451199999996,
          "velocity": 0.2047244094488189
        },
        {
          "duration": 0.3095240416666911,
          "durationTicks": 260,
          "midi": 70,
          "name": "A#4",
          "ticks": 253440,
          "time": 301.71451199999996,
          "velocity": 0.1889763779527559
        },
        {
          "duration": 0.16666679166661424,
          "durationTicks": 140,
          "midi": 61,
          "name": "C#4",
          "ticks": 253680,
          "time": 302.0002265,
          "velocity": 0.2047244094488189
        },
        {
          "duration": 0.16666679166661424,
          "durationTicks": 140,
          "midi": 66,
          "name": "F#4",
          "ticks": 253680,
          "time": 302.0002265,
          "velocity": 0.1732283464566929
        },
        {
          "duration": 0.16666679166661424,
          "durationTicks": 140,
          "midi": 70,
          "name": "A#4",
          "ticks": 253680,
          "time": 302.0002265,
          "velocity": 0.16535433070866143
        },
        {
          "duration": 0.28571450000004006,
          "durationTicks": 240,
          "midi": 39,
          "name": "D#2",
          "ticks": 253800,
          "time": 302.14308374999996,
          "velocity": 0.18110236220472442
        },
        {
          "duration": 0.11904770833331213,
          "durationTicks": 100,
          "midi": 62,
          "name": "D4",
          "ticks": 254040,
          "time": 302.42879825,
          "velocity": 0.1889763779527559
        },
        {
          "duration": 0.28571450000004006,
          "durationTicks": 240,
          "midi": 32,
          "name": "G#1",
          "ticks": 254160,
          "time": 302.57165549999996,
          "velocity": 0.1732283464566929
        },
        {
          "duration": 0.28571450000004006,
          "durationTicks": 240,
          "midi": 44,
          "name": "G#2",
          "ticks": 254160,
          "time": 302.57165549999996,
          "velocity": 0.1889763779527559
        },
        {
          "duration": 0.28571450000004006,
          "durationTicks": 240,
          "midi": 51,
          "name": "D#3",
          "ticks": 254160,
          "time": 302.57165549999996,
          "velocity": 0.1889763779527559
        },
        {
          "duration": 0.28571450000004006,
          "durationTicks": 240,
          "midi": 56,
          "name": "G#3",
          "ticks": 254160,
          "time": 302.57165549999996,
          "velocity": 0.1889763779527559
        },
        {
          "duration": 0.28571450000004006,
          "durationTicks": 240,
          "midi": 59,
          "name": "B3",
          "ticks": 254160,
          "time": 302.57165549999996,
          "velocity": 0.1732283464566929
        },
        {
          "duration": 0.28571450000004006,
          "durationTicks": 240,
          "midi": 63,
          "name": "D#4",
          "ticks": 254160,
          "time": 302.57165549999996,
          "velocity": 0.16535433070866143
        },
        {
          "duration": 0.28571450000004006,
          "durationTicks": 240,
          "midi": 66,
          "name": "F#4",
          "ticks": 254160,
          "time": 302.57165549999996,
          "velocity": 0.1732283464566929
        },
        {
          "duration": 0.1428572499999632,
          "durationTicks": 120,
          "midi": 32,
          "name": "G#1",
          "ticks": 254400,
          "time": 302.85737,
          "velocity": 0.16535433070866143
        },
        {
          "duration": 0.1428572499999632,
          "durationTicks": 120,
          "midi": 51,
          "name": "D#3",
          "ticks": 254400,
          "time": 302.85737,
          "velocity": 0.1732283464566929
        },
        {
          "duration": 0.1428572499999632,
          "durationTicks": 120,
          "midi": 56,
          "name": "G#3",
          "ticks": 254400,
          "time": 302.85737,
          "velocity": 0.1732283464566929
        },
        {
          "duration": 0.1428572499999632,
          "durationTicks": 120,
          "midi": 63,
          "name": "D#4",
          "ticks": 254400,
          "time": 302.85737,
          "velocity": 0.15748031496062992
        },
        {
          "duration": 0.1428572499999632,
          "durationTicks": 120,
          "midi": 68,
          "name": "G#4",
          "ticks": 254400,
          "time": 302.85737,
          "velocity": 0.1732283464566929
        },
        {
          "duration": 0.14285725000002003,
          "durationTicks": 120,
          "midi": 44,
          "name": "G#2",
          "ticks": 254520,
          "time": 303.00022724999997,
          "velocity": 0.1732283464566929
        },
        {
          "duration": 0.14285725000002003,
          "durationTicks": 120,
          "midi": 71,
          "name": "B4",
          "ticks": 254520,
          "time": 303.00022724999997,
          "velocity": 0.1732283464566929
        },
        {
          "duration": 0.16666679166661424,
          "durationTicks": 140,
          "midi": 39,
          "name": "D#2",
          "ticks": 254640,
          "time": 303.1430845,
          "velocity": 0.15748031496062992
        },
        {
          "duration": 0.16666679166661424,
          "durationTicks": 140,
          "midi": 63,
          "name": "D#4",
          "ticks": 254640,
          "time": 303.1430845,
          "velocity": 0.15748031496062992
        },
        {
          "duration": 0.1428572499999632,
          "durationTicks": 120,
          "midi": 39,
          "name": "D#2",
          "ticks": 254760,
          "time": 303.28594175,
          "velocity": 0.1732283464566929
        },
        {
          "duration": 0.1428572499999632,
          "durationTicks": 120,
          "midi": 70,
          "name": "A#4",
          "ticks": 254760,
          "time": 303.28594175,
          "velocity": 0.16535433070866143
        },
        {
          "duration": 0.14285725000002003,
          "durationTicks": 120,
          "midi": 32,
          "name": "G#1",
          "ticks": 254880,
          "time": 303.42879899999997,
          "velocity": 0.15748031496062992
        },
        {
          "duration": 0.14285725000002003,
          "durationTicks": 120,
          "midi": 44,
          "name": "G#2",
          "ticks": 254880,
          "time": 303.42879899999997,
          "velocity": 0.15748031496062992
        },
        {
          "duration": 0.14285725000002003,
          "durationTicks": 120,
          "midi": 56,
          "name": "G#3",
          "ticks": 254880,
          "time": 303.42879899999997,
          "velocity": 0.16535433070866143
        },
        {
          "duration": 0.14285725000002003,
          "durationTicks": 120,
          "midi": 59,
          "name": "B3",
          "ticks": 254880,
          "time": 303.42879899999997,
          "velocity": 0.15748031496062992
        },
        {
          "duration": 0.14285725000002003,
          "durationTicks": 120,
          "midi": 63,
          "name": "D#4",
          "ticks": 254880,
          "time": 303.42879899999997,
          "velocity": 0.15748031496062992
        },
        {
          "duration": 0.42857175000000325,
          "durationTicks": 360,
          "midi": 71,
          "name": "B4",
          "ticks": 255000,
          "time": 303.57165625,
          "velocity": 0.1732283464566929
        },
        {
          "duration": 0.26190495833333216,
          "durationTicks": 220,
          "midi": 33,
          "name": "A1",
          "ticks": 255360,
          "time": 304.000228,
          "velocity": 0.15748031496062992
        },
        {
          "duration": 0.26190495833333216,
          "durationTicks": 220,
          "midi": 45,
          "name": "A2",
          "ticks": 255360,
          "time": 304.000228,
          "velocity": 0.15748031496062992
        },
        {
          "duration": 0.26190495833333216,
          "durationTicks": 220,
          "midi": 56,
          "name": "G#3",
          "ticks": 255360,
          "time": 304.000228,
          "velocity": 0.16535433070866143
        },
        {
          "duration": 0.26190495833333216,
          "durationTicks": 220,
          "midi": 60,
          "name": "C4",
          "ticks": 255360,
          "time": 304.000228,
          "velocity": 0.14960629921259844
        },
        {
          "duration": 0.26190495833333216,
          "durationTicks": 220,
          "midi": 64,
          "name": "E4",
          "ticks": 255360,
          "time": 304.000228,
          "velocity": 0.15748031496062992
        },
        {
          "duration": 0.14285725000002003,
          "durationTicks": 120,
          "midi": 56,
          "name": "G#3",
          "ticks": 255600,
          "time": 304.2859425,
          "velocity": 0.15748031496062992
        },
        {
          "duration": 0.14285725000002003,
          "durationTicks": 120,
          "midi": 60,
          "name": "C4",
          "ticks": 255600,
          "time": 304.2859425,
          "velocity": 0.15748031496062992
        },
        {
          "duration": 0.14285725000002003,
          "durationTicks": 120,
          "midi": 64,
          "name": "E4",
          "ticks": 255600,
          "time": 304.2859425,
          "velocity": 0.15748031496062992
        },
        {
          "duration": 0.11904770833331213,
          "durationTicks": 100,
          "midi": 40,
          "name": "E2",
          "ticks": 255720,
          "time": 304.42879975,
          "velocity": 0.14960629921259844
        },
        {
          "duration": 0.11904770833331213,
          "durationTicks": 100,
          "midi": 52,
          "name": "E3",
          "ticks": 255720,
          "time": 304.42879975,
          "velocity": 0.14960629921259844
        },
        {
          "duration": 0.14285725000002003,
          "durationTicks": 120,
          "midi": 56,
          "name": "G#3",
          "ticks": 255840,
          "time": 304.57165699999996,
          "velocity": 0.15748031496062992
        },
        {
          "duration": 0.1666667916666711,
          "durationTicks": 140,
          "midi": 60,
          "name": "C4",
          "ticks": 255960,
          "time": 304.71451425,
          "velocity": 0.14960629921259844
        },
        {
          "duration": 0.1666667916666711,
          "durationTicks": 140,
          "midi": 64,
          "name": "E4",
          "ticks": 255960,
          "time": 304.71451425,
          "velocity": 0.14960629921259844
        },
        {
          "duration": 0.2857144999999832,
          "durationTicks": 240,
          "midi": 47,
          "name": "B2",
          "ticks": 256080,
          "time": 304.8573715,
          "velocity": 0.14960629921259844
        },
        {
          "duration": 0.2857144999999832,
          "durationTicks": 240,
          "midi": 60,
          "name": "C4",
          "ticks": 256080,
          "time": 304.8573715,
          "velocity": 0.14960629921259844
        },
        {
          "duration": 0.2857144999999832,
          "durationTicks": 240,
          "midi": 64,
          "name": "E4",
          "ticks": 256080,
          "time": 304.8573715,
          "velocity": 0.14960629921259844
        },
        {
          "duration": 0.2857144999999832,
          "durationTicks": 240,
          "midi": 45,
          "name": "A2",
          "ticks": 256320,
          "time": 305.143086,
          "velocity": 0.14960629921259844
        },
        {
          "duration": 0.2857144999999832,
          "durationTicks": 240,
          "midi": 60,
          "name": "C4",
          "ticks": 256320,
          "time": 305.143086,
          "velocity": 0.14960629921259844
        },
        {
          "duration": 0.2857144999999832,
          "durationTicks": 240,
          "midi": 64,
          "name": "E4",
          "ticks": 256320,
          "time": 305.143086,
          "velocity": 0.14960629921259844
        },
        {
          "duration": 0.14285725000002003,
          "durationTicks": 120,
          "midi": 60,
          "name": "C4",
          "ticks": 256560,
          "time": 305.42880049999997,
          "velocity": 0.14960629921259844
        },
        {
          "duration": 0.14285725000002003,
          "durationTicks": 120,
          "midi": 64,
          "name": "E4",
          "ticks": 256560,
          "time": 305.42880049999997,
          "velocity": 0.14960629921259844
        },
        {
          "duration": 0.16666679166661424,
          "durationTicks": 140,
          "midi": 40,
          "name": "E2",
          "ticks": 256680,
          "time": 305.57165775,
          "velocity": 0.14960629921259844
        },
        {
          "duration": 0.16666679166661424,
          "durationTicks": 140,
          "midi": 52,
          "name": "E3",
          "ticks": 256680,
          "time": 305.57165775,
          "velocity": 0.14960629921259844
        },
        {
          "duration": 0.2857144999999832,
          "durationTicks": 240,
          "midi": 60,
          "name": "C4",
          "ticks": 256800,
          "time": 305.714515,
          "velocity": 0.14173228346456693
        },
        {
          "duration": 0.2857144999999832,
          "durationTicks": 240,
          "midi": 64,
          "name": "E4",
          "ticks": 256800,
          "time": 305.714515,
          "velocity": 0.14173228346456693
        },
        {
          "duration": 0.26190495833333216,
          "durationTicks": 220,
          "midi": 45,
          "name": "A2",
          "ticks": 257040,
          "time": 306.0002295,
          "velocity": 0.14173228346456693
        }
      ]
    }
  ]
}