{
  "header": {
    "keySignatures": [
      {
        "key": "C",
        "scale": "major",
        "ticks": 0
      }
    ],
    "meta": [],
    "name": "坂本真綾",
    "ppq": 480,
    "tempos": [
      {
        "bpm": 162.000162000162,
        "ticks": 0
      }
    ],
    "timeSignatures": [
      {
        "ticks": 0,
        "timeSignature": [
          4,
          4
        ],
        "measures": 0
      }
    ]
  },
  "tracks": [
    {
      "channel": 0,
      "controlChanges": {},
      "pitchBends": [],
      "instrument": {
        "family": "piano",
        "number": 0,
        "name": "acoustic grand piano"
      },
      "name": "坂本真綾",
      "notes": [],
      "endOfTrackTicks": 397440
    },
    {
      "channel": 0,
      "controlChanges": {},
      "pitchBends": [],
      "instrument": {
        "family": "piano",
        "number": 1,
        "name": "piano"
      },
      "name": "",
      "notes": [
        {
          "duration": 0.18518500000000016,
          "durationTicks": 240,
          "midi": 30,
          "name": "F#1",
          "ticks": 3840,
          "time": 2.9629600000000003,
          "velocity": 0.33858267716535434
        },
        {
          "duration": 0.18518500000000016,
          "durationTicks": 240,
          "midi": 42,
          "name": "F#2",
          "ticks": 3840,
          "time": 2.9629600000000003,
          "velocity": 0.29133858267716534
        },
        {
          "duration": 0.18518500000000016,
          "durationTicks": 240,
          "midi": 53,
          "name": "F3",
          "ticks": 3840,
          "time": 2.9629600000000003,
          "velocity": 0.25984251968503935
        },
        {
          "duration": 0.18518500000000016,
          "durationTicks": 240,
          "midi": 56,
          "name": "G#3",
          "ticks": 3840,
          "time": 2.9629600000000003,
          "velocity": 0.2047244094488189
        },
        {
          "duration": 0.18518500000000016,
          "durationTicks": 240,
          "midi": 58,
          "name": "A#3",
          "ticks": 3840,
          "time": 2.9629600000000003,
          "velocity": 0.2283464566929134
        },
        {
          "duration": 0.18518500000000016,
          "durationTicks": 240,
          "midi": 61,
          "name": "C#4",
          "ticks": 3840,
          "time": 2.9629600000000003,
          "velocity": 0.25196850393700787
        },
        {
          "duration": 0.18518500000000016,
          "durationTicks": 240,
          "midi": 73,
          "name": "C#5",
          "ticks": 3840,
          "time": 2.9629600000000003,
          "velocity": 0.3858267716535433
        },
        {
          "duration": 0.18518500000000016,
          "durationTicks": 240,
          "midi": 85,
          "name": "C#6",
          "ticks": 3840,
          "time": 2.9629600000000003,
          "velocity": 0.3858267716535433
        },
        {
          "duration": 0.1851849999999997,
          "durationTicks": 240,
          "midi": 70,
          "name": "A#4",
          "ticks": 4080,
          "time": 3.1481450000000004,
          "velocity": 0.25196850393700787
        },
        {
          "duration": 0.18518500000000016,
          "durationTicks": 240,
          "midi": 53,
          "name": "F3",
          "ticks": 4320,
          "time": 3.33333,
          "velocity": 0.23622047244094488
        },
        {
          "duration": 0.15432083333333324,
          "durationTicks": 200,
          "midi": 58,
          "name": "A#3",
          "ticks": 4320,
          "time": 3.33333,
          "velocity": 0.23622047244094488
        },
        {
          "duration": 0.18518500000000016,
          "durationTicks": 240,
          "midi": 61,
          "name": "C#4",
          "ticks": 4320,
          "time": 3.33333,
          "velocity": 0.1889763779527559
        },
        {
          "duration": 0.37036999999999987,
          "durationTicks": 480,
          "midi": 56,
          "name": "G#3",
          "ticks": 4560,
          "time": 3.5185150000000003,
          "velocity": 0.3228346456692913
        },
        {
          "duration": 0.37036999999999987,
          "durationTicks": 480,
          "midi": 61,
          "name": "C#4",
          "ticks": 4560,
          "time": 3.5185150000000003,
          "velocity": 0.2125984251968504
        },
        {
          "duration": 0.37036999999999987,
          "durationTicks": 480,
          "midi": 70,
          "name": "A#4",
          "ticks": 4560,
          "time": 3.5185150000000003,
          "velocity": 0.2440944881889764
        },
        {
          "duration": 0.1851850000000006,
          "durationTicks": 240,
          "midi": 61,
          "name": "C#4",
          "ticks": 5040,
          "time": 3.888885,
          "velocity": 0.2204724409448819
        },
        {
          "duration": 0.1851850000000006,
          "durationTicks": 240,
          "midi": 70,
          "name": "A#4",
          "ticks": 5040,
          "time": 3.888885,
          "velocity": 0.2677165354330709
        },
        {
          "duration": 0.15432083333333235,
          "durationTicks": 200,
          "midi": 53,
          "name": "F3",
          "ticks": 5280,
          "time": 4.074070000000001,
          "velocity": 0.2677165354330709
        },
        {
          "duration": 0.1851849999999997,
          "durationTicks": 240,
          "midi": 56,
          "name": "G#3",
          "ticks": 5520,
          "time": 4.2592550000000005,
          "velocity": 0.2125984251968504
        },
        {
          "duration": 0.33950583333333295,
          "durationTicks": 440,
          "midi": 42,
          "name": "F#2",
          "ticks": 5760,
          "time": 4.44444,
          "velocity": 0.4015748031496063
        },
        {
          "duration": 0.33950583333333295,
          "durationTicks": 440,
          "midi": 51,
          "name": "D#3",
          "ticks": 5760,
          "time": 4.44444,
          "velocity": 0.41732283464566927
        },
        {
          "duration": 0.33950583333333295,
          "durationTicks": 440,
          "midi": 54,
          "name": "F#3",
          "ticks": 5760,
          "time": 4.44444,
          "velocity": 0.2283464566929134
        },
        {
          "duration": 0.33950583333333295,
          "durationTicks": 440,
          "midi": 58,
          "name": "A#3",
          "ticks": 5760,
          "time": 4.44444,
          "velocity": 0.2047244094488189
        },
        {
          "duration": 0.33950583333333295,
          "durationTicks": 440,
          "midi": 61,
          "name": "C#4",
          "ticks": 5760,
          "time": 4.44444,
          "velocity": 0.2440944881889764
        },
        {
          "duration": 0.1851849999999997,
          "durationTicks": 240,
          "midi": 42,
          "name": "F#2",
          "ticks": 6240,
          "time": 4.8148100000000005,
          "velocity": 0.2992125984251969
        },
        {
          "duration": 0.1851849999999997,
          "durationTicks": 240,
          "midi": 51,
          "name": "D#3",
          "ticks": 6240,
          "time": 4.8148100000000005,
          "velocity": 0.2047244094488189
        },
        {
          "duration": 0.3703700000000003,
          "durationTicks": 480,
          "midi": 51,
          "name": "D#3",
          "ticks": 6480,
          "time": 4.999995,
          "velocity": 0.2047244094488189
        },
        {
          "duration": 0.3703700000000003,
          "durationTicks": 480,
          "midi": 54,
          "name": "F#3",
          "ticks": 6480,
          "time": 4.999995,
          "velocity": 0.25984251968503935
        },
        {
          "duration": 0.15432083333333324,
          "durationTicks": 200,
          "midi": 61,
          "name": "C#4",
          "ticks": 6960,
          "time": 5.3703650000000005,
          "velocity": 0.1889763779527559
        },
        {
          "duration": 0.1851850000000006,
          "durationTicks": 240,
          "midi": 51,
          "name": "D#3",
          "ticks": 7200,
          "time": 5.55555,
          "velocity": 0.1889763779527559
        },
        {
          "duration": 0.15432083333333324,
          "durationTicks": 200,
          "midi": 37,
          "name": "C#2",
          "ticks": 7440,
          "time": 5.740735000000001,
          "velocity": 0.30708661417322836
        },
        {
          "duration": 0.3703700000000003,
          "durationTicks": 480,
          "midi": 30,
          "name": "F#1",
          "ticks": 7680,
          "time": 5.9259200000000005,
          "velocity": 0.33070866141732286
        },
        {
          "duration": 0.3703700000000003,
          "durationTicks": 480,
          "midi": 42,
          "name": "F#2",
          "ticks": 7680,
          "time": 5.9259200000000005,
          "velocity": 0.31496062992125984
        },
        {
          "duration": 0.3703700000000003,
          "durationTicks": 480,
          "midi": 53,
          "name": "F3",
          "ticks": 7680,
          "time": 5.9259200000000005,
          "velocity": 0.25196850393700787
        },
        {
          "duration": 0.3703700000000003,
          "durationTicks": 480,
          "midi": 56,
          "name": "G#3",
          "ticks": 7680,
          "time": 5.9259200000000005,
          "velocity": 0.2125984251968504
        },
        {
          "duration": 0.3703700000000003,
          "durationTicks": 480,
          "midi": 61,
          "name": "C#4",
          "ticks": 7680,
          "time": 5.9259200000000005,
          "velocity": 0.23622047244094488
        },
        {
          "duration": 0.21604916666666618,
          "durationTicks": 280,
          "midi": 53,
          "name": "F3",
          "ticks": 8160,
          "time": 6.296290000000001,
          "velocity": 0.29133858267716534
        },
        {
          "duration": 0.21604916666666618,
          "durationTicks": 280,
          "midi": 61,
          "name": "C#4",
          "ticks": 8160,
          "time": 6.296290000000001,
          "velocity": 0.1968503937007874
        },
        {
          "duration": 0.3703700000000003,
          "durationTicks": 480,
          "midi": 56,
          "name": "G#3",
          "ticks": 8400,
          "time": 6.4814750000000005,
          "velocity": 0.33070866141732286
        },
        {
          "duration": 0.3703700000000003,
          "durationTicks": 480,
          "midi": 58,
          "name": "A#3",
          "ticks": 8400,
          "time": 6.4814750000000005,
          "velocity": 0.2283464566929134
        },
        {
          "duration": 0.1851849999999997,
          "durationTicks": 240,
          "midi": 58,
          "name": "A#3",
          "ticks": 8880,
          "time": 6.851845000000001,
          "velocity": 0.2204724409448819
        },
        {
          "duration": 0.1851849999999997,
          "durationTicks": 240,
          "midi": 61,
          "name": "C#4",
          "ticks": 8880,
          "time": 6.851845000000001,
          "velocity": 0.1889763779527559
        },
        {
          "duration": 0.1851849999999997,
          "durationTicks": 240,
          "midi": 53,
          "name": "F3",
          "ticks": 9120,
          "time": 7.037030000000001,
          "velocity": 0.25984251968503935
        },
        {
          "duration": 0.1851850000000006,
          "durationTicks": 240,
          "midi": 68,
          "name": "G#4",
          "ticks": 9360,
          "time": 7.222215,
          "velocity": 0.2283464566929134
        },
        {
          "duration": 0.3703699999999994,
          "durationTicks": 480,
          "midi": 42,
          "name": "F#2",
          "ticks": 9600,
          "time": 7.407400000000001,
          "velocity": 0.33858267716535434
        },
        {
          "duration": 0.3703699999999994,
          "durationTicks": 480,
          "midi": 51,
          "name": "D#3",
          "ticks": 9600,
          "time": 7.407400000000001,
          "velocity": 0.3464566929133858
        },
        {
          "duration": 0.3703699999999994,
          "durationTicks": 480,
          "midi": 54,
          "name": "F#3",
          "ticks": 9600,
          "time": 7.407400000000001,
          "velocity": 0.33858267716535434
        },
        {
          "duration": 0.3703699999999994,
          "durationTicks": 480,
          "midi": 58,
          "name": "A#3",
          "ticks": 9600,
          "time": 7.407400000000001,
          "velocity": 0.2204724409448819
        },
        {
          "duration": 0.3703699999999994,
          "durationTicks": 480,
          "midi": 63,
          "name": "D#4",
          "ticks": 9600,
          "time": 7.407400000000001,
          "velocity": 0.18110236220472442
        },
        {
          "duration": 0.3703699999999994,
          "durationTicks": 480,
          "midi": 66,
          "name": "F#4",
          "ticks": 9600,
          "time": 7.407400000000001,
          "velocity": 0.2204724409448819
        },
        {
          "duration": 0.3703699999999994,
          "durationTicks": 480,
          "midi": 70,
          "name": "A#4",
          "ticks": 9600,
          "time": 7.407400000000001,
          "velocity": 0.30708661417322836
        },
        {
          "duration": 0.1851850000000006,
          "durationTicks": 240,
          "midi": 58,
          "name": "A#3",
          "ticks": 10080,
          "time": 7.77777,
          "velocity": 0.2283464566929134
        },
        {
          "duration": 0.1851850000000006,
          "durationTicks": 240,
          "midi": 70,
          "name": "A#4",
          "ticks": 10080,
          "time": 7.77777,
          "velocity": 0.2283464566929134
        },
        {
          "duration": 0.21604916666666618,
          "durationTicks": 280,
          "midi": 70,
          "name": "A#4",
          "ticks": 10320,
          "time": 7.962955000000001,
          "velocity": 0.1889763779527559
        },
        {
          "duration": 0.3703699999999994,
          "durationTicks": 480,
          "midi": 41,
          "name": "F2",
          "ticks": 10560,
          "time": 8.148140000000001,
          "velocity": 0.28346456692913385
        },
        {
          "duration": 0.3703699999999994,
          "durationTicks": 480,
          "midi": 56,
          "name": "G#3",
          "ticks": 10560,
          "time": 8.148140000000001,
          "velocity": 0.3543307086614173
        },
        {
          "duration": 0.3703699999999994,
          "durationTicks": 480,
          "midi": 61,
          "name": "C#4",
          "ticks": 10560,
          "time": 8.148140000000001,
          "velocity": 0.2204724409448819
        },
        {
          "duration": 0.33950583333333384,
          "durationTicks": 440,
          "midi": 65,
          "name": "F4",
          "ticks": 10560,
          "time": 8.148140000000001,
          "velocity": 0.28346456692913385
        },
        {
          "duration": 0.33950583333333384,
          "durationTicks": 440,
          "midi": 77,
          "name": "F5",
          "ticks": 10560,
          "time": 8.148140000000001,
          "velocity": 0.2992125984251969
        },
        {
          "duration": 0.3703699999999994,
          "durationTicks": 480,
          "midi": 89,
          "name": "F6",
          "ticks": 10560,
          "time": 8.148140000000001,
          "velocity": 0.3464566929133858
        },
        {
          "duration": 0.1851850000000006,
          "durationTicks": 240,
          "midi": 70,
          "name": "A#4",
          "ticks": 11040,
          "time": 8.518510000000001,
          "velocity": 0.18110236220472442
        },
        {
          "duration": 0.18518499999999882,
          "durationTicks": 240,
          "midi": 70,
          "name": "A#4",
          "ticks": 11280,
          "time": 8.703695000000002,
          "velocity": 0.1889763779527559
        },
        {
          "duration": 0.18518499999999882,
          "durationTicks": 240,
          "midi": 77,
          "name": "F5",
          "ticks": 11280,
          "time": 8.703695000000002,
          "velocity": 0.1968503937007874
        },
        {
          "duration": 0.1851850000000006,
          "durationTicks": 240,
          "midi": 58,
          "name": "A#3",
          "ticks": 11520,
          "time": 8.88888,
          "velocity": 0.2677165354330709
        },
        {
          "duration": 0.15432083333333502,
          "durationTicks": 200,
          "midi": 61,
          "name": "C#4",
          "ticks": 11520,
          "time": 8.88888,
          "velocity": 0.2440944881889764
        },
        {
          "duration": 0.1851850000000006,
          "durationTicks": 240,
          "midi": 73,
          "name": "C#5",
          "ticks": 11520,
          "time": 8.88888,
          "velocity": 0.3464566929133858
        },
        {
          "duration": 0.1851850000000006,
          "durationTicks": 240,
          "midi": 85,
          "name": "C#6",
          "ticks": 11520,
          "time": 8.88888,
          "velocity": 0.3464566929133858
        },
        {
          "duration": 0.12345666666666588,
          "durationTicks": 160,
          "midi": 39,
          "name": "D#2",
          "ticks": 11640,
          "time": 8.9814725,
          "velocity": 0.4015748031496063
        },
        {
          "duration": 0.1851850000000006,
          "durationTicks": 240,
          "midi": 61,
          "name": "C#4",
          "ticks": 11760,
          "time": 9.074065000000001,
          "velocity": 0.2283464566929134
        },
        {
          "duration": 0.18518499999999882,
          "durationTicks": 240,
          "midi": 53,
          "name": "F3",
          "ticks": 12000,
          "time": 9.259250000000002,
          "velocity": 0.2283464566929134
        },
        {
          "duration": 0.18518499999999882,
          "durationTicks": 240,
          "midi": 61,
          "name": "C#4",
          "ticks": 12000,
          "time": 9.259250000000002,
          "velocity": 0.2047244094488189
        },
        {
          "duration": 0.1851850000000006,
          "durationTicks": 240,
          "midi": 56,
          "name": "G#3",
          "ticks": 12240,
          "time": 9.444435,
          "velocity": 0.2204724409448819
        },
        {
          "duration": 0.1851850000000006,
          "durationTicks": 240,
          "midi": 61,
          "name": "C#4",
          "ticks": 12240,
          "time": 9.444435,
          "velocity": 0.2047244094488189
        },
        {
          "duration": 0.15432083333333324,
          "durationTicks": 200,
          "midi": 61,
          "name": "C#4",
          "ticks": 12480,
          "time": 9.629620000000001,
          "velocity": 0.2125984251968504
        },
        {
          "duration": 0.18518499999999882,
          "durationTicks": 240,
          "midi": 56,
          "name": "G#3",
          "ticks": 12720,
          "time": 9.814805000000002,
          "velocity": 0.1968503937007874
        },
        {
          "duration": 0.18518499999999882,
          "durationTicks": 240,
          "midi": 61,
          "name": "C#4",
          "ticks": 12720,
          "time": 9.814805000000002,
          "velocity": 0.2125984251968504
        },
        {
          "duration": 0.3703700000000012,
          "durationTicks": 480,
          "midi": 53,
          "name": "F3",
          "ticks": 12960,
          "time": 9.99999,
          "velocity": 0.2283464566929134
        },
        {
          "duration": 0.3703700000000012,
          "durationTicks": 480,
          "midi": 61,
          "name": "C#4",
          "ticks": 12960,
          "time": 9.99999,
          "velocity": 0.1968503937007874
        },
        {
          "duration": 0.3703699999999994,
          "durationTicks": 480,
          "midi": 39,
          "name": "D#2",
          "ticks": 13440,
          "time": 10.370360000000002,
          "velocity": 0.4094488188976378
        },
        {
          "duration": 0.3703699999999994,
          "durationTicks": 480,
          "midi": 61,
          "name": "C#4",
          "ticks": 13440,
          "time": 10.370360000000002,
          "velocity": 0.2047244094488189
        },
        {
          "duration": 0.1851850000000006,
          "durationTicks": 240,
          "midi": 51,
          "name": "D#3",
          "ticks": 13920,
          "time": 10.740730000000001,
          "velocity": 0.2440944881889764
        },
        {
          "duration": 0.1851850000000006,
          "durationTicks": 240,
          "midi": 58,
          "name": "A#3",
          "ticks": 13920,
          "time": 10.740730000000001,
          "velocity": 0.2204724409448819
        },
        {
          "duration": 0.1851850000000006,
          "durationTicks": 240,
          "midi": 61,
          "name": "C#4",
          "ticks": 13920,
          "time": 10.740730000000001,
          "velocity": 0.1968503937007874
        },
        {
          "duration": 0.15432083333333324,
          "durationTicks": 200,
          "midi": 51,
          "name": "D#3",
          "ticks": 14160,
          "time": 10.925915000000002,
          "velocity": 0.25196850393700787
        },
        {
          "duration": 0.15432083333333324,
          "durationTicks": 200,
          "midi": 54,
          "name": "F#3",
          "ticks": 14160,
          "time": 10.925915000000002,
          "velocity": 0.2204724409448819
        },
        {
          "duration": 0.1851850000000006,
          "durationTicks": 240,
          "midi": 39,
          "name": "D#2",
          "ticks": 14400,
          "time": 11.1111,
          "velocity": 0.4094488188976378
        },
        {
          "duration": 0.1851850000000006,
          "durationTicks": 240,
          "midi": 51,
          "name": "D#3",
          "ticks": 14640,
          "time": 11.296285000000001,
          "velocity": 0.2283464566929134
        },
        {
          "duration": 0.1851850000000006,
          "durationTicks": 240,
          "midi": 61,
          "name": "C#4",
          "ticks": 14640,
          "time": 11.296285000000001,
          "velocity": 0.1968503937007874
        },
        {
          "duration": 0.15432083333333324,
          "durationTicks": 200,
          "midi": 51,
          "name": "D#3",
          "ticks": 14880,
          "time": 11.481470000000002,
          "velocity": 0.2283464566929134
        },
        {
          "duration": 0.1851850000000006,
          "durationTicks": 240,
          "midi": 34,
          "name": "A#1",
          "ticks": 15120,
          "time": 11.666655,
          "velocity": 0.3464566929133858
        },
        {
          "duration": 0.15432083333333324,
          "durationTicks": 200,
          "midi": 39,
          "name": "D#2",
          "ticks": 15360,
          "time": 11.851840000000001,
          "velocity": 0.4330708661417323
        },
        {
          "duration": 0.15432083333333324,
          "durationTicks": 200,
          "midi": 51,
          "name": "D#3",
          "ticks": 15360,
          "time": 11.851840000000001,
          "velocity": 0.4330708661417323
        },
        {
          "duration": 0.15432083333333324,
          "durationTicks": 200,
          "midi": 61,
          "name": "C#4",
          "ticks": 15360,
          "time": 11.851840000000001,
          "velocity": 0.2204724409448819
        },
        {
          "duration": 0.15432083333333324,
          "durationTicks": 200,
          "midi": 68,
          "name": "G#4",
          "ticks": 15360,
          "time": 11.851840000000001,
          "velocity": 0.2204724409448819
        },
        {
          "duration": 0.18518499999999882,
          "durationTicks": 240,
          "midi": 68,
          "name": "G#4",
          "ticks": 15600,
          "time": 12.037025000000002,
          "velocity": 0.18110236220472442
        },
        {
          "duration": 0.1851850000000006,
          "durationTicks": 240,
          "midi": 53,
          "name": "F3",
          "ticks": 15840,
          "time": 12.22221,
          "velocity": 0.2283464566929134
        },
        {
          "duration": 0.15432083333333324,
          "durationTicks": 200,
          "midi": 56,
          "name": "G#3",
          "ticks": 16080,
          "time": 12.407395000000001,
          "velocity": 0.23622047244094488
        },
        {
          "duration": 0.1851850000000006,
          "durationTicks": 240,
          "midi": 68,
          "name": "G#4",
          "ticks": 16080,
          "time": 12.407395000000001,
          "velocity": 0.1889763779527559
        },
        {
          "duration": 0.18518499999999882,
          "durationTicks": 240,
          "midi": 39,
          "name": "D#2",
          "ticks": 16320,
          "time": 12.592580000000002,
          "velocity": 0.3779527559055118
        },
        {
          "duration": 0.1851850000000006,
          "durationTicks": 240,
          "midi": 58,
          "name": "A#3",
          "ticks": 16560,
          "time": 12.777765,
          "velocity": 0.2283464566929134
        },
        {
          "duration": 0.15432083333333324,
          "durationTicks": 200,
          "midi": 61,
          "name": "C#4",
          "ticks": 16560,
          "time": 12.777765,
          "velocity": 0.2047244094488189
        },
        {
          "duration": 0.1851850000000006,
          "durationTicks": 240,
          "midi": 68,
          "name": "G#4",
          "ticks": 16560,
          "time": 12.777765,
          "velocity": 0.18110236220472442
        },
        {
          "duration": 0.1851850000000006,
          "durationTicks": 240,
          "midi": 53,
          "name": "F3",
          "ticks": 16800,
          "time": 12.962950000000001,
          "velocity": 0.2047244094488189
        },
        {
          "duration": 0.15432083333333146,
          "durationTicks": 200,
          "midi": 51,
          "name": "D#3",
          "ticks": 17040,
          "time": 13.148135000000002,
          "velocity": 0.23622047244094488
        },
        {
          "duration": 0.15432083333333146,
          "durationTicks": 200,
          "midi": 58,
          "name": "A#3",
          "ticks": 17040,
          "time": 13.148135000000002,
          "velocity": 0.1889763779527559
        },
        {
          "duration": 0.1851850000000006,
          "durationTicks": 240,
          "midi": 51,
          "name": "D#3",
          "ticks": 17280,
          "time": 13.33332,
          "velocity": 0.3937007874015748
        },
        {
          "duration": 0.1851850000000006,
          "durationTicks": 240,
          "midi": 54,
          "name": "F#3",
          "ticks": 17280,
          "time": 13.33332,
          "velocity": 0.2755905511811024
        },
        {
          "duration": 0.1851850000000006,
          "durationTicks": 240,
          "midi": 58,
          "name": "A#3",
          "ticks": 17280,
          "time": 13.33332,
          "velocity": 0.29133858267716534
        },
        {
          "duration": 0.1851850000000006,
          "durationTicks": 240,
          "midi": 61,
          "name": "C#4",
          "ticks": 17280,
          "time": 13.33332,
          "velocity": 0.25984251968503935
        },
        {
          "duration": 0.1851850000000006,
          "durationTicks": 240,
          "midi": 70,
          "name": "A#4",
          "ticks": 17280,
          "time": 13.33332,
          "velocity": 0.36220472440944884
        },
        {
          "duration": 0.1851850000000006,
          "durationTicks": 240,
          "midi": 73,
          "name": "C#5",
          "ticks": 17280,
          "time": 13.33332,
          "velocity": 0.23622047244094488
        },
        {
          "duration": 0.1851850000000006,
          "durationTicks": 240,
          "midi": 82,
          "name": "A#5",
          "ticks": 17280,
          "time": 13.33332,
          "velocity": 0.36220472440944884
        },
        {
          "duration": 0.21604916666666796,
          "durationTicks": 280,
          "midi": 73,
          "name": "C#5",
          "ticks": 17520,
          "time": 13.518505000000001,
          "velocity": 0.2047244094488189
        },
        {
          "duration": 0.15432083333333146,
          "durationTicks": 200,
          "midi": 58,
          "name": "A#3",
          "ticks": 17760,
          "time": 13.703690000000002,
          "velocity": 0.2125984251968504
        },
        {
          "duration": 0.1851850000000006,
          "durationTicks": 240,
          "midi": 54,
          "name": "F#3",
          "ticks": 18000,
          "time": 13.888875,
          "velocity": 0.1732283464566929
        },
        {
          "duration": 0.1851850000000006,
          "durationTicks": 240,
          "midi": 58,
          "name": "A#3",
          "ticks": 18000,
          "time": 13.888875,
          "velocity": 0.1889763779527559
        },
        {
          "duration": 0.1851850000000006,
          "durationTicks": 240,
          "midi": 66,
          "name": "F#4",
          "ticks": 18000,
          "time": 13.888875,
          "velocity": 0.18110236220472442
        },
        {
          "duration": 0.1851850000000006,
          "durationTicks": 240,
          "midi": 73,
          "name": "C#5",
          "ticks": 18000,
          "time": 13.888875,
          "velocity": 0.1889763779527559
        },
        {
          "duration": 0.33950583333333206,
          "durationTicks": 440,
          "midi": 37,
          "name": "C#2",
          "ticks": 18240,
          "time": 14.074060000000001,
          "velocity": 0.3779527559055118
        },
        {
          "duration": 0.33950583333333206,
          "durationTicks": 440,
          "midi": 49,
          "name": "C#3",
          "ticks": 18240,
          "time": 14.074060000000001,
          "velocity": 0.3779527559055118
        },
        {
          "duration": 0.33950583333333206,
          "durationTicks": 440,
          "midi": 53,
          "name": "F3",
          "ticks": 18240,
          "time": 14.074060000000001,
          "velocity": 0.2755905511811024
        },
        {
          "duration": 0.33950583333333206,
          "durationTicks": 440,
          "midi": 56,
          "name": "G#3",
          "ticks": 18240,
          "time": 14.074060000000001,
          "velocity": 0.28346456692913385
        },
        {
          "duration": 0.33950583333333206,
          "durationTicks": 440,
          "midi": 61,
          "name": "C#4",
          "ticks": 18240,
          "time": 14.074060000000001,
          "velocity": 0.2204724409448819
        },
        {
          "duration": 0.33950583333333206,
          "durationTicks": 440,
          "midi": 68,
          "name": "G#4",
          "ticks": 18240,
          "time": 14.074060000000001,
          "velocity": 0.2992125984251969
        },
        {
          "duration": 0.33950583333333206,
          "durationTicks": 440,
          "midi": 80,
          "name": "G#5",
          "ticks": 18240,
          "time": 14.074060000000001,
          "velocity": 0.4566929133858268
        },
        {
          "duration": 0.33950583333333206,
          "durationTicks": 440,
          "midi": 92,
          "name": "G#6",
          "ticks": 18240,
          "time": 14.074060000000001,
          "velocity": 0.4566929133858268
        },
        {
          "duration": 0.33950583333333384,
          "durationTicks": 440,
          "midi": 56,
          "name": "G#3",
          "ticks": 18720,
          "time": 14.44443,
          "velocity": 0.2204724409448819
        },
        {
          "duration": 0.33950583333333206,
          "durationTicks": 440,
          "midi": 35,
          "name": "B1",
          "ticks": 19200,
          "time": 14.814800000000002,
          "velocity": 0.4094488188976378
        },
        {
          "duration": 0.33950583333333206,
          "durationTicks": 440,
          "midi": 61,
          "name": "C#4",
          "ticks": 19200,
          "time": 14.814800000000002,
          "velocity": 0.2204724409448819
        },
        {
          "duration": 0.33950583333333206,
          "durationTicks": 440,
          "midi": 73,
          "name": "C#5",
          "ticks": 19200,
          "time": 14.814800000000002,
          "velocity": 0.2125984251968504
        },
        {
          "duration": 0.33950583333333206,
          "durationTicks": 440,
          "midi": 78,
          "name": "F#5",
          "ticks": 19200,
          "time": 14.814800000000002,
          "velocity": 0.5354330708661418
        },
        {
          "duration": 0.33950583333333206,
          "durationTicks": 440,
          "midi": 90,
          "name": "F#6",
          "ticks": 19200,
          "time": 14.814800000000002,
          "velocity": 0.5354330708661418
        },
        {
          "duration": 0.1851850000000006,
          "durationTicks": 240,
          "midi": 51,
          "name": "D#3",
          "ticks": 19680,
          "time": 15.185170000000001,
          "velocity": 0.2204724409448819
        },
        {
          "duration": 0.33950583333333206,
          "durationTicks": 440,
          "midi": 54,
          "name": "F#3",
          "ticks": 19920,
          "time": 15.370355000000002,
          "velocity": 0.30708661417322836
        },
        {
          "duration": 0.4012341666666668,
          "durationTicks": 520,
          "midi": 78,
          "name": "F#5",
          "ticks": 19920,
          "time": 15.370355000000002,
          "velocity": 0.2125984251968504
        },
        {
          "duration": 0.4012341666666668,
          "durationTicks": 520,
          "midi": 90,
          "name": "F#6",
          "ticks": 19920,
          "time": 15.370355000000002,
          "velocity": 0.2125984251968504
        },
        {
          "duration": 0.1851850000000006,
          "durationTicks": 240,
          "midi": 61,
          "name": "C#4",
          "ticks": 20400,
          "time": 15.740725000000001,
          "velocity": 0.2204724409448819
        },
        {
          "duration": 0.3703700000000012,
          "durationTicks": 480,
          "midi": 51,
          "name": "D#3",
          "ticks": 20640,
          "time": 15.925910000000002,
          "velocity": 0.2204724409448819
        },
        {
          "duration": 0.37036999999999765,
          "durationTicks": 480,
          "midi": 35,
          "name": "B1",
          "ticks": 21120,
          "time": 16.296280000000003,
          "velocity": 0.4251968503937008
        },
        {
          "duration": 0.37036999999999765,
          "durationTicks": 480,
          "midi": 56,
          "name": "G#3",
          "ticks": 21120,
          "time": 16.296280000000003,
          "velocity": 0.2125984251968504
        },
        {
          "duration": 0.37036999999999765,
          "durationTicks": 480,
          "midi": 59,
          "name": "B3",
          "ticks": 21120,
          "time": 16.296280000000003,
          "velocity": 0.2677165354330709
        },
        {
          "duration": 0.37036999999999765,
          "durationTicks": 480,
          "midi": 71,
          "name": "B4",
          "ticks": 21120,
          "time": 16.296280000000003,
          "velocity": 0.2440944881889764
        },
        {
          "duration": 0.15432083333333324,
          "durationTicks": 200,
          "midi": 51,
          "name": "D#3",
          "ticks": 21600,
          "time": 16.66665,
          "velocity": 0.2283464566929134
        },
        {
          "duration": 0.15432083333333324,
          "durationTicks": 200,
          "midi": 59,
          "name": "B3",
          "ticks": 21600,
          "time": 16.66665,
          "velocity": 0.25984251968503935
        },
        {
          "duration": 0.1851850000000006,
          "durationTicks": 240,
          "midi": 54,
          "name": "F#3",
          "ticks": 21840,
          "time": 16.851835,
          "velocity": 0.1968503937007874
        },
        {
          "duration": 0.15432083333333324,
          "durationTicks": 200,
          "midi": 56,
          "name": "G#3",
          "ticks": 22080,
          "time": 17.037020000000002,
          "velocity": 0.2047244094488189
        },
        {
          "duration": 0.15432083333333324,
          "durationTicks": 200,
          "midi": 71,
          "name": "B4",
          "ticks": 22080,
          "time": 17.037020000000002,
          "velocity": 0.2992125984251969
        },
        {
          "duration": 0.1851850000000006,
          "durationTicks": 240,
          "midi": 56,
          "name": "G#3",
          "ticks": 22320,
          "time": 17.222205000000002,
          "velocity": 0.2204724409448819
        },
        {
          "duration": 0.1851850000000006,
          "durationTicks": 240,
          "midi": 59,
          "name": "B3",
          "ticks": 22320,
          "time": 17.222205000000002,
          "velocity": 0.2677165354330709
        },
        {
          "duration": 0.18518499999999705,
          "durationTicks": 240,
          "midi": 51,
          "name": "D#3",
          "ticks": 22560,
          "time": 17.407390000000003,
          "velocity": 0.2204724409448819
        },
        {
          "duration": 0.15432083333333324,
          "durationTicks": 200,
          "midi": 42,
          "name": "F#2",
          "ticks": 22800,
          "time": 17.592575,
          "velocity": 0.2677165354330709
        },
        {
          "duration": 0.3703700000000012,
          "durationTicks": 480,
          "midi": 47,
          "name": "B2",
          "ticks": 23040,
          "time": 17.77776,
          "velocity": 0.3543307086614173
        },
        {
          "duration": 0.3703700000000012,
          "durationTicks": 480,
          "midi": 58,
          "name": "A#3",
          "ticks": 23040,
          "time": 17.77776,
          "velocity": 0.2440944881889764
        },
        {
          "duration": 0.3703700000000012,
          "durationTicks": 480,
          "midi": 61,
          "name": "C#4",
          "ticks": 23040,
          "time": 17.77776,
          "velocity": 0.2677165354330709
        },
        {
          "duration": 0.3703700000000012,
          "durationTicks": 480,
          "midi": 73,
          "name": "C#5",
          "ticks": 23040,
          "time": 17.77776,
          "velocity": 0.4251968503937008
        },
        {
          "duration": 0.3703700000000012,
          "durationTicks": 480,
          "midi": 85,
          "name": "C#6",
          "ticks": 23040,
          "time": 17.77776,
          "velocity": 0.4251968503937008
        },
        {
          "duration": 0.1851850000000006,
          "durationTicks": 240,
          "midi": 50,
          "name": "D3",
          "ticks": 23520,
          "time": 18.148130000000002,
          "velocity": 0.2047244094488189
        },
        {
          "duration": 0.1851850000000006,
          "durationTicks": 240,
          "midi": 62,
          "name": "D4",
          "ticks": 23520,
          "time": 18.148130000000002,
          "velocity": 0.2125984251968504
        },
        {
          "duration": 0.3395058333333303,
          "durationTicks": 440,
          "midi": 54,
          "name": "F#3",
          "ticks": 23760,
          "time": 18.333315000000002,
          "velocity": 0.23622047244094488
        },
        {
          "duration": 0.3395058333333303,
          "durationTicks": 440,
          "midi": 58,
          "name": "A#3",
          "ticks": 23760,
          "time": 18.333315000000002,
          "velocity": 0.2992125984251969
        },
        {
          "duration": 0.1851850000000006,
          "durationTicks": 240,
          "midi": 58,
          "name": "A#3",
          "ticks": 24240,
          "time": 18.703685,
          "velocity": 0.30708661417322836
        },
        {
          "duration": 0.3703700000000012,
          "durationTicks": 480,
          "midi": 50,
          "name": "D3",
          "ticks": 24480,
          "time": 18.88887,
          "velocity": 0.2047244094488189
        },
        {
          "duration": 0.15432083333333324,
          "durationTicks": 200,
          "midi": 56,
          "name": "G#3",
          "ticks": 24960,
          "time": 19.259240000000002,
          "velocity": 0.1889763779527559
        },
        {
          "duration": 0.15432083333333324,
          "durationTicks": 200,
          "midi": 59,
          "name": "B3",
          "ticks": 24960,
          "time": 19.259240000000002,
          "velocity": 0.31496062992125984
        },
        {
          "duration": 0.15432083333333324,
          "durationTicks": 200,
          "midi": 68,
          "name": "G#4",
          "ticks": 24960,
          "time": 19.259240000000002,
          "velocity": 0.1889763779527559
        },
        {
          "duration": 0.15432083333333324,
          "durationTicks": 200,
          "midi": 71,
          "name": "B4",
          "ticks": 24960,
          "time": 19.259240000000002,
          "velocity": 0.30708661417322836
        },
        {
          "duration": 0.1851850000000006,
          "durationTicks": 240,
          "midi": 66,
          "name": "F#4",
          "ticks": 25200,
          "time": 19.444425000000003,
          "velocity": 0.2283464566929134
        },
        {
          "duration": 0.18518499999999705,
          "durationTicks": 240,
          "midi": 50,
          "name": "D3",
          "ticks": 25440,
          "time": 19.629610000000003,
          "velocity": 0.1968503937007874
        },
        {
          "duration": 0.2160491666666644,
          "durationTicks": 280,
          "midi": 68,
          "name": "G#4",
          "ticks": 25440,
          "time": 19.629610000000003,
          "velocity": 0.2125984251968504
        },
        {
          "duration": 0.1851850000000006,
          "durationTicks": 240,
          "midi": 54,
          "name": "F#3",
          "ticks": 25680,
          "time": 19.814795,
          "velocity": 0.2204724409448819
        },
        {
          "duration": 0.1851850000000006,
          "durationTicks": 240,
          "midi": 66,
          "name": "F#4",
          "ticks": 25680,
          "time": 19.814795,
          "velocity": 0.1968503937007874
        },
        {
          "duration": 0.1851850000000006,
          "durationTicks": 240,
          "midi": 54,
          "name": "F#3",
          "ticks": 25920,
          "time": 19.99998,
          "velocity": 0.2992125984251969
        },
        {
          "duration": 0.1851850000000006,
          "durationTicks": 240,
          "midi": 59,
          "name": "B3",
          "ticks": 25920,
          "time": 19.99998,
          "velocity": 0.2283464566929134
        },
        {
          "duration": 0.1851850000000006,
          "durationTicks": 240,
          "midi": 62,
          "name": "D4",
          "ticks": 25920,
          "time": 19.99998,
          "velocity": 0.2204724409448819
        },
        {
          "duration": 0.1851850000000006,
          "durationTicks": 240,
          "midi": 66,
          "name": "F#4",
          "ticks": 25920,
          "time": 19.99998,
          "velocity": 0.28346456692913385
        },
        {
          "duration": 0.1851850000000006,
          "durationTicks": 240,
          "midi": 38,
          "name": "D2",
          "ticks": 26160,
          "time": 20.185165,
          "velocity": 0.2125984251968504
        },
        {
          "duration": 0.1851850000000006,
          "durationTicks": 240,
          "midi": 47,
          "name": "B2",
          "ticks": 26160,
          "time": 20.185165,
          "velocity": 0.2677165354330709
        },
        {
          "duration": 0.1851850000000006,
          "durationTicks": 240,
          "midi": 44,
          "name": "G#2",
          "ticks": 26400,
          "time": 20.370350000000002,
          "velocity": 0.2440944881889764
        },
        {
          "duration": 0.21604916666666796,
          "durationTicks": 280,
          "midi": 45,
          "name": "A2",
          "ticks": 26640,
          "time": 20.555535000000003,
          "velocity": 0.25196850393700787
        },
        {
          "duration": 0.37036999999999765,
          "durationTicks": 480,
          "midi": 46,
          "name": "A#2",
          "ticks": 26880,
          "time": 20.740720000000003,
          "velocity": 0.3464566929133858
        },
        {
          "duration": 0.37036999999999765,
          "durationTicks": 480,
          "midi": 53,
          "name": "F3",
          "ticks": 26880,
          "time": 20.740720000000003,
          "velocity": 0.2677165354330709
        },
        {
          "duration": 0.37036999999999765,
          "durationTicks": 480,
          "midi": 56,
          "name": "G#3",
          "ticks": 26880,
          "time": 20.740720000000003,
          "velocity": 0.2125984251968504
        },
        {
          "duration": 0.37036999999999765,
          "durationTicks": 480,
          "midi": 61,
          "name": "C#4",
          "ticks": 26880,
          "time": 20.740720000000003,
          "velocity": 0.23622047244094488
        },
        {
          "duration": 0.37036999999999765,
          "durationTicks": 480,
          "midi": 65,
          "name": "F4",
          "ticks": 26880,
          "time": 20.740720000000003,
          "velocity": 0.2125984251968504
        },
        {
          "duration": 0.37036999999999765,
          "durationTicks": 480,
          "midi": 68,
          "name": "G#4",
          "ticks": 26880,
          "time": 20.740720000000003,
          "velocity": 0.1889763779527559
        },
        {
          "duration": 0.37036999999999765,
          "durationTicks": 480,
          "midi": 70,
          "name": "A#4",
          "ticks": 26880,
          "time": 20.740720000000003,
          "velocity": 0.31496062992125984
        },
        {
          "duration": 0.37036999999999765,
          "durationTicks": 480,
          "midi": 82,
          "name": "A#5",
          "ticks": 26880,
          "time": 20.740720000000003,
          "velocity": 0.2992125984251969
        },
        {
          "duration": 0.1851850000000006,
          "durationTicks": 240,
          "midi": 53,
          "name": "F3",
          "ticks": 27360,
          "time": 21.11109,
          "velocity": 0.28346456692913385
        },
        {
          "duration": 0.3703700000000012,
          "durationTicks": 480,
          "midi": 56,
          "name": "G#3",
          "ticks": 27600,
          "time": 21.296275,
          "velocity": 0.29133858267716534
        },
        {
          "duration": 0.1851850000000006,
          "durationTicks": 240,
          "midi": 38,
          "name": "D2",
          "ticks": 28080,
          "time": 21.666645000000003,
          "velocity": 0.25984251968503935
        },
        {
          "duration": 0.21604916666666796,
          "durationTicks": 280,
          "midi": 41,
          "name": "F2",
          "ticks": 28320,
          "time": 21.851830000000003,
          "velocity": 0.3464566929133858
        },
        {
          "duration": 0.21604916666666796,
          "durationTicks": 280,
          "midi": 53,
          "name": "F3",
          "ticks": 28320,
          "time": 21.851830000000003,
          "velocity": 0.3464566929133858
        },
        {
          "duration": 0.1851850000000006,
          "durationTicks": 240,
          "midi": 40,
          "name": "E2",
          "ticks": 28560,
          "time": 22.037015,
          "velocity": 0.30708661417322836
        },
        {
          "duration": 0.33950583333333384,
          "durationTicks": 440,
          "midi": 39,
          "name": "D#2",
          "ticks": 28800,
          "time": 22.2222,
          "velocity": 0.28346456692913385
        },
        {
          "duration": 0.33950583333333384,
          "durationTicks": 440,
          "midi": 49,
          "name": "C#3",
          "ticks": 28800,
          "time": 22.2222,
          "velocity": 0.3228346456692913
        },
        {
          "duration": 0.33950583333333384,
          "durationTicks": 440,
          "midi": 55,
          "name": "G3",
          "ticks": 28800,
          "time": 22.2222,
          "velocity": 0.28346456692913385
        },
        {
          "duration": 0.40123416666666856,
          "durationTicks": 520,
          "midi": 60,
          "name": "C4",
          "ticks": 28800,
          "time": 22.2222,
          "velocity": 0.2047244094488189
        },
        {
          "duration": 0.40123416666666856,
          "durationTicks": 520,
          "midi": 64,
          "name": "E4",
          "ticks": 28800,
          "time": 22.2222,
          "velocity": 0.28346456692913385
        },
        {
          "duration": 0.33950583333333384,
          "durationTicks": 440,
          "midi": 67,
          "name": "G4",
          "ticks": 28800,
          "time": 22.2222,
          "velocity": 0.28346456692913385
        },
        {
          "duration": 0.40123416666666856,
          "durationTicks": 520,
          "midi": 76,
          "name": "E5",
          "ticks": 28800,
          "time": 22.2222,
          "velocity": 0.3464566929133858
        },
        {
          "duration": 0.1851850000000006,
          "durationTicks": 240,
          "midi": 55,
          "name": "G3",
          "ticks": 29280,
          "time": 22.592570000000002,
          "velocity": 0.2677165354330709
        },
        {
          "duration": 0.3395058333333303,
          "durationTicks": 440,
          "midi": 60,
          "name": "C4",
          "ticks": 29520,
          "time": 22.777755000000003,
          "velocity": 0.2047244094488189
        },
        {
          "duration": 0.1851850000000006,
          "durationTicks": 240,
          "midi": 33,
          "name": "A1",
          "ticks": 30000,
          "time": 23.148125,
          "velocity": 0.28346456692913385
        },
        {
          "duration": 0.1851850000000006,
          "durationTicks": 240,
          "midi": 34,
          "name": "A#1",
          "ticks": 30240,
          "time": 23.33331,
          "velocity": 0.2677165354330709
        },
        {
          "duration": 0.1851850000000006,
          "durationTicks": 240,
          "midi": 33,
          "name": "A1",
          "ticks": 30480,
          "time": 23.518495,
          "velocity": 0.2755905511811024
        },
        {
          "duration": 0.3703700000000012,
          "durationTicks": 480,
          "midi": 32,
          "name": "G#1",
          "ticks": 30720,
          "time": 23.703680000000002,
          "velocity": 0.41732283464566927
        },
        {
          "duration": 0.3703700000000012,
          "durationTicks": 480,
          "midi": 51,
          "name": "D#3",
          "ticks": 30720,
          "time": 23.703680000000002,
          "velocity": 0.36220472440944884
        },
        {
          "duration": 0.3703700000000012,
          "durationTicks": 480,
          "midi": 54,
          "name": "F#3",
          "ticks": 30720,
          "time": 23.703680000000002,
          "velocity": 0.2204724409448819
        },
        {
          "duration": 0.3703700000000012,
          "durationTicks": 480,
          "midi": 59,
          "name": "B3",
          "ticks": 30720,
          "time": 23.703680000000002,
          "velocity": 0.2204724409448819
        },
        {
          "duration": 0.3703700000000012,
          "durationTicks": 480,
          "midi": 63,
          "name": "D#4",
          "ticks": 30720,
          "time": 23.703680000000002,
          "velocity": 0.2677165354330709
        },
        {
          "duration": 0.3703700000000012,
          "durationTicks": 480,
          "midi": 66,
          "name": "F#4",
          "ticks": 30720,
          "time": 23.703680000000002,
          "velocity": 0.2204724409448819
        },
        {
          "duration": 0.3703700000000012,
          "durationTicks": 480,
          "midi": 75,
          "name": "D#5",
          "ticks": 30720,
          "time": 23.703680000000002,
          "velocity": 0.36220472440944884
        },
        {
          "duration": 0.3703700000000012,
          "durationTicks": 480,
          "midi": 87,
          "name": "D#6",
          "ticks": 30720,
          "time": 23.703680000000002,
          "velocity": 0.36220472440944884
        },
        {
          "duration": 0.2160491666666644,
          "durationTicks": 280,
          "midi": 66,
          "name": "F#4",
          "ticks": 31200,
          "time": 24.074050000000003,
          "velocity": 0.2992125984251969
        },
        {
          "duration": 0.18518499999999705,
          "durationTicks": 240,
          "midi": 59,
          "name": "B3",
          "ticks": 31440,
          "time": 24.259235000000004,
          "velocity": 0.2677165354330709
        },
        {
          "duration": 0.09259249999999852,
          "durationTicks": 120,
          "midi": 58,
          "name": "A#3",
          "ticks": 31560,
          "time": 24.351827500000002,
          "velocity": 0.2047244094488189
        },
        {
          "duration": 0.1543208333333368,
          "durationTicks": 200,
          "midi": 32,
          "name": "G#1",
          "ticks": 31680,
          "time": 24.44442,
          "velocity": 0.30708661417322836
        },
        {
          "duration": 0.1543208333333368,
          "durationTicks": 200,
          "midi": 66,
          "name": "F#4",
          "ticks": 31680,
          "time": 24.44442,
          "velocity": 0.3937007874015748
        },
        {
          "duration": 0.3395058333333374,
          "durationTicks": 440,
          "midi": 34,
          "name": "A#1",
          "ticks": 31920,
          "time": 24.629605,
          "velocity": 0.29133858267716534
        },
        {
          "duration": 0.3703700000000012,
          "durationTicks": 480,
          "midi": 61,
          "name": "C#4",
          "ticks": 31920,
          "time": 24.629605,
          "velocity": 0.1889763779527559
        },
        {
          "duration": 0.3703700000000012,
          "durationTicks": 480,
          "midi": 68,
          "name": "G#4",
          "ticks": 31920,
          "time": 24.629605,
          "velocity": 0.2204724409448819
        },
        {
          "duration": 0.15432083333333324,
          "durationTicks": 200,
          "midi": 36,
          "name": "C2",
          "ticks": 32400,
          "time": 24.999975000000003,
          "velocity": 0.2992125984251969
        },
        {
          "duration": 0.1851850000000006,
          "durationTicks": 240,
          "midi": 65,
          "name": "F4",
          "ticks": 32400,
          "time": 24.999975000000003,
          "velocity": 0.2047244094488189
        },
        {
          "duration": 0.1851850000000006,
          "durationTicks": 240,
          "midi": 37,
          "name": "C#2",
          "ticks": 32640,
          "time": 25.185160000000003,
          "velocity": 0.36220472440944884
        },
        {
          "duration": 0.1851850000000006,
          "durationTicks": 240,
          "midi": 53,
          "name": "F3",
          "ticks": 32640,
          "time": 25.185160000000003,
          "velocity": 0.23622047244094488
        },
        {
          "duration": 0.1851850000000006,
          "durationTicks": 240,
          "midi": 54,
          "name": "F#3",
          "ticks": 32640,
          "time": 25.185160000000003,
          "velocity": 0.2755905511811024
        },
        {
          "duration": 0.1851850000000006,
          "durationTicks": 240,
          "midi": 63,
          "name": "D#4",
          "ticks": 32640,
          "time": 25.185160000000003,
          "velocity": 0.2440944881889764
        },
        {
          "duration": 0.1851850000000006,
          "durationTicks": 240,
          "midi": 66,
          "name": "F#4",
          "ticks": 32640,
          "time": 25.185160000000003,
          "velocity": 0.2755905511811024
        },
        {
          "duration": 0.1851850000000006,
          "durationTicks": 240,
          "midi": 68,
          "name": "G#4",
          "ticks": 32640,
          "time": 25.185160000000003,
          "velocity": 0.2440944881889764
        },
        {
          "duration": 0.1851850000000006,
          "durationTicks": 240,
          "midi": 94,
          "name": "A#6",
          "ticks": 32640,
          "time": 25.185160000000003,
          "velocity": 0.25984251968503935
        },
        {
          "duration": 0.12345666666666588,
          "durationTicks": 160,
          "midi": 70,
          "name": "A#4",
          "ticks": 33000,
          "time": 25.462937500000002,
          "velocity": 0.2440944881889764
        },
        {
          "duration": 0.1851850000000006,
          "durationTicks": 240,
          "midi": 54,
          "name": "F#3",
          "ticks": 33120,
          "time": 25.55553,
          "velocity": 0.25984251968503935
        },
        {
          "duration": 0.1851850000000006,
          "durationTicks": 240,
          "midi": 59,
          "name": "B3",
          "ticks": 33120,
          "time": 25.55553,
          "velocity": 0.2440944881889764
        },
        {
          "duration": 0.1543208333333368,
          "durationTicks": 200,
          "midi": 61,
          "name": "C#4",
          "ticks": 33120,
          "time": 25.55553,
          "velocity": 0.2440944881889764
        },
        {
          "duration": 0.09259249999999852,
          "durationTicks": 120,
          "midi": 68,
          "name": "G#4",
          "ticks": 33240,
          "time": 25.648122500000003,
          "velocity": 0.2125984251968504
        },
        {
          "duration": 0.09259249999999852,
          "durationTicks": 120,
          "midi": 72,
          "name": "C5",
          "ticks": 33240,
          "time": 25.648122500000003,
          "velocity": 0.2047244094488189
        },
        {
          "duration": 0.2160491666666644,
          "durationTicks": 280,
          "midi": 59,
          "name": "B3",
          "ticks": 33360,
          "time": 25.740715,
          "velocity": 0.25984251968503935
        },
        {
          "duration": 0.2777774999999991,
          "durationTicks": 360,
          "midi": 74,
          "name": "D5",
          "ticks": 33480,
          "time": 25.833307500000004,
          "velocity": 0.2125984251968504
        },
        {
          "duration": 0.1851850000000006,
          "durationTicks": 240,
          "midi": 59,
          "name": "B3",
          "ticks": 33600,
          "time": 25.925900000000002,
          "velocity": 0.29133858267716534
        },
        {
          "duration": 0.1851850000000006,
          "durationTicks": 240,
          "midi": 70,
          "name": "A#4",
          "ticks": 33600,
          "time": 25.925900000000002,
          "velocity": 0.25984251968503935
        },
        {
          "duration": 0.09259250000000208,
          "durationTicks": 120,
          "midi": 72,
          "name": "C5",
          "ticks": 33720,
          "time": 26.0184925,
          "velocity": 0.1968503937007874
        },
        {
          "duration": 0.09259250000000208,
          "durationTicks": 120,
          "midi": 76,
          "name": "E5",
          "ticks": 33720,
          "time": 26.0184925,
          "velocity": 0.2047244094488189
        },
        {
          "duration": 0.1851850000000006,
          "durationTicks": 240,
          "midi": 77,
          "name": "F5",
          "ticks": 33840,
          "time": 26.111085000000003,
          "velocity": 0.2047244094488189
        },
        {
          "duration": 0.2777775000000027,
          "durationTicks": 360,
          "midi": 74,
          "name": "D5",
          "ticks": 33960,
          "time": 26.2036775,
          "velocity": 0.2047244094488189
        },
        {
          "duration": 0.24691333333333532,
          "durationTicks": 320,
          "midi": 75,
          "name": "D#5",
          "ticks": 33960,
          "time": 26.2036775,
          "velocity": 0.2204724409448819
        },
        {
          "duration": 0.1851850000000006,
          "durationTicks": 240,
          "midi": 79,
          "name": "G5",
          "ticks": 34080,
          "time": 26.296270000000003,
          "velocity": 0.2047244094488189
        },
        {
          "duration": 0.12345666666666588,
          "durationTicks": 160,
          "midi": 76,
          "name": "E5",
          "ticks": 34200,
          "time": 26.388862500000002,
          "velocity": 0.1968503937007874
        },
        {
          "duration": 0.12345666666666588,
          "durationTicks": 160,
          "midi": 78,
          "name": "F#5",
          "ticks": 34200,
          "time": 26.388862500000002,
          "velocity": 0.2283464566929134
        },
        {
          "duration": 0.24691333333333532,
          "durationTicks": 320,
          "midi": 80,
          "name": "G#5",
          "ticks": 34200,
          "time": 26.388862500000002,
          "velocity": 0.2047244094488189
        },
        {
          "duration": 0.18518499999999705,
          "durationTicks": 240,
          "midi": 32,
          "name": "G#1",
          "ticks": 34320,
          "time": 26.481455000000004,
          "velocity": 0.28346456692913385
        },
        {
          "duration": 0.2160491666666644,
          "durationTicks": 280,
          "midi": 77,
          "name": "F5",
          "ticks": 34320,
          "time": 26.481455000000004,
          "velocity": 0.2283464566929134
        },
        {
          "duration": 0.15432083333333324,
          "durationTicks": 200,
          "midi": 82,
          "name": "A#5",
          "ticks": 34320,
          "time": 26.481455000000004,
          "velocity": 0.25196850393700787
        },
        {
          "duration": 0.9876533333333342,
          "durationTicks": 1280,
          "midi": 71,
          "name": "B4",
          "ticks": 34440,
          "time": 26.574047500000002,
          "velocity": 0.2125984251968504
        },
        {
          "duration": 0.8950608333333356,
          "durationTicks": 1160,
          "midi": 37,
          "name": "C#2",
          "ticks": 34560,
          "time": 26.66664,
          "velocity": 0.33070866141732286
        },
        {
          "duration": 0.18518499999999705,
          "durationTicks": 240,
          "midi": 61,
          "name": "C#4",
          "ticks": 35760,
          "time": 27.592565000000004,
          "velocity": 0.30708661417322836
        },
        {
          "duration": 0.1851850000000006,
          "durationTicks": 240,
          "midi": 61,
          "name": "C#4",
          "ticks": 36000,
          "time": 27.77775,
          "velocity": 0.3858267716535433
        },
        {
          "duration": 0.1851850000000006,
          "durationTicks": 240,
          "midi": 63,
          "name": "D#4",
          "ticks": 36240,
          "time": 27.962935,
          "velocity": 0.3937007874015748
        },
        {
          "duration": 0.5555550000000018,
          "durationTicks": 720,
          "midi": 66,
          "name": "F#4",
          "ticks": 36480,
          "time": 28.148120000000002,
          "velocity": 0.6299212598425197
        },
        {
          "duration": 0.37036999999999765,
          "durationTicks": 480,
          "midi": 61,
          "name": "C#4",
          "ticks": 37200,
          "time": 28.703675000000004,
          "velocity": 0.3858267716535433
        },
        {
          "duration": 0.24691333333333532,
          "durationTicks": 320,
          "midi": 58,
          "name": "A#3",
          "ticks": 37560,
          "time": 28.981452500000003,
          "velocity": 0.6377952755905512
        },
        {
          "duration": 0.1543208333333368,
          "durationTicks": 200,
          "midi": 56,
          "name": "G#3",
          "ticks": 37920,
          "time": 29.259230000000002,
          "velocity": 0.3779527559055118
        },
        {
          "duration": 0.1851850000000006,
          "durationTicks": 240,
          "midi": 58,
          "name": "A#3",
          "ticks": 38160,
          "time": 29.444415000000003,
          "velocity": 0.48031496062992124
        },
        {
          "duration": 0.33950583333333384,
          "durationTicks": 440,
          "midi": 30,
          "name": "F#1",
          "ticks": 38400,
          "time": 29.629600000000003,
          "velocity": 0.5039370078740157
        },
        {
          "duration": 0.33950583333333384,
          "durationTicks": 440,
          "midi": 49,
          "name": "C#3",
          "ticks": 38400,
          "time": 29.629600000000003,
          "velocity": 0.4645669291338583
        },
        {
          "duration": 0.33950583333333384,
          "durationTicks": 440,
          "midi": 53,
          "name": "F3",
          "ticks": 38400,
          "time": 29.629600000000003,
          "velocity": 0.2047244094488189
        },
        {
          "duration": 0.33950583333333384,
          "durationTicks": 440,
          "midi": 56,
          "name": "G#3",
          "ticks": 38400,
          "time": 29.629600000000003,
          "velocity": 0.1968503937007874
        },
        {
          "duration": 0.33950583333333384,
          "durationTicks": 440,
          "midi": 58,
          "name": "A#3",
          "ticks": 38400,
          "time": 29.629600000000003,
          "velocity": 0.3779527559055118
        },
        {
          "duration": 0.1851850000000006,
          "durationTicks": 240,
          "midi": 53,
          "name": "F3",
          "ticks": 38880,
          "time": 29.99997,
          "velocity": 0.25984251968503935
        },
        {
          "duration": 0.3703700000000012,
          "durationTicks": 480,
          "midi": 56,
          "name": "G#3",
          "ticks": 39120,
          "time": 30.185155,
          "velocity": 0.2755905511811024
        },
        {
          "duration": 0.3703700000000012,
          "durationTicks": 480,
          "midi": 58,
          "name": "A#3",
          "ticks": 39120,
          "time": 30.185155,
          "velocity": 0.25984251968503935
        },
        {
          "duration": 0.3703700000000012,
          "durationTicks": 480,
          "midi": 61,
          "name": "C#4",
          "ticks": 39120,
          "time": 30.185155,
          "velocity": 0.2047244094488189
        },
        {
          "duration": 0.1851850000000006,
          "durationTicks": 240,
          "midi": 58,
          "name": "A#3",
          "ticks": 39600,
          "time": 30.555525000000003,
          "velocity": 0.2204724409448819
        },
        {
          "duration": 0.37036999999999765,
          "durationTicks": 480,
          "midi": 53,
          "name": "F3",
          "ticks": 39840,
          "time": 30.740710000000004,
          "velocity": 0.28346456692913385
        },
        {
          "duration": 0.3703700000000012,
          "durationTicks": 480,
          "midi": 42,
          "name": "F#2",
          "ticks": 40320,
          "time": 31.11108,
          "velocity": 0.2992125984251969
        },
        {
          "duration": 0.3703700000000012,
          "durationTicks": 480,
          "midi": 51,
          "name": "D#3",
          "ticks": 40320,
          "time": 31.11108,
          "velocity": 0.3464566929133858
        },
        {
          "duration": 0.3703700000000012,
          "durationTicks": 480,
          "midi": 58,
          "name": "A#3",
          "ticks": 40320,
          "time": 31.11108,
          "velocity": 0.2047244094488189
        },
        {
          "duration": 0.3703700000000012,
          "durationTicks": 480,
          "midi": 61,
          "name": "C#4",
          "ticks": 40320,
          "time": 31.11108,
          "velocity": 0.25196850393700787
        },
        {
          "duration": 0.1543208333333368,
          "durationTicks": 200,
          "midi": 51,
          "name": "D#3",
          "ticks": 40800,
          "time": 31.481450000000002,
          "velocity": 0.2440944881889764
        },
        {
          "duration": 0.37036999999999765,
          "durationTicks": 480,
          "midi": 51,
          "name": "D#3",
          "ticks": 41040,
          "time": 31.666635000000003,
          "velocity": 0.2283464566929134
        },
        {
          "duration": 0.37036999999999765,
          "durationTicks": 480,
          "midi": 54,
          "name": "F#3",
          "ticks": 41040,
          "time": 31.666635000000003,
          "velocity": 0.2283464566929134
        },
        {
          "duration": 0.37036999999999765,
          "durationTicks": 480,
          "midi": 58,
          "name": "A#3",
          "ticks": 41040,
          "time": 31.666635000000003,
          "velocity": 0.2204724409448819
        },
        {
          "duration": 0.37036999999999765,
          "durationTicks": 480,
          "midi": 61,
          "name": "C#4",
          "ticks": 41040,
          "time": 31.666635000000003,
          "velocity": 0.2204724409448819
        },
        {
          "duration": 0.18518500000000415,
          "durationTicks": 240,
          "midi": 61,
          "name": "C#4",
          "ticks": 41520,
          "time": 32.037005,
          "velocity": 0.2283464566929134
        },
        {
          "duration": 0.1543208333333297,
          "durationTicks": 200,
          "midi": 51,
          "name": "D#3",
          "ticks": 41760,
          "time": 32.222190000000005,
          "velocity": 0.28346456692913385
        },
        {
          "duration": 0.1543208333333297,
          "durationTicks": 200,
          "midi": 61,
          "name": "C#4",
          "ticks": 41760,
          "time": 32.222190000000005,
          "velocity": 0.2047244094488189
        },
        {
          "duration": 0.18518500000000415,
          "durationTicks": 240,
          "midi": 37,
          "name": "C#2",
          "ticks": 42000,
          "time": 32.407375,
          "velocity": 0.29133858267716534
        },
        {
          "duration": 0.33950583333333384,
          "durationTicks": 440,
          "midi": 30,
          "name": "F#1",
          "ticks": 42240,
          "time": 32.592560000000006,
          "velocity": 0.4015748031496063
        },
        {
          "duration": 0.33950583333333384,
          "durationTicks": 440,
          "midi": 42,
          "name": "F#2",
          "ticks": 42240,
          "time": 32.592560000000006,
          "velocity": 0.4015748031496063
        },
        {
          "duration": 0.33950583333333384,
          "durationTicks": 440,
          "midi": 53,
          "name": "F3",
          "ticks": 42240,
          "time": 32.592560000000006,
          "velocity": 0.2283464566929134
        },
        {
          "duration": 0.40123416666666145,
          "durationTicks": 520,
          "midi": 56,
          "name": "G#3",
          "ticks": 42240,
          "time": 32.592560000000006,
          "velocity": 0.2204724409448819
        },
        {
          "duration": 0.33950583333333384,
          "durationTicks": 440,
          "midi": 61,
          "name": "C#4",
          "ticks": 42240,
          "time": 32.592560000000006,
          "velocity": 0.2283464566929134
        },
        {
          "duration": 0.18518500000000415,
          "durationTicks": 240,
          "midi": 53,
          "name": "F3",
          "ticks": 42720,
          "time": 32.96293,
          "velocity": 0.2204724409448819
        },
        {
          "duration": 0.18518500000000415,
          "durationTicks": 240,
          "midi": 61,
          "name": "C#4",
          "ticks": 42720,
          "time": 32.96293,
          "velocity": 0.2047244094488189
        },
        {
          "duration": 0.40123416666666145,
          "durationTicks": 520,
          "midi": 53,
          "name": "F3",
          "ticks": 42960,
          "time": 33.148115000000004,
          "velocity": 0.2283464566929134
        },
        {
          "duration": 0.40123416666666145,
          "durationTicks": 520,
          "midi": 56,
          "name": "G#3",
          "ticks": 42960,
          "time": 33.148115000000004,
          "velocity": 0.2677165354330709
        },
        {
          "duration": 0.40123416666666145,
          "durationTicks": 520,
          "midi": 58,
          "name": "A#3",
          "ticks": 42960,
          "time": 33.148115000000004,
          "velocity": 0.1889763779527559
        },
        {
          "duration": 0.40123416666666145,
          "durationTicks": 520,
          "midi": 61,
          "name": "C#4",
          "ticks": 42960,
          "time": 33.148115000000004,
          "velocity": 0.2440944881889764
        },
        {
          "duration": 0.18518499999999705,
          "durationTicks": 240,
          "midi": 61,
          "name": "C#4",
          "ticks": 43440,
          "time": 33.518485000000005,
          "velocity": 0.5354330708661418
        },
        {
          "duration": 0.33950583333333384,
          "durationTicks": 440,
          "midi": 53,
          "name": "F3",
          "ticks": 43680,
          "time": 33.70367,
          "velocity": 0.2440944881889764
        },
        {
          "duration": 0.33950583333333384,
          "durationTicks": 440,
          "midi": 58,
          "name": "A#3",
          "ticks": 43680,
          "time": 33.70367,
          "velocity": 0.1968503937007874
        },
        {
          "duration": 0.3703700000000012,
          "durationTicks": 480,
          "midi": 61,
          "name": "C#4",
          "ticks": 43680,
          "time": 33.70367,
          "velocity": 0.4566929133858268
        },
        {
          "duration": 0.5555549999999982,
          "durationTicks": 720,
          "midi": 42,
          "name": "F#2",
          "ticks": 44160,
          "time": 34.074040000000004,
          "velocity": 0.41732283464566927
        },
        {
          "duration": 0.5555549999999982,
          "durationTicks": 720,
          "midi": 51,
          "name": "D#3",
          "ticks": 44160,
          "time": 34.074040000000004,
          "velocity": 0.33070866141732286
        },
        {
          "duration": 0.5555549999999982,
          "durationTicks": 720,
          "midi": 58,
          "name": "A#3",
          "ticks": 44160,
          "time": 34.074040000000004,
          "velocity": 0.2047244094488189
        },
        {
          "duration": 0.5555549999999982,
          "durationTicks": 720,
          "midi": 61,
          "name": "C#4",
          "ticks": 44160,
          "time": 34.074040000000004,
          "velocity": 0.33858267716535434
        },
        {
          "duration": 0.5555549999999982,
          "durationTicks": 720,
          "midi": 66,
          "name": "F#4",
          "ticks": 44160,
          "time": 34.074040000000004,
          "velocity": 0.36220472440944884
        },
        {
          "duration": 0.1543208333333368,
          "durationTicks": 200,
          "midi": 61,
          "name": "C#4",
          "ticks": 44880,
          "time": 34.629595,
          "velocity": 0.4094488188976378
        },
        {
          "duration": 0.1543208333333297,
          "durationTicks": 200,
          "midi": 41,
          "name": "F2",
          "ticks": 45120,
          "time": 34.814780000000006,
          "velocity": 0.36220472440944884
        },
        {
          "duration": 0.1543208333333297,
          "durationTicks": 200,
          "midi": 56,
          "name": "G#3",
          "ticks": 45120,
          "time": 34.814780000000006,
          "velocity": 0.2283464566929134
        },
        {
          "duration": 0.1543208333333297,
          "durationTicks": 200,
          "midi": 58,
          "name": "A#3",
          "ticks": 45120,
          "time": 34.814780000000006,
          "velocity": 0.2283464566929134
        },
        {
          "duration": 0.12345666666666233,
          "durationTicks": 160,
          "midi": 58,
          "name": "A#3",
          "ticks": 45480,
          "time": 35.092557500000005,
          "velocity": 0.2992125984251969
        },
        {
          "duration": 0.18518500000000415,
          "durationTicks": 240,
          "midi": 56,
          "name": "G#3",
          "ticks": 45600,
          "time": 35.18515,
          "velocity": 0.2755905511811024
        },
        {
          "duration": 0.12345666666666233,
          "durationTicks": 160,
          "midi": 58,
          "name": "A#3",
          "ticks": 45960,
          "time": 35.462927500000006,
          "velocity": 0.3700787401574803
        },
        {
          "duration": 0.3703700000000012,
          "durationTicks": 480,
          "midi": 39,
          "name": "D#2",
          "ticks": 46080,
          "time": 35.55552,
          "velocity": 0.4330708661417323
        },
        {
          "duration": 0.3703700000000012,
          "durationTicks": 480,
          "midi": 61,
          "name": "C#4",
          "ticks": 46080,
          "time": 35.55552,
          "velocity": 0.2283464566929134
        },
        {
          "duration": 0.1543208333333368,
          "durationTicks": 200,
          "midi": 53,
          "name": "F3",
          "ticks": 46560,
          "time": 35.92589,
          "velocity": 0.23622047244094488
        },
        {
          "duration": 0.18518500000000415,
          "durationTicks": 240,
          "midi": 58,
          "name": "A#3",
          "ticks": 46560,
          "time": 35.92589,
          "velocity": 0.33858267716535434
        },
        {
          "duration": 0.1543208333333297,
          "durationTicks": 200,
          "midi": 56,
          "name": "G#3",
          "ticks": 46800,
          "time": 36.11107500000001,
          "velocity": 0.2440944881889764
        },
        {
          "duration": 0.1543208333333297,
          "durationTicks": 200,
          "midi": 58,
          "name": "A#3",
          "ticks": 46800,
          "time": 36.11107500000001,
          "velocity": 0.2677165354330709
        },
        {
          "duration": 0.1543208333333297,
          "durationTicks": 200,
          "midi": 61,
          "name": "C#4",
          "ticks": 46800,
          "time": 36.11107500000001,
          "velocity": 0.2047244094488189
        },
        {
          "duration": 0.18518499999999705,
          "durationTicks": 240,
          "midi": 39,
          "name": "D#2",
          "ticks": 47040,
          "time": 36.296260000000004,
          "velocity": 0.4409448818897638
        },
        {
          "duration": 0.18518500000000415,
          "durationTicks": 240,
          "midi": 61,
          "name": "C#4",
          "ticks": 47280,
          "time": 36.481445,
          "velocity": 0.2125984251968504
        },
        {
          "duration": 0.40123416666666145,
          "durationTicks": 520,
          "midi": 53,
          "name": "F3",
          "ticks": 47520,
          "time": 36.666630000000005,
          "velocity": 0.2440944881889764
        },
        {
          "duration": 0.33950583333333384,
          "durationTicks": 440,
          "midi": 39,
          "name": "D#2",
          "ticks": 48000,
          "time": 37.037000000000006,
          "velocity": 0.3858267716535433
        },
        {
          "duration": 0.33950583333333384,
          "durationTicks": 440,
          "midi": 51,
          "name": "D#3",
          "ticks": 48000,
          "time": 37.037000000000006,
          "velocity": 0.28346456692913385
        },
        {
          "duration": 0.33950583333333384,
          "durationTicks": 440,
          "midi": 54,
          "name": "F#3",
          "ticks": 48000,
          "time": 37.037000000000006,
          "velocity": 0.2047244094488189
        },
        {
          "duration": 0.33950583333333384,
          "durationTicks": 440,
          "midi": 58,
          "name": "A#3",
          "ticks": 48000,
          "time": 37.037000000000006,
          "velocity": 0.25196850393700787
        },
        {
          "duration": 0.33950583333333384,
          "durationTicks": 440,
          "midi": 61,
          "name": "C#4",
          "ticks": 48000,
          "time": 37.037000000000006,
          "velocity": 0.2047244094488189
        },
        {
          "duration": 0.18518500000000415,
          "durationTicks": 240,
          "midi": 51,
          "name": "D#3",
          "ticks": 48480,
          "time": 37.40737,
          "velocity": 0.2677165354330709
        },
        {
          "duration": 0.18518499999999705,
          "durationTicks": 240,
          "midi": 51,
          "name": "D#3",
          "ticks": 48720,
          "time": 37.592555000000004,
          "velocity": 0.25984251968503935
        },
        {
          "duration": 0.1543208333333368,
          "durationTicks": 200,
          "midi": 54,
          "name": "F#3",
          "ticks": 48720,
          "time": 37.592555000000004,
          "velocity": 0.1889763779527559
        },
        {
          "duration": 0.1543208333333368,
          "durationTicks": 200,
          "midi": 58,
          "name": "A#3",
          "ticks": 48720,
          "time": 37.592555000000004,
          "velocity": 0.1889763779527559
        },
        {
          "duration": 0.1543208333333368,
          "durationTicks": 200,
          "midi": 61,
          "name": "C#4",
          "ticks": 48720,
          "time": 37.592555000000004,
          "velocity": 0.2204724409448819
        },
        {
          "duration": 0.3703700000000012,
          "durationTicks": 480,
          "midi": 51,
          "name": "D#3",
          "ticks": 48960,
          "time": 37.77774,
          "velocity": 0.4094488188976378
        },
        {
          "duration": 0.18518500000000415,
          "durationTicks": 240,
          "midi": 39,
          "name": "D#2",
          "ticks": 49440,
          "time": 38.14811,
          "velocity": 0.2283464566929134
        },
        {
          "duration": 0.18518500000000415,
          "durationTicks": 240,
          "midi": 51,
          "name": "D#3",
          "ticks": 49440,
          "time": 38.14811,
          "velocity": 0.2204724409448819
        },
        {
          "duration": 0.1543208333333297,
          "durationTicks": 200,
          "midi": 34,
          "name": "A#1",
          "ticks": 49680,
          "time": 38.33329500000001,
          "velocity": 0.36220472440944884
        },
        {
          "duration": 0.33950583333333384,
          "durationTicks": 440,
          "midi": 39,
          "name": "D#2",
          "ticks": 49920,
          "time": 38.518480000000004,
          "velocity": 0.4094488188976378
        },
        {
          "duration": 0.3703700000000012,
          "durationTicks": 480,
          "midi": 51,
          "name": "D#3",
          "ticks": 49920,
          "time": 38.518480000000004,
          "velocity": 0.3858267716535433
        },
        {
          "duration": 0.3703700000000012,
          "durationTicks": 480,
          "midi": 53,
          "name": "F3",
          "ticks": 49920,
          "time": 38.518480000000004,
          "velocity": 0.23622047244094488
        },
        {
          "duration": 0.3703700000000012,
          "durationTicks": 480,
          "midi": 56,
          "name": "G#3",
          "ticks": 49920,
          "time": 38.518480000000004,
          "velocity": 0.2047244094488189
        },
        {
          "duration": 0.3703700000000012,
          "durationTicks": 480,
          "midi": 61,
          "name": "C#4",
          "ticks": 49920,
          "time": 38.518480000000004,
          "velocity": 0.2440944881889764
        },
        {
          "duration": 0.18518499999999705,
          "durationTicks": 240,
          "midi": 53,
          "name": "F3",
          "ticks": 50400,
          "time": 38.888850000000005,
          "velocity": 0.2440944881889764
        },
        {
          "duration": 0.18518500000000415,
          "durationTicks": 240,
          "midi": 56,
          "name": "G#3",
          "ticks": 50640,
          "time": 39.074035,
          "velocity": 0.2992125984251969
        },
        {
          "duration": 0.18518500000000415,
          "durationTicks": 240,
          "midi": 61,
          "name": "C#4",
          "ticks": 50640,
          "time": 39.074035,
          "velocity": 0.2047244094488189
        },
        {
          "duration": 0.18518499999999705,
          "durationTicks": 240,
          "midi": 39,
          "name": "D#2",
          "ticks": 50880,
          "time": 39.259220000000006,
          "velocity": 0.3700787401574803
        },
        {
          "duration": 0.18518499999999705,
          "durationTicks": 240,
          "midi": 61,
          "name": "C#4",
          "ticks": 51120,
          "time": 39.444405,
          "velocity": 0.2677165354330709
        },
        {
          "duration": 0.18518499999999705,
          "durationTicks": 240,
          "midi": 63,
          "name": "D#4",
          "ticks": 51120,
          "time": 39.444405,
          "velocity": 0.5433070866141733
        },
        {
          "duration": 0.33950583333334095,
          "durationTicks": 440,
          "midi": 53,
          "name": "F3",
          "ticks": 51360,
          "time": 39.62959,
          "velocity": 0.2440944881889764
        },
        {
          "duration": 0.33950583333334095,
          "durationTicks": 440,
          "midi": 63,
          "name": "D#4",
          "ticks": 51360,
          "time": 39.62959,
          "velocity": 0.5433070866141733
        },
        {
          "duration": 0.1543208333333368,
          "durationTicks": 200,
          "midi": 39,
          "name": "D#2",
          "ticks": 51840,
          "time": 39.99996,
          "velocity": 0.3858267716535433
        },
        {
          "duration": 0.1543208333333368,
          "durationTicks": 200,
          "midi": 51,
          "name": "D#3",
          "ticks": 51840,
          "time": 39.99996,
          "velocity": 0.3858267716535433
        },
        {
          "duration": 0.1543208333333368,
          "durationTicks": 200,
          "midi": 54,
          "name": "F#3",
          "ticks": 51840,
          "time": 39.99996,
          "velocity": 0.1968503937007874
        },
        {
          "duration": 0.1543208333333368,
          "durationTicks": 200,
          "midi": 58,
          "name": "A#3",
          "ticks": 51840,
          "time": 39.99996,
          "velocity": 0.3700787401574803
        },
        {
          "duration": 0.1543208333333368,
          "durationTicks": 200,
          "midi": 61,
          "name": "C#4",
          "ticks": 51840,
          "time": 39.99996,
          "velocity": 0.2283464566929134
        },
        {
          "duration": 0.1543208333333368,
          "durationTicks": 200,
          "midi": 66,
          "name": "F#4",
          "ticks": 51840,
          "time": 39.99996,
          "velocity": 0.1889763779527559
        },
        {
          "duration": 0.1543208333333368,
          "durationTicks": 200,
          "midi": 70,
          "name": "A#4",
          "ticks": 51840,
          "time": 39.99996,
          "velocity": 0.4881889763779528
        },
        {
          "duration": 0.33950583333333384,
          "durationTicks": 440,
          "midi": 68,
          "name": "G#4",
          "ticks": 52080,
          "time": 40.185145000000006,
          "velocity": 0.3700787401574803
        },
        {
          "duration": 0.2160491666666644,
          "durationTicks": 280,
          "midi": 51,
          "name": "D#3",
          "ticks": 52560,
          "time": 40.55551500000001,
          "velocity": 0.2047244094488189
        },
        {
          "duration": 0.2160491666666644,
          "durationTicks": 280,
          "midi": 54,
          "name": "F#3",
          "ticks": 52560,
          "time": 40.55551500000001,
          "velocity": 0.2047244094488189
        },
        {
          "duration": 0.2160491666666644,
          "durationTicks": 280,
          "midi": 58,
          "name": "A#3",
          "ticks": 52560,
          "time": 40.55551500000001,
          "velocity": 0.3543307086614173
        },
        {
          "duration": 0.2160491666666644,
          "durationTicks": 280,
          "midi": 61,
          "name": "C#4",
          "ticks": 52560,
          "time": 40.55551500000001,
          "velocity": 0.2047244094488189
        },
        {
          "duration": 0.1543208333333297,
          "durationTicks": 200,
          "midi": 70,
          "name": "A#4",
          "ticks": 52560,
          "time": 40.55551500000001,
          "velocity": 0.3858267716535433
        },
        {
          "duration": 0.18518499999999705,
          "durationTicks": 240,
          "midi": 39,
          "name": "D#2",
          "ticks": 52800,
          "time": 40.740700000000004,
          "velocity": 0.3937007874015748
        },
        {
          "duration": 0.1543208333333368,
          "durationTicks": 200,
          "midi": 34,
          "name": "A#1",
          "ticks": 53040,
          "time": 40.925885,
          "velocity": 0.33858267716535434
        },
        {
          "duration": 0.18518499999999705,
          "durationTicks": 240,
          "midi": 39,
          "name": "D#2",
          "ticks": 53280,
          "time": 41.111070000000005,
          "velocity": 0.36220472440944884
        },
        {
          "duration": 0.2160491666666644,
          "durationTicks": 280,
          "midi": 34,
          "name": "A#1",
          "ticks": 53520,
          "time": 41.296255,
          "velocity": 0.3937007874015748
        },
        {
          "duration": 0.12345666666666233,
          "durationTicks": 160,
          "midi": 73,
          "name": "C#5",
          "ticks": 53640,
          "time": 41.388847500000004,
          "velocity": 0.5275590551181102
        },
        {
          "duration": 0.3703699999999941,
          "durationTicks": 480,
          "midi": 32,
          "name": "G#1",
          "ticks": 53760,
          "time": 41.481440000000006,
          "velocity": 0.33858267716535434
        },
        {
          "duration": 0.3703699999999941,
          "durationTicks": 480,
          "midi": 44,
          "name": "G#2",
          "ticks": 53760,
          "time": 41.481440000000006,
          "velocity": 0.33858267716535434
        },
        {
          "duration": 0.3703699999999941,
          "durationTicks": 480,
          "midi": 58,
          "name": "A#3",
          "ticks": 53760,
          "time": 41.481440000000006,
          "velocity": 0.2440944881889764
        },
        {
          "duration": 0.3703699999999941,
          "durationTicks": 480,
          "midi": 59,
          "name": "B3",
          "ticks": 53760,
          "time": 41.481440000000006,
          "velocity": 0.44881889763779526
        },
        {
          "duration": 0.3703699999999941,
          "durationTicks": 480,
          "midi": 63,
          "name": "D#4",
          "ticks": 53760,
          "time": 41.481440000000006,
          "velocity": 0.2283464566929134
        },
        {
          "duration": 0.1543208333333368,
          "durationTicks": 200,
          "midi": 56,
          "name": "G#3",
          "ticks": 54240,
          "time": 41.85181,
          "velocity": 0.30708661417322836
        },
        {
          "duration": 0.18518499999999705,
          "durationTicks": 240,
          "midi": 56,
          "name": "G#3",
          "ticks": 54480,
          "time": 42.036995000000005,
          "velocity": 0.28346456692913385
        },
        {
          "duration": 0.18518499999999705,
          "durationTicks": 240,
          "midi": 59,
          "name": "B3",
          "ticks": 54480,
          "time": 42.036995000000005,
          "velocity": 0.4566929133858268
        },
        {
          "duration": 0.18518499999999705,
          "durationTicks": 240,
          "midi": 63,
          "name": "D#4",
          "ticks": 54480,
          "time": 42.036995000000005,
          "velocity": 0.2204724409448819
        },
        {
          "duration": 0.33950583333333384,
          "durationTicks": 440,
          "midi": 32,
          "name": "G#1",
          "ticks": 54720,
          "time": 42.22218,
          "velocity": 0.3228346456692913
        },
        {
          "duration": 0.33950583333333384,
          "durationTicks": 440,
          "midi": 58,
          "name": "A#3",
          "ticks": 54720,
          "time": 42.22218,
          "velocity": 0.2204724409448819
        },
        {
          "duration": 0.3703700000000012,
          "durationTicks": 480,
          "midi": 56,
          "name": "G#3",
          "ticks": 55200,
          "time": 42.59255,
          "velocity": 0.29133858267716534
        },
        {
          "duration": 0.3703700000000012,
          "durationTicks": 480,
          "midi": 32,
          "name": "G#1",
          "ticks": 55680,
          "time": 42.962920000000004,
          "velocity": 0.2992125984251969
        },
        {
          "duration": 0.3703700000000012,
          "durationTicks": 480,
          "midi": 44,
          "name": "G#2",
          "ticks": 55680,
          "time": 42.962920000000004,
          "velocity": 0.28346456692913385
        },
        {
          "duration": 0.3703700000000012,
          "durationTicks": 480,
          "midi": 55,
          "name": "G3",
          "ticks": 55680,
          "time": 42.962920000000004,
          "velocity": 0.2204724409448819
        },
        {
          "duration": 0.3703700000000012,
          "durationTicks": 480,
          "midi": 63,
          "name": "D#4",
          "ticks": 55680,
          "time": 42.962920000000004,
          "velocity": 0.2440944881889764
        },
        {
          "duration": 0.18518499999999705,
          "durationTicks": 240,
          "midi": 55,
          "name": "G3",
          "ticks": 56160,
          "time": 43.333290000000005,
          "velocity": 0.25984251968503935
        },
        {
          "duration": 0.33950583333333384,
          "durationTicks": 440,
          "midi": 55,
          "name": "G3",
          "ticks": 56400,
          "time": 43.518475,
          "velocity": 0.2677165354330709
        },
        {
          "duration": 0.33950583333333384,
          "durationTicks": 440,
          "midi": 58,
          "name": "A#3",
          "ticks": 56400,
          "time": 43.518475,
          "velocity": 0.2283464566929134
        },
        {
          "duration": 0.33950583333333384,
          "durationTicks": 440,
          "midi": 59,
          "name": "B3",
          "ticks": 56400,
          "time": 43.518475,
          "velocity": 0.2440944881889764
        },
        {
          "duration": 0.33950583333333384,
          "durationTicks": 440,
          "midi": 63,
          "name": "D#4",
          "ticks": 56400,
          "time": 43.518475,
          "velocity": 0.2283464566929134
        },
        {
          "duration": 0.2160491666666644,
          "durationTicks": 280,
          "midi": 63,
          "name": "D#4",
          "ticks": 56880,
          "time": 43.888845,
          "velocity": 0.1968503937007874
        },
        {
          "duration": 0.18518500000000415,
          "durationTicks": 240,
          "midi": 44,
          "name": "G#2",
          "ticks": 57120,
          "time": 44.07403,
          "velocity": 0.2283464566929134
        },
        {
          "duration": 0.18518499999999705,
          "durationTicks": 240,
          "midi": 39,
          "name": "D#2",
          "ticks": 57360,
          "time": 44.259215000000005,
          "velocity": 0.28346456692913385
        },
        {
          "duration": 0.33950583333333384,
          "durationTicks": 440,
          "midi": 44,
          "name": "G#2",
          "ticks": 57600,
          "time": 44.4444,
          "velocity": 0.30708661417322836
        },
        {
          "duration": 0.33950583333333384,
          "durationTicks": 440,
          "midi": 54,
          "name": "F#3",
          "ticks": 57600,
          "time": 44.4444,
          "velocity": 0.2204724409448819
        },
        {
          "duration": 0.33950583333333384,
          "durationTicks": 440,
          "midi": 58,
          "name": "A#3",
          "ticks": 57600,
          "time": 44.4444,
          "velocity": 0.2440944881889764
        },
        {
          "duration": 0.18518500000000415,
          "durationTicks": 240,
          "midi": 54,
          "name": "F#3",
          "ticks": 58080,
          "time": 44.81477,
          "velocity": 0.2125984251968504
        },
        {
          "duration": 0.18518499999999705,
          "durationTicks": 240,
          "midi": 54,
          "name": "F#3",
          "ticks": 58320,
          "time": 44.99995500000001,
          "velocity": 0.2047244094488189
        },
        {
          "duration": 0.18518499999999705,
          "durationTicks": 240,
          "midi": 58,
          "name": "A#3",
          "ticks": 58320,
          "time": 44.99995500000001,
          "velocity": 0.2047244094488189
        },
        {
          "duration": 0.18518499999999705,
          "durationTicks": 240,
          "midi": 59,
          "name": "B3",
          "ticks": 58320,
          "time": 44.99995500000001,
          "velocity": 0.2283464566929134
        },
        {
          "duration": 0.18518499999999705,
          "durationTicks": 240,
          "midi": 63,
          "name": "D#4",
          "ticks": 58320,
          "time": 44.99995500000001,
          "velocity": 0.2204724409448819
        },
        {
          "duration": 0.33950583333333384,
          "durationTicks": 440,
          "midi": 32,
          "name": "G#1",
          "ticks": 58560,
          "time": 45.185140000000004,
          "velocity": 0.3858267716535433
        },
        {
          "duration": 0.3703700000000012,
          "durationTicks": 480,
          "midi": 54,
          "name": "F#3",
          "ticks": 59040,
          "time": 45.555510000000005,
          "velocity": 0.23622047244094488
        },
        {
          "duration": 0.3703700000000012,
          "durationTicks": 480,
          "midi": 63,
          "name": "D#4",
          "ticks": 59040,
          "time": 45.555510000000005,
          "velocity": 0.41732283464566927
        },
        {
          "duration": 0.18518499999999705,
          "durationTicks": 240,
          "midi": 32,
          "name": "G#1",
          "ticks": 59520,
          "time": 45.92588000000001,
          "velocity": 0.41732283464566927
        },
        {
          "duration": 0.18518499999999705,
          "durationTicks": 240,
          "midi": 55,
          "name": "G3",
          "ticks": 59520,
          "time": 45.92588000000001,
          "velocity": 0.2283464566929134
        },
        {
          "duration": 0.18518499999999705,
          "durationTicks": 240,
          "midi": 56,
          "name": "G#3",
          "ticks": 59520,
          "time": 45.92588000000001,
          "velocity": 0.41732283464566927
        },
        {
          "duration": 0.18518499999999705,
          "durationTicks": 240,
          "midi": 58,
          "name": "A#3",
          "ticks": 59520,
          "time": 45.92588000000001,
          "velocity": 0.6220472440944882
        },
        {
          "duration": 0.18518499999999705,
          "durationTicks": 240,
          "midi": 63,
          "name": "D#4",
          "ticks": 59520,
          "time": 45.92588000000001,
          "velocity": 0.23622047244094488
        },
        {
          "duration": 0.18518499999999705,
          "durationTicks": 240,
          "midi": 70,
          "name": "A#4",
          "ticks": 59520,
          "time": 45.92588000000001,
          "velocity": 0.6220472440944882
        },
        {
          "duration": 0.3086416666666665,
          "durationTicks": 400,
          "midi": 68,
          "name": "G#4",
          "ticks": 59880,
          "time": 46.203657500000006,
          "velocity": 0.6771653543307087
        },
        {
          "duration": 0.40123416666666145,
          "durationTicks": 520,
          "midi": 58,
          "name": "A#3",
          "ticks": 60240,
          "time": 46.481435000000005,
          "velocity": 0.2440944881889764
        },
        {
          "duration": 0.40123416666666145,
          "durationTicks": 520,
          "midi": 59,
          "name": "B3",
          "ticks": 60240,
          "time": 46.481435000000005,
          "velocity": 0.2440944881889764
        },
        {
          "duration": 0.40123416666666145,
          "durationTicks": 520,
          "midi": 63,
          "name": "D#4",
          "ticks": 60240,
          "time": 46.481435000000005,
          "velocity": 0.1889763779527559
        },
        {
          "duration": 0.3086416666666594,
          "durationTicks": 400,
          "midi": 70,
          "name": "A#4",
          "ticks": 60360,
          "time": 46.57402750000001,
          "velocity": 0.25984251968503935
        },
        {
          "duration": 0.18518499999999705,
          "durationTicks": 240,
          "midi": 63,
          "name": "D#4",
          "ticks": 60720,
          "time": 46.851805000000006,
          "velocity": 0.2204724409448819
        },
        {
          "duration": 0.18518499999999705,
          "durationTicks": 240,
          "midi": 70,
          "name": "A#4",
          "ticks": 60720,
          "time": 46.851805000000006,
          "velocity": 0.3464566929133858
        },
        {
          "duration": 0.2160491666666644,
          "durationTicks": 280,
          "midi": 44,
          "name": "G#2",
          "ticks": 60960,
          "time": 47.03699,
          "velocity": 0.2283464566929134
        },
        {
          "duration": 0.1543208333333368,
          "durationTicks": 200,
          "midi": 54,
          "name": "F#3",
          "ticks": 60960,
          "time": 47.03699,
          "velocity": 0.2125984251968504
        },
        {
          "duration": 0.18518499999999705,
          "durationTicks": 240,
          "midi": 34,
          "name": "A#1",
          "ticks": 61200,
          "time": 47.22217500000001,
          "velocity": 0.29133858267716534
        },
        {
          "duration": 0.18518499999999705,
          "durationTicks": 240,
          "midi": 71,
          "name": "B4",
          "ticks": 61200,
          "time": 47.22217500000001,
          "velocity": 0.47244094488188976
        },
        {
          "duration": 0.33950583333332673,
          "durationTicks": 440,
          "midi": 35,
          "name": "B1",
          "ticks": 61440,
          "time": 47.407360000000004,
          "velocity": 0.3700787401574803
        },
        {
          "duration": 0.33950583333332673,
          "durationTicks": 440,
          "midi": 54,
          "name": "F#3",
          "ticks": 61440,
          "time": 47.407360000000004,
          "velocity": 0.25984251968503935
        },
        {
          "duration": 0.33950583333332673,
          "durationTicks": 440,
          "midi": 56,
          "name": "G#3",
          "ticks": 61440,
          "time": 47.407360000000004,
          "velocity": 0.28346456692913385
        },
        {
          "duration": 0.33950583333332673,
          "durationTicks": 440,
          "midi": 62,
          "name": "D4",
          "ticks": 61440,
          "time": 47.407360000000004,
          "velocity": 0.25196850393700787
        },
        {
          "duration": 0.33950583333332673,
          "durationTicks": 440,
          "midi": 68,
          "name": "G#4",
          "ticks": 61440,
          "time": 47.407360000000004,
          "velocity": 0.28346456692913385
        },
        {
          "duration": 0.5555549999999982,
          "durationTicks": 720,
          "midi": 54,
          "name": "F#3",
          "ticks": 61920,
          "time": 47.777730000000005,
          "velocity": 0.2440944881889764
        },
        {
          "duration": 0.18518500000000415,
          "durationTicks": 240,
          "midi": 62,
          "name": "D4",
          "ticks": 62640,
          "time": 48.333285000000004,
          "velocity": 0.2047244094488189
        },
        {
          "duration": 0.3703699999999941,
          "durationTicks": 480,
          "midi": 56,
          "name": "G#3",
          "ticks": 62880,
          "time": 48.51847000000001,
          "velocity": 0.28346456692913385
        },
        {
          "duration": 0.3703700000000012,
          "durationTicks": 480,
          "midi": 54,
          "name": "F#3",
          "ticks": 63360,
          "time": 48.88884,
          "velocity": 0.2992125984251969
        },
        {
          "duration": 0.3703700000000012,
          "durationTicks": 480,
          "midi": 59,
          "name": "B3",
          "ticks": 63360,
          "time": 48.88884,
          "velocity": 0.2440944881889764
        },
        {
          "duration": 0.3703700000000012,
          "durationTicks": 480,
          "midi": 66,
          "name": "F#4",
          "ticks": 63360,
          "time": 48.88884,
          "velocity": 0.2992125984251969
        },
        {
          "duration": 0.1543208333333297,
          "durationTicks": 200,
          "midi": 56,
          "name": "G#3",
          "ticks": 63840,
          "time": 49.25921,
          "velocity": 0.28346456692913385
        },
        {
          "duration": 0.3703699999999941,
          "durationTicks": 480,
          "midi": 47,
          "name": "B2",
          "ticks": 64080,
          "time": 49.44439500000001,
          "velocity": 0.2204724409448819
        },
        {
          "duration": 0.3703699999999941,
          "durationTicks": 480,
          "midi": 54,
          "name": "F#3",
          "ticks": 64080,
          "time": 49.44439500000001,
          "velocity": 0.2047244094488189
        },
        {
          "duration": 0.3703699999999941,
          "durationTicks": 480,
          "midi": 62,
          "name": "D4",
          "ticks": 64080,
          "time": 49.44439500000001,
          "velocity": 0.2047244094488189
        },
        {
          "duration": 0.1543208333333297,
          "durationTicks": 200,
          "midi": 34,
          "name": "A#1",
          "ticks": 64560,
          "time": 49.814765,
          "velocity": 0.28346456692913385
        },
        {
          "duration": 0.2160491666666715,
          "durationTicks": 280,
          "midi": 35,
          "name": "B1",
          "ticks": 64800,
          "time": 49.999950000000005,
          "velocity": 0.2755905511811024
        },
        {
          "duration": 0.18518500000000415,
          "durationTicks": 240,
          "midi": 36,
          "name": "C2",
          "ticks": 65040,
          "time": 50.185135,
          "velocity": 0.2992125984251969
        },
        {
          "duration": 0.18518500000000415,
          "durationTicks": 240,
          "midi": 42,
          "name": "F#2",
          "ticks": 65040,
          "time": 50.185135,
          "velocity": 0.2125984251968504
        },
        {
          "duration": 1.1111099999999965,
          "durationTicks": 1440,
          "midi": 37,
          "name": "C#2",
          "ticks": 65280,
          "time": 50.37032000000001,
          "velocity": 0.3937007874015748
        },
        {
          "duration": 1.1111099999999965,
          "durationTicks": 1440,
          "midi": 49,
          "name": "C#3",
          "ticks": 65280,
          "time": 50.37032000000001,
          "velocity": 0.3700787401574803
        },
        {
          "duration": 1.1111099999999965,
          "durationTicks": 1440,
          "midi": 54,
          "name": "F#3",
          "ticks": 65280,
          "time": 50.37032000000001,
          "velocity": 0.2440944881889764
        },
        {
          "duration": 1.1111099999999965,
          "durationTicks": 1440,
          "midi": 59,
          "name": "B3",
          "ticks": 65280,
          "time": 50.37032000000001,
          "velocity": 0.2440944881889764
        },
        {
          "duration": 1.1111099999999965,
          "durationTicks": 1440,
          "midi": 63,
          "name": "D#4",
          "ticks": 65280,
          "time": 50.37032000000001,
          "velocity": 0.23622047244094488
        },
        {
          "duration": 0.18518500000000415,
          "durationTicks": 240,
          "midi": 61,
          "name": "C#4",
          "ticks": 66720,
          "time": 51.48143,
          "velocity": 0.3779527559055118
        },
        {
          "duration": 0.2160491666666644,
          "durationTicks": 280,
          "midi": 63,
          "name": "D#4",
          "ticks": 66960,
          "time": 51.66661500000001,
          "velocity": 0.36220472440944884
        },
        {
          "duration": 0.5555549999999982,
          "durationTicks": 720,
          "midi": 66,
          "name": "F#4",
          "ticks": 67200,
          "time": 51.851800000000004,
          "velocity": 0.6456692913385826
        },
        {
          "duration": 0.1543208333333297,
          "durationTicks": 200,
          "midi": 61,
          "name": "C#4",
          "ticks": 67920,
          "time": 52.407355,
          "velocity": 0.2992125984251969
        },
        {
          "duration": 0.3703700000000012,
          "durationTicks": 480,
          "midi": 32,
          "name": "G#1",
          "ticks": 68160,
          "time": 52.59254000000001,
          "velocity": 0.41732283464566927
        },
        {
          "duration": 0.3703700000000012,
          "durationTicks": 480,
          "midi": 44,
          "name": "G#2",
          "ticks": 68160,
          "time": 52.59254000000001,
          "velocity": 0.41732283464566927
        },
        {
          "duration": 0.27777750000000623,
          "durationTicks": 360,
          "midi": 58,
          "name": "A#3",
          "ticks": 68280,
          "time": 52.6851325,
          "velocity": 0.4251968503937008
        },
        {
          "duration": 0.09259250000000208,
          "durationTicks": 120,
          "midi": 56,
          "name": "G#3",
          "ticks": 68760,
          "time": 53.0555025,
          "velocity": 0.30708661417322836
        },
        {
          "duration": 0.12345666666666943,
          "durationTicks": 160,
          "midi": 59,
          "name": "B3",
          "ticks": 69000,
          "time": 53.24068750000001,
          "velocity": 0.2992125984251969
        },
        {
          "duration": 0.3703700000000012,
          "durationTicks": 480,
          "midi": 30,
          "name": "F#1",
          "ticks": 69120,
          "time": 53.33328,
          "velocity": 0.33858267716535434
        },
        {
          "duration": 0.3703700000000012,
          "durationTicks": 480,
          "midi": 49,
          "name": "C#3",
          "ticks": 69120,
          "time": 53.33328,
          "velocity": 0.31496062992125984
        },
        {
          "duration": 0.3703700000000012,
          "durationTicks": 480,
          "midi": 53,
          "name": "F3",
          "ticks": 69120,
          "time": 53.33328,
          "velocity": 0.2677165354330709
        },
        {
          "duration": 0.3703700000000012,
          "durationTicks": 480,
          "midi": 56,
          "name": "G#3",
          "ticks": 69120,
          "time": 53.33328,
          "velocity": 0.2204724409448819
        },
        {
          "duration": 0.3703700000000012,
          "durationTicks": 480,
          "midi": 58,
          "name": "A#3",
          "ticks": 69120,
          "time": 53.33328,
          "velocity": 0.30708661417322836
        },
        {
          "duration": 0.3703700000000012,
          "durationTicks": 480,
          "midi": 61,
          "name": "C#4",
          "ticks": 69120,
          "time": 53.33328,
          "velocity": 0.2283464566929134
        },
        {
          "duration": 0.18518500000000415,
          "durationTicks": 240,
          "midi": 53,
          "name": "F3",
          "ticks": 69600,
          "time": 53.70365,
          "velocity": 0.2677165354330709
        },
        {
          "duration": 0.12345666666666943,
          "durationTicks": 160,
          "midi": 58,
          "name": "A#3",
          "ticks": 69720,
          "time": 53.796242500000005,
          "velocity": 0.2440944881889764
        },
        {
          "duration": 0.33950583333332673,
          "durationTicks": 440,
          "midi": 56,
          "name": "G#3",
          "ticks": 69840,
          "time": 53.88883500000001,
          "velocity": 0.2125984251968504
        },
        {
          "duration": 0.33950583333332673,
          "durationTicks": 440,
          "midi": 61,
          "name": "C#4",
          "ticks": 69840,
          "time": 53.88883500000001,
          "velocity": 0.2204724409448819
        },
        {
          "duration": 0.18518500000000415,
          "durationTicks": 240,
          "midi": 61,
          "name": "C#4",
          "ticks": 70320,
          "time": 54.259205,
          "velocity": 0.2047244094488189
        },
        {
          "duration": 0.3703700000000012,
          "durationTicks": 480,
          "midi": 53,
          "name": "F3",
          "ticks": 70560,
          "time": 54.444390000000006,
          "velocity": 0.2677165354330709
        },
        {
          "duration": 0.1543208333333297,
          "durationTicks": 200,
          "midi": 30,
          "name": "F#1",
          "ticks": 71040,
          "time": 54.81476000000001,
          "velocity": 0.4566929133858268
        },
        {
          "duration": 0.1543208333333297,
          "durationTicks": 200,
          "midi": 42,
          "name": "F#2",
          "ticks": 71040,
          "time": 54.81476000000001,
          "velocity": 0.4566929133858268
        },
        {
          "duration": 0.1543208333333297,
          "durationTicks": 200,
          "midi": 51,
          "name": "D#3",
          "ticks": 71040,
          "time": 54.81476000000001,
          "velocity": 0.3228346456692913
        },
        {
          "duration": 0.1543208333333297,
          "durationTicks": 200,
          "midi": 54,
          "name": "F#3",
          "ticks": 71040,
          "time": 54.81476000000001,
          "velocity": 0.23622047244094488
        },
        {
          "duration": 0.1543208333333297,
          "durationTicks": 200,
          "midi": 58,
          "name": "A#3",
          "ticks": 71040,
          "time": 54.81476000000001,
          "velocity": 0.2047244094488189
        },
        {
          "duration": 0.1543208333333297,
          "durationTicks": 200,
          "midi": 61,
          "name": "C#4",
          "ticks": 71040,
          "time": 54.81476000000001,
          "velocity": 0.2283464566929134
        },
        {
          "duration": 0.18518500000000415,
          "durationTicks": 240,
          "midi": 51,
          "name": "D#3",
          "ticks": 71280,
          "time": 54.999945000000004,
          "velocity": 0.2204724409448819
        },
        {
          "duration": 0.18518500000000415,
          "durationTicks": 240,
          "midi": 61,
          "name": "C#4",
          "ticks": 71280,
          "time": 54.999945000000004,
          "velocity": 0.2204724409448819
        },
        {
          "duration": 0.18518499999999705,
          "durationTicks": 240,
          "midi": 51,
          "name": "D#3",
          "ticks": 71520,
          "time": 55.18513000000001,
          "velocity": 0.2440944881889764
        },
        {
          "duration": 0.18518499999999705,
          "durationTicks": 240,
          "midi": 51,
          "name": "D#3",
          "ticks": 71760,
          "time": 55.370315000000005,
          "velocity": 0.2283464566929134
        },
        {
          "duration": 0.18518499999999705,
          "durationTicks": 240,
          "midi": 58,
          "name": "A#3",
          "ticks": 71760,
          "time": 55.370315000000005,
          "velocity": 0.2047244094488189
        },
        {
          "duration": 0.18518499999999705,
          "durationTicks": 240,
          "midi": 61,
          "name": "C#4",
          "ticks": 71760,
          "time": 55.370315000000005,
          "velocity": 0.2283464566929134
        },
        {
          "duration": 0.18518500000000415,
          "durationTicks": 240,
          "midi": 51,
          "name": "D#3",
          "ticks": 72000,
          "time": 55.5555,
          "velocity": 0.3228346456692913
        },
        {
          "duration": 0.18518499999999705,
          "durationTicks": 240,
          "midi": 61,
          "name": "C#4",
          "ticks": 72240,
          "time": 55.740685000000006,
          "velocity": 0.23622047244094488
        },
        {
          "duration": 0.18518500000000415,
          "durationTicks": 240,
          "midi": 51,
          "name": "D#3",
          "ticks": 72480,
          "time": 55.92587,
          "velocity": 0.2283464566929134
        },
        {
          "duration": 0.18518500000000415,
          "durationTicks": 240,
          "midi": 54,
          "name": "F#3",
          "ticks": 72480,
          "time": 55.92587,
          "velocity": 0.2204724409448819
        },
        {
          "duration": 0.18518500000000415,
          "durationTicks": 240,
          "midi": 58,
          "name": "A#3",
          "ticks": 72480,
          "time": 55.92587,
          "velocity": 0.1889763779527559
        },
        {
          "duration": 0.1543208333333297,
          "durationTicks": 200,
          "midi": 37,
          "name": "C#2",
          "ticks": 72720,
          "time": 56.11105500000001,
          "velocity": 0.31496062992125984
        },
        {
          "duration": 0.3703700000000012,
          "durationTicks": 480,
          "midi": 30,
          "name": "F#1",
          "ticks": 72960,
          "time": 56.296240000000004,
          "velocity": 0.4409448818897638
        },
        {
          "duration": 0.3703700000000012,
          "durationTicks": 480,
          "midi": 42,
          "name": "F#2",
          "ticks": 72960,
          "time": 56.296240000000004,
          "velocity": 0.4409448818897638
        },
        {
          "duration": 0.3703700000000012,
          "durationTicks": 480,
          "midi": 49,
          "name": "C#3",
          "ticks": 72960,
          "time": 56.296240000000004,
          "velocity": 0.3543307086614173
        },
        {
          "duration": 0.3703700000000012,
          "durationTicks": 480,
          "midi": 53,
          "name": "F3",
          "ticks": 72960,
          "time": 56.296240000000004,
          "velocity": 0.2440944881889764
        },
        {
          "duration": 0.3703700000000012,
          "durationTicks": 480,
          "midi": 56,
          "name": "G#3",
          "ticks": 72960,
          "time": 56.296240000000004,
          "velocity": 0.2283464566929134
        },
        {
          "duration": 0.3703700000000012,
          "durationTicks": 480,
          "midi": 58,
          "name": "A#3",
          "ticks": 72960,
          "time": 56.296240000000004,
          "velocity": 0.1889763779527559
        },
        {
          "duration": 0.3703700000000012,
          "durationTicks": 480,
          "midi": 61,
          "name": "C#4",
          "ticks": 72960,
          "time": 56.296240000000004,
          "velocity": 0.2440944881889764
        },
        {
          "duration": 0.18518499999999705,
          "durationTicks": 240,
          "midi": 53,
          "name": "F3",
          "ticks": 73440,
          "time": 56.666610000000006,
          "velocity": 0.2440944881889764
        },
        {
          "duration": 0.18518500000000415,
          "durationTicks": 240,
          "midi": 53,
          "name": "F3",
          "ticks": 73680,
          "time": 56.851795,
          "velocity": 0.2204724409448819
        },
        {
          "duration": 0.18518500000000415,
          "durationTicks": 240,
          "midi": 56,
          "name": "G#3",
          "ticks": 73680,
          "time": 56.851795,
          "velocity": 0.25984251968503935
        },
        {
          "duration": 0.18518500000000415,
          "durationTicks": 240,
          "midi": 58,
          "name": "A#3",
          "ticks": 73680,
          "time": 56.851795,
          "velocity": 0.2204724409448819
        },
        {
          "duration": 0.18518500000000415,
          "durationTicks": 240,
          "midi": 61,
          "name": "C#4",
          "ticks": 73680,
          "time": 56.851795,
          "velocity": 0.23622047244094488
        },
        {
          "duration": 0.1543208333333297,
          "durationTicks": 200,
          "midi": 30,
          "name": "F#1",
          "ticks": 73920,
          "time": 57.03698000000001,
          "velocity": 0.30708661417322836
        },
        {
          "duration": 0.18518500000000415,
          "durationTicks": 240,
          "midi": 53,
          "name": "F3",
          "ticks": 74160,
          "time": 57.222165000000004,
          "velocity": 0.2047244094488189
        },
        {
          "duration": 0.18518500000000415,
          "durationTicks": 240,
          "midi": 61,
          "name": "C#4",
          "ticks": 74160,
          "time": 57.222165000000004,
          "velocity": 0.4566929133858268
        },
        {
          "duration": 0.2160491666666644,
          "durationTicks": 280,
          "midi": 53,
          "name": "F3",
          "ticks": 74400,
          "time": 57.40735000000001,
          "velocity": 0.25984251968503935
        },
        {
          "duration": 0.2160491666666644,
          "durationTicks": 280,
          "midi": 61,
          "name": "C#4",
          "ticks": 74400,
          "time": 57.40735000000001,
          "velocity": 0.5118110236220472
        },
        {
          "duration": 0.24691333333333176,
          "durationTicks": 320,
          "midi": 53,
          "name": "F3",
          "ticks": 74520,
          "time": 57.4999425,
          "velocity": 0.2677165354330709
        },
        {
          "duration": 0.18518499999999705,
          "durationTicks": 240,
          "midi": 63,
          "name": "D#4",
          "ticks": 74640,
          "time": 57.592535000000005,
          "velocity": 0.4251968503937008
        },
        {
          "duration": 0.18518500000000415,
          "durationTicks": 240,
          "midi": 42,
          "name": "F#2",
          "ticks": 74880,
          "time": 57.77772,
          "velocity": 0.33070866141732286
        },
        {
          "duration": 0.18518500000000415,
          "durationTicks": 240,
          "midi": 51,
          "name": "D#3",
          "ticks": 74880,
          "time": 57.77772,
          "velocity": 0.41732283464566927
        },
        {
          "duration": 0.18518500000000415,
          "durationTicks": 240,
          "midi": 58,
          "name": "A#3",
          "ticks": 74880,
          "time": 57.77772,
          "velocity": 0.2440944881889764
        },
        {
          "duration": 0.18518500000000415,
          "durationTicks": 240,
          "midi": 61,
          "name": "C#4",
          "ticks": 74880,
          "time": 57.77772,
          "velocity": 0.2440944881889764
        },
        {
          "duration": 0.2160491666666715,
          "durationTicks": 280,
          "midi": 66,
          "name": "F#4",
          "ticks": 74880,
          "time": 57.77772,
          "velocity": 0.4566929133858268
        },
        {
          "duration": 0.33950583333332673,
          "durationTicks": 440,
          "midi": 65,
          "name": "F4",
          "ticks": 75120,
          "time": 57.962905000000006,
          "velocity": 0.5275590551181102
        },
        {
          "duration": 0.12345666666666943,
          "durationTicks": 160,
          "midi": 61,
          "name": "C#4",
          "ticks": 75720,
          "time": 58.4258675,
          "velocity": 0.28346456692913385
        },
        {
          "duration": 0.5555549999999982,
          "durationTicks": 720,
          "midi": 41,
          "name": "F2",
          "ticks": 75840,
          "time": 58.518460000000005,
          "velocity": 0.2992125984251969
        },
        {
          "duration": 0.5555549999999982,
          "durationTicks": 720,
          "midi": 53,
          "name": "F3",
          "ticks": 75840,
          "time": 58.518460000000005,
          "velocity": 0.2992125984251969
        },
        {
          "duration": 0.5555549999999982,
          "durationTicks": 720,
          "midi": 56,
          "name": "G#3",
          "ticks": 75840,
          "time": 58.518460000000005,
          "velocity": 0.2992125984251969
        },
        {
          "duration": 0.5555549999999982,
          "durationTicks": 720,
          "midi": 58,
          "name": "A#3",
          "ticks": 75840,
          "time": 58.518460000000005,
          "velocity": 0.2283464566929134
        },
        {
          "duration": 0.09259250000000208,
          "durationTicks": 120,
          "midi": 58,
          "name": "A#3",
          "ticks": 76680,
          "time": 59.166607500000005,
          "velocity": 0.3228346456692913
        },
        {
          "duration": 0.3703700000000012,
          "durationTicks": 480,
          "midi": 39,
          "name": "D#2",
          "ticks": 76800,
          "time": 59.25920000000001,
          "velocity": 0.36220472440944884
        },
        {
          "duration": 0.3703700000000012,
          "durationTicks": 480,
          "midi": 61,
          "name": "C#4",
          "ticks": 76800,
          "time": 59.25920000000001,
          "velocity": 0.2440944881889764
        },
        {
          "duration": 0.2160491666666644,
          "durationTicks": 280,
          "midi": 53,
          "name": "F3",
          "ticks": 77280,
          "time": 59.62957000000001,
          "velocity": 0.2677165354330709
        },
        {
          "duration": 0.18518499999999705,
          "durationTicks": 240,
          "midi": 56,
          "name": "G#3",
          "ticks": 77520,
          "time": 59.814755000000005,
          "velocity": 0.2440944881889764
        },
        {
          "duration": 0.18518499999999705,
          "durationTicks": 240,
          "midi": 61,
          "name": "C#4",
          "ticks": 77520,
          "time": 59.814755000000005,
          "velocity": 0.2204724409448819
        },
        {
          "duration": 0.1543208333333297,
          "durationTicks": 200,
          "midi": 39,
          "name": "D#2",
          "ticks": 77760,
          "time": 59.99994,
          "velocity": 0.30708661417322836
        },
        {
          "duration": 0.18518499999999705,
          "durationTicks": 240,
          "midi": 61,
          "name": "C#4",
          "ticks": 78000,
          "time": 60.185125000000006,
          "velocity": 0.2283464566929134
        },
        {
          "duration": 0.40123416666666856,
          "durationTicks": 520,
          "midi": 53,
          "name": "F3",
          "ticks": 78240,
          "time": 60.37031,
          "velocity": 0.3464566929133858
        },
        {
          "duration": 0.5555549999999982,
          "durationTicks": 720,
          "midi": 39,
          "name": "D#2",
          "ticks": 78720,
          "time": 60.740680000000005,
          "velocity": 0.2992125984251969
        },
        {
          "duration": 0.5555549999999982,
          "durationTicks": 720,
          "midi": 51,
          "name": "D#3",
          "ticks": 78720,
          "time": 60.740680000000005,
          "velocity": 0.2992125984251969
        },
        {
          "duration": 0.5555549999999982,
          "durationTicks": 720,
          "midi": 54,
          "name": "F#3",
          "ticks": 78720,
          "time": 60.740680000000005,
          "velocity": 0.2125984251968504
        },
        {
          "duration": 0.5555549999999982,
          "durationTicks": 720,
          "midi": 61,
          "name": "C#4",
          "ticks": 78720,
          "time": 60.740680000000005,
          "velocity": 0.2283464566929134
        },
        {
          "duration": 0.5555549999999982,
          "durationTicks": 720,
          "midi": 66,
          "name": "F#4",
          "ticks": 78720,
          "time": 60.740680000000005,
          "velocity": 0.2125984251968504
        },
        {
          "duration": 0.2160491666666715,
          "durationTicks": 280,
          "midi": 54,
          "name": "F#3",
          "ticks": 79440,
          "time": 61.296235,
          "velocity": 0.3464566929133858
        },
        {
          "duration": 0.3703700000000012,
          "durationTicks": 480,
          "midi": 39,
          "name": "D#2",
          "ticks": 79680,
          "time": 61.48142000000001,
          "velocity": 0.41732283464566927
        },
        {
          "duration": 0.3703700000000012,
          "durationTicks": 480,
          "midi": 53,
          "name": "F3",
          "ticks": 79680,
          "time": 61.48142000000001,
          "velocity": 0.25984251968503935
        },
        {
          "duration": 0.3703700000000012,
          "durationTicks": 480,
          "midi": 56,
          "name": "G#3",
          "ticks": 79680,
          "time": 61.48142000000001,
          "velocity": 0.2047244094488189
        },
        {
          "duration": 0.3703700000000012,
          "durationTicks": 480,
          "midi": 61,
          "name": "C#4",
          "ticks": 79680,
          "time": 61.48142000000001,
          "velocity": 0.2047244094488189
        },
        {
          "duration": 0.3703700000000012,
          "durationTicks": 480,
          "midi": 68,
          "name": "G#4",
          "ticks": 79680,
          "time": 61.48142000000001,
          "velocity": 0.2204724409448819
        },
        {
          "duration": 0.18518499999999705,
          "durationTicks": 240,
          "midi": 39,
          "name": "D#2",
          "ticks": 80160,
          "time": 61.85179000000001,
          "velocity": 0.2440944881889764
        },
        {
          "duration": 0.18518499999999705,
          "durationTicks": 240,
          "midi": 51,
          "name": "D#3",
          "ticks": 80160,
          "time": 61.85179000000001,
          "velocity": 0.2440944881889764
        },
        {
          "duration": 0.18518499999999705,
          "durationTicks": 240,
          "midi": 34,
          "name": "A#1",
          "ticks": 80400,
          "time": 62.036975000000005,
          "velocity": 0.3858267716535433
        },
        {
          "duration": 0.33950583333333384,
          "durationTicks": 440,
          "midi": 39,
          "name": "D#2",
          "ticks": 80640,
          "time": 62.22216,
          "velocity": 0.3700787401574803
        },
        {
          "duration": 0.33950583333333384,
          "durationTicks": 440,
          "midi": 49,
          "name": "C#3",
          "ticks": 80640,
          "time": 62.22216,
          "velocity": 0.2992125984251969
        },
        {
          "duration": 0.33950583333333384,
          "durationTicks": 440,
          "midi": 53,
          "name": "F3",
          "ticks": 80640,
          "time": 62.22216,
          "velocity": 0.30708661417322836
        },
        {
          "duration": 0.33950583333333384,
          "durationTicks": 440,
          "midi": 56,
          "name": "G#3",
          "ticks": 80640,
          "time": 62.22216,
          "velocity": 0.2204724409448819
        },
        {
          "duration": 0.33950583333333384,
          "durationTicks": 440,
          "midi": 61,
          "name": "C#4",
          "ticks": 80640,
          "time": 62.22216,
          "velocity": 0.2283464566929134
        },
        {
          "duration": 0.18518500000000415,
          "durationTicks": 240,
          "midi": 53,
          "name": "F3",
          "ticks": 81120,
          "time": 62.592530000000004,
          "velocity": 0.25196850393700787
        },
        {
          "duration": 0.18518499999999705,
          "durationTicks": 240,
          "midi": 51,
          "name": "D#3",
          "ticks": 81360,
          "time": 62.77771500000001,
          "velocity": 0.31496062992125984
        },
        {
          "duration": 0.18518499999999705,
          "durationTicks": 240,
          "midi": 56,
          "name": "G#3",
          "ticks": 81360,
          "time": 62.77771500000001,
          "velocity": 0.2283464566929134
        },
        {
          "duration": 0.18518499999999705,
          "durationTicks": 240,
          "midi": 58,
          "name": "A#3",
          "ticks": 81360,
          "time": 62.77771500000001,
          "velocity": 0.25984251968503935
        },
        {
          "duration": 0.18518499999999705,
          "durationTicks": 240,
          "midi": 61,
          "name": "C#4",
          "ticks": 81360,
          "time": 62.77771500000001,
          "velocity": 0.2992125984251969
        },
        {
          "duration": 0.3703700000000012,
          "durationTicks": 480,
          "midi": 51,
          "name": "D#3",
          "ticks": 81600,
          "time": 62.962900000000005,
          "velocity": 0.2440944881889764
        },
        {
          "duration": 0.3703700000000012,
          "durationTicks": 480,
          "midi": 58,
          "name": "A#3",
          "ticks": 81600,
          "time": 62.962900000000005,
          "velocity": 0.2440944881889764
        },
        {
          "duration": 0.3703700000000012,
          "durationTicks": 480,
          "midi": 61,
          "name": "C#4",
          "ticks": 81600,
          "time": 62.962900000000005,
          "velocity": 0.28346456692913385
        },
        {
          "duration": 0.3703700000000012,
          "durationTicks": 480,
          "midi": 63,
          "name": "D#4",
          "ticks": 81600,
          "time": 62.962900000000005,
          "velocity": 0.1968503937007874
        },
        {
          "duration": 0.18518499999999705,
          "durationTicks": 240,
          "midi": 53,
          "name": "F3",
          "ticks": 82080,
          "time": 63.333270000000006,
          "velocity": 0.2677165354330709
        },
        {
          "duration": 0.18518499999999705,
          "durationTicks": 240,
          "midi": 63,
          "name": "D#4",
          "ticks": 82080,
          "time": 63.333270000000006,
          "velocity": 0.2992125984251969
        },
        {
          "duration": 0.18518500000000415,
          "durationTicks": 240,
          "midi": 51,
          "name": "D#3",
          "ticks": 82320,
          "time": 63.518455,
          "velocity": 0.33858267716535434
        },
        {
          "duration": 0.18518500000000415,
          "durationTicks": 240,
          "midi": 63,
          "name": "D#4",
          "ticks": 82320,
          "time": 63.518455,
          "velocity": 0.33858267716535434
        },
        {
          "duration": 0.18518499999999705,
          "durationTicks": 240,
          "midi": 53,
          "name": "F3",
          "ticks": 82560,
          "time": 63.70364000000001,
          "velocity": 0.2677165354330709
        },
        {
          "duration": 0.18518499999999705,
          "durationTicks": 240,
          "midi": 56,
          "name": "G#3",
          "ticks": 82560,
          "time": 63.70364000000001,
          "velocity": 0.2440944881889764
        },
        {
          "duration": 0.18518499999999705,
          "durationTicks": 240,
          "midi": 58,
          "name": "A#3",
          "ticks": 82560,
          "time": 63.70364000000001,
          "velocity": 0.30708661417322836
        },
        {
          "duration": 0.18518499999999705,
          "durationTicks": 240,
          "midi": 61,
          "name": "C#4",
          "ticks": 82560,
          "time": 63.70364000000001,
          "velocity": 0.25196850393700787
        },
        {
          "duration": 0.18518499999999705,
          "durationTicks": 240,
          "midi": 65,
          "name": "F4",
          "ticks": 82560,
          "time": 63.70364000000001,
          "velocity": 0.2677165354330709
        },
        {
          "duration": 0.18518499999999705,
          "durationTicks": 240,
          "midi": 70,
          "name": "A#4",
          "ticks": 82560,
          "time": 63.70364000000001,
          "velocity": 0.3779527559055118
        },
        {
          "duration": 0.12345666666666943,
          "durationTicks": 160,
          "midi": 68,
          "name": "G#4",
          "ticks": 82920,
          "time": 63.981417500000006,
          "velocity": 0.5669291338582677
        },
        {
          "duration": 0.18518500000000415,
          "durationTicks": 240,
          "midi": 58,
          "name": "A#3",
          "ticks": 83040,
          "time": 64.07401,
          "velocity": 0.2440944881889764
        },
        {
          "duration": 0.18518500000000415,
          "durationTicks": 240,
          "midi": 61,
          "name": "C#4",
          "ticks": 83040,
          "time": 64.07401,
          "velocity": 0.2440944881889764
        },
        {
          "duration": 0.18518500000000415,
          "durationTicks": 240,
          "midi": 34,
          "name": "A#1",
          "ticks": 83280,
          "time": 64.259195,
          "velocity": 0.4015748031496063
        },
        {
          "duration": 0.18518500000000415,
          "durationTicks": 240,
          "midi": 70,
          "name": "A#4",
          "ticks": 83280,
          "time": 64.259195,
          "velocity": 0.47244094488188976
        },
        {
          "duration": 0.18518499999998994,
          "durationTicks": 240,
          "midi": 55,
          "name": "G3",
          "ticks": 83520,
          "time": 64.44438000000001,
          "velocity": 0.2992125984251969
        },
        {
          "duration": 0.18518499999998994,
          "durationTicks": 240,
          "midi": 58,
          "name": "A#3",
          "ticks": 83520,
          "time": 64.44438000000001,
          "velocity": 0.33858267716535434
        },
        {
          "duration": 0.18518499999998994,
          "durationTicks": 240,
          "midi": 59,
          "name": "B3",
          "ticks": 83520,
          "time": 64.44438000000001,
          "velocity": 0.1889763779527559
        },
        {
          "duration": 0.18518499999998994,
          "durationTicks": 240,
          "midi": 63,
          "name": "D#4",
          "ticks": 83520,
          "time": 64.44438000000001,
          "velocity": 0.2283464566929134
        },
        {
          "duration": 0.18518499999998994,
          "durationTicks": 240,
          "midi": 66,
          "name": "F#4",
          "ticks": 83520,
          "time": 64.44438000000001,
          "velocity": 0.23622047244094488
        },
        {
          "duration": 0.18518500000000415,
          "durationTicks": 240,
          "midi": 39,
          "name": "D#2",
          "ticks": 83760,
          "time": 64.629565,
          "velocity": 0.28346456692913385
        },
        {
          "duration": 0.21604916666667862,
          "durationTicks": 280,
          "midi": 34,
          "name": "A#1",
          "ticks": 84000,
          "time": 64.81475,
          "velocity": 0.31496062992125984
        },
        {
          "duration": 0.18518500000000415,
          "durationTicks": 240,
          "midi": 33,
          "name": "A1",
          "ticks": 84240,
          "time": 64.99993500000001,
          "velocity": 0.3779527559055118
        },
        {
          "duration": 0.5246908333333238,
          "durationTicks": 680,
          "midi": 32,
          "name": "G#1",
          "ticks": 84480,
          "time": 65.18512000000001,
          "velocity": 0.4094488188976378
        },
        {
          "duration": 0.5246908333333238,
          "durationTicks": 680,
          "midi": 44,
          "name": "G#2",
          "ticks": 84480,
          "time": 65.18512000000001,
          "velocity": 0.44881889763779526
        },
        {
          "duration": 0.5246908333333238,
          "durationTicks": 680,
          "midi": 56,
          "name": "G#3",
          "ticks": 84480,
          "time": 65.18512000000001,
          "velocity": 0.44881889763779526
        },
        {
          "duration": 0.5246908333333238,
          "durationTicks": 680,
          "midi": 58,
          "name": "A#3",
          "ticks": 84480,
          "time": 65.18512000000001,
          "velocity": 0.2204724409448819
        },
        {
          "duration": 0.5246908333333238,
          "durationTicks": 680,
          "midi": 59,
          "name": "B3",
          "ticks": 84480,
          "time": 65.18512000000001,
          "velocity": 0.4409448818897638
        },
        {
          "duration": 0.5246908333333238,
          "durationTicks": 680,
          "midi": 63,
          "name": "D#4",
          "ticks": 84480,
          "time": 65.18512000000001,
          "velocity": 0.25984251968503935
        },
        {
          "duration": 0.5246908333333238,
          "durationTicks": 680,
          "midi": 71,
          "name": "B4",
          "ticks": 84480,
          "time": 65.18512000000001,
          "velocity": 0.4409448818897638
        },
        {
          "duration": 0.5555549999999982,
          "durationTicks": 720,
          "midi": 71,
          "name": "B4",
          "ticks": 85200,
          "time": 65.74067500000001,
          "velocity": 0.41732283464566927
        },
        {
          "duration": 0.3703699999999941,
          "durationTicks": 480,
          "midi": 56,
          "name": "G#3",
          "ticks": 85920,
          "time": 66.29623000000001,
          "velocity": 0.4330708661417323
        },
        {
          "duration": 0.5555549999999982,
          "durationTicks": 720,
          "midi": 32,
          "name": "G#1",
          "ticks": 86400,
          "time": 66.6666,
          "velocity": 0.3228346456692913
        },
        {
          "duration": 0.5555549999999982,
          "durationTicks": 720,
          "midi": 51,
          "name": "D#3",
          "ticks": 86400,
          "time": 66.6666,
          "velocity": 0.30708661417322836
        },
        {
          "duration": 0.5555549999999982,
          "durationTicks": 720,
          "midi": 55,
          "name": "G3",
          "ticks": 86400,
          "time": 66.6666,
          "velocity": 0.25984251968503935
        },
        {
          "duration": 0.5555549999999982,
          "durationTicks": 720,
          "midi": 59,
          "name": "B3",
          "ticks": 86400,
          "time": 66.6666,
          "velocity": 0.2204724409448819
        },
        {
          "duration": 0.5555549999999982,
          "durationTicks": 720,
          "midi": 63,
          "name": "D#4",
          "ticks": 86400,
          "time": 66.6666,
          "velocity": 0.2047244094488189
        },
        {
          "duration": 0.5555549999999982,
          "durationTicks": 720,
          "midi": 59,
          "name": "B3",
          "ticks": 87120,
          "time": 67.222155,
          "velocity": 0.23622047244094488
        },
        {
          "duration": 0.18518500000000415,
          "durationTicks": 240,
          "midi": 39,
          "name": "D#2",
          "ticks": 87840,
          "time": 67.77771,
          "velocity": 0.30708661417322836
        },
        {
          "duration": 0.18518500000000415,
          "durationTicks": 240,
          "midi": 55,
          "name": "G3",
          "ticks": 87840,
          "time": 67.77771,
          "velocity": 0.2677165354330709
        },
        {
          "duration": 0.18518500000000415,
          "durationTicks": 240,
          "midi": 46,
          "name": "A#2",
          "ticks": 88080,
          "time": 67.962895,
          "velocity": 0.2992125984251969
        },
        {
          "duration": 0.18518500000000415,
          "durationTicks": 240,
          "midi": 54,
          "name": "F#3",
          "ticks": 88080,
          "time": 67.962895,
          "velocity": 0.1889763779527559
        },
        {
          "duration": 0.3703699999999941,
          "durationTicks": 480,
          "midi": 32,
          "name": "G#1",
          "ticks": 88320,
          "time": 68.14808000000001,
          "velocity": 0.3700787401574803
        },
        {
          "duration": 0.3703699999999941,
          "durationTicks": 480,
          "midi": 44,
          "name": "G#2",
          "ticks": 88320,
          "time": 68.14808000000001,
          "velocity": 0.33858267716535434
        },
        {
          "duration": 0.40123416666666856,
          "durationTicks": 520,
          "midi": 54,
          "name": "F#3",
          "ticks": 88320,
          "time": 68.14808000000001,
          "velocity": 0.2125984251968504
        },
        {
          "duration": 0.3703699999999941,
          "durationTicks": 480,
          "midi": 59,
          "name": "B3",
          "ticks": 88320,
          "time": 68.14808000000001,
          "velocity": 0.2204724409448819
        },
        {
          "duration": 0.3703699999999941,
          "durationTicks": 480,
          "midi": 63,
          "name": "D#4",
          "ticks": 88320,
          "time": 68.14808000000001,
          "velocity": 0.33858267716535434
        },
        {
          "duration": 0.18518500000000415,
          "durationTicks": 240,
          "midi": 54,
          "name": "F#3",
          "ticks": 88800,
          "time": 68.51845,
          "velocity": 0.2440944881889764
        },
        {
          "duration": 0.18518500000000415,
          "durationTicks": 240,
          "midi": 63,
          "name": "D#4",
          "ticks": 88800,
          "time": 68.51845,
          "velocity": 0.2047244094488189
        },
        {
          "duration": 0.2160491666666644,
          "durationTicks": 280,
          "midi": 54,
          "name": "F#3",
          "ticks": 89040,
          "time": 68.703635,
          "velocity": 0.2992125984251969
        },
        {
          "duration": 0.2160491666666644,
          "durationTicks": 280,
          "midi": 58,
          "name": "A#3",
          "ticks": 89040,
          "time": 68.703635,
          "velocity": 0.2125984251968504
        },
        {
          "duration": 0.2160491666666644,
          "durationTicks": 280,
          "midi": 59,
          "name": "B3",
          "ticks": 89040,
          "time": 68.703635,
          "velocity": 0.1889763779527559
        },
        {
          "duration": 0.18518499999998994,
          "durationTicks": 240,
          "midi": 32,
          "name": "G#1",
          "ticks": 89280,
          "time": 68.88882000000001,
          "velocity": 0.3858267716535433
        },
        {
          "duration": 0.21604916666667862,
          "durationTicks": 280,
          "midi": 51,
          "name": "D#3",
          "ticks": 89520,
          "time": 69.074005,
          "velocity": 0.25984251968503935
        },
        {
          "duration": 0.21604916666667862,
          "durationTicks": 280,
          "midi": 63,
          "name": "D#4",
          "ticks": 89520,
          "time": 69.074005,
          "velocity": 0.36220472440944884
        },
        {
          "duration": 0.21604916666667862,
          "durationTicks": 280,
          "midi": 51,
          "name": "D#3",
          "ticks": 89760,
          "time": 69.25919,
          "velocity": 0.3779527559055118
        },
        {
          "duration": 0.21604916666667862,
          "durationTicks": 280,
          "midi": 54,
          "name": "F#3",
          "ticks": 89760,
          "time": 69.25919,
          "velocity": 0.33858267716535434
        },
        {
          "duration": 0.21604916666667862,
          "durationTicks": 280,
          "midi": 63,
          "name": "D#4",
          "ticks": 89760,
          "time": 69.25919,
          "velocity": 0.3937007874015748
        },
        {
          "duration": 0.24691333333332466,
          "durationTicks": 320,
          "midi": 63,
          "name": "D#4",
          "ticks": 89880,
          "time": 69.35178250000001,
          "velocity": 0.25196850393700787
        },
        {
          "duration": 0.18518500000000415,
          "durationTicks": 240,
          "midi": 39,
          "name": "D#2",
          "ticks": 90000,
          "time": 69.44437500000001,
          "velocity": 0.3779527559055118
        },
        {
          "duration": 0.18518500000000415,
          "durationTicks": 240,
          "midi": 51,
          "name": "D#3",
          "ticks": 90000,
          "time": 69.44437500000001,
          "velocity": 0.3779527559055118
        },
        {
          "duration": 0.1543208333333297,
          "durationTicks": 200,
          "midi": 32,
          "name": "G#1",
          "ticks": 90240,
          "time": 69.62956000000001,
          "velocity": 0.5039370078740157
        },
        {
          "duration": 0.18518499999998994,
          "durationTicks": 240,
          "midi": 44,
          "name": "G#2",
          "ticks": 90240,
          "time": 69.62956000000001,
          "velocity": 0.4094488188976378
        },
        {
          "duration": 0.18518499999998994,
          "durationTicks": 240,
          "midi": 55,
          "name": "G3",
          "ticks": 90240,
          "time": 69.62956000000001,
          "velocity": 0.2440944881889764
        },
        {
          "duration": 0.18518499999998994,
          "durationTicks": 240,
          "midi": 58,
          "name": "A#3",
          "ticks": 90240,
          "time": 69.62956000000001,
          "velocity": 0.4015748031496063
        },
        {
          "duration": 0.18518499999998994,
          "durationTicks": 240,
          "midi": 59,
          "name": "B3",
          "ticks": 90240,
          "time": 69.62956000000001,
          "velocity": 0.2440944881889764
        },
        {
          "duration": 0.18518499999998994,
          "durationTicks": 240,
          "midi": 63,
          "name": "D#4",
          "ticks": 90240,
          "time": 69.62956000000001,
          "velocity": 0.2677165354330709
        },
        {
          "duration": 0.18518500000000415,
          "durationTicks": 240,
          "midi": 56,
          "name": "G#3",
          "ticks": 90480,
          "time": 69.814745,
          "velocity": 0.47244094488188976
        },
        {
          "duration": 0.1543208333333297,
          "durationTicks": 200,
          "midi": 68,
          "name": "G#4",
          "ticks": 90480,
          "time": 69.814745,
          "velocity": 0.5905511811023622
        },
        {
          "duration": 0.18518500000000415,
          "durationTicks": 240,
          "midi": 46,
          "name": "A#2",
          "ticks": 90720,
          "time": 69.99993,
          "velocity": 0.2047244094488189
        },
        {
          "duration": 0.18518500000000415,
          "durationTicks": 240,
          "midi": 55,
          "name": "G3",
          "ticks": 90720,
          "time": 69.99993,
          "velocity": 0.25984251968503935
        },
        {
          "duration": 0.1543208333333297,
          "durationTicks": 200,
          "midi": 70,
          "name": "A#4",
          "ticks": 90960,
          "time": 70.18511500000001,
          "velocity": 0.41732283464566927
        },
        {
          "duration": 0.12345666666666943,
          "durationTicks": 160,
          "midi": 58,
          "name": "A#3",
          "ticks": 91080,
          "time": 70.2777075,
          "velocity": 0.41732283464566927
        },
        {
          "duration": 0.18518500000000415,
          "durationTicks": 240,
          "midi": 34,
          "name": "A#1",
          "ticks": 91200,
          "time": 70.3703,
          "velocity": 0.4251968503937008
        },
        {
          "duration": 0.18518500000000415,
          "durationTicks": 240,
          "midi": 46,
          "name": "A#2",
          "ticks": 91200,
          "time": 70.3703,
          "velocity": 0.3858267716535433
        },
        {
          "duration": 0.18518500000000415,
          "durationTicks": 240,
          "midi": 56,
          "name": "G#3",
          "ticks": 91200,
          "time": 70.3703,
          "velocity": 0.29133858267716534
        },
        {
          "duration": 0.21604916666667862,
          "durationTicks": 280,
          "midi": 61,
          "name": "C#4",
          "ticks": 91200,
          "time": 70.3703,
          "velocity": 0.2204724409448819
        },
        {
          "duration": 0.21604916666667862,
          "durationTicks": 280,
          "midi": 65,
          "name": "F4",
          "ticks": 91200,
          "time": 70.3703,
          "velocity": 0.1889763779527559
        },
        {
          "duration": 0.18518500000000415,
          "durationTicks": 240,
          "midi": 73,
          "name": "C#5",
          "ticks": 91200,
          "time": 70.3703,
          "velocity": 0.2047244094488189
        },
        {
          "duration": 0.1543208333333297,
          "durationTicks": 200,
          "midi": 59,
          "name": "B3",
          "ticks": 91440,
          "time": 70.555485,
          "velocity": 0.30708661417322836
        },
        {
          "duration": 0.12345666666668365,
          "durationTicks": 160,
          "midi": 71,
          "name": "B4",
          "ticks": 91560,
          "time": 70.6480775,
          "velocity": 0.4094488188976378
        },
        {
          "duration": 0.18518500000000415,
          "durationTicks": 240,
          "midi": 46,
          "name": "A#2",
          "ticks": 91680,
          "time": 70.74067000000001,
          "velocity": 0.33070866141732286
        },
        {
          "duration": 0.1543208333333297,
          "durationTicks": 200,
          "midi": 59,
          "name": "B3",
          "ticks": 91920,
          "time": 70.92585500000001,
          "velocity": 0.48031496062992124
        },
        {
          "duration": 0.3703700000000083,
          "durationTicks": 480,
          "midi": 35,
          "name": "B1",
          "ticks": 92160,
          "time": 71.11104,
          "velocity": 0.3858267716535433
        },
        {
          "duration": 0.3703700000000083,
          "durationTicks": 480,
          "midi": 56,
          "name": "G#3",
          "ticks": 92160,
          "time": 71.11104,
          "velocity": 0.3228346456692913
        },
        {
          "duration": 0.3703700000000083,
          "durationTicks": 480,
          "midi": 59,
          "name": "B3",
          "ticks": 92160,
          "time": 71.11104,
          "velocity": 0.44881889763779526
        },
        {
          "duration": 0.3703700000000083,
          "durationTicks": 480,
          "midi": 62,
          "name": "D4",
          "ticks": 92160,
          "time": 71.11104,
          "velocity": 0.2440944881889764
        },
        {
          "duration": 0.3703700000000083,
          "durationTicks": 480,
          "midi": 68,
          "name": "G#4",
          "ticks": 92160,
          "time": 71.11104,
          "velocity": 0.25984251968503935
        },
        {
          "duration": 0.3703700000000083,
          "durationTicks": 480,
          "midi": 74,
          "name": "D5",
          "ticks": 92160,
          "time": 71.11104,
          "velocity": 0.2440944881889764
        },
        {
          "duration": 0.3703700000000083,
          "durationTicks": 480,
          "midi": 83,
          "name": "B5",
          "ticks": 92160,
          "time": 71.11104,
          "velocity": 0.25196850393700787
        },
        {
          "duration": 0.7407400000000024,
          "durationTicks": 960,
          "midi": 54,
          "name": "F#3",
          "ticks": 92640,
          "time": 71.48141000000001,
          "velocity": 0.2677165354330709
        },
        {
          "duration": 0.2160491666666644,
          "durationTicks": 280,
          "midi": 56,
          "name": "G#3",
          "ticks": 93600,
          "time": 72.22215000000001,
          "velocity": 0.33858267716535434
        },
        {
          "duration": 0.1543208333333297,
          "durationTicks": 200,
          "midi": 62,
          "name": "D4",
          "ticks": 93600,
          "time": 72.22215000000001,
          "velocity": 0.2283464566929134
        },
        {
          "duration": 0.1543208333333297,
          "durationTicks": 200,
          "midi": 30,
          "name": "F#1",
          "ticks": 93840,
          "time": 72.407335,
          "velocity": 0.36220472440944884
        },
        {
          "duration": 0.1543208333333297,
          "durationTicks": 200,
          "midi": 35,
          "name": "B1",
          "ticks": 94080,
          "time": 72.59252000000001,
          "velocity": 0.36220472440944884
        },
        {
          "duration": 0.2160491666666644,
          "durationTicks": 280,
          "midi": 54,
          "name": "F#3",
          "ticks": 94080,
          "time": 72.59252000000001,
          "velocity": 0.25984251968503935
        },
        {
          "duration": 0.2160491666666644,
          "durationTicks": 280,
          "midi": 66,
          "name": "F#4",
          "ticks": 94080,
          "time": 72.59252000000001,
          "velocity": 0.2283464566929134
        },
        {
          "duration": 0.18518499999998994,
          "durationTicks": 240,
          "midi": 30,
          "name": "F#1",
          "ticks": 94320,
          "time": 72.77770500000001,
          "velocity": 0.30708661417322836
        },
        {
          "duration": 0.18518500000000415,
          "durationTicks": 240,
          "midi": 35,
          "name": "B1",
          "ticks": 94560,
          "time": 72.96289,
          "velocity": 0.3464566929133858
        },
        {
          "duration": 0.18518500000000415,
          "durationTicks": 240,
          "midi": 66,
          "name": "F#4",
          "ticks": 94560,
          "time": 72.96289,
          "velocity": 0.2047244094488189
        },
        {
          "duration": 0.3703699999999941,
          "durationTicks": 480,
          "midi": 54,
          "name": "F#3",
          "ticks": 94800,
          "time": 73.148075,
          "velocity": 0.29133858267716534
        },
        {
          "duration": 0.3703699999999941,
          "durationTicks": 480,
          "midi": 59,
          "name": "B3",
          "ticks": 94800,
          "time": 73.148075,
          "velocity": 0.2992125984251969
        },
        {
          "duration": 0.3703699999999941,
          "durationTicks": 480,
          "midi": 62,
          "name": "D4",
          "ticks": 94800,
          "time": 73.148075,
          "velocity": 0.2204724409448819
        },
        {
          "duration": 0.1543208333333297,
          "durationTicks": 200,
          "midi": 35,
          "name": "B1",
          "ticks": 95280,
          "time": 73.518445,
          "velocity": 0.31496062992125984
        },
        {
          "duration": 0.18518500000000415,
          "durationTicks": 240,
          "midi": 34,
          "name": "A#1",
          "ticks": 95520,
          "time": 73.70363,
          "velocity": 0.28346456692913385
        },
        {
          "duration": 0.18518500000000415,
          "durationTicks": 240,
          "midi": 66,
          "name": "F#4",
          "ticks": 95520,
          "time": 73.70363,
          "velocity": 0.968503937007874
        },
        {
          "duration": 0.18518500000000415,
          "durationTicks": 240,
          "midi": 78,
          "name": "F#5",
          "ticks": 95520,
          "time": 73.70363,
          "velocity": 0.968503937007874
        },
        {
          "duration": 0.1543208333333297,
          "durationTicks": 200,
          "midi": 35,
          "name": "B1",
          "ticks": 95760,
          "time": 73.88881500000001,
          "velocity": 0.33858267716535434
        },
        {
          "duration": 0.3703699999999941,
          "durationTicks": 480,
          "midi": 37,
          "name": "C#2",
          "ticks": 96000,
          "time": 74.07400000000001,
          "velocity": 0.36220472440944884
        },
        {
          "duration": 0.3703699999999941,
          "durationTicks": 480,
          "midi": 49,
          "name": "C#3",
          "ticks": 96000,
          "time": 74.07400000000001,
          "velocity": 0.3464566929133858
        },
        {
          "duration": 0.3703699999999941,
          "durationTicks": 480,
          "midi": 59,
          "name": "B3",
          "ticks": 96000,
          "time": 74.07400000000001,
          "velocity": 0.2283464566929134
        },
        {
          "duration": 0.3703699999999941,
          "durationTicks": 480,
          "midi": 61,
          "name": "C#4",
          "ticks": 96000,
          "time": 74.07400000000001,
          "velocity": 0.29133858267716534
        },
        {
          "duration": 0.3703699999999941,
          "durationTicks": 480,
          "midi": 78,
          "name": "F#5",
          "ticks": 96000,
          "time": 74.07400000000001,
          "velocity": 0.41732283464566927
        },
        {
          "duration": 0.2160491666666644,
          "durationTicks": 280,
          "midi": 59,
          "name": "B3",
          "ticks": 96480,
          "time": 74.44437,
          "velocity": 0.2283464566929134
        },
        {
          "duration": 0.18518499999998994,
          "durationTicks": 240,
          "midi": 59,
          "name": "B3",
          "ticks": 96720,
          "time": 74.62955500000001,
          "velocity": 0.28346456692913385
        },
        {
          "duration": 0.21604916666667862,
          "durationTicks": 280,
          "midi": 54,
          "name": "F#3",
          "ticks": 96960,
          "time": 74.81474,
          "velocity": 0.2677165354330709
        },
        {
          "duration": 0.1543208333333297,
          "durationTicks": 200,
          "midi": 63,
          "name": "D#4",
          "ticks": 96960,
          "time": 74.81474,
          "velocity": 0.23622047244094488
        },
        {
          "duration": 0.1543208333333297,
          "durationTicks": 200,
          "midi": 32,
          "name": "G#1",
          "ticks": 97200,
          "time": 74.999925,
          "velocity": 0.4015748031496063
        },
        {
          "duration": 0.18518500000000415,
          "durationTicks": 240,
          "midi": 37,
          "name": "C#2",
          "ticks": 97440,
          "time": 75.18511000000001,
          "velocity": 0.2755905511811024
        },
        {
          "duration": 0.18518500000000415,
          "durationTicks": 240,
          "midi": 54,
          "name": "F#3",
          "ticks": 97440,
          "time": 75.18511000000001,
          "velocity": 0.4015748031496063
        },
        {
          "duration": 0.18518500000000415,
          "durationTicks": 240,
          "midi": 66,
          "name": "F#4",
          "ticks": 97440,
          "time": 75.18511000000001,
          "velocity": 0.4094488188976378
        },
        {
          "duration": 0.1543208333333297,
          "durationTicks": 200,
          "midi": 32,
          "name": "G#1",
          "ticks": 97680,
          "time": 75.37029500000001,
          "velocity": 0.3543307086614173
        },
        {
          "duration": 0.18518500000000415,
          "durationTicks": 240,
          "midi": 35,
          "name": "B1",
          "ticks": 97920,
          "time": 75.55548,
          "velocity": 0.3464566929133858
        },
        {
          "duration": 0.18518500000000415,
          "durationTicks": 240,
          "midi": 53,
          "name": "F3",
          "ticks": 97920,
          "time": 75.55548,
          "velocity": 0.29133858267716534
        },
        {
          "duration": 0.18518500000000415,
          "durationTicks": 240,
          "midi": 56,
          "name": "G#3",
          "ticks": 97920,
          "time": 75.55548,
          "velocity": 0.2047244094488189
        },
        {
          "duration": 0.18518500000000415,
          "durationTicks": 240,
          "midi": 61,
          "name": "C#4",
          "ticks": 97920,
          "time": 75.55548,
          "velocity": 0.25984251968503935
        },
        {
          "duration": 0.18518500000000415,
          "durationTicks": 240,
          "midi": 65,
          "name": "F4",
          "ticks": 97920,
          "time": 75.55548,
          "velocity": 0.29133858267716534
        },
        {
          "duration": 0.12345666666666943,
          "durationTicks": 160,
          "midi": 65,
          "name": "F4",
          "ticks": 98280,
          "time": 75.8332575,
          "velocity": 0.2677165354330709
        },
        {
          "duration": 0.18518499999998994,
          "durationTicks": 240,
          "midi": 66,
          "name": "F#4",
          "ticks": 98400,
          "time": 75.92585000000001,
          "velocity": 0.49606299212598426
        },
        {
          "duration": 0.1543208333333297,
          "durationTicks": 200,
          "midi": 56,
          "name": "G#3",
          "ticks": 98640,
          "time": 76.111035,
          "velocity": 0.4251968503937008
        },
        {
          "duration": 0.1543208333333297,
          "durationTicks": 200,
          "midi": 65,
          "name": "F4",
          "ticks": 98640,
          "time": 76.111035,
          "velocity": 0.3464566929133858
        },
        {
          "duration": 0.18518500000000415,
          "durationTicks": 240,
          "midi": 63,
          "name": "D#4",
          "ticks": 98880,
          "time": 76.29622,
          "velocity": 0.2047244094488189
        },
        {
          "duration": 0.1543208333333297,
          "durationTicks": 200,
          "midi": 68,
          "name": "G#4",
          "ticks": 98880,
          "time": 76.29622,
          "velocity": 0.41732283464566927
        },
        {
          "duration": 0.18518500000000415,
          "durationTicks": 240,
          "midi": 35,
          "name": "B1",
          "ticks": 99120,
          "time": 76.48140500000001,
          "velocity": 0.2992125984251969
        },
        {
          "duration": 0.3703699999999941,
          "durationTicks": 480,
          "midi": 32,
          "name": "G#1",
          "ticks": 99360,
          "time": 76.66659000000001,
          "velocity": 0.3464566929133858
        },
        {
          "duration": 0.3703699999999941,
          "durationTicks": 480,
          "midi": 47,
          "name": "B2",
          "ticks": 99360,
          "time": 76.66659000000001,
          "velocity": 0.31496062992125984
        },
        {
          "duration": 0.3703699999999941,
          "durationTicks": 480,
          "midi": 53,
          "name": "F3",
          "ticks": 99360,
          "time": 76.66659000000001,
          "velocity": 0.2440944881889764
        },
        {
          "duration": 0.3703699999999941,
          "durationTicks": 480,
          "midi": 56,
          "name": "G#3",
          "ticks": 99360,
          "time": 76.66659000000001,
          "velocity": 0.5433070866141733
        },
        {
          "duration": 0.5555549999999982,
          "durationTicks": 720,
          "midi": 34,
          "name": "A#1",
          "ticks": 99840,
          "time": 77.03696000000001,
          "velocity": 0.5748031496062992
        },
        {
          "duration": 0.5555549999999982,
          "durationTicks": 720,
          "midi": 46,
          "name": "A#2",
          "ticks": 99840,
          "time": 77.03696000000001,
          "velocity": 0.5748031496062992
        },
        {
          "duration": 0.5555549999999982,
          "durationTicks": 720,
          "midi": 54,
          "name": "F#3",
          "ticks": 99840,
          "time": 77.03696000000001,
          "velocity": 0.2204724409448819
        },
        {
          "duration": 0.5555549999999982,
          "durationTicks": 720,
          "midi": 56,
          "name": "G#3",
          "ticks": 99840,
          "time": 77.03696000000001,
          "velocity": 0.2204724409448819
        },
        {
          "duration": 0.5555549999999982,
          "durationTicks": 720,
          "midi": 61,
          "name": "C#4",
          "ticks": 99840,
          "time": 77.03696000000001,
          "velocity": 0.5748031496062992
        },
        {
          "duration": 0.5555549999999982,
          "durationTicks": 720,
          "midi": 65,
          "name": "F4",
          "ticks": 99840,
          "time": 77.03696000000001,
          "velocity": 0.25196850393700787
        },
        {
          "duration": 0.49382666666667774,
          "durationTicks": 640,
          "midi": 73,
          "name": "C#5",
          "ticks": 99960,
          "time": 77.1295525,
          "velocity": 0.6771653543307087
        },
        {
          "duration": 0.3703699999999941,
          "durationTicks": 480,
          "midi": 56,
          "name": "G#3",
          "ticks": 100560,
          "time": 77.592515,
          "velocity": 0.3228346456692913
        },
        {
          "duration": 0.3703699999999941,
          "durationTicks": 480,
          "midi": 61,
          "name": "C#4",
          "ticks": 100560,
          "time": 77.592515,
          "velocity": 0.8582677165354331
        },
        {
          "duration": 0.18518500000000415,
          "durationTicks": 240,
          "midi": 34,
          "name": "A#1",
          "ticks": 101040,
          "time": 77.962885,
          "velocity": 0.4330708661417323
        },
        {
          "duration": 0.18518500000000415,
          "durationTicks": 240,
          "midi": 56,
          "name": "G#3",
          "ticks": 101040,
          "time": 77.962885,
          "velocity": 0.30708661417322836
        },
        {
          "duration": 0.1543208333333297,
          "durationTicks": 200,
          "midi": 61,
          "name": "C#4",
          "ticks": 101040,
          "time": 77.962885,
          "velocity": 0.8346456692913385
        },
        {
          "duration": 0.18518500000000415,
          "durationTicks": 240,
          "midi": 42,
          "name": "F#2",
          "ticks": 101280,
          "time": 78.14807,
          "velocity": 0.36220472440944884
        },
        {
          "duration": 0.18518500000000415,
          "durationTicks": 240,
          "midi": 61,
          "name": "C#4",
          "ticks": 101280,
          "time": 78.14807,
          "velocity": 0.8188976377952756
        },
        {
          "duration": 0.18518500000000415,
          "durationTicks": 240,
          "midi": 41,
          "name": "F2",
          "ticks": 101520,
          "time": 78.33325500000001,
          "velocity": 0.33858267716535434
        },
        {
          "duration": 0.3703699999999941,
          "durationTicks": 480,
          "midi": 39,
          "name": "D#2",
          "ticks": 101760,
          "time": 78.51844000000001,
          "velocity": 0.33070866141732286
        },
        {
          "duration": 0.3703699999999941,
          "durationTicks": 480,
          "midi": 58,
          "name": "A#3",
          "ticks": 101760,
          "time": 78.51844000000001,
          "velocity": 0.2992125984251969
        },
        {
          "duration": 0.3703699999999941,
          "durationTicks": 480,
          "midi": 61,
          "name": "C#4",
          "ticks": 101760,
          "time": 78.51844000000001,
          "velocity": 0.30708661417322836
        },
        {
          "duration": 0.3703699999999941,
          "durationTicks": 480,
          "midi": 66,
          "name": "F#4",
          "ticks": 101760,
          "time": 78.51844000000001,
          "velocity": 0.6614173228346457
        },
        {
          "duration": 0.18518500000000415,
          "durationTicks": 240,
          "midi": 54,
          "name": "F#3",
          "ticks": 102240,
          "time": 78.88881,
          "velocity": 0.28346456692913385
        },
        {
          "duration": 0.3703699999999941,
          "durationTicks": 480,
          "midi": 58,
          "name": "A#3",
          "ticks": 102480,
          "time": 79.07399500000001,
          "velocity": 0.25984251968503935
        },
        {
          "duration": 0.3703699999999941,
          "durationTicks": 480,
          "midi": 61,
          "name": "C#4",
          "ticks": 102480,
          "time": 79.07399500000001,
          "velocity": 0.2047244094488189
        },
        {
          "duration": 0.18518500000000415,
          "durationTicks": 240,
          "midi": 34,
          "name": "A#1",
          "ticks": 102960,
          "time": 79.444365,
          "velocity": 0.3464566929133858
        },
        {
          "duration": 0.21604916666667862,
          "durationTicks": 280,
          "midi": 61,
          "name": "C#4",
          "ticks": 102960,
          "time": 79.444365,
          "velocity": 0.2283464566929134
        },
        {
          "duration": 0.1543208333333297,
          "durationTicks": 200,
          "midi": 39,
          "name": "D#2",
          "ticks": 103200,
          "time": 79.62955000000001,
          "velocity": 0.31496062992125984
        },
        {
          "duration": 0.18518499999998994,
          "durationTicks": 240,
          "midi": 34,
          "name": "A#1",
          "ticks": 103440,
          "time": 79.81473500000001,
          "velocity": 0.3779527559055118
        },
        {
          "duration": 0.33950583333333384,
          "durationTicks": 440,
          "midi": 32,
          "name": "G#1",
          "ticks": 103680,
          "time": 79.99992,
          "velocity": 0.4566929133858268
        },
        {
          "duration": 0.3703700000000083,
          "durationTicks": 480,
          "midi": 44,
          "name": "G#2",
          "ticks": 103680,
          "time": 79.99992,
          "velocity": 0.33070866141732286
        },
        {
          "duration": 0.3703700000000083,
          "durationTicks": 480,
          "midi": 54,
          "name": "F#3",
          "ticks": 103680,
          "time": 79.99992,
          "velocity": 0.2047244094488189
        },
        {
          "duration": 0.3703700000000083,
          "durationTicks": 480,
          "midi": 58,
          "name": "A#3",
          "ticks": 103680,
          "time": 79.99992,
          "velocity": 0.2440944881889764
        },
        {
          "duration": 0.3703700000000083,
          "durationTicks": 480,
          "midi": 61,
          "name": "C#4",
          "ticks": 103680,
          "time": 79.99992,
          "velocity": 0.2440944881889764
        },
        {
          "duration": 0.2160491666666644,
          "durationTicks": 280,
          "midi": 51,
          "name": "D#3",
          "ticks": 104160,
          "time": 80.37029000000001,
          "velocity": 0.2677165354330709
        },
        {
          "duration": 0.18518500000000415,
          "durationTicks": 240,
          "midi": 54,
          "name": "F#3",
          "ticks": 104400,
          "time": 80.555475,
          "velocity": 0.2047244094488189
        },
        {
          "duration": 0.18518500000000415,
          "durationTicks": 240,
          "midi": 56,
          "name": "G#3",
          "ticks": 104400,
          "time": 80.555475,
          "velocity": 0.30708661417322836
        },
        {
          "duration": 0.18518500000000415,
          "durationTicks": 240,
          "midi": 59,
          "name": "B3",
          "ticks": 104400,
          "time": 80.555475,
          "velocity": 0.5196850393700787
        },
        {
          "duration": 0.18518500000000415,
          "durationTicks": 240,
          "midi": 71,
          "name": "B4",
          "ticks": 104400,
          "time": 80.555475,
          "velocity": 0.5196850393700787
        },
        {
          "duration": 0.18518500000000415,
          "durationTicks": 240,
          "midi": 32,
          "name": "G#1",
          "ticks": 104640,
          "time": 80.74066,
          "velocity": 0.5196850393700787
        },
        {
          "duration": 0.18518500000000415,
          "durationTicks": 240,
          "midi": 56,
          "name": "G#3",
          "ticks": 104640,
          "time": 80.74066,
          "velocity": 0.30708661417322836
        },
        {
          "duration": 0.18518500000000415,
          "durationTicks": 240,
          "midi": 39,
          "name": "D#2",
          "ticks": 104880,
          "time": 80.92584500000001,
          "velocity": 0.28346456692913385
        },
        {
          "duration": 0.18518499999998994,
          "durationTicks": 240,
          "midi": 32,
          "name": "G#1",
          "ticks": 105120,
          "time": 81.11103000000001,
          "velocity": 0.2992125984251969
        },
        {
          "duration": 0.18518499999998994,
          "durationTicks": 240,
          "midi": 54,
          "name": "F#3",
          "ticks": 105120,
          "time": 81.11103000000001,
          "velocity": 0.1889763779527559
        },
        {
          "duration": 0.18518499999998994,
          "durationTicks": 240,
          "midi": 59,
          "name": "B3",
          "ticks": 105120,
          "time": 81.11103000000001,
          "velocity": 0.29133858267716534
        },
        {
          "duration": 0.18518499999998994,
          "durationTicks": 240,
          "midi": 70,
          "name": "A#4",
          "ticks": 105120,
          "time": 81.11103000000001,
          "velocity": 0.7322834645669292
        },
        {
          "duration": 0.1543208333333297,
          "durationTicks": 200,
          "midi": 34,
          "name": "A#1",
          "ticks": 105360,
          "time": 81.296215,
          "velocity": 0.3464566929133858
        },
        {
          "duration": 0.1543208333333297,
          "durationTicks": 200,
          "midi": 46,
          "name": "A#2",
          "ticks": 105360,
          "time": 81.296215,
          "velocity": 0.3464566929133858
        },
        {
          "duration": 0.3703699999999941,
          "durationTicks": 480,
          "midi": 35,
          "name": "B1",
          "ticks": 105600,
          "time": 81.48140000000001,
          "velocity": 0.4566929133858268
        },
        {
          "duration": 0.3703699999999941,
          "durationTicks": 480,
          "midi": 53,
          "name": "F3",
          "ticks": 105600,
          "time": 81.48140000000001,
          "velocity": 0.2204724409448819
        },
        {
          "duration": 0.3703699999999941,
          "durationTicks": 480,
          "midi": 56,
          "name": "G#3",
          "ticks": 105600,
          "time": 81.48140000000001,
          "velocity": 0.23622047244094488
        },
        {
          "duration": 0.3703699999999941,
          "durationTicks": 480,
          "midi": 59,
          "name": "B3",
          "ticks": 105600,
          "time": 81.48140000000001,
          "velocity": 0.33070866141732286
        },
        {
          "duration": 0.3703699999999941,
          "durationTicks": 480,
          "midi": 63,
          "name": "D#4",
          "ticks": 105600,
          "time": 81.48140000000001,
          "velocity": 0.2283464566929134
        },
        {
          "duration": 0.3703699999999941,
          "durationTicks": 480,
          "midi": 71,
          "name": "B4",
          "ticks": 105600,
          "time": 81.48140000000001,
          "velocity": 0.33070866141732286
        },
        {
          "duration": 0.1543208333333297,
          "durationTicks": 200,
          "midi": 53,
          "name": "F3",
          "ticks": 106080,
          "time": 81.85177,
          "velocity": 0.2440944881889764
        },
        {
          "duration": 0.18518500000000415,
          "durationTicks": 240,
          "midi": 56,
          "name": "G#3",
          "ticks": 106320,
          "time": 82.036955,
          "velocity": 0.3543307086614173
        },
        {
          "duration": 0.18518500000000415,
          "durationTicks": 240,
          "midi": 66,
          "name": "F#4",
          "ticks": 106320,
          "time": 82.036955,
          "velocity": 0.7165354330708661
        },
        {
          "duration": 0.18518499999998994,
          "durationTicks": 240,
          "midi": 32,
          "name": "G#1",
          "ticks": 106560,
          "time": 82.22214000000001,
          "velocity": 0.3228346456692913
        },
        {
          "duration": 0.1543208333333297,
          "durationTicks": 200,
          "midi": 59,
          "name": "B3",
          "ticks": 106560,
          "time": 82.22214000000001,
          "velocity": 0.25984251968503935
        },
        {
          "duration": 0.18518500000000415,
          "durationTicks": 240,
          "midi": 35,
          "name": "B1",
          "ticks": 106800,
          "time": 82.407325,
          "velocity": 0.36220472440944884
        },
        {
          "duration": 0.1543208333333297,
          "durationTicks": 200,
          "midi": 32,
          "name": "G#1",
          "ticks": 107040,
          "time": 82.59251,
          "velocity": 0.36220472440944884
        },
        {
          "duration": 0.1543208333333297,
          "durationTicks": 200,
          "midi": 56,
          "name": "G#3",
          "ticks": 107040,
          "time": 82.59251,
          "velocity": 0.4566929133858268
        },
        {
          "duration": 0.21604916666667862,
          "durationTicks": 280,
          "midi": 68,
          "name": "G#4",
          "ticks": 107040,
          "time": 82.59251,
          "velocity": 0.5826771653543307
        },
        {
          "duration": 0.18518500000000415,
          "durationTicks": 240,
          "midi": 33,
          "name": "A1",
          "ticks": 107280,
          "time": 82.77769500000001,
          "velocity": 0.31496062992125984
        },
        {
          "duration": 0.33950583333331963,
          "durationTicks": 440,
          "midi": 34,
          "name": "A#1",
          "ticks": 107520,
          "time": 82.96288000000001,
          "velocity": 0.49606299212598426
        },
        {
          "duration": 0.33950583333331963,
          "durationTicks": 440,
          "midi": 46,
          "name": "A#2",
          "ticks": 107520,
          "time": 82.96288000000001,
          "velocity": 0.49606299212598426
        },
        {
          "duration": 0.33950583333331963,
          "durationTicks": 440,
          "midi": 56,
          "name": "G#3",
          "ticks": 107520,
          "time": 82.96288000000001,
          "velocity": 0.4409448818897638
        },
        {
          "duration": 0.33950583333331963,
          "durationTicks": 440,
          "midi": 62,
          "name": "D4",
          "ticks": 107520,
          "time": 82.96288000000001,
          "velocity": 0.2204724409448819
        },
        {
          "duration": 0.33950583333331963,
          "durationTicks": 440,
          "midi": 67,
          "name": "G4",
          "ticks": 107520,
          "time": 82.96288000000001,
          "velocity": 0.33070866141732286
        },
        {
          "duration": 0.33950583333331963,
          "durationTicks": 440,
          "midi": 68,
          "name": "G#4",
          "ticks": 107520,
          "time": 82.96288000000001,
          "velocity": 0.4409448818897638
        },
        {
          "duration": 0.33950583333331963,
          "durationTicks": 440,
          "midi": 70,
          "name": "A#4",
          "ticks": 107520,
          "time": 82.96288000000001,
          "velocity": 0.1968503937007874
        },
        {
          "duration": 0.18518500000000415,
          "durationTicks": 240,
          "midi": 53,
          "name": "F3",
          "ticks": 108000,
          "time": 83.33325,
          "velocity": 0.2755905511811024
        },
        {
          "duration": 0.3703699999999941,
          "durationTicks": 480,
          "midi": 56,
          "name": "G#3",
          "ticks": 108240,
          "time": 83.51843500000001,
          "velocity": 0.2677165354330709
        },
        {
          "duration": 0.3703699999999941,
          "durationTicks": 480,
          "midi": 62,
          "name": "D4",
          "ticks": 108240,
          "time": 83.51843500000001,
          "velocity": 0.2125984251968504
        },
        {
          "duration": 0.3703699999999941,
          "durationTicks": 480,
          "midi": 66,
          "name": "F#4",
          "ticks": 108240,
          "time": 83.51843500000001,
          "velocity": 0.2440944881889764
        },
        {
          "duration": 0.33950583333331963,
          "durationTicks": 440,
          "midi": 71,
          "name": "B4",
          "ticks": 108240,
          "time": 83.51843500000001,
          "velocity": 0.49606299212598426
        },
        {
          "duration": 0.1543208333333297,
          "durationTicks": 200,
          "midi": 34,
          "name": "A#1",
          "ticks": 108720,
          "time": 83.888805,
          "velocity": 0.3858267716535433
        },
        {
          "duration": 0.18518500000000415,
          "durationTicks": 240,
          "midi": 41,
          "name": "F2",
          "ticks": 108960,
          "time": 84.07399000000001,
          "velocity": 0.3858267716535433
        },
        {
          "duration": 0.18518500000000415,
          "durationTicks": 240,
          "midi": 53,
          "name": "F3",
          "ticks": 108960,
          "time": 84.07399000000001,
          "velocity": 0.3858267716535433
        },
        {
          "duration": 0.18518500000000415,
          "durationTicks": 240,
          "midi": 58,
          "name": "A#3",
          "ticks": 108960,
          "time": 84.07399000000001,
          "velocity": 0.47244094488188976
        },
        {
          "duration": 0.18518500000000415,
          "durationTicks": 240,
          "midi": 65,
          "name": "F4",
          "ticks": 108960,
          "time": 84.07399000000001,
          "velocity": 0.2677165354330709
        },
        {
          "duration": 0.1543208333333297,
          "durationTicks": 200,
          "midi": 70,
          "name": "A#4",
          "ticks": 108960,
          "time": 84.07399000000001,
          "velocity": 0.48031496062992124
        },
        {
          "duration": 0.1543208333333297,
          "durationTicks": 200,
          "midi": 40,
          "name": "E2",
          "ticks": 109200,
          "time": 84.25917500000001,
          "velocity": 0.30708661417322836
        },
        {
          "duration": 0.18518500000000415,
          "durationTicks": 240,
          "midi": 39,
          "name": "D#2",
          "ticks": 109440,
          "time": 84.44436,
          "velocity": 0.3700787401574803
        },
        {
          "duration": 0.18518500000000415,
          "durationTicks": 240,
          "midi": 55,
          "name": "G3",
          "ticks": 109440,
          "time": 84.44436,
          "velocity": 0.2047244094488189
        },
        {
          "duration": 0.18518500000000415,
          "durationTicks": 240,
          "midi": 58,
          "name": "A#3",
          "ticks": 109440,
          "time": 84.44436,
          "velocity": 0.4566929133858268
        },
        {
          "duration": 0.1543208333333297,
          "durationTicks": 200,
          "midi": 60,
          "name": "C4",
          "ticks": 109440,
          "time": 84.44436,
          "velocity": 0.2283464566929134
        },
        {
          "duration": 0.18518500000000415,
          "durationTicks": 240,
          "midi": 64,
          "name": "E4",
          "ticks": 109440,
          "time": 84.44436,
          "velocity": 0.28346456692913385
        },
        {
          "duration": 0.1543208333333297,
          "durationTicks": 200,
          "midi": 70,
          "name": "A#4",
          "ticks": 109440,
          "time": 84.44436,
          "velocity": 0.4566929133858268
        },
        {
          "duration": 0.18518500000000415,
          "durationTicks": 240,
          "midi": 39,
          "name": "D#2",
          "ticks": 109680,
          "time": 84.62954500000001,
          "velocity": 0.3779527559055118
        },
        {
          "duration": 0.18518500000000415,
          "durationTicks": 240,
          "midi": 55,
          "name": "G3",
          "ticks": 109680,
          "time": 84.62954500000001,
          "velocity": 0.1889763779527559
        },
        {
          "duration": 0.18518500000000415,
          "durationTicks": 240,
          "midi": 64,
          "name": "E4",
          "ticks": 109680,
          "time": 84.62954500000001,
          "velocity": 0.2992125984251969
        },
        {
          "duration": 0.2160491666666644,
          "durationTicks": 280,
          "midi": 55,
          "name": "G3",
          "ticks": 109920,
          "time": 84.81473000000001,
          "velocity": 0.1889763779527559
        },
        {
          "duration": 0.2160491666666644,
          "durationTicks": 280,
          "midi": 58,
          "name": "A#3",
          "ticks": 109920,
          "time": 84.81473000000001,
          "velocity": 0.4015748031496063
        },
        {
          "duration": 0.18518500000000415,
          "durationTicks": 240,
          "midi": 34,
          "name": "A#1",
          "ticks": 110160,
          "time": 84.999915,
          "velocity": 0.3543307086614173
        },
        {
          "duration": 0.18518500000000415,
          "durationTicks": 240,
          "midi": 55,
          "name": "G3",
          "ticks": 110160,
          "time": 84.999915,
          "velocity": 0.2125984251968504
        },
        {
          "duration": 0.18518500000000415,
          "durationTicks": 240,
          "midi": 58,
          "name": "A#3",
          "ticks": 110160,
          "time": 84.999915,
          "velocity": 0.3858267716535433
        },
        {
          "duration": 0.18518500000000415,
          "durationTicks": 240,
          "midi": 59,
          "name": "B3",
          "ticks": 110160,
          "time": 84.999915,
          "velocity": 0.1968503937007874
        },
        {
          "duration": 0.18518500000000415,
          "durationTicks": 240,
          "midi": 63,
          "name": "D#4",
          "ticks": 110160,
          "time": 84.999915,
          "velocity": 0.23622047244094488
        },
        {
          "duration": 0.1543208333333297,
          "durationTicks": 200,
          "midi": 58,
          "name": "A#3",
          "ticks": 110400,
          "time": 85.1851,
          "velocity": 0.23622047244094488
        },
        {
          "duration": 0.1543208333333297,
          "durationTicks": 200,
          "midi": 63,
          "name": "D#4",
          "ticks": 110400,
          "time": 85.1851,
          "velocity": 0.2204724409448819
        },
        {
          "duration": 0.18518500000000415,
          "durationTicks": 240,
          "midi": 39,
          "name": "D#2",
          "ticks": 110640,
          "time": 85.37028500000001,
          "velocity": 0.33858267716535434
        },
        {
          "duration": 0.18518500000000415,
          "durationTicks": 240,
          "midi": 55,
          "name": "G3",
          "ticks": 110640,
          "time": 85.37028500000001,
          "velocity": 0.2204724409448819
        },
        {
          "duration": 0.18518499999998994,
          "durationTicks": 240,
          "midi": 34,
          "name": "A#1",
          "ticks": 110880,
          "time": 85.55547000000001,
          "velocity": 0.3543307086614173
        },
        {
          "duration": 0.18518499999998994,
          "durationTicks": 240,
          "midi": 54,
          "name": "F#3",
          "ticks": 110880,
          "time": 85.55547000000001,
          "velocity": 0.2047244094488189
        },
        {
          "duration": 0.18518499999998994,
          "durationTicks": 240,
          "midi": 55,
          "name": "G3",
          "ticks": 110880,
          "time": 85.55547000000001,
          "velocity": 0.2204724409448819
        },
        {
          "duration": 0.18518499999998994,
          "durationTicks": 240,
          "midi": 58,
          "name": "A#3",
          "ticks": 110880,
          "time": 85.55547000000001,
          "velocity": 0.5590551181102362
        },
        {
          "duration": 0.18518499999998994,
          "durationTicks": 240,
          "midi": 61,
          "name": "C#4",
          "ticks": 110880,
          "time": 85.55547000000001,
          "velocity": 0.2204724409448819
        },
        {
          "duration": 0.1543208333333297,
          "durationTicks": 200,
          "midi": 70,
          "name": "A#4",
          "ticks": 110880,
          "time": 85.55547000000001,
          "velocity": 0.5590551181102362
        },
        {
          "duration": 0.18518500000000415,
          "durationTicks": 240,
          "midi": 33,
          "name": "A1",
          "ticks": 111120,
          "time": 85.740655,
          "velocity": 0.3700787401574803
        },
        {
          "duration": 0.18518500000000415,
          "durationTicks": 240,
          "midi": 55,
          "name": "G3",
          "ticks": 111120,
          "time": 85.740655,
          "velocity": 0.1968503937007874
        },
        {
          "duration": 0.18518500000000415,
          "durationTicks": 240,
          "midi": 58,
          "name": "A#3",
          "ticks": 111120,
          "time": 85.740655,
          "velocity": 0.4566929133858268
        },
        {
          "duration": 0.18518500000000415,
          "durationTicks": 240,
          "midi": 61,
          "name": "C#4",
          "ticks": 111120,
          "time": 85.740655,
          "velocity": 0.2283464566929134
        },
        {
          "duration": 0.18518500000000415,
          "durationTicks": 240,
          "midi": 70,
          "name": "A#4",
          "ticks": 111120,
          "time": 85.740655,
          "velocity": 0.5905511811023622
        },
        {
          "duration": 0.3703699999999941,
          "durationTicks": 480,
          "midi": 32,
          "name": "G#1",
          "ticks": 111360,
          "time": 85.92584000000001,
          "velocity": 0.4881889763779528
        },
        {
          "duration": 0.40123416666666856,
          "durationTicks": 520,
          "midi": 44,
          "name": "G#2",
          "ticks": 111360,
          "time": 85.92584000000001,
          "velocity": 0.3779527559055118
        },
        {
          "duration": 0.3703699999999941,
          "durationTicks": 480,
          "midi": 54,
          "name": "F#3",
          "ticks": 111360,
          "time": 85.92584000000001,
          "velocity": 0.2204724409448819
        },
        {
          "duration": 0.3703699999999941,
          "durationTicks": 480,
          "midi": 56,
          "name": "G#3",
          "ticks": 111360,
          "time": 85.92584000000001,
          "velocity": 0.3228346456692913
        },
        {
          "duration": 0.3703699999999941,
          "durationTicks": 480,
          "midi": 59,
          "name": "B3",
          "ticks": 111360,
          "time": 85.92584000000001,
          "velocity": 0.1968503937007874
        },
        {
          "duration": 0.3703699999999941,
          "durationTicks": 480,
          "midi": 63,
          "name": "D#4",
          "ticks": 111360,
          "time": 85.92584000000001,
          "velocity": 0.2283464566929134
        },
        {
          "duration": 0.3703699999999941,
          "durationTicks": 480,
          "midi": 66,
          "name": "F#4",
          "ticks": 111360,
          "time": 85.92584000000001,
          "velocity": 0.2204724409448819
        },
        {
          "duration": 0.3703699999999941,
          "durationTicks": 480,
          "midi": 70,
          "name": "A#4",
          "ticks": 111360,
          "time": 85.92584000000001,
          "velocity": 0.4645669291338583
        },
        {
          "duration": 0.18518500000000415,
          "durationTicks": 240,
          "midi": 54,
          "name": "F#3",
          "ticks": 111840,
          "time": 86.29621,
          "velocity": 0.2283464566929134
        },
        {
          "duration": 0.33950583333333384,
          "durationTicks": 440,
          "midi": 54,
          "name": "F#3",
          "ticks": 112080,
          "time": 86.481395,
          "velocity": 0.2992125984251969
        },
        {
          "duration": 0.33950583333333384,
          "durationTicks": 440,
          "midi": 59,
          "name": "B3",
          "ticks": 112080,
          "time": 86.481395,
          "velocity": 0.2440944881889764
        },
        {
          "duration": 0.33950583333333384,
          "durationTicks": 440,
          "midi": 63,
          "name": "D#4",
          "ticks": 112080,
          "time": 86.481395,
          "velocity": 0.25984251968503935
        },
        {
          "duration": 0.33950583333333384,
          "durationTicks": 440,
          "midi": 68,
          "name": "G#4",
          "ticks": 112080,
          "time": 86.481395,
          "velocity": 0.30708661417322836
        },
        {
          "duration": 0.18518499999998994,
          "durationTicks": 240,
          "midi": 39,
          "name": "D#2",
          "ticks": 112560,
          "time": 86.85176500000001,
          "velocity": 0.3228346456692913
        },
        {
          "duration": 0.2777774999999991,
          "durationTicks": 360,
          "midi": 66,
          "name": "F#4",
          "ticks": 112680,
          "time": 86.94435750000001,
          "velocity": 0.2992125984251969
        },
        {
          "duration": 0.18518500000000415,
          "durationTicks": 240,
          "midi": 32,
          "name": "G#1",
          "ticks": 112800,
          "time": 87.03695,
          "velocity": 0.36220472440944884
        },
        {
          "duration": 0.18518500000000415,
          "durationTicks": 240,
          "midi": 63,
          "name": "D#4",
          "ticks": 112800,
          "time": 87.03695,
          "velocity": 0.2992125984251969
        },
        {
          "duration": 0.18518500000000415,
          "durationTicks": 240,
          "midi": 33,
          "name": "A1",
          "ticks": 113040,
          "time": 87.22213500000001,
          "velocity": 0.33858267716535434
        },
        {
          "duration": 0.09259250000000918,
          "durationTicks": 120,
          "midi": 66,
          "name": "F#4",
          "ticks": 113160,
          "time": 87.3147275,
          "velocity": 0.36220472440944884
        },
        {
          "duration": 0.18518499999998994,
          "durationTicks": 240,
          "midi": 34,
          "name": "A#1",
          "ticks": 113280,
          "time": 87.40732000000001,
          "velocity": 0.4566929133858268
        },
        {
          "duration": 0.18518499999998994,
          "durationTicks": 240,
          "midi": 46,
          "name": "A#2",
          "ticks": 113280,
          "time": 87.40732000000001,
          "velocity": 0.30708661417322836
        },
        {
          "duration": 0.18518499999998994,
          "durationTicks": 240,
          "midi": 56,
          "name": "G#3",
          "ticks": 113280,
          "time": 87.40732000000001,
          "velocity": 0.2204724409448819
        },
        {
          "duration": 0.18518499999998994,
          "durationTicks": 240,
          "midi": 61,
          "name": "C#4",
          "ticks": 113280,
          "time": 87.40732000000001,
          "velocity": 0.2204724409448819
        },
        {
          "duration": 0.18518499999998994,
          "durationTicks": 240,
          "midi": 65,
          "name": "F4",
          "ticks": 113280,
          "time": 87.40732000000001,
          "velocity": 0.28346456692913385
        },
        {
          "duration": 0.21604916666667862,
          "durationTicks": 280,
          "midi": 68,
          "name": "G#4",
          "ticks": 113520,
          "time": 87.592505,
          "velocity": 0.5354330708661418
        },
        {
          "duration": 0.18518500000000415,
          "durationTicks": 240,
          "midi": 56,
          "name": "G#3",
          "ticks": 113760,
          "time": 87.77769,
          "velocity": 0.36220472440944884
        },
        {
          "duration": 0.18518500000000415,
          "durationTicks": 240,
          "midi": 61,
          "name": "C#4",
          "ticks": 113760,
          "time": 87.77769,
          "velocity": 0.2440944881889764
        },
        {
          "duration": 0.18518500000000415,
          "durationTicks": 240,
          "midi": 65,
          "name": "F4",
          "ticks": 113760,
          "time": 87.77769,
          "velocity": 0.3464566929133858
        },
        {
          "duration": 0.18518499999998994,
          "durationTicks": 240,
          "midi": 66,
          "name": "F#4",
          "ticks": 114000,
          "time": 87.96287500000001,
          "velocity": 0.4015748031496063
        },
        {
          "duration": 0.1543208333333297,
          "durationTicks": 200,
          "midi": 70,
          "name": "A#4",
          "ticks": 114000,
          "time": 87.96287500000001,
          "velocity": 0.4881889763779528
        },
        {
          "duration": 0.18518500000000415,
          "durationTicks": 240,
          "midi": 70,
          "name": "A#4",
          "ticks": 114240,
          "time": 88.14806,
          "velocity": 0.4566929133858268
        },
        {
          "duration": 0.18518500000000415,
          "durationTicks": 240,
          "midi": 34,
          "name": "A#1",
          "ticks": 114480,
          "time": 88.333245,
          "velocity": 0.3858267716535433
        },
        {
          "duration": 0.18518500000000415,
          "durationTicks": 240,
          "midi": 32,
          "name": "G#1",
          "ticks": 114720,
          "time": 88.51843000000001,
          "velocity": 0.30708661417322836
        },
        {
          "duration": 0.18518500000000415,
          "durationTicks": 240,
          "midi": 56,
          "name": "G#3",
          "ticks": 114720,
          "time": 88.51843000000001,
          "velocity": 0.25984251968503935
        },
        {
          "duration": 0.18518500000000415,
          "durationTicks": 240,
          "midi": 65,
          "name": "F4",
          "ticks": 114720,
          "time": 88.51843000000001,
          "velocity": 0.3700787401574803
        },
        {
          "duration": 0.18518500000000415,
          "durationTicks": 240,
          "midi": 68,
          "name": "G#4",
          "ticks": 114720,
          "time": 88.51843000000001,
          "velocity": 0.2440944881889764
        },
        {
          "duration": 0.18518500000000415,
          "durationTicks": 240,
          "midi": 71,
          "name": "B4",
          "ticks": 114720,
          "time": 88.51843000000001,
          "velocity": 0.4094488188976378
        },
        {
          "duration": 0.2160491666666644,
          "durationTicks": 280,
          "midi": 34,
          "name": "A#1",
          "ticks": 114960,
          "time": 88.70361500000001,
          "velocity": 0.30708661417322836
        },
        {
          "duration": 0.18518500000000415,
          "durationTicks": 240,
          "midi": 35,
          "name": "B1",
          "ticks": 115200,
          "time": 88.8888,
          "velocity": 0.4251968503937008
        },
        {
          "duration": 0.18518500000000415,
          "durationTicks": 240,
          "midi": 57,
          "name": "A3",
          "ticks": 115200,
          "time": 88.8888,
          "velocity": 0.2204724409448819
        },
        {
          "duration": 0.18518500000000415,
          "durationTicks": 240,
          "midi": 62,
          "name": "D4",
          "ticks": 115200,
          "time": 88.8888,
          "velocity": 0.2047244094488189
        },
        {
          "duration": 0.18518500000000415,
          "durationTicks": 240,
          "midi": 66,
          "name": "F#4",
          "ticks": 115200,
          "time": 88.8888,
          "velocity": 0.30708661417322836
        },
        {
          "duration": 0.18518500000000415,
          "durationTicks": 240,
          "midi": 69,
          "name": "A4",
          "ticks": 115200,
          "time": 88.8888,
          "velocity": 0.2204724409448819
        },
        {
          "duration": 0.18518500000000415,
          "durationTicks": 240,
          "midi": 71,
          "name": "B4",
          "ticks": 115200,
          "time": 88.8888,
          "velocity": 0.31496062992125984
        },
        {
          "duration": 0.12345666666666943,
          "durationTicks": 160,
          "midi": 73,
          "name": "C#5",
          "ticks": 115560,
          "time": 89.1665775,
          "velocity": 0.48031496062992124
        },
        {
          "duration": 0.1543208333333297,
          "durationTicks": 200,
          "midi": 54,
          "name": "F#3",
          "ticks": 115680,
          "time": 89.25917000000001,
          "velocity": 0.29133858267716534
        },
        {
          "duration": 0.18518500000000415,
          "durationTicks": 240,
          "midi": 57,
          "name": "A3",
          "ticks": 115920,
          "time": 89.444355,
          "velocity": 0.4645669291338583
        },
        {
          "duration": 0.18518500000000415,
          "durationTicks": 240,
          "midi": 73,
          "name": "C#5",
          "ticks": 116160,
          "time": 89.62954,
          "velocity": 0.8582677165354331
        },
        {
          "duration": 0.18518500000000415,
          "durationTicks": 240,
          "midi": 35,
          "name": "B1",
          "ticks": 116400,
          "time": 89.81472500000001,
          "velocity": 0.33858267716535434
        },
        {
          "duration": 0.18518500000000415,
          "durationTicks": 240,
          "midi": 54,
          "name": "F#3",
          "ticks": 116400,
          "time": 89.81472500000001,
          "velocity": 0.2992125984251969
        },
        {
          "duration": 0.18518500000000415,
          "durationTicks": 240,
          "midi": 62,
          "name": "D4",
          "ticks": 116400,
          "time": 89.81472500000001,
          "velocity": 0.2204724409448819
        },
        {
          "duration": 0.1543208333333297,
          "durationTicks": 200,
          "midi": 42,
          "name": "F#2",
          "ticks": 116640,
          "time": 89.99991000000001,
          "velocity": 0.4015748031496063
        },
        {
          "duration": 0.18518500000000415,
          "durationTicks": 240,
          "midi": 41,
          "name": "F2",
          "ticks": 116880,
          "time": 90.185095,
          "velocity": 0.2992125984251969
        },
        {
          "duration": 0.09259249999999497,
          "durationTicks": 120,
          "midi": 64,
          "name": "E4",
          "ticks": 117000,
          "time": 90.27768750000001,
          "velocity": 0.2047244094488189
        },
        {
          "duration": 0.1543208333333297,
          "durationTicks": 200,
          "midi": 40,
          "name": "E2",
          "ticks": 117120,
          "time": 90.37028000000001,
          "velocity": 0.3464566929133858
        },
        {
          "duration": 0.2160491666666644,
          "durationTicks": 280,
          "midi": 52,
          "name": "E3",
          "ticks": 117120,
          "time": 90.37028000000001,
          "velocity": 0.3464566929133858
        },
        {
          "duration": 0.1543208333333297,
          "durationTicks": 200,
          "midi": 62,
          "name": "D4",
          "ticks": 117120,
          "time": 90.37028000000001,
          "velocity": 0.2125984251968504
        },
        {
          "duration": 0.1543208333333297,
          "durationTicks": 200,
          "midi": 66,
          "name": "F#4",
          "ticks": 117120,
          "time": 90.37028000000001,
          "velocity": 0.5275590551181102
        },
        {
          "duration": 0.1543208333333297,
          "durationTicks": 200,
          "midi": 73,
          "name": "C#5",
          "ticks": 117120,
          "time": 90.37028000000001,
          "velocity": 0.4330708661417323
        },
        {
          "duration": 0.18518499999998994,
          "durationTicks": 240,
          "midi": 40,
          "name": "E2",
          "ticks": 117360,
          "time": 90.55546500000001,
          "velocity": 0.30708661417322836
        },
        {
          "duration": 0.18518499999998994,
          "durationTicks": 240,
          "midi": 62,
          "name": "D4",
          "ticks": 117360,
          "time": 90.55546500000001,
          "velocity": 0.25196850393700787
        },
        {
          "duration": 0.18518500000000415,
          "durationTicks": 240,
          "midi": 57,
          "name": "A3",
          "ticks": 117600,
          "time": 90.74065,
          "velocity": 0.28346456692913385
        },
        {
          "duration": 0.18518500000000415,
          "durationTicks": 240,
          "midi": 62,
          "name": "D4",
          "ticks": 117600,
          "time": 90.74065,
          "velocity": 0.2125984251968504
        },
        {
          "duration": 0.1543208333333297,
          "durationTicks": 200,
          "midi": 35,
          "name": "B1",
          "ticks": 117840,
          "time": 90.925835,
          "velocity": 0.30708661417322836
        },
        {
          "duration": 0.18518500000000415,
          "durationTicks": 240,
          "midi": 57,
          "name": "A3",
          "ticks": 118080,
          "time": 91.11102000000001,
          "velocity": 0.29133858267716534
        },
        {
          "duration": 0.18518500000000415,
          "durationTicks": 240,
          "midi": 62,
          "name": "D4",
          "ticks": 118080,
          "time": 91.11102000000001,
          "velocity": 0.2283464566929134
        },
        {
          "duration": 0.18518500000000415,
          "durationTicks": 240,
          "midi": 64,
          "name": "E4",
          "ticks": 118080,
          "time": 91.11102000000001,
          "velocity": 0.2047244094488189
        },
        {
          "duration": 0.18518500000000415,
          "durationTicks": 240,
          "midi": 66,
          "name": "F#4",
          "ticks": 118080,
          "time": 91.11102000000001,
          "velocity": 0.33070866141732286
        },
        {
          "duration": 0.18518500000000415,
          "durationTicks": 240,
          "midi": 76,
          "name": "E5",
          "ticks": 118080,
          "time": 91.11102000000001,
          "velocity": 0.2047244094488189
        },
        {
          "duration": 0.18518499999998994,
          "durationTicks": 240,
          "midi": 40,
          "name": "E2",
          "ticks": 118320,
          "time": 91.29620500000001,
          "velocity": 0.28346456692913385
        },
        {
          "duration": 0.18518500000000415,
          "durationTicks": 240,
          "midi": 35,
          "name": "B1",
          "ticks": 118560,
          "time": 91.48139,
          "velocity": 0.28346456692913385
        },
        {
          "duration": 0.21604916666667862,
          "durationTicks": 280,
          "midi": 57,
          "name": "A3",
          "ticks": 118560,
          "time": 91.48139,
          "velocity": 0.2992125984251969
        },
        {
          "duration": 0.2160491666666644,
          "durationTicks": 280,
          "midi": 34,
          "name": "A#1",
          "ticks": 118800,
          "time": 91.66657500000001,
          "velocity": 0.2755905511811024
        },
        {
          "duration": 0.3703699999999941,
          "durationTicks": 480,
          "midi": 33,
          "name": "A1",
          "ticks": 119040,
          "time": 91.85176000000001,
          "velocity": 0.4409448818897638
        },
        {
          "duration": 0.3703699999999941,
          "durationTicks": 480,
          "midi": 45,
          "name": "A2",
          "ticks": 119040,
          "time": 91.85176000000001,
          "velocity": 0.25196850393700787
        },
        {
          "duration": 0.40123416666666856,
          "durationTicks": 520,
          "midi": 52,
          "name": "E3",
          "ticks": 119040,
          "time": 91.85176000000001,
          "velocity": 0.3779527559055118
        },
        {
          "duration": 0.3703699999999941,
          "durationTicks": 480,
          "midi": 56,
          "name": "G#3",
          "ticks": 119040,
          "time": 91.85176000000001,
          "velocity": 0.2047244094488189
        },
        {
          "duration": 0.3703699999999941,
          "durationTicks": 480,
          "midi": 59,
          "name": "B3",
          "ticks": 119040,
          "time": 91.85176000000001,
          "velocity": 0.36220472440944884
        },
        {
          "duration": 0.40123416666666856,
          "durationTicks": 520,
          "midi": 64,
          "name": "E4",
          "ticks": 119040,
          "time": 91.85176000000001,
          "velocity": 0.31496062992125984
        },
        {
          "duration": 0.40123416666666856,
          "durationTicks": 520,
          "midi": 68,
          "name": "G#4",
          "ticks": 119040,
          "time": 91.85176000000001,
          "velocity": 0.2204724409448819
        },
        {
          "duration": 0.33950583333331963,
          "durationTicks": 440,
          "midi": 71,
          "name": "B4",
          "ticks": 119040,
          "time": 91.85176000000001,
          "velocity": 0.36220472440944884
        },
        {
          "duration": 0.1543208333333297,
          "durationTicks": 200,
          "midi": 52,
          "name": "E3",
          "ticks": 119520,
          "time": 92.22213,
          "velocity": 0.31496062992125984
        },
        {
          "duration": 0.18518499999998994,
          "durationTicks": 240,
          "midi": 52,
          "name": "E3",
          "ticks": 119760,
          "time": 92.40731500000001,
          "velocity": 0.4645669291338583
        },
        {
          "duration": 0.18518499999998994,
          "durationTicks": 240,
          "midi": 56,
          "name": "G#3",
          "ticks": 119760,
          "time": 92.40731500000001,
          "velocity": 0.33858267716535434
        },
        {
          "duration": 0.18518499999998994,
          "durationTicks": 240,
          "midi": 64,
          "name": "E4",
          "ticks": 119760,
          "time": 92.40731500000001,
          "velocity": 0.4645669291338583
        },
        {
          "duration": 0.1543208333333297,
          "durationTicks": 200,
          "midi": 73,
          "name": "C#5",
          "ticks": 119760,
          "time": 92.40731500000001,
          "velocity": 0.5748031496062992
        },
        {
          "duration": 0.21604916666667862,
          "durationTicks": 280,
          "midi": 54,
          "name": "F#3",
          "ticks": 120000,
          "time": 92.5925,
          "velocity": 0.2677165354330709
        },
        {
          "duration": 0.1543208333333439,
          "durationTicks": 200,
          "midi": 74,
          "name": "D5",
          "ticks": 120000,
          "time": 92.5925,
          "velocity": 0.6929133858267716
        },
        {
          "duration": 0.18518500000000415,
          "durationTicks": 240,
          "midi": 33,
          "name": "A1",
          "ticks": 120240,
          "time": 92.777685,
          "velocity": 0.3228346456692913
        },
        {
          "duration": 0.18518500000000415,
          "durationTicks": 240,
          "midi": 40,
          "name": "E2",
          "ticks": 120480,
          "time": 92.96287000000001,
          "velocity": 0.3858267716535433
        },
        {
          "duration": 0.18518499999998994,
          "durationTicks": 240,
          "midi": 39,
          "name": "D#2",
          "ticks": 120720,
          "time": 93.14805500000001,
          "velocity": 0.3464566929133858
        },
        {
          "duration": 0.1543208333333297,
          "durationTicks": 200,
          "midi": 38,
          "name": "D2",
          "ticks": 120960,
          "time": 93.33324,
          "velocity": 0.3464566929133858
        },
        {
          "duration": 0.1543208333333297,
          "durationTicks": 200,
          "midi": 52,
          "name": "E3",
          "ticks": 120960,
          "time": 93.33324,
          "velocity": 0.2755905511811024
        },
        {
          "duration": 0.1543208333333297,
          "durationTicks": 200,
          "midi": 54,
          "name": "F#3",
          "ticks": 120960,
          "time": 93.33324,
          "velocity": 0.2283464566929134
        },
        {
          "duration": 0.21604916666667862,
          "durationTicks": 280,
          "midi": 57,
          "name": "A3",
          "ticks": 120960,
          "time": 93.33324,
          "velocity": 0.2677165354330709
        },
        {
          "duration": 0.21604916666667862,
          "durationTicks": 280,
          "midi": 61,
          "name": "C#4",
          "ticks": 120960,
          "time": 93.33324,
          "velocity": 0.4645669291338583
        },
        {
          "duration": 0.1543208333333297,
          "durationTicks": 200,
          "midi": 64,
          "name": "E4",
          "ticks": 120960,
          "time": 93.33324,
          "velocity": 0.25196850393700787
        },
        {
          "duration": 0.1543208333333297,
          "durationTicks": 200,
          "midi": 73,
          "name": "C#5",
          "ticks": 120960,
          "time": 93.33324,
          "velocity": 0.4645669291338583
        },
        {
          "duration": 0.1543208333333297,
          "durationTicks": 200,
          "midi": 38,
          "name": "D2",
          "ticks": 121200,
          "time": 93.51842500000001,
          "velocity": 0.36220472440944884
        },
        {
          "duration": 0.18518499999998994,
          "durationTicks": 240,
          "midi": 57,
          "name": "A3",
          "ticks": 121440,
          "time": 93.70361000000001,
          "velocity": 0.3543307086614173
        },
        {
          "duration": 0.18518499999998994,
          "durationTicks": 240,
          "midi": 61,
          "name": "C#4",
          "ticks": 121440,
          "time": 93.70361000000001,
          "velocity": 0.4409448818897638
        },
        {
          "duration": 0.18518499999998994,
          "durationTicks": 240,
          "midi": 69,
          "name": "A4",
          "ticks": 121440,
          "time": 93.70361000000001,
          "velocity": 0.2992125984251969
        },
        {
          "duration": 0.18518499999998994,
          "durationTicks": 240,
          "midi": 73,
          "name": "C#5",
          "ticks": 121440,
          "time": 93.70361000000001,
          "velocity": 0.4409448818897638
        },
        {
          "duration": 0.1543208333333297,
          "durationTicks": 200,
          "midi": 33,
          "name": "A1",
          "ticks": 121680,
          "time": 93.888795,
          "velocity": 0.30708661417322836
        },
        {
          "duration": 0.1543208333333297,
          "durationTicks": 200,
          "midi": 69,
          "name": "A4",
          "ticks": 121680,
          "time": 93.888795,
          "velocity": 0.4015748031496063
        },
        {
          "duration": 0.3703700000000083,
          "durationTicks": 480,
          "midi": 38,
          "name": "D2",
          "ticks": 121920,
          "time": 94.07398,
          "velocity": 0.3858267716535433
        },
        {
          "duration": 0.3703700000000083,
          "durationTicks": 480,
          "midi": 54,
          "name": "F#3",
          "ticks": 121920,
          "time": 94.07398,
          "velocity": 0.2047244094488189
        },
        {
          "duration": 0.3703700000000083,
          "durationTicks": 480,
          "midi": 61,
          "name": "C#4",
          "ticks": 121920,
          "time": 94.07398,
          "velocity": 0.3228346456692913
        },
        {
          "duration": 0.3703700000000083,
          "durationTicks": 480,
          "midi": 64,
          "name": "E4",
          "ticks": 121920,
          "time": 94.07398,
          "velocity": 0.2047244094488189
        },
        {
          "duration": 0.3703700000000083,
          "durationTicks": 480,
          "midi": 69,
          "name": "A4",
          "ticks": 121920,
          "time": 94.07398,
          "velocity": 0.4251968503937008
        },
        {
          "duration": 0.3703699999999941,
          "durationTicks": 480,
          "midi": 30,
          "name": "F#1",
          "ticks": 122400,
          "time": 94.44435000000001,
          "velocity": 0.36220472440944884
        },
        {
          "duration": 0.3703699999999941,
          "durationTicks": 480,
          "midi": 50,
          "name": "D3",
          "ticks": 122400,
          "time": 94.44435000000001,
          "velocity": 0.25196850393700787
        },
        {
          "duration": 0.3703699999999941,
          "durationTicks": 480,
          "midi": 71,
          "name": "B4",
          "ticks": 122400,
          "time": 94.44435000000001,
          "velocity": 0.4251968503937008
        },
        {
          "duration": 0.3703699999999941,
          "durationTicks": 480,
          "midi": 32,
          "name": "G#1",
          "ticks": 122880,
          "time": 94.81472000000001,
          "velocity": 0.4251968503937008
        },
        {
          "duration": 0.3703699999999941,
          "durationTicks": 480,
          "midi": 54,
          "name": "F#3",
          "ticks": 122880,
          "time": 94.81472000000001,
          "velocity": 0.2283464566929134
        },
        {
          "duration": 0.3703699999999941,
          "durationTicks": 480,
          "midi": 59,
          "name": "B3",
          "ticks": 122880,
          "time": 94.81472000000001,
          "velocity": 0.2992125984251969
        },
        {
          "duration": 0.3703699999999941,
          "durationTicks": 480,
          "midi": 61,
          "name": "C#4",
          "ticks": 122880,
          "time": 94.81472000000001,
          "velocity": 0.2283464566929134
        },
        {
          "duration": 0.3703699999999941,
          "durationTicks": 480,
          "midi": 66,
          "name": "F#4",
          "ticks": 122880,
          "time": 94.81472000000001,
          "velocity": 0.2283464566929134
        },
        {
          "duration": 0.1543208333333439,
          "durationTicks": 200,
          "midi": 54,
          "name": "F#3",
          "ticks": 123360,
          "time": 95.18509,
          "velocity": 0.5826771653543307
        },
        {
          "duration": 0.18518500000000415,
          "durationTicks": 240,
          "midi": 39,
          "name": "D#2",
          "ticks": 123600,
          "time": 95.370275,
          "velocity": 0.36220472440944884
        },
        {
          "duration": 0.18518500000000415,
          "durationTicks": 240,
          "midi": 54,
          "name": "F#3",
          "ticks": 123840,
          "time": 95.55546000000001,
          "velocity": 0.4645669291338583
        },
        {
          "duration": 0.18518499999998994,
          "durationTicks": 240,
          "midi": 39,
          "name": "D#2",
          "ticks": 124080,
          "time": 95.74064500000001,
          "velocity": 0.3464566929133858
        },
        {
          "duration": 0.40123416666666856,
          "durationTicks": 520,
          "midi": 32,
          "name": "G#1",
          "ticks": 124320,
          "time": 95.92583,
          "velocity": 0.33858267716535434
        },
        {
          "duration": 0.3703700000000083,
          "durationTicks": 480,
          "midi": 54,
          "name": "F#3",
          "ticks": 124320,
          "time": 95.92583,
          "velocity": 0.4409448818897638
        },
        {
          "duration": 0.40123416666666856,
          "durationTicks": 520,
          "midi": 71,
          "name": "B4",
          "ticks": 124320,
          "time": 95.92583,
          "velocity": 0.30708661417322836
        },
        {
          "duration": 0.18518499999998994,
          "durationTicks": 240,
          "midi": 34,
          "name": "A#1",
          "ticks": 124800,
          "time": 96.29620000000001,
          "velocity": 0.48031496062992124
        },
        {
          "duration": 0.18518499999998994,
          "durationTicks": 240,
          "midi": 53,
          "name": "F3",
          "ticks": 124800,
          "time": 96.29620000000001,
          "velocity": 0.28346456692913385
        },
        {
          "duration": 0.18518499999998994,
          "durationTicks": 240,
          "midi": 56,
          "name": "G#3",
          "ticks": 124800,
          "time": 96.29620000000001,
          "velocity": 0.33858267716535434
        },
        {
          "duration": 0.18518499999998994,
          "durationTicks": 240,
          "midi": 61,
          "name": "C#4",
          "ticks": 124800,
          "time": 96.29620000000001,
          "velocity": 0.6141732283464567
        },
        {
          "duration": 0.18518499999998994,
          "durationTicks": 240,
          "midi": 65,
          "name": "F4",
          "ticks": 124800,
          "time": 96.29620000000001,
          "velocity": 0.28346456692913385
        },
        {
          "duration": 0.18518499999998994,
          "durationTicks": 240,
          "midi": 68,
          "name": "G#4",
          "ticks": 124800,
          "time": 96.29620000000001,
          "velocity": 0.33858267716535434
        },
        {
          "duration": 0.18518499999998994,
          "durationTicks": 240,
          "midi": 73,
          "name": "C#5",
          "ticks": 124800,
          "time": 96.29620000000001,
          "velocity": 0.6141732283464567
        },
        {
          "duration": 0.2160491666666644,
          "durationTicks": 280,
          "midi": 34,
          "name": "A#1",
          "ticks": 125040,
          "time": 96.481385,
          "velocity": 0.4251968503937008
        },
        {
          "duration": 0.18518500000000415,
          "durationTicks": 240,
          "midi": 56,
          "name": "G#3",
          "ticks": 125280,
          "time": 96.66657000000001,
          "velocity": 0.30708661417322836
        },
        {
          "duration": 0.18518500000000415,
          "durationTicks": 240,
          "midi": 77,
          "name": "F5",
          "ticks": 125280,
          "time": 96.66657000000001,
          "velocity": 0.2755905511811024
        },
        {
          "duration": 0.3703699999999941,
          "durationTicks": 480,
          "midi": 41,
          "name": "F2",
          "ticks": 125520,
          "time": 96.85175500000001,
          "velocity": 0.36220472440944884
        },
        {
          "duration": 0.3703699999999941,
          "durationTicks": 480,
          "midi": 46,
          "name": "A#2",
          "ticks": 125520,
          "time": 96.85175500000001,
          "velocity": 0.33858267716535434
        },
        {
          "duration": 0.3703699999999941,
          "durationTicks": 480,
          "midi": 56,
          "name": "G#3",
          "ticks": 125520,
          "time": 96.85175500000001,
          "velocity": 0.4094488188976378
        },
        {
          "duration": 0.24691333333333887,
          "durationTicks": 320,
          "midi": 66,
          "name": "F#4",
          "ticks": 125880,
          "time": 97.12953250000001,
          "velocity": 0.2283464566929134
        },
        {
          "duration": 0.18518500000000415,
          "durationTicks": 240,
          "midi": 34,
          "name": "A#1",
          "ticks": 126000,
          "time": 97.222125,
          "velocity": 0.31496062992125984
        },
        {
          "duration": 0.18518500000000415,
          "durationTicks": 240,
          "midi": 46,
          "name": "A#2",
          "ticks": 126000,
          "time": 97.222125,
          "velocity": 0.2992125984251969
        },
        {
          "duration": 0.18518500000000415,
          "durationTicks": 240,
          "midi": 75,
          "name": "D#5",
          "ticks": 126000,
          "time": 97.222125,
          "velocity": 0.2440944881889764
        },
        {
          "duration": 0.18518500000000415,
          "durationTicks": 240,
          "midi": 37,
          "name": "C#2",
          "ticks": 126240,
          "time": 97.40731000000001,
          "velocity": 0.4015748031496063
        },
        {
          "duration": 0.18518500000000415,
          "durationTicks": 240,
          "midi": 49,
          "name": "C#3",
          "ticks": 126240,
          "time": 97.40731000000001,
          "velocity": 0.3543307086614173
        },
        {
          "duration": 0.18518499999998994,
          "durationTicks": 240,
          "midi": 36,
          "name": "C2",
          "ticks": 126480,
          "time": 97.59249500000001,
          "velocity": 0.44881889763779526
        },
        {
          "duration": 0.18518499999998994,
          "durationTicks": 240,
          "midi": 67,
          "name": "G4",
          "ticks": 126480,
          "time": 97.59249500000001,
          "velocity": 0.2440944881889764
        },
        {
          "duration": 0.5246908333333522,
          "durationTicks": 680,
          "midi": 35,
          "name": "B1",
          "ticks": 126720,
          "time": 97.77768,
          "velocity": 0.41732283464566927
        },
        {
          "duration": 0.5246908333333522,
          "durationTicks": 680,
          "midi": 47,
          "name": "B2",
          "ticks": 126720,
          "time": 97.77768,
          "velocity": 0.41732283464566927
        },
        {
          "duration": 0.5246908333333522,
          "durationTicks": 680,
          "midi": 54,
          "name": "F#3",
          "ticks": 126720,
          "time": 97.77768,
          "velocity": 0.2677165354330709
        },
        {
          "duration": 0.5246908333333522,
          "durationTicks": 680,
          "midi": 57,
          "name": "A3",
          "ticks": 126720,
          "time": 97.77768,
          "velocity": 0.2440944881889764
        },
        {
          "duration": 0.5246908333333522,
          "durationTicks": 680,
          "midi": 62,
          "name": "D4",
          "ticks": 126720,
          "time": 97.77768,
          "velocity": 0.5196850393700787
        },
        {
          "duration": 0.5246908333333522,
          "durationTicks": 680,
          "midi": 66,
          "name": "F#4",
          "ticks": 126720,
          "time": 97.77768,
          "velocity": 0.2677165354330709
        },
        {
          "duration": 0.3703700000000083,
          "durationTicks": 480,
          "midi": 71,
          "name": "B4",
          "ticks": 127440,
          "time": 98.333235,
          "velocity": 0.49606299212598426
        },
        {
          "duration": 0.33950583333333384,
          "durationTicks": 440,
          "midi": 73,
          "name": "C#5",
          "ticks": 127920,
          "time": 98.70360500000001,
          "velocity": 0.7716535433070866
        },
        {
          "duration": 0.18518500000000415,
          "durationTicks": 240,
          "midi": 73,
          "name": "C#5",
          "ticks": 128400,
          "time": 99.073975,
          "velocity": 0.7795275590551181
        },
        {
          "duration": 0.7407400000000024,
          "durationTicks": 960,
          "midi": 40,
          "name": "E2",
          "ticks": 128640,
          "time": 99.25916000000001,
          "velocity": 0.4251968503937008
        },
        {
          "duration": 0.7407400000000024,
          "durationTicks": 960,
          "midi": 52,
          "name": "E3",
          "ticks": 128640,
          "time": 99.25916000000001,
          "velocity": 0.3937007874015748
        },
        {
          "duration": 0.7407400000000024,
          "durationTicks": 960,
          "midi": 57,
          "name": "A3",
          "ticks": 128640,
          "time": 99.25916000000001,
          "velocity": 0.2677165354330709
        },
        {
          "duration": 0.7407400000000024,
          "durationTicks": 960,
          "midi": 62,
          "name": "D4",
          "ticks": 128640,
          "time": 99.25916000000001,
          "velocity": 0.5354330708661418
        },
        {
          "duration": 0.7407400000000024,
          "durationTicks": 960,
          "midi": 66,
          "name": "F#4",
          "ticks": 128640,
          "time": 99.25916000000001,
          "velocity": 0.30708661417322836
        },
        {
          "duration": 0.7407400000000024,
          "durationTicks": 960,
          "midi": 69,
          "name": "A4",
          "ticks": 128640,
          "time": 99.25916000000001,
          "velocity": 0.2677165354330709
        },
        {
          "duration": 0.7407400000000024,
          "durationTicks": 960,
          "midi": 74,
          "name": "D5",
          "ticks": 128640,
          "time": 99.25916000000001,
          "velocity": 0.5354330708661418
        },
        {
          "duration": 0.1543208333333439,
          "durationTicks": 200,
          "midi": 34,
          "name": "A#1",
          "ticks": 129600,
          "time": 99.99990000000001,
          "velocity": 0.4566929133858268
        },
        {
          "duration": 0.1543208333333439,
          "durationTicks": 200,
          "midi": 46,
          "name": "A#2",
          "ticks": 129600,
          "time": 99.99990000000001,
          "velocity": 0.4566929133858268
        },
        {
          "duration": 0.1543208333333439,
          "durationTicks": 200,
          "midi": 48,
          "name": "C3",
          "ticks": 129600,
          "time": 99.99990000000001,
          "velocity": 0.3228346456692913
        },
        {
          "duration": 0.1543208333333439,
          "durationTicks": 200,
          "midi": 50,
          "name": "D3",
          "ticks": 129600,
          "time": 99.99990000000001,
          "velocity": 0.2677165354330709
        },
        {
          "duration": 0.1543208333333439,
          "durationTicks": 200,
          "midi": 52,
          "name": "E3",
          "ticks": 129600,
          "time": 99.99990000000001,
          "velocity": 0.2283464566929134
        },
        {
          "duration": 0.1543208333333439,
          "durationTicks": 200,
          "midi": 56,
          "name": "G#3",
          "ticks": 129600,
          "time": 99.99990000000001,
          "velocity": 0.1968503937007874
        },
        {
          "duration": 0.2160491666666644,
          "durationTicks": 280,
          "midi": 65,
          "name": "F4",
          "ticks": 129600,
          "time": 99.99990000000001,
          "velocity": 0.3464566929133858
        },
        {
          "duration": 0.2160491666666644,
          "durationTicks": 280,
          "midi": 68,
          "name": "G#4",
          "ticks": 129600,
          "time": 99.99990000000001,
          "velocity": 0.1968503937007874
        },
        {
          "duration": 0.18518499999998994,
          "durationTicks": 240,
          "midi": 55,
          "name": "G3",
          "ticks": 129840,
          "time": 100.18508500000002,
          "velocity": 0.2283464566929134
        },
        {
          "duration": 0.12345666666665522,
          "durationTicks": 160,
          "midi": 56,
          "name": "G#3",
          "ticks": 129960,
          "time": 100.27767750000001,
          "velocity": 0.28346456692913385
        },
        {
          "duration": 0.2160491666666644,
          "durationTicks": 280,
          "midi": 60,
          "name": "C4",
          "ticks": 130080,
          "time": 100.37027,
          "velocity": 0.2204724409448819
        },
        {
          "duration": 0.18518500000000415,
          "durationTicks": 240,
          "midi": 62,
          "name": "D4",
          "ticks": 130080,
          "time": 100.37027,
          "velocity": 0.2283464566929134
        },
        {
          "duration": 0.12345666666665522,
          "durationTicks": 160,
          "midi": 64,
          "name": "E4",
          "ticks": 130200,
          "time": 100.46286250000001,
          "velocity": 0.2677165354330709
        },
        {
          "duration": 0.24691333333333887,
          "durationTicks": 320,
          "midi": 65,
          "name": "F4",
          "ticks": 130200,
          "time": 100.46286250000001,
          "velocity": 0.2204724409448819
        },
        {
          "duration": 0.24691333333333887,
          "durationTicks": 320,
          "midi": 67,
          "name": "G4",
          "ticks": 130200,
          "time": 100.46286250000001,
          "velocity": 0.1968503937007874
        },
        {
          "duration": 0.18518500000000415,
          "durationTicks": 240,
          "midi": 68,
          "name": "G#4",
          "ticks": 130320,
          "time": 100.55545500000001,
          "velocity": 0.2992125984251969
        },
        {
          "duration": 0.1543208333333439,
          "durationTicks": 200,
          "midi": 70,
          "name": "A#4",
          "ticks": 130320,
          "time": 100.55545500000001,
          "velocity": 0.2677165354330709
        },
        {
          "duration": 0.09259250000000918,
          "durationTicks": 120,
          "midi": 72,
          "name": "C5",
          "ticks": 130440,
          "time": 100.6480475,
          "velocity": 0.28346456692913385
        },
        {
          "duration": 0.432098333333343,
          "durationTicks": 560,
          "midi": 74,
          "name": "D5",
          "ticks": 130440,
          "time": 100.6480475,
          "velocity": 0.25196850393700787
        },
        {
          "duration": 0.33950583333333384,
          "durationTicks": 440,
          "midi": 33,
          "name": "A1",
          "ticks": 130560,
          "time": 100.74064000000001,
          "velocity": 0.41732283464566927
        },
        {
          "duration": 0.33950583333333384,
          "durationTicks": 440,
          "midi": 49,
          "name": "C#3",
          "ticks": 130560,
          "time": 100.74064000000001,
          "velocity": 0.25196850393700787
        },
        {
          "duration": 0.33950583333333384,
          "durationTicks": 440,
          "midi": 52,
          "name": "E3",
          "ticks": 130560,
          "time": 100.74064000000001,
          "velocity": 0.41732283464566927
        },
        {
          "duration": 0.33950583333333384,
          "durationTicks": 440,
          "midi": 56,
          "name": "G#3",
          "ticks": 130560,
          "time": 100.74064000000001,
          "velocity": 0.28346456692913385
        },
        {
          "duration": 0.33950583333333384,
          "durationTicks": 440,
          "midi": 61,
          "name": "C#4",
          "ticks": 130560,
          "time": 100.74064000000001,
          "velocity": 0.2204724409448819
        },
        {
          "duration": 0.33950583333333384,
          "durationTicks": 440,
          "midi": 64,
          "name": "E4",
          "ticks": 130560,
          "time": 100.74064000000001,
          "velocity": 0.3464566929133858
        },
        {
          "duration": 0.18518500000000415,
          "durationTicks": 240,
          "midi": 45,
          "name": "A2",
          "ticks": 131040,
          "time": 101.11101000000001,
          "velocity": 0.3700787401574803
        },
        {
          "duration": 0.18518500000000415,
          "durationTicks": 240,
          "midi": 49,
          "name": "C#3",
          "ticks": 131040,
          "time": 101.11101000000001,
          "velocity": 0.5905511811023622
        },
        {
          "duration": 0.18518500000000415,
          "durationTicks": 240,
          "midi": 56,
          "name": "G#3",
          "ticks": 131040,
          "time": 101.11101000000001,
          "velocity": 0.2992125984251969
        },
        {
          "duration": 0.2160491666666644,
          "durationTicks": 280,
          "midi": 61,
          "name": "C#4",
          "ticks": 131040,
          "time": 101.11101000000001,
          "velocity": 0.5275590551181102
        },
        {
          "duration": 0.18518500000000415,
          "durationTicks": 240,
          "midi": 64,
          "name": "E4",
          "ticks": 131040,
          "time": 101.11101000000001,
          "velocity": 0.28346456692913385
        },
        {
          "duration": 0.2160491666666502,
          "durationTicks": 280,
          "midi": 33,
          "name": "A1",
          "ticks": 131280,
          "time": 101.29619500000001,
          "velocity": 0.3858267716535433
        },
        {
          "duration": 0.1543208333333439,
          "durationTicks": 200,
          "midi": 52,
          "name": "E3",
          "ticks": 131280,
          "time": 101.29619500000001,
          "velocity": 0.33858267716535434
        },
        {
          "duration": 0.1543208333333439,
          "durationTicks": 200,
          "midi": 61,
          "name": "C#4",
          "ticks": 131280,
          "time": 101.29619500000001,
          "velocity": 0.6535433070866141
        },
        {
          "duration": 0.1543208333333439,
          "durationTicks": 200,
          "midi": 64,
          "name": "E4",
          "ticks": 131280,
          "time": 101.29619500000001,
          "velocity": 0.25984251968503935
        },
        {
          "duration": 0.18518499999998994,
          "durationTicks": 240,
          "midi": 33,
          "name": "A1",
          "ticks": 131520,
          "time": 101.48138000000002,
          "velocity": 0.3858267716535433
        },
        {
          "duration": 0.18518499999998994,
          "durationTicks": 240,
          "midi": 61,
          "name": "C#4",
          "ticks": 131520,
          "time": 101.48138000000002,
          "velocity": 0.2440944881889764
        },
        {
          "duration": 0.18518499999998994,
          "durationTicks": 240,
          "midi": 64,
          "name": "E4",
          "ticks": 131520,
          "time": 101.48138000000002,
          "velocity": 0.6456692913385826
        },
        {
          "duration": 0.1543208333333439,
          "durationTicks": 200,
          "midi": 54,
          "name": "F#3",
          "ticks": 131760,
          "time": 101.666565,
          "velocity": 0.4015748031496063
        },
        {
          "duration": 0.2160491666666644,
          "durationTicks": 280,
          "midi": 61,
          "name": "C#4",
          "ticks": 131760,
          "time": 101.666565,
          "velocity": 0.3700787401574803
        },
        {
          "duration": 0.1543208333333439,
          "durationTicks": 200,
          "midi": 66,
          "name": "F#4",
          "ticks": 131760,
          "time": 101.666565,
          "velocity": 0.7637795275590551
        },
        {
          "duration": 0.18518500000000415,
          "durationTicks": 240,
          "midi": 54,
          "name": "F#3",
          "ticks": 132000,
          "time": 101.85175000000001,
          "velocity": 0.3779527559055118
        },
        {
          "duration": 0.18518500000000415,
          "durationTicks": 240,
          "midi": 56,
          "name": "G#3",
          "ticks": 132000,
          "time": 101.85175000000001,
          "velocity": 0.29133858267716534
        },
        {
          "duration": 0.18518500000000415,
          "durationTicks": 240,
          "midi": 61,
          "name": "C#4",
          "ticks": 132000,
          "time": 101.85175000000001,
          "velocity": 0.33858267716535434
        },
        {
          "duration": 0.18518499999998994,
          "durationTicks": 240,
          "midi": 33,
          "name": "A1",
          "ticks": 132240,
          "time": 102.03693500000001,
          "velocity": 0.4015748031496063
        },
        {
          "duration": 0.18518499999998994,
          "durationTicks": 240,
          "midi": 54,
          "name": "F#3",
          "ticks": 132240,
          "time": 102.03693500000001,
          "velocity": 0.2677165354330709
        },
        {
          "duration": 0.18518499999998994,
          "durationTicks": 240,
          "midi": 56,
          "name": "G#3",
          "ticks": 132240,
          "time": 102.03693500000001,
          "velocity": 0.3464566929133858
        },
        {
          "duration": 0.18518499999998994,
          "durationTicks": 240,
          "midi": 68,
          "name": "G#4",
          "ticks": 132240,
          "time": 102.03693500000001,
          "velocity": 0.5590551181102362
        },
        {
          "duration": 0.3703700000000083,
          "durationTicks": 480,
          "midi": 32,
          "name": "G#1",
          "ticks": 132480,
          "time": 102.22212,
          "velocity": 0.4251968503937008
        },
        {
          "duration": 0.3703700000000083,
          "durationTicks": 480,
          "midi": 44,
          "name": "G#2",
          "ticks": 132480,
          "time": 102.22212,
          "velocity": 0.6535433070866141
        },
        {
          "duration": 0.3703700000000083,
          "durationTicks": 480,
          "midi": 54,
          "name": "F#3",
          "ticks": 132480,
          "time": 102.22212,
          "velocity": 0.25984251968503935
        },
        {
          "duration": 0.3703700000000083,
          "durationTicks": 480,
          "midi": 56,
          "name": "G#3",
          "ticks": 132480,
          "time": 102.22212,
          "velocity": 0.6535433070866141
        },
        {
          "duration": 0.3703700000000083,
          "durationTicks": 480,
          "midi": 60,
          "name": "C4",
          "ticks": 132480,
          "time": 102.22212,
          "velocity": 0.2047244094488189
        },
        {
          "duration": 0.3703700000000083,
          "durationTicks": 480,
          "midi": 65,
          "name": "F4",
          "ticks": 132480,
          "time": 102.22212,
          "velocity": 0.2440944881889764
        },
        {
          "duration": 0.3703700000000083,
          "durationTicks": 480,
          "midi": 68,
          "name": "G#4",
          "ticks": 132480,
          "time": 102.22212,
          "velocity": 0.5433070866141733
        },
        {
          "duration": 0.24691333333335308,
          "durationTicks": 320,
          "midi": 32,
          "name": "G#1",
          "ticks": 132840,
          "time": 102.4998975,
          "velocity": 0.33858267716535434
        },
        {
          "duration": 0.2160491666666502,
          "durationTicks": 280,
          "midi": 54,
          "name": "F#3",
          "ticks": 132960,
          "time": 102.59249000000001,
          "velocity": 0.2204724409448819
        },
        {
          "duration": 0.2160491666666502,
          "durationTicks": 280,
          "midi": 57,
          "name": "A3",
          "ticks": 132960,
          "time": 102.59249000000001,
          "velocity": 0.4645669291338583
        },
        {
          "duration": 0.2160491666666502,
          "durationTicks": 280,
          "midi": 60,
          "name": "C4",
          "ticks": 132960,
          "time": 102.59249000000001,
          "velocity": 0.2283464566929134
        },
        {
          "duration": 0.2160491666666502,
          "durationTicks": 280,
          "midi": 69,
          "name": "A4",
          "ticks": 132960,
          "time": 102.59249000000001,
          "velocity": 0.4645669291338583
        },
        {
          "duration": 0.18518500000000415,
          "durationTicks": 240,
          "midi": 32,
          "name": "G#1",
          "ticks": 133200,
          "time": 102.777675,
          "velocity": 0.3779527559055118
        },
        {
          "duration": 0.18518500000000415,
          "durationTicks": 240,
          "midi": 60,
          "name": "C4",
          "ticks": 133200,
          "time": 102.777675,
          "velocity": 0.2125984251968504
        },
        {
          "duration": 0.33950583333334805,
          "durationTicks": 440,
          "midi": 32,
          "name": "G#1",
          "ticks": 133440,
          "time": 102.96286,
          "velocity": 0.4251968503937008
        },
        {
          "duration": 0.33950583333334805,
          "durationTicks": 440,
          "midi": 54,
          "name": "F#3",
          "ticks": 133440,
          "time": 102.96286,
          "velocity": 0.2283464566929134
        },
        {
          "duration": 0.33950583333334805,
          "durationTicks": 440,
          "midi": 59,
          "name": "B3",
          "ticks": 133440,
          "time": 102.96286,
          "velocity": 0.25984251968503935
        },
        {
          "duration": 0.33950583333334805,
          "durationTicks": 440,
          "midi": 64,
          "name": "E4",
          "ticks": 133440,
          "time": 102.96286,
          "velocity": 0.2992125984251969
        },
        {
          "duration": 0.33950583333334805,
          "durationTicks": 440,
          "midi": 69,
          "name": "A4",
          "ticks": 133440,
          "time": 102.96286,
          "velocity": 0.3464566929133858
        },
        {
          "duration": 0.33950583333334805,
          "durationTicks": 440,
          "midi": 71,
          "name": "B4",
          "ticks": 133440,
          "time": 102.96286,
          "velocity": 0.25984251968503935
        },
        {
          "duration": 0.18518499999998994,
          "durationTicks": 240,
          "midi": 54,
          "name": "F#3",
          "ticks": 133920,
          "time": 103.33323000000001,
          "velocity": 0.2283464566929134
        },
        {
          "duration": 0.18518499999998994,
          "durationTicks": 240,
          "midi": 57,
          "name": "A3",
          "ticks": 133920,
          "time": 103.33323000000001,
          "velocity": 0.36220472440944884
        },
        {
          "duration": 0.18518499999998994,
          "durationTicks": 240,
          "midi": 60,
          "name": "C4",
          "ticks": 133920,
          "time": 103.33323000000001,
          "velocity": 0.1889763779527559
        },
        {
          "duration": 0.18518500000000415,
          "durationTicks": 240,
          "midi": 32,
          "name": "G#1",
          "ticks": 134160,
          "time": 103.518415,
          "velocity": 0.30708661417322836
        },
        {
          "duration": 0.18518500000000415,
          "durationTicks": 240,
          "midi": 37,
          "name": "C#2",
          "ticks": 134400,
          "time": 103.70360000000001,
          "velocity": 0.4409448818897638
        },
        {
          "duration": 0.18518500000000415,
          "durationTicks": 240,
          "midi": 56,
          "name": "G#3",
          "ticks": 134400,
          "time": 103.70360000000001,
          "velocity": 0.5118110236220472
        },
        {
          "duration": 0.18518500000000415,
          "durationTicks": 240,
          "midi": 59,
          "name": "B3",
          "ticks": 134400,
          "time": 103.70360000000001,
          "velocity": 0.2125984251968504
        },
        {
          "duration": 0.18518500000000415,
          "durationTicks": 240,
          "midi": 63,
          "name": "D#4",
          "ticks": 134400,
          "time": 103.70360000000001,
          "velocity": 0.3228346456692913
        },
        {
          "duration": 0.18518500000000415,
          "durationTicks": 240,
          "midi": 68,
          "name": "G#4",
          "ticks": 134400,
          "time": 103.70360000000001,
          "velocity": 0.4881889763779528
        },
        {
          "duration": 0.1543208333333297,
          "durationTicks": 200,
          "midi": 63,
          "name": "D#4",
          "ticks": 134640,
          "time": 103.88878500000001,
          "velocity": 0.2283464566929134
        },
        {
          "duration": 0.18518500000000415,
          "durationTicks": 240,
          "midi": 52,
          "name": "E3",
          "ticks": 134880,
          "time": 104.07397,
          "velocity": 0.2283464566929134
        },
        {
          "duration": 0.18518500000000415,
          "durationTicks": 240,
          "midi": 56,
          "name": "G#3",
          "ticks": 134880,
          "time": 104.07397,
          "velocity": 0.5039370078740157
        },
        {
          "duration": 0.18518500000000415,
          "durationTicks": 240,
          "midi": 63,
          "name": "D#4",
          "ticks": 134880,
          "time": 104.07397,
          "velocity": 0.28346456692913385
        },
        {
          "duration": 0.1543208333333439,
          "durationTicks": 200,
          "midi": 37,
          "name": "C#2",
          "ticks": 135120,
          "time": 104.259155,
          "velocity": 0.3700787401574803
        },
        {
          "duration": 0.1543208333333439,
          "durationTicks": 200,
          "midi": 59,
          "name": "B3",
          "ticks": 135120,
          "time": 104.259155,
          "velocity": 0.23622047244094488
        },
        {
          "duration": 0.18518500000000415,
          "durationTicks": 240,
          "midi": 37,
          "name": "C#2",
          "ticks": 135360,
          "time": 104.44434000000001,
          "velocity": 0.4015748031496063
        },
        {
          "duration": 0.18518499999998994,
          "durationTicks": 240,
          "midi": 63,
          "name": "D#4",
          "ticks": 135600,
          "time": 104.62952500000002,
          "velocity": 0.2204724409448819
        },
        {
          "duration": 0.09259249999999497,
          "durationTicks": 120,
          "midi": 66,
          "name": "F#4",
          "ticks": 135720,
          "time": 104.72211750000001,
          "velocity": 0.3543307086614173
        },
        {
          "duration": 0.2160491666666644,
          "durationTicks": 280,
          "midi": 37,
          "name": "C#2",
          "ticks": 135840,
          "time": 104.81471,
          "velocity": 0.33858267716535434
        },
        {
          "duration": 0.2160491666666644,
          "durationTicks": 280,
          "midi": 52,
          "name": "E3",
          "ticks": 135840,
          "time": 104.81471,
          "velocity": 0.2283464566929134
        },
        {
          "duration": 0.2160491666666644,
          "durationTicks": 280,
          "midi": 54,
          "name": "F#3",
          "ticks": 135840,
          "time": 104.81471,
          "velocity": 0.4330708661417323
        },
        {
          "duration": 0.2160491666666644,
          "durationTicks": 280,
          "midi": 56,
          "name": "G#3",
          "ticks": 135840,
          "time": 104.81471,
          "velocity": 0.2440944881889764
        },
        {
          "duration": 0.2160491666666644,
          "durationTicks": 280,
          "midi": 61,
          "name": "C#4",
          "ticks": 135840,
          "time": 104.81471,
          "velocity": 0.2204724409448819
        },
        {
          "duration": 0.18518500000000415,
          "durationTicks": 240,
          "midi": 36,
          "name": "C2",
          "ticks": 136080,
          "time": 104.99989500000001,
          "velocity": 0.36220472440944884
        },
        {
          "duration": 0.12345666666666943,
          "durationTicks": 160,
          "midi": 66,
          "name": "F#4",
          "ticks": 136200,
          "time": 105.0924875,
          "velocity": 0.47244094488188976
        },
        {
          "duration": 0.1543208333333297,
          "durationTicks": 200,
          "midi": 35,
          "name": "B1",
          "ticks": 136320,
          "time": 105.18508000000001,
          "velocity": 0.36220472440944884
        },
        {
          "duration": 0.18518499999998994,
          "durationTicks": 240,
          "midi": 52,
          "name": "E3",
          "ticks": 136320,
          "time": 105.18508000000001,
          "velocity": 0.3228346456692913
        },
        {
          "duration": 0.18518499999998994,
          "durationTicks": 240,
          "midi": 64,
          "name": "E4",
          "ticks": 136320,
          "time": 105.18508000000001,
          "velocity": 0.3228346456692913
        },
        {
          "duration": 0.3703700000000083,
          "durationTicks": 480,
          "midi": 64,
          "name": "E4",
          "ticks": 136560,
          "time": 105.370265,
          "velocity": 0.3700787401574803
        },
        {
          "duration": 0.18518500000000415,
          "durationTicks": 240,
          "midi": 35,
          "name": "B1",
          "ticks": 137040,
          "time": 105.74063500000001,
          "velocity": 0.36220472440944884
        },
        {
          "duration": 0.33950583333333384,
          "durationTicks": 440,
          "midi": 28,
          "name": "E1",
          "ticks": 137280,
          "time": 105.92582000000002,
          "velocity": 0.36220472440944884
        },
        {
          "duration": 0.33950583333333384,
          "durationTicks": 440,
          "midi": 50,
          "name": "D3",
          "ticks": 137280,
          "time": 105.92582000000002,
          "velocity": 0.2440944881889764
        },
        {
          "duration": 0.33950583333333384,
          "durationTicks": 440,
          "midi": 56,
          "name": "G#3",
          "ticks": 137280,
          "time": 105.92582000000002,
          "velocity": 0.2677165354330709
        },
        {
          "duration": 0.33950583333333384,
          "durationTicks": 440,
          "midi": 60,
          "name": "C4",
          "ticks": 137280,
          "time": 105.92582000000002,
          "velocity": 0.2283464566929134
        },
        {
          "duration": 0.18518500000000415,
          "durationTicks": 240,
          "midi": 60,
          "name": "C4",
          "ticks": 137760,
          "time": 106.29619000000001,
          "velocity": 0.2204724409448819
        },
        {
          "duration": 0.1543208333333297,
          "durationTicks": 200,
          "midi": 28,
          "name": "E1",
          "ticks": 138000,
          "time": 106.48137500000001,
          "velocity": 0.3700787401574803
        },
        {
          "duration": 0.3703700000000083,
          "durationTicks": 480,
          "midi": 33,
          "name": "A1",
          "ticks": 138240,
          "time": 106.66656,
          "velocity": 0.3779527559055118
        },
        {
          "duration": 0.3703700000000083,
          "durationTicks": 480,
          "midi": 45,
          "name": "A2",
          "ticks": 138240,
          "time": 106.66656,
          "velocity": 0.30708661417322836
        },
        {
          "duration": 0.3703700000000083,
          "durationTicks": 480,
          "midi": 52,
          "name": "E3",
          "ticks": 138240,
          "time": 106.66656,
          "velocity": 0.4409448818897638
        },
        {
          "duration": 0.33950583333334805,
          "durationTicks": 440,
          "midi": 55,
          "name": "G3",
          "ticks": 138240,
          "time": 106.66656,
          "velocity": 0.2440944881889764
        },
        {
          "duration": 0.3703700000000083,
          "durationTicks": 480,
          "midi": 60,
          "name": "C4",
          "ticks": 138240,
          "time": 106.66656,
          "velocity": 0.36220472440944884
        },
        {
          "duration": 0.3703700000000083,
          "durationTicks": 480,
          "midi": 64,
          "name": "E4",
          "ticks": 138240,
          "time": 106.66656,
          "velocity": 0.3937007874015748
        },
        {
          "duration": 0.33950583333334805,
          "durationTicks": 440,
          "midi": 67,
          "name": "G4",
          "ticks": 138240,
          "time": 106.66656,
          "velocity": 0.2440944881889764
        },
        {
          "duration": 0.18518500000000415,
          "durationTicks": 240,
          "midi": 45,
          "name": "A2",
          "ticks": 138720,
          "time": 107.03693000000001,
          "velocity": 0.33858267716535434
        },
        {
          "duration": 0.18518500000000415,
          "durationTicks": 240,
          "midi": 55,
          "name": "G3",
          "ticks": 138720,
          "time": 107.03693000000001,
          "velocity": 0.2283464566929134
        },
        {
          "duration": 0.18518500000000415,
          "durationTicks": 240,
          "midi": 64,
          "name": "E4",
          "ticks": 138720,
          "time": 107.03693000000001,
          "velocity": 0.5433070866141733
        },
        {
          "duration": 0.18518499999998994,
          "durationTicks": 240,
          "midi": 33,
          "name": "A1",
          "ticks": 138960,
          "time": 107.22211500000002,
          "velocity": 0.36220472440944884
        },
        {
          "duration": 0.18518499999998994,
          "durationTicks": 240,
          "midi": 52,
          "name": "E3",
          "ticks": 138960,
          "time": 107.22211500000002,
          "velocity": 0.4251968503937008
        },
        {
          "duration": 0.18518499999998994,
          "durationTicks": 240,
          "midi": 64,
          "name": "E4",
          "ticks": 138960,
          "time": 107.22211500000002,
          "velocity": 0.4251968503937008
        },
        {
          "duration": 0.18518500000000415,
          "durationTicks": 240,
          "midi": 33,
          "name": "A1",
          "ticks": 139200,
          "time": 107.4073,
          "velocity": 0.3937007874015748
        },
        {
          "duration": 0.18518500000000415,
          "durationTicks": 240,
          "midi": 45,
          "name": "A2",
          "ticks": 139200,
          "time": 107.4073,
          "velocity": 0.31496062992125984
        },
        {
          "duration": 0.18518500000000415,
          "durationTicks": 240,
          "midi": 52,
          "name": "E3",
          "ticks": 139200,
          "time": 107.4073,
          "velocity": 0.4645669291338583
        },
        {
          "duration": 0.18518500000000415,
          "durationTicks": 240,
          "midi": 55,
          "name": "G3",
          "ticks": 139200,
          "time": 107.4073,
          "velocity": 0.25196850393700787
        },
        {
          "duration": 0.18518500000000415,
          "durationTicks": 240,
          "midi": 54,
          "name": "F#3",
          "ticks": 139440,
          "time": 107.59248500000001,
          "velocity": 0.6299212598425197
        },
        {
          "duration": 0.18518500000000415,
          "durationTicks": 240,
          "midi": 66,
          "name": "F#4",
          "ticks": 139440,
          "time": 107.59248500000001,
          "velocity": 0.6299212598425197
        },
        {
          "duration": 0.18518499999998994,
          "durationTicks": 240,
          "midi": 40,
          "name": "E2",
          "ticks": 139680,
          "time": 107.77767000000001,
          "velocity": 0.3228346456692913
        },
        {
          "duration": 0.18518499999998994,
          "durationTicks": 240,
          "midi": 55,
          "name": "G3",
          "ticks": 139680,
          "time": 107.77767000000001,
          "velocity": 0.25984251968503935
        },
        {
          "duration": 0.18518500000000415,
          "durationTicks": 240,
          "midi": 39,
          "name": "D#2",
          "ticks": 139920,
          "time": 107.962855,
          "velocity": 0.3228346456692913
        },
        {
          "duration": 0.18518500000000415,
          "durationTicks": 240,
          "midi": 52,
          "name": "E3",
          "ticks": 139920,
          "time": 107.962855,
          "velocity": 0.29133858267716534
        },
        {
          "duration": 0.18518500000000415,
          "durationTicks": 240,
          "midi": 60,
          "name": "C4",
          "ticks": 139920,
          "time": 107.962855,
          "velocity": 0.2204724409448819
        },
        {
          "duration": 0.18518500000000415,
          "durationTicks": 240,
          "midi": 64,
          "name": "E4",
          "ticks": 139920,
          "time": 107.962855,
          "velocity": 0.2440944881889764
        },
        {
          "duration": 0.18518500000000415,
          "durationTicks": 240,
          "midi": 66,
          "name": "F#4",
          "ticks": 139920,
          "time": 107.962855,
          "velocity": 0.3858267716535433
        },
        {
          "duration": 0.18518500000000415,
          "durationTicks": 240,
          "midi": 67,
          "name": "G4",
          "ticks": 139920,
          "time": 107.962855,
          "velocity": 0.33858267716535434
        },
        {
          "duration": 0.33950583333334805,
          "durationTicks": 440,
          "midi": 38,
          "name": "D2",
          "ticks": 140160,
          "time": 108.14804000000001,
          "velocity": 0.3464566929133858
        },
        {
          "duration": 0.33950583333334805,
          "durationTicks": 440,
          "midi": 55,
          "name": "G3",
          "ticks": 140160,
          "time": 108.14804000000001,
          "velocity": 0.4566929133858268
        },
        {
          "duration": 0.18518500000000415,
          "durationTicks": 240,
          "midi": 54,
          "name": "F#3",
          "ticks": 140640,
          "time": 108.51841,
          "velocity": 0.5039370078740157
        },
        {
          "duration": 0.18518500000000415,
          "durationTicks": 240,
          "midi": 55,
          "name": "G3",
          "ticks": 140640,
          "time": 108.51841,
          "velocity": 0.3700787401574803
        },
        {
          "duration": 0.18518500000000415,
          "durationTicks": 240,
          "midi": 66,
          "name": "F#4",
          "ticks": 140640,
          "time": 108.51841,
          "velocity": 0.6929133858267716
        },
        {
          "duration": 0.18518500000000415,
          "durationTicks": 240,
          "midi": 33,
          "name": "A1",
          "ticks": 140880,
          "time": 108.703595,
          "velocity": 0.33858267716535434
        },
        {
          "duration": 0.18518500000000415,
          "durationTicks": 240,
          "midi": 60,
          "name": "C4",
          "ticks": 140880,
          "time": 108.703595,
          "velocity": 0.2204724409448819
        },
        {
          "duration": 0.18518500000000415,
          "durationTicks": 240,
          "midi": 38,
          "name": "D2",
          "ticks": 141120,
          "time": 108.88878000000001,
          "velocity": 0.3228346456692913
        },
        {
          "duration": 0.18518500000000415,
          "durationTicks": 240,
          "midi": 52,
          "name": "E3",
          "ticks": 141120,
          "time": 108.88878000000001,
          "velocity": 0.33858267716535434
        },
        {
          "duration": 0.18518500000000415,
          "durationTicks": 240,
          "midi": 60,
          "name": "C4",
          "ticks": 141120,
          "time": 108.88878000000001,
          "velocity": 0.2204724409448819
        },
        {
          "duration": 0.18518500000000415,
          "durationTicks": 240,
          "midi": 64,
          "name": "E4",
          "ticks": 141120,
          "time": 108.88878000000001,
          "velocity": 0.49606299212598426
        },
        {
          "duration": 0.18518499999998994,
          "durationTicks": 240,
          "midi": 37,
          "name": "C#2",
          "ticks": 141360,
          "time": 109.07396500000002,
          "velocity": 0.3228346456692913
        },
        {
          "duration": 0.18518500000000415,
          "durationTicks": 240,
          "midi": 38,
          "name": "D2",
          "ticks": 141600,
          "time": 109.25915,
          "velocity": 0.33858267716535434
        },
        {
          "duration": 0.1543208333333439,
          "durationTicks": 200,
          "midi": 48,
          "name": "C3",
          "ticks": 141600,
          "time": 109.25915,
          "velocity": 0.2283464566929134
        },
        {
          "duration": 0.18518500000000415,
          "durationTicks": 240,
          "midi": 52,
          "name": "E3",
          "ticks": 141600,
          "time": 109.25915,
          "velocity": 0.25196850393700787
        },
        {
          "duration": 0.18518500000000415,
          "durationTicks": 240,
          "midi": 60,
          "name": "C4",
          "ticks": 141600,
          "time": 109.25915,
          "velocity": 0.2283464566929134
        },
        {
          "duration": 0.18518500000000415,
          "durationTicks": 240,
          "midi": 64,
          "name": "E4",
          "ticks": 141600,
          "time": 109.25915,
          "velocity": 0.25196850393700787
        },
        {
          "duration": 0.2160491666666644,
          "durationTicks": 280,
          "midi": 39,
          "name": "D#2",
          "ticks": 141840,
          "time": 109.44433500000001,
          "velocity": 0.3543307086614173
        },
        {
          "duration": 0.18518499999998994,
          "durationTicks": 240,
          "midi": 40,
          "name": "E2",
          "ticks": 142080,
          "time": 109.62952000000001,
          "velocity": 0.3779527559055118
        },
        {
          "duration": 0.18518499999998994,
          "durationTicks": 240,
          "midi": 47,
          "name": "B2",
          "ticks": 142080,
          "time": 109.62952000000001,
          "velocity": 0.3858267716535433
        },
        {
          "duration": 0.18518499999998994,
          "durationTicks": 240,
          "midi": 56,
          "name": "G#3",
          "ticks": 142080,
          "time": 109.62952000000001,
          "velocity": 0.2204724409448819
        },
        {
          "duration": 0.18518499999998994,
          "durationTicks": 240,
          "midi": 59,
          "name": "B3",
          "ticks": 142080,
          "time": 109.62952000000001,
          "velocity": 0.3858267716535433
        },
        {
          "duration": 0.18518499999998994,
          "durationTicks": 240,
          "midi": 63,
          "name": "D#4",
          "ticks": 142080,
          "time": 109.62952000000001,
          "velocity": 0.2283464566929134
        },
        {
          "duration": 0.18518499999998994,
          "durationTicks": 240,
          "midi": 66,
          "name": "F#4",
          "ticks": 142080,
          "time": 109.62952000000001,
          "velocity": 0.2283464566929134
        },
        {
          "duration": 0.18518499999998994,
          "durationTicks": 240,
          "midi": 68,
          "name": "G#4",
          "ticks": 142080,
          "time": 109.62952000000001,
          "velocity": 0.2204724409448819
        },
        {
          "duration": 0.1543208333333439,
          "durationTicks": 200,
          "midi": 59,
          "name": "B3",
          "ticks": 142320,
          "time": 109.814705,
          "velocity": 0.4015748031496063
        },
        {
          "duration": 0.1543208333333439,
          "durationTicks": 200,
          "midi": 63,
          "name": "D#4",
          "ticks": 142320,
          "time": 109.814705,
          "velocity": 0.25984251968503935
        },
        {
          "duration": 0.18518500000000415,
          "durationTicks": 240,
          "midi": 59,
          "name": "B3",
          "ticks": 142560,
          "time": 109.99989000000001,
          "velocity": 0.4015748031496063
        },
        {
          "duration": 0.24691333333335308,
          "durationTicks": 320,
          "midi": 63,
          "name": "D#4",
          "ticks": 142680,
          "time": 110.0924825,
          "velocity": 0.2677165354330709
        },
        {
          "duration": 0.18518500000000415,
          "durationTicks": 240,
          "midi": 56,
          "name": "G#3",
          "ticks": 142800,
          "time": 110.18507500000001,
          "velocity": 0.2440944881889764
        },
        {
          "duration": 0.18518500000000415,
          "durationTicks": 240,
          "midi": 68,
          "name": "G#4",
          "ticks": 142800,
          "time": 110.18507500000001,
          "velocity": 0.2440944881889764
        },
        {
          "duration": 0.40123416666665435,
          "durationTicks": 520,
          "midi": 40,
          "name": "E2",
          "ticks": 143040,
          "time": 110.37026000000002,
          "velocity": 0.3779527559055118
        },
        {
          "duration": 0.40123416666665435,
          "durationTicks": 520,
          "midi": 56,
          "name": "G#3",
          "ticks": 143040,
          "time": 110.37026000000002,
          "velocity": 0.5196850393700787
        },
        {
          "duration": 0.40123416666665435,
          "durationTicks": 520,
          "midi": 59,
          "name": "B3",
          "ticks": 143040,
          "time": 110.37026000000002,
          "velocity": 0.33070866141732286
        },
        {
          "duration": 0.33950583333333384,
          "durationTicks": 440,
          "midi": 68,
          "name": "G#4",
          "ticks": 143040,
          "time": 110.37026000000002,
          "velocity": 0.6062992125984252
        },
        {
          "duration": 0.1543208333333439,
          "durationTicks": 200,
          "midi": 37,
          "name": "C#2",
          "ticks": 143520,
          "time": 110.74063000000001,
          "velocity": 0.30708661417322836
        },
        {
          "duration": 0.1543208333333439,
          "durationTicks": 200,
          "midi": 56,
          "name": "G#3",
          "ticks": 143520,
          "time": 110.74063000000001,
          "velocity": 0.3228346456692913
        },
        {
          "duration": 0.1543208333333439,
          "durationTicks": 200,
          "midi": 59,
          "name": "B3",
          "ticks": 143520,
          "time": 110.74063000000001,
          "velocity": 0.25196850393700787
        },
        {
          "duration": 0.1543208333333439,
          "durationTicks": 200,
          "midi": 63,
          "name": "D#4",
          "ticks": 143520,
          "time": 110.74063000000001,
          "velocity": 0.23622047244094488
        },
        {
          "duration": 0.2160491666666644,
          "durationTicks": 280,
          "midi": 68,
          "name": "G#4",
          "ticks": 143520,
          "time": 110.74063000000001,
          "velocity": 0.4251968503937008
        },
        {
          "duration": 0.18518499999998994,
          "durationTicks": 240,
          "midi": 36,
          "name": "C2",
          "ticks": 143760,
          "time": 110.92581500000001,
          "velocity": 0.31496062992125984
        },
        {
          "duration": 0.18518499999998994,
          "durationTicks": 240,
          "midi": 63,
          "name": "D#4",
          "ticks": 143760,
          "time": 110.92581500000001,
          "velocity": 0.28346456692913385
        },
        {
          "duration": 0.3703700000000083,
          "durationTicks": 480,
          "midi": 35,
          "name": "B1",
          "ticks": 144000,
          "time": 111.111,
          "velocity": 0.3779527559055118
        },
        {
          "duration": 0.3703700000000083,
          "durationTicks": 480,
          "midi": 56,
          "name": "G#3",
          "ticks": 144000,
          "time": 111.111,
          "velocity": 0.36220472440944884
        },
        {
          "duration": 0.3703700000000083,
          "durationTicks": 480,
          "midi": 57,
          "name": "A3",
          "ticks": 144000,
          "time": 111.111,
          "velocity": 0.3464566929133858
        },
        {
          "duration": 0.3703700000000083,
          "durationTicks": 480,
          "midi": 62,
          "name": "D4",
          "ticks": 144000,
          "time": 111.111,
          "velocity": 0.2047244094488189
        },
        {
          "duration": 0.3703700000000083,
          "durationTicks": 480,
          "midi": 64,
          "name": "E4",
          "ticks": 144000,
          "time": 111.111,
          "velocity": 0.28346456692913385
        },
        {
          "duration": 0.3703700000000083,
          "durationTicks": 480,
          "midi": 68,
          "name": "G#4",
          "ticks": 144000,
          "time": 111.111,
          "velocity": 0.6141732283464567
        },
        {
          "duration": 0.18518500000000415,
          "durationTicks": 240,
          "midi": 42,
          "name": "F#2",
          "ticks": 144480,
          "time": 111.48137000000001,
          "velocity": 0.29133858267716534
        },
        {
          "duration": 0.1543208333333297,
          "durationTicks": 200,
          "midi": 41,
          "name": "F2",
          "ticks": 144720,
          "time": 111.66655500000002,
          "velocity": 0.2992125984251969
        },
        {
          "duration": 0.1543208333333297,
          "durationTicks": 200,
          "midi": 62,
          "name": "D4",
          "ticks": 144720,
          "time": 111.66655500000002,
          "velocity": 0.2047244094488189
        },
        {
          "duration": 0.18518499999998994,
          "durationTicks": 240,
          "midi": 76,
          "name": "E5",
          "ticks": 144720,
          "time": 111.66655500000002,
          "velocity": 0.1968503937007874
        },
        {
          "duration": 0.18518500000000415,
          "durationTicks": 240,
          "midi": 40,
          "name": "E2",
          "ticks": 144960,
          "time": 111.85174,
          "velocity": 0.2755905511811024
        },
        {
          "duration": 0.18518500000000415,
          "durationTicks": 240,
          "midi": 46,
          "name": "A#2",
          "ticks": 144960,
          "time": 111.85174,
          "velocity": 0.2440944881889764
        },
        {
          "duration": 0.18518500000000415,
          "durationTicks": 240,
          "midi": 56,
          "name": "G#3",
          "ticks": 144960,
          "time": 111.85174,
          "velocity": 0.36220472440944884
        },
        {
          "duration": 0.18518500000000415,
          "durationTicks": 240,
          "midi": 62,
          "name": "D4",
          "ticks": 144960,
          "time": 111.85174,
          "velocity": 0.2440944881889764
        },
        {
          "duration": 0.18518500000000415,
          "durationTicks": 240,
          "midi": 66,
          "name": "F#4",
          "ticks": 144960,
          "time": 111.85174,
          "velocity": 0.3228346456692913
        },
        {
          "duration": 0.18518500000000415,
          "durationTicks": 240,
          "midi": 35,
          "name": "B1",
          "ticks": 145200,
          "time": 112.03692500000001,
          "velocity": 0.3228346456692913
        },
        {
          "duration": 0.18518500000000415,
          "durationTicks": 240,
          "midi": 62,
          "name": "D4",
          "ticks": 145200,
          "time": 112.03692500000001,
          "velocity": 0.25196850393700787
        },
        {
          "duration": 0.18518500000000415,
          "durationTicks": 240,
          "midi": 66,
          "name": "F#4",
          "ticks": 145200,
          "time": 112.03692500000001,
          "velocity": 0.28346456692913385
        },
        {
          "duration": 0.18518500000000415,
          "durationTicks": 240,
          "midi": 72,
          "name": "C5",
          "ticks": 145200,
          "time": 112.03692500000001,
          "velocity": 0.2204724409448819
        },
        {
          "duration": 0.18518499999998994,
          "durationTicks": 240,
          "midi": 28,
          "name": "E1",
          "ticks": 145440,
          "time": 112.22211000000001,
          "velocity": 0.31496062992125984
        },
        {
          "duration": 0.18518499999998994,
          "durationTicks": 240,
          "midi": 40,
          "name": "E2",
          "ticks": 145440,
          "time": 112.22211000000001,
          "velocity": 0.31496062992125984
        },
        {
          "duration": 0.18518500000000415,
          "durationTicks": 240,
          "midi": 72,
          "name": "C5",
          "ticks": 145680,
          "time": 112.407295,
          "velocity": 0.2283464566929134
        },
        {
          "duration": 0.18518500000000415,
          "durationTicks": 240,
          "midi": 33,
          "name": "A1",
          "ticks": 145920,
          "time": 112.59248000000001,
          "velocity": 0.36220472440944884
        },
        {
          "duration": 0.18518500000000415,
          "durationTicks": 240,
          "midi": 45,
          "name": "A2",
          "ticks": 145920,
          "time": 112.59248000000001,
          "velocity": 0.30708661417322836
        },
        {
          "duration": 0.18518500000000415,
          "durationTicks": 240,
          "midi": 52,
          "name": "E3",
          "ticks": 145920,
          "time": 112.59248000000001,
          "velocity": 0.4094488188976378
        },
        {
          "duration": 0.18518500000000415,
          "durationTicks": 240,
          "midi": 61,
          "name": "C#4",
          "ticks": 145920,
          "time": 112.59248000000001,
          "velocity": 0.2283464566929134
        },
        {
          "duration": 0.18518500000000415,
          "durationTicks": 240,
          "midi": 64,
          "name": "E4",
          "ticks": 145920,
          "time": 112.59248000000001,
          "velocity": 0.4094488188976378
        },
        {
          "duration": 0.18518499999998994,
          "durationTicks": 240,
          "midi": 61,
          "name": "C#4",
          "ticks": 146160,
          "time": 112.77766500000001,
          "velocity": 0.30708661417322836
        },
        {
          "duration": 0.1543208333333439,
          "durationTicks": 200,
          "midi": 56,
          "name": "G#3",
          "ticks": 146400,
          "time": 112.96285,
          "velocity": 0.28346456692913385
        },
        {
          "duration": 0.18518500000000415,
          "durationTicks": 240,
          "midi": 33,
          "name": "A1",
          "ticks": 146640,
          "time": 113.14803500000001,
          "velocity": 0.41732283464566927
        },
        {
          "duration": 0.18518500000000415,
          "durationTicks": 240,
          "midi": 45,
          "name": "A2",
          "ticks": 146640,
          "time": 113.14803500000001,
          "velocity": 0.41732283464566927
        },
        {
          "duration": 0.18518500000000415,
          "durationTicks": 240,
          "midi": 52,
          "name": "E3",
          "ticks": 146640,
          "time": 113.14803500000001,
          "velocity": 0.3464566929133858
        },
        {
          "duration": 0.1543208333333439,
          "durationTicks": 200,
          "midi": 33,
          "name": "A1",
          "ticks": 146880,
          "time": 113.33322000000001,
          "velocity": 0.4566929133858268
        },
        {
          "duration": 0.1543208333333439,
          "durationTicks": 200,
          "midi": 64,
          "name": "E4",
          "ticks": 146880,
          "time": 113.33322000000001,
          "velocity": 0.4094488188976378
        },
        {
          "duration": 0.24691333333333887,
          "durationTicks": 320,
          "midi": 54,
          "name": "F#3",
          "ticks": 147000,
          "time": 113.4258125,
          "velocity": 0.3464566929133858
        },
        {
          "duration": 0.18518499999998994,
          "durationTicks": 240,
          "midi": 66,
          "name": "F#4",
          "ticks": 147120,
          "time": 113.51840500000002,
          "velocity": 0.4251968503937008
        },
        {
          "duration": 0.18518500000000415,
          "durationTicks": 240,
          "midi": 42,
          "name": "F#2",
          "ticks": 147360,
          "time": 113.70359,
          "velocity": 0.2992125984251969
        },
        {
          "duration": 0.18518500000000415,
          "durationTicks": 240,
          "midi": 56,
          "name": "G#3",
          "ticks": 147360,
          "time": 113.70359,
          "velocity": 0.2677165354330709
        },
        {
          "duration": 0.2160491666666644,
          "durationTicks": 280,
          "midi": 43,
          "name": "G2",
          "ticks": 147600,
          "time": 113.88877500000001,
          "velocity": 0.3228346456692913
        },
        {
          "duration": 0.2160491666666644,
          "durationTicks": 280,
          "midi": 54,
          "name": "F#3",
          "ticks": 147600,
          "time": 113.88877500000001,
          "velocity": 0.29133858267716534
        },
        {
          "duration": 0.2160491666666644,
          "durationTicks": 280,
          "midi": 68,
          "name": "G#4",
          "ticks": 147600,
          "time": 113.88877500000001,
          "velocity": 0.2677165354330709
        },
        {
          "duration": 0.3703699999999941,
          "durationTicks": 480,
          "midi": 44,
          "name": "G#2",
          "ticks": 147840,
          "time": 114.07396000000001,
          "velocity": 0.4251968503937008
        },
        {
          "duration": 0.3703699999999941,
          "durationTicks": 480,
          "midi": 54,
          "name": "F#3",
          "ticks": 147840,
          "time": 114.07396000000001,
          "velocity": 0.2440944881889764
        },
        {
          "duration": 0.3703699999999941,
          "durationTicks": 480,
          "midi": 56,
          "name": "G#3",
          "ticks": 147840,
          "time": 114.07396000000001,
          "velocity": 0.4251968503937008
        },
        {
          "duration": 0.3703699999999941,
          "durationTicks": 480,
          "midi": 60,
          "name": "C4",
          "ticks": 147840,
          "time": 114.07396000000001,
          "velocity": 0.25196850393700787
        },
        {
          "duration": 0.3703699999999941,
          "durationTicks": 480,
          "midi": 65,
          "name": "F4",
          "ticks": 147840,
          "time": 114.07396000000001,
          "velocity": 0.2677165354330709
        },
        {
          "duration": 0.3703699999999941,
          "durationTicks": 480,
          "midi": 68,
          "name": "G#4",
          "ticks": 147840,
          "time": 114.07396000000001,
          "velocity": 0.5511811023622047
        },
        {
          "duration": 0.432098333333343,
          "durationTicks": 560,
          "midi": 57,
          "name": "A3",
          "ticks": 148200,
          "time": 114.35173750000001,
          "velocity": 0.4094488188976378
        },
        {
          "duration": 0.3703700000000083,
          "durationTicks": 480,
          "midi": 69,
          "name": "A4",
          "ticks": 148320,
          "time": 114.44433000000001,
          "velocity": 0.5039370078740157
        },
        {
          "duration": 0.3703699999999941,
          "durationTicks": 480,
          "midi": 38,
          "name": "D2",
          "ticks": 148800,
          "time": 114.81470000000002,
          "velocity": 0.36220472440944884
        },
        {
          "duration": 0.3703699999999941,
          "durationTicks": 480,
          "midi": 59,
          "name": "B3",
          "ticks": 148800,
          "time": 114.81470000000002,
          "velocity": 0.36220472440944884
        },
        {
          "duration": 0.3703699999999941,
          "durationTicks": 480,
          "midi": 64,
          "name": "E4",
          "ticks": 148800,
          "time": 114.81470000000002,
          "velocity": 0.2440944881889764
        },
        {
          "duration": 0.3703699999999941,
          "durationTicks": 480,
          "midi": 71,
          "name": "B4",
          "ticks": 148800,
          "time": 114.81470000000002,
          "velocity": 0.41732283464566927
        },
        {
          "duration": 0.2160491666666644,
          "durationTicks": 280,
          "midi": 61,
          "name": "C#4",
          "ticks": 149280,
          "time": 115.18507000000001,
          "velocity": 0.6850393700787402
        },
        {
          "duration": 0.2160491666666644,
          "durationTicks": 280,
          "midi": 64,
          "name": "E4",
          "ticks": 149280,
          "time": 115.18507000000001,
          "velocity": 0.23622047244094488
        },
        {
          "duration": 0.2160491666666644,
          "durationTicks": 280,
          "midi": 73,
          "name": "C#5",
          "ticks": 149280,
          "time": 115.18507000000001,
          "velocity": 0.6850393700787402
        },
        {
          "duration": 0.18518499999998994,
          "durationTicks": 240,
          "midi": 38,
          "name": "D2",
          "ticks": 149520,
          "time": 115.37025500000001,
          "velocity": 0.28346456692913385
        },
        {
          "duration": 0.33950583333334805,
          "durationTicks": 440,
          "midi": 37,
          "name": "C#2",
          "ticks": 149760,
          "time": 115.55544,
          "velocity": 0.4645669291338583
        },
        {
          "duration": 0.40123416666666856,
          "durationTicks": 520,
          "midi": 52,
          "name": "E3",
          "ticks": 149760,
          "time": 115.55544,
          "velocity": 0.2440944881889764
        },
        {
          "duration": 0.40123416666666856,
          "durationTicks": 520,
          "midi": 56,
          "name": "G#3",
          "ticks": 149760,
          "time": 115.55544,
          "velocity": 0.3464566929133858
        },
        {
          "duration": 0.40123416666666856,
          "durationTicks": 520,
          "midi": 59,
          "name": "B3",
          "ticks": 149760,
          "time": 115.55544,
          "velocity": 0.2677165354330709
        },
        {
          "duration": 0.40123416666666856,
          "durationTicks": 520,
          "midi": 63,
          "name": "D#4",
          "ticks": 149760,
          "time": 115.55544,
          "velocity": 0.3779527559055118
        },
        {
          "duration": 0.40123416666666856,
          "durationTicks": 520,
          "midi": 68,
          "name": "G#4",
          "ticks": 149760,
          "time": 115.55544,
          "velocity": 0.2440944881889764
        },
        {
          "duration": 0.3703699999999941,
          "durationTicks": 480,
          "midi": 52,
          "name": "E3",
          "ticks": 150240,
          "time": 115.92581000000001,
          "velocity": 0.2677165354330709
        },
        {
          "duration": 0.3703699999999941,
          "durationTicks": 480,
          "midi": 59,
          "name": "B3",
          "ticks": 150240,
          "time": 115.92581000000001,
          "velocity": 0.2047244094488189
        },
        {
          "duration": 0.3703699999999941,
          "durationTicks": 480,
          "midi": 63,
          "name": "D#4",
          "ticks": 150240,
          "time": 115.92581000000001,
          "velocity": 0.49606299212598426
        },
        {
          "duration": 0.3703700000000083,
          "durationTicks": 480,
          "midi": 37,
          "name": "C#2",
          "ticks": 150720,
          "time": 116.29618,
          "velocity": 0.3464566929133858
        },
        {
          "duration": 0.3703700000000083,
          "durationTicks": 480,
          "midi": 63,
          "name": "D#4",
          "ticks": 150720,
          "time": 116.29618,
          "velocity": 0.3464566929133858
        },
        {
          "duration": 0.18518499999998994,
          "durationTicks": 240,
          "midi": 37,
          "name": "C#2",
          "ticks": 151200,
          "time": 116.66655000000002,
          "velocity": 0.3228346456692913
        },
        {
          "duration": 0.18518499999998994,
          "durationTicks": 240,
          "midi": 52,
          "name": "E3",
          "ticks": 151200,
          "time": 116.66655000000002,
          "velocity": 0.2283464566929134
        },
        {
          "duration": 0.18518499999998994,
          "durationTicks": 240,
          "midi": 54,
          "name": "F#3",
          "ticks": 151200,
          "time": 116.66655000000002,
          "velocity": 0.2440944881889764
        },
        {
          "duration": 0.18518499999998994,
          "durationTicks": 240,
          "midi": 56,
          "name": "G#3",
          "ticks": 151200,
          "time": 116.66655000000002,
          "velocity": 0.28346456692913385
        },
        {
          "duration": 0.18518499999998994,
          "durationTicks": 240,
          "midi": 61,
          "name": "C#4",
          "ticks": 151200,
          "time": 116.66655000000002,
          "velocity": 0.33858267716535434
        },
        {
          "duration": 0.18518499999998994,
          "durationTicks": 240,
          "midi": 66,
          "name": "F#4",
          "ticks": 151200,
          "time": 116.66655000000002,
          "velocity": 0.2992125984251969
        },
        {
          "duration": 0.1543208333333439,
          "durationTicks": 200,
          "midi": 36,
          "name": "C2",
          "ticks": 151440,
          "time": 116.851735,
          "velocity": 0.3543307086614173
        },
        {
          "duration": 0.18518500000000415,
          "durationTicks": 240,
          "midi": 35,
          "name": "B1",
          "ticks": 151680,
          "time": 117.03692000000001,
          "velocity": 0.4566929133858268
        },
        {
          "duration": 0.18518500000000415,
          "durationTicks": 240,
          "midi": 52,
          "name": "E3",
          "ticks": 151680,
          "time": 117.03692000000001,
          "velocity": 0.29133858267716534
        },
        {
          "duration": 0.18518500000000415,
          "durationTicks": 240,
          "midi": 57,
          "name": "A3",
          "ticks": 151680,
          "time": 117.03692000000001,
          "velocity": 0.2204724409448819
        },
        {
          "duration": 0.18518500000000415,
          "durationTicks": 240,
          "midi": 61,
          "name": "C#4",
          "ticks": 151680,
          "time": 117.03692000000001,
          "velocity": 0.2204724409448819
        },
        {
          "duration": 0.18518500000000415,
          "durationTicks": 240,
          "midi": 64,
          "name": "E4",
          "ticks": 151680,
          "time": 117.03692000000001,
          "velocity": 0.2992125984251969
        },
        {
          "duration": 0.18518499999998994,
          "durationTicks": 240,
          "midi": 52,
          "name": "E3",
          "ticks": 151920,
          "time": 117.22210500000001,
          "velocity": 0.36220472440944884
        },
        {
          "duration": 0.18518500000000415,
          "durationTicks": 240,
          "midi": 30,
          "name": "F#1",
          "ticks": 152160,
          "time": 117.40729,
          "velocity": 0.36220472440944884
        },
        {
          "duration": 0.18518500000000415,
          "durationTicks": 240,
          "midi": 52,
          "name": "E3",
          "ticks": 152160,
          "time": 117.40729,
          "velocity": 0.25196850393700787
        },
        {
          "duration": 0.18518500000000415,
          "durationTicks": 240,
          "midi": 29,
          "name": "F1",
          "ticks": 152400,
          "time": 117.59247500000001,
          "velocity": 0.3228346456692913
        },
        {
          "duration": 0.18518500000000415,
          "durationTicks": 240,
          "midi": 52,
          "name": "E3",
          "ticks": 152400,
          "time": 117.59247500000001,
          "velocity": 0.2992125984251969
        },
        {
          "duration": 0.33950583333333384,
          "durationTicks": 440,
          "midi": 28,
          "name": "E1",
          "ticks": 152640,
          "time": 117.77766000000001,
          "velocity": 0.33858267716535434
        },
        {
          "duration": 0.33950583333333384,
          "durationTicks": 440,
          "midi": 57,
          "name": "A3",
          "ticks": 152640,
          "time": 117.77766000000001,
          "velocity": 0.2992125984251969
        },
        {
          "duration": 0.33950583333333384,
          "durationTicks": 440,
          "midi": 62,
          "name": "D4",
          "ticks": 152640,
          "time": 117.77766000000001,
          "velocity": 0.2283464566929134
        },
        {
          "duration": 0.33950583333333384,
          "durationTicks": 440,
          "midi": 66,
          "name": "F#4",
          "ticks": 152640,
          "time": 117.77766000000001,
          "velocity": 0.25196850393700787
        },
        {
          "duration": 0.1543208333333439,
          "durationTicks": 200,
          "midi": 35,
          "name": "B1",
          "ticks": 153120,
          "time": 118.14803,
          "velocity": 0.3228346456692913
        },
        {
          "duration": 0.1543208333333439,
          "durationTicks": 200,
          "midi": 57,
          "name": "A3",
          "ticks": 153120,
          "time": 118.14803,
          "velocity": 0.36220472440944884
        },
        {
          "duration": 0.2160491666666644,
          "durationTicks": 280,
          "midi": 59,
          "name": "B3",
          "ticks": 153120,
          "time": 118.14803,
          "velocity": 0.5511811023622047
        },
        {
          "duration": 0.2160491666666644,
          "durationTicks": 280,
          "midi": 66,
          "name": "F#4",
          "ticks": 153120,
          "time": 118.14803,
          "velocity": 0.25984251968503935
        },
        {
          "duration": 0.1543208333333439,
          "durationTicks": 200,
          "midi": 71,
          "name": "B4",
          "ticks": 153120,
          "time": 118.14803,
          "velocity": 0.5511811023622047
        },
        {
          "duration": 0.18518500000000415,
          "durationTicks": 240,
          "midi": 34,
          "name": "A#1",
          "ticks": 153360,
          "time": 118.33321500000001,
          "velocity": 0.4015748031496063
        },
        {
          "duration": 0.2160491666666644,
          "durationTicks": 280,
          "midi": 73,
          "name": "C#5",
          "ticks": 153360,
          "time": 118.33321500000001,
          "velocity": 0.5905511811023622
        },
        {
          "duration": 0.3703699999999941,
          "durationTicks": 480,
          "midi": 33,
          "name": "A1",
          "ticks": 153600,
          "time": 118.51840000000001,
          "velocity": 0.4094488188976378
        },
        {
          "duration": 0.3703699999999941,
          "durationTicks": 480,
          "midi": 56,
          "name": "G#3",
          "ticks": 153600,
          "time": 118.51840000000001,
          "velocity": 0.2204724409448819
        },
        {
          "duration": 0.3703699999999941,
          "durationTicks": 480,
          "midi": 59,
          "name": "B3",
          "ticks": 153600,
          "time": 118.51840000000001,
          "velocity": 0.36220472440944884
        },
        {
          "duration": 0.3703699999999941,
          "durationTicks": 480,
          "midi": 61,
          "name": "C#4",
          "ticks": 153600,
          "time": 118.51840000000001,
          "velocity": 0.3937007874015748
        },
        {
          "duration": 0.3703699999999941,
          "durationTicks": 480,
          "midi": 64,
          "name": "E4",
          "ticks": 153600,
          "time": 118.51840000000001,
          "velocity": 0.2047244094488189
        },
        {
          "duration": 0.3703699999999941,
          "durationTicks": 480,
          "midi": 68,
          "name": "G#4",
          "ticks": 153600,
          "time": 118.51840000000001,
          "velocity": 0.2204724409448819
        },
        {
          "duration": 0.3703699999999941,
          "durationTicks": 480,
          "midi": 71,
          "name": "B4",
          "ticks": 153600,
          "time": 118.51840000000001,
          "velocity": 0.33858267716535434
        },
        {
          "duration": 0.18518500000000415,
          "durationTicks": 240,
          "midi": 56,
          "name": "G#3",
          "ticks": 154080,
          "time": 118.88877000000001,
          "velocity": 0.41732283464566927
        },
        {
          "duration": 0.2160491666666644,
          "durationTicks": 280,
          "midi": 57,
          "name": "A3",
          "ticks": 154080,
          "time": 118.88877000000001,
          "velocity": 0.4015748031496063
        },
        {
          "duration": 0.18518500000000415,
          "durationTicks": 240,
          "midi": 68,
          "name": "G#4",
          "ticks": 154080,
          "time": 118.88877000000001,
          "velocity": 0.36220472440944884
        },
        {
          "duration": 0.2160491666666644,
          "durationTicks": 280,
          "midi": 28,
          "name": "E1",
          "ticks": 154320,
          "time": 119.07395500000001,
          "velocity": 0.33070866141732286
        },
        {
          "duration": 0.2160491666666644,
          "durationTicks": 280,
          "midi": 52,
          "name": "E3",
          "ticks": 154320,
          "time": 119.07395500000001,
          "velocity": 0.3779527559055118
        },
        {
          "duration": 0.2160491666666644,
          "durationTicks": 280,
          "midi": 64,
          "name": "E4",
          "ticks": 154320,
          "time": 119.07395500000001,
          "velocity": 0.3779527559055118
        },
        {
          "duration": 0.18518499999998994,
          "durationTicks": 240,
          "midi": 33,
          "name": "A1",
          "ticks": 154560,
          "time": 119.25914000000002,
          "velocity": 0.2992125984251969
        },
        {
          "duration": 0.18518499999998994,
          "durationTicks": 240,
          "midi": 56,
          "name": "G#3",
          "ticks": 154560,
          "time": 119.25914000000002,
          "velocity": 0.5196850393700787
        },
        {
          "duration": 0.18518499999998994,
          "durationTicks": 240,
          "midi": 64,
          "name": "E4",
          "ticks": 154560,
          "time": 119.25914000000002,
          "velocity": 0.4330708661417323
        },
        {
          "duration": 0.2160491666666644,
          "durationTicks": 280,
          "midi": 32,
          "name": "G#1",
          "ticks": 154800,
          "time": 119.444325,
          "velocity": 0.33858267716535434
        },
        {
          "duration": 0.2160491666666644,
          "durationTicks": 280,
          "midi": 64,
          "name": "E4",
          "ticks": 154800,
          "time": 119.444325,
          "velocity": 0.2677165354330709
        },
        {
          "duration": 0.1543208333333439,
          "durationTicks": 200,
          "midi": 68,
          "name": "G#4",
          "ticks": 154800,
          "time": 119.444325,
          "velocity": 0.36220472440944884
        },
        {
          "duration": 0.12345666666665522,
          "durationTicks": 160,
          "midi": 49,
          "name": "C#3",
          "ticks": 154920,
          "time": 119.53691750000002,
          "velocity": 0.29133858267716534
        },
        {
          "duration": 0.2160491666666644,
          "durationTicks": 280,
          "midi": 33,
          "name": "A1",
          "ticks": 155040,
          "time": 119.62951000000001,
          "velocity": 0.28346456692913385
        },
        {
          "duration": 0.18518500000000415,
          "durationTicks": 240,
          "midi": 47,
          "name": "B2",
          "ticks": 155040,
          "time": 119.62951000000001,
          "velocity": 0.29133858267716534
        },
        {
          "duration": 0.18518500000000415,
          "durationTicks": 240,
          "midi": 56,
          "name": "G#3",
          "ticks": 155040,
          "time": 119.62951000000001,
          "velocity": 0.30708661417322836
        },
        {
          "duration": 0.18518499999998994,
          "durationTicks": 240,
          "midi": 34,
          "name": "A#1",
          "ticks": 155280,
          "time": 119.81469500000001,
          "velocity": 0.48031496062992124
        },
        {
          "duration": 0.18518499999998994,
          "durationTicks": 240,
          "midi": 49,
          "name": "C#3",
          "ticks": 155280,
          "time": 119.81469500000001,
          "velocity": 0.2204724409448819
        },
        {
          "duration": 0.18518499999998994,
          "durationTicks": 240,
          "midi": 52,
          "name": "E3",
          "ticks": 155280,
          "time": 119.81469500000001,
          "velocity": 0.4645669291338583
        },
        {
          "duration": 0.18518499999998994,
          "durationTicks": 240,
          "midi": 64,
          "name": "E4",
          "ticks": 155280,
          "time": 119.81469500000001,
          "velocity": 0.4645669291338583
        },
        {
          "duration": 0.18518500000000415,
          "durationTicks": 240,
          "midi": 35,
          "name": "B1",
          "ticks": 155520,
          "time": 119.99988,
          "velocity": 0.3779527559055118
        },
        {
          "duration": 0.18518500000000415,
          "durationTicks": 240,
          "midi": 47,
          "name": "B2",
          "ticks": 155520,
          "time": 119.99988,
          "velocity": 0.3779527559055118
        },
        {
          "duration": 0.18518500000000415,
          "durationTicks": 240,
          "midi": 52,
          "name": "E3",
          "ticks": 155520,
          "time": 119.99988,
          "velocity": 0.36220472440944884
        },
        {
          "duration": 0.18518500000000415,
          "durationTicks": 240,
          "midi": 57,
          "name": "A3",
          "ticks": 155520,
          "time": 119.99988,
          "velocity": 0.28346456692913385
        },
        {
          "duration": 0.18518500000000415,
          "durationTicks": 240,
          "midi": 61,
          "name": "C#4",
          "ticks": 155520,
          "time": 119.99988,
          "velocity": 0.2440944881889764
        },
        {
          "duration": 0.18518500000000415,
          "durationTicks": 240,
          "midi": 64,
          "name": "E4",
          "ticks": 155520,
          "time": 119.99988,
          "velocity": 0.36220472440944884
        },
        {
          "duration": 0.5555549999999982,
          "durationTicks": 720,
          "midi": 52,
          "name": "E3",
          "ticks": 155760,
          "time": 120.18506500000001,
          "velocity": 0.33858267716535434
        },
        {
          "duration": 0.5555549999999982,
          "durationTicks": 720,
          "midi": 64,
          "name": "E4",
          "ticks": 155760,
          "time": 120.18506500000001,
          "velocity": 0.33858267716535434
        },
        {
          "duration": 0.432098333333343,
          "durationTicks": 560,
          "midi": 52,
          "name": "E3",
          "ticks": 156360,
          "time": 120.64802750000001,
          "velocity": 0.36220472440944884
        },
        {
          "duration": 0.40123416666666856,
          "durationTicks": 520,
          "midi": 64,
          "name": "E4",
          "ticks": 156480,
          "time": 120.74062,
          "velocity": 0.3858267716535433
        },
        {
          "duration": 0.24691333333333887,
          "durationTicks": 320,
          "midi": 52,
          "name": "E3",
          "ticks": 156840,
          "time": 121.0183975,
          "velocity": 0.2283464566929134
        },
        {
          "duration": 0.1543208333333439,
          "durationTicks": 200,
          "midi": 52,
          "name": "E3",
          "ticks": 157200,
          "time": 121.296175,
          "velocity": 0.41732283464566927
        },
        {
          "duration": 0.1543208333333439,
          "durationTicks": 200,
          "midi": 64,
          "name": "E4",
          "ticks": 157200,
          "time": 121.296175,
          "velocity": 0.4409448818897638
        },
        {
          "duration": 0.3703700000000083,
          "durationTicks": 480,
          "midi": 28,
          "name": "E1",
          "ticks": 157440,
          "time": 121.48136000000001,
          "velocity": 0.36220472440944884
        },
        {
          "duration": 0.3703700000000083,
          "durationTicks": 480,
          "midi": 69,
          "name": "A4",
          "ticks": 157440,
          "time": 121.48136000000001,
          "velocity": 0.3543307086614173
        },
        {
          "duration": 0.3703700000000083,
          "durationTicks": 480,
          "midi": 81,
          "name": "A5",
          "ticks": 157440,
          "time": 121.48136000000001,
          "velocity": 0.3543307086614173
        },
        {
          "duration": 0.18518499999998994,
          "durationTicks": 240,
          "midi": 59,
          "name": "B3",
          "ticks": 157920,
          "time": 121.85173000000002,
          "velocity": 0.2677165354330709
        },
        {
          "duration": 0.1543208333333439,
          "durationTicks": 200,
          "midi": 57,
          "name": "A3",
          "ticks": 158160,
          "time": 122.03691500000001,
          "velocity": 0.28346456692913385
        },
        {
          "duration": 0.18518500000000415,
          "durationTicks": 240,
          "midi": 64,
          "name": "E4",
          "ticks": 158400,
          "time": 122.22210000000001,
          "velocity": 0.4251968503937008
        },
        {
          "duration": 0.18518499999998994,
          "durationTicks": 240,
          "midi": 59,
          "name": "B3",
          "ticks": 158640,
          "time": 122.40728500000002,
          "velocity": 0.2677165354330709
        },
        {
          "duration": 0.3703700000000083,
          "durationTicks": 480,
          "midi": 59,
          "name": "B3",
          "ticks": 158880,
          "time": 122.59247,
          "velocity": 0.29133858267716534
        },
        {
          "duration": 0.40123416666665435,
          "durationTicks": 520,
          "midi": 38,
          "name": "D2",
          "ticks": 159360,
          "time": 122.96284000000001,
          "velocity": 0.3543307086614173
        },
        {
          "duration": 0.33950583333333384,
          "durationTicks": 440,
          "midi": 56,
          "name": "G#3",
          "ticks": 159360,
          "time": 122.96284000000001,
          "velocity": 0.2283464566929134
        },
        {
          "duration": 0.40123416666665435,
          "durationTicks": 520,
          "midi": 59,
          "name": "B3",
          "ticks": 159360,
          "time": 122.96284000000001,
          "velocity": 0.2677165354330709
        },
        {
          "duration": 0.40123416666665435,
          "durationTicks": 520,
          "midi": 64,
          "name": "E4",
          "ticks": 159360,
          "time": 122.96284000000001,
          "velocity": 0.25984251968503935
        },
        {
          "duration": 0.33950583333333384,
          "durationTicks": 440,
          "midi": 68,
          "name": "G#4",
          "ticks": 159360,
          "time": 122.96284000000001,
          "velocity": 0.25196850393700787
        },
        {
          "duration": 0.1543208333333439,
          "durationTicks": 200,
          "midi": 59,
          "name": "B3",
          "ticks": 159840,
          "time": 123.33321000000001,
          "velocity": 0.2125984251968504
        },
        {
          "duration": 0.18518500000000415,
          "durationTicks": 240,
          "midi": 68,
          "name": "G#4",
          "ticks": 160080,
          "time": 123.51839500000001,
          "velocity": 0.2283464566929134
        },
        {
          "duration": 0.18518500000000415,
          "durationTicks": 240,
          "midi": 71,
          "name": "B4",
          "ticks": 160080,
          "time": 123.51839500000001,
          "velocity": 0.2125984251968504
        },
        {
          "duration": 0.18518499999998994,
          "durationTicks": 240,
          "midi": 38,
          "name": "D2",
          "ticks": 160320,
          "time": 123.70358000000002,
          "velocity": 0.4409448818897638
        },
        {
          "duration": 0.18518499999998994,
          "durationTicks": 240,
          "midi": 50,
          "name": "D3",
          "ticks": 160320,
          "time": 123.70358000000002,
          "velocity": 0.4409448818897638
        },
        {
          "duration": 0.18518499999998994,
          "durationTicks": 240,
          "midi": 59,
          "name": "B3",
          "ticks": 160320,
          "time": 123.70358000000002,
          "velocity": 0.25984251968503935
        },
        {
          "duration": 0.18518499999998994,
          "durationTicks": 240,
          "midi": 64,
          "name": "E4",
          "ticks": 160320,
          "time": 123.70358000000002,
          "velocity": 0.2047244094488189
        },
        {
          "duration": 0.3703700000000083,
          "durationTicks": 480,
          "midi": 71,
          "name": "B4",
          "ticks": 160560,
          "time": 123.888765,
          "velocity": 0.2125984251968504
        },
        {
          "duration": 0.2160491666666502,
          "durationTicks": 280,
          "midi": 71,
          "name": "B4",
          "ticks": 161040,
          "time": 124.25913500000001,
          "velocity": 0.2204724409448819
        },
        {
          "duration": 0.18518500000000415,
          "durationTicks": 240,
          "midi": 37,
          "name": "C#2",
          "ticks": 161280,
          "time": 124.44432,
          "velocity": 0.4094488188976378
        },
        {
          "duration": 0.18518500000000415,
          "durationTicks": 240,
          "midi": 49,
          "name": "C#3",
          "ticks": 161280,
          "time": 124.44432,
          "velocity": 0.4094488188976378
        },
        {
          "duration": 0.18518500000000415,
          "durationTicks": 240,
          "midi": 59,
          "name": "B3",
          "ticks": 161280,
          "time": 124.44432,
          "velocity": 0.25984251968503935
        },
        {
          "duration": 0.18518500000000415,
          "durationTicks": 240,
          "midi": 63,
          "name": "D#4",
          "ticks": 161280,
          "time": 124.44432,
          "velocity": 0.2283464566929134
        },
        {
          "duration": 0.18518500000000415,
          "durationTicks": 240,
          "midi": 66,
          "name": "F#4",
          "ticks": 161280,
          "time": 124.44432,
          "velocity": 0.30708661417322836
        },
        {
          "duration": 0.18518500000000415,
          "durationTicks": 240,
          "midi": 78,
          "name": "F#5",
          "ticks": 161280,
          "time": 124.44432,
          "velocity": 0.30708661417322836
        },
        {
          "duration": 0.1543208333333439,
          "durationTicks": 200,
          "midi": 71,
          "name": "B4",
          "ticks": 161520,
          "time": 124.62950500000001,
          "velocity": 0.25196850393700787
        },
        {
          "duration": 0.18518500000000415,
          "durationTicks": 240,
          "midi": 71,
          "name": "B4",
          "ticks": 161760,
          "time": 124.81469000000001,
          "velocity": 0.2440944881889764
        },
        {
          "duration": 0.3703699999999941,
          "durationTicks": 480,
          "midi": 71,
          "name": "B4",
          "ticks": 162000,
          "time": 124.99987500000002,
          "velocity": 0.23622047244094488
        },
        {
          "duration": 0.5555549999999982,
          "durationTicks": 720,
          "midi": 71,
          "name": "B4",
          "ticks": 162480,
          "time": 125.37024500000001,
          "velocity": 0.2047244094488189
        },
        {
          "duration": 0.4938266666666635,
          "durationTicks": 640,
          "midi": 61,
          "name": "C#4",
          "ticks": 162600,
          "time": 125.4628375,
          "velocity": 0.4566929133858268
        },
        {
          "duration": 0.33950583333334805,
          "durationTicks": 440,
          "midi": 65,
          "name": "F4",
          "ticks": 163200,
          "time": 125.92580000000001,
          "velocity": 0.25196850393700787
        },
        {
          "duration": 0.33950583333334805,
          "durationTicks": 440,
          "midi": 66,
          "name": "F#4",
          "ticks": 163200,
          "time": 125.92580000000001,
          "velocity": 0.5275590551181102
        },
        {
          "duration": 0.1543208333333297,
          "durationTicks": 200,
          "midi": 66,
          "name": "F#4",
          "ticks": 163680,
          "time": 126.29617000000002,
          "velocity": 0.2677165354330709
        },
        {
          "duration": 0.3703700000000083,
          "durationTicks": 480,
          "midi": 61,
          "name": "C#4",
          "ticks": 163920,
          "time": 126.48135500000001,
          "velocity": 0.2677165354330709
        },
        {
          "duration": 0.3703700000000083,
          "durationTicks": 480,
          "midi": 66,
          "name": "F#4",
          "ticks": 163920,
          "time": 126.48135500000001,
          "velocity": 0.25984251968503935
        },
        {
          "duration": 0.1543208333333297,
          "durationTicks": 200,
          "midi": 58,
          "name": "A#3",
          "ticks": 164400,
          "time": 126.85172500000002,
          "velocity": 0.6141732283464567
        },
        {
          "duration": 0.18518499999998994,
          "durationTicks": 240,
          "midi": 66,
          "name": "F#4",
          "ticks": 164400,
          "time": 126.85172500000002,
          "velocity": 0.2204724409448819
        },
        {
          "duration": 0.18518500000000415,
          "durationTicks": 240,
          "midi": 63,
          "name": "D#4",
          "ticks": 164640,
          "time": 127.03691,
          "velocity": 0.2283464566929134
        },
        {
          "duration": 0.1543208333333439,
          "durationTicks": 200,
          "midi": 47,
          "name": "B2",
          "ticks": 164880,
          "time": 127.22209500000001,
          "velocity": 0.28346456692913385
        },
        {
          "duration": 0.3703699999999941,
          "durationTicks": 480,
          "midi": 30,
          "name": "F#1",
          "ticks": 165120,
          "time": 127.40728000000001,
          "velocity": 0.4094488188976378
        },
        {
          "duration": 0.3703699999999941,
          "durationTicks": 480,
          "midi": 53,
          "name": "F3",
          "ticks": 165120,
          "time": 127.40728000000001,
          "velocity": 0.2047244094488189
        },
        {
          "duration": 0.3703699999999941,
          "durationTicks": 480,
          "midi": 56,
          "name": "G#3",
          "ticks": 165120,
          "time": 127.40728000000001,
          "velocity": 0.2283464566929134
        },
        {
          "duration": 0.3703699999999941,
          "durationTicks": 480,
          "midi": 58,
          "name": "A#3",
          "ticks": 165120,
          "time": 127.40728000000001,
          "velocity": 0.3228346456692913
        },
        {
          "duration": 0.3703699999999941,
          "durationTicks": 480,
          "midi": 61,
          "name": "C#4",
          "ticks": 165120,
          "time": 127.40728000000001,
          "velocity": 0.2440944881889764
        },
        {
          "duration": 0.1543208333333439,
          "durationTicks": 200,
          "midi": 53,
          "name": "F3",
          "ticks": 165600,
          "time": 127.77765000000001,
          "velocity": 0.2283464566929134
        },
        {
          "duration": 0.3703700000000083,
          "durationTicks": 480,
          "midi": 56,
          "name": "G#3",
          "ticks": 165840,
          "time": 127.96283500000001,
          "velocity": 0.33070866141732286
        },
        {
          "duration": 0.3703700000000083,
          "durationTicks": 480,
          "midi": 61,
          "name": "C#4",
          "ticks": 165840,
          "time": 127.96283500000001,
          "velocity": 0.2204724409448819
        },
        {
          "duration": 0.18518499999998994,
          "durationTicks": 240,
          "midi": 58,
          "name": "A#3",
          "ticks": 166320,
          "time": 128.33320500000002,
          "velocity": 0.1968503937007874
        },
        {
          "duration": 0.18518499999998994,
          "durationTicks": 240,
          "midi": 61,
          "name": "C#4",
          "ticks": 166320,
          "time": 128.33320500000002,
          "velocity": 0.2677165354330709
        },
        {
          "duration": 0.18518499999998994,
          "durationTicks": 240,
          "midi": 42,
          "name": "F#2",
          "ticks": 166560,
          "time": 128.51839,
          "velocity": 0.3700787401574803
        },
        {
          "duration": 0.18518499999998994,
          "durationTicks": 240,
          "midi": 53,
          "name": "F3",
          "ticks": 166560,
          "time": 128.51839,
          "velocity": 0.3228346456692913
        },
        {
          "duration": 0.18518499999998994,
          "durationTicks": 240,
          "midi": 58,
          "name": "A#3",
          "ticks": 166560,
          "time": 128.51839,
          "velocity": 0.2047244094488189
        },
        {
          "duration": 0.18518500000001836,
          "durationTicks": 240,
          "midi": 53,
          "name": "F3",
          "ticks": 166800,
          "time": 128.703575,
          "velocity": 0.3228346456692913
        },
        {
          "duration": 0.18518500000001836,
          "durationTicks": 240,
          "midi": 58,
          "name": "A#3",
          "ticks": 166800,
          "time": 128.703575,
          "velocity": 0.2047244094488189
        },
        {
          "duration": 0.18518499999998994,
          "durationTicks": 240,
          "midi": 42,
          "name": "F#2",
          "ticks": 167040,
          "time": 128.88876000000002,
          "velocity": 0.4566929133858268
        },
        {
          "duration": 0.18518499999998994,
          "durationTicks": 240,
          "midi": 51,
          "name": "D#3",
          "ticks": 167040,
          "time": 128.88876000000002,
          "velocity": 0.30708661417322836
        },
        {
          "duration": 0.18518499999998994,
          "durationTicks": 240,
          "midi": 54,
          "name": "F#3",
          "ticks": 167040,
          "time": 128.88876000000002,
          "velocity": 0.25984251968503935
        },
        {
          "duration": 0.18518499999998994,
          "durationTicks": 240,
          "midi": 58,
          "name": "A#3",
          "ticks": 167040,
          "time": 128.88876000000002,
          "velocity": 0.2440944881889764
        },
        {
          "duration": 0.18518499999998994,
          "durationTicks": 240,
          "midi": 61,
          "name": "C#4",
          "ticks": 167040,
          "time": 128.88876000000002,
          "velocity": 0.23622047244094488
        },
        {
          "duration": 0.1543208333333439,
          "durationTicks": 200,
          "midi": 51,
          "name": "D#3",
          "ticks": 167280,
          "time": 129.073945,
          "velocity": 0.2125984251968504
        },
        {
          "duration": 0.1543208333333439,
          "durationTicks": 200,
          "midi": 58,
          "name": "A#3",
          "ticks": 167280,
          "time": 129.073945,
          "velocity": 0.2440944881889764
        },
        {
          "duration": 0.18518500000001836,
          "durationTicks": 240,
          "midi": 42,
          "name": "F#2",
          "ticks": 167520,
          "time": 129.25913,
          "velocity": 0.3858267716535433
        },
        {
          "duration": 0.18518500000001836,
          "durationTicks": 240,
          "midi": 51,
          "name": "D#3",
          "ticks": 167520,
          "time": 129.25913,
          "velocity": 0.2204724409448819
        },
        {
          "duration": 0.18518500000001836,
          "durationTicks": 240,
          "midi": 54,
          "name": "F#3",
          "ticks": 167520,
          "time": 129.25913,
          "velocity": 0.23622047244094488
        },
        {
          "duration": 0.18518500000001836,
          "durationTicks": 240,
          "midi": 58,
          "name": "A#3",
          "ticks": 167520,
          "time": 129.25913,
          "velocity": 0.2204724409448819
        },
        {
          "duration": 0.1543208333333439,
          "durationTicks": 200,
          "midi": 42,
          "name": "F#2",
          "ticks": 167760,
          "time": 129.44431500000002,
          "velocity": 0.3228346456692913
        },
        {
          "duration": 0.1543208333333439,
          "durationTicks": 200,
          "midi": 54,
          "name": "F#3",
          "ticks": 167760,
          "time": 129.44431500000002,
          "velocity": 0.25196850393700787
        },
        {
          "duration": 0.1543208333333439,
          "durationTicks": 200,
          "midi": 58,
          "name": "A#3",
          "ticks": 167760,
          "time": 129.44431500000002,
          "velocity": 0.2125984251968504
        },
        {
          "duration": 0.1543208333333439,
          "durationTicks": 200,
          "midi": 61,
          "name": "C#4",
          "ticks": 167760,
          "time": 129.44431500000002,
          "velocity": 0.1889763779527559
        },
        {
          "duration": 0.1543208333333439,
          "durationTicks": 200,
          "midi": 66,
          "name": "F#4",
          "ticks": 167760,
          "time": 129.44431500000002,
          "velocity": 0.25196850393700787
        },
        {
          "duration": 0.1543208333333439,
          "durationTicks": 200,
          "midi": 85,
          "name": "C#6",
          "ticks": 167760,
          "time": 129.44431500000002,
          "velocity": 0.2204724409448819
        },
        {
          "duration": 0.18518499999998994,
          "durationTicks": 240,
          "midi": 51,
          "name": "D#3",
          "ticks": 168000,
          "time": 129.6295,
          "velocity": 0.36220472440944884
        },
        {
          "duration": 0.18518500000001836,
          "durationTicks": 240,
          "midi": 61,
          "name": "C#4",
          "ticks": 168240,
          "time": 129.814685,
          "velocity": 0.2047244094488189
        },
        {
          "duration": 0.18518499999998994,
          "durationTicks": 240,
          "midi": 42,
          "name": "F#2",
          "ticks": 168480,
          "time": 129.99987000000002,
          "velocity": 0.25984251968503935
        },
        {
          "duration": 0.18518499999998994,
          "durationTicks": 240,
          "midi": 51,
          "name": "D#3",
          "ticks": 168480,
          "time": 129.99987000000002,
          "velocity": 0.23622047244094488
        },
        {
          "duration": 0.18518499999998994,
          "durationTicks": 240,
          "midi": 54,
          "name": "F#3",
          "ticks": 168480,
          "time": 129.99987000000002,
          "velocity": 0.2283464566929134
        },
        {
          "duration": 0.18518499999998994,
          "durationTicks": 240,
          "midi": 58,
          "name": "A#3",
          "ticks": 168480,
          "time": 129.99987000000002,
          "velocity": 0.2047244094488189
        },
        {
          "duration": 0.18518500000001836,
          "durationTicks": 240,
          "midi": 37,
          "name": "C#2",
          "ticks": 168720,
          "time": 130.185055,
          "velocity": 0.2992125984251969
        },
        {
          "duration": 0.3703699999999799,
          "durationTicks": 480,
          "midi": 42,
          "name": "F#2",
          "ticks": 168960,
          "time": 130.37024000000002,
          "velocity": 0.3464566929133858
        },
        {
          "duration": 0.3703699999999799,
          "durationTicks": 480,
          "midi": 49,
          "name": "C#3",
          "ticks": 168960,
          "time": 130.37024000000002,
          "velocity": 0.29133858267716534
        },
        {
          "duration": 0.3703699999999799,
          "durationTicks": 480,
          "midi": 53,
          "name": "F3",
          "ticks": 168960,
          "time": 130.37024000000002,
          "velocity": 0.2440944881889764
        },
        {
          "duration": 0.3703699999999799,
          "durationTicks": 480,
          "midi": 54,
          "name": "F#3",
          "ticks": 168960,
          "time": 130.37024000000002,
          "velocity": 0.3464566929133858
        },
        {
          "duration": 0.3703699999999799,
          "durationTicks": 480,
          "midi": 58,
          "name": "A#3",
          "ticks": 168960,
          "time": 130.37024000000002,
          "velocity": 0.2204724409448819
        },
        {
          "duration": 0.3703699999999799,
          "durationTicks": 480,
          "midi": 61,
          "name": "C#4",
          "ticks": 168960,
          "time": 130.37024000000002,
          "velocity": 0.25196850393700787
        },
        {
          "duration": 0.1543208333333439,
          "durationTicks": 200,
          "midi": 53,
          "name": "F3",
          "ticks": 169440,
          "time": 130.74061,
          "velocity": 0.31496062992125984
        },
        {
          "duration": 0.3703699999999799,
          "durationTicks": 480,
          "midi": 42,
          "name": "F#2",
          "ticks": 169680,
          "time": 130.92579500000002,
          "velocity": 0.30708661417322836
        },
        {
          "duration": 0.3703699999999799,
          "durationTicks": 480,
          "midi": 53,
          "name": "F3",
          "ticks": 169680,
          "time": 130.92579500000002,
          "velocity": 0.25196850393700787
        },
        {
          "duration": 0.3703699999999799,
          "durationTicks": 480,
          "midi": 56,
          "name": "G#3",
          "ticks": 169680,
          "time": 130.92579500000002,
          "velocity": 0.2677165354330709
        },
        {
          "duration": 0.3703699999999799,
          "durationTicks": 480,
          "midi": 58,
          "name": "A#3",
          "ticks": 169680,
          "time": 130.92579500000002,
          "velocity": 0.1889763779527559
        },
        {
          "duration": 0.3703699999999799,
          "durationTicks": 480,
          "midi": 68,
          "name": "G#4",
          "ticks": 169680,
          "time": 130.92579500000002,
          "velocity": 0.2047244094488189
        },
        {
          "duration": 0.2160491666666644,
          "durationTicks": 280,
          "midi": 60,
          "name": "C4",
          "ticks": 170160,
          "time": 131.296165,
          "velocity": 0.36220472440944884
        },
        {
          "duration": 0.18518500000001836,
          "durationTicks": 240,
          "midi": 61,
          "name": "C#4",
          "ticks": 170160,
          "time": 131.296165,
          "velocity": 0.28346456692913385
        },
        {
          "duration": 0.12345666666664101,
          "durationTicks": 160,
          "midi": 58,
          "name": "A#3",
          "ticks": 170280,
          "time": 131.38875750000003,
          "velocity": 0.18110236220472442
        },
        {
          "duration": 0.18518499999998994,
          "durationTicks": 240,
          "midi": 61,
          "name": "C#4",
          "ticks": 170400,
          "time": 131.48135000000002,
          "velocity": 0.3464566929133858
        },
        {
          "duration": 0.1543208333333439,
          "durationTicks": 200,
          "midi": 37,
          "name": "C#2",
          "ticks": 170640,
          "time": 131.666535,
          "velocity": 0.2677165354330709
        },
        {
          "duration": 0.1543208333333439,
          "durationTicks": 200,
          "midi": 51,
          "name": "D#3",
          "ticks": 170640,
          "time": 131.666535,
          "velocity": 0.3858267716535433
        },
        {
          "duration": 0.1543208333333439,
          "durationTicks": 200,
          "midi": 63,
          "name": "D#4",
          "ticks": 170640,
          "time": 131.666535,
          "velocity": 0.3858267716535433
        },
        {
          "duration": 0.18518500000001836,
          "durationTicks": 240,
          "midi": 42,
          "name": "F#2",
          "ticks": 170880,
          "time": 131.85172,
          "velocity": 0.36220472440944884
        },
        {
          "duration": 0.18518500000001836,
          "durationTicks": 240,
          "midi": 51,
          "name": "D#3",
          "ticks": 170880,
          "time": 131.85172,
          "velocity": 0.41732283464566927
        },
        {
          "duration": 0.18518500000001836,
          "durationTicks": 240,
          "midi": 54,
          "name": "F#3",
          "ticks": 170880,
          "time": 131.85172,
          "velocity": 0.30708661417322836
        },
        {
          "duration": 0.18518500000001836,
          "durationTicks": 240,
          "midi": 58,
          "name": "A#3",
          "ticks": 170880,
          "time": 131.85172,
          "velocity": 0.2283464566929134
        },
        {
          "duration": 0.18518500000001836,
          "durationTicks": 240,
          "midi": 61,
          "name": "C#4",
          "ticks": 170880,
          "time": 131.85172,
          "velocity": 0.30708661417322836
        },
        {
          "duration": 0.18518500000001836,
          "durationTicks": 240,
          "midi": 66,
          "name": "F#4",
          "ticks": 170880,
          "time": 131.85172,
          "velocity": 0.6456692913385826
        },
        {
          "duration": 0.18518499999998994,
          "durationTicks": 240,
          "midi": 66,
          "name": "F#4",
          "ticks": 171120,
          "time": 132.03690500000002,
          "velocity": 0.7401574803149606
        },
        {
          "duration": 0.1543208333333439,
          "durationTicks": 200,
          "midi": 58,
          "name": "A#3",
          "ticks": 171360,
          "time": 132.22209,
          "velocity": 0.2047244094488189
        },
        {
          "duration": 0.2160491666666644,
          "durationTicks": 280,
          "midi": 61,
          "name": "C#4",
          "ticks": 171600,
          "time": 132.407275,
          "velocity": 0.47244094488188976
        },
        {
          "duration": 0.5555549999999982,
          "durationTicks": 720,
          "midi": 41,
          "name": "F2",
          "ticks": 171840,
          "time": 132.59246000000002,
          "velocity": 0.3228346456692913
        },
        {
          "duration": 0.5555549999999982,
          "durationTicks": 720,
          "midi": 53,
          "name": "F3",
          "ticks": 171840,
          "time": 132.59246000000002,
          "velocity": 0.1968503937007874
        },
        {
          "duration": 0.5555549999999982,
          "durationTicks": 720,
          "midi": 56,
          "name": "G#3",
          "ticks": 171840,
          "time": 132.59246000000002,
          "velocity": 0.2992125984251969
        },
        {
          "duration": 0.5555549999999982,
          "durationTicks": 720,
          "midi": 58,
          "name": "A#3",
          "ticks": 171840,
          "time": 132.59246000000002,
          "velocity": 0.2125984251968504
        },
        {
          "duration": 0.5555549999999982,
          "durationTicks": 720,
          "midi": 61,
          "name": "C#4",
          "ticks": 171840,
          "time": 132.59246000000002,
          "velocity": 0.4645669291338583
        },
        {
          "duration": 0.18518499999998994,
          "durationTicks": 240,
          "midi": 42,
          "name": "F#2",
          "ticks": 172560,
          "time": 133.14801500000002,
          "velocity": 0.2677165354330709
        },
        {
          "duration": 0.18518499999998994,
          "durationTicks": 240,
          "midi": 58,
          "name": "A#3",
          "ticks": 172560,
          "time": 133.14801500000002,
          "velocity": 0.33858267716535434
        },
        {
          "duration": 0.33950583333333384,
          "durationTicks": 440,
          "midi": 39,
          "name": "D#2",
          "ticks": 172800,
          "time": 133.3332,
          "velocity": 0.3858267716535433
        },
        {
          "duration": 0.33950583333333384,
          "durationTicks": 440,
          "midi": 58,
          "name": "A#3",
          "ticks": 172800,
          "time": 133.3332,
          "velocity": 0.3779527559055118
        },
        {
          "duration": 0.33950583333333384,
          "durationTicks": 440,
          "midi": 61,
          "name": "C#4",
          "ticks": 172800,
          "time": 133.3332,
          "velocity": 0.2125984251968504
        },
        {
          "duration": 0.12345666666666943,
          "durationTicks": 160,
          "midi": 53,
          "name": "F3",
          "ticks": 173400,
          "time": 133.7961625,
          "velocity": 0.3228346456692913
        },
        {
          "duration": 0.12345666666666943,
          "durationTicks": 160,
          "midi": 58,
          "name": "A#3",
          "ticks": 173400,
          "time": 133.7961625,
          "velocity": 0.2992125984251969
        },
        {
          "duration": 0.1543208333333439,
          "durationTicks": 200,
          "midi": 56,
          "name": "G#3",
          "ticks": 173520,
          "time": 133.888755,
          "velocity": 0.2047244094488189
        },
        {
          "duration": 0.18518499999998994,
          "durationTicks": 240,
          "midi": 39,
          "name": "D#2",
          "ticks": 173760,
          "time": 134.07394000000002,
          "velocity": 0.33070866141732286
        },
        {
          "duration": 0.1543208333333439,
          "durationTicks": 200,
          "midi": 61,
          "name": "C#4",
          "ticks": 174000,
          "time": 134.259125,
          "velocity": 0.2204724409448819
        },
        {
          "duration": 0.3703700000000083,
          "durationTicks": 480,
          "midi": 53,
          "name": "F3",
          "ticks": 174240,
          "time": 134.44431,
          "velocity": 0.33858267716535434
        },
        {
          "duration": 0.3703700000000083,
          "durationTicks": 480,
          "midi": 39,
          "name": "D#2",
          "ticks": 174720,
          "time": 134.81468,
          "velocity": 0.2992125984251969
        },
        {
          "duration": 0.3703700000000083,
          "durationTicks": 480,
          "midi": 51,
          "name": "D#3",
          "ticks": 174720,
          "time": 134.81468,
          "velocity": 0.25984251968503935
        },
        {
          "duration": 0.3703700000000083,
          "durationTicks": 480,
          "midi": 54,
          "name": "F#3",
          "ticks": 174720,
          "time": 134.81468,
          "velocity": 0.2992125984251969
        },
        {
          "duration": 0.3703700000000083,
          "durationTicks": 480,
          "midi": 58,
          "name": "A#3",
          "ticks": 174720,
          "time": 134.81468,
          "velocity": 0.25196850393700787
        },
        {
          "duration": 0.3703700000000083,
          "durationTicks": 480,
          "midi": 61,
          "name": "C#4",
          "ticks": 174720,
          "time": 134.81468,
          "velocity": 0.2204724409448819
        },
        {
          "duration": 0.2160491666666644,
          "durationTicks": 280,
          "midi": 51,
          "name": "D#3",
          "ticks": 175200,
          "time": 135.18505000000002,
          "velocity": 0.25196850393700787
        },
        {
          "duration": 0.18518499999998994,
          "durationTicks": 240,
          "midi": 49,
          "name": "C#3",
          "ticks": 175440,
          "time": 135.370235,
          "velocity": 0.2992125984251969
        },
        {
          "duration": 0.09259249999999497,
          "durationTicks": 120,
          "midi": 50,
          "name": "D3",
          "ticks": 175560,
          "time": 135.4628275,
          "velocity": 0.2992125984251969
        },
        {
          "duration": 0.1543208333333439,
          "durationTicks": 200,
          "midi": 53,
          "name": "F3",
          "ticks": 175680,
          "time": 135.55542,
          "velocity": 0.2283464566929134
        },
        {
          "duration": 0.1543208333333439,
          "durationTicks": 200,
          "midi": 56,
          "name": "G#3",
          "ticks": 175680,
          "time": 135.55542,
          "velocity": 0.2204724409448819
        },
        {
          "duration": 0.18518500000001836,
          "durationTicks": 240,
          "midi": 61,
          "name": "C#4",
          "ticks": 175680,
          "time": 135.55542,
          "velocity": 0.2204724409448819
        },
        {
          "duration": 0.18518500000001836,
          "durationTicks": 240,
          "midi": 68,
          "name": "G#4",
          "ticks": 175680,
          "time": 135.55542,
          "velocity": 0.2204724409448819
        },
        {
          "duration": 0.18518499999998994,
          "durationTicks": 240,
          "midi": 46,
          "name": "A#2",
          "ticks": 175920,
          "time": 135.74060500000002,
          "velocity": 0.33858267716535434
        },
        {
          "duration": 0.18518500000001836,
          "durationTicks": 240,
          "midi": 42,
          "name": "F#2",
          "ticks": 176160,
          "time": 135.92579,
          "velocity": 0.33858267716535434
        },
        {
          "duration": 0.18518500000001836,
          "durationTicks": 240,
          "midi": 51,
          "name": "D#3",
          "ticks": 176160,
          "time": 135.92579,
          "velocity": 0.2755905511811024
        },
        {
          "duration": 0.2160491666666644,
          "durationTicks": 280,
          "midi": 53,
          "name": "F3",
          "ticks": 176160,
          "time": 135.92579,
          "velocity": 0.29133858267716534
        },
        {
          "duration": 0.18518499999998994,
          "durationTicks": 240,
          "midi": 41,
          "name": "F2",
          "ticks": 176400,
          "time": 136.11097500000002,
          "velocity": 0.3700787401574803
        },
        {
          "duration": 0.3703700000000083,
          "durationTicks": 480,
          "midi": 39,
          "name": "D#2",
          "ticks": 176640,
          "time": 136.29616000000001,
          "velocity": 0.3858267716535433
        },
        {
          "duration": 0.3703700000000083,
          "durationTicks": 480,
          "midi": 49,
          "name": "C#3",
          "ticks": 176640,
          "time": 136.29616000000001,
          "velocity": 0.29133858267716534
        },
        {
          "duration": 0.3703700000000083,
          "durationTicks": 480,
          "midi": 53,
          "name": "F3",
          "ticks": 176640,
          "time": 136.29616000000001,
          "velocity": 0.2440944881889764
        },
        {
          "duration": 0.3703700000000083,
          "durationTicks": 480,
          "midi": 61,
          "name": "C#4",
          "ticks": 176640,
          "time": 136.29616000000001,
          "velocity": 0.29133858267716534
        },
        {
          "duration": 0.18518499999998994,
          "durationTicks": 240,
          "midi": 53,
          "name": "F3",
          "ticks": 177120,
          "time": 136.66653000000002,
          "velocity": 0.29133858267716534
        },
        {
          "duration": 0.1543208333333439,
          "durationTicks": 200,
          "midi": 51,
          "name": "D#3",
          "ticks": 177360,
          "time": 136.851715,
          "velocity": 0.29133858267716534
        },
        {
          "duration": 0.1543208333333439,
          "durationTicks": 200,
          "midi": 56,
          "name": "G#3",
          "ticks": 177360,
          "time": 136.851715,
          "velocity": 0.28346456692913385
        },
        {
          "duration": 0.3703700000000083,
          "durationTicks": 480,
          "midi": 39,
          "name": "D#2",
          "ticks": 177600,
          "time": 137.0369,
          "velocity": 0.4330708661417323
        },
        {
          "duration": 0.3703700000000083,
          "durationTicks": 480,
          "midi": 51,
          "name": "D#3",
          "ticks": 177600,
          "time": 137.0369,
          "velocity": 0.3228346456692913
        },
        {
          "duration": 0.3703700000000083,
          "durationTicks": 480,
          "midi": 58,
          "name": "A#3",
          "ticks": 177600,
          "time": 137.0369,
          "velocity": 0.2283464566929134
        },
        {
          "duration": 0.3703700000000083,
          "durationTicks": 480,
          "midi": 63,
          "name": "D#4",
          "ticks": 177600,
          "time": 137.0369,
          "velocity": 0.1889763779527559
        },
        {
          "duration": 0.18518499999998994,
          "durationTicks": 240,
          "midi": 51,
          "name": "D#3",
          "ticks": 178080,
          "time": 137.40727,
          "velocity": 0.3464566929133858
        },
        {
          "duration": 0.18518499999998994,
          "durationTicks": 240,
          "midi": 53,
          "name": "F3",
          "ticks": 178080,
          "time": 137.40727,
          "velocity": 0.2992125984251969
        },
        {
          "duration": 0.18518499999998994,
          "durationTicks": 240,
          "midi": 63,
          "name": "D#4",
          "ticks": 178080,
          "time": 137.40727,
          "velocity": 0.4015748031496063
        },
        {
          "duration": 0.18518500000001836,
          "durationTicks": 240,
          "midi": 34,
          "name": "A#1",
          "ticks": 178320,
          "time": 137.592455,
          "velocity": 0.3464566929133858
        },
        {
          "duration": 0.18518499999998994,
          "durationTicks": 240,
          "midi": 39,
          "name": "D#2",
          "ticks": 178560,
          "time": 137.77764000000002,
          "velocity": 0.3779527559055118
        },
        {
          "duration": 0.18518499999998994,
          "durationTicks": 240,
          "midi": 51,
          "name": "D#3",
          "ticks": 178560,
          "time": 137.77764000000002,
          "velocity": 0.3779527559055118
        },
        {
          "duration": 0.18518499999998994,
          "durationTicks": 240,
          "midi": 53,
          "name": "F3",
          "ticks": 178560,
          "time": 137.77764000000002,
          "velocity": 0.2755905511811024
        },
        {
          "duration": 0.18518499999998994,
          "durationTicks": 240,
          "midi": 56,
          "name": "G#3",
          "ticks": 178560,
          "time": 137.77764000000002,
          "velocity": 0.29133858267716534
        },
        {
          "duration": 0.18518499999998994,
          "durationTicks": 240,
          "midi": 58,
          "name": "A#3",
          "ticks": 178560,
          "time": 137.77764000000002,
          "velocity": 0.47244094488188976
        },
        {
          "duration": 0.18518499999998994,
          "durationTicks": 240,
          "midi": 61,
          "name": "C#4",
          "ticks": 178560,
          "time": 137.77764000000002,
          "velocity": 0.28346456692913385
        },
        {
          "duration": 0.18518499999998994,
          "durationTicks": 240,
          "midi": 65,
          "name": "F4",
          "ticks": 178560,
          "time": 137.77764000000002,
          "velocity": 0.2755905511811024
        },
        {
          "duration": 0.18518499999998994,
          "durationTicks": 240,
          "midi": 70,
          "name": "A#4",
          "ticks": 178560,
          "time": 137.77764000000002,
          "velocity": 0.5118110236220472
        },
        {
          "duration": 0.1543208333333439,
          "durationTicks": 200,
          "midi": 68,
          "name": "G#4",
          "ticks": 178800,
          "time": 137.962825,
          "velocity": 0.3464566929133858
        },
        {
          "duration": 0.1543208333333439,
          "durationTicks": 200,
          "midi": 61,
          "name": "C#4",
          "ticks": 179040,
          "time": 138.14801,
          "velocity": 0.29133858267716534
        },
        {
          "duration": 0.1543208333333439,
          "durationTicks": 200,
          "midi": 34,
          "name": "A#1",
          "ticks": 179280,
          "time": 138.33319500000002,
          "velocity": 0.3700787401574803
        },
        {
          "duration": 0.18518499999998994,
          "durationTicks": 240,
          "midi": 70,
          "name": "A#4",
          "ticks": 179280,
          "time": 138.33319500000002,
          "velocity": 0.7007874015748031
        },
        {
          "duration": 0.18518500000001836,
          "durationTicks": 240,
          "midi": 34,
          "name": "A#1",
          "ticks": 179520,
          "time": 138.51838,
          "velocity": 0.4015748031496063
        },
        {
          "duration": 0.18518500000001836,
          "durationTicks": 240,
          "midi": 55,
          "name": "G3",
          "ticks": 179520,
          "time": 138.51838,
          "velocity": 0.2283464566929134
        },
        {
          "duration": 0.18518500000001836,
          "durationTicks": 240,
          "midi": 59,
          "name": "B3",
          "ticks": 179520,
          "time": 138.51838,
          "velocity": 0.2440944881889764
        },
        {
          "duration": 0.18518500000001836,
          "durationTicks": 240,
          "midi": 63,
          "name": "D#4",
          "ticks": 179520,
          "time": 138.51838,
          "velocity": 0.2283464566929134
        },
        {
          "duration": 0.18518500000001836,
          "durationTicks": 240,
          "midi": 66,
          "name": "F#4",
          "ticks": 179520,
          "time": 138.51838,
          "velocity": 0.2283464566929134
        },
        {
          "duration": 0.15432083333331548,
          "durationTicks": 200,
          "midi": 39,
          "name": "D#2",
          "ticks": 179760,
          "time": 138.70356500000003,
          "velocity": 0.29133858267716534
        },
        {
          "duration": 0.18518499999998994,
          "durationTicks": 240,
          "midi": 34,
          "name": "A#1",
          "ticks": 180000,
          "time": 138.88875000000002,
          "velocity": 0.3543307086614173
        },
        {
          "duration": 0.18518499999998994,
          "durationTicks": 240,
          "midi": 46,
          "name": "A#2",
          "ticks": 180000,
          "time": 138.88875000000002,
          "velocity": 0.3543307086614173
        },
        {
          "duration": 0.18518499999998994,
          "durationTicks": 240,
          "midi": 73,
          "name": "C#5",
          "ticks": 180000,
          "time": 138.88875000000002,
          "velocity": 0.5669291338582677
        },
        {
          "duration": 0.18518500000001836,
          "durationTicks": 240,
          "midi": 33,
          "name": "A1",
          "ticks": 180240,
          "time": 139.073935,
          "velocity": 0.3858267716535433
        },
        {
          "duration": 0.1543208333333439,
          "durationTicks": 200,
          "midi": 73,
          "name": "C#5",
          "ticks": 180240,
          "time": 139.073935,
          "velocity": 0.47244094488188976
        },
        {
          "duration": 0.3703699999999799,
          "durationTicks": 480,
          "midi": 32,
          "name": "G#1",
          "ticks": 180480,
          "time": 139.25912000000002,
          "velocity": 0.3700787401574803
        },
        {
          "duration": 0.3703699999999799,
          "durationTicks": 480,
          "midi": 44,
          "name": "G#2",
          "ticks": 180480,
          "time": 139.25912000000002,
          "velocity": 0.3700787401574803
        },
        {
          "duration": 0.3703699999999799,
          "durationTicks": 480,
          "midi": 51,
          "name": "D#3",
          "ticks": 180480,
          "time": 139.25912000000002,
          "velocity": 0.3464566929133858
        },
        {
          "duration": 0.3703699999999799,
          "durationTicks": 480,
          "midi": 56,
          "name": "G#3",
          "ticks": 180480,
          "time": 139.25912000000002,
          "velocity": 0.2992125984251969
        },
        {
          "duration": 0.3703699999999799,
          "durationTicks": 480,
          "midi": 58,
          "name": "A#3",
          "ticks": 180480,
          "time": 139.25912000000002,
          "velocity": 0.2283464566929134
        },
        {
          "duration": 0.3703699999999799,
          "durationTicks": 480,
          "midi": 59,
          "name": "B3",
          "ticks": 180480,
          "time": 139.25912000000002,
          "velocity": 0.36220472440944884
        },
        {
          "duration": 0.3703699999999799,
          "durationTicks": 480,
          "midi": 60,
          "name": "C4",
          "ticks": 180480,
          "time": 139.25912000000002,
          "velocity": 0.3779527559055118
        },
        {
          "duration": 0.3703699999999799,
          "durationTicks": 480,
          "midi": 63,
          "name": "D#4",
          "ticks": 180480,
          "time": 139.25912000000002,
          "velocity": 0.2283464566929134
        },
        {
          "duration": 0.1543208333333439,
          "durationTicks": 200,
          "midi": 56,
          "name": "G#3",
          "ticks": 180960,
          "time": 139.62949,
          "velocity": 0.28346456692913385
        },
        {
          "duration": 0.18518499999998994,
          "durationTicks": 240,
          "midi": 56,
          "name": "G#3",
          "ticks": 181200,
          "time": 139.81467500000002,
          "velocity": 0.29133858267716534
        },
        {
          "duration": 0.18518499999998994,
          "durationTicks": 240,
          "midi": 59,
          "name": "B3",
          "ticks": 181200,
          "time": 139.81467500000002,
          "velocity": 0.4409448818897638
        },
        {
          "duration": 0.18518499999998994,
          "durationTicks": 240,
          "midi": 32,
          "name": "G#1",
          "ticks": 181440,
          "time": 139.99986,
          "velocity": 0.36220472440944884
        },
        {
          "duration": 0.18518500000001836,
          "durationTicks": 240,
          "midi": 63,
          "name": "D#4",
          "ticks": 181680,
          "time": 140.185045,
          "velocity": 0.2440944881889764
        },
        {
          "duration": 0.3703699999999799,
          "durationTicks": 480,
          "midi": 56,
          "name": "G#3",
          "ticks": 181920,
          "time": 140.37023000000002,
          "velocity": 0.4330708661417323
        },
        {
          "duration": 0.40123416666668277,
          "durationTicks": 520,
          "midi": 51,
          "name": "D#3",
          "ticks": 182400,
          "time": 140.7406,
          "velocity": 0.28346456692913385
        },
        {
          "duration": 0.40123416666668277,
          "durationTicks": 520,
          "midi": 55,
          "name": "G3",
          "ticks": 182400,
          "time": 140.7406,
          "velocity": 0.28346456692913385
        },
        {
          "duration": 0.33950583333336226,
          "durationTicks": 440,
          "midi": 58,
          "name": "A#3",
          "ticks": 182400,
          "time": 140.7406,
          "velocity": 0.2204724409448819
        },
        {
          "duration": 0.33950583333336226,
          "durationTicks": 440,
          "midi": 59,
          "name": "B3",
          "ticks": 182400,
          "time": 140.7406,
          "velocity": 0.2204724409448819
        },
        {
          "duration": 0.33950583333336226,
          "durationTicks": 440,
          "midi": 63,
          "name": "D#4",
          "ticks": 182400,
          "time": 140.7406,
          "velocity": 0.2755905511811024
        },
        {
          "duration": 0.33950583333336226,
          "durationTicks": 440,
          "midi": 67,
          "name": "G4",
          "ticks": 182400,
          "time": 140.7406,
          "velocity": 0.23622047244094488
        },
        {
          "duration": 0.33950583333336226,
          "durationTicks": 440,
          "midi": 82,
          "name": "A#5",
          "ticks": 182400,
          "time": 140.7406,
          "velocity": 0.25984251968503935
        },
        {
          "duration": 0.18518499999998994,
          "durationTicks": 240,
          "midi": 39,
          "name": "D#2",
          "ticks": 182880,
          "time": 141.11097,
          "velocity": 0.3858267716535433
        },
        {
          "duration": 0.18518499999998994,
          "durationTicks": 240,
          "midi": 44,
          "name": "G#2",
          "ticks": 182880,
          "time": 141.11097,
          "velocity": 0.3543307086614173
        },
        {
          "duration": 0.18518499999998994,
          "durationTicks": 240,
          "midi": 51,
          "name": "D#3",
          "ticks": 182880,
          "time": 141.11097,
          "velocity": 0.3858267716535433
        },
        {
          "duration": 0.18518500000001836,
          "durationTicks": 240,
          "midi": 59,
          "name": "B3",
          "ticks": 183120,
          "time": 141.296155,
          "velocity": 0.2125984251968504
        },
        {
          "duration": 0.18518500000001836,
          "durationTicks": 240,
          "midi": 63,
          "name": "D#4",
          "ticks": 183120,
          "time": 141.296155,
          "velocity": 0.1968503937007874
        },
        {
          "duration": 0.18518499999998994,
          "durationTicks": 240,
          "midi": 39,
          "name": "D#2",
          "ticks": 183360,
          "time": 141.48134000000002,
          "velocity": 0.41732283464566927
        },
        {
          "duration": 0.18518499999998994,
          "durationTicks": 240,
          "midi": 44,
          "name": "G#2",
          "ticks": 183360,
          "time": 141.48134000000002,
          "velocity": 0.2677165354330709
        },
        {
          "duration": 0.18518500000001836,
          "durationTicks": 240,
          "midi": 44,
          "name": "G#2",
          "ticks": 183600,
          "time": 141.666525,
          "velocity": 0.30708661417322836
        },
        {
          "duration": 0.18518500000001836,
          "durationTicks": 240,
          "midi": 63,
          "name": "D#4",
          "ticks": 183600,
          "time": 141.666525,
          "velocity": 0.2047244094488189
        },
        {
          "duration": 0.18518500000001836,
          "durationTicks": 240,
          "midi": 71,
          "name": "B4",
          "ticks": 183600,
          "time": 141.666525,
          "velocity": 0.2047244094488189
        },
        {
          "duration": 0.3703699999999799,
          "durationTicks": 480,
          "midi": 44,
          "name": "G#2",
          "ticks": 183840,
          "time": 141.85171000000003,
          "velocity": 0.25196850393700787
        },
        {
          "duration": 0.3703700000000083,
          "durationTicks": 480,
          "midi": 44,
          "name": "G#2",
          "ticks": 184320,
          "time": 142.22208,
          "velocity": 0.36220472440944884
        },
        {
          "duration": 0.3703700000000083,
          "durationTicks": 480,
          "midi": 59,
          "name": "B3",
          "ticks": 184320,
          "time": 142.22208,
          "velocity": 0.2283464566929134
        },
        {
          "duration": 0.3703700000000083,
          "durationTicks": 480,
          "midi": 63,
          "name": "D#4",
          "ticks": 184320,
          "time": 142.22208,
          "velocity": 0.28346456692913385
        },
        {
          "duration": 0.3703700000000083,
          "durationTicks": 480,
          "midi": 75,
          "name": "D#5",
          "ticks": 184320,
          "time": 142.22208,
          "velocity": 0.2047244094488189
        },
        {
          "duration": 0.1543208333333439,
          "durationTicks": 200,
          "midi": 54,
          "name": "F#3",
          "ticks": 184800,
          "time": 142.59245,
          "velocity": 0.2440944881889764
        },
        {
          "duration": 0.18518500000001836,
          "durationTicks": 240,
          "midi": 58,
          "name": "A#3",
          "ticks": 185040,
          "time": 142.777635,
          "velocity": 0.1968503937007874
        },
        {
          "duration": 0.18518500000001836,
          "durationTicks": 240,
          "midi": 59,
          "name": "B3",
          "ticks": 185040,
          "time": 142.777635,
          "velocity": 0.2440944881889764
        },
        {
          "duration": 0.18518500000001836,
          "durationTicks": 240,
          "midi": 63,
          "name": "D#4",
          "ticks": 185040,
          "time": 142.777635,
          "velocity": 0.2283464566929134
        },
        {
          "duration": 0.18518499999998994,
          "durationTicks": 240,
          "midi": 32,
          "name": "G#1",
          "ticks": 185280,
          "time": 142.96282000000002,
          "velocity": 0.4251968503937008
        },
        {
          "duration": 0.18518499999998994,
          "durationTicks": 240,
          "midi": 51,
          "name": "D#3",
          "ticks": 185520,
          "time": 143.148005,
          "velocity": 0.2677165354330709
        },
        {
          "duration": 0.1543208333333439,
          "durationTicks": 200,
          "midi": 54,
          "name": "F#3",
          "ticks": 185760,
          "time": 143.33319,
          "velocity": 0.25984251968503935
        },
        {
          "duration": 0.18518499999998994,
          "durationTicks": 240,
          "midi": 39,
          "name": "D#2",
          "ticks": 186000,
          "time": 143.51837500000002,
          "velocity": 0.30708661417322836
        },
        {
          "duration": 0.18518499999998994,
          "durationTicks": 240,
          "midi": 51,
          "name": "D#3",
          "ticks": 186000,
          "time": 143.51837500000002,
          "velocity": 0.3464566929133858
        },
        {
          "duration": 0.1543208333333439,
          "durationTicks": 200,
          "midi": 32,
          "name": "G#1",
          "ticks": 186240,
          "time": 143.70356,
          "velocity": 0.4251968503937008
        },
        {
          "duration": 0.2160491666666644,
          "durationTicks": 280,
          "midi": 55,
          "name": "G3",
          "ticks": 186240,
          "time": 143.70356,
          "velocity": 0.31496062992125984
        },
        {
          "duration": 0.1543208333333439,
          "durationTicks": 200,
          "midi": 56,
          "name": "G#3",
          "ticks": 186240,
          "time": 143.70356,
          "velocity": 0.33858267716535434
        },
        {
          "duration": 0.2160491666666644,
          "durationTicks": 280,
          "midi": 58,
          "name": "A#3",
          "ticks": 186240,
          "time": 143.70356,
          "velocity": 0.5433070866141733
        },
        {
          "duration": 0.2160491666666644,
          "durationTicks": 280,
          "midi": 59,
          "name": "B3",
          "ticks": 186240,
          "time": 143.70356,
          "velocity": 0.2125984251968504
        },
        {
          "duration": 0.1543208333333439,
          "durationTicks": 200,
          "midi": 63,
          "name": "D#4",
          "ticks": 186240,
          "time": 143.70356,
          "velocity": 0.3700787401574803
        },
        {
          "duration": 0.3703700000000083,
          "durationTicks": 480,
          "midi": 68,
          "name": "G#4",
          "ticks": 186480,
          "time": 143.888745,
          "velocity": 0.4645669291338583
        },
        {
          "duration": 0.1543208333333439,
          "durationTicks": 200,
          "midi": 58,
          "name": "A#3",
          "ticks": 186960,
          "time": 144.259115,
          "velocity": 0.5196850393700787
        },
        {
          "duration": 0.1543208333333439,
          "durationTicks": 200,
          "midi": 70,
          "name": "A#4",
          "ticks": 186960,
          "time": 144.259115,
          "velocity": 0.5196850393700787
        },
        {
          "duration": 0.1543208333333439,
          "durationTicks": 200,
          "midi": 82,
          "name": "A#5",
          "ticks": 186960,
          "time": 144.259115,
          "velocity": 0.3779527559055118
        },
        {
          "duration": 0.18518499999998994,
          "durationTicks": 240,
          "midi": 34,
          "name": "A#1",
          "ticks": 187200,
          "time": 144.44430000000003,
          "velocity": 0.4094488188976378
        },
        {
          "duration": 0.18518499999998994,
          "durationTicks": 240,
          "midi": 46,
          "name": "A#2",
          "ticks": 187200,
          "time": 144.44430000000003,
          "velocity": 0.33070866141732286
        },
        {
          "duration": 0.18518499999998994,
          "durationTicks": 240,
          "midi": 56,
          "name": "G#3",
          "ticks": 187200,
          "time": 144.44430000000003,
          "velocity": 0.2992125984251969
        },
        {
          "duration": 0.18518499999998994,
          "durationTicks": 240,
          "midi": 61,
          "name": "C#4",
          "ticks": 187200,
          "time": 144.44430000000003,
          "velocity": 0.2047244094488189
        },
        {
          "duration": 0.18518499999998994,
          "durationTicks": 240,
          "midi": 65,
          "name": "F4",
          "ticks": 187200,
          "time": 144.44430000000003,
          "velocity": 0.2283464566929134
        },
        {
          "duration": 0.18518499999998994,
          "durationTicks": 240,
          "midi": 73,
          "name": "C#5",
          "ticks": 187200,
          "time": 144.44430000000003,
          "velocity": 0.2283464566929134
        },
        {
          "duration": 0.2160491666666644,
          "durationTicks": 280,
          "midi": 59,
          "name": "B3",
          "ticks": 187440,
          "time": 144.62948500000002,
          "velocity": 0.5196850393700787
        },
        {
          "duration": 0.18518499999998994,
          "durationTicks": 240,
          "midi": 71,
          "name": "B4",
          "ticks": 187440,
          "time": 144.62948500000002,
          "velocity": 0.6141732283464567
        },
        {
          "duration": 0.1543208333333439,
          "durationTicks": 200,
          "midi": 46,
          "name": "A#2",
          "ticks": 187680,
          "time": 144.81467,
          "velocity": 0.3464566929133858
        },
        {
          "duration": 0.18518499999998994,
          "durationTicks": 240,
          "midi": 59,
          "name": "B3",
          "ticks": 187920,
          "time": 144.99985500000003,
          "velocity": 0.4094488188976378
        },
        {
          "duration": 0.18518499999998994,
          "durationTicks": 240,
          "midi": 71,
          "name": "B4",
          "ticks": 187920,
          "time": 144.99985500000003,
          "velocity": 0.4566929133858268
        },
        {
          "duration": 0.3703700000000083,
          "durationTicks": 480,
          "midi": 35,
          "name": "B1",
          "ticks": 188160,
          "time": 145.18504000000001,
          "velocity": 0.4015748031496063
        },
        {
          "duration": 0.3703700000000083,
          "durationTicks": 480,
          "midi": 47,
          "name": "B2",
          "ticks": 188160,
          "time": 145.18504000000001,
          "velocity": 0.3228346456692913
        },
        {
          "duration": 0.33950583333333384,
          "durationTicks": 440,
          "midi": 56,
          "name": "G#3",
          "ticks": 188160,
          "time": 145.18504000000001,
          "velocity": 0.36220472440944884
        },
        {
          "duration": 0.3703700000000083,
          "durationTicks": 480,
          "midi": 62,
          "name": "D4",
          "ticks": 188160,
          "time": 145.18504000000001,
          "velocity": 0.2204724409448819
        },
        {
          "duration": 0.3703700000000083,
          "durationTicks": 480,
          "midi": 68,
          "name": "G#4",
          "ticks": 188160,
          "time": 145.18504000000001,
          "velocity": 0.5275590551181102
        },
        {
          "duration": 0.3703700000000083,
          "durationTicks": 480,
          "midi": 74,
          "name": "D5",
          "ticks": 188160,
          "time": 145.18504000000001,
          "velocity": 0.2204724409448819
        },
        {
          "duration": 0.1543208333333439,
          "durationTicks": 200,
          "midi": 54,
          "name": "F#3",
          "ticks": 188640,
          "time": 145.55541000000002,
          "velocity": 0.2992125984251969
        },
        {
          "duration": 0.1543208333333439,
          "durationTicks": 200,
          "midi": 56,
          "name": "G#3",
          "ticks": 188640,
          "time": 145.55541000000002,
          "velocity": 0.33858267716535434
        },
        {
          "duration": 0.1543208333333439,
          "durationTicks": 200,
          "midi": 74,
          "name": "D5",
          "ticks": 188640,
          "time": 145.55541000000002,
          "velocity": 0.2283464566929134
        },
        {
          "duration": 0.5246908333333522,
          "durationTicks": 680,
          "midi": 42,
          "name": "F#2",
          "ticks": 188880,
          "time": 145.740595,
          "velocity": 0.3543307086614173
        },
        {
          "duration": 0.33950583333333384,
          "durationTicks": 440,
          "midi": 56,
          "name": "G#3",
          "ticks": 189600,
          "time": 146.29615,
          "velocity": 0.3464566929133858
        },
        {
          "duration": 0.3703699999999799,
          "durationTicks": 480,
          "midi": 47,
          "name": "B2",
          "ticks": 190080,
          "time": 146.66652000000002,
          "velocity": 0.3464566929133858
        },
        {
          "duration": 0.3703699999999799,
          "durationTicks": 480,
          "midi": 54,
          "name": "F#3",
          "ticks": 190080,
          "time": 146.66652000000002,
          "velocity": 0.2992125984251969
        },
        {
          "duration": 0.3703699999999799,
          "durationTicks": 480,
          "midi": 56,
          "name": "G#3",
          "ticks": 190080,
          "time": 146.66652000000002,
          "velocity": 0.25984251968503935
        },
        {
          "duration": 0.3703699999999799,
          "durationTicks": 480,
          "midi": 59,
          "name": "B3",
          "ticks": 190080,
          "time": 146.66652000000002,
          "velocity": 0.3464566929133858
        },
        {
          "duration": 0.3703699999999799,
          "durationTicks": 480,
          "midi": 62,
          "name": "D4",
          "ticks": 190080,
          "time": 146.66652000000002,
          "velocity": 0.2204724409448819
        },
        {
          "duration": 0.3703699999999799,
          "durationTicks": 480,
          "midi": 66,
          "name": "F#4",
          "ticks": 190080,
          "time": 146.66652000000002,
          "velocity": 0.2992125984251969
        },
        {
          "duration": 0.3703699999999799,
          "durationTicks": 480,
          "midi": 74,
          "name": "D5",
          "ticks": 190080,
          "time": 146.66652000000002,
          "velocity": 0.1889763779527559
        },
        {
          "duration": 0.5555550000000267,
          "durationTicks": 720,
          "midi": 56,
          "name": "G#3",
          "ticks": 190560,
          "time": 147.03689,
          "velocity": 0.33858267716535434
        },
        {
          "duration": 0.15432083333331548,
          "durationTicks": 200,
          "midi": 46,
          "name": "A#2",
          "ticks": 191280,
          "time": 147.59244500000003,
          "velocity": 0.3228346456692913
        },
        {
          "duration": 0.18518499999998994,
          "durationTicks": 240,
          "midi": 47,
          "name": "B2",
          "ticks": 191520,
          "time": 147.77763000000002,
          "velocity": 0.29133858267716534
        },
        {
          "duration": 0.18518499999998994,
          "durationTicks": 240,
          "midi": 59,
          "name": "B3",
          "ticks": 191520,
          "time": 147.77763000000002,
          "velocity": 0.29133858267716534
        },
        {
          "duration": 0.18518499999998994,
          "durationTicks": 240,
          "midi": 66,
          "name": "F#4",
          "ticks": 191520,
          "time": 147.77763000000002,
          "velocity": 0.8976377952755905
        },
        {
          "duration": 0.18518500000001836,
          "durationTicks": 240,
          "midi": 48,
          "name": "C3",
          "ticks": 191760,
          "time": 147.962815,
          "velocity": 0.29133858267716534
        },
        {
          "duration": 0.3703699999999799,
          "durationTicks": 480,
          "midi": 49,
          "name": "C#3",
          "ticks": 192000,
          "time": 148.14800000000002,
          "velocity": 0.3464566929133858
        },
        {
          "duration": 0.3703699999999799,
          "durationTicks": 480,
          "midi": 54,
          "name": "F#3",
          "ticks": 192000,
          "time": 148.14800000000002,
          "velocity": 0.3543307086614173
        },
        {
          "duration": 0.3703699999999799,
          "durationTicks": 480,
          "midi": 59,
          "name": "B3",
          "ticks": 192000,
          "time": 148.14800000000002,
          "velocity": 0.2125984251968504
        },
        {
          "duration": 0.33950583333333384,
          "durationTicks": 440,
          "midi": 61,
          "name": "C#4",
          "ticks": 192000,
          "time": 148.14800000000002,
          "velocity": 0.36220472440944884
        },
        {
          "duration": 0.3703699999999799,
          "durationTicks": 480,
          "midi": 73,
          "name": "C#5",
          "ticks": 192000,
          "time": 148.14800000000002,
          "velocity": 0.28346456692913385
        },
        {
          "duration": 0.3703699999999799,
          "durationTicks": 480,
          "midi": 78,
          "name": "F#5",
          "ticks": 192000,
          "time": 148.14800000000002,
          "velocity": 0.7559055118110236
        },
        {
          "duration": 0.18518500000001836,
          "durationTicks": 240,
          "midi": 38,
          "name": "D2",
          "ticks": 192480,
          "time": 148.51837,
          "velocity": 0.2283464566929134
        },
        {
          "duration": 0.2160491666666644,
          "durationTicks": 280,
          "midi": 54,
          "name": "F#3",
          "ticks": 192480,
          "time": 148.51837,
          "velocity": 0.25196850393700787
        },
        {
          "duration": 0.18518500000001836,
          "durationTicks": 240,
          "midi": 61,
          "name": "C#4",
          "ticks": 192480,
          "time": 148.51837,
          "velocity": 0.36220472440944884
        },
        {
          "duration": 0.18518499999998994,
          "durationTicks": 240,
          "midi": 44,
          "name": "G#2",
          "ticks": 192720,
          "time": 148.70355500000002,
          "velocity": 0.2992125984251969
        },
        {
          "duration": 0.18518499999998994,
          "durationTicks": 240,
          "midi": 59,
          "name": "B3",
          "ticks": 192720,
          "time": 148.70355500000002,
          "velocity": 0.2677165354330709
        },
        {
          "duration": 0.3703700000000083,
          "durationTicks": 480,
          "midi": 37,
          "name": "C#2",
          "ticks": 192960,
          "time": 148.88874,
          "velocity": 0.3543307086614173
        },
        {
          "duration": 0.3703700000000083,
          "durationTicks": 480,
          "midi": 56,
          "name": "G#3",
          "ticks": 192960,
          "time": 148.88874,
          "velocity": 0.3543307086614173
        },
        {
          "duration": 0.3703700000000083,
          "durationTicks": 480,
          "midi": 63,
          "name": "D#4",
          "ticks": 192960,
          "time": 148.88874,
          "velocity": 0.3700787401574803
        },
        {
          "duration": 0.3703700000000083,
          "durationTicks": 480,
          "midi": 75,
          "name": "D#5",
          "ticks": 192960,
          "time": 148.88874,
          "velocity": 0.3700787401574803
        },
        {
          "duration": 0.18518499999998994,
          "durationTicks": 240,
          "midi": 54,
          "name": "F#3",
          "ticks": 193440,
          "time": 149.25911000000002,
          "velocity": 0.3700787401574803
        },
        {
          "duration": 0.18518499999998994,
          "durationTicks": 240,
          "midi": 66,
          "name": "F#4",
          "ticks": 193440,
          "time": 149.25911000000002,
          "velocity": 0.4015748031496063
        },
        {
          "duration": 0.18518499999998994,
          "durationTicks": 240,
          "midi": 56,
          "name": "G#3",
          "ticks": 193680,
          "time": 149.444295,
          "velocity": 0.2440944881889764
        },
        {
          "duration": 0.18518499999998994,
          "durationTicks": 240,
          "midi": 59,
          "name": "B3",
          "ticks": 193680,
          "time": 149.444295,
          "velocity": 0.2125984251968504
        },
        {
          "duration": 0.18518500000001836,
          "durationTicks": 240,
          "midi": 35,
          "name": "B1",
          "ticks": 193920,
          "time": 149.62948,
          "velocity": 0.3543307086614173
        },
        {
          "duration": 0.18518500000001836,
          "durationTicks": 240,
          "midi": 53,
          "name": "F3",
          "ticks": 193920,
          "time": 149.62948,
          "velocity": 0.3464566929133858
        },
        {
          "duration": 0.18518500000001836,
          "durationTicks": 240,
          "midi": 56,
          "name": "G#3",
          "ticks": 193920,
          "time": 149.62948,
          "velocity": 0.2204724409448819
        },
        {
          "duration": 0.18518500000001836,
          "durationTicks": 240,
          "midi": 61,
          "name": "C#4",
          "ticks": 193920,
          "time": 149.62948,
          "velocity": 0.23622047244094488
        },
        {
          "duration": 0.2160491666666644,
          "durationTicks": 280,
          "midi": 65,
          "name": "F4",
          "ticks": 193920,
          "time": 149.62948,
          "velocity": 0.7795275590551181
        },
        {
          "duration": 0.18518500000001836,
          "durationTicks": 240,
          "midi": 77,
          "name": "F5",
          "ticks": 193920,
          "time": 149.62948,
          "velocity": 0.7795275590551181
        },
        {
          "duration": 0.18518499999998994,
          "durationTicks": 240,
          "midi": 65,
          "name": "F4",
          "ticks": 194160,
          "time": 149.81466500000002,
          "velocity": 0.4251968503937008
        },
        {
          "duration": 0.18518499999998994,
          "durationTicks": 240,
          "midi": 66,
          "name": "F#4",
          "ticks": 194400,
          "time": 149.99985,
          "velocity": 0.49606299212598426
        },
        {
          "duration": 0.18518500000001836,
          "durationTicks": 240,
          "midi": 56,
          "name": "G#3",
          "ticks": 194640,
          "time": 150.185035,
          "velocity": 0.3543307086614173
        },
        {
          "duration": 0.18518500000001836,
          "durationTicks": 240,
          "midi": 65,
          "name": "F4",
          "ticks": 194640,
          "time": 150.185035,
          "velocity": 0.3228346456692913
        },
        {
          "duration": 0.18518499999998994,
          "durationTicks": 240,
          "midi": 56,
          "name": "G#3",
          "ticks": 194880,
          "time": 150.37022000000002,
          "velocity": 0.36220472440944884
        },
        {
          "duration": 0.18518499999998994,
          "durationTicks": 240,
          "midi": 59,
          "name": "B3",
          "ticks": 194880,
          "time": 150.37022000000002,
          "velocity": 0.25984251968503935
        },
        {
          "duration": 0.18518499999998994,
          "durationTicks": 240,
          "midi": 63,
          "name": "D#4",
          "ticks": 194880,
          "time": 150.37022000000002,
          "velocity": 0.29133858267716534
        },
        {
          "duration": 0.18518499999998994,
          "durationTicks": 240,
          "midi": 65,
          "name": "F4",
          "ticks": 194880,
          "time": 150.37022000000002,
          "velocity": 0.2125984251968504
        },
        {
          "duration": 0.18518499999998994,
          "durationTicks": 240,
          "midi": 68,
          "name": "G#4",
          "ticks": 194880,
          "time": 150.37022000000002,
          "velocity": 0.4881889763779528
        },
        {
          "duration": 0.18518499999998994,
          "durationTicks": 240,
          "midi": 75,
          "name": "D#5",
          "ticks": 194880,
          "time": 150.37022000000002,
          "velocity": 0.4645669291338583
        },
        {
          "duration": 0.18518500000001836,
          "durationTicks": 240,
          "midi": 35,
          "name": "B1",
          "ticks": 195120,
          "time": 150.555405,
          "velocity": 0.31496062992125984
        },
        {
          "duration": 0.15432083333331548,
          "durationTicks": 200,
          "midi": 32,
          "name": "G#1",
          "ticks": 195360,
          "time": 150.74059000000003,
          "velocity": 0.3464566929133858
        },
        {
          "duration": 0.15432083333331548,
          "durationTicks": 200,
          "midi": 33,
          "name": "A1",
          "ticks": 195360,
          "time": 150.74059000000003,
          "velocity": 0.3228346456692913
        },
        {
          "duration": 0.18518499999998994,
          "durationTicks": 240,
          "midi": 33,
          "name": "A1",
          "ticks": 195600,
          "time": 150.92577500000002,
          "velocity": 0.36220472440944884
        },
        {
          "duration": 0.18518499999998994,
          "durationTicks": 240,
          "midi": 75,
          "name": "D#5",
          "ticks": 195600,
          "time": 150.92577500000002,
          "velocity": 0.6062992125984252
        },
        {
          "duration": 0.33950583333333384,
          "durationTicks": 440,
          "midi": 34,
          "name": "A#1",
          "ticks": 195840,
          "time": 151.11096,
          "velocity": 0.4094488188976378
        },
        {
          "duration": 0.33950583333333384,
          "durationTicks": 440,
          "midi": 42,
          "name": "F#2",
          "ticks": 195840,
          "time": 151.11096,
          "velocity": 0.25984251968503935
        },
        {
          "duration": 0.33950583333333384,
          "durationTicks": 440,
          "midi": 46,
          "name": "A#2",
          "ticks": 195840,
          "time": 151.11096,
          "velocity": 0.4094488188976378
        },
        {
          "duration": 0.33950583333333384,
          "durationTicks": 440,
          "midi": 54,
          "name": "F#3",
          "ticks": 195840,
          "time": 151.11096,
          "velocity": 0.2125984251968504
        },
        {
          "duration": 0.33950583333333384,
          "durationTicks": 440,
          "midi": 56,
          "name": "G#3",
          "ticks": 195840,
          "time": 151.11096,
          "velocity": 0.2204724409448819
        },
        {
          "duration": 0.33950583333333384,
          "durationTicks": 440,
          "midi": 58,
          "name": "A#3",
          "ticks": 195840,
          "time": 151.11096,
          "velocity": 0.2283464566929134
        },
        {
          "duration": 0.33950583333333384,
          "durationTicks": 440,
          "midi": 61,
          "name": "C#4",
          "ticks": 195840,
          "time": 151.11096,
          "velocity": 0.5354330708661418
        },
        {
          "duration": 0.33950583333333384,
          "durationTicks": 440,
          "midi": 65,
          "name": "F4",
          "ticks": 195840,
          "time": 151.11096,
          "velocity": 0.25196850393700787
        },
        {
          "duration": 0.18518499999998994,
          "durationTicks": 240,
          "midi": 42,
          "name": "F#2",
          "ticks": 196320,
          "time": 151.48133,
          "velocity": 0.2755905511811024
        },
        {
          "duration": 0.18518499999998994,
          "durationTicks": 240,
          "midi": 54,
          "name": "F#3",
          "ticks": 196320,
          "time": 151.48133,
          "velocity": 0.2755905511811024
        },
        {
          "duration": 0.3703700000000083,
          "durationTicks": 480,
          "midi": 46,
          "name": "A#2",
          "ticks": 196560,
          "time": 151.666515,
          "velocity": 0.33858267716535434
        },
        {
          "duration": 0.3703700000000083,
          "durationTicks": 480,
          "midi": 56,
          "name": "G#3",
          "ticks": 196560,
          "time": 151.666515,
          "velocity": 0.30708661417322836
        },
        {
          "duration": 0.1543208333333439,
          "durationTicks": 200,
          "midi": 34,
          "name": "A#1",
          "ticks": 197040,
          "time": 152.036885,
          "velocity": 0.33858267716535434
        },
        {
          "duration": 0.18518499999998994,
          "durationTicks": 240,
          "midi": 56,
          "name": "G#3",
          "ticks": 197040,
          "time": 152.036885,
          "velocity": 0.2992125984251969
        },
        {
          "duration": 0.18518500000001836,
          "durationTicks": 240,
          "midi": 42,
          "name": "F#2",
          "ticks": 197280,
          "time": 152.22207,
          "velocity": 0.33070866141732286
        },
        {
          "duration": 0.18518500000001836,
          "durationTicks": 240,
          "midi": 46,
          "name": "A#2",
          "ticks": 197280,
          "time": 152.22207,
          "velocity": 0.36220472440944884
        },
        {
          "duration": 0.2160491666666644,
          "durationTicks": 280,
          "midi": 41,
          "name": "F2",
          "ticks": 197520,
          "time": 152.40725500000002,
          "velocity": 0.36220472440944884
        },
        {
          "duration": 0.18518499999998994,
          "durationTicks": 240,
          "midi": 39,
          "name": "D#2",
          "ticks": 197760,
          "time": 152.59244,
          "velocity": 0.3464566929133858
        },
        {
          "duration": 0.18518499999998994,
          "durationTicks": 240,
          "midi": 58,
          "name": "A#3",
          "ticks": 197760,
          "time": 152.59244,
          "velocity": 0.2992125984251969
        },
        {
          "duration": 0.18518499999998994,
          "durationTicks": 240,
          "midi": 61,
          "name": "C#4",
          "ticks": 197760,
          "time": 152.59244,
          "velocity": 0.3228346456692913
        },
        {
          "duration": 0.18518499999998994,
          "durationTicks": 240,
          "midi": 66,
          "name": "F#4",
          "ticks": 197760,
          "time": 152.59244,
          "velocity": 0.5590551181102362
        },
        {
          "duration": 0.18518500000001836,
          "durationTicks": 240,
          "midi": 39,
          "name": "D#2",
          "ticks": 198000,
          "time": 152.777625,
          "velocity": 0.3858267716535433
        },
        {
          "duration": 0.2160491666666644,
          "durationTicks": 280,
          "midi": 66,
          "name": "F#4",
          "ticks": 198000,
          "time": 152.777625,
          "velocity": 0.5433070866141733
        },
        {
          "duration": 0.24691333333333887,
          "durationTicks": 320,
          "midi": 66,
          "name": "F#4",
          "ticks": 198120,
          "time": 152.87021750000002,
          "velocity": 0.49606299212598426
        },
        {
          "duration": 0.1543208333333439,
          "durationTicks": 200,
          "midi": 38,
          "name": "D2",
          "ticks": 198240,
          "time": 152.96281000000002,
          "velocity": 0.2992125984251969
        },
        {
          "duration": 0.2160491666666644,
          "durationTicks": 280,
          "midi": 54,
          "name": "F#3",
          "ticks": 198240,
          "time": 152.96281000000002,
          "velocity": 0.33858267716535434
        },
        {
          "duration": 0.1543208333333439,
          "durationTicks": 200,
          "midi": 61,
          "name": "C#4",
          "ticks": 198240,
          "time": 152.96281000000002,
          "velocity": 0.2204724409448819
        },
        {
          "duration": 0.27777750000001333,
          "durationTicks": 360,
          "midi": 66,
          "name": "F#4",
          "ticks": 198360,
          "time": 153.0554025,
          "velocity": 0.4409448818897638
        },
        {
          "duration": 0.18518500000001836,
          "durationTicks": 240,
          "midi": 34,
          "name": "A#1",
          "ticks": 198480,
          "time": 153.147995,
          "velocity": 0.4015748031496063
        },
        {
          "duration": 0.18518500000001836,
          "durationTicks": 240,
          "midi": 54,
          "name": "F#3",
          "ticks": 198480,
          "time": 153.147995,
          "velocity": 0.3464566929133858
        },
        {
          "duration": 0.18518500000001836,
          "durationTicks": 240,
          "midi": 61,
          "name": "C#4",
          "ticks": 198480,
          "time": 153.147995,
          "velocity": 0.2440944881889764
        },
        {
          "duration": 0.15432083333331548,
          "durationTicks": 200,
          "midi": 54,
          "name": "F#3",
          "ticks": 198720,
          "time": 153.33318000000003,
          "velocity": 0.28346456692913385
        },
        {
          "duration": 0.15432083333331548,
          "durationTicks": 200,
          "midi": 61,
          "name": "C#4",
          "ticks": 198720,
          "time": 153.33318000000003,
          "velocity": 0.2283464566929134
        },
        {
          "duration": 0.18518499999998994,
          "durationTicks": 240,
          "midi": 39,
          "name": "D#2",
          "ticks": 198960,
          "time": 153.51836500000002,
          "velocity": 0.2755905511811024
        },
        {
          "duration": 0.18518500000001836,
          "durationTicks": 240,
          "midi": 34,
          "name": "A#1",
          "ticks": 199200,
          "time": 153.70355,
          "velocity": 0.36220472440944884
        },
        {
          "duration": 0.2160491666666644,
          "durationTicks": 280,
          "midi": 54,
          "name": "F#3",
          "ticks": 199200,
          "time": 153.70355,
          "velocity": 0.33070866141732286
        },
        {
          "duration": 0.18518499999998994,
          "durationTicks": 240,
          "midi": 33,
          "name": "A1",
          "ticks": 199440,
          "time": 153.88873500000003,
          "velocity": 0.3779527559055118
        },
        {
          "duration": 0.18518499999998994,
          "durationTicks": 240,
          "midi": 54,
          "name": "F#3",
          "ticks": 199440,
          "time": 153.88873500000003,
          "velocity": 0.2125984251968504
        },
        {
          "duration": 0.1543208333333439,
          "durationTicks": 200,
          "midi": 32,
          "name": "G#1",
          "ticks": 199680,
          "time": 154.07392000000002,
          "velocity": 0.3937007874015748
        },
        {
          "duration": 0.1543208333333439,
          "durationTicks": 200,
          "midi": 44,
          "name": "G#2",
          "ticks": 199680,
          "time": 154.07392000000002,
          "velocity": 0.3937007874015748
        },
        {
          "duration": 0.1543208333333439,
          "durationTicks": 200,
          "midi": 54,
          "name": "F#3",
          "ticks": 199680,
          "time": 154.07392000000002,
          "velocity": 0.2047244094488189
        },
        {
          "duration": 0.1543208333333439,
          "durationTicks": 200,
          "midi": 58,
          "name": "A#3",
          "ticks": 199680,
          "time": 154.07392000000002,
          "velocity": 0.28346456692913385
        },
        {
          "duration": 0.1543208333333439,
          "durationTicks": 200,
          "midi": 61,
          "name": "C#4",
          "ticks": 199680,
          "time": 154.07392000000002,
          "velocity": 0.47244094488188976
        },
        {
          "duration": 0.1543208333333439,
          "durationTicks": 200,
          "midi": 73,
          "name": "C#5",
          "ticks": 199680,
          "time": 154.07392000000002,
          "velocity": 0.47244094488188976
        },
        {
          "duration": 0.18518500000001836,
          "durationTicks": 240,
          "midi": 32,
          "name": "G#1",
          "ticks": 199920,
          "time": 154.259105,
          "velocity": 0.3464566929133858
        },
        {
          "duration": 0.18518499999998994,
          "durationTicks": 240,
          "midi": 61,
          "name": "C#4",
          "ticks": 200160,
          "time": 154.44429000000002,
          "velocity": 0.4645669291338583
        },
        {
          "duration": 0.3703700000000083,
          "durationTicks": 480,
          "midi": 32,
          "name": "G#1",
          "ticks": 200400,
          "time": 154.629475,
          "velocity": 0.3228346456692913
        },
        {
          "duration": 0.3703700000000083,
          "durationTicks": 480,
          "midi": 44,
          "name": "G#2",
          "ticks": 200400,
          "time": 154.629475,
          "velocity": 0.3464566929133858
        },
        {
          "duration": 0.33950583333333384,
          "durationTicks": 440,
          "midi": 54,
          "name": "F#3",
          "ticks": 200400,
          "time": 154.629475,
          "velocity": 0.23622047244094488
        },
        {
          "duration": 0.3703700000000083,
          "durationTicks": 480,
          "midi": 56,
          "name": "G#3",
          "ticks": 200400,
          "time": 154.629475,
          "velocity": 0.3464566929133858
        },
        {
          "duration": 0.3703700000000083,
          "durationTicks": 480,
          "midi": 59,
          "name": "B3",
          "ticks": 200400,
          "time": 154.629475,
          "velocity": 0.33858267716535434
        },
        {
          "duration": 0.33950583333333384,
          "durationTicks": 440,
          "midi": 63,
          "name": "D#4",
          "ticks": 200400,
          "time": 154.629475,
          "velocity": 0.2992125984251969
        },
        {
          "duration": 0.3703700000000083,
          "durationTicks": 480,
          "midi": 73,
          "name": "C#5",
          "ticks": 200400,
          "time": 154.629475,
          "velocity": 0.2992125984251969
        },
        {
          "duration": 0.3086416666666594,
          "durationTicks": 400,
          "midi": 71,
          "name": "B4",
          "ticks": 200520,
          "time": 154.7220675,
          "velocity": 0.7244094488188977
        },
        {
          "duration": 0.1543208333333439,
          "durationTicks": 200,
          "midi": 28,
          "name": "E1",
          "ticks": 200880,
          "time": 154.99984500000002,
          "velocity": 0.3228346456692913
        },
        {
          "duration": 0.2160491666666644,
          "durationTicks": 280,
          "midi": 56,
          "name": "G#3",
          "ticks": 200880,
          "time": 154.99984500000002,
          "velocity": 0.2440944881889764
        },
        {
          "duration": 0.2160491666666644,
          "durationTicks": 280,
          "midi": 59,
          "name": "B3",
          "ticks": 200880,
          "time": 154.99984500000002,
          "velocity": 0.5590551181102362
        },
        {
          "duration": 0.18518499999998994,
          "durationTicks": 240,
          "midi": 32,
          "name": "G#1",
          "ticks": 201120,
          "time": 155.18503,
          "velocity": 0.4015748031496063
        },
        {
          "duration": 0.18518499999998994,
          "durationTicks": 240,
          "midi": 54,
          "name": "F#3",
          "ticks": 201120,
          "time": 155.18503,
          "velocity": 0.2125984251968504
        },
        {
          "duration": 0.1543208333333439,
          "durationTicks": 200,
          "midi": 70,
          "name": "A#4",
          "ticks": 201120,
          "time": 155.18503,
          "velocity": 0.6141732283464567
        },
        {
          "duration": 0.18518500000001836,
          "durationTicks": 240,
          "midi": 34,
          "name": "A#1",
          "ticks": 201360,
          "time": 155.370215,
          "velocity": 0.3858267716535433
        },
        {
          "duration": 0.18518500000001836,
          "durationTicks": 240,
          "midi": 46,
          "name": "A#2",
          "ticks": 201360,
          "time": 155.370215,
          "velocity": 0.3779527559055118
        },
        {
          "duration": 0.18518499999998994,
          "durationTicks": 240,
          "midi": 35,
          "name": "B1",
          "ticks": 201600,
          "time": 155.55540000000002,
          "velocity": 0.3700787401574803
        },
        {
          "duration": 0.18518499999998994,
          "durationTicks": 240,
          "midi": 47,
          "name": "B2",
          "ticks": 201600,
          "time": 155.55540000000002,
          "velocity": 0.2677165354330709
        },
        {
          "duration": 0.18518499999998994,
          "durationTicks": 240,
          "midi": 53,
          "name": "F3",
          "ticks": 201600,
          "time": 155.55540000000002,
          "velocity": 0.2440944881889764
        },
        {
          "duration": 0.18518499999998994,
          "durationTicks": 240,
          "midi": 56,
          "name": "G#3",
          "ticks": 201600,
          "time": 155.55540000000002,
          "velocity": 0.2677165354330709
        },
        {
          "duration": 0.18518499999998994,
          "durationTicks": 240,
          "midi": 63,
          "name": "D#4",
          "ticks": 201600,
          "time": 155.55540000000002,
          "velocity": 0.3228346456692913
        },
        {
          "duration": 0.18518499999998994,
          "durationTicks": 240,
          "midi": 35,
          "name": "B1",
          "ticks": 201840,
          "time": 155.740585,
          "velocity": 0.41732283464566927
        },
        {
          "duration": 0.2160491666666644,
          "durationTicks": 280,
          "midi": 53,
          "name": "F3",
          "ticks": 202080,
          "time": 155.92577,
          "velocity": 0.23622047244094488
        },
        {
          "duration": 0.18518499999998994,
          "durationTicks": 240,
          "midi": 47,
          "name": "B2",
          "ticks": 202320,
          "time": 156.11095500000002,
          "velocity": 0.33070866141732286
        },
        {
          "duration": 0.18518499999998994,
          "durationTicks": 240,
          "midi": 56,
          "name": "G#3",
          "ticks": 202320,
          "time": 156.11095500000002,
          "velocity": 0.33858267716535434
        },
        {
          "duration": 0.1543208333333439,
          "durationTicks": 200,
          "midi": 63,
          "name": "D#4",
          "ticks": 202320,
          "time": 156.11095500000002,
          "velocity": 0.23622047244094488
        },
        {
          "duration": 0.18518499999998994,
          "durationTicks": 240,
          "midi": 65,
          "name": "F4",
          "ticks": 202320,
          "time": 156.11095500000002,
          "velocity": 0.29133858267716534
        },
        {
          "duration": 0.1543208333333439,
          "durationTicks": 200,
          "midi": 47,
          "name": "B2",
          "ticks": 202560,
          "time": 156.29614,
          "velocity": 0.3228346456692913
        },
        {
          "duration": 0.1543208333333439,
          "durationTicks": 200,
          "midi": 56,
          "name": "G#3",
          "ticks": 202560,
          "time": 156.29614,
          "velocity": 0.3228346456692913
        },
        {
          "duration": 0.2160491666666644,
          "durationTicks": 280,
          "midi": 66,
          "name": "F#4",
          "ticks": 202560,
          "time": 156.29614,
          "velocity": 0.4330708661417323
        },
        {
          "duration": 0.18518499999998994,
          "durationTicks": 240,
          "midi": 38,
          "name": "D2",
          "ticks": 202800,
          "time": 156.48132500000003,
          "velocity": 0.23622047244094488
        },
        {
          "duration": 0.18518499999998994,
          "durationTicks": 240,
          "midi": 44,
          "name": "G#2",
          "ticks": 203040,
          "time": 156.66651000000002,
          "velocity": 0.3228346456692913
        },
        {
          "duration": 0.18518499999998994,
          "durationTicks": 240,
          "midi": 56,
          "name": "G#3",
          "ticks": 203040,
          "time": 156.66651000000002,
          "velocity": 0.4566929133858268
        },
        {
          "duration": 0.18518499999998994,
          "durationTicks": 240,
          "midi": 68,
          "name": "G#4",
          "ticks": 203040,
          "time": 156.66651000000002,
          "velocity": 0.4566929133858268
        },
        {
          "duration": 0.18518500000001836,
          "durationTicks": 240,
          "midi": 45,
          "name": "A2",
          "ticks": 203280,
          "time": 156.851695,
          "velocity": 0.30708661417322836
        },
        {
          "duration": 0.12345666666666943,
          "durationTicks": 160,
          "midi": 66,
          "name": "F#4",
          "ticks": 203400,
          "time": 156.9442875,
          "velocity": 0.28346456692913385
        },
        {
          "duration": 0.18518499999998994,
          "durationTicks": 240,
          "midi": 46,
          "name": "A#2",
          "ticks": 203520,
          "time": 157.03688000000002,
          "velocity": 0.3543307086614173
        },
        {
          "duration": 0.18518499999998994,
          "durationTicks": 240,
          "midi": 50,
          "name": "D3",
          "ticks": 203520,
          "time": 157.03688000000002,
          "velocity": 0.3779527559055118
        },
        {
          "duration": 0.18518499999998994,
          "durationTicks": 240,
          "midi": 56,
          "name": "G#3",
          "ticks": 203520,
          "time": 157.03688000000002,
          "velocity": 0.4015748031496063
        },
        {
          "duration": 0.18518499999998994,
          "durationTicks": 240,
          "midi": 58,
          "name": "A#3",
          "ticks": 203520,
          "time": 157.03688000000002,
          "velocity": 0.3543307086614173
        },
        {
          "duration": 0.18518499999998994,
          "durationTicks": 240,
          "midi": 62,
          "name": "D4",
          "ticks": 203520,
          "time": 157.03688000000002,
          "velocity": 0.1968503937007874
        },
        {
          "duration": 0.18518499999998994,
          "durationTicks": 240,
          "midi": 67,
          "name": "G4",
          "ticks": 203520,
          "time": 157.03688000000002,
          "velocity": 0.2283464566929134
        },
        {
          "duration": 0.18518499999998994,
          "durationTicks": 240,
          "midi": 70,
          "name": "A#4",
          "ticks": 203520,
          "time": 157.03688000000002,
          "velocity": 0.25196850393700787
        },
        {
          "duration": 0.18518499999998994,
          "durationTicks": 240,
          "midi": 46,
          "name": "A#2",
          "ticks": 203760,
          "time": 157.22206500000001,
          "velocity": 0.30708661417322836
        },
        {
          "duration": 0.1543208333333439,
          "durationTicks": 200,
          "midi": 56,
          "name": "G#3",
          "ticks": 203760,
          "time": 157.22206500000001,
          "velocity": 0.2283464566929134
        },
        {
          "duration": 0.1543208333333439,
          "durationTicks": 200,
          "midi": 53,
          "name": "F3",
          "ticks": 204000,
          "time": 157.40725,
          "velocity": 0.28346456692913385
        },
        {
          "duration": 0.3703699999999799,
          "durationTicks": 480,
          "midi": 41,
          "name": "F2",
          "ticks": 204240,
          "time": 157.59243500000002,
          "velocity": 0.4251968503937008
        },
        {
          "duration": 0.3703699999999799,
          "durationTicks": 480,
          "midi": 56,
          "name": "G#3",
          "ticks": 204240,
          "time": 157.59243500000002,
          "velocity": 0.2440944881889764
        },
        {
          "duration": 0.3703699999999799,
          "durationTicks": 480,
          "midi": 66,
          "name": "F#4",
          "ticks": 204240,
          "time": 157.59243500000002,
          "velocity": 0.3228346456692913
        },
        {
          "duration": 0.3703699999999799,
          "durationTicks": 480,
          "midi": 71,
          "name": "B4",
          "ticks": 204240,
          "time": 157.59243500000002,
          "velocity": 0.47244094488188976
        },
        {
          "duration": 0.18518500000001836,
          "durationTicks": 240,
          "midi": 46,
          "name": "A#2",
          "ticks": 204720,
          "time": 157.962805,
          "velocity": 0.28346456692913385
        },
        {
          "duration": 0.18518499999998994,
          "durationTicks": 240,
          "midi": 41,
          "name": "F2",
          "ticks": 204960,
          "time": 158.14799000000002,
          "velocity": 0.4015748031496063
        },
        {
          "duration": 0.18518499999998994,
          "durationTicks": 240,
          "midi": 56,
          "name": "G#3",
          "ticks": 204960,
          "time": 158.14799000000002,
          "velocity": 0.2047244094488189
        },
        {
          "duration": 0.18518499999998994,
          "durationTicks": 240,
          "midi": 58,
          "name": "A#3",
          "ticks": 204960,
          "time": 158.14799000000002,
          "velocity": 0.3779527559055118
        },
        {
          "duration": 0.18518499999998994,
          "durationTicks": 240,
          "midi": 65,
          "name": "F4",
          "ticks": 204960,
          "time": 158.14799000000002,
          "velocity": 0.2440944881889764
        },
        {
          "duration": 0.18518499999998994,
          "durationTicks": 240,
          "midi": 70,
          "name": "A#4",
          "ticks": 204960,
          "time": 158.14799000000002,
          "velocity": 0.3779527559055118
        },
        {
          "duration": 0.18518499999998994,
          "durationTicks": 240,
          "midi": 40,
          "name": "E2",
          "ticks": 205200,
          "time": 158.333175,
          "velocity": 0.2992125984251969
        },
        {
          "duration": 0.2160491666666644,
          "durationTicks": 280,
          "midi": 39,
          "name": "D#2",
          "ticks": 205440,
          "time": 158.51836,
          "velocity": 0.33858267716535434
        },
        {
          "duration": 0.2160491666666644,
          "durationTicks": 280,
          "midi": 55,
          "name": "G3",
          "ticks": 205440,
          "time": 158.51836,
          "velocity": 0.18110236220472442
        },
        {
          "duration": 0.2160491666666644,
          "durationTicks": 280,
          "midi": 58,
          "name": "A#3",
          "ticks": 205440,
          "time": 158.51836,
          "velocity": 0.4015748031496063
        },
        {
          "duration": 0.1543208333333439,
          "durationTicks": 200,
          "midi": 60,
          "name": "C4",
          "ticks": 205440,
          "time": 158.51836,
          "velocity": 0.2204724409448819
        },
        {
          "duration": 0.1543208333333439,
          "durationTicks": 200,
          "midi": 64,
          "name": "E4",
          "ticks": 205440,
          "time": 158.51836,
          "velocity": 0.2992125984251969
        },
        {
          "duration": 0.1543208333333439,
          "durationTicks": 200,
          "midi": 70,
          "name": "A#4",
          "ticks": 205440,
          "time": 158.51836,
          "velocity": 0.5669291338582677
        },
        {
          "duration": 0.18518499999998994,
          "durationTicks": 240,
          "midi": 39,
          "name": "D#2",
          "ticks": 205680,
          "time": 158.70354500000002,
          "velocity": 0.4094488188976378
        },
        {
          "duration": 0.18518499999998994,
          "durationTicks": 240,
          "midi": 51,
          "name": "D#3",
          "ticks": 205680,
          "time": 158.70354500000002,
          "velocity": 0.3543307086614173
        },
        {
          "duration": 0.2160491666666644,
          "durationTicks": 280,
          "midi": 38,
          "name": "D2",
          "ticks": 205920,
          "time": 158.88873,
          "velocity": 0.2992125984251969
        },
        {
          "duration": 0.2160491666666644,
          "durationTicks": 280,
          "midi": 55,
          "name": "G3",
          "ticks": 205920,
          "time": 158.88873,
          "velocity": 0.2283464566929134
        },
        {
          "duration": 0.2160491666666644,
          "durationTicks": 280,
          "midi": 64,
          "name": "E4",
          "ticks": 205920,
          "time": 158.88873,
          "velocity": 0.25196850393700787
        },
        {
          "duration": 0.18518499999998994,
          "durationTicks": 240,
          "midi": 34,
          "name": "A#1",
          "ticks": 206160,
          "time": 159.07391500000003,
          "velocity": 0.4251968503937008
        },
        {
          "duration": 0.18518499999998994,
          "durationTicks": 240,
          "midi": 55,
          "name": "G3",
          "ticks": 206160,
          "time": 159.07391500000003,
          "velocity": 0.25196850393700787
        },
        {
          "duration": 0.18518499999998994,
          "durationTicks": 240,
          "midi": 63,
          "name": "D#4",
          "ticks": 206160,
          "time": 159.07391500000003,
          "velocity": 0.2204724409448819
        },
        {
          "duration": 0.18518499999998994,
          "durationTicks": 240,
          "midi": 58,
          "name": "A#3",
          "ticks": 206400,
          "time": 159.25910000000002,
          "velocity": 0.23622047244094488
        },
        {
          "duration": 0.18518500000001836,
          "durationTicks": 240,
          "midi": 39,
          "name": "D#2",
          "ticks": 206640,
          "time": 159.444285,
          "velocity": 0.2992125984251969
        },
        {
          "duration": 0.18518499999998994,
          "durationTicks": 240,
          "midi": 34,
          "name": "A#1",
          "ticks": 206880,
          "time": 159.62947000000003,
          "velocity": 0.3464566929133858
        },
        {
          "duration": 0.18518499999998994,
          "durationTicks": 240,
          "midi": 55,
          "name": "G3",
          "ticks": 206880,
          "time": 159.62947000000003,
          "velocity": 0.2047244094488189
        },
        {
          "duration": 0.18518499999998994,
          "durationTicks": 240,
          "midi": 58,
          "name": "A#3",
          "ticks": 206880,
          "time": 159.62947000000003,
          "velocity": 0.5275590551181102
        },
        {
          "duration": 0.18518499999998994,
          "durationTicks": 240,
          "midi": 61,
          "name": "C#4",
          "ticks": 206880,
          "time": 159.62947000000003,
          "velocity": 0.2204724409448819
        },
        {
          "duration": 0.18518499999998994,
          "durationTicks": 240,
          "midi": 70,
          "name": "A#4",
          "ticks": 206880,
          "time": 159.62947000000003,
          "velocity": 0.5826771653543307
        },
        {
          "duration": 0.18518499999998994,
          "durationTicks": 240,
          "midi": 85,
          "name": "C#6",
          "ticks": 206880,
          "time": 159.62947000000003,
          "velocity": 0.3858267716535433
        },
        {
          "duration": 0.18518499999998994,
          "durationTicks": 240,
          "midi": 33,
          "name": "A1",
          "ticks": 207120,
          "time": 159.81465500000002,
          "velocity": 0.3464566929133858
        },
        {
          "duration": 0.3703700000000083,
          "durationTicks": 480,
          "midi": 32,
          "name": "G#1",
          "ticks": 207360,
          "time": 159.99984,
          "velocity": 0.48031496062992124
        },
        {
          "duration": 0.3703700000000083,
          "durationTicks": 480,
          "midi": 44,
          "name": "G#2",
          "ticks": 207360,
          "time": 159.99984,
          "velocity": 0.36220472440944884
        },
        {
          "duration": 0.3703700000000083,
          "durationTicks": 480,
          "midi": 54,
          "name": "F#3",
          "ticks": 207360,
          "time": 159.99984,
          "velocity": 0.2440944881889764
        },
        {
          "duration": 0.3703700000000083,
          "durationTicks": 480,
          "midi": 59,
          "name": "B3",
          "ticks": 207360,
          "time": 159.99984,
          "velocity": 0.25984251968503935
        },
        {
          "duration": 0.3703700000000083,
          "durationTicks": 480,
          "midi": 63,
          "name": "D#4",
          "ticks": 207360,
          "time": 159.99984,
          "velocity": 0.2204724409448819
        },
        {
          "duration": 0.3703700000000083,
          "durationTicks": 480,
          "midi": 70,
          "name": "A#4",
          "ticks": 207360,
          "time": 159.99984,
          "velocity": 0.7952755905511811
        },
        {
          "duration": 0.3703700000000083,
          "durationTicks": 480,
          "midi": 87,
          "name": "D#6",
          "ticks": 207360,
          "time": 159.99984,
          "velocity": 0.30708661417322836
        },
        {
          "duration": 0.18518499999998994,
          "durationTicks": 240,
          "midi": 54,
          "name": "F#3",
          "ticks": 207840,
          "time": 160.37021000000001,
          "velocity": 0.25984251968503935
        },
        {
          "duration": 0.3703700000000083,
          "durationTicks": 480,
          "midi": 44,
          "name": "G#2",
          "ticks": 208080,
          "time": 160.555395,
          "velocity": 0.4645669291338583
        },
        {
          "duration": 0.3703700000000083,
          "durationTicks": 480,
          "midi": 70,
          "name": "A#4",
          "ticks": 208080,
          "time": 160.555395,
          "velocity": 0.6929133858267716
        },
        {
          "duration": 0.18518499999998994,
          "durationTicks": 240,
          "midi": 32,
          "name": "G#1",
          "ticks": 208560,
          "time": 160.925765,
          "velocity": 0.36220472440944884
        },
        {
          "duration": 0.18518499999998994,
          "durationTicks": 240,
          "midi": 44,
          "name": "G#2",
          "ticks": 208560,
          "time": 160.925765,
          "velocity": 0.3779527559055118
        },
        {
          "duration": 0.1543208333333439,
          "durationTicks": 200,
          "midi": 39,
          "name": "D#2",
          "ticks": 208800,
          "time": 161.11095,
          "velocity": 0.30708661417322836
        },
        {
          "duration": 0.1543208333333439,
          "durationTicks": 200,
          "midi": 63,
          "name": "D#4",
          "ticks": 208800,
          "time": 161.11095,
          "velocity": 0.2992125984251969
        },
        {
          "duration": 0.1543208333333439,
          "durationTicks": 200,
          "midi": 66,
          "name": "F#4",
          "ticks": 208800,
          "time": 161.11095,
          "velocity": 0.4251968503937008
        },
        {
          "duration": 0.18518499999998994,
          "durationTicks": 240,
          "midi": 32,
          "name": "G#1",
          "ticks": 209040,
          "time": 161.29613500000002,
          "velocity": 0.30708661417322836
        },
        {
          "duration": 0.18518499999998994,
          "durationTicks": 240,
          "midi": 63,
          "name": "D#4",
          "ticks": 209040,
          "time": 161.29613500000002,
          "velocity": 0.2677165354330709
        },
        {
          "duration": 0.1543208333333439,
          "durationTicks": 200,
          "midi": 34,
          "name": "A#1",
          "ticks": 209280,
          "time": 161.48132,
          "velocity": 0.4566929133858268
        },
        {
          "duration": 0.1543208333333439,
          "durationTicks": 200,
          "midi": 46,
          "name": "A#2",
          "ticks": 209280,
          "time": 161.48132,
          "velocity": 0.3858267716535433
        },
        {
          "duration": 0.1543208333333439,
          "durationTicks": 200,
          "midi": 56,
          "name": "G#3",
          "ticks": 209280,
          "time": 161.48132,
          "velocity": 0.1968503937007874
        },
        {
          "duration": 0.1543208333333439,
          "durationTicks": 200,
          "midi": 61,
          "name": "C#4",
          "ticks": 209280,
          "time": 161.48132,
          "velocity": 0.1889763779527559
        },
        {
          "duration": 0.1543208333333439,
          "durationTicks": 200,
          "midi": 65,
          "name": "F4",
          "ticks": 209280,
          "time": 161.48132,
          "velocity": 0.25984251968503935
        },
        {
          "duration": 0.1543208333333439,
          "durationTicks": 200,
          "midi": 68,
          "name": "G#4",
          "ticks": 209280,
          "time": 161.48132,
          "velocity": 0.25984251968503935
        },
        {
          "duration": 0.18518500000001836,
          "durationTicks": 240,
          "midi": 34,
          "name": "A#1",
          "ticks": 209520,
          "time": 161.666505,
          "velocity": 0.44881889763779526
        },
        {
          "duration": 0.18518500000001836,
          "durationTicks": 240,
          "midi": 61,
          "name": "C#4",
          "ticks": 209520,
          "time": 161.666505,
          "velocity": 0.2283464566929134
        },
        {
          "duration": 0.18518500000001836,
          "durationTicks": 240,
          "midi": 65,
          "name": "F4",
          "ticks": 209520,
          "time": 161.666505,
          "velocity": 0.44881889763779526
        },
        {
          "duration": 0.18518499999998994,
          "durationTicks": 240,
          "midi": 56,
          "name": "G#3",
          "ticks": 209760,
          "time": 161.85169000000002,
          "velocity": 0.3464566929133858
        },
        {
          "duration": 0.18518499999998994,
          "durationTicks": 240,
          "midi": 61,
          "name": "C#4",
          "ticks": 209760,
          "time": 161.85169000000002,
          "velocity": 0.2440944881889764
        },
        {
          "duration": 0.18518499999998994,
          "durationTicks": 240,
          "midi": 65,
          "name": "F4",
          "ticks": 209760,
          "time": 161.85169000000002,
          "velocity": 0.4566929133858268
        },
        {
          "duration": 0.18518500000001836,
          "durationTicks": 240,
          "midi": 41,
          "name": "F2",
          "ticks": 210000,
          "time": 162.036875,
          "velocity": 0.36220472440944884
        },
        {
          "duration": 0.18518500000001836,
          "durationTicks": 240,
          "midi": 61,
          "name": "C#4",
          "ticks": 210000,
          "time": 162.036875,
          "velocity": 0.2283464566929134
        },
        {
          "duration": 0.18518500000001836,
          "durationTicks": 240,
          "midi": 66,
          "name": "F#4",
          "ticks": 210000,
          "time": 162.036875,
          "velocity": 0.2992125984251969
        },
        {
          "duration": 0.1543208333333439,
          "durationTicks": 200,
          "midi": 70,
          "name": "A#4",
          "ticks": 210000,
          "time": 162.036875,
          "velocity": 0.5590551181102362
        },
        {
          "duration": 0.18518499999998994,
          "durationTicks": 240,
          "midi": 61,
          "name": "C#4",
          "ticks": 210240,
          "time": 162.22206000000003,
          "velocity": 0.2204724409448819
        },
        {
          "duration": 0.18518499999998994,
          "durationTicks": 240,
          "midi": 34,
          "name": "A#1",
          "ticks": 210480,
          "time": 162.40724500000002,
          "velocity": 0.3228346456692913
        },
        {
          "duration": 0.18518500000001836,
          "durationTicks": 240,
          "midi": 37,
          "name": "C#2",
          "ticks": 210720,
          "time": 162.59243,
          "velocity": 0.36220472440944884
        },
        {
          "duration": 0.18518500000001836,
          "durationTicks": 240,
          "midi": 61,
          "name": "C#4",
          "ticks": 210720,
          "time": 162.59243,
          "velocity": 0.2204724409448819
        },
        {
          "duration": 0.18518500000001836,
          "durationTicks": 240,
          "midi": 65,
          "name": "F4",
          "ticks": 210720,
          "time": 162.59243,
          "velocity": 0.3543307086614173
        },
        {
          "duration": 0.18518500000001836,
          "durationTicks": 240,
          "midi": 68,
          "name": "G#4",
          "ticks": 210720,
          "time": 162.59243,
          "velocity": 0.31496062992125984
        },
        {
          "duration": 0.18518500000001836,
          "durationTicks": 240,
          "midi": 71,
          "name": "B4",
          "ticks": 210720,
          "time": 162.59243,
          "velocity": 0.968503937007874
        },
        {
          "duration": 0.18518500000001836,
          "durationTicks": 240,
          "midi": 83,
          "name": "B5",
          "ticks": 210720,
          "time": 162.59243,
          "velocity": 0.968503937007874
        },
        {
          "duration": 0.15432083333331548,
          "durationTicks": 200,
          "midi": 61,
          "name": "C#4",
          "ticks": 210960,
          "time": 162.77761500000003,
          "velocity": 0.2047244094488189
        },
        {
          "duration": 0.18518499999998994,
          "durationTicks": 240,
          "midi": 35,
          "name": "B1",
          "ticks": 211200,
          "time": 162.96280000000002,
          "velocity": 0.4566929133858268
        },
        {
          "duration": 0.18518499999998994,
          "durationTicks": 240,
          "midi": 57,
          "name": "A3",
          "ticks": 211200,
          "time": 162.96280000000002,
          "velocity": 0.2204724409448819
        },
        {
          "duration": 0.18518499999998994,
          "durationTicks": 240,
          "midi": 62,
          "name": "D4",
          "ticks": 211200,
          "time": 162.96280000000002,
          "velocity": 0.18110236220472442
        },
        {
          "duration": 0.18518499999998994,
          "durationTicks": 240,
          "midi": 66,
          "name": "F#4",
          "ticks": 211200,
          "time": 162.96280000000002,
          "velocity": 0.2440944881889764
        },
        {
          "duration": 0.18518499999998994,
          "durationTicks": 240,
          "midi": 69,
          "name": "A4",
          "ticks": 211200,
          "time": 162.96280000000002,
          "velocity": 0.2992125984251969
        },
        {
          "duration": 0.18518500000001836,
          "durationTicks": 240,
          "midi": 35,
          "name": "B1",
          "ticks": 211440,
          "time": 163.147985,
          "velocity": 0.4566929133858268
        },
        {
          "duration": 0.1543208333333439,
          "durationTicks": 200,
          "midi": 54,
          "name": "F#3",
          "ticks": 211680,
          "time": 163.33317000000002,
          "velocity": 0.29133858267716534
        },
        {
          "duration": 0.3703700000000083,
          "durationTicks": 480,
          "midi": 42,
          "name": "F#2",
          "ticks": 211920,
          "time": 163.518355,
          "velocity": 0.36220472440944884
        },
        {
          "duration": 0.18518499999998994,
          "durationTicks": 240,
          "midi": 35,
          "name": "B1",
          "ticks": 212400,
          "time": 163.88872500000002,
          "velocity": 0.33858267716535434
        },
        {
          "duration": 0.18518499999998994,
          "durationTicks": 240,
          "midi": 42,
          "name": "F#2",
          "ticks": 212640,
          "time": 164.07391,
          "velocity": 0.3700787401574803
        },
        {
          "duration": 0.18518500000001836,
          "durationTicks": 240,
          "midi": 41,
          "name": "F2",
          "ticks": 212880,
          "time": 164.259095,
          "velocity": 0.3543307086614173
        },
        {
          "duration": 0.2160491666666644,
          "durationTicks": 280,
          "midi": 40,
          "name": "E2",
          "ticks": 213120,
          "time": 164.44428000000002,
          "velocity": 0.3779527559055118
        },
        {
          "duration": 0.18518499999998994,
          "durationTicks": 240,
          "midi": 66,
          "name": "F#4",
          "ticks": 213120,
          "time": 164.44428000000002,
          "velocity": 0.48031496062992124
        },
        {
          "duration": 0.18518499999998994,
          "durationTicks": 240,
          "midi": 69,
          "name": "A4",
          "ticks": 213120,
          "time": 164.44428000000002,
          "velocity": 0.2125984251968504
        },
        {
          "duration": 0.18518499999998994,
          "durationTicks": 240,
          "midi": 73,
          "name": "C#5",
          "ticks": 213120,
          "time": 164.44428000000002,
          "velocity": 0.29133858267716534
        },
        {
          "duration": 0.18518499999998994,
          "durationTicks": 240,
          "midi": 40,
          "name": "E2",
          "ticks": 213360,
          "time": 164.629465,
          "velocity": 0.3779527559055118
        },
        {
          "duration": 0.1543208333333439,
          "durationTicks": 200,
          "midi": 57,
          "name": "A3",
          "ticks": 213600,
          "time": 164.81465,
          "velocity": 0.31496062992125984
        },
        {
          "duration": 0.2160491666666644,
          "durationTicks": 280,
          "midi": 28,
          "name": "E1",
          "ticks": 213840,
          "time": 164.99983500000002,
          "velocity": 0.3543307086614173
        },
        {
          "duration": 0.18518500000001836,
          "durationTicks": 240,
          "midi": 61,
          "name": "C#4",
          "ticks": 214080,
          "time": 165.18502,
          "velocity": 0.31496062992125984
        },
        {
          "duration": 0.18518500000001836,
          "durationTicks": 240,
          "midi": 66,
          "name": "F#4",
          "ticks": 214080,
          "time": 165.18502,
          "velocity": 0.2677165354330709
        },
        {
          "duration": 0.18518500000001836,
          "durationTicks": 240,
          "midi": 69,
          "name": "A4",
          "ticks": 214080,
          "time": 165.18502,
          "velocity": 0.2755905511811024
        },
        {
          "duration": 0.18518500000001836,
          "durationTicks": 240,
          "midi": 76,
          "name": "E5",
          "ticks": 214080,
          "time": 165.18502,
          "velocity": 0.2283464566929134
        },
        {
          "duration": 0.18518499999998994,
          "durationTicks": 240,
          "midi": 28,
          "name": "E1",
          "ticks": 214320,
          "time": 165.37020500000003,
          "velocity": 0.30708661417322836
        },
        {
          "duration": 0.1543208333333439,
          "durationTicks": 200,
          "midi": 35,
          "name": "B1",
          "ticks": 214560,
          "time": 165.55539000000002,
          "velocity": 0.30708661417322836
        },
        {
          "duration": 0.18518500000001836,
          "durationTicks": 240,
          "midi": 34,
          "name": "A#1",
          "ticks": 214800,
          "time": 165.740575,
          "velocity": 0.2992125984251969
        },
        {
          "duration": 0.18518500000001836,
          "durationTicks": 240,
          "midi": 61,
          "name": "C#4",
          "ticks": 214800,
          "time": 165.740575,
          "velocity": 0.1968503937007874
        },
        {
          "duration": 0.18518499999998994,
          "durationTicks": 240,
          "midi": 33,
          "name": "A1",
          "ticks": 215040,
          "time": 165.92576000000003,
          "velocity": 0.41732283464566927
        },
        {
          "duration": 0.18518499999998994,
          "durationTicks": 240,
          "midi": 52,
          "name": "E3",
          "ticks": 215040,
          "time": 165.92576000000003,
          "velocity": 0.3779527559055118
        },
        {
          "duration": 0.18518499999998994,
          "durationTicks": 240,
          "midi": 56,
          "name": "G#3",
          "ticks": 215040,
          "time": 165.92576000000003,
          "velocity": 0.2125984251968504
        },
        {
          "duration": 0.18518499999998994,
          "durationTicks": 240,
          "midi": 59,
          "name": "B3",
          "ticks": 215040,
          "time": 165.92576000000003,
          "velocity": 0.48031496062992124
        },
        {
          "duration": 0.18518499999998994,
          "durationTicks": 240,
          "midi": 61,
          "name": "C#4",
          "ticks": 215040,
          "time": 165.92576000000003,
          "velocity": 0.2283464566929134
        },
        {
          "duration": 0.18518499999998994,
          "durationTicks": 240,
          "midi": 68,
          "name": "G#4",
          "ticks": 215040,
          "time": 165.92576000000003,
          "velocity": 0.2992125984251969
        },
        {
          "duration": 0.18518499999998994,
          "durationTicks": 240,
          "midi": 71,
          "name": "B4",
          "ticks": 215040,
          "time": 165.92576000000003,
          "velocity": 0.48031496062992124
        },
        {
          "duration": 0.3703700000000083,
          "durationTicks": 480,
          "midi": 45,
          "name": "A2",
          "ticks": 215280,
          "time": 166.11094500000002,
          "velocity": 0.4015748031496063
        },
        {
          "duration": 0.18518499999998994,
          "durationTicks": 240,
          "midi": 52,
          "name": "E3",
          "ticks": 215760,
          "time": 166.48131500000002,
          "velocity": 0.25984251968503935
        },
        {
          "duration": 0.18518499999998994,
          "durationTicks": 240,
          "midi": 56,
          "name": "G#3",
          "ticks": 215760,
          "time": 166.48131500000002,
          "velocity": 0.31496062992125984
        },
        {
          "duration": 0.18518499999998994,
          "durationTicks": 240,
          "midi": 61,
          "name": "C#4",
          "ticks": 215760,
          "time": 166.48131500000002,
          "velocity": 0.3937007874015748
        },
        {
          "duration": 0.18518499999998994,
          "durationTicks": 240,
          "midi": 64,
          "name": "E4",
          "ticks": 215760,
          "time": 166.48131500000002,
          "velocity": 0.3228346456692913
        },
        {
          "duration": 0.18518499999998994,
          "durationTicks": 240,
          "midi": 74,
          "name": "D5",
          "ticks": 215760,
          "time": 166.48131500000002,
          "velocity": 0.6692913385826772
        },
        {
          "duration": 0.18518499999998994,
          "durationTicks": 240,
          "midi": 54,
          "name": "F#3",
          "ticks": 216000,
          "time": 166.6665,
          "velocity": 0.28346456692913385
        },
        {
          "duration": 0.18518500000001836,
          "durationTicks": 240,
          "midi": 56,
          "name": "G#3",
          "ticks": 216240,
          "time": 166.851685,
          "velocity": 0.33858267716535434
        },
        {
          "duration": 0.18518500000001836,
          "durationTicks": 240,
          "midi": 59,
          "name": "B3",
          "ticks": 216240,
          "time": 166.851685,
          "velocity": 0.2204724409448819
        },
        {
          "duration": 0.18518500000001836,
          "durationTicks": 240,
          "midi": 61,
          "name": "C#4",
          "ticks": 216240,
          "time": 166.851685,
          "velocity": 0.4566929133858268
        },
        {
          "duration": 0.18518499999998994,
          "durationTicks": 240,
          "midi": 52,
          "name": "E3",
          "ticks": 216480,
          "time": 167.03687000000002,
          "velocity": 0.2992125984251969
        },
        {
          "duration": 0.18518499999998994,
          "durationTicks": 240,
          "midi": 73,
          "name": "C#5",
          "ticks": 216480,
          "time": 167.03687000000002,
          "velocity": 0.5669291338582677
        },
        {
          "duration": 0.18518499999998994,
          "durationTicks": 240,
          "midi": 33,
          "name": "A1",
          "ticks": 216720,
          "time": 167.222055,
          "velocity": 0.2204724409448819
        },
        {
          "duration": 0.1543208333333439,
          "durationTicks": 200,
          "midi": 61,
          "name": "C#4",
          "ticks": 216720,
          "time": 167.222055,
          "velocity": 0.5748031496062992
        },
        {
          "duration": 0.43209833333335723,
          "durationTicks": 560,
          "midi": 57,
          "name": "A3",
          "ticks": 216840,
          "time": 167.3146475,
          "velocity": 0.2440944881889764
        },
        {
          "duration": 0.43209833333335723,
          "durationTicks": 560,
          "midi": 69,
          "name": "A4",
          "ticks": 216840,
          "time": 167.3146475,
          "velocity": 0.2440944881889764
        },
        {
          "duration": 0.3703700000000083,
          "durationTicks": 480,
          "midi": 38,
          "name": "D2",
          "ticks": 216960,
          "time": 167.40724,
          "velocity": 0.3858267716535433
        },
        {
          "duration": 0.3703700000000083,
          "durationTicks": 480,
          "midi": 52,
          "name": "E3",
          "ticks": 216960,
          "time": 167.40724,
          "velocity": 0.25196850393700787
        },
        {
          "duration": 0.3703700000000083,
          "durationTicks": 480,
          "midi": 54,
          "name": "F#3",
          "ticks": 216960,
          "time": 167.40724,
          "velocity": 0.2440944881889764
        },
        {
          "duration": 0.3703700000000083,
          "durationTicks": 480,
          "midi": 61,
          "name": "C#4",
          "ticks": 216960,
          "time": 167.40724,
          "velocity": 0.6062992125984252
        },
        {
          "duration": 0.3703700000000083,
          "durationTicks": 480,
          "midi": 64,
          "name": "E4",
          "ticks": 216960,
          "time": 167.40724,
          "velocity": 0.2283464566929134
        },
        {
          "duration": 0.40123416666668277,
          "durationTicks": 520,
          "midi": 66,
          "name": "F#4",
          "ticks": 216960,
          "time": 167.40724,
          "velocity": 0.2204724409448819
        },
        {
          "duration": 0.40123416666668277,
          "durationTicks": 520,
          "midi": 85,
          "name": "C#6",
          "ticks": 216960,
          "time": 167.40724,
          "velocity": 0.2283464566929134
        },
        {
          "duration": 0.3086416666666594,
          "durationTicks": 400,
          "midi": 73,
          "name": "C#5",
          "ticks": 217080,
          "time": 167.49983250000002,
          "velocity": 0.6299212598425197
        },
        {
          "duration": 0.1543208333333439,
          "durationTicks": 200,
          "midi": 57,
          "name": "A3",
          "ticks": 217440,
          "time": 167.77761,
          "velocity": 0.30708661417322836
        },
        {
          "duration": 0.1543208333333439,
          "durationTicks": 200,
          "midi": 73,
          "name": "C#5",
          "ticks": 217440,
          "time": 167.77761,
          "velocity": 0.25984251968503935
        },
        {
          "duration": 0.18518499999998994,
          "durationTicks": 240,
          "midi": 47,
          "name": "B2",
          "ticks": 217680,
          "time": 167.96279500000003,
          "velocity": 0.28346456692913385
        },
        {
          "duration": 0.18518499999998994,
          "durationTicks": 240,
          "midi": 69,
          "name": "A4",
          "ticks": 217680,
          "time": 167.96279500000003,
          "velocity": 0.5984251968503937
        },
        {
          "duration": 0.18518499999998994,
          "durationTicks": 240,
          "midi": 45,
          "name": "A2",
          "ticks": 217920,
          "time": 168.14798000000002,
          "velocity": 0.25984251968503935
        },
        {
          "duration": 0.18518499999998994,
          "durationTicks": 240,
          "midi": 69,
          "name": "A4",
          "ticks": 217920,
          "time": 168.14798000000002,
          "velocity": 0.5354330708661418
        },
        {
          "duration": 0.18518500000001836,
          "durationTicks": 240,
          "midi": 42,
          "name": "F#2",
          "ticks": 218160,
          "time": 168.333165,
          "velocity": 0.30708661417322836
        },
        {
          "duration": 0.24691333333333887,
          "durationTicks": 320,
          "midi": 71,
          "name": "B4",
          "ticks": 218280,
          "time": 168.4257575,
          "velocity": 0.5354330708661418
        },
        {
          "duration": 0.18518499999998994,
          "durationTicks": 240,
          "midi": 50,
          "name": "D3",
          "ticks": 218400,
          "time": 168.51835000000003,
          "velocity": 0.33070866141732286
        },
        {
          "duration": 0.18518499999998994,
          "durationTicks": 240,
          "midi": 57,
          "name": "A3",
          "ticks": 218400,
          "time": 168.51835000000003,
          "velocity": 0.4566929133858268
        },
        {
          "duration": 0.18518499999998994,
          "durationTicks": 240,
          "midi": 33,
          "name": "A1",
          "ticks": 218640,
          "time": 168.70353500000002,
          "velocity": 0.29133858267716534
        },
        {
          "duration": 0.43209833333335723,
          "durationTicks": 560,
          "midi": 71,
          "name": "B4",
          "ticks": 218760,
          "time": 168.7961275,
          "velocity": 0.4251968503937008
        },
        {
          "duration": 0.40123416666665435,
          "durationTicks": 520,
          "midi": 32,
          "name": "G#1",
          "ticks": 218880,
          "time": 168.88872,
          "velocity": 0.4566929133858268
        },
        {
          "duration": 0.40123416666665435,
          "durationTicks": 520,
          "midi": 44,
          "name": "G#2",
          "ticks": 218880,
          "time": 168.88872,
          "velocity": 0.2992125984251969
        },
        {
          "duration": 0.40123416666665435,
          "durationTicks": 520,
          "midi": 54,
          "name": "F#3",
          "ticks": 218880,
          "time": 168.88872,
          "velocity": 0.2992125984251969
        },
        {
          "duration": 0.40123416666665435,
          "durationTicks": 520,
          "midi": 59,
          "name": "B3",
          "ticks": 218880,
          "time": 168.88872,
          "velocity": 0.4330708661417323
        },
        {
          "duration": 0.33950583333336226,
          "durationTicks": 440,
          "midi": 66,
          "name": "F#4",
          "ticks": 218880,
          "time": 168.88872,
          "velocity": 0.33858267716535434
        },
        {
          "duration": 0.33950583333336226,
          "durationTicks": 440,
          "midi": 73,
          "name": "C#5",
          "ticks": 218880,
          "time": 168.88872,
          "velocity": 0.2204724409448819
        },
        {
          "duration": 0.33950583333336226,
          "durationTicks": 440,
          "midi": 78,
          "name": "F#5",
          "ticks": 218880,
          "time": 168.88872,
          "velocity": 0.3858267716535433
        },
        {
          "duration": 0.2160491666666644,
          "durationTicks": 280,
          "midi": 44,
          "name": "G#2",
          "ticks": 219360,
          "time": 169.25909000000001,
          "velocity": 0.4251968503937008
        },
        {
          "duration": 0.18518499999998994,
          "durationTicks": 240,
          "midi": 66,
          "name": "F#4",
          "ticks": 219360,
          "time": 169.25909000000001,
          "velocity": 0.4566929133858268
        },
        {
          "duration": 0.3703700000000083,
          "durationTicks": 480,
          "midi": 39,
          "name": "D#2",
          "ticks": 219600,
          "time": 169.444275,
          "velocity": 0.31496062992125984
        },
        {
          "duration": 0.3703700000000083,
          "durationTicks": 480,
          "midi": 59,
          "name": "B3",
          "ticks": 219600,
          "time": 169.444275,
          "velocity": 0.23622047244094488
        },
        {
          "duration": 0.18518499999998994,
          "durationTicks": 240,
          "midi": 32,
          "name": "G#1",
          "ticks": 220080,
          "time": 169.814645,
          "velocity": 0.3543307086614173
        },
        {
          "duration": 0.18518500000001836,
          "durationTicks": 240,
          "midi": 39,
          "name": "D#2",
          "ticks": 220320,
          "time": 169.99983,
          "velocity": 0.30708661417322836
        },
        {
          "duration": 0.18518500000001836,
          "durationTicks": 240,
          "midi": 71,
          "name": "B4",
          "ticks": 220320,
          "time": 169.99983,
          "velocity": 0.3228346456692913
        },
        {
          "duration": 0.18518499999998994,
          "durationTicks": 240,
          "midi": 32,
          "name": "G#1",
          "ticks": 220560,
          "time": 170.18501500000002,
          "velocity": 0.33858267716535434
        },
        {
          "duration": 0.18518499999998994,
          "durationTicks": 240,
          "midi": 44,
          "name": "G#2",
          "ticks": 220560,
          "time": 170.18501500000002,
          "velocity": 0.33858267716535434
        },
        {
          "duration": 0.18518499999998994,
          "durationTicks": 240,
          "midi": 34,
          "name": "A#1",
          "ticks": 220800,
          "time": 170.3702,
          "velocity": 0.3937007874015748
        },
        {
          "duration": 0.18518499999998994,
          "durationTicks": 240,
          "midi": 46,
          "name": "A#2",
          "ticks": 220800,
          "time": 170.3702,
          "velocity": 0.3937007874015748
        },
        {
          "duration": 0.18518499999998994,
          "durationTicks": 240,
          "midi": 53,
          "name": "F3",
          "ticks": 220800,
          "time": 170.3702,
          "velocity": 0.28346456692913385
        },
        {
          "duration": 0.18518499999998994,
          "durationTicks": 240,
          "midi": 56,
          "name": "G#3",
          "ticks": 220800,
          "time": 170.3702,
          "velocity": 0.36220472440944884
        },
        {
          "duration": 0.18518499999998994,
          "durationTicks": 240,
          "midi": 65,
          "name": "F4",
          "ticks": 220800,
          "time": 170.3702,
          "velocity": 0.2047244094488189
        },
        {
          "duration": 0.18518499999998994,
          "durationTicks": 240,
          "midi": 68,
          "name": "G#4",
          "ticks": 220800,
          "time": 170.3702,
          "velocity": 0.36220472440944884
        },
        {
          "duration": 0.18518499999998994,
          "durationTicks": 240,
          "midi": 73,
          "name": "C#5",
          "ticks": 220800,
          "time": 170.3702,
          "velocity": 0.6299212598425197
        },
        {
          "duration": 0.18518499999998994,
          "durationTicks": 240,
          "midi": 77,
          "name": "F5",
          "ticks": 220800,
          "time": 170.3702,
          "velocity": 0.2047244094488189
        },
        {
          "duration": 0.18518499999998994,
          "durationTicks": 240,
          "midi": 80,
          "name": "G#5",
          "ticks": 220800,
          "time": 170.3702,
          "velocity": 0.3228346456692913
        },
        {
          "duration": 0.18518500000001836,
          "durationTicks": 240,
          "midi": 34,
          "name": "A#1",
          "ticks": 221040,
          "time": 170.555385,
          "velocity": 0.3779527559055118
        },
        {
          "duration": 0.18518500000001836,
          "durationTicks": 240,
          "midi": 68,
          "name": "G#4",
          "ticks": 221040,
          "time": 170.555385,
          "velocity": 0.3779527559055118
        },
        {
          "duration": 0.18518500000001836,
          "durationTicks": 240,
          "midi": 73,
          "name": "C#5",
          "ticks": 221040,
          "time": 170.555385,
          "velocity": 0.5826771653543307
        },
        {
          "duration": 0.2160491666666644,
          "durationTicks": 280,
          "midi": 77,
          "name": "F5",
          "ticks": 221280,
          "time": 170.74057000000002,
          "velocity": 0.2755905511811024
        },
        {
          "duration": 0.3703700000000083,
          "durationTicks": 480,
          "midi": 41,
          "name": "F2",
          "ticks": 221520,
          "time": 170.925755,
          "velocity": 0.3464566929133858
        },
        {
          "duration": 0.18518499999998994,
          "durationTicks": 240,
          "midi": 34,
          "name": "A#1",
          "ticks": 222000,
          "time": 171.29612500000002,
          "velocity": 0.4330708661417323
        },
        {
          "duration": 0.18518499999998994,
          "durationTicks": 240,
          "midi": 46,
          "name": "A#2",
          "ticks": 222000,
          "time": 171.29612500000002,
          "velocity": 0.4330708661417323
        },
        {
          "duration": 0.18518499999998994,
          "durationTicks": 240,
          "midi": 66,
          "name": "F#4",
          "ticks": 222000,
          "time": 171.29612500000002,
          "velocity": 0.2204724409448819
        },
        {
          "duration": 0.18518499999998994,
          "durationTicks": 240,
          "midi": 71,
          "name": "B4",
          "ticks": 222000,
          "time": 171.29612500000002,
          "velocity": 0.2204724409448819
        },
        {
          "duration": 0.18518500000001836,
          "durationTicks": 240,
          "midi": 41,
          "name": "F2",
          "ticks": 222240,
          "time": 171.48131,
          "velocity": 0.30708661417322836
        },
        {
          "duration": 0.18518500000001836,
          "durationTicks": 240,
          "midi": 56,
          "name": "G#3",
          "ticks": 222240,
          "time": 171.48131,
          "velocity": 0.44881889763779526
        },
        {
          "duration": 0.18518500000001836,
          "durationTicks": 240,
          "midi": 71,
          "name": "B4",
          "ticks": 222240,
          "time": 171.48131,
          "velocity": 0.2204724409448819
        },
        {
          "duration": 0.18518499999998994,
          "durationTicks": 240,
          "midi": 34,
          "name": "A#1",
          "ticks": 222480,
          "time": 171.66649500000003,
          "velocity": 0.4015748031496063
        },
        {
          "duration": 0.18518499999998994,
          "durationTicks": 240,
          "midi": 68,
          "name": "G#4",
          "ticks": 222480,
          "time": 171.66649500000003,
          "velocity": 0.29133858267716534
        },
        {
          "duration": 0.3703700000000083,
          "durationTicks": 480,
          "midi": 35,
          "name": "B1",
          "ticks": 222720,
          "time": 171.85168000000002,
          "velocity": 0.36220472440944884
        },
        {
          "duration": 0.3703700000000083,
          "durationTicks": 480,
          "midi": 50,
          "name": "D3",
          "ticks": 222720,
          "time": 171.85168000000002,
          "velocity": 0.25984251968503935
        },
        {
          "duration": 0.3703700000000083,
          "durationTicks": 480,
          "midi": 54,
          "name": "F#3",
          "ticks": 222720,
          "time": 171.85168000000002,
          "velocity": 0.28346456692913385
        },
        {
          "duration": 0.3703700000000083,
          "durationTicks": 480,
          "midi": 57,
          "name": "A3",
          "ticks": 222720,
          "time": 171.85168000000002,
          "velocity": 0.30708661417322836
        },
        {
          "duration": 0.3703700000000083,
          "durationTicks": 480,
          "midi": 61,
          "name": "C#4",
          "ticks": 222720,
          "time": 171.85168000000002,
          "velocity": 0.4645669291338583
        },
        {
          "duration": 0.3703700000000083,
          "durationTicks": 480,
          "midi": 62,
          "name": "D4",
          "ticks": 222720,
          "time": 171.85168000000002,
          "velocity": 0.2992125984251969
        },
        {
          "duration": 0.3703700000000083,
          "durationTicks": 480,
          "midi": 66,
          "name": "F#4",
          "ticks": 222720,
          "time": 171.85168000000002,
          "velocity": 0.28346456692913385
        },
        {
          "duration": 0.18518499999998994,
          "durationTicks": 240,
          "midi": 42,
          "name": "F#2",
          "ticks": 223200,
          "time": 172.22205000000002,
          "velocity": 0.3228346456692913
        },
        {
          "duration": 0.18518499999998994,
          "durationTicks": 240,
          "midi": 54,
          "name": "F#3",
          "ticks": 223200,
          "time": 172.22205000000002,
          "velocity": 0.2677165354330709
        },
        {
          "duration": 0.18518499999998994,
          "durationTicks": 240,
          "midi": 61,
          "name": "C#4",
          "ticks": 223200,
          "time": 172.22205000000002,
          "velocity": 0.48031496062992124
        },
        {
          "duration": 0.18518499999998994,
          "durationTicks": 240,
          "midi": 66,
          "name": "F#4",
          "ticks": 223200,
          "time": 172.22205000000002,
          "velocity": 0.2283464566929134
        },
        {
          "duration": 0.18518499999998994,
          "durationTicks": 240,
          "midi": 69,
          "name": "A4",
          "ticks": 223200,
          "time": 172.22205000000002,
          "velocity": 0.29133858267716534
        },
        {
          "duration": 0.18518499999998994,
          "durationTicks": 240,
          "midi": 73,
          "name": "C#5",
          "ticks": 223200,
          "time": 172.22205000000002,
          "velocity": 0.48031496062992124
        },
        {
          "duration": 0.33950583333333384,
          "durationTicks": 440,
          "midi": 47,
          "name": "B2",
          "ticks": 223440,
          "time": 172.40723500000001,
          "velocity": 0.4251968503937008
        },
        {
          "duration": 0.40123416666665435,
          "durationTicks": 520,
          "midi": 57,
          "name": "A3",
          "ticks": 223440,
          "time": 172.40723500000001,
          "velocity": 0.2677165354330709
        },
        {
          "duration": 0.40123416666665435,
          "durationTicks": 520,
          "midi": 59,
          "name": "B3",
          "ticks": 223440,
          "time": 172.40723500000001,
          "velocity": 0.33858267716535434
        },
        {
          "duration": 0.40123416666665435,
          "durationTicks": 520,
          "midi": 71,
          "name": "B4",
          "ticks": 223440,
          "time": 172.40723500000001,
          "velocity": 0.3464566929133858
        },
        {
          "duration": 0.33950583333333384,
          "durationTicks": 440,
          "midi": 42,
          "name": "F#2",
          "ticks": 223920,
          "time": 172.77760500000002,
          "velocity": 0.4409448818897638
        },
        {
          "duration": 0.33950583333333384,
          "durationTicks": 440,
          "midi": 54,
          "name": "F#3",
          "ticks": 223920,
          "time": 172.77760500000002,
          "velocity": 0.36220472440944884
        },
        {
          "duration": 0.33950583333333384,
          "durationTicks": 440,
          "midi": 57,
          "name": "A3",
          "ticks": 223920,
          "time": 172.77760500000002,
          "velocity": 0.2992125984251969
        },
        {
          "duration": 0.33950583333333384,
          "durationTicks": 440,
          "midi": 61,
          "name": "C#4",
          "ticks": 223920,
          "time": 172.77760500000002,
          "velocity": 0.5433070866141733
        },
        {
          "duration": 0.33950583333333384,
          "durationTicks": 440,
          "midi": 64,
          "name": "E4",
          "ticks": 223920,
          "time": 172.77760500000002,
          "velocity": 0.30708661417322836
        },
        {
          "duration": 0.33950583333333384,
          "durationTicks": 440,
          "midi": 69,
          "name": "A4",
          "ticks": 223920,
          "time": 172.77760500000002,
          "velocity": 0.2992125984251969
        },
        {
          "duration": 0.33950583333333384,
          "durationTicks": 440,
          "midi": 73,
          "name": "C#5",
          "ticks": 223920,
          "time": 172.77760500000002,
          "velocity": 0.5433070866141733
        },
        {
          "duration": 0.33950583333336226,
          "durationTicks": 440,
          "midi": 40,
          "name": "E2",
          "ticks": 224400,
          "time": 173.147975,
          "velocity": 0.4330708661417323
        },
        {
          "duration": 0.33950583333336226,
          "durationTicks": 440,
          "midi": 54,
          "name": "F#3",
          "ticks": 224400,
          "time": 173.147975,
          "velocity": 0.3228346456692913
        },
        {
          "duration": 0.33950583333336226,
          "durationTicks": 440,
          "midi": 57,
          "name": "A3",
          "ticks": 224400,
          "time": 173.147975,
          "velocity": 0.31496062992125984
        },
        {
          "duration": 0.33950583333336226,
          "durationTicks": 440,
          "midi": 61,
          "name": "C#4",
          "ticks": 224400,
          "time": 173.147975,
          "velocity": 0.7007874015748031
        },
        {
          "duration": 0.33950583333336226,
          "durationTicks": 440,
          "midi": 62,
          "name": "D4",
          "ticks": 224400,
          "time": 173.147975,
          "velocity": 0.5826771653543307
        },
        {
          "duration": 0.33950583333336226,
          "durationTicks": 440,
          "midi": 66,
          "name": "F#4",
          "ticks": 224400,
          "time": 173.147975,
          "velocity": 0.30708661417322836
        },
        {
          "duration": 0.33950583333336226,
          "durationTicks": 440,
          "midi": 69,
          "name": "A4",
          "ticks": 224400,
          "time": 173.147975,
          "velocity": 0.31496062992125984
        },
        {
          "duration": 0.40123416666668277,
          "durationTicks": 520,
          "midi": 73,
          "name": "C#5",
          "ticks": 224400,
          "time": 173.147975,
          "velocity": 0.7007874015748031
        },
        {
          "duration": 0.33950583333336226,
          "durationTicks": 440,
          "midi": 74,
          "name": "D5",
          "ticks": 224400,
          "time": 173.147975,
          "velocity": 0.5826771653543307
        },
        {
          "duration": 0.18518500000001836,
          "durationTicks": 240,
          "midi": 40,
          "name": "E2",
          "ticks": 224880,
          "time": 173.518345,
          "velocity": 0.4015748031496063
        },
        {
          "duration": 0.21604916666663598,
          "durationTicks": 280,
          "midi": 57,
          "name": "A3",
          "ticks": 225120,
          "time": 173.70353000000003,
          "velocity": 0.28346456692913385
        },
        {
          "duration": 0.18518499999998994,
          "durationTicks": 240,
          "midi": 35,
          "name": "B1",
          "ticks": 225360,
          "time": 173.88871500000002,
          "velocity": 0.31496062992125984
        },
        {
          "duration": 0.40123416666665435,
          "durationTicks": 520,
          "midi": 34,
          "name": "A#1",
          "ticks": 225600,
          "time": 174.0739,
          "velocity": 0.3937007874015748
        },
        {
          "duration": 0.40123416666665435,
          "durationTicks": 520,
          "midi": 46,
          "name": "A#2",
          "ticks": 225600,
          "time": 174.0739,
          "velocity": 0.3937007874015748
        },
        {
          "duration": 0.33950583333333384,
          "durationTicks": 440,
          "midi": 50,
          "name": "D3",
          "ticks": 225600,
          "time": 174.0739,
          "velocity": 0.2440944881889764
        },
        {
          "duration": 0.33950583333333384,
          "durationTicks": 440,
          "midi": 56,
          "name": "G#3",
          "ticks": 225600,
          "time": 174.0739,
          "velocity": 0.36220472440944884
        },
        {
          "duration": 0.33950583333333384,
          "durationTicks": 440,
          "midi": 60,
          "name": "C4",
          "ticks": 225600,
          "time": 174.0739,
          "velocity": 0.2677165354330709
        },
        {
          "duration": 0.33950583333333384,
          "durationTicks": 440,
          "midi": 65,
          "name": "F4",
          "ticks": 225600,
          "time": 174.0739,
          "velocity": 0.3228346456692913
        },
        {
          "duration": 0.33950583333333384,
          "durationTicks": 440,
          "midi": 77,
          "name": "F5",
          "ticks": 225600,
          "time": 174.0739,
          "velocity": 0.3228346456692913
        },
        {
          "duration": 0.18518499999998994,
          "durationTicks": 240,
          "midi": 40,
          "name": "E2",
          "ticks": 226080,
          "time": 174.44427000000002,
          "velocity": 0.2755905511811024
        },
        {
          "duration": 0.2160491666666644,
          "durationTicks": 280,
          "midi": 60,
          "name": "C4",
          "ticks": 226080,
          "time": 174.44427000000002,
          "velocity": 0.2283464566929134
        },
        {
          "duration": 0.18518500000001836,
          "durationTicks": 240,
          "midi": 34,
          "name": "A#1",
          "ticks": 226320,
          "time": 174.629455,
          "velocity": 0.3228346456692913
        },
        {
          "duration": 0.18518500000001836,
          "durationTicks": 240,
          "midi": 70,
          "name": "A#4",
          "ticks": 226320,
          "time": 174.629455,
          "velocity": 0.2677165354330709
        },
        {
          "duration": 0.3703699999999799,
          "durationTicks": 480,
          "midi": 33,
          "name": "A1",
          "ticks": 226560,
          "time": 174.81464000000003,
          "velocity": 0.41732283464566927
        },
        {
          "duration": 0.3703699999999799,
          "durationTicks": 480,
          "midi": 52,
          "name": "E3",
          "ticks": 226560,
          "time": 174.81464000000003,
          "velocity": 0.41732283464566927
        },
        {
          "duration": 0.3703699999999799,
          "durationTicks": 480,
          "midi": 56,
          "name": "G#3",
          "ticks": 226560,
          "time": 174.81464000000003,
          "velocity": 0.2677165354330709
        },
        {
          "duration": 0.3703699999999799,
          "durationTicks": 480,
          "midi": 61,
          "name": "C#4",
          "ticks": 226560,
          "time": 174.81464000000003,
          "velocity": 0.1889763779527559
        },
        {
          "duration": 0.3703699999999799,
          "durationTicks": 480,
          "midi": 64,
          "name": "E4",
          "ticks": 226560,
          "time": 174.81464000000003,
          "velocity": 0.4094488188976378
        },
        {
          "duration": 0.3703699999999799,
          "durationTicks": 480,
          "midi": 68,
          "name": "G#4",
          "ticks": 226560,
          "time": 174.81464000000003,
          "velocity": 0.2677165354330709
        },
        {
          "duration": 0.40123416666665435,
          "durationTicks": 520,
          "midi": 74,
          "name": "D5",
          "ticks": 226560,
          "time": 174.81464000000003,
          "velocity": 0.25196850393700787
        },
        {
          "duration": 0.3703699999999799,
          "durationTicks": 480,
          "midi": 80,
          "name": "G#5",
          "ticks": 226560,
          "time": 174.81464000000003,
          "velocity": 0.2283464566929134
        },
        {
          "duration": 0.18518500000001836,
          "durationTicks": 240,
          "midi": 49,
          "name": "C#3",
          "ticks": 227040,
          "time": 175.18501,
          "velocity": 0.30708661417322836
        },
        {
          "duration": 0.1543208333333439,
          "durationTicks": 200,
          "midi": 56,
          "name": "G#3",
          "ticks": 227040,
          "time": 175.18501,
          "velocity": 0.3228346456692913
        },
        {
          "duration": 0.1543208333333439,
          "durationTicks": 200,
          "midi": 61,
          "name": "C#4",
          "ticks": 227040,
          "time": 175.18501,
          "velocity": 0.4251968503937008
        },
        {
          "duration": 0.18518499999998994,
          "durationTicks": 240,
          "midi": 33,
          "name": "A1",
          "ticks": 227280,
          "time": 175.37019500000002,
          "velocity": 0.2992125984251969
        },
        {
          "duration": 0.18518499999998994,
          "durationTicks": 240,
          "midi": 52,
          "name": "E3",
          "ticks": 227280,
          "time": 175.37019500000002,
          "velocity": 0.2992125984251969
        },
        {
          "duration": 0.18518499999998994,
          "durationTicks": 240,
          "midi": 61,
          "name": "C#4",
          "ticks": 227280,
          "time": 175.37019500000002,
          "velocity": 0.4645669291338583
        },
        {
          "duration": 0.24691333333333887,
          "durationTicks": 320,
          "midi": 64,
          "name": "E4",
          "ticks": 227400,
          "time": 175.46278750000002,
          "velocity": 0.48031496062992124
        },
        {
          "duration": 0.18518499999998994,
          "durationTicks": 240,
          "midi": 33,
          "name": "A1",
          "ticks": 227520,
          "time": 175.55538,
          "velocity": 0.3858267716535433
        },
        {
          "duration": 0.18518499999998994,
          "durationTicks": 240,
          "midi": 56,
          "name": "G#3",
          "ticks": 227520,
          "time": 175.55538,
          "velocity": 0.3228346456692913
        },
        {
          "duration": 0.18518499999998994,
          "durationTicks": 240,
          "midi": 61,
          "name": "C#4",
          "ticks": 227520,
          "time": 175.55538,
          "velocity": 0.25196850393700787
        },
        {
          "duration": 0.18518500000001836,
          "durationTicks": 240,
          "midi": 54,
          "name": "F#3",
          "ticks": 227760,
          "time": 175.740565,
          "velocity": 0.2755905511811024
        },
        {
          "duration": 0.18518500000001836,
          "durationTicks": 240,
          "midi": 66,
          "name": "F#4",
          "ticks": 227760,
          "time": 175.740565,
          "velocity": 0.6377952755905512
        },
        {
          "duration": 0.2160491666666644,
          "durationTicks": 280,
          "midi": 54,
          "name": "F#3",
          "ticks": 228000,
          "time": 175.92575000000002,
          "velocity": 0.47244094488188976
        },
        {
          "duration": 0.18518499999998994,
          "durationTicks": 240,
          "midi": 33,
          "name": "A1",
          "ticks": 228240,
          "time": 176.110935,
          "velocity": 0.3464566929133858
        },
        {
          "duration": 0.18518499999998994,
          "durationTicks": 240,
          "midi": 56,
          "name": "G#3",
          "ticks": 228240,
          "time": 176.110935,
          "velocity": 0.25196850393700787
        },
        {
          "duration": 0.18518499999998994,
          "durationTicks": 240,
          "midi": 66,
          "name": "F#4",
          "ticks": 228240,
          "time": 176.110935,
          "velocity": 0.5669291338582677
        },
        {
          "duration": 0.33950583333336226,
          "durationTicks": 440,
          "midi": 32,
          "name": "G#1",
          "ticks": 228480,
          "time": 176.29612,
          "velocity": 0.3858267716535433
        },
        {
          "duration": 0.40123416666668277,
          "durationTicks": 520,
          "midi": 54,
          "name": "F#3",
          "ticks": 228480,
          "time": 176.29612,
          "velocity": 0.3228346456692913
        },
        {
          "duration": 0.33950583333336226,
          "durationTicks": 440,
          "midi": 56,
          "name": "G#3",
          "ticks": 228480,
          "time": 176.29612,
          "velocity": 0.3543307086614173
        },
        {
          "duration": 0.33950583333336226,
          "durationTicks": 440,
          "midi": 60,
          "name": "C4",
          "ticks": 228480,
          "time": 176.29612,
          "velocity": 0.25984251968503935
        },
        {
          "duration": 0.33950583333336226,
          "durationTicks": 440,
          "midi": 65,
          "name": "F4",
          "ticks": 228480,
          "time": 176.29612,
          "velocity": 0.2283464566929134
        },
        {
          "duration": 0.33950583333336226,
          "durationTicks": 440,
          "midi": 68,
          "name": "G#4",
          "ticks": 228480,
          "time": 176.29612,
          "velocity": 0.4881889763779528
        },
        {
          "duration": 0.18518500000001836,
          "durationTicks": 240,
          "midi": 54,
          "name": "F#3",
          "ticks": 228960,
          "time": 176.66649,
          "velocity": 0.3228346456692913
        },
        {
          "duration": 0.18518500000001836,
          "durationTicks": 240,
          "midi": 57,
          "name": "A3",
          "ticks": 228960,
          "time": 176.66649,
          "velocity": 0.6220472440944882
        },
        {
          "duration": 0.18518500000001836,
          "durationTicks": 240,
          "midi": 60,
          "name": "C4",
          "ticks": 228960,
          "time": 176.66649,
          "velocity": 0.23622047244094488
        },
        {
          "duration": 0.18518500000001836,
          "durationTicks": 240,
          "midi": 69,
          "name": "A4",
          "ticks": 228960,
          "time": 176.66649,
          "velocity": 0.6220472440944882
        },
        {
          "duration": 0.18518499999998994,
          "durationTicks": 240,
          "midi": 68,
          "name": "G#4",
          "ticks": 229200,
          "time": 176.85167500000003,
          "velocity": 0.29133858267716534
        },
        {
          "duration": 0.3703700000000083,
          "durationTicks": 480,
          "midi": 32,
          "name": "G#1",
          "ticks": 229440,
          "time": 177.03686000000002,
          "velocity": 0.3779527559055118
        },
        {
          "duration": 0.3703700000000083,
          "durationTicks": 480,
          "midi": 54,
          "name": "F#3",
          "ticks": 229440,
          "time": 177.03686000000002,
          "velocity": 0.3464566929133858
        },
        {
          "duration": 0.3703700000000083,
          "durationTicks": 480,
          "midi": 64,
          "name": "E4",
          "ticks": 229440,
          "time": 177.03686000000002,
          "velocity": 0.33858267716535434
        },
        {
          "duration": 0.3703700000000083,
          "durationTicks": 480,
          "midi": 69,
          "name": "A4",
          "ticks": 229440,
          "time": 177.03686000000002,
          "velocity": 0.44881889763779526
        },
        {
          "duration": 0.3703700000000083,
          "durationTicks": 480,
          "midi": 71,
          "name": "B4",
          "ticks": 229440,
          "time": 177.03686000000002,
          "velocity": 0.2204724409448819
        },
        {
          "duration": 0.3703699999999799,
          "durationTicks": 480,
          "midi": 54,
          "name": "F#3",
          "ticks": 229920,
          "time": 177.40723000000003,
          "velocity": 0.36220472440944884
        },
        {
          "duration": 0.3703699999999799,
          "durationTicks": 480,
          "midi": 57,
          "name": "A3",
          "ticks": 229920,
          "time": 177.40723000000003,
          "velocity": 0.3779527559055118
        },
        {
          "duration": 0.3703699999999799,
          "durationTicks": 480,
          "midi": 69,
          "name": "A4",
          "ticks": 229920,
          "time": 177.40723000000003,
          "velocity": 0.3779527559055118
        },
        {
          "duration": 0.18518500000001836,
          "durationTicks": 240,
          "midi": 37,
          "name": "C#2",
          "ticks": 230400,
          "time": 177.7776,
          "velocity": 0.3464566929133858
        },
        {
          "duration": 0.18518500000001836,
          "durationTicks": 240,
          "midi": 56,
          "name": "G#3",
          "ticks": 230400,
          "time": 177.7776,
          "velocity": 0.36220472440944884
        },
        {
          "duration": 0.18518500000001836,
          "durationTicks": 240,
          "midi": 59,
          "name": "B3",
          "ticks": 230400,
          "time": 177.7776,
          "velocity": 0.2047244094488189
        },
        {
          "duration": 0.18518500000001836,
          "durationTicks": 240,
          "midi": 63,
          "name": "D#4",
          "ticks": 230400,
          "time": 177.7776,
          "velocity": 0.36220472440944884
        },
        {
          "duration": 0.1543208333333439,
          "durationTicks": 200,
          "midi": 68,
          "name": "G#4",
          "ticks": 230400,
          "time": 177.7776,
          "velocity": 0.4094488188976378
        },
        {
          "duration": 0.18518499999998994,
          "durationTicks": 240,
          "midi": 63,
          "name": "D#4",
          "ticks": 230640,
          "time": 177.96278500000003,
          "velocity": 0.3779527559055118
        },
        {
          "duration": 0.18518499999998994,
          "durationTicks": 240,
          "midi": 68,
          "name": "G#4",
          "ticks": 230640,
          "time": 177.96278500000003,
          "velocity": 0.6614173228346457
        },
        {
          "duration": 0.18518499999998994,
          "durationTicks": 240,
          "midi": 52,
          "name": "E3",
          "ticks": 230880,
          "time": 178.14797000000002,
          "velocity": 0.23622047244094488
        },
        {
          "duration": 0.18518499999998994,
          "durationTicks": 240,
          "midi": 59,
          "name": "B3",
          "ticks": 230880,
          "time": 178.14797000000002,
          "velocity": 0.2125984251968504
        },
        {
          "duration": 0.18518499999998994,
          "durationTicks": 240,
          "midi": 63,
          "name": "D#4",
          "ticks": 230880,
          "time": 178.14797000000002,
          "velocity": 0.4015748031496063
        },
        {
          "duration": 0.18518499999998994,
          "durationTicks": 240,
          "midi": 68,
          "name": "G#4",
          "ticks": 230880,
          "time": 178.14797000000002,
          "velocity": 0.7007874015748031
        },
        {
          "duration": 0.18518500000001836,
          "durationTicks": 240,
          "midi": 59,
          "name": "B3",
          "ticks": 231120,
          "time": 178.333155,
          "velocity": 0.25984251968503935
        },
        {
          "duration": 0.18518500000001836,
          "durationTicks": 240,
          "midi": 63,
          "name": "D#4",
          "ticks": 231120,
          "time": 178.333155,
          "velocity": 0.3700787401574803
        },
        {
          "duration": 0.18518500000001836,
          "durationTicks": 240,
          "midi": 68,
          "name": "G#4",
          "ticks": 231120,
          "time": 178.333155,
          "velocity": 0.7322834645669292
        },
        {
          "duration": 0.1543208333333439,
          "durationTicks": 200,
          "midi": 37,
          "name": "C#2",
          "ticks": 231360,
          "time": 178.51834000000002,
          "velocity": 0.30708661417322836
        },
        {
          "duration": 0.1543208333333439,
          "durationTicks": 200,
          "midi": 68,
          "name": "G#4",
          "ticks": 231360,
          "time": 178.51834000000002,
          "velocity": 0.5196850393700787
        },
        {
          "duration": 0.18518499999998994,
          "durationTicks": 240,
          "midi": 63,
          "name": "D#4",
          "ticks": 231600,
          "time": 178.703525,
          "velocity": 0.2440944881889764
        },
        {
          "duration": 0.18518499999998994,
          "durationTicks": 240,
          "midi": 68,
          "name": "G#4",
          "ticks": 231600,
          "time": 178.703525,
          "velocity": 0.4645669291338583
        },
        {
          "duration": 0.24691333333333887,
          "durationTicks": 320,
          "midi": 54,
          "name": "F#3",
          "ticks": 231720,
          "time": 178.7961175,
          "velocity": 0.4330708661417323
        },
        {
          "duration": 0.24691333333333887,
          "durationTicks": 320,
          "midi": 66,
          "name": "F#4",
          "ticks": 231720,
          "time": 178.7961175,
          "velocity": 0.4330708661417323
        },
        {
          "duration": 0.18518500000001836,
          "durationTicks": 240,
          "midi": 61,
          "name": "C#4",
          "ticks": 231840,
          "time": 178.88871,
          "velocity": 0.2125984251968504
        },
        {
          "duration": 0.1543208333333439,
          "durationTicks": 200,
          "midi": 54,
          "name": "F#3",
          "ticks": 232080,
          "time": 179.07389500000002,
          "velocity": 0.5590551181102362
        },
        {
          "duration": 0.12345666666666943,
          "durationTicks": 160,
          "midi": 66,
          "name": "F#4",
          "ticks": 232200,
          "time": 179.16648750000002,
          "velocity": 0.5748031496062992
        },
        {
          "duration": 0.3703700000000083,
          "durationTicks": 480,
          "midi": 35,
          "name": "B1",
          "ticks": 232320,
          "time": 179.25908,
          "velocity": 0.4015748031496063
        },
        {
          "duration": 0.3703700000000083,
          "durationTicks": 480,
          "midi": 52,
          "name": "E3",
          "ticks": 232320,
          "time": 179.25908,
          "velocity": 0.3700787401574803
        },
        {
          "duration": 0.3703700000000083,
          "durationTicks": 480,
          "midi": 57,
          "name": "A3",
          "ticks": 232320,
          "time": 179.25908,
          "velocity": 0.2440944881889764
        },
        {
          "duration": 0.3703700000000083,
          "durationTicks": 480,
          "midi": 61,
          "name": "C#4",
          "ticks": 232320,
          "time": 179.25908,
          "velocity": 0.23622047244094488
        },
        {
          "duration": 0.3703700000000083,
          "durationTicks": 480,
          "midi": 62,
          "name": "D4",
          "ticks": 232320,
          "time": 179.25908,
          "velocity": 0.1889763779527559
        },
        {
          "duration": 0.3703700000000083,
          "durationTicks": 480,
          "midi": 64,
          "name": "E4",
          "ticks": 232320,
          "time": 179.25908,
          "velocity": 0.3700787401574803
        },
        {
          "duration": 0.3703700000000083,
          "durationTicks": 480,
          "midi": 69,
          "name": "A4",
          "ticks": 232320,
          "time": 179.25908,
          "velocity": 0.2992125984251969
        },
        {
          "duration": 0.3703700000000083,
          "durationTicks": 480,
          "midi": 81,
          "name": "A5",
          "ticks": 232320,
          "time": 179.25908,
          "velocity": 0.2992125984251969
        },
        {
          "duration": 0.3703700000000083,
          "durationTicks": 480,
          "midi": 85,
          "name": "C#6",
          "ticks": 232320,
          "time": 179.25908,
          "velocity": 0.3228346456692913
        },
        {
          "duration": 0.3703700000000083,
          "durationTicks": 480,
          "midi": 64,
          "name": "E4",
          "ticks": 232800,
          "time": 179.62945000000002,
          "velocity": 0.4645669291338583
        },
        {
          "duration": 0.7407399999999882,
          "durationTicks": 960,
          "midi": 28,
          "name": "E1",
          "ticks": 233280,
          "time": 179.99982000000003,
          "velocity": 0.30708661417322836
        },
        {
          "duration": 0.7407399999999882,
          "durationTicks": 960,
          "midi": 56,
          "name": "G#3",
          "ticks": 233280,
          "time": 179.99982000000003,
          "velocity": 0.2992125984251969
        },
        {
          "duration": 0.7407399999999882,
          "durationTicks": 960,
          "midi": 60,
          "name": "C4",
          "ticks": 233280,
          "time": 179.99982000000003,
          "velocity": 0.2283464566929134
        },
        {
          "duration": 0.7407399999999882,
          "durationTicks": 960,
          "midi": 64,
          "name": "E4",
          "ticks": 233280,
          "time": 179.99982000000003,
          "velocity": 0.41732283464566927
        },
        {
          "duration": 0.7407399999999882,
          "durationTicks": 960,
          "midi": 68,
          "name": "G#4",
          "ticks": 233280,
          "time": 179.99982000000003,
          "velocity": 0.3228346456692913
        },
        {
          "duration": 0.7407399999999882,
          "durationTicks": 960,
          "midi": 72,
          "name": "C5",
          "ticks": 233280,
          "time": 179.99982000000003,
          "velocity": 0.30708661417322836
        },
        {
          "duration": 0.3703700000000083,
          "durationTicks": 480,
          "midi": 33,
          "name": "A1",
          "ticks": 234240,
          "time": 180.74056000000002,
          "velocity": 0.4409448818897638
        },
        {
          "duration": 0.3703700000000083,
          "durationTicks": 480,
          "midi": 52,
          "name": "E3",
          "ticks": 234240,
          "time": 180.74056000000002,
          "velocity": 0.33858267716535434
        },
        {
          "duration": 0.3703700000000083,
          "durationTicks": 480,
          "midi": 55,
          "name": "G3",
          "ticks": 234240,
          "time": 180.74056000000002,
          "velocity": 0.23622047244094488
        },
        {
          "duration": 0.3703700000000083,
          "durationTicks": 480,
          "midi": 60,
          "name": "C4",
          "ticks": 234240,
          "time": 180.74056000000002,
          "velocity": 0.25984251968503935
        },
        {
          "duration": 0.3703700000000083,
          "durationTicks": 480,
          "midi": 64,
          "name": "E4",
          "ticks": 234240,
          "time": 180.74056000000002,
          "velocity": 0.2283464566929134
        },
        {
          "duration": 0.3703700000000083,
          "durationTicks": 480,
          "midi": 67,
          "name": "G4",
          "ticks": 234240,
          "time": 180.74056000000002,
          "velocity": 0.3228346456692913
        },
        {
          "duration": 0.3703700000000083,
          "durationTicks": 480,
          "midi": 71,
          "name": "B4",
          "ticks": 234240,
          "time": 180.74056000000002,
          "velocity": 0.25984251968503935
        },
        {
          "duration": 0.1543208333333439,
          "durationTicks": 200,
          "midi": 55,
          "name": "G3",
          "ticks": 234720,
          "time": 181.11093000000002,
          "velocity": 0.2283464566929134
        },
        {
          "duration": 0.1543208333333439,
          "durationTicks": 200,
          "midi": 60,
          "name": "C4",
          "ticks": 234720,
          "time": 181.11093000000002,
          "velocity": 0.1968503937007874
        },
        {
          "duration": 0.1543208333333439,
          "durationTicks": 200,
          "midi": 64,
          "name": "E4",
          "ticks": 234720,
          "time": 181.11093000000002,
          "velocity": 0.3700787401574803
        },
        {
          "duration": 0.18518499999998994,
          "durationTicks": 240,
          "midi": 33,
          "name": "A1",
          "ticks": 234960,
          "time": 181.29611500000001,
          "velocity": 0.3228346456692913
        },
        {
          "duration": 0.18518499999998994,
          "durationTicks": 240,
          "midi": 52,
          "name": "E3",
          "ticks": 234960,
          "time": 181.29611500000001,
          "velocity": 0.3543307086614173
        },
        {
          "duration": 0.18518499999998994,
          "durationTicks": 240,
          "midi": 55,
          "name": "G3",
          "ticks": 234960,
          "time": 181.29611500000001,
          "velocity": 0.2283464566929134
        },
        {
          "duration": 0.18518499999998994,
          "durationTicks": 240,
          "midi": 60,
          "name": "C4",
          "ticks": 234960,
          "time": 181.29611500000001,
          "velocity": 0.23622047244094488
        },
        {
          "duration": 0.18518499999998994,
          "durationTicks": 240,
          "midi": 64,
          "name": "E4",
          "ticks": 234960,
          "time": 181.29611500000001,
          "velocity": 0.3543307086614173
        },
        {
          "duration": 0.1543208333333439,
          "durationTicks": 200,
          "midi": 33,
          "name": "A1",
          "ticks": 235200,
          "time": 181.4813,
          "velocity": 0.4330708661417323
        },
        {
          "duration": 0.1543208333333439,
          "durationTicks": 200,
          "midi": 60,
          "name": "C4",
          "ticks": 235200,
          "time": 181.4813,
          "velocity": 0.2440944881889764
        },
        {
          "duration": 0.1543208333333439,
          "durationTicks": 200,
          "midi": 54,
          "name": "F#3",
          "ticks": 235440,
          "time": 181.66648500000002,
          "velocity": 0.5826771653543307
        },
        {
          "duration": 0.1543208333333439,
          "durationTicks": 200,
          "midi": 66,
          "name": "F#4",
          "ticks": 235440,
          "time": 181.66648500000002,
          "velocity": 0.5826771653543307
        },
        {
          "duration": 0.18518499999998994,
          "durationTicks": 240,
          "midi": 40,
          "name": "E2",
          "ticks": 235680,
          "time": 181.85167,
          "velocity": 0.2677165354330709
        },
        {
          "duration": 0.18518499999998994,
          "durationTicks": 240,
          "midi": 60,
          "name": "C4",
          "ticks": 235680,
          "time": 181.85167,
          "velocity": 0.2440944881889764
        },
        {
          "duration": 0.1543208333333439,
          "durationTicks": 200,
          "midi": 64,
          "name": "E4",
          "ticks": 235680,
          "time": 181.85167,
          "velocity": 0.2125984251968504
        },
        {
          "duration": 0.2160491666666644,
          "durationTicks": 280,
          "midi": 39,
          "name": "D#2",
          "ticks": 235920,
          "time": 182.036855,
          "velocity": 0.2755905511811024
        },
        {
          "duration": 0.1543208333333439,
          "durationTicks": 200,
          "midi": 54,
          "name": "F#3",
          "ticks": 235920,
          "time": 182.036855,
          "velocity": 0.3858267716535433
        },
        {
          "duration": 0.2160491666666644,
          "durationTicks": 280,
          "midi": 55,
          "name": "G3",
          "ticks": 235920,
          "time": 182.036855,
          "velocity": 0.25984251968503935
        },
        {
          "duration": 0.1543208333333439,
          "durationTicks": 200,
          "midi": 60,
          "name": "C4",
          "ticks": 235920,
          "time": 182.036855,
          "velocity": 0.2047244094488189
        },
        {
          "duration": 0.1543208333333439,
          "durationTicks": 200,
          "midi": 64,
          "name": "E4",
          "ticks": 235920,
          "time": 182.036855,
          "velocity": 0.2283464566929134
        },
        {
          "duration": 0.2160491666666644,
          "durationTicks": 280,
          "midi": 66,
          "name": "F#4",
          "ticks": 235920,
          "time": 182.036855,
          "velocity": 0.33858267716535434
        },
        {
          "duration": 0.1543208333333439,
          "durationTicks": 200,
          "midi": 67,
          "name": "G4",
          "ticks": 235920,
          "time": 182.036855,
          "velocity": 0.2677165354330709
        },
        {
          "duration": 0.3703700000000083,
          "durationTicks": 480,
          "midi": 38,
          "name": "D2",
          "ticks": 236160,
          "time": 182.22204000000002,
          "velocity": 0.36220472440944884
        },
        {
          "duration": 0.3703700000000083,
          "durationTicks": 480,
          "midi": 55,
          "name": "G3",
          "ticks": 236160,
          "time": 182.22204000000002,
          "velocity": 0.4015748031496063
        },
        {
          "duration": 0.3703700000000083,
          "durationTicks": 480,
          "midi": 67,
          "name": "G4",
          "ticks": 236160,
          "time": 182.22204000000002,
          "velocity": 0.4015748031496063
        },
        {
          "duration": 0.3086416666666594,
          "durationTicks": 400,
          "midi": 60,
          "name": "C4",
          "ticks": 236280,
          "time": 182.31463250000002,
          "velocity": 0.25196850393700787
        },
        {
          "duration": 0.18518499999998994,
          "durationTicks": 240,
          "midi": 54,
          "name": "F#3",
          "ticks": 236640,
          "time": 182.59241000000003,
          "velocity": 0.5905511811023622
        },
        {
          "duration": 0.18518499999998994,
          "durationTicks": 240,
          "midi": 55,
          "name": "G3",
          "ticks": 236640,
          "time": 182.59241000000003,
          "velocity": 0.4251968503937008
        },
        {
          "duration": 0.18518499999998994,
          "durationTicks": 240,
          "midi": 66,
          "name": "F#4",
          "ticks": 236640,
          "time": 182.59241000000003,
          "velocity": 0.5905511811023622
        },
        {
          "duration": 0.2160491666666644,
          "durationTicks": 280,
          "midi": 33,
          "name": "A1",
          "ticks": 236880,
          "time": 182.77759500000002,
          "velocity": 0.3700787401574803
        },
        {
          "duration": 0.1543208333333439,
          "durationTicks": 200,
          "midi": 60,
          "name": "C4",
          "ticks": 236880,
          "time": 182.77759500000002,
          "velocity": 0.2047244094488189
        },
        {
          "duration": 0.1543208333333439,
          "durationTicks": 200,
          "midi": 66,
          "name": "F#4",
          "ticks": 236880,
          "time": 182.77759500000002,
          "velocity": 0.5984251968503937
        },
        {
          "duration": 0.18518500000001836,
          "durationTicks": 240,
          "midi": 38,
          "name": "D2",
          "ticks": 237120,
          "time": 182.96278,
          "velocity": 0.30708661417322836
        },
        {
          "duration": 0.18518500000001836,
          "durationTicks": 240,
          "midi": 52,
          "name": "E3",
          "ticks": 237120,
          "time": 182.96278,
          "velocity": 0.4251968503937008
        },
        {
          "duration": 0.18518500000001836,
          "durationTicks": 240,
          "midi": 64,
          "name": "E4",
          "ticks": 237120,
          "time": 182.96278,
          "velocity": 0.6299212598425197
        },
        {
          "duration": 0.18518500000001836,
          "durationTicks": 240,
          "midi": 66,
          "name": "F#4",
          "ticks": 237120,
          "time": 182.96278,
          "velocity": 0.2283464566929134
        },
        {
          "duration": 0.18518499999998994,
          "durationTicks": 240,
          "midi": 37,
          "name": "C#2",
          "ticks": 237360,
          "time": 183.14796500000003,
          "velocity": 0.2992125984251969
        },
        {
          "duration": 0.18518499999998994,
          "durationTicks": 240,
          "midi": 64,
          "name": "E4",
          "ticks": 237360,
          "time": 183.14796500000003,
          "velocity": 0.41732283464566927
        },
        {
          "duration": 0.18518499999998994,
          "durationTicks": 240,
          "midi": 38,
          "name": "D2",
          "ticks": 237600,
          "time": 183.33315000000002,
          "velocity": 0.2677165354330709
        },
        {
          "duration": 0.18518499999998994,
          "durationTicks": 240,
          "midi": 55,
          "name": "G3",
          "ticks": 237600,
          "time": 183.33315000000002,
          "velocity": 0.2677165354330709
        },
        {
          "duration": 0.18518499999998994,
          "durationTicks": 240,
          "midi": 60,
          "name": "C4",
          "ticks": 237600,
          "time": 183.33315000000002,
          "velocity": 0.2204724409448819
        },
        {
          "duration": 0.1543208333333439,
          "durationTicks": 200,
          "midi": 63,
          "name": "D#4",
          "ticks": 237600,
          "time": 183.33315000000002,
          "velocity": 0.2755905511811024
        },
        {
          "duration": 0.18518499999998994,
          "durationTicks": 240,
          "midi": 64,
          "name": "E4",
          "ticks": 237600,
          "time": 183.33315000000002,
          "velocity": 0.2440944881889764
        },
        {
          "duration": 0.18518500000001836,
          "durationTicks": 240,
          "midi": 39,
          "name": "D#2",
          "ticks": 237840,
          "time": 183.518335,
          "velocity": 0.30708661417322836
        },
        {
          "duration": 0.18518500000001836,
          "durationTicks": 240,
          "midi": 60,
          "name": "C4",
          "ticks": 237840,
          "time": 183.518335,
          "velocity": 0.25984251968503935
        },
        {
          "duration": 0.21604916666663598,
          "durationTicks": 280,
          "midi": 40,
          "name": "E2",
          "ticks": 238080,
          "time": 183.70352000000003,
          "velocity": 0.4094488188976378
        },
        {
          "duration": 0.21604916666663598,
          "durationTicks": 280,
          "midi": 56,
          "name": "G#3",
          "ticks": 238080,
          "time": 183.70352000000003,
          "velocity": 0.2204724409448819
        },
        {
          "duration": 0.21604916666663598,
          "durationTicks": 280,
          "midi": 59,
          "name": "B3",
          "ticks": 238080,
          "time": 183.70352000000003,
          "velocity": 0.4330708661417323
        },
        {
          "duration": 0.21604916666663598,
          "durationTicks": 280,
          "midi": 63,
          "name": "D#4",
          "ticks": 238080,
          "time": 183.70352000000003,
          "velocity": 0.2440944881889764
        },
        {
          "duration": 0.21604916666663598,
          "durationTicks": 280,
          "midi": 66,
          "name": "F#4",
          "ticks": 238080,
          "time": 183.70352000000003,
          "velocity": 0.2283464566929134
        },
        {
          "duration": 0.18518499999998994,
          "durationTicks": 240,
          "midi": 59,
          "name": "B3",
          "ticks": 238320,
          "time": 183.88870500000002,
          "velocity": 0.41732283464566927
        },
        {
          "duration": 0.18518500000001836,
          "durationTicks": 240,
          "midi": 52,
          "name": "E3",
          "ticks": 238560,
          "time": 184.07389,
          "velocity": 0.3228346456692913
        },
        {
          "duration": 0.18518499999998994,
          "durationTicks": 240,
          "midi": 40,
          "name": "E2",
          "ticks": 238800,
          "time": 184.25907500000002,
          "velocity": 0.3464566929133858
        },
        {
          "duration": 0.18518499999998994,
          "durationTicks": 240,
          "midi": 55,
          "name": "G3",
          "ticks": 238800,
          "time": 184.25907500000002,
          "velocity": 0.25984251968503935
        },
        {
          "duration": 0.18518499999998994,
          "durationTicks": 240,
          "midi": 56,
          "name": "G#3",
          "ticks": 238800,
          "time": 184.25907500000002,
          "velocity": 0.1889763779527559
        },
        {
          "duration": 0.18518499999998994,
          "durationTicks": 240,
          "midi": 59,
          "name": "B3",
          "ticks": 238800,
          "time": 184.25907500000002,
          "velocity": 0.3228346456692913
        },
        {
          "duration": 0.18518499999998994,
          "durationTicks": 240,
          "midi": 66,
          "name": "F#4",
          "ticks": 238800,
          "time": 184.25907500000002,
          "velocity": 0.3464566929133858
        },
        {
          "duration": 0.3703700000000083,
          "durationTicks": 480,
          "midi": 40,
          "name": "E2",
          "ticks": 239040,
          "time": 184.44426,
          "velocity": 0.3464566929133858
        },
        {
          "duration": 0.40123416666665435,
          "durationTicks": 520,
          "midi": 56,
          "name": "G#3",
          "ticks": 239040,
          "time": 184.44426,
          "velocity": 0.3543307086614173
        },
        {
          "duration": 0.3703700000000083,
          "durationTicks": 480,
          "midi": 59,
          "name": "B3",
          "ticks": 239040,
          "time": 184.44426,
          "velocity": 0.30708661417322836
        },
        {
          "duration": 0.3703700000000083,
          "durationTicks": 480,
          "midi": 68,
          "name": "G#4",
          "ticks": 239040,
          "time": 184.44426,
          "velocity": 0.3779527559055118
        },
        {
          "duration": 0.18518499999998994,
          "durationTicks": 240,
          "midi": 37,
          "name": "C#2",
          "ticks": 239520,
          "time": 184.81463000000002,
          "velocity": 0.33858267716535434
        },
        {
          "duration": 0.18518499999998994,
          "durationTicks": 240,
          "midi": 56,
          "name": "G#3",
          "ticks": 239520,
          "time": 184.81463000000002,
          "velocity": 0.4094488188976378
        },
        {
          "duration": 0.18518499999998994,
          "durationTicks": 240,
          "midi": 59,
          "name": "B3",
          "ticks": 239520,
          "time": 184.81463000000002,
          "velocity": 0.2992125984251969
        },
        {
          "duration": 0.18518499999998994,
          "durationTicks": 240,
          "midi": 63,
          "name": "D#4",
          "ticks": 239520,
          "time": 184.81463000000002,
          "velocity": 0.33070866141732286
        },
        {
          "duration": 0.2160491666666644,
          "durationTicks": 280,
          "midi": 68,
          "name": "G#4",
          "ticks": 239520,
          "time": 184.81463000000002,
          "velocity": 0.5984251968503937
        },
        {
          "duration": 0.18518499999998994,
          "durationTicks": 240,
          "midi": 36,
          "name": "C2",
          "ticks": 239760,
          "time": 184.999815,
          "velocity": 0.33858267716535434
        },
        {
          "duration": 0.18518499999998994,
          "durationTicks": 240,
          "midi": 56,
          "name": "G#3",
          "ticks": 239760,
          "time": 184.999815,
          "velocity": 0.41732283464566927
        },
        {
          "duration": 0.3703700000000083,
          "durationTicks": 480,
          "midi": 35,
          "name": "B1",
          "ticks": 240000,
          "time": 185.185,
          "velocity": 0.3700787401574803
        },
        {
          "duration": 0.3703700000000083,
          "durationTicks": 480,
          "midi": 57,
          "name": "A3",
          "ticks": 240000,
          "time": 185.185,
          "velocity": 0.3779527559055118
        },
        {
          "duration": 0.3703700000000083,
          "durationTicks": 480,
          "midi": 62,
          "name": "D4",
          "ticks": 240000,
          "time": 185.185,
          "velocity": 0.2047244094488189
        },
        {
          "duration": 0.3703700000000083,
          "durationTicks": 480,
          "midi": 64,
          "name": "E4",
          "ticks": 240000,
          "time": 185.185,
          "velocity": 0.28346456692913385
        },
        {
          "duration": 0.18518500000001836,
          "durationTicks": 240,
          "midi": 42,
          "name": "F#2",
          "ticks": 240480,
          "time": 185.55537,
          "velocity": 0.28346456692913385
        },
        {
          "duration": 0.18518500000001836,
          "durationTicks": 240,
          "midi": 64,
          "name": "E4",
          "ticks": 240480,
          "time": 185.55537,
          "velocity": 0.2677165354330709
        },
        {
          "duration": 0.18518500000001836,
          "durationTicks": 240,
          "midi": 76,
          "name": "E5",
          "ticks": 240480,
          "time": 185.55537,
          "velocity": 0.2677165354330709
        },
        {
          "duration": 0.18518499999998994,
          "durationTicks": 240,
          "midi": 41,
          "name": "F2",
          "ticks": 240720,
          "time": 185.74055500000003,
          "velocity": 0.3228346456692913
        },
        {
          "duration": 0.18518499999998994,
          "durationTicks": 240,
          "midi": 57,
          "name": "A3",
          "ticks": 240720,
          "time": 185.74055500000003,
          "velocity": 0.2283464566929134
        },
        {
          "duration": 0.18518499999998994,
          "durationTicks": 240,
          "midi": 40,
          "name": "E2",
          "ticks": 240960,
          "time": 185.92574000000002,
          "velocity": 0.2440944881889764
        },
        {
          "duration": 0.18518499999998994,
          "durationTicks": 240,
          "midi": 46,
          "name": "A#2",
          "ticks": 240960,
          "time": 185.92574000000002,
          "velocity": 0.23622047244094488
        },
        {
          "duration": 0.18518499999998994,
          "durationTicks": 240,
          "midi": 56,
          "name": "G#3",
          "ticks": 240960,
          "time": 185.92574000000002,
          "velocity": 0.3858267716535433
        },
        {
          "duration": 0.18518499999998994,
          "durationTicks": 240,
          "midi": 62,
          "name": "D4",
          "ticks": 240960,
          "time": 185.92574000000002,
          "velocity": 0.25984251968503935
        },
        {
          "duration": 0.18518499999998994,
          "durationTicks": 240,
          "midi": 66,
          "name": "F#4",
          "ticks": 240960,
          "time": 185.92574000000002,
          "velocity": 0.30708661417322836
        },
        {
          "duration": 0.18518499999998994,
          "durationTicks": 240,
          "midi": 78,
          "name": "F#5",
          "ticks": 240960,
          "time": 185.92574000000002,
          "velocity": 0.30708661417322836
        },
        {
          "duration": 0.18518500000001836,
          "durationTicks": 240,
          "midi": 35,
          "name": "B1",
          "ticks": 241200,
          "time": 186.110925,
          "velocity": 0.2992125984251969
        },
        {
          "duration": 0.18518500000001836,
          "durationTicks": 240,
          "midi": 56,
          "name": "G#3",
          "ticks": 241200,
          "time": 186.110925,
          "velocity": 0.48031496062992124
        },
        {
          "duration": 0.33950583333333384,
          "durationTicks": 440,
          "midi": 66,
          "name": "F#4",
          "ticks": 241440,
          "time": 186.29611000000003,
          "velocity": 0.36220472440944884
        },
        {
          "duration": 0.1543208333333439,
          "durationTicks": 200,
          "midi": 33,
          "name": "A1",
          "ticks": 241920,
          "time": 186.66648,
          "velocity": 0.33858267716535434
        },
        {
          "duration": 0.1543208333333439,
          "durationTicks": 200,
          "midi": 45,
          "name": "A2",
          "ticks": 241920,
          "time": 186.66648,
          "velocity": 0.2755905511811024
        },
        {
          "duration": 0.1543208333333439,
          "durationTicks": 200,
          "midi": 52,
          "name": "E3",
          "ticks": 241920,
          "time": 186.66648,
          "velocity": 0.31496062992125984
        },
        {
          "duration": 0.1543208333333439,
          "durationTicks": 200,
          "midi": 56,
          "name": "G#3",
          "ticks": 241920,
          "time": 186.66648,
          "velocity": 0.33858267716535434
        },
        {
          "duration": 0.1543208333333439,
          "durationTicks": 200,
          "midi": 61,
          "name": "C#4",
          "ticks": 241920,
          "time": 186.66648,
          "velocity": 0.2283464566929134
        },
        {
          "duration": 0.1543208333333439,
          "durationTicks": 200,
          "midi": 64,
          "name": "E4",
          "ticks": 241920,
          "time": 186.66648,
          "velocity": 0.4094488188976378
        },
        {
          "duration": 0.1543208333333439,
          "durationTicks": 200,
          "midi": 61,
          "name": "C#4",
          "ticks": 242160,
          "time": 186.85166500000003,
          "velocity": 0.4251968503937008
        },
        {
          "duration": 0.2160491666666644,
          "durationTicks": 280,
          "midi": 49,
          "name": "C#3",
          "ticks": 242400,
          "time": 187.03685000000002,
          "velocity": 0.4251968503937008
        },
        {
          "duration": 0.12345666666666943,
          "durationTicks": 160,
          "midi": 56,
          "name": "G#3",
          "ticks": 242520,
          "time": 187.1294425,
          "velocity": 0.36220472440944884
        },
        {
          "duration": 0.3703700000000083,
          "durationTicks": 480,
          "midi": 52,
          "name": "E3",
          "ticks": 242640,
          "time": 187.222035,
          "velocity": 0.2992125984251969
        },
        {
          "duration": 0.3703700000000083,
          "durationTicks": 480,
          "midi": 64,
          "name": "E4",
          "ticks": 242640,
          "time": 187.222035,
          "velocity": 0.23622047244094488
        },
        {
          "duration": 0.1543208333333439,
          "durationTicks": 200,
          "midi": 33,
          "name": "A1",
          "ticks": 243120,
          "time": 187.592405,
          "velocity": 0.2755905511811024
        },
        {
          "duration": 0.1543208333333439,
          "durationTicks": 200,
          "midi": 54,
          "name": "F#3",
          "ticks": 243120,
          "time": 187.592405,
          "velocity": 0.4566929133858268
        },
        {
          "duration": 0.1543208333333439,
          "durationTicks": 200,
          "midi": 61,
          "name": "C#4",
          "ticks": 243120,
          "time": 187.592405,
          "velocity": 0.4566929133858268
        },
        {
          "duration": 0.1543208333333439,
          "durationTicks": 200,
          "midi": 64,
          "name": "E4",
          "ticks": 243120,
          "time": 187.592405,
          "velocity": 0.3228346456692913
        },
        {
          "duration": 0.1543208333333439,
          "durationTicks": 200,
          "midi": 66,
          "name": "F#4",
          "ticks": 243120,
          "time": 187.592405,
          "velocity": 0.6377952755905512
        },
        {
          "duration": 0.18518500000001836,
          "durationTicks": 240,
          "midi": 56,
          "name": "G#3",
          "ticks": 243360,
          "time": 187.77759,
          "velocity": 0.33858267716535434
        },
        {
          "duration": 0.1543208333333439,
          "durationTicks": 200,
          "midi": 48,
          "name": "C3",
          "ticks": 243600,
          "time": 187.96277500000002,
          "velocity": 0.2992125984251969
        },
        {
          "duration": 0.1543208333333439,
          "durationTicks": 200,
          "midi": 54,
          "name": "F#3",
          "ticks": 243600,
          "time": 187.96277500000002,
          "velocity": 0.2992125984251969
        },
        {
          "duration": 0.2160491666666644,
          "durationTicks": 280,
          "midi": 68,
          "name": "G#4",
          "ticks": 243600,
          "time": 187.96277500000002,
          "velocity": 0.2992125984251969
        },
        {
          "duration": 0.18518500000001836,
          "durationTicks": 240,
          "midi": 44,
          "name": "G#2",
          "ticks": 243840,
          "time": 188.14796,
          "velocity": 0.4881889763779528
        },
        {
          "duration": 0.18518500000001836,
          "durationTicks": 240,
          "midi": 54,
          "name": "F#3",
          "ticks": 243840,
          "time": 188.14796,
          "velocity": 0.3228346456692913
        },
        {
          "duration": 0.18518500000001836,
          "durationTicks": 240,
          "midi": 56,
          "name": "G#3",
          "ticks": 243840,
          "time": 188.14796,
          "velocity": 0.4881889763779528
        },
        {
          "duration": 0.18518500000001836,
          "durationTicks": 240,
          "midi": 65,
          "name": "F4",
          "ticks": 243840,
          "time": 188.14796,
          "velocity": 0.3228346456692913
        },
        {
          "duration": 0.18518500000001836,
          "durationTicks": 240,
          "midi": 68,
          "name": "G#4",
          "ticks": 243840,
          "time": 188.14796,
          "velocity": 0.4409448818897638
        },
        {
          "duration": 0.18518499999998994,
          "durationTicks": 240,
          "midi": 56,
          "name": "G#3",
          "ticks": 244080,
          "time": 188.33314500000003,
          "velocity": 0.4015748031496063
        },
        {
          "duration": 0.24691333333333887,
          "durationTicks": 320,
          "midi": 57,
          "name": "A3",
          "ticks": 244200,
          "time": 188.42573750000003,
          "velocity": 0.41732283464566927
        },
        {
          "duration": 0.24691333333333887,
          "durationTicks": 320,
          "midi": 69,
          "name": "A4",
          "ticks": 244200,
          "time": 188.42573750000003,
          "velocity": 0.49606299212598426
        },
        {
          "duration": 0.18518500000001836,
          "durationTicks": 240,
          "midi": 38,
          "name": "D2",
          "ticks": 244560,
          "time": 188.703515,
          "velocity": 0.3779527559055118
        },
        {
          "duration": 0.18518500000001836,
          "durationTicks": 240,
          "midi": 54,
          "name": "F#3",
          "ticks": 244560,
          "time": 188.703515,
          "velocity": 0.28346456692913385
        },
        {
          "duration": 0.15432083333331548,
          "durationTicks": 200,
          "midi": 38,
          "name": "D2",
          "ticks": 244800,
          "time": 188.88870000000003,
          "velocity": 0.4645669291338583
        },
        {
          "duration": 0.15432083333331548,
          "durationTicks": 200,
          "midi": 54,
          "name": "F#3",
          "ticks": 244800,
          "time": 188.88870000000003,
          "velocity": 0.30708661417322836
        },
        {
          "duration": 0.15432083333331548,
          "durationTicks": 200,
          "midi": 59,
          "name": "B3",
          "ticks": 244800,
          "time": 188.88870000000003,
          "velocity": 0.3700787401574803
        },
        {
          "duration": 0.21604916666663598,
          "durationTicks": 280,
          "midi": 64,
          "name": "E4",
          "ticks": 244800,
          "time": 188.88870000000003,
          "velocity": 0.2125984251968504
        },
        {
          "duration": 0.21604916666663598,
          "durationTicks": 280,
          "midi": 69,
          "name": "A4",
          "ticks": 244800,
          "time": 188.88870000000003,
          "velocity": 0.4409448818897638
        },
        {
          "duration": 0.15432083333331548,
          "durationTicks": 200,
          "midi": 71,
          "name": "B4",
          "ticks": 244800,
          "time": 188.88870000000003,
          "velocity": 0.3700787401574803
        },
        {
          "duration": 0.18518499999998994,
          "durationTicks": 240,
          "midi": 44,
          "name": "G#2",
          "ticks": 245040,
          "time": 189.07388500000002,
          "velocity": 0.25984251968503935
        },
        {
          "duration": 0.18518499999998994,
          "durationTicks": 240,
          "midi": 54,
          "name": "F#3",
          "ticks": 245040,
          "time": 189.07388500000002,
          "velocity": 0.33858267716535434
        },
        {
          "duration": 0.18518500000001836,
          "durationTicks": 240,
          "midi": 32,
          "name": "G#1",
          "ticks": 245280,
          "time": 189.25907,
          "velocity": 0.31496062992125984
        },
        {
          "duration": 0.18518500000001836,
          "durationTicks": 240,
          "midi": 61,
          "name": "C#4",
          "ticks": 245280,
          "time": 189.25907,
          "velocity": 0.6377952755905512
        },
        {
          "duration": 0.18518500000001836,
          "durationTicks": 240,
          "midi": 73,
          "name": "C#5",
          "ticks": 245280,
          "time": 189.25907,
          "velocity": 0.6377952755905512
        },
        {
          "duration": 0.18518499999998994,
          "durationTicks": 240,
          "midi": 38,
          "name": "D2",
          "ticks": 245520,
          "time": 189.44425500000003,
          "velocity": 0.30708661417322836
        },
        {
          "duration": 0.24691333333331045,
          "durationTicks": 320,
          "midi": 49,
          "name": "C#3",
          "ticks": 245640,
          "time": 189.53684750000002,
          "velocity": 0.33858267716535434
        },
        {
          "duration": 0.24691333333331045,
          "durationTicks": 320,
          "midi": 56,
          "name": "G#3",
          "ticks": 245640,
          "time": 189.53684750000002,
          "velocity": 0.2677165354330709
        },
        {
          "duration": 0.24691333333331045,
          "durationTicks": 320,
          "midi": 57,
          "name": "A3",
          "ticks": 245640,
          "time": 189.53684750000002,
          "velocity": 0.30708661417322836
        },
        {
          "duration": 0.24691333333331045,
          "durationTicks": 320,
          "midi": 59,
          "name": "B3",
          "ticks": 245640,
          "time": 189.53684750000002,
          "velocity": 0.2204724409448819
        },
        {
          "duration": 0.24691333333331045,
          "durationTicks": 320,
          "midi": 69,
          "name": "A4",
          "ticks": 245640,
          "time": 189.53684750000002,
          "velocity": 0.30708661417322836
        },
        {
          "duration": 0.18518499999998994,
          "durationTicks": 240,
          "midi": 37,
          "name": "C#2",
          "ticks": 245760,
          "time": 189.62944000000002,
          "velocity": 0.41732283464566927
        },
        {
          "duration": 0.18518499999998994,
          "durationTicks": 240,
          "midi": 52,
          "name": "E3",
          "ticks": 245760,
          "time": 189.62944000000002,
          "velocity": 0.2204724409448819
        },
        {
          "duration": 0.18518499999998994,
          "durationTicks": 240,
          "midi": 61,
          "name": "C#4",
          "ticks": 245760,
          "time": 189.62944000000002,
          "velocity": 0.2283464566929134
        },
        {
          "duration": 0.21604916666669283,
          "durationTicks": 280,
          "midi": 63,
          "name": "D#4",
          "ticks": 245760,
          "time": 189.62944000000002,
          "velocity": 0.2755905511811024
        },
        {
          "duration": 0.21604916666669283,
          "durationTicks": 280,
          "midi": 68,
          "name": "G#4",
          "ticks": 245760,
          "time": 189.62944000000002,
          "velocity": 0.2440944881889764
        },
        {
          "duration": 0.18518500000001836,
          "durationTicks": 240,
          "midi": 37,
          "name": "C#2",
          "ticks": 246000,
          "time": 189.814625,
          "velocity": 0.3543307086614173
        },
        {
          "duration": 0.18518500000001836,
          "durationTicks": 240,
          "midi": 49,
          "name": "C#3",
          "ticks": 246000,
          "time": 189.814625,
          "velocity": 0.3543307086614173
        },
        {
          "duration": 0.18518500000001836,
          "durationTicks": 240,
          "midi": 56,
          "name": "G#3",
          "ticks": 246000,
          "time": 189.814625,
          "velocity": 0.25196850393700787
        },
        {
          "duration": 0.18518500000001836,
          "durationTicks": 240,
          "midi": 68,
          "name": "G#4",
          "ticks": 246000,
          "time": 189.814625,
          "velocity": 0.6220472440944882
        },
        {
          "duration": 0.18518499999998994,
          "durationTicks": 240,
          "midi": 52,
          "name": "E3",
          "ticks": 246240,
          "time": 189.99981000000002,
          "velocity": 0.23622047244094488
        },
        {
          "duration": 0.40123416666668277,
          "durationTicks": 520,
          "midi": 49,
          "name": "C#3",
          "ticks": 246480,
          "time": 190.18499500000001,
          "velocity": 0.3464566929133858
        },
        {
          "duration": 0.2160491666666644,
          "durationTicks": 280,
          "midi": 43,
          "name": "G2",
          "ticks": 246960,
          "time": 190.55536500000002,
          "velocity": 0.2204724409448819
        },
        {
          "duration": 0.18518499999998994,
          "durationTicks": 240,
          "midi": 49,
          "name": "C#3",
          "ticks": 247200,
          "time": 190.74055,
          "velocity": 0.2677165354330709
        },
        {
          "duration": 0.21604916666669283,
          "durationTicks": 280,
          "midi": 54,
          "name": "F#3",
          "ticks": 247200,
          "time": 190.74055,
          "velocity": 0.28346456692913385
        },
        {
          "duration": 0.18518499999998994,
          "durationTicks": 240,
          "midi": 61,
          "name": "C#4",
          "ticks": 247200,
          "time": 190.74055,
          "velocity": 0.3700787401574803
        },
        {
          "duration": 0.21604916666669283,
          "durationTicks": 280,
          "midi": 66,
          "name": "F#4",
          "ticks": 247200,
          "time": 190.74055,
          "velocity": 0.5354330708661418
        },
        {
          "duration": 0.18518500000001836,
          "durationTicks": 240,
          "midi": 36,
          "name": "C2",
          "ticks": 247440,
          "time": 190.925735,
          "velocity": 0.3228346456692913
        },
        {
          "duration": 0.18518500000001836,
          "durationTicks": 240,
          "midi": 48,
          "name": "C3",
          "ticks": 247440,
          "time": 190.925735,
          "velocity": 0.25984251968503935
        },
        {
          "duration": 0.15432083333331548,
          "durationTicks": 200,
          "midi": 47,
          "name": "B2",
          "ticks": 247680,
          "time": 191.11092000000002,
          "velocity": 0.3464566929133858
        },
        {
          "duration": 0.18518499999998994,
          "durationTicks": 240,
          "midi": 57,
          "name": "A3",
          "ticks": 247680,
          "time": 191.11092000000002,
          "velocity": 0.2677165354330709
        },
        {
          "duration": 0.18518499999998994,
          "durationTicks": 240,
          "midi": 61,
          "name": "C#4",
          "ticks": 247680,
          "time": 191.11092000000002,
          "velocity": 0.23622047244094488
        },
        {
          "duration": 0.18518499999998994,
          "durationTicks": 240,
          "midi": 64,
          "name": "E4",
          "ticks": 247680,
          "time": 191.11092000000002,
          "velocity": 0.31496062992125984
        },
        {
          "duration": 0.18518500000001836,
          "durationTicks": 240,
          "midi": 64,
          "name": "E4",
          "ticks": 247920,
          "time": 191.296105,
          "velocity": 0.28346456692913385
        },
        {
          "duration": 0.15432083333331548,
          "durationTicks": 200,
          "midi": 42,
          "name": "F#2",
          "ticks": 248160,
          "time": 191.48129000000003,
          "velocity": 0.2677165354330709
        },
        {
          "duration": 0.15432083333331548,
          "durationTicks": 200,
          "midi": 54,
          "name": "F#3",
          "ticks": 248160,
          "time": 191.48129000000003,
          "velocity": 0.2755905511811024
        },
        {
          "duration": 0.18518499999998994,
          "durationTicks": 240,
          "midi": 41,
          "name": "F2",
          "ticks": 248400,
          "time": 191.66647500000002,
          "velocity": 0.2755905511811024
        },
        {
          "duration": 0.18518499999998994,
          "durationTicks": 240,
          "midi": 64,
          "name": "E4",
          "ticks": 248400,
          "time": 191.66647500000002,
          "velocity": 0.2440944881889764
        },
        {
          "duration": 0.18518500000001836,
          "durationTicks": 240,
          "midi": 40,
          "name": "E2",
          "ticks": 248640,
          "time": 191.85166,
          "velocity": 0.30708661417322836
        },
        {
          "duration": 0.18518500000001836,
          "durationTicks": 240,
          "midi": 57,
          "name": "A3",
          "ticks": 248640,
          "time": 191.85166,
          "velocity": 0.2440944881889764
        },
        {
          "duration": 0.18518500000001836,
          "durationTicks": 240,
          "midi": 59,
          "name": "B3",
          "ticks": 248640,
          "time": 191.85166,
          "velocity": 0.31496062992125984
        },
        {
          "duration": 0.18518500000001836,
          "durationTicks": 240,
          "midi": 62,
          "name": "D4",
          "ticks": 248640,
          "time": 191.85166,
          "velocity": 0.2204724409448819
        },
        {
          "duration": 0.18518500000001836,
          "durationTicks": 240,
          "midi": 66,
          "name": "F#4",
          "ticks": 248640,
          "time": 191.85166,
          "velocity": 0.36220472440944884
        },
        {
          "duration": 0.18518500000001836,
          "durationTicks": 240,
          "midi": 71,
          "name": "B4",
          "ticks": 248640,
          "time": 191.85166,
          "velocity": 0.2755905511811024
        },
        {
          "duration": 0.12345666666666943,
          "durationTicks": 160,
          "midi": 39,
          "name": "D#2",
          "ticks": 249000,
          "time": 192.12943750000002,
          "velocity": 0.2677165354330709
        },
        {
          "duration": 0.18518499999998994,
          "durationTicks": 240,
          "midi": 35,
          "name": "B1",
          "ticks": 249120,
          "time": 192.22203000000002,
          "velocity": 0.30708661417322836
        },
        {
          "duration": 0.18518499999998994,
          "durationTicks": 240,
          "midi": 54,
          "name": "F#3",
          "ticks": 249120,
          "time": 192.22203000000002,
          "velocity": 0.2755905511811024
        },
        {
          "duration": 0.15432083333331548,
          "durationTicks": 200,
          "midi": 57,
          "name": "A3",
          "ticks": 249120,
          "time": 192.22203000000002,
          "velocity": 0.2992125984251969
        },
        {
          "duration": 0.15432083333331548,
          "durationTicks": 200,
          "midi": 59,
          "name": "B3",
          "ticks": 249120,
          "time": 192.22203000000002,
          "velocity": 0.33858267716535434
        },
        {
          "duration": 0.15432083333331548,
          "durationTicks": 200,
          "midi": 71,
          "name": "B4",
          "ticks": 249120,
          "time": 192.22203000000002,
          "velocity": 0.4409448818897638
        },
        {
          "duration": 0.21604916666669283,
          "durationTicks": 280,
          "midi": 34,
          "name": "A#1",
          "ticks": 249360,
          "time": 192.407215,
          "velocity": 0.3228346456692913
        },
        {
          "duration": 0.21604916666669283,
          "durationTicks": 280,
          "midi": 66,
          "name": "F#4",
          "ticks": 249360,
          "time": 192.407215,
          "velocity": 0.2283464566929134
        },
        {
          "duration": 0.21604916666669283,
          "durationTicks": 280,
          "midi": 73,
          "name": "C#5",
          "ticks": 249360,
          "time": 192.407215,
          "velocity": 0.7007874015748031
        },
        {
          "duration": 0.3703699999999799,
          "durationTicks": 480,
          "midi": 33,
          "name": "A1",
          "ticks": 249600,
          "time": 192.59240000000003,
          "velocity": 0.41732283464566927
        },
        {
          "duration": 0.3703699999999799,
          "durationTicks": 480,
          "midi": 45,
          "name": "A2",
          "ticks": 249600,
          "time": 192.59240000000003,
          "velocity": 0.30708661417322836
        },
        {
          "duration": 0.3703699999999799,
          "durationTicks": 480,
          "midi": 56,
          "name": "G#3",
          "ticks": 249600,
          "time": 192.59240000000003,
          "velocity": 0.30708661417322836
        },
        {
          "duration": 0.3703699999999799,
          "durationTicks": 480,
          "midi": 61,
          "name": "C#4",
          "ticks": 249600,
          "time": 192.59240000000003,
          "velocity": 0.5590551181102362
        },
        {
          "duration": 0.3703699999999799,
          "durationTicks": 480,
          "midi": 64,
          "name": "E4",
          "ticks": 249600,
          "time": 192.59240000000003,
          "velocity": 0.28346456692913385
        },
        {
          "duration": 0.3703699999999799,
          "durationTicks": 480,
          "midi": 71,
          "name": "B4",
          "ticks": 249600,
          "time": 192.59240000000003,
          "velocity": 0.28346456692913385
        },
        {
          "duration": 0.3703699999999799,
          "durationTicks": 480,
          "midi": 73,
          "name": "C#5",
          "ticks": 249600,
          "time": 192.59240000000003,
          "velocity": 0.5590551181102362
        },
        {
          "duration": 0.18518500000001836,
          "durationTicks": 240,
          "midi": 32,
          "name": "G#1",
          "ticks": 250080,
          "time": 192.96277,
          "velocity": 0.3779527559055118
        },
        {
          "duration": 0.18518500000001836,
          "durationTicks": 240,
          "midi": 56,
          "name": "G#3",
          "ticks": 250080,
          "time": 192.96277,
          "velocity": 0.4645669291338583
        },
        {
          "duration": 0.18518500000001836,
          "durationTicks": 240,
          "midi": 61,
          "name": "C#4",
          "ticks": 250080,
          "time": 192.96277,
          "velocity": 0.25196850393700787
        },
        {
          "duration": 0.18518499999998994,
          "durationTicks": 240,
          "midi": 33,
          "name": "A1",
          "ticks": 250320,
          "time": 193.14795500000002,
          "velocity": 0.3543307086614173
        },
        {
          "duration": 0.18518499999998994,
          "durationTicks": 240,
          "midi": 52,
          "name": "E3",
          "ticks": 250320,
          "time": 193.14795500000002,
          "velocity": 0.3464566929133858
        },
        {
          "duration": 0.18518499999998994,
          "durationTicks": 240,
          "midi": 64,
          "name": "E4",
          "ticks": 250320,
          "time": 193.14795500000002,
          "velocity": 0.47244094488188976
        },
        {
          "duration": 0.18518499999998994,
          "durationTicks": 240,
          "midi": 56,
          "name": "G#3",
          "ticks": 250560,
          "time": 193.33314000000001,
          "velocity": 0.4015748031496063
        },
        {
          "duration": 0.18518499999998994,
          "durationTicks": 240,
          "midi": 62,
          "name": "D4",
          "ticks": 250560,
          "time": 193.33314000000001,
          "velocity": 0.28346456692913385
        },
        {
          "duration": 0.18518500000001836,
          "durationTicks": 240,
          "midi": 34,
          "name": "A#1",
          "ticks": 250800,
          "time": 193.518325,
          "velocity": 0.36220472440944884
        },
        {
          "duration": 0.18518500000001836,
          "durationTicks": 240,
          "midi": 49,
          "name": "C#3",
          "ticks": 250800,
          "time": 193.518325,
          "velocity": 0.3228346456692913
        },
        {
          "duration": 0.18518500000001836,
          "durationTicks": 240,
          "midi": 56,
          "name": "G#3",
          "ticks": 250800,
          "time": 193.518325,
          "velocity": 0.36220472440944884
        },
        {
          "duration": 0.18518500000001836,
          "durationTicks": 240,
          "midi": 61,
          "name": "C#4",
          "ticks": 250800,
          "time": 193.518325,
          "velocity": 0.3228346456692913
        },
        {
          "duration": 0.18518500000001836,
          "durationTicks": 240,
          "midi": 64,
          "name": "E4",
          "ticks": 250800,
          "time": 193.518325,
          "velocity": 0.25984251968503935
        },
        {
          "duration": 0.15432083333331548,
          "durationTicks": 200,
          "midi": 57,
          "name": "A3",
          "ticks": 251040,
          "time": 193.70351000000002,
          "velocity": 0.2283464566929134
        },
        {
          "duration": 0.15432083333331548,
          "durationTicks": 200,
          "midi": 63,
          "name": "D#4",
          "ticks": 251040,
          "time": 193.70351000000002,
          "velocity": 0.18110236220472442
        },
        {
          "duration": 0.2160491666666644,
          "durationTicks": 280,
          "midi": 66,
          "name": "F#4",
          "ticks": 251040,
          "time": 193.70351000000002,
          "velocity": 0.18110236220472442
        },
        {
          "duration": 0.18518500000001836,
          "durationTicks": 240,
          "midi": 35,
          "name": "B1",
          "ticks": 251280,
          "time": 193.888695,
          "velocity": 0.41732283464566927
        },
        {
          "duration": 0.18518500000001836,
          "durationTicks": 240,
          "midi": 52,
          "name": "E3",
          "ticks": 251280,
          "time": 193.888695,
          "velocity": 0.3228346456692913
        },
        {
          "duration": 0.18518500000001836,
          "durationTicks": 240,
          "midi": 60,
          "name": "C4",
          "ticks": 251280,
          "time": 193.888695,
          "velocity": 0.2125984251968504
        },
        {
          "duration": 0.18518500000001836,
          "durationTicks": 240,
          "midi": 64,
          "name": "E4",
          "ticks": 251280,
          "time": 193.888695,
          "velocity": 0.3228346456692913
        },
        {
          "duration": 0.18518500000001836,
          "durationTicks": 240,
          "midi": 68,
          "name": "G#4",
          "ticks": 251280,
          "time": 193.888695,
          "velocity": 0.2047244094488189
        },
        {
          "duration": 0.15432083333331548,
          "durationTicks": 200,
          "midi": 52,
          "name": "E3",
          "ticks": 251520,
          "time": 194.07388000000003,
          "velocity": 0.3858267716535433
        },
        {
          "duration": 0.15432083333331548,
          "durationTicks": 200,
          "midi": 57,
          "name": "A3",
          "ticks": 251520,
          "time": 194.07388000000003,
          "velocity": 0.2283464566929134
        },
        {
          "duration": 0.15432083333331548,
          "durationTicks": 200,
          "midi": 60,
          "name": "C4",
          "ticks": 251520,
          "time": 194.07388000000003,
          "velocity": 0.25196850393700787
        },
        {
          "duration": 0.15432083333331548,
          "durationTicks": 200,
          "midi": 64,
          "name": "E4",
          "ticks": 251520,
          "time": 194.07388000000003,
          "velocity": 0.3858267716535433
        },
        {
          "duration": 0.15432083333331548,
          "durationTicks": 200,
          "midi": 69,
          "name": "A4",
          "ticks": 251520,
          "time": 194.07388000000003,
          "velocity": 0.25984251968503935
        },
        {
          "duration": 0.18518499999998994,
          "durationTicks": 240,
          "midi": 42,
          "name": "F#2",
          "ticks": 251760,
          "time": 194.25906500000002,
          "velocity": 0.2992125984251969
        },
        {
          "duration": 0.21604916666669283,
          "durationTicks": 280,
          "midi": 52,
          "name": "E3",
          "ticks": 252000,
          "time": 194.44425,
          "velocity": 0.4251968503937008
        },
        {
          "duration": 0.18518500000001836,
          "durationTicks": 240,
          "midi": 60,
          "name": "C4",
          "ticks": 252000,
          "time": 194.44425,
          "velocity": 0.3228346456692913
        },
        {
          "duration": 0.18518499999998994,
          "durationTicks": 240,
          "midi": 35,
          "name": "B1",
          "ticks": 252240,
          "time": 194.62943500000003,
          "velocity": 0.3464566929133858
        },
        {
          "duration": 0.18518499999998994,
          "durationTicks": 240,
          "midi": 47,
          "name": "B2",
          "ticks": 252240,
          "time": 194.62943500000003,
          "velocity": 0.28346456692913385
        },
        {
          "duration": 0.18518499999998994,
          "durationTicks": 240,
          "midi": 52,
          "name": "E3",
          "ticks": 252480,
          "time": 194.81462000000002,
          "velocity": 0.3543307086614173
        },
        {
          "duration": 0.18518499999998994,
          "durationTicks": 240,
          "midi": 57,
          "name": "A3",
          "ticks": 252480,
          "time": 194.81462000000002,
          "velocity": 0.25984251968503935
        },
        {
          "duration": 0.18518499999998994,
          "durationTicks": 240,
          "midi": 64,
          "name": "E4",
          "ticks": 252480,
          "time": 194.81462000000002,
          "velocity": 0.3543307086614173
        },
        {
          "duration": 0.18518500000001836,
          "durationTicks": 240,
          "midi": 35,
          "name": "B1",
          "ticks": 252720,
          "time": 194.999805,
          "velocity": 0.30708661417322836
        },
        {
          "duration": 0.18518500000001836,
          "durationTicks": 240,
          "midi": 47,
          "name": "B2",
          "ticks": 252720,
          "time": 194.999805,
          "velocity": 0.30708661417322836
        },
        {
          "duration": 0.18518500000001836,
          "durationTicks": 240,
          "midi": 64,
          "name": "E4",
          "ticks": 252720,
          "time": 194.999805,
          "velocity": 0.28346456692913385
        },
        {
          "duration": 0.18518499999998994,
          "durationTicks": 240,
          "midi": 42,
          "name": "F#2",
          "ticks": 252960,
          "time": 195.18499000000003,
          "velocity": 0.2992125984251969
        },
        {
          "duration": 0.18518499999998994,
          "durationTicks": 240,
          "midi": 52,
          "name": "E3",
          "ticks": 252960,
          "time": 195.18499000000003,
          "velocity": 0.28346456692913385
        },
        {
          "duration": 0.18518499999998994,
          "durationTicks": 240,
          "midi": 57,
          "name": "A3",
          "ticks": 252960,
          "time": 195.18499000000003,
          "velocity": 0.33858267716535434
        },
        {
          "duration": 0.18518499999998994,
          "durationTicks": 240,
          "midi": 60,
          "name": "C4",
          "ticks": 252960,
          "time": 195.18499000000003,
          "velocity": 0.2677165354330709
        },
        {
          "duration": 0.15432083333331548,
          "durationTicks": 200,
          "midi": 41,
          "name": "F2",
          "ticks": 253200,
          "time": 195.37017500000002,
          "velocity": 0.28346456692913385
        },
        {
          "duration": 0.15432083333331548,
          "durationTicks": 200,
          "midi": 52,
          "name": "E3",
          "ticks": 253200,
          "time": 195.37017500000002,
          "velocity": 0.3779527559055118
        },
        {
          "duration": 0.15432083333331548,
          "durationTicks": 200,
          "midi": 59,
          "name": "B3",
          "ticks": 253200,
          "time": 195.37017500000002,
          "velocity": 0.2992125984251969
        },
        {
          "duration": 0.15432083333331548,
          "durationTicks": 200,
          "midi": 64,
          "name": "E4",
          "ticks": 253200,
          "time": 195.37017500000002,
          "velocity": 0.4330708661417323
        },
        {
          "duration": 0.15432083333331548,
          "durationTicks": 200,
          "midi": 69,
          "name": "A4",
          "ticks": 253200,
          "time": 195.37017500000002,
          "velocity": 0.41732283464566927
        },
        {
          "duration": 0.3703700000000083,
          "durationTicks": 480,
          "midi": 40,
          "name": "E2",
          "ticks": 253440,
          "time": 195.55536,
          "velocity": 0.29133858267716534
        },
        {
          "duration": 0.3703700000000083,
          "durationTicks": 480,
          "midi": 52,
          "name": "E3",
          "ticks": 253440,
          "time": 195.55536,
          "velocity": 0.5433070866141733
        },
        {
          "duration": 0.3703700000000083,
          "durationTicks": 480,
          "midi": 57,
          "name": "A3",
          "ticks": 253440,
          "time": 195.55536,
          "velocity": 0.3858267716535433
        },
        {
          "duration": 0.3703700000000083,
          "durationTicks": 480,
          "midi": 59,
          "name": "B3",
          "ticks": 253440,
          "time": 195.55536,
          "velocity": 0.4645669291338583
        },
        {
          "duration": 0.3703700000000083,
          "durationTicks": 480,
          "midi": 64,
          "name": "E4",
          "ticks": 253440,
          "time": 195.55536,
          "velocity": 0.5433070866141733
        },
        {
          "duration": 0.3703700000000083,
          "durationTicks": 480,
          "midi": 71,
          "name": "B4",
          "ticks": 253440,
          "time": 195.55536,
          "velocity": 0.4645669291338583
        },
        {
          "duration": 0.18518499999998994,
          "durationTicks": 240,
          "midi": 59,
          "name": "B3",
          "ticks": 253920,
          "time": 195.92573000000002,
          "velocity": 0.36220472440944884
        },
        {
          "duration": 0.18518500000001836,
          "durationTicks": 240,
          "midi": 35,
          "name": "B1",
          "ticks": 254160,
          "time": 196.110915,
          "velocity": 0.3228346456692913
        },
        {
          "duration": 0.18518500000001836,
          "durationTicks": 240,
          "midi": 52,
          "name": "E3",
          "ticks": 254160,
          "time": 196.110915,
          "velocity": 0.4251968503937008
        },
        {
          "duration": 0.2160491666666644,
          "durationTicks": 280,
          "midi": 40,
          "name": "E2",
          "ticks": 254400,
          "time": 196.29610000000002,
          "velocity": 0.30708661417322836
        },
        {
          "duration": 0.18518499999998994,
          "durationTicks": 240,
          "midi": 40,
          "name": "E2",
          "ticks": 254640,
          "time": 196.481285,
          "velocity": 0.30708661417322836
        },
        {
          "duration": 0.18518500000001836,
          "durationTicks": 240,
          "midi": 59,
          "name": "B3",
          "ticks": 254880,
          "time": 196.66647,
          "velocity": 0.4251968503937008
        },
        {
          "duration": 0.18518500000001836,
          "durationTicks": 240,
          "midi": 71,
          "name": "B4",
          "ticks": 254880,
          "time": 196.66647,
          "velocity": 0.4251968503937008
        },
        {
          "duration": 0.18518499999998994,
          "durationTicks": 240,
          "midi": 35,
          "name": "B1",
          "ticks": 255120,
          "time": 196.85165500000002,
          "velocity": 0.3228346456692913
        },
        {
          "duration": 0.18518499999998994,
          "durationTicks": 240,
          "midi": 59,
          "name": "B3",
          "ticks": 255120,
          "time": 196.85165500000002,
          "velocity": 0.6220472440944882
        },
        {
          "duration": 0.15432083333331548,
          "durationTicks": 200,
          "midi": 38,
          "name": "D2",
          "ticks": 255360,
          "time": 197.03684,
          "velocity": 0.3464566929133858
        },
        {
          "duration": 0.15432083333331548,
          "durationTicks": 200,
          "midi": 50,
          "name": "D3",
          "ticks": 255360,
          "time": 197.03684,
          "velocity": 0.3464566929133858
        },
        {
          "duration": 0.15432083333331548,
          "durationTicks": 200,
          "midi": 56,
          "name": "G#3",
          "ticks": 255360,
          "time": 197.03684,
          "velocity": 0.2440944881889764
        },
        {
          "duration": 0.15432083333331548,
          "durationTicks": 200,
          "midi": 59,
          "name": "B3",
          "ticks": 255360,
          "time": 197.03684,
          "velocity": 0.5196850393700787
        },
        {
          "duration": 0.15432083333331548,
          "durationTicks": 200,
          "midi": 38,
          "name": "D2",
          "ticks": 255600,
          "time": 197.22202500000003,
          "velocity": 0.33070866141732286
        },
        {
          "duration": 0.15432083333331548,
          "durationTicks": 200,
          "midi": 50,
          "name": "D3",
          "ticks": 255600,
          "time": 197.22202500000003,
          "velocity": 0.33070866141732286
        },
        {
          "duration": 0.18518499999998994,
          "durationTicks": 240,
          "midi": 56,
          "name": "G#3",
          "ticks": 255840,
          "time": 197.40721000000002,
          "velocity": 0.36220472440944884
        },
        {
          "duration": 0.18518499999998994,
          "durationTicks": 240,
          "midi": 59,
          "name": "B3",
          "ticks": 255840,
          "time": 197.40721000000002,
          "velocity": 0.3228346456692913
        },
        {
          "duration": 0.18518500000001836,
          "durationTicks": 240,
          "midi": 35,
          "name": "B1",
          "ticks": 256080,
          "time": 197.592395,
          "velocity": 0.3228346456692913
        },
        {
          "duration": 0.18518500000001836,
          "durationTicks": 240,
          "midi": 59,
          "name": "B3",
          "ticks": 256080,
          "time": 197.592395,
          "velocity": 0.4645669291338583
        },
        {
          "duration": 0.18518500000001836,
          "durationTicks": 240,
          "midi": 62,
          "name": "D4",
          "ticks": 256080,
          "time": 197.592395,
          "velocity": 0.2283464566929134
        },
        {
          "duration": 0.18518500000001836,
          "durationTicks": 240,
          "midi": 71,
          "name": "B4",
          "ticks": 256080,
          "time": 197.592395,
          "velocity": 0.4645669291338583
        },
        {
          "duration": 0.18518500000001836,
          "durationTicks": 240,
          "midi": 74,
          "name": "D5",
          "ticks": 256080,
          "time": 197.592395,
          "velocity": 0.2204724409448819
        },
        {
          "duration": 0.18518499999998994,
          "durationTicks": 240,
          "midi": 38,
          "name": "D2",
          "ticks": 256320,
          "time": 197.77758000000003,
          "velocity": 0.3464566929133858
        },
        {
          "duration": 0.18518499999998994,
          "durationTicks": 240,
          "midi": 73,
          "name": "C#5",
          "ticks": 256320,
          "time": 197.77758000000003,
          "velocity": 0.2047244094488189
        },
        {
          "duration": 0.21604916666669283,
          "durationTicks": 280,
          "midi": 38,
          "name": "D2",
          "ticks": 256560,
          "time": 197.96276500000002,
          "velocity": 0.33858267716535434
        },
        {
          "duration": 0.15432083333331548,
          "durationTicks": 200,
          "midi": 59,
          "name": "B3",
          "ticks": 256560,
          "time": 197.96276500000002,
          "velocity": 0.33070866141732286
        },
        {
          "duration": 0.15432083333331548,
          "durationTicks": 200,
          "midi": 71,
          "name": "B4",
          "ticks": 256560,
          "time": 197.96276500000002,
          "velocity": 0.33070866141732286
        },
        {
          "duration": 0.15432083333331548,
          "durationTicks": 200,
          "midi": 74,
          "name": "D5",
          "ticks": 256560,
          "time": 197.96276500000002,
          "velocity": 0.25984251968503935
        },
        {
          "duration": 0.18518500000001836,
          "durationTicks": 240,
          "midi": 40,
          "name": "E2",
          "ticks": 256800,
          "time": 198.14795,
          "velocity": 0.3937007874015748
        },
        {
          "duration": 0.18518500000001836,
          "durationTicks": 240,
          "midi": 52,
          "name": "E3",
          "ticks": 256800,
          "time": 198.14795,
          "velocity": 0.3937007874015748
        },
        {
          "duration": 0.18518500000001836,
          "durationTicks": 240,
          "midi": 61,
          "name": "C#4",
          "ticks": 256800,
          "time": 198.14795,
          "velocity": 0.23622047244094488
        },
        {
          "duration": 0.18518500000001836,
          "durationTicks": 240,
          "midi": 68,
          "name": "G#4",
          "ticks": 256800,
          "time": 198.14795,
          "velocity": 0.31496062992125984
        },
        {
          "duration": 0.18518500000001836,
          "durationTicks": 240,
          "midi": 73,
          "name": "C#5",
          "ticks": 256800,
          "time": 198.14795,
          "velocity": 0.23622047244094488
        },
        {
          "duration": 0.18518500000001836,
          "durationTicks": 240,
          "midi": 80,
          "name": "G#5",
          "ticks": 256800,
          "time": 198.14795,
          "velocity": 0.25196850393700787
        },
        {
          "duration": 0.18518499999998994,
          "durationTicks": 240,
          "midi": 38,
          "name": "D2",
          "ticks": 257040,
          "time": 198.33313500000003,
          "velocity": 0.2677165354330709
        },
        {
          "duration": 0.18518499999998994,
          "durationTicks": 240,
          "midi": 59,
          "name": "B3",
          "ticks": 257040,
          "time": 198.33313500000003,
          "velocity": 0.25984251968503935
        },
        {
          "duration": 0.18518499999998994,
          "durationTicks": 240,
          "midi": 66,
          "name": "F#4",
          "ticks": 257040,
          "time": 198.33313500000003,
          "velocity": 0.29133858267716534
        },
        {
          "duration": 0.18518499999998994,
          "durationTicks": 240,
          "midi": 71,
          "name": "B4",
          "ticks": 257040,
          "time": 198.33313500000003,
          "velocity": 0.25984251968503935
        },
        {
          "duration": 0.2160491666666644,
          "durationTicks": 280,
          "midi": 81,
          "name": "A5",
          "ticks": 257040,
          "time": 198.33313500000003,
          "velocity": 0.2755905511811024
        },
        {
          "duration": 0.18518499999998994,
          "durationTicks": 240,
          "midi": 36,
          "name": "C2",
          "ticks": 257280,
          "time": 198.51832000000002,
          "velocity": 0.4094488188976378
        },
        {
          "duration": 0.18518499999998994,
          "durationTicks": 240,
          "midi": 52,
          "name": "E3",
          "ticks": 257280,
          "time": 198.51832000000002,
          "velocity": 0.4015748031496063
        },
        {
          "duration": 0.18518499999998994,
          "durationTicks": 240,
          "midi": 55,
          "name": "G3",
          "ticks": 257280,
          "time": 198.51832000000002,
          "velocity": 0.3858267716535433
        },
        {
          "duration": 0.18518499999998994,
          "durationTicks": 240,
          "midi": 59,
          "name": "B3",
          "ticks": 257280,
          "time": 198.51832000000002,
          "velocity": 0.29133858267716534
        },
        {
          "duration": 0.18518499999998994,
          "durationTicks": 240,
          "midi": 62,
          "name": "D4",
          "ticks": 257280,
          "time": 198.51832000000002,
          "velocity": 0.23622047244094488
        },
        {
          "duration": 0.18518499999998994,
          "durationTicks": 240,
          "midi": 67,
          "name": "G4",
          "ticks": 257280,
          "time": 198.51832000000002,
          "velocity": 0.3858267716535433
        },
        {
          "duration": 0.18518499999998994,
          "durationTicks": 240,
          "midi": 71,
          "name": "B4",
          "ticks": 257280,
          "time": 198.51832000000002,
          "velocity": 0.29133858267716534
        },
        {
          "duration": 0.18518500000001836,
          "durationTicks": 240,
          "midi": 64,
          "name": "E4",
          "ticks": 257520,
          "time": 198.703505,
          "velocity": 0.3937007874015748
        },
        {
          "duration": 0.18518499999998994,
          "durationTicks": 240,
          "midi": 59,
          "name": "B3",
          "ticks": 257760,
          "time": 198.88869000000003,
          "velocity": 0.28346456692913385
        },
        {
          "duration": 0.18518499999998994,
          "durationTicks": 240,
          "midi": 64,
          "name": "E4",
          "ticks": 257760,
          "time": 198.88869000000003,
          "velocity": 0.36220472440944884
        },
        {
          "duration": 0.18518499999998994,
          "durationTicks": 240,
          "midi": 67,
          "name": "G4",
          "ticks": 257760,
          "time": 198.88869000000003,
          "velocity": 0.36220472440944884
        },
        {
          "duration": 0.18518499999998994,
          "durationTicks": 240,
          "midi": 31,
          "name": "G1",
          "ticks": 258000,
          "time": 199.07387500000002,
          "velocity": 0.36220472440944884
        },
        {
          "duration": 0.15432083333331548,
          "durationTicks": 200,
          "midi": 59,
          "name": "B3",
          "ticks": 258000,
          "time": 199.07387500000002,
          "velocity": 0.29133858267716534
        },
        {
          "duration": 0.15432083333331548,
          "durationTicks": 200,
          "midi": 62,
          "name": "D4",
          "ticks": 258000,
          "time": 199.07387500000002,
          "velocity": 0.2677165354330709
        },
        {
          "duration": 0.15432083333331548,
          "durationTicks": 200,
          "midi": 67,
          "name": "G4",
          "ticks": 258000,
          "time": 199.07387500000002,
          "velocity": 0.3464566929133858
        },
        {
          "duration": 0.18518500000001836,
          "durationTicks": 240,
          "midi": 36,
          "name": "C2",
          "ticks": 258240,
          "time": 199.25906,
          "velocity": 0.41732283464566927
        },
        {
          "duration": 0.18518500000001836,
          "durationTicks": 240,
          "midi": 59,
          "name": "B3",
          "ticks": 258240,
          "time": 199.25906,
          "velocity": 0.2283464566929134
        },
        {
          "duration": 0.18518500000001836,
          "durationTicks": 240,
          "midi": 67,
          "name": "G4",
          "ticks": 258240,
          "time": 199.25906,
          "velocity": 0.31496062992125984
        },
        {
          "duration": 0.18518499999998994,
          "durationTicks": 240,
          "midi": 36,
          "name": "C2",
          "ticks": 258480,
          "time": 199.44424500000002,
          "velocity": 0.3464566929133858
        },
        {
          "duration": 0.18518499999998994,
          "durationTicks": 240,
          "midi": 52,
          "name": "E3",
          "ticks": 258480,
          "time": 199.44424500000002,
          "velocity": 0.2047244094488189
        },
        {
          "duration": 0.15432083333331548,
          "durationTicks": 200,
          "midi": 59,
          "name": "B3",
          "ticks": 258480,
          "time": 199.44424500000002,
          "velocity": 0.2283464566929134
        },
        {
          "duration": 0.18518499999998994,
          "durationTicks": 240,
          "midi": 62,
          "name": "D4",
          "ticks": 258480,
          "time": 199.44424500000002,
          "velocity": 0.25984251968503935
        },
        {
          "duration": 0.18518499999998994,
          "durationTicks": 240,
          "midi": 69,
          "name": "A4",
          "ticks": 258480,
          "time": 199.44424500000002,
          "velocity": 0.3700787401574803
        },
        {
          "duration": 0.15432083333331548,
          "durationTicks": 200,
          "midi": 81,
          "name": "A5",
          "ticks": 258480,
          "time": 199.44424500000002,
          "velocity": 0.3700787401574803
        },
        {
          "duration": 0.18518499999998994,
          "durationTicks": 240,
          "midi": 33,
          "name": "A1",
          "ticks": 258720,
          "time": 199.62943,
          "velocity": 0.31496062992125984
        },
        {
          "duration": 0.21604916666669283,
          "durationTicks": 280,
          "midi": 34,
          "name": "A#1",
          "ticks": 258960,
          "time": 199.814615,
          "velocity": 0.3228346456692913
        },
        {
          "duration": 0.1543208333333439,
          "durationTicks": 200,
          "midi": 71,
          "name": "B4",
          "ticks": 258960,
          "time": 199.814615,
          "velocity": 0.30708661417322836
        },
        {
          "duration": 0.21604916666669283,
          "durationTicks": 280,
          "midi": 83,
          "name": "B5",
          "ticks": 258960,
          "time": 199.814615,
          "velocity": 0.30708661417322836
        },
        {
          "duration": 0.18518499999998994,
          "durationTicks": 240,
          "midi": 35,
          "name": "B1",
          "ticks": 259200,
          "time": 199.99980000000002,
          "velocity": 0.33858267716535434
        },
        {
          "duration": 0.18518499999998994,
          "durationTicks": 240,
          "midi": 63,
          "name": "D#4",
          "ticks": 259200,
          "time": 199.99980000000002,
          "velocity": 0.18110236220472442
        },
        {
          "duration": 0.18518499999998994,
          "durationTicks": 240,
          "midi": 68,
          "name": "G#4",
          "ticks": 259200,
          "time": 199.99980000000002,
          "velocity": 0.2047244094488189
        },
        {
          "duration": 0.18518499999998994,
          "durationTicks": 240,
          "midi": 83,
          "name": "B5",
          "ticks": 259200,
          "time": 199.99980000000002,
          "velocity": 0.28346456692913385
        },
        {
          "duration": 0.15432083333331548,
          "durationTicks": 200,
          "midi": 42,
          "name": "F#2",
          "ticks": 259440,
          "time": 200.184985,
          "velocity": 0.28346456692913385
        },
        {
          "duration": 0.18518500000001836,
          "durationTicks": 240,
          "midi": 57,
          "name": "A3",
          "ticks": 259440,
          "time": 200.184985,
          "velocity": 0.2204724409448819
        },
        {
          "duration": 0.15432083333331548,
          "durationTicks": 200,
          "midi": 63,
          "name": "D#4",
          "ticks": 259440,
          "time": 200.184985,
          "velocity": 0.25196850393700787
        },
        {
          "duration": 0.18518500000001836,
          "durationTicks": 240,
          "midi": 68,
          "name": "G#4",
          "ticks": 259440,
          "time": 200.184985,
          "velocity": 0.2047244094488189
        },
        {
          "duration": 0.18518499999998994,
          "durationTicks": 240,
          "midi": 63,
          "name": "D#4",
          "ticks": 259680,
          "time": 200.37017000000003,
          "velocity": 0.2204724409448819
        },
        {
          "duration": 0.18518499999998994,
          "durationTicks": 240,
          "midi": 68,
          "name": "G#4",
          "ticks": 259680,
          "time": 200.37017000000003,
          "velocity": 0.23622047244094488
        },
        {
          "duration": 0.18518499999998994,
          "durationTicks": 240,
          "midi": 72,
          "name": "C5",
          "ticks": 259680,
          "time": 200.37017000000003,
          "velocity": 0.33858267716535434
        },
        {
          "duration": 0.18518499999998994,
          "durationTicks": 240,
          "midi": 47,
          "name": "B2",
          "ticks": 259920,
          "time": 200.55535500000002,
          "velocity": 0.3228346456692913
        },
        {
          "duration": 0.18518499999998994,
          "durationTicks": 240,
          "midi": 57,
          "name": "A3",
          "ticks": 259920,
          "time": 200.55535500000002,
          "velocity": 0.28346456692913385
        },
        {
          "duration": 0.18518499999998994,
          "durationTicks": 240,
          "midi": 63,
          "name": "D#4",
          "ticks": 259920,
          "time": 200.55535500000002,
          "velocity": 0.2283464566929134
        },
        {
          "duration": 0.18518499999998994,
          "durationTicks": 240,
          "midi": 67,
          "name": "G4",
          "ticks": 259920,
          "time": 200.55535500000002,
          "velocity": 0.1968503937007874
        },
        {
          "duration": 0.18518500000001836,
          "durationTicks": 240,
          "midi": 67,
          "name": "G4",
          "ticks": 260160,
          "time": 200.74054,
          "velocity": 0.2047244094488189
        },
        {
          "duration": 0.18518500000001836,
          "durationTicks": 240,
          "midi": 74,
          "name": "D5",
          "ticks": 260160,
          "time": 200.74054,
          "velocity": 0.2992125984251969
        },
        {
          "duration": 0.18518499999998994,
          "durationTicks": 240,
          "midi": 35,
          "name": "B1",
          "ticks": 260400,
          "time": 200.92572500000003,
          "velocity": 0.36220472440944884
        },
        {
          "duration": 0.18518499999998994,
          "durationTicks": 240,
          "midi": 57,
          "name": "A3",
          "ticks": 260400,
          "time": 200.92572500000003,
          "velocity": 0.2677165354330709
        },
        {
          "duration": 0.18518499999998994,
          "durationTicks": 240,
          "midi": 63,
          "name": "D#4",
          "ticks": 260400,
          "time": 200.92572500000003,
          "velocity": 0.25196850393700787
        },
        {
          "duration": 0.18518499999998994,
          "durationTicks": 240,
          "midi": 67,
          "name": "G4",
          "ticks": 260400,
          "time": 200.92572500000003,
          "velocity": 0.2992125984251969
        },
        {
          "duration": 0.18518499999998994,
          "durationTicks": 240,
          "midi": 42,
          "name": "F#2",
          "ticks": 260640,
          "time": 201.11091000000002,
          "velocity": 0.29133858267716534
        },
        {
          "duration": 0.18518499999998994,
          "durationTicks": 240,
          "midi": 57,
          "name": "A3",
          "ticks": 260640,
          "time": 201.11091000000002,
          "velocity": 0.2992125984251969
        },
        {
          "duration": 0.18518499999998994,
          "durationTicks": 240,
          "midi": 63,
          "name": "D#4",
          "ticks": 260640,
          "time": 201.11091000000002,
          "velocity": 0.2440944881889764
        },
        {
          "duration": 0.18518499999998994,
          "durationTicks": 240,
          "midi": 67,
          "name": "G4",
          "ticks": 260640,
          "time": 201.11091000000002,
          "velocity": 0.28346456692913385
        },
        {
          "duration": 0.18518499999998994,
          "durationTicks": 240,
          "midi": 72,
          "name": "C5",
          "ticks": 260640,
          "time": 201.11091000000002,
          "velocity": 0.33858267716535434
        },
        {
          "duration": 0.18518499999998994,
          "durationTicks": 240,
          "midi": 84,
          "name": "C6",
          "ticks": 260640,
          "time": 201.11091000000002,
          "velocity": 0.33858267716535434
        },
        {
          "duration": 0.18518500000001836,
          "durationTicks": 240,
          "midi": 41,
          "name": "F2",
          "ticks": 260880,
          "time": 201.296095,
          "velocity": 0.28346456692913385
        },
        {
          "duration": 0.18518500000001836,
          "durationTicks": 240,
          "midi": 57,
          "name": "A3",
          "ticks": 260880,
          "time": 201.296095,
          "velocity": 0.2992125984251969
        },
        {
          "duration": 0.18518500000001836,
          "durationTicks": 240,
          "midi": 63,
          "name": "D#4",
          "ticks": 260880,
          "time": 201.296095,
          "velocity": 0.25984251968503935
        },
        {
          "duration": 0.18518500000001836,
          "durationTicks": 240,
          "midi": 67,
          "name": "G4",
          "ticks": 260880,
          "time": 201.296095,
          "velocity": 0.2992125984251969
        },
        {
          "duration": 0.3703699999999799,
          "durationTicks": 480,
          "midi": 40,
          "name": "E2",
          "ticks": 261120,
          "time": 201.48128000000003,
          "velocity": 0.33858267716535434
        },
        {
          "duration": 0.3703699999999799,
          "durationTicks": 480,
          "midi": 55,
          "name": "G3",
          "ticks": 261120,
          "time": 201.48128000000003,
          "velocity": 0.30708661417322836
        },
        {
          "duration": 0.3703699999999799,
          "durationTicks": 480,
          "midi": 62,
          "name": "D4",
          "ticks": 261120,
          "time": 201.48128000000003,
          "velocity": 0.2047244094488189
        },
        {
          "duration": 0.3703699999999799,
          "durationTicks": 480,
          "midi": 66,
          "name": "F#4",
          "ticks": 261120,
          "time": 201.48128000000003,
          "velocity": 0.18110236220472442
        },
        {
          "duration": 0.3703699999999799,
          "durationTicks": 480,
          "midi": 71,
          "name": "B4",
          "ticks": 261120,
          "time": 201.48128000000003,
          "velocity": 0.2283464566929134
        },
        {
          "duration": 0.1543208333333439,
          "durationTicks": 200,
          "midi": 39,
          "name": "D#2",
          "ticks": 261600,
          "time": 201.85165,
          "velocity": 0.2440944881889764
        },
        {
          "duration": 0.18518499999998994,
          "durationTicks": 240,
          "midi": 35,
          "name": "B1",
          "ticks": 261840,
          "time": 202.03683500000002,
          "velocity": 0.3858267716535433
        },
        {
          "duration": 0.18518499999998994,
          "durationTicks": 240,
          "midi": 62,
          "name": "D4",
          "ticks": 261840,
          "time": 202.03683500000002,
          "velocity": 0.28346456692913385
        },
        {
          "duration": 0.18518499999998994,
          "durationTicks": 240,
          "midi": 66,
          "name": "F#4",
          "ticks": 261840,
          "time": 202.03683500000002,
          "velocity": 0.25984251968503935
        },
        {
          "duration": 0.2160491666666644,
          "durationTicks": 280,
          "midi": 83,
          "name": "B5",
          "ticks": 261840,
          "time": 202.03683500000002,
          "velocity": 0.2204724409448819
        },
        {
          "duration": 0.18518499999998994,
          "durationTicks": 240,
          "midi": 40,
          "name": "E2",
          "ticks": 262080,
          "time": 202.22202000000001,
          "velocity": 0.28346456692913385
        },
        {
          "duration": 0.18518500000001836,
          "durationTicks": 240,
          "midi": 35,
          "name": "B1",
          "ticks": 262320,
          "time": 202.407205,
          "velocity": 0.3228346456692913
        },
        {
          "duration": 0.18518500000001836,
          "durationTicks": 240,
          "midi": 62,
          "name": "D4",
          "ticks": 262320,
          "time": 202.407205,
          "velocity": 0.2755905511811024
        },
        {
          "duration": 0.1543208333333439,
          "durationTicks": 200,
          "midi": 66,
          "name": "F#4",
          "ticks": 262320,
          "time": 202.407205,
          "velocity": 0.2677165354330709
        },
        {
          "duration": 0.18518499999998994,
          "durationTicks": 240,
          "midi": 40,
          "name": "E2",
          "ticks": 262560,
          "time": 202.59239000000002,
          "velocity": 0.25984251968503935
        },
        {
          "duration": 0.18518499999998994,
          "durationTicks": 240,
          "midi": 55,
          "name": "G3",
          "ticks": 262560,
          "time": 202.59239000000002,
          "velocity": 0.25196850393700787
        },
        {
          "duration": 0.18518499999998994,
          "durationTicks": 240,
          "midi": 69,
          "name": "A4",
          "ticks": 262560,
          "time": 202.59239000000002,
          "velocity": 0.3464566929133858
        },
        {
          "duration": 0.18518499999998994,
          "durationTicks": 240,
          "midi": 81,
          "name": "A5",
          "ticks": 262560,
          "time": 202.59239000000002,
          "velocity": 0.3464566929133858
        },
        {
          "duration": 0.15432083333331548,
          "durationTicks": 200,
          "midi": 39,
          "name": "D#2",
          "ticks": 262800,
          "time": 202.777575,
          "velocity": 0.2677165354330709
        },
        {
          "duration": 0.15432083333331548,
          "durationTicks": 200,
          "midi": 67,
          "name": "G4",
          "ticks": 262800,
          "time": 202.777575,
          "velocity": 0.3700787401574803
        },
        {
          "duration": 0.15432083333331548,
          "durationTicks": 200,
          "midi": 79,
          "name": "G5",
          "ticks": 262800,
          "time": 202.777575,
          "velocity": 0.3700787401574803
        },
        {
          "duration": 0.18518499999998994,
          "durationTicks": 240,
          "midi": 38,
          "name": "D2",
          "ticks": 263040,
          "time": 202.96276000000003,
          "velocity": 0.3464566929133858
        },
        {
          "duration": 0.18518499999998994,
          "durationTicks": 240,
          "midi": 50,
          "name": "D3",
          "ticks": 263040,
          "time": 202.96276000000003,
          "velocity": 0.3464566929133858
        },
        {
          "duration": 0.18518499999998994,
          "durationTicks": 240,
          "midi": 53,
          "name": "F3",
          "ticks": 263280,
          "time": 203.14794500000002,
          "velocity": 0.18110236220472442
        },
        {
          "duration": 0.18518499999998994,
          "durationTicks": 240,
          "midi": 57,
          "name": "A3",
          "ticks": 263280,
          "time": 203.14794500000002,
          "velocity": 0.3228346456692913
        },
        {
          "duration": 0.18518499999998994,
          "durationTicks": 240,
          "midi": 60,
          "name": "C4",
          "ticks": 263280,
          "time": 203.14794500000002,
          "velocity": 0.31496062992125984
        },
        {
          "duration": 0.18518499999998994,
          "durationTicks": 240,
          "midi": 64,
          "name": "E4",
          "ticks": 263280,
          "time": 203.14794500000002,
          "velocity": 0.2440944881889764
        },
        {
          "duration": 0.18518500000001836,
          "durationTicks": 240,
          "midi": 33,
          "name": "A1",
          "ticks": 263520,
          "time": 203.33313,
          "velocity": 0.41732283464566927
        },
        {
          "duration": 0.18518500000001836,
          "durationTicks": 240,
          "midi": 45,
          "name": "A2",
          "ticks": 263520,
          "time": 203.33313,
          "velocity": 0.41732283464566927
        },
        {
          "duration": 0.18518499999998994,
          "durationTicks": 240,
          "midi": 32,
          "name": "G#1",
          "ticks": 263760,
          "time": 203.51831500000003,
          "velocity": 0.36220472440944884
        },
        {
          "duration": 0.18518499999998994,
          "durationTicks": 240,
          "midi": 53,
          "name": "F3",
          "ticks": 263760,
          "time": 203.51831500000003,
          "velocity": 0.25984251968503935
        },
        {
          "duration": 0.18518499999998994,
          "durationTicks": 240,
          "midi": 59,
          "name": "B3",
          "ticks": 263760,
          "time": 203.51831500000003,
          "velocity": 0.2204724409448819
        },
        {
          "duration": 0.18518499999998994,
          "durationTicks": 240,
          "midi": 60,
          "name": "C4",
          "ticks": 263760,
          "time": 203.51831500000003,
          "velocity": 0.2047244094488189
        },
        {
          "duration": 0.18518499999998994,
          "durationTicks": 240,
          "midi": 63,
          "name": "D#4",
          "ticks": 263760,
          "time": 203.51831500000003,
          "velocity": 0.2677165354330709
        },
        {
          "duration": 0.18518499999998994,
          "durationTicks": 240,
          "midi": 31,
          "name": "G1",
          "ticks": 264000,
          "time": 203.70350000000002,
          "velocity": 0.3779527559055118
        },
        {
          "duration": 0.15432083333331548,
          "durationTicks": 200,
          "midi": 59,
          "name": "B3",
          "ticks": 264000,
          "time": 203.70350000000002,
          "velocity": 0.2047244094488189
        },
        {
          "duration": 0.15432083333331548,
          "durationTicks": 200,
          "midi": 67,
          "name": "G4",
          "ticks": 264000,
          "time": 203.70350000000002,
          "velocity": 0.4330708661417323
        },
        {
          "duration": 0.15432083333331548,
          "durationTicks": 200,
          "midi": 79,
          "name": "G5",
          "ticks": 264000,
          "time": 203.70350000000002,
          "velocity": 0.4330708661417323
        },
        {
          "duration": 0.18518500000001836,
          "durationTicks": 240,
          "midi": 59,
          "name": "B3",
          "ticks": 264240,
          "time": 203.888685,
          "velocity": 0.2047244094488189
        },
        {
          "duration": 0.15432083333331548,
          "durationTicks": 200,
          "midi": 38,
          "name": "D2",
          "ticks": 264480,
          "time": 204.07387000000003,
          "velocity": 0.3228346456692913
        },
        {
          "duration": 0.15432083333331548,
          "durationTicks": 200,
          "midi": 53,
          "name": "F3",
          "ticks": 264480,
          "time": 204.07387000000003,
          "velocity": 0.2283464566929134
        },
        {
          "duration": 0.15432083333331548,
          "durationTicks": 200,
          "midi": 59,
          "name": "B3",
          "ticks": 264480,
          "time": 204.07387000000003,
          "velocity": 0.2125984251968504
        },
        {
          "duration": 0.15432083333331548,
          "durationTicks": 200,
          "midi": 63,
          "name": "D#4",
          "ticks": 264480,
          "time": 204.07387000000003,
          "velocity": 0.2204724409448819
        },
        {
          "duration": 0.15432083333331548,
          "durationTicks": 200,
          "midi": 69,
          "name": "A4",
          "ticks": 264480,
          "time": 204.07387000000003,
          "velocity": 0.4330708661417323
        },
        {
          "duration": 0.15432083333331548,
          "durationTicks": 200,
          "midi": 81,
          "name": "A5",
          "ticks": 264480,
          "time": 204.07387000000003,
          "velocity": 0.4330708661417323
        },
        {
          "duration": 0.18518499999998994,
          "durationTicks": 240,
          "midi": 37,
          "name": "C#2",
          "ticks": 264720,
          "time": 204.25905500000002,
          "velocity": 0.31496062992125984
        },
        {
          "duration": 0.18518499999998994,
          "durationTicks": 240,
          "midi": 43,
          "name": "G2",
          "ticks": 264720,
          "time": 204.25905500000002,
          "velocity": 0.2677165354330709
        },
        {
          "duration": 0.18518499999998994,
          "durationTicks": 240,
          "midi": 59,
          "name": "B3",
          "ticks": 264720,
          "time": 204.25905500000002,
          "velocity": 0.2047244094488189
        },
        {
          "duration": 0.18518499999998994,
          "durationTicks": 240,
          "midi": 63,
          "name": "D#4",
          "ticks": 264720,
          "time": 204.25905500000002,
          "velocity": 0.23622047244094488
        },
        {
          "duration": 0.18518499999998994,
          "durationTicks": 240,
          "midi": 79,
          "name": "G5",
          "ticks": 264720,
          "time": 204.25905500000002,
          "velocity": 0.2283464566929134
        },
        {
          "duration": 0.15432083333331548,
          "durationTicks": 200,
          "midi": 36,
          "name": "C2",
          "ticks": 264960,
          "time": 204.44424,
          "velocity": 0.33070866141732286
        },
        {
          "duration": 0.15432083333331548,
          "durationTicks": 200,
          "midi": 51,
          "name": "D#3",
          "ticks": 264960,
          "time": 204.44424,
          "velocity": 0.25984251968503935
        },
        {
          "duration": 0.15432083333331548,
          "durationTicks": 200,
          "midi": 58,
          "name": "A#3",
          "ticks": 264960,
          "time": 204.44424,
          "velocity": 0.3228346456692913
        },
        {
          "duration": 0.15432083333331548,
          "durationTicks": 200,
          "midi": 62,
          "name": "D4",
          "ticks": 264960,
          "time": 204.44424,
          "velocity": 0.1968503937007874
        },
        {
          "duration": 0.15432083333331548,
          "durationTicks": 200,
          "midi": 70,
          "name": "A#4",
          "ticks": 264960,
          "time": 204.44424,
          "velocity": 0.36220472440944884
        },
        {
          "duration": 0.18518499999998994,
          "durationTicks": 240,
          "midi": 79,
          "name": "G5",
          "ticks": 265200,
          "time": 204.62942500000003,
          "velocity": 0.2125984251968504
        },
        {
          "duration": 0.18518499999998994,
          "durationTicks": 240,
          "midi": 35,
          "name": "B1",
          "ticks": 265440,
          "time": 204.81461000000002,
          "velocity": 0.30708661417322836
        },
        {
          "duration": 0.18518499999998994,
          "durationTicks": 240,
          "midi": 58,
          "name": "A#3",
          "ticks": 265440,
          "time": 204.81461000000002,
          "velocity": 0.2440944881889764
        },
        {
          "duration": 0.18518499999998994,
          "durationTicks": 240,
          "midi": 79,
          "name": "G5",
          "ticks": 265440,
          "time": 204.81461000000002,
          "velocity": 0.29133858267716534
        },
        {
          "duration": 0.18518500000001836,
          "durationTicks": 240,
          "midi": 31,
          "name": "G1",
          "ticks": 265680,
          "time": 204.999795,
          "velocity": 0.2755905511811024
        },
        {
          "duration": 0.18518500000001836,
          "durationTicks": 240,
          "midi": 51,
          "name": "D#3",
          "ticks": 265680,
          "time": 204.999795,
          "velocity": 0.25196850393700787
        },
        {
          "duration": 0.18518500000001836,
          "durationTicks": 240,
          "midi": 53,
          "name": "F3",
          "ticks": 265680,
          "time": 204.999795,
          "velocity": 0.2125984251968504
        },
        {
          "duration": 0.18518500000001836,
          "durationTicks": 240,
          "midi": 55,
          "name": "G3",
          "ticks": 265680,
          "time": 204.999795,
          "velocity": 0.2677165354330709
        },
        {
          "duration": 0.18518500000001836,
          "durationTicks": 240,
          "midi": 58,
          "name": "A#3",
          "ticks": 265680,
          "time": 204.999795,
          "velocity": 0.33070866141732286
        },
        {
          "duration": 0.18518500000001836,
          "durationTicks": 240,
          "midi": 62,
          "name": "D4",
          "ticks": 265680,
          "time": 204.999795,
          "velocity": 0.2755905511811024
        },
        {
          "duration": 0.18518500000001836,
          "durationTicks": 240,
          "midi": 63,
          "name": "D#4",
          "ticks": 265680,
          "time": 204.999795,
          "velocity": 0.23622047244094488
        },
        {
          "duration": 0.18518500000001836,
          "durationTicks": 240,
          "midi": 67,
          "name": "G4",
          "ticks": 265680,
          "time": 204.999795,
          "velocity": 0.2677165354330709
        },
        {
          "duration": 0.18518500000001836,
          "durationTicks": 240,
          "midi": 70,
          "name": "A#4",
          "ticks": 265680,
          "time": 204.999795,
          "velocity": 0.33070866141732286
        },
        {
          "duration": 0.18518500000001836,
          "durationTicks": 240,
          "midi": 75,
          "name": "D#5",
          "ticks": 265680,
          "time": 204.999795,
          "velocity": 0.23622047244094488
        },
        {
          "duration": 0.18518500000001836,
          "durationTicks": 240,
          "midi": 79,
          "name": "G5",
          "ticks": 265680,
          "time": 204.999795,
          "velocity": 0.2204724409448819
        },
        {
          "duration": 0.18518499999998994,
          "durationTicks": 240,
          "midi": 36,
          "name": "C2",
          "ticks": 265920,
          "time": 205.18498000000002,
          "velocity": 0.33858267716535434
        },
        {
          "duration": 0.18518499999998994,
          "durationTicks": 240,
          "midi": 77,
          "name": "F5",
          "ticks": 265920,
          "time": 205.18498000000002,
          "velocity": 0.2047244094488189
        },
        {
          "duration": 0.21604916666669283,
          "durationTicks": 280,
          "midi": 51,
          "name": "D#3",
          "ticks": 266160,
          "time": 205.37016500000001,
          "velocity": 0.2047244094488189
        },
        {
          "duration": 0.21604916666669283,
          "durationTicks": 280,
          "midi": 55,
          "name": "G3",
          "ticks": 266160,
          "time": 205.37016500000001,
          "velocity": 0.2755905511811024
        },
        {
          "duration": 0.21604916666669283,
          "durationTicks": 280,
          "midi": 58,
          "name": "A#3",
          "ticks": 266160,
          "time": 205.37016500000001,
          "velocity": 0.2677165354330709
        },
        {
          "duration": 0.21604916666669283,
          "durationTicks": 280,
          "midi": 62,
          "name": "D4",
          "ticks": 266160,
          "time": 205.37016500000001,
          "velocity": 0.2755905511811024
        },
        {
          "duration": 0.21604916666669283,
          "durationTicks": 280,
          "midi": 67,
          "name": "G4",
          "ticks": 266160,
          "time": 205.37016500000001,
          "velocity": 0.25984251968503935
        },
        {
          "duration": 0.21604916666669283,
          "durationTicks": 280,
          "midi": 72,
          "name": "C5",
          "ticks": 266160,
          "time": 205.37016500000001,
          "velocity": 0.4015748031496063
        },
        {
          "duration": 0.21604916666669283,
          "durationTicks": 280,
          "midi": 84,
          "name": "C6",
          "ticks": 266160,
          "time": 205.37016500000001,
          "velocity": 0.4015748031496063
        },
        {
          "duration": 0.18518500000001836,
          "durationTicks": 240,
          "midi": 31,
          "name": "G1",
          "ticks": 266400,
          "time": 205.55535,
          "velocity": 0.36220472440944884
        },
        {
          "duration": 0.18518500000001836,
          "durationTicks": 240,
          "midi": 58,
          "name": "A#3",
          "ticks": 266400,
          "time": 205.55535,
          "velocity": 0.2677165354330709
        },
        {
          "duration": 0.18518500000001836,
          "durationTicks": 240,
          "midi": 77,
          "name": "F5",
          "ticks": 266400,
          "time": 205.55535,
          "velocity": 0.1889763779527559
        },
        {
          "duration": 0.18518499999998994,
          "durationTicks": 240,
          "midi": 30,
          "name": "F#1",
          "ticks": 266640,
          "time": 205.74053500000002,
          "velocity": 0.33858267716535434
        },
        {
          "duration": 0.18518499999998994,
          "durationTicks": 240,
          "midi": 51,
          "name": "D#3",
          "ticks": 266640,
          "time": 205.74053500000002,
          "velocity": 0.23622047244094488
        },
        {
          "duration": 0.18518499999998994,
          "durationTicks": 240,
          "midi": 58,
          "name": "A#3",
          "ticks": 266640,
          "time": 205.74053500000002,
          "velocity": 0.25984251968503935
        },
        {
          "duration": 0.18518499999998994,
          "durationTicks": 240,
          "midi": 62,
          "name": "D4",
          "ticks": 266640,
          "time": 205.74053500000002,
          "velocity": 0.33070866141732286
        },
        {
          "duration": 0.18518499999998994,
          "durationTicks": 240,
          "midi": 63,
          "name": "D#4",
          "ticks": 266640,
          "time": 205.74053500000002,
          "velocity": 0.2677165354330709
        },
        {
          "duration": 0.18518499999998994,
          "durationTicks": 240,
          "midi": 67,
          "name": "G4",
          "ticks": 266640,
          "time": 205.74053500000002,
          "velocity": 0.29133858267716534
        },
        {
          "duration": 0.18518499999998994,
          "durationTicks": 240,
          "midi": 74,
          "name": "D5",
          "ticks": 266640,
          "time": 205.74053500000002,
          "velocity": 0.33070866141732286
        },
        {
          "duration": 0.18518499999998994,
          "durationTicks": 240,
          "midi": 75,
          "name": "D#5",
          "ticks": 266640,
          "time": 205.74053500000002,
          "velocity": 0.2755905511811024
        },
        {
          "duration": 0.18518500000001836,
          "durationTicks": 240,
          "midi": 29,
          "name": "F1",
          "ticks": 266880,
          "time": 205.92572,
          "velocity": 0.3858267716535433
        },
        {
          "duration": 0.18518500000001836,
          "durationTicks": 240,
          "midi": 53,
          "name": "F3",
          "ticks": 266880,
          "time": 205.92572,
          "velocity": 0.30708661417322836
        },
        {
          "duration": 0.18518499999998994,
          "durationTicks": 240,
          "midi": 58,
          "name": "A#3",
          "ticks": 267120,
          "time": 206.11090500000003,
          "velocity": 0.2677165354330709
        },
        {
          "duration": 0.18518499999998994,
          "durationTicks": 240,
          "midi": 62,
          "name": "D4",
          "ticks": 267120,
          "time": 206.11090500000003,
          "velocity": 0.2440944881889764
        },
        {
          "duration": 0.18518499999998994,
          "durationTicks": 240,
          "midi": 63,
          "name": "D#4",
          "ticks": 267120,
          "time": 206.11090500000003,
          "velocity": 0.25984251968503935
        },
        {
          "duration": 0.18518499999998994,
          "durationTicks": 240,
          "midi": 67,
          "name": "G4",
          "ticks": 267120,
          "time": 206.11090500000003,
          "velocity": 0.2992125984251969
        },
        {
          "duration": 0.18518499999998994,
          "durationTicks": 240,
          "midi": 75,
          "name": "D#5",
          "ticks": 267120,
          "time": 206.11090500000003,
          "velocity": 0.25984251968503935
        },
        {
          "duration": 0.15432083333331548,
          "durationTicks": 200,
          "midi": 36,
          "name": "C2",
          "ticks": 267360,
          "time": 206.29609000000002,
          "velocity": 0.3228346456692913
        },
        {
          "duration": 0.2160491666666644,
          "durationTicks": 280,
          "midi": 63,
          "name": "D#4",
          "ticks": 267360,
          "time": 206.29609000000002,
          "velocity": 0.2440944881889764
        },
        {
          "duration": 0.2160491666666644,
          "durationTicks": 280,
          "midi": 75,
          "name": "D#5",
          "ticks": 267360,
          "time": 206.29609000000002,
          "velocity": 0.36220472440944884
        },
        {
          "duration": 0.18518500000001836,
          "durationTicks": 240,
          "midi": 41,
          "name": "F2",
          "ticks": 267600,
          "time": 206.481275,
          "velocity": 0.28346456692913385
        },
        {
          "duration": 0.18518500000001836,
          "durationTicks": 240,
          "midi": 51,
          "name": "D#3",
          "ticks": 267600,
          "time": 206.481275,
          "velocity": 0.3228346456692913
        },
        {
          "duration": 0.18518500000001836,
          "durationTicks": 240,
          "midi": 58,
          "name": "A#3",
          "ticks": 267600,
          "time": 206.481275,
          "velocity": 0.2440944881889764
        },
        {
          "duration": 0.18518500000001836,
          "durationTicks": 240,
          "midi": 62,
          "name": "D4",
          "ticks": 267600,
          "time": 206.481275,
          "velocity": 0.2755905511811024
        },
        {
          "duration": 0.18518500000001836,
          "durationTicks": 240,
          "midi": 63,
          "name": "D#4",
          "ticks": 267600,
          "time": 206.481275,
          "velocity": 0.25984251968503935
        },
        {
          "duration": 0.18518500000001836,
          "durationTicks": 240,
          "midi": 67,
          "name": "G4",
          "ticks": 267600,
          "time": 206.481275,
          "velocity": 0.2992125984251969
        },
        {
          "duration": 0.18518500000001836,
          "durationTicks": 240,
          "midi": 75,
          "name": "D#5",
          "ticks": 267600,
          "time": 206.481275,
          "velocity": 0.25984251968503935
        },
        {
          "duration": 0.15432083333331548,
          "durationTicks": 200,
          "midi": 39,
          "name": "D#2",
          "ticks": 267840,
          "time": 206.66646000000003,
          "velocity": 0.28346456692913385
        },
        {
          "duration": 0.15432083333331548,
          "durationTicks": 200,
          "midi": 51,
          "name": "D#3",
          "ticks": 267840,
          "time": 206.66646000000003,
          "velocity": 0.33858267716535434
        },
        {
          "duration": 0.15432083333331548,
          "durationTicks": 200,
          "midi": 58,
          "name": "A#3",
          "ticks": 267840,
          "time": 206.66646000000003,
          "velocity": 0.2992125984251969
        },
        {
          "duration": 0.15432083333331548,
          "durationTicks": 200,
          "midi": 63,
          "name": "D#4",
          "ticks": 267840,
          "time": 206.66646000000003,
          "velocity": 0.33858267716535434
        },
        {
          "duration": 0.15432083333331548,
          "durationTicks": 200,
          "midi": 77,
          "name": "F5",
          "ticks": 267840,
          "time": 206.66646000000003,
          "velocity": 0.3543307086614173
        },
        {
          "duration": 0.18518499999998994,
          "durationTicks": 240,
          "midi": 57,
          "name": "A3",
          "ticks": 268080,
          "time": 206.85164500000002,
          "velocity": 0.2283464566929134
        },
        {
          "duration": 0.18518499999998994,
          "durationTicks": 240,
          "midi": 60,
          "name": "C4",
          "ticks": 268080,
          "time": 206.85164500000002,
          "velocity": 0.2204724409448819
        },
        {
          "duration": 0.18518499999998994,
          "durationTicks": 240,
          "midi": 63,
          "name": "D#4",
          "ticks": 268080,
          "time": 206.85164500000002,
          "velocity": 0.33858267716535434
        },
        {
          "duration": 0.18518499999998994,
          "durationTicks": 240,
          "midi": 67,
          "name": "G4",
          "ticks": 268080,
          "time": 206.85164500000002,
          "velocity": 0.3228346456692913
        },
        {
          "duration": 0.18518499999998994,
          "durationTicks": 240,
          "midi": 72,
          "name": "C5",
          "ticks": 268080,
          "time": 206.85164500000002,
          "velocity": 0.2204724409448819
        },
        {
          "duration": 0.18518499999998994,
          "durationTicks": 240,
          "midi": 75,
          "name": "D#5",
          "ticks": 268080,
          "time": 206.85164500000002,
          "velocity": 0.2440944881889764
        },
        {
          "duration": 0.18518500000001836,
          "durationTicks": 240,
          "midi": 41,
          "name": "F2",
          "ticks": 268320,
          "time": 207.03683,
          "velocity": 0.2440944881889764
        },
        {
          "duration": 0.18518500000001836,
          "durationTicks": 240,
          "midi": 53,
          "name": "F3",
          "ticks": 268320,
          "time": 207.03683,
          "velocity": 0.23622047244094488
        },
        {
          "duration": 0.18518500000001836,
          "durationTicks": 240,
          "midi": 60,
          "name": "C4",
          "ticks": 268320,
          "time": 207.03683,
          "velocity": 0.2755905511811024
        },
        {
          "duration": 0.18518500000001836,
          "durationTicks": 240,
          "midi": 63,
          "name": "D#4",
          "ticks": 268320,
          "time": 207.03683,
          "velocity": 0.28346456692913385
        },
        {
          "duration": 0.18518500000001836,
          "durationTicks": 240,
          "midi": 75,
          "name": "D#5",
          "ticks": 268320,
          "time": 207.03683,
          "velocity": 0.3464566929133858
        },
        {
          "duration": 0.18518499999998994,
          "durationTicks": 240,
          "midi": 57,
          "name": "A3",
          "ticks": 268560,
          "time": 207.22201500000003,
          "velocity": 0.25984251968503935
        },
        {
          "duration": 0.18518499999998994,
          "durationTicks": 240,
          "midi": 58,
          "name": "A#3",
          "ticks": 268560,
          "time": 207.22201500000003,
          "velocity": 0.25196850393700787
        },
        {
          "duration": 0.18518499999998994,
          "durationTicks": 240,
          "midi": 60,
          "name": "C4",
          "ticks": 268560,
          "time": 207.22201500000003,
          "velocity": 0.2677165354330709
        },
        {
          "duration": 0.18518499999998994,
          "durationTicks": 240,
          "midi": 63,
          "name": "D#4",
          "ticks": 268560,
          "time": 207.22201500000003,
          "velocity": 0.2440944881889764
        },
        {
          "duration": 0.18518499999998994,
          "durationTicks": 240,
          "midi": 67,
          "name": "G4",
          "ticks": 268560,
          "time": 207.22201500000003,
          "velocity": 0.31496062992125984
        },
        {
          "duration": 0.18518499999998994,
          "durationTicks": 240,
          "midi": 38,
          "name": "D2",
          "ticks": 268800,
          "time": 207.40720000000002,
          "velocity": 0.3464566929133858
        },
        {
          "duration": 0.18518499999998994,
          "durationTicks": 240,
          "midi": 50,
          "name": "D3",
          "ticks": 268800,
          "time": 207.40720000000002,
          "velocity": 0.30708661417322836
        },
        {
          "duration": 0.18518499999998994,
          "durationTicks": 240,
          "midi": 59,
          "name": "B3",
          "ticks": 268800,
          "time": 207.40720000000002,
          "velocity": 0.1968503937007874
        },
        {
          "duration": 0.18518499999998994,
          "durationTicks": 240,
          "midi": 62,
          "name": "D4",
          "ticks": 268800,
          "time": 207.40720000000002,
          "velocity": 0.25984251968503935
        },
        {
          "duration": 0.18518499999998994,
          "durationTicks": 240,
          "midi": 66,
          "name": "F#4",
          "ticks": 268800,
          "time": 207.40720000000002,
          "velocity": 0.2204724409448819
        },
        {
          "duration": 0.18518499999998994,
          "durationTicks": 240,
          "midi": 69,
          "name": "A4",
          "ticks": 268800,
          "time": 207.40720000000002,
          "velocity": 0.23622047244094488
        },
        {
          "duration": 0.18518499999998994,
          "durationTicks": 240,
          "midi": 74,
          "name": "D5",
          "ticks": 268800,
          "time": 207.40720000000002,
          "velocity": 0.33858267716535434
        },
        {
          "duration": 0.1543208333333439,
          "durationTicks": 200,
          "midi": 55,
          "name": "G3",
          "ticks": 269040,
          "time": 207.592385,
          "velocity": 0.1968503937007874
        },
        {
          "duration": 0.18518500000001836,
          "durationTicks": 240,
          "midi": 59,
          "name": "B3",
          "ticks": 269040,
          "time": 207.592385,
          "velocity": 0.2992125984251969
        },
        {
          "duration": 0.18518500000001836,
          "durationTicks": 240,
          "midi": 71,
          "name": "B4",
          "ticks": 269040,
          "time": 207.592385,
          "velocity": 0.2992125984251969
        },
        {
          "duration": 0.18518499999998994,
          "durationTicks": 240,
          "midi": 55,
          "name": "G3",
          "ticks": 269280,
          "time": 207.77757000000003,
          "velocity": 0.2047244094488189
        },
        {
          "duration": 0.18518499999998994,
          "durationTicks": 240,
          "midi": 59,
          "name": "B3",
          "ticks": 269280,
          "time": 207.77757000000003,
          "velocity": 0.31496062992125984
        },
        {
          "duration": 0.18518499999998994,
          "durationTicks": 240,
          "midi": 62,
          "name": "D4",
          "ticks": 269280,
          "time": 207.77757000000003,
          "velocity": 0.2677165354330709
        },
        {
          "duration": 0.18518499999998994,
          "durationTicks": 240,
          "midi": 66,
          "name": "F#4",
          "ticks": 269280,
          "time": 207.77757000000003,
          "velocity": 0.25984251968503935
        },
        {
          "duration": 0.18518499999998994,
          "durationTicks": 240,
          "midi": 71,
          "name": "B4",
          "ticks": 269280,
          "time": 207.77757000000003,
          "velocity": 0.31496062992125984
        },
        {
          "duration": 0.18518499999998994,
          "durationTicks": 240,
          "midi": 31,
          "name": "G1",
          "ticks": 269520,
          "time": 207.96275500000002,
          "velocity": 0.5196850393700787
        },
        {
          "duration": 0.18518499999998994,
          "durationTicks": 240,
          "midi": 55,
          "name": "G3",
          "ticks": 269520,
          "time": 207.96275500000002,
          "velocity": 0.2204724409448819
        },
        {
          "duration": 0.18518499999998994,
          "durationTicks": 240,
          "midi": 59,
          "name": "B3",
          "ticks": 269520,
          "time": 207.96275500000002,
          "velocity": 0.3543307086614173
        },
        {
          "duration": 0.18518499999998994,
          "durationTicks": 240,
          "midi": 62,
          "name": "D4",
          "ticks": 269520,
          "time": 207.96275500000002,
          "velocity": 0.2283464566929134
        },
        {
          "duration": 0.18518499999998994,
          "durationTicks": 240,
          "midi": 66,
          "name": "F#4",
          "ticks": 269520,
          "time": 207.96275500000002,
          "velocity": 0.36220472440944884
        },
        {
          "duration": 0.18518499999998994,
          "durationTicks": 240,
          "midi": 78,
          "name": "F#5",
          "ticks": 269520,
          "time": 207.96275500000002,
          "velocity": 0.5590551181102362
        },
        {
          "duration": 0.18518499999998994,
          "durationTicks": 240,
          "midi": 90,
          "name": "F#6",
          "ticks": 269520,
          "time": 207.96275500000002,
          "velocity": 0.5590551181102362
        },
        {
          "duration": 0.18518500000001836,
          "durationTicks": 240,
          "midi": 38,
          "name": "D2",
          "ticks": 269760,
          "time": 208.14794,
          "velocity": 0.3228346456692913
        },
        {
          "duration": 0.18518500000001836,
          "durationTicks": 240,
          "midi": 55,
          "name": "G3",
          "ticks": 269760,
          "time": 208.14794,
          "velocity": 0.28346456692913385
        },
        {
          "duration": 0.18518500000001836,
          "durationTicks": 240,
          "midi": 59,
          "name": "B3",
          "ticks": 269760,
          "time": 208.14794,
          "velocity": 0.31496062992125984
        },
        {
          "duration": 0.15432083333331548,
          "durationTicks": 200,
          "midi": 38,
          "name": "D2",
          "ticks": 270000,
          "time": 208.33312500000002,
          "velocity": 0.3228346456692913
        },
        {
          "duration": 0.15432083333331548,
          "durationTicks": 200,
          "midi": 55,
          "name": "G3",
          "ticks": 270000,
          "time": 208.33312500000002,
          "velocity": 0.25196850393700787
        },
        {
          "duration": 0.15432083333331548,
          "durationTicks": 200,
          "midi": 59,
          "name": "B3",
          "ticks": 270000,
          "time": 208.33312500000002,
          "velocity": 0.3464566929133858
        },
        {
          "duration": 0.15432083333331548,
          "durationTicks": 200,
          "midi": 62,
          "name": "D4",
          "ticks": 270000,
          "time": 208.33312500000002,
          "velocity": 0.33858267716535434
        },
        {
          "duration": 0.15432083333331548,
          "durationTicks": 200,
          "midi": 66,
          "name": "F#4",
          "ticks": 270000,
          "time": 208.33312500000002,
          "velocity": 0.2992125984251969
        },
        {
          "duration": 0.15432083333331548,
          "durationTicks": 200,
          "midi": 71,
          "name": "B4",
          "ticks": 270000,
          "time": 208.33312500000002,
          "velocity": 0.3464566929133858
        },
        {
          "duration": 0.15432083333331548,
          "durationTicks": 200,
          "midi": 74,
          "name": "D5",
          "ticks": 270000,
          "time": 208.33312500000002,
          "velocity": 0.33858267716535434
        },
        {
          "duration": 0.18518500000001836,
          "durationTicks": 240,
          "midi": 38,
          "name": "D2",
          "ticks": 270240,
          "time": 208.51831,
          "velocity": 0.4015748031496063
        },
        {
          "duration": 0.09259250000002339,
          "durationTicks": 120,
          "midi": 79,
          "name": "G5",
          "ticks": 270360,
          "time": 208.6109025,
          "velocity": 0.2047244094488189
        },
        {
          "duration": 0.18518499999998994,
          "durationTicks": 240,
          "midi": 32,
          "name": "G#1",
          "ticks": 270480,
          "time": 208.70349500000003,
          "velocity": 0.33858267716535434
        },
        {
          "duration": 0.2160491666666644,
          "durationTicks": 280,
          "midi": 55,
          "name": "G3",
          "ticks": 270480,
          "time": 208.70349500000003,
          "velocity": 0.2755905511811024
        },
        {
          "duration": 0.2160491666666644,
          "durationTicks": 280,
          "midi": 59,
          "name": "B3",
          "ticks": 270480,
          "time": 208.70349500000003,
          "velocity": 0.2440944881889764
        },
        {
          "duration": 0.2160491666666644,
          "durationTicks": 280,
          "midi": 62,
          "name": "D4",
          "ticks": 270480,
          "time": 208.70349500000003,
          "velocity": 0.3228346456692913
        },
        {
          "duration": 0.2160491666666644,
          "durationTicks": 280,
          "midi": 78,
          "name": "F#5",
          "ticks": 270480,
          "time": 208.70349500000003,
          "velocity": 0.3700787401574803
        },
        {
          "duration": 0.2160491666666644,
          "durationTicks": 280,
          "midi": 90,
          "name": "F#6",
          "ticks": 270480,
          "time": 208.70349500000003,
          "velocity": 0.3700787401574803
        },
        {
          "duration": 0.12345666666666943,
          "durationTicks": 160,
          "midi": 88,
          "name": "E6",
          "ticks": 270600,
          "time": 208.79608750000003,
          "velocity": 0.23622047244094488
        },
        {
          "duration": 0.18518499999998994,
          "durationTicks": 240,
          "midi": 40,
          "name": "E2",
          "ticks": 270720,
          "time": 208.88868000000002,
          "velocity": 0.33858267716535434
        },
        {
          "duration": 0.18518499999998994,
          "durationTicks": 240,
          "midi": 57,
          "name": "A3",
          "ticks": 270720,
          "time": 208.88868000000002,
          "velocity": 0.2992125984251969
        },
        {
          "duration": 0.12345666666666943,
          "durationTicks": 160,
          "midi": 84,
          "name": "C6",
          "ticks": 270840,
          "time": 208.98127250000002,
          "velocity": 0.28346456692913385
        },
        {
          "duration": 0.18518500000001836,
          "durationTicks": 240,
          "midi": 40,
          "name": "E2",
          "ticks": 270960,
          "time": 209.073865,
          "velocity": 0.3858267716535433
        },
        {
          "duration": 0.18518500000001836,
          "durationTicks": 240,
          "midi": 62,
          "name": "D4",
          "ticks": 270960,
          "time": 209.073865,
          "velocity": 0.25984251968503935
        },
        {
          "duration": 0.18518500000001836,
          "durationTicks": 240,
          "midi": 66,
          "name": "F#4",
          "ticks": 270960,
          "time": 209.073865,
          "velocity": 0.25984251968503935
        },
        {
          "duration": 0.21604916666669283,
          "durationTicks": 280,
          "midi": 83,
          "name": "B5",
          "ticks": 270960,
          "time": 209.073865,
          "velocity": 0.2047244094488189
        },
        {
          "duration": 0.12345666666669786,
          "durationTicks": 160,
          "midi": 81,
          "name": "A5",
          "ticks": 271080,
          "time": 209.1664575,
          "velocity": 0.29133858267716534
        },
        {
          "duration": 0.15432083333331548,
          "durationTicks": 200,
          "midi": 66,
          "name": "F#4",
          "ticks": 271200,
          "time": 209.25905000000003,
          "velocity": 0.33858267716535434
        },
        {
          "duration": 0.18518499999998994,
          "durationTicks": 240,
          "midi": 79,
          "name": "G5",
          "ticks": 271200,
          "time": 209.25905000000003,
          "velocity": 0.25984251968503935
        },
        {
          "duration": 0.12345666666666943,
          "durationTicks": 160,
          "midi": 78,
          "name": "F#5",
          "ticks": 271320,
          "time": 209.35164250000003,
          "velocity": 0.23622047244094488
        },
        {
          "duration": 0.21604916666669283,
          "durationTicks": 280,
          "midi": 35,
          "name": "B1",
          "ticks": 271440,
          "time": 209.44423500000002,
          "velocity": 0.3464566929133858
        },
        {
          "duration": 0.21604916666669283,
          "durationTicks": 280,
          "midi": 59,
          "name": "B3",
          "ticks": 271440,
          "time": 209.44423500000002,
          "velocity": 0.2440944881889764
        },
        {
          "duration": 0.15432083333331548,
          "durationTicks": 200,
          "midi": 38,
          "name": "D2",
          "ticks": 271680,
          "time": 209.62942,
          "velocity": 0.36220472440944884
        },
        {
          "duration": 0.15432083333331548,
          "durationTicks": 200,
          "midi": 56,
          "name": "G#3",
          "ticks": 271680,
          "time": 209.62942,
          "velocity": 0.36220472440944884
        },
        {
          "duration": 0.15432083333331548,
          "durationTicks": 200,
          "midi": 65,
          "name": "F4",
          "ticks": 271680,
          "time": 209.62942,
          "velocity": 0.33070866141732286
        },
        {
          "duration": 0.15432083333331548,
          "durationTicks": 200,
          "midi": 68,
          "name": "G#4",
          "ticks": 271680,
          "time": 209.62942,
          "velocity": 0.18110236220472442
        },
        {
          "duration": 0.15432083333331548,
          "durationTicks": 200,
          "midi": 71,
          "name": "B4",
          "ticks": 271680,
          "time": 209.62942,
          "velocity": 0.2440944881889764
        },
        {
          "duration": 0.12345666666669786,
          "durationTicks": 160,
          "midi": 59,
          "name": "B3",
          "ticks": 271800,
          "time": 209.7220125,
          "velocity": 0.2440944881889764
        },
        {
          "duration": 0.18518499999998994,
          "durationTicks": 240,
          "midi": 65,
          "name": "F4",
          "ticks": 271920,
          "time": 209.81460500000003,
          "velocity": 0.2992125984251969
        },
        {
          "duration": 0.18518499999998994,
          "durationTicks": 240,
          "midi": 40,
          "name": "E2",
          "ticks": 272160,
          "time": 209.99979000000002,
          "velocity": 0.3858267716535433
        },
        {
          "duration": 0.18518499999998994,
          "durationTicks": 240,
          "midi": 65,
          "name": "F4",
          "ticks": 272160,
          "time": 209.99979000000002,
          "velocity": 0.28346456692913385
        },
        {
          "duration": 0.21604916666669283,
          "durationTicks": 280,
          "midi": 70,
          "name": "A#4",
          "ticks": 272160,
          "time": 209.99979000000002,
          "velocity": 0.2440944881889764
        },
        {
          "duration": 0.18518500000001836,
          "durationTicks": 240,
          "midi": 38,
          "name": "D2",
          "ticks": 272400,
          "time": 210.184975,
          "velocity": 0.33858267716535434
        },
        {
          "duration": 0.18518500000001836,
          "durationTicks": 240,
          "midi": 65,
          "name": "F4",
          "ticks": 272400,
          "time": 210.184975,
          "velocity": 0.25984251968503935
        },
        {
          "duration": 0.18518500000001836,
          "durationTicks": 240,
          "midi": 71,
          "name": "B4",
          "ticks": 272400,
          "time": 210.184975,
          "velocity": 0.2440944881889764
        },
        {
          "duration": 0.18518499999998994,
          "durationTicks": 240,
          "midi": 37,
          "name": "C#2",
          "ticks": 272640,
          "time": 210.37016000000003,
          "velocity": 0.33858267716535434
        },
        {
          "duration": 0.18518499999998994,
          "durationTicks": 240,
          "midi": 57,
          "name": "A3",
          "ticks": 272640,
          "time": 210.37016000000003,
          "velocity": 0.2677165354330709
        },
        {
          "duration": 0.18518499999998994,
          "durationTicks": 240,
          "midi": 59,
          "name": "B3",
          "ticks": 272640,
          "time": 210.37016000000003,
          "velocity": 0.3228346456692913
        },
        {
          "duration": 0.18518499999998994,
          "durationTicks": 240,
          "midi": 64,
          "name": "E4",
          "ticks": 272640,
          "time": 210.37016000000003,
          "velocity": 0.3228346456692913
        },
        {
          "duration": 0.18518499999998994,
          "durationTicks": 240,
          "midi": 69,
          "name": "A4",
          "ticks": 272640,
          "time": 210.37016000000003,
          "velocity": 0.2677165354330709
        },
        {
          "duration": 0.12345666666666943,
          "durationTicks": 160,
          "midi": 61,
          "name": "C#4",
          "ticks": 272760,
          "time": 210.46275250000002,
          "velocity": 0.1889763779527559
        },
        {
          "duration": 0.15432083333331548,
          "durationTicks": 200,
          "midi": 49,
          "name": "C#3",
          "ticks": 272880,
          "time": 210.55534500000002,
          "velocity": 0.5039370078740157
        },
        {
          "duration": 0.18518500000001836,
          "durationTicks": 240,
          "midi": 61,
          "name": "C#4",
          "ticks": 273120,
          "time": 210.74053,
          "velocity": 0.31496062992125984
        },
        {
          "duration": 0.18518500000001836,
          "durationTicks": 240,
          "midi": 73,
          "name": "C#5",
          "ticks": 273120,
          "time": 210.74053,
          "velocity": 0.31496062992125984
        },
        {
          "duration": 0.18518499999998994,
          "durationTicks": 240,
          "midi": 47,
          "name": "B2",
          "ticks": 273360,
          "time": 210.92571500000003,
          "velocity": 0.36220472440944884
        },
        {
          "duration": 0.18518499999998994,
          "durationTicks": 240,
          "midi": 56,
          "name": "G#3",
          "ticks": 273360,
          "time": 210.92571500000003,
          "velocity": 0.2047244094488189
        },
        {
          "duration": 0.18518499999998994,
          "durationTicks": 240,
          "midi": 59,
          "name": "B3",
          "ticks": 273360,
          "time": 210.92571500000003,
          "velocity": 0.3228346456692913
        },
        {
          "duration": 0.18518499999998994,
          "durationTicks": 240,
          "midi": 64,
          "name": "E4",
          "ticks": 273360,
          "time": 210.92571500000003,
          "velocity": 0.3464566929133858
        },
        {
          "duration": 0.18518499999998994,
          "durationTicks": 240,
          "midi": 68,
          "name": "G#4",
          "ticks": 273360,
          "time": 210.92571500000003,
          "velocity": 0.2047244094488189
        },
        {
          "duration": 0.18518499999998994,
          "durationTicks": 240,
          "midi": 35,
          "name": "B1",
          "ticks": 273600,
          "time": 211.11090000000002,
          "velocity": 0.33858267716535434
        },
        {
          "duration": 0.18518500000001836,
          "durationTicks": 240,
          "midi": 45,
          "name": "A2",
          "ticks": 273840,
          "time": 211.296085,
          "velocity": 0.33070866141732286
        },
        {
          "duration": 0.18518500000001836,
          "durationTicks": 240,
          "midi": 54,
          "name": "F#3",
          "ticks": 273840,
          "time": 211.296085,
          "velocity": 0.25984251968503935
        },
        {
          "duration": 0.18518500000001836,
          "durationTicks": 240,
          "midi": 57,
          "name": "A3",
          "ticks": 273840,
          "time": 211.296085,
          "velocity": 0.2755905511811024
        },
        {
          "duration": 0.18518500000001836,
          "durationTicks": 240,
          "midi": 61,
          "name": "C#4",
          "ticks": 273840,
          "time": 211.296085,
          "velocity": 0.28346456692913385
        },
        {
          "duration": 0.18518500000001836,
          "durationTicks": 240,
          "midi": 66,
          "name": "F#4",
          "ticks": 273840,
          "time": 211.296085,
          "velocity": 0.3464566929133858
        },
        {
          "duration": 0.18518500000001836,
          "durationTicks": 240,
          "midi": 73,
          "name": "C#5",
          "ticks": 273840,
          "time": 211.296085,
          "velocity": 0.28346456692913385
        },
        {
          "duration": 0.21604916666669283,
          "durationTicks": 280,
          "midi": 78,
          "name": "F#5",
          "ticks": 273840,
          "time": 211.296085,
          "velocity": 0.4645669291338583
        },
        {
          "duration": 0.18518499999998994,
          "durationTicks": 240,
          "midi": 33,
          "name": "A1",
          "ticks": 274080,
          "time": 211.48127000000002,
          "velocity": 0.3228346456692913
        },
        {
          "duration": 0.18518500000001836,
          "durationTicks": 240,
          "midi": 32,
          "name": "G#1",
          "ticks": 274320,
          "time": 211.666455,
          "velocity": 0.3779527559055118
        },
        {
          "duration": 0.18518500000001836,
          "durationTicks": 240,
          "midi": 44,
          "name": "G#2",
          "ticks": 274320,
          "time": 211.666455,
          "velocity": 0.2992125984251969
        },
        {
          "duration": 0.18518500000001836,
          "durationTicks": 240,
          "midi": 54,
          "name": "F#3",
          "ticks": 274320,
          "time": 211.666455,
          "velocity": 0.2204724409448819
        },
        {
          "duration": 0.18518500000001836,
          "durationTicks": 240,
          "midi": 56,
          "name": "G#3",
          "ticks": 274320,
          "time": 211.666455,
          "velocity": 0.2283464566929134
        },
        {
          "duration": 0.18518500000001836,
          "durationTicks": 240,
          "midi": 60,
          "name": "C4",
          "ticks": 274320,
          "time": 211.666455,
          "velocity": 0.30708661417322836
        },
        {
          "duration": 0.18518500000001836,
          "durationTicks": 240,
          "midi": 65,
          "name": "F4",
          "ticks": 274320,
          "time": 211.666455,
          "velocity": 0.2677165354330709
        },
        {
          "duration": 0.18518500000001836,
          "durationTicks": 240,
          "midi": 68,
          "name": "G#4",
          "ticks": 274320,
          "time": 211.666455,
          "velocity": 0.3858267716535433
        },
        {
          "duration": 0.18518500000001836,
          "durationTicks": 240,
          "midi": 72,
          "name": "C5",
          "ticks": 274320,
          "time": 211.666455,
          "velocity": 0.30708661417322836
        },
        {
          "duration": 0.15432083333331548,
          "durationTicks": 200,
          "midi": 80,
          "name": "G#5",
          "ticks": 274320,
          "time": 211.666455,
          "velocity": 0.3858267716535433
        },
        {
          "duration": 0.24691333333333887,
          "durationTicks": 320,
          "midi": 92,
          "name": "G#6",
          "ticks": 274440,
          "time": 211.7590475,
          "velocity": 0.33070866141732286
        },
        {
          "duration": 0.15432083333331548,
          "durationTicks": 200,
          "midi": 60,
          "name": "C4",
          "ticks": 274560,
          "time": 211.85164000000003,
          "velocity": 0.31496062992125984
        },
        {
          "duration": 0.18518499999998994,
          "durationTicks": 240,
          "midi": 32,
          "name": "G#1",
          "ticks": 274800,
          "time": 212.03682500000002,
          "velocity": 0.4094488188976378
        },
        {
          "duration": 0.18518499999998994,
          "durationTicks": 240,
          "midi": 44,
          "name": "G#2",
          "ticks": 274800,
          "time": 212.03682500000002,
          "velocity": 0.4094488188976378
        },
        {
          "duration": 0.18518499999998994,
          "durationTicks": 240,
          "midi": 60,
          "name": "C4",
          "ticks": 274800,
          "time": 212.03682500000002,
          "velocity": 0.2992125984251969
        },
        {
          "duration": 0.21604916666669283,
          "durationTicks": 280,
          "midi": 34,
          "name": "A#1",
          "ticks": 275040,
          "time": 212.22201,
          "velocity": 0.30708661417322836
        },
        {
          "duration": 0.21604916666669283,
          "durationTicks": 280,
          "midi": 44,
          "name": "G#2",
          "ticks": 275040,
          "time": 212.22201,
          "velocity": 0.4015748031496063
        },
        {
          "duration": 0.21604916666669283,
          "durationTicks": 280,
          "midi": 54,
          "name": "F#3",
          "ticks": 275040,
          "time": 212.22201,
          "velocity": 0.2992125984251969
        },
        {
          "duration": 0.18518500000001836,
          "durationTicks": 240,
          "midi": 60,
          "name": "C4",
          "ticks": 275040,
          "time": 212.22201,
          "velocity": 0.28346456692913385
        },
        {
          "duration": 0.21604916666669283,
          "durationTicks": 280,
          "midi": 69,
          "name": "A4",
          "ticks": 275040,
          "time": 212.22201,
          "velocity": 0.4645669291338583
        },
        {
          "duration": 0.21604916666669283,
          "durationTicks": 280,
          "midi": 81,
          "name": "A5",
          "ticks": 275040,
          "time": 212.22201,
          "velocity": 0.4645669291338583
        },
        {
          "duration": 0.18518499999998994,
          "durationTicks": 240,
          "midi": 35,
          "name": "B1",
          "ticks": 275280,
          "time": 212.40719500000003,
          "velocity": 0.30708661417322836
        },
        {
          "duration": 0.18518499999998994,
          "durationTicks": 240,
          "midi": 36,
          "name": "C2",
          "ticks": 275280,
          "time": 212.40719500000003,
          "velocity": 0.3228346456692913
        },
        {
          "duration": 0.18518499999998994,
          "durationTicks": 240,
          "midi": 36,
          "name": "C2",
          "ticks": 275520,
          "time": 212.59238000000002,
          "velocity": 0.41732283464566927
        },
        {
          "duration": 0.18518499999998994,
          "durationTicks": 240,
          "midi": 44,
          "name": "G#2",
          "ticks": 275520,
          "time": 212.59238000000002,
          "velocity": 0.4094488188976378
        },
        {
          "duration": 0.18518499999998994,
          "durationTicks": 240,
          "midi": 54,
          "name": "F#3",
          "ticks": 275520,
          "time": 212.59238000000002,
          "velocity": 0.28346456692913385
        },
        {
          "duration": 0.18518499999998994,
          "durationTicks": 240,
          "midi": 56,
          "name": "G#3",
          "ticks": 275520,
          "time": 212.59238000000002,
          "velocity": 0.4094488188976378
        },
        {
          "duration": 0.18518499999998994,
          "durationTicks": 240,
          "midi": 60,
          "name": "C4",
          "ticks": 275520,
          "time": 212.59238000000002,
          "velocity": 0.33070866141732286
        },
        {
          "duration": 0.18518499999998994,
          "durationTicks": 240,
          "midi": 64,
          "name": "E4",
          "ticks": 275520,
          "time": 212.59238000000002,
          "velocity": 0.2204724409448819
        },
        {
          "duration": 0.18518499999998994,
          "durationTicks": 240,
          "midi": 68,
          "name": "G#4",
          "ticks": 275520,
          "time": 212.59238000000002,
          "velocity": 0.33070866141732286
        },
        {
          "duration": 0.18518499999998994,
          "durationTicks": 240,
          "midi": 71,
          "name": "B4",
          "ticks": 275520,
          "time": 212.59238000000002,
          "velocity": 0.5354330708661418
        },
        {
          "duration": 0.18518499999998994,
          "durationTicks": 240,
          "midi": 83,
          "name": "B5",
          "ticks": 275520,
          "time": 212.59238000000002,
          "velocity": 0.5354330708661418
        },
        {
          "duration": 0.21604916666669283,
          "durationTicks": 280,
          "midi": 32,
          "name": "G#1",
          "ticks": 275760,
          "time": 212.777565,
          "velocity": 0.4330708661417323
        },
        {
          "duration": 0.18518499999998994,
          "durationTicks": 240,
          "midi": 30,
          "name": "F#1",
          "ticks": 276000,
          "time": 212.96275000000003,
          "velocity": 0.3464566929133858
        },
        {
          "duration": 0.18518499999998994,
          "durationTicks": 240,
          "midi": 69,
          "name": "A4",
          "ticks": 276000,
          "time": 212.96275000000003,
          "velocity": 0.2440944881889764
        },
        {
          "duration": 0.18518499999998994,
          "durationTicks": 240,
          "midi": 81,
          "name": "A5",
          "ticks": 276000,
          "time": 212.96275000000003,
          "velocity": 0.2440944881889764
        },
        {
          "duration": 0.18518499999998994,
          "durationTicks": 240,
          "midi": 32,
          "name": "G#1",
          "ticks": 276240,
          "time": 213.14793500000002,
          "velocity": 0.36220472440944884
        },
        {
          "duration": 0.18518499999998994,
          "durationTicks": 240,
          "midi": 44,
          "name": "G#2",
          "ticks": 276240,
          "time": 213.14793500000002,
          "velocity": 0.30708661417322836
        },
        {
          "duration": 0.3703700000000083,
          "durationTicks": 480,
          "midi": 34,
          "name": "A#1",
          "ticks": 276480,
          "time": 213.33312,
          "velocity": 0.4881889763779528
        },
        {
          "duration": 0.3703700000000083,
          "durationTicks": 480,
          "midi": 56,
          "name": "G#3",
          "ticks": 276480,
          "time": 213.33312,
          "velocity": 0.2992125984251969
        },
        {
          "duration": 0.3703700000000083,
          "durationTicks": 480,
          "midi": 58,
          "name": "A#3",
          "ticks": 276480,
          "time": 213.33312,
          "velocity": 0.2283464566929134
        },
        {
          "duration": 0.3703700000000083,
          "durationTicks": 480,
          "midi": 61,
          "name": "C#4",
          "ticks": 276480,
          "time": 213.33312,
          "velocity": 0.28346456692913385
        },
        {
          "duration": 0.3703700000000083,
          "durationTicks": 480,
          "midi": 64,
          "name": "E4",
          "ticks": 276480,
          "time": 213.33312,
          "velocity": 0.2283464566929134
        },
        {
          "duration": 0.3703700000000083,
          "durationTicks": 480,
          "midi": 68,
          "name": "G#4",
          "ticks": 276480,
          "time": 213.33312,
          "velocity": 0.3858267716535433
        },
        {
          "duration": 0.3703700000000083,
          "durationTicks": 480,
          "midi": 73,
          "name": "C#5",
          "ticks": 276480,
          "time": 213.33312,
          "velocity": 0.28346456692913385
        },
        {
          "duration": 0.3703700000000083,
          "durationTicks": 480,
          "midi": 76,
          "name": "E5",
          "ticks": 276480,
          "time": 213.33312,
          "velocity": 0.2204724409448819
        },
        {
          "duration": 0.3703700000000083,
          "durationTicks": 480,
          "midi": 80,
          "name": "G#5",
          "ticks": 276480,
          "time": 213.33312,
          "velocity": 0.3858267716535433
        },
        {
          "duration": 0.15432083333331548,
          "durationTicks": 200,
          "midi": 70,
          "name": "A#4",
          "ticks": 276960,
          "time": 213.70349000000002,
          "velocity": 0.25984251968503935
        },
        {
          "duration": 0.18518500000001836,
          "durationTicks": 240,
          "midi": 34,
          "name": "A#1",
          "ticks": 277200,
          "time": 213.888675,
          "velocity": 0.5433070866141733
        },
        {
          "duration": 0.18518500000001836,
          "durationTicks": 240,
          "midi": 56,
          "name": "G#3",
          "ticks": 277200,
          "time": 213.888675,
          "velocity": 0.4409448818897638
        },
        {
          "duration": 0.18518500000001836,
          "durationTicks": 240,
          "midi": 61,
          "name": "C#4",
          "ticks": 277200,
          "time": 213.888675,
          "velocity": 0.4015748031496063
        },
        {
          "duration": 0.18518500000001836,
          "durationTicks": 240,
          "midi": 64,
          "name": "E4",
          "ticks": 277200,
          "time": 213.888675,
          "velocity": 0.28346456692913385
        },
        {
          "duration": 0.18518500000001836,
          "durationTicks": 240,
          "midi": 68,
          "name": "G#4",
          "ticks": 277200,
          "time": 213.888675,
          "velocity": 0.2204724409448819
        },
        {
          "duration": 0.18518500000001836,
          "durationTicks": 240,
          "midi": 73,
          "name": "C#5",
          "ticks": 277200,
          "time": 213.888675,
          "velocity": 0.49606299212598426
        },
        {
          "duration": 0.18518500000001836,
          "durationTicks": 240,
          "midi": 76,
          "name": "E5",
          "ticks": 277200,
          "time": 213.888675,
          "velocity": 0.25196850393700787
        },
        {
          "duration": 0.18518500000001836,
          "durationTicks": 240,
          "midi": 85,
          "name": "C#6",
          "ticks": 277200,
          "time": 213.888675,
          "velocity": 0.49606299212598426
        },
        {
          "duration": 0.3395058333333054,
          "durationTicks": 440,
          "midi": 76,
          "name": "E5",
          "ticks": 277440,
          "time": 214.07386000000002,
          "velocity": 0.23622047244094488
        },
        {
          "duration": 0.15432083333331548,
          "durationTicks": 200,
          "midi": 39,
          "name": "D#2",
          "ticks": 277920,
          "time": 214.44423000000003,
          "velocity": 0.4015748031496063
        },
        {
          "duration": 0.15432083333331548,
          "durationTicks": 200,
          "midi": 51,
          "name": "D#3",
          "ticks": 277920,
          "time": 214.44423000000003,
          "velocity": 0.4015748031496063
        },
        {
          "duration": 0.15432083333331548,
          "durationTicks": 200,
          "midi": 55,
          "name": "G3",
          "ticks": 277920,
          "time": 214.44423000000003,
          "velocity": 0.2677165354330709
        },
        {
          "duration": 0.15432083333331548,
          "durationTicks": 200,
          "midi": 60,
          "name": "C4",
          "ticks": 277920,
          "time": 214.44423000000003,
          "velocity": 0.2992125984251969
        },
        {
          "duration": 0.15432083333331548,
          "durationTicks": 200,
          "midi": 61,
          "name": "C#4",
          "ticks": 277920,
          "time": 214.44423000000003,
          "velocity": 0.2992125984251969
        },
        {
          "duration": 0.15432083333331548,
          "durationTicks": 200,
          "midi": 64,
          "name": "E4",
          "ticks": 277920,
          "time": 214.44423000000003,
          "velocity": 0.33858267716535434
        },
        {
          "duration": 0.15432083333331548,
          "durationTicks": 200,
          "midi": 67,
          "name": "G4",
          "ticks": 277920,
          "time": 214.44423000000003,
          "velocity": 0.2677165354330709
        },
        {
          "duration": 0.15432083333331548,
          "durationTicks": 200,
          "midi": 72,
          "name": "C5",
          "ticks": 277920,
          "time": 214.44423000000003,
          "velocity": 0.3228346456692913
        },
        {
          "duration": 0.2160491666666644,
          "durationTicks": 280,
          "midi": 76,
          "name": "E5",
          "ticks": 277920,
          "time": 214.44423000000003,
          "velocity": 0.5196850393700787
        },
        {
          "duration": 0.2160491666666644,
          "durationTicks": 280,
          "midi": 84,
          "name": "C6",
          "ticks": 277920,
          "time": 214.44423000000003,
          "velocity": 0.3228346456692913
        },
        {
          "duration": 0.2160491666666644,
          "durationTicks": 280,
          "midi": 87,
          "name": "D#6",
          "ticks": 277920,
          "time": 214.44423000000003,
          "velocity": 0.3779527559055118
        },
        {
          "duration": 0.2160491666666644,
          "durationTicks": 280,
          "midi": 88,
          "name": "E6",
          "ticks": 277920,
          "time": 214.44423000000003,
          "velocity": 0.5196850393700787
        },
        {
          "duration": 0.18518499999998994,
          "durationTicks": 240,
          "midi": 67,
          "name": "G4",
          "ticks": 278160,
          "time": 214.62941500000002,
          "velocity": 0.25984251968503935
        },
        {
          "duration": 0.18518500000001836,
          "durationTicks": 240,
          "midi": 51,
          "name": "D#3",
          "ticks": 278400,
          "time": 214.8146,
          "velocity": 0.4251968503937008
        },
        {
          "duration": 0.18518500000001836,
          "durationTicks": 240,
          "midi": 64,
          "name": "E4",
          "ticks": 278400,
          "time": 214.8146,
          "velocity": 0.23622047244094488
        },
        {
          "duration": 0.09259250000002339,
          "durationTicks": 120,
          "midi": 87,
          "name": "D#6",
          "ticks": 278520,
          "time": 214.9071925,
          "velocity": 0.33858267716535434
        },
        {
          "duration": 0.18518499999998994,
          "durationTicks": 240,
          "midi": 45,
          "name": "A2",
          "ticks": 278640,
          "time": 214.99978500000003,
          "velocity": 0.29133858267716534
        },
        {
          "duration": 0.15432083333331548,
          "durationTicks": 200,
          "midi": 46,
          "name": "A#2",
          "ticks": 278640,
          "time": 214.99978500000003,
          "velocity": 0.2992125984251969
        },
        {
          "duration": 0.18518499999998994,
          "durationTicks": 240,
          "midi": 61,
          "name": "C#4",
          "ticks": 278640,
          "time": 214.99978500000003,
          "velocity": 0.2204724409448819
        },
        {
          "duration": 0.15432083333331548,
          "durationTicks": 200,
          "midi": 64,
          "name": "E4",
          "ticks": 278640,
          "time": 214.99978500000003,
          "velocity": 0.28346456692913385
        },
        {
          "duration": 0.18518499999998994,
          "durationTicks": 240,
          "midi": 67,
          "name": "G4",
          "ticks": 278640,
          "time": 214.99978500000003,
          "velocity": 0.3228346456692913
        },
        {
          "duration": 0.18518499999998994,
          "durationTicks": 240,
          "midi": 76,
          "name": "E5",
          "ticks": 278640,
          "time": 214.99978500000003,
          "velocity": 0.28346456692913385
        },
        {
          "duration": 0.18518499999998994,
          "durationTicks": 240,
          "midi": 81,
          "name": "A5",
          "ticks": 278640,
          "time": 214.99978500000003,
          "velocity": 0.3464566929133858
        },
        {
          "duration": 0.2160491666666644,
          "durationTicks": 280,
          "midi": 48,
          "name": "C3",
          "ticks": 278880,
          "time": 215.18497000000002,
          "velocity": 0.25984251968503935
        },
        {
          "duration": 0.18518499999998994,
          "durationTicks": 240,
          "midi": 49,
          "name": "C#3",
          "ticks": 278880,
          "time": 215.18497000000002,
          "velocity": 0.2440944881889764
        },
        {
          "duration": 0.18518499999998994,
          "durationTicks": 240,
          "midi": 67,
          "name": "G4",
          "ticks": 278880,
          "time": 215.18497000000002,
          "velocity": 0.33858267716535434
        },
        {
          "duration": 0.09259249999999497,
          "durationTicks": 120,
          "midi": 50,
          "name": "D3",
          "ticks": 279000,
          "time": 215.27756250000002,
          "velocity": 0.28346456692913385
        },
        {
          "duration": 0.24691333333331045,
          "durationTicks": 320,
          "midi": 51,
          "name": "D#3",
          "ticks": 279000,
          "time": 215.27756250000002,
          "velocity": 0.23622047244094488
        },
        {
          "duration": 0.15432083333331548,
          "durationTicks": 200,
          "midi": 42,
          "name": "F#2",
          "ticks": 279120,
          "time": 215.370155,
          "velocity": 0.25984251968503935
        },
        {
          "duration": 0.15432083333331548,
          "durationTicks": 200,
          "midi": 54,
          "name": "F#3",
          "ticks": 279120,
          "time": 215.370155,
          "velocity": 0.25984251968503935
        },
        {
          "duration": 0.15432083333331548,
          "durationTicks": 200,
          "midi": 55,
          "name": "G3",
          "ticks": 279120,
          "time": 215.370155,
          "velocity": 0.30708661417322836
        },
        {
          "duration": 0.15432083333331548,
          "durationTicks": 200,
          "midi": 59,
          "name": "B3",
          "ticks": 279120,
          "time": 215.370155,
          "velocity": 0.28346456692913385
        },
        {
          "duration": 0.15432083333331548,
          "durationTicks": 200,
          "midi": 64,
          "name": "E4",
          "ticks": 279120,
          "time": 215.370155,
          "velocity": 0.2677165354330709
        },
        {
          "duration": 0.21604916666669283,
          "durationTicks": 280,
          "midi": 67,
          "name": "G4",
          "ticks": 279120,
          "time": 215.370155,
          "velocity": 0.2440944881889764
        },
        {
          "duration": 0.21604916666669283,
          "durationTicks": 280,
          "midi": 71,
          "name": "B4",
          "ticks": 279120,
          "time": 215.370155,
          "velocity": 0.30708661417322836
        },
        {
          "duration": 0.21604916666669283,
          "durationTicks": 280,
          "midi": 83,
          "name": "B5",
          "ticks": 279120,
          "time": 215.370155,
          "velocity": 0.30708661417322836
        },
        {
          "duration": 0.18518499999998994,
          "durationTicks": 240,
          "midi": 55,
          "name": "G3",
          "ticks": 279360,
          "time": 215.55534000000003,
          "velocity": 0.3543307086614173
        },
        {
          "duration": 0.18518499999998994,
          "durationTicks": 240,
          "midi": 59,
          "name": "B3",
          "ticks": 279360,
          "time": 215.55534000000003,
          "velocity": 0.41732283464566927
        },
        {
          "duration": 0.18518499999998994,
          "durationTicks": 240,
          "midi": 76,
          "name": "E5",
          "ticks": 279360,
          "time": 215.55534000000003,
          "velocity": 0.31496062992125984
        },
        {
          "duration": 0.15432083333331548,
          "durationTicks": 200,
          "midi": 55,
          "name": "G3",
          "ticks": 279600,
          "time": 215.74052500000002,
          "velocity": 0.33858267716535434
        },
        {
          "duration": 0.18518500000001836,
          "durationTicks": 240,
          "midi": 31,
          "name": "G1",
          "ticks": 279840,
          "time": 215.92571,
          "velocity": 0.3228346456692913
        },
        {
          "duration": 0.18518500000001836,
          "durationTicks": 240,
          "midi": 42,
          "name": "F#2",
          "ticks": 279840,
          "time": 215.92571,
          "velocity": 0.2440944881889764
        },
        {
          "duration": 0.18518500000001836,
          "durationTicks": 240,
          "midi": 43,
          "name": "G2",
          "ticks": 279840,
          "time": 215.92571,
          "velocity": 0.41732283464566927
        },
        {
          "duration": 0.18518500000001836,
          "durationTicks": 240,
          "midi": 55,
          "name": "G3",
          "ticks": 279840,
          "time": 215.92571,
          "velocity": 0.41732283464566927
        },
        {
          "duration": 0.18518500000001836,
          "durationTicks": 240,
          "midi": 59,
          "name": "B3",
          "ticks": 279840,
          "time": 215.92571,
          "velocity": 0.4251968503937008
        },
        {
          "duration": 0.18518500000001836,
          "durationTicks": 240,
          "midi": 64,
          "name": "E4",
          "ticks": 279840,
          "time": 215.92571,
          "velocity": 0.2283464566929134
        },
        {
          "duration": 0.18518499999998994,
          "durationTicks": 240,
          "midi": 50,
          "name": "D3",
          "ticks": 280080,
          "time": 216.11089500000003,
          "velocity": 0.23622047244094488
        },
        {
          "duration": 0.18518499999998994,
          "durationTicks": 240,
          "midi": 59,
          "name": "B3",
          "ticks": 280080,
          "time": 216.11089500000003,
          "velocity": 0.2677165354330709
        },
        {
          "duration": 0.2160491666666644,
          "durationTicks": 280,
          "midi": 71,
          "name": "B4",
          "ticks": 280080,
          "time": 216.11089500000003,
          "velocity": 0.2677165354330709
        },
        {
          "duration": 0.18518499999998994,
          "durationTicks": 240,
          "midi": 79,
          "name": "G5",
          "ticks": 280080,
          "time": 216.11089500000003,
          "velocity": 0.2283464566929134
        },
        {
          "duration": 0.5555549999999982,
          "durationTicks": 720,
          "midi": 33,
          "name": "A1",
          "ticks": 280320,
          "time": 216.29608000000002,
          "velocity": 0.4094488188976378
        },
        {
          "duration": 0.5555549999999982,
          "durationTicks": 720,
          "midi": 45,
          "name": "A2",
          "ticks": 280320,
          "time": 216.29608000000002,
          "velocity": 0.3464566929133858
        },
        {
          "duration": 0.5555549999999982,
          "durationTicks": 720,
          "midi": 55,
          "name": "G3",
          "ticks": 280320,
          "time": 216.29608000000002,
          "velocity": 0.2047244094488189
        },
        {
          "duration": 0.5555549999999982,
          "durationTicks": 720,
          "midi": 59,
          "name": "B3",
          "ticks": 280320,
          "time": 216.29608000000002,
          "velocity": 0.2440944881889764
        },
        {
          "duration": 0.5555549999999982,
          "durationTicks": 720,
          "midi": 60,
          "name": "C4",
          "ticks": 280320,
          "time": 216.29608000000002,
          "velocity": 0.33858267716535434
        },
        {
          "duration": 0.5555549999999982,
          "durationTicks": 720,
          "midi": 64,
          "name": "E4",
          "ticks": 280320,
          "time": 216.29608000000002,
          "velocity": 0.25196850393700787
        },
        {
          "duration": 0.5555549999999982,
          "durationTicks": 720,
          "midi": 72,
          "name": "C5",
          "ticks": 280320,
          "time": 216.29608000000002,
          "velocity": 0.33858267716535434
        },
        {
          "duration": 0.18518499999998994,
          "durationTicks": 240,
          "midi": 33,
          "name": "A1",
          "ticks": 281040,
          "time": 216.85163500000002,
          "velocity": 0.4015748031496063
        },
        {
          "duration": 0.18518499999998994,
          "durationTicks": 240,
          "midi": 43,
          "name": "G2",
          "ticks": 281040,
          "time": 216.85163500000002,
          "velocity": 0.28346456692913385
        },
        {
          "duration": 0.1543208333333439,
          "durationTicks": 200,
          "midi": 33,
          "name": "A1",
          "ticks": 281280,
          "time": 217.03682,
          "velocity": 0.3779527559055118
        },
        {
          "duration": 0.18518499999998994,
          "durationTicks": 240,
          "midi": 64,
          "name": "E4",
          "ticks": 281520,
          "time": 217.22200500000002,
          "velocity": 0.2440944881889764
        },
        {
          "duration": 0.18518499999998994,
          "durationTicks": 240,
          "midi": 71,
          "name": "B4",
          "ticks": 281520,
          "time": 217.22200500000002,
          "velocity": 0.2677165354330709
        },
        {
          "duration": 0.18518500000001836,
          "durationTicks": 240,
          "midi": 33,
          "name": "A1",
          "ticks": 281760,
          "time": 217.40719,
          "velocity": 0.2677165354330709
        },
        {
          "duration": 0.18518500000001836,
          "durationTicks": 240,
          "midi": 48,
          "name": "C3",
          "ticks": 281760,
          "time": 217.40719,
          "velocity": 0.3858267716535433
        },
        {
          "duration": 0.18518500000001836,
          "durationTicks": 240,
          "midi": 66,
          "name": "F#4",
          "ticks": 281760,
          "time": 217.40719,
          "velocity": 0.1889763779527559
        },
        {
          "duration": 0.18518500000001836,
          "durationTicks": 240,
          "midi": 69,
          "name": "A4",
          "ticks": 281760,
          "time": 217.40719,
          "velocity": 0.2440944881889764
        },
        {
          "duration": 0.3703699999999799,
          "durationTicks": 480,
          "midi": 47,
          "name": "B2",
          "ticks": 282000,
          "time": 217.59237500000003,
          "velocity": 0.28346456692913385
        },
        {
          "duration": 0.3703699999999799,
          "durationTicks": 480,
          "midi": 55,
          "name": "G3",
          "ticks": 282000,
          "time": 217.59237500000003,
          "velocity": 0.28346456692913385
        },
        {
          "duration": 0.3703699999999799,
          "durationTicks": 480,
          "midi": 62,
          "name": "D4",
          "ticks": 282000,
          "time": 217.59237500000003,
          "velocity": 0.25196850393700787
        },
        {
          "duration": 0.3703699999999799,
          "durationTicks": 480,
          "midi": 64,
          "name": "E4",
          "ticks": 282000,
          "time": 217.59237500000003,
          "velocity": 0.29133858267716534
        },
        {
          "duration": 0.3703699999999799,
          "durationTicks": 480,
          "midi": 76,
          "name": "E5",
          "ticks": 282000,
          "time": 217.59237500000003,
          "velocity": 0.29133858267716534
        },
        {
          "duration": 0.15432083333331548,
          "durationTicks": 200,
          "midi": 47,
          "name": "B2",
          "ticks": 282480,
          "time": 217.962745,
          "velocity": 0.4015748031496063
        },
        {
          "duration": 0.15432083333331548,
          "durationTicks": 200,
          "midi": 55,
          "name": "G3",
          "ticks": 282480,
          "time": 217.962745,
          "velocity": 0.2283464566929134
        },
        {
          "duration": 0.18518500000001836,
          "durationTicks": 240,
          "midi": 62,
          "name": "D4",
          "ticks": 282480,
          "time": 217.962745,
          "velocity": 0.29133858267716534
        },
        {
          "duration": 0.18518499999998994,
          "durationTicks": 240,
          "midi": 49,
          "name": "C#3",
          "ticks": 282720,
          "time": 218.14793000000003,
          "velocity": 0.2992125984251969
        },
        {
          "duration": 0.18518499999998994,
          "durationTicks": 240,
          "midi": 62,
          "name": "D4",
          "ticks": 282720,
          "time": 218.14793000000003,
          "velocity": 0.2440944881889764
        },
        {
          "duration": 0.24691333333331045,
          "durationTicks": 320,
          "midi": 47,
          "name": "B2",
          "ticks": 282840,
          "time": 218.24052250000003,
          "velocity": 0.30708661417322836
        },
        {
          "duration": 0.18518499999998994,
          "durationTicks": 240,
          "midi": 55,
          "name": "G3",
          "ticks": 282960,
          "time": 218.33311500000002,
          "velocity": 0.2125984251968504
        },
        {
          "duration": 0.21604916666669283,
          "durationTicks": 280,
          "midi": 62,
          "name": "D4",
          "ticks": 282960,
          "time": 218.33311500000002,
          "velocity": 0.33858267716535434
        },
        {
          "duration": 0.18518499999998994,
          "durationTicks": 240,
          "midi": 64,
          "name": "E4",
          "ticks": 282960,
          "time": 218.33311500000002,
          "velocity": 0.25196850393700787
        },
        {
          "duration": 0.12345666666669786,
          "durationTicks": 160,
          "midi": 46,
          "name": "A#2",
          "ticks": 283080,
          "time": 218.42570750000002,
          "velocity": 0.3464566929133858
        },
        {
          "duration": 0.18518500000001836,
          "durationTicks": 240,
          "midi": 50,
          "name": "D3",
          "ticks": 283200,
          "time": 218.5183,
          "velocity": 0.36220472440944884
        },
        {
          "duration": 0.18518500000001836,
          "durationTicks": 240,
          "midi": 55,
          "name": "G3",
          "ticks": 283200,
          "time": 218.5183,
          "velocity": 0.2440944881889764
        },
        {
          "duration": 0.18518500000001836,
          "durationTicks": 240,
          "midi": 62,
          "name": "D4",
          "ticks": 283200,
          "time": 218.5183,
          "velocity": 0.33070866141732286
        },
        {
          "duration": 0.12345666666669786,
          "durationTicks": 160,
          "midi": 52,
          "name": "E3",
          "ticks": 283320,
          "time": 218.6108925,
          "velocity": 0.2677165354330709
        },
        {
          "duration": 0.18518499999998994,
          "durationTicks": 240,
          "midi": 45,
          "name": "A2",
          "ticks": 283440,
          "time": 218.70348500000003,
          "velocity": 0.2755905511811024
        },
        {
          "duration": 0.18518499999998994,
          "durationTicks": 240,
          "midi": 55,
          "name": "G3",
          "ticks": 283440,
          "time": 218.70348500000003,
          "velocity": 0.28346456692913385
        },
        {
          "duration": 0.18518499999998994,
          "durationTicks": 240,
          "midi": 59,
          "name": "B3",
          "ticks": 283440,
          "time": 218.70348500000003,
          "velocity": 0.3858267716535433
        },
        {
          "duration": 0.18518499999998994,
          "durationTicks": 240,
          "midi": 67,
          "name": "G4",
          "ticks": 283440,
          "time": 218.70348500000003,
          "velocity": 0.3937007874015748
        },
        {
          "duration": 0.18518499999998994,
          "durationTicks": 240,
          "midi": 79,
          "name": "G5",
          "ticks": 283440,
          "time": 218.70348500000003,
          "velocity": 0.3937007874015748
        },
        {
          "duration": 0.18518499999998994,
          "durationTicks": 240,
          "midi": 55,
          "name": "G3",
          "ticks": 283680,
          "time": 218.88867000000002,
          "velocity": 0.29133858267716534
        },
        {
          "duration": 0.18518499999998994,
          "durationTicks": 240,
          "midi": 66,
          "name": "F#4",
          "ticks": 283680,
          "time": 218.88867000000002,
          "velocity": 0.1889763779527559
        },
        {
          "duration": 0.18518499999998994,
          "durationTicks": 240,
          "midi": 69,
          "name": "A4",
          "ticks": 283680,
          "time": 218.88867000000002,
          "velocity": 0.5354330708661418
        },
        {
          "duration": 0.18518499999998994,
          "durationTicks": 240,
          "midi": 81,
          "name": "A5",
          "ticks": 283680,
          "time": 218.88867000000002,
          "velocity": 0.5354330708661418
        },
        {
          "duration": 0.18518500000001836,
          "durationTicks": 240,
          "midi": 35,
          "name": "B1",
          "ticks": 283920,
          "time": 219.073855,
          "velocity": 0.33070866141732286
        },
        {
          "duration": 0.18518500000001836,
          "durationTicks": 240,
          "midi": 55,
          "name": "G3",
          "ticks": 283920,
          "time": 219.073855,
          "velocity": 0.28346456692913385
        },
        {
          "duration": 0.18518500000001836,
          "durationTicks": 240,
          "midi": 62,
          "name": "D4",
          "ticks": 283920,
          "time": 219.073855,
          "velocity": 0.2204724409448819
        },
        {
          "duration": 0.18518500000001836,
          "durationTicks": 240,
          "midi": 64,
          "name": "E4",
          "ticks": 283920,
          "time": 219.073855,
          "velocity": 0.1968503937007874
        },
        {
          "duration": 0.18518500000001836,
          "durationTicks": 240,
          "midi": 71,
          "name": "B4",
          "ticks": 283920,
          "time": 219.073855,
          "velocity": 0.5905511811023622
        },
        {
          "duration": 0.21604916666669283,
          "durationTicks": 280,
          "midi": 83,
          "name": "B5",
          "ticks": 283920,
          "time": 219.073855,
          "velocity": 0.3858267716535433
        },
        {
          "duration": 0.3395058333333054,
          "durationTicks": 440,
          "midi": 50,
          "name": "D3",
          "ticks": 284160,
          "time": 219.25904000000003,
          "velocity": 0.3464566929133858
        },
        {
          "duration": 0.3395058333333054,
          "durationTicks": 440,
          "midi": 55,
          "name": "G3",
          "ticks": 284160,
          "time": 219.25904000000003,
          "velocity": 0.25984251968503935
        },
        {
          "duration": 0.3395058333333054,
          "durationTicks": 440,
          "midi": 60,
          "name": "C4",
          "ticks": 284160,
          "time": 219.25904000000003,
          "velocity": 0.3858267716535433
        },
        {
          "duration": 0.3395058333333054,
          "durationTicks": 440,
          "midi": 64,
          "name": "E4",
          "ticks": 284160,
          "time": 219.25904000000003,
          "velocity": 0.30708661417322836
        },
        {
          "duration": 0.40123416666668277,
          "durationTicks": 520,
          "midi": 69,
          "name": "A4",
          "ticks": 284160,
          "time": 219.25904000000003,
          "velocity": 0.23622047244094488
        },
        {
          "duration": 0.3395058333333054,
          "durationTicks": 440,
          "midi": 72,
          "name": "C5",
          "ticks": 284160,
          "time": 219.25904000000003,
          "velocity": 0.4645669291338583
        },
        {
          "duration": 0.40123416666668277,
          "durationTicks": 520,
          "midi": 84,
          "name": "C6",
          "ticks": 284160,
          "time": 219.25904000000003,
          "velocity": 0.4645669291338583
        },
        {
          "duration": 0.1543208333333439,
          "durationTicks": 200,
          "midi": 50,
          "name": "D3",
          "ticks": 284640,
          "time": 219.62941,
          "velocity": 0.3464566929133858
        },
        {
          "duration": 0.1543208333333439,
          "durationTicks": 200,
          "midi": 71,
          "name": "B4",
          "ticks": 284640,
          "time": 219.62941,
          "velocity": 0.3779527559055118
        },
        {
          "duration": 0.21604916666669283,
          "durationTicks": 280,
          "midi": 83,
          "name": "B5",
          "ticks": 284640,
          "time": 219.62941,
          "velocity": 0.3700787401574803
        },
        {
          "duration": 0.18518499999998994,
          "durationTicks": 240,
          "midi": 50,
          "name": "D3",
          "ticks": 284880,
          "time": 219.81459500000003,
          "velocity": 0.4409448818897638
        },
        {
          "duration": 0.18518499999998994,
          "durationTicks": 240,
          "midi": 55,
          "name": "G3",
          "ticks": 284880,
          "time": 219.81459500000003,
          "velocity": 0.2755905511811024
        },
        {
          "duration": 0.18518499999998994,
          "durationTicks": 240,
          "midi": 60,
          "name": "C4",
          "ticks": 284880,
          "time": 219.81459500000003,
          "velocity": 0.2992125984251969
        },
        {
          "duration": 0.18518499999998994,
          "durationTicks": 240,
          "midi": 62,
          "name": "D4",
          "ticks": 284880,
          "time": 219.81459500000003,
          "velocity": 0.33858267716535434
        },
        {
          "duration": 0.18518499999998994,
          "durationTicks": 240,
          "midi": 64,
          "name": "E4",
          "ticks": 284880,
          "time": 219.81459500000003,
          "velocity": 0.2283464566929134
        },
        {
          "duration": 0.18518499999998994,
          "durationTicks": 240,
          "midi": 71,
          "name": "B4",
          "ticks": 284880,
          "time": 219.81459500000003,
          "velocity": 0.33858267716535434
        },
        {
          "duration": 0.18518499999998994,
          "durationTicks": 240,
          "midi": 81,
          "name": "A5",
          "ticks": 284880,
          "time": 219.81459500000003,
          "velocity": 0.41732283464566927
        },
        {
          "duration": 0.18518499999998994,
          "durationTicks": 240,
          "midi": 50,
          "name": "D3",
          "ticks": 285120,
          "time": 219.99978000000002,
          "velocity": 0.4015748031496063
        },
        {
          "duration": 0.18518499999998994,
          "durationTicks": 240,
          "midi": 55,
          "name": "G3",
          "ticks": 285120,
          "time": 219.99978000000002,
          "velocity": 0.2440944881889764
        },
        {
          "duration": 0.18518499999998994,
          "durationTicks": 240,
          "midi": 60,
          "name": "C4",
          "ticks": 285120,
          "time": 219.99978000000002,
          "velocity": 0.28346456692913385
        },
        {
          "duration": 0.18518499999998994,
          "durationTicks": 240,
          "midi": 64,
          "name": "E4",
          "ticks": 285120,
          "time": 219.99978000000002,
          "velocity": 0.1968503937007874
        },
        {
          "duration": 0.18518499999998994,
          "durationTicks": 240,
          "midi": 69,
          "name": "A4",
          "ticks": 285120,
          "time": 219.99978000000002,
          "velocity": 0.28346456692913385
        },
        {
          "duration": 0.1543208333333439,
          "durationTicks": 200,
          "midi": 50,
          "name": "D3",
          "ticks": 285360,
          "time": 220.184965,
          "velocity": 0.4409448818897638
        },
        {
          "duration": 0.18518500000001836,
          "durationTicks": 240,
          "midi": 55,
          "name": "G3",
          "ticks": 285360,
          "time": 220.184965,
          "velocity": 0.30708661417322836
        },
        {
          "duration": 0.18518500000001836,
          "durationTicks": 240,
          "midi": 60,
          "name": "C4",
          "ticks": 285360,
          "time": 220.184965,
          "velocity": 0.25196850393700787
        },
        {
          "duration": 0.18518500000001836,
          "durationTicks": 240,
          "midi": 62,
          "name": "D4",
          "ticks": 285360,
          "time": 220.184965,
          "velocity": 0.33858267716535434
        },
        {
          "duration": 0.1543208333333439,
          "durationTicks": 200,
          "midi": 64,
          "name": "E4",
          "ticks": 285360,
          "time": 220.184965,
          "velocity": 0.28346456692913385
        },
        {
          "duration": 0.1543208333333439,
          "durationTicks": 200,
          "midi": 71,
          "name": "B4",
          "ticks": 285360,
          "time": 220.184965,
          "velocity": 0.4015748031496063
        },
        {
          "duration": 0.1543208333333439,
          "durationTicks": 200,
          "midi": 83,
          "name": "B5",
          "ticks": 285360,
          "time": 220.184965,
          "velocity": 0.4015748031496063
        },
        {
          "duration": 0.18518499999998994,
          "durationTicks": 240,
          "midi": 55,
          "name": "G3",
          "ticks": 285600,
          "time": 220.37015000000002,
          "velocity": 0.25984251968503935
        },
        {
          "duration": 0.18518499999998994,
          "durationTicks": 240,
          "midi": 60,
          "name": "C4",
          "ticks": 285600,
          "time": 220.37015000000002,
          "velocity": 0.25196850393700787
        },
        {
          "duration": 0.18518499999998994,
          "durationTicks": 240,
          "midi": 64,
          "name": "E4",
          "ticks": 285600,
          "time": 220.37015000000002,
          "velocity": 0.2440944881889764
        },
        {
          "duration": 0.18518499999998994,
          "durationTicks": 240,
          "midi": 69,
          "name": "A4",
          "ticks": 285600,
          "time": 220.37015000000002,
          "velocity": 0.2440944881889764
        },
        {
          "duration": 0.15432083333331548,
          "durationTicks": 200,
          "midi": 45,
          "name": "A2",
          "ticks": 285840,
          "time": 220.555335,
          "velocity": 0.3937007874015748
        },
        {
          "duration": 0.15432083333331548,
          "durationTicks": 200,
          "midi": 50,
          "name": "D3",
          "ticks": 285840,
          "time": 220.555335,
          "velocity": 0.36220472440944884
        },
        {
          "duration": 0.15432083333331548,
          "durationTicks": 200,
          "midi": 55,
          "name": "G3",
          "ticks": 285840,
          "time": 220.555335,
          "velocity": 0.3700787401574803
        },
        {
          "duration": 0.15432083333331548,
          "durationTicks": 200,
          "midi": 60,
          "name": "C4",
          "ticks": 285840,
          "time": 220.555335,
          "velocity": 0.2992125984251969
        },
        {
          "duration": 0.15432083333331548,
          "durationTicks": 200,
          "midi": 64,
          "name": "E4",
          "ticks": 285840,
          "time": 220.555335,
          "velocity": 0.2440944881889764
        },
        {
          "duration": 0.15432083333331548,
          "durationTicks": 200,
          "midi": 71,
          "name": "B4",
          "ticks": 285840,
          "time": 220.555335,
          "velocity": 0.2440944881889764
        },
        {
          "duration": 0.15432083333331548,
          "durationTicks": 200,
          "midi": 72,
          "name": "C5",
          "ticks": 285840,
          "time": 220.555335,
          "velocity": 0.4645669291338583
        },
        {
          "duration": 0.15432083333331548,
          "durationTicks": 200,
          "midi": 84,
          "name": "C6",
          "ticks": 285840,
          "time": 220.555335,
          "velocity": 0.4645669291338583
        },
        {
          "duration": 0.18518499999998994,
          "durationTicks": 240,
          "midi": 55,
          "name": "G3",
          "ticks": 286080,
          "time": 220.74052000000003,
          "velocity": 0.2992125984251969
        },
        {
          "duration": 0.18518499999998994,
          "durationTicks": 240,
          "midi": 83,
          "name": "B5",
          "ticks": 286080,
          "time": 220.74052000000003,
          "velocity": 0.2677165354330709
        },
        {
          "duration": 0.24691333333331045,
          "durationTicks": 320,
          "midi": 81,
          "name": "A5",
          "ticks": 286200,
          "time": 220.83311250000003,
          "velocity": 0.3779527559055118
        },
        {
          "duration": 0.18518499999998994,
          "durationTicks": 240,
          "midi": 45,
          "name": "A2",
          "ticks": 286320,
          "time": 220.92570500000002,
          "velocity": 0.30708661417322836
        },
        {
          "duration": 0.18518499999998994,
          "durationTicks": 240,
          "midi": 50,
          "name": "D3",
          "ticks": 286320,
          "time": 220.92570500000002,
          "velocity": 0.4409448818897638
        },
        {
          "duration": 0.18518499999998994,
          "durationTicks": 240,
          "midi": 55,
          "name": "G3",
          "ticks": 286320,
          "time": 220.92570500000002,
          "velocity": 0.2992125984251969
        },
        {
          "duration": 0.18518499999998994,
          "durationTicks": 240,
          "midi": 60,
          "name": "C4",
          "ticks": 286320,
          "time": 220.92570500000002,
          "velocity": 0.36220472440944884
        },
        {
          "duration": 0.18518499999998994,
          "durationTicks": 240,
          "midi": 62,
          "name": "D4",
          "ticks": 286320,
          "time": 220.92570500000002,
          "velocity": 0.33858267716535434
        },
        {
          "duration": 0.18518499999998994,
          "durationTicks": 240,
          "midi": 64,
          "name": "E4",
          "ticks": 286320,
          "time": 220.92570500000002,
          "velocity": 0.2992125984251969
        },
        {
          "duration": 0.18518499999998994,
          "durationTicks": 240,
          "midi": 72,
          "name": "C5",
          "ticks": 286320,
          "time": 220.92570500000002,
          "velocity": 0.36220472440944884
        },
        {
          "duration": 0.18518499999998994,
          "durationTicks": 240,
          "midi": 76,
          "name": "E5",
          "ticks": 286320,
          "time": 220.92570500000002,
          "velocity": 0.2125984251968504
        },
        {
          "duration": 0.18518500000001836,
          "durationTicks": 240,
          "midi": 50,
          "name": "D3",
          "ticks": 286560,
          "time": 221.11089,
          "velocity": 0.33070866141732286
        },
        {
          "duration": 0.18518500000001836,
          "durationTicks": 240,
          "midi": 55,
          "name": "G3",
          "ticks": 286560,
          "time": 221.11089,
          "velocity": 0.3228346456692913
        },
        {
          "duration": 0.18518500000001836,
          "durationTicks": 240,
          "midi": 60,
          "name": "C4",
          "ticks": 286560,
          "time": 221.11089,
          "velocity": 0.2440944881889764
        },
        {
          "duration": 0.18518500000001836,
          "durationTicks": 240,
          "midi": 64,
          "name": "E4",
          "ticks": 286560,
          "time": 221.11089,
          "velocity": 0.2755905511811024
        },
        {
          "duration": 0.18518499999998994,
          "durationTicks": 240,
          "midi": 45,
          "name": "A2",
          "ticks": 286800,
          "time": 221.29607500000003,
          "velocity": 0.2992125984251969
        },
        {
          "duration": 0.18518499999998994,
          "durationTicks": 240,
          "midi": 50,
          "name": "D3",
          "ticks": 286800,
          "time": 221.29607500000003,
          "velocity": 0.2992125984251969
        },
        {
          "duration": 0.18518499999998994,
          "durationTicks": 240,
          "midi": 55,
          "name": "G3",
          "ticks": 286800,
          "time": 221.29607500000003,
          "velocity": 0.25196850393700787
        },
        {
          "duration": 0.18518499999998994,
          "durationTicks": 240,
          "midi": 59,
          "name": "B3",
          "ticks": 286800,
          "time": 221.29607500000003,
          "velocity": 0.2047244094488189
        },
        {
          "duration": 0.18518499999998994,
          "durationTicks": 240,
          "midi": 60,
          "name": "C4",
          "ticks": 286800,
          "time": 221.29607500000003,
          "velocity": 0.30708661417322836
        },
        {
          "duration": 0.18518499999998994,
          "durationTicks": 240,
          "midi": 64,
          "name": "E4",
          "ticks": 286800,
          "time": 221.29607500000003,
          "velocity": 0.2992125984251969
        },
        {
          "duration": 0.2160491666666644,
          "durationTicks": 280,
          "midi": 69,
          "name": "A4",
          "ticks": 286800,
          "time": 221.29607500000003,
          "velocity": 0.31496062992125984
        },
        {
          "duration": 0.2160491666666644,
          "durationTicks": 280,
          "midi": 81,
          "name": "A5",
          "ticks": 286800,
          "time": 221.29607500000003,
          "velocity": 0.31496062992125984
        },
        {
          "duration": 0.18518499999998994,
          "durationTicks": 240,
          "midi": 60,
          "name": "C4",
          "ticks": 287040,
          "time": 221.48126000000002,
          "velocity": 0.30708661417322836
        },
        {
          "duration": 0.12345666666669786,
          "durationTicks": 160,
          "midi": 64,
          "name": "E4",
          "ticks": 287160,
          "time": 221.57385250000002,
          "velocity": 0.23622047244094488
        },
        {
          "duration": 0.18518500000001836,
          "durationTicks": 240,
          "midi": 45,
          "name": "A2",
          "ticks": 287280,
          "time": 221.666445,
          "velocity": 0.3464566929133858
        },
        {
          "duration": 0.18518500000001836,
          "durationTicks": 240,
          "midi": 50,
          "name": "D3",
          "ticks": 287280,
          "time": 221.666445,
          "velocity": 0.31496062992125984
        },
        {
          "duration": 0.18518500000001836,
          "durationTicks": 240,
          "midi": 55,
          "name": "G3",
          "ticks": 287280,
          "time": 221.666445,
          "velocity": 0.2283464566929134
        },
        {
          "duration": 0.18518500000001836,
          "durationTicks": 240,
          "midi": 59,
          "name": "B3",
          "ticks": 287280,
          "time": 221.666445,
          "velocity": 0.2047244094488189
        },
        {
          "duration": 0.18518500000001836,
          "durationTicks": 240,
          "midi": 60,
          "name": "C4",
          "ticks": 287280,
          "time": 221.666445,
          "velocity": 0.29133858267716534
        },
        {
          "duration": 0.15432083333331548,
          "durationTicks": 200,
          "midi": 64,
          "name": "E4",
          "ticks": 287280,
          "time": 221.666445,
          "velocity": 0.2440944881889764
        },
        {
          "duration": 0.21604916666669283,
          "durationTicks": 280,
          "midi": 72,
          "name": "C5",
          "ticks": 287280,
          "time": 221.666445,
          "velocity": 0.25196850393700787
        },
        {
          "duration": 0.18518500000001836,
          "durationTicks": 240,
          "midi": 81,
          "name": "A5",
          "ticks": 287280,
          "time": 221.666445,
          "velocity": 0.36220472440944884
        },
        {
          "duration": 0.18518499999998994,
          "durationTicks": 240,
          "midi": 60,
          "name": "C4",
          "ticks": 287520,
          "time": 221.85163000000003,
          "velocity": 0.2992125984251969
        },
        {
          "duration": 0.18518499999998994,
          "durationTicks": 240,
          "midi": 64,
          "name": "E4",
          "ticks": 287520,
          "time": 221.85163000000003,
          "velocity": 0.30708661417322836
        },
        {
          "duration": 0.18518499999998994,
          "durationTicks": 240,
          "midi": 66,
          "name": "F#4",
          "ticks": 287520,
          "time": 221.85163000000003,
          "velocity": 0.36220472440944884
        },
        {
          "duration": 0.18518499999998994,
          "durationTicks": 240,
          "midi": 71,
          "name": "B4",
          "ticks": 287520,
          "time": 221.85163000000003,
          "velocity": 0.28346456692913385
        },
        {
          "duration": 0.2160491666666644,
          "durationTicks": 280,
          "midi": 74,
          "name": "D5",
          "ticks": 287520,
          "time": 221.85163000000003,
          "velocity": 0.25196850393700787
        },
        {
          "duration": 0.24691333333331045,
          "durationTicks": 320,
          "midi": 72,
          "name": "C5",
          "ticks": 287640,
          "time": 221.94422250000002,
          "velocity": 0.29133858267716534
        },
        {
          "duration": 0.2777774999999849,
          "durationTicks": 360,
          "midi": 84,
          "name": "C6",
          "ticks": 287640,
          "time": 221.94422250000002,
          "velocity": 0.29133858267716534
        },
        {
          "duration": 0.18518499999998994,
          "durationTicks": 240,
          "midi": 50,
          "name": "D3",
          "ticks": 287760,
          "time": 222.03681500000002,
          "velocity": 0.2283464566929134
        },
        {
          "duration": 0.18518499999998994,
          "durationTicks": 240,
          "midi": 60,
          "name": "C4",
          "ticks": 287760,
          "time": 222.03681500000002,
          "velocity": 0.28346456692913385
        },
        {
          "duration": 0.18518499999998994,
          "durationTicks": 240,
          "midi": 64,
          "name": "E4",
          "ticks": 287760,
          "time": 222.03681500000002,
          "velocity": 0.30708661417322836
        },
        {
          "duration": 0.18518499999998994,
          "durationTicks": 240,
          "midi": 67,
          "name": "G4",
          "ticks": 287760,
          "time": 222.03681500000002,
          "velocity": 0.2440944881889764
        },
        {
          "duration": 0.18518499999998994,
          "durationTicks": 240,
          "midi": 76,
          "name": "E5",
          "ticks": 287760,
          "time": 222.03681500000002,
          "velocity": 0.2283464566929134
        },
        {
          "duration": 0.33950583333333384,
          "durationTicks": 440,
          "midi": 52,
          "name": "E3",
          "ticks": 288000,
          "time": 222.222,
          "velocity": 0.28346456692913385
        },
        {
          "duration": 0.33950583333333384,
          "durationTicks": 440,
          "midi": 57,
          "name": "A3",
          "ticks": 288000,
          "time": 222.222,
          "velocity": 0.2992125984251969
        },
        {
          "duration": 0.33950583333333384,
          "durationTicks": 440,
          "midi": 62,
          "name": "D4",
          "ticks": 288000,
          "time": 222.222,
          "velocity": 0.3228346456692913
        },
        {
          "duration": 0.33950583333333384,
          "durationTicks": 440,
          "midi": 66,
          "name": "F#4",
          "ticks": 288000,
          "time": 222.222,
          "velocity": 0.2440944881889764
        },
        {
          "duration": 0.33950583333333384,
          "durationTicks": 440,
          "midi": 69,
          "name": "A4",
          "ticks": 288000,
          "time": 222.222,
          "velocity": 0.25984251968503935
        },
        {
          "duration": 0.33950583333333384,
          "durationTicks": 440,
          "midi": 73,
          "name": "C#5",
          "ticks": 288000,
          "time": 222.222,
          "velocity": 0.4645669291338583
        },
        {
          "duration": 0.33950583333333384,
          "durationTicks": 440,
          "midi": 74,
          "name": "D5",
          "ticks": 288000,
          "time": 222.222,
          "velocity": 0.30708661417322836
        },
        {
          "duration": 0.33950583333333384,
          "durationTicks": 440,
          "midi": 78,
          "name": "F#5",
          "ticks": 288000,
          "time": 222.222,
          "velocity": 0.2755905511811024
        },
        {
          "duration": 0.18518499999998994,
          "durationTicks": 240,
          "midi": 61,
          "name": "C#4",
          "ticks": 288480,
          "time": 222.59237000000002,
          "velocity": 0.7795275590551181
        },
        {
          "duration": 0.18518499999998994,
          "durationTicks": 240,
          "midi": 73,
          "name": "C#5",
          "ticks": 288480,
          "time": 222.59237000000002,
          "velocity": 0.7795275590551181
        },
        {
          "duration": 0.33950583333333384,
          "durationTicks": 440,
          "midi": 52,
          "name": "E3",
          "ticks": 288720,
          "time": 222.777555,
          "velocity": 0.2283464566929134
        },
        {
          "duration": 0.33950583333333384,
          "durationTicks": 440,
          "midi": 57,
          "name": "A3",
          "ticks": 288720,
          "time": 222.777555,
          "velocity": 0.3858267716535433
        },
        {
          "duration": 0.33950583333333384,
          "durationTicks": 440,
          "midi": 59,
          "name": "B3",
          "ticks": 288720,
          "time": 222.777555,
          "velocity": 0.5039370078740157
        },
        {
          "duration": 0.33950583333333384,
          "durationTicks": 440,
          "midi": 66,
          "name": "F#4",
          "ticks": 288720,
          "time": 222.777555,
          "velocity": 0.28346456692913385
        },
        {
          "duration": 0.33950583333333384,
          "durationTicks": 440,
          "midi": 71,
          "name": "B4",
          "ticks": 288720,
          "time": 222.777555,
          "velocity": 0.5039370078740157
        },
        {
          "duration": 0.33950583333333384,
          "durationTicks": 440,
          "midi": 61,
          "name": "C#4",
          "ticks": 289200,
          "time": 223.14792500000001,
          "velocity": 0.5905511811023622
        },
        {
          "duration": 0.33950583333333384,
          "durationTicks": 440,
          "midi": 73,
          "name": "C#5",
          "ticks": 289200,
          "time": 223.14792500000001,
          "velocity": 0.5905511811023622
        },
        {
          "duration": 0.8950608333333037,
          "durationTicks": 1160,
          "midi": 40,
          "name": "E2",
          "ticks": 289680,
          "time": 223.51829500000002,
          "velocity": 0.33858267716535434
        },
        {
          "duration": 0.8950608333333037,
          "durationTicks": 1160,
          "midi": 56,
          "name": "G#3",
          "ticks": 289680,
          "time": 223.51829500000002,
          "velocity": 0.3700787401574803
        },
        {
          "duration": 0.8950608333333037,
          "durationTicks": 1160,
          "midi": 62,
          "name": "D4",
          "ticks": 289680,
          "time": 223.51829500000002,
          "velocity": 0.3228346456692913
        },
        {
          "duration": 0.8950608333333037,
          "durationTicks": 1160,
          "midi": 65,
          "name": "F4",
          "ticks": 289680,
          "time": 223.51829500000002,
          "velocity": 0.2283464566929134
        },
        {
          "duration": 0.9259250000000065,
          "durationTicks": 1200,
          "midi": 73,
          "name": "C#5",
          "ticks": 289680,
          "time": 223.51829500000002,
          "velocity": 0.7952755905511811
        },
        {
          "duration": 0.8950608333333037,
          "durationTicks": 1160,
          "midi": 74,
          "name": "D5",
          "ticks": 289680,
          "time": 223.51829500000002,
          "velocity": 0.7401574803149606
        },
        {
          "duration": 0.9259250000000065,
          "durationTicks": 1200,
          "midi": 82,
          "name": "A#5",
          "ticks": 289680,
          "time": 223.51829500000002,
          "velocity": 0.3937007874015748
        },
        {
          "duration": 0.2777774999999849,
          "durationTicks": 360,
          "midi": 56,
          "name": "G#3",
          "ticks": 291000,
          "time": 224.53681250000002,
          "velocity": 0.1889763779527559
        },
        {
          "duration": 0.2777774999999849,
          "durationTicks": 360,
          "midi": 62,
          "name": "D4",
          "ticks": 291000,
          "time": 224.53681250000002,
          "velocity": 0.2992125984251969
        },
        {
          "duration": 0.18518500000001836,
          "durationTicks": 240,
          "midi": 65,
          "name": "F4",
          "ticks": 291360,
          "time": 224.81459,
          "velocity": 0.23622047244094488
        },
        {
          "duration": 0.09259249999999497,
          "durationTicks": 120,
          "midi": 70,
          "name": "A#4",
          "ticks": 291480,
          "time": 224.90718250000003,
          "velocity": 0.25196850393700787
        },
        {
          "duration": 0.15432083333331548,
          "durationTicks": 200,
          "midi": 77,
          "name": "F5",
          "ticks": 291600,
          "time": 224.99977500000003,
          "velocity": 0.2677165354330709
        },
        {
          "duration": 0.2777774999999849,
          "durationTicks": 360,
          "midi": 82,
          "name": "A#5",
          "ticks": 291720,
          "time": 225.09236750000002,
          "velocity": 0.3228346456692913
        },
        {
          "duration": 0.2777774999999849,
          "durationTicks": 360,
          "midi": 89,
          "name": "F6",
          "ticks": 291720,
          "time": 225.09236750000002,
          "velocity": 0.2677165354330709
        },
        {
          "duration": 0.21604916666669283,
          "durationTicks": 280,
          "midi": 86,
          "name": "D6",
          "ticks": 291840,
          "time": 225.18496000000002,
          "velocity": 0.2992125984251969
        },
        {
          "duration": 0.18518499999998994,
          "durationTicks": 240,
          "midi": 94,
          "name": "A#6",
          "ticks": 291840,
          "time": 225.18496000000002,
          "velocity": 0.3228346456692913
        },
        {
          "duration": 0.21604916666669283,
          "durationTicks": 280,
          "midi": 89,
          "name": "F6",
          "ticks": 292080,
          "time": 225.370145,
          "velocity": 0.25984251968503935
        },
        {
          "duration": 0.46296249999997485,
          "durationTicks": 600,
          "midi": 82,
          "name": "A#5",
          "ticks": 292200,
          "time": 225.46273750000003,
          "velocity": 0.30708661417322836
        },
        {
          "duration": 0.3086416666666878,
          "durationTicks": 400,
          "midi": 58,
          "name": "A#3",
          "ticks": 292440,
          "time": 225.64792250000002,
          "velocity": 0.2283464566929134
        },
        {
          "duration": 0.18518500000001836,
          "durationTicks": 240,
          "midi": 85,
          "name": "C#6",
          "ticks": 292800,
          "time": 225.9257,
          "velocity": 0.23622047244094488
        },
        {
          "duration": 0.18518500000001836,
          "durationTicks": 240,
          "midi": 88,
          "name": "E6",
          "ticks": 292800,
          "time": 225.9257,
          "velocity": 0.2204724409448819
        },
        {
          "duration": 0.09259249999999497,
          "durationTicks": 120,
          "midi": 75,
          "name": "D#5",
          "ticks": 292920,
          "time": 226.01829250000003,
          "velocity": 0.2204724409448819
        },
        {
          "duration": 0.09259249999999497,
          "durationTicks": 120,
          "midi": 84,
          "name": "C6",
          "ticks": 292920,
          "time": 226.01829250000003,
          "velocity": 0.2283464566929134
        },
        {
          "duration": 0.09259249999999497,
          "durationTicks": 120,
          "midi": 87,
          "name": "D#6",
          "ticks": 292920,
          "time": 226.01829250000003,
          "velocity": 0.2204724409448819
        },
        {
          "duration": 0.15432083333331548,
          "durationTicks": 200,
          "midi": 83,
          "name": "B5",
          "ticks": 293040,
          "time": 226.11088500000002,
          "velocity": 0.2204724409448819
        },
        {
          "duration": 0.27777750000001333,
          "durationTicks": 360,
          "midi": 82,
          "name": "A#5",
          "ticks": 293160,
          "time": 226.20347750000002,
          "velocity": 0.2283464566929134
        },
        {
          "duration": 0.27777750000001333,
          "durationTicks": 360,
          "midi": 85,
          "name": "C#6",
          "ticks": 293160,
          "time": 226.20347750000002,
          "velocity": 0.23622047244094488
        },
        {
          "duration": 0.18518500000001836,
          "durationTicks": 240,
          "midi": 58,
          "name": "A#3",
          "ticks": 293280,
          "time": 226.29607000000001,
          "velocity": 0.23622047244094488
        },
        {
          "duration": 0.18518500000001836,
          "durationTicks": 240,
          "midi": 65,
          "name": "F4",
          "ticks": 293280,
          "time": 226.29607000000001,
          "velocity": 0.25984251968503935
        },
        {
          "duration": 0.18518500000001836,
          "durationTicks": 240,
          "midi": 81,
          "name": "A5",
          "ticks": 293280,
          "time": 226.29607000000001,
          "velocity": 0.2283464566929134
        },
        {
          "duration": 0.18518500000001836,
          "durationTicks": 240,
          "midi": 84,
          "name": "C6",
          "ticks": 293280,
          "time": 226.29607000000001,
          "velocity": 0.25196850393700787
        },
        {
          "duration": 0.09259250000002339,
          "durationTicks": 120,
          "midi": 80,
          "name": "G#5",
          "ticks": 293400,
          "time": 226.3886625,
          "velocity": 0.2204724409448819
        },
        {
          "duration": 0.09259250000002339,
          "durationTicks": 120,
          "midi": 83,
          "name": "B5",
          "ticks": 293400,
          "time": 226.3886625,
          "velocity": 0.2440944881889764
        },
        {
          "duration": 0.18518499999998994,
          "durationTicks": 240,
          "midi": 50,
          "name": "D3",
          "ticks": 293520,
          "time": 226.48125500000003,
          "velocity": 0.41732283464566927
        },
        {
          "duration": 0.18518499999998994,
          "durationTicks": 240,
          "midi": 58,
          "name": "A#3",
          "ticks": 293520,
          "time": 226.48125500000003,
          "velocity": 0.2677165354330709
        },
        {
          "duration": 0.18518499999998994,
          "durationTicks": 240,
          "midi": 62,
          "name": "D4",
          "ticks": 293520,
          "time": 226.48125500000003,
          "velocity": 0.41732283464566927
        },
        {
          "duration": 0.18518499999998994,
          "durationTicks": 240,
          "midi": 79,
          "name": "G5",
          "ticks": 293520,
          "time": 226.48125500000003,
          "velocity": 0.2283464566929134
        },
        {
          "duration": 0.18518499999998994,
          "durationTicks": 240,
          "midi": 82,
          "name": "A#5",
          "ticks": 293520,
          "time": 226.48125500000003,
          "velocity": 0.25196850393700787
        },
        {
          "duration": 0.12345666666666943,
          "durationTicks": 160,
          "midi": 66,
          "name": "F#4",
          "ticks": 293640,
          "time": 226.57384750000003,
          "velocity": 0.23622047244094488
        },
        {
          "duration": 0.12345666666666943,
          "durationTicks": 160,
          "midi": 78,
          "name": "F#5",
          "ticks": 293640,
          "time": 226.57384750000003,
          "velocity": 0.23622047244094488
        },
        {
          "duration": 0.12345666666666943,
          "durationTicks": 160,
          "midi": 81,
          "name": "A5",
          "ticks": 293640,
          "time": 226.57384750000003,
          "velocity": 0.25196850393700787
        },
        {
          "duration": 0.18518499999998994,
          "durationTicks": 240,
          "midi": 71,
          "name": "B4",
          "ticks": 293760,
          "time": 226.66644000000002,
          "velocity": 0.2440944881889764
        },
        {
          "duration": 0.18518499999998994,
          "durationTicks": 240,
          "midi": 73,
          "name": "C#5",
          "ticks": 293760,
          "time": 226.66644000000002,
          "velocity": 0.2755905511811024
        },
        {
          "duration": 0.18518499999998994,
          "durationTicks": 240,
          "midi": 77,
          "name": "F5",
          "ticks": 293760,
          "time": 226.66644000000002,
          "velocity": 0.2204724409448819
        },
        {
          "duration": 0.18518499999998994,
          "durationTicks": 240,
          "midi": 80,
          "name": "G#5",
          "ticks": 293760,
          "time": 226.66644000000002,
          "velocity": 0.2283464566929134
        },
        {
          "duration": 0.18518499999998994,
          "durationTicks": 240,
          "midi": 85,
          "name": "C#6",
          "ticks": 293760,
          "time": 226.66644000000002,
          "velocity": 0.2755905511811024
        },
        {
          "duration": 0.12345666666666943,
          "durationTicks": 160,
          "midi": 70,
          "name": "A#4",
          "ticks": 293880,
          "time": 226.75903250000002,
          "velocity": 0.23622047244094488
        },
        {
          "duration": 0.12345666666666943,
          "durationTicks": 160,
          "midi": 76,
          "name": "E5",
          "ticks": 293880,
          "time": 226.75903250000002,
          "velocity": 0.2283464566929134
        },
        {
          "duration": 0.12345666666666943,
          "durationTicks": 160,
          "midi": 79,
          "name": "G5",
          "ticks": 293880,
          "time": 226.75903250000002,
          "velocity": 0.2283464566929134
        },
        {
          "duration": 0.12345666666666943,
          "durationTicks": 160,
          "midi": 82,
          "name": "A#5",
          "ticks": 293880,
          "time": 226.75903250000002,
          "velocity": 0.23622047244094488
        },
        {
          "duration": 0.12345666666666943,
          "durationTicks": 160,
          "midi": 83,
          "name": "B5",
          "ticks": 293880,
          "time": 226.75903250000002,
          "velocity": 0.2677165354330709
        },
        {
          "duration": 0.18518500000001836,
          "durationTicks": 240,
          "midi": 53,
          "name": "F3",
          "ticks": 294000,
          "time": 226.851625,
          "velocity": 0.3937007874015748
        },
        {
          "duration": 0.18518500000001836,
          "durationTicks": 240,
          "midi": 75,
          "name": "D#5",
          "ticks": 294000,
          "time": 226.851625,
          "velocity": 0.2204724409448819
        },
        {
          "duration": 0.18518500000001836,
          "durationTicks": 240,
          "midi": 78,
          "name": "F#5",
          "ticks": 294000,
          "time": 226.851625,
          "velocity": 0.2283464566929134
        },
        {
          "duration": 0.15432083333331548,
          "durationTicks": 200,
          "midi": 80,
          "name": "G#5",
          "ticks": 294000,
          "time": 226.851625,
          "velocity": 0.25196850393700787
        },
        {
          "duration": 0.09259250000002339,
          "durationTicks": 120,
          "midi": 74,
          "name": "D5",
          "ticks": 294120,
          "time": 226.9442175,
          "velocity": 0.2440944881889764
        },
        {
          "duration": 0.09259250000002339,
          "durationTicks": 120,
          "midi": 79,
          "name": "G5",
          "ticks": 294120,
          "time": 226.9442175,
          "velocity": 0.25984251968503935
        },
        {
          "duration": 0.15432083333331548,
          "durationTicks": 200,
          "midi": 44,
          "name": "G#2",
          "ticks": 294240,
          "time": 227.03681000000003,
          "velocity": 0.25984251968503935
        },
        {
          "duration": 0.15432083333331548,
          "durationTicks": 200,
          "midi": 73,
          "name": "C#5",
          "ticks": 294240,
          "time": 227.03681000000003,
          "velocity": 0.25984251968503935
        },
        {
          "duration": 0.2160491666666644,
          "durationTicks": 280,
          "midi": 76,
          "name": "E5",
          "ticks": 294240,
          "time": 227.03681000000003,
          "velocity": 0.2204724409448819
        },
        {
          "duration": 0.2777774999999849,
          "durationTicks": 360,
          "midi": 38,
          "name": "D2",
          "ticks": 294360,
          "time": 227.12940250000003,
          "velocity": 0.2677165354330709
        },
        {
          "duration": 0.12345666666666943,
          "durationTicks": 160,
          "midi": 50,
          "name": "D3",
          "ticks": 294360,
          "time": 227.12940250000003,
          "velocity": 0.25196850393700787
        },
        {
          "duration": 0.2777774999999849,
          "durationTicks": 360,
          "midi": 74,
          "name": "D5",
          "ticks": 294360,
          "time": 227.12940250000003,
          "velocity": 0.3228346456692913
        },
        {
          "duration": 0.12345666666666943,
          "durationTicks": 160,
          "midi": 75,
          "name": "D#5",
          "ticks": 294360,
          "time": 227.12940250000003,
          "velocity": 0.2283464566929134
        },
        {
          "duration": 0.09259249999999497,
          "durationTicks": 120,
          "midi": 71,
          "name": "B4",
          "ticks": 294600,
          "time": 227.31458750000002,
          "velocity": 0.28346456692913385
        },
        {
          "duration": 0.21604916666669283,
          "durationTicks": 280,
          "midi": 69,
          "name": "A4",
          "ticks": 294720,
          "time": 227.40718,
          "velocity": 0.2677165354330709
        },
        {
          "duration": 0.18518499999998994,
          "durationTicks": 240,
          "midi": 33,
          "name": "A1",
          "ticks": 294960,
          "time": 227.59236500000003,
          "velocity": 0.3858267716535433
        },
        {
          "duration": 0.2777774999999849,
          "durationTicks": 360,
          "midi": 31,
          "name": "G1",
          "ticks": 295080,
          "time": 227.68495750000002,
          "velocity": 0.30708661417322836
        },
        {
          "duration": 0.12345666666666943,
          "durationTicks": 160,
          "midi": 32,
          "name": "G#1",
          "ticks": 295080,
          "time": 227.68495750000002,
          "velocity": 0.33858267716535434
        },
        {
          "duration": 0.12345666666666943,
          "durationTicks": 160,
          "midi": 44,
          "name": "G#2",
          "ticks": 295080,
          "time": 227.68495750000002,
          "velocity": 0.33858267716535434
        },
        {
          "duration": 0.2777774999999849,
          "durationTicks": 360,
          "midi": 55,
          "name": "G3",
          "ticks": 295080,
          "time": 227.68495750000002,
          "velocity": 0.2204724409448819
        },
        {
          "duration": 0.18518499999998994,
          "durationTicks": 240,
          "midi": 61,
          "name": "C#4",
          "ticks": 295200,
          "time": 227.77755000000002,
          "velocity": 0.25984251968503935
        },
        {
          "duration": 0.12345666666666943,
          "durationTicks": 160,
          "midi": 50,
          "name": "D3",
          "ticks": 295560,
          "time": 228.05532750000003,
          "velocity": 0.25984251968503935
        },
        {
          "duration": 0.3703699999999799,
          "durationTicks": 480,
          "midi": 33,
          "name": "A1",
          "ticks": 295680,
          "time": 228.14792000000003,
          "velocity": 0.4015748031496063
        },
        {
          "duration": 0.3703699999999799,
          "durationTicks": 480,
          "midi": 45,
          "name": "A2",
          "ticks": 295680,
          "time": 228.14792000000003,
          "velocity": 0.4015748031496063
        },
        {
          "duration": 0.3703699999999799,
          "durationTicks": 480,
          "midi": 52,
          "name": "E3",
          "ticks": 295680,
          "time": 228.14792000000003,
          "velocity": 0.3543307086614173
        },
        {
          "duration": 0.3703699999999799,
          "durationTicks": 480,
          "midi": 56,
          "name": "G#3",
          "ticks": 295680,
          "time": 228.14792000000003,
          "velocity": 0.28346456692913385
        },
        {
          "duration": 0.3703699999999799,
          "durationTicks": 480,
          "midi": 59,
          "name": "B3",
          "ticks": 295680,
          "time": 228.14792000000003,
          "velocity": 0.2283464566929134
        },
        {
          "duration": 0.3395058333333054,
          "durationTicks": 440,
          "midi": 61,
          "name": "C#4",
          "ticks": 295680,
          "time": 228.14792000000003,
          "velocity": 0.23622047244094488
        },
        {
          "duration": 0.3703699999999799,
          "durationTicks": 480,
          "midi": 64,
          "name": "E4",
          "ticks": 295680,
          "time": 228.14792000000003,
          "velocity": 0.3543307086614173
        },
        {
          "duration": 0.18518500000001836,
          "durationTicks": 240,
          "midi": 61,
          "name": "C#4",
          "ticks": 296160,
          "time": 228.51829,
          "velocity": 0.5039370078740157
        },
        {
          "duration": 0.18518499999998994,
          "durationTicks": 240,
          "midi": 33,
          "name": "A1",
          "ticks": 296400,
          "time": 228.70347500000003,
          "velocity": 0.31496062992125984
        },
        {
          "duration": 0.18518499999998994,
          "durationTicks": 240,
          "midi": 52,
          "name": "E3",
          "ticks": 296400,
          "time": 228.70347500000003,
          "velocity": 0.3464566929133858
        },
        {
          "duration": 0.18518499999998994,
          "durationTicks": 240,
          "midi": 61,
          "name": "C#4",
          "ticks": 296400,
          "time": 228.70347500000003,
          "velocity": 0.5196850393700787
        },
        {
          "duration": 0.18518500000001836,
          "durationTicks": 240,
          "midi": 33,
          "name": "A1",
          "ticks": 296640,
          "time": 228.88866000000002,
          "velocity": 0.4330708661417323
        },
        {
          "duration": 0.18518500000001836,
          "durationTicks": 240,
          "midi": 64,
          "name": "E4",
          "ticks": 296640,
          "time": 228.88866000000002,
          "velocity": 0.5511811023622047
        },
        {
          "duration": 0.18518499999998994,
          "durationTicks": 240,
          "midi": 54,
          "name": "F#3",
          "ticks": 296880,
          "time": 229.07384500000003,
          "velocity": 0.4330708661417323
        },
        {
          "duration": 0.18518499999998994,
          "durationTicks": 240,
          "midi": 66,
          "name": "F#4",
          "ticks": 296880,
          "time": 229.07384500000003,
          "velocity": 0.6771653543307087
        },
        {
          "duration": 0.15432083333331548,
          "durationTicks": 200,
          "midi": 64,
          "name": "E4",
          "ticks": 297120,
          "time": 229.25903000000002,
          "velocity": 0.23622047244094488
        },
        {
          "duration": 0.15432083333331548,
          "durationTicks": 200,
          "midi": 68,
          "name": "G#4",
          "ticks": 297120,
          "time": 229.25903000000002,
          "velocity": 0.2283464566929134
        },
        {
          "duration": 0.18518500000001836,
          "durationTicks": 240,
          "midi": 44,
          "name": "G#2",
          "ticks": 297360,
          "time": 229.444215,
          "velocity": 0.47244094488188976
        },
        {
          "duration": 0.18518500000001836,
          "durationTicks": 240,
          "midi": 56,
          "name": "G#3",
          "ticks": 297360,
          "time": 229.444215,
          "velocity": 0.47244094488188976
        },
        {
          "duration": 0.18518500000001836,
          "durationTicks": 240,
          "midi": 66,
          "name": "F#4",
          "ticks": 297360,
          "time": 229.444215,
          "velocity": 0.5984251968503937
        },
        {
          "duration": 0.18518500000001836,
          "durationTicks": 240,
          "midi": 67,
          "name": "G4",
          "ticks": 297360,
          "time": 229.444215,
          "velocity": 0.6141732283464567
        },
        {
          "duration": 0.3395058333333054,
          "durationTicks": 440,
          "midi": 32,
          "name": "G#1",
          "ticks": 297600,
          "time": 229.62940000000003,
          "velocity": 0.31496062992125984
        },
        {
          "duration": 0.3395058333333054,
          "durationTicks": 440,
          "midi": 44,
          "name": "G#2",
          "ticks": 297600,
          "time": 229.62940000000003,
          "velocity": 0.4251968503937008
        },
        {
          "duration": 0.3395058333333054,
          "durationTicks": 440,
          "midi": 54,
          "name": "F#3",
          "ticks": 297600,
          "time": 229.62940000000003,
          "velocity": 0.30708661417322836
        },
        {
          "duration": 0.3395058333333054,
          "durationTicks": 440,
          "midi": 56,
          "name": "G#3",
          "ticks": 297600,
          "time": 229.62940000000003,
          "velocity": 0.4251968503937008
        },
        {
          "duration": 0.3395058333333054,
          "durationTicks": 440,
          "midi": 60,
          "name": "C4",
          "ticks": 297600,
          "time": 229.62940000000003,
          "velocity": 0.2047244094488189
        },
        {
          "duration": 0.3395058333333054,
          "durationTicks": 440,
          "midi": 65,
          "name": "F4",
          "ticks": 297600,
          "time": 229.62940000000003,
          "velocity": 0.2440944881889764
        },
        {
          "duration": 0.3395058333333054,
          "durationTicks": 440,
          "midi": 68,
          "name": "G#4",
          "ticks": 297600,
          "time": 229.62940000000003,
          "velocity": 0.6614173228346457
        },
        {
          "duration": 0.21604916666669283,
          "durationTicks": 280,
          "midi": 69,
          "name": "A4",
          "ticks": 298080,
          "time": 229.99977,
          "velocity": 0.6220472440944882
        },
        {
          "duration": 0.18518499999998994,
          "durationTicks": 240,
          "midi": 54,
          "name": "F#3",
          "ticks": 298320,
          "time": 230.18495500000003,
          "velocity": 0.2992125984251969
        },
        {
          "duration": 0.18518499999998994,
          "durationTicks": 240,
          "midi": 60,
          "name": "C4",
          "ticks": 298320,
          "time": 230.18495500000003,
          "velocity": 0.25196850393700787
        },
        {
          "duration": 0.18518499999998994,
          "durationTicks": 240,
          "midi": 68,
          "name": "G#4",
          "ticks": 298320,
          "time": 230.18495500000003,
          "velocity": 0.2125984251968504
        },
        {
          "duration": 0.18518499999998994,
          "durationTicks": 240,
          "midi": 39,
          "name": "D#2",
          "ticks": 298560,
          "time": 230.37014000000002,
          "velocity": 0.36220472440944884
        },
        {
          "duration": 0.18518499999998994,
          "durationTicks": 240,
          "midi": 64,
          "name": "E4",
          "ticks": 298560,
          "time": 230.37014000000002,
          "velocity": 0.2440944881889764
        },
        {
          "duration": 0.18518499999998994,
          "durationTicks": 240,
          "midi": 69,
          "name": "A4",
          "ticks": 298560,
          "time": 230.37014000000002,
          "velocity": 0.47244094488188976
        },
        {
          "duration": 0.18518499999998994,
          "durationTicks": 240,
          "midi": 71,
          "name": "B4",
          "ticks": 298560,
          "time": 230.37014000000002,
          "velocity": 0.2755905511811024
        },
        {
          "duration": 0.15432083333331548,
          "durationTicks": 200,
          "midi": 44,
          "name": "G#2",
          "ticks": 298800,
          "time": 230.555325,
          "velocity": 0.3464566929133858
        },
        {
          "duration": 0.18518499999998994,
          "durationTicks": 240,
          "midi": 57,
          "name": "A3",
          "ticks": 299040,
          "time": 230.74051000000003,
          "velocity": 0.3464566929133858
        },
        {
          "duration": 0.18518499999998994,
          "durationTicks": 240,
          "midi": 60,
          "name": "C4",
          "ticks": 299040,
          "time": 230.74051000000003,
          "velocity": 0.25984251968503935
        },
        {
          "duration": 0.18518499999998994,
          "durationTicks": 240,
          "midi": 64,
          "name": "E4",
          "ticks": 299040,
          "time": 230.74051000000003,
          "velocity": 0.36220472440944884
        },
        {
          "duration": 0.15432083333331548,
          "durationTicks": 200,
          "midi": 69,
          "name": "A4",
          "ticks": 299040,
          "time": 230.74051000000003,
          "velocity": 0.3858267716535433
        },
        {
          "duration": 0.18518499999998994,
          "durationTicks": 240,
          "midi": 64,
          "name": "E4",
          "ticks": 299280,
          "time": 230.92569500000002,
          "velocity": 0.28346456692913385
        },
        {
          "duration": 0.18518500000001836,
          "durationTicks": 240,
          "midi": 37,
          "name": "C#2",
          "ticks": 299520,
          "time": 231.11088,
          "velocity": 0.3858267716535433
        },
        {
          "duration": 0.18518500000001836,
          "durationTicks": 240,
          "midi": 56,
          "name": "G#3",
          "ticks": 299520,
          "time": 231.11088,
          "velocity": 0.3228346456692913
        },
        {
          "duration": 0.18518500000001836,
          "durationTicks": 240,
          "midi": 59,
          "name": "B3",
          "ticks": 299520,
          "time": 231.11088,
          "velocity": 0.2283464566929134
        },
        {
          "duration": 0.18518500000001836,
          "durationTicks": 240,
          "midi": 63,
          "name": "D#4",
          "ticks": 299520,
          "time": 231.11088,
          "velocity": 0.4015748031496063
        },
        {
          "duration": 0.18518500000001836,
          "durationTicks": 240,
          "midi": 68,
          "name": "G#4",
          "ticks": 299520,
          "time": 231.11088,
          "velocity": 0.7795275590551181
        },
        {
          "duration": 0.18518500000001836,
          "durationTicks": 240,
          "midi": 80,
          "name": "G#5",
          "ticks": 299520,
          "time": 231.11088,
          "velocity": 0.7795275590551181
        },
        {
          "duration": 0.18518499999998994,
          "durationTicks": 240,
          "midi": 61,
          "name": "C#4",
          "ticks": 299760,
          "time": 231.29606500000003,
          "velocity": 0.2204724409448819
        },
        {
          "duration": 0.18518499999998994,
          "durationTicks": 240,
          "midi": 56,
          "name": "G#3",
          "ticks": 300000,
          "time": 231.48125000000002,
          "velocity": 0.5984251968503937
        },
        {
          "duration": 0.18518500000001836,
          "durationTicks": 240,
          "midi": 49,
          "name": "C#3",
          "ticks": 300240,
          "time": 231.666435,
          "velocity": 0.2992125984251969
        },
        {
          "duration": 0.18518500000001836,
          "durationTicks": 240,
          "midi": 52,
          "name": "E3",
          "ticks": 300240,
          "time": 231.666435,
          "velocity": 0.2440944881889764
        },
        {
          "duration": 0.18518500000001836,
          "durationTicks": 240,
          "midi": 56,
          "name": "G#3",
          "ticks": 300240,
          "time": 231.666435,
          "velocity": 0.5748031496062992
        },
        {
          "duration": 0.18518500000001836,
          "durationTicks": 240,
          "midi": 59,
          "name": "B3",
          "ticks": 300240,
          "time": 231.666435,
          "velocity": 0.23622047244094488
        },
        {
          "duration": 0.18518500000001836,
          "durationTicks": 240,
          "midi": 61,
          "name": "C#4",
          "ticks": 300240,
          "time": 231.666435,
          "velocity": 0.2992125984251969
        },
        {
          "duration": 0.15432083333331548,
          "durationTicks": 200,
          "midi": 56,
          "name": "G#3",
          "ticks": 300480,
          "time": 231.85162000000003,
          "velocity": 0.5118110236220472
        },
        {
          "duration": 0.18518500000001836,
          "durationTicks": 240,
          "midi": 33,
          "name": "A1",
          "ticks": 300720,
          "time": 232.03680500000002,
          "velocity": 0.2677165354330709
        },
        {
          "duration": 0.18518500000001836,
          "durationTicks": 240,
          "midi": 54,
          "name": "F#3",
          "ticks": 300720,
          "time": 232.03680500000002,
          "velocity": 0.2283464566929134
        },
        {
          "duration": 0.18518500000001836,
          "durationTicks": 240,
          "midi": 59,
          "name": "B3",
          "ticks": 300720,
          "time": 232.03680500000002,
          "velocity": 0.2440944881889764
        },
        {
          "duration": 0.18518500000001836,
          "durationTicks": 240,
          "midi": 61,
          "name": "C#4",
          "ticks": 300720,
          "time": 232.03680500000002,
          "velocity": 0.2204724409448819
        },
        {
          "duration": 0.18518499999998994,
          "durationTicks": 240,
          "midi": 37,
          "name": "C#2",
          "ticks": 300960,
          "time": 232.22199000000003,
          "velocity": 0.3228346456692913
        },
        {
          "duration": 0.18518499999998994,
          "durationTicks": 240,
          "midi": 54,
          "name": "F#3",
          "ticks": 300960,
          "time": 232.22199000000003,
          "velocity": 0.3543307086614173
        },
        {
          "duration": 0.18518499999998994,
          "durationTicks": 240,
          "midi": 59,
          "name": "B3",
          "ticks": 300960,
          "time": 232.22199000000003,
          "velocity": 0.2283464566929134
        },
        {
          "duration": 0.18518499999998994,
          "durationTicks": 240,
          "midi": 36,
          "name": "C2",
          "ticks": 301200,
          "time": 232.40717500000002,
          "velocity": 0.36220472440944884
        },
        {
          "duration": 0.18518499999998994,
          "durationTicks": 240,
          "midi": 52,
          "name": "E3",
          "ticks": 301200,
          "time": 232.40717500000002,
          "velocity": 0.2047244094488189
        },
        {
          "duration": 0.18518499999998994,
          "durationTicks": 240,
          "midi": 54,
          "name": "F#3",
          "ticks": 301200,
          "time": 232.40717500000002,
          "velocity": 0.6141732283464567
        },
        {
          "duration": 0.18518499999998994,
          "durationTicks": 240,
          "midi": 64,
          "name": "E4",
          "ticks": 301200,
          "time": 232.40717500000002,
          "velocity": 0.2283464566929134
        },
        {
          "duration": 0.18518499999998994,
          "durationTicks": 240,
          "midi": 66,
          "name": "F#4",
          "ticks": 301200,
          "time": 232.40717500000002,
          "velocity": 0.6141732283464567
        },
        {
          "duration": 0.18518500000001836,
          "durationTicks": 240,
          "midi": 35,
          "name": "B1",
          "ticks": 301440,
          "time": 232.59236,
          "velocity": 0.3937007874015748
        },
        {
          "duration": 0.18518500000001836,
          "durationTicks": 240,
          "midi": 52,
          "name": "E3",
          "ticks": 301440,
          "time": 232.59236,
          "velocity": 0.47244094488188976
        },
        {
          "duration": 0.18518500000001836,
          "durationTicks": 240,
          "midi": 57,
          "name": "A3",
          "ticks": 301440,
          "time": 232.59236,
          "velocity": 0.2283464566929134
        },
        {
          "duration": 0.18518500000001836,
          "durationTicks": 240,
          "midi": 61,
          "name": "C#4",
          "ticks": 301440,
          "time": 232.59236,
          "velocity": 0.2204724409448819
        },
        {
          "duration": 0.18518500000001836,
          "durationTicks": 240,
          "midi": 62,
          "name": "D4",
          "ticks": 301440,
          "time": 232.59236,
          "velocity": 0.2204724409448819
        },
        {
          "duration": 0.18518500000001836,
          "durationTicks": 240,
          "midi": 64,
          "name": "E4",
          "ticks": 301440,
          "time": 232.59236,
          "velocity": 0.47244094488188976
        },
        {
          "duration": 0.18518500000001836,
          "durationTicks": 240,
          "midi": 69,
          "name": "A4",
          "ticks": 301440,
          "time": 232.59236,
          "velocity": 0.31496062992125984
        },
        {
          "duration": 0.18518500000001836,
          "durationTicks": 240,
          "midi": 85,
          "name": "C#6",
          "ticks": 301440,
          "time": 232.59236,
          "velocity": 0.33070866141732286
        },
        {
          "duration": 0.18518499999998994,
          "durationTicks": 240,
          "midi": 61,
          "name": "C#4",
          "ticks": 301680,
          "time": 232.77754500000003,
          "velocity": 0.2204724409448819
        },
        {
          "duration": 0.18518499999998994,
          "durationTicks": 240,
          "midi": 38,
          "name": "D2",
          "ticks": 301920,
          "time": 232.96273000000002,
          "velocity": 0.25984251968503935
        },
        {
          "duration": 0.15432083333331548,
          "durationTicks": 200,
          "midi": 39,
          "name": "D#2",
          "ticks": 302160,
          "time": 233.147915,
          "velocity": 0.28346456692913385
        },
        {
          "duration": 0.15432083333331548,
          "durationTicks": 200,
          "midi": 56,
          "name": "G#3",
          "ticks": 302160,
          "time": 233.147915,
          "velocity": 0.25984251968503935
        },
        {
          "duration": 0.15432083333331548,
          "durationTicks": 200,
          "midi": 64,
          "name": "E4",
          "ticks": 302160,
          "time": 233.147915,
          "velocity": 0.3464566929133858
        },
        {
          "duration": 0.18518499999998994,
          "durationTicks": 240,
          "midi": 40,
          "name": "E2",
          "ticks": 302400,
          "time": 233.33310000000003,
          "velocity": 0.30708661417322836
        },
        {
          "duration": 0.18518499999998994,
          "durationTicks": 240,
          "midi": 52,
          "name": "E3",
          "ticks": 302400,
          "time": 233.33310000000003,
          "velocity": 0.3464566929133858
        },
        {
          "duration": 0.18518499999998994,
          "durationTicks": 240,
          "midi": 56,
          "name": "G#3",
          "ticks": 302400,
          "time": 233.33310000000003,
          "velocity": 0.3464566929133858
        },
        {
          "duration": 0.18518499999998994,
          "durationTicks": 240,
          "midi": 60,
          "name": "C4",
          "ticks": 302400,
          "time": 233.33310000000003,
          "velocity": 0.25196850393700787
        },
        {
          "duration": 0.18518499999998994,
          "durationTicks": 240,
          "midi": 64,
          "name": "E4",
          "ticks": 302400,
          "time": 233.33310000000003,
          "velocity": 0.3464566929133858
        },
        {
          "duration": 0.18518499999998994,
          "durationTicks": 240,
          "midi": 68,
          "name": "G#4",
          "ticks": 302400,
          "time": 233.33310000000003,
          "velocity": 0.2755905511811024
        },
        {
          "duration": 0.21604916666669283,
          "durationTicks": 280,
          "midi": 40,
          "name": "E2",
          "ticks": 302640,
          "time": 233.51828500000002,
          "velocity": 0.3543307086614173
        },
        {
          "duration": 0.18518500000001836,
          "durationTicks": 240,
          "midi": 35,
          "name": "B1",
          "ticks": 302880,
          "time": 233.70347,
          "velocity": 0.28346456692913385
        },
        {
          "duration": 0.18518500000001836,
          "durationTicks": 240,
          "midi": 38,
          "name": "D2",
          "ticks": 302880,
          "time": 233.70347,
          "velocity": 0.23622047244094488
        },
        {
          "duration": 0.18518500000001836,
          "durationTicks": 240,
          "midi": 60,
          "name": "C4",
          "ticks": 302880,
          "time": 233.70347,
          "velocity": 0.2283464566929134
        },
        {
          "duration": 0.18518500000001836,
          "durationTicks": 240,
          "midi": 64,
          "name": "E4",
          "ticks": 302880,
          "time": 233.70347,
          "velocity": 0.2440944881889764
        },
        {
          "duration": 0.18518499999998994,
          "durationTicks": 240,
          "midi": 34,
          "name": "A#1",
          "ticks": 303120,
          "time": 233.88865500000003,
          "velocity": 0.33858267716535434
        },
        {
          "duration": 0.18518499999998994,
          "durationTicks": 240,
          "midi": 56,
          "name": "G#3",
          "ticks": 303120,
          "time": 233.88865500000003,
          "velocity": 0.2440944881889764
        },
        {
          "duration": 0.18518499999998994,
          "durationTicks": 240,
          "midi": 33,
          "name": "A1",
          "ticks": 303360,
          "time": 234.07384000000002,
          "velocity": 0.4015748031496063
        },
        {
          "duration": 0.18518499999998994,
          "durationTicks": 240,
          "midi": 38,
          "name": "D2",
          "ticks": 303360,
          "time": 234.07384000000002,
          "velocity": 0.36220472440944884
        },
        {
          "duration": 0.18518499999998994,
          "durationTicks": 240,
          "midi": 45,
          "name": "A2",
          "ticks": 303360,
          "time": 234.07384000000002,
          "velocity": 0.2677165354330709
        },
        {
          "duration": 0.18518499999998994,
          "durationTicks": 240,
          "midi": 52,
          "name": "E3",
          "ticks": 303360,
          "time": 234.07384000000002,
          "velocity": 0.2755905511811024
        },
        {
          "duration": 0.18518499999998994,
          "durationTicks": 240,
          "midi": 55,
          "name": "G3",
          "ticks": 303360,
          "time": 234.07384000000002,
          "velocity": 0.25984251968503935
        },
        {
          "duration": 0.18518499999998994,
          "durationTicks": 240,
          "midi": 60,
          "name": "C4",
          "ticks": 303360,
          "time": 234.07384000000002,
          "velocity": 0.25984251968503935
        },
        {
          "duration": 0.18518499999998994,
          "durationTicks": 240,
          "midi": 62,
          "name": "D4",
          "ticks": 303360,
          "time": 234.07384000000002,
          "velocity": 0.5984251968503937
        },
        {
          "duration": 0.18518499999998994,
          "durationTicks": 240,
          "midi": 64,
          "name": "E4",
          "ticks": 303360,
          "time": 234.07384000000002,
          "velocity": 0.25984251968503935
        },
        {
          "duration": 0.18518499999998994,
          "durationTicks": 240,
          "midi": 71,
          "name": "B4",
          "ticks": 303360,
          "time": 234.07384000000002,
          "velocity": 0.2677165354330709
        },
        {
          "duration": 0.18518500000001836,
          "durationTicks": 240,
          "midi": 33,
          "name": "A1",
          "ticks": 303600,
          "time": 234.259025,
          "velocity": 0.28346456692913385
        },
        {
          "duration": 0.18518500000001836,
          "durationTicks": 240,
          "midi": 45,
          "name": "A2",
          "ticks": 303600,
          "time": 234.259025,
          "velocity": 0.2992125984251969
        },
        {
          "duration": 0.18518500000001836,
          "durationTicks": 240,
          "midi": 52,
          "name": "E3",
          "ticks": 303600,
          "time": 234.259025,
          "velocity": 0.4251968503937008
        },
        {
          "duration": 0.18518500000001836,
          "durationTicks": 240,
          "midi": 57,
          "name": "A3",
          "ticks": 303600,
          "time": 234.259025,
          "velocity": 0.2992125984251969
        },
        {
          "duration": 0.15432083333331548,
          "durationTicks": 200,
          "midi": 57,
          "name": "A3",
          "ticks": 303840,
          "time": 234.44421000000003,
          "velocity": 0.31496062992125984
        },
        {
          "duration": 0.2160491666666644,
          "durationTicks": 280,
          "midi": 60,
          "name": "C4",
          "ticks": 303840,
          "time": 234.44421000000003,
          "velocity": 0.2283464566929134
        },
        {
          "duration": 0.15432083333331548,
          "durationTicks": 200,
          "midi": 64,
          "name": "E4",
          "ticks": 303840,
          "time": 234.44421000000003,
          "velocity": 0.6771653543307087
        },
        {
          "duration": 0.18518499999998994,
          "durationTicks": 240,
          "midi": 33,
          "name": "A1",
          "ticks": 304080,
          "time": 234.62939500000002,
          "velocity": 0.3543307086614173
        },
        {
          "duration": 0.18518499999998994,
          "durationTicks": 240,
          "midi": 45,
          "name": "A2",
          "ticks": 304080,
          "time": 234.62939500000002,
          "velocity": 0.3779527559055118
        },
        {
          "duration": 0.18518499999998994,
          "durationTicks": 240,
          "midi": 52,
          "name": "E3",
          "ticks": 304080,
          "time": 234.62939500000002,
          "velocity": 0.6141732283464567
        },
        {
          "duration": 0.18518499999998994,
          "durationTicks": 240,
          "midi": 57,
          "name": "A3",
          "ticks": 304080,
          "time": 234.62939500000002,
          "velocity": 0.3779527559055118
        },
        {
          "duration": 0.18518499999998994,
          "durationTicks": 240,
          "midi": 60,
          "name": "C4",
          "ticks": 304080,
          "time": 234.62939500000002,
          "velocity": 0.28346456692913385
        },
        {
          "duration": 0.18518499999998994,
          "durationTicks": 240,
          "midi": 64,
          "name": "E4",
          "ticks": 304080,
          "time": 234.62939500000002,
          "velocity": 0.6141732283464567
        },
        {
          "duration": 0.1543208333333439,
          "durationTicks": 200,
          "midi": 33,
          "name": "A1",
          "ticks": 304320,
          "time": 234.81458,
          "velocity": 0.41732283464566927
        },
        {
          "duration": 0.1543208333333439,
          "durationTicks": 200,
          "midi": 50,
          "name": "D3",
          "ticks": 304320,
          "time": 234.81458,
          "velocity": 0.2677165354330709
        },
        {
          "duration": 0.1543208333333439,
          "durationTicks": 200,
          "midi": 57,
          "name": "A3",
          "ticks": 304320,
          "time": 234.81458,
          "velocity": 0.4330708661417323
        },
        {
          "duration": 0.18518499999998994,
          "durationTicks": 240,
          "midi": 33,
          "name": "A1",
          "ticks": 304560,
          "time": 234.99976500000002,
          "velocity": 0.3464566929133858
        },
        {
          "duration": 0.18518499999998994,
          "durationTicks": 240,
          "midi": 54,
          "name": "F#3",
          "ticks": 304560,
          "time": 234.99976500000002,
          "velocity": 0.7165354330708661
        },
        {
          "duration": 0.15432083333331548,
          "durationTicks": 200,
          "midi": 66,
          "name": "F#4",
          "ticks": 304560,
          "time": 234.99976500000002,
          "velocity": 0.7559055118110236
        },
        {
          "duration": 0.21604916666669283,
          "durationTicks": 280,
          "midi": 40,
          "name": "E2",
          "ticks": 304800,
          "time": 235.18495000000001,
          "velocity": 0.3464566929133858
        },
        {
          "duration": 0.21604916666669283,
          "durationTicks": 280,
          "midi": 60,
          "name": "C4",
          "ticks": 304800,
          "time": 235.18495000000001,
          "velocity": 0.25984251968503935
        },
        {
          "duration": 0.2160491666666644,
          "durationTicks": 280,
          "midi": 39,
          "name": "D#2",
          "ticks": 305040,
          "time": 235.37013500000003,
          "velocity": 0.33858267716535434
        },
        {
          "duration": 0.2160491666666644,
          "durationTicks": 280,
          "midi": 54,
          "name": "F#3",
          "ticks": 305040,
          "time": 235.37013500000003,
          "velocity": 0.5118110236220472
        },
        {
          "duration": 0.2160491666666644,
          "durationTicks": 280,
          "midi": 55,
          "name": "G3",
          "ticks": 305040,
          "time": 235.37013500000003,
          "velocity": 0.2677165354330709
        },
        {
          "duration": 0.2160491666666644,
          "durationTicks": 280,
          "midi": 57,
          "name": "A3",
          "ticks": 305040,
          "time": 235.37013500000003,
          "velocity": 0.2440944881889764
        },
        {
          "duration": 0.2160491666666644,
          "durationTicks": 280,
          "midi": 60,
          "name": "C4",
          "ticks": 305040,
          "time": 235.37013500000003,
          "velocity": 0.2677165354330709
        },
        {
          "duration": 0.2160491666666644,
          "durationTicks": 280,
          "midi": 66,
          "name": "F#4",
          "ticks": 305040,
          "time": 235.37013500000003,
          "velocity": 0.5118110236220472
        },
        {
          "duration": 0.2160491666666644,
          "durationTicks": 280,
          "midi": 67,
          "name": "G4",
          "ticks": 305040,
          "time": 235.37013500000003,
          "velocity": 0.3228346456692913
        },
        {
          "duration": 0.18518499999998994,
          "durationTicks": 240,
          "midi": 38,
          "name": "D2",
          "ticks": 305280,
          "time": 235.55532000000002,
          "velocity": 0.3464566929133858
        },
        {
          "duration": 0.18518499999998994,
          "durationTicks": 240,
          "midi": 55,
          "name": "G3",
          "ticks": 305280,
          "time": 235.55532000000002,
          "velocity": 0.33858267716535434
        },
        {
          "duration": 0.18518499999998994,
          "durationTicks": 240,
          "midi": 60,
          "name": "C4",
          "ticks": 305280,
          "time": 235.55532000000002,
          "velocity": 0.25196850393700787
        },
        {
          "duration": 0.18518499999998994,
          "durationTicks": 240,
          "midi": 64,
          "name": "E4",
          "ticks": 305280,
          "time": 235.55532000000002,
          "velocity": 0.23622047244094488
        },
        {
          "duration": 0.18518499999998994,
          "durationTicks": 240,
          "midi": 67,
          "name": "G4",
          "ticks": 305280,
          "time": 235.55532000000002,
          "velocity": 0.33858267716535434
        },
        {
          "duration": 0.15432083333331548,
          "durationTicks": 200,
          "midi": 38,
          "name": "D2",
          "ticks": 305520,
          "time": 235.740505,
          "velocity": 0.33858267716535434
        },
        {
          "duration": 0.15432083333331548,
          "durationTicks": 200,
          "midi": 64,
          "name": "E4",
          "ticks": 305520,
          "time": 235.740505,
          "velocity": 0.2283464566929134
        },
        {
          "duration": 0.18518499999998994,
          "durationTicks": 240,
          "midi": 54,
          "name": "F#3",
          "ticks": 305760,
          "time": 235.92569000000003,
          "velocity": 0.33858267716535434
        },
        {
          "duration": 0.18518499999998994,
          "durationTicks": 240,
          "midi": 66,
          "name": "F#4",
          "ticks": 305760,
          "time": 235.92569000000003,
          "velocity": 0.6614173228346457
        },
        {
          "duration": 0.15432083333331548,
          "durationTicks": 200,
          "midi": 78,
          "name": "F#5",
          "ticks": 305760,
          "time": 235.92569000000003,
          "velocity": 0.6614173228346457
        },
        {
          "duration": 0.18518499999998994,
          "durationTicks": 240,
          "midi": 33,
          "name": "A1",
          "ticks": 306000,
          "time": 236.11087500000002,
          "velocity": 0.36220472440944884
        },
        {
          "duration": 0.18518499999998994,
          "durationTicks": 240,
          "midi": 55,
          "name": "G3",
          "ticks": 306000,
          "time": 236.11087500000002,
          "velocity": 0.25196850393700787
        },
        {
          "duration": 0.18518499999998994,
          "durationTicks": 240,
          "midi": 60,
          "name": "C4",
          "ticks": 306000,
          "time": 236.11087500000002,
          "velocity": 0.2677165354330709
        },
        {
          "duration": 0.18518499999998994,
          "durationTicks": 240,
          "midi": 64,
          "name": "E4",
          "ticks": 306000,
          "time": 236.11087500000002,
          "velocity": 0.2204724409448819
        },
        {
          "duration": 0.18518500000001836,
          "durationTicks": 240,
          "midi": 38,
          "name": "D2",
          "ticks": 306240,
          "time": 236.29606,
          "velocity": 0.3543307086614173
        },
        {
          "duration": 0.18518500000001836,
          "durationTicks": 240,
          "midi": 52,
          "name": "E3",
          "ticks": 306240,
          "time": 236.29606,
          "velocity": 0.29133858267716534
        },
        {
          "duration": 0.18518500000001836,
          "durationTicks": 240,
          "midi": 64,
          "name": "E4",
          "ticks": 306240,
          "time": 236.29606,
          "velocity": 0.6220472440944882
        },
        {
          "duration": 0.18518500000001836,
          "durationTicks": 240,
          "midi": 76,
          "name": "E5",
          "ticks": 306240,
          "time": 236.29606,
          "velocity": 0.6220472440944882
        },
        {
          "duration": 0.18518499999998994,
          "durationTicks": 240,
          "midi": 37,
          "name": "C#2",
          "ticks": 306480,
          "time": 236.48124500000003,
          "velocity": 0.31496062992125984
        },
        {
          "duration": 0.15432083333331548,
          "durationTicks": 200,
          "midi": 38,
          "name": "D2",
          "ticks": 306720,
          "time": 236.66643000000002,
          "velocity": 0.28346456692913385
        },
        {
          "duration": 0.15432083333331548,
          "durationTicks": 200,
          "midi": 52,
          "name": "E3",
          "ticks": 306720,
          "time": 236.66643000000002,
          "velocity": 0.2440944881889764
        },
        {
          "duration": 0.15432083333331548,
          "durationTicks": 200,
          "midi": 55,
          "name": "G3",
          "ticks": 306720,
          "time": 236.66643000000002,
          "velocity": 0.25196850393700787
        },
        {
          "duration": 0.15432083333331548,
          "durationTicks": 200,
          "midi": 60,
          "name": "C4",
          "ticks": 306720,
          "time": 236.66643000000002,
          "velocity": 0.28346456692913385
        },
        {
          "duration": 0.15432083333331548,
          "durationTicks": 200,
          "midi": 63,
          "name": "D#4",
          "ticks": 306720,
          "time": 236.66643000000002,
          "velocity": 0.25984251968503935
        },
        {
          "duration": 0.15432083333331548,
          "durationTicks": 200,
          "midi": 64,
          "name": "E4",
          "ticks": 306720,
          "time": 236.66643000000002,
          "velocity": 0.2440944881889764
        },
        {
          "duration": 0.18518500000001836,
          "durationTicks": 240,
          "midi": 39,
          "name": "D#2",
          "ticks": 306960,
          "time": 236.851615,
          "velocity": 0.33858267716535434
        },
        {
          "duration": 0.18518500000001836,
          "durationTicks": 240,
          "midi": 60,
          "name": "C4",
          "ticks": 306960,
          "time": 236.851615,
          "velocity": 0.33070866141732286
        },
        {
          "duration": 0.18518500000001836,
          "durationTicks": 240,
          "midi": 64,
          "name": "E4",
          "ticks": 306960,
          "time": 236.851615,
          "velocity": 0.28346456692913385
        },
        {
          "duration": 0.6172833333333188,
          "durationTicks": 800,
          "midi": 59,
          "name": "B3",
          "ticks": 307080,
          "time": 236.94420750000003,
          "velocity": 0.41732283464566927
        },
        {
          "duration": 0.5246908333333238,
          "durationTicks": 680,
          "midi": 40,
          "name": "E2",
          "ticks": 307200,
          "time": 237.03680000000003,
          "velocity": 0.4015748031496063
        },
        {
          "duration": 0.5246908333333238,
          "durationTicks": 680,
          "midi": 47,
          "name": "B2",
          "ticks": 307200,
          "time": 237.03680000000003,
          "velocity": 0.41732283464566927
        },
        {
          "duration": 0.5864191666666727,
          "durationTicks": 760,
          "midi": 51,
          "name": "D#3",
          "ticks": 307200,
          "time": 237.03680000000003,
          "velocity": 0.36220472440944884
        },
        {
          "duration": 0.5864191666666727,
          "durationTicks": 760,
          "midi": 56,
          "name": "G#3",
          "ticks": 307200,
          "time": 237.03680000000003,
          "velocity": 0.2204724409448819
        },
        {
          "duration": 0.5864191666666727,
          "durationTicks": 760,
          "midi": 63,
          "name": "D#4",
          "ticks": 307200,
          "time": 237.03680000000003,
          "velocity": 0.25196850393700787
        },
        {
          "duration": 0.18518499999998994,
          "durationTicks": 240,
          "midi": 40,
          "name": "E2",
          "ticks": 307920,
          "time": 237.59235500000003,
          "velocity": 0.3228346456692913
        },
        {
          "duration": 0.18518499999998994,
          "durationTicks": 240,
          "midi": 59,
          "name": "B3",
          "ticks": 307920,
          "time": 237.59235500000003,
          "velocity": 0.25984251968503935
        },
        {
          "duration": 0.18518499999998994,
          "durationTicks": 240,
          "midi": 66,
          "name": "F#4",
          "ticks": 307920,
          "time": 237.59235500000003,
          "velocity": 0.3228346456692913
        },
        {
          "duration": 0.3703700000000083,
          "durationTicks": 480,
          "midi": 40,
          "name": "E2",
          "ticks": 308160,
          "time": 237.77754000000002,
          "velocity": 0.33858267716535434
        },
        {
          "duration": 0.3703700000000083,
          "durationTicks": 480,
          "midi": 68,
          "name": "G#4",
          "ticks": 308160,
          "time": 237.77754000000002,
          "velocity": 0.3858267716535433
        },
        {
          "duration": 0.18518499999998994,
          "durationTicks": 240,
          "midi": 37,
          "name": "C#2",
          "ticks": 308640,
          "time": 238.14791000000002,
          "velocity": 0.3228346456692913
        },
        {
          "duration": 0.2160491666666644,
          "durationTicks": 280,
          "midi": 56,
          "name": "G#3",
          "ticks": 308640,
          "time": 238.14791000000002,
          "velocity": 0.4881889763779528
        },
        {
          "duration": 0.2160491666666644,
          "durationTicks": 280,
          "midi": 59,
          "name": "B3",
          "ticks": 308640,
          "time": 238.14791000000002,
          "velocity": 0.2283464566929134
        },
        {
          "duration": 0.2160491666666644,
          "durationTicks": 280,
          "midi": 63,
          "name": "D#4",
          "ticks": 308640,
          "time": 238.14791000000002,
          "velocity": 0.25196850393700787
        },
        {
          "duration": 0.2160491666666644,
          "durationTicks": 280,
          "midi": 68,
          "name": "G#4",
          "ticks": 308640,
          "time": 238.14791000000002,
          "velocity": 0.4881889763779528
        },
        {
          "duration": 0.15432083333331548,
          "durationTicks": 200,
          "midi": 36,
          "name": "C2",
          "ticks": 308880,
          "time": 238.33309500000001,
          "velocity": 0.3700787401574803
        },
        {
          "duration": 0.18518499999998994,
          "durationTicks": 240,
          "midi": 35,
          "name": "B1",
          "ticks": 309120,
          "time": 238.51828000000003,
          "velocity": 0.3858267716535433
        },
        {
          "duration": 0.18518499999998994,
          "durationTicks": 240,
          "midi": 56,
          "name": "G#3",
          "ticks": 309120,
          "time": 238.51828000000003,
          "velocity": 0.4251968503937008
        },
        {
          "duration": 0.18518499999998994,
          "durationTicks": 240,
          "midi": 57,
          "name": "A3",
          "ticks": 309120,
          "time": 238.51828000000003,
          "velocity": 0.25984251968503935
        },
        {
          "duration": 0.18518499999998994,
          "durationTicks": 240,
          "midi": 62,
          "name": "D4",
          "ticks": 309120,
          "time": 238.51828000000003,
          "velocity": 0.2283464566929134
        },
        {
          "duration": 0.18518499999998994,
          "durationTicks": 240,
          "midi": 64,
          "name": "E4",
          "ticks": 309120,
          "time": 238.51828000000003,
          "velocity": 0.25984251968503935
        },
        {
          "duration": 0.18518499999998994,
          "durationTicks": 240,
          "midi": 68,
          "name": "G#4",
          "ticks": 309360,
          "time": 238.70346500000002,
          "velocity": 0.5118110236220472
        },
        {
          "duration": 0.18518500000001836,
          "durationTicks": 240,
          "midi": 42,
          "name": "F#2",
          "ticks": 309600,
          "time": 238.88865,
          "velocity": 0.2992125984251969
        },
        {
          "duration": 0.18518500000001836,
          "durationTicks": 240,
          "midi": 68,
          "name": "G#4",
          "ticks": 309600,
          "time": 238.88865,
          "velocity": 0.5039370078740157
        },
        {
          "duration": 0.18518499999998994,
          "durationTicks": 240,
          "midi": 41,
          "name": "F2",
          "ticks": 309840,
          "time": 239.07383500000003,
          "velocity": 0.2677165354330709
        },
        {
          "duration": 0.18518499999998994,
          "durationTicks": 240,
          "midi": 56,
          "name": "G#3",
          "ticks": 309840,
          "time": 239.07383500000003,
          "velocity": 0.3937007874015748
        },
        {
          "duration": 0.18518499999998994,
          "durationTicks": 240,
          "midi": 62,
          "name": "D4",
          "ticks": 309840,
          "time": 239.07383500000003,
          "velocity": 0.2440944881889764
        },
        {
          "duration": 0.18518499999998994,
          "durationTicks": 240,
          "midi": 34,
          "name": "A#1",
          "ticks": 310080,
          "time": 239.25902000000002,
          "velocity": 0.29133858267716534
        },
        {
          "duration": 0.18518499999998994,
          "durationTicks": 240,
          "midi": 40,
          "name": "E2",
          "ticks": 310080,
          "time": 239.25902000000002,
          "velocity": 0.31496062992125984
        },
        {
          "duration": 0.18518499999998994,
          "durationTicks": 240,
          "midi": 46,
          "name": "A#2",
          "ticks": 310080,
          "time": 239.25902000000002,
          "velocity": 0.23622047244094488
        },
        {
          "duration": 0.18518499999998994,
          "durationTicks": 240,
          "midi": 62,
          "name": "D4",
          "ticks": 310080,
          "time": 239.25902000000002,
          "velocity": 0.28346456692913385
        },
        {
          "duration": 0.18518499999998994,
          "durationTicks": 240,
          "midi": 66,
          "name": "F#4",
          "ticks": 310080,
          "time": 239.25902000000002,
          "velocity": 0.2992125984251969
        },
        {
          "duration": 0.18518499999998994,
          "durationTicks": 240,
          "midi": 78,
          "name": "F#5",
          "ticks": 310080,
          "time": 239.25902000000002,
          "velocity": 0.2047244094488189
        },
        {
          "duration": 0.18518500000001836,
          "durationTicks": 240,
          "midi": 40,
          "name": "E2",
          "ticks": 310320,
          "time": 239.444205,
          "velocity": 0.28346456692913385
        },
        {
          "duration": 0.18518500000001836,
          "durationTicks": 240,
          "midi": 56,
          "name": "G#3",
          "ticks": 310320,
          "time": 239.444205,
          "velocity": 0.2755905511811024
        },
        {
          "duration": 0.18518499999998994,
          "durationTicks": 240,
          "midi": 35,
          "name": "B1",
          "ticks": 310560,
          "time": 239.62939000000003,
          "velocity": 0.2677165354330709
        },
        {
          "duration": 0.18518499999998994,
          "durationTicks": 240,
          "midi": 56,
          "name": "G#3",
          "ticks": 310560,
          "time": 239.62939000000003,
          "velocity": 0.30708661417322836
        },
        {
          "duration": 0.18518499999998994,
          "durationTicks": 240,
          "midi": 62,
          "name": "D4",
          "ticks": 310560,
          "time": 239.62939000000003,
          "velocity": 0.2677165354330709
        },
        {
          "duration": 0.18518499999998994,
          "durationTicks": 240,
          "midi": 66,
          "name": "F#4",
          "ticks": 310560,
          "time": 239.62939000000003,
          "velocity": 0.3228346456692913
        },
        {
          "duration": 0.18518499999998994,
          "durationTicks": 240,
          "midi": 34,
          "name": "A#1",
          "ticks": 310800,
          "time": 239.81457500000002,
          "velocity": 0.33858267716535434
        },
        {
          "duration": 0.18518499999998994,
          "durationTicks": 240,
          "midi": 56,
          "name": "G#3",
          "ticks": 310800,
          "time": 239.81457500000002,
          "velocity": 0.25984251968503935
        },
        {
          "duration": 0.18518500000001836,
          "durationTicks": 240,
          "midi": 33,
          "name": "A1",
          "ticks": 311040,
          "time": 239.99976,
          "velocity": 0.3779527559055118
        },
        {
          "duration": 0.18518500000001836,
          "durationTicks": 240,
          "midi": 45,
          "name": "A2",
          "ticks": 311040,
          "time": 239.99976,
          "velocity": 0.30708661417322836
        },
        {
          "duration": 0.18518500000001836,
          "durationTicks": 240,
          "midi": 52,
          "name": "E3",
          "ticks": 311040,
          "time": 239.99976,
          "velocity": 0.48031496062992124
        },
        {
          "duration": 0.18518500000001836,
          "durationTicks": 240,
          "midi": 56,
          "name": "G#3",
          "ticks": 311040,
          "time": 239.99976,
          "velocity": 0.2992125984251969
        },
        {
          "duration": 0.18518500000001836,
          "durationTicks": 240,
          "midi": 61,
          "name": "C#4",
          "ticks": 311040,
          "time": 239.99976,
          "velocity": 0.1889763779527559
        },
        {
          "duration": 0.18518500000001836,
          "durationTicks": 240,
          "midi": 64,
          "name": "E4",
          "ticks": 311040,
          "time": 239.99976,
          "velocity": 0.48031496062992124
        },
        {
          "duration": 0.18518499999998994,
          "durationTicks": 240,
          "midi": 45,
          "name": "A2",
          "ticks": 311280,
          "time": 240.18494500000003,
          "velocity": 0.33070866141732286
        },
        {
          "duration": 0.18518499999998994,
          "durationTicks": 240,
          "midi": 56,
          "name": "G#3",
          "ticks": 311520,
          "time": 240.37013000000002,
          "velocity": 0.31496062992125984
        },
        {
          "duration": 0.18518499999998994,
          "durationTicks": 240,
          "midi": 61,
          "name": "C#4",
          "ticks": 311520,
          "time": 240.37013000000002,
          "velocity": 0.5826771653543307
        },
        {
          "duration": 0.18518499999998994,
          "durationTicks": 240,
          "midi": 64,
          "name": "E4",
          "ticks": 311520,
          "time": 240.37013000000002,
          "velocity": 0.2440944881889764
        },
        {
          "duration": 0.18518500000001836,
          "durationTicks": 240,
          "midi": 45,
          "name": "A2",
          "ticks": 311760,
          "time": 240.555315,
          "velocity": 0.36220472440944884
        },
        {
          "duration": 0.18518500000001836,
          "durationTicks": 240,
          "midi": 52,
          "name": "E3",
          "ticks": 311760,
          "time": 240.555315,
          "velocity": 0.2992125984251969
        },
        {
          "duration": 0.18518500000001836,
          "durationTicks": 240,
          "midi": 56,
          "name": "G#3",
          "ticks": 311760,
          "time": 240.555315,
          "velocity": 0.2677165354330709
        },
        {
          "duration": 0.1543208333333439,
          "durationTicks": 200,
          "midi": 61,
          "name": "C#4",
          "ticks": 311760,
          "time": 240.555315,
          "velocity": 0.3228346456692913
        },
        {
          "duration": 0.1543208333333439,
          "durationTicks": 200,
          "midi": 64,
          "name": "E4",
          "ticks": 311760,
          "time": 240.555315,
          "velocity": 0.33858267716535434
        },
        {
          "duration": 0.18518499999998994,
          "durationTicks": 240,
          "midi": 33,
          "name": "A1",
          "ticks": 312000,
          "time": 240.74050000000003,
          "velocity": 0.3937007874015748
        },
        {
          "duration": 0.18518499999998994,
          "durationTicks": 240,
          "midi": 56,
          "name": "G#3",
          "ticks": 312000,
          "time": 240.74050000000003,
          "velocity": 0.28346456692913385
        },
        {
          "duration": 0.18518499999998994,
          "durationTicks": 240,
          "midi": 64,
          "name": "E4",
          "ticks": 312000,
          "time": 240.74050000000003,
          "velocity": 0.49606299212598426
        },
        {
          "duration": 0.21604916666669283,
          "durationTicks": 280,
          "midi": 54,
          "name": "F#3",
          "ticks": 312240,
          "time": 240.92568500000002,
          "velocity": 0.5039370078740157
        },
        {
          "duration": 0.21604916666669283,
          "durationTicks": 280,
          "midi": 56,
          "name": "G#3",
          "ticks": 312240,
          "time": 240.92568500000002,
          "velocity": 0.28346456692913385
        },
        {
          "duration": 0.21604916666669283,
          "durationTicks": 280,
          "midi": 61,
          "name": "C#4",
          "ticks": 312240,
          "time": 240.92568500000002,
          "velocity": 0.2677165354330709
        },
        {
          "duration": 0.21604916666669283,
          "durationTicks": 280,
          "midi": 66,
          "name": "F#4",
          "ticks": 312240,
          "time": 240.92568500000002,
          "velocity": 0.5039370078740157
        },
        {
          "duration": 0.18518499999998994,
          "durationTicks": 240,
          "midi": 42,
          "name": "F#2",
          "ticks": 312480,
          "time": 241.11087000000003,
          "velocity": 0.31496062992125984
        },
        {
          "duration": 0.15432083333331548,
          "durationTicks": 200,
          "midi": 43,
          "name": "G2",
          "ticks": 312720,
          "time": 241.29605500000002,
          "velocity": 0.28346456692913385
        },
        {
          "duration": 0.15432083333331548,
          "durationTicks": 200,
          "midi": 54,
          "name": "F#3",
          "ticks": 312720,
          "time": 241.29605500000002,
          "velocity": 0.3858267716535433
        },
        {
          "duration": 0.15432083333331548,
          "durationTicks": 200,
          "midi": 56,
          "name": "G#3",
          "ticks": 312720,
          "time": 241.29605500000002,
          "velocity": 0.2992125984251969
        },
        {
          "duration": 0.15432083333331548,
          "durationTicks": 200,
          "midi": 61,
          "name": "C#4",
          "ticks": 312720,
          "time": 241.29605500000002,
          "velocity": 0.30708661417322836
        },
        {
          "duration": 0.15432083333331548,
          "durationTicks": 200,
          "midi": 64,
          "name": "E4",
          "ticks": 312720,
          "time": 241.29605500000002,
          "velocity": 0.23622047244094488
        },
        {
          "duration": 0.2160491666666644,
          "durationTicks": 280,
          "midi": 66,
          "name": "F#4",
          "ticks": 312720,
          "time": 241.29605500000002,
          "velocity": 0.6456692913385826
        },
        {
          "duration": 0.18518500000001836,
          "durationTicks": 240,
          "midi": 44,
          "name": "G#2",
          "ticks": 312960,
          "time": 241.48124,
          "velocity": 0.5196850393700787
        },
        {
          "duration": 0.18518500000001836,
          "durationTicks": 240,
          "midi": 56,
          "name": "G#3",
          "ticks": 312960,
          "time": 241.48124,
          "velocity": 0.5196850393700787
        },
        {
          "duration": 0.18518500000001836,
          "durationTicks": 240,
          "midi": 60,
          "name": "C4",
          "ticks": 312960,
          "time": 241.48124,
          "velocity": 0.2283464566929134
        },
        {
          "duration": 0.18518500000001836,
          "durationTicks": 240,
          "midi": 65,
          "name": "F4",
          "ticks": 312960,
          "time": 241.48124,
          "velocity": 0.2677165354330709
        },
        {
          "duration": 0.21604916666669283,
          "durationTicks": 280,
          "midi": 68,
          "name": "G#4",
          "ticks": 312960,
          "time": 241.48124,
          "velocity": 0.5984251968503937
        },
        {
          "duration": 0.18518499999998994,
          "durationTicks": 240,
          "midi": 44,
          "name": "G#2",
          "ticks": 313200,
          "time": 241.66642500000003,
          "velocity": 0.5511811023622047
        },
        {
          "duration": 0.18518499999998994,
          "durationTicks": 240,
          "midi": 56,
          "name": "G#3",
          "ticks": 313200,
          "time": 241.66642500000003,
          "velocity": 0.5511811023622047
        },
        {
          "duration": 0.18518499999998994,
          "durationTicks": 240,
          "midi": 60,
          "name": "C4",
          "ticks": 313200,
          "time": 241.66642500000003,
          "velocity": 0.2440944881889764
        },
        {
          "duration": 0.24691333333331045,
          "durationTicks": 320,
          "midi": 54,
          "name": "F#3",
          "ticks": 313320,
          "time": 241.75901750000003,
          "velocity": 0.25984251968503935
        },
        {
          "duration": 0.24691333333331045,
          "durationTicks": 320,
          "midi": 57,
          "name": "A3",
          "ticks": 313320,
          "time": 241.75901750000003,
          "velocity": 0.36220472440944884
        },
        {
          "duration": 0.21604916666669283,
          "durationTicks": 280,
          "midi": 46,
          "name": "A#2",
          "ticks": 313440,
          "time": 241.85161000000002,
          "velocity": 0.2677165354330709
        },
        {
          "duration": 0.21604916666669283,
          "durationTicks": 280,
          "midi": 69,
          "name": "A4",
          "ticks": 313440,
          "time": 241.85161000000002,
          "velocity": 0.41732283464566927
        },
        {
          "duration": 0.18518500000001836,
          "durationTicks": 240,
          "midi": 47,
          "name": "B2",
          "ticks": 313680,
          "time": 242.036795,
          "velocity": 0.2440944881889764
        },
        {
          "duration": 0.18518500000001836,
          "durationTicks": 240,
          "midi": 59,
          "name": "B3",
          "ticks": 313680,
          "time": 242.036795,
          "velocity": 0.2283464566929134
        },
        {
          "duration": 0.18518500000001836,
          "durationTicks": 240,
          "midi": 60,
          "name": "C4",
          "ticks": 313680,
          "time": 242.036795,
          "velocity": 0.2677165354330709
        },
        {
          "duration": 0.18518500000001836,
          "durationTicks": 240,
          "midi": 64,
          "name": "E4",
          "ticks": 313680,
          "time": 242.036795,
          "velocity": 0.2125984251968504
        },
        {
          "duration": 0.18518500000001836,
          "durationTicks": 240,
          "midi": 68,
          "name": "G#4",
          "ticks": 313680,
          "time": 242.036795,
          "velocity": 0.2283464566929134
        },
        {
          "duration": 0.2160491666666644,
          "durationTicks": 280,
          "midi": 48,
          "name": "C3",
          "ticks": 313920,
          "time": 242.22198000000003,
          "velocity": 0.28346456692913385
        },
        {
          "duration": 0.2160491666666644,
          "durationTicks": 280,
          "midi": 50,
          "name": "D3",
          "ticks": 313920,
          "time": 242.22198000000003,
          "velocity": 0.28346456692913385
        },
        {
          "duration": 0.2160491666666644,
          "durationTicks": 280,
          "midi": 59,
          "name": "B3",
          "ticks": 313920,
          "time": 242.22198000000003,
          "velocity": 0.3700787401574803
        },
        {
          "duration": 0.2160491666666644,
          "durationTicks": 280,
          "midi": 64,
          "name": "E4",
          "ticks": 313920,
          "time": 242.22198000000003,
          "velocity": 0.2283464566929134
        },
        {
          "duration": 0.2160491666666644,
          "durationTicks": 280,
          "midi": 68,
          "name": "G#4",
          "ticks": 313920,
          "time": 242.22198000000003,
          "velocity": 0.2283464566929134
        },
        {
          "duration": 0.2160491666666644,
          "durationTicks": 280,
          "midi": 71,
          "name": "B4",
          "ticks": 313920,
          "time": 242.22198000000003,
          "velocity": 0.3700787401574803
        },
        {
          "duration": 0.18518499999998994,
          "durationTicks": 240,
          "midi": 44,
          "name": "G#2",
          "ticks": 314160,
          "time": 242.40716500000002,
          "velocity": 0.25984251968503935
        },
        {
          "duration": 0.18518499999998994,
          "durationTicks": 240,
          "midi": 64,
          "name": "E4",
          "ticks": 314160,
          "time": 242.40716500000002,
          "velocity": 0.2047244094488189
        },
        {
          "duration": 0.21604916666669283,
          "durationTicks": 280,
          "midi": 39,
          "name": "D#2",
          "ticks": 314400,
          "time": 242.59235,
          "velocity": 0.36220472440944884
        },
        {
          "duration": 0.21604916666669283,
          "durationTicks": 280,
          "midi": 61,
          "name": "C#4",
          "ticks": 314400,
          "time": 242.59235,
          "velocity": 0.5196850393700787
        },
        {
          "duration": 0.21604916666669283,
          "durationTicks": 280,
          "midi": 69,
          "name": "A4",
          "ticks": 314400,
          "time": 242.59235,
          "velocity": 0.2283464566929134
        },
        {
          "duration": 0.18518500000001836,
          "durationTicks": 240,
          "midi": 73,
          "name": "C#5",
          "ticks": 314400,
          "time": 242.59235,
          "velocity": 0.6850393700787402
        },
        {
          "duration": 0.18518499999998994,
          "durationTicks": 240,
          "midi": 38,
          "name": "D2",
          "ticks": 314640,
          "time": 242.77753500000003,
          "velocity": 0.2992125984251969
        },
        {
          "duration": 0.18518499999998994,
          "durationTicks": 240,
          "midi": 64,
          "name": "E4",
          "ticks": 314640,
          "time": 242.77753500000003,
          "velocity": 0.2283464566929134
        },
        {
          "duration": 0.18518499999998994,
          "durationTicks": 240,
          "midi": 69,
          "name": "A4",
          "ticks": 314640,
          "time": 242.77753500000003,
          "velocity": 0.25984251968503935
        },
        {
          "duration": 0.24691333333331045,
          "durationTicks": 320,
          "midi": 59,
          "name": "B3",
          "ticks": 314760,
          "time": 242.87012750000002,
          "velocity": 0.2440944881889764
        },
        {
          "duration": 0.18518499999998994,
          "durationTicks": 240,
          "midi": 37,
          "name": "C#2",
          "ticks": 314880,
          "time": 242.96272000000002,
          "velocity": 0.30708661417322836
        },
        {
          "duration": 0.18518499999998994,
          "durationTicks": 240,
          "midi": 52,
          "name": "E3",
          "ticks": 314880,
          "time": 242.96272000000002,
          "velocity": 0.25196850393700787
        },
        {
          "duration": 0.18518499999998994,
          "durationTicks": 240,
          "midi": 56,
          "name": "G#3",
          "ticks": 314880,
          "time": 242.96272000000002,
          "velocity": 0.33858267716535434
        },
        {
          "duration": 0.18518499999998994,
          "durationTicks": 240,
          "midi": 63,
          "name": "D#4",
          "ticks": 314880,
          "time": 242.96272000000002,
          "velocity": 0.4015748031496063
        },
        {
          "duration": 0.18518499999998994,
          "durationTicks": 240,
          "midi": 68,
          "name": "G#4",
          "ticks": 314880,
          "time": 242.96272000000002,
          "velocity": 0.25984251968503935
        },
        {
          "duration": 0.18518499999998994,
          "durationTicks": 240,
          "midi": 71,
          "name": "B4",
          "ticks": 314880,
          "time": 242.96272000000002,
          "velocity": 0.28346456692913385
        },
        {
          "duration": 0.3703700000000083,
          "durationTicks": 480,
          "midi": 37,
          "name": "C#2",
          "ticks": 315120,
          "time": 243.147905,
          "velocity": 0.3464566929133858
        },
        {
          "duration": 0.3703700000000083,
          "durationTicks": 480,
          "midi": 56,
          "name": "G#3",
          "ticks": 315120,
          "time": 243.147905,
          "velocity": 0.48031496062992124
        },
        {
          "duration": 0.3703700000000083,
          "durationTicks": 480,
          "midi": 68,
          "name": "G#4",
          "ticks": 315120,
          "time": 243.147905,
          "velocity": 0.3464566929133858
        },
        {
          "duration": 0.15432083333331548,
          "durationTicks": 200,
          "midi": 37,
          "name": "C#2",
          "ticks": 315600,
          "time": 243.51827500000002,
          "velocity": 0.49606299212598426
        },
        {
          "duration": 0.21604916666669283,
          "durationTicks": 280,
          "midi": 49,
          "name": "C#3",
          "ticks": 315600,
          "time": 243.51827500000002,
          "velocity": 0.4015748031496063
        },
        {
          "duration": 0.18518499999998994,
          "durationTicks": 240,
          "midi": 68,
          "name": "G#4",
          "ticks": 315840,
          "time": 243.70346000000004,
          "velocity": 0.6141732283464567
        },
        {
          "duration": 0.18518499999998994,
          "durationTicks": 240,
          "midi": 43,
          "name": "G2",
          "ticks": 316080,
          "time": 243.88864500000003,
          "velocity": 0.2677165354330709
        },
        {
          "duration": 0.18518499999998994,
          "durationTicks": 240,
          "midi": 63,
          "name": "D#4",
          "ticks": 316080,
          "time": 243.88864500000003,
          "velocity": 0.3858267716535433
        },
        {
          "duration": 0.18518499999998994,
          "durationTicks": 240,
          "midi": 66,
          "name": "F#4",
          "ticks": 316080,
          "time": 243.88864500000003,
          "velocity": 0.2440944881889764
        },
        {
          "duration": 0.18518500000001836,
          "durationTicks": 240,
          "midi": 49,
          "name": "C#3",
          "ticks": 316320,
          "time": 244.07383000000002,
          "velocity": 0.3228346456692913
        },
        {
          "duration": 0.18518500000001836,
          "durationTicks": 240,
          "midi": 54,
          "name": "F#3",
          "ticks": 316320,
          "time": 244.07383000000002,
          "velocity": 0.28346456692913385
        },
        {
          "duration": 0.18518500000001836,
          "durationTicks": 240,
          "midi": 61,
          "name": "C#4",
          "ticks": 316320,
          "time": 244.07383000000002,
          "velocity": 0.3228346456692913
        },
        {
          "duration": 0.18518500000001836,
          "durationTicks": 240,
          "midi": 68,
          "name": "G#4",
          "ticks": 316320,
          "time": 244.07383000000002,
          "velocity": 0.31496062992125984
        },
        {
          "duration": 0.18518499999998994,
          "durationTicks": 240,
          "midi": 48,
          "name": "C3",
          "ticks": 316560,
          "time": 244.25901500000003,
          "velocity": 0.2677165354330709
        },
        {
          "duration": 0.18518499999998994,
          "durationTicks": 240,
          "midi": 49,
          "name": "C#3",
          "ticks": 316560,
          "time": 244.25901500000003,
          "velocity": 0.2440944881889764
        },
        {
          "duration": 0.18518499999998994,
          "durationTicks": 240,
          "midi": 68,
          "name": "G#4",
          "ticks": 316560,
          "time": 244.25901500000003,
          "velocity": 0.33070866141732286
        },
        {
          "duration": 0.3703700000000083,
          "durationTicks": 480,
          "midi": 47,
          "name": "B2",
          "ticks": 316800,
          "time": 244.44420000000002,
          "velocity": 0.3228346456692913
        },
        {
          "duration": 0.3703700000000083,
          "durationTicks": 480,
          "midi": 52,
          "name": "E3",
          "ticks": 316800,
          "time": 244.44420000000002,
          "velocity": 0.2677165354330709
        },
        {
          "duration": 0.3703700000000083,
          "durationTicks": 480,
          "midi": 61,
          "name": "C#4",
          "ticks": 316800,
          "time": 244.44420000000002,
          "velocity": 0.3543307086614173
        },
        {
          "duration": 0.3703700000000083,
          "durationTicks": 480,
          "midi": 62,
          "name": "D4",
          "ticks": 316800,
          "time": 244.44420000000002,
          "velocity": 0.2204724409448819
        },
        {
          "duration": 0.3703700000000083,
          "durationTicks": 480,
          "midi": 64,
          "name": "E4",
          "ticks": 316800,
          "time": 244.44420000000002,
          "velocity": 0.4015748031496063
        },
        {
          "duration": 0.3703700000000083,
          "durationTicks": 480,
          "midi": 69,
          "name": "A4",
          "ticks": 316800,
          "time": 244.44420000000002,
          "velocity": 0.30708661417322836
        },
        {
          "duration": 0.15432083333331548,
          "durationTicks": 200,
          "midi": 42,
          "name": "F#2",
          "ticks": 317280,
          "time": 244.81457000000003,
          "velocity": 0.2755905511811024
        },
        {
          "duration": 0.15432083333331548,
          "durationTicks": 200,
          "midi": 64,
          "name": "E4",
          "ticks": 317280,
          "time": 244.81457000000003,
          "velocity": 0.3543307086614173
        },
        {
          "duration": 0.18518499999998994,
          "durationTicks": 240,
          "midi": 41,
          "name": "F2",
          "ticks": 317520,
          "time": 244.99975500000002,
          "velocity": 0.2677165354330709
        },
        {
          "duration": 0.18518500000001836,
          "durationTicks": 240,
          "midi": 40,
          "name": "E2",
          "ticks": 317760,
          "time": 245.18494,
          "velocity": 0.4015748031496063
        },
        {
          "duration": 0.18518500000001836,
          "durationTicks": 240,
          "midi": 57,
          "name": "A3",
          "ticks": 317760,
          "time": 245.18494,
          "velocity": 0.29133858267716534
        },
        {
          "duration": 0.18518500000001836,
          "durationTicks": 240,
          "midi": 62,
          "name": "D4",
          "ticks": 317760,
          "time": 245.18494,
          "velocity": 0.1889763779527559
        },
        {
          "duration": 0.18518500000001836,
          "durationTicks": 240,
          "midi": 64,
          "name": "E4",
          "ticks": 317760,
          "time": 245.18494,
          "velocity": 0.33858267716535434
        },
        {
          "duration": 0.18518500000001836,
          "durationTicks": 240,
          "midi": 66,
          "name": "F#4",
          "ticks": 317760,
          "time": 245.18494,
          "velocity": 0.33858267716535434
        },
        {
          "duration": 0.18518500000001836,
          "durationTicks": 240,
          "midi": 71,
          "name": "B4",
          "ticks": 317760,
          "time": 245.18494,
          "velocity": 0.2992125984251969
        },
        {
          "duration": 0.18518499999998994,
          "durationTicks": 240,
          "midi": 40,
          "name": "E2",
          "ticks": 318000,
          "time": 245.37012500000003,
          "velocity": 0.2755905511811024
        },
        {
          "duration": 0.18518499999998994,
          "durationTicks": 240,
          "midi": 47,
          "name": "B2",
          "ticks": 318240,
          "time": 245.55531000000002,
          "velocity": 0.29133858267716534
        },
        {
          "duration": 0.18518499999998994,
          "durationTicks": 240,
          "midi": 64,
          "name": "E4",
          "ticks": 318240,
          "time": 245.55531000000002,
          "velocity": 0.25984251968503935
        },
        {
          "duration": 0.18518500000001836,
          "durationTicks": 240,
          "midi": 46,
          "name": "A#2",
          "ticks": 318480,
          "time": 245.740495,
          "velocity": 0.28346456692913385
        },
        {
          "duration": 0.18518500000001836,
          "durationTicks": 240,
          "midi": 73,
          "name": "C#5",
          "ticks": 318480,
          "time": 245.740495,
          "velocity": 0.4015748031496063
        },
        {
          "duration": 0.18518499999998994,
          "durationTicks": 240,
          "midi": 33,
          "name": "A1",
          "ticks": 318720,
          "time": 245.92568000000003,
          "velocity": 0.4015748031496063
        },
        {
          "duration": 0.18518499999998994,
          "durationTicks": 240,
          "midi": 45,
          "name": "A2",
          "ticks": 318720,
          "time": 245.92568000000003,
          "velocity": 0.33858267716535434
        },
        {
          "duration": 0.18518499999998994,
          "durationTicks": 240,
          "midi": 52,
          "name": "E3",
          "ticks": 318720,
          "time": 245.92568000000003,
          "velocity": 0.3779527559055118
        },
        {
          "duration": 0.18518499999998994,
          "durationTicks": 240,
          "midi": 57,
          "name": "A3",
          "ticks": 318720,
          "time": 245.92568000000003,
          "velocity": 0.33858267716535434
        },
        {
          "duration": 0.2160491666666644,
          "durationTicks": 280,
          "midi": 59,
          "name": "B3",
          "ticks": 318720,
          "time": 245.92568000000003,
          "velocity": 0.3937007874015748
        },
        {
          "duration": 0.18518499999998994,
          "durationTicks": 240,
          "midi": 61,
          "name": "C#4",
          "ticks": 318720,
          "time": 245.92568000000003,
          "velocity": 0.3858267716535433
        },
        {
          "duration": 0.18518499999998994,
          "durationTicks": 240,
          "midi": 64,
          "name": "E4",
          "ticks": 318720,
          "time": 245.92568000000003,
          "velocity": 0.3779527559055118
        },
        {
          "duration": 0.18518499999998994,
          "durationTicks": 240,
          "midi": 68,
          "name": "G#4",
          "ticks": 318720,
          "time": 245.92568000000003,
          "velocity": 0.25196850393700787
        },
        {
          "duration": 0.18518499999998994,
          "durationTicks": 240,
          "midi": 71,
          "name": "B4",
          "ticks": 318720,
          "time": 245.92568000000003,
          "velocity": 0.4015748031496063
        },
        {
          "duration": 0.21604916666669283,
          "durationTicks": 280,
          "midi": 44,
          "name": "G#2",
          "ticks": 318960,
          "time": 246.11086500000002,
          "velocity": 0.28346456692913385
        },
        {
          "duration": 0.18518500000001836,
          "durationTicks": 240,
          "midi": 45,
          "name": "A2",
          "ticks": 319200,
          "time": 246.29605,
          "velocity": 0.30708661417322836
        },
        {
          "duration": 0.18518500000001836,
          "durationTicks": 240,
          "midi": 68,
          "name": "G#4",
          "ticks": 319200,
          "time": 246.29605,
          "velocity": 0.30708661417322836
        },
        {
          "duration": 0.18518499999998994,
          "durationTicks": 240,
          "midi": 33,
          "name": "A1",
          "ticks": 319440,
          "time": 246.48123500000003,
          "velocity": 0.3464566929133858
        },
        {
          "duration": 0.18518499999998994,
          "durationTicks": 240,
          "midi": 45,
          "name": "A2",
          "ticks": 319440,
          "time": 246.48123500000003,
          "velocity": 0.33858267716535434
        },
        {
          "duration": 0.18518499999998994,
          "durationTicks": 240,
          "midi": 57,
          "name": "A3",
          "ticks": 319440,
          "time": 246.48123500000003,
          "velocity": 0.25984251968503935
        },
        {
          "duration": 0.18518499999998994,
          "durationTicks": 240,
          "midi": 64,
          "name": "E4",
          "ticks": 319440,
          "time": 246.48123500000003,
          "velocity": 0.3543307086614173
        },
        {
          "duration": 0.18518499999998994,
          "durationTicks": 240,
          "midi": 76,
          "name": "E5",
          "ticks": 319440,
          "time": 246.48123500000003,
          "velocity": 0.3543307086614173
        },
        {
          "duration": 0.18518500000001836,
          "durationTicks": 240,
          "midi": 32,
          "name": "G#1",
          "ticks": 319680,
          "time": 246.66642000000002,
          "velocity": 0.33070866141732286
        },
        {
          "duration": 0.18518500000001836,
          "durationTicks": 240,
          "midi": 45,
          "name": "A2",
          "ticks": 319680,
          "time": 246.66642000000002,
          "velocity": 0.3464566929133858
        },
        {
          "duration": 0.18518500000001836,
          "durationTicks": 240,
          "midi": 64,
          "name": "E4",
          "ticks": 319680,
          "time": 246.66642000000002,
          "velocity": 0.33858267716535434
        },
        {
          "duration": 0.3703699999999799,
          "durationTicks": 480,
          "midi": 46,
          "name": "A#2",
          "ticks": 319920,
          "time": 246.85160500000003,
          "velocity": 0.30708661417322836
        },
        {
          "duration": 0.3703699999999799,
          "durationTicks": 480,
          "midi": 49,
          "name": "C#3",
          "ticks": 319920,
          "time": 246.85160500000003,
          "velocity": 0.2677165354330709
        },
        {
          "duration": 0.3703699999999799,
          "durationTicks": 480,
          "midi": 61,
          "name": "C#4",
          "ticks": 319920,
          "time": 246.85160500000003,
          "velocity": 0.2992125984251969
        },
        {
          "duration": 0.3703699999999799,
          "durationTicks": 480,
          "midi": 73,
          "name": "C#5",
          "ticks": 319920,
          "time": 246.85160500000003,
          "velocity": 0.2992125984251969
        },
        {
          "duration": 0.3395058333333054,
          "durationTicks": 440,
          "midi": 80,
          "name": "G#5",
          "ticks": 319920,
          "time": 246.85160500000003,
          "velocity": 0.4409448818897638
        },
        {
          "duration": 0.18518500000001836,
          "durationTicks": 240,
          "midi": 47,
          "name": "B2",
          "ticks": 320400,
          "time": 247.22197500000001,
          "velocity": 0.3779527559055118
        },
        {
          "duration": 0.18518500000001836,
          "durationTicks": 240,
          "midi": 52,
          "name": "E3",
          "ticks": 320400,
          "time": 247.22197500000001,
          "velocity": 0.30708661417322836
        },
        {
          "duration": 0.18518500000001836,
          "durationTicks": 240,
          "midi": 61,
          "name": "C#4",
          "ticks": 320400,
          "time": 247.22197500000001,
          "velocity": 0.25196850393700787
        },
        {
          "duration": 0.18518500000001836,
          "durationTicks": 240,
          "midi": 64,
          "name": "E4",
          "ticks": 320400,
          "time": 247.22197500000001,
          "velocity": 0.30708661417322836
        },
        {
          "duration": 0.15432083333331548,
          "durationTicks": 200,
          "midi": 33,
          "name": "A1",
          "ticks": 320640,
          "time": 247.40716000000003,
          "velocity": 0.4015748031496063
        },
        {
          "duration": 0.15432083333331548,
          "durationTicks": 200,
          "midi": 52,
          "name": "E3",
          "ticks": 320640,
          "time": 247.40716000000003,
          "velocity": 0.4566929133858268
        },
        {
          "duration": 0.15432083333331548,
          "durationTicks": 200,
          "midi": 57,
          "name": "A3",
          "ticks": 320640,
          "time": 247.40716000000003,
          "velocity": 0.3228346456692913
        },
        {
          "duration": 0.15432083333331548,
          "durationTicks": 200,
          "midi": 61,
          "name": "C#4",
          "ticks": 320640,
          "time": 247.40716000000003,
          "velocity": 0.23622047244094488
        },
        {
          "duration": 0.15432083333331548,
          "durationTicks": 200,
          "midi": 64,
          "name": "E4",
          "ticks": 320640,
          "time": 247.40716000000003,
          "velocity": 0.4566929133858268
        },
        {
          "duration": 0.15432083333331548,
          "durationTicks": 200,
          "midi": 81,
          "name": "A5",
          "ticks": 320640,
          "time": 247.40716000000003,
          "velocity": 0.3464566929133858
        },
        {
          "duration": 0.18518499999998994,
          "durationTicks": 240,
          "midi": 42,
          "name": "F#2",
          "ticks": 320880,
          "time": 247.59234500000002,
          "velocity": 0.3228346456692913
        },
        {
          "duration": 0.18518499999998994,
          "durationTicks": 240,
          "midi": 47,
          "name": "B2",
          "ticks": 320880,
          "time": 247.59234500000002,
          "velocity": 0.2992125984251969
        },
        {
          "duration": 0.18518499999998994,
          "durationTicks": 240,
          "midi": 61,
          "name": "C#4",
          "ticks": 320880,
          "time": 247.59234500000002,
          "velocity": 0.2440944881889764
        },
        {
          "duration": 0.18518499999998994,
          "durationTicks": 240,
          "midi": 64,
          "name": "E4",
          "ticks": 320880,
          "time": 247.59234500000002,
          "velocity": 0.3779527559055118
        },
        {
          "duration": 0.21604916666669283,
          "durationTicks": 280,
          "midi": 52,
          "name": "E3",
          "ticks": 321120,
          "time": 247.77753,
          "velocity": 0.41732283464566927
        },
        {
          "duration": 0.18518500000001836,
          "durationTicks": 240,
          "midi": 57,
          "name": "A3",
          "ticks": 321120,
          "time": 247.77753,
          "velocity": 0.23622047244094488
        },
        {
          "duration": 0.18518500000001836,
          "durationTicks": 240,
          "midi": 64,
          "name": "E4",
          "ticks": 321120,
          "time": 247.77753,
          "velocity": 0.4645669291338583
        },
        {
          "duration": 0.18518499999998994,
          "durationTicks": 240,
          "midi": 35,
          "name": "B1",
          "ticks": 321360,
          "time": 247.96271500000003,
          "velocity": 0.4409448818897638
        },
        {
          "duration": 0.15432083333331548,
          "durationTicks": 200,
          "midi": 52,
          "name": "E3",
          "ticks": 321360,
          "time": 247.96271500000003,
          "velocity": 0.4409448818897638
        },
        {
          "duration": 0.15432083333331548,
          "durationTicks": 200,
          "midi": 61,
          "name": "C#4",
          "ticks": 321360,
          "time": 247.96271500000003,
          "velocity": 0.2125984251968504
        },
        {
          "duration": 0.18518499999998994,
          "durationTicks": 240,
          "midi": 52,
          "name": "E3",
          "ticks": 321600,
          "time": 248.14790000000002,
          "velocity": 0.29133858267716534
        },
        {
          "duration": 0.18518499999998994,
          "durationTicks": 240,
          "midi": 57,
          "name": "A3",
          "ticks": 321600,
          "time": 248.14790000000002,
          "velocity": 0.29133858267716534
        },
        {
          "duration": 0.18518499999998994,
          "durationTicks": 240,
          "midi": 64,
          "name": "E4",
          "ticks": 321600,
          "time": 248.14790000000002,
          "velocity": 0.48031496062992124
        },
        {
          "duration": 0.24691333333333887,
          "durationTicks": 320,
          "midi": 66,
          "name": "F#4",
          "ticks": 321720,
          "time": 248.24049250000002,
          "velocity": 0.5433070866141733
        },
        {
          "duration": 0.18518500000001836,
          "durationTicks": 240,
          "midi": 81,
          "name": "A5",
          "ticks": 321840,
          "time": 248.333085,
          "velocity": 0.2283464566929134
        },
        {
          "duration": 0.18518499999998994,
          "durationTicks": 240,
          "midi": 42,
          "name": "F#2",
          "ticks": 322080,
          "time": 248.51827000000003,
          "velocity": 0.2992125984251969
        },
        {
          "duration": 0.18518499999998994,
          "durationTicks": 240,
          "midi": 52,
          "name": "E3",
          "ticks": 322080,
          "time": 248.51827000000003,
          "velocity": 0.2992125984251969
        },
        {
          "duration": 0.18518499999998994,
          "durationTicks": 240,
          "midi": 57,
          "name": "A3",
          "ticks": 322080,
          "time": 248.51827000000003,
          "velocity": 0.2992125984251969
        },
        {
          "duration": 0.15432083333331548,
          "durationTicks": 200,
          "midi": 35,
          "name": "B1",
          "ticks": 322320,
          "time": 248.70345500000002,
          "velocity": 0.33858267716535434
        },
        {
          "duration": 0.15432083333331548,
          "durationTicks": 200,
          "midi": 52,
          "name": "E3",
          "ticks": 322320,
          "time": 248.70345500000002,
          "velocity": 0.3228346456692913
        },
        {
          "duration": 0.15432083333331548,
          "durationTicks": 200,
          "midi": 64,
          "name": "E4",
          "ticks": 322320,
          "time": 248.70345500000002,
          "velocity": 0.3228346456692913
        },
        {
          "duration": 0.18518500000001836,
          "durationTicks": 240,
          "midi": 40,
          "name": "E2",
          "ticks": 322560,
          "time": 248.88864,
          "velocity": 0.4015748031496063
        },
        {
          "duration": 0.18518500000001836,
          "durationTicks": 240,
          "midi": 59,
          "name": "B3",
          "ticks": 322560,
          "time": 248.88864,
          "velocity": 0.48031496062992124
        },
        {
          "duration": 0.18518500000001836,
          "durationTicks": 240,
          "midi": 71,
          "name": "B4",
          "ticks": 322560,
          "time": 248.88864,
          "velocity": 0.48031496062992124
        },
        {
          "duration": 0.18518500000001836,
          "durationTicks": 240,
          "midi": 76,
          "name": "E5",
          "ticks": 322560,
          "time": 248.88864,
          "velocity": 0.41732283464566927
        },
        {
          "duration": 0.18518499999998994,
          "durationTicks": 240,
          "midi": 66,
          "name": "F#4",
          "ticks": 322800,
          "time": 249.07382500000003,
          "velocity": 0.2047244094488189
        },
        {
          "duration": 0.18518500000001836,
          "durationTicks": 240,
          "midi": 79,
          "name": "G5",
          "ticks": 323040,
          "time": 249.25901000000002,
          "velocity": 0.2204724409448819
        },
        {
          "duration": 0.18518500000001836,
          "durationTicks": 240,
          "midi": 84,
          "name": "C6",
          "ticks": 323040,
          "time": 249.25901000000002,
          "velocity": 0.2204724409448819
        },
        {
          "duration": 0.18518499999998994,
          "durationTicks": 240,
          "midi": 35,
          "name": "B1",
          "ticks": 323280,
          "time": 249.44419500000004,
          "velocity": 0.36220472440944884
        },
        {
          "duration": 0.18518499999998994,
          "durationTicks": 240,
          "midi": 77,
          "name": "F5",
          "ticks": 323280,
          "time": 249.44419500000004,
          "velocity": 0.2204724409448819
        },
        {
          "duration": 0.15432083333331548,
          "durationTicks": 200,
          "midi": 40,
          "name": "E2",
          "ticks": 323520,
          "time": 249.62938000000003,
          "velocity": 0.3464566929133858
        },
        {
          "duration": 0.15432083333331548,
          "durationTicks": 200,
          "midi": 59,
          "name": "B3",
          "ticks": 323520,
          "time": 249.62938000000003,
          "velocity": 0.30708661417322836
        },
        {
          "duration": 0.15432083333331548,
          "durationTicks": 200,
          "midi": 64,
          "name": "E4",
          "ticks": 323520,
          "time": 249.62938000000003,
          "velocity": 0.3464566929133858
        },
        {
          "duration": 0.18518500000001836,
          "durationTicks": 240,
          "midi": 40,
          "name": "E2",
          "ticks": 323760,
          "time": 249.81456500000002,
          "velocity": 0.36220472440944884
        },
        {
          "duration": 0.12345666666666943,
          "durationTicks": 160,
          "midi": 70,
          "name": "A#4",
          "ticks": 324120,
          "time": 250.09234250000003,
          "velocity": 0.2204724409448819
        },
        {
          "duration": 0.18518499999998994,
          "durationTicks": 240,
          "midi": 35,
          "name": "B1",
          "ticks": 324240,
          "time": 250.18493500000002,
          "velocity": 0.3779527559055118
        },
        {
          "duration": 0.12345666666666943,
          "durationTicks": 160,
          "midi": 68,
          "name": "G#4",
          "ticks": 324360,
          "time": 250.27752750000002,
          "velocity": 0.2283464566929134
        },
        {
          "duration": 0.18518500000001836,
          "durationTicks": 240,
          "midi": 34,
          "name": "A#1",
          "ticks": 324480,
          "time": 250.37012000000001,
          "velocity": 0.4251968503937008
        },
        {
          "duration": 0.18518500000001836,
          "durationTicks": 240,
          "midi": 56,
          "name": "G#3",
          "ticks": 324480,
          "time": 250.37012000000001,
          "velocity": 0.36220472440944884
        },
        {
          "duration": 0.18518500000001836,
          "durationTicks": 240,
          "midi": 60,
          "name": "C4",
          "ticks": 324480,
          "time": 250.37012000000001,
          "velocity": 0.1968503937007874
        },
        {
          "duration": 0.09259250000002339,
          "durationTicks": 120,
          "midi": 64,
          "name": "E4",
          "ticks": 324600,
          "time": 250.4627125,
          "velocity": 0.3937007874015748
        },
        {
          "duration": 0.3395058333333054,
          "durationTicks": 440,
          "midi": 34,
          "name": "A#1",
          "ticks": 324720,
          "time": 250.55530500000003,
          "velocity": 0.3543307086614173
        },
        {
          "duration": 0.3703699999999799,
          "durationTicks": 480,
          "midi": 62,
          "name": "D4",
          "ticks": 324720,
          "time": 250.55530500000003,
          "velocity": 0.2677165354330709
        },
        {
          "duration": 0.21604916666669283,
          "durationTicks": 280,
          "midi": 40,
          "name": "E2",
          "ticks": 325200,
          "time": 250.925675,
          "velocity": 0.2677165354330709
        },
        {
          "duration": 0.21604916666669283,
          "durationTicks": 280,
          "midi": 56,
          "name": "G#3",
          "ticks": 325200,
          "time": 250.925675,
          "velocity": 0.3464566929133858
        },
        {
          "duration": 0.21604916666669283,
          "durationTicks": 280,
          "midi": 64,
          "name": "E4",
          "ticks": 325200,
          "time": 250.925675,
          "velocity": 0.2677165354330709
        },
        {
          "duration": 0.21604916666669283,
          "durationTicks": 280,
          "midi": 69,
          "name": "A4",
          "ticks": 325200,
          "time": 250.925675,
          "velocity": 0.2440944881889764
        },
        {
          "duration": 0.18518499999998994,
          "durationTicks": 240,
          "midi": 34,
          "name": "A#1",
          "ticks": 325440,
          "time": 251.11086000000003,
          "velocity": 0.36220472440944884
        },
        {
          "duration": 0.18518499999998994,
          "durationTicks": 240,
          "midi": 72,
          "name": "C5",
          "ticks": 325440,
          "time": 251.11086000000003,
          "velocity": 0.30708661417322836
        },
        {
          "duration": 0.18518499999998994,
          "durationTicks": 240,
          "midi": 46,
          "name": "A#2",
          "ticks": 325680,
          "time": 251.29604500000002,
          "velocity": 0.2992125984251969
        },
        {
          "duration": 0.18518499999998994,
          "durationTicks": 240,
          "midi": 56,
          "name": "G#3",
          "ticks": 325680,
          "time": 251.29604500000002,
          "velocity": 0.3464566929133858
        },
        {
          "duration": 0.18518500000001836,
          "durationTicks": 240,
          "midi": 40,
          "name": "E2",
          "ticks": 325920,
          "time": 251.48123,
          "velocity": 0.2440944881889764
        },
        {
          "duration": 0.18518500000001836,
          "durationTicks": 240,
          "midi": 64,
          "name": "E4",
          "ticks": 325920,
          "time": 251.48123,
          "velocity": 0.33858267716535434
        },
        {
          "duration": 0.18518499999998994,
          "durationTicks": 240,
          "midi": 34,
          "name": "A#1",
          "ticks": 326160,
          "time": 251.66641500000003,
          "velocity": 0.29133858267716534
        },
        {
          "duration": 0.12345666666666943,
          "durationTicks": 160,
          "midi": 74,
          "name": "D5",
          "ticks": 326280,
          "time": 251.75900750000002,
          "velocity": 0.2440944881889764
        },
        {
          "duration": 0.18518499999998994,
          "durationTicks": 240,
          "midi": 33,
          "name": "A1",
          "ticks": 326400,
          "time": 251.85160000000002,
          "velocity": 0.3858267716535433
        },
        {
          "duration": 0.18518499999998994,
          "durationTicks": 240,
          "midi": 38,
          "name": "D2",
          "ticks": 326400,
          "time": 251.85160000000002,
          "velocity": 0.3464566929133858
        },
        {
          "duration": 0.18518499999998994,
          "durationTicks": 240,
          "midi": 45,
          "name": "A2",
          "ticks": 326400,
          "time": 251.85160000000002,
          "velocity": 0.3464566929133858
        },
        {
          "duration": 0.18518499999998994,
          "durationTicks": 240,
          "midi": 52,
          "name": "E3",
          "ticks": 326400,
          "time": 251.85160000000002,
          "velocity": 0.49606299212598426
        },
        {
          "duration": 0.18518499999998994,
          "durationTicks": 240,
          "midi": 56,
          "name": "G#3",
          "ticks": 326400,
          "time": 251.85160000000002,
          "velocity": 0.2992125984251969
        },
        {
          "duration": 0.18518499999998994,
          "durationTicks": 240,
          "midi": 61,
          "name": "C#4",
          "ticks": 326400,
          "time": 251.85160000000002,
          "velocity": 0.25196850393700787
        },
        {
          "duration": 0.18518499999998994,
          "durationTicks": 240,
          "midi": 64,
          "name": "E4",
          "ticks": 326400,
          "time": 251.85160000000002,
          "velocity": 0.49606299212598426
        },
        {
          "duration": 0.18518500000001836,
          "durationTicks": 240,
          "midi": 56,
          "name": "G#3",
          "ticks": 326640,
          "time": 252.036785,
          "velocity": 0.3779527559055118
        },
        {
          "duration": 0.18518500000001836,
          "durationTicks": 240,
          "midi": 61,
          "name": "C#4",
          "ticks": 326640,
          "time": 252.036785,
          "velocity": 0.2677165354330709
        },
        {
          "duration": 0.18518500000001836,
          "durationTicks": 240,
          "midi": 64,
          "name": "E4",
          "ticks": 326640,
          "time": 252.036785,
          "velocity": 0.3858267716535433
        },
        {
          "duration": 0.18518499999998994,
          "durationTicks": 240,
          "midi": 49,
          "name": "C#3",
          "ticks": 326880,
          "time": 252.22197000000003,
          "velocity": 0.3858267716535433
        },
        {
          "duration": 0.18518499999998994,
          "durationTicks": 240,
          "midi": 56,
          "name": "G#3",
          "ticks": 326880,
          "time": 252.22197000000003,
          "velocity": 0.3543307086614173
        },
        {
          "duration": 0.18518499999998994,
          "durationTicks": 240,
          "midi": 61,
          "name": "C#4",
          "ticks": 326880,
          "time": 252.22197000000003,
          "velocity": 0.3858267716535433
        },
        {
          "duration": 0.18518499999998994,
          "durationTicks": 240,
          "midi": 64,
          "name": "E4",
          "ticks": 326880,
          "time": 252.22197000000003,
          "velocity": 0.23622047244094488
        },
        {
          "duration": 0.18518499999998994,
          "durationTicks": 240,
          "midi": 73,
          "name": "C#5",
          "ticks": 326880,
          "time": 252.22197000000003,
          "velocity": 0.31496062992125984
        },
        {
          "duration": 0.18518500000001836,
          "durationTicks": 240,
          "midi": 52,
          "name": "E3",
          "ticks": 327120,
          "time": 252.40715500000002,
          "velocity": 0.28346456692913385
        },
        {
          "duration": 0.18518500000001836,
          "durationTicks": 240,
          "midi": 56,
          "name": "G#3",
          "ticks": 327120,
          "time": 252.40715500000002,
          "velocity": 0.2047244094488189
        },
        {
          "duration": 0.18518500000001836,
          "durationTicks": 240,
          "midi": 61,
          "name": "C#4",
          "ticks": 327120,
          "time": 252.40715500000002,
          "velocity": 0.3700787401574803
        },
        {
          "duration": 0.18518500000001836,
          "durationTicks": 240,
          "midi": 64,
          "name": "E4",
          "ticks": 327120,
          "time": 252.40715500000002,
          "velocity": 0.25984251968503935
        },
        {
          "duration": 0.18518500000001836,
          "durationTicks": 240,
          "midi": 73,
          "name": "C#5",
          "ticks": 327120,
          "time": 252.40715500000002,
          "velocity": 0.25196850393700787
        },
        {
          "duration": 0.18518499999998994,
          "durationTicks": 240,
          "midi": 56,
          "name": "G#3",
          "ticks": 327360,
          "time": 252.59234000000004,
          "velocity": 0.2992125984251969
        },
        {
          "duration": 0.18518499999998994,
          "durationTicks": 240,
          "midi": 64,
          "name": "E4",
          "ticks": 327360,
          "time": 252.59234000000004,
          "velocity": 0.6535433070866141
        },
        {
          "duration": 0.18518499999998994,
          "durationTicks": 240,
          "midi": 76,
          "name": "E5",
          "ticks": 327360,
          "time": 252.59234000000004,
          "velocity": 0.6535433070866141
        },
        {
          "duration": 0.15432083333331548,
          "durationTicks": 200,
          "midi": 54,
          "name": "F#3",
          "ticks": 327600,
          "time": 252.77752500000003,
          "velocity": 0.4251968503937008
        },
        {
          "duration": 0.15432083333331548,
          "durationTicks": 200,
          "midi": 56,
          "name": "G#3",
          "ticks": 327600,
          "time": 252.77752500000003,
          "velocity": 0.3779527559055118
        },
        {
          "duration": 0.15432083333331548,
          "durationTicks": 200,
          "midi": 61,
          "name": "C#4",
          "ticks": 327600,
          "time": 252.77752500000003,
          "velocity": 0.4251968503937008
        },
        {
          "duration": 0.15432083333331548,
          "durationTicks": 200,
          "midi": 64,
          "name": "E4",
          "ticks": 327600,
          "time": 252.77752500000003,
          "velocity": 0.4409448818897638
        },
        {
          "duration": 0.15432083333331548,
          "durationTicks": 200,
          "midi": 66,
          "name": "F#4",
          "ticks": 327600,
          "time": 252.77752500000003,
          "velocity": 0.6456692913385826
        },
        {
          "duration": 0.15432083333331548,
          "durationTicks": 200,
          "midi": 73,
          "name": "C#5",
          "ticks": 327600,
          "time": 252.77752500000003,
          "velocity": 0.4251968503937008
        },
        {
          "duration": 0.18518500000001836,
          "durationTicks": 240,
          "midi": 56,
          "name": "G#3",
          "ticks": 327840,
          "time": 252.96271000000002,
          "velocity": 0.4015748031496063
        },
        {
          "duration": 0.18518500000001836,
          "durationTicks": 240,
          "midi": 64,
          "name": "E4",
          "ticks": 327840,
          "time": 252.96271000000002,
          "velocity": 0.2283464566929134
        },
        {
          "duration": 0.27777750000001333,
          "durationTicks": 360,
          "midi": 55,
          "name": "G3",
          "ticks": 327960,
          "time": 253.0553025,
          "velocity": 0.3779527559055118
        },
        {
          "duration": 0.18518499999998994,
          "durationTicks": 240,
          "midi": 56,
          "name": "G#3",
          "ticks": 328080,
          "time": 253.14789500000003,
          "velocity": 0.48031496062992124
        },
        {
          "duration": 0.18518499999998994,
          "durationTicks": 240,
          "midi": 60,
          "name": "C4",
          "ticks": 328080,
          "time": 253.14789500000003,
          "velocity": 0.2677165354330709
        },
        {
          "duration": 0.18518499999998994,
          "durationTicks": 240,
          "midi": 64,
          "name": "E4",
          "ticks": 328080,
          "time": 253.14789500000003,
          "velocity": 0.25984251968503935
        },
        {
          "duration": 0.18518499999998994,
          "durationTicks": 240,
          "midi": 54,
          "name": "F#3",
          "ticks": 328320,
          "time": 253.33308000000002,
          "velocity": 0.2677165354330709
        },
        {
          "duration": 0.18518499999998994,
          "durationTicks": 240,
          "midi": 56,
          "name": "G#3",
          "ticks": 328320,
          "time": 253.33308000000002,
          "velocity": 0.5511811023622047
        },
        {
          "duration": 0.18518499999998994,
          "durationTicks": 240,
          "midi": 60,
          "name": "C4",
          "ticks": 328320,
          "time": 253.33308000000002,
          "velocity": 0.28346456692913385
        },
        {
          "duration": 0.18518499999998994,
          "durationTicks": 240,
          "midi": 65,
          "name": "F4",
          "ticks": 328320,
          "time": 253.33308000000002,
          "velocity": 0.25984251968503935
        },
        {
          "duration": 0.18518499999998994,
          "durationTicks": 240,
          "midi": 68,
          "name": "G#4",
          "ticks": 328320,
          "time": 253.33308000000002,
          "velocity": 0.5511811023622047
        },
        {
          "duration": 0.15432083333331548,
          "durationTicks": 200,
          "midi": 54,
          "name": "F#3",
          "ticks": 328560,
          "time": 253.518265,
          "velocity": 0.3858267716535433
        },
        {
          "duration": 0.15432083333331548,
          "durationTicks": 200,
          "midi": 68,
          "name": "G#4",
          "ticks": 328560,
          "time": 253.518265,
          "velocity": 0.4566929133858268
        },
        {
          "duration": 0.18518499999998994,
          "durationTicks": 240,
          "midi": 57,
          "name": "A3",
          "ticks": 328800,
          "time": 253.70345000000003,
          "velocity": 0.3464566929133858
        },
        {
          "duration": 0.18518499999998994,
          "durationTicks": 240,
          "midi": 69,
          "name": "A4",
          "ticks": 328800,
          "time": 253.70345000000003,
          "velocity": 0.3937007874015748
        },
        {
          "duration": 0.18518499999998994,
          "durationTicks": 240,
          "midi": 44,
          "name": "G#2",
          "ticks": 329040,
          "time": 253.88863500000002,
          "velocity": 0.4645669291338583
        },
        {
          "duration": 0.18518499999998994,
          "durationTicks": 240,
          "midi": 54,
          "name": "F#3",
          "ticks": 329040,
          "time": 253.88863500000002,
          "velocity": 0.3228346456692913
        },
        {
          "duration": 0.18518500000001836,
          "durationTicks": 240,
          "midi": 52,
          "name": "E3",
          "ticks": 329280,
          "time": 254.07382,
          "velocity": 0.25196850393700787
        },
        {
          "duration": 0.18518500000001836,
          "durationTicks": 240,
          "midi": 57,
          "name": "A3",
          "ticks": 329280,
          "time": 254.07382,
          "velocity": 0.4015748031496063
        },
        {
          "duration": 0.18518500000001836,
          "durationTicks": 240,
          "midi": 64,
          "name": "E4",
          "ticks": 329280,
          "time": 254.07382,
          "velocity": 0.3858267716535433
        },
        {
          "duration": 0.18518499999998994,
          "durationTicks": 240,
          "midi": 68,
          "name": "G#4",
          "ticks": 329520,
          "time": 254.25900500000003,
          "velocity": 0.3228346456692913
        },
        {
          "duration": 0.40123416666668277,
          "durationTicks": 520,
          "midi": 57,
          "name": "A3",
          "ticks": 329760,
          "time": 254.44419000000002,
          "velocity": 0.29133858267716534
        },
        {
          "duration": 0.15432083333331548,
          "durationTicks": 200,
          "midi": 37,
          "name": "C#2",
          "ticks": 330240,
          "time": 254.81456000000003,
          "velocity": 0.36220472440944884
        },
        {
          "duration": 0.15432083333331548,
          "durationTicks": 200,
          "midi": 49,
          "name": "C#3",
          "ticks": 330240,
          "time": 254.81456000000003,
          "velocity": 0.36220472440944884
        },
        {
          "duration": 0.15432083333331548,
          "durationTicks": 200,
          "midi": 56,
          "name": "G#3",
          "ticks": 330240,
          "time": 254.81456000000003,
          "velocity": 0.30708661417322836
        },
        {
          "duration": 0.15432083333331548,
          "durationTicks": 200,
          "midi": 59,
          "name": "B3",
          "ticks": 330240,
          "time": 254.81456000000003,
          "velocity": 0.2440944881889764
        },
        {
          "duration": 0.15432083333331548,
          "durationTicks": 200,
          "midi": 63,
          "name": "D#4",
          "ticks": 330240,
          "time": 254.81456000000003,
          "velocity": 0.3779527559055118
        },
        {
          "duration": 0.15432083333331548,
          "durationTicks": 200,
          "midi": 68,
          "name": "G#4",
          "ticks": 330240,
          "time": 254.81456000000003,
          "velocity": 0.7952755905511811
        },
        {
          "duration": 0.18518499999998994,
          "durationTicks": 240,
          "midi": 68,
          "name": "G#4",
          "ticks": 330480,
          "time": 254.99974500000002,
          "velocity": 0.5590551181102362
        },
        {
          "duration": 0.18518500000001836,
          "durationTicks": 240,
          "midi": 56,
          "name": "G#3",
          "ticks": 330720,
          "time": 255.18493,
          "velocity": 0.4566929133858268
        },
        {
          "duration": 0.18518500000001836,
          "durationTicks": 240,
          "midi": 59,
          "name": "B3",
          "ticks": 330720,
          "time": 255.18493,
          "velocity": 0.2677165354330709
        },
        {
          "duration": 0.18518500000001836,
          "durationTicks": 240,
          "midi": 63,
          "name": "D#4",
          "ticks": 330720,
          "time": 255.18493,
          "velocity": 0.5118110236220472
        },
        {
          "duration": 0.12345666666666943,
          "durationTicks": 160,
          "midi": 61,
          "name": "C#4",
          "ticks": 330840,
          "time": 255.27752250000003,
          "velocity": 0.2204724409448819
        },
        {
          "duration": 0.18518499999998994,
          "durationTicks": 240,
          "midi": 52,
          "name": "E3",
          "ticks": 330960,
          "time": 255.37011500000003,
          "velocity": 0.2204724409448819
        },
        {
          "duration": 0.18518500000001836,
          "durationTicks": 240,
          "midi": 37,
          "name": "C#2",
          "ticks": 331200,
          "time": 255.55530000000002,
          "velocity": 0.33070866141732286
        },
        {
          "duration": 0.15432083333331548,
          "durationTicks": 200,
          "midi": 52,
          "name": "E3",
          "ticks": 331440,
          "time": 255.74048500000004,
          "velocity": 0.2047244094488189
        },
        {
          "duration": 0.15432083333331548,
          "durationTicks": 200,
          "midi": 56,
          "name": "G#3",
          "ticks": 331440,
          "time": 255.74048500000004,
          "velocity": 0.36220472440944884
        },
        {
          "duration": 0.15432083333331548,
          "durationTicks": 200,
          "midi": 59,
          "name": "B3",
          "ticks": 331440,
          "time": 255.74048500000004,
          "velocity": 0.2125984251968504
        },
        {
          "duration": 0.18518499999998994,
          "durationTicks": 240,
          "midi": 37,
          "name": "C#2",
          "ticks": 331680,
          "time": 255.92567000000003,
          "velocity": 0.33858267716535434
        },
        {
          "duration": 0.18518499999998994,
          "durationTicks": 240,
          "midi": 54,
          "name": "F#3",
          "ticks": 331680,
          "time": 255.92567000000003,
          "velocity": 0.28346456692913385
        },
        {
          "duration": 0.18518499999998994,
          "durationTicks": 240,
          "midi": 59,
          "name": "B3",
          "ticks": 331680,
          "time": 255.92567000000003,
          "velocity": 0.2047244094488189
        },
        {
          "duration": 0.15432083333331548,
          "durationTicks": 200,
          "midi": 36,
          "name": "C2",
          "ticks": 331920,
          "time": 256.110855,
          "velocity": 0.41732283464566927
        },
        {
          "duration": 0.15432083333331548,
          "durationTicks": 200,
          "midi": 52,
          "name": "E3",
          "ticks": 331920,
          "time": 256.110855,
          "velocity": 0.25196850393700787
        },
        {
          "duration": 0.15432083333331548,
          "durationTicks": 200,
          "midi": 54,
          "name": "F#3",
          "ticks": 331920,
          "time": 256.110855,
          "velocity": 0.2677165354330709
        },
        {
          "duration": 0.15432083333331548,
          "durationTicks": 200,
          "midi": 56,
          "name": "G#3",
          "ticks": 331920,
          "time": 256.110855,
          "velocity": 0.25984251968503935
        },
        {
          "duration": 0.15432083333331548,
          "durationTicks": 200,
          "midi": 59,
          "name": "B3",
          "ticks": 331920,
          "time": 256.110855,
          "velocity": 0.25196850393700787
        },
        {
          "duration": 0.15432083333331548,
          "durationTicks": 200,
          "midi": 61,
          "name": "C#4",
          "ticks": 331920,
          "time": 256.110855,
          "velocity": 0.2677165354330709
        },
        {
          "duration": 0.15432083333331548,
          "durationTicks": 200,
          "midi": 63,
          "name": "D#4",
          "ticks": 331920,
          "time": 256.110855,
          "velocity": 0.2204724409448819
        },
        {
          "duration": 0.15432083333331548,
          "durationTicks": 200,
          "midi": 66,
          "name": "F#4",
          "ticks": 331920,
          "time": 256.110855,
          "velocity": 0.4330708661417323
        },
        {
          "duration": 0.15432083333331548,
          "durationTicks": 200,
          "midi": 73,
          "name": "C#5",
          "ticks": 331920,
          "time": 256.110855,
          "velocity": 0.4330708661417323
        },
        {
          "duration": 0.18518499999998994,
          "durationTicks": 240,
          "midi": 35,
          "name": "B1",
          "ticks": 332160,
          "time": 256.29604,
          "velocity": 0.3543307086614173
        },
        {
          "duration": 0.18518499999998994,
          "durationTicks": 240,
          "midi": 52,
          "name": "E3",
          "ticks": 332160,
          "time": 256.29604,
          "velocity": 0.3464566929133858
        },
        {
          "duration": 0.18518499999998994,
          "durationTicks": 240,
          "midi": 54,
          "name": "F#3",
          "ticks": 332160,
          "time": 256.29604,
          "velocity": 0.2677165354330709
        },
        {
          "duration": 0.18518499999998994,
          "durationTicks": 240,
          "midi": 57,
          "name": "A3",
          "ticks": 332160,
          "time": 256.29604,
          "velocity": 0.2047244094488189
        },
        {
          "duration": 0.18518499999998994,
          "durationTicks": 240,
          "midi": 61,
          "name": "C#4",
          "ticks": 332160,
          "time": 256.29604,
          "velocity": 0.25196850393700787
        },
        {
          "duration": 0.18518499999998994,
          "durationTicks": 240,
          "midi": 64,
          "name": "E4",
          "ticks": 332160,
          "time": 256.29604,
          "velocity": 0.30708661417322836
        },
        {
          "duration": 0.18518500000004678,
          "durationTicks": 240,
          "midi": 73,
          "name": "C#5",
          "ticks": 332400,
          "time": 256.481225,
          "velocity": 0.2440944881889764
        },
        {
          "duration": 0.18518499999998994,
          "durationTicks": 240,
          "midi": 38,
          "name": "D2",
          "ticks": 332640,
          "time": 256.66641000000004,
          "velocity": 0.23622047244094488
        },
        {
          "duration": 0.18518499999998994,
          "durationTicks": 240,
          "midi": 52,
          "name": "E3",
          "ticks": 332640,
          "time": 256.66641000000004,
          "velocity": 0.30708661417322836
        },
        {
          "duration": 0.18518499999998994,
          "durationTicks": 240,
          "midi": 57,
          "name": "A3",
          "ticks": 332640,
          "time": 256.66641000000004,
          "velocity": 0.3228346456692913
        },
        {
          "duration": 0.18518499999998994,
          "durationTicks": 240,
          "midi": 73,
          "name": "C#5",
          "ticks": 332640,
          "time": 256.66641000000004,
          "velocity": 0.28346456692913385
        },
        {
          "duration": 0.18518499999998994,
          "durationTicks": 240,
          "midi": 39,
          "name": "D#2",
          "ticks": 332880,
          "time": 256.85159500000003,
          "velocity": 0.30708661417322836
        },
        {
          "duration": 0.18518499999998994,
          "durationTicks": 240,
          "midi": 56,
          "name": "G#3",
          "ticks": 332880,
          "time": 256.85159500000003,
          "velocity": 0.2440944881889764
        },
        {
          "duration": 0.09259250000002339,
          "durationTicks": 120,
          "midi": 64,
          "name": "E4",
          "ticks": 333000,
          "time": 256.9441875,
          "velocity": 0.29133858267716534
        },
        {
          "duration": 0.15432083333331548,
          "durationTicks": 200,
          "midi": 40,
          "name": "E2",
          "ticks": 333120,
          "time": 257.03678,
          "velocity": 0.3464566929133858
        },
        {
          "duration": 0.2160491666666644,
          "durationTicks": 280,
          "midi": 56,
          "name": "G#3",
          "ticks": 333120,
          "time": 257.03678,
          "velocity": 0.25984251968503935
        },
        {
          "duration": 0.2160491666666644,
          "durationTicks": 280,
          "midi": 60,
          "name": "C4",
          "ticks": 333120,
          "time": 257.03678,
          "velocity": 0.2440944881889764
        },
        {
          "duration": 0.2160491666666644,
          "durationTicks": 280,
          "midi": 68,
          "name": "G#4",
          "ticks": 333120,
          "time": 257.03678,
          "velocity": 0.2755905511811024
        },
        {
          "duration": 0.18518499999998994,
          "durationTicks": 240,
          "midi": 52,
          "name": "E3",
          "ticks": 333360,
          "time": 257.221965,
          "velocity": 0.3228346456692913
        },
        {
          "duration": 0.18518500000004678,
          "durationTicks": 240,
          "midi": 43,
          "name": "G2",
          "ticks": 333600,
          "time": 257.40715,
          "velocity": 0.28346456692913385
        },
        {
          "duration": 0.18518499999998994,
          "durationTicks": 240,
          "midi": 44,
          "name": "G#2",
          "ticks": 333840,
          "time": 257.59233500000005,
          "velocity": 0.28346456692913385
        },
        {
          "duration": 0.15432083333331548,
          "durationTicks": 200,
          "midi": 33,
          "name": "A1",
          "ticks": 334080,
          "time": 257.77752000000004,
          "velocity": 0.33070866141732286
        },
        {
          "duration": 0.15432083333331548,
          "durationTicks": 200,
          "midi": 52,
          "name": "E3",
          "ticks": 334080,
          "time": 257.77752000000004,
          "velocity": 0.4881889763779528
        },
        {
          "duration": 0.15432083333331548,
          "durationTicks": 200,
          "midi": 55,
          "name": "G3",
          "ticks": 334080,
          "time": 257.77752000000004,
          "velocity": 0.2283464566929134
        },
        {
          "duration": 0.15432083333331548,
          "durationTicks": 200,
          "midi": 57,
          "name": "A3",
          "ticks": 334080,
          "time": 257.77752000000004,
          "velocity": 0.28346456692913385
        },
        {
          "duration": 0.15432083333331548,
          "durationTicks": 200,
          "midi": 60,
          "name": "C4",
          "ticks": 334080,
          "time": 257.77752000000004,
          "velocity": 0.3543307086614173
        },
        {
          "duration": 0.15432083333331548,
          "durationTicks": 200,
          "midi": 64,
          "name": "E4",
          "ticks": 334080,
          "time": 257.77752000000004,
          "velocity": 0.4881889763779528
        },
        {
          "duration": 0.15432083333331548,
          "durationTicks": 200,
          "midi": 72,
          "name": "C5",
          "ticks": 334080,
          "time": 257.77752000000004,
          "velocity": 0.3543307086614173
        },
        {
          "duration": 0.18518499999998994,
          "durationTicks": 240,
          "midi": 40,
          "name": "E2",
          "ticks": 334320,
          "time": 257.962705,
          "velocity": 0.41732283464566927
        },
        {
          "duration": 0.18518499999998994,
          "durationTicks": 240,
          "midi": 36,
          "name": "C2",
          "ticks": 334560,
          "time": 258.14789,
          "velocity": 0.30708661417322836
        },
        {
          "duration": 0.18518499999998994,
          "durationTicks": 240,
          "midi": 52,
          "name": "E3",
          "ticks": 334560,
          "time": 258.14789,
          "velocity": 0.2992125984251969
        },
        {
          "duration": 0.18518499999998994,
          "durationTicks": 240,
          "midi": 57,
          "name": "A3",
          "ticks": 334560,
          "time": 258.14789,
          "velocity": 0.28346456692913385
        },
        {
          "duration": 0.18518499999998994,
          "durationTicks": 240,
          "midi": 60,
          "name": "C4",
          "ticks": 334560,
          "time": 258.14789,
          "velocity": 0.3228346456692913
        },
        {
          "duration": 0.18518499999998994,
          "durationTicks": 240,
          "midi": 64,
          "name": "E4",
          "ticks": 334560,
          "time": 258.14789,
          "velocity": 0.2992125984251969
        },
        {
          "duration": 0.18518499999998994,
          "durationTicks": 240,
          "midi": 33,
          "name": "A1",
          "ticks": 334800,
          "time": 258.333075,
          "velocity": 0.30708661417322836
        },
        {
          "duration": 0.15432083333331548,
          "durationTicks": 200,
          "midi": 35,
          "name": "B1",
          "ticks": 334800,
          "time": 258.333075,
          "velocity": 0.30708661417322836
        },
        {
          "duration": 0.18518500000004678,
          "durationTicks": 240,
          "midi": 64,
          "name": "E4",
          "ticks": 335040,
          "time": 258.51826,
          "velocity": 0.48031496062992124
        },
        {
          "duration": 0.3395058333333054,
          "durationTicks": 440,
          "midi": 33,
          "name": "A1",
          "ticks": 335280,
          "time": 258.70344500000004,
          "velocity": 0.2755905511811024
        },
        {
          "duration": 0.3395058333333054,
          "durationTicks": 440,
          "midi": 54,
          "name": "F#3",
          "ticks": 335280,
          "time": 258.70344500000004,
          "velocity": 0.3228346456692913
        },
        {
          "duration": 0.3395058333333054,
          "durationTicks": 440,
          "midi": 66,
          "name": "F#4",
          "ticks": 335280,
          "time": 258.70344500000004,
          "velocity": 0.4566929133858268
        },
        {
          "duration": 0.18518499999998994,
          "durationTicks": 240,
          "midi": 38,
          "name": "D2",
          "ticks": 335760,
          "time": 259.073815,
          "velocity": 0.33858267716535434
        },
        {
          "duration": 0.18518499999998994,
          "durationTicks": 240,
          "midi": 54,
          "name": "F#3",
          "ticks": 335760,
          "time": 259.073815,
          "velocity": 0.3464566929133858
        },
        {
          "duration": 0.18518499999998994,
          "durationTicks": 240,
          "midi": 60,
          "name": "C4",
          "ticks": 335760,
          "time": 259.073815,
          "velocity": 0.2992125984251969
        },
        {
          "duration": 0.2160491666666644,
          "durationTicks": 280,
          "midi": 64,
          "name": "E4",
          "ticks": 335760,
          "time": 259.073815,
          "velocity": 0.2440944881889764
        },
        {
          "duration": 0.18518499999998994,
          "durationTicks": 240,
          "midi": 67,
          "name": "G4",
          "ticks": 335760,
          "time": 259.073815,
          "velocity": 0.30708661417322836
        },
        {
          "duration": 0.18518499999998994,
          "durationTicks": 240,
          "midi": 55,
          "name": "G3",
          "ticks": 336000,
          "time": 259.259,
          "velocity": 0.36220472440944884
        },
        {
          "duration": 0.18518499999998994,
          "durationTicks": 240,
          "midi": 67,
          "name": "G4",
          "ticks": 336000,
          "time": 259.259,
          "velocity": 0.4251968503937008
        },
        {
          "duration": 0.18518499999998994,
          "durationTicks": 240,
          "midi": 30,
          "name": "F#1",
          "ticks": 336240,
          "time": 259.444185,
          "velocity": 0.3464566929133858
        },
        {
          "duration": 0.18518499999998994,
          "durationTicks": 240,
          "midi": 42,
          "name": "F#2",
          "ticks": 336240,
          "time": 259.444185,
          "velocity": 0.3464566929133858
        },
        {
          "duration": 0.18518499999998994,
          "durationTicks": 240,
          "midi": 54,
          "name": "F#3",
          "ticks": 336240,
          "time": 259.444185,
          "velocity": 0.30708661417322836
        },
        {
          "duration": 0.18518500000004678,
          "durationTicks": 240,
          "midi": 67,
          "name": "G4",
          "ticks": 336480,
          "time": 259.62937,
          "velocity": 0.48031496062992124
        },
        {
          "duration": 0.18518500000004678,
          "durationTicks": 240,
          "midi": 78,
          "name": "F#5",
          "ticks": 336480,
          "time": 259.62937,
          "velocity": 0.7952755905511811
        },
        {
          "duration": 0.18518499999998994,
          "durationTicks": 240,
          "midi": 31,
          "name": "G1",
          "ticks": 336720,
          "time": 259.81455500000004,
          "velocity": 0.33858267716535434
        },
        {
          "duration": 0.18518499999998994,
          "durationTicks": 240,
          "midi": 36,
          "name": "C2",
          "ticks": 336720,
          "time": 259.81455500000004,
          "velocity": 0.41732283464566927
        },
        {
          "duration": 0.18518499999998994,
          "durationTicks": 240,
          "midi": 60,
          "name": "C4",
          "ticks": 336720,
          "time": 259.81455500000004,
          "velocity": 0.2677165354330709
        },
        {
          "duration": 0.18518499999998994,
          "durationTicks": 240,
          "midi": 67,
          "name": "G4",
          "ticks": 336720,
          "time": 259.81455500000004,
          "velocity": 0.30708661417322836
        },
        {
          "duration": 0.15432083333331548,
          "durationTicks": 200,
          "midi": 52,
          "name": "E3",
          "ticks": 336960,
          "time": 259.99974000000003,
          "velocity": 0.33070866141732286
        },
        {
          "duration": 0.15432083333331548,
          "durationTicks": 200,
          "midi": 64,
          "name": "E4",
          "ticks": 336960,
          "time": 259.99974000000003,
          "velocity": 0.5354330708661418
        },
        {
          "duration": 0.15432083333331548,
          "durationTicks": 200,
          "midi": 71,
          "name": "B4",
          "ticks": 336960,
          "time": 259.99974000000003,
          "velocity": 0.29133858267716534
        },
        {
          "duration": 0.18518499999998994,
          "durationTicks": 240,
          "midi": 33,
          "name": "A1",
          "ticks": 337200,
          "time": 260.184925,
          "velocity": 0.3464566929133858
        },
        {
          "duration": 0.18518499999998994,
          "durationTicks": 240,
          "midi": 45,
          "name": "A2",
          "ticks": 337200,
          "time": 260.184925,
          "velocity": 0.3464566929133858
        },
        {
          "duration": 0.15432083333331548,
          "durationTicks": 200,
          "midi": 72,
          "name": "C5",
          "ticks": 337200,
          "time": 260.184925,
          "velocity": 0.28346456692913385
        },
        {
          "duration": 0.18518499999998994,
          "durationTicks": 240,
          "midi": 36,
          "name": "C2",
          "ticks": 337440,
          "time": 260.37011,
          "velocity": 0.33070866141732286
        },
        {
          "duration": 0.18518499999998994,
          "durationTicks": 240,
          "midi": 60,
          "name": "C4",
          "ticks": 337440,
          "time": 260.37011,
          "velocity": 0.3464566929133858
        },
        {
          "duration": 0.18518499999998994,
          "durationTicks": 240,
          "midi": 64,
          "name": "E4",
          "ticks": 337440,
          "time": 260.37011,
          "velocity": 0.25984251968503935
        },
        {
          "duration": 0.18518500000004678,
          "durationTicks": 240,
          "midi": 38,
          "name": "D2",
          "ticks": 337680,
          "time": 260.555295,
          "velocity": 0.3464566929133858
        },
        {
          "duration": 0.5555549999999698,
          "durationTicks": 720,
          "midi": 40,
          "name": "E2",
          "ticks": 337920,
          "time": 260.74048000000005,
          "velocity": 0.2992125984251969
        },
        {
          "duration": 0.5555549999999698,
          "durationTicks": 720,
          "midi": 47,
          "name": "B2",
          "ticks": 337920,
          "time": 260.74048000000005,
          "velocity": 0.4251968503937008
        },
        {
          "duration": 0.5555549999999698,
          "durationTicks": 720,
          "midi": 51,
          "name": "D#3",
          "ticks": 337920,
          "time": 260.74048000000005,
          "velocity": 0.3464566929133858
        },
        {
          "duration": 0.5555549999999698,
          "durationTicks": 720,
          "midi": 52,
          "name": "E3",
          "ticks": 337920,
          "time": 260.74048000000005,
          "velocity": 0.2992125984251969
        },
        {
          "duration": 0.5555549999999698,
          "durationTicks": 720,
          "midi": 56,
          "name": "G#3",
          "ticks": 337920,
          "time": 260.74048000000005,
          "velocity": 0.25196850393700787
        },
        {
          "duration": 0.5555549999999698,
          "durationTicks": 720,
          "midi": 59,
          "name": "B3",
          "ticks": 337920,
          "time": 260.74048000000005,
          "velocity": 0.4251968503937008
        },
        {
          "duration": 0.5555549999999698,
          "durationTicks": 720,
          "midi": 63,
          "name": "D#4",
          "ticks": 337920,
          "time": 260.74048000000005,
          "velocity": 0.3464566929133858
        },
        {
          "duration": 0.5555549999999698,
          "durationTicks": 720,
          "midi": 66,
          "name": "F#4",
          "ticks": 337920,
          "time": 260.74048000000005,
          "velocity": 0.33070866141732286
        },
        {
          "duration": 0.5555549999999698,
          "durationTicks": 720,
          "midi": 75,
          "name": "D#5",
          "ticks": 337920,
          "time": 260.74048000000005,
          "velocity": 0.2440944881889764
        },
        {
          "duration": 0.18518499999998994,
          "durationTicks": 240,
          "midi": 52,
          "name": "E3",
          "ticks": 338640,
          "time": 261.296035,
          "velocity": 0.28346456692913385
        },
        {
          "duration": 0.18518499999998994,
          "durationTicks": 240,
          "midi": 54,
          "name": "F#3",
          "ticks": 338640,
          "time": 261.296035,
          "velocity": 0.3937007874015748
        },
        {
          "duration": 0.18518499999998994,
          "durationTicks": 240,
          "midi": 56,
          "name": "G#3",
          "ticks": 338640,
          "time": 261.296035,
          "velocity": 0.23622047244094488
        },
        {
          "duration": 0.18518499999998994,
          "durationTicks": 240,
          "midi": 59,
          "name": "B3",
          "ticks": 338640,
          "time": 261.296035,
          "velocity": 0.2440944881889764
        },
        {
          "duration": 0.18518499999998994,
          "durationTicks": 240,
          "midi": 76,
          "name": "E5",
          "ticks": 338640,
          "time": 261.296035,
          "velocity": 0.1968503937007874
        },
        {
          "duration": 0.18518499999998994,
          "durationTicks": 240,
          "midi": 40,
          "name": "E2",
          "ticks": 338880,
          "time": 261.48122,
          "velocity": 0.3228346456692913
        },
        {
          "duration": 0.18518499999998994,
          "durationTicks": 240,
          "midi": 68,
          "name": "G#4",
          "ticks": 338880,
          "time": 261.48122,
          "velocity": 0.48031496062992124
        },
        {
          "duration": 0.18518500000004678,
          "durationTicks": 240,
          "midi": 56,
          "name": "G#3",
          "ticks": 339120,
          "time": 261.666405,
          "velocity": 0.33070866141732286
        },
        {
          "duration": 0.18518499999998994,
          "durationTicks": 240,
          "midi": 37,
          "name": "C#2",
          "ticks": 339360,
          "time": 261.85159000000004,
          "velocity": 0.36220472440944884
        },
        {
          "duration": 0.18518499999998994,
          "durationTicks": 240,
          "midi": 56,
          "name": "G#3",
          "ticks": 339360,
          "time": 261.85159000000004,
          "velocity": 0.3858267716535433
        },
        {
          "duration": 0.18518499999998994,
          "durationTicks": 240,
          "midi": 59,
          "name": "B3",
          "ticks": 339360,
          "time": 261.85159000000004,
          "velocity": 0.25196850393700787
        },
        {
          "duration": 0.18518499999998994,
          "durationTicks": 240,
          "midi": 63,
          "name": "D#4",
          "ticks": 339360,
          "time": 261.85159000000004,
          "velocity": 0.4330708661417323
        },
        {
          "duration": 0.18518499999998994,
          "durationTicks": 240,
          "midi": 71,
          "name": "B4",
          "ticks": 339360,
          "time": 261.85159000000004,
          "velocity": 0.2992125984251969
        },
        {
          "duration": 0.18518499999998994,
          "durationTicks": 240,
          "midi": 36,
          "name": "C2",
          "ticks": 339600,
          "time": 262.03677500000003,
          "velocity": 0.28346456692913385
        },
        {
          "duration": 0.3395058333333054,
          "durationTicks": 440,
          "midi": 35,
          "name": "B1",
          "ticks": 339840,
          "time": 262.22196,
          "velocity": 0.31496062992125984
        },
        {
          "duration": 0.40123416666665435,
          "durationTicks": 520,
          "midi": 56,
          "name": "G#3",
          "ticks": 339840,
          "time": 262.22196,
          "velocity": 0.3858267716535433
        },
        {
          "duration": 0.40123416666665435,
          "durationTicks": 520,
          "midi": 57,
          "name": "A3",
          "ticks": 339840,
          "time": 262.22196,
          "velocity": 0.2677165354330709
        },
        {
          "duration": 0.40123416666665435,
          "durationTicks": 520,
          "midi": 62,
          "name": "D4",
          "ticks": 339840,
          "time": 262.22196,
          "velocity": 0.2047244094488189
        },
        {
          "duration": 0.40123416666665435,
          "durationTicks": 520,
          "midi": 64,
          "name": "E4",
          "ticks": 339840,
          "time": 262.22196,
          "velocity": 0.4881889763779528
        },
        {
          "duration": 0.40123416666665435,
          "durationTicks": 520,
          "midi": 69,
          "name": "A4",
          "ticks": 339840,
          "time": 262.22196,
          "velocity": 0.2677165354330709
        },
        {
          "duration": 0.40123416666665435,
          "durationTicks": 520,
          "midi": 76,
          "name": "E5",
          "ticks": 339840,
          "time": 262.22196,
          "velocity": 0.4881889763779528
        },
        {
          "duration": 0.18518500000004678,
          "durationTicks": 240,
          "midi": 30,
          "name": "F#1",
          "ticks": 340320,
          "time": 262.59233,
          "velocity": 0.33858267716535434
        },
        {
          "duration": 0.21604916666672125,
          "durationTicks": 280,
          "midi": 69,
          "name": "A4",
          "ticks": 340320,
          "time": 262.59233,
          "velocity": 0.33858267716535434
        },
        {
          "duration": 0.2160491666666644,
          "durationTicks": 280,
          "midi": 29,
          "name": "F1",
          "ticks": 340560,
          "time": 262.77751500000005,
          "velocity": 0.3228346456692913
        },
        {
          "duration": 0.2160491666666644,
          "durationTicks": 280,
          "midi": 56,
          "name": "G#3",
          "ticks": 340560,
          "time": 262.77751500000005,
          "velocity": 0.3779527559055118
        },
        {
          "duration": 0.2160491666666644,
          "durationTicks": 280,
          "midi": 62,
          "name": "D4",
          "ticks": 340560,
          "time": 262.77751500000005,
          "velocity": 0.23622047244094488
        },
        {
          "duration": 0.2160491666666644,
          "durationTicks": 280,
          "midi": 64,
          "name": "E4",
          "ticks": 340560,
          "time": 262.77751500000005,
          "velocity": 0.28346456692913385
        },
        {
          "duration": 0.2160491666666644,
          "durationTicks": 280,
          "midi": 66,
          "name": "F#4",
          "ticks": 340560,
          "time": 262.77751500000005,
          "velocity": 0.1889763779527559
        },
        {
          "duration": 0.2160491666666644,
          "durationTicks": 280,
          "midi": 76,
          "name": "E5",
          "ticks": 340560,
          "time": 262.77751500000005,
          "velocity": 0.23622047244094488
        },
        {
          "duration": 0.18518499999998994,
          "durationTicks": 240,
          "midi": 28,
          "name": "E1",
          "ticks": 340800,
          "time": 262.96270000000004,
          "velocity": 0.3779527559055118
        },
        {
          "duration": 0.18518499999998994,
          "durationTicks": 240,
          "midi": 46,
          "name": "A#2",
          "ticks": 340800,
          "time": 262.96270000000004,
          "velocity": 0.23622047244094488
        },
        {
          "duration": 0.18518499999998994,
          "durationTicks": 240,
          "midi": 56,
          "name": "G#3",
          "ticks": 340800,
          "time": 262.96270000000004,
          "velocity": 0.5669291338582677
        },
        {
          "duration": 0.18518499999998994,
          "durationTicks": 240,
          "midi": 62,
          "name": "D4",
          "ticks": 340800,
          "time": 262.96270000000004,
          "velocity": 0.3779527559055118
        },
        {
          "duration": 0.18518499999998994,
          "durationTicks": 240,
          "midi": 66,
          "name": "F#4",
          "ticks": 340800,
          "time": 262.96270000000004,
          "velocity": 0.28346456692913385
        },
        {
          "duration": 0.18518499999998994,
          "durationTicks": 240,
          "midi": 74,
          "name": "D5",
          "ticks": 340800,
          "time": 262.96270000000004,
          "velocity": 0.3779527559055118
        },
        {
          "duration": 0.15432083333331548,
          "durationTicks": 200,
          "midi": 56,
          "name": "G#3",
          "ticks": 341040,
          "time": 263.14788500000003,
          "velocity": 0.29133858267716534
        },
        {
          "duration": 0.12345666666669786,
          "durationTicks": 160,
          "midi": 70,
          "name": "A#4",
          "ticks": 341160,
          "time": 263.2404775,
          "velocity": 0.2992125984251969
        },
        {
          "duration": 0.12345666666669786,
          "durationTicks": 160,
          "midi": 86,
          "name": "D6",
          "ticks": 341160,
          "time": 263.2404775,
          "velocity": 0.25984251968503935
        },
        {
          "duration": 0.18518499999998994,
          "durationTicks": 240,
          "midi": 35,
          "name": "B1",
          "ticks": 341280,
          "time": 263.33307,
          "velocity": 0.33858267716535434
        },
        {
          "duration": 0.18518499999998994,
          "durationTicks": 240,
          "midi": 56,
          "name": "G#3",
          "ticks": 341280,
          "time": 263.33307,
          "velocity": 0.2992125984251969
        },
        {
          "duration": 0.18518499999998994,
          "durationTicks": 240,
          "midi": 62,
          "name": "D4",
          "ticks": 341280,
          "time": 263.33307,
          "velocity": 0.2283464566929134
        },
        {
          "duration": 0.21604916666672125,
          "durationTicks": 280,
          "midi": 34,
          "name": "A#1",
          "ticks": 341520,
          "time": 263.518255,
          "velocity": 0.2677165354330709
        },
        {
          "duration": 0.15432083333331548,
          "durationTicks": 200,
          "midi": 56,
          "name": "G#3",
          "ticks": 341520,
          "time": 263.518255,
          "velocity": 0.25984251968503935
        },
        {
          "duration": 0.18518500000004678,
          "durationTicks": 240,
          "midi": 33,
          "name": "A1",
          "ticks": 341760,
          "time": 263.70344,
          "velocity": 0.3543307086614173
        },
        {
          "duration": 0.18518500000004678,
          "durationTicks": 240,
          "midi": 45,
          "name": "A2",
          "ticks": 341760,
          "time": 263.70344,
          "velocity": 0.3543307086614173
        },
        {
          "duration": 0.18518500000004678,
          "durationTicks": 240,
          "midi": 52,
          "name": "E3",
          "ticks": 341760,
          "time": 263.70344,
          "velocity": 0.4094488188976378
        },
        {
          "duration": 0.18518500000004678,
          "durationTicks": 240,
          "midi": 56,
          "name": "G#3",
          "ticks": 341760,
          "time": 263.70344,
          "velocity": 0.2440944881889764
        },
        {
          "duration": 0.18518500000004678,
          "durationTicks": 240,
          "midi": 61,
          "name": "C#4",
          "ticks": 341760,
          "time": 263.70344,
          "velocity": 0.25984251968503935
        },
        {
          "duration": 0.18518500000004678,
          "durationTicks": 240,
          "midi": 64,
          "name": "E4",
          "ticks": 341760,
          "time": 263.70344,
          "velocity": 0.3779527559055118
        },
        {
          "duration": 0.18518500000004678,
          "durationTicks": 240,
          "midi": 80,
          "name": "G#5",
          "ticks": 341760,
          "time": 263.70344,
          "velocity": 0.3700787401574803
        },
        {
          "duration": 0.18518499999998994,
          "durationTicks": 240,
          "midi": 56,
          "name": "G#3",
          "ticks": 342000,
          "time": 263.88862500000005,
          "velocity": 0.31496062992125984
        },
        {
          "duration": 0.18518499999998994,
          "durationTicks": 240,
          "midi": 49,
          "name": "C#3",
          "ticks": 342240,
          "time": 264.07381000000004,
          "velocity": 0.28346456692913385
        },
        {
          "duration": 0.18518499999998994,
          "durationTicks": 240,
          "midi": 56,
          "name": "G#3",
          "ticks": 342240,
          "time": 264.07381000000004,
          "velocity": 0.28346456692913385
        },
        {
          "duration": 0.18518499999998994,
          "durationTicks": 240,
          "midi": 61,
          "name": "C#4",
          "ticks": 342240,
          "time": 264.07381000000004,
          "velocity": 0.33858267716535434
        },
        {
          "duration": 0.18518499999998994,
          "durationTicks": 240,
          "midi": 40,
          "name": "E2",
          "ticks": 342480,
          "time": 264.258995,
          "velocity": 0.33858267716535434
        },
        {
          "duration": 0.18518499999998994,
          "durationTicks": 240,
          "midi": 52,
          "name": "E3",
          "ticks": 342480,
          "time": 264.258995,
          "velocity": 0.5039370078740157
        },
        {
          "duration": 0.18518499999998994,
          "durationTicks": 240,
          "midi": 56,
          "name": "G#3",
          "ticks": 342480,
          "time": 264.258995,
          "velocity": 0.33858267716535434
        },
        {
          "duration": 0.18518499999998994,
          "durationTicks": 240,
          "midi": 61,
          "name": "C#4",
          "ticks": 342480,
          "time": 264.258995,
          "velocity": 0.2677165354330709
        },
        {
          "duration": 0.18518499999998994,
          "durationTicks": 240,
          "midi": 64,
          "name": "E4",
          "ticks": 342480,
          "time": 264.258995,
          "velocity": 0.5039370078740157
        },
        {
          "duration": 0.18518499999998994,
          "durationTicks": 240,
          "midi": 56,
          "name": "G#3",
          "ticks": 342720,
          "time": 264.44418,
          "velocity": 0.36220472440944884
        },
        {
          "duration": 0.18518499999998994,
          "durationTicks": 240,
          "midi": 45,
          "name": "A2",
          "ticks": 342960,
          "time": 264.629365,
          "velocity": 0.31496062992125984
        },
        {
          "duration": 0.15432083333331548,
          "durationTicks": 200,
          "midi": 54,
          "name": "F#3",
          "ticks": 342960,
          "time": 264.629365,
          "velocity": 0.6771653543307087
        },
        {
          "duration": 0.15432083333331548,
          "durationTicks": 200,
          "midi": 56,
          "name": "G#3",
          "ticks": 342960,
          "time": 264.629365,
          "velocity": 0.3937007874015748
        },
        {
          "duration": 0.18518499999998994,
          "durationTicks": 240,
          "midi": 61,
          "name": "C#4",
          "ticks": 342960,
          "time": 264.629365,
          "velocity": 0.2283464566929134
        },
        {
          "duration": 0.18518499999998994,
          "durationTicks": 240,
          "midi": 66,
          "name": "F#4",
          "ticks": 342960,
          "time": 264.629365,
          "velocity": 0.6535433070866141
        },
        {
          "duration": 0.15432083333337232,
          "durationTicks": 200,
          "midi": 64,
          "name": "E4",
          "ticks": 343200,
          "time": 264.81455,
          "velocity": 0.2283464566929134
        },
        {
          "duration": 0.18518499999998994,
          "durationTicks": 240,
          "midi": 32,
          "name": "G#1",
          "ticks": 343440,
          "time": 264.99973500000004,
          "velocity": 0.4409448818897638
        },
        {
          "duration": 0.18518499999998994,
          "durationTicks": 240,
          "midi": 56,
          "name": "G#3",
          "ticks": 343440,
          "time": 264.99973500000004,
          "velocity": 0.4330708661417323
        },
        {
          "duration": 0.18518499999998994,
          "durationTicks": 240,
          "midi": 60,
          "name": "C4",
          "ticks": 343440,
          "time": 264.99973500000004,
          "velocity": 0.2440944881889764
        },
        {
          "duration": 0.18518499999998994,
          "durationTicks": 240,
          "midi": 61,
          "name": "C#4",
          "ticks": 343440,
          "time": 264.99973500000004,
          "velocity": 0.2204724409448819
        },
        {
          "duration": 0.18518499999998994,
          "durationTicks": 240,
          "midi": 64,
          "name": "E4",
          "ticks": 343440,
          "time": 264.99973500000004,
          "velocity": 0.23622047244094488
        },
        {
          "duration": 0.15432083333331548,
          "durationTicks": 200,
          "midi": 65,
          "name": "F4",
          "ticks": 343440,
          "time": 264.99973500000004,
          "velocity": 0.28346456692913385
        },
        {
          "duration": 0.15432083333331548,
          "durationTicks": 200,
          "midi": 68,
          "name": "G#4",
          "ticks": 343440,
          "time": 264.99973500000004,
          "velocity": 0.25984251968503935
        },
        {
          "duration": 0.18518499999998994,
          "durationTicks": 240,
          "midi": 56,
          "name": "G#3",
          "ticks": 343680,
          "time": 265.18492000000003,
          "velocity": 0.5590551181102362
        },
        {
          "duration": 0.18518499999998994,
          "durationTicks": 240,
          "midi": 39,
          "name": "D#2",
          "ticks": 343920,
          "time": 265.370105,
          "velocity": 0.29133858267716534
        },
        {
          "duration": 0.2160491666666644,
          "durationTicks": 280,
          "midi": 57,
          "name": "A3",
          "ticks": 344160,
          "time": 265.55529,
          "velocity": 0.47244094488188976
        },
        {
          "duration": 0.2160491666666644,
          "durationTicks": 280,
          "midi": 69,
          "name": "A4",
          "ticks": 344160,
          "time": 265.55529,
          "velocity": 0.8582677165354331
        },
        {
          "duration": 0.15432083333331548,
          "durationTicks": 200,
          "midi": 44,
          "name": "G#2",
          "ticks": 344400,
          "time": 265.740475,
          "velocity": 0.33858267716535434
        },
        {
          "duration": 0.18518500000004678,
          "durationTicks": 240,
          "midi": 50,
          "name": "D3",
          "ticks": 344400,
          "time": 265.740475,
          "velocity": 0.1889763779527559
        },
        {
          "duration": 0.15432083333331548,
          "durationTicks": 200,
          "midi": 59,
          "name": "B3",
          "ticks": 344400,
          "time": 265.740475,
          "velocity": 0.2992125984251969
        },
        {
          "duration": 0.18518500000004678,
          "durationTicks": 240,
          "midi": 64,
          "name": "E4",
          "ticks": 344400,
          "time": 265.740475,
          "velocity": 0.31496062992125984
        },
        {
          "duration": 0.18518499999998994,
          "durationTicks": 240,
          "midi": 59,
          "name": "B3",
          "ticks": 344640,
          "time": 265.92566000000005,
          "velocity": 0.3464566929133858
        },
        {
          "duration": 0.18518499999998994,
          "durationTicks": 240,
          "midi": 64,
          "name": "E4",
          "ticks": 344640,
          "time": 265.92566000000005,
          "velocity": 0.2440944881889764
        },
        {
          "duration": 0.18518499999998994,
          "durationTicks": 240,
          "midi": 68,
          "name": "G#4",
          "ticks": 344640,
          "time": 265.92566000000005,
          "velocity": 0.2204724409448819
        },
        {
          "duration": 0.18518499999998994,
          "durationTicks": 240,
          "midi": 71,
          "name": "B4",
          "ticks": 344640,
          "time": 265.92566000000005,
          "velocity": 0.3464566929133858
        },
        {
          "duration": 0.2160491666666644,
          "durationTicks": 280,
          "midi": 32,
          "name": "G#1",
          "ticks": 344880,
          "time": 266.11084500000004,
          "velocity": 0.3464566929133858
        },
        {
          "duration": 0.2160491666666644,
          "durationTicks": 280,
          "midi": 59,
          "name": "B3",
          "ticks": 344880,
          "time": 266.11084500000004,
          "velocity": 0.48031496062992124
        },
        {
          "duration": 0.2160491666666644,
          "durationTicks": 280,
          "midi": 64,
          "name": "E4",
          "ticks": 344880,
          "time": 266.11084500000004,
          "velocity": 0.25196850393700787
        },
        {
          "duration": 0.2160491666666644,
          "durationTicks": 280,
          "midi": 68,
          "name": "G#4",
          "ticks": 344880,
          "time": 266.11084500000004,
          "velocity": 0.2283464566929134
        },
        {
          "duration": 0.18518499999998994,
          "durationTicks": 240,
          "midi": 39,
          "name": "D#2",
          "ticks": 345120,
          "time": 266.29603000000003,
          "velocity": 0.36220472440944884
        },
        {
          "duration": 0.18518499999998994,
          "durationTicks": 240,
          "midi": 55,
          "name": "G3",
          "ticks": 345120,
          "time": 266.29603000000003,
          "velocity": 0.2283464566929134
        },
        {
          "duration": 0.18518499999998994,
          "durationTicks": 240,
          "midi": 57,
          "name": "A3",
          "ticks": 345120,
          "time": 266.29603000000003,
          "velocity": 0.2204724409448819
        },
        {
          "duration": 0.18518499999998994,
          "durationTicks": 240,
          "midi": 61,
          "name": "C#4",
          "ticks": 345120,
          "time": 266.29603000000003,
          "velocity": 0.6299212598425197
        },
        {
          "duration": 0.18518499999998994,
          "durationTicks": 240,
          "midi": 64,
          "name": "E4",
          "ticks": 345120,
          "time": 266.29603000000003,
          "velocity": 0.2283464566929134
        },
        {
          "duration": 0.18518499999998994,
          "durationTicks": 240,
          "midi": 73,
          "name": "C#5",
          "ticks": 345120,
          "time": 266.29603000000003,
          "velocity": 0.6299212598425197
        },
        {
          "duration": 0.18518499999998994,
          "durationTicks": 240,
          "midi": 38,
          "name": "D2",
          "ticks": 345360,
          "time": 266.481215,
          "velocity": 0.33858267716535434
        },
        {
          "duration": 0.18518499999998994,
          "durationTicks": 240,
          "midi": 57,
          "name": "A3",
          "ticks": 345360,
          "time": 266.481215,
          "velocity": 0.2677165354330709
        },
        {
          "duration": 0.18518499999998994,
          "durationTicks": 240,
          "midi": 64,
          "name": "E4",
          "ticks": 345360,
          "time": 266.481215,
          "velocity": 0.2440944881889764
        },
        {
          "duration": 0.18518499999998994,
          "durationTicks": 240,
          "midi": 37,
          "name": "C#2",
          "ticks": 345600,
          "time": 266.6664,
          "velocity": 0.3858267716535433
        },
        {
          "duration": 0.18518499999998994,
          "durationTicks": 240,
          "midi": 49,
          "name": "C#3",
          "ticks": 345600,
          "time": 266.6664,
          "velocity": 0.3858267716535433
        },
        {
          "duration": 0.18518499999998994,
          "durationTicks": 240,
          "midi": 56,
          "name": "G#3",
          "ticks": 345600,
          "time": 266.6664,
          "velocity": 0.3228346456692913
        },
        {
          "duration": 0.18518499999998994,
          "durationTicks": 240,
          "midi": 59,
          "name": "B3",
          "ticks": 345600,
          "time": 266.6664,
          "velocity": 0.2283464566929134
        },
        {
          "duration": 0.18518499999998994,
          "durationTicks": 240,
          "midi": 61,
          "name": "C#4",
          "ticks": 345600,
          "time": 266.6664,
          "velocity": 0.2204724409448819
        },
        {
          "duration": 0.18518499999998994,
          "durationTicks": 240,
          "midi": 63,
          "name": "D#4",
          "ticks": 345600,
          "time": 266.6664,
          "velocity": 0.28346456692913385
        },
        {
          "duration": 0.18518499999998994,
          "durationTicks": 240,
          "midi": 68,
          "name": "G#4",
          "ticks": 345600,
          "time": 266.6664,
          "velocity": 0.3228346456692913
        },
        {
          "duration": 0.18518500000004678,
          "durationTicks": 240,
          "midi": 37,
          "name": "C#2",
          "ticks": 345840,
          "time": 266.851585,
          "velocity": 0.3858267716535433
        },
        {
          "duration": 0.18518500000004678,
          "durationTicks": 240,
          "midi": 68,
          "name": "G#4",
          "ticks": 345840,
          "time": 266.851585,
          "velocity": 0.4566929133858268
        },
        {
          "duration": 0.15432083333331548,
          "durationTicks": 200,
          "midi": 56,
          "name": "G#3",
          "ticks": 346080,
          "time": 267.03677000000005,
          "velocity": 0.6535433070866141
        },
        {
          "duration": 0.18518499999998994,
          "durationTicks": 240,
          "midi": 49,
          "name": "C#3",
          "ticks": 346320,
          "time": 267.22195500000004,
          "velocity": 0.3464566929133858
        },
        {
          "duration": 0.18518499999998994,
          "durationTicks": 240,
          "midi": 61,
          "name": "C#4",
          "ticks": 346320,
          "time": 267.22195500000004,
          "velocity": 0.25984251968503935
        },
        {
          "duration": 0.15432083333331548,
          "durationTicks": 200,
          "midi": 63,
          "name": "D#4",
          "ticks": 346560,
          "time": 267.40714,
          "velocity": 0.33858267716535434
        },
        {
          "duration": 0.18518499999998994,
          "durationTicks": 240,
          "midi": 43,
          "name": "G2",
          "ticks": 346800,
          "time": 267.592325,
          "velocity": 0.28346456692913385
        },
        {
          "duration": 0.15432083333331548,
          "durationTicks": 200,
          "midi": 49,
          "name": "C#3",
          "ticks": 347040,
          "time": 267.77751,
          "velocity": 0.28346456692913385
        },
        {
          "duration": 0.18518500000004678,
          "durationTicks": 240,
          "midi": 36,
          "name": "C2",
          "ticks": 347280,
          "time": 267.962695,
          "velocity": 0.33070866141732286
        },
        {
          "duration": 0.18518500000004678,
          "durationTicks": 240,
          "midi": 48,
          "name": "C3",
          "ticks": 347280,
          "time": 267.962695,
          "velocity": 0.2677165354330709
        },
        {
          "duration": 0.18518500000004678,
          "durationTicks": 240,
          "midi": 64,
          "name": "E4",
          "ticks": 347280,
          "time": 267.962695,
          "velocity": 0.1889763779527559
        },
        {
          "duration": 0.18518500000004678,
          "durationTicks": 240,
          "midi": 66,
          "name": "F#4",
          "ticks": 347280,
          "time": 267.962695,
          "velocity": 0.5196850393700787
        },
        {
          "duration": 0.18518500000004678,
          "durationTicks": 240,
          "midi": 73,
          "name": "C#5",
          "ticks": 347280,
          "time": 267.962695,
          "velocity": 0.4251968503937008
        },
        {
          "duration": 0.12345666666669786,
          "durationTicks": 160,
          "midi": 49,
          "name": "C#3",
          "ticks": 347400,
          "time": 268.0552875,
          "velocity": 0.2677165354330709
        },
        {
          "duration": 0.3703699999999799,
          "durationTicks": 480,
          "midi": 47,
          "name": "B2",
          "ticks": 347520,
          "time": 268.14788000000004,
          "velocity": 0.33070866141732286
        },
        {
          "duration": 0.3703699999999799,
          "durationTicks": 480,
          "midi": 52,
          "name": "E3",
          "ticks": 347520,
          "time": 268.14788000000004,
          "velocity": 0.30708661417322836
        },
        {
          "duration": 0.3703699999999799,
          "durationTicks": 480,
          "midi": 57,
          "name": "A3",
          "ticks": 347520,
          "time": 268.14788000000004,
          "velocity": 0.2047244094488189
        },
        {
          "duration": 0.3703699999999799,
          "durationTicks": 480,
          "midi": 61,
          "name": "C#4",
          "ticks": 347520,
          "time": 268.14788000000004,
          "velocity": 0.2125984251968504
        },
        {
          "duration": 0.40123416666665435,
          "durationTicks": 520,
          "midi": 64,
          "name": "E4",
          "ticks": 347520,
          "time": 268.14788000000004,
          "velocity": 0.4409448818897638
        },
        {
          "duration": 0.18518499999998994,
          "durationTicks": 240,
          "midi": 42,
          "name": "F#2",
          "ticks": 348000,
          "time": 268.51825,
          "velocity": 0.29133858267716534
        },
        {
          "duration": 0.24691333333328203,
          "durationTicks": 320,
          "midi": 52,
          "name": "E3",
          "ticks": 348120,
          "time": 268.61084250000005,
          "velocity": 0.33858267716535434
        },
        {
          "duration": 0.18518499999998994,
          "durationTicks": 240,
          "midi": 41,
          "name": "F2",
          "ticks": 348240,
          "time": 268.703435,
          "velocity": 0.3228346456692913
        },
        {
          "duration": 0.18518499999998994,
          "durationTicks": 240,
          "midi": 61,
          "name": "C#4",
          "ticks": 348240,
          "time": 268.703435,
          "velocity": 0.2440944881889764
        },
        {
          "duration": 0.18518499999998994,
          "durationTicks": 240,
          "midi": 64,
          "name": "E4",
          "ticks": 348240,
          "time": 268.703435,
          "velocity": 0.3228346456692913
        },
        {
          "duration": 0.18518500000004678,
          "durationTicks": 240,
          "midi": 40,
          "name": "E2",
          "ticks": 348480,
          "time": 268.88862,
          "velocity": 0.33858267716535434
        },
        {
          "duration": 0.18518500000004678,
          "durationTicks": 240,
          "midi": 54,
          "name": "F#3",
          "ticks": 348480,
          "time": 268.88862,
          "velocity": 0.2204724409448819
        },
        {
          "duration": 0.18518500000004678,
          "durationTicks": 240,
          "midi": 57,
          "name": "A3",
          "ticks": 348480,
          "time": 268.88862,
          "velocity": 0.3228346456692913
        },
        {
          "duration": 0.18518500000004678,
          "durationTicks": 240,
          "midi": 62,
          "name": "D4",
          "ticks": 348480,
          "time": 268.88862,
          "velocity": 0.2283464566929134
        },
        {
          "duration": 0.18518500000004678,
          "durationTicks": 240,
          "midi": 66,
          "name": "F#4",
          "ticks": 348480,
          "time": 268.88862,
          "velocity": 0.23622047244094488
        },
        {
          "duration": 0.18518500000004678,
          "durationTicks": 240,
          "midi": 71,
          "name": "B4",
          "ticks": 348480,
          "time": 268.88862,
          "velocity": 0.2755905511811024
        },
        {
          "duration": 0.18518499999998994,
          "durationTicks": 240,
          "midi": 39,
          "name": "D#2",
          "ticks": 348720,
          "time": 269.07380500000005,
          "velocity": 0.2677165354330709
        },
        {
          "duration": 0.18518499999998994,
          "durationTicks": 240,
          "midi": 69,
          "name": "A4",
          "ticks": 348720,
          "time": 269.07380500000005,
          "velocity": 0.33070866141732286
        },
        {
          "duration": 0.18518499999998994,
          "durationTicks": 240,
          "midi": 35,
          "name": "B1",
          "ticks": 348960,
          "time": 269.25899000000004,
          "velocity": 0.4015748031496063
        },
        {
          "duration": 0.18518499999998994,
          "durationTicks": 240,
          "midi": 71,
          "name": "B4",
          "ticks": 348960,
          "time": 269.25899000000004,
          "velocity": 0.5196850393700787
        },
        {
          "duration": 0.18518499999998994,
          "durationTicks": 240,
          "midi": 34,
          "name": "A#1",
          "ticks": 349200,
          "time": 269.44417500000003,
          "velocity": 0.30708661417322836
        },
        {
          "duration": 0.2160491666666644,
          "durationTicks": 280,
          "midi": 33,
          "name": "A1",
          "ticks": 349440,
          "time": 269.62936,
          "velocity": 0.3228346456692913
        },
        {
          "duration": 0.2160491666666644,
          "durationTicks": 280,
          "midi": 45,
          "name": "A2",
          "ticks": 349440,
          "time": 269.62936,
          "velocity": 0.2992125984251969
        },
        {
          "duration": 0.2160491666666644,
          "durationTicks": 280,
          "midi": 56,
          "name": "G#3",
          "ticks": 349440,
          "time": 269.62936,
          "velocity": 0.2047244094488189
        },
        {
          "duration": 0.2160491666666644,
          "durationTicks": 280,
          "midi": 57,
          "name": "A3",
          "ticks": 349440,
          "time": 269.62936,
          "velocity": 0.2992125984251969
        },
        {
          "duration": 0.2160491666666644,
          "durationTicks": 280,
          "midi": 61,
          "name": "C#4",
          "ticks": 349440,
          "time": 269.62936,
          "velocity": 0.4566929133858268
        },
        {
          "duration": 0.2160491666666644,
          "durationTicks": 280,
          "midi": 64,
          "name": "E4",
          "ticks": 349440,
          "time": 269.62936,
          "velocity": 0.3228346456692913
        },
        {
          "duration": 0.2160491666666644,
          "durationTicks": 280,
          "midi": 68,
          "name": "G#4",
          "ticks": 349440,
          "time": 269.62936,
          "velocity": 0.2204724409448819
        },
        {
          "duration": 0.2160491666666644,
          "durationTicks": 280,
          "midi": 73,
          "name": "C#5",
          "ticks": 349440,
          "time": 269.62936,
          "velocity": 0.4566929133858268
        },
        {
          "duration": 0.2160491666666644,
          "durationTicks": 280,
          "midi": 76,
          "name": "E5",
          "ticks": 349440,
          "time": 269.62936,
          "velocity": 0.33858267716535434
        },
        {
          "duration": 0.2777774999999565,
          "durationTicks": 360,
          "midi": 71,
          "name": "B4",
          "ticks": 349560,
          "time": 269.72195250000004,
          "velocity": 0.49606299212598426
        },
        {
          "duration": 0.15432083333331548,
          "durationTicks": 200,
          "midi": 45,
          "name": "A2",
          "ticks": 349920,
          "time": 269.99973,
          "velocity": 0.3228346456692913
        },
        {
          "duration": 0.15432083333331548,
          "durationTicks": 200,
          "midi": 64,
          "name": "E4",
          "ticks": 349920,
          "time": 269.99973,
          "velocity": 0.25196850393700787
        },
        {
          "duration": 0.18518499999998994,
          "durationTicks": 240,
          "midi": 33,
          "name": "A1",
          "ticks": 350160,
          "time": 270.18491500000005,
          "velocity": 0.29133858267716534
        },
        {
          "duration": 0.18518499999998994,
          "durationTicks": 240,
          "midi": 45,
          "name": "A2",
          "ticks": 350160,
          "time": 270.18491500000005,
          "velocity": 0.30708661417322836
        },
        {
          "duration": 0.15432083333331548,
          "durationTicks": 200,
          "midi": 64,
          "name": "E4",
          "ticks": 350160,
          "time": 270.18491500000005,
          "velocity": 0.5039370078740157
        },
        {
          "duration": 0.15432083333331548,
          "durationTicks": 200,
          "midi": 76,
          "name": "E5",
          "ticks": 350160,
          "time": 270.18491500000005,
          "velocity": 0.5039370078740157
        },
        {
          "duration": 0.18518499999998994,
          "durationTicks": 240,
          "midi": 33,
          "name": "A1",
          "ticks": 350400,
          "time": 270.37010000000004,
          "velocity": 0.3228346456692913
        },
        {
          "duration": 0.18518499999998994,
          "durationTicks": 240,
          "midi": 45,
          "name": "A2",
          "ticks": 350400,
          "time": 270.37010000000004,
          "velocity": 0.3228346456692913
        },
        {
          "duration": 0.18518499999998994,
          "durationTicks": 240,
          "midi": 49,
          "name": "C#3",
          "ticks": 350400,
          "time": 270.37010000000004,
          "velocity": 0.25984251968503935
        },
        {
          "duration": 0.18518499999998994,
          "durationTicks": 240,
          "midi": 61,
          "name": "C#4",
          "ticks": 350400,
          "time": 270.37010000000004,
          "velocity": 0.23622047244094488
        },
        {
          "duration": 0.18518499999998994,
          "durationTicks": 240,
          "midi": 64,
          "name": "E4",
          "ticks": 350400,
          "time": 270.37010000000004,
          "velocity": 0.4251968503937008
        },
        {
          "duration": 0.3703699999999799,
          "durationTicks": 480,
          "midi": 56,
          "name": "G#3",
          "ticks": 350640,
          "time": 270.555285,
          "velocity": 0.25984251968503935
        },
        {
          "duration": 0.18518499999998994,
          "durationTicks": 240,
          "midi": 33,
          "name": "A1",
          "ticks": 351120,
          "time": 270.925655,
          "velocity": 0.3228346456692913
        },
        {
          "duration": 0.18518499999998994,
          "durationTicks": 240,
          "midi": 47,
          "name": "B2",
          "ticks": 351120,
          "time": 270.925655,
          "velocity": 0.36220472440944884
        },
        {
          "duration": 0.18518499999998994,
          "durationTicks": 240,
          "midi": 56,
          "name": "G#3",
          "ticks": 351120,
          "time": 270.925655,
          "velocity": 0.28346456692913385
        },
        {
          "duration": 0.18518499999998994,
          "durationTicks": 240,
          "midi": 62,
          "name": "D4",
          "ticks": 351120,
          "time": 270.925655,
          "velocity": 0.49606299212598426
        },
        {
          "duration": 0.18518499999998994,
          "durationTicks": 240,
          "midi": 64,
          "name": "E4",
          "ticks": 351120,
          "time": 270.925655,
          "velocity": 0.2283464566929134
        },
        {
          "duration": 0.18518500000004678,
          "durationTicks": 240,
          "midi": 32,
          "name": "G#1",
          "ticks": 351360,
          "time": 271.11084,
          "velocity": 0.4015748031496063
        },
        {
          "duration": 0.18518500000004678,
          "durationTicks": 240,
          "midi": 44,
          "name": "G#2",
          "ticks": 351360,
          "time": 271.11084,
          "velocity": 0.4015748031496063
        },
        {
          "duration": 0.18518500000004678,
          "durationTicks": 240,
          "midi": 54,
          "name": "F#3",
          "ticks": 351360,
          "time": 271.11084,
          "velocity": 0.2440944881889764
        },
        {
          "duration": 0.18518500000004678,
          "durationTicks": 240,
          "midi": 59,
          "name": "B3",
          "ticks": 351360,
          "time": 271.11084,
          "velocity": 0.2047244094488189
        },
        {
          "duration": 0.18518500000004678,
          "durationTicks": 240,
          "midi": 64,
          "name": "E4",
          "ticks": 351360,
          "time": 271.11084,
          "velocity": 0.36220472440944884
        },
        {
          "duration": 0.18518499999998994,
          "durationTicks": 240,
          "midi": 47,
          "name": "B2",
          "ticks": 351600,
          "time": 271.29602500000004,
          "velocity": 0.33070866141732286
        },
        {
          "duration": 0.18518499999998994,
          "durationTicks": 240,
          "midi": 59,
          "name": "B3",
          "ticks": 351600,
          "time": 271.29602500000004,
          "velocity": 0.25984251968503935
        },
        {
          "duration": 0.18518499999998994,
          "durationTicks": 240,
          "midi": 64,
          "name": "E4",
          "ticks": 351600,
          "time": 271.29602500000004,
          "velocity": 0.30708661417322836
        },
        {
          "duration": 0.18518499999998994,
          "durationTicks": 240,
          "midi": 76,
          "name": "E5",
          "ticks": 351600,
          "time": 271.29602500000004,
          "velocity": 0.2440944881889764
        },
        {
          "duration": 0.18518499999998994,
          "durationTicks": 240,
          "midi": 64,
          "name": "E4",
          "ticks": 351840,
          "time": 271.48121000000003,
          "velocity": 0.4015748031496063
        },
        {
          "duration": 0.18518499999998994,
          "durationTicks": 240,
          "midi": 71,
          "name": "B4",
          "ticks": 351840,
          "time": 271.48121000000003,
          "velocity": 0.44881889763779526
        },
        {
          "duration": 0.18518499999998994,
          "durationTicks": 240,
          "midi": 64,
          "name": "E4",
          "ticks": 352080,
          "time": 271.666395,
          "velocity": 0.3228346456692913
        },
        {
          "duration": 0.18518499999998994,
          "durationTicks": 240,
          "midi": 32,
          "name": "G#1",
          "ticks": 352320,
          "time": 271.85158,
          "velocity": 0.41732283464566927
        },
        {
          "duration": 0.18518499999998994,
          "durationTicks": 240,
          "midi": 54,
          "name": "F#3",
          "ticks": 352320,
          "time": 271.85158,
          "velocity": 0.2283464566929134
        },
        {
          "duration": 0.18518499999998994,
          "durationTicks": 240,
          "midi": 59,
          "name": "B3",
          "ticks": 352320,
          "time": 271.85158,
          "velocity": 0.36220472440944884
        },
        {
          "duration": 0.18518499999998994,
          "durationTicks": 240,
          "midi": 64,
          "name": "E4",
          "ticks": 352320,
          "time": 271.85158,
          "velocity": 0.2283464566929134
        },
        {
          "duration": 0.18518499999998994,
          "durationTicks": 240,
          "midi": 68,
          "name": "G#4",
          "ticks": 352320,
          "time": 271.85158,
          "velocity": 0.2047244094488189
        },
        {
          "duration": 0.18518500000004678,
          "durationTicks": 240,
          "midi": 68,
          "name": "G#4",
          "ticks": 352560,
          "time": 272.036765,
          "velocity": 0.23622047244094488
        },
        {
          "duration": 0.18518499999998994,
          "durationTicks": 240,
          "midi": 40,
          "name": "E2",
          "ticks": 352800,
          "time": 272.22195000000005,
          "velocity": 0.33858267716535434
        },
        {
          "duration": 0.18518499999998994,
          "durationTicks": 240,
          "midi": 59,
          "name": "B3",
          "ticks": 352800,
          "time": 272.22195000000005,
          "velocity": 0.31496062992125984
        },
        {
          "duration": 0.18518499999998994,
          "durationTicks": 240,
          "midi": 61,
          "name": "C#4",
          "ticks": 352800,
          "time": 272.22195000000005,
          "velocity": 0.3543307086614173
        },
        {
          "duration": 0.18518499999998994,
          "durationTicks": 240,
          "midi": 73,
          "name": "C#5",
          "ticks": 352800,
          "time": 272.22195000000005,
          "velocity": 0.3543307086614173
        },
        {
          "duration": 0.18518499999998994,
          "durationTicks": 240,
          "midi": 39,
          "name": "D#2",
          "ticks": 353040,
          "time": 272.40713500000004,
          "velocity": 0.3228346456692913
        },
        {
          "duration": 0.3395058333333054,
          "durationTicks": 440,
          "midi": 38,
          "name": "D2",
          "ticks": 353280,
          "time": 272.59232000000003,
          "velocity": 0.3543307086614173
        },
        {
          "duration": 0.3395058333333054,
          "durationTicks": 440,
          "midi": 54,
          "name": "F#3",
          "ticks": 353280,
          "time": 272.59232000000003,
          "velocity": 0.23622047244094488
        },
        {
          "duration": 0.3395058333333054,
          "durationTicks": 440,
          "midi": 59,
          "name": "B3",
          "ticks": 353280,
          "time": 272.59232000000003,
          "velocity": 0.3858267716535433
        },
        {
          "duration": 0.40123416666665435,
          "durationTicks": 520,
          "midi": 64,
          "name": "E4",
          "ticks": 353280,
          "time": 272.59232000000003,
          "velocity": 0.2440944881889764
        },
        {
          "duration": 0.3395058333333054,
          "durationTicks": 440,
          "midi": 68,
          "name": "G#4",
          "ticks": 353280,
          "time": 272.59232000000003,
          "velocity": 0.2283464566929134
        },
        {
          "duration": 0.3395058333333054,
          "durationTicks": 440,
          "midi": 71,
          "name": "B4",
          "ticks": 353280,
          "time": 272.59232000000003,
          "velocity": 0.3858267716535433
        },
        {
          "duration": 0.15432083333331548,
          "durationTicks": 200,
          "midi": 56,
          "name": "G#3",
          "ticks": 353760,
          "time": 272.96269,
          "velocity": 0.3858267716535433
        },
        {
          "duration": 0.15432083333331548,
          "durationTicks": 200,
          "midi": 68,
          "name": "G#4",
          "ticks": 353760,
          "time": 272.96269,
          "velocity": 0.3858267716535433
        },
        {
          "duration": 0.18518500000004678,
          "durationTicks": 240,
          "midi": 38,
          "name": "D2",
          "ticks": 354000,
          "time": 273.147875,
          "velocity": 0.33070866141732286
        },
        {
          "duration": 0.18518500000004678,
          "durationTicks": 240,
          "midi": 52,
          "name": "E3",
          "ticks": 354000,
          "time": 273.147875,
          "velocity": 0.3228346456692913
        },
        {
          "duration": 0.18518500000004678,
          "durationTicks": 240,
          "midi": 64,
          "name": "E4",
          "ticks": 354000,
          "time": 273.147875,
          "velocity": 0.3228346456692913
        },
        {
          "duration": 0.18518500000004678,
          "durationTicks": 240,
          "midi": 68,
          "name": "G#4",
          "ticks": 354000,
          "time": 273.147875,
          "velocity": 0.2283464566929134
        },
        {
          "duration": 0.18518499999998994,
          "durationTicks": 240,
          "midi": 38,
          "name": "D2",
          "ticks": 354240,
          "time": 273.33306000000005,
          "velocity": 0.3779527559055118
        },
        {
          "duration": 0.18518499999998994,
          "durationTicks": 240,
          "midi": 59,
          "name": "B3",
          "ticks": 354480,
          "time": 273.51824500000004,
          "velocity": 0.2440944881889764
        },
        {
          "duration": 0.15432083333331548,
          "durationTicks": 200,
          "midi": 66,
          "name": "F#4",
          "ticks": 354480,
          "time": 273.51824500000004,
          "velocity": 0.30708661417322836
        },
        {
          "duration": 0.18518499999998994,
          "durationTicks": 240,
          "midi": 40,
          "name": "E2",
          "ticks": 354720,
          "time": 273.70343,
          "velocity": 0.4094488188976378
        },
        {
          "duration": 0.18518499999998994,
          "durationTicks": 240,
          "midi": 52,
          "name": "E3",
          "ticks": 354720,
          "time": 273.70343,
          "velocity": 0.4094488188976378
        },
        {
          "duration": 0.18518499999998994,
          "durationTicks": 240,
          "midi": 56,
          "name": "G#3",
          "ticks": 354720,
          "time": 273.70343,
          "velocity": 0.2204724409448819
        },
        {
          "duration": 0.15432083333331548,
          "durationTicks": 200,
          "midi": 64,
          "name": "E4",
          "ticks": 354720,
          "time": 273.70343,
          "velocity": 0.3464566929133858
        },
        {
          "duration": 0.15432083333331548,
          "durationTicks": 200,
          "midi": 38,
          "name": "D2",
          "ticks": 354960,
          "time": 273.888615,
          "velocity": 0.33858267716535434
        },
        {
          "duration": 0.15432083333331548,
          "durationTicks": 200,
          "midi": 51,
          "name": "D#3",
          "ticks": 354960,
          "time": 273.888615,
          "velocity": 0.2440944881889764
        },
        {
          "duration": 0.18518500000004678,
          "durationTicks": 240,
          "midi": 37,
          "name": "C#2",
          "ticks": 355200,
          "time": 274.0738,
          "velocity": 0.3228346456692913
        },
        {
          "duration": 0.18518500000004678,
          "durationTicks": 240,
          "midi": 59,
          "name": "B3",
          "ticks": 355200,
          "time": 274.0738,
          "velocity": 0.2440944881889764
        },
        {
          "duration": 0.18518500000004678,
          "durationTicks": 240,
          "midi": 63,
          "name": "D#4",
          "ticks": 355200,
          "time": 274.0738,
          "velocity": 0.36220472440944884
        },
        {
          "duration": 0.18518500000004678,
          "durationTicks": 240,
          "midi": 66,
          "name": "F#4",
          "ticks": 355200,
          "time": 274.0738,
          "velocity": 0.2992125984251969
        },
        {
          "duration": 0.18518500000004678,
          "durationTicks": 240,
          "midi": 78,
          "name": "F#5",
          "ticks": 355200,
          "time": 274.0738,
          "velocity": 0.2440944881889764
        },
        {
          "duration": 0.18518499999998994,
          "durationTicks": 240,
          "midi": 59,
          "name": "B3",
          "ticks": 355440,
          "time": 274.25898500000005,
          "velocity": 0.2677165354330709
        },
        {
          "duration": 0.18518499999998994,
          "durationTicks": 240,
          "midi": 66,
          "name": "F#4",
          "ticks": 355440,
          "time": 274.25898500000005,
          "velocity": 0.2992125984251969
        },
        {
          "duration": 0.18518499999998994,
          "durationTicks": 240,
          "midi": 61,
          "name": "C#4",
          "ticks": 355680,
          "time": 274.44417000000004,
          "velocity": 0.2047244094488189
        },
        {
          "duration": 0.18518499999998994,
          "durationTicks": 240,
          "midi": 63,
          "name": "D#4",
          "ticks": 355680,
          "time": 274.44417000000004,
          "velocity": 0.28346456692913385
        },
        {
          "duration": 0.18518499999998994,
          "durationTicks": 240,
          "midi": 37,
          "name": "C#2",
          "ticks": 355920,
          "time": 274.62935500000003,
          "velocity": 0.33858267716535434
        },
        {
          "duration": 0.18518499999998994,
          "durationTicks": 240,
          "midi": 66,
          "name": "F#4",
          "ticks": 355920,
          "time": 274.62935500000003,
          "velocity": 0.2992125984251969
        },
        {
          "duration": 0.2160491666666644,
          "durationTicks": 280,
          "midi": 35,
          "name": "B1",
          "ticks": 356160,
          "time": 274.81454,
          "velocity": 0.3464566929133858
        },
        {
          "duration": 0.15432083333331548,
          "durationTicks": 200,
          "midi": 49,
          "name": "C#3",
          "ticks": 356160,
          "time": 274.81454,
          "velocity": 0.3228346456692913
        },
        {
          "duration": 0.15432083333331548,
          "durationTicks": 200,
          "midi": 53,
          "name": "F3",
          "ticks": 356160,
          "time": 274.81454,
          "velocity": 0.2992125984251969
        },
        {
          "duration": 0.15432083333331548,
          "durationTicks": 200,
          "midi": 59,
          "name": "B3",
          "ticks": 356160,
          "time": 274.81454,
          "velocity": 0.2440944881889764
        },
        {
          "duration": 0.15432083333331548,
          "durationTicks": 200,
          "midi": 61,
          "name": "C#4",
          "ticks": 356160,
          "time": 274.81454,
          "velocity": 0.30708661417322836
        },
        {
          "duration": 0.15432083333331548,
          "durationTicks": 200,
          "midi": 65,
          "name": "F4",
          "ticks": 356160,
          "time": 274.81454,
          "velocity": 0.33070866141732286
        },
        {
          "duration": 0.18518499999998994,
          "durationTicks": 240,
          "midi": 61,
          "name": "C#4",
          "ticks": 356400,
          "time": 274.999725,
          "velocity": 0.30708661417322836
        },
        {
          "duration": 0.18518499999998994,
          "durationTicks": 240,
          "midi": 73,
          "name": "C#5",
          "ticks": 356400,
          "time": 274.999725,
          "velocity": 0.28346456692913385
        },
        {
          "duration": 0.18518500000004678,
          "durationTicks": 240,
          "midi": 40,
          "name": "E2",
          "ticks": 356640,
          "time": 275.18491,
          "velocity": 0.28346456692913385
        },
        {
          "duration": 0.18518500000004678,
          "durationTicks": 240,
          "midi": 53,
          "name": "F3",
          "ticks": 356640,
          "time": 275.18491,
          "velocity": 0.23622047244094488
        },
        {
          "duration": 0.18518500000004678,
          "durationTicks": 240,
          "midi": 59,
          "name": "B3",
          "ticks": 356640,
          "time": 275.18491,
          "velocity": 0.2755905511811024
        },
        {
          "duration": 0.18518500000004678,
          "durationTicks": 240,
          "midi": 61,
          "name": "C#4",
          "ticks": 356640,
          "time": 275.18491,
          "velocity": 0.3464566929133858
        },
        {
          "duration": 0.18518500000004678,
          "durationTicks": 240,
          "midi": 64,
          "name": "E4",
          "ticks": 356640,
          "time": 275.18491,
          "velocity": 0.2992125984251969
        },
        {
          "duration": 0.18518500000004678,
          "durationTicks": 240,
          "midi": 68,
          "name": "G#4",
          "ticks": 356640,
          "time": 275.18491,
          "velocity": 0.33858267716535434
        },
        {
          "duration": 0.18518500000004678,
          "durationTicks": 240,
          "midi": 71,
          "name": "B4",
          "ticks": 356640,
          "time": 275.18491,
          "velocity": 0.5354330708661418
        },
        {
          "duration": 0.15432083333331548,
          "durationTicks": 200,
          "midi": 41,
          "name": "F2",
          "ticks": 356880,
          "time": 275.37009500000005,
          "velocity": 0.2992125984251969
        },
        {
          "duration": 0.2160491666666644,
          "durationTicks": 280,
          "midi": 42,
          "name": "F#2",
          "ticks": 356880,
          "time": 275.37009500000005,
          "velocity": 0.3228346456692913
        },
        {
          "duration": 0.15432083333331548,
          "durationTicks": 200,
          "midi": 53,
          "name": "F3",
          "ticks": 356880,
          "time": 275.37009500000005,
          "velocity": 0.2440944881889764
        },
        {
          "duration": 0.3703699999999799,
          "durationTicks": 480,
          "midi": 42,
          "name": "F#2",
          "ticks": 357120,
          "time": 275.55528000000004,
          "velocity": 0.33858267716535434
        },
        {
          "duration": 0.3703699999999799,
          "durationTicks": 480,
          "midi": 49,
          "name": "C#3",
          "ticks": 357120,
          "time": 275.55528000000004,
          "velocity": 0.2992125984251969
        },
        {
          "duration": 0.3703699999999799,
          "durationTicks": 480,
          "midi": 52,
          "name": "E3",
          "ticks": 357120,
          "time": 275.55528000000004,
          "velocity": 0.28346456692913385
        },
        {
          "duration": 0.3703699999999799,
          "durationTicks": 480,
          "midi": 57,
          "name": "A3",
          "ticks": 357120,
          "time": 275.55528000000004,
          "velocity": 0.25984251968503935
        },
        {
          "duration": 0.3703699999999799,
          "durationTicks": 480,
          "midi": 61,
          "name": "C#4",
          "ticks": 357120,
          "time": 275.55528000000004,
          "velocity": 0.31496062992125984
        },
        {
          "duration": 0.3703699999999799,
          "durationTicks": 480,
          "midi": 64,
          "name": "E4",
          "ticks": 357120,
          "time": 275.55528000000004,
          "velocity": 0.33858267716535434
        },
        {
          "duration": 0.3703699999999799,
          "durationTicks": 480,
          "midi": 73,
          "name": "C#5",
          "ticks": 357120,
          "time": 275.55528000000004,
          "velocity": 0.31496062992125984
        },
        {
          "duration": 0.3703699999999799,
          "durationTicks": 480,
          "midi": 76,
          "name": "E5",
          "ticks": 357120,
          "time": 275.55528000000004,
          "velocity": 0.33858267716535434
        },
        {
          "duration": 0.3086416666666878,
          "durationTicks": 400,
          "midi": 71,
          "name": "B4",
          "ticks": 357240,
          "time": 275.6478725,
          "velocity": 0.5275590551181102
        },
        {
          "duration": 0.18518499999998994,
          "durationTicks": 240,
          "midi": 49,
          "name": "C#3",
          "ticks": 357600,
          "time": 275.92565,
          "velocity": 0.3464566929133858
        },
        {
          "duration": 0.18518499999998994,
          "durationTicks": 240,
          "midi": 57,
          "name": "A3",
          "ticks": 357600,
          "time": 275.92565,
          "velocity": 0.36220472440944884
        },
        {
          "duration": 0.15432083333331548,
          "durationTicks": 200,
          "midi": 42,
          "name": "F#2",
          "ticks": 357840,
          "time": 276.110835,
          "velocity": 0.28346456692913385
        },
        {
          "duration": 0.15432083333331548,
          "durationTicks": 200,
          "midi": 57,
          "name": "A3",
          "ticks": 357840,
          "time": 276.110835,
          "velocity": 0.2283464566929134
        },
        {
          "duration": 0.21604916666672125,
          "durationTicks": 280,
          "midi": 64,
          "name": "E4",
          "ticks": 357840,
          "time": 276.110835,
          "velocity": 0.6141732283464567
        },
        {
          "duration": 0.15432083333331548,
          "durationTicks": 200,
          "midi": 76,
          "name": "E5",
          "ticks": 357840,
          "time": 276.110835,
          "velocity": 0.7165354330708661
        },
        {
          "duration": 0.18518500000004678,
          "durationTicks": 240,
          "midi": 42,
          "name": "F#2",
          "ticks": 358080,
          "time": 276.29602,
          "velocity": 0.2992125984251969
        },
        {
          "duration": 0.18518500000004678,
          "durationTicks": 240,
          "midi": 57,
          "name": "A3",
          "ticks": 358080,
          "time": 276.29602,
          "velocity": 0.2283464566929134
        },
        {
          "duration": 0.18518500000004678,
          "durationTicks": 240,
          "midi": 69,
          "name": "A4",
          "ticks": 358080,
          "time": 276.29602,
          "velocity": 0.2283464566929134
        },
        {
          "duration": 0.18518499999998994,
          "durationTicks": 240,
          "midi": 33,
          "name": "A1",
          "ticks": 358320,
          "time": 276.48120500000005,
          "velocity": 0.31496062992125984
        },
        {
          "duration": 0.18518499999998994,
          "durationTicks": 240,
          "midi": 57,
          "name": "A3",
          "ticks": 358320,
          "time": 276.48120500000005,
          "velocity": 0.25196850393700787
        },
        {
          "duration": 0.18518499999998994,
          "durationTicks": 240,
          "midi": 61,
          "name": "C#4",
          "ticks": 358320,
          "time": 276.48120500000005,
          "velocity": 0.3464566929133858
        },
        {
          "duration": 0.18518499999998994,
          "durationTicks": 240,
          "midi": 64,
          "name": "E4",
          "ticks": 358320,
          "time": 276.48120500000005,
          "velocity": 0.2125984251968504
        },
        {
          "duration": 0.18518499999998994,
          "durationTicks": 240,
          "midi": 69,
          "name": "A4",
          "ticks": 358320,
          "time": 276.48120500000005,
          "velocity": 0.25196850393700787
        },
        {
          "duration": 0.18518499999998994,
          "durationTicks": 240,
          "midi": 37,
          "name": "C#2",
          "ticks": 358560,
          "time": 276.66639000000004,
          "velocity": 0.33858267716535434
        },
        {
          "duration": 0.18518499999998994,
          "durationTicks": 240,
          "midi": 49,
          "name": "C#3",
          "ticks": 358560,
          "time": 276.66639000000004,
          "velocity": 0.3464566929133858
        },
        {
          "duration": 0.18518499999998994,
          "durationTicks": 240,
          "midi": 57,
          "name": "A3",
          "ticks": 358560,
          "time": 276.66639000000004,
          "velocity": 0.25984251968503935
        },
        {
          "duration": 0.18518499999998994,
          "durationTicks": 240,
          "midi": 61,
          "name": "C#4",
          "ticks": 358560,
          "time": 276.66639000000004,
          "velocity": 0.3464566929133858
        },
        {
          "duration": 0.18518499999998994,
          "durationTicks": 240,
          "midi": 69,
          "name": "A4",
          "ticks": 358560,
          "time": 276.66639000000004,
          "velocity": 0.2440944881889764
        },
        {
          "duration": 0.18518499999998994,
          "durationTicks": 240,
          "midi": 36,
          "name": "C2",
          "ticks": 358800,
          "time": 276.851575,
          "velocity": 0.33858267716535434
        },
        {
          "duration": 0.18518499999998994,
          "durationTicks": 240,
          "midi": 64,
          "name": "E4",
          "ticks": 358800,
          "time": 276.851575,
          "velocity": 0.4330708661417323
        },
        {
          "duration": 0.3703700000000367,
          "durationTicks": 480,
          "midi": 35,
          "name": "B1",
          "ticks": 359040,
          "time": 277.03676,
          "velocity": 0.4409448818897638
        },
        {
          "duration": 0.3703700000000367,
          "durationTicks": 480,
          "midi": 52,
          "name": "E3",
          "ticks": 359040,
          "time": 277.03676,
          "velocity": 0.4881889763779528
        },
        {
          "duration": 0.3703700000000367,
          "durationTicks": 480,
          "midi": 64,
          "name": "E4",
          "ticks": 359040,
          "time": 277.03676,
          "velocity": 0.4881889763779528
        },
        {
          "duration": 0.3703700000000367,
          "durationTicks": 480,
          "midi": 69,
          "name": "A4",
          "ticks": 359040,
          "time": 277.03676,
          "velocity": 0.2440944881889764
        },
        {
          "duration": 0.3703700000000367,
          "durationTicks": 480,
          "midi": 71,
          "name": "B4",
          "ticks": 359040,
          "time": 277.03676,
          "velocity": 0.36220472440944884
        },
        {
          "duration": 0.3703700000000367,
          "durationTicks": 480,
          "midi": 73,
          "name": "C#5",
          "ticks": 359040,
          "time": 277.03676,
          "velocity": 0.28346456692913385
        },
        {
          "duration": 0.09259250000002339,
          "durationTicks": 120,
          "midi": 69,
          "name": "A4",
          "ticks": 359640,
          "time": 277.4997225,
          "velocity": 0.31496062992125984
        },
        {
          "duration": 0.15432083333331548,
          "durationTicks": 200,
          "midi": 73,
          "name": "C#5",
          "ticks": 359760,
          "time": 277.59231500000004,
          "velocity": 0.2047244094488189
        },
        {
          "duration": 0.18518499999998994,
          "durationTicks": 240,
          "midi": 52,
          "name": "E3",
          "ticks": 360000,
          "time": 277.77750000000003,
          "velocity": 0.3228346456692913
        },
        {
          "duration": 0.15432083333331548,
          "durationTicks": 200,
          "midi": 64,
          "name": "E4",
          "ticks": 360000,
          "time": 277.77750000000003,
          "velocity": 0.3228346456692913
        },
        {
          "duration": 0.2160491666666644,
          "durationTicks": 280,
          "midi": 36,
          "name": "C2",
          "ticks": 360240,
          "time": 277.962685,
          "velocity": 0.2992125984251969
        },
        {
          "duration": 0.18518499999998994,
          "durationTicks": 240,
          "midi": 54,
          "name": "F#3",
          "ticks": 360240,
          "time": 277.962685,
          "velocity": 0.47244094488188976
        },
        {
          "duration": 0.21604916666672125,
          "durationTicks": 280,
          "midi": 52,
          "name": "E3",
          "ticks": 360480,
          "time": 278.14787,
          "velocity": 0.2677165354330709
        },
        {
          "duration": 0.21604916666672125,
          "durationTicks": 280,
          "midi": 64,
          "name": "E4",
          "ticks": 360480,
          "time": 278.14787,
          "velocity": 0.48031496062992124
        },
        {
          "duration": 0.09259249999996655,
          "durationTicks": 120,
          "midi": 54,
          "name": "F#3",
          "ticks": 360600,
          "time": 278.24046250000004,
          "velocity": 0.1968503937007874
        },
        {
          "duration": 0.12345666666669786,
          "durationTicks": 160,
          "midi": 45,
          "name": "A2",
          "ticks": 360840,
          "time": 278.4256475,
          "velocity": 0.25984251968503935
        },
        {
          "duration": 0.12345666666669786,
          "durationTicks": 160,
          "midi": 52,
          "name": "E3",
          "ticks": 360840,
          "time": 278.4256475,
          "velocity": 0.33858267716535434
        },
        {
          "duration": 0.12345666666669786,
          "durationTicks": 160,
          "midi": 56,
          "name": "G#3",
          "ticks": 360840,
          "time": 278.4256475,
          "velocity": 0.2440944881889764
        },
        {
          "duration": 0.12345666666669786,
          "durationTicks": 160,
          "midi": 64,
          "name": "E4",
          "ticks": 360840,
          "time": 278.4256475,
          "velocity": 0.5826771653543307
        },
        {
          "duration": 0.18518499999998994,
          "durationTicks": 240,
          "midi": 47,
          "name": "B2",
          "ticks": 360960,
          "time": 278.51824000000005,
          "velocity": 0.33858267716535434
        },
        {
          "duration": 0.18518499999998994,
          "durationTicks": 240,
          "midi": 59,
          "name": "B3",
          "ticks": 360960,
          "time": 278.51824000000005,
          "velocity": 0.2992125984251969
        },
        {
          "duration": 0.18518499999998994,
          "durationTicks": 240,
          "midi": 64,
          "name": "E4",
          "ticks": 361200,
          "time": 278.70342500000004,
          "velocity": 0.4881889763779528
        },
        {
          "duration": 0.18518499999998994,
          "durationTicks": 240,
          "midi": 56,
          "name": "G#3",
          "ticks": 361440,
          "time": 278.88861,
          "velocity": 0.33070866141732286
        },
        {
          "duration": 0.18518499999998994,
          "durationTicks": 240,
          "midi": 64,
          "name": "E4",
          "ticks": 361440,
          "time": 278.88861,
          "velocity": 0.4566929133858268
        },
        {
          "duration": 0.3395058333333054,
          "durationTicks": 440,
          "midi": 59,
          "name": "B3",
          "ticks": 361680,
          "time": 279.073795,
          "velocity": 0.25196850393700787
        },
        {
          "duration": 0.3395058333333054,
          "durationTicks": 440,
          "midi": 64,
          "name": "E4",
          "ticks": 361680,
          "time": 279.073795,
          "velocity": 0.5984251968503937
        },
        {
          "duration": 0.3395058333333054,
          "durationTicks": 440,
          "midi": 68,
          "name": "G#4",
          "ticks": 361680,
          "time": 279.073795,
          "velocity": 0.2440944881889764
        },
        {
          "duration": 0.18518500000004678,
          "durationTicks": 240,
          "midi": 59,
          "name": "B3",
          "ticks": 362160,
          "time": 279.444165,
          "velocity": 0.2992125984251969
        },
        {
          "duration": 0.18518500000004678,
          "durationTicks": 240,
          "midi": 64,
          "name": "E4",
          "ticks": 362160,
          "time": 279.444165,
          "velocity": 0.5039370078740157
        },
        {
          "duration": 0.18518500000004678,
          "durationTicks": 240,
          "midi": 68,
          "name": "G#4",
          "ticks": 362160,
          "time": 279.444165,
          "velocity": 0.2047244094488189
        },
        {
          "duration": 0.3395058333333054,
          "durationTicks": 440,
          "midi": 56,
          "name": "G#3",
          "ticks": 362400,
          "time": 279.62935000000004,
          "velocity": 0.36220472440944884
        },
        {
          "duration": 0.3395058333333054,
          "durationTicks": 440,
          "midi": 64,
          "name": "E4",
          "ticks": 362400,
          "time": 279.62935000000004,
          "velocity": 0.48031496062992124
        },
        {
          "duration": 0.40123416666665435,
          "durationTicks": 520,
          "midi": 59,
          "name": "B3",
          "ticks": 362880,
          "time": 279.99972,
          "velocity": 0.28346456692913385
        },
        {
          "duration": 0.40123416666665435,
          "durationTicks": 520,
          "midi": 64,
          "name": "E4",
          "ticks": 362880,
          "time": 279.99972,
          "velocity": 0.4566929133858268
        },
        {
          "duration": 0.18518500000004678,
          "durationTicks": 240,
          "midi": 56,
          "name": "G#3",
          "ticks": 363360,
          "time": 280.37009,
          "velocity": 0.33858267716535434
        },
        {
          "duration": 0.3703699999999799,
          "durationTicks": 480,
          "midi": 56,
          "name": "G#3",
          "ticks": 363600,
          "time": 280.55527500000005,
          "velocity": 0.3464566929133858
        },
        {
          "duration": 0.3703699999999799,
          "durationTicks": 480,
          "midi": 59,
          "name": "B3",
          "ticks": 363600,
          "time": 280.55527500000005,
          "velocity": 0.3464566929133858
        },
        {
          "duration": 0.18518499999998994,
          "durationTicks": 240,
          "midi": 64,
          "name": "E4",
          "ticks": 364080,
          "time": 280.92564500000003,
          "velocity": 0.3464566929133858
        },
        {
          "duration": 0.27777750000001333,
          "durationTicks": 360,
          "midi": 68,
          "name": "G#4",
          "ticks": 364200,
          "time": 281.0182375,
          "velocity": 0.1889763779527559
        },
        {
          "duration": 0.18518499999998994,
          "durationTicks": 240,
          "midi": 40,
          "name": "E2",
          "ticks": 364320,
          "time": 281.11083,
          "velocity": 0.4566929133858268
        },
        {
          "duration": 0.18518499999998994,
          "durationTicks": 240,
          "midi": 47,
          "name": "B2",
          "ticks": 364560,
          "time": 281.296015,
          "velocity": 0.4566929133858268
        },
        {
          "duration": 0.3703700000000367,
          "durationTicks": 480,
          "midi": 45,
          "name": "A2",
          "ticks": 364800,
          "time": 281.4812,
          "velocity": 0.49606299212598426
        },
        {
          "duration": 0.3703700000000367,
          "durationTicks": 480,
          "midi": 54,
          "name": "F#3",
          "ticks": 364800,
          "time": 281.4812,
          "velocity": 0.1968503937007874
        },
        {
          "duration": 0.3703700000000367,
          "durationTicks": 480,
          "midi": 59,
          "name": "B3",
          "ticks": 364800,
          "time": 281.4812,
          "velocity": 0.25984251968503935
        },
        {
          "duration": 0.3703700000000367,
          "durationTicks": 480,
          "midi": 63,
          "name": "D#4",
          "ticks": 364800,
          "time": 281.4812,
          "velocity": 0.2677165354330709
        },
        {
          "duration": 0.15432083333331548,
          "durationTicks": 200,
          "midi": 54,
          "name": "F#3",
          "ticks": 365280,
          "time": 281.85157000000004,
          "velocity": 0.2283464566929134
        },
        {
          "duration": 0.3703699999999799,
          "durationTicks": 480,
          "midi": 59,
          "name": "B3",
          "ticks": 365520,
          "time": 282.036755,
          "velocity": 0.28346456692913385
        },
        {
          "duration": 0.18518499999998994,
          "durationTicks": 240,
          "midi": 63,
          "name": "D#4",
          "ticks": 366000,
          "time": 282.407125,
          "velocity": 0.1889763779527559
        },
        {
          "duration": 0.33950583333336226,
          "durationTicks": 440,
          "midi": 54,
          "name": "F#3",
          "ticks": 366240,
          "time": 282.59231,
          "velocity": 0.2440944881889764
        },
        {
          "duration": 0.3395058333333054,
          "durationTicks": 440,
          "midi": 45,
          "name": "A2",
          "ticks": 366720,
          "time": 282.96268000000003,
          "velocity": 0.2992125984251969
        },
        {
          "duration": 0.3395058333333054,
          "durationTicks": 440,
          "midi": 57,
          "name": "A3",
          "ticks": 366720,
          "time": 282.96268000000003,
          "velocity": 0.2992125984251969
        },
        {
          "duration": 0.3395058333333054,
          "durationTicks": 440,
          "midi": 61,
          "name": "C#4",
          "ticks": 366720,
          "time": 282.96268000000003,
          "velocity": 0.2047244094488189
        },
        {
          "duration": 0.18518499999998994,
          "durationTicks": 240,
          "midi": 52,
          "name": "E3",
          "ticks": 367200,
          "time": 283.33305,
          "velocity": 0.25984251968503935
        },
        {
          "duration": 0.18518499999998994,
          "durationTicks": 240,
          "midi": 69,
          "name": "A4",
          "ticks": 367200,
          "time": 283.33305,
          "velocity": 0.2204724409448819
        },
        {
          "duration": 0.15432083333331548,
          "durationTicks": 200,
          "midi": 59,
          "name": "B3",
          "ticks": 367440,
          "time": 283.518235,
          "velocity": 0.2204724409448819
        },
        {
          "duration": 0.15432083333331548,
          "durationTicks": 200,
          "midi": 71,
          "name": "B4",
          "ticks": 367440,
          "time": 283.518235,
          "velocity": 0.1968503937007874
        },
        {
          "duration": 0.18518499999998994,
          "durationTicks": 240,
          "midi": 73,
          "name": "C#5",
          "ticks": 367680,
          "time": 283.70342000000005,
          "velocity": 0.2204724409448819
        },
        {
          "duration": 0.2160491666666644,
          "durationTicks": 280,
          "midi": 76,
          "name": "E5",
          "ticks": 367920,
          "time": 283.88860500000004,
          "velocity": 0.18110236220472442
        },
        {
          "duration": 0.18518499999998994,
          "durationTicks": 240,
          "midi": 47,
          "name": "B2",
          "ticks": 368160,
          "time": 284.07379000000003,
          "velocity": 0.4645669291338583
        },
        {
          "duration": 0.18518499999998994,
          "durationTicks": 240,
          "midi": 52,
          "name": "E3",
          "ticks": 368160,
          "time": 284.07379000000003,
          "velocity": 0.2677165354330709
        },
        {
          "duration": 0.18518499999998994,
          "durationTicks": 240,
          "midi": 81,
          "name": "A5",
          "ticks": 368160,
          "time": 284.07379000000003,
          "velocity": 0.2047244094488189
        },
        {
          "duration": 0.2160491666666644,
          "durationTicks": 280,
          "midi": 45,
          "name": "A2",
          "ticks": 368400,
          "time": 284.258975,
          "velocity": 0.36220472440944884
        },
        {
          "duration": 0.2160491666666644,
          "durationTicks": 280,
          "midi": 83,
          "name": "B5",
          "ticks": 368400,
          "time": 284.258975,
          "velocity": 0.2204724409448819
        },
        {
          "duration": 0.3703700000000367,
          "durationTicks": 480,
          "midi": 44,
          "name": "G#2",
          "ticks": 368640,
          "time": 284.44416,
          "velocity": 0.4409448818897638
        },
        {
          "duration": 0.3703700000000367,
          "durationTicks": 480,
          "midi": 53,
          "name": "F3",
          "ticks": 368640,
          "time": 284.44416,
          "velocity": 0.1889763779527559
        },
        {
          "duration": 0.3703700000000367,
          "durationTicks": 480,
          "midi": 56,
          "name": "G#3",
          "ticks": 368640,
          "time": 284.44416,
          "velocity": 0.41732283464566927
        },
        {
          "duration": 0.3703700000000367,
          "durationTicks": 480,
          "midi": 61,
          "name": "C#4",
          "ticks": 368640,
          "time": 284.44416,
          "velocity": 0.2283464566929134
        },
        {
          "duration": 0.3703700000000367,
          "durationTicks": 480,
          "midi": 65,
          "name": "F4",
          "ticks": 368640,
          "time": 284.44416,
          "velocity": 0.18110236220472442
        },
        {
          "duration": 0.3703700000000367,
          "durationTicks": 480,
          "midi": 85,
          "name": "C#6",
          "ticks": 368640,
          "time": 284.44416,
          "velocity": 0.3858267716535433
        },
        {
          "duration": 0.15432083333331548,
          "durationTicks": 200,
          "midi": 53,
          "name": "F3",
          "ticks": 369120,
          "time": 284.81453000000005,
          "velocity": 0.2677165354330709
        },
        {
          "duration": 0.15432083333331548,
          "durationTicks": 200,
          "midi": 75,
          "name": "D#5",
          "ticks": 369120,
          "time": 284.81453000000005,
          "velocity": 0.2047244094488189
        },
        {
          "duration": 0.3703699999999799,
          "durationTicks": 480,
          "midi": 61,
          "name": "C#4",
          "ticks": 369360,
          "time": 284.99971500000004,
          "velocity": 0.2125984251968504
        },
        {
          "duration": 0.40123416666665435,
          "durationTicks": 520,
          "midi": 77,
          "name": "F5",
          "ticks": 369360,
          "time": 284.99971500000004,
          "velocity": 0.23622047244094488
        },
        {
          "duration": 0.18518499999998994,
          "durationTicks": 240,
          "midi": 61,
          "name": "C#4",
          "ticks": 369840,
          "time": 285.370085,
          "velocity": 0.2283464566929134
        },
        {
          "duration": 0.18518499999998994,
          "durationTicks": 240,
          "midi": 53,
          "name": "F3",
          "ticks": 370080,
          "time": 285.55527,
          "velocity": 0.2755905511811024
        },
        {
          "duration": 0.15432083333337232,
          "durationTicks": 200,
          "midi": 75,
          "name": "D#5",
          "ticks": 370320,
          "time": 285.740455,
          "velocity": 0.2440944881889764
        },
        {
          "duration": 0.12345666666669786,
          "durationTicks": 160,
          "midi": 73,
          "name": "C#5",
          "ticks": 370440,
          "time": 285.8330475,
          "velocity": 0.23622047244094488
        },
        {
          "duration": 0.3703699999999799,
          "durationTicks": 480,
          "midi": 44,
          "name": "G#2",
          "ticks": 370560,
          "time": 285.92564000000004,
          "velocity": 0.3543307086614173
        },
        {
          "duration": 0.3086416666666878,
          "durationTicks": 400,
          "midi": 73,
          "name": "C#5",
          "ticks": 370680,
          "time": 286.0182325,
          "velocity": 0.2204724409448819
        },
        {
          "duration": 0.40123416666665435,
          "durationTicks": 520,
          "midi": 53,
          "name": "F3",
          "ticks": 371040,
          "time": 286.29601,
          "velocity": 0.28346456692913385
        },
        {
          "duration": 0.18518500000004678,
          "durationTicks": 240,
          "midi": 56,
          "name": "G#3",
          "ticks": 371520,
          "time": 286.66638,
          "velocity": 0.2992125984251969
        },
        {
          "duration": 0.18518500000004678,
          "durationTicks": 240,
          "midi": 80,
          "name": "G#5",
          "ticks": 371520,
          "time": 286.66638,
          "velocity": 0.3464566929133858
        },
        {
          "duration": 0.2160491666666644,
          "durationTicks": 280,
          "midi": 73,
          "name": "C#5",
          "ticks": 371760,
          "time": 286.85156500000005,
          "velocity": 0.2992125984251969
        },
        {
          "duration": 0.15432083333331548,
          "durationTicks": 200,
          "midi": 49,
          "name": "C#3",
          "ticks": 372000,
          "time": 287.03675000000004,
          "velocity": 0.30708661417322836
        },
        {
          "duration": 0.18518499999998994,
          "durationTicks": 240,
          "midi": 44,
          "name": "G#2",
          "ticks": 372240,
          "time": 287.22193500000003,
          "velocity": 0.4409448818897638
        },
        {
          "duration": 0.18518499999998994,
          "durationTicks": 240,
          "midi": 56,
          "name": "G#3",
          "ticks": 372240,
          "time": 287.22193500000003,
          "velocity": 0.3700787401574803
        },
        {
          "duration": 0.2160491666666644,
          "durationTicks": 280,
          "midi": 80,
          "name": "G#5",
          "ticks": 372240,
          "time": 287.22193500000003,
          "velocity": 0.2283464566929134
        },
        {
          "duration": 0.4012341666667112,
          "durationTicks": 520,
          "midi": 42,
          "name": "F#2",
          "ticks": 372480,
          "time": 287.40712,
          "velocity": 0.3779527559055118
        },
        {
          "duration": 0.4012341666667112,
          "durationTicks": 520,
          "midi": 54,
          "name": "F#3",
          "ticks": 372480,
          "time": 287.40712,
          "velocity": 0.3464566929133858
        },
        {
          "duration": 0.4012341666667112,
          "durationTicks": 520,
          "midi": 63,
          "name": "D#4",
          "ticks": 372480,
          "time": 287.40712,
          "velocity": 0.2047244094488189
        },
        {
          "duration": 0.4012341666667112,
          "durationTicks": 520,
          "midi": 68,
          "name": "G#4",
          "ticks": 372480,
          "time": 287.40712,
          "velocity": 0.25984251968503935
        },
        {
          "duration": 0.4012341666667112,
          "durationTicks": 520,
          "midi": 72,
          "name": "C5",
          "ticks": 372480,
          "time": 287.40712,
          "velocity": 0.3228346456692913
        },
        {
          "duration": 0.4012341666667112,
          "durationTicks": 520,
          "midi": 75,
          "name": "D#5",
          "ticks": 372480,
          "time": 287.40712,
          "velocity": 0.2204724409448819
        },
        {
          "duration": 0.4012341666667112,
          "durationTicks": 520,
          "midi": 80,
          "name": "G#5",
          "ticks": 372480,
          "time": 287.40712,
          "velocity": 0.1968503937007874
        },
        {
          "duration": 0.4012341666667112,
          "durationTicks": 520,
          "midi": 84,
          "name": "C6",
          "ticks": 372480,
          "time": 287.40712,
          "velocity": 0.3228346456692913
        },
        {
          "duration": 0.4012341666667112,
          "durationTicks": 520,
          "midi": 72,
          "name": "C5",
          "ticks": 372960,
          "time": 287.77749,
          "velocity": 0.23622047244094488
        },
        {
          "duration": 0.4012341666667112,
          "durationTicks": 520,
          "midi": 84,
          "name": "C6",
          "ticks": 372960,
          "time": 287.77749,
          "velocity": 0.2204724409448819
        },
        {
          "duration": 0.7407400000000166,
          "durationTicks": 960,
          "midi": 40,
          "name": "E2",
          "ticks": 373440,
          "time": 288.14786000000004,
          "velocity": 0.3779527559055118
        },
        {
          "duration": 0.7407400000000166,
          "durationTicks": 960,
          "midi": 52,
          "name": "E3",
          "ticks": 373440,
          "time": 288.14786000000004,
          "velocity": 0.36220472440944884
        },
        {
          "duration": 0.7407400000000166,
          "durationTicks": 960,
          "midi": 61,
          "name": "C#4",
          "ticks": 373440,
          "time": 288.14786000000004,
          "velocity": 0.2047244094488189
        },
        {
          "duration": 0.7407400000000166,
          "durationTicks": 960,
          "midi": 64,
          "name": "E4",
          "ticks": 373440,
          "time": 288.14786000000004,
          "velocity": 0.2125984251968504
        },
        {
          "duration": 0.7407400000000166,
          "durationTicks": 960,
          "midi": 68,
          "name": "G#4",
          "ticks": 373440,
          "time": 288.14786000000004,
          "velocity": 0.1968503937007874
        },
        {
          "duration": 0.7407400000000166,
          "durationTicks": 960,
          "midi": 70,
          "name": "A#4",
          "ticks": 373440,
          "time": 288.14786000000004,
          "velocity": 0.2677165354330709
        },
        {
          "duration": 0.7407400000000166,
          "durationTicks": 960,
          "midi": 73,
          "name": "C#5",
          "ticks": 373440,
          "time": 288.14786000000004,
          "velocity": 0.2047244094488189
        },
        {
          "duration": 0.7407400000000166,
          "durationTicks": 960,
          "midi": 82,
          "name": "A#5",
          "ticks": 373440,
          "time": 288.14786000000004,
          "velocity": 0.2677165354330709
        },
        {
          "duration": 0.9259249999999497,
          "durationTicks": 1200,
          "midi": 39,
          "name": "D#2",
          "ticks": 374400,
          "time": 288.88860000000005,
          "velocity": 0.3937007874015748
        },
        {
          "duration": 0.9259249999999497,
          "durationTicks": 1200,
          "midi": 51,
          "name": "D#3",
          "ticks": 374400,
          "time": 288.88860000000005,
          "velocity": 0.3937007874015748
        },
        {
          "duration": 0.8950608333332752,
          "durationTicks": 1160,
          "midi": 61,
          "name": "C#4",
          "ticks": 374400,
          "time": 288.88860000000005,
          "velocity": 0.2440944881889764
        },
        {
          "duration": 0.8950608333332752,
          "durationTicks": 1160,
          "midi": 63,
          "name": "D#4",
          "ticks": 374400,
          "time": 288.88860000000005,
          "velocity": 0.2440944881889764
        },
        {
          "duration": 0.8950608333332752,
          "durationTicks": 1160,
          "midi": 68,
          "name": "G#4",
          "ticks": 374400,
          "time": 288.88860000000005,
          "velocity": 0.2992125984251969
        },
        {
          "duration": 0.8950608333332752,
          "durationTicks": 1160,
          "midi": 73,
          "name": "C#5",
          "ticks": 374400,
          "time": 288.88860000000005,
          "velocity": 0.2440944881889764
        },
        {
          "duration": 0.8950608333332752,
          "durationTicks": 1160,
          "midi": 80,
          "name": "G#5",
          "ticks": 374400,
          "time": 288.88860000000005,
          "velocity": 0.2992125984251969
        },
        {
          "duration": 1.2962950000000433,
          "durationTicks": 1680,
          "midi": 38,
          "name": "D2",
          "ticks": 375600,
          "time": 289.814525,
          "velocity": 0.33070866141732286
        },
        {
          "duration": 1.3271591666667177,
          "durationTicks": 1720,
          "midi": 50,
          "name": "D3",
          "ticks": 375600,
          "time": 289.814525,
          "velocity": 0.31496062992125984
        },
        {
          "duration": 1.2962950000000433,
          "durationTicks": 1680,
          "midi": 56,
          "name": "G#3",
          "ticks": 375600,
          "time": 289.814525,
          "velocity": 0.3858267716535433
        },
        {
          "duration": 1.3271591666667177,
          "durationTicks": 1720,
          "midi": 59,
          "name": "B3",
          "ticks": 375600,
          "time": 289.814525,
          "velocity": 0.2755905511811024
        },
        {
          "duration": 1.3271591666667177,
          "durationTicks": 1720,
          "midi": 71,
          "name": "B4",
          "ticks": 375600,
          "time": 289.814525,
          "velocity": 0.18110236220472442
        },
        {
          "duration": 1.2962950000000433,
          "durationTicks": 1680,
          "midi": 78,
          "name": "F#5",
          "ticks": 375600,
          "time": 289.814525,
          "velocity": 0.25984251968503935
        },
        {
          "duration": 1.2345666666666943,
          "durationTicks": 1600,
          "midi": 66,
          "name": "F#4",
          "ticks": 375720,
          "time": 289.9071175,
          "velocity": 0.2677165354330709
        },
        {
          "duration": 0.18518499999998994,
          "durationTicks": 240,
          "midi": 37,
          "name": "C#2",
          "ticks": 377280,
          "time": 291.11082000000005,
          "velocity": 0.2440944881889764
        },
        {
          "duration": 0.2160491666666644,
          "durationTicks": 280,
          "midi": 49,
          "name": "C#3",
          "ticks": 377520,
          "time": 291.29600500000004,
          "velocity": 0.2204724409448819
        },
        {
          "duration": 0.18518499999998994,
          "durationTicks": 240,
          "midi": 58,
          "name": "A#3",
          "ticks": 377520,
          "time": 291.29600500000004,
          "velocity": 0.2125984251968504
        },
        {
          "duration": 0.09259250000002339,
          "durationTicks": 120,
          "midi": 37,
          "name": "C#2",
          "ticks": 377640,
          "time": 291.3885975,
          "velocity": 0.33070866141732286
        },
        {
          "duration": 0.40123416666665435,
          "durationTicks": 520,
          "midi": 65,
          "name": "F4",
          "ticks": 377760,
          "time": 291.48119,
          "velocity": 0.25984251968503935
        }
      ]
    }
  ]
}