{
  "header": {
    "keySignatures": [],
    "meta": [],
    "name": "",
    "ppq": 220,
    "tempos": [
      {
        "bpm": 120,
        "ticks": 0
      }
    ],
    "timeSignatures": [
      {
        "ticks": 0,
        "timeSignature": [
          4,
          4
        ],
        "measures": 0
      }
    ]
  },
  "tracks": [
    {
      "channel": 0,
      "controlChanges": {},
      "pitchBends": [],
      "instrument": {
        "family": "strings",
        "number": 46,
        "name": "orchestral harp"
      },
      "name": "",
      "notes": [
        {
          "duration": 0.6613636363636364,
          "durationTicks": 291,
          "midi": 77,
          "name": "F5",
          "ticks": 607,
          "time": 1.3795454545454546,
          "velocity": 1
        },
        {
          "duration": 0.6000000000000001,
          "durationTicks": 264,
          "midi": 75,
          "name": "D#5",
          "ticks": 634,
          "time": 1.440909090909091,
          "velocity": 1
        },
        {
          "duration": 0.15909090909090917,
          "durationTicks": 70,
          "midi": 73,
          "name": "C#5",
          "ticks": 660,
          "time": 1.5,
          "velocity": 1
        },
        {
          "duration": 0.19090909090909092,
          "durationTicks": 84,
          "midi": 70,
          "name": "A#4",
          "ticks": 695,
          "time": 1.5795454545454546,
          "velocity": 1
        },
        {
          "duration": 0.16136363636363638,
          "durationTicks": 71,
          "midi": 68,
          "name": "G#4",
          "ticks": 717,
          "time": 1.6295454545454546,
          "velocity": 1
        },
        {
          "duration": 0.08863636363636362,
          "durationTicks": 39,
          "midi": 65,
          "name": "F4",
          "ticks": 735,
          "time": 1.6704545454545454,
          "velocity": 1
        },
        {
          "duration": 0.07045454545454555,
          "durationTicks": 31,
          "midi": 63,
          "name": "D#4",
          "ticks": 761,
          "time": 1.7295454545454545,
          "velocity": 1
        },
        {
          "duration": 0.25,
          "durationTicks": 110,
          "midi": 68,
          "name": "G#4",
          "ticks": 788,
          "time": 1.790909090909091,
          "velocity": 1
        },
        {
          "duration": 0.37954545454545396,
          "durationTicks": 167,
          "midi": 80,
          "name": "G#5",
          "ticks": 5425,
          "time": 12.329545454545455,
          "velocity": 1
        },
        {
          "duration": 0.36818181818181905,
          "durationTicks": 162,
          "midi": 73,
          "name": "C#5",
          "ticks": 5606,
          "time": 12.74090909090909,
          "velocity": 1
        },
        {
          "duration": 1.209090909090909,
          "durationTicks": 532,
          "midi": 44,
          "name": "G#2",
          "ticks": 5773,
          "time": 13.120454545454546,
          "velocity": 1
        },
        {
          "duration": 0.7681818181818176,
          "durationTicks": 338,
          "midi": 75,
          "name": "D#5",
          "ticks": 5782,
          "time": 13.14090909090909,
          "velocity": 1
        },
        {
          "duration": 0.8090909090909104,
          "durationTicks": 356,
          "midi": 56,
          "name": "G#3",
          "ticks": 5949,
          "time": 13.520454545454545,
          "velocity": 1
        }
      ],
      "endOfTrackTicks": 6306
    },
    {
      "channel": 1,
      "controlChanges": {},
      "pitchBends": [],
      "instrument": {
        "family": "piano",
        "number": 0,
        "name": "acoustic grand piano"
      },
      "name": "",
      "notes": [
        {
          "duration": 0.39090909090909065,
          "durationTicks": 172,
          "midi": 37,
          "name": "C#2",
          "ticks": 950,
          "time": 2.159090909090909,
          "velocity": 1
        },
        {
          "duration": 0.6113636363636363,
          "durationTicks": 269,
          "midi": 63,
          "name": "D#4",
          "ticks": 950,
          "time": 2.159090909090909,
          "velocity": 1
        },
        {
          "duration": 0.6113636363636363,
          "durationTicks": 269,
          "midi": 68,
          "name": "G#4",
          "ticks": 950,
          "time": 2.159090909090909,
          "velocity": 1
        },
        {
          "duration": 0.08863636363636385,
          "durationTicks": 39,
          "midi": 44,
          "name": "G#2",
          "ticks": 964,
          "time": 2.190909090909091,
          "velocity": 1
        },
        {
          "duration": 0.3704545454545456,
          "durationTicks": 163,
          "midi": 70,
          "name": "A#4",
          "ticks": 1056,
          "time": 2.4,
          "velocity": 1
        },
        {
          "duration": 0.8204545454545453,
          "durationTicks": 361,
          "midi": 37,
          "name": "C#2",
          "ticks": 1126,
          "time": 2.559090909090909,
          "velocity": 1
        },
        {
          "duration": 0.21136363636363598,
          "durationTicks": 93,
          "midi": 44,
          "name": "G#2",
          "ticks": 1223,
          "time": 2.7795454545454548,
          "velocity": 1
        },
        {
          "duration": 1,
          "durationTicks": 440,
          "midi": 63,
          "name": "D#4",
          "ticks": 1223,
          "time": 2.7795454545454548,
          "velocity": 1
        },
        {
          "duration": 0.41136363636363615,
          "durationTicks": 181,
          "midi": 68,
          "name": "G#4",
          "ticks": 1223,
          "time": 2.7795454545454548,
          "velocity": 1
        },
        {
          "duration": 0.19090909090909092,
          "durationTicks": 84,
          "midi": 70,
          "name": "A#4",
          "ticks": 1320,
          "time": 3,
          "velocity": 1
        },
        {
          "duration": 0.8818181818181818,
          "durationTicks": 388,
          "midi": 68,
          "name": "G#4",
          "ticks": 1412,
          "time": 3.209090909090909,
          "velocity": 1
        },
        {
          "duration": 0.36136363636363633,
          "durationTicks": 159,
          "midi": 48,
          "name": "C3",
          "ticks": 1487,
          "time": 3.3795454545454544,
          "velocity": 1
        },
        {
          "duration": 0.2999999999999998,
          "durationTicks": 132,
          "midi": 51,
          "name": "D#3",
          "ticks": 1668,
          "time": 3.790909090909091,
          "velocity": 1
        },
        {
          "duration": 0.2999999999999998,
          "durationTicks": 132,
          "midi": 63,
          "name": "D#4",
          "ticks": 1668,
          "time": 3.790909090909091,
          "velocity": 1
        },
        {
          "duration": 1.6113636363636346,
          "durationTicks": 709,
          "midi": 30,
          "name": "F#1",
          "ticks": 20759,
          "time": 47.179545454545455,
          "velocity": 1
        },
        {
          "duration": 1.211363636363636,
          "durationTicks": 533,
          "midi": 42,
          "name": "F#2",
          "ticks": 20935,
          "time": 47.57954545454545,
          "velocity": 1
        },
        {
          "duration": 1.1818181818181799,
          "durationTicks": 520,
          "midi": 61,
          "name": "C#4",
          "ticks": 20948,
          "time": 47.60909090909091,
          "velocity": 1
        },
        {
          "duration": 0.8000000000000043,
          "durationTicks": 352,
          "midi": 70,
          "name": "A#4",
          "ticks": 21111,
          "time": 47.97954545454545,
          "velocity": 1
        },
        {
          "duration": 0.8000000000000043,
          "durationTicks": 352,
          "midi": 82,
          "name": "A#5",
          "ticks": 21111,
          "time": 47.97954545454545,
          "velocity": 1
        },
        {
          "duration": 0.3999999999999986,
          "durationTicks": 176,
          "midi": 68,
          "name": "G#4",
          "ticks": 21292,
          "time": 48.39090909090909,
          "velocity": 1
        },
        {
          "duration": 0.3999999999999986,
          "durationTicks": 176,
          "midi": 80,
          "name": "G#5",
          "ticks": 21292,
          "time": 48.39090909090909,
          "velocity": 1
        },
        {
          "duration": 0.4704545454545439,
          "durationTicks": 207,
          "midi": 56,
          "name": "G#3",
          "ticks": 21419,
          "time": 48.679545454545455,
          "velocity": 1
        },
        {
          "duration": 0.4704545454545439,
          "durationTicks": 207,
          "midi": 65,
          "name": "F4",
          "ticks": 21419,
          "time": 48.679545454545455,
          "velocity": 1
        },
        {
          "duration": 0.3704545454545425,
          "durationTicks": 163,
          "midi": 77,
          "name": "F5",
          "ticks": 21463,
          "time": 48.779545454545456,
          "velocity": 1
        },
        {
          "duration": 0.3704545454545425,
          "durationTicks": 163,
          "midi": 89,
          "name": "F6",
          "ticks": 21463,
          "time": 48.779545454545456,
          "velocity": 1
        },
        {
          "duration": 0.17045454545454675,
          "durationTicks": 75,
          "midi": 61,
          "name": "C#4",
          "ticks": 23540,
          "time": 53.5,
          "velocity": 1
        },
        {
          "duration": 0.6000000000000014,
          "durationTicks": 264,
          "midi": 77,
          "name": "F5",
          "ticks": 23615,
          "time": 53.67045454545455,
          "velocity": 1
        },
        {
          "duration": 1.4090909090909065,
          "durationTicks": 620,
          "midi": 89,
          "name": "F6",
          "ticks": 23615,
          "time": 53.67045454545455,
          "velocity": 1
        },
        {
          "duration": 0.21136363636363598,
          "durationTicks": 93,
          "midi": 70,
          "name": "A#4",
          "ticks": 23786,
          "time": 54.05909090909091,
          "velocity": 1
        },
        {
          "duration": 0.21136363636363598,
          "durationTicks": 93,
          "midi": 75,
          "name": "D#5",
          "ticks": 23786,
          "time": 54.05909090909091,
          "velocity": 1
        },
        {
          "duration": 1.020454545454541,
          "durationTicks": 449,
          "midi": 58,
          "name": "A#3",
          "ticks": 23879,
          "time": 54.27045454545455,
          "velocity": 1
        },
        {
          "duration": 0.20909090909091077,
          "durationTicks": 92,
          "midi": 70,
          "name": "A#4",
          "ticks": 24143,
          "time": 54.87045454545454,
          "velocity": 1
        },
        {
          "duration": 0.20909090909091077,
          "durationTicks": 92,
          "midi": 75,
          "name": "D#5",
          "ticks": 24143,
          "time": 54.87045454545454,
          "velocity": 1
        },
        {
          "duration": 0.19090909090909491,
          "durationTicks": 84,
          "midi": 92,
          "name": "G#6",
          "ticks": 24235,
          "time": 55.07954545454545,
          "velocity": 1
        },
        {
          "duration": 0.020454545454541062,
          "durationTicks": 9,
          "midi": 61,
          "name": "C#4",
          "ticks": 24319,
          "time": 55.27045454545455,
          "velocity": 1
        },
        {
          "duration": 0.020454545454541062,
          "durationTicks": 9,
          "midi": 85,
          "name": "C#6",
          "ticks": 24319,
          "time": 55.27045454545455,
          "velocity": 1
        },
        {
          "duration": 1.6295454545454575,
          "durationTicks": 717,
          "midi": 68,
          "name": "G#4",
          "ticks": 24499,
          "time": 55.679545454545455,
          "velocity": 1
        },
        {
          "duration": 0.0318181818181813,
          "durationTicks": 14,
          "midi": 73,
          "name": "C#5",
          "ticks": 25216,
          "time": 57.30909090909091,
          "velocity": 1
        },
        {
          "duration": 0.4318181818181799,
          "durationTicks": 190,
          "midi": 70,
          "name": "A#4",
          "ticks": 25392,
          "time": 57.70909090909091,
          "velocity": 1
        },
        {
          "duration": 0.7999999999999972,
          "durationTicks": 352,
          "midi": 68,
          "name": "G#4",
          "ticks": 25582,
          "time": 58.14090909090909,
          "velocity": 1
        },
        {
          "duration": 0.45000000000000284,
          "durationTicks": 198,
          "midi": 68,
          "name": "G#4",
          "ticks": 25934,
          "time": 58.94090909090909,
          "velocity": 1
        },
        {
          "duration": 0.8704545454545425,
          "durationTicks": 383,
          "midi": 42,
          "name": "F#2",
          "ticks": 26646,
          "time": 60.55909090909091,
          "velocity": 1
        },
        {
          "duration": 0.5590909090909051,
          "durationTicks": 246,
          "midi": 72,
          "name": "C5",
          "ticks": 26739,
          "time": 60.77045454545455,
          "velocity": 1
        },
        {
          "duration": 0.4704545454545439,
          "durationTicks": 207,
          "midi": 70,
          "name": "A#4",
          "ticks": 26822,
          "time": 60.95909090909091,
          "velocity": 1
        },
        {
          "duration": 0.10000000000000142,
          "durationTicks": 44,
          "midi": 72,
          "name": "C5",
          "ticks": 26985,
          "time": 61.32954545454545,
          "velocity": 1
        },
        {
          "duration": 1.6318181818181898,
          "durationTicks": 718,
          "midi": 68,
          "name": "G#4",
          "ticks": 31640,
          "time": 71.9090909090909,
          "velocity": 1
        },
        {
          "duration": 0.17954545454544757,
          "durationTicks": 79,
          "midi": 70,
          "name": "A#4",
          "ticks": 32358,
          "time": 73.5409090909091,
          "velocity": 1
        },
        {
          "duration": 0.1909090909090878,
          "durationTicks": 84,
          "midi": 68,
          "name": "G#4",
          "ticks": 42803,
          "time": 97.27954545454546,
          "velocity": 1
        },
        {
          "duration": 0.4090909090909065,
          "durationTicks": 180,
          "midi": 73,
          "name": "C#5",
          "ticks": 42887,
          "time": 97.47045454545454,
          "velocity": 1
        },
        {
          "duration": 0.42045454545454675,
          "durationTicks": 185,
          "midi": 80,
          "name": "G#5",
          "ticks": 43067,
          "time": 97.87954545454545,
          "velocity": 1
        },
        {
          "duration": 0.6000000000000085,
          "durationTicks": 264,
          "midi": 82,
          "name": "A#5",
          "ticks": 43604,
          "time": 99.1,
          "velocity": 1
        },
        {
          "duration": 0.20909090909090366,
          "durationTicks": 92,
          "midi": 84,
          "name": "C6",
          "ticks": 43868,
          "time": 99.7,
          "velocity": 1
        },
        {
          "duration": 0.4090909090909065,
          "durationTicks": 180,
          "midi": 82,
          "name": "A#5",
          "ticks": 43956,
          "time": 99.9,
          "velocity": 1
        },
        {
          "duration": 0.3999999999999915,
          "durationTicks": 176,
          "midi": 80,
          "name": "G#5",
          "ticks": 44136,
          "time": 100.30909090909091,
          "velocity": 1
        },
        {
          "duration": 0.4000000000000057,
          "durationTicks": 176,
          "midi": 77,
          "name": "F5",
          "ticks": 44317,
          "time": 100.72045454545454,
          "velocity": 1
        },
        {
          "duration": 1.2295454545454447,
          "durationTicks": 541,
          "midi": 80,
          "name": "G#5",
          "ticks": 44493,
          "time": 101.12045454545455,
          "velocity": 1
        },
        {
          "duration": 0.7909090909090963,
          "durationTicks": 348,
          "midi": 82,
          "name": "A#5",
          "ticks": 45034,
          "time": 102.35,
          "velocity": 1
        },
        {
          "duration": 0.8090909090909122,
          "durationTicks": 356,
          "midi": 70,
          "name": "A#4",
          "ticks": 45197,
          "time": 102.72045454545454,
          "velocity": 1
        },
        {
          "duration": 0.8113636363636374,
          "durationTicks": 357,
          "midi": 61,
          "name": "C#4",
          "ticks": 45201,
          "time": 102.72954545454546,
          "velocity": 1
        },
        {
          "duration": 0.6090909090909093,
          "durationTicks": 268,
          "midi": 84,
          "name": "C6",
          "ticks": 45298,
          "time": 102.95,
          "velocity": 1
        },
        {
          "duration": 0.41818181818182154,
          "durationTicks": 184,
          "midi": 82,
          "name": "A#5",
          "ticks": 45382,
          "time": 103.14090909090909,
          "velocity": 1
        },
        {
          "duration": 0.45000000000000284,
          "durationTicks": 198,
          "midi": 70,
          "name": "A#4",
          "ticks": 45553,
          "time": 103.52954545454546,
          "velocity": 1
        },
        {
          "duration": 0.44999999999998863,
          "durationTicks": 198,
          "midi": 61,
          "name": "C#4",
          "ticks": 45558,
          "time": 103.5409090909091,
          "velocity": 1
        },
        {
          "duration": 0.3818181818181756,
          "durationTicks": 168,
          "midi": 80,
          "name": "G#5",
          "ticks": 45566,
          "time": 103.55909090909091,
          "velocity": 1
        },
        {
          "duration": 0.5113636363636402,
          "durationTicks": 225,
          "midi": 89,
          "name": "F6",
          "ticks": 45729,
          "time": 103.92954545454545,
          "velocity": 1
        },
        {
          "duration": 0.3181818181818272,
          "durationTicks": 140,
          "midi": 77,
          "name": "F5",
          "ticks": 45756,
          "time": 103.99090909090908,
          "velocity": 1
        },
        {
          "duration": 0.32045454545455243,
          "durationTicks": 141,
          "midi": 63,
          "name": "D#4",
          "ticks": 45760,
          "time": 104,
          "velocity": 1
        },
        {
          "duration": 0.09090909090909349,
          "durationTicks": 40,
          "midi": 68,
          "name": "G#4",
          "ticks": 45914,
          "time": 104.35,
          "velocity": 1
        },
        {
          "duration": 0.07045454545453822,
          "durationTicks": 31,
          "midi": 80,
          "name": "G#5",
          "ticks": 45923,
          "time": 104.37045454545455,
          "velocity": 1
        },
        {
          "duration": 0.42045454545453254,
          "durationTicks": 185,
          "midi": 85,
          "name": "C#6",
          "ticks": 46974,
          "time": 106.75909090909092,
          "velocity": 1
        },
        {
          "duration": 0.44999999999998863,
          "durationTicks": 198,
          "midi": 73,
          "name": "C#5",
          "ticks": 46988,
          "time": 106.7909090909091,
          "velocity": 1
        },
        {
          "duration": 0.6704545454545467,
          "durationTicks": 295,
          "midi": 87,
          "name": "D#6",
          "ticks": 47150,
          "time": 107.1590909090909,
          "velocity": 1
        },
        {
          "duration": 1.3409090909090935,
          "durationTicks": 590,
          "midi": 44,
          "name": "G#2",
          "ticks": 47168,
          "time": 107.2,
          "velocity": 1
        },
        {
          "duration": 0.6204545454545496,
          "durationTicks": 273,
          "midi": 75,
          "name": "D#5",
          "ticks": 47168,
          "time": 107.2,
          "velocity": 1
        },
        {
          "duration": 1.3113636363636374,
          "durationTicks": 577,
          "midi": 61,
          "name": "C#4",
          "ticks": 47181,
          "time": 107.22954545454546,
          "velocity": 1
        },
        {
          "duration": 0.1295454545454504,
          "durationTicks": 57,
          "midi": 68,
          "name": "G#4",
          "ticks": 47331,
          "time": 107.57045454545455,
          "velocity": 1
        },
        {
          "duration": 0.2909090909090821,
          "durationTicks": 128,
          "midi": 70,
          "name": "A#4",
          "ticks": 47436,
          "time": 107.80909090909091,
          "velocity": 1
        },
        {
          "duration": 0.23181818181818414,
          "durationTicks": 102,
          "midi": 82,
          "name": "A#5",
          "ticks": 47436,
          "time": 107.80909090909091,
          "velocity": 1
        },
        {
          "duration": 0.5318181818181813,
          "durationTicks": 234,
          "midi": 85,
          "name": "C#6",
          "ticks": 47524,
          "time": 108.00909090909092,
          "velocity": 1
        },
        {
          "duration": 0.22045454545455812,
          "durationTicks": 97,
          "midi": 68,
          "name": "G#4",
          "ticks": 47599,
          "time": 108.17954545454545,
          "velocity": 1
        },
        {
          "duration": 0.13181818181818983,
          "durationTicks": 58,
          "midi": 75,
          "name": "D#5",
          "ticks": 47700,
          "time": 108.4090909090909,
          "velocity": 1
        },
        {
          "duration": 1.1113636363636346,
          "durationTicks": 489,
          "midi": 56,
          "name": "G#3",
          "ticks": 53574,
          "time": 121.75909090909092,
          "velocity": 1
        },
        {
          "duration": 0.4409090909090878,
          "durationTicks": 194,
          "midi": 61,
          "name": "C#4",
          "ticks": 53574,
          "time": 121.75909090909092,
          "velocity": 1
        },
        {
          "duration": 1.1113636363636346,
          "durationTicks": 489,
          "midi": 63,
          "name": "D#4",
          "ticks": 53574,
          "time": 121.75909090909092,
          "velocity": 1
        },
        {
          "duration": 1.1113636363636346,
          "durationTicks": 489,
          "midi": 68,
          "name": "G#4",
          "ticks": 53574,
          "time": 121.75909090909092,
          "velocity": 1
        },
        {
          "duration": 0.6704545454545467,
          "durationTicks": 295,
          "midi": 61,
          "name": "C#4",
          "ticks": 53768,
          "time": 122.2,
          "velocity": 1
        },
        {
          "duration": 0.4090909090909065,
          "durationTicks": 180,
          "midi": 58,
          "name": "A#3",
          "ticks": 57143,
          "time": 129.87045454545455,
          "velocity": 1
        },
        {
          "duration": 0.4090909090909065,
          "durationTicks": 180,
          "midi": 60,
          "name": "C4",
          "ticks": 57143,
          "time": 129.87045454545455,
          "velocity": 1
        },
        {
          "duration": 0.4090909090909065,
          "durationTicks": 180,
          "midi": 63,
          "name": "D#4",
          "ticks": 57143,
          "time": 129.87045454545455,
          "velocity": 1
        },
        {
          "duration": 0.4090909090909065,
          "durationTicks": 180,
          "midi": 65,
          "name": "F4",
          "ticks": 57143,
          "time": 129.87045454545455,
          "velocity": 1
        },
        {
          "duration": 0.7909090909090821,
          "durationTicks": 348,
          "midi": 56,
          "name": "G#3",
          "ticks": 57323,
          "time": 130.27954545454546,
          "velocity": 1
        },
        {
          "duration": 0.7909090909090821,
          "durationTicks": 348,
          "midi": 61,
          "name": "C#4",
          "ticks": 57323,
          "time": 130.27954545454546,
          "velocity": 1
        },
        {
          "duration": 0.7909090909090821,
          "durationTicks": 348,
          "midi": 65,
          "name": "F4",
          "ticks": 57323,
          "time": 130.27954545454546,
          "velocity": 1
        },
        {
          "duration": 0.6090909090909236,
          "durationTicks": 268,
          "midi": 75,
          "name": "D#5",
          "ticks": 59554,
          "time": 135.35,
          "velocity": 1
        },
        {
          "duration": 0.4113636363636317,
          "durationTicks": 181,
          "midi": 75,
          "name": "D#5",
          "ticks": 59822,
          "time": 135.95909090909092,
          "velocity": 1
        },
        {
          "duration": 0.4000000000000057,
          "durationTicks": 176,
          "midi": 77,
          "name": "F5",
          "ticks": 60003,
          "time": 136.37045454545455,
          "velocity": 1
        },
        {
          "duration": 0.4090909090909065,
          "durationTicks": 180,
          "midi": 80,
          "name": "G#5",
          "ticks": 60179,
          "time": 136.77045454545456,
          "velocity": 1
        },
        {
          "duration": 0.029545454545456096,
          "durationTicks": 13,
          "midi": 80,
          "name": "G#5",
          "ticks": 60359,
          "time": 137.17954545454546,
          "velocity": 1
        },
        {
          "duration": 0.18181818181818699,
          "durationTicks": 80,
          "midi": 68,
          "name": "G#4",
          "ticks": 61626,
          "time": 140.0590909090909,
          "velocity": 1
        },
        {
          "duration": 0.1886363636363626,
          "durationTicks": 83,
          "midi": 65,
          "name": "F4",
          "ticks": 61706,
          "time": 140.2409090909091,
          "velocity": 1
        },
        {
          "duration": 0.24090909090907076,
          "durationTicks": 106,
          "midi": 61,
          "name": "C#4",
          "ticks": 61789,
          "time": 140.42954545454546,
          "velocity": 1
        },
        {
          "duration": 0.15909090909093493,
          "durationTicks": 70,
          "midi": 58,
          "name": "A#3",
          "ticks": 61895,
          "time": 140.67045454545453,
          "velocity": 1
        },
        {
          "duration": 0.19999999999998863,
          "durationTicks": 88,
          "midi": 61,
          "name": "C#4",
          "ticks": 61965,
          "time": 140.82954545454547,
          "velocity": 1
        },
        {
          "duration": 0.19999999999998863,
          "durationTicks": 88,
          "midi": 63,
          "name": "D#4",
          "ticks": 62053,
          "time": 141.02954545454546,
          "velocity": 1
        },
        {
          "duration": 0.41136363636366013,
          "durationTicks": 181,
          "midi": 70,
          "name": "A#4",
          "ticks": 62141,
          "time": 141.22954545454544,
          "velocity": 1
        },
        {
          "duration": 0.39999999999997726,
          "durationTicks": 176,
          "midi": 70,
          "name": "A#4",
          "ticks": 62322,
          "time": 141.6409090909091,
          "velocity": 1
        },
        {
          "duration": 0.4090909090909065,
          "durationTicks": 180,
          "midi": 70,
          "name": "A#4",
          "ticks": 62498,
          "time": 142.04090909090908,
          "velocity": 1
        },
        {
          "duration": 0.39090909090910486,
          "durationTicks": 172,
          "midi": 70,
          "name": "A#4",
          "ticks": 62678,
          "time": 142.45,
          "velocity": 1
        },
        {
          "duration": 0.5795454545454675,
          "durationTicks": 255,
          "midi": 66,
          "name": "F#4",
          "ticks": 62687,
          "time": 142.47045454545454,
          "velocity": 1
        },
        {
          "duration": 0.20909090909091788,
          "durationTicks": 92,
          "midi": 70,
          "name": "A#4",
          "ticks": 62850,
          "time": 142.8409090909091,
          "velocity": 1
        },
        {
          "duration": 0.09999999999999432,
          "durationTicks": 44,
          "midi": 68,
          "name": "G#4",
          "ticks": 63034,
          "time": 143.2590909090909,
          "velocity": 1
        },
        {
          "duration": 1.7909090909090821,
          "durationTicks": 788,
          "midi": 77,
          "name": "F5",
          "ticks": 64992,
          "time": 147.70909090909092,
          "velocity": 1
        },
        {
          "duration": 1.6204545454545496,
          "durationTicks": 713,
          "midi": 68,
          "name": "G#4",
          "ticks": 65890,
          "time": 149.75,
          "velocity": 1
        },
        {
          "duration": 1.6204545454545496,
          "durationTicks": 713,
          "midi": 80,
          "name": "G#5",
          "ticks": 65890,
          "time": 149.75,
          "velocity": 1
        },
        {
          "duration": 0.17954545454546178,
          "durationTicks": 79,
          "midi": 73,
          "name": "C#5",
          "ticks": 66603,
          "time": 151.37045454545455,
          "velocity": 1
        },
        {
          "duration": 0.17954545454546178,
          "durationTicks": 79,
          "midi": 85,
          "name": "C#6",
          "ticks": 66603,
          "time": 151.37045454545455,
          "velocity": 1
        },
        {
          "duration": 1.4000000000000057,
          "durationTicks": 616,
          "midi": 68,
          "name": "G#4",
          "ticks": 66964,
          "time": 152.1909090909091,
          "velocity": 1
        },
        {
          "duration": 1.8499999999999943,
          "durationTicks": 814,
          "midi": 65,
          "name": "F4",
          "ticks": 68570,
          "time": 155.8409090909091,
          "velocity": 1
        },
        {
          "duration": 0.8090909090909122,
          "durationTicks": 356,
          "midi": 68,
          "name": "G#4",
          "ticks": 73018,
          "time": 165.95,
          "velocity": 1
        },
        {
          "duration": 0.04999999999998295,
          "durationTicks": 22,
          "midi": 75,
          "name": "D#5",
          "ticks": 73379,
          "time": 166.77045454545456,
          "velocity": 1
        },
        {
          "duration": 0.13863636363637966,
          "durationTicks": 61,
          "midi": 73,
          "name": "C#5",
          "ticks": 73401,
          "time": 166.82045454545454,
          "velocity": 1
        },
        {
          "duration": 0.21136363636361466,
          "durationTicks": 93,
          "midi": 72,
          "name": "C5",
          "ticks": 73462,
          "time": 166.95909090909092,
          "velocity": 1
        },
        {
          "duration": 0.4000000000000057,
          "durationTicks": 176,
          "midi": 70,
          "name": "A#4",
          "ticks": 73555,
          "time": 167.17045454545453,
          "velocity": 1
        },
        {
          "duration": 0.20000000000001705,
          "durationTicks": 88,
          "midi": 70,
          "name": "A#4",
          "ticks": 73731,
          "time": 167.57045454545454,
          "velocity": 1
        },
        {
          "duration": 0.1590909090909065,
          "durationTicks": 70,
          "midi": 75,
          "name": "D#5",
          "ticks": 73819,
          "time": 167.77045454545456,
          "velocity": 1
        },
        {
          "duration": 0.4000000000000057,
          "durationTicks": 176,
          "midi": 56,
          "name": "G#3",
          "ticks": 75698,
          "time": 172.04090909090908,
          "velocity": 1
        },
        {
          "duration": 0.4000000000000057,
          "durationTicks": 176,
          "midi": 63,
          "name": "D#4",
          "ticks": 75698,
          "time": 172.04090909090908,
          "velocity": 1
        },
        {
          "duration": 0.4000000000000057,
          "durationTicks": 176,
          "midi": 68,
          "name": "G#4",
          "ticks": 75698,
          "time": 172.04090909090908,
          "velocity": 1
        },
        {
          "duration": 0.2181818181818187,
          "durationTicks": 96,
          "midi": 56,
          "name": "G#3",
          "ticks": 75874,
          "time": 172.4409090909091,
          "velocity": 1
        },
        {
          "duration": 0.2181818181818187,
          "durationTicks": 96,
          "midi": 63,
          "name": "D#4",
          "ticks": 75874,
          "time": 172.4409090909091,
          "velocity": 1
        },
        {
          "duration": 0.2181818181818187,
          "durationTicks": 96,
          "midi": 68,
          "name": "G#4",
          "ticks": 75874,
          "time": 172.4409090909091,
          "velocity": 1
        },
        {
          "duration": 0.1909090909090878,
          "durationTicks": 84,
          "midi": 56,
          "name": "G#3",
          "ticks": 75970,
          "time": 172.6590909090909,
          "velocity": 1
        },
        {
          "duration": 0.1909090909090878,
          "durationTicks": 84,
          "midi": 63,
          "name": "D#4",
          "ticks": 75970,
          "time": 172.6590909090909,
          "velocity": 1
        },
        {
          "duration": 0.20909090909091788,
          "durationTicks": 92,
          "midi": 63,
          "name": "D#4",
          "ticks": 76054,
          "time": 172.85,
          "velocity": 1
        },
        {
          "duration": 0.20909090909091788,
          "durationTicks": 92,
          "midi": 66,
          "name": "F#4",
          "ticks": 76054,
          "time": 172.85,
          "velocity": 1
        },
        {
          "duration": 0.20909090909091788,
          "durationTicks": 92,
          "midi": 70,
          "name": "A#4",
          "ticks": 76054,
          "time": 172.85,
          "velocity": 1
        },
        {
          "duration": 0.2204545454545439,
          "durationTicks": 97,
          "midi": 63,
          "name": "D#4",
          "ticks": 76239,
          "time": 173.27045454545456,
          "velocity": 1
        },
        {
          "duration": 0.20909090909088945,
          "durationTicks": 92,
          "midi": 61,
          "name": "C#4",
          "ticks": 76336,
          "time": 173.4909090909091,
          "velocity": 1
        },
        {
          "duration": 0.37954545454547883,
          "durationTicks": 167,
          "midi": 56,
          "name": "G#3",
          "ticks": 76428,
          "time": 173.7,
          "velocity": 1
        },
        {
          "duration": 0.37954545454547883,
          "durationTicks": 167,
          "midi": 61,
          "name": "C#4",
          "ticks": 76428,
          "time": 173.7,
          "velocity": 1
        },
        {
          "duration": 0.17045454545456096,
          "durationTicks": 75,
          "midi": 63,
          "name": "D#4",
          "ticks": 76428,
          "time": 173.7,
          "velocity": 1
        },
        {
          "duration": 0.37954545454547883,
          "durationTicks": 167,
          "midi": 68,
          "name": "G#4",
          "ticks": 76428,
          "time": 173.7,
          "velocity": 1
        },
        {
          "duration": 0.7818181818182097,
          "durationTicks": 344,
          "midi": 53,
          "name": "F3",
          "ticks": 80348,
          "time": 182.6090909090909,
          "velocity": 1
        },
        {
          "duration": 0.9181818181818073,
          "durationTicks": 404,
          "midi": 27,
          "name": "D#1",
          "ticks": 80692,
          "time": 183.3909090909091,
          "velocity": 1
        },
        {
          "duration": 0.9181818181818073,
          "durationTicks": 404,
          "midi": 39,
          "name": "D#2",
          "ticks": 80692,
          "time": 183.3909090909091,
          "velocity": 1
        },
        {
          "duration": 0.25,
          "durationTicks": 110,
          "midi": 63,
          "name": "D#4",
          "ticks": 80692,
          "time": 183.3909090909091,
          "velocity": 1
        },
        {
          "duration": 0.738636363636374,
          "durationTicks": 325,
          "midi": 63,
          "name": "D#4",
          "ticks": 80890,
          "time": 183.8409090909091,
          "velocity": 1
        },
        {
          "duration": 0.19999999999998863,
          "durationTicks": 88,
          "midi": 61,
          "name": "C#4",
          "ticks": 81215,
          "time": 184.57954545454547,
          "velocity": 1
        },
        {
          "duration": 0.6295454545454504,
          "durationTicks": 277,
          "midi": 61,
          "name": "C#4",
          "ticks": 81303,
          "time": 184.77954545454546,
          "velocity": 1
        },
        {
          "duration": 0.2204545454545439,
          "durationTicks": 97,
          "midi": 68,
          "name": "G#4",
          "ticks": 81580,
          "time": 185.4090909090909,
          "velocity": 1
        },
        {
          "duration": 0.20000000000001705,
          "durationTicks": 88,
          "midi": 68,
          "name": "G#4",
          "ticks": 81677,
          "time": 185.62954545454545,
          "velocity": 1
        },
        {
          "duration": 0.3795454545454504,
          "durationTicks": 167,
          "midi": 61,
          "name": "C#4",
          "ticks": 81765,
          "time": 185.82954545454547,
          "velocity": 1
        },
        {
          "duration": 0.42045454545453254,
          "durationTicks": 185,
          "midi": 63,
          "name": "D#4",
          "ticks": 81932,
          "time": 186.20909090909092,
          "velocity": 1
        },
        {
          "duration": 1.779545454545456,
          "durationTicks": 783,
          "midi": 61,
          "name": "C#4",
          "ticks": 82117,
          "time": 186.62954545454545,
          "velocity": 1
        },
        {
          "duration": 0.32954545454543904,
          "durationTicks": 145,
          "midi": 68,
          "name": "G#4",
          "ticks": 82755,
          "time": 188.07954545454547,
          "velocity": 1
        },
        {
          "duration": 0.1295454545454504,
          "durationTicks": 57,
          "midi": 73,
          "name": "C#5",
          "ticks": 82843,
          "time": 188.27954545454546,
          "velocity": 1
        },
        {
          "duration": 0.17045454545456096,
          "durationTicks": 75,
          "midi": 84,
          "name": "C6",
          "ticks": 83824,
          "time": 190.5090909090909,
          "velocity": 1
        },
        {
          "duration": 0.4090909090909065,
          "durationTicks": 180,
          "midi": 82,
          "name": "A#5",
          "ticks": 83904,
          "time": 190.6909090909091,
          "velocity": 1
        },
        {
          "duration": 0.3704545454545496,
          "durationTicks": 163,
          "midi": 80,
          "name": "G#5",
          "ticks": 84093,
          "time": 191.12045454545455,
          "velocity": 1
        },
        {
          "duration": 0.3795454545454504,
          "durationTicks": 167,
          "midi": 77,
          "name": "F5",
          "ticks": 84269,
          "time": 191.52045454545456,
          "velocity": 1
        },
        {
          "duration": 0.17045454545453254,
          "durationTicks": 75,
          "midi": 80,
          "name": "G#5",
          "ticks": 84449,
          "time": 191.92954545454546,
          "velocity": 1
        },
        {
          "duration": 0.15000000000000568,
          "durationTicks": 66,
          "midi": 58,
          "name": "A#3",
          "ticks": 84528,
          "time": 192.1090909090909,
          "velocity": 1
        },
        {
          "duration": 0.17045454545453254,
          "durationTicks": 75,
          "midi": 61,
          "name": "C#4",
          "ticks": 84612,
          "time": 192.3,
          "velocity": 1
        },
        {
          "duration": 0.19999999999998863,
          "durationTicks": 88,
          "midi": 68,
          "name": "G#4",
          "ticks": 84797,
          "time": 192.72045454545454,
          "velocity": 1
        },
        {
          "duration": 0.20000000000001705,
          "durationTicks": 88,
          "midi": 63,
          "name": "D#4",
          "ticks": 84885,
          "time": 192.92045454545453,
          "velocity": 1
        },
        {
          "duration": 1.4295454545454618,
          "durationTicks": 629,
          "midi": 70,
          "name": "A#4",
          "ticks": 84973,
          "time": 193.12045454545455,
          "velocity": 1
        },
        {
          "duration": 1.029545454545456,
          "durationTicks": 453,
          "midi": 54,
          "name": "F#3",
          "ticks": 85149,
          "time": 193.52045454545456,
          "velocity": 1
        },
        {
          "duration": 1,
          "durationTicks": 440,
          "midi": 73,
          "name": "C#5",
          "ticks": 85162,
          "time": 193.55,
          "velocity": 1
        },
        {
          "duration": 0.8000000000000114,
          "durationTicks": 352,
          "midi": 84,
          "name": "C6",
          "ticks": 85250,
          "time": 193.75,
          "velocity": 1
        },
        {
          "duration": 0.7909090909091105,
          "durationTicks": 348,
          "midi": 86,
          "name": "D6",
          "ticks": 85254,
          "time": 193.7590909090909,
          "velocity": 1
        },
        {
          "duration": 0.6090909090909236,
          "durationTicks": 268,
          "midi": 82,
          "name": "A#5",
          "ticks": 85334,
          "time": 193.9409090909091,
          "velocity": 1
        },
        {
          "duration": 0.36136363636364877,
          "durationTicks": 159,
          "midi": 80,
          "name": "G#5",
          "ticks": 85518,
          "time": 194.3590909090909,
          "velocity": 1
        },
        {
          "duration": 0.4409090909090878,
          "durationTicks": 194,
          "midi": 89,
          "name": "F6",
          "ticks": 85681,
          "time": 194.72954545454544,
          "velocity": 1
        },
        {
          "duration": 0.38863636363637966,
          "durationTicks": 171,
          "midi": 80,
          "name": "G#5",
          "ticks": 85875,
          "time": 195.17045454545453,
          "velocity": 1
        },
        {
          "duration": 0.4090909090909065,
          "durationTicks": 180,
          "midi": 77,
          "name": "F5",
          "ticks": 86051,
          "time": 195.57045454545454,
          "velocity": 1
        },
        {
          "duration": 0.26818181818180165,
          "durationTicks": 118,
          "midi": 77,
          "name": "F5",
          "ticks": 86236,
          "time": 195.9909090909091,
          "velocity": 1
        },
        {
          "duration": 0.07954545454543904,
          "durationTicks": 35,
          "midi": 80,
          "name": "G#5",
          "ticks": 86359,
          "time": 196.27045454545456,
          "velocity": 1
        },
        {
          "duration": 0.25,
          "durationTicks": 110,
          "midi": 77,
          "name": "F5",
          "ticks": 86394,
          "time": 196.35,
          "velocity": 1
        },
        {
          "duration": 0.6500000000000057,
          "durationTicks": 286,
          "midi": 44,
          "name": "G#2",
          "ticks": 87120,
          "time": 198,
          "velocity": 1
        },
        {
          "duration": 1.6204545454545496,
          "durationTicks": 713,
          "midi": 56,
          "name": "G#3",
          "ticks": 87120,
          "time": 198,
          "velocity": 1
        },
        {
          "duration": 0.6500000000000057,
          "durationTicks": 286,
          "midi": 60,
          "name": "C4",
          "ticks": 87120,
          "time": 198,
          "velocity": 1
        },
        {
          "duration": 0.6500000000000057,
          "durationTicks": 286,
          "midi": 63,
          "name": "D#4",
          "ticks": 87120,
          "time": 198,
          "velocity": 1
        },
        {
          "duration": 0.13181818181817562,
          "durationTicks": 58,
          "midi": 70,
          "name": "A#4",
          "ticks": 87410,
          "time": 198.6590909090909,
          "velocity": 1
        },
        {
          "duration": 0.4090909090909065,
          "durationTicks": 180,
          "midi": 73,
          "name": "C#5",
          "ticks": 87468,
          "time": 198.79090909090908,
          "velocity": 1
        },
        {
          "duration": 0.42045454545456096,
          "durationTicks": 185,
          "midi": 63,
          "name": "D#4",
          "ticks": 87648,
          "time": 199.2,
          "velocity": 1
        },
        {
          "duration": 1.470454545454544,
          "durationTicks": 647,
          "midi": 75,
          "name": "D#5",
          "ticks": 87661,
          "time": 199.22954545454544,
          "velocity": 1
        },
        {
          "duration": 0.17045454545453254,
          "durationTicks": 75,
          "midi": 73,
          "name": "C#5",
          "ticks": 87833,
          "time": 199.62045454545455,
          "velocity": 1
        },
        {
          "duration": 0.07954545454546746,
          "durationTicks": 35,
          "midi": 73,
          "name": "C#5",
          "ticks": 87987,
          "time": 199.97045454545454,
          "velocity": 1
        },
        {
          "duration": 0.08863636363633987,
          "durationTicks": 39,
          "midi": 73,
          "name": "C#5",
          "ticks": 88062,
          "time": 200.1409090909091,
          "velocity": 1
        },
        {
          "duration": 0.09090909090906507,
          "durationTicks": 40,
          "midi": 73,
          "name": "C#5",
          "ticks": 88145,
          "time": 200.32954545454547,
          "velocity": 1
        },
        {
          "duration": 0.08181818181819267,
          "durationTicks": 36,
          "midi": 73,
          "name": "C#5",
          "ticks": 88224,
          "time": 200.5090909090909,
          "velocity": 1
        },
        {
          "duration": 0.08863636363636829,
          "durationTicks": 39,
          "midi": 73,
          "name": "C#5",
          "ticks": 88260,
          "time": 200.5909090909091,
          "velocity": 1
        }
      ],
      "endOfTrackTicks": 88309
    },
    {
      "channel": 2,
      "controlChanges": {},
      "pitchBends": [],
      "instrument": {
        "family": "guitar",
        "number": 26,
        "name": "electric guitar (jazz)"
      },
      "name": "",
      "notes": [
        {
          "duration": 0.21136363636363642,
          "durationTicks": 93,
          "midi": 68,
          "name": "G#4",
          "ticks": 959,
          "time": 2.1795454545454547,
          "velocity": 1
        },
        {
          "duration": 0.21136363636363642,
          "durationTicks": 93,
          "midi": 70,
          "name": "A#4",
          "ticks": 1047,
          "time": 2.3795454545454544,
          "velocity": 1
        },
        {
          "duration": 0.011363636363636243,
          "durationTicks": 5,
          "midi": 73,
          "name": "C#5",
          "ticks": 1135,
          "time": 2.5795454545454546,
          "velocity": 1
        },
        {
          "duration": 0.2886363636363636,
          "durationTicks": 127,
          "midi": 73,
          "name": "C#5",
          "ticks": 1140,
          "time": 2.590909090909091,
          "velocity": 1
        },
        {
          "duration": 0.06136363636363651,
          "durationTicks": 27,
          "midi": 77,
          "name": "F5",
          "ticks": 1267,
          "time": 2.8795454545454544,
          "velocity": 1
        },
        {
          "duration": 0.10000000000000009,
          "durationTicks": 44,
          "midi": 75,
          "name": "D#5",
          "ticks": 1280,
          "time": 2.909090909090909,
          "velocity": 1
        },
        {
          "duration": 0.24090909090909074,
          "durationTicks": 106,
          "midi": 70,
          "name": "A#4",
          "ticks": 1311,
          "time": 2.9795454545454545,
          "velocity": 1
        },
        {
          "duration": 0.18863636363636394,
          "durationTicks": 83,
          "midi": 68,
          "name": "G#4",
          "ticks": 1417,
          "time": 3.2204545454545452,
          "velocity": 1
        },
        {
          "duration": 0.00909090909090926,
          "durationTicks": 4,
          "midi": 73,
          "name": "C#5",
          "ticks": 1496,
          "time": 3.4,
          "velocity": 1
        },
        {
          "duration": 0.41136363636363615,
          "durationTicks": 181,
          "midi": 73,
          "name": "C#5",
          "ticks": 1500,
          "time": 3.409090909090909,
          "velocity": 1
        },
        {
          "duration": 0.011363636363636243,
          "durationTicks": 5,
          "midi": 80,
          "name": "G#5",
          "ticks": 1676,
          "time": 3.809090909090909,
          "velocity": 1
        },
        {
          "duration": 0.38863636363636367,
          "durationTicks": 171,
          "midi": 80,
          "name": "G#5",
          "ticks": 1681,
          "time": 3.8204545454545453,
          "velocity": 1
        },
        {
          "duration": 0.8386363636363638,
          "durationTicks": 369,
          "midi": 77,
          "name": "F5",
          "ticks": 1844,
          "time": 4.1909090909090905,
          "velocity": 1
        },
        {
          "duration": 0.38181818181818183,
          "durationTicks": 168,
          "midi": 82,
          "name": "A#5",
          "ticks": 2204,
          "time": 5.009090909090909,
          "velocity": 1
        },
        {
          "duration": 0.2295454545454545,
          "durationTicks": 101,
          "midi": 85,
          "name": "C#6",
          "ticks": 2376,
          "time": 5.4,
          "velocity": 1
        },
        {
          "duration": 0.209090909090909,
          "durationTicks": 92,
          "midi": 84,
          "name": "C6",
          "ticks": 2473,
          "time": 5.620454545454545,
          "velocity": 1
        },
        {
          "duration": 0.3204545454545453,
          "durationTicks": 141,
          "midi": 82,
          "name": "A#5",
          "ticks": 2561,
          "time": 5.820454545454545,
          "velocity": 1
        },
        {
          "duration": 0.1590909090909065,
          "durationTicks": 70,
          "midi": 68,
          "name": "G#4",
          "ticks": 10164,
          "time": 23.1,
          "velocity": 1
        },
        {
          "duration": 1.1886363636363662,
          "durationTicks": 523,
          "midi": 63,
          "name": "D#4",
          "ticks": 10327,
          "time": 23.470454545454544,
          "velocity": 1
        },
        {
          "duration": 0.04090909090909278,
          "durationTicks": 18,
          "midi": 65,
          "name": "F4",
          "ticks": 10868,
          "time": 24.7,
          "velocity": 1
        },
        {
          "duration": 0.17954545454545467,
          "durationTicks": 79,
          "midi": 68,
          "name": "G#4",
          "ticks": 10925,
          "time": 24.829545454545453,
          "velocity": 1
        },
        {
          "duration": 0.038636363636364024,
          "durationTicks": 17,
          "midi": 65,
          "name": "F4",
          "ticks": 11031,
          "time": 25.070454545454545,
          "velocity": 1
        },
        {
          "duration": 0.6409090909090907,
          "durationTicks": 282,
          "midi": 68,
          "name": "G#4",
          "ticks": 11123,
          "time": 25.279545454545456,
          "velocity": 1
        },
        {
          "duration": 0.2386363636363633,
          "durationTicks": 105,
          "midi": 65,
          "name": "F4",
          "ticks": 11581,
          "time": 26.320454545454545,
          "velocity": 1
        },
        {
          "duration": 0.19999999999999574,
          "durationTicks": 88,
          "midi": 53,
          "name": "F3",
          "ticks": 18084,
          "time": 41.1,
          "velocity": 1
        },
        {
          "duration": 0.8090909090909122,
          "durationTicks": 356,
          "midi": 63,
          "name": "D#4",
          "ticks": 18172,
          "time": 41.3,
          "velocity": 1
        },
        {
          "duration": 0.32954545454545325,
          "durationTicks": 145,
          "midi": 61,
          "name": "C#4",
          "ticks": 18445,
          "time": 41.92045454545455,
          "velocity": 1
        },
        {
          "duration": 0.14090909090909065,
          "durationTicks": 62,
          "midi": 63,
          "name": "D#4",
          "ticks": 18528,
          "time": 42.10909090909091,
          "velocity": 1
        },
        {
          "duration": 0.3409090909090864,
          "durationTicks": 150,
          "midi": 65,
          "name": "F4",
          "ticks": 18616,
          "time": 42.30909090909091,
          "velocity": 1
        },
        {
          "duration": 0.2795454545454561,
          "durationTicks": 123,
          "midi": 65,
          "name": "F4",
          "ticks": 18797,
          "time": 42.720454545454544,
          "velocity": 1
        },
        {
          "duration": 0.23181818181818414,
          "durationTicks": 102,
          "midi": 72,
          "name": "C5",
          "ticks": 21014,
          "time": 47.75909090909091,
          "velocity": 1
        },
        {
          "duration": 0.27045454545454106,
          "durationTicks": 119,
          "midi": 65,
          "name": "F4",
          "ticks": 21463,
          "time": 48.779545454545456,
          "velocity": 1
        },
        {
          "duration": 0.4000000000000057,
          "durationTicks": 176,
          "midi": 62,
          "name": "D4",
          "ticks": 28882,
          "time": 65.64090909090909,
          "velocity": 1
        },
        {
          "duration": 0.20909090909090366,
          "durationTicks": 92,
          "midi": 63,
          "name": "D#4",
          "ticks": 29058,
          "time": 66.0409090909091,
          "velocity": 1
        },
        {
          "duration": 0.17045454545454675,
          "durationTicks": 75,
          "midi": 61,
          "name": "C#4",
          "ticks": 29150,
          "time": 66.25,
          "velocity": 1
        },
        {
          "duration": 0.20000000000000284,
          "durationTicks": 88,
          "midi": 70,
          "name": "A#4",
          "ticks": 29234,
          "time": 66.44090909090909,
          "velocity": 1
        },
        {
          "duration": 0.5999999999999943,
          "durationTicks": 264,
          "midi": 68,
          "name": "G#4",
          "ticks": 29322,
          "time": 66.64090909090909,
          "velocity": 1
        },
        {
          "duration": 0.10909090909090935,
          "durationTicks": 48,
          "midi": 58,
          "name": "A#3",
          "ticks": 29586,
          "time": 67.24090909090908,
          "velocity": 1
        },
        {
          "duration": 0.5295454545454561,
          "durationTicks": 233,
          "midi": 70,
          "name": "A#4",
          "ticks": 30752,
          "time": 69.89090909090909,
          "velocity": 1
        },
        {
          "duration": 0.12045454545454959,
          "durationTicks": 53,
          "midi": 72,
          "name": "C5",
          "ticks": 31002,
          "time": 70.4590909090909,
          "velocity": 1
        },
        {
          "duration": 0.26818181818181586,
          "durationTicks": 118,
          "midi": 70,
          "name": "A#4",
          "ticks": 31104,
          "time": 70.69090909090909,
          "velocity": 1
        },
        {
          "duration": 0.22954545454545894,
          "durationTicks": 101,
          "midi": 68,
          "name": "G#4",
          "ticks": 31280,
          "time": 71.0909090909091,
          "velocity": 1
        },
        {
          "duration": 0.1886363636363626,
          "durationTicks": 83,
          "midi": 65,
          "name": "F4",
          "ticks": 31456,
          "time": 71.49090909090908,
          "velocity": 1
        },
        {
          "duration": 0.10909090909090935,
          "durationTicks": 48,
          "midi": 68,
          "name": "G#4",
          "ticks": 33088,
          "time": 75.2,
          "velocity": 1
        },
        {
          "duration": 1,
          "durationTicks": 440,
          "midi": 63,
          "name": "D#4",
          "ticks": 34333,
          "time": 78.02954545454546,
          "velocity": 1
        },
        {
          "duration": 0.6795454545454618,
          "durationTicks": 299,
          "midi": 63,
          "name": "D#4",
          "ticks": 34844,
          "time": 79.19090909090909,
          "velocity": 1
        },
        {
          "duration": 0.12045454545454959,
          "durationTicks": 53,
          "midi": 72,
          "name": "C5",
          "ticks": 36718,
          "time": 83.45,
          "velocity": 1
        },
        {
          "duration": 0.2795454545454561,
          "durationTicks": 123,
          "midi": 70,
          "name": "A#4",
          "ticks": 36819,
          "time": 83.67954545454545,
          "velocity": 1
        },
        {
          "duration": 1.229545454545459,
          "durationTicks": 541,
          "midi": 68,
          "name": "G#4",
          "ticks": 38777,
          "time": 88.12954545454545,
          "velocity": 1
        },
        {
          "duration": 0.22954545454545894,
          "durationTicks": 101,
          "midi": 66,
          "name": "F#4",
          "ticks": 39314,
          "time": 89.35,
          "velocity": 1
        },
        {
          "duration": 0.17045454545454675,
          "durationTicks": 75,
          "midi": 63,
          "name": "D#4",
          "ticks": 39428,
          "time": 89.60909090909091,
          "velocity": 1
        },
        {
          "duration": 0.32954545454545325,
          "durationTicks": 145,
          "midi": 65,
          "name": "F4",
          "ticks": 39503,
          "time": 89.77954545454546,
          "velocity": 1
        },
        {
          "duration": 0.25,
          "durationTicks": 110,
          "midi": 61,
          "name": "C#4",
          "ticks": 41461,
          "time": 94.22954545454546,
          "velocity": 1
        },
        {
          "duration": 1.770454545454541,
          "durationTicks": 779,
          "midi": 68,
          "name": "G#4",
          "ticks": 41571,
          "time": 94.47954545454546,
          "velocity": 1
        },
        {
          "duration": 0.09090909090907928,
          "durationTicks": 40,
          "midi": 65,
          "name": "F4",
          "ticks": 41646,
          "time": 94.65,
          "velocity": 1
        },
        {
          "duration": 0.13863636363636545,
          "durationTicks": 61,
          "midi": 63,
          "name": "D#4",
          "ticks": 41686,
          "time": 94.74090909090908,
          "velocity": 1
        },
        {
          "duration": 0.16136363636364592,
          "durationTicks": 71,
          "midi": 58,
          "name": "A#3",
          "ticks": 41747,
          "time": 94.87954545454545,
          "velocity": 1
        },
        {
          "duration": 0.07954545454545325,
          "durationTicks": 35,
          "midi": 56,
          "name": "G#3",
          "ticks": 41818,
          "time": 95.0409090909091,
          "velocity": 1
        },
        {
          "duration": 0.07954545454545325,
          "durationTicks": 35,
          "midi": 53,
          "name": "F3",
          "ticks": 41853,
          "time": 95.12045454545455,
          "velocity": 1
        },
        {
          "duration": 0.12045454545454959,
          "durationTicks": 53,
          "midi": 51,
          "name": "D#3",
          "ticks": 41888,
          "time": 95.2,
          "velocity": 1
        },
        {
          "duration": 0.08863636363635408,
          "durationTicks": 39,
          "midi": 49,
          "name": "C#3",
          "ticks": 41941,
          "time": 95.32045454545455,
          "velocity": 1
        },
        {
          "duration": 0.11136363636363455,
          "durationTicks": 49,
          "midi": 51,
          "name": "D#3",
          "ticks": 41980,
          "time": 95.4090909090909,
          "velocity": 1
        },
        {
          "duration": 0.10000000000000853,
          "durationTicks": 44,
          "midi": 53,
          "name": "F3",
          "ticks": 42029,
          "time": 95.52045454545454,
          "velocity": 1
        },
        {
          "duration": 0.12045454545453538,
          "durationTicks": 53,
          "midi": 56,
          "name": "G#3",
          "ticks": 42073,
          "time": 95.62045454545455,
          "velocity": 1
        },
        {
          "duration": 0.06818181818182723,
          "durationTicks": 30,
          "midi": 51,
          "name": "D#3",
          "ticks": 42126,
          "time": 95.74090909090908,
          "velocity": 1
        },
        {
          "duration": 0.4113636363636317,
          "durationTicks": 181,
          "midi": 49,
          "name": "C#3",
          "ticks": 42156,
          "time": 95.80909090909091,
          "velocity": 1
        },
        {
          "duration": 0.029545454545456096,
          "durationTicks": 13,
          "midi": 51,
          "name": "D#3",
          "ticks": 42337,
          "time": 96.22045454545454,
          "velocity": 1
        },
        {
          "duration": 0.4386363636363626,
          "durationTicks": 193,
          "midi": 73,
          "name": "C#5",
          "ticks": 46979,
          "time": 106.77045454545454,
          "velocity": 1
        },
        {
          "duration": 0.3386363636363683,
          "durationTicks": 149,
          "midi": 75,
          "name": "D#5",
          "ticks": 47155,
          "time": 107.17045454545455,
          "velocity": 1
        },
        {
          "duration": 0.9500000000000028,
          "durationTicks": 418,
          "midi": 68,
          "name": "G#4",
          "ticks": 47340,
          "time": 107.5909090909091,
          "velocity": 1
        },
        {
          "duration": 0.09090909090909349,
          "durationTicks": 40,
          "midi": 61,
          "name": "C#4",
          "ticks": 51440,
          "time": 116.9090909090909,
          "velocity": 1
        },
        {
          "duration": 0.1590909090909065,
          "durationTicks": 70,
          "midi": 68,
          "name": "G#4",
          "ticks": 51555,
          "time": 117.17045454545455,
          "velocity": 1
        },
        {
          "duration": 0.1886363636363626,
          "durationTicks": 83,
          "midi": 63,
          "name": "D#4",
          "ticks": 51718,
          "time": 117.5409090909091,
          "velocity": 1
        },
        {
          "duration": 0.1886363636363626,
          "durationTicks": 83,
          "midi": 63,
          "name": "D#4",
          "ticks": 52158,
          "time": 118.5409090909091,
          "velocity": 1
        },
        {
          "duration": 0.1295454545454504,
          "durationTicks": 57,
          "midi": 63,
          "name": "D#4",
          "ticks": 57860,
          "time": 131.5,
          "velocity": 1
        },
        {
          "duration": 0.07045454545453822,
          "durationTicks": 31,
          "midi": 65,
          "name": "F4",
          "ticks": 57952,
          "time": 131.70909090909092,
          "velocity": 1
        },
        {
          "duration": 0.07045454545453822,
          "durationTicks": 31,
          "midi": 63,
          "name": "D#4",
          "ticks": 58036,
          "time": 131.9,
          "velocity": 1
        },
        {
          "duration": 0.07045454545453822,
          "durationTicks": 31,
          "midi": 61,
          "name": "C#4",
          "ticks": 58124,
          "time": 132.1,
          "velocity": 1
        },
        {
          "duration": 0.04999999999998295,
          "durationTicks": 22,
          "midi": 58,
          "name": "A#3",
          "ticks": 58216,
          "time": 132.3090909090909,
          "velocity": 1
        },
        {
          "duration": 0.1613636363636317,
          "durationTicks": 71,
          "midi": 63,
          "name": "D#4",
          "ticks": 58326,
          "time": 132.5590909090909,
          "velocity": 1
        },
        {
          "duration": 0.17045454545453254,
          "durationTicks": 75,
          "midi": 72,
          "name": "C5",
          "ticks": 62396,
          "time": 141.8090909090909,
          "velocity": 1
        },
        {
          "duration": 0.2204545454545439,
          "durationTicks": 97,
          "midi": 70,
          "name": "A#4",
          "ticks": 62493,
          "time": 142.02954545454546,
          "velocity": 1
        },
        {
          "duration": 0.32954545454543904,
          "durationTicks": 145,
          "midi": 68,
          "name": "G#4",
          "ticks": 62669,
          "time": 142.42954545454546,
          "velocity": 1
        },
        {
          "duration": 0.25,
          "durationTicks": 110,
          "midi": 65,
          "name": "F4",
          "ticks": 62845,
          "time": 142.82954545454547,
          "velocity": 1
        },
        {
          "duration": 0.11136363636362034,
          "durationTicks": 49,
          "midi": 72,
          "name": "C5",
          "ticks": 68116,
          "time": 154.8090909090909,
          "velocity": 1
        },
        {
          "duration": 0.30000000000001137,
          "durationTicks": 132,
          "midi": 70,
          "name": "A#4",
          "ticks": 68204,
          "time": 155.0090909090909,
          "velocity": 1
        },
        {
          "duration": 0.25,
          "durationTicks": 110,
          "midi": 68,
          "name": "G#4",
          "ticks": 68372,
          "time": 155.3909090909091,
          "velocity": 1
        },
        {
          "duration": 0.5295454545454561,
          "durationTicks": 233,
          "midi": 70,
          "name": "A#4",
          "ticks": 72138,
          "time": 163.95,
          "velocity": 1
        },
        {
          "duration": 0.12045454545454959,
          "durationTicks": 53,
          "midi": 72,
          "name": "C5",
          "ticks": 72389,
          "time": 164.52045454545456,
          "velocity": 1
        },
        {
          "duration": 0.30000000000001137,
          "durationTicks": 132,
          "midi": 70,
          "name": "A#4",
          "ticks": 72490,
          "time": 164.75,
          "velocity": 1
        },
        {
          "duration": 0.20909090909088945,
          "durationTicks": 92,
          "midi": 68,
          "name": "G#4",
          "ticks": 72666,
          "time": 165.15,
          "velocity": 1
        },
        {
          "duration": 0.29999999999998295,
          "durationTicks": 132,
          "midi": 65,
          "name": "F4",
          "ticks": 72842,
          "time": 165.55,
          "velocity": 1
        },
        {
          "duration": 0.0613636363636374,
          "durationTicks": 27,
          "midi": 61,
          "name": "C#4",
          "ticks": 74813,
          "time": 170.02954545454546,
          "velocity": 1
        },
        {
          "duration": 0.32954545454546746,
          "durationTicks": 145,
          "midi": 63,
          "name": "D#4",
          "ticks": 74985,
          "time": 170.42045454545453,
          "velocity": 1
        },
        {
          "duration": 0.3499999999999943,
          "durationTicks": 154,
          "midi": 65,
          "name": "F4",
          "ticks": 75170,
          "time": 170.8409090909091,
          "velocity": 1
        },
        {
          "duration": 0.3204545454545382,
          "durationTicks": 141,
          "midi": 61,
          "name": "C#4",
          "ticks": 75517,
          "time": 171.62954545454545,
          "velocity": 1
        },
        {
          "duration": 0.2795454545454561,
          "durationTicks": 123,
          "midi": 72,
          "name": "C5",
          "ticks": 78096,
          "time": 177.4909090909091,
          "velocity": 1
        },
        {
          "duration": 0.41136363636366013,
          "durationTicks": 181,
          "midi": 70,
          "name": "A#4",
          "ticks": 78201,
          "time": 177.72954545454544,
          "velocity": 1
        },
        {
          "duration": 0.04999999999998295,
          "durationTicks": 22,
          "midi": 68,
          "name": "G#4",
          "ticks": 78373,
          "time": 178.12045454545455,
          "velocity": 1
        },
        {
          "duration": 0.41136363636366013,
          "durationTicks": 181,
          "midi": 70,
          "name": "A#4",
          "ticks": 81228,
          "time": 184.6090909090909,
          "velocity": 1
        },
        {
          "duration": 0.41136363636366013,
          "durationTicks": 181,
          "midi": 73,
          "name": "C#5",
          "ticks": 81228,
          "time": 184.6090909090909,
          "velocity": 1
        },
        {
          "duration": 0.41136363636366013,
          "durationTicks": 181,
          "midi": 75,
          "name": "D#5",
          "ticks": 81228,
          "time": 184.6090909090909,
          "velocity": 1
        },
        {
          "duration": 0.41136363636366013,
          "durationTicks": 181,
          "midi": 77,
          "name": "F5",
          "ticks": 81228,
          "time": 184.6090909090909,
          "velocity": 1
        },
        {
          "duration": 0.19999999999998863,
          "durationTicks": 88,
          "midi": 75,
          "name": "D#5",
          "ticks": 81409,
          "time": 185.02045454545456,
          "velocity": 1
        },
        {
          "duration": 0.10909090909092356,
          "durationTicks": 48,
          "midi": 73,
          "name": "C#5",
          "ticks": 81488,
          "time": 185.2,
          "velocity": 1
        },
        {
          "duration": 0.11136363636362034,
          "durationTicks": 49,
          "midi": 70,
          "name": "A#4",
          "ticks": 81536,
          "time": 185.3090909090909,
          "velocity": 1
        },
        {
          "duration": 0.7295454545454447,
          "durationTicks": 321,
          "midi": 68,
          "name": "G#4",
          "ticks": 81677,
          "time": 185.62954545454545,
          "velocity": 1
        },
        {
          "duration": 0.20909090909088945,
          "durationTicks": 92,
          "midi": 61,
          "name": "C#4",
          "ticks": 86579,
          "time": 196.77045454545456,
          "velocity": 1
        },
        {
          "duration": 0.21136363636364308,
          "durationTicks": 93,
          "midi": 65,
          "name": "F4",
          "ticks": 86671,
          "time": 196.97954545454544,
          "velocity": 1
        },
        {
          "duration": 0.4000000000000057,
          "durationTicks": 176,
          "midi": 68,
          "name": "G#4",
          "ticks": 86764,
          "time": 197.1909090909091,
          "velocity": 1
        },
        {
          "duration": 0.4000000000000057,
          "durationTicks": 176,
          "midi": 73,
          "name": "C#5",
          "ticks": 86944,
          "time": 197.6,
          "velocity": 1
        },
        {
          "duration": 0.4000000000000057,
          "durationTicks": 176,
          "midi": 61,
          "name": "C#4",
          "ticks": 87120,
          "time": 198,
          "velocity": 1
        },
        {
          "duration": 0.19999999999998863,
          "durationTicks": 88,
          "midi": 68,
          "name": "G#4",
          "ticks": 87296,
          "time": 198.4,
          "velocity": 1
        },
        {
          "duration": 0.05000000000001137,
          "durationTicks": 22,
          "midi": 70,
          "name": "A#4",
          "ticks": 87384,
          "time": 198.6,
          "velocity": 1
        }
      ],
      "endOfTrackTicks": 87407
    },
    {
      "channel": 3,
      "controlChanges": {},
      "pitchBends": [],
      "instrument": {
        "family": "bass",
        "number": 33,
        "name": "electric bass (finger)"
      },
      "name": "",
      "notes": [
        {
          "duration": 2.3113636363636365,
          "durationTicks": 1017,
          "midi": 49,
          "name": "C#3",
          "ticks": 783,
          "time": 1.7795454545454545,
          "velocity": 1
        },
        {
          "duration": 0.788636363636364,
          "durationTicks": 347,
          "midi": 51,
          "name": "D#3",
          "ticks": 5056,
          "time": 11.49090909090909,
          "velocity": 1
        },
        {
          "duration": 0.3204545454545453,
          "durationTicks": 141,
          "midi": 68,
          "name": "G#4",
          "ticks": 6494,
          "time": 14.75909090909091,
          "velocity": 1
        },
        {
          "duration": 0.09999999999999964,
          "durationTicks": 44,
          "midi": 73,
          "name": "C#5",
          "ticks": 6662,
          "time": 15.14090909090909,
          "velocity": 1
        },
        {
          "duration": 0.20000000000000107,
          "durationTicks": 88,
          "midi": 73,
          "name": "C#5",
          "ticks": 6754,
          "time": 15.35,
          "velocity": 1
        },
        {
          "duration": 0.22045454545454568,
          "durationTicks": 97,
          "midi": 73,
          "name": "C#5",
          "ticks": 6851,
          "time": 15.570454545454545,
          "velocity": 1
        },
        {
          "duration": 0.020454545454544615,
          "durationTicks": 9,
          "midi": 56,
          "name": "G#3",
          "ticks": 7198,
          "time": 16.35909090909091,
          "velocity": 1
        },
        {
          "duration": 0.009090909090907928,
          "durationTicks": 4,
          "midi": 48,
          "name": "C3",
          "ticks": 7555,
          "time": 17.170454545454547,
          "velocity": 1
        },
        {
          "duration": 0.011363636363636687,
          "durationTicks": 5,
          "midi": 53,
          "name": "F3",
          "ticks": 7735,
          "time": 17.579545454545453,
          "velocity": 1
        },
        {
          "duration": 0.8204545454545453,
          "durationTicks": 361,
          "midi": 58,
          "name": "A#3",
          "ticks": 7911,
          "time": 17.979545454545455,
          "velocity": 1
        },
        {
          "duration": 0.5999999999999979,
          "durationTicks": 264,
          "midi": 75,
          "name": "D#5",
          "ticks": 8272,
          "time": 18.8,
          "velocity": 1
        },
        {
          "duration": 0.21136363636363598,
          "durationTicks": 93,
          "midi": 73,
          "name": "C#5",
          "ticks": 8628,
          "time": 19.60909090909091,
          "velocity": 1
        },
        {
          "duration": 0.22954545454545539,
          "durationTicks": 101,
          "midi": 72,
          "name": "C5",
          "ticks": 8721,
          "time": 19.820454545454545,
          "velocity": 1
        },
        {
          "duration": 0.37045454545454604,
          "durationTicks": 163,
          "midi": 68,
          "name": "G#4",
          "ticks": 8822,
          "time": 20.05,
          "velocity": 1
        },
        {
          "duration": 0.05909090909090864,
          "durationTicks": 26,
          "midi": 68,
          "name": "G#4",
          "ticks": 8985,
          "time": 20.420454545454547,
          "velocity": 1
        },
        {
          "duration": 0.0318181818181813,
          "durationTicks": 14,
          "midi": 75,
          "name": "D#5",
          "ticks": 11488,
          "time": 26.10909090909091,
          "velocity": 1
        },
        {
          "duration": 0.0318181818181813,
          "durationTicks": 14,
          "midi": 80,
          "name": "G#5",
          "ticks": 11488,
          "time": 26.10909090909091,
          "velocity": 1
        },
        {
          "duration": 0.04090909090908923,
          "durationTicks": 18,
          "midi": 84,
          "name": "C6",
          "ticks": 11488,
          "time": 26.10909090909091,
          "velocity": 1
        },
        {
          "duration": 0.038636363636364024,
          "durationTicks": 17,
          "midi": 84,
          "name": "C6",
          "ticks": 11678,
          "time": 26.54090909090909,
          "velocity": 1
        },
        {
          "duration": 0.01818181818181941,
          "durationTicks": 8,
          "midi": 87,
          "name": "D#6",
          "ticks": 11678,
          "time": 26.54090909090909,
          "velocity": 1
        },
        {
          "duration": 0.009090909090907928,
          "durationTicks": 4,
          "midi": 56,
          "name": "G#3",
          "ticks": 14784,
          "time": 33.6,
          "velocity": 1
        },
        {
          "duration": 0.009090909090907928,
          "durationTicks": 4,
          "midi": 56,
          "name": "G#3",
          "ticks": 14960,
          "time": 34,
          "velocity": 1
        },
        {
          "duration": 0.6090909090909093,
          "durationTicks": 268,
          "midi": 54,
          "name": "F#3",
          "ticks": 15048,
          "time": 34.2,
          "velocity": 1
        },
        {
          "duration": 0.20000000000000284,
          "durationTicks": 88,
          "midi": 49,
          "name": "C#3",
          "ticks": 18533,
          "time": 42.12045454545454,
          "velocity": 1
        },
        {
          "duration": 0.21136363636363598,
          "durationTicks": 93,
          "midi": 56,
          "name": "G#3",
          "ticks": 18616,
          "time": 42.30909090909091,
          "velocity": 1
        },
        {
          "duration": 1.1704545454545467,
          "durationTicks": 515,
          "midi": 56,
          "name": "G#3",
          "ticks": 18801,
          "time": 42.72954545454545,
          "velocity": 1
        },
        {
          "duration": 1.1409090909090907,
          "durationTicks": 502,
          "midi": 58,
          "name": "A#3",
          "ticks": 19320,
          "time": 43.90909090909091,
          "velocity": 1
        },
        {
          "duration": 0.19999999999999574,
          "durationTicks": 88,
          "midi": 56,
          "name": "G#3",
          "ticks": 20139,
          "time": 45.77045454545455,
          "velocity": 1
        },
        {
          "duration": 1.1295454545454575,
          "durationTicks": 497,
          "midi": 56,
          "name": "G#3",
          "ticks": 20227,
          "time": 45.970454545454544,
          "velocity": 1
        },
        {
          "duration": 1.2613636363636331,
          "durationTicks": 555,
          "midi": 54,
          "name": "F#3",
          "ticks": 20759,
          "time": 47.179545454545455,
          "velocity": 1
        },
        {
          "duration": 0.20909090909091077,
          "durationTicks": 92,
          "midi": 49,
          "name": "C#3",
          "ticks": 21393,
          "time": 48.62045454545454,
          "velocity": 1
        },
        {
          "duration": 0.14090909090909065,
          "durationTicks": 62,
          "midi": 49,
          "name": "C#3",
          "ticks": 21564,
          "time": 49.00909090909091,
          "velocity": 1
        },
        {
          "duration": 1.220454545454544,
          "durationTicks": 537,
          "midi": 53,
          "name": "F3",
          "ticks": 21652,
          "time": 49.20909090909091,
          "velocity": 1
        },
        {
          "duration": 0.7795454545454561,
          "durationTicks": 343,
          "midi": 51,
          "name": "D#3",
          "ticks": 22185,
          "time": 50.42045454545455,
          "velocity": 1
        },
        {
          "duration": 1.2386363636363598,
          "durationTicks": 545,
          "midi": 49,
          "name": "C#3",
          "ticks": 23615,
          "time": 53.67045454545455,
          "velocity": 1
        },
        {
          "duration": 0.21136363636363598,
          "durationTicks": 93,
          "midi": 49,
          "name": "C#3",
          "ticks": 24235,
          "time": 55.07954545454545,
          "velocity": 1
        },
        {
          "duration": 0.20909090909091788,
          "durationTicks": 92,
          "midi": 51,
          "name": "D#3",
          "ticks": 28512,
          "time": 64.8,
          "velocity": 1
        },
        {
          "duration": 0.5204545454545411,
          "durationTicks": 229,
          "midi": 56,
          "name": "G#3",
          "ticks": 28604,
          "time": 65.00909090909092,
          "velocity": 1
        },
        {
          "duration": 0.21136363636362887,
          "durationTicks": 93,
          "midi": 49,
          "name": "C#3",
          "ticks": 29946,
          "time": 68.05909090909091,
          "velocity": 1
        },
        {
          "duration": 0.19999999999998863,
          "durationTicks": 88,
          "midi": 56,
          "name": "G#3",
          "ticks": 30034,
          "time": 68.25909090909092,
          "velocity": 1
        },
        {
          "duration": 0.9704545454545439,
          "durationTicks": 427,
          "midi": 56,
          "name": "G#3",
          "ticks": 30210,
          "time": 68.6590909090909,
          "velocity": 1
        },
        {
          "duration": 1.411363636363646,
          "durationTicks": 621,
          "midi": 56,
          "name": "G#3",
          "ticks": 31552,
          "time": 71.7090909090909,
          "velocity": 1
        },
        {
          "duration": 1.229545454545459,
          "durationTicks": 541,
          "midi": 54,
          "name": "F#3",
          "ticks": 32177,
          "time": 73.12954545454545,
          "velocity": 1
        },
        {
          "duration": 0.011363636363626028,
          "durationTicks": 5,
          "midi": 53,
          "name": "F3",
          "ticks": 32894,
          "time": 74.75909090909092,
          "velocity": 1
        },
        {
          "duration": 0.16136363636364592,
          "durationTicks": 71,
          "midi": 53,
          "name": "F3",
          "ticks": 32982,
          "time": 74.9590909090909,
          "velocity": 1
        },
        {
          "duration": 1.1909090909090878,
          "durationTicks": 524,
          "midi": 53,
          "name": "F3",
          "ticks": 33070,
          "time": 75.1590909090909,
          "velocity": 1
        },
        {
          "duration": 0.2204545454545439,
          "durationTicks": 97,
          "midi": 51,
          "name": "D#3",
          "ticks": 33598,
          "time": 76.35909090909091,
          "velocity": 1
        },
        {
          "duration": 0.20000000000000284,
          "durationTicks": 88,
          "midi": 49,
          "name": "C#3",
          "ticks": 35653,
          "time": 81.02954545454546,
          "velocity": 1
        },
        {
          "duration": 0.19999999999998863,
          "durationTicks": 88,
          "midi": 56,
          "name": "G#3",
          "ticks": 35741,
          "time": 81.22954545454546,
          "velocity": 1
        },
        {
          "duration": 0.21136363636364308,
          "durationTicks": 93,
          "midi": 56,
          "name": "G#3",
          "ticks": 35829,
          "time": 81.42954545454545,
          "velocity": 1
        },
        {
          "duration": 0.009090909090915034,
          "durationTicks": 4,
          "midi": 56,
          "name": "G#3",
          "ticks": 35922,
          "time": 81.64090909090909,
          "velocity": 1
        },
        {
          "duration": 1.1795454545454618,
          "durationTicks": 519,
          "midi": 58,
          "name": "A#3",
          "ticks": 36467,
          "time": 82.87954545454545,
          "velocity": 1
        },
        {
          "duration": 0.20000000000000284,
          "durationTicks": 88,
          "midi": 53,
          "name": "F3",
          "ticks": 37079,
          "time": 84.27045454545454,
          "velocity": 1
        },
        {
          "duration": 0.20909090909090366,
          "durationTicks": 92,
          "midi": 56,
          "name": "G#3",
          "ticks": 37167,
          "time": 84.47045454545454,
          "velocity": 1
        },
        {
          "duration": 0.15000000000000568,
          "durationTicks": 66,
          "midi": 56,
          "name": "G#3",
          "ticks": 37259,
          "time": 84.67954545454545,
          "velocity": 1
        },
        {
          "duration": 1.020454545454541,
          "durationTicks": 449,
          "midi": 56,
          "name": "G#3",
          "ticks": 37343,
          "time": 84.87045454545455,
          "velocity": 1
        },
        {
          "duration": 1.25,
          "durationTicks": 550,
          "midi": 54,
          "name": "F#3",
          "ticks": 37884,
          "time": 86.1,
          "velocity": 1
        },
        {
          "duration": 0.24090909090908497,
          "durationTicks": 106,
          "midi": 49,
          "name": "C#3",
          "ticks": 38504,
          "time": 87.50909090909092,
          "velocity": 1
        },
        {
          "duration": 0.13863636363636545,
          "durationTicks": 61,
          "midi": 48,
          "name": "C3",
          "ticks": 38685,
          "time": 87.92045454545455,
          "velocity": 1
        },
        {
          "duration": 1.2295454545454447,
          "durationTicks": 541,
          "midi": 53,
          "name": "F3",
          "ticks": 38773,
          "time": 88.12045454545455,
          "velocity": 1
        },
        {
          "duration": 0.7681818181818159,
          "durationTicks": 338,
          "midi": 51,
          "name": "D#3",
          "ticks": 39310,
          "time": 89.3409090909091,
          "velocity": 1
        },
        {
          "duration": 0.6090909090908951,
          "durationTicks": 268,
          "midi": 56,
          "name": "G#3",
          "ticks": 40731,
          "time": 92.57045454545455,
          "velocity": 1
        },
        {
          "duration": 1.0204545454545553,
          "durationTicks": 449,
          "midi": 56,
          "name": "G#3",
          "ticks": 40999,
          "time": 93.17954545454545,
          "velocity": 1
        },
        {
          "duration": 0.42045454545454675,
          "durationTicks": 185,
          "midi": 49,
          "name": "C#3",
          "ticks": 42165,
          "time": 95.82954545454545,
          "velocity": 1
        },
        {
          "duration": 1.270454545454541,
          "durationTicks": 559,
          "midi": 58,
          "name": "A#3",
          "ticks": 43595,
          "time": 99.07954545454545,
          "velocity": 1
        },
        {
          "duration": 0.9318181818181728,
          "durationTicks": 410,
          "midi": 51,
          "name": "D#3",
          "ticks": 46446,
          "time": 105.55909090909091,
          "velocity": 1
        },
        {
          "duration": 1.009090909090915,
          "durationTicks": 444,
          "midi": 73,
          "name": "C#5",
          "ticks": 49562,
          "time": 112.64090909090909,
          "velocity": 1
        },
        {
          "duration": 1.009090909090915,
          "durationTicks": 444,
          "midi": 77,
          "name": "F5",
          "ticks": 49562,
          "time": 112.64090909090909,
          "velocity": 1
        },
        {
          "duration": 1.009090909090915,
          "durationTicks": 444,
          "midi": 82,
          "name": "A#5",
          "ticks": 49562,
          "time": 112.64090909090909,
          "velocity": 1
        },
        {
          "duration": 1.0295454545454419,
          "durationTicks": 453,
          "midi": 72,
          "name": "C5",
          "ticks": 50006,
          "time": 113.65,
          "velocity": 1
        },
        {
          "duration": 1.0295454545454419,
          "durationTicks": 453,
          "midi": 75,
          "name": "D#5",
          "ticks": 50006,
          "time": 113.65,
          "velocity": 1
        },
        {
          "duration": 1.0295454545454419,
          "durationTicks": 453,
          "midi": 80,
          "name": "G#5",
          "ticks": 50006,
          "time": 113.65,
          "velocity": 1
        },
        {
          "duration": 0.8409090909090793,
          "durationTicks": 370,
          "midi": 49,
          "name": "C#3",
          "ticks": 53574,
          "time": 121.75909090909092,
          "velocity": 1
        },
        {
          "duration": 1.2181818181818187,
          "durationTicks": 536,
          "midi": 56,
          "name": "G#3",
          "ticks": 54292,
          "time": 123.39090909090909,
          "velocity": 1
        },
        {
          "duration": 0.8295454545454533,
          "durationTicks": 365,
          "midi": 58,
          "name": "A#3",
          "ticks": 55000,
          "time": 125,
          "velocity": 1
        },
        {
          "duration": 0.3499999999999943,
          "durationTicks": 154,
          "midi": 56,
          "name": "G#3",
          "ticks": 55713,
          "time": 126.62045454545455,
          "velocity": 1
        },
        {
          "duration": 0.6090909090909236,
          "durationTicks": 268,
          "midi": 49,
          "name": "C#3",
          "ticks": 59554,
          "time": 135.35,
          "velocity": 1
        },
        {
          "duration": 0.21136363636364308,
          "durationTicks": 93,
          "midi": 49,
          "name": "C#3",
          "ticks": 59910,
          "time": 136.1590909090909,
          "velocity": 1
        },
        {
          "duration": 0.19999999999998863,
          "durationTicks": 88,
          "midi": 56,
          "name": "G#3",
          "ticks": 60003,
          "time": 136.37045454545455,
          "velocity": 1
        },
        {
          "duration": 0.4386363636363626,
          "durationTicks": 193,
          "midi": 56,
          "name": "G#3",
          "ticks": 60179,
          "time": 136.77045454545456,
          "velocity": 1
        },
        {
          "duration": 1.220454545454544,
          "durationTicks": 537,
          "midi": 49,
          "name": "C#3",
          "ticks": 64992,
          "time": 147.70909090909092,
          "velocity": 1
        },
        {
          "duration": 0.2204545454545439,
          "durationTicks": 97,
          "midi": 49,
          "name": "C#3",
          "ticks": 65617,
          "time": 149.12954545454545,
          "velocity": 1
        },
        {
          "duration": 0.21136363636364308,
          "durationTicks": 93,
          "midi": 56,
          "name": "G#3",
          "ticks": 65718,
          "time": 149.3590909090909,
          "velocity": 1
        },
        {
          "duration": 1.1704545454545325,
          "durationTicks": 515,
          "midi": 56,
          "name": "G#3",
          "ticks": 65890,
          "time": 149.75,
          "velocity": 1
        },
        {
          "duration": 0.5909090909090935,
          "durationTicks": 260,
          "midi": 58,
          "name": "A#3",
          "ticks": 66422,
          "time": 150.95909090909092,
          "velocity": 1
        },
        {
          "duration": 1.238636363636374,
          "durationTicks": 545,
          "midi": 54,
          "name": "F#3",
          "ticks": 67844,
          "time": 154.1909090909091,
          "velocity": 1
        },
        {
          "duration": 0.03181818181820972,
          "durationTicks": 14,
          "midi": 54,
          "name": "F#3",
          "ticks": 68468,
          "time": 155.6090909090909,
          "velocity": 1
        },
        {
          "duration": 0.05909090909091219,
          "durationTicks": 26,
          "midi": 53,
          "name": "F3",
          "ticks": 72763,
          "time": 165.37045454545455,
          "velocity": 1
        },
        {
          "duration": 0.05909090909088377,
          "durationTicks": 26,
          "midi": 56,
          "name": "G#3",
          "ticks": 72842,
          "time": 165.55,
          "velocity": 1
        },
        {
          "duration": 1.3704545454545496,
          "durationTicks": 603,
          "midi": 56,
          "name": "G#3",
          "ticks": 72943,
          "time": 165.77954545454546,
          "velocity": 1
        },
        {
          "duration": 1.238636363636374,
          "durationTicks": 545,
          "midi": 54,
          "name": "F#3",
          "ticks": 73555,
          "time": 167.17045454545453,
          "velocity": 1
        },
        {
          "duration": 0.20909090909091788,
          "durationTicks": 92,
          "midi": 54,
          "name": "F#3",
          "ticks": 74184,
          "time": 168.6,
          "velocity": 1
        },
        {
          "duration": 0.17045454545456096,
          "durationTicks": 75,
          "midi": 49,
          "name": "C#3",
          "ticks": 74364,
          "time": 169.0090909090909,
          "velocity": 1
        },
        {
          "duration": 1.1999999999999886,
          "durationTicks": 528,
          "midi": 53,
          "name": "F3",
          "ticks": 74452,
          "time": 169.20909090909092,
          "velocity": 1
        },
        {
          "duration": 1.2295454545454731,
          "durationTicks": 541,
          "midi": 51,
          "name": "D#3",
          "ticks": 74985,
          "time": 170.42045454545453,
          "velocity": 1
        },
        {
          "duration": 0.1886363636363626,
          "durationTicks": 83,
          "midi": 51,
          "name": "D#3",
          "ticks": 75610,
          "time": 171.8409090909091,
          "velocity": 1
        },
        {
          "duration": 0.19999999999998863,
          "durationTicks": 88,
          "midi": 49,
          "name": "C#3",
          "ticks": 77040,
          "time": 175.0909090909091,
          "velocity": 1
        },
        {
          "duration": 0.20000000000001705,
          "durationTicks": 88,
          "midi": 56,
          "name": "G#3",
          "ticks": 77128,
          "time": 175.29090909090908,
          "velocity": 1
        },
        {
          "duration": 0.4295454545454618,
          "durationTicks": 189,
          "midi": 56,
          "name": "G#3",
          "ticks": 77304,
          "time": 175.6909090909091,
          "velocity": 1
        },
        {
          "duration": 1.1999999999999886,
          "durationTicks": 528,
          "midi": 58,
          "name": "A#3",
          "ticks": 77849,
          "time": 176.92954545454546,
          "velocity": 1
        },
        {
          "duration": 0.20909090909091788,
          "durationTicks": 92,
          "midi": 54,
          "name": "F#3",
          "ticks": 79891,
          "time": 181.57045454545454,
          "velocity": 1
        },
        {
          "duration": 0.1909090909090878,
          "durationTicks": 84,
          "midi": 53,
          "name": "F3",
          "ticks": 79983,
          "time": 181.77954545454546,
          "velocity": 1
        },
        {
          "duration": 0.19999999999998863,
          "durationTicks": 88,
          "midi": 48,
          "name": "C3",
          "ticks": 80067,
          "time": 181.97045454545454,
          "velocity": 1
        },
        {
          "duration": 0.10000000000002274,
          "durationTicks": 44,
          "midi": 49,
          "name": "C#3",
          "ticks": 80155,
          "time": 182.17045454545453,
          "velocity": 1
        },
        {
          "duration": 0.9295454545454618,
          "durationTicks": 409,
          "midi": 51,
          "name": "D#3",
          "ticks": 80687,
          "time": 183.37954545454545,
          "velocity": 1
        },
        {
          "duration": 1.3000000000000114,
          "durationTicks": 572,
          "midi": 49,
          "name": "C#3",
          "ticks": 82117,
          "time": 186.62954545454545,
          "velocity": 1
        },
        {
          "duration": 0.3499999999999943,
          "durationTicks": 154,
          "midi": 49,
          "name": "C#3",
          "ticks": 82746,
          "time": 188.0590909090909,
          "velocity": 1
        },
        {
          "duration": 1.211363636363643,
          "durationTicks": 533,
          "midi": 54,
          "name": "F#3",
          "ticks": 84977,
          "time": 193.12954545454545,
          "velocity": 1
        },
        {
          "duration": 0.20000000000001705,
          "durationTicks": 88,
          "midi": 51,
          "name": "D#3",
          "ticks": 87028,
          "time": 197.79090909090908,
          "velocity": 1
        },
        {
          "duration": 2.6999999999999886,
          "durationTicks": 1188,
          "midi": 56,
          "name": "G#3",
          "ticks": 87120,
          "time": 198,
          "velocity": 1
        }
      ],
      "endOfTrackTicks": 88309
    },
    {
      "channel": 4,
      "controlChanges": {},
      "pitchBends": [],
      "instrument": {
        "family": "synth pad",
        "number": 88,
        "name": "pad 1 (new age)"
      },
      "name": "",
      "notes": [
        {
          "duration": 1.8818181818181818,
          "durationTicks": 828,
          "midi": 68,
          "name": "G#4",
          "ticks": 972,
          "time": 2.209090909090909,
          "velocity": 1
        },
        {
          "duration": 1.1295454545454504,
          "durationTicks": 497,
          "midi": 46,
          "name": "A#2",
          "ticks": 19325,
          "time": 43.92045454545455,
          "velocity": 1
        },
        {
          "duration": 1.9500000000000028,
          "durationTicks": 858,
          "midi": 56,
          "name": "G#3",
          "ticks": 19866,
          "time": 45.15,
          "velocity": 1
        },
        {
          "duration": 0.20909090909091077,
          "durationTicks": 92,
          "midi": 68,
          "name": "G#4",
          "ticks": 22546,
          "time": 51.24090909090909,
          "velocity": 1
        },
        {
          "duration": 0.2204545454545439,
          "durationTicks": 97,
          "midi": 61,
          "name": "C#4",
          "ticks": 22638,
          "time": 51.45,
          "velocity": 1
        },
        {
          "duration": 0.22954545454545183,
          "durationTicks": 101,
          "midi": 61,
          "name": "C#4",
          "ticks": 22735,
          "time": 51.67045454545455,
          "velocity": 1
        },
        {
          "duration": 0.3999999999999986,
          "durationTicks": 176,
          "midi": 63,
          "name": "D#4",
          "ticks": 22915,
          "time": 52.07954545454545,
          "velocity": 1
        },
        {
          "duration": 0.3500000000000014,
          "durationTicks": 154,
          "midi": 66,
          "name": "F#4",
          "ticks": 23096,
          "time": 52.49090909090909,
          "velocity": 1
        },
        {
          "duration": 0.39090909090909065,
          "durationTicks": 172,
          "midi": 68,
          "name": "G#4",
          "ticks": 23254,
          "time": 52.85,
          "velocity": 1
        },
        {
          "duration": 0.3704545454545496,
          "durationTicks": 163,
          "midi": 63,
          "name": "D#4",
          "ticks": 23263,
          "time": 52.87045454545454,
          "velocity": 1
        },
        {
          "duration": 0.4090909090909065,
          "durationTicks": 180,
          "midi": 61,
          "name": "C#4",
          "ticks": 28970,
          "time": 65.8409090909091,
          "velocity": 1
        },
        {
          "duration": 0.4000000000000057,
          "durationTicks": 176,
          "midi": 63,
          "name": "D#4",
          "ticks": 29150,
          "time": 66.25,
          "velocity": 1
        },
        {
          "duration": 0.9295454545454476,
          "durationTicks": 409,
          "midi": 68,
          "name": "G#4",
          "ticks": 29326,
          "time": 66.65,
          "velocity": 1
        },
        {
          "duration": 0.549999999999983,
          "durationTicks": 242,
          "midi": 61,
          "name": "C#4",
          "ticks": 64636,
          "time": 146.9,
          "velocity": 1
        },
        {
          "duration": 1.779545454545456,
          "durationTicks": 783,
          "midi": 61,
          "name": "C#4",
          "ticks": 82117,
          "time": 186.62954545454545,
          "velocity": 1
        },
        {
          "duration": 1.779545454545456,
          "durationTicks": 783,
          "midi": 65,
          "name": "F4",
          "ticks": 82117,
          "time": 186.62954545454545,
          "velocity": 1
        },
        {
          "duration": 0.32954545454543904,
          "durationTicks": 145,
          "midi": 68,
          "name": "G#4",
          "ticks": 82755,
          "time": 188.07954545454547,
          "velocity": 1
        },
        {
          "duration": 0.1295454545454504,
          "durationTicks": 57,
          "midi": 73,
          "name": "C#5",
          "ticks": 82843,
          "time": 188.27954545454546,
          "velocity": 1
        }
      ],
      "endOfTrackTicks": 82901
    },
    {
      "channel": 5,
      "controlChanges": {},
      "pitchBends": [],
      "instrument": {
        "family": "guitar",
        "number": 24,
        "name": "acoustic guitar (nylon)"
      },
      "name": "",
      "notes": [
        {
          "duration": 0.8181818181818183,
          "durationTicks": 360,
          "midi": 56,
          "name": "G#3",
          "ticks": 1844,
          "time": 4.1909090909090905,
          "velocity": 1
        },
        {
          "duration": 0.8090909090909086,
          "durationTicks": 356,
          "midi": 51,
          "name": "D#3",
          "ticks": 1848,
          "time": 4.2,
          "velocity": 1
        },
        {
          "duration": 0.1999999999999993,
          "durationTicks": 88,
          "midi": 63,
          "name": "D#4",
          "ticks": 2116,
          "time": 4.8090909090909095,
          "velocity": 1
        },
        {
          "duration": 1.6000000000000005,
          "durationTicks": 704,
          "midi": 46,
          "name": "A#2",
          "ticks": 2204,
          "time": 5.009090909090909,
          "velocity": 1
        },
        {
          "duration": 0.788636363636364,
          "durationTicks": 347,
          "midi": 61,
          "name": "C#4",
          "ticks": 2209,
          "time": 5.0204545454545455,
          "velocity": 1
        },
        {
          "duration": 0.17954545454545467,
          "durationTicks": 79,
          "midi": 53,
          "name": "F3",
          "ticks": 2301,
          "time": 5.2295454545454545,
          "velocity": 1
        },
        {
          "duration": 1.2000000000000002,
          "durationTicks": 528,
          "midi": 53,
          "name": "F3",
          "ticks": 2380,
          "time": 5.409090909090909,
          "velocity": 1
        },
        {
          "duration": 0.5204545454545455,
          "durationTicks": 229,
          "midi": 58,
          "name": "A#3",
          "ticks": 2473,
          "time": 5.620454545454545,
          "velocity": 1
        },
        {
          "duration": 0.75,
          "durationTicks": 330,
          "midi": 61,
          "name": "C#4",
          "ticks": 2556,
          "time": 5.8090909090909095,
          "velocity": 1
        },
        {
          "duration": 0.7704545454545455,
          "durationTicks": 339,
          "midi": 56,
          "name": "G#3",
          "ticks": 2561,
          "time": 5.820454545454545,
          "velocity": 1
        },
        {
          "duration": 1.9409090909090914,
          "durationTicks": 854,
          "midi": 80,
          "name": "G#5",
          "ticks": 2750,
          "time": 6.25,
          "velocity": 1
        },
        {
          "duration": 1.5613636363636365,
          "durationTicks": 687,
          "midi": 44,
          "name": "G#2",
          "ticks": 2917,
          "time": 6.629545454545455,
          "velocity": 1
        },
        {
          "duration": 0.37954545454545396,
          "durationTicks": 167,
          "midi": 60,
          "name": "C4",
          "ticks": 2917,
          "time": 6.629545454545455,
          "velocity": 1
        },
        {
          "duration": 0.8295454545454541,
          "durationTicks": 365,
          "midi": 77,
          "name": "F5",
          "ticks": 2926,
          "time": 6.65,
          "velocity": 1
        },
        {
          "duration": 1.161363636363637,
          "durationTicks": 511,
          "midi": 51,
          "name": "D#3",
          "ticks": 3093,
          "time": 7.029545454545454,
          "velocity": 1
        },
        {
          "duration": 0.7613636363636367,
          "durationTicks": 335,
          "midi": 60,
          "name": "C4",
          "ticks": 3269,
          "time": 7.429545454545455,
          "velocity": 1
        },
        {
          "duration": 2.3,
          "durationTicks": 1012,
          "midi": 65,
          "name": "F4",
          "ticks": 3274,
          "time": 7.4409090909090905,
          "velocity": 1
        },
        {
          "duration": 0.7113636363636369,
          "durationTicks": 313,
          "midi": 77,
          "name": "F5",
          "ticks": 3291,
          "time": 7.4795454545454545,
          "velocity": 1
        },
        {
          "duration": 1.4909090909090903,
          "durationTicks": 656,
          "midi": 42,
          "name": "F#2",
          "ticks": 3630,
          "time": 8.25,
          "velocity": 1
        },
        {
          "duration": 0.12045454545454604,
          "durationTicks": 53,
          "midi": 54,
          "name": "F#3",
          "ticks": 3766,
          "time": 8.559090909090909,
          "velocity": 1
        },
        {
          "duration": 1.1613636363636353,
          "durationTicks": 511,
          "midi": 49,
          "name": "C#3",
          "ticks": 3775,
          "time": 8.579545454545455,
          "velocity": 1
        },
        {
          "duration": 1.0613636363636356,
          "durationTicks": 467,
          "midi": 54,
          "name": "F#3",
          "ticks": 3819,
          "time": 8.679545454545455,
          "velocity": 1
        },
        {
          "duration": 0.6818181818181817,
          "durationTicks": 300,
          "midi": 58,
          "name": "A#3",
          "ticks": 3986,
          "time": 9.059090909090909,
          "velocity": 1
        },
        {
          "duration": 0.6613636363636353,
          "durationTicks": 291,
          "midi": 61,
          "name": "C#4",
          "ticks": 3995,
          "time": 9.079545454545455,
          "velocity": 1
        },
        {
          "duration": 0.37045454545454426,
          "durationTicks": 163,
          "midi": 41,
          "name": "F2",
          "ticks": 4343,
          "time": 9.870454545454546,
          "velocity": 1
        },
        {
          "duration": 1.1795454545454547,
          "durationTicks": 519,
          "midi": 80,
          "name": "G#5",
          "ticks": 4528,
          "time": 10.290909090909091,
          "velocity": 1
        },
        {
          "duration": 0.8000000000000007,
          "durationTicks": 352,
          "midi": 77,
          "name": "F5",
          "ticks": 4695,
          "time": 10.670454545454545,
          "velocity": 1
        },
        {
          "duration": 0.7795454545454543,
          "durationTicks": 343,
          "midi": 56,
          "name": "G#3",
          "ticks": 4704,
          "time": 10.690909090909091,
          "velocity": 1
        },
        {
          "duration": 0.7795454545454543,
          "durationTicks": 343,
          "midi": 60,
          "name": "C4",
          "ticks": 4704,
          "time": 10.690909090909091,
          "velocity": 1
        },
        {
          "duration": 0.7795454545454543,
          "durationTicks": 343,
          "midi": 63,
          "name": "D#4",
          "ticks": 4704,
          "time": 10.690909090909091,
          "velocity": 1
        },
        {
          "duration": 1.6090909090909093,
          "durationTicks": 708,
          "midi": 51,
          "name": "D#3",
          "ticks": 5056,
          "time": 11.49090909090909,
          "velocity": 1
        },
        {
          "duration": 1.6090909090909093,
          "durationTicks": 708,
          "midi": 61,
          "name": "C#4",
          "ticks": 5056,
          "time": 11.49090909090909,
          "velocity": 1
        },
        {
          "duration": 0.7704545454545446,
          "durationTicks": 339,
          "midi": 39,
          "name": "D#2",
          "ticks": 5064,
          "time": 11.50909090909091,
          "velocity": 1
        },
        {
          "duration": 0.75,
          "durationTicks": 330,
          "midi": 75,
          "name": "D#5",
          "ticks": 5073,
          "time": 11.529545454545454,
          "velocity": 1
        },
        {
          "duration": 0.40000000000000036,
          "durationTicks": 176,
          "midi": 56,
          "name": "G#3",
          "ticks": 5227,
          "time": 11.879545454545454,
          "velocity": 1
        },
        {
          "duration": 0.8090909090909086,
          "durationTicks": 356,
          "midi": 44,
          "name": "G#2",
          "ticks": 5764,
          "time": 13.1,
          "velocity": 1
        },
        {
          "duration": 0.8090909090909086,
          "durationTicks": 356,
          "midi": 60,
          "name": "C4",
          "ticks": 5764,
          "time": 13.1,
          "velocity": 1
        },
        {
          "duration": 0.7795454545454543,
          "durationTicks": 343,
          "midi": 56,
          "name": "G#3",
          "ticks": 5777,
          "time": 13.129545454545454,
          "velocity": 1
        },
        {
          "duration": 0.14999999999999858,
          "durationTicks": 66,
          "midi": 56,
          "name": "G#3",
          "ticks": 15695,
          "time": 35.67045454545455,
          "velocity": 1
        },
        {
          "duration": 1.038636363636364,
          "durationTicks": 457,
          "midi": 53,
          "name": "F3",
          "ticks": 15761,
          "time": 35.820454545454545,
          "velocity": 1
        },
        {
          "duration": 1.038636363636364,
          "durationTicks": 457,
          "midi": 56,
          "name": "G#3",
          "ticks": 15761,
          "time": 35.820454545454545,
          "velocity": 1
        },
        {
          "duration": 1.038636363636364,
          "durationTicks": 457,
          "midi": 60,
          "name": "C4",
          "ticks": 15761,
          "time": 35.820454545454545,
          "velocity": 1
        },
        {
          "duration": 1.038636363636364,
          "durationTicks": 457,
          "midi": 65,
          "name": "F4",
          "ticks": 15761,
          "time": 35.820454545454545,
          "velocity": 1
        },
        {
          "duration": 0.35909090909090935,
          "durationTicks": 158,
          "midi": 68,
          "name": "G#4",
          "ticks": 19862,
          "time": 45.14090909090909,
          "velocity": 1
        },
        {
          "duration": 0.2204545454545439,
          "durationTicks": 97,
          "midi": 58,
          "name": "A#3",
          "ticks": 20315,
          "time": 46.17045454545455,
          "velocity": 1
        },
        {
          "duration": 0.24090909090908497,
          "durationTicks": 106,
          "midi": 61,
          "name": "C#4",
          "ticks": 20407,
          "time": 46.37954545454546,
          "velocity": 1
        },
        {
          "duration": 0.1909090909090878,
          "durationTicks": 84,
          "midi": 58,
          "name": "A#3",
          "ticks": 20508,
          "time": 46.60909090909091,
          "velocity": 1
        },
        {
          "duration": 0.1613636363636317,
          "durationTicks": 71,
          "midi": 61,
          "name": "C#4",
          "ticks": 20583,
          "time": 46.779545454545456,
          "velocity": 1
        },
        {
          "duration": 0.12045454545454959,
          "durationTicks": 53,
          "midi": 63,
          "name": "D#4",
          "ticks": 20671,
          "time": 46.97954545454545,
          "velocity": 1
        },
        {
          "duration": 1.229545454545459,
          "durationTicks": 541,
          "midi": 42,
          "name": "F#2",
          "ticks": 26466,
          "time": 60.15,
          "velocity": 1
        },
        {
          "duration": 1.229545454545459,
          "durationTicks": 541,
          "midi": 49,
          "name": "C#3",
          "ticks": 26466,
          "time": 60.15,
          "velocity": 1
        },
        {
          "duration": 0.9000000000000057,
          "durationTicks": 396,
          "midi": 68,
          "name": "G#4",
          "ticks": 31632,
          "time": 71.89090909090909,
          "velocity": 1
        },
        {
          "duration": 0.15000000000000568,
          "durationTicks": 66,
          "midi": 73,
          "name": "C#5",
          "ticks": 32019,
          "time": 72.77045454545454,
          "velocity": 1
        },
        {
          "duration": 0.17954545454544757,
          "durationTicks": 79,
          "midi": 54,
          "name": "F#3",
          "ticks": 32358,
          "time": 73.5409090909091,
          "velocity": 1
        },
        {
          "duration": 0.1886363636363626,
          "durationTicks": 83,
          "midi": 70,
          "name": "A#4",
          "ticks": 42434,
          "time": 96.44090909090909,
          "velocity": 1
        },
        {
          "duration": 0.040909090909096335,
          "durationTicks": 18,
          "midi": 68,
          "name": "G#4",
          "ticks": 42517,
          "time": 96.62954545454545,
          "velocity": 1
        },
        {
          "duration": 0.4000000000000057,
          "durationTicks": 176,
          "midi": 73,
          "name": "C#5",
          "ticks": 42530,
          "time": 96.6590909090909,
          "velocity": 1
        },
        {
          "duration": 0.24090909090909918,
          "durationTicks": 106,
          "midi": 70,
          "name": "A#4",
          "ticks": 42702,
          "time": 97.05,
          "velocity": 1
        },
        {
          "duration": 0.2204545454545439,
          "durationTicks": 97,
          "midi": 68,
          "name": "G#4",
          "ticks": 42799,
          "time": 97.27045454545454,
          "velocity": 1
        },
        {
          "duration": 0.431818181818187,
          "durationTicks": 190,
          "midi": 73,
          "name": "C#5",
          "ticks": 42882,
          "time": 97.4590909090909,
          "velocity": 1
        },
        {
          "duration": 0.4409090909090878,
          "durationTicks": 194,
          "midi": 80,
          "name": "G#5",
          "ticks": 43058,
          "time": 97.85909090909091,
          "velocity": 1
        },
        {
          "duration": 0.6295454545454504,
          "durationTicks": 277,
          "midi": 65,
          "name": "F4",
          "ticks": 46121,
          "time": 104.82045454545455,
          "velocity": 1
        },
        {
          "duration": 0.9204545454545325,
          "durationTicks": 405,
          "midi": 39,
          "name": "D#2",
          "ticks": 46451,
          "time": 105.57045454545455,
          "velocity": 1
        },
        {
          "duration": 0.9204545454545325,
          "durationTicks": 405,
          "midi": 55,
          "name": "G3",
          "ticks": 46451,
          "time": 105.57045454545455,
          "velocity": 1
        },
        {
          "duration": 0.07045454545453822,
          "durationTicks": 31,
          "midi": 60,
          "name": "C4",
          "ticks": 46451,
          "time": 105.57045454545455,
          "velocity": 1
        },
        {
          "duration": 0.1590909090909065,
          "durationTicks": 70,
          "midi": 63,
          "name": "D#4",
          "ticks": 46451,
          "time": 105.57045454545455,
          "velocity": 1
        },
        {
          "duration": 0.08863636363636829,
          "durationTicks": 39,
          "midi": 60,
          "name": "C4",
          "ticks": 46482,
          "time": 105.64090909090909,
          "velocity": 1
        },
        {
          "duration": 0.3999999999999915,
          "durationTicks": 176,
          "midi": 63,
          "name": "D#4",
          "ticks": 46521,
          "time": 105.72954545454546,
          "velocity": 1
        },
        {
          "duration": 0.09999999999999432,
          "durationTicks": 44,
          "midi": 65,
          "name": "F4",
          "ticks": 46728,
          "time": 106.2,
          "velocity": 1
        },
        {
          "duration": 0.020454545454541062,
          "durationTicks": 9,
          "midi": 56,
          "name": "G#3",
          "ticks": 47881,
          "time": 108.82045454545455,
          "velocity": 1
        },
        {
          "duration": 0.20909090909090366,
          "durationTicks": 92,
          "midi": 56,
          "name": "G#3",
          "ticks": 47890,
          "time": 108.8409090909091,
          "velocity": 1
        },
        {
          "duration": 0.09090909090909349,
          "durationTicks": 40,
          "midi": 56,
          "name": "G#3",
          "ticks": 47982,
          "time": 109.05,
          "velocity": 1
        },
        {
          "duration": 0.42045454545454675,
          "durationTicks": 185,
          "midi": 61,
          "name": "C#4",
          "ticks": 48052,
          "time": 109.2090909090909,
          "velocity": 1
        },
        {
          "duration": 0.20909090909090366,
          "durationTicks": 92,
          "midi": 58,
          "name": "A#3",
          "ticks": 48132,
          "time": 109.39090909090909,
          "velocity": 1
        },
        {
          "duration": 0.22954545454545894,
          "durationTicks": 101,
          "midi": 61,
          "name": "C#4",
          "ticks": 48237,
          "time": 109.62954545454545,
          "velocity": 1
        },
        {
          "duration": 0.1909090909090878,
          "durationTicks": 84,
          "midi": 63,
          "name": "D#4",
          "ticks": 48576,
          "time": 110.4,
          "velocity": 1
        },
        {
          "duration": 0.17045454545456096,
          "durationTicks": 75,
          "midi": 56,
          "name": "G#3",
          "ticks": 57081,
          "time": 129.72954545454544,
          "velocity": 1
        },
        {
          "duration": 0.2886363636363569,
          "durationTicks": 127,
          "midi": 58,
          "name": "A#3",
          "ticks": 57152,
          "time": 129.8909090909091,
          "velocity": 1
        },
        {
          "duration": 0.25,
          "durationTicks": 110,
          "midi": 61,
          "name": "C#4",
          "ticks": 57275,
          "time": 130.17045454545453,
          "velocity": 1
        },
        {
          "duration": 0.09999999999999432,
          "durationTicks": 44,
          "midi": 61,
          "name": "C#4",
          "ticks": 57389,
          "time": 130.42954545454546,
          "velocity": 1
        },
        {
          "duration": 0.5295454545454561,
          "durationTicks": 233,
          "midi": 61,
          "name": "C#4",
          "ticks": 57438,
          "time": 130.54090909090908,
          "velocity": 1
        },
        {
          "duration": 0.8090909090909122,
          "durationTicks": 356,
          "midi": 56,
          "name": "G#3",
          "ticks": 75698,
          "time": 172.04090909090908,
          "velocity": 1
        },
        {
          "duration": 0.8090909090909122,
          "durationTicks": 356,
          "midi": 63,
          "name": "D#4",
          "ticks": 75698,
          "time": 172.04090909090908,
          "velocity": 1
        },
        {
          "duration": 0.42045454545456096,
          "durationTicks": 185,
          "midi": 66,
          "name": "F#4",
          "ticks": 76054,
          "time": 172.85,
          "velocity": 1
        },
        {
          "duration": 0.2204545454545439,
          "durationTicks": 97,
          "midi": 63,
          "name": "D#4",
          "ticks": 76239,
          "time": 173.27045454545456,
          "velocity": 1
        },
        {
          "duration": 0.20909090909088945,
          "durationTicks": 92,
          "midi": 61,
          "name": "C#4",
          "ticks": 76336,
          "time": 173.4909090909091,
          "velocity": 1
        },
        {
          "duration": 0.17045454545456096,
          "durationTicks": 75,
          "midi": 63,
          "name": "D#4",
          "ticks": 76428,
          "time": 173.7,
          "velocity": 1
        },
        {
          "duration": 0.20909090909091788,
          "durationTicks": 92,
          "midi": 65,
          "name": "F4",
          "ticks": 76503,
          "time": 173.87045454545455,
          "velocity": 1
        },
        {
          "duration": 0.44999999999998863,
          "durationTicks": 198,
          "midi": 58,
          "name": "A#3",
          "ticks": 76683,
          "time": 174.27954545454546,
          "velocity": 1
        },
        {
          "duration": 0.1909090909090878,
          "durationTicks": 84,
          "midi": 61,
          "name": "C#4",
          "ticks": 76784,
          "time": 174.5090909090909,
          "velocity": 1
        },
        {
          "duration": 0.41818181818180733,
          "durationTicks": 184,
          "midi": 58,
          "name": "A#3",
          "ticks": 76952,
          "time": 174.8909090909091,
          "velocity": 1
        },
        {
          "duration": 0.42045454545453254,
          "durationTicks": 185,
          "midi": 61,
          "name": "C#4",
          "ticks": 77132,
          "time": 175.3,
          "velocity": 1
        },
        {
          "duration": 0.42045454545456096,
          "durationTicks": 185,
          "midi": 68,
          "name": "G#4",
          "ticks": 77308,
          "time": 175.7,
          "velocity": 1
        },
        {
          "duration": 0.9795454545454447,
          "durationTicks": 431,
          "midi": 32,
          "name": "G#1",
          "ticks": 78650,
          "time": 178.75,
          "velocity": 1
        },
        {
          "duration": 1.2704545454545553,
          "durationTicks": 559,
          "midi": 68,
          "name": "G#4",
          "ticks": 78738,
          "time": 178.95,
          "velocity": 1
        },
        {
          "duration": 0.4795454545454447,
          "durationTicks": 211,
          "midi": 32,
          "name": "G#1",
          "ticks": 79086,
          "time": 179.7409090909091,
          "velocity": 1
        },
        {
          "duration": 1.2318181818181984,
          "durationTicks": 542,
          "midi": 51,
          "name": "D#3",
          "ticks": 84418,
          "time": 191.8590909090909,
          "velocity": 1
        },
        {
          "duration": 0.9818181818181984,
          "durationTicks": 432,
          "midi": 56,
          "name": "G#3",
          "ticks": 84528,
          "time": 192.1090909090909,
          "velocity": 1
        },
        {
          "duration": 0.16818181818180733,
          "durationTicks": 74,
          "midi": 61,
          "name": "C#4",
          "ticks": 84630,
          "time": 192.3409090909091,
          "velocity": 1
        },
        {
          "duration": 0.20000000000001705,
          "durationTicks": 88,
          "midi": 65,
          "name": "F4",
          "ticks": 84704,
          "time": 192.5090909090909,
          "velocity": 1
        },
        {
          "duration": 0.1909090909090878,
          "durationTicks": 84,
          "midi": 68,
          "name": "G#4",
          "ticks": 84792,
          "time": 192.70909090909092,
          "velocity": 1
        },
        {
          "duration": 0.18181818181818699,
          "durationTicks": 80,
          "midi": 63,
          "name": "D#4",
          "ticks": 84880,
          "time": 192.9090909090909,
          "velocity": 1
        },
        {
          "duration": 1.4295454545454618,
          "durationTicks": 629,
          "midi": 82,
          "name": "A#5",
          "ticks": 84973,
          "time": 193.12045454545455,
          "velocity": 1
        },
        {
          "duration": 1.2909090909091105,
          "durationTicks": 568,
          "midi": 65,
          "name": "F4",
          "ticks": 85034,
          "time": 193.2590909090909,
          "velocity": 1
        },
        {
          "duration": 0.09090909090909349,
          "durationTicks": 40,
          "midi": 73,
          "name": "C#5",
          "ticks": 88343,
          "time": 200.77954545454546,
          "velocity": 1
        },
        {
          "duration": 0.07954545454543904,
          "durationTicks": 35,
          "midi": 73,
          "name": "C#5",
          "ticks": 88383,
          "time": 200.87045454545455,
          "velocity": 1
        },
        {
          "duration": 0.10000000000002274,
          "durationTicks": 44,
          "midi": 73,
          "name": "C#5",
          "ticks": 88418,
          "time": 200.95,
          "velocity": 1
        },
        {
          "duration": 0.07954545454543904,
          "durationTicks": 35,
          "midi": 73,
          "name": "C#5",
          "ticks": 88462,
          "time": 201.05,
          "velocity": 1
        },
        {
          "duration": 0.09999999999999432,
          "durationTicks": 44,
          "midi": 73,
          "name": "C#5",
          "ticks": 88497,
          "time": 201.12954545454545,
          "velocity": 1
        },
        {
          "duration": 0.09090909090909349,
          "durationTicks": 40,
          "midi": 73,
          "name": "C#5",
          "ticks": 88541,
          "time": 201.22954545454544,
          "velocity": 1
        },
        {
          "duration": 0.09999999999999432,
          "durationTicks": 44,
          "midi": 73,
          "name": "C#5",
          "ticks": 88581,
          "time": 201.32045454545454,
          "velocity": 1
        },
        {
          "duration": 0.08863636363636829,
          "durationTicks": 39,
          "midi": 73,
          "name": "C#5",
          "ticks": 88625,
          "time": 201.42045454545453,
          "velocity": 1
        },
        {
          "duration": 0.09090909090909349,
          "durationTicks": 40,
          "midi": 73,
          "name": "C#5",
          "ticks": 88664,
          "time": 201.5090909090909,
          "velocity": 1
        },
        {
          "duration": 0.09090909090909349,
          "durationTicks": 40,
          "midi": 73,
          "name": "C#5",
          "ticks": 88704,
          "time": 201.6,
          "velocity": 1
        },
        {
          "duration": 0.09999999999999432,
          "durationTicks": 44,
          "midi": 73,
          "name": "C#5",
          "ticks": 88744,
          "time": 201.6909090909091,
          "velocity": 1
        },
        {
          "duration": 0.07954545454546746,
          "durationTicks": 35,
          "midi": 73,
          "name": "C#5",
          "ticks": 88788,
          "time": 201.79090909090908,
          "velocity": 1
        },
        {
          "duration": 0.09999999999999432,
          "durationTicks": 44,
          "midi": 73,
          "name": "C#5",
          "ticks": 88823,
          "time": 201.87045454545455,
          "velocity": 1
        },
        {
          "duration": 0.08863636363636829,
          "durationTicks": 39,
          "midi": 73,
          "name": "C#5",
          "ticks": 88867,
          "time": 201.97045454545454,
          "velocity": 1
        },
        {
          "duration": 0.09999999999999432,
          "durationTicks": 44,
          "midi": 73,
          "name": "C#5",
          "ticks": 88906,
          "time": 202.0590909090909,
          "velocity": 1
        },
        {
          "duration": 0.09090909090909349,
          "durationTicks": 40,
          "midi": 73,
          "name": "C#5",
          "ticks": 88950,
          "time": 202.1590909090909,
          "velocity": 1
        },
        {
          "duration": 0.09999999999999432,
          "durationTicks": 44,
          "midi": 73,
          "name": "C#5",
          "ticks": 88990,
          "time": 202.25,
          "velocity": 1
        },
        {
          "duration": 0.09090909090909349,
          "durationTicks": 40,
          "midi": 73,
          "name": "C#5",
          "ticks": 89034,
          "time": 202.35,
          "velocity": 1
        },
        {
          "duration": 0.09999999999999432,
          "durationTicks": 44,
          "midi": 73,
          "name": "C#5",
          "ticks": 89074,
          "time": 202.4409090909091,
          "velocity": 1
        },
        {
          "duration": 0.08863636363636829,
          "durationTicks": 39,
          "midi": 73,
          "name": "C#5",
          "ticks": 89118,
          "time": 202.54090909090908,
          "velocity": 1
        },
        {
          "duration": 0.12045454545454959,
          "durationTicks": 53,
          "midi": 73,
          "name": "C#5",
          "ticks": 89157,
          "time": 202.62954545454545,
          "velocity": 1
        }
      ],
      "endOfTrackTicks": 89211
    },
    {
      "channel": 6,
      "controlChanges": {},
      "pitchBends": [],
      "instrument": {
        "family": "piano",
        "number": 4,
        "name": "electric piano 1"
      },
      "name": "",
      "notes": [
        {
          "duration": 0.22045454545454568,
          "durationTicks": 97,
          "midi": 46,
          "name": "A#2",
          "ticks": 2209,
          "time": 5.0204545454545455,
          "velocity": 1
        },
        {
          "duration": 0.09999999999999964,
          "durationTicks": 44,
          "midi": 44,
          "name": "G#2",
          "ticks": 2385,
          "time": 5.420454545454546,
          "velocity": 1
        },
        {
          "duration": 0.7204545454545448,
          "durationTicks": 317,
          "midi": 53,
          "name": "F3",
          "ticks": 2385,
          "time": 5.420454545454546,
          "velocity": 1
        },
        {
          "duration": 0.7204545454545448,
          "durationTicks": 317,
          "midi": 58,
          "name": "A#3",
          "ticks": 2385,
          "time": 5.420454545454546,
          "velocity": 1
        },
        {
          "duration": 0.10909090909090846,
          "durationTicks": 48,
          "midi": 63,
          "name": "D#4",
          "ticks": 2385,
          "time": 5.420454545454546,
          "velocity": 1
        },
        {
          "duration": 0.10909090909090846,
          "durationTicks": 48,
          "midi": 68,
          "name": "G#4",
          "ticks": 2385,
          "time": 5.420454545454546,
          "velocity": 1
        },
        {
          "duration": 0.11136363636363633,
          "durationTicks": 49,
          "midi": 44,
          "name": "G#2",
          "ticks": 2653,
          "time": 6.029545454545454,
          "velocity": 1
        },
        {
          "duration": 0.5704545454545453,
          "durationTicks": 251,
          "midi": 56,
          "name": "G#3",
          "ticks": 2653,
          "time": 6.029545454545454,
          "velocity": 1
        },
        {
          "duration": 0.11136363636363633,
          "durationTicks": 49,
          "midi": 63,
          "name": "D#4",
          "ticks": 2653,
          "time": 6.029545454545454,
          "velocity": 1
        },
        {
          "duration": 0.11136363636363633,
          "durationTicks": 49,
          "midi": 68,
          "name": "G#4",
          "ticks": 2653,
          "time": 6.029545454545454,
          "velocity": 1
        },
        {
          "duration": 0.40000000000000036,
          "durationTicks": 176,
          "midi": 80,
          "name": "G#5",
          "ticks": 2754,
          "time": 6.259090909090909,
          "velocity": 1
        },
        {
          "duration": 1.540909090909091,
          "durationTicks": 678,
          "midi": 44,
          "name": "G#2",
          "ticks": 2926,
          "time": 6.65,
          "velocity": 1
        },
        {
          "duration": 0.8113636363636365,
          "durationTicks": 357,
          "midi": 77,
          "name": "F5",
          "ticks": 2930,
          "time": 6.659090909090909,
          "velocity": 1
        },
        {
          "duration": 1.1500000000000004,
          "durationTicks": 506,
          "midi": 51,
          "name": "D#3",
          "ticks": 3098,
          "time": 7.040909090909091,
          "velocity": 1
        },
        {
          "duration": 1.0090909090909097,
          "durationTicks": 444,
          "midi": 68,
          "name": "G#4",
          "ticks": 3098,
          "time": 7.040909090909091,
          "velocity": 1
        },
        {
          "duration": 1.0000000000000009,
          "durationTicks": 440,
          "midi": 63,
          "name": "D#4",
          "ticks": 3102,
          "time": 7.05,
          "velocity": 1
        },
        {
          "duration": 1.120454545454546,
          "durationTicks": 493,
          "midi": 80,
          "name": "G#5",
          "ticks": 3111,
          "time": 7.070454545454545,
          "velocity": 1
        },
        {
          "duration": 0.7204545454545457,
          "durationTicks": 317,
          "midi": 77,
          "name": "F5",
          "ticks": 3287,
          "time": 7.470454545454546,
          "velocity": 1
        },
        {
          "duration": 0.020454545454544615,
          "durationTicks": 9,
          "midi": 82,
          "name": "A#5",
          "ticks": 3634,
          "time": 8.25909090909091,
          "velocity": 1
        },
        {
          "duration": 0.8113636363636374,
          "durationTicks": 357,
          "midi": 82,
          "name": "A#5",
          "ticks": 3643,
          "time": 8.279545454545454,
          "velocity": 1
        },
        {
          "duration": 0.11136363636363633,
          "durationTicks": 49,
          "midi": 68,
          "name": "G#4",
          "ticks": 3810,
          "time": 8.659090909090908,
          "velocity": 1
        },
        {
          "duration": 0.09999999999999964,
          "durationTicks": 44,
          "midi": 63,
          "name": "D#4",
          "ticks": 3815,
          "time": 8.670454545454545,
          "velocity": 1
        },
        {
          "duration": 0.618181818181819,
          "durationTicks": 272,
          "midi": 84,
          "name": "C6",
          "ticks": 3912,
          "time": 8.89090909090909,
          "velocity": 1
        },
        {
          "duration": 0.418181818181818,
          "durationTicks": 184,
          "midi": 82,
          "name": "A#5",
          "ticks": 4000,
          "time": 9.090909090909092,
          "velocity": 1
        },
        {
          "duration": 0.10909090909090935,
          "durationTicks": 48,
          "midi": 68,
          "name": "G#4",
          "ticks": 4079,
          "time": 9.270454545454545,
          "velocity": 1
        },
        {
          "duration": 0.09999999999999964,
          "durationTicks": 44,
          "midi": 63,
          "name": "D#4",
          "ticks": 4083,
          "time": 9.279545454545454,
          "velocity": 1
        },
        {
          "duration": 0.39090909090909065,
          "durationTicks": 172,
          "midi": 80,
          "name": "G#5",
          "ticks": 4180,
          "time": 9.5,
          "velocity": 1
        },
        {
          "duration": 0.37045454545454426,
          "durationTicks": 163,
          "midi": 53,
          "name": "F3",
          "ticks": 4343,
          "time": 9.870454545454546,
          "velocity": 1
        },
        {
          "duration": 1.4295454545454547,
          "durationTicks": 629,
          "midi": 56,
          "name": "G#3",
          "ticks": 4343,
          "time": 9.870454545454546,
          "velocity": 1
        },
        {
          "duration": 0.37045454545454426,
          "durationTicks": 163,
          "midi": 60,
          "name": "C4",
          "ticks": 4343,
          "time": 9.870454545454546,
          "velocity": 1
        },
        {
          "duration": 0.37045454545454426,
          "durationTicks": 163,
          "midi": 65,
          "name": "F4",
          "ticks": 4343,
          "time": 9.870454545454546,
          "velocity": 1
        },
        {
          "duration": 0.34090909090908994,
          "durationTicks": 150,
          "midi": 77,
          "name": "F5",
          "ticks": 4356,
          "time": 9.9,
          "velocity": 1
        },
        {
          "duration": 1.0090909090909097,
          "durationTicks": 444,
          "midi": 63,
          "name": "D#4",
          "ticks": 4528,
          "time": 10.290909090909091,
          "velocity": 1
        },
        {
          "duration": 1.0090909090909097,
          "durationTicks": 444,
          "midi": 68,
          "name": "G#4",
          "ticks": 4528,
          "time": 10.290909090909091,
          "velocity": 1
        },
        {
          "duration": 0.9795454545454554,
          "durationTicks": 431,
          "midi": 80,
          "name": "G#5",
          "ticks": 4541,
          "time": 10.320454545454545,
          "velocity": 1
        },
        {
          "duration": 0.579545454545455,
          "durationTicks": 255,
          "midi": 77,
          "name": "F5",
          "ticks": 4717,
          "time": 10.720454545454546,
          "velocity": 1
        },
        {
          "duration": 0.8590909090909093,
          "durationTicks": 378,
          "midi": 80,
          "name": "G#5",
          "ticks": 5025,
          "time": 11.420454545454545,
          "velocity": 1
        },
        {
          "duration": 1.4795454545454554,
          "durationTicks": 651,
          "midi": 51,
          "name": "D#3",
          "ticks": 5056,
          "time": 11.49090909090909,
          "velocity": 1
        },
        {
          "duration": 0.6500000000000004,
          "durationTicks": 286,
          "midi": 77,
          "name": "F5",
          "ticks": 5056,
          "time": 11.49090909090909,
          "velocity": 1
        },
        {
          "duration": 0.788636363636364,
          "durationTicks": 347,
          "midi": 87,
          "name": "D#6",
          "ticks": 5056,
          "time": 11.49090909090909,
          "velocity": 1
        },
        {
          "duration": 0.37045454545454604,
          "durationTicks": 163,
          "midi": 58,
          "name": "A#3",
          "ticks": 5240,
          "time": 11.909090909090908,
          "velocity": 1
        },
        {
          "duration": 0.10000000000000142,
          "durationTicks": 44,
          "midi": 63,
          "name": "D#4",
          "ticks": 5240,
          "time": 11.909090909090908,
          "velocity": 1
        },
        {
          "duration": 0.10000000000000142,
          "durationTicks": 44,
          "midi": 68,
          "name": "G#4",
          "ticks": 5240,
          "time": 11.909090909090908,
          "velocity": 1
        },
        {
          "duration": 0.13863636363636367,
          "durationTicks": 61,
          "midi": 77,
          "name": "F5",
          "ticks": 5342,
          "time": 12.14090909090909,
          "velocity": 1
        },
        {
          "duration": 0.4295454545454529,
          "durationTicks": 189,
          "midi": 80,
          "name": "G#5",
          "ticks": 5430,
          "time": 12.340909090909092,
          "velocity": 1
        },
        {
          "duration": 0.09999999999999964,
          "durationTicks": 44,
          "midi": 63,
          "name": "D#4",
          "ticks": 5504,
          "time": 12.50909090909091,
          "velocity": 1
        },
        {
          "duration": 0.09999999999999964,
          "durationTicks": 44,
          "midi": 68,
          "name": "G#4",
          "ticks": 5504,
          "time": 12.50909090909091,
          "velocity": 1
        },
        {
          "duration": 0.37045454545454604,
          "durationTicks": 163,
          "midi": 73,
          "name": "C#5",
          "ticks": 5610,
          "time": 12.75,
          "velocity": 1
        },
        {
          "duration": 0.5999999999999996,
          "durationTicks": 264,
          "midi": 44,
          "name": "G#2",
          "ticks": 5773,
          "time": 13.120454545454546,
          "velocity": 1
        },
        {
          "duration": 0.7704545454545446,
          "durationTicks": 339,
          "midi": 75,
          "name": "D#5",
          "ticks": 5786,
          "time": 13.15,
          "velocity": 1
        },
        {
          "duration": 0.40000000000000036,
          "durationTicks": 176,
          "midi": 63,
          "name": "D#4",
          "ticks": 5949,
          "time": 13.520454545454545,
          "velocity": 1
        },
        {
          "duration": 0.40000000000000036,
          "durationTicks": 176,
          "midi": 68,
          "name": "G#4",
          "ticks": 5949,
          "time": 13.520454545454545,
          "velocity": 1
        },
        {
          "duration": 1.0113636363636367,
          "durationTicks": 445,
          "midi": 56,
          "name": "G#3",
          "ticks": 7198,
          "time": 16.35909090909091,
          "velocity": 1
        },
        {
          "duration": 1.0113636363636367,
          "durationTicks": 445,
          "midi": 60,
          "name": "C4",
          "ticks": 7198,
          "time": 16.35909090909091,
          "velocity": 1
        },
        {
          "duration": 1.0113636363636367,
          "durationTicks": 445,
          "midi": 63,
          "name": "D#4",
          "ticks": 7198,
          "time": 16.35909090909091,
          "velocity": 1
        },
        {
          "duration": 0.8090909090909086,
          "durationTicks": 356,
          "midi": 41,
          "name": "F2",
          "ticks": 10054,
          "time": 22.85,
          "velocity": 1
        },
        {
          "duration": 0.8090909090909086,
          "durationTicks": 356,
          "midi": 56,
          "name": "G#3",
          "ticks": 10054,
          "time": 22.85,
          "velocity": 1
        },
        {
          "duration": 0.8090909090909086,
          "durationTicks": 356,
          "midi": 60,
          "name": "C4",
          "ticks": 10054,
          "time": 22.85,
          "velocity": 1
        },
        {
          "duration": 0.8090909090909086,
          "durationTicks": 356,
          "midi": 63,
          "name": "D#4",
          "ticks": 10054,
          "time": 22.85,
          "velocity": 1
        },
        {
          "duration": 0.788636363636364,
          "durationTicks": 347,
          "midi": 53,
          "name": "F3",
          "ticks": 10063,
          "time": 22.870454545454546,
          "velocity": 1
        },
        {
          "duration": 0.15909090909091006,
          "durationTicks": 70,
          "midi": 61,
          "name": "C#4",
          "ticks": 11836,
          "time": 26.9,
          "velocity": 1
        },
        {
          "duration": 0.20909090909090722,
          "durationTicks": 92,
          "midi": 63,
          "name": "D#4",
          "ticks": 11924,
          "time": 27.1,
          "velocity": 1
        },
        {
          "duration": 0.19090909090909136,
          "durationTicks": 84,
          "midi": 63,
          "name": "D#4",
          "ticks": 12016,
          "time": 27.30909090909091,
          "velocity": 1
        },
        {
          "duration": 0.19090909090909136,
          "durationTicks": 84,
          "midi": 65,
          "name": "F4",
          "ticks": 12100,
          "time": 27.5,
          "velocity": 1
        },
        {
          "duration": 0.40909090909091006,
          "durationTicks": 180,
          "midi": 63,
          "name": "D#4",
          "ticks": 12188,
          "time": 27.7,
          "velocity": 1
        },
        {
          "duration": 0.21136363636363598,
          "durationTicks": 93,
          "midi": 61,
          "name": "C#4",
          "ticks": 12368,
          "time": 28.10909090909091,
          "velocity": 1
        },
        {
          "duration": 0.1886363636363626,
          "durationTicks": 83,
          "midi": 60,
          "name": "C4",
          "ticks": 12461,
          "time": 28.320454545454545,
          "velocity": 1
        },
        {
          "duration": 0.16136363636363882,
          "durationTicks": 71,
          "midi": 63,
          "name": "D#4",
          "ticks": 12544,
          "time": 28.509090909090908,
          "velocity": 1
        },
        {
          "duration": 0.418181818181818,
          "durationTicks": 184,
          "midi": 48,
          "name": "C3",
          "ticks": 12910,
          "time": 29.34090909090909,
          "velocity": 1
        },
        {
          "duration": 0.3000000000000007,
          "durationTicks": 132,
          "midi": 56,
          "name": "G#3",
          "ticks": 12910,
          "time": 29.34090909090909,
          "velocity": 1
        },
        {
          "duration": 0.8295454545454568,
          "durationTicks": 365,
          "midi": 63,
          "name": "D#4",
          "ticks": 12910,
          "time": 29.34090909090909,
          "velocity": 1
        },
        {
          "duration": 0.8181818181818201,
          "durationTicks": 360,
          "midi": 68,
          "name": "G#4",
          "ticks": 12910,
          "time": 29.34090909090909,
          "velocity": 1
        },
        {
          "duration": 0.8386363636363647,
          "durationTicks": 369,
          "midi": 72,
          "name": "C5",
          "ticks": 12910,
          "time": 29.34090909090909,
          "velocity": 1
        },
        {
          "duration": 0.41136363636363527,
          "durationTicks": 181,
          "midi": 56,
          "name": "G#3",
          "ticks": 13081,
          "time": 29.729545454545455,
          "velocity": 1
        },
        {
          "duration": 0.32954545454545325,
          "durationTicks": 145,
          "midi": 61,
          "name": "C#4",
          "ticks": 14335,
          "time": 32.57954545454545,
          "velocity": 1
        },
        {
          "duration": 0.17045454545453964,
          "durationTicks": 75,
          "midi": 68,
          "name": "G#4",
          "ticks": 14498,
          "time": 32.95,
          "velocity": 1
        },
        {
          "duration": 0.20000000000000284,
          "durationTicks": 88,
          "midi": 63,
          "name": "D#4",
          "ticks": 14692,
          "time": 33.39090909090909,
          "velocity": 1
        },
        {
          "duration": 0.23863636363635976,
          "durationTicks": 105,
          "midi": 58,
          "name": "A#3",
          "ticks": 14780,
          "time": 33.59090909090909,
          "velocity": 1
        },
        {
          "duration": 0.17045454545454675,
          "durationTicks": 75,
          "midi": 61,
          "name": "C#4",
          "ticks": 14881,
          "time": 33.820454545454545,
          "velocity": 1
        },
        {
          "duration": 0.20909090909091077,
          "durationTicks": 92,
          "midi": 68,
          "name": "G#4",
          "ticks": 14956,
          "time": 33.99090909090909,
          "velocity": 1
        },
        {
          "duration": 0.6090909090909093,
          "durationTicks": 268,
          "midi": 58,
          "name": "A#3",
          "ticks": 15048,
          "time": 34.2,
          "velocity": 1
        },
        {
          "duration": 0.4090909090909065,
          "durationTicks": 180,
          "midi": 61,
          "name": "C#4",
          "ticks": 15048,
          "time": 34.2,
          "velocity": 1
        },
        {
          "duration": 0.8090909090909051,
          "durationTicks": 356,
          "midi": 65,
          "name": "F4",
          "ticks": 15048,
          "time": 34.2,
          "velocity": 1
        },
        {
          "duration": 0.3999999999999986,
          "durationTicks": 176,
          "midi": 70,
          "name": "A#4",
          "ticks": 15048,
          "time": 34.2,
          "velocity": 1
        },
        {
          "duration": 0.20909090909091077,
          "durationTicks": 92,
          "midi": 70,
          "name": "A#4",
          "ticks": 15224,
          "time": 34.6,
          "velocity": 1
        },
        {
          "duration": 0.3999999999999986,
          "durationTicks": 176,
          "midi": 61,
          "name": "C#4",
          "ticks": 15228,
          "time": 34.60909090909091,
          "velocity": 1
        },
        {
          "duration": 1.038636363636364,
          "durationTicks": 457,
          "midi": 56,
          "name": "G#3",
          "ticks": 15761,
          "time": 35.820454545454545,
          "velocity": 1
        },
        {
          "duration": 1.038636363636364,
          "durationTicks": 457,
          "midi": 60,
          "name": "C4",
          "ticks": 15761,
          "time": 35.820454545454545,
          "velocity": 1
        },
        {
          "duration": 1.038636363636364,
          "durationTicks": 457,
          "midi": 65,
          "name": "F4",
          "ticks": 15761,
          "time": 35.820454545454545,
          "velocity": 1
        },
        {
          "duration": 0.7999999999999972,
          "durationTicks": 352,
          "midi": 58,
          "name": "A#3",
          "ticks": 16478,
          "time": 37.45,
          "velocity": 1
        },
        {
          "duration": 0.6090909090909093,
          "durationTicks": 268,
          "midi": 61,
          "name": "C#4",
          "ticks": 16478,
          "time": 37.45,
          "velocity": 1
        },
        {
          "duration": 0.3999999999999986,
          "durationTicks": 176,
          "midi": 63,
          "name": "D#4",
          "ticks": 16478,
          "time": 37.45,
          "velocity": 1
        },
        {
          "duration": 0.7999999999999972,
          "durationTicks": 352,
          "midi": 66,
          "name": "F#4",
          "ticks": 16478,
          "time": 37.45,
          "velocity": 1
        },
        {
          "duration": 0.3999999999999986,
          "durationTicks": 176,
          "midi": 63,
          "name": "D#4",
          "ticks": 16654,
          "time": 37.85,
          "velocity": 1
        },
        {
          "duration": 0.1909090909090878,
          "durationTicks": 84,
          "midi": 61,
          "name": "C#4",
          "ticks": 16746,
          "time": 38.05909090909091,
          "velocity": 1
        },
        {
          "duration": 0.6909090909090878,
          "durationTicks": 304,
          "midi": 60,
          "name": "C4",
          "ticks": 16830,
          "time": 38.25,
          "velocity": 1
        },
        {
          "duration": 0.2795454545454561,
          "durationTicks": 123,
          "midi": 63,
          "name": "D#4",
          "ticks": 16830,
          "time": 38.25,
          "velocity": 1
        },
        {
          "duration": 0.6590909090909065,
          "durationTicks": 290,
          "midi": 68,
          "name": "G#4",
          "ticks": 16830,
          "time": 38.25,
          "velocity": 1
        },
        {
          "duration": 0.1909090909090878,
          "durationTicks": 84,
          "midi": 63,
          "name": "D#4",
          "ticks": 16953,
          "time": 38.529545454545456,
          "velocity": 1
        },
        {
          "duration": 0.1886363636363626,
          "durationTicks": 83,
          "midi": 61,
          "name": "C#4",
          "ticks": 17037,
          "time": 38.720454545454544,
          "velocity": 1
        },
        {
          "duration": 1.8999999999999986,
          "durationTicks": 836,
          "midi": 56,
          "name": "G#3",
          "ticks": 18084,
          "time": 41.1,
          "velocity": 1
        },
        {
          "duration": 0.20909090909091077,
          "durationTicks": 92,
          "midi": 68,
          "name": "G#4",
          "ticks": 22546,
          "time": 51.24090909090909,
          "velocity": 1
        },
        {
          "duration": 0.1909090909090878,
          "durationTicks": 84,
          "midi": 61,
          "name": "C#4",
          "ticks": 22638,
          "time": 51.45,
          "velocity": 1
        },
        {
          "duration": 0.22954545454545183,
          "durationTicks": 101,
          "midi": 61,
          "name": "C#4",
          "ticks": 22735,
          "time": 51.67045454545455,
          "velocity": 1
        },
        {
          "duration": 0.3999999999999986,
          "durationTicks": 176,
          "midi": 63,
          "name": "D#4",
          "ticks": 22915,
          "time": 52.07954545454545,
          "velocity": 1
        },
        {
          "duration": 0.3500000000000014,
          "durationTicks": 154,
          "midi": 66,
          "name": "F#4",
          "ticks": 23096,
          "time": 52.49090909090909,
          "velocity": 1
        },
        {
          "duration": 0.788636363636364,
          "durationTicks": 347,
          "midi": 63,
          "name": "D#4",
          "ticks": 23263,
          "time": 52.87045454545454,
          "velocity": 1
        },
        {
          "duration": 1.6204545454545425,
          "durationTicks": 713,
          "midi": 49,
          "name": "C#3",
          "ticks": 23615,
          "time": 53.67045454545455,
          "velocity": 1
        },
        {
          "duration": 1.4795454545454518,
          "durationTicks": 651,
          "midi": 56,
          "name": "G#3",
          "ticks": 23615,
          "time": 53.67045454545455,
          "velocity": 1
        },
        {
          "duration": 1.4795454545454518,
          "durationTicks": 651,
          "midi": 63,
          "name": "D#4",
          "ticks": 23615,
          "time": 53.67045454545455,
          "velocity": 1
        },
        {
          "duration": 1.4795454545454518,
          "durationTicks": 651,
          "midi": 68,
          "name": "G#4",
          "ticks": 23615,
          "time": 53.67045454545455,
          "velocity": 1
        },
        {
          "duration": 1.0909090909090864,
          "durationTicks": 480,
          "midi": 70,
          "name": "A#4",
          "ticks": 23786,
          "time": 54.05909090909091,
          "velocity": 1
        },
        {
          "duration": 0.8795454545454504,
          "durationTicks": 387,
          "midi": 73,
          "name": "C#5",
          "ticks": 23879,
          "time": 54.27045454545455,
          "velocity": 1
        },
        {
          "duration": 0.2795454545454561,
          "durationTicks": 123,
          "midi": 75,
          "name": "D#5",
          "ticks": 24143,
          "time": 54.87045454545454,
          "velocity": 1
        },
        {
          "duration": 0.3999999999999986,
          "durationTicks": 176,
          "midi": 61,
          "name": "C#4",
          "ticks": 24319,
          "time": 55.27045454545455,
          "velocity": 1
        },
        {
          "duration": 0.3204545454545453,
          "durationTicks": 141,
          "midi": 65,
          "name": "F4",
          "ticks": 27183,
          "time": 61.779545454545456,
          "velocity": 1
        },
        {
          "duration": 0.38863636363636545,
          "durationTicks": 171,
          "midi": 58,
          "name": "A#3",
          "ticks": 29863,
          "time": 67.87045454545455,
          "velocity": 1
        },
        {
          "duration": 0.3704545454545354,
          "durationTicks": 163,
          "midi": 61,
          "name": "C#4",
          "ticks": 30034,
          "time": 68.25909090909092,
          "velocity": 1
        },
        {
          "duration": 0.9886363636363598,
          "durationTicks": 435,
          "midi": 63,
          "name": "D#4",
          "ticks": 30202,
          "time": 68.64090909090909,
          "velocity": 1
        },
        {
          "duration": 0.07954545454545325,
          "durationTicks": 35,
          "midi": 61,
          "name": "C#4",
          "ticks": 33431,
          "time": 75.97954545454546,
          "velocity": 1
        },
        {
          "duration": 0.3204545454545382,
          "durationTicks": 141,
          "midi": 63,
          "name": "D#4",
          "ticks": 33598,
          "time": 76.35909090909091,
          "velocity": 1
        },
        {
          "duration": 0.7704545454545553,
          "durationTicks": 339,
          "midi": 63,
          "name": "D#4",
          "ticks": 34329,
          "time": 78.02045454545454,
          "velocity": 1
        },
        {
          "duration": 0.20000000000000284,
          "durationTicks": 88,
          "midi": 66,
          "name": "F#4",
          "ticks": 34676,
          "time": 78.80909090909091,
          "velocity": 1
        },
        {
          "duration": 0.22954545454544473,
          "durationTicks": 101,
          "midi": 63,
          "name": "D#4",
          "ticks": 34848,
          "time": 79.2,
          "velocity": 1
        },
        {
          "duration": 0.20000000000000284,
          "durationTicks": 88,
          "midi": 61,
          "name": "C#4",
          "ticks": 34958,
          "time": 79.45,
          "velocity": 1
        },
        {
          "duration": 0.4613636363636431,
          "durationTicks": 203,
          "midi": 56,
          "name": "G#3",
          "ticks": 35050,
          "time": 79.6590909090909,
          "velocity": 1
        },
        {
          "duration": 1.181818181818187,
          "durationTicks": 520,
          "midi": 61,
          "name": "C#4",
          "ticks": 35050,
          "time": 79.6590909090909,
          "velocity": 1
        },
        {
          "duration": 1.1704545454545467,
          "durationTicks": 515,
          "midi": 65,
          "name": "F4",
          "ticks": 35055,
          "time": 79.67045454545455,
          "velocity": 1
        },
        {
          "duration": 0.2204545454545439,
          "durationTicks": 97,
          "midi": 53,
          "name": "F3",
          "ticks": 35204,
          "time": 80.00909090909092,
          "velocity": 1
        },
        {
          "duration": 0.6318181818181898,
          "durationTicks": 278,
          "midi": 56,
          "name": "G#3",
          "ticks": 35292,
          "time": 80.2090909090909,
          "velocity": 1
        },
        {
          "duration": 0.07045454545455243,
          "durationTicks": 31,
          "midi": 58,
          "name": "A#3",
          "ticks": 35297,
          "time": 80.22045454545454,
          "velocity": 1
        },
        {
          "duration": 0.25,
          "durationTicks": 110,
          "midi": 58,
          "name": "A#3",
          "ticks": 35574,
          "time": 80.85,
          "velocity": 1
        },
        {
          "duration": 0.25909090909091503,
          "durationTicks": 114,
          "midi": 56,
          "name": "G#3",
          "ticks": 35737,
          "time": 81.22045454545454,
          "velocity": 1
        },
        {
          "duration": 0.15000000000000568,
          "durationTicks": 66,
          "midi": 61,
          "name": "C#4",
          "ticks": 35750,
          "time": 81.25,
          "velocity": 1
        },
        {
          "duration": 0.2795454545454561,
          "durationTicks": 123,
          "midi": 68,
          "name": "G#4",
          "ticks": 35922,
          "time": 81.64090909090909,
          "velocity": 1
        },
        {
          "duration": 0.30000000000001137,
          "durationTicks": 132,
          "midi": 61,
          "name": "C#4",
          "ticks": 39829,
          "time": 90.52045454545454,
          "velocity": 1
        },
        {
          "duration": 0.15000000000000568,
          "durationTicks": 66,
          "midi": 73,
          "name": "C#5",
          "ticks": 39855,
          "time": 90.57954545454545,
          "velocity": 1
        },
        {
          "duration": 0.20909090909090366,
          "durationTicks": 92,
          "midi": 77,
          "name": "F5",
          "ticks": 39860,
          "time": 90.5909090909091,
          "velocity": 1
        },
        {
          "duration": 0.2181818181818187,
          "durationTicks": 96,
          "midi": 82,
          "name": "A#5",
          "ticks": 39860,
          "time": 90.5909090909091,
          "velocity": 1
        },
        {
          "duration": 0.09090909090909349,
          "durationTicks": 40,
          "midi": 73,
          "name": "C#5",
          "ticks": 39921,
          "time": 90.72954545454546,
          "velocity": 1
        },
        {
          "duration": 0.4000000000000057,
          "durationTicks": 176,
          "midi": 56,
          "name": "G#3",
          "ticks": 40027,
          "time": 90.97045454545454,
          "velocity": 1
        },
        {
          "duration": 0.4113636363636317,
          "durationTicks": 181,
          "midi": 63,
          "name": "D#4",
          "ticks": 40031,
          "time": 90.97954545454546,
          "velocity": 1
        },
        {
          "duration": 0.4090909090909207,
          "durationTicks": 180,
          "midi": 60,
          "name": "C4",
          "ticks": 40036,
          "time": 90.99090909090908,
          "velocity": 1
        },
        {
          "duration": 0.6204545454545354,
          "durationTicks": 273,
          "midi": 56,
          "name": "G#3",
          "ticks": 40203,
          "time": 91.37045454545455,
          "velocity": 1
        },
        {
          "duration": 0.2181818181818187,
          "durationTicks": 96,
          "midi": 61,
          "name": "C#4",
          "ticks": 40388,
          "time": 91.7909090909091,
          "velocity": 1
        },
        {
          "duration": 0.20909090909090366,
          "durationTicks": 92,
          "midi": 65,
          "name": "F4",
          "ticks": 40388,
          "time": 91.7909090909091,
          "velocity": 1
        },
        {
          "duration": 0.42045454545454675,
          "durationTicks": 185,
          "midi": 63,
          "name": "D#4",
          "ticks": 43322,
          "time": 98.4590909090909,
          "velocity": 1
        },
        {
          "duration": 0.42045454545454675,
          "durationTicks": 185,
          "midi": 68,
          "name": "G#4",
          "ticks": 43322,
          "time": 98.4590909090909,
          "velocity": 1
        },
        {
          "duration": 0.09090909090909349,
          "durationTicks": 40,
          "midi": 61,
          "name": "C#4",
          "ticks": 43771,
          "time": 99.47954545454546,
          "velocity": 1
        },
        {
          "duration": 0.09090909090909349,
          "durationTicks": 40,
          "midi": 70,
          "name": "A#4",
          "ticks": 43771,
          "time": 99.47954545454546,
          "velocity": 1
        },
        {
          "duration": 0.09999999999999432,
          "durationTicks": 44,
          "midi": 61,
          "name": "C#4",
          "ticks": 44128,
          "time": 100.2909090909091,
          "velocity": 1
        },
        {
          "duration": 0.05909090909089798,
          "durationTicks": 26,
          "midi": 70,
          "name": "A#4",
          "ticks": 44128,
          "time": 100.2909090909091,
          "velocity": 1
        },
        {
          "duration": 1.3886363636363654,
          "durationTicks": 611,
          "midi": 44,
          "name": "G#2",
          "ticks": 44317,
          "time": 100.72045454545454,
          "velocity": 1
        },
        {
          "duration": 1.3886363636363654,
          "durationTicks": 611,
          "midi": 56,
          "name": "G#3",
          "ticks": 44317,
          "time": 100.72045454545454,
          "velocity": 1
        },
        {
          "duration": 0.9795454545454589,
          "durationTicks": 431,
          "midi": 68,
          "name": "G#4",
          "ticks": 44317,
          "time": 100.72045454545454,
          "velocity": 1
        },
        {
          "duration": 1.161363636363646,
          "durationTicks": 511,
          "midi": 80,
          "name": "G#5",
          "ticks": 44497,
          "time": 101.12954545454545,
          "velocity": 1
        },
        {
          "duration": 0.4090909090909065,
          "durationTicks": 180,
          "midi": 63,
          "name": "D#4",
          "ticks": 44748,
          "time": 101.7,
          "velocity": 1
        },
        {
          "duration": 0.4090909090909065,
          "durationTicks": 180,
          "midi": 68,
          "name": "G#4",
          "ticks": 44748,
          "time": 101.7,
          "velocity": 1
        },
        {
          "duration": 0.07045454545455243,
          "durationTicks": 31,
          "midi": 82,
          "name": "A#5",
          "ticks": 45025,
          "time": 102.32954545454545,
          "velocity": 1
        },
        {
          "duration": 0.040909090909096335,
          "durationTicks": 18,
          "midi": 68,
          "name": "G#4",
          "ticks": 45038,
          "time": 102.35909090909091,
          "velocity": 1
        },
        {
          "duration": 0.4090909090909065,
          "durationTicks": 180,
          "midi": 63,
          "name": "D#4",
          "ticks": 46174,
          "time": 104.94090909090909,
          "velocity": 1
        },
        {
          "duration": 0.4090909090909065,
          "durationTicks": 180,
          "midi": 68,
          "name": "G#4",
          "ticks": 46174,
          "time": 104.94090909090909,
          "velocity": 1
        },
        {
          "duration": 0.17954545454544757,
          "durationTicks": 79,
          "midi": 77,
          "name": "F5",
          "ticks": 46275,
          "time": 105.17045454545455,
          "velocity": 1
        },
        {
          "duration": 0.9204545454545467,
          "durationTicks": 405,
          "midi": 80,
          "name": "G#5",
          "ticks": 46407,
          "time": 105.47045454545454,
          "velocity": 1
        },
        {
          "duration": 0.5318181818181813,
          "durationTicks": 234,
          "midi": 51,
          "name": "D#3",
          "ticks": 46622,
          "time": 105.9590909090909,
          "velocity": 1
        },
        {
          "duration": 0.29999999999999716,
          "durationTicks": 132,
          "midi": 77,
          "name": "F5",
          "ticks": 46724,
          "time": 106.19090909090909,
          "velocity": 1
        },
        {
          "duration": 0.09999999999999432,
          "durationTicks": 44,
          "midi": 80,
          "name": "G#5",
          "ticks": 46812,
          "time": 106.39090909090909,
          "velocity": 1
        },
        {
          "duration": 0.6795454545454476,
          "durationTicks": 299,
          "midi": 32,
          "name": "G#1",
          "ticks": 52866,
          "time": 120.15,
          "velocity": 1
        },
        {
          "duration": 0.6795454545454476,
          "durationTicks": 299,
          "midi": 56,
          "name": "G#3",
          "ticks": 52866,
          "time": 120.15,
          "velocity": 1
        },
        {
          "duration": 0.6795454545454476,
          "durationTicks": 299,
          "midi": 60,
          "name": "C4",
          "ticks": 52866,
          "time": 120.15,
          "velocity": 1
        },
        {
          "duration": 0.6795454545454476,
          "durationTicks": 299,
          "midi": 63,
          "name": "D#4",
          "ticks": 52866,
          "time": 120.15,
          "velocity": 1
        },
        {
          "duration": 0.6795454545454476,
          "durationTicks": 299,
          "midi": 68,
          "name": "G#4",
          "ticks": 52866,
          "time": 120.15,
          "velocity": 1
        },
        {
          "duration": 0.4113636363636317,
          "durationTicks": 181,
          "midi": 68,
          "name": "G#4",
          "ticks": 55893,
          "time": 127.02954545454546,
          "velocity": 1
        },
        {
          "duration": 0.17954545454546178,
          "durationTicks": 79,
          "midi": 61,
          "name": "C#4",
          "ticks": 56267,
          "time": 127.87954545454545,
          "velocity": 1
        },
        {
          "duration": 0.6318181818181756,
          "durationTicks": 278,
          "midi": 68,
          "name": "G#4",
          "ticks": 56346,
          "time": 128.0590909090909,
          "velocity": 1
        },
        {
          "duration": 0.8090909090909122,
          "durationTicks": 356,
          "midi": 61,
          "name": "C#4",
          "ticks": 59554,
          "time": 135.35,
          "velocity": 1
        },
        {
          "duration": 0.8090909090909122,
          "durationTicks": 356,
          "midi": 65,
          "name": "F4",
          "ticks": 59554,
          "time": 135.35,
          "velocity": 1
        },
        {
          "duration": 0.8090909090909122,
          "durationTicks": 356,
          "midi": 68,
          "name": "G#4",
          "ticks": 59554,
          "time": 135.35,
          "velocity": 1
        },
        {
          "duration": 0.21136363636364308,
          "durationTicks": 93,
          "midi": 63,
          "name": "D#4",
          "ticks": 59910,
          "time": 136.1590909090909,
          "velocity": 1
        },
        {
          "duration": 0.8386363636363683,
          "durationTicks": 369,
          "midi": 60,
          "name": "C4",
          "ticks": 60003,
          "time": 136.37045454545455,
          "velocity": 1
        },
        {
          "duration": 0.8386363636363683,
          "durationTicks": 369,
          "midi": 65,
          "name": "F4",
          "ticks": 60003,
          "time": 136.37045454545455,
          "velocity": 1
        },
        {
          "duration": 0.8386363636363683,
          "durationTicks": 369,
          "midi": 68,
          "name": "G#4",
          "ticks": 60003,
          "time": 136.37045454545455,
          "velocity": 1
        },
        {
          "duration": 0.3090909090909122,
          "durationTicks": 136,
          "midi": 70,
          "name": "A#4",
          "ticks": 60720,
          "time": 138,
          "velocity": 1
        },
        {
          "duration": 0.42045454545456096,
          "durationTicks": 185,
          "midi": 70,
          "name": "A#4",
          "ticks": 61041,
          "time": 138.72954545454544,
          "velocity": 1
        },
        {
          "duration": 0.35000000000002274,
          "durationTicks": 154,
          "midi": 68,
          "name": "G#4",
          "ticks": 61248,
          "time": 139.2,
          "velocity": 1
        },
        {
          "duration": 0.30000000000001137,
          "durationTicks": 132,
          "midi": 75,
          "name": "D#5",
          "ticks": 63391,
          "time": 144.07045454545454,
          "velocity": 1
        },
        {
          "duration": 1.1204545454545496,
          "durationTicks": 493,
          "midi": 65,
          "name": "F4",
          "ticks": 63483,
          "time": 144.27954545454546,
          "velocity": 1
        },
        {
          "duration": 0.920454545454561,
          "durationTicks": 405,
          "midi": 39,
          "name": "D#2",
          "ticks": 63571,
          "time": 144.47954545454544,
          "velocity": 1
        },
        {
          "duration": 0.920454545454561,
          "durationTicks": 405,
          "midi": 51,
          "name": "D#3",
          "ticks": 63571,
          "time": 144.47954545454544,
          "velocity": 1
        },
        {
          "duration": 0.920454545454561,
          "durationTicks": 405,
          "midi": 63,
          "name": "D#4",
          "ticks": 63571,
          "time": 144.47954545454544,
          "velocity": 1
        },
        {
          "duration": 0.5,
          "durationTicks": 220,
          "midi": 75,
          "name": "D#5",
          "ticks": 63756,
          "time": 144.9,
          "velocity": 1
        },
        {
          "duration": 0.20000000000001705,
          "durationTicks": 88,
          "midi": 61,
          "name": "C#4",
          "ticks": 64024,
          "time": 145.5090909090909,
          "velocity": 1
        },
        {
          "duration": 0.24090909090907076,
          "durationTicks": 106,
          "midi": 61,
          "name": "C#4",
          "ticks": 64112,
          "time": 145.70909090909092,
          "velocity": 1
        },
        {
          "duration": 0.4090909090909065,
          "durationTicks": 180,
          "midi": 68,
          "name": "G#4",
          "ticks": 64456,
          "time": 146.4909090909091,
          "velocity": 1
        },
        {
          "duration": 0.4000000000000057,
          "durationTicks": 176,
          "midi": 73,
          "name": "C#5",
          "ticks": 64636,
          "time": 146.9,
          "velocity": 1
        },
        {
          "duration": 0.14999999999997726,
          "durationTicks": 66,
          "midi": 75,
          "name": "D#5",
          "ticks": 64812,
          "time": 147.3,
          "velocity": 1
        },
        {
          "duration": 0.3704545454545496,
          "durationTicks": 163,
          "midi": 56,
          "name": "G#3",
          "ticks": 67694,
          "time": 153.85,
          "velocity": 1
        },
        {
          "duration": 1.4409090909091162,
          "durationTicks": 634,
          "midi": 42,
          "name": "F#2",
          "ticks": 67848,
          "time": 154.2,
          "velocity": 1
        },
        {
          "duration": 1.4409090909091162,
          "durationTicks": 634,
          "midi": 70,
          "name": "A#4",
          "ticks": 67848,
          "time": 154.2,
          "velocity": 1
        },
        {
          "duration": 1.0409090909091105,
          "durationTicks": 458,
          "midi": 49,
          "name": "C#3",
          "ticks": 68024,
          "time": 154.6,
          "velocity": 1
        },
        {
          "duration": 0.15000000000000568,
          "durationTicks": 66,
          "midi": 56,
          "name": "G#3",
          "ticks": 70880,
          "time": 161.0909090909091,
          "velocity": 1
        },
        {
          "duration": 0.10909090909092356,
          "durationTicks": 48,
          "midi": 58,
          "name": "A#3",
          "ticks": 70968,
          "time": 161.29090909090908,
          "velocity": 1
        },
        {
          "duration": 0.38863636363637966,
          "durationTicks": 171,
          "midi": 58,
          "name": "A#3",
          "ticks": 71254,
          "time": 161.9409090909091,
          "velocity": 1
        },
        {
          "duration": 0.3499999999999943,
          "durationTicks": 154,
          "midi": 61,
          "name": "C#4",
          "ticks": 71425,
          "time": 162.32954545454547,
          "velocity": 1
        },
        {
          "duration": 0.8090909090909122,
          "durationTicks": 356,
          "midi": 68,
          "name": "G#4",
          "ticks": 71597,
          "time": 162.72045454545454,
          "velocity": 1
        },
        {
          "duration": 0.3113636363636374,
          "durationTicks": 137,
          "midi": 56,
          "name": "G#3",
          "ticks": 71953,
          "time": 163.52954545454546,
          "velocity": 1
        },
        {
          "duration": 0.39090909090910486,
          "durationTicks": 172,
          "midi": 70,
          "name": "A#4",
          "ticks": 72138,
          "time": 163.95,
          "velocity": 1
        },
        {
          "duration": 0.8090909090909122,
          "durationTicks": 356,
          "midi": 68,
          "name": "G#4",
          "ticks": 72310,
          "time": 164.3409090909091,
          "velocity": 1
        },
        {
          "duration": 0.7295454545454447,
          "durationTicks": 321,
          "midi": 67,
          "name": "G4",
          "ticks": 72666,
          "time": 165.15,
          "velocity": 1
        },
        {
          "duration": 0.7795454545454561,
          "durationTicks": 343,
          "midi": 70,
          "name": "A#4",
          "ticks": 74448,
          "time": 169.2,
          "velocity": 1
        },
        {
          "duration": 0.09090909090909349,
          "durationTicks": 40,
          "midi": 61,
          "name": "C#4",
          "ticks": 74813,
          "time": 170.02954545454546,
          "velocity": 1
        },
        {
          "duration": 0.07954545454546746,
          "durationTicks": 35,
          "midi": 65,
          "name": "F4",
          "ticks": 74910,
          "time": 170.25,
          "velocity": 1
        },
        {
          "duration": 0.4590909090909179,
          "durationTicks": 202,
          "midi": 63,
          "name": "D#4",
          "ticks": 74985,
          "time": 170.42045454545453,
          "velocity": 1
        },
        {
          "duration": 0.3499999999999943,
          "durationTicks": 154,
          "midi": 65,
          "name": "F4",
          "ticks": 75170,
          "time": 170.8409090909091,
          "velocity": 1
        },
        {
          "duration": 0.45000000000001705,
          "durationTicks": 198,
          "midi": 68,
          "name": "G#4",
          "ticks": 75341,
          "time": 171.22954545454544,
          "velocity": 1
        },
        {
          "duration": 0.07045454545453822,
          "durationTicks": 31,
          "midi": 58,
          "name": "A#3",
          "ticks": 76683,
          "time": 174.27954545454546,
          "velocity": 1
        },
        {
          "duration": 0.26818181818180165,
          "durationTicks": 118,
          "midi": 58,
          "name": "A#3",
          "ticks": 76952,
          "time": 174.8909090909091,
          "velocity": 1
        },
        {
          "duration": 0.17954545454543336,
          "durationTicks": 79,
          "midi": 61,
          "name": "C#4",
          "ticks": 77132,
          "time": 175.3,
          "velocity": 1
        },
        {
          "duration": 0.35000000000002274,
          "durationTicks": 154,
          "midi": 68,
          "name": "G#4",
          "ticks": 77308,
          "time": 175.7,
          "velocity": 1
        },
        {
          "duration": 0.14999999999997726,
          "durationTicks": 66,
          "midi": 61,
          "name": "C#4",
          "ticks": 81215,
          "time": 184.57954545454547,
          "velocity": 1
        },
        {
          "duration": 0.05909090909091219,
          "durationTicks": 26,
          "midi": 61,
          "name": "C#4",
          "ticks": 81308,
          "time": 184.79090909090908,
          "velocity": 1
        },
        {
          "duration": 1.5500000000000114,
          "durationTicks": 682,
          "midi": 41,
          "name": "F2",
          "ticks": 85681,
          "time": 194.72954545454544,
          "velocity": 1
        },
        {
          "duration": 1.5500000000000114,
          "durationTicks": 682,
          "midi": 56,
          "name": "G#3",
          "ticks": 85681,
          "time": 194.72954545454544,
          "velocity": 1
        },
        {
          "duration": 1.5500000000000114,
          "durationTicks": 682,
          "midi": 60,
          "name": "C4",
          "ticks": 85681,
          "time": 194.72954545454544,
          "velocity": 1
        },
        {
          "duration": 1.5500000000000114,
          "durationTicks": 682,
          "midi": 65,
          "name": "F4",
          "ticks": 85681,
          "time": 194.72954545454544,
          "velocity": 1
        },
        {
          "duration": 0.24090909090909918,
          "durationTicks": 106,
          "midi": 39,
          "name": "D#2",
          "ticks": 86398,
          "time": 196.3590909090909,
          "velocity": 1
        },
        {
          "duration": 0.24090909090909918,
          "durationTicks": 106,
          "midi": 55,
          "name": "G3",
          "ticks": 86398,
          "time": 196.3590909090909,
          "velocity": 1
        },
        {
          "duration": 0.24090909090909918,
          "durationTicks": 106,
          "midi": 58,
          "name": "A#3",
          "ticks": 86398,
          "time": 196.3590909090909,
          "velocity": 1
        },
        {
          "duration": 0.24090909090909918,
          "durationTicks": 106,
          "midi": 61,
          "name": "C#4",
          "ticks": 86398,
          "time": 196.3590909090909,
          "velocity": 1
        },
        {
          "duration": 0.24090909090909918,
          "durationTicks": 106,
          "midi": 63,
          "name": "D#4",
          "ticks": 86398,
          "time": 196.3590909090909,
          "velocity": 1
        }
      ],
      "endOfTrackTicks": 86505
    },
    {
      "channel": 7,
      "controlChanges": {},
      "pitchBends": [],
      "instrument": {
        "family": "chromatic percussion",
        "number": 8,
        "name": "celesta"
      },
      "name": "",
      "notes": [
        {
          "duration": 0.12045454545454515,
          "durationTicks": 53,
          "midi": 92,
          "name": "G#6",
          "ticks": 2728,
          "time": 6.2,
          "velocity": 1
        },
        {
          "duration": 0.07954545454545414,
          "durationTicks": 35,
          "midi": 94,
          "name": "A#6",
          "ticks": 2829,
          "time": 6.429545454545455,
          "velocity": 1
        },
        {
          "duration": 0.07954545454545503,
          "durationTicks": 35,
          "midi": 92,
          "name": "G#6",
          "ticks": 2882,
          "time": 6.55,
          "velocity": 1
        },
        {
          "duration": 0.09999999999999964,
          "durationTicks": 44,
          "midi": 89,
          "name": "F6",
          "ticks": 2917,
          "time": 6.629545454545455,
          "velocity": 1
        },
        {
          "duration": 0.07954545454545503,
          "durationTicks": 35,
          "midi": 92,
          "name": "G#6",
          "ticks": 3010,
          "time": 6.840909090909091,
          "velocity": 1
        },
        {
          "duration": 0.09090909090909083,
          "durationTicks": 40,
          "midi": 92,
          "name": "G#6",
          "ticks": 3106,
          "time": 7.0590909090909095,
          "velocity": 1
        },
        {
          "duration": 0.08863636363636296,
          "durationTicks": 39,
          "midi": 89,
          "name": "F6",
          "ticks": 3186,
          "time": 7.240909090909091,
          "velocity": 1
        },
        {
          "duration": 0.08863636363636385,
          "durationTicks": 39,
          "midi": 89,
          "name": "F6",
          "ticks": 3287,
          "time": 7.470454545454546,
          "velocity": 1
        },
        {
          "duration": 0.07954545454545503,
          "durationTicks": 35,
          "midi": 101,
          "name": "F7",
          "ticks": 3454,
          "time": 7.85,
          "velocity": 1
        },
        {
          "duration": 0.03181818181818308,
          "durationTicks": 14,
          "midi": 90,
          "name": "F#6",
          "ticks": 3590,
          "time": 8.159090909090908,
          "velocity": 1
        },
        {
          "duration": 0.40000000000000036,
          "durationTicks": 176,
          "midi": 75,
          "name": "D#5",
          "ticks": 6129,
          "time": 13.929545454545455,
          "velocity": 1
        },
        {
          "duration": 0.21136363636363775,
          "durationTicks": 93,
          "midi": 73,
          "name": "C#5",
          "ticks": 6327,
          "time": 14.379545454545454,
          "velocity": 1
        },
        {
          "duration": 0.09999999999999964,
          "durationTicks": 44,
          "midi": 75,
          "name": "D#5",
          "ticks": 6424,
          "time": 14.6,
          "velocity": 1
        },
        {
          "duration": 0.040909090909091006,
          "durationTicks": 18,
          "midi": 73,
          "name": "C#5",
          "ticks": 6468,
          "time": 14.7,
          "velocity": 1
        },
        {
          "duration": 0.038636363636364024,
          "durationTicks": 17,
          "midi": 68,
          "name": "G#4",
          "ticks": 6486,
          "time": 14.74090909090909,
          "velocity": 1
        },
        {
          "duration": 0.15000000000000036,
          "durationTicks": 66,
          "midi": 68,
          "name": "G#4",
          "ticks": 6503,
          "time": 14.779545454545454,
          "velocity": 1
        },
        {
          "duration": 0.05909090909090864,
          "durationTicks": 26,
          "midi": 73,
          "name": "C#5",
          "ticks": 6574,
          "time": 14.940909090909091,
          "velocity": 1
        },
        {
          "duration": 0.09090909090908994,
          "durationTicks": 40,
          "midi": 70,
          "name": "A#4",
          "ticks": 6604,
          "time": 15.00909090909091,
          "velocity": 1
        },
        {
          "duration": 0.040909090909091006,
          "durationTicks": 18,
          "midi": 68,
          "name": "G#4",
          "ticks": 6648,
          "time": 15.10909090909091,
          "velocity": 1
        },
        {
          "duration": 0.17954545454545467,
          "durationTicks": 79,
          "midi": 68,
          "name": "G#4",
          "ticks": 6666,
          "time": 15.15,
          "velocity": 1
        },
        {
          "duration": 0.19090909090908958,
          "durationTicks": 84,
          "midi": 73,
          "name": "C#5",
          "ticks": 6745,
          "time": 15.329545454545455,
          "velocity": 1
        },
        {
          "duration": 0.038636363636364024,
          "durationTicks": 17,
          "midi": 70,
          "name": "A#4",
          "ticks": 6829,
          "time": 15.520454545454545,
          "velocity": 1
        },
        {
          "duration": 0.02045454545454639,
          "durationTicks": 9,
          "midi": 73,
          "name": "C#5",
          "ticks": 6846,
          "time": 15.559090909090909,
          "velocity": 1
        },
        {
          "duration": 0.09090909090908994,
          "durationTicks": 40,
          "midi": 73,
          "name": "C#5",
          "ticks": 6855,
          "time": 15.579545454545455,
          "velocity": 1
        },
        {
          "duration": 0.6795454545454565,
          "durationTicks": 299,
          "midi": 73,
          "name": "C#5",
          "ticks": 6895,
          "time": 15.670454545454545,
          "velocity": 1
        },
        {
          "duration": 0.020454545454544615,
          "durationTicks": 9,
          "midi": 68,
          "name": "G#4",
          "ticks": 7198,
          "time": 16.35909090909091,
          "velocity": 1
        },
        {
          "duration": 0.2704545454545446,
          "durationTicks": 119,
          "midi": 65,
          "name": "F4",
          "ticks": 7352,
          "time": 16.70909090909091,
          "velocity": 1
        },
        {
          "duration": 0.19090909090909136,
          "durationTicks": 84,
          "midi": 63,
          "name": "D#4",
          "ticks": 7471,
          "time": 16.979545454545455,
          "velocity": 1
        },
        {
          "duration": 0.4090909090909065,
          "durationTicks": 180,
          "midi": 63,
          "name": "D#4",
          "ticks": 7555,
          "time": 17.170454545454547,
          "velocity": 1
        },
        {
          "duration": 0.20000000000000284,
          "durationTicks": 88,
          "midi": 65,
          "name": "F4",
          "ticks": 7735,
          "time": 17.579545454545453,
          "velocity": 1
        },
        {
          "duration": 0.1999999999999993,
          "durationTicks": 88,
          "midi": 65,
          "name": "F4",
          "ticks": 7823,
          "time": 17.779545454545456,
          "velocity": 1
        },
        {
          "duration": 0.1999999999999993,
          "durationTicks": 88,
          "midi": 63,
          "name": "D#4",
          "ticks": 7911,
          "time": 17.979545454545455,
          "velocity": 1
        },
        {
          "duration": 0.21136363636363598,
          "durationTicks": 93,
          "midi": 58,
          "name": "A#3",
          "ticks": 7999,
          "time": 18.179545454545455,
          "velocity": 1
        },
        {
          "duration": 0.038636363636364024,
          "durationTicks": 17,
          "midi": 65,
          "name": "F4",
          "ticks": 8092,
          "time": 18.39090909090909,
          "velocity": 1
        },
        {
          "duration": 0.7704545454545446,
          "durationTicks": 339,
          "midi": 75,
          "name": "D#5",
          "ticks": 8272,
          "time": 18.8,
          "velocity": 1
        },
        {
          "duration": 0.870454545454546,
          "durationTicks": 383,
          "midi": 56,
          "name": "G#3",
          "ticks": 8628,
          "time": 19.60909090909091,
          "velocity": 1
        },
        {
          "duration": 0.870454545454546,
          "durationTicks": 383,
          "midi": 60,
          "name": "C4",
          "ticks": 8628,
          "time": 19.60909090909091,
          "velocity": 1
        },
        {
          "duration": 0.870454545454546,
          "durationTicks": 383,
          "midi": 65,
          "name": "F4",
          "ticks": 8628,
          "time": 19.60909090909091,
          "velocity": 1
        },
        {
          "duration": 0.05909090909090864,
          "durationTicks": 26,
          "midi": 86,
          "name": "D6",
          "ticks": 8985,
          "time": 20.420454545454547,
          "velocity": 1
        },
        {
          "duration": 0.07045454545454533,
          "durationTicks": 31,
          "midi": 58,
          "name": "A#3",
          "ticks": 9913,
          "time": 22.529545454545456,
          "velocity": 1
        },
        {
          "duration": 0.07045454545454533,
          "durationTicks": 31,
          "midi": 56,
          "name": "G#3",
          "ticks": 9944,
          "time": 22.6,
          "velocity": 1
        },
        {
          "duration": 0.04999999999999716,
          "durationTicks": 22,
          "midi": 58,
          "name": "A#3",
          "ticks": 9975,
          "time": 22.670454545454547,
          "velocity": 1
        },
        {
          "duration": 0.05909090909091219,
          "durationTicks": 26,
          "midi": 61,
          "name": "C#4",
          "ticks": 9997,
          "time": 22.720454545454544,
          "velocity": 1
        },
        {
          "duration": 0.04090909090908923,
          "durationTicks": 18,
          "midi": 63,
          "name": "D#4",
          "ticks": 10023,
          "time": 22.779545454545456,
          "velocity": 1
        },
        {
          "duration": 0.029545454545456096,
          "durationTicks": 13,
          "midi": 65,
          "name": "F4",
          "ticks": 10041,
          "time": 22.820454545454545,
          "velocity": 1
        },
        {
          "duration": 0.04090909090908923,
          "durationTicks": 18,
          "midi": 68,
          "name": "G#4",
          "ticks": 10054,
          "time": 22.85,
          "velocity": 1
        },
        {
          "duration": 0.05000000000000071,
          "durationTicks": 22,
          "midi": 70,
          "name": "A#4",
          "ticks": 10072,
          "time": 22.89090909090909,
          "velocity": 1
        },
        {
          "duration": 0.05000000000000071,
          "durationTicks": 22,
          "midi": 72,
          "name": "C5",
          "ticks": 10094,
          "time": 22.94090909090909,
          "velocity": 1
        },
        {
          "duration": 0.04999999999999716,
          "durationTicks": 22,
          "midi": 70,
          "name": "A#4",
          "ticks": 10116,
          "time": 22.990909090909092,
          "velocity": 1
        },
        {
          "duration": 0.05909090909091219,
          "durationTicks": 26,
          "midi": 72,
          "name": "C5",
          "ticks": 10138,
          "time": 23.04090909090909,
          "velocity": 1
        },
        {
          "duration": 0.07045454545454533,
          "durationTicks": 31,
          "midi": 70,
          "name": "A#4",
          "ticks": 10164,
          "time": 23.1,
          "velocity": 1
        },
        {
          "duration": 0.05909090909090864,
          "durationTicks": 26,
          "midi": 72,
          "name": "C5",
          "ticks": 10195,
          "time": 23.170454545454547,
          "velocity": 1
        },
        {
          "duration": 0.07045454545454533,
          "durationTicks": 31,
          "midi": 70,
          "name": "A#4",
          "ticks": 10221,
          "time": 23.229545454545455,
          "velocity": 1
        },
        {
          "duration": 0.07045454545454533,
          "durationTicks": 31,
          "midi": 72,
          "name": "C5",
          "ticks": 10252,
          "time": 23.3,
          "velocity": 1
        },
        {
          "duration": 0.038636363636364024,
          "durationTicks": 17,
          "midi": 70,
          "name": "A#4",
          "ticks": 10283,
          "time": 23.370454545454546,
          "velocity": 1
        },
        {
          "duration": 0.05000000000000071,
          "durationTicks": 22,
          "midi": 72,
          "name": "C5",
          "ticks": 10300,
          "time": 23.40909090909091,
          "velocity": 1
        },
        {
          "duration": 0.061363636363633844,
          "durationTicks": 27,
          "midi": 70,
          "name": "A#4",
          "ticks": 10322,
          "time": 23.45909090909091,
          "velocity": 1
        },
        {
          "duration": 0.07045454545454533,
          "durationTicks": 31,
          "midi": 72,
          "name": "C5",
          "ticks": 10349,
          "time": 23.520454545454545,
          "velocity": 1
        },
        {
          "duration": 0.06818181818182012,
          "durationTicks": 30,
          "midi": 70,
          "name": "A#4",
          "ticks": 10380,
          "time": 23.59090909090909,
          "velocity": 1
        },
        {
          "duration": 0.07045454545454533,
          "durationTicks": 31,
          "midi": 72,
          "name": "C5",
          "ticks": 10410,
          "time": 23.65909090909091,
          "velocity": 1
        },
        {
          "duration": 0.07045454545454533,
          "durationTicks": 31,
          "midi": 70,
          "name": "A#4",
          "ticks": 10441,
          "time": 23.729545454545455,
          "velocity": 1
        },
        {
          "duration": 0.07045454545454533,
          "durationTicks": 31,
          "midi": 72,
          "name": "C5",
          "ticks": 10472,
          "time": 23.8,
          "velocity": 1
        },
        {
          "duration": 0.07045454545454533,
          "durationTicks": 31,
          "midi": 70,
          "name": "A#4",
          "ticks": 10503,
          "time": 23.870454545454546,
          "velocity": 1
        },
        {
          "duration": 0.06818181818181657,
          "durationTicks": 30,
          "midi": 72,
          "name": "C5",
          "ticks": 10534,
          "time": 23.94090909090909,
          "velocity": 1
        },
        {
          "duration": 0.05000000000000071,
          "durationTicks": 22,
          "midi": 70,
          "name": "A#4",
          "ticks": 10564,
          "time": 24.009090909090908,
          "velocity": 1
        },
        {
          "duration": 0.08181818181818201,
          "durationTicks": 36,
          "midi": 72,
          "name": "C5",
          "ticks": 10586,
          "time": 24.05909090909091,
          "velocity": 1
        },
        {
          "duration": 0.06818181818182012,
          "durationTicks": 30,
          "midi": 70,
          "name": "A#4",
          "ticks": 10622,
          "time": 24.14090909090909,
          "velocity": 1
        },
        {
          "duration": 0.061363636363633844,
          "durationTicks": 27,
          "midi": 72,
          "name": "C5",
          "ticks": 10652,
          "time": 24.20909090909091,
          "velocity": 1
        },
        {
          "duration": 0.07045454545454533,
          "durationTicks": 31,
          "midi": 70,
          "name": "A#4",
          "ticks": 10679,
          "time": 24.270454545454545,
          "velocity": 1
        },
        {
          "duration": 0.0795454545454568,
          "durationTicks": 35,
          "midi": 72,
          "name": "C5",
          "ticks": 10710,
          "time": 24.34090909090909,
          "velocity": 1
        },
        {
          "duration": 0.04999999999999716,
          "durationTicks": 22,
          "midi": 70,
          "name": "A#4",
          "ticks": 10745,
          "time": 24.420454545454547,
          "velocity": 1
        },
        {
          "duration": 0.05909090909091219,
          "durationTicks": 26,
          "midi": 72,
          "name": "C5",
          "ticks": 10767,
          "time": 24.470454545454544,
          "velocity": 1
        },
        {
          "duration": 0.04090909090908923,
          "durationTicks": 18,
          "midi": 70,
          "name": "A#4",
          "ticks": 10793,
          "time": 24.529545454545456,
          "velocity": 1
        },
        {
          "duration": 0.6613636363636353,
          "durationTicks": 291,
          "midi": 68,
          "name": "G#4",
          "ticks": 11123,
          "time": 25.279545454545456,
          "velocity": 1
        },
        {
          "duration": 0.1386363636363619,
          "durationTicks": 61,
          "midi": 91,
          "name": "G6",
          "ticks": 11414,
          "time": 25.94090909090909,
          "velocity": 1
        },
        {
          "duration": 0.22045454545454746,
          "durationTicks": 97,
          "midi": 92,
          "name": "G#6",
          "ticks": 11475,
          "time": 26.079545454545453,
          "velocity": 1
        },
        {
          "duration": 0.3204545454545453,
          "durationTicks": 141,
          "midi": 86,
          "name": "D6",
          "ticks": 11572,
          "time": 26.3,
          "velocity": 1
        },
        {
          "duration": 0.22954545454545539,
          "durationTicks": 101,
          "midi": 61,
          "name": "C#4",
          "ticks": 11739,
          "time": 26.679545454545455,
          "velocity": 1
        },
        {
          "duration": 0.8000000000000007,
          "durationTicks": 352,
          "midi": 63,
          "name": "D#4",
          "ticks": 11840,
          "time": 26.90909090909091,
          "velocity": 1
        },
        {
          "duration": 0.8113636363636338,
          "durationTicks": 357,
          "midi": 68,
          "name": "G#4",
          "ticks": 12192,
          "time": 27.70909090909091,
          "velocity": 1
        },
        {
          "duration": 0.15000000000000213,
          "durationTicks": 66,
          "midi": 68,
          "name": "G#4",
          "ticks": 12549,
          "time": 28.520454545454545,
          "velocity": 1
        },
        {
          "duration": 0.17954545454545467,
          "durationTicks": 79,
          "midi": 56,
          "name": "G#3",
          "ticks": 12734,
          "time": 28.94090909090909,
          "velocity": 1
        },
        {
          "duration": 0.17954545454545467,
          "durationTicks": 79,
          "midi": 56,
          "name": "G#3",
          "ticks": 12817,
          "time": 29.129545454545454,
          "velocity": 1
        },
        {
          "duration": 0.029545454545456096,
          "durationTicks": 13,
          "midi": 56,
          "name": "G#3",
          "ticks": 12901,
          "time": 29.320454545454545,
          "velocity": 1
        },
        {
          "duration": 0.4295454545454547,
          "durationTicks": 189,
          "midi": 84,
          "name": "C6",
          "ticks": 12910,
          "time": 29.34090909090909,
          "velocity": 1
        },
        {
          "duration": 0.1909090909090878,
          "durationTicks": 84,
          "midi": 56,
          "name": "G#3",
          "ticks": 12914,
          "time": 29.35,
          "velocity": 1
        },
        {
          "duration": 0.1704545454545432,
          "durationTicks": 75,
          "midi": 58,
          "name": "A#3",
          "ticks": 13002,
          "time": 29.55,
          "velocity": 1
        },
        {
          "duration": 0.1999999999999993,
          "durationTicks": 88,
          "midi": 61,
          "name": "C#4",
          "ticks": 13086,
          "time": 29.740909090909092,
          "velocity": 1
        },
        {
          "duration": 0.9386363636363662,
          "durationTicks": 413,
          "midi": 85,
          "name": "C#6",
          "ticks": 13099,
          "time": 29.770454545454545,
          "velocity": 1
        },
        {
          "duration": 0.1999999999999993,
          "durationTicks": 88,
          "midi": 61,
          "name": "C#4",
          "ticks": 13178,
          "time": 29.95,
          "velocity": 1
        },
        {
          "duration": 0.40909090909091006,
          "durationTicks": 180,
          "midi": 68,
          "name": "G#4",
          "ticks": 13266,
          "time": 30.15,
          "velocity": 1
        },
        {
          "duration": 0.14090909090909065,
          "durationTicks": 62,
          "midi": 63,
          "name": "D#4",
          "ticks": 13446,
          "time": 30.55909090909091,
          "velocity": 1
        },
        {
          "duration": 0.009090909090911481,
          "durationTicks": 4,
          "midi": 63,
          "name": "D#4",
          "ticks": 13508,
          "time": 30.7,
          "velocity": 1
        },
        {
          "duration": 0.2204545454545439,
          "durationTicks": 97,
          "midi": 63,
          "name": "D#4",
          "ticks": 13600,
          "time": 30.90909090909091,
          "velocity": 1
        },
        {
          "duration": 0.1886363636363626,
          "durationTicks": 83,
          "midi": 70,
          "name": "A#4",
          "ticks": 13702,
          "time": 31.14090909090909,
          "velocity": 1
        },
        {
          "duration": 0.18863636363636616,
          "durationTicks": 83,
          "midi": 61,
          "name": "C#4",
          "ticks": 13790,
          "time": 31.34090909090909,
          "velocity": 1
        },
        {
          "duration": 0.2204545454545439,
          "durationTicks": 97,
          "midi": 61,
          "name": "C#4",
          "ticks": 13873,
          "time": 31.529545454545456,
          "velocity": 1
        },
        {
          "duration": 0.3818181818181827,
          "durationTicks": 168,
          "midi": 58,
          "name": "A#3",
          "ticks": 13974,
          "time": 31.759090909090908,
          "velocity": 1
        },
        {
          "duration": 0.20000000000000284,
          "durationTicks": 88,
          "midi": 58,
          "name": "A#3",
          "ticks": 14150,
          "time": 32.15909090909091,
          "velocity": 1
        },
        {
          "duration": 0.1886363636363626,
          "durationTicks": 83,
          "midi": 56,
          "name": "G#3",
          "ticks": 14331,
          "time": 32.570454545454545,
          "velocity": 1
        },
        {
          "duration": 0.3999999999999986,
          "durationTicks": 176,
          "midi": 68,
          "name": "G#4",
          "ticks": 15404,
          "time": 35.00909090909091,
          "velocity": 1
        },
        {
          "duration": 0.5295454545454561,
          "durationTicks": 233,
          "midi": 63,
          "name": "D#4",
          "ticks": 15589,
          "time": 35.429545454545455,
          "velocity": 1
        },
        {
          "duration": 0.14999999999999858,
          "durationTicks": 66,
          "midi": 56,
          "name": "G#3",
          "ticks": 15822,
          "time": 35.95909090909091,
          "velocity": 1
        },
        {
          "duration": 0.13181818181818272,
          "durationTicks": 58,
          "midi": 61,
          "name": "C#4",
          "ticks": 15888,
          "time": 36.10909090909091,
          "velocity": 1
        },
        {
          "duration": 0.11818181818181728,
          "durationTicks": 52,
          "midi": 56,
          "name": "G#3",
          "ticks": 15946,
          "time": 36.24090909090909,
          "velocity": 1
        },
        {
          "duration": 0.13181818181818272,
          "durationTicks": 58,
          "midi": 63,
          "name": "D#4",
          "ticks": 15998,
          "time": 36.35909090909091,
          "velocity": 1
        },
        {
          "duration": 0.13863636363636545,
          "durationTicks": 61,
          "midi": 61,
          "name": "C#4",
          "ticks": 16056,
          "time": 36.49090909090909,
          "velocity": 1
        },
        {
          "duration": 0.22954545454545183,
          "durationTicks": 101,
          "midi": 61,
          "name": "C#4",
          "ticks": 16117,
          "time": 36.62954545454546,
          "velocity": 1
        },
        {
          "duration": 0.04999999999999716,
          "durationTicks": 22,
          "midi": 92,
          "name": "G#6",
          "ticks": 22550,
          "time": 51.25,
          "velocity": 1
        },
        {
          "duration": 0.05909090909091219,
          "durationTicks": 26,
          "midi": 92,
          "name": "G#6",
          "ticks": 22722,
          "time": 51.64090909090909,
          "velocity": 1
        },
        {
          "duration": 0.029545454545456096,
          "durationTicks": 13,
          "midi": 87,
          "name": "D#6",
          "ticks": 22990,
          "time": 52.25,
          "velocity": 1
        },
        {
          "duration": 0.04090909090908923,
          "durationTicks": 18,
          "midi": 92,
          "name": "G#6",
          "ticks": 23254,
          "time": 52.85,
          "velocity": 1
        },
        {
          "duration": 0.1590909090909065,
          "durationTicks": 70,
          "midi": 77,
          "name": "F5",
          "ticks": 23540,
          "time": 53.5,
          "velocity": 1
        },
        {
          "duration": 0.788636363636364,
          "durationTicks": 347,
          "midi": 80,
          "name": "G#5",
          "ticks": 23615,
          "time": 53.67045454545455,
          "velocity": 1
        },
        {
          "duration": 0.8318181818181785,
          "durationTicks": 366,
          "midi": 77,
          "name": "F5",
          "ticks": 23962,
          "time": 54.45909090909091,
          "velocity": 1
        },
        {
          "duration": 0.18181818181818699,
          "durationTicks": 80,
          "midi": 75,
          "name": "D#5",
          "ticks": 33422,
          "time": 75.9590909090909,
          "velocity": 1
        },
        {
          "duration": 0.2181818181818187,
          "durationTicks": 96,
          "midi": 77,
          "name": "F5",
          "ticks": 33502,
          "time": 76.14090909090909,
          "velocity": 1
        },
        {
          "duration": 0.4000000000000057,
          "durationTicks": 176,
          "midi": 75,
          "name": "D#5",
          "ticks": 33598,
          "time": 76.35909090909091,
          "velocity": 1
        },
        {
          "duration": 0.4113636363636317,
          "durationTicks": 181,
          "midi": 79,
          "name": "G5",
          "ticks": 33774,
          "time": 76.75909090909092,
          "velocity": 1
        },
        {
          "duration": 0.20000000000000284,
          "durationTicks": 88,
          "midi": 80,
          "name": "G#5",
          "ticks": 33955,
          "time": 77.17045454545455,
          "velocity": 1
        },
        {
          "duration": 0.09999999999999432,
          "durationTicks": 44,
          "midi": 77,
          "name": "F5",
          "ticks": 34043,
          "time": 77.37045454545455,
          "velocity": 1
        },
        {
          "duration": 0.17954545454544757,
          "durationTicks": 79,
          "midi": 74,
          "name": "D5",
          "ticks": 34065,
          "time": 77.42045454545455,
          "velocity": 1
        },
        {
          "duration": 0.22954545454545894,
          "durationTicks": 101,
          "midi": 73,
          "name": "C#5",
          "ticks": 34140,
          "time": 77.5909090909091,
          "velocity": 1
        },
        {
          "duration": 0.5999999999999943,
          "durationTicks": 264,
          "midi": 75,
          "name": "D#5",
          "ticks": 34408,
          "time": 78.2,
          "velocity": 1
        },
        {
          "duration": 0.6409090909090907,
          "durationTicks": 282,
          "midi": 73,
          "name": "C#5",
          "ticks": 34672,
          "time": 78.8,
          "velocity": 1
        },
        {
          "duration": 0.4295454545454618,
          "durationTicks": 189,
          "midi": 77,
          "name": "F5",
          "ticks": 34954,
          "time": 79.44090909090909,
          "velocity": 1
        },
        {
          "duration": 0.17954545454544757,
          "durationTicks": 79,
          "midi": 75,
          "name": "D#5",
          "ticks": 47780,
          "time": 108.5909090909091,
          "velocity": 1
        },
        {
          "duration": 0.05909090909091219,
          "durationTicks": 26,
          "midi": 73,
          "name": "C#5",
          "ticks": 47859,
          "time": 108.77045454545454,
          "velocity": 1
        },
        {
          "duration": 0.020454545454541062,
          "durationTicks": 9,
          "midi": 73,
          "name": "C#5",
          "ticks": 47885,
          "time": 108.82954545454545,
          "velocity": 1
        },
        {
          "duration": 0.040909090909096335,
          "durationTicks": 18,
          "midi": 73,
          "name": "C#5",
          "ticks": 47894,
          "time": 108.85,
          "velocity": 1
        },
        {
          "duration": 0.05909090909091219,
          "durationTicks": 26,
          "midi": 73,
          "name": "C#5",
          "ticks": 47912,
          "time": 108.89090909090909,
          "velocity": 1
        },
        {
          "duration": 0.05909090909091219,
          "durationTicks": 26,
          "midi": 73,
          "name": "C#5",
          "ticks": 47938,
          "time": 108.95,
          "velocity": 1
        },
        {
          "duration": 0.0613636363636374,
          "durationTicks": 27,
          "midi": 73,
          "name": "C#5",
          "ticks": 47964,
          "time": 109.00909090909092,
          "velocity": 1
        },
        {
          "duration": 0.05909090909089798,
          "durationTicks": 26,
          "midi": 73,
          "name": "C#5",
          "ticks": 47991,
          "time": 109.07045454545455,
          "velocity": 1
        },
        {
          "duration": 0.040909090909096335,
          "durationTicks": 18,
          "midi": 73,
          "name": "C#5",
          "ticks": 48017,
          "time": 109.12954545454545,
          "velocity": 1
        },
        {
          "duration": 0.04999999999999716,
          "durationTicks": 22,
          "midi": 73,
          "name": "C#5",
          "ticks": 48035,
          "time": 109.17045454545455,
          "velocity": 1
        },
        {
          "duration": 0.05909090909091219,
          "durationTicks": 26,
          "midi": 73,
          "name": "C#5",
          "ticks": 48057,
          "time": 109.22045454545454,
          "velocity": 1
        },
        {
          "duration": 0.0613636363636374,
          "durationTicks": 27,
          "midi": 73,
          "name": "C#5",
          "ticks": 48083,
          "time": 109.27954545454546,
          "velocity": 1
        },
        {
          "duration": 0.05909090909091219,
          "durationTicks": 26,
          "midi": 73,
          "name": "C#5",
          "ticks": 48110,
          "time": 109.3409090909091,
          "velocity": 1
        },
        {
          "duration": 0.05909090909089798,
          "durationTicks": 26,
          "midi": 73,
          "name": "C#5",
          "ticks": 48136,
          "time": 109.4,
          "velocity": 1
        },
        {
          "duration": 0.07045454545455243,
          "durationTicks": 31,
          "midi": 73,
          "name": "C#5",
          "ticks": 48162,
          "time": 109.4590909090909,
          "velocity": 1
        },
        {
          "duration": 0.040909090909096335,
          "durationTicks": 18,
          "midi": 73,
          "name": "C#5",
          "ticks": 48193,
          "time": 109.52954545454546,
          "velocity": 1
        },
        {
          "duration": 0.03863636363635692,
          "durationTicks": 17,
          "midi": 73,
          "name": "C#5",
          "ticks": 48211,
          "time": 109.57045454545455,
          "velocity": 1
        },
        {
          "duration": 0.040909090909096335,
          "durationTicks": 18,
          "midi": 73,
          "name": "C#5",
          "ticks": 48228,
          "time": 109.60909090909091,
          "velocity": 1
        },
        {
          "duration": 0.05909090909089798,
          "durationTicks": 26,
          "midi": 73,
          "name": "C#5",
          "ticks": 48246,
          "time": 109.65,
          "velocity": 1
        },
        {
          "duration": 0.07045454545455243,
          "durationTicks": 31,
          "midi": 73,
          "name": "C#5",
          "ticks": 48272,
          "time": 109.7090909090909,
          "velocity": 1
        },
        {
          "duration": 0.07045454545453822,
          "durationTicks": 31,
          "midi": 73,
          "name": "C#5",
          "ticks": 48303,
          "time": 109.77954545454546,
          "velocity": 1
        },
        {
          "duration": 0.05000000000001137,
          "durationTicks": 22,
          "midi": 73,
          "name": "C#5",
          "ticks": 48334,
          "time": 109.85,
          "velocity": 1
        },
        {
          "duration": 0.07045454545453822,
          "durationTicks": 31,
          "midi": 73,
          "name": "C#5",
          "ticks": 48356,
          "time": 109.9,
          "velocity": 1
        },
        {
          "duration": 0.04999999999999716,
          "durationTicks": 22,
          "midi": 73,
          "name": "C#5",
          "ticks": 48387,
          "time": 109.97045454545454,
          "velocity": 1
        },
        {
          "duration": 0.07045454545455243,
          "durationTicks": 31,
          "midi": 73,
          "name": "C#5",
          "ticks": 48409,
          "time": 110.02045454545454,
          "velocity": 1
        },
        {
          "duration": 0.07954545454545325,
          "durationTicks": 35,
          "midi": 73,
          "name": "C#5",
          "ticks": 48440,
          "time": 110.0909090909091,
          "velocity": 1
        },
        {
          "duration": 0.07045454545453822,
          "durationTicks": 31,
          "midi": 73,
          "name": "C#5",
          "ticks": 48475,
          "time": 110.17045454545455,
          "velocity": 1
        },
        {
          "duration": 0.06818181818182723,
          "durationTicks": 30,
          "midi": 73,
          "name": "C#5",
          "ticks": 48506,
          "time": 110.24090909090908,
          "velocity": 1
        },
        {
          "duration": 0.07045454545453822,
          "durationTicks": 31,
          "midi": 73,
          "name": "C#5",
          "ticks": 48536,
          "time": 110.30909090909091,
          "velocity": 1
        },
        {
          "duration": 0.040909090909096335,
          "durationTicks": 18,
          "midi": 73,
          "name": "C#5",
          "ticks": 48567,
          "time": 110.37954545454545,
          "velocity": 1
        },
        {
          "duration": 0.07045454545453822,
          "durationTicks": 31,
          "midi": 73,
          "name": "C#5",
          "ticks": 48585,
          "time": 110.42045454545455,
          "velocity": 1
        },
        {
          "duration": 0.06818181818182723,
          "durationTicks": 30,
          "midi": 73,
          "name": "C#5",
          "ticks": 48616,
          "time": 110.49090909090908,
          "velocity": 1
        },
        {
          "duration": 0.0318181818181813,
          "durationTicks": 14,
          "midi": 73,
          "name": "C#5",
          "ticks": 48646,
          "time": 110.55909090909091,
          "velocity": 1
        },
        {
          "duration": 0.29999999999999716,
          "durationTicks": 132,
          "midi": 75,
          "name": "D#5",
          "ticks": 48937,
          "time": 111.22045454545454,
          "velocity": 1
        },
        {
          "duration": 0.1909090909090878,
          "durationTicks": 84,
          "midi": 75,
          "name": "D#5",
          "ticks": 49302,
          "time": 112.05,
          "velocity": 1
        },
        {
          "duration": 0.17954545454544757,
          "durationTicks": 79,
          "midi": 77,
          "name": "F5",
          "ticks": 49478,
          "time": 112.45,
          "velocity": 1
        },
        {
          "duration": 1.488636363636374,
          "durationTicks": 655,
          "midi": 73,
          "name": "C#5",
          "ticks": 50706,
          "time": 115.24090909090908,
          "velocity": 1
        },
        {
          "duration": 0.7999999999999972,
          "durationTicks": 352,
          "midi": 70,
          "name": "A#4",
          "ticks": 50728,
          "time": 115.2909090909091,
          "velocity": 1
        },
        {
          "duration": 0.3795454545454504,
          "durationTicks": 167,
          "midi": 68,
          "name": "G#4",
          "ticks": 51080,
          "time": 116.0909090909091,
          "velocity": 1
        },
        {
          "duration": 0.25,
          "durationTicks": 110,
          "midi": 70,
          "name": "A#4",
          "ticks": 51251,
          "time": 116.47954545454546,
          "velocity": 1
        },
        {
          "duration": 0.10000000000000853,
          "durationTicks": 44,
          "midi": 56,
          "name": "G#3",
          "ticks": 54067,
          "time": 122.87954545454545,
          "velocity": 1
        },
        {
          "duration": 0.09090909090909349,
          "durationTicks": 40,
          "midi": 56,
          "name": "G#3",
          "ticks": 54111,
          "time": 122.97954545454546,
          "velocity": 1
        },
        {
          "duration": 0.09999999999999432,
          "durationTicks": 44,
          "midi": 56,
          "name": "G#3",
          "ticks": 54151,
          "time": 123.07045454545455,
          "velocity": 1
        },
        {
          "duration": 0.07954545454545325,
          "durationTicks": 35,
          "midi": 56,
          "name": "G#3",
          "ticks": 54195,
          "time": 123.17045454545455,
          "velocity": 1
        },
        {
          "duration": 0.09999999999999432,
          "durationTicks": 44,
          "midi": 56,
          "name": "G#3",
          "ticks": 54230,
          "time": 123.25,
          "velocity": 1
        },
        {
          "duration": 0.029545454545456096,
          "durationTicks": 13,
          "midi": 56,
          "name": "G#3",
          "ticks": 54274,
          "time": 123.35,
          "velocity": 1
        },
        {
          "duration": 0.04999999999999716,
          "durationTicks": 22,
          "midi": 56,
          "name": "G#3",
          "ticks": 54287,
          "time": 123.37954545454545,
          "velocity": 1
        },
        {
          "duration": 0.07954545454546746,
          "durationTicks": 35,
          "midi": 56,
          "name": "G#3",
          "ticks": 54309,
          "time": 123.42954545454545,
          "velocity": 1
        },
        {
          "duration": 0.08181818181817846,
          "durationTicks": 36,
          "midi": 56,
          "name": "G#3",
          "ticks": 54344,
          "time": 123.50909090909092,
          "velocity": 1
        },
        {
          "duration": 0.08863636363635408,
          "durationTicks": 39,
          "midi": 56,
          "name": "G#3",
          "ticks": 54380,
          "time": 123.5909090909091,
          "velocity": 1
        },
        {
          "duration": 0.09090909090909349,
          "durationTicks": 40,
          "midi": 56,
          "name": "G#3",
          "ticks": 54419,
          "time": 123.67954545454545,
          "velocity": 1
        },
        {
          "duration": 0.029545454545456096,
          "durationTicks": 13,
          "midi": 56,
          "name": "G#3",
          "ticks": 54459,
          "time": 123.77045454545454,
          "velocity": 1
        },
        {
          "duration": 0.009090909090915034,
          "durationTicks": 4,
          "midi": 56,
          "name": "G#3",
          "ticks": 54472,
          "time": 123.8,
          "velocity": 1
        },
        {
          "duration": 0.0613636363636374,
          "durationTicks": 27,
          "midi": 56,
          "name": "G#3",
          "ticks": 54476,
          "time": 123.80909090909091,
          "velocity": 1
        },
        {
          "duration": 0.07954545454545325,
          "durationTicks": 35,
          "midi": 56,
          "name": "G#3",
          "ticks": 54503,
          "time": 123.87045454545455,
          "velocity": 1
        },
        {
          "duration": 0.05909090909091219,
          "durationTicks": 26,
          "midi": 56,
          "name": "G#3",
          "ticks": 54538,
          "time": 123.95,
          "velocity": 1
        },
        {
          "duration": 0.08181818181817846,
          "durationTicks": 36,
          "midi": 56,
          "name": "G#3",
          "ticks": 54564,
          "time": 124.00909090909092,
          "velocity": 1
        },
        {
          "duration": 0.09999999999999432,
          "durationTicks": 44,
          "midi": 56,
          "name": "G#3",
          "ticks": 54600,
          "time": 124.0909090909091,
          "velocity": 1
        },
        {
          "duration": 0.018181818181815856,
          "durationTicks": 8,
          "midi": 56,
          "name": "G#3",
          "ticks": 54644,
          "time": 124.19090909090909,
          "velocity": 1
        },
        {
          "duration": 0.040909090909096335,
          "durationTicks": 18,
          "midi": 56,
          "name": "G#3",
          "ticks": 54652,
          "time": 124.2090909090909,
          "velocity": 1
        },
        {
          "duration": 0.07045454545455243,
          "durationTicks": 31,
          "midi": 56,
          "name": "G#3",
          "ticks": 54670,
          "time": 124.25,
          "velocity": 1
        },
        {
          "duration": 0.07954545454545325,
          "durationTicks": 35,
          "midi": 56,
          "name": "G#3",
          "ticks": 54701,
          "time": 124.32045454545455,
          "velocity": 1
        },
        {
          "duration": 0.07954545454545325,
          "durationTicks": 35,
          "midi": 56,
          "name": "G#3",
          "ticks": 54736,
          "time": 124.4,
          "velocity": 1
        },
        {
          "duration": 0.12045454545453538,
          "durationTicks": 53,
          "midi": 56,
          "name": "G#3",
          "ticks": 54771,
          "time": 124.47954545454546,
          "velocity": 1
        },
        {
          "duration": 0.07045454545455243,
          "durationTicks": 31,
          "midi": 56,
          "name": "G#3",
          "ticks": 54824,
          "time": 124.6,
          "velocity": 1
        },
        {
          "duration": 0.07045454545453822,
          "durationTicks": 31,
          "midi": 56,
          "name": "G#3",
          "ticks": 54855,
          "time": 124.67045454545455,
          "velocity": 1
        },
        {
          "duration": 0.06818181818182723,
          "durationTicks": 30,
          "midi": 56,
          "name": "G#3",
          "ticks": 54886,
          "time": 124.74090909090908,
          "velocity": 1
        },
        {
          "duration": 0.07045454545453822,
          "durationTicks": 31,
          "midi": 56,
          "name": "G#3",
          "ticks": 54916,
          "time": 124.80909090909091,
          "velocity": 1
        },
        {
          "duration": 0.040909090909096335,
          "durationTicks": 18,
          "midi": 56,
          "name": "G#3",
          "ticks": 54947,
          "time": 124.87954545454545,
          "velocity": 1
        },
        {
          "duration": 0.20909090909090366,
          "durationTicks": 92,
          "midi": 56,
          "name": "G#3",
          "ticks": 55000,
          "time": 125,
          "velocity": 1
        },
        {
          "duration": 0.6113636363636488,
          "durationTicks": 269,
          "midi": 58,
          "name": "A#3",
          "ticks": 55092,
          "time": 125.2090909090909,
          "velocity": 1
        },
        {
          "duration": 0.38863636363635123,
          "durationTicks": 171,
          "midi": 58,
          "name": "A#3",
          "ticks": 55361,
          "time": 125.82045454545455,
          "velocity": 1
        },
        {
          "duration": 0.3500000000000085,
          "durationTicks": 154,
          "midi": 68,
          "name": "G#4",
          "ticks": 55532,
          "time": 126.2090909090909,
          "velocity": 1
        },
        {
          "duration": 0.3499999999999943,
          "durationTicks": 154,
          "midi": 61,
          "name": "C#4",
          "ticks": 55713,
          "time": 126.62045454545455,
          "velocity": 1
        },
        {
          "duration": 0.009090909090900823,
          "durationTicks": 4,
          "midi": 56,
          "name": "G#3",
          "ticks": 57680,
          "time": 131.0909090909091,
          "velocity": 1
        },
        {
          "duration": 0.020454545454555273,
          "durationTicks": 9,
          "midi": 59,
          "name": "B3",
          "ticks": 57684,
          "time": 131.1,
          "velocity": 1
        },
        {
          "duration": 0.020454545454555273,
          "durationTicks": 9,
          "midi": 61,
          "name": "C#4",
          "ticks": 57688,
          "time": 131.1090909090909,
          "velocity": 1
        },
        {
          "duration": 0.029545454545456096,
          "durationTicks": 13,
          "midi": 63,
          "name": "D#4",
          "ticks": 57697,
          "time": 131.12954545454545,
          "velocity": 1
        },
        {
          "duration": 0.0318181818181813,
          "durationTicks": 14,
          "midi": 61,
          "name": "C#4",
          "ticks": 57710,
          "time": 131.1590909090909,
          "velocity": 1
        },
        {
          "duration": 0.029545454545456096,
          "durationTicks": 13,
          "midi": 63,
          "name": "D#4",
          "ticks": 57724,
          "time": 131.1909090909091,
          "velocity": 1
        },
        {
          "duration": 0.029545454545456096,
          "durationTicks": 13,
          "midi": 61,
          "name": "C#4",
          "ticks": 57737,
          "time": 131.22045454545454,
          "velocity": 1
        },
        {
          "duration": 0.029545454545456096,
          "durationTicks": 13,
          "midi": 63,
          "name": "D#4",
          "ticks": 57750,
          "time": 131.25,
          "velocity": 1
        },
        {
          "duration": 0.029545454545456096,
          "durationTicks": 13,
          "midi": 61,
          "name": "C#4",
          "ticks": 57763,
          "time": 131.27954545454546,
          "velocity": 1
        },
        {
          "duration": 0.0318181818181813,
          "durationTicks": 14,
          "midi": 63,
          "name": "D#4",
          "ticks": 57776,
          "time": 131.3090909090909,
          "velocity": 1
        },
        {
          "duration": 0.029545454545456096,
          "durationTicks": 13,
          "midi": 61,
          "name": "C#4",
          "ticks": 57790,
          "time": 131.3409090909091,
          "velocity": 1
        },
        {
          "duration": 0.029545454545456096,
          "durationTicks": 13,
          "midi": 63,
          "name": "D#4",
          "ticks": 57803,
          "time": 131.37045454545455,
          "velocity": 1
        },
        {
          "duration": 0.040909090909082124,
          "durationTicks": 18,
          "midi": 63,
          "name": "D#4",
          "ticks": 57816,
          "time": 131.4,
          "velocity": 1
        },
        {
          "duration": 0.029545454545456096,
          "durationTicks": 13,
          "midi": 61,
          "name": "C#4",
          "ticks": 57834,
          "time": 131.4409090909091,
          "velocity": 1
        },
        {
          "duration": 0.029545454545456096,
          "durationTicks": 13,
          "midi": 63,
          "name": "D#4",
          "ticks": 57847,
          "time": 131.47045454545454,
          "velocity": 1
        },
        {
          "duration": 0.020454545454555273,
          "durationTicks": 9,
          "midi": 61,
          "name": "C#4",
          "ticks": 57860,
          "time": 131.5,
          "velocity": 1
        },
        {
          "duration": 0.029545454545456096,
          "durationTicks": 13,
          "midi": 63,
          "name": "D#4",
          "ticks": 57869,
          "time": 131.52045454545456,
          "velocity": 1
        },
        {
          "duration": 0.040909090909082124,
          "durationTicks": 18,
          "midi": 61,
          "name": "C#4",
          "ticks": 57882,
          "time": 131.55,
          "velocity": 1
        },
        {
          "duration": 0.05000000000001137,
          "durationTicks": 22,
          "midi": 63,
          "name": "D#4",
          "ticks": 57900,
          "time": 131.5909090909091,
          "velocity": 1
        },
        {
          "duration": 0.029545454545427674,
          "durationTicks": 13,
          "midi": 61,
          "name": "C#4",
          "ticks": 57922,
          "time": 131.6409090909091,
          "velocity": 1
        },
        {
          "duration": 0.03863636363638534,
          "durationTicks": 17,
          "midi": 63,
          "name": "D#4",
          "ticks": 57935,
          "time": 131.67045454545453,
          "velocity": 1
        },
        {
          "duration": 0.0318181818181813,
          "durationTicks": 14,
          "midi": 61,
          "name": "C#4",
          "ticks": 57952,
          "time": 131.70909090909092,
          "velocity": 1
        },
        {
          "duration": 0.04999999999998295,
          "durationTicks": 22,
          "midi": 63,
          "name": "D#4",
          "ticks": 57966,
          "time": 131.7409090909091,
          "velocity": 1
        },
        {
          "duration": 0.029545454545456096,
          "durationTicks": 13,
          "midi": 61,
          "name": "C#4",
          "ticks": 57988,
          "time": 131.79090909090908,
          "velocity": 1
        },
        {
          "duration": 0.03863636363635692,
          "durationTicks": 17,
          "midi": 63,
          "name": "D#4",
          "ticks": 58001,
          "time": 131.82045454545454,
          "velocity": 1
        },
        {
          "duration": 0.040909090909110546,
          "durationTicks": 18,
          "midi": 61,
          "name": "C#4",
          "ticks": 58018,
          "time": 131.8590909090909,
          "velocity": 1
        },
        {
          "duration": 0.040909090909082124,
          "durationTicks": 18,
          "midi": 63,
          "name": "D#4",
          "ticks": 58036,
          "time": 131.9,
          "velocity": 1
        },
        {
          "duration": 0.03863636363635692,
          "durationTicks": 17,
          "midi": 61,
          "name": "C#4",
          "ticks": 58054,
          "time": 131.9409090909091,
          "velocity": 1
        },
        {
          "duration": 0.040909090909110546,
          "durationTicks": 18,
          "midi": 63,
          "name": "D#4",
          "ticks": 58071,
          "time": 131.97954545454544,
          "velocity": 1
        },
        {
          "duration": 0.03863636363635692,
          "durationTicks": 17,
          "midi": 61,
          "name": "C#4",
          "ticks": 58089,
          "time": 132.02045454545456,
          "velocity": 1
        },
        {
          "duration": 0.040909090909082124,
          "durationTicks": 18,
          "midi": 63,
          "name": "D#4",
          "ticks": 58106,
          "time": 132.0590909090909,
          "velocity": 1
        },
        {
          "duration": 0.040909090909110546,
          "durationTicks": 18,
          "midi": 61,
          "name": "C#4",
          "ticks": 58124,
          "time": 132.1,
          "velocity": 1
        },
        {
          "duration": 0.03863636363635692,
          "durationTicks": 17,
          "midi": 63,
          "name": "D#4",
          "ticks": 58142,
          "time": 132.1409090909091,
          "velocity": 1
        },
        {
          "duration": 0.040909090909082124,
          "durationTicks": 18,
          "midi": 61,
          "name": "C#4",
          "ticks": 58159,
          "time": 132.17954545454546,
          "velocity": 1
        },
        {
          "duration": 0.03863636363635692,
          "durationTicks": 17,
          "midi": 63,
          "name": "D#4",
          "ticks": 58177,
          "time": 132.22045454545454,
          "velocity": 1
        },
        {
          "duration": 0.0318181818181813,
          "durationTicks": 14,
          "midi": 61,
          "name": "C#4",
          "ticks": 58194,
          "time": 132.2590909090909,
          "velocity": 1
        },
        {
          "duration": 0.05000000000001137,
          "durationTicks": 22,
          "midi": 63,
          "name": "D#4",
          "ticks": 58208,
          "time": 132.29090909090908,
          "velocity": 1
        },
        {
          "duration": 0.03863636363635692,
          "durationTicks": 17,
          "midi": 61,
          "name": "C#4",
          "ticks": 58230,
          "time": 132.3409090909091,
          "velocity": 1
        },
        {
          "duration": 0.029545454545456096,
          "durationTicks": 13,
          "midi": 63,
          "name": "D#4",
          "ticks": 58247,
          "time": 132.37954545454545,
          "velocity": 1
        },
        {
          "duration": 0.040909090909082124,
          "durationTicks": 18,
          "midi": 63,
          "name": "D#4",
          "ticks": 58260,
          "time": 132.4090909090909,
          "velocity": 1
        },
        {
          "duration": 0.040909090909110546,
          "durationTicks": 18,
          "midi": 63,
          "name": "D#4",
          "ticks": 58278,
          "time": 132.45,
          "velocity": 1
        },
        {
          "duration": 0.03863636363635692,
          "durationTicks": 17,
          "midi": 61,
          "name": "C#4",
          "ticks": 58296,
          "time": 132.4909090909091,
          "velocity": 1
        },
        {
          "duration": 0.029545454545456096,
          "durationTicks": 13,
          "midi": 63,
          "name": "D#4",
          "ticks": 58313,
          "time": 132.52954545454546,
          "velocity": 1
        },
        {
          "duration": 0.0318181818181813,
          "durationTicks": 14,
          "midi": 63,
          "name": "D#4",
          "ticks": 58326,
          "time": 132.5590909090909,
          "velocity": 1
        },
        {
          "duration": 0.029545454545456096,
          "durationTicks": 13,
          "midi": 61,
          "name": "C#4",
          "ticks": 58340,
          "time": 132.5909090909091,
          "velocity": 1
        },
        {
          "duration": 0.03863636363635692,
          "durationTicks": 17,
          "midi": 63,
          "name": "D#4",
          "ticks": 58353,
          "time": 132.62045454545455,
          "velocity": 1
        },
        {
          "duration": 0.040909090909082124,
          "durationTicks": 18,
          "midi": 61,
          "name": "C#4",
          "ticks": 58370,
          "time": 132.6590909090909,
          "velocity": 1
        },
        {
          "duration": 0.029545454545456096,
          "durationTicks": 13,
          "midi": 63,
          "name": "D#4",
          "ticks": 58388,
          "time": 132.7,
          "velocity": 1
        },
        {
          "duration": 0.029545454545456096,
          "durationTicks": 13,
          "midi": 63,
          "name": "D#4",
          "ticks": 58401,
          "time": 132.72954545454544,
          "velocity": 1
        },
        {
          "duration": 0.040909090909110546,
          "durationTicks": 18,
          "midi": 61,
          "name": "C#4",
          "ticks": 58414,
          "time": 132.7590909090909,
          "velocity": 1
        },
        {
          "duration": 0.040909090909082124,
          "durationTicks": 18,
          "midi": 63,
          "name": "D#4",
          "ticks": 58432,
          "time": 132.8,
          "velocity": 1
        },
        {
          "duration": 0.03863636363635692,
          "durationTicks": 17,
          "midi": 61,
          "name": "C#4",
          "ticks": 58450,
          "time": 132.8409090909091,
          "velocity": 1
        },
        {
          "duration": 0.040909090909082124,
          "durationTicks": 18,
          "midi": 63,
          "name": "D#4",
          "ticks": 58467,
          "time": 132.87954545454545,
          "velocity": 1
        },
        {
          "duration": 0.03863636363638534,
          "durationTicks": 17,
          "midi": 61,
          "name": "C#4",
          "ticks": 58485,
          "time": 132.92045454545453,
          "velocity": 1
        },
        {
          "duration": 0.04999999999998295,
          "durationTicks": 22,
          "midi": 63,
          "name": "D#4",
          "ticks": 58502,
          "time": 132.95909090909092,
          "velocity": 1
        },
        {
          "duration": 0.0318181818181813,
          "durationTicks": 14,
          "midi": 61,
          "name": "C#4",
          "ticks": 58524,
          "time": 133.0090909090909,
          "velocity": 1
        },
        {
          "duration": 0.029545454545456096,
          "durationTicks": 13,
          "midi": 63,
          "name": "D#4",
          "ticks": 58538,
          "time": 133.04090909090908,
          "velocity": 1
        },
        {
          "duration": 0.03863636363635692,
          "durationTicks": 17,
          "midi": 63,
          "name": "D#4",
          "ticks": 58551,
          "time": 133.07045454545454,
          "velocity": 1
        },
        {
          "duration": 0.01136363636365445,
          "durationTicks": 5,
          "midi": 61,
          "name": "C#4",
          "ticks": 58568,
          "time": 133.1090909090909,
          "velocity": 1
        },
        {
          "duration": 0.42045454545453254,
          "durationTicks": 185,
          "midi": 75,
          "name": "D#5",
          "ticks": 63743,
          "time": 144.87045454545455,
          "velocity": 1
        },
        {
          "duration": 0.10909090909092356,
          "durationTicks": 48,
          "midi": 70,
          "name": "A#4",
          "ticks": 63928,
          "time": 145.29090909090908,
          "velocity": 1
        },
        {
          "duration": 0.20000000000001705,
          "durationTicks": 88,
          "midi": 61,
          "name": "C#4",
          "ticks": 64024,
          "time": 145.5090909090909,
          "velocity": 1
        },
        {
          "duration": 0.24090909090907076,
          "durationTicks": 106,
          "midi": 61,
          "name": "C#4",
          "ticks": 64112,
          "time": 145.70909090909092,
          "velocity": 1
        },
        {
          "duration": 0.6090909090909236,
          "durationTicks": 268,
          "midi": 63,
          "name": "D#4",
          "ticks": 64368,
          "time": 146.29090909090908,
          "velocity": 1
        },
        {
          "duration": 0.4090909090909065,
          "durationTicks": 180,
          "midi": 68,
          "name": "G#4",
          "ticks": 64456,
          "time": 146.4909090909091,
          "velocity": 1
        },
        {
          "duration": 0.4000000000000057,
          "durationTicks": 176,
          "midi": 73,
          "name": "C#5",
          "ticks": 64636,
          "time": 146.9,
          "velocity": 1
        },
        {
          "duration": 0.14999999999997726,
          "durationTicks": 66,
          "midi": 75,
          "name": "D#5",
          "ticks": 64812,
          "time": 147.3,
          "velocity": 1
        },
        {
          "duration": 0.20909090909091788,
          "durationTicks": 92,
          "midi": 77,
          "name": "F5",
          "ticks": 64900,
          "time": 147.5,
          "velocity": 1
        },
        {
          "duration": 0.39999999999997726,
          "durationTicks": 176,
          "midi": 80,
          "name": "G#5",
          "ticks": 64992,
          "time": 147.70909090909092,
          "velocity": 1
        },
        {
          "duration": 0.21136363636364308,
          "durationTicks": 93,
          "midi": 77,
          "name": "F5",
          "ticks": 65168,
          "time": 148.1090909090909,
          "velocity": 1
        },
        {
          "duration": 0.6090909090909236,
          "durationTicks": 268,
          "midi": 70,
          "name": "A#4",
          "ticks": 65261,
          "time": 148.32045454545454,
          "velocity": 1
        },
        {
          "duration": 0.1886363636363626,
          "durationTicks": 83,
          "midi": 82,
          "name": "A#5",
          "ticks": 65534,
          "time": 148.9409090909091,
          "velocity": 1
        },
        {
          "duration": 0.22954545454544473,
          "durationTicks": 101,
          "midi": 80,
          "name": "G#5",
          "ticks": 65617,
          "time": 149.12954545454545,
          "velocity": 1
        },
        {
          "duration": 0.14090909090910486,
          "durationTicks": 62,
          "midi": 77,
          "name": "F5",
          "ticks": 65718,
          "time": 149.3590909090909,
          "velocity": 1
        },
        {
          "duration": 0.35909090909089514,
          "durationTicks": 158,
          "midi": 68,
          "name": "G#4",
          "ticks": 69630,
          "time": 158.25,
          "velocity": 1
        },
        {
          "duration": 0.4113636363636317,
          "durationTicks": 181,
          "midi": 65,
          "name": "F4",
          "ticks": 69810,
          "time": 158.6590909090909,
          "velocity": 1
        },
        {
          "duration": 0.1886363636363626,
          "durationTicks": 83,
          "midi": 63,
          "name": "D#4",
          "ticks": 69991,
          "time": 159.07045454545454,
          "velocity": 1
        },
        {
          "duration": 0.48181818181819835,
          "durationTicks": 212,
          "midi": 65,
          "name": "F4",
          "ticks": 70074,
          "time": 159.2590909090909,
          "velocity": 1
        },
        {
          "duration": 0.8499999999999943,
          "durationTicks": 374,
          "midi": 68,
          "name": "G#4",
          "ticks": 70699,
          "time": 160.67954545454546,
          "velocity": 1
        },
        {
          "duration": 0.2204545454545439,
          "durationTicks": 97,
          "midi": 68,
          "name": "G#4",
          "ticks": 71073,
          "time": 161.52954545454546,
          "velocity": 1
        },
        {
          "duration": 0.040909090909082124,
          "durationTicks": 18,
          "midi": 68,
          "name": "G#4",
          "ticks": 71170,
          "time": 161.75,
          "velocity": 1
        },
        {
          "duration": 0.09090909090909349,
          "durationTicks": 40,
          "midi": 73,
          "name": "C#5",
          "ticks": 74813,
          "time": 170.02954545454546,
          "velocity": 1
        },
        {
          "duration": 0.07954545454543904,
          "durationTicks": 35,
          "midi": 85,
          "name": "C#6",
          "ticks": 74853,
          "time": 170.12045454545455,
          "velocity": 1
        },
        {
          "duration": 0.2204545454545439,
          "durationTicks": 97,
          "midi": 84,
          "name": "C6",
          "ticks": 74888,
          "time": 170.2,
          "velocity": 1
        },
        {
          "duration": 0.07954545454546746,
          "durationTicks": 35,
          "midi": 77,
          "name": "F5",
          "ticks": 74910,
          "time": 170.25,
          "velocity": 1
        },
        {
          "duration": 0.09090909090906507,
          "durationTicks": 40,
          "midi": 80,
          "name": "G#5",
          "ticks": 74945,
          "time": 170.32954545454547,
          "velocity": 1
        },
        {
          "duration": 0.07045454545456664,
          "durationTicks": 31,
          "midi": 82,
          "name": "A#5",
          "ticks": 74985,
          "time": 170.42045454545453,
          "velocity": 1
        },
        {
          "duration": 1.5999999999999943,
          "durationTicks": 704,
          "midi": 75,
          "name": "D#5",
          "ticks": 74989,
          "time": 170.42954545454546,
          "velocity": 1
        },
        {
          "duration": 0.03863636363635692,
          "durationTicks": 17,
          "midi": 82,
          "name": "A#5",
          "ticks": 75016,
          "time": 170.4909090909091,
          "velocity": 1
        },
        {
          "duration": 0.05000000000001137,
          "durationTicks": 22,
          "midi": 82,
          "name": "A#5",
          "ticks": 75033,
          "time": 170.52954545454546,
          "velocity": 1
        },
        {
          "duration": 0.04999999999998295,
          "durationTicks": 22,
          "midi": 82,
          "name": "A#5",
          "ticks": 75055,
          "time": 170.57954545454547,
          "velocity": 1
        },
        {
          "duration": 0.0613636363636374,
          "durationTicks": 27,
          "midi": 82,
          "name": "A#5",
          "ticks": 75077,
          "time": 170.62954545454545,
          "velocity": 1
        },
        {
          "duration": 0.018181818181830067,
          "durationTicks": 8,
          "midi": 82,
          "name": "A#5",
          "ticks": 75104,
          "time": 170.6909090909091,
          "velocity": 1
        },
        {
          "duration": 0.0613636363636374,
          "durationTicks": 27,
          "midi": 82,
          "name": "A#5",
          "ticks": 75112,
          "time": 170.70909090909092,
          "velocity": 1
        },
        {
          "duration": 0.04999999999998295,
          "durationTicks": 22,
          "midi": 82,
          "name": "A#5",
          "ticks": 75139,
          "time": 170.77045454545456,
          "velocity": 1
        },
        {
          "duration": 0.029545454545456096,
          "durationTicks": 13,
          "midi": 77,
          "name": "F5",
          "ticks": 75161,
          "time": 170.82045454545454,
          "velocity": 1
        },
        {
          "duration": 0.05909090909091219,
          "durationTicks": 26,
          "midi": 77,
          "name": "F5",
          "ticks": 75174,
          "time": 170.85,
          "velocity": 1
        },
        {
          "duration": 0.07045454545453822,
          "durationTicks": 31,
          "midi": 82,
          "name": "A#5",
          "ticks": 75187,
          "time": 170.87954545454545,
          "velocity": 1
        },
        {
          "duration": 0.11136363636364877,
          "durationTicks": 49,
          "midi": 77,
          "name": "F5",
          "ticks": 75200,
          "time": 170.9090909090909,
          "velocity": 1
        },
        {
          "duration": 0.05909090909091219,
          "durationTicks": 26,
          "midi": 82,
          "name": "A#5",
          "ticks": 75218,
          "time": 170.95,
          "velocity": 1
        },
        {
          "duration": 0.05000000000001137,
          "durationTicks": 22,
          "midi": 82,
          "name": "A#5",
          "ticks": 75244,
          "time": 171.0090909090909,
          "velocity": 1
        },
        {
          "duration": 0.10909090909089514,
          "durationTicks": 48,
          "midi": 77,
          "name": "F5",
          "ticks": 75249,
          "time": 171.02045454545456,
          "velocity": 1
        },
        {
          "duration": 0.040909090909082124,
          "durationTicks": 18,
          "midi": 82,
          "name": "A#5",
          "ticks": 75266,
          "time": 171.0590909090909,
          "velocity": 1
        },
        {
          "duration": 0.07045454545453822,
          "durationTicks": 31,
          "midi": 82,
          "name": "A#5",
          "ticks": 75284,
          "time": 171.1,
          "velocity": 1
        },
        {
          "duration": 0.09090909090909349,
          "durationTicks": 40,
          "midi": 77,
          "name": "F5",
          "ticks": 75297,
          "time": 171.12954545454545,
          "velocity": 1
        },
        {
          "duration": 0.07045454545456664,
          "durationTicks": 31,
          "midi": 82,
          "name": "A#5",
          "ticks": 75315,
          "time": 171.17045454545453,
          "velocity": 1
        },
        {
          "duration": 0.8090909090909122,
          "durationTicks": 356,
          "midi": 77,
          "name": "F5",
          "ticks": 75337,
          "time": 171.22045454545454,
          "velocity": 1
        },
        {
          "duration": 0.05000000000001137,
          "durationTicks": 22,
          "midi": 80,
          "name": "G#5",
          "ticks": 75341,
          "time": 171.22954545454544,
          "velocity": 1
        },
        {
          "duration": 0.06818181818181301,
          "durationTicks": 30,
          "midi": 82,
          "name": "A#5",
          "ticks": 75346,
          "time": 171.2409090909091,
          "velocity": 1
        },
        {
          "duration": 0.07045454545453822,
          "durationTicks": 31,
          "midi": 80,
          "name": "G#5",
          "ticks": 75363,
          "time": 171.27954545454546,
          "velocity": 1
        },
        {
          "duration": 0.09090909090909349,
          "durationTicks": 40,
          "midi": 82,
          "name": "A#5",
          "ticks": 75376,
          "time": 171.3090909090909,
          "velocity": 1
        },
        {
          "duration": 0.07954545454546746,
          "durationTicks": 35,
          "midi": 80,
          "name": "G#5",
          "ticks": 75394,
          "time": 171.35,
          "velocity": 1
        },
        {
          "duration": 0.05909090909091219,
          "durationTicks": 26,
          "midi": 82,
          "name": "A#5",
          "ticks": 75416,
          "time": 171.4,
          "velocity": 1
        },
        {
          "duration": 0.0613636363636374,
          "durationTicks": 27,
          "midi": 80,
          "name": "G#5",
          "ticks": 75429,
          "time": 171.42954545454546,
          "velocity": 1
        },
        {
          "duration": 0.07045454545453822,
          "durationTicks": 31,
          "midi": 82,
          "name": "A#5",
          "ticks": 75442,
          "time": 171.45909090909092,
          "velocity": 1
        },
        {
          "duration": 0.07954545454543904,
          "durationTicks": 35,
          "midi": 80,
          "name": "G#5",
          "ticks": 75456,
          "time": 171.4909090909091,
          "velocity": 1
        },
        {
          "duration": 0.07045454545453822,
          "durationTicks": 31,
          "midi": 82,
          "name": "A#5",
          "ticks": 75473,
          "time": 171.52954545454546,
          "velocity": 1
        },
        {
          "duration": 0.05909090909091219,
          "durationTicks": 26,
          "midi": 80,
          "name": "G#5",
          "ticks": 75491,
          "time": 171.57045454545454,
          "velocity": 1
        },
        {
          "duration": 0.05000000000001137,
          "durationTicks": 22,
          "midi": 82,
          "name": "A#5",
          "ticks": 75504,
          "time": 171.6,
          "velocity": 1
        },
        {
          "duration": 0.05000000000001137,
          "durationTicks": 22,
          "midi": 80,
          "name": "G#5",
          "ticks": 75517,
          "time": 171.62954545454545,
          "velocity": 1
        },
        {
          "duration": 0.05909090909091219,
          "durationTicks": 26,
          "midi": 82,
          "name": "A#5",
          "ticks": 75526,
          "time": 171.65,
          "velocity": 1
        },
        {
          "duration": 0.07045454545453822,
          "durationTicks": 31,
          "midi": 80,
          "name": "G#5",
          "ticks": 75539,
          "time": 171.67954545454546,
          "velocity": 1
        },
        {
          "duration": 0.08181818181816425,
          "durationTicks": 36,
          "midi": 82,
          "name": "A#5",
          "ticks": 75552,
          "time": 171.70909090909092,
          "velocity": 1
        },
        {
          "duration": 0.07954545454546746,
          "durationTicks": 35,
          "midi": 80,
          "name": "G#5",
          "ticks": 75570,
          "time": 171.75,
          "velocity": 1
        },
        {
          "duration": 0.06818181818181301,
          "durationTicks": 30,
          "midi": 82,
          "name": "A#5",
          "ticks": 75588,
          "time": 171.79090909090908,
          "velocity": 1
        },
        {
          "duration": 0.07045454545453822,
          "durationTicks": 31,
          "midi": 80,
          "name": "G#5",
          "ticks": 75605,
          "time": 171.82954545454547,
          "velocity": 1
        },
        {
          "duration": 0.07045454545456664,
          "durationTicks": 31,
          "midi": 82,
          "name": "A#5",
          "ticks": 75618,
          "time": 171.8590909090909,
          "velocity": 1
        },
        {
          "duration": 0.05909090909091219,
          "durationTicks": 26,
          "midi": 80,
          "name": "G#5",
          "ticks": 75636,
          "time": 171.9,
          "velocity": 1
        },
        {
          "duration": 0.0613636363636374,
          "durationTicks": 27,
          "midi": 82,
          "name": "A#5",
          "ticks": 75649,
          "time": 171.92954545454546,
          "velocity": 1
        },
        {
          "duration": 0.04999999999998295,
          "durationTicks": 22,
          "midi": 80,
          "name": "G#5",
          "ticks": 75662,
          "time": 171.95909090909092,
          "velocity": 1
        },
        {
          "duration": 0.03863636363635692,
          "durationTicks": 17,
          "midi": 82,
          "name": "A#5",
          "ticks": 75676,
          "time": 171.9909090909091,
          "velocity": 1
        },
        {
          "duration": 0.020454545454555273,
          "durationTicks": 9,
          "midi": 80,
          "name": "G#5",
          "ticks": 75684,
          "time": 172.0090909090909,
          "velocity": 1
        },
        {
          "duration": 1.8386363636363683,
          "durationTicks": 809,
          "midi": 75,
          "name": "D#5",
          "ticks": 75786,
          "time": 172.2409090909091,
          "velocity": 1
        }
      ],
      "endOfTrackTicks": 76596
    },
    {
      "channel": 8,
      "controlChanges": {},
      "pitchBends": [],
      "instrument": {
        "family": "ensemble",
        "number": 50,
        "name": "synthstrings 1"
      },
      "name": "",
      "notes": [
        {
          "duration": 0.36136363636363633,
          "durationTicks": 159,
          "midi": 89,
          "name": "F6",
          "ticks": 4347,
          "time": 9.879545454545454,
          "velocity": 1
        },
        {
          "duration": 0.788636363636364,
          "durationTicks": 347,
          "midi": 51,
          "name": "D#3",
          "ticks": 5056,
          "time": 11.49090909090909,
          "velocity": 1
        },
        {
          "duration": 0.788636363636364,
          "durationTicks": 347,
          "midi": 58,
          "name": "A#3",
          "ticks": 5056,
          "time": 11.49090909090909,
          "velocity": 1
        },
        {
          "duration": 0.788636363636364,
          "durationTicks": 347,
          "midi": 61,
          "name": "C#4",
          "ticks": 5056,
          "time": 11.49090909090909,
          "velocity": 1
        },
        {
          "duration": 1,
          "durationTicks": 440,
          "midi": 44,
          "name": "G#2",
          "ticks": 30197,
          "time": 68.62954545454545,
          "velocity": 1
        },
        {
          "duration": 1,
          "durationTicks": 440,
          "midi": 56,
          "name": "G#3",
          "ticks": 30197,
          "time": 68.62954545454545,
          "velocity": 1
        },
        {
          "duration": 0.21136363636364308,
          "durationTicks": 93,
          "midi": 51,
          "name": "D#3",
          "ticks": 41945,
          "time": 95.32954545454545,
          "velocity": 1
        },
        {
          "duration": 0.1590909090909065,
          "durationTicks": 70,
          "midi": 56,
          "name": "G#3",
          "ticks": 42038,
          "time": 95.5409090909091,
          "velocity": 1
        },
        {
          "duration": 0.12045454545454959,
          "durationTicks": 53,
          "midi": 61,
          "name": "C#4",
          "ticks": 42108,
          "time": 95.7,
          "velocity": 1
        },
        {
          "duration": 1.5590909090909122,
          "durationTicks": 686,
          "midi": 44,
          "name": "G#2",
          "ticks": 87116,
          "time": 197.9909090909091,
          "velocity": 1
        },
        {
          "duration": 1.5590909090909122,
          "durationTicks": 686,
          "midi": 56,
          "name": "G#3",
          "ticks": 87116,
          "time": 197.9909090909091,
          "velocity": 1
        },
        {
          "duration": 1.5590909090909122,
          "durationTicks": 686,
          "midi": 60,
          "name": "C4",
          "ticks": 87116,
          "time": 197.9909090909091,
          "velocity": 1
        },
        {
          "duration": 1.5590909090909122,
          "durationTicks": 686,
          "midi": 63,
          "name": "D#4",
          "ticks": 87116,
          "time": 197.9909090909091,
          "velocity": 1
        },
        {
          "duration": 1.079545454545439,
          "durationTicks": 475,
          "midi": 49,
          "name": "C#3",
          "ticks": 87833,
          "time": 199.62045454545455,
          "velocity": 1
        },
        {
          "duration": 1.079545454545439,
          "durationTicks": 475,
          "midi": 56,
          "name": "G#3",
          "ticks": 87833,
          "time": 199.62045454545455,
          "velocity": 1
        },
        {
          "duration": 1.079545454545439,
          "durationTicks": 475,
          "midi": 61,
          "name": "C#4",
          "ticks": 87833,
          "time": 199.62045454545455,
          "velocity": 1
        }
      ],
      "endOfTrackTicks": 88309
    },
    {
      "channel": 9,
      "controlChanges": {},
      "pitchBends": [],
      "instrument": {
        "family": "drums",
        "number": 0,
        "name": "standard kit"
      },
      "name": "",
      "notes": [
        {
          "duration": 0.011363636363636354,
          "durationTicks": 5,
          "midi": 59,
          "name": "B3",
          "ticks": 277,
          "time": 0.6295454545454545,
          "velocity": 1
        },
        {
          "duration": 0.011363636363636354,
          "durationTicks": 5,
          "midi": 59,
          "name": "B3",
          "ticks": 312,
          "time": 0.7090909090909091,
          "velocity": 1
        },
        {
          "duration": 0.011363636363636354,
          "durationTicks": 5,
          "midi": 59,
          "name": "B3",
          "ticks": 343,
          "time": 0.7795454545454545,
          "velocity": 1
        },
        {
          "duration": 0.011363636363636354,
          "durationTicks": 5,
          "midi": 59,
          "name": "B3",
          "ticks": 387,
          "time": 0.8795454545454545,
          "velocity": 1
        },
        {
          "duration": 0.009090909090909038,
          "durationTicks": 4,
          "midi": 59,
          "name": "B3",
          "ticks": 427,
          "time": 0.9704545454545455,
          "velocity": 1
        },
        {
          "duration": 0.009090909090909038,
          "durationTicks": 4,
          "midi": 59,
          "name": "B3",
          "ticks": 458,
          "time": 1.040909090909091,
          "velocity": 1
        },
        {
          "duration": 0.009090909090909038,
          "durationTicks": 4,
          "midi": 59,
          "name": "B3",
          "ticks": 484,
          "time": 1.1,
          "velocity": 1
        },
        {
          "duration": 0.009090909090909038,
          "durationTicks": 4,
          "midi": 59,
          "name": "B3",
          "ticks": 515,
          "time": 1.1704545454545454,
          "velocity": 1
        },
        {
          "duration": 0.009090909090909038,
          "durationTicks": 4,
          "midi": 59,
          "name": "B3",
          "ticks": 546,
          "time": 1.240909090909091,
          "velocity": 1
        },
        {
          "duration": 0.009090909090909038,
          "durationTicks": 4,
          "midi": 59,
          "name": "B3",
          "ticks": 572,
          "time": 1.3,
          "velocity": 1
        },
        {
          "duration": 0.00909090909090926,
          "durationTicks": 4,
          "midi": 59,
          "name": "B3",
          "ticks": 603,
          "time": 1.3704545454545454,
          "velocity": 1
        },
        {
          "duration": 0.009090909090909038,
          "durationTicks": 4,
          "midi": 59,
          "name": "B3",
          "ticks": 638,
          "time": 1.45,
          "velocity": 1
        },
        {
          "duration": 0.009090909090909038,
          "durationTicks": 4,
          "midi": 59,
          "name": "B3",
          "ticks": 669,
          "time": 1.5204545454545455,
          "velocity": 1
        },
        {
          "duration": 0.009090909090909038,
          "durationTicks": 4,
          "midi": 59,
          "name": "B3",
          "ticks": 691,
          "time": 1.5704545454545455,
          "velocity": 1
        },
        {
          "duration": 0.00909090909090926,
          "durationTicks": 4,
          "midi": 59,
          "name": "B3",
          "ticks": 713,
          "time": 1.6204545454545454,
          "velocity": 1
        },
        {
          "duration": 0.011363636363636243,
          "durationTicks": 5,
          "midi": 59,
          "name": "B3",
          "ticks": 730,
          "time": 1.6590909090909092,
          "velocity": 1
        },
        {
          "duration": 0.009090909090909038,
          "durationTicks": 4,
          "midi": 59,
          "name": "B3",
          "ticks": 757,
          "time": 1.7204545454545455,
          "velocity": 1
        },
        {
          "duration": 0.011363636363636465,
          "durationTicks": 5,
          "midi": 59,
          "name": "B3",
          "ticks": 774,
          "time": 1.759090909090909,
          "velocity": 1
        },
        {
          "duration": 0.011363636363636465,
          "durationTicks": 5,
          "midi": 51,
          "name": "D#3",
          "ticks": 796,
          "time": 1.809090909090909,
          "velocity": 1
        },
        {
          "duration": 0.009090909090908816,
          "durationTicks": 4,
          "midi": 51,
          "name": "D#3",
          "ticks": 968,
          "time": 2.2,
          "velocity": 1
        },
        {
          "duration": 0.009090909090908816,
          "durationTicks": 4,
          "midi": 51,
          "name": "D#3",
          "ticks": 1052,
          "time": 2.390909090909091,
          "velocity": 1
        },
        {
          "duration": 0.00909090909090926,
          "durationTicks": 4,
          "midi": 51,
          "name": "D#3",
          "ticks": 1131,
          "time": 2.5704545454545453,
          "velocity": 1
        },
        {
          "duration": 0.009090909090908816,
          "durationTicks": 4,
          "midi": 51,
          "name": "D#3",
          "ticks": 1228,
          "time": 2.790909090909091,
          "velocity": 1
        },
        {
          "duration": 0.00909090909090926,
          "durationTicks": 4,
          "midi": 51,
          "name": "D#3",
          "ticks": 1320,
          "time": 3,
          "velocity": 1
        },
        {
          "duration": 0.009090909090908816,
          "durationTicks": 4,
          "midi": 51,
          "name": "D#3",
          "ticks": 1408,
          "time": 3.2,
          "velocity": 1
        },
        {
          "duration": 0.009090909090908816,
          "durationTicks": 4,
          "midi": 51,
          "name": "D#3",
          "ticks": 1492,
          "time": 3.390909090909091,
          "velocity": 1
        },
        {
          "duration": 0.00909090909090926,
          "durationTicks": 4,
          "midi": 51,
          "name": "D#3",
          "ticks": 1580,
          "time": 3.590909090909091,
          "velocity": 1
        },
        {
          "duration": 0.00909090909090926,
          "durationTicks": 4,
          "midi": 51,
          "name": "D#3",
          "ticks": 1672,
          "time": 3.8,
          "velocity": 1
        },
        {
          "duration": 0.00909090909090926,
          "durationTicks": 4,
          "midi": 51,
          "name": "D#3",
          "ticks": 1756,
          "time": 3.9909090909090907,
          "velocity": 1
        },
        {
          "duration": 0.009090909090907928,
          "durationTicks": 4,
          "midi": 69,
          "name": "A4",
          "ticks": 3982,
          "time": 9.05,
          "velocity": 1
        },
        {
          "duration": 0.01136363636363491,
          "durationTicks": 5,
          "midi": 75,
          "name": "D#5",
          "ticks": 4184,
          "time": 9.50909090909091,
          "velocity": 1
        },
        {
          "duration": 0.009090909090907928,
          "durationTicks": 4,
          "midi": 84,
          "name": "C6",
          "ticks": 4312,
          "time": 9.8,
          "velocity": 1
        },
        {
          "duration": 0.009090909090909705,
          "durationTicks": 4,
          "midi": 38,
          "name": "D2",
          "ticks": 4528,
          "time": 10.290909090909091,
          "velocity": 1
        },
        {
          "duration": 0.009090909090909705,
          "durationTicks": 4,
          "midi": 38,
          "name": "D2",
          "ticks": 4695,
          "time": 10.670454545454545,
          "velocity": 1
        },
        {
          "duration": 0.009090909090909705,
          "durationTicks": 4,
          "midi": 41,
          "name": "F2",
          "ticks": 4994,
          "time": 11.35,
          "velocity": 1
        },
        {
          "duration": 0.009090909090909705,
          "durationTicks": 4,
          "midi": 36,
          "name": "C2",
          "ticks": 5056,
          "time": 11.49090909090909,
          "velocity": 1
        },
        {
          "duration": 0.009090909090909705,
          "durationTicks": 4,
          "midi": 49,
          "name": "C#3",
          "ticks": 5056,
          "time": 11.49090909090909,
          "velocity": 1
        },
        {
          "duration": 0.011363636363636687,
          "durationTicks": 5,
          "midi": 41,
          "name": "F2",
          "ticks": 5328,
          "time": 12.10909090909091,
          "velocity": 1
        },
        {
          "duration": 0.011363636363636687,
          "durationTicks": 5,
          "midi": 41,
          "name": "F2",
          "ticks": 5689,
          "time": 12.929545454545455,
          "velocity": 1
        },
        {
          "duration": 0.009090909090909705,
          "durationTicks": 4,
          "midi": 45,
          "name": "A2",
          "ticks": 5764,
          "time": 13.1,
          "velocity": 1
        },
        {
          "duration": 0.009090909090909705,
          "durationTicks": 4,
          "midi": 75,
          "name": "D#5",
          "ticks": 6037,
          "time": 13.720454545454546,
          "velocity": 1
        },
        {
          "duration": 0.01136363636363491,
          "durationTicks": 5,
          "midi": 36,
          "name": "C2",
          "ticks": 6494,
          "time": 14.75909090909091,
          "velocity": 1
        },
        {
          "duration": 0.011363636363636687,
          "durationTicks": 5,
          "midi": 47,
          "name": "B2",
          "ticks": 6758,
          "time": 15.35909090909091,
          "velocity": 1
        },
        {
          "duration": 0.011363636363636687,
          "durationTicks": 5,
          "midi": 45,
          "name": "A2",
          "ticks": 6846,
          "time": 15.559090909090909,
          "velocity": 1
        },
        {
          "duration": 0.011363636363636687,
          "durationTicks": 5,
          "midi": 36,
          "name": "C2",
          "ticks": 7198,
          "time": 16.35909090909091,
          "velocity": 1
        },
        {
          "duration": 0.011363636363636687,
          "durationTicks": 5,
          "midi": 42,
          "name": "F#2",
          "ticks": 7198,
          "time": 16.35909090909091,
          "velocity": 1
        },
        {
          "duration": 0.011363636363636687,
          "durationTicks": 5,
          "midi": 47,
          "name": "B2",
          "ticks": 7911,
          "time": 17.979545454545455,
          "velocity": 1
        },
        {
          "duration": 0.009090909090907928,
          "durationTicks": 4,
          "midi": 41,
          "name": "F2",
          "ticks": 8184,
          "time": 18.6,
          "velocity": 1
        },
        {
          "duration": 0.009090909090907928,
          "durationTicks": 4,
          "midi": 46,
          "name": "A#2",
          "ticks": 8250,
          "time": 18.75,
          "velocity": 1
        },
        {
          "duration": 0.009090909090907928,
          "durationTicks": 4,
          "midi": 36,
          "name": "C2",
          "ticks": 8272,
          "time": 18.8,
          "velocity": 1
        },
        {
          "duration": 0.009090909090907928,
          "durationTicks": 4,
          "midi": 41,
          "name": "F2",
          "ticks": 8272,
          "time": 18.8,
          "velocity": 1
        },
        {
          "duration": 0.009090909090907928,
          "durationTicks": 4,
          "midi": 42,
          "name": "F#2",
          "ticks": 8272,
          "time": 18.8,
          "velocity": 1
        },
        {
          "duration": 0.011363636363636687,
          "durationTicks": 5,
          "midi": 42,
          "name": "F#2",
          "ticks": 8417,
          "time": 19.129545454545454,
          "velocity": 1
        },
        {
          "duration": 0.011363636363636687,
          "durationTicks": 5,
          "midi": 36,
          "name": "C2",
          "ticks": 8628,
          "time": 19.60909090909091,
          "velocity": 1
        },
        {
          "duration": 0.011363636363636687,
          "durationTicks": 5,
          "midi": 41,
          "name": "F2",
          "ticks": 8628,
          "time": 19.60909090909091,
          "velocity": 1
        },
        {
          "duration": 0.011363636363636687,
          "durationTicks": 5,
          "midi": 42,
          "name": "F#2",
          "ticks": 8628,
          "time": 19.60909090909091,
          "velocity": 1
        },
        {
          "duration": 0.011363636363636687,
          "durationTicks": 5,
          "midi": 41,
          "name": "F2",
          "ticks": 8725,
          "time": 19.829545454545453,
          "velocity": 1
        },
        {
          "duration": 0.011363636363636687,
          "durationTicks": 5,
          "midi": 42,
          "name": "F#2",
          "ticks": 8725,
          "time": 19.829545454545453,
          "velocity": 1
        },
        {
          "duration": 0.009090909090907928,
          "durationTicks": 4,
          "midi": 41,
          "name": "F2",
          "ticks": 8800,
          "time": 20,
          "velocity": 1
        },
        {
          "duration": 0.009090909090907928,
          "durationTicks": 4,
          "midi": 42,
          "name": "F#2",
          "ticks": 8800,
          "time": 20,
          "velocity": 1
        },
        {
          "duration": 0.009090909090907928,
          "durationTicks": 4,
          "midi": 41,
          "name": "F2",
          "ticks": 8822,
          "time": 20.05,
          "velocity": 1
        },
        {
          "duration": 0.009090909090907928,
          "durationTicks": 4,
          "midi": 42,
          "name": "F#2",
          "ticks": 8822,
          "time": 20.05,
          "velocity": 1
        },
        {
          "duration": 0.009090909090907928,
          "durationTicks": 4,
          "midi": 42,
          "name": "F#2",
          "ticks": 8906,
          "time": 20.240909090909092,
          "velocity": 1
        },
        {
          "duration": 0.009090909090907928,
          "durationTicks": 4,
          "midi": 41,
          "name": "F2",
          "ticks": 8985,
          "time": 20.420454545454547,
          "velocity": 1
        },
        {
          "duration": 0.009090909090907928,
          "durationTicks": 4,
          "midi": 42,
          "name": "F#2",
          "ticks": 8985,
          "time": 20.420454545454547,
          "velocity": 1
        },
        {
          "duration": 0.011363636363636687,
          "durationTicks": 5,
          "midi": 47,
          "name": "B2",
          "ticks": 9077,
          "time": 20.629545454545454,
          "velocity": 1
        },
        {
          "duration": 0.009090909090907928,
          "durationTicks": 4,
          "midi": 59,
          "name": "B3",
          "ticks": 9082,
          "time": 20.64090909090909,
          "velocity": 1
        },
        {
          "duration": 0.009090909090907928,
          "durationTicks": 4,
          "midi": 45,
          "name": "A2",
          "ticks": 9174,
          "time": 20.85,
          "velocity": 1
        },
        {
          "duration": 0.009090909090911481,
          "durationTicks": 4,
          "midi": 36,
          "name": "C2",
          "ticks": 9258,
          "time": 21.04090909090909,
          "velocity": 1
        },
        {
          "duration": 0.009090909090907928,
          "durationTicks": 4,
          "midi": 36,
          "name": "C2",
          "ticks": 9346,
          "time": 21.240909090909092,
          "velocity": 1
        },
        {
          "duration": 0.009090909090907928,
          "durationTicks": 4,
          "midi": 59,
          "name": "B3",
          "ticks": 9350,
          "time": 21.25,
          "velocity": 1
        },
        {
          "duration": 0.009090909090911481,
          "durationTicks": 4,
          "midi": 59,
          "name": "B3",
          "ticks": 9438,
          "time": 21.45,
          "velocity": 1
        },
        {
          "duration": 0.009090909090907928,
          "durationTicks": 4,
          "midi": 45,
          "name": "A2",
          "ticks": 9614,
          "time": 21.85,
          "velocity": 1
        },
        {
          "duration": 0.009090909090911481,
          "durationTicks": 4,
          "midi": 43,
          "name": "G2",
          "ticks": 9698,
          "time": 22.04090909090909,
          "velocity": 1
        },
        {
          "duration": 0.009090909090907928,
          "durationTicks": 4,
          "midi": 36,
          "name": "C2",
          "ticks": 10054,
          "time": 22.85,
          "velocity": 1
        },
        {
          "duration": 0.009090909090907928,
          "durationTicks": 4,
          "midi": 59,
          "name": "B3",
          "ticks": 10054,
          "time": 22.85,
          "velocity": 1
        },
        {
          "duration": 0.011363636363636687,
          "durationTicks": 5,
          "midi": 45,
          "name": "A2",
          "ticks": 10586,
          "time": 24.05909090909091,
          "velocity": 1
        },
        {
          "duration": 0.009090909090911481,
          "durationTicks": 4,
          "midi": 41,
          "name": "F2",
          "ticks": 10767,
          "time": 24.470454545454544,
          "velocity": 1
        },
        {
          "duration": 0.011363636363636687,
          "durationTicks": 5,
          "midi": 46,
          "name": "A#2",
          "ticks": 10859,
          "time": 24.679545454545455,
          "velocity": 1
        },
        {
          "duration": 0.011363636363633134,
          "durationTicks": 5,
          "midi": 42,
          "name": "F#2",
          "ticks": 10903,
          "time": 24.779545454545456,
          "velocity": 1
        },
        {
          "duration": 0.011363636363633134,
          "durationTicks": 5,
          "midi": 42,
          "name": "F#2",
          "ticks": 10982,
          "time": 24.95909090909091,
          "velocity": 1
        },
        {
          "duration": 0.011363636363636687,
          "durationTicks": 5,
          "midi": 41,
          "name": "F2",
          "ticks": 11035,
          "time": 25.079545454545453,
          "velocity": 1
        },
        {
          "duration": 0.011363636363636687,
          "durationTicks": 5,
          "midi": 42,
          "name": "F#2",
          "ticks": 11035,
          "time": 25.079545454545453,
          "velocity": 1
        },
        {
          "duration": 0.009090909090911481,
          "durationTicks": 4,
          "midi": 42,
          "name": "F#2",
          "ticks": 11097,
          "time": 25.220454545454544,
          "velocity": 1
        },
        {
          "duration": 0.011363636363633134,
          "durationTicks": 5,
          "midi": 41,
          "name": "F2",
          "ticks": 11123,
          "time": 25.279545454545456,
          "velocity": 1
        },
        {
          "duration": 0.011363636363633134,
          "durationTicks": 5,
          "midi": 42,
          "name": "F#2",
          "ticks": 11123,
          "time": 25.279545454545456,
          "velocity": 1
        },
        {
          "duration": 0.009090909090907928,
          "durationTicks": 4,
          "midi": 42,
          "name": "F#2",
          "ticks": 11172,
          "time": 25.39090909090909,
          "velocity": 1
        },
        {
          "duration": 0.009090909090911481,
          "durationTicks": 4,
          "midi": 42,
          "name": "F#2",
          "ticks": 11229,
          "time": 25.520454545454545,
          "velocity": 1
        },
        {
          "duration": 0.009090909090911481,
          "durationTicks": 4,
          "midi": 42,
          "name": "F#2",
          "ticks": 11286,
          "time": 25.65,
          "velocity": 1
        },
        {
          "duration": 0.011363636363636687,
          "durationTicks": 5,
          "midi": 42,
          "name": "F#2",
          "ticks": 11378,
          "time": 25.85909090909091,
          "velocity": 1
        },
        {
          "duration": 0.009090909090907928,
          "durationTicks": 4,
          "midi": 42,
          "name": "F#2",
          "ticks": 11414,
          "time": 25.94090909090909,
          "velocity": 1
        },
        {
          "duration": 0.011363636363636687,
          "durationTicks": 5,
          "midi": 41,
          "name": "F2",
          "ticks": 11475,
          "time": 26.079545454545453,
          "velocity": 1
        },
        {
          "duration": 0.011363636363636687,
          "durationTicks": 5,
          "midi": 42,
          "name": "F#2",
          "ticks": 11475,
          "time": 26.079545454545453,
          "velocity": 1
        },
        {
          "duration": 0.011363636363636687,
          "durationTicks": 5,
          "midi": 36,
          "name": "C2",
          "ticks": 11488,
          "time": 26.10909090909091,
          "velocity": 1
        },
        {
          "duration": 0.009090909090907928,
          "durationTicks": 4,
          "midi": 42,
          "name": "F#2",
          "ticks": 11524,
          "time": 26.19090909090909,
          "velocity": 1
        },
        {
          "duration": 0.009090909090907928,
          "durationTicks": 4,
          "midi": 42,
          "name": "F#2",
          "ticks": 11572,
          "time": 26.3,
          "velocity": 1
        },
        {
          "duration": 0.009090909090907928,
          "durationTicks": 4,
          "midi": 42,
          "name": "F#2",
          "ticks": 11625,
          "time": 26.420454545454547,
          "velocity": 1
        },
        {
          "duration": 0.009090909090911481,
          "durationTicks": 4,
          "midi": 42,
          "name": "F#2",
          "ticks": 11678,
          "time": 26.54090909090909,
          "velocity": 1
        },
        {
          "duration": 0.011363636363633134,
          "durationTicks": 5,
          "midi": 36,
          "name": "C2",
          "ticks": 11752,
          "time": 26.70909090909091,
          "velocity": 1
        },
        {
          "duration": 0.011363636363636687,
          "durationTicks": 5,
          "midi": 55,
          "name": "G3",
          "ticks": 11840,
          "time": 26.90909090909091,
          "velocity": 1
        },
        {
          "duration": 0.011363636363636687,
          "durationTicks": 5,
          "midi": 57,
          "name": "A3",
          "ticks": 11840,
          "time": 26.90909090909091,
          "velocity": 1
        },
        {
          "duration": 0.009090909090907928,
          "durationTicks": 4,
          "midi": 36,
          "name": "C2",
          "ticks": 11933,
          "time": 27.120454545454546,
          "velocity": 1
        },
        {
          "duration": 0.011363636363636687,
          "durationTicks": 5,
          "midi": 36,
          "name": "C2",
          "ticks": 12104,
          "time": 27.509090909090908,
          "velocity": 1
        },
        {
          "duration": 0.011363636363636687,
          "durationTicks": 5,
          "midi": 41,
          "name": "F2",
          "ticks": 12104,
          "time": 27.509090909090908,
          "velocity": 1
        },
        {
          "duration": 0.009090909090911481,
          "durationTicks": 4,
          "midi": 36,
          "name": "C2",
          "ticks": 12197,
          "time": 27.720454545454544,
          "velocity": 1
        },
        {
          "duration": 0.009090909090911481,
          "durationTicks": 4,
          "midi": 41,
          "name": "F2",
          "ticks": 12197,
          "time": 27.720454545454544,
          "velocity": 1
        },
        {
          "duration": 0.011363636363636687,
          "durationTicks": 5,
          "midi": 36,
          "name": "C2",
          "ticks": 12465,
          "time": 28.329545454545453,
          "velocity": 1
        },
        {
          "duration": 0.009090909090911481,
          "durationTicks": 4,
          "midi": 41,
          "name": "F2",
          "ticks": 12549,
          "time": 28.520454545454545,
          "velocity": 1
        },
        {
          "duration": 0.009090909090907928,
          "durationTicks": 4,
          "midi": 36,
          "name": "C2",
          "ticks": 12923,
          "time": 29.370454545454546,
          "velocity": 1
        },
        {
          "duration": 0.011363636363636687,
          "durationTicks": 5,
          "midi": 36,
          "name": "C2",
          "ticks": 13455,
          "time": 30.579545454545453,
          "velocity": 1
        },
        {
          "duration": 0.009090909090911481,
          "durationTicks": 4,
          "midi": 47,
          "name": "B2",
          "ticks": 13618,
          "time": 30.95,
          "velocity": 1
        },
        {
          "duration": 0.011363636363633134,
          "durationTicks": 5,
          "midi": 36,
          "name": "C2",
          "ticks": 13622,
          "time": 30.95909090909091,
          "velocity": 1
        },
        {
          "duration": 0.009090909090911481,
          "durationTicks": 4,
          "midi": 43,
          "name": "G2",
          "ticks": 13706,
          "time": 31.15,
          "velocity": 1
        },
        {
          "duration": 0.009090909090907928,
          "durationTicks": 4,
          "midi": 47,
          "name": "B2",
          "ticks": 13882,
          "time": 31.55,
          "velocity": 1
        },
        {
          "duration": 0.011363636363636687,
          "durationTicks": 5,
          "midi": 36,
          "name": "C2",
          "ticks": 13886,
          "time": 31.55909090909091,
          "velocity": 1
        },
        {
          "duration": 0.009090909090907928,
          "durationTicks": 4,
          "midi": 41,
          "name": "F2",
          "ticks": 13891,
          "time": 31.570454545454545,
          "velocity": 1
        },
        {
          "duration": 0.009090909090911481,
          "durationTicks": 4,
          "midi": 43,
          "name": "G2",
          "ticks": 13979,
          "time": 31.770454545454545,
          "velocity": 1
        },
        {
          "duration": 0.009090909090907928,
          "durationTicks": 4,
          "midi": 42,
          "name": "F#2",
          "ticks": 14142,
          "time": 32.14090909090909,
          "velocity": 1
        },
        {
          "duration": 0.009090909090907928,
          "durationTicks": 4,
          "midi": 75,
          "name": "D#5",
          "ticks": 14309,
          "time": 32.52045454545455,
          "velocity": 1
        },
        {
          "duration": 0.009090909090907928,
          "durationTicks": 4,
          "midi": 36,
          "name": "C2",
          "ticks": 14340,
          "time": 32.59090909090909,
          "velocity": 1
        },
        {
          "duration": 0.011363636363633134,
          "durationTicks": 5,
          "midi": 59,
          "name": "B3",
          "ticks": 14599,
          "time": 33.179545454545455,
          "velocity": 1
        },
        {
          "duration": 0.009090909090907928,
          "durationTicks": 4,
          "midi": 39,
          "name": "D#2",
          "ticks": 14692,
          "time": 33.39090909090909,
          "velocity": 1
        },
        {
          "duration": 0.009090909090907928,
          "durationTicks": 4,
          "midi": 43,
          "name": "G2",
          "ticks": 14692,
          "time": 33.39090909090909,
          "velocity": 1
        },
        {
          "duration": 0.009090909090907928,
          "durationTicks": 4,
          "midi": 59,
          "name": "B3",
          "ticks": 14780,
          "time": 33.59090909090909,
          "velocity": 1
        },
        {
          "duration": 0.009090909090907928,
          "durationTicks": 4,
          "midi": 59,
          "name": "B3",
          "ticks": 14956,
          "time": 33.99090909090909,
          "velocity": 1
        },
        {
          "duration": 0.009090909090907928,
          "durationTicks": 4,
          "midi": 36,
          "name": "C2",
          "ticks": 14960,
          "time": 34,
          "velocity": 1
        },
        {
          "duration": 0.009090909090907928,
          "durationTicks": 4,
          "midi": 36,
          "name": "C2",
          "ticks": 15048,
          "time": 34.2,
          "velocity": 1
        },
        {
          "duration": 0.009090909090907928,
          "durationTicks": 4,
          "midi": 59,
          "name": "B3",
          "ticks": 15048,
          "time": 34.2,
          "velocity": 1
        },
        {
          "duration": 0.009090909090907928,
          "durationTicks": 4,
          "midi": 36,
          "name": "C2",
          "ticks": 15334,
          "time": 34.85,
          "velocity": 1
        },
        {
          "duration": 0.009090909090907928,
          "durationTicks": 4,
          "midi": 59,
          "name": "B3",
          "ticks": 15334,
          "time": 34.85,
          "velocity": 1
        },
        {
          "duration": 0.01136363636364024,
          "durationTicks": 5,
          "midi": 43,
          "name": "G2",
          "ticks": 15404,
          "time": 35.00909090909091,
          "velocity": 1
        },
        {
          "duration": 0.01136363636364024,
          "durationTicks": 5,
          "midi": 59,
          "name": "B3",
          "ticks": 15404,
          "time": 35.00909090909091,
          "velocity": 1
        },
        {
          "duration": 0.011363636363633134,
          "durationTicks": 5,
          "midi": 51,
          "name": "D#3",
          "ticks": 15589,
          "time": 35.429545454545455,
          "velocity": 1
        },
        {
          "duration": 0.011363636363633134,
          "durationTicks": 5,
          "midi": 40,
          "name": "E2",
          "ticks": 15668,
          "time": 35.60909090909091,
          "velocity": 1
        },
        {
          "duration": 0.009090909090907928,
          "durationTicks": 4,
          "midi": 36,
          "name": "C2",
          "ticks": 15761,
          "time": 35.820454545454545,
          "velocity": 1
        },
        {
          "duration": 0.009090909090907928,
          "durationTicks": 4,
          "midi": 41,
          "name": "F2",
          "ticks": 15761,
          "time": 35.820454545454545,
          "velocity": 1
        },
        {
          "duration": 0.009090909090907928,
          "durationTicks": 4,
          "midi": 43,
          "name": "G2",
          "ticks": 15761,
          "time": 35.820454545454545,
          "velocity": 1
        },
        {
          "duration": 0.009090909090907928,
          "durationTicks": 4,
          "midi": 47,
          "name": "B2",
          "ticks": 15761,
          "time": 35.820454545454545,
          "velocity": 1
        },
        {
          "duration": 0.011363636363633134,
          "durationTicks": 5,
          "midi": 40,
          "name": "E2",
          "ticks": 16117,
          "time": 36.62954545454546,
          "velocity": 1
        },
        {
          "duration": 0.011363636363633134,
          "durationTicks": 5,
          "midi": 43,
          "name": "G2",
          "ticks": 16117,
          "time": 36.62954545454546,
          "velocity": 1
        },
        {
          "duration": 0.011363636363633134,
          "durationTicks": 5,
          "midi": 47,
          "name": "B2",
          "ticks": 16117,
          "time": 36.62954545454546,
          "velocity": 1
        },
        {
          "duration": 0.009090909090907928,
          "durationTicks": 4,
          "midi": 47,
          "name": "B2",
          "ticks": 16298,
          "time": 37.04090909090909,
          "velocity": 1
        },
        {
          "duration": 0.01136363636364024,
          "durationTicks": 5,
          "midi": 59,
          "name": "B3",
          "ticks": 16381,
          "time": 37.22954545454545,
          "velocity": 1
        },
        {
          "duration": 0.009090909090907928,
          "durationTicks": 4,
          "midi": 36,
          "name": "C2",
          "ticks": 16478,
          "time": 37.45,
          "velocity": 1
        },
        {
          "duration": 0.009090909090907928,
          "durationTicks": 4,
          "midi": 59,
          "name": "B3",
          "ticks": 16478,
          "time": 37.45,
          "velocity": 1
        },
        {
          "duration": 0.011363636363633134,
          "durationTicks": 5,
          "midi": 59,
          "name": "B3",
          "ticks": 16557,
          "time": 37.62954545454546,
          "velocity": 1
        },
        {
          "duration": 0.009090909090907928,
          "durationTicks": 4,
          "midi": 51,
          "name": "D#3",
          "ticks": 16610,
          "time": 37.75,
          "velocity": 1
        },
        {
          "duration": 0.011363636363633134,
          "durationTicks": 5,
          "midi": 59,
          "name": "B3",
          "ticks": 16658,
          "time": 37.85909090909091,
          "velocity": 1
        },
        {
          "duration": 0.01136363636364024,
          "durationTicks": 5,
          "midi": 51,
          "name": "D#3",
          "ticks": 16711,
          "time": 37.97954545454545,
          "velocity": 1
        },
        {
          "duration": 0.009090909090915034,
          "durationTicks": 4,
          "midi": 45,
          "name": "A2",
          "ticks": 16742,
          "time": 38.05,
          "velocity": 1
        },
        {
          "duration": 0.011363636363633134,
          "durationTicks": 5,
          "midi": 59,
          "name": "B3",
          "ticks": 16746,
          "time": 38.05909090909091,
          "velocity": 1
        },
        {
          "duration": 0.009090909090907928,
          "durationTicks": 4,
          "midi": 51,
          "name": "D#3",
          "ticks": 16817,
          "time": 38.220454545454544,
          "velocity": 1
        },
        {
          "duration": 0.009090909090907928,
          "durationTicks": 4,
          "midi": 47,
          "name": "B2",
          "ticks": 16839,
          "time": 38.27045454545455,
          "velocity": 1
        },
        {
          "duration": 0.009090909090907928,
          "durationTicks": 4,
          "midi": 75,
          "name": "D#5",
          "ticks": 16927,
          "time": 38.470454545454544,
          "velocity": 1
        },
        {
          "duration": 0.01136363636364024,
          "durationTicks": 5,
          "midi": 75,
          "name": "D#5",
          "ticks": 17010,
          "time": 38.65909090909091,
          "velocity": 1
        },
        {
          "duration": 0.01136363636364024,
          "durationTicks": 5,
          "midi": 36,
          "name": "C2",
          "ticks": 17195,
          "time": 39.07954545454545,
          "velocity": 1
        },
        {
          "duration": 0.009090909090907928,
          "durationTicks": 4,
          "midi": 42,
          "name": "F#2",
          "ticks": 17200,
          "time": 39.09090909090909,
          "velocity": 1
        },
        {
          "duration": 0.009090909090907928,
          "durationTicks": 4,
          "midi": 42,
          "name": "F#2",
          "ticks": 17380,
          "time": 39.5,
          "velocity": 1
        },
        {
          "duration": 0.011363636363633134,
          "durationTicks": 5,
          "midi": 47,
          "name": "B2",
          "ticks": 17459,
          "time": 39.679545454545455,
          "velocity": 1
        },
        {
          "duration": 0.011363636363633134,
          "durationTicks": 5,
          "midi": 39,
          "name": "D#2",
          "ticks": 17547,
          "time": 39.87954545454546,
          "velocity": 1
        },
        {
          "duration": 0.011363636363633134,
          "durationTicks": 5,
          "midi": 42,
          "name": "F#2",
          "ticks": 17547,
          "time": 39.87954545454546,
          "velocity": 1
        },
        {
          "duration": 0.009090909090907928,
          "durationTicks": 4,
          "midi": 36,
          "name": "C2",
          "ticks": 17640,
          "time": 40.09090909090909,
          "velocity": 1
        },
        {
          "duration": 0.009090909090915034,
          "durationTicks": 4,
          "midi": 42,
          "name": "F#2",
          "ticks": 17732,
          "time": 40.3,
          "velocity": 1
        },
        {
          "duration": 0.009090909090907928,
          "durationTicks": 4,
          "midi": 36,
          "name": "C2",
          "ticks": 17820,
          "time": 40.5,
          "velocity": 1
        },
        {
          "duration": 0.009090909090915034,
          "durationTicks": 4,
          "midi": 36,
          "name": "C2",
          "ticks": 17904,
          "time": 40.69090909090909,
          "velocity": 1
        },
        {
          "duration": 0.009090909090915034,
          "durationTicks": 4,
          "midi": 41,
          "name": "F2",
          "ticks": 17904,
          "time": 40.69090909090909,
          "velocity": 1
        },
        {
          "duration": 0.009090909090915034,
          "durationTicks": 4,
          "midi": 42,
          "name": "F#2",
          "ticks": 17904,
          "time": 40.69090909090909,
          "velocity": 1
        },
        {
          "duration": 0.011363636363633134,
          "durationTicks": 5,
          "midi": 36,
          "name": "C2",
          "ticks": 18176,
          "time": 41.30909090909091,
          "velocity": 1
        },
        {
          "duration": 0.009090909090907928,
          "durationTicks": 4,
          "midi": 39,
          "name": "D#2",
          "ticks": 18260,
          "time": 41.5,
          "velocity": 1
        },
        {
          "duration": 0.009090909090907928,
          "durationTicks": 4,
          "midi": 36,
          "name": "C2",
          "ticks": 18621,
          "time": 42.320454545454545,
          "velocity": 1
        },
        {
          "duration": 0.009090909090907928,
          "durationTicks": 4,
          "midi": 45,
          "name": "A2",
          "ticks": 18621,
          "time": 42.320454545454545,
          "velocity": 1
        },
        {
          "duration": 0.01136363636364024,
          "durationTicks": 5,
          "midi": 41,
          "name": "F2",
          "ticks": 18801,
          "time": 42.72954545454545,
          "velocity": 1
        },
        {
          "duration": 0.011363636363633134,
          "durationTicks": 5,
          "midi": 36,
          "name": "C2",
          "ticks": 19329,
          "time": 43.929545454545455,
          "velocity": 1
        },
        {
          "duration": 0.011363636363633134,
          "durationTicks": 5,
          "midi": 41,
          "name": "F2",
          "ticks": 19329,
          "time": 43.929545454545455,
          "velocity": 1
        },
        {
          "duration": 0.009090909090907928,
          "durationTicks": 4,
          "midi": 41,
          "name": "F2",
          "ticks": 19954,
          "time": 45.35,
          "velocity": 1
        },
        {
          "duration": 0.009090909090915034,
          "durationTicks": 4,
          "midi": 41,
          "name": "F2",
          "ticks": 20042,
          "time": 45.55,
          "velocity": 1
        },
        {
          "duration": 0.011363636363633134,
          "durationTicks": 5,
          "midi": 41,
          "name": "F2",
          "ticks": 20222,
          "time": 45.95909090909091,
          "velocity": 1
        },
        {
          "duration": 0.009090909090915034,
          "durationTicks": 4,
          "midi": 39,
          "name": "D#2",
          "ticks": 20403,
          "time": 46.37045454545454,
          "velocity": 1
        },
        {
          "duration": 0.011363636363633134,
          "durationTicks": 5,
          "midi": 36,
          "name": "C2",
          "ticks": 20759,
          "time": 47.179545454545455,
          "velocity": 1
        },
        {
          "duration": 0.011363636363633134,
          "durationTicks": 5,
          "midi": 59,
          "name": "B3",
          "ticks": 20759,
          "time": 47.179545454545455,
          "velocity": 1
        },
        {
          "duration": 0.009090909090907928,
          "durationTicks": 4,
          "midi": 59,
          "name": "B3",
          "ticks": 21116,
          "time": 47.99090909090909,
          "velocity": 1
        },
        {
          "duration": 0.009090909090907928,
          "durationTicks": 4,
          "midi": 41,
          "name": "F2",
          "ticks": 21384,
          "time": 48.6,
          "velocity": 1
        },
        {
          "duration": 0.011363636363633134,
          "durationTicks": 5,
          "midi": 36,
          "name": "C2",
          "ticks": 21388,
          "time": 48.60909090909091,
          "velocity": 1
        },
        {
          "duration": 0.009090909090907928,
          "durationTicks": 4,
          "midi": 41,
          "name": "F2",
          "ticks": 21560,
          "time": 49,
          "velocity": 1
        },
        {
          "duration": 0.01136363636364024,
          "durationTicks": 5,
          "midi": 36,
          "name": "C2",
          "ticks": 21564,
          "time": 49.00909090909091,
          "velocity": 1
        },
        {
          "duration": 0.009090909090907928,
          "durationTicks": 4,
          "midi": 37,
          "name": "C#2",
          "ticks": 22550,
          "time": 51.25,
          "velocity": 1
        },
        {
          "duration": 0.009090909090907928,
          "durationTicks": 4,
          "midi": 42,
          "name": "F#2",
          "ticks": 22550,
          "time": 51.25,
          "velocity": 1
        },
        {
          "duration": 0.009090909090907928,
          "durationTicks": 4,
          "midi": 41,
          "name": "F2",
          "ticks": 22810,
          "time": 51.84090909090909,
          "velocity": 1
        },
        {
          "duration": 0.009090909090907928,
          "durationTicks": 4,
          "midi": 41,
          "name": "F2",
          "ticks": 22898,
          "time": 52.04090909090909,
          "velocity": 1
        },
        {
          "duration": 0.009090909090915034,
          "durationTicks": 4,
          "midi": 36,
          "name": "C2",
          "ticks": 22902,
          "time": 52.05,
          "velocity": 1
        },
        {
          "duration": 0.011363636363633134,
          "durationTicks": 5,
          "midi": 36,
          "name": "C2",
          "ticks": 23082,
          "time": 52.45909090909091,
          "velocity": 1
        },
        {
          "duration": 0.011363636363633134,
          "durationTicks": 5,
          "midi": 41,
          "name": "F2",
          "ticks": 23082,
          "time": 52.45909090909091,
          "velocity": 1
        },
        {
          "duration": 0.009090909090907928,
          "durationTicks": 4,
          "midi": 41,
          "name": "F2",
          "ticks": 23254,
          "time": 52.85,
          "velocity": 1
        },
        {
          "duration": 0.009090909090907928,
          "durationTicks": 4,
          "midi": 41,
          "name": "F2",
          "ticks": 23272,
          "time": 52.89090909090909,
          "velocity": 1
        },
        {
          "duration": 0.011363636363633134,
          "durationTicks": 5,
          "midi": 41,
          "name": "F2",
          "ticks": 23346,
          "time": 53.05909090909091,
          "velocity": 1
        },
        {
          "duration": 0.009090909090907928,
          "durationTicks": 4,
          "midi": 36,
          "name": "C2",
          "ticks": 23615,
          "time": 53.67045454545455,
          "velocity": 1
        },
        {
          "duration": 0.009090909090907928,
          "durationTicks": 4,
          "midi": 59,
          "name": "B3",
          "ticks": 23615,
          "time": 53.67045454545455,
          "velocity": 1
        },
        {
          "duration": 0.011363636363633134,
          "durationTicks": 5,
          "midi": 59,
          "name": "B3",
          "ticks": 23786,
          "time": 54.05909090909091,
          "velocity": 1
        },
        {
          "duration": 0.011363636363633134,
          "durationTicks": 5,
          "midi": 59,
          "name": "B3",
          "ticks": 23852,
          "time": 54.20909090909091,
          "velocity": 1
        },
        {
          "duration": 0.011363636363633134,
          "durationTicks": 5,
          "midi": 36,
          "name": "C2",
          "ticks": 23883,
          "time": 54.279545454545456,
          "velocity": 1
        },
        {
          "duration": 0.011363636363633134,
          "durationTicks": 5,
          "midi": 59,
          "name": "B3",
          "ticks": 23962,
          "time": 54.45909090909091,
          "velocity": 1
        },
        {
          "duration": 0.009090909090915034,
          "durationTicks": 4,
          "midi": 59,
          "name": "B3",
          "ticks": 24143,
          "time": 54.87045454545454,
          "velocity": 1
        },
        {
          "duration": 0.009090909090907928,
          "durationTicks": 4,
          "midi": 59,
          "name": "B3",
          "ticks": 24319,
          "time": 55.27045454545455,
          "velocity": 1
        },
        {
          "duration": 0.009090909090915034,
          "durationTicks": 4,
          "midi": 36,
          "name": "C2",
          "ticks": 24504,
          "time": 55.69090909090909,
          "velocity": 1
        },
        {
          "duration": 0.009090909090907928,
          "durationTicks": 4,
          "midi": 36,
          "name": "C2",
          "ticks": 25036,
          "time": 56.9,
          "velocity": 1
        },
        {
          "duration": 0.009090909090907928,
          "durationTicks": 4,
          "midi": 59,
          "name": "B3",
          "ticks": 25036,
          "time": 56.9,
          "velocity": 1
        },
        {
          "duration": 0.011363636363633134,
          "durationTicks": 5,
          "midi": 44,
          "name": "G#2",
          "ticks": 25546,
          "time": 58.05909090909091,
          "velocity": 1
        },
        {
          "duration": 0.009090909090907928,
          "durationTicks": 4,
          "midi": 41,
          "name": "F2",
          "ticks": 25661,
          "time": 58.320454545454545,
          "velocity": 1
        },
        {
          "duration": 0.009090909090907928,
          "durationTicks": 4,
          "midi": 41,
          "name": "F2",
          "ticks": 25749,
          "time": 58.52045454545455,
          "velocity": 1
        },
        {
          "duration": 0.009090909090907928,
          "durationTicks": 4,
          "midi": 45,
          "name": "A2",
          "ticks": 25846,
          "time": 58.74090909090909,
          "velocity": 1
        },
        {
          "duration": 0.009090909090915034,
          "durationTicks": 4,
          "midi": 36,
          "name": "C2",
          "ticks": 25934,
          "time": 58.94090909090909,
          "velocity": 1
        },
        {
          "duration": 0.009090909090915034,
          "durationTicks": 4,
          "midi": 59,
          "name": "B3",
          "ticks": 25934,
          "time": 58.94090909090909,
          "velocity": 1
        },
        {
          "duration": 0.009090909090907928,
          "durationTicks": 4,
          "midi": 36,
          "name": "C2",
          "ticks": 26466,
          "time": 60.15,
          "velocity": 1
        },
        {
          "duration": 0.009090909090907928,
          "durationTicks": 4,
          "midi": 42,
          "name": "F#2",
          "ticks": 26466,
          "time": 60.15,
          "velocity": 1
        },
        {
          "duration": 0.009090909090915034,
          "durationTicks": 4,
          "midi": 42,
          "name": "F#2",
          "ticks": 26642,
          "time": 60.55,
          "velocity": 1
        },
        {
          "duration": 0.011363636363633134,
          "durationTicks": 5,
          "midi": 37,
          "name": "C#2",
          "ticks": 26822,
          "time": 60.95909090909091,
          "velocity": 1
        },
        {
          "duration": 0.011363636363633134,
          "durationTicks": 5,
          "midi": 42,
          "name": "F#2",
          "ticks": 26822,
          "time": 60.95909090909091,
          "velocity": 1
        },
        {
          "duration": 0.011363636363633134,
          "durationTicks": 5,
          "midi": 41,
          "name": "F2",
          "ticks": 27086,
          "time": 61.55909090909091,
          "velocity": 1
        },
        {
          "duration": 0.009090909090907928,
          "durationTicks": 4,
          "midi": 36,
          "name": "C2",
          "ticks": 27091,
          "time": 61.570454545454545,
          "velocity": 1
        },
        {
          "duration": 0.01136363636364024,
          "durationTicks": 5,
          "midi": 41,
          "name": "F2",
          "ticks": 27174,
          "time": 61.75909090909091,
          "velocity": 1
        },
        {
          "duration": 0.009090909090907928,
          "durationTicks": 4,
          "midi": 36,
          "name": "C2",
          "ticks": 27267,
          "time": 61.970454545454544,
          "velocity": 1
        },
        {
          "duration": 0.009090909090907928,
          "durationTicks": 4,
          "midi": 41,
          "name": "F2",
          "ticks": 27267,
          "time": 61.970454545454544,
          "velocity": 1
        },
        {
          "duration": 0.009090909090907928,
          "durationTicks": 4,
          "midi": 36,
          "name": "C2",
          "ticks": 27355,
          "time": 62.17045454545455,
          "velocity": 1
        },
        {
          "duration": 0.009090909090907928,
          "durationTicks": 4,
          "midi": 42,
          "name": "F#2",
          "ticks": 27531,
          "time": 62.570454545454545,
          "velocity": 1
        },
        {
          "duration": 0.011363636363633134,
          "durationTicks": 5,
          "midi": 37,
          "name": "C#2",
          "ticks": 27548,
          "time": 62.60909090909091,
          "velocity": 1
        },
        {
          "duration": 0.011363636363633134,
          "durationTicks": 5,
          "midi": 75,
          "name": "D#5",
          "ticks": 27702,
          "time": 62.95909090909091,
          "velocity": 1
        },
        {
          "duration": 0.009090909090907928,
          "durationTicks": 4,
          "midi": 75,
          "name": "D#5",
          "ticks": 27786,
          "time": 63.15,
          "velocity": 1
        },
        {
          "duration": 0.009090909090907928,
          "durationTicks": 4,
          "midi": 75,
          "name": "D#5",
          "ticks": 27874,
          "time": 63.35,
          "velocity": 1
        },
        {
          "duration": 0.009090909090907928,
          "durationTicks": 4,
          "midi": 36,
          "name": "C2",
          "ticks": 27892,
          "time": 63.39090909090909,
          "velocity": 1
        },
        {
          "duration": 0.009090909090900823,
          "durationTicks": 4,
          "midi": 42,
          "name": "F#2",
          "ticks": 28398,
          "time": 64.5409090909091,
          "velocity": 1
        },
        {
          "duration": 0.009090909090915034,
          "durationTicks": 4,
          "midi": 41,
          "name": "F2",
          "ticks": 28512,
          "time": 64.8,
          "velocity": 1
        },
        {
          "duration": 0.011363636363626028,
          "durationTicks": 5,
          "midi": 41,
          "name": "F2",
          "ticks": 28604,
          "time": 65.00909090909092,
          "velocity": 1
        },
        {
          "duration": 0.011363636363626028,
          "durationTicks": 5,
          "midi": 45,
          "name": "A2",
          "ticks": 28604,
          "time": 65.00909090909092,
          "velocity": 1
        },
        {
          "duration": 0.01136363636364024,
          "durationTicks": 5,
          "midi": 41,
          "name": "F2",
          "ticks": 28780,
          "time": 65.4090909090909,
          "velocity": 1
        },
        {
          "duration": 0.009090909090900823,
          "durationTicks": 4,
          "midi": 36,
          "name": "C2",
          "ticks": 28785,
          "time": 65.42045454545455,
          "velocity": 1
        },
        {
          "duration": 0.01136363636364024,
          "durationTicks": 5,
          "midi": 41,
          "name": "F2",
          "ticks": 28965,
          "time": 65.82954545454545,
          "velocity": 1
        },
        {
          "duration": 0.009090909090915034,
          "durationTicks": 4,
          "midi": 36,
          "name": "C2",
          "ticks": 29322,
          "time": 66.64090909090909,
          "velocity": 1
        },
        {
          "duration": 0.009090909090900823,
          "durationTicks": 4,
          "midi": 48,
          "name": "C3",
          "ticks": 29326,
          "time": 66.65,
          "velocity": 1
        },
        {
          "duration": 0.009090909090915034,
          "durationTicks": 4,
          "midi": 36,
          "name": "C2",
          "ticks": 29586,
          "time": 67.24090909090908,
          "velocity": 1
        },
        {
          "duration": 0.009090909090900823,
          "durationTicks": 4,
          "midi": 59,
          "name": "B3",
          "ticks": 29775,
          "time": 67.67045454545455,
          "velocity": 1
        },
        {
          "duration": 0.01136363636364024,
          "durationTicks": 5,
          "midi": 59,
          "name": "B3",
          "ticks": 29946,
          "time": 68.05909090909091,
          "velocity": 1
        },
        {
          "duration": 0.011363636363626028,
          "durationTicks": 5,
          "midi": 45,
          "name": "A2",
          "ticks": 30034,
          "time": 68.25909090909092,
          "velocity": 1
        },
        {
          "duration": 0.01136363636364024,
          "durationTicks": 5,
          "midi": 45,
          "name": "A2",
          "ticks": 30210,
          "time": 68.6590909090909,
          "velocity": 1
        },
        {
          "duration": 0.009090909090900823,
          "durationTicks": 4,
          "midi": 36,
          "name": "C2",
          "ticks": 30215,
          "time": 68.67045454545455,
          "velocity": 1
        },
        {
          "duration": 0.009090909090900823,
          "durationTicks": 4,
          "midi": 59,
          "name": "B3",
          "ticks": 30391,
          "time": 69.07045454545455,
          "velocity": 1
        },
        {
          "duration": 0.01136363636364024,
          "durationTicks": 5,
          "midi": 59,
          "name": "B3",
          "ticks": 30549,
          "time": 69.42954545454545,
          "velocity": 1
        },
        {
          "duration": 0.01136363636364024,
          "durationTicks": 5,
          "midi": 41,
          "name": "F2",
          "ticks": 30659,
          "time": 69.67954545454545,
          "velocity": 1
        },
        {
          "duration": 0.009090909090915034,
          "durationTicks": 4,
          "midi": 41,
          "name": "F2",
          "ticks": 30712,
          "time": 69.8,
          "velocity": 1
        },
        {
          "duration": 0.009090909090915034,
          "durationTicks": 4,
          "midi": 36,
          "name": "C2",
          "ticks": 30752,
          "time": 69.89090909090909,
          "velocity": 1
        },
        {
          "duration": 0.009090909090915034,
          "durationTicks": 4,
          "midi": 41,
          "name": "F2",
          "ticks": 30752,
          "time": 69.89090909090909,
          "velocity": 1
        },
        {
          "duration": 0.009090909090915034,
          "durationTicks": 4,
          "midi": 51,
          "name": "D#3",
          "ticks": 30752,
          "time": 69.89090909090909,
          "velocity": 1
        },
        {
          "duration": 0.01136363636364024,
          "durationTicks": 5,
          "midi": 51,
          "name": "D#3",
          "ticks": 31077,
          "time": 70.62954545454545,
          "velocity": 1
        },
        {
          "duration": 0.009090909090915034,
          "durationTicks": 4,
          "midi": 37,
          "name": "C#2",
          "ticks": 31104,
          "time": 70.69090909090909,
          "velocity": 1
        },
        {
          "duration": 0.009090909090915034,
          "durationTicks": 4,
          "midi": 39,
          "name": "D#2",
          "ticks": 31104,
          "time": 70.69090909090909,
          "velocity": 1
        },
        {
          "duration": 0.009090909090915034,
          "durationTicks": 4,
          "midi": 46,
          "name": "A#2",
          "ticks": 31227,
          "time": 70.97045454545454,
          "velocity": 1
        },
        {
          "duration": 0.009090909090915034,
          "durationTicks": 4,
          "midi": 51,
          "name": "D#3",
          "ticks": 31227,
          "time": 70.97045454545454,
          "velocity": 1
        },
        {
          "duration": 0.009090909090915034,
          "durationTicks": 4,
          "midi": 41,
          "name": "F2",
          "ticks": 31372,
          "time": 71.3,
          "velocity": 1
        },
        {
          "duration": 0.009090909090900823,
          "durationTicks": 4,
          "midi": 38,
          "name": "D2",
          "ticks": 31403,
          "time": 71.37045454545455,
          "velocity": 1
        },
        {
          "duration": 0.01136363636364024,
          "durationTicks": 5,
          "midi": 41,
          "name": "F2",
          "ticks": 31420,
          "time": 71.4090909090909,
          "velocity": 1
        },
        {
          "duration": 0.009090909090915034,
          "durationTicks": 4,
          "midi": 38,
          "name": "D2",
          "ticks": 31434,
          "time": 71.44090909090909,
          "velocity": 1
        },
        {
          "duration": 0.009090909090915034,
          "durationTicks": 4,
          "midi": 41,
          "name": "F2",
          "ticks": 31456,
          "time": 71.49090909090908,
          "velocity": 1
        },
        {
          "duration": 0.009090909090915034,
          "durationTicks": 4,
          "midi": 59,
          "name": "B3",
          "ticks": 31544,
          "time": 71.69090909090909,
          "velocity": 1
        },
        {
          "duration": 0.009090909090900823,
          "durationTicks": 4,
          "midi": 48,
          "name": "C3",
          "ticks": 31623,
          "time": 71.87045454545455,
          "velocity": 1
        },
        {
          "duration": 0.01136363636364024,
          "durationTicks": 5,
          "midi": 36,
          "name": "C2",
          "ticks": 31640,
          "time": 71.9090909090909,
          "velocity": 1
        },
        {
          "duration": 0.01136363636364024,
          "durationTicks": 5,
          "midi": 45,
          "name": "A2",
          "ticks": 31640,
          "time": 71.9090909090909,
          "velocity": 1
        },
        {
          "duration": 0.009090909090915034,
          "durationTicks": 4,
          "midi": 59,
          "name": "B3",
          "ticks": 31724,
          "time": 72.1,
          "velocity": 1
        },
        {
          "duration": 0.01136363636364024,
          "durationTicks": 5,
          "midi": 59,
          "name": "B3",
          "ticks": 31772,
          "time": 72.2090909090909,
          "velocity": 1
        },
        {
          "duration": 0.009090909090900823,
          "durationTicks": 4,
          "midi": 59,
          "name": "B3",
          "ticks": 31821,
          "time": 72.32045454545455,
          "velocity": 1
        },
        {
          "duration": 0.01136363636364024,
          "durationTicks": 5,
          "midi": 48,
          "name": "C3",
          "ticks": 31825,
          "time": 72.32954545454545,
          "velocity": 1
        },
        {
          "duration": 0.01136363636364024,
          "durationTicks": 5,
          "midi": 59,
          "name": "B3",
          "ticks": 31913,
          "time": 72.52954545454546,
          "velocity": 1
        },
        {
          "duration": 0.009090909090915034,
          "durationTicks": 4,
          "midi": 59,
          "name": "B3",
          "ticks": 31997,
          "time": 72.72045454545454,
          "velocity": 1
        },
        {
          "duration": 0.01136363636364024,
          "durationTicks": 5,
          "midi": 59,
          "name": "B3",
          "ticks": 32080,
          "time": 72.9090909090909,
          "velocity": 1
        },
        {
          "duration": 0.009090909090915034,
          "durationTicks": 4,
          "midi": 59,
          "name": "B3",
          "ticks": 32129,
          "time": 73.02045454545454,
          "velocity": 1
        },
        {
          "duration": 0.01136363636364024,
          "durationTicks": 5,
          "midi": 36,
          "name": "C2",
          "ticks": 32177,
          "time": 73.12954545454545,
          "velocity": 1
        },
        {
          "duration": 0.01136363636364024,
          "durationTicks": 5,
          "midi": 59,
          "name": "B3",
          "ticks": 32177,
          "time": 73.12954545454545,
          "velocity": 1
        },
        {
          "duration": 0.009090909090915034,
          "durationTicks": 4,
          "midi": 47,
          "name": "B2",
          "ticks": 32534,
          "time": 73.94090909090909,
          "velocity": 1
        },
        {
          "duration": 0.009090909090900823,
          "durationTicks": 4,
          "midi": 45,
          "name": "A2",
          "ticks": 32798,
          "time": 74.5409090909091,
          "velocity": 1
        },
        {
          "duration": 0.009090909090915034,
          "durationTicks": 4,
          "midi": 36,
          "name": "C2",
          "ticks": 32802,
          "time": 74.55,
          "velocity": 1
        },
        {
          "duration": 0.009090909090915034,
          "durationTicks": 4,
          "midi": 41,
          "name": "F2",
          "ticks": 32886,
          "time": 74.74090909090908,
          "velocity": 1
        },
        {
          "duration": 0.009090909090900823,
          "durationTicks": 4,
          "midi": 41,
          "name": "F2",
          "ticks": 32978,
          "time": 74.95,
          "velocity": 1
        },
        {
          "duration": 0.009090909090915034,
          "durationTicks": 4,
          "midi": 41,
          "name": "F2",
          "ticks": 33062,
          "time": 75.14090909090909,
          "velocity": 1
        },
        {
          "duration": 0.01136363636364024,
          "durationTicks": 5,
          "midi": 36,
          "name": "C2",
          "ticks": 33070,
          "time": 75.1590909090909,
          "velocity": 1
        },
        {
          "duration": 0.009090909090915034,
          "durationTicks": 4,
          "midi": 42,
          "name": "F#2",
          "ticks": 33242,
          "time": 75.55,
          "velocity": 1
        },
        {
          "duration": 0.01136363636364024,
          "durationTicks": 5,
          "midi": 41,
          "name": "F2",
          "ticks": 33598,
          "time": 76.35909090909091,
          "velocity": 1
        },
        {
          "duration": 0.01136363636364024,
          "durationTicks": 5,
          "midi": 41,
          "name": "F2",
          "ticks": 34223,
          "time": 77.77954545454546,
          "velocity": 1
        },
        {
          "duration": 0.011363636363626028,
          "durationTicks": 5,
          "midi": 41,
          "name": "F2",
          "ticks": 34311,
          "time": 77.97954545454546,
          "velocity": 1
        },
        {
          "duration": 0.011363636363626028,
          "durationTicks": 5,
          "midi": 36,
          "name": "C2",
          "ticks": 34324,
          "time": 78.00909090909092,
          "velocity": 1
        },
        {
          "duration": 0.009090909090900823,
          "durationTicks": 4,
          "midi": 36,
          "name": "C2",
          "ticks": 34496,
          "time": 78.4,
          "velocity": 1
        },
        {
          "duration": 0.009090909090915034,
          "durationTicks": 4,
          "midi": 41,
          "name": "F2",
          "ticks": 34672,
          "time": 78.8,
          "velocity": 1
        },
        {
          "duration": 0.01136363636364024,
          "durationTicks": 5,
          "midi": 47,
          "name": "B2",
          "ticks": 34685,
          "time": 78.82954545454545,
          "velocity": 1
        },
        {
          "duration": 0.009090909090915034,
          "durationTicks": 4,
          "midi": 41,
          "name": "F2",
          "ticks": 34760,
          "time": 79,
          "velocity": 1
        },
        {
          "duration": 0.01136363636364024,
          "durationTicks": 5,
          "midi": 41,
          "name": "F2",
          "ticks": 35028,
          "time": 79.60909090909091,
          "velocity": 1
        },
        {
          "duration": 0.01136363636364024,
          "durationTicks": 5,
          "midi": 36,
          "name": "C2",
          "ticks": 35037,
          "time": 79.62954545454545,
          "velocity": 1
        },
        {
          "duration": 0.009090909090915034,
          "durationTicks": 4,
          "midi": 59,
          "name": "B3",
          "ticks": 35209,
          "time": 80.02045454545454,
          "velocity": 1
        },
        {
          "duration": 0.009090909090915034,
          "durationTicks": 4,
          "midi": 36,
          "name": "C2",
          "ticks": 35297,
          "time": 80.22045454545454,
          "velocity": 1
        },
        {
          "duration": 0.009090909090900823,
          "durationTicks": 4,
          "midi": 59,
          "name": "B3",
          "ticks": 35385,
          "time": 80.42045454545455,
          "velocity": 1
        },
        {
          "duration": 0.01136363636364024,
          "durationTicks": 5,
          "midi": 37,
          "name": "C#2",
          "ticks": 35389,
          "time": 80.42954545454545,
          "velocity": 1
        },
        {
          "duration": 0.01136363636364024,
          "durationTicks": 5,
          "midi": 59,
          "name": "B3",
          "ticks": 35565,
          "time": 80.82954545454545,
          "velocity": 1
        },
        {
          "duration": 0.011363636363626028,
          "durationTicks": 5,
          "midi": 41,
          "name": "F2",
          "ticks": 35741,
          "time": 81.22954545454546,
          "velocity": 1
        },
        {
          "duration": 0.009090909090915034,
          "durationTicks": 4,
          "midi": 36,
          "name": "C2",
          "ticks": 35922,
          "time": 81.64090909090909,
          "velocity": 1
        },
        {
          "duration": 0.009090909090915034,
          "durationTicks": 4,
          "midi": 41,
          "name": "F2",
          "ticks": 35922,
          "time": 81.64090909090909,
          "velocity": 1
        },
        {
          "duration": 0.009090909090900823,
          "durationTicks": 4,
          "midi": 59,
          "name": "B3",
          "ticks": 36098,
          "time": 82.0409090909091,
          "velocity": 1
        },
        {
          "duration": 0.009090909090900823,
          "durationTicks": 4,
          "midi": 59,
          "name": "B3",
          "ticks": 36278,
          "time": 82.45,
          "velocity": 1
        },
        {
          "duration": 0.01136363636364024,
          "durationTicks": 5,
          "midi": 51,
          "name": "D#3",
          "ticks": 36326,
          "time": 82.55909090909091,
          "velocity": 1
        },
        {
          "duration": 0.01136363636364024,
          "durationTicks": 5,
          "midi": 59,
          "name": "B3",
          "ticks": 36357,
          "time": 82.62954545454545,
          "velocity": 1
        },
        {
          "duration": 0.009090909090915034,
          "durationTicks": 4,
          "midi": 59,
          "name": "B3",
          "ticks": 36419,
          "time": 82.77045454545454,
          "velocity": 1
        },
        {
          "duration": 0.009090909090900823,
          "durationTicks": 4,
          "midi": 59,
          "name": "B3",
          "ticks": 36441,
          "time": 82.82045454545455,
          "velocity": 1
        },
        {
          "duration": 0.009090909090900823,
          "durationTicks": 4,
          "midi": 36,
          "name": "C2",
          "ticks": 36463,
          "time": 82.87045454545455,
          "velocity": 1
        },
        {
          "duration": 0.01136363636364024,
          "durationTicks": 5,
          "midi": 59,
          "name": "B3",
          "ticks": 36700,
          "time": 83.4090909090909,
          "velocity": 1
        },
        {
          "duration": 0.01136363636364024,
          "durationTicks": 5,
          "midi": 59,
          "name": "B3",
          "ticks": 36810,
          "time": 83.6590909090909,
          "velocity": 1
        },
        {
          "duration": 0.009090909090900823,
          "durationTicks": 4,
          "midi": 37,
          "name": "C#2",
          "ticks": 36815,
          "time": 83.67045454545455,
          "velocity": 1
        },
        {
          "duration": 0.009090909090915034,
          "durationTicks": 4,
          "midi": 36,
          "name": "C2",
          "ticks": 37079,
          "time": 84.27045454545454,
          "velocity": 1
        },
        {
          "duration": 0.009090909090915034,
          "durationTicks": 4,
          "midi": 59,
          "name": "B3",
          "ticks": 37079,
          "time": 84.27045454545454,
          "velocity": 1
        },
        {
          "duration": 0.009090909090915034,
          "durationTicks": 4,
          "midi": 59,
          "name": "B3",
          "ticks": 37132,
          "time": 84.39090909090909,
          "velocity": 1
        },
        {
          "duration": 0.009090909090915034,
          "durationTicks": 4,
          "midi": 45,
          "name": "A2",
          "ticks": 37167,
          "time": 84.47045454545454,
          "velocity": 1
        },
        {
          "duration": 0.011363636363626028,
          "durationTicks": 5,
          "midi": 36,
          "name": "C2",
          "ticks": 37171,
          "time": 84.47954545454546,
          "velocity": 1
        },
        {
          "duration": 0.009090909090915034,
          "durationTicks": 4,
          "midi": 45,
          "name": "A2",
          "ticks": 37264,
          "time": 84.69090909090909,
          "velocity": 1
        },
        {
          "duration": 0.009090909090900823,
          "durationTicks": 4,
          "midi": 45,
          "name": "A2",
          "ticks": 37343,
          "time": 84.87045454545455,
          "velocity": 1
        },
        {
          "duration": 0.01136363636364024,
          "durationTicks": 5,
          "midi": 36,
          "name": "C2",
          "ticks": 37347,
          "time": 84.87954545454545,
          "velocity": 1
        },
        {
          "duration": 0.009090909090900823,
          "durationTicks": 4,
          "midi": 37,
          "name": "C#2",
          "ticks": 37528,
          "time": 85.2909090909091,
          "velocity": 1
        },
        {
          "duration": 0.009090909090900823,
          "durationTicks": 4,
          "midi": 42,
          "name": "F#2",
          "ticks": 37528,
          "time": 85.2909090909091,
          "velocity": 1
        },
        {
          "duration": 0.01136363636364024,
          "durationTicks": 5,
          "midi": 46,
          "name": "A#2",
          "ticks": 37655,
          "time": 85.57954545454545,
          "velocity": 1
        },
        {
          "duration": 0.009090909090915034,
          "durationTicks": 4,
          "midi": 36,
          "name": "C2",
          "ticks": 37884,
          "time": 86.1,
          "velocity": 1
        },
        {
          "duration": 0.009090909090915034,
          "durationTicks": 4,
          "midi": 41,
          "name": "F2",
          "ticks": 37884,
          "time": 86.1,
          "velocity": 1
        },
        {
          "duration": 0.009090909090915034,
          "durationTicks": 4,
          "midi": 42,
          "name": "F#2",
          "ticks": 37884,
          "time": 86.1,
          "velocity": 1
        },
        {
          "duration": 0.009090909090915034,
          "durationTicks": 4,
          "midi": 70,
          "name": "A#4",
          "ticks": 37884,
          "time": 86.1,
          "velocity": 1
        },
        {
          "duration": 0.009090909090915034,
          "durationTicks": 4,
          "midi": 42,
          "name": "F#2",
          "ticks": 37994,
          "time": 86.35,
          "velocity": 1
        },
        {
          "duration": 0.009090909090915034,
          "durationTicks": 4,
          "midi": 70,
          "name": "A#4",
          "ticks": 37994,
          "time": 86.35,
          "velocity": 1
        },
        {
          "duration": 0.009090909090915034,
          "durationTicks": 4,
          "midi": 42,
          "name": "F#2",
          "ticks": 38122,
          "time": 86.64090909090909,
          "velocity": 1
        },
        {
          "duration": 0.009090909090915034,
          "durationTicks": 4,
          "midi": 70,
          "name": "A#4",
          "ticks": 38122,
          "time": 86.64090909090909,
          "velocity": 1
        },
        {
          "duration": 0.009090909090915034,
          "durationTicks": 4,
          "midi": 42,
          "name": "F#2",
          "ticks": 38254,
          "time": 86.94090909090909,
          "velocity": 1
        },
        {
          "duration": 0.009090909090915034,
          "durationTicks": 4,
          "midi": 70,
          "name": "A#4",
          "ticks": 38254,
          "time": 86.94090909090909,
          "velocity": 1
        },
        {
          "duration": 0.009090909090915034,
          "durationTicks": 4,
          "midi": 42,
          "name": "F#2",
          "ticks": 38390,
          "time": 87.25,
          "velocity": 1
        },
        {
          "duration": 0.009090909090915034,
          "durationTicks": 4,
          "midi": 70,
          "name": "A#4",
          "ticks": 38390,
          "time": 87.25,
          "velocity": 1
        },
        {
          "duration": 0.011363636363626028,
          "durationTicks": 5,
          "midi": 41,
          "name": "F2",
          "ticks": 38504,
          "time": 87.50909090909092,
          "velocity": 1
        },
        {
          "duration": 0.011363636363626028,
          "durationTicks": 5,
          "midi": 70,
          "name": "A#4",
          "ticks": 38504,
          "time": 87.50909090909092,
          "velocity": 1
        },
        {
          "duration": 0.009090909090900823,
          "durationTicks": 4,
          "midi": 42,
          "name": "F#2",
          "ticks": 38553,
          "time": 87.62045454545455,
          "velocity": 1
        },
        {
          "duration": 0.009090909090900823,
          "durationTicks": 4,
          "midi": 70,
          "name": "A#4",
          "ticks": 38553,
          "time": 87.62045454545455,
          "velocity": 1
        },
        {
          "duration": 0.01136363636364024,
          "durationTicks": 5,
          "midi": 48,
          "name": "C3",
          "ticks": 38592,
          "time": 87.7090909090909,
          "velocity": 1
        },
        {
          "duration": 0.009090909090900823,
          "durationTicks": 4,
          "midi": 41,
          "name": "F2",
          "ticks": 38685,
          "time": 87.92045454545455,
          "velocity": 1
        },
        {
          "duration": 0.009090909090900823,
          "durationTicks": 4,
          "midi": 70,
          "name": "A#4",
          "ticks": 38685,
          "time": 87.92045454545455,
          "velocity": 1
        },
        {
          "duration": 0.011363636363626028,
          "durationTicks": 5,
          "midi": 41,
          "name": "F2",
          "ticks": 39934,
          "time": 90.75909090909092,
          "velocity": 1
        },
        {
          "duration": 0.01136363636364024,
          "durationTicks": 5,
          "midi": 36,
          "name": "C2",
          "ticks": 40022,
          "time": 90.9590909090909,
          "velocity": 1
        },
        {
          "duration": 0.01136363636364024,
          "durationTicks": 5,
          "midi": 41,
          "name": "F2",
          "ticks": 40022,
          "time": 90.9590909090909,
          "velocity": 1
        },
        {
          "duration": 0.009090909090900823,
          "durationTicks": 4,
          "midi": 41,
          "name": "F2",
          "ticks": 40203,
          "time": 91.37045454545455,
          "velocity": 1
        },
        {
          "duration": 0.01136363636364024,
          "durationTicks": 5,
          "midi": 48,
          "name": "C3",
          "ticks": 40352,
          "time": 91.7090909090909,
          "velocity": 1
        },
        {
          "duration": 0.009090909090900823,
          "durationTicks": 4,
          "midi": 41,
          "name": "F2",
          "ticks": 40388,
          "time": 91.7909090909091,
          "velocity": 1
        },
        {
          "duration": 0.009090909090915034,
          "durationTicks": 4,
          "midi": 41,
          "name": "F2",
          "ticks": 40467,
          "time": 91.97045454545454,
          "velocity": 1
        },
        {
          "duration": 0.01136363636364024,
          "durationTicks": 5,
          "midi": 59,
          "name": "B3",
          "ticks": 40647,
          "time": 92.37954545454545,
          "velocity": 1
        },
        {
          "duration": 0.011363636363626028,
          "durationTicks": 5,
          "midi": 59,
          "name": "B3",
          "ticks": 40691,
          "time": 92.47954545454546,
          "velocity": 1
        },
        {
          "duration": 0.009090909090900823,
          "durationTicks": 4,
          "midi": 41,
          "name": "F2",
          "ticks": 40731,
          "time": 92.57045454545455,
          "velocity": 1
        },
        {
          "duration": 0.01136363636364024,
          "durationTicks": 5,
          "midi": 41,
          "name": "F2",
          "ticks": 40999,
          "time": 93.17954545454545,
          "velocity": 1
        },
        {
          "duration": 0.009090909090900823,
          "durationTicks": 4,
          "midi": 45,
          "name": "A2",
          "ticks": 41268,
          "time": 93.7909090909091,
          "velocity": 1
        },
        {
          "duration": 0.009090909090900823,
          "durationTicks": 4,
          "midi": 41,
          "name": "F2",
          "ticks": 42161,
          "time": 95.82045454545455,
          "velocity": 1
        },
        {
          "duration": 0.009090909090900823,
          "durationTicks": 4,
          "midi": 51,
          "name": "D#3",
          "ticks": 42170,
          "time": 95.8409090909091,
          "velocity": 1
        },
        {
          "duration": 0.01136363636364024,
          "durationTicks": 5,
          "midi": 41,
          "name": "F2",
          "ticks": 42429,
          "time": 96.42954545454545,
          "velocity": 1
        },
        {
          "duration": 0.009090909090915034,
          "durationTicks": 4,
          "midi": 36,
          "name": "C2",
          "ticks": 42434,
          "time": 96.44090909090909,
          "velocity": 1
        },
        {
          "duration": 0.009090909090915034,
          "durationTicks": 4,
          "midi": 37,
          "name": "C#2",
          "ticks": 42522,
          "time": 96.64090909090909,
          "velocity": 1
        },
        {
          "duration": 0.009090909090915034,
          "durationTicks": 4,
          "midi": 42,
          "name": "F#2",
          "ticks": 42522,
          "time": 96.64090909090909,
          "velocity": 1
        },
        {
          "duration": 0.009090909090900823,
          "durationTicks": 4,
          "midi": 41,
          "name": "F2",
          "ticks": 42698,
          "time": 97.0409090909091,
          "velocity": 1
        },
        {
          "duration": 0.009090909090915034,
          "durationTicks": 4,
          "midi": 36,
          "name": "C2",
          "ticks": 42702,
          "time": 97.05,
          "velocity": 1
        },
        {
          "duration": 0.009090909090915034,
          "durationTicks": 4,
          "midi": 36,
          "name": "C2",
          "ticks": 42887,
          "time": 97.47045454545454,
          "velocity": 1
        },
        {
          "duration": 0.009090909090915034,
          "durationTicks": 4,
          "midi": 45,
          "name": "A2",
          "ticks": 43054,
          "time": 97.85,
          "velocity": 1
        },
        {
          "duration": 0.009090909090900823,
          "durationTicks": 4,
          "midi": 36,
          "name": "C2",
          "ticks": 43063,
          "time": 97.87045454545455,
          "velocity": 1
        },
        {
          "duration": 0.009090909090915034,
          "durationTicks": 4,
          "midi": 59,
          "name": "B3",
          "ticks": 43230,
          "time": 98.25,
          "velocity": 1
        },
        {
          "duration": 0.009090909090900823,
          "durationTicks": 4,
          "midi": 59,
          "name": "B3",
          "ticks": 43503,
          "time": 98.87045454545455,
          "velocity": 1
        },
        {
          "duration": 0.009090909090900823,
          "durationTicks": 4,
          "midi": 59,
          "name": "B3",
          "ticks": 43591,
          "time": 99.07045454545455,
          "velocity": 1
        },
        {
          "duration": 0.01136363636364024,
          "durationTicks": 5,
          "midi": 36,
          "name": "C2",
          "ticks": 43595,
          "time": 99.07954545454545,
          "velocity": 1
        },
        {
          "duration": 0.01136363636364024,
          "durationTicks": 5,
          "midi": 59,
          "name": "B3",
          "ticks": 43947,
          "time": 99.87954545454545,
          "velocity": 1
        },
        {
          "duration": 0.009090909090915034,
          "durationTicks": 4,
          "midi": 37,
          "name": "C#2",
          "ticks": 43952,
          "time": 99.89090909090909,
          "velocity": 1
        },
        {
          "duration": 0.009090909090915034,
          "durationTicks": 4,
          "midi": 42,
          "name": "F#2",
          "ticks": 43952,
          "time": 99.89090909090909,
          "velocity": 1
        },
        {
          "duration": 0.009090909090915034,
          "durationTicks": 4,
          "midi": 41,
          "name": "F2",
          "ticks": 44216,
          "time": 100.49090909090908,
          "velocity": 1
        },
        {
          "duration": 0.01136363636364024,
          "durationTicks": 5,
          "midi": 45,
          "name": "A2",
          "ticks": 44312,
          "time": 100.7090909090909,
          "velocity": 1
        },
        {
          "duration": 0.009090909090900823,
          "durationTicks": 4,
          "midi": 36,
          "name": "C2",
          "ticks": 44396,
          "time": 100.9,
          "velocity": 1
        },
        {
          "duration": 0.009090909090900823,
          "durationTicks": 4,
          "midi": 41,
          "name": "F2",
          "ticks": 44396,
          "time": 100.9,
          "velocity": 1
        },
        {
          "duration": 0.009090909090915034,
          "durationTicks": 4,
          "midi": 36,
          "name": "C2",
          "ticks": 44484,
          "time": 101.1,
          "velocity": 1
        },
        {
          "duration": 0.009090909090915034,
          "durationTicks": 4,
          "midi": 41,
          "name": "F2",
          "ticks": 44484,
          "time": 101.1,
          "velocity": 1
        },
        {
          "duration": 0.009090909090915034,
          "durationTicks": 4,
          "midi": 45,
          "name": "A2",
          "ticks": 44484,
          "time": 101.1,
          "velocity": 1
        },
        {
          "duration": 0.009090909090915034,
          "durationTicks": 4,
          "midi": 59,
          "name": "B3",
          "ticks": 44660,
          "time": 101.5,
          "velocity": 1
        },
        {
          "duration": 0.01136363636364024,
          "durationTicks": 5,
          "midi": 59,
          "name": "B3",
          "ticks": 44928,
          "time": 102.10909090909091,
          "velocity": 1
        },
        {
          "duration": 0.01136363636364024,
          "durationTicks": 5,
          "midi": 59,
          "name": "B3",
          "ticks": 45016,
          "time": 102.30909090909091,
          "velocity": 1
        },
        {
          "duration": 0.009090909090900823,
          "durationTicks": 4,
          "midi": 36,
          "name": "C2",
          "ticks": 45021,
          "time": 102.32045454545455,
          "velocity": 1
        },
        {
          "duration": 0.01136363636364024,
          "durationTicks": 5,
          "midi": 46,
          "name": "A#2",
          "ticks": 45289,
          "time": 102.92954545454545,
          "velocity": 1
        },
        {
          "duration": 0.01136363636364024,
          "durationTicks": 5,
          "midi": 37,
          "name": "C#2",
          "ticks": 45377,
          "time": 103.12954545454545,
          "velocity": 1
        },
        {
          "duration": 0.01136363636364024,
          "durationTicks": 5,
          "midi": 42,
          "name": "F#2",
          "ticks": 45377,
          "time": 103.12954545454545,
          "velocity": 1
        },
        {
          "duration": 0.009090909090915034,
          "durationTicks": 4,
          "midi": 36,
          "name": "C2",
          "ticks": 45646,
          "time": 103.74090909090908,
          "velocity": 1
        },
        {
          "duration": 0.009090909090915034,
          "durationTicks": 4,
          "midi": 41,
          "name": "F2",
          "ticks": 45646,
          "time": 103.74090909090908,
          "velocity": 1
        },
        {
          "duration": 0.009090909090900823,
          "durationTicks": 4,
          "midi": 46,
          "name": "A#2",
          "ticks": 45738,
          "time": 103.95,
          "velocity": 1
        },
        {
          "duration": 0.009090909090915034,
          "durationTicks": 4,
          "midi": 36,
          "name": "C2",
          "ticks": 45822,
          "time": 104.14090909090909,
          "velocity": 1
        },
        {
          "duration": 0.009090909090915034,
          "durationTicks": 4,
          "midi": 41,
          "name": "F2",
          "ticks": 45822,
          "time": 104.14090909090909,
          "velocity": 1
        },
        {
          "duration": 0.009090909090900823,
          "durationTicks": 4,
          "midi": 36,
          "name": "C2",
          "ticks": 45910,
          "time": 104.3409090909091,
          "velocity": 1
        },
        {
          "duration": 0.009090909090900823,
          "durationTicks": 4,
          "midi": 41,
          "name": "F2",
          "ticks": 45910,
          "time": 104.3409090909091,
          "velocity": 1
        },
        {
          "duration": 0.009090909090915034,
          "durationTicks": 4,
          "midi": 59,
          "name": "B3",
          "ticks": 46086,
          "time": 104.74090909090908,
          "velocity": 1
        },
        {
          "duration": 0.009090909090915034,
          "durationTicks": 4,
          "midi": 44,
          "name": "G#2",
          "ticks": 46174,
          "time": 104.94090909090909,
          "velocity": 1
        },
        {
          "duration": 0.009090909090900823,
          "durationTicks": 4,
          "midi": 59,
          "name": "B3",
          "ticks": 46350,
          "time": 105.3409090909091,
          "velocity": 1
        },
        {
          "duration": 0.01136363636364024,
          "durationTicks": 5,
          "midi": 36,
          "name": "C2",
          "ticks": 46446,
          "time": 105.55909090909091,
          "velocity": 1
        },
        {
          "duration": 0.01136363636364024,
          "durationTicks": 5,
          "midi": 59,
          "name": "B3",
          "ticks": 46446,
          "time": 105.55909090909091,
          "velocity": 1
        },
        {
          "duration": 0.01136363636364024,
          "durationTicks": 5,
          "midi": 51,
          "name": "D#3",
          "ticks": 46697,
          "time": 106.12954545454545,
          "velocity": 1
        },
        {
          "duration": 0.01136363636364024,
          "durationTicks": 5,
          "midi": 59,
          "name": "B3",
          "ticks": 46798,
          "time": 106.35909090909091,
          "velocity": 1
        },
        {
          "duration": 0.009090909090900823,
          "durationTicks": 4,
          "midi": 37,
          "name": "C#2",
          "ticks": 46803,
          "time": 106.37045454545455,
          "velocity": 1
        },
        {
          "duration": 0.009090909090915034,
          "durationTicks": 4,
          "midi": 41,
          "name": "F2",
          "ticks": 47067,
          "time": 106.97045454545454,
          "velocity": 1
        },
        {
          "duration": 0.01136363636364024,
          "durationTicks": 5,
          "midi": 36,
          "name": "C2",
          "ticks": 47335,
          "time": 107.57954545454545,
          "velocity": 1
        },
        {
          "duration": 0.009090909090915034,
          "durationTicks": 4,
          "midi": 36,
          "name": "C2",
          "ticks": 47604,
          "time": 108.19090909090909,
          "velocity": 1
        },
        {
          "duration": 0.01136363636364024,
          "durationTicks": 5,
          "midi": 36,
          "name": "C2",
          "ticks": 47876,
          "time": 108.80909090909091,
          "velocity": 1
        },
        {
          "duration": 0.009090909090915034,
          "durationTicks": 4,
          "midi": 41,
          "name": "F2",
          "ticks": 49302,
          "time": 112.05,
          "velocity": 1
        },
        {
          "duration": 0.009090909090915034,
          "durationTicks": 4,
          "midi": 43,
          "name": "G2",
          "ticks": 49302,
          "time": 112.05,
          "velocity": 1
        },
        {
          "duration": 0.009090909090915034,
          "durationTicks": 4,
          "midi": 51,
          "name": "D#3",
          "ticks": 49302,
          "time": 112.05,
          "velocity": 1
        },
        {
          "duration": 0.009090909090915034,
          "durationTicks": 4,
          "midi": 44,
          "name": "G#2",
          "ticks": 49386,
          "time": 112.24090909090908,
          "velocity": 1
        },
        {
          "duration": 0.009090909090900823,
          "durationTicks": 4,
          "midi": 42,
          "name": "F#2",
          "ticks": 49478,
          "time": 112.45,
          "velocity": 1
        },
        {
          "duration": 0.009090909090900823,
          "durationTicks": 4,
          "midi": 44,
          "name": "G#2",
          "ticks": 49478,
          "time": 112.45,
          "velocity": 1
        },
        {
          "duration": 0.009090909090900823,
          "durationTicks": 4,
          "midi": 59,
          "name": "B3",
          "ticks": 49478,
          "time": 112.45,
          "velocity": 1
        },
        {
          "duration": 0.009090909090915034,
          "durationTicks": 4,
          "midi": 36,
          "name": "C2",
          "ticks": 49562,
          "time": 112.64090909090909,
          "velocity": 1
        },
        {
          "duration": 0.009090909090915034,
          "durationTicks": 4,
          "midi": 59,
          "name": "B3",
          "ticks": 49562,
          "time": 112.64090909090909,
          "velocity": 1
        },
        {
          "duration": 0.009090909090900823,
          "durationTicks": 4,
          "midi": 37,
          "name": "C#2",
          "ticks": 49650,
          "time": 112.8409090909091,
          "velocity": 1
        },
        {
          "duration": 0.009090909090900823,
          "durationTicks": 4,
          "midi": 42,
          "name": "F#2",
          "ticks": 49650,
          "time": 112.8409090909091,
          "velocity": 1
        },
        {
          "duration": 0.009090909090900823,
          "durationTicks": 4,
          "midi": 42,
          "name": "F#2",
          "ticks": 49795,
          "time": 113.17045454545455,
          "velocity": 1
        },
        {
          "duration": 0.009090909090900823,
          "durationTicks": 4,
          "midi": 36,
          "name": "C2",
          "ticks": 50006,
          "time": 113.65,
          "velocity": 1
        },
        {
          "duration": 0.009090909090900823,
          "durationTicks": 4,
          "midi": 41,
          "name": "F2",
          "ticks": 50006,
          "time": 113.65,
          "velocity": 1
        },
        {
          "duration": 0.009090909090900823,
          "durationTicks": 4,
          "midi": 42,
          "name": "F#2",
          "ticks": 50103,
          "time": 113.87045454545455,
          "velocity": 1
        },
        {
          "duration": 0.009090909090915034,
          "durationTicks": 4,
          "midi": 37,
          "name": "C#2",
          "ticks": 50367,
          "time": 114.47045454545454,
          "velocity": 1
        },
        {
          "duration": 0.009090909090915034,
          "durationTicks": 4,
          "midi": 42,
          "name": "F#2",
          "ticks": 50367,
          "time": 114.47045454545454,
          "velocity": 1
        },
        {
          "duration": 0.009090909090900823,
          "durationTicks": 4,
          "midi": 36,
          "name": "C2",
          "ticks": 50455,
          "time": 114.67045454545455,
          "velocity": 1
        },
        {
          "duration": 0.01136363636364024,
          "durationTicks": 5,
          "midi": 36,
          "name": "C2",
          "ticks": 50459,
          "time": 114.67954545454545,
          "velocity": 1
        },
        {
          "duration": 0.009090909090900823,
          "durationTicks": 4,
          "midi": 42,
          "name": "F#2",
          "ticks": 50556,
          "time": 114.9,
          "velocity": 1
        },
        {
          "duration": 0.01136363636364024,
          "durationTicks": 5,
          "midi": 45,
          "name": "A2",
          "ticks": 50635,
          "time": 115.07954545454545,
          "velocity": 1
        },
        {
          "duration": 0.01136363636364024,
          "durationTicks": 5,
          "midi": 82,
          "name": "A#5",
          "ticks": 50635,
          "time": 115.07954545454545,
          "velocity": 1
        },
        {
          "duration": 0.009090909090915034,
          "durationTicks": 4,
          "midi": 36,
          "name": "C2",
          "ticks": 50732,
          "time": 115.3,
          "velocity": 1
        },
        {
          "duration": 0.009090909090915034,
          "durationTicks": 4,
          "midi": 42,
          "name": "F#2",
          "ticks": 50732,
          "time": 115.3,
          "velocity": 1
        },
        {
          "duration": 0.009090909090915034,
          "durationTicks": 4,
          "midi": 70,
          "name": "A#4",
          "ticks": 50732,
          "time": 115.3,
          "velocity": 1
        },
        {
          "duration": 0.011363636363626028,
          "durationTicks": 5,
          "midi": 42,
          "name": "F#2",
          "ticks": 50824,
          "time": 115.50909090909092,
          "velocity": 1
        },
        {
          "duration": 0.011363636363626028,
          "durationTicks": 5,
          "midi": 70,
          "name": "A#4",
          "ticks": 50824,
          "time": 115.50909090909092,
          "velocity": 1
        },
        {
          "duration": 0.009090909090900823,
          "durationTicks": 4,
          "midi": 36,
          "name": "C2",
          "ticks": 50996,
          "time": 115.9,
          "velocity": 1
        },
        {
          "duration": 0.009090909090900823,
          "durationTicks": 4,
          "midi": 42,
          "name": "F#2",
          "ticks": 50996,
          "time": 115.9,
          "velocity": 1
        },
        {
          "duration": 0.009090909090900823,
          "durationTicks": 4,
          "midi": 70,
          "name": "A#4",
          "ticks": 50996,
          "time": 115.9,
          "velocity": 1
        },
        {
          "duration": 0.009090909090900823,
          "durationTicks": 4,
          "midi": 37,
          "name": "C#2",
          "ticks": 51080,
          "time": 116.0909090909091,
          "velocity": 1
        },
        {
          "duration": 0.009090909090900823,
          "durationTicks": 4,
          "midi": 42,
          "name": "F#2",
          "ticks": 51080,
          "time": 116.0909090909091,
          "velocity": 1
        },
        {
          "duration": 0.009090909090900823,
          "durationTicks": 4,
          "midi": 70,
          "name": "A#4",
          "ticks": 51080,
          "time": 116.0909090909091,
          "velocity": 1
        },
        {
          "duration": 0.01136363636364024,
          "durationTicks": 5,
          "midi": 42,
          "name": "F#2",
          "ticks": 51163,
          "time": 116.27954545454546,
          "velocity": 1
        },
        {
          "duration": 0.01136363636364024,
          "durationTicks": 5,
          "midi": 70,
          "name": "A#4",
          "ticks": 51163,
          "time": 116.27954545454546,
          "velocity": 1
        },
        {
          "duration": 0.009090909090915034,
          "durationTicks": 4,
          "midi": 42,
          "name": "F#2",
          "ticks": 51247,
          "time": 116.47045454545454,
          "velocity": 1
        },
        {
          "duration": 0.009090909090915034,
          "durationTicks": 4,
          "midi": 70,
          "name": "A#4",
          "ticks": 51247,
          "time": 116.47045454545454,
          "velocity": 1
        },
        {
          "duration": 0.009090909090915034,
          "durationTicks": 4,
          "midi": 42,
          "name": "F#2",
          "ticks": 51344,
          "time": 116.69090909090909,
          "velocity": 1
        },
        {
          "duration": 0.009090909090915034,
          "durationTicks": 4,
          "midi": 70,
          "name": "A#4",
          "ticks": 51344,
          "time": 116.69090909090909,
          "velocity": 1
        },
        {
          "duration": 0.01136363636364024,
          "durationTicks": 5,
          "midi": 55,
          "name": "G3",
          "ticks": 51405,
          "time": 116.82954545454545,
          "velocity": 1
        },
        {
          "duration": 0.01136363636364024,
          "durationTicks": 5,
          "midi": 49,
          "name": "C#3",
          "ticks": 51418,
          "time": 116.85909090909091,
          "velocity": 1
        },
        {
          "duration": 0.01136363636364024,
          "durationTicks": 5,
          "midi": 36,
          "name": "C2",
          "ticks": 51440,
          "time": 116.9090909090909,
          "velocity": 1
        },
        {
          "duration": 0.01136363636364024,
          "durationTicks": 5,
          "midi": 41,
          "name": "F2",
          "ticks": 51440,
          "time": 116.9090909090909,
          "velocity": 1
        },
        {
          "duration": 0.01136363636364024,
          "durationTicks": 5,
          "midi": 43,
          "name": "G2",
          "ticks": 51440,
          "time": 116.9090909090909,
          "velocity": 1
        },
        {
          "duration": 0.01136363636364024,
          "durationTicks": 5,
          "midi": 45,
          "name": "A2",
          "ticks": 51440,
          "time": 116.9090909090909,
          "velocity": 1
        },
        {
          "duration": 0.009090909090915034,
          "durationTicks": 4,
          "midi": 55,
          "name": "G3",
          "ticks": 51489,
          "time": 117.02045454545454,
          "velocity": 1
        },
        {
          "duration": 0.009090909090915034,
          "durationTicks": 4,
          "midi": 49,
          "name": "C#3",
          "ticks": 51502,
          "time": 117.05,
          "velocity": 1
        },
        {
          "duration": 0.01136363636364024,
          "durationTicks": 5,
          "midi": 75,
          "name": "D#5",
          "ticks": 51537,
          "time": 117.12954545454545,
          "velocity": 1
        },
        {
          "duration": 0.009090909090915034,
          "durationTicks": 4,
          "midi": 75,
          "name": "D#5",
          "ticks": 51599,
          "time": 117.27045454545454,
          "velocity": 1
        },
        {
          "duration": 0.01136363636364024,
          "durationTicks": 5,
          "midi": 75,
          "name": "D#5",
          "ticks": 51638,
          "time": 117.35909090909091,
          "velocity": 1
        },
        {
          "duration": 0.009090909090915034,
          "durationTicks": 4,
          "midi": 75,
          "name": "D#5",
          "ticks": 51687,
          "time": 117.47045454545454,
          "velocity": 1
        },
        {
          "duration": 0.009090909090915034,
          "durationTicks": 4,
          "midi": 75,
          "name": "D#5",
          "ticks": 51722,
          "time": 117.55,
          "velocity": 1
        },
        {
          "duration": 0.009090909090915034,
          "durationTicks": 4,
          "midi": 37,
          "name": "C#2",
          "ticks": 51797,
          "time": 117.72045454545454,
          "velocity": 1
        },
        {
          "duration": 0.009090909090915034,
          "durationTicks": 4,
          "midi": 39,
          "name": "D#2",
          "ticks": 51797,
          "time": 117.72045454545454,
          "velocity": 1
        },
        {
          "duration": 0.009090909090915034,
          "durationTicks": 4,
          "midi": 75,
          "name": "D#5",
          "ticks": 51797,
          "time": 117.72045454545454,
          "velocity": 1
        },
        {
          "duration": 0.009090909090900823,
          "durationTicks": 4,
          "midi": 75,
          "name": "D#5",
          "ticks": 51885,
          "time": 117.92045454545455,
          "velocity": 1
        },
        {
          "duration": 0.009090909090900823,
          "durationTicks": 4,
          "midi": 47,
          "name": "B2",
          "ticks": 51973,
          "time": 118.12045454545455,
          "velocity": 1
        },
        {
          "duration": 0.01136363636364024,
          "durationTicks": 5,
          "midi": 75,
          "name": "D#5",
          "ticks": 52065,
          "time": 118.32954545454545,
          "velocity": 1
        },
        {
          "duration": 0.01136363636364024,
          "durationTicks": 5,
          "midi": 36,
          "name": "C2",
          "ticks": 52153,
          "time": 118.52954545454546,
          "velocity": 1
        },
        {
          "duration": 0.01136363636364024,
          "durationTicks": 5,
          "midi": 47,
          "name": "B2",
          "ticks": 52153,
          "time": 118.52954545454546,
          "velocity": 1
        },
        {
          "duration": 0.009090909090915034,
          "durationTicks": 4,
          "midi": 80,
          "name": "G#5",
          "ticks": 52246,
          "time": 118.74090909090908,
          "velocity": 1
        },
        {
          "duration": 0.009090909090900823,
          "durationTicks": 4,
          "midi": 42,
          "name": "F#2",
          "ticks": 52316,
          "time": 118.9,
          "velocity": 1
        },
        {
          "duration": 0.01136363636364024,
          "durationTicks": 5,
          "midi": 42,
          "name": "F#2",
          "ticks": 52417,
          "time": 119.12954545454545,
          "velocity": 1
        },
        {
          "duration": 0.01136363636364024,
          "durationTicks": 5,
          "midi": 45,
          "name": "A2",
          "ticks": 52417,
          "time": 119.12954545454545,
          "velocity": 1
        },
        {
          "duration": 0.01136363636364024,
          "durationTicks": 5,
          "midi": 82,
          "name": "A#5",
          "ticks": 52417,
          "time": 119.12954545454545,
          "velocity": 1
        },
        {
          "duration": 0.009090909090900823,
          "durationTicks": 4,
          "midi": 55,
          "name": "G3",
          "ticks": 52488,
          "time": 119.2909090909091,
          "velocity": 1
        },
        {
          "duration": 0.01136363636364024,
          "durationTicks": 5,
          "midi": 37,
          "name": "C#2",
          "ticks": 52505,
          "time": 119.32954545454545,
          "velocity": 1
        },
        {
          "duration": 0.01136363636364024,
          "durationTicks": 5,
          "midi": 42,
          "name": "F#2",
          "ticks": 52505,
          "time": 119.32954545454545,
          "velocity": 1
        },
        {
          "duration": 0.01136363636364024,
          "durationTicks": 5,
          "midi": 82,
          "name": "A#5",
          "ticks": 52505,
          "time": 119.32954545454545,
          "velocity": 1
        },
        {
          "duration": 0.009090909090915034,
          "durationTicks": 4,
          "midi": 42,
          "name": "F#2",
          "ticks": 52589,
          "time": 119.52045454545454,
          "velocity": 1
        },
        {
          "duration": 0.009090909090915034,
          "durationTicks": 4,
          "midi": 82,
          "name": "A#5",
          "ticks": 52589,
          "time": 119.52045454545454,
          "velocity": 1
        },
        {
          "duration": 0.01136363636364024,
          "durationTicks": 5,
          "midi": 42,
          "name": "F#2",
          "ticks": 52672,
          "time": 119.7090909090909,
          "velocity": 1
        },
        {
          "duration": 0.01136363636364024,
          "durationTicks": 5,
          "midi": 82,
          "name": "A#5",
          "ticks": 52672,
          "time": 119.7090909090909,
          "velocity": 1
        },
        {
          "duration": 0.01136363636364024,
          "durationTicks": 5,
          "midi": 42,
          "name": "F#2",
          "ticks": 52760,
          "time": 119.9090909090909,
          "velocity": 1
        },
        {
          "duration": 0.01136363636364024,
          "durationTicks": 5,
          "midi": 82,
          "name": "A#5",
          "ticks": 52760,
          "time": 119.9090909090909,
          "velocity": 1
        },
        {
          "duration": 0.009090909090915034,
          "durationTicks": 4,
          "midi": 55,
          "name": "G3",
          "ticks": 52796,
          "time": 119.99090909090908,
          "velocity": 1
        },
        {
          "duration": 0.009090909090915034,
          "durationTicks": 4,
          "midi": 55,
          "name": "G3",
          "ticks": 52822,
          "time": 120.05,
          "velocity": 1
        },
        {
          "duration": 0.009090909090915034,
          "durationTicks": 4,
          "midi": 49,
          "name": "C#3",
          "ticks": 52844,
          "time": 120.1,
          "velocity": 1
        },
        {
          "duration": 0.009090909090900823,
          "durationTicks": 4,
          "midi": 42,
          "name": "F#2",
          "ticks": 52866,
          "time": 120.15,
          "velocity": 1
        },
        {
          "duration": 0.009090909090900823,
          "durationTicks": 4,
          "midi": 70,
          "name": "A#4",
          "ticks": 52866,
          "time": 120.15,
          "velocity": 1
        },
        {
          "duration": 0.009090909090915034,
          "durationTicks": 4,
          "midi": 59,
          "name": "B3",
          "ticks": 52954,
          "time": 120.35,
          "velocity": 1
        },
        {
          "duration": 0.011363636363626028,
          "durationTicks": 5,
          "midi": 51,
          "name": "D#3",
          "ticks": 53011,
          "time": 120.47954545454546,
          "velocity": 1
        },
        {
          "duration": 0.009090909090915034,
          "durationTicks": 4,
          "midi": 59,
          "name": "B3",
          "ticks": 53130,
          "time": 120.75,
          "velocity": 1
        },
        {
          "duration": 0.01136363636364024,
          "durationTicks": 5,
          "midi": 41,
          "name": "F2",
          "ticks": 53222,
          "time": 120.9590909090909,
          "velocity": 1
        },
        {
          "duration": 0.01136363636364024,
          "durationTicks": 5,
          "midi": 57,
          "name": "A3",
          "ticks": 53222,
          "time": 120.9590909090909,
          "velocity": 1
        },
        {
          "duration": 0.01136363636364024,
          "durationTicks": 5,
          "midi": 41,
          "name": "F2",
          "ticks": 53310,
          "time": 121.1590909090909,
          "velocity": 1
        },
        {
          "duration": 0.009090909090900823,
          "durationTicks": 4,
          "midi": 41,
          "name": "F2",
          "ticks": 53491,
          "time": 121.57045454545455,
          "velocity": 1
        },
        {
          "duration": 0.011363636363626028,
          "durationTicks": 5,
          "midi": 41,
          "name": "F2",
          "ticks": 53574,
          "time": 121.75909090909092,
          "velocity": 1
        },
        {
          "duration": 0.009090909090915034,
          "durationTicks": 4,
          "midi": 36,
          "name": "C2",
          "ticks": 53852,
          "time": 122.39090909090909,
          "velocity": 1
        },
        {
          "duration": 0.01136363636364024,
          "durationTicks": 5,
          "midi": 41,
          "name": "F2",
          "ticks": 53926,
          "time": 122.55909090909091,
          "velocity": 1
        },
        {
          "duration": 0.009090909090915034,
          "durationTicks": 4,
          "midi": 41,
          "name": "F2",
          "ticks": 55000,
          "time": 125,
          "velocity": 1
        },
        {
          "duration": 0.009090909090915034,
          "durationTicks": 4,
          "midi": 42,
          "name": "F#2",
          "ticks": 55000,
          "time": 125,
          "velocity": 1
        },
        {
          "duration": 0.01136363636364024,
          "durationTicks": 5,
          "midi": 42,
          "name": "F#2",
          "ticks": 55092,
          "time": 125.2090909090909,
          "velocity": 1
        },
        {
          "duration": 0.009090909090900823,
          "durationTicks": 4,
          "midi": 42,
          "name": "F#2",
          "ticks": 55176,
          "time": 125.4,
          "velocity": 1
        },
        {
          "duration": 0.01136363636364024,
          "durationTicks": 5,
          "midi": 41,
          "name": "F2",
          "ticks": 55268,
          "time": 125.60909090909091,
          "velocity": 1
        },
        {
          "duration": 0.01136363636364024,
          "durationTicks": 5,
          "midi": 42,
          "name": "F#2",
          "ticks": 55268,
          "time": 125.60909090909091,
          "velocity": 1
        },
        {
          "duration": 0.01136363636364024,
          "durationTicks": 5,
          "midi": 60,
          "name": "C4",
          "ticks": 55268,
          "time": 125.60909090909091,
          "velocity": 1
        },
        {
          "duration": 0.009090909090900823,
          "durationTicks": 4,
          "midi": 37,
          "name": "C#2",
          "ticks": 55361,
          "time": 125.82045454545455,
          "velocity": 1
        },
        {
          "duration": 0.009090909090900823,
          "durationTicks": 4,
          "midi": 42,
          "name": "F#2",
          "ticks": 55361,
          "time": 125.82045454545455,
          "velocity": 1
        },
        {
          "duration": 0.01136363636364024,
          "durationTicks": 5,
          "midi": 42,
          "name": "F#2",
          "ticks": 55532,
          "time": 126.2090909090909,
          "velocity": 1
        },
        {
          "duration": 0.01136363636364024,
          "durationTicks": 5,
          "midi": 55,
          "name": "G3",
          "ticks": 55686,
          "time": 126.55909090909091,
          "velocity": 1
        },
        {
          "duration": 0.009090909090900823,
          "durationTicks": 4,
          "midi": 41,
          "name": "F2",
          "ticks": 55713,
          "time": 126.62045454545455,
          "velocity": 1
        },
        {
          "duration": 0.009090909090900823,
          "durationTicks": 4,
          "midi": 42,
          "name": "F#2",
          "ticks": 55713,
          "time": 126.62045454545455,
          "velocity": 1
        },
        {
          "duration": 0.01136363636364024,
          "durationTicks": 5,
          "midi": 47,
          "name": "B2",
          "ticks": 55893,
          "time": 127.02954545454546,
          "velocity": 1
        },
        {
          "duration": 0.01136363636364024,
          "durationTicks": 5,
          "midi": 59,
          "name": "B3",
          "ticks": 55893,
          "time": 127.02954545454546,
          "velocity": 1
        },
        {
          "duration": 0.009090909090915034,
          "durationTicks": 4,
          "midi": 45,
          "name": "A2",
          "ticks": 55986,
          "time": 127.24090909090908,
          "velocity": 1
        },
        {
          "duration": 0.009090909090915034,
          "durationTicks": 4,
          "midi": 59,
          "name": "B3",
          "ticks": 55990,
          "time": 127.25,
          "velocity": 1
        },
        {
          "duration": 0.009090909090900823,
          "durationTicks": 4,
          "midi": 39,
          "name": "D#2",
          "ticks": 56078,
          "time": 127.45,
          "velocity": 1
        },
        {
          "duration": 0.009090909090900823,
          "durationTicks": 4,
          "midi": 40,
          "name": "E2",
          "ticks": 56078,
          "time": 127.45,
          "velocity": 1
        },
        {
          "duration": 0.009090909090900823,
          "durationTicks": 4,
          "midi": 59,
          "name": "B3",
          "ticks": 56078,
          "time": 127.45,
          "velocity": 1
        },
        {
          "duration": 0.009090909090900823,
          "durationTicks": 4,
          "midi": 47,
          "name": "B2",
          "ticks": 56166,
          "time": 127.65,
          "velocity": 1
        },
        {
          "duration": 0.009090909090900823,
          "durationTicks": 4,
          "midi": 59,
          "name": "B3",
          "ticks": 56166,
          "time": 127.65,
          "velocity": 1
        },
        {
          "duration": 0.01136363636364024,
          "durationTicks": 5,
          "midi": 50,
          "name": "D3",
          "ticks": 56267,
          "time": 127.87954545454545,
          "velocity": 1
        },
        {
          "duration": 0.009090909090900823,
          "durationTicks": 4,
          "midi": 47,
          "name": "B2",
          "ticks": 56342,
          "time": 128.05,
          "velocity": 1
        },
        {
          "duration": 0.011363636363626028,
          "durationTicks": 5,
          "midi": 59,
          "name": "B3",
          "ticks": 56346,
          "time": 128.0590909090909,
          "velocity": 1
        },
        {
          "duration": 0.009090909090900823,
          "durationTicks": 4,
          "midi": 45,
          "name": "A2",
          "ticks": 56430,
          "time": 128.25,
          "velocity": 1
        },
        {
          "duration": 0.01136363636365445,
          "durationTicks": 5,
          "midi": 59,
          "name": "B3",
          "ticks": 56434,
          "time": 128.2590909090909,
          "velocity": 1
        },
        {
          "duration": 0.01136363636365445,
          "durationTicks": 5,
          "midi": 45,
          "name": "A2",
          "ticks": 56698,
          "time": 128.8590909090909,
          "velocity": 1
        },
        {
          "duration": 0.009090909090900823,
          "durationTicks": 4,
          "midi": 36,
          "name": "C2",
          "ticks": 56703,
          "time": 128.87045454545455,
          "velocity": 1
        },
        {
          "duration": 0.009090909090900823,
          "durationTicks": 4,
          "midi": 36,
          "name": "C2",
          "ticks": 57152,
          "time": 129.8909090909091,
          "velocity": 1
        },
        {
          "duration": 0.009090909090900823,
          "durationTicks": 4,
          "midi": 42,
          "name": "F#2",
          "ticks": 57504,
          "time": 130.6909090909091,
          "velocity": 1
        },
        {
          "duration": 0.009090909090900823,
          "durationTicks": 4,
          "midi": 36,
          "name": "C2",
          "ticks": 57860,
          "time": 131.5,
          "velocity": 1
        },
        {
          "duration": 0.009090909090900823,
          "durationTicks": 4,
          "midi": 42,
          "name": "F#2",
          "ticks": 57860,
          "time": 131.5,
          "velocity": 1
        },
        {
          "duration": 0.011363636363626028,
          "durationTicks": 5,
          "midi": 42,
          "name": "F#2",
          "ticks": 57952,
          "time": 131.70909090909092,
          "velocity": 1
        },
        {
          "duration": 0.009090909090900823,
          "durationTicks": 4,
          "midi": 42,
          "name": "F#2",
          "ticks": 58036,
          "time": 131.9,
          "velocity": 1
        },
        {
          "duration": 0.009090909090900823,
          "durationTicks": 4,
          "midi": 42,
          "name": "F#2",
          "ticks": 58124,
          "time": 132.1,
          "velocity": 1
        },
        {
          "duration": 0.01136363636365445,
          "durationTicks": 5,
          "midi": 36,
          "name": "C2",
          "ticks": 58128,
          "time": 132.1090909090909,
          "velocity": 1
        },
        {
          "duration": 0.009090909090929244,
          "durationTicks": 4,
          "midi": 42,
          "name": "F#2",
          "ticks": 58208,
          "time": 132.29090909090908,
          "velocity": 1
        },
        {
          "duration": 0.011363636363626028,
          "durationTicks": 5,
          "midi": 36,
          "name": "C2",
          "ticks": 58216,
          "time": 132.3090909090909,
          "velocity": 1
        },
        {
          "duration": 0.011363636363626028,
          "durationTicks": 5,
          "midi": 39,
          "name": "D#2",
          "ticks": 58216,
          "time": 132.3090909090909,
          "velocity": 1
        },
        {
          "duration": 0.011363636363626028,
          "durationTicks": 5,
          "midi": 42,
          "name": "F#2",
          "ticks": 58326,
          "time": 132.5590909090909,
          "velocity": 1
        },
        {
          "duration": 0.009090909090929244,
          "durationTicks": 4,
          "midi": 42,
          "name": "F#2",
          "ticks": 58538,
          "time": 133.04090909090908,
          "velocity": 1
        },
        {
          "duration": 0.009090909090900823,
          "durationTicks": 4,
          "midi": 36,
          "name": "C2",
          "ticks": 58586,
          "time": 133.15,
          "velocity": 1
        },
        {
          "duration": 0.009090909090900823,
          "durationTicks": 4,
          "midi": 42,
          "name": "F#2",
          "ticks": 58586,
          "time": 133.15,
          "velocity": 1
        },
        {
          "duration": 0.009090909090900823,
          "durationTicks": 4,
          "midi": 45,
          "name": "A2",
          "ticks": 58846,
          "time": 133.7409090909091,
          "velocity": 1
        },
        {
          "duration": 0.009090909090900823,
          "durationTicks": 4,
          "midi": 45,
          "name": "A2",
          "ticks": 59022,
          "time": 134.1409090909091,
          "velocity": 1
        },
        {
          "duration": 0.009090909090900823,
          "durationTicks": 4,
          "midi": 40,
          "name": "E2",
          "ticks": 59114,
          "time": 134.35,
          "velocity": 1
        },
        {
          "duration": 0.009090909090900823,
          "durationTicks": 4,
          "midi": 41,
          "name": "F2",
          "ticks": 59114,
          "time": 134.35,
          "velocity": 1
        },
        {
          "duration": 0.009090909090900823,
          "durationTicks": 4,
          "midi": 57,
          "name": "A3",
          "ticks": 59114,
          "time": 134.35,
          "velocity": 1
        },
        {
          "duration": 0.009090909090900823,
          "durationTicks": 4,
          "midi": 36,
          "name": "C2",
          "ticks": 59290,
          "time": 134.75,
          "velocity": 1
        },
        {
          "duration": 0.009090909090900823,
          "durationTicks": 4,
          "midi": 41,
          "name": "F2",
          "ticks": 59290,
          "time": 134.75,
          "velocity": 1
        },
        {
          "duration": 0.009090909090900823,
          "durationTicks": 4,
          "midi": 42,
          "name": "F#2",
          "ticks": 59290,
          "time": 134.75,
          "velocity": 1
        },
        {
          "duration": 0.009090909090900823,
          "durationTicks": 4,
          "midi": 36,
          "name": "C2",
          "ticks": 59554,
          "time": 135.35,
          "velocity": 1
        },
        {
          "duration": 0.011363636363626028,
          "durationTicks": 5,
          "midi": 36,
          "name": "C2",
          "ticks": 60183,
          "time": 136.77954545454546,
          "velocity": 1
        },
        {
          "duration": 0.011363636363626028,
          "durationTicks": 5,
          "midi": 41,
          "name": "F2",
          "ticks": 60183,
          "time": 136.77954545454546,
          "velocity": 1
        },
        {
          "duration": 0.011363636363626028,
          "durationTicks": 5,
          "midi": 38,
          "name": "D2",
          "ticks": 60359,
          "time": 137.17954545454546,
          "velocity": 1
        },
        {
          "duration": 0.011363636363626028,
          "durationTicks": 5,
          "midi": 41,
          "name": "F2",
          "ticks": 60359,
          "time": 137.17954545454546,
          "velocity": 1
        },
        {
          "duration": 0.011363636363626028,
          "durationTicks": 5,
          "midi": 59,
          "name": "B3",
          "ticks": 60623,
          "time": 137.77954545454546,
          "velocity": 1
        },
        {
          "duration": 0.011363636363626028,
          "durationTicks": 5,
          "midi": 59,
          "name": "B3",
          "ticks": 60702,
          "time": 137.95909090909092,
          "velocity": 1
        },
        {
          "duration": 0.009090909090900823,
          "durationTicks": 4,
          "midi": 43,
          "name": "G2",
          "ticks": 60716,
          "time": 137.9909090909091,
          "velocity": 1
        },
        {
          "duration": 0.009090909090900823,
          "durationTicks": 4,
          "midi": 59,
          "name": "B3",
          "ticks": 60874,
          "time": 138.35,
          "velocity": 1
        },
        {
          "duration": 0.009090909090900823,
          "durationTicks": 4,
          "midi": 37,
          "name": "C#2",
          "ticks": 61072,
          "time": 138.8,
          "velocity": 1
        },
        {
          "duration": 0.009090909090900823,
          "durationTicks": 4,
          "midi": 42,
          "name": "F#2",
          "ticks": 61072,
          "time": 138.8,
          "velocity": 1
        },
        {
          "duration": 0.011363636363626028,
          "durationTicks": 5,
          "midi": 36,
          "name": "C2",
          "ticks": 61340,
          "time": 139.4090909090909,
          "velocity": 1
        },
        {
          "duration": 0.011363636363626028,
          "durationTicks": 5,
          "midi": 41,
          "name": "F2",
          "ticks": 61340,
          "time": 139.4090909090909,
          "velocity": 1
        },
        {
          "duration": 0.01136363636365445,
          "durationTicks": 5,
          "midi": 41,
          "name": "F2",
          "ticks": 61428,
          "time": 139.6090909090909,
          "velocity": 1
        },
        {
          "duration": 0.01136363636365445,
          "durationTicks": 5,
          "midi": 36,
          "name": "C2",
          "ticks": 61437,
          "time": 139.62954545454545,
          "velocity": 1
        },
        {
          "duration": 0.011363636363626028,
          "durationTicks": 5,
          "midi": 36,
          "name": "C2",
          "ticks": 61525,
          "time": 139.82954545454547,
          "velocity": 1
        },
        {
          "duration": 0.009090909090900823,
          "durationTicks": 4,
          "midi": 45,
          "name": "A2",
          "ticks": 61530,
          "time": 139.8409090909091,
          "velocity": 1
        },
        {
          "duration": 0.009090909090900823,
          "durationTicks": 4,
          "midi": 36,
          "name": "C2",
          "ticks": 61609,
          "time": 140.02045454545456,
          "velocity": 1
        },
        {
          "duration": 0.011363636363626028,
          "durationTicks": 5,
          "midi": 45,
          "name": "A2",
          "ticks": 61613,
          "time": 140.02954545454546,
          "velocity": 1
        },
        {
          "duration": 0.009090909090900823,
          "durationTicks": 4,
          "midi": 48,
          "name": "C3",
          "ticks": 61706,
          "time": 140.2409090909091,
          "velocity": 1
        },
        {
          "duration": 0.011363636363626028,
          "durationTicks": 5,
          "midi": 37,
          "name": "C#2",
          "ticks": 61789,
          "time": 140.42954545454546,
          "velocity": 1
        },
        {
          "duration": 0.011363636363626028,
          "durationTicks": 5,
          "midi": 42,
          "name": "F#2",
          "ticks": 61789,
          "time": 140.42954545454546,
          "velocity": 1
        },
        {
          "duration": 0.009090909090900823,
          "durationTicks": 4,
          "midi": 45,
          "name": "A2",
          "ticks": 61794,
          "time": 140.4409090909091,
          "velocity": 1
        },
        {
          "duration": 0.009090909090900823,
          "durationTicks": 4,
          "midi": 36,
          "name": "C2",
          "ticks": 61970,
          "time": 140.8409090909091,
          "velocity": 1
        },
        {
          "duration": 0.009090909090900823,
          "durationTicks": 4,
          "midi": 45,
          "name": "A2",
          "ticks": 61974,
          "time": 140.85,
          "velocity": 1
        },
        {
          "duration": 0.009090909090929244,
          "durationTicks": 4,
          "midi": 45,
          "name": "A2",
          "ticks": 62058,
          "time": 141.04090909090908,
          "velocity": 1
        },
        {
          "duration": 0.009090909090900823,
          "durationTicks": 4,
          "midi": 59,
          "name": "B3",
          "ticks": 62106,
          "time": 141.15,
          "velocity": 1
        },
        {
          "duration": 0.01136363636365445,
          "durationTicks": 5,
          "midi": 36,
          "name": "C2",
          "ticks": 62141,
          "time": 141.22954545454544,
          "velocity": 1
        },
        {
          "duration": 0.009090909090900823,
          "durationTicks": 4,
          "midi": 42,
          "name": "F#2",
          "ticks": 62392,
          "time": 141.8,
          "velocity": 1
        },
        {
          "duration": 0.009090909090900823,
          "durationTicks": 4,
          "midi": 45,
          "name": "A2",
          "ticks": 62766,
          "time": 142.65,
          "velocity": 1
        },
        {
          "duration": 0.011363636363626028,
          "durationTicks": 5,
          "midi": 36,
          "name": "C2",
          "ticks": 62770,
          "time": 142.6590909090909,
          "velocity": 1
        },
        {
          "duration": 0.011363636363626028,
          "durationTicks": 5,
          "midi": 41,
          "name": "F2",
          "ticks": 62946,
          "time": 143.0590909090909,
          "velocity": 1
        },
        {
          "duration": 0.009090909090929244,
          "durationTicks": 4,
          "midi": 36,
          "name": "C2",
          "ticks": 62951,
          "time": 143.07045454545454,
          "velocity": 1
        },
        {
          "duration": 0.011363636363626028,
          "durationTicks": 5,
          "midi": 39,
          "name": "D#2",
          "ticks": 63210,
          "time": 143.6590909090909,
          "velocity": 1
        },
        {
          "duration": 0.01136363636365445,
          "durationTicks": 5,
          "midi": 36,
          "name": "C2",
          "ticks": 63571,
          "time": 144.47954545454544,
          "velocity": 1
        },
        {
          "duration": 0.009090909090900823,
          "durationTicks": 4,
          "midi": 41,
          "name": "F2",
          "ticks": 64192,
          "time": 145.8909090909091,
          "velocity": 1
        },
        {
          "duration": 0.009090909090900823,
          "durationTicks": 4,
          "midi": 36,
          "name": "C2",
          "ticks": 64280,
          "time": 146.0909090909091,
          "velocity": 1
        },
        {
          "duration": 0.009090909090900823,
          "durationTicks": 4,
          "midi": 41,
          "name": "F2",
          "ticks": 64280,
          "time": 146.0909090909091,
          "velocity": 1
        },
        {
          "duration": 0.009090909090900823,
          "durationTicks": 4,
          "midi": 36,
          "name": "C2",
          "ticks": 64460,
          "time": 146.5,
          "velocity": 1
        },
        {
          "duration": 0.009090909090900823,
          "durationTicks": 4,
          "midi": 41,
          "name": "F2",
          "ticks": 64460,
          "time": 146.5,
          "velocity": 1
        },
        {
          "duration": 0.009090909090900823,
          "durationTicks": 4,
          "midi": 40,
          "name": "E2",
          "ticks": 64636,
          "time": 146.9,
          "velocity": 1
        },
        {
          "duration": 0.009090909090900823,
          "durationTicks": 4,
          "midi": 52,
          "name": "E3",
          "ticks": 64636,
          "time": 146.9,
          "velocity": 1
        },
        {
          "duration": 0.011363636363626028,
          "durationTicks": 5,
          "midi": 41,
          "name": "F2",
          "ticks": 64649,
          "time": 146.92954545454546,
          "velocity": 1
        },
        {
          "duration": 0.009090909090900823,
          "durationTicks": 4,
          "midi": 41,
          "name": "F2",
          "ticks": 64724,
          "time": 147.1,
          "velocity": 1
        },
        {
          "duration": 0.009090909090900823,
          "durationTicks": 4,
          "midi": 41,
          "name": "F2",
          "ticks": 64812,
          "time": 147.3,
          "velocity": 1
        },
        {
          "duration": 0.009090909090900823,
          "durationTicks": 4,
          "midi": 36,
          "name": "C2",
          "ticks": 64997,
          "time": 147.72045454545454,
          "velocity": 1
        },
        {
          "duration": 0.009090909090900823,
          "durationTicks": 4,
          "midi": 59,
          "name": "B3",
          "ticks": 65239,
          "time": 148.27045454545456,
          "velocity": 1
        },
        {
          "duration": 0.011363636363626028,
          "durationTicks": 5,
          "midi": 36,
          "name": "C2",
          "ticks": 65265,
          "time": 148.32954545454547,
          "velocity": 1
        },
        {
          "duration": 0.01136363636365445,
          "durationTicks": 5,
          "midi": 59,
          "name": "B3",
          "ticks": 65344,
          "time": 148.5090909090909,
          "velocity": 1
        },
        {
          "duration": 0.009090909090900823,
          "durationTicks": 4,
          "midi": 36,
          "name": "C2",
          "ticks": 65622,
          "time": 149.1409090909091,
          "velocity": 1
        },
        {
          "duration": 0.01136363636365445,
          "durationTicks": 5,
          "midi": 36,
          "name": "C2",
          "ticks": 65784,
          "time": 149.5090909090909,
          "velocity": 1
        },
        {
          "duration": 0.009090909090900823,
          "durationTicks": 4,
          "midi": 36,
          "name": "C2",
          "ticks": 65890,
          "time": 149.75,
          "velocity": 1
        },
        {
          "duration": 0.009090909090900823,
          "durationTicks": 4,
          "midi": 42,
          "name": "F#2",
          "ticks": 65890,
          "time": 149.75,
          "velocity": 1
        },
        {
          "duration": 0.011363636363626028,
          "durationTicks": 5,
          "midi": 38,
          "name": "D2",
          "ticks": 66070,
          "time": 150.1590909090909,
          "velocity": 1
        },
        {
          "duration": 0.011363636363626028,
          "durationTicks": 5,
          "midi": 42,
          "name": "F#2",
          "ticks": 66070,
          "time": 150.1590909090909,
          "velocity": 1
        },
        {
          "duration": 0.009090909090900823,
          "durationTicks": 4,
          "midi": 42,
          "name": "F#2",
          "ticks": 66242,
          "time": 150.55,
          "velocity": 1
        },
        {
          "duration": 0.011363636363626028,
          "durationTicks": 5,
          "midi": 36,
          "name": "C2",
          "ticks": 66422,
          "time": 150.95909090909092,
          "velocity": 1
        },
        {
          "duration": 0.011363636363626028,
          "durationTicks": 5,
          "midi": 42,
          "name": "F#2",
          "ticks": 66422,
          "time": 150.95909090909092,
          "velocity": 1
        },
        {
          "duration": 0.011363636363626028,
          "durationTicks": 5,
          "midi": 49,
          "name": "C#3",
          "ticks": 66422,
          "time": 150.95909090909092,
          "velocity": 1
        },
        {
          "duration": 0.01136363636365445,
          "durationTicks": 5,
          "midi": 59,
          "name": "B3",
          "ticks": 66774,
          "time": 151.7590909090909,
          "velocity": 1
        },
        {
          "duration": 0.01136363636365445,
          "durationTicks": 5,
          "midi": 41,
          "name": "F2",
          "ticks": 67047,
          "time": 152.37954545454545,
          "velocity": 1
        },
        {
          "duration": 0.011363636363626028,
          "durationTicks": 5,
          "midi": 41,
          "name": "F2",
          "ticks": 67135,
          "time": 152.57954545454547,
          "velocity": 1
        },
        {
          "duration": 0.009090909090900823,
          "durationTicks": 4,
          "midi": 36,
          "name": "C2",
          "ticks": 67320,
          "time": 153,
          "velocity": 1
        },
        {
          "duration": 0.009090909090900823,
          "durationTicks": 4,
          "midi": 39,
          "name": "D#2",
          "ticks": 67496,
          "time": 153.4,
          "velocity": 1
        },
        {
          "duration": 0.009090909090929244,
          "durationTicks": 4,
          "midi": 36,
          "name": "C2",
          "ticks": 67848,
          "time": 154.2,
          "velocity": 1
        },
        {
          "duration": 0.009090909090929244,
          "durationTicks": 4,
          "midi": 42,
          "name": "F#2",
          "ticks": 67848,
          "time": 154.2,
          "velocity": 1
        },
        {
          "duration": 0.009090909090900823,
          "durationTicks": 4,
          "midi": 42,
          "name": "F#2",
          "ticks": 68024,
          "time": 154.6,
          "velocity": 1
        },
        {
          "duration": 0.01136363636365445,
          "durationTicks": 5,
          "midi": 37,
          "name": "C#2",
          "ticks": 68204,
          "time": 155.0090909090909,
          "velocity": 1
        },
        {
          "duration": 0.01136363636365445,
          "durationTicks": 5,
          "midi": 42,
          "name": "F#2",
          "ticks": 68204,
          "time": 155.0090909090909,
          "velocity": 1
        },
        {
          "duration": 0.01136363636365445,
          "durationTicks": 5,
          "midi": 42,
          "name": "F#2",
          "ticks": 68468,
          "time": 155.6090909090909,
          "velocity": 1
        },
        {
          "duration": 0.009090909090900823,
          "durationTicks": 4,
          "midi": 36,
          "name": "C2",
          "ticks": 68473,
          "time": 155.62045454545455,
          "velocity": 1
        },
        {
          "duration": 0.011363636363626028,
          "durationTicks": 5,
          "midi": 69,
          "name": "A4",
          "ticks": 68556,
          "time": 155.8090909090909,
          "velocity": 1
        },
        {
          "duration": 0.011363636363626028,
          "durationTicks": 5,
          "midi": 36,
          "name": "C2",
          "ticks": 68653,
          "time": 156.02954545454546,
          "velocity": 1
        },
        {
          "duration": 0.011363636363626028,
          "durationTicks": 5,
          "midi": 69,
          "name": "A4",
          "ticks": 68653,
          "time": 156.02954545454546,
          "velocity": 1
        },
        {
          "duration": 0.009090909090900823,
          "durationTicks": 4,
          "midi": 69,
          "name": "A4",
          "ticks": 68737,
          "time": 156.22045454545454,
          "velocity": 1
        },
        {
          "duration": 0.01136363636365445,
          "durationTicks": 5,
          "midi": 36,
          "name": "C2",
          "ticks": 68741,
          "time": 156.22954545454544,
          "velocity": 1
        },
        {
          "duration": 0.009090909090929244,
          "durationTicks": 4,
          "midi": 69,
          "name": "A4",
          "ticks": 68825,
          "time": 156.42045454545453,
          "velocity": 1
        },
        {
          "duration": 0.01136363636365445,
          "durationTicks": 5,
          "midi": 69,
          "name": "A4",
          "ticks": 68917,
          "time": 156.62954545454545,
          "velocity": 1
        },
        {
          "duration": 0.009090909090900823,
          "durationTicks": 4,
          "midi": 39,
          "name": "D#2",
          "ticks": 68922,
          "time": 156.6409090909091,
          "velocity": 1
        },
        {
          "duration": 0.009090909090929244,
          "durationTicks": 4,
          "midi": 59,
          "name": "B3",
          "ticks": 68935,
          "time": 156.67045454545453,
          "velocity": 1
        },
        {
          "duration": 0.009090909090900823,
          "durationTicks": 4,
          "midi": 69,
          "name": "A4",
          "ticks": 69010,
          "time": 156.8409090909091,
          "velocity": 1
        },
        {
          "duration": 0.009090909090900823,
          "durationTicks": 4,
          "midi": 69,
          "name": "A4",
          "ticks": 69089,
          "time": 157.02045454545456,
          "velocity": 1
        },
        {
          "duration": 0.011363636363626028,
          "durationTicks": 5,
          "midi": 59,
          "name": "B3",
          "ticks": 69093,
          "time": 157.02954545454546,
          "velocity": 1
        },
        {
          "duration": 0.011363636363626028,
          "durationTicks": 5,
          "midi": 69,
          "name": "A4",
          "ticks": 69172,
          "time": 157.20909090909092,
          "velocity": 1
        },
        {
          "duration": 0.009090909090900823,
          "durationTicks": 4,
          "midi": 59,
          "name": "B3",
          "ticks": 69177,
          "time": 157.22045454545454,
          "velocity": 1
        },
        {
          "duration": 0.009090909090929244,
          "durationTicks": 4,
          "midi": 69,
          "name": "A4",
          "ticks": 69265,
          "time": 157.42045454545453,
          "velocity": 1
        },
        {
          "duration": 0.009090909090929244,
          "durationTicks": 4,
          "midi": 36,
          "name": "C2",
          "ticks": 69278,
          "time": 157.45,
          "velocity": 1
        },
        {
          "duration": 0.011363636363626028,
          "durationTicks": 5,
          "midi": 59,
          "name": "B3",
          "ticks": 69282,
          "time": 157.45909090909092,
          "velocity": 1
        },
        {
          "duration": 0.009090909090900823,
          "durationTicks": 4,
          "midi": 69,
          "name": "A4",
          "ticks": 69366,
          "time": 157.65,
          "velocity": 1
        },
        {
          "duration": 0.009090909090929244,
          "durationTicks": 4,
          "midi": 42,
          "name": "F#2",
          "ticks": 69441,
          "time": 157.82045454545454,
          "velocity": 1
        },
        {
          "duration": 0.009090909090900823,
          "durationTicks": 4,
          "midi": 42,
          "name": "F#2",
          "ticks": 69507,
          "time": 157.97045454545454,
          "velocity": 1
        },
        {
          "duration": 0.009090909090900823,
          "durationTicks": 4,
          "midi": 37,
          "name": "C#2",
          "ticks": 69630,
          "time": 158.25,
          "velocity": 1
        },
        {
          "duration": 0.009090909090900823,
          "durationTicks": 4,
          "midi": 42,
          "name": "F#2",
          "ticks": 69630,
          "time": 158.25,
          "velocity": 1
        },
        {
          "duration": 0.009090909090900823,
          "durationTicks": 4,
          "midi": 42,
          "name": "F#2",
          "ticks": 69714,
          "time": 158.4409090909091,
          "velocity": 1
        },
        {
          "duration": 0.01136363636365445,
          "durationTicks": 5,
          "midi": 42,
          "name": "F#2",
          "ticks": 69788,
          "time": 158.6090909090909,
          "velocity": 1
        },
        {
          "duration": 0.01136363636365445,
          "durationTicks": 5,
          "midi": 41,
          "name": "F2",
          "ticks": 69898,
          "time": 158.8590909090909,
          "velocity": 1
        },
        {
          "duration": 0.01136363636365445,
          "durationTicks": 5,
          "midi": 42,
          "name": "F#2",
          "ticks": 69898,
          "time": 158.8590909090909,
          "velocity": 1
        },
        {
          "duration": 0.01136363636365445,
          "durationTicks": 5,
          "midi": 42,
          "name": "F#2",
          "ticks": 69951,
          "time": 158.97954545454544,
          "velocity": 1
        },
        {
          "duration": 0.009090909090929244,
          "durationTicks": 4,
          "midi": 42,
          "name": "F#2",
          "ticks": 69991,
          "time": 159.07045454545454,
          "velocity": 1
        },
        {
          "duration": 0.009090909090929244,
          "durationTicks": 4,
          "midi": 45,
          "name": "A2",
          "ticks": 69991,
          "time": 159.07045454545454,
          "velocity": 1
        },
        {
          "duration": 0.01136363636365445,
          "durationTicks": 5,
          "midi": 42,
          "name": "F#2",
          "ticks": 70074,
          "time": 159.2590909090909,
          "velocity": 1
        },
        {
          "duration": 0.01136363636365445,
          "durationTicks": 5,
          "midi": 45,
          "name": "A2",
          "ticks": 70074,
          "time": 159.2590909090909,
          "velocity": 1
        },
        {
          "duration": 0.009090909090900823,
          "durationTicks": 4,
          "midi": 36,
          "name": "C2",
          "ticks": 70167,
          "time": 159.47045454545454,
          "velocity": 1
        },
        {
          "duration": 0.009090909090900823,
          "durationTicks": 4,
          "midi": 42,
          "name": "F#2",
          "ticks": 70167,
          "time": 159.47045454545454,
          "velocity": 1
        },
        {
          "duration": 0.009090909090900823,
          "durationTicks": 4,
          "midi": 45,
          "name": "A2",
          "ticks": 70167,
          "time": 159.47045454545454,
          "velocity": 1
        },
        {
          "duration": 0.009090909090900823,
          "durationTicks": 4,
          "midi": 42,
          "name": "F#2",
          "ticks": 70264,
          "time": 159.6909090909091,
          "velocity": 1
        },
        {
          "duration": 0.009090909090900823,
          "durationTicks": 4,
          "midi": 45,
          "name": "A2",
          "ticks": 70264,
          "time": 159.6909090909091,
          "velocity": 1
        },
        {
          "duration": 0.009090909090900823,
          "durationTicks": 4,
          "midi": 40,
          "name": "E2",
          "ticks": 70352,
          "time": 159.8909090909091,
          "velocity": 1
        },
        {
          "duration": 0.009090909090900823,
          "durationTicks": 4,
          "midi": 41,
          "name": "F2",
          "ticks": 70352,
          "time": 159.8909090909091,
          "velocity": 1
        },
        {
          "duration": 0.009090909090900823,
          "durationTicks": 4,
          "midi": 51,
          "name": "D#3",
          "ticks": 70352,
          "time": 159.8909090909091,
          "velocity": 1
        },
        {
          "duration": 0.009090909090929244,
          "durationTicks": 4,
          "midi": 41,
          "name": "F2",
          "ticks": 70431,
          "time": 160.07045454545454,
          "velocity": 1
        },
        {
          "duration": 0.011363636363626028,
          "durationTicks": 5,
          "midi": 41,
          "name": "F2",
          "ticks": 70523,
          "time": 160.27954545454546,
          "velocity": 1
        },
        {
          "duration": 0.01136363636365445,
          "durationTicks": 5,
          "midi": 51,
          "name": "D#3",
          "ticks": 70611,
          "time": 160.47954545454544,
          "velocity": 1
        },
        {
          "duration": 0.009090909090900823,
          "durationTicks": 4,
          "midi": 41,
          "name": "F2",
          "ticks": 70704,
          "time": 160.6909090909091,
          "velocity": 1
        },
        {
          "duration": 0.009090909090900823,
          "durationTicks": 4,
          "midi": 51,
          "name": "D#3",
          "ticks": 70704,
          "time": 160.6909090909091,
          "velocity": 1
        },
        {
          "duration": 0.011363636363626028,
          "durationTicks": 5,
          "midi": 36,
          "name": "C2",
          "ticks": 70712,
          "time": 160.70909090909092,
          "velocity": 1
        },
        {
          "duration": 0.009090909090929244,
          "durationTicks": 4,
          "midi": 41,
          "name": "F2",
          "ticks": 70968,
          "time": 161.29090909090908,
          "velocity": 1
        },
        {
          "duration": 0.011363636363626028,
          "durationTicks": 5,
          "midi": 36,
          "name": "C2",
          "ticks": 70976,
          "time": 161.3090909090909,
          "velocity": 1
        },
        {
          "duration": 0.009090909090900823,
          "durationTicks": 4,
          "midi": 39,
          "name": "D#2",
          "ticks": 71060,
          "time": 161.5,
          "velocity": 1
        },
        {
          "duration": 0.01136363636365445,
          "durationTicks": 5,
          "midi": 51,
          "name": "D#3",
          "ticks": 71161,
          "time": 161.72954545454544,
          "velocity": 1
        },
        {
          "duration": 0.01136363636365445,
          "durationTicks": 5,
          "midi": 36,
          "name": "C2",
          "ticks": 71328,
          "time": 162.1090909090909,
          "velocity": 1
        },
        {
          "duration": 0.01136363636365445,
          "durationTicks": 5,
          "midi": 59,
          "name": "B3",
          "ticks": 71328,
          "time": 162.1090909090909,
          "velocity": 1
        },
        {
          "duration": 0.009090909090900823,
          "durationTicks": 4,
          "midi": 45,
          "name": "A2",
          "ticks": 71597,
          "time": 162.72045454545454,
          "velocity": 1
        },
        {
          "duration": 0.009090909090900823,
          "durationTicks": 4,
          "midi": 59,
          "name": "B3",
          "ticks": 71597,
          "time": 162.72045454545454,
          "velocity": 1
        },
        {
          "duration": 0.009090909090929244,
          "durationTicks": 4,
          "midi": 59,
          "name": "B3",
          "ticks": 71685,
          "time": 162.92045454545453,
          "velocity": 1
        },
        {
          "duration": 0.01136363636365445,
          "durationTicks": 5,
          "midi": 37,
          "name": "C#2",
          "ticks": 71777,
          "time": 163.12954545454545,
          "velocity": 1
        },
        {
          "duration": 0.01136363636365445,
          "durationTicks": 5,
          "midi": 42,
          "name": "F#2",
          "ticks": 71777,
          "time": 163.12954545454545,
          "velocity": 1
        },
        {
          "duration": 0.01136363636365445,
          "durationTicks": 5,
          "midi": 59,
          "name": "B3",
          "ticks": 71931,
          "time": 163.47954545454544,
          "velocity": 1
        },
        {
          "duration": 0.011363636363626028,
          "durationTicks": 5,
          "midi": 41,
          "name": "F2",
          "ticks": 72129,
          "time": 163.92954545454546,
          "velocity": 1
        },
        {
          "duration": 0.009090909090929244,
          "durationTicks": 4,
          "midi": 36,
          "name": "C2",
          "ticks": 72138,
          "time": 163.95,
          "velocity": 1
        },
        {
          "duration": 0.009090909090900823,
          "durationTicks": 4,
          "midi": 37,
          "name": "C#2",
          "ticks": 72490,
          "time": 164.75,
          "velocity": 1
        },
        {
          "duration": 0.009090909090900823,
          "durationTicks": 4,
          "midi": 42,
          "name": "F#2",
          "ticks": 72490,
          "time": 164.75,
          "velocity": 1
        },
        {
          "duration": 0.011363636363626028,
          "durationTicks": 5,
          "midi": 46,
          "name": "A#2",
          "ticks": 72613,
          "time": 165.02954545454546,
          "velocity": 1
        },
        {
          "duration": 0.009090909090900823,
          "durationTicks": 4,
          "midi": 41,
          "name": "F2",
          "ticks": 72754,
          "time": 165.35,
          "velocity": 1
        },
        {
          "duration": 0.009090909090900823,
          "durationTicks": 4,
          "midi": 41,
          "name": "F2",
          "ticks": 72794,
          "time": 165.4409090909091,
          "velocity": 1
        },
        {
          "duration": 0.01136363636365445,
          "durationTicks": 5,
          "midi": 41,
          "name": "F2",
          "ticks": 72811,
          "time": 165.47954545454544,
          "velocity": 1
        },
        {
          "duration": 0.011363636363626028,
          "durationTicks": 5,
          "midi": 41,
          "name": "F2",
          "ticks": 72833,
          "time": 165.52954545454546,
          "velocity": 1
        },
        {
          "duration": 0.009090909090900823,
          "durationTicks": 4,
          "midi": 41,
          "name": "F2",
          "ticks": 72842,
          "time": 165.55,
          "velocity": 1
        },
        {
          "duration": 0.011363636363626028,
          "durationTicks": 5,
          "midi": 36,
          "name": "C2",
          "ticks": 73022,
          "time": 165.95909090909092,
          "velocity": 1
        },
        {
          "duration": 0.011363636363626028,
          "durationTicks": 5,
          "midi": 45,
          "name": "A2",
          "ticks": 73022,
          "time": 165.95909090909092,
          "velocity": 1
        },
        {
          "duration": 0.009090909090900823,
          "durationTicks": 4,
          "midi": 38,
          "name": "D2",
          "ticks": 73203,
          "time": 166.37045454545455,
          "velocity": 1
        },
        {
          "duration": 0.009090909090900823,
          "durationTicks": 4,
          "midi": 59,
          "name": "B3",
          "ticks": 73467,
          "time": 166.97045454545454,
          "velocity": 1
        },
        {
          "duration": 0.009090909090929244,
          "durationTicks": 4,
          "midi": 36,
          "name": "C2",
          "ticks": 73555,
          "time": 167.17045454545453,
          "velocity": 1
        },
        {
          "duration": 0.009090909090900823,
          "durationTicks": 4,
          "midi": 59,
          "name": "B3",
          "ticks": 73564,
          "time": 167.1909090909091,
          "velocity": 1
        },
        {
          "duration": 0.009090909090900823,
          "durationTicks": 4,
          "midi": 59,
          "name": "B3",
          "ticks": 73740,
          "time": 167.5909090909091,
          "velocity": 1
        },
        {
          "duration": 0.011363636363626028,
          "durationTicks": 5,
          "midi": 51,
          "name": "D#3",
          "ticks": 73823,
          "time": 167.77954545454546,
          "velocity": 1
        },
        {
          "duration": 0.009090909090900823,
          "durationTicks": 4,
          "midi": 36,
          "name": "C2",
          "ticks": 74096,
          "time": 168.4,
          "velocity": 1
        },
        {
          "duration": 0.009090909090900823,
          "durationTicks": 4,
          "midi": 41,
          "name": "F2",
          "ticks": 74180,
          "time": 168.5909090909091,
          "velocity": 1
        },
        {
          "duration": 0.009090909090900823,
          "durationTicks": 4,
          "midi": 36,
          "name": "C2",
          "ticks": 74184,
          "time": 168.6,
          "velocity": 1
        },
        {
          "duration": 0.009090909090929244,
          "durationTicks": 4,
          "midi": 41,
          "name": "F2",
          "ticks": 74268,
          "time": 168.79090909090908,
          "velocity": 1
        },
        {
          "duration": 0.009090909090900823,
          "durationTicks": 4,
          "midi": 41,
          "name": "F2",
          "ticks": 74360,
          "time": 169,
          "velocity": 1
        },
        {
          "duration": 0.01136363636365445,
          "durationTicks": 5,
          "midi": 36,
          "name": "C2",
          "ticks": 74364,
          "time": 169.0090909090909,
          "velocity": 1
        },
        {
          "duration": 0.009090909090900823,
          "durationTicks": 4,
          "midi": 41,
          "name": "F2",
          "ticks": 74444,
          "time": 169.1909090909091,
          "velocity": 1
        },
        {
          "duration": 0.011363636363626028,
          "durationTicks": 5,
          "midi": 36,
          "name": "C2",
          "ticks": 74452,
          "time": 169.20909090909092,
          "velocity": 1
        },
        {
          "duration": 0.009090909090900823,
          "durationTicks": 4,
          "midi": 59,
          "name": "B3",
          "ticks": 74624,
          "time": 169.6,
          "velocity": 1
        },
        {
          "duration": 0.01136363636365445,
          "durationTicks": 5,
          "midi": 38,
          "name": "D2",
          "ticks": 74628,
          "time": 169.6090909090909,
          "velocity": 1
        },
        {
          "duration": 0.009090909090929244,
          "durationTicks": 4,
          "midi": 36,
          "name": "C2",
          "ticks": 74985,
          "time": 170.42045454545453,
          "velocity": 1
        },
        {
          "duration": 0.009090909090929244,
          "durationTicks": 4,
          "midi": 41,
          "name": "F2",
          "ticks": 74985,
          "time": 170.42045454545453,
          "velocity": 1
        },
        {
          "duration": 0.009090909090900823,
          "durationTicks": 4,
          "midi": 42,
          "name": "F#2",
          "ticks": 75130,
          "time": 170.75,
          "velocity": 1
        },
        {
          "duration": 0.01136363636365445,
          "durationTicks": 5,
          "midi": 37,
          "name": "C#2",
          "ticks": 75341,
          "time": 171.22954545454544,
          "velocity": 1
        },
        {
          "duration": 0.01136363636365445,
          "durationTicks": 5,
          "midi": 42,
          "name": "F#2",
          "ticks": 75341,
          "time": 171.22954545454544,
          "velocity": 1
        },
        {
          "duration": 0.009090909090900823,
          "durationTicks": 4,
          "midi": 36,
          "name": "C2",
          "ticks": 75610,
          "time": 171.8409090909091,
          "velocity": 1
        },
        {
          "duration": 0.009090909090900823,
          "durationTicks": 4,
          "midi": 41,
          "name": "F2",
          "ticks": 75610,
          "time": 171.8409090909091,
          "velocity": 1
        },
        {
          "duration": 0.009090909090929244,
          "durationTicks": 4,
          "midi": 36,
          "name": "C2",
          "ticks": 75698,
          "time": 172.04090909090908,
          "velocity": 1
        },
        {
          "duration": 0.009090909090929244,
          "durationTicks": 4,
          "midi": 42,
          "name": "F#2",
          "ticks": 75698,
          "time": 172.04090909090908,
          "velocity": 1
        },
        {
          "duration": 0.009090909090900823,
          "durationTicks": 4,
          "midi": 42,
          "name": "F#2",
          "ticks": 75790,
          "time": 172.25,
          "velocity": 1
        },
        {
          "duration": 0.009090909090900823,
          "durationTicks": 4,
          "midi": 42,
          "name": "F#2",
          "ticks": 75874,
          "time": 172.4409090909091,
          "velocity": 1
        },
        {
          "duration": 0.011363636363626028,
          "durationTicks": 5,
          "midi": 42,
          "name": "F#2",
          "ticks": 75970,
          "time": 172.6590909090909,
          "velocity": 1
        },
        {
          "duration": 0.009090909090900823,
          "durationTicks": 4,
          "midi": 40,
          "name": "E2",
          "ticks": 76054,
          "time": 172.85,
          "velocity": 1
        },
        {
          "duration": 0.009090909090900823,
          "durationTicks": 4,
          "midi": 42,
          "name": "F#2",
          "ticks": 76054,
          "time": 172.85,
          "velocity": 1
        },
        {
          "duration": 0.009090909090900823,
          "durationTicks": 4,
          "midi": 54,
          "name": "F#3",
          "ticks": 76054,
          "time": 172.85,
          "velocity": 1
        },
        {
          "duration": 0.01136363636365445,
          "durationTicks": 5,
          "midi": 43,
          "name": "G2",
          "ticks": 76067,
          "time": 172.87954545454545,
          "velocity": 1
        },
        {
          "duration": 0.011363636363626028,
          "durationTicks": 5,
          "midi": 36,
          "name": "C2",
          "ticks": 76146,
          "time": 173.0590909090909,
          "velocity": 1
        },
        {
          "duration": 0.011363636363626028,
          "durationTicks": 5,
          "midi": 41,
          "name": "F2",
          "ticks": 76146,
          "time": 173.0590909090909,
          "velocity": 1
        },
        {
          "duration": 0.011363636363626028,
          "durationTicks": 5,
          "midi": 42,
          "name": "F#2",
          "ticks": 76146,
          "time": 173.0590909090909,
          "velocity": 1
        },
        {
          "duration": 0.009090909090900823,
          "durationTicks": 4,
          "midi": 42,
          "name": "F#2",
          "ticks": 76239,
          "time": 173.27045454545456,
          "velocity": 1
        },
        {
          "duration": 0.009090909090900823,
          "durationTicks": 4,
          "midi": 42,
          "name": "F#2",
          "ticks": 76336,
          "time": 173.4909090909091,
          "velocity": 1
        },
        {
          "duration": 0.009090909090929244,
          "durationTicks": 4,
          "midi": 36,
          "name": "C2",
          "ticks": 76415,
          "time": 173.67045454545453,
          "velocity": 1
        },
        {
          "duration": 0.009090909090929244,
          "durationTicks": 4,
          "midi": 42,
          "name": "F#2",
          "ticks": 76415,
          "time": 173.67045454545453,
          "velocity": 1
        },
        {
          "duration": 0.009090909090929244,
          "durationTicks": 4,
          "midi": 55,
          "name": "G3",
          "ticks": 76415,
          "time": 173.67045454545453,
          "velocity": 1
        },
        {
          "duration": 0.009090909090900823,
          "durationTicks": 4,
          "midi": 42,
          "name": "F#2",
          "ticks": 76503,
          "time": 173.87045454545455,
          "velocity": 1
        },
        {
          "duration": 0.009090909090900823,
          "durationTicks": 4,
          "midi": 41,
          "name": "F2",
          "ticks": 76679,
          "time": 174.27045454545456,
          "velocity": 1
        },
        {
          "duration": 0.009090909090929244,
          "durationTicks": 4,
          "midi": 36,
          "name": "C2",
          "ticks": 76688,
          "time": 174.29090909090908,
          "velocity": 1
        },
        {
          "duration": 0.01136363636365445,
          "durationTicks": 5,
          "midi": 37,
          "name": "C#2",
          "ticks": 76771,
          "time": 174.47954545454544,
          "velocity": 1
        },
        {
          "duration": 0.01136363636365445,
          "durationTicks": 5,
          "midi": 42,
          "name": "F#2",
          "ticks": 76771,
          "time": 174.47954545454544,
          "velocity": 1
        },
        {
          "duration": 0.01136363636365445,
          "durationTicks": 5,
          "midi": 42,
          "name": "F#2",
          "ticks": 76947,
          "time": 174.87954545454545,
          "velocity": 1
        },
        {
          "duration": 0.011363636363626028,
          "durationTicks": 5,
          "midi": 41,
          "name": "F2",
          "ticks": 77123,
          "time": 175.27954545454546,
          "velocity": 1
        },
        {
          "duration": 0.011363636363626028,
          "durationTicks": 5,
          "midi": 42,
          "name": "F#2",
          "ticks": 77123,
          "time": 175.27954545454546,
          "velocity": 1
        },
        {
          "duration": 0.009090909090900823,
          "durationTicks": 4,
          "midi": 36,
          "name": "C2",
          "ticks": 77304,
          "time": 175.6909090909091,
          "velocity": 1
        },
        {
          "duration": 0.009090909090900823,
          "durationTicks": 4,
          "midi": 42,
          "name": "F#2",
          "ticks": 77304,
          "time": 175.6909090909091,
          "velocity": 1
        },
        {
          "duration": 0.009090909090900823,
          "durationTicks": 4,
          "midi": 46,
          "name": "A#2",
          "ticks": 77462,
          "time": 176.05,
          "velocity": 1
        },
        {
          "duration": 0.009090909090900823,
          "durationTicks": 4,
          "midi": 38,
          "name": "D2",
          "ticks": 77484,
          "time": 176.1,
          "velocity": 1
        },
        {
          "duration": 0.009090909090900823,
          "durationTicks": 4,
          "midi": 59,
          "name": "B3",
          "ticks": 77836,
          "time": 176.9,
          "velocity": 1
        },
        {
          "duration": 0.011363636363626028,
          "durationTicks": 5,
          "midi": 36,
          "name": "C2",
          "ticks": 77840,
          "time": 176.9090909090909,
          "velocity": 1
        },
        {
          "duration": 0.009090909090900823,
          "durationTicks": 4,
          "midi": 37,
          "name": "C#2",
          "ticks": 78197,
          "time": 177.72045454545454,
          "velocity": 1
        },
        {
          "duration": 0.009090909090900823,
          "durationTicks": 4,
          "midi": 42,
          "name": "F#2",
          "ticks": 78197,
          "time": 177.72045454545454,
          "velocity": 1
        },
        {
          "duration": 0.009090909090929244,
          "durationTicks": 4,
          "midi": 41,
          "name": "F2",
          "ticks": 78461,
          "time": 178.32045454545454,
          "velocity": 1
        },
        {
          "duration": 0.009090909090929244,
          "durationTicks": 4,
          "midi": 82,
          "name": "A#5",
          "ticks": 78461,
          "time": 178.32045454545454,
          "velocity": 1
        },
        {
          "duration": 0.009090909090900823,
          "durationTicks": 4,
          "midi": 41,
          "name": "F2",
          "ticks": 78549,
          "time": 178.52045454545456,
          "velocity": 1
        },
        {
          "duration": 0.009090909090900823,
          "durationTicks": 4,
          "midi": 82,
          "name": "A#5",
          "ticks": 78549,
          "time": 178.52045454545456,
          "velocity": 1
        },
        {
          "duration": 0.009090909090900823,
          "durationTicks": 4,
          "midi": 82,
          "name": "A#5",
          "ticks": 78637,
          "time": 178.72045454545454,
          "velocity": 1
        },
        {
          "duration": 0.01136363636365445,
          "durationTicks": 5,
          "midi": 48,
          "name": "C3",
          "ticks": 78707,
          "time": 178.87954545454545,
          "velocity": 1
        },
        {
          "duration": 0.011363636363626028,
          "durationTicks": 5,
          "midi": 36,
          "name": "C2",
          "ticks": 78729,
          "time": 178.92954545454546,
          "velocity": 1
        },
        {
          "duration": 0.011363636363626028,
          "durationTicks": 5,
          "midi": 45,
          "name": "A2",
          "ticks": 78729,
          "time": 178.92954545454546,
          "velocity": 1
        },
        {
          "duration": 0.011363636363626028,
          "durationTicks": 5,
          "midi": 82,
          "name": "A#5",
          "ticks": 78729,
          "time": 178.92954545454546,
          "velocity": 1
        },
        {
          "duration": 0.009090909090900823,
          "durationTicks": 4,
          "midi": 82,
          "name": "A#5",
          "ticks": 78813,
          "time": 179.12045454545455,
          "velocity": 1
        },
        {
          "duration": 0.009090909090900823,
          "durationTicks": 4,
          "midi": 38,
          "name": "D2",
          "ticks": 78910,
          "time": 179.3409090909091,
          "velocity": 1
        },
        {
          "duration": 0.009090909090900823,
          "durationTicks": 4,
          "midi": 39,
          "name": "D#2",
          "ticks": 78910,
          "time": 179.3409090909091,
          "velocity": 1
        },
        {
          "duration": 0.009090909090900823,
          "durationTicks": 4,
          "midi": 42,
          "name": "F#2",
          "ticks": 78910,
          "time": 179.3409090909091,
          "velocity": 1
        },
        {
          "duration": 0.009090909090900823,
          "durationTicks": 4,
          "midi": 82,
          "name": "A#5",
          "ticks": 78910,
          "time": 179.3409090909091,
          "velocity": 1
        },
        {
          "duration": 0.011363636363626028,
          "durationTicks": 5,
          "midi": 82,
          "name": "A#5",
          "ticks": 78993,
          "time": 179.52954545454546,
          "velocity": 1
        },
        {
          "duration": 0.01136363636365445,
          "durationTicks": 5,
          "midi": 42,
          "name": "F#2",
          "ticks": 79081,
          "time": 179.72954545454544,
          "velocity": 1
        },
        {
          "duration": 0.01136363636365445,
          "durationTicks": 5,
          "midi": 70,
          "name": "A#4",
          "ticks": 79081,
          "time": 179.72954545454544,
          "velocity": 1
        },
        {
          "duration": 0.009090909090900823,
          "durationTicks": 4,
          "midi": 42,
          "name": "F#2",
          "ticks": 79174,
          "time": 179.9409090909091,
          "velocity": 1
        },
        {
          "duration": 0.009090909090900823,
          "durationTicks": 4,
          "midi": 82,
          "name": "A#5",
          "ticks": 79174,
          "time": 179.9409090909091,
          "velocity": 1
        },
        {
          "duration": 0.009090909090900823,
          "durationTicks": 4,
          "midi": 36,
          "name": "C2",
          "ticks": 79266,
          "time": 180.15,
          "velocity": 1
        },
        {
          "duration": 0.009090909090900823,
          "durationTicks": 4,
          "midi": 42,
          "name": "F#2",
          "ticks": 79266,
          "time": 180.15,
          "velocity": 1
        },
        {
          "duration": 0.009090909090900823,
          "durationTicks": 4,
          "midi": 70,
          "name": "A#4",
          "ticks": 79266,
          "time": 180.15,
          "velocity": 1
        },
        {
          "duration": 0.01136363636365445,
          "durationTicks": 5,
          "midi": 42,
          "name": "F#2",
          "ticks": 79534,
          "time": 180.7590909090909,
          "velocity": 1
        },
        {
          "duration": 0.009090909090900823,
          "durationTicks": 4,
          "midi": 42,
          "name": "F#2",
          "ticks": 79803,
          "time": 181.37045454545455,
          "velocity": 1
        },
        {
          "duration": 0.009090909090929244,
          "durationTicks": 4,
          "midi": 36,
          "name": "C2",
          "ticks": 79891,
          "time": 181.57045454545454,
          "velocity": 1
        },
        {
          "duration": 0.009090909090929244,
          "durationTicks": 4,
          "midi": 47,
          "name": "B2",
          "ticks": 79891,
          "time": 181.57045454545454,
          "velocity": 1
        },
        {
          "duration": 0.01136363636365445,
          "durationTicks": 5,
          "midi": 48,
          "name": "C3",
          "ticks": 79974,
          "time": 181.7590909090909,
          "velocity": 1
        },
        {
          "duration": 0.009090909090900823,
          "durationTicks": 4,
          "midi": 41,
          "name": "F2",
          "ticks": 80067,
          "time": 181.97045454545454,
          "velocity": 1
        },
        {
          "duration": 0.009090909090929244,
          "durationTicks": 4,
          "midi": 36,
          "name": "C2",
          "ticks": 80155,
          "time": 182.17045454545453,
          "velocity": 1
        },
        {
          "duration": 0.009090909090929244,
          "durationTicks": 4,
          "midi": 41,
          "name": "F2",
          "ticks": 80155,
          "time": 182.17045454545453,
          "velocity": 1
        },
        {
          "duration": 0.011363636363626028,
          "durationTicks": 5,
          "midi": 38,
          "name": "D2",
          "ticks": 80335,
          "time": 182.57954545454547,
          "velocity": 1
        },
        {
          "duration": 0.009090909090900823,
          "durationTicks": 4,
          "midi": 36,
          "name": "C2",
          "ticks": 80692,
          "time": 183.3909090909091,
          "velocity": 1
        },
        {
          "duration": 0.009090909090929244,
          "durationTicks": 4,
          "midi": 59,
          "name": "B3",
          "ticks": 81048,
          "time": 184.2,
          "velocity": 1
        },
        {
          "duration": 0.009090909090929244,
          "durationTicks": 4,
          "midi": 36,
          "name": "C2",
          "ticks": 81321,
          "time": 184.82045454545454,
          "velocity": 1
        },
        {
          "duration": 0.009090909090900823,
          "durationTicks": 4,
          "midi": 41,
          "name": "F2",
          "ticks": 81400,
          "time": 185,
          "velocity": 1
        },
        {
          "duration": 0.009090909090929244,
          "durationTicks": 4,
          "midi": 36,
          "name": "C2",
          "ticks": 81585,
          "time": 185.42045454545453,
          "velocity": 1
        },
        {
          "duration": 0.009090909090929244,
          "durationTicks": 4,
          "midi": 39,
          "name": "D#2",
          "ticks": 81761,
          "time": 185.82045454545454,
          "velocity": 1
        },
        {
          "duration": 0.009090909090900823,
          "durationTicks": 4,
          "midi": 38,
          "name": "D2",
          "ticks": 81770,
          "time": 185.8409090909091,
          "velocity": 1
        },
        {
          "duration": 0.011363636363626028,
          "durationTicks": 5,
          "midi": 36,
          "name": "C2",
          "ticks": 81853,
          "time": 186.02954545454546,
          "velocity": 1
        },
        {
          "duration": 0.009090909090929244,
          "durationTicks": 4,
          "midi": 49,
          "name": "C#3",
          "ticks": 81858,
          "time": 186.04090909090908,
          "velocity": 1
        },
        {
          "duration": 0.01136363636365445,
          "durationTicks": 5,
          "midi": 36,
          "name": "C2",
          "ticks": 82117,
          "time": 186.62954545454545,
          "velocity": 1
        },
        {
          "duration": 0.01136363636365445,
          "durationTicks": 5,
          "midi": 42,
          "name": "F#2",
          "ticks": 82117,
          "time": 186.62954545454545,
          "velocity": 1
        },
        {
          "duration": 0.011363636363626028,
          "durationTicks": 5,
          "midi": 42,
          "name": "F#2",
          "ticks": 82306,
          "time": 187.0590909090909,
          "velocity": 1
        },
        {
          "duration": 0.009090909090900823,
          "durationTicks": 4,
          "midi": 36,
          "name": "C2",
          "ticks": 82386,
          "time": 187.2409090909091,
          "velocity": 1
        },
        {
          "duration": 0.009090909090900823,
          "durationTicks": 4,
          "midi": 37,
          "name": "C#2",
          "ticks": 82474,
          "time": 187.4409090909091,
          "velocity": 1
        },
        {
          "duration": 0.009090909090900823,
          "durationTicks": 4,
          "midi": 42,
          "name": "F#2",
          "ticks": 82474,
          "time": 187.4409090909091,
          "velocity": 1
        },
        {
          "duration": 0.009090909090900823,
          "durationTicks": 4,
          "midi": 36,
          "name": "C2",
          "ticks": 82654,
          "time": 187.85,
          "velocity": 1
        },
        {
          "duration": 0.009090909090900823,
          "durationTicks": 4,
          "midi": 42,
          "name": "F#2",
          "ticks": 82654,
          "time": 187.85,
          "velocity": 1
        },
        {
          "duration": 0.011363636363626028,
          "durationTicks": 5,
          "midi": 42,
          "name": "F#2",
          "ticks": 82755,
          "time": 188.07954545454547,
          "velocity": 1
        },
        {
          "duration": 0.011363636363626028,
          "durationTicks": 5,
          "midi": 36,
          "name": "C2",
          "ticks": 82843,
          "time": 188.27954545454546,
          "velocity": 1
        },
        {
          "duration": 0.009090909090929244,
          "durationTicks": 4,
          "midi": 36,
          "name": "C2",
          "ticks": 83015,
          "time": 188.67045454545453,
          "velocity": 1
        },
        {
          "duration": 0.009090909090929244,
          "durationTicks": 4,
          "midi": 59,
          "name": "B3",
          "ticks": 83015,
          "time": 188.67045454545453,
          "velocity": 1
        },
        {
          "duration": 0.011363636363626028,
          "durationTicks": 5,
          "midi": 37,
          "name": "C#2",
          "ticks": 83186,
          "time": 189.0590909090909,
          "velocity": 1
        },
        {
          "duration": 0.011363636363626028,
          "durationTicks": 5,
          "midi": 38,
          "name": "D2",
          "ticks": 83186,
          "time": 189.0590909090909,
          "velocity": 1
        },
        {
          "duration": 0.011363636363626028,
          "durationTicks": 5,
          "midi": 59,
          "name": "B3",
          "ticks": 83186,
          "time": 189.0590909090909,
          "velocity": 1
        },
        {
          "duration": 0.009090909090929244,
          "durationTicks": 4,
          "midi": 51,
          "name": "D#3",
          "ticks": 83455,
          "time": 189.67045454545453,
          "velocity": 1
        },
        {
          "duration": 0.01136363636365445,
          "durationTicks": 5,
          "midi": 36,
          "name": "C2",
          "ticks": 83547,
          "time": 189.87954545454545,
          "velocity": 1
        },
        {
          "duration": 0.01136363636365445,
          "durationTicks": 5,
          "midi": 59,
          "name": "B3",
          "ticks": 83547,
          "time": 189.87954545454545,
          "velocity": 1
        },
        {
          "duration": 0.009090909090900823,
          "durationTicks": 4,
          "midi": 59,
          "name": "B3",
          "ticks": 83710,
          "time": 190.25,
          "velocity": 1
        },
        {
          "duration": 0.009090909090900823,
          "durationTicks": 4,
          "midi": 59,
          "name": "B3",
          "ticks": 83904,
          "time": 190.6909090909091,
          "velocity": 1
        },
        {
          "duration": 0.009090909090900823,
          "durationTicks": 4,
          "midi": 41,
          "name": "F2",
          "ticks": 84172,
          "time": 191.3,
          "velocity": 1
        },
        {
          "duration": 0.009090909090900823,
          "durationTicks": 4,
          "midi": 45,
          "name": "A2",
          "ticks": 84260,
          "time": 191.5,
          "velocity": 1
        },
        {
          "duration": 0.009090909090929244,
          "durationTicks": 4,
          "midi": 45,
          "name": "A2",
          "ticks": 84348,
          "time": 191.7,
          "velocity": 1
        },
        {
          "duration": 0.011363636363626028,
          "durationTicks": 5,
          "midi": 36,
          "name": "C2",
          "ticks": 84352,
          "time": 191.70909090909092,
          "velocity": 1
        },
        {
          "duration": 0.011363636363626028,
          "durationTicks": 5,
          "midi": 36,
          "name": "C2",
          "ticks": 84440,
          "time": 191.9090909090909,
          "velocity": 1
        },
        {
          "duration": 0.011363636363626028,
          "durationTicks": 5,
          "midi": 45,
          "name": "A2",
          "ticks": 84440,
          "time": 191.9090909090909,
          "velocity": 1
        },
        {
          "duration": 0.011363636363626028,
          "durationTicks": 5,
          "midi": 37,
          "name": "C#2",
          "ticks": 84616,
          "time": 192.3090909090909,
          "velocity": 1
        },
        {
          "duration": 0.011363636363626028,
          "durationTicks": 5,
          "midi": 38,
          "name": "D2",
          "ticks": 84616,
          "time": 192.3090909090909,
          "velocity": 1
        },
        {
          "duration": 0.009090909090900823,
          "durationTicks": 4,
          "midi": 51,
          "name": "D#3",
          "ticks": 84797,
          "time": 192.72045454545454,
          "velocity": 1
        },
        {
          "duration": 0.01136363636365445,
          "durationTicks": 5,
          "midi": 36,
          "name": "C2",
          "ticks": 84977,
          "time": 193.12954545454545,
          "velocity": 1
        },
        {
          "duration": 0.01136363636365445,
          "durationTicks": 5,
          "midi": 51,
          "name": "D#3",
          "ticks": 84977,
          "time": 193.12954545454545,
          "velocity": 1
        },
        {
          "duration": 0.011363636363626028,
          "durationTicks": 5,
          "midi": 51,
          "name": "D#3",
          "ticks": 85153,
          "time": 193.52954545454546,
          "velocity": 1
        },
        {
          "duration": 0.01136363636365445,
          "durationTicks": 5,
          "midi": 51,
          "name": "D#3",
          "ticks": 85241,
          "time": 193.72954545454544,
          "velocity": 1
        },
        {
          "duration": 0.011363636363626028,
          "durationTicks": 5,
          "midi": 59,
          "name": "B3",
          "ticks": 85329,
          "time": 193.92954545454546,
          "velocity": 1
        },
        {
          "duration": 0.009090909090900823,
          "durationTicks": 4,
          "midi": 51,
          "name": "D#3",
          "ticks": 85514,
          "time": 194.35,
          "velocity": 1
        },
        {
          "duration": 0.009090909090929244,
          "durationTicks": 4,
          "midi": 45,
          "name": "A2",
          "ticks": 85598,
          "time": 194.54090909090908,
          "velocity": 1
        },
        {
          "duration": 0.009090909090900823,
          "durationTicks": 4,
          "midi": 36,
          "name": "C2",
          "ticks": 85602,
          "time": 194.55,
          "velocity": 1
        },
        {
          "duration": 0.01136363636365445,
          "durationTicks": 5,
          "midi": 59,
          "name": "B3",
          "ticks": 85681,
          "time": 194.72954545454544,
          "velocity": 1
        },
        {
          "duration": 0.009090909090900823,
          "durationTicks": 4,
          "midi": 36,
          "name": "C2",
          "ticks": 85774,
          "time": 194.9409090909091,
          "velocity": 1
        },
        {
          "duration": 0.009090909090900823,
          "durationTicks": 4,
          "midi": 41,
          "name": "F2",
          "ticks": 85774,
          "time": 194.9409090909091,
          "velocity": 1
        },
        {
          "duration": 0.009090909090900823,
          "durationTicks": 4,
          "midi": 36,
          "name": "C2",
          "ticks": 85862,
          "time": 195.1409090909091,
          "velocity": 1
        },
        {
          "duration": 0.009090909090900823,
          "durationTicks": 4,
          "midi": 41,
          "name": "F2",
          "ticks": 85862,
          "time": 195.1409090909091,
          "velocity": 1
        },
        {
          "duration": 0.009090909090900823,
          "durationTicks": 4,
          "midi": 59,
          "name": "B3",
          "ticks": 85862,
          "time": 195.1409090909091,
          "velocity": 1
        },
        {
          "duration": 0.009090909090929244,
          "durationTicks": 4,
          "midi": 59,
          "name": "B3",
          "ticks": 86038,
          "time": 195.54090909090908,
          "velocity": 1
        },
        {
          "duration": 0.009090909090900823,
          "durationTicks": 4,
          "midi": 38,
          "name": "D2",
          "ticks": 86042,
          "time": 195.55,
          "velocity": 1
        },
        {
          "duration": 0.009090909090900823,
          "durationTicks": 4,
          "midi": 59,
          "name": "B3",
          "ticks": 86236,
          "time": 195.9909090909091,
          "velocity": 1
        },
        {
          "duration": 0.009090909090900823,
          "durationTicks": 4,
          "midi": 44,
          "name": "G#2",
          "ticks": 86306,
          "time": 196.15,
          "velocity": 1
        },
        {
          "duration": 0.01136363636365445,
          "durationTicks": 5,
          "midi": 36,
          "name": "C2",
          "ticks": 86398,
          "time": 196.3590909090909,
          "velocity": 1
        },
        {
          "duration": 0.01136363636365445,
          "durationTicks": 5,
          "midi": 41,
          "name": "F2",
          "ticks": 86398,
          "time": 196.3590909090909,
          "velocity": 1
        },
        {
          "duration": 0.01136363636365445,
          "durationTicks": 5,
          "midi": 59,
          "name": "B3",
          "ticks": 86398,
          "time": 196.3590909090909,
          "velocity": 1
        },
        {
          "duration": 0.01136363636365445,
          "durationTicks": 5,
          "midi": 42,
          "name": "F#2",
          "ticks": 86574,
          "time": 196.7590909090909,
          "velocity": 1
        },
        {
          "duration": 0.009090909090900823,
          "durationTicks": 4,
          "midi": 42,
          "name": "F#2",
          "ticks": 86667,
          "time": 196.97045454545454,
          "velocity": 1
        },
        {
          "duration": 0.011363636363626028,
          "durationTicks": 5,
          "midi": 37,
          "name": "C#2",
          "ticks": 86759,
          "time": 197.17954545454546,
          "velocity": 1
        },
        {
          "duration": 0.011363636363626028,
          "durationTicks": 5,
          "midi": 42,
          "name": "F#2",
          "ticks": 86759,
          "time": 197.17954545454546,
          "velocity": 1
        },
        {
          "duration": 0.009090909090900823,
          "durationTicks": 4,
          "midi": 42,
          "name": "F#2",
          "ticks": 86852,
          "time": 197.3909090909091,
          "velocity": 1
        },
        {
          "duration": 0.009090909090900823,
          "durationTicks": 4,
          "midi": 42,
          "name": "F#2",
          "ticks": 86940,
          "time": 197.5909090909091,
          "velocity": 1
        },
        {
          "duration": 0.011363636363626028,
          "durationTicks": 5,
          "midi": 41,
          "name": "F2",
          "ticks": 87023,
          "time": 197.77954545454546,
          "velocity": 1
        },
        {
          "duration": 0.009090909090929244,
          "durationTicks": 4,
          "midi": 36,
          "name": "C2",
          "ticks": 87028,
          "time": 197.79090909090908,
          "velocity": 1
        },
        {
          "duration": 0.009090909090929244,
          "durationTicks": 4,
          "midi": 46,
          "name": "A#2",
          "ticks": 87028,
          "time": 197.79090909090908,
          "velocity": 1
        },
        {
          "duration": 0.011363636363626028,
          "durationTicks": 5,
          "midi": 41,
          "name": "F2",
          "ticks": 87080,
          "time": 197.9090909090909,
          "velocity": 1
        },
        {
          "duration": 0.009090909090900823,
          "durationTicks": 4,
          "midi": 41,
          "name": "F2",
          "ticks": 87116,
          "time": 197.9909090909091,
          "velocity": 1
        },
        {
          "duration": 0.009090909090900823,
          "durationTicks": 4,
          "midi": 42,
          "name": "F#2",
          "ticks": 87204,
          "time": 198.1909090909091,
          "velocity": 1
        },
        {
          "duration": 0.009090909090900823,
          "durationTicks": 4,
          "midi": 41,
          "name": "F2",
          "ticks": 87292,
          "time": 198.3909090909091,
          "velocity": 1
        },
        {
          "duration": 0.009090909090900823,
          "durationTicks": 4,
          "midi": 36,
          "name": "C2",
          "ticks": 87296,
          "time": 198.4,
          "velocity": 1
        },
        {
          "duration": 0.009090909090900823,
          "durationTicks": 4,
          "midi": 42,
          "name": "F#2",
          "ticks": 87296,
          "time": 198.4,
          "velocity": 1
        },
        {
          "duration": 0.009090909090900823,
          "durationTicks": 4,
          "midi": 41,
          "name": "F2",
          "ticks": 87384,
          "time": 198.6,
          "velocity": 1
        },
        {
          "duration": 0.009090909090900823,
          "durationTicks": 4,
          "midi": 42,
          "name": "F#2",
          "ticks": 87384,
          "time": 198.6,
          "velocity": 1
        },
        {
          "duration": 0.009090909090929244,
          "durationTicks": 4,
          "midi": 38,
          "name": "D2",
          "ticks": 87468,
          "time": 198.79090909090908,
          "velocity": 1
        },
        {
          "duration": 0.011363636363626028,
          "durationTicks": 5,
          "midi": 41,
          "name": "F2",
          "ticks": 87485,
          "time": 198.82954545454547,
          "velocity": 1
        },
        {
          "duration": 0.009090909090900823,
          "durationTicks": 4,
          "midi": 36,
          "name": "C2",
          "ticks": 87560,
          "time": 199,
          "velocity": 1
        },
        {
          "duration": 0.009090909090929244,
          "durationTicks": 4,
          "midi": 41,
          "name": "F2",
          "ticks": 87648,
          "time": 199.2,
          "velocity": 1
        },
        {
          "duration": 0.009090909090900823,
          "durationTicks": 4,
          "midi": 36,
          "name": "C2",
          "ticks": 87736,
          "time": 199.4,
          "velocity": 1
        },
        {
          "duration": 0.009090909090900823,
          "durationTicks": 4,
          "midi": 38,
          "name": "D2",
          "ticks": 87736,
          "time": 199.4,
          "velocity": 1
        },
        {
          "duration": 0.009090909090900823,
          "durationTicks": 4,
          "midi": 38,
          "name": "D2",
          "ticks": 87780,
          "time": 199.5,
          "velocity": 1
        },
        {
          "duration": 0.009090909090900823,
          "durationTicks": 4,
          "midi": 41,
          "name": "F2",
          "ticks": 87789,
          "time": 199.52045454545456,
          "velocity": 1
        },
        {
          "duration": 0.009090909090900823,
          "durationTicks": 4,
          "midi": 36,
          "name": "C2",
          "ticks": 87833,
          "time": 199.62045454545455,
          "velocity": 1
        },
        {
          "duration": 0.009090909090900823,
          "durationTicks": 4,
          "midi": 49,
          "name": "C#3",
          "ticks": 87833,
          "time": 199.62045454545455,
          "velocity": 1
        },
        {
          "duration": 0.009090909090900823,
          "durationTicks": 4,
          "midi": 52,
          "name": "E3",
          "ticks": 87833,
          "time": 199.62045454545455,
          "velocity": 1
        }
      ],
      "endOfTrackTicks": 87838
    },
    {
      "channel": 11,
      "controlChanges": {},
      "pitchBends": [],
      "instrument": {
        "family": "pipe",
        "number": 73,
        "name": "flute"
      },
      "name": "",
      "notes": [
        {
          "duration": 1.200000000000001,
          "durationTicks": 528,
          "midi": 75,
          "name": "D#5",
          "ticks": 5777,
          "time": 13.129545454545454,
          "velocity": 1
        },
        {
          "duration": 0.7704545454545411,
          "durationTicks": 339,
          "midi": 77,
          "name": "F5",
          "ticks": 46090,
          "time": 104.75,
          "velocity": 1
        },
        {
          "duration": 0.9499999999999886,
          "durationTicks": 418,
          "midi": 75,
          "name": "D#5",
          "ticks": 46438,
          "time": 105.5409090909091,
          "velocity": 1
        }
      ],
      "endOfTrackTicks": 46857
    },
    {
      "channel": 12,
      "controlChanges": {},
      "pitchBends": [],
      "instrument": {
        "family": "synth lead",
        "number": 80,
        "name": "lead 1 (square)"
      },
      "name": "",
      "notes": [
        {
          "duration": 0.39090909090909065,
          "durationTicks": 172,
          "midi": 75,
          "name": "D#5",
          "ticks": 7471,
          "time": 16.979545454545455,
          "velocity": 1
        },
        {
          "duration": 0.4499999999999993,
          "durationTicks": 198,
          "midi": 75,
          "name": "D#5",
          "ticks": 7911,
          "time": 17.979545454545455,
          "velocity": 1
        },
        {
          "duration": 0.18863636363636616,
          "durationTicks": 83,
          "midi": 63,
          "name": "D#4",
          "ticks": 9170,
          "time": 20.84090909090909,
          "velocity": 1
        },
        {
          "duration": 0.1704545454545432,
          "durationTicks": 75,
          "midi": 65,
          "name": "F4",
          "ticks": 9253,
          "time": 21.029545454545456,
          "velocity": 1
        },
        {
          "duration": 0.44090909090909136,
          "durationTicks": 194,
          "midi": 49,
          "name": "C#3",
          "ticks": 9328,
          "time": 21.2,
          "velocity": 1
        },
        {
          "duration": 0.1886363636363626,
          "durationTicks": 83,
          "midi": 61,
          "name": "C#4",
          "ticks": 9522,
          "time": 21.64090909090909,
          "velocity": 1
        },
        {
          "duration": 0.20000000000000284,
          "durationTicks": 88,
          "midi": 58,
          "name": "A#3",
          "ticks": 9605,
          "time": 21.829545454545453,
          "velocity": 1
        },
        {
          "duration": 0.34999999999999787,
          "durationTicks": 154,
          "midi": 61,
          "name": "C#4",
          "ticks": 9693,
          "time": 22.029545454545456,
          "velocity": 1
        },
        {
          "duration": 0.09999999999999787,
          "durationTicks": 44,
          "midi": 58,
          "name": "A#3",
          "ticks": 9865,
          "time": 22.420454545454547,
          "velocity": 1
        },
        {
          "duration": 0.20000000000000284,
          "durationTicks": 88,
          "midi": 63,
          "name": "D#4",
          "ticks": 10327,
          "time": 23.470454545454544,
          "velocity": 1
        },
        {
          "duration": 0.8204545454545453,
          "durationTicks": 361,
          "midi": 65,
          "name": "F4",
          "ticks": 10410,
          "time": 23.65909090909091,
          "velocity": 1
        },
        {
          "duration": 0.09090909090908994,
          "durationTicks": 40,
          "midi": 63,
          "name": "D#4",
          "ticks": 10771,
          "time": 24.479545454545455,
          "velocity": 1
        },
        {
          "duration": 1.0090909090909115,
          "durationTicks": 444,
          "midi": 75,
          "name": "D#5",
          "ticks": 11757,
          "time": 26.720454545454544,
          "velocity": 1
        },
        {
          "duration": 0.17954545454545467,
          "durationTicks": 79,
          "midi": 68,
          "name": "G#4",
          "ticks": 12201,
          "time": 27.729545454545455,
          "velocity": 1
        },
        {
          "duration": 0.20909090909090722,
          "durationTicks": 92,
          "midi": 70,
          "name": "A#4",
          "ticks": 12294,
          "time": 27.94090909090909,
          "velocity": 1
        },
        {
          "duration": 0.5295454545454561,
          "durationTicks": 233,
          "midi": 73,
          "name": "C#5",
          "ticks": 12382,
          "time": 28.14090909090909,
          "velocity": 1
        },
        {
          "duration": 0.42045454545454675,
          "durationTicks": 185,
          "midi": 80,
          "name": "G#5",
          "ticks": 14502,
          "time": 32.95909090909091,
          "velocity": 1
        },
        {
          "duration": 0.7999999999999972,
          "durationTicks": 352,
          "midi": 75,
          "name": "D#5",
          "ticks": 14692,
          "time": 33.39090909090909,
          "velocity": 1
        },
        {
          "duration": 0.6181818181818244,
          "durationTicks": 272,
          "midi": 80,
          "name": "G#5",
          "ticks": 15044,
          "time": 34.19090909090909,
          "velocity": 1
        },
        {
          "duration": 0.12045454545454248,
          "durationTicks": 53,
          "midi": 63,
          "name": "D#4",
          "ticks": 16469,
          "time": 37.429545454545455,
          "velocity": 1
        },
        {
          "duration": 0.07045454545454533,
          "durationTicks": 31,
          "midi": 65,
          "name": "F4",
          "ticks": 16570,
          "time": 37.65909090909091,
          "velocity": 1
        },
        {
          "duration": 0.11818181818181728,
          "durationTicks": 52,
          "midi": 63,
          "name": "D#4",
          "ticks": 16650,
          "time": 37.84090909090909,
          "velocity": 1
        },
        {
          "duration": 0.12954545454545752,
          "durationTicks": 57,
          "midi": 61,
          "name": "C#4",
          "ticks": 16738,
          "time": 38.04090909090909,
          "velocity": 1
        },
        {
          "duration": 0.10000000000000142,
          "durationTicks": 44,
          "midi": 58,
          "name": "A#3",
          "ticks": 16812,
          "time": 38.20909090909091,
          "velocity": 1
        },
        {
          "duration": 0.6499999999999986,
          "durationTicks": 286,
          "midi": 63,
          "name": "D#4",
          "ticks": 16834,
          "time": 38.25909090909091,
          "velocity": 1
        },
        {
          "duration": 0.8204545454545453,
          "durationTicks": 361,
          "midi": 61,
          "name": "C#4",
          "ticks": 17186,
          "time": 39.05909090909091,
          "velocity": 1
        },
        {
          "duration": 0.19999999999999574,
          "durationTicks": 88,
          "midi": 67,
          "name": "G4",
          "ticks": 17547,
          "time": 39.87954545454546,
          "velocity": 1
        },
        {
          "duration": 0.17045454545454675,
          "durationTicks": 75,
          "midi": 65,
          "name": "F4",
          "ticks": 17635,
          "time": 40.07954545454545,
          "velocity": 1
        },
        {
          "duration": 0.14090909090909065,
          "durationTicks": 62,
          "midi": 68,
          "name": "G#4",
          "ticks": 17723,
          "time": 40.279545454545456,
          "velocity": 1
        },
        {
          "duration": 0.10000000000000142,
          "durationTicks": 44,
          "midi": 70,
          "name": "A#4",
          "ticks": 17780,
          "time": 40.40909090909091,
          "velocity": 1
        },
        {
          "duration": 0.20909090909091077,
          "durationTicks": 92,
          "midi": 68,
          "name": "G#4",
          "ticks": 17816,
          "time": 40.49090909090909,
          "velocity": 1
        },
        {
          "duration": 0.25909090909090793,
          "durationTicks": 114,
          "midi": 61,
          "name": "C#4",
          "ticks": 17908,
          "time": 40.7,
          "velocity": 1
        },
        {
          "duration": 0.2204545454545439,
          "durationTicks": 97,
          "midi": 65,
          "name": "F4",
          "ticks": 18084,
          "time": 41.1,
          "velocity": 1
        },
        {
          "duration": 0.21136363636363598,
          "durationTicks": 93,
          "midi": 75,
          "name": "D#5",
          "ticks": 18176,
          "time": 41.30909090909091,
          "velocity": 1
        },
        {
          "duration": 0.75,
          "durationTicks": 330,
          "midi": 77,
          "name": "F5",
          "ticks": 18269,
          "time": 41.52045454545455,
          "velocity": 1
        },
        {
          "duration": 0.75,
          "durationTicks": 330,
          "midi": 65,
          "name": "F4",
          "ticks": 18273,
          "time": 41.529545454545456,
          "velocity": 1
        },
        {
          "duration": 0.4409090909090949,
          "durationTicks": 194,
          "midi": 77,
          "name": "F5",
          "ticks": 18612,
          "time": 42.3,
          "velocity": 1
        },
        {
          "duration": 0.4409090909090878,
          "durationTicks": 194,
          "midi": 65,
          "name": "F4",
          "ticks": 18616,
          "time": 42.30909090909091,
          "velocity": 1
        },
        {
          "duration": 0.17954545454545467,
          "durationTicks": 79,
          "midi": 80,
          "name": "G#5",
          "ticks": 18806,
          "time": 42.74090909090909,
          "velocity": 1
        },
        {
          "duration": 0.25,
          "durationTicks": 110,
          "midi": 65,
          "name": "F4",
          "ticks": 18810,
          "time": 42.75,
          "velocity": 1
        },
        {
          "duration": 0.39090909090909065,
          "durationTicks": 172,
          "midi": 65,
          "name": "F4",
          "ticks": 18968,
          "time": 43.10909090909091,
          "velocity": 1
        },
        {
          "duration": 0.19999999999999574,
          "durationTicks": 88,
          "midi": 63,
          "name": "D#4",
          "ticks": 19149,
          "time": 43.52045454545455,
          "velocity": 1
        },
        {
          "duration": 0.32954545454545325,
          "durationTicks": 145,
          "midi": 70,
          "name": "A#4",
          "ticks": 19325,
          "time": 43.92045454545455,
          "velocity": 1
        },
        {
          "duration": 0.3499999999999943,
          "durationTicks": 154,
          "midi": 73,
          "name": "C#5",
          "ticks": 19496,
          "time": 44.30909090909091,
          "velocity": 1
        },
        {
          "duration": 0.3204545454545453,
          "durationTicks": 141,
          "midi": 70,
          "name": "A#4",
          "ticks": 19681,
          "time": 44.72954545454545,
          "velocity": 1
        },
        {
          "duration": 0.29999999999999716,
          "durationTicks": 132,
          "midi": 77,
          "name": "F5",
          "ticks": 20051,
          "time": 45.570454545454545,
          "velocity": 1
        },
        {
          "duration": 0.3681818181818173,
          "durationTicks": 162,
          "midi": 80,
          "name": "G#5",
          "ticks": 20236,
          "time": 45.99090909090909,
          "velocity": 1
        },
        {
          "duration": 0.4000000000000057,
          "durationTicks": 176,
          "midi": 77,
          "name": "F5",
          "ticks": 20403,
          "time": 46.37045454545454,
          "velocity": 1
        },
        {
          "duration": 0.3204545454545453,
          "durationTicks": 141,
          "midi": 77,
          "name": "F5",
          "ticks": 20583,
          "time": 46.779545454545456,
          "velocity": 1
        },
        {
          "duration": 0.5204545454545411,
          "durationTicks": 229,
          "midi": 70,
          "name": "A#4",
          "ticks": 20755,
          "time": 47.17045454545455,
          "velocity": 1
        },
        {
          "duration": 0.22954545454545894,
          "durationTicks": 101,
          "midi": 73,
          "name": "C#5",
          "ticks": 21001,
          "time": 47.72954545454545,
          "velocity": 1
        },
        {
          "duration": 0.3999999999999986,
          "durationTicks": 176,
          "midi": 70,
          "name": "A#4",
          "ticks": 21107,
          "time": 47.970454545454544,
          "velocity": 1
        },
        {
          "duration": 0.22954545454545894,
          "durationTicks": 101,
          "midi": 68,
          "name": "G#4",
          "ticks": 21283,
          "time": 48.37045454545454,
          "velocity": 1
        },
        {
          "duration": 0.07954545454545325,
          "durationTicks": 35,
          "midi": 67,
          "name": "G4",
          "ticks": 21380,
          "time": 48.59090909090909,
          "velocity": 1
        },
        {
          "duration": 0.23863636363635976,
          "durationTicks": 105,
          "midi": 65,
          "name": "F4",
          "ticks": 21459,
          "time": 48.77045454545455,
          "velocity": 1
        },
        {
          "duration": 0.1590909090909065,
          "durationTicks": 70,
          "midi": 68,
          "name": "G#4",
          "ticks": 21556,
          "time": 48.99090909090909,
          "velocity": 1
        },
        {
          "duration": 0.3999999999999986,
          "durationTicks": 176,
          "midi": 68,
          "name": "G#4",
          "ticks": 21648,
          "time": 49.2,
          "velocity": 1
        },
        {
          "duration": 0.5909090909090864,
          "durationTicks": 260,
          "midi": 65,
          "name": "F4",
          "ticks": 21824,
          "time": 49.6,
          "velocity": 1
        },
        {
          "duration": 0.11818181818182438,
          "durationTicks": 52,
          "midi": 65,
          "name": "F4",
          "ticks": 22084,
          "time": 50.19090909090909,
          "velocity": 1
        },
        {
          "duration": 0.42045454545454675,
          "durationTicks": 185,
          "midi": 63,
          "name": "D#4",
          "ticks": 22180,
          "time": 50.40909090909091,
          "velocity": 1
        },
        {
          "duration": 0.3704545454545496,
          "durationTicks": 163,
          "midi": 65,
          "name": "F4",
          "ticks": 22365,
          "time": 50.82954545454545,
          "velocity": 1
        },
        {
          "duration": 0.9704545454545439,
          "durationTicks": 427,
          "midi": 70,
          "name": "A#4",
          "ticks": 23879,
          "time": 54.27045454545455,
          "velocity": 1
        },
        {
          "duration": 0.04090909090908923,
          "durationTicks": 18,
          "midi": 73,
          "name": "C#5",
          "ticks": 24310,
          "time": 55.25,
          "velocity": 1
        },
        {
          "duration": 0.30000000000000426,
          "durationTicks": 132,
          "midi": 65,
          "name": "F4",
          "ticks": 24504,
          "time": 55.69090909090909,
          "velocity": 1
        },
        {
          "duration": 0.3999999999999986,
          "durationTicks": 176,
          "midi": 65,
          "name": "F4",
          "ticks": 24675,
          "time": 56.07954545454545,
          "velocity": 1
        },
        {
          "duration": 0.3204545454545453,
          "durationTicks": 141,
          "midi": 68,
          "name": "G#4",
          "ticks": 24851,
          "time": 56.47954545454545,
          "velocity": 1
        },
        {
          "duration": 0.5409090909090963,
          "durationTicks": 238,
          "midi": 70,
          "name": "A#4",
          "ticks": 24992,
          "time": 56.8,
          "velocity": 1
        },
        {
          "duration": 0.3113636363636374,
          "durationTicks": 137,
          "midi": 80,
          "name": "G#5",
          "ticks": 25568,
          "time": 58.10909090909091,
          "velocity": 1
        },
        {
          "duration": 0.32954545454545325,
          "durationTicks": 145,
          "midi": 77,
          "name": "F5",
          "ticks": 25753,
          "time": 58.529545454545456,
          "velocity": 1
        },
        {
          "duration": 0.4704545454545439,
          "durationTicks": 207,
          "midi": 77,
          "name": "F5",
          "ticks": 25925,
          "time": 58.92045454545455,
          "velocity": 1
        },
        {
          "duration": 0.38863636363636545,
          "durationTicks": 171,
          "midi": 63,
          "name": "D#4",
          "ticks": 26286,
          "time": 59.74090909090909,
          "velocity": 1
        },
        {
          "duration": 0.6090909090909093,
          "durationTicks": 268,
          "midi": 70,
          "name": "A#4",
          "ticks": 26453,
          "time": 60.12045454545454,
          "velocity": 1
        },
        {
          "duration": 0.12954545454545752,
          "durationTicks": 57,
          "midi": 72,
          "name": "C5",
          "ticks": 26730,
          "time": 60.75,
          "velocity": 1
        },
        {
          "duration": 0.29999999999999716,
          "durationTicks": 132,
          "midi": 70,
          "name": "A#4",
          "ticks": 26818,
          "time": 60.95,
          "velocity": 1
        },
        {
          "duration": 0.32954545454545325,
          "durationTicks": 145,
          "midi": 68,
          "name": "G#4",
          "ticks": 26981,
          "time": 61.320454545454545,
          "velocity": 1
        },
        {
          "duration": 0.4295454545454547,
          "durationTicks": 189,
          "midi": 65,
          "name": "F4",
          "ticks": 27170,
          "time": 61.75,
          "velocity": 1
        },
        {
          "duration": 0.4000000000000057,
          "durationTicks": 176,
          "midi": 68,
          "name": "G#4",
          "ticks": 27350,
          "time": 62.15909090909091,
          "velocity": 1
        },
        {
          "duration": 0.3204545454545453,
          "durationTicks": 141,
          "midi": 65,
          "name": "F4",
          "ticks": 27531,
          "time": 62.570454545454545,
          "velocity": 1
        },
        {
          "duration": 0.009090909090907928,
          "durationTicks": 4,
          "midi": 65,
          "name": "F4",
          "ticks": 27698,
          "time": 62.95,
          "velocity": 1
        },
        {
          "duration": 0.011363636363633134,
          "durationTicks": 5,
          "midi": 65,
          "name": "F4",
          "ticks": 27777,
          "time": 63.12954545454546,
          "velocity": 1
        },
        {
          "duration": 0.11818181818181728,
          "durationTicks": 52,
          "midi": 65,
          "name": "F4",
          "ticks": 27782,
          "time": 63.14090909090909,
          "velocity": 1
        },
        {
          "duration": 0.42045454545454675,
          "durationTicks": 185,
          "midi": 63,
          "name": "D#4",
          "ticks": 27883,
          "time": 63.37045454545454,
          "velocity": 1
        },
        {
          "duration": 0.42045454545454675,
          "durationTicks": 185,
          "midi": 65,
          "name": "F4",
          "ticks": 28050,
          "time": 63.75,
          "velocity": 1
        },
        {
          "duration": 0.07954545454546036,
          "durationTicks": 35,
          "midi": 63,
          "name": "D#4",
          "ticks": 28072,
          "time": 63.8,
          "velocity": 1
        },
        {
          "duration": 0.22954545454545894,
          "durationTicks": 101,
          "midi": 68,
          "name": "G#4",
          "ticks": 28239,
          "time": 64.17954545454545,
          "velocity": 1
        },
        {
          "duration": 0.29999999999999716,
          "durationTicks": 132,
          "midi": 61,
          "name": "C#4",
          "ticks": 28244,
          "time": 64.19090909090909,
          "velocity": 1
        },
        {
          "duration": 0.040909090909096335,
          "durationTicks": 18,
          "midi": 65,
          "name": "F4",
          "ticks": 28340,
          "time": 64.4090909090909,
          "velocity": 1
        },
        {
          "duration": 0.029545454545456096,
          "durationTicks": 13,
          "midi": 63,
          "name": "D#4",
          "ticks": 28358,
          "time": 64.45,
          "velocity": 1
        },
        {
          "duration": 0.018181818181830067,
          "durationTicks": 8,
          "midi": 61,
          "name": "C#4",
          "ticks": 28376,
          "time": 64.49090909090908,
          "velocity": 1
        },
        {
          "duration": 0.42954545454544757,
          "durationTicks": 189,
          "midi": 61,
          "name": "C#4",
          "ticks": 28411,
          "time": 64.57045454545455,
          "velocity": 1
        },
        {
          "duration": 0.20909090909090366,
          "durationTicks": 92,
          "midi": 63,
          "name": "D#4",
          "ticks": 28600,
          "time": 65,
          "velocity": 1
        },
        {
          "duration": 0.32045454545455243,
          "durationTicks": 141,
          "midi": 65,
          "name": "F4",
          "ticks": 28692,
          "time": 65.2090909090909,
          "velocity": 1
        },
        {
          "duration": 0.20909090909090366,
          "durationTicks": 92,
          "midi": 61,
          "name": "C#4",
          "ticks": 28961,
          "time": 65.82045454545455,
          "velocity": 1
        },
        {
          "duration": 0.21136363636362887,
          "durationTicks": 93,
          "midi": 58,
          "name": "A#3",
          "ticks": 29053,
          "time": 66.02954545454546,
          "velocity": 1
        },
        {
          "duration": 0.3999999999999915,
          "durationTicks": 176,
          "midi": 56,
          "name": "G#3",
          "ticks": 29141,
          "time": 66.22954545454546,
          "velocity": 1
        },
        {
          "duration": 0.4000000000000057,
          "durationTicks": 176,
          "midi": 56,
          "name": "G#3",
          "ticks": 29317,
          "time": 66.62954545454545,
          "velocity": 1
        },
        {
          "duration": 0.22954545454545894,
          "durationTicks": 101,
          "midi": 53,
          "name": "F3",
          "ticks": 29489,
          "time": 67.02045454545454,
          "velocity": 1
        },
        {
          "duration": 0.2204545454545439,
          "durationTicks": 97,
          "midi": 58,
          "name": "A#3",
          "ticks": 29581,
          "time": 67.22954545454546,
          "velocity": 1
        },
        {
          "duration": 0.13863636363636545,
          "durationTicks": 61,
          "midi": 61,
          "name": "C#4",
          "ticks": 29674,
          "time": 67.44090909090909,
          "velocity": 1
        },
        {
          "duration": 0.3409090909090935,
          "durationTicks": 150,
          "midi": 77,
          "name": "F5",
          "ticks": 30386,
          "time": 69.05909090909091,
          "velocity": 1
        },
        {
          "duration": 0.1886363636363626,
          "durationTicks": 83,
          "midi": 77,
          "name": "F5",
          "ticks": 30554,
          "time": 69.44090909090909,
          "velocity": 1
        },
        {
          "duration": 0.42045454545454675,
          "durationTicks": 185,
          "midi": 46,
          "name": "A#2",
          "ticks": 30747,
          "time": 69.87954545454545,
          "velocity": 1
        },
        {
          "duration": 0.45000000000000284,
          "durationTicks": 198,
          "midi": 53,
          "name": "F3",
          "ticks": 30923,
          "time": 70.27954545454546,
          "velocity": 1
        },
        {
          "duration": 0.4090909090909065,
          "durationTicks": 180,
          "midi": 58,
          "name": "A#3",
          "ticks": 31104,
          "time": 70.69090909090909,
          "velocity": 1
        },
        {
          "duration": 0.2181818181818187,
          "durationTicks": 96,
          "midi": 56,
          "name": "G#3",
          "ticks": 31280,
          "time": 71.0909090909091,
          "velocity": 1
        },
        {
          "duration": 0.20909090909091788,
          "durationTicks": 92,
          "midi": 53,
          "name": "F3",
          "ticks": 31372,
          "time": 71.3,
          "velocity": 1
        },
        {
          "duration": 0.42045454545454675,
          "durationTicks": 185,
          "midi": 77,
          "name": "F5",
          "ticks": 31816,
          "time": 72.30909090909091,
          "velocity": 1
        },
        {
          "duration": 0.4000000000000057,
          "durationTicks": 176,
          "midi": 77,
          "name": "F5",
          "ticks": 32006,
          "time": 72.74090909090908,
          "velocity": 1
        },
        {
          "duration": 0.5795454545454533,
          "durationTicks": 255,
          "midi": 82,
          "name": "A#5",
          "ticks": 32182,
          "time": 73.14090909090909,
          "velocity": 1
        },
        {
          "duration": 0.35909090909090935,
          "durationTicks": 158,
          "midi": 70,
          "name": "A#4",
          "ticks": 32525,
          "time": 73.92045454545455,
          "velocity": 1
        },
        {
          "duration": 0.26818181818181586,
          "durationTicks": 118,
          "midi": 68,
          "name": "G#4",
          "ticks": 32710,
          "time": 74.3409090909091,
          "velocity": 1
        },
        {
          "duration": 0.26136363636364024,
          "durationTicks": 115,
          "midi": 65,
          "name": "F4",
          "ticks": 32903,
          "time": 74.77954545454546,
          "velocity": 1
        },
        {
          "duration": 0.39090909090910486,
          "durationTicks": 172,
          "midi": 65,
          "name": "F4",
          "ticks": 33079,
          "time": 75.17954545454545,
          "velocity": 1
        },
        {
          "duration": 0.19999999999998863,
          "durationTicks": 88,
          "midi": 65,
          "name": "F4",
          "ticks": 33251,
          "time": 75.57045454545455,
          "velocity": 1
        },
        {
          "duration": 0.2181818181818187,
          "durationTicks": 96,
          "midi": 61,
          "name": "C#4",
          "ticks": 35394,
          "time": 80.44090909090909,
          "velocity": 1
        },
        {
          "duration": 0.29999999999999716,
          "durationTicks": 132,
          "midi": 68,
          "name": "G#4",
          "ticks": 35913,
          "time": 81.62045454545455,
          "velocity": 1
        },
        {
          "duration": 0.2886363636363569,
          "durationTicks": 127,
          "midi": 65,
          "name": "F4",
          "ticks": 36111,
          "time": 82.07045454545455,
          "velocity": 1
        },
        {
          "duration": 0.23863636363635976,
          "durationTicks": 105,
          "midi": 65,
          "name": "F4",
          "ticks": 36274,
          "time": 82.44090909090909,
          "velocity": 1
        },
        {
          "duration": 0.08863636363636829,
          "durationTicks": 39,
          "midi": 68,
          "name": "G#4",
          "ticks": 36375,
          "time": 82.67045454545455,
          "velocity": 1
        },
        {
          "duration": 0.0613636363636374,
          "durationTicks": 27,
          "midi": 70,
          "name": "A#4",
          "ticks": 36458,
          "time": 82.85909090909091,
          "velocity": 1
        },
        {
          "duration": 1.1500000000000057,
          "durationTicks": 506,
          "midi": 70,
          "name": "A#4",
          "ticks": 36485,
          "time": 82.92045454545455,
          "velocity": 1
        },
        {
          "duration": 0.3795454545454504,
          "durationTicks": 167,
          "midi": 68,
          "name": "G#4",
          "ticks": 36995,
          "time": 84.07954545454545,
          "velocity": 1
        },
        {
          "duration": 0.21136363636364308,
          "durationTicks": 93,
          "midi": 65,
          "name": "F4",
          "ticks": 37162,
          "time": 84.4590909090909,
          "velocity": 1
        },
        {
          "duration": 1.3295454545454675,
          "durationTicks": 585,
          "midi": 44,
          "name": "G#2",
          "ticks": 37259,
          "time": 84.67954545454545,
          "velocity": 1
        },
        {
          "duration": 0.04999999999999716,
          "durationTicks": 22,
          "midi": 68,
          "name": "G#4",
          "ticks": 37330,
          "time": 84.8409090909091,
          "velocity": 1
        },
        {
          "duration": 0.4000000000000057,
          "durationTicks": 176,
          "midi": 75,
          "name": "D#5",
          "ticks": 37352,
          "time": 84.89090909090909,
          "velocity": 1
        },
        {
          "duration": 0.38863636363635123,
          "durationTicks": 171,
          "midi": 77,
          "name": "F5",
          "ticks": 37528,
          "time": 85.2909090909091,
          "velocity": 1
        },
        {
          "duration": 0.32954545454546746,
          "durationTicks": 145,
          "midi": 75,
          "name": "D#5",
          "ticks": 37699,
          "time": 85.67954545454545,
          "velocity": 1
        },
        {
          "duration": 0.2795454545454561,
          "durationTicks": 123,
          "midi": 70,
          "name": "A#4",
          "ticks": 38254,
          "time": 86.94090909090909,
          "velocity": 1
        },
        {
          "duration": 0.35909090909089514,
          "durationTicks": 158,
          "midi": 68,
          "name": "G#4",
          "ticks": 38421,
          "time": 87.32045454545455,
          "velocity": 1
        },
        {
          "duration": 0.3181818181818272,
          "durationTicks": 140,
          "midi": 65,
          "name": "F4",
          "ticks": 38606,
          "time": 87.74090909090908,
          "velocity": 1
        },
        {
          "duration": 0.3499999999999943,
          "durationTicks": 154,
          "midi": 68,
          "name": "G#4",
          "ticks": 38768,
          "time": 88.10909090909091,
          "velocity": 1
        },
        {
          "duration": 0.4000000000000057,
          "durationTicks": 176,
          "midi": 68,
          "name": "G#4",
          "ticks": 38949,
          "time": 88.52045454545454,
          "velocity": 1
        },
        {
          "duration": 0.32954545454545325,
          "durationTicks": 145,
          "midi": 65,
          "name": "F4",
          "ticks": 38962,
          "time": 88.55,
          "velocity": 1
        },
        {
          "duration": 0.7795454545454561,
          "durationTicks": 343,
          "midi": 63,
          "name": "D#4",
          "ticks": 39305,
          "time": 89.32954545454545,
          "velocity": 1
        },
        {
          "duration": 0.38181818181818983,
          "durationTicks": 168,
          "midi": 63,
          "name": "D#4",
          "ticks": 39670,
          "time": 90.1590909090909,
          "velocity": 1
        },
        {
          "duration": 0.1909090909090878,
          "durationTicks": 84,
          "midi": 61,
          "name": "C#4",
          "ticks": 39833,
          "time": 90.52954545454546,
          "velocity": 1
        },
        {
          "duration": 0.6295454545454504,
          "durationTicks": 277,
          "midi": 61,
          "name": "C#4",
          "ticks": 39921,
          "time": 90.72954545454546,
          "velocity": 1
        },
        {
          "duration": 0.39090909090909065,
          "durationTicks": 172,
          "midi": 61,
          "name": "C#4",
          "ticks": 40374,
          "time": 91.75909090909092,
          "velocity": 1
        },
        {
          "duration": 1.6295454545454504,
          "durationTicks": 717,
          "midi": 73,
          "name": "C#5",
          "ticks": 40731,
          "time": 92.57045454545455,
          "velocity": 1
        },
        {
          "duration": 2.020454545454541,
          "durationTicks": 889,
          "midi": 61,
          "name": "C#4",
          "ticks": 41461,
          "time": 94.22954545454546,
          "velocity": 1
        },
        {
          "duration": 1.2590909090909008,
          "durationTicks": 554,
          "midi": 46,
          "name": "A#2",
          "ticks": 43600,
          "time": 99.0909090909091,
          "velocity": 1
        },
        {
          "duration": 0.5704545454545524,
          "durationTicks": 251,
          "midi": 73,
          "name": "C#5",
          "ticks": 47507,
          "time": 107.97045454545454,
          "velocity": 1
        },
        {
          "duration": 0.4090909090909065,
          "durationTicks": 180,
          "midi": 63,
          "name": "D#4",
          "ticks": 48849,
          "time": 111.02045454545454,
          "velocity": 1
        },
        {
          "duration": 0.42045454545454675,
          "durationTicks": 185,
          "midi": 63,
          "name": "D#4",
          "ticks": 49302,
          "time": 112.05,
          "velocity": 1
        },
        {
          "duration": 0.17954545454544757,
          "durationTicks": 79,
          "midi": 65,
          "name": "F4",
          "ticks": 49478,
          "time": 112.45,
          "velocity": 1
        },
        {
          "duration": 0.06818181818181301,
          "durationTicks": 30,
          "midi": 73,
          "name": "C#5",
          "ticks": 49562,
          "time": 112.64090909090909,
          "velocity": 1
        },
        {
          "duration": 0.5886363636363541,
          "durationTicks": 259,
          "midi": 73,
          "name": "C#5",
          "ticks": 49650,
          "time": 112.8409090909091,
          "velocity": 1
        },
        {
          "duration": 0.2204545454545439,
          "durationTicks": 97,
          "midi": 73,
          "name": "C#5",
          "ticks": 50006,
          "time": 113.65,
          "velocity": 1
        },
        {
          "duration": 0.2204545454545439,
          "durationTicks": 97,
          "midi": 72,
          "name": "C5",
          "ticks": 50103,
          "time": 113.87045454545455,
          "velocity": 1
        },
        {
          "duration": 0.1886363636363626,
          "durationTicks": 83,
          "midi": 68,
          "name": "G#4",
          "ticks": 50200,
          "time": 114.0909090909091,
          "velocity": 1
        },
        {
          "duration": 0.1909090909090878,
          "durationTicks": 84,
          "midi": 70,
          "name": "A#4",
          "ticks": 50283,
          "time": 114.27954545454546,
          "velocity": 1
        },
        {
          "duration": 0.20000000000000284,
          "durationTicks": 88,
          "midi": 68,
          "name": "G#4",
          "ticks": 50367,
          "time": 114.47045454545454,
          "velocity": 1
        },
        {
          "duration": 0.009090909090900823,
          "durationTicks": 4,
          "midi": 70,
          "name": "A#4",
          "ticks": 50455,
          "time": 114.67045454545455,
          "velocity": 1
        },
        {
          "duration": 0.21136363636362887,
          "durationTicks": 93,
          "midi": 56,
          "name": "G#3",
          "ticks": 50723,
          "time": 115.27954545454546,
          "velocity": 1
        },
        {
          "duration": 0.10000000000000853,
          "durationTicks": 44,
          "midi": 61,
          "name": "C#4",
          "ticks": 50904,
          "time": 115.69090909090909,
          "velocity": 1
        },
        {
          "duration": 0.309090909090898,
          "durationTicks": 136,
          "midi": 61,
          "name": "C#4",
          "ticks": 50983,
          "time": 115.87045454545455,
          "velocity": 1
        },
        {
          "duration": 0.25,
          "durationTicks": 110,
          "midi": 58,
          "name": "A#3",
          "ticks": 51251,
          "time": 116.47954545454546,
          "velocity": 1
        },
        {
          "duration": 0.2204545454545439,
          "durationTicks": 97,
          "midi": 73,
          "name": "C#5",
          "ticks": 51436,
          "time": 116.9,
          "velocity": 1
        },
        {
          "duration": 0.12045454545454959,
          "durationTicks": 53,
          "midi": 68,
          "name": "G#4",
          "ticks": 51555,
          "time": 117.17045454545455,
          "velocity": 1
        },
        {
          "duration": 0.24090909090909918,
          "durationTicks": 106,
          "midi": 75,
          "name": "D#5",
          "ticks": 51682,
          "time": 117.4590909090909,
          "velocity": 1
        },
        {
          "duration": 0.4000000000000057,
          "durationTicks": 176,
          "midi": 77,
          "name": "F5",
          "ticks": 51792,
          "time": 117.7090909090909,
          "velocity": 1
        },
        {
          "duration": 0.1295454545454504,
          "durationTicks": 57,
          "midi": 80,
          "name": "G#5",
          "ticks": 52316,
          "time": 118.9,
          "velocity": 1
        },
        {
          "duration": 0.04999999999999716,
          "durationTicks": 22,
          "midi": 77,
          "name": "F5",
          "ticks": 52417,
          "time": 119.12954545454545,
          "velocity": 1
        },
        {
          "duration": 0.4704545454545439,
          "durationTicks": 207,
          "midi": 82,
          "name": "A#5",
          "ticks": 52505,
          "time": 119.32954545454545,
          "velocity": 1
        },
        {
          "duration": 0.029545454545456096,
          "durationTicks": 13,
          "midi": 75,
          "name": "D#5",
          "ticks": 52884,
          "time": 120.19090909090909,
          "velocity": 1
        },
        {
          "duration": 0.20909090909090366,
          "durationTicks": 92,
          "midi": 75,
          "name": "D#5",
          "ticks": 52972,
          "time": 120.39090909090909,
          "velocity": 1
        },
        {
          "duration": 0.04999999999999716,
          "durationTicks": 22,
          "midi": 77,
          "name": "F5",
          "ticks": 53143,
          "time": 120.77954545454546,
          "velocity": 1
        },
        {
          "duration": 0.17954545454544757,
          "durationTicks": 79,
          "midi": 77,
          "name": "F5",
          "ticks": 53328,
          "time": 121.2,
          "velocity": 1
        },
        {
          "duration": 0.19090909090910202,
          "durationTicks": 84,
          "midi": 75,
          "name": "D#5",
          "ticks": 53407,
          "time": 121.37954545454545,
          "velocity": 1
        },
        {
          "duration": 0.1886363636363626,
          "durationTicks": 83,
          "midi": 73,
          "name": "C#5",
          "ticks": 53491,
          "time": 121.57045454545455,
          "velocity": 1
        },
        {
          "duration": 0.25,
          "durationTicks": 110,
          "midi": 68,
          "name": "G#4",
          "ticks": 53574,
          "time": 121.75909090909092,
          "velocity": 1
        },
        {
          "duration": 0.1909090909090878,
          "durationTicks": 84,
          "midi": 70,
          "name": "A#4",
          "ticks": 53684,
          "time": 122.00909090909092,
          "velocity": 1
        },
        {
          "duration": 0.20909090909090366,
          "durationTicks": 92,
          "midi": 75,
          "name": "D#5",
          "ticks": 53755,
          "time": 122.17045454545455,
          "velocity": 1
        },
        {
          "duration": 0.17954545454546178,
          "durationTicks": 79,
          "midi": 71,
          "name": "B4",
          "ticks": 53847,
          "time": 122.37954545454545,
          "velocity": 1
        },
        {
          "duration": 0.3113636363636374,
          "durationTicks": 137,
          "midi": 73,
          "name": "C#5",
          "ticks": 53926,
          "time": 122.55909090909091,
          "velocity": 1
        },
        {
          "duration": 0.1295454545454504,
          "durationTicks": 57,
          "midi": 68,
          "name": "G#4",
          "ticks": 55893,
          "time": 127.02954545454546,
          "velocity": 1
        },
        {
          "duration": 0.3999999999999915,
          "durationTicks": 176,
          "midi": 75,
          "name": "D#5",
          "ticks": 56078,
          "time": 127.45,
          "velocity": 1
        },
        {
          "duration": 1.1409090909091049,
          "durationTicks": 502,
          "midi": 73,
          "name": "C#5",
          "ticks": 56267,
          "time": 127.87954545454545,
          "velocity": 1
        },
        {
          "duration": 0.4113636363636317,
          "durationTicks": 181,
          "midi": 68,
          "name": "G#4",
          "ticks": 56786,
          "time": 129.0590909090909,
          "velocity": 1
        },
        {
          "duration": 0.5295454545454561,
          "durationTicks": 233,
          "midi": 75,
          "name": "D#5",
          "ticks": 56976,
          "time": 129.4909090909091,
          "velocity": 1
        },
        {
          "duration": 0.46136363636361466,
          "durationTicks": 203,
          "midi": 73,
          "name": "C#5",
          "ticks": 57235,
          "time": 130.07954545454547,
          "velocity": 1
        },
        {
          "duration": 0.018181818181830067,
          "durationTicks": 8,
          "midi": 73,
          "name": "C#5",
          "ticks": 57438,
          "time": 130.54090909090908,
          "velocity": 1
        },
        {
          "duration": 0.2204545454545439,
          "durationTicks": 97,
          "midi": 73,
          "name": "C#5",
          "ticks": 57508,
          "time": 130.7,
          "velocity": 1
        },
        {
          "duration": 0.5795454545454675,
          "durationTicks": 255,
          "midi": 51,
          "name": "D#3",
          "ticks": 57860,
          "time": 131.5,
          "velocity": 1
        },
        {
          "duration": 0.20000000000001705,
          "durationTicks": 88,
          "midi": 73,
          "name": "C#5",
          "ticks": 58758,
          "time": 133.54090909090908,
          "velocity": 1
        },
        {
          "duration": 0.20909090909088945,
          "durationTicks": 92,
          "midi": 73,
          "name": "C#5",
          "ticks": 58846,
          "time": 133.7409090909091,
          "velocity": 1
        },
        {
          "duration": 0.19090909090911623,
          "durationTicks": 84,
          "midi": 68,
          "name": "G#4",
          "ticks": 58938,
          "time": 133.95,
          "velocity": 1
        },
        {
          "duration": 0.19999999999998863,
          "durationTicks": 88,
          "midi": 73,
          "name": "C#5",
          "ticks": 59022,
          "time": 134.1409090909091,
          "velocity": 1
        },
        {
          "duration": 0.2181818181818187,
          "durationTicks": 96,
          "midi": 73,
          "name": "C#5",
          "ticks": 59110,
          "time": 134.3409090909091,
          "velocity": 1
        },
        {
          "duration": 0.7909090909090821,
          "durationTicks": 348,
          "midi": 73,
          "name": "C#5",
          "ticks": 59206,
          "time": 134.5590909090909,
          "velocity": 1
        },
        {
          "duration": 0.20909090909091788,
          "durationTicks": 92,
          "midi": 75,
          "name": "D#5",
          "ticks": 59554,
          "time": 135.35,
          "velocity": 1
        },
        {
          "duration": 0.6204545454545212,
          "durationTicks": 273,
          "midi": 77,
          "name": "F5",
          "ticks": 59642,
          "time": 135.55,
          "velocity": 1
        },
        {
          "duration": 0.15000000000000568,
          "durationTicks": 66,
          "midi": 75,
          "name": "D#5",
          "ticks": 59910,
          "time": 136.1590909090909,
          "velocity": 1
        },
        {
          "duration": 0.4295454545454618,
          "durationTicks": 189,
          "midi": 77,
          "name": "F5",
          "ticks": 59994,
          "time": 136.35,
          "velocity": 1
        },
        {
          "duration": 0.4386363636363626,
          "durationTicks": 193,
          "midi": 80,
          "name": "G#5",
          "ticks": 60179,
          "time": 136.77045454545456,
          "velocity": 1
        },
        {
          "duration": 0.3795454545454504,
          "durationTicks": 167,
          "midi": 70,
          "name": "A#4",
          "ticks": 60711,
          "time": 137.97954545454544,
          "velocity": 1
        },
        {
          "duration": 0.21818181818179028,
          "durationTicks": 96,
          "midi": 73,
          "name": "C#5",
          "ticks": 60892,
          "time": 138.3909090909091,
          "velocity": 1
        },
        {
          "duration": 0.1295454545454504,
          "durationTicks": 57,
          "midi": 72,
          "name": "C5",
          "ticks": 60980,
          "time": 138.5909090909091,
          "velocity": 1
        },
        {
          "duration": 0.4295454545454618,
          "durationTicks": 189,
          "midi": 70,
          "name": "A#4",
          "ticks": 61068,
          "time": 138.79090909090908,
          "velocity": 1
        },
        {
          "duration": 0.029545454545456096,
          "durationTicks": 13,
          "midi": 68,
          "name": "G#4",
          "ticks": 61261,
          "time": 139.22954545454544,
          "velocity": 1
        },
        {
          "duration": 0.33181818181819267,
          "durationTicks": 146,
          "midi": 77,
          "name": "F5",
          "ticks": 61428,
          "time": 139.6090909090909,
          "velocity": 1
        },
        {
          "duration": 0.3409090909090935,
          "durationTicks": 150,
          "midi": 80,
          "name": "G#5",
          "ticks": 61626,
          "time": 140.0590909090909,
          "velocity": 1
        },
        {
          "duration": 0.42045454545456096,
          "durationTicks": 185,
          "midi": 77,
          "name": "F5",
          "ticks": 61785,
          "time": 140.42045454545453,
          "velocity": 1
        },
        {
          "duration": 0.8204545454545382,
          "durationTicks": 361,
          "midi": 82,
          "name": "A#5",
          "ticks": 62137,
          "time": 141.22045454545454,
          "velocity": 1
        },
        {
          "duration": 0.41818181818183575,
          "durationTicks": 184,
          "midi": 82,
          "name": "A#5",
          "ticks": 62498,
          "time": 142.04090909090908,
          "velocity": 1
        },
        {
          "duration": 0.41818181818183575,
          "durationTicks": 184,
          "midi": 94,
          "name": "A#6",
          "ticks": 62498,
          "time": 142.04090909090908,
          "velocity": 1
        },
        {
          "duration": 0.1909090909090878,
          "durationTicks": 84,
          "midi": 80,
          "name": "G#5",
          "ticks": 62682,
          "time": 142.45909090909092,
          "velocity": 1
        },
        {
          "duration": 0.1909090909090878,
          "durationTicks": 84,
          "midi": 92,
          "name": "G#6",
          "ticks": 62682,
          "time": 142.45909090909092,
          "velocity": 1
        },
        {
          "duration": 0.09090909090909349,
          "durationTicks": 40,
          "midi": 79,
          "name": "G5",
          "ticks": 62766,
          "time": 142.65,
          "velocity": 1
        },
        {
          "duration": 0.09090909090909349,
          "durationTicks": 40,
          "midi": 91,
          "name": "G6",
          "ticks": 62766,
          "time": 142.65,
          "velocity": 1
        },
        {
          "duration": 0.09999999999999432,
          "durationTicks": 44,
          "midi": 77,
          "name": "F5",
          "ticks": 62806,
          "time": 142.7409090909091,
          "velocity": 1
        },
        {
          "duration": 0.09999999999999432,
          "durationTicks": 44,
          "midi": 89,
          "name": "F6",
          "ticks": 62806,
          "time": 142.7409090909091,
          "velocity": 1
        },
        {
          "duration": 0.4090909090909065,
          "durationTicks": 180,
          "midi": 77,
          "name": "F5",
          "ticks": 62850,
          "time": 142.8409090909091,
          "velocity": 1
        },
        {
          "duration": 0.4090909090909065,
          "durationTicks": 180,
          "midi": 89,
          "name": "F6",
          "ticks": 62850,
          "time": 142.8409090909091,
          "velocity": 1
        },
        {
          "duration": 0.10909090909089514,
          "durationTicks": 48,
          "midi": 80,
          "name": "G#5",
          "ticks": 63030,
          "time": 143.25,
          "velocity": 1
        },
        {
          "duration": 0.10909090909089514,
          "durationTicks": 48,
          "midi": 92,
          "name": "G#6",
          "ticks": 63030,
          "time": 143.25,
          "velocity": 1
        },
        {
          "duration": 0.568181818181813,
          "durationTicks": 250,
          "midi": 77,
          "name": "F5",
          "ticks": 63224,
          "time": 143.6909090909091,
          "velocity": 1
        },
        {
          "duration": 0.21136363636364308,
          "durationTicks": 93,
          "midi": 77,
          "name": "F5",
          "ticks": 63474,
          "time": 144.2590909090909,
          "velocity": 1
        },
        {
          "duration": 0.7704545454545553,
          "durationTicks": 339,
          "midi": 75,
          "name": "D#5",
          "ticks": 63567,
          "time": 144.47045454545454,
          "velocity": 1
        },
        {
          "duration": 0.12045454545454959,
          "durationTicks": 53,
          "midi": 80,
          "name": "G#5",
          "ticks": 63923,
          "time": 145.27954545454546,
          "velocity": 1
        },
        {
          "duration": 0.5590909090909122,
          "durationTicks": 246,
          "midi": 68,
          "name": "G#4",
          "ticks": 64988,
          "time": 147.7,
          "velocity": 1
        },
        {
          "duration": 0.1295454545454504,
          "durationTicks": 57,
          "midi": 70,
          "name": "A#4",
          "ticks": 65261,
          "time": 148.32045454545454,
          "velocity": 1
        },
        {
          "duration": 0.7795454545454561,
          "durationTicks": 343,
          "midi": 73,
          "name": "C#5",
          "ticks": 65349,
          "time": 148.52045454545456,
          "velocity": 1
        },
        {
          "duration": 0.3499999999999943,
          "durationTicks": 154,
          "midi": 73,
          "name": "C#5",
          "ticks": 65696,
          "time": 149.3090909090909,
          "velocity": 1
        },
        {
          "duration": 0.3409090909090935,
          "durationTicks": 150,
          "midi": 77,
          "name": "F5",
          "ticks": 65881,
          "time": 149.72954545454544,
          "velocity": 1
        },
        {
          "duration": 0.44090909090911623,
          "durationTicks": 194,
          "midi": 77,
          "name": "F5",
          "ticks": 66048,
          "time": 150.1090909090909,
          "velocity": 1
        },
        {
          "duration": 0.3090909090909122,
          "durationTicks": 136,
          "midi": 70,
          "name": "A#4",
          "ticks": 66383,
          "time": 150.87045454545455,
          "velocity": 1
        },
        {
          "duration": 0.17954545454546178,
          "durationTicks": 79,
          "midi": 73,
          "name": "C#5",
          "ticks": 66603,
          "time": 151.37045454545455,
          "velocity": 1
        },
        {
          "duration": 0.4000000000000057,
          "durationTicks": 176,
          "midi": 77,
          "name": "F5",
          "ticks": 67140,
          "time": 152.5909090909091,
          "velocity": 1
        },
        {
          "duration": 0.42954545454543336,
          "durationTicks": 189,
          "midi": 80,
          "name": "G#5",
          "ticks": 67316,
          "time": 152.9909090909091,
          "velocity": 1
        },
        {
          "duration": 0.17045454545456096,
          "durationTicks": 75,
          "midi": 77,
          "name": "F5",
          "ticks": 67505,
          "time": 153.42045454545453,
          "velocity": 1
        },
        {
          "duration": 0.32954545454543904,
          "durationTicks": 145,
          "midi": 63,
          "name": "D#4",
          "ticks": 67672,
          "time": 153.8,
          "velocity": 1
        },
        {
          "duration": 0.6386363636363512,
          "durationTicks": 281,
          "midi": 70,
          "name": "A#4",
          "ticks": 67822,
          "time": 154.1409090909091,
          "velocity": 1
        },
        {
          "duration": 0.23863636363637397,
          "durationTicks": 105,
          "midi": 72,
          "name": "C5",
          "ticks": 68108,
          "time": 154.79090909090908,
          "velocity": 1
        },
        {
          "duration": 0.3795454545454504,
          "durationTicks": 167,
          "midi": 70,
          "name": "A#4",
          "ticks": 68200,
          "time": 155,
          "velocity": 1
        },
        {
          "duration": 0.2704545454545553,
          "durationTicks": 119,
          "midi": 68,
          "name": "G#4",
          "ticks": 68363,
          "time": 155.37045454545455,
          "velocity": 1
        },
        {
          "duration": 0.32954545454543904,
          "durationTicks": 145,
          "midi": 65,
          "name": "F4",
          "ticks": 68565,
          "time": 155.82954545454547,
          "velocity": 1
        },
        {
          "duration": 0.3386363636363683,
          "durationTicks": 149,
          "midi": 65,
          "name": "F4",
          "ticks": 68737,
          "time": 156.22045454545454,
          "velocity": 1
        },
        {
          "duration": 0.30000000000001137,
          "durationTicks": 132,
          "midi": 65,
          "name": "F4",
          "ticks": 68930,
          "time": 156.6590909090909,
          "velocity": 1
        },
        {
          "duration": 0.12045454545454959,
          "durationTicks": 53,
          "midi": 65,
          "name": "F4",
          "ticks": 69168,
          "time": 157.2,
          "velocity": 1
        },
        {
          "duration": 0.26136363636362603,
          "durationTicks": 115,
          "midi": 63,
          "name": "D#4",
          "ticks": 69269,
          "time": 157.42954545454546,
          "velocity": 1
        },
        {
          "duration": 0.2590909090909008,
          "durationTicks": 114,
          "midi": 77,
          "name": "F5",
          "ticks": 69507,
          "time": 157.97045454545454,
          "velocity": 1
        },
        {
          "duration": 0.26818181818180165,
          "durationTicks": 118,
          "midi": 80,
          "name": "G#5",
          "ticks": 69626,
          "time": 158.2409090909091,
          "velocity": 1
        },
        {
          "duration": 0.09090909090909349,
          "durationTicks": 40,
          "midi": 73,
          "name": "C#5",
          "ticks": 69744,
          "time": 158.5090909090909,
          "velocity": 1
        },
        {
          "duration": 0.4090909090909065,
          "durationTicks": 180,
          "midi": 73,
          "name": "C#5",
          "ticks": 69806,
          "time": 158.65,
          "velocity": 1
        },
        {
          "duration": 0.670454545454561,
          "durationTicks": 295,
          "midi": 75,
          "name": "D#5",
          "ticks": 69991,
          "time": 159.07045454545454,
          "velocity": 1
        },
        {
          "duration": 0.20000000000001705,
          "durationTicks": 88,
          "midi": 61,
          "name": "C#4",
          "ticks": 70347,
          "time": 159.87954545454545,
          "velocity": 1
        },
        {
          "duration": 0.13181818181817562,
          "durationTicks": 58,
          "midi": 63,
          "name": "D#4",
          "ticks": 70360,
          "time": 159.9090909090909,
          "velocity": 1
        },
        {
          "duration": 0.1909090909090878,
          "durationTicks": 84,
          "midi": 58,
          "name": "A#3",
          "ticks": 70435,
          "time": 160.07954545454547,
          "velocity": 1
        },
        {
          "duration": 0.17954545454546178,
          "durationTicks": 79,
          "midi": 63,
          "name": "D#4",
          "ticks": 70528,
          "time": 160.29090909090908,
          "velocity": 1
        },
        {
          "duration": 0.17954545454546178,
          "durationTicks": 79,
          "midi": 65,
          "name": "F4",
          "ticks": 70620,
          "time": 160.5,
          "velocity": 1
        },
        {
          "duration": 0.5295454545454561,
          "durationTicks": 233,
          "midi": 68,
          "name": "G#4",
          "ticks": 70704,
          "time": 160.6909090909091,
          "velocity": 1
        },
        {
          "duration": 0.1886363636363626,
          "durationTicks": 83,
          "midi": 61,
          "name": "C#4",
          "ticks": 71069,
          "time": 161.52045454545456,
          "velocity": 1
        },
        {
          "duration": 0.4000000000000057,
          "durationTicks": 176,
          "midi": 58,
          "name": "A#3",
          "ticks": 71240,
          "time": 161.9090909090909,
          "velocity": 1
        },
        {
          "duration": 0.4000000000000057,
          "durationTicks": 176,
          "midi": 61,
          "name": "C#4",
          "ticks": 71416,
          "time": 162.3090909090909,
          "velocity": 1
        },
        {
          "duration": 0.4113636363636317,
          "durationTicks": 181,
          "midi": 68,
          "name": "G#4",
          "ticks": 71592,
          "time": 162.70909090909092,
          "velocity": 1
        },
        {
          "duration": 0.3204545454545382,
          "durationTicks": 141,
          "midi": 65,
          "name": "F4",
          "ticks": 71773,
          "time": 163.12045454545455,
          "velocity": 1
        },
        {
          "duration": 0.4409090909090878,
          "durationTicks": 194,
          "midi": 65,
          "name": "F4",
          "ticks": 73194,
          "time": 166.35,
          "velocity": 1
        },
        {
          "duration": 1.1613636363636317,
          "durationTicks": 511,
          "midi": 70,
          "name": "A#4",
          "ticks": 73559,
          "time": 167.17954545454546,
          "velocity": 1
        },
        {
          "duration": 0.25909090909092924,
          "durationTicks": 114,
          "midi": 68,
          "name": "G#4",
          "ticks": 74105,
          "time": 168.42045454545453,
          "velocity": 1
        },
        {
          "duration": 0.26136363636362603,
          "durationTicks": 115,
          "midi": 65,
          "name": "F4",
          "ticks": 74285,
          "time": 168.82954545454547,
          "velocity": 1
        },
        {
          "duration": 0.4386363636363626,
          "durationTicks": 193,
          "midi": 68,
          "name": "G#4",
          "ticks": 74457,
          "time": 169.22045454545454,
          "velocity": 1
        },
        {
          "duration": 0.16818181818180733,
          "durationTicks": 74,
          "midi": 65,
          "name": "F4",
          "ticks": 74642,
          "time": 169.6409090909091,
          "velocity": 1
        },
        {
          "duration": 2.0386363636363853,
          "durationTicks": 897,
          "midi": 63,
          "name": "D#4",
          "ticks": 75698,
          "time": 172.04090909090908,
          "velocity": 1
        },
        {
          "duration": 0.4090909090909065,
          "durationTicks": 180,
          "midi": 61,
          "name": "C#4",
          "ticks": 76767,
          "time": 174.47045454545454,
          "velocity": 1
        },
        {
          "duration": 0.4613636363636431,
          "durationTicks": 203,
          "midi": 68,
          "name": "G#4",
          "ticks": 77290,
          "time": 175.6590909090909,
          "velocity": 1
        },
        {
          "duration": 0.17954545454546178,
          "durationTicks": 79,
          "midi": 68,
          "name": "G#4",
          "ticks": 77744,
          "time": 176.6909090909091,
          "velocity": 1
        },
        {
          "duration": 1.0795454545454675,
          "durationTicks": 475,
          "midi": 70,
          "name": "A#4",
          "ticks": 77854,
          "time": 176.9409090909091,
          "velocity": 1
        },
        {
          "duration": 0.029545454545427674,
          "durationTicks": 13,
          "midi": 72,
          "name": "C5",
          "ticks": 78382,
          "time": 178.1409090909091,
          "velocity": 1
        },
        {
          "duration": 0.5909090909090935,
          "durationTicks": 260,
          "midi": 65,
          "name": "F4",
          "ticks": 78918,
          "time": 179.3590909090909,
          "velocity": 1
        },
        {
          "duration": 0.20000000000001705,
          "durationTicks": 88,
          "midi": 60,
          "name": "C4",
          "ticks": 79178,
          "time": 179.95,
          "velocity": 1
        },
        {
          "duration": 0.2795454545454561,
          "durationTicks": 123,
          "midi": 68,
          "name": "G#4",
          "ticks": 79266,
          "time": 180.15,
          "velocity": 1
        },
        {
          "duration": 0.39090909090910486,
          "durationTicks": 172,
          "midi": 70,
          "name": "A#4",
          "ticks": 79380,
          "time": 180.4090909090909,
          "velocity": 1
        },
        {
          "duration": 0.17045454545453254,
          "durationTicks": 75,
          "midi": 72,
          "name": "C5",
          "ticks": 79552,
          "time": 180.8,
          "velocity": 1
        },
        {
          "duration": 0.3409090909090935,
          "durationTicks": 150,
          "midi": 70,
          "name": "A#4",
          "ticks": 79622,
          "time": 180.95909090909092,
          "velocity": 1
        },
        {
          "duration": 0.3409090909090935,
          "durationTicks": 150,
          "midi": 68,
          "name": "G#4",
          "ticks": 79807,
          "time": 181.37954545454545,
          "velocity": 1
        },
        {
          "duration": 0.1886363636363626,
          "durationTicks": 83,
          "midi": 65,
          "name": "F4",
          "ticks": 79988,
          "time": 181.79090909090908,
          "velocity": 1
        },
        {
          "duration": 0.020454545454555273,
          "durationTicks": 9,
          "midi": 68,
          "name": "G#4",
          "ticks": 80150,
          "time": 182.1590909090909,
          "velocity": 1
        },
        {
          "duration": 0.1295454545454504,
          "durationTicks": 57,
          "midi": 68,
          "name": "G#4",
          "ticks": 80159,
          "time": 182.17954545454546,
          "velocity": 1
        },
        {
          "duration": 0.1909090909090878,
          "durationTicks": 84,
          "midi": 65,
          "name": "F4",
          "ticks": 80225,
          "time": 182.32954545454547,
          "velocity": 1
        },
        {
          "duration": 0.4000000000000057,
          "durationTicks": 176,
          "midi": 65,
          "name": "F4",
          "ticks": 80331,
          "time": 182.57045454545454,
          "velocity": 1
        },
        {
          "duration": 0.579545454545439,
          "durationTicks": 255,
          "midi": 63,
          "name": "D#4",
          "ticks": 80692,
          "time": 183.3909090909091,
          "velocity": 1
        },
        {
          "duration": 0.32954545454546746,
          "durationTicks": 145,
          "midi": 65,
          "name": "F4",
          "ticks": 80951,
          "time": 183.97954545454544,
          "velocity": 1
        },
        {
          "duration": 0.22954545454547315,
          "durationTicks": 101,
          "midi": 61,
          "name": "C#4",
          "ticks": 81224,
          "time": 184.6,
          "velocity": 1
        },
        {
          "duration": 0.19999999999998863,
          "durationTicks": 88,
          "midi": 61,
          "name": "C#4",
          "ticks": 81325,
          "time": 184.82954545454547,
          "velocity": 1
        },
        {
          "duration": 0.4113636363636317,
          "durationTicks": 181,
          "midi": 63,
          "name": "D#4",
          "ticks": 81413,
          "time": 185.02954545454546,
          "velocity": 1
        },
        {
          "duration": 0.568181818181813,
          "durationTicks": 250,
          "midi": 53,
          "name": "F3",
          "ticks": 81594,
          "time": 185.4409090909091,
          "velocity": 1
        },
        {
          "duration": 0.5295454545454277,
          "durationTicks": 233,
          "midi": 56,
          "name": "G#3",
          "ticks": 81765,
          "time": 185.82954545454547,
          "velocity": 1
        },
        {
          "duration": 0.3499999999999943,
          "durationTicks": 154,
          "midi": 51,
          "name": "D#3",
          "ticks": 81844,
          "time": 186.0090909090909,
          "velocity": 1
        },
        {
          "duration": 0.6113636363636488,
          "durationTicks": 269,
          "midi": 61,
          "name": "C#4",
          "ticks": 82117,
          "time": 186.62954545454545,
          "velocity": 1
        },
        {
          "duration": 0.19999999999998863,
          "durationTicks": 88,
          "midi": 58,
          "name": "A#3",
          "ticks": 82386,
          "time": 187.2409090909091,
          "velocity": 1
        },
        {
          "duration": 0.4090909090909065,
          "durationTicks": 180,
          "midi": 61,
          "name": "C#4",
          "ticks": 82474,
          "time": 187.4409090909091,
          "velocity": 1
        },
        {
          "duration": 0.5590909090909122,
          "durationTicks": 246,
          "midi": 58,
          "name": "A#3",
          "ticks": 82654,
          "time": 187.85,
          "velocity": 1
        },
        {
          "duration": 0.5500000000000114,
          "durationTicks": 242,
          "midi": 61,
          "name": "C#4",
          "ticks": 83560,
          "time": 189.9090909090909,
          "velocity": 1
        },
        {
          "duration": 0.23181818181816993,
          "durationTicks": 102,
          "midi": 77,
          "name": "F5",
          "ticks": 86662,
          "time": 196.95909090909092,
          "velocity": 1
        },
        {
          "duration": 0.23863636363637397,
          "durationTicks": 105,
          "midi": 80,
          "name": "G#5",
          "ticks": 86755,
          "time": 197.17045454545453,
          "velocity": 1
        },
        {
          "duration": 0.20000000000001705,
          "durationTicks": 88,
          "midi": 77,
          "name": "F5",
          "ticks": 86847,
          "time": 197.37954545454545,
          "velocity": 1
        },
        {
          "duration": 0.42045454545456096,
          "durationTicks": 185,
          "midi": 85,
          "name": "C#6",
          "ticks": 86931,
          "time": 197.57045454545454,
          "velocity": 1
        },
        {
          "duration": 0.6795454545454618,
          "durationTicks": 299,
          "midi": 87,
          "name": "D#6",
          "ticks": 87107,
          "time": 197.97045454545454,
          "velocity": 1
        }
      ],
      "endOfTrackTicks": 87407
    },
    {
      "channel": 13,
      "controlChanges": {},
      "pitchBends": [],
      "instrument": {
        "family": "guitar",
        "number": 29,
        "name": "overdriven guitar"
      },
      "name": "",
      "notes": [
        {
          "duration": 0.22954545454545539,
          "durationTicks": 101,
          "midi": 63,
          "name": "D#4",
          "ticks": 11849,
          "time": 26.929545454545455,
          "velocity": 1
        },
        {
          "duration": 0.2386363636363633,
          "durationTicks": 105,
          "midi": 63,
          "name": "D#4",
          "ticks": 12021,
          "time": 27.320454545454545,
          "velocity": 1
        },
        {
          "duration": 0.2795454545454561,
          "durationTicks": 123,
          "midi": 56,
          "name": "G#3",
          "ticks": 12197,
          "time": 27.720454545454544,
          "velocity": 1
        },
        {
          "duration": 0.15909090909091006,
          "durationTicks": 70,
          "midi": 61,
          "name": "C#4",
          "ticks": 12373,
          "time": 28.120454545454546,
          "velocity": 1
        },
        {
          "duration": 0.038636363636364024,
          "durationTicks": 17,
          "midi": 60,
          "name": "C4",
          "ticks": 12470,
          "time": 28.34090909090909,
          "velocity": 1
        },
        {
          "duration": 0.12045454545454604,
          "durationTicks": 53,
          "midi": 61,
          "name": "C#4",
          "ticks": 12562,
          "time": 28.55,
          "velocity": 1
        },
        {
          "duration": 0.23181818181818414,
          "durationTicks": 102,
          "midi": 58,
          "name": "A#3",
          "ticks": 29858,
          "time": 67.85909090909091,
          "velocity": 1
        },
        {
          "duration": 0.4000000000000057,
          "durationTicks": 176,
          "midi": 61,
          "name": "C#4",
          "ticks": 30030,
          "time": 68.25,
          "velocity": 1
        },
        {
          "duration": 0.9795454545454447,
          "durationTicks": 431,
          "midi": 68,
          "name": "G#4",
          "ticks": 30206,
          "time": 68.65,
          "velocity": 1
        },
        {
          "duration": 1.9409090909090878,
          "durationTicks": 854,
          "midi": 60,
          "name": "C4",
          "ticks": 58599,
          "time": 133.17954545454546,
          "velocity": 1
        },
        {
          "duration": 0.5500000000000114,
          "durationTicks": 242,
          "midi": 65,
          "name": "F4",
          "ticks": 61794,
          "time": 140.4409090909091,
          "velocity": 1
        },
        {
          "duration": 0.06818181818181301,
          "durationTicks": 30,
          "midi": 70,
          "name": "A#4",
          "ticks": 62146,
          "time": 141.2409090909091,
          "velocity": 1
        },
        {
          "duration": 0.5999999999999943,
          "durationTicks": 264,
          "midi": 61,
          "name": "C#4",
          "ticks": 64024,
          "time": 145.5090909090909,
          "velocity": 1
        },
        {
          "duration": 0.4000000000000057,
          "durationTicks": 176,
          "midi": 63,
          "name": "D#4",
          "ticks": 64288,
          "time": 146.1090909090909,
          "velocity": 1
        },
        {
          "duration": 0.39090909090910486,
          "durationTicks": 172,
          "midi": 66,
          "name": "F#4",
          "ticks": 64464,
          "time": 146.5090909090909,
          "velocity": 1
        },
        {
          "duration": 0.19090909090911623,
          "durationTicks": 84,
          "midi": 63,
          "name": "D#4",
          "ticks": 64548,
          "time": 146.7,
          "velocity": 1
        },
        {
          "duration": 0.3090909090909122,
          "durationTicks": 136,
          "midi": 61,
          "name": "C#4",
          "ticks": 64636,
          "time": 146.9,
          "velocity": 1
        },
        {
          "duration": 0.14999999999997726,
          "durationTicks": 66,
          "midi": 63,
          "name": "D#4",
          "ticks": 64812,
          "time": 147.3,
          "velocity": 1
        },
        {
          "duration": 0.029545454545456096,
          "durationTicks": 13,
          "midi": 49,
          "name": "C#3",
          "ticks": 87833,
          "time": 199.62045454545455,
          "velocity": 1
        },
        {
          "duration": 0.029545454545456096,
          "durationTicks": 13,
          "midi": 56,
          "name": "G#3",
          "ticks": 87833,
          "time": 199.62045454545455,
          "velocity": 1
        },
        {
          "duration": 0.029545454545456096,
          "durationTicks": 13,
          "midi": 61,
          "name": "C#4",
          "ticks": 87833,
          "time": 199.62045454545455,
          "velocity": 1
        },
        {
          "duration": 1.049999999999983,
          "durationTicks": 462,
          "midi": 49,
          "name": "C#3",
          "ticks": 87846,
          "time": 199.65,
          "velocity": 1
        },
        {
          "duration": 1.049999999999983,
          "durationTicks": 462,
          "midi": 56,
          "name": "G#3",
          "ticks": 87846,
          "time": 199.65,
          "velocity": 1
        },
        {
          "duration": 1.049999999999983,
          "durationTicks": 462,
          "midi": 61,
          "name": "C#4",
          "ticks": 87846,
          "time": 199.65,
          "velocity": 1
        }
      ],
      "endOfTrackTicks": 88309
    },
    {
      "channel": 14,
      "controlChanges": {},
      "pitchBends": [],
      "instrument": {
        "family": "strings",
        "number": 42,
        "name": "cello"
      },
      "name": "",
      "notes": [
        {
          "duration": 0.4295454545454547,
          "durationTicks": 189,
          "midi": 46,
          "name": "A#2",
          "ticks": 13605,
          "time": 30.920454545454547,
          "velocity": 1
        },
        {
          "duration": 0.418181818181818,
          "durationTicks": 184,
          "midi": 58,
          "name": "A#3",
          "ticks": 13614,
          "time": 30.94090909090909,
          "velocity": 1
        },
        {
          "duration": 0.18181818181817988,
          "durationTicks": 80,
          "midi": 53,
          "name": "F3",
          "ticks": 13798,
          "time": 31.35909090909091,
          "velocity": 1
        },
        {
          "duration": 0.17954545454545467,
          "durationTicks": 79,
          "midi": 61,
          "name": "C#4",
          "ticks": 13803,
          "time": 31.370454545454546,
          "velocity": 1
        },
        {
          "duration": 0.22954545454545539,
          "durationTicks": 101,
          "midi": 58,
          "name": "A#3",
          "ticks": 13882,
          "time": 31.55,
          "velocity": 1
        },
        {
          "duration": 0.12954545454545396,
          "durationTicks": 57,
          "midi": 58,
          "name": "A#3",
          "ticks": 13983,
          "time": 31.779545454545456,
          "velocity": 1
        },
        {
          "duration": 0.22045454545454746,
          "durationTicks": 97,
          "midi": 61,
          "name": "C#4",
          "ticks": 14040,
          "time": 31.90909090909091,
          "velocity": 1
        },
        {
          "duration": 0.2204545454545439,
          "durationTicks": 97,
          "midi": 61,
          "name": "C#4",
          "ticks": 14137,
          "time": 32.12954545454546,
          "velocity": 1
        },
        {
          "duration": 0.19999999999999574,
          "durationTicks": 88,
          "midi": 61,
          "name": "C#4",
          "ticks": 14326,
          "time": 32.55909090909091,
          "velocity": 1
        },
        {
          "duration": 0.9409090909090878,
          "durationTicks": 414,
          "midi": 39,
          "name": "D#2",
          "ticks": 46442,
          "time": 105.55,
          "velocity": 1
        },
        {
          "duration": 0.9113636363636317,
          "durationTicks": 401,
          "midi": 46,
          "name": "A#2",
          "ticks": 46455,
          "time": 105.57954545454545,
          "velocity": 1
        }
      ],
      "endOfTrackTicks": 46857
    },
    {
      "channel": 15,
      "controlChanges": {},
      "pitchBends": [],
      "instrument": {
        "family": "ensemble",
        "number": 48,
        "name": "string ensemble 1"
      },
      "name": "",
      "notes": [
        {
          "duration": 1.0590909090909122,
          "durationTicks": 466,
          "midi": 56,
          "name": "G#3",
          "ticks": 15752,
          "time": 35.8,
          "velocity": 1
        },
        {
          "duration": 1.0590909090909122,
          "durationTicks": 466,
          "midi": 60,
          "name": "C4",
          "ticks": 15752,
          "time": 35.8,
          "velocity": 1
        },
        {
          "duration": 1.0590909090909122,
          "durationTicks": 466,
          "midi": 63,
          "name": "D#4",
          "ticks": 15752,
          "time": 35.8,
          "velocity": 1
        },
        {
          "duration": 1.788636363636357,
          "durationTicks": 787,
          "midi": 70,
          "name": "A#4",
          "ticks": 30752,
          "time": 69.89090909090909,
          "velocity": 1
        },
        {
          "duration": 0.22954545454545894,
          "durationTicks": 101,
          "midi": 68,
          "name": "G#4",
          "ticks": 31627,
          "time": 71.87954545454545,
          "velocity": 1
        },
        {
          "duration": 0.22954545454545894,
          "durationTicks": 101,
          "midi": 80,
          "name": "G#5",
          "ticks": 31627,
          "time": 71.87954545454545,
          "velocity": 1
        },
        {
          "duration": 0.21136363636364308,
          "durationTicks": 93,
          "midi": 65,
          "name": "F4",
          "ticks": 31728,
          "time": 72.10909090909091,
          "velocity": 1
        },
        {
          "duration": 0.21136363636364308,
          "durationTicks": 93,
          "midi": 77,
          "name": "F5",
          "ticks": 31728,
          "time": 72.10909090909091,
          "velocity": 1
        },
        {
          "duration": 0.32954545454545325,
          "durationTicks": 145,
          "midi": 66,
          "name": "F#4",
          "ticks": 31821,
          "time": 72.32045454545455,
          "velocity": 1
        },
        {
          "duration": 0.32954545454545325,
          "durationTicks": 145,
          "midi": 78,
          "name": "F#5",
          "ticks": 31821,
          "time": 72.32045454545455,
          "velocity": 1
        },
        {
          "duration": 0.5909090909090935,
          "durationTicks": 260,
          "midi": 70,
          "name": "A#4",
          "ticks": 32177,
          "time": 73.12954545454545,
          "velocity": 1
        },
        {
          "duration": 0.5909090909090935,
          "durationTicks": 260,
          "midi": 82,
          "name": "A#5",
          "ticks": 32177,
          "time": 73.12954545454545,
          "velocity": 1
        },
        {
          "duration": 0.07954545454545325,
          "durationTicks": 35,
          "midi": 61,
          "name": "C#4",
          "ticks": 33431,
          "time": 75.97954545454546,
          "velocity": 1
        },
        {
          "duration": 0.11818181818182438,
          "durationTicks": 52,
          "midi": 65,
          "name": "F4",
          "ticks": 33502,
          "time": 76.14090909090909,
          "velocity": 1
        },
        {
          "duration": 0.3204545454545382,
          "durationTicks": 141,
          "midi": 63,
          "name": "D#4",
          "ticks": 33598,
          "time": 76.35909090909091,
          "velocity": 1
        },
        {
          "duration": 0.4113636363636317,
          "durationTicks": 181,
          "midi": 63,
          "name": "D#4",
          "ticks": 33774,
          "time": 76.75909090909092,
          "velocity": 1
        },
        {
          "duration": 0.07045454545453822,
          "durationTicks": 31,
          "midi": 68,
          "name": "G#4",
          "ticks": 33955,
          "time": 77.17045454545455,
          "velocity": 1
        },
        {
          "duration": 0.22954545454545894,
          "durationTicks": 101,
          "midi": 61,
          "name": "C#4",
          "ticks": 34140,
          "time": 77.5909090909091,
          "velocity": 1
        },
        {
          "duration": 0.38863636363635123,
          "durationTicks": 171,
          "midi": 80,
          "name": "G#5",
          "ticks": 45571,
          "time": 103.57045454545455,
          "velocity": 1
        },
        {
          "duration": 0.39090909090909065,
          "durationTicks": 172,
          "midi": 68,
          "name": "G#4",
          "ticks": 45575,
          "time": 103.57954545454545,
          "velocity": 1
        },
        {
          "duration": 0.4113636363636459,
          "durationTicks": 181,
          "midi": 77,
          "name": "F5",
          "ticks": 45742,
          "time": 103.9590909090909,
          "velocity": 1
        },
        {
          "duration": 0.38863636363636545,
          "durationTicks": 171,
          "midi": 65,
          "name": "F4",
          "ticks": 45747,
          "time": 103.97045454545454,
          "velocity": 1
        },
        {
          "duration": 1.1613636363636317,
          "durationTicks": 511,
          "midi": 80,
          "name": "G#5",
          "ticks": 45918,
          "time": 104.35909090909091,
          "velocity": 1
        },
        {
          "duration": 0.07045454545453822,
          "durationTicks": 31,
          "midi": 68,
          "name": "G#4",
          "ticks": 45923,
          "time": 104.37045454545455,
          "velocity": 1
        },
        {
          "duration": 0.9113636363636317,
          "durationTicks": 401,
          "midi": 75,
          "name": "D#5",
          "ticks": 46455,
          "time": 105.57954545454545,
          "velocity": 1
        },
        {
          "duration": 1.1409090909091049,
          "durationTicks": 502,
          "midi": 46,
          "name": "A#2",
          "ticks": 60698,
          "time": 137.95,
          "velocity": 1
        },
        {
          "duration": 1.0795454545454675,
          "durationTicks": 475,
          "midi": 53,
          "name": "F3",
          "ticks": 60707,
          "time": 137.97045454545454,
          "velocity": 1
        },
        {
          "duration": 1.0999999999999943,
          "durationTicks": 484,
          "midi": 58,
          "name": "A#3",
          "ticks": 60707,
          "time": 137.97045454545454,
          "velocity": 1
        },
        {
          "duration": 1.1090909090909236,
          "durationTicks": 488,
          "midi": 61,
          "name": "C#4",
          "ticks": 60707,
          "time": 137.97045454545454,
          "velocity": 1
        },
        {
          "duration": 0.04999999999998295,
          "durationTicks": 22,
          "midi": 46,
          "name": "A#2",
          "ticks": 61252,
          "time": 139.20909090909092,
          "velocity": 1
        },
        {
          "duration": 0.04999999999998295,
          "durationTicks": 22,
          "midi": 53,
          "name": "F3",
          "ticks": 61252,
          "time": 139.20909090909092,
          "velocity": 1
        },
        {
          "duration": 0.04999999999998295,
          "durationTicks": 22,
          "midi": 58,
          "name": "A#3",
          "ticks": 61252,
          "time": 139.20909090909092,
          "velocity": 1
        },
        {
          "duration": 0.04999999999998295,
          "durationTicks": 22,
          "midi": 61,
          "name": "C#4",
          "ticks": 61252,
          "time": 139.20909090909092,
          "velocity": 1
        },
        {
          "duration": 1.9295454545454618,
          "durationTicks": 849,
          "midi": 46,
          "name": "A#2",
          "ticks": 72138,
          "time": 163.95,
          "velocity": 1
        },
        {
          "duration": 0.42045454545456096,
          "durationTicks": 185,
          "midi": 70,
          "name": "A#4",
          "ticks": 72138,
          "time": 163.95,
          "velocity": 1
        },
        {
          "duration": 0.42045454545456096,
          "durationTicks": 185,
          "midi": 82,
          "name": "A#5",
          "ticks": 72138,
          "time": 163.95,
          "velocity": 1
        },
        {
          "duration": 0.08863636363633987,
          "durationTicks": 39,
          "midi": 72,
          "name": "C5",
          "ticks": 72389,
          "time": 164.52045454545456,
          "velocity": 1
        },
        {
          "duration": 0.08863636363633987,
          "durationTicks": 39,
          "midi": 84,
          "name": "C6",
          "ticks": 72389,
          "time": 164.52045454545456,
          "velocity": 1
        },
        {
          "duration": 0.09090909090909349,
          "durationTicks": 40,
          "midi": 70,
          "name": "A#4",
          "ticks": 72490,
          "time": 164.75,
          "velocity": 1
        },
        {
          "duration": 0.09090909090909349,
          "durationTicks": 40,
          "midi": 82,
          "name": "A#5",
          "ticks": 72490,
          "time": 164.75,
          "velocity": 1
        },
        {
          "duration": 0.07045454545453822,
          "durationTicks": 31,
          "midi": 68,
          "name": "G#4",
          "ticks": 72666,
          "time": 165.15,
          "velocity": 1
        },
        {
          "duration": 0.07045454545453822,
          "durationTicks": 31,
          "midi": 80,
          "name": "G#5",
          "ticks": 72666,
          "time": 165.15,
          "velocity": 1
        },
        {
          "duration": 0.29999999999998295,
          "durationTicks": 132,
          "midi": 65,
          "name": "F4",
          "ticks": 72842,
          "time": 165.55,
          "velocity": 1
        },
        {
          "duration": 0.29999999999998295,
          "durationTicks": 132,
          "midi": 77,
          "name": "F5",
          "ticks": 72842,
          "time": 165.55,
          "velocity": 1
        },
        {
          "duration": 0.4409090909090878,
          "durationTicks": 194,
          "midi": 44,
          "name": "G#2",
          "ticks": 78553,
          "time": 178.52954545454546,
          "velocity": 1
        },
        {
          "duration": 0.22954545454544473,
          "durationTicks": 101,
          "midi": 65,
          "name": "F4",
          "ticks": 78553,
          "time": 178.52954545454546,
          "velocity": 1
        },
        {
          "duration": 0.22954545454544473,
          "durationTicks": 101,
          "midi": 77,
          "name": "F5",
          "ticks": 78553,
          "time": 178.52954545454546,
          "velocity": 1
        },
        {
          "duration": 1.220454545454544,
          "durationTicks": 537,
          "midi": 51,
          "name": "D#3",
          "ticks": 78729,
          "time": 178.92954545454546,
          "velocity": 1
        },
        {
          "duration": 1.220454545454544,
          "durationTicks": 537,
          "midi": 63,
          "name": "D#4",
          "ticks": 78729,
          "time": 178.92954545454546,
          "velocity": 1
        },
        {
          "duration": 1.220454545454544,
          "durationTicks": 537,
          "midi": 75,
          "name": "D#5",
          "ticks": 78729,
          "time": 178.92954545454546,
          "velocity": 1
        },
        {
          "duration": 0.07045454545453822,
          "durationTicks": 31,
          "midi": 44,
          "name": "G#2",
          "ticks": 79266,
          "time": 180.15,
          "velocity": 1
        },
        {
          "duration": 0.07045454545453822,
          "durationTicks": 31,
          "midi": 56,
          "name": "G#3",
          "ticks": 79266,
          "time": 180.15,
          "velocity": 1
        },
        {
          "duration": 0.07045454545453822,
          "durationTicks": 31,
          "midi": 60,
          "name": "C4",
          "ticks": 79266,
          "time": 180.15,
          "velocity": 1
        },
        {
          "duration": 0.07045454545453822,
          "durationTicks": 31,
          "midi": 68,
          "name": "G#4",
          "ticks": 79266,
          "time": 180.15,
          "velocity": 1
        },
        {
          "duration": 1.6204545454545496,
          "durationTicks": 713,
          "midi": 42,
          "name": "F#2",
          "ticks": 84968,
          "time": 193.1090909090909,
          "velocity": 1
        },
        {
          "duration": 1.4409090909091162,
          "durationTicks": 634,
          "midi": 58,
          "name": "A#3",
          "ticks": 84968,
          "time": 193.1090909090909,
          "velocity": 1
        },
        {
          "duration": 1.4409090909091162,
          "durationTicks": 634,
          "midi": 61,
          "name": "C#4",
          "ticks": 84968,
          "time": 193.1090909090909,
          "velocity": 1
        },
        {
          "duration": 1.4409090909091162,
          "durationTicks": 634,
          "midi": 65,
          "name": "F4",
          "ticks": 84968,
          "time": 193.1090909090909,
          "velocity": 1
        },
        {
          "duration": 1.6295454545454504,
          "durationTicks": 717,
          "midi": 41,
          "name": "F2",
          "ticks": 85681,
          "time": 194.72954545454544,
          "velocity": 1
        },
        {
          "duration": 1.6295454545454504,
          "durationTicks": 717,
          "midi": 77,
          "name": "F5",
          "ticks": 85681,
          "time": 194.72954545454544,
          "velocity": 1
        },
        {
          "duration": 1.6204545454545496,
          "durationTicks": 713,
          "midi": 39,
          "name": "D#2",
          "ticks": 86398,
          "time": 196.3590909090909,
          "velocity": 1
        },
        {
          "duration": 0.24090909090909918,
          "durationTicks": 106,
          "midi": 75,
          "name": "D#5",
          "ticks": 86398,
          "time": 196.3590909090909,
          "velocity": 1
        },
        {
          "duration": 0.6590909090909065,
          "durationTicks": 290,
          "midi": 44,
          "name": "G#2",
          "ticks": 87116,
          "time": 197.9909090909091,
          "velocity": 1
        }
      ],
      "endOfTrackTicks": 87407
    },
    {
      "channel": 0,
      "controlChanges": {},
      "pitchBends": [],
      "instrument": {
        "family": "bass",
        "number": 32,
        "name": "acoustic bass"
      },
      "name": "",
      "notes": [
        {
          "duration": 0.20000000000000284,
          "durationTicks": 88,
          "midi": 49,
          "name": "C#3",
          "ticks": 18533,
          "time": 42.12045454545454,
          "velocity": 1
        },
        {
          "duration": 0.21136363636363598,
          "durationTicks": 93,
          "midi": 56,
          "name": "G#3",
          "ticks": 18616,
          "time": 42.30909090909091,
          "velocity": 1
        },
        {
          "duration": 0.27045454545454817,
          "durationTicks": 119,
          "midi": 56,
          "name": "G#3",
          "ticks": 18801,
          "time": 42.72954545454545,
          "velocity": 1
        },
        {
          "duration": 0.19999999999999574,
          "durationTicks": 88,
          "midi": 51,
          "name": "D#3",
          "ticks": 22814,
          "time": 51.85,
          "velocity": 1
        },
        {
          "duration": 0.6090909090909093,
          "durationTicks": 268,
          "midi": 56,
          "name": "G#3",
          "ticks": 22902,
          "time": 52.05,
          "velocity": 1
        },
        {
          "duration": 0.220454545454551,
          "durationTicks": 97,
          "midi": 56,
          "name": "G#3",
          "ticks": 23170,
          "time": 52.65909090909091,
          "velocity": 1
        },
        {
          "duration": 0.36136363636363455,
          "durationTicks": 159,
          "midi": 49,
          "name": "C#3",
          "ticks": 23267,
          "time": 52.87954545454546,
          "velocity": 1
        },
        {
          "duration": 1.259090909090915,
          "durationTicks": 554,
          "midi": 56,
          "name": "G#3",
          "ticks": 24504,
          "time": 55.69090909090909,
          "velocity": 1
        },
        {
          "duration": 0.4409090909090949,
          "durationTicks": 194,
          "midi": 58,
          "name": "A#3",
          "ticks": 25036,
          "time": 56.9,
          "velocity": 1
        },
        {
          "duration": 0.22954545454545894,
          "durationTicks": 101,
          "midi": 53,
          "name": "F3",
          "ticks": 25665,
          "time": 58.32954545454545,
          "velocity": 1
        },
        {
          "duration": 0.38863636363636545,
          "durationTicks": 171,
          "midi": 56,
          "name": "G#3",
          "ticks": 25758,
          "time": 58.54090909090909,
          "velocity": 1
        },
        {
          "duration": 0.461363636363636,
          "durationTicks": 203,
          "midi": 56,
          "name": "G#3",
          "ticks": 25929,
          "time": 58.929545454545455,
          "velocity": 1
        },
        {
          "duration": 0.2204545454545439,
          "durationTicks": 97,
          "midi": 49,
          "name": "C#3",
          "ticks": 27091,
          "time": 61.570454545454545,
          "velocity": 1
        },
        {
          "duration": 0.17045454545454675,
          "durationTicks": 75,
          "midi": 48,
          "name": "C3",
          "ticks": 27267,
          "time": 61.970454545454544,
          "velocity": 1
        },
        {
          "duration": 1.3204545454545453,
          "durationTicks": 581,
          "midi": 53,
          "name": "F3",
          "ticks": 27350,
          "time": 62.15909090909091,
          "velocity": 1
        },
        {
          "duration": 0.4113636363636317,
          "durationTicks": 181,
          "midi": 56,
          "name": "G#3",
          "ticks": 34311,
          "time": 77.97954545454546,
          "velocity": 1
        },
        {
          "duration": 0.17954545454546178,
          "durationTicks": 79,
          "midi": 56,
          "name": "G#3",
          "ticks": 34492,
          "time": 78.39090909090909,
          "velocity": 1
        },
        {
          "duration": 0.22045454545455812,
          "durationTicks": 97,
          "midi": 56,
          "name": "G#3",
          "ticks": 34584,
          "time": 78.6,
          "velocity": 1
        },
        {
          "duration": 0.7999999999999972,
          "durationTicks": 352,
          "midi": 47,
          "name": "B2",
          "ticks": 34681,
          "time": 78.82045454545455,
          "velocity": 1
        },
        {
          "duration": 1.220454545454544,
          "durationTicks": 537,
          "midi": 49,
          "name": "C#3",
          "ticks": 35033,
          "time": 79.62045454545455,
          "velocity": 1
        },
        {
          "duration": 0.20000000000000284,
          "durationTicks": 88,
          "midi": 49,
          "name": "C#3",
          "ticks": 35653,
          "time": 81.02954545454546,
          "velocity": 1
        },
        {
          "duration": 0.19999999999998863,
          "durationTicks": 88,
          "midi": 56,
          "name": "G#3",
          "ticks": 35741,
          "time": 81.22954545454546,
          "velocity": 1
        },
        {
          "duration": 0.21136363636364308,
          "durationTicks": 93,
          "midi": 56,
          "name": "G#3",
          "ticks": 35829,
          "time": 81.42954545454545,
          "velocity": 1
        },
        {
          "duration": 0.009090909090915034,
          "durationTicks": 4,
          "midi": 56,
          "name": "G#3",
          "ticks": 35922,
          "time": 81.64090909090909,
          "velocity": 1
        },
        {
          "duration": 0.1909090909090878,
          "durationTicks": 84,
          "midi": 51,
          "name": "D#3",
          "ticks": 39934,
          "time": 90.75909090909092,
          "velocity": 1
        },
        {
          "duration": 0.17045454545454675,
          "durationTicks": 75,
          "midi": 56,
          "name": "G#3",
          "ticks": 40022,
          "time": 90.9590909090909,
          "velocity": 1
        },
        {
          "duration": 0.5999999999999943,
          "durationTicks": 264,
          "midi": 56,
          "name": "G#3",
          "ticks": 40203,
          "time": 91.37045454545455,
          "velocity": 1
        },
        {
          "duration": 0.17954545454546178,
          "durationTicks": 79,
          "midi": 56,
          "name": "G#3",
          "ticks": 40467,
          "time": 91.97045454545454,
          "velocity": 1
        },
        {
          "duration": 0.25,
          "durationTicks": 110,
          "midi": 49,
          "name": "C#3",
          "ticks": 42790,
          "time": 97.25,
          "velocity": 1
        },
        {
          "duration": 0.20000000000000284,
          "durationTicks": 88,
          "midi": 56,
          "name": "G#3",
          "ticks": 42878,
          "time": 97.45,
          "velocity": 1
        },
        {
          "duration": 0.45000000000000284,
          "durationTicks": 198,
          "midi": 56,
          "name": "G#3",
          "ticks": 43054,
          "time": 97.85,
          "velocity": 1
        },
        {
          "duration": 0.1909090909090878,
          "durationTicks": 84,
          "midi": 53,
          "name": "F3",
          "ticks": 44220,
          "time": 100.5,
          "velocity": 1
        },
        {
          "duration": 0.1909090909090878,
          "durationTicks": 84,
          "midi": 56,
          "name": "G#3",
          "ticks": 44308,
          "time": 100.7,
          "velocity": 1
        },
        {
          "duration": 0.1590909090909065,
          "durationTicks": 70,
          "midi": 56,
          "name": "G#3",
          "ticks": 44396,
          "time": 100.9,
          "velocity": 1
        },
        {
          "duration": 1.3000000000000114,
          "durationTicks": 572,
          "midi": 56,
          "name": "G#3",
          "ticks": 44484,
          "time": 101.1,
          "velocity": 1
        },
        {
          "duration": 0.2181818181818187,
          "durationTicks": 96,
          "midi": 49,
          "name": "C#3",
          "ticks": 45646,
          "time": 103.74090909090908,
          "velocity": 1
        },
        {
          "duration": 0.1886363636363626,
          "durationTicks": 83,
          "midi": 49,
          "name": "C#3",
          "ticks": 45822,
          "time": 104.14090909090909,
          "velocity": 1
        },
        {
          "duration": 0.09999999999999432,
          "durationTicks": 44,
          "midi": 49,
          "name": "C#3",
          "ticks": 45910,
          "time": 104.3409090909091,
          "velocity": 1
        },
        {
          "duration": 0.3795454545454504,
          "durationTicks": 167,
          "midi": 51,
          "name": "D#3",
          "ticks": 47067,
          "time": 106.97045454545454,
          "velocity": 1
        },
        {
          "duration": 0.5999999999999943,
          "durationTicks": 264,
          "midi": 56,
          "name": "G#3",
          "ticks": 47335,
          "time": 107.57954545454545,
          "velocity": 1
        },
        {
          "duration": 0.36136363636364877,
          "durationTicks": 159,
          "midi": 56,
          "name": "G#3",
          "ticks": 47599,
          "time": 108.17954545454545,
          "velocity": 1
        },
        {
          "duration": 0.8409090909090793,
          "durationTicks": 370,
          "midi": 49,
          "name": "C#3",
          "ticks": 53574,
          "time": 121.75909090909092,
          "velocity": 1
        },
        {
          "duration": 0.0318181818181813,
          "durationTicks": 14,
          "midi": 56,
          "name": "G#3",
          "ticks": 56346,
          "time": 128.0590909090909,
          "velocity": 1
        },
        {
          "duration": 0.7704545454545553,
          "durationTicks": 339,
          "midi": 54,
          "name": "F#3",
          "ticks": 56430,
          "time": 128.25,
          "velocity": 1
        },
        {
          "duration": 0.009090909090929244,
          "durationTicks": 4,
          "midi": 53,
          "name": "F3",
          "ticks": 56791,
          "time": 129.07045454545454,
          "velocity": 1
        },
        {
          "duration": 0.8295454545454675,
          "durationTicks": 365,
          "midi": 53,
          "name": "F3",
          "ticks": 57147,
          "time": 129.87954545454545,
          "velocity": 1
        },
        {
          "duration": 0.17954545454546178,
          "durationTicks": 79,
          "midi": 56,
          "name": "G#3",
          "ticks": 58586,
          "time": 133.15,
          "velocity": 1
        },
        {
          "duration": 0.4090909090909065,
          "durationTicks": 180,
          "midi": 49,
          "name": "C#3",
          "ticks": 59290,
          "time": 134.75,
          "velocity": 1
        },
        {
          "duration": 0.19999999999998863,
          "durationTicks": 88,
          "midi": 51,
          "name": "D#3",
          "ticks": 64192,
          "time": 145.8909090909091,
          "velocity": 1
        },
        {
          "duration": 0.4090909090909065,
          "durationTicks": 180,
          "midi": 56,
          "name": "G#3",
          "ticks": 64280,
          "time": 146.0909090909091,
          "velocity": 1
        },
        {
          "duration": 0.1909090909090878,
          "durationTicks": 84,
          "midi": 51,
          "name": "D#3",
          "ticks": 64460,
          "time": 146.5,
          "velocity": 1
        },
        {
          "duration": 0.20000000000001705,
          "durationTicks": 88,
          "midi": 56,
          "name": "G#3",
          "ticks": 64548,
          "time": 146.7,
          "velocity": 1
        },
        {
          "duration": 0.19999999999998863,
          "durationTicks": 88,
          "midi": 47,
          "name": "B2",
          "ticks": 64636,
          "time": 146.9,
          "velocity": 1
        },
        {
          "duration": 0.3499999999999943,
          "durationTicks": 154,
          "midi": 49,
          "name": "C#3",
          "ticks": 64724,
          "time": 147.1,
          "velocity": 1
        },
        {
          "duration": 0.20909090909088945,
          "durationTicks": 92,
          "midi": 53,
          "name": "F3",
          "ticks": 67052,
          "time": 152.3909090909091,
          "velocity": 1
        },
        {
          "duration": 0.009090909090900823,
          "durationTicks": 4,
          "midi": 53,
          "name": "F3",
          "ticks": 67144,
          "time": 152.6,
          "velocity": 1
        },
        {
          "duration": 0.7909090909090821,
          "durationTicks": 348,
          "midi": 56,
          "name": "G#3",
          "ticks": 67232,
          "time": 152.8,
          "velocity": 1
        },
        {
          "duration": 0.17045454545453254,
          "durationTicks": 75,
          "midi": 48,
          "name": "C3",
          "ticks": 68653,
          "time": 156.02954545454546,
          "velocity": 1
        },
        {
          "duration": 1.2590909090909008,
          "durationTicks": 554,
          "midi": 49,
          "name": "C#3",
          "ticks": 68737,
          "time": 156.22045454545454,
          "velocity": 1
        },
        {
          "duration": 0.24090909090909918,
          "durationTicks": 106,
          "midi": 51,
          "name": "D#3",
          "ticks": 69278,
          "time": 157.45,
          "velocity": 1
        },
        {
          "duration": 0.040909090909082124,
          "durationTicks": 18,
          "midi": 49,
          "name": "C#3",
          "ticks": 71240,
          "time": 161.9090909090909,
          "velocity": 1
        },
        {
          "duration": 0.41136363636366013,
          "durationTicks": 181,
          "midi": 49,
          "name": "C#3",
          "ticks": 71328,
          "time": 162.1090909090909,
          "velocity": 1
        },
        {
          "duration": 1.1204545454545496,
          "durationTicks": 493,
          "midi": 56,
          "name": "G#3",
          "ticks": 71597,
          "time": 162.72045454545454,
          "velocity": 1
        },
        {
          "duration": 0.4000000000000057,
          "durationTicks": 176,
          "midi": 56,
          "name": "G#3",
          "ticks": 75698,
          "time": 172.04090909090908,
          "velocity": 1
        },
        {
          "duration": 0.2181818181818187,
          "durationTicks": 96,
          "midi": 56,
          "name": "G#3",
          "ticks": 75874,
          "time": 172.4409090909091,
          "velocity": 1
        },
        {
          "duration": 0.1909090909090878,
          "durationTicks": 84,
          "midi": 56,
          "name": "G#3",
          "ticks": 75970,
          "time": 172.6590909090909,
          "velocity": 1
        },
        {
          "duration": 0.20909090909091788,
          "durationTicks": 92,
          "midi": 47,
          "name": "B2",
          "ticks": 76054,
          "time": 172.85,
          "velocity": 1
        },
        {
          "duration": 0.21136363636364308,
          "durationTicks": 93,
          "midi": 58,
          "name": "A#3",
          "ticks": 76146,
          "time": 173.0590909090909,
          "velocity": 1
        },
        {
          "duration": 0.39999999999997726,
          "durationTicks": 176,
          "midi": 47,
          "name": "B2",
          "ticks": 76239,
          "time": 173.27045454545456,
          "velocity": 1
        },
        {
          "duration": 0.40909090909093493,
          "durationTicks": 180,
          "midi": 49,
          "name": "C#3",
          "ticks": 76415,
          "time": 173.67045454545453,
          "velocity": 1
        },
        {
          "duration": 0.20909090909091788,
          "durationTicks": 92,
          "midi": 60,
          "name": "C4",
          "ticks": 78461,
          "time": 178.32045454545454,
          "velocity": 1
        },
        {
          "duration": 0.21136363636364308,
          "durationTicks": 93,
          "midi": 65,
          "name": "F4",
          "ticks": 78553,
          "time": 178.52954545454546,
          "velocity": 1
        },
        {
          "duration": 0.1886363636363626,
          "durationTicks": 83,
          "midi": 63,
          "name": "D#4",
          "ticks": 78646,
          "time": 178.7409090909091,
          "velocity": 1
        },
        {
          "duration": 1.220454545454544,
          "durationTicks": 537,
          "midi": 63,
          "name": "D#4",
          "ticks": 78729,
          "time": 178.92954545454546,
          "velocity": 1
        },
        {
          "duration": 0.07045454545453822,
          "durationTicks": 31,
          "midi": 56,
          "name": "G#3",
          "ticks": 79266,
          "time": 180.15,
          "velocity": 1
        },
        {
          "duration": 0.1909090909090878,
          "durationTicks": 84,
          "midi": 51,
          "name": "D#3",
          "ticks": 81316,
          "time": 184.8090909090909,
          "velocity": 1
        },
        {
          "duration": 0.42045454545453254,
          "durationTicks": 185,
          "midi": 56,
          "name": "G#3",
          "ticks": 81400,
          "time": 185,
          "velocity": 1
        },
        {
          "duration": 0.009090909090929244,
          "durationTicks": 4,
          "midi": 56,
          "name": "G#3",
          "ticks": 81585,
          "time": 185.42045454545453,
          "velocity": 1
        },
        {
          "duration": 0.009090909090900823,
          "durationTicks": 4,
          "midi": 56,
          "name": "G#3",
          "ticks": 81682,
          "time": 185.6409090909091,
          "velocity": 1
        },
        {
          "duration": 0.009090909090900823,
          "durationTicks": 4,
          "midi": 47,
          "name": "B2",
          "ticks": 81770,
          "time": 185.8409090909091,
          "velocity": 1
        },
        {
          "duration": 0.1909090909090878,
          "durationTicks": 84,
          "midi": 49,
          "name": "C#3",
          "ticks": 81853,
          "time": 186.02954545454546,
          "velocity": 1
        },
        {
          "duration": 0.13863636363635123,
          "durationTicks": 61,
          "midi": 58,
          "name": "A#3",
          "ticks": 81937,
          "time": 186.22045454545454,
          "velocity": 1
        },
        {
          "duration": 1.220454545454544,
          "durationTicks": 537,
          "midi": 58,
          "name": "A#3",
          "ticks": 83547,
          "time": 189.87954545454545,
          "velocity": 1
        },
        {
          "duration": 0.1909090909090878,
          "durationTicks": 84,
          "midi": 53,
          "name": "F3",
          "ticks": 84172,
          "time": 191.3,
          "velocity": 1
        },
        {
          "duration": 1.0090909090909008,
          "durationTicks": 444,
          "midi": 56,
          "name": "G#3",
          "ticks": 84260,
          "time": 191.5,
          "velocity": 1
        },
        {
          "duration": 0.22954545454547315,
          "durationTicks": 101,
          "midi": 53,
          "name": "F3",
          "ticks": 85681,
          "time": 194.72954545454544,
          "velocity": 1
        },
        {
          "duration": 0.1590909090909065,
          "durationTicks": 70,
          "midi": 48,
          "name": "C3",
          "ticks": 85774,
          "time": 194.9409090909091,
          "velocity": 1
        },
        {
          "duration": 1.2181818181817903,
          "durationTicks": 536,
          "midi": 53,
          "name": "F3",
          "ticks": 85862,
          "time": 195.1409090909091,
          "velocity": 1
        },
        {
          "duration": 1.2318181818181984,
          "durationTicks": 542,
          "midi": 51,
          "name": "D#3",
          "ticks": 86398,
          "time": 196.3590909090909,
          "velocity": 1
        },
        {
          "duration": 0.20000000000001705,
          "durationTicks": 88,
          "midi": 51,
          "name": "D#3",
          "ticks": 87028,
          "time": 197.79090909090908,
          "velocity": 1
        },
        {
          "duration": 0.6500000000000057,
          "durationTicks": 286,
          "midi": 56,
          "name": "G#3",
          "ticks": 87120,
          "time": 198,
          "velocity": 1
        }
      ],
      "endOfTrackTicks": 87407
    },
    {
      "channel": 1,
      "controlChanges": {},
      "pitchBends": [],
      "instrument": {
        "family": "ensemble",
        "number": 52,
        "name": "choir aahs"
      },
      "name": "",
      "notes": [
        {
          "duration": 0.5909090909090935,
          "durationTicks": 260,
          "midi": 70,
          "name": "A#4",
          "ticks": 32177,
          "time": 73.12954545454545,
          "velocity": 1
        },
        {
          "duration": 0.19999999999998863,
          "durationTicks": 88,
          "midi": 68,
          "name": "G#4",
          "ticks": 56346,
          "time": 128.0590909090909,
          "velocity": 1
        },
        {
          "duration": 0.19999999999998863,
          "durationTicks": 88,
          "midi": 72,
          "name": "C5",
          "ticks": 56346,
          "time": 128.0590909090909,
          "velocity": 1
        },
        {
          "duration": 0.7613636363636545,
          "durationTicks": 335,
          "midi": 70,
          "name": "A#4",
          "ticks": 56434,
          "time": 128.2590909090909,
          "velocity": 1
        },
        {
          "duration": 0.7613636363636545,
          "durationTicks": 335,
          "midi": 73,
          "name": "C#5",
          "ticks": 56434,
          "time": 128.2590909090909,
          "velocity": 1
        },
        {
          "duration": 1.8613636363636203,
          "durationTicks": 819,
          "midi": 65,
          "name": "F4",
          "ticks": 68565,
          "time": 155.82954545454547,
          "velocity": 1
        },
        {
          "duration": 0.10909090909092356,
          "durationTicks": 48,
          "midi": 65,
          "name": "F4",
          "ticks": 74884,
          "time": 170.1909090909091,
          "velocity": 1
        },
        {
          "duration": 0.25909090909092924,
          "durationTicks": 114,
          "midi": 75,
          "name": "D#5",
          "ticks": 74985,
          "time": 170.42045454545453,
          "velocity": 1
        },
        {
          "duration": 0.20909090909091788,
          "durationTicks": 92,
          "midi": 75,
          "name": "D#5",
          "ticks": 75104,
          "time": 170.6909090909091,
          "velocity": 1
        },
        {
          "duration": 0.12045454545454959,
          "durationTicks": 53,
          "midi": 65,
          "name": "F4",
          "ticks": 75240,
          "time": 171,
          "velocity": 1
        },
        {
          "duration": 0.19090909090911623,
          "durationTicks": 84,
          "midi": 68,
          "name": "G#4",
          "ticks": 75328,
          "time": 171.2,
          "velocity": 1
        },
        {
          "duration": 0.5999999999999943,
          "durationTicks": 264,
          "midi": 61,
          "name": "C#4",
          "ticks": 75429,
          "time": 171.42954545454546,
          "velocity": 1
        },
        {
          "duration": 1.220454545454544,
          "durationTicks": 537,
          "midi": 63,
          "name": "D#4",
          "ticks": 78729,
          "time": 178.92954545454546,
          "velocity": 1
        },
        {
          "duration": 1.220454545454544,
          "durationTicks": 537,
          "midi": 68,
          "name": "G#4",
          "ticks": 78729,
          "time": 178.92954545454546,
          "velocity": 1
        },
        {
          "duration": 1.220454545454544,
          "durationTicks": 537,
          "midi": 72,
          "name": "C5",
          "ticks": 78729,
          "time": 178.92954545454546,
          "velocity": 1
        },
        {
          "duration": 0.07045454545453822,
          "durationTicks": 31,
          "midi": 56,
          "name": "G#3",
          "ticks": 79266,
          "time": 180.15,
          "velocity": 1
        },
        {
          "duration": 0.07045454545453822,
          "durationTicks": 31,
          "midi": 60,
          "name": "C4",
          "ticks": 79266,
          "time": 180.15,
          "velocity": 1
        },
        {
          "duration": 0.07045454545453822,
          "durationTicks": 31,
          "midi": 63,
          "name": "D#4",
          "ticks": 79266,
          "time": 180.15,
          "velocity": 1
        }
      ],
      "endOfTrackTicks": 79298
    },
    {
      "channel": 2,
      "controlChanges": {},
      "pitchBends": [],
      "instrument": {
        "family": "reed",
        "number": 66,
        "name": "tenor sax"
      },
      "name": "",
      "notes": [
        {
          "duration": 0.2204545454545439,
          "durationTicks": 97,
          "midi": 56,
          "name": "G#3",
          "ticks": 55000,
          "time": 125,
          "velocity": 1
        },
        {
          "duration": 0.08181818181819267,
          "durationTicks": 36,
          "midi": 58,
          "name": "A#3",
          "ticks": 55092,
          "time": 125.2090909090909,
          "velocity": 1
        },
        {
          "duration": 0.07954545454545325,
          "durationTicks": 35,
          "midi": 61,
          "name": "C#4",
          "ticks": 55176,
          "time": 125.4,
          "velocity": 1
        },
        {
          "duration": 0.32045454545455243,
          "durationTicks": 141,
          "midi": 58,
          "name": "A#3",
          "ticks": 55264,
          "time": 125.6,
          "velocity": 1
        },
        {
          "duration": 0.2204545454545439,
          "durationTicks": 97,
          "midi": 61,
          "name": "C#4",
          "ticks": 55422,
          "time": 125.9590909090909,
          "velocity": 1
        },
        {
          "duration": 0.20000000000000284,
          "durationTicks": 88,
          "midi": 58,
          "name": "A#3",
          "ticks": 55532,
          "time": 126.2090909090909,
          "velocity": 1
        },
        {
          "duration": 0.29999999999999716,
          "durationTicks": 132,
          "midi": 61,
          "name": "C#4",
          "ticks": 55713,
          "time": 126.62045454545455,
          "velocity": 1
        }
      ],
      "endOfTrackTicks": 55846
    },
    {
      "channel": 3,
      "controlChanges": {},
      "pitchBends": [],
      "instrument": {
        "family": "brass",
        "number": 60,
        "name": "french horn"
      },
      "name": "",
      "notes": [
        {
          "duration": 1.9295454545454618,
          "durationTicks": 849,
          "midi": 70,
          "name": "A#4",
          "ticks": 72138,
          "time": 163.95,
          "velocity": 1
        }
      ],
      "endOfTrackTicks": 72988
    }
  ]
}