{
  "header": {
    "keySignatures": [
      {
        "key": "C",
        "scale": "major",
        "ticks": 0
      }
    ],
    "meta": [],
    "name": "transcribed (1)",
    "ppq": 480,
    "tempos": [
      {
        "bpm": 120,
        "ticks": 0
      }
    ],
    "timeSignatures": [
      {
        "ticks": 0,
        "timeSignature": [
          4,
          4
        ],
        "measures": 0
      }
    ]
  },
  "tracks": [
    {
      "channel": 0,
      "controlChanges": {},
      "pitchBends": [],
      "instrument": {
        "family": "piano",
        "number": 0,
        "name": "acoustic grand piano"
      },
      "name": "transcribed (1)",
      "notes": [
        {
          "duration": 3.7614583333333336,
          "durationTicks": 3611,
          "midi": 65,
          "name": "F4",
          "ticks": 360,
          "time": 0.375,
          "velocity": 1
        },
        {
          "duration": 2.890625,
          "durationTicks": 2775,
          "midi": 70,
          "name": "A#4",
          "ticks": 1200,
          "time": 1.25,
          "velocity": 1
        },
        {
          "duration": 1.5322916666666666,
          "durationTicks": 1471,
          "midi": 72,
          "name": "C5",
          "ticks": 2520,
          "time": 2.625,
          "velocity": 1
        },
        {
          "duration": 2.4593749999999996,
          "durationTicks": 2361,
          "midi": 65,
          "name": "F4",
          "ticks": 5160,
          "time": 5.375,
          "velocity": 1
        },
        {
          "duration": 0.48020833333333357,
          "durationTicks": 461,
          "midi": 72,
          "name": "C5",
          "ticks": 7080,
          "time": 7.375,
          "velocity": 1
        },
        {
          "duration": 0.03229166666666661,
          "durationTicks": 31,
          "midi": 46,
          "name": "A#2",
          "ticks": 7440,
          "time": 7.75,
          "velocity": 1
        },
        {
          "duration": 2.4499999999999993,
          "durationTicks": 2352,
          "midi": 46,
          "name": "A#2",
          "ticks": 7440,
          "time": 7.75,
          "velocity": 1
        },
        {
          "duration": 1.8208333333333329,
          "durationTicks": 1748,
          "midi": 56,
          "name": "G#3",
          "ticks": 7440,
          "time": 7.75,
          "velocity": 1
        },
        {
          "duration": 1.8208333333333329,
          "durationTicks": 1748,
          "midi": 63,
          "name": "D#4",
          "ticks": 7440,
          "time": 7.75,
          "velocity": 1
        },
        {
          "duration": 1.8208333333333329,
          "durationTicks": 1748,
          "midi": 67,
          "name": "G4",
          "ticks": 7440,
          "time": 7.75,
          "velocity": 1
        },
        {
          "duration": 0.4499999999999993,
          "durationTicks": 432,
          "midi": 74,
          "name": "D5",
          "ticks": 7440,
          "time": 7.75,
          "velocity": 1
        },
        {
          "duration": 0.5208333333333339,
          "durationTicks": 500,
          "midi": 79,
          "name": "G5",
          "ticks": 7800,
          "time": 8.125,
          "velocity": 1
        },
        {
          "duration": 0.9093750000000007,
          "durationTicks": 873,
          "midi": 70,
          "name": "A#4",
          "ticks": 8280,
          "time": 8.625,
          "velocity": 1
        },
        {
          "duration": 0.9093750000000007,
          "durationTicks": 873,
          "midi": 77,
          "name": "F5",
          "ticks": 8280,
          "time": 8.625,
          "velocity": 1
        },
        {
          "duration": 1,
          "durationTicks": 960,
          "midi": 56,
          "name": "G#3",
          "ticks": 9120,
          "time": 9.5,
          "velocity": 1
        },
        {
          "duration": 1,
          "durationTicks": 960,
          "midi": 62,
          "name": "D4",
          "ticks": 9120,
          "time": 9.5,
          "velocity": 1
        },
        {
          "duration": 1,
          "durationTicks": 960,
          "midi": 66,
          "name": "F#4",
          "ticks": 9120,
          "time": 9.5,
          "velocity": 1
        },
        {
          "duration": 1,
          "durationTicks": 960,
          "midi": 74,
          "name": "D5",
          "ticks": 9120,
          "time": 9.5,
          "velocity": 1
        },
        {
          "duration": 4.6708333333333325,
          "durationTicks": 4484,
          "midi": 55,
          "name": "G3",
          "ticks": 10080,
          "time": 10.5,
          "velocity": 1
        },
        {
          "duration": 4.6708333333333325,
          "durationTicks": 4484,
          "midi": 60,
          "name": "C4",
          "ticks": 10080,
          "time": 10.5,
          "velocity": 1
        },
        {
          "duration": 1.5114583333333336,
          "durationTicks": 1451,
          "midi": 65,
          "name": "F4",
          "ticks": 10080,
          "time": 10.5,
          "velocity": 1
        },
        {
          "duration": 1.8000000000000007,
          "durationTicks": 1728,
          "midi": 72,
          "name": "C5",
          "ticks": 10080,
          "time": 10.5,
          "velocity": 1
        },
        {
          "duration": 1.4291666666666671,
          "durationTicks": 1372,
          "midi": 46,
          "name": "A#2",
          "ticks": 10440,
          "time": 10.875,
          "velocity": 1
        },
        {
          "duration": 0.8302083333333332,
          "durationTicks": 797,
          "midi": 70,
          "name": "A#4",
          "ticks": 11040,
          "time": 11.5,
          "velocity": 1
        },
        {
          "duration": 2.270833333333334,
          "durationTicks": 2180,
          "midi": 62,
          "name": "D4",
          "ticks": 11520,
          "time": 12,
          "velocity": 1
        },
        {
          "duration": 3.1593750000000007,
          "durationTicks": 3033,
          "midi": 65,
          "name": "F4",
          "ticks": 11520,
          "time": 12,
          "velocity": 1
        },
        {
          "duration": 3.1500000000000004,
          "durationTicks": 3024,
          "midi": 67,
          "name": "G4",
          "ticks": 11520,
          "time": 12,
          "velocity": 1
        },
        {
          "duration": 0.15000000000000036,
          "durationTicks": 144,
          "midi": 70,
          "name": "A#4",
          "ticks": 14400,
          "time": 15,
          "velocity": 1
        },
        {
          "duration": 0.7385416666666664,
          "durationTicks": 709,
          "midi": 51,
          "name": "D#3",
          "ticks": 14760,
          "time": 15.375,
          "velocity": 1
        },
        {
          "duration": 0.7385416666666664,
          "durationTicks": 709,
          "midi": 60,
          "name": "C4",
          "ticks": 14760,
          "time": 15.375,
          "velocity": 1
        },
        {
          "duration": 0.7385416666666664,
          "durationTicks": 709,
          "midi": 66,
          "name": "F#4",
          "ticks": 14760,
          "time": 15.375,
          "velocity": 1
        },
        {
          "duration": 0.7385416666666664,
          "durationTicks": 709,
          "midi": 70,
          "name": "A#4",
          "ticks": 14760,
          "time": 15.375,
          "velocity": 1
        },
        {
          "duration": 0.7385416666666664,
          "durationTicks": 709,
          "midi": 74,
          "name": "D5",
          "ticks": 14760,
          "time": 15.375,
          "velocity": 1
        },
        {
          "duration": 0.4208333333333343,
          "durationTicks": 404,
          "midi": 75,
          "name": "D#5",
          "ticks": 15120,
          "time": 15.75,
          "velocity": 1
        },
        {
          "duration": 4.309374999999999,
          "durationTicks": 4137,
          "midi": 65,
          "name": "F4",
          "ticks": 15480,
          "time": 16.125,
          "velocity": 1
        },
        {
          "duration": 0.6000000000000014,
          "durationTicks": 576,
          "midi": 72,
          "name": "C5",
          "ticks": 15480,
          "time": 16.125,
          "velocity": 1
        },
        {
          "duration": 0.25,
          "durationTicks": 240,
          "midi": 77,
          "name": "F5",
          "ticks": 15480,
          "time": 16.125,
          "velocity": 1
        },
        {
          "duration": 0.7406250000000014,
          "durationTicks": 711,
          "midi": 70,
          "name": "A#4",
          "ticks": 16080,
          "time": 16.75,
          "velocity": 1
        },
        {
          "duration": 3.638541666666665,
          "durationTicks": 3493,
          "midi": 69,
          "name": "A4",
          "ticks": 16800,
          "time": 17.5,
          "velocity": 1
        },
        {
          "duration": 0.8500000000000014,
          "durationTicks": 816,
          "midi": 79,
          "name": "G5",
          "ticks": 18000,
          "time": 18.75,
          "velocity": 1
        },
        {
          "duration": 0.5208333333333321,
          "durationTicks": 500,
          "midi": 77,
          "name": "F5",
          "ticks": 18840,
          "time": 19.625,
          "velocity": 1
        },
        {
          "duration": 1,
          "durationTicks": 960,
          "midi": 74,
          "name": "D5",
          "ticks": 19320,
          "time": 20.125,
          "velocity": 1
        },
        {
          "duration": 0.4208333333333343,
          "durationTicks": 404,
          "midi": 70,
          "name": "A#4",
          "ticks": 20280,
          "time": 21.125,
          "velocity": 1
        },
        {
          "duration": 1.970833333333335,
          "durationTicks": 1892,
          "midi": 43,
          "name": "G2",
          "ticks": 20640,
          "time": 21.5,
          "velocity": 1
        },
        {
          "duration": 1.970833333333335,
          "durationTicks": 1892,
          "midi": 53,
          "name": "F3",
          "ticks": 20640,
          "time": 21.5,
          "velocity": 1
        },
        {
          "duration": 1.970833333333335,
          "durationTicks": 1892,
          "midi": 58,
          "name": "A#3",
          "ticks": 20640,
          "time": 21.5,
          "velocity": 1
        },
        {
          "duration": 1.970833333333335,
          "durationTicks": 1892,
          "midi": 62,
          "name": "D4",
          "ticks": 20640,
          "time": 21.5,
          "velocity": 1
        },
        {
          "duration": 0.42916666666666714,
          "durationTicks": 412,
          "midi": 69,
          "name": "A4",
          "ticks": 20640,
          "time": 21.5,
          "velocity": 1
        },
        {
          "duration": 0.43020833333333286,
          "durationTicks": 413,
          "midi": 67,
          "name": "G4",
          "ticks": 21120,
          "time": 22,
          "velocity": 1
        },
        {
          "duration": 0.5416666666666679,
          "durationTicks": 520,
          "midi": 74,
          "name": "D5",
          "ticks": 21480,
          "time": 22.375,
          "velocity": 1
        },
        {
          "duration": 0.5708333333333329,
          "durationTicks": 548,
          "midi": 72,
          "name": "C5",
          "ticks": 22080,
          "time": 23,
          "velocity": 1
        },
        {
          "duration": 2.130208333333332,
          "durationTicks": 2045,
          "midi": 48,
          "name": "C3",
          "ticks": 22560,
          "time": 23.5,
          "velocity": 1
        },
        {
          "duration": 1.080208333333335,
          "durationTicks": 1037,
          "midi": 53,
          "name": "F3",
          "ticks": 22560,
          "time": 23.5,
          "velocity": 1
        },
        {
          "duration": 2.130208333333332,
          "durationTicks": 2045,
          "midi": 58,
          "name": "A#3",
          "ticks": 22560,
          "time": 23.5,
          "velocity": 1
        },
        {
          "duration": 2.130208333333332,
          "durationTicks": 2045,
          "midi": 62,
          "name": "D4",
          "ticks": 22560,
          "time": 23.5,
          "velocity": 1
        },
        {
          "duration": 0.5500000000000007,
          "durationTicks": 528,
          "midi": 69,
          "name": "A4",
          "ticks": 22560,
          "time": 23.5,
          "velocity": 1
        },
        {
          "duration": 0.5,
          "durationTicks": 480,
          "midi": 70,
          "name": "A#4",
          "ticks": 23040,
          "time": 24,
          "velocity": 1
        },
        {
          "duration": 1.0416666666666679,
          "durationTicks": 1000,
          "midi": 52,
          "name": "E3",
          "ticks": 23640,
          "time": 24.625,
          "velocity": 1
        },
        {
          "duration": 1.0416666666666679,
          "durationTicks": 1000,
          "midi": 67,
          "name": "G4",
          "ticks": 23640,
          "time": 24.625,
          "velocity": 1
        },
        {
          "duration": 3.0114583333333336,
          "durationTicks": 2891,
          "midi": 41,
          "name": "F2",
          "ticks": 24600,
          "time": 25.625,
          "velocity": 1
        },
        {
          "duration": 3.0114583333333336,
          "durationTicks": 2891,
          "midi": 51,
          "name": "D#3",
          "ticks": 24600,
          "time": 25.625,
          "velocity": 1
        },
        {
          "duration": 0.7614583333333336,
          "durationTicks": 731,
          "midi": 58,
          "name": "A#3",
          "ticks": 24600,
          "time": 25.625,
          "velocity": 1
        },
        {
          "duration": 0.7614583333333336,
          "durationTicks": 731,
          "midi": 63,
          "name": "D#4",
          "ticks": 24600,
          "time": 25.625,
          "velocity": 1
        },
        {
          "duration": 0.7614583333333336,
          "durationTicks": 731,
          "midi": 67,
          "name": "G4",
          "ticks": 24600,
          "time": 25.625,
          "velocity": 1
        },
        {
          "duration": 2.241666666666667,
          "durationTicks": 2152,
          "midi": 57,
          "name": "A3",
          "ticks": 25320,
          "time": 26.375,
          "velocity": 1
        },
        {
          "duration": 2.241666666666667,
          "durationTicks": 2152,
          "midi": 62,
          "name": "D4",
          "ticks": 25320,
          "time": 26.375,
          "velocity": 1
        },
        {
          "duration": 2.241666666666667,
          "durationTicks": 2152,
          "midi": 65,
          "name": "F4",
          "ticks": 25320,
          "time": 26.375,
          "velocity": 1
        },
        {
          "duration": 0.720833333333335,
          "durationTicks": 692,
          "midi": 70,
          "name": "A#4",
          "ticks": 26880,
          "time": 28,
          "velocity": 1
        },
        {
          "duration": 0.529166666666665,
          "durationTicks": 508,
          "midi": 72,
          "name": "C5",
          "ticks": 27120,
          "time": 28.25,
          "velocity": 1
        },
        {
          "duration": 2.491666666666667,
          "durationTicks": 2392,
          "midi": 46,
          "name": "A#2",
          "ticks": 27600,
          "time": 28.75,
          "velocity": 1
        },
        {
          "duration": 1.2916666666666679,
          "durationTicks": 1240,
          "midi": 54,
          "name": "F#3",
          "ticks": 27600,
          "time": 28.75,
          "velocity": 1
        },
        {
          "duration": 1.2916666666666679,
          "durationTicks": 1240,
          "midi": 57,
          "name": "A3",
          "ticks": 27600,
          "time": 28.75,
          "velocity": 1
        },
        {
          "duration": 2.720833333333335,
          "durationTicks": 2612,
          "midi": 62,
          "name": "D4",
          "ticks": 27600,
          "time": 28.75,
          "velocity": 1
        },
        {
          "duration": 1.3114583333333343,
          "durationTicks": 1259,
          "midi": 66,
          "name": "F#4",
          "ticks": 27600,
          "time": 28.75,
          "velocity": 1
        },
        {
          "duration": 1.3114583333333343,
          "durationTicks": 1259,
          "midi": 69,
          "name": "A4",
          "ticks": 27600,
          "time": 28.75,
          "velocity": 1
        },
        {
          "duration": 1.9593750000000014,
          "durationTicks": 1881,
          "midi": 74,
          "name": "D5",
          "ticks": 27600,
          "time": 28.75,
          "velocity": 1
        },
        {
          "duration": 2.12916666666667,
          "durationTicks": 2044,
          "midi": 55,
          "name": "G3",
          "ticks": 28800,
          "time": 30,
          "velocity": 1
        },
        {
          "duration": 2.1385416666666686,
          "durationTicks": 2053,
          "midi": 58,
          "name": "A#3",
          "ticks": 28800,
          "time": 30,
          "velocity": 1
        },
        {
          "duration": 2.1499999999999986,
          "durationTicks": 2064,
          "midi": 67,
          "name": "G4",
          "ticks": 28800,
          "time": 30,
          "velocity": 1
        },
        {
          "duration": 0.4187499999999993,
          "durationTicks": 402,
          "midi": 72,
          "name": "C5",
          "ticks": 29760,
          "time": 31,
          "velocity": 1
        },
        {
          "duration": 0.859375,
          "durationTicks": 825,
          "midi": 46,
          "name": "A#2",
          "ticks": 30000,
          "time": 31.25,
          "velocity": 1
        },
        {
          "duration": 2.8999999999999986,
          "durationTicks": 2784,
          "midi": 56,
          "name": "G#3",
          "ticks": 30240,
          "time": 31.5,
          "velocity": 1
        },
        {
          "duration": 0.62916666666667,
          "durationTicks": 604,
          "midi": 60,
          "name": "C4",
          "ticks": 30240,
          "time": 31.5,
          "velocity": 1
        },
        {
          "duration": 0.6385416666666686,
          "durationTicks": 613,
          "midi": 62,
          "name": "D4",
          "ticks": 30240,
          "time": 31.5,
          "velocity": 1
        },
        {
          "duration": 0.6416666666666657,
          "durationTicks": 616,
          "midi": 68,
          "name": "G#4",
          "ticks": 30240,
          "time": 31.5,
          "velocity": 1
        },
        {
          "duration": 0.6000000000000014,
          "durationTicks": 576,
          "midi": 72,
          "name": "C5",
          "ticks": 30240,
          "time": 31.5,
          "velocity": 1
        },
        {
          "duration": 0.6708333333333343,
          "durationTicks": 644,
          "midi": 74,
          "name": "D5",
          "ticks": 30240,
          "time": 31.5,
          "velocity": 1
        },
        {
          "duration": 0.7708333333333357,
          "durationTicks": 740,
          "midi": 72,
          "name": "C5",
          "ticks": 30720,
          "time": 32,
          "velocity": 1
        },
        {
          "duration": 0.7000000000000028,
          "durationTicks": 672,
          "midi": 79,
          "name": "G5",
          "ticks": 30720,
          "time": 32,
          "velocity": 1
        },
        {
          "duration": 0.7208333333333314,
          "durationTicks": 692,
          "midi": 63,
          "name": "D#4",
          "ticks": 30840,
          "time": 32.125,
          "velocity": 1
        },
        {
          "duration": 0.6385416666666686,
          "durationTicks": 613,
          "midi": 68,
          "name": "G#4",
          "ticks": 30840,
          "time": 32.125,
          "velocity": 1
        },
        {
          "duration": 0.73020833333333,
          "durationTicks": 701,
          "midi": 62,
          "name": "D4",
          "ticks": 31560,
          "time": 32.875,
          "velocity": 1
        },
        {
          "duration": 0.73020833333333,
          "durationTicks": 701,
          "midi": 77,
          "name": "F5",
          "ticks": 31560,
          "time": 32.875,
          "velocity": 1
        },
        {
          "duration": 0.8416666666666686,
          "durationTicks": 808,
          "midi": 66,
          "name": "F#4",
          "ticks": 32280,
          "time": 33.625,
          "velocity": 1
        },
        {
          "duration": 0.8416666666666686,
          "durationTicks": 808,
          "midi": 74,
          "name": "D5",
          "ticks": 32280,
          "time": 33.625,
          "velocity": 1
        },
        {
          "duration": 4.209375000000001,
          "durationTicks": 4041,
          "midi": 55,
          "name": "G3",
          "ticks": 33000,
          "time": 34.375,
          "velocity": 1
        },
        {
          "duration": 1.1000000000000014,
          "durationTicks": 1056,
          "midi": 60,
          "name": "C4",
          "ticks": 33000,
          "time": 34.375,
          "velocity": 1
        },
        {
          "duration": 1.1000000000000014,
          "durationTicks": 1056,
          "midi": 65,
          "name": "F4",
          "ticks": 33000,
          "time": 34.375,
          "velocity": 1
        },
        {
          "duration": 3.4593750000000014,
          "durationTicks": 3321,
          "midi": 39,
          "name": "D#2",
          "ticks": 33720,
          "time": 35.125,
          "velocity": 1
        },
        {
          "duration": 0.8999999999999986,
          "durationTicks": 864,
          "midi": 63,
          "name": "D#4",
          "ticks": 34080,
          "time": 35.5,
          "velocity": 1
        },
        {
          "duration": 0.8291666666666657,
          "durationTicks": 796,
          "midi": 70,
          "name": "A#4",
          "ticks": 34080,
          "time": 35.5,
          "velocity": 1
        },
        {
          "duration": 0.7093750000000014,
          "durationTicks": 681,
          "midi": 62,
          "name": "D4",
          "ticks": 34680,
          "time": 36.125,
          "velocity": 1
        },
        {
          "duration": 0.6499999999999986,
          "durationTicks": 624,
          "midi": 67,
          "name": "G4",
          "ticks": 34800,
          "time": 36.25,
          "velocity": 1
        },
        {
          "duration": 2.2802083333333343,
          "durationTicks": 2189,
          "midi": 69,
          "name": "A4",
          "ticks": 37200,
          "time": 38.75,
          "velocity": 1
        },
        {
          "duration": 1.1114583333333314,
          "durationTicks": 1067,
          "midi": 51,
          "name": "D#3",
          "ticks": 37560,
          "time": 39.125,
          "velocity": 1
        },
        {
          "duration": 1.12083333333333,
          "durationTicks": 1076,
          "midi": 60,
          "name": "C4",
          "ticks": 37560,
          "time": 39.125,
          "velocity": 1
        },
        {
          "duration": 1.12083333333333,
          "durationTicks": 1076,
          "midi": 66,
          "name": "F#4",
          "ticks": 37560,
          "time": 39.125,
          "velocity": 1
        },
        {
          "duration": 0.3999999999999986,
          "durationTicks": 384,
          "midi": 70,
          "name": "A#4",
          "ticks": 37560,
          "time": 39.125,
          "velocity": 1
        },
        {
          "duration": 0.75,
          "durationTicks": 720,
          "midi": 72,
          "name": "C5",
          "ticks": 37920,
          "time": 39.5,
          "velocity": 1
        },
        {
          "duration": 1.1000000000000014,
          "durationTicks": 1056,
          "midi": 50,
          "name": "D3",
          "ticks": 38760,
          "time": 40.375,
          "velocity": 1
        },
        {
          "duration": 1.0885416666666643,
          "durationTicks": 1045,
          "midi": 60,
          "name": "C4",
          "ticks": 38760,
          "time": 40.375,
          "velocity": 1
        },
        {
          "duration": 1.1187499999999986,
          "durationTicks": 1074,
          "midi": 66,
          "name": "F#4",
          "ticks": 38760,
          "time": 40.375,
          "velocity": 1
        },
        {
          "duration": 0.6000000000000014,
          "durationTicks": 576,
          "midi": 70,
          "name": "A#4",
          "ticks": 38760,
          "time": 40.375,
          "velocity": 1
        },
        {
          "duration": 0.5885416666666643,
          "durationTicks": 565,
          "midi": 74,
          "name": "D5",
          "ticks": 38760,
          "time": 40.375,
          "velocity": 1
        },
        {
          "duration": 0.5187499999999972,
          "durationTicks": 498,
          "midi": 69,
          "name": "A4",
          "ticks": 39360,
          "time": 41,
          "velocity": 1
        },
        {
          "duration": 1.7916666666666643,
          "durationTicks": 1720,
          "midi": 43,
          "name": "G2",
          "ticks": 39840,
          "time": 41.5,
          "velocity": 1
        },
        {
          "duration": 1.7916666666666643,
          "durationTicks": 1720,
          "midi": 50,
          "name": "D3",
          "ticks": 39840,
          "time": 41.5,
          "velocity": 1
        },
        {
          "duration": 1.7916666666666643,
          "durationTicks": 1720,
          "midi": 58,
          "name": "A#3",
          "ticks": 39840,
          "time": 41.5,
          "velocity": 1
        },
        {
          "duration": 1.7916666666666643,
          "durationTicks": 1720,
          "midi": 62,
          "name": "D4",
          "ticks": 39840,
          "time": 41.5,
          "velocity": 1
        },
        {
          "duration": 1.7916666666666643,
          "durationTicks": 1720,
          "midi": 66,
          "name": "F#4",
          "ticks": 39840,
          "time": 41.5,
          "velocity": 1
        },
        {
          "duration": 1.7916666666666643,
          "durationTicks": 1720,
          "midi": 69,
          "name": "A4",
          "ticks": 39840,
          "time": 41.5,
          "velocity": 1
        },
        {
          "duration": 1.1708333333333343,
          "durationTicks": 1124,
          "midi": 59,
          "name": "B3",
          "ticks": 41520,
          "time": 43.25,
          "velocity": 1
        },
        {
          "duration": 1.1708333333333343,
          "durationTicks": 1124,
          "midi": 65,
          "name": "F4",
          "ticks": 41520,
          "time": 43.25,
          "velocity": 1
        },
        {
          "duration": 1.1708333333333343,
          "durationTicks": 1124,
          "midi": 68,
          "name": "G#4",
          "ticks": 41520,
          "time": 43.25,
          "velocity": 1
        },
        {
          "duration": 1.1708333333333343,
          "durationTicks": 1124,
          "midi": 75,
          "name": "D#5",
          "ticks": 41520,
          "time": 43.25,
          "velocity": 1
        },
        {
          "duration": 1.2208333333333314,
          "durationTicks": 1172,
          "midi": 48,
          "name": "C3",
          "ticks": 42720,
          "time": 44.5,
          "velocity": 1
        },
        {
          "duration": 1.2208333333333314,
          "durationTicks": 1172,
          "midi": 58,
          "name": "A#3",
          "ticks": 42720,
          "time": 44.5,
          "velocity": 1
        },
        {
          "duration": 0.5302083333333343,
          "durationTicks": 509,
          "midi": 65,
          "name": "F4",
          "ticks": 42720,
          "time": 44.5,
          "velocity": 1
        },
        {
          "duration": 0.5302083333333343,
          "durationTicks": 509,
          "midi": 69,
          "name": "A4",
          "ticks": 42720,
          "time": 44.5,
          "velocity": 1
        },
        {
          "duration": 0.5302083333333343,
          "durationTicks": 509,
          "midi": 74,
          "name": "D5",
          "ticks": 42720,
          "time": 44.5,
          "velocity": 1
        },
        {
          "duration": 3.049999999999997,
          "durationTicks": 2928,
          "midi": 67,
          "name": "G4",
          "ticks": 43200,
          "time": 45,
          "velocity": 1
        },
        {
          "duration": 0.6906249999999972,
          "durationTicks": 663,
          "midi": 72,
          "name": "C5",
          "ticks": 43200,
          "time": 45,
          "velocity": 1
        },
        {
          "duration": 2.359375,
          "durationTicks": 2265,
          "midi": 41,
          "name": "F2",
          "ticks": 43920,
          "time": 45.75,
          "velocity": 1
        },
        {
          "duration": 0.6802083333333329,
          "durationTicks": 653,
          "midi": 58,
          "name": "A#3",
          "ticks": 43920,
          "time": 45.75,
          "velocity": 1
        },
        {
          "duration": 2.359375,
          "durationTicks": 2265,
          "midi": 63,
          "name": "D#4",
          "ticks": 43920,
          "time": 45.75,
          "velocity": 1
        },
        {
          "duration": 1.6802083333333329,
          "durationTicks": 1613,
          "midi": 57,
          "name": "A3",
          "ticks": 44520,
          "time": 46.375,
          "velocity": 1
        },
        {
          "duration": 1.6802083333333329,
          "durationTicks": 1613,
          "midi": 72,
          "name": "C5",
          "ticks": 44520,
          "time": 46.375,
          "velocity": 1
        },
        {
          "duration": 0.69166666666667,
          "durationTicks": 664,
          "midi": 53,
          "name": "F3",
          "ticks": 46200,
          "time": 48.125,
          "velocity": 1
        },
        {
          "duration": 0.69166666666667,
          "durationTicks": 664,
          "midi": 70,
          "name": "A#4",
          "ticks": 46200,
          "time": 48.125,
          "velocity": 1
        },
        {
          "duration": 4.211458333333333,
          "durationTicks": 4043,
          "midi": 41,
          "name": "F2",
          "ticks": 46800,
          "time": 48.75,
          "velocity": 1
        },
        {
          "duration": 4.211458333333333,
          "durationTicks": 4043,
          "midi": 53,
          "name": "F3",
          "ticks": 46800,
          "time": 48.75,
          "velocity": 1
        },
        {
          "duration": 1.25,
          "durationTicks": 1200,
          "midi": 60,
          "name": "C4",
          "ticks": 46800,
          "time": 48.75,
          "velocity": 1
        },
        {
          "duration": 1.25,
          "durationTicks": 1200,
          "midi": 62,
          "name": "D4",
          "ticks": 46800,
          "time": 48.75,
          "velocity": 1
        },
        {
          "duration": 1.25,
          "durationTicks": 1200,
          "midi": 69,
          "name": "A4",
          "ticks": 46800,
          "time": 48.75,
          "velocity": 1
        },
        {
          "duration": 1.0093749999999986,
          "durationTicks": 969,
          "midi": 58,
          "name": "A#3",
          "ticks": 48000,
          "time": 50,
          "velocity": 1
        },
        {
          "duration": 1.0093749999999986,
          "durationTicks": 969,
          "midi": 60,
          "name": "C4",
          "ticks": 48000,
          "time": 50,
          "velocity": 1
        },
        {
          "duration": 1.0093749999999986,
          "durationTicks": 969,
          "midi": 63,
          "name": "D#4",
          "ticks": 48000,
          "time": 50,
          "velocity": 1
        },
        {
          "duration": 1.0093749999999986,
          "durationTicks": 969,
          "midi": 66,
          "name": "F#4",
          "ticks": 48000,
          "time": 50,
          "velocity": 1
        },
        {
          "duration": 1.9302083333333329,
          "durationTicks": 1853,
          "midi": 58,
          "name": "A#3",
          "ticks": 48960,
          "time": 51,
          "velocity": 1
        },
        {
          "duration": 1.9302083333333329,
          "durationTicks": 1853,
          "midi": 62,
          "name": "D4",
          "ticks": 48960,
          "time": 51,
          "velocity": 1
        },
        {
          "duration": 1.9302083333333329,
          "durationTicks": 1853,
          "midi": 65,
          "name": "F4",
          "ticks": 48960,
          "time": 51,
          "velocity": 1
        },
        {
          "duration": 0.33020833333333144,
          "durationTicks": 317,
          "midi": 77,
          "name": "F5",
          "ticks": 50520,
          "time": 52.625,
          "velocity": 1
        },
        {
          "duration": 0.2708333333333357,
          "durationTicks": 260,
          "midi": 51,
          "name": "D#3",
          "ticks": 50880,
          "time": 53,
          "velocity": 1
        },
        {
          "duration": 0.75,
          "durationTicks": 720,
          "midi": 60,
          "name": "C4",
          "ticks": 50880,
          "time": 53,
          "velocity": 1
        },
        {
          "duration": 0.75,
          "durationTicks": 720,
          "midi": 65,
          "name": "F4",
          "ticks": 50880,
          "time": 53,
          "velocity": 1
        },
        {
          "duration": 0.2708333333333357,
          "durationTicks": 260,
          "midi": 67,
          "name": "G4",
          "ticks": 50880,
          "time": 53,
          "velocity": 1
        },
        {
          "duration": 0.75,
          "durationTicks": 720,
          "midi": 69,
          "name": "A4",
          "ticks": 50880,
          "time": 53,
          "velocity": 1
        },
        {
          "duration": 0.2708333333333357,
          "durationTicks": 260,
          "midi": 72,
          "name": "C5",
          "ticks": 50880,
          "time": 53,
          "velocity": 1
        },
        {
          "duration": 0.3500000000000014,
          "durationTicks": 336,
          "midi": 79,
          "name": "G5",
          "ticks": 50880,
          "time": 53,
          "velocity": 1
        },
        {
          "duration": 0.3999999999999986,
          "durationTicks": 384,
          "midi": 81,
          "name": "A5",
          "ticks": 51240,
          "time": 53.375,
          "velocity": 1
        },
        {
          "duration": 3.070833333333333,
          "durationTicks": 2948,
          "midi": 50,
          "name": "D3",
          "ticks": 51600,
          "time": 53.75,
          "velocity": 1
        },
        {
          "duration": 3.070833333333333,
          "durationTicks": 2948,
          "midi": 60,
          "name": "C4",
          "ticks": 51600,
          "time": 53.75,
          "velocity": 1
        },
        {
          "duration": 1.23020833333333,
          "durationTicks": 1181,
          "midi": 65,
          "name": "F4",
          "ticks": 51600,
          "time": 53.75,
          "velocity": 1
        },
        {
          "duration": 3.070833333333333,
          "durationTicks": 2948,
          "midi": 70,
          "name": "A#4",
          "ticks": 51600,
          "time": 53.75,
          "velocity": 1
        },
        {
          "duration": 1.23020833333333,
          "durationTicks": 1181,
          "midi": 77,
          "name": "F5",
          "ticks": 51600,
          "time": 53.75,
          "velocity": 1
        },
        {
          "duration": 1.5708333333333329,
          "durationTicks": 1508,
          "midi": 82,
          "name": "A#5",
          "ticks": 51600,
          "time": 53.75,
          "velocity": 1
        },
        {
          "duration": 1.8406250000000028,
          "durationTicks": 1767,
          "midi": 66,
          "name": "F#4",
          "ticks": 52800,
          "time": 55,
          "velocity": 1
        },
        {
          "duration": 1.8406250000000028,
          "durationTicks": 1767,
          "midi": 74,
          "name": "D5",
          "ticks": 52800,
          "time": 55,
          "velocity": 1
        },
        {
          "duration": 1.37916666666667,
          "durationTicks": 1324,
          "midi": 78,
          "name": "F#5",
          "ticks": 52800,
          "time": 55,
          "velocity": 1
        },
        {
          "duration": 0.46145833333333286,
          "durationTicks": 443,
          "midi": 81,
          "name": "A5",
          "ticks": 54120,
          "time": 56.375,
          "velocity": 1
        },
        {
          "duration": 1.8885416666666686,
          "durationTicks": 1813,
          "midi": 51,
          "name": "D#3",
          "ticks": 54600,
          "time": 56.875,
          "velocity": 1
        },
        {
          "duration": 1.8885416666666686,
          "durationTicks": 1813,
          "midi": 60,
          "name": "C4",
          "ticks": 54600,
          "time": 56.875,
          "velocity": 1
        },
        {
          "duration": 1.8885416666666686,
          "durationTicks": 1813,
          "midi": 62,
          "name": "D4",
          "ticks": 54600,
          "time": 56.875,
          "velocity": 1
        },
        {
          "duration": 1.8885416666666686,
          "durationTicks": 1813,
          "midi": 67,
          "name": "G4",
          "ticks": 54600,
          "time": 56.875,
          "velocity": 1
        },
        {
          "duration": 0.5499999999999972,
          "durationTicks": 528,
          "midi": 74,
          "name": "D5",
          "ticks": 54600,
          "time": 56.875,
          "velocity": 1
        },
        {
          "duration": 1.5802083333333314,
          "durationTicks": 1517,
          "midi": 81,
          "name": "A5",
          "ticks": 54600,
          "time": 56.875,
          "velocity": 1
        },
        {
          "duration": 0.30937500000000284,
          "durationTicks": 297,
          "midi": 79,
          "name": "G5",
          "ticks": 56040,
          "time": 58.375,
          "velocity": 1
        },
        {
          "duration": 0.7114583333333329,
          "durationTicks": 683,
          "midi": 51,
          "name": "D#3",
          "ticks": 56400,
          "time": 58.75,
          "velocity": 1
        },
        {
          "duration": 0.7114583333333329,
          "durationTicks": 683,
          "midi": 61,
          "name": "C#4",
          "ticks": 56400,
          "time": 58.75,
          "velocity": 1
        },
        {
          "duration": 0.7802083333333343,
          "durationTicks": 749,
          "midi": 67,
          "name": "G4",
          "ticks": 56400,
          "time": 58.75,
          "velocity": 1
        },
        {
          "duration": 0.7802083333333343,
          "durationTicks": 749,
          "midi": 72,
          "name": "C5",
          "ticks": 56400,
          "time": 58.75,
          "velocity": 1
        },
        {
          "duration": 0.33020833333333144,
          "durationTicks": 317,
          "midi": 77,
          "name": "F5",
          "ticks": 56400,
          "time": 58.75,
          "velocity": 1
        },
        {
          "duration": 0.45000000000000284,
          "durationTicks": 432,
          "midi": 79,
          "name": "G5",
          "ticks": 56640,
          "time": 59,
          "velocity": 1
        },
        {
          "duration": 1.0791666666666657,
          "durationTicks": 1036,
          "midi": 50,
          "name": "D3",
          "ticks": 57000,
          "time": 59.375,
          "velocity": 1
        },
        {
          "duration": 1.0593750000000028,
          "durationTicks": 1017,
          "midi": 58,
          "name": "A#3",
          "ticks": 57000,
          "time": 59.375,
          "velocity": 1
        },
        {
          "duration": 1.0416666666666643,
          "durationTicks": 1000,
          "midi": 60,
          "name": "C4",
          "ticks": 57000,
          "time": 59.375,
          "velocity": 1
        },
        {
          "duration": 1.0708333333333329,
          "durationTicks": 1028,
          "midi": 65,
          "name": "F4",
          "ticks": 57000,
          "time": 59.375,
          "velocity": 1
        },
        {
          "duration": 1.1416666666666657,
          "durationTicks": 1096,
          "midi": 54,
          "name": "F#3",
          "ticks": 57960,
          "time": 60.375,
          "velocity": 1
        },
        {
          "duration": 1.1499999999999986,
          "durationTicks": 1104,
          "midi": 60,
          "name": "C4",
          "ticks": 57960,
          "time": 60.375,
          "velocity": 1
        },
        {
          "duration": 1,
          "durationTicks": 960,
          "midi": 66,
          "name": "F#4",
          "ticks": 57960,
          "time": 60.375,
          "velocity": 1
        },
        {
          "duration": 1.1593749999999972,
          "durationTicks": 1113,
          "midi": 70,
          "name": "A#4",
          "ticks": 57960,
          "time": 60.375,
          "velocity": 1
        },
        {
          "duration": 1.1802083333333329,
          "durationTicks": 1133,
          "midi": 74,
          "name": "D5",
          "ticks": 57960,
          "time": 60.375,
          "velocity": 1
        },
        {
          "duration": 3.0208333333333286,
          "durationTicks": 2900,
          "midi": 43,
          "name": "G2",
          "ticks": 59040,
          "time": 61.5,
          "velocity": 1
        },
        {
          "duration": 3.0208333333333286,
          "durationTicks": 2900,
          "midi": 50,
          "name": "D3",
          "ticks": 59040,
          "time": 61.5,
          "velocity": 1
        },
        {
          "duration": 3.0208333333333286,
          "durationTicks": 2900,
          "midi": 58,
          "name": "A#3",
          "ticks": 59040,
          "time": 61.5,
          "velocity": 1
        },
        {
          "duration": 0.8291666666666657,
          "durationTicks": 796,
          "midi": 69,
          "name": "A4",
          "ticks": 59040,
          "time": 61.5,
          "velocity": 1
        },
        {
          "duration": 2.191666666666663,
          "durationTicks": 2104,
          "midi": 67,
          "name": "G4",
          "ticks": 59880,
          "time": 62.375,
          "velocity": 1
        },
        {
          "duration": 0.9208333333333343,
          "durationTicks": 884,
          "midi": 51,
          "name": "D#3",
          "ticks": 62280,
          "time": 64.875,
          "velocity": 1
        },
        {
          "duration": 0.9208333333333343,
          "durationTicks": 884,
          "midi": 60,
          "name": "C4",
          "ticks": 62280,
          "time": 64.875,
          "velocity": 1
        },
        {
          "duration": 0.9208333333333343,
          "durationTicks": 884,
          "midi": 65,
          "name": "F4",
          "ticks": 62280,
          "time": 64.875,
          "velocity": 1
        },
        {
          "duration": 0.9208333333333343,
          "durationTicks": 884,
          "midi": 67,
          "name": "G4",
          "ticks": 62280,
          "time": 64.875,
          "velocity": 1
        },
        {
          "duration": 0.6593749999999972,
          "durationTicks": 633,
          "midi": 70,
          "name": "A#4",
          "ticks": 62280,
          "time": 64.875,
          "velocity": 1
        },
        {
          "duration": 0.6593749999999972,
          "durationTicks": 633,
          "midi": 74,
          "name": "D5",
          "ticks": 62280,
          "time": 64.875,
          "velocity": 1
        },
        {
          "duration": 0.5093750000000057,
          "durationTicks": 489,
          "midi": 77,
          "name": "F5",
          "ticks": 62280,
          "time": 64.875,
          "velocity": 1
        },
        {
          "duration": 0.4114583333333286,
          "durationTicks": 395,
          "midi": 79,
          "name": "G5",
          "ticks": 62760,
          "time": 65.375,
          "velocity": 1
        },
        {
          "duration": 0.5093750000000057,
          "durationTicks": 489,
          "midi": 57,
          "name": "A3",
          "ticks": 63120,
          "time": 65.75,
          "velocity": 1
        },
        {
          "duration": 0.5093750000000057,
          "durationTicks": 489,
          "midi": 60,
          "name": "C4",
          "ticks": 63120,
          "time": 65.75,
          "velocity": 1
        },
        {
          "duration": 0.5093750000000057,
          "durationTicks": 489,
          "midi": 65,
          "name": "F4",
          "ticks": 63120,
          "time": 65.75,
          "velocity": 1
        },
        {
          "duration": 0.5093750000000057,
          "durationTicks": 489,
          "midi": 72,
          "name": "C5",
          "ticks": 63120,
          "time": 65.75,
          "velocity": 1
        },
        {
          "duration": 0.5093750000000057,
          "durationTicks": 489,
          "midi": 81,
          "name": "A5",
          "ticks": 63120,
          "time": 65.75,
          "velocity": 1
        },
        {
          "duration": 1.67916666666666,
          "durationTicks": 1612,
          "midi": 50,
          "name": "D3",
          "ticks": 63600,
          "time": 66.25,
          "velocity": 1
        },
        {
          "duration": 1.2791666666666686,
          "durationTicks": 1228,
          "midi": 58,
          "name": "A#3",
          "ticks": 63600,
          "time": 66.25,
          "velocity": 1
        },
        {
          "duration": 0.9093749999999972,
          "durationTicks": 873,
          "midi": 65,
          "name": "F4",
          "ticks": 63600,
          "time": 66.25,
          "velocity": 1
        },
        {
          "duration": 1.67916666666666,
          "durationTicks": 1612,
          "midi": 70,
          "name": "A#4",
          "ticks": 63600,
          "time": 66.25,
          "velocity": 1
        },
        {
          "duration": 0.9093749999999972,
          "durationTicks": 873,
          "midi": 77,
          "name": "F5",
          "ticks": 63600,
          "time": 66.25,
          "velocity": 1
        },
        {
          "duration": 1.2791666666666686,
          "durationTicks": 1228,
          "midi": 82,
          "name": "A#5",
          "ticks": 63600,
          "time": 66.25,
          "velocity": 1
        },
        {
          "duration": 0.7708333333333286,
          "durationTicks": 740,
          "midi": 60,
          "name": "C4",
          "ticks": 64440,
          "time": 67.125,
          "velocity": 1
        },
        {
          "duration": 0.7708333333333286,
          "durationTicks": 740,
          "midi": 66,
          "name": "F#4",
          "ticks": 64440,
          "time": 67.125,
          "velocity": 1
        },
        {
          "duration": 0.7708333333333286,
          "durationTicks": 740,
          "midi": 74,
          "name": "D5",
          "ticks": 64440,
          "time": 67.125,
          "velocity": 1
        },
        {
          "duration": 0.3708333333333371,
          "durationTicks": 356,
          "midi": 78,
          "name": "F#5",
          "ticks": 64440,
          "time": 67.125,
          "velocity": 1
        },
        {
          "duration": 1.3916666666666657,
          "durationTicks": 1336,
          "midi": 51,
          "name": "D#3",
          "ticks": 65160,
          "time": 67.875,
          "velocity": 1
        },
        {
          "duration": 0.7916666666666714,
          "durationTicks": 760,
          "midi": 62,
          "name": "D4",
          "ticks": 65160,
          "time": 67.875,
          "velocity": 1
        },
        {
          "duration": 1.3916666666666657,
          "durationTicks": 1336,
          "midi": 67,
          "name": "G4",
          "ticks": 65160,
          "time": 67.875,
          "velocity": 1
        },
        {
          "duration": 0.7916666666666714,
          "durationTicks": 760,
          "midi": 74,
          "name": "D5",
          "ticks": 65160,
          "time": 67.875,
          "velocity": 1
        },
        {
          "duration": 0.36145833333333144,
          "durationTicks": 347,
          "midi": 81,
          "name": "A5",
          "ticks": 65160,
          "time": 67.875,
          "velocity": 1
        },
        {
          "duration": 0.43020833333333997,
          "durationTicks": 413,
          "midi": 81,
          "name": "A5",
          "ticks": 65520,
          "time": 68.25,
          "velocity": 1
        },
        {
          "duration": 0.5999999999999943,
          "durationTicks": 576,
          "midi": 61,
          "name": "C#4",
          "ticks": 66000,
          "time": 68.75,
          "velocity": 1
        },
        {
          "duration": 0.5999999999999943,
          "durationTicks": 576,
          "midi": 72,
          "name": "C5",
          "ticks": 66000,
          "time": 68.75,
          "velocity": 1
        },
        {
          "duration": 0.5999999999999943,
          "durationTicks": 576,
          "midi": 79,
          "name": "G5",
          "ticks": 66000,
          "time": 68.75,
          "velocity": 1
        },
        {
          "duration": 0.609375,
          "durationTicks": 585,
          "midi": 50,
          "name": "D3",
          "ticks": 66600,
          "time": 69.375,
          "velocity": 1
        },
        {
          "duration": 0.609375,
          "durationTicks": 585,
          "midi": 58,
          "name": "A#3",
          "ticks": 66600,
          "time": 69.375,
          "velocity": 1
        },
        {
          "duration": 1.4500000000000028,
          "durationTicks": 1392,
          "midi": 60,
          "name": "C4",
          "ticks": 66600,
          "time": 69.375,
          "velocity": 1
        },
        {
          "duration": 0.609375,
          "durationTicks": 585,
          "midi": 65,
          "name": "F4",
          "ticks": 66600,
          "time": 69.375,
          "velocity": 1
        },
        {
          "duration": 0.2593750000000057,
          "durationTicks": 249,
          "midi": 70,
          "name": "A#4",
          "ticks": 66600,
          "time": 69.375,
          "velocity": 1
        },
        {
          "duration": 0.609375,
          "durationTicks": 585,
          "midi": 77,
          "name": "F5",
          "ticks": 66600,
          "time": 69.375,
          "velocity": 1
        },
        {
          "duration": 0.8302083333333314,
          "durationTicks": 797,
          "midi": 54,
          "name": "F#3",
          "ticks": 67200,
          "time": 70,
          "velocity": 1
        },
        {
          "duration": 0.8302083333333314,
          "durationTicks": 797,
          "midi": 66,
          "name": "F#4",
          "ticks": 67200,
          "time": 70,
          "velocity": 1
        },
        {
          "duration": 0.8302083333333314,
          "durationTicks": 797,
          "midi": 70,
          "name": "A#4",
          "ticks": 67200,
          "time": 70,
          "velocity": 1
        },
        {
          "duration": 0.8302083333333314,
          "durationTicks": 797,
          "midi": 74,
          "name": "D5",
          "ticks": 67200,
          "time": 70,
          "velocity": 1
        },
        {
          "duration": 1.46145833333334,
          "durationTicks": 1403,
          "midi": 43,
          "name": "G2",
          "ticks": 68040,
          "time": 70.875,
          "velocity": 1
        },
        {
          "duration": 1.46145833333334,
          "durationTicks": 1403,
          "midi": 50,
          "name": "D3",
          "ticks": 68040,
          "time": 70.875,
          "velocity": 1
        },
        {
          "duration": 1.46145833333334,
          "durationTicks": 1403,
          "midi": 58,
          "name": "A#3",
          "ticks": 68040,
          "time": 70.875,
          "velocity": 1
        },
        {
          "duration": 1.46145833333334,
          "durationTicks": 1403,
          "midi": 60,
          "name": "C4",
          "ticks": 68040,
          "time": 70.875,
          "velocity": 1
        },
        {
          "duration": 1.46145833333334,
          "durationTicks": 1403,
          "midi": 65,
          "name": "F4",
          "ticks": 68040,
          "time": 70.875,
          "velocity": 1
        },
        {
          "duration": 1.1114583333333314,
          "durationTicks": 1067,
          "midi": 69,
          "name": "A4",
          "ticks": 68040,
          "time": 70.875,
          "velocity": 1
        },
        {
          "duration": 0.8499999999999943,
          "durationTicks": 816,
          "midi": 72,
          "name": "C5",
          "ticks": 68040,
          "time": 70.875,
          "velocity": 1
        },
        {
          "duration": 0.34062500000000284,
          "durationTicks": 327,
          "midi": 69,
          "name": "A4",
          "ticks": 69120,
          "time": 72,
          "velocity": 1
        },
        {
          "duration": 2.2906250000000057,
          "durationTicks": 2199,
          "midi": 48,
          "name": "C3",
          "ticks": 69480,
          "time": 72.375,
          "velocity": 1
        },
        {
          "duration": 1.4208333333333343,
          "durationTicks": 1364,
          "midi": 53,
          "name": "F3",
          "ticks": 69480,
          "time": 72.375,
          "velocity": 1
        },
        {
          "duration": 2.2906250000000057,
          "durationTicks": 2199,
          "midi": 58,
          "name": "A#3",
          "ticks": 69480,
          "time": 72.375,
          "velocity": 1
        },
        {
          "duration": 1.4208333333333343,
          "durationTicks": 1364,
          "midi": 62,
          "name": "D4",
          "ticks": 69480,
          "time": 72.375,
          "velocity": 1
        },
        {
          "duration": 1.7208333333333314,
          "durationTicks": 1652,
          "midi": 69,
          "name": "A4",
          "ticks": 69480,
          "time": 72.375,
          "velocity": 1
        },
        {
          "duration": 0.20000000000000284,
          "durationTicks": 192,
          "midi": 70,
          "name": "A#4",
          "ticks": 71160,
          "time": 74.125,
          "velocity": 1
        },
        {
          "duration": 2.409374999999997,
          "durationTicks": 2313,
          "midi": 67,
          "name": "G4",
          "ticks": 71280,
          "time": 74.25,
          "velocity": 1
        },
        {
          "duration": 2.659374999999997,
          "durationTicks": 2553,
          "midi": 41,
          "name": "F2",
          "ticks": 71640,
          "time": 74.625,
          "velocity": 1
        },
        {
          "duration": 2.659374999999997,
          "durationTicks": 2553,
          "midi": 51,
          "name": "D#3",
          "ticks": 71640,
          "time": 74.625,
          "velocity": 1
        },
        {
          "duration": 2.559375000000003,
          "durationTicks": 2457,
          "midi": 57,
          "name": "A3",
          "ticks": 71640,
          "time": 74.625,
          "velocity": 1
        },
        {
          "duration": 1.1614583333333286,
          "durationTicks": 1115,
          "midi": 53,
          "name": "F3",
          "ticks": 73560,
          "time": 76.625,
          "velocity": 1
        },
        {
          "duration": 0.5885416666666714,
          "durationTicks": 565,
          "midi": 58,
          "name": "A#3",
          "ticks": 73560,
          "time": 76.625,
          "velocity": 1
        },
        {
          "duration": 0.609375,
          "durationTicks": 585,
          "midi": 67,
          "name": "G4",
          "ticks": 73560,
          "time": 76.625,
          "velocity": 1
        },
        {
          "duration": 0.609375,
          "durationTicks": 585,
          "midi": 74,
          "name": "D5",
          "ticks": 73560,
          "time": 76.625,
          "velocity": 1
        },
        {
          "duration": 0.5,
          "durationTicks": 480,
          "midi": 77,
          "name": "F5",
          "ticks": 73560,
          "time": 76.625,
          "velocity": 1
        },
        {
          "duration": 0.47083333333333144,
          "durationTicks": 452,
          "midi": 63,
          "name": "D#4",
          "ticks": 73680,
          "time": 76.75,
          "velocity": 1
        },
        {
          "duration": 1.71145833333334,
          "durationTicks": 1643,
          "midi": 57,
          "name": "A3",
          "ticks": 74040,
          "time": 77.125,
          "velocity": 1
        },
        {
          "duration": 1.68020833333334,
          "durationTicks": 1613,
          "midi": 63,
          "name": "D#4",
          "ticks": 74040,
          "time": 77.125,
          "velocity": 1
        },
        {
          "duration": 0.67916666666666,
          "durationTicks": 652,
          "midi": 73,
          "name": "C#5",
          "ticks": 74040,
          "time": 77.125,
          "velocity": 1
        },
        {
          "duration": 0.6416666666666657,
          "durationTicks": 616,
          "midi": 77,
          "name": "F5",
          "ticks": 74040,
          "time": 77.125,
          "velocity": 1
        },
        {
          "duration": 1.0802083333333314,
          "durationTicks": 1037,
          "midi": 53,
          "name": "F3",
          "ticks": 74640,
          "time": 77.75,
          "velocity": 1
        },
        {
          "duration": 1.0416666666666714,
          "durationTicks": 1000,
          "midi": 65,
          "name": "F4",
          "ticks": 74640,
          "time": 77.75,
          "velocity": 1
        },
        {
          "duration": 1.0416666666666714,
          "durationTicks": 1000,
          "midi": 77,
          "name": "F5",
          "ticks": 74640,
          "time": 77.75,
          "velocity": 1
        },
        {
          "duration": 3.049999999999997,
          "durationTicks": 2928,
          "midi": 46,
          "name": "A#2",
          "ticks": 75720,
          "time": 78.875,
          "velocity": 1
        },
        {
          "duration": 1,
          "durationTicks": 960,
          "midi": 72,
          "name": "C5",
          "ticks": 75720,
          "time": 78.875,
          "velocity": 1
        },
        {
          "duration": 1,
          "durationTicks": 960,
          "midi": 74,
          "name": "D5",
          "ticks": 75720,
          "time": 78.875,
          "velocity": 1
        },
        {
          "duration": 1.1302083333333286,
          "durationTicks": 1085,
          "midi": 79,
          "name": "G5",
          "ticks": 75720,
          "time": 78.875,
          "velocity": 1
        },
        {
          "duration": 3.730208333333337,
          "durationTicks": 3581,
          "midi": 56,
          "name": "G#3",
          "ticks": 76320,
          "time": 79.5,
          "velocity": 1
        },
        {
          "duration": 0.4208333333333343,
          "durationTicks": 404,
          "midi": 63,
          "name": "D#4",
          "ticks": 76680,
          "time": 79.875,
          "velocity": 1
        },
        {
          "duration": 0.24062499999999432,
          "durationTicks": 231,
          "midi": 72,
          "name": "C5",
          "ticks": 76800,
          "time": 80,
          "velocity": 1
        },
        {
          "duration": 0.45000000000000284,
          "durationTicks": 432,
          "midi": 63,
          "name": "D#4",
          "ticks": 77040,
          "time": 80.25,
          "velocity": 1
        },
        {
          "duration": 0.45000000000000284,
          "durationTicks": 432,
          "midi": 68,
          "name": "G#4",
          "ticks": 77040,
          "time": 80.25,
          "velocity": 1
        },
        {
          "duration": 0.45000000000000284,
          "durationTicks": 432,
          "midi": 75,
          "name": "D#5",
          "ticks": 77040,
          "time": 80.25,
          "velocity": 1
        },
        {
          "duration": 2.5302083333333343,
          "durationTicks": 2429,
          "midi": 62,
          "name": "D4",
          "ticks": 77520,
          "time": 80.75,
          "velocity": 1
        },
        {
          "duration": 1.28854166666666,
          "durationTicks": 1237,
          "midi": 72,
          "name": "C5",
          "ticks": 77520,
          "time": 80.75,
          "velocity": 1
        },
        {
          "duration": 1.2302083333333371,
          "durationTicks": 1181,
          "midi": 79,
          "name": "G5",
          "ticks": 77520,
          "time": 80.75,
          "velocity": 1
        },
        {
          "duration": 0.6114583333333314,
          "durationTicks": 587,
          "midi": 77,
          "name": "F5",
          "ticks": 78720,
          "time": 82,
          "velocity": 1
        },
        {
          "duration": 0.6302083333333286,
          "durationTicks": 605,
          "midi": 84,
          "name": "C6",
          "ticks": 79320,
          "time": 82.625,
          "velocity": 1
        },
        {
          "duration": 0.2708333333333286,
          "durationTicks": 260,
          "midi": 39,
          "name": "D#2",
          "ticks": 79920,
          "time": 83.25,
          "velocity": 1
        },
        {
          "duration": 0.7385416666666629,
          "durationTicks": 709,
          "midi": 72,
          "name": "C5",
          "ticks": 79920,
          "time": 83.25,
          "velocity": 1
        },
        {
          "duration": 0.7593750000000057,
          "durationTicks": 729,
          "midi": 77,
          "name": "F5",
          "ticks": 79920,
          "time": 83.25,
          "velocity": 1
        },
        {
          "duration": 0.18854166666666572,
          "durationTicks": 181,
          "midi": 46,
          "name": "A#2",
          "ticks": 80160,
          "time": 83.5,
          "velocity": 1
        },
        {
          "duration": 0.18020833333333997,
          "durationTicks": 173,
          "midi": 48,
          "name": "C3",
          "ticks": 80280,
          "time": 83.625,
          "velocity": 1
        },
        {
          "duration": 0.12083333333333712,
          "durationTicks": 116,
          "midi": 50,
          "name": "D3",
          "ticks": 80520,
          "time": 83.875,
          "velocity": 1
        },
        {
          "duration": 0.23020833333333712,
          "durationTicks": 221,
          "midi": 48,
          "name": "C3",
          "ticks": 80640,
          "time": 84,
          "velocity": 1
        },
        {
          "duration": 0.6114583333333314,
          "durationTicks": 587,
          "midi": 74,
          "name": "D5",
          "ticks": 80640,
          "time": 84,
          "velocity": 1
        },
        {
          "duration": 0.6114583333333314,
          "durationTicks": 587,
          "midi": 79,
          "name": "G5",
          "ticks": 80640,
          "time": 84,
          "velocity": 1
        },
        {
          "duration": 0.6114583333333314,
          "durationTicks": 587,
          "midi": 82,
          "name": "A#5",
          "ticks": 80640,
          "time": 84,
          "velocity": 1
        },
        {
          "duration": 0.20000000000000284,
          "durationTicks": 192,
          "midi": 53,
          "name": "F3",
          "ticks": 80880,
          "time": 84.25,
          "velocity": 1
        },
        {
          "duration": 0.1822916666666714,
          "durationTicks": 175,
          "midi": 55,
          "name": "G3",
          "ticks": 81000,
          "time": 84.375,
          "velocity": 1
        },
        {
          "duration": 0.859375,
          "durationTicks": 825,
          "midi": 67,
          "name": "G4",
          "ticks": 81240,
          "time": 84.625,
          "velocity": 1
        },
        {
          "duration": 0.859375,
          "durationTicks": 825,
          "midi": 70,
          "name": "A#4",
          "ticks": 81240,
          "time": 84.625,
          "velocity": 1
        },
        {
          "duration": 0.859375,
          "durationTicks": 825,
          "midi": 73,
          "name": "C#5",
          "ticks": 81240,
          "time": 84.625,
          "velocity": 1
        },
        {
          "duration": 0.859375,
          "durationTicks": 825,
          "midi": 76,
          "name": "E5",
          "ticks": 81240,
          "time": 84.625,
          "velocity": 1
        },
        {
          "duration": 0.859375,
          "durationTicks": 825,
          "midi": 79,
          "name": "G5",
          "ticks": 81240,
          "time": 84.625,
          "velocity": 1
        },
        {
          "duration": 0.22083333333333144,
          "durationTicks": 212,
          "midi": 52,
          "name": "E3",
          "ticks": 81360,
          "time": 84.75,
          "velocity": 1
        },
        {
          "duration": 0.22083333333333144,
          "durationTicks": 212,
          "midi": 58,
          "name": "A#3",
          "ticks": 81600,
          "time": 85,
          "velocity": 1
        },
        {
          "duration": 0.45000000000000284,
          "durationTicks": 432,
          "midi": 61,
          "name": "C#4",
          "ticks": 81840,
          "time": 85.25,
          "velocity": 1
        },
        {
          "duration": 0.5593750000000028,
          "durationTicks": 537,
          "midi": 73,
          "name": "C#5",
          "ticks": 82080,
          "time": 85.5,
          "velocity": 1
        },
        {
          "duration": 0.5593750000000028,
          "durationTicks": 537,
          "midi": 76,
          "name": "E5",
          "ticks": 82080,
          "time": 85.5,
          "velocity": 1
        },
        {
          "duration": 0.5593750000000028,
          "durationTicks": 537,
          "midi": 82,
          "name": "A#5",
          "ticks": 82080,
          "time": 85.5,
          "velocity": 1
        },
        {
          "duration": 0.2593750000000057,
          "durationTicks": 249,
          "midi": 67,
          "name": "G4",
          "ticks": 82320,
          "time": 85.75,
          "velocity": 1
        },
        {
          "duration": 0.08020833333333144,
          "durationTicks": 77,
          "midi": 70,
          "name": "A#4",
          "ticks": 82320,
          "time": 85.75,
          "velocity": 1
        },
        {
          "duration": 1.0114583333333371,
          "durationTicks": 971,
          "midi": 53,
          "name": "F3",
          "ticks": 83040,
          "time": 86.5,
          "velocity": 1
        },
        {
          "duration": 1.1302083333333286,
          "durationTicks": 1085,
          "midi": 74,
          "name": "D5",
          "ticks": 83520,
          "time": 87,
          "velocity": 1
        },
        {
          "duration": 0.5885416666666714,
          "durationTicks": 565,
          "midi": 51,
          "name": "D#3",
          "ticks": 84000,
          "time": 87.5,
          "velocity": 1
        },
        {
          "duration": 0.5885416666666714,
          "durationTicks": 565,
          "midi": 60,
          "name": "C4",
          "ticks": 84000,
          "time": 87.5,
          "velocity": 1
        },
        {
          "duration": 0.5885416666666714,
          "durationTicks": 565,
          "midi": 65,
          "name": "F4",
          "ticks": 84000,
          "time": 87.5,
          "velocity": 1
        },
        {
          "duration": 0.21145833333333997,
          "durationTicks": 203,
          "midi": 57,
          "name": "A3",
          "ticks": 86280,
          "time": 89.875,
          "velocity": 1
        },
        {
          "duration": 0.21145833333333997,
          "durationTicks": 203,
          "midi": 62,
          "name": "D4",
          "ticks": 86280,
          "time": 89.875,
          "velocity": 1
        },
        {
          "duration": 0.32083333333333997,
          "durationTicks": 308,
          "midi": 58,
          "name": "A#3",
          "ticks": 86520,
          "time": 90.125,
          "velocity": 1
        },
        {
          "duration": 0.32083333333333997,
          "durationTicks": 308,
          "midi": 65,
          "name": "F4",
          "ticks": 86520,
          "time": 90.125,
          "velocity": 1
        },
        {
          "duration": 2.159374999999997,
          "durationTicks": 2073,
          "midi": 52,
          "name": "E3",
          "ticks": 86760,
          "time": 90.375,
          "velocity": 1
        },
        {
          "duration": 2.159374999999997,
          "durationTicks": 2073,
          "midi": 58,
          "name": "A#3",
          "ticks": 86760,
          "time": 90.375,
          "velocity": 1
        },
        {
          "duration": 2.159374999999997,
          "durationTicks": 2073,
          "midi": 62,
          "name": "D4",
          "ticks": 86760,
          "time": 90.375,
          "velocity": 1
        },
        {
          "duration": 2.159374999999997,
          "durationTicks": 2073,
          "midi": 66,
          "name": "F#4",
          "ticks": 86760,
          "time": 90.375,
          "velocity": 1
        },
        {
          "duration": 1.359375,
          "durationTicks": 1305,
          "midi": 49,
          "name": "C#3",
          "ticks": 88800,
          "time": 92.5,
          "velocity": 1
        },
        {
          "duration": 0.9802083333333371,
          "durationTicks": 941,
          "midi": 58,
          "name": "A#3",
          "ticks": 89160,
          "time": 92.875,
          "velocity": 1
        },
        {
          "duration": 0.9802083333333371,
          "durationTicks": 941,
          "midi": 64,
          "name": "E4",
          "ticks": 89160,
          "time": 92.875,
          "velocity": 1
        },
        {
          "duration": 0.3499999999999943,
          "durationTicks": 336,
          "midi": 69,
          "name": "A4",
          "ticks": 89160,
          "time": 92.875,
          "velocity": 1
        },
        {
          "duration": 0.2916666666666714,
          "durationTicks": 280,
          "midi": 66,
          "name": "F#4",
          "ticks": 89520,
          "time": 93.25,
          "velocity": 1
        },
        {
          "duration": 0.2916666666666714,
          "durationTicks": 280,
          "midi": 70,
          "name": "A#4",
          "ticks": 89520,
          "time": 93.25,
          "velocity": 1
        },
        {
          "duration": 0.3385416666666714,
          "durationTicks": 325,
          "midi": 69,
          "name": "A4",
          "ticks": 89760,
          "time": 93.5,
          "velocity": 1
        },
        {
          "duration": 0.3385416666666714,
          "durationTicks": 325,
          "midi": 72,
          "name": "C5",
          "ticks": 89760,
          "time": 93.5,
          "velocity": 1
        },
        {
          "duration": 1.7614583333333371,
          "durationTicks": 1691,
          "midi": 50,
          "name": "D3",
          "ticks": 90120,
          "time": 93.875,
          "velocity": 1
        },
        {
          "duration": 1.7614583333333371,
          "durationTicks": 1691,
          "midi": 58,
          "name": "A#3",
          "ticks": 90120,
          "time": 93.875,
          "velocity": 1
        },
        {
          "duration": 1.7614583333333371,
          "durationTicks": 1691,
          "midi": 60,
          "name": "C4",
          "ticks": 90120,
          "time": 93.875,
          "velocity": 1
        },
        {
          "duration": 1.32083333333334,
          "durationTicks": 1268,
          "midi": 65,
          "name": "F4",
          "ticks": 90120,
          "time": 93.875,
          "velocity": 1
        },
        {
          "duration": 1.32083333333334,
          "durationTicks": 1268,
          "midi": 70,
          "name": "A#4",
          "ticks": 90120,
          "time": 93.875,
          "velocity": 1
        },
        {
          "duration": 1.32083333333334,
          "durationTicks": 1268,
          "midi": 74,
          "name": "D5",
          "ticks": 90120,
          "time": 93.875,
          "velocity": 1
        },
        {
          "duration": 0.43020833333333997,
          "durationTicks": 413,
          "midi": 72,
          "name": "C5",
          "ticks": 91440,
          "time": 95.25,
          "velocity": 1
        },
        {
          "duration": 0.43020833333333997,
          "durationTicks": 413,
          "midi": 74,
          "name": "D5",
          "ticks": 91440,
          "time": 95.25,
          "velocity": 1
        },
        {
          "duration": 0.43020833333333997,
          "durationTicks": 413,
          "midi": 79,
          "name": "G5",
          "ticks": 91440,
          "time": 95.25,
          "velocity": 1
        },
        {
          "duration": 1.6500000000000057,
          "durationTicks": 1584,
          "midi": 43,
          "name": "G2",
          "ticks": 91800,
          "time": 95.625,
          "velocity": 1
        },
        {
          "duration": 1.6500000000000057,
          "durationTicks": 1584,
          "midi": 50,
          "name": "D3",
          "ticks": 91800,
          "time": 95.625,
          "velocity": 1
        },
        {
          "duration": 1.6500000000000057,
          "durationTicks": 1584,
          "midi": 58,
          "name": "A#3",
          "ticks": 91800,
          "time": 95.625,
          "velocity": 1
        },
        {
          "duration": 0.6708333333333343,
          "durationTicks": 644,
          "midi": 69,
          "name": "A4",
          "ticks": 91800,
          "time": 95.625,
          "velocity": 1
        },
        {
          "duration": 0.57083333333334,
          "durationTicks": 548,
          "midi": 77,
          "name": "F5",
          "ticks": 91800,
          "time": 95.625,
          "velocity": 1
        },
        {
          "duration": 0.9708333333333314,
          "durationTicks": 932,
          "midi": 65,
          "name": "F4",
          "ticks": 92520,
          "time": 96.375,
          "velocity": 1
        },
        {
          "duration": 0.9708333333333314,
          "durationTicks": 932,
          "midi": 74,
          "name": "D5",
          "ticks": 92520,
          "time": 96.375,
          "velocity": 1
        },
        {
          "duration": 1.4385416666666657,
          "durationTicks": 1381,
          "midi": 48,
          "name": "C3",
          "ticks": 93480,
          "time": 97.375,
          "velocity": 1
        },
        {
          "duration": 1.4385416666666657,
          "durationTicks": 1381,
          "midi": 52,
          "name": "E3",
          "ticks": 93480,
          "time": 97.375,
          "velocity": 1
        },
        {
          "duration": 1.4385416666666657,
          "durationTicks": 1381,
          "midi": 58,
          "name": "A#3",
          "ticks": 93480,
          "time": 97.375,
          "velocity": 1
        },
        {
          "duration": 1.4385416666666657,
          "durationTicks": 1381,
          "midi": 60,
          "name": "C4",
          "ticks": 93480,
          "time": 97.375,
          "velocity": 1
        },
        {
          "duration": 0.609375,
          "durationTicks": 585,
          "midi": 69,
          "name": "A4",
          "ticks": 93480,
          "time": 97.375,
          "velocity": 1
        },
        {
          "duration": 0.609375,
          "durationTicks": 585,
          "midi": 72,
          "name": "C5",
          "ticks": 93480,
          "time": 97.375,
          "velocity": 1
        },
        {
          "duration": 0.8291666666666657,
          "durationTicks": 796,
          "midi": 67,
          "name": "G4",
          "ticks": 94080,
          "time": 98,
          "velocity": 1
        },
        {
          "duration": 0.3499999999999943,
          "durationTicks": 336,
          "midi": 70,
          "name": "A#4",
          "ticks": 94080,
          "time": 98,
          "velocity": 1
        },
        {
          "duration": 0.8499999999999943,
          "durationTicks": 816,
          "midi": 48,
          "name": "C3",
          "ticks": 94920,
          "time": 98.875,
          "velocity": 1
        },
        {
          "duration": 0.8499999999999943,
          "durationTicks": 816,
          "midi": 58,
          "name": "A#3",
          "ticks": 94920,
          "time": 98.875,
          "velocity": 1
        },
        {
          "duration": 0.8499999999999943,
          "durationTicks": 816,
          "midi": 60,
          "name": "C4",
          "ticks": 94920,
          "time": 98.875,
          "velocity": 1
        },
        {
          "duration": 0.8499999999999943,
          "durationTicks": 816,
          "midi": 63,
          "name": "D#4",
          "ticks": 94920,
          "time": 98.875,
          "velocity": 1
        },
        {
          "duration": 0.8499999999999943,
          "durationTicks": 816,
          "midi": 67,
          "name": "G4",
          "ticks": 94920,
          "time": 98.875,
          "velocity": 1
        },
        {
          "duration": 2.5614583333333343,
          "durationTicks": 2459,
          "midi": 41,
          "name": "F2",
          "ticks": 95760,
          "time": 99.75,
          "velocity": 1
        },
        {
          "duration": 1.0114583333333371,
          "durationTicks": 971,
          "midi": 51,
          "name": "D#3",
          "ticks": 95760,
          "time": 99.75,
          "velocity": 1
        },
        {
          "duration": 1.0114583333333371,
          "durationTicks": 971,
          "midi": 57,
          "name": "A3",
          "ticks": 95760,
          "time": 99.75,
          "velocity": 1
        },
        {
          "duration": 1.0114583333333371,
          "durationTicks": 971,
          "midi": 61,
          "name": "C#4",
          "ticks": 95760,
          "time": 99.75,
          "velocity": 1
        },
        {
          "duration": 1.0114583333333371,
          "durationTicks": 971,
          "midi": 65,
          "name": "F4",
          "ticks": 95760,
          "time": 99.75,
          "velocity": 1
        },
        {
          "duration": 1.0114583333333371,
          "durationTicks": 971,
          "midi": 69,
          "name": "A4",
          "ticks": 95760,
          "time": 99.75,
          "velocity": 1
        },
        {
          "duration": 1.7208333333333314,
          "durationTicks": 1652,
          "midi": 60,
          "name": "C4",
          "ticks": 96720,
          "time": 100.75,
          "velocity": 1
        },
        {
          "duration": 3,
          "durationTicks": 2880,
          "midi": 62,
          "name": "D4",
          "ticks": 96720,
          "time": 100.75,
          "velocity": 1
        },
        {
          "duration": 1.7208333333333314,
          "durationTicks": 1652,
          "midi": 65,
          "name": "F4",
          "ticks": 96720,
          "time": 100.75,
          "velocity": 1
        },
        {
          "duration": 1.109375,
          "durationTicks": 1065,
          "midi": 53,
          "name": "F3",
          "ticks": 97320,
          "time": 101.375,
          "velocity": 1
        },
        {
          "duration": 1.4593749999999943,
          "durationTicks": 1401,
          "midi": 41,
          "name": "F2",
          "ticks": 98160,
          "time": 102.25,
          "velocity": 1
        },
        {
          "duration": 2.0302083333333343,
          "durationTicks": 1949,
          "midi": 59,
          "name": "B3",
          "ticks": 99600,
          "time": 103.75,
          "velocity": 1
        },
        {
          "duration": 2.0302083333333343,
          "durationTicks": 1949,
          "midi": 64,
          "name": "E4",
          "ticks": 99600,
          "time": 103.75,
          "velocity": 1
        },
        {
          "duration": 1.1614583333333286,
          "durationTicks": 1115,
          "midi": 66,
          "name": "F#4",
          "ticks": 99600,
          "time": 103.75,
          "velocity": 1
        },
        {
          "duration": 0.6208333333333371,
          "durationTicks": 596,
          "midi": 71,
          "name": "B4",
          "ticks": 100080,
          "time": 104.25,
          "velocity": 1
        },
        {
          "duration": 0.8687500000000057,
          "durationTicks": 834,
          "midi": 54,
          "name": "F#3",
          "ticks": 100680,
          "time": 104.875,
          "velocity": 1
        },
        {
          "duration": 0.8687500000000057,
          "durationTicks": 834,
          "midi": 73,
          "name": "C#5",
          "ticks": 100680,
          "time": 104.875,
          "velocity": 1
        },
        {
          "duration": 2.82083333333334,
          "durationTicks": 2708,
          "midi": 47,
          "name": "B2",
          "ticks": 101520,
          "time": 105.75,
          "velocity": 1
        },
        {
          "duration": 1.07083333333334,
          "durationTicks": 1028,
          "midi": 58,
          "name": "A#3",
          "ticks": 101520,
          "time": 105.75,
          "velocity": 1
        },
        {
          "duration": 2.559375000000003,
          "durationTicks": 2457,
          "midi": 63,
          "name": "D#4",
          "ticks": 101520,
          "time": 105.75,
          "velocity": 1
        },
        {
          "duration": 0.7708333333333286,
          "durationTicks": 740,
          "midi": 70,
          "name": "A#4",
          "ticks": 101520,
          "time": 105.75,
          "velocity": 1
        },
        {
          "duration": 0.7708333333333286,
          "durationTicks": 740,
          "midi": 75,
          "name": "D#5",
          "ticks": 101520,
          "time": 105.75,
          "velocity": 1
        },
        {
          "duration": 1.75,
          "durationTicks": 1680,
          "midi": 56,
          "name": "G#3",
          "ticks": 102480,
          "time": 106.75,
          "velocity": 1
        },
        {
          "duration": 0.2614583333333371,
          "durationTicks": 251,
          "midi": 73,
          "name": "C#5",
          "ticks": 103920,
          "time": 108.25,
          "velocity": 1
        },
        {
          "duration": 1.2999999999999972,
          "durationTicks": 1248,
          "midi": 73,
          "name": "C#5",
          "ticks": 104520,
          "time": 108.875,
          "velocity": 1
        },
        {
          "duration": 0.38854166666666856,
          "durationTicks": 373,
          "midi": 80,
          "name": "G#5",
          "ticks": 104520,
          "time": 108.875,
          "velocity": 1
        },
        {
          "duration": 0.9114583333333286,
          "durationTicks": 875,
          "midi": 63,
          "name": "D#4",
          "ticks": 104880,
          "time": 109.25,
          "velocity": 1
        },
        {
          "duration": 0.9114583333333286,
          "durationTicks": 875,
          "midi": 78,
          "name": "F#5",
          "ticks": 104880,
          "time": 109.25,
          "velocity": 1
        },
        {
          "duration": 0.7708333333333286,
          "durationTicks": 740,
          "midi": 47,
          "name": "B2",
          "ticks": 105840,
          "time": 110.25,
          "velocity": 1
        },
        {
          "duration": 0.7708333333333286,
          "durationTicks": 740,
          "midi": 57,
          "name": "A3",
          "ticks": 105840,
          "time": 110.25,
          "velocity": 1
        },
        {
          "duration": 0.7708333333333286,
          "durationTicks": 740,
          "midi": 63,
          "name": "D#4",
          "ticks": 105840,
          "time": 110.25,
          "velocity": 1
        },
        {
          "duration": 0.7708333333333286,
          "durationTicks": 740,
          "midi": 68,
          "name": "G#4",
          "ticks": 105840,
          "time": 110.25,
          "velocity": 1
        },
        {
          "duration": 0.3708333333333371,
          "durationTicks": 356,
          "midi": 75,
          "name": "D#5",
          "ticks": 105840,
          "time": 110.25,
          "velocity": 1
        },
        {
          "duration": 3.6885416666666657,
          "durationTicks": 3541,
          "midi": 40,
          "name": "E2",
          "ticks": 106560,
          "time": 111,
          "velocity": 1
        },
        {
          "duration": 3.6885416666666657,
          "durationTicks": 3541,
          "midi": 47,
          "name": "B2",
          "ticks": 106560,
          "time": 111,
          "velocity": 1
        },
        {
          "duration": 0.29999999999999716,
          "durationTicks": 288,
          "midi": 66,
          "name": "F#4",
          "ticks": 106560,
          "time": 111,
          "velocity": 1
        },
        {
          "duration": 0.29999999999999716,
          "durationTicks": 288,
          "midi": 68,
          "name": "G#4",
          "ticks": 106560,
          "time": 111,
          "velocity": 1
        },
        {
          "duration": 0.29999999999999716,
          "durationTicks": 288,
          "midi": 73,
          "name": "C#5",
          "ticks": 106560,
          "time": 111,
          "velocity": 1
        },
        {
          "duration": 0.4802083333333371,
          "durationTicks": 461,
          "midi": 63,
          "name": "D#4",
          "ticks": 106800,
          "time": 111.25,
          "velocity": 1
        },
        {
          "duration": 0.4802083333333371,
          "durationTicks": 461,
          "midi": 71,
          "name": "B4",
          "ticks": 106800,
          "time": 111.25,
          "velocity": 1
        },
        {
          "duration": 1.28854166666666,
          "durationTicks": 1237,
          "midi": 61,
          "name": "C#4",
          "ticks": 107280,
          "time": 111.75,
          "velocity": 1
        },
        {
          "duration": 3.559375000000003,
          "durationTicks": 3417,
          "midi": 63,
          "name": "D#4",
          "ticks": 107280,
          "time": 111.75,
          "velocity": 1
        },
        {
          "duration": 3.559375000000003,
          "durationTicks": 3417,
          "midi": 68,
          "name": "G#4",
          "ticks": 107280,
          "time": 111.75,
          "velocity": 1
        },
        {
          "duration": 2.2708333333333286,
          "durationTicks": 2180,
          "midi": 59,
          "name": "B3",
          "ticks": 108480,
          "time": 113,
          "velocity": 1
        },
        {
          "duration": 0.8302083333333314,
          "durationTicks": 797,
          "midi": 55,
          "name": "G3",
          "ticks": 110640,
          "time": 115.25,
          "velocity": 1
        },
        {
          "duration": 0.8302083333333314,
          "durationTicks": 797,
          "midi": 61,
          "name": "C#4",
          "ticks": 110640,
          "time": 115.25,
          "velocity": 1
        },
        {
          "duration": 0.8302083333333314,
          "durationTicks": 797,
          "midi": 67,
          "name": "G4",
          "ticks": 110640,
          "time": 115.25,
          "velocity": 1
        },
        {
          "duration": 0.8302083333333314,
          "durationTicks": 797,
          "midi": 71,
          "name": "B4",
          "ticks": 110640,
          "time": 115.25,
          "velocity": 1
        },
        {
          "duration": 0.43020833333333997,
          "durationTicks": 413,
          "midi": 75,
          "name": "D#5",
          "ticks": 110640,
          "time": 115.25,
          "velocity": 1
        },
        {
          "duration": 0.4000000000000057,
          "durationTicks": 384,
          "midi": 76,
          "name": "E5",
          "ticks": 111120,
          "time": 115.75,
          "velocity": 1
        },
        {
          "duration": 2.57083333333334,
          "durationTicks": 2468,
          "midi": 51,
          "name": "D#3",
          "ticks": 111480,
          "time": 116.125,
          "velocity": 1
        },
        {
          "duration": 1.0499999999999972,
          "durationTicks": 1008,
          "midi": 61,
          "name": "C#4",
          "ticks": 111480,
          "time": 116.125,
          "velocity": 1
        },
        {
          "duration": 0.4208333333333343,
          "durationTicks": 404,
          "midi": 73,
          "name": "C#5",
          "ticks": 111480,
          "time": 116.125,
          "velocity": 1
        },
        {
          "duration": 0.57083333333334,
          "durationTicks": 548,
          "midi": 78,
          "name": "F#5",
          "ticks": 111480,
          "time": 116.125,
          "velocity": 1
        },
        {
          "duration": 2.1500000000000057,
          "durationTicks": 2064,
          "midi": 66,
          "name": "F#4",
          "ticks": 111840,
          "time": 116.5,
          "velocity": 1
        },
        {
          "duration": 1.5208333333333286,
          "durationTicks": 1460,
          "midi": 59,
          "name": "B3",
          "ticks": 112440,
          "time": 117.125,
          "velocity": 1
        },
        {
          "duration": 0.3291666666666657,
          "durationTicks": 316,
          "midi": 73,
          "name": "C#5",
          "ticks": 113640,
          "time": 118.375,
          "velocity": 1
        },
        {
          "duration": 0.3291666666666657,
          "durationTicks": 316,
          "midi": 80,
          "name": "G#5",
          "ticks": 113640,
          "time": 118.375,
          "velocity": 1
        },
        {
          "duration": 0.04999999999999716,
          "durationTicks": 48,
          "midi": 51,
          "name": "D#3",
          "ticks": 114000,
          "time": 118.75,
          "velocity": 1
        },
        {
          "duration": 0.04999999999999716,
          "durationTicks": 48,
          "midi": 59,
          "name": "B3",
          "ticks": 114000,
          "time": 118.75,
          "velocity": 1
        },
        {
          "duration": 0.04999999999999716,
          "durationTicks": 48,
          "midi": 66,
          "name": "F#4",
          "ticks": 114000,
          "time": 118.75,
          "velocity": 1
        },
        {
          "duration": 0.7708333333333286,
          "durationTicks": 740,
          "midi": 71,
          "name": "B4",
          "ticks": 114000,
          "time": 118.75,
          "velocity": 1
        },
        {
          "duration": 0.3708333333333371,
          "durationTicks": 356,
          "midi": 78,
          "name": "F#5",
          "ticks": 114000,
          "time": 118.75,
          "velocity": 1
        },
        {
          "duration": 0.3916666666666657,
          "durationTicks": 376,
          "midi": 66,
          "name": "F#4",
          "ticks": 114360,
          "time": 119.125,
          "velocity": 1
        },
        {
          "duration": 0.3916666666666657,
          "durationTicks": 376,
          "midi": 75,
          "name": "D#5",
          "ticks": 114360,
          "time": 119.125,
          "velocity": 1
        },
        {
          "duration": 1,
          "durationTicks": 960,
          "midi": 44,
          "name": "G#2",
          "ticks": 114720,
          "time": 119.5,
          "velocity": 1
        },
        {
          "duration": 1,
          "durationTicks": 960,
          "midi": 54,
          "name": "F#3",
          "ticks": 114720,
          "time": 119.5,
          "velocity": 1
        },
        {
          "duration": 1,
          "durationTicks": 960,
          "midi": 63,
          "name": "D#4",
          "ticks": 114720,
          "time": 119.5,
          "velocity": 1
        },
        {
          "duration": 1,
          "durationTicks": 960,
          "midi": 68,
          "name": "G#4",
          "ticks": 114720,
          "time": 119.5,
          "velocity": 1
        },
        {
          "duration": 1,
          "durationTicks": 960,
          "midi": 71,
          "name": "B4",
          "ticks": 114720,
          "time": 119.5,
          "velocity": 1
        },
        {
          "duration": 0.5208333333333286,
          "durationTicks": 500,
          "midi": 75,
          "name": "D#5",
          "ticks": 115680,
          "time": 120.5,
          "velocity": 1
        },
        {
          "duration": 2.0802083333333314,
          "durationTicks": 1997,
          "midi": 44,
          "name": "G#2",
          "ticks": 116160,
          "time": 121,
          "velocity": 1
        },
        {
          "duration": 2.0802083333333314,
          "durationTicks": 1997,
          "midi": 59,
          "name": "B3",
          "ticks": 116160,
          "time": 121,
          "velocity": 1
        },
        {
          "duration": 2.0802083333333314,
          "durationTicks": 1997,
          "midi": 63,
          "name": "D#4",
          "ticks": 116160,
          "time": 121,
          "velocity": 1
        },
        {
          "duration": 2.0802083333333314,
          "durationTicks": 1997,
          "midi": 70,
          "name": "A#4",
          "ticks": 116160,
          "time": 121,
          "velocity": 1
        },
        {
          "duration": 1.8302083333333314,
          "durationTicks": 1757,
          "midi": 73,
          "name": "C#5",
          "ticks": 116160,
          "time": 121,
          "velocity": 1
        },
        {
          "duration": 1.6208333333333371,
          "durationTicks": 1556,
          "midi": 54,
          "name": "F#3",
          "ticks": 116640,
          "time": 121.5,
          "velocity": 1
        },
        {
          "duration": 0.7593750000000057,
          "durationTicks": 729,
          "midi": 49,
          "name": "C#3",
          "ticks": 118200,
          "time": 123.125,
          "velocity": 1
        },
        {
          "duration": 0.7593750000000057,
          "durationTicks": 729,
          "midi": 53,
          "name": "F3",
          "ticks": 118200,
          "time": 123.125,
          "velocity": 1
        },
        {
          "duration": 0.7593750000000057,
          "durationTicks": 729,
          "midi": 63,
          "name": "D#4",
          "ticks": 118200,
          "time": 123.125,
          "velocity": 1
        },
        {
          "duration": 0.7593750000000057,
          "durationTicks": 729,
          "midi": 69,
          "name": "A4",
          "ticks": 118200,
          "time": 123.125,
          "velocity": 1
        },
        {
          "duration": 1.0416666666666714,
          "durationTicks": 1000,
          "midi": 42,
          "name": "F#2",
          "ticks": 118920,
          "time": 123.875,
          "velocity": 1
        },
        {
          "duration": 1.7302083333333371,
          "durationTicks": 1661,
          "midi": 52,
          "name": "E3",
          "ticks": 118920,
          "time": 123.875,
          "velocity": 1
        },
        {
          "duration": 1.7302083333333371,
          "durationTicks": 1661,
          "midi": 58,
          "name": "A#3",
          "ticks": 118920,
          "time": 123.875,
          "velocity": 1
        },
        {
          "duration": 1.0416666666666714,
          "durationTicks": 1000,
          "midi": 64,
          "name": "E4",
          "ticks": 118920,
          "time": 123.875,
          "velocity": 1
        },
        {
          "duration": 1.43020833333334,
          "durationTicks": 1373,
          "midi": 68,
          "name": "G#4",
          "ticks": 118920,
          "time": 123.875,
          "velocity": 1
        },
        {
          "duration": 0.29999999999999716,
          "durationTicks": 288,
          "midi": 66,
          "name": "F#4",
          "ticks": 120240,
          "time": 125.25,
          "velocity": 1
        },
        {
          "duration": 0.71145833333334,
          "durationTicks": 683,
          "midi": 52,
          "name": "E3",
          "ticks": 120600,
          "time": 125.625,
          "velocity": 1
        },
        {
          "duration": 0.71145833333334,
          "durationTicks": 683,
          "midi": 64,
          "name": "E4",
          "ticks": 120600,
          "time": 125.625,
          "velocity": 1
        },
        {
          "duration": 0.71145833333334,
          "durationTicks": 683,
          "midi": 68,
          "name": "G#4",
          "ticks": 120600,
          "time": 125.625,
          "velocity": 1
        },
        {
          "duration": 0.3114583333333343,
          "durationTicks": 299,
          "midi": 71,
          "name": "B4",
          "ticks": 120600,
          "time": 125.625,
          "velocity": 1
        },
        {
          "duration": 0.4000000000000057,
          "durationTicks": 384,
          "midi": 73,
          "name": "C#5",
          "ticks": 120840,
          "time": 125.875,
          "velocity": 1
        },
        {
          "duration": 0.75,
          "durationTicks": 720,
          "midi": 58,
          "name": "A#3",
          "ticks": 121200,
          "time": 126.25,
          "velocity": 1
        },
        {
          "duration": 1.7885416666666742,
          "durationTicks": 1717,
          "midi": 63,
          "name": "D#4",
          "ticks": 121200,
          "time": 126.25,
          "velocity": 1
        },
        {
          "duration": 0.75,
          "durationTicks": 720,
          "midi": 70,
          "name": "A#4",
          "ticks": 121200,
          "time": 126.25,
          "velocity": 1
        },
        {
          "duration": 0.6500000000000057,
          "durationTicks": 624,
          "midi": 75,
          "name": "D#5",
          "ticks": 121200,
          "time": 126.25,
          "velocity": 1
        },
        {
          "duration": 1.0385416666666742,
          "durationTicks": 997,
          "midi": 56,
          "name": "G#3",
          "ticks": 121920,
          "time": 127,
          "velocity": 1
        },
        {
          "duration": 0.7385416666666629,
          "durationTicks": 709,
          "midi": 68,
          "name": "G#4",
          "ticks": 121920,
          "time": 127,
          "velocity": 1
        },
        {
          "duration": 0.30000000000001137,
          "durationTicks": 288,
          "midi": 73,
          "name": "C#5",
          "ticks": 122640,
          "time": 127.75,
          "velocity": 1
        },
        {
          "duration": 1.56145833333332,
          "durationTicks": 1499,
          "midi": 54,
          "name": "F#3",
          "ticks": 123000,
          "time": 128.125,
          "velocity": 1
        },
        {
          "duration": 1.56145833333332,
          "durationTicks": 1499,
          "midi": 64,
          "name": "E4",
          "ticks": 123000,
          "time": 128.125,
          "velocity": 1
        },
        {
          "duration": 1.56145833333332,
          "durationTicks": 1499,
          "midi": 69,
          "name": "A4",
          "ticks": 123000,
          "time": 128.125,
          "velocity": 1
        },
        {
          "duration": 1.03229166666668,
          "durationTicks": 991,
          "midi": 75,
          "name": "D#5",
          "ticks": 123000,
          "time": 128.125,
          "velocity": 1
        },
        {
          "duration": 0.5302083333333201,
          "durationTicks": 509,
          "midi": 73,
          "name": "C#5",
          "ticks": 123960,
          "time": 129.125,
          "velocity": 1
        },
        {
          "duration": 0.5302083333333201,
          "durationTicks": 509,
          "midi": 80,
          "name": "G#5",
          "ticks": 123960,
          "time": 129.125,
          "velocity": 1
        },
        {
          "duration": 1.0885416666666572,
          "durationTicks": 1045,
          "midi": 57,
          "name": "A3",
          "ticks": 124440,
          "time": 129.625,
          "velocity": 1
        },
        {
          "duration": 1.0885416666666572,
          "durationTicks": 1045,
          "midi": 63,
          "name": "D#4",
          "ticks": 124440,
          "time": 129.625,
          "velocity": 1
        },
        {
          "duration": 1.0885416666666572,
          "durationTicks": 1045,
          "midi": 69,
          "name": "A4",
          "ticks": 124440,
          "time": 129.625,
          "velocity": 1
        },
        {
          "duration": 1.0885416666666572,
          "durationTicks": 1045,
          "midi": 73,
          "name": "C#5",
          "ticks": 124440,
          "time": 129.625,
          "velocity": 1
        },
        {
          "duration": 0.38854166666666856,
          "durationTicks": 373,
          "midi": 83,
          "name": "B5",
          "ticks": 124440,
          "time": 129.625,
          "velocity": 1
        },
        {
          "duration": 0.25,
          "durationTicks": 240,
          "midi": 80,
          "name": "G#5",
          "ticks": 124800,
          "time": 130,
          "velocity": 1
        },
        {
          "duration": 0.1822916666666572,
          "durationTicks": 175,
          "midi": 78,
          "name": "F#5",
          "ticks": 125040,
          "time": 130.25,
          "velocity": 1
        },
        {
          "duration": 0.26875000000001137,
          "durationTicks": 258,
          "midi": 75,
          "name": "D#5",
          "ticks": 125280,
          "time": 130.5,
          "velocity": 1
        },
        {
          "duration": 5.050000000000011,
          "durationTicks": 4848,
          "midi": 52,
          "name": "E3",
          "ticks": 125520,
          "time": 130.75,
          "velocity": 1
        },
        {
          "duration": 4.400000000000006,
          "durationTicks": 4224,
          "midi": 56,
          "name": "G#3",
          "ticks": 125520,
          "time": 130.75,
          "velocity": 1
        },
        {
          "duration": 0.5916666666666686,
          "durationTicks": 568,
          "midi": 63,
          "name": "D#4",
          "ticks": 125520,
          "time": 130.75,
          "velocity": 1
        },
        {
          "duration": 0.5916666666666686,
          "durationTicks": 568,
          "midi": 68,
          "name": "G#4",
          "ticks": 125520,
          "time": 130.75,
          "velocity": 1
        },
        {
          "duration": 0.5916666666666686,
          "durationTicks": 568,
          "midi": 73,
          "name": "C#5",
          "ticks": 125520,
          "time": 130.75,
          "velocity": 1
        },
        {
          "duration": 0.4000000000000057,
          "durationTicks": 384,
          "midi": 63,
          "name": "D#4",
          "ticks": 126120,
          "time": 131.375,
          "velocity": 1
        },
        {
          "duration": 0.4000000000000057,
          "durationTicks": 384,
          "midi": 66,
          "name": "F#4",
          "ticks": 126120,
          "time": 131.375,
          "velocity": 1
        },
        {
          "duration": 0.4000000000000057,
          "durationTicks": 384,
          "midi": 71,
          "name": "B4",
          "ticks": 126120,
          "time": 131.375,
          "velocity": 1
        },
        {
          "duration": 0.42916666666667425,
          "durationTicks": 412,
          "midi": 63,
          "name": "D#4",
          "ticks": 126480,
          "time": 131.75,
          "velocity": 1
        },
        {
          "duration": 0.42916666666667425,
          "durationTicks": 412,
          "midi": 68,
          "name": "G#4",
          "ticks": 126480,
          "time": 131.75,
          "velocity": 1
        },
        {
          "duration": 0.5416666666666572,
          "durationTicks": 520,
          "midi": 61,
          "name": "C#4",
          "ticks": 126840,
          "time": 132.125,
          "velocity": 1
        },
        {
          "duration": 0.5416666666666572,
          "durationTicks": 520,
          "midi": 66,
          "name": "F#4",
          "ticks": 126840,
          "time": 132.125,
          "velocity": 1
        },
        {
          "duration": 3.088541666666657,
          "durationTicks": 2965,
          "midi": 59,
          "name": "B3",
          "ticks": 127440,
          "time": 132.75,
          "velocity": 1
        },
        {
          "duration": 2.43854166666668,
          "durationTicks": 2341,
          "midi": 64,
          "name": "E4",
          "ticks": 127440,
          "time": 132.75,
          "velocity": 1
        },
        {
          "duration": 0.3687500000000057,
          "durationTicks": 354,
          "midi": 73,
          "name": "C#5",
          "ticks": 130080,
          "time": 135.5,
          "velocity": 1
        },
        {
          "duration": 2.588541666666657,
          "durationTicks": 2485,
          "midi": 47,
          "name": "B2",
          "ticks": 130440,
          "time": 135.875,
          "velocity": 1
        },
        {
          "duration": 1.3885416666666686,
          "durationTicks": 1333,
          "midi": 58,
          "name": "A#3",
          "ticks": 130440,
          "time": 135.875,
          "velocity": 1
        },
        {
          "duration": 2.588541666666657,
          "durationTicks": 2485,
          "midi": 63,
          "name": "D#4",
          "ticks": 130440,
          "time": 135.875,
          "velocity": 1
        },
        {
          "duration": 0.8687500000000057,
          "durationTicks": 834,
          "midi": 76,
          "name": "E5",
          "ticks": 132120,
          "time": 137.625,
          "velocity": 1
        },
        {
          "duration": 0.8208333333333258,
          "durationTicks": 788,
          "midi": 49,
          "name": "C#3",
          "ticks": 132960,
          "time": 138.5,
          "velocity": 1
        },
        {
          "duration": 0.7593750000000057,
          "durationTicks": 729,
          "midi": 59,
          "name": "B3",
          "ticks": 132960,
          "time": 138.5,
          "velocity": 1
        },
        {
          "duration": 0.8208333333333258,
          "durationTicks": 788,
          "midi": 65,
          "name": "F4",
          "ticks": 132960,
          "time": 138.5,
          "velocity": 1
        },
        {
          "duration": 0.8208333333333258,
          "durationTicks": 788,
          "midi": 70,
          "name": "A#4",
          "ticks": 132960,
          "time": 138.5,
          "velocity": 1
        },
        {
          "duration": 0.40937500000001137,
          "durationTicks": 393,
          "midi": 75,
          "name": "D#5",
          "ticks": 132960,
          "time": 138.5,
          "velocity": 1
        },
        {
          "duration": 0.4114583333333428,
          "durationTicks": 395,
          "midi": 73,
          "name": "C#5",
          "ticks": 133320,
          "time": 138.875,
          "velocity": 1
        },
        {
          "duration": 0.009375000000005684,
          "durationTicks": 9,
          "midi": 52,
          "name": "E3",
          "ticks": 133680,
          "time": 139.25,
          "velocity": 1
        },
        {
          "duration": 0.07083333333332575,
          "durationTicks": 68,
          "midi": 59,
          "name": "B3",
          "ticks": 133680,
          "time": 139.25,
          "velocity": 1
        },
        {
          "duration": 1.5291666666666686,
          "durationTicks": 1468,
          "midi": 64,
          "name": "E4",
          "ticks": 133680,
          "time": 139.25,
          "velocity": 1
        },
        {
          "duration": 0.5906249999999886,
          "durationTicks": 567,
          "midi": 68,
          "name": "G#4",
          "ticks": 133680,
          "time": 139.25,
          "velocity": 1
        },
        {
          "duration": 0.9385416666666799,
          "durationTicks": 901,
          "midi": 42,
          "name": "F#2",
          "ticks": 134280,
          "time": 139.875,
          "velocity": 1
        },
        {
          "duration": 0.9385416666666799,
          "durationTicks": 901,
          "midi": 67,
          "name": "G4",
          "ticks": 134280,
          "time": 139.875,
          "velocity": 1
        },
        {
          "duration": 0.9385416666666799,
          "durationTicks": 901,
          "midi": 73,
          "name": "C#5",
          "ticks": 134280,
          "time": 139.875,
          "velocity": 1
        },
        {
          "duration": 2.020833333333343,
          "durationTicks": 1940,
          "midi": 47,
          "name": "B2",
          "ticks": 135120,
          "time": 140.75,
          "velocity": 1
        },
        {
          "duration": 1.56145833333332,
          "durationTicks": 1499,
          "midi": 58,
          "name": "A#3",
          "ticks": 135120,
          "time": 140.75,
          "velocity": 1
        },
        {
          "duration": 1.56145833333332,
          "durationTicks": 1499,
          "midi": 61,
          "name": "C#4",
          "ticks": 135120,
          "time": 140.75,
          "velocity": 1
        },
        {
          "duration": 1.56145833333332,
          "durationTicks": 1499,
          "midi": 63,
          "name": "D#4",
          "ticks": 135120,
          "time": 140.75,
          "velocity": 1
        },
        {
          "duration": 1.56145833333332,
          "durationTicks": 1499,
          "midi": 66,
          "name": "F#4",
          "ticks": 135120,
          "time": 140.75,
          "velocity": 1
        },
        {
          "duration": 1.9302083333333258,
          "durationTicks": 1853,
          "midi": 59,
          "name": "B3",
          "ticks": 136680,
          "time": 142.375,
          "velocity": 1
        },
        {
          "duration": 1.9302083333333258,
          "durationTicks": 1853,
          "midi": 63,
          "name": "D#4",
          "ticks": 136680,
          "time": 142.375,
          "velocity": 1
        },
        {
          "duration": 1.9302083333333258,
          "durationTicks": 1853,
          "midi": 64,
          "name": "E4",
          "ticks": 136680,
          "time": 142.375,
          "velocity": 1
        },
        {
          "duration": 1.9302083333333258,
          "durationTicks": 1853,
          "midi": 68,
          "name": "G#4",
          "ticks": 136680,
          "time": 142.375,
          "velocity": 1
        },
        {
          "duration": 1,
          "durationTicks": 960,
          "midi": 47,
          "name": "B2",
          "ticks": 137160,
          "time": 142.875,
          "velocity": 1
        },
        {
          "duration": 0.44999999999998863,
          "durationTicks": 432,
          "midi": 47,
          "name": "B2",
          "ticks": 138120,
          "time": 143.875,
          "velocity": 1
        },
        {
          "duration": 0.5302083333333201,
          "durationTicks": 509,
          "midi": 47,
          "name": "B2",
          "ticks": 138480,
          "time": 144.25,
          "velocity": 1
        },
        {
          "duration": 1.25,
          "durationTicks": 1200,
          "midi": 59,
          "name": "B3",
          "ticks": 138480,
          "time": 144.25,
          "velocity": 1
        },
        {
          "duration": 1.1208333333333371,
          "durationTicks": 1076,
          "midi": 63,
          "name": "D#4",
          "ticks": 138480,
          "time": 144.25,
          "velocity": 1
        },
        {
          "duration": 1.25,
          "durationTicks": 1200,
          "midi": 66,
          "name": "F#4",
          "ticks": 138480,
          "time": 144.25,
          "velocity": 1
        },
        {
          "duration": 0.7093749999999943,
          "durationTicks": 681,
          "midi": 47,
          "name": "B2",
          "ticks": 138960,
          "time": 144.75,
          "velocity": 1
        },
        {
          "duration": 1.9708333333333314,
          "durationTicks": 1892,
          "midi": 51,
          "name": "D#3",
          "ticks": 139680,
          "time": 145.5,
          "velocity": 1
        },
        {
          "duration": 2.3499999999999943,
          "durationTicks": 2256,
          "midi": 59,
          "name": "B3",
          "ticks": 139680,
          "time": 145.5,
          "velocity": 1
        },
        {
          "duration": 2.3499999999999943,
          "durationTicks": 2256,
          "midi": 66,
          "name": "F#4",
          "ticks": 139680,
          "time": 145.5,
          "velocity": 1
        },
        {
          "duration": 2.32916666666668,
          "durationTicks": 2236,
          "midi": 52,
          "name": "E3",
          "ticks": 141600,
          "time": 147.5,
          "velocity": 1
        },
        {
          "duration": 1.6208333333333371,
          "durationTicks": 1556,
          "midi": 61,
          "name": "C#4",
          "ticks": 141960,
          "time": 147.875,
          "velocity": 1
        },
        {
          "duration": 1.6208333333333371,
          "durationTicks": 1556,
          "midi": 66,
          "name": "F#4",
          "ticks": 141960,
          "time": 147.875,
          "velocity": 1
        },
        {
          "duration": 1.9499999999999886,
          "durationTicks": 1872,
          "midi": 68,
          "name": "G#4",
          "ticks": 141960,
          "time": 147.875,
          "velocity": 1
        },
        {
          "duration": 0.7302083333333371,
          "durationTicks": 701,
          "midi": 73,
          "name": "C#5",
          "ticks": 141960,
          "time": 147.875,
          "velocity": 1
        },
        {
          "duration": 1.2208333333333314,
          "durationTicks": 1172,
          "midi": 82,
          "name": "A#5",
          "ticks": 142680,
          "time": 148.625,
          "velocity": 1
        },
        {
          "duration": 3.5802083333333314,
          "durationTicks": 3437,
          "midi": 51,
          "name": "D#3",
          "ticks": 143880,
          "time": 149.875,
          "velocity": 1
        },
        {
          "duration": 3.5802083333333314,
          "durationTicks": 3437,
          "midi": 59,
          "name": "B3",
          "ticks": 143880,
          "time": 149.875,
          "velocity": 1
        },
        {
          "duration": 1.9708333333333314,
          "durationTicks": 1892,
          "midi": 66,
          "name": "F#4",
          "ticks": 143880,
          "time": 149.875,
          "velocity": 1
        },
        {
          "duration": 0.5114583333333371,
          "durationTicks": 491,
          "midi": 71,
          "name": "B4",
          "ticks": 143880,
          "time": 149.875,
          "velocity": 1
        },
        {
          "duration": 1.7208333333333314,
          "durationTicks": 1652,
          "midi": 78,
          "name": "F#5",
          "ticks": 143880,
          "time": 149.875,
          "velocity": 1
        },
        {
          "duration": 1.7208333333333314,
          "durationTicks": 1652,
          "midi": 83,
          "name": "B5",
          "ticks": 143880,
          "time": 149.875,
          "velocity": 1
        },
        {
          "duration": 2.6500000000000057,
          "durationTicks": 2544,
          "midi": 71,
          "name": "B4",
          "ticks": 144360,
          "time": 150.375,
          "velocity": 1
        },
        {
          "duration": 1.609375,
          "durationTicks": 1545,
          "midi": 67,
          "name": "G4",
          "ticks": 145800,
          "time": 151.875,
          "velocity": 1
        },
        {
          "duration": 0.41874999999998863,
          "durationTicks": 402,
          "midi": 82,
          "name": "A#5",
          "ticks": 146880,
          "time": 153,
          "velocity": 1
        },
        {
          "duration": 1.8708333333333371,
          "durationTicks": 1796,
          "midi": 52,
          "name": "E3",
          "ticks": 147240,
          "time": 153.375,
          "velocity": 1
        },
        {
          "duration": 1.8708333333333371,
          "durationTicks": 1796,
          "midi": 56,
          "name": "G#3",
          "ticks": 147240,
          "time": 153.375,
          "velocity": 1
        },
        {
          "duration": 0.5,
          "durationTicks": 480,
          "midi": 63,
          "name": "D#4",
          "ticks": 147240,
          "time": 153.375,
          "velocity": 1
        },
        {
          "duration": 0.5,
          "durationTicks": 480,
          "midi": 78,
          "name": "F#5",
          "ticks": 147240,
          "time": 153.375,
          "velocity": 1
        },
        {
          "duration": 0.5,
          "durationTicks": 480,
          "midi": 82,
          "name": "A#5",
          "ticks": 147240,
          "time": 153.375,
          "velocity": 1
        },
        {
          "duration": 1.3708333333333371,
          "durationTicks": 1316,
          "midi": 61,
          "name": "C#4",
          "ticks": 147720,
          "time": 153.875,
          "velocity": 1
        },
        {
          "duration": 1.3708333333333371,
          "durationTicks": 1316,
          "midi": 68,
          "name": "G#4",
          "ticks": 147720,
          "time": 153.875,
          "velocity": 1
        },
        {
          "duration": 1.3708333333333371,
          "durationTicks": 1316,
          "midi": 73,
          "name": "C#5",
          "ticks": 147720,
          "time": 153.875,
          "velocity": 1
        },
        {
          "duration": 0.7822916666666799,
          "durationTicks": 751,
          "midi": 76,
          "name": "E5",
          "ticks": 147720,
          "time": 153.875,
          "velocity": 1
        },
        {
          "duration": 0.5885416666666572,
          "durationTicks": 565,
          "midi": 78,
          "name": "F#5",
          "ticks": 148440,
          "time": 154.625,
          "velocity": 1
        },
        {
          "duration": 0.6500000000000057,
          "durationTicks": 624,
          "midi": 52,
          "name": "E3",
          "ticks": 149040,
          "time": 155.25,
          "velocity": 1
        },
        {
          "duration": 0.6500000000000057,
          "durationTicks": 624,
          "midi": 62,
          "name": "D4",
          "ticks": 149040,
          "time": 155.25,
          "velocity": 1
        },
        {
          "duration": 0.6500000000000057,
          "durationTicks": 624,
          "midi": 68,
          "name": "G#4",
          "ticks": 149040,
          "time": 155.25,
          "velocity": 1
        },
        {
          "duration": 0.6500000000000057,
          "durationTicks": 624,
          "midi": 74,
          "name": "D5",
          "ticks": 149040,
          "time": 155.25,
          "velocity": 1
        },
        {
          "duration": 0.36145833333333144,
          "durationTicks": 347,
          "midi": 80,
          "name": "G#5",
          "ticks": 149040,
          "time": 155.25,
          "velocity": 1
        },
        {
          "duration": 1.9302083333333258,
          "durationTicks": 1853,
          "midi": 51,
          "name": "D#3",
          "ticks": 149640,
          "time": 155.875,
          "velocity": 1
        },
        {
          "duration": 1.9302083333333258,
          "durationTicks": 1853,
          "midi": 59,
          "name": "B3",
          "ticks": 149640,
          "time": 155.875,
          "velocity": 1
        },
        {
          "duration": 1.75,
          "durationTicks": 1680,
          "midi": 61,
          "name": "C#4",
          "ticks": 149640,
          "time": 155.875,
          "velocity": 1
        },
        {
          "duration": 1.7687500000000114,
          "durationTicks": 1698,
          "midi": 66,
          "name": "F#4",
          "ticks": 149640,
          "time": 155.875,
          "velocity": 1
        },
        {
          "duration": 1.18854166666668,
          "durationTicks": 1141,
          "midi": 73,
          "name": "C#5",
          "ticks": 149640,
          "time": 155.875,
          "velocity": 1
        },
        {
          "duration": 0.5500000000000114,
          "durationTicks": 528,
          "midi": 75,
          "name": "D#5",
          "ticks": 150840,
          "time": 157.125,
          "velocity": 1
        },
        {
          "duration": 1.8708333333333371,
          "durationTicks": 1796,
          "midi": 44,
          "name": "G#2",
          "ticks": 151440,
          "time": 157.75,
          "velocity": 1
        },
        {
          "duration": 1.8614583333333314,
          "durationTicks": 1787,
          "midi": 54,
          "name": "F#3",
          "ticks": 151440,
          "time": 157.75,
          "velocity": 1
        },
        {
          "duration": 1.8000000000000114,
          "durationTicks": 1728,
          "midi": 66,
          "name": "F#4",
          "ticks": 151440,
          "time": 157.75,
          "velocity": 1
        },
        {
          "duration": 1.9000000000000057,
          "durationTicks": 1824,
          "midi": 71,
          "name": "B4",
          "ticks": 151440,
          "time": 157.75,
          "velocity": 1
        },
        {
          "duration": 0.44999999999998863,
          "durationTicks": 432,
          "midi": 42,
          "name": "F#2",
          "ticks": 153120,
          "time": 159.5,
          "velocity": 1
        },
        {
          "duration": 0.4416666666666629,
          "durationTicks": 424,
          "midi": 52,
          "name": "E3",
          "ticks": 153120,
          "time": 159.5,
          "velocity": 1
        },
        {
          "duration": 0.4416666666666629,
          "durationTicks": 424,
          "midi": 59,
          "name": "B3",
          "ticks": 153120,
          "time": 159.5,
          "velocity": 1
        },
        {
          "duration": 0.4416666666666629,
          "durationTicks": 424,
          "midi": 64,
          "name": "E4",
          "ticks": 153120,
          "time": 159.5,
          "velocity": 1
        },
        {
          "duration": 0.46145833333332575,
          "durationTicks": 443,
          "midi": 66,
          "name": "F#4",
          "ticks": 153120,
          "time": 159.5,
          "velocity": 1
        },
        {
          "duration": 0.6385416666666686,
          "durationTicks": 613,
          "midi": 40,
          "name": "E2",
          "ticks": 153600,
          "time": 160,
          "velocity": 1
        },
        {
          "duration": 0.6385416666666686,
          "durationTicks": 613,
          "midi": 52,
          "name": "E3",
          "ticks": 153600,
          "time": 160,
          "velocity": 1
        },
        {
          "duration": 0.6385416666666686,
          "durationTicks": 613,
          "midi": 56,
          "name": "G#3",
          "ticks": 153600,
          "time": 160,
          "velocity": 1
        },
        {
          "duration": 0.6385416666666686,
          "durationTicks": 613,
          "midi": 61,
          "name": "C#4",
          "ticks": 153600,
          "time": 160,
          "velocity": 1
        },
        {
          "duration": 0.30000000000001137,
          "durationTicks": 288,
          "midi": 68,
          "name": "G#4",
          "ticks": 153600,
          "time": 160,
          "velocity": 1
        },
        {
          "duration": 0.3385416666666572,
          "durationTicks": 325,
          "midi": 70,
          "name": "A#4",
          "ticks": 153840,
          "time": 160.25,
          "velocity": 1
        },
        {
          "duration": 0.7416666666666742,
          "durationTicks": 712,
          "midi": 39,
          "name": "D#2",
          "ticks": 154200,
          "time": 160.625,
          "velocity": 1
        },
        {
          "duration": 0.7416666666666742,
          "durationTicks": 712,
          "midi": 51,
          "name": "D#3",
          "ticks": 154200,
          "time": 160.625,
          "velocity": 1
        },
        {
          "duration": 0.7416666666666742,
          "durationTicks": 712,
          "midi": 54,
          "name": "F#3",
          "ticks": 154200,
          "time": 160.625,
          "velocity": 1
        },
        {
          "duration": 0.7416666666666742,
          "durationTicks": 712,
          "midi": 59,
          "name": "B3",
          "ticks": 154200,
          "time": 160.625,
          "velocity": 1
        },
        {
          "duration": 0.7416666666666742,
          "durationTicks": 712,
          "midi": 66,
          "name": "F#4",
          "ticks": 154200,
          "time": 160.625,
          "velocity": 1
        },
        {
          "duration": 1.1822916666666572,
          "durationTicks": 1135,
          "midi": 71,
          "name": "B4",
          "ticks": 154200,
          "time": 160.625,
          "velocity": 1
        },
        {
          "duration": 1.2406249999999943,
          "durationTicks": 1191,
          "midi": 55,
          "name": "G3",
          "ticks": 154920,
          "time": 161.375,
          "velocity": 1
        },
        {
          "duration": 1.2406249999999943,
          "durationTicks": 1191,
          "midi": 59,
          "name": "B3",
          "ticks": 154920,
          "time": 161.375,
          "velocity": 1
        },
        {
          "duration": 1.2406249999999943,
          "durationTicks": 1191,
          "midi": 63,
          "name": "D#4",
          "ticks": 154920,
          "time": 161.375,
          "velocity": 1
        },
        {
          "duration": 0.9208333333333201,
          "durationTicks": 884,
          "midi": 67,
          "name": "G4",
          "ticks": 154920,
          "time": 161.375,
          "velocity": 1
        },
        {
          "duration": 0.32083333333332575,
          "durationTicks": 308,
          "midi": 70,
          "name": "A#4",
          "ticks": 155760,
          "time": 162.25,
          "velocity": 1
        },
        {
          "duration": 0.5885416666666572,
          "durationTicks": 565,
          "midi": 47,
          "name": "B2",
          "ticks": 156120,
          "time": 162.625,
          "velocity": 1
        },
        {
          "duration": 1.4593749999999943,
          "durationTicks": 1401,
          "midi": 56,
          "name": "G#3",
          "ticks": 156120,
          "time": 162.625,
          "velocity": 1
        },
        {
          "duration": 1.4593749999999943,
          "durationTicks": 1401,
          "midi": 63,
          "name": "D#4",
          "ticks": 156120,
          "time": 162.625,
          "velocity": 1
        },
        {
          "duration": 1,
          "durationTicks": 960,
          "midi": 70,
          "name": "A#4",
          "ticks": 156120,
          "time": 162.625,
          "velocity": 1
        },
        {
          "duration": 0.8708333333333371,
          "durationTicks": 836,
          "midi": 40,
          "name": "E2",
          "ticks": 156720,
          "time": 163.25,
          "velocity": 1
        },
        {
          "duration": 0.4593749999999943,
          "durationTicks": 441,
          "midi": 68,
          "name": "G#4",
          "ticks": 157080,
          "time": 163.625,
          "velocity": 1
        },
        {
          "duration": 0.4791666666666572,
          "durationTicks": 460,
          "midi": 39,
          "name": "D#2",
          "ticks": 157560,
          "time": 164.125,
          "velocity": 1
        },
        {
          "duration": 0.4791666666666572,
          "durationTicks": 460,
          "midi": 54,
          "name": "F#3",
          "ticks": 157560,
          "time": 164.125,
          "velocity": 1
        },
        {
          "duration": 0.4791666666666572,
          "durationTicks": 460,
          "midi": 61,
          "name": "C#4",
          "ticks": 157560,
          "time": 164.125,
          "velocity": 1
        },
        {
          "duration": 0.4791666666666572,
          "durationTicks": 460,
          "midi": 66,
          "name": "F#4",
          "ticks": 157560,
          "time": 164.125,
          "velocity": 1
        },
        {
          "duration": 0.8614583333333314,
          "durationTicks": 827,
          "midi": 44,
          "name": "G#2",
          "ticks": 158040,
          "time": 164.625,
          "velocity": 1
        },
        {
          "duration": 0.8614583333333314,
          "durationTicks": 827,
          "midi": 54,
          "name": "F#3",
          "ticks": 158040,
          "time": 164.625,
          "velocity": 1
        },
        {
          "duration": 0.8614583333333314,
          "durationTicks": 827,
          "midi": 59,
          "name": "B3",
          "ticks": 158040,
          "time": 164.625,
          "velocity": 1
        },
        {
          "duration": 0.8614583333333314,
          "durationTicks": 827,
          "midi": 63,
          "name": "D#4",
          "ticks": 158040,
          "time": 164.625,
          "velocity": 1
        },
        {
          "duration": 2.43854166666668,
          "durationTicks": 2341,
          "midi": 37,
          "name": "C#2",
          "ticks": 158880,
          "time": 165.5,
          "velocity": 1
        },
        {
          "duration": 1.2687500000000114,
          "durationTicks": 1218,
          "midi": 54,
          "name": "F#3",
          "ticks": 158880,
          "time": 165.5,
          "velocity": 1
        },
        {
          "duration": 2.43854166666668,
          "durationTicks": 2341,
          "midi": 59,
          "name": "B3",
          "ticks": 158880,
          "time": 165.5,
          "velocity": 1
        },
        {
          "duration": 2.43854166666668,
          "durationTicks": 2341,
          "midi": 61,
          "name": "C#4",
          "ticks": 158880,
          "time": 165.5,
          "velocity": 1
        },
        {
          "duration": 1.359375,
          "durationTicks": 1305,
          "midi": 53,
          "name": "F3",
          "ticks": 159840,
          "time": 166.5,
          "velocity": 1
        },
        {
          "duration": 0.08854166666665719,
          "durationTicks": 85,
          "midi": 42,
          "name": "F#2",
          "ticks": 161160,
          "time": 167.875,
          "velocity": 1
        },
        {
          "duration": 0.08854166666665719,
          "durationTicks": 85,
          "midi": 54,
          "name": "F#3",
          "ticks": 161160,
          "time": 167.875,
          "velocity": 1
        },
        {
          "duration": 0.08854166666665719,
          "durationTicks": 85,
          "midi": 58,
          "name": "A#3",
          "ticks": 161160,
          "time": 167.875,
          "velocity": 1
        },
        {
          "duration": 0.08854166666665719,
          "durationTicks": 85,
          "midi": 61,
          "name": "C#4",
          "ticks": 161160,
          "time": 167.875,
          "velocity": 1
        },
        {
          "duration": 0.42083333333332007,
          "durationTicks": 404,
          "midi": 52,
          "name": "E3",
          "ticks": 161520,
          "time": 168.25,
          "velocity": 1
        },
        {
          "duration": 1.25,
          "durationTicks": 1200,
          "midi": 56,
          "name": "G#3",
          "ticks": 161520,
          "time": 168.25,
          "velocity": 1
        },
        {
          "duration": 1.25,
          "durationTicks": 1200,
          "midi": 59,
          "name": "B3",
          "ticks": 161520,
          "time": 168.25,
          "velocity": 1
        },
        {
          "duration": 1.25,
          "durationTicks": 1200,
          "midi": 64,
          "name": "E4",
          "ticks": 161520,
          "time": 168.25,
          "velocity": 1
        },
        {
          "duration": 1.25,
          "durationTicks": 1200,
          "midi": 66,
          "name": "F#4",
          "ticks": 161520,
          "time": 168.25,
          "velocity": 1
        },
        {
          "duration": 0.42083333333332007,
          "durationTicks": 404,
          "midi": 52,
          "name": "E3",
          "ticks": 161880,
          "time": 168.625,
          "velocity": 1
        },
        {
          "duration": 0.40937500000001137,
          "durationTicks": 393,
          "midi": 52,
          "name": "E3",
          "ticks": 162360,
          "time": 169.125,
          "velocity": 1
        },
        {
          "duration": 0.42083333333332007,
          "durationTicks": 404,
          "midi": 52,
          "name": "E3",
          "ticks": 162720,
          "time": 169.5,
          "velocity": 1
        },
        {
          "duration": 0.8000000000000114,
          "durationTicks": 768,
          "midi": 56,
          "name": "G#3",
          "ticks": 162720,
          "time": 169.5,
          "velocity": 1
        },
        {
          "duration": 0.8000000000000114,
          "durationTicks": 768,
          "midi": 58,
          "name": "A#3",
          "ticks": 162720,
          "time": 169.5,
          "velocity": 1
        },
        {
          "duration": 0.8000000000000114,
          "durationTicks": 768,
          "midi": 63,
          "name": "D#4",
          "ticks": 162720,
          "time": 169.5,
          "velocity": 1
        },
        {
          "duration": 0.8000000000000114,
          "durationTicks": 768,
          "midi": 66,
          "name": "F#4",
          "ticks": 162720,
          "time": 169.5,
          "velocity": 1
        },
        {
          "duration": 0.3791666666666629,
          "durationTicks": 364,
          "midi": 42,
          "name": "F#2",
          "ticks": 163080,
          "time": 169.875,
          "velocity": 1
        },
        {
          "duration": 1.3499999999999943,
          "durationTicks": 1296,
          "midi": 56,
          "name": "G#3",
          "ticks": 163440,
          "time": 170.25,
          "velocity": 1
        },
        {
          "duration": 1.3499999999999943,
          "durationTicks": 1296,
          "midi": 58,
          "name": "A#3",
          "ticks": 163440,
          "time": 170.25,
          "velocity": 1
        },
        {
          "duration": 1.3499999999999943,
          "durationTicks": 1296,
          "midi": 63,
          "name": "D#4",
          "ticks": 163440,
          "time": 170.25,
          "velocity": 1
        },
        {
          "duration": 1.3499999999999943,
          "durationTicks": 1296,
          "midi": 66,
          "name": "F#4",
          "ticks": 163440,
          "time": 170.25,
          "velocity": 1
        },
        {
          "duration": 0.7791666666666686,
          "durationTicks": 748,
          "midi": 42,
          "name": "F#2",
          "ticks": 164040,
          "time": 170.875,
          "velocity": 1
        },
        {
          "duration": 0.5708333333333258,
          "durationTicks": 548,
          "midi": 47,
          "name": "B2",
          "ticks": 164760,
          "time": 171.625,
          "velocity": 1
        },
        {
          "duration": 0.4000000000000057,
          "durationTicks": 384,
          "midi": 59,
          "name": "B3",
          "ticks": 164760,
          "time": 171.625,
          "velocity": 1
        },
        {
          "duration": 0.8499999999999943,
          "durationTicks": 816,
          "midi": 61,
          "name": "C#4",
          "ticks": 164760,
          "time": 171.625,
          "velocity": 1
        },
        {
          "duration": 0.8499999999999943,
          "durationTicks": 816,
          "midi": 68,
          "name": "G#4",
          "ticks": 164760,
          "time": 171.625,
          "velocity": 1
        },
        {
          "duration": 0.4000000000000057,
          "durationTicks": 384,
          "midi": 71,
          "name": "B4",
          "ticks": 164760,
          "time": 171.625,
          "velocity": 1
        },
        {
          "duration": 1.4416666666666629,
          "durationTicks": 1384,
          "midi": 75,
          "name": "D#5",
          "ticks": 164760,
          "time": 171.625,
          "velocity": 1
        },
        {
          "duration": 0.27916666666666856,
          "durationTicks": 268,
          "midi": 57,
          "name": "A3",
          "ticks": 165360,
          "time": 172.25,
          "velocity": 1
        },
        {
          "duration": 0.2708333333333428,
          "durationTicks": 260,
          "midi": 59,
          "name": "B3",
          "ticks": 165600,
          "time": 172.5,
          "velocity": 1
        },
        {
          "duration": 0.5916666666666686,
          "durationTicks": 568,
          "midi": 61,
          "name": "C#4",
          "ticks": 165600,
          "time": 172.5,
          "velocity": 1
        },
        {
          "duration": 0.2708333333333428,
          "durationTicks": 260,
          "midi": 64,
          "name": "E4",
          "ticks": 165600,
          "time": 172.5,
          "velocity": 1
        },
        {
          "duration": 0.32083333333332575,
          "durationTicks": 308,
          "midi": 57,
          "name": "A3",
          "ticks": 165840,
          "time": 172.75,
          "velocity": 1
        },
        {
          "duration": 0.32083333333332575,
          "durationTicks": 308,
          "midi": 68,
          "name": "G#4",
          "ticks": 165840,
          "time": 172.75,
          "velocity": 1
        },
        {
          "duration": 0.30000000000001137,
          "durationTicks": 288,
          "midi": 52,
          "name": "E3",
          "ticks": 166200,
          "time": 173.125,
          "velocity": 1
        },
        {
          "duration": 0.30000000000001137,
          "durationTicks": 288,
          "midi": 64,
          "name": "E4",
          "ticks": 166200,
          "time": 173.125,
          "velocity": 1
        },
        {
          "duration": 0.30000000000001137,
          "durationTicks": 288,
          "midi": 71,
          "name": "B4",
          "ticks": 166200,
          "time": 173.125,
          "velocity": 1
        },
        {
          "duration": 0.43854166666667993,
          "durationTicks": 421,
          "midi": 47,
          "name": "B2",
          "ticks": 166440,
          "time": 173.375,
          "velocity": 1
        },
        {
          "duration": 0.43854166666667993,
          "durationTicks": 421,
          "midi": 61,
          "name": "C#4",
          "ticks": 166440,
          "time": 173.375,
          "velocity": 1
        },
        {
          "duration": 0.43854166666667993,
          "durationTicks": 421,
          "midi": 68,
          "name": "G#4",
          "ticks": 166440,
          "time": 173.375,
          "velocity": 1
        },
        {
          "duration": 0.4000000000000057,
          "durationTicks": 384,
          "midi": 47,
          "name": "B2",
          "ticks": 166800,
          "time": 173.75,
          "velocity": 1
        },
        {
          "duration": 0.9416666666666629,
          "durationTicks": 904,
          "midi": 57,
          "name": "A3",
          "ticks": 166800,
          "time": 173.75,
          "velocity": 1
        },
        {
          "duration": 0.9416666666666629,
          "durationTicks": 904,
          "midi": 63,
          "name": "D#4",
          "ticks": 166800,
          "time": 173.75,
          "velocity": 1
        },
        {
          "duration": 0.9416666666666629,
          "durationTicks": 904,
          "midi": 66,
          "name": "F#4",
          "ticks": 166800,
          "time": 173.75,
          "velocity": 1
        },
        {
          "duration": 0.5302083333333201,
          "durationTicks": 509,
          "midi": 47,
          "name": "B2",
          "ticks": 167280,
          "time": 174.25,
          "velocity": 1
        },
        {
          "duration": 0.5302083333333201,
          "durationTicks": 509,
          "midi": 73,
          "name": "C#5",
          "ticks": 167280,
          "time": 174.25,
          "velocity": 1
        },
        {
          "duration": 1.25,
          "durationTicks": 1200,
          "midi": 40,
          "name": "E2",
          "ticks": 167760,
          "time": 174.75,
          "velocity": 1
        },
        {
          "duration": 1.25,
          "durationTicks": 1200,
          "midi": 47,
          "name": "B2",
          "ticks": 167760,
          "time": 174.75,
          "velocity": 1
        },
        {
          "duration": 0.8708333333333371,
          "durationTicks": 836,
          "midi": 61,
          "name": "C#4",
          "ticks": 167760,
          "time": 174.75,
          "velocity": 1
        },
        {
          "duration": 0.8708333333333371,
          "durationTicks": 836,
          "midi": 66,
          "name": "F#4",
          "ticks": 167760,
          "time": 174.75,
          "velocity": 1
        },
        {
          "duration": 0.8708333333333371,
          "durationTicks": 836,
          "midi": 68,
          "name": "G#4",
          "ticks": 167760,
          "time": 174.75,
          "velocity": 1
        },
        {
          "duration": 0.8708333333333371,
          "durationTicks": 836,
          "midi": 73,
          "name": "C#5",
          "ticks": 167760,
          "time": 174.75,
          "velocity": 1
        },
        {
          "duration": 0.7916666666666572,
          "durationTicks": 760,
          "midi": 63,
          "name": "D#4",
          "ticks": 168600,
          "time": 175.625,
          "velocity": 1
        },
        {
          "duration": 0.7916666666666572,
          "durationTicks": 760,
          "midi": 64,
          "name": "E4",
          "ticks": 168600,
          "time": 175.625,
          "velocity": 1
        },
        {
          "duration": 0.49166666666667425,
          "durationTicks": 472,
          "midi": 68,
          "name": "G#4",
          "ticks": 168600,
          "time": 175.625,
          "velocity": 1
        },
        {
          "duration": 0.7916666666666572,
          "durationTicks": 760,
          "midi": 71,
          "name": "B4",
          "ticks": 168600,
          "time": 175.625,
          "velocity": 1
        },
        {
          "duration": 0.4000000000000057,
          "durationTicks": 384,
          "midi": 56,
          "name": "G#3",
          "ticks": 168960,
          "time": 176,
          "velocity": 1
        },
        {
          "duration": 1.1500000000000057,
          "durationTicks": 1104,
          "midi": 68,
          "name": "G#4",
          "ticks": 169320,
          "time": 176.375,
          "velocity": 1
        },
        {
          "duration": 0.40937500000001137,
          "durationTicks": 393,
          "midi": 41,
          "name": "F2",
          "ticks": 169800,
          "time": 176.875,
          "velocity": 1
        },
        {
          "duration": 0.7291666666666572,
          "durationTicks": 700,
          "midi": 59,
          "name": "B3",
          "ticks": 169800,
          "time": 176.875,
          "velocity": 1
        },
        {
          "duration": 0.7291666666666572,
          "durationTicks": 700,
          "midi": 62,
          "name": "D4",
          "ticks": 169800,
          "time": 176.875,
          "velocity": 1
        },
        {
          "duration": 0.30937499999998863,
          "durationTicks": 297,
          "midi": 50,
          "name": "D3",
          "ticks": 170160,
          "time": 177.25,
          "velocity": 1
        },
        {
          "duration": 0.4885416666666629,
          "durationTicks": 469,
          "midi": 56,
          "name": "G#3",
          "ticks": 170520,
          "time": 177.625,
          "velocity": 1
        },
        {
          "duration": 0.4885416666666629,
          "durationTicks": 469,
          "midi": 62,
          "name": "D4",
          "ticks": 170520,
          "time": 177.625,
          "velocity": 1
        },
        {
          "duration": 0.4885416666666629,
          "durationTicks": 469,
          "midi": 65,
          "name": "F4",
          "ticks": 170520,
          "time": 177.625,
          "velocity": 1
        },
        {
          "duration": 0.4885416666666629,
          "durationTicks": 469,
          "midi": 68,
          "name": "G#4",
          "ticks": 170520,
          "time": 177.625,
          "velocity": 1
        },
        {
          "duration": 0.4885416666666629,
          "durationTicks": 469,
          "midi": 71,
          "name": "B4",
          "ticks": 170520,
          "time": 177.625,
          "velocity": 1
        },
        {
          "duration": 6.759375000000006,
          "durationTicks": 6489,
          "midi": 58,
          "name": "A#3",
          "ticks": 171000,
          "time": 178.125,
          "velocity": 1
        },
        {
          "duration": 1.7885416666666742,
          "durationTicks": 1717,
          "midi": 63,
          "name": "D#4",
          "ticks": 171000,
          "time": 178.125,
          "velocity": 1
        },
        {
          "duration": 2.130208333333343,
          "durationTicks": 2045,
          "midi": 66,
          "name": "F#4",
          "ticks": 171000,
          "time": 178.125,
          "velocity": 1
        },
        {
          "duration": 2.39166666666668,
          "durationTicks": 2296,
          "midi": 63,
          "name": "D#4",
          "ticks": 172680,
          "time": 179.875,
          "velocity": 1
        },
        {
          "duration": 1.5,
          "durationTicks": 1440,
          "midi": 37,
          "name": "C#2",
          "ticks": 177480,
          "time": 184.875,
          "velocity": 1
        },
        {
          "duration": 2.31145833333332,
          "durationTicks": 2219,
          "midi": 53,
          "name": "F3",
          "ticks": 177480,
          "time": 184.875,
          "velocity": 1
        },
        {
          "duration": 2.31145833333332,
          "durationTicks": 2219,
          "midi": 59,
          "name": "B3",
          "ticks": 177480,
          "time": 184.875,
          "velocity": 1
        },
        {
          "duration": 1.0916666666666686,
          "durationTicks": 1048,
          "midi": 61,
          "name": "C#4",
          "ticks": 178680,
          "time": 186.125,
          "velocity": 1
        },
        {
          "duration": 2.1802083333333258,
          "durationTicks": 2093,
          "midi": 42,
          "name": "F#2",
          "ticks": 179760,
          "time": 187.25,
          "velocity": 1
        },
        {
          "duration": 0.9499999999999886,
          "durationTicks": 912,
          "midi": 58,
          "name": "A#3",
          "ticks": 179760,
          "time": 187.25,
          "velocity": 1
        },
        {
          "duration": 0.9499999999999886,
          "durationTicks": 912,
          "midi": 59,
          "name": "B3",
          "ticks": 179760,
          "time": 187.25,
          "velocity": 1
        },
        {
          "duration": 0.9499999999999886,
          "durationTicks": 912,
          "midi": 63,
          "name": "D#4",
          "ticks": 179760,
          "time": 187.25,
          "velocity": 1
        },
        {
          "duration": 0.4000000000000057,
          "durationTicks": 384,
          "midi": 68,
          "name": "G#4",
          "ticks": 180240,
          "time": 187.75,
          "velocity": 1
        },
        {
          "duration": 0.41874999999998863,
          "durationTicks": 402,
          "midi": 61,
          "name": "C#4",
          "ticks": 180600,
          "time": 188.125,
          "velocity": 1
        },
        {
          "duration": 0.41874999999998863,
          "durationTicks": 402,
          "midi": 66,
          "name": "F#4",
          "ticks": 180600,
          "time": 188.125,
          "velocity": 1
        },
        {
          "duration": 1.14166666666668,
          "durationTicks": 1096,
          "midi": 58,
          "name": "A#3",
          "ticks": 180960,
          "time": 188.5,
          "velocity": 1
        },
        {
          "duration": 1.14166666666668,
          "durationTicks": 1096,
          "midi": 63,
          "name": "D#4",
          "ticks": 180960,
          "time": 188.5,
          "velocity": 1
        },
        {
          "duration": 1.3208333333333258,
          "durationTicks": 1268,
          "midi": 42,
          "name": "F#2",
          "ticks": 181800,
          "time": 189.375,
          "velocity": 1
        },
        {
          "duration": 0.9791666666666572,
          "durationTicks": 940,
          "midi": 52,
          "name": "E3",
          "ticks": 182160,
          "time": 189.75,
          "velocity": 1
        },
        {
          "duration": 0.47083333333333144,
          "durationTicks": 452,
          "midi": 64,
          "name": "E4",
          "ticks": 182160,
          "time": 189.75,
          "velocity": 1
        },
        {
          "duration": 0.9791666666666572,
          "durationTicks": 940,
          "midi": 68,
          "name": "G#4",
          "ticks": 182160,
          "time": 189.75,
          "velocity": 1
        },
        {
          "duration": 0.7593750000000057,
          "durationTicks": 729,
          "midi": 73,
          "name": "C#5",
          "ticks": 182160,
          "time": 189.75,
          "velocity": 1
        },
        {
          "duration": 0.5093750000000057,
          "durationTicks": 489,
          "midi": 59,
          "name": "B3",
          "ticks": 182640,
          "time": 190.25,
          "velocity": 1
        },
        {
          "duration": 1.8302083333333314,
          "durationTicks": 1757,
          "midi": 42,
          "name": "F#2",
          "ticks": 183120,
          "time": 190.75,
          "velocity": 1
        },
        {
          "duration": 2.380208333333343,
          "durationTicks": 2285,
          "midi": 52,
          "name": "E3",
          "ticks": 183120,
          "time": 190.75,
          "velocity": 1
        },
        {
          "duration": 2.380208333333343,
          "durationTicks": 2285,
          "midi": 58,
          "name": "A#3",
          "ticks": 183120,
          "time": 190.75,
          "velocity": 1
        },
        {
          "duration": 2.380208333333343,
          "durationTicks": 2285,
          "midi": 61,
          "name": "C#4",
          "ticks": 183120,
          "time": 190.75,
          "velocity": 1
        },
        {
          "duration": 0.5802083333333314,
          "durationTicks": 557,
          "midi": 64,
          "name": "E4",
          "ticks": 183120,
          "time": 190.75,
          "velocity": 1
        },
        {
          "duration": 0.5802083333333314,
          "durationTicks": 557,
          "midi": 68,
          "name": "G#4",
          "ticks": 183120,
          "time": 190.75,
          "velocity": 1
        },
        {
          "duration": 1.8000000000000114,
          "durationTicks": 1728,
          "midi": 66,
          "name": "F#4",
          "ticks": 183600,
          "time": 191.25,
          "velocity": 1
        },
        {
          "duration": 1.8000000000000114,
          "durationTicks": 1728,
          "midi": 70,
          "name": "A#4",
          "ticks": 183600,
          "time": 191.25,
          "velocity": 1
        },
        {
          "duration": 0.7822916666666799,
          "durationTicks": 751,
          "midi": 47,
          "name": "B2",
          "ticks": 185280,
          "time": 193,
          "velocity": 1
        },
        {
          "duration": 0.7822916666666799,
          "durationTicks": 751,
          "midi": 59,
          "name": "B3",
          "ticks": 185280,
          "time": 193,
          "velocity": 1
        },
        {
          "duration": 0.7822916666666799,
          "durationTicks": 751,
          "midi": 63,
          "name": "D#4",
          "ticks": 185280,
          "time": 193,
          "velocity": 1
        },
        {
          "duration": 1.4916666666666742,
          "durationTicks": 1432,
          "midi": 66,
          "name": "F#4",
          "ticks": 185280,
          "time": 193,
          "velocity": 1
        },
        {
          "duration": 1.4916666666666742,
          "durationTicks": 1432,
          "midi": 68,
          "name": "G#4",
          "ticks": 185280,
          "time": 193,
          "velocity": 1
        },
        {
          "duration": 1.4916666666666742,
          "durationTicks": 1432,
          "midi": 71,
          "name": "B4",
          "ticks": 185280,
          "time": 193,
          "velocity": 1
        },
        {
          "duration": 1.18854166666668,
          "durationTicks": 1141,
          "midi": 44,
          "name": "G#2",
          "ticks": 186000,
          "time": 193.75,
          "velocity": 1
        },
        {
          "duration": 1.18854166666668,
          "durationTicks": 1141,
          "midi": 54,
          "name": "F#3",
          "ticks": 186000,
          "time": 193.75,
          "velocity": 1
        },
        {
          "duration": 0.43020833333332575,
          "durationTicks": 413,
          "midi": 59,
          "name": "B3",
          "ticks": 186000,
          "time": 193.75,
          "velocity": 1
        },
        {
          "duration": 0.43020833333332575,
          "durationTicks": 413,
          "midi": 61,
          "name": "C#4",
          "ticks": 186000,
          "time": 193.75,
          "velocity": 1
        },
        {
          "duration": 0.7593750000000057,
          "durationTicks": 729,
          "midi": 58,
          "name": "A#3",
          "ticks": 186480,
          "time": 194.25,
          "velocity": 1
        },
        {
          "duration": 0.7593750000000057,
          "durationTicks": 729,
          "midi": 63,
          "name": "D#4",
          "ticks": 186480,
          "time": 194.25,
          "velocity": 1
        },
        {
          "duration": 0.6302083333333428,
          "durationTicks": 605,
          "midi": 43,
          "name": "G2",
          "ticks": 187200,
          "time": 195,
          "velocity": 1
        },
        {
          "duration": 0.6302083333333428,
          "durationTicks": 605,
          "midi": 53,
          "name": "F3",
          "ticks": 187200,
          "time": 195,
          "velocity": 1
        },
        {
          "duration": 0.6302083333333428,
          "durationTicks": 605,
          "midi": 57,
          "name": "A3",
          "ticks": 187200,
          "time": 195,
          "velocity": 1
        },
        {
          "duration": 0.6302083333333428,
          "durationTicks": 605,
          "midi": 58,
          "name": "A#3",
          "ticks": 187200,
          "time": 195,
          "velocity": 1
        },
        {
          "duration": 0.6302083333333428,
          "durationTicks": 605,
          "midi": 61,
          "name": "C#4",
          "ticks": 187200,
          "time": 195,
          "velocity": 1
        },
        {
          "duration": 0.6302083333333428,
          "durationTicks": 605,
          "midi": 62,
          "name": "D4",
          "ticks": 187200,
          "time": 195,
          "velocity": 1
        },
        {
          "duration": 1.0208333333333428,
          "durationTicks": 980,
          "midi": 67,
          "name": "G4",
          "ticks": 187200,
          "time": 195,
          "velocity": 1
        },
        {
          "duration": 0.9416666666666629,
          "durationTicks": 904,
          "midi": 48,
          "name": "C3",
          "ticks": 187800,
          "time": 195.625,
          "velocity": 1
        },
        {
          "duration": 1.81145833333332,
          "durationTicks": 1739,
          "midi": 53,
          "name": "F3",
          "ticks": 187800,
          "time": 195.625,
          "velocity": 1
        },
        {
          "duration": 1.81145833333332,
          "durationTicks": 1739,
          "midi": 58,
          "name": "A#3",
          "ticks": 187800,
          "time": 195.625,
          "velocity": 1
        },
        {
          "duration": 0.8614583333333314,
          "durationTicks": 827,
          "midi": 62,
          "name": "D4",
          "ticks": 187800,
          "time": 195.625,
          "velocity": 1
        },
        {
          "duration": 0.47083333333333144,
          "durationTicks": 452,
          "midi": 72,
          "name": "C5",
          "ticks": 188160,
          "time": 196,
          "velocity": 1
        },
        {
          "duration": 0.9499999999999886,
          "durationTicks": 912,
          "midi": 65,
          "name": "F4",
          "ticks": 188640,
          "time": 196.5,
          "velocity": 1
        },
        {
          "duration": 0.44999999999998863,
          "durationTicks": 432,
          "midi": 77,
          "name": "F5",
          "ticks": 188640,
          "time": 196.5,
          "velocity": 1
        },
        {
          "duration": 0.5,
          "durationTicks": 480,
          "midi": 79,
          "name": "G5",
          "ticks": 189120,
          "time": 197,
          "velocity": 1
        },
        {
          "duration": 1.0885416666666572,
          "durationTicks": 1045,
          "midi": 53,
          "name": "F3",
          "ticks": 189600,
          "time": 197.5,
          "velocity": 1
        },
        {
          "duration": 0.2708333333333428,
          "durationTicks": 260,
          "midi": 64,
          "name": "E4",
          "ticks": 189600,
          "time": 197.5,
          "velocity": 1
        },
        {
          "duration": 1.0885416666666572,
          "durationTicks": 1045,
          "midi": 69,
          "name": "A4",
          "ticks": 189600,
          "time": 197.5,
          "velocity": 1
        },
        {
          "duration": 1.0885416666666572,
          "durationTicks": 1045,
          "midi": 81,
          "name": "A5",
          "ticks": 189600,
          "time": 197.5,
          "velocity": 1
        },
        {
          "duration": 0.3499999999999943,
          "durationTicks": 336,
          "midi": 61,
          "name": "C#4",
          "ticks": 189840,
          "time": 197.75,
          "velocity": 1
        },
        {
          "duration": 0.46875,
          "durationTicks": 450,
          "midi": 62,
          "name": "D4",
          "ticks": 190200,
          "time": 198.125,
          "velocity": 1
        },
        {
          "duration": 1.0114583333333371,
          "durationTicks": 971,
          "midi": 53,
          "name": "F3",
          "ticks": 190680,
          "time": 198.625,
          "velocity": 1
        },
        {
          "duration": 1.0114583333333371,
          "durationTicks": 971,
          "midi": 60,
          "name": "C4",
          "ticks": 190680,
          "time": 198.625,
          "velocity": 1
        },
        {
          "duration": 1.0114583333333371,
          "durationTicks": 971,
          "midi": 69,
          "name": "A4",
          "ticks": 190680,
          "time": 198.625,
          "velocity": 1
        },
        {
          "duration": 1.0114583333333371,
          "durationTicks": 971,
          "midi": 77,
          "name": "F5",
          "ticks": 190680,
          "time": 198.625,
          "velocity": 1
        },
        {
          "duration": 0.7708333333333428,
          "durationTicks": 740,
          "midi": 49,
          "name": "C#3",
          "ticks": 191640,
          "time": 199.625,
          "velocity": 1
        },
        {
          "duration": 0.5322916666666799,
          "durationTicks": 511,
          "midi": 59,
          "name": "B3",
          "ticks": 191880,
          "time": 199.875,
          "velocity": 1
        },
        {
          "duration": 0.4906249999999943,
          "durationTicks": 471,
          "midi": 63,
          "name": "D#4",
          "ticks": 191880,
          "time": 199.875,
          "velocity": 1
        },
        {
          "duration": 0.5322916666666799,
          "durationTicks": 511,
          "midi": 65,
          "name": "F4",
          "ticks": 191880,
          "time": 199.875,
          "velocity": 1
        },
        {
          "duration": 0.4906249999999943,
          "durationTicks": 471,
          "midi": 71,
          "name": "B4",
          "ticks": 191880,
          "time": 199.875,
          "velocity": 1
        },
        {
          "duration": 0.4906249999999943,
          "durationTicks": 471,
          "midi": 75,
          "name": "D#5",
          "ticks": 191880,
          "time": 199.875,
          "velocity": 1
        },
        {
          "duration": 0.44999999999998863,
          "durationTicks": 432,
          "midi": 79,
          "name": "G5",
          "ticks": 191880,
          "time": 199.875,
          "velocity": 1
        },
        {
          "duration": 1.0385416666666742,
          "durationTicks": 997,
          "midi": 48,
          "name": "C3",
          "ticks": 192360,
          "time": 200.375,
          "velocity": 1
        },
        {
          "duration": 0.7593750000000057,
          "durationTicks": 729,
          "midi": 58,
          "name": "A#3",
          "ticks": 192360,
          "time": 200.375,
          "velocity": 1
        },
        {
          "duration": 0.359375,
          "durationTicks": 345,
          "midi": 63,
          "name": "D#4",
          "ticks": 192360,
          "time": 200.375,
          "velocity": 1
        },
        {
          "duration": 0.5385416666666742,
          "durationTicks": 517,
          "midi": 69,
          "name": "A4",
          "ticks": 192360,
          "time": 200.375,
          "velocity": 1
        },
        {
          "duration": 1.0385416666666742,
          "durationTicks": 997,
          "midi": 74,
          "name": "D5",
          "ticks": 192360,
          "time": 200.375,
          "velocity": 1
        },
        {
          "duration": 0.359375,
          "durationTicks": 345,
          "midi": 77,
          "name": "F5",
          "ticks": 192360,
          "time": 200.375,
          "velocity": 1
        },
        {
          "duration": 0.5385416666666742,
          "durationTicks": 517,
          "midi": 81,
          "name": "A5",
          "ticks": 192360,
          "time": 200.375,
          "velocity": 1
        },
        {
          "duration": 0.5,
          "durationTicks": 480,
          "midi": 63,
          "name": "D#4",
          "ticks": 192840,
          "time": 200.875,
          "velocity": 1
        },
        {
          "duration": 0.5,
          "durationTicks": 480,
          "midi": 67,
          "name": "G4",
          "ticks": 192840,
          "time": 200.875,
          "velocity": 1
        },
        {
          "duration": 0.5,
          "durationTicks": 480,
          "midi": 79,
          "name": "G5",
          "ticks": 192840,
          "time": 200.875,
          "velocity": 1
        },
        {
          "duration": 0.5,
          "durationTicks": 480,
          "midi": 81,
          "name": "A5",
          "ticks": 192840,
          "time": 200.875,
          "velocity": 1
        },
        {
          "duration": 0.5,
          "durationTicks": 480,
          "midi": 86,
          "name": "D6",
          "ticks": 192840,
          "time": 200.875,
          "velocity": 1
        },
        {
          "duration": 0.27916666666666856,
          "durationTicks": 268,
          "midi": 60,
          "name": "C4",
          "ticks": 193080,
          "time": 201.125,
          "velocity": 1
        },
        {
          "duration": 0.9302083333333258,
          "durationTicks": 893,
          "midi": 57,
          "name": "A3",
          "ticks": 193320,
          "time": 201.375,
          "velocity": 1
        },
        {
          "duration": 0.9302083333333258,
          "durationTicks": 893,
          "midi": 63,
          "name": "D#4",
          "ticks": 193320,
          "time": 201.375,
          "velocity": 1
        },
        {
          "duration": 0.9302083333333258,
          "durationTicks": 893,
          "midi": 67,
          "name": "G4",
          "ticks": 193320,
          "time": 201.375,
          "velocity": 1
        },
        {
          "duration": 0.5,
          "durationTicks": 480,
          "midi": 72,
          "name": "C5",
          "ticks": 193320,
          "time": 201.375,
          "velocity": 1
        },
        {
          "duration": 0.5,
          "durationTicks": 480,
          "midi": 75,
          "name": "D#5",
          "ticks": 193320,
          "time": 201.375,
          "velocity": 1
        },
        {
          "duration": 0.5,
          "durationTicks": 480,
          "midi": 77,
          "name": "F5",
          "ticks": 193320,
          "time": 201.375,
          "velocity": 1
        },
        {
          "duration": 0.5,
          "durationTicks": 480,
          "midi": 84,
          "name": "C6",
          "ticks": 193320,
          "time": 201.375,
          "velocity": 1
        },
        {
          "duration": 0.43020833333332575,
          "durationTicks": 413,
          "midi": 69,
          "name": "A4",
          "ticks": 193800,
          "time": 201.875,
          "velocity": 1
        },
        {
          "duration": 0.43020833333332575,
          "durationTicks": 413,
          "midi": 74,
          "name": "D5",
          "ticks": 193800,
          "time": 201.875,
          "velocity": 1
        },
        {
          "duration": 0.43020833333332575,
          "durationTicks": 413,
          "midi": 77,
          "name": "F5",
          "ticks": 193800,
          "time": 201.875,
          "velocity": 1
        },
        {
          "duration": 0.24166666666667425,
          "durationTicks": 232,
          "midi": 81,
          "name": "A5",
          "ticks": 193800,
          "time": 201.875,
          "velocity": 1
        },
        {
          "duration": 0.18854166666667993,
          "durationTicks": 181,
          "midi": 82,
          "name": "A#5",
          "ticks": 194040,
          "time": 202.125,
          "velocity": 1
        },
        {
          "duration": 0.36145833333333144,
          "durationTicks": 347,
          "midi": 46,
          "name": "A#2",
          "ticks": 194160,
          "time": 202.25,
          "velocity": 1
        },
        {
          "duration": 0.36145833333333144,
          "durationTicks": 347,
          "midi": 72,
          "name": "C5",
          "ticks": 194160,
          "time": 202.25,
          "velocity": 1
        },
        {
          "duration": 0.36145833333333144,
          "durationTicks": 347,
          "midi": 74,
          "name": "D5",
          "ticks": 194160,
          "time": 202.25,
          "velocity": 1
        },
        {
          "duration": 0.36145833333333144,
          "durationTicks": 347,
          "midi": 79,
          "name": "G5",
          "ticks": 194160,
          "time": 202.25,
          "velocity": 1
        },
        {
          "duration": 0.1614583333333428,
          "durationTicks": 155,
          "midi": 53,
          "name": "F3",
          "ticks": 194400,
          "time": 202.5,
          "velocity": 1
        },
        {
          "duration": 0.08020833333333144,
          "durationTicks": 77,
          "midi": 55,
          "name": "G3",
          "ticks": 194520,
          "time": 202.625,
          "velocity": 1
        },
        {
          "duration": 0.08020833333333144,
          "durationTicks": 77,
          "midi": 67,
          "name": "G4",
          "ticks": 194520,
          "time": 202.625,
          "velocity": 1
        },
        {
          "duration": 0.3708333333333371,
          "durationTicks": 356,
          "midi": 77,
          "name": "F5",
          "ticks": 194520,
          "time": 202.625,
          "velocity": 1
        },
        {
          "duration": 0.19062500000001137,
          "durationTicks": 183,
          "midi": 57,
          "name": "A3",
          "ticks": 194760,
          "time": 202.875,
          "velocity": 1
        },
        {
          "duration": 0.21875,
          "durationTicks": 210,
          "midi": 58,
          "name": "A#3",
          "ticks": 194880,
          "time": 203,
          "velocity": 1
        },
        {
          "duration": 0.4593749999999943,
          "durationTicks": 441,
          "midi": 65,
          "name": "F4",
          "ticks": 194880,
          "time": 203,
          "velocity": 1
        },
        {
          "duration": 0.4593749999999943,
          "durationTicks": 441,
          "midi": 69,
          "name": "A4",
          "ticks": 194880,
          "time": 203,
          "velocity": 1
        },
        {
          "duration": 0.4593749999999943,
          "durationTicks": 441,
          "midi": 74,
          "name": "D5",
          "ticks": 194880,
          "time": 203,
          "velocity": 1
        },
        {
          "duration": 0.24166666666667425,
          "durationTicks": 232,
          "midi": 60,
          "name": "C4",
          "ticks": 195120,
          "time": 203.25,
          "velocity": 1
        },
        {
          "duration": 0.9906249999999943,
          "durationTicks": 951,
          "midi": 62,
          "name": "D4",
          "ticks": 195360,
          "time": 203.5,
          "velocity": 1
        },
        {
          "duration": 0.9906249999999943,
          "durationTicks": 951,
          "midi": 65,
          "name": "F4",
          "ticks": 195360,
          "time": 203.5,
          "velocity": 1
        },
        {
          "duration": 0.9906249999999943,
          "durationTicks": 951,
          "midi": 69,
          "name": "A4",
          "ticks": 195360,
          "time": 203.5,
          "velocity": 1
        },
        {
          "duration": 0.9906249999999943,
          "durationTicks": 951,
          "midi": 74,
          "name": "D5",
          "ticks": 195360,
          "time": 203.5,
          "velocity": 1
        },
        {
          "duration": 0.5999999999999943,
          "durationTicks": 576,
          "midi": 65,
          "name": "F4",
          "ticks": 196320,
          "time": 204.5,
          "velocity": 1
        },
        {
          "duration": 0.5999999999999943,
          "durationTicks": 576,
          "midi": 72,
          "name": "C5",
          "ticks": 196320,
          "time": 204.5,
          "velocity": 1
        },
        {
          "duration": 0.5999999999999943,
          "durationTicks": 576,
          "midi": 73,
          "name": "C#5",
          "ticks": 196320,
          "time": 204.5,
          "velocity": 1
        },
        {
          "duration": 0.5999999999999943,
          "durationTicks": 576,
          "midi": 77,
          "name": "F5",
          "ticks": 196320,
          "time": 204.5,
          "velocity": 1
        },
        {
          "duration": 0.23020833333333712,
          "durationTicks": 221,
          "midi": 46,
          "name": "A#2",
          "ticks": 196440,
          "time": 204.625,
          "velocity": 1
        },
        {
          "duration": 0.1822916666666572,
          "durationTicks": 175,
          "midi": 55,
          "name": "G3",
          "ticks": 196680,
          "time": 204.875,
          "velocity": 1
        },
        {
          "duration": 0.4802083333333371,
          "durationTicks": 461,
          "midi": 61,
          "name": "C#4",
          "ticks": 196920,
          "time": 205.125,
          "velocity": 1
        },
        {
          "duration": 0.4802083333333371,
          "durationTicks": 461,
          "midi": 69,
          "name": "A4",
          "ticks": 196920,
          "time": 205.125,
          "velocity": 1
        },
        {
          "duration": 0.4802083333333371,
          "durationTicks": 461,
          "midi": 73,
          "name": "C#5",
          "ticks": 196920,
          "time": 205.125,
          "velocity": 1
        },
        {
          "duration": 0.4802083333333371,
          "durationTicks": 461,
          "midi": 77,
          "name": "F5",
          "ticks": 196920,
          "time": 205.125,
          "velocity": 1
        },
        {
          "duration": 0.4802083333333371,
          "durationTicks": 461,
          "midi": 81,
          "name": "A5",
          "ticks": 196920,
          "time": 205.125,
          "velocity": 1
        },
        {
          "duration": 0.25,
          "durationTicks": 240,
          "midi": 65,
          "name": "F4",
          "ticks": 197400,
          "time": 205.625,
          "velocity": 1
        },
        {
          "duration": 0.5500000000000114,
          "durationTicks": 528,
          "midi": 70,
          "name": "A#4",
          "ticks": 197400,
          "time": 205.625,
          "velocity": 1
        },
        {
          "duration": 0.5500000000000114,
          "durationTicks": 528,
          "midi": 73,
          "name": "C#5",
          "ticks": 197400,
          "time": 205.625,
          "velocity": 1
        },
        {
          "duration": 0.5500000000000114,
          "durationTicks": 528,
          "midi": 77,
          "name": "F5",
          "ticks": 197400,
          "time": 205.625,
          "velocity": 1
        },
        {
          "duration": 0.5500000000000114,
          "durationTicks": 528,
          "midi": 79,
          "name": "G5",
          "ticks": 197400,
          "time": 205.625,
          "velocity": 1
        },
        {
          "duration": 0.5500000000000114,
          "durationTicks": 528,
          "midi": 82,
          "name": "A#5",
          "ticks": 197400,
          "time": 205.625,
          "velocity": 1
        },
        {
          "duration": 0.30000000000001137,
          "durationTicks": 288,
          "midi": 61,
          "name": "C#4",
          "ticks": 197640,
          "time": 205.875,
          "velocity": 1
        },
        {
          "duration": 0.19999999999998863,
          "durationTicks": 192,
          "midi": 65,
          "name": "F4",
          "ticks": 197880,
          "time": 206.125,
          "velocity": 1
        },
        {
          "duration": 0.7208333333333314,
          "durationTicks": 692,
          "midi": 72,
          "name": "C5",
          "ticks": 197880,
          "time": 206.125,
          "velocity": 1
        },
        {
          "duration": 0.7208333333333314,
          "durationTicks": 692,
          "midi": 77,
          "name": "F5",
          "ticks": 197880,
          "time": 206.125,
          "velocity": 1
        },
        {
          "duration": 0.7208333333333314,
          "durationTicks": 692,
          "midi": 81,
          "name": "A5",
          "ticks": 197880,
          "time": 206.125,
          "velocity": 1
        },
        {
          "duration": 0.7208333333333314,
          "durationTicks": 692,
          "midi": 84,
          "name": "C6",
          "ticks": 197880,
          "time": 206.125,
          "velocity": 1
        },
        {
          "duration": 0.18854166666667993,
          "durationTicks": 181,
          "midi": 45,
          "name": "A2",
          "ticks": 198120,
          "time": 206.375,
          "velocity": 1
        },
        {
          "duration": 0.19166666666666288,
          "durationTicks": 184,
          "midi": 55,
          "name": "G3",
          "ticks": 198240,
          "time": 206.5,
          "velocity": 1
        },
        {
          "duration": 0.17916666666667425,
          "durationTicks": 172,
          "midi": 60,
          "name": "C4",
          "ticks": 198480,
          "time": 206.75,
          "velocity": 1
        },
        {
          "duration": 0.7208333333333314,
          "durationTicks": 692,
          "midi": 60,
          "name": "C4",
          "ticks": 198600,
          "time": 206.875,
          "velocity": 1
        },
        {
          "duration": 0.2614583333333371,
          "durationTicks": 251,
          "midi": 67,
          "name": "G4",
          "ticks": 198600,
          "time": 206.875,
          "velocity": 1
        },
        {
          "duration": 0.4802083333333371,
          "durationTicks": 461,
          "midi": 69,
          "name": "A4",
          "ticks": 198600,
          "time": 206.875,
          "velocity": 1
        },
        {
          "duration": 0.4802083333333371,
          "durationTicks": 461,
          "midi": 72,
          "name": "C5",
          "ticks": 198600,
          "time": 206.875,
          "velocity": 1
        },
        {
          "duration": 0.21875,
          "durationTicks": 210,
          "midi": 65,
          "name": "F4",
          "ticks": 198840,
          "time": 207.125,
          "velocity": 1
        },
        {
          "duration": 0.48229166666666856,
          "durationTicks": 463,
          "midi": 67,
          "name": "G4",
          "ticks": 199080,
          "time": 207.375,
          "velocity": 1
        },
        {
          "duration": 0.48229166666666856,
          "durationTicks": 463,
          "midi": 69,
          "name": "A4",
          "ticks": 199080,
          "time": 207.375,
          "velocity": 1
        },
        {
          "duration": 0.48229166666666856,
          "durationTicks": 463,
          "midi": 72,
          "name": "C5",
          "ticks": 199080,
          "time": 207.375,
          "velocity": 1
        },
        {
          "duration": 0.24062499999999432,
          "durationTicks": 231,
          "midi": 60,
          "name": "C4",
          "ticks": 199320,
          "time": 207.625,
          "velocity": 1
        },
        {
          "duration": 0.6187500000000057,
          "durationTicks": 594,
          "midi": 65,
          "name": "F4",
          "ticks": 199560,
          "time": 207.875,
          "velocity": 1
        },
        {
          "duration": 0.6187500000000057,
          "durationTicks": 594,
          "midi": 67,
          "name": "G4",
          "ticks": 199560,
          "time": 207.875,
          "velocity": 1
        },
        {
          "duration": 0.6187500000000057,
          "durationTicks": 594,
          "midi": 72,
          "name": "C5",
          "ticks": 199560,
          "time": 207.875,
          "velocity": 1
        },
        {
          "duration": 0.23020833333333712,
          "durationTicks": 221,
          "midi": 53,
          "name": "F3",
          "ticks": 199680,
          "time": 208,
          "velocity": 1
        },
        {
          "duration": 0.19999999999998863,
          "durationTicks": 192,
          "midi": 45,
          "name": "A2",
          "ticks": 199920,
          "time": 208.25,
          "velocity": 1
        },
        {
          "duration": 0.22083333333333144,
          "durationTicks": 212,
          "midi": 38,
          "name": "D2",
          "ticks": 200160,
          "time": 208.5,
          "velocity": 1
        },
        {
          "duration": 0.22083333333333144,
          "durationTicks": 212,
          "midi": 65,
          "name": "F4",
          "ticks": 200160,
          "time": 208.5,
          "velocity": 1
        },
        {
          "duration": 0.22083333333333144,
          "durationTicks": 212,
          "midi": 69,
          "name": "A4",
          "ticks": 200160,
          "time": 208.5,
          "velocity": 1
        },
        {
          "duration": 0.5802083333333314,
          "durationTicks": 557,
          "midi": 45,
          "name": "A2",
          "ticks": 200400,
          "time": 208.75,
          "velocity": 1
        },
        {
          "duration": 0.5802083333333314,
          "durationTicks": 557,
          "midi": 60,
          "name": "C4",
          "ticks": 200400,
          "time": 208.75,
          "velocity": 1
        },
        {
          "duration": 0.5802083333333314,
          "durationTicks": 557,
          "midi": 65,
          "name": "F4",
          "ticks": 200400,
          "time": 208.75,
          "velocity": 1
        },
        {
          "duration": 0.21145833333332575,
          "durationTicks": 203,
          "midi": 69,
          "name": "A4",
          "ticks": 200400,
          "time": 208.75,
          "velocity": 1
        },
        {
          "duration": 0.23020833333333712,
          "durationTicks": 221,
          "midi": 53,
          "name": "F3",
          "ticks": 200760,
          "time": 209.125,
          "velocity": 1
        },
        {
          "duration": 0.5885416666666572,
          "durationTicks": 565,
          "midi": 54,
          "name": "F#3",
          "ticks": 201000,
          "time": 209.375,
          "velocity": 1
        },
        {
          "duration": 0.5885416666666572,
          "durationTicks": 565,
          "midi": 60,
          "name": "C4",
          "ticks": 201000,
          "time": 209.375,
          "velocity": 1
        },
        {
          "duration": 0.2593750000000057,
          "durationTicks": 249,
          "midi": 64,
          "name": "E4",
          "ticks": 201000,
          "time": 209.375,
          "velocity": 1
        },
        {
          "duration": 0.5885416666666572,
          "durationTicks": 565,
          "midi": 69,
          "name": "A4",
          "ticks": 201000,
          "time": 209.375,
          "velocity": 1
        },
        {
          "duration": 0.3187499999999943,
          "durationTicks": 306,
          "midi": 44,
          "name": "G#2",
          "ticks": 201240,
          "time": 209.625,
          "velocity": 1
        },
        {
          "duration": 2.738541666666663,
          "durationTicks": 2629,
          "midi": 43,
          "name": "G2",
          "ticks": 201480,
          "time": 209.875,
          "velocity": 1
        },
        {
          "duration": 2.0708333333333258,
          "durationTicks": 1988,
          "midi": 53,
          "name": "F3",
          "ticks": 201480,
          "time": 209.875,
          "velocity": 1
        },
        {
          "duration": 1.0708333333333258,
          "durationTicks": 1028,
          "midi": 57,
          "name": "A3",
          "ticks": 201480,
          "time": 209.875,
          "velocity": 1
        },
        {
          "duration": 2.0708333333333258,
          "durationTicks": 1988,
          "midi": 59,
          "name": "B3",
          "ticks": 201480,
          "time": 209.875,
          "velocity": 1
        },
        {
          "duration": 0.43854166666667993,
          "durationTicks": 421,
          "midi": 64,
          "name": "E4",
          "ticks": 201480,
          "time": 209.875,
          "velocity": 1
        },
        {
          "duration": 2.738541666666663,
          "durationTicks": 2629,
          "midi": 67,
          "name": "G4",
          "ticks": 201480,
          "time": 209.875,
          "velocity": 1
        },
        {
          "duration": 1.6322916666666742,
          "durationTicks": 1567,
          "midi": 62,
          "name": "D4",
          "ticks": 201840,
          "time": 210.25,
          "velocity": 1
        },
        {
          "duration": 0.6593750000000114,
          "durationTicks": 633,
          "midi": 53,
          "name": "F3",
          "ticks": 203400,
          "time": 211.875,
          "velocity": 1
        },
        {
          "duration": 0.6593750000000114,
          "durationTicks": 633,
          "midi": 58,
          "name": "A#3",
          "ticks": 203400,
          "time": 211.875,
          "velocity": 1
        },
        {
          "duration": 0.6593750000000114,
          "durationTicks": 633,
          "midi": 61,
          "name": "C#4",
          "ticks": 203400,
          "time": 211.875,
          "velocity": 1
        },
        {
          "duration": 0.3708333333333371,
          "durationTicks": 356,
          "midi": 52,
          "name": "E3",
          "ticks": 204120,
          "time": 212.625,
          "velocity": 1
        },
        {
          "duration": 0.4000000000000057,
          "durationTicks": 384,
          "midi": 60,
          "name": "C4",
          "ticks": 204120,
          "time": 212.625,
          "velocity": 1
        },
        {
          "duration": 0.5906249999999886,
          "durationTicks": 567,
          "midi": 36,
          "name": "C2",
          "ticks": 204360,
          "time": 212.875,
          "velocity": 1
        },
        {
          "duration": 0.22083333333333144,
          "durationTicks": 212,
          "midi": 58,
          "name": "A#3",
          "ticks": 204480,
          "time": 213,
          "velocity": 1
        },
        {
          "duration": 0.22083333333333144,
          "durationTicks": 212,
          "midi": 65,
          "name": "F4",
          "ticks": 204480,
          "time": 213,
          "velocity": 1
        },
        {
          "duration": 0.19999999999998863,
          "durationTicks": 192,
          "midi": 52,
          "name": "E3",
          "ticks": 204720,
          "time": 213.25,
          "velocity": 1
        },
        {
          "duration": 0.3687500000000057,
          "durationTicks": 354,
          "midi": 42,
          "name": "F#2",
          "ticks": 204960,
          "time": 213.5,
          "velocity": 1
        },
        {
          "duration": 0.3687500000000057,
          "durationTicks": 354,
          "midi": 52,
          "name": "E3",
          "ticks": 204960,
          "time": 213.5,
          "velocity": 1
        },
        {
          "duration": 0.3687500000000057,
          "durationTicks": 354,
          "midi": 58,
          "name": "A#3",
          "ticks": 204960,
          "time": 213.5,
          "velocity": 1
        },
        {
          "duration": 0.3687500000000057,
          "durationTicks": 354,
          "midi": 61,
          "name": "C#4",
          "ticks": 204960,
          "time": 213.5,
          "velocity": 1
        },
        {
          "duration": 0.3687500000000057,
          "durationTicks": 354,
          "midi": 67,
          "name": "G4",
          "ticks": 204960,
          "time": 213.5,
          "velocity": 1
        },
        {
          "duration": 1.6999999999999886,
          "durationTicks": 1632,
          "midi": 41,
          "name": "F2",
          "ticks": 205320,
          "time": 213.875,
          "velocity": 1
        },
        {
          "duration": 0.3708333333333371,
          "durationTicks": 356,
          "midi": 52,
          "name": "E3",
          "ticks": 205320,
          "time": 213.875,
          "velocity": 1
        },
        {
          "duration": 1.3614583333333314,
          "durationTicks": 1307,
          "midi": 57,
          "name": "A3",
          "ticks": 205320,
          "time": 213.875,
          "velocity": 1
        },
        {
          "duration": 0.6416666666666799,
          "durationTicks": 616,
          "midi": 64,
          "name": "E4",
          "ticks": 205320,
          "time": 213.875,
          "velocity": 1
        },
        {
          "duration": 1.2208333333333314,
          "durationTicks": 1172,
          "midi": 69,
          "name": "A4",
          "ticks": 205320,
          "time": 213.875,
          "velocity": 1
        },
        {
          "duration": 0.2708333333333428,
          "durationTicks": 260,
          "midi": 49,
          "name": "C#3",
          "ticks": 205680,
          "time": 214.25,
          "velocity": 1
        },
        {
          "duration": 1.0593749999999886,
          "durationTicks": 1017,
          "midi": 50,
          "name": "D3",
          "ticks": 205920,
          "time": 214.5,
          "velocity": 1
        },
        {
          "duration": 1.0593749999999886,
          "durationTicks": 1017,
          "midi": 62,
          "name": "D4",
          "ticks": 205920,
          "time": 214.5,
          "velocity": 1
        },
        {
          "duration": 0.3385416666666572,
          "durationTicks": 325,
          "midi": 67,
          "name": "G4",
          "ticks": 206640,
          "time": 215.25,
          "velocity": 1
        },
        {
          "duration": 1.0916666666666686,
          "durationTicks": 1048,
          "midi": 48,
          "name": "C3",
          "ticks": 206880,
          "time": 215.5,
          "velocity": 1
        },
        {
          "duration": 0.38229166666667425,
          "durationTicks": 367,
          "midi": 62,
          "name": "D4",
          "ticks": 206880,
          "time": 215.5,
          "velocity": 1
        },
        {
          "duration": 0.38229166666667425,
          "durationTicks": 367,
          "midi": 63,
          "name": "D#4",
          "ticks": 206880,
          "time": 215.5,
          "velocity": 1
        },
        {
          "duration": 0.38229166666667425,
          "durationTicks": 367,
          "midi": 69,
          "name": "A4",
          "ticks": 206880,
          "time": 215.5,
          "velocity": 1
        },
        {
          "duration": 0.43020833333332575,
          "durationTicks": 413,
          "midi": 58,
          "name": "A#3",
          "ticks": 207240,
          "time": 215.875,
          "velocity": 1
        },
        {
          "duration": 0.9802083333333371,
          "durationTicks": 941,
          "midi": 63,
          "name": "D#4",
          "ticks": 207240,
          "time": 215.875,
          "velocity": 1
        },
        {
          "duration": 0.9802083333333371,
          "durationTicks": 941,
          "midi": 67,
          "name": "G4",
          "ticks": 207240,
          "time": 215.875,
          "velocity": 1
        },
        {
          "duration": 0.7093749999999943,
          "durationTicks": 681,
          "midi": 74,
          "name": "D5",
          "ticks": 207240,
          "time": 215.875,
          "velocity": 1
        },
        {
          "duration": 0.8093749999999886,
          "durationTicks": 777,
          "midi": 57,
          "name": "A3",
          "ticks": 207720,
          "time": 216.375,
          "velocity": 1
        },
        {
          "duration": 0.4791666666666572,
          "durationTicks": 460,
          "midi": 41,
          "name": "F2",
          "ticks": 207960,
          "time": 216.625,
          "velocity": 1
        },
        {
          "duration": 0.4791666666666572,
          "durationTicks": 460,
          "midi": 72,
          "name": "C5",
          "ticks": 207960,
          "time": 216.625,
          "velocity": 1
        },
        {
          "duration": 0.2593750000000057,
          "durationTicks": 249,
          "midi": 63,
          "name": "D#4",
          "ticks": 208200,
          "time": 216.875,
          "velocity": 1
        },
        {
          "duration": 0.2593750000000057,
          "durationTicks": 249,
          "midi": 69,
          "name": "A4",
          "ticks": 208200,
          "time": 216.875,
          "velocity": 1
        },
        {
          "duration": 2.4000000000000057,
          "durationTicks": 2304,
          "midi": 46,
          "name": "A#2",
          "ticks": 208440,
          "time": 217.125,
          "velocity": 1
        },
        {
          "duration": 0.5999999999999943,
          "durationTicks": 576,
          "midi": 57,
          "name": "A3",
          "ticks": 208440,
          "time": 217.125,
          "velocity": 1
        },
        {
          "duration": 0.5999999999999943,
          "durationTicks": 576,
          "midi": 62,
          "name": "D4",
          "ticks": 208440,
          "time": 217.125,
          "velocity": 1
        },
        {
          "duration": 0.32083333333332575,
          "durationTicks": 308,
          "midi": 63,
          "name": "D#4",
          "ticks": 208440,
          "time": 217.125,
          "velocity": 1
        },
        {
          "duration": 0.32083333333332575,
          "durationTicks": 308,
          "midi": 67,
          "name": "G4",
          "ticks": 208440,
          "time": 217.125,
          "velocity": 1
        },
        {
          "duration": 0.27916666666666856,
          "durationTicks": 268,
          "midi": 60,
          "name": "C4",
          "ticks": 208800,
          "time": 217.5,
          "velocity": 1
        },
        {
          "duration": 0.27916666666666856,
          "durationTicks": 268,
          "midi": 65,
          "name": "F4",
          "ticks": 208800,
          "time": 217.5,
          "velocity": 1
        },
        {
          "duration": 1.8000000000000114,
          "durationTicks": 1728,
          "midi": 57,
          "name": "A3",
          "ticks": 209040,
          "time": 217.75,
          "velocity": 1
        },
        {
          "duration": 1.8000000000000114,
          "durationTicks": 1728,
          "midi": 60,
          "name": "C4",
          "ticks": 209040,
          "time": 217.75,
          "velocity": 1
        },
        {
          "duration": 1.8000000000000114,
          "durationTicks": 1728,
          "midi": 62,
          "name": "D4",
          "ticks": 209040,
          "time": 217.75,
          "velocity": 1
        },
        {
          "duration": 1.1500000000000057,
          "durationTicks": 1104,
          "midi": 46,
          "name": "A#2",
          "ticks": 210720,
          "time": 219.5,
          "velocity": 1
        },
        {
          "duration": 1.1500000000000057,
          "durationTicks": 1104,
          "midi": 55,
          "name": "G3",
          "ticks": 210720,
          "time": 219.5,
          "velocity": 1
        },
        {
          "duration": 1.1500000000000057,
          "durationTicks": 1104,
          "midi": 60,
          "name": "C4",
          "ticks": 210720,
          "time": 219.5,
          "velocity": 1
        },
        {
          "duration": 1.1500000000000057,
          "durationTicks": 1104,
          "midi": 61,
          "name": "C#4",
          "ticks": 210720,
          "time": 219.5,
          "velocity": 1
        },
        {
          "duration": 0.4000000000000057,
          "durationTicks": 384,
          "midi": 65,
          "name": "F4",
          "ticks": 210720,
          "time": 219.5,
          "velocity": 1
        },
        {
          "duration": 0.4416666666666629,
          "durationTicks": 424,
          "midi": 67,
          "name": "G4",
          "ticks": 211080,
          "time": 219.875,
          "velocity": 1
        },
        {
          "duration": 0.30937499999998863,
          "durationTicks": 297,
          "midi": 69,
          "name": "A4",
          "ticks": 211560,
          "time": 220.375,
          "velocity": 1
        },
        {
          "duration": 0.5802083333333314,
          "durationTicks": 557,
          "midi": 45,
          "name": "A2",
          "ticks": 211800,
          "time": 220.625,
          "velocity": 1
        },
        {
          "duration": 0.5802083333333314,
          "durationTicks": 557,
          "midi": 55,
          "name": "G3",
          "ticks": 211800,
          "time": 220.625,
          "velocity": 1
        },
        {
          "duration": 0.5802083333333314,
          "durationTicks": 557,
          "midi": 61,
          "name": "C#4",
          "ticks": 211800,
          "time": 220.625,
          "velocity": 1
        },
        {
          "duration": 0.5802083333333314,
          "durationTicks": 557,
          "midi": 65,
          "name": "F4",
          "ticks": 211800,
          "time": 220.625,
          "velocity": 1
        },
        {
          "duration": 0.4416666666666629,
          "durationTicks": 424,
          "midi": 38,
          "name": "D2",
          "ticks": 212400,
          "time": 221.25,
          "velocity": 1
        },
        {
          "duration": 0.4416666666666629,
          "durationTicks": 424,
          "midi": 54,
          "name": "F#3",
          "ticks": 212400,
          "time": 221.25,
          "velocity": 1
        },
        {
          "duration": 0.4416666666666629,
          "durationTicks": 424,
          "midi": 60,
          "name": "C4",
          "ticks": 212400,
          "time": 221.25,
          "velocity": 1
        },
        {
          "duration": 0.4416666666666629,
          "durationTicks": 424,
          "midi": 64,
          "name": "E4",
          "ticks": 212400,
          "time": 221.25,
          "velocity": 1
        },
        {
          "duration": 0.390625,
          "durationTicks": 375,
          "midi": 44,
          "name": "G#2",
          "ticks": 212880,
          "time": 221.75,
          "velocity": 1
        },
        {
          "duration": 0.390625,
          "durationTicks": 375,
          "midi": 54,
          "name": "F#3",
          "ticks": 212880,
          "time": 221.75,
          "velocity": 1
        },
        {
          "duration": 0.390625,
          "durationTicks": 375,
          "midi": 60,
          "name": "C4",
          "ticks": 212880,
          "time": 221.75,
          "velocity": 1
        },
        {
          "duration": 0.390625,
          "durationTicks": 375,
          "midi": 63,
          "name": "D#4",
          "ticks": 212880,
          "time": 221.75,
          "velocity": 1
        },
        {
          "duration": 0.390625,
          "durationTicks": 375,
          "midi": 70,
          "name": "A#4",
          "ticks": 212880,
          "time": 221.75,
          "velocity": 1
        },
        {
          "duration": 1.0187500000000114,
          "durationTicks": 978,
          "midi": 43,
          "name": "G2",
          "ticks": 213240,
          "time": 222.125,
          "velocity": 1
        },
        {
          "duration": 1.0187500000000114,
          "durationTicks": 978,
          "midi": 53,
          "name": "F3",
          "ticks": 213240,
          "time": 222.125,
          "velocity": 1
        },
        {
          "duration": 1.0187500000000114,
          "durationTicks": 978,
          "midi": 59,
          "name": "B3",
          "ticks": 213240,
          "time": 222.125,
          "velocity": 1
        },
        {
          "duration": 1.0187500000000114,
          "durationTicks": 978,
          "midi": 64,
          "name": "E4",
          "ticks": 213240,
          "time": 222.125,
          "velocity": 1
        },
        {
          "duration": 0.6593750000000114,
          "durationTicks": 633,
          "midi": 69,
          "name": "A4",
          "ticks": 213240,
          "time": 222.125,
          "velocity": 1
        },
        {
          "duration": 0.6291666666666629,
          "durationTicks": 604,
          "midi": 67,
          "name": "G4",
          "ticks": 213840,
          "time": 222.75,
          "velocity": 1
        },
        {
          "duration": 1.3822916666666742,
          "durationTicks": 1327,
          "midi": 36,
          "name": "C2",
          "ticks": 214200,
          "time": 223.125,
          "velocity": 1
        },
        {
          "duration": 0.33020833333333144,
          "durationTicks": 317,
          "midi": 53,
          "name": "F3",
          "ticks": 214440,
          "time": 223.375,
          "velocity": 1
        },
        {
          "duration": 0.33020833333333144,
          "durationTicks": 317,
          "midi": 58,
          "name": "A#3",
          "ticks": 214440,
          "time": 223.375,
          "velocity": 1
        },
        {
          "duration": 0.33020833333333144,
          "durationTicks": 317,
          "midi": 62,
          "name": "D4",
          "ticks": 214440,
          "time": 223.375,
          "velocity": 1
        },
        {
          "duration": 0.33020833333333144,
          "durationTicks": 317,
          "midi": 65,
          "name": "F4",
          "ticks": 214440,
          "time": 223.375,
          "velocity": 1
        },
        {
          "duration": 0.7822916666666799,
          "durationTicks": 751,
          "midi": 52,
          "name": "E3",
          "ticks": 214800,
          "time": 223.75,
          "velocity": 1
        },
        {
          "duration": 0.7822916666666799,
          "durationTicks": 751,
          "midi": 58,
          "name": "A#3",
          "ticks": 214800,
          "time": 223.75,
          "velocity": 1
        },
        {
          "duration": 0.7822916666666799,
          "durationTicks": 751,
          "midi": 61,
          "name": "C#4",
          "ticks": 214800,
          "time": 223.75,
          "velocity": 1
        },
        {
          "duration": 0.7822916666666799,
          "durationTicks": 751,
          "midi": 64,
          "name": "E4",
          "ticks": 214800,
          "time": 223.75,
          "velocity": 1
        },
        {
          "duration": 0.7822916666666799,
          "durationTicks": 751,
          "midi": 67,
          "name": "G4",
          "ticks": 214800,
          "time": 223.75,
          "velocity": 1
        },
        {
          "duration": 3.380208333333343,
          "durationTicks": 3245,
          "midi": 36,
          "name": "C2",
          "ticks": 215520,
          "time": 224.5,
          "velocity": 1
        },
        {
          "duration": 1.4802083333333371,
          "durationTicks": 1421,
          "midi": 55,
          "name": "G3",
          "ticks": 215520,
          "time": 224.5,
          "velocity": 1
        },
        {
          "duration": 0.7802083333333201,
          "durationTicks": 749,
          "midi": 57,
          "name": "A3",
          "ticks": 215520,
          "time": 224.5,
          "velocity": 1
        },
        {
          "duration": 1.4802083333333371,
          "durationTicks": 1421,
          "midi": 60,
          "name": "C4",
          "ticks": 215520,
          "time": 224.5,
          "velocity": 1
        },
        {
          "duration": 1.4802083333333371,
          "durationTicks": 1421,
          "midi": 64,
          "name": "E4",
          "ticks": 215520,
          "time": 224.5,
          "velocity": 1
        },
        {
          "duration": 0.18854166666667993,
          "durationTicks": 181,
          "midi": 57,
          "name": "A3",
          "ticks": 216960,
          "time": 226,
          "velocity": 1
        },
        {
          "duration": 0.40937500000001137,
          "durationTicks": 393,
          "midi": 58,
          "name": "A#3",
          "ticks": 216960,
          "time": 226,
          "velocity": 1
        },
        {
          "duration": 0.40937500000001137,
          "durationTicks": 393,
          "midi": 62,
          "name": "D4",
          "ticks": 216960,
          "time": 226,
          "velocity": 1
        },
        {
          "duration": 0.22083333333333144,
          "durationTicks": 212,
          "midi": 53,
          "name": "F3",
          "ticks": 217080,
          "time": 226.125,
          "velocity": 1
        },
        {
          "duration": 0.36145833333333144,
          "durationTicks": 347,
          "midi": 56,
          "name": "G#3",
          "ticks": 217320,
          "time": 226.375,
          "velocity": 1
        },
        {
          "duration": 0.36145833333333144,
          "durationTicks": 347,
          "midi": 58,
          "name": "A#3",
          "ticks": 217320,
          "time": 226.375,
          "velocity": 1
        },
        {
          "duration": 0.36145833333333144,
          "durationTicks": 347,
          "midi": 61,
          "name": "C#4",
          "ticks": 217320,
          "time": 226.375,
          "velocity": 1
        },
        {
          "duration": 0.25,
          "durationTicks": 240,
          "midi": 56,
          "name": "G#3",
          "ticks": 217680,
          "time": 226.75,
          "velocity": 1
        },
        {
          "duration": 0.25,
          "durationTicks": 240,
          "midi": 58,
          "name": "A#3",
          "ticks": 217680,
          "time": 226.75,
          "velocity": 1
        },
        {
          "duration": 0.25,
          "durationTicks": 240,
          "midi": 63,
          "name": "D#4",
          "ticks": 217680,
          "time": 226.75,
          "velocity": 1
        },
        {
          "duration": 0.33020833333333144,
          "durationTicks": 317,
          "midi": 52,
          "name": "E3",
          "ticks": 217920,
          "time": 227,
          "velocity": 1
        },
        {
          "duration": 0.33020833333333144,
          "durationTicks": 317,
          "midi": 61,
          "name": "C#4",
          "ticks": 217920,
          "time": 227,
          "velocity": 1
        },
        {
          "duration": 0.5593749999999886,
          "durationTicks": 537,
          "midi": 36,
          "name": "C2",
          "ticks": 218760,
          "time": 227.875,
          "velocity": 1
        },
        {
          "duration": 0.36145833333333144,
          "durationTicks": 347,
          "midi": 48,
          "name": "C3",
          "ticks": 219240,
          "time": 228.375,
          "velocity": 1
        },
        {
          "duration": 0.6708333333333201,
          "durationTicks": 644,
          "midi": 64,
          "name": "E4",
          "ticks": 219240,
          "time": 228.375,
          "velocity": 1
        },
        {
          "duration": 0.6708333333333201,
          "durationTicks": 644,
          "midi": 69,
          "name": "A4",
          "ticks": 219240,
          "time": 228.375,
          "velocity": 1
        },
        {
          "duration": 0.6708333333333201,
          "durationTicks": 644,
          "midi": 72,
          "name": "C5",
          "ticks": 219240,
          "time": 228.375,
          "velocity": 1
        },
        {
          "duration": 1.0999999999999943,
          "durationTicks": 1056,
          "midi": 46,
          "name": "A#2",
          "ticks": 219600,
          "time": 228.75,
          "velocity": 1
        },
        {
          "duration": 0.7906250000000057,
          "durationTicks": 759,
          "midi": 55,
          "name": "G3",
          "ticks": 219960,
          "time": 229.125,
          "velocity": 1
        },
        {
          "duration": 0.4593749999999943,
          "durationTicks": 441,
          "midi": 62,
          "name": "D4",
          "ticks": 219960,
          "time": 229.125,
          "velocity": 1
        },
        {
          "duration": 0.4593749999999943,
          "durationTicks": 441,
          "midi": 67,
          "name": "G4",
          "ticks": 219960,
          "time": 229.125,
          "velocity": 1
        },
        {
          "duration": 0.2708333333333428,
          "durationTicks": 260,
          "midi": 74,
          "name": "D5",
          "ticks": 219960,
          "time": 229.125,
          "velocity": 1
        },
        {
          "duration": 0.3322916666666629,
          "durationTicks": 319,
          "midi": 64,
          "name": "E4",
          "ticks": 220440,
          "time": 229.625,
          "velocity": 1
        },
        {
          "duration": 0.3322916666666629,
          "durationTicks": 319,
          "midi": 76,
          "name": "E5",
          "ticks": 220440,
          "time": 229.625,
          "velocity": 1
        },
        {
          "duration": 0.6687499999999886,
          "durationTicks": 642,
          "midi": 45,
          "name": "A2",
          "ticks": 220680,
          "time": 229.875,
          "velocity": 1
        },
        {
          "duration": 0.6687499999999886,
          "durationTicks": 642,
          "midi": 65,
          "name": "F4",
          "ticks": 220680,
          "time": 229.875,
          "velocity": 1
        },
        {
          "duration": 0.6687499999999886,
          "durationTicks": 642,
          "midi": 72,
          "name": "C5",
          "ticks": 220680,
          "time": 229.875,
          "velocity": 1
        },
        {
          "duration": 0.6687499999999886,
          "durationTicks": 642,
          "midi": 77,
          "name": "F5",
          "ticks": 220680,
          "time": 229.875,
          "velocity": 1
        },
        {
          "duration": 0.17083333333332007,
          "durationTicks": 164,
          "midi": 53,
          "name": "F3",
          "ticks": 220920,
          "time": 230.125,
          "velocity": 1
        },
        {
          "duration": 0.23854166666666288,
          "durationTicks": 229,
          "midi": 60,
          "name": "C4",
          "ticks": 221040,
          "time": 230.25,
          "velocity": 1
        },
        {
          "duration": 0.7416666666666742,
          "durationTicks": 712,
          "midi": 61,
          "name": "C#4",
          "ticks": 221280,
          "time": 230.5,
          "velocity": 1
        },
        {
          "duration": 0.7416666666666742,
          "durationTicks": 712,
          "midi": 65,
          "name": "F4",
          "ticks": 221280,
          "time": 230.5,
          "velocity": 1
        },
        {
          "duration": 0.7416666666666742,
          "durationTicks": 712,
          "midi": 69,
          "name": "A4",
          "ticks": 221280,
          "time": 230.5,
          "velocity": 1
        },
        {
          "duration": 0.7416666666666742,
          "durationTicks": 712,
          "midi": 73,
          "name": "C#5",
          "ticks": 221280,
          "time": 230.5,
          "velocity": 1
        },
        {
          "duration": 0.7416666666666742,
          "durationTicks": 712,
          "midi": 77,
          "name": "F5",
          "ticks": 221280,
          "time": 230.5,
          "velocity": 1
        },
        {
          "duration": 0.21145833333332575,
          "durationTicks": 203,
          "midi": 55,
          "name": "G3",
          "ticks": 221520,
          "time": 230.75,
          "velocity": 1
        },
        {
          "duration": 0.2593750000000057,
          "durationTicks": 249,
          "midi": 45,
          "name": "A2",
          "ticks": 221760,
          "time": 231,
          "velocity": 1
        },
        {
          "duration": 0.12083333333333712,
          "durationTicks": 116,
          "midi": 46,
          "name": "A#2",
          "ticks": 222000,
          "time": 231.25,
          "velocity": 1
        },
        {
          "duration": 0.12083333333333712,
          "durationTicks": 116,
          "midi": 62,
          "name": "D4",
          "ticks": 222000,
          "time": 231.25,
          "velocity": 1
        },
        {
          "duration": 0.25,
          "durationTicks": 240,
          "midi": 69,
          "name": "A4",
          "ticks": 222000,
          "time": 231.25,
          "velocity": 1
        },
        {
          "duration": 0.12083333333333712,
          "durationTicks": 116,
          "midi": 76,
          "name": "E5",
          "ticks": 222000,
          "time": 231.25,
          "velocity": 1
        },
        {
          "duration": 0.22083333333333144,
          "durationTicks": 212,
          "midi": 46,
          "name": "A#2",
          "ticks": 222240,
          "time": 231.5,
          "velocity": 1
        },
        {
          "duration": 0.22083333333333144,
          "durationTicks": 212,
          "midi": 53,
          "name": "F3",
          "ticks": 222240,
          "time": 231.5,
          "velocity": 1
        },
        {
          "duration": 0.6708333333333201,
          "durationTicks": 644,
          "midi": 62,
          "name": "D4",
          "ticks": 222240,
          "time": 231.5,
          "velocity": 1
        },
        {
          "duration": 0.6708333333333201,
          "durationTicks": 644,
          "midi": 69,
          "name": "A4",
          "ticks": 222240,
          "time": 231.5,
          "velocity": 1
        },
        {
          "duration": 0.390625,
          "durationTicks": 375,
          "midi": 76,
          "name": "E5",
          "ticks": 222240,
          "time": 231.5,
          "velocity": 1
        },
        {
          "duration": 0.44999999999998863,
          "durationTicks": 432,
          "midi": 57,
          "name": "A3",
          "ticks": 222480,
          "time": 231.75,
          "velocity": 1
        },
        {
          "duration": 0.28020833333332007,
          "durationTicks": 269,
          "midi": 74,
          "name": "D5",
          "ticks": 222600,
          "time": 231.875,
          "velocity": 1
        },
        {
          "duration": 0.28854166666667425,
          "durationTicks": 277,
          "midi": 46,
          "name": "A#2",
          "ticks": 222960,
          "time": 232.25,
          "velocity": 1
        },
        {
          "duration": 0.5708333333333258,
          "durationTicks": 548,
          "midi": 56,
          "name": "G#3",
          "ticks": 222960,
          "time": 232.25,
          "velocity": 1
        },
        {
          "duration": 0.5708333333333258,
          "durationTicks": 548,
          "midi": 62,
          "name": "D4",
          "ticks": 222960,
          "time": 232.25,
          "velocity": 1
        },
        {
          "duration": 0.5708333333333258,
          "durationTicks": 548,
          "midi": 68,
          "name": "G#4",
          "ticks": 222960,
          "time": 232.25,
          "velocity": 1
        },
        {
          "duration": 0.28854166666667425,
          "durationTicks": 277,
          "midi": 72,
          "name": "C5",
          "ticks": 222960,
          "time": 232.25,
          "velocity": 1
        },
        {
          "duration": 0.28229166666667993,
          "durationTicks": 271,
          "midi": 46,
          "name": "A#2",
          "ticks": 223200,
          "time": 232.5,
          "velocity": 1
        },
        {
          "duration": 0.28229166666667993,
          "durationTicks": 271,
          "midi": 74,
          "name": "D5",
          "ticks": 223200,
          "time": 232.5,
          "velocity": 1
        },
        {
          "duration": 0.5385416666666742,
          "durationTicks": 517,
          "midi": 45,
          "name": "A2",
          "ticks": 223440,
          "time": 232.75,
          "velocity": 1
        },
        {
          "duration": 0.5385416666666742,
          "durationTicks": 517,
          "midi": 55,
          "name": "G3",
          "ticks": 223440,
          "time": 232.75,
          "velocity": 1
        },
        {
          "duration": 0.5385416666666742,
          "durationTicks": 517,
          "midi": 60,
          "name": "C4",
          "ticks": 223440,
          "time": 232.75,
          "velocity": 1
        },
        {
          "duration": 0.5385416666666742,
          "durationTicks": 517,
          "midi": 67,
          "name": "G4",
          "ticks": 223440,
          "time": 232.75,
          "velocity": 1
        },
        {
          "duration": 0.5385416666666742,
          "durationTicks": 517,
          "midi": 72,
          "name": "C5",
          "ticks": 223440,
          "time": 232.75,
          "velocity": 1
        },
        {
          "duration": 0.14166666666667993,
          "durationTicks": 136,
          "midi": 49,
          "name": "C#3",
          "ticks": 223920,
          "time": 233.25,
          "velocity": 1
        },
        {
          "duration": 0.3499999999999943,
          "durationTicks": 336,
          "midi": 61,
          "name": "C#4",
          "ticks": 223920,
          "time": 233.25,
          "velocity": 1
        },
        {
          "duration": 0.3499999999999943,
          "durationTicks": 336,
          "midi": 65,
          "name": "F4",
          "ticks": 223920,
          "time": 233.25,
          "velocity": 1
        },
        {
          "duration": 0.14166666666667993,
          "durationTicks": 136,
          "midi": 69,
          "name": "A4",
          "ticks": 223920,
          "time": 233.25,
          "velocity": 1
        },
        {
          "duration": 2.661458333333343,
          "durationTicks": 2555,
          "midi": 53,
          "name": "F3",
          "ticks": 224280,
          "time": 233.625,
          "velocity": 1
        },
        {
          "duration": 2.661458333333343,
          "durationTicks": 2555,
          "midi": 57,
          "name": "A3",
          "ticks": 224280,
          "time": 233.625,
          "velocity": 1
        },
        {
          "duration": 0.3499999999999943,
          "durationTicks": 336,
          "midi": 64,
          "name": "E4",
          "ticks": 224280,
          "time": 233.625,
          "velocity": 1
        },
        {
          "duration": 2.31145833333332,
          "durationTicks": 2219,
          "midi": 38,
          "name": "D2",
          "ticks": 224640,
          "time": 234,
          "velocity": 1
        },
        {
          "duration": 2.31145833333332,
          "durationTicks": 2219,
          "midi": 62,
          "name": "D4",
          "ticks": 224640,
          "time": 234,
          "velocity": 1
        },
        {
          "duration": 0.30000000000001137,
          "durationTicks": 288,
          "midi": 72,
          "name": "C5",
          "ticks": 226920,
          "time": 236.375,
          "velocity": 1
        },
        {
          "duration": 0.30000000000001137,
          "durationTicks": 288,
          "midi": 46,
          "name": "A#2",
          "ticks": 227160,
          "time": 236.625,
          "velocity": 1
        },
        {
          "duration": 0.30000000000001137,
          "durationTicks": 288,
          "midi": 64,
          "name": "E4",
          "ticks": 227160,
          "time": 236.625,
          "velocity": 1
        },
        {
          "duration": 0.30000000000001137,
          "durationTicks": 288,
          "midi": 69,
          "name": "A4",
          "ticks": 227160,
          "time": 236.625,
          "velocity": 1
        },
        {
          "duration": 0.30000000000001137,
          "durationTicks": 288,
          "midi": 74,
          "name": "D5",
          "ticks": 227160,
          "time": 236.625,
          "velocity": 1
        },
        {
          "duration": 0.3385416666666572,
          "durationTicks": 325,
          "midi": 55,
          "name": "G3",
          "ticks": 227400,
          "time": 236.875,
          "velocity": 1
        },
        {
          "duration": 0.3385416666666572,
          "durationTicks": 325,
          "midi": 67,
          "name": "G4",
          "ticks": 227400,
          "time": 236.875,
          "velocity": 1
        },
        {
          "duration": 0.3385416666666572,
          "durationTicks": 325,
          "midi": 72,
          "name": "C5",
          "ticks": 227400,
          "time": 236.875,
          "velocity": 1
        },
        {
          "duration": 0.3385416666666572,
          "durationTicks": 325,
          "midi": 76,
          "name": "E5",
          "ticks": 227400,
          "time": 236.875,
          "velocity": 1
        },
        {
          "duration": 0.31145833333332007,
          "durationTicks": 299,
          "midi": 45,
          "name": "A2",
          "ticks": 227760,
          "time": 237.25,
          "velocity": 1
        },
        {
          "duration": 0.6416666666666799,
          "durationTicks": 616,
          "midi": 65,
          "name": "F4",
          "ticks": 227760,
          "time": 237.25,
          "velocity": 1
        },
        {
          "duration": 0.28020833333332007,
          "durationTicks": 269,
          "midi": 72,
          "name": "C5",
          "ticks": 227760,
          "time": 237.25,
          "velocity": 1
        },
        {
          "duration": 0.6416666666666799,
          "durationTicks": 616,
          "midi": 77,
          "name": "F5",
          "ticks": 227760,
          "time": 237.25,
          "velocity": 1
        },
        {
          "duration": 0.33020833333333144,
          "durationTicks": 317,
          "midi": 60,
          "name": "C4",
          "ticks": 228120,
          "time": 237.625,
          "velocity": 1
        },
        {
          "duration": 0.28854166666667425,
          "durationTicks": 277,
          "midi": 61,
          "name": "C#4",
          "ticks": 228360,
          "time": 237.875,
          "velocity": 1
        },
        {
          "duration": 0.5500000000000114,
          "durationTicks": 528,
          "midi": 65,
          "name": "F4",
          "ticks": 228360,
          "time": 237.875,
          "velocity": 1
        },
        {
          "duration": 0.5500000000000114,
          "durationTicks": 528,
          "midi": 69,
          "name": "A4",
          "ticks": 228360,
          "time": 237.875,
          "velocity": 1
        },
        {
          "duration": 0.5500000000000114,
          "durationTicks": 528,
          "midi": 73,
          "name": "C#5",
          "ticks": 228360,
          "time": 237.875,
          "velocity": 1
        },
        {
          "duration": 0.2614583333333371,
          "durationTicks": 251,
          "midi": 45,
          "name": "A2",
          "ticks": 228600,
          "time": 238.125,
          "velocity": 1
        },
        {
          "duration": 0.28020833333332007,
          "durationTicks": 269,
          "midi": 46,
          "name": "A#2",
          "ticks": 228840,
          "time": 238.375,
          "velocity": 1
        },
        {
          "duration": 1.0802083333333314,
          "durationTicks": 1037,
          "midi": 62,
          "name": "D4",
          "ticks": 228840,
          "time": 238.375,
          "velocity": 1
        },
        {
          "duration": 1.0802083333333314,
          "durationTicks": 1037,
          "midi": 69,
          "name": "A4",
          "ticks": 228840,
          "time": 238.375,
          "velocity": 1
        },
        {
          "duration": 0.28020833333332007,
          "durationTicks": 269,
          "midi": 76,
          "name": "E5",
          "ticks": 228840,
          "time": 238.375,
          "velocity": 1
        },
        {
          "duration": 0.3791666666666629,
          "durationTicks": 364,
          "midi": 57,
          "name": "A3",
          "ticks": 229200,
          "time": 238.75,
          "velocity": 1
        },
        {
          "duration": 0.3791666666666629,
          "durationTicks": 364,
          "midi": 76,
          "name": "E5",
          "ticks": 229200,
          "time": 238.75,
          "velocity": 1
        },
        {
          "duration": 0.42083333333332007,
          "durationTicks": 404,
          "midi": 56,
          "name": "G#3",
          "ticks": 229560,
          "time": 239.125,
          "velocity": 1
        },
        {
          "duration": 0.42083333333332007,
          "durationTicks": 404,
          "midi": 74,
          "name": "D5",
          "ticks": 229560,
          "time": 239.125,
          "velocity": 1
        },
        {
          "duration": 0.05937499999998863,
          "durationTicks": 57,
          "midi": 43,
          "name": "G2",
          "ticks": 229920,
          "time": 239.5,
          "velocity": 1
        },
        {
          "duration": 0.3791666666666629,
          "durationTicks": 364,
          "midi": 60,
          "name": "C4",
          "ticks": 229920,
          "time": 239.5,
          "velocity": 1
        },
        {
          "duration": 0.3791666666666629,
          "durationTicks": 364,
          "midi": 67,
          "name": "G4",
          "ticks": 229920,
          "time": 239.5,
          "velocity": 1
        },
        {
          "duration": 0.3791666666666629,
          "durationTicks": 364,
          "midi": 72,
          "name": "C5",
          "ticks": 229920,
          "time": 239.5,
          "velocity": 1
        },
        {
          "duration": 0.4000000000000057,
          "durationTicks": 384,
          "midi": 49,
          "name": "C#3",
          "ticks": 230280,
          "time": 239.875,
          "velocity": 1
        },
        {
          "duration": 0.4000000000000057,
          "durationTicks": 384,
          "midi": 61,
          "name": "C#4",
          "ticks": 230280,
          "time": 239.875,
          "velocity": 1
        },
        {
          "duration": 0.4000000000000057,
          "durationTicks": 384,
          "midi": 65,
          "name": "F4",
          "ticks": 230280,
          "time": 239.875,
          "velocity": 1
        },
        {
          "duration": 0.4000000000000057,
          "durationTicks": 384,
          "midi": 69,
          "name": "A4",
          "ticks": 230280,
          "time": 239.875,
          "velocity": 1
        },
        {
          "duration": 0.8802083333333428,
          "durationTicks": 845,
          "midi": 53,
          "name": "F3",
          "ticks": 230640,
          "time": 240.25,
          "velocity": 1
        },
        {
          "duration": 0.8802083333333428,
          "durationTicks": 845,
          "midi": 57,
          "name": "A3",
          "ticks": 230640,
          "time": 240.25,
          "velocity": 1
        },
        {
          "duration": 0.39166666666667993,
          "durationTicks": 376,
          "midi": 64,
          "name": "E4",
          "ticks": 230640,
          "time": 240.25,
          "velocity": 1
        },
        {
          "duration": 0.8802083333333428,
          "durationTicks": 845,
          "midi": 67,
          "name": "G4",
          "ticks": 230640,
          "time": 240.25,
          "velocity": 1
        },
        {
          "duration": 0.4885416666666629,
          "durationTicks": 469,
          "midi": 38,
          "name": "D2",
          "ticks": 231000,
          "time": 240.625,
          "velocity": 1
        },
        {
          "duration": 0.4885416666666629,
          "durationTicks": 469,
          "midi": 61,
          "name": "C#4",
          "ticks": 231000,
          "time": 240.625,
          "velocity": 1
        },
        {
          "duration": 1.4499999999999886,
          "durationTicks": 1392,
          "midi": 43,
          "name": "G2",
          "ticks": 231480,
          "time": 241.125,
          "velocity": 1
        },
        {
          "duration": 1.0999999999999943,
          "durationTicks": 1056,
          "midi": 53,
          "name": "F3",
          "ticks": 231480,
          "time": 241.125,
          "velocity": 1
        },
        {
          "duration": 0.47083333333333144,
          "durationTicks": 452,
          "midi": 57,
          "name": "A3",
          "ticks": 231480,
          "time": 241.125,
          "velocity": 1
        },
        {
          "duration": 0.47083333333333144,
          "durationTicks": 452,
          "midi": 60,
          "name": "C4",
          "ticks": 231480,
          "time": 241.125,
          "velocity": 1
        },
        {
          "duration": 0.47083333333333144,
          "durationTicks": 452,
          "midi": 64,
          "name": "E4",
          "ticks": 231480,
          "time": 241.125,
          "velocity": 1
        },
        {
          "duration": 0.6302083333333428,
          "durationTicks": 605,
          "midi": 59,
          "name": "B3",
          "ticks": 231960,
          "time": 241.625,
          "velocity": 1
        },
        {
          "duration": 0.6302083333333428,
          "durationTicks": 605,
          "midi": 62,
          "name": "D4",
          "ticks": 231960,
          "time": 241.625,
          "velocity": 1
        },
        {
          "duration": 0.3499999999999943,
          "durationTicks": 336,
          "midi": 53,
          "name": "F3",
          "ticks": 232560,
          "time": 242.25,
          "velocity": 1
        },
        {
          "duration": 0.3499999999999943,
          "durationTicks": 336,
          "midi": 58,
          "name": "A#3",
          "ticks": 232560,
          "time": 242.25,
          "velocity": 1
        },
        {
          "duration": 0.3499999999999943,
          "durationTicks": 336,
          "midi": 60,
          "name": "C4",
          "ticks": 232560,
          "time": 242.25,
          "velocity": 1
        },
        {
          "duration": 0.2916666666666572,
          "durationTicks": 280,
          "midi": 48,
          "name": "C3",
          "ticks": 233280,
          "time": 243,
          "velocity": 1
        },
        {
          "duration": 0.05000000000001137,
          "durationTicks": 48,
          "midi": 62,
          "name": "D4",
          "ticks": 233280,
          "time": 243,
          "velocity": 1
        },
        {
          "duration": 0.05000000000001137,
          "durationTicks": 48,
          "midi": 64,
          "name": "E4",
          "ticks": 233280,
          "time": 243,
          "velocity": 1
        },
        {
          "duration": 0.05000000000001137,
          "durationTicks": 48,
          "midi": 69,
          "name": "A4",
          "ticks": 233280,
          "time": 243,
          "velocity": 1
        },
        {
          "duration": 0.05000000000001137,
          "durationTicks": 48,
          "midi": 72,
          "name": "C5",
          "ticks": 233280,
          "time": 243,
          "velocity": 1
        },
        {
          "duration": 0.20937499999999432,
          "durationTicks": 201,
          "midi": 58,
          "name": "A#3",
          "ticks": 233520,
          "time": 243.25,
          "velocity": 1
        },
        {
          "duration": 0.23020833333333712,
          "durationTicks": 221,
          "midi": 60,
          "name": "C4",
          "ticks": 233760,
          "time": 243.5,
          "velocity": 1
        },
        {
          "duration": 0.04166666666665719,
          "durationTicks": 40,
          "midi": 64,
          "name": "E4",
          "ticks": 233760,
          "time": 243.5,
          "velocity": 1
        },
        {
          "duration": 0.04166666666665719,
          "durationTicks": 40,
          "midi": 68,
          "name": "G#4",
          "ticks": 233760,
          "time": 243.5,
          "velocity": 1
        },
        {
          "duration": 0.04166666666665719,
          "durationTicks": 40,
          "midi": 69,
          "name": "A4",
          "ticks": 233760,
          "time": 243.5,
          "velocity": 1
        },
        {
          "duration": 0.04166666666665719,
          "durationTicks": 40,
          "midi": 72,
          "name": "C5",
          "ticks": 233760,
          "time": 243.5,
          "velocity": 1
        },
        {
          "duration": 0.20937499999999432,
          "durationTicks": 201,
          "midi": 58,
          "name": "A#3",
          "ticks": 234000,
          "time": 243.75,
          "velocity": 1
        },
        {
          "duration": 0.5208333333333428,
          "durationTicks": 500,
          "midi": 48,
          "name": "C3",
          "ticks": 234240,
          "time": 244,
          "velocity": 1
        },
        {
          "duration": 0.2708333333333428,
          "durationTicks": 260,
          "midi": 64,
          "name": "E4",
          "ticks": 234240,
          "time": 244,
          "velocity": 1
        },
        {
          "duration": 0.5208333333333428,
          "durationTicks": 500,
          "midi": 68,
          "name": "G#4",
          "ticks": 234240,
          "time": 244,
          "velocity": 1
        },
        {
          "duration": 0.5208333333333428,
          "durationTicks": 500,
          "midi": 72,
          "name": "C5",
          "ticks": 234240,
          "time": 244,
          "velocity": 1
        },
        {
          "duration": 0.25,
          "durationTicks": 240,
          "midi": 58,
          "name": "A#3",
          "ticks": 234480,
          "time": 244.25,
          "velocity": 1
        },
        {
          "duration": 1.2114583333333258,
          "durationTicks": 1163,
          "midi": 48,
          "name": "C3",
          "ticks": 234720,
          "time": 244.5,
          "velocity": 1
        },
        {
          "duration": 1.2114583333333258,
          "durationTicks": 1163,
          "midi": 67,
          "name": "G4",
          "ticks": 234720,
          "time": 244.5,
          "velocity": 1
        },
        {
          "duration": 1.2114583333333258,
          "durationTicks": 1163,
          "midi": 74,
          "name": "D5",
          "ticks": 234720,
          "time": 244.5,
          "velocity": 1
        },
        {
          "duration": 1.2114583333333258,
          "durationTicks": 1163,
          "midi": 77,
          "name": "F5",
          "ticks": 234720,
          "time": 244.5,
          "velocity": 1
        },
        {
          "duration": 1.2114583333333258,
          "durationTicks": 1163,
          "midi": 81,
          "name": "A5",
          "ticks": 234720,
          "time": 244.5,
          "velocity": 1
        },
        {
          "duration": 0.25,
          "durationTicks": 240,
          "midi": 58,
          "name": "A#3",
          "ticks": 234960,
          "time": 244.75,
          "velocity": 1
        },
        {
          "duration": 0.27916666666666856,
          "durationTicks": 268,
          "midi": 63,
          "name": "D#4",
          "ticks": 235200,
          "time": 245,
          "velocity": 1
        },
        {
          "duration": 0.36145833333333144,
          "durationTicks": 347,
          "midi": 53,
          "name": "F3",
          "ticks": 235440,
          "time": 245.25,
          "velocity": 1
        },
        {
          "duration": 0.05937499999998863,
          "durationTicks": 57,
          "midi": 57,
          "name": "A3",
          "ticks": 235800,
          "time": 245.625,
          "velocity": 1
        },
        {
          "duration": 0.05937499999998863,
          "durationTicks": 57,
          "midi": 65,
          "name": "F4",
          "ticks": 235800,
          "time": 245.625,
          "velocity": 1
        },
        {
          "duration": 1.0593749999999886,
          "durationTicks": 1017,
          "midi": 67,
          "name": "G4",
          "ticks": 235800,
          "time": 245.625,
          "velocity": 1
        },
        {
          "duration": 0.5093750000000057,
          "durationTicks": 489,
          "midi": 74,
          "name": "D5",
          "ticks": 235800,
          "time": 245.625,
          "velocity": 1
        },
        {
          "duration": 0.5093750000000057,
          "durationTicks": 489,
          "midi": 77,
          "name": "F5",
          "ticks": 235800,
          "time": 245.625,
          "velocity": 1
        },
        {
          "duration": 0.5093750000000057,
          "durationTicks": 489,
          "midi": 81,
          "name": "A5",
          "ticks": 235800,
          "time": 245.625,
          "velocity": 1
        },
        {
          "duration": 0.24166666666667425,
          "durationTicks": 232,
          "midi": 63,
          "name": "D#4",
          "ticks": 236040,
          "time": 245.875,
          "velocity": 1
        },
        {
          "duration": 0.359375,
          "durationTicks": 345,
          "midi": 57,
          "name": "A3",
          "ticks": 236280,
          "time": 246.125,
          "velocity": 1
        },
        {
          "duration": 0.5500000000000114,
          "durationTicks": 528,
          "midi": 73,
          "name": "C#5",
          "ticks": 236280,
          "time": 246.125,
          "velocity": 1
        },
        {
          "duration": 0.5500000000000114,
          "durationTicks": 528,
          "midi": 79,
          "name": "G5",
          "ticks": 236280,
          "time": 246.125,
          "velocity": 1
        },
        {
          "duration": 0.19166666666666288,
          "durationTicks": 184,
          "midi": 53,
          "name": "F3",
          "ticks": 236640,
          "time": 246.5,
          "velocity": 1
        },
        {
          "duration": 0.19062500000001137,
          "durationTicks": 183,
          "midi": 46,
          "name": "A#2",
          "ticks": 236880,
          "time": 246.75,
          "velocity": 1
        },
        {
          "duration": 0.7593750000000057,
          "durationTicks": 729,
          "midi": 65,
          "name": "F4",
          "ticks": 236880,
          "time": 246.75,
          "velocity": 1
        },
        {
          "duration": 0.7593750000000057,
          "durationTicks": 729,
          "midi": 72,
          "name": "C5",
          "ticks": 236880,
          "time": 246.75,
          "velocity": 1
        },
        {
          "duration": 0.7593750000000057,
          "durationTicks": 729,
          "midi": 74,
          "name": "D5",
          "ticks": 236880,
          "time": 246.75,
          "velocity": 1
        },
        {
          "duration": 0.3708333333333371,
          "durationTicks": 356,
          "midi": 79,
          "name": "G5",
          "ticks": 236880,
          "time": 246.75,
          "velocity": 1
        },
        {
          "duration": 0.18020833333332575,
          "durationTicks": 173,
          "midi": 53,
          "name": "F3",
          "ticks": 237120,
          "time": 247,
          "velocity": 1
        },
        {
          "duration": 0.19999999999998863,
          "durationTicks": 192,
          "midi": 55,
          "name": "G3",
          "ticks": 237240,
          "time": 247.125,
          "velocity": 1
        },
        {
          "duration": 0.38854166666666856,
          "durationTicks": 373,
          "midi": 77,
          "name": "F5",
          "ticks": 237240,
          "time": 247.125,
          "velocity": 1
        },
        {
          "duration": 0.18854166666667993,
          "durationTicks": 181,
          "midi": 62,
          "name": "D4",
          "ticks": 237480,
          "time": 247.375,
          "velocity": 1
        },
        {
          "duration": 0.17083333333332007,
          "durationTicks": 164,
          "midi": 65,
          "name": "F4",
          "ticks": 237600,
          "time": 247.5,
          "velocity": 1
        },
        {
          "duration": 0.17083333333332007,
          "durationTicks": 164,
          "midi": 69,
          "name": "A4",
          "ticks": 237600,
          "time": 247.5,
          "velocity": 1
        },
        {
          "duration": 0.17083333333332007,
          "durationTicks": 164,
          "midi": 74,
          "name": "D5",
          "ticks": 237600,
          "time": 247.5,
          "velocity": 1
        },
        {
          "duration": 0.12083333333333712,
          "durationTicks": 116,
          "midi": 55,
          "name": "G3",
          "ticks": 237720,
          "time": 247.625,
          "velocity": 1
        },
        {
          "duration": 0.12083333333333712,
          "durationTicks": 116,
          "midi": 47,
          "name": "B2",
          "ticks": 237960,
          "time": 247.875,
          "velocity": 1
        },
        {
          "duration": 0.1302083333333428,
          "durationTicks": 125,
          "midi": 65,
          "name": "F4",
          "ticks": 238080,
          "time": 248,
          "velocity": 1
        },
        {
          "duration": 0.1302083333333428,
          "durationTicks": 125,
          "midi": 68,
          "name": "G#4",
          "ticks": 238080,
          "time": 248,
          "velocity": 1
        },
        {
          "duration": 0.1302083333333428,
          "durationTicks": 125,
          "midi": 74,
          "name": "D5",
          "ticks": 238080,
          "time": 248,
          "velocity": 1
        },
        {
          "duration": 0.1302083333333428,
          "durationTicks": 125,
          "midi": 77,
          "name": "F5",
          "ticks": 238080,
          "time": 248,
          "velocity": 1
        },
        {
          "duration": 0.15937500000001137,
          "durationTicks": 153,
          "midi": 53,
          "name": "F3",
          "ticks": 238200,
          "time": 248.125,
          "velocity": 1
        },
        {
          "duration": 0.14166666666667993,
          "durationTicks": 136,
          "midi": 56,
          "name": "G#3",
          "ticks": 238320,
          "time": 248.25,
          "velocity": 1
        },
        {
          "duration": 0.12916666666666288,
          "durationTicks": 124,
          "midi": 62,
          "name": "D4",
          "ticks": 238440,
          "time": 248.375,
          "velocity": 1
        },
        {
          "duration": 0.14166666666667993,
          "durationTicks": 136,
          "midi": 53,
          "name": "F3",
          "ticks": 238560,
          "time": 248.5,
          "velocity": 1
        },
        {
          "duration": 0.5916666666666686,
          "durationTicks": 568,
          "midi": 65,
          "name": "F4",
          "ticks": 238560,
          "time": 248.5,
          "velocity": 1
        },
        {
          "duration": 0.5916666666666686,
          "durationTicks": 568,
          "midi": 67,
          "name": "G4",
          "ticks": 238560,
          "time": 248.5,
          "velocity": 1
        },
        {
          "duration": 0.5916666666666686,
          "durationTicks": 568,
          "midi": 69,
          "name": "A4",
          "ticks": 238560,
          "time": 248.5,
          "velocity": 1
        },
        {
          "duration": 0.5916666666666686,
          "durationTicks": 568,
          "midi": 72,
          "name": "C5",
          "ticks": 238560,
          "time": 248.5,
          "velocity": 1
        },
        {
          "duration": 0.15937500000001137,
          "durationTicks": 153,
          "midi": 60,
          "name": "C4",
          "ticks": 238680,
          "time": 248.625,
          "velocity": 1
        },
        {
          "duration": 0.1614583333333428,
          "durationTicks": 155,
          "midi": 57,
          "name": "A3",
          "ticks": 238920,
          "time": 248.875,
          "velocity": 1
        },
        {
          "duration": 0.1302083333333428,
          "durationTicks": 125,
          "midi": 48,
          "name": "C3",
          "ticks": 239040,
          "time": 249,
          "velocity": 1
        },
        {
          "duration": 0.1302083333333428,
          "durationTicks": 125,
          "midi": 60,
          "name": "C4",
          "ticks": 239160,
          "time": 249.125,
          "velocity": 1
        },
        {
          "duration": 0.5999999999999943,
          "durationTicks": 576,
          "midi": 65,
          "name": "F4",
          "ticks": 239160,
          "time": 249.125,
          "velocity": 1
        },
        {
          "duration": 0.5999999999999943,
          "durationTicks": 576,
          "midi": 69,
          "name": "A4",
          "ticks": 239160,
          "time": 249.125,
          "velocity": 1
        },
        {
          "duration": 0.17916666666667425,
          "durationTicks": 172,
          "midi": 45,
          "name": "A2",
          "ticks": 239280,
          "time": 249.25,
          "velocity": 1
        },
        {
          "duration": 0.1614583333333428,
          "durationTicks": 155,
          "midi": 55,
          "name": "G3",
          "ticks": 239520,
          "time": 249.5,
          "velocity": 1
        },
        {
          "duration": 0.1302083333333428,
          "durationTicks": 125,
          "midi": 49,
          "name": "C#3",
          "ticks": 239640,
          "time": 249.625,
          "velocity": 1
        },
        {
          "duration": 0.08854166666665719,
          "durationTicks": 85,
          "midi": 45,
          "name": "A2",
          "ticks": 239760,
          "time": 249.75,
          "velocity": 1
        },
        {
          "duration": 0.08854166666665719,
          "durationTicks": 85,
          "midi": 64,
          "name": "E4",
          "ticks": 239760,
          "time": 249.75,
          "velocity": 1
        },
        {
          "duration": 0.08020833333333144,
          "durationTicks": 77,
          "midi": 65,
          "name": "F4",
          "ticks": 239760,
          "time": 249.75,
          "velocity": 1
        },
        {
          "duration": 0.5114583333333371,
          "durationTicks": 491,
          "midi": 53,
          "name": "F3",
          "ticks": 239880,
          "time": 249.875,
          "velocity": 1
        },
        {
          "duration": 0.5114583333333371,
          "durationTicks": 491,
          "midi": 65,
          "name": "F4",
          "ticks": 239880,
          "time": 249.875,
          "velocity": 1
        },
        {
          "duration": 0.16874999999998863,
          "durationTicks": 162,
          "midi": 45,
          "name": "A2",
          "ticks": 240000,
          "time": 250,
          "velocity": 1
        },
        {
          "duration": 0.3499999999999943,
          "durationTicks": 336,
          "midi": 38,
          "name": "D2",
          "ticks": 240240,
          "time": 250.25,
          "velocity": 1
        },
        {
          "duration": 0.3708333333333371,
          "durationTicks": 356,
          "midi": 62,
          "name": "D4",
          "ticks": 240360,
          "time": 250.375,
          "velocity": 1
        },
        {
          "duration": 0.17083333333332007,
          "durationTicks": 164,
          "midi": 44,
          "name": "G#2",
          "ticks": 240600,
          "time": 250.625,
          "velocity": 1
        },
        {
          "duration": 0.42083333333332007,
          "durationTicks": 404,
          "midi": 54,
          "name": "F#3",
          "ticks": 240720,
          "time": 250.75,
          "velocity": 1
        },
        {
          "duration": 0.42083333333332007,
          "durationTicks": 404,
          "midi": 58,
          "name": "A#3",
          "ticks": 240720,
          "time": 250.75,
          "velocity": 1
        },
        {
          "duration": 0.42083333333332007,
          "durationTicks": 404,
          "midi": 60,
          "name": "C4",
          "ticks": 240720,
          "time": 250.75,
          "velocity": 1
        },
        {
          "duration": 1.67083333333332,
          "durationTicks": 1604,
          "midi": 43,
          "name": "G2",
          "ticks": 241080,
          "time": 251.125,
          "velocity": 1
        },
        {
          "duration": 1.67083333333332,
          "durationTicks": 1604,
          "midi": 53,
          "name": "F3",
          "ticks": 241080,
          "time": 251.125,
          "velocity": 1
        },
        {
          "duration": 0.7302083333333371,
          "durationTicks": 701,
          "midi": 57,
          "name": "A3",
          "ticks": 241080,
          "time": 251.125,
          "velocity": 1
        },
        {
          "duration": 1.67083333333332,
          "durationTicks": 1604,
          "midi": 59,
          "name": "B3",
          "ticks": 241080,
          "time": 251.125,
          "velocity": 1
        },
        {
          "duration": 0.30000000000001137,
          "durationTicks": 288,
          "midi": 64,
          "name": "E4",
          "ticks": 242040,
          "time": 252.125,
          "velocity": 1
        },
        {
          "duration": 0.34062499999998863,
          "durationTicks": 327,
          "midi": 65,
          "name": "F4",
          "ticks": 242400,
          "time": 252.5,
          "velocity": 1
        },
        {
          "duration": 0.43020833333332575,
          "durationTicks": 413,
          "midi": 44,
          "name": "G#2",
          "ticks": 242760,
          "time": 252.875,
          "velocity": 1
        },
        {
          "duration": 0.43020833333332575,
          "durationTicks": 413,
          "midi": 53,
          "name": "F3",
          "ticks": 242760,
          "time": 252.875,
          "velocity": 1
        },
        {
          "duration": 0.43020833333332575,
          "durationTicks": 413,
          "midi": 59,
          "name": "B3",
          "ticks": 242760,
          "time": 252.875,
          "velocity": 1
        },
        {
          "duration": 0.43020833333332575,
          "durationTicks": 413,
          "midi": 64,
          "name": "E4",
          "ticks": 242760,
          "time": 252.875,
          "velocity": 1
        },
        {
          "duration": 0.43020833333332575,
          "durationTicks": 413,
          "midi": 67,
          "name": "G4",
          "ticks": 242760,
          "time": 252.875,
          "velocity": 1
        },
        {
          "duration": 0.43854166666667993,
          "durationTicks": 421,
          "midi": 45,
          "name": "A2",
          "ticks": 243120,
          "time": 253.25,
          "velocity": 1
        },
        {
          "duration": 1.0708333333333258,
          "durationTicks": 1028,
          "midi": 60,
          "name": "C4",
          "ticks": 243120,
          "time": 253.25,
          "velocity": 1
        },
        {
          "duration": 0.6802083333333258,
          "durationTicks": 653,
          "midi": 64,
          "name": "E4",
          "ticks": 243120,
          "time": 253.25,
          "velocity": 1
        },
        {
          "duration": 0.8093749999999886,
          "durationTicks": 777,
          "midi": 69,
          "name": "A4",
          "ticks": 243120,
          "time": 253.25,
          "velocity": 1
        },
        {
          "duration": 0.6322916666666742,
          "durationTicks": 607,
          "midi": 55,
          "name": "G3",
          "ticks": 243600,
          "time": 253.75,
          "velocity": 1
        },
        {
          "duration": 0.2614583333333371,
          "durationTicks": 251,
          "midi": 67,
          "name": "G4",
          "ticks": 243960,
          "time": 254.125,
          "velocity": 1
        },
        {
          "duration": 0.2614583333333371,
          "durationTicks": 251,
          "midi": 69,
          "name": "A4",
          "ticks": 243960,
          "time": 254.125,
          "velocity": 1
        },
        {
          "duration": 0.2614583333333371,
          "durationTicks": 251,
          "midi": 74,
          "name": "D5",
          "ticks": 243960,
          "time": 254.125,
          "velocity": 1
        },
        {
          "duration": 0.6885416666666799,
          "durationTicks": 661,
          "midi": 65,
          "name": "F4",
          "ticks": 244200,
          "time": 254.375,
          "velocity": 1
        },
        {
          "duration": 0.6885416666666799,
          "durationTicks": 661,
          "midi": 69,
          "name": "A4",
          "ticks": 244200,
          "time": 254.375,
          "velocity": 1
        },
        {
          "duration": 1.1593750000000114,
          "durationTicks": 1113,
          "midi": 72,
          "name": "C5",
          "ticks": 244200,
          "time": 254.375,
          "velocity": 1
        },
        {
          "duration": 0.15000000000000568,
          "durationTicks": 144,
          "midi": 53,
          "name": "F3",
          "ticks": 244320,
          "time": 254.5,
          "velocity": 1
        },
        {
          "duration": 0.18020833333332575,
          "durationTicks": 173,
          "midi": 45,
          "name": "A2",
          "ticks": 244440,
          "time": 254.625,
          "velocity": 1
        },
        {
          "duration": 0.17916666666667425,
          "durationTicks": 172,
          "midi": 38,
          "name": "D2",
          "ticks": 244680,
          "time": 254.875,
          "velocity": 1
        },
        {
          "duration": 0.1614583333333428,
          "durationTicks": 155,
          "midi": 60,
          "name": "C4",
          "ticks": 244800,
          "time": 255,
          "velocity": 1
        },
        {
          "duration": 0.30937499999998863,
          "durationTicks": 297,
          "midi": 64,
          "name": "E4",
          "ticks": 244920,
          "time": 255.125,
          "velocity": 1
        },
        {
          "duration": 0.30937499999998863,
          "durationTicks": 297,
          "midi": 65,
          "name": "F4",
          "ticks": 244920,
          "time": 255.125,
          "velocity": 1
        },
        {
          "duration": 0.30937499999998863,
          "durationTicks": 297,
          "midi": 69,
          "name": "A4",
          "ticks": 244920,
          "time": 255.125,
          "velocity": 1
        },
        {
          "duration": 0.44062500000001137,
          "durationTicks": 423,
          "midi": 43,
          "name": "G2",
          "ticks": 245280,
          "time": 255.5,
          "velocity": 1
        },
        {
          "duration": 0.44062500000001137,
          "durationTicks": 423,
          "midi": 59,
          "name": "B3",
          "ticks": 245280,
          "time": 255.5,
          "velocity": 1
        },
        {
          "duration": 0.44062500000001137,
          "durationTicks": 423,
          "midi": 64,
          "name": "E4",
          "ticks": 245280,
          "time": 255.5,
          "velocity": 1
        },
        {
          "duration": 0.44062500000001137,
          "durationTicks": 423,
          "midi": 67,
          "name": "G4",
          "ticks": 245280,
          "time": 255.5,
          "velocity": 1
        },
        {
          "duration": 0.5687500000000227,
          "durationTicks": 546,
          "midi": 62,
          "name": "D4",
          "ticks": 245760,
          "time": 256,
          "velocity": 1
        },
        {
          "duration": 0.05000000000001137,
          "durationTicks": 48,
          "midi": 65,
          "name": "F4",
          "ticks": 245760,
          "time": 256,
          "velocity": 1
        },
        {
          "duration": 0.6885416666666515,
          "durationTicks": 661,
          "midi": 53,
          "name": "F3",
          "ticks": 246240,
          "time": 256.5,
          "velocity": 1
        },
        {
          "duration": 0.6885416666666515,
          "durationTicks": 661,
          "midi": 57,
          "name": "A3",
          "ticks": 246240,
          "time": 256.5,
          "velocity": 1
        },
        {
          "duration": 0.6885416666666515,
          "durationTicks": 661,
          "midi": 58,
          "name": "A#3",
          "ticks": 246240,
          "time": 256.5,
          "velocity": 1
        },
        {
          "duration": 0.6885416666666515,
          "durationTicks": 661,
          "midi": 62,
          "name": "D4",
          "ticks": 246240,
          "time": 256.5,
          "velocity": 1
        },
        {
          "duration": 0.6999999999999886,
          "durationTicks": 672,
          "midi": 52,
          "name": "E3",
          "ticks": 246960,
          "time": 257.25,
          "velocity": 1
        },
        {
          "duration": 0.6999999999999886,
          "durationTicks": 672,
          "midi": 56,
          "name": "G#3",
          "ticks": 246960,
          "time": 257.25,
          "velocity": 1
        },
        {
          "duration": 0.6999999999999886,
          "durationTicks": 672,
          "midi": 59,
          "name": "B3",
          "ticks": 246960,
          "time": 257.25,
          "velocity": 1
        },
        {
          "duration": 0.6999999999999886,
          "durationTicks": 672,
          "midi": 61,
          "name": "C#4",
          "ticks": 246960,
          "time": 257.25,
          "velocity": 1
        },
        {
          "duration": 0.6999999999999886,
          "durationTicks": 672,
          "midi": 64,
          "name": "E4",
          "ticks": 246960,
          "time": 257.25,
          "velocity": 1
        },
        {
          "duration": 0.11145833333335986,
          "durationTicks": 107,
          "midi": 45,
          "name": "A2",
          "ticks": 247680,
          "time": 258,
          "velocity": 1
        },
        {
          "duration": 1.3999999999999773,
          "durationTicks": 1344,
          "midi": 55,
          "name": "G3",
          "ticks": 247680,
          "time": 258,
          "velocity": 1
        },
        {
          "duration": 1.3999999999999773,
          "durationTicks": 1344,
          "midi": 57,
          "name": "A3",
          "ticks": 247680,
          "time": 258,
          "velocity": 1
        },
        {
          "duration": 1.3999999999999773,
          "durationTicks": 1344,
          "midi": 60,
          "name": "C4",
          "ticks": 247680,
          "time": 258,
          "velocity": 1
        },
        {
          "duration": 1.3999999999999773,
          "durationTicks": 1344,
          "midi": 62,
          "name": "D4",
          "ticks": 247680,
          "time": 258,
          "velocity": 1
        },
        {
          "duration": 1.3999999999999773,
          "durationTicks": 1344,
          "midi": 65,
          "name": "F4",
          "ticks": 247680,
          "time": 258,
          "velocity": 1
        },
        {
          "duration": 1.0791666666666515,
          "durationTicks": 1036,
          "midi": 48,
          "name": "C3",
          "ticks": 247920,
          "time": 258.25,
          "velocity": 1
        },
        {
          "duration": 0.42916666666667425,
          "durationTicks": 412,
          "midi": 36,
          "name": "C2",
          "ticks": 248520,
          "time": 258.875,
          "velocity": 1
        },
        {
          "duration": 1.7614583333333371,
          "durationTicks": 1691,
          "midi": 48,
          "name": "C3",
          "ticks": 249000,
          "time": 259.375,
          "velocity": 1
        },
        {
          "duration": 0.7614583333333371,
          "durationTicks": 731,
          "midi": 65,
          "name": "F4",
          "ticks": 249000,
          "time": 259.375,
          "velocity": 1
        },
        {
          "duration": 0.7416666666666742,
          "durationTicks": 712,
          "midi": 70,
          "name": "A#4",
          "ticks": 249000,
          "time": 259.375,
          "velocity": 1
        },
        {
          "duration": 0.7614583333333371,
          "durationTicks": 731,
          "midi": 72,
          "name": "C5",
          "ticks": 249000,
          "time": 259.375,
          "velocity": 1
        },
        {
          "duration": 0.7614583333333371,
          "durationTicks": 731,
          "midi": 74,
          "name": "D5",
          "ticks": 249000,
          "time": 259.375,
          "velocity": 1
        },
        {
          "duration": 0.7614583333333371,
          "durationTicks": 731,
          "midi": 77,
          "name": "F5",
          "ticks": 249000,
          "time": 259.375,
          "velocity": 1
        },
        {
          "duration": 0.6322916666666742,
          "durationTicks": 607,
          "midi": 58,
          "name": "A#3",
          "ticks": 249360,
          "time": 259.75,
          "velocity": 1
        },
        {
          "duration": 0.6322916666666742,
          "durationTicks": 607,
          "midi": 63,
          "name": "D#4",
          "ticks": 249360,
          "time": 259.75,
          "velocity": 1
        },
        {
          "duration": 0.6208333333333371,
          "durationTicks": 596,
          "midi": 70,
          "name": "A#4",
          "ticks": 249720,
          "time": 260.125,
          "velocity": 1
        },
        {
          "duration": 0.6999999999999886,
          "durationTicks": 672,
          "midi": 57,
          "name": "A3",
          "ticks": 249960,
          "time": 260.375,
          "velocity": 1
        },
        {
          "duration": 0.6999999999999886,
          "durationTicks": 672,
          "midi": 63,
          "name": "D#4",
          "ticks": 249960,
          "time": 260.375,
          "velocity": 1
        },
        {
          "duration": 0.39999999999997726,
          "durationTicks": 384,
          "midi": 72,
          "name": "C5",
          "ticks": 250200,
          "time": 260.625,
          "velocity": 1
        },
        {
          "duration": 1.1802083333333258,
          "durationTicks": 1133,
          "midi": 46,
          "name": "A#2",
          "ticks": 250680,
          "time": 261.125,
          "velocity": 1
        },
        {
          "duration": 0.6802083333333258,
          "durationTicks": 653,
          "midi": 57,
          "name": "A3",
          "ticks": 250680,
          "time": 261.125,
          "velocity": 1
        },
        {
          "duration": 1.71875,
          "durationTicks": 1650,
          "midi": 62,
          "name": "D4",
          "ticks": 250680,
          "time": 261.125,
          "velocity": 1
        },
        {
          "duration": 1.0500000000000114,
          "durationTicks": 1008,
          "midi": 65,
          "name": "F4",
          "ticks": 250680,
          "time": 261.125,
          "velocity": 1
        },
        {
          "duration": 1.0500000000000114,
          "durationTicks": 1008,
          "midi": 74,
          "name": "D5",
          "ticks": 250680,
          "time": 261.125,
          "velocity": 1
        },
        {
          "duration": 0.5,
          "durationTicks": 480,
          "midi": 55,
          "name": "G3",
          "ticks": 251280,
          "time": 261.75,
          "velocity": 1
        },
        {
          "duration": 1.9208333333333485,
          "durationTicks": 1844,
          "midi": 48,
          "name": "C3",
          "ticks": 251760,
          "time": 262.25,
          "velocity": 1
        },
        {
          "duration": 0.9885416666666629,
          "durationTicks": 949,
          "midi": 58,
          "name": "A#3",
          "ticks": 251760,
          "time": 262.25,
          "velocity": 1
        },
        {
          "duration": 0.8822916666666742,
          "durationTicks": 847,
          "midi": 63,
          "name": "D#4",
          "ticks": 252240,
          "time": 262.75,
          "velocity": 1
        },
        {
          "duration": 0.9322916666666856,
          "durationTicks": 895,
          "midi": 57,
          "name": "A3",
          "ticks": 252720,
          "time": 263.25,
          "velocity": 1
        },
        {
          "duration": 0.5,
          "durationTicks": 480,
          "midi": 72,
          "name": "C5",
          "ticks": 253080,
          "time": 263.625,
          "velocity": 1
        },
        {
          "duration": 0.30937499999998863,
          "durationTicks": 297,
          "midi": 79,
          "name": "G5",
          "ticks": 253920,
          "time": 264.5,
          "velocity": 1
        },
        {
          "duration": 0.8802083333333144,
          "durationTicks": 845,
          "midi": 62,
          "name": "D4",
          "ticks": 254280,
          "time": 264.875,
          "velocity": 1
        },
        {
          "duration": 0.33020833333335986,
          "durationTicks": 317,
          "midi": 77,
          "name": "F5",
          "ticks": 254280,
          "time": 264.875,
          "velocity": 1
        },
        {
          "duration": 0.09166666666664014,
          "durationTicks": 88,
          "midi": 72,
          "name": "C5",
          "ticks": 254640,
          "time": 265.25,
          "velocity": 1
        },
        {
          "duration": 0.07916666666665151,
          "durationTicks": 76,
          "midi": 73,
          "name": "C#5",
          "ticks": 254640,
          "time": 265.25,
          "velocity": 1
        },
        {
          "duration": 0.3802083333333144,
          "durationTicks": 365,
          "midi": 74,
          "name": "D5",
          "ticks": 254760,
          "time": 265.375,
          "velocity": 1
        },
        {
          "duration": 3.1999999999999886,
          "durationTicks": 3072,
          "midi": 51,
          "name": "D#3",
          "ticks": 255120,
          "time": 265.75,
          "velocity": 1
        },
        {
          "duration": 0.8614583333333599,
          "durationTicks": 827,
          "midi": 62,
          "name": "D4",
          "ticks": 255120,
          "time": 265.75,
          "velocity": 1
        },
        {
          "duration": 0.48229166666664014,
          "durationTicks": 463,
          "midi": 67,
          "name": "G4",
          "ticks": 255120,
          "time": 265.75,
          "velocity": 1
        },
        {
          "duration": 0.2708333333333144,
          "durationTicks": 260,
          "midi": 72,
          "name": "C5",
          "ticks": 255120,
          "time": 265.75,
          "velocity": 1
        },
        {
          "duration": 0.23020833333333712,
          "durationTicks": 221,
          "midi": 70,
          "name": "A#4",
          "ticks": 255360,
          "time": 266,
          "velocity": 1
        },
        {
          "duration": 0.8916666666666515,
          "durationTicks": 856,
          "midi": 67,
          "name": "G4",
          "ticks": 255600,
          "time": 266.25,
          "velocity": 1
        },
        {
          "duration": 2.3385416666666856,
          "durationTicks": 2245,
          "midi": 60,
          "name": "C4",
          "ticks": 255960,
          "time": 266.625,
          "velocity": 1
        },
        {
          "duration": 0.390625,
          "durationTicks": 375,
          "midi": 66,
          "name": "F#4",
          "ticks": 256440,
          "time": 267.125,
          "velocity": 1
        },
        {
          "duration": 1.4187499999999886,
          "durationTicks": 1362,
          "midi": 70,
          "name": "A#4",
          "ticks": 256800,
          "time": 267.5,
          "velocity": 1
        },
        {
          "duration": 0.44999999999998863,
          "durationTicks": 432,
          "midi": 74,
          "name": "D5",
          "ticks": 257760,
          "time": 268.5,
          "velocity": 1
        },
        {
          "duration": 0.26875000000001137,
          "durationTicks": 258,
          "midi": 75,
          "name": "D#5",
          "ticks": 257880,
          "time": 268.625,
          "velocity": 1
        },
        {
          "duration": 1.6322916666666742,
          "durationTicks": 1567,
          "midi": 50,
          "name": "D3",
          "ticks": 258120,
          "time": 268.875,
          "velocity": 1
        },
        {
          "duration": 0.6114583333333599,
          "durationTicks": 587,
          "midi": 60,
          "name": "C4",
          "ticks": 258120,
          "time": 268.875,
          "velocity": 1
        },
        {
          "duration": 1.3708333333333371,
          "durationTicks": 1316,
          "midi": 65,
          "name": "F4",
          "ticks": 258120,
          "time": 268.875,
          "velocity": 1
        },
        {
          "duration": 0.14999999999997726,
          "durationTicks": 144,
          "midi": 76,
          "name": "E5",
          "ticks": 258120,
          "time": 268.875,
          "velocity": 1
        },
        {
          "duration": 1.2708333333333144,
          "durationTicks": 1220,
          "midi": 77,
          "name": "F5",
          "ticks": 258360,
          "time": 269.125,
          "velocity": 1
        },
        {
          "duration": 1.0208333333333144,
          "durationTicks": 980,
          "midi": 58,
          "name": "A#3",
          "ticks": 258720,
          "time": 269.5,
          "velocity": 1
        },
        {
          "duration": 0.22083333333335986,
          "durationTicks": 212,
          "midi": 79,
          "name": "G5",
          "ticks": 259560,
          "time": 270.375,
          "velocity": 1
        },
        {
          "duration": 1.7791666666666401,
          "durationTicks": 1708,
          "midi": 43,
          "name": "G2",
          "ticks": 259800,
          "time": 270.625,
          "velocity": 1
        },
        {
          "duration": 1.8500000000000227,
          "durationTicks": 1776,
          "midi": 53,
          "name": "F3",
          "ticks": 259800,
          "time": 270.625,
          "velocity": 1
        },
        {
          "duration": 2.2093750000000227,
          "durationTicks": 2121,
          "midi": 58,
          "name": "A#3",
          "ticks": 259800,
          "time": 270.625,
          "velocity": 1
        },
        {
          "duration": 0.30937499999998863,
          "durationTicks": 297,
          "midi": 77,
          "name": "F5",
          "ticks": 259800,
          "time": 270.625,
          "velocity": 1
        },
        {
          "duration": 0.07916666666665151,
          "durationTicks": 76,
          "midi": 72,
          "name": "C5",
          "ticks": 260400,
          "time": 271.25,
          "velocity": 1
        },
        {
          "duration": 0.08020833333335986,
          "durationTicks": 77,
          "midi": 73,
          "name": "C#5",
          "ticks": 260520,
          "time": 271.375,
          "velocity": 1
        },
        {
          "duration": 0.24166666666667425,
          "durationTicks": 232,
          "midi": 74,
          "name": "D5",
          "ticks": 260520,
          "time": 271.375,
          "velocity": 1
        },
        {
          "duration": 0.32083333333332575,
          "durationTicks": 308,
          "midi": 70,
          "name": "A#4",
          "ticks": 260760,
          "time": 271.625,
          "velocity": 1
        },
        {
          "duration": 0.109375,
          "durationTicks": 105,
          "midi": 65,
          "name": "F4",
          "ticks": 261120,
          "time": 272,
          "velocity": 1
        },
        {
          "duration": 0.19166666666666288,
          "durationTicks": 184,
          "midi": 73,
          "name": "C#5",
          "ticks": 261240,
          "time": 272.125,
          "velocity": 1
        },
        {
          "duration": 0.18020833333332575,
          "durationTicks": 173,
          "midi": 74,
          "name": "D5",
          "ticks": 261360,
          "time": 272.25,
          "velocity": 1
        },
        {
          "duration": 0.359375,
          "durationTicks": 345,
          "midi": 53,
          "name": "F3",
          "ticks": 261600,
          "time": 272.5,
          "velocity": 1
        },
        {
          "duration": 0.359375,
          "durationTicks": 345,
          "midi": 72,
          "name": "C5",
          "ticks": 261600,
          "time": 272.5,
          "velocity": 1
        },
        {
          "duration": 1.6208333333333371,
          "durationTicks": 1556,
          "midi": 48,
          "name": "C3",
          "ticks": 261960,
          "time": 272.875,
          "velocity": 1
        },
        {
          "duration": 1.3916666666666515,
          "durationTicks": 1336,
          "midi": 58,
          "name": "A#3",
          "ticks": 261960,
          "time": 272.875,
          "velocity": 1
        },
        {
          "duration": 1.3916666666666515,
          "durationTicks": 1336,
          "midi": 64,
          "name": "E4",
          "ticks": 261960,
          "time": 272.875,
          "velocity": 1
        },
        {
          "duration": 0.1708333333333485,
          "durationTicks": 164,
          "midi": 72,
          "name": "C5",
          "ticks": 261960,
          "time": 272.875,
          "velocity": 1
        },
        {
          "duration": 0.10000000000002274,
          "durationTicks": 96,
          "midi": 70,
          "name": "A#4",
          "ticks": 262080,
          "time": 273,
          "velocity": 1
        },
        {
          "duration": 0.10000000000002274,
          "durationTicks": 96,
          "midi": 69,
          "name": "A4",
          "ticks": 262200,
          "time": 273.125,
          "velocity": 1
        },
        {
          "duration": 0.12083333333333712,
          "durationTicks": 116,
          "midi": 67,
          "name": "G4",
          "ticks": 262320,
          "time": 273.25,
          "velocity": 1
        },
        {
          "duration": 0.1708333333333485,
          "durationTicks": 164,
          "midi": 66,
          "name": "F#4",
          "ticks": 262440,
          "time": 273.375,
          "velocity": 1
        },
        {
          "duration": 0.19999999999998863,
          "durationTicks": 192,
          "midi": 67,
          "name": "G4",
          "ticks": 262560,
          "time": 273.5,
          "velocity": 1
        },
        {
          "duration": 0.14999999999997726,
          "durationTicks": 144,
          "midi": 69,
          "name": "A4",
          "ticks": 262800,
          "time": 273.75,
          "velocity": 1
        },
        {
          "duration": 0.19999999999998863,
          "durationTicks": 192,
          "midi": 70,
          "name": "A#4",
          "ticks": 262920,
          "time": 273.875,
          "velocity": 1
        },
        {
          "duration": 0.18020833333332575,
          "durationTicks": 173,
          "midi": 72,
          "name": "C5",
          "ticks": 263040,
          "time": 274,
          "velocity": 1
        },
        {
          "duration": 0.75,
          "durationTicks": 720,
          "midi": 58,
          "name": "A#3",
          "ticks": 263280,
          "time": 274.25,
          "velocity": 1
        },
        {
          "duration": 2.1906250000000114,
          "durationTicks": 2103,
          "midi": 63,
          "name": "D#4",
          "ticks": 263280,
          "time": 274.25,
          "velocity": 1
        },
        {
          "duration": 0.109375,
          "durationTicks": 105,
          "midi": 73,
          "name": "C#5",
          "ticks": 263280,
          "time": 274.25,
          "velocity": 1
        },
        {
          "duration": 0.19166666666666288,
          "durationTicks": 184,
          "midi": 74,
          "name": "D5",
          "ticks": 263400,
          "time": 274.375,
          "velocity": 1
        },
        {
          "duration": 0.109375,
          "durationTicks": 105,
          "midi": 72,
          "name": "C5",
          "ticks": 263520,
          "time": 274.5,
          "velocity": 1
        },
        {
          "duration": 0.12083333333333712,
          "durationTicks": 116,
          "midi": 70,
          "name": "A#4",
          "ticks": 263640,
          "time": 274.625,
          "velocity": 1
        },
        {
          "duration": 0.9208333333333485,
          "durationTicks": 884,
          "midi": 65,
          "name": "F4",
          "ticks": 263760,
          "time": 274.75,
          "velocity": 1
        },
        {
          "duration": 1.4406250000000114,
          "durationTicks": 1383,
          "midi": 57,
          "name": "A3",
          "ticks": 264000,
          "time": 275,
          "velocity": 1
        },
        {
          "duration": 0.1708333333333485,
          "durationTicks": 164,
          "midi": 65,
          "name": "F4",
          "ticks": 264600,
          "time": 275.625,
          "velocity": 1
        },
        {
          "duration": 0.25937499999997726,
          "durationTicks": 249,
          "midi": 70,
          "name": "A#4",
          "ticks": 264840,
          "time": 275.875,
          "velocity": 1
        },
        {
          "duration": 0.3114583333333485,
          "durationTicks": 299,
          "midi": 72,
          "name": "C5",
          "ticks": 265080,
          "time": 276.125,
          "velocity": 1
        },
        {
          "duration": 0.4385416666666515,
          "durationTicks": 421,
          "midi": 57,
          "name": "A3",
          "ticks": 265320,
          "time": 276.375,
          "velocity": 1
        },
        {
          "duration": 1.8999999999999773,
          "durationTicks": 1824,
          "midi": 62,
          "name": "D4",
          "ticks": 265320,
          "time": 276.375,
          "velocity": 1
        },
        {
          "duration": 1.8802083333333144,
          "durationTicks": 1805,
          "midi": 74,
          "name": "D5",
          "ticks": 265320,
          "time": 276.375,
          "velocity": 1
        },
        {
          "duration": 1.4322916666666856,
          "durationTicks": 1375,
          "midi": 55,
          "name": "G3",
          "ticks": 265800,
          "time": 276.875,
          "velocity": 1
        },
        {
          "duration": 0.29062499999997726,
          "durationTicks": 279,
          "midi": 72,
          "name": "C5",
          "ticks": 266880,
          "time": 278,
          "velocity": 1
        },
        {
          "duration": 1.6885416666666515,
          "durationTicks": 1621,
          "midi": 53,
          "name": "F3",
          "ticks": 267120,
          "time": 278.25,
          "velocity": 1
        },
        {
          "duration": 0.6999999999999886,
          "durationTicks": 672,
          "midi": 63,
          "name": "D#4",
          "ticks": 267120,
          "time": 278.25,
          "velocity": 1
        },
        {
          "duration": 1.9302083333333258,
          "durationTicks": 1853,
          "midi": 68,
          "name": "G#4",
          "ticks": 267120,
          "time": 278.25,
          "velocity": 1
        },
        {
          "duration": 0.25,
          "durationTicks": 240,
          "midi": 74,
          "name": "D5",
          "ticks": 267120,
          "time": 278.25,
          "velocity": 1
        },
        {
          "duration": 0.13854166666664014,
          "durationTicks": 133,
          "midi": 77,
          "name": "F5",
          "ticks": 267480,
          "time": 278.625,
          "velocity": 1
        },
        {
          "duration": 1.2302083333333371,
          "durationTicks": 1181,
          "midi": 62,
          "name": "D4",
          "ticks": 267840,
          "time": 279,
          "velocity": 1
        },
        {
          "duration": 0.10000000000002274,
          "durationTicks": 96,
          "midi": 77,
          "name": "F5",
          "ticks": 267840,
          "time": 279,
          "velocity": 1
        },
        {
          "duration": 0.10000000000002274,
          "durationTicks": 96,
          "midi": 78,
          "name": "F#5",
          "ticks": 267960,
          "time": 279.125,
          "velocity": 1
        },
        {
          "duration": 0.19999999999998863,
          "durationTicks": 192,
          "midi": 79,
          "name": "G5",
          "ticks": 268080,
          "time": 279.25,
          "velocity": 1
        },
        {
          "duration": 0.20937500000002274,
          "durationTicks": 201,
          "midi": 82,
          "name": "A#5",
          "ticks": 268200,
          "time": 279.375,
          "velocity": 1
        },
        {
          "duration": 0.19166666666666288,
          "durationTicks": 184,
          "midi": 79,
          "name": "G5",
          "ticks": 268440,
          "time": 279.625,
          "velocity": 1
        },
        {
          "duration": 0.1885416666666515,
          "durationTicks": 181,
          "midi": 77,
          "name": "F5",
          "ticks": 268560,
          "time": 279.75,
          "velocity": 1
        },
        {
          "duration": 0.24166666666667425,
          "durationTicks": 232,
          "midi": 56,
          "name": "G#3",
          "ticks": 268800,
          "time": 280,
          "velocity": 1
        },
        {
          "duration": 0.24166666666667425,
          "durationTicks": 232,
          "midi": 74,
          "name": "D5",
          "ticks": 268800,
          "time": 280,
          "velocity": 1
        },
        {
          "duration": 2.72083333333336,
          "durationTicks": 2612,
          "midi": 51,
          "name": "D#3",
          "ticks": 269040,
          "time": 280.25,
          "velocity": 1
        },
        {
          "duration": 2.72083333333336,
          "durationTicks": 2612,
          "midi": 55,
          "name": "G3",
          "ticks": 269040,
          "time": 280.25,
          "velocity": 1
        },
        {
          "duration": 1.3093749999999886,
          "durationTicks": 1257,
          "midi": 62,
          "name": "D4",
          "ticks": 269040,
          "time": 280.25,
          "velocity": 1
        },
        {
          "duration": 0.19999999999998863,
          "durationTicks": 192,
          "midi": 72,
          "name": "C5",
          "ticks": 269040,
          "time": 280.25,
          "velocity": 1
        },
        {
          "duration": 0.30937499999998863,
          "durationTicks": 297,
          "midi": 70,
          "name": "A#4",
          "ticks": 269160,
          "time": 280.375,
          "velocity": 1
        },
        {
          "duration": 0.2708333333333144,
          "durationTicks": 260,
          "midi": 67,
          "name": "G4",
          "ticks": 269520,
          "time": 280.75,
          "velocity": 1
        },
        {
          "duration": 1.6416666666666515,
          "durationTicks": 1576,
          "midi": 67,
          "name": "G4",
          "ticks": 269760,
          "time": 281,
          "velocity": 1
        },
        {
          "duration": 1.1114583333333599,
          "durationTicks": 1067,
          "midi": 62,
          "name": "D4",
          "ticks": 270240,
          "time": 281.5,
          "velocity": 1
        },
        {
          "duration": 0.21145833333332575,
          "durationTicks": 203,
          "midi": 69,
          "name": "A4",
          "ticks": 271440,
          "time": 282.75,
          "velocity": 1
        },
        {
          "duration": 1.1999999999999886,
          "durationTicks": 1152,
          "midi": 51,
          "name": "D#3",
          "ticks": 271560,
          "time": 282.875,
          "velocity": 1
        },
        {
          "duration": 1.1999999999999886,
          "durationTicks": 1152,
          "midi": 60,
          "name": "C4",
          "ticks": 271560,
          "time": 282.875,
          "velocity": 1
        },
        {
          "duration": 1.1999999999999886,
          "durationTicks": 1152,
          "midi": 66,
          "name": "F#4",
          "ticks": 271560,
          "time": 282.875,
          "velocity": 1
        },
        {
          "duration": 0.30937499999998863,
          "durationTicks": 297,
          "midi": 70,
          "name": "A#4",
          "ticks": 271560,
          "time": 282.875,
          "velocity": 1
        },
        {
          "duration": 0.8916666666666515,
          "durationTicks": 856,
          "midi": 72,
          "name": "C5",
          "ticks": 271920,
          "time": 283.25,
          "velocity": 1
        },
        {
          "duration": 1.3093749999999886,
          "durationTicks": 1257,
          "midi": 50,
          "name": "D3",
          "ticks": 272760,
          "time": 284.125,
          "velocity": 1
        },
        {
          "duration": 1.3093749999999886,
          "durationTicks": 1257,
          "midi": 60,
          "name": "C4",
          "ticks": 272760,
          "time": 284.125,
          "velocity": 1
        },
        {
          "duration": 0.5500000000000114,
          "durationTicks": 528,
          "midi": 65,
          "name": "F4",
          "ticks": 272760,
          "time": 284.125,
          "velocity": 1
        },
        {
          "duration": 0.5500000000000114,
          "durationTicks": 528,
          "midi": 74,
          "name": "D5",
          "ticks": 272760,
          "time": 284.125,
          "velocity": 1
        },
        {
          "duration": 0.22916666666668561,
          "durationTicks": 220,
          "midi": 65,
          "name": "F4",
          "ticks": 273360,
          "time": 284.75,
          "velocity": 1
        },
        {
          "duration": 0.24166666666667425,
          "durationTicks": 232,
          "midi": 70,
          "name": "A#4",
          "ticks": 273600,
          "time": 285,
          "velocity": 1
        },
        {
          "duration": 0.15937500000001137,
          "durationTicks": 153,
          "midi": 65,
          "name": "F4",
          "ticks": 273840,
          "time": 285.25,
          "velocity": 1
        },
        {
          "duration": 1.2916666666666856,
          "durationTicks": 1240,
          "midi": 43,
          "name": "G2",
          "ticks": 273960,
          "time": 285.375,
          "velocity": 1
        },
        {
          "duration": 1.7916666666666856,
          "durationTicks": 1720,
          "midi": 53,
          "name": "F3",
          "ticks": 273960,
          "time": 285.375,
          "velocity": 1
        },
        {
          "duration": 1.7916666666666856,
          "durationTicks": 1720,
          "midi": 59,
          "name": "B3",
          "ticks": 273960,
          "time": 285.375,
          "velocity": 1
        },
        {
          "duration": 0.09166666666664014,
          "durationTicks": 88,
          "midi": 67,
          "name": "G4",
          "ticks": 273960,
          "time": 285.375,
          "velocity": 1
        },
        {
          "duration": 0.08854166666668561,
          "durationTicks": 85,
          "midi": 68,
          "name": "G#4",
          "ticks": 274080,
          "time": 285.5,
          "velocity": 1
        },
        {
          "duration": 0.2822916666666515,
          "durationTicks": 271,
          "midi": 67,
          "name": "G4",
          "ticks": 274200,
          "time": 285.625,
          "velocity": 1
        },
        {
          "duration": 0.26875000000001137,
          "durationTicks": 258,
          "midi": 65,
          "name": "F4",
          "ticks": 274440,
          "time": 285.875,
          "velocity": 1
        },
        {
          "duration": 0.30000000000001137,
          "durationTicks": 288,
          "midi": 74,
          "name": "D5",
          "ticks": 274680,
          "time": 286.125,
          "velocity": 1
        },
        {
          "duration": 0.36145833333335986,
          "durationTicks": 347,
          "midi": 75,
          "name": "D#5",
          "ticks": 275040,
          "time": 286.5,
          "velocity": 1
        },
        {
          "duration": 0.39999999999997726,
          "durationTicks": 384,
          "midi": 74,
          "name": "D5",
          "ticks": 275400,
          "time": 286.875,
          "velocity": 1
        },
        {
          "duration": 1.25,
          "durationTicks": 1200,
          "midi": 48,
          "name": "C3",
          "ticks": 275760,
          "time": 287.25,
          "velocity": 1
        },
        {
          "duration": 1.25,
          "durationTicks": 1200,
          "midi": 58,
          "name": "A#3",
          "ticks": 275760,
          "time": 287.25,
          "velocity": 1
        },
        {
          "duration": 1.25,
          "durationTicks": 1200,
          "midi": 64,
          "name": "E4",
          "ticks": 275760,
          "time": 287.25,
          "velocity": 1
        },
        {
          "duration": 0.3708333333333371,
          "durationTicks": 356,
          "midi": 69,
          "name": "A4",
          "ticks": 275760,
          "time": 287.25,
          "velocity": 1
        },
        {
          "duration": 0.33020833333335986,
          "durationTicks": 317,
          "midi": 68,
          "name": "G#4",
          "ticks": 276120,
          "time": 287.625,
          "velocity": 1
        },
        {
          "duration": 0.5500000000000114,
          "durationTicks": 528,
          "midi": 72,
          "name": "C5",
          "ticks": 276360,
          "time": 287.875,
          "velocity": 1
        },
        {
          "duration": 0.47083333333335986,
          "durationTicks": 452,
          "midi": 58,
          "name": "A#3",
          "ticks": 276960,
          "time": 288.5,
          "velocity": 1
        },
        {
          "duration": 0.47083333333335986,
          "durationTicks": 452,
          "midi": 63,
          "name": "D#4",
          "ticks": 276960,
          "time": 288.5,
          "velocity": 1
        },
        {
          "duration": 0.47083333333335986,
          "durationTicks": 452,
          "midi": 67,
          "name": "G4",
          "ticks": 276960,
          "time": 288.5,
          "velocity": 1
        },
        {
          "duration": 0.9385416666666515,
          "durationTicks": 901,
          "midi": 63,
          "name": "D#4",
          "ticks": 277440,
          "time": 289,
          "velocity": 1
        },
        {
          "duration": 0.9385416666666515,
          "durationTicks": 901,
          "midi": 66,
          "name": "F#4",
          "ticks": 277440,
          "time": 289,
          "velocity": 1
        },
        {
          "duration": 0.9385416666666515,
          "durationTicks": 901,
          "midi": 72,
          "name": "C5",
          "ticks": 277440,
          "time": 289,
          "velocity": 1
        },
        {
          "duration": 0.9302083333333258,
          "durationTicks": 893,
          "midi": 70,
          "name": "A#4",
          "ticks": 278280,
          "time": 289.875,
          "velocity": 1
        },
        {
          "duration": 0.25,
          "durationTicks": 240,
          "midi": 46,
          "name": "A#2",
          "ticks": 278640,
          "time": 290.25,
          "velocity": 1
        },
        {
          "duration": 0.25,
          "durationTicks": 240,
          "midi": 57,
          "name": "A3",
          "ticks": 278640,
          "time": 290.25,
          "velocity": 1
        },
        {
          "duration": 0.25,
          "durationTicks": 240,
          "midi": 62,
          "name": "D4",
          "ticks": 278640,
          "time": 290.25,
          "velocity": 1
        },
        {
          "duration": 0.19062500000001137,
          "durationTicks": 183,
          "midi": 48,
          "name": "C3",
          "ticks": 278880,
          "time": 290.5,
          "velocity": 1
        },
        {
          "duration": 0.19062500000001137,
          "durationTicks": 183,
          "midi": 58,
          "name": "A#3",
          "ticks": 278880,
          "time": 290.5,
          "velocity": 1
        },
        {
          "duration": 0.19062500000001137,
          "durationTicks": 183,
          "midi": 63,
          "name": "D#4",
          "ticks": 278880,
          "time": 290.5,
          "velocity": 1
        },
        {
          "duration": 0.23020833333333712,
          "durationTicks": 221,
          "midi": 50,
          "name": "D3",
          "ticks": 279120,
          "time": 290.75,
          "velocity": 1
        },
        {
          "duration": 0.23020833333333712,
          "durationTicks": 221,
          "midi": 60,
          "name": "C4",
          "ticks": 279120,
          "time": 290.75,
          "velocity": 1
        },
        {
          "duration": 0.23020833333333712,
          "durationTicks": 221,
          "midi": 65,
          "name": "F4",
          "ticks": 279120,
          "time": 290.75,
          "velocity": 1
        },
        {
          "duration": 0.40937500000001137,
          "durationTicks": 393,
          "midi": 51,
          "name": "D#3",
          "ticks": 279360,
          "time": 291,
          "velocity": 1
        },
        {
          "duration": 0.40937500000001137,
          "durationTicks": 393,
          "midi": 61,
          "name": "C#4",
          "ticks": 279360,
          "time": 291,
          "velocity": 1
        },
        {
          "duration": 0.40937500000001137,
          "durationTicks": 393,
          "midi": 66,
          "name": "F#4",
          "ticks": 279360,
          "time": 291,
          "velocity": 1
        },
        {
          "duration": 0.2802083333333485,
          "durationTicks": 269,
          "midi": 53,
          "name": "F3",
          "ticks": 279720,
          "time": 291.375,
          "velocity": 1
        },
        {
          "duration": 0.2802083333333485,
          "durationTicks": 269,
          "midi": 63,
          "name": "D#4",
          "ticks": 279720,
          "time": 291.375,
          "velocity": 1
        },
        {
          "duration": 0.2802083333333485,
          "durationTicks": 269,
          "midi": 68,
          "name": "G#4",
          "ticks": 279720,
          "time": 291.375,
          "velocity": 1
        },
        {
          "duration": 0.2822916666666515,
          "durationTicks": 271,
          "midi": 51,
          "name": "D#3",
          "ticks": 279960,
          "time": 291.625,
          "velocity": 1
        },
        {
          "duration": 0.2822916666666515,
          "durationTicks": 271,
          "midi": 61,
          "name": "C#4",
          "ticks": 279960,
          "time": 291.625,
          "velocity": 1
        },
        {
          "duration": 0.2822916666666515,
          "durationTicks": 271,
          "midi": 66,
          "name": "F#4",
          "ticks": 279960,
          "time": 291.625,
          "velocity": 1
        },
        {
          "duration": 0.3802083333333144,
          "durationTicks": 365,
          "midi": 50,
          "name": "D3",
          "ticks": 280200,
          "time": 291.875,
          "velocity": 1
        },
        {
          "duration": 0.3802083333333144,
          "durationTicks": 365,
          "midi": 60,
          "name": "C4",
          "ticks": 280200,
          "time": 291.875,
          "velocity": 1
        },
        {
          "duration": 0.3802083333333144,
          "durationTicks": 365,
          "midi": 65,
          "name": "F4",
          "ticks": 280200,
          "time": 291.875,
          "velocity": 1
        },
        {
          "duration": 0.5885416666666856,
          "durationTicks": 565,
          "midi": 49,
          "name": "C#3",
          "ticks": 280560,
          "time": 292.25,
          "velocity": 1
        },
        {
          "duration": 0.30000000000001137,
          "durationTicks": 288,
          "midi": 59,
          "name": "B3",
          "ticks": 280560,
          "time": 292.25,
          "velocity": 1
        },
        {
          "duration": 0.30000000000001137,
          "durationTicks": 288,
          "midi": 64,
          "name": "E4",
          "ticks": 280560,
          "time": 292.25,
          "velocity": 1
        },
        {
          "duration": 0.28854166666667425,
          "durationTicks": 277,
          "midi": 58,
          "name": "A#3",
          "ticks": 280800,
          "time": 292.5,
          "velocity": 1
        },
        {
          "duration": 0.28854166666667425,
          "durationTicks": 277,
          "midi": 63,
          "name": "D#4",
          "ticks": 280800,
          "time": 292.5,
          "velocity": 1
        },
        {
          "duration": 1.1114583333333599,
          "durationTicks": 1067,
          "midi": 51,
          "name": "D#3",
          "ticks": 282240,
          "time": 294,
          "velocity": 1
        },
        {
          "duration": 1.1114583333333599,
          "durationTicks": 1067,
          "midi": 60,
          "name": "C4",
          "ticks": 282240,
          "time": 294,
          "velocity": 1
        },
        {
          "duration": 1.1114583333333599,
          "durationTicks": 1067,
          "midi": 65,
          "name": "F4",
          "ticks": 282240,
          "time": 294,
          "velocity": 1
        },
        {
          "duration": 0.3802083333333144,
          "durationTicks": 365,
          "midi": 77,
          "name": "F5",
          "ticks": 282600,
          "time": 294.375,
          "velocity": 1
        },
        {
          "duration": 0.19999999999998863,
          "durationTicks": 192,
          "midi": 79,
          "name": "G5",
          "ticks": 282960,
          "time": 294.75,
          "velocity": 1
        },
        {
          "duration": 0.22083333333335986,
          "durationTicks": 212,
          "midi": 81,
          "name": "A5",
          "ticks": 283080,
          "time": 294.875,
          "velocity": 1
        },
        {
          "duration": 1.8093749999999886,
          "durationTicks": 1737,
          "midi": 50,
          "name": "D3",
          "ticks": 283320,
          "time": 295.125,
          "velocity": 1
        },
        {
          "duration": 2.3000000000000114,
          "durationTicks": 2208,
          "midi": 60,
          "name": "C4",
          "ticks": 283320,
          "time": 295.125,
          "velocity": 1
        },
        {
          "duration": 0.5093749999999773,
          "durationTicks": 489,
          "midi": 65,
          "name": "F4",
          "ticks": 283320,
          "time": 295.125,
          "velocity": 1
        },
        {
          "duration": 1.3687499999999773,
          "durationTicks": 1314,
          "midi": 82,
          "name": "A#5",
          "ticks": 283320,
          "time": 295.125,
          "velocity": 1
        },
        {
          "duration": 0.3791666666666629,
          "durationTicks": 364,
          "midi": 65,
          "name": "F4",
          "ticks": 283800,
          "time": 295.625,
          "velocity": 1
        },
        {
          "duration": 1.4114583333333144,
          "durationTicks": 1355,
          "midi": 66,
          "name": "F#4",
          "ticks": 284160,
          "time": 296,
          "velocity": 1
        },
        {
          "duration": 0.10000000000002274,
          "durationTicks": 96,
          "midi": 77,
          "name": "F5",
          "ticks": 284640,
          "time": 296.5,
          "velocity": 1
        },
        {
          "duration": 0.2614583333333371,
          "durationTicks": 251,
          "midi": 78,
          "name": "F#5",
          "ticks": 284760,
          "time": 296.625,
          "velocity": 1
        },
        {
          "duration": 0.08854166666668561,
          "durationTicks": 85,
          "midi": 81,
          "name": "A5",
          "ticks": 285000,
          "time": 296.875,
          "velocity": 1
        },
        {
          "duration": 0.3114583333333485,
          "durationTicks": 299,
          "midi": 82,
          "name": "A#5",
          "ticks": 285120,
          "time": 297,
          "velocity": 1
        },
        {
          "duration": 0.1708333333333485,
          "durationTicks": 164,
          "midi": 80,
          "name": "G#5",
          "ticks": 285360,
          "time": 297.25,
          "velocity": 1
        },
        {
          "duration": 1.7687500000000114,
          "durationTicks": 1698,
          "midi": 51,
          "name": "D#3",
          "ticks": 285600,
          "time": 297.5,
          "velocity": 1
        },
        {
          "duration": 1.25,
          "durationTicks": 1200,
          "midi": 62,
          "name": "D4",
          "ticks": 285600,
          "time": 297.5,
          "velocity": 1
        },
        {
          "duration": 1.25,
          "durationTicks": 1200,
          "midi": 67,
          "name": "G4",
          "ticks": 285600,
          "time": 297.5,
          "velocity": 1
        },
        {
          "duration": 0.36874999999997726,
          "durationTicks": 354,
          "midi": 81,
          "name": "A5",
          "ticks": 285600,
          "time": 297.5,
          "velocity": 1
        },
        {
          "duration": 0.39999999999997726,
          "durationTicks": 384,
          "midi": 79,
          "name": "G5",
          "ticks": 285960,
          "time": 297.875,
          "velocity": 1
        },
        {
          "duration": 0.7416666666666742,
          "durationTicks": 712,
          "midi": 77,
          "name": "F5",
          "ticks": 286320,
          "time": 298.25,
          "velocity": 1
        },
        {
          "duration": 0.5187500000000114,
          "durationTicks": 498,
          "midi": 61,
          "name": "C#4",
          "ticks": 286800,
          "time": 298.75,
          "velocity": 1
        },
        {
          "duration": 0.5187500000000114,
          "durationTicks": 498,
          "midi": 67,
          "name": "G4",
          "ticks": 286800,
          "time": 298.75,
          "velocity": 1
        },
        {
          "duration": 0.05000000000001137,
          "durationTicks": 48,
          "midi": 79,
          "name": "G5",
          "ticks": 287040,
          "time": 299,
          "velocity": 1
        },
        {
          "duration": 0.19999999999998863,
          "durationTicks": 192,
          "midi": 79,
          "name": "G5",
          "ticks": 287040,
          "time": 299,
          "velocity": 1
        },
        {
          "duration": 0.4322916666666856,
          "durationTicks": 415,
          "midi": 50,
          "name": "D3",
          "ticks": 287280,
          "time": 299.25,
          "velocity": 1
        },
        {
          "duration": 0.4322916666666856,
          "durationTicks": 415,
          "midi": 60,
          "name": "C4",
          "ticks": 287280,
          "time": 299.25,
          "velocity": 1
        },
        {
          "duration": 0.4322916666666856,
          "durationTicks": 415,
          "midi": 65,
          "name": "F4",
          "ticks": 287280,
          "time": 299.25,
          "velocity": 1
        },
        {
          "duration": 0.4322916666666856,
          "durationTicks": 415,
          "midi": 77,
          "name": "F5",
          "ticks": 287280,
          "time": 299.25,
          "velocity": 1
        },
        {
          "duration": 0.6000000000000227,
          "durationTicks": 576,
          "midi": 50,
          "name": "D3",
          "ticks": 287640,
          "time": 299.625,
          "velocity": 1
        },
        {
          "duration": 0.6000000000000227,
          "durationTicks": 576,
          "midi": 54,
          "name": "F#3",
          "ticks": 287640,
          "time": 299.625,
          "velocity": 1
        },
        {
          "duration": 0.6000000000000227,
          "durationTicks": 576,
          "midi": 60,
          "name": "C4",
          "ticks": 287640,
          "time": 299.625,
          "velocity": 1
        },
        {
          "duration": 0.13020833333331439,
          "durationTicks": 125,
          "midi": 72,
          "name": "C5",
          "ticks": 287640,
          "time": 299.625,
          "velocity": 1
        },
        {
          "duration": 0.47083333333335986,
          "durationTicks": 452,
          "midi": 74,
          "name": "D5",
          "ticks": 287760,
          "time": 299.75,
          "velocity": 1
        },
        {
          "duration": 2.1885416666666515,
          "durationTicks": 2101,
          "midi": 43,
          "name": "G2",
          "ticks": 288240,
          "time": 300.25,
          "velocity": 1
        },
        {
          "duration": 2.1885416666666515,
          "durationTicks": 2101,
          "midi": 53,
          "name": "F3",
          "ticks": 288240,
          "time": 300.25,
          "velocity": 1
        },
        {
          "duration": 2.1885416666666515,
          "durationTicks": 2101,
          "midi": 58,
          "name": "A#3",
          "ticks": 288240,
          "time": 300.25,
          "velocity": 1
        },
        {
          "duration": 0.8093749999999886,
          "durationTicks": 777,
          "midi": 70,
          "name": "A#4",
          "ticks": 288240,
          "time": 300.25,
          "velocity": 1
        },
        {
          "duration": 1.1000000000000227,
          "durationTicks": 1056,
          "midi": 51,
          "name": "D#3",
          "ticks": 290280,
          "time": 302.375,
          "velocity": 1
        },
        {
          "duration": 1.1000000000000227,
          "durationTicks": 1056,
          "midi": 60,
          "name": "C4",
          "ticks": 290280,
          "time": 302.375,
          "velocity": 1
        },
        {
          "duration": 0.19999999999998863,
          "durationTicks": 192,
          "midi": 67,
          "name": "G4",
          "ticks": 290280,
          "time": 302.375,
          "velocity": 1
        },
        {
          "duration": 0.19999999999998863,
          "durationTicks": 192,
          "midi": 77,
          "name": "F5",
          "ticks": 290520,
          "time": 302.625,
          "velocity": 1
        },
        {
          "duration": 0.21145833333332575,
          "durationTicks": 203,
          "midi": 65,
          "name": "F4",
          "ticks": 290760,
          "time": 302.875,
          "velocity": 1
        },
        {
          "duration": 0.23854166666666288,
          "durationTicks": 229,
          "midi": 79,
          "name": "G5",
          "ticks": 290880,
          "time": 303,
          "velocity": 1
        },
        {
          "duration": 0.25,
          "durationTicks": 240,
          "midi": 81,
          "name": "A5",
          "ticks": 291120,
          "time": 303.25,
          "velocity": 1
        },
        {
          "duration": 1.0614583333333485,
          "durationTicks": 1019,
          "midi": 50,
          "name": "D3",
          "ticks": 291360,
          "time": 303.5,
          "velocity": 1
        },
        {
          "duration": 1.0614583333333485,
          "durationTicks": 1019,
          "midi": 60,
          "name": "C4",
          "ticks": 291360,
          "time": 303.5,
          "velocity": 1
        },
        {
          "duration": 0.6114583333333599,
          "durationTicks": 587,
          "midi": 65,
          "name": "F4",
          "ticks": 291360,
          "time": 303.5,
          "velocity": 1
        },
        {
          "duration": 1.0208333333333144,
          "durationTicks": 980,
          "midi": 82,
          "name": "A#5",
          "ticks": 291360,
          "time": 303.5,
          "velocity": 1
        },
        {
          "duration": 0.44999999999998863,
          "durationTicks": 432,
          "midi": 66,
          "name": "F#4",
          "ticks": 291960,
          "time": 304.125,
          "velocity": 1
        },
        {
          "duration": 0.10000000000002274,
          "durationTicks": 96,
          "midi": 79,
          "name": "G5",
          "ticks": 292320,
          "time": 304.5,
          "velocity": 1
        },
        {
          "duration": 0.09062499999998863,
          "durationTicks": 87,
          "midi": 80,
          "name": "G#5",
          "ticks": 292440,
          "time": 304.625,
          "velocity": 1
        },
        {
          "duration": 0.13854166666664014,
          "durationTicks": 133,
          "midi": 81,
          "name": "A5",
          "ticks": 292560,
          "time": 304.75,
          "velocity": 1
        },
        {
          "duration": 1.1208333333333371,
          "durationTicks": 1076,
          "midi": 51,
          "name": "D#3",
          "ticks": 292680,
          "time": 304.875,
          "velocity": 1
        },
        {
          "duration": 0.8302083333333599,
          "durationTicks": 797,
          "midi": 62,
          "name": "D4",
          "ticks": 292680,
          "time": 304.875,
          "velocity": 1
        },
        {
          "duration": 0.8302083333333599,
          "durationTicks": 797,
          "midi": 67,
          "name": "G4",
          "ticks": 292680,
          "time": 304.875,
          "velocity": 1
        },
        {
          "duration": 0.3114583333333485,
          "durationTicks": 299,
          "midi": 81,
          "name": "A5",
          "ticks": 292680,
          "time": 304.875,
          "velocity": 1
        },
        {
          "duration": 0.8093749999999886,
          "durationTicks": 777,
          "midi": 79,
          "name": "G5",
          "ticks": 293040,
          "time": 305.25,
          "velocity": 1
        },
        {
          "duration": 0.2916666666666856,
          "durationTicks": 280,
          "midi": 61,
          "name": "C#4",
          "ticks": 293520,
          "time": 305.75,
          "velocity": 1
        },
        {
          "duration": 0.2916666666666856,
          "durationTicks": 280,
          "midi": 67,
          "name": "G4",
          "ticks": 293520,
          "time": 305.75,
          "velocity": 1
        },
        {
          "duration": 0.47083333333335986,
          "durationTicks": 452,
          "midi": 50,
          "name": "D3",
          "ticks": 293760,
          "time": 306,
          "velocity": 1
        },
        {
          "duration": 1.0791666666666515,
          "durationTicks": 1036,
          "midi": 60,
          "name": "C4",
          "ticks": 293760,
          "time": 306,
          "velocity": 1
        },
        {
          "duration": 1.0791666666666515,
          "durationTicks": 1036,
          "midi": 65,
          "name": "F4",
          "ticks": 293760,
          "time": 306,
          "velocity": 1
        },
        {
          "duration": 0.7593749999999773,
          "durationTicks": 729,
          "midi": 77,
          "name": "F5",
          "ticks": 293760,
          "time": 306,
          "velocity": 1
        },
        {
          "duration": 0.609375,
          "durationTicks": 585,
          "midi": 54,
          "name": "F#3",
          "ticks": 294240,
          "time": 306.5,
          "velocity": 1
        },
        {
          "duration": 0.13229166666667425,
          "durationTicks": 127,
          "midi": 73,
          "name": "C#5",
          "ticks": 294480,
          "time": 306.75,
          "velocity": 1
        },
        {
          "duration": 0.1885416666666515,
          "durationTicks": 181,
          "midi": 74,
          "name": "D5",
          "ticks": 294600,
          "time": 306.875,
          "velocity": 1
        },
        {
          "duration": 1.25,
          "durationTicks": 1200,
          "midi": 43,
          "name": "G2",
          "ticks": 294840,
          "time": 307.125,
          "velocity": 1
        },
        {
          "duration": 1.25,
          "durationTicks": 1200,
          "midi": 53,
          "name": "F3",
          "ticks": 294840,
          "time": 307.125,
          "velocity": 1
        },
        {
          "duration": 1.25,
          "durationTicks": 1200,
          "midi": 58,
          "name": "A#3",
          "ticks": 294840,
          "time": 307.125,
          "velocity": 1
        },
        {
          "duration": 0.11145833333335986,
          "durationTicks": 107,
          "midi": 62,
          "name": "D4",
          "ticks": 294840,
          "time": 307.125,
          "velocity": 1
        },
        {
          "duration": 0.2802083333333485,
          "durationTicks": 269,
          "midi": 72,
          "name": "C5",
          "ticks": 294840,
          "time": 307.125,
          "velocity": 1
        },
        {
          "duration": 0.10000000000002274,
          "durationTicks": 96,
          "midi": 70,
          "name": "A#4",
          "ticks": 295080,
          "time": 307.375,
          "velocity": 1
        },
        {
          "duration": 0.13020833333331439,
          "durationTicks": 125,
          "midi": 67,
          "name": "G4",
          "ticks": 295200,
          "time": 307.5,
          "velocity": 1
        },
        {
          "duration": 0.08229166666666288,
          "durationTicks": 79,
          "midi": 69,
          "name": "A4",
          "ticks": 295200,
          "time": 307.5,
          "velocity": 1
        },
        {
          "duration": 0.13020833333331439,
          "durationTicks": 125,
          "midi": 66,
          "name": "F#4",
          "ticks": 295320,
          "time": 307.625,
          "velocity": 1
        },
        {
          "duration": 0.140625,
          "durationTicks": 135,
          "midi": 69,
          "name": "A4",
          "ticks": 295440,
          "time": 307.75,
          "velocity": 1
        },
        {
          "duration": 0.23020833333333712,
          "durationTicks": 221,
          "midi": 68,
          "name": "G#4",
          "ticks": 295560,
          "time": 307.875,
          "velocity": 1
        },
        {
          "duration": 0.15937500000001137,
          "durationTicks": 153,
          "midi": 67,
          "name": "G4",
          "ticks": 295800,
          "time": 308.125,
          "velocity": 1
        },
        {
          "duration": 1.2802083333333485,
          "durationTicks": 1229,
          "midi": 48,
          "name": "C3",
          "ticks": 295920,
          "time": 308.25,
          "velocity": 1
        },
        {
          "duration": 1.2802083333333485,
          "durationTicks": 1229,
          "midi": 52,
          "name": "E3",
          "ticks": 295920,
          "time": 308.25,
          "velocity": 1
        },
        {
          "duration": 1.2802083333333485,
          "durationTicks": 1229,
          "midi": 58,
          "name": "A#3",
          "ticks": 295920,
          "time": 308.25,
          "velocity": 1
        },
        {
          "duration": 0.14999999999997726,
          "durationTicks": 144,
          "midi": 66,
          "name": "F#4",
          "ticks": 295920,
          "time": 308.25,
          "velocity": 1
        },
        {
          "duration": 0.13020833333331439,
          "durationTicks": 125,
          "midi": 62,
          "name": "D4",
          "ticks": 296160,
          "time": 308.5,
          "velocity": 1
        },
        {
          "duration": 0.13229166666667425,
          "durationTicks": 127,
          "midi": 64,
          "name": "E4",
          "ticks": 296280,
          "time": 308.625,
          "velocity": 1
        },
        {
          "duration": 0.13020833333331439,
          "durationTicks": 125,
          "midi": 62,
          "name": "D4",
          "ticks": 296400,
          "time": 308.75,
          "velocity": 1
        },
        {
          "duration": 0.3708333333333371,
          "durationTicks": 356,
          "midi": 64,
          "name": "E4",
          "ticks": 296520,
          "time": 308.875,
          "velocity": 1
        },
        {
          "duration": 1.0708333333333258,
          "durationTicks": 1028,
          "midi": 51,
          "name": "D#3",
          "ticks": 297240,
          "time": 309.625,
          "velocity": 1
        },
        {
          "duration": 1.0708333333333258,
          "durationTicks": 1028,
          "midi": 58,
          "name": "A#3",
          "ticks": 297240,
          "time": 309.625,
          "velocity": 1
        },
        {
          "duration": 0.23229166666664014,
          "durationTicks": 223,
          "midi": 63,
          "name": "D#4",
          "ticks": 297240,
          "time": 309.625,
          "velocity": 1
        },
        {
          "duration": 0.19999999999998863,
          "durationTicks": 192,
          "midi": 67,
          "name": "G4",
          "ticks": 297480,
          "time": 309.875,
          "velocity": 1
        },
        {
          "duration": 0.19999999999998863,
          "durationTicks": 192,
          "midi": 70,
          "name": "A#4",
          "ticks": 297600,
          "time": 310,
          "velocity": 1
        },
        {
          "duration": 0.21875,
          "durationTicks": 210,
          "midi": 74,
          "name": "D5",
          "ticks": 297840,
          "time": 310.25,
          "velocity": 1
        },
        {
          "duration": 0.22083333333335986,
          "durationTicks": 212,
          "midi": 77,
          "name": "F5",
          "ticks": 298080,
          "time": 310.5,
          "velocity": 1
        },
        {
          "duration": 1.0916666666666401,
          "durationTicks": 1048,
          "midi": 53,
          "name": "F3",
          "ticks": 298320,
          "time": 310.75,
          "velocity": 1
        },
        {
          "duration": 0.2802083333333485,
          "durationTicks": 269,
          "midi": 69,
          "name": "A4",
          "ticks": 298320,
          "time": 310.75,
          "velocity": 1
        },
        {
          "duration": 0.2802083333333485,
          "durationTicks": 269,
          "midi": 74,
          "name": "D5",
          "ticks": 298320,
          "time": 310.75,
          "velocity": 1
        },
        {
          "duration": 0.2802083333333485,
          "durationTicks": 269,
          "midi": 77,
          "name": "F5",
          "ticks": 298320,
          "time": 310.75,
          "velocity": 1
        },
        {
          "duration": 0.2822916666666515,
          "durationTicks": 271,
          "midi": 63,
          "name": "D#4",
          "ticks": 298560,
          "time": 311,
          "velocity": 1
        },
        {
          "duration": 0.2822916666666515,
          "durationTicks": 271,
          "midi": 67,
          "name": "G4",
          "ticks": 298560,
          "time": 311,
          "velocity": 1
        },
        {
          "duration": 0.2822916666666515,
          "durationTicks": 271,
          "midi": 72,
          "name": "C5",
          "ticks": 298560,
          "time": 311,
          "velocity": 1
        },
        {
          "duration": 0.05000000000001137,
          "durationTicks": 48,
          "midi": 65,
          "name": "F4",
          "ticks": 298800,
          "time": 311.25,
          "velocity": 1
        },
        {
          "duration": 0.25937499999997726,
          "durationTicks": 249,
          "midi": 69,
          "name": "A4",
          "ticks": 298800,
          "time": 311.25,
          "velocity": 1
        },
        {
          "duration": 0.05000000000001137,
          "durationTicks": 48,
          "midi": 74,
          "name": "D5",
          "ticks": 298800,
          "time": 311.25,
          "velocity": 1
        },
        {
          "duration": 0.2708333333333144,
          "durationTicks": 260,
          "midi": 63,
          "name": "D#4",
          "ticks": 299040,
          "time": 311.5,
          "velocity": 1
        },
        {
          "duration": 0.2708333333333144,
          "durationTicks": 260,
          "midi": 67,
          "name": "G4",
          "ticks": 299040,
          "time": 311.5,
          "velocity": 1
        },
        {
          "duration": 0.2708333333333144,
          "durationTicks": 260,
          "midi": 72,
          "name": "C5",
          "ticks": 299040,
          "time": 311.5,
          "velocity": 1
        },
        {
          "duration": 0.32083333333332575,
          "durationTicks": 308,
          "midi": 45,
          "name": "A2",
          "ticks": 299280,
          "time": 311.75,
          "velocity": 1
        },
        {
          "duration": 0.32083333333332575,
          "durationTicks": 308,
          "midi": 57,
          "name": "A3",
          "ticks": 299280,
          "time": 311.75,
          "velocity": 1
        },
        {
          "duration": 0.32083333333332575,
          "durationTicks": 308,
          "midi": 69,
          "name": "A4",
          "ticks": 299280,
          "time": 311.75,
          "velocity": 1
        },
        {
          "duration": 0.32083333333332575,
          "durationTicks": 308,
          "midi": 73,
          "name": "C#5",
          "ticks": 299280,
          "time": 311.75,
          "velocity": 1
        },
        {
          "duration": 0.36874999999997726,
          "durationTicks": 354,
          "midi": 63,
          "name": "D#4",
          "ticks": 299640,
          "time": 312.125,
          "velocity": 1
        },
        {
          "duration": 0.36874999999997726,
          "durationTicks": 354,
          "midi": 69,
          "name": "A4",
          "ticks": 299640,
          "time": 312.125,
          "velocity": 1
        },
        {
          "duration": 0.36874999999997726,
          "durationTicks": 354,
          "midi": 73,
          "name": "C#5",
          "ticks": 299640,
          "time": 312.125,
          "velocity": 1
        },
        {
          "duration": 0.36874999999997726,
          "durationTicks": 354,
          "midi": 77,
          "name": "F5",
          "ticks": 299640,
          "time": 312.125,
          "velocity": 1
        },
        {
          "duration": 0.5614583333333485,
          "durationTicks": 539,
          "midi": 57,
          "name": "A3",
          "ticks": 300000,
          "time": 312.5,
          "velocity": 1
        },
        {
          "duration": 0.5614583333333485,
          "durationTicks": 539,
          "midi": 63,
          "name": "D#4",
          "ticks": 300000,
          "time": 312.5,
          "velocity": 1
        },
        {
          "duration": 0.5614583333333485,
          "durationTicks": 539,
          "midi": 69,
          "name": "A4",
          "ticks": 300000,
          "time": 312.5,
          "velocity": 1
        },
        {
          "duration": 0.5614583333333485,
          "durationTicks": 539,
          "midi": 73,
          "name": "C#5",
          "ticks": 300000,
          "time": 312.5,
          "velocity": 1
        },
        {
          "duration": 0.5614583333333485,
          "durationTicks": 539,
          "midi": 77,
          "name": "F5",
          "ticks": 300000,
          "time": 312.5,
          "velocity": 1
        },
        {
          "duration": 0.5302083333333485,
          "durationTicks": 509,
          "midi": 46,
          "name": "A#2",
          "ticks": 300480,
          "time": 313,
          "velocity": 1
        },
        {
          "duration": 0.5302083333333485,
          "durationTicks": 509,
          "midi": 56,
          "name": "G#3",
          "ticks": 300480,
          "time": 313,
          "velocity": 1
        },
        {
          "duration": 1.1208333333333371,
          "durationTicks": 1076,
          "midi": 56,
          "name": "G#3",
          "ticks": 300960,
          "time": 313.5,
          "velocity": 1
        },
        {
          "duration": 1.1208333333333371,
          "durationTicks": 1076,
          "midi": 60,
          "name": "C4",
          "ticks": 300960,
          "time": 313.5,
          "velocity": 1
        },
        {
          "duration": 0.5208333333333144,
          "durationTicks": 500,
          "midi": 63,
          "name": "D#4",
          "ticks": 300960,
          "time": 313.5,
          "velocity": 1
        },
        {
          "duration": 0.5208333333333144,
          "durationTicks": 500,
          "midi": 67,
          "name": "G4",
          "ticks": 300960,
          "time": 313.5,
          "velocity": 1
        },
        {
          "duration": 0.5208333333333144,
          "durationTicks": 500,
          "midi": 79,
          "name": "G5",
          "ticks": 300960,
          "time": 313.5,
          "velocity": 1
        },
        {
          "duration": 0.6000000000000227,
          "durationTicks": 576,
          "midi": 65,
          "name": "F4",
          "ticks": 301440,
          "time": 314,
          "velocity": 1
        },
        {
          "duration": 0.6000000000000227,
          "durationTicks": 576,
          "midi": 77,
          "name": "F5",
          "ticks": 301440,
          "time": 314,
          "velocity": 1
        },
        {
          "duration": 0.2802083333333485,
          "durationTicks": 269,
          "midi": 46,
          "name": "A#2",
          "ticks": 302040,
          "time": 314.625,
          "velocity": 1
        },
        {
          "duration": 0.2802083333333485,
          "durationTicks": 269,
          "midi": 56,
          "name": "G#3",
          "ticks": 302040,
          "time": 314.625,
          "velocity": 1
        },
        {
          "duration": 0.2802083333333485,
          "durationTicks": 269,
          "midi": 78,
          "name": "F#5",
          "ticks": 302040,
          "time": 314.625,
          "velocity": 1
        },
        {
          "duration": 1.1302083333333144,
          "durationTicks": 1085,
          "midi": 84,
          "name": "C6",
          "ticks": 302040,
          "time": 314.625,
          "velocity": 1
        },
        {
          "duration": 0.44062500000001137,
          "durationTicks": 423,
          "midi": 62,
          "name": "D4",
          "ticks": 302280,
          "time": 314.875,
          "velocity": 1
        },
        {
          "duration": 0.44062500000001137,
          "durationTicks": 423,
          "midi": 74,
          "name": "D5",
          "ticks": 302280,
          "time": 314.875,
          "velocity": 1
        },
        {
          "duration": 0.22083333333335986,
          "durationTicks": 212,
          "midi": 48,
          "name": "C3",
          "ticks": 302880,
          "time": 315.5,
          "velocity": 1
        },
        {
          "duration": 0.19999999999998863,
          "durationTicks": 192,
          "midi": 50,
          "name": "D3",
          "ticks": 303120,
          "time": 315.75,
          "velocity": 1
        },
        {
          "duration": 0.5593749999999886,
          "durationTicks": 537,
          "midi": 77,
          "name": "F5",
          "ticks": 303120,
          "time": 315.75,
          "velocity": 1
        },
        {
          "duration": 0.5593749999999886,
          "durationTicks": 537,
          "midi": 79,
          "name": "G5",
          "ticks": 303120,
          "time": 315.75,
          "velocity": 1
        },
        {
          "duration": 0.5593749999999886,
          "durationTicks": 537,
          "midi": 82,
          "name": "A#5",
          "ticks": 303120,
          "time": 315.75,
          "velocity": 1
        },
        {
          "duration": 0.359375,
          "durationTicks": 345,
          "midi": 51,
          "name": "D#3",
          "ticks": 303360,
          "time": 316,
          "velocity": 1
        },
        {
          "duration": 0.19166666666666288,
          "durationTicks": 184,
          "midi": 40,
          "name": "E2",
          "ticks": 303720,
          "time": 316.375,
          "velocity": 1
        },
        {
          "duration": 0.5822916666666629,
          "durationTicks": 559,
          "midi": 73,
          "name": "C#5",
          "ticks": 303720,
          "time": 316.375,
          "velocity": 1
        },
        {
          "duration": 0.5822916666666629,
          "durationTicks": 559,
          "midi": 79,
          "name": "G5",
          "ticks": 303720,
          "time": 316.375,
          "velocity": 1
        },
        {
          "duration": 0.19999999999998863,
          "durationTicks": 192,
          "midi": 49,
          "name": "C#3",
          "ticks": 303840,
          "time": 316.5,
          "velocity": 1
        },
        {
          "duration": 0.19062500000001137,
          "durationTicks": 183,
          "midi": 55,
          "name": "G3",
          "ticks": 304080,
          "time": 316.75,
          "velocity": 1
        },
        {
          "duration": 0.16874999999998863,
          "durationTicks": 162,
          "midi": 58,
          "name": "A#3",
          "ticks": 304200,
          "time": 316.875,
          "velocity": 1
        },
        {
          "duration": 0.3802083333333144,
          "durationTicks": 365,
          "midi": 73,
          "name": "C#5",
          "ticks": 304200,
          "time": 316.875,
          "velocity": 1
        },
        {
          "duration": 0.3802083333333144,
          "durationTicks": 365,
          "midi": 76,
          "name": "E5",
          "ticks": 304200,
          "time": 316.875,
          "velocity": 1
        },
        {
          "duration": 0.3802083333333144,
          "durationTicks": 365,
          "midi": 82,
          "name": "A#5",
          "ticks": 304200,
          "time": 316.875,
          "velocity": 1
        },
        {
          "duration": 0.21145833333332575,
          "durationTicks": 203,
          "midi": 61,
          "name": "C#4",
          "ticks": 304440,
          "time": 317.125,
          "velocity": 1
        },
        {
          "duration": 0.4802083333333371,
          "durationTicks": 461,
          "midi": 67,
          "name": "G4",
          "ticks": 304680,
          "time": 317.375,
          "velocity": 1
        },
        {
          "duration": 0.4802083333333371,
          "durationTicks": 461,
          "midi": 72,
          "name": "C5",
          "ticks": 304680,
          "time": 317.375,
          "velocity": 1
        },
        {
          "duration": 0.109375,
          "durationTicks": 105,
          "midi": 74,
          "name": "D5",
          "ticks": 304680,
          "time": 317.375,
          "velocity": 1
        },
        {
          "duration": 0.4802083333333371,
          "durationTicks": 461,
          "midi": 77,
          "name": "F5",
          "ticks": 304680,
          "time": 317.375,
          "velocity": 1
        },
        {
          "duration": 0.18020833333332575,
          "durationTicks": 173,
          "midi": 50,
          "name": "D3",
          "ticks": 304920,
          "time": 317.625,
          "velocity": 1
        },
        {
          "duration": 0.22916666666668561,
          "durationTicks": 220,
          "midi": 42,
          "name": "F#2",
          "ticks": 305040,
          "time": 317.75,
          "velocity": 1
        },
        {
          "duration": 0.4791666666666856,
          "durationTicks": 460,
          "midi": 66,
          "name": "F#4",
          "ticks": 305040,
          "time": 317.75,
          "velocity": 1
        },
        {
          "duration": 0.4791666666666856,
          "durationTicks": 460,
          "midi": 70,
          "name": "A#4",
          "ticks": 305040,
          "time": 317.75,
          "velocity": 1
        },
        {
          "duration": 0.4791666666666856,
          "durationTicks": 460,
          "midi": 74,
          "name": "D5",
          "ticks": 305040,
          "time": 317.75,
          "velocity": 1
        },
        {
          "duration": 0.25,
          "durationTicks": 240,
          "midi": 51,
          "name": "D#3",
          "ticks": 305280,
          "time": 318,
          "velocity": 1
        },
        {
          "duration": 0.22083333333335986,
          "durationTicks": 212,
          "midi": 43,
          "name": "G2",
          "ticks": 305520,
          "time": 318.25,
          "velocity": 1
        },
        {
          "duration": 0.4208333333333485,
          "durationTicks": 404,
          "midi": 62,
          "name": "D4",
          "ticks": 305520,
          "time": 318.25,
          "velocity": 1
        },
        {
          "duration": 0.4208333333333485,
          "durationTicks": 404,
          "midi": 70,
          "name": "A#4",
          "ticks": 305520,
          "time": 318.25,
          "velocity": 1
        },
        {
          "duration": 0.42916666666667425,
          "durationTicks": 412,
          "midi": 50,
          "name": "D3",
          "ticks": 305760,
          "time": 318.5,
          "velocity": 1
        },
        {
          "duration": 0.49062500000002274,
          "durationTicks": 471,
          "midi": 57,
          "name": "A3",
          "ticks": 306000,
          "time": 318.75,
          "velocity": 1
        },
        {
          "duration": 0.49062500000002274,
          "durationTicks": 471,
          "midi": 58,
          "name": "A#3",
          "ticks": 306000,
          "time": 318.75,
          "velocity": 1
        },
        {
          "duration": 0.49062500000002274,
          "durationTicks": 471,
          "midi": 62,
          "name": "D4",
          "ticks": 306000,
          "time": 318.75,
          "velocity": 1
        },
        {
          "duration": 0.2614583333333371,
          "durationTicks": 251,
          "midi": 53,
          "name": "F3",
          "ticks": 306240,
          "time": 319,
          "velocity": 1
        },
        {
          "duration": 0.2614583333333371,
          "durationTicks": 251,
          "midi": 65,
          "name": "F4",
          "ticks": 306240,
          "time": 319,
          "velocity": 1
        },
        {
          "duration": 0.25937499999997726,
          "durationTicks": 249,
          "midi": 52,
          "name": "E3",
          "ticks": 306480,
          "time": 319.25,
          "velocity": 1
        },
        {
          "duration": 1.1000000000000227,
          "durationTicks": 1056,
          "midi": 58,
          "name": "A#3",
          "ticks": 306480,
          "time": 319.25,
          "velocity": 1
        },
        {
          "duration": 1.1000000000000227,
          "durationTicks": 1056,
          "midi": 62,
          "name": "D4",
          "ticks": 306480,
          "time": 319.25,
          "velocity": 1
        },
        {
          "duration": 0.5187500000000114,
          "durationTicks": 498,
          "midi": 66,
          "name": "F#4",
          "ticks": 306480,
          "time": 319.25,
          "velocity": 1
        },
        {
          "duration": 0.25937499999997726,
          "durationTicks": 249,
          "midi": 43,
          "name": "G2",
          "ticks": 306720,
          "time": 319.5,
          "velocity": 1
        },
        {
          "duration": 0.5822916666666629,
          "durationTicks": 559,
          "midi": 36,
          "name": "C2",
          "ticks": 306960,
          "time": 319.75,
          "velocity": 1
        },
        {
          "duration": 0.2916666666666856,
          "durationTicks": 280,
          "midi": 67,
          "name": "G4",
          "ticks": 306960,
          "time": 319.75,
          "velocity": 1
        },
        {
          "duration": 0.29062499999997726,
          "durationTicks": 279,
          "midi": 69,
          "name": "A4",
          "ticks": 307200,
          "time": 320,
          "velocity": 1
        },
        {
          "duration": 0.25,
          "durationTicks": 240,
          "midi": 49,
          "name": "C#3",
          "ticks": 307440,
          "time": 320.25,
          "velocity": 1
        },
        {
          "duration": 0.8999999999999773,
          "durationTicks": 864,
          "midi": 64,
          "name": "E4",
          "ticks": 307440,
          "time": 320.25,
          "velocity": 1
        },
        {
          "duration": 0.8999999999999773,
          "durationTicks": 864,
          "midi": 66,
          "name": "F#4",
          "ticks": 307440,
          "time": 320.25,
          "velocity": 1
        },
        {
          "duration": 0.44999999999998863,
          "durationTicks": 432,
          "midi": 70,
          "name": "A#4",
          "ticks": 307440,
          "time": 320.25,
          "velocity": 1
        },
        {
          "duration": 0.43020833333332575,
          "durationTicks": 413,
          "midi": 58,
          "name": "A#3",
          "ticks": 307680,
          "time": 320.5,
          "velocity": 1
        },
        {
          "duration": 0.44999999999998863,
          "durationTicks": 432,
          "midi": 69,
          "name": "A4",
          "ticks": 307920,
          "time": 320.75,
          "velocity": 1
        },
        {
          "duration": 0.44999999999998863,
          "durationTicks": 432,
          "midi": 72,
          "name": "C5",
          "ticks": 307920,
          "time": 320.75,
          "velocity": 1
        },
        {
          "duration": 0.22083333333335986,
          "durationTicks": 212,
          "midi": 49,
          "name": "C#3",
          "ticks": 308160,
          "time": 321,
          "velocity": 1
        },
        {
          "duration": 0.6999999999999886,
          "durationTicks": 672,
          "midi": 65,
          "name": "F4",
          "ticks": 308400,
          "time": 321.25,
          "velocity": 1
        },
        {
          "duration": 0.6999999999999886,
          "durationTicks": 672,
          "midi": 69,
          "name": "A4",
          "ticks": 308400,
          "time": 321.25,
          "velocity": 1
        },
        {
          "duration": 0.3385416666666856,
          "durationTicks": 325,
          "midi": 70,
          "name": "A#4",
          "ticks": 308400,
          "time": 321.25,
          "velocity": 1
        },
        {
          "duration": 0.6999999999999886,
          "durationTicks": 672,
          "midi": 74,
          "name": "D5",
          "ticks": 308400,
          "time": 321.25,
          "velocity": 1
        },
        {
          "duration": 0.21145833333332575,
          "durationTicks": 203,
          "midi": 50,
          "name": "D3",
          "ticks": 308640,
          "time": 321.5,
          "velocity": 1
        },
        {
          "duration": 0.25,
          "durationTicks": 240,
          "midi": 58,
          "name": "A#3",
          "ticks": 308760,
          "time": 321.625,
          "velocity": 1
        },
        {
          "duration": 0.28854166666667425,
          "durationTicks": 277,
          "midi": 62,
          "name": "D4",
          "ticks": 309000,
          "time": 321.875,
          "velocity": 1
        },
        {
          "duration": 0.28854166666667425,
          "durationTicks": 277,
          "midi": 69,
          "name": "A4",
          "ticks": 309000,
          "time": 321.875,
          "velocity": 1
        },
        {
          "duration": 0.28854166666667425,
          "durationTicks": 277,
          "midi": 79,
          "name": "G5",
          "ticks": 309000,
          "time": 321.875,
          "velocity": 1
        },
        {
          "duration": 0.25,
          "durationTicks": 240,
          "midi": 69,
          "name": "A4",
          "ticks": 309240,
          "time": 322.125,
          "velocity": 1
        },
        {
          "duration": 0.25,
          "durationTicks": 240,
          "midi": 74,
          "name": "D5",
          "ticks": 309240,
          "time": 322.125,
          "velocity": 1
        },
        {
          "duration": 0.4802083333333371,
          "durationTicks": 461,
          "midi": 77,
          "name": "F5",
          "ticks": 309240,
          "time": 322.125,
          "velocity": 1
        },
        {
          "duration": 0.21875,
          "durationTicks": 210,
          "midi": 43,
          "name": "G2",
          "ticks": 309480,
          "time": 322.375,
          "velocity": 1
        },
        {
          "duration": 0.24166666666667425,
          "durationTicks": 232,
          "midi": 65,
          "name": "F4",
          "ticks": 309720,
          "time": 322.625,
          "velocity": 1
        },
        {
          "duration": 0.6000000000000227,
          "durationTicks": 576,
          "midi": 69,
          "name": "A4",
          "ticks": 309720,
          "time": 322.625,
          "velocity": 1
        },
        {
          "duration": 0.6000000000000227,
          "durationTicks": 576,
          "midi": 74,
          "name": "D5",
          "ticks": 309720,
          "time": 322.625,
          "velocity": 1
        },
        {
          "duration": 0.359375,
          "durationTicks": 345,
          "midi": 58,
          "name": "A#3",
          "ticks": 309960,
          "time": 322.875,
          "velocity": 1
        },
        {
          "duration": 0.9593750000000227,
          "durationTicks": 921,
          "midi": 48,
          "name": "C3",
          "ticks": 310320,
          "time": 323.25,
          "velocity": 1
        },
        {
          "duration": 0.9593750000000227,
          "durationTicks": 921,
          "midi": 52,
          "name": "E3",
          "ticks": 310320,
          "time": 323.25,
          "velocity": 1
        },
        {
          "duration": 0.9593750000000227,
          "durationTicks": 921,
          "midi": 58,
          "name": "A#3",
          "ticks": 310320,
          "time": 323.25,
          "velocity": 1
        },
        {
          "duration": 0.4802083333333371,
          "durationTicks": 461,
          "midi": 69,
          "name": "A4",
          "ticks": 310320,
          "time": 323.25,
          "velocity": 1
        },
        {
          "duration": 0.4791666666666856,
          "durationTicks": 460,
          "midi": 67,
          "name": "G4",
          "ticks": 310800,
          "time": 323.75,
          "velocity": 1
        },
        {
          "duration": 0.4791666666666856,
          "durationTicks": 460,
          "midi": 70,
          "name": "A#4",
          "ticks": 310800,
          "time": 323.75,
          "velocity": 1
        },
        {
          "duration": 0.49166666666667425,
          "durationTicks": 472,
          "midi": 58,
          "name": "A#3",
          "ticks": 311280,
          "time": 324.25,
          "velocity": 1
        },
        {
          "duration": 0.49166666666667425,
          "durationTicks": 472,
          "midi": 62,
          "name": "D4",
          "ticks": 311280,
          "time": 324.25,
          "velocity": 1
        },
        {
          "duration": 0.49166666666667425,
          "durationTicks": 472,
          "midi": 63,
          "name": "D#4",
          "ticks": 311280,
          "time": 324.25,
          "velocity": 1
        },
        {
          "duration": 0.49166666666667425,
          "durationTicks": 472,
          "midi": 67,
          "name": "G4",
          "ticks": 311280,
          "time": 324.25,
          "velocity": 1
        },
        {
          "duration": 0.19166666666666288,
          "durationTicks": 184,
          "midi": 41,
          "name": "F2",
          "ticks": 311520,
          "time": 324.5,
          "velocity": 1
        },
        {
          "duration": 0.359375,
          "durationTicks": 345,
          "midi": 41,
          "name": "F2",
          "ticks": 311760,
          "time": 324.75,
          "velocity": 1
        },
        {
          "duration": 0.359375,
          "durationTicks": 345,
          "midi": 51,
          "name": "D#3",
          "ticks": 311760,
          "time": 324.75,
          "velocity": 1
        },
        {
          "duration": 0.359375,
          "durationTicks": 345,
          "midi": 57,
          "name": "A3",
          "ticks": 311760,
          "time": 324.75,
          "velocity": 1
        },
        {
          "duration": 0.359375,
          "durationTicks": 345,
          "midi": 61,
          "name": "C#4",
          "ticks": 311760,
          "time": 324.75,
          "velocity": 1
        },
        {
          "duration": 0.359375,
          "durationTicks": 345,
          "midi": 66,
          "name": "F#4",
          "ticks": 311760,
          "time": 324.75,
          "velocity": 1
        },
        {
          "duration": 0.359375,
          "durationTicks": 345,
          "midi": 69,
          "name": "A4",
          "ticks": 311760,
          "time": 324.75,
          "velocity": 1
        },
        {
          "duration": 1.1000000000000227,
          "durationTicks": 1056,
          "midi": 53,
          "name": "F3",
          "ticks": 312120,
          "time": 325.125,
          "velocity": 1
        },
        {
          "duration": 1.1000000000000227,
          "durationTicks": 1056,
          "midi": 60,
          "name": "C4",
          "ticks": 312120,
          "time": 325.125,
          "velocity": 1
        },
        {
          "duration": 1.1000000000000227,
          "durationTicks": 1056,
          "midi": 62,
          "name": "D4",
          "ticks": 312120,
          "time": 325.125,
          "velocity": 1
        },
        {
          "duration": 1.1000000000000227,
          "durationTicks": 1056,
          "midi": 67,
          "name": "G4",
          "ticks": 312120,
          "time": 325.125,
          "velocity": 1
        },
        {
          "duration": 1.1000000000000227,
          "durationTicks": 1056,
          "midi": 70,
          "name": "A#4",
          "ticks": 312120,
          "time": 325.125,
          "velocity": 1
        },
        {
          "duration": 0.4802083333333371,
          "durationTicks": 461,
          "midi": 53,
          "name": "F3",
          "ticks": 313200,
          "time": 326.25,
          "velocity": 1
        },
        {
          "duration": 0.8802083333333144,
          "durationTicks": 845,
          "midi": 56,
          "name": "G#3",
          "ticks": 313200,
          "time": 326.25,
          "velocity": 1
        },
        {
          "duration": 0.8802083333333144,
          "durationTicks": 845,
          "midi": 59,
          "name": "B3",
          "ticks": 313200,
          "time": 326.25,
          "velocity": 1
        },
        {
          "duration": 0.8802083333333144,
          "durationTicks": 845,
          "midi": 63,
          "name": "D#4",
          "ticks": 313200,
          "time": 326.25,
          "velocity": 1
        },
        {
          "duration": 0.8802083333333144,
          "durationTicks": 845,
          "midi": 65,
          "name": "F4",
          "ticks": 313200,
          "time": 326.25,
          "velocity": 1
        },
        {
          "duration": 0.8802083333333144,
          "durationTicks": 845,
          "midi": 67,
          "name": "G4",
          "ticks": 313200,
          "time": 326.25,
          "velocity": 1
        },
        {
          "duration": 0.3916666666666515,
          "durationTicks": 376,
          "midi": 41,
          "name": "F2",
          "ticks": 313680,
          "time": 326.75,
          "velocity": 1
        },
        {
          "duration": 0.6000000000000227,
          "durationTicks": 576,
          "midi": 53,
          "name": "F3",
          "ticks": 314040,
          "time": 327.125,
          "velocity": 1
        },
        {
          "duration": 0.9499999999999886,
          "durationTicks": 912,
          "midi": 58,
          "name": "A#3",
          "ticks": 314040,
          "time": 327.125,
          "velocity": 1
        },
        {
          "duration": 0.6000000000000227,
          "durationTicks": 576,
          "midi": 60,
          "name": "C4",
          "ticks": 314040,
          "time": 327.125,
          "velocity": 1
        },
        {
          "duration": 0.9499999999999886,
          "durationTicks": 912,
          "midi": 63,
          "name": "D#4",
          "ticks": 314040,
          "time": 327.125,
          "velocity": 1
        },
        {
          "duration": 0.6000000000000227,
          "durationTicks": 576,
          "midi": 65,
          "name": "F4",
          "ticks": 314040,
          "time": 327.125,
          "velocity": 1
        },
        {
          "duration": 0.9499999999999886,
          "durationTicks": 912,
          "midi": 67,
          "name": "G4",
          "ticks": 314040,
          "time": 327.125,
          "velocity": 1
        },
        {
          "duration": 0.5916666666666401,
          "durationTicks": 568,
          "midi": 53,
          "name": "F3",
          "ticks": 314880,
          "time": 328,
          "velocity": 1
        },
        {
          "duration": 0.5916666666666401,
          "durationTicks": 568,
          "midi": 57,
          "name": "A3",
          "ticks": 314880,
          "time": 328,
          "velocity": 1
        },
        {
          "duration": 0.9614583333333258,
          "durationTicks": 923,
          "midi": 61,
          "name": "C#4",
          "ticks": 314880,
          "time": 328,
          "velocity": 1
        },
        {
          "duration": 0.9614583333333258,
          "durationTicks": 923,
          "midi": 63,
          "name": "D#4",
          "ticks": 314880,
          "time": 328,
          "velocity": 1
        },
        {
          "duration": 0.9614583333333258,
          "durationTicks": 923,
          "midi": 65,
          "name": "F4",
          "ticks": 314880,
          "time": 328,
          "velocity": 1
        },
        {
          "duration": 0.9614583333333258,
          "durationTicks": 923,
          "midi": 67,
          "name": "G4",
          "ticks": 314880,
          "time": 328,
          "velocity": 1
        },
        {
          "duration": 0.3708333333333371,
          "durationTicks": 356,
          "midi": 41,
          "name": "F2",
          "ticks": 315480,
          "time": 328.625,
          "velocity": 1
        },
        {
          "duration": 1.9187499999999886,
          "durationTicks": 1842,
          "midi": 46,
          "name": "A#2",
          "ticks": 315840,
          "time": 329,
          "velocity": 1
        },
        {
          "duration": 1.0093749999999773,
          "durationTicks": 969,
          "midi": 57,
          "name": "A3",
          "ticks": 315840,
          "time": 329,
          "velocity": 1
        },
        {
          "duration": 1.9187499999999886,
          "durationTicks": 1842,
          "midi": 62,
          "name": "D4",
          "ticks": 315840,
          "time": 329,
          "velocity": 1
        },
        {
          "duration": 0.14999999999997726,
          "durationTicks": 144,
          "midi": 65,
          "name": "F4",
          "ticks": 316080,
          "time": 329.25,
          "velocity": 1
        },
        {
          "duration": 0.16874999999998863,
          "durationTicks": 162,
          "midi": 67,
          "name": "G4",
          "ticks": 316200,
          "time": 329.375,
          "velocity": 1
        },
        {
          "duration": 0.2822916666666515,
          "durationTicks": 271,
          "midi": 70,
          "name": "A#4",
          "ticks": 316440,
          "time": 329.625,
          "velocity": 1
        },
        {
          "duration": 0.109375,
          "durationTicks": 105,
          "midi": 72,
          "name": "C5",
          "ticks": 316680,
          "time": 329.875,
          "velocity": 1
        },
        {
          "duration": 0.9093750000000114,
          "durationTicks": 873,
          "midi": 55,
          "name": "G3",
          "ticks": 316800,
          "time": 330,
          "velocity": 1
        },
        {
          "duration": 0.12083333333333712,
          "durationTicks": 116,
          "midi": 73,
          "name": "C#5",
          "ticks": 316800,
          "time": 330,
          "velocity": 1
        },
        {
          "duration": 0.2708333333333144,
          "durationTicks": 260,
          "midi": 74,
          "name": "D5",
          "ticks": 316920,
          "time": 330.125,
          "velocity": 1
        },
        {
          "duration": 0.14999999999997726,
          "durationTicks": 144,
          "midi": 77,
          "name": "F5",
          "ticks": 317160,
          "time": 330.375,
          "velocity": 1
        },
        {
          "duration": 0.36874999999997726,
          "durationTicks": 354,
          "midi": 79,
          "name": "G5",
          "ticks": 317280,
          "time": 330.5,
          "velocity": 1
        },
        {
          "duration": 1.3416666666666401,
          "durationTicks": 1288,
          "midi": 53,
          "name": "F3",
          "ticks": 317640,
          "time": 330.875,
          "velocity": 1
        },
        {
          "duration": 1.3416666666666401,
          "durationTicks": 1288,
          "midi": 63,
          "name": "D#4",
          "ticks": 317640,
          "time": 330.875,
          "velocity": 1
        },
        {
          "duration": 0.8614583333333599,
          "durationTicks": 827,
          "midi": 68,
          "name": "G#4",
          "ticks": 317640,
          "time": 330.875,
          "velocity": 1
        },
        {
          "duration": 0.32083333333332575,
          "durationTicks": 308,
          "midi": 82,
          "name": "A#5",
          "ticks": 317640,
          "time": 330.875,
          "velocity": 1
        },
        {
          "duration": 0.10000000000002274,
          "durationTicks": 96,
          "midi": 78,
          "name": "F#5",
          "ticks": 318000,
          "time": 331.25,
          "velocity": 1
        },
        {
          "duration": 0.21145833333332575,
          "durationTicks": 203,
          "midi": 79,
          "name": "G5",
          "ticks": 318120,
          "time": 331.375,
          "velocity": 1
        },
        {
          "duration": 0.2802083333333485,
          "durationTicks": 269,
          "midi": 77,
          "name": "F5",
          "ticks": 318240,
          "time": 331.5,
          "velocity": 1
        },
        {
          "duration": 0.109375,
          "durationTicks": 105,
          "midi": 72,
          "name": "C5",
          "ticks": 318480,
          "time": 331.75,
          "velocity": 1
        },
        {
          "duration": 0.11145833333335986,
          "durationTicks": 107,
          "midi": 73,
          "name": "C#5",
          "ticks": 318600,
          "time": 331.875,
          "velocity": 1
        },
        {
          "duration": 0.20937500000002274,
          "durationTicks": 201,
          "midi": 74,
          "name": "D5",
          "ticks": 318720,
          "time": 332,
          "velocity": 1
        },
        {
          "duration": 0.609375,
          "durationTicks": 585,
          "midi": 46,
          "name": "A#2",
          "ticks": 318960,
          "time": 332.25,
          "velocity": 1
        },
        {
          "duration": 0.609375,
          "durationTicks": 585,
          "midi": 56,
          "name": "G#3",
          "ticks": 318960,
          "time": 332.25,
          "velocity": 1
        },
        {
          "duration": 0.609375,
          "durationTicks": 585,
          "midi": 62,
          "name": "D4",
          "ticks": 318960,
          "time": 332.25,
          "velocity": 1
        },
        {
          "duration": 0.20937500000002274,
          "durationTicks": 201,
          "midi": 72,
          "name": "C5",
          "ticks": 318960,
          "time": 332.25,
          "velocity": 1
        },
        {
          "duration": 0.11145833333335986,
          "durationTicks": 107,
          "midi": 67,
          "name": "G4",
          "ticks": 319200,
          "time": 332.5,
          "velocity": 1
        },
        {
          "duration": 0.28854166666667425,
          "durationTicks": 277,
          "midi": 70,
          "name": "A#4",
          "ticks": 319320,
          "time": 332.625,
          "velocity": 1
        },
        {
          "duration": 0.9614583333333258,
          "durationTicks": 923,
          "midi": 51,
          "name": "D#3",
          "ticks": 319560,
          "time": 332.875,
          "velocity": 1
        },
        {
          "duration": 0.9614583333333258,
          "durationTicks": 923,
          "midi": 55,
          "name": "G3",
          "ticks": 319560,
          "time": 332.875,
          "velocity": 1
        },
        {
          "duration": 0.9614583333333258,
          "durationTicks": 923,
          "midi": 62,
          "name": "D4",
          "ticks": 319560,
          "time": 332.875,
          "velocity": 1
        },
        {
          "duration": 0.12083333333333712,
          "durationTicks": 116,
          "midi": 71,
          "name": "B4",
          "ticks": 319560,
          "time": 332.875,
          "velocity": 1
        },
        {
          "duration": 0.47083333333335986,
          "durationTicks": 452,
          "midi": 72,
          "name": "C5",
          "ticks": 319680,
          "time": 333,
          "velocity": 1
        },
        {
          "duration": 0.3291666666666515,
          "durationTicks": 316,
          "midi": 70,
          "name": "A#4",
          "ticks": 320160,
          "time": 333.5,
          "velocity": 1
        },
        {
          "duration": 0.4114583333333144,
          "durationTicks": 395,
          "midi": 67,
          "name": "G4",
          "ticks": 320400,
          "time": 333.75,
          "velocity": 1
        },
        {
          "duration": 0.33020833333335986,
          "durationTicks": 317,
          "midi": 39,
          "name": "D#2",
          "ticks": 320880,
          "time": 334.25,
          "velocity": 1
        },
        {
          "duration": 0.6302083333333144,
          "durationTicks": 605,
          "midi": 50,
          "name": "D3",
          "ticks": 320880,
          "time": 334.25,
          "velocity": 1
        },
        {
          "duration": 0.6302083333333144,
          "durationTicks": 605,
          "midi": 55,
          "name": "G3",
          "ticks": 320880,
          "time": 334.25,
          "velocity": 1
        },
        {
          "duration": 1.4093750000000114,
          "durationTicks": 1353,
          "midi": 51,
          "name": "D#3",
          "ticks": 321480,
          "time": 334.875,
          "velocity": 1
        },
        {
          "duration": 1.859375,
          "durationTicks": 1785,
          "midi": 60,
          "name": "C4",
          "ticks": 321480,
          "time": 334.875,
          "velocity": 1
        },
        {
          "duration": 1.859375,
          "durationTicks": 1785,
          "midi": 66,
          "name": "F#4",
          "ticks": 321480,
          "time": 334.875,
          "velocity": 1
        },
        {
          "duration": 0.109375,
          "durationTicks": 105,
          "midi": 70,
          "name": "A#4",
          "ticks": 321720,
          "time": 335.125,
          "velocity": 1
        },
        {
          "duration": 0.11145833333335986,
          "durationTicks": 107,
          "midi": 72,
          "name": "C5",
          "ticks": 321840,
          "time": 335.25,
          "velocity": 1
        },
        {
          "duration": 0.109375,
          "durationTicks": 105,
          "midi": 74,
          "name": "D5",
          "ticks": 321960,
          "time": 335.375,
          "velocity": 1
        },
        {
          "duration": 0.11145833333335986,
          "durationTicks": 107,
          "midi": 75,
          "name": "D#5",
          "ticks": 322080,
          "time": 335.5,
          "velocity": 1
        },
        {
          "duration": 0.11874999999997726,
          "durationTicks": 114,
          "midi": 77,
          "name": "F5",
          "ticks": 322200,
          "time": 335.625,
          "velocity": 1
        },
        {
          "duration": 0.11145833333335986,
          "durationTicks": 107,
          "midi": 78,
          "name": "F#5",
          "ticks": 322320,
          "time": 335.75,
          "velocity": 1
        },
        {
          "duration": 0.10000000000002274,
          "durationTicks": 96,
          "midi": 82,
          "name": "A#5",
          "ticks": 322440,
          "time": 335.875,
          "velocity": 1
        },
        {
          "duration": 0.109375,
          "durationTicks": 105,
          "midi": 77,
          "name": "F5",
          "ticks": 322560,
          "time": 336,
          "velocity": 1
        },
        {
          "duration": 0.109375,
          "durationTicks": 105,
          "midi": 82,
          "name": "A#5",
          "ticks": 322560,
          "time": 336,
          "velocity": 1
        },
        {
          "duration": 0.12083333333333712,
          "durationTicks": 116,
          "midi": 75,
          "name": "D#5",
          "ticks": 322680,
          "time": 336.125,
          "velocity": 1
        },
        {
          "duration": 0.44999999999998863,
          "durationTicks": 432,
          "midi": 51,
          "name": "D#3",
          "ticks": 322800,
          "time": 336.25,
          "velocity": 1
        },
        {
          "duration": 0.12083333333333712,
          "durationTicks": 116,
          "midi": 72,
          "name": "C5",
          "ticks": 322800,
          "time": 336.25,
          "velocity": 1
        },
        {
          "duration": 0.109375,
          "durationTicks": 105,
          "midi": 73,
          "name": "C#5",
          "ticks": 322920,
          "time": 336.375,
          "velocity": 1
        },
        {
          "duration": 0.12083333333333712,
          "durationTicks": 116,
          "midi": 74,
          "name": "D5",
          "ticks": 323040,
          "time": 336.5,
          "velocity": 1
        },
        {
          "duration": 0.10000000000002274,
          "durationTicks": 96,
          "midi": 77,
          "name": "F5",
          "ticks": 323160,
          "time": 336.625,
          "velocity": 1
        },
        {
          "duration": 0.6802083333333258,
          "durationTicks": 653,
          "midi": 50,
          "name": "D3",
          "ticks": 323280,
          "time": 336.75,
          "velocity": 1
        },
        {
          "duration": 0.6802083333333258,
          "durationTicks": 653,
          "midi": 60,
          "name": "C4",
          "ticks": 323280,
          "time": 336.75,
          "velocity": 1
        },
        {
          "duration": 0.6802083333333258,
          "durationTicks": 653,
          "midi": 65,
          "name": "F4",
          "ticks": 323280,
          "time": 336.75,
          "velocity": 1
        },
        {
          "duration": 0.11145833333335986,
          "durationTicks": 107,
          "midi": 72,
          "name": "C5",
          "ticks": 323280,
          "time": 336.75,
          "velocity": 1
        },
        {
          "duration": 0.109375,
          "durationTicks": 105,
          "midi": 70,
          "name": "A#4",
          "ticks": 323400,
          "time": 336.875,
          "velocity": 1
        },
        {
          "duration": 0.109375,
          "durationTicks": 105,
          "midi": 69,
          "name": "A4",
          "ticks": 323520,
          "time": 337,
          "velocity": 1
        },
        {
          "duration": 0.11145833333335986,
          "durationTicks": 107,
          "midi": 70,
          "name": "A#4",
          "ticks": 323520,
          "time": 337,
          "velocity": 1
        },
        {
          "duration": 0.12083333333333712,
          "durationTicks": 116,
          "midi": 74,
          "name": "D5",
          "ticks": 323640,
          "time": 337.125,
          "velocity": 1
        },
        {
          "duration": 0.11874999999997726,
          "durationTicks": 114,
          "midi": 77,
          "name": "F5",
          "ticks": 323760,
          "time": 337.25,
          "velocity": 1
        },
        {
          "duration": 0.23229166666664014,
          "durationTicks": 223,
          "midi": 79,
          "name": "G5",
          "ticks": 323880,
          "time": 337.375,
          "velocity": 1
        },
        {
          "duration": 0.11874999999997726,
          "durationTicks": 114,
          "midi": 80,
          "name": "G#5",
          "ticks": 324120,
          "time": 337.625,
          "velocity": 1
        },
        {
          "duration": 0.18229166666668561,
          "durationTicks": 175,
          "midi": 81,
          "name": "A5",
          "ticks": 324240,
          "time": 337.75,
          "velocity": 1
        },
        {
          "duration": 0.08020833333335986,
          "durationTicks": 77,
          "midi": 79,
          "name": "G5",
          "ticks": 324360,
          "time": 337.875,
          "velocity": 1
        },
        {
          "duration": 0.109375,
          "durationTicks": 105,
          "midi": 77,
          "name": "F5",
          "ticks": 324480,
          "time": 338,
          "velocity": 1
        },
        {
          "duration": 0.1416666666666515,
          "durationTicks": 136,
          "midi": 74,
          "name": "D5",
          "ticks": 324600,
          "time": 338.125,
          "velocity": 1
        },
        {
          "duration": 0.14999999999997726,
          "durationTicks": 144,
          "midi": 70,
          "name": "A#4",
          "ticks": 324720,
          "time": 338.25,
          "velocity": 1
        },
        {
          "duration": 0.14999999999997726,
          "durationTicks": 144,
          "midi": 69,
          "name": "A4",
          "ticks": 324840,
          "time": 338.375,
          "velocity": 1
        },
        {
          "duration": 1.4385416666666515,
          "durationTicks": 1381,
          "midi": 43,
          "name": "G2",
          "ticks": 324960,
          "time": 338.5,
          "velocity": 1
        },
        {
          "duration": 1.4385416666666515,
          "durationTicks": 1381,
          "midi": 53,
          "name": "F3",
          "ticks": 324960,
          "time": 338.5,
          "velocity": 1
        },
        {
          "duration": 1.4385416666666515,
          "durationTicks": 1381,
          "midi": 58,
          "name": "A#3",
          "ticks": 324960,
          "time": 338.5,
          "velocity": 1
        },
        {
          "duration": 0.28854166666667425,
          "durationTicks": 277,
          "midi": 72,
          "name": "C5",
          "ticks": 324960,
          "time": 338.5,
          "velocity": 1
        },
        {
          "duration": 0.14999999999997726,
          "durationTicks": 144,
          "midi": 70,
          "name": "A#4",
          "ticks": 325200,
          "time": 338.75,
          "velocity": 1
        },
        {
          "duration": 0.36145833333335986,
          "durationTicks": 347,
          "midi": 69,
          "name": "A4",
          "ticks": 325320,
          "time": 338.875,
          "velocity": 1
        },
        {
          "duration": 0.13854166666664014,
          "durationTicks": 133,
          "midi": 62,
          "name": "D4",
          "ticks": 325680,
          "time": 339.25,
          "velocity": 1
        },
        {
          "duration": 0.1416666666666515,
          "durationTicks": 136,
          "midi": 66,
          "name": "F#4",
          "ticks": 325800,
          "time": 339.375,
          "velocity": 1
        },
        {
          "duration": 0.359375,
          "durationTicks": 345,
          "midi": 67,
          "name": "G4",
          "ticks": 325920,
          "time": 339.5,
          "velocity": 1
        },
        {
          "duration": 0.9614583333333258,
          "durationTicks": 923,
          "midi": 48,
          "name": "C3",
          "ticks": 326640,
          "time": 340.25,
          "velocity": 1
        },
        {
          "duration": 0.9614583333333258,
          "durationTicks": 923,
          "midi": 52,
          "name": "E3",
          "ticks": 326640,
          "time": 340.25,
          "velocity": 1
        },
        {
          "duration": 0.9614583333333258,
          "durationTicks": 923,
          "midi": 58,
          "name": "A#3",
          "ticks": 326640,
          "time": 340.25,
          "velocity": 1
        },
        {
          "duration": 0.11145833333335986,
          "durationTicks": 107,
          "midi": 70,
          "name": "A#4",
          "ticks": 326640,
          "time": 340.25,
          "velocity": 1
        },
        {
          "duration": 0.13020833333331439,
          "durationTicks": 125,
          "midi": 69,
          "name": "A4",
          "ticks": 326760,
          "time": 340.375,
          "velocity": 1
        },
        {
          "duration": 0.109375,
          "durationTicks": 105,
          "midi": 68,
          "name": "G#4",
          "ticks": 326880,
          "time": 340.5,
          "velocity": 1
        },
        {
          "duration": 0.11145833333335986,
          "durationTicks": 107,
          "midi": 67,
          "name": "G4",
          "ticks": 327000,
          "time": 340.625,
          "velocity": 1
        },
        {
          "duration": 0.109375,
          "durationTicks": 105,
          "midi": 66,
          "name": "F#4",
          "ticks": 327120,
          "time": 340.75,
          "velocity": 1
        },
        {
          "duration": 0.09062499999998863,
          "durationTicks": 87,
          "midi": 67,
          "name": "G4",
          "ticks": 327240,
          "time": 340.875,
          "velocity": 1
        },
        {
          "duration": 0.10000000000002274,
          "durationTicks": 96,
          "midi": 65,
          "name": "F4",
          "ticks": 327360,
          "time": 341,
          "velocity": 1
        },
        {
          "duration": 0.109375,
          "durationTicks": 105,
          "midi": 67,
          "name": "G4",
          "ticks": 327480,
          "time": 341.125,
          "velocity": 1
        },
        {
          "duration": 0.13020833333331439,
          "durationTicks": 125,
          "midi": 74,
          "name": "D5",
          "ticks": 327600,
          "time": 341.25,
          "velocity": 1
        },
        {
          "duration": 0.13854166666664014,
          "durationTicks": 133,
          "midi": 78,
          "name": "F#5",
          "ticks": 327720,
          "time": 341.375,
          "velocity": 1
        },
        {
          "duration": 0.16145833333331439,
          "durationTicks": 155,
          "midi": 81,
          "name": "A5",
          "ticks": 327840,
          "time": 341.5,
          "velocity": 1
        },
        {
          "duration": 0.10000000000002274,
          "durationTicks": 96,
          "midi": 80,
          "name": "G#5",
          "ticks": 327960,
          "time": 341.625,
          "velocity": 1
        },
        {
          "duration": 1.3999999999999773,
          "durationTicks": 1344,
          "midi": 48,
          "name": "C3",
          "ticks": 328080,
          "time": 341.75,
          "velocity": 1
        },
        {
          "duration": 1.3999999999999773,
          "durationTicks": 1344,
          "midi": 58,
          "name": "A#3",
          "ticks": 328080,
          "time": 341.75,
          "velocity": 1
        },
        {
          "duration": 0.23854166666666288,
          "durationTicks": 229,
          "midi": 64,
          "name": "E4",
          "ticks": 328080,
          "time": 341.75,
          "velocity": 1
        },
        {
          "duration": 0.12083333333333712,
          "durationTicks": 116,
          "midi": 79,
          "name": "G5",
          "ticks": 328080,
          "time": 341.75,
          "velocity": 1
        },
        {
          "duration": 0.21875,
          "durationTicks": 210,
          "midi": 74,
          "name": "D5",
          "ticks": 328200,
          "time": 341.875,
          "velocity": 1
        },
        {
          "duration": 0.16145833333331439,
          "durationTicks": 155,
          "midi": 70,
          "name": "A#4",
          "ticks": 328440,
          "time": 342.125,
          "velocity": 1
        },
        {
          "duration": 0.8999999999999773,
          "durationTicks": 864,
          "midi": 63,
          "name": "D#4",
          "ticks": 328560,
          "time": 342.25,
          "velocity": 1
        },
        {
          "duration": 0.14999999999997726,
          "durationTicks": 144,
          "midi": 67,
          "name": "G4",
          "ticks": 328560,
          "time": 342.25,
          "velocity": 1
        },
        {
          "duration": 0.13854166666664014,
          "durationTicks": 133,
          "midi": 77,
          "name": "F5",
          "ticks": 328680,
          "time": 342.375,
          "velocity": 1
        },
        {
          "duration": 0.1416666666666515,
          "durationTicks": 136,
          "midi": 76,
          "name": "E5",
          "ticks": 328800,
          "time": 342.5,
          "velocity": 1
        },
        {
          "duration": 0.15937500000001137,
          "durationTicks": 153,
          "midi": 75,
          "name": "D#5",
          "ticks": 328920,
          "time": 342.625,
          "velocity": 1
        },
        {
          "duration": 0.14999999999997726,
          "durationTicks": 144,
          "midi": 67,
          "name": "G4",
          "ticks": 329160,
          "time": 342.875,
          "velocity": 1
        },
        {
          "duration": 0.16145833333331439,
          "durationTicks": 155,
          "midi": 70,
          "name": "A#4",
          "ticks": 329280,
          "time": 343,
          "velocity": 1
        },
        {
          "duration": 0.7802083333333485,
          "durationTicks": 749,
          "midi": 53,
          "name": "F3",
          "ticks": 329400,
          "time": 343.125,
          "velocity": 1
        },
        {
          "duration": 0.7802083333333485,
          "durationTicks": 749,
          "midi": 57,
          "name": "A3",
          "ticks": 329400,
          "time": 343.125,
          "velocity": 1
        },
        {
          "duration": 0.7802083333333485,
          "durationTicks": 749,
          "midi": 63,
          "name": "D#4",
          "ticks": 329400,
          "time": 343.125,
          "velocity": 1
        },
        {
          "duration": 0.13020833333331439,
          "durationTicks": 125,
          "midi": 73,
          "name": "C#5",
          "ticks": 329400,
          "time": 343.125,
          "velocity": 1
        },
        {
          "duration": 0.15937500000001137,
          "durationTicks": 153,
          "midi": 74,
          "name": "D5",
          "ticks": 329520,
          "time": 343.25,
          "velocity": 1
        },
        {
          "duration": 0.16145833333331439,
          "durationTicks": 155,
          "midi": 72,
          "name": "C5",
          "ticks": 329640,
          "time": 343.375,
          "velocity": 1
        },
        {
          "duration": 0.18020833333332575,
          "durationTicks": 173,
          "midi": 69,
          "name": "A4",
          "ticks": 329880,
          "time": 343.625,
          "velocity": 1
        },
        {
          "duration": 0.14999999999997726,
          "durationTicks": 144,
          "midi": 65,
          "name": "F4",
          "ticks": 330000,
          "time": 343.75,
          "velocity": 1
        },
        {
          "duration": 0.140625,
          "durationTicks": 135,
          "midi": 49,
          "name": "C#3",
          "ticks": 330120,
          "time": 343.875,
          "velocity": 1
        },
        {
          "duration": 0.140625,
          "durationTicks": 135,
          "midi": 53,
          "name": "F3",
          "ticks": 330120,
          "time": 343.875,
          "velocity": 1
        },
        {
          "duration": 0.109375,
          "durationTicks": 105,
          "midi": 63,
          "name": "D#4",
          "ticks": 330120,
          "time": 343.875,
          "velocity": 1
        },
        {
          "duration": 0.4885416666666629,
          "durationTicks": 469,
          "midi": 46,
          "name": "A#2",
          "ticks": 330240,
          "time": 344,
          "velocity": 1
        },
        {
          "duration": 0.4885416666666629,
          "durationTicks": 469,
          "midi": 57,
          "name": "A3",
          "ticks": 330240,
          "time": 344,
          "velocity": 1
        },
        {
          "duration": 0.36874999999997726,
          "durationTicks": 354,
          "midi": 62,
          "name": "D4",
          "ticks": 330240,
          "time": 344,
          "velocity": 1
        },
        {
          "duration": 0.12083333333333712,
          "durationTicks": 116,
          "midi": 65,
          "name": "F4",
          "ticks": 330600,
          "time": 344.375,
          "velocity": 1
        },
        {
          "duration": 0.35000000000002274,
          "durationTicks": 336,
          "midi": 67,
          "name": "G4",
          "ticks": 330720,
          "time": 344.5,
          "velocity": 1
        },
        {
          "duration": 0.13020833333331439,
          "durationTicks": 125,
          "midi": 65,
          "name": "F4",
          "ticks": 331080,
          "time": 344.875,
          "velocity": 1
        },
        {
          "duration": 0.8114583333333485,
          "durationTicks": 779,
          "midi": 42,
          "name": "F#2",
          "ticks": 331200,
          "time": 345,
          "velocity": 1
        },
        {
          "duration": 0.8114583333333485,
          "durationTicks": 779,
          "midi": 52,
          "name": "E3",
          "ticks": 331200,
          "time": 345,
          "velocity": 1
        },
        {
          "duration": 0.8114583333333485,
          "durationTicks": 779,
          "midi": 58,
          "name": "A#3",
          "ticks": 331200,
          "time": 345,
          "velocity": 1
        },
        {
          "duration": 0.32083333333332575,
          "durationTicks": 308,
          "midi": 70,
          "name": "A#4",
          "ticks": 331200,
          "time": 345,
          "velocity": 1
        },
        {
          "duration": 0.10000000000002274,
          "durationTicks": 96,
          "midi": 72,
          "name": "C5",
          "ticks": 331560,
          "time": 345.375,
          "velocity": 1
        },
        {
          "duration": 0.3916666666666515,
          "durationTicks": 376,
          "midi": 73,
          "name": "C#5",
          "ticks": 331680,
          "time": 345.5,
          "velocity": 1
        },
        {
          "duration": 1.0593749999999886,
          "durationTicks": 1017,
          "midi": 41,
          "name": "F2",
          "ticks": 332040,
          "time": 345.875,
          "velocity": 1
        },
        {
          "duration": 1.0593749999999886,
          "durationTicks": 1017,
          "midi": 51,
          "name": "D#3",
          "ticks": 332040,
          "time": 345.875,
          "velocity": 1
        },
        {
          "duration": 1.0593749999999886,
          "durationTicks": 1017,
          "midi": 56,
          "name": "G#3",
          "ticks": 332040,
          "time": 345.875,
          "velocity": 1
        },
        {
          "duration": 0.23854166666666288,
          "durationTicks": 229,
          "midi": 70,
          "name": "A#4",
          "ticks": 332040,
          "time": 345.875,
          "velocity": 1
        },
        {
          "duration": 0.14999999999997726,
          "durationTicks": 144,
          "midi": 66,
          "name": "F#4",
          "ticks": 332520,
          "time": 346.375,
          "velocity": 1
        },
        {
          "duration": 0.30000000000001137,
          "durationTicks": 288,
          "midi": 67,
          "name": "G4",
          "ticks": 332640,
          "time": 346.5,
          "velocity": 1
        },
        {
          "duration": 0.12916666666666288,
          "durationTicks": 124,
          "midi": 70,
          "name": "A#4",
          "ticks": 332880,
          "time": 346.75,
          "velocity": 1
        },
        {
          "duration": 0.9499999999999886,
          "durationTicks": 912,
          "midi": 46,
          "name": "A#2",
          "ticks": 333000,
          "time": 346.875,
          "velocity": 1
        },
        {
          "duration": 0.9499999999999886,
          "durationTicks": 912,
          "midi": 50,
          "name": "D3",
          "ticks": 333000,
          "time": 346.875,
          "velocity": 1
        },
        {
          "duration": 0.9499999999999886,
          "durationTicks": 912,
          "midi": 56,
          "name": "G#3",
          "ticks": 333000,
          "time": 346.875,
          "velocity": 1
        },
        {
          "duration": 0.5302083333333485,
          "durationTicks": 509,
          "midi": 67,
          "name": "G4",
          "ticks": 333000,
          "time": 346.875,
          "velocity": 1
        },
        {
          "duration": 0.1416666666666515,
          "durationTicks": 136,
          "midi": 65,
          "name": "F4",
          "ticks": 333480,
          "time": 347.375,
          "velocity": 1
        },
        {
          "duration": 0.14999999999997726,
          "durationTicks": 144,
          "midi": 62,
          "name": "D4",
          "ticks": 333720,
          "time": 347.625,
          "velocity": 1
        },
        {
          "duration": 0.12916666666666288,
          "durationTicks": 124,
          "midi": 58,
          "name": "A#3",
          "ticks": 333840,
          "time": 347.75,
          "velocity": 1
        },
        {
          "duration": 0.9385416666666515,
          "durationTicks": 901,
          "midi": 60,
          "name": "C4",
          "ticks": 333960,
          "time": 347.875,
          "velocity": 1
        },
        {
          "duration": 0.8416666666666401,
          "durationTicks": 808,
          "midi": 39,
          "name": "D#2",
          "ticks": 334320,
          "time": 348.25,
          "velocity": 1
        },
        {
          "duration": 0.8416666666666401,
          "durationTicks": 808,
          "midi": 50,
          "name": "D3",
          "ticks": 334320,
          "time": 348.25,
          "velocity": 1
        },
        {
          "duration": 0.43020833333332575,
          "durationTicks": 413,
          "midi": 55,
          "name": "G3",
          "ticks": 334320,
          "time": 348.25,
          "velocity": 1
        },
        {
          "duration": 0.1708333333333485,
          "durationTicks": 164,
          "midi": 55,
          "name": "G3",
          "ticks": 334680,
          "time": 348.625,
          "velocity": 1
        },
        {
          "duration": 0.24166666666667425,
          "durationTicks": 232,
          "midi": 58,
          "name": "A#3",
          "ticks": 334920,
          "time": 348.875,
          "velocity": 1
        },
        {
          "duration": 0.5093749999999773,
          "durationTicks": 489,
          "midi": 58,
          "name": "A#3",
          "ticks": 335160,
          "time": 349.125,
          "velocity": 1
        },
        {
          "duration": 0.43020833333332575,
          "durationTicks": 413,
          "midi": 48,
          "name": "C3",
          "ticks": 335640,
          "time": 349.625,
          "velocity": 1
        },
        {
          "duration": 0.43020833333332575,
          "durationTicks": 413,
          "midi": 54,
          "name": "F#3",
          "ticks": 335640,
          "time": 349.625,
          "velocity": 1
        },
        {
          "duration": 1.5,
          "durationTicks": 1440,
          "midi": 51,
          "name": "D#3",
          "ticks": 336000,
          "time": 350,
          "velocity": 1
        },
        {
          "duration": 1.5,
          "durationTicks": 1440,
          "midi": 60,
          "name": "C4",
          "ticks": 336000,
          "time": 350,
          "velocity": 1
        },
        {
          "duration": 1.5,
          "durationTicks": 1440,
          "midi": 66,
          "name": "F#4",
          "ticks": 336000,
          "time": 350,
          "velocity": 1
        },
        {
          "duration": 0.1708333333333485,
          "durationTicks": 164,
          "midi": 70,
          "name": "A#4",
          "ticks": 336480,
          "time": 350.5,
          "velocity": 1
        },
        {
          "duration": 0.30937499999998863,
          "durationTicks": 297,
          "midi": 72,
          "name": "C5",
          "ticks": 336600,
          "time": 350.625,
          "velocity": 1
        },
        {
          "duration": 0.12083333333333712,
          "durationTicks": 116,
          "midi": 70,
          "name": "A#4",
          "ticks": 336960,
          "time": 351,
          "velocity": 1
        },
        {
          "duration": 0.32083333333332575,
          "durationTicks": 308,
          "midi": 73,
          "name": "C#5",
          "ticks": 337080,
          "time": 351.125,
          "velocity": 1
        },
        {
          "duration": 0.13020833333331439,
          "durationTicks": 125,
          "midi": 70,
          "name": "A#4",
          "ticks": 337320,
          "time": 351.375,
          "velocity": 1
        },
        {
          "duration": 0.47083333333335986,
          "durationTicks": 452,
          "midi": 50,
          "name": "D3",
          "ticks": 337440,
          "time": 351.5,
          "velocity": 1
        },
        {
          "duration": 0.47083333333335986,
          "durationTicks": 452,
          "midi": 60,
          "name": "C4",
          "ticks": 337440,
          "time": 351.5,
          "velocity": 1
        },
        {
          "duration": 0.35000000000002274,
          "durationTicks": 336,
          "midi": 65,
          "name": "F4",
          "ticks": 337440,
          "time": 351.5,
          "velocity": 1
        },
        {
          "duration": 0.47083333333335986,
          "durationTicks": 452,
          "midi": 74,
          "name": "D5",
          "ticks": 337440,
          "time": 351.5,
          "velocity": 1
        },
        {
          "duration": 0.12083333333333712,
          "durationTicks": 116,
          "midi": 65,
          "name": "F4",
          "ticks": 337800,
          "time": 351.875,
          "velocity": 1
        },
        {
          "duration": 0.46875,
          "durationTicks": 450,
          "midi": 44,
          "name": "G#2",
          "ticks": 337920,
          "time": 352,
          "velocity": 1
        },
        {
          "duration": 0.46875,
          "durationTicks": 450,
          "midi": 54,
          "name": "F#3",
          "ticks": 337920,
          "time": 352,
          "velocity": 1
        },
        {
          "duration": 0.46875,
          "durationTicks": 450,
          "midi": 60,
          "name": "C4",
          "ticks": 337920,
          "time": 352,
          "velocity": 1
        },
        {
          "duration": 0.30000000000001137,
          "durationTicks": 288,
          "midi": 66,
          "name": "F#4",
          "ticks": 337920,
          "time": 352,
          "velocity": 1
        },
        {
          "duration": 0.16874999999998863,
          "durationTicks": 162,
          "midi": 70,
          "name": "A#4",
          "ticks": 338160,
          "time": 352.25,
          "velocity": 1
        },
        {
          "duration": 0.7114583333333258,
          "durationTicks": 683,
          "midi": 43,
          "name": "G2",
          "ticks": 338400,
          "time": 352.5,
          "velocity": 1
        },
        {
          "duration": 0.7114583333333258,
          "durationTicks": 683,
          "midi": 53,
          "name": "F3",
          "ticks": 338400,
          "time": 352.5,
          "velocity": 1
        },
        {
          "duration": 0.7114583333333258,
          "durationTicks": 683,
          "midi": 59,
          "name": "B3",
          "ticks": 338400,
          "time": 352.5,
          "velocity": 1
        },
        {
          "duration": 0.3114583333333485,
          "durationTicks": 299,
          "midi": 68,
          "name": "G#4",
          "ticks": 338400,
          "time": 352.5,
          "velocity": 1
        },
        {
          "duration": 0.14999999999997726,
          "durationTicks": 144,
          "midi": 65,
          "name": "F4",
          "ticks": 338640,
          "time": 352.75,
          "velocity": 1
        },
        {
          "duration": 0.25,
          "durationTicks": 240,
          "midi": 75,
          "name": "D#5",
          "ticks": 338760,
          "time": 352.875,
          "velocity": 1
        },
        {
          "duration": 0.14999999999997726,
          "durationTicks": 144,
          "midi": 49,
          "name": "C#3",
          "ticks": 339000,
          "time": 353.125,
          "velocity": 1
        },
        {
          "duration": 0.14999999999997726,
          "durationTicks": 144,
          "midi": 61,
          "name": "C#4",
          "ticks": 339000,
          "time": 353.125,
          "velocity": 1
        },
        {
          "duration": 0.14999999999997726,
          "durationTicks": 144,
          "midi": 64,
          "name": "E4",
          "ticks": 339000,
          "time": 353.125,
          "velocity": 1
        },
        {
          "duration": 0.640625,
          "durationTicks": 615,
          "midi": 48,
          "name": "C3",
          "ticks": 339480,
          "time": 353.625,
          "velocity": 1
        },
        {
          "duration": 0.640625,
          "durationTicks": 615,
          "midi": 58,
          "name": "A#3",
          "ticks": 339480,
          "time": 353.625,
          "velocity": 1
        },
        {
          "duration": 0.640625,
          "durationTicks": 615,
          "midi": 64,
          "name": "E4",
          "ticks": 339480,
          "time": 353.625,
          "velocity": 1
        },
        {
          "duration": 0.140625,
          "durationTicks": 135,
          "midi": 72,
          "name": "C5",
          "ticks": 339480,
          "time": 353.625,
          "velocity": 1
        },
        {
          "duration": 0.21875,
          "durationTicks": 210,
          "midi": 74,
          "name": "D5",
          "ticks": 339600,
          "time": 353.75,
          "velocity": 1
        },
        {
          "duration": 0.2822916666666515,
          "durationTicks": 271,
          "midi": 72,
          "name": "C5",
          "ticks": 339840,
          "time": 354,
          "velocity": 1
        },
        {
          "duration": 0.3385416666666856,
          "durationTicks": 325,
          "midi": 58,
          "name": "A#3",
          "ticks": 340080,
          "time": 354.25,
          "velocity": 1
        },
        {
          "duration": 0.7802083333333485,
          "durationTicks": 749,
          "midi": 63,
          "name": "D#4",
          "ticks": 340080,
          "time": 354.25,
          "velocity": 1
        },
        {
          "duration": 0.05937499999998863,
          "durationTicks": 57,
          "midi": 67,
          "name": "G4",
          "ticks": 340080,
          "time": 354.25,
          "velocity": 1
        },
        {
          "duration": 0.3385416666666856,
          "durationTicks": 325,
          "midi": 70,
          "name": "A#4",
          "ticks": 340080,
          "time": 354.25,
          "velocity": 1
        },
        {
          "duration": 0.4416666666666629,
          "durationTicks": 424,
          "midi": 57,
          "name": "A3",
          "ticks": 340440,
          "time": 354.625,
          "velocity": 1
        },
        {
          "duration": 0.4416666666666629,
          "durationTicks": 424,
          "midi": 71,
          "name": "B4",
          "ticks": 340440,
          "time": 354.625,
          "velocity": 1
        },
        {
          "duration": 0.44999999999998863,
          "durationTicks": 432,
          "midi": 46,
          "name": "A#2",
          "ticks": 340800,
          "time": 355,
          "velocity": 1
        },
        {
          "duration": 0.44999999999998863,
          "durationTicks": 432,
          "midi": 58,
          "name": "A#3",
          "ticks": 340800,
          "time": 355,
          "velocity": 1
        },
        {
          "duration": 0.44999999999998863,
          "durationTicks": 432,
          "midi": 62,
          "name": "D4",
          "ticks": 340800,
          "time": 355,
          "velocity": 1
        },
        {
          "duration": 0.44999999999998863,
          "durationTicks": 432,
          "midi": 70,
          "name": "A#4",
          "ticks": 340800,
          "time": 355,
          "velocity": 1
        },
        {
          "duration": 1.3885416666666401,
          "durationTicks": 1333,
          "midi": 51,
          "name": "D#3",
          "ticks": 341280,
          "time": 355.5,
          "velocity": 1
        },
        {
          "duration": 1.3885416666666401,
          "durationTicks": 1333,
          "midi": 60,
          "name": "C4",
          "ticks": 341280,
          "time": 355.5,
          "velocity": 1
        },
        {
          "duration": 0.8802083333333144,
          "durationTicks": 845,
          "midi": 66,
          "name": "F#4",
          "ticks": 341280,
          "time": 355.5,
          "velocity": 1
        },
        {
          "duration": 0.12083333333333712,
          "durationTicks": 116,
          "midi": 78,
          "name": "F#5",
          "ticks": 341400,
          "time": 355.625,
          "velocity": 1
        },
        {
          "duration": 0.109375,
          "durationTicks": 105,
          "midi": 80,
          "name": "G#5",
          "ticks": 341520,
          "time": 355.75,
          "velocity": 1
        },
        {
          "duration": 0.10000000000002274,
          "durationTicks": 96,
          "midi": 77,
          "name": "F5",
          "ticks": 341640,
          "time": 355.875,
          "velocity": 1
        },
        {
          "duration": 0.109375,
          "durationTicks": 105,
          "midi": 75,
          "name": "D#5",
          "ticks": 341760,
          "time": 356,
          "velocity": 1
        },
        {
          "duration": 0.109375,
          "durationTicks": 105,
          "midi": 72,
          "name": "C5",
          "ticks": 341880,
          "time": 356.125,
          "velocity": 1
        },
        {
          "duration": 0.10000000000002274,
          "durationTicks": 96,
          "midi": 73,
          "name": "C#5",
          "ticks": 342000,
          "time": 356.25,
          "velocity": 1
        },
        {
          "duration": 0.1416666666666515,
          "durationTicks": 136,
          "midi": 74,
          "name": "D5",
          "ticks": 342120,
          "time": 356.375,
          "velocity": 1
        },
        {
          "duration": 0.10000000000002274,
          "durationTicks": 96,
          "midi": 77,
          "name": "F5",
          "ticks": 342240,
          "time": 356.5,
          "velocity": 1
        },
        {
          "duration": 0.109375,
          "durationTicks": 105,
          "midi": 71,
          "name": "B4",
          "ticks": 342360,
          "time": 356.625,
          "velocity": 1
        },
        {
          "duration": 0.10000000000002274,
          "durationTicks": 96,
          "midi": 72,
          "name": "C5",
          "ticks": 342360,
          "time": 356.625,
          "velocity": 1
        },
        {
          "duration": 0.10000000000002274,
          "durationTicks": 96,
          "midi": 70,
          "name": "A#4",
          "ticks": 342480,
          "time": 356.75,
          "velocity": 1
        },
        {
          "duration": 0.11145833333335986,
          "durationTicks": 107,
          "midi": 66,
          "name": "F#4",
          "ticks": 342600,
          "time": 356.875,
          "velocity": 1
        },
        {
          "duration": 0.08854166666668561,
          "durationTicks": 85,
          "midi": 65,
          "name": "F4",
          "ticks": 342720,
          "time": 357,
          "velocity": 1
        },
        {
          "duration": 0.11145833333335986,
          "durationTicks": 107,
          "midi": 63,
          "name": "D#4",
          "ticks": 342840,
          "time": 357.125,
          "velocity": 1
        },
        {
          "duration": 0.6385416666666401,
          "durationTicks": 613,
          "midi": 46,
          "name": "A#2",
          "ticks": 342960,
          "time": 357.25,
          "velocity": 1
        },
        {
          "duration": 0.6385416666666401,
          "durationTicks": 613,
          "midi": 53,
          "name": "F3",
          "ticks": 342960,
          "time": 357.25,
          "velocity": 1
        },
        {
          "duration": 0.10000000000002274,
          "durationTicks": 96,
          "midi": 60,
          "name": "C4",
          "ticks": 342960,
          "time": 357.25,
          "velocity": 1
        },
        {
          "duration": 0.10000000000002274,
          "durationTicks": 96,
          "midi": 61,
          "name": "C#4",
          "ticks": 342960,
          "time": 357.25,
          "velocity": 1
        },
        {
          "duration": 0.12083333333333712,
          "durationTicks": 116,
          "midi": 62,
          "name": "D4",
          "ticks": 343080,
          "time": 357.375,
          "velocity": 1
        },
        {
          "duration": 0.11874999999997726,
          "durationTicks": 114,
          "midi": 65,
          "name": "F4",
          "ticks": 343200,
          "time": 357.5,
          "velocity": 1
        },
        {
          "duration": 0.19999999999998863,
          "durationTicks": 192,
          "midi": 60,
          "name": "C4",
          "ticks": 343320,
          "time": 357.625,
          "velocity": 1
        },
        {
          "duration": 0.2614583333333371,
          "durationTicks": 251,
          "midi": 57,
          "name": "A3",
          "ticks": 343560,
          "time": 357.875,
          "velocity": 1
        },
        {
          "duration": 0.07083333333332575,
          "durationTicks": 68,
          "midi": 41,
          "name": "F2",
          "ticks": 344040,
          "time": 358.375,
          "velocity": 1
        },
        {
          "duration": 0.32083333333332575,
          "durationTicks": 308,
          "midi": 48,
          "name": "C3",
          "ticks": 344040,
          "time": 358.375,
          "velocity": 1
        },
        {
          "duration": 0.32083333333332575,
          "durationTicks": 308,
          "midi": 53,
          "name": "F3",
          "ticks": 344040,
          "time": 358.375,
          "velocity": 1
        },
        {
          "duration": 0.5093749999999773,
          "durationTicks": 489,
          "midi": 38,
          "name": "D2",
          "ticks": 344280,
          "time": 358.625,
          "velocity": 1
        },
        {
          "duration": 0.5093749999999773,
          "durationTicks": 489,
          "midi": 50,
          "name": "D3",
          "ticks": 344280,
          "time": 358.625,
          "velocity": 1
        },
        {
          "duration": 0.5093749999999773,
          "durationTicks": 489,
          "midi": 53,
          "name": "F3",
          "ticks": 344280,
          "time": 358.625,
          "velocity": 1
        },
        {
          "duration": 0.11145833333335986,
          "durationTicks": 107,
          "midi": 69,
          "name": "A4",
          "ticks": 344520,
          "time": 358.875,
          "velocity": 1
        },
        {
          "duration": 0.13020833333331439,
          "durationTicks": 125,
          "midi": 70,
          "name": "A#4",
          "ticks": 344640,
          "time": 359,
          "velocity": 1
        },
        {
          "duration": 0.3791666666666629,
          "durationTicks": 364,
          "midi": 65,
          "name": "F4",
          "ticks": 344760,
          "time": 359.125,
          "velocity": 1
        },
        {
          "duration": 0.6208333333333371,
          "durationTicks": 596,
          "midi": 54,
          "name": "F#3",
          "ticks": 345120,
          "time": 359.5,
          "velocity": 1
        },
        {
          "duration": 0.6208333333333371,
          "durationTicks": 596,
          "midi": 60,
          "name": "C4",
          "ticks": 345120,
          "time": 359.5,
          "velocity": 1
        },
        {
          "duration": 0.2708333333333144,
          "durationTicks": 260,
          "midi": 66,
          "name": "F#4",
          "ticks": 345120,
          "time": 359.5,
          "velocity": 1
        },
        {
          "duration": 0.12083333333333712,
          "durationTicks": 116,
          "midi": 70,
          "name": "A#4",
          "ticks": 345360,
          "time": 359.75,
          "velocity": 1
        },
        {
          "duration": 0.109375,
          "durationTicks": 105,
          "midi": 74,
          "name": "D5",
          "ticks": 345480,
          "time": 359.875,
          "velocity": 1
        },
        {
          "duration": 0.12083333333333712,
          "durationTicks": 116,
          "midi": 78,
          "name": "F#5",
          "ticks": 345600,
          "time": 360,
          "velocity": 1
        },
        {
          "duration": 0.9208333333333485,
          "durationTicks": 884,
          "midi": 42,
          "name": "F#2",
          "ticks": 345720,
          "time": 360.125,
          "velocity": 1
        },
        {
          "duration": 0.9208333333333485,
          "durationTicks": 884,
          "midi": 51,
          "name": "D#3",
          "ticks": 345720,
          "time": 360.125,
          "velocity": 1
        },
        {
          "duration": 0.9208333333333485,
          "durationTicks": 884,
          "midi": 57,
          "name": "A3",
          "ticks": 345720,
          "time": 360.125,
          "velocity": 1
        },
        {
          "duration": 0.30937499999998863,
          "durationTicks": 297,
          "midi": 82,
          "name": "A#5",
          "ticks": 345720,
          "time": 360.125,
          "velocity": 1
        },
        {
          "duration": 0.08229166666666288,
          "durationTicks": 79,
          "midi": 79,
          "name": "G5",
          "ticks": 346080,
          "time": 360.5,
          "velocity": 1
        },
        {
          "duration": 0.08020833333335986,
          "durationTicks": 77,
          "midi": 80,
          "name": "G#5",
          "ticks": 346080,
          "time": 360.5,
          "velocity": 1
        },
        {
          "duration": 1.8708333333333371,
          "durationTicks": 1796,
          "midi": 81,
          "name": "A5",
          "ticks": 346200,
          "time": 360.625,
          "velocity": 1
        },
        {
          "duration": 0.35000000000002274,
          "durationTicks": 336,
          "midi": 39,
          "name": "D#2",
          "ticks": 346680,
          "time": 361.125,
          "velocity": 1
        },
        {
          "duration": 0.1708333333333485,
          "durationTicks": 164,
          "midi": 50,
          "name": "D3",
          "ticks": 346680,
          "time": 361.125,
          "velocity": 1
        },
        {
          "duration": 0.1708333333333485,
          "durationTicks": 164,
          "midi": 55,
          "name": "G3",
          "ticks": 346680,
          "time": 361.125,
          "velocity": 1
        },
        {
          "duration": 0.8999999999999773,
          "durationTicks": 864,
          "midi": 39,
          "name": "D#2",
          "ticks": 347040,
          "time": 361.5,
          "velocity": 1
        },
        {
          "duration": 0.8999999999999773,
          "durationTicks": 864,
          "midi": 49,
          "name": "C#3",
          "ticks": 347040,
          "time": 361.5,
          "velocity": 1
        },
        {
          "duration": 0.30000000000001137,
          "durationTicks": 288,
          "midi": 54,
          "name": "F#3",
          "ticks": 347040,
          "time": 361.5,
          "velocity": 1
        },
        {
          "duration": 0.08854166666668561,
          "durationTicks": 85,
          "midi": 77,
          "name": "F5",
          "ticks": 347280,
          "time": 361.75,
          "velocity": 1
        },
        {
          "duration": 0.08229166666666288,
          "durationTicks": 79,
          "midi": 78,
          "name": "F#5",
          "ticks": 347400,
          "time": 361.875,
          "velocity": 1
        },
        {
          "duration": 0.10000000000002274,
          "durationTicks": 96,
          "midi": 79,
          "name": "G5",
          "ticks": 347400,
          "time": 361.875,
          "velocity": 1
        },
        {
          "duration": 0.33020833333335986,
          "durationTicks": 317,
          "midi": 77,
          "name": "F5",
          "ticks": 347520,
          "time": 362,
          "velocity": 1
        },
        {
          "duration": 0.1708333333333485,
          "durationTicks": 164,
          "midi": 79,
          "name": "G5",
          "ticks": 347880,
          "time": 362.375,
          "velocity": 1
        },
        {
          "duration": 0.44062500000001137,
          "durationTicks": 423,
          "midi": 50,
          "name": "D3",
          "ticks": 348120,
          "time": 362.625,
          "velocity": 1
        },
        {
          "duration": 0.6906250000000114,
          "durationTicks": 663,
          "midi": 60,
          "name": "C4",
          "ticks": 348120,
          "time": 362.625,
          "velocity": 1
        },
        {
          "duration": 0.44062500000001137,
          "durationTicks": 423,
          "midi": 65,
          "name": "F4",
          "ticks": 348120,
          "time": 362.625,
          "velocity": 1
        },
        {
          "duration": 0.35000000000002274,
          "durationTicks": 336,
          "midi": 77,
          "name": "F5",
          "ticks": 348120,
          "time": 362.625,
          "velocity": 1
        },
        {
          "duration": 0.25,
          "durationTicks": 240,
          "midi": 44,
          "name": "G#2",
          "ticks": 348480,
          "time": 363,
          "velocity": 1
        },
        {
          "duration": 0.25,
          "durationTicks": 240,
          "midi": 54,
          "name": "F#3",
          "ticks": 348480,
          "time": 363,
          "velocity": 1
        },
        {
          "duration": 0.09062499999998863,
          "durationTicks": 87,
          "midi": 72,
          "name": "C5",
          "ticks": 348480,
          "time": 363,
          "velocity": 1
        },
        {
          "duration": 0.11874999999997726,
          "durationTicks": 114,
          "midi": 73,
          "name": "C#5",
          "ticks": 348480,
          "time": 363,
          "velocity": 1
        },
        {
          "duration": 0.13229166666667425,
          "durationTicks": 127,
          "midi": 74,
          "name": "D5",
          "ticks": 348600,
          "time": 363.125,
          "velocity": 1
        },
        {
          "duration": 1.0593749999999886,
          "durationTicks": 1017,
          "midi": 43,
          "name": "G2",
          "ticks": 348720,
          "time": 363.25,
          "velocity": 1
        },
        {
          "duration": 1.0593749999999886,
          "durationTicks": 1017,
          "midi": 53,
          "name": "F3",
          "ticks": 348720,
          "time": 363.25,
          "velocity": 1
        },
        {
          "duration": 1.0593749999999886,
          "durationTicks": 1017,
          "midi": 58,
          "name": "A#3",
          "ticks": 348720,
          "time": 363.25,
          "velocity": 1
        },
        {
          "duration": 0.41874999999998863,
          "durationTicks": 402,
          "midi": 70,
          "name": "A#4",
          "ticks": 348720,
          "time": 363.25,
          "velocity": 1
        },
        {
          "duration": 0.6416666666666515,
          "durationTicks": 616,
          "midi": 67,
          "name": "G4",
          "ticks": 349200,
          "time": 363.75,
          "velocity": 1
        },
        {
          "duration": 0.7291666666666856,
          "durationTicks": 700,
          "midi": 48,
          "name": "C3",
          "ticks": 349800,
          "time": 364.375,
          "velocity": 1
        },
        {
          "duration": 0.7291666666666856,
          "durationTicks": 700,
          "midi": 58,
          "name": "A#3",
          "ticks": 349800,
          "time": 364.375,
          "velocity": 1
        },
        {
          "duration": 0.7291666666666856,
          "durationTicks": 700,
          "midi": 63,
          "name": "D#4",
          "ticks": 349800,
          "time": 364.375,
          "velocity": 1
        },
        {
          "duration": 0.4416666666666629,
          "durationTicks": 424,
          "midi": 53,
          "name": "F3",
          "ticks": 350520,
          "time": 365.125,
          "velocity": 1
        },
        {
          "duration": 0.4416666666666629,
          "durationTicks": 424,
          "midi": 63,
          "name": "D#4",
          "ticks": 350520,
          "time": 365.125,
          "velocity": 1
        },
        {
          "duration": 0.4416666666666629,
          "durationTicks": 424,
          "midi": 69,
          "name": "A4",
          "ticks": 350520,
          "time": 365.125,
          "velocity": 1
        },
        {
          "duration": 0.6000000000000227,
          "durationTicks": 576,
          "midi": 51,
          "name": "D#3",
          "ticks": 350880,
          "time": 365.5,
          "velocity": 1
        },
        {
          "duration": 0.6000000000000227,
          "durationTicks": 576,
          "midi": 60,
          "name": "C4",
          "ticks": 350880,
          "time": 365.5,
          "velocity": 1
        },
        {
          "duration": 0.6000000000000227,
          "durationTicks": 576,
          "midi": 65,
          "name": "F4",
          "ticks": 350880,
          "time": 365.5,
          "velocity": 1
        },
        {
          "duration": 0.140625,
          "durationTicks": 135,
          "midi": 77,
          "name": "F5",
          "ticks": 351120,
          "time": 365.75,
          "velocity": 1
        },
        {
          "duration": 0.11874999999997726,
          "durationTicks": 114,
          "midi": 79,
          "name": "G5",
          "ticks": 351240,
          "time": 365.875,
          "velocity": 1
        },
        {
          "duration": 0.16145833333331439,
          "durationTicks": 155,
          "midi": 81,
          "name": "A5",
          "ticks": 351360,
          "time": 366,
          "velocity": 1
        },
        {
          "duration": 0.44999999999998863,
          "durationTicks": 432,
          "midi": 50,
          "name": "D3",
          "ticks": 351480,
          "time": 366.125,
          "velocity": 1
        },
        {
          "duration": 2.238541666666663,
          "durationTicks": 2149,
          "midi": 60,
          "name": "C4",
          "ticks": 351480,
          "time": 366.125,
          "velocity": 1
        },
        {
          "duration": 0.44999999999998863,
          "durationTicks": 432,
          "midi": 65,
          "name": "F4",
          "ticks": 351480,
          "time": 366.125,
          "velocity": 1
        },
        {
          "duration": 0.7708333333333144,
          "durationTicks": 740,
          "midi": 82,
          "name": "A#5",
          "ticks": 351480,
          "time": 366.125,
          "velocity": 1
        },
        {
          "duration": 0.7593749999999773,
          "durationTicks": 729,
          "midi": 50,
          "name": "D3",
          "ticks": 351960,
          "time": 366.625,
          "velocity": 1
        },
        {
          "duration": 0.7593749999999773,
          "durationTicks": 729,
          "midi": 66,
          "name": "F#4",
          "ticks": 351960,
          "time": 366.625,
          "velocity": 1
        },
        {
          "duration": 0.109375,
          "durationTicks": 105,
          "midi": 85,
          "name": "C#6",
          "ticks": 352200,
          "time": 366.875,
          "velocity": 1
        },
        {
          "duration": 0.3291666666666515,
          "durationTicks": 316,
          "midi": 86,
          "name": "D6",
          "ticks": 352320,
          "time": 367,
          "velocity": 1
        },
        {
          "duration": 1.0302083333333485,
          "durationTicks": 989,
          "midi": 51,
          "name": "D#3",
          "ticks": 352680,
          "time": 367.375,
          "velocity": 1
        },
        {
          "duration": 0.8302083333333599,
          "durationTicks": 797,
          "midi": 62,
          "name": "D4",
          "ticks": 352680,
          "time": 367.375,
          "velocity": 1
        },
        {
          "duration": 1.0302083333333485,
          "durationTicks": 989,
          "midi": 67,
          "name": "G4",
          "ticks": 352680,
          "time": 367.375,
          "velocity": 1
        },
        {
          "duration": 0.4114583333333144,
          "durationTicks": 395,
          "midi": 84,
          "name": "C6",
          "ticks": 352680,
          "time": 367.375,
          "velocity": 1
        },
        {
          "duration": 0.41874999999998863,
          "durationTicks": 402,
          "midi": 82,
          "name": "A#5",
          "ticks": 353040,
          "time": 367.75,
          "velocity": 1
        },
        {
          "duration": 0.19999999999998863,
          "durationTicks": 192,
          "midi": 61,
          "name": "C#4",
          "ticks": 353400,
          "time": 368.125,
          "velocity": 1
        },
        {
          "duration": 0.19999999999998863,
          "durationTicks": 192,
          "midi": 79,
          "name": "G5",
          "ticks": 353400,
          "time": 368.125,
          "velocity": 1
        },
        {
          "duration": 0.8114583333333485,
          "durationTicks": 779,
          "midi": 50,
          "name": "D3",
          "ticks": 353640,
          "time": 368.375,
          "velocity": 1
        },
        {
          "duration": 0.8114583333333485,
          "durationTicks": 779,
          "midi": 60,
          "name": "C4",
          "ticks": 353640,
          "time": 368.375,
          "velocity": 1
        },
        {
          "duration": 0.8114583333333485,
          "durationTicks": 779,
          "midi": 65,
          "name": "F4",
          "ticks": 353640,
          "time": 368.375,
          "velocity": 1
        },
        {
          "duration": 0.4416666666666629,
          "durationTicks": 424,
          "midi": 77,
          "name": "F5",
          "ticks": 353640,
          "time": 368.375,
          "velocity": 1
        },
        {
          "duration": 0.3708333333333371,
          "durationTicks": 356,
          "midi": 74,
          "name": "D5",
          "ticks": 354000,
          "time": 368.75,
          "velocity": 1
        },
        {
          "duration": 0.43020833333332575,
          "durationTicks": 413,
          "midi": 44,
          "name": "G#2",
          "ticks": 354360,
          "time": 369.125,
          "velocity": 1
        },
        {
          "duration": 0.43020833333332575,
          "durationTicks": 413,
          "midi": 54,
          "name": "F#3",
          "ticks": 354360,
          "time": 369.125,
          "velocity": 1
        },
        {
          "duration": 0.43020833333332575,
          "durationTicks": 413,
          "midi": 60,
          "name": "C4",
          "ticks": 354360,
          "time": 369.125,
          "velocity": 1
        },
        {
          "duration": 0.43020833333332575,
          "durationTicks": 413,
          "midi": 70,
          "name": "A#4",
          "ticks": 354360,
          "time": 369.125,
          "velocity": 1
        },
        {
          "duration": 1,
          "durationTicks": 960,
          "midi": 43,
          "name": "G2",
          "ticks": 354840,
          "time": 369.625,
          "velocity": 1
        },
        {
          "duration": 1,
          "durationTicks": 960,
          "midi": 53,
          "name": "F3",
          "ticks": 354840,
          "time": 369.625,
          "velocity": 1
        },
        {
          "duration": 1,
          "durationTicks": 960,
          "midi": 58,
          "name": "A#3",
          "ticks": 354840,
          "time": 369.625,
          "velocity": 1
        },
        {
          "duration": 0.07083333333332575,
          "durationTicks": 68,
          "midi": 71,
          "name": "B4",
          "ticks": 354840,
          "time": 369.625,
          "velocity": 1
        },
        {
          "duration": 0.14999999999997726,
          "durationTicks": 144,
          "midi": 72,
          "name": "C5",
          "ticks": 354840,
          "time": 369.625,
          "velocity": 1
        },
        {
          "duration": 0.10000000000002274,
          "durationTicks": 96,
          "midi": 70,
          "name": "A#4",
          "ticks": 354960,
          "time": 369.75,
          "velocity": 1
        },
        {
          "duration": 0.13020833333331439,
          "durationTicks": 125,
          "midi": 65,
          "name": "F4",
          "ticks": 355080,
          "time": 369.875,
          "velocity": 1
        },
        {
          "duration": 0.12916666666666288,
          "durationTicks": 124,
          "midi": 62,
          "name": "D4",
          "ticks": 355200,
          "time": 370,
          "velocity": 1
        },
        {
          "duration": 0.14999999999997726,
          "durationTicks": 144,
          "midi": 69,
          "name": "A4",
          "ticks": 355320,
          "time": 370.125,
          "velocity": 1
        },
        {
          "duration": 0.1416666666666515,
          "durationTicks": 136,
          "midi": 66,
          "name": "F#4",
          "ticks": 355440,
          "time": 370.25,
          "velocity": 1
        },
        {
          "duration": 0.13020833333331439,
          "durationTicks": 125,
          "midi": 67,
          "name": "G4",
          "ticks": 355560,
          "time": 370.375,
          "velocity": 1
        },
        {
          "duration": 0.44999999999998863,
          "durationTicks": 432,
          "midi": 48,
          "name": "C3",
          "ticks": 355680,
          "time": 370.5,
          "velocity": 1
        },
        {
          "duration": 0.44999999999998863,
          "durationTicks": 432,
          "midi": 52,
          "name": "E3",
          "ticks": 355680,
          "time": 370.5,
          "velocity": 1
        },
        {
          "duration": 0.44999999999998863,
          "durationTicks": 432,
          "midi": 58,
          "name": "A#3",
          "ticks": 355680,
          "time": 370.5,
          "velocity": 1
        },
        {
          "duration": 0.14999999999997726,
          "durationTicks": 144,
          "midi": 69,
          "name": "A4",
          "ticks": 355680,
          "time": 370.5,
          "velocity": 1
        },
        {
          "duration": 0.140625,
          "durationTicks": 135,
          "midi": 70,
          "name": "A#4",
          "ticks": 355920,
          "time": 370.75,
          "velocity": 1
        },
        {
          "duration": 0.15937500000001137,
          "durationTicks": 153,
          "midi": 72,
          "name": "C5",
          "ticks": 356040,
          "time": 370.875,
          "velocity": 1
        },
        {
          "duration": 0.07083333333332575,
          "durationTicks": 68,
          "midi": 73,
          "name": "C#5",
          "ticks": 356160,
          "time": 371,
          "velocity": 1
        },
        {
          "duration": 0.30000000000001137,
          "durationTicks": 288,
          "midi": 77,
          "name": "F5",
          "ticks": 356160,
          "time": 371,
          "velocity": 1
        },
        {
          "duration": 0.23020833333333712,
          "durationTicks": 221,
          "midi": 74,
          "name": "D5",
          "ticks": 356280,
          "time": 371.125,
          "velocity": 1
        },
        {
          "duration": 0.19062500000001137,
          "durationTicks": 183,
          "midi": 73,
          "name": "C#5",
          "ticks": 356520,
          "time": 371.375,
          "velocity": 1
        },
        {
          "duration": 0.19062500000001137,
          "durationTicks": 183,
          "midi": 76,
          "name": "E5",
          "ticks": 356520,
          "time": 371.375,
          "velocity": 1
        },
        {
          "duration": 0.7802083333333485,
          "durationTicks": 749,
          "midi": 48,
          "name": "C3",
          "ticks": 356640,
          "time": 371.5,
          "velocity": 1
        },
        {
          "duration": 0.7802083333333485,
          "durationTicks": 749,
          "midi": 58,
          "name": "A#3",
          "ticks": 356640,
          "time": 371.5,
          "velocity": 1
        },
        {
          "duration": 0.25937499999997726,
          "durationTicks": 249,
          "midi": 63,
          "name": "D#4",
          "ticks": 356640,
          "time": 371.5,
          "velocity": 1
        },
        {
          "duration": 0.25937499999997726,
          "durationTicks": 249,
          "midi": 72,
          "name": "C5",
          "ticks": 356640,
          "time": 371.5,
          "velocity": 1
        },
        {
          "duration": 0.25937499999997726,
          "durationTicks": 249,
          "midi": 75,
          "name": "D#5",
          "ticks": 356640,
          "time": 371.5,
          "velocity": 1
        },
        {
          "duration": 0.19999999999998863,
          "durationTicks": 192,
          "midi": 70,
          "name": "A#4",
          "ticks": 356880,
          "time": 371.75,
          "velocity": 1
        },
        {
          "duration": 0.19999999999998863,
          "durationTicks": 192,
          "midi": 74,
          "name": "D5",
          "ticks": 356880,
          "time": 371.75,
          "velocity": 1
        },
        {
          "duration": 0.32083333333332575,
          "durationTicks": 308,
          "midi": 69,
          "name": "A4",
          "ticks": 357120,
          "time": 372,
          "velocity": 1
        },
        {
          "duration": 0.32083333333332575,
          "durationTicks": 308,
          "midi": 72,
          "name": "C5",
          "ticks": 357120,
          "time": 372,
          "velocity": 1
        },
        {
          "duration": 0.8885416666666401,
          "durationTicks": 853,
          "midi": 53,
          "name": "F3",
          "ticks": 357480,
          "time": 372.375,
          "velocity": 1
        },
        {
          "duration": 0.8885416666666401,
          "durationTicks": 853,
          "midi": 57,
          "name": "A3",
          "ticks": 357480,
          "time": 372.375,
          "velocity": 1
        },
        {
          "duration": 0.8885416666666401,
          "durationTicks": 853,
          "midi": 63,
          "name": "D#4",
          "ticks": 357480,
          "time": 372.375,
          "velocity": 1
        },
        {
          "duration": 0.32083333333332575,
          "durationTicks": 308,
          "midi": 77,
          "name": "F5",
          "ticks": 357720,
          "time": 372.625,
          "velocity": 1
        },
        {
          "duration": 0.28854166666667425,
          "durationTicks": 277,
          "midi": 77,
          "name": "F5",
          "ticks": 357960,
          "time": 372.875,
          "velocity": 1
        },
        {
          "duration": 0.9208333333333485,
          "durationTicks": 884,
          "midi": 46,
          "name": "A#2",
          "ticks": 358320,
          "time": 373.25,
          "velocity": 1
        },
        {
          "duration": 0.5822916666666629,
          "durationTicks": 559,
          "midi": 56,
          "name": "G#3",
          "ticks": 358320,
          "time": 373.25,
          "velocity": 1
        },
        {
          "duration": 0.5822916666666629,
          "durationTicks": 559,
          "midi": 63,
          "name": "D#4",
          "ticks": 358320,
          "time": 373.25,
          "velocity": 1
        },
        {
          "duration": 0.3385416666666856,
          "durationTicks": 325,
          "midi": 56,
          "name": "G#3",
          "ticks": 358800,
          "time": 373.75,
          "velocity": 1
        },
        {
          "duration": 0.3385416666666856,
          "durationTicks": 325,
          "midi": 63,
          "name": "D#4",
          "ticks": 358800,
          "time": 373.75,
          "velocity": 1
        },
        {
          "duration": 0.3385416666666856,
          "durationTicks": 325,
          "midi": 67,
          "name": "G4",
          "ticks": 358800,
          "time": 373.75,
          "velocity": 1
        },
        {
          "duration": 0.3385416666666856,
          "durationTicks": 325,
          "midi": 89,
          "name": "F6",
          "ticks": 358800,
          "time": 373.75,
          "velocity": 1
        },
        {
          "duration": 0.5708333333333258,
          "durationTicks": 548,
          "midi": 56,
          "name": "G#3",
          "ticks": 359160,
          "time": 374.125,
          "velocity": 1
        },
        {
          "duration": 0.6499999999999773,
          "durationTicks": 624,
          "midi": 62,
          "name": "D4",
          "ticks": 359160,
          "time": 374.125,
          "velocity": 1
        },
        {
          "duration": 0.6499999999999773,
          "durationTicks": 624,
          "midi": 67,
          "name": "G4",
          "ticks": 359160,
          "time": 374.125,
          "velocity": 1
        },
        {
          "duration": 0.5708333333333258,
          "durationTicks": 548,
          "midi": 86,
          "name": "D6",
          "ticks": 359160,
          "time": 374.125,
          "velocity": 1
        },
        {
          "duration": 0.5791666666666515,
          "durationTicks": 556,
          "midi": 56,
          "name": "G#3",
          "ticks": 359760,
          "time": 374.75,
          "velocity": 1
        },
        {
          "duration": 0.5791666666666515,
          "durationTicks": 556,
          "midi": 84,
          "name": "C6",
          "ticks": 359760,
          "time": 374.75,
          "velocity": 1
        },
        {
          "duration": 0.3708333333333371,
          "durationTicks": 356,
          "midi": 46,
          "name": "A#2",
          "ticks": 359880,
          "time": 374.875,
          "velocity": 1
        },
        {
          "duration": 0.7208333333333599,
          "durationTicks": 692,
          "midi": 39,
          "name": "D#2",
          "ticks": 360240,
          "time": 375.25,
          "velocity": 1
        },
        {
          "duration": 0.36145833333335986,
          "durationTicks": 347,
          "midi": 46,
          "name": "A#2",
          "ticks": 360240,
          "time": 375.25,
          "velocity": 1
        },
        {
          "duration": 0.36145833333335986,
          "durationTicks": 347,
          "midi": 84,
          "name": "C6",
          "ticks": 360240,
          "time": 375.25,
          "velocity": 1
        },
        {
          "duration": 0.359375,
          "durationTicks": 345,
          "midi": 55,
          "name": "G3",
          "ticks": 360600,
          "time": 375.625,
          "velocity": 1
        },
        {
          "duration": 0.359375,
          "durationTicks": 345,
          "midi": 82,
          "name": "A#5",
          "ticks": 360600,
          "time": 375.625,
          "velocity": 1
        },
        {
          "duration": 0.5208333333333144,
          "durationTicks": 500,
          "midi": 40,
          "name": "E2",
          "ticks": 360960,
          "time": 376,
          "velocity": 1
        },
        {
          "duration": 0.5208333333333144,
          "durationTicks": 500,
          "midi": 49,
          "name": "C#3",
          "ticks": 360960,
          "time": 376,
          "velocity": 1
        },
        {
          "duration": 0.5208333333333144,
          "durationTicks": 500,
          "midi": 79,
          "name": "G5",
          "ticks": 360960,
          "time": 376,
          "velocity": 1
        },
        {
          "duration": 0.5,
          "durationTicks": 480,
          "midi": 52,
          "name": "E3",
          "ticks": 361440,
          "time": 376.5,
          "velocity": 1
        },
        {
          "duration": 0.1885416666666515,
          "durationTicks": 181,
          "midi": 61,
          "name": "C#4",
          "ticks": 361440,
          "time": 376.5,
          "velocity": 1
        },
        {
          "duration": 0.5,
          "durationTicks": 480,
          "midi": 67,
          "name": "G4",
          "ticks": 361440,
          "time": 376.5,
          "velocity": 1
        },
        {
          "duration": 0.1885416666666515,
          "durationTicks": 181,
          "midi": 82,
          "name": "A#5",
          "ticks": 361440,
          "time": 376.5,
          "velocity": 1
        },
        {
          "duration": 0.3114583333333485,
          "durationTicks": 299,
          "midi": 58,
          "name": "A#3",
          "ticks": 361680,
          "time": 376.75,
          "velocity": 1
        },
        {
          "duration": 0.3114583333333485,
          "durationTicks": 299,
          "midi": 84,
          "name": "C6",
          "ticks": 361680,
          "time": 376.75,
          "velocity": 1
        },
        {
          "duration": 0.38854166666664014,
          "durationTicks": 373,
          "midi": 50,
          "name": "D3",
          "ticks": 361920,
          "time": 377,
          "velocity": 1
        },
        {
          "duration": 0.38854166666664014,
          "durationTicks": 373,
          "midi": 60,
          "name": "C4",
          "ticks": 361920,
          "time": 377,
          "velocity": 1
        },
        {
          "duration": 0.38854166666664014,
          "durationTicks": 373,
          "midi": 65,
          "name": "F4",
          "ticks": 361920,
          "time": 377,
          "velocity": 1
        },
        {
          "duration": 0.38854166666664014,
          "durationTicks": 373,
          "midi": 77,
          "name": "F5",
          "ticks": 361920,
          "time": 377,
          "velocity": 1
        },
        {
          "duration": 0.47083333333335986,
          "durationTicks": 452,
          "midi": 54,
          "name": "F#3",
          "ticks": 362280,
          "time": 377.375,
          "velocity": 1
        },
        {
          "duration": 0.47083333333335986,
          "durationTicks": 452,
          "midi": 60,
          "name": "C4",
          "ticks": 362280,
          "time": 377.375,
          "velocity": 1
        },
        {
          "duration": 0.47083333333335986,
          "durationTicks": 452,
          "midi": 73,
          "name": "C#5",
          "ticks": 362280,
          "time": 377.375,
          "velocity": 1
        },
        {
          "duration": 0.5208333333333144,
          "durationTicks": 500,
          "midi": 43,
          "name": "G2",
          "ticks": 362760,
          "time": 377.875,
          "velocity": 1
        },
        {
          "duration": 0.5208333333333144,
          "durationTicks": 500,
          "midi": 53,
          "name": "F3",
          "ticks": 362760,
          "time": 377.875,
          "velocity": 1
        },
        {
          "duration": 0.5208333333333144,
          "durationTicks": 500,
          "midi": 58,
          "name": "A#3",
          "ticks": 362760,
          "time": 377.875,
          "velocity": 1
        },
        {
          "duration": 0.09166666666664014,
          "durationTicks": 88,
          "midi": 70,
          "name": "A#4",
          "ticks": 362760,
          "time": 377.875,
          "velocity": 1
        },
        {
          "duration": 0.12083333333333712,
          "durationTicks": 116,
          "midi": 72,
          "name": "C5",
          "ticks": 362880,
          "time": 378,
          "velocity": 1
        },
        {
          "duration": 0.10000000000002274,
          "durationTicks": 96,
          "midi": 70,
          "name": "A#4",
          "ticks": 363000,
          "time": 378.125,
          "velocity": 1
        },
        {
          "duration": 0.10000000000002274,
          "durationTicks": 96,
          "midi": 69,
          "name": "A4",
          "ticks": 363120,
          "time": 378.25,
          "velocity": 1
        },
        {
          "duration": 0.109375,
          "durationTicks": 105,
          "midi": 66,
          "name": "F#4",
          "ticks": 363240,
          "time": 378.375,
          "velocity": 1
        },
        {
          "duration": 0.109375,
          "durationTicks": 105,
          "midi": 67,
          "name": "G4",
          "ticks": 363240,
          "time": 378.375,
          "velocity": 1
        },
        {
          "duration": 0.12083333333333712,
          "durationTicks": 116,
          "midi": 67,
          "name": "G4",
          "ticks": 363360,
          "time": 378.5,
          "velocity": 1
        },
        {
          "duration": 0.12083333333333712,
          "durationTicks": 116,
          "midi": 69,
          "name": "A4",
          "ticks": 363480,
          "time": 378.625,
          "velocity": 1
        },
        {
          "duration": 0.12083333333333712,
          "durationTicks": 116,
          "midi": 70,
          "name": "A#4",
          "ticks": 363600,
          "time": 378.75,
          "velocity": 1
        },
        {
          "duration": 0.109375,
          "durationTicks": 105,
          "midi": 73,
          "name": "C#5",
          "ticks": 363840,
          "time": 379,
          "velocity": 1
        },
        {
          "duration": 0.11145833333335986,
          "durationTicks": 107,
          "midi": 75,
          "name": "D#5",
          "ticks": 363960,
          "time": 379.125,
          "velocity": 1
        },
        {
          "duration": 1.3687499999999773,
          "durationTicks": 1314,
          "midi": 49,
          "name": "C#3",
          "ticks": 364080,
          "time": 379.25,
          "velocity": 1
        },
        {
          "duration": 1.3687499999999773,
          "durationTicks": 1314,
          "midi": 58,
          "name": "A#3",
          "ticks": 364080,
          "time": 379.25,
          "velocity": 1
        },
        {
          "duration": 1.3687499999999773,
          "durationTicks": 1314,
          "midi": 64,
          "name": "E4",
          "ticks": 364080,
          "time": 379.25,
          "velocity": 1
        },
        {
          "duration": 0.10000000000002274,
          "durationTicks": 96,
          "midi": 76,
          "name": "E5",
          "ticks": 364080,
          "time": 379.25,
          "velocity": 1
        },
        {
          "duration": 0.10000000000002274,
          "durationTicks": 96,
          "midi": 78,
          "name": "F#5",
          "ticks": 364200,
          "time": 379.375,
          "velocity": 1
        },
        {
          "duration": 0.109375,
          "durationTicks": 105,
          "midi": 79,
          "name": "G5",
          "ticks": 364200,
          "time": 379.375,
          "velocity": 1
        },
        {
          "duration": 0.109375,
          "durationTicks": 105,
          "midi": 81,
          "name": "A5",
          "ticks": 364320,
          "time": 379.5,
          "velocity": 1
        },
        {
          "duration": 0.12083333333333712,
          "durationTicks": 116,
          "midi": 82,
          "name": "A#5",
          "ticks": 364440,
          "time": 379.625,
          "velocity": 1
        },
        {
          "duration": 0.11145833333335986,
          "durationTicks": 107,
          "midi": 84,
          "name": "C6",
          "ticks": 364560,
          "time": 379.75,
          "velocity": 1
        },
        {
          "duration": 0.13854166666664014,
          "durationTicks": 133,
          "midi": 85,
          "name": "C#6",
          "ticks": 364680,
          "time": 379.875,
          "velocity": 1
        },
        {
          "duration": 0.13020833333331439,
          "durationTicks": 125,
          "midi": 82,
          "name": "A#5",
          "ticks": 364800,
          "time": 380,
          "velocity": 1
        },
        {
          "duration": 0.12083333333333712,
          "durationTicks": 116,
          "midi": 81,
          "name": "A5",
          "ticks": 364920,
          "time": 380.125,
          "velocity": 1
        },
        {
          "duration": 0.11145833333335986,
          "durationTicks": 107,
          "midi": 79,
          "name": "G5",
          "ticks": 365040,
          "time": 380.25,
          "velocity": 1
        },
        {
          "duration": 0.11874999999997726,
          "durationTicks": 114,
          "midi": 78,
          "name": "F#5",
          "ticks": 365160,
          "time": 380.375,
          "velocity": 1
        },
        {
          "duration": 0.10000000000002274,
          "durationTicks": 96,
          "midi": 76,
          "name": "E5",
          "ticks": 365280,
          "time": 380.5,
          "velocity": 1
        },
        {
          "duration": 0.5916666666666401,
          "durationTicks": 568,
          "midi": 50,
          "name": "D3",
          "ticks": 365400,
          "time": 380.625,
          "velocity": 1
        },
        {
          "duration": 0.5916666666666401,
          "durationTicks": 568,
          "midi": 60,
          "name": "C4",
          "ticks": 365400,
          "time": 380.625,
          "velocity": 1
        },
        {
          "duration": 0.5916666666666401,
          "durationTicks": 568,
          "midi": 65,
          "name": "F4",
          "ticks": 365400,
          "time": 380.625,
          "velocity": 1
        },
        {
          "duration": 0.36145833333335986,
          "durationTicks": 347,
          "midi": 77,
          "name": "F5",
          "ticks": 365400,
          "time": 380.625,
          "velocity": 1
        },
        {
          "duration": 0.08020833333335986,
          "durationTicks": 77,
          "midi": 77,
          "name": "F5",
          "ticks": 365760,
          "time": 381,
          "velocity": 1
        },
        {
          "duration": 0.08020833333335986,
          "durationTicks": 77,
          "midi": 78,
          "name": "F#5",
          "ticks": 365880,
          "time": 381.125,
          "velocity": 1
        },
        {
          "duration": 0.20937500000002274,
          "durationTicks": 201,
          "midi": 79,
          "name": "G5",
          "ticks": 365880,
          "time": 381.125,
          "velocity": 1
        },
        {
          "duration": 0.11145833333335986,
          "durationTicks": 107,
          "midi": 77,
          "name": "F5",
          "ticks": 366120,
          "time": 381.375,
          "velocity": 1
        },
        {
          "duration": 0.10000000000002274,
          "durationTicks": 96,
          "midi": 73,
          "name": "C#5",
          "ticks": 366240,
          "time": 381.5,
          "velocity": 1
        },
        {
          "duration": 0.22083333333335986,
          "durationTicks": 212,
          "midi": 74,
          "name": "D5",
          "ticks": 366360,
          "time": 381.625,
          "velocity": 1
        },
        {
          "duration": 0.9406250000000114,
          "durationTicks": 903,
          "midi": 43,
          "name": "G2",
          "ticks": 366600,
          "time": 381.875,
          "velocity": 1
        },
        {
          "duration": 0.9406250000000114,
          "durationTicks": 903,
          "midi": 53,
          "name": "F3",
          "ticks": 366600,
          "time": 381.875,
          "velocity": 1
        },
        {
          "duration": 0.9406250000000114,
          "durationTicks": 903,
          "midi": 58,
          "name": "A#3",
          "ticks": 366600,
          "time": 381.875,
          "velocity": 1
        },
        {
          "duration": 0.9406250000000114,
          "durationTicks": 903,
          "midi": 62,
          "name": "D4",
          "ticks": 366600,
          "time": 381.875,
          "velocity": 1
        },
        {
          "duration": 0.9885416666666629,
          "durationTicks": 949,
          "midi": 48,
          "name": "C3",
          "ticks": 367440,
          "time": 382.75,
          "velocity": 1
        },
        {
          "duration": 0.9885416666666629,
          "durationTicks": 949,
          "midi": 58,
          "name": "A#3",
          "ticks": 367440,
          "time": 382.75,
          "velocity": 1
        },
        {
          "duration": 0.9885416666666629,
          "durationTicks": 949,
          "midi": 64,
          "name": "E4",
          "ticks": 367440,
          "time": 382.75,
          "velocity": 1
        },
        {
          "duration": 0.08020833333335986,
          "durationTicks": 77,
          "midi": 72,
          "name": "C5",
          "ticks": 367800,
          "time": 383.125,
          "velocity": 1
        },
        {
          "duration": 0.09062499999998863,
          "durationTicks": 87,
          "midi": 73,
          "name": "C#5",
          "ticks": 367920,
          "time": 383.25,
          "velocity": 1
        },
        {
          "duration": 0.1885416666666515,
          "durationTicks": 181,
          "midi": 74,
          "name": "D5",
          "ticks": 367920,
          "time": 383.25,
          "velocity": 1
        },
        {
          "duration": 0.13020833333331439,
          "durationTicks": 125,
          "midi": 72,
          "name": "C5",
          "ticks": 368160,
          "time": 383.5,
          "velocity": 1
        },
        {
          "duration": 0.12083333333333712,
          "durationTicks": 116,
          "midi": 67,
          "name": "G4",
          "ticks": 368280,
          "time": 383.625,
          "velocity": 1
        },
        {
          "duration": 0.46145833333332575,
          "durationTicks": 443,
          "midi": 53,
          "name": "F3",
          "ticks": 368400,
          "time": 383.75,
          "velocity": 1
        },
        {
          "duration": 0.46145833333332575,
          "durationTicks": 443,
          "midi": 57,
          "name": "A3",
          "ticks": 368400,
          "time": 383.75,
          "velocity": 1
        },
        {
          "duration": 0.46145833333332575,
          "durationTicks": 443,
          "midi": 63,
          "name": "D#4",
          "ticks": 368400,
          "time": 383.75,
          "velocity": 1
        },
        {
          "duration": 0.3114583333333485,
          "durationTicks": 299,
          "midi": 70,
          "name": "A#4",
          "ticks": 368400,
          "time": 383.75,
          "velocity": 1
        },
        {
          "duration": 0.14999999999997726,
          "durationTicks": 144,
          "midi": 72,
          "name": "C5",
          "ticks": 368640,
          "time": 384,
          "velocity": 1
        },
        {
          "duration": 0.7385416666666629,
          "durationTicks": 709,
          "midi": 46,
          "name": "A#2",
          "ticks": 368760,
          "time": 384.125,
          "velocity": 1
        },
        {
          "duration": 0.7385416666666629,
          "durationTicks": 709,
          "midi": 57,
          "name": "A3",
          "ticks": 368760,
          "time": 384.125,
          "velocity": 1
        },
        {
          "duration": 0.7385416666666629,
          "durationTicks": 709,
          "midi": 62,
          "name": "D4",
          "ticks": 368760,
          "time": 384.125,
          "velocity": 1
        },
        {
          "duration": 0.33020833333335986,
          "durationTicks": 317,
          "midi": 70,
          "name": "A#4",
          "ticks": 368760,
          "time": 384.125,
          "velocity": 1
        },
        {
          "duration": 0.14999999999997726,
          "durationTicks": 144,
          "midi": 65,
          "name": "F4",
          "ticks": 369120,
          "time": 384.5,
          "velocity": 1
        },
        {
          "duration": 0.13854166666664014,
          "durationTicks": 133,
          "midi": 67,
          "name": "G4",
          "ticks": 369240,
          "time": 384.625,
          "velocity": 1
        },
        {
          "duration": 0.12083333333333712,
          "durationTicks": 116,
          "midi": 70,
          "name": "A#4",
          "ticks": 369360,
          "time": 384.75,
          "velocity": 1
        },
        {
          "duration": 0.14999999999997726,
          "durationTicks": 144,
          "midi": 74,
          "name": "D5",
          "ticks": 369480,
          "time": 384.875,
          "velocity": 1
        },
        {
          "duration": 0.11145833333335986,
          "durationTicks": 107,
          "midi": 81,
          "name": "A5",
          "ticks": 369840,
          "time": 385.25,
          "velocity": 1
        },
        {
          "duration": 0.1708333333333485,
          "durationTicks": 164,
          "midi": 84,
          "name": "C6",
          "ticks": 369960,
          "time": 385.375,
          "velocity": 1
        },
        {
          "duration": 0.3802083333333144,
          "durationTicks": 365,
          "midi": 82,
          "name": "A#5",
          "ticks": 370080,
          "time": 385.5,
          "velocity": 1
        },
        {
          "duration": 1,
          "durationTicks": 960,
          "midi": 48,
          "name": "C3",
          "ticks": 370440,
          "time": 385.875,
          "velocity": 1
        },
        {
          "duration": 0.5208333333333144,
          "durationTicks": 500,
          "midi": 58,
          "name": "A#3",
          "ticks": 370440,
          "time": 385.875,
          "velocity": 1
        },
        {
          "duration": 1,
          "durationTicks": 960,
          "midi": 63,
          "name": "D#4",
          "ticks": 370440,
          "time": 385.875,
          "velocity": 1
        },
        {
          "duration": 0.10000000000002274,
          "durationTicks": 96,
          "midi": 74,
          "name": "D5",
          "ticks": 370440,
          "time": 385.875,
          "velocity": 1
        },
        {
          "duration": 0.8999999999999773,
          "durationTicks": 864,
          "midi": 77,
          "name": "F5",
          "ticks": 370560,
          "time": 386,
          "velocity": 1
        },
        {
          "duration": 0.4802083333333371,
          "durationTicks": 461,
          "midi": 57,
          "name": "A3",
          "ticks": 370920,
          "time": 386.375,
          "velocity": 1
        },
        {
          "duration": 0.14999999999997726,
          "durationTicks": 144,
          "midi": 82,
          "name": "A#5",
          "ticks": 371400,
          "time": 386.875,
          "velocity": 1
        },
        {
          "duration": 0.15937500000001137,
          "durationTicks": 153,
          "midi": 77,
          "name": "F5",
          "ticks": 371640,
          "time": 387.125,
          "velocity": 1
        },
        {
          "duration": 0.20937500000002274,
          "durationTicks": 201,
          "midi": 85,
          "name": "C#6",
          "ticks": 371760,
          "time": 387.25,
          "velocity": 1
        },
        {
          "duration": 0.2822916666666515,
          "durationTicks": 271,
          "midi": 84,
          "name": "C6",
          "ticks": 372000,
          "time": 387.5,
          "velocity": 1
        },
        {
          "duration": 0.6593750000000114,
          "durationTicks": 633,
          "midi": 46,
          "name": "A#2",
          "ticks": 372240,
          "time": 387.75,
          "velocity": 1
        },
        {
          "duration": 0.6593750000000114,
          "durationTicks": 633,
          "midi": 56,
          "name": "G#3",
          "ticks": 372240,
          "time": 387.75,
          "velocity": 1
        },
        {
          "duration": 0.6593750000000114,
          "durationTicks": 633,
          "midi": 62,
          "name": "D4",
          "ticks": 372240,
          "time": 387.75,
          "velocity": 1
        },
        {
          "duration": 0.13854166666664014,
          "durationTicks": 133,
          "midi": 81,
          "name": "A5",
          "ticks": 372240,
          "time": 387.75,
          "velocity": 1
        },
        {
          "duration": 0.34166666666664014,
          "durationTicks": 328,
          "midi": 82,
          "name": "A#5",
          "ticks": 372360,
          "time": 387.875,
          "velocity": 1
        },
        {
          "duration": 0.18020833333332575,
          "durationTicks": 173,
          "midi": 84,
          "name": "C6",
          "ticks": 372720,
          "time": 388.25,
          "velocity": 1
        },
        {
          "duration": 0.44062500000001137,
          "durationTicks": 423,
          "midi": 53,
          "name": "F3",
          "ticks": 372840,
          "time": 388.375,
          "velocity": 1
        },
        {
          "duration": 0.44062500000001137,
          "durationTicks": 423,
          "midi": 60,
          "name": "C4",
          "ticks": 372840,
          "time": 388.375,
          "velocity": 1
        },
        {
          "duration": 0.30937499999998863,
          "durationTicks": 297,
          "midi": 84,
          "name": "C6",
          "ticks": 372840,
          "time": 388.375,
          "velocity": 1
        },
        {
          "duration": 0.39999999999997726,
          "durationTicks": 384,
          "midi": 82,
          "name": "A#5",
          "ticks": 373200,
          "time": 388.75,
          "velocity": 1
        },
        {
          "duration": 0.5,
          "durationTicks": 480,
          "midi": 43,
          "name": "G2",
          "ticks": 373320,
          "time": 388.875,
          "velocity": 1
        },
        {
          "duration": 0.5,
          "durationTicks": 480,
          "midi": 53,
          "name": "F3",
          "ticks": 373320,
          "time": 388.875,
          "velocity": 1
        },
        {
          "duration": 0.5,
          "durationTicks": 480,
          "midi": 58,
          "name": "A#3",
          "ticks": 373320,
          "time": 388.875,
          "velocity": 1
        },
        {
          "duration": 0.16145833333331439,
          "durationTicks": 155,
          "midi": 85,
          "name": "C#6",
          "ticks": 373680,
          "time": 389.25,
          "velocity": 1
        },
        {
          "duration": 0.4802083333333371,
          "durationTicks": 461,
          "midi": 42,
          "name": "F#2",
          "ticks": 373800,
          "time": 389.375,
          "velocity": 1
        },
        {
          "duration": 0.4802083333333371,
          "durationTicks": 461,
          "midi": 52,
          "name": "E3",
          "ticks": 373800,
          "time": 389.375,
          "velocity": 1
        },
        {
          "duration": 0.4802083333333371,
          "durationTicks": 461,
          "midi": 58,
          "name": "A#3",
          "ticks": 373800,
          "time": 389.375,
          "velocity": 1
        },
        {
          "duration": 0.3385416666666856,
          "durationTicks": 325,
          "midi": 84,
          "name": "C6",
          "ticks": 373800,
          "time": 389.375,
          "velocity": 1
        },
        {
          "duration": 0.46145833333332575,
          "durationTicks": 443,
          "midi": 82,
          "name": "A#5",
          "ticks": 374160,
          "time": 389.75,
          "velocity": 1
        },
        {
          "duration": 0.9302083333333258,
          "durationTicks": 893,
          "midi": 41,
          "name": "F2",
          "ticks": 374280,
          "time": 389.875,
          "velocity": 1
        },
        {
          "duration": 0.9302083333333258,
          "durationTicks": 893,
          "midi": 51,
          "name": "D#3",
          "ticks": 374280,
          "time": 389.875,
          "velocity": 1
        },
        {
          "duration": 0.9302083333333258,
          "durationTicks": 893,
          "midi": 56,
          "name": "G#3",
          "ticks": 374280,
          "time": 389.875,
          "velocity": 1
        },
        {
          "duration": 0.15937500000001137,
          "durationTicks": 153,
          "midi": 78,
          "name": "F#5",
          "ticks": 374520,
          "time": 390.125,
          "velocity": 1
        },
        {
          "duration": 0.27916666666664014,
          "durationTicks": 268,
          "midi": 79,
          "name": "G5",
          "ticks": 374640,
          "time": 390.25,
          "velocity": 1
        },
        {
          "duration": 0.1708333333333485,
          "durationTicks": 164,
          "midi": 82,
          "name": "A#5",
          "ticks": 375000,
          "time": 390.625,
          "velocity": 1
        },
        {
          "duration": 0.12083333333333712,
          "durationTicks": 116,
          "midi": 46,
          "name": "A#2",
          "ticks": 375120,
          "time": 390.75,
          "velocity": 1
        },
        {
          "duration": 0.12083333333333712,
          "durationTicks": 116,
          "midi": 56,
          "name": "G#3",
          "ticks": 375120,
          "time": 390.75,
          "velocity": 1
        },
        {
          "duration": 0.12083333333333712,
          "durationTicks": 116,
          "midi": 62,
          "name": "D4",
          "ticks": 375120,
          "time": 390.75,
          "velocity": 1
        },
        {
          "duration": 0.12083333333333712,
          "durationTicks": 116,
          "midi": 77,
          "name": "F5",
          "ticks": 375120,
          "time": 390.75,
          "velocity": 1
        },
        {
          "duration": 0.14999999999997726,
          "durationTicks": 144,
          "midi": 78,
          "name": "F#5",
          "ticks": 375480,
          "time": 391.125,
          "velocity": 1
        },
        {
          "duration": 0.45937500000002274,
          "durationTicks": 441,
          "midi": 50,
          "name": "D3",
          "ticks": 375600,
          "time": 391.25,
          "velocity": 1
        },
        {
          "duration": 0.45937500000002274,
          "durationTicks": 441,
          "midi": 56,
          "name": "G#3",
          "ticks": 375600,
          "time": 391.25,
          "velocity": 1
        },
        {
          "duration": 0.33020833333335986,
          "durationTicks": 317,
          "midi": 79,
          "name": "G5",
          "ticks": 375600,
          "time": 391.25,
          "velocity": 1
        },
        {
          "duration": 0.75,
          "durationTicks": 720,
          "midi": 70,
          "name": "A#4",
          "ticks": 375960,
          "time": 391.625,
          "velocity": 1
        },
        {
          "duration": 0.5114583333333371,
          "durationTicks": 491,
          "midi": 50,
          "name": "D3",
          "ticks": 376080,
          "time": 391.75,
          "velocity": 1
        },
        {
          "duration": 1.1708333333333485,
          "durationTicks": 1124,
          "midi": 55,
          "name": "G3",
          "ticks": 376080,
          "time": 391.75,
          "velocity": 1
        },
        {
          "duration": 0.6593750000000114,
          "durationTicks": 633,
          "midi": 48,
          "name": "C3",
          "ticks": 376560,
          "time": 392.25,
          "velocity": 1
        },
        {
          "duration": 0.109375,
          "durationTicks": 105,
          "midi": 70,
          "name": "A#4",
          "ticks": 376680,
          "time": 392.375,
          "velocity": 1
        },
        {
          "duration": 0.10000000000002274,
          "durationTicks": 96,
          "midi": 72,
          "name": "C5",
          "ticks": 376680,
          "time": 392.375,
          "velocity": 1
        },
        {
          "duration": 0.11145833333335986,
          "durationTicks": 107,
          "midi": 67,
          "name": "G4",
          "ticks": 376800,
          "time": 392.5,
          "velocity": 1
        },
        {
          "duration": 0.109375,
          "durationTicks": 105,
          "midi": 70,
          "name": "A#4",
          "ticks": 376920,
          "time": 392.625,
          "velocity": 1
        },
        {
          "duration": 0.12083333333333712,
          "durationTicks": 116,
          "midi": 74,
          "name": "D5",
          "ticks": 377040,
          "time": 392.75,
          "velocity": 1
        },
        {
          "duration": 0.12083333333333712,
          "durationTicks": 116,
          "midi": 77,
          "name": "F5",
          "ticks": 377160,
          "time": 392.875,
          "velocity": 1
        },
        {
          "duration": 0.109375,
          "durationTicks": 105,
          "midi": 74,
          "name": "D5",
          "ticks": 377280,
          "time": 393,
          "velocity": 1
        },
        {
          "duration": 0.11145833333335986,
          "durationTicks": 107,
          "midi": 75,
          "name": "D#5",
          "ticks": 377400,
          "time": 393.125,
          "velocity": 1
        },
        {
          "duration": 0.14999999999997726,
          "durationTicks": 144,
          "midi": 77,
          "name": "F5",
          "ticks": 377520,
          "time": 393.25,
          "velocity": 1
        },
        {
          "duration": 0.109375,
          "durationTicks": 105,
          "midi": 78,
          "name": "F#5",
          "ticks": 377640,
          "time": 393.375,
          "velocity": 1
        },
        {
          "duration": 0.109375,
          "durationTicks": 105,
          "midi": 80,
          "name": "G#5",
          "ticks": 377760,
          "time": 393.5,
          "velocity": 1
        },
        {
          "duration": 1.6999999999999886,
          "durationTicks": 1632,
          "midi": 51,
          "name": "D#3",
          "ticks": 377880,
          "time": 393.625,
          "velocity": 1
        },
        {
          "duration": 1.6999999999999886,
          "durationTicks": 1632,
          "midi": 60,
          "name": "C4",
          "ticks": 377880,
          "time": 393.625,
          "velocity": 1
        },
        {
          "duration": 1.2208333333333599,
          "durationTicks": 1172,
          "midi": 66,
          "name": "F#4",
          "ticks": 377880,
          "time": 393.625,
          "velocity": 1
        },
        {
          "duration": 0.32083333333332575,
          "durationTicks": 308,
          "midi": 82,
          "name": "A#5",
          "ticks": 377880,
          "time": 393.625,
          "velocity": 1
        },
        {
          "duration": 0.12083333333333712,
          "durationTicks": 116,
          "midi": 84,
          "name": "C6",
          "ticks": 378480,
          "time": 394.25,
          "velocity": 1
        },
        {
          "duration": 0.10000000000002274,
          "durationTicks": 96,
          "midi": 78,
          "name": "F#5",
          "ticks": 378600,
          "time": 394.375,
          "velocity": 1
        },
        {
          "duration": 0.10000000000002274,
          "durationTicks": 96,
          "midi": 77,
          "name": "F5",
          "ticks": 378720,
          "time": 394.5,
          "velocity": 1
        },
        {
          "duration": 0.109375,
          "durationTicks": 105,
          "midi": 75,
          "name": "D#5",
          "ticks": 378840,
          "time": 394.625,
          "velocity": 1
        },
        {
          "duration": 0.22083333333335986,
          "durationTicks": 212,
          "midi": 66,
          "name": "F#4",
          "ticks": 378960,
          "time": 394.75,
          "velocity": 1
        },
        {
          "duration": 0.10000000000002274,
          "durationTicks": 96,
          "midi": 72,
          "name": "C5",
          "ticks": 378960,
          "time": 394.75,
          "velocity": 1
        },
        {
          "duration": 0.11145833333335986,
          "durationTicks": 107,
          "midi": 73,
          "name": "C#5",
          "ticks": 378960,
          "time": 394.75,
          "velocity": 1
        },
        {
          "duration": 0.109375,
          "durationTicks": 105,
          "midi": 74,
          "name": "D5",
          "ticks": 379080,
          "time": 394.875,
          "velocity": 1
        },
        {
          "duration": 0.25937499999997726,
          "durationTicks": 249,
          "midi": 70,
          "name": "A#4",
          "ticks": 379200,
          "time": 395,
          "velocity": 1
        },
        {
          "duration": 1.3416666666666401,
          "durationTicks": 1288,
          "midi": 50,
          "name": "D3",
          "ticks": 379560,
          "time": 395.375,
          "velocity": 1
        },
        {
          "duration": 0.2708333333333144,
          "durationTicks": 260,
          "midi": 60,
          "name": "C4",
          "ticks": 379560,
          "time": 395.375,
          "velocity": 1
        },
        {
          "duration": 0.109375,
          "durationTicks": 105,
          "midi": 62,
          "name": "D4",
          "ticks": 379800,
          "time": 395.625,
          "velocity": 1
        },
        {
          "duration": 0.10000000000002274,
          "durationTicks": 96,
          "midi": 65,
          "name": "F4",
          "ticks": 379920,
          "time": 395.75,
          "velocity": 1
        },
        {
          "duration": 0.12083333333333712,
          "durationTicks": 116,
          "midi": 69,
          "name": "A4",
          "ticks": 380040,
          "time": 395.875,
          "velocity": 1
        },
        {
          "duration": 0.14999999999997726,
          "durationTicks": 144,
          "midi": 72,
          "name": "C5",
          "ticks": 380160,
          "time": 396,
          "velocity": 1
        },
        {
          "duration": 0.14999999999997726,
          "durationTicks": 144,
          "midi": 69,
          "name": "A4",
          "ticks": 380280,
          "time": 396.125,
          "velocity": 1
        },
        {
          "duration": 0.1416666666666515,
          "durationTicks": 136,
          "midi": 70,
          "name": "A#4",
          "ticks": 380400,
          "time": 396.25,
          "velocity": 1
        },
        {
          "duration": 0.15937500000001137,
          "durationTicks": 153,
          "midi": 74,
          "name": "D5",
          "ticks": 380520,
          "time": 396.375,
          "velocity": 1
        },
        {
          "duration": 0.1416666666666515,
          "durationTicks": 136,
          "midi": 76,
          "name": "E5",
          "ticks": 380640,
          "time": 396.5,
          "velocity": 1
        },
        {
          "duration": 0.13854166666664014,
          "durationTicks": 133,
          "midi": 81,
          "name": "A5",
          "ticks": 380760,
          "time": 396.625,
          "velocity": 1
        },
        {
          "duration": 0.14999999999997726,
          "durationTicks": 144,
          "midi": 84,
          "name": "C6",
          "ticks": 380880,
          "time": 396.75,
          "velocity": 1
        },
        {
          "duration": 0.12083333333333712,
          "durationTicks": 116,
          "midi": 81,
          "name": "A5",
          "ticks": 381000,
          "time": 396.875,
          "velocity": 1
        },
        {
          "duration": 0.21145833333332575,
          "durationTicks": 203,
          "midi": 82,
          "name": "A#5",
          "ticks": 381120,
          "time": 397,
          "velocity": 1
        },
        {
          "duration": 0.01875000000001137,
          "durationTicks": 18,
          "midi": 74,
          "name": "D5",
          "ticks": 381360,
          "time": 397.25,
          "velocity": 1
        },
        {
          "duration": 0.15937500000001137,
          "durationTicks": 153,
          "midi": 77,
          "name": "F5",
          "ticks": 381480,
          "time": 397.375,
          "velocity": 1
        },
        {
          "duration": 0.18229166666668561,
          "durationTicks": 175,
          "midi": 81,
          "name": "A5",
          "ticks": 381600,
          "time": 397.5,
          "velocity": 1
        },
        {
          "duration": 0.08854166666668561,
          "durationTicks": 85,
          "midi": 80,
          "name": "G#5",
          "ticks": 381840,
          "time": 397.75,
          "velocity": 1
        },
        {
          "duration": 0.10000000000002274,
          "durationTicks": 96,
          "midi": 79,
          "name": "G5",
          "ticks": 381960,
          "time": 397.875,
          "velocity": 1
        },
        {
          "duration": 0.609375,
          "durationTicks": 585,
          "midi": 43,
          "name": "G2",
          "ticks": 382080,
          "time": 398,
          "velocity": 1
        },
        {
          "duration": 0.609375,
          "durationTicks": 585,
          "midi": 53,
          "name": "F3",
          "ticks": 382080,
          "time": 398,
          "velocity": 1
        },
        {
          "duration": 0.609375,
          "durationTicks": 585,
          "midi": 58,
          "name": "A#3",
          "ticks": 382080,
          "time": 398,
          "velocity": 1
        },
        {
          "duration": 0.109375,
          "durationTicks": 105,
          "midi": 77,
          "name": "F5",
          "ticks": 382080,
          "time": 398,
          "velocity": 1
        },
        {
          "duration": 0.09166666666664014,
          "durationTicks": 88,
          "midi": 78,
          "name": "F#5",
          "ticks": 382080,
          "time": 398,
          "velocity": 1
        },
        {
          "duration": 0.16145833333331439,
          "durationTicks": 155,
          "midi": 74,
          "name": "D5",
          "ticks": 382200,
          "time": 398.125,
          "velocity": 1
        },
        {
          "duration": 0.1885416666666515,
          "durationTicks": 181,
          "midi": 70,
          "name": "A#4",
          "ticks": 382320,
          "time": 398.25,
          "velocity": 1
        },
        {
          "duration": 0.14999999999997726,
          "durationTicks": 144,
          "midi": 67,
          "name": "G4",
          "ticks": 382560,
          "time": 398.5,
          "velocity": 1
        },
        {
          "duration": 0.1708333333333485,
          "durationTicks": 164,
          "midi": 72,
          "name": "C5",
          "ticks": 382680,
          "time": 398.625,
          "velocity": 1
        },
        {
          "duration": 0.14999999999997726,
          "durationTicks": 144,
          "midi": 71,
          "name": "B4",
          "ticks": 382800,
          "time": 398.75,
          "velocity": 1
        },
        {
          "duration": 0.14999999999997726,
          "durationTicks": 144,
          "midi": 70,
          "name": "A#4",
          "ticks": 382920,
          "time": 398.875,
          "velocity": 1
        },
        {
          "duration": 0.038541666666674246,
          "durationTicks": 37,
          "midi": 46,
          "name": "A#2",
          "ticks": 383280,
          "time": 399.25,
          "velocity": 1
        },
        {
          "duration": 0.5593749999999886,
          "durationTicks": 537,
          "midi": 53,
          "name": "F3",
          "ticks": 383280,
          "time": 399.25,
          "velocity": 1
        },
        {
          "duration": 0.5593749999999886,
          "durationTicks": 537,
          "midi": 58,
          "name": "A#3",
          "ticks": 383280,
          "time": 399.25,
          "velocity": 1
        },
        {
          "duration": 0.19999999999998863,
          "durationTicks": 192,
          "midi": 62,
          "name": "D4",
          "ticks": 383280,
          "time": 399.25,
          "velocity": 1
        },
        {
          "duration": 0.20937500000002274,
          "durationTicks": 201,
          "midi": 65,
          "name": "F4",
          "ticks": 383520,
          "time": 399.5,
          "velocity": 1
        },
        {
          "duration": 0.08020833333335986,
          "durationTicks": 77,
          "midi": 67,
          "name": "G4",
          "ticks": 383760,
          "time": 399.75,
          "velocity": 1
        },
        {
          "duration": 0.07083333333332575,
          "durationTicks": 68,
          "midi": 69,
          "name": "A4",
          "ticks": 383760,
          "time": 399.75,
          "velocity": 1
        },
        {
          "duration": 0.46145833333332575,
          "durationTicks": 443,
          "midi": 48,
          "name": "C3",
          "ticks": 383880,
          "time": 399.875,
          "velocity": 1
        },
        {
          "duration": 0.46145833333332575,
          "durationTicks": 443,
          "midi": 52,
          "name": "E3",
          "ticks": 383880,
          "time": 399.875,
          "velocity": 1
        },
        {
          "duration": 0.46145833333332575,
          "durationTicks": 443,
          "midi": 58,
          "name": "A#3",
          "ticks": 383880,
          "time": 399.875,
          "velocity": 1
        },
        {
          "duration": 0.35000000000002274,
          "durationTicks": 336,
          "midi": 67,
          "name": "G4",
          "ticks": 383880,
          "time": 399.875,
          "velocity": 1
        },
        {
          "duration": 0.11145833333335986,
          "durationTicks": 107,
          "midi": 60,
          "name": "C4",
          "ticks": 384240,
          "time": 400.25,
          "velocity": 1
        },
        {
          "duration": 0.5187500000000114,
          "durationTicks": 498,
          "midi": 42,
          "name": "F#2",
          "ticks": 384360,
          "time": 400.375,
          "velocity": 1
        },
        {
          "duration": 0.5187500000000114,
          "durationTicks": 498,
          "midi": 52,
          "name": "E3",
          "ticks": 384360,
          "time": 400.375,
          "velocity": 1
        },
        {
          "duration": 0.5187500000000114,
          "durationTicks": 498,
          "midi": 58,
          "name": "A#3",
          "ticks": 384360,
          "time": 400.375,
          "velocity": 1
        },
        {
          "duration": 0.4416666666666629,
          "durationTicks": 424,
          "midi": 41,
          "name": "F2",
          "ticks": 384840,
          "time": 400.875,
          "velocity": 1
        },
        {
          "duration": 0.4416666666666629,
          "durationTicks": 424,
          "midi": 51,
          "name": "D#3",
          "ticks": 384840,
          "time": 400.875,
          "velocity": 1
        },
        {
          "duration": 0.11145833333335986,
          "durationTicks": 107,
          "midi": 58,
          "name": "A#3",
          "ticks": 384840,
          "time": 400.875,
          "velocity": 1
        },
        {
          "duration": 0.109375,
          "durationTicks": 105,
          "midi": 60,
          "name": "C4",
          "ticks": 384960,
          "time": 401,
          "velocity": 1
        },
        {
          "duration": 0.10000000000002274,
          "durationTicks": 96,
          "midi": 65,
          "name": "F4",
          "ticks": 385080,
          "time": 401.125,
          "velocity": 1
        },
        {
          "duration": 0.12083333333333712,
          "durationTicks": 116,
          "midi": 64,
          "name": "E4",
          "ticks": 385200,
          "time": 401.25,
          "velocity": 1
        },
        {
          "duration": 0.10000000000002274,
          "durationTicks": 96,
          "midi": 63,
          "name": "D#4",
          "ticks": 385320,
          "time": 401.375,
          "velocity": 1
        },
        {
          "duration": 0.19999999999998863,
          "durationTicks": 192,
          "midi": 69,
          "name": "A4",
          "ticks": 385440,
          "time": 401.5,
          "velocity": 1
        },
        {
          "duration": 0.109375,
          "durationTicks": 105,
          "midi": 74,
          "name": "D5",
          "ticks": 385680,
          "time": 401.75,
          "velocity": 1
        },
        {
          "duration": 0.13020833333331439,
          "durationTicks": 125,
          "midi": 77,
          "name": "F5",
          "ticks": 385800,
          "time": 401.875,
          "velocity": 1
        },
        {
          "duration": 0.109375,
          "durationTicks": 105,
          "midi": 78,
          "name": "F#5",
          "ticks": 386040,
          "time": 402.125,
          "velocity": 1
        },
        {
          "duration": 0.10000000000002274,
          "durationTicks": 96,
          "midi": 80,
          "name": "G#5",
          "ticks": 386040,
          "time": 402.125,
          "velocity": 1
        },
        {
          "duration": 0.11145833333335986,
          "durationTicks": 107,
          "midi": 73,
          "name": "C#5",
          "ticks": 386160,
          "time": 402.25,
          "velocity": 1
        },
        {
          "duration": 0.11874999999997726,
          "durationTicks": 114,
          "midi": 69,
          "name": "A4",
          "ticks": 386280,
          "time": 402.375,
          "velocity": 1
        },
        {
          "duration": 0.11145833333335986,
          "durationTicks": 107,
          "midi": 68,
          "name": "G#4",
          "ticks": 386400,
          "time": 402.5,
          "velocity": 1
        },
        {
          "duration": 0.10000000000002274,
          "durationTicks": 96,
          "midi": 66,
          "name": "F#4",
          "ticks": 386520,
          "time": 402.625,
          "velocity": 1
        },
        {
          "duration": 0.5093749999999773,
          "durationTicks": 489,
          "midi": 46,
          "name": "A#2",
          "ticks": 386640,
          "time": 402.75,
          "velocity": 1
        },
        {
          "duration": 0.5093749999999773,
          "durationTicks": 489,
          "midi": 57,
          "name": "A3",
          "ticks": 386640,
          "time": 402.75,
          "velocity": 1
        },
        {
          "duration": 0.5093749999999773,
          "durationTicks": 489,
          "midi": 62,
          "name": "D4",
          "ticks": 386640,
          "time": 402.75,
          "velocity": 1
        },
        {
          "duration": 0.5093749999999773,
          "durationTicks": 489,
          "midi": 65,
          "name": "F4",
          "ticks": 386640,
          "time": 402.75,
          "velocity": 1
        },
        {
          "duration": 0.4802083333333371,
          "durationTicks": 461,
          "midi": 53,
          "name": "F3",
          "ticks": 387120,
          "time": 403.25,
          "velocity": 1
        },
        {
          "duration": 0.9208333333333485,
          "durationTicks": 884,
          "midi": 42,
          "name": "F#2",
          "ticks": 387600,
          "time": 403.75,
          "velocity": 1
        },
        {
          "duration": 0.9208333333333485,
          "durationTicks": 884,
          "midi": 52,
          "name": "E3",
          "ticks": 387600,
          "time": 403.75,
          "velocity": 1
        },
        {
          "duration": 0.9208333333333485,
          "durationTicks": 884,
          "midi": 58,
          "name": "A#3",
          "ticks": 387600,
          "time": 403.75,
          "velocity": 1
        },
        {
          "duration": 0.07083333333332575,
          "durationTicks": 68,
          "midi": 85,
          "name": "C#6",
          "ticks": 387840,
          "time": 404,
          "velocity": 1
        },
        {
          "duration": 0.07083333333332575,
          "durationTicks": 68,
          "midi": 87,
          "name": "D#6",
          "ticks": 387840,
          "time": 404,
          "velocity": 1
        },
        {
          "duration": 0.23020833333333712,
          "durationTicks": 221,
          "midi": 76,
          "name": "E5",
          "ticks": 387960,
          "time": 404.125,
          "velocity": 1
        },
        {
          "duration": 0.07083333333332575,
          "durationTicks": 68,
          "midi": 80,
          "name": "G#5",
          "ticks": 387960,
          "time": 404.125,
          "velocity": 1
        },
        {
          "duration": 0.17916666666667425,
          "durationTicks": 172,
          "midi": 74,
          "name": "D5",
          "ticks": 388200,
          "time": 404.375,
          "velocity": 1
        },
        {
          "duration": 0.9208333333333485,
          "durationTicks": 884,
          "midi": 41,
          "name": "F2",
          "ticks": 388440,
          "time": 404.625,
          "velocity": 1
        },
        {
          "duration": 0.9208333333333485,
          "durationTicks": 884,
          "midi": 51,
          "name": "D#3",
          "ticks": 388440,
          "time": 404.625,
          "velocity": 1
        },
        {
          "duration": 1.3999999999999773,
          "durationTicks": 1344,
          "midi": 56,
          "name": "G#3",
          "ticks": 388440,
          "time": 404.625,
          "velocity": 1
        },
        {
          "duration": 0.2916666666666856,
          "durationTicks": 280,
          "midi": 75,
          "name": "D#5",
          "ticks": 388440,
          "time": 404.625,
          "velocity": 1
        },
        {
          "duration": 0.14999999999997726,
          "durationTicks": 144,
          "midi": 72,
          "name": "C5",
          "ticks": 388680,
          "time": 404.875,
          "velocity": 1
        },
        {
          "duration": 0.3385416666666856,
          "durationTicks": 325,
          "midi": 68,
          "name": "G#4",
          "ticks": 388800,
          "time": 405,
          "velocity": 1
        },
        {
          "duration": 0.1416666666666515,
          "durationTicks": 136,
          "midi": 65,
          "name": "F4",
          "ticks": 389160,
          "time": 405.375,
          "velocity": 1
        },
        {
          "duration": 0.19166666666666288,
          "durationTicks": 184,
          "midi": 70,
          "name": "A#4",
          "ticks": 389400,
          "time": 405.625,
          "velocity": 1
        },
        {
          "duration": 0.35000000000002274,
          "durationTicks": 336,
          "midi": 40,
          "name": "E2",
          "ticks": 389760,
          "time": 406,
          "velocity": 1
        },
        {
          "duration": 0.35000000000002274,
          "durationTicks": 336,
          "midi": 50,
          "name": "D3",
          "ticks": 389760,
          "time": 406,
          "velocity": 1
        },
        {
          "duration": 0.35000000000002274,
          "durationTicks": 336,
          "midi": 56,
          "name": "G#3",
          "ticks": 389760,
          "time": 406,
          "velocity": 1
        },
        {
          "duration": 0.12083333333333712,
          "durationTicks": 116,
          "midi": 66,
          "name": "F#4",
          "ticks": 389760,
          "time": 406,
          "velocity": 1
        },
        {
          "duration": 0.140625,
          "durationTicks": 135,
          "midi": 67,
          "name": "G4",
          "ticks": 389880,
          "time": 406.125,
          "velocity": 1
        },
        {
          "duration": 0.08854166666668561,
          "durationTicks": 85,
          "midi": 68,
          "name": "G#4",
          "ticks": 390000,
          "time": 406.25,
          "velocity": 1
        },
        {
          "duration": 1.2208333333333599,
          "durationTicks": 1172,
          "midi": 50,
          "name": "D3",
          "ticks": 390120,
          "time": 406.375,
          "velocity": 1
        },
        {
          "duration": 1.2302083333333371,
          "durationTicks": 1181,
          "midi": 55,
          "name": "G3",
          "ticks": 390120,
          "time": 406.375,
          "velocity": 1
        },
        {
          "duration": 0.13020833333331439,
          "durationTicks": 125,
          "midi": 58,
          "name": "A#3",
          "ticks": 390480,
          "time": 406.75,
          "velocity": 1
        },
        {
          "duration": 0.4208333333333485,
          "durationTicks": 404,
          "midi": 60,
          "name": "C4",
          "ticks": 390600,
          "time": 406.875,
          "velocity": 1
        },
        {
          "duration": 0.23854166666666288,
          "durationTicks": 229,
          "midi": 46,
          "name": "A#2",
          "ticks": 390960,
          "time": 407.25,
          "velocity": 1
        },
        {
          "duration": 0.10000000000002274,
          "durationTicks": 96,
          "midi": 60,
          "name": "C4",
          "ticks": 391200,
          "time": 407.5,
          "velocity": 1
        },
        {
          "duration": 0.10000000000002274,
          "durationTicks": 96,
          "midi": 62,
          "name": "D4",
          "ticks": 391320,
          "time": 407.625,
          "velocity": 1
        },
        {
          "duration": 0.10000000000002274,
          "durationTicks": 96,
          "midi": 65,
          "name": "F4",
          "ticks": 391440,
          "time": 407.75,
          "velocity": 1
        },
        {
          "duration": 0.10000000000002274,
          "durationTicks": 96,
          "midi": 65,
          "name": "F4",
          "ticks": 391560,
          "time": 407.875,
          "velocity": 1
        },
        {
          "duration": 0.09166666666664014,
          "durationTicks": 88,
          "midi": 63,
          "name": "D#4",
          "ticks": 391680,
          "time": 408,
          "velocity": 1
        },
        {
          "duration": 0.109375,
          "durationTicks": 105,
          "midi": 65,
          "name": "F4",
          "ticks": 391800,
          "time": 408.125,
          "velocity": 1
        },
        {
          "duration": 0.11145833333335986,
          "durationTicks": 107,
          "midi": 66,
          "name": "F#4",
          "ticks": 391920,
          "time": 408.25,
          "velocity": 1
        },
        {
          "duration": 0.12083333333333712,
          "durationTicks": 116,
          "midi": 68,
          "name": "G#4",
          "ticks": 391920,
          "time": 408.25,
          "velocity": 1
        },
        {
          "duration": 1.1499999999999773,
          "durationTicks": 1104,
          "midi": 44,
          "name": "G#2",
          "ticks": 392040,
          "time": 408.375,
          "velocity": 1
        },
        {
          "duration": 1.1499999999999773,
          "durationTicks": 1104,
          "midi": 51,
          "name": "D#3",
          "ticks": 392040,
          "time": 408.375,
          "velocity": 1
        },
        {
          "duration": 1.1499999999999773,
          "durationTicks": 1104,
          "midi": 60,
          "name": "C4",
          "ticks": 392040,
          "time": 408.375,
          "velocity": 1
        },
        {
          "duration": 1.1499999999999773,
          "durationTicks": 1104,
          "midi": 66,
          "name": "F#4",
          "ticks": 392040,
          "time": 408.375,
          "velocity": 1
        },
        {
          "duration": 0.10000000000002274,
          "durationTicks": 96,
          "midi": 70,
          "name": "A#4",
          "ticks": 392040,
          "time": 408.375,
          "velocity": 1
        },
        {
          "duration": 0.10000000000002274,
          "durationTicks": 96,
          "midi": 72,
          "name": "C5",
          "ticks": 392160,
          "time": 408.5,
          "velocity": 1
        },
        {
          "duration": 0.10000000000002274,
          "durationTicks": 96,
          "midi": 74,
          "name": "D5",
          "ticks": 392280,
          "time": 408.625,
          "velocity": 1
        },
        {
          "duration": 0.10000000000002274,
          "durationTicks": 96,
          "midi": 75,
          "name": "D#5",
          "ticks": 392400,
          "time": 408.75,
          "velocity": 1
        },
        {
          "duration": 0.10000000000002274,
          "durationTicks": 96,
          "midi": 77,
          "name": "F5",
          "ticks": 392520,
          "time": 408.875,
          "velocity": 1
        },
        {
          "duration": 0.109375,
          "durationTicks": 105,
          "midi": 78,
          "name": "F#5",
          "ticks": 392520,
          "time": 408.875,
          "velocity": 1
        },
        {
          "duration": 0.11145833333335986,
          "durationTicks": 107,
          "midi": 80,
          "name": "G#5",
          "ticks": 392640,
          "time": 409,
          "velocity": 1
        },
        {
          "duration": 0.109375,
          "durationTicks": 105,
          "midi": 82,
          "name": "A#5",
          "ticks": 392760,
          "time": 409.125,
          "velocity": 1
        },
        {
          "duration": 0.11145833333335986,
          "durationTicks": 107,
          "midi": 78,
          "name": "F#5",
          "ticks": 392880,
          "time": 409.25,
          "velocity": 1
        },
        {
          "duration": 0.10000000000002274,
          "durationTicks": 96,
          "midi": 77,
          "name": "F5",
          "ticks": 393000,
          "time": 409.375,
          "velocity": 1
        },
        {
          "duration": 0.10000000000002274,
          "durationTicks": 96,
          "midi": 75,
          "name": "D#5",
          "ticks": 393120,
          "time": 409.5,
          "velocity": 1
        },
        {
          "duration": 0.75,
          "durationTicks": 720,
          "midi": 60,
          "name": "C4",
          "ticks": 393240,
          "time": 409.625,
          "velocity": 1
        },
        {
          "duration": 0.75,
          "durationTicks": 720,
          "midi": 66,
          "name": "F#4",
          "ticks": 393240,
          "time": 409.625,
          "velocity": 1
        },
        {
          "duration": 0.12083333333333712,
          "durationTicks": 116,
          "midi": 73,
          "name": "C#5",
          "ticks": 393360,
          "time": 409.75,
          "velocity": 1
        },
        {
          "duration": 0.09166666666664014,
          "durationTicks": 88,
          "midi": 77,
          "name": "F5",
          "ticks": 393480,
          "time": 409.875,
          "velocity": 1
        },
        {
          "duration": 0.09062499999998863,
          "durationTicks": 87,
          "midi": 70,
          "name": "A#4",
          "ticks": 393720,
          "time": 410.125,
          "velocity": 1
        },
        {
          "duration": 0.10000000000002274,
          "durationTicks": 96,
          "midi": 69,
          "name": "A4",
          "ticks": 393840,
          "time": 410.25,
          "velocity": 1
        },
        {
          "duration": 0.3802083333333144,
          "durationTicks": 365,
          "midi": 50,
          "name": "D3",
          "ticks": 393960,
          "time": 410.375,
          "velocity": 1
        },
        {
          "duration": 0.3802083333333144,
          "durationTicks": 365,
          "midi": 60,
          "name": "C4",
          "ticks": 393960,
          "time": 410.375,
          "velocity": 1
        },
        {
          "duration": 0.3802083333333144,
          "durationTicks": 365,
          "midi": 65,
          "name": "F4",
          "ticks": 393960,
          "time": 410.375,
          "velocity": 1
        },
        {
          "duration": 0.08854166666668561,
          "durationTicks": 85,
          "midi": 70,
          "name": "A#4",
          "ticks": 393960,
          "time": 410.375,
          "velocity": 1
        },
        {
          "duration": 0.10000000000002274,
          "durationTicks": 96,
          "midi": 74,
          "name": "D5",
          "ticks": 393960,
          "time": 410.375,
          "velocity": 1
        },
        {
          "duration": 0.10000000000002274,
          "durationTicks": 96,
          "midi": 77,
          "name": "F5",
          "ticks": 394080,
          "time": 410.5,
          "velocity": 1
        },
        {
          "duration": 0.09166666666664014,
          "durationTicks": 88,
          "midi": 81,
          "name": "A5",
          "ticks": 394200,
          "time": 410.625,
          "velocity": 1
        },
        {
          "duration": 0.12083333333333712,
          "durationTicks": 116,
          "midi": 84,
          "name": "C6",
          "ticks": 394320,
          "time": 410.75,
          "velocity": 1
        },
        {
          "duration": 0.11874999999997726,
          "durationTicks": 114,
          "midi": 81,
          "name": "A5",
          "ticks": 394440,
          "time": 410.875,
          "velocity": 1
        },
        {
          "duration": 0.2614583333333371,
          "durationTicks": 251,
          "midi": 82,
          "name": "A#5",
          "ticks": 394560,
          "time": 411,
          "velocity": 1
        },
        {
          "duration": 0.13020833333331439,
          "durationTicks": 125,
          "midi": 77,
          "name": "F5",
          "ticks": 394800,
          "time": 411.25,
          "velocity": 1
        },
        {
          "duration": 0.6906250000000114,
          "durationTicks": 663,
          "midi": 43,
          "name": "G2",
          "ticks": 394920,
          "time": 411.375,
          "velocity": 1
        },
        {
          "duration": 0.6906250000000114,
          "durationTicks": 663,
          "midi": 53,
          "name": "F3",
          "ticks": 394920,
          "time": 411.375,
          "velocity": 1
        },
        {
          "duration": 0.6906250000000114,
          "durationTicks": 663,
          "midi": 58,
          "name": "A#3",
          "ticks": 394920,
          "time": 411.375,
          "velocity": 1
        },
        {
          "duration": 0.09062499999998863,
          "durationTicks": 87,
          "midi": 79,
          "name": "G5",
          "ticks": 394920,
          "time": 411.375,
          "velocity": 1
        },
        {
          "duration": 0.08854166666668561,
          "durationTicks": 85,
          "midi": 80,
          "name": "G#5",
          "ticks": 394920,
          "time": 411.375,
          "velocity": 1
        },
        {
          "duration": 0.10000000000002274,
          "durationTicks": 96,
          "midi": 81,
          "name": "A5",
          "ticks": 395040,
          "time": 411.5,
          "velocity": 1
        },
        {
          "duration": 0.16145833333331439,
          "durationTicks": 155,
          "midi": 79,
          "name": "G5",
          "ticks": 395160,
          "time": 411.625,
          "velocity": 1
        },
        {
          "duration": 0.25,
          "durationTicks": 240,
          "midi": 77,
          "name": "F5",
          "ticks": 395280,
          "time": 411.75,
          "velocity": 1
        },
        {
          "duration": 0.6999999999999886,
          "durationTicks": 672,
          "midi": 48,
          "name": "C3",
          "ticks": 395520,
          "time": 412,
          "velocity": 1
        },
        {
          "duration": 0.6999999999999886,
          "durationTicks": 672,
          "midi": 51,
          "name": "D#3",
          "ticks": 395520,
          "time": 412,
          "velocity": 1
        },
        {
          "duration": 0.6999999999999886,
          "durationTicks": 672,
          "midi": 58,
          "name": "A#3",
          "ticks": 395520,
          "time": 412,
          "velocity": 1
        },
        {
          "duration": 0.10000000000002274,
          "durationTicks": 96,
          "midi": 73,
          "name": "C#5",
          "ticks": 395520,
          "time": 412,
          "velocity": 1
        },
        {
          "duration": 0.109375,
          "durationTicks": 105,
          "midi": 74,
          "name": "D5",
          "ticks": 395640,
          "time": 412.125,
          "velocity": 1
        },
        {
          "duration": 0.12083333333333712,
          "durationTicks": 116,
          "midi": 75,
          "name": "D#5",
          "ticks": 395760,
          "time": 412.25,
          "velocity": 1
        },
        {
          "duration": 0.12083333333333712,
          "durationTicks": 116,
          "midi": 74,
          "name": "D5",
          "ticks": 395880,
          "time": 412.375,
          "velocity": 1
        },
        {
          "duration": 0.13020833333331439,
          "durationTicks": 125,
          "midi": 72,
          "name": "C5",
          "ticks": 396000,
          "time": 412.5,
          "velocity": 1
        },
        {
          "duration": 0.12083333333333712,
          "durationTicks": 116,
          "midi": 70,
          "name": "A#4",
          "ticks": 396120,
          "time": 412.625,
          "velocity": 1
        },
        {
          "duration": 0.7885416666666742,
          "durationTicks": 757,
          "midi": 41,
          "name": "F2",
          "ticks": 396240,
          "time": 412.75,
          "velocity": 1
        },
        {
          "duration": 0.7885416666666742,
          "durationTicks": 757,
          "midi": 51,
          "name": "D#3",
          "ticks": 396240,
          "time": 412.75,
          "velocity": 1
        },
        {
          "duration": 0.7885416666666742,
          "durationTicks": 757,
          "midi": 57,
          "name": "A3",
          "ticks": 396240,
          "time": 412.75,
          "velocity": 1
        },
        {
          "duration": 0.31875000000002274,
          "durationTicks": 306,
          "midi": 72,
          "name": "C5",
          "ticks": 396240,
          "time": 412.75,
          "velocity": 1
        },
        {
          "duration": 0.16145833333331439,
          "durationTicks": 155,
          "midi": 65,
          "name": "F4",
          "ticks": 396480,
          "time": 413,
          "velocity": 1
        },
        {
          "duration": 0.30937499999998863,
          "durationTicks": 297,
          "midi": 67,
          "name": "G4",
          "ticks": 396600,
          "time": 413.125,
          "velocity": 1
        },
        {
          "duration": 0.1708333333333485,
          "durationTicks": 164,
          "midi": 70,
          "name": "A#4",
          "ticks": 396960,
          "time": 413.5,
          "velocity": 1
        },
        {
          "duration": 0.44062500000001137,
          "durationTicks": 423,
          "midi": 57,
          "name": "A3",
          "ticks": 397080,
          "time": 413.625,
          "velocity": 1
        },
        {
          "duration": 0.44062500000001137,
          "durationTicks": 423,
          "midi": 62,
          "name": "D4",
          "ticks": 397080,
          "time": 413.625,
          "velocity": 1
        },
        {
          "duration": 0.04062499999997726,
          "durationTicks": 39,
          "midi": 65,
          "name": "F4",
          "ticks": 397080,
          "time": 413.625,
          "velocity": 1
        },
        {
          "duration": 0.46875,
          "durationTicks": 450,
          "midi": 48,
          "name": "C3",
          "ticks": 397560,
          "time": 414.125,
          "velocity": 1
        },
        {
          "duration": 0.46875,
          "durationTicks": 450,
          "midi": 58,
          "name": "A#3",
          "ticks": 397560,
          "time": 414.125,
          "velocity": 1
        },
        {
          "duration": 0.46875,
          "durationTicks": 450,
          "midi": 63,
          "name": "D#4",
          "ticks": 397560,
          "time": 414.125,
          "velocity": 1
        },
        {
          "duration": 0.46875,
          "durationTicks": 450,
          "midi": 70,
          "name": "A#4",
          "ticks": 397560,
          "time": 414.125,
          "velocity": 1
        },
        {
          "duration": 0.34166666666664014,
          "durationTicks": 328,
          "midi": 50,
          "name": "D3",
          "ticks": 398040,
          "time": 414.625,
          "velocity": 1
        },
        {
          "duration": 0.46145833333332575,
          "durationTicks": 443,
          "midi": 60,
          "name": "C4",
          "ticks": 398040,
          "time": 414.625,
          "velocity": 1
        },
        {
          "duration": 0.45937500000002274,
          "durationTicks": 441,
          "midi": 51,
          "name": "D#3",
          "ticks": 398280,
          "time": 414.875,
          "velocity": 1
        },
        {
          "duration": 0.3385416666666856,
          "durationTicks": 325,
          "midi": 61,
          "name": "C#4",
          "ticks": 398400,
          "time": 415,
          "velocity": 1
        },
        {
          "duration": 0.3385416666666856,
          "durationTicks": 325,
          "midi": 66,
          "name": "F#4",
          "ticks": 398400,
          "time": 415,
          "velocity": 1
        },
        {
          "duration": 1.0500000000000114,
          "durationTicks": 1008,
          "midi": 50,
          "name": "D3",
          "ticks": 398760,
          "time": 415.375,
          "velocity": 1
        },
        {
          "duration": 1.0500000000000114,
          "durationTicks": 1008,
          "midi": 60,
          "name": "C4",
          "ticks": 398760,
          "time": 415.375,
          "velocity": 1
        },
        {
          "duration": 1.0500000000000114,
          "durationTicks": 1008,
          "midi": 65,
          "name": "F4",
          "ticks": 398760,
          "time": 415.375,
          "velocity": 1
        },
        {
          "duration": 0.1885416666666515,
          "durationTicks": 181,
          "midi": 77,
          "name": "F5",
          "ticks": 399120,
          "time": 415.75,
          "velocity": 1
        },
        {
          "duration": 0.24166666666667425,
          "durationTicks": 232,
          "midi": 79,
          "name": "G5",
          "ticks": 399360,
          "time": 416,
          "velocity": 1
        },
        {
          "duration": 0.1885416666666515,
          "durationTicks": 181,
          "midi": 80,
          "name": "G#5",
          "ticks": 399600,
          "time": 416.25,
          "velocity": 1
        },
        {
          "duration": 0.3114583333333485,
          "durationTicks": 299,
          "midi": 79,
          "name": "G5",
          "ticks": 399720,
          "time": 416.375,
          "velocity": 1
        },
        {
          "duration": 0.45937500000002274,
          "durationTicks": 441,
          "midi": 51,
          "name": "D#3",
          "ticks": 400080,
          "time": 416.75,
          "velocity": 1
        },
        {
          "duration": 0.45937500000002274,
          "durationTicks": 441,
          "midi": 60,
          "name": "C4",
          "ticks": 400080,
          "time": 416.75,
          "velocity": 1
        },
        {
          "duration": 0.45937500000002274,
          "durationTicks": 441,
          "midi": 65,
          "name": "F4",
          "ticks": 400080,
          "time": 416.75,
          "velocity": 1
        },
        {
          "duration": 0.15937500000001137,
          "durationTicks": 153,
          "midi": 77,
          "name": "F5",
          "ticks": 400080,
          "time": 416.75,
          "velocity": 1
        },
        {
          "duration": 0.30000000000001137,
          "durationTicks": 288,
          "midi": 79,
          "name": "G5",
          "ticks": 400200,
          "time": 416.875,
          "velocity": 1
        },
        {
          "duration": 1.8302083333333599,
          "durationTicks": 1757,
          "midi": 50,
          "name": "D3",
          "ticks": 400440,
          "time": 417.125,
          "velocity": 1
        },
        {
          "duration": 1.8302083333333599,
          "durationTicks": 1757,
          "midi": 60,
          "name": "C4",
          "ticks": 400440,
          "time": 417.125,
          "velocity": 1
        },
        {
          "duration": 0.9302083333333258,
          "durationTicks": 893,
          "midi": 65,
          "name": "F4",
          "ticks": 400440,
          "time": 417.125,
          "velocity": 1
        },
        {
          "duration": 0.4208333333333485,
          "durationTicks": 404,
          "midi": 77,
          "name": "F5",
          "ticks": 400440,
          "time": 417.125,
          "velocity": 1
        },
        {
          "duration": 0.19062500000001137,
          "durationTicks": 183,
          "midi": 72,
          "name": "C5",
          "ticks": 400920,
          "time": 417.625,
          "velocity": 1
        },
        {
          "duration": 0.25937499999997726,
          "durationTicks": 249,
          "midi": 74,
          "name": "D5",
          "ticks": 401160,
          "time": 417.875,
          "velocity": 1
        },
        {
          "duration": 0.8999999999999773,
          "durationTicks": 864,
          "midi": 66,
          "name": "F#4",
          "ticks": 401400,
          "time": 418.125,
          "velocity": 1
        },
        {
          "duration": 0.44999999999998863,
          "durationTicks": 432,
          "midi": 70,
          "name": "A#4",
          "ticks": 401400,
          "time": 418.125,
          "velocity": 1
        },
        {
          "duration": 0.14999999999997726,
          "durationTicks": 144,
          "midi": 67,
          "name": "G4",
          "ticks": 401880,
          "time": 418.625,
          "velocity": 1
        },
        {
          "duration": 0.30000000000001137,
          "durationTicks": 288,
          "midi": 72,
          "name": "C5",
          "ticks": 402000,
          "time": 418.75,
          "velocity": 1
        },
        {
          "duration": 1.4916666666666742,
          "durationTicks": 1432,
          "midi": 51,
          "name": "D#3",
          "ticks": 402240,
          "time": 419,
          "velocity": 1
        },
        {
          "duration": 0.46145833333332575,
          "durationTicks": 443,
          "midi": 62,
          "name": "D4",
          "ticks": 402240,
          "time": 419,
          "velocity": 1
        },
        {
          "duration": 1.3322916666666629,
          "durationTicks": 1279,
          "midi": 67,
          "name": "G4",
          "ticks": 402240,
          "time": 419,
          "velocity": 1
        },
        {
          "duration": 0.8208333333333258,
          "durationTicks": 788,
          "midi": 70,
          "name": "A#4",
          "ticks": 402240,
          "time": 419,
          "velocity": 1
        },
        {
          "duration": 0.8708333333333371,
          "durationTicks": 836,
          "midi": 61,
          "name": "C#4",
          "ticks": 402720,
          "time": 419.5,
          "velocity": 1
        },
        {
          "duration": 0.15937500000001137,
          "durationTicks": 153,
          "midi": 62,
          "name": "D4",
          "ticks": 403560,
          "time": 420.375,
          "velocity": 1
        },
        {
          "duration": 0.15937500000001137,
          "durationTicks": 153,
          "midi": 77,
          "name": "F5",
          "ticks": 403560,
          "time": 420.375,
          "velocity": 1
        },
        {
          "duration": 0.27916666666664014,
          "durationTicks": 268,
          "midi": 51,
          "name": "D#3",
          "ticks": 403680,
          "time": 420.5,
          "velocity": 1
        },
        {
          "duration": 0.27916666666664014,
          "durationTicks": 268,
          "midi": 63,
          "name": "D#4",
          "ticks": 403680,
          "time": 420.5,
          "velocity": 1
        },
        {
          "duration": 0.27916666666664014,
          "durationTicks": 268,
          "midi": 79,
          "name": "G5",
          "ticks": 403680,
          "time": 420.5,
          "velocity": 1
        },
        {
          "duration": 0.8708333333333371,
          "durationTicks": 836,
          "midi": 50,
          "name": "D3",
          "ticks": 403920,
          "time": 420.75,
          "velocity": 1
        },
        {
          "duration": 0.8708333333333371,
          "durationTicks": 836,
          "midi": 60,
          "name": "C4",
          "ticks": 403920,
          "time": 420.75,
          "velocity": 1
        },
        {
          "duration": 0.8708333333333371,
          "durationTicks": 836,
          "midi": 65,
          "name": "F4",
          "ticks": 403920,
          "time": 420.75,
          "velocity": 1
        },
        {
          "duration": 0.4208333333333485,
          "durationTicks": 404,
          "midi": 77,
          "name": "F5",
          "ticks": 403920,
          "time": 420.75,
          "velocity": 1
        },
        {
          "duration": 0.17916666666667425,
          "durationTicks": 172,
          "midi": 73,
          "name": "C#5",
          "ticks": 404280,
          "time": 421.125,
          "velocity": 1
        },
        {
          "duration": 0.2708333333333144,
          "durationTicks": 260,
          "midi": 74,
          "name": "D5",
          "ticks": 404520,
          "time": 421.375,
          "velocity": 1
        },
        {
          "duration": 0.8999999999999773,
          "durationTicks": 864,
          "midi": 44,
          "name": "G#2",
          "ticks": 404760,
          "time": 421.625,
          "velocity": 1
        },
        {
          "duration": 0.8999999999999773,
          "durationTicks": 864,
          "midi": 54,
          "name": "F#3",
          "ticks": 404760,
          "time": 421.625,
          "velocity": 1
        },
        {
          "duration": 0.4791666666666856,
          "durationTicks": 460,
          "midi": 60,
          "name": "C4",
          "ticks": 404760,
          "time": 421.625,
          "velocity": 1
        },
        {
          "duration": 0.1708333333333485,
          "durationTicks": 164,
          "midi": 69,
          "name": "A4",
          "ticks": 404760,
          "time": 421.625,
          "velocity": 1
        },
        {
          "duration": 0.30937499999998863,
          "durationTicks": 297,
          "midi": 66,
          "name": "F#4",
          "ticks": 404880,
          "time": 421.75,
          "velocity": 1
        },
        {
          "duration": 0.4208333333333485,
          "durationTicks": 404,
          "midi": 62,
          "name": "D4",
          "ticks": 405240,
          "time": 422.125,
          "velocity": 1
        },
        {
          "duration": 0.4208333333333485,
          "durationTicks": 404,
          "midi": 72,
          "name": "C5",
          "ticks": 405240,
          "time": 422.125,
          "velocity": 1
        },
        {
          "duration": 0.6000000000000227,
          "durationTicks": 576,
          "midi": 43,
          "name": "G2",
          "ticks": 405600,
          "time": 422.5,
          "velocity": 1
        },
        {
          "duration": 0.6000000000000227,
          "durationTicks": 576,
          "midi": 53,
          "name": "F3",
          "ticks": 405600,
          "time": 422.5,
          "velocity": 1
        },
        {
          "duration": 0.6000000000000227,
          "durationTicks": 576,
          "midi": 58,
          "name": "A#3",
          "ticks": 405600,
          "time": 422.5,
          "velocity": 1
        },
        {
          "duration": 0.47083333333335986,
          "durationTicks": 452,
          "midi": 70,
          "name": "A#4",
          "ticks": 405600,
          "time": 422.5,
          "velocity": 1
        },
        {
          "duration": 0.13020833333331439,
          "durationTicks": 125,
          "midi": 69,
          "name": "A4",
          "ticks": 406080,
          "time": 423,
          "velocity": 1
        },
        {
          "duration": 0.32083333333332575,
          "durationTicks": 308,
          "midi": 77,
          "name": "F5",
          "ticks": 406200,
          "time": 423.125,
          "velocity": 1
        },
        {
          "duration": 0.13020833333331439,
          "durationTicks": 125,
          "midi": 79,
          "name": "G5",
          "ticks": 406560,
          "time": 423.5,
          "velocity": 1
        },
        {
          "duration": 0.6999999999999886,
          "durationTicks": 672,
          "midi": 51,
          "name": "D#3",
          "ticks": 406680,
          "time": 423.625,
          "velocity": 1
        },
        {
          "duration": 0.6999999999999886,
          "durationTicks": 672,
          "midi": 60,
          "name": "C4",
          "ticks": 406680,
          "time": 423.625,
          "velocity": 1
        },
        {
          "duration": 0.6999999999999886,
          "durationTicks": 672,
          "midi": 66,
          "name": "F#4",
          "ticks": 406680,
          "time": 423.625,
          "velocity": 1
        },
        {
          "duration": 0.12083333333333712,
          "durationTicks": 116,
          "midi": 80,
          "name": "G#5",
          "ticks": 406680,
          "time": 423.625,
          "velocity": 1
        },
        {
          "duration": 0.12083333333333712,
          "durationTicks": 116,
          "midi": 82,
          "name": "A#5",
          "ticks": 406800,
          "time": 423.75,
          "velocity": 1
        },
        {
          "duration": 0.11874999999997726,
          "durationTicks": 114,
          "midi": 80,
          "name": "G#5",
          "ticks": 406920,
          "time": 423.875,
          "velocity": 1
        },
        {
          "duration": 0.34166666666664014,
          "durationTicks": 328,
          "midi": 78,
          "name": "F#5",
          "ticks": 407040,
          "time": 424,
          "velocity": 1
        },
        {
          "duration": 1.6791666666666742,
          "durationTicks": 1612,
          "midi": 50,
          "name": "D3",
          "ticks": 407400,
          "time": 424.375,
          "velocity": 1
        },
        {
          "duration": 1.6791666666666742,
          "durationTicks": 1612,
          "midi": 60,
          "name": "C4",
          "ticks": 407400,
          "time": 424.375,
          "velocity": 1
        },
        {
          "duration": 0.42916666666667425,
          "durationTicks": 412,
          "midi": 65,
          "name": "F4",
          "ticks": 407400,
          "time": 424.375,
          "velocity": 1
        },
        {
          "duration": 0.42916666666667425,
          "durationTicks": 412,
          "midi": 77,
          "name": "F5",
          "ticks": 407400,
          "time": 424.375,
          "velocity": 1
        },
        {
          "duration": 1.25,
          "durationTicks": 1200,
          "midi": 66,
          "name": "F#4",
          "ticks": 407760,
          "time": 424.75,
          "velocity": 1
        },
        {
          "duration": 0.2916666666666856,
          "durationTicks": 280,
          "midi": 82,
          "name": "A#5",
          "ticks": 407760,
          "time": 424.75,
          "velocity": 1
        },
        {
          "duration": 0.1708333333333485,
          "durationTicks": 164,
          "midi": 85,
          "name": "C#6",
          "ticks": 408000,
          "time": 425,
          "velocity": 1
        },
        {
          "duration": 0.15937500000001137,
          "durationTicks": 153,
          "midi": 86,
          "name": "D6",
          "ticks": 408240,
          "time": 425.25,
          "velocity": 1
        },
        {
          "duration": 0.29062499999997726,
          "durationTicks": 279,
          "midi": 84,
          "name": "C6",
          "ticks": 408360,
          "time": 425.375,
          "velocity": 1
        },
        {
          "duration": 0.3385416666666856,
          "durationTicks": 325,
          "midi": 82,
          "name": "A#5",
          "ticks": 408600,
          "time": 425.625,
          "velocity": 1
        },
        {
          "duration": 0.7593749999999773,
          "durationTicks": 729,
          "midi": 61,
          "name": "C#4",
          "ticks": 409200,
          "time": 426.25,
          "velocity": 1
        },
        {
          "duration": 0.7593749999999773,
          "durationTicks": 729,
          "midi": 66,
          "name": "F#4",
          "ticks": 409200,
          "time": 426.25,
          "velocity": 1
        },
        {
          "duration": 0.38854166666664014,
          "durationTicks": 373,
          "midi": 82,
          "name": "A#5",
          "ticks": 409200,
          "time": 426.25,
          "velocity": 1
        },
        {
          "duration": 0.35000000000002274,
          "durationTicks": 336,
          "midi": 51,
          "name": "D#3",
          "ticks": 409560,
          "time": 426.625,
          "velocity": 1
        },
        {
          "duration": 0.3708333333333371,
          "durationTicks": 356,
          "midi": 79,
          "name": "G5",
          "ticks": 409560,
          "time": 426.625,
          "velocity": 1
        },
        {
          "duration": 0.44062500000001137,
          "durationTicks": 423,
          "midi": 50,
          "name": "D3",
          "ticks": 409920,
          "time": 427,
          "velocity": 1
        },
        {
          "duration": 0.44062500000001137,
          "durationTicks": 423,
          "midi": 60,
          "name": "C4",
          "ticks": 409920,
          "time": 427,
          "velocity": 1
        },
        {
          "duration": 0.44062500000001137,
          "durationTicks": 423,
          "midi": 65,
          "name": "F4",
          "ticks": 409920,
          "time": 427,
          "velocity": 1
        },
        {
          "duration": 0.44062500000001137,
          "durationTicks": 423,
          "midi": 77,
          "name": "F5",
          "ticks": 409920,
          "time": 427,
          "velocity": 1
        },
        {
          "duration": 0.41874999999998863,
          "durationTicks": 402,
          "midi": 42,
          "name": "F#2",
          "ticks": 410400,
          "time": 427.5,
          "velocity": 1
        },
        {
          "duration": 0.41874999999998863,
          "durationTicks": 402,
          "midi": 51,
          "name": "D#3",
          "ticks": 410400,
          "time": 427.5,
          "velocity": 1
        },
        {
          "duration": 0.41874999999998863,
          "durationTicks": 402,
          "midi": 62,
          "name": "D4",
          "ticks": 410400,
          "time": 427.5,
          "velocity": 1
        },
        {
          "duration": 0.41874999999998863,
          "durationTicks": 402,
          "midi": 66,
          "name": "F#4",
          "ticks": 410400,
          "time": 427.5,
          "velocity": 1
        },
        {
          "duration": 0.41874999999998863,
          "durationTicks": 402,
          "midi": 70,
          "name": "A#4",
          "ticks": 410400,
          "time": 427.5,
          "velocity": 1
        },
        {
          "duration": 0.41874999999998863,
          "durationTicks": 402,
          "midi": 74,
          "name": "D5",
          "ticks": 410400,
          "time": 427.5,
          "velocity": 1
        },
        {
          "duration": 0.4208333333333485,
          "durationTicks": 404,
          "midi": 43,
          "name": "G2",
          "ticks": 410760,
          "time": 427.875,
          "velocity": 1
        },
        {
          "duration": 0.4208333333333485,
          "durationTicks": 404,
          "midi": 50,
          "name": "D3",
          "ticks": 410760,
          "time": 427.875,
          "velocity": 1
        },
        {
          "duration": 0.4208333333333485,
          "durationTicks": 404,
          "midi": 58,
          "name": "A#3",
          "ticks": 410760,
          "time": 427.875,
          "velocity": 1
        },
        {
          "duration": 0.1708333333333485,
          "durationTicks": 164,
          "midi": 65,
          "name": "F4",
          "ticks": 410760,
          "time": 427.875,
          "velocity": 1
        },
        {
          "duration": 0.4208333333333485,
          "durationTicks": 404,
          "midi": 69,
          "name": "A4",
          "ticks": 410760,
          "time": 427.875,
          "velocity": 1
        },
        {
          "duration": 0.4208333333333485,
          "durationTicks": 404,
          "midi": 72,
          "name": "C5",
          "ticks": 410760,
          "time": 427.875,
          "velocity": 1
        },
        {
          "duration": 0.7302083333333371,
          "durationTicks": 701,
          "midi": 43,
          "name": "G2",
          "ticks": 411120,
          "time": 428.25,
          "velocity": 1
        },
        {
          "duration": 0.2614583333333371,
          "durationTicks": 251,
          "midi": 53,
          "name": "F3",
          "ticks": 411120,
          "time": 428.25,
          "velocity": 1
        },
        {
          "duration": 0.2614583333333371,
          "durationTicks": 251,
          "midi": 62,
          "name": "D4",
          "ticks": 411120,
          "time": 428.25,
          "velocity": 1
        },
        {
          "duration": 0.2614583333333371,
          "durationTicks": 251,
          "midi": 69,
          "name": "A4",
          "ticks": 411120,
          "time": 428.25,
          "velocity": 1
        },
        {
          "duration": 0.23854166666666288,
          "durationTicks": 229,
          "midi": 50,
          "name": "D3",
          "ticks": 411360,
          "time": 428.5,
          "velocity": 1
        },
        {
          "duration": 0.46875,
          "durationTicks": 450,
          "midi": 58,
          "name": "A#3",
          "ticks": 411360,
          "time": 428.5,
          "velocity": 1
        },
        {
          "duration": 0.23854166666666288,
          "durationTicks": 229,
          "midi": 65,
          "name": "F4",
          "ticks": 411360,
          "time": 428.5,
          "velocity": 1
        },
        {
          "duration": 0.23020833333333712,
          "durationTicks": 221,
          "midi": 49,
          "name": "C#3",
          "ticks": 411600,
          "time": 428.75,
          "velocity": 1
        },
        {
          "duration": 0.23020833333333712,
          "durationTicks": 221,
          "midi": 62,
          "name": "D4",
          "ticks": 411600,
          "time": 428.75,
          "velocity": 1
        },
        {
          "duration": 0.23020833333333712,
          "durationTicks": 221,
          "midi": 66,
          "name": "F#4",
          "ticks": 411600,
          "time": 428.75,
          "velocity": 1
        },
        {
          "duration": 0.34166666666664014,
          "durationTicks": 328,
          "midi": 48,
          "name": "C3",
          "ticks": 411840,
          "time": 429,
          "velocity": 1
        },
        {
          "duration": 1.6416666666666515,
          "durationTicks": 1576,
          "midi": 58,
          "name": "A#3",
          "ticks": 411840,
          "time": 429,
          "velocity": 1
        },
        {
          "duration": 1.0614583333333485,
          "durationTicks": 1019,
          "midi": 62,
          "name": "D4",
          "ticks": 411840,
          "time": 429,
          "velocity": 1
        },
        {
          "duration": 0.34166666666664014,
          "durationTicks": 328,
          "midi": 67,
          "name": "G4",
          "ticks": 411840,
          "time": 429,
          "velocity": 1
        },
        {
          "duration": 0.25,
          "durationTicks": 240,
          "midi": 52,
          "name": "E3",
          "ticks": 412200,
          "time": 429.375,
          "velocity": 1
        },
        {
          "duration": 0.25,
          "durationTicks": 240,
          "midi": 69,
          "name": "A4",
          "ticks": 412200,
          "time": 429.375,
          "velocity": 1
        },
        {
          "duration": 0.25,
          "durationTicks": 240,
          "midi": 48,
          "name": "C3",
          "ticks": 412440,
          "time": 429.625,
          "velocity": 1
        },
        {
          "duration": 0.47083333333335986,
          "durationTicks": 452,
          "midi": 67,
          "name": "G4",
          "ticks": 412440,
          "time": 429.625,
          "velocity": 1
        },
        {
          "duration": 0.8000000000000114,
          "durationTicks": 768,
          "midi": 51,
          "name": "D#3",
          "ticks": 412680,
          "time": 429.875,
          "velocity": 1
        },
        {
          "duration": 0.4802083333333371,
          "durationTicks": 461,
          "midi": 53,
          "name": "F3",
          "ticks": 413760,
          "time": 431,
          "velocity": 1
        },
        {
          "duration": 0.4802083333333371,
          "durationTicks": 461,
          "midi": 58,
          "name": "A#3",
          "ticks": 413760,
          "time": 431,
          "velocity": 1
        },
        {
          "duration": 0.4802083333333371,
          "durationTicks": 461,
          "midi": 63,
          "name": "D#4",
          "ticks": 413760,
          "time": 431,
          "velocity": 1
        },
        {
          "duration": 0.4802083333333371,
          "durationTicks": 461,
          "midi": 67,
          "name": "G4",
          "ticks": 413760,
          "time": 431,
          "velocity": 1
        },
        {
          "duration": 0.4802083333333371,
          "durationTicks": 461,
          "midi": 74,
          "name": "D5",
          "ticks": 413760,
          "time": 431,
          "velocity": 1
        },
        {
          "duration": 0.4802083333333371,
          "durationTicks": 461,
          "midi": 77,
          "name": "F5",
          "ticks": 413760,
          "time": 431,
          "velocity": 1
        },
        {
          "duration": 1.3000000000000114,
          "durationTicks": 1248,
          "midi": 53,
          "name": "F3",
          "ticks": 414240,
          "time": 431.5,
          "velocity": 1
        },
        {
          "duration": 1.3000000000000114,
          "durationTicks": 1248,
          "midi": 57,
          "name": "A3",
          "ticks": 414240,
          "time": 431.5,
          "velocity": 1
        },
        {
          "duration": 1.3000000000000114,
          "durationTicks": 1248,
          "midi": 63,
          "name": "D#4",
          "ticks": 414240,
          "time": 431.5,
          "velocity": 1
        },
        {
          "duration": 1.3000000000000114,
          "durationTicks": 1248,
          "midi": 67,
          "name": "G4",
          "ticks": 414240,
          "time": 431.5,
          "velocity": 1
        },
        {
          "duration": 0.4208333333333485,
          "durationTicks": 404,
          "midi": 73,
          "name": "C#5",
          "ticks": 414240,
          "time": 431.5,
          "velocity": 1
        },
        {
          "duration": 0.4208333333333485,
          "durationTicks": 404,
          "midi": 77,
          "name": "F5",
          "ticks": 414240,
          "time": 431.5,
          "velocity": 1
        },
        {
          "duration": 0.8802083333333144,
          "durationTicks": 845,
          "midi": 73,
          "name": "C#5",
          "ticks": 414600,
          "time": 431.875,
          "velocity": 1
        },
        {
          "duration": 0.8802083333333144,
          "durationTicks": 845,
          "midi": 77,
          "name": "F5",
          "ticks": 414600,
          "time": 431.875,
          "velocity": 1
        },
        {
          "duration": 0.6708333333333485,
          "durationTicks": 644,
          "midi": 46,
          "name": "A#2",
          "ticks": 415440,
          "time": 432.75,
          "velocity": 1
        },
        {
          "duration": 1.1916666666666629,
          "durationTicks": 1144,
          "midi": 56,
          "name": "G#3",
          "ticks": 416160,
          "time": 433.5,
          "velocity": 1
        },
        {
          "duration": 0.9208333333333485,
          "durationTicks": 884,
          "midi": 79,
          "name": "G5",
          "ticks": 416160,
          "time": 433.5,
          "velocity": 1
        },
        {
          "duration": 0.9208333333333485,
          "durationTicks": 884,
          "midi": 86,
          "name": "D6",
          "ticks": 416160,
          "time": 433.5,
          "velocity": 1
        },
        {
          "duration": 0.6114583333333599,
          "durationTicks": 587,
          "midi": 60,
          "name": "C4",
          "ticks": 416280,
          "time": 433.625,
          "velocity": 1
        },
        {
          "duration": 0.8208333333333258,
          "durationTicks": 788,
          "midi": 63,
          "name": "D#4",
          "ticks": 416280,
          "time": 433.625,
          "velocity": 1
        },
        {
          "duration": 0.6114583333333599,
          "durationTicks": 587,
          "midi": 72,
          "name": "C5",
          "ticks": 416280,
          "time": 433.625,
          "velocity": 1
        },
        {
          "duration": 0.25937499999997726,
          "durationTicks": 249,
          "midi": 63,
          "name": "D#4",
          "ticks": 417000,
          "time": 434.375,
          "velocity": 1
        },
        {
          "duration": 0.25937499999997726,
          "durationTicks": 249,
          "midi": 72,
          "name": "C5",
          "ticks": 417000,
          "time": 434.375,
          "velocity": 1
        },
        {
          "duration": 0.25937499999997726,
          "durationTicks": 249,
          "midi": 79,
          "name": "G5",
          "ticks": 417000,
          "time": 434.375,
          "velocity": 1
        },
        {
          "duration": 0.2708333333333144,
          "durationTicks": 260,
          "midi": 60,
          "name": "C4",
          "ticks": 417240,
          "time": 434.625,
          "velocity": 1
        },
        {
          "duration": 0.2708333333333144,
          "durationTicks": 260,
          "midi": 68,
          "name": "G#4",
          "ticks": 417240,
          "time": 434.625,
          "velocity": 1
        },
        {
          "duration": 0.2708333333333144,
          "durationTicks": 260,
          "midi": 75,
          "name": "D#5",
          "ticks": 417240,
          "time": 434.625,
          "velocity": 1
        },
        {
          "duration": 0.26875000000001137,
          "durationTicks": 258,
          "midi": 62,
          "name": "D4",
          "ticks": 417480,
          "time": 434.875,
          "velocity": 1
        },
        {
          "duration": 0.5802083333333599,
          "durationTicks": 557,
          "midi": 72,
          "name": "C5",
          "ticks": 417480,
          "time": 434.875,
          "velocity": 1
        },
        {
          "duration": 0.5802083333333599,
          "durationTicks": 557,
          "midi": 77,
          "name": "F5",
          "ticks": 417480,
          "time": 434.875,
          "velocity": 1
        },
        {
          "duration": 0.2916666666666856,
          "durationTicks": 280,
          "midi": 56,
          "name": "G#3",
          "ticks": 417840,
          "time": 435.25,
          "velocity": 1
        },
        {
          "duration": 0.2916666666666856,
          "durationTicks": 280,
          "midi": 46,
          "name": "A#2",
          "ticks": 418080,
          "time": 435.5,
          "velocity": 1
        },
        {
          "duration": 0.6999999999999886,
          "durationTicks": 672,
          "midi": 72,
          "name": "C5",
          "ticks": 418080,
          "time": 435.5,
          "velocity": 1
        },
        {
          "duration": 0.6916666666666629,
          "durationTicks": 664,
          "midi": 77,
          "name": "F5",
          "ticks": 418080,
          "time": 435.5,
          "velocity": 1
        },
        {
          "duration": 0.6999999999999886,
          "durationTicks": 672,
          "midi": 79,
          "name": "G5",
          "ticks": 418080,
          "time": 435.5,
          "velocity": 1
        },
        {
          "duration": 0.6999999999999886,
          "durationTicks": 672,
          "midi": 84,
          "name": "C6",
          "ticks": 418080,
          "time": 435.5,
          "velocity": 1
        },
        {
          "duration": 0.3916666666666515,
          "durationTicks": 376,
          "midi": 56,
          "name": "G#3",
          "ticks": 418440,
          "time": 435.875,
          "velocity": 1
        },
        {
          "duration": 0.9708333333333599,
          "durationTicks": 932,
          "midi": 39,
          "name": "D#2",
          "ticks": 418800,
          "time": 436.25,
          "velocity": 1
        },
        {
          "duration": 0.22083333333335986,
          "durationTicks": 212,
          "midi": 46,
          "name": "A#2",
          "ticks": 418800,
          "time": 436.25,
          "velocity": 1
        },
        {
          "duration": 0.5416666666666856,
          "durationTicks": 520,
          "midi": 72,
          "name": "C5",
          "ticks": 418800,
          "time": 436.25,
          "velocity": 1
        },
        {
          "duration": 0.5416666666666856,
          "durationTicks": 520,
          "midi": 79,
          "name": "G5",
          "ticks": 418800,
          "time": 436.25,
          "velocity": 1
        },
        {
          "duration": 0.5416666666666856,
          "durationTicks": 520,
          "midi": 84,
          "name": "C6",
          "ticks": 418800,
          "time": 436.25,
          "velocity": 1
        },
        {
          "duration": 0.17916666666667425,
          "durationTicks": 172,
          "midi": 48,
          "name": "C3",
          "ticks": 419040,
          "time": 436.5,
          "velocity": 1
        },
        {
          "duration": 0.1416666666666515,
          "durationTicks": 136,
          "midi": 50,
          "name": "D3",
          "ticks": 419160,
          "time": 436.625,
          "velocity": 1
        },
        {
          "duration": 0.20937500000002274,
          "durationTicks": 201,
          "midi": 51,
          "name": "D#3",
          "ticks": 419280,
          "time": 436.75,
          "velocity": 1
        },
        {
          "duration": 0.43020833333332575,
          "durationTicks": 413,
          "midi": 72,
          "name": "C5",
          "ticks": 419280,
          "time": 436.75,
          "velocity": 1
        },
        {
          "duration": 0.43020833333332575,
          "durationTicks": 413,
          "midi": 75,
          "name": "D#5",
          "ticks": 419280,
          "time": 436.75,
          "velocity": 1
        },
        {
          "duration": 0.43020833333332575,
          "durationTicks": 413,
          "midi": 82,
          "name": "A#5",
          "ticks": 419280,
          "time": 436.75,
          "velocity": 1
        },
        {
          "duration": 0.22083333333335986,
          "durationTicks": 212,
          "midi": 55,
          "name": "G3",
          "ticks": 419520,
          "time": 437,
          "velocity": 1
        },
        {
          "duration": 0.609375,
          "durationTicks": 585,
          "midi": 67,
          "name": "G4",
          "ticks": 419760,
          "time": 437.25,
          "velocity": 1
        },
        {
          "duration": 0.609375,
          "durationTicks": 585,
          "midi": 73,
          "name": "C#5",
          "ticks": 419760,
          "time": 437.25,
          "velocity": 1
        },
        {
          "duration": 0.609375,
          "durationTicks": 585,
          "midi": 79,
          "name": "G5",
          "ticks": 419760,
          "time": 437.25,
          "velocity": 1
        },
        {
          "duration": 0.23229166666664014,
          "durationTicks": 223,
          "midi": 52,
          "name": "E3",
          "ticks": 419880,
          "time": 437.375,
          "velocity": 1
        },
        {
          "duration": 0.21875,
          "durationTicks": 210,
          "midi": 58,
          "name": "A#3",
          "ticks": 420120,
          "time": 437.625,
          "velocity": 1
        },
        {
          "duration": 0.35000000000002274,
          "durationTicks": 336,
          "midi": 61,
          "name": "C#4",
          "ticks": 420360,
          "time": 437.875,
          "velocity": 1
        },
        {
          "duration": 0.35000000000002274,
          "durationTicks": 336,
          "midi": 67,
          "name": "G4",
          "ticks": 420360,
          "time": 437.875,
          "velocity": 1
        },
        {
          "duration": 0.35000000000002274,
          "durationTicks": 336,
          "midi": 70,
          "name": "A#4",
          "ticks": 420360,
          "time": 437.875,
          "velocity": 1
        },
        {
          "duration": 0.35000000000002274,
          "durationTicks": 336,
          "midi": 82,
          "name": "A#5",
          "ticks": 420360,
          "time": 437.875,
          "velocity": 1
        },
        {
          "duration": 1.75,
          "durationTicks": 1680,
          "midi": 58,
          "name": "A#3",
          "ticks": 420720,
          "time": 438.25,
          "velocity": 1
        },
        {
          "duration": 1.75,
          "durationTicks": 1680,
          "midi": 62,
          "name": "D4",
          "ticks": 420720,
          "time": 438.25,
          "velocity": 1
        },
        {
          "duration": 1.75,
          "durationTicks": 1680,
          "midi": 69,
          "name": "A4",
          "ticks": 420720,
          "time": 438.25,
          "velocity": 1
        },
        {
          "duration": 1.75,
          "durationTicks": 1680,
          "midi": 74,
          "name": "D5",
          "ticks": 420720,
          "time": 438.25,
          "velocity": 1
        },
        {
          "duration": 1.75,
          "durationTicks": 1680,
          "midi": 77,
          "name": "F5",
          "ticks": 420720,
          "time": 438.25,
          "velocity": 1
        },
        {
          "duration": 0.5322916666666515,
          "durationTicks": 511,
          "midi": 42,
          "name": "F#2",
          "ticks": 422400,
          "time": 440,
          "velocity": 1
        },
        {
          "duration": 0.5322916666666515,
          "durationTicks": 511,
          "midi": 51,
          "name": "D#3",
          "ticks": 422400,
          "time": 440,
          "velocity": 1
        },
        {
          "duration": 0.5322916666666515,
          "durationTicks": 511,
          "midi": 62,
          "name": "D4",
          "ticks": 422400,
          "time": 440,
          "velocity": 1
        },
        {
          "duration": 0.5322916666666515,
          "durationTicks": 511,
          "midi": 69,
          "name": "A4",
          "ticks": 422400,
          "time": 440,
          "velocity": 1
        },
        {
          "duration": 0.39999999999997726,
          "durationTicks": 384,
          "midi": 74,
          "name": "D5",
          "ticks": 422400,
          "time": 440,
          "velocity": 1
        },
        {
          "duration": 0.8687499999999773,
          "durationTicks": 834,
          "midi": 43,
          "name": "G2",
          "ticks": 422880,
          "time": 440.5,
          "velocity": 1
        },
        {
          "duration": 0.8687499999999773,
          "durationTicks": 834,
          "midi": 50,
          "name": "D3",
          "ticks": 422880,
          "time": 440.5,
          "velocity": 1
        },
        {
          "duration": 0.8687499999999773,
          "durationTicks": 834,
          "midi": 58,
          "name": "A#3",
          "ticks": 422880,
          "time": 440.5,
          "velocity": 1
        },
        {
          "duration": 0.8687499999999773,
          "durationTicks": 834,
          "midi": 62,
          "name": "D4",
          "ticks": 422880,
          "time": 440.5,
          "velocity": 1
        },
        {
          "duration": 0.8687499999999773,
          "durationTicks": 834,
          "midi": 69,
          "name": "A4",
          "ticks": 422880,
          "time": 440.5,
          "velocity": 1
        },
        {
          "duration": 0.6114583333333599,
          "durationTicks": 587,
          "midi": 37,
          "name": "C#2",
          "ticks": 423720,
          "time": 441.375,
          "velocity": 1
        },
        {
          "duration": 0.6114583333333599,
          "durationTicks": 587,
          "midi": 44,
          "name": "G#2",
          "ticks": 423720,
          "time": 441.375,
          "velocity": 1
        },
        {
          "duration": 0.6114583333333599,
          "durationTicks": 587,
          "midi": 51,
          "name": "D#3",
          "ticks": 423720,
          "time": 441.375,
          "velocity": 1
        },
        {
          "duration": 0.6114583333333599,
          "durationTicks": 587,
          "midi": 53,
          "name": "F3",
          "ticks": 423720,
          "time": 441.375,
          "velocity": 1
        },
        {
          "duration": 0.6114583333333599,
          "durationTicks": 587,
          "midi": 59,
          "name": "B3",
          "ticks": 423720,
          "time": 441.375,
          "velocity": 1
        },
        {
          "duration": 0.6114583333333599,
          "durationTicks": 587,
          "midi": 63,
          "name": "D#4",
          "ticks": 423720,
          "time": 441.375,
          "velocity": 1
        },
        {
          "duration": 0.4385416666666515,
          "durationTicks": 421,
          "midi": 43,
          "name": "G2",
          "ticks": 424320,
          "time": 442,
          "velocity": 1
        },
        {
          "duration": 1.6802083333333258,
          "durationTicks": 1613,
          "midi": 52,
          "name": "E3",
          "ticks": 424320,
          "time": 442,
          "velocity": 1
        },
        {
          "duration": 1.6802083333333258,
          "durationTicks": 1613,
          "midi": 58,
          "name": "A#3",
          "ticks": 424320,
          "time": 442,
          "velocity": 1
        },
        {
          "duration": 1.6802083333333258,
          "durationTicks": 1613,
          "midi": 62,
          "name": "D4",
          "ticks": 424320,
          "time": 442,
          "velocity": 1
        },
        {
          "duration": 0.4385416666666515,
          "durationTicks": 421,
          "midi": 64,
          "name": "E4",
          "ticks": 424320,
          "time": 442,
          "velocity": 1
        },
        {
          "duration": 1.0593749999999886,
          "durationTicks": 1017,
          "midi": 36,
          "name": "C2",
          "ticks": 424920,
          "time": 442.625,
          "velocity": 1
        },
        {
          "duration": 0.12916666666666288,
          "durationTicks": 124,
          "midi": 72,
          "name": "C5",
          "ticks": 425880,
          "time": 443.625,
          "velocity": 1
        },
        {
          "duration": 0.12916666666666288,
          "durationTicks": 124,
          "midi": 78,
          "name": "F#5",
          "ticks": 425880,
          "time": 443.625,
          "velocity": 1
        },
        {
          "duration": 0.22083333333335986,
          "durationTicks": 212,
          "midi": 73,
          "name": "C#5",
          "ticks": 426000,
          "time": 443.75,
          "velocity": 1
        },
        {
          "duration": 0.22083333333335986,
          "durationTicks": 212,
          "midi": 76,
          "name": "E5",
          "ticks": 426000,
          "time": 443.75,
          "velocity": 1
        },
        {
          "duration": 0.22083333333335986,
          "durationTicks": 212,
          "midi": 79,
          "name": "G5",
          "ticks": 426000,
          "time": 443.75,
          "velocity": 1
        },
        {
          "duration": 0.8093749999999886,
          "durationTicks": 777,
          "midi": 49,
          "name": "C#3",
          "ticks": 426240,
          "time": 444,
          "velocity": 1
        },
        {
          "duration": 0.8093749999999886,
          "durationTicks": 777,
          "midi": 58,
          "name": "A#3",
          "ticks": 426240,
          "time": 444,
          "velocity": 1
        },
        {
          "duration": 0.8093749999999886,
          "durationTicks": 777,
          "midi": 64,
          "name": "E4",
          "ticks": 426240,
          "time": 444,
          "velocity": 1
        },
        {
          "duration": 0.22916666666668561,
          "durationTicks": 220,
          "midi": 75,
          "name": "D#5",
          "ticks": 426240,
          "time": 444,
          "velocity": 1
        },
        {
          "duration": 0.22916666666668561,
          "durationTicks": 220,
          "midi": 78,
          "name": "F#5",
          "ticks": 426240,
          "time": 444,
          "velocity": 1
        },
        {
          "duration": 0.22916666666668561,
          "durationTicks": 220,
          "midi": 81,
          "name": "A5",
          "ticks": 426240,
          "time": 444,
          "velocity": 1
        },
        {
          "duration": 0.23020833333333712,
          "durationTicks": 221,
          "midi": 76,
          "name": "E5",
          "ticks": 426480,
          "time": 444.25,
          "velocity": 1
        },
        {
          "duration": 0.24166666666667425,
          "durationTicks": 232,
          "midi": 79,
          "name": "G5",
          "ticks": 426480,
          "time": 444.25,
          "velocity": 1
        },
        {
          "duration": 0.24166666666667425,
          "durationTicks": 232,
          "midi": 82,
          "name": "A#5",
          "ticks": 426480,
          "time": 444.25,
          "velocity": 1
        },
        {
          "duration": 0.3385416666666856,
          "durationTicks": 325,
          "midi": 78,
          "name": "F#5",
          "ticks": 426720,
          "time": 444.5,
          "velocity": 1
        },
        {
          "duration": 0.3385416666666856,
          "durationTicks": 325,
          "midi": 81,
          "name": "A5",
          "ticks": 426720,
          "time": 444.5,
          "velocity": 1
        },
        {
          "duration": 0.3385416666666856,
          "durationTicks": 325,
          "midi": 84,
          "name": "C6",
          "ticks": 426720,
          "time": 444.5,
          "velocity": 1
        },
        {
          "duration": 0.7614583333333371,
          "durationTicks": 731,
          "midi": 50,
          "name": "D3",
          "ticks": 426960,
          "time": 444.75,
          "velocity": 1
        },
        {
          "duration": 0.7614583333333371,
          "durationTicks": 731,
          "midi": 60,
          "name": "C4",
          "ticks": 426960,
          "time": 444.75,
          "velocity": 1
        },
        {
          "duration": 0.7614583333333371,
          "durationTicks": 731,
          "midi": 65,
          "name": "F4",
          "ticks": 426960,
          "time": 444.75,
          "velocity": 1
        },
        {
          "duration": 0.7614583333333371,
          "durationTicks": 731,
          "midi": 77,
          "name": "F5",
          "ticks": 426960,
          "time": 444.75,
          "velocity": 1
        },
        {
          "duration": 0.7614583333333371,
          "durationTicks": 731,
          "midi": 82,
          "name": "A#5",
          "ticks": 426960,
          "time": 444.75,
          "velocity": 1
        },
        {
          "duration": 0.7614583333333371,
          "durationTicks": 731,
          "midi": 86,
          "name": "D6",
          "ticks": 426960,
          "time": 444.75,
          "velocity": 1
        },
        {
          "duration": 0.7385416666666629,
          "durationTicks": 709,
          "midi": 72,
          "name": "C5",
          "ticks": 427680,
          "time": 445.5,
          "velocity": 1
        },
        {
          "duration": 0.08854166666668561,
          "durationTicks": 85,
          "midi": 73,
          "name": "C#5",
          "ticks": 427680,
          "time": 445.5,
          "velocity": 1
        },
        {
          "duration": 0.7385416666666629,
          "durationTicks": 709,
          "midi": 79,
          "name": "G5",
          "ticks": 427680,
          "time": 445.5,
          "velocity": 1
        },
        {
          "duration": 0.6499999999999773,
          "durationTicks": 624,
          "midi": 74,
          "name": "D5",
          "ticks": 427800,
          "time": 445.625,
          "velocity": 1
        },
        {
          "duration": 0.4416666666666629,
          "durationTicks": 424,
          "midi": 43,
          "name": "G2",
          "ticks": 428400,
          "time": 446.25,
          "velocity": 1
        },
        {
          "duration": 0.4416666666666629,
          "durationTicks": 424,
          "midi": 53,
          "name": "F3",
          "ticks": 428400,
          "time": 446.25,
          "velocity": 1
        },
        {
          "duration": 0.4416666666666629,
          "durationTicks": 424,
          "midi": 69,
          "name": "A4",
          "ticks": 428400,
          "time": 446.25,
          "velocity": 1
        },
        {
          "duration": 0.4416666666666629,
          "durationTicks": 424,
          "midi": 77,
          "name": "F5",
          "ticks": 428400,
          "time": 446.25,
          "velocity": 1
        },
        {
          "duration": 0.5500000000000114,
          "durationTicks": 528,
          "midi": 43,
          "name": "G2",
          "ticks": 428880,
          "time": 446.75,
          "velocity": 1
        },
        {
          "duration": 0.5500000000000114,
          "durationTicks": 528,
          "midi": 53,
          "name": "F3",
          "ticks": 428880,
          "time": 446.75,
          "velocity": 1
        },
        {
          "duration": 0.5500000000000114,
          "durationTicks": 528,
          "midi": 59,
          "name": "B3",
          "ticks": 428880,
          "time": 446.75,
          "velocity": 1
        },
        {
          "duration": 0.5500000000000114,
          "durationTicks": 528,
          "midi": 65,
          "name": "F4",
          "ticks": 428880,
          "time": 446.75,
          "velocity": 1
        },
        {
          "duration": 0.5500000000000114,
          "durationTicks": 528,
          "midi": 68,
          "name": "G#4",
          "ticks": 428880,
          "time": 446.75,
          "velocity": 1
        },
        {
          "duration": 0.5500000000000114,
          "durationTicks": 528,
          "midi": 74,
          "name": "D5",
          "ticks": 428880,
          "time": 446.75,
          "velocity": 1
        },
        {
          "duration": 0.9208333333333485,
          "durationTicks": 884,
          "midi": 58,
          "name": "A#3",
          "ticks": 429360,
          "time": 447.25,
          "velocity": 1
        },
        {
          "duration": 0.9208333333333485,
          "durationTicks": 884,
          "midi": 62,
          "name": "D4",
          "ticks": 429360,
          "time": 447.25,
          "velocity": 1
        },
        {
          "duration": 0.9208333333333485,
          "durationTicks": 884,
          "midi": 64,
          "name": "E4",
          "ticks": 429360,
          "time": 447.25,
          "velocity": 1
        },
        {
          "duration": 0.359375,
          "durationTicks": 345,
          "midi": 69,
          "name": "A4",
          "ticks": 429360,
          "time": 447.25,
          "velocity": 1
        },
        {
          "duration": 0.359375,
          "durationTicks": 345,
          "midi": 72,
          "name": "C5",
          "ticks": 429360,
          "time": 447.25,
          "velocity": 1
        },
        {
          "duration": 0.5614583333333485,
          "durationTicks": 539,
          "midi": 67,
          "name": "G4",
          "ticks": 429720,
          "time": 447.625,
          "velocity": 1
        },
        {
          "duration": 0.5614583333333485,
          "durationTicks": 539,
          "midi": 70,
          "name": "A#4",
          "ticks": 429720,
          "time": 447.625,
          "velocity": 1
        },
        {
          "duration": 0.5385416666666742,
          "durationTicks": 517,
          "midi": 58,
          "name": "A#3",
          "ticks": 430320,
          "time": 448.25,
          "velocity": 1
        },
        {
          "duration": 0.5385416666666742,
          "durationTicks": 517,
          "midi": 62,
          "name": "D4",
          "ticks": 430320,
          "time": 448.25,
          "velocity": 1
        },
        {
          "duration": 0.31875000000002274,
          "durationTicks": 306,
          "midi": 63,
          "name": "D#4",
          "ticks": 430320,
          "time": 448.25,
          "velocity": 1
        },
        {
          "duration": 0.5385416666666742,
          "durationTicks": 517,
          "midi": 67,
          "name": "G4",
          "ticks": 430320,
          "time": 448.25,
          "velocity": 1
        },
        {
          "duration": 2.3802083333333144,
          "durationTicks": 2285,
          "midi": 41,
          "name": "F2",
          "ticks": 430800,
          "time": 448.75,
          "velocity": 1
        },
        {
          "duration": 2.3802083333333144,
          "durationTicks": 2285,
          "midi": 51,
          "name": "D#3",
          "ticks": 430800,
          "time": 448.75,
          "velocity": 1
        },
        {
          "duration": 2.3802083333333144,
          "durationTicks": 2285,
          "midi": 57,
          "name": "A3",
          "ticks": 430800,
          "time": 448.75,
          "velocity": 1
        },
        {
          "duration": 1.8093749999999886,
          "durationTicks": 1737,
          "midi": 60,
          "name": "C4",
          "ticks": 430800,
          "time": 448.75,
          "velocity": 1
        },
        {
          "duration": 2.3802083333333144,
          "durationTicks": 2285,
          "midi": 66,
          "name": "F#4",
          "ticks": 430800,
          "time": 448.75,
          "velocity": 1
        },
        {
          "duration": 2.3802083333333144,
          "durationTicks": 2285,
          "midi": 69,
          "name": "A4",
          "ticks": 430800,
          "time": 448.75,
          "velocity": 1
        },
        {
          "duration": 1.1499999999999773,
          "durationTicks": 1104,
          "midi": 58,
          "name": "A#3",
          "ticks": 433080,
          "time": 451.125,
          "velocity": 1
        },
        {
          "duration": 1.1499999999999773,
          "durationTicks": 1104,
          "midi": 70,
          "name": "A#4",
          "ticks": 433080,
          "time": 451.125,
          "velocity": 1
        },
        {
          "duration": 0.8500000000000227,
          "durationTicks": 816,
          "midi": 65,
          "name": "F4",
          "ticks": 434160,
          "time": 452.25,
          "velocity": 1
        },
        {
          "duration": 0.24166666666667425,
          "durationTicks": 232,
          "midi": 72,
          "name": "C5",
          "ticks": 434760,
          "time": 452.875,
          "velocity": 1
        },
        {
          "duration": 2.08020833333336,
          "durationTicks": 1997,
          "midi": 50,
          "name": "D3",
          "ticks": 435000,
          "time": 453.125,
          "velocity": 1
        },
        {
          "duration": 2.08020833333336,
          "durationTicks": 1997,
          "midi": 58,
          "name": "A#3",
          "ticks": 435000,
          "time": 453.125,
          "velocity": 1
        },
        {
          "duration": 2.08020833333336,
          "durationTicks": 1997,
          "midi": 60,
          "name": "C4",
          "ticks": 435000,
          "time": 453.125,
          "velocity": 1
        },
        {
          "duration": 1.5302083333333485,
          "durationTicks": 1469,
          "midi": 65,
          "name": "F4",
          "ticks": 435000,
          "time": 453.125,
          "velocity": 1
        },
        {
          "duration": 0.3708333333333371,
          "durationTicks": 356,
          "midi": 69,
          "name": "A4",
          "ticks": 435000,
          "time": 453.125,
          "velocity": 1
        },
        {
          "duration": 0.3708333333333371,
          "durationTicks": 356,
          "midi": 74,
          "name": "D5",
          "ticks": 435000,
          "time": 453.125,
          "velocity": 1
        },
        {
          "duration": 0.35000000000002274,
          "durationTicks": 336,
          "midi": 73,
          "name": "C#5",
          "ticks": 435360,
          "time": 453.5,
          "velocity": 1
        },
        {
          "duration": 0.35000000000002274,
          "durationTicks": 336,
          "midi": 79,
          "name": "G5",
          "ticks": 435360,
          "time": 453.5,
          "velocity": 1
        },
        {
          "duration": 0.30937499999998863,
          "durationTicks": 297,
          "midi": 72,
          "name": "C5",
          "ticks": 435720,
          "time": 453.875,
          "velocity": 1
        },
        {
          "duration": 0.30937499999998863,
          "durationTicks": 297,
          "midi": 77,
          "name": "F5",
          "ticks": 435720,
          "time": 453.875,
          "velocity": 1
        },
        {
          "duration": 0.5,
          "durationTicks": 480,
          "midi": 68,
          "name": "G#4",
          "ticks": 435960,
          "time": 454.125,
          "velocity": 1
        },
        {
          "duration": 0.5,
          "durationTicks": 480,
          "midi": 74,
          "name": "D5",
          "ticks": 435960,
          "time": 454.125,
          "velocity": 1
        },
        {
          "duration": 0.5906249999999886,
          "durationTicks": 567,
          "midi": 58,
          "name": "A#3",
          "ticks": 437040,
          "time": 455.25,
          "velocity": 1
        },
        {
          "duration": 0.30000000000001137,
          "durationTicks": 288,
          "midi": 63,
          "name": "D#4",
          "ticks": 437040,
          "time": 455.25,
          "velocity": 1
        },
        {
          "duration": 0.30000000000001137,
          "durationTicks": 288,
          "midi": 67,
          "name": "G4",
          "ticks": 437040,
          "time": 455.25,
          "velocity": 1
        },
        {
          "duration": 0.30000000000001137,
          "durationTicks": 288,
          "midi": 70,
          "name": "A#4",
          "ticks": 437040,
          "time": 455.25,
          "velocity": 1
        },
        {
          "duration": 1.1999999999999886,
          "durationTicks": 1152,
          "midi": 62,
          "name": "D4",
          "ticks": 437280,
          "time": 455.5,
          "velocity": 1
        },
        {
          "duration": 1.1999999999999886,
          "durationTicks": 1152,
          "midi": 63,
          "name": "D#4",
          "ticks": 437280,
          "time": 455.5,
          "velocity": 1
        },
        {
          "duration": 1.1999999999999886,
          "durationTicks": 1152,
          "midi": 67,
          "name": "G4",
          "ticks": 437280,
          "time": 455.5,
          "velocity": 1
        },
        {
          "duration": 0.8999999999999773,
          "durationTicks": 864,
          "midi": 48,
          "name": "C3",
          "ticks": 437520,
          "time": 455.75,
          "velocity": 1
        },
        {
          "duration": 0.9708333333333599,
          "durationTicks": 932,
          "midi": 34,
          "name": "A#1",
          "ticks": 440280,
          "time": 458.625,
          "velocity": 1
        },
        {
          "duration": 3.2822916666666515,
          "durationTicks": 3151,
          "midi": 50,
          "name": "D3",
          "ticks": 441240,
          "time": 459.625,
          "velocity": 1
        },
        {
          "duration": 3.2822916666666515,
          "durationTicks": 3151,
          "midi": 55,
          "name": "G3",
          "ticks": 441240,
          "time": 459.625,
          "velocity": 1
        },
        {
          "duration": 3.2822916666666515,
          "durationTicks": 3151,
          "midi": 60,
          "name": "C4",
          "ticks": 441240,
          "time": 459.625,
          "velocity": 1
        },
        {
          "duration": 1.2416666666666742,
          "durationTicks": 1192,
          "midi": 65,
          "name": "F4",
          "ticks": 441240,
          "time": 459.625,
          "velocity": 1
        },
        {
          "duration": 0.8708333333333371,
          "durationTicks": 836,
          "midi": 70,
          "name": "A#4",
          "ticks": 441240,
          "time": 459.625,
          "velocity": 1
        },
        {
          "duration": 0.33020833333335986,
          "durationTicks": 317,
          "midi": 77,
          "name": "F5",
          "ticks": 442080,
          "time": 460.5,
          "velocity": 1
        },
        {
          "duration": 0.020833333333314386,
          "durationTicks": 20,
          "midi": 72,
          "name": "C5",
          "ticks": 442320,
          "time": 460.75,
          "velocity": 1
        },
        {
          "duration": 0.35000000000002274,
          "durationTicks": 336,
          "midi": 72,
          "name": "C5",
          "ticks": 442320,
          "time": 460.75,
          "velocity": 1
        },
        {
          "duration": 0.7208333333333599,
          "durationTicks": 692,
          "midi": 82,
          "name": "A#5",
          "ticks": 442680,
          "time": 461.125,
          "velocity": 1
        },
        {
          "duration": 0.09062499999998863,
          "durationTicks": 87,
          "midi": 84,
          "name": "C6",
          "ticks": 443400,
          "time": 461.875,
          "velocity": 1
        },
        {
          "duration": 0.8406249999999886,
          "durationTicks": 807,
          "midi": 85,
          "name": "C#6",
          "ticks": 443520,
          "time": 462,
          "velocity": 1
        },
        {
          "duration": 0.22083333333335986,
          "durationTicks": 212,
          "midi": 84,
          "name": "C6",
          "ticks": 444360,
          "time": 462.875,
          "velocity": 1
        },
        {
          "duration": 0.13020833333331439,
          "durationTicks": 125,
          "midi": 82,
          "name": "A#5",
          "ticks": 444600,
          "time": 463.125,
          "velocity": 1
        },
        {
          "duration": 0.2708333333333144,
          "durationTicks": 260,
          "midi": 88,
          "name": "E6",
          "ticks": 444720,
          "time": 463.25,
          "velocity": 1
        },
        {
          "duration": 0.4385416666666515,
          "durationTicks": 421,
          "midi": 89,
          "name": "F6",
          "ticks": 444960,
          "time": 463.5,
          "velocity": 1
        },
        {
          "duration": 0.5302083333333485,
          "durationTicks": 509,
          "midi": 94,
          "name": "A#6",
          "ticks": 445440,
          "time": 464,
          "velocity": 1
        },
        {
          "duration": 0.38229166666667425,
          "durationTicks": 367,
          "midi": 97,
          "name": "C#7",
          "ticks": 445920,
          "time": 464.5,
          "velocity": 1
        },
        {
          "duration": 0.24166666666667425,
          "durationTicks": 232,
          "midi": 100,
          "name": "E7",
          "ticks": 446280,
          "time": 464.875,
          "velocity": 1
        },
        {
          "duration": 0.4385416666666515,
          "durationTicks": 421,
          "midi": 101,
          "name": "F7",
          "ticks": 446520,
          "time": 465.125,
          "velocity": 1
        },
        {
          "duration": 0.08854166666668561,
          "durationTicks": 85,
          "midi": 82,
          "name": "A#5",
          "ticks": 448440,
          "time": 467.125,
          "velocity": 1
        },
        {
          "duration": 0.08020833333335986,
          "durationTicks": 77,
          "midi": 86,
          "name": "D6",
          "ticks": 448800,
          "time": 467.5,
          "velocity": 1
        },
        {
          "duration": 0.09166666666664014,
          "durationTicks": 88,
          "midi": 87,
          "name": "D#6",
          "ticks": 448920,
          "time": 467.625,
          "velocity": 1
        },
        {
          "duration": 0.24062500000002274,
          "durationTicks": 231,
          "midi": 88,
          "name": "E6",
          "ticks": 449040,
          "time": 467.75,
          "velocity": 1
        },
        {
          "duration": 0.08854166666668561,
          "durationTicks": 85,
          "midi": 85,
          "name": "C#6",
          "ticks": 449280,
          "time": 468,
          "velocity": 1
        },
        {
          "duration": 0.08020833333335986,
          "durationTicks": 77,
          "midi": 87,
          "name": "D#6",
          "ticks": 449280,
          "time": 468,
          "velocity": 1
        },
        {
          "duration": 0.10000000000002274,
          "durationTicks": 96,
          "midi": 82,
          "name": "A#5",
          "ticks": 449400,
          "time": 468.125,
          "velocity": 1
        },
        {
          "duration": 0.10000000000002274,
          "durationTicks": 96,
          "midi": 80,
          "name": "G#5",
          "ticks": 449520,
          "time": 468.25,
          "velocity": 1
        },
        {
          "duration": 0.10000000000002274,
          "durationTicks": 96,
          "midi": 77,
          "name": "F5",
          "ticks": 449640,
          "time": 468.375,
          "velocity": 1
        },
        {
          "duration": 0.12083333333333712,
          "durationTicks": 116,
          "midi": 81,
          "name": "A5",
          "ticks": 449640,
          "time": 468.375,
          "velocity": 1
        },
        {
          "duration": 0.109375,
          "durationTicks": 105,
          "midi": 82,
          "name": "A#5",
          "ticks": 449880,
          "time": 468.625,
          "velocity": 1
        },
        {
          "duration": 0.08229166666666288,
          "durationTicks": 79,
          "midi": 84,
          "name": "C6",
          "ticks": 450240,
          "time": 469,
          "velocity": 1
        },
        {
          "duration": 0.14999999999997726,
          "durationTicks": 144,
          "midi": 85,
          "name": "C#6",
          "ticks": 450360,
          "time": 469.125,
          "velocity": 1
        },
        {
          "duration": 0.2802083333333485,
          "durationTicks": 269,
          "midi": 84,
          "name": "C6",
          "ticks": 450480,
          "time": 469.25,
          "velocity": 1
        },
        {
          "duration": 0.109375,
          "durationTicks": 105,
          "midi": 79,
          "name": "G5",
          "ticks": 450720,
          "time": 469.5,
          "velocity": 1
        },
        {
          "duration": 0.13020833333331439,
          "durationTicks": 125,
          "midi": 82,
          "name": "A#5",
          "ticks": 450840,
          "time": 469.625,
          "velocity": 1
        },
        {
          "duration": 0.14999999999997726,
          "durationTicks": 144,
          "midi": 80,
          "name": "G#5",
          "ticks": 450960,
          "time": 469.75,
          "velocity": 1
        },
        {
          "duration": 0.4208333333333485,
          "durationTicks": 404,
          "midi": 65,
          "name": "F4",
          "ticks": 451080,
          "time": 469.875,
          "velocity": 1
        },
        {
          "duration": 0.13020833333331439,
          "durationTicks": 125,
          "midi": 70,
          "name": "A#4",
          "ticks": 451560,
          "time": 470.375,
          "velocity": 1
        },
        {
          "duration": 0.13229166666667425,
          "durationTicks": 127,
          "midi": 73,
          "name": "C#5",
          "ticks": 451680,
          "time": 470.5,
          "velocity": 1
        },
        {
          "duration": 0.13020833333331439,
          "durationTicks": 125,
          "midi": 74,
          "name": "D5",
          "ticks": 451800,
          "time": 470.625,
          "velocity": 1
        },
        {
          "duration": 0.14999999999997726,
          "durationTicks": 144,
          "midi": 75,
          "name": "D#5",
          "ticks": 451920,
          "time": 470.75,
          "velocity": 1
        },
        {
          "duration": 0.23020833333333712,
          "durationTicks": 221,
          "midi": 77,
          "name": "F5",
          "ticks": 452040,
          "time": 470.875,
          "velocity": 1
        },
        {
          "duration": 0.20937500000002274,
          "durationTicks": 201,
          "midi": 79,
          "name": "G5",
          "ticks": 452280,
          "time": 471.125,
          "velocity": 1
        },
        {
          "duration": 0.12083333333333712,
          "durationTicks": 116,
          "midi": 77,
          "name": "F5",
          "ticks": 452520,
          "time": 471.375,
          "velocity": 1
        },
        {
          "duration": 0.30000000000001137,
          "durationTicks": 288,
          "midi": 80,
          "name": "G#5",
          "ticks": 452640,
          "time": 471.5,
          "velocity": 1
        },
        {
          "duration": 0.1708333333333485,
          "durationTicks": 164,
          "midi": 79,
          "name": "G5",
          "ticks": 452880,
          "time": 471.75,
          "velocity": 1
        },
        {
          "duration": 0.19999999999998863,
          "durationTicks": 192,
          "midi": 77,
          "name": "F5",
          "ticks": 453120,
          "time": 472,
          "velocity": 1
        },
        {
          "duration": 1.4208333333333485,
          "durationTicks": 1364,
          "midi": 51,
          "name": "D#3",
          "ticks": 454320,
          "time": 473.25,
          "velocity": 1
        },
        {
          "duration": 1.4208333333333485,
          "durationTicks": 1364,
          "midi": 60,
          "name": "C4",
          "ticks": 454320,
          "time": 473.25,
          "velocity": 1
        },
        {
          "duration": 1.4208333333333485,
          "durationTicks": 1364,
          "midi": 65,
          "name": "F4",
          "ticks": 454320,
          "time": 473.25,
          "velocity": 1
        },
        {
          "duration": 0.28854166666667425,
          "durationTicks": 277,
          "midi": 77,
          "name": "F5",
          "ticks": 454680,
          "time": 473.625,
          "velocity": 1
        },
        {
          "duration": 0.2802083333333485,
          "durationTicks": 269,
          "midi": 82,
          "name": "A#5",
          "ticks": 454920,
          "time": 473.875,
          "velocity": 1
        },
        {
          "duration": 0.47083333333335986,
          "durationTicks": 452,
          "midi": 84,
          "name": "C6",
          "ticks": 455160,
          "time": 474.125,
          "velocity": 1
        },
        {
          "duration": 1.3000000000000114,
          "durationTicks": 1248,
          "midi": 50,
          "name": "D3",
          "ticks": 455640,
          "time": 474.625,
          "velocity": 1
        },
        {
          "duration": 1.3000000000000114,
          "durationTicks": 1248,
          "midi": 60,
          "name": "C4",
          "ticks": 455640,
          "time": 474.625,
          "velocity": 1
        },
        {
          "duration": 0.8000000000000114,
          "durationTicks": 768,
          "midi": 65,
          "name": "F4",
          "ticks": 455640,
          "time": 474.625,
          "velocity": 1
        },
        {
          "duration": 0.1708333333333485,
          "durationTicks": 164,
          "midi": 85,
          "name": "C#6",
          "ticks": 455640,
          "time": 474.625,
          "velocity": 1
        },
        {
          "duration": 0.3291666666666515,
          "durationTicks": 316,
          "midi": 86,
          "name": "D6",
          "ticks": 455760,
          "time": 474.75,
          "velocity": 1
        },
        {
          "duration": 0.25,
          "durationTicks": 240,
          "midi": 77,
          "name": "F5",
          "ticks": 456120,
          "time": 475.125,
          "velocity": 1
        },
        {
          "duration": 0.5,
          "durationTicks": 480,
          "midi": 66,
          "name": "F#4",
          "ticks": 456360,
          "time": 475.375,
          "velocity": 1
        },
        {
          "duration": 0.24166666666667425,
          "durationTicks": 232,
          "midi": 82,
          "name": "A#5",
          "ticks": 456360,
          "time": 475.375,
          "velocity": 1
        },
        {
          "duration": 0.6802083333333258,
          "durationTicks": 653,
          "midi": 84,
          "name": "C6",
          "ticks": 456840,
          "time": 475.875,
          "velocity": 1
        },
        {
          "duration": 1.5322916666666515,
          "durationTicks": 1471,
          "midi": 51,
          "name": "D#3",
          "ticks": 457200,
          "time": 476.25,
          "velocity": 1
        },
        {
          "duration": 0.6999999999999886,
          "durationTicks": 672,
          "midi": 62,
          "name": "D4",
          "ticks": 457200,
          "time": 476.25,
          "velocity": 1
        },
        {
          "duration": 1.5322916666666515,
          "durationTicks": 1471,
          "midi": 67,
          "name": "G4",
          "ticks": 457200,
          "time": 476.25,
          "velocity": 1
        },
        {
          "duration": 0.35000000000002274,
          "durationTicks": 336,
          "midi": 82,
          "name": "A#5",
          "ticks": 457560,
          "time": 476.625,
          "velocity": 1
        },
        {
          "duration": 0.8322916666666629,
          "durationTicks": 799,
          "midi": 61,
          "name": "C#4",
          "ticks": 457920,
          "time": 477,
          "velocity": 1
        },
        {
          "duration": 0.22083333333335986,
          "durationTicks": 212,
          "midi": 79,
          "name": "G5",
          "ticks": 457920,
          "time": 477,
          "velocity": 1
        },
        {
          "duration": 0.109375,
          "durationTicks": 105,
          "midi": 81,
          "name": "A5",
          "ticks": 458280,
          "time": 477.375,
          "velocity": 1
        },
        {
          "duration": 0.3322916666666629,
          "durationTicks": 319,
          "midi": 82,
          "name": "A#5",
          "ticks": 458400,
          "time": 477.5,
          "velocity": 1
        },
        {
          "duration": 0.359375,
          "durationTicks": 345,
          "midi": 50,
          "name": "D3",
          "ticks": 458640,
          "time": 477.75,
          "velocity": 1
        },
        {
          "duration": 0.359375,
          "durationTicks": 345,
          "midi": 60,
          "name": "C4",
          "ticks": 458640,
          "time": 477.75,
          "velocity": 1
        },
        {
          "duration": 0.7802083333333485,
          "durationTicks": 749,
          "midi": 65,
          "name": "F4",
          "ticks": 458640,
          "time": 477.75,
          "velocity": 1
        },
        {
          "duration": 0.359375,
          "durationTicks": 345,
          "midi": 77,
          "name": "F5",
          "ticks": 458640,
          "time": 477.75,
          "velocity": 1
        },
        {
          "duration": 0.4208333333333485,
          "durationTicks": 404,
          "midi": 61,
          "name": "C#4",
          "ticks": 459000,
          "time": 478.125,
          "velocity": 1
        },
        {
          "duration": 0.140625,
          "durationTicks": 135,
          "midi": 72,
          "name": "C5",
          "ticks": 459000,
          "time": 478.125,
          "velocity": 1
        },
        {
          "duration": 0.2802083333333485,
          "durationTicks": 269,
          "midi": 74,
          "name": "D5",
          "ticks": 459120,
          "time": 478.25,
          "velocity": 1
        },
        {
          "duration": 0.3385416666666856,
          "durationTicks": 325,
          "midi": 70,
          "name": "A#4",
          "ticks": 459360,
          "time": 478.5,
          "velocity": 1
        },
        {
          "duration": 0.32083333333332575,
          "durationTicks": 308,
          "midi": 43,
          "name": "G2",
          "ticks": 459720,
          "time": 478.875,
          "velocity": 1
        },
        {
          "duration": 0.7708333333333144,
          "durationTicks": 740,
          "midi": 53,
          "name": "F3",
          "ticks": 459720,
          "time": 478.875,
          "velocity": 1
        },
        {
          "duration": 0.7708333333333144,
          "durationTicks": 740,
          "midi": 58,
          "name": "A#3",
          "ticks": 459720,
          "time": 478.875,
          "velocity": 1
        },
        {
          "duration": 1,
          "durationTicks": 960,
          "midi": 51,
          "name": "D#3",
          "ticks": 460440,
          "time": 479.625,
          "velocity": 1
        },
        {
          "duration": 1,
          "durationTicks": 960,
          "midi": 60,
          "name": "C4",
          "ticks": 460440,
          "time": 479.625,
          "velocity": 1
        },
        {
          "duration": 0.39999999999997726,
          "durationTicks": 384,
          "midi": 65,
          "name": "F4",
          "ticks": 460440,
          "time": 479.625,
          "velocity": 1
        },
        {
          "duration": 0.24166666666667425,
          "durationTicks": 232,
          "midi": 77,
          "name": "F5",
          "ticks": 460800,
          "time": 480,
          "velocity": 1
        },
        {
          "duration": 0.12083333333333712,
          "durationTicks": 116,
          "midi": 79,
          "name": "G5",
          "ticks": 461040,
          "time": 480.25,
          "velocity": 1
        },
        {
          "duration": 0.23854166666666288,
          "durationTicks": 229,
          "midi": 81,
          "name": "A5",
          "ticks": 461160,
          "time": 480.375,
          "velocity": 1
        },
        {
          "duration": 0.8416666666666401,
          "durationTicks": 808,
          "midi": 50,
          "name": "D3",
          "ticks": 461400,
          "time": 480.625,
          "velocity": 1
        },
        {
          "duration": 0.5916666666666401,
          "durationTicks": 568,
          "midi": 60,
          "name": "C4",
          "ticks": 461400,
          "time": 480.625,
          "velocity": 1
        },
        {
          "duration": 0.36145833333335986,
          "durationTicks": 347,
          "midi": 65,
          "name": "F4",
          "ticks": 461400,
          "time": 480.625,
          "velocity": 1
        },
        {
          "duration": 0.36145833333335986,
          "durationTicks": 347,
          "midi": 82,
          "name": "A#5",
          "ticks": 461400,
          "time": 480.625,
          "velocity": 1
        },
        {
          "duration": 0.4802083333333371,
          "durationTicks": 461,
          "midi": 66,
          "name": "F#4",
          "ticks": 461760,
          "time": 481,
          "velocity": 1
        },
        {
          "duration": 0.14999999999997726,
          "durationTicks": 144,
          "midi": 84,
          "name": "C6",
          "ticks": 461760,
          "time": 481,
          "velocity": 1
        },
        {
          "duration": 0.08020833333335986,
          "durationTicks": 77,
          "midi": 85,
          "name": "C#6",
          "ticks": 461880,
          "time": 481.125,
          "velocity": 1
        },
        {
          "duration": 0.12083333333333712,
          "durationTicks": 116,
          "midi": 79,
          "name": "G5",
          "ticks": 462120,
          "time": 481.375,
          "velocity": 1
        },
        {
          "duration": 1.1385416666666401,
          "durationTicks": 1093,
          "midi": 51,
          "name": "D#3",
          "ticks": 462240,
          "time": 481.5,
          "velocity": 1
        },
        {
          "duration": 0.6385416666666401,
          "durationTicks": 613,
          "midi": 62,
          "name": "D4",
          "ticks": 462240,
          "time": 481.5,
          "velocity": 1
        },
        {
          "duration": 1.1385416666666401,
          "durationTicks": 1093,
          "midi": 67,
          "name": "G4",
          "ticks": 462240,
          "time": 481.5,
          "velocity": 1
        },
        {
          "duration": 0.3708333333333371,
          "durationTicks": 356,
          "midi": 84,
          "name": "C6",
          "ticks": 462240,
          "time": 481.5,
          "velocity": 1
        },
        {
          "duration": 0.26875000000001137,
          "durationTicks": 258,
          "midi": 82,
          "name": "A#5",
          "ticks": 462600,
          "time": 481.875,
          "velocity": 1
        },
        {
          "duration": 0.5,
          "durationTicks": 480,
          "midi": 61,
          "name": "C#4",
          "ticks": 462840,
          "time": 482.125,
          "velocity": 1
        },
        {
          "duration": 0.22083333333335986,
          "durationTicks": 212,
          "midi": 79,
          "name": "G5",
          "ticks": 462840,
          "time": 482.125,
          "velocity": 1
        },
        {
          "duration": 0.13020833333331439,
          "durationTicks": 125,
          "midi": 82,
          "name": "A#5",
          "ticks": 463080,
          "time": 482.375,
          "velocity": 1
        },
        {
          "duration": 0.14999999999997726,
          "durationTicks": 144,
          "midi": 79,
          "name": "G5",
          "ticks": 463200,
          "time": 482.5,
          "velocity": 1
        },
        {
          "duration": 0.38229166666667425,
          "durationTicks": 367,
          "midi": 50,
          "name": "D3",
          "ticks": 463320,
          "time": 482.625,
          "velocity": 1
        },
        {
          "duration": 0.38229166666667425,
          "durationTicks": 367,
          "midi": 60,
          "name": "C4",
          "ticks": 463320,
          "time": 482.625,
          "velocity": 1
        },
        {
          "duration": 0.38229166666667425,
          "durationTicks": 367,
          "midi": 65,
          "name": "F4",
          "ticks": 463320,
          "time": 482.625,
          "velocity": 1
        },
        {
          "duration": 0.25,
          "durationTicks": 240,
          "midi": 77,
          "name": "F5",
          "ticks": 463320,
          "time": 482.625,
          "velocity": 1
        },
        {
          "duration": 0.13229166666667425,
          "durationTicks": 127,
          "midi": 73,
          "name": "C#5",
          "ticks": 463560,
          "time": 482.875,
          "velocity": 1
        },
        {
          "duration": 0.23020833333333712,
          "durationTicks": 221,
          "midi": 74,
          "name": "D5",
          "ticks": 463680,
          "time": 483,
          "velocity": 1
        },
        {
          "duration": 0.18020833333332575,
          "durationTicks": 173,
          "midi": 70,
          "name": "A#4",
          "ticks": 463920,
          "time": 483.25,
          "velocity": 1
        },
        {
          "duration": 0.19062500000001137,
          "durationTicks": 183,
          "midi": 67,
          "name": "G4",
          "ticks": 464040,
          "time": 483.375,
          "velocity": 1
        },
        {
          "duration": 0.23020833333333712,
          "durationTicks": 221,
          "midi": 72,
          "name": "C5",
          "ticks": 464280,
          "time": 483.625,
          "velocity": 1
        },
        {
          "duration": 0.10000000000002274,
          "durationTicks": 96,
          "midi": 70,
          "name": "A#4",
          "ticks": 464520,
          "time": 483.875,
          "velocity": 1
        },
        {
          "duration": 0.08854166666668561,
          "durationTicks": 85,
          "midi": 65,
          "name": "F4",
          "ticks": 464640,
          "time": 484,
          "velocity": 1
        },
        {
          "duration": 0.3114583333333485,
          "durationTicks": 299,
          "midi": 53,
          "name": "F3",
          "ticks": 464760,
          "time": 484.125,
          "velocity": 1
        },
        {
          "duration": 0.12083333333333712,
          "durationTicks": 116,
          "midi": 62,
          "name": "D4",
          "ticks": 464760,
          "time": 484.125,
          "velocity": 1
        },
        {
          "duration": 0.19166666666666288,
          "durationTicks": 184,
          "midi": 63,
          "name": "D#4",
          "ticks": 464880,
          "time": 484.25,
          "velocity": 1
        },
        {
          "duration": 0.5593749999999886,
          "durationTicks": 537,
          "midi": 52,
          "name": "E3",
          "ticks": 465000,
          "time": 484.375,
          "velocity": 1
        },
        {
          "duration": 0.5593749999999886,
          "durationTicks": 537,
          "midi": 58,
          "name": "A#3",
          "ticks": 465000,
          "time": 484.375,
          "velocity": 1
        },
        {
          "duration": 0.1885416666666515,
          "durationTicks": 181,
          "midi": 64,
          "name": "E4",
          "ticks": 465000,
          "time": 484.375,
          "velocity": 1
        },
        {
          "duration": 0.18229166666668561,
          "durationTicks": 175,
          "midi": 73,
          "name": "C#5",
          "ticks": 465120,
          "time": 484.5,
          "velocity": 1
        },
        {
          "duration": 0.1885416666666515,
          "durationTicks": 181,
          "midi": 72,
          "name": "C5",
          "ticks": 465360,
          "time": 484.75,
          "velocity": 1
        },
        {
          "duration": 0.4416666666666629,
          "durationTicks": 424,
          "midi": 70,
          "name": "A#4",
          "ticks": 465480,
          "time": 484.875,
          "velocity": 1
        },
        {
          "duration": 0.3708333333333371,
          "durationTicks": 356,
          "midi": 41,
          "name": "F2",
          "ticks": 466080,
          "time": 485.5,
          "velocity": 1
        },
        {
          "duration": 1.2614583333333371,
          "durationTicks": 1211,
          "midi": 51,
          "name": "D#3",
          "ticks": 466080,
          "time": 485.5,
          "velocity": 1
        },
        {
          "duration": 0.75,
          "durationTicks": 720,
          "midi": 57,
          "name": "A3",
          "ticks": 466080,
          "time": 485.5,
          "velocity": 1
        },
        {
          "duration": 0.15937500000001137,
          "durationTicks": 153,
          "midi": 77,
          "name": "F5",
          "ticks": 466440,
          "time": 485.875,
          "velocity": 1
        },
        {
          "duration": 0.38229166666667425,
          "durationTicks": 367,
          "midi": 77,
          "name": "F5",
          "ticks": 466560,
          "time": 486,
          "velocity": 1
        },
        {
          "duration": 0.5114583333333371,
          "durationTicks": 491,
          "midi": 56,
          "name": "G#3",
          "ticks": 466800,
          "time": 486.25,
          "velocity": 1
        },
        {
          "duration": 0.35000000000002274,
          "durationTicks": 336,
          "midi": 77,
          "name": "F5",
          "ticks": 466920,
          "time": 486.375,
          "velocity": 1
        },
        {
          "duration": 0.609375,
          "durationTicks": 585,
          "midi": 46,
          "name": "A#2",
          "ticks": 467280,
          "time": 486.75,
          "velocity": 1
        },
        {
          "duration": 0.609375,
          "durationTicks": 585,
          "midi": 56,
          "name": "G#3",
          "ticks": 467280,
          "time": 486.75,
          "velocity": 1
        },
        {
          "duration": 0.609375,
          "durationTicks": 585,
          "midi": 63,
          "name": "D#4",
          "ticks": 467280,
          "time": 486.75,
          "velocity": 1
        },
        {
          "duration": 0.14999999999997726,
          "durationTicks": 144,
          "midi": 77,
          "name": "F5",
          "ticks": 467280,
          "time": 486.75,
          "velocity": 1
        },
        {
          "duration": 0.109375,
          "durationTicks": 105,
          "midi": 79,
          "name": "G5",
          "ticks": 467520,
          "time": 487,
          "velocity": 1
        },
        {
          "duration": 0.19166666666666288,
          "durationTicks": 184,
          "midi": 82,
          "name": "A#5",
          "ticks": 467640,
          "time": 487.125,
          "velocity": 1
        },
        {
          "duration": 0.14999999999997726,
          "durationTicks": 144,
          "midi": 84,
          "name": "C6",
          "ticks": 467880,
          "time": 487.375,
          "velocity": 1
        },
        {
          "duration": 0.17916666666667425,
          "durationTicks": 172,
          "midi": 85,
          "name": "C#6",
          "ticks": 468000,
          "time": 487.5,
          "velocity": 1
        },
        {
          "duration": 0.1708333333333485,
          "durationTicks": 164,
          "midi": 84,
          "name": "C6",
          "ticks": 468120,
          "time": 487.625,
          "velocity": 1
        },
        {
          "duration": 0.19999999999998863,
          "durationTicks": 192,
          "midi": 82,
          "name": "A#5",
          "ticks": 468360,
          "time": 487.875,
          "velocity": 1
        },
        {
          "duration": 0.5093749999999773,
          "durationTicks": 489,
          "midi": 51,
          "name": "D#3",
          "ticks": 468480,
          "time": 488,
          "velocity": 1
        },
        {
          "duration": 0.5093749999999773,
          "durationTicks": 489,
          "midi": 55,
          "name": "G3",
          "ticks": 468480,
          "time": 488,
          "velocity": 1
        },
        {
          "duration": 0.5093749999999773,
          "durationTicks": 489,
          "midi": 62,
          "name": "D4",
          "ticks": 468480,
          "time": 488,
          "velocity": 1
        },
        {
          "duration": 0.45937500000002274,
          "durationTicks": 441,
          "midi": 84,
          "name": "C6",
          "ticks": 468480,
          "time": 488,
          "velocity": 1
        },
        {
          "duration": 0.2822916666666515,
          "durationTicks": 271,
          "midi": 82,
          "name": "A#5",
          "ticks": 468960,
          "time": 488.5,
          "velocity": 1
        },
        {
          "duration": 0.6802083333333258,
          "durationTicks": 653,
          "midi": 52,
          "name": "E3",
          "ticks": 469200,
          "time": 488.75,
          "velocity": 1
        },
        {
          "duration": 0.6802083333333258,
          "durationTicks": 653,
          "midi": 61,
          "name": "C#4",
          "ticks": 469200,
          "time": 488.75,
          "velocity": 1
        },
        {
          "duration": 0.6802083333333258,
          "durationTicks": 653,
          "midi": 67,
          "name": "G4",
          "ticks": 469200,
          "time": 488.75,
          "velocity": 1
        },
        {
          "duration": 0.11874999999997726,
          "durationTicks": 114,
          "midi": 78,
          "name": "F#5",
          "ticks": 469200,
          "time": 488.75,
          "velocity": 1
        },
        {
          "duration": 0.25,
          "durationTicks": 240,
          "midi": 79,
          "name": "G5",
          "ticks": 469320,
          "time": 488.875,
          "velocity": 1
        },
        {
          "duration": 0.11145833333335986,
          "durationTicks": 107,
          "midi": 81,
          "name": "A5",
          "ticks": 469560,
          "time": 489.125,
          "velocity": 1
        },
        {
          "duration": 0.19999999999998863,
          "durationTicks": 192,
          "midi": 82,
          "name": "A#5",
          "ticks": 469680,
          "time": 489.25,
          "velocity": 1
        },
        {
          "duration": 0.5187500000000114,
          "durationTicks": 498,
          "midi": 54,
          "name": "F#3",
          "ticks": 470160,
          "time": 489.75,
          "velocity": 1
        },
        {
          "duration": 0.5187500000000114,
          "durationTicks": 498,
          "midi": 60,
          "name": "C4",
          "ticks": 470160,
          "time": 489.75,
          "velocity": 1
        },
        {
          "duration": 0.11874999999997726,
          "durationTicks": 114,
          "midi": 72,
          "name": "C5",
          "ticks": 470160,
          "time": 489.75,
          "velocity": 1
        },
        {
          "duration": 0.39999999999997726,
          "durationTicks": 384,
          "midi": 74,
          "name": "D5",
          "ticks": 470280,
          "time": 489.875,
          "velocity": 1
        },
        {
          "duration": 0.6822916666666856,
          "durationTicks": 655,
          "midi": 43,
          "name": "G2",
          "ticks": 470640,
          "time": 490.25,
          "velocity": 1
        },
        {
          "duration": 0.6822916666666856,
          "durationTicks": 655,
          "midi": 53,
          "name": "F3",
          "ticks": 470640,
          "time": 490.25,
          "velocity": 1
        },
        {
          "duration": 0.6822916666666856,
          "durationTicks": 655,
          "midi": 58,
          "name": "A#3",
          "ticks": 470640,
          "time": 490.25,
          "velocity": 1
        },
        {
          "duration": 0.46875,
          "durationTicks": 450,
          "midi": 48,
          "name": "C3",
          "ticks": 471360,
          "time": 491,
          "velocity": 1
        },
        {
          "duration": 0.46875,
          "durationTicks": 450,
          "midi": 52,
          "name": "E3",
          "ticks": 471360,
          "time": 491,
          "velocity": 1
        },
        {
          "duration": 0.08854166666668561,
          "durationTicks": 85,
          "midi": 58,
          "name": "A#3",
          "ticks": 471360,
          "time": 491,
          "velocity": 1
        },
        {
          "duration": 0.09166666666664014,
          "durationTicks": 88,
          "midi": 66,
          "name": "F#4",
          "ticks": 471480,
          "time": 491.125,
          "velocity": 1
        },
        {
          "duration": 0.08854166666668561,
          "durationTicks": 85,
          "midi": 67,
          "name": "G4",
          "ticks": 471480,
          "time": 491.125,
          "velocity": 1
        },
        {
          "duration": 0.10000000000002274,
          "durationTicks": 96,
          "midi": 69,
          "name": "A4",
          "ticks": 471600,
          "time": 491.25,
          "velocity": 1
        },
        {
          "duration": 0.10000000000002274,
          "durationTicks": 96,
          "midi": 70,
          "name": "A#4",
          "ticks": 471720,
          "time": 491.375,
          "velocity": 1
        },
        {
          "duration": 0.11145833333335986,
          "durationTicks": 107,
          "midi": 72,
          "name": "C5",
          "ticks": 471840,
          "time": 491.5,
          "velocity": 1
        },
        {
          "duration": 0.13020833333331439,
          "durationTicks": 125,
          "midi": 73,
          "name": "C#5",
          "ticks": 471960,
          "time": 491.625,
          "velocity": 1
        },
        {
          "duration": 0.5906249999999886,
          "durationTicks": 567,
          "midi": 49,
          "name": "C#3",
          "ticks": 472080,
          "time": 491.75,
          "velocity": 1
        },
        {
          "duration": 0.5906249999999886,
          "durationTicks": 567,
          "midi": 58,
          "name": "A#3",
          "ticks": 472080,
          "time": 491.75,
          "velocity": 1
        },
        {
          "duration": 0.5906249999999886,
          "durationTicks": 567,
          "midi": 64,
          "name": "E4",
          "ticks": 472080,
          "time": 491.75,
          "velocity": 1
        },
        {
          "duration": 0.07916666666665151,
          "durationTicks": 76,
          "midi": 76,
          "name": "E5",
          "ticks": 472080,
          "time": 491.75,
          "velocity": 1
        },
        {
          "duration": 0.10000000000002274,
          "durationTicks": 96,
          "midi": 78,
          "name": "F#5",
          "ticks": 472080,
          "time": 491.75,
          "velocity": 1
        },
        {
          "duration": 0.14999999999997726,
          "durationTicks": 144,
          "midi": 81,
          "name": "A5",
          "ticks": 472200,
          "time": 491.875,
          "velocity": 1
        },
        {
          "duration": 0.2614583333333371,
          "durationTicks": 251,
          "midi": 79,
          "name": "G5",
          "ticks": 472320,
          "time": 492,
          "velocity": 1
        },
        {
          "duration": 0.4416666666666629,
          "durationTicks": 424,
          "midi": 50,
          "name": "D3",
          "ticks": 472800,
          "time": 492.5,
          "velocity": 1
        },
        {
          "duration": 0.4416666666666629,
          "durationTicks": 424,
          "midi": 60,
          "name": "C4",
          "ticks": 472800,
          "time": 492.5,
          "velocity": 1
        },
        {
          "duration": 0.4416666666666629,
          "durationTicks": 424,
          "midi": 65,
          "name": "F4",
          "ticks": 472800,
          "time": 492.5,
          "velocity": 1
        },
        {
          "duration": 0.07083333333332575,
          "durationTicks": 68,
          "midi": 76,
          "name": "E5",
          "ticks": 472800,
          "time": 492.5,
          "velocity": 1
        },
        {
          "duration": 0.07916666666665151,
          "durationTicks": 76,
          "midi": 78,
          "name": "F#5",
          "ticks": 473040,
          "time": 492.75,
          "velocity": 1
        },
        {
          "duration": 0.12083333333333712,
          "durationTicks": 116,
          "midi": 79,
          "name": "G5",
          "ticks": 473040,
          "time": 492.75,
          "velocity": 1
        },
        {
          "duration": 0.17916666666667425,
          "durationTicks": 172,
          "midi": 79,
          "name": "G5",
          "ticks": 473160,
          "time": 492.875,
          "velocity": 1
        },
        {
          "duration": 0.4802083333333371,
          "durationTicks": 461,
          "midi": 53,
          "name": "F3",
          "ticks": 473400,
          "time": 493.125,
          "velocity": 1
        },
        {
          "duration": 0.4802083333333371,
          "durationTicks": 461,
          "midi": 59,
          "name": "B3",
          "ticks": 473400,
          "time": 493.125,
          "velocity": 1
        },
        {
          "duration": 0.13020833333331439,
          "durationTicks": 125,
          "midi": 77,
          "name": "F5",
          "ticks": 473400,
          "time": 493.125,
          "velocity": 1
        },
        {
          "duration": 0.24166666666667425,
          "durationTicks": 232,
          "midi": 74,
          "name": "D5",
          "ticks": 473520,
          "time": 493.25,
          "velocity": 1
        },
        {
          "duration": 0.109375,
          "durationTicks": 105,
          "midi": 70,
          "name": "A#4",
          "ticks": 473760,
          "time": 493.5,
          "velocity": 1
        },
        {
          "duration": 0.18020833333332575,
          "durationTicks": 173,
          "midi": 74,
          "name": "D5",
          "ticks": 474120,
          "time": 493.875,
          "velocity": 1
        },
        {
          "duration": 0.23020833333333712,
          "durationTicks": 221,
          "midi": 70,
          "name": "A#4",
          "ticks": 474240,
          "time": 494,
          "velocity": 1
        },
        {
          "duration": 0.15937500000001137,
          "durationTicks": 153,
          "midi": 65,
          "name": "F4",
          "ticks": 474480,
          "time": 494.25,
          "velocity": 1
        },
        {
          "duration": 0.22083333333335986,
          "durationTicks": 212,
          "midi": 64,
          "name": "E4",
          "ticks": 474600,
          "time": 494.375,
          "velocity": 1
        },
        {
          "duration": 0.6802083333333258,
          "durationTicks": 653,
          "midi": 41,
          "name": "F2",
          "ticks": 474840,
          "time": 494.625,
          "velocity": 1
        },
        {
          "duration": 0.6802083333333258,
          "durationTicks": 653,
          "midi": 51,
          "name": "D#3",
          "ticks": 474840,
          "time": 494.625,
          "velocity": 1
        },
        {
          "duration": 0.6802083333333258,
          "durationTicks": 653,
          "midi": 57,
          "name": "A3",
          "ticks": 474840,
          "time": 494.625,
          "velocity": 1
        },
        {
          "duration": 0.10000000000002274,
          "durationTicks": 96,
          "midi": 62,
          "name": "D4",
          "ticks": 474840,
          "time": 494.625,
          "velocity": 1
        },
        {
          "duration": 0.23020833333333712,
          "durationTicks": 221,
          "midi": 63,
          "name": "D#4",
          "ticks": 474960,
          "time": 494.75,
          "velocity": 1
        },
        {
          "duration": 0.14999999999997726,
          "durationTicks": 144,
          "midi": 61,
          "name": "C#4",
          "ticks": 475200,
          "time": 495,
          "velocity": 1
        },
        {
          "duration": 0.19999999999998863,
          "durationTicks": 192,
          "midi": 62,
          "name": "D4",
          "ticks": 475320,
          "time": 495.125,
          "velocity": 1
        },
        {
          "duration": 0.35000000000002274,
          "durationTicks": 336,
          "midi": 46,
          "name": "A#2",
          "ticks": 475440,
          "time": 495.25,
          "velocity": 1
        },
        {
          "duration": 0.5322916666666515,
          "durationTicks": 511,
          "midi": 50,
          "name": "D3",
          "ticks": 475440,
          "time": 495.25,
          "velocity": 1
        },
        {
          "duration": 0.3708333333333371,
          "durationTicks": 356,
          "midi": 56,
          "name": "G#3",
          "ticks": 475440,
          "time": 495.25,
          "velocity": 1
        },
        {
          "duration": 0.35000000000002274,
          "durationTicks": 336,
          "midi": 58,
          "name": "A#3",
          "ticks": 475440,
          "time": 495.25,
          "velocity": 1
        },
        {
          "duration": 0.16145833333331439,
          "durationTicks": 155,
          "midi": 60,
          "name": "C4",
          "ticks": 475800,
          "time": 495.625,
          "velocity": 1
        },
        {
          "duration": 0.1885416666666515,
          "durationTicks": 181,
          "midi": 57,
          "name": "A3",
          "ticks": 475920,
          "time": 495.75,
          "velocity": 1
        },
        {
          "duration": 0.13020833333331439,
          "durationTicks": 125,
          "midi": 58,
          "name": "A#3",
          "ticks": 476160,
          "time": 496,
          "velocity": 1
        },
        {
          "duration": 0.24166666666667425,
          "durationTicks": 232,
          "midi": 62,
          "name": "D4",
          "ticks": 476280,
          "time": 496.125,
          "velocity": 1
        },
        {
          "duration": 0.45937500000002274,
          "durationTicks": 441,
          "midi": 43,
          "name": "G2",
          "ticks": 476520,
          "time": 496.375,
          "velocity": 1
        },
        {
          "duration": 0.45937500000002274,
          "durationTicks": 441,
          "midi": 53,
          "name": "F3",
          "ticks": 476520,
          "time": 496.375,
          "velocity": 1
        },
        {
          "duration": 0.45937500000002274,
          "durationTicks": 441,
          "midi": 59,
          "name": "B3",
          "ticks": 476520,
          "time": 496.375,
          "velocity": 1
        },
        {
          "duration": 0.12083333333333712,
          "durationTicks": 116,
          "midi": 65,
          "name": "F4",
          "ticks": 476520,
          "time": 496.375,
          "velocity": 1
        },
        {
          "duration": 0.22083333333335986,
          "durationTicks": 212,
          "midi": 68,
          "name": "G#4",
          "ticks": 476640,
          "time": 496.5,
          "velocity": 1
        },
        {
          "duration": 0.11874999999997726,
          "durationTicks": 114,
          "midi": 67,
          "name": "G4",
          "ticks": 476880,
          "time": 496.75,
          "velocity": 1
        },
        {
          "duration": 0.35000000000002274,
          "durationTicks": 336,
          "midi": 48,
          "name": "C3",
          "ticks": 477000,
          "time": 496.875,
          "velocity": 1
        },
        {
          "duration": 0.35000000000002274,
          "durationTicks": 336,
          "midi": 52,
          "name": "E3",
          "ticks": 477000,
          "time": 496.875,
          "velocity": 1
        },
        {
          "duration": 0.35000000000002274,
          "durationTicks": 336,
          "midi": 58,
          "name": "A#3",
          "ticks": 477000,
          "time": 496.875,
          "velocity": 1
        },
        {
          "duration": 0.22083333333335986,
          "durationTicks": 212,
          "midi": 65,
          "name": "F4",
          "ticks": 477000,
          "time": 496.875,
          "velocity": 1
        },
        {
          "duration": 0.13020833333331439,
          "durationTicks": 125,
          "midi": 67,
          "name": "G4",
          "ticks": 477120,
          "time": 497,
          "velocity": 1
        },
        {
          "duration": 0.5,
          "durationTicks": 480,
          "midi": 41,
          "name": "F2",
          "ticks": 477240,
          "time": 497.125,
          "velocity": 1
        },
        {
          "duration": 0.7114583333333258,
          "durationTicks": 683,
          "midi": 51,
          "name": "D#3",
          "ticks": 477240,
          "time": 497.125,
          "velocity": 1
        },
        {
          "duration": 0.7114583333333258,
          "durationTicks": 683,
          "midi": 57,
          "name": "A3",
          "ticks": 477240,
          "time": 497.125,
          "velocity": 1
        },
        {
          "duration": 0.25,
          "durationTicks": 240,
          "midi": 70,
          "name": "A#4",
          "ticks": 477240,
          "time": 497.125,
          "velocity": 1
        },
        {
          "duration": 0.11145833333335986,
          "durationTicks": 107,
          "midi": 72,
          "name": "C5",
          "ticks": 477480,
          "time": 497.375,
          "velocity": 1
        },
        {
          "duration": 0.23854166666666288,
          "durationTicks": 229,
          "midi": 74,
          "name": "D5",
          "ticks": 477600,
          "time": 497.5,
          "velocity": 1
        },
        {
          "duration": 0.11145833333335986,
          "durationTicks": 107,
          "midi": 77,
          "name": "F5",
          "ticks": 477840,
          "time": 497.75,
          "velocity": 1
        },
        {
          "duration": 0.23854166666666288,
          "durationTicks": 229,
          "midi": 79,
          "name": "G5",
          "ticks": 477960,
          "time": 497.875,
          "velocity": 1
        },
        {
          "duration": 1.0416666666666856,
          "durationTicks": 1000,
          "midi": 46,
          "name": "A#2",
          "ticks": 478200,
          "time": 498.125,
          "velocity": 1
        },
        {
          "duration": 1.0416666666666856,
          "durationTicks": 1000,
          "midi": 56,
          "name": "G#3",
          "ticks": 478200,
          "time": 498.125,
          "velocity": 1
        },
        {
          "duration": 0.6999999999999886,
          "durationTicks": 672,
          "midi": 63,
          "name": "D#4",
          "ticks": 478200,
          "time": 498.125,
          "velocity": 1
        },
        {
          "duration": 0.25,
          "durationTicks": 240,
          "midi": 82,
          "name": "A#5",
          "ticks": 478200,
          "time": 498.125,
          "velocity": 1
        },
        {
          "duration": 0.34166666666664014,
          "durationTicks": 328,
          "midi": 62,
          "name": "D4",
          "ticks": 478920,
          "time": 498.875,
          "velocity": 1
        },
        {
          "duration": 0.140625,
          "durationTicks": 135,
          "midi": 85,
          "name": "C#6",
          "ticks": 479160,
          "time": 499.125,
          "velocity": 1
        },
        {
          "duration": 0.1885416666666515,
          "durationTicks": 181,
          "midi": 86,
          "name": "D6",
          "ticks": 479280,
          "time": 499.25,
          "velocity": 1
        },
        {
          "duration": 0.16145833333331439,
          "durationTicks": 155,
          "midi": 89,
          "name": "F6",
          "ticks": 479520,
          "time": 499.5,
          "velocity": 1
        },
        {
          "duration": 0.6687499999999886,
          "durationTicks": 642,
          "midi": 63,
          "name": "D#4",
          "ticks": 479640,
          "time": 499.625,
          "velocity": 1
        },
        {
          "duration": 0.23020833333333712,
          "durationTicks": 221,
          "midi": 94,
          "name": "A#6",
          "ticks": 479880,
          "time": 499.875,
          "velocity": 1
        },
        {
          "duration": 0.08854166666668561,
          "durationTicks": 85,
          "midi": 90,
          "name": "F#6",
          "ticks": 480120,
          "time": 500.125,
          "velocity": 1
        },
        {
          "duration": 0.14999999999997726,
          "durationTicks": 144,
          "midi": 91,
          "name": "G6",
          "ticks": 480120,
          "time": 500.125,
          "velocity": 1
        },
        {
          "duration": 0.7822916666666515,
          "durationTicks": 751,
          "midi": 62,
          "name": "D4",
          "ticks": 480240,
          "time": 500.25,
          "velocity": 1
        },
        {
          "duration": 0.7822916666666515,
          "durationTicks": 751,
          "midi": 68,
          "name": "G#4",
          "ticks": 480240,
          "time": 500.25,
          "velocity": 1
        },
        {
          "duration": 0.22083333333335986,
          "durationTicks": 212,
          "midi": 89,
          "name": "F6",
          "ticks": 480240,
          "time": 500.25,
          "velocity": 1
        },
        {
          "duration": 0.11145833333335986,
          "durationTicks": 107,
          "midi": 85,
          "name": "C#6",
          "ticks": 480480,
          "time": 500.5,
          "velocity": 1
        },
        {
          "duration": 0.20937500000002274,
          "durationTicks": 201,
          "midi": 86,
          "name": "D6",
          "ticks": 480600,
          "time": 500.625,
          "velocity": 1
        },
        {
          "duration": 0.24062500000002274,
          "durationTicks": 231,
          "midi": 82,
          "name": "A#5",
          "ticks": 480840,
          "time": 500.875,
          "velocity": 1
        },
        {
          "duration": 2.7093750000000227,
          "durationTicks": 2601,
          "midi": 51,
          "name": "D#3",
          "ticks": 481080,
          "time": 501.125,
          "velocity": 1
        },
        {
          "duration": 1.3000000000000114,
          "durationTicks": 1248,
          "midi": 55,
          "name": "G3",
          "ticks": 481080,
          "time": 501.125,
          "velocity": 1
        },
        {
          "duration": 0.6593750000000114,
          "durationTicks": 633,
          "midi": 62,
          "name": "D4",
          "ticks": 481080,
          "time": 501.125,
          "velocity": 1
        },
        {
          "duration": 0.11874999999997726,
          "durationTicks": 114,
          "midi": 83,
          "name": "B5",
          "ticks": 481080,
          "time": 501.125,
          "velocity": 1
        },
        {
          "duration": 0.18229166666668561,
          "durationTicks": 175,
          "midi": 84,
          "name": "C6",
          "ticks": 481200,
          "time": 501.25,
          "velocity": 1
        },
        {
          "duration": 0.25,
          "durationTicks": 240,
          "midi": 82,
          "name": "A#5",
          "ticks": 481320,
          "time": 501.375,
          "velocity": 1
        },
        {
          "duration": 0.109375,
          "durationTicks": 105,
          "midi": 78,
          "name": "F#5",
          "ticks": 481560,
          "time": 501.625,
          "velocity": 1
        },
        {
          "duration": 0.22083333333335986,
          "durationTicks": 212,
          "midi": 75,
          "name": "D#5",
          "ticks": 481800,
          "time": 501.875,
          "velocity": 1
        },
        {
          "duration": 0.109375,
          "durationTicks": 105,
          "midi": 73,
          "name": "C#5",
          "ticks": 482040,
          "time": 502.125,
          "velocity": 1
        },
        {
          "duration": 0.16145833333331439,
          "durationTicks": 155,
          "midi": 74,
          "name": "D5",
          "ticks": 482160,
          "time": 502.25,
          "velocity": 1
        },
        {
          "duration": 1.359375,
          "durationTicks": 1305,
          "midi": 61,
          "name": "C#4",
          "ticks": 482280,
          "time": 502.375,
          "velocity": 1
        },
        {
          "duration": 0.4802083333333371,
          "durationTicks": 461,
          "midi": 66,
          "name": "F#4",
          "ticks": 482280,
          "time": 502.375,
          "velocity": 1
        },
        {
          "duration": 0.11874999999997726,
          "durationTicks": 114,
          "midi": 76,
          "name": "E5",
          "ticks": 482280,
          "time": 502.375,
          "velocity": 1
        },
        {
          "duration": 0.16145833333331439,
          "durationTicks": 155,
          "midi": 77,
          "name": "F5",
          "ticks": 482400,
          "time": 502.5,
          "velocity": 1
        },
        {
          "duration": 0.10000000000002274,
          "durationTicks": 96,
          "midi": 75,
          "name": "D#5",
          "ticks": 482520,
          "time": 502.625,
          "velocity": 1
        },
        {
          "duration": 0.10000000000002274,
          "durationTicks": 96,
          "midi": 70,
          "name": "A#4",
          "ticks": 482640,
          "time": 502.75,
          "velocity": 1
        },
        {
          "duration": 0.19999999999998863,
          "durationTicks": 192,
          "midi": 66,
          "name": "F#4",
          "ticks": 482760,
          "time": 502.875,
          "velocity": 1
        },
        {
          "duration": 0.18020833333332575,
          "durationTicks": 173,
          "midi": 65,
          "name": "F4",
          "ticks": 483000,
          "time": 503.125,
          "velocity": 1
        },
        {
          "duration": 0.17916666666667425,
          "durationTicks": 172,
          "midi": 65,
          "name": "F4",
          "ticks": 483240,
          "time": 503.375,
          "velocity": 1
        },
        {
          "duration": 0.1708333333333485,
          "durationTicks": 164,
          "midi": 63,
          "name": "D#4",
          "ticks": 483480,
          "time": 503.625,
          "velocity": 1
        },
        {
          "duration": 0.3708333333333371,
          "durationTicks": 356,
          "midi": 60,
          "name": "C4",
          "ticks": 483600,
          "time": 503.75,
          "velocity": 1
        },
        {
          "duration": 0.13020833333331439,
          "durationTicks": 125,
          "midi": 62,
          "name": "D4",
          "ticks": 483960,
          "time": 504.125,
          "velocity": 1
        },
        {
          "duration": 0.10000000000002274,
          "durationTicks": 96,
          "midi": 65,
          "name": "F4",
          "ticks": 484080,
          "time": 504.25,
          "velocity": 1
        },
        {
          "duration": 0.10000000000002274,
          "durationTicks": 96,
          "midi": 69,
          "name": "A4",
          "ticks": 484200,
          "time": 504.375,
          "velocity": 1
        },
        {
          "duration": 0.15937500000001137,
          "durationTicks": 153,
          "midi": 72,
          "name": "C5",
          "ticks": 484320,
          "time": 504.5,
          "velocity": 1
        },
        {
          "duration": 0.1708333333333485,
          "durationTicks": 164,
          "midi": 69,
          "name": "A4",
          "ticks": 484440,
          "time": 504.625,
          "velocity": 1
        },
        {
          "duration": 0.1416666666666515,
          "durationTicks": 136,
          "midi": 70,
          "name": "A#4",
          "ticks": 484560,
          "time": 504.75,
          "velocity": 1
        },
        {
          "duration": 0.22083333333335986,
          "durationTicks": 212,
          "midi": 74,
          "name": "D5",
          "ticks": 484680,
          "time": 504.875,
          "velocity": 1
        },
        {
          "duration": 0.14999999999997726,
          "durationTicks": 144,
          "midi": 77,
          "name": "F5",
          "ticks": 484920,
          "time": 505.125,
          "velocity": 1
        },
        {
          "duration": 0.19999999999998863,
          "durationTicks": 192,
          "midi": 81,
          "name": "A5",
          "ticks": 485040,
          "time": 505.25,
          "velocity": 1
        },
        {
          "duration": 1.0093749999999773,
          "durationTicks": 969,
          "midi": 43,
          "name": "G2",
          "ticks": 485280,
          "time": 505.5,
          "velocity": 1
        },
        {
          "duration": 1.0093749999999773,
          "durationTicks": 969,
          "midi": 53,
          "name": "F3",
          "ticks": 485280,
          "time": 505.5,
          "velocity": 1
        },
        {
          "duration": 1.0093749999999773,
          "durationTicks": 969,
          "midi": 59,
          "name": "B3",
          "ticks": 485280,
          "time": 505.5,
          "velocity": 1
        },
        {
          "duration": 0.15937500000001137,
          "durationTicks": 153,
          "midi": 82,
          "name": "A#5",
          "ticks": 485280,
          "time": 505.5,
          "velocity": 1
        },
        {
          "duration": 0.17916666666667425,
          "durationTicks": 172,
          "midi": 78,
          "name": "F#5",
          "ticks": 485400,
          "time": 505.625,
          "velocity": 1
        },
        {
          "duration": 0.16145833333331439,
          "durationTicks": 155,
          "midi": 81,
          "name": "A5",
          "ticks": 485640,
          "time": 505.875,
          "velocity": 1
        },
        {
          "duration": 0.15937500000001137,
          "durationTicks": 153,
          "midi": 79,
          "name": "G5",
          "ticks": 485760,
          "time": 506,
          "velocity": 1
        },
        {
          "duration": 0.14999999999997726,
          "durationTicks": 144,
          "midi": 77,
          "name": "F5",
          "ticks": 485880,
          "time": 506.125,
          "velocity": 1
        },
        {
          "duration": 0.19999999999998863,
          "durationTicks": 192,
          "midi": 74,
          "name": "D5",
          "ticks": 486000,
          "time": 506.25,
          "velocity": 1
        },
        {
          "duration": 0.1708333333333485,
          "durationTicks": 164,
          "midi": 70,
          "name": "A#4",
          "ticks": 486240,
          "time": 506.5,
          "velocity": 1
        },
        {
          "duration": 0.1885416666666515,
          "durationTicks": 181,
          "midi": 69,
          "name": "A4",
          "ticks": 486360,
          "time": 506.625,
          "velocity": 1
        },
        {
          "duration": 0.11145833333335986,
          "durationTicks": 107,
          "midi": 67,
          "name": "G4",
          "ticks": 486600,
          "time": 506.875,
          "velocity": 1
        },
        {
          "duration": 0.9302083333333258,
          "durationTicks": 893,
          "midi": 48,
          "name": "C3",
          "ticks": 486720,
          "time": 507,
          "velocity": 1
        },
        {
          "duration": 0.9302083333333258,
          "durationTicks": 893,
          "midi": 58,
          "name": "A#3",
          "ticks": 486720,
          "time": 507,
          "velocity": 1
        },
        {
          "duration": 0.19999999999998863,
          "durationTicks": 192,
          "midi": 66,
          "name": "F#4",
          "ticks": 486720,
          "time": 507,
          "velocity": 1
        },
        {
          "duration": 0.1708333333333485,
          "durationTicks": 164,
          "midi": 67,
          "name": "G4",
          "ticks": 486840,
          "time": 507.125,
          "velocity": 1
        },
        {
          "duration": 0.18020833333332575,
          "durationTicks": 173,
          "midi": 69,
          "name": "A4",
          "ticks": 487080,
          "time": 507.375,
          "velocity": 1
        },
        {
          "duration": 0.1708333333333485,
          "durationTicks": 164,
          "midi": 70,
          "name": "A#4",
          "ticks": 487200,
          "time": 507.5,
          "velocity": 1
        },
        {
          "duration": 0.23020833333333712,
          "durationTicks": 221,
          "midi": 72,
          "name": "C5",
          "ticks": 487320,
          "time": 507.625,
          "velocity": 1
        },
        {
          "duration": 0.08020833333335986,
          "durationTicks": 77,
          "midi": 73,
          "name": "C#5",
          "ticks": 487560,
          "time": 507.875,
          "velocity": 1
        },
        {
          "duration": 0.5708333333333258,
          "durationTicks": 548,
          "midi": 48,
          "name": "C3",
          "ticks": 487680,
          "time": 508,
          "velocity": 1
        },
        {
          "duration": 0.5708333333333258,
          "durationTicks": 548,
          "midi": 58,
          "name": "A#3",
          "ticks": 487680,
          "time": 508,
          "velocity": 1
        },
        {
          "duration": 0.5708333333333258,
          "durationTicks": 548,
          "midi": 63,
          "name": "D#4",
          "ticks": 487680,
          "time": 508,
          "velocity": 1
        },
        {
          "duration": 0.22083333333335986,
          "durationTicks": 212,
          "midi": 72,
          "name": "C5",
          "ticks": 487680,
          "time": 508,
          "velocity": 1
        },
        {
          "duration": 0.15937500000001137,
          "durationTicks": 153,
          "midi": 70,
          "name": "A#4",
          "ticks": 487920,
          "time": 508.25,
          "velocity": 1
        },
        {
          "duration": 0.19166666666666288,
          "durationTicks": 184,
          "midi": 67,
          "name": "G4",
          "ticks": 488040,
          "time": 508.375,
          "velocity": 1
        },
        {
          "duration": 0.30000000000001137,
          "durationTicks": 288,
          "midi": 53,
          "name": "F3",
          "ticks": 488280,
          "time": 508.625,
          "velocity": 1
        },
        {
          "duration": 0.30000000000001137,
          "durationTicks": 288,
          "midi": 57,
          "name": "A3",
          "ticks": 488280,
          "time": 508.625,
          "velocity": 1
        },
        {
          "duration": 0.30000000000001137,
          "durationTicks": 288,
          "midi": 63,
          "name": "D#4",
          "ticks": 488280,
          "time": 508.625,
          "velocity": 1
        },
        {
          "duration": 0.13020833333331439,
          "durationTicks": 125,
          "midi": 66,
          "name": "F#4",
          "ticks": 488280,
          "time": 508.625,
          "velocity": 1
        },
        {
          "duration": 0.1708333333333485,
          "durationTicks": 164,
          "midi": 65,
          "name": "F4",
          "ticks": 488400,
          "time": 508.75,
          "velocity": 1
        },
        {
          "duration": 0.12083333333333712,
          "durationTicks": 116,
          "midi": 76,
          "name": "E5",
          "ticks": 488640,
          "time": 509,
          "velocity": 1
        },
        {
          "duration": 0.32083333333332575,
          "durationTicks": 308,
          "midi": 51,
          "name": "D#3",
          "ticks": 488760,
          "time": 509.125,
          "velocity": 1
        },
        {
          "duration": 0.32083333333332575,
          "durationTicks": 308,
          "midi": 60,
          "name": "C4",
          "ticks": 488760,
          "time": 509.125,
          "velocity": 1
        },
        {
          "duration": 0.32083333333332575,
          "durationTicks": 308,
          "midi": 66,
          "name": "F#4",
          "ticks": 488760,
          "time": 509.125,
          "velocity": 1
        },
        {
          "duration": 0.1708333333333485,
          "durationTicks": 164,
          "midi": 77,
          "name": "F5",
          "ticks": 488760,
          "time": 509.125,
          "velocity": 1
        },
        {
          "duration": 0.14999999999997726,
          "durationTicks": 144,
          "midi": 75,
          "name": "D#5",
          "ticks": 488880,
          "time": 509.25,
          "velocity": 1
        },
        {
          "duration": 0.35000000000002274,
          "durationTicks": 336,
          "midi": 50,
          "name": "D3",
          "ticks": 489000,
          "time": 509.375,
          "velocity": 1
        },
        {
          "duration": 0.35000000000002274,
          "durationTicks": 336,
          "midi": 60,
          "name": "C4",
          "ticks": 489000,
          "time": 509.375,
          "velocity": 1
        },
        {
          "duration": 0.35000000000002274,
          "durationTicks": 336,
          "midi": 65,
          "name": "F4",
          "ticks": 489000,
          "time": 509.375,
          "velocity": 1
        },
        {
          "duration": 0.22916666666668561,
          "durationTicks": 220,
          "midi": 74,
          "name": "D5",
          "ticks": 489000,
          "time": 509.375,
          "velocity": 1
        },
        {
          "duration": 0.12083333333333712,
          "durationTicks": 116,
          "midi": 77,
          "name": "F5",
          "ticks": 489240,
          "time": 509.625,
          "velocity": 1
        },
        {
          "duration": 0.19999999999998863,
          "durationTicks": 192,
          "midi": 79,
          "name": "G5",
          "ticks": 489360,
          "time": 509.75,
          "velocity": 1
        },
        {
          "duration": 0.6614583333333144,
          "durationTicks": 635,
          "midi": 42,
          "name": "F#2",
          "ticks": 489600,
          "time": 510,
          "velocity": 1
        },
        {
          "duration": 0.6614583333333144,
          "durationTicks": 635,
          "midi": 52,
          "name": "E3",
          "ticks": 489600,
          "time": 510,
          "velocity": 1
        },
        {
          "duration": 0.6614583333333144,
          "durationTicks": 635,
          "midi": 58,
          "name": "A#3",
          "ticks": 489600,
          "time": 510,
          "velocity": 1
        },
        {
          "duration": 0.14999999999997726,
          "durationTicks": 144,
          "midi": 82,
          "name": "A#5",
          "ticks": 489600,
          "time": 510,
          "velocity": 1
        },
        {
          "duration": 0.16145833333331439,
          "durationTicks": 155,
          "midi": 85,
          "name": "C#6",
          "ticks": 489720,
          "time": 510.125,
          "velocity": 1
        },
        {
          "duration": 0.14999999999997726,
          "durationTicks": 144,
          "midi": 83,
          "name": "B5",
          "ticks": 489840,
          "time": 510.25,
          "velocity": 1
        },
        {
          "duration": 0.19999999999998863,
          "durationTicks": 192,
          "midi": 84,
          "name": "C6",
          "ticks": 490080,
          "time": 510.5,
          "velocity": 1
        },
        {
          "duration": 0.75,
          "durationTicks": 720,
          "midi": 41,
          "name": "F2",
          "ticks": 490200,
          "time": 510.625,
          "velocity": 1
        },
        {
          "duration": 0.75,
          "durationTicks": 720,
          "midi": 51,
          "name": "D#3",
          "ticks": 490200,
          "time": 510.625,
          "velocity": 1
        },
        {
          "duration": 0.75,
          "durationTicks": 720,
          "midi": 56,
          "name": "G#3",
          "ticks": 490200,
          "time": 510.625,
          "velocity": 1
        },
        {
          "duration": 0.19999999999998863,
          "durationTicks": 192,
          "midi": 82,
          "name": "A#5",
          "ticks": 490200,
          "time": 510.625,
          "velocity": 1
        },
        {
          "duration": 0.12083333333333712,
          "durationTicks": 116,
          "midi": 84,
          "name": "C6",
          "ticks": 490440,
          "time": 510.875,
          "velocity": 1
        },
        {
          "duration": 0.10000000000002274,
          "durationTicks": 96,
          "midi": 82,
          "name": "A#5",
          "ticks": 490560,
          "time": 511,
          "velocity": 1
        },
        {
          "duration": 0.109375,
          "durationTicks": 105,
          "midi": 79,
          "name": "G5",
          "ticks": 490680,
          "time": 511.125,
          "velocity": 1
        },
        {
          "duration": 0.22083333333335986,
          "durationTicks": 212,
          "midi": 78,
          "name": "F#5",
          "ticks": 490800,
          "time": 511.25,
          "velocity": 1
        },
        {
          "duration": 2.6208333333332803,
          "durationTicks": 2516,
          "midi": 46,
          "name": "A#2",
          "ticks": 491040,
          "time": 511.5,
          "velocity": 1
        },
        {
          "duration": 0.7708333333333712,
          "durationTicks": 740,
          "midi": 50,
          "name": "D3",
          "ticks": 491040,
          "time": 511.5,
          "velocity": 1
        },
        {
          "duration": 0.7708333333333712,
          "durationTicks": 740,
          "midi": 56,
          "name": "G#3",
          "ticks": 491040,
          "time": 511.5,
          "velocity": 1
        },
        {
          "duration": 0.23020833333333712,
          "durationTicks": 221,
          "midi": 77,
          "name": "F5",
          "ticks": 491040,
          "time": 511.5,
          "velocity": 1
        },
        {
          "duration": 0.15937500000001137,
          "durationTicks": 153,
          "midi": 74,
          "name": "D5",
          "ticks": 491280,
          "time": 511.75,
          "velocity": 1
        },
        {
          "duration": 0.24166666666667425,
          "durationTicks": 232,
          "midi": 71,
          "name": "B4",
          "ticks": 491400,
          "time": 511.875,
          "velocity": 1
        },
        {
          "duration": 0.140625,
          "durationTicks": 135,
          "midi": 68,
          "name": "G#4",
          "ticks": 491640,
          "time": 512.125,
          "velocity": 1
        },
        {
          "duration": 0.9385416666666515,
          "durationTicks": 901,
          "midi": 50,
          "name": "D3",
          "ticks": 491760,
          "time": 512.25,
          "velocity": 1
        },
        {
          "duration": 0.9385416666666515,
          "durationTicks": 901,
          "midi": 55,
          "name": "G3",
          "ticks": 491760,
          "time": 512.25,
          "velocity": 1
        },
        {
          "duration": 0.16875000000004547,
          "durationTicks": 162,
          "midi": 67,
          "name": "G4",
          "ticks": 491760,
          "time": 512.25,
          "velocity": 1
        },
        {
          "duration": 0.1708333333333485,
          "durationTicks": 164,
          "midi": 77,
          "name": "F5",
          "ticks": 492120,
          "time": 512.625,
          "velocity": 1
        },
        {
          "duration": 0.140625,
          "durationTicks": 135,
          "midi": 76,
          "name": "E5",
          "ticks": 492240,
          "time": 512.75,
          "velocity": 1
        },
        {
          "duration": 0.23854166666671972,
          "durationTicks": 229,
          "midi": 75,
          "name": "D#5",
          "ticks": 492360,
          "time": 512.875,
          "velocity": 1
        },
        {
          "duration": 0.1416666666666515,
          "durationTicks": 136,
          "midi": 67,
          "name": "G4",
          "ticks": 492600,
          "time": 513.125,
          "velocity": 1
        },
        {
          "duration": 0.23020833333328028,
          "durationTicks": 221,
          "midi": 70,
          "name": "A#4",
          "ticks": 492720,
          "time": 513.25,
          "velocity": 1
        },
        {
          "duration": 1.3406250000000455,
          "durationTicks": 1287,
          "midi": 51,
          "name": "D#3",
          "ticks": 492960,
          "time": 513.5,
          "velocity": 1
        },
        {
          "duration": 1.3406250000000455,
          "durationTicks": 1287,
          "midi": 60,
          "name": "C4",
          "ticks": 492960,
          "time": 513.5,
          "velocity": 1
        },
        {
          "duration": 0.45937500000002274,
          "durationTicks": 441,
          "midi": 66,
          "name": "F#4",
          "ticks": 492960,
          "time": 513.5,
          "velocity": 1
        },
        {
          "duration": 0.10000000000002274,
          "durationTicks": 96,
          "midi": 72,
          "name": "C5",
          "ticks": 492960,
          "time": 513.5,
          "velocity": 1
        },
        {
          "duration": 0.1708333333333485,
          "durationTicks": 164,
          "midi": 73,
          "name": "C#5",
          "ticks": 493080,
          "time": 513.625,
          "velocity": 1
        },
        {
          "duration": 0.08854166666662877,
          "durationTicks": 85,
          "midi": 72,
          "name": "C5",
          "ticks": 493200,
          "time": 513.75,
          "velocity": 1
        },
        {
          "duration": 0.18229166666662877,
          "durationTicks": 175,
          "midi": 70,
          "name": "A#4",
          "ticks": 493320,
          "time": 513.875,
          "velocity": 1
        },
        {
          "duration": 0.21145833333332575,
          "durationTicks": 203,
          "midi": 66,
          "name": "F#4",
          "ticks": 493440,
          "time": 514,
          "velocity": 1
        },
        {
          "duration": 0.14999999999997726,
          "durationTicks": 144,
          "midi": 65,
          "name": "F4",
          "ticks": 493560,
          "time": 514.125,
          "velocity": 1
        },
        {
          "duration": 0.1708333333333485,
          "durationTicks": 164,
          "midi": 64,
          "name": "E4",
          "ticks": 493680,
          "time": 514.25,
          "velocity": 1
        },
        {
          "duration": 0.14999999999997726,
          "durationTicks": 144,
          "midi": 65,
          "name": "F4",
          "ticks": 493920,
          "time": 514.5,
          "velocity": 1
        },
        {
          "duration": 0.20000000000004547,
          "durationTicks": 192,
          "midi": 63,
          "name": "D#4",
          "ticks": 494040,
          "time": 514.625,
          "velocity": 1
        },
        {
          "duration": 0.359375,
          "durationTicks": 345,
          "midi": 51,
          "name": "D#3",
          "ticks": 494280,
          "time": 514.875,
          "velocity": 1
        },
        {
          "duration": 0.18020833333332575,
          "durationTicks": 173,
          "midi": 62,
          "name": "D4",
          "ticks": 494280,
          "time": 514.875,
          "velocity": 1
        },
        {
          "duration": 0.08854166666662877,
          "durationTicks": 85,
          "midi": 65,
          "name": "F4",
          "ticks": 494400,
          "time": 515,
          "velocity": 1
        },
        {
          "duration": 0.09166666666669698,
          "durationTicks": 88,
          "midi": 69,
          "name": "A4",
          "ticks": 494520,
          "time": 515.125,
          "velocity": 1
        },
        {
          "duration": 0.3791666666667197,
          "durationTicks": 364,
          "midi": 50,
          "name": "D3",
          "ticks": 494640,
          "time": 515.25,
          "velocity": 1
        },
        {
          "duration": 0.3791666666667197,
          "durationTicks": 364,
          "midi": 58,
          "name": "A#3",
          "ticks": 494640,
          "time": 515.25,
          "velocity": 1
        },
        {
          "duration": 0.3791666666667197,
          "durationTicks": 364,
          "midi": 60,
          "name": "C4",
          "ticks": 494640,
          "time": 515.25,
          "velocity": 1
        },
        {
          "duration": 0.15937499999995453,
          "durationTicks": 153,
          "midi": 72,
          "name": "C5",
          "ticks": 494640,
          "time": 515.25,
          "velocity": 1
        },
        {
          "duration": 0.18229166666662877,
          "durationTicks": 175,
          "midi": 69,
          "name": "A4",
          "ticks": 494760,
          "time": 515.375,
          "velocity": 1
        },
        {
          "duration": 0.14999999999997726,
          "durationTicks": 144,
          "midi": 70,
          "name": "A#4",
          "ticks": 494880,
          "time": 515.5,
          "velocity": 1
        },
        {
          "duration": 0.16875000000004547,
          "durationTicks": 162,
          "midi": 74,
          "name": "D5",
          "ticks": 495000,
          "time": 515.625,
          "velocity": 1
        },
        {
          "duration": 0.720833333333303,
          "durationTicks": 692,
          "midi": 43,
          "name": "G2",
          "ticks": 495240,
          "time": 515.875,
          "velocity": 1
        },
        {
          "duration": 0.720833333333303,
          "durationTicks": 692,
          "midi": 53,
          "name": "F3",
          "ticks": 495240,
          "time": 515.875,
          "velocity": 1
        },
        {
          "duration": 0.720833333333303,
          "durationTicks": 692,
          "midi": 58,
          "name": "A#3",
          "ticks": 495240,
          "time": 515.875,
          "velocity": 1
        },
        {
          "duration": 0.1416666666666515,
          "durationTicks": 136,
          "midi": 77,
          "name": "F5",
          "ticks": 495240,
          "time": 515.875,
          "velocity": 1
        },
        {
          "duration": 0.22083333333330302,
          "durationTicks": 212,
          "midi": 81,
          "name": "A5",
          "ticks": 495360,
          "time": 516,
          "velocity": 1
        },
        {
          "duration": 0.20000000000004547,
          "durationTicks": 192,
          "midi": 82,
          "name": "A#5",
          "ticks": 495600,
          "time": 516.25,
          "velocity": 1
        },
        {
          "duration": 0.49166666666667425,
          "durationTicks": 472,
          "midi": 48,
          "name": "C3",
          "ticks": 495960,
          "time": 516.625,
          "velocity": 1
        },
        {
          "duration": 0.49166666666667425,
          "durationTicks": 472,
          "midi": 52,
          "name": "E3",
          "ticks": 495960,
          "time": 516.625,
          "velocity": 1
        },
        {
          "duration": 0.49166666666667425,
          "durationTicks": 472,
          "midi": 58,
          "name": "A#3",
          "ticks": 495960,
          "time": 516.625,
          "velocity": 1
        },
        {
          "duration": 0.13020833333337123,
          "durationTicks": 125,
          "midi": 79,
          "name": "G5",
          "ticks": 495960,
          "time": 516.625,
          "velocity": 1
        },
        {
          "duration": 0.23229166666669698,
          "durationTicks": 223,
          "midi": 76,
          "name": "E5",
          "ticks": 496080,
          "time": 516.75,
          "velocity": 1
        },
        {
          "duration": 0.13020833333337123,
          "durationTicks": 125,
          "midi": 70,
          "name": "A#4",
          "ticks": 496320,
          "time": 517,
          "velocity": 1
        },
        {
          "duration": 0.6593749999999545,
          "durationTicks": 633,
          "midi": 41,
          "name": "F2",
          "ticks": 496440,
          "time": 517.125,
          "velocity": 1
        },
        {
          "duration": 0.6593749999999545,
          "durationTicks": 633,
          "midi": 51,
          "name": "D#3",
          "ticks": 496440,
          "time": 517.125,
          "velocity": 1
        },
        {
          "duration": 0.6593749999999545,
          "durationTicks": 633,
          "midi": 57,
          "name": "A3",
          "ticks": 496440,
          "time": 517.125,
          "velocity": 1
        },
        {
          "duration": 0.1885416666666515,
          "durationTicks": 181,
          "midi": 80,
          "name": "G#5",
          "ticks": 496440,
          "time": 517.125,
          "velocity": 1
        },
        {
          "duration": 0.1416666666666515,
          "durationTicks": 136,
          "midi": 77,
          "name": "F5",
          "ticks": 496560,
          "time": 517.25,
          "velocity": 1
        },
        {
          "duration": 0.20937500000002274,
          "durationTicks": 201,
          "midi": 78,
          "name": "F#5",
          "ticks": 496680,
          "time": 517.375,
          "velocity": 1
        },
        {
          "duration": 0.12083333333328028,
          "durationTicks": 116,
          "midi": 80,
          "name": "G#5",
          "ticks": 496920,
          "time": 517.625,
          "velocity": 1
        },
        {
          "duration": 1.6499999999999773,
          "durationTicks": 1584,
          "midi": 46,
          "name": "A#2",
          "ticks": 497040,
          "time": 517.75,
          "velocity": 1
        },
        {
          "duration": 1.6499999999999773,
          "durationTicks": 1584,
          "midi": 50,
          "name": "D3",
          "ticks": 497040,
          "time": 517.75,
          "velocity": 1
        },
        {
          "duration": 1.6499999999999773,
          "durationTicks": 1584,
          "midi": 57,
          "name": "A3",
          "ticks": 497040,
          "time": 517.75,
          "velocity": 1
        },
        {
          "duration": 0.20000000000004547,
          "durationTicks": 192,
          "midi": 77,
          "name": "F5",
          "ticks": 497040,
          "time": 517.75,
          "velocity": 1
        },
        {
          "duration": 0.16145833333337123,
          "durationTicks": 155,
          "midi": 75,
          "name": "D#5",
          "ticks": 497280,
          "time": 518,
          "velocity": 1
        },
        {
          "duration": 0.18020833333332575,
          "durationTicks": 173,
          "midi": 72,
          "name": "C5",
          "ticks": 497400,
          "time": 518.125,
          "velocity": 1
        },
        {
          "duration": 0.13020833333337123,
          "durationTicks": 125,
          "midi": 73,
          "name": "C#5",
          "ticks": 497520,
          "time": 518.25,
          "velocity": 1
        },
        {
          "duration": 0.279166666666697,
          "durationTicks": 268,
          "midi": 74,
          "name": "D5",
          "ticks": 497640,
          "time": 518.375,
          "velocity": 1
        },
        {
          "duration": 0.12083333333328028,
          "durationTicks": 116,
          "midi": 65,
          "name": "F4",
          "ticks": 497880,
          "time": 518.625,
          "velocity": 1
        },
        {
          "duration": 0.19062499999995453,
          "durationTicks": 183,
          "midi": 67,
          "name": "G4",
          "ticks": 498000,
          "time": 518.75,
          "velocity": 1
        },
        {
          "duration": 0.16875000000004547,
          "durationTicks": 162,
          "midi": 72,
          "name": "C5",
          "ticks": 498240,
          "time": 519,
          "velocity": 1
        },
        {
          "duration": 0.22083333333330302,
          "durationTicks": 212,
          "midi": 70,
          "name": "A#4",
          "ticks": 498360,
          "time": 519.125,
          "velocity": 1
        },
        {
          "duration": 1,
          "durationTicks": 960,
          "midi": 51,
          "name": "D#3",
          "ticks": 498600,
          "time": 519.375,
          "velocity": 1
        },
        {
          "duration": 1,
          "durationTicks": 960,
          "midi": 60,
          "name": "C4",
          "ticks": 498600,
          "time": 519.375,
          "velocity": 1
        },
        {
          "duration": 1,
          "durationTicks": 960,
          "midi": 65,
          "name": "F4",
          "ticks": 498600,
          "time": 519.375,
          "velocity": 1
        },
        {
          "duration": 0.18229166666662877,
          "durationTicks": 175,
          "midi": 77,
          "name": "F5",
          "ticks": 498960,
          "time": 519.75,
          "velocity": 1
        },
        {
          "duration": 0.21875,
          "durationTicks": 210,
          "midi": 79,
          "name": "G5",
          "ticks": 499080,
          "time": 519.875,
          "velocity": 1
        },
        {
          "duration": 0.27083333333337123,
          "durationTicks": 260,
          "midi": 81,
          "name": "A5",
          "ticks": 499320,
          "time": 520.125,
          "velocity": 1
        },
        {
          "duration": 0.330208333333303,
          "durationTicks": 317,
          "midi": 50,
          "name": "D3",
          "ticks": 499560,
          "time": 520.375,
          "velocity": 1
        },
        {
          "duration": 0.330208333333303,
          "durationTicks": 317,
          "midi": 60,
          "name": "C4",
          "ticks": 499560,
          "time": 520.375,
          "velocity": 1
        },
        {
          "duration": 0.330208333333303,
          "durationTicks": 317,
          "midi": 65,
          "name": "F4",
          "ticks": 499560,
          "time": 520.375,
          "velocity": 1
        },
        {
          "duration": 0.330208333333303,
          "durationTicks": 317,
          "midi": 82,
          "name": "A#5",
          "ticks": 499560,
          "time": 520.375,
          "velocity": 1
        },
        {
          "duration": 0.10000000000002274,
          "durationTicks": 96,
          "midi": 84,
          "name": "C6",
          "ticks": 499920,
          "time": 520.75,
          "velocity": 1
        },
        {
          "duration": 0.10000000000002274,
          "durationTicks": 96,
          "midi": 85,
          "name": "C#6",
          "ticks": 500040,
          "time": 520.875,
          "velocity": 1
        },
        {
          "duration": 0.16145833333337123,
          "durationTicks": 155,
          "midi": 86,
          "name": "D6",
          "ticks": 500040,
          "time": 520.875,
          "velocity": 1
        },
        {
          "duration": 0.03020833333334849,
          "durationTicks": 29,
          "midi": 54,
          "name": "F#3",
          "ticks": 500280,
          "time": 521.125,
          "velocity": 1
        },
        {
          "duration": 0.03020833333334849,
          "durationTicks": 29,
          "midi": 57,
          "name": "A3",
          "ticks": 500280,
          "time": 521.125,
          "velocity": 1
        },
        {
          "duration": 0.03020833333334849,
          "durationTicks": 29,
          "midi": 60,
          "name": "C4",
          "ticks": 500280,
          "time": 521.125,
          "velocity": 1
        },
        {
          "duration": 0.03020833333334849,
          "durationTicks": 29,
          "midi": 63,
          "name": "D#4",
          "ticks": 500280,
          "time": 521.125,
          "velocity": 1
        },
        {
          "duration": 0.13854166666669698,
          "durationTicks": 133,
          "midi": 86,
          "name": "D6",
          "ticks": 500280,
          "time": 521.125,
          "velocity": 1
        },
        {
          "duration": 0.21145833333332575,
          "durationTicks": 203,
          "midi": 82,
          "name": "A#5",
          "ticks": 500400,
          "time": 521.25,
          "velocity": 1
        },
        {
          "duration": 0.32083333333332575,
          "durationTicks": 308,
          "midi": 84,
          "name": "C6",
          "ticks": 500640,
          "time": 521.5,
          "velocity": 1
        },
        {
          "duration": 0.3093750000000455,
          "durationTicks": 297,
          "midi": 43,
          "name": "G2",
          "ticks": 500880,
          "time": 521.75,
          "velocity": 1
        },
        {
          "duration": 0.3093750000000455,
          "durationTicks": 297,
          "midi": 53,
          "name": "F3",
          "ticks": 500880,
          "time": 521.75,
          "velocity": 1
        },
        {
          "duration": 0.3093750000000455,
          "durationTicks": 297,
          "midi": 58,
          "name": "A#3",
          "ticks": 500880,
          "time": 521.75,
          "velocity": 1
        },
        {
          "duration": 0.3093750000000455,
          "durationTicks": 297,
          "midi": 82,
          "name": "A#5",
          "ticks": 500880,
          "time": 521.75,
          "velocity": 1
        },
        {
          "duration": 0.14999999999997726,
          "durationTicks": 144,
          "midi": 78,
          "name": "F#5",
          "ticks": 501120,
          "time": 522,
          "velocity": 1
        },
        {
          "duration": 0.20000000000004547,
          "durationTicks": 192,
          "midi": 79,
          "name": "G5",
          "ticks": 501240,
          "time": 522.125,
          "velocity": 1
        },
        {
          "duration": 0.279166666666697,
          "durationTicks": 268,
          "midi": 82,
          "name": "A#5",
          "ticks": 501480,
          "time": 522.375,
          "velocity": 1
        },
        {
          "duration": 0.16145833333337123,
          "durationTicks": 155,
          "midi": 79,
          "name": "G5",
          "ticks": 501720,
          "time": 522.625,
          "velocity": 1
        },
        {
          "duration": 0.638541666666697,
          "durationTicks": 613,
          "midi": 50,
          "name": "D3",
          "ticks": 502200,
          "time": 523.125,
          "velocity": 1
        },
        {
          "duration": 0.638541666666697,
          "durationTicks": 613,
          "midi": 60,
          "name": "C4",
          "ticks": 502200,
          "time": 523.125,
          "velocity": 1
        },
        {
          "duration": 0.638541666666697,
          "durationTicks": 613,
          "midi": 65,
          "name": "F4",
          "ticks": 502200,
          "time": 523.125,
          "velocity": 1
        },
        {
          "duration": 0.08020833333330302,
          "durationTicks": 77,
          "midi": 78,
          "name": "F#5",
          "ticks": 502200,
          "time": 523.125,
          "velocity": 1
        },
        {
          "duration": 0.20000000000004547,
          "durationTicks": 192,
          "midi": 77,
          "name": "F5",
          "ticks": 502320,
          "time": 523.25,
          "velocity": 1
        },
        {
          "duration": 0.22083333333330302,
          "durationTicks": 212,
          "midi": 74,
          "name": "D5",
          "ticks": 502440,
          "time": 523.375,
          "velocity": 1
        },
        {
          "duration": 0.3114583333333485,
          "durationTicks": 299,
          "midi": 54,
          "name": "F#3",
          "ticks": 502800,
          "time": 523.75,
          "velocity": 1
        },
        {
          "duration": 0.3114583333333485,
          "durationTicks": 299,
          "midi": 60,
          "name": "C4",
          "ticks": 502800,
          "time": 523.75,
          "velocity": 1
        },
        {
          "duration": 0.1708333333333485,
          "durationTicks": 164,
          "midi": 66,
          "name": "F#4",
          "ticks": 503160,
          "time": 524.125,
          "velocity": 1
        },
        {
          "duration": 0.21875,
          "durationTicks": 210,
          "midi": 69,
          "name": "A4",
          "ticks": 503280,
          "time": 524.25,
          "velocity": 1
        },
        {
          "duration": 0.3114583333333485,
          "durationTicks": 299,
          "midi": 43,
          "name": "G2",
          "ticks": 503520,
          "time": 524.5,
          "velocity": 1
        },
        {
          "duration": 0.3114583333333485,
          "durationTicks": 299,
          "midi": 53,
          "name": "F3",
          "ticks": 503520,
          "time": 524.5,
          "velocity": 1
        },
        {
          "duration": 0.3114583333333485,
          "durationTicks": 299,
          "midi": 58,
          "name": "A#3",
          "ticks": 503520,
          "time": 524.5,
          "velocity": 1
        },
        {
          "duration": 0.14999999999997726,
          "durationTicks": 144,
          "midi": 72,
          "name": "C5",
          "ticks": 503520,
          "time": 524.5,
          "velocity": 1
        },
        {
          "duration": 0.16145833333337123,
          "durationTicks": 155,
          "midi": 70,
          "name": "A#4",
          "ticks": 503640,
          "time": 524.625,
          "velocity": 1
        },
        {
          "duration": 0.15937499999995453,
          "durationTicks": 153,
          "midi": 65,
          "name": "F4",
          "ticks": 503760,
          "time": 524.75,
          "velocity": 1
        },
        {
          "duration": 0.35000000000002274,
          "durationTicks": 336,
          "midi": 77,
          "name": "F5",
          "ticks": 503880,
          "time": 524.875,
          "velocity": 1
        },
        {
          "duration": 0.330208333333303,
          "durationTicks": 317,
          "midi": 39,
          "name": "D#2",
          "ticks": 504120,
          "time": 525.125,
          "velocity": 1
        },
        {
          "duration": 0.330208333333303,
          "durationTicks": 317,
          "midi": 48,
          "name": "C3",
          "ticks": 504120,
          "time": 525.125,
          "velocity": 1
        },
        {
          "duration": 0.330208333333303,
          "durationTicks": 317,
          "midi": 53,
          "name": "F3",
          "ticks": 504120,
          "time": 525.125,
          "velocity": 1
        },
        {
          "duration": 0.19166666666671972,
          "durationTicks": 184,
          "midi": 79,
          "name": "G5",
          "ticks": 504240,
          "time": 525.25,
          "velocity": 1
        },
        {
          "duration": 0.2802083333333485,
          "durationTicks": 269,
          "midi": 81,
          "name": "A5",
          "ticks": 504480,
          "time": 525.5,
          "velocity": 1
        },
        {
          "duration": 1.3802083333333712,
          "durationTicks": 1325,
          "midi": 50,
          "name": "D3",
          "ticks": 504840,
          "time": 525.875,
          "velocity": 1
        },
        {
          "duration": 1.3802083333333712,
          "durationTicks": 1325,
          "midi": 60,
          "name": "C4",
          "ticks": 504840,
          "time": 525.875,
          "velocity": 1
        },
        {
          "duration": 0.3708333333332803,
          "durationTicks": 356,
          "midi": 65,
          "name": "F4",
          "ticks": 504840,
          "time": 525.875,
          "velocity": 1
        },
        {
          "duration": 0.2802083333333485,
          "durationTicks": 269,
          "midi": 82,
          "name": "A#5",
          "ticks": 504840,
          "time": 525.875,
          "velocity": 1
        },
        {
          "duration": 1.0093749999999773,
          "durationTicks": 969,
          "midi": 66,
          "name": "F#4",
          "ticks": 505200,
          "time": 526.25,
          "velocity": 1
        },
        {
          "duration": 0.3093750000000455,
          "durationTicks": 297,
          "midi": 78,
          "name": "F#5",
          "ticks": 505200,
          "time": 526.25,
          "velocity": 1
        },
        {
          "duration": 0.14999999999997726,
          "durationTicks": 144,
          "midi": 82,
          "name": "A#5",
          "ticks": 505440,
          "time": 526.5,
          "velocity": 1
        },
        {
          "duration": 0.19062499999995453,
          "durationTicks": 183,
          "midi": 77,
          "name": "F5",
          "ticks": 505560,
          "time": 526.625,
          "velocity": 1
        },
        {
          "duration": 0.15937499999995453,
          "durationTicks": 153,
          "midi": 75,
          "name": "D#5",
          "ticks": 505800,
          "time": 526.875,
          "velocity": 1
        },
        {
          "duration": 0.20000000000004547,
          "durationTicks": 192,
          "midi": 74,
          "name": "D5",
          "ticks": 505920,
          "time": 527,
          "velocity": 1
        },
        {
          "duration": 1.1791666666666742,
          "durationTicks": 1132,
          "midi": 51,
          "name": "D#3",
          "ticks": 506160,
          "time": 527.25,
          "velocity": 1
        },
        {
          "duration": 0.4406249999999545,
          "durationTicks": 423,
          "midi": 62,
          "name": "D4",
          "ticks": 506160,
          "time": 527.25,
          "velocity": 1
        },
        {
          "duration": 0.4406249999999545,
          "durationTicks": 423,
          "midi": 67,
          "name": "G4",
          "ticks": 506160,
          "time": 527.25,
          "velocity": 1
        },
        {
          "duration": 0.12916666666671972,
          "durationTicks": 124,
          "midi": 77,
          "name": "F5",
          "ticks": 506160,
          "time": 527.25,
          "velocity": 1
        },
        {
          "duration": 0.18020833333332575,
          "durationTicks": 173,
          "midi": 72,
          "name": "C5",
          "ticks": 506280,
          "time": 527.375,
          "velocity": 1
        },
        {
          "duration": 0.13229166666667425,
          "durationTicks": 127,
          "midi": 71,
          "name": "B4",
          "ticks": 506400,
          "time": 527.5,
          "velocity": 1
        },
        {
          "duration": 0.7385416666667197,
          "durationTicks": 709,
          "midi": 61,
          "name": "C#4",
          "ticks": 506520,
          "time": 527.625,
          "velocity": 1
        },
        {
          "duration": 0.7385416666667197,
          "durationTicks": 709,
          "midi": 66,
          "name": "F#4",
          "ticks": 506520,
          "time": 527.625,
          "velocity": 1
        },
        {
          "duration": 0.20937500000002274,
          "durationTicks": 201,
          "midi": 70,
          "name": "A#4",
          "ticks": 506520,
          "time": 527.625,
          "velocity": 1
        },
        {
          "duration": 0.17916666666667425,
          "durationTicks": 172,
          "midi": 75,
          "name": "D#5",
          "ticks": 506760,
          "time": 527.875,
          "velocity": 1
        },
        {
          "duration": 0.16145833333337123,
          "durationTicks": 155,
          "midi": 69,
          "name": "A4",
          "ticks": 506880,
          "time": 528,
          "velocity": 1
        },
        {
          "duration": 0.16875000000004547,
          "durationTicks": 162,
          "midi": 68,
          "name": "G#4",
          "ticks": 507000,
          "time": 528.125,
          "velocity": 1
        },
        {
          "duration": 0.1708333333333485,
          "durationTicks": 164,
          "midi": 67,
          "name": "G4",
          "ticks": 507240,
          "time": 528.375,
          "velocity": 1
        },
        {
          "duration": 0.1708333333333485,
          "durationTicks": 164,
          "midi": 66,
          "name": "F#4",
          "ticks": 507360,
          "time": 528.5,
          "velocity": 1
        },
        {
          "duration": 0.19062499999995453,
          "durationTicks": 183,
          "midi": 65,
          "name": "F4",
          "ticks": 507600,
          "time": 528.75,
          "velocity": 1
        },
        {
          "duration": 0.45937500000002274,
          "durationTicks": 441,
          "midi": 43,
          "name": "G2",
          "ticks": 507720,
          "time": 528.875,
          "velocity": 1
        },
        {
          "duration": 0.45937500000002274,
          "durationTicks": 441,
          "midi": 53,
          "name": "F3",
          "ticks": 507720,
          "time": 528.875,
          "velocity": 1
        },
        {
          "duration": 0.33854166666662877,
          "durationTicks": 325,
          "midi": 58,
          "name": "A#3",
          "ticks": 507720,
          "time": 528.875,
          "velocity": 1
        },
        {
          "duration": 0.15937499999995453,
          "durationTicks": 153,
          "midi": 72,
          "name": "C5",
          "ticks": 507720,
          "time": 528.875,
          "velocity": 1
        },
        {
          "duration": 0.2999999999999545,
          "durationTicks": 288,
          "midi": 70,
          "name": "A#4",
          "ticks": 507840,
          "time": 529,
          "velocity": 1
        },
        {
          "duration": 0.12083333333328028,
          "durationTicks": 116,
          "midi": 62,
          "name": "D4",
          "ticks": 508080,
          "time": 529.25,
          "velocity": 1
        },
        {
          "duration": 0.529166666666697,
          "durationTicks": 508,
          "midi": 48,
          "name": "C3",
          "ticks": 508200,
          "time": 529.375,
          "velocity": 1
        },
        {
          "duration": 0.529166666666697,
          "durationTicks": 508,
          "midi": 52,
          "name": "E3",
          "ticks": 508200,
          "time": 529.375,
          "velocity": 1
        },
        {
          "duration": 0.529166666666697,
          "durationTicks": 508,
          "midi": 58,
          "name": "A#3",
          "ticks": 508200,
          "time": 529.375,
          "velocity": 1
        },
        {
          "duration": 0.1708333333333485,
          "durationTicks": 164,
          "midi": 66,
          "name": "F#4",
          "ticks": 508200,
          "time": 529.375,
          "velocity": 1
        },
        {
          "duration": 0.18020833333332575,
          "durationTicks": 173,
          "midi": 69,
          "name": "A4",
          "ticks": 508320,
          "time": 529.5,
          "velocity": 1
        },
        {
          "duration": 0.17916666666667425,
          "durationTicks": 172,
          "midi": 67,
          "name": "G4",
          "ticks": 508560,
          "time": 529.75,
          "velocity": 1
        },
        {
          "duration": 0.32083333333332575,
          "durationTicks": 308,
          "midi": 51,
          "name": "D#3",
          "ticks": 508680,
          "time": 529.875,
          "velocity": 1
        },
        {
          "duration": 0.32083333333332575,
          "durationTicks": 308,
          "midi": 58,
          "name": "A#3",
          "ticks": 508680,
          "time": 529.875,
          "velocity": 1
        },
        {
          "duration": 0.5499999999999545,
          "durationTicks": 528,
          "midi": 65,
          "name": "F4",
          "ticks": 508680,
          "time": 529.875,
          "velocity": 1
        },
        {
          "duration": 0.3291666666666515,
          "durationTicks": 316,
          "midi": 41,
          "name": "F2",
          "ticks": 509040,
          "time": 530.25,
          "velocity": 1
        },
        {
          "duration": 0.1708333333333485,
          "durationTicks": 164,
          "midi": 51,
          "name": "D#3",
          "ticks": 509280,
          "time": 530.5,
          "velocity": 1
        },
        {
          "duration": 0.1708333333333485,
          "durationTicks": 164,
          "midi": 57,
          "name": "A3",
          "ticks": 509280,
          "time": 530.5,
          "velocity": 1
        },
        {
          "duration": 0.07916666666665151,
          "durationTicks": 76,
          "midi": 63,
          "name": "D#4",
          "ticks": 509280,
          "time": 530.5,
          "velocity": 1
        },
        {
          "duration": 0.09166666666669698,
          "durationTicks": 88,
          "midi": 66,
          "name": "F#4",
          "ticks": 509400,
          "time": 530.625,
          "velocity": 1
        },
        {
          "duration": 0.10000000000002274,
          "durationTicks": 96,
          "midi": 65,
          "name": "F4",
          "ticks": 509520,
          "time": 530.75,
          "velocity": 1
        },
        {
          "duration": 0.10000000000002274,
          "durationTicks": 96,
          "midi": 63,
          "name": "D#4",
          "ticks": 509640,
          "time": 530.875,
          "velocity": 1
        },
        {
          "duration": 0.10000000000002274,
          "durationTicks": 96,
          "midi": 64,
          "name": "E4",
          "ticks": 509640,
          "time": 530.875,
          "velocity": 1
        },
        {
          "duration": 0.109375,
          "durationTicks": 105,
          "midi": 62,
          "name": "D4",
          "ticks": 509760,
          "time": 531,
          "velocity": 1
        },
        {
          "duration": 0.10000000000002274,
          "durationTicks": 96,
          "midi": 61,
          "name": "C#4",
          "ticks": 509880,
          "time": 531.125,
          "velocity": 1
        },
        {
          "duration": 0.10000000000002274,
          "durationTicks": 96,
          "midi": 60,
          "name": "C4",
          "ticks": 510000,
          "time": 531.25,
          "velocity": 1
        },
        {
          "duration": 0.43229166666662877,
          "durationTicks": 415,
          "midi": 41,
          "name": "F2",
          "ticks": 510120,
          "time": 531.375,
          "velocity": 1
        },
        {
          "duration": 0.43229166666662877,
          "durationTicks": 415,
          "midi": 51,
          "name": "D#3",
          "ticks": 510120,
          "time": 531.375,
          "velocity": 1
        },
        {
          "duration": 0.43229166666662877,
          "durationTicks": 415,
          "midi": 56,
          "name": "G#3",
          "ticks": 510120,
          "time": 531.375,
          "velocity": 1
        },
        {
          "duration": 0.10000000000002274,
          "durationTicks": 96,
          "midi": 63,
          "name": "D#4",
          "ticks": 510120,
          "time": 531.375,
          "velocity": 1
        },
        {
          "duration": 0.11145833333330302,
          "durationTicks": 107,
          "midi": 67,
          "name": "G4",
          "ticks": 510240,
          "time": 531.5,
          "velocity": 1
        },
        {
          "duration": 0.109375,
          "durationTicks": 105,
          "midi": 70,
          "name": "A#4",
          "ticks": 510240,
          "time": 531.5,
          "velocity": 1
        },
        {
          "duration": 0.11145833333330302,
          "durationTicks": 107,
          "midi": 67,
          "name": "G4",
          "ticks": 510360,
          "time": 531.625,
          "velocity": 1
        },
        {
          "duration": 0.10000000000002274,
          "durationTicks": 96,
          "midi": 68,
          "name": "G#4",
          "ticks": 510480,
          "time": 531.75,
          "velocity": 1
        },
        {
          "duration": 0.10000000000002274,
          "durationTicks": 96,
          "midi": 70,
          "name": "A#4",
          "ticks": 510600,
          "time": 531.875,
          "velocity": 1
        },
        {
          "duration": 0.11874999999997726,
          "durationTicks": 114,
          "midi": 72,
          "name": "C5",
          "ticks": 510720,
          "time": 532,
          "velocity": 1
        },
        {
          "duration": 0.12083333333328028,
          "durationTicks": 116,
          "midi": 75,
          "name": "D#5",
          "ticks": 510840,
          "time": 532.125,
          "velocity": 1
        },
        {
          "duration": 0.11145833333330302,
          "durationTicks": 107,
          "midi": 79,
          "name": "G5",
          "ticks": 510960,
          "time": 532.25,
          "velocity": 1
        },
        {
          "duration": 0.5385416666666742,
          "durationTicks": 517,
          "midi": 46,
          "name": "A#2",
          "ticks": 511080,
          "time": 532.375,
          "velocity": 1
        },
        {
          "duration": 0.5385416666666742,
          "durationTicks": 517,
          "midi": 56,
          "name": "G#3",
          "ticks": 511080,
          "time": 532.375,
          "velocity": 1
        },
        {
          "duration": 0.5385416666666742,
          "durationTicks": 517,
          "midi": 62,
          "name": "D4",
          "ticks": 511080,
          "time": 532.375,
          "velocity": 1
        },
        {
          "duration": 0.08854166666662877,
          "durationTicks": 85,
          "midi": 74,
          "name": "D5",
          "ticks": 511080,
          "time": 532.375,
          "velocity": 1
        },
        {
          "duration": 0.10000000000002274,
          "durationTicks": 96,
          "midi": 78,
          "name": "F#5",
          "ticks": 511080,
          "time": 532.375,
          "velocity": 1
        },
        {
          "duration": 0.08854166666662877,
          "durationTicks": 85,
          "midi": 71,
          "name": "B4",
          "ticks": 511200,
          "time": 532.5,
          "velocity": 1
        },
        {
          "duration": 0.10000000000002274,
          "durationTicks": 96,
          "midi": 68,
          "name": "G#4",
          "ticks": 511320,
          "time": 532.625,
          "velocity": 1
        },
        {
          "duration": 0.109375,
          "durationTicks": 105,
          "midi": 67,
          "name": "G4",
          "ticks": 511440,
          "time": 532.75,
          "velocity": 1
        },
        {
          "duration": 0.3322916666667197,
          "durationTicks": 319,
          "midi": 51,
          "name": "D#3",
          "ticks": 511560,
          "time": 532.875,
          "velocity": 1
        },
        {
          "duration": 0.3322916666667197,
          "durationTicks": 319,
          "midi": 55,
          "name": "G3",
          "ticks": 511560,
          "time": 532.875,
          "velocity": 1
        },
        {
          "duration": 0.3322916666667197,
          "durationTicks": 319,
          "midi": 62,
          "name": "D4",
          "ticks": 511560,
          "time": 532.875,
          "velocity": 1
        },
        {
          "duration": 0.08020833333330302,
          "durationTicks": 77,
          "midi": 70,
          "name": "A#4",
          "ticks": 511560,
          "time": 532.875,
          "velocity": 1
        },
        {
          "duration": 0.11145833333330302,
          "durationTicks": 107,
          "midi": 74,
          "name": "D5",
          "ticks": 511560,
          "time": 532.875,
          "velocity": 1
        },
        {
          "duration": 0.109375,
          "durationTicks": 105,
          "midi": 77,
          "name": "F5",
          "ticks": 511680,
          "time": 533,
          "velocity": 1
        },
        {
          "duration": 0.11145833333330302,
          "durationTicks": 107,
          "midi": 74,
          "name": "D5",
          "ticks": 511800,
          "time": 533.125,
          "velocity": 1
        },
        {
          "duration": 0.9593750000000227,
          "durationTicks": 921,
          "midi": 75,
          "name": "D#5",
          "ticks": 511920,
          "time": 533.25,
          "velocity": 1
        },
        {
          "duration": 0.279166666666697,
          "durationTicks": 268,
          "midi": 52,
          "name": "E3",
          "ticks": 512280,
          "time": 533.625,
          "velocity": 1
        },
        {
          "duration": 0.6000000000000227,
          "durationTicks": 576,
          "midi": 58,
          "name": "A#3",
          "ticks": 512280,
          "time": 533.625,
          "velocity": 1
        },
        {
          "duration": 0.279166666666697,
          "durationTicks": 268,
          "midi": 61,
          "name": "C#4",
          "ticks": 512280,
          "time": 533.625,
          "velocity": 1
        },
        {
          "duration": 0.32083333333332575,
          "durationTicks": 308,
          "midi": 53,
          "name": "F3",
          "ticks": 512520,
          "time": 533.875,
          "velocity": 1
        },
        {
          "duration": 0.32083333333332575,
          "durationTicks": 308,
          "midi": 62,
          "name": "D4",
          "ticks": 512520,
          "time": 533.875,
          "velocity": 1
        },
        {
          "duration": 0.140625,
          "durationTicks": 135,
          "midi": 77,
          "name": "F5",
          "ticks": 512880,
          "time": 534.25,
          "velocity": 1
        },
        {
          "duration": 0.10000000000002274,
          "durationTicks": 96,
          "midi": 74,
          "name": "D5",
          "ticks": 513000,
          "time": 534.375,
          "velocity": 1
        },
        {
          "duration": 0.10000000000002274,
          "durationTicks": 96,
          "midi": 70,
          "name": "A#4",
          "ticks": 513120,
          "time": 534.5,
          "velocity": 1
        },
        {
          "duration": 0.13020833333337123,
          "durationTicks": 125,
          "midi": 65,
          "name": "F4",
          "ticks": 513240,
          "time": 534.625,
          "velocity": 1
        },
        {
          "duration": 0.35000000000002274,
          "durationTicks": 336,
          "midi": 42,
          "name": "F#2",
          "ticks": 513360,
          "time": 534.75,
          "velocity": 1
        },
        {
          "duration": 0.35000000000002274,
          "durationTicks": 336,
          "midi": 51,
          "name": "D#3",
          "ticks": 513360,
          "time": 534.75,
          "velocity": 1
        },
        {
          "duration": 0.35000000000002274,
          "durationTicks": 336,
          "midi": 57,
          "name": "A3",
          "ticks": 513360,
          "time": 534.75,
          "velocity": 1
        },
        {
          "duration": 0.22083333333330302,
          "durationTicks": 212,
          "midi": 66,
          "name": "F#4",
          "ticks": 513360,
          "time": 534.75,
          "velocity": 1
        },
        {
          "duration": 0.13020833333337123,
          "durationTicks": 125,
          "midi": 74,
          "name": "D5",
          "ticks": 513480,
          "time": 534.875,
          "velocity": 1
        },
        {
          "duration": 0.5385416666666742,
          "durationTicks": 517,
          "midi": 43,
          "name": "G2",
          "ticks": 513600,
          "time": 535,
          "velocity": 1
        },
        {
          "duration": 0.5385416666666742,
          "durationTicks": 517,
          "midi": 53,
          "name": "F3",
          "ticks": 513600,
          "time": 535,
          "velocity": 1
        },
        {
          "duration": 0.5385416666666742,
          "durationTicks": 517,
          "midi": 58,
          "name": "A#3",
          "ticks": 513600,
          "time": 535,
          "velocity": 1
        },
        {
          "duration": 0.22083333333330302,
          "durationTicks": 212,
          "midi": 69,
          "name": "A4",
          "ticks": 513600,
          "time": 535,
          "velocity": 1
        },
        {
          "duration": 0.31875000000002274,
          "durationTicks": 306,
          "midi": 70,
          "name": "A#4",
          "ticks": 513840,
          "time": 535.25,
          "velocity": 1
        },
        {
          "duration": 0.49166666666667425,
          "durationTicks": 472,
          "midi": 37,
          "name": "C#2",
          "ticks": 514080,
          "time": 535.5,
          "velocity": 1
        },
        {
          "duration": 0.49166666666667425,
          "durationTicks": 472,
          "midi": 53,
          "name": "F3",
          "ticks": 514080,
          "time": 535.5,
          "velocity": 1
        },
        {
          "duration": 0.14999999999997726,
          "durationTicks": 144,
          "midi": 67,
          "name": "G4",
          "ticks": 514080,
          "time": 535.5,
          "velocity": 1
        },
        {
          "duration": 0.22083333333330302,
          "durationTicks": 212,
          "midi": 63,
          "name": "D#4",
          "ticks": 514200,
          "time": 535.625,
          "velocity": 1
        },
        {
          "duration": 0.12083333333328028,
          "durationTicks": 116,
          "midi": 59,
          "name": "B3",
          "ticks": 514440,
          "time": 535.875,
          "velocity": 1
        },
        {
          "duration": 0.3291666666666515,
          "durationTicks": 316,
          "midi": 36,
          "name": "C2",
          "ticks": 514560,
          "time": 536,
          "velocity": 1
        },
        {
          "duration": 0.3291666666666515,
          "durationTicks": 316,
          "midi": 52,
          "name": "E3",
          "ticks": 514560,
          "time": 536,
          "velocity": 1
        },
        {
          "duration": 0.3291666666666515,
          "durationTicks": 316,
          "midi": 63,
          "name": "D#4",
          "ticks": 514560,
          "time": 536,
          "velocity": 1
        },
        {
          "duration": 0.1708333333333485,
          "durationTicks": 164,
          "midi": 66,
          "name": "F#4",
          "ticks": 514560,
          "time": 536,
          "velocity": 1
        },
        {
          "duration": 0.15937499999995453,
          "durationTicks": 153,
          "midi": 69,
          "name": "A4",
          "ticks": 514800,
          "time": 536.25,
          "velocity": 1
        },
        {
          "duration": 0.19166666666671972,
          "durationTicks": 184,
          "midi": 37,
          "name": "C#2",
          "ticks": 514920,
          "time": 536.375,
          "velocity": 1
        },
        {
          "duration": 0.19166666666671972,
          "durationTicks": 184,
          "midi": 52,
          "name": "E3",
          "ticks": 514920,
          "time": 536.375,
          "velocity": 1
        },
        {
          "duration": 0.19166666666671972,
          "durationTicks": 184,
          "midi": 64,
          "name": "E4",
          "ticks": 514920,
          "time": 536.375,
          "velocity": 1
        },
        {
          "duration": 0.19166666666671972,
          "durationTicks": 184,
          "midi": 67,
          "name": "G4",
          "ticks": 514920,
          "time": 536.375,
          "velocity": 1
        },
        {
          "duration": 0.35000000000002274,
          "durationTicks": 336,
          "midi": 38,
          "name": "D2",
          "ticks": 515160,
          "time": 536.625,
          "velocity": 1
        },
        {
          "duration": 0.35000000000002274,
          "durationTicks": 336,
          "midi": 50,
          "name": "D3",
          "ticks": 515160,
          "time": 536.625,
          "velocity": 1
        },
        {
          "duration": 0.35000000000002274,
          "durationTicks": 336,
          "midi": 53,
          "name": "F3",
          "ticks": 515160,
          "time": 536.625,
          "velocity": 1
        },
        {
          "duration": 0.35000000000002274,
          "durationTicks": 336,
          "midi": 60,
          "name": "C4",
          "ticks": 515160,
          "time": 536.625,
          "velocity": 1
        },
        {
          "duration": 0.35000000000002274,
          "durationTicks": 336,
          "midi": 62,
          "name": "D4",
          "ticks": 515160,
          "time": 536.625,
          "velocity": 1
        },
        {
          "duration": 0.35000000000002274,
          "durationTicks": 336,
          "midi": 65,
          "name": "F4",
          "ticks": 515160,
          "time": 536.625,
          "velocity": 1
        },
        {
          "duration": 0.341666666666697,
          "durationTicks": 328,
          "midi": 44,
          "name": "G#2",
          "ticks": 515520,
          "time": 537,
          "velocity": 1
        },
        {
          "duration": 0.341666666666697,
          "durationTicks": 328,
          "midi": 54,
          "name": "F#3",
          "ticks": 515520,
          "time": 537,
          "velocity": 1
        },
        {
          "duration": 0.359375,
          "durationTicks": 345,
          "midi": 43,
          "name": "G2",
          "ticks": 515880,
          "time": 537.375,
          "velocity": 1
        },
        {
          "duration": 0.359375,
          "durationTicks": 345,
          "midi": 53,
          "name": "F3",
          "ticks": 515880,
          "time": 537.375,
          "velocity": 1
        },
        {
          "duration": 0.359375,
          "durationTicks": 345,
          "midi": 59,
          "name": "B3",
          "ticks": 515880,
          "time": 537.375,
          "velocity": 1
        },
        {
          "duration": 0.359375,
          "durationTicks": 345,
          "midi": 65,
          "name": "F4",
          "ticks": 515880,
          "time": 537.375,
          "velocity": 1
        },
        {
          "duration": 0.359375,
          "durationTicks": 345,
          "midi": 70,
          "name": "A#4",
          "ticks": 515880,
          "time": 537.375,
          "velocity": 1
        },
        {
          "duration": 0.341666666666697,
          "durationTicks": 328,
          "midi": 49,
          "name": "C#3",
          "ticks": 516240,
          "time": 537.75,
          "velocity": 1
        },
        {
          "duration": 0.341666666666697,
          "durationTicks": 328,
          "midi": 59,
          "name": "B3",
          "ticks": 516240,
          "time": 537.75,
          "velocity": 1
        },
        {
          "duration": 0.341666666666697,
          "durationTicks": 328,
          "midi": 63,
          "name": "D#4",
          "ticks": 516240,
          "time": 537.75,
          "velocity": 1
        },
        {
          "duration": 0.341666666666697,
          "durationTicks": 328,
          "midi": 65,
          "name": "F4",
          "ticks": 516240,
          "time": 537.75,
          "velocity": 1
        },
        {
          "duration": 0.341666666666697,
          "durationTicks": 328,
          "midi": 72,
          "name": "C5",
          "ticks": 516240,
          "time": 537.75,
          "velocity": 1
        },
        {
          "duration": 0.359375,
          "durationTicks": 345,
          "midi": 48,
          "name": "C3",
          "ticks": 516480,
          "time": 538,
          "velocity": 1
        },
        {
          "duration": 0.6000000000000227,
          "durationTicks": 576,
          "midi": 58,
          "name": "A#3",
          "ticks": 516480,
          "time": 538,
          "velocity": 1
        },
        {
          "duration": 0.6000000000000227,
          "durationTicks": 576,
          "midi": 62,
          "name": "D4",
          "ticks": 516480,
          "time": 538,
          "velocity": 1
        },
        {
          "duration": 0.359375,
          "durationTicks": 345,
          "midi": 66,
          "name": "F#4",
          "ticks": 516480,
          "time": 538,
          "velocity": 1
        },
        {
          "duration": 0.359375,
          "durationTicks": 345,
          "midi": 74,
          "name": "D5",
          "ticks": 516480,
          "time": 538,
          "velocity": 1
        },
        {
          "duration": 0.13020833333337123,
          "durationTicks": 125,
          "midi": 55,
          "name": "G3",
          "ticks": 516840,
          "time": 538.375,
          "velocity": 1
        },
        {
          "duration": 0.3708333333332803,
          "durationTicks": 356,
          "midi": 63,
          "name": "D#4",
          "ticks": 516840,
          "time": 538.375,
          "velocity": 1
        },
        {
          "duration": 0.13020833333337123,
          "durationTicks": 125,
          "midi": 70,
          "name": "A#4",
          "ticks": 516840,
          "time": 538.375,
          "velocity": 1
        },
        {
          "duration": 0.24166666666667425,
          "durationTicks": 232,
          "midi": 51,
          "name": "D#3",
          "ticks": 516960,
          "time": 538.5,
          "velocity": 1
        },
        {
          "duration": 0.24166666666667425,
          "durationTicks": 232,
          "midi": 67,
          "name": "G4",
          "ticks": 516960,
          "time": 538.5,
          "velocity": 1
        },
        {
          "duration": 0.12916666666671972,
          "durationTicks": 124,
          "midi": 55,
          "name": "G3",
          "ticks": 517200,
          "time": 538.75,
          "velocity": 1
        },
        {
          "duration": 0.12916666666671972,
          "durationTicks": 124,
          "midi": 67,
          "name": "G4",
          "ticks": 517200,
          "time": 538.75,
          "velocity": 1
        },
        {
          "duration": 0.22083333333330302,
          "durationTicks": 212,
          "midi": 57,
          "name": "A3",
          "ticks": 517320,
          "time": 538.875,
          "velocity": 1
        },
        {
          "duration": 0.361458333333303,
          "durationTicks": 347,
          "midi": 63,
          "name": "D#4",
          "ticks": 517320,
          "time": 538.875,
          "velocity": 1
        },
        {
          "duration": 0.22083333333330302,
          "durationTicks": 212,
          "midi": 74,
          "name": "D5",
          "ticks": 517320,
          "time": 538.875,
          "velocity": 1
        },
        {
          "duration": 0.140625,
          "durationTicks": 135,
          "midi": 51,
          "name": "D#3",
          "ticks": 517560,
          "time": 539.125,
          "velocity": 1
        },
        {
          "duration": 0.140625,
          "durationTicks": 135,
          "midi": 69,
          "name": "A4",
          "ticks": 517560,
          "time": 539.125,
          "velocity": 1
        },
        {
          "duration": 0.23854166666671972,
          "durationTicks": 229,
          "midi": 41,
          "name": "F2",
          "ticks": 517680,
          "time": 539.25,
          "velocity": 1
        },
        {
          "duration": 0.23854166666671972,
          "durationTicks": 229,
          "midi": 57,
          "name": "A3",
          "ticks": 517680,
          "time": 539.25,
          "velocity": 1
        },
        {
          "duration": 0.23854166666671972,
          "durationTicks": 229,
          "midi": 63,
          "name": "D#4",
          "ticks": 517680,
          "time": 539.25,
          "velocity": 1
        },
        {
          "duration": 0.23854166666671972,
          "durationTicks": 229,
          "midi": 66,
          "name": "F#4",
          "ticks": 517680,
          "time": 539.25,
          "velocity": 1
        },
        {
          "duration": 0.23854166666671972,
          "durationTicks": 229,
          "midi": 74,
          "name": "D5",
          "ticks": 517680,
          "time": 539.25,
          "velocity": 1
        },
        {
          "duration": 0.1416666666666515,
          "durationTicks": 136,
          "midi": 46,
          "name": "A#2",
          "ticks": 517920,
          "time": 539.5,
          "velocity": 1
        },
        {
          "duration": 0.1416666666666515,
          "durationTicks": 136,
          "midi": 57,
          "name": "A3",
          "ticks": 517920,
          "time": 539.5,
          "velocity": 1
        },
        {
          "duration": 0.1416666666666515,
          "durationTicks": 136,
          "midi": 62,
          "name": "D4",
          "ticks": 517920,
          "time": 539.5,
          "velocity": 1
        },
        {
          "duration": 0.1416666666666515,
          "durationTicks": 136,
          "midi": 67,
          "name": "G4",
          "ticks": 517920,
          "time": 539.5,
          "velocity": 1
        },
        {
          "duration": 0.1416666666666515,
          "durationTicks": 136,
          "midi": 70,
          "name": "A#4",
          "ticks": 517920,
          "time": 539.5,
          "velocity": 1
        },
        {
          "duration": 1.7802083333333485,
          "durationTicks": 1709,
          "midi": 53,
          "name": "F3",
          "ticks": 518400,
          "time": 540,
          "velocity": 1
        },
        {
          "duration": 1.7802083333333485,
          "durationTicks": 1709,
          "midi": 58,
          "name": "A#3",
          "ticks": 518400,
          "time": 540,
          "velocity": 1
        },
        {
          "duration": 1.7802083333333485,
          "durationTicks": 1709,
          "midi": 63,
          "name": "D#4",
          "ticks": 518400,
          "time": 540,
          "velocity": 1
        },
        {
          "duration": 1.7802083333333485,
          "durationTicks": 1709,
          "midi": 67,
          "name": "G4",
          "ticks": 518400,
          "time": 540,
          "velocity": 1
        },
        {
          "duration": 1.3687499999999773,
          "durationTicks": 1314,
          "midi": 74,
          "name": "D5",
          "ticks": 518400,
          "time": 540,
          "velocity": 1
        },
        {
          "duration": 0.7302083333332803,
          "durationTicks": 701,
          "midi": 77,
          "name": "F5",
          "ticks": 518400,
          "time": 540,
          "velocity": 1
        },
        {
          "duration": 0.41145833333337123,
          "durationTicks": 395,
          "midi": 77,
          "name": "F5",
          "ticks": 519720,
          "time": 541.375,
          "velocity": 1
        },
        {
          "duration": 1.6499999999999773,
          "durationTicks": 1584,
          "midi": 65,
          "name": "F4",
          "ticks": 520080,
          "time": 541.75,
          "velocity": 1
        },
        {
          "duration": 1.6499999999999773,
          "durationTicks": 1584,
          "midi": 70,
          "name": "A#4",
          "ticks": 520080,
          "time": 541.75,
          "velocity": 1
        },
        {
          "duration": 1,
          "durationTicks": 960,
          "midi": 75,
          "name": "D#5",
          "ticks": 520080,
          "time": 541.75,
          "velocity": 1
        },
        {
          "duration": 1,
          "durationTicks": 960,
          "midi": 82,
          "name": "A#5",
          "ticks": 520080,
          "time": 541.75,
          "velocity": 1
        },
        {
          "duration": 0.8916666666666515,
          "durationTicks": 856,
          "midi": 48,
          "name": "C3",
          "ticks": 521640,
          "time": 543.375,
          "velocity": 1
        },
        {
          "duration": 0.8916666666666515,
          "durationTicks": 856,
          "midi": 58,
          "name": "A#3",
          "ticks": 521640,
          "time": 543.375,
          "velocity": 1
        },
        {
          "duration": 0.8916666666666515,
          "durationTicks": 856,
          "midi": 60,
          "name": "C4",
          "ticks": 521640,
          "time": 543.375,
          "velocity": 1
        },
        {
          "duration": 0.8916666666666515,
          "durationTicks": 856,
          "midi": 65,
          "name": "F4",
          "ticks": 521640,
          "time": 543.375,
          "velocity": 1
        },
        {
          "duration": 0.8916666666666515,
          "durationTicks": 856,
          "midi": 70,
          "name": "A#4",
          "ticks": 521640,
          "time": 543.375,
          "velocity": 1
        },
        {
          "duration": 0.8916666666666515,
          "durationTicks": 856,
          "midi": 72,
          "name": "C5",
          "ticks": 521640,
          "time": 543.375,
          "velocity": 1
        },
        {
          "duration": 1.591666666666697,
          "durationTicks": 1528,
          "midi": 62,
          "name": "D4",
          "ticks": 522480,
          "time": 544.25,
          "velocity": 1
        },
        {
          "duration": 1.591666666666697,
          "durationTicks": 1528,
          "midi": 65,
          "name": "F4",
          "ticks": 522480,
          "time": 544.25,
          "velocity": 1
        },
        {
          "duration": 1.591666666666697,
          "durationTicks": 1528,
          "midi": 67,
          "name": "G4",
          "ticks": 522480,
          "time": 544.25,
          "velocity": 1
        },
        {
          "duration": 1.591666666666697,
          "durationTicks": 1528,
          "midi": 70,
          "name": "A#4",
          "ticks": 522480,
          "time": 544.25,
          "velocity": 1
        },
        {
          "duration": 1.591666666666697,
          "durationTicks": 1528,
          "midi": 77,
          "name": "F5",
          "ticks": 522480,
          "time": 544.25,
          "velocity": 1
        },
        {
          "duration": 0.5499999999999545,
          "durationTicks": 528,
          "midi": 48,
          "name": "C3",
          "ticks": 523440,
          "time": 545.25,
          "velocity": 1
        },
        {
          "duration": 1.330208333333303,
          "durationTicks": 1277,
          "midi": 58,
          "name": "A#3",
          "ticks": 524040,
          "time": 545.875,
          "velocity": 1
        },
        {
          "duration": 1.330208333333303,
          "durationTicks": 1277,
          "midi": 64,
          "name": "E4",
          "ticks": 524040,
          "time": 545.875,
          "velocity": 1
        },
        {
          "duration": 1.330208333333303,
          "durationTicks": 1277,
          "midi": 67,
          "name": "G4",
          "ticks": 524040,
          "time": 545.875,
          "velocity": 1
        },
        {
          "duration": 0.9302083333333258,
          "durationTicks": 893,
          "midi": 70,
          "name": "A#4",
          "ticks": 524040,
          "time": 545.875,
          "velocity": 1
        },
        {
          "duration": 1.330208333333303,
          "durationTicks": 1277,
          "midi": 73,
          "name": "C#5",
          "ticks": 524040,
          "time": 545.875,
          "velocity": 1
        },
        {
          "duration": 1.330208333333303,
          "durationTicks": 1277,
          "midi": 79,
          "name": "G5",
          "ticks": 524040,
          "time": 545.875,
          "velocity": 1
        },
        {
          "duration": 0.25937499999997726,
          "durationTicks": 249,
          "midi": 53,
          "name": "F3",
          "ticks": 525360,
          "time": 547.25,
          "velocity": 1
        },
        {
          "duration": 1.638541666666697,
          "durationTicks": 1573,
          "midi": 57,
          "name": "A3",
          "ticks": 525360,
          "time": 547.25,
          "velocity": 1
        },
        {
          "duration": 1.638541666666697,
          "durationTicks": 1573,
          "midi": 60,
          "name": "C4",
          "ticks": 525360,
          "time": 547.25,
          "velocity": 1
        },
        {
          "duration": 1.638541666666697,
          "durationTicks": 1573,
          "midi": 64,
          "name": "E4",
          "ticks": 525360,
          "time": 547.25,
          "velocity": 1
        },
        {
          "duration": 1.638541666666697,
          "durationTicks": 1573,
          "midi": 67,
          "name": "G4",
          "ticks": 525360,
          "time": 547.25,
          "velocity": 1
        },
        {
          "duration": 1.638541666666697,
          "durationTicks": 1573,
          "midi": 72,
          "name": "C5",
          "ticks": 525360,
          "time": 547.25,
          "velocity": 1
        },
        {
          "duration": 0.07083333333332575,
          "durationTicks": 68,
          "midi": 76,
          "name": "E5",
          "ticks": 525360,
          "time": 547.25,
          "velocity": 1
        },
        {
          "duration": 1.5593750000000455,
          "durationTicks": 1497,
          "midi": 81,
          "name": "A5",
          "ticks": 525480,
          "time": 547.375,
          "velocity": 1
        },
        {
          "duration": 1.5499999999999545,
          "durationTicks": 1488,
          "midi": 48,
          "name": "C3",
          "ticks": 525600,
          "time": 547.5,
          "velocity": 1
        },
        {
          "duration": 0.5093749999999773,
          "durationTicks": 489,
          "midi": 48,
          "name": "C3",
          "ticks": 527160,
          "time": 549.125,
          "velocity": 1
        },
        {
          "duration": 0.5093749999999773,
          "durationTicks": 489,
          "midi": 55,
          "name": "G3",
          "ticks": 527640,
          "time": 549.625,
          "velocity": 1
        },
        {
          "duration": 1.0208333333333712,
          "durationTicks": 980,
          "midi": 58,
          "name": "A#3",
          "ticks": 527640,
          "time": 549.625,
          "velocity": 1
        },
        {
          "duration": 1.0208333333333712,
          "durationTicks": 980,
          "midi": 62,
          "name": "D4",
          "ticks": 527640,
          "time": 549.625,
          "velocity": 1
        },
        {
          "duration": 1.0208333333333712,
          "durationTicks": 980,
          "midi": 65,
          "name": "F4",
          "ticks": 527640,
          "time": 549.625,
          "velocity": 1
        },
        {
          "duration": 1.0208333333333712,
          "durationTicks": 980,
          "midi": 70,
          "name": "A#4",
          "ticks": 527640,
          "time": 549.625,
          "velocity": 1
        },
        {
          "duration": 1.0208333333333712,
          "durationTicks": 980,
          "midi": 74,
          "name": "D5",
          "ticks": 527640,
          "time": 549.625,
          "velocity": 1
        },
        {
          "duration": 1.0208333333333712,
          "durationTicks": 980,
          "midi": 79,
          "name": "G5",
          "ticks": 527640,
          "time": 549.625,
          "velocity": 1
        },
        {
          "duration": 0.5,
          "durationTicks": 480,
          "midi": 48,
          "name": "C3",
          "ticks": 528120,
          "time": 550.125,
          "velocity": 1
        },
        {
          "duration": 0.470833333333303,
          "durationTicks": 452,
          "midi": 53,
          "name": "F3",
          "ticks": 528600,
          "time": 550.625,
          "velocity": 1
        },
        {
          "duration": 0.470833333333303,
          "durationTicks": 452,
          "midi": 57,
          "name": "A3",
          "ticks": 528600,
          "time": 550.625,
          "velocity": 1
        },
        {
          "duration": 0.3093750000000455,
          "durationTicks": 297,
          "midi": 64,
          "name": "E4",
          "ticks": 528600,
          "time": 550.625,
          "velocity": 1
        },
        {
          "duration": 0.8999999999999773,
          "durationTicks": 864,
          "midi": 69,
          "name": "A4",
          "ticks": 528600,
          "time": 550.625,
          "velocity": 1
        },
        {
          "duration": 0.3093750000000455,
          "durationTicks": 297,
          "midi": 72,
          "name": "C5",
          "ticks": 528600,
          "time": 550.625,
          "velocity": 1
        },
        {
          "duration": 0.3093750000000455,
          "durationTicks": 297,
          "midi": 76,
          "name": "E5",
          "ticks": 528600,
          "time": 550.625,
          "velocity": 1
        },
        {
          "duration": 0.4208333333333485,
          "durationTicks": 404,
          "midi": 48,
          "name": "C3",
          "ticks": 529080,
          "time": 551.125,
          "velocity": 1
        },
        {
          "duration": 0.388541666666697,
          "durationTicks": 373,
          "midi": 53,
          "name": "F3",
          "ticks": 529440,
          "time": 551.5,
          "velocity": 1
        },
        {
          "duration": 0.388541666666697,
          "durationTicks": 373,
          "midi": 86,
          "name": "D6",
          "ticks": 529440,
          "time": 551.5,
          "velocity": 1
        },
        {
          "duration": 0.5708333333333258,
          "durationTicks": 548,
          "midi": 48,
          "name": "C3",
          "ticks": 529800,
          "time": 551.875,
          "velocity": 1
        },
        {
          "duration": 1.0302083333333485,
          "durationTicks": 989,
          "midi": 84,
          "name": "C6",
          "ticks": 529800,
          "time": 551.875,
          "velocity": 1
        },
        {
          "duration": 0.5708333333333258,
          "durationTicks": 548,
          "midi": 48,
          "name": "C3",
          "ticks": 530400,
          "time": 552.5,
          "velocity": 1
        },
        {
          "duration": 0.8093750000000455,
          "durationTicks": 777,
          "midi": 58,
          "name": "A#3",
          "ticks": 531000,
          "time": 553.125,
          "velocity": 1
        },
        {
          "duration": 1.4791666666666288,
          "durationTicks": 1420,
          "midi": 63,
          "name": "D#4",
          "ticks": 531000,
          "time": 553.125,
          "velocity": 1
        },
        {
          "duration": 1.8999999999999773,
          "durationTicks": 1824,
          "midi": 67,
          "name": "G4",
          "ticks": 531000,
          "time": 553.125,
          "velocity": 1
        },
        {
          "duration": 1.8999999999999773,
          "durationTicks": 1824,
          "midi": 74,
          "name": "D5",
          "ticks": 531000,
          "time": 553.125,
          "velocity": 1
        },
        {
          "duration": 1.8999999999999773,
          "durationTicks": 1824,
          "midi": 77,
          "name": "F5",
          "ticks": 531000,
          "time": 553.125,
          "velocity": 1
        },
        {
          "duration": 1.8999999999999773,
          "durationTicks": 1824,
          "midi": 81,
          "name": "A5",
          "ticks": 531000,
          "time": 553.125,
          "velocity": 1
        },
        {
          "duration": 0.6593749999999545,
          "durationTicks": 633,
          "midi": 48,
          "name": "C3",
          "ticks": 531720,
          "time": 553.875,
          "velocity": 1
        },
        {
          "duration": 0.7093750000000227,
          "durationTicks": 681,
          "midi": 57,
          "name": "A3",
          "ticks": 532440,
          "time": 554.625,
          "velocity": 1
        },
        {
          "duration": 0.5187499999999545,
          "durationTicks": 498,
          "midi": 63,
          "name": "D#4",
          "ticks": 532440,
          "time": 554.625,
          "velocity": 1
        },
        {
          "duration": 0.19166666666671972,
          "durationTicks": 184,
          "midi": 67,
          "name": "G4",
          "ticks": 532920,
          "time": 555.125,
          "velocity": 1
        },
        {
          "duration": 0.19166666666671972,
          "durationTicks": 184,
          "midi": 77,
          "name": "F5",
          "ticks": 532920,
          "time": 555.125,
          "velocity": 1
        },
        {
          "duration": 1.3999999999999773,
          "durationTicks": 1344,
          "midi": 46,
          "name": "A#2",
          "ticks": 533040,
          "time": 555.25,
          "velocity": 1
        },
        {
          "duration": 1.3999999999999773,
          "durationTicks": 1344,
          "midi": 57,
          "name": "A3",
          "ticks": 533040,
          "time": 555.25,
          "velocity": 1
        },
        {
          "duration": 0.4500000000000455,
          "durationTicks": 432,
          "midi": 72,
          "name": "C5",
          "ticks": 533040,
          "time": 555.25,
          "velocity": 1
        },
        {
          "duration": 0.4500000000000455,
          "durationTicks": 432,
          "midi": 74,
          "name": "D5",
          "ticks": 533040,
          "time": 555.25,
          "velocity": 1
        },
        {
          "duration": 0.4500000000000455,
          "durationTicks": 432,
          "midi": 79,
          "name": "G5",
          "ticks": 533040,
          "time": 555.25,
          "velocity": 1
        },
        {
          "duration": 0.9500000000000455,
          "durationTicks": 912,
          "midi": 67,
          "name": "G4",
          "ticks": 533520,
          "time": 555.75,
          "velocity": 1
        },
        {
          "duration": 0.9500000000000455,
          "durationTicks": 912,
          "midi": 77,
          "name": "F5",
          "ticks": 533520,
          "time": 555.75,
          "velocity": 1
        },
        {
          "duration": 0.35000000000002274,
          "durationTicks": 336,
          "midi": 67,
          "name": "G4",
          "ticks": 534480,
          "time": 556.75,
          "velocity": 1
        },
        {
          "duration": 2.1906249999999545,
          "durationTicks": 2103,
          "midi": 69,
          "name": "A4",
          "ticks": 534480,
          "time": 556.75,
          "velocity": 1
        },
        {
          "duration": 0.35000000000002274,
          "durationTicks": 336,
          "midi": 74,
          "name": "D5",
          "ticks": 534480,
          "time": 556.75,
          "velocity": 1
        },
        {
          "duration": 0.20937500000002274,
          "durationTicks": 201,
          "midi": 77,
          "name": "F5",
          "ticks": 536520,
          "time": 558.875,
          "velocity": 1
        },
        {
          "duration": 0.8999999999999773,
          "durationTicks": 864,
          "midi": 67,
          "name": "G4",
          "ticks": 537120,
          "time": 559.5,
          "velocity": 1
        },
        {
          "duration": 0.8999999999999773,
          "durationTicks": 864,
          "midi": 69,
          "name": "A4",
          "ticks": 537120,
          "time": 559.5,
          "velocity": 1
        },
        {
          "duration": 0.8999999999999773,
          "durationTicks": 864,
          "midi": 72,
          "name": "C5",
          "ticks": 537120,
          "time": 559.5,
          "velocity": 1
        },
        {
          "duration": 0.42916666666667425,
          "durationTicks": 412,
          "midi": 77,
          "name": "F5",
          "ticks": 537120,
          "time": 559.5,
          "velocity": 1
        },
        {
          "duration": 0.42916666666667425,
          "durationTicks": 412,
          "midi": 81,
          "name": "A5",
          "ticks": 537120,
          "time": 559.5,
          "velocity": 1
        },
        {
          "duration": 0.470833333333303,
          "durationTicks": 452,
          "midi": 79,
          "name": "G5",
          "ticks": 537480,
          "time": 559.875,
          "velocity": 1
        },
        {
          "duration": 0.470833333333303,
          "durationTicks": 452,
          "midi": 82,
          "name": "A#5",
          "ticks": 537480,
          "time": 559.875,
          "velocity": 1
        },
        {
          "duration": 0.7093750000000227,
          "durationTicks": 681,
          "midi": 65,
          "name": "F4",
          "ticks": 537960,
          "time": 560.375,
          "velocity": 1
        },
        {
          "duration": 0.7999999999999545,
          "durationTicks": 768,
          "midi": 67,
          "name": "G4",
          "ticks": 537960,
          "time": 560.375,
          "velocity": 1
        },
        {
          "duration": 1.4791666666666288,
          "durationTicks": 1420,
          "midi": 69,
          "name": "A4",
          "ticks": 537960,
          "time": 560.375,
          "velocity": 1
        },
        {
          "duration": 1.4791666666666288,
          "durationTicks": 1420,
          "midi": 72,
          "name": "C5",
          "ticks": 537960,
          "time": 560.375,
          "velocity": 1
        },
        {
          "duration": 0.7999999999999545,
          "durationTicks": 768,
          "midi": 76,
          "name": "E5",
          "ticks": 537960,
          "time": 560.375,
          "velocity": 1
        },
        {
          "duration": 0.7999999999999545,
          "durationTicks": 768,
          "midi": 81,
          "name": "A5",
          "ticks": 537960,
          "time": 560.375,
          "velocity": 1
        },
        {
          "duration": 1.0499999999999545,
          "durationTicks": 1008,
          "midi": 84,
          "name": "C6",
          "ticks": 537960,
          "time": 560.375,
          "velocity": 1
        },
        {
          "duration": 0.7708333333333712,
          "durationTicks": 740,
          "midi": 64,
          "name": "E4",
          "ticks": 538680,
          "time": 561.125,
          "velocity": 1
        },
        {
          "duration": 0.42916666666667425,
          "durationTicks": 412,
          "midi": 86,
          "name": "D6",
          "ticks": 538920,
          "time": 561.375,
          "velocity": 1
        },
        {
          "duration": 0.841666666666697,
          "durationTicks": 808,
          "midi": 62,
          "name": "D4",
          "ticks": 539400,
          "time": 561.875,
          "velocity": 1
        },
        {
          "duration": 1.2802083333333485,
          "durationTicks": 1229,
          "midi": 65,
          "name": "F4",
          "ticks": 539400,
          "time": 561.875,
          "velocity": 1
        },
        {
          "duration": 1.2802083333333485,
          "durationTicks": 1229,
          "midi": 69,
          "name": "A4",
          "ticks": 539400,
          "time": 561.875,
          "velocity": 1
        },
        {
          "duration": 1.2802083333333485,
          "durationTicks": 1229,
          "midi": 72,
          "name": "C5",
          "ticks": 539400,
          "time": 561.875,
          "velocity": 1
        },
        {
          "duration": 0.841666666666697,
          "durationTicks": 808,
          "midi": 77,
          "name": "F5",
          "ticks": 539400,
          "time": 561.875,
          "velocity": 1
        },
        {
          "duration": 0.4416666666667197,
          "durationTicks": 424,
          "midi": 84,
          "name": "C6",
          "ticks": 539400,
          "time": 561.875,
          "velocity": 1
        },
        {
          "duration": 0.8385416666666288,
          "durationTicks": 805,
          "midi": 81,
          "name": "A5",
          "ticks": 539760,
          "time": 562.25,
          "velocity": 1
        },
        {
          "duration": 0.4385416666666515,
          "durationTicks": 421,
          "midi": 62,
          "name": "D4",
          "ticks": 540120,
          "time": 562.625,
          "velocity": 1
        },
        {
          "duration": 0.4385416666666515,
          "durationTicks": 421,
          "midi": 74,
          "name": "D5",
          "ticks": 540120,
          "time": 562.625,
          "velocity": 1
        },
        {
          "duration": 0.4385416666666515,
          "durationTicks": 421,
          "midi": 77,
          "name": "F5",
          "ticks": 540120,
          "time": 562.625,
          "velocity": 1
        },
        {
          "duration": 0.09166666666669698,
          "durationTicks": 88,
          "midi": 60,
          "name": "C4",
          "ticks": 540600,
          "time": 563.125,
          "velocity": 1
        },
        {
          "duration": 0.09166666666669698,
          "durationTicks": 88,
          "midi": 64,
          "name": "E4",
          "ticks": 540600,
          "time": 563.125,
          "velocity": 1
        },
        {
          "duration": 0.8916666666666515,
          "durationTicks": 856,
          "midi": 69,
          "name": "A4",
          "ticks": 540600,
          "time": 563.125,
          "velocity": 1
        },
        {
          "duration": 0.8916666666666515,
          "durationTicks": 856,
          "midi": 72,
          "name": "C5",
          "ticks": 540600,
          "time": 563.125,
          "velocity": 1
        },
        {
          "duration": 0.8916666666666515,
          "durationTicks": 856,
          "midi": 76,
          "name": "E5",
          "ticks": 540600,
          "time": 563.125,
          "velocity": 1
        },
        {
          "duration": 0.8916666666666515,
          "durationTicks": 856,
          "midi": 81,
          "name": "A5",
          "ticks": 540600,
          "time": 563.125,
          "velocity": 1
        },
        {
          "duration": 1.8999999999999773,
          "durationTicks": 1824,
          "midi": 61,
          "name": "C#4",
          "ticks": 541440,
          "time": 564,
          "velocity": 1
        },
        {
          "duration": 1.8999999999999773,
          "durationTicks": 1824,
          "midi": 65,
          "name": "F4",
          "ticks": 541440,
          "time": 564,
          "velocity": 1
        },
        {
          "duration": 1.8999999999999773,
          "durationTicks": 1824,
          "midi": 71,
          "name": "B4",
          "ticks": 541440,
          "time": 564,
          "velocity": 1
        },
        {
          "duration": 1.8999999999999773,
          "durationTicks": 1824,
          "midi": 75,
          "name": "D#5",
          "ticks": 541440,
          "time": 564,
          "velocity": 1
        },
        {
          "duration": 1.8999999999999773,
          "durationTicks": 1824,
          "midi": 79,
          "name": "G5",
          "ticks": 541440,
          "time": 564,
          "velocity": 1
        },
        {
          "duration": 1.6000000000000227,
          "durationTicks": 1536,
          "midi": 60,
          "name": "C4",
          "ticks": 543240,
          "time": 565.875,
          "velocity": 1
        },
        {
          "duration": 1.3708333333332803,
          "durationTicks": 1316,
          "midi": 65,
          "name": "F4",
          "ticks": 543240,
          "time": 565.875,
          "velocity": 1
        },
        {
          "duration": 1.3708333333332803,
          "durationTicks": 1316,
          "midi": 70,
          "name": "A#4",
          "ticks": 543240,
          "time": 565.875,
          "velocity": 1
        },
        {
          "duration": 1.3708333333332803,
          "durationTicks": 1316,
          "midi": 74,
          "name": "D5",
          "ticks": 543240,
          "time": 565.875,
          "velocity": 1
        },
        {
          "duration": 1.1885416666666515,
          "durationTicks": 1141,
          "midi": 60,
          "name": "C4",
          "ticks": 544800,
          "time": 567.5,
          "velocity": 1
        },
        {
          "duration": 0.4385416666666515,
          "durationTicks": 421,
          "midi": 65,
          "name": "F4",
          "ticks": 545040,
          "time": 567.75,
          "velocity": 1
        },
        {
          "duration": 0.5,
          "durationTicks": 480,
          "midi": 67,
          "name": "G4",
          "ticks": 545520,
          "time": 568.25,
          "velocity": 1
        },
        {
          "duration": 2.341666666666697,
          "durationTicks": 2248,
          "midi": 52,
          "name": "E3",
          "ticks": 546000,
          "time": 568.75,
          "velocity": 1
        },
        {
          "duration": 2.341666666666697,
          "durationTicks": 2248,
          "midi": 57,
          "name": "A3",
          "ticks": 546000,
          "time": 568.75,
          "velocity": 1
        },
        {
          "duration": 2.341666666666697,
          "durationTicks": 2248,
          "midi": 60,
          "name": "C4",
          "ticks": 546000,
          "time": 568.75,
          "velocity": 1
        },
        {
          "duration": 1.8208333333333258,
          "durationTicks": 1748,
          "midi": 69,
          "name": "A4",
          "ticks": 546000,
          "time": 568.75,
          "velocity": 1
        },
        {
          "duration": 0.27083333333337123,
          "durationTicks": 260,
          "midi": 67,
          "name": "G4",
          "ticks": 547680,
          "time": 570.5,
          "velocity": 1
        },
        {
          "duration": 0.5906250000000455,
          "durationTicks": 567,
          "midi": 69,
          "name": "A4",
          "ticks": 547920,
          "time": 570.75,
          "velocity": 1
        },
        {
          "duration": 0.3406250000000455,
          "durationTicks": 327,
          "midi": 41,
          "name": "F2",
          "ticks": 548160,
          "time": 571,
          "velocity": 1
        },
        {
          "duration": 0.46875,
          "durationTicks": 450,
          "midi": 57,
          "name": "A3",
          "ticks": 548760,
          "time": 571.625,
          "velocity": 1
        },
        {
          "duration": 0.46875,
          "durationTicks": 450,
          "midi": 72,
          "name": "C5",
          "ticks": 548760,
          "time": 571.625,
          "velocity": 1
        },
        {
          "duration": 0.4416666666667197,
          "durationTicks": 424,
          "midi": 61,
          "name": "C#4",
          "ticks": 549240,
          "time": 572.125,
          "velocity": 1
        },
        {
          "duration": 0.4416666666667197,
          "durationTicks": 424,
          "midi": 63,
          "name": "D#4",
          "ticks": 549240,
          "time": 572.125,
          "velocity": 1
        },
        {
          "duration": 0.4416666666667197,
          "durationTicks": 424,
          "midi": 69,
          "name": "A4",
          "ticks": 549240,
          "time": 572.125,
          "velocity": 1
        },
        {
          "duration": 0.890625,
          "durationTicks": 855,
          "midi": 46,
          "name": "A#2",
          "ticks": 549600,
          "time": 572.5,
          "velocity": 1
        },
        {
          "duration": 1.1906249999999545,
          "durationTicks": 1143,
          "midi": 57,
          "name": "A3",
          "ticks": 549600,
          "time": 572.5,
          "velocity": 1
        },
        {
          "duration": 1.1906249999999545,
          "durationTicks": 1143,
          "midi": 60,
          "name": "C4",
          "ticks": 549600,
          "time": 572.5,
          "velocity": 1
        },
        {
          "duration": 0.890625,
          "durationTicks": 855,
          "midi": 62,
          "name": "D4",
          "ticks": 549600,
          "time": 572.5,
          "velocity": 1
        },
        {
          "duration": 0.5906250000000455,
          "durationTicks": 567,
          "midi": 67,
          "name": "G4",
          "ticks": 549600,
          "time": 572.5,
          "velocity": 1
        },
        {
          "duration": 0.6000000000000227,
          "durationTicks": 576,
          "midi": 65,
          "name": "F4",
          "ticks": 550200,
          "time": 573.125,
          "velocity": 1
        },
        {
          "duration": 2.1708333333333485,
          "durationTicks": 2084,
          "midi": 58,
          "name": "A#3",
          "ticks": 550800,
          "time": 573.75,
          "velocity": 1
        },
        {
          "duration": 2.1708333333333485,
          "durationTicks": 2084,
          "midi": 62,
          "name": "D4",
          "ticks": 550800,
          "time": 573.75,
          "velocity": 1
        },
        {
          "duration": 0.4208333333333485,
          "durationTicks": 404,
          "midi": 64,
          "name": "E4",
          "ticks": 552480,
          "time": 575.5,
          "velocity": 1
        },
        {
          "duration": 1.5593750000000455,
          "durationTicks": 1497,
          "midi": 46,
          "name": "A#2",
          "ticks": 552840,
          "time": 575.875,
          "velocity": 1
        },
        {
          "duration": 1.5593750000000455,
          "durationTicks": 1497,
          "midi": 55,
          "name": "G3",
          "ticks": 552840,
          "time": 575.875,
          "velocity": 1
        },
        {
          "duration": 1.0885416666666288,
          "durationTicks": 1045,
          "midi": 61,
          "name": "C#4",
          "ticks": 552840,
          "time": 575.875,
          "velocity": 1
        },
        {
          "duration": 0.08854166666662877,
          "durationTicks": 85,
          "midi": 64,
          "name": "E4",
          "ticks": 552840,
          "time": 575.875,
          "velocity": 1
        },
        {
          "duration": 0.482291666666697,
          "durationTicks": 463,
          "midi": 65,
          "name": "F4",
          "ticks": 552960,
          "time": 576,
          "velocity": 1
        },
        {
          "duration": 0.5093749999999773,
          "durationTicks": 489,
          "midi": 67,
          "name": "G4",
          "ticks": 553440,
          "time": 576.5,
          "velocity": 1
        },
        {
          "duration": 2.6906249999999545,
          "durationTicks": 2583,
          "midi": 69,
          "name": "A4",
          "ticks": 553920,
          "time": 577,
          "velocity": 1
        },
        {
          "duration": 0.8114583333333485,
          "durationTicks": 779,
          "midi": 45,
          "name": "A2",
          "ticks": 554400,
          "time": 577.5,
          "velocity": 1
        },
        {
          "duration": 0.7822916666666515,
          "durationTicks": 751,
          "midi": 60,
          "name": "C4",
          "ticks": 554400,
          "time": 577.5,
          "velocity": 1
        },
        {
          "duration": 0.8114583333333485,
          "durationTicks": 779,
          "midi": 64,
          "name": "E4",
          "ticks": 554400,
          "time": 577.5,
          "velocity": 1
        },
        {
          "duration": 1.279166666666697,
          "durationTicks": 1228,
          "midi": 38,
          "name": "D2",
          "ticks": 555120,
          "time": 578.25,
          "velocity": 1
        },
        {
          "duration": 1.5406249999999773,
          "durationTicks": 1479,
          "midi": 45,
          "name": "A2",
          "ticks": 555120,
          "time": 578.25,
          "velocity": 1
        },
        {
          "duration": 1.5406249999999773,
          "durationTicks": 1479,
          "midi": 53,
          "name": "F3",
          "ticks": 555120,
          "time": 578.25,
          "velocity": 1
        },
        {
          "duration": 1.279166666666697,
          "durationTicks": 1228,
          "midi": 57,
          "name": "A3",
          "ticks": 555120,
          "time": 578.25,
          "velocity": 1
        },
        {
          "duration": 1.5406249999999773,
          "durationTicks": 1479,
          "midi": 60,
          "name": "C4",
          "ticks": 555120,
          "time": 578.25,
          "velocity": 1
        },
        {
          "duration": 0.14999999999997726,
          "durationTicks": 144,
          "midi": 70,
          "name": "A#4",
          "ticks": 556440,
          "time": 579.625,
          "velocity": 1
        },
        {
          "duration": 0.9302083333333258,
          "durationTicks": 893,
          "midi": 43,
          "name": "G2",
          "ticks": 556560,
          "time": 579.75,
          "velocity": 1
        },
        {
          "duration": 0.9302083333333258,
          "durationTicks": 893,
          "midi": 53,
          "name": "F3",
          "ticks": 556560,
          "time": 579.75,
          "velocity": 1
        },
        {
          "duration": 0.9302083333333258,
          "durationTicks": 893,
          "midi": 59,
          "name": "B3",
          "ticks": 556560,
          "time": 579.75,
          "velocity": 1
        },
        {
          "duration": 0.38020833333337123,
          "durationTicks": 365,
          "midi": 64,
          "name": "E4",
          "ticks": 556560,
          "time": 579.75,
          "velocity": 1
        },
        {
          "duration": 0.38020833333337123,
          "durationTicks": 365,
          "midi": 69,
          "name": "A4",
          "ticks": 556560,
          "time": 579.75,
          "velocity": 1
        },
        {
          "duration": 0.5499999999999545,
          "durationTicks": 528,
          "midi": 63,
          "name": "D#4",
          "ticks": 556920,
          "time": 580.125,
          "velocity": 1
        },
        {
          "duration": 0.5499999999999545,
          "durationTicks": 528,
          "midi": 67,
          "name": "G4",
          "ticks": 556920,
          "time": 580.125,
          "velocity": 1
        },
        {
          "duration": 1.138541666666697,
          "durationTicks": 1093,
          "midi": 36,
          "name": "C2",
          "ticks": 557520,
          "time": 580.75,
          "velocity": 1
        },
        {
          "duration": 0.5885416666666288,
          "durationTicks": 565,
          "midi": 53,
          "name": "F3",
          "ticks": 557520,
          "time": 580.75,
          "velocity": 1
        },
        {
          "duration": 1.859375,
          "durationTicks": 1785,
          "midi": 58,
          "name": "A#3",
          "ticks": 557520,
          "time": 580.75,
          "velocity": 1
        },
        {
          "duration": 0.5885416666666288,
          "durationTicks": 565,
          "midi": 62,
          "name": "D4",
          "ticks": 557520,
          "time": 580.75,
          "velocity": 1
        },
        {
          "duration": 0.5885416666666288,
          "durationTicks": 565,
          "midi": 65,
          "name": "F4",
          "ticks": 557520,
          "time": 580.75,
          "velocity": 1
        },
        {
          "duration": 1.2708333333333712,
          "durationTicks": 1220,
          "midi": 52,
          "name": "E3",
          "ticks": 558120,
          "time": 581.375,
          "velocity": 1
        },
        {
          "duration": 1.2708333333333712,
          "durationTicks": 1220,
          "midi": 61,
          "name": "C#4",
          "ticks": 558120,
          "time": 581.375,
          "velocity": 1
        },
        {
          "duration": 1.2708333333333712,
          "durationTicks": 1220,
          "midi": 67,
          "name": "G4",
          "ticks": 558120,
          "time": 581.375,
          "velocity": 1
        },
        {
          "duration": 0.5093749999999773,
          "durationTicks": 489,
          "midi": 36,
          "name": "C2",
          "ticks": 558600,
          "time": 581.875,
          "velocity": 1
        },
        {
          "duration": 1.2302083333332803,
          "durationTicks": 1181,
          "midi": 65,
          "name": "F4",
          "ticks": 559080,
          "time": 582.375,
          "velocity": 1
        },
        {
          "duration": 1.21875,
          "durationTicks": 1170,
          "midi": 41,
          "name": "F2",
          "ticks": 559320,
          "time": 582.625,
          "velocity": 1
        },
        {
          "duration": 1.21875,
          "durationTicks": 1170,
          "midi": 52,
          "name": "E3",
          "ticks": 559320,
          "time": 582.625,
          "velocity": 1
        },
        {
          "duration": 1.21875,
          "durationTicks": 1170,
          "midi": 57,
          "name": "A3",
          "ticks": 559320,
          "time": 582.625,
          "velocity": 1
        },
        {
          "duration": 1.21875,
          "durationTicks": 1170,
          "midi": 60,
          "name": "C4",
          "ticks": 559320,
          "time": 582.625,
          "velocity": 1
        },
        {
          "duration": 0.38229166666667425,
          "durationTicks": 367,
          "midi": 43,
          "name": "G2",
          "ticks": 560520,
          "time": 583.875,
          "velocity": 1
        },
        {
          "duration": 0.38229166666667425,
          "durationTicks": 367,
          "midi": 53,
          "name": "F3",
          "ticks": 560520,
          "time": 583.875,
          "velocity": 1
        },
        {
          "duration": 0.38229166666667425,
          "durationTicks": 367,
          "midi": 58,
          "name": "A#3",
          "ticks": 560520,
          "time": 583.875,
          "velocity": 1
        },
        {
          "duration": 0.4885416666667197,
          "durationTicks": 469,
          "midi": 46,
          "name": "A#2",
          "ticks": 560880,
          "time": 584.25,
          "velocity": 1
        },
        {
          "duration": 0.4885416666667197,
          "durationTicks": 469,
          "midi": 56,
          "name": "G#3",
          "ticks": 560880,
          "time": 584.25,
          "velocity": 1
        },
        {
          "duration": 0.4885416666667197,
          "durationTicks": 469,
          "midi": 61,
          "name": "C#4",
          "ticks": 560880,
          "time": 584.25,
          "velocity": 1
        },
        {
          "duration": 1.3916666666666515,
          "durationTicks": 1336,
          "midi": 45,
          "name": "A2",
          "ticks": 561360,
          "time": 584.75,
          "velocity": 1
        },
        {
          "duration": 1.3916666666666515,
          "durationTicks": 1336,
          "midi": 55,
          "name": "G3",
          "ticks": 561360,
          "time": 584.75,
          "velocity": 1
        },
        {
          "duration": 1.3916666666666515,
          "durationTicks": 1336,
          "midi": 60,
          "name": "C4",
          "ticks": 561360,
          "time": 584.75,
          "velocity": 1
        },
        {
          "duration": 0.27083333333337123,
          "durationTicks": 260,
          "midi": 72,
          "name": "C5",
          "ticks": 562680,
          "time": 586.125,
          "velocity": 1
        },
        {
          "duration": 0.9385416666666515,
          "durationTicks": 901,
          "midi": 46,
          "name": "A#2",
          "ticks": 562920,
          "time": 586.375,
          "velocity": 1
        },
        {
          "duration": 0.9385416666666515,
          "durationTicks": 901,
          "midi": 55,
          "name": "G3",
          "ticks": 562920,
          "time": 586.375,
          "velocity": 1
        },
        {
          "duration": 0.9385416666666515,
          "durationTicks": 901,
          "midi": 60,
          "name": "C4",
          "ticks": 562920,
          "time": 586.375,
          "velocity": 1
        },
        {
          "duration": 0.9385416666666515,
          "durationTicks": 901,
          "midi": 64,
          "name": "E4",
          "ticks": 562920,
          "time": 586.375,
          "velocity": 1
        },
        {
          "duration": 0.4385416666666515,
          "durationTicks": 421,
          "midi": 69,
          "name": "A4",
          "ticks": 562920,
          "time": 586.375,
          "velocity": 1
        },
        {
          "duration": 0.4385416666666515,
          "durationTicks": 421,
          "midi": 74,
          "name": "D5",
          "ticks": 562920,
          "time": 586.375,
          "velocity": 1
        },
        {
          "duration": 0.5,
          "durationTicks": 480,
          "midi": 68,
          "name": "G#4",
          "ticks": 563400,
          "time": 586.875,
          "velocity": 1
        },
        {
          "duration": 0.5,
          "durationTicks": 480,
          "midi": 73,
          "name": "C#5",
          "ticks": 563400,
          "time": 586.875,
          "velocity": 1
        },
        {
          "duration": 0.5,
          "durationTicks": 480,
          "midi": 76,
          "name": "E5",
          "ticks": 563400,
          "time": 586.875,
          "velocity": 1
        },
        {
          "duration": 0.2999999999999545,
          "durationTicks": 288,
          "midi": 45,
          "name": "A2",
          "ticks": 563880,
          "time": 587.375,
          "velocity": 1
        },
        {
          "duration": 0.8114583333333485,
          "durationTicks": 779,
          "midi": 65,
          "name": "F4",
          "ticks": 563880,
          "time": 587.375,
          "velocity": 1
        },
        {
          "duration": 0.4416666666667197,
          "durationTicks": 424,
          "midi": 72,
          "name": "C5",
          "ticks": 563880,
          "time": 587.375,
          "velocity": 1
        },
        {
          "duration": 0.4416666666667197,
          "durationTicks": 424,
          "midi": 74,
          "name": "D5",
          "ticks": 563880,
          "time": 587.375,
          "velocity": 1
        },
        {
          "duration": 0.8114583333333485,
          "durationTicks": 779,
          "midi": 77,
          "name": "F5",
          "ticks": 563880,
          "time": 587.375,
          "velocity": 1
        },
        {
          "duration": 0.5114583333332803,
          "durationTicks": 491,
          "midi": 55,
          "name": "G3",
          "ticks": 564120,
          "time": 587.625,
          "velocity": 1
        },
        {
          "duration": 0.3322916666667197,
          "durationTicks": 319,
          "midi": 60,
          "name": "C4",
          "ticks": 564360,
          "time": 587.875,
          "velocity": 1
        },
        {
          "duration": 0.6000000000000227,
          "durationTicks": 576,
          "midi": 55,
          "name": "G3",
          "ticks": 564600,
          "time": 588.125,
          "velocity": 1
        },
        {
          "duration": 1.1802083333333258,
          "durationTicks": 1133,
          "midi": 61,
          "name": "C#4",
          "ticks": 564600,
          "time": 588.125,
          "velocity": 1
        },
        {
          "duration": 1.1802083333333258,
          "durationTicks": 1133,
          "midi": 65,
          "name": "F4",
          "ticks": 564600,
          "time": 588.125,
          "velocity": 1
        },
        {
          "duration": 1.1802083333333258,
          "durationTicks": 1133,
          "midi": 69,
          "name": "A4",
          "ticks": 564600,
          "time": 588.125,
          "velocity": 1
        },
        {
          "duration": 1.1802083333333258,
          "durationTicks": 1133,
          "midi": 73,
          "name": "C#5",
          "ticks": 564600,
          "time": 588.125,
          "velocity": 1
        },
        {
          "duration": 0.8687499999999773,
          "durationTicks": 834,
          "midi": 77,
          "name": "F5",
          "ticks": 564600,
          "time": 588.125,
          "velocity": 1
        },
        {
          "duration": 0.580208333333303,
          "durationTicks": 557,
          "midi": 45,
          "name": "A2",
          "ticks": 565200,
          "time": 588.75,
          "velocity": 1
        },
        {
          "duration": 0.3114583333333485,
          "durationTicks": 299,
          "midi": 76,
          "name": "E5",
          "ticks": 565440,
          "time": 589,
          "velocity": 1
        },
        {
          "duration": 1.4208333333333485,
          "durationTicks": 1364,
          "midi": 46,
          "name": "A#2",
          "ticks": 565800,
          "time": 589.375,
          "velocity": 1
        },
        {
          "duration": 0.7093750000000227,
          "durationTicks": 681,
          "midi": 57,
          "name": "A3",
          "ticks": 565800,
          "time": 589.375,
          "velocity": 1
        },
        {
          "duration": 0.7093750000000227,
          "durationTicks": 681,
          "midi": 62,
          "name": "D4",
          "ticks": 565800,
          "time": 589.375,
          "velocity": 1
        },
        {
          "duration": 0.7093750000000227,
          "durationTicks": 681,
          "midi": 69,
          "name": "A4",
          "ticks": 565800,
          "time": 589.375,
          "velocity": 1
        },
        {
          "duration": 0.330208333333303,
          "durationTicks": 317,
          "midi": 76,
          "name": "E5",
          "ticks": 565800,
          "time": 589.375,
          "velocity": 1
        },
        {
          "duration": 0.3791666666667197,
          "durationTicks": 364,
          "midi": 74,
          "name": "D5",
          "ticks": 566040,
          "time": 589.625,
          "velocity": 1
        },
        {
          "duration": 0.7114583333333258,
          "durationTicks": 683,
          "midi": 56,
          "name": "G#3",
          "ticks": 566400,
          "time": 590,
          "velocity": 1
        },
        {
          "duration": 0.7114583333333258,
          "durationTicks": 683,
          "midi": 62,
          "name": "D4",
          "ticks": 566400,
          "time": 590,
          "velocity": 1
        },
        {
          "duration": 0.7114583333333258,
          "durationTicks": 683,
          "midi": 68,
          "name": "G#4",
          "ticks": 566400,
          "time": 590,
          "velocity": 1
        },
        {
          "duration": 0.3916666666666515,
          "durationTicks": 376,
          "midi": 72,
          "name": "C5",
          "ticks": 566400,
          "time": 590,
          "velocity": 1
        },
        {
          "duration": 0.32083333333332575,
          "durationTicks": 308,
          "midi": 74,
          "name": "D5",
          "ticks": 566760,
          "time": 590.375,
          "velocity": 1
        },
        {
          "duration": 0.4802083333332803,
          "durationTicks": 461,
          "midi": 45,
          "name": "A2",
          "ticks": 567120,
          "time": 590.75,
          "velocity": 1
        },
        {
          "duration": 0.4802083333332803,
          "durationTicks": 461,
          "midi": 55,
          "name": "G3",
          "ticks": 567120,
          "time": 590.75,
          "velocity": 1
        },
        {
          "duration": 0.4802083333332803,
          "durationTicks": 461,
          "midi": 60,
          "name": "C4",
          "ticks": 567120,
          "time": 590.75,
          "velocity": 1
        },
        {
          "duration": 0.4802083333332803,
          "durationTicks": 461,
          "midi": 67,
          "name": "G4",
          "ticks": 567120,
          "time": 590.75,
          "velocity": 1
        },
        {
          "duration": 0.4802083333332803,
          "durationTicks": 461,
          "midi": 72,
          "name": "C5",
          "ticks": 567120,
          "time": 590.75,
          "velocity": 1
        },
        {
          "duration": 0.6499999999999773,
          "durationTicks": 624,
          "midi": 49,
          "name": "C#3",
          "ticks": 567600,
          "time": 591.25,
          "velocity": 1
        },
        {
          "duration": 0.6708333333333485,
          "durationTicks": 644,
          "midi": 61,
          "name": "C#4",
          "ticks": 567600,
          "time": 591.25,
          "velocity": 1
        },
        {
          "duration": 0.6499999999999773,
          "durationTicks": 624,
          "midi": 65,
          "name": "F4",
          "ticks": 567600,
          "time": 591.25,
          "velocity": 1
        },
        {
          "duration": 0.6708333333333485,
          "durationTicks": 644,
          "midi": 69,
          "name": "A4",
          "ticks": 567600,
          "time": 591.25,
          "velocity": 1
        },
        {
          "duration": 2,
          "durationTicks": 1920,
          "midi": 45,
          "name": "A2",
          "ticks": 568200,
          "time": 591.875,
          "velocity": 1
        },
        {
          "duration": 2,
          "durationTicks": 1920,
          "midi": 53,
          "name": "F3",
          "ticks": 568200,
          "time": 591.875,
          "velocity": 1
        },
        {
          "duration": 2,
          "durationTicks": 1920,
          "midi": 60,
          "name": "C4",
          "ticks": 568200,
          "time": 591.875,
          "velocity": 1
        },
        {
          "duration": 2,
          "durationTicks": 1920,
          "midi": 65,
          "name": "F4",
          "ticks": 568200,
          "time": 591.875,
          "velocity": 1
        },
        {
          "duration": 0.21875,
          "durationTicks": 210,
          "midi": 48,
          "name": "C3",
          "ticks": 570720,
          "time": 594.5,
          "velocity": 1
        },
        {
          "duration": 0.7000000000000455,
          "durationTicks": 672,
          "midi": 62,
          "name": "D4",
          "ticks": 570720,
          "time": 594.5,
          "velocity": 1
        },
        {
          "duration": 0.7000000000000455,
          "durationTicks": 672,
          "midi": 65,
          "name": "F4",
          "ticks": 570720,
          "time": 594.5,
          "velocity": 1
        },
        {
          "duration": 0.7000000000000455,
          "durationTicks": 672,
          "midi": 69,
          "name": "A4",
          "ticks": 570720,
          "time": 594.5,
          "velocity": 1
        },
        {
          "duration": 0.7000000000000455,
          "durationTicks": 672,
          "midi": 72,
          "name": "C5",
          "ticks": 570720,
          "time": 594.5,
          "velocity": 1
        },
        {
          "duration": 0.20000000000004547,
          "durationTicks": 192,
          "midi": 58,
          "name": "A#3",
          "ticks": 570960,
          "time": 594.75,
          "velocity": 1
        },
        {
          "duration": 0.2822916666666515,
          "durationTicks": 271,
          "midi": 60,
          "name": "C4",
          "ticks": 571080,
          "time": 594.875,
          "velocity": 1
        },
        {
          "duration": 0.23854166666671972,
          "durationTicks": 229,
          "midi": 46,
          "name": "A#2",
          "ticks": 571320,
          "time": 595.125,
          "velocity": 1
        },
        {
          "duration": 0.4802083333332803,
          "durationTicks": 461,
          "midi": 64,
          "name": "E4",
          "ticks": 571320,
          "time": 595.125,
          "velocity": 1
        },
        {
          "duration": 0.4802083333332803,
          "durationTicks": 461,
          "midi": 69,
          "name": "A4",
          "ticks": 571320,
          "time": 595.125,
          "velocity": 1
        },
        {
          "duration": 0.4802083333332803,
          "durationTicks": 461,
          "midi": 74,
          "name": "D5",
          "ticks": 571320,
          "time": 595.125,
          "velocity": 1
        },
        {
          "duration": 0.24166666666667425,
          "durationTicks": 232,
          "midi": 55,
          "name": "G3",
          "ticks": 571560,
          "time": 595.375,
          "velocity": 1
        },
        {
          "duration": 0.20937500000002274,
          "durationTicks": 201,
          "midi": 61,
          "name": "C#4",
          "ticks": 571800,
          "time": 595.625,
          "velocity": 1
        },
        {
          "duration": 0.4385416666666515,
          "durationTicks": 421,
          "midi": 64,
          "name": "E4",
          "ticks": 571800,
          "time": 595.625,
          "velocity": 1
        },
        {
          "duration": 0.28854166666667425,
          "durationTicks": 277,
          "midi": 68,
          "name": "G#4",
          "ticks": 571800,
          "time": 595.625,
          "velocity": 1
        },
        {
          "duration": 0.4385416666666515,
          "durationTicks": 421,
          "midi": 73,
          "name": "C#5",
          "ticks": 571800,
          "time": 595.625,
          "velocity": 1
        },
        {
          "duration": 0.4385416666666515,
          "durationTicks": 421,
          "midi": 76,
          "name": "E5",
          "ticks": 571800,
          "time": 595.625,
          "velocity": 1
        },
        {
          "duration": 0.23020833333328028,
          "durationTicks": 221,
          "midi": 55,
          "name": "G3",
          "ticks": 572040,
          "time": 595.875,
          "velocity": 1
        },
        {
          "duration": 0.22083333333330302,
          "durationTicks": 212,
          "midi": 45,
          "name": "A2",
          "ticks": 572280,
          "time": 596.125,
          "velocity": 1
        },
        {
          "duration": 0.7708333333333712,
          "durationTicks": 740,
          "midi": 65,
          "name": "F4",
          "ticks": 572280,
          "time": 596.125,
          "velocity": 1
        },
        {
          "duration": 0.7708333333333712,
          "durationTicks": 740,
          "midi": 72,
          "name": "C5",
          "ticks": 572280,
          "time": 596.125,
          "velocity": 1
        },
        {
          "duration": 0.7708333333333712,
          "durationTicks": 740,
          "midi": 74,
          "name": "D5",
          "ticks": 572280,
          "time": 596.125,
          "velocity": 1
        },
        {
          "duration": 0.7708333333333712,
          "durationTicks": 740,
          "midi": 77,
          "name": "F5",
          "ticks": 572280,
          "time": 596.125,
          "velocity": 1
        },
        {
          "duration": 0.18020833333332575,
          "durationTicks": 173,
          "midi": 55,
          "name": "G3",
          "ticks": 572520,
          "time": 596.375,
          "velocity": 1
        },
        {
          "duration": 0.19166666666671972,
          "durationTicks": 184,
          "midi": 60,
          "name": "C4",
          "ticks": 572640,
          "time": 596.5,
          "velocity": 1
        },
        {
          "duration": 0.17916666666667425,
          "durationTicks": 172,
          "midi": 55,
          "name": "G3",
          "ticks": 572880,
          "time": 596.75,
          "velocity": 1
        },
        {
          "duration": 0.20000000000004547,
          "durationTicks": 192,
          "midi": 61,
          "name": "C#4",
          "ticks": 573000,
          "time": 596.875,
          "velocity": 1
        },
        {
          "duration": 0.6302083333333712,
          "durationTicks": 605,
          "midi": 65,
          "name": "F4",
          "ticks": 573000,
          "time": 596.875,
          "velocity": 1
        },
        {
          "duration": 0.6302083333333712,
          "durationTicks": 605,
          "midi": 69,
          "name": "A4",
          "ticks": 573000,
          "time": 596.875,
          "velocity": 1
        },
        {
          "duration": 0.6302083333333712,
          "durationTicks": 605,
          "midi": 73,
          "name": "C#5",
          "ticks": 573000,
          "time": 596.875,
          "velocity": 1
        },
        {
          "duration": 0.6302083333333712,
          "durationTicks": 605,
          "midi": 77,
          "name": "F5",
          "ticks": 573000,
          "time": 596.875,
          "velocity": 1
        },
        {
          "duration": 0.20000000000004547,
          "durationTicks": 192,
          "midi": 55,
          "name": "G3",
          "ticks": 573240,
          "time": 597.125,
          "velocity": 1
        },
        {
          "duration": 0.23020833333328028,
          "durationTicks": 221,
          "midi": 45,
          "name": "A2",
          "ticks": 573360,
          "time": 597.25,
          "velocity": 1
        },
        {
          "duration": 0.24166666666667425,
          "durationTicks": 232,
          "midi": 46,
          "name": "A#2",
          "ticks": 573600,
          "time": 597.5,
          "velocity": 1
        },
        {
          "duration": 0.24166666666667425,
          "durationTicks": 232,
          "midi": 62,
          "name": "D4",
          "ticks": 573600,
          "time": 597.5,
          "velocity": 1
        },
        {
          "duration": 0.24166666666667425,
          "durationTicks": 232,
          "midi": 69,
          "name": "A4",
          "ticks": 573600,
          "time": 597.5,
          "velocity": 1
        },
        {
          "duration": 0.24166666666667425,
          "durationTicks": 232,
          "midi": 72,
          "name": "C5",
          "ticks": 573600,
          "time": 597.5,
          "velocity": 1
        },
        {
          "duration": 0.24166666666667425,
          "durationTicks": 232,
          "midi": 76,
          "name": "E5",
          "ticks": 573600,
          "time": 597.5,
          "velocity": 1
        },
        {
          "duration": 0.22083333333330302,
          "durationTicks": 212,
          "midi": 53,
          "name": "F3",
          "ticks": 573840,
          "time": 597.75,
          "velocity": 1
        },
        {
          "duration": 0.390625,
          "durationTicks": 375,
          "midi": 62,
          "name": "D4",
          "ticks": 573840,
          "time": 597.75,
          "velocity": 1
        },
        {
          "duration": 0.390625,
          "durationTicks": 375,
          "midi": 69,
          "name": "A4",
          "ticks": 573840,
          "time": 597.75,
          "velocity": 1
        },
        {
          "duration": 0.25937499999997726,
          "durationTicks": 249,
          "midi": 72,
          "name": "C5",
          "ticks": 573840,
          "time": 597.75,
          "velocity": 1
        },
        {
          "duration": 0.25937499999997726,
          "durationTicks": 249,
          "midi": 76,
          "name": "E5",
          "ticks": 573840,
          "time": 597.75,
          "velocity": 1
        },
        {
          "duration": 0.1708333333333485,
          "durationTicks": 164,
          "midi": 57,
          "name": "A3",
          "ticks": 574080,
          "time": 598,
          "velocity": 1
        },
        {
          "duration": 0.16875000000004547,
          "durationTicks": 162,
          "midi": 46,
          "name": "A#2",
          "ticks": 574200,
          "time": 598.125,
          "velocity": 1
        },
        {
          "duration": 0.35000000000002274,
          "durationTicks": 336,
          "midi": 56,
          "name": "G#3",
          "ticks": 574200,
          "time": 598.125,
          "velocity": 1
        },
        {
          "duration": 0.35000000000002274,
          "durationTicks": 336,
          "midi": 62,
          "name": "D4",
          "ticks": 574200,
          "time": 598.125,
          "velocity": 1
        },
        {
          "duration": 0.35000000000002274,
          "durationTicks": 336,
          "midi": 68,
          "name": "G#4",
          "ticks": 574200,
          "time": 598.125,
          "velocity": 1
        },
        {
          "duration": 0.35000000000002274,
          "durationTicks": 336,
          "midi": 74,
          "name": "D5",
          "ticks": 574200,
          "time": 598.125,
          "velocity": 1
        },
        {
          "duration": 0.18229166666662877,
          "durationTicks": 175,
          "midi": 46,
          "name": "A#2",
          "ticks": 574320,
          "time": 598.25,
          "velocity": 1
        },
        {
          "duration": 0.1885416666666515,
          "durationTicks": 181,
          "midi": 46,
          "name": "A#2",
          "ticks": 574560,
          "time": 598.5,
          "velocity": 1
        },
        {
          "duration": 0.359375,
          "durationTicks": 345,
          "midi": 55,
          "name": "G3",
          "ticks": 574560,
          "time": 598.5,
          "velocity": 1
        },
        {
          "duration": 0.359375,
          "durationTicks": 345,
          "midi": 60,
          "name": "C4",
          "ticks": 574560,
          "time": 598.5,
          "velocity": 1
        },
        {
          "duration": 0.359375,
          "durationTicks": 345,
          "midi": 67,
          "name": "G4",
          "ticks": 574560,
          "time": 598.5,
          "velocity": 1
        },
        {
          "duration": 0.359375,
          "durationTicks": 345,
          "midi": 72,
          "name": "C5",
          "ticks": 574560,
          "time": 598.5,
          "velocity": 1
        },
        {
          "duration": 0.1708333333333485,
          "durationTicks": 164,
          "midi": 45,
          "name": "A2",
          "ticks": 574680,
          "time": 598.625,
          "velocity": 1
        },
        {
          "duration": 0.3708333333332803,
          "durationTicks": 356,
          "midi": 45,
          "name": "A2",
          "ticks": 574920,
          "time": 598.875,
          "velocity": 1
        },
        {
          "duration": 0.17916666666667425,
          "durationTicks": 172,
          "midi": 49,
          "name": "C#3",
          "ticks": 574920,
          "time": 598.875,
          "velocity": 1
        },
        {
          "duration": 0.3708333333332803,
          "durationTicks": 356,
          "midi": 61,
          "name": "C#4",
          "ticks": 574920,
          "time": 598.875,
          "velocity": 1
        },
        {
          "duration": 0.3708333333332803,
          "durationTicks": 356,
          "midi": 65,
          "name": "F4",
          "ticks": 574920,
          "time": 598.875,
          "velocity": 1
        },
        {
          "duration": 0.3708333333332803,
          "durationTicks": 356,
          "midi": 69,
          "name": "A4",
          "ticks": 574920,
          "time": 598.875,
          "velocity": 1
        },
        {
          "duration": 0.19166666666671972,
          "durationTicks": 184,
          "midi": 55,
          "name": "G3",
          "ticks": 575040,
          "time": 599,
          "velocity": 1
        },
        {
          "duration": 0.20937500000002274,
          "durationTicks": 201,
          "midi": 45,
          "name": "A2",
          "ticks": 575280,
          "time": 599.25,
          "velocity": 1
        },
        {
          "duration": 0.7885416666666742,
          "durationTicks": 757,
          "midi": 53,
          "name": "F3",
          "ticks": 575280,
          "time": 599.25,
          "velocity": 1
        },
        {
          "duration": 0.388541666666697,
          "durationTicks": 373,
          "midi": 64,
          "name": "E4",
          "ticks": 575280,
          "time": 599.25,
          "velocity": 1
        },
        {
          "duration": 0.388541666666697,
          "durationTicks": 373,
          "midi": 67,
          "name": "G4",
          "ticks": 575280,
          "time": 599.25,
          "velocity": 1
        },
        {
          "duration": 0.18020833333332575,
          "durationTicks": 173,
          "midi": 45,
          "name": "A2",
          "ticks": 575520,
          "time": 599.5,
          "velocity": 1
        },
        {
          "duration": 0.1708333333333485,
          "durationTicks": 164,
          "midi": 38,
          "name": "D2",
          "ticks": 575640,
          "time": 599.625,
          "velocity": 1
        },
        {
          "duration": 0.39999999999997726,
          "durationTicks": 384,
          "midi": 62,
          "name": "D4",
          "ticks": 575640,
          "time": 599.625,
          "velocity": 1
        },
        {
          "duration": 0.39999999999997726,
          "durationTicks": 384,
          "midi": 65,
          "name": "F4",
          "ticks": 575640,
          "time": 599.625,
          "velocity": 1
        },
        {
          "duration": 0.23020833333328028,
          "durationTicks": 221,
          "midi": 45,
          "name": "A2",
          "ticks": 575760,
          "time": 599.75,
          "velocity": 1
        },
        {
          "duration": 0.049999999999954525,
          "durationTicks": 48,
          "midi": 41,
          "name": "F2",
          "ticks": 576000,
          "time": 600,
          "velocity": 1
        },
        {
          "duration": 1.0322916666666515,
          "durationTicks": 991,
          "midi": 53,
          "name": "F3",
          "ticks": 576000,
          "time": 600,
          "velocity": 1
        },
        {
          "duration": 0.49166666666667425,
          "durationTicks": 472,
          "midi": 61,
          "name": "C#4",
          "ticks": 576000,
          "time": 600,
          "velocity": 1
        },
        {
          "duration": 0.49166666666667425,
          "durationTicks": 472,
          "midi": 64,
          "name": "E4",
          "ticks": 576000,
          "time": 600,
          "velocity": 1
        },
        {
          "duration": 0.25,
          "durationTicks": 240,
          "midi": 43,
          "name": "G2",
          "ticks": 576240,
          "time": 600.25,
          "velocity": 1
        },
        {
          "duration": 0.279166666666697,
          "durationTicks": 268,
          "midi": 43,
          "name": "G2",
          "ticks": 576480,
          "time": 600.5,
          "velocity": 1
        },
        {
          "duration": 0.5406249999999773,
          "durationTicks": 519,
          "midi": 59,
          "name": "B3",
          "ticks": 576480,
          "time": 600.5,
          "velocity": 1
        },
        {
          "duration": 0.5406249999999773,
          "durationTicks": 519,
          "midi": 62,
          "name": "D4",
          "ticks": 576480,
          "time": 600.5,
          "velocity": 1
        },
        {
          "duration": 0.2614583333332803,
          "durationTicks": 251,
          "midi": 43,
          "name": "G2",
          "ticks": 576720,
          "time": 600.75,
          "velocity": 1
        },
        {
          "duration": 0.6302083333333712,
          "durationTicks": 605,
          "midi": 55,
          "name": "G3",
          "ticks": 576960,
          "time": 601,
          "velocity": 1
        },
        {
          "duration": 0.6302083333333712,
          "durationTicks": 605,
          "midi": 58,
          "name": "A#3",
          "ticks": 576960,
          "time": 601,
          "velocity": 1
        },
        {
          "duration": 0.6302083333333712,
          "durationTicks": 605,
          "midi": 60,
          "name": "C4",
          "ticks": 576960,
          "time": 601,
          "velocity": 1
        },
        {
          "duration": 0.20000000000004547,
          "durationTicks": 192,
          "midi": 48,
          "name": "C3",
          "ticks": 577200,
          "time": 601.25,
          "velocity": 1
        },
        {
          "duration": 0.21145833333332575,
          "durationTicks": 203,
          "midi": 36,
          "name": "C2",
          "ticks": 577440,
          "time": 601.5,
          "velocity": 1
        },
        {
          "duration": 0.20937500000002274,
          "durationTicks": 201,
          "midi": 36,
          "name": "C2",
          "ticks": 577560,
          "time": 601.625,
          "velocity": 1
        },
        {
          "duration": 0.5708333333333258,
          "durationTicks": 548,
          "midi": 62,
          "name": "D4",
          "ticks": 577560,
          "time": 601.625,
          "velocity": 1
        },
        {
          "duration": 0.5708333333333258,
          "durationTicks": 548,
          "midi": 65,
          "name": "F4",
          "ticks": 577560,
          "time": 601.625,
          "velocity": 1
        },
        {
          "duration": 0.5708333333333258,
          "durationTicks": 548,
          "midi": 69,
          "name": "A4",
          "ticks": 577560,
          "time": 601.625,
          "velocity": 1
        },
        {
          "duration": 0.4385416666666515,
          "durationTicks": 421,
          "midi": 72,
          "name": "C5",
          "ticks": 577560,
          "time": 601.625,
          "velocity": 1
        },
        {
          "duration": 0.18020833333332575,
          "durationTicks": 173,
          "midi": 48,
          "name": "C3",
          "ticks": 577800,
          "time": 601.875,
          "velocity": 1
        },
        {
          "duration": 0.18229166666662877,
          "durationTicks": 175,
          "midi": 58,
          "name": "A#3",
          "ticks": 577920,
          "time": 602,
          "velocity": 1
        },
        {
          "duration": 0.23854166666671972,
          "durationTicks": 229,
          "midi": 58,
          "name": "A#3",
          "ticks": 578160,
          "time": 602.25,
          "velocity": 1
        },
        {
          "duration": 0.6187499999999773,
          "durationTicks": 594,
          "midi": 62,
          "name": "D4",
          "ticks": 578160,
          "time": 602.25,
          "velocity": 1
        },
        {
          "duration": 0.6187499999999773,
          "durationTicks": 594,
          "midi": 64,
          "name": "E4",
          "ticks": 578160,
          "time": 602.25,
          "velocity": 1
        },
        {
          "duration": 0.6187499999999773,
          "durationTicks": 594,
          "midi": 69,
          "name": "A4",
          "ticks": 578160,
          "time": 602.25,
          "velocity": 1
        },
        {
          "duration": 0.6187499999999773,
          "durationTicks": 594,
          "midi": 72,
          "name": "C5",
          "ticks": 578160,
          "time": 602.25,
          "velocity": 1
        },
        {
          "duration": 0.20000000000004547,
          "durationTicks": 192,
          "midi": 58,
          "name": "A#3",
          "ticks": 578400,
          "time": 602.5,
          "velocity": 1
        },
        {
          "duration": 0.18020833333332575,
          "durationTicks": 173,
          "midi": 48,
          "name": "C3",
          "ticks": 578640,
          "time": 602.75,
          "velocity": 1
        },
        {
          "duration": 0.22083333333330302,
          "durationTicks": 212,
          "midi": 58,
          "name": "A#3",
          "ticks": 578760,
          "time": 602.875,
          "velocity": 1
        },
        {
          "duration": 0.22083333333330302,
          "durationTicks": 212,
          "midi": 64,
          "name": "E4",
          "ticks": 578760,
          "time": 602.875,
          "velocity": 1
        },
        {
          "duration": 1.2000000000000455,
          "durationTicks": 1152,
          "midi": 68,
          "name": "G#4",
          "ticks": 578760,
          "time": 602.875,
          "velocity": 1
        },
        {
          "duration": 1.2000000000000455,
          "durationTicks": 1152,
          "midi": 72,
          "name": "C5",
          "ticks": 578760,
          "time": 602.875,
          "velocity": 1
        },
        {
          "duration": 0.27083333333337123,
          "durationTicks": 260,
          "midi": 64,
          "name": "E4",
          "ticks": 579000,
          "time": 603.125,
          "velocity": 1
        },
        {
          "duration": 0.279166666666697,
          "durationTicks": 268,
          "midi": 58,
          "name": "A#3",
          "ticks": 579240,
          "time": 603.375,
          "velocity": 1
        },
        {
          "duration": 0.2614583333332803,
          "durationTicks": 251,
          "midi": 41,
          "name": "F2",
          "ticks": 579480,
          "time": 603.625,
          "velocity": 1
        },
        {
          "duration": 0.16875000000004547,
          "durationTicks": 162,
          "midi": 51,
          "name": "D#3",
          "ticks": 579720,
          "time": 603.875,
          "velocity": 1
        },
        {
          "duration": 1.482291666666697,
          "durationTicks": 1423,
          "midi": 51,
          "name": "D#3",
          "ticks": 579840,
          "time": 604,
          "velocity": 1
        },
        {
          "duration": 0.4416666666667197,
          "durationTicks": 424,
          "midi": 58,
          "name": "A#3",
          "ticks": 579840,
          "time": 604,
          "velocity": 1
        },
        {
          "duration": 1.9500000000000455,
          "durationTicks": 1872,
          "midi": 67,
          "name": "G4",
          "ticks": 579840,
          "time": 604,
          "velocity": 1
        },
        {
          "duration": 1.9500000000000455,
          "durationTicks": 1872,
          "midi": 74,
          "name": "D5",
          "ticks": 579840,
          "time": 604,
          "velocity": 1
        },
        {
          "duration": 1.9500000000000455,
          "durationTicks": 1872,
          "midi": 77,
          "name": "F5",
          "ticks": 579840,
          "time": 604,
          "velocity": 1
        },
        {
          "duration": 1.9500000000000455,
          "durationTicks": 1872,
          "midi": 81,
          "name": "A5",
          "ticks": 579840,
          "time": 604,
          "velocity": 1
        },
        {
          "duration": 0.3708333333332803,
          "durationTicks": 356,
          "midi": 63,
          "name": "D#4",
          "ticks": 580320,
          "time": 604.5,
          "velocity": 1
        },
        {
          "duration": 0.35000000000002274,
          "durationTicks": 336,
          "midi": 58,
          "name": "A#3",
          "ticks": 580680,
          "time": 604.875,
          "velocity": 1
        },
        {
          "duration": 0.32083333333332575,
          "durationTicks": 308,
          "midi": 56,
          "name": "G#3",
          "ticks": 581040,
          "time": 605.25,
          "velocity": 1
        },
        {
          "duration": 0.23854166666671972,
          "durationTicks": 229,
          "midi": 57,
          "name": "A3",
          "ticks": 581280,
          "time": 605.5,
          "velocity": 1
        },
        {
          "duration": 0.23020833333328028,
          "durationTicks": 221,
          "midi": 63,
          "name": "D#4",
          "ticks": 581520,
          "time": 605.75,
          "velocity": 1
        },
        {
          "duration": 0.21145833333332575,
          "durationTicks": 203,
          "midi": 53,
          "name": "F3",
          "ticks": 581760,
          "time": 606,
          "velocity": 1
        },
        {
          "duration": 0.5416666666666288,
          "durationTicks": 520,
          "midi": 67,
          "name": "G4",
          "ticks": 581760,
          "time": 606,
          "velocity": 1
        },
        {
          "duration": 0.5416666666666288,
          "durationTicks": 520,
          "midi": 72,
          "name": "C5",
          "ticks": 581760,
          "time": 606,
          "velocity": 1
        },
        {
          "duration": 0.19166666666671972,
          "durationTicks": 184,
          "midi": 74,
          "name": "D5",
          "ticks": 581760,
          "time": 606,
          "velocity": 1
        },
        {
          "duration": 0.19166666666671972,
          "durationTicks": 184,
          "midi": 79,
          "name": "G5",
          "ticks": 581760,
          "time": 606,
          "velocity": 1
        },
        {
          "duration": 0.330208333333303,
          "durationTicks": 317,
          "midi": 57,
          "name": "A3",
          "ticks": 582000,
          "time": 606.25,
          "velocity": 1
        },
        {
          "duration": 0.20000000000004547,
          "durationTicks": 192,
          "midi": 46,
          "name": "A#2",
          "ticks": 582240,
          "time": 606.5,
          "velocity": 1
        },
        {
          "duration": 0.390625,
          "durationTicks": 375,
          "midi": 67,
          "name": "G4",
          "ticks": 582240,
          "time": 606.5,
          "velocity": 1
        },
        {
          "duration": 0.9093749999999545,
          "durationTicks": 873,
          "midi": 72,
          "name": "C5",
          "ticks": 582240,
          "time": 606.5,
          "velocity": 1
        },
        {
          "duration": 0.390625,
          "durationTicks": 375,
          "midi": 79,
          "name": "G5",
          "ticks": 582240,
          "time": 606.5,
          "velocity": 1
        },
        {
          "duration": 0.19062499999995453,
          "durationTicks": 183,
          "midi": 53,
          "name": "F3",
          "ticks": 582480,
          "time": 606.75,
          "velocity": 1
        },
        {
          "duration": 0.20937500000002274,
          "durationTicks": 201,
          "midi": 55,
          "name": "G3",
          "ticks": 582600,
          "time": 606.875,
          "velocity": 1
        },
        {
          "duration": 0.5187499999999545,
          "durationTicks": 498,
          "midi": 65,
          "name": "F4",
          "ticks": 582600,
          "time": 606.875,
          "velocity": 1
        },
        {
          "duration": 0.5187499999999545,
          "durationTicks": 498,
          "midi": 77,
          "name": "F5",
          "ticks": 582600,
          "time": 606.875,
          "velocity": 1
        },
        {
          "duration": 0.3093750000000455,
          "durationTicks": 297,
          "midi": 57,
          "name": "A3",
          "ticks": 582840,
          "time": 607.125,
          "velocity": 1
        },
        {
          "duration": 0.24166666666667425,
          "durationTicks": 232,
          "midi": 47,
          "name": "B2",
          "ticks": 583200,
          "time": 607.5,
          "velocity": 1
        },
        {
          "duration": 0.279166666666697,
          "durationTicks": 268,
          "midi": 56,
          "name": "G#3",
          "ticks": 583440,
          "time": 607.75,
          "velocity": 1
        },
        {
          "duration": 0.279166666666697,
          "durationTicks": 268,
          "midi": 65,
          "name": "F4",
          "ticks": 583440,
          "time": 607.75,
          "velocity": 1
        },
        {
          "duration": 0.279166666666697,
          "durationTicks": 268,
          "midi": 68,
          "name": "G#4",
          "ticks": 583440,
          "time": 607.75,
          "velocity": 1
        },
        {
          "duration": 0.279166666666697,
          "durationTicks": 268,
          "midi": 74,
          "name": "D5",
          "ticks": 583440,
          "time": 607.75,
          "velocity": 1
        },
        {
          "duration": 0.21145833333332575,
          "durationTicks": 203,
          "midi": 62,
          "name": "D4",
          "ticks": 583680,
          "time": 608,
          "velocity": 1
        },
        {
          "duration": 0.4208333333333485,
          "durationTicks": 404,
          "midi": 71,
          "name": "B4",
          "ticks": 583680,
          "time": 608,
          "velocity": 1
        },
        {
          "duration": 0.27083333333337123,
          "durationTicks": 260,
          "midi": 77,
          "name": "F5",
          "ticks": 583680,
          "time": 608,
          "velocity": 1
        },
        {
          "duration": 0.20937500000002274,
          "durationTicks": 201,
          "midi": 56,
          "name": "G#3",
          "ticks": 583920,
          "time": 608.25,
          "velocity": 1
        },
        {
          "duration": 0.25,
          "durationTicks": 240,
          "midi": 48,
          "name": "C3",
          "ticks": 584040,
          "time": 608.375,
          "velocity": 1
        },
        {
          "duration": 0.5,
          "durationTicks": 480,
          "midi": 65,
          "name": "F4",
          "ticks": 584040,
          "time": 608.375,
          "velocity": 1
        },
        {
          "duration": 0.5,
          "durationTicks": 480,
          "midi": 69,
          "name": "A4",
          "ticks": 584040,
          "time": 608.375,
          "velocity": 1
        },
        {
          "duration": 0.5,
          "durationTicks": 480,
          "midi": 72,
          "name": "C5",
          "ticks": 584040,
          "time": 608.375,
          "velocity": 1
        },
        {
          "duration": 0.25,
          "durationTicks": 240,
          "midi": 57,
          "name": "A3",
          "ticks": 584280,
          "time": 608.625,
          "velocity": 1
        },
        {
          "duration": 0.22083333333330302,
          "durationTicks": 212,
          "midi": 55,
          "name": "G3",
          "ticks": 584520,
          "time": 608.875,
          "velocity": 1
        },
        {
          "duration": 0.5093749999999773,
          "durationTicks": 489,
          "midi": 61,
          "name": "C#4",
          "ticks": 584520,
          "time": 608.875,
          "velocity": 1
        },
        {
          "duration": 0.5093749999999773,
          "durationTicks": 489,
          "midi": 65,
          "name": "F4",
          "ticks": 584520,
          "time": 608.875,
          "velocity": 1
        },
        {
          "duration": 0.5093749999999773,
          "durationTicks": 489,
          "midi": 69,
          "name": "A4",
          "ticks": 584520,
          "time": 608.875,
          "velocity": 1
        },
        {
          "duration": 0.28854166666667425,
          "durationTicks": 277,
          "midi": 45,
          "name": "A2",
          "ticks": 584760,
          "time": 609.125,
          "velocity": 1
        },
        {
          "duration": 0.49166666666667425,
          "durationTicks": 472,
          "midi": 38,
          "name": "D2",
          "ticks": 585000,
          "time": 609.375,
          "velocity": 1
        },
        {
          "duration": 0.49166666666667425,
          "durationTicks": 472,
          "midi": 64,
          "name": "E4",
          "ticks": 585000,
          "time": 609.375,
          "velocity": 1
        },
        {
          "duration": 0.49166666666667425,
          "durationTicks": 472,
          "midi": 65,
          "name": "F4",
          "ticks": 585000,
          "time": 609.375,
          "velocity": 1
        },
        {
          "duration": 0.609375,
          "durationTicks": 585,
          "midi": 44,
          "name": "G#2",
          "ticks": 585480,
          "time": 609.875,
          "velocity": 1
        },
        {
          "duration": 0.609375,
          "durationTicks": 585,
          "midi": 54,
          "name": "F#3",
          "ticks": 585480,
          "time": 609.875,
          "velocity": 1
        },
        {
          "duration": 0.609375,
          "durationTicks": 585,
          "midi": 60,
          "name": "C4",
          "ticks": 585480,
          "time": 609.875,
          "velocity": 1
        },
        {
          "duration": 0.609375,
          "durationTicks": 585,
          "midi": 62,
          "name": "D4",
          "ticks": 585480,
          "time": 609.875,
          "velocity": 1
        },
        {
          "duration": 1.841666666666697,
          "durationTicks": 1768,
          "midi": 43,
          "name": "G2",
          "ticks": 586080,
          "time": 610.5,
          "velocity": 1
        },
        {
          "duration": 2.8916666666666515,
          "durationTicks": 2776,
          "midi": 53,
          "name": "F3",
          "ticks": 586080,
          "time": 610.5,
          "velocity": 1
        },
        {
          "duration": 2.8916666666666515,
          "durationTicks": 2776,
          "midi": 59,
          "name": "B3",
          "ticks": 586080,
          "time": 610.5,
          "velocity": 1
        },
        {
          "duration": 1.841666666666697,
          "durationTicks": 1768,
          "midi": 61,
          "name": "C#4",
          "ticks": 586080,
          "time": 610.5,
          "velocity": 1
        },
        {
          "duration": 1.841666666666697,
          "durationTicks": 1768,
          "midi": 62,
          "name": "D4",
          "ticks": 586080,
          "time": 610.5,
          "velocity": 1
        },
        {
          "duration": 2.1822916666666288,
          "durationTicks": 2095,
          "midi": 65,
          "name": "F4",
          "ticks": 586080,
          "time": 610.5,
          "velocity": 1
        },
        {
          "duration": 0.23854166666671972,
          "durationTicks": 229,
          "midi": 64,
          "name": "E4",
          "ticks": 588120,
          "time": 612.625,
          "velocity": 1
        },
        {
          "duration": 0.21145833333332575,
          "durationTicks": 203,
          "midi": 65,
          "name": "F4",
          "ticks": 588360,
          "time": 612.875,
          "velocity": 1
        },
        {
          "duration": 0.25937499999997726,
          "durationTicks": 249,
          "midi": 67,
          "name": "G4",
          "ticks": 588600,
          "time": 613.125,
          "velocity": 1
        },
        {
          "duration": 0.9906250000000227,
          "durationTicks": 951,
          "midi": 45,
          "name": "A2",
          "ticks": 588840,
          "time": 613.375,
          "velocity": 1
        },
        {
          "duration": 0.9906250000000227,
          "durationTicks": 951,
          "midi": 55,
          "name": "G3",
          "ticks": 588840,
          "time": 613.375,
          "velocity": 1
        },
        {
          "duration": 1.3406250000000455,
          "durationTicks": 1287,
          "midi": 60,
          "name": "C4",
          "ticks": 588840,
          "time": 613.375,
          "velocity": 1
        },
        {
          "duration": 0.09062500000004547,
          "durationTicks": 87,
          "midi": 67,
          "name": "G4",
          "ticks": 588840,
          "time": 613.375,
          "velocity": 1
        },
        {
          "duration": 0.10000000000002274,
          "durationTicks": 96,
          "midi": 68,
          "name": "G#4",
          "ticks": 588960,
          "time": 613.5,
          "velocity": 1
        },
        {
          "duration": 0.7302083333332803,
          "durationTicks": 701,
          "midi": 69,
          "name": "A4",
          "ticks": 589080,
          "time": 613.625,
          "velocity": 1
        },
        {
          "duration": 0.07083333333332575,
          "durationTicks": 68,
          "midi": 72,
          "name": "C5",
          "ticks": 589800,
          "time": 614.375,
          "velocity": 1
        },
        {
          "duration": 0.25,
          "durationTicks": 240,
          "midi": 74,
          "name": "D5",
          "ticks": 589920,
          "time": 614.5,
          "velocity": 1
        },
        {
          "duration": 1.7000000000000455,
          "durationTicks": 1632,
          "midi": 50,
          "name": "D3",
          "ticks": 590160,
          "time": 614.75,
          "velocity": 1
        },
        {
          "duration": 1.7000000000000455,
          "durationTicks": 1632,
          "midi": 54,
          "name": "F#3",
          "ticks": 590160,
          "time": 614.75,
          "velocity": 1
        },
        {
          "duration": 1.7000000000000455,
          "durationTicks": 1632,
          "midi": 60,
          "name": "C4",
          "ticks": 590160,
          "time": 614.75,
          "velocity": 1
        },
        {
          "duration": 1.7000000000000455,
          "durationTicks": 1632,
          "midi": 70,
          "name": "A#4",
          "ticks": 590160,
          "time": 614.75,
          "velocity": 1
        },
        {
          "duration": 1.7000000000000455,
          "durationTicks": 1632,
          "midi": 72,
          "name": "C5",
          "ticks": 590160,
          "time": 614.75,
          "velocity": 1
        },
        {
          "duration": 0.341666666666697,
          "durationTicks": 328,
          "midi": 44,
          "name": "G#2",
          "ticks": 592080,
          "time": 616.75,
          "velocity": 1
        },
        {
          "duration": 0.341666666666697,
          "durationTicks": 328,
          "midi": 53,
          "name": "F3",
          "ticks": 592080,
          "time": 616.75,
          "velocity": 1
        },
        {
          "duration": 0.341666666666697,
          "durationTicks": 328,
          "midi": 60,
          "name": "C4",
          "ticks": 592080,
          "time": 616.75,
          "velocity": 1
        },
        {
          "duration": 0.341666666666697,
          "durationTicks": 328,
          "midi": 65,
          "name": "F4",
          "ticks": 592080,
          "time": 616.75,
          "velocity": 1
        },
        {
          "duration": 0.341666666666697,
          "durationTicks": 328,
          "midi": 69,
          "name": "A4",
          "ticks": 592080,
          "time": 616.75,
          "velocity": 1
        },
        {
          "duration": 0.6000000000000227,
          "durationTicks": 576,
          "midi": 43,
          "name": "G2",
          "ticks": 592440,
          "time": 617.125,
          "velocity": 1
        },
        {
          "duration": 0.6000000000000227,
          "durationTicks": 576,
          "midi": 53,
          "name": "F3",
          "ticks": 592440,
          "time": 617.125,
          "velocity": 1
        },
        {
          "duration": 0.6000000000000227,
          "durationTicks": 576,
          "midi": 59,
          "name": "B3",
          "ticks": 592440,
          "time": 617.125,
          "velocity": 1
        },
        {
          "duration": 0.2999999999999545,
          "durationTicks": 288,
          "midi": 64,
          "name": "E4",
          "ticks": 592440,
          "time": 617.125,
          "velocity": 1
        },
        {
          "duration": 0.6000000000000227,
          "durationTicks": 576,
          "midi": 67,
          "name": "G4",
          "ticks": 592440,
          "time": 617.125,
          "velocity": 1
        },
        {
          "duration": 0.28854166666667425,
          "durationTicks": 277,
          "midi": 62,
          "name": "D4",
          "ticks": 592680,
          "time": 617.375,
          "velocity": 1
        },
        {
          "duration": 0.4385416666666515,
          "durationTicks": 421,
          "midi": 43,
          "name": "G2",
          "ticks": 592920,
          "time": 617.625,
          "velocity": 1
        },
        {
          "duration": 0.4385416666666515,
          "durationTicks": 421,
          "midi": 53,
          "name": "F3",
          "ticks": 592920,
          "time": 617.625,
          "velocity": 1
        },
        {
          "duration": 0.4385416666666515,
          "durationTicks": 421,
          "midi": 58,
          "name": "A#3",
          "ticks": 592920,
          "time": 617.625,
          "velocity": 1
        },
        {
          "duration": 0.4385416666666515,
          "durationTicks": 421,
          "midi": 59,
          "name": "B3",
          "ticks": 592920,
          "time": 617.625,
          "velocity": 1
        },
        {
          "duration": 0.4385416666666515,
          "durationTicks": 421,
          "midi": 62,
          "name": "D4",
          "ticks": 592920,
          "time": 617.625,
          "velocity": 1
        },
        {
          "duration": 2.4208333333333485,
          "durationTicks": 2324,
          "midi": 48,
          "name": "C3",
          "ticks": 593400,
          "time": 618.125,
          "velocity": 1
        },
        {
          "duration": 2.5499999999999545,
          "durationTicks": 2448,
          "midi": 53,
          "name": "F3",
          "ticks": 593400,
          "time": 618.125,
          "velocity": 1
        },
        {
          "duration": 2.5499999999999545,
          "durationTicks": 2448,
          "midi": 56,
          "name": "G#3",
          "ticks": 593400,
          "time": 618.125,
          "velocity": 1
        },
        {
          "duration": 2.4208333333333485,
          "durationTicks": 2324,
          "midi": 59,
          "name": "B3",
          "ticks": 593400,
          "time": 618.125,
          "velocity": 1
        },
        {
          "duration": 2.4208333333333485,
          "durationTicks": 2324,
          "midi": 61,
          "name": "C#4",
          "ticks": 593400,
          "time": 618.125,
          "velocity": 1
        },
        {
          "duration": 2.4208333333333485,
          "durationTicks": 2324,
          "midi": 64,
          "name": "E4",
          "ticks": 593400,
          "time": 618.125,
          "velocity": 1
        },
        {
          "duration": 0.7802083333333485,
          "durationTicks": 749,
          "midi": 65,
          "name": "F4",
          "ticks": 595800,
          "time": 620.625,
          "velocity": 1
        },
        {
          "duration": 0.7802083333333485,
          "durationTicks": 749,
          "midi": 69,
          "name": "A4",
          "ticks": 595800,
          "time": 620.625,
          "velocity": 1
        },
        {
          "duration": 0.7802083333333485,
          "durationTicks": 749,
          "midi": 72,
          "name": "C5",
          "ticks": 595800,
          "time": 620.625,
          "velocity": 1
        },
        {
          "duration": 0.7802083333333485,
          "durationTicks": 749,
          "midi": 74,
          "name": "D5",
          "ticks": 595800,
          "time": 620.625,
          "velocity": 1
        },
        {
          "duration": 0.7802083333333485,
          "durationTicks": 749,
          "midi": 77,
          "name": "F5",
          "ticks": 595800,
          "time": 620.625,
          "velocity": 1
        },
        {
          "duration": 0.3093750000000455,
          "durationTicks": 297,
          "midi": 62,
          "name": "D4",
          "ticks": 596520,
          "time": 621.375,
          "velocity": 1
        },
        {
          "duration": 0.3093750000000455,
          "durationTicks": 297,
          "midi": 63,
          "name": "D#4",
          "ticks": 596520,
          "time": 621.375,
          "velocity": 1
        },
        {
          "duration": 0.3093750000000455,
          "durationTicks": 297,
          "midi": 66,
          "name": "F#4",
          "ticks": 596520,
          "time": 621.375,
          "velocity": 1
        },
        {
          "duration": 0.3093750000000455,
          "durationTicks": 297,
          "midi": 69,
          "name": "A4",
          "ticks": 596520,
          "time": 621.375,
          "velocity": 1
        },
        {
          "duration": 0.3093750000000455,
          "durationTicks": 297,
          "midi": 71,
          "name": "B4",
          "ticks": 596520,
          "time": 621.375,
          "velocity": 1
        },
        {
          "duration": 0.3093750000000455,
          "durationTicks": 297,
          "midi": 74,
          "name": "D5",
          "ticks": 596520,
          "time": 621.375,
          "velocity": 1
        },
        {
          "duration": 0.35000000000002274,
          "durationTicks": 336,
          "midi": 60,
          "name": "C4",
          "ticks": 596880,
          "time": 621.75,
          "velocity": 1
        },
        {
          "duration": 0.35000000000002274,
          "durationTicks": 336,
          "midi": 64,
          "name": "E4",
          "ticks": 596880,
          "time": 621.75,
          "velocity": 1
        },
        {
          "duration": 0.35000000000002274,
          "durationTicks": 336,
          "midi": 67,
          "name": "G4",
          "ticks": 596880,
          "time": 621.75,
          "velocity": 1
        },
        {
          "duration": 0.35000000000002274,
          "durationTicks": 336,
          "midi": 69,
          "name": "A4",
          "ticks": 596880,
          "time": 621.75,
          "velocity": 1
        },
        {
          "duration": 0.35000000000002274,
          "durationTicks": 336,
          "midi": 73,
          "name": "C#5",
          "ticks": 596880,
          "time": 621.75,
          "velocity": 1
        },
        {
          "duration": 0.361458333333303,
          "durationTicks": 347,
          "midi": 57,
          "name": "A3",
          "ticks": 597240,
          "time": 622.125,
          "velocity": 1
        },
        {
          "duration": 0.361458333333303,
          "durationTicks": 347,
          "midi": 61,
          "name": "C#4",
          "ticks": 597240,
          "time": 622.125,
          "velocity": 1
        },
        {
          "duration": 0.361458333333303,
          "durationTicks": 347,
          "midi": 64,
          "name": "E4",
          "ticks": 597240,
          "time": 622.125,
          "velocity": 1
        },
        {
          "duration": 0.361458333333303,
          "durationTicks": 347,
          "midi": 66,
          "name": "F#4",
          "ticks": 597240,
          "time": 622.125,
          "velocity": 1
        },
        {
          "duration": 0.361458333333303,
          "durationTicks": 347,
          "midi": 69,
          "name": "A4",
          "ticks": 597240,
          "time": 622.125,
          "velocity": 1
        },
        {
          "duration": 0.12083333333328028,
          "durationTicks": 116,
          "midi": 53,
          "name": "F3",
          "ticks": 597600,
          "time": 622.5,
          "velocity": 1
        },
        {
          "duration": 0.39999999999997726,
          "durationTicks": 384,
          "midi": 57,
          "name": "A3",
          "ticks": 597600,
          "time": 622.5,
          "velocity": 1
        },
        {
          "duration": 0.39999999999997726,
          "durationTicks": 384,
          "midi": 60,
          "name": "C4",
          "ticks": 597600,
          "time": 622.5,
          "velocity": 1
        },
        {
          "duration": 0.39999999999997726,
          "durationTicks": 384,
          "midi": 65,
          "name": "F4",
          "ticks": 597600,
          "time": 622.5,
          "velocity": 1
        },
        {
          "duration": 0.330208333333303,
          "durationTicks": 317,
          "midi": 53,
          "name": "F3",
          "ticks": 597960,
          "time": 622.875,
          "velocity": 1
        },
        {
          "duration": 0.330208333333303,
          "durationTicks": 317,
          "midi": 56,
          "name": "G#3",
          "ticks": 597960,
          "time": 622.875,
          "velocity": 1
        },
        {
          "duration": 0.330208333333303,
          "durationTicks": 317,
          "midi": 59,
          "name": "B3",
          "ticks": 597960,
          "time": 622.875,
          "velocity": 1
        },
        {
          "duration": 0.330208333333303,
          "durationTicks": 317,
          "midi": 62,
          "name": "D4",
          "ticks": 597960,
          "time": 622.875,
          "velocity": 1
        },
        {
          "duration": 0.330208333333303,
          "durationTicks": 317,
          "midi": 64,
          "name": "E4",
          "ticks": 597960,
          "time": 622.875,
          "velocity": 1
        },
        {
          "duration": 0.3708333333332803,
          "durationTicks": 356,
          "midi": 54,
          "name": "F#3",
          "ticks": 598320,
          "time": 623.25,
          "velocity": 1
        },
        {
          "duration": 0.3708333333332803,
          "durationTicks": 356,
          "midi": 57,
          "name": "A3",
          "ticks": 598320,
          "time": 623.25,
          "velocity": 1
        },
        {
          "duration": 0.3708333333332803,
          "durationTicks": 356,
          "midi": 60,
          "name": "C4",
          "ticks": 598320,
          "time": 623.25,
          "velocity": 1
        },
        {
          "duration": 0.3708333333332803,
          "durationTicks": 356,
          "midi": 65,
          "name": "F4",
          "ticks": 598320,
          "time": 623.25,
          "velocity": 1
        },
        {
          "duration": 0.4385416666666515,
          "durationTicks": 421,
          "midi": 50,
          "name": "D3",
          "ticks": 598680,
          "time": 623.625,
          "velocity": 1
        },
        {
          "duration": 0.4385416666666515,
          "durationTicks": 421,
          "midi": 54,
          "name": "F#3",
          "ticks": 598680,
          "time": 623.625,
          "velocity": 1
        },
        {
          "duration": 0.4385416666666515,
          "durationTicks": 421,
          "midi": 57,
          "name": "A3",
          "ticks": 598680,
          "time": 623.625,
          "velocity": 1
        },
        {
          "duration": 0.4385416666666515,
          "durationTicks": 421,
          "midi": 59,
          "name": "B3",
          "ticks": 598680,
          "time": 623.625,
          "velocity": 1
        },
        {
          "duration": 0.4385416666666515,
          "durationTicks": 421,
          "midi": 62,
          "name": "D4",
          "ticks": 598680,
          "time": 623.625,
          "velocity": 1
        },
        {
          "duration": 2.232291666666697,
          "durationTicks": 2143,
          "midi": 52,
          "name": "E3",
          "ticks": 599040,
          "time": 624,
          "velocity": 1
        },
        {
          "duration": 2.232291666666697,
          "durationTicks": 2143,
          "midi": 53,
          "name": "F3",
          "ticks": 599040,
          "time": 624,
          "velocity": 1
        },
        {
          "duration": 2.232291666666697,
          "durationTicks": 2143,
          "midi": 56,
          "name": "G#3",
          "ticks": 599040,
          "time": 624,
          "velocity": 1
        },
        {
          "duration": 2.232291666666697,
          "durationTicks": 2143,
          "midi": 59,
          "name": "B3",
          "ticks": 599040,
          "time": 624,
          "velocity": 1
        },
        {
          "duration": 2.232291666666697,
          "durationTicks": 2143,
          "midi": 61,
          "name": "C#4",
          "ticks": 599040,
          "time": 624,
          "velocity": 1
        },
        {
          "duration": 2.232291666666697,
          "durationTicks": 2143,
          "midi": 64,
          "name": "E4",
          "ticks": 599040,
          "time": 624,
          "velocity": 1
        },
        {
          "duration": 0.5906250000000455,
          "durationTicks": 567,
          "midi": 47,
          "name": "B2",
          "ticks": 601200,
          "time": 626.25,
          "velocity": 1
        },
        {
          "duration": 0.5906250000000455,
          "durationTicks": 567,
          "midi": 57,
          "name": "A3",
          "ticks": 601200,
          "time": 626.25,
          "velocity": 1
        },
        {
          "duration": 0.5906250000000455,
          "durationTicks": 567,
          "midi": 62,
          "name": "D4",
          "ticks": 601200,
          "time": 626.25,
          "velocity": 1
        },
        {
          "duration": 0.5906250000000455,
          "durationTicks": 567,
          "midi": 65,
          "name": "F4",
          "ticks": 601200,
          "time": 626.25,
          "velocity": 1
        },
        {
          "duration": 0.47916666666662877,
          "durationTicks": 460,
          "midi": 46,
          "name": "A#2",
          "ticks": 601800,
          "time": 626.875,
          "velocity": 1
        },
        {
          "duration": 0.47916666666662877,
          "durationTicks": 460,
          "midi": 56,
          "name": "G#3",
          "ticks": 601800,
          "time": 626.875,
          "velocity": 1
        },
        {
          "duration": 0.47916666666662877,
          "durationTicks": 460,
          "midi": 61,
          "name": "C#4",
          "ticks": 601800,
          "time": 626.875,
          "velocity": 1
        },
        {
          "duration": 0.47916666666662877,
          "durationTicks": 460,
          "midi": 65,
          "name": "F4",
          "ticks": 601800,
          "time": 626.875,
          "velocity": 1
        },
        {
          "duration": 0.47916666666662877,
          "durationTicks": 460,
          "midi": 70,
          "name": "A#4",
          "ticks": 601800,
          "time": 626.875,
          "velocity": 1
        },
        {
          "duration": 0.580208333333303,
          "durationTicks": 557,
          "midi": 45,
          "name": "A2",
          "ticks": 602280,
          "time": 627.375,
          "velocity": 1
        },
        {
          "duration": 0.580208333333303,
          "durationTicks": 557,
          "midi": 55,
          "name": "G3",
          "ticks": 602280,
          "time": 627.375,
          "velocity": 1
        },
        {
          "duration": 0.580208333333303,
          "durationTicks": 557,
          "midi": 60,
          "name": "C4",
          "ticks": 602280,
          "time": 627.375,
          "velocity": 1
        },
        {
          "duration": 0.580208333333303,
          "durationTicks": 557,
          "midi": 67,
          "name": "G4",
          "ticks": 602280,
          "time": 627.375,
          "velocity": 1
        },
        {
          "duration": 0.580208333333303,
          "durationTicks": 557,
          "midi": 72,
          "name": "C5",
          "ticks": 602280,
          "time": 627.375,
          "velocity": 1
        },
        {
          "duration": 0.6499999999999773,
          "durationTicks": 624,
          "midi": 44,
          "name": "G#2",
          "ticks": 602880,
          "time": 628,
          "velocity": 1
        },
        {
          "duration": 0.6499999999999773,
          "durationTicks": 624,
          "midi": 54,
          "name": "F#3",
          "ticks": 602880,
          "time": 628,
          "velocity": 1
        },
        {
          "duration": 0.6499999999999773,
          "durationTicks": 624,
          "midi": 60,
          "name": "C4",
          "ticks": 602880,
          "time": 628,
          "velocity": 1
        },
        {
          "duration": 0.6499999999999773,
          "durationTicks": 624,
          "midi": 65,
          "name": "F4",
          "ticks": 602880,
          "time": 628,
          "velocity": 1
        },
        {
          "duration": 0.6499999999999773,
          "durationTicks": 624,
          "midi": 70,
          "name": "A#4",
          "ticks": 602880,
          "time": 628,
          "velocity": 1
        },
        {
          "duration": 0.6499999999999773,
          "durationTicks": 624,
          "midi": 74,
          "name": "D5",
          "ticks": 602880,
          "time": 628,
          "velocity": 1
        },
        {
          "duration": 0.8385416666666288,
          "durationTicks": 805,
          "midi": 43,
          "name": "G2",
          "ticks": 603480,
          "time": 628.625,
          "velocity": 1
        },
        {
          "duration": 0.8385416666666288,
          "durationTicks": 805,
          "midi": 53,
          "name": "F3",
          "ticks": 603480,
          "time": 628.625,
          "velocity": 1
        },
        {
          "duration": 0.8385416666666288,
          "durationTicks": 805,
          "midi": 59,
          "name": "B3",
          "ticks": 603480,
          "time": 628.625,
          "velocity": 1
        },
        {
          "duration": 0.8385416666666288,
          "durationTicks": 805,
          "midi": 65,
          "name": "F4",
          "ticks": 603480,
          "time": 628.625,
          "velocity": 1
        },
        {
          "duration": 0.8385416666666288,
          "durationTicks": 805,
          "midi": 69,
          "name": "A4",
          "ticks": 603480,
          "time": 628.625,
          "velocity": 1
        },
        {
          "duration": 0.8385416666666288,
          "durationTicks": 805,
          "midi": 74,
          "name": "D5",
          "ticks": 603480,
          "time": 628.625,
          "velocity": 1
        },
        {
          "duration": 1.5302083333333485,
          "durationTicks": 1469,
          "midi": 42,
          "name": "F#2",
          "ticks": 604320,
          "time": 629.5,
          "velocity": 1
        },
        {
          "duration": 2.0385416666666742,
          "durationTicks": 1957,
          "midi": 52,
          "name": "E3",
          "ticks": 604320,
          "time": 629.5,
          "velocity": 1
        },
        {
          "duration": 2.0385416666666742,
          "durationTicks": 1957,
          "midi": 58,
          "name": "A#3",
          "ticks": 604320,
          "time": 629.5,
          "velocity": 1
        },
        {
          "duration": 0.9302083333333258,
          "durationTicks": 893,
          "midi": 72,
          "name": "C5",
          "ticks": 604320,
          "time": 629.5,
          "velocity": 1
        },
        {
          "duration": 0.9302083333333258,
          "durationTicks": 893,
          "midi": 76,
          "name": "E5",
          "ticks": 604320,
          "time": 629.5,
          "velocity": 1
        },
        {
          "duration": 0.9302083333333258,
          "durationTicks": 893,
          "midi": 84,
          "name": "C6",
          "ticks": 604320,
          "time": 629.5,
          "velocity": 1
        },
        {
          "duration": 0.39999999999997726,
          "durationTicks": 384,
          "midi": 76,
          "name": "E5",
          "ticks": 605160,
          "time": 630.375,
          "velocity": 1
        },
        {
          "duration": 0.39999999999997726,
          "durationTicks": 384,
          "midi": 80,
          "name": "G#5",
          "ticks": 605160,
          "time": 630.375,
          "velocity": 1
        },
        {
          "duration": 0.39999999999997726,
          "durationTicks": 384,
          "midi": 84,
          "name": "C6",
          "ticks": 605160,
          "time": 630.375,
          "velocity": 1
        },
        {
          "duration": 0.5,
          "durationTicks": 480,
          "midi": 42,
          "name": "F#2",
          "ticks": 605760,
          "time": 631,
          "velocity": 1
        },
        {
          "duration": 0.35000000000002274,
          "durationTicks": 336,
          "midi": 41,
          "name": "F2",
          "ticks": 606360,
          "time": 631.625,
          "velocity": 1
        },
        {
          "duration": 2.8500000000000227,
          "durationTicks": 2736,
          "midi": 51,
          "name": "D#3",
          "ticks": 606720,
          "time": 632,
          "velocity": 1
        },
        {
          "duration": 4.899999999999977,
          "durationTicks": 4704,
          "midi": 57,
          "name": "A3",
          "ticks": 606720,
          "time": 632,
          "velocity": 1
        },
        {
          "duration": 0.23020833333328028,
          "durationTicks": 221,
          "midi": 63,
          "name": "D#4",
          "ticks": 606960,
          "time": 632.25,
          "velocity": 1
        },
        {
          "duration": 0.22916666666662877,
          "durationTicks": 220,
          "midi": 68,
          "name": "G#4",
          "ticks": 607200,
          "time": 632.5,
          "velocity": 1
        },
        {
          "duration": 4.1416666666666515,
          "durationTicks": 3976,
          "midi": 74,
          "name": "D5",
          "ticks": 607440,
          "time": 632.75,
          "velocity": 1
        },
        {
          "duration": 0.2999999999999545,
          "durationTicks": 288,
          "midi": 80,
          "name": "G#5",
          "ticks": 607800,
          "time": 633.125,
          "velocity": 1
        },
        {
          "duration": 0.359375,
          "durationTicks": 345,
          "midi": 86,
          "name": "D6",
          "ticks": 608040,
          "time": 633.375,
          "velocity": 1
        },
        {
          "duration": 0.3916666666666515,
          "durationTicks": 376,
          "midi": 92,
          "name": "G#6",
          "ticks": 608400,
          "time": 633.75,
          "velocity": 1
        },
        {
          "duration": 0.720833333333303,
          "durationTicks": 692,
          "midi": 98,
          "name": "D7",
          "ticks": 608760,
          "time": 634.125,
          "velocity": 1
        }
      ],
      "endOfTrackTicks": 631680
    }
  ]
}