{
    "header": {
      "keySignatures": [
        {
          "key": "C",
          "scale": "major",
          "ticks": 0
        }
      ],
      "meta": [],
      "name": "",
      "ppq": 120,
      "tempos": [
        {
          "bpm": 173.00040366760857,
          "ticks": 0
        },
        {
          "bpm": 131.00007641671124,
          "ticks": 16320
        },
        {
          "bpm": 108.000108000108,
          "ticks": 19680
        },
        {
          "bpm": 60,
          "ticks": 20160
        }
      ],
      "timeSignatures": [
        {
          "ticks": 0,
          "timeSignature": [
            4,
            4
          ],
          "measures": 0
        }
      ]
    },
    "tracks": [
      {
        "channel": 0,
        "controlChanges": {
          "0": [
            {
              "number": 0,
              "ticks": 0,
              "time": 0,
              "value": 0
            }
          ],
          "1": [
            {
              "number": 1,
              "ticks": 0,
              "time": 0,
              "value": 0
            }
          ],
          "7": [
            {
              "number": 7,
              "ticks": 0,
              "time": 0,
              "value": 0.905511811023622
            }
          ],
          "10": [
            {
              "number": 10,
              "ticks": 0,
              "time": 0,
              "value": 0.31496062992125984
            }
          ],
          "64": [
            {
              "number": 64,
              "ticks": 0,
              "time": 0,
              "value": 0
            }
          ]
        },
        "pitchBends": [
          {
            "ticks": 0,
            "time": 0,
            "value": 0
          }
        ],
        "instrument": {
          "family": "ensemble",
          "number": 48,
          "name": "string ensemble 1"
        },
        "name": "Violin 1",
        "notes": [
          {
            "duration": 0.06069349999999999,
            "durationTicks": 21,
            "midi": 75,
            "name": "D#5",
            "ticks": 0,
            "time": 0,
            "velocity": 1
          },
          {
            "duration": 0.04335249999999999,
            "durationTicks": 15,
            "midi": 70,
            "name": "A#4",
            "ticks": 65,
            "time": 0.1878608333333333,
            "velocity": 1
          },
          {
            "duration": 0.06069350000000001,
            "durationTicks": 21,
            "midi": 70,
            "name": "A#4",
            "ticks": 95,
            "time": 0.2745658333333333,
            "velocity": 1
          },
          {
            "duration": 0.06647383333333334,
            "durationTicks": 23,
            "midi": 75,
            "name": "D#5",
            "ticks": 123,
            "time": 0.35549049999999993,
            "velocity": 1
          },
          {
            "duration": 0.06647383333333334,
            "durationTicks": 23,
            "midi": 77,
            "name": "F5",
            "ticks": 180,
            "time": 0.52023,
            "velocity": 1
          },
          {
            "duration": 0.0635836666666666,
            "durationTicks": 22,
            "midi": 79,
            "name": "G5",
            "ticks": 236,
            "time": 0.6820793333333333,
            "velocity": 1
          },
          {
            "duration": 0.05780333333333321,
            "durationTicks": 20,
            "midi": 77,
            "name": "F5",
            "ticks": 296,
            "time": 0.8554893333333333,
            "velocity": 1
          },
          {
            "duration": 0.05202299999999993,
            "durationTicks": 18,
            "midi": 75,
            "name": "D#5",
            "ticks": 355,
            "time": 1.0260091666666666,
            "velocity": 1
          },
          {
            "duration": 0.0635836666666667,
            "durationTicks": 22,
            "midi": 77,
            "name": "F5",
            "ticks": 415,
            "time": 1.1994191666666665,
            "velocity": 1
          },
          {
            "duration": 0.07514433333333326,
            "durationTicks": 26,
            "midi": 79,
            "name": "G5",
            "ticks": 476,
            "time": 1.3757193333333333,
            "velocity": 1
          },
          {
            "duration": 0.05780333333333343,
            "durationTicks": 20,
            "midi": 75,
            "name": "D#5",
            "ticks": 598,
            "time": 1.7283196666666665,
            "velocity": 1
          },
          {
            "duration": 0.6791891666666663,
            "durationTicks": 235,
            "midi": 75,
            "name": "D#5",
            "ticks": 720,
            "time": 2.08092,
            "velocity": 1
          },
          {
            "duration": 0.05202300000000015,
            "durationTicks": 18,
            "midi": 70,
            "name": "A#4",
            "ticks": 1025,
            "time": 2.962420833333333,
            "velocity": 1
          },
          {
            "duration": 0.05202300000000015,
            "durationTicks": 18,
            "midi": 70,
            "name": "A#4",
            "ticks": 1055,
            "time": 3.0491258333333326,
            "velocity": 1
          },
          {
            "duration": 0.08092466666666676,
            "durationTicks": 28,
            "midi": 75,
            "name": "D#5",
            "ticks": 1081,
            "time": 3.1242701666666663,
            "velocity": 1
          },
          {
            "duration": 0.07225416666666717,
            "durationTicks": 25,
            "midi": 77,
            "name": "F5",
            "ticks": 1140,
            "time": 3.2947899999999994,
            "velocity": 1
          },
          {
            "duration": 0.07225416666666629,
            "durationTicks": 25,
            "midi": 79,
            "name": "G5",
            "ticks": 1195,
            "time": 3.4537491666666664,
            "velocity": 1
          },
          {
            "duration": 0.0635836666666667,
            "durationTicks": 22,
            "midi": 77,
            "name": "F5",
            "ticks": 1253,
            "time": 3.621378833333333,
            "velocity": 1
          },
          {
            "duration": 0.05780333333333365,
            "durationTicks": 20,
            "midi": 75,
            "name": "D#5",
            "ticks": 1310,
            "time": 3.7861183333333326,
            "velocity": 1
          },
          {
            "duration": 0.052022999999999264,
            "durationTicks": 18,
            "midi": 77,
            "name": "F5",
            "ticks": 1367,
            "time": 3.950857833333333,
            "velocity": 1
          },
          {
            "duration": 0.07514433333333326,
            "durationTicks": 26,
            "midi": 79,
            "name": "G5",
            "ticks": 1430,
            "time": 4.132938333333333,
            "velocity": 1
          },
          {
            "duration": 0.06069350000000018,
            "durationTicks": 21,
            "midi": 75,
            "name": "D#5",
            "ticks": 1550,
            "time": 4.479758333333333,
            "velocity": 1
          },
          {
            "duration": 0.6647383333333332,
            "durationTicks": 230,
            "midi": 75,
            "name": "D#5",
            "ticks": 1680,
            "time": 4.855479999999999,
            "velocity": 1
          },
          {
            "duration": 0.0462426666666671,
            "durationTicks": 16,
            "midi": 72,
            "name": "C5",
            "ticks": 1982,
            "time": 5.728310333333332,
            "velocity": 1
          },
          {
            "duration": 0.04335250000000013,
            "durationTicks": 15,
            "midi": 72,
            "name": "C5",
            "ticks": 2012,
            "time": 5.815015333333332,
            "velocity": 1
          },
          {
            "duration": 0.06647383333333323,
            "durationTicks": 23,
            "midi": 77,
            "name": "F5",
            "ticks": 2041,
            "time": 5.898830166666666,
            "velocity": 1
          },
          {
            "duration": 0.06358366666666626,
            "durationTicks": 22,
            "midi": 79,
            "name": "G5",
            "ticks": 2096,
            "time": 6.057789333333332,
            "velocity": 1
          },
          {
            "duration": 0.06358366666666626,
            "durationTicks": 22,
            "midi": 77,
            "name": "F5",
            "ticks": 2155,
            "time": 6.228309166666666,
            "velocity": 1
          },
          {
            "duration": 0.04624266666666621,
            "durationTicks": 16,
            "midi": 72,
            "name": "C5",
            "ticks": 2217,
            "time": 6.4074995,
            "velocity": 1
          },
          {
            "duration": 0.05780333333333321,
            "durationTicks": 20,
            "midi": 68,
            "name": "G#4",
            "ticks": 2270,
            "time": 6.560678333333333,
            "velocity": 1
          },
          {
            "duration": 0.06069350000000018,
            "durationTicks": 21,
            "midi": 72,
            "name": "C5",
            "ticks": 2333,
            "time": 6.742758833333332,
            "velocity": 0.937007874015748
          },
          {
            "duration": 0.08670500000000025,
            "durationTicks": 30,
            "midi": 77,
            "name": "F5",
            "ticks": 2390,
            "time": 6.907498333333333,
            "velocity": 1
          },
          {
            "duration": 0.057803333333334095,
            "durationTicks": 20,
            "midi": 72,
            "name": "C5",
            "ticks": 2455,
            "time": 7.0953591666666656,
            "velocity": 1
          },
          {
            "duration": 0.05780333333333232,
            "durationTicks": 20,
            "midi": 68,
            "name": "G#4",
            "ticks": 2518,
            "time": 7.277439666666666,
            "velocity": 1
          },
          {
            "duration": 0.07803449999999934,
            "durationTicks": 27,
            "midi": 72,
            "name": "C5",
            "ticks": 2570,
            "time": 7.427728333333333,
            "velocity": 1
          },
          {
            "duration": 0.6705186666666672,
            "durationTicks": 232,
            "midi": 77,
            "name": "F5",
            "ticks": 2636,
            "time": 7.618479333333332,
            "velocity": 1
          },
          {
            "duration": 0.01734100000000005,
            "durationTicks": 6,
            "midi": 70,
            "name": "A#4",
            "ticks": 2935,
            "time": 8.482639166666665,
            "velocity": 1
          },
          {
            "duration": 0.04913283333333318,
            "durationTicks": 17,
            "midi": 70,
            "name": "A#4",
            "ticks": 2961,
            "time": 8.5577835,
            "velocity": 0.7795275590551181
          },
          {
            "duration": 0.08670500000000025,
            "durationTicks": 30,
            "midi": 75,
            "name": "D#5",
            "ticks": 2986,
            "time": 8.630037666666665,
            "velocity": 1
          },
          {
            "duration": 0.057803333333334095,
            "durationTicks": 20,
            "midi": 77,
            "name": "F5",
            "ticks": 3045,
            "time": 8.800557499999998,
            "velocity": 0.905511811023622
          },
          {
            "duration": 0.05202300000000015,
            "durationTicks": 18,
            "midi": 75,
            "name": "D#5",
            "ticks": 3106,
            "time": 8.976857666666666,
            "velocity": 1
          },
          {
            "duration": 0.06069349999999929,
            "durationTicks": 21,
            "midi": 70,
            "name": "A#4",
            "ticks": 3170,
            "time": 9.161828333333332,
            "velocity": 1
          },
          {
            "duration": 0.04624266666666621,
            "durationTicks": 16,
            "midi": 67,
            "name": "G4",
            "ticks": 3230,
            "time": 9.335238333333333,
            "velocity": 1
          },
          {
            "duration": 0.0722541666666654,
            "durationTicks": 25,
            "midi": 70,
            "name": "A#4",
            "ticks": 3290,
            "time": 9.508648333333333,
            "velocity": 1
          },
          {
            "duration": 0.07803449999999934,
            "durationTicks": 27,
            "midi": 75,
            "name": "D#5",
            "ticks": 3352,
            "time": 9.687838666666666,
            "velocity": 1
          },
          {
            "duration": 0.057803333333334095,
            "durationTicks": 20,
            "midi": 70,
            "name": "A#4",
            "ticks": 3415,
            "time": 9.869919166666666,
            "velocity": 1
          },
          {
            "duration": 0.05202300000000193,
            "durationTicks": 18,
            "midi": 67,
            "name": "G4",
            "ticks": 3475,
            "time": 10.043329166666664,
            "velocity": 1
          },
          {
            "duration": 0.06647383333333323,
            "durationTicks": 23,
            "midi": 70,
            "name": "A#4",
            "ticks": 3530,
            "time": 10.202288333333332,
            "velocity": 0.8740157480314961
          },
          {
            "duration": 0.7080908333333351,
            "durationTicks": 245,
            "midi": 75,
            "name": "D#5",
            "ticks": 3593,
            "time": 10.384368833333331,
            "velocity": 1
          },
          {
            "duration": 0.04335249999999924,
            "durationTicks": 15,
            "midi": 70,
            "name": "A#4",
            "ticks": 3895,
            "time": 11.257199166666666,
            "velocity": 1
          },
          {
            "duration": 0.046242666666667986,
            "durationTicks": 16,
            "midi": 70,
            "name": "A#4",
            "ticks": 3923,
            "time": 11.338123833333333,
            "velocity": 1
          },
          {
            "duration": 0.08092466666666454,
            "durationTicks": 28,
            "midi": 75,
            "name": "D#5",
            "ticks": 3953,
            "time": 11.424828833333333,
            "velocity": 1
          },
          {
            "duration": 0.07225416666666717,
            "durationTicks": 25,
            "midi": 77,
            "name": "F5",
            "ticks": 4012,
            "time": 11.595348666666665,
            "velocity": 1
          },
          {
            "duration": 0.06647383333333501,
            "durationTicks": 23,
            "midi": 79,
            "name": "G5",
            "ticks": 4070,
            "time": 11.762978333333331,
            "velocity": 1
          },
          {
            "duration": 0.07225416666666717,
            "durationTicks": 25,
            "midi": 77,
            "name": "F5",
            "ticks": 4128,
            "time": 11.930607999999998,
            "velocity": 1
          },
          {
            "duration": 0.06647383333333323,
            "durationTicks": 23,
            "midi": 75,
            "name": "D#5",
            "ticks": 4185,
            "time": 12.095347499999999,
            "velocity": 1
          },
          {
            "duration": 0.08670500000000025,
            "durationTicks": 30,
            "midi": 77,
            "name": "F5",
            "ticks": 4245,
            "time": 12.268757499999998,
            "velocity": 1
          },
          {
            "duration": 0.08092466666666631,
            "durationTicks": 28,
            "midi": 79,
            "name": "G5",
            "ticks": 4310,
            "time": 12.456618333333331,
            "velocity": 1
          },
          {
            "duration": 0.08092466666666809,
            "durationTicks": 28,
            "midi": 75,
            "name": "D#5",
            "ticks": 4426,
            "time": 12.791877666666664,
            "velocity": 1
          },
          {
            "duration": 0.7398826666666665,
            "durationTicks": 256,
            "midi": 75,
            "name": "D#5",
            "ticks": 4550,
            "time": 13.150258333333332,
            "velocity": 1
          },
          {
            "duration": 0.06358366666666804,
            "durationTicks": 22,
            "midi": 70,
            "name": "A#4",
            "ticks": 4851,
            "time": 14.020198499999998,
            "velocity": 1
          },
          {
            "duration": 0.07225416666666717,
            "durationTicks": 25,
            "midi": 70,
            "name": "A#4",
            "ticks": 4882,
            "time": 14.109793666666665,
            "velocity": 1
          },
          {
            "duration": 0.08092466666666631,
            "durationTicks": 28,
            "midi": 75,
            "name": "D#5",
            "ticks": 4911,
            "time": 14.193608499999998,
            "velocity": 0.968503937007874
          },
          {
            "duration": 0.07225416666666717,
            "durationTicks": 25,
            "midi": 77,
            "name": "F5",
            "ticks": 4970,
            "time": 14.364128333333332,
            "velocity": 1
          },
          {
            "duration": 0.06358366666666804,
            "durationTicks": 22,
            "midi": 79,
            "name": "G5",
            "ticks": 5030,
            "time": 14.53753833333333,
            "velocity": 1
          },
          {
            "duration": 0.06647383333333501,
            "durationTicks": 23,
            "midi": 77,
            "name": "F5",
            "ticks": 5087,
            "time": 14.702277833333332,
            "velocity": 1
          },
          {
            "duration": 0.05780333333333232,
            "durationTicks": 20,
            "midi": 75,
            "name": "D#5",
            "ticks": 5146,
            "time": 14.872797666666665,
            "velocity": 1
          },
          {
            "duration": 0.07225416666666717,
            "durationTicks": 25,
            "midi": 77,
            "name": "F5",
            "ticks": 5205,
            "time": 15.043317499999999,
            "velocity": 1
          },
          {
            "duration": 0.07225416666666717,
            "durationTicks": 25,
            "midi": 79,
            "name": "G5",
            "ticks": 5270,
            "time": 15.23117833333333,
            "velocity": 1
          },
          {
            "duration": 0.07225416666666717,
            "durationTicks": 25,
            "midi": 75,
            "name": "D#5",
            "ticks": 5386,
            "time": 15.566437666666666,
            "velocity": 1
          },
          {
            "duration": 0.7109809999999985,
            "durationTicks": 246,
            "midi": 75,
            "name": "D#5",
            "ticks": 5513,
            "time": 15.933488833333334,
            "velocity": 1
          },
          {
            "duration": 0.043352500000001015,
            "durationTicks": 15,
            "midi": 72,
            "name": "C5",
            "ticks": 5812,
            "time": 16.797648666666664,
            "velocity": 1
          },
          {
            "duration": 0.049132833333331405,
            "durationTicks": 17,
            "midi": 72,
            "name": "C5",
            "ticks": 5840,
            "time": 16.878573333333332,
            "velocity": 1
          },
          {
            "duration": 0.07514433333333415,
            "durationTicks": 26,
            "midi": 77,
            "name": "F5",
            "ticks": 5871,
            "time": 16.968168499999997,
            "velocity": 1
          },
          {
            "duration": 0.07803450000000112,
            "durationTicks": 27,
            "midi": 79,
            "name": "G5",
            "ticks": 5926,
            "time": 17.127127666666663,
            "velocity": 1
          },
          {
            "duration": 0.07225416666666717,
            "durationTicks": 25,
            "midi": 77,
            "name": "F5",
            "ticks": 5987,
            "time": 17.30342783333333,
            "velocity": 1
          },
          {
            "duration": 0.05202300000000193,
            "durationTicks": 18,
            "midi": 72,
            "name": "C5",
            "ticks": 6050,
            "time": 17.485508333333332,
            "velocity": 1
          },
          {
            "duration": 0.05780333333333232,
            "durationTicks": 20,
            "midi": 68,
            "name": "G#4",
            "ticks": 6105,
            "time": 17.644467499999998,
            "velocity": 1
          },
          {
            "duration": 0.07514433333333415,
            "durationTicks": 26,
            "midi": 72,
            "name": "C5",
            "ticks": 6167,
            "time": 17.823657833333332,
            "velocity": 1
          },
          {
            "duration": 0.08092466666666809,
            "durationTicks": 28,
            "midi": 77,
            "name": "F5",
            "ticks": 6231,
            "time": 18.008628499999997,
            "velocity": 1
          },
          {
            "duration": 0.052022999999998376,
            "durationTicks": 18,
            "midi": 72,
            "name": "C5",
            "ticks": 6298,
            "time": 18.202269666666666,
            "velocity": 0.968503937007874
          },
          {
            "duration": 0.05780333333333232,
            "durationTicks": 20,
            "midi": 68,
            "name": "G#4",
            "ticks": 6355,
            "time": 18.367009166666666,
            "velocity": 1
          },
          {
            "duration": 0.08092466666666809,
            "durationTicks": 28,
            "midi": 72,
            "name": "C5",
            "ticks": 6407,
            "time": 18.51729783333333,
            "velocity": 0.905511811023622
          },
          {
            "duration": 0.6358366666666662,
            "durationTicks": 220,
            "midi": 77,
            "name": "F5",
            "ticks": 6480,
            "time": 18.728279999999998,
            "velocity": 1
          },
          {
            "duration": 0.02890166666666616,
            "durationTicks": 10,
            "midi": 70,
            "name": "A#4",
            "ticks": 6771,
            "time": 19.569318499999998,
            "velocity": 1
          },
          {
            "duration": 0.049132833333331405,
            "durationTicks": 17,
            "midi": 70,
            "name": "A#4",
            "ticks": 6803,
            "time": 19.661803833333334,
            "velocity": 1
          },
          {
            "duration": 0.07225416666666717,
            "durationTicks": 25,
            "midi": 75,
            "name": "D#5",
            "ticks": 6825,
            "time": 19.725387499999997,
            "velocity": 1
          },
          {
            "duration": 0.06358366666666271,
            "durationTicks": 22,
            "midi": 77,
            "name": "F5",
            "ticks": 6882,
            "time": 19.890127,
            "velocity": 0.905511811023622
          },
          {
            "duration": 0.07514433333333059,
            "durationTicks": 26,
            "midi": 75,
            "name": "D#5",
            "ticks": 6941,
            "time": 20.060646833333333,
            "velocity": 1
          },
          {
            "duration": 0.06069349999999929,
            "durationTicks": 21,
            "midi": 70,
            "name": "A#4",
            "ticks": 7003,
            "time": 20.239837166666664,
            "velocity": 1
          },
          {
            "duration": 0.06069349999999929,
            "durationTicks": 21,
            "midi": 67,
            "name": "G4",
            "ticks": 7060,
            "time": 20.404576666666664,
            "velocity": 0.937007874015748
          },
          {
            "duration": 0.06358366666666626,
            "durationTicks": 22,
            "midi": 70,
            "name": "A#4",
            "ticks": 7123,
            "time": 20.586657166666665,
            "velocity": 1
          },
          {
            "duration": 0.089595166666669,
            "durationTicks": 31,
            "midi": 75,
            "name": "D#5",
            "ticks": 7185,
            "time": 20.765847499999996,
            "velocity": 1
          },
          {
            "duration": 0.06358366666666981,
            "durationTicks": 22,
            "midi": 72,
            "name": "C5",
            "ticks": 7246,
            "time": 20.942147666666663,
            "velocity": 1
          },
          {
            "duration": 0.06647383333333678,
            "durationTicks": 23,
            "midi": 67,
            "name": "G4",
            "ticks": 7305,
            "time": 21.112667499999997,
            "velocity": 0.905511811023622
          },
          {
            "duration": 0.06069349999999929,
            "durationTicks": 21,
            "midi": 72,
            "name": "C5",
            "ticks": 7368,
            "time": 21.294748,
            "velocity": 1
          },
          {
            "duration": 0.7427728333333334,
            "durationTicks": 257,
            "midi": 75,
            "name": "D#5",
            "ticks": 7431,
            "time": 21.476828499999996,
            "velocity": 1
          },
          {
            "duration": 0.06647383333332968,
            "durationTicks": 23,
            "midi": 72,
            "name": "C5",
            "ticks": 7786,
            "time": 22.502837666666668,
            "velocity": 1
          },
          {
            "duration": 0.04913283333333496,
            "durationTicks": 17,
            "midi": 72,
            "name": "C5",
            "ticks": 7828,
            "time": 22.624224666666663,
            "velocity": 1
          },
          {
            "duration": 0.046242666666664434,
            "durationTicks": 16,
            "midi": 72,
            "name": "C5",
            "ticks": 7861,
            "time": 22.719600166666666,
            "velocity": 0.8110236220472441
          },
          {
            "duration": 0.395952833333336,
            "durationTicks": 137,
            "midi": 75,
            "name": "D#5",
            "ticks": 7907,
            "time": 22.85254783333333,
            "velocity": 1
          },
          {
            "duration": 0.07803450000000467,
            "durationTicks": 27,
            "midi": 72,
            "name": "C5",
            "ticks": 8033,
            "time": 23.21670883333333,
            "velocity": 1
          },
          {
            "duration": 0.06069349999999574,
            "durationTicks": 21,
            "midi": 70,
            "name": "A#4",
            "ticks": 8267,
            "time": 23.893007833333332,
            "velocity": 1
          },
          {
            "duration": 0.043352500000001015,
            "durationTicks": 15,
            "midi": 70,
            "name": "A#4",
            "ticks": 8310,
            "time": 24.017284999999998,
            "velocity": 1
          },
          {
            "duration": 0.08670500000000203,
            "durationTicks": 30,
            "midi": 70,
            "name": "A#4",
            "ticks": 8345,
            "time": 24.11844083333333,
            "velocity": 0.968503937007874
          },
          {
            "duration": 0.3641609999999993,
            "durationTicks": 126,
            "midi": 74,
            "name": "D5",
            "ticks": 8393,
            "time": 24.257168833333328,
            "velocity": 1
          },
          {
            "duration": 0.08670499999999848,
            "durationTicks": 30,
            "midi": 70,
            "name": "A#4",
            "ticks": 8512,
            "time": 24.601098666666665,
            "velocity": 1
          },
          {
            "duration": 0.06358366666666626,
            "durationTicks": 22,
            "midi": 70,
            "name": "A#4",
            "ticks": 8751,
            "time": 25.291848499999997,
            "velocity": 1
          },
          {
            "duration": 0.05202300000000193,
            "durationTicks": 18,
            "midi": 70,
            "name": "A#4",
            "ticks": 8790,
            "time": 25.404564999999998,
            "velocity": 1
          },
          {
            "duration": 0.08959516666666545,
            "durationTicks": 31,
            "midi": 70,
            "name": "A#4",
            "ticks": 8827,
            "time": 25.511501166666665,
            "velocity": 1
          },
          {
            "duration": 0.08670500000000203,
            "durationTicks": 30,
            "midi": 73,
            "name": "C#5",
            "ticks": 8870,
            "time": 25.63577833333333,
            "velocity": 1
          },
          {
            "duration": 0.017340999999998274,
            "durationTicks": 6,
            "midi": 70,
            "name": "A#4",
            "ticks": 8872,
            "time": 25.641558666666665,
            "velocity": 0.4645669291338583
          },
          {
            "duration": 0.10115583333332978,
            "durationTicks": 35,
            "midi": 72,
            "name": "C5",
            "ticks": 8986,
            "time": 25.971037666666668,
            "velocity": 1
          },
          {
            "duration": 0.09248533333333242,
            "durationTicks": 32,
            "midi": 75,
            "name": "D#5",
            "ticks": 9098,
            "time": 26.29473633333333,
            "velocity": 1
          },
          {
            "duration": 0.07803449999999756,
            "durationTicks": 27,
            "midi": 74,
            "name": "D5",
            "ticks": 9223,
            "time": 26.656007166666665,
            "velocity": 1
          },
          {
            "duration": 0.08959516666666545,
            "durationTicks": 31,
            "midi": 77,
            "name": "F5",
            "ticks": 9348,
            "time": 27.017277999999997,
            "velocity": 1
          },
          {
            "duration": 0.07514433333333415,
            "durationTicks": 26,
            "midi": 75,
            "name": "D#5",
            "ticks": 9473,
            "time": 27.37854883333333,
            "velocity": 1
          },
          {
            "duration": 0.16762966666666657,
            "durationTicks": 58,
            "midi": 82,
            "name": "A#5",
            "ticks": 9596,
            "time": 27.73403933333333,
            "velocity": 1
          },
          {
            "duration": 0.09248533333333242,
            "durationTicks": 32,
            "midi": 81,
            "name": "A5",
            "ticks": 9686,
            "time": 27.99415433333333,
            "velocity": 0.968503937007874
          },
          {
            "duration": 0.08959516666666545,
            "durationTicks": 31,
            "midi": 80,
            "name": "G#5",
            "ticks": 9768,
            "time": 28.231147999999997,
            "velocity": 1
          },
          {
            "duration": 0.0895951666666619,
            "durationTicks": 31,
            "midi": 79,
            "name": "G5",
            "ticks": 9853,
            "time": 28.476812166666665,
            "velocity": 1
          },
          {
            "duration": 0.09248533333333242,
            "durationTicks": 32,
            "midi": 78,
            "name": "F#5",
            "ticks": 9936,
            "time": 28.716695999999995,
            "velocity": 1
          },
          {
            "duration": 0.08670499999999848,
            "durationTicks": 30,
            "midi": 77,
            "name": "F5",
            "ticks": 10010,
            "time": 28.930568333333333,
            "velocity": 1
          },
          {
            "duration": 0.10115583333332978,
            "durationTicks": 35,
            "midi": 76,
            "name": "E5",
            "ticks": 10081,
            "time": 29.135770166666667,
            "velocity": 1
          },
          {
            "duration": 0.08670499999999848,
            "durationTicks": 30,
            "midi": 75,
            "name": "D#5",
            "ticks": 10160,
            "time": 29.364093333333333,
            "velocity": 1
          },
          {
            "duration": 0.08670500000000203,
            "durationTicks": 30,
            "midi": 74,
            "name": "D5",
            "ticks": 10235,
            "time": 29.58085583333333,
            "velocity": 1
          },
          {
            "duration": 0.0895951666666619,
            "durationTicks": 31,
            "midi": 73,
            "name": "C#5",
            "ticks": 10318,
            "time": 29.820739666666665,
            "velocity": 1
          },
          {
            "duration": 0.08092466666666809,
            "durationTicks": 28,
            "midi": 72,
            "name": "C5",
            "ticks": 10395,
            "time": 30.043282499999997,
            "velocity": 1
          },
          {
            "duration": 0.09537549999999584,
            "durationTicks": 33,
            "midi": 71,
            "name": "B4",
            "ticks": 10475,
            "time": 30.274495833333333,
            "velocity": 0.8740157480314961
          },
          {
            "duration": 0.01734100000000538,
            "durationTicks": 6,
            "midi": 72,
            "name": "C5",
            "ticks": 10480,
            "time": 30.28894666666666,
            "velocity": 0.7795275590551181
          },
          {
            "duration": 0.10115583333333333,
            "durationTicks": 35,
            "midi": 70,
            "name": "A#4",
            "ticks": 10560,
            "time": 30.520159999999997,
            "velocity": 1
          },
          {
            "duration": 0.09537549999999584,
            "durationTicks": 33,
            "midi": 71,
            "name": "B4",
            "ticks": 10796,
            "time": 31.20223933333333,
            "velocity": 1
          },
          {
            "duration": 0.12138699999999503,
            "durationTicks": 42,
            "midi": 72,
            "name": "C5",
            "ticks": 11040,
            "time": 31.907439999999998,
            "velocity": 1
          },
          {
            "duration": 0.11560666666666464,
            "durationTicks": 40,
            "midi": 74,
            "name": "D5",
            "ticks": 11280,
            "time": 32.601079999999996,
            "velocity": 1
          },
          {
            "duration": 0.13583783333333344,
            "durationTicks": 47,
            "midi": 75,
            "name": "D#5",
            "ticks": 11513,
            "time": 33.27448883333333,
            "velocity": 1
          },
          {
            "duration": 0.10115583333332978,
            "durationTicks": 35,
            "midi": 77,
            "name": "F5",
            "ticks": 11751,
            "time": 33.9623485,
            "velocity": 1
          },
          {
            "duration": 0.08670500000000203,
            "durationTicks": 30,
            "midi": 74,
            "name": "D5",
            "ticks": 11873,
            "time": 34.314948833333325,
            "velocity": 1
          },
          {
            "duration": 0.09248533333333597,
            "durationTicks": 32,
            "midi": 75,
            "name": "D#5",
            "ticks": 11993,
            "time": 34.661768833333326,
            "velocity": 1
          },
          {
            "duration": 0.07803450000000112,
            "durationTicks": 27,
            "midi": 77,
            "name": "F5",
            "ticks": 12235,
            "time": 35.36118916666666,
            "velocity": 1
          },
          {
            "duration": 0.07514433333333415,
            "durationTicks": 26,
            "midi": 74,
            "name": "D5",
            "ticks": 12350,
            "time": 35.69355833333333,
            "velocity": 1
          },
          {
            "duration": 0.08670500000000203,
            "durationTicks": 30,
            "midi": 75,
            "name": "D#5",
            "ticks": 12470,
            "time": 36.04037833333333,
            "velocity": 1
          },
          {
            "duration": 0.07225416666666717,
            "durationTicks": 25,
            "midi": 74,
            "name": "D5",
            "ticks": 12590,
            "time": 36.38719833333333,
            "velocity": 1
          },
          {
            "duration": 0.08092466666666098,
            "durationTicks": 28,
            "midi": 75,
            "name": "D#5",
            "ticks": 12706,
            "time": 36.722457666666664,
            "velocity": 1
          },
          {
            "duration": 0.07803450000000112,
            "durationTicks": 27,
            "midi": 74,
            "name": "D5",
            "ticks": 12826,
            "time": 37.069277666666665,
            "velocity": 1
          },
          {
            "duration": 0.08670500000000203,
            "durationTicks": 30,
            "midi": 75,
            "name": "D#5",
            "ticks": 12941,
            "time": 37.40164683333333,
            "velocity": 1
          },
          {
            "duration": 0.07225416666666007,
            "durationTicks": 25,
            "midi": 74,
            "name": "D5",
            "ticks": 13061,
            "time": 37.74846683333333,
            "velocity": 1
          },
          {
            "duration": 0.08670499999999493,
            "durationTicks": 30,
            "midi": 75,
            "name": "D#5",
            "ticks": 13186,
            "time": 38.10973766666667,
            "velocity": 1
          },
          {
            "duration": 0.07225416666666717,
            "durationTicks": 25,
            "midi": 74,
            "name": "D5",
            "ticks": 13310,
            "time": 38.46811833333333,
            "velocity": 1
          },
          {
            "duration": 0.08670500000000203,
            "durationTicks": 30,
            "midi": 75,
            "name": "D#5",
            "ticks": 13430,
            "time": 38.81493833333333,
            "velocity": 1
          },
          {
            "duration": 0.07514433333333415,
            "durationTicks": 26,
            "midi": 74,
            "name": "D5",
            "ticks": 13550,
            "time": 39.16175833333333,
            "velocity": 1
          },
          {
            "duration": 0.08092466666666809,
            "durationTicks": 28,
            "midi": 75,
            "name": "D#5",
            "ticks": 13670,
            "time": 39.50857833333333,
            "velocity": 1
          },
          {
            "duration": 0.07225416666667428,
            "durationTicks": 25,
            "midi": 74,
            "name": "D5",
            "ticks": 13791,
            "time": 39.85828849999999,
            "velocity": 1
          },
          {
            "duration": 0.08670499999999493,
            "durationTicks": 30,
            "midi": 75,
            "name": "D#5",
            "ticks": 13915,
            "time": 40.21666916666666,
            "velocity": 1
          },
          {
            "duration": 0.08092466666666098,
            "durationTicks": 28,
            "midi": 74,
            "name": "D5",
            "ticks": 14035,
            "time": 40.56348916666666,
            "velocity": 1
          },
          {
            "duration": 0.10115583333332978,
            "durationTicks": 35,
            "midi": 75,
            "name": "D#5",
            "ticks": 14158,
            "time": 40.918979666666665,
            "velocity": 1
          },
          {
            "duration": 0.07225416666666717,
            "durationTicks": 25,
            "midi": 74,
            "name": "D5",
            "ticks": 14280,
            "time": 41.27157999999999,
            "velocity": 1
          },
          {
            "duration": 0.11560666666666464,
            "durationTicks": 40,
            "midi": 75,
            "name": "D#5",
            "ticks": 14400,
            "time": 41.618399999999994,
            "velocity": 1
          },
          {
            "duration": 0.089595166666669,
            "durationTicks": 31,
            "midi": 79,
            "name": "G5",
            "ticks": 14880,
            "time": 43.00568,
            "velocity": 1
          },
          {
            "duration": 0.1589591666666621,
            "durationTicks": 55,
            "midi": 75,
            "name": "D#5",
            "ticks": 15355,
            "time": 44.37850916666666,
            "velocity": 1
          },
          {
            "duration": 0.18208049999999787,
            "durationTicks": 63,
            "midi": 67,
            "name": "G4",
            "ticks": 15355,
            "time": 44.37850916666666,
            "velocity": 1
          },
          {
            "duration": 0.1589591666666621,
            "durationTicks": 55,
            "midi": 58,
            "name": "A#3",
            "ticks": 15355,
            "time": 44.37850916666666,
            "velocity": 1
          },
          {
            "duration": 0.16184933333333618,
            "durationTicks": 56,
            "midi": 51,
            "name": "D#3",
            "ticks": 15356,
            "time": 44.38139933333333,
            "velocity": 0.968503937007874
          },
          {
            "duration": 0.167629666666663,
            "durationTicks": 58,
            "midi": 67,
            "name": "G4",
            "ticks": 15836,
            "time": 45.76867933333333,
            "velocity": 1
          },
          {
            "duration": 0.15317883333333526,
            "durationTicks": 53,
            "midi": 58,
            "name": "A#3",
            "ticks": 15837,
            "time": 45.77156949999999,
            "velocity": 1
          },
          {
            "duration": 0.17630016666667103,
            "durationTicks": 61,
            "midi": 51,
            "name": "D#3",
            "ticks": 15838,
            "time": 45.77445966666666,
            "velocity": 1
          },
          {
            "duration": 0.2196526666666756,
            "durationTicks": 76,
            "midi": 43,
            "name": "G2",
            "ticks": 15838,
            "time": 45.77445966666666,
            "velocity": 0.937007874015748
          },
          {
            "duration": 0.38364270833334047,
            "durationTicks": 101,
            "midi": 46,
            "name": "A#2",
            "ticks": 16318,
            "time": 47.161739666666655,
            "velocity": 1
          },
          {
            "duration": 0.3435112499999988,
            "durationTicks": 90,
            "midi": 63,
            "name": "D#4",
            "ticks": 16320,
            "time": 47.167519999999996,
            "velocity": 1
          },
          {
            "duration": 0.3625952083333317,
            "durationTicks": 95,
            "midi": 55,
            "name": "G3",
            "ticks": 16320,
            "time": 47.167519999999996,
            "velocity": 1
          },
          {
            "duration": 0.5229004583333321,
            "durationTicks": 137,
            "midi": 63,
            "name": "D#4",
            "ticks": 16536,
            "time": 47.991946999999996,
            "velocity": 1
          },
          {
            "duration": 0.5610683749999978,
            "durationTicks": 147,
            "midi": 55,
            "name": "G3",
            "ticks": 16536,
            "time": 47.991946999999996,
            "velocity": 1
          },
          {
            "duration": 0.09541979166666437,
            "durationTicks": 25,
            "midi": 63,
            "name": "D#4",
            "ticks": 16720,
            "time": 48.69423666666666,
            "velocity": 1
          },
          {
            "duration": 0.0763358333333315,
            "durationTicks": 20,
            "midi": 55,
            "name": "G3",
            "ticks": 16720,
            "time": 48.69423666666666,
            "velocity": 1
          },
          {
            "duration": 0.564885166666663,
            "durationTicks": 148,
            "midi": 67,
            "name": "G4",
            "ticks": 16780,
            "time": 48.92324416666666,
            "velocity": 1
          },
          {
            "duration": 0.5381676249999998,
            "durationTicks": 141,
            "midi": 58,
            "name": "A#3",
            "ticks": 16780,
            "time": 48.92324416666666,
            "velocity": 1
          },
          {
            "duration": 0.7442743749999963,
            "durationTicks": 195,
            "midi": 70,
            "name": "A#4",
            "ticks": 17010,
            "time": 49.80110625,
            "velocity": 1
          },
          {
            "duration": 0.7251904166666705,
            "durationTicks": 190,
            "midi": 63,
            "name": "D#4",
            "ticks": 17011,
            "time": 49.80492304166666,
            "velocity": 1
          },
          {
            "duration": 0.9580147083333372,
            "durationTicks": 251,
            "midi": 75,
            "name": "D#5",
            "ticks": 17260,
            "time": 50.75530416666666,
            "velocity": 1
          },
          {
            "duration": 0.9732818749999979,
            "durationTicks": 255,
            "midi": 58,
            "name": "A#3",
            "ticks": 17260,
            "time": 50.75530416666666,
            "velocity": 1
          },
          {
            "duration": 0.9770986666666701,
            "durationTicks": 256,
            "midi": 67,
            "name": "G4",
            "ticks": 17260,
            "time": 50.75530416666666,
            "velocity": 1
          },
          {
            "duration": 0.996182625000003,
            "durationTicks": 261,
            "midi": 55,
            "name": "G3",
            "ticks": 17757,
            "time": 52.652249624999996,
            "velocity": 0.937007874015748
          },
          {
            "duration": 0.9656482916666604,
            "durationTicks": 253,
            "midi": 79,
            "name": "G5",
            "ticks": 17760,
            "time": 52.6637,
            "velocity": 1
          },
          {
            "duration": 0.9427475416666624,
            "durationTicks": 247,
            "midi": 63,
            "name": "D#4",
            "ticks": 17760,
            "time": 52.6637,
            "velocity": 1
          },
          {
            "duration": 0.9732818749999979,
            "durationTicks": 255,
            "midi": 70,
            "name": "A#4",
            "ticks": 17760,
            "time": 52.6637,
            "velocity": 1
          },
          {
            "duration": 1.1679382499999988,
            "durationTicks": 306,
            "midi": 63,
            "name": "D#4",
            "ticks": 18233,
            "time": 54.46904245833333,
            "velocity": 1
          },
          {
            "duration": 0.08778620833334116,
            "durationTicks": 23,
            "midi": 63,
            "name": "D#4",
            "ticks": 18567,
            "time": 55.74385087499999,
            "velocity": 1
          },
          {
            "duration": 0.12213733333334176,
            "durationTicks": 32,
            "midi": 65,
            "name": "F4",
            "ticks": 18596,
            "time": 55.854537833333325,
            "velocity": 1
          },
          {
            "duration": 0.1526716666666701,
            "durationTicks": 40,
            "midi": 67,
            "name": "G4",
            "ticks": 18622,
            "time": 55.95377441666666,
            "velocity": 1
          },
          {
            "duration": 0.08015262499999665,
            "durationTicks": 21,
            "midi": 68,
            "name": "G#4",
            "ticks": 18647,
            "time": 56.04919420833333,
            "velocity": 1
          },
          {
            "duration": 0.06488545833333603,
            "durationTicks": 17,
            "midi": 70,
            "name": "A#4",
            "ticks": 18658,
            "time": 56.091178916666664,
            "velocity": 1
          },
          {
            "duration": 0.10687016666665983,
            "durationTicks": 28,
            "midi": 72,
            "name": "C5",
            "ticks": 18680,
            "time": 56.17514833333333,
            "velocity": 1
          },
          {
            "duration": 0.13358770833333722,
            "durationTicks": 35,
            "midi": 74,
            "name": "D5",
            "ticks": 18705,
            "time": 56.270568125,
            "velocity": 1
          },
          {
            "duration": 1.0687016666666693,
            "durationTicks": 280,
            "midi": 75,
            "name": "D#5",
            "ticks": 18730,
            "time": 56.36598791666666,
            "velocity": 1
          },
          {
            "duration": 0.0763358333333315,
            "durationTicks": 20,
            "midi": 75,
            "name": "D#5",
            "ticks": 19053,
            "time": 57.598811624999996,
            "velocity": 1
          },
          {
            "duration": 0.10687016666666693,
            "durationTicks": 28,
            "midi": 77,
            "name": "F5",
            "ticks": 19080,
            "time": 57.701865,
            "velocity": 1
          },
          {
            "duration": 0.13740449999999527,
            "durationTicks": 36,
            "midi": 79,
            "name": "G5",
            "ticks": 19103,
            "time": 57.78965120833333,
            "velocity": 1
          },
          {
            "duration": 0.0839694166666618,
            "durationTicks": 22,
            "midi": 80,
            "name": "G#5",
            "ticks": 19126,
            "time": 57.877437416666666,
            "velocity": 1
          },
          {
            "duration": 0.057251875000005725,
            "durationTicks": 15,
            "midi": 82,
            "name": "A#5",
            "ticks": 19140,
            "time": 57.93087249999999,
            "velocity": 1
          },
          {
            "duration": 0.1183205416666695,
            "durationTicks": 31,
            "midi": 84,
            "name": "C6",
            "ticks": 19160,
            "time": 58.00720833333333,
            "velocity": 1
          },
          {
            "duration": 0.13740450000000237,
            "durationTicks": 36,
            "midi": 86,
            "name": "D6",
            "ticks": 19183,
            "time": 58.094994541666665,
            "velocity": 1
          },
          {
            "duration": 0.45801500000000317,
            "durationTicks": 120,
            "midi": 87,
            "name": "D#6",
            "ticks": 19210,
            "time": 58.19804791666666,
            "velocity": 1
          },
          {
            "duration": 1.2489385416666678,
            "durationTicks": 271,
            "midi": 63,
            "name": "D#4",
            "ticks": 19673,
            "time": 59.96522245833333,
            "velocity": 1
          },
          {
            "duration": 0.21296275000000264,
            "durationTicks": 46,
            "midi": 63,
            "name": "D#4",
            "ticks": 20030,
            "time": 61.61230875,
            "velocity": 1
          },
          {
            "duration": 4.000000000000007,
            "durationTicks": 480,
            "midi": 63,
            "name": "D#4",
            "ticks": 20166,
            "time": 62.26416,
            "velocity": 1
          }
        ],
        "endOfTrackTicks": 20646
      },
      {
        "channel": 1,
        "controlChanges": {
          "0": [
            {
              "number": 0,
              "ticks": 0,
              "time": 0,
              "value": 0
            }
          ],
          "1": [
            {
              "number": 1,
              "ticks": 0,
              "time": 0,
              "value": 0
            }
          ],
          "7": [
            {
              "number": 7,
              "ticks": 0,
              "time": 0,
              "value": 0.905511811023622
            }
          ],
          "10": [
            {
              "number": 10,
              "ticks": 0,
              "time": 0,
              "value": 0.31496062992125984
            }
          ],
          "64": [
            {
              "number": 64,
              "ticks": 0,
              "time": 0,
              "value": 0
            }
          ]
        },
        "pitchBends": [
          {
            "ticks": 0,
            "time": 0,
            "value": 0
          }
        ],
        "instrument": {
          "family": "ensemble",
          "number": 48,
          "name": "string ensemble 1"
        },
        "name": "Violin 2",
        "notes": [
          {
            "duration": 0.043352499999999995,
            "durationTicks": 15,
            "midi": 63,
            "name": "D#4",
            "ticks": 0,
            "time": 0,
            "velocity": 0.905511811023622
          },
          {
            "duration": 0.04335249999999999,
            "durationTicks": 15,
            "midi": 67,
            "name": "G4",
            "ticks": 65,
            "time": 0.1878608333333333,
            "velocity": 1
          },
          {
            "duration": 0.04624266666666671,
            "durationTicks": 16,
            "midi": 67,
            "name": "G4",
            "ticks": 95,
            "time": 0.2745658333333333,
            "velocity": 0.968503937007874
          },
          {
            "duration": 0.06069350000000001,
            "durationTicks": 21,
            "midi": 67,
            "name": "G4",
            "ticks": 123,
            "time": 0.35549049999999993,
            "velocity": 1
          },
          {
            "duration": 0.0635836666666666,
            "durationTicks": 22,
            "midi": 70,
            "name": "A#4",
            "ticks": 180,
            "time": 0.52023,
            "velocity": 1
          },
          {
            "duration": 0.05202299999999993,
            "durationTicks": 18,
            "midi": 75,
            "name": "D#5",
            "ticks": 237,
            "time": 0.6849695,
            "velocity": 1
          },
          {
            "duration": 0.046242666666666654,
            "durationTicks": 16,
            "midi": 70,
            "name": "A#4",
            "ticks": 295,
            "time": 0.8525991666666666,
            "velocity": 0.905511811023622
          },
          {
            "duration": 0.05780333333333343,
            "durationTicks": 20,
            "midi": 67,
            "name": "G4",
            "ticks": 356,
            "time": 1.0288993333333332,
            "velocity": 0.937007874015748
          },
          {
            "duration": 0.07225416666666651,
            "durationTicks": 25,
            "midi": 70,
            "name": "A#4",
            "ticks": 416,
            "time": 1.2023093333333332,
            "velocity": 1
          },
          {
            "duration": 0.06647383333333323,
            "durationTicks": 23,
            "midi": 75,
            "name": "D#5",
            "ticks": 480,
            "time": 1.3872799999999998,
            "velocity": 1
          },
          {
            "duration": 0.06647383333333323,
            "durationTicks": 23,
            "midi": 67,
            "name": "G4",
            "ticks": 600,
            "time": 1.7340999999999998,
            "velocity": 0.937007874015748
          },
          {
            "duration": 0.6213858333333331,
            "durationTicks": 215,
            "midi": 67,
            "name": "G4",
            "ticks": 720,
            "time": 2.08092,
            "velocity": 1
          },
          {
            "duration": 0.04335250000000013,
            "durationTicks": 15,
            "midi": 67,
            "name": "G4",
            "ticks": 1012,
            "time": 2.924848666666666,
            "velocity": 1
          },
          {
            "duration": 0.03757216666666663,
            "durationTicks": 13,
            "midi": 67,
            "name": "G4",
            "ticks": 1045,
            "time": 3.0202241666666665,
            "velocity": 0.7165354330708661
          },
          {
            "duration": 0.060693499999999734,
            "durationTicks": 21,
            "midi": 67,
            "name": "G4",
            "ticks": 1068,
            "time": 3.0866979999999997,
            "velocity": 0.968503937007874
          },
          {
            "duration": 0.05780333333333321,
            "durationTicks": 20,
            "midi": 70,
            "name": "A#4",
            "ticks": 1135,
            "time": 3.2803391666666664,
            "velocity": 1
          },
          {
            "duration": 0.04913283333333318,
            "durationTicks": 17,
            "midi": 75,
            "name": "D#5",
            "ticks": 1196,
            "time": 3.456639333333333,
            "velocity": 1
          },
          {
            "duration": 0.05780333333333321,
            "durationTicks": 20,
            "midi": 70,
            "name": "A#4",
            "ticks": 1255,
            "time": 3.6271591666666665,
            "velocity": 0.7795275590551181
          },
          {
            "duration": 0.05202299999999971,
            "durationTicks": 18,
            "midi": 67,
            "name": "G4",
            "ticks": 1312,
            "time": 3.7918986666666665,
            "velocity": 0.937007874015748
          },
          {
            "duration": 0.06647383333333368,
            "durationTicks": 23,
            "midi": 70,
            "name": "A#4",
            "ticks": 1368,
            "time": 3.9537479999999996,
            "velocity": 1
          },
          {
            "duration": 0.04624266666666621,
            "durationTicks": 16,
            "midi": 75,
            "name": "D#5",
            "ticks": 1428,
            "time": 4.127158,
            "velocity": 0.968503937007874
          },
          {
            "duration": 0.052022999999999264,
            "durationTicks": 18,
            "midi": 67,
            "name": "G4",
            "ticks": 1551,
            "time": 4.4826485,
            "velocity": 0.968503937007874
          },
          {
            "duration": 0.6705186666666672,
            "durationTicks": 232,
            "midi": 67,
            "name": "G4",
            "ticks": 1675,
            "time": 4.841029166666666,
            "velocity": 1
          },
          {
            "duration": 0.046242666666667986,
            "durationTicks": 16,
            "midi": 68,
            "name": "G#4",
            "ticks": 1976,
            "time": 5.710969333333332,
            "velocity": 1
          },
          {
            "duration": 0.03757216666666707,
            "durationTicks": 13,
            "midi": 68,
            "name": "G#4",
            "ticks": 2005,
            "time": 5.794784166666665,
            "velocity": 0.937007874015748
          },
          {
            "duration": 0.05780333333333232,
            "durationTicks": 20,
            "midi": 68,
            "name": "G#4",
            "ticks": 2031,
            "time": 5.869928499999999,
            "velocity": 1
          },
          {
            "duration": 0.06647383333333412,
            "durationTicks": 23,
            "midi": 72,
            "name": "C5",
            "ticks": 2096,
            "time": 6.057789333333332,
            "velocity": 0.905511811023622
          },
          {
            "duration": 0.05202300000000104,
            "durationTicks": 18,
            "midi": 68,
            "name": "G#4",
            "ticks": 2155,
            "time": 6.228309166666666,
            "velocity": 1
          },
          {
            "duration": 0.04624266666666621,
            "durationTicks": 16,
            "midi": 67,
            "name": "G4",
            "ticks": 2220,
            "time": 6.416169999999999,
            "velocity": 0.937007874015748
          },
          {
            "duration": 0.04913283333333407,
            "durationTicks": 17,
            "midi": 65,
            "name": "F4",
            "ticks": 2275,
            "time": 6.575129166666666,
            "velocity": 0.937007874015748
          },
          {
            "duration": 0.057803333333334095,
            "durationTicks": 20,
            "midi": 67,
            "name": "G4",
            "ticks": 2335,
            "time": 6.748539166666665,
            "velocity": 0.937007874015748
          },
          {
            "duration": 0.057803333333334095,
            "durationTicks": 20,
            "midi": 68,
            "name": "G#4",
            "ticks": 2400,
            "time": 6.936399999999999,
            "velocity": 1
          },
          {
            "duration": 0.05780333333333232,
            "durationTicks": 20,
            "midi": 67,
            "name": "G4",
            "ticks": 2457,
            "time": 7.1011394999999995,
            "velocity": 0.8740157480314961
          },
          {
            "duration": 0.05780333333333232,
            "durationTicks": 20,
            "midi": 65,
            "name": "F4",
            "ticks": 2518,
            "time": 7.277439666666666,
            "velocity": 0.905511811023622
          },
          {
            "duration": 0.05780333333333321,
            "durationTicks": 20,
            "midi": 67,
            "name": "G4",
            "ticks": 2575,
            "time": 7.442179166666666,
            "velocity": 0.7165354330708661
          },
          {
            "duration": 0.6445071666666671,
            "durationTicks": 223,
            "midi": 68,
            "name": "G#4",
            "ticks": 2640,
            "time": 7.630039999999999,
            "velocity": 1
          },
          {
            "duration": 0.0346820000000001,
            "durationTicks": 12,
            "midi": 67,
            "name": "G4",
            "ticks": 2933,
            "time": 8.476858833333333,
            "velocity": 1
          },
          {
            "duration": 0.02890166666666616,
            "durationTicks": 10,
            "midi": 67,
            "name": "G4",
            "ticks": 2960,
            "time": 8.554893333333332,
            "velocity": 0.84251968503937
          },
          {
            "duration": 0.04913283333333318,
            "durationTicks": 17,
            "midi": 67,
            "name": "G4",
            "ticks": 2983,
            "time": 8.621367166666666,
            "velocity": 0.968503937007874
          },
          {
            "duration": 0.05202300000000015,
            "durationTicks": 18,
            "midi": 70,
            "name": "A#4",
            "ticks": 3048,
            "time": 8.809228,
            "velocity": 1
          },
          {
            "duration": 0.04913283333333318,
            "durationTicks": 17,
            "midi": 67,
            "name": "G4",
            "ticks": 3106,
            "time": 8.976857666666666,
            "velocity": 0.968503937007874
          },
          {
            "duration": 0.04335249999999924,
            "durationTicks": 15,
            "midi": 65,
            "name": "F4",
            "ticks": 3165,
            "time": 9.1473775,
            "velocity": 0.937007874015748
          },
          {
            "duration": 0.06069349999999929,
            "durationTicks": 21,
            "midi": 63,
            "name": "D#4",
            "ticks": 3225,
            "time": 9.3207875,
            "velocity": 1
          },
          {
            "duration": 0.046242666666667986,
            "durationTicks": 16,
            "midi": 65,
            "name": "F4",
            "ticks": 3288,
            "time": 9.502867999999998,
            "velocity": 0.937007874015748
          },
          {
            "duration": 0.07225416666666717,
            "durationTicks": 25,
            "midi": 67,
            "name": "G4",
            "ticks": 3350,
            "time": 9.682058333333332,
            "velocity": 1
          },
          {
            "duration": 0.034681999999998325,
            "durationTicks": 12,
            "midi": 65,
            "name": "F4",
            "ticks": 3417,
            "time": 9.8756995,
            "velocity": 0.6850393700787402
          },
          {
            "duration": 0.05202300000000015,
            "durationTicks": 18,
            "midi": 63,
            "name": "D#4",
            "ticks": 3476,
            "time": 10.046219333333331,
            "velocity": 1
          },
          {
            "duration": 0.04335249999999924,
            "durationTicks": 15,
            "midi": 65,
            "name": "F4",
            "ticks": 3536,
            "time": 10.219629333333332,
            "velocity": 0.84251968503937
          },
          {
            "duration": 0.6445071666666671,
            "durationTicks": 223,
            "midi": 67,
            "name": "G4",
            "ticks": 3595,
            "time": 10.390149166666665,
            "velocity": 1
          },
          {
            "duration": 0.043352500000001015,
            "durationTicks": 15,
            "midi": 67,
            "name": "G4",
            "ticks": 3897,
            "time": 11.262979499999998,
            "velocity": 1
          },
          {
            "duration": 0.046242666666667986,
            "durationTicks": 16,
            "midi": 67,
            "name": "G4",
            "ticks": 3927,
            "time": 11.349684499999999,
            "velocity": 1
          },
          {
            "duration": 0.023121333333333993,
            "durationTicks": 8,
            "midi": 65,
            "name": "F4",
            "ticks": 3932,
            "time": 11.364135333333332,
            "velocity": 0.4645669291338583
          },
          {
            "duration": 0.05202300000000015,
            "durationTicks": 18,
            "midi": 67,
            "name": "G4",
            "ticks": 3958,
            "time": 11.439279666666666,
            "velocity": 1
          },
          {
            "duration": 0.05780333333333232,
            "durationTicks": 20,
            "midi": 70,
            "name": "A#4",
            "ticks": 4020,
            "time": 11.618469999999999,
            "velocity": 1
          },
          {
            "duration": 0.07225416666666717,
            "durationTicks": 25,
            "midi": 75,
            "name": "D#5",
            "ticks": 4080,
            "time": 11.791879999999999,
            "velocity": 1
          },
          {
            "duration": 0.05780333333333232,
            "durationTicks": 20,
            "midi": 70,
            "name": "A#4",
            "ticks": 4135,
            "time": 11.950839166666666,
            "velocity": 0.968503937007874
          },
          {
            "duration": 0.052022999999998376,
            "durationTicks": 18,
            "midi": 67,
            "name": "G4",
            "ticks": 4195,
            "time": 12.124249166666667,
            "velocity": 0.968503937007874
          },
          {
            "duration": 0.06358366666666626,
            "durationTicks": 22,
            "midi": 70,
            "name": "A#4",
            "ticks": 4255,
            "time": 12.297659166666666,
            "velocity": 1
          },
          {
            "duration": 0.06069349999999929,
            "durationTicks": 21,
            "midi": 75,
            "name": "D#5",
            "ticks": 4313,
            "time": 12.465288833333332,
            "velocity": 1
          },
          {
            "duration": 0.052022999999998376,
            "durationTicks": 18,
            "midi": 67,
            "name": "G4",
            "ticks": 4442,
            "time": 12.838120333333332,
            "velocity": 0.7795275590551181
          },
          {
            "duration": 0.7398826666666665,
            "durationTicks": 256,
            "midi": 67,
            "name": "G4",
            "ticks": 4555,
            "time": 13.164709166666666,
            "velocity": 0.968503937007874
          },
          {
            "duration": 0.04624266666666621,
            "durationTicks": 16,
            "midi": 67,
            "name": "G4",
            "ticks": 4865,
            "time": 14.060660833333332,
            "velocity": 1
          },
          {
            "duration": 0.052023000000003705,
            "durationTicks": 18,
            "midi": 67,
            "name": "G4",
            "ticks": 4895,
            "time": 14.14736583333333,
            "velocity": 0.968503937007874
          },
          {
            "duration": 0.06647383333333501,
            "durationTicks": 23,
            "midi": 67,
            "name": "G4",
            "ticks": 4925,
            "time": 14.23407083333333,
            "velocity": 0.8110236220472441
          },
          {
            "duration": 0.05780333333333232,
            "durationTicks": 20,
            "midi": 70,
            "name": "A#4",
            "ticks": 4980,
            "time": 14.393029999999998,
            "velocity": 1
          },
          {
            "duration": 0.06069349999999751,
            "durationTicks": 21,
            "midi": 75,
            "name": "D#5",
            "ticks": 5038,
            "time": 14.560659666666666,
            "velocity": 1
          },
          {
            "duration": 0.06647383333333146,
            "durationTicks": 23,
            "midi": 70,
            "name": "A#4",
            "ticks": 5095,
            "time": 14.725399166666666,
            "velocity": 1
          },
          {
            "duration": 0.06069349999999929,
            "durationTicks": 21,
            "midi": 67,
            "name": "G4",
            "ticks": 5155,
            "time": 14.898809166666666,
            "velocity": 1
          },
          {
            "duration": 0.06647383333333323,
            "durationTicks": 23,
            "midi": 70,
            "name": "A#4",
            "ticks": 5215,
            "time": 15.072219166666665,
            "velocity": 1
          },
          {
            "duration": 0.04624266666666621,
            "durationTicks": 16,
            "midi": 75,
            "name": "D#5",
            "ticks": 5275,
            "time": 15.245629166666665,
            "velocity": 1
          },
          {
            "duration": 0.05780333333333232,
            "durationTicks": 20,
            "midi": 67,
            "name": "G4",
            "ticks": 5400,
            "time": 15.606899999999998,
            "velocity": 0.968503937007874
          },
          {
            "duration": 0.6791891666666654,
            "durationTicks": 235,
            "midi": 67,
            "name": "G4",
            "ticks": 5513,
            "time": 15.933488833333334,
            "velocity": 1
          },
          {
            "duration": 0.03757216666666352,
            "durationTicks": 13,
            "midi": 68,
            "name": "G#4",
            "ticks": 5813,
            "time": 16.800538833333334,
            "velocity": 1
          },
          {
            "duration": 0.043352500000001015,
            "durationTicks": 15,
            "midi": 68,
            "name": "G#4",
            "ticks": 5842,
            "time": 16.884353666666662,
            "velocity": 1
          },
          {
            "duration": 0.05780333333333587,
            "durationTicks": 20,
            "midi": 68,
            "name": "G#4",
            "ticks": 5870,
            "time": 16.96527833333333,
            "velocity": 0.968503937007874
          },
          {
            "duration": 0.06069349999999929,
            "durationTicks": 21,
            "midi": 72,
            "name": "C5",
            "ticks": 5933,
            "time": 17.14735883333333,
            "velocity": 1
          },
          {
            "duration": 0.05780333333333232,
            "durationTicks": 20,
            "midi": 68,
            "name": "G#4",
            "ticks": 5991,
            "time": 17.3149885,
            "velocity": 1
          },
          {
            "duration": 0.05780333333333232,
            "durationTicks": 20,
            "midi": 67,
            "name": "G4",
            "ticks": 6050,
            "time": 17.485508333333332,
            "velocity": 0.905511811023622
          },
          {
            "duration": 0.05780333333333587,
            "durationTicks": 20,
            "midi": 65,
            "name": "F4",
            "ticks": 6110,
            "time": 17.65891833333333,
            "velocity": 0.937007874015748
          },
          {
            "duration": 0.06069349999999929,
            "durationTicks": 21,
            "midi": 67,
            "name": "G4",
            "ticks": 6173,
            "time": 17.840998833333334,
            "velocity": 0.905511811023622
          },
          {
            "duration": 0.07225416666666717,
            "durationTicks": 25,
            "midi": 68,
            "name": "G#4",
            "ticks": 6231,
            "time": 18.008628499999997,
            "velocity": 1
          },
          {
            "duration": 0.043352500000001015,
            "durationTicks": 15,
            "midi": 67,
            "name": "G4",
            "ticks": 6300,
            "time": 18.208049999999997,
            "velocity": 0.49606299212598426
          },
          {
            "duration": 0.052022999999998376,
            "durationTicks": 18,
            "midi": 65,
            "name": "F4",
            "ticks": 6356,
            "time": 18.369899333333333,
            "velocity": 0.8110236220472441
          },
          {
            "duration": 0.06069349999999929,
            "durationTicks": 21,
            "midi": 67,
            "name": "G4",
            "ticks": 6415,
            "time": 18.540419166666666,
            "velocity": 1
          },
          {
            "duration": 0.7254318333333352,
            "durationTicks": 251,
            "midi": 68,
            "name": "G#4",
            "ticks": 6480,
            "time": 18.728279999999998,
            "velocity": 1
          },
          {
            "duration": 0.04335249999999746,
            "durationTicks": 15,
            "midi": 67,
            "name": "G4",
            "ticks": 6776,
            "time": 19.583769333333333,
            "velocity": 1
          },
          {
            "duration": 0.04335249999999746,
            "durationTicks": 15,
            "midi": 67,
            "name": "G4",
            "ticks": 6803,
            "time": 19.661803833333334,
            "velocity": 0.968503937007874
          },
          {
            "duration": 0.06358366666666981,
            "durationTicks": 22,
            "midi": 67,
            "name": "G4",
            "ticks": 6832,
            "time": 19.74561866666666,
            "velocity": 0.968503937007874
          },
          {
            "duration": 0.06358366666666981,
            "durationTicks": 22,
            "midi": 70,
            "name": "A#4",
            "ticks": 6892,
            "time": 19.919028666666662,
            "velocity": 1
          },
          {
            "duration": 0.06069349999999929,
            "durationTicks": 21,
            "midi": 67,
            "name": "G4",
            "ticks": 6948,
            "time": 20.080878,
            "velocity": 1
          },
          {
            "duration": 0.046242666666667986,
            "durationTicks": 16,
            "midi": 65,
            "name": "F4",
            "ticks": 7010,
            "time": 20.26006833333333,
            "velocity": 1
          },
          {
            "duration": 0.06358366666666626,
            "durationTicks": 22,
            "midi": 63,
            "name": "D#4",
            "ticks": 7065,
            "time": 20.4190275,
            "velocity": 1
          },
          {
            "duration": 0.06069349999999929,
            "durationTicks": 21,
            "midi": 65,
            "name": "F4",
            "ticks": 7125,
            "time": 20.5924375,
            "velocity": 0.937007874015748
          },
          {
            "duration": 0.07225416666667073,
            "durationTicks": 25,
            "midi": 67,
            "name": "G4",
            "ticks": 7185,
            "time": 20.765847499999996,
            "velocity": 1
          },
          {
            "duration": 0.049132833333331405,
            "durationTicks": 17,
            "midi": 65,
            "name": "F4",
            "ticks": 7255,
            "time": 20.968159166666666,
            "velocity": 0.8110236220472441
          },
          {
            "duration": 0.06069349999999929,
            "durationTicks": 21,
            "midi": 63,
            "name": "D#4",
            "ticks": 7310,
            "time": 21.127118333333332,
            "velocity": 0.905511811023622
          },
          {
            "duration": 0.052022999999998376,
            "durationTicks": 18,
            "midi": 65,
            "name": "F4",
            "ticks": 7368,
            "time": 21.294748,
            "velocity": 0.84251968503937
          },
          {
            "duration": 0.6676284999999957,
            "durationTicks": 231,
            "midi": 67,
            "name": "G4",
            "ticks": 7433,
            "time": 21.482608833333334,
            "velocity": 1
          },
          {
            "duration": 0.06647383333333323,
            "durationTicks": 23,
            "midi": 65,
            "name": "F4",
            "ticks": 7776,
            "time": 22.473935999999995,
            "velocity": 0.905511811023622
          },
          {
            "duration": 0.05780333333333587,
            "durationTicks": 20,
            "midi": 65,
            "name": "F4",
            "ticks": 7817,
            "time": 22.59243283333333,
            "velocity": 0.937007874015748
          },
          {
            "duration": 0.06647383333332968,
            "durationTicks": 23,
            "midi": 65,
            "name": "F4",
            "ticks": 7858,
            "time": 22.710929666666665,
            "velocity": 0.968503937007874
          },
          {
            "duration": 0.3843921666666681,
            "durationTicks": 133,
            "midi": 72,
            "name": "C5",
            "ticks": 7912,
            "time": 22.866998666666664,
            "velocity": 1
          },
          {
            "duration": 0.06647383333332968,
            "durationTicks": 23,
            "midi": 65,
            "name": "F4",
            "ticks": 8036,
            "time": 23.225379333333333,
            "velocity": 1
          },
          {
            "duration": 0.05780333333333587,
            "durationTicks": 20,
            "midi": 62,
            "name": "D4",
            "ticks": 8278,
            "time": 23.924799666666665,
            "velocity": 0.84251968503937
          },
          {
            "duration": 0.10115583333333689,
            "durationTicks": 35,
            "midi": 62,
            "name": "D4",
            "ticks": 8342,
            "time": 24.10977033333333,
            "velocity": 0.4015748031496063
          },
          {
            "duration": 0.2745658333333374,
            "durationTicks": 95,
            "midi": 70,
            "name": "A#4",
            "ticks": 8400,
            "time": 24.277399999999997,
            "velocity": 1
          },
          {
            "duration": 0.05780333333333587,
            "durationTicks": 20,
            "midi": 62,
            "name": "D4",
            "ticks": 8516,
            "time": 24.61265933333333,
            "velocity": 0.7795275590551181
          },
          {
            "duration": 0.05202300000000193,
            "durationTicks": 18,
            "midi": 64,
            "name": "E4",
            "ticks": 8753,
            "time": 25.29762883333333,
            "velocity": 0.968503937007874
          },
          {
            "duration": 0.0346820000000001,
            "durationTicks": 12,
            "midi": 61,
            "name": "C#4",
            "ticks": 8753,
            "time": 25.29762883333333,
            "velocity": 0.968503937007874
          },
          {
            "duration": 0.06358366666666626,
            "durationTicks": 22,
            "midi": 64,
            "name": "E4",
            "ticks": 8785,
            "time": 25.390114166666663,
            "velocity": 0.905511811023622
          },
          {
            "duration": 0.04913283333333496,
            "durationTicks": 17,
            "midi": 61,
            "name": "C#4",
            "ticks": 8786,
            "time": 25.39300433333333,
            "velocity": 0.905511811023622
          },
          {
            "duration": 0.07514433333333415,
            "durationTicks": 26,
            "midi": 64,
            "name": "E4",
            "ticks": 8822,
            "time": 25.49705033333333,
            "velocity": 0.968503937007874
          },
          {
            "duration": 0.052022999999998376,
            "durationTicks": 18,
            "midi": 61,
            "name": "C#4",
            "ticks": 8825,
            "time": 25.50572083333333,
            "velocity": 1
          },
          {
            "duration": 0.22543300000000244,
            "durationTicks": 78,
            "midi": 70,
            "name": "A#4",
            "ticks": 8875,
            "time": 25.650229166666662,
            "velocity": 0.84251968503937
          },
          {
            "duration": 0.06069349999999929,
            "durationTicks": 21,
            "midi": 65,
            "name": "F4",
            "ticks": 8987,
            "time": 25.97392783333333,
            "velocity": 1
          },
          {
            "duration": 0.16762966666666657,
            "durationTicks": 58,
            "midi": 72,
            "name": "C5",
            "ticks": 9105,
            "time": 26.314967499999998,
            "velocity": 1
          },
          {
            "duration": 0.10404600000000386,
            "durationTicks": 36,
            "midi": 62,
            "name": "D4",
            "ticks": 9220,
            "time": 26.64733666666666,
            "velocity": 1
          },
          {
            "duration": 0.15895916666666565,
            "durationTicks": 55,
            "midi": 74,
            "name": "D5",
            "ticks": 9345,
            "time": 27.008607499999997,
            "velocity": 1
          },
          {
            "duration": 0.07514433333333415,
            "durationTicks": 26,
            "midi": 63,
            "name": "D#4",
            "ticks": 9473,
            "time": 27.37854883333333,
            "velocity": 1
          },
          {
            "duration": 0.10693616666667083,
            "durationTicks": 37,
            "midi": 70,
            "name": "A#4",
            "ticks": 9593,
            "time": 27.725368833333327,
            "velocity": 0.8740157480314961
          },
          {
            "duration": 0.08670499999999848,
            "durationTicks": 30,
            "midi": 69,
            "name": "A4",
            "ticks": 9675,
            "time": 27.962362499999998,
            "velocity": 0.905511811023622
          },
          {
            "duration": 0.08092466666666454,
            "durationTicks": 28,
            "midi": 68,
            "name": "G#4",
            "ticks": 9756,
            "time": 28.196465999999997,
            "velocity": 1
          },
          {
            "duration": 0.08670500000000203,
            "durationTicks": 30,
            "midi": 67,
            "name": "G4",
            "ticks": 9841,
            "time": 28.442130166666665,
            "velocity": 0.968503937007874
          },
          {
            "duration": 0.089595166666669,
            "durationTicks": 31,
            "midi": 66,
            "name": "F#4",
            "ticks": 9921,
            "time": 28.673343499999994,
            "velocity": 1
          },
          {
            "duration": 0.08670499999999848,
            "durationTicks": 30,
            "midi": 65,
            "name": "F4",
            "ticks": 9995,
            "time": 28.887215833333332,
            "velocity": 0.8110236220472441
          },
          {
            "duration": 0.10115583333333333,
            "durationTicks": 35,
            "midi": 64,
            "name": "E4",
            "ticks": 10076,
            "time": 29.121319333333332,
            "velocity": 1
          },
          {
            "duration": 0.08670499999999848,
            "durationTicks": 30,
            "midi": 63,
            "name": "D#4",
            "ticks": 10161,
            "time": 29.366983499999996,
            "velocity": 1
          },
          {
            "duration": 0.08092466666666809,
            "durationTicks": 28,
            "midi": 62,
            "name": "D4",
            "ticks": 10237,
            "time": 29.586636166666665,
            "velocity": 0.968503937007874
          },
          {
            "duration": 0.089595166666669,
            "durationTicks": 31,
            "midi": 61,
            "name": "C#4",
            "ticks": 10315,
            "time": 29.81206916666666,
            "velocity": 0.968503937007874
          },
          {
            "duration": 0.07225416666666717,
            "durationTicks": 25,
            "midi": 60,
            "name": "C4",
            "ticks": 10386,
            "time": 30.017270999999997,
            "velocity": 0.84251968503937
          },
          {
            "duration": 0.046242666666664434,
            "durationTicks": 16,
            "midi": 59,
            "name": "B3",
            "ticks": 10473,
            "time": 30.2687155,
            "velocity": 1
          },
          {
            "duration": 0.06647383333333678,
            "durationTicks": 23,
            "midi": 50,
            "name": "D3",
            "ticks": 10555,
            "time": 30.505709166666662,
            "velocity": 1
          },
          {
            "duration": 0.10982633333333425,
            "durationTicks": 38,
            "midi": 58,
            "name": "A#3",
            "ticks": 10556,
            "time": 30.50859933333333,
            "velocity": 1
          },
          {
            "duration": 0.05202300000000193,
            "durationTicks": 18,
            "midi": 59,
            "name": "B3",
            "ticks": 10795,
            "time": 31.19934916666666,
            "velocity": 0.84251968503937
          },
          {
            "duration": 0.10115583333333689,
            "durationTicks": 35,
            "midi": 67,
            "name": "G4",
            "ticks": 10795,
            "time": 31.19934916666666,
            "velocity": 1
          },
          {
            "duration": 0.08092466666666809,
            "durationTicks": 28,
            "midi": 60,
            "name": "C4",
            "ticks": 11037,
            "time": 31.898769499999993,
            "velocity": 1
          },
          {
            "duration": 0.1242771666666691,
            "durationTicks": 43,
            "midi": 67,
            "name": "G4",
            "ticks": 11038,
            "time": 31.901659666666664,
            "velocity": 1
          },
          {
            "duration": 0.05780333333333232,
            "durationTicks": 20,
            "midi": 56,
            "name": "G#3",
            "ticks": 11281,
            "time": 32.60397016666666,
            "velocity": 1
          },
          {
            "duration": 0.10115583333333689,
            "durationTicks": 35,
            "midi": 68,
            "name": "G#4",
            "ticks": 11282,
            "time": 32.60686033333333,
            "velocity": 1
          },
          {
            "duration": 0.09537550000000294,
            "durationTicks": 33,
            "midi": 63,
            "name": "D#4",
            "ticks": 11515,
            "time": 33.28026916666666,
            "velocity": 1
          },
          {
            "duration": 0.09537549999999584,
            "durationTicks": 33,
            "midi": 67,
            "name": "G4",
            "ticks": 11522,
            "time": 33.30050033333333,
            "velocity": 1
          },
          {
            "duration": 0.11849683333333161,
            "durationTicks": 41,
            "midi": 51,
            "name": "D#3",
            "ticks": 11522,
            "time": 33.30050033333333,
            "velocity": 1
          },
          {
            "duration": 0.10404599999999675,
            "durationTicks": 36,
            "midi": 58,
            "name": "A#3",
            "ticks": 11523,
            "time": 33.3033905,
            "velocity": 1
          },
          {
            "duration": 0.06647383333334034,
            "durationTicks": 23,
            "midi": 58,
            "name": "A#3",
            "ticks": 11755,
            "time": 33.97390916666666,
            "velocity": 1
          },
          {
            "duration": 0.1098263333333307,
            "durationTicks": 38,
            "midi": 65,
            "name": "F4",
            "ticks": 11756,
            "time": 33.97679933333333,
            "velocity": 0.905511811023622
          },
          {
            "duration": 0.10115583333332978,
            "durationTicks": 35,
            "midi": 50,
            "name": "D3",
            "ticks": 11758,
            "time": 33.982579666666666,
            "velocity": 1
          },
          {
            "duration": 0.06358366666666626,
            "durationTicks": 22,
            "midi": 62,
            "name": "D4",
            "ticks": 11870,
            "time": 34.30627833333333,
            "velocity": 1
          },
          {
            "duration": 0.08670499999999493,
            "durationTicks": 30,
            "midi": 50,
            "name": "D3",
            "ticks": 11871,
            "time": 34.3091685,
            "velocity": 0.968503937007874
          },
          {
            "duration": 0.089595166666669,
            "durationTicks": 31,
            "midi": 63,
            "name": "D#4",
            "ticks": 11993,
            "time": 34.661768833333326,
            "velocity": 1
          },
          {
            "duration": 0.089595166666669,
            "durationTicks": 31,
            "midi": 46,
            "name": "A#2",
            "ticks": 11993,
            "time": 34.661768833333326,
            "velocity": 1
          },
          {
            "duration": 0.049132833333331405,
            "durationTicks": 17,
            "midi": 55,
            "name": "G3",
            "ticks": 11993,
            "time": 34.661768833333326,
            "velocity": 0.905511811023622
          },
          {
            "duration": 0.0895951666666619,
            "durationTicks": 31,
            "midi": 50,
            "name": "D3",
            "ticks": 12230,
            "time": 35.346738333333334,
            "velocity": 1
          },
          {
            "duration": 0.05780333333332521,
            "durationTicks": 20,
            "midi": 58,
            "name": "A#3",
            "ticks": 12230,
            "time": 35.346738333333334,
            "velocity": 1
          },
          {
            "duration": 0.09537549999999584,
            "durationTicks": 33,
            "midi": 65,
            "name": "F4",
            "ticks": 12230,
            "time": 35.346738333333334,
            "velocity": 1
          },
          {
            "duration": 0.07514433333333415,
            "durationTicks": 26,
            "midi": 62,
            "name": "D4",
            "ticks": 12352,
            "time": 35.69933866666666,
            "velocity": 1
          },
          {
            "duration": 0.07514433333333415,
            "durationTicks": 26,
            "midi": 50,
            "name": "D3",
            "ticks": 12355,
            "time": 35.70800916666666,
            "velocity": 0.968503937007874
          },
          {
            "duration": 0.089595166666669,
            "durationTicks": 31,
            "midi": 63,
            "name": "D#4",
            "ticks": 12475,
            "time": 36.054829166666664,
            "velocity": 1
          },
          {
            "duration": 0.11560666666666464,
            "durationTicks": 40,
            "midi": 46,
            "name": "A#2",
            "ticks": 12475,
            "time": 36.054829166666664,
            "velocity": 1
          },
          {
            "duration": 0.06069349999999929,
            "durationTicks": 21,
            "midi": 55,
            "name": "G3",
            "ticks": 12475,
            "time": 36.054829166666664,
            "velocity": 0.968503937007874
          },
          {
            "duration": 0.07225416666666717,
            "durationTicks": 25,
            "midi": 65,
            "name": "F4",
            "ticks": 12590,
            "time": 36.38719833333333,
            "velocity": 1
          },
          {
            "duration": 0.05780333333333232,
            "durationTicks": 20,
            "midi": 56,
            "name": "G#3",
            "ticks": 12590,
            "time": 36.38719833333333,
            "velocity": 1
          },
          {
            "duration": 0.046242666666664434,
            "durationTicks": 16,
            "midi": 58,
            "name": "A#3",
            "ticks": 12703,
            "time": 36.71378716666666,
            "velocity": 1
          },
          {
            "duration": 0.08092466666666809,
            "durationTicks": 28,
            "midi": 67,
            "name": "G4",
            "ticks": 12705,
            "time": 36.7195675,
            "velocity": 1
          },
          {
            "duration": 0.052022999999998376,
            "durationTicks": 18,
            "midi": 56,
            "name": "G#3",
            "ticks": 12822,
            "time": 37.057717,
            "velocity": 1
          },
          {
            "duration": 0.07225416666666007,
            "durationTicks": 25,
            "midi": 65,
            "name": "F4",
            "ticks": 12825,
            "time": 37.0663875,
            "velocity": 0.968503937007874
          },
          {
            "duration": 0.07803449999999401,
            "durationTicks": 27,
            "midi": 67,
            "name": "G4",
            "ticks": 12941,
            "time": 37.40164683333333,
            "velocity": 0.968503937007874
          },
          {
            "duration": 0.05780333333333232,
            "durationTicks": 20,
            "midi": 58,
            "name": "A#3",
            "ticks": 12945,
            "time": 37.4132075,
            "velocity": 0.7795275590551181
          },
          {
            "duration": 0.057803333333339424,
            "durationTicks": 20,
            "midi": 56,
            "name": "G#3",
            "ticks": 13065,
            "time": 37.76002749999999,
            "velocity": 0.905511811023622
          },
          {
            "duration": 0.07225416666666717,
            "durationTicks": 25,
            "midi": 65,
            "name": "F4",
            "ticks": 13065,
            "time": 37.76002749999999,
            "velocity": 0.968503937007874
          },
          {
            "duration": 0.08670500000000203,
            "durationTicks": 30,
            "midi": 67,
            "name": "G4",
            "ticks": 13187,
            "time": 38.11262783333333,
            "velocity": 0.905511811023622
          },
          {
            "duration": 0.06358366666666626,
            "durationTicks": 22,
            "midi": 58,
            "name": "A#3",
            "ticks": 13188,
            "time": 38.115517999999994,
            "velocity": 1
          },
          {
            "duration": 0.06647383333333323,
            "durationTicks": 23,
            "midi": 56,
            "name": "G#3",
            "ticks": 13305,
            "time": 38.453667499999995,
            "velocity": 0.7795275590551181
          },
          {
            "duration": 0.08670500000000203,
            "durationTicks": 30,
            "midi": 65,
            "name": "F4",
            "ticks": 13306,
            "time": 38.45655766666666,
            "velocity": 0.84251968503937
          },
          {
            "duration": 0.06647383333333323,
            "durationTicks": 23,
            "midi": 67,
            "name": "G4",
            "ticks": 13422,
            "time": 38.791816999999995,
            "velocity": 0.8110236220472441
          },
          {
            "duration": 0.05202300000000548,
            "durationTicks": 18,
            "midi": 58,
            "name": "A#3",
            "ticks": 13423,
            "time": 38.79470716666666,
            "velocity": 0.6535433070866141
          },
          {
            "duration": 0.09537549999999584,
            "durationTicks": 33,
            "midi": 50,
            "name": "D3",
            "ticks": 13550,
            "time": 39.16175833333333,
            "velocity": 0.968503937007874
          },
          {
            "duration": 0.05780333333333232,
            "durationTicks": 20,
            "midi": 59,
            "name": "B3",
            "ticks": 13550,
            "time": 39.16175833333333,
            "velocity": 0.84251968503937
          },
          {
            "duration": 0.08670500000000203,
            "durationTicks": 30,
            "midi": 67,
            "name": "G4",
            "ticks": 13550,
            "time": 39.16175833333333,
            "velocity": 0.968503937007874
          },
          {
            "duration": 0.07225416666666007,
            "durationTicks": 25,
            "midi": 60,
            "name": "C4",
            "ticks": 13667,
            "time": 39.49990783333333,
            "velocity": 1
          },
          {
            "duration": 0.09248533333332887,
            "durationTicks": 32,
            "midi": 67,
            "name": "G4",
            "ticks": 13667,
            "time": 39.49990783333333,
            "velocity": 1
          },
          {
            "duration": 0.09248533333332887,
            "durationTicks": 32,
            "midi": 51,
            "name": "D#3",
            "ticks": 13670,
            "time": 39.50857833333333,
            "velocity": 1
          },
          {
            "duration": 0.06358366666666626,
            "durationTicks": 22,
            "midi": 59,
            "name": "B3",
            "ticks": 13792,
            "time": 39.86117866666666,
            "velocity": 1
          },
          {
            "duration": 0.08092466666666809,
            "durationTicks": 28,
            "midi": 67,
            "name": "G4",
            "ticks": 13793,
            "time": 39.86406883333333,
            "velocity": 1
          },
          {
            "duration": 0.10404600000000386,
            "durationTicks": 36,
            "midi": 50,
            "name": "D3",
            "ticks": 13795,
            "time": 39.86984916666666,
            "velocity": 1
          },
          {
            "duration": 0.07803450000000112,
            "durationTicks": 27,
            "midi": 51,
            "name": "D#3",
            "ticks": 13912,
            "time": 40.20799866666666,
            "velocity": 0.7795275590551181
          },
          {
            "duration": 0.06358366666666626,
            "durationTicks": 22,
            "midi": 60,
            "name": "C4",
            "ticks": 13912,
            "time": 40.20799866666666,
            "velocity": 1
          },
          {
            "duration": 0.07803450000000112,
            "durationTicks": 27,
            "midi": 67,
            "name": "G4",
            "ticks": 13912,
            "time": 40.20799866666666,
            "velocity": 1
          },
          {
            "duration": 0.089595166666669,
            "durationTicks": 31,
            "midi": 50,
            "name": "D3",
            "ticks": 14033,
            "time": 40.55770883333333,
            "velocity": 0.937007874015748
          },
          {
            "duration": 0.06069349999999929,
            "durationTicks": 21,
            "midi": 59,
            "name": "B3",
            "ticks": 14035,
            "time": 40.56348916666666,
            "velocity": 1
          },
          {
            "duration": 0.08670499999999493,
            "durationTicks": 30,
            "midi": 67,
            "name": "G4",
            "ticks": 14035,
            "time": 40.56348916666666,
            "velocity": 1
          },
          {
            "duration": 0.052022999999998376,
            "durationTicks": 18,
            "midi": 60,
            "name": "C4",
            "ticks": 14153,
            "time": 40.90452883333333,
            "velocity": 1
          },
          {
            "duration": 0.10115583333333689,
            "durationTicks": 35,
            "midi": 51,
            "name": "D#3",
            "ticks": 14155,
            "time": 40.91030916666666,
            "velocity": 1
          },
          {
            "duration": 0.07225416666667428,
            "durationTicks": 25,
            "midi": 67,
            "name": "G4",
            "ticks": 14155,
            "time": 40.91030916666666,
            "velocity": 1
          },
          {
            "duration": 0.08670500000000203,
            "durationTicks": 30,
            "midi": 70,
            "name": "A#4",
            "ticks": 14275,
            "time": 41.25712916666666,
            "velocity": 0.84251968503937
          },
          {
            "duration": 0.10404600000000386,
            "durationTicks": 36,
            "midi": 70,
            "name": "A#4",
            "ticks": 14398,
            "time": 41.61261966666666,
            "velocity": 1
          },
          {
            "duration": 0.08092466666666809,
            "durationTicks": 28,
            "midi": 58,
            "name": "A#3",
            "ticks": 14865,
            "time": 42.962327499999994,
            "velocity": 1
          },
          {
            "duration": 0.089595166666669,
            "durationTicks": 31,
            "midi": 67,
            "name": "G4",
            "ticks": 14865,
            "time": 42.962327499999994,
            "velocity": 1
          },
          {
            "duration": 0.09537550000000294,
            "durationTicks": 33,
            "midi": 51,
            "name": "D#3",
            "ticks": 14865,
            "time": 42.962327499999994,
            "velocity": 1
          },
          {
            "duration": 0.11849683333333871,
            "durationTicks": 41,
            "midi": 75,
            "name": "D#5",
            "ticks": 14865,
            "time": 42.962327499999994,
            "velocity": 1
          },
          {
            "duration": 0.1300574999999995,
            "durationTicks": 45,
            "midi": 51,
            "name": "D#3",
            "ticks": 15357,
            "time": 44.384289499999994,
            "velocity": 1
          },
          {
            "duration": 0.12427716666667266,
            "durationTicks": 43,
            "midi": 75,
            "name": "D#5",
            "ticks": 15357,
            "time": 44.384289499999994,
            "velocity": 1
          },
          {
            "duration": 0.08670500000000203,
            "durationTicks": 30,
            "midi": 67,
            "name": "G4",
            "ticks": 15360,
            "time": 44.392959999999995,
            "velocity": 1
          },
          {
            "duration": 0.11560666666667174,
            "durationTicks": 40,
            "midi": 58,
            "name": "A#3",
            "ticks": 15360,
            "time": 44.392959999999995,
            "velocity": 1
          },
          {
            "duration": 0.13294766666667357,
            "durationTicks": 46,
            "midi": 63,
            "name": "D#4",
            "ticks": 15838,
            "time": 45.77445966666666,
            "velocity": 1
          },
          {
            "duration": 0.13294766666667357,
            "durationTicks": 46,
            "midi": 51,
            "name": "D#3",
            "ticks": 15838,
            "time": 45.77445966666666,
            "velocity": 1
          },
          {
            "duration": 0.09537550000000294,
            "durationTicks": 33,
            "midi": 55,
            "name": "G3",
            "ticks": 15840,
            "time": 45.78023999999999,
            "velocity": 1
          },
          {
            "duration": 0.14739850000000843,
            "durationTicks": 51,
            "midi": 46,
            "name": "A#2",
            "ticks": 15840,
            "time": 45.78023999999999,
            "velocity": 0.905511811023622
          },
          {
            "duration": 0.2099235416666687,
            "durationTicks": 55,
            "midi": 58,
            "name": "A#3",
            "ticks": 16325,
            "time": 47.18660395833333,
            "velocity": 1
          },
          {
            "duration": 0.18320599999999843,
            "durationTicks": 48,
            "midi": 51,
            "name": "D#3",
            "ticks": 16325,
            "time": 47.18660395833333,
            "velocity": 0.937007874015748
          },
          {
            "duration": 0.2786257916666699,
            "durationTicks": 73,
            "midi": 43,
            "name": "G2",
            "ticks": 16326,
            "time": 47.190420749999994,
            "velocity": 1
          },
          {
            "duration": 0.17175562500000296,
            "durationTicks": 45,
            "midi": 51,
            "name": "D#3",
            "ticks": 16560,
            "time": 48.083549999999995,
            "velocity": 1
          },
          {
            "duration": 0.15648845833332814,
            "durationTicks": 41,
            "midi": 43,
            "name": "G2",
            "ticks": 16562,
            "time": 48.09118358333333,
            "velocity": 0.8740157480314961
          },
          {
            "duration": 0.10305337499999467,
            "durationTicks": 27,
            "midi": 43,
            "name": "G2",
            "ticks": 16731,
            "time": 48.736221375,
            "velocity": 0.7795275590551181
          },
          {
            "duration": 0.10305337499999467,
            "durationTicks": 27,
            "midi": 51,
            "name": "D#3",
            "ticks": 16732,
            "time": 48.740038166666665,
            "velocity": 1
          },
          {
            "duration": 0.42748066666666773,
            "durationTicks": 112,
            "midi": 46,
            "name": "A#2",
            "ticks": 16786,
            "time": 48.94614491666666,
            "velocity": 1
          },
          {
            "duration": 0.47709895833333604,
            "durationTicks": 125,
            "midi": 55,
            "name": "G3",
            "ticks": 16790,
            "time": 48.96141208333333,
            "velocity": 1
          },
          {
            "duration": 0.4618317916666683,
            "durationTicks": 121,
            "midi": 58,
            "name": "A#3",
            "ticks": 17030,
            "time": 49.87744208333333,
            "velocity": 1
          },
          {
            "duration": 0.4656485833333335,
            "durationTicks": 122,
            "midi": 51,
            "name": "D#3",
            "ticks": 17032,
            "time": 49.885075666666665,
            "velocity": 1
          },
          {
            "duration": 0.6106866666666662,
            "durationTicks": 160,
            "midi": 58,
            "name": "A#3",
            "ticks": 17277,
            "time": 50.820189625,
            "velocity": 1
          },
          {
            "duration": 0.5648851666666701,
            "durationTicks": 148,
            "midi": 51,
            "name": "D#3",
            "ticks": 17278,
            "time": 50.82400641666666,
            "velocity": 1
          },
          {
            "duration": 0.389312750000002,
            "durationTicks": 102,
            "midi": 43,
            "name": "G2",
            "ticks": 17283,
            "time": 50.843090374999996,
            "velocity": 0.905511811023622
          },
          {
            "duration": 0.8282437916666652,
            "durationTicks": 217,
            "midi": 63,
            "name": "D#4",
            "ticks": 17771,
            "time": 52.70568470833333,
            "velocity": 1
          },
          {
            "duration": 0.8282437916666723,
            "durationTicks": 217,
            "midi": 55,
            "name": "G3",
            "ticks": 17773,
            "time": 52.71331829166666,
            "velocity": 1
          },
          {
            "duration": 0.8473277500000052,
            "durationTicks": 222,
            "midi": 46,
            "name": "A#2",
            "ticks": 17773,
            "time": 52.71331829166666,
            "velocity": 1
          },
          {
            "duration": 1.0114497916666707,
            "durationTicks": 265,
            "midi": 51,
            "name": "D#3",
            "ticks": 18247,
            "time": 54.52247754166666,
            "velocity": 1
          },
          {
            "duration": 0.09541979166667147,
            "durationTicks": 25,
            "midi": 51,
            "name": "D#3",
            "ticks": 18580,
            "time": 55.79346916666666,
            "velocity": 0.7795275590551181
          },
          {
            "duration": 0.09541979166666437,
            "durationTicks": 25,
            "midi": 53,
            "name": "F3",
            "ticks": 18611,
            "time": 55.91178970833333,
            "velocity": 0.937007874015748
          },
          {
            "duration": 0.13740449999999527,
            "durationTicks": 36,
            "midi": 55,
            "name": "G3",
            "ticks": 18635,
            "time": 56.00339270833333,
            "velocity": 0.968503937007874
          },
          {
            "duration": 0.0763358333333315,
            "durationTicks": 20,
            "midi": 56,
            "name": "G#3",
            "ticks": 18658,
            "time": 56.091178916666664,
            "velocity": 0.84251968503937
          },
          {
            "duration": 0.05725187499999862,
            "durationTicks": 15,
            "midi": 58,
            "name": "A#3",
            "ticks": 18666,
            "time": 56.12171325,
            "velocity": 0.968503937007874
          },
          {
            "duration": 0.10687016666666693,
            "durationTicks": 28,
            "midi": 60,
            "name": "C4",
            "ticks": 18690,
            "time": 56.21331625,
            "velocity": 0.968503937007874
          },
          {
            "duration": 0.1335877083333301,
            "durationTicks": 35,
            "midi": 62,
            "name": "D4",
            "ticks": 18712,
            "time": 56.29728566666667,
            "velocity": 1
          },
          {
            "duration": 0.8206102083333349,
            "durationTicks": 215,
            "midi": 63,
            "name": "D#4",
            "ticks": 18736,
            "time": 56.38888866666666,
            "velocity": 1
          },
          {
            "duration": 0.08778620833333406,
            "durationTicks": 23,
            "midi": 51,
            "name": "D#3",
            "ticks": 19056,
            "time": 57.610262,
            "velocity": 0.7795275590551181
          },
          {
            "duration": 0.09541979166666437,
            "durationTicks": 25,
            "midi": 53,
            "name": "F3",
            "ticks": 19090,
            "time": 57.740032916666664,
            "velocity": 0.84251968503937
          },
          {
            "duration": 0.13740450000000237,
            "durationTicks": 36,
            "midi": 55,
            "name": "G3",
            "ticks": 19111,
            "time": 57.82018554166666,
            "velocity": 0.8740157480314961
          },
          {
            "duration": 0.0763358333333315,
            "durationTicks": 20,
            "midi": 56,
            "name": "G#3",
            "ticks": 19135,
            "time": 57.91178854166667,
            "velocity": 0.8740157480314961
          },
          {
            "duration": 0.06106866666666377,
            "durationTicks": 16,
            "midi": 58,
            "name": "A#3",
            "ticks": 19145,
            "time": 57.94995645833333,
            "velocity": 1
          },
          {
            "duration": 0.0839694166666689,
            "durationTicks": 22,
            "midi": 60,
            "name": "C4",
            "ticks": 19168,
            "time": 58.03774266666666,
            "velocity": 0.905511811023622
          },
          {
            "duration": 0.1183205416666695,
            "durationTicks": 31,
            "midi": 62,
            "name": "D4",
            "ticks": 19190,
            "time": 58.12171208333333,
            "velocity": 1
          },
          {
            "duration": 0.2366410833333319,
            "durationTicks": 62,
            "midi": 63,
            "name": "D#4",
            "ticks": 19218,
            "time": 58.228582249999995,
            "velocity": 1
          },
          {
            "duration": 1.3055542500000001,
            "durationTicks": 282,
            "midi": 51,
            "name": "D#3",
            "ticks": 19680,
            "time": 59.99194,
            "velocity": 1
          },
          {
            "duration": 0.21759237499999529,
            "durationTicks": 47,
            "midi": 51,
            "name": "D#3",
            "ticks": 20041,
            "time": 61.663234625,
            "velocity": 1
          },
          {
            "duration": 4,
            "durationTicks": 480,
            "midi": 51,
            "name": "D#3",
            "ticks": 20167,
            "time": 62.27249333333333,
            "velocity": 1
          }
        ],
        "endOfTrackTicks": 20647
      },
      {
        "channel": 3,
        "controlChanges": {
          "0": [
            {
              "number": 0,
              "ticks": 0,
              "time": 0,
              "value": 0
            }
          ],
          "1": [
            {
              "number": 1,
              "ticks": 0,
              "time": 0,
              "value": 0
            }
          ],
          "7": [
            {
              "number": 7,
              "ticks": 0,
              "time": 0,
              "value": 0.8661417322834646
            }
          ],
          "10": [
            {
              "number": 10,
              "ticks": 0,
              "time": 0,
              "value": 0.3937007874015748
            }
          ],
          "64": [
            {
              "number": 64,
              "ticks": 0,
              "time": 0,
              "value": 0
            }
          ]
        },
        "pitchBends": [
          {
            "ticks": 0,
            "time": 0,
            "value": 0
          }
        ],
        "instrument": {
          "family": "ensemble",
          "number": 48,
          "name": "string ensemble 1"
        },
        "name": "Cello",
        "notes": [
          {
            "duration": 0.08959516666666667,
            "durationTicks": 31,
            "midi": 51,
            "name": "D#3",
            "ticks": 0,
            "time": 0,
            "velocity": 1
          },
          {
            "duration": 0.08092466666666664,
            "durationTicks": 28,
            "midi": 46,
            "name": "A#2",
            "ticks": 106,
            "time": 0.30635766666666664,
            "velocity": 1
          },
          {
            "duration": 0.09248533333333331,
            "durationTicks": 32,
            "midi": 51,
            "name": "D#3",
            "ticks": 225,
            "time": 0.6502874999999999,
            "velocity": 1
          },
          {
            "duration": 0.08092466666666664,
            "durationTicks": 28,
            "midi": 46,
            "name": "A#2",
            "ticks": 345,
            "time": 0.9971074999999999,
            "velocity": 1
          },
          {
            "duration": 0.08959516666666678,
            "durationTicks": 31,
            "midi": 51,
            "name": "D#3",
            "ticks": 468,
            "time": 1.3525979999999997,
            "velocity": 1
          },
          {
            "duration": 0.08092466666666653,
            "durationTicks": 28,
            "midi": 46,
            "name": "A#2",
            "ticks": 585,
            "time": 1.6907474999999998,
            "velocity": 1
          },
          {
            "duration": 0.09248533333333331,
            "durationTicks": 32,
            "midi": 51,
            "name": "D#3",
            "ticks": 715,
            "time": 2.0664691666666664,
            "velocity": 1
          },
          {
            "duration": 0.08092466666666676,
            "durationTicks": 28,
            "midi": 46,
            "name": "A#2",
            "ticks": 836,
            "time": 2.416179333333333,
            "velocity": 1
          },
          {
            "duration": 0.09537550000000028,
            "durationTicks": 33,
            "midi": 51,
            "name": "D#3",
            "ticks": 960,
            "time": 2.7745599999999997,
            "velocity": 1
          },
          {
            "duration": 0.07803450000000023,
            "durationTicks": 27,
            "midi": 46,
            "name": "A#2",
            "ticks": 1076,
            "time": 3.109819333333333,
            "velocity": 1
          },
          {
            "duration": 0.09248533333333286,
            "durationTicks": 32,
            "midi": 51,
            "name": "D#3",
            "ticks": 1188,
            "time": 3.433518,
            "velocity": 1
          },
          {
            "duration": 0.07803450000000023,
            "durationTicks": 27,
            "midi": 46,
            "name": "A#2",
            "ticks": 1308,
            "time": 3.7803379999999995,
            "velocity": 1
          },
          {
            "duration": 0.08959516666666723,
            "durationTicks": 31,
            "midi": 51,
            "name": "D#3",
            "ticks": 1430,
            "time": 4.132938333333333,
            "velocity": 1
          },
          {
            "duration": 0.08092466666666631,
            "durationTicks": 28,
            "midi": 46,
            "name": "A#2",
            "ticks": 1545,
            "time": 4.4653075,
            "velocity": 1
          },
          {
            "duration": 0.09248533333333331,
            "durationTicks": 32,
            "midi": 51,
            "name": "D#3",
            "ticks": 1670,
            "time": 4.826578333333333,
            "velocity": 1
          },
          {
            "duration": 0.0809246666666672,
            "durationTicks": 28,
            "midi": 46,
            "name": "A#2",
            "ticks": 1790,
            "time": 5.173398333333332,
            "velocity": 1
          },
          {
            "duration": 0.09537550000000028,
            "durationTicks": 33,
            "midi": 51,
            "name": "D#3",
            "ticks": 1910,
            "time": 5.520218333333332,
            "velocity": 1
          },
          {
            "duration": 0.07225416666666629,
            "durationTicks": 25,
            "midi": 46,
            "name": "A#2",
            "ticks": 2025,
            "time": 5.852587499999999,
            "velocity": 1
          },
          {
            "duration": 0.08959516666666634,
            "durationTicks": 31,
            "midi": 51,
            "name": "D#3",
            "ticks": 2143,
            "time": 6.1936271666666665,
            "velocity": 1
          },
          {
            "duration": 0.07514433333333326,
            "durationTicks": 26,
            "midi": 46,
            "name": "A#2",
            "ticks": 2262,
            "time": 6.537557,
            "velocity": 1
          },
          {
            "duration": 0.08959516666666634,
            "durationTicks": 31,
            "midi": 51,
            "name": "D#3",
            "ticks": 2382,
            "time": 6.884377,
            "velocity": 1
          },
          {
            "duration": 0.06647383333333323,
            "durationTicks": 23,
            "midi": 46,
            "name": "A#2",
            "ticks": 2507,
            "time": 7.245647833333332,
            "velocity": 1
          },
          {
            "duration": 0.07514433333333415,
            "durationTicks": 26,
            "midi": 51,
            "name": "D#3",
            "ticks": 2633,
            "time": 7.609808833333332,
            "velocity": 1
          },
          {
            "duration": 0.06358366666666626,
            "durationTicks": 22,
            "midi": 46,
            "name": "A#2",
            "ticks": 2752,
            "time": 7.953738666666666,
            "velocity": 1
          },
          {
            "duration": 0.08959516666666723,
            "durationTicks": 31,
            "midi": 51,
            "name": "D#3",
            "ticks": 2872,
            "time": 8.300558666666666,
            "velocity": 1
          },
          {
            "duration": 0.060693500000001066,
            "durationTicks": 21,
            "midi": 46,
            "name": "A#2",
            "ticks": 2987,
            "time": 8.632927833333332,
            "velocity": 1
          },
          {
            "duration": 0.08092466666666631,
            "durationTicks": 28,
            "midi": 51,
            "name": "D#3",
            "ticks": 3107,
            "time": 8.979747833333333,
            "velocity": 1
          },
          {
            "duration": 0.0722541666666654,
            "durationTicks": 25,
            "midi": 46,
            "name": "A#2",
            "ticks": 3225,
            "time": 9.3207875,
            "velocity": 1
          },
          {
            "duration": 0.08670500000000025,
            "durationTicks": 30,
            "midi": 51,
            "name": "D#3",
            "ticks": 3345,
            "time": 9.667607499999999,
            "velocity": 1
          },
          {
            "duration": 0.07514433333333415,
            "durationTicks": 26,
            "midi": 46,
            "name": "A#2",
            "ticks": 3465,
            "time": 10.014427499999998,
            "velocity": 1
          },
          {
            "duration": 0.08959516666666723,
            "durationTicks": 31,
            "midi": 51,
            "name": "D#3",
            "ticks": 3590,
            "time": 10.375698333333332,
            "velocity": 1
          },
          {
            "duration": 0.07225416666666717,
            "durationTicks": 25,
            "midi": 46,
            "name": "A#2",
            "ticks": 3715,
            "time": 10.736969166666665,
            "velocity": 1
          },
          {
            "duration": 1.274563500000001,
            "durationTicks": 441,
            "midi": 58,
            "name": "A#3",
            "ticks": 3843,
            "time": 11.106910499999998,
            "velocity": 1
          },
          {
            "duration": 0.5780333333333321,
            "durationTicks": 200,
            "midi": 60,
            "name": "C4",
            "ticks": 4320,
            "time": 12.48552,
            "velocity": 1
          },
          {
            "duration": 0.580923499999999,
            "durationTicks": 201,
            "midi": 60,
            "name": "C4",
            "ticks": 4556,
            "time": 13.167599333333332,
            "velocity": 1
          },
          {
            "duration": 0.9739861666666645,
            "durationTicks": 337,
            "midi": 58,
            "name": "A#3",
            "ticks": 4798,
            "time": 13.867019666666666,
            "velocity": 1
          },
          {
            "duration": 0.23121333333333638,
            "durationTicks": 80,
            "midi": 55,
            "name": "G3",
            "ticks": 5151,
            "time": 14.887248499999997,
            "velocity": 1
          },
          {
            "duration": 1.3583783333333326,
            "durationTicks": 470,
            "midi": 51,
            "name": "D#3",
            "ticks": 5275,
            "time": 15.245629166666665,
            "velocity": 1
          },
          {
            "duration": 1.338147166666669,
            "durationTicks": 463,
            "midi": 63,
            "name": "D#4",
            "ticks": 5755,
            "time": 16.632909166666664,
            "velocity": 1
          },
          {
            "duration": 0.6358366666666662,
            "durationTicks": 220,
            "midi": 62,
            "name": "D4",
            "ticks": 6235,
            "time": 18.020189166666665,
            "velocity": 1
          },
          {
            "duration": 0.6647383333333359,
            "durationTicks": 230,
            "midi": 60,
            "name": "C4",
            "ticks": 6471,
            "time": 18.702268499999995,
            "velocity": 1
          },
          {
            "duration": 1.3439274999999995,
            "durationTicks": 465,
            "midi": 58,
            "name": "A#3",
            "ticks": 6710,
            "time": 19.39301833333333,
            "velocity": 1
          },
          {
            "duration": 1.216760166666667,
            "durationTicks": 421,
            "midi": 60,
            "name": "C4",
            "ticks": 7191,
            "time": 20.783188499999998,
            "velocity": 1
          },
          {
            "duration": 1.173407666666666,
            "durationTicks": 406,
            "midi": 56,
            "name": "G#3",
            "ticks": 7668,
            "time": 22.161797999999997,
            "velocity": 1
          },
          {
            "duration": 0.6387268333333367,
            "durationTicks": 221,
            "midi": 58,
            "name": "A#3",
            "ticks": 8143,
            "time": 23.534627166666663,
            "velocity": 1
          },
          {
            "duration": 0.7890155000000014,
            "durationTicks": 273,
            "midi": 58,
            "name": "A#3",
            "ticks": 8400,
            "time": 24.277399999999997,
            "velocity": 1
          },
          {
            "duration": 0.9306336666666688,
            "durationTicks": 322,
            "midi": 55,
            "name": "G3",
            "ticks": 8638,
            "time": 24.965259666666665,
            "velocity": 1
          },
          {
            "duration": 0.13583783333333344,
            "durationTicks": 47,
            "midi": 56,
            "name": "G#3",
            "ticks": 8988,
            "time": 25.976817999999998,
            "velocity": 1
          },
          {
            "duration": 0.14739849999999777,
            "durationTicks": 51,
            "midi": 57,
            "name": "A3",
            "ticks": 9105,
            "time": 26.314967499999998,
            "velocity": 1
          },
          {
            "duration": 0.1242771666666691,
            "durationTicks": 43,
            "midi": 58,
            "name": "A#3",
            "ticks": 9220,
            "time": 26.64733666666666,
            "velocity": 1
          },
          {
            "duration": 0.11560666666667174,
            "durationTicks": 40,
            "midi": 59,
            "name": "B3",
            "ticks": 9340,
            "time": 26.99415666666666,
            "velocity": 1
          },
          {
            "duration": 0.10404599999999675,
            "durationTicks": 36,
            "midi": 60,
            "name": "C4",
            "ticks": 9465,
            "time": 27.355427499999998,
            "velocity": 1
          },
          {
            "duration": 0.09248533333333242,
            "durationTicks": 32,
            "midi": 58,
            "name": "A#3",
            "ticks": 9600,
            "time": 27.745599999999996,
            "velocity": 1
          },
          {
            "duration": 0.09248533333333242,
            "durationTicks": 32,
            "midi": 46,
            "name": "A#2",
            "ticks": 9681,
            "time": 27.979703499999996,
            "velocity": 1
          },
          {
            "duration": 0.08092466666666454,
            "durationTicks": 28,
            "midi": 46,
            "name": "A#2",
            "ticks": 9753,
            "time": 28.1877955,
            "velocity": 1
          },
          {
            "duration": 0.089595166666669,
            "durationTicks": 31,
            "midi": 46,
            "name": "A#2",
            "ticks": 9827,
            "time": 28.40166783333333,
            "velocity": 1
          },
          {
            "duration": 0.08670499999999848,
            "durationTicks": 30,
            "midi": 46,
            "name": "A#2",
            "ticks": 9911,
            "time": 28.64444183333333,
            "velocity": 1
          },
          {
            "duration": 0.09248533333333242,
            "durationTicks": 32,
            "midi": 46,
            "name": "A#2",
            "ticks": 9992,
            "time": 28.87854533333333,
            "velocity": 0.905511811023622
          },
          {
            "duration": 0.089595166666669,
            "durationTicks": 31,
            "midi": 46,
            "name": "A#2",
            "ticks": 10077,
            "time": 29.124209499999996,
            "velocity": 1
          },
          {
            "duration": 0.09537549999999939,
            "durationTicks": 33,
            "midi": 46,
            "name": "A#2",
            "ticks": 10155,
            "time": 29.349642499999998,
            "velocity": 1
          },
          {
            "duration": 0.09248533333333242,
            "durationTicks": 32,
            "midi": 46,
            "name": "A#2",
            "ticks": 10235,
            "time": 29.58085583333333,
            "velocity": 1
          },
          {
            "duration": 0.11560666666666464,
            "durationTicks": 40,
            "midi": 46,
            "name": "A#2",
            "ticks": 10316,
            "time": 29.81495933333333,
            "velocity": 1
          },
          {
            "duration": 0.10115583333333333,
            "durationTicks": 35,
            "midi": 46,
            "name": "A#2",
            "ticks": 10395,
            "time": 30.043282499999997,
            "velocity": 0.7795275590551181
          },
          {
            "duration": 0.10115583333333333,
            "durationTicks": 35,
            "midi": 46,
            "name": "A#2",
            "ticks": 10476,
            "time": 30.277385999999996,
            "velocity": 1
          },
          {
            "duration": 0.13294766666667002,
            "durationTicks": 46,
            "midi": 58,
            "name": "A#3",
            "ticks": 10551,
            "time": 30.494148499999994,
            "velocity": 1
          },
          {
            "duration": 0.089595166666669,
            "durationTicks": 31,
            "midi": 57,
            "name": "A3",
            "ticks": 10630,
            "time": 30.72247166666666,
            "velocity": 0.905511811023622
          },
          {
            "duration": 0.10115583333333333,
            "durationTicks": 35,
            "midi": 56,
            "name": "G#3",
            "ticks": 10706,
            "time": 30.942124333333332,
            "velocity": 1
          },
          {
            "duration": 0.1098263333333307,
            "durationTicks": 38,
            "midi": 55,
            "name": "G3",
            "ticks": 10791,
            "time": 31.187788499999996,
            "velocity": 0.968503937007874
          },
          {
            "duration": 0.10115583333333333,
            "durationTicks": 35,
            "midi": 54,
            "name": "F#3",
            "ticks": 10870,
            "time": 31.416111666666662,
            "velocity": 1
          },
          {
            "duration": 0.09537549999999584,
            "durationTicks": 33,
            "midi": 53,
            "name": "F3",
            "ticks": 10951,
            "time": 31.650215166666666,
            "velocity": 1
          },
          {
            "duration": 0.09537550000000294,
            "durationTicks": 33,
            "midi": 52,
            "name": "E3",
            "ticks": 11025,
            "time": 31.864087499999997,
            "velocity": 1
          },
          {
            "duration": 0.10693616666666372,
            "durationTicks": 37,
            "midi": 51,
            "name": "D#3",
            "ticks": 11102,
            "time": 32.08663033333333,
            "velocity": 1
          },
          {
            "duration": 0.10115583333332978,
            "durationTicks": 35,
            "midi": 50,
            "name": "D3",
            "ticks": 11180,
            "time": 32.312063333333334,
            "velocity": 1
          },
          {
            "duration": 0.089595166666669,
            "durationTicks": 31,
            "midi": 48,
            "name": "C3",
            "ticks": 11260,
            "time": 32.543276666666664,
            "velocity": 1
          },
          {
            "duration": 0.08670500000000203,
            "durationTicks": 30,
            "midi": 47,
            "name": "B2",
            "ticks": 11345,
            "time": 32.78894083333333,
            "velocity": 0.968503937007874
          },
          {
            "duration": 0.089595166666669,
            "durationTicks": 31,
            "midi": 46,
            "name": "A#2",
            "ticks": 11430,
            "time": 33.034605,
            "velocity": 1
          },
          {
            "duration": 0.1300574999999995,
            "durationTicks": 45,
            "midi": 51,
            "name": "D#3",
            "ticks": 11521,
            "time": 33.297610166666665,
            "velocity": 1
          },
          {
            "duration": 0.09248533333333597,
            "durationTicks": 32,
            "midi": 46,
            "name": "A#2",
            "ticks": 11750,
            "time": 33.95945833333333,
            "velocity": 1
          },
          {
            "duration": 0.07803450000000112,
            "durationTicks": 27,
            "midi": 46,
            "name": "A#2",
            "ticks": 11870,
            "time": 34.30627833333333,
            "velocity": 1
          },
          {
            "duration": 0.13294766666667357,
            "durationTicks": 46,
            "midi": 51,
            "name": "D#3",
            "ticks": 11991,
            "time": 34.65598849999999,
            "velocity": 1
          },
          {
            "duration": 0.08092466666666098,
            "durationTicks": 28,
            "midi": 46,
            "name": "A#2",
            "ticks": 12230,
            "time": 35.346738333333334,
            "velocity": 1
          },
          {
            "duration": 0.09537550000000294,
            "durationTicks": 33,
            "midi": 46,
            "name": "A#2",
            "ticks": 12351,
            "time": 35.696448499999995,
            "velocity": 1
          },
          {
            "duration": 0.12427716666666555,
            "durationTicks": 43,
            "midi": 51,
            "name": "D#3",
            "ticks": 12466,
            "time": 36.02881766666666,
            "velocity": 1
          },
          {
            "duration": 0.11560666666666464,
            "durationTicks": 40,
            "midi": 59,
            "name": "B3",
            "ticks": 12587,
            "time": 36.37852783333333,
            "velocity": 1
          },
          {
            "duration": 0.12138699999999858,
            "durationTicks": 42,
            "midi": 51,
            "name": "D#3",
            "ticks": 12707,
            "time": 36.72534783333333,
            "velocity": 1
          },
          {
            "duration": 0.0895951666666619,
            "durationTicks": 31,
            "midi": 59,
            "name": "B3",
            "ticks": 12823,
            "time": 37.060607166666664,
            "velocity": 1
          },
          {
            "duration": 0.089595166666669,
            "durationTicks": 31,
            "midi": 51,
            "name": "D#3",
            "ticks": 12940,
            "time": 37.398756666666664,
            "velocity": 1
          },
          {
            "duration": 0.09537550000000294,
            "durationTicks": 33,
            "midi": 59,
            "name": "B3",
            "ticks": 13065,
            "time": 37.76002749999999,
            "velocity": 1
          },
          {
            "duration": 0.09537550000000294,
            "durationTicks": 33,
            "midi": 51,
            "name": "D#3",
            "ticks": 13185,
            "time": 38.10684749999999,
            "velocity": 1
          },
          {
            "duration": 0.10115583333333689,
            "durationTicks": 35,
            "midi": 59,
            "name": "B3",
            "ticks": 13301,
            "time": 38.44210683333333,
            "velocity": 1
          },
          {
            "duration": 0.11849683333333161,
            "durationTicks": 41,
            "midi": 51,
            "name": "D#3",
            "ticks": 13418,
            "time": 38.78025633333333,
            "velocity": 1
          },
          {
            "duration": 0.10115583333333689,
            "durationTicks": 35,
            "midi": 55,
            "name": "G3",
            "ticks": 13545,
            "time": 39.1473075,
            "velocity": 1
          },
          {
            "duration": 0.10693616666666372,
            "durationTicks": 37,
            "midi": 48,
            "name": "C3",
            "ticks": 13667,
            "time": 39.49990783333333,
            "velocity": 1
          },
          {
            "duration": 0.09537549999999584,
            "durationTicks": 33,
            "midi": 55,
            "name": "G3",
            "ticks": 13790,
            "time": 39.85539833333333,
            "velocity": 1
          },
          {
            "duration": 0.11560666666667174,
            "durationTicks": 40,
            "midi": 48,
            "name": "C3",
            "ticks": 13915,
            "time": 40.21666916666666,
            "velocity": 1
          },
          {
            "duration": 0.08670499999999493,
            "durationTicks": 30,
            "midi": 55,
            "name": "G3",
            "ticks": 14035,
            "time": 40.56348916666666,
            "velocity": 1
          },
          {
            "duration": 0.12427716666666555,
            "durationTicks": 43,
            "midi": 48,
            "name": "C3",
            "ticks": 14153,
            "time": 40.90452883333333,
            "velocity": 1
          },
          {
            "duration": 0.10693616666666372,
            "durationTicks": 37,
            "midi": 46,
            "name": "A#2",
            "ticks": 14271,
            "time": 41.2455685,
            "velocity": 1
          },
          {
            "duration": 0.1300574999999995,
            "durationTicks": 45,
            "midi": 51,
            "name": "D#3",
            "ticks": 14398,
            "time": 41.61261966666666,
            "velocity": 1
          },
          {
            "duration": 0.1878608333333318,
            "durationTicks": 65,
            "midi": 51,
            "name": "D#3",
            "ticks": 14875,
            "time": 42.99122916666666,
            "velocity": 1
          },
          {
            "duration": 0.22254283333333547,
            "durationTicks": 77,
            "midi": 51,
            "name": "D#3",
            "ticks": 15361,
            "time": 44.39585016666666,
            "velocity": 1
          },
          {
            "duration": 0.19653133333333273,
            "durationTicks": 68,
            "midi": 51,
            "name": "D#3",
            "ticks": 15835,
            "time": 45.765789166666664,
            "velocity": 1
          },
          {
            "duration": 0.29770975000000277,
            "durationTicks": 78,
            "midi": 51,
            "name": "D#3",
            "ticks": 16327,
            "time": 47.19423754166666,
            "velocity": 1
          },
          {
            "duration": 0.4312974583333329,
            "durationTicks": 113,
            "midi": 51,
            "name": "D#3",
            "ticks": 16555,
            "time": 48.06446604166666,
            "velocity": 1
          },
          {
            "duration": 0.1183205416666624,
            "durationTicks": 31,
            "midi": 51,
            "name": "D#3",
            "ticks": 16727,
            "time": 48.72095420833333,
            "velocity": 1
          },
          {
            "duration": 0.4312974583333329,
            "durationTicks": 113,
            "midi": 51,
            "name": "D#3",
            "ticks": 16791,
            "time": 48.965228874999994,
            "velocity": 1
          },
          {
            "duration": 0.46564858333332637,
            "durationTicks": 122,
            "midi": 51,
            "name": "D#3",
            "ticks": 17022,
            "time": 49.84690775,
            "velocity": 1
          },
          {
            "duration": 0.9656482916666675,
            "durationTicks": 253,
            "midi": 51,
            "name": "D#3",
            "ticks": 17267,
            "time": 50.78202170833333,
            "velocity": 1
          },
          {
            "duration": 0.9770986666666701,
            "durationTicks": 256,
            "midi": 51,
            "name": "D#3",
            "ticks": 17758,
            "time": 52.65606641666666,
            "velocity": 1
          },
          {
            "duration": 1.2213733333333323,
            "durationTicks": 320,
            "midi": 51,
            "name": "D#3",
            "ticks": 18238,
            "time": 54.48812641666666,
            "velocity": 1
          },
          {
            "duration": 0.09541979166667147,
            "durationTicks": 25,
            "midi": 51,
            "name": "D#3",
            "ticks": 19055,
            "time": 57.60644520833333,
            "velocity": 0.6850393700787402
          },
          {
            "duration": 0.11450375000000435,
            "durationTicks": 30,
            "midi": 53,
            "name": "F3",
            "ticks": 19087,
            "time": 57.72858254166666,
            "velocity": 0.968503937007874
          },
          {
            "duration": 0.152671666666663,
            "durationTicks": 40,
            "midi": 55,
            "name": "G3",
            "ticks": 19110,
            "time": 57.816368749999995,
            "velocity": 1
          },
          {
            "duration": 0.08778620833333406,
            "durationTicks": 23,
            "midi": 56,
            "name": "G#3",
            "ticks": 19130,
            "time": 57.89270458333333,
            "velocity": 1
          },
          {
            "duration": 0.05725187499999862,
            "durationTicks": 15,
            "midi": 58,
            "name": "A#3",
            "ticks": 19142,
            "time": 57.93850608333333,
            "velocity": 0.905511811023622
          },
          {
            "duration": 0.11450374999999724,
            "durationTicks": 30,
            "midi": 60,
            "name": "C4",
            "ticks": 19166,
            "time": 58.03010908333333,
            "velocity": 0.8740157480314961
          },
          {
            "duration": 0.14503808333333268,
            "durationTicks": 38,
            "midi": 62,
            "name": "D4",
            "ticks": 19191,
            "time": 58.125528875,
            "velocity": 1
          },
          {
            "duration": 0.45801499999999606,
            "durationTicks": 120,
            "midi": 63,
            "name": "D#4",
            "ticks": 19220,
            "time": 58.23621583333333,
            "velocity": 1
          },
          {
            "duration": 1.3101838749999999,
            "durationTicks": 283,
            "midi": 39,
            "name": "D#2",
            "ticks": 19680,
            "time": 59.99194,
            "velocity": 1
          },
          {
            "duration": 0.23148125000000164,
            "durationTicks": 50,
            "midi": 39,
            "name": "D#2",
            "ticks": 20042,
            "time": 61.66786425,
            "velocity": 1
          },
          {
            "duration": 4,
            "durationTicks": 480,
            "midi": 39,
            "name": "D#2",
            "ticks": 20180,
            "time": 62.380826666666664,
            "velocity": 1
          }
        ],
        "endOfTrackTicks": 20660
      },
      {
        "channel": 4,
        "controlChanges": {
          "0": [
            {
              "number": 0,
              "ticks": 0,
              "time": 0,
              "value": 0
            }
          ],
          "1": [
            {
              "number": 1,
              "ticks": 0,
              "time": 0,
              "value": 0
            }
          ],
          "7": [
            {
              "number": 7,
              "ticks": 0,
              "time": 0,
              "value": 0.8661417322834646
            }
          ],
          "10": [
            {
              "number": 10,
              "ticks": 0,
              "time": 0,
              "value": 1
            }
          ],
          "64": [
            {
              "number": 64,
              "ticks": 0,
              "time": 0,
              "value": 0
            }
          ]
        },
        "pitchBends": [
          {
            "ticks": 0,
            "time": 0,
            "value": 0
          }
        ],
        "instrument": {
          "family": "ensemble",
          "number": 48,
          "name": "string ensemble 1"
        },
        "name": "Contrabass",
        "notes": [
          {
            "duration": 0.09248533333333332,
            "durationTicks": 32,
            "midi": 39,
            "name": "D#2",
            "ticks": 0,
            "time": 0,
            "velocity": 1
          },
          {
            "duration": 0.07514433333333331,
            "durationTicks": 26,
            "midi": 34,
            "name": "A#1",
            "ticks": 115,
            "time": 0.33236916666666666,
            "velocity": 1
          },
          {
            "duration": 0.0780345,
            "durationTicks": 27,
            "midi": 39,
            "name": "D#2",
            "ticks": 225,
            "time": 0.6502874999999999,
            "velocity": 1
          },
          {
            "duration": 0.07225416666666662,
            "durationTicks": 25,
            "midi": 34,
            "name": "A#1",
            "ticks": 345,
            "time": 0.9971074999999999,
            "velocity": 1
          },
          {
            "duration": 0.08670500000000025,
            "durationTicks": 30,
            "midi": 39,
            "name": "D#2",
            "ticks": 468,
            "time": 1.3525979999999997,
            "velocity": 1
          },
          {
            "duration": 0.08092466666666676,
            "durationTicks": 28,
            "midi": 34,
            "name": "A#1",
            "ticks": 600,
            "time": 1.7340999999999998,
            "velocity": 1
          },
          {
            "duration": 0.08670499999999981,
            "durationTicks": 30,
            "midi": 39,
            "name": "D#2",
            "ticks": 725,
            "time": 2.0953708333333334,
            "velocity": 1
          },
          {
            "duration": 0.08670499999999981,
            "durationTicks": 30,
            "midi": 34,
            "name": "A#1",
            "ticks": 843,
            "time": 2.4364105,
            "velocity": 1
          },
          {
            "duration": 0.10115583333333333,
            "durationTicks": 35,
            "midi": 39,
            "name": "D#2",
            "ticks": 967,
            "time": 2.7947911666666663,
            "velocity": 1
          },
          {
            "duration": 0.08092466666666676,
            "durationTicks": 28,
            "midi": 34,
            "name": "A#1",
            "ticks": 1081,
            "time": 3.1242701666666663,
            "velocity": 1
          },
          {
            "duration": 0.0809246666666672,
            "durationTicks": 28,
            "midi": 39,
            "name": "D#2",
            "ticks": 1197,
            "time": 3.4595294999999995,
            "velocity": 1
          },
          {
            "duration": 0.0809246666666672,
            "durationTicks": 28,
            "midi": 34,
            "name": "A#1",
            "ticks": 1313,
            "time": 3.7947888333333326,
            "velocity": 1
          },
          {
            "duration": 0.09248533333333331,
            "durationTicks": 32,
            "midi": 39,
            "name": "D#2",
            "ticks": 1430,
            "time": 4.132938333333333,
            "velocity": 1
          },
          {
            "duration": 0.07803450000000023,
            "durationTicks": 27,
            "midi": 34,
            "name": "A#1",
            "ticks": 1547,
            "time": 4.471087833333333,
            "velocity": 0.968503937007874
          },
          {
            "duration": 0.08670499999999937,
            "durationTicks": 30,
            "midi": 39,
            "name": "D#2",
            "ticks": 1670,
            "time": 4.826578333333333,
            "velocity": 1
          },
          {
            "duration": 0.0924853333333342,
            "durationTicks": 32,
            "midi": 34,
            "name": "A#1",
            "ticks": 1790,
            "time": 5.173398333333332,
            "velocity": 1
          },
          {
            "duration": 0.10115583333333245,
            "durationTicks": 35,
            "midi": 39,
            "name": "D#2",
            "ticks": 1911,
            "time": 5.523108499999999,
            "velocity": 1
          },
          {
            "duration": 0.08670499999999937,
            "durationTicks": 30,
            "midi": 34,
            "name": "A#1",
            "ticks": 2030,
            "time": 5.867038333333333,
            "velocity": 1
          },
          {
            "duration": 0.08959516666666634,
            "durationTicks": 31,
            "midi": 39,
            "name": "D#2",
            "ticks": 2143,
            "time": 6.1936271666666665,
            "velocity": 1
          },
          {
            "duration": 0.07803450000000023,
            "durationTicks": 27,
            "midi": 34,
            "name": "A#1",
            "ticks": 2268,
            "time": 6.554897999999999,
            "velocity": 1
          },
          {
            "duration": 0.09537549999999939,
            "durationTicks": 33,
            "midi": 39,
            "name": "D#2",
            "ticks": 2390,
            "time": 6.907498333333333,
            "velocity": 1
          },
          {
            "duration": 0.08670500000000025,
            "durationTicks": 30,
            "midi": 34,
            "name": "A#1",
            "ticks": 2515,
            "time": 7.268769166666665,
            "velocity": 1
          },
          {
            "duration": 0.08959516666666723,
            "durationTicks": 31,
            "midi": 39,
            "name": "D#2",
            "ticks": 2637,
            "time": 7.621369499999999,
            "velocity": 1
          },
          {
            "duration": 0.08959516666666811,
            "durationTicks": 31,
            "midi": 34,
            "name": "A#1",
            "ticks": 2756,
            "time": 7.9652993333333315,
            "velocity": 1
          },
          {
            "duration": 0.09537550000000117,
            "durationTicks": 33,
            "midi": 39,
            "name": "D#2",
            "ticks": 2875,
            "time": 8.309229166666665,
            "velocity": 1
          },
          {
            "duration": 0.08670500000000025,
            "durationTicks": 30,
            "midi": 34,
            "name": "A#1",
            "ticks": 2990,
            "time": 8.641598333333333,
            "velocity": 1
          },
          {
            "duration": 0.08959516666666545,
            "durationTicks": 31,
            "midi": 39,
            "name": "D#2",
            "ticks": 3103,
            "time": 8.968187166666667,
            "velocity": 1
          },
          {
            "duration": 0.08670500000000025,
            "durationTicks": 30,
            "midi": 34,
            "name": "A#1",
            "ticks": 3221,
            "time": 9.309226833333332,
            "velocity": 1
          },
          {
            "duration": 0.08959516666666723,
            "durationTicks": 31,
            "midi": 39,
            "name": "D#2",
            "ticks": 3345,
            "time": 9.667607499999999,
            "velocity": 1
          },
          {
            "duration": 0.08092466666666809,
            "durationTicks": 28,
            "midi": 34,
            "name": "A#1",
            "ticks": 3465,
            "time": 10.014427499999998,
            "velocity": 1
          },
          {
            "duration": 0.08670500000000025,
            "durationTicks": 30,
            "midi": 39,
            "name": "D#2",
            "ticks": 3590,
            "time": 10.375698333333332,
            "velocity": 1
          },
          {
            "duration": 0.07514433333333415,
            "durationTicks": 26,
            "midi": 34,
            "name": "A#1",
            "ticks": 3716,
            "time": 10.739859333333332,
            "velocity": 1
          },
          {
            "duration": 1.2485519999999983,
            "durationTicks": 432,
            "midi": 46,
            "name": "A#2",
            "ticks": 3848,
            "time": 11.121361333333333,
            "velocity": 1
          },
          {
            "duration": 0.008670499999999137,
            "durationTicks": 3,
            "midi": 45,
            "name": "A2",
            "ticks": 3853,
            "time": 11.135812166666666,
            "velocity": 0.968503937007874
          },
          {
            "duration": 0.5838136666666642,
            "durationTicks": 202,
            "midi": 48,
            "name": "C3",
            "ticks": 4320,
            "time": 12.48552,
            "velocity": 1
          },
          {
            "duration": 0.6791891666666672,
            "durationTicks": 235,
            "midi": 48,
            "name": "C3",
            "ticks": 4545,
            "time": 13.135807499999999,
            "velocity": 1
          },
          {
            "duration": 0.9595353333333332,
            "durationTicks": 332,
            "midi": 46,
            "name": "A#2",
            "ticks": 4800,
            "time": 13.872799999999998,
            "velocity": 1
          },
          {
            "duration": 0.29768716666666784,
            "durationTicks": 103,
            "midi": 43,
            "name": "G2",
            "ticks": 5151,
            "time": 14.887248499999997,
            "velocity": 1
          },
          {
            "duration": 1.3439275000000013,
            "durationTicks": 465,
            "midi": 39,
            "name": "D#2",
            "ticks": 5275,
            "time": 15.245629166666665,
            "velocity": 1
          },
          {
            "duration": 1.338147166666662,
            "durationTicks": 463,
            "midi": 51,
            "name": "D#3",
            "ticks": 5753,
            "time": 16.627128833333334,
            "velocity": 1
          },
          {
            "duration": 0.6300563333333322,
            "durationTicks": 218,
            "midi": 50,
            "name": "D3",
            "ticks": 6235,
            "time": 18.020189166666665,
            "velocity": 1
          },
          {
            "duration": 0.6589580000000019,
            "durationTicks": 228,
            "midi": 48,
            "name": "C3",
            "ticks": 6472,
            "time": 18.705158666666662,
            "velocity": 1
          },
          {
            "duration": 1.3525980000000004,
            "durationTicks": 468,
            "midi": 46,
            "name": "A#2",
            "ticks": 6715,
            "time": 19.407469166666665,
            "velocity": 1
          },
          {
            "duration": 1.2225404999999974,
            "durationTicks": 423,
            "midi": 48,
            "name": "C3",
            "ticks": 7196,
            "time": 20.797639333333333,
            "velocity": 1
          },
          {
            "duration": 1.2312109999999983,
            "durationTicks": 426,
            "midi": 44,
            "name": "G#2",
            "ticks": 7680,
            "time": 22.196479999999998,
            "velocity": 1
          },
          {
            "duration": 0.5953743333333321,
            "durationTicks": 206,
            "midi": 46,
            "name": "A#2",
            "ticks": 8152,
            "time": 23.560638666666666,
            "velocity": 1
          },
          {
            "duration": 0.5491316666666641,
            "durationTicks": 190,
            "midi": 46,
            "name": "A#2",
            "ticks": 8400,
            "time": 24.277399999999997,
            "velocity": 1
          },
          {
            "duration": 1.0115583333333333,
            "durationTicks": 350,
            "midi": 43,
            "name": "G2",
            "ticks": 8635,
            "time": 24.956589166666664,
            "velocity": 1
          },
          {
            "duration": 0.20231166666666667,
            "durationTicks": 70,
            "midi": 44,
            "name": "G#2",
            "ticks": 8990,
            "time": 25.982598333333332,
            "velocity": 1
          },
          {
            "duration": 0.1734100000000005,
            "durationTicks": 60,
            "midi": 45,
            "name": "A2",
            "ticks": 9117,
            "time": 26.349649499999995,
            "velocity": 0.968503937007874
          },
          {
            "duration": 0.1936411666666622,
            "durationTicks": 67,
            "midi": 46,
            "name": "A#2",
            "ticks": 9228,
            "time": 26.670458,
            "velocity": 1
          },
          {
            "duration": 0.1445083333333379,
            "durationTicks": 50,
            "midi": 47,
            "name": "B2",
            "ticks": 9351,
            "time": 27.025948499999995,
            "velocity": 1
          },
          {
            "duration": 0.14450833333333435,
            "durationTicks": 50,
            "midi": 48,
            "name": "C3",
            "ticks": 9475,
            "time": 27.384329166666664,
            "velocity": 1
          },
          {
            "duration": 0.10693616666666728,
            "durationTicks": 37,
            "midi": 46,
            "name": "A#2",
            "ticks": 9597,
            "time": 27.736929499999995,
            "velocity": 1
          },
          {
            "duration": 0.124277166666662,
            "durationTicks": 43,
            "midi": 34,
            "name": "A#1",
            "ticks": 9676,
            "time": 27.965252666666665,
            "velocity": 1
          },
          {
            "duration": 0.1098263333333307,
            "durationTicks": 38,
            "midi": 34,
            "name": "A#1",
            "ticks": 9761,
            "time": 28.210916833333332,
            "velocity": 1
          },
          {
            "duration": 0.11560666666666464,
            "durationTicks": 40,
            "midi": 34,
            "name": "A#1",
            "ticks": 9840,
            "time": 28.439239999999998,
            "velocity": 1
          },
          {
            "duration": 0.10404600000000386,
            "durationTicks": 36,
            "midi": 34,
            "name": "A#1",
            "ticks": 9925,
            "time": 28.684904166666662,
            "velocity": 1
          },
          {
            "duration": 0.11849683333333516,
            "durationTicks": 41,
            "midi": 34,
            "name": "A#1",
            "ticks": 10005,
            "time": 28.916117499999995,
            "velocity": 1
          },
          {
            "duration": 0.1300574999999995,
            "durationTicks": 45,
            "midi": 34,
            "name": "A#1",
            "ticks": 10083,
            "time": 29.141550499999997,
            "velocity": 1
          },
          {
            "duration": 0.12138699999999858,
            "durationTicks": 42,
            "midi": 34,
            "name": "A#1",
            "ticks": 10162,
            "time": 29.369873666666663,
            "velocity": 1
          },
          {
            "duration": 0.11560666666666819,
            "durationTicks": 40,
            "midi": 34,
            "name": "A#1",
            "ticks": 10240,
            "time": 29.595306666666662,
            "velocity": 1
          },
          {
            "duration": 0.10404599999999675,
            "durationTicks": 36,
            "midi": 34,
            "name": "A#1",
            "ticks": 10318,
            "time": 29.820739666666665,
            "velocity": 1
          },
          {
            "duration": 0.07225416666666362,
            "durationTicks": 25,
            "midi": 34,
            "name": "A#1",
            "ticks": 10395,
            "time": 30.043282499999997,
            "velocity": 1
          },
          {
            "duration": 0.12138700000000213,
            "durationTicks": 42,
            "midi": 34,
            "name": "A#1",
            "ticks": 10478,
            "time": 30.28316633333333,
            "velocity": 0.905511811023622
          },
          {
            "duration": 0.14739850000000132,
            "durationTicks": 51,
            "midi": 46,
            "name": "A#2",
            "ticks": 10550,
            "time": 30.49125833333333,
            "velocity": 1
          },
          {
            "duration": 0.10115583333332978,
            "durationTicks": 35,
            "midi": 45,
            "name": "A2",
            "ticks": 10636,
            "time": 30.739812666666666,
            "velocity": 1
          },
          {
            "duration": 0.11560666666666464,
            "durationTicks": 40,
            "midi": 44,
            "name": "G#2",
            "ticks": 10711,
            "time": 30.956575166666667,
            "velocity": 0.968503937007874
          },
          {
            "duration": 0.11560666666666464,
            "durationTicks": 40,
            "midi": 43,
            "name": "G2",
            "ticks": 10790,
            "time": 31.184898333333333,
            "velocity": 1
          },
          {
            "duration": 0.11560666666666819,
            "durationTicks": 40,
            "midi": 42,
            "name": "F#2",
            "ticks": 10870,
            "time": 31.416111666666662,
            "velocity": 1
          },
          {
            "duration": 0.1098263333333378,
            "durationTicks": 38,
            "midi": 41,
            "name": "F2",
            "ticks": 10945,
            "time": 31.63287416666666,
            "velocity": 1
          },
          {
            "duration": 0.09537549999999584,
            "durationTicks": 33,
            "midi": 40,
            "name": "E2",
            "ticks": 11030,
            "time": 31.87853833333333,
            "velocity": 1
          },
          {
            "duration": 0.1098263333333378,
            "durationTicks": 38,
            "midi": 39,
            "name": "D#2",
            "ticks": 11112,
            "time": 32.115531999999995,
            "velocity": 1
          },
          {
            "duration": 0.1300574999999995,
            "durationTicks": 45,
            "midi": 38,
            "name": "D2",
            "ticks": 11195,
            "time": 32.35541583333333,
            "velocity": 0.968503937007874
          },
          {
            "duration": 0.1300574999999995,
            "durationTicks": 45,
            "midi": 36,
            "name": "C2",
            "ticks": 11275,
            "time": 32.58662916666666,
            "velocity": 1
          },
          {
            "duration": 0.10115583333333689,
            "durationTicks": 35,
            "midi": 35,
            "name": "B1",
            "ticks": 11355,
            "time": 32.8178425,
            "velocity": 1
          },
          {
            "duration": 0.14450833333332724,
            "durationTicks": 50,
            "midi": 34,
            "name": "A#1",
            "ticks": 11435,
            "time": 33.049055833333334,
            "velocity": 1
          },
          {
            "duration": 0.1589591666666621,
            "durationTicks": 55,
            "midi": 39,
            "name": "D#2",
            "ticks": 11525,
            "time": 33.30917083333333,
            "velocity": 1
          },
          {
            "duration": 0.0895951666666619,
            "durationTicks": 31,
            "midi": 34,
            "name": "A#1",
            "ticks": 11750,
            "time": 33.95945833333333,
            "velocity": 1
          },
          {
            "duration": 0.12138699999999858,
            "durationTicks": 42,
            "midi": 34,
            "name": "A#1",
            "ticks": 11866,
            "time": 34.29471766666666,
            "velocity": 1
          },
          {
            "duration": 0.18208049999999787,
            "durationTicks": 63,
            "midi": 39,
            "name": "D#2",
            "ticks": 11990,
            "time": 34.65309833333333,
            "velocity": 1
          },
          {
            "duration": 0.08670499999999493,
            "durationTicks": 30,
            "midi": 34,
            "name": "A#1",
            "ticks": 12226,
            "time": 35.33517766666667,
            "velocity": 1
          },
          {
            "duration": 0.09537550000000294,
            "durationTicks": 33,
            "midi": 34,
            "name": "A#1",
            "ticks": 12345,
            "time": 35.67910749999999,
            "velocity": 1
          },
          {
            "duration": 0.11560666666666464,
            "durationTicks": 40,
            "midi": 39,
            "name": "D#2",
            "ticks": 12465,
            "time": 36.025927499999995,
            "velocity": 1
          },
          {
            "duration": 0.11849683333333161,
            "durationTicks": 41,
            "midi": 47,
            "name": "B2",
            "ticks": 12588,
            "time": 36.381418,
            "velocity": 1
          },
          {
            "duration": 0.10404599999999675,
            "durationTicks": 36,
            "midi": 39,
            "name": "D#2",
            "ticks": 12705,
            "time": 36.7195675,
            "velocity": 1
          },
          {
            "duration": 0.1300574999999995,
            "durationTicks": 45,
            "midi": 47,
            "name": "B2",
            "ticks": 12820,
            "time": 37.05193666666666,
            "velocity": 1
          },
          {
            "duration": 0.10404600000000386,
            "durationTicks": 36,
            "midi": 39,
            "name": "D#2",
            "ticks": 12942,
            "time": 37.40453699999999,
            "velocity": 1
          },
          {
            "duration": 0.11560666666666464,
            "durationTicks": 40,
            "midi": 47,
            "name": "B2",
            "ticks": 13058,
            "time": 37.73979633333333,
            "velocity": 1
          },
          {
            "duration": 0.11560666666666464,
            "durationTicks": 40,
            "midi": 39,
            "name": "D#2",
            "ticks": 13175,
            "time": 38.07794583333333,
            "velocity": 1
          },
          {
            "duration": 0.11849683333333161,
            "durationTicks": 41,
            "midi": 47,
            "name": "B2",
            "ticks": 13300,
            "time": 38.43921666666666,
            "velocity": 1
          },
          {
            "duration": 0.09537550000000294,
            "durationTicks": 33,
            "midi": 39,
            "name": "D#2",
            "ticks": 13423,
            "time": 38.79470716666666,
            "velocity": 1
          },
          {
            "duration": 0.11849683333333161,
            "durationTicks": 41,
            "midi": 43,
            "name": "G2",
            "ticks": 13548,
            "time": 39.155978,
            "velocity": 1
          },
          {
            "duration": 0.1098263333333307,
            "durationTicks": 38,
            "midi": 36,
            "name": "C2",
            "ticks": 13668,
            "time": 39.502798,
            "velocity": 1
          },
          {
            "duration": 0.13294766666666646,
            "durationTicks": 46,
            "midi": 43,
            "name": "G2",
            "ticks": 13793,
            "time": 39.86406883333333,
            "velocity": 1
          },
          {
            "duration": 0.11849683333333161,
            "durationTicks": 41,
            "midi": 36,
            "name": "C2",
            "ticks": 13915,
            "time": 40.21666916666666,
            "velocity": 1
          },
          {
            "duration": 0.11560666666666464,
            "durationTicks": 40,
            "midi": 43,
            "name": "G2",
            "ticks": 14030,
            "time": 40.54903833333333,
            "velocity": 1
          },
          {
            "duration": 0.11560666666666464,
            "durationTicks": 40,
            "midi": 36,
            "name": "C2",
            "ticks": 14150,
            "time": 40.89585833333333,
            "velocity": 1
          },
          {
            "duration": 0.11560666666666464,
            "durationTicks": 40,
            "midi": 34,
            "name": "A#1",
            "ticks": 14271,
            "time": 41.2455685,
            "velocity": 1
          },
          {
            "duration": 0.13294766666667357,
            "durationTicks": 46,
            "midi": 39,
            "name": "D#2",
            "ticks": 14395,
            "time": 41.60394916666666,
            "velocity": 1
          },
          {
            "duration": 0.1878608333333318,
            "durationTicks": 65,
            "midi": 39,
            "name": "D#2",
            "ticks": 14870,
            "time": 42.97677833333333,
            "velocity": 1
          },
          {
            "duration": 0.1878608333333318,
            "durationTicks": 65,
            "midi": 39,
            "name": "D#2",
            "ticks": 15360,
            "time": 44.392959999999995,
            "velocity": 1
          },
          {
            "duration": 0.15028866666666119,
            "durationTicks": 52,
            "midi": 39,
            "name": "D#2",
            "ticks": 15842,
            "time": 45.78602033333333,
            "velocity": 1
          },
          {
            "duration": 0.3282440833333311,
            "durationTicks": 86,
            "midi": 39,
            "name": "D#2",
            "ticks": 16323,
            "time": 47.178970375,
            "velocity": 1
          },
          {
            "duration": 0.40076312499999744,
            "durationTicks": 105,
            "midi": 39,
            "name": "D#2",
            "ticks": 16550,
            "time": 48.04538208333333,
            "velocity": 1
          },
          {
            "duration": 0.11450374999999724,
            "durationTicks": 30,
            "midi": 39,
            "name": "D#2",
            "ticks": 16738,
            "time": 48.76293891666666,
            "velocity": 1
          },
          {
            "duration": 0.36641199999999685,
            "durationTicks": 96,
            "midi": 39,
            "name": "D#2",
            "ticks": 16793,
            "time": 48.97286245833333,
            "velocity": 1
          },
          {
            "duration": 0.4465646250000006,
            "durationTicks": 117,
            "midi": 39,
            "name": "D#2",
            "ticks": 17028,
            "time": 49.8698085,
            "velocity": 1
          },
          {
            "duration": 1.0305337499999965,
            "durationTicks": 270,
            "midi": 39,
            "name": "D#2",
            "ticks": 17266,
            "time": 50.77820491666667,
            "velocity": 1
          },
          {
            "duration": 0.9809154583333353,
            "durationTicks": 257,
            "midi": 39,
            "name": "D#2",
            "ticks": 17772,
            "time": 52.709501499999995,
            "velocity": 1
          },
          {
            "duration": 1.194655791666662,
            "durationTicks": 313,
            "midi": 39,
            "name": "D#2",
            "ticks": 18235,
            "time": 54.476676041666664,
            "velocity": 1
          },
          {
            "duration": 0.09541979166667147,
            "durationTicks": 25,
            "midi": 39,
            "name": "D#2",
            "ticks": 18580,
            "time": 55.79346916666666,
            "velocity": 0.6850393700787402
          },
          {
            "duration": 0.1335877083333301,
            "durationTicks": 35,
            "midi": 41,
            "name": "F2",
            "ticks": 18610,
            "time": 55.907972916666665,
            "velocity": 0.8110236220472441
          },
          {
            "duration": 0.13358770833333722,
            "durationTicks": 35,
            "midi": 43,
            "name": "G2",
            "ticks": 18640,
            "time": 56.02247666666666,
            "velocity": 0.905511811023622
          },
          {
            "duration": 0.09541979166667147,
            "durationTicks": 25,
            "midi": 44,
            "name": "G#2",
            "ticks": 18655,
            "time": 56.07972854166666,
            "velocity": 1
          },
          {
            "duration": 0.06488545833333603,
            "durationTicks": 17,
            "midi": 46,
            "name": "A#2",
            "ticks": 18668,
            "time": 56.12934683333333,
            "velocity": 0.8110236220472441
          },
          {
            "duration": 0.2366410833333319,
            "durationTicks": 62,
            "midi": 48,
            "name": "C3",
            "ticks": 18691,
            "time": 56.21713304166666,
            "velocity": 0.905511811023622
          },
          {
            "duration": 0.14503808333333268,
            "durationTicks": 38,
            "midi": 50,
            "name": "D3",
            "ticks": 18715,
            "time": 56.30873604166666,
            "velocity": 1
          },
          {
            "duration": 0.47709895833333604,
            "durationTicks": 125,
            "midi": 51,
            "name": "D#3",
            "ticks": 18745,
            "time": 56.42323979166666,
            "velocity": 1
          },
          {
            "duration": 0.45801499999999606,
            "durationTicks": 120,
            "midi": 51,
            "name": "D#3",
            "ticks": 19206,
            "time": 58.18278075,
            "velocity": 1
          },
          {
            "duration": 1.2777765000000016,
            "durationTicks": 276,
            "midi": 39,
            "name": "D#2",
            "ticks": 19681,
            "time": 59.996569625,
            "velocity": 1
          },
          {
            "duration": 0.24537012500000088,
            "durationTicks": 53,
            "midi": 39,
            "name": "D#2",
            "ticks": 20055,
            "time": 61.728049375,
            "velocity": 1
          },
          {
            "duration": 4,
            "durationTicks": 480,
            "midi": 39,
            "name": "D#2",
            "ticks": 20183,
            "time": 62.40582666666667,
            "velocity": 1
          }
        ],
        "endOfTrackTicks": 20663
      },
      {
        "channel": 5,
        "controlChanges": {
          "0": [
            {
              "number": 0,
              "ticks": 0,
              "time": 0,
              "value": 0
            }
          ],
          "1": [
            {
              "number": 1,
              "ticks": 0,
              "time": 0,
              "value": 0
            }
          ],
          "7": [
            {
              "number": 7,
              "ticks": 0,
              "time": 0,
              "value": 0.7480314960629921
            }
          ],
          "10": [
            {
              "number": 10,
              "ticks": 0,
              "time": 0,
              "value": 0.5511811023622047
            }
          ],
          "64": [
            {
              "number": 64,
              "ticks": 0,
              "time": 0,
              "value": 0
            }
          ]
        },
        "pitchBends": [
          {
            "ticks": 0,
            "time": 0,
            "value": 0
          }
        ],
        "instrument": {
          "family": "pipe",
          "number": 72,
          "name": "piccolo"
        },
        "name": "Flute 1",
        "notes": [
          {
            "duration": 0.04335249999999999,
            "durationTicks": 15,
            "midi": 82,
            "name": "A#5",
            "ticks": 70,
            "time": 0.20231166666666667,
            "velocity": 0.7007874015748031
          },
          {
            "duration": 0.046242666666666654,
            "durationTicks": 16,
            "midi": 82,
            "name": "A#5",
            "ticks": 100,
            "time": 0.28901666666666664,
            "velocity": 0.5826771653543307
          },
          {
            "duration": 0.04913283333333335,
            "durationTicks": 17,
            "midi": 87,
            "name": "D#6",
            "ticks": 126,
            "time": 0.36416099999999996,
            "velocity": 0.6614173228346457
          },
          {
            "duration": 0.04913283333333335,
            "durationTicks": 17,
            "midi": 79,
            "name": "G5",
            "ticks": 126,
            "time": 0.36416099999999996,
            "velocity": 0.6220472440944882
          },
          {
            "duration": 0.03468199999999999,
            "durationTicks": 12,
            "midi": 82,
            "name": "A#5",
            "ticks": 185,
            "time": 0.5346808333333333,
            "velocity": 0.5669291338582677
          },
          {
            "duration": 0.046242666666666654,
            "durationTicks": 16,
            "midi": 89,
            "name": "F6",
            "ticks": 185,
            "time": 0.5346808333333333,
            "velocity": 0.5196850393700787
          },
          {
            "duration": 0.07225416666666673,
            "durationTicks": 25,
            "midi": 89,
            "name": "F6",
            "ticks": 288,
            "time": 0.8323679999999999,
            "velocity": 0.5669291338582677
          },
          {
            "duration": 0.06358366666666682,
            "durationTicks": 22,
            "midi": 82,
            "name": "A#5",
            "ticks": 291,
            "time": 0.8410384999999998,
            "velocity": 0.4015748031496063
          },
          {
            "duration": 0.06358366666666648,
            "durationTicks": 22,
            "midi": 87,
            "name": "D#6",
            "ticks": 355,
            "time": 1.0260091666666666,
            "velocity": 0.6062992125984252
          },
          {
            "duration": 0.0491328333333334,
            "durationTicks": 17,
            "midi": 79,
            "name": "G5",
            "ticks": 357,
            "time": 1.0317895,
            "velocity": 0.5196850393700787
          },
          {
            "duration": 0.046242666666666654,
            "durationTicks": 16,
            "midi": 82,
            "name": "A#5",
            "ticks": 420,
            "time": 1.2138699999999998,
            "velocity": 0.6062992125984252
          },
          {
            "duration": 0.07225416666666673,
            "durationTicks": 25,
            "midi": 89,
            "name": "F6",
            "ticks": 420,
            "time": 1.2138699999999998,
            "velocity": 0.6220472440944882
          },
          {
            "duration": 0.060693499999999956,
            "durationTicks": 21,
            "midi": 91,
            "name": "G6",
            "ticks": 486,
            "time": 1.4046209999999997,
            "velocity": 0.8740157480314961
          },
          {
            "duration": 0.04913283333333318,
            "durationTicks": 17,
            "midi": 87,
            "name": "D#6",
            "ticks": 487,
            "time": 1.4075111666666666,
            "velocity": 0.984251968503937
          },
          {
            "duration": 0.07225416666666673,
            "durationTicks": 25,
            "midi": 87,
            "name": "D#6",
            "ticks": 597,
            "time": 1.7254294999999997,
            "velocity": 0.5669291338582677
          },
          {
            "duration": 0.05202300000000015,
            "durationTicks": 18,
            "midi": 79,
            "name": "G5",
            "ticks": 598,
            "time": 1.7283196666666665,
            "velocity": 0.5039370078740157
          },
          {
            "duration": 0.7225416666666664,
            "durationTicks": 250,
            "midi": 87,
            "name": "D#6",
            "ticks": 725,
            "time": 2.0953708333333334,
            "velocity": 0.8267716535433071
          },
          {
            "duration": 0.7167613333333334,
            "durationTicks": 248,
            "midi": 79,
            "name": "G5",
            "ticks": 727,
            "time": 2.1011511666666665,
            "velocity": 0.5196850393700787
          },
          {
            "duration": 0.03179183333333313,
            "durationTicks": 11,
            "midi": 82,
            "name": "A#5",
            "ticks": 1035,
            "time": 2.9913225,
            "velocity": 0.5826771653543307
          },
          {
            "duration": 0.04335250000000013,
            "durationTicks": 15,
            "midi": 82,
            "name": "A#5",
            "ticks": 1060,
            "time": 3.0635766666666666,
            "velocity": 0.5196850393700787
          },
          {
            "duration": 0.05780333333333321,
            "durationTicks": 20,
            "midi": 87,
            "name": "D#6",
            "ticks": 1086,
            "time": 3.138721,
            "velocity": 0.9212598425196851
          },
          {
            "duration": 0.031791833333333575,
            "durationTicks": 11,
            "midi": 79,
            "name": "G5",
            "ticks": 1090,
            "time": 3.1502816666666664,
            "velocity": 0.5669291338582677
          },
          {
            "duration": 0.037572166666666185,
            "durationTicks": 13,
            "midi": 82,
            "name": "A#5",
            "ticks": 1146,
            "time": 3.312131,
            "velocity": 0.30708661417322836
          },
          {
            "duration": 0.04913283333333274,
            "durationTicks": 17,
            "midi": 89,
            "name": "F6",
            "ticks": 1147,
            "time": 3.3150211666666665,
            "velocity": 0.5196850393700787
          },
          {
            "duration": 0.049132833333333625,
            "durationTicks": 17,
            "midi": 91,
            "name": "G6",
            "ticks": 1205,
            "time": 3.4826508333333326,
            "velocity": 0.6220472440944882
          },
          {
            "duration": 0.04335250000000013,
            "durationTicks": 15,
            "midi": 87,
            "name": "D#6",
            "ticks": 1205,
            "time": 3.4826508333333326,
            "velocity": 0.8740157480314961
          },
          {
            "duration": 0.04335250000000013,
            "durationTicks": 15,
            "midi": 82,
            "name": "A#5",
            "ticks": 1265,
            "time": 3.6560608333333326,
            "velocity": 0.5669291338582677
          },
          {
            "duration": 0.05202300000000015,
            "durationTicks": 18,
            "midi": 89,
            "name": "F6",
            "ticks": 1265,
            "time": 3.6560608333333326,
            "velocity": 0.5826771653543307
          },
          {
            "duration": 0.06069350000000018,
            "durationTicks": 21,
            "midi": 87,
            "name": "D#6",
            "ticks": 1321,
            "time": 3.817910166666666,
            "velocity": 0.5433070866141733
          },
          {
            "duration": 0.04335250000000013,
            "durationTicks": 15,
            "midi": 79,
            "name": "G5",
            "ticks": 1322,
            "time": 3.820800333333333,
            "velocity": 0.5433070866141733
          },
          {
            "duration": 0.03757216666666707,
            "durationTicks": 13,
            "midi": 82,
            "name": "A#5",
            "ticks": 1381,
            "time": 3.9913201666666662,
            "velocity": 0.4330708661417323
          },
          {
            "duration": 0.060693499999999734,
            "durationTicks": 21,
            "midi": 89,
            "name": "F6",
            "ticks": 1383,
            "time": 3.9971004999999997,
            "velocity": 0.5669291338582677
          },
          {
            "duration": 0.05780333333333321,
            "durationTicks": 20,
            "midi": 91,
            "name": "G6",
            "ticks": 1440,
            "time": 4.16184,
            "velocity": 0.8740157480314961
          },
          {
            "duration": 0.03757216666666707,
            "durationTicks": 13,
            "midi": 87,
            "name": "D#6",
            "ticks": 1441,
            "time": 4.164730166666666,
            "velocity": 0.9921259842519685
          },
          {
            "duration": 0.07225416666666629,
            "durationTicks": 25,
            "midi": 87,
            "name": "D#6",
            "ticks": 1560,
            "time": 4.50866,
            "velocity": 0.8740157480314961
          },
          {
            "duration": 0.057803333333334095,
            "durationTicks": 20,
            "midi": 79,
            "name": "G5",
            "ticks": 1561,
            "time": 4.511550166666666,
            "velocity": 0.6220472440944882
          },
          {
            "duration": 0.5375709999999998,
            "durationTicks": 186,
            "midi": 87,
            "name": "D#6",
            "ticks": 1681,
            "time": 4.858370166666666,
            "velocity": 0.984251968503937
          },
          {
            "duration": 0.5289004999999998,
            "durationTicks": 183,
            "midi": 79,
            "name": "G5",
            "ticks": 1682,
            "time": 4.861260333333333,
            "velocity": 0.6220472440944882
          },
          {
            "duration": 0.03757216666666707,
            "durationTicks": 13,
            "midi": 84,
            "name": "C6",
            "ticks": 2005,
            "time": 5.794784166666665,
            "velocity": 0.8031496062992126
          },
          {
            "duration": 0.01734100000000094,
            "durationTicks": 6,
            "midi": 80,
            "name": "G#5",
            "ticks": 2005,
            "time": 5.794784166666665,
            "velocity": 0.3937007874015748
          },
          {
            "duration": 0.046242666666667986,
            "durationTicks": 16,
            "midi": 80,
            "name": "G#5",
            "ticks": 2028,
            "time": 5.8612579999999985,
            "velocity": 0.8031496062992126
          },
          {
            "duration": 0.05780333333333232,
            "durationTicks": 20,
            "midi": 89,
            "name": "F6",
            "ticks": 2030,
            "time": 5.867038333333333,
            "velocity": 0.8976377952755905
          },
          {
            "duration": 0.04913283333333496,
            "durationTicks": 17,
            "midi": 91,
            "name": "G6",
            "ticks": 2095,
            "time": 6.054899166666665,
            "velocity": 0.7086614173228346
          },
          {
            "duration": 0.0462426666666671,
            "durationTicks": 16,
            "midi": 84,
            "name": "C6",
            "ticks": 2095,
            "time": 6.054899166666665,
            "velocity": 0.5826771653543307
          },
          {
            "duration": 0.0722541666666654,
            "durationTicks": 25,
            "midi": 89,
            "name": "F6",
            "ticks": 2150,
            "time": 6.2138583333333335,
            "velocity": 0.7401574803149606
          },
          {
            "duration": 0.04913283333333407,
            "durationTicks": 17,
            "midi": 80,
            "name": "G#5",
            "ticks": 2155,
            "time": 6.228309166666666,
            "velocity": 0.7086614173228346
          },
          {
            "duration": 0.05202300000000104,
            "durationTicks": 18,
            "midi": 84,
            "name": "C6",
            "ticks": 2215,
            "time": 6.401719166666665,
            "velocity": 0.8661417322834646
          },
          {
            "duration": 0.04624266666666621,
            "durationTicks": 16,
            "midi": 79,
            "name": "G5",
            "ticks": 2217,
            "time": 6.4074995,
            "velocity": 0.7086614173228346
          },
          {
            "duration": 0.05780333333333321,
            "durationTicks": 20,
            "midi": 80,
            "name": "G#5",
            "ticks": 2270,
            "time": 6.560678333333333,
            "velocity": 0.7716535433070866
          },
          {
            "duration": 0.04624266666666621,
            "durationTicks": 16,
            "midi": 77,
            "name": "F5",
            "ticks": 2271,
            "time": 6.5635685,
            "velocity": 0.6456692913385826
          },
          {
            "duration": 0.0606934999999984,
            "durationTicks": 21,
            "midi": 84,
            "name": "C6",
            "ticks": 2330,
            "time": 6.734088333333333,
            "velocity": 0.8031496062992126
          },
          {
            "duration": 0.03468199999999921,
            "durationTicks": 12,
            "midi": 79,
            "name": "G5",
            "ticks": 2331,
            "time": 6.736978499999999,
            "velocity": 0.6771653543307087
          },
          {
            "duration": 0.046242666666667986,
            "durationTicks": 16,
            "midi": 80,
            "name": "G#5",
            "ticks": 2388,
            "time": 6.901717999999999,
            "velocity": 0.7716535433070866
          },
          {
            "duration": 0.06358366666666715,
            "durationTicks": 22,
            "midi": 89,
            "name": "F6",
            "ticks": 2390,
            "time": 6.907498333333333,
            "velocity": 0.7086614173228346
          },
          {
            "duration": 0.05780333333333232,
            "durationTicks": 20,
            "midi": 84,
            "name": "C6",
            "ticks": 2451,
            "time": 7.083798499999999,
            "velocity": 0.7086614173228346
          },
          {
            "duration": 0.04624266666666621,
            "durationTicks": 16,
            "midi": 79,
            "name": "G5",
            "ticks": 2453,
            "time": 7.0895788333333325,
            "velocity": 0.7086614173228346
          },
          {
            "duration": 0.05202300000000015,
            "durationTicks": 18,
            "midi": 80,
            "name": "G#5",
            "ticks": 2508,
            "time": 7.248537999999999,
            "velocity": 0.5826771653543307
          },
          {
            "duration": 0.03179183333333313,
            "durationTicks": 11,
            "midi": 77,
            "name": "F5",
            "ticks": 2510,
            "time": 7.254318333333333,
            "velocity": 0.4566929133858268
          },
          {
            "duration": 0.03179183333333313,
            "durationTicks": 11,
            "midi": 79,
            "name": "G5",
            "ticks": 2570,
            "time": 7.427728333333333,
            "velocity": 0.4881889763779528
          },
          {
            "duration": 0.05780333333333321,
            "durationTicks": 20,
            "midi": 84,
            "name": "C6",
            "ticks": 2570,
            "time": 7.427728333333333,
            "velocity": 0.7716535433070866
          },
          {
            "duration": 0.6849695000000002,
            "durationTicks": 237,
            "midi": 80,
            "name": "G#5",
            "ticks": 2637,
            "time": 7.621369499999999,
            "velocity": 0.8976377952755905
          },
          {
            "duration": 0.6965301666666663,
            "durationTicks": 241,
            "midi": 89,
            "name": "F6",
            "ticks": 2637,
            "time": 7.621369499999999,
            "velocity": 0.8661417322834646
          },
          {
            "duration": 0.03179183333333491,
            "durationTicks": 11,
            "midi": 82,
            "name": "A#5",
            "ticks": 2935,
            "time": 8.482639166666665,
            "velocity": 0.8661417322834646
          },
          {
            "duration": 0.03179183333333313,
            "durationTicks": 11,
            "midi": 79,
            "name": "G5",
            "ticks": 2937,
            "time": 8.4884195,
            "velocity": 0.7086614173228346
          },
          {
            "duration": 0.04335249999999924,
            "durationTicks": 15,
            "midi": 82,
            "name": "A#5",
            "ticks": 2962,
            "time": 8.560673666666666,
            "velocity": 0.6771653543307087
          },
          {
            "duration": 0.04335249999999924,
            "durationTicks": 15,
            "midi": 79,
            "name": "G5",
            "ticks": 2991,
            "time": 8.6444885,
            "velocity": 0.6141732283464567
          },
          {
            "duration": 0.049132833333331405,
            "durationTicks": 17,
            "midi": 87,
            "name": "D#6",
            "ticks": 2992,
            "time": 8.647378666666667,
            "velocity": 0.8661417322834646
          },
          {
            "duration": 0.043352500000001015,
            "durationTicks": 15,
            "midi": 82,
            "name": "A#5",
            "ticks": 3052,
            "time": 8.820788666666665,
            "velocity": 0.6771653543307087
          },
          {
            "duration": 0.04624266666666621,
            "durationTicks": 16,
            "midi": 89,
            "name": "F6",
            "ticks": 3053,
            "time": 8.823678833333332,
            "velocity": 0.7716535433070866
          },
          {
            "duration": 0.052022999999998376,
            "durationTicks": 18,
            "midi": 87,
            "name": "D#6",
            "ticks": 3110,
            "time": 8.988418333333334,
            "velocity": 0.7716535433070866
          },
          {
            "duration": 0.03757216666666707,
            "durationTicks": 13,
            "midi": 79,
            "name": "G5",
            "ticks": 3113,
            "time": 8.997088833333333,
            "velocity": 0.8031496062992126
          },
          {
            "duration": 0.04624266666666621,
            "durationTicks": 16,
            "midi": 82,
            "name": "A#5",
            "ticks": 3170,
            "time": 9.161828333333332,
            "velocity": 0.8031496062992126
          },
          {
            "duration": 0.037572166666665296,
            "durationTicks": 13,
            "midi": 77,
            "name": "F5",
            "ticks": 3170,
            "time": 9.161828333333332,
            "velocity": 0.7086614173228346
          },
          {
            "duration": 0.03757216666666707,
            "durationTicks": 13,
            "midi": 75,
            "name": "D#5",
            "ticks": 3226,
            "time": 9.323677666666665,
            "velocity": 0.6456692913385826
          },
          {
            "duration": 0.05202300000000193,
            "durationTicks": 18,
            "midi": 79,
            "name": "G5",
            "ticks": 3226,
            "time": 9.323677666666665,
            "velocity": 0.8031496062992126
          },
          {
            "duration": 0.04624266666666621,
            "durationTicks": 16,
            "midi": 82,
            "name": "A#5",
            "ticks": 3290,
            "time": 9.508648333333333,
            "velocity": 0.8661417322834646
          },
          {
            "duration": 0.02890166666666616,
            "durationTicks": 10,
            "midi": 77,
            "name": "F5",
            "ticks": 3292,
            "time": 9.514428666666666,
            "velocity": 0.5826771653543307
          },
          {
            "duration": 0.05202300000000015,
            "durationTicks": 18,
            "midi": 79,
            "name": "G5",
            "ticks": 3350,
            "time": 9.682058333333332,
            "velocity": 0.7401574803149606
          },
          {
            "duration": 0.05202300000000015,
            "durationTicks": 18,
            "midi": 87,
            "name": "D#6",
            "ticks": 3351,
            "time": 9.684948499999999,
            "velocity": 0.6141732283464567
          },
          {
            "duration": 0.052022999999998376,
            "durationTicks": 18,
            "midi": 82,
            "name": "A#5",
            "ticks": 3411,
            "time": 9.8583585,
            "velocity": 0.6456692913385826
          },
          {
            "duration": 0.034681999999998325,
            "durationTicks": 12,
            "midi": 77,
            "name": "F5",
            "ticks": 3411,
            "time": 9.8583585,
            "velocity": 0.6456692913385826
          },
          {
            "duration": 0.04335249999999924,
            "durationTicks": 15,
            "midi": 75,
            "name": "D#5",
            "ticks": 3467,
            "time": 10.020207833333332,
            "velocity": 0.6141732283464567
          },
          {
            "duration": 0.04624266666666621,
            "durationTicks": 16,
            "midi": 79,
            "name": "G5",
            "ticks": 3470,
            "time": 10.028878333333333,
            "velocity": 0.7716535433070866
          },
          {
            "duration": 0.0346820000000001,
            "durationTicks": 12,
            "midi": 77,
            "name": "F5",
            "ticks": 3530,
            "time": 10.202288333333332,
            "velocity": 0.6141732283464567
          },
          {
            "duration": 0.05202300000000015,
            "durationTicks": 18,
            "midi": 82,
            "name": "A#5",
            "ticks": 3531,
            "time": 10.205178499999999,
            "velocity": 0.6456692913385826
          },
          {
            "duration": 0.7109810000000003,
            "durationTicks": 246,
            "midi": 87,
            "name": "D#6",
            "ticks": 3592,
            "time": 10.381478666666666,
            "velocity": 0.9291338582677166
          },
          {
            "duration": 0.7023104999999994,
            "durationTicks": 243,
            "midi": 79,
            "name": "G5",
            "ticks": 3593,
            "time": 10.384368833333331,
            "velocity": 0.8661417322834646
          },
          {
            "duration": 0.028901666666667936,
            "durationTicks": 10,
            "midi": 82,
            "name": "A#5",
            "ticks": 3898,
            "time": 11.265869666666665,
            "velocity": 0.7086614173228346
          },
          {
            "duration": 0.04335249999999924,
            "durationTicks": 15,
            "midi": 79,
            "name": "G5",
            "ticks": 3900,
            "time": 11.27165,
            "velocity": 0.7086614173228346
          },
          {
            "duration": 0.04335249999999924,
            "durationTicks": 15,
            "midi": 82,
            "name": "A#5",
            "ticks": 3925,
            "time": 11.343904166666666,
            "velocity": 0.7086614173228346
          },
          {
            "duration": 0.04624266666666621,
            "durationTicks": 16,
            "midi": 87,
            "name": "D#6",
            "ticks": 3955,
            "time": 11.430609166666667,
            "velocity": 0.8031496062992126
          },
          {
            "duration": 0.03757216666666707,
            "durationTicks": 13,
            "midi": 79,
            "name": "G5",
            "ticks": 3956,
            "time": 11.433499333333332,
            "velocity": 0.6141732283464567
          },
          {
            "duration": 0.04335249999999924,
            "durationTicks": 15,
            "midi": 82,
            "name": "A#5",
            "ticks": 4013,
            "time": 11.598238833333333,
            "velocity": 0.6141732283464567
          },
          {
            "duration": 0.05202300000000015,
            "durationTicks": 18,
            "midi": 89,
            "name": "F6",
            "ticks": 4015,
            "time": 11.604019166666665,
            "velocity": 0.8661417322834646
          },
          {
            "duration": 0.05202300000000193,
            "durationTicks": 18,
            "midi": 91,
            "name": "G6",
            "ticks": 4072,
            "time": 11.768758666666665,
            "velocity": 0.7716535433070866
          },
          {
            "duration": 0.04335249999999924,
            "durationTicks": 15,
            "midi": 87,
            "name": "D#6",
            "ticks": 4073,
            "time": 11.771648833333334,
            "velocity": 0.7086614173228346
          },
          {
            "duration": 0.05780333333333232,
            "durationTicks": 20,
            "midi": 82,
            "name": "A#5",
            "ticks": 4136,
            "time": 11.953729333333333,
            "velocity": 0.8976377952755905
          },
          {
            "duration": 0.049132833333331405,
            "durationTicks": 17,
            "midi": 89,
            "name": "F6",
            "ticks": 4136,
            "time": 11.953729333333333,
            "velocity": 0.8661417322834646
          },
          {
            "duration": 0.043352500000001015,
            "durationTicks": 15,
            "midi": 79,
            "name": "G5",
            "ticks": 4191,
            "time": 12.112688499999997,
            "velocity": 0.5196850393700787
          },
          {
            "duration": 0.05202300000000015,
            "durationTicks": 18,
            "midi": 87,
            "name": "D#6",
            "ticks": 4193,
            "time": 12.118468833333333,
            "velocity": 0.6771653543307087
          },
          {
            "duration": 0.04913283333333318,
            "durationTicks": 17,
            "midi": 82,
            "name": "A#5",
            "ticks": 4246,
            "time": 12.271647666666665,
            "velocity": 0.8661417322834646
          },
          {
            "duration": 0.04624266666666621,
            "durationTicks": 16,
            "midi": 89,
            "name": "F6",
            "ticks": 4250,
            "time": 12.28320833333333,
            "velocity": 0.9606299212598425
          },
          {
            "duration": 0.057803333333334095,
            "durationTicks": 20,
            "midi": 87,
            "name": "D#6",
            "ticks": 4310,
            "time": 12.456618333333331,
            "velocity": 0.8976377952755905
          },
          {
            "duration": 0.07225416666666717,
            "durationTicks": 25,
            "midi": 91,
            "name": "G6",
            "ticks": 4310,
            "time": 12.456618333333331,
            "velocity": 0.9606299212598425
          },
          {
            "duration": 0.07514433333333415,
            "durationTicks": 26,
            "midi": 87,
            "name": "D#6",
            "ticks": 4431,
            "time": 12.806328499999998,
            "velocity": 0.8976377952755905
          },
          {
            "duration": 0.06358366666666448,
            "durationTicks": 22,
            "midi": 79,
            "name": "G5",
            "ticks": 4433,
            "time": 12.812108833333333,
            "velocity": 0.7716535433070866
          },
          {
            "duration": 0.7283219999999968,
            "durationTicks": 252,
            "midi": 87,
            "name": "D#6",
            "ticks": 4555,
            "time": 13.164709166666666,
            "velocity": 1
          },
          {
            "duration": 0.7225416666666646,
            "durationTicks": 250,
            "midi": 79,
            "name": "G5",
            "ticks": 4555,
            "time": 13.164709166666666,
            "velocity": 0.7086614173228346
          },
          {
            "duration": 0.02890166666666616,
            "durationTicks": 10,
            "midi": 82,
            "name": "A#5",
            "ticks": 4865,
            "time": 14.060660833333332,
            "velocity": 0.8661417322834646
          },
          {
            "duration": 0.028901666666667936,
            "durationTicks": 10,
            "midi": 79,
            "name": "G5",
            "ticks": 4866,
            "time": 14.063550999999997,
            "velocity": 0.7401574803149606
          },
          {
            "duration": 0.03757216666666707,
            "durationTicks": 13,
            "midi": 82,
            "name": "A#5",
            "ticks": 4893,
            "time": 14.141585499999998,
            "velocity": 0.7401574803149606
          },
          {
            "duration": 0.0202311666666688,
            "durationTicks": 7,
            "midi": 79,
            "name": "G5",
            "ticks": 4895,
            "time": 14.14736583333333,
            "velocity": 0.7086614173228346
          },
          {
            "duration": 0.05780333333333232,
            "durationTicks": 20,
            "midi": 87,
            "name": "D#6",
            "ticks": 4920,
            "time": 14.219619999999999,
            "velocity": 1
          },
          {
            "duration": 0.03757216666666707,
            "durationTicks": 13,
            "midi": 79,
            "name": "G5",
            "ticks": 4921,
            "time": 14.222510166666664,
            "velocity": 0.7716535433070866
          },
          {
            "duration": 0.043352500000001015,
            "durationTicks": 15,
            "midi": 82,
            "name": "A#5",
            "ticks": 4980,
            "time": 14.393029999999998,
            "velocity": 0.6141732283464567
          },
          {
            "duration": 0.05202300000000015,
            "durationTicks": 18,
            "midi": 89,
            "name": "F6",
            "ticks": 4981,
            "time": 14.395920166666665,
            "velocity": 0.8031496062992126
          },
          {
            "duration": 0.049132833333331405,
            "durationTicks": 17,
            "midi": 91,
            "name": "G6",
            "ticks": 5038,
            "time": 14.560659666666666,
            "velocity": 0.8976377952755905
          },
          {
            "duration": 0.03757216666666707,
            "durationTicks": 13,
            "midi": 87,
            "name": "D#6",
            "ticks": 5040,
            "time": 14.566439999999998,
            "velocity": 0.7716535433070866
          },
          {
            "duration": 0.04913283333333318,
            "durationTicks": 17,
            "midi": 82,
            "name": "A#5",
            "ticks": 5095,
            "time": 14.725399166666666,
            "velocity": 0.6141732283464567
          },
          {
            "duration": 0.04624266666666621,
            "durationTicks": 16,
            "midi": 89,
            "name": "F6",
            "ticks": 5097,
            "time": 14.7311795,
            "velocity": 0.8031496062992126
          },
          {
            "duration": 0.04913283333333318,
            "durationTicks": 17,
            "midi": 87,
            "name": "D#6",
            "ticks": 5153,
            "time": 14.893028833333332,
            "velocity": 0.5826771653543307
          },
          {
            "duration": 0.04335249999999924,
            "durationTicks": 15,
            "midi": 79,
            "name": "G5",
            "ticks": 5155,
            "time": 14.898809166666666,
            "velocity": 0.7086614173228346
          },
          {
            "duration": 0.043352500000001015,
            "durationTicks": 15,
            "midi": 82,
            "name": "A#5",
            "ticks": 5215,
            "time": 15.072219166666665,
            "velocity": 0.6456692913385826
          },
          {
            "duration": 0.05780333333333232,
            "durationTicks": 20,
            "midi": 89,
            "name": "F6",
            "ticks": 5220,
            "time": 15.086669999999998,
            "velocity": 0.6456692913385826
          },
          {
            "duration": 0.03179183333333313,
            "durationTicks": 11,
            "midi": 91,
            "name": "G6",
            "ticks": 5221,
            "time": 15.089560166666665,
            "velocity": 0.3937007874015748
          },
          {
            "duration": 0.04913283333333318,
            "durationTicks": 17,
            "midi": 87,
            "name": "D#6",
            "ticks": 5277,
            "time": 15.2514095,
            "velocity": 0.9921259842519685
          },
          {
            "duration": 0.06647383333333323,
            "durationTicks": 23,
            "midi": 91,
            "name": "G6",
            "ticks": 5278,
            "time": 15.254299666666665,
            "velocity": 0.8661417322834646
          },
          {
            "duration": 0.07225416666666717,
            "durationTicks": 25,
            "midi": 87,
            "name": "D#6",
            "ticks": 5390,
            "time": 15.577998333333332,
            "velocity": 0.9606299212598425
          },
          {
            "duration": 0.043352500000001015,
            "durationTicks": 15,
            "midi": 79,
            "name": "G5",
            "ticks": 5391,
            "time": 15.580888499999997,
            "velocity": 0.7716535433070866
          },
          {
            "duration": 0.7109810000000003,
            "durationTicks": 246,
            "midi": 87,
            "name": "D#6",
            "ticks": 5515,
            "time": 15.939269166666666,
            "velocity": 1
          },
          {
            "duration": 0.6965301666666655,
            "durationTicks": 241,
            "midi": 79,
            "name": "G5",
            "ticks": 5515,
            "time": 15.939269166666666,
            "velocity": 0.8661417322834646
          },
          {
            "duration": 0.0346820000000001,
            "durationTicks": 12,
            "midi": 80,
            "name": "G#5",
            "ticks": 5817,
            "time": 16.8120995,
            "velocity": 0.5826771653543307
          },
          {
            "duration": 0.0202311666666688,
            "durationTicks": 7,
            "midi": 84,
            "name": "C6",
            "ticks": 5822,
            "time": 16.82655033333333,
            "velocity": 0.7086614173228346
          },
          {
            "duration": 0.046242666666667986,
            "durationTicks": 16,
            "midi": 84,
            "name": "C6",
            "ticks": 5848,
            "time": 16.901694666666664,
            "velocity": 0.8031496062992126
          },
          {
            "duration": 0.028901666666669712,
            "durationTicks": 10,
            "midi": 80,
            "name": "G#5",
            "ticks": 5848,
            "time": 16.901694666666664,
            "velocity": 0.5826771653543307
          },
          {
            "duration": 0.03757216666666707,
            "durationTicks": 13,
            "midi": 80,
            "name": "G#5",
            "ticks": 5872,
            "time": 16.971058666666664,
            "velocity": 0.5826771653543307
          },
          {
            "duration": 0.04913283333333496,
            "durationTicks": 17,
            "midi": 89,
            "name": "F6",
            "ticks": 5872,
            "time": 16.971058666666664,
            "velocity": 0.8661417322834646
          },
          {
            "duration": 0.05202300000000193,
            "durationTicks": 18,
            "midi": 91,
            "name": "G6",
            "ticks": 5931,
            "time": 17.141578499999998,
            "velocity": 0.7401574803149606
          },
          {
            "duration": 0.03757216666666707,
            "durationTicks": 13,
            "midi": 84,
            "name": "C6",
            "ticks": 5935,
            "time": 17.153139166666666,
            "velocity": 0.6141732283464567
          },
          {
            "duration": 0.04335249999999746,
            "durationTicks": 15,
            "midi": 89,
            "name": "F6",
            "ticks": 5990,
            "time": 17.31209833333333,
            "velocity": 0.6456692913385826
          },
          {
            "duration": 0.0346820000000001,
            "durationTicks": 12,
            "midi": 80,
            "name": "G#5",
            "ticks": 5992,
            "time": 17.317878666666665,
            "velocity": 0.7086614173228346
          },
          {
            "duration": 0.04335249999999746,
            "durationTicks": 15,
            "midi": 84,
            "name": "C6",
            "ticks": 6051,
            "time": 17.4883985,
            "velocity": 0.7716535433070866
          },
          {
            "duration": 0.03179183333332958,
            "durationTicks": 11,
            "midi": 79,
            "name": "G5",
            "ticks": 6055,
            "time": 17.499959166666667,
            "velocity": 0.3937007874015748
          },
          {
            "duration": 0.046242666666667986,
            "durationTicks": 16,
            "midi": 80,
            "name": "G#5",
            "ticks": 6110,
            "time": 17.65891833333333,
            "velocity": 0.6456692913385826
          },
          {
            "duration": 0.0346820000000001,
            "durationTicks": 12,
            "midi": 77,
            "name": "F5",
            "ticks": 6112,
            "time": 17.664698666666663,
            "velocity": 0.4566929133858268
          },
          {
            "duration": 0.028901666666669712,
            "durationTicks": 10,
            "midi": 79,
            "name": "G5",
            "ticks": 6171,
            "time": 17.835218499999996,
            "velocity": 0.7086614173228346
          },
          {
            "duration": 0.05780333333333232,
            "durationTicks": 20,
            "midi": 84,
            "name": "C6",
            "ticks": 6173,
            "time": 17.840998833333334,
            "velocity": 0.7086614173228346
          },
          {
            "duration": 0.043352500000001015,
            "durationTicks": 15,
            "midi": 80,
            "name": "G#5",
            "ticks": 6233,
            "time": 18.01440883333333,
            "velocity": 0.7086614173228346
          },
          {
            "duration": 0.043352500000001015,
            "durationTicks": 15,
            "midi": 89,
            "name": "F6",
            "ticks": 6235,
            "time": 18.020189166666665,
            "velocity": 1
          },
          {
            "duration": 0.043352500000001015,
            "durationTicks": 15,
            "midi": 79,
            "name": "G5",
            "ticks": 6300,
            "time": 18.208049999999997,
            "velocity": 0.5826771653543307
          },
          {
            "duration": 0.05202300000000193,
            "durationTicks": 18,
            "midi": 84,
            "name": "C6",
            "ticks": 6300,
            "time": 18.208049999999997,
            "velocity": 0.7086614173228346
          },
          {
            "duration": 0.052022999999998376,
            "durationTicks": 18,
            "midi": 80,
            "name": "G#5",
            "ticks": 6355,
            "time": 18.367009166666666,
            "velocity": 0.6456692913385826
          },
          {
            "duration": 0.0346820000000001,
            "durationTicks": 12,
            "midi": 77,
            "name": "F5",
            "ticks": 6356,
            "time": 18.369899333333333,
            "velocity": 0.36220472440944884
          },
          {
            "duration": 0.023121333333332217,
            "durationTicks": 8,
            "midi": 79,
            "name": "G5",
            "ticks": 6415,
            "time": 18.540419166666666,
            "velocity": 0.4566929133858268
          },
          {
            "duration": 0.04335249999999746,
            "durationTicks": 15,
            "midi": 84,
            "name": "C6",
            "ticks": 6415,
            "time": 18.540419166666666,
            "velocity": 0.6456692913385826
          },
          {
            "duration": 0.6878596666666681,
            "durationTicks": 238,
            "midi": 80,
            "name": "G#5",
            "ticks": 6476,
            "time": 18.71671933333333,
            "velocity": 0.7716535433070866
          },
          {
            "duration": 0.7023104999999994,
            "durationTicks": 243,
            "midi": 89,
            "name": "F6",
            "ticks": 6477,
            "time": 18.719609499999997,
            "velocity": 0.8976377952755905
          },
          {
            "duration": 0.028901666666669712,
            "durationTicks": 10,
            "midi": 82,
            "name": "A#5",
            "ticks": 6780,
            "time": 19.595329999999997,
            "velocity": 0.6141732283464567
          },
          {
            "duration": 0.03757216666666707,
            "durationTicks": 13,
            "midi": 79,
            "name": "G5",
            "ticks": 6781,
            "time": 19.598220166666664,
            "velocity": 0.7716535433070866
          },
          {
            "duration": 0.043352500000001015,
            "durationTicks": 15,
            "midi": 82,
            "name": "A#5",
            "ticks": 6807,
            "time": 19.673364499999998,
            "velocity": 0.8976377952755905
          },
          {
            "duration": 0.017340999999998274,
            "durationTicks": 6,
            "midi": 79,
            "name": "G5",
            "ticks": 6808,
            "time": 19.676254666666665,
            "velocity": 0.4566929133858268
          },
          {
            "duration": 0.05780333333333232,
            "durationTicks": 20,
            "midi": 87,
            "name": "D#6",
            "ticks": 6835,
            "time": 19.754289166666666,
            "velocity": 1
          },
          {
            "duration": 0.03757216666666707,
            "durationTicks": 13,
            "midi": 79,
            "name": "G5",
            "ticks": 6835,
            "time": 19.754289166666666,
            "velocity": 0.6456692913385826
          },
          {
            "duration": 0.052022999999998376,
            "durationTicks": 18,
            "midi": 89,
            "name": "F6",
            "ticks": 6895,
            "time": 19.927699166666667,
            "velocity": 0.9606299212598425
          },
          {
            "duration": 0.03757216666666707,
            "durationTicks": 13,
            "midi": 82,
            "name": "A#5",
            "ticks": 6896,
            "time": 19.93058933333333,
            "velocity": 0.8031496062992126
          },
          {
            "duration": 0.04913283333333496,
            "durationTicks": 17,
            "midi": 87,
            "name": "D#6",
            "ticks": 6952,
            "time": 20.092438666666663,
            "velocity": 0.8031496062992126
          },
          {
            "duration": 0.0346820000000001,
            "durationTicks": 12,
            "midi": 79,
            "name": "G5",
            "ticks": 6956,
            "time": 20.10399933333333,
            "velocity": 0.4566929133858268
          },
          {
            "duration": 0.0346820000000001,
            "durationTicks": 12,
            "midi": 82,
            "name": "A#5",
            "ticks": 7008,
            "time": 20.254288,
            "velocity": 0.6141732283464567
          },
          {
            "duration": 0.028901666666669712,
            "durationTicks": 10,
            "midi": 77,
            "name": "F5",
            "ticks": 7011,
            "time": 20.262958499999996,
            "velocity": 0.5826771653543307
          },
          {
            "duration": 0.043352500000001015,
            "durationTicks": 15,
            "midi": 75,
            "name": "D#5",
            "ticks": 7063,
            "time": 20.413247166666665,
            "velocity": 0.6141732283464567
          },
          {
            "duration": 0.05780333333333232,
            "durationTicks": 20,
            "midi": 79,
            "name": "G5",
            "ticks": 7065,
            "time": 20.4190275,
            "velocity": 0.7086614173228346
          },
          {
            "duration": 0.028901666666669712,
            "durationTicks": 10,
            "midi": 77,
            "name": "F5",
            "ticks": 7126,
            "time": 20.595327666666662,
            "velocity": 0.6771653543307087
          },
          {
            "duration": 0.043352500000001015,
            "durationTicks": 15,
            "midi": 82,
            "name": "A#5",
            "ticks": 7126,
            "time": 20.595327666666662,
            "velocity": 0.6456692913385826
          },
          {
            "duration": 0.052022999999998376,
            "durationTicks": 18,
            "midi": 79,
            "name": "G5",
            "ticks": 7183,
            "time": 20.760067166666666,
            "velocity": 0.8661417322834646
          },
          {
            "duration": 0.06358366666666626,
            "durationTicks": 22,
            "midi": 87,
            "name": "D#6",
            "ticks": 7183,
            "time": 20.760067166666666,
            "velocity": 0.9606299212598425
          },
          {
            "duration": 0.03179183333333668,
            "durationTicks": 11,
            "midi": 77,
            "name": "F5",
            "ticks": 7252,
            "time": 20.95948866666666,
            "velocity": 0.5826771653543307
          },
          {
            "duration": 0.046242666666667986,
            "durationTicks": 16,
            "midi": 84,
            "name": "C6",
            "ticks": 7253,
            "time": 20.962378833333332,
            "velocity": 0.7401574803149606
          },
          {
            "duration": 0.02890166666666616,
            "durationTicks": 10,
            "midi": 75,
            "name": "D#5",
            "ticks": 7307,
            "time": 21.11844783333333,
            "velocity": 0.8661417322834646
          },
          {
            "duration": 0.014450833333338409,
            "durationTicks": 5,
            "midi": 79,
            "name": "G5",
            "ticks": 7323,
            "time": 21.164690499999995,
            "velocity": 0.2677165354330709
          },
          {
            "duration": 0.02890166666666616,
            "durationTicks": 10,
            "midi": 77,
            "name": "F5",
            "ticks": 7368,
            "time": 21.294748,
            "velocity": 0.7401574803149606
          },
          {
            "duration": 0.05202300000000193,
            "durationTicks": 18,
            "midi": 84,
            "name": "C6",
            "ticks": 7372,
            "time": 21.306308666666663,
            "velocity": 0.8031496062992126
          },
          {
            "duration": 0.6965301666666655,
            "durationTicks": 241,
            "midi": 87,
            "name": "D#6",
            "ticks": 7426,
            "time": 21.462377666666665,
            "velocity": 0.9606299212598425
          },
          {
            "duration": 0.6676285000000028,
            "durationTicks": 231,
            "midi": 79,
            "name": "G5",
            "ticks": 7428,
            "time": 21.468157999999995,
            "velocity": 0.7716535433070866
          },
          {
            "duration": 0.046242666666664434,
            "durationTicks": 16,
            "midi": 84,
            "name": "C6",
            "ticks": 7792,
            "time": 22.520178666666666,
            "velocity": 0.8031496062992126
          },
          {
            "duration": 0.04913283333333496,
            "durationTicks": 17,
            "midi": 84,
            "name": "C6",
            "ticks": 7825,
            "time": 22.615554166666662,
            "velocity": 0.7716535433070866
          },
          {
            "duration": 0.046242666666664434,
            "durationTicks": 16,
            "midi": 84,
            "name": "C6",
            "ticks": 7863,
            "time": 22.7253805,
            "velocity": 0.8976377952755905
          },
          {
            "duration": 0.31791833333332775,
            "durationTicks": 110,
            "midi": 84,
            "name": "C6",
            "ticks": 7910,
            "time": 22.861218333333333,
            "velocity": 0.8976377952755905
          },
          {
            "duration": 0.06069350000000284,
            "durationTicks": 21,
            "midi": 84,
            "name": "C6",
            "ticks": 8035,
            "time": 23.222489166666662,
            "velocity": 1
          },
          {
            "duration": 0.049132833333331405,
            "durationTicks": 17,
            "midi": 82,
            "name": "A#5",
            "ticks": 8272,
            "time": 23.907458666666667,
            "velocity": 1
          },
          {
            "duration": 0.046242666666667986,
            "durationTicks": 16,
            "midi": 82,
            "name": "A#5",
            "ticks": 8310,
            "time": 24.017284999999998,
            "velocity": 0.8031496062992126
          },
          {
            "duration": 0.05202300000000193,
            "durationTicks": 18,
            "midi": 82,
            "name": "A#5",
            "ticks": 8348,
            "time": 24.12711133333333,
            "velocity": 0.9606299212598425
          },
          {
            "duration": 0.31791833333333486,
            "durationTicks": 110,
            "midi": 86,
            "name": "D6",
            "ticks": 8400,
            "time": 24.277399999999997,
            "velocity": 1
          },
          {
            "duration": 0.07803450000000467,
            "durationTicks": 27,
            "midi": 82,
            "name": "A#5",
            "ticks": 8526,
            "time": 24.641560999999996,
            "velocity": 0.9606299212598425
          },
          {
            "duration": 0.049132833333331405,
            "durationTicks": 17,
            "midi": 82,
            "name": "A#5",
            "ticks": 8761,
            "time": 25.320750166666667,
            "velocity": 1
          },
          {
            "duration": 0.04624266666666088,
            "durationTicks": 16,
            "midi": 82,
            "name": "A#5",
            "ticks": 8797,
            "time": 25.424796166666667,
            "velocity": 0.7716535433070866
          },
          {
            "duration": 0.06358366666666626,
            "durationTicks": 22,
            "midi": 82,
            "name": "A#5",
            "ticks": 8830,
            "time": 25.520171666666663,
            "velocity": 0.9291338582677166
          },
          {
            "duration": 0.14739850000000132,
            "durationTicks": 51,
            "midi": 85,
            "name": "C#6",
            "ticks": 8878,
            "time": 25.658899666666663,
            "velocity": 0.9291338582677166
          },
          {
            "duration": 0.10115583333333333,
            "durationTicks": 35,
            "midi": 84,
            "name": "C6",
            "ticks": 8995,
            "time": 25.997049166666663,
            "velocity": 0.9606299212598425
          },
          {
            "duration": 0.10115583333332978,
            "durationTicks": 35,
            "midi": 87,
            "name": "D#6",
            "ticks": 9110,
            "time": 26.329418333333333,
            "velocity": 1
          },
          {
            "duration": 0.11849683333332806,
            "durationTicks": 41,
            "midi": 86,
            "name": "D6",
            "ticks": 9226,
            "time": 26.664677666666666,
            "velocity": 1
          },
          {
            "duration": 0.08959516666666545,
            "durationTicks": 31,
            "midi": 89,
            "name": "F6",
            "ticks": 9348,
            "time": 27.017277999999997,
            "velocity": 0.8031496062992126
          },
          {
            "duration": 0.0895951666666619,
            "durationTicks": 31,
            "midi": 87,
            "name": "D#6",
            "ticks": 9470,
            "time": 27.369878333333332,
            "velocity": 0.9606299212598425
          },
          {
            "duration": 0.10693616666666728,
            "durationTicks": 37,
            "midi": 94,
            "name": "A#6",
            "ticks": 9595,
            "time": 27.73114916666666,
            "velocity": 0.9291338582677166
          },
          {
            "duration": 0.09248533333333242,
            "durationTicks": 32,
            "midi": 93,
            "name": "A6",
            "ticks": 9682,
            "time": 27.982593666666666,
            "velocity": 0.9921259842519685
          },
          {
            "duration": 0.09248533333333242,
            "durationTicks": 32,
            "midi": 92,
            "name": "G#6",
            "ticks": 9762,
            "time": 28.213806999999996,
            "velocity": 0.8346456692913385
          },
          {
            "duration": 0.10404599999999675,
            "durationTicks": 36,
            "midi": 91,
            "name": "G6",
            "ticks": 9845,
            "time": 28.453690833333333,
            "velocity": 0.8976377952755905
          },
          {
            "duration": 0.10115583333332978,
            "durationTicks": 35,
            "midi": 90,
            "name": "F#6",
            "ticks": 9922,
            "time": 28.676233666666665,
            "velocity": 0.6141732283464567
          },
          {
            "duration": 0.09248533333333242,
            "durationTicks": 32,
            "midi": 89,
            "name": "F6",
            "ticks": 9995,
            "time": 28.887215833333332,
            "velocity": 0.7716535433070866
          },
          {
            "duration": 0.10115583333333689,
            "durationTicks": 35,
            "midi": 88,
            "name": "E6",
            "ticks": 10080,
            "time": 29.132879999999997,
            "velocity": 0.8031496062992126
          },
          {
            "duration": 0.08959516666666545,
            "durationTicks": 31,
            "midi": 87,
            "name": "D#6",
            "ticks": 10156,
            "time": 29.352532666666665,
            "velocity": 0.8661417322834646
          },
          {
            "duration": 0.10115583333333333,
            "durationTicks": 35,
            "midi": 86,
            "name": "D6",
            "ticks": 10233,
            "time": 29.575075499999997,
            "velocity": 0.8661417322834646
          },
          {
            "duration": 0.09537550000000294,
            "durationTicks": 33,
            "midi": 85,
            "name": "C#6",
            "ticks": 10317,
            "time": 29.817849499999994,
            "velocity": 0.8346456692913385
          },
          {
            "duration": 0.07803449999999756,
            "durationTicks": 27,
            "midi": 84,
            "name": "C6",
            "ticks": 10395,
            "time": 30.043282499999997,
            "velocity": 0.4881889763779528
          },
          {
            "duration": 0.09537549999999584,
            "durationTicks": 33,
            "midi": 83,
            "name": "B5",
            "ticks": 10475,
            "time": 30.274495833333333,
            "velocity": 0.8976377952755905
          },
          {
            "duration": 0.10982633333333425,
            "durationTicks": 38,
            "midi": 82,
            "name": "A#5",
            "ticks": 10557,
            "time": 30.511489499999996,
            "velocity": 1
          },
          {
            "duration": 0.14739850000000487,
            "durationTicks": 51,
            "midi": 83,
            "name": "B5",
            "ticks": 10795,
            "time": 31.19934916666666,
            "velocity": 1
          },
          {
            "duration": 0.11849683333333161,
            "durationTicks": 41,
            "midi": 84,
            "name": "C6",
            "ticks": 11032,
            "time": 31.884318666666665,
            "velocity": 1
          },
          {
            "duration": 0.12138699999999147,
            "durationTicks": 42,
            "midi": 86,
            "name": "D6",
            "ticks": 11272,
            "time": 32.57795866666667,
            "velocity": 0.8346456692913385
          },
          {
            "duration": 0.09537549999999584,
            "durationTicks": 33,
            "midi": 87,
            "name": "D#6",
            "ticks": 11523,
            "time": 33.3033905,
            "velocity": 0.8661417322834646
          },
          {
            "duration": 0.057803333333339424,
            "durationTicks": 20,
            "midi": 82,
            "name": "A#5",
            "ticks": 11646,
            "time": 33.658880999999994,
            "velocity": 0.8976377952755905
          },
          {
            "duration": 0.046242666666664434,
            "durationTicks": 16,
            "midi": 82,
            "name": "A#5",
            "ticks": 11685,
            "time": 33.7715975,
            "velocity": 0.7086614173228346
          },
          {
            "duration": 0.05780333333333232,
            "durationTicks": 20,
            "midi": 82,
            "name": "A#5",
            "ticks": 11721,
            "time": 33.875643499999995,
            "velocity": 0.8661417322834646
          },
          {
            "duration": 0.09248533333332887,
            "durationTicks": 32,
            "midi": 89,
            "name": "F6",
            "ticks": 11761,
            "time": 33.99125016666667,
            "velocity": 0.8976377952755905
          },
          {
            "duration": 0.07225416666666717,
            "durationTicks": 25,
            "midi": 86,
            "name": "D6",
            "ticks": 11878,
            "time": 34.32939966666666,
            "velocity": 1
          },
          {
            "duration": 0.09248533333333597,
            "durationTicks": 32,
            "midi": 87,
            "name": "D#6",
            "ticks": 11993,
            "time": 34.661768833333326,
            "velocity": 1
          },
          {
            "duration": 0.049132833333331405,
            "durationTicks": 17,
            "midi": 82,
            "name": "A#5",
            "ticks": 12117,
            "time": 35.020149499999995,
            "velocity": 0.9606299212598425
          },
          {
            "duration": 0.04335250000000457,
            "durationTicks": 15,
            "midi": 82,
            "name": "A#5",
            "ticks": 12156,
            "time": 35.13286599999999,
            "velocity": 0.8031496062992126
          },
          {
            "duration": 0.06069349999999929,
            "durationTicks": 21,
            "midi": 82,
            "name": "A#5",
            "ticks": 12190,
            "time": 35.23113166666666,
            "velocity": 0.7086614173228346
          },
          {
            "duration": 0.089595166666669,
            "durationTicks": 31,
            "midi": 89,
            "name": "F6",
            "ticks": 12231,
            "time": 35.349628499999994,
            "velocity": 0.8031496062992126
          },
          {
            "duration": 0.06647383333332613,
            "durationTicks": 23,
            "midi": 86,
            "name": "D6",
            "ticks": 12346,
            "time": 35.68199766666667,
            "velocity": 0.8031496062992126
          },
          {
            "duration": 0.07225416666666717,
            "durationTicks": 25,
            "midi": 87,
            "name": "D#6",
            "ticks": 12470,
            "time": 36.04037833333333,
            "velocity": 1
          },
          {
            "duration": 0.06358366666665916,
            "durationTicks": 22,
            "midi": 86,
            "name": "D6",
            "ticks": 12592,
            "time": 36.392978666666664,
            "velocity": 1
          },
          {
            "duration": 0.07514433333333415,
            "durationTicks": 26,
            "midi": 87,
            "name": "D#6",
            "ticks": 12710,
            "time": 36.73401833333333,
            "velocity": 1
          },
          {
            "duration": 0.052022999999998376,
            "durationTicks": 18,
            "midi": 86,
            "name": "D6",
            "ticks": 12825,
            "time": 37.0663875,
            "velocity": 0.8661417322834646
          },
          {
            "duration": 0.07225416666666717,
            "durationTicks": 25,
            "midi": 87,
            "name": "D#6",
            "ticks": 12936,
            "time": 37.387195999999996,
            "velocity": 1
          },
          {
            "duration": 0.05202300000000548,
            "durationTicks": 18,
            "midi": 86,
            "name": "D6",
            "ticks": 13065,
            "time": 37.76002749999999,
            "velocity": 1
          },
          {
            "duration": 0.06358366666666626,
            "durationTicks": 22,
            "midi": 87,
            "name": "D#6",
            "ticks": 13190,
            "time": 38.12129833333333,
            "velocity": 1
          },
          {
            "duration": 0.05780333333333232,
            "durationTicks": 20,
            "midi": 86,
            "name": "D6",
            "ticks": 13310,
            "time": 38.46811833333333,
            "velocity": 0.8661417322834646
          },
          {
            "duration": 0.06647383333334034,
            "durationTicks": 23,
            "midi": 87,
            "name": "D#6",
            "ticks": 13420,
            "time": 38.78603666666666,
            "velocity": 1
          },
          {
            "duration": 0.04624266666667154,
            "durationTicks": 16,
            "midi": 86,
            "name": "D6",
            "ticks": 13545,
            "time": 39.1473075,
            "velocity": 0.9921259842519685
          },
          {
            "duration": 0.06069349999999929,
            "durationTicks": 21,
            "midi": 87,
            "name": "D#6",
            "ticks": 13663,
            "time": 39.488347166666664,
            "velocity": 1
          },
          {
            "duration": 0.046242666666664434,
            "durationTicks": 16,
            "midi": 86,
            "name": "D6",
            "ticks": 13790,
            "time": 39.85539833333333,
            "velocity": 0.7716535433070866
          },
          {
            "duration": 0.07225416666666717,
            "durationTicks": 25,
            "midi": 87,
            "name": "D#6",
            "ticks": 13910,
            "time": 40.20221833333333,
            "velocity": 1
          },
          {
            "duration": 0.06069349999999929,
            "durationTicks": 21,
            "midi": 86,
            "name": "D6",
            "ticks": 14033,
            "time": 40.55770883333333,
            "velocity": 0.9291338582677166
          },
          {
            "duration": 0.06647383333333323,
            "durationTicks": 23,
            "midi": 87,
            "name": "D#6",
            "ticks": 14151,
            "time": 40.898748499999996,
            "velocity": 0.8031496062992126
          },
          {
            "duration": 0.046242666666664434,
            "durationTicks": 16,
            "midi": 86,
            "name": "D6",
            "ticks": 14278,
            "time": 41.26579966666666,
            "velocity": 0.7716535433070866
          },
          {
            "duration": 0.02312133333333577,
            "durationTicks": 8,
            "midi": 87,
            "name": "D#6",
            "ticks": 14400,
            "time": 41.618399999999994,
            "velocity": 0.3937007874015748
          },
          {
            "duration": 0.023121333333328664,
            "durationTicks": 8,
            "midi": 82,
            "name": "A#5",
            "ticks": 14465,
            "time": 41.80626083333333,
            "velocity": 0.5826771653543307
          },
          {
            "duration": 0.049132833333331405,
            "durationTicks": 17,
            "midi": 82,
            "name": "A#5",
            "ticks": 14496,
            "time": 41.895855999999995,
            "velocity": 0.7086614173228346
          },
          {
            "duration": 0.04335249999999746,
            "durationTicks": 15,
            "midi": 87,
            "name": "D#6",
            "ticks": 14527,
            "time": 41.985451166666664,
            "velocity": 0.4566929133858268
          },
          {
            "duration": 0.028901666666669712,
            "durationTicks": 10,
            "midi": 79,
            "name": "G5",
            "ticks": 14530,
            "time": 41.99412166666666,
            "velocity": 0.5196850393700787
          },
          {
            "duration": 0.046242666666664434,
            "durationTicks": 16,
            "midi": 82,
            "name": "A#5",
            "ticks": 14587,
            "time": 42.15886116666666,
            "velocity": 0.5826771653543307
          },
          {
            "duration": 0.046242666666664434,
            "durationTicks": 16,
            "midi": 89,
            "name": "F6",
            "ticks": 14590,
            "time": 42.16753166666666,
            "velocity": 0.7086614173228346
          },
          {
            "duration": 0.046242666666664434,
            "durationTicks": 16,
            "midi": 91,
            "name": "G6",
            "ticks": 14645,
            "time": 42.32649083333333,
            "velocity": 0.7716535433070866
          },
          {
            "duration": 0.03179183333333668,
            "durationTicks": 11,
            "midi": 87,
            "name": "D#6",
            "ticks": 14645,
            "time": 42.32649083333333,
            "velocity": 0.3937007874015748
          },
          {
            "duration": 0.057803333333339424,
            "durationTicks": 20,
            "midi": 82,
            "name": "A#5",
            "ticks": 14700,
            "time": 42.48544999999999,
            "velocity": 0.8031496062992126
          },
          {
            "duration": 0.04335250000000457,
            "durationTicks": 15,
            "midi": 89,
            "name": "F6",
            "ticks": 14703,
            "time": 42.494120499999994,
            "velocity": 0.7401574803149606
          },
          {
            "duration": 0.05780333333333232,
            "durationTicks": 20,
            "midi": 79,
            "name": "G5",
            "ticks": 14756,
            "time": 42.64729933333333,
            "velocity": 0.4881889763779528
          },
          {
            "duration": 0.03757216666666352,
            "durationTicks": 13,
            "midi": 87,
            "name": "D#6",
            "ticks": 14760,
            "time": 42.65886,
            "velocity": 0.4251968503937008
          },
          {
            "duration": 0.04624266666667154,
            "durationTicks": 16,
            "midi": 82,
            "name": "A#5",
            "ticks": 14811,
            "time": 42.80625849999999,
            "velocity": 0.6141732283464567
          },
          {
            "duration": 0.037572166666670626,
            "durationTicks": 13,
            "midi": 89,
            "name": "F6",
            "ticks": 14817,
            "time": 42.82359949999999,
            "velocity": 0.7086614173228346
          },
          {
            "duration": 0.10693616666666372,
            "durationTicks": 37,
            "midi": 91,
            "name": "G6",
            "ticks": 14878,
            "time": 42.999899666666664,
            "velocity": 0.7716535433070866
          },
          {
            "duration": 0.08092466666666098,
            "durationTicks": 28,
            "midi": 87,
            "name": "D#6",
            "ticks": 14880,
            "time": 43.00568,
            "velocity": 0.7716535433070866
          },
          {
            "duration": 0.03179183333332958,
            "durationTicks": 11,
            "midi": 82,
            "name": "A#5",
            "ticks": 14963,
            "time": 43.24556383333333,
            "velocity": 0.7086614173228346
          },
          {
            "duration": 0.06069349999999929,
            "durationTicks": 21,
            "midi": 79,
            "name": "G5",
            "ticks": 15001,
            "time": 43.355390166666666,
            "velocity": 0.6771653543307087
          },
          {
            "duration": 0.04624266666665733,
            "durationTicks": 16,
            "midi": 82,
            "name": "A#5",
            "ticks": 15050,
            "time": 43.49700833333333,
            "velocity": 0.8031496062992126
          },
          {
            "duration": 0.06358366666666626,
            "durationTicks": 22,
            "midi": 87,
            "name": "D#6",
            "ticks": 15103,
            "time": 43.65018716666666,
            "velocity": 0.9921259842519685
          },
          {
            "duration": 0.06358366666666626,
            "durationTicks": 22,
            "midi": 82,
            "name": "A#5",
            "ticks": 15171,
            "time": 43.846718499999994,
            "velocity": 0.9606299212598425
          },
          {
            "duration": 0.04335249999999746,
            "durationTicks": 15,
            "midi": 79,
            "name": "G5",
            "ticks": 15235,
            "time": 44.03168916666666,
            "velocity": 0.6456692913385826
          },
          {
            "duration": 0.046242666666664434,
            "durationTicks": 16,
            "midi": 82,
            "name": "A#5",
            "ticks": 15293,
            "time": 44.19931883333333,
            "velocity": 0.9606299212598425
          },
          {
            "duration": 0.07803449999999401,
            "durationTicks": 27,
            "midi": 87,
            "name": "D#6",
            "ticks": 15352,
            "time": 44.369838666666666,
            "velocity": 1
          }
        ],
        "endOfTrackTicks": 15379
      },
      {
        "channel": 6,
        "controlChanges": {
          "0": [
            {
              "number": 0,
              "ticks": 0,
              "time": 0,
              "value": 0
            }
          ],
          "1": [
            {
              "number": 1,
              "ticks": 0,
              "time": 0,
              "value": 0
            }
          ],
          "7": [
            {
              "number": 7,
              "ticks": 0,
              "time": 0,
              "value": 0.8661417322834646
            }
          ],
          "10": [
            {
              "number": 10,
              "ticks": 0,
              "time": 0,
              "value": 0.31496062992125984
            }
          ],
          "64": [
            {
              "number": 64,
              "ticks": 0,
              "time": 0,
              "value": 0
            }
          ]
        },
        "pitchBends": [
          {
            "ticks": 0,
            "time": 0,
            "value": 0
          }
        ],
        "instrument": {
          "family": "brass",
          "number": 60,
          "name": "french horn"
        },
        "name": "French Horn 1",
        "notes": [
          {
            "duration": 0.0202311666666688,
            "durationTicks": 7,
            "midi": 58,
            "name": "A#3",
            "ticks": 15418,
            "time": 44.56058966666666,
            "velocity": 0.8031496062992126
          },
          {
            "duration": 0.034682000000003654,
            "durationTicks": 12,
            "midi": 55,
            "name": "G3",
            "ticks": 15418,
            "time": 44.56058966666666,
            "velocity": 1
          },
          {
            "duration": 0.0491328333333243,
            "durationTicks": 17,
            "midi": 58,
            "name": "A#3",
            "ticks": 15445,
            "time": 44.638624166666666,
            "velocity": 0.9606299212598425
          },
          {
            "duration": 0.02312133333333577,
            "durationTicks": 8,
            "midi": 55,
            "name": "G3",
            "ticks": 15450,
            "time": 44.653074999999994,
            "velocity": 0.5826771653543307
          },
          {
            "duration": 0.04335249999999746,
            "durationTicks": 15,
            "midi": 55,
            "name": "G3",
            "ticks": 15475,
            "time": 44.72532916666667,
            "velocity": 0.8031496062992126
          },
          {
            "duration": 0.052022999999998376,
            "durationTicks": 18,
            "midi": 63,
            "name": "D#4",
            "ticks": 15477,
            "time": 44.731109499999995,
            "velocity": 1
          },
          {
            "duration": 0.037572166666670626,
            "durationTicks": 13,
            "midi": 58,
            "name": "A#3",
            "ticks": 15541,
            "time": 44.91608016666666,
            "velocity": 0.8031496062992126
          },
          {
            "duration": 0.046242666666664434,
            "durationTicks": 16,
            "midi": 65,
            "name": "F4",
            "ticks": 15542,
            "time": 44.918970333333334,
            "velocity": 1
          },
          {
            "duration": 0.04335249999999746,
            "durationTicks": 15,
            "midi": 67,
            "name": "G4",
            "ticks": 15600,
            "time": 45.0866,
            "velocity": 0.8031496062992126
          },
          {
            "duration": 0.03468199999999655,
            "durationTicks": 12,
            "midi": 63,
            "name": "D#4",
            "ticks": 15601,
            "time": 45.08949016666666,
            "velocity": 0.8976377952755905
          },
          {
            "duration": 0.049132833333331405,
            "durationTicks": 17,
            "midi": 58,
            "name": "A#3",
            "ticks": 15658,
            "time": 45.25422966666666,
            "velocity": 0.9606299212598425
          },
          {
            "duration": 0.04335249999999746,
            "durationTicks": 15,
            "midi": 65,
            "name": "F4",
            "ticks": 15660,
            "time": 45.260009999999994,
            "velocity": 0.8976377952755905
          },
          {
            "duration": 0.05780333333333232,
            "durationTicks": 20,
            "midi": 55,
            "name": "G3",
            "ticks": 15715,
            "time": 45.41896916666666,
            "velocity": 0.7086614173228346
          },
          {
            "duration": 0.06069349999999929,
            "durationTicks": 21,
            "midi": 63,
            "name": "D#4",
            "ticks": 15716,
            "time": 45.42185933333333,
            "velocity": 0.8661417322834646
          },
          {
            "duration": 0.05202300000000548,
            "durationTicks": 18,
            "midi": 58,
            "name": "A#3",
            "ticks": 15773,
            "time": 45.586598833333326,
            "velocity": 0.7086614173228346
          },
          {
            "duration": 0.049132833333331405,
            "durationTicks": 17,
            "midi": 65,
            "name": "F4",
            "ticks": 15776,
            "time": 45.59526933333333,
            "velocity": 0.7086614173228346
          },
          {
            "duration": 0.04335250000000457,
            "durationTicks": 15,
            "midi": 63,
            "name": "D#4",
            "ticks": 15840,
            "time": 45.78023999999999,
            "velocity": 0.8661417322834646
          },
          {
            "duration": 0.04335250000000457,
            "durationTicks": 15,
            "midi": 67,
            "name": "G4",
            "ticks": 15840,
            "time": 45.78023999999999,
            "velocity": 0.9606299212598425
          },
          {
            "duration": 0.04335249999999746,
            "durationTicks": 15,
            "midi": 58,
            "name": "A#3",
            "ticks": 15888,
            "time": 45.918968,
            "velocity": 0.8346456692913385
          },
          {
            "duration": 0.03179183333333668,
            "durationTicks": 11,
            "midi": 50,
            "name": "D3",
            "ticks": 15892,
            "time": 45.93052866666666,
            "velocity": 0.8976377952755905
          },
          {
            "duration": 0.04335249999999746,
            "durationTicks": 15,
            "midi": 58,
            "name": "A#3",
            "ticks": 15920,
            "time": 46.01145333333333,
            "velocity": 0.8976377952755905
          },
          {
            "duration": 0.03468199999999655,
            "durationTicks": 12,
            "midi": 50,
            "name": "D3",
            "ticks": 15922,
            "time": 46.01723366666666,
            "velocity": 0.4251968503937008
          },
          {
            "duration": 0.0202311666666688,
            "durationTicks": 7,
            "midi": 48,
            "name": "C3",
            "ticks": 15926,
            "time": 46.02879433333333,
            "velocity": 0.2677165354330709
          },
          {
            "duration": 0.05202299999999127,
            "durationTicks": 18,
            "midi": 55,
            "name": "G3",
            "ticks": 15955,
            "time": 46.112609166666665,
            "velocity": 0.9606299212598425
          },
          {
            "duration": 0.03179183333333668,
            "durationTicks": 11,
            "midi": 51,
            "name": "D#3",
            "ticks": 15955,
            "time": 46.112609166666665,
            "velocity": 0.9291338582677166
          },
          {
            "duration": 0.05202299999999127,
            "durationTicks": 18,
            "midi": 58,
            "name": "A#3",
            "ticks": 16015,
            "time": 46.28601916666666,
            "velocity": 0.7716535433070866
          },
          {
            "duration": 0.03179183333333668,
            "durationTicks": 11,
            "midi": 53,
            "name": "F3",
            "ticks": 16018,
            "time": 46.294689666666656,
            "velocity": 0.7086614173228346
          },
          {
            "duration": 0.05202299999999127,
            "durationTicks": 18,
            "midi": 55,
            "name": "G3",
            "ticks": 16071,
            "time": 46.4478685,
            "velocity": 0.8031496062992126
          },
          {
            "duration": 0.04913283333333851,
            "durationTicks": 17,
            "midi": 63,
            "name": "D#4",
            "ticks": 16073,
            "time": 46.453648833333325,
            "velocity": 0.8346456692913385
          },
          {
            "duration": 0.057803333333339424,
            "durationTicks": 20,
            "midi": 58,
            "name": "A#3",
            "ticks": 16130,
            "time": 46.61838833333333,
            "velocity": 0.8031496062992126
          },
          {
            "duration": 0.04335249999999746,
            "durationTicks": 15,
            "midi": 53,
            "name": "F3",
            "ticks": 16130,
            "time": 46.61838833333333,
            "velocity": 0.7401574803149606
          },
          {
            "duration": 0.052022999999998376,
            "durationTicks": 18,
            "midi": 51,
            "name": "D#3",
            "ticks": 16185,
            "time": 46.7773475,
            "velocity": 0.5826771653543307
          },
          {
            "duration": 0.057803333333339424,
            "durationTicks": 20,
            "midi": 55,
            "name": "G3",
            "ticks": 16186,
            "time": 46.78023766666666,
            "velocity": 0.7716535433070866
          },
          {
            "duration": 0.04335250000000457,
            "durationTicks": 15,
            "midi": 53,
            "name": "F3",
            "ticks": 16248,
            "time": 46.959427999999996,
            "velocity": 0.6141732283464567
          },
          {
            "duration": 0.049132833333331405,
            "durationTicks": 17,
            "midi": 58,
            "name": "A#3",
            "ticks": 16248,
            "time": 46.959427999999996,
            "velocity": 0.5826771653543307
          },
          {
            "duration": 0.14133158333333284,
            "durationTicks": 38,
            "midi": 55,
            "name": "G3",
            "ticks": 16316,
            "time": 47.15595933333333,
            "velocity": 0.9291338582677166
          },
          {
            "duration": 0.14133158333333284,
            "durationTicks": 38,
            "midi": 63,
            "name": "D#4",
            "ticks": 16316,
            "time": 47.15595933333333,
            "velocity": 1
          },
          {
            "duration": 0.40076312499999744,
            "durationTicks": 105,
            "midi": 51,
            "name": "D#3",
            "ticks": 16582,
            "time": 48.167519416666664,
            "velocity": 0.4251968503937008
          },
          {
            "duration": 0.08778620833333406,
            "durationTicks": 23,
            "midi": 51,
            "name": "D#3",
            "ticks": 16748,
            "time": 48.80110683333333,
            "velocity": 0.4881889763779528
          },
          {
            "duration": 0.45801500000000317,
            "durationTicks": 120,
            "midi": 51,
            "name": "D#3",
            "ticks": 16805,
            "time": 49.01866395833333,
            "velocity": 0.7086614173228346
          },
          {
            "duration": 0.45801500000000317,
            "durationTicks": 120,
            "midi": 51,
            "name": "D#3",
            "ticks": 17026,
            "time": 49.86217491666666,
            "velocity": 0.6141732283464567
          },
          {
            "duration": 0.7709919166666666,
            "durationTicks": 202,
            "midi": 51,
            "name": "D#3",
            "ticks": 17265,
            "time": 50.774388124999994,
            "velocity": 0.4881889763779528
          },
          {
            "duration": 0.4961829166666689,
            "durationTicks": 130,
            "midi": 51,
            "name": "D#3",
            "ticks": 17786,
            "time": 52.76293658333333,
            "velocity": 0.7086614173228346
          },
          {
            "duration": 1.3740449999999953,
            "durationTicks": 360,
            "midi": 51,
            "name": "D#3",
            "ticks": 18282,
            "time": 54.65606525,
            "velocity": 0.2677165354330709
          },
          {
            "duration": 0.5954194999999984,
            "durationTicks": 156,
            "midi": 51,
            "name": "D#3",
            "ticks": 18768,
            "time": 56.511025999999994,
            "velocity": 0.4251968503937008
          },
          {
            "duration": 0.3282440833333311,
            "durationTicks": 86,
            "midi": 51,
            "name": "D#3",
            "ticks": 19191,
            "time": 58.125528875,
            "velocity": 0.4566929133858268
          },
          {
            "duration": 1.1851839999999996,
            "durationTicks": 256,
            "midi": 51,
            "name": "D#3",
            "ticks": 19705,
            "time": 60.107680625,
            "velocity": 0.5826771653543307
          },
          {
            "duration": 0.31018487499999736,
            "durationTicks": 67,
            "midi": 51,
            "name": "D#3",
            "ticks": 20042,
            "time": 61.66786425,
            "velocity": 0.6771653543307087
          },
          {
            "duration": 3.999999999999993,
            "durationTicks": 480,
            "midi": 51,
            "name": "D#3",
            "ticks": 20203,
            "time": 62.572493333333334,
            "velocity": 0.6141732283464567
          }
        ],
        "endOfTrackTicks": 20683
      },
      {
        "channel": 7,
        "controlChanges": {
          "0": [
            {
              "number": 0,
              "ticks": 0,
              "time": 0,
              "value": 0
            }
          ],
          "1": [
            {
              "number": 1,
              "ticks": 0,
              "time": 0,
              "value": 0
            }
          ],
          "7": [
            {
              "number": 7,
              "ticks": 0,
              "time": 0,
              "value": 0.7480314960629921
            }
          ],
          "10": [
            {
              "number": 10,
              "ticks": 0,
              "time": 0,
              "value": 0.5118110236220472
            }
          ],
          "64": [
            {
              "number": 64,
              "ticks": 0,
              "time": 0,
              "value": 0
            }
          ]
        },
        "pitchBends": [
          {
            "ticks": 0,
            "time": 0,
            "value": 0
          }
        ],
        "instrument": {
          "family": "brass",
          "number": 56,
          "name": "trumpet"
        },
        "name": "Trumpet 1",
        "notes": [
          {
            "duration": 0.04913283333333333,
            "durationTicks": 17,
            "midi": 75,
            "name": "D#5",
            "ticks": 0,
            "time": 0,
            "velocity": 0.8976377952755905
          },
          {
            "duration": 0.031791833333333325,
            "durationTicks": 11,
            "midi": 67,
            "name": "G4",
            "ticks": 0,
            "time": 0,
            "velocity": 0.6771653543307087
          },
          {
            "duration": 0.037572166666666684,
            "durationTicks": 13,
            "midi": 67,
            "name": "G4",
            "ticks": 61,
            "time": 0.17630016666666665,
            "velocity": 0.8031496062992126
          },
          {
            "duration": 0.02023116666666666,
            "durationTicks": 7,
            "midi": 70,
            "name": "A#4",
            "ticks": 61,
            "time": 0.17630016666666665,
            "velocity": 0.4881889763779528
          },
          {
            "duration": 0.04913283333333332,
            "durationTicks": 17,
            "midi": 70,
            "name": "A#4",
            "ticks": 85,
            "time": 0.24566416666666666,
            "velocity": 0.7086614173228346
          },
          {
            "duration": 0.017340999999999995,
            "durationTicks": 6,
            "midi": 67,
            "name": "G4",
            "ticks": 95,
            "time": 0.2745658333333333,
            "velocity": 0.2677165354330709
          },
          {
            "duration": 0.06358366666666665,
            "durationTicks": 22,
            "midi": 75,
            "name": "D#5",
            "ticks": 116,
            "time": 0.3352593333333333,
            "velocity": 1
          },
          {
            "duration": 0.03757216666666663,
            "durationTicks": 13,
            "midi": 67,
            "name": "G4",
            "ticks": 116,
            "time": 0.3352593333333333,
            "velocity": 0.7716535433070866
          },
          {
            "duration": 0.05202300000000004,
            "durationTicks": 18,
            "midi": 77,
            "name": "F5",
            "ticks": 175,
            "time": 0.5057791666666666,
            "velocity": 0.7716535433070866
          },
          {
            "duration": 0.031791833333333464,
            "durationTicks": 11,
            "midi": 70,
            "name": "A#4",
            "ticks": 176,
            "time": 0.5086693333333332,
            "velocity": 0.9606299212598425
          },
          {
            "duration": 0.04913283333333318,
            "durationTicks": 17,
            "midi": 79,
            "name": "G5",
            "ticks": 230,
            "time": 0.6647383333333333,
            "velocity": 1
          },
          {
            "duration": 0.03757216666666663,
            "durationTicks": 13,
            "midi": 75,
            "name": "D#5",
            "ticks": 231,
            "time": 0.6676285,
            "velocity": 1
          },
          {
            "duration": 0.046242666666666654,
            "durationTicks": 16,
            "midi": 77,
            "name": "F5",
            "ticks": 290,
            "time": 0.8381483333333332,
            "velocity": 0.9606299212598425
          },
          {
            "duration": 0.043352500000000016,
            "durationTicks": 15,
            "midi": 70,
            "name": "A#4",
            "ticks": 290,
            "time": 0.8381483333333332,
            "velocity": 1
          },
          {
            "duration": 0.05202299999999993,
            "durationTicks": 18,
            "midi": 75,
            "name": "D#5",
            "ticks": 348,
            "time": 1.0057779999999998,
            "velocity": 1
          },
          {
            "duration": 0.046242666666666654,
            "durationTicks": 16,
            "midi": 67,
            "name": "G4",
            "ticks": 348,
            "time": 1.0057779999999998,
            "velocity": 0.8031496062992126
          },
          {
            "duration": 0.043352499999999905,
            "durationTicks": 15,
            "midi": 70,
            "name": "A#4",
            "ticks": 405,
            "time": 1.1705174999999999,
            "velocity": 0.8976377952755905
          },
          {
            "duration": 0.04913283333333318,
            "durationTicks": 17,
            "midi": 77,
            "name": "F5",
            "ticks": 406,
            "time": 1.1734076666666666,
            "velocity": 0.8976377952755905
          },
          {
            "duration": 0.06069350000000018,
            "durationTicks": 21,
            "midi": 79,
            "name": "G5",
            "ticks": 466,
            "time": 1.3468176666666665,
            "velocity": 1
          },
          {
            "duration": 0.04913283333333318,
            "durationTicks": 17,
            "midi": 75,
            "name": "D#5",
            "ticks": 467,
            "time": 1.3497078333333332,
            "velocity": 1
          },
          {
            "duration": 0.07225416666666651,
            "durationTicks": 25,
            "midi": 75,
            "name": "D#5",
            "ticks": 585,
            "time": 1.6907474999999998,
            "velocity": 1
          },
          {
            "duration": 0.05780333333333343,
            "durationTicks": 20,
            "midi": 67,
            "name": "G4",
            "ticks": 585,
            "time": 1.6907474999999998,
            "velocity": 0.8031496062992126
          },
          {
            "duration": 0.7456629999999995,
            "durationTicks": 258,
            "midi": 75,
            "name": "D#5",
            "ticks": 706,
            "time": 2.0404576666666667,
            "velocity": 1
          },
          {
            "duration": 0.7456629999999995,
            "durationTicks": 258,
            "midi": 67,
            "name": "G4",
            "ticks": 706,
            "time": 2.0404576666666667,
            "velocity": 0.8976377952755905
          },
          {
            "duration": 0.04335249999999968,
            "durationTicks": 15,
            "midi": 70,
            "name": "A#4",
            "ticks": 1015,
            "time": 2.9335191666666667,
            "velocity": 1
          },
          {
            "duration": 0.028901666666666603,
            "durationTicks": 10,
            "midi": 67,
            "name": "G4",
            "ticks": 1020,
            "time": 2.9479699999999998,
            "velocity": 0.7401574803149606
          },
          {
            "duration": 0.04624266666666621,
            "durationTicks": 16,
            "midi": 70,
            "name": "A#4",
            "ticks": 1043,
            "time": 3.014443833333333,
            "velocity": 0.7086614173228346
          },
          {
            "duration": 0.0346820000000001,
            "durationTicks": 12,
            "midi": 67,
            "name": "G4",
            "ticks": 1046,
            "time": 3.023114333333333,
            "velocity": 0.5826771653543307
          },
          {
            "duration": 0.03179183333333313,
            "durationTicks": 11,
            "midi": 67,
            "name": "G4",
            "ticks": 1075,
            "time": 3.1069291666666667,
            "velocity": 0.7401574803149606
          },
          {
            "duration": 0.05780333333333276,
            "durationTicks": 20,
            "midi": 75,
            "name": "D#5",
            "ticks": 1075,
            "time": 3.1069291666666667,
            "velocity": 1
          },
          {
            "duration": 0.0346820000000001,
            "durationTicks": 12,
            "midi": 70,
            "name": "A#4",
            "ticks": 1136,
            "time": 3.283229333333333,
            "velocity": 1
          },
          {
            "duration": 0.031791833333333575,
            "durationTicks": 11,
            "midi": 77,
            "name": "F5",
            "ticks": 1138,
            "time": 3.289009666666666,
            "velocity": 1
          },
          {
            "duration": 0.046242666666666654,
            "durationTicks": 16,
            "midi": 79,
            "name": "G5",
            "ticks": 1200,
            "time": 3.4681999999999995,
            "velocity": 0.8976377952755905
          },
          {
            "duration": 0.028901666666667047,
            "durationTicks": 10,
            "midi": 75,
            "name": "D#5",
            "ticks": 1201,
            "time": 3.471090166666666,
            "velocity": 0.8976377952755905
          },
          {
            "duration": 0.0462426666666671,
            "durationTicks": 16,
            "midi": 77,
            "name": "F5",
            "ticks": 1258,
            "time": 3.635829666666666,
            "velocity": 0.8346456692913385
          },
          {
            "duration": 0.031791833333333575,
            "durationTicks": 11,
            "midi": 70,
            "name": "A#4",
            "ticks": 1260,
            "time": 3.6416099999999996,
            "velocity": 1
          },
          {
            "duration": 0.0462426666666671,
            "durationTicks": 16,
            "midi": 75,
            "name": "D#5",
            "ticks": 1318,
            "time": 3.809239666666666,
            "velocity": 0.7716535433070866
          },
          {
            "duration": 0.04335249999999968,
            "durationTicks": 15,
            "midi": 67,
            "name": "G4",
            "ticks": 1318,
            "time": 3.809239666666666,
            "velocity": 0.8661417322834646
          },
          {
            "duration": 0.04335250000000013,
            "durationTicks": 15,
            "midi": 70,
            "name": "A#4",
            "ticks": 1372,
            "time": 3.965308666666666,
            "velocity": 0.4881889763779528
          },
          {
            "duration": 0.04335250000000013,
            "durationTicks": 15,
            "midi": 77,
            "name": "F5",
            "ticks": 1376,
            "time": 3.976869333333333,
            "velocity": 0.8661417322834646
          },
          {
            "duration": 0.07514433333333326,
            "durationTicks": 26,
            "midi": 79,
            "name": "G5",
            "ticks": 1433,
            "time": 4.141608833333333,
            "velocity": 0.9291338582677166
          },
          {
            "duration": 0.05780333333333321,
            "durationTicks": 20,
            "midi": 75,
            "name": "D#5",
            "ticks": 1435,
            "time": 4.147389166666667,
            "velocity": 0.9921259842519685
          },
          {
            "duration": 0.0722541666666654,
            "durationTicks": 25,
            "midi": 75,
            "name": "D#5",
            "ticks": 1555,
            "time": 4.494209166666667,
            "velocity": 0.9606299212598425
          },
          {
            "duration": 0.04624266666666621,
            "durationTicks": 16,
            "midi": 67,
            "name": "G4",
            "ticks": 1555,
            "time": 4.494209166666667,
            "velocity": 0.9921259842519685
          },
          {
            "duration": 0.5057791666666667,
            "durationTicks": 175,
            "midi": 75,
            "name": "D#5",
            "ticks": 1678,
            "time": 4.849699666666666,
            "velocity": 1
          },
          {
            "duration": 0.4797676666666666,
            "durationTicks": 166,
            "midi": 67,
            "name": "G4",
            "ticks": 1678,
            "time": 4.849699666666666,
            "velocity": 1
          },
          {
            "duration": 0.04335250000000013,
            "durationTicks": 15,
            "midi": 68,
            "name": "G#4",
            "ticks": 1975,
            "time": 5.708079166666666,
            "velocity": 0.7716535433070866
          },
          {
            "duration": 0.028901666666667047,
            "durationTicks": 10,
            "midi": 72,
            "name": "C5",
            "ticks": 1975,
            "time": 5.708079166666666,
            "velocity": 0.7401574803149606
          },
          {
            "duration": 0.057803333333334095,
            "durationTicks": 20,
            "midi": 72,
            "name": "C5",
            "ticks": 2002,
            "time": 5.786113666666666,
            "velocity": 0.8031496062992126
          },
          {
            "duration": 0.03179183333333402,
            "durationTicks": 11,
            "midi": 68,
            "name": "G#4",
            "ticks": 2003,
            "time": 5.789003833333332,
            "velocity": 0.4881889763779528
          },
          {
            "duration": 0.04913283333333407,
            "durationTicks": 17,
            "midi": 68,
            "name": "G#4",
            "ticks": 2035,
            "time": 5.8814891666666655,
            "velocity": 0.6456692913385826
          },
          {
            "duration": 0.04335249999999924,
            "durationTicks": 15,
            "midi": 77,
            "name": "F5",
            "ticks": 2036,
            "time": 5.8843793333333325,
            "velocity": 0.7401574803149606
          },
          {
            "duration": 0.0462426666666671,
            "durationTicks": 16,
            "midi": 79,
            "name": "G5",
            "ticks": 2095,
            "time": 6.054899166666665,
            "velocity": 0.8976377952755905
          },
          {
            "duration": 0.0462426666666671,
            "durationTicks": 16,
            "midi": 72,
            "name": "C5",
            "ticks": 2098,
            "time": 6.063569666666666,
            "velocity": 0.7716535433070866
          },
          {
            "duration": 0.04913283333333407,
            "durationTicks": 17,
            "midi": 68,
            "name": "G#4",
            "ticks": 2155,
            "time": 6.228309166666666,
            "velocity": 0.6456692913385826
          },
          {
            "duration": 0.04335250000000013,
            "durationTicks": 15,
            "midi": 77,
            "name": "F5",
            "ticks": 2156,
            "time": 6.231199333333332,
            "velocity": 0.7716535433070866
          },
          {
            "duration": 0.04913283333333407,
            "durationTicks": 17,
            "midi": 72,
            "name": "C5",
            "ticks": 2216,
            "time": 6.404609333333332,
            "velocity": 0.6141732283464567
          },
          {
            "duration": 0.04913283333333407,
            "durationTicks": 17,
            "midi": 67,
            "name": "G4",
            "ticks": 2216,
            "time": 6.404609333333332,
            "velocity": 0.6456692913385826
          },
          {
            "duration": 0.06358366666666715,
            "durationTicks": 22,
            "midi": 68,
            "name": "G#4",
            "ticks": 2270,
            "time": 6.560678333333333,
            "velocity": 0.7401574803149606
          },
          {
            "duration": 0.04913283333333318,
            "durationTicks": 17,
            "midi": 65,
            "name": "F4",
            "ticks": 2270,
            "time": 6.560678333333333,
            "velocity": 0.6456692913385826
          },
          {
            "duration": 0.04624266666666621,
            "durationTicks": 16,
            "midi": 67,
            "name": "G4",
            "ticks": 2330,
            "time": 6.734088333333333,
            "velocity": 0.6771653543307087
          },
          {
            "duration": 0.05780333333333232,
            "durationTicks": 20,
            "midi": 72,
            "name": "C5",
            "ticks": 2330,
            "time": 6.734088333333333,
            "velocity": 0.7401574803149606
          },
          {
            "duration": 0.04913283333333318,
            "durationTicks": 17,
            "midi": 68,
            "name": "G#4",
            "ticks": 2390,
            "time": 6.907498333333333,
            "velocity": 0.7716535433070866
          },
          {
            "duration": 0.04335249999999924,
            "durationTicks": 15,
            "midi": 77,
            "name": "F5",
            "ticks": 2393,
            "time": 6.916168833333333,
            "velocity": 0.8976377952755905
          },
          {
            "duration": 0.06358366666666715,
            "durationTicks": 22,
            "midi": 72,
            "name": "C5",
            "ticks": 2452,
            "time": 7.0866886666666655,
            "velocity": 0.6456692913385826
          },
          {
            "duration": 0.052022999999999264,
            "durationTicks": 18,
            "midi": 67,
            "name": "G4",
            "ticks": 2453,
            "time": 7.0895788333333325,
            "velocity": 0.6141732283464567
          },
          {
            "duration": 0.057803333333334095,
            "durationTicks": 20,
            "midi": 68,
            "name": "G#4",
            "ticks": 2515,
            "time": 7.268769166666665,
            "velocity": 0.7086614173228346
          },
          {
            "duration": 0.03179183333333402,
            "durationTicks": 11,
            "midi": 65,
            "name": "F4",
            "ticks": 2515,
            "time": 7.268769166666665,
            "velocity": 0.4566929133858268
          },
          {
            "duration": 0.04335250000000013,
            "durationTicks": 15,
            "midi": 67,
            "name": "G4",
            "ticks": 2571,
            "time": 7.4306185,
            "velocity": 0.7086614173228346
          },
          {
            "duration": 0.057803333333334095,
            "durationTicks": 20,
            "midi": 72,
            "name": "C5",
            "ticks": 2572,
            "time": 7.433508666666666,
            "velocity": 0.6771653543307087
          },
          {
            "duration": 0.624276,
            "durationTicks": 216,
            "midi": 68,
            "name": "G#4",
            "ticks": 2640,
            "time": 7.630039999999999,
            "velocity": 1
          },
          {
            "duration": 0.5924841666666669,
            "durationTicks": 205,
            "midi": 77,
            "name": "F5",
            "ticks": 2640,
            "time": 7.630039999999999,
            "velocity": 0.8661417322834646
          },
          {
            "duration": 0.046242666666667986,
            "durationTicks": 16,
            "midi": 67,
            "name": "G4",
            "ticks": 2930,
            "time": 8.468188333333332,
            "velocity": 0.8976377952755905
          },
          {
            "duration": 0.01734100000000005,
            "durationTicks": 6,
            "midi": 70,
            "name": "A#4",
            "ticks": 2933,
            "time": 8.476858833333333,
            "velocity": 0.5196850393700787
          },
          {
            "duration": 0.05780333333333232,
            "durationTicks": 20,
            "midi": 70,
            "name": "A#4",
            "ticks": 2960,
            "time": 8.554893333333332,
            "velocity": 0.7086614173228346
          },
          {
            "duration": 0.06069349999999929,
            "durationTicks": 21,
            "midi": 67,
            "name": "G4",
            "ticks": 2990,
            "time": 8.641598333333333,
            "velocity": 0.4881889763779528
          },
          {
            "duration": 0.04335249999999924,
            "durationTicks": 15,
            "midi": 75,
            "name": "D#5",
            "ticks": 2995,
            "time": 8.656049166666666,
            "velocity": 1
          },
          {
            "duration": 0.03757216666666707,
            "durationTicks": 13,
            "midi": 70,
            "name": "A#4",
            "ticks": 3053,
            "time": 8.823678833333332,
            "velocity": 0.9606299212598425
          },
          {
            "duration": 0.043352500000001015,
            "durationTicks": 15,
            "midi": 77,
            "name": "F5",
            "ticks": 3055,
            "time": 8.829459166666664,
            "velocity": 0.8661417322834646
          },
          {
            "duration": 0.04624266666666621,
            "durationTicks": 16,
            "midi": 75,
            "name": "D#5",
            "ticks": 3113,
            "time": 8.997088833333333,
            "velocity": 0.9921259842519685
          },
          {
            "duration": 0.05202300000000193,
            "durationTicks": 18,
            "midi": 67,
            "name": "G4",
            "ticks": 3115,
            "time": 9.002869166666665,
            "velocity": 0.7716535433070866
          },
          {
            "duration": 0.046242666666667986,
            "durationTicks": 16,
            "midi": 65,
            "name": "F4",
            "ticks": 3173,
            "time": 9.170498833333331,
            "velocity": 0.7716535433070866
          },
          {
            "duration": 0.04624266666666621,
            "durationTicks": 16,
            "midi": 70,
            "name": "A#4",
            "ticks": 3175,
            "time": 9.176279166666665,
            "velocity": 0.7086614173228346
          },
          {
            "duration": 0.06069349999999929,
            "durationTicks": 21,
            "midi": 67,
            "name": "G4",
            "ticks": 3230,
            "time": 9.335238333333333,
            "velocity": 0.7401574803149606
          },
          {
            "duration": 0.052022999999998376,
            "durationTicks": 18,
            "midi": 63,
            "name": "D#4",
            "ticks": 3231,
            "time": 9.3381285,
            "velocity": 0.7086614173228346
          },
          {
            "duration": 0.05202300000000015,
            "durationTicks": 18,
            "midi": 70,
            "name": "A#4",
            "ticks": 3291,
            "time": 9.511538499999999,
            "velocity": 0.7086614173228346
          },
          {
            "duration": 0.04913283333333318,
            "durationTicks": 17,
            "midi": 65,
            "name": "F4",
            "ticks": 3291,
            "time": 9.511538499999999,
            "velocity": 0.7401574803149606
          },
          {
            "duration": 0.05780333333333232,
            "durationTicks": 20,
            "midi": 75,
            "name": "D#5",
            "ticks": 3350,
            "time": 9.682058333333332,
            "velocity": 1
          },
          {
            "duration": 0.0346820000000001,
            "durationTicks": 12,
            "midi": 67,
            "name": "G4",
            "ticks": 3353,
            "time": 9.690728833333333,
            "velocity": 0.6141732283464567
          },
          {
            "duration": 0.05780333333333232,
            "durationTicks": 20,
            "midi": 65,
            "name": "F4",
            "ticks": 3410,
            "time": 9.855468333333333,
            "velocity": 0.6141732283464567
          },
          {
            "duration": 0.04335249999999924,
            "durationTicks": 15,
            "midi": 70,
            "name": "A#4",
            "ticks": 3410,
            "time": 9.855468333333333,
            "velocity": 0.8031496062992126
          },
          {
            "duration": 0.06358366666666626,
            "durationTicks": 22,
            "midi": 67,
            "name": "G4",
            "ticks": 3468,
            "time": 10.023098,
            "velocity": 0.8661417322834646
          },
          {
            "duration": 0.06069349999999929,
            "durationTicks": 21,
            "midi": 63,
            "name": "D#4",
            "ticks": 3468,
            "time": 10.023098,
            "velocity": 0.8031496062992126
          },
          {
            "duration": 0.057803333333334095,
            "durationTicks": 20,
            "midi": 70,
            "name": "A#4",
            "ticks": 3526,
            "time": 10.190727666666666,
            "velocity": 0.5826771653543307
          },
          {
            "duration": 0.04335249999999924,
            "durationTicks": 15,
            "midi": 65,
            "name": "F4",
            "ticks": 3526,
            "time": 10.190727666666666,
            "velocity": 0.7716535433070866
          },
          {
            "duration": 0.6734088333333332,
            "durationTicks": 233,
            "midi": 75,
            "name": "D#5",
            "ticks": 3593,
            "time": 10.384368833333331,
            "velocity": 1
          },
          {
            "duration": 0.670518666666668,
            "durationTicks": 232,
            "midi": 67,
            "name": "G4",
            "ticks": 3593,
            "time": 10.384368833333331,
            "velocity": 0.9606299212598425
          },
          {
            "duration": 0.04624266666666621,
            "durationTicks": 16,
            "midi": 67,
            "name": "G4",
            "ticks": 3898,
            "time": 11.265869666666665,
            "velocity": 0.8976377952755905
          },
          {
            "duration": 0.03179183333333491,
            "durationTicks": 11,
            "midi": 70,
            "name": "A#4",
            "ticks": 3898,
            "time": 11.265869666666665,
            "velocity": 0.7716535433070866
          },
          {
            "duration": 0.014450833333334856,
            "durationTicks": 5,
            "midi": 73,
            "name": "C#5",
            "ticks": 3905,
            "time": 11.28610083333333,
            "velocity": 0.33070866141732286
          },
          {
            "duration": 0.04624266666666621,
            "durationTicks": 16,
            "midi": 70,
            "name": "A#4",
            "ticks": 3928,
            "time": 11.352574666666666,
            "velocity": 0.5826771653543307
          },
          {
            "duration": 0.04624266666666621,
            "durationTicks": 16,
            "midi": 67,
            "name": "G4",
            "ticks": 3958,
            "time": 11.439279666666666,
            "velocity": 0.7716535433070866
          },
          {
            "duration": 0.06358366666666804,
            "durationTicks": 22,
            "midi": 75,
            "name": "D#5",
            "ticks": 3961,
            "time": 11.447950166666665,
            "velocity": 0.9606299212598425
          },
          {
            "duration": 0.00867050000000269,
            "durationTicks": 3,
            "midi": 73,
            "name": "C#5",
            "ticks": 3965,
            "time": 11.459510833333331,
            "velocity": 0.2677165354330709
          },
          {
            "duration": 0.0346820000000001,
            "durationTicks": 12,
            "midi": 70,
            "name": "A#4",
            "ticks": 4020,
            "time": 11.618469999999999,
            "velocity": 0.7716535433070866
          },
          {
            "duration": 0.04335249999999924,
            "durationTicks": 15,
            "midi": 77,
            "name": "F5",
            "ticks": 4021,
            "time": 11.621360166666665,
            "velocity": 0.9606299212598425
          },
          {
            "duration": 0.052022999999998376,
            "durationTicks": 18,
            "midi": 79,
            "name": "G5",
            "ticks": 4077,
            "time": 11.7832095,
            "velocity": 0.8346456692913385
          },
          {
            "duration": 0.04335249999999924,
            "durationTicks": 15,
            "midi": 75,
            "name": "D#5",
            "ticks": 4080,
            "time": 11.791879999999999,
            "velocity": 0.8346456692913385
          },
          {
            "duration": 0.04624266666666621,
            "durationTicks": 16,
            "midi": 77,
            "name": "F5",
            "ticks": 4140,
            "time": 11.96529,
            "velocity": 0.9606299212598425
          },
          {
            "duration": 0.052022999999998376,
            "durationTicks": 18,
            "midi": 70,
            "name": "A#4",
            "ticks": 4140,
            "time": 11.96529,
            "velocity": 0.8346456692913385
          },
          {
            "duration": 0.05780333333333587,
            "durationTicks": 20,
            "midi": 67,
            "name": "G4",
            "ticks": 4191,
            "time": 12.112688499999997,
            "velocity": 0.7086614173228346
          },
          {
            "duration": 0.060693500000001066,
            "durationTicks": 21,
            "midi": 75,
            "name": "D#5",
            "ticks": 4192,
            "time": 12.115578666666664,
            "velocity": 1
          },
          {
            "duration": 0.057803333333334095,
            "durationTicks": 20,
            "midi": 70,
            "name": "A#4",
            "ticks": 4245,
            "time": 12.268757499999998,
            "velocity": 0.7716535433070866
          },
          {
            "duration": 0.05780333333333587,
            "durationTicks": 20,
            "midi": 77,
            "name": "F5",
            "ticks": 4250,
            "time": 12.28320833333333,
            "velocity": 0.6456692913385826
          },
          {
            "duration": 0.06358366666666804,
            "durationTicks": 22,
            "midi": 79,
            "name": "G5",
            "ticks": 4310,
            "time": 12.456618333333331,
            "velocity": 0.9291338582677166
          },
          {
            "duration": 0.05202300000000193,
            "durationTicks": 18,
            "midi": 75,
            "name": "D#5",
            "ticks": 4311,
            "time": 12.459508499999998,
            "velocity": 0.9921259842519685
          },
          {
            "duration": 0.06069350000000284,
            "durationTicks": 21,
            "midi": 75,
            "name": "D#5",
            "ticks": 4430,
            "time": 12.80343833333333,
            "velocity": 1
          },
          {
            "duration": 0.05780333333333587,
            "durationTicks": 20,
            "midi": 67,
            "name": "G4",
            "ticks": 4430,
            "time": 12.80343833333333,
            "velocity": 0.8976377952755905
          },
          {
            "duration": 0.6127153333333322,
            "durationTicks": 212,
            "midi": 75,
            "name": "D#5",
            "ticks": 4562,
            "time": 13.184940333333332,
            "velocity": 1
          },
          {
            "duration": 0.6242760000000018,
            "durationTicks": 216,
            "midi": 67,
            "name": "G4",
            "ticks": 4565,
            "time": 13.19361083333333,
            "velocity": 0.8346456692913385
          },
          {
            "duration": 0.03757216666666707,
            "durationTicks": 13,
            "midi": 70,
            "name": "A#4",
            "ticks": 4860,
            "time": 14.046209999999999,
            "velocity": 1
          },
          {
            "duration": 0.04335249999999924,
            "durationTicks": 15,
            "midi": 67,
            "name": "G4",
            "ticks": 4860,
            "time": 14.046209999999999,
            "velocity": 0.7716535433070866
          },
          {
            "duration": 0.06069349999999751,
            "durationTicks": 21,
            "midi": 70,
            "name": "A#4",
            "ticks": 4887,
            "time": 14.1242445,
            "velocity": 0.9606299212598425
          },
          {
            "duration": 0.05780333333333232,
            "durationTicks": 20,
            "midi": 67,
            "name": "G4",
            "ticks": 4920,
            "time": 14.219619999999999,
            "velocity": 0.7401574803149606
          },
          {
            "duration": 0.043352500000001015,
            "durationTicks": 15,
            "midi": 75,
            "name": "D#5",
            "ticks": 4925,
            "time": 14.23407083333333,
            "velocity": 0.7086614173228346
          },
          {
            "duration": 0.03757216666666707,
            "durationTicks": 13,
            "midi": 70,
            "name": "A#4",
            "ticks": 4982,
            "time": 14.398810333333332,
            "velocity": 0.5826771653543307
          },
          {
            "duration": 0.04335249999999924,
            "durationTicks": 15,
            "midi": 77,
            "name": "F5",
            "ticks": 4985,
            "time": 14.40748083333333,
            "velocity": 0.6771653543307087
          },
          {
            "duration": 0.05202300000000015,
            "durationTicks": 18,
            "midi": 79,
            "name": "G5",
            "ticks": 5040,
            "time": 14.566439999999998,
            "velocity": 0.9921259842519685
          },
          {
            "duration": 0.03757216666666707,
            "durationTicks": 13,
            "midi": 75,
            "name": "D#5",
            "ticks": 5041,
            "time": 14.569330166666665,
            "velocity": 0.8346456692913385
          },
          {
            "duration": 0.052022999999998376,
            "durationTicks": 18,
            "midi": 77,
            "name": "F5",
            "ticks": 5096,
            "time": 14.728289333333333,
            "velocity": 0.7401574803149606
          },
          {
            "duration": 0.05780333333333232,
            "durationTicks": 20,
            "midi": 70,
            "name": "A#4",
            "ticks": 5098,
            "time": 14.734069666666665,
            "velocity": 1
          },
          {
            "duration": 0.05780333333333232,
            "durationTicks": 20,
            "midi": 75,
            "name": "D#5",
            "ticks": 5155,
            "time": 14.898809166666666,
            "velocity": 0.8661417322834646
          },
          {
            "duration": 0.04913283333333318,
            "durationTicks": 17,
            "midi": 67,
            "name": "G4",
            "ticks": 5155,
            "time": 14.898809166666666,
            "velocity": 0.7716535433070866
          },
          {
            "duration": 0.04335249999999924,
            "durationTicks": 15,
            "midi": 70,
            "name": "A#4",
            "ticks": 5212,
            "time": 15.063548666666664,
            "velocity": 0.6141732283464567
          },
          {
            "duration": 0.05202300000000015,
            "durationTicks": 18,
            "midi": 77,
            "name": "F5",
            "ticks": 5215,
            "time": 15.072219166666665,
            "velocity": 0.8031496062992126
          },
          {
            "duration": 0.0722541666666654,
            "durationTicks": 25,
            "midi": 79,
            "name": "G5",
            "ticks": 5275,
            "time": 15.245629166666665,
            "velocity": 0.9606299212598425
          },
          {
            "duration": 0.06358366666666626,
            "durationTicks": 22,
            "midi": 75,
            "name": "D#5",
            "ticks": 5275,
            "time": 15.245629166666665,
            "velocity": 1
          },
          {
            "duration": 0.07514433333333059,
            "durationTicks": 26,
            "midi": 75,
            "name": "D#5",
            "ticks": 5395,
            "time": 15.592449166666666,
            "velocity": 1
          },
          {
            "duration": 0.06069349999999751,
            "durationTicks": 21,
            "midi": 67,
            "name": "G4",
            "ticks": 5395,
            "time": 15.592449166666666,
            "velocity": 0.8031496062992126
          },
          {
            "duration": 0.6676285000000028,
            "durationTicks": 231,
            "midi": 75,
            "name": "D#5",
            "ticks": 5510,
            "time": 15.92481833333333,
            "velocity": 1
          },
          {
            "duration": 0.6647383333333359,
            "durationTicks": 230,
            "midi": 67,
            "name": "G4",
            "ticks": 5510,
            "time": 15.92481833333333,
            "velocity": 0.9606299212598425
          },
          {
            "duration": 0.12138700000000213,
            "durationTicks": 42,
            "midi": 68,
            "name": "G#4",
            "ticks": 5816,
            "time": 16.80920933333333,
            "velocity": 0.8031496062992126
          },
          {
            "duration": 0.02312133333333577,
            "durationTicks": 8,
            "midi": 72,
            "name": "C5",
            "ticks": 5821,
            "time": 16.823660166666663,
            "velocity": 0.4881889763779528
          },
          {
            "duration": 0.07225416666666362,
            "durationTicks": 25,
            "midi": 72,
            "name": "C5",
            "ticks": 5846,
            "time": 16.895914333333334,
            "velocity": 0.7086614173228346
          },
          {
            "duration": 0.05780333333333232,
            "durationTicks": 20,
            "midi": 68,
            "name": "G#4",
            "ticks": 5878,
            "time": 16.988399666666666,
            "velocity": 0.8346456692913385
          },
          {
            "duration": 0.046242666666667986,
            "durationTicks": 16,
            "midi": 77,
            "name": "F5",
            "ticks": 5882,
            "time": 16.99996033333333,
            "velocity": 0.7086614173228346
          },
          {
            "duration": 0.07225416666666362,
            "durationTicks": 25,
            "midi": 72,
            "name": "C5",
            "ticks": 5937,
            "time": 17.1589195,
            "velocity": 0.6141732283464567
          },
          {
            "duration": 0.046242666666667986,
            "durationTicks": 16,
            "midi": 79,
            "name": "G5",
            "ticks": 5941,
            "time": 17.170480166666664,
            "velocity": 0.8031496062992126
          },
          {
            "duration": 0.046242666666667986,
            "durationTicks": 16,
            "midi": 77,
            "name": "F5",
            "ticks": 5998,
            "time": 17.335219666666664,
            "velocity": 0.7086614173228346
          },
          {
            "duration": 0.043352500000001015,
            "durationTicks": 15,
            "midi": 68,
            "name": "G#4",
            "ticks": 6001,
            "time": 17.343890166666664,
            "velocity": 0.7086614173228346
          },
          {
            "duration": 0.052022999999998376,
            "durationTicks": 18,
            "midi": 72,
            "name": "C5",
            "ticks": 6060,
            "time": 17.514409999999998,
            "velocity": 0.6456692913385826
          },
          {
            "duration": 0.052022999999998376,
            "durationTicks": 18,
            "midi": 67,
            "name": "G4",
            "ticks": 6061,
            "time": 17.517300166666665,
            "velocity": 0.7401574803149606
          },
          {
            "duration": 0.06647383333332968,
            "durationTicks": 23,
            "midi": 68,
            "name": "G#4",
            "ticks": 6115,
            "time": 17.673369166666667,
            "velocity": 0.7716535433070866
          },
          {
            "duration": 0.049132833333331405,
            "durationTicks": 17,
            "midi": 65,
            "name": "F4",
            "ticks": 6115,
            "time": 17.673369166666667,
            "velocity": 0.7086614173228346
          },
          {
            "duration": 0.03757216666666352,
            "durationTicks": 13,
            "midi": 67,
            "name": "G4",
            "ticks": 6173,
            "time": 17.840998833333334,
            "velocity": 0.7086614173228346
          },
          {
            "duration": 0.05202300000000193,
            "durationTicks": 18,
            "midi": 72,
            "name": "C5",
            "ticks": 6175,
            "time": 17.846779166666664,
            "velocity": 0.6456692913385826
          },
          {
            "duration": 0.05202300000000193,
            "durationTicks": 18,
            "midi": 68,
            "name": "G#4",
            "ticks": 6230,
            "time": 18.00573833333333,
            "velocity": 0.7401574803149606
          },
          {
            "duration": 0.06358366666666626,
            "durationTicks": 22,
            "midi": 77,
            "name": "F5",
            "ticks": 6232,
            "time": 18.011518666666664,
            "velocity": 0.8976377952755905
          },
          {
            "duration": 0.05780333333333232,
            "durationTicks": 20,
            "midi": 67,
            "name": "G4",
            "ticks": 6295,
            "time": 18.193599166666665,
            "velocity": 0.6771653543307087
          },
          {
            "duration": 0.06069349999999929,
            "durationTicks": 21,
            "midi": 72,
            "name": "C5",
            "ticks": 6295,
            "time": 18.193599166666665,
            "velocity": 0.5826771653543307
          },
          {
            "duration": 0.06647383333333323,
            "durationTicks": 23,
            "midi": 68,
            "name": "G#4",
            "ticks": 6350,
            "time": 18.35255833333333,
            "velocity": 0.7716535433070866
          },
          {
            "duration": 0.03757216666666352,
            "durationTicks": 13,
            "midi": 65,
            "name": "F4",
            "ticks": 6353,
            "time": 18.361228833333332,
            "velocity": 0.4251968503937008
          },
          {
            "duration": 0.04335249999999746,
            "durationTicks": 15,
            "midi": 67,
            "name": "G4",
            "ticks": 6410,
            "time": 18.52596833333333,
            "velocity": 0.6456692913385826
          },
          {
            "duration": 0.08092466666666454,
            "durationTicks": 28,
            "midi": 72,
            "name": "C5",
            "ticks": 6411,
            "time": 18.5288585,
            "velocity": 0.6141732283464567
          },
          {
            "duration": 0.6965301666666655,
            "durationTicks": 241,
            "midi": 68,
            "name": "G#4",
            "ticks": 6475,
            "time": 18.713829166666667,
            "velocity": 0.9921259842519685
          },
          {
            "duration": 0.6965301666666655,
            "durationTicks": 241,
            "midi": 77,
            "name": "F5",
            "ticks": 6475,
            "time": 18.713829166666667,
            "velocity": 1
          },
          {
            "duration": 0.03179183333333313,
            "durationTicks": 11,
            "midi": 70,
            "name": "A#4",
            "ticks": 6781,
            "time": 19.598220166666664,
            "velocity": 0.5826771653543307
          },
          {
            "duration": 0.0346820000000001,
            "durationTicks": 12,
            "midi": 67,
            "name": "G4",
            "ticks": 6782,
            "time": 19.60111033333333,
            "velocity": 0.7716535433070866
          },
          {
            "duration": 0.05780333333333232,
            "durationTicks": 20,
            "midi": 70,
            "name": "A#4",
            "ticks": 6810,
            "time": 19.682035,
            "velocity": 0.9921259842519685
          },
          {
            "duration": 0.017341000000001827,
            "durationTicks": 6,
            "midi": 67,
            "name": "G4",
            "ticks": 6815,
            "time": 19.69648583333333,
            "velocity": 0.3937007874015748
          },
          {
            "duration": 0.052022999999998376,
            "durationTicks": 18,
            "midi": 67,
            "name": "G4",
            "ticks": 6841,
            "time": 19.771630166666665,
            "velocity": 0.8976377952755905
          },
          {
            "duration": 0.05780333333333587,
            "durationTicks": 20,
            "midi": 75,
            "name": "D#5",
            "ticks": 6845,
            "time": 19.78319083333333,
            "velocity": 1
          },
          {
            "duration": 0.03757216666666707,
            "durationTicks": 13,
            "midi": 70,
            "name": "A#4",
            "ticks": 6900,
            "time": 19.942149999999998,
            "velocity": 0.4881889763779528
          },
          {
            "duration": 0.043352500000001015,
            "durationTicks": 15,
            "midi": 77,
            "name": "F5",
            "ticks": 6901,
            "time": 19.945040166666665,
            "velocity": 0.8976377952755905
          },
          {
            "duration": 0.06069349999999929,
            "durationTicks": 21,
            "midi": 75,
            "name": "D#5",
            "ticks": 6956,
            "time": 20.10399933333333,
            "velocity": 0.8661417322834646
          },
          {
            "duration": 0.046242666666667986,
            "durationTicks": 16,
            "midi": 67,
            "name": "G4",
            "ticks": 6958,
            "time": 20.109779666666665,
            "velocity": 0.7086614173228346
          },
          {
            "duration": 0.04913283333333496,
            "durationTicks": 17,
            "midi": 70,
            "name": "A#4",
            "ticks": 7010,
            "time": 20.26006833333333,
            "velocity": 0.5826771653543307
          },
          {
            "duration": 0.05202300000000193,
            "durationTicks": 18,
            "midi": 65,
            "name": "F4",
            "ticks": 7011,
            "time": 20.262958499999996,
            "velocity": 0.7401574803149606
          },
          {
            "duration": 0.07803449999999756,
            "durationTicks": 27,
            "midi": 67,
            "name": "G4",
            "ticks": 7066,
            "time": 20.421917666666666,
            "velocity": 0.8031496062992126
          },
          {
            "duration": 0.052022999999998376,
            "durationTicks": 18,
            "midi": 63,
            "name": "D#4",
            "ticks": 7067,
            "time": 20.424807833333332,
            "velocity": 0.6141732283464567
          },
          {
            "duration": 0.07225416666666717,
            "durationTicks": 25,
            "midi": 70,
            "name": "A#4",
            "ticks": 7125,
            "time": 20.5924375,
            "velocity": 0.8031496062992126
          },
          {
            "duration": 0.03757216666666707,
            "durationTicks": 13,
            "midi": 65,
            "name": "F4",
            "ticks": 7128,
            "time": 20.601107999999996,
            "velocity": 0.6141732283464567
          },
          {
            "duration": 0.06647383333333678,
            "durationTicks": 23,
            "midi": 67,
            "name": "G4",
            "ticks": 7185,
            "time": 20.765847499999996,
            "velocity": 0.9606299212598425
          },
          {
            "duration": 0.06936400000000376,
            "durationTicks": 24,
            "midi": 75,
            "name": "D#5",
            "ticks": 7185,
            "time": 20.765847499999996,
            "velocity": 1
          },
          {
            "duration": 0.06358366666666981,
            "durationTicks": 22,
            "midi": 75,
            "name": "D#5",
            "ticks": 7188,
            "time": 20.774517999999997,
            "velocity": 0.5826771653543307
          },
          {
            "duration": 0.06647383333333323,
            "durationTicks": 23,
            "midi": 67,
            "name": "G4",
            "ticks": 7188,
            "time": 20.774517999999997,
            "velocity": 0.5196850393700787
          },
          {
            "duration": 0.08092466666666454,
            "durationTicks": 28,
            "midi": 72,
            "name": "C5",
            "ticks": 7251,
            "time": 20.9565985,
            "velocity": 0.7086614173228346
          },
          {
            "duration": 0.04913283333333851,
            "durationTicks": 17,
            "midi": 65,
            "name": "F4",
            "ticks": 7252,
            "time": 20.95948866666666,
            "velocity": 0.7716535433070866
          },
          {
            "duration": 0.07803450000000112,
            "durationTicks": 27,
            "midi": 67,
            "name": "G4",
            "ticks": 7306,
            "time": 21.115557666666664,
            "velocity": 0.8976377952755905
          },
          {
            "duration": 0.05202300000000193,
            "durationTicks": 18,
            "midi": 63,
            "name": "D#4",
            "ticks": 7310,
            "time": 21.127118333333332,
            "velocity": 0.7716535433070866
          },
          {
            "duration": 0.0346820000000001,
            "durationTicks": 12,
            "midi": 65,
            "name": "F4",
            "ticks": 7368,
            "time": 21.294748,
            "velocity": 0.5196850393700787
          },
          {
            "duration": 0.07803449999999756,
            "durationTicks": 27,
            "midi": 72,
            "name": "C5",
            "ticks": 7368,
            "time": 21.294748,
            "velocity": 0.7086614173228346
          },
          {
            "duration": 0.4190741666666682,
            "durationTicks": 145,
            "midi": 67,
            "name": "G4",
            "ticks": 7430,
            "time": 21.47393833333333,
            "velocity": 0.8031496062992126
          },
          {
            "duration": 0.40751350000000386,
            "durationTicks": 141,
            "midi": 75,
            "name": "D#5",
            "ticks": 7430,
            "time": 21.47393833333333,
            "velocity": 0.9291338582677166
          },
          {
            "duration": 0.049132833333331405,
            "durationTicks": 17,
            "midi": 72,
            "name": "C5",
            "ticks": 7787,
            "time": 22.50572783333333,
            "velocity": 0.9606299212598425
          },
          {
            "duration": 0.049132833333331405,
            "durationTicks": 17,
            "midi": 65,
            "name": "F4",
            "ticks": 7787,
            "time": 22.50572783333333,
            "velocity": 0.9606299212598425
          },
          {
            "duration": 0.06069349999999929,
            "durationTicks": 21,
            "midi": 72,
            "name": "C5",
            "ticks": 7823,
            "time": 22.60977383333333,
            "velocity": 0.9291338582677166
          },
          {
            "duration": 0.05202300000000193,
            "durationTicks": 18,
            "midi": 65,
            "name": "F4",
            "ticks": 7823,
            "time": 22.60977383333333,
            "velocity": 0.7716535433070866
          },
          {
            "duration": 0.05202300000000193,
            "durationTicks": 18,
            "midi": 72,
            "name": "C5",
            "ticks": 7862,
            "time": 22.72249033333333,
            "velocity": 0.9921259842519685
          },
          {
            "duration": 0.0346820000000001,
            "durationTicks": 12,
            "midi": 65,
            "name": "F4",
            "ticks": 7862,
            "time": 22.72249033333333,
            "velocity": 0.6456692913385826
          },
          {
            "duration": 0.29479699999999553,
            "durationTicks": 102,
            "midi": 75,
            "name": "D#5",
            "ticks": 7910,
            "time": 22.861218333333333,
            "velocity": 1
          },
          {
            "duration": 0.2745658333333303,
            "durationTicks": 95,
            "midi": 72,
            "name": "C5",
            "ticks": 7910,
            "time": 22.861218333333333,
            "velocity": 1
          },
          {
            "duration": 0.06069349999999929,
            "durationTicks": 21,
            "midi": 72,
            "name": "C5",
            "ticks": 8030,
            "time": 23.20803833333333,
            "velocity": 1
          },
          {
            "duration": 0.06069349999999929,
            "durationTicks": 21,
            "midi": 65,
            "name": "F4",
            "ticks": 8030,
            "time": 23.20803833333333,
            "velocity": 1
          },
          {
            "duration": 0.057803333333328766,
            "durationTicks": 20,
            "midi": 62,
            "name": "D4",
            "ticks": 8270,
            "time": 23.901678333333333,
            "velocity": 0.8031496062992126
          },
          {
            "duration": 0.049132833333331405,
            "durationTicks": 17,
            "midi": 70,
            "name": "A#4",
            "ticks": 8270,
            "time": 23.901678333333333,
            "velocity": 0.7086614173228346
          },
          {
            "duration": 0.043352500000001015,
            "durationTicks": 15,
            "midi": 70,
            "name": "A#4",
            "ticks": 8310,
            "time": 24.017284999999998,
            "velocity": 0.4881889763779528
          },
          {
            "duration": 0.05780333333333587,
            "durationTicks": 20,
            "midi": 62,
            "name": "D4",
            "ticks": 8310,
            "time": 24.017284999999998,
            "velocity": 0.6771653543307087
          },
          {
            "duration": 0.04624266666667154,
            "durationTicks": 16,
            "midi": 62,
            "name": "D4",
            "ticks": 8348,
            "time": 24.12711133333333,
            "velocity": 0.4881889763779528
          },
          {
            "duration": 0.046242666666667986,
            "durationTicks": 16,
            "midi": 70,
            "name": "A#4",
            "ticks": 8350,
            "time": 24.132891666666662,
            "velocity": 0.8031496062992126
          },
          {
            "duration": 0.29190683333333567,
            "durationTicks": 101,
            "midi": 74,
            "name": "D5",
            "ticks": 8393,
            "time": 24.257168833333328,
            "velocity": 1
          },
          {
            "duration": 0.2630051666666695,
            "durationTicks": 91,
            "midi": 70,
            "name": "A#4",
            "ticks": 8393,
            "time": 24.257168833333328,
            "velocity": 0.9921259842519685
          },
          {
            "duration": 0.05780333333333232,
            "durationTicks": 20,
            "midi": 62,
            "name": "D4",
            "ticks": 8517,
            "time": 24.615549499999997,
            "velocity": 0.9606299212598425
          },
          {
            "duration": 0.06647383333333323,
            "durationTicks": 23,
            "midi": 70,
            "name": "A#4",
            "ticks": 8520,
            "time": 24.624219999999998,
            "velocity": 1
          },
          {
            "duration": 0.05202299999999482,
            "durationTicks": 18,
            "midi": 61,
            "name": "C#4",
            "ticks": 8756,
            "time": 25.30629933333333,
            "velocity": 1
          },
          {
            "duration": 0.05202299999999482,
            "durationTicks": 18,
            "midi": 70,
            "name": "A#4",
            "ticks": 8756,
            "time": 25.30629933333333,
            "velocity": 1
          },
          {
            "duration": 0.049132833333331405,
            "durationTicks": 17,
            "midi": 70,
            "name": "A#4",
            "ticks": 8796,
            "time": 25.421905999999996,
            "velocity": 0.8976377952755905
          },
          {
            "duration": 0.04335249999999746,
            "durationTicks": 15,
            "midi": 61,
            "name": "C#4",
            "ticks": 8798,
            "time": 25.42768633333333,
            "velocity": 0.7716535433070866
          },
          {
            "duration": 0.046242666666664434,
            "durationTicks": 16,
            "midi": 70,
            "name": "A#4",
            "ticks": 8833,
            "time": 25.528842166666664,
            "velocity": 0.8976377952755905
          },
          {
            "duration": 0.046242666666664434,
            "durationTicks": 16,
            "midi": 61,
            "name": "C#4",
            "ticks": 8833,
            "time": 25.528842166666664,
            "velocity": 0.8661417322834646
          },
          {
            "duration": 0.10404599999999675,
            "durationTicks": 36,
            "midi": 70,
            "name": "A#4",
            "ticks": 8876,
            "time": 25.653119333333333,
            "velocity": 0.9606299212598425
          },
          {
            "duration": 0.13583783333333344,
            "durationTicks": 47,
            "midi": 73,
            "name": "C#5",
            "ticks": 8878,
            "time": 25.658899666666663,
            "velocity": 1
          },
          {
            "duration": 0.13872800000000396,
            "durationTicks": 48,
            "midi": 72,
            "name": "C5",
            "ticks": 8991,
            "time": 25.985488499999995,
            "velocity": 0.9606299212598425
          },
          {
            "duration": 0.12138699999999858,
            "durationTicks": 42,
            "midi": 65,
            "name": "F4",
            "ticks": 8992,
            "time": 25.988378666666666,
            "velocity": 0.8031496062992126
          },
          {
            "duration": 0.1387280000000004,
            "durationTicks": 48,
            "midi": 72,
            "name": "C5",
            "ticks": 9111,
            "time": 26.332308499999996,
            "velocity": 0.8661417322834646
          },
          {
            "duration": 0.13005750000000305,
            "durationTicks": 45,
            "midi": 75,
            "name": "D#5",
            "ticks": 9112,
            "time": 26.335198666666663,
            "velocity": 1
          },
          {
            "duration": 0.13583783333333344,
            "durationTicks": 47,
            "midi": 74,
            "name": "D5",
            "ticks": 9230,
            "time": 26.67623833333333,
            "velocity": 0.9606299212598425
          },
          {
            "duration": 0.11849683333333516,
            "durationTicks": 41,
            "midi": 67,
            "name": "G4",
            "ticks": 9230,
            "time": 26.67623833333333,
            "velocity": 1
          },
          {
            "duration": 0.15895916666666565,
            "durationTicks": 55,
            "midi": 77,
            "name": "F5",
            "ticks": 9348,
            "time": 27.017277999999997,
            "velocity": 1
          },
          {
            "duration": 0.11560666666666464,
            "durationTicks": 40,
            "midi": 74,
            "name": "D5",
            "ticks": 9350,
            "time": 27.02305833333333,
            "velocity": 1
          },
          {
            "duration": 0.14450833333333435,
            "durationTicks": 50,
            "midi": 75,
            "name": "D#5",
            "ticks": 9473,
            "time": 27.37854883333333,
            "velocity": 1
          },
          {
            "duration": 0.10404600000000386,
            "durationTicks": 36,
            "midi": 69,
            "name": "A4",
            "ticks": 9475,
            "time": 27.384329166666664,
            "velocity": 0.9921259842519685
          },
          {
            "duration": 0.10115583333332978,
            "durationTicks": 35,
            "midi": 82,
            "name": "A#5",
            "ticks": 9601,
            "time": 27.748490166666667,
            "velocity": 0.9291338582677166
          },
          {
            "duration": 0.11560666666666464,
            "durationTicks": 40,
            "midi": 70,
            "name": "A#4",
            "ticks": 9602,
            "time": 27.75138033333333,
            "velocity": 1
          },
          {
            "duration": 0.12138699999999858,
            "durationTicks": 42,
            "midi": 81,
            "name": "A5",
            "ticks": 9688,
            "time": 27.999934666666665,
            "velocity": 0.8661417322834646
          },
          {
            "duration": 0.10404599999999675,
            "durationTicks": 36,
            "midi": 69,
            "name": "A4",
            "ticks": 9688,
            "time": 27.999934666666665,
            "velocity": 0.8976377952755905
          },
          {
            "duration": 0.05780333333333587,
            "durationTicks": 20,
            "midi": 80,
            "name": "G#5",
            "ticks": 9763,
            "time": 28.216697166666663,
            "velocity": 1
          },
          {
            "duration": 0.10115583333333689,
            "durationTicks": 35,
            "midi": 68,
            "name": "G#4",
            "ticks": 9765,
            "time": 28.222477499999997,
            "velocity": 0.8346456692913385
          },
          {
            "duration": 0.12138699999999858,
            "durationTicks": 42,
            "midi": 67,
            "name": "G4",
            "ticks": 9842,
            "time": 28.44502033333333,
            "velocity": 0.8661417322834646
          },
          {
            "duration": 0.11560666666666464,
            "durationTicks": 40,
            "midi": 79,
            "name": "G5",
            "ticks": 9845,
            "time": 28.453690833333333,
            "velocity": 1
          },
          {
            "duration": 0.07225416666666362,
            "durationTicks": 25,
            "midi": 78,
            "name": "F#5",
            "ticks": 9917,
            "time": 28.66178283333333,
            "velocity": 1
          },
          {
            "duration": 0.09537550000000294,
            "durationTicks": 33,
            "midi": 66,
            "name": "F#4",
            "ticks": 9921,
            "time": 28.673343499999994,
            "velocity": 1
          },
          {
            "duration": 0.10404599999999675,
            "durationTicks": 36,
            "midi": 77,
            "name": "F5",
            "ticks": 9995,
            "time": 28.887215833333332,
            "velocity": 0.7086614173228346
          },
          {
            "duration": 0.09537549999999584,
            "durationTicks": 33,
            "midi": 65,
            "name": "F4",
            "ticks": 9997,
            "time": 28.892996166666666,
            "velocity": 0.7086614173228346
          },
          {
            "duration": 0.07225416666666717,
            "durationTicks": 25,
            "midi": 64,
            "name": "E4",
            "ticks": 10078,
            "time": 29.127099666666663,
            "velocity": 0.7401574803149606
          },
          {
            "duration": 0.07514433333333415,
            "durationTicks": 26,
            "midi": 76,
            "name": "E5",
            "ticks": 10080,
            "time": 29.132879999999997,
            "velocity": 0.8346456692913385
          },
          {
            "duration": 0.06069349999999929,
            "durationTicks": 21,
            "midi": 75,
            "name": "D#5",
            "ticks": 10155,
            "time": 29.349642499999998,
            "velocity": 1
          },
          {
            "duration": 0.07225416666666362,
            "durationTicks": 25,
            "midi": 63,
            "name": "D#4",
            "ticks": 10158,
            "time": 29.358313,
            "velocity": 0.9921259842519685
          },
          {
            "duration": 0.10115583333333333,
            "durationTicks": 35,
            "midi": 62,
            "name": "D4",
            "ticks": 10240,
            "time": 29.595306666666662,
            "velocity": 0.7716535433070866
          },
          {
            "duration": 0.10115583333333333,
            "durationTicks": 35,
            "midi": 74,
            "name": "D5",
            "ticks": 10240,
            "time": 29.595306666666662,
            "velocity": 0.8031496062992126
          },
          {
            "duration": 0.049132833333331405,
            "durationTicks": 17,
            "midi": 73,
            "name": "C#5",
            "ticks": 10318,
            "time": 29.820739666666665,
            "velocity": 1
          },
          {
            "duration": 0.06069349999999929,
            "durationTicks": 21,
            "midi": 61,
            "name": "C#4",
            "ticks": 10318,
            "time": 29.820739666666665,
            "velocity": 1
          },
          {
            "duration": 0.08670499999999848,
            "durationTicks": 30,
            "midi": 60,
            "name": "C4",
            "ticks": 10400,
            "time": 30.05773333333333,
            "velocity": 0.7716535433070866
          },
          {
            "duration": 0.06358366666666271,
            "durationTicks": 22,
            "midi": 72,
            "name": "C5",
            "ticks": 10400,
            "time": 30.05773333333333,
            "velocity": 0.7086614173228346
          },
          {
            "duration": 0.07225416666666717,
            "durationTicks": 25,
            "midi": 59,
            "name": "B3",
            "ticks": 10478,
            "time": 30.28316633333333,
            "velocity": 0.7086614173228346
          },
          {
            "duration": 0.07514433333333415,
            "durationTicks": 26,
            "midi": 71,
            "name": "B4",
            "ticks": 10480,
            "time": 30.28894666666666,
            "velocity": 0.7086614173228346
          },
          {
            "duration": 0.10115583333333333,
            "durationTicks": 35,
            "midi": 58,
            "name": "A#3",
            "ticks": 10560,
            "time": 30.520159999999997,
            "velocity": 1
          },
          {
            "duration": 0.124277166666662,
            "durationTicks": 43,
            "midi": 70,
            "name": "A#4",
            "ticks": 10561,
            "time": 30.523050166666664,
            "velocity": 1
          },
          {
            "duration": 0.1531788333333317,
            "durationTicks": 53,
            "midi": 71,
            "name": "B4",
            "ticks": 10792,
            "time": 31.190678666666663,
            "velocity": 1
          },
          {
            "duration": 0.1300574999999995,
            "durationTicks": 45,
            "midi": 67,
            "name": "G4",
            "ticks": 10793,
            "time": 31.19356883333333,
            "velocity": 1
          },
          {
            "duration": 0.1589591666666621,
            "durationTicks": 55,
            "midi": 72,
            "name": "C5",
            "ticks": 11030,
            "time": 31.87853833333333,
            "velocity": 0.8661417322834646
          },
          {
            "duration": 0.15028866666667184,
            "durationTicks": 52,
            "midi": 67,
            "name": "G4",
            "ticks": 11031,
            "time": 31.881428499999995,
            "velocity": 0.9291338582677166
          },
          {
            "duration": 0.13583783333333344,
            "durationTicks": 47,
            "midi": 74,
            "name": "D5",
            "ticks": 11270,
            "time": 32.57217833333333,
            "velocity": 1
          },
          {
            "duration": 0.1300574999999995,
            "durationTicks": 45,
            "midi": 68,
            "name": "G#4",
            "ticks": 11270,
            "time": 32.57217833333333,
            "velocity": 0.8976377952755905
          },
          {
            "duration": 0.10115583333332978,
            "durationTicks": 35,
            "midi": 70,
            "name": "A#4",
            "ticks": 11517,
            "time": 33.2860495,
            "velocity": 0.9921259842519685
          },
          {
            "duration": 0.08670499999999493,
            "durationTicks": 30,
            "midi": 67,
            "name": "G4",
            "ticks": 11520,
            "time": 33.29472,
            "velocity": 1
          },
          {
            "duration": 0.05780333333333232,
            "durationTicks": 20,
            "midi": 70,
            "name": "A#4",
            "ticks": 11640,
            "time": 33.64154,
            "velocity": 0.9921259842519685
          },
          {
            "duration": 0.046242666666664434,
            "durationTicks": 16,
            "midi": 58,
            "name": "A#3",
            "ticks": 11640,
            "time": 33.64154,
            "velocity": 0.7716535433070866
          },
          {
            "duration": 0.049132833333331405,
            "durationTicks": 17,
            "midi": 70,
            "name": "A#4",
            "ticks": 11677,
            "time": 33.74847616666666,
            "velocity": 0.5826771653543307
          },
          {
            "duration": 0.052022999999998376,
            "durationTicks": 18,
            "midi": 58,
            "name": "A#3",
            "ticks": 11678,
            "time": 33.75136633333333,
            "velocity": 0.7716535433070866
          },
          {
            "duration": 0.06358366666667337,
            "durationTicks": 22,
            "midi": 70,
            "name": "A#4",
            "ticks": 11715,
            "time": 33.85830249999999,
            "velocity": 0.5826771653543307
          },
          {
            "duration": 0.1387279999999933,
            "durationTicks": 48,
            "midi": 74,
            "name": "D5",
            "ticks": 11756,
            "time": 33.97679933333333,
            "velocity": 0.8031496062992126
          },
          {
            "duration": 0.1300575000000066,
            "durationTicks": 45,
            "midi": 65,
            "name": "F4",
            "ticks": 11760,
            "time": 33.98835999999999,
            "velocity": 0.8661417322834646
          },
          {
            "duration": 0.09248533333332887,
            "durationTicks": 32,
            "midi": 65,
            "name": "F4",
            "ticks": 11872,
            "time": 34.312058666666665,
            "velocity": 0.8976377952755905
          },
          {
            "duration": 0.11560666666666464,
            "durationTicks": 40,
            "midi": 70,
            "name": "A#4",
            "ticks": 11872,
            "time": 34.312058666666665,
            "velocity": 1
          },
          {
            "duration": 0.10115583333333689,
            "durationTicks": 35,
            "midi": 67,
            "name": "G4",
            "ticks": 11993,
            "time": 34.661768833333326,
            "velocity": 0.9921259842519685
          },
          {
            "duration": 0.10404600000000386,
            "durationTicks": 36,
            "midi": 70,
            "name": "A#4",
            "ticks": 11993,
            "time": 34.661768833333326,
            "velocity": 1
          },
          {
            "duration": 0.049132833333331405,
            "durationTicks": 17,
            "midi": 70,
            "name": "A#4",
            "ticks": 12113,
            "time": 35.00858883333333,
            "velocity": 1
          },
          {
            "duration": 0.04624266666667154,
            "durationTicks": 16,
            "midi": 58,
            "name": "A#3",
            "ticks": 12113,
            "time": 35.00858883333333,
            "velocity": 0.8976377952755905
          },
          {
            "duration": 0.046242666666664434,
            "durationTicks": 16,
            "midi": 70,
            "name": "A#4",
            "ticks": 12148,
            "time": 35.109744666666664,
            "velocity": 0.7086614173228346
          },
          {
            "duration": 0.049132833333331405,
            "durationTicks": 17,
            "midi": 58,
            "name": "A#3",
            "ticks": 12151,
            "time": 35.118415166666665,
            "velocity": 0.8661417322834646
          },
          {
            "duration": 0.03179183333333668,
            "durationTicks": 11,
            "midi": 58,
            "name": "A#3",
            "ticks": 12188,
            "time": 35.22535133333333,
            "velocity": 0.2677165354330709
          },
          {
            "duration": 0.07225416666666717,
            "durationTicks": 25,
            "midi": 70,
            "name": "A#4",
            "ticks": 12188,
            "time": 35.22535133333333,
            "velocity": 0.8031496062992126
          },
          {
            "duration": 0.11560666666667174,
            "durationTicks": 40,
            "midi": 74,
            "name": "D5",
            "ticks": 12235,
            "time": 35.36118916666666,
            "velocity": 0.8346456692913385
          },
          {
            "duration": 0.11849683333333161,
            "durationTicks": 41,
            "midi": 65,
            "name": "F4",
            "ticks": 12235,
            "time": 35.36118916666666,
            "velocity": 0.7716535433070866
          },
          {
            "duration": 0.08670499999999493,
            "durationTicks": 30,
            "midi": 65,
            "name": "F4",
            "ticks": 12355,
            "time": 35.70800916666666,
            "velocity": 0.8976377952755905
          },
          {
            "duration": 0.10115583333332978,
            "durationTicks": 35,
            "midi": 70,
            "name": "A#4",
            "ticks": 12355,
            "time": 35.70800916666666,
            "velocity": 1
          },
          {
            "duration": 0.08670499999999493,
            "durationTicks": 30,
            "midi": 67,
            "name": "G4",
            "ticks": 12475,
            "time": 36.054829166666664,
            "velocity": 1
          },
          {
            "duration": 0.09248533333332887,
            "durationTicks": 32,
            "midi": 70,
            "name": "A#4",
            "ticks": 12476,
            "time": 36.05771933333333,
            "velocity": 0.8346456692913385
          },
          {
            "duration": 0.07225416666666717,
            "durationTicks": 25,
            "midi": 68,
            "name": "G#4",
            "ticks": 12590,
            "time": 36.38719833333333,
            "velocity": 1
          },
          {
            "duration": 0.06069349999999929,
            "durationTicks": 21,
            "midi": 65,
            "name": "F4",
            "ticks": 12590,
            "time": 36.38719833333333,
            "velocity": 0.8031496062992126
          },
          {
            "duration": 0.10115583333333689,
            "durationTicks": 35,
            "midi": 70,
            "name": "A#4",
            "ticks": 12715,
            "time": 36.74846916666666,
            "velocity": 1
          },
          {
            "duration": 0.08670500000000203,
            "durationTicks": 30,
            "midi": 67,
            "name": "G4",
            "ticks": 12715,
            "time": 36.74846916666666,
            "velocity": 0.9291338582677166
          },
          {
            "duration": 0.09248533333332887,
            "durationTicks": 32,
            "midi": 68,
            "name": "G#4",
            "ticks": 12827,
            "time": 37.07216783333333,
            "velocity": 1
          },
          {
            "duration": 0.06647383333333323,
            "durationTicks": 23,
            "midi": 65,
            "name": "F4",
            "ticks": 12830,
            "time": 37.08083833333333,
            "velocity": 0.8346456692913385
          },
          {
            "duration": 0.07803450000000112,
            "durationTicks": 27,
            "midi": 67,
            "name": "G4",
            "ticks": 12947,
            "time": 37.418987833333325,
            "velocity": 1
          },
          {
            "duration": 0.0895951666666619,
            "durationTicks": 31,
            "midi": 70,
            "name": "A#4",
            "ticks": 12950,
            "time": 37.42765833333333,
            "velocity": 0.8661417322834646
          },
          {
            "duration": 0.08670500000000203,
            "durationTicks": 30,
            "midi": 68,
            "name": "G#4",
            "ticks": 13070,
            "time": 37.77447833333333,
            "velocity": 1
          },
          {
            "duration": 0.06358366666666626,
            "durationTicks": 22,
            "midi": 65,
            "name": "F4",
            "ticks": 13070,
            "time": 37.77447833333333,
            "velocity": 0.8976377952755905
          },
          {
            "duration": 0.08092466666666809,
            "durationTicks": 28,
            "midi": 67,
            "name": "G4",
            "ticks": 13185,
            "time": 38.10684749999999,
            "velocity": 1
          },
          {
            "duration": 0.08670500000000203,
            "durationTicks": 30,
            "midi": 70,
            "name": "A#4",
            "ticks": 13188,
            "time": 38.115517999999994,
            "velocity": 1
          },
          {
            "duration": 0.089595166666669,
            "durationTicks": 31,
            "midi": 68,
            "name": "G#4",
            "ticks": 13305,
            "time": 38.453667499999995,
            "velocity": 1
          },
          {
            "duration": 0.07225416666666717,
            "durationTicks": 25,
            "midi": 65,
            "name": "F4",
            "ticks": 13305,
            "time": 38.453667499999995,
            "velocity": 0.8346456692913385
          },
          {
            "duration": 0.09537550000000294,
            "durationTicks": 33,
            "midi": 67,
            "name": "G4",
            "ticks": 13425,
            "time": 38.800487499999996,
            "velocity": 0.9921259842519685
          },
          {
            "duration": 0.10115583333332978,
            "durationTicks": 35,
            "midi": 70,
            "name": "A#4",
            "ticks": 13426,
            "time": 38.80337766666666,
            "velocity": 1
          },
          {
            "duration": 0.01445083333332775,
            "durationTicks": 5,
            "midi": 68,
            "name": "G#4",
            "ticks": 13430,
            "time": 38.81493833333333,
            "velocity": 0.4251968503937008
          },
          {
            "duration": 0.10693616666666372,
            "durationTicks": 37,
            "midi": 71,
            "name": "B4",
            "ticks": 13545,
            "time": 39.1473075,
            "velocity": 1
          },
          {
            "duration": 0.08670500000000203,
            "durationTicks": 30,
            "midi": 62,
            "name": "D4",
            "ticks": 13545,
            "time": 39.1473075,
            "velocity": 1
          },
          {
            "duration": 0.10404599999999675,
            "durationTicks": 36,
            "midi": 72,
            "name": "C5",
            "ticks": 13668,
            "time": 39.502798,
            "velocity": 1
          },
          {
            "duration": 0.09248533333332887,
            "durationTicks": 32,
            "midi": 67,
            "name": "G4",
            "ticks": 13668,
            "time": 39.502798,
            "velocity": 1
          },
          {
            "duration": 0.1098263333333378,
            "durationTicks": 38,
            "midi": 71,
            "name": "B4",
            "ticks": 13792,
            "time": 39.86117866666666,
            "velocity": 1
          },
          {
            "duration": 0.10404599999999675,
            "durationTicks": 36,
            "midi": 62,
            "name": "D4",
            "ticks": 13793,
            "time": 39.86406883333333,
            "velocity": 0.9606299212598425
          },
          {
            "duration": 0.11560666666667174,
            "durationTicks": 40,
            "midi": 72,
            "name": "C5",
            "ticks": 13915,
            "time": 40.21666916666666,
            "velocity": 1
          },
          {
            "duration": 0.0895951666666619,
            "durationTicks": 31,
            "midi": 67,
            "name": "G4",
            "ticks": 13918,
            "time": 40.22533966666666,
            "velocity": 1
          },
          {
            "duration": 0.10404600000000386,
            "durationTicks": 36,
            "midi": 71,
            "name": "B4",
            "ticks": 14035,
            "time": 40.56348916666666,
            "velocity": 1
          },
          {
            "duration": 0.09537549999999584,
            "durationTicks": 33,
            "midi": 62,
            "name": "D4",
            "ticks": 14036,
            "time": 40.56637933333333,
            "velocity": 0.8976377952755905
          },
          {
            "duration": 0.10404600000000386,
            "durationTicks": 36,
            "midi": 72,
            "name": "C5",
            "ticks": 14160,
            "time": 40.92475999999999,
            "velocity": 0.9921259842519685
          },
          {
            "duration": 0.089595166666669,
            "durationTicks": 31,
            "midi": 67,
            "name": "G4",
            "ticks": 14160,
            "time": 40.92475999999999,
            "velocity": 1
          },
          {
            "duration": 0.07225416666666717,
            "durationTicks": 25,
            "midi": 65,
            "name": "F4",
            "ticks": 14280,
            "time": 41.27157999999999,
            "velocity": 0.7716535433070866
          },
          {
            "duration": 0.07225416666666007,
            "durationTicks": 25,
            "midi": 70,
            "name": "A#4",
            "ticks": 14281,
            "time": 41.27447016666667,
            "velocity": 0.7716535433070866
          },
          {
            "duration": 0.07803450000000112,
            "durationTicks": 27,
            "midi": 70,
            "name": "A#4",
            "ticks": 14402,
            "time": 41.62418033333333,
            "velocity": 0.7086614173228346
          },
          {
            "duration": 0.06358366666666626,
            "durationTicks": 22,
            "midi": 67,
            "name": "G4",
            "ticks": 14403,
            "time": 41.627070499999995,
            "velocity": 0.8031496062992126
          },
          {
            "duration": 0.03468199999999655,
            "durationTicks": 12,
            "midi": 70,
            "name": "A#4",
            "ticks": 14461,
            "time": 41.794700166666665,
            "velocity": 0.7716535433070866
          },
          {
            "duration": 0.03179183333332958,
            "durationTicks": 11,
            "midi": 70,
            "name": "A#4",
            "ticks": 14465,
            "time": 41.80626083333333,
            "velocity": 0.8976377952755905
          },
          {
            "duration": 0.037572166666670626,
            "durationTicks": 13,
            "midi": 70,
            "name": "A#4",
            "ticks": 14495,
            "time": 41.89296583333333,
            "velocity": 0.5826771653543307
          },
          {
            "duration": 0.052022999999998376,
            "durationTicks": 18,
            "midi": 75,
            "name": "D#5",
            "ticks": 14521,
            "time": 41.96811016666666,
            "velocity": 0.8031496062992126
          },
          {
            "duration": 0.028901666666662607,
            "durationTicks": 10,
            "midi": 67,
            "name": "G4",
            "ticks": 14525,
            "time": 41.97967083333333,
            "velocity": 0.7716535433070866
          },
          {
            "duration": 0.034682000000003654,
            "durationTicks": 12,
            "midi": 70,
            "name": "A#4",
            "ticks": 14580,
            "time": 42.13862999999999,
            "velocity": 0.8976377952755905
          },
          {
            "duration": 0.046242666666664434,
            "durationTicks": 16,
            "midi": 77,
            "name": "F5",
            "ticks": 14581,
            "time": 42.141520166666666,
            "velocity": 0.8031496062992126
          },
          {
            "duration": 0.05780333333333232,
            "durationTicks": 20,
            "midi": 79,
            "name": "G5",
            "ticks": 14637,
            "time": 42.303369499999995,
            "velocity": 0.8976377952755905
          },
          {
            "duration": 0.04335249999999746,
            "durationTicks": 15,
            "midi": 75,
            "name": "D#5",
            "ticks": 14640,
            "time": 42.312039999999996,
            "velocity": 0.8661417322834646
          },
          {
            "duration": 0.057803333333339424,
            "durationTicks": 20,
            "midi": 77,
            "name": "F5",
            "ticks": 14698,
            "time": 42.47966966666666,
            "velocity": 0.7716535433070866
          },
          {
            "duration": 0.046242666666664434,
            "durationTicks": 16,
            "midi": 70,
            "name": "A#4",
            "ticks": 14698,
            "time": 42.47966966666666,
            "velocity": 0.4881889763779528
          },
          {
            "duration": 0.05780333333333232,
            "durationTicks": 20,
            "midi": 75,
            "name": "D#5",
            "ticks": 14755,
            "time": 42.64440916666666,
            "velocity": 0.8661417322834646
          },
          {
            "duration": 0.04335249999999746,
            "durationTicks": 15,
            "midi": 67,
            "name": "G4",
            "ticks": 14756,
            "time": 42.64729933333333,
            "velocity": 0.6456692913385826
          },
          {
            "duration": 0.04624266666667154,
            "durationTicks": 16,
            "midi": 70,
            "name": "A#4",
            "ticks": 14813,
            "time": 42.812038833333325,
            "velocity": 0.33070866141732286
          },
          {
            "duration": 0.052022999999998376,
            "durationTicks": 18,
            "midi": 77,
            "name": "F5",
            "ticks": 14816,
            "time": 42.820709333333326,
            "velocity": 0.5826771653543307
          },
          {
            "duration": 0.05780333333333232,
            "durationTicks": 20,
            "midi": 70,
            "name": "A#4",
            "ticks": 14876,
            "time": 42.99411933333333,
            "velocity": 1
          },
          {
            "duration": 0.03757216666666352,
            "durationTicks": 13,
            "midi": 67,
            "name": "G4",
            "ticks": 14880,
            "time": 43.00568,
            "velocity": 0.8976377952755905
          },
          {
            "duration": 0.03757216666666352,
            "durationTicks": 13,
            "midi": 70,
            "name": "A#4",
            "ticks": 14930,
            "time": 43.15018833333333,
            "velocity": 0.7716535433070866
          },
          {
            "duration": 0.04335249999999746,
            "durationTicks": 15,
            "midi": 62,
            "name": "D4",
            "ticks": 14930,
            "time": 43.15018833333333,
            "velocity": 0.7716535433070866
          },
          {
            "duration": 0.04624266666665733,
            "durationTicks": 16,
            "midi": 70,
            "name": "A#4",
            "ticks": 14958,
            "time": 43.231113,
            "velocity": 0.7086614173228346
          },
          {
            "duration": 0.04335250000000457,
            "durationTicks": 15,
            "midi": 62,
            "name": "D4",
            "ticks": 14960,
            "time": 43.23689333333333,
            "velocity": 0.7401574803149606
          },
          {
            "duration": 0.03468199999999655,
            "durationTicks": 12,
            "midi": 63,
            "name": "D#4",
            "ticks": 14993,
            "time": 43.33226883333333,
            "velocity": 0.9921259842519685
          },
          {
            "duration": 0.046242666666664434,
            "durationTicks": 16,
            "midi": 67,
            "name": "G4",
            "ticks": 14993,
            "time": 43.33226883333333,
            "velocity": 0.8661417322834646
          },
          {
            "duration": 0.04335249999999746,
            "durationTicks": 15,
            "midi": 65,
            "name": "F4",
            "ticks": 15055,
            "time": 43.51145916666666,
            "velocity": 0.7086614173228346
          },
          {
            "duration": 0.052022999999998376,
            "durationTicks": 18,
            "midi": 70,
            "name": "A#4",
            "ticks": 15055,
            "time": 43.51145916666666,
            "velocity": 0.9291338582677166
          },
          {
            "duration": 0.049132833333331405,
            "durationTicks": 17,
            "midi": 67,
            "name": "G4",
            "ticks": 15110,
            "time": 43.67041833333333,
            "velocity": 0.8976377952755905
          },
          {
            "duration": 0.06069349999999929,
            "durationTicks": 21,
            "midi": 75,
            "name": "D#5",
            "ticks": 15110,
            "time": 43.67041833333333,
            "velocity": 0.9921259842519685
          },
          {
            "duration": 0.046242666666664434,
            "durationTicks": 16,
            "midi": 65,
            "name": "F4",
            "ticks": 15170,
            "time": 43.84382833333333,
            "velocity": 0.7716535433070866
          },
          {
            "duration": 0.06358366666666626,
            "durationTicks": 22,
            "midi": 70,
            "name": "A#4",
            "ticks": 15171,
            "time": 43.846718499999994,
            "velocity": 0.5826771653543307
          },
          {
            "duration": 0.06069349999999929,
            "durationTicks": 21,
            "midi": 67,
            "name": "G4",
            "ticks": 15226,
            "time": 44.005677666666664,
            "velocity": 0.8976377952755905
          },
          {
            "duration": 0.049132833333331405,
            "durationTicks": 17,
            "midi": 63,
            "name": "D#4",
            "ticks": 15227,
            "time": 44.00856783333333,
            "velocity": 0.6456692913385826
          },
          {
            "duration": 0.07225416666666717,
            "durationTicks": 25,
            "midi": 70,
            "name": "A#4",
            "ticks": 15290,
            "time": 44.19064833333333,
            "velocity": 0.4881889763779528
          },
          {
            "duration": 0.052022999999998376,
            "durationTicks": 18,
            "midi": 65,
            "name": "F4",
            "ticks": 15290,
            "time": 44.19064833333333,
            "velocity": 0.6141732283464567
          },
          {
            "duration": 0.089595166666669,
            "durationTicks": 31,
            "midi": 67,
            "name": "G4",
            "ticks": 15355,
            "time": 44.37850916666666,
            "velocity": 0.8661417322834646
          },
          {
            "duration": 0.08670500000000203,
            "durationTicks": 30,
            "midi": 70,
            "name": "A#4",
            "ticks": 15356,
            "time": 44.38139933333333,
            "velocity": 0.9921259842519685
          },
          {
            "duration": 0.13294766666667357,
            "durationTicks": 46,
            "midi": 75,
            "name": "D#5",
            "ticks": 15845,
            "time": 45.79469083333333,
            "velocity": 1
          },
          {
            "duration": 0.1300574999999995,
            "durationTicks": 45,
            "midi": 67,
            "name": "G4",
            "ticks": 15846,
            "time": 45.797581,
            "velocity": 0.9606299212598425
          },
          {
            "duration": 0.17938920833333327,
            "durationTicks": 47,
            "midi": 70,
            "name": "A#4",
            "ticks": 16333,
            "time": 47.217138291666664,
            "velocity": 0.8346456692913385
          },
          {
            "duration": 0.194656375000001,
            "durationTicks": 51,
            "midi": 67,
            "name": "G4",
            "ticks": 16335,
            "time": 47.224771874999995,
            "velocity": 0.8031496062992126
          },
          {
            "duration": 0.35114483333333624,
            "durationTicks": 92,
            "midi": 63,
            "name": "D#4",
            "ticks": 16578,
            "time": 48.15225225,
            "velocity": 1
          },
          {
            "duration": 0.08015262500000375,
            "durationTicks": 21,
            "midi": 63,
            "name": "D#4",
            "ticks": 16735,
            "time": 48.75148854166666,
            "velocity": 1
          },
          {
            "duration": 0.5152668750000018,
            "durationTicks": 135,
            "midi": 67,
            "name": "G4",
            "ticks": 16792,
            "time": 48.96904566666666,
            "velocity": 1
          },
          {
            "duration": 0.5267172500000044,
            "durationTicks": 138,
            "midi": 63,
            "name": "D#4",
            "ticks": 16792,
            "time": 48.96904566666666,
            "velocity": 1
          },
          {
            "duration": 0.5534347916666675,
            "durationTicks": 145,
            "midi": 70,
            "name": "A#4",
            "ticks": 17030,
            "time": 49.87744208333333,
            "velocity": 1
          },
          {
            "duration": 0.5038164999999992,
            "durationTicks": 132,
            "midi": 58,
            "name": "A#3",
            "ticks": 17032,
            "time": 49.885075666666665,
            "velocity": 0.9606299212598425
          },
          {
            "duration": 0.9427475416666695,
            "durationTicks": 247,
            "midi": 67,
            "name": "G4",
            "ticks": 17280,
            "time": 50.83163999999999,
            "velocity": 1
          },
          {
            "duration": 0.9351139583333321,
            "durationTicks": 245,
            "midi": 70,
            "name": "A#4",
            "ticks": 17282,
            "time": 50.83927358333333,
            "velocity": 1
          },
          {
            "duration": 0.9847322500000004,
            "durationTicks": 258,
            "midi": 67,
            "name": "G4",
            "ticks": 17770,
            "time": 52.701867916666664,
            "velocity": 1
          },
          {
            "duration": 0.9961826249999959,
            "durationTicks": 261,
            "midi": 70,
            "name": "A#4",
            "ticks": 17770,
            "time": 52.701867916666664,
            "velocity": 1
          },
          {
            "duration": 0.9809154583333353,
            "durationTicks": 257,
            "midi": 63,
            "name": "D#4",
            "ticks": 18246,
            "time": 54.518660749999995,
            "velocity": 1
          },
          {
            "duration": 0.9961826249999959,
            "durationTicks": 261,
            "midi": 67,
            "name": "G4",
            "ticks": 18718,
            "time": 56.320186416666665,
            "velocity": 1
          },
          {
            "duration": 1.0152665833333288,
            "durationTicks": 266,
            "midi": 70,
            "name": "A#4",
            "ticks": 18718,
            "time": 56.320186416666665,
            "velocity": 1
          },
          {
            "duration": 0.21374033333333387,
            "durationTicks": 56,
            "midi": 70,
            "name": "A#4",
            "ticks": 19213,
            "time": 58.20949829166666,
            "velocity": 0.8976377952755905
          },
          {
            "duration": 0.19847316666666615,
            "durationTicks": 52,
            "midi": 67,
            "name": "G4",
            "ticks": 19213,
            "time": 58.20949829166666,
            "velocity": 0.9606299212598425
          },
          {
            "duration": 1.3703690000000037,
            "durationTicks": 296,
            "midi": 63,
            "name": "D#4",
            "ticks": 19688,
            "time": 60.028977,
            "velocity": 1
          },
          {
            "duration": 0.2870367499999986,
            "durationTicks": 62,
            "midi": 63,
            "name": "D#4",
            "ticks": 20043,
            "time": 61.672493875,
            "velocity": 1
          },
          {
            "duration": 4,
            "durationTicks": 480,
            "midi": 63,
            "name": "D#4",
            "ticks": 20176,
            "time": 62.34749333333333,
            "velocity": 1
          }
        ],
        "endOfTrackTicks": 20656
      },
      {
        "channel": 8,
        "controlChanges": {
          "0": [
            {
              "number": 0,
              "ticks": 0,
              "time": 0,
              "value": 0
            }
          ],
          "1": [
            {
              "number": 1,
              "ticks": 0,
              "time": 0,
              "value": 0
            }
          ],
          "7": [
            {
              "number": 7,
              "ticks": 0,
              "time": 0,
              "value": 0.984251968503937
            }
          ],
          "10": [
            {
              "number": 10,
              "ticks": 0,
              "time": 0,
              "value": 0.6692913385826772
            }
          ],
          "64": [
            {
              "number": 64,
              "ticks": 0,
              "time": 0,
              "value": 0
            }
          ]
        },
        "pitchBends": [
          {
            "ticks": 0,
            "time": 0,
            "value": 0
          }
        ],
        "instrument": {
          "family": "brass",
          "number": 56,
          "name": "trumpet"
        },
        "name": "Trombone 1",
        "notes": [
          {
            "duration": 0.09248533333333334,
            "durationTicks": 32,
            "midi": 51,
            "name": "D#3",
            "ticks": 1,
            "time": 0.0028901666666666663,
            "velocity": 0.7716535433070866
          },
          {
            "duration": 0.10115583333333328,
            "durationTicks": 35,
            "midi": 46,
            "name": "A#2",
            "ticks": 115,
            "time": 0.33236916666666666,
            "velocity": 1
          },
          {
            "duration": 0.10982633333333325,
            "durationTicks": 38,
            "midi": 51,
            "name": "D#3",
            "ticks": 230,
            "time": 0.6647383333333333,
            "velocity": 1
          },
          {
            "duration": 0.08959516666666678,
            "durationTicks": 31,
            "midi": 46,
            "name": "A#2",
            "ticks": 350,
            "time": 1.0115583333333331,
            "velocity": 1
          },
          {
            "duration": 0.10982633333333336,
            "durationTicks": 38,
            "midi": 51,
            "name": "D#3",
            "ticks": 462,
            "time": 1.335257,
            "velocity": 1
          },
          {
            "duration": 0.07803450000000023,
            "durationTicks": 27,
            "midi": 46,
            "name": "A#2",
            "ticks": 593,
            "time": 1.713868833333333,
            "velocity": 1
          },
          {
            "duration": 0.09248533333333331,
            "durationTicks": 32,
            "midi": 51,
            "name": "D#3",
            "ticks": 712,
            "time": 2.0577986666666663,
            "velocity": 1
          },
          {
            "duration": 0.08670499999999981,
            "durationTicks": 30,
            "midi": 46,
            "name": "A#2",
            "ticks": 833,
            "time": 2.407508833333333,
            "velocity": 1
          },
          {
            "duration": 0.1040460000000003,
            "durationTicks": 36,
            "midi": 51,
            "name": "D#3",
            "ticks": 961,
            "time": 2.777450166666666,
            "velocity": 1
          },
          {
            "duration": 0.07514433333333326,
            "durationTicks": 26,
            "midi": 46,
            "name": "A#2",
            "ticks": 1080,
            "time": 3.12138,
            "velocity": 0.9606299212598425
          },
          {
            "duration": 0.09537549999999984,
            "durationTicks": 33,
            "midi": 51,
            "name": "D#3",
            "ticks": 1188,
            "time": 3.433518,
            "velocity": 1
          },
          {
            "duration": 0.08959516666666678,
            "durationTicks": 31,
            "midi": 46,
            "name": "A#2",
            "ticks": 1313,
            "time": 3.7947888333333326,
            "velocity": 0.8661417322834646
          },
          {
            "duration": 0.1040460000000003,
            "durationTicks": 36,
            "midi": 51,
            "name": "D#3",
            "ticks": 1433,
            "time": 4.141608833333333,
            "velocity": 1
          },
          {
            "duration": 0.08959516666666723,
            "durationTicks": 31,
            "midi": 46,
            "name": "A#2",
            "ticks": 1558,
            "time": 4.502879666666666,
            "velocity": 1
          },
          {
            "duration": 0.08959516666666723,
            "durationTicks": 31,
            "midi": 51,
            "name": "D#3",
            "ticks": 1683,
            "time": 4.864150499999999,
            "velocity": 0.8976377952755905
          },
          {
            "duration": 0.08670500000000025,
            "durationTicks": 30,
            "midi": 46,
            "name": "A#2",
            "ticks": 1800,
            "time": 5.202299999999999,
            "velocity": 1
          },
          {
            "duration": 0.08670500000000025,
            "durationTicks": 30,
            "midi": 51,
            "name": "D#3",
            "ticks": 1926,
            "time": 5.566460999999999,
            "velocity": 0.9291338582677166
          },
          {
            "duration": 0.08670500000000025,
            "durationTicks": 30,
            "midi": 46,
            "name": "A#2",
            "ticks": 2031,
            "time": 5.869928499999999,
            "velocity": 0.9606299212598425
          },
          {
            "duration": 0.10115583333333422,
            "durationTicks": 35,
            "midi": 51,
            "name": "D#3",
            "ticks": 2146,
            "time": 6.202297666666666,
            "velocity": 1
          },
          {
            "duration": 0.08959516666666811,
            "durationTicks": 31,
            "midi": 46,
            "name": "A#2",
            "ticks": 2268,
            "time": 6.554897999999999,
            "velocity": 0.8976377952755905
          },
          {
            "duration": 0.09537549999999939,
            "durationTicks": 33,
            "midi": 51,
            "name": "D#3",
            "ticks": 2391,
            "time": 6.9103885,
            "velocity": 1
          },
          {
            "duration": 0.08959516666666634,
            "durationTicks": 31,
            "midi": 46,
            "name": "A#2",
            "ticks": 2510,
            "time": 7.254318333333333,
            "velocity": 1
          },
          {
            "duration": 0.10115583333333422,
            "durationTicks": 35,
            "midi": 51,
            "name": "D#3",
            "ticks": 2635,
            "time": 7.615589166666665,
            "velocity": 0.9291338582677166
          },
          {
            "duration": 0.07803449999999934,
            "durationTicks": 27,
            "midi": 46,
            "name": "A#2",
            "ticks": 2758,
            "time": 7.971079666666666,
            "velocity": 1
          },
          {
            "duration": 0.09248533333333242,
            "durationTicks": 32,
            "midi": 51,
            "name": "D#3",
            "ticks": 2877,
            "time": 8.3150095,
            "velocity": 1
          },
          {
            "duration": 0.08092466666666454,
            "durationTicks": 28,
            "midi": 46,
            "name": "A#2",
            "ticks": 2998,
            "time": 8.664719666666667,
            "velocity": 1
          },
          {
            "duration": 0.08670499999999848,
            "durationTicks": 30,
            "midi": 51,
            "name": "D#3",
            "ticks": 3120,
            "time": 9.01732,
            "velocity": 1
          },
          {
            "duration": 0.08670500000000025,
            "durationTicks": 30,
            "midi": 46,
            "name": "A#2",
            "ticks": 3232,
            "time": 9.341018666666665,
            "velocity": 1
          },
          {
            "duration": 0.09537549999999939,
            "durationTicks": 33,
            "midi": 51,
            "name": "D#3",
            "ticks": 3350,
            "time": 9.682058333333332,
            "velocity": 1
          },
          {
            "duration": 0.08959516666666723,
            "durationTicks": 31,
            "midi": 46,
            "name": "A#2",
            "ticks": 3468,
            "time": 10.023098,
            "velocity": 1
          },
          {
            "duration": 0.08959516666666545,
            "durationTicks": 31,
            "midi": 51,
            "name": "D#3",
            "ticks": 3595,
            "time": 10.390149166666665,
            "velocity": 0.9921259842519685
          },
          {
            "duration": 0.05780333333333232,
            "durationTicks": 20,
            "midi": 46,
            "name": "A#2",
            "ticks": 3720,
            "time": 10.75142,
            "velocity": 1
          },
          {
            "duration": 1.2803438333333332,
            "durationTicks": 443,
            "midi": 46,
            "name": "A#2",
            "ticks": 3848,
            "time": 11.121361333333333,
            "velocity": 1
          },
          {
            "duration": 0.5838136666666678,
            "durationTicks": 202,
            "midi": 48,
            "name": "C3",
            "ticks": 4321,
            "time": 12.488410166666664,
            "velocity": 1
          },
          {
            "duration": 0.5953743333333339,
            "durationTicks": 206,
            "midi": 48,
            "name": "C3",
            "ticks": 4567,
            "time": 13.199391166666665,
            "velocity": 1
          },
          {
            "duration": 1.0433501666666665,
            "durationTicks": 361,
            "midi": 46,
            "name": "A#2",
            "ticks": 4805,
            "time": 13.887250833333331,
            "velocity": 1
          },
          {
            "duration": 0.236993666666665,
            "durationTicks": 82,
            "midi": 43,
            "name": "G2",
            "ticks": 5170,
            "time": 14.942161666666665,
            "velocity": 1
          },
          {
            "duration": 1.2630028333333332,
            "durationTicks": 437,
            "midi": 39,
            "name": "D#2",
            "ticks": 5296,
            "time": 15.306322666666665,
            "velocity": 1
          },
          {
            "duration": 1.3525980000000004,
            "durationTicks": 468,
            "midi": 51,
            "name": "D#3",
            "ticks": 5763,
            "time": 16.656030499999996,
            "velocity": 1
          },
          {
            "duration": 0.650287500000001,
            "durationTicks": 225,
            "midi": 50,
            "name": "D3",
            "ticks": 6250,
            "time": 18.063541666666666,
            "velocity": 1
          },
          {
            "duration": 0.650287500000001,
            "durationTicks": 225,
            "midi": 48,
            "name": "C3",
            "ticks": 6490,
            "time": 18.757181666666664,
            "velocity": 1
          },
          {
            "duration": 1.3034651666666655,
            "durationTicks": 451,
            "midi": 46,
            "name": "A#2",
            "ticks": 6730,
            "time": 19.450821666666666,
            "velocity": 1
          },
          {
            "duration": 1.3005749999999985,
            "durationTicks": 450,
            "midi": 48,
            "name": "C3",
            "ticks": 7195,
            "time": 20.794749166666666,
            "velocity": 1
          },
          {
            "duration": 1.208089666666666,
            "durationTicks": 418,
            "midi": 44,
            "name": "G#2",
            "ticks": 7691,
            "time": 22.22827183333333,
            "velocity": 1
          },
          {
            "duration": 0.5664726666666695,
            "durationTicks": 196,
            "midi": 46,
            "name": "A#2",
            "ticks": 8153,
            "time": 23.56352883333333,
            "velocity": 1
          },
          {
            "duration": 0.6011546666666696,
            "durationTicks": 208,
            "midi": 46,
            "name": "A#2",
            "ticks": 8393,
            "time": 24.257168833333328,
            "velocity": 1
          },
          {
            "duration": 0.9884369999999976,
            "durationTicks": 342,
            "midi": 43,
            "name": "G2",
            "ticks": 8642,
            "time": 24.97682033333333,
            "velocity": 1
          },
          {
            "duration": 0.22543300000000244,
            "durationTicks": 78,
            "midi": 44,
            "name": "G#2",
            "ticks": 8995,
            "time": 25.997049166666663,
            "velocity": 1
          },
          {
            "duration": 0.16762966666667012,
            "durationTicks": 58,
            "midi": 45,
            "name": "A2",
            "ticks": 9120,
            "time": 26.358319999999996,
            "velocity": 1
          },
          {
            "duration": 0.20231166666667022,
            "durationTicks": 70,
            "midi": 46,
            "name": "A#2",
            "ticks": 9235,
            "time": 26.69068916666666,
            "velocity": 1
          },
          {
            "duration": 0.1387280000000004,
            "durationTicks": 48,
            "midi": 47,
            "name": "B2",
            "ticks": 9355,
            "time": 27.037509166666663,
            "velocity": 0.9606299212598425
          },
          {
            "duration": 0.19075099999999878,
            "durationTicks": 66,
            "midi": 48,
            "name": "C3",
            "ticks": 9476,
            "time": 27.38721933333333,
            "velocity": 1
          },
          {
            "duration": 0.10404600000000386,
            "durationTicks": 36,
            "midi": 46,
            "name": "A#2",
            "ticks": 9595,
            "time": 27.73114916666666,
            "velocity": 0.8976377952755905
          },
          {
            "duration": 0.11849683333333516,
            "durationTicks": 41,
            "midi": 46,
            "name": "A#2",
            "ticks": 9685,
            "time": 27.99126416666666,
            "velocity": 1
          },
          {
            "duration": 0.12138699999999858,
            "durationTicks": 42,
            "midi": 46,
            "name": "A#2",
            "ticks": 9770,
            "time": 28.23692833333333,
            "velocity": 0.8976377952755905
          },
          {
            "duration": 0.11560666666666464,
            "durationTicks": 40,
            "midi": 46,
            "name": "A#2",
            "ticks": 9855,
            "time": 28.482592499999996,
            "velocity": 1
          },
          {
            "duration": 0.11560666666666464,
            "durationTicks": 40,
            "midi": 46,
            "name": "A#2",
            "ticks": 9935,
            "time": 28.713805833333332,
            "velocity": 1
          },
          {
            "duration": 0.1098263333333307,
            "durationTicks": 38,
            "midi": 46,
            "name": "A#2",
            "ticks": 10010,
            "time": 28.930568333333333,
            "velocity": 0.7086614173228346
          },
          {
            "duration": 0.11560666666666819,
            "durationTicks": 40,
            "midi": 46,
            "name": "A#2",
            "ticks": 10088,
            "time": 29.15600133333333,
            "velocity": 1
          },
          {
            "duration": 0.10115583333333689,
            "durationTicks": 35,
            "midi": 46,
            "name": "A#2",
            "ticks": 10165,
            "time": 29.37854416666666,
            "velocity": 1
          },
          {
            "duration": 0.1040460000000003,
            "durationTicks": 36,
            "midi": 46,
            "name": "A#2",
            "ticks": 10238,
            "time": 29.58952633333333,
            "velocity": 0.8031496062992126
          },
          {
            "duration": 0.10404600000000386,
            "durationTicks": 36,
            "midi": 46,
            "name": "A#2",
            "ticks": 10317,
            "time": 29.817849499999994,
            "velocity": 0.9606299212598425
          },
          {
            "duration": 0.1098263333333307,
            "durationTicks": 38,
            "midi": 46,
            "name": "A#2",
            "ticks": 10397,
            "time": 30.04906283333333,
            "velocity": 1
          },
          {
            "duration": 0.1329476666666629,
            "durationTicks": 46,
            "midi": 46,
            "name": "A#2",
            "ticks": 10473,
            "time": 30.2687155,
            "velocity": 0.9291338582677166
          },
          {
            "duration": 0.16762966666667012,
            "durationTicks": 58,
            "midi": 46,
            "name": "A#2",
            "ticks": 10556,
            "time": 30.50859933333333,
            "velocity": 1
          },
          {
            "duration": 0.1329476666666629,
            "durationTicks": 46,
            "midi": 45,
            "name": "A2",
            "ticks": 10638,
            "time": 30.745593,
            "velocity": 1
          },
          {
            "duration": 0.1300574999999995,
            "durationTicks": 45,
            "midi": 44,
            "name": "G#2",
            "ticks": 10725,
            "time": 30.997037499999998,
            "velocity": 0.7086614173228346
          },
          {
            "duration": 0.1329476666666629,
            "durationTicks": 46,
            "midi": 43,
            "name": "G2",
            "ticks": 10801,
            "time": 31.216690166666666,
            "velocity": 0.9606299212598425
          },
          {
            "duration": 0.10115583333332978,
            "durationTicks": 35,
            "midi": 42,
            "name": "F#2",
            "ticks": 10880,
            "time": 31.445013333333332,
            "velocity": 0.8661417322834646
          },
          {
            "duration": 0.13294766666667002,
            "durationTicks": 46,
            "midi": 41,
            "name": "F2",
            "ticks": 10945,
            "time": 31.63287416666666,
            "velocity": 0.9921259842519685
          },
          {
            "duration": 0.1387280000000004,
            "durationTicks": 48,
            "midi": 40,
            "name": "E2",
            "ticks": 11025,
            "time": 31.864087499999997,
            "velocity": 0.8976377952755905
          },
          {
            "duration": 0.16762966666667012,
            "durationTicks": 58,
            "midi": 39,
            "name": "D#2",
            "ticks": 11113,
            "time": 32.11842216666666,
            "velocity": 1
          },
          {
            "duration": 0.1387280000000004,
            "durationTicks": 48,
            "midi": 38,
            "name": "D2",
            "ticks": 11191,
            "time": 32.343855166666664,
            "velocity": 0.9606299212598425
          },
          {
            "duration": 0.13294766666665936,
            "durationTicks": 46,
            "midi": 36,
            "name": "C2",
            "ticks": 11270,
            "time": 32.57217833333333,
            "velocity": 0.8661417322834646
          },
          {
            "duration": 0.1300574999999995,
            "durationTicks": 45,
            "midi": 35,
            "name": "B1",
            "ticks": 11351,
            "time": 32.80628183333333,
            "velocity": 0.8661417322834646
          },
          {
            "duration": 0.10404599999999675,
            "durationTicks": 36,
            "midi": 34,
            "name": "A#1",
            "ticks": 11433,
            "time": 33.0432755,
            "velocity": 0.8976377952755905
          },
          {
            "duration": 0.167629666666663,
            "durationTicks": 58,
            "midi": 39,
            "name": "D#2",
            "ticks": 11520,
            "time": 33.29472,
            "velocity": 1
          },
          {
            "duration": 0.10115583333333689,
            "durationTicks": 35,
            "midi": 34,
            "name": "A#1",
            "ticks": 11755,
            "time": 33.97390916666666,
            "velocity": 0.9291338582677166
          },
          {
            "duration": 0.11849683333333871,
            "durationTicks": 41,
            "midi": 34,
            "name": "A#1",
            "ticks": 11873,
            "time": 34.314948833333325,
            "velocity": 1
          },
          {
            "duration": 0.14450833333333435,
            "durationTicks": 50,
            "midi": 39,
            "name": "D#2",
            "ticks": 12000,
            "time": 34.681999999999995,
            "velocity": 1
          },
          {
            "duration": 0.089595166666669,
            "durationTicks": 31,
            "midi": 34,
            "name": "A#1",
            "ticks": 12237,
            "time": 35.366969499999996,
            "velocity": 1
          },
          {
            "duration": 0.10115583333332978,
            "durationTicks": 35,
            "midi": 34,
            "name": "A#1",
            "ticks": 12360,
            "time": 35.72246,
            "velocity": 1
          },
          {
            "duration": 0.1300574999999995,
            "durationTicks": 45,
            "midi": 39,
            "name": "D#2",
            "ticks": 12480,
            "time": 36.06928,
            "velocity": 1
          },
          {
            "duration": 0.014450833333334856,
            "durationTicks": 5,
            "midi": 37,
            "name": "C#2",
            "ticks": 12490,
            "time": 36.09818166666666,
            "velocity": 0.23622047244094488
          },
          {
            "duration": 0.1300574999999995,
            "durationTicks": 45,
            "midi": 39,
            "name": "D#2",
            "ticks": 12713,
            "time": 36.742688833333325,
            "velocity": 1
          },
          {
            "duration": 0.23121333333333638,
            "durationTicks": 80,
            "midi": 39,
            "name": "D#2",
            "ticks": 12942,
            "time": 37.40453699999999,
            "velocity": 1
          },
          {
            "duration": 0.16762966666667012,
            "durationTicks": 58,
            "midi": 39,
            "name": "D#2",
            "ticks": 13185,
            "time": 38.10684749999999,
            "velocity": 1
          },
          {
            "duration": 0.17630016666666393,
            "durationTicks": 61,
            "midi": 39,
            "name": "D#2",
            "ticks": 13430,
            "time": 38.81493833333333,
            "velocity": 1
          },
          {
            "duration": 0.2080919999999935,
            "durationTicks": 72,
            "midi": 36,
            "name": "C2",
            "ticks": 13663,
            "time": 39.488347166666664,
            "velocity": 1
          },
          {
            "duration": 0.23410350000000335,
            "durationTicks": 81,
            "midi": 36,
            "name": "C2",
            "ticks": 13933,
            "time": 40.26869216666666,
            "velocity": 1
          },
          {
            "duration": 0.1589591666666692,
            "durationTicks": 55,
            "midi": 36,
            "name": "C2",
            "ticks": 14157,
            "time": 40.91608949999999,
            "velocity": 1
          },
          {
            "duration": 0.1387280000000075,
            "durationTicks": 48,
            "midi": 34,
            "name": "A#1",
            "ticks": 14280,
            "time": 41.27157999999999,
            "velocity": 0.8031496062992126
          },
          {
            "duration": 0.19653133333333273,
            "durationTicks": 68,
            "midi": 39,
            "name": "D#2",
            "ticks": 14405,
            "time": 41.63285083333333,
            "velocity": 1
          },
          {
            "duration": 0.22543300000000244,
            "durationTicks": 78,
            "midi": 39,
            "name": "D#2",
            "ticks": 14877,
            "time": 42.99700949999999,
            "velocity": 1
          },
          {
            "duration": 0.248554333333324,
            "durationTicks": 86,
            "midi": 39,
            "name": "D#2",
            "ticks": 15350,
            "time": 44.36405833333333,
            "velocity": 1
          },
          {
            "duration": 0.17630016666667103,
            "durationTicks": 61,
            "midi": 39,
            "name": "D#2",
            "ticks": 15838,
            "time": 45.77445966666666,
            "velocity": 1
          },
          {
            "duration": 0.18320599999999843,
            "durationTicks": 48,
            "midi": 39,
            "name": "D#2",
            "ticks": 16347,
            "time": 47.270573375,
            "velocity": 1
          },
          {
            "duration": 0.3816791666666717,
            "durationTicks": 100,
            "midi": 39,
            "name": "D#2",
            "ticks": 16585,
            "time": 48.17896979166666,
            "velocity": 0.8661417322834646
          },
          {
            "duration": 0.09923658333333663,
            "durationTicks": 26,
            "midi": 39,
            "name": "D#2",
            "ticks": 16757,
            "time": 48.83545795833333,
            "velocity": 1
          },
          {
            "duration": 0.4236638750000026,
            "durationTicks": 111,
            "midi": 39,
            "name": "D#2",
            "ticks": 16813,
            "time": 49.04919829166666,
            "velocity": 1
          },
          {
            "duration": 0.5152668750000018,
            "durationTicks": 135,
            "midi": 39,
            "name": "D#2",
            "ticks": 17030,
            "time": 49.87744208333333,
            "velocity": 1
          },
          {
            "duration": 1.0916024166666674,
            "durationTicks": 286,
            "midi": 39,
            "name": "D#2",
            "ticks": 17270,
            "time": 50.79347208333333,
            "velocity": 1
          },
          {
            "duration": 0.9427475416666695,
            "durationTicks": 247,
            "midi": 39,
            "name": "D#2",
            "ticks": 17790,
            "time": 52.778203749999996,
            "velocity": 1
          },
          {
            "duration": 0.9809154583333353,
            "durationTicks": 257,
            "midi": 39,
            "name": "D#2",
            "ticks": 18287,
            "time": 54.67514920833333,
            "velocity": 1
          },
          {
            "duration": 0.9236635833333366,
            "durationTicks": 242,
            "midi": 39,
            "name": "D#2",
            "ticks": 18768,
            "time": 56.511025999999994,
            "velocity": 1
          },
          {
            "duration": 0.40076312500000455,
            "durationTicks": 105,
            "midi": 39,
            "name": "D#2",
            "ticks": 19225,
            "time": 58.25529979166666,
            "velocity": 0.9606299212598425
          },
          {
            "duration": 1.2546283749999958,
            "durationTicks": 271,
            "midi": 39,
            "name": "D#2",
            "ticks": 19725,
            "time": 60.200273125,
            "velocity": 1
          },
          {
            "duration": 0.40277737499999944,
            "durationTicks": 87,
            "midi": 39,
            "name": "D#2",
            "ticks": 20067,
            "time": 61.783604875,
            "velocity": 0.9921259842519685
          },
          {
            "duration": 3.625,
            "durationTicks": 435,
            "midi": 39,
            "name": "D#2",
            "ticks": 20225,
            "time": 62.755826666666664,
            "velocity": 1
          }
        ],
        "endOfTrackTicks": 20660
      },
      {
        "channel": 2,
        "controlChanges": {
          "0": [
            {
              "number": 0,
              "ticks": 0,
              "time": 0,
              "value": 0
            }
          ],
          "1": [
            {
              "number": 1,
              "ticks": 0,
              "time": 0,
              "value": 0
            }
          ],
          "7": [
            {
              "number": 7,
              "ticks": 0,
              "time": 0,
              "value": 0.7874015748031497
            }
          ],
          "10": [
            {
              "number": 10,
              "ticks": 0,
              "time": 0,
              "value": 0.7086614173228346
            }
          ],
          "64": [
            {
              "number": 64,
              "ticks": 0,
              "time": 0,
              "value": 0
            }
          ]
        },
        "pitchBends": [
          {
            "ticks": 0,
            "time": 0,
            "value": 0
          }
        ],
        "instrument": {
          "family": "strings",
          "number": 47,
          "name": "timpani"
        },
        "name": "Tymp",
        "notes": [
          {
            "duration": 0.043352499999999995,
            "durationTicks": 15,
            "midi": 51,
            "name": "D#3",
            "ticks": 0,
            "time": 0,
            "velocity": 0.7086614173228346
          },
          {
            "duration": 0.06069350000000001,
            "durationTicks": 21,
            "midi": 46,
            "name": "A#2",
            "ticks": 121,
            "time": 0.3497101666666666,
            "velocity": 1
          },
          {
            "duration": 0.05780333333333332,
            "durationTicks": 20,
            "midi": 51,
            "name": "D#3",
            "ticks": 230,
            "time": 0.6647383333333333,
            "velocity": 0.9606299212598425
          },
          {
            "duration": 0.05202299999999993,
            "durationTicks": 18,
            "midi": 46,
            "name": "A#2",
            "ticks": 343,
            "time": 0.9913271666666665,
            "velocity": 0.9606299212598425
          },
          {
            "duration": 0.07225416666666651,
            "durationTicks": 25,
            "midi": 51,
            "name": "D#3",
            "ticks": 467,
            "time": 1.3497078333333332,
            "velocity": 0.9291338582677166
          },
          {
            "duration": 0.05202300000000015,
            "durationTicks": 18,
            "midi": 46,
            "name": "A#2",
            "ticks": 585,
            "time": 1.6907474999999998,
            "velocity": 1
          },
          {
            "duration": 0.0635836666666667,
            "durationTicks": 22,
            "midi": 51,
            "name": "D#3",
            "ticks": 705,
            "time": 2.0375674999999998,
            "velocity": 1
          },
          {
            "duration": 0.05780333333333321,
            "durationTicks": 20,
            "midi": 46,
            "name": "A#2",
            "ticks": 828,
            "time": 2.393058,
            "velocity": 0.9606299212598425
          },
          {
            "duration": 0.05780333333333365,
            "durationTicks": 20,
            "midi": 51,
            "name": "D#3",
            "ticks": 957,
            "time": 2.7658894999999997,
            "velocity": 0.8661417322834646
          },
          {
            "duration": 0.04913283333333318,
            "durationTicks": 17,
            "midi": 46,
            "name": "A#2",
            "ticks": 1072,
            "time": 3.0982586666666663,
            "velocity": 1
          },
          {
            "duration": 0.05780333333333365,
            "durationTicks": 20,
            "midi": 51,
            "name": "D#3",
            "ticks": 1201,
            "time": 3.471090166666666,
            "velocity": 1
          },
          {
            "duration": 0.05780333333333321,
            "durationTicks": 20,
            "midi": 46,
            "name": "A#2",
            "ticks": 1315,
            "time": 3.8005691666666666,
            "velocity": 1
          },
          {
            "duration": 0.05780333333333321,
            "durationTicks": 20,
            "midi": 51,
            "name": "D#3",
            "ticks": 1433,
            "time": 4.141608833333333,
            "velocity": 1
          },
          {
            "duration": 0.04913283333333318,
            "durationTicks": 17,
            "midi": 46,
            "name": "A#2",
            "ticks": 1547,
            "time": 4.471087833333333,
            "velocity": 1
          },
          {
            "duration": 0.04913283333333318,
            "durationTicks": 17,
            "midi": 51,
            "name": "D#3",
            "ticks": 1675,
            "time": 4.841029166666666,
            "velocity": 0.9291338582677166
          },
          {
            "duration": 0.0462426666666671,
            "durationTicks": 16,
            "midi": 46,
            "name": "A#2",
            "ticks": 1798,
            "time": 5.196519666666666,
            "velocity": 1
          },
          {
            "duration": 0.06358366666666626,
            "durationTicks": 22,
            "midi": 51,
            "name": "D#3",
            "ticks": 1916,
            "time": 5.537559333333332,
            "velocity": 1
          },
          {
            "duration": 0.057803333333334095,
            "durationTicks": 20,
            "midi": 46,
            "name": "A#2",
            "ticks": 2025,
            "time": 5.852587499999999,
            "velocity": 1
          },
          {
            "duration": 0.0606934999999984,
            "durationTicks": 21,
            "midi": 51,
            "name": "D#3",
            "ticks": 2150,
            "time": 6.2138583333333335,
            "velocity": 1
          },
          {
            "duration": 0.05202300000000015,
            "durationTicks": 18,
            "midi": 46,
            "name": "A#2",
            "ticks": 2267,
            "time": 6.552007833333333,
            "velocity": 1
          },
          {
            "duration": 0.06069350000000018,
            "durationTicks": 21,
            "midi": 51,
            "name": "D#3",
            "ticks": 2388,
            "time": 6.901717999999999,
            "velocity": 1
          },
          {
            "duration": 0.04913283333333229,
            "durationTicks": 17,
            "midi": 46,
            "name": "A#2",
            "ticks": 2506,
            "time": 7.242757666666666,
            "velocity": 1
          },
          {
            "duration": 0.05780333333333232,
            "durationTicks": 20,
            "midi": 51,
            "name": "D#3",
            "ticks": 2630,
            "time": 7.601138333333333,
            "velocity": 0.9291338582677166
          },
          {
            "duration": 0.04624266666666621,
            "durationTicks": 16,
            "midi": 46,
            "name": "A#2",
            "ticks": 2752,
            "time": 7.953738666666666,
            "velocity": 1
          },
          {
            "duration": 0.049132833333331405,
            "durationTicks": 17,
            "midi": 51,
            "name": "D#3",
            "ticks": 2877,
            "time": 8.3150095,
            "velocity": 1
          },
          {
            "duration": 0.043352500000001015,
            "durationTicks": 15,
            "midi": 46,
            "name": "A#2",
            "ticks": 2990,
            "time": 8.641598333333333,
            "velocity": 1
          },
          {
            "duration": 0.05202300000000015,
            "durationTicks": 18,
            "midi": 51,
            "name": "D#3",
            "ticks": 3107,
            "time": 8.979747833333333,
            "velocity": 1
          },
          {
            "duration": 0.046242666666667986,
            "durationTicks": 16,
            "midi": 46,
            "name": "A#2",
            "ticks": 3228,
            "time": 9.329457999999999,
            "velocity": 1
          },
          {
            "duration": 0.06358366666666626,
            "durationTicks": 22,
            "midi": 51,
            "name": "D#3",
            "ticks": 3345,
            "time": 9.667607499999999,
            "velocity": 1
          },
          {
            "duration": 0.04335249999999924,
            "durationTicks": 15,
            "midi": 46,
            "name": "A#2",
            "ticks": 3470,
            "time": 10.028878333333333,
            "velocity": 1
          },
          {
            "duration": 0.04913283333333496,
            "durationTicks": 17,
            "midi": 51,
            "name": "D#3",
            "ticks": 3587,
            "time": 10.367027833333331,
            "velocity": 0.9291338582677166
          },
          {
            "duration": 0.03757216666666707,
            "durationTicks": 13,
            "midi": 46,
            "name": "A#2",
            "ticks": 3712,
            "time": 10.728298666666666,
            "velocity": 1
          },
          {
            "duration": 0.03757216666666707,
            "durationTicks": 13,
            "midi": 46,
            "name": "A#2",
            "ticks": 3840,
            "time": 11.098239999999999,
            "velocity": 1
          },
          {
            "duration": 0.043352500000001015,
            "durationTicks": 15,
            "midi": 46,
            "name": "A#2",
            "ticks": 3860,
            "time": 11.156043333333331,
            "velocity": 0.8031496062992126
          },
          {
            "duration": 0.023121333333333993,
            "durationTicks": 8,
            "midi": 46,
            "name": "A#2",
            "ticks": 3877,
            "time": 11.205176166666664,
            "velocity": 0.4566929133858268
          },
          {
            "duration": 0.05780333333333232,
            "durationTicks": 20,
            "midi": 46,
            "name": "A#2",
            "ticks": 3896,
            "time": 11.260089333333333,
            "velocity": 0.3937007874015748
          },
          {
            "duration": 0.031791833333331354,
            "durationTicks": 11,
            "midi": 46,
            "name": "A#2",
            "ticks": 3925,
            "time": 11.343904166666666,
            "velocity": 0.7086614173228346
          },
          {
            "duration": 0.023121333333332217,
            "durationTicks": 8,
            "midi": 46,
            "name": "A#2",
            "ticks": 3941,
            "time": 11.390146833333333,
            "velocity": 0.4566929133858268
          },
          {
            "duration": 0.008670500000000914,
            "durationTicks": 3,
            "midi": 46,
            "name": "A#2",
            "ticks": 3960,
            "time": 11.445059999999998,
            "velocity": 0.4881889763779528
          },
          {
            "duration": 0.01734100000000005,
            "durationTicks": 6,
            "midi": 46,
            "name": "A#2",
            "ticks": 3973,
            "time": 11.482632166666665,
            "velocity": 0.5196850393700787
          },
          {
            "duration": 0.008670499999999137,
            "durationTicks": 3,
            "midi": 46,
            "name": "A#2",
            "ticks": 3988,
            "time": 11.525984666666666,
            "velocity": 0.5826771653543307
          },
          {
            "duration": 0.01445083333333308,
            "durationTicks": 5,
            "midi": 46,
            "name": "A#2",
            "ticks": 4003,
            "time": 11.569337166666665,
            "velocity": 0.4881889763779528
          },
          {
            "duration": 0.020231166666665246,
            "durationTicks": 7,
            "midi": 46,
            "name": "A#2",
            "ticks": 4016,
            "time": 11.606909333333332,
            "velocity": 0.6771653543307087
          },
          {
            "duration": 0.01734100000000005,
            "durationTicks": 6,
            "midi": 46,
            "name": "A#2",
            "ticks": 4032,
            "time": 11.653151999999999,
            "velocity": 0.6141732283464567
          },
          {
            "duration": 0.023121333333332217,
            "durationTicks": 8,
            "midi": 46,
            "name": "A#2",
            "ticks": 4045,
            "time": 11.690724166666666,
            "velocity": 1
          },
          {
            "duration": 0.008670499999999137,
            "durationTicks": 3,
            "midi": 46,
            "name": "A#2",
            "ticks": 4062,
            "time": 11.739856999999999,
            "velocity": 0.5826771653543307
          },
          {
            "duration": 0.023121333333333993,
            "durationTicks": 8,
            "midi": 46,
            "name": "A#2",
            "ticks": 4072,
            "time": 11.768758666666665,
            "velocity": 1
          },
          {
            "duration": 0.04624266666666621,
            "durationTicks": 16,
            "midi": 46,
            "name": "A#2",
            "ticks": 4086,
            "time": 11.809220999999997,
            "velocity": 1
          },
          {
            "duration": 0.052022999999998376,
            "durationTicks": 18,
            "midi": 46,
            "name": "A#2",
            "ticks": 4802,
            "time": 13.878580333333332,
            "velocity": 1
          },
          {
            "duration": 0.07803450000000112,
            "durationTicks": 27,
            "midi": 46,
            "name": "A#2",
            "ticks": 4830,
            "time": 13.959504999999998,
            "velocity": 0.8976377952755905
          },
          {
            "duration": 0.06069349999999929,
            "durationTicks": 21,
            "midi": 46,
            "name": "A#2",
            "ticks": 4870,
            "time": 14.075111666666666,
            "velocity": 0.2047244094488189
          },
          {
            "duration": 0.07514433333333237,
            "durationTicks": 26,
            "midi": 46,
            "name": "A#2",
            "ticks": 4898,
            "time": 14.156036333333333,
            "velocity": 0.6456692913385826
          },
          {
            "duration": 0.028901666666664383,
            "durationTicks": 10,
            "midi": 46,
            "name": "A#2",
            "ticks": 4932,
            "time": 14.254302,
            "velocity": 0.4881889763779528
          },
          {
            "duration": 0.02312133333333044,
            "durationTicks": 8,
            "midi": 46,
            "name": "A#2",
            "ticks": 4946,
            "time": 14.294764333333333,
            "velocity": 0.3937007874015748
          },
          {
            "duration": 0.020231166666667022,
            "durationTicks": 7,
            "midi": 46,
            "name": "A#2",
            "ticks": 4963,
            "time": 14.343897166666665,
            "velocity": 0.5826771653543307
          },
          {
            "duration": 0.020231166666667022,
            "durationTicks": 7,
            "midi": 46,
            "name": "A#2",
            "ticks": 4980,
            "time": 14.393029999999998,
            "velocity": 0.5826771653543307
          },
          {
            "duration": 0.020231166666665246,
            "durationTicks": 7,
            "midi": 46,
            "name": "A#2",
            "ticks": 4993,
            "time": 14.430602166666665,
            "velocity": 0.9606299212598425
          },
          {
            "duration": 0.023121333333333993,
            "durationTicks": 8,
            "midi": 46,
            "name": "A#2",
            "ticks": 5010,
            "time": 14.479734999999998,
            "velocity": 0.8031496062992126
          },
          {
            "duration": 0.03757216666666707,
            "durationTicks": 13,
            "midi": 46,
            "name": "A#2",
            "ticks": 5023,
            "time": 14.517307166666665,
            "velocity": 1
          },
          {
            "duration": 0.04913283333333318,
            "durationTicks": 17,
            "midi": 46,
            "name": "A#2",
            "ticks": 5045,
            "time": 14.580890833333331,
            "velocity": 1
          },
          {
            "duration": 0.02890166666666616,
            "durationTicks": 10,
            "midi": 51,
            "name": "D#3",
            "ticks": 5755,
            "time": 16.632909166666664,
            "velocity": 1
          },
          {
            "duration": 0.023121333333332217,
            "durationTicks": 8,
            "midi": 51,
            "name": "D#3",
            "ticks": 5772,
            "time": 16.682042,
            "velocity": 0.6771653543307087
          },
          {
            "duration": 0.023121333333332217,
            "durationTicks": 8,
            "midi": 51,
            "name": "D#3",
            "ticks": 5786,
            "time": 16.722504333333333,
            "velocity": 0.2677165354330709
          },
          {
            "duration": 0.014450833333331303,
            "durationTicks": 5,
            "midi": 51,
            "name": "D#3",
            "ticks": 5803,
            "time": 16.771637166666665,
            "velocity": 0.2677165354330709
          },
          {
            "duration": 0.014450833333334856,
            "durationTicks": 5,
            "midi": 51,
            "name": "D#3",
            "ticks": 5842,
            "time": 16.884353666666662,
            "velocity": 0.36220472440944884
          },
          {
            "duration": 0.014450833333334856,
            "durationTicks": 5,
            "midi": 51,
            "name": "D#3",
            "ticks": 5870,
            "time": 16.96527833333333,
            "velocity": 0.2992125984251969
          },
          {
            "duration": 0.017341000000001827,
            "durationTicks": 6,
            "midi": 51,
            "name": "D#3",
            "ticks": 5883,
            "time": 17.002850499999997,
            "velocity": 0.33070866141732286
          },
          {
            "duration": 0.00578033333333039,
            "durationTicks": 2,
            "midi": 51,
            "name": "D#3",
            "ticks": 5900,
            "time": 17.051983333333332,
            "velocity": 0.33070866141732286
          },
          {
            "duration": 0.014450833333331303,
            "durationTicks": 5,
            "midi": 51,
            "name": "D#3",
            "ticks": 5910,
            "time": 17.080885,
            "velocity": 0.7086614173228346
          },
          {
            "duration": 0.017340999999998274,
            "durationTicks": 6,
            "midi": 51,
            "name": "D#3",
            "ticks": 5923,
            "time": 17.118457166666666,
            "velocity": 0.6141732283464567
          },
          {
            "duration": 0.023121333333332217,
            "durationTicks": 8,
            "midi": 51,
            "name": "D#3",
            "ticks": 5936,
            "time": 17.156029333333333,
            "velocity": 0.8031496062992126
          },
          {
            "duration": 0.020231166666665246,
            "durationTicks": 7,
            "midi": 51,
            "name": "D#3",
            "ticks": 5952,
            "time": 17.202271999999997,
            "velocity": 0.5826771653543307
          },
          {
            "duration": 0.03179183333333313,
            "durationTicks": 11,
            "midi": 51,
            "name": "D#3",
            "ticks": 5965,
            "time": 17.239844166666664,
            "velocity": 0.9606299212598425
          },
          {
            "duration": 0.07225416666666717,
            "durationTicks": 25,
            "midi": 51,
            "name": "D#3",
            "ticks": 5990,
            "time": 17.31209833333333,
            "velocity": 0.9606299212598425
          },
          {
            "duration": 0.05202300000000193,
            "durationTicks": 18,
            "midi": 46,
            "name": "A#2",
            "ticks": 6708,
            "time": 19.387237999999996,
            "velocity": 1
          },
          {
            "duration": 0.08670500000000203,
            "durationTicks": 30,
            "midi": 46,
            "name": "A#2",
            "ticks": 6733,
            "time": 19.459492166666664,
            "velocity": 0.9921259842519685
          },
          {
            "duration": 0.03179183333333313,
            "durationTicks": 11,
            "midi": 46,
            "name": "A#2",
            "ticks": 6770,
            "time": 19.56642833333333,
            "velocity": 0.4881889763779528
          },
          {
            "duration": 0.043352500000001015,
            "durationTicks": 15,
            "midi": 46,
            "name": "A#2",
            "ticks": 6783,
            "time": 19.604000499999998,
            "velocity": 0.3937007874015748
          },
          {
            "duration": 0.014450833333331303,
            "durationTicks": 5,
            "midi": 46,
            "name": "A#2",
            "ticks": 6810,
            "time": 19.682035,
            "velocity": 0.23622047244094488
          },
          {
            "duration": 0.020231166666665246,
            "durationTicks": 7,
            "midi": 46,
            "name": "A#2",
            "ticks": 6823,
            "time": 19.719607166666666,
            "velocity": 0.33070866141732286
          },
          {
            "duration": 0.02312133333333577,
            "durationTicks": 8,
            "midi": 46,
            "name": "A#2",
            "ticks": 6840,
            "time": 19.768739999999998,
            "velocity": 0.3937007874015748
          },
          {
            "duration": 0.02890166666666616,
            "durationTicks": 10,
            "midi": 46,
            "name": "A#2",
            "ticks": 6855,
            "time": 19.8120925,
            "velocity": 0.4881889763779528
          },
          {
            "duration": 0.02890166666666616,
            "durationTicks": 10,
            "midi": 46,
            "name": "A#2",
            "ticks": 6870,
            "time": 19.855445,
            "velocity": 0.5826771653543307
          },
          {
            "duration": 0.02312133333333577,
            "durationTicks": 8,
            "midi": 46,
            "name": "A#2",
            "ticks": 6886,
            "time": 19.901687666666664,
            "velocity": 0.6141732283464567
          },
          {
            "duration": 0.02890166666666616,
            "durationTicks": 10,
            "midi": 46,
            "name": "A#2",
            "ticks": 6902,
            "time": 19.947930333333332,
            "velocity": 0.8976377952755905
          },
          {
            "duration": 0.0346820000000001,
            "durationTicks": 12,
            "midi": 46,
            "name": "A#2",
            "ticks": 6916,
            "time": 19.988392666666666,
            "velocity": 0.9606299212598425
          },
          {
            "duration": 0.03179183333333313,
            "durationTicks": 11,
            "midi": 46,
            "name": "A#2",
            "ticks": 6933,
            "time": 20.037525499999997,
            "velocity": 1
          },
          {
            "duration": 0.046242666666667986,
            "durationTicks": 16,
            "midi": 46,
            "name": "A#2",
            "ticks": 6950,
            "time": 20.08665833333333,
            "velocity": 1
          },
          {
            "duration": 0.03179183333332958,
            "durationTicks": 11,
            "midi": 51,
            "name": "D#3",
            "ticks": 7788,
            "time": 22.508618,
            "velocity": 0.8346456692913385
          },
          {
            "duration": 0.03179183333333313,
            "durationTicks": 11,
            "midi": 51,
            "name": "D#3",
            "ticks": 7826,
            "time": 22.618444333333333,
            "velocity": 0.8661417322834646
          },
          {
            "duration": 0.0346820000000001,
            "durationTicks": 12,
            "midi": 51,
            "name": "D#3",
            "ticks": 7861,
            "time": 22.719600166666666,
            "velocity": 0.9291338582677166
          },
          {
            "duration": 0.07225416666666362,
            "durationTicks": 25,
            "midi": 51,
            "name": "D#3",
            "ticks": 7903,
            "time": 22.840987166666665,
            "velocity": 1
          },
          {
            "duration": 0.049132833333331405,
            "durationTicks": 17,
            "midi": 51,
            "name": "D#3",
            "ticks": 8031,
            "time": 23.210928499999998,
            "velocity": 1
          },
          {
            "duration": 0.03757216666666707,
            "durationTicks": 13,
            "midi": 46,
            "name": "A#2",
            "ticks": 8265,
            "time": 23.887227499999998,
            "velocity": 1
          },
          {
            "duration": 0.03757216666666707,
            "durationTicks": 13,
            "midi": 46,
            "name": "A#2",
            "ticks": 8302,
            "time": 23.994163666666665,
            "velocity": 0.8031496062992126
          },
          {
            "duration": 0.043352500000001015,
            "durationTicks": 15,
            "midi": 46,
            "name": "A#2",
            "ticks": 8340,
            "time": 24.103989999999996,
            "velocity": 1
          },
          {
            "duration": 0.15028866666666474,
            "durationTicks": 52,
            "midi": 46,
            "name": "A#2",
            "ticks": 8385,
            "time": 24.2340475,
            "velocity": 1
          },
          {
            "duration": 0.0346820000000001,
            "durationTicks": 12,
            "midi": 46,
            "name": "A#2",
            "ticks": 8517,
            "time": 24.615549499999997,
            "velocity": 1
          },
          {
            "duration": 0.03757216666665997,
            "durationTicks": 13,
            "midi": 46,
            "name": "A#2",
            "ticks": 8761,
            "time": 25.320750166666667,
            "velocity": 0.8031496062992126
          },
          {
            "duration": 0.034682000000003654,
            "durationTicks": 12,
            "midi": 46,
            "name": "A#2",
            "ticks": 8798,
            "time": 25.42768633333333,
            "velocity": 0.6771653543307087
          },
          {
            "duration": 0.05202300000000193,
            "durationTicks": 18,
            "midi": 46,
            "name": "A#2",
            "ticks": 8835,
            "time": 25.534622499999998,
            "velocity": 1
          },
          {
            "duration": 0.03757216666666707,
            "durationTicks": 13,
            "midi": 46,
            "name": "A#2",
            "ticks": 8876,
            "time": 25.653119333333333,
            "velocity": 1
          },
          {
            "duration": 0.04913283333333496,
            "durationTicks": 17,
            "midi": 51,
            "name": "D#3",
            "ticks": 8990,
            "time": 25.982598333333332,
            "velocity": 1
          },
          {
            "duration": 0.057803333333328766,
            "durationTicks": 20,
            "midi": 51,
            "name": "D#3",
            "ticks": 9110,
            "time": 26.329418333333333,
            "velocity": 1
          },
          {
            "duration": 0.04913283333333496,
            "durationTicks": 17,
            "midi": 46,
            "name": "A#2",
            "ticks": 9232,
            "time": 26.682018666666664,
            "velocity": 1
          },
          {
            "duration": 0.043352500000001015,
            "durationTicks": 15,
            "midi": 51,
            "name": "D#3",
            "ticks": 9470,
            "time": 27.369878333333332,
            "velocity": 1
          },
          {
            "duration": 0.03757216666666707,
            "durationTicks": 13,
            "midi": 46,
            "name": "A#2",
            "ticks": 9595,
            "time": 27.73114916666666,
            "velocity": 1
          },
          {
            "duration": 0.043352500000001015,
            "durationTicks": 15,
            "midi": 46,
            "name": "A#2",
            "ticks": 9671,
            "time": 27.95080183333333,
            "velocity": 1
          },
          {
            "duration": 0.043352500000001015,
            "durationTicks": 15,
            "midi": 46,
            "name": "A#2",
            "ticks": 9755,
            "time": 28.19357583333333,
            "velocity": 1
          },
          {
            "duration": 0.049132833333331405,
            "durationTicks": 17,
            "midi": 46,
            "name": "A#2",
            "ticks": 9840,
            "time": 28.439239999999998,
            "velocity": 1
          },
          {
            "duration": 0.046242666666667986,
            "durationTicks": 16,
            "midi": 46,
            "name": "A#2",
            "ticks": 9925,
            "time": 28.684904166666662,
            "velocity": 1
          },
          {
            "duration": 0.043352500000001015,
            "durationTicks": 15,
            "midi": 46,
            "name": "A#2",
            "ticks": 10001,
            "time": 28.90455683333333,
            "velocity": 1
          },
          {
            "duration": 0.03757216666665997,
            "durationTicks": 13,
            "midi": 46,
            "name": "A#2",
            "ticks": 10081,
            "time": 29.135770166666667,
            "velocity": 1
          },
          {
            "duration": 0.04335249999999746,
            "durationTicks": 15,
            "midi": 46,
            "name": "A#2",
            "ticks": 10160,
            "time": 29.364093333333333,
            "velocity": 1
          },
          {
            "duration": 0.043352500000001015,
            "durationTicks": 15,
            "midi": 46,
            "name": "A#2",
            "ticks": 10237,
            "time": 29.586636166666665,
            "velocity": 1
          },
          {
            "duration": 0.03757216666666707,
            "durationTicks": 13,
            "midi": 46,
            "name": "A#2",
            "ticks": 10317,
            "time": 29.817849499999994,
            "velocity": 1
          },
          {
            "duration": 0.046242666666664434,
            "durationTicks": 16,
            "midi": 46,
            "name": "A#2",
            "ticks": 10398,
            "time": 30.051952999999997,
            "velocity": 1
          },
          {
            "duration": 0.043352500000001015,
            "durationTicks": 15,
            "midi": 46,
            "name": "A#2",
            "ticks": 10476,
            "time": 30.277385999999996,
            "velocity": 1
          },
          {
            "duration": 0.049132833333331405,
            "durationTicks": 17,
            "midi": 46,
            "name": "A#2",
            "ticks": 10562,
            "time": 30.52594033333333,
            "velocity": 1
          },
          {
            "duration": 0.06647383333333323,
            "durationTicks": 23,
            "midi": 43,
            "name": "G2",
            "ticks": 10800,
            "time": 31.213799999999996,
            "velocity": 1
          },
          {
            "duration": 0.049132833333331405,
            "durationTicks": 17,
            "midi": 43,
            "name": "G2",
            "ticks": 11038,
            "time": 31.901659666666664,
            "velocity": 1
          },
          {
            "duration": 0.046242666666664434,
            "durationTicks": 16,
            "midi": 46,
            "name": "A#2",
            "ticks": 11270,
            "time": 32.57217833333333,
            "velocity": 1
          },
          {
            "duration": 0.049132833333331405,
            "durationTicks": 17,
            "midi": 51,
            "name": "D#3",
            "ticks": 11521,
            "time": 33.297610166666665,
            "velocity": 0.9606299212598425
          },
          {
            "duration": 0.046242666666664434,
            "durationTicks": 16,
            "midi": 46,
            "name": "A#2",
            "ticks": 11761,
            "time": 33.99125016666667,
            "velocity": 1
          },
          {
            "duration": 0.04913283333333851,
            "durationTicks": 17,
            "midi": 46,
            "name": "A#2",
            "ticks": 11873,
            "time": 34.314948833333325,
            "velocity": 1
          },
          {
            "duration": 0.05202299999999127,
            "durationTicks": 18,
            "midi": 51,
            "name": "D#3",
            "ticks": 11992,
            "time": 34.658878666666666,
            "velocity": 1
          },
          {
            "duration": 0.04335249999999746,
            "durationTicks": 15,
            "midi": 46,
            "name": "A#2",
            "ticks": 12230,
            "time": 35.346738333333334,
            "velocity": 1
          },
          {
            "duration": 0.049132833333331405,
            "durationTicks": 17,
            "midi": 46,
            "name": "A#2",
            "ticks": 12346,
            "time": 35.68199766666667,
            "velocity": 1
          },
          {
            "duration": 0.052022999999998376,
            "durationTicks": 18,
            "midi": 51,
            "name": "D#3",
            "ticks": 12472,
            "time": 36.04615866666666,
            "velocity": 1
          },
          {
            "duration": 0.06358366666666626,
            "durationTicks": 22,
            "midi": 51,
            "name": "D#3",
            "ticks": 12708,
            "time": 36.728238,
            "velocity": 1
          },
          {
            "duration": 0.04913283333333851,
            "durationTicks": 17,
            "midi": 51,
            "name": "D#3",
            "ticks": 12942,
            "time": 37.40453699999999,
            "velocity": 1
          },
          {
            "duration": 0.05202300000000548,
            "durationTicks": 18,
            "midi": 51,
            "name": "D#3",
            "ticks": 13185,
            "time": 38.10684749999999,
            "velocity": 1
          },
          {
            "duration": 0.046242666666664434,
            "durationTicks": 16,
            "midi": 51,
            "name": "D#3",
            "ticks": 13428,
            "time": 38.809158,
            "velocity": 1
          },
          {
            "duration": 0.05780333333332521,
            "durationTicks": 20,
            "midi": 51,
            "name": "D#3",
            "ticks": 13670,
            "time": 39.50857833333333,
            "velocity": 1
          },
          {
            "duration": 0.049132833333331405,
            "durationTicks": 17,
            "midi": 51,
            "name": "D#3",
            "ticks": 13913,
            "time": 40.21088883333333,
            "velocity": 1
          },
          {
            "duration": 0.049132833333331405,
            "durationTicks": 17,
            "midi": 51,
            "name": "D#3",
            "ticks": 14161,
            "time": 40.927650166666666,
            "velocity": 0.9291338582677166
          },
          {
            "duration": 0.046242666666664434,
            "durationTicks": 16,
            "midi": 46,
            "name": "A#2",
            "ticks": 14276,
            "time": 41.26001933333333,
            "velocity": 0.6299212598425197
          },
          {
            "duration": 0.04913283333333851,
            "durationTicks": 17,
            "midi": 51,
            "name": "D#3",
            "ticks": 14396,
            "time": 41.606839333333326,
            "velocity": 0.6299212598425197
          },
          {
            "duration": 0.049132833333331405,
            "durationTicks": 17,
            "midi": 51,
            "name": "D#3",
            "ticks": 14873,
            "time": 42.98544883333333,
            "velocity": 0.6299212598425197
          },
          {
            "duration": 0.05491316666666535,
            "durationTicks": 19,
            "midi": 51,
            "name": "D#3",
            "ticks": 14880,
            "time": 43.00568,
            "velocity": 0.6299212598425197
          },
          {
            "duration": 0.05202300000000548,
            "durationTicks": 18,
            "midi": 51,
            "name": "D#3",
            "ticks": 15363,
            "time": 44.401630499999996,
            "velocity": 0.6299212598425197
          },
          {
            "duration": 0.05202299999999127,
            "durationTicks": 18,
            "midi": 51,
            "name": "D#3",
            "ticks": 15842,
            "time": 45.78602033333333,
            "velocity": 0.6299212598425197
          },
          {
            "duration": 0.05725187499999862,
            "durationTicks": 15,
            "midi": 51,
            "name": "D#3",
            "ticks": 16323,
            "time": 47.178970375,
            "velocity": 0.6299212598425197
          },
          {
            "duration": 0.03053433333333544,
            "durationTicks": 8,
            "midi": 51,
            "name": "D#3",
            "ticks": 16348,
            "time": 47.27439016666666,
            "velocity": 0.6299212598425197
          },
          {
            "duration": 0.0419847083333309,
            "durationTicks": 11,
            "midi": 51,
            "name": "D#3",
            "ticks": 16367,
            "time": 47.34690920833333,
            "velocity": 0.6299212598425197
          },
          {
            "duration": 0.03053433333333544,
            "durationTicks": 8,
            "midi": 51,
            "name": "D#3",
            "ticks": 16388,
            "time": 47.427061833333326,
            "velocity": 0.6299212598425197
          },
          {
            "duration": 0.0419847083333309,
            "durationTicks": 11,
            "midi": 51,
            "name": "D#3",
            "ticks": 16403,
            "time": 47.48431370833333,
            "velocity": 0.6299212598425197
          },
          {
            "duration": 0.03816791666666575,
            "durationTicks": 10,
            "midi": 51,
            "name": "D#3",
            "ticks": 16425,
            "time": 47.568283124999994,
            "velocity": 0.6299212598425197
          },
          {
            "duration": 0.0419847083333309,
            "durationTicks": 11,
            "midi": 51,
            "name": "D#3",
            "ticks": 16440,
            "time": 47.625535,
            "velocity": 0.6299212598425197
          },
          {
            "duration": 0.0419847083333309,
            "durationTicks": 11,
            "midi": 51,
            "name": "D#3",
            "ticks": 16461,
            "time": 47.705687624999996,
            "velocity": 0.6299212598425197
          },
          {
            "duration": 0.04961829166666831,
            "durationTicks": 13,
            "midi": 51,
            "name": "D#3",
            "ticks": 16480,
            "time": 47.77820666666666,
            "velocity": 0.6299212598425197
          },
          {
            "duration": 0.045801499999996054,
            "durationTicks": 12,
            "midi": 51,
            "name": "D#3",
            "ticks": 16497,
            "time": 47.843092125,
            "velocity": 0.6299212598425197
          },
          {
            "duration": 0.04961829166666121,
            "durationTicks": 13,
            "midi": 51,
            "name": "D#3",
            "ticks": 16515,
            "time": 47.911794375,
            "velocity": 0.6299212598425197
          },
          {
            "duration": 0.04580150000000316,
            "durationTicks": 12,
            "midi": 51,
            "name": "D#3",
            "ticks": 16533,
            "time": 47.980496624999994,
            "velocity": 0.6299212598425197
          },
          {
            "duration": 0.04961829166666831,
            "durationTicks": 13,
            "midi": 51,
            "name": "D#3",
            "ticks": 16551,
            "time": 48.049198874999995,
            "velocity": 0.6299212598425197
          },
          {
            "duration": 0.041984708333338006,
            "durationTicks": 11,
            "midi": 51,
            "name": "D#3",
            "ticks": 16570,
            "time": 48.12171791666666,
            "velocity": 0.6299212598425197
          },
          {
            "duration": 0.045801499999996054,
            "durationTicks": 12,
            "midi": 51,
            "name": "D#3",
            "ticks": 16587,
            "time": 48.186603375,
            "velocity": 0.6299212598425197
          },
          {
            "duration": 0.041984708333338006,
            "durationTicks": 11,
            "midi": 51,
            "name": "D#3",
            "ticks": 16603,
            "time": 48.24767204166666,
            "velocity": 0.6299212598425197
          },
          {
            "duration": 0.04961829166666831,
            "durationTicks": 13,
            "midi": 51,
            "name": "D#3",
            "ticks": 16621,
            "time": 48.31637429166666,
            "velocity": 0.6299212598425197
          },
          {
            "duration": 0.04580150000000316,
            "durationTicks": 12,
            "midi": 51,
            "name": "D#3",
            "ticks": 16640,
            "time": 48.38889333333333,
            "velocity": 0.6299212598425197
          },
          {
            "duration": 0.045801499999996054,
            "durationTicks": 12,
            "midi": 51,
            "name": "D#3",
            "ticks": 16657,
            "time": 48.453778791666664,
            "velocity": 0.6299212598425197
          },
          {
            "duration": 0.045801499999996054,
            "durationTicks": 12,
            "midi": 51,
            "name": "D#3",
            "ticks": 16676,
            "time": 48.52629783333333,
            "velocity": 0.6299212598425197
          },
          {
            "duration": 0.045801499999996054,
            "durationTicks": 12,
            "midi": 51,
            "name": "D#3",
            "ticks": 16695,
            "time": 48.598816875,
            "velocity": 0.6299212598425197
          },
          {
            "duration": 0.04580150000000316,
            "durationTicks": 12,
            "midi": 51,
            "name": "D#3",
            "ticks": 16712,
            "time": 48.663702333333326,
            "velocity": 0.6299212598425197
          },
          {
            "duration": 0.045801499999996054,
            "durationTicks": 12,
            "midi": 51,
            "name": "D#3",
            "ticks": 16731,
            "time": 48.736221375,
            "velocity": 0.6299212598425197
          },
          {
            "duration": 0.04580150000000316,
            "durationTicks": 12,
            "midi": 51,
            "name": "D#3",
            "ticks": 16748,
            "time": 48.80110683333333,
            "velocity": 0.6299212598425197
          },
          {
            "duration": 0.04580150000000316,
            "durationTicks": 12,
            "midi": 51,
            "name": "D#3",
            "ticks": 16766,
            "time": 48.86980908333333,
            "velocity": 0.6299212598425197
          },
          {
            "duration": 0.04580150000000316,
            "durationTicks": 12,
            "midi": 51,
            "name": "D#3",
            "ticks": 16782,
            "time": 48.93087774999999,
            "velocity": 0.6299212598425197
          },
          {
            "duration": 0.045801499999996054,
            "durationTicks": 12,
            "midi": 51,
            "name": "D#3",
            "ticks": 16802,
            "time": 49.00721358333333,
            "velocity": 0.6299212598425197
          },
          {
            "duration": 0.04580150000000316,
            "durationTicks": 12,
            "midi": 51,
            "name": "D#3",
            "ticks": 16820,
            "time": 49.075915833333326,
            "velocity": 0.6299212598425197
          },
          {
            "duration": 0.045801499999996054,
            "durationTicks": 12,
            "midi": 51,
            "name": "D#3",
            "ticks": 16836,
            "time": 49.1369845,
            "velocity": 0.6299212598425197
          },
          {
            "duration": 0.0419847083333309,
            "durationTicks": 11,
            "midi": 51,
            "name": "D#3",
            "ticks": 16853,
            "time": 49.20186995833333,
            "velocity": 0.6299212598425197
          },
          {
            "duration": 0.04580150000000316,
            "durationTicks": 12,
            "midi": 51,
            "name": "D#3",
            "ticks": 16870,
            "time": 49.26675541666666,
            "velocity": 0.6299212598425197
          },
          {
            "duration": 0.0419847083333309,
            "durationTicks": 11,
            "midi": 51,
            "name": "D#3",
            "ticks": 16888,
            "time": 49.33545766666666,
            "velocity": 0.6299212598425197
          },
          {
            "duration": 0.03816791666666575,
            "durationTicks": 10,
            "midi": 51,
            "name": "D#3",
            "ticks": 16905,
            "time": 49.400343125,
            "velocity": 0.6299212598425197
          },
          {
            "duration": 0.0419847083333309,
            "durationTicks": 11,
            "midi": 51,
            "name": "D#3",
            "ticks": 16921,
            "time": 49.46141179166666,
            "velocity": 0.6299212598425197
          },
          {
            "duration": 0.0419847083333309,
            "durationTicks": 11,
            "midi": 51,
            "name": "D#3",
            "ticks": 16938,
            "time": 49.52629725,
            "velocity": 0.6299212598425197
          },
          {
            "duration": 0.041984708333338006,
            "durationTicks": 11,
            "midi": 51,
            "name": "D#3",
            "ticks": 16955,
            "time": 49.59118270833333,
            "velocity": 0.6299212598425197
          },
          {
            "duration": 0.045801499999996054,
            "durationTicks": 12,
            "midi": 51,
            "name": "D#3",
            "ticks": 16972,
            "time": 49.656068166666664,
            "velocity": 0.6299212598425197
          },
          {
            "duration": 0.0419847083333309,
            "durationTicks": 11,
            "midi": 51,
            "name": "D#3",
            "ticks": 16990,
            "time": 49.724770416666665,
            "velocity": 0.6299212598425197
          },
          {
            "duration": 0.045801499999996054,
            "durationTicks": 12,
            "midi": 51,
            "name": "D#3",
            "ticks": 17005,
            "time": 49.782022291666664,
            "velocity": 0.6299212598425197
          },
          {
            "duration": 0.0419847083333309,
            "durationTicks": 11,
            "midi": 51,
            "name": "D#3",
            "ticks": 17023,
            "time": 49.850724541666665,
            "velocity": 0.6299212598425197
          },
          {
            "duration": 0.041984708333338006,
            "durationTicks": 11,
            "midi": 51,
            "name": "D#3",
            "ticks": 17040,
            "time": 49.915609999999994,
            "velocity": 0.6299212598425197
          },
          {
            "duration": 0.045801499999996054,
            "durationTicks": 12,
            "midi": 51,
            "name": "D#3",
            "ticks": 17056,
            "time": 49.976678666666665,
            "velocity": 0.6299212598425197
          },
          {
            "duration": 0.041984708333338006,
            "durationTicks": 11,
            "midi": 51,
            "name": "D#3",
            "ticks": 17073,
            "time": 50.041564124999994,
            "velocity": 0.6299212598425197
          },
          {
            "duration": 0.045801499999996054,
            "durationTicks": 12,
            "midi": 51,
            "name": "D#3",
            "ticks": 17090,
            "time": 50.10644958333333,
            "velocity": 0.6299212598425197
          },
          {
            "duration": 0.045801499999996054,
            "durationTicks": 12,
            "midi": 51,
            "name": "D#3",
            "ticks": 17107,
            "time": 50.171335041666666,
            "velocity": 0.6299212598425197
          },
          {
            "duration": 0.0419847083333309,
            "durationTicks": 11,
            "midi": 51,
            "name": "D#3",
            "ticks": 17123,
            "time": 50.23240370833333,
            "velocity": 0.6299212598425197
          },
          {
            "duration": 0.0419847083333309,
            "durationTicks": 11,
            "midi": 51,
            "name": "D#3",
            "ticks": 17142,
            "time": 50.304922749999996,
            "velocity": 0.6299212598425197
          },
          {
            "duration": 0.041984708333338006,
            "durationTicks": 11,
            "midi": 51,
            "name": "D#3",
            "ticks": 17158,
            "time": 50.36599141666666,
            "velocity": 0.6299212598425197
          },
          {
            "duration": 0.04961829166666831,
            "durationTicks": 13,
            "midi": 51,
            "name": "D#3",
            "ticks": 17175,
            "time": 50.430876874999996,
            "velocity": 0.6299212598425197
          },
          {
            "duration": 0.045801499999996054,
            "durationTicks": 12,
            "midi": 51,
            "name": "D#3",
            "ticks": 17192,
            "time": 50.49576233333333,
            "velocity": 0.6299212598425197
          },
          {
            "duration": 0.045801499999996054,
            "durationTicks": 12,
            "midi": 51,
            "name": "D#3",
            "ticks": 17210,
            "time": 50.56446458333333,
            "velocity": 0.6299212598425197
          },
          {
            "duration": 0.04580150000000316,
            "durationTicks": 12,
            "midi": 51,
            "name": "D#3",
            "ticks": 17226,
            "time": 50.62553325,
            "velocity": 0.6299212598425197
          },
          {
            "duration": 0.03816791666666575,
            "durationTicks": 10,
            "midi": 51,
            "name": "D#3",
            "ticks": 17245,
            "time": 50.69805229166666,
            "velocity": 0.6299212598425197
          },
          {
            "duration": 0.04580150000000316,
            "durationTicks": 12,
            "midi": 51,
            "name": "D#3",
            "ticks": 17261,
            "time": 50.75912095833333,
            "velocity": 0.6299212598425197
          },
          {
            "duration": 0.0419847083333309,
            "durationTicks": 11,
            "midi": 51,
            "name": "D#3",
            "ticks": 17277,
            "time": 50.820189625,
            "velocity": 0.6299212598425197
          },
          {
            "duration": 0.03816791666666575,
            "durationTicks": 10,
            "midi": 51,
            "name": "D#3",
            "ticks": 17298,
            "time": 50.900342249999994,
            "velocity": 0.6299212598425197
          },
          {
            "duration": 0.041984708333338006,
            "durationTicks": 11,
            "midi": 51,
            "name": "D#3",
            "ticks": 17312,
            "time": 50.95377733333333,
            "velocity": 0.6299212598425197
          },
          {
            "duration": 0.041984708333338006,
            "durationTicks": 11,
            "midi": 51,
            "name": "D#3",
            "ticks": 17331,
            "time": 51.026296374999994,
            "velocity": 0.6299212598425197
          },
          {
            "duration": 0.0419847083333309,
            "durationTicks": 11,
            "midi": 51,
            "name": "D#3",
            "ticks": 17347,
            "time": 51.087365041666665,
            "velocity": 0.6299212598425197
          },
          {
            "duration": 0.0419847083333309,
            "durationTicks": 11,
            "midi": 51,
            "name": "D#3",
            "ticks": 17365,
            "time": 51.156067291666666,
            "velocity": 0.6299212598425197
          },
          {
            "duration": 0.0419847083333309,
            "durationTicks": 11,
            "midi": 51,
            "name": "D#3",
            "ticks": 17381,
            "time": 51.21713595833333,
            "velocity": 0.6299212598425197
          },
          {
            "duration": 0.0419847083333309,
            "durationTicks": 11,
            "midi": 51,
            "name": "D#3",
            "ticks": 17400,
            "time": 51.289654999999996,
            "velocity": 0.6299212598425197
          },
          {
            "duration": 0.041984708333338006,
            "durationTicks": 11,
            "midi": 51,
            "name": "D#3",
            "ticks": 17415,
            "time": 51.346906874999995,
            "velocity": 0.6299212598425197
          },
          {
            "duration": 0.0419847083333309,
            "durationTicks": 11,
            "midi": 51,
            "name": "D#3",
            "ticks": 17433,
            "time": 51.415609124999996,
            "velocity": 0.6299212598425197
          },
          {
            "duration": 0.041984708333338006,
            "durationTicks": 11,
            "midi": 51,
            "name": "D#3",
            "ticks": 17448,
            "time": 51.472860999999995,
            "velocity": 0.6299212598425197
          },
          {
            "duration": 0.041984708333338006,
            "durationTicks": 11,
            "midi": 51,
            "name": "D#3",
            "ticks": 17468,
            "time": 51.549196833333326,
            "velocity": 0.6299212598425197
          },
          {
            "duration": 0.03816791666666575,
            "durationTicks": 10,
            "midi": 51,
            "name": "D#3",
            "ticks": 17483,
            "time": 51.60644870833333,
            "velocity": 0.6299212598425197
          },
          {
            "duration": 0.0419847083333309,
            "durationTicks": 11,
            "midi": 51,
            "name": "D#3",
            "ticks": 17502,
            "time": 51.67896775,
            "velocity": 0.6299212598425197
          },
          {
            "duration": 0.0419847083333309,
            "durationTicks": 11,
            "midi": 51,
            "name": "D#3",
            "ticks": 17517,
            "time": 51.736219625,
            "velocity": 0.6299212598425197
          },
          {
            "duration": 0.0419847083333309,
            "durationTicks": 11,
            "midi": 51,
            "name": "D#3",
            "ticks": 17535,
            "time": 51.804921875,
            "velocity": 0.6299212598425197
          },
          {
            "duration": 0.0419847083333309,
            "durationTicks": 11,
            "midi": 51,
            "name": "D#3",
            "ticks": 17550,
            "time": 51.86217375,
            "velocity": 0.6299212598425197
          },
          {
            "duration": 0.0419847083333309,
            "durationTicks": 11,
            "midi": 51,
            "name": "D#3",
            "ticks": 17567,
            "time": 51.92705920833333,
            "velocity": 0.6299212598425197
          },
          {
            "duration": 0.0419847083333309,
            "durationTicks": 11,
            "midi": 51,
            "name": "D#3",
            "ticks": 17583,
            "time": 51.988127874999996,
            "velocity": 0.6299212598425197
          },
          {
            "duration": 0.04580150000000316,
            "durationTicks": 12,
            "midi": 51,
            "name": "D#3",
            "ticks": 17602,
            "time": 52.06064691666666,
            "velocity": 0.6299212598425197
          },
          {
            "duration": 0.041984708333338006,
            "durationTicks": 11,
            "midi": 51,
            "name": "D#3",
            "ticks": 17617,
            "time": 52.11789879166666,
            "velocity": 0.6299212598425197
          },
          {
            "duration": 0.04580150000000316,
            "durationTicks": 12,
            "midi": 51,
            "name": "D#3",
            "ticks": 17635,
            "time": 52.18660104166666,
            "velocity": 0.6299212598425197
          },
          {
            "duration": 0.0419847083333309,
            "durationTicks": 11,
            "midi": 51,
            "name": "D#3",
            "ticks": 17651,
            "time": 52.24766970833333,
            "velocity": 0.6299212598425197
          },
          {
            "duration": 0.0419847083333309,
            "durationTicks": 11,
            "midi": 51,
            "name": "D#3",
            "ticks": 17668,
            "time": 52.31255516666666,
            "velocity": 0.6299212598425197
          },
          {
            "duration": 0.0419847083333309,
            "durationTicks": 11,
            "midi": 51,
            "name": "D#3",
            "ticks": 17683,
            "time": 52.36980704166666,
            "velocity": 0.6299212598425197
          },
          {
            "duration": 0.04580150000000316,
            "durationTicks": 12,
            "midi": 51,
            "name": "D#3",
            "ticks": 17702,
            "time": 52.44232608333333,
            "velocity": 0.6299212598425197
          },
          {
            "duration": 0.0419847083333309,
            "durationTicks": 11,
            "midi": 51,
            "name": "D#3",
            "ticks": 17718,
            "time": 52.50339475,
            "velocity": 0.6299212598425197
          },
          {
            "duration": 0.04580150000000316,
            "durationTicks": 12,
            "midi": 51,
            "name": "D#3",
            "ticks": 17735,
            "time": 52.56828020833333,
            "velocity": 0.6299212598425197
          },
          {
            "duration": 0.041984708333338006,
            "durationTicks": 11,
            "midi": 51,
            "name": "D#3",
            "ticks": 17753,
            "time": 52.63698245833333,
            "velocity": 0.6299212598425197
          },
          {
            "duration": 0.0419847083333309,
            "durationTicks": 11,
            "midi": 51,
            "name": "D#3",
            "ticks": 17770,
            "time": 52.701867916666664,
            "velocity": 0.6299212598425197
          },
          {
            "duration": 0.04580150000000316,
            "durationTicks": 12,
            "midi": 51,
            "name": "D#3",
            "ticks": 17787,
            "time": 52.76675337499999,
            "velocity": 0.6299212598425197
          },
          {
            "duration": 0.045801499999996054,
            "durationTicks": 12,
            "midi": 51,
            "name": "D#3",
            "ticks": 17802,
            "time": 52.82400525,
            "velocity": 0.6299212598425197
          },
          {
            "duration": 0.041984708333338006,
            "durationTicks": 11,
            "midi": 51,
            "name": "D#3",
            "ticks": 17820,
            "time": 52.89270749999999,
            "velocity": 0.6299212598425197
          },
          {
            "duration": 0.045801499999996054,
            "durationTicks": 12,
            "midi": 51,
            "name": "D#3",
            "ticks": 17836,
            "time": 52.953776166666664,
            "velocity": 0.6299212598425197
          },
          {
            "duration": 0.0419847083333309,
            "durationTicks": 11,
            "midi": 51,
            "name": "D#3",
            "ticks": 17855,
            "time": 53.02629520833333,
            "velocity": 0.6299212598425197
          },
          {
            "duration": 0.0419847083333309,
            "durationTicks": 11,
            "midi": 51,
            "name": "D#3",
            "ticks": 17870,
            "time": 53.08354708333333,
            "velocity": 0.6299212598425197
          },
          {
            "duration": 0.0419847083333309,
            "durationTicks": 11,
            "midi": 51,
            "name": "D#3",
            "ticks": 17887,
            "time": 53.148432541666665,
            "velocity": 0.6299212598425197
          },
          {
            "duration": 0.04580150000000316,
            "durationTicks": 12,
            "midi": 51,
            "name": "D#3",
            "ticks": 17902,
            "time": 53.205684416666664,
            "velocity": 0.6299212598425197
          },
          {
            "duration": 0.03816791666666575,
            "durationTicks": 10,
            "midi": 51,
            "name": "D#3",
            "ticks": 17920,
            "time": 53.274386666666665,
            "velocity": 0.6299212598425197
          },
          {
            "duration": 0.04580150000000316,
            "durationTicks": 12,
            "midi": 51,
            "name": "D#3",
            "ticks": 17936,
            "time": 53.33545533333333,
            "velocity": 0.6299212598425197
          },
          {
            "duration": 0.0419847083333309,
            "durationTicks": 11,
            "midi": 51,
            "name": "D#3",
            "ticks": 17952,
            "time": 53.396524,
            "velocity": 0.6299212598425197
          },
          {
            "duration": 0.04580150000000316,
            "durationTicks": 12,
            "midi": 51,
            "name": "D#3",
            "ticks": 17970,
            "time": 53.46522624999999,
            "velocity": 0.6299212598425197
          },
          {
            "duration": 0.0419847083333309,
            "durationTicks": 11,
            "midi": 51,
            "name": "D#3",
            "ticks": 17985,
            "time": 53.522478125,
            "velocity": 0.6299212598425197
          },
          {
            "duration": 0.03816791666666575,
            "durationTicks": 10,
            "midi": 51,
            "name": "D#3",
            "ticks": 18005,
            "time": 53.59881395833333,
            "velocity": 0.6299212598425197
          },
          {
            "duration": 0.0419847083333309,
            "durationTicks": 11,
            "midi": 51,
            "name": "D#3",
            "ticks": 18018,
            "time": 53.64843225,
            "velocity": 0.6299212598425197
          },
          {
            "duration": 0.0419847083333309,
            "durationTicks": 11,
            "midi": 51,
            "name": "D#3",
            "ticks": 18038,
            "time": 53.72476808333333,
            "velocity": 0.6299212598425197
          },
          {
            "duration": 0.0419847083333309,
            "durationTicks": 11,
            "midi": 51,
            "name": "D#3",
            "ticks": 18053,
            "time": 53.78201995833333,
            "velocity": 0.6299212598425197
          },
          {
            "duration": 0.045801499999996054,
            "durationTicks": 12,
            "midi": 51,
            "name": "D#3",
            "ticks": 18070,
            "time": 53.846905416666665,
            "velocity": 0.6299212598425197
          },
          {
            "duration": 0.04580150000000316,
            "durationTicks": 12,
            "midi": 51,
            "name": "D#3",
            "ticks": 18086,
            "time": 53.90797408333333,
            "velocity": 0.6299212598425197
          },
          {
            "duration": 0.04580150000000316,
            "durationTicks": 12,
            "midi": 51,
            "name": "D#3",
            "ticks": 18105,
            "time": 53.980493124999995,
            "velocity": 0.6299212598425197
          },
          {
            "duration": 0.041984708333338006,
            "durationTicks": 11,
            "midi": 51,
            "name": "D#3",
            "ticks": 18120,
            "time": 54.037744999999994,
            "velocity": 0.6299212598425197
          },
          {
            "duration": 0.045801499999996054,
            "durationTicks": 12,
            "midi": 51,
            "name": "D#3",
            "ticks": 18140,
            "time": 54.11408083333333,
            "velocity": 0.6299212598425197
          },
          {
            "duration": 0.0419847083333309,
            "durationTicks": 11,
            "midi": 51,
            "name": "D#3",
            "ticks": 18155,
            "time": 54.17133270833333,
            "velocity": 0.6299212598425197
          },
          {
            "duration": 0.0419847083333309,
            "durationTicks": 11,
            "midi": 51,
            "name": "D#3",
            "ticks": 18175,
            "time": 54.24766854166666,
            "velocity": 0.6299212598425197
          },
          {
            "duration": 0.041984708333338006,
            "durationTicks": 11,
            "midi": 51,
            "name": "D#3",
            "ticks": 18191,
            "time": 54.308737208333326,
            "velocity": 0.6299212598425197
          },
          {
            "duration": 0.0419847083333309,
            "durationTicks": 11,
            "midi": 51,
            "name": "D#3",
            "ticks": 18207,
            "time": 54.369805875,
            "velocity": 0.6299212598425197
          },
          {
            "duration": 0.0419847083333309,
            "durationTicks": 11,
            "midi": 51,
            "name": "D#3",
            "ticks": 18225,
            "time": 54.438508125,
            "velocity": 0.6299212598425197
          },
          {
            "duration": 0.04580150000000316,
            "durationTicks": 12,
            "midi": 51,
            "name": "D#3",
            "ticks": 18241,
            "time": 54.49957679166666,
            "velocity": 0.6299212598425197
          },
          {
            "duration": 0.041984708333338006,
            "durationTicks": 11,
            "midi": 51,
            "name": "D#3",
            "ticks": 18256,
            "time": 54.55682866666666,
            "velocity": 0.6299212598425197
          },
          {
            "duration": 0.09541979166666437,
            "durationTicks": 25,
            "midi": 51,
            "name": "D#3",
            "ticks": 18277,
            "time": 54.636981291666665,
            "velocity": 0.6299212598425197
          },
          {
            "duration": 0.0419847083333309,
            "durationTicks": 11,
            "midi": 51,
            "name": "D#3",
            "ticks": 18311,
            "time": 54.76675220833333,
            "velocity": 0.6299212598425197
          },
          {
            "duration": 0.0419847083333309,
            "durationTicks": 11,
            "midi": 51,
            "name": "D#3",
            "ticks": 18327,
            "time": 54.827820875,
            "velocity": 0.6299212598425197
          },
          {
            "duration": 0.041984708333338006,
            "durationTicks": 11,
            "midi": 51,
            "name": "D#3",
            "ticks": 18345,
            "time": 54.896523124999995,
            "velocity": 0.6299212598425197
          },
          {
            "duration": 0.03816791666666575,
            "durationTicks": 10,
            "midi": 51,
            "name": "D#3",
            "ticks": 18361,
            "time": 54.957591791666665,
            "velocity": 0.6299212598425197
          },
          {
            "duration": 0.041984708333338006,
            "durationTicks": 11,
            "midi": 51,
            "name": "D#3",
            "ticks": 18378,
            "time": 55.022477249999994,
            "velocity": 0.6299212598425197
          },
          {
            "duration": 0.03816791666666575,
            "durationTicks": 10,
            "midi": 51,
            "name": "D#3",
            "ticks": 18395,
            "time": 55.08736270833333,
            "velocity": 0.6299212598425197
          },
          {
            "duration": 0.045801499999996054,
            "durationTicks": 12,
            "midi": 51,
            "name": "D#3",
            "ticks": 18413,
            "time": 55.15606495833333,
            "velocity": 0.6299212598425197
          },
          {
            "duration": 0.0419847083333309,
            "durationTicks": 11,
            "midi": 51,
            "name": "D#3",
            "ticks": 18427,
            "time": 55.209500041666665,
            "velocity": 0.6299212598425197
          },
          {
            "duration": 0.045801499999996054,
            "durationTicks": 12,
            "midi": 51,
            "name": "D#3",
            "ticks": 18446,
            "time": 55.28201908333333,
            "velocity": 0.6299212598425197
          },
          {
            "duration": 0.041984708333338006,
            "durationTicks": 11,
            "midi": 51,
            "name": "D#3",
            "ticks": 18463,
            "time": 55.34690454166666,
            "velocity": 0.6299212598425197
          },
          {
            "duration": 0.04580150000000316,
            "durationTicks": 12,
            "midi": 51,
            "name": "D#3",
            "ticks": 18481,
            "time": 55.41560679166666,
            "velocity": 0.6299212598425197
          },
          {
            "duration": 0.0419847083333309,
            "durationTicks": 11,
            "midi": 51,
            "name": "D#3",
            "ticks": 18497,
            "time": 55.47667545833333,
            "velocity": 0.6299212598425197
          },
          {
            "duration": 0.0419847083333309,
            "durationTicks": 11,
            "midi": 51,
            "name": "D#3",
            "ticks": 18516,
            "time": 55.5491945,
            "velocity": 0.6299212598425197
          },
          {
            "duration": 0.03816791666666575,
            "durationTicks": 10,
            "midi": 51,
            "name": "D#3",
            "ticks": 18530,
            "time": 55.60262958333333,
            "velocity": 0.6299212598425197
          },
          {
            "duration": 0.03816791666666575,
            "durationTicks": 10,
            "midi": 51,
            "name": "D#3",
            "ticks": 18550,
            "time": 55.678965416666664,
            "velocity": 0.6299212598425197
          },
          {
            "duration": 0.03816791666666575,
            "durationTicks": 10,
            "midi": 51,
            "name": "D#3",
            "ticks": 18565,
            "time": 55.73621729166666,
            "velocity": 0.6299212598425197
          },
          {
            "duration": 0.0419847083333309,
            "durationTicks": 11,
            "midi": 51,
            "name": "D#3",
            "ticks": 18583,
            "time": 55.80491954166666,
            "velocity": 0.6299212598425197
          },
          {
            "duration": 0.041984708333338006,
            "durationTicks": 11,
            "midi": 51,
            "name": "D#3",
            "ticks": 18598,
            "time": 55.86217141666666,
            "velocity": 0.6299212598425197
          },
          {
            "duration": 0.041984708333338006,
            "durationTicks": 11,
            "midi": 51,
            "name": "D#3",
            "ticks": 18617,
            "time": 55.93469045833333,
            "velocity": 0.6299212598425197
          },
          {
            "duration": 0.0419847083333309,
            "durationTicks": 11,
            "midi": 51,
            "name": "D#3",
            "ticks": 18631,
            "time": 55.98812554166666,
            "velocity": 0.6299212598425197
          },
          {
            "duration": 0.04580150000000316,
            "durationTicks": 12,
            "midi": 51,
            "name": "D#3",
            "ticks": 18651,
            "time": 56.06446137499999,
            "velocity": 0.6299212598425197
          },
          {
            "duration": 0.0419847083333309,
            "durationTicks": 11,
            "midi": 51,
            "name": "D#3",
            "ticks": 18666,
            "time": 56.12171325,
            "velocity": 0.6299212598425197
          },
          {
            "duration": 0.0419847083333309,
            "durationTicks": 11,
            "midi": 51,
            "name": "D#3",
            "ticks": 18685,
            "time": 56.194232291666665,
            "velocity": 0.6299212598425197
          },
          {
            "duration": 0.0419847083333309,
            "durationTicks": 11,
            "midi": 51,
            "name": "D#3",
            "ticks": 18700,
            "time": 56.251484166666664,
            "velocity": 0.6299212598425197
          },
          {
            "duration": 0.03816791666666575,
            "durationTicks": 10,
            "midi": 51,
            "name": "D#3",
            "ticks": 18720,
            "time": 56.327819999999996,
            "velocity": 0.6299212598425197
          },
          {
            "duration": 0.0419847083333309,
            "durationTicks": 11,
            "midi": 51,
            "name": "D#3",
            "ticks": 18735,
            "time": 56.385071874999994,
            "velocity": 0.6299212598425197
          },
          {
            "duration": 0.03816791666667285,
            "durationTicks": 10,
            "midi": 51,
            "name": "D#3",
            "ticks": 18755,
            "time": 56.461407708333326,
            "velocity": 0.6299212598425197
          },
          {
            "duration": 0.03816791666666575,
            "durationTicks": 10,
            "midi": 51,
            "name": "D#3",
            "ticks": 18770,
            "time": 56.51865958333333,
            "velocity": 0.6299212598425197
          },
          {
            "duration": 0.03816791666666575,
            "durationTicks": 10,
            "midi": 51,
            "name": "D#3",
            "ticks": 18790,
            "time": 56.59499541666666,
            "velocity": 0.6299212598425197
          },
          {
            "duration": 0.03816791666667285,
            "durationTicks": 10,
            "midi": 51,
            "name": "D#3",
            "ticks": 18805,
            "time": 56.65224729166666,
            "velocity": 0.6299212598425197
          },
          {
            "duration": 0.03816791666666575,
            "durationTicks": 10,
            "midi": 51,
            "name": "D#3",
            "ticks": 18823,
            "time": 56.72094954166666,
            "velocity": 0.6299212598425197
          },
          {
            "duration": 0.03816791666666575,
            "durationTicks": 10,
            "midi": 51,
            "name": "D#3",
            "ticks": 18838,
            "time": 56.77820141666666,
            "velocity": 0.6299212598425197
          },
          {
            "duration": 0.03053433333333544,
            "durationTicks": 8,
            "midi": 51,
            "name": "D#3",
            "ticks": 18858,
            "time": 56.85453724999999,
            "velocity": 0.6299212598425197
          },
          {
            "duration": 0.041984708333338006,
            "durationTicks": 11,
            "midi": 51,
            "name": "D#3",
            "ticks": 18871,
            "time": 56.90415554166666,
            "velocity": 0.6299212598425197
          },
          {
            "duration": 0.0419847083333309,
            "durationTicks": 11,
            "midi": 51,
            "name": "D#3",
            "ticks": 18892,
            "time": 56.984308166666665,
            "velocity": 0.6299212598425197
          },
          {
            "duration": 0.03816791666666575,
            "durationTicks": 10,
            "midi": 51,
            "name": "D#3",
            "ticks": 18906,
            "time": 57.03774325,
            "velocity": 0.6299212598425197
          },
          {
            "duration": 0.0419847083333309,
            "durationTicks": 11,
            "midi": 51,
            "name": "D#3",
            "ticks": 18926,
            "time": 57.11407908333333,
            "velocity": 0.6299212598425197
          },
          {
            "duration": 0.0419847083333309,
            "durationTicks": 11,
            "midi": 51,
            "name": "D#3",
            "ticks": 18943,
            "time": 57.178964541666666,
            "velocity": 0.6299212598425197
          },
          {
            "duration": 0.041984708333338006,
            "durationTicks": 11,
            "midi": 51,
            "name": "D#3",
            "ticks": 18962,
            "time": 57.251483583333325,
            "velocity": 0.6299212598425197
          },
          {
            "duration": 0.0419847083333309,
            "durationTicks": 11,
            "midi": 51,
            "name": "D#3",
            "ticks": 18977,
            "time": 57.30873545833333,
            "velocity": 0.6299212598425197
          },
          {
            "duration": 0.03816791666666575,
            "durationTicks": 10,
            "midi": 51,
            "name": "D#3",
            "ticks": 18997,
            "time": 57.38507129166666,
            "velocity": 0.6299212598425197
          },
          {
            "duration": 0.03816791666666575,
            "durationTicks": 10,
            "midi": 51,
            "name": "D#3",
            "ticks": 19011,
            "time": 57.438506374999996,
            "velocity": 0.6299212598425197
          },
          {
            "duration": 0.041984708333338006,
            "durationTicks": 11,
            "midi": 51,
            "name": "D#3",
            "ticks": 19031,
            "time": 57.51484220833333,
            "velocity": 0.6299212598425197
          },
          {
            "duration": 0.03816791666667285,
            "durationTicks": 10,
            "midi": 51,
            "name": "D#3",
            "ticks": 19046,
            "time": 57.572094083333326,
            "velocity": 0.6299212598425197
          },
          {
            "duration": 0.0419847083333309,
            "durationTicks": 11,
            "midi": 51,
            "name": "D#3",
            "ticks": 19062,
            "time": 57.63316275,
            "velocity": 0.6299212598425197
          },
          {
            "duration": 0.0419847083333309,
            "durationTicks": 11,
            "midi": 51,
            "name": "D#3",
            "ticks": 19081,
            "time": 57.70568179166666,
            "velocity": 0.6299212598425197
          },
          {
            "duration": 0.03816791666666575,
            "durationTicks": 10,
            "midi": 51,
            "name": "D#3",
            "ticks": 19096,
            "time": 57.76293366666666,
            "velocity": 0.6299212598425197
          },
          {
            "duration": 0.04580150000000316,
            "durationTicks": 12,
            "midi": 51,
            "name": "D#3",
            "ticks": 19112,
            "time": 57.824002333333326,
            "velocity": 0.6299212598425197
          },
          {
            "duration": 0.0419847083333309,
            "durationTicks": 11,
            "midi": 51,
            "name": "D#3",
            "ticks": 19131,
            "time": 57.896521375,
            "velocity": 0.6299212598425197
          },
          {
            "duration": 0.045801499999996054,
            "durationTicks": 12,
            "midi": 51,
            "name": "D#3",
            "ticks": 19145,
            "time": 57.94995645833333,
            "velocity": 0.6299212598425197
          },
          {
            "duration": 0.0419847083333309,
            "durationTicks": 11,
            "midi": 51,
            "name": "D#3",
            "ticks": 19165,
            "time": 58.026292291666664,
            "velocity": 0.6299212598425197
          },
          {
            "duration": 0.041984708333338006,
            "durationTicks": 11,
            "midi": 51,
            "name": "D#3",
            "ticks": 19181,
            "time": 58.08736095833333,
            "velocity": 0.6299212598425197
          },
          {
            "duration": 0.0419847083333309,
            "durationTicks": 11,
            "midi": 51,
            "name": "D#3",
            "ticks": 19197,
            "time": 58.148429625,
            "velocity": 0.6299212598425197
          },
          {
            "duration": 0.03816791666666575,
            "durationTicks": 10,
            "midi": 51,
            "name": "D#3",
            "ticks": 19215,
            "time": 58.21713187499999,
            "velocity": 0.6299212598425197
          },
          {
            "duration": 0.0419847083333309,
            "durationTicks": 11,
            "midi": 51,
            "name": "D#3",
            "ticks": 19231,
            "time": 58.27820054166666,
            "velocity": 0.6299212598425197
          },
          {
            "duration": 0.041984708333338006,
            "durationTicks": 11,
            "midi": 51,
            "name": "D#3",
            "ticks": 19247,
            "time": 58.33926920833333,
            "velocity": 0.6299212598425197
          },
          {
            "duration": 0.0419847083333309,
            "durationTicks": 11,
            "midi": 51,
            "name": "D#3",
            "ticks": 19266,
            "time": 58.41178825,
            "velocity": 0.6299212598425197
          },
          {
            "duration": 0.04580150000000316,
            "durationTicks": 12,
            "midi": 51,
            "name": "D#3",
            "ticks": 19280,
            "time": 58.46522333333333,
            "velocity": 0.6299212598425197
          },
          {
            "duration": 0.041984708333338006,
            "durationTicks": 11,
            "midi": 51,
            "name": "D#3",
            "ticks": 19298,
            "time": 58.53392558333333,
            "velocity": 0.6299212598425197
          },
          {
            "duration": 0.03816791666666575,
            "durationTicks": 10,
            "midi": 51,
            "name": "D#3",
            "ticks": 19315,
            "time": 58.598811041666664,
            "velocity": 0.6299212598425197
          },
          {
            "duration": 0.0419847083333309,
            "durationTicks": 11,
            "midi": 51,
            "name": "D#3",
            "ticks": 19332,
            "time": 58.6636965,
            "velocity": 0.6299212598425197
          },
          {
            "duration": 0.03816791666666575,
            "durationTicks": 10,
            "midi": 51,
            "name": "D#3",
            "ticks": 19347,
            "time": 58.720948375,
            "velocity": 0.6299212598425197
          },
          {
            "duration": 0.0419847083333309,
            "durationTicks": 11,
            "midi": 51,
            "name": "D#3",
            "ticks": 19366,
            "time": 58.793467416666665,
            "velocity": 0.6299212598425197
          },
          {
            "duration": 0.0419847083333309,
            "durationTicks": 11,
            "midi": 51,
            "name": "D#3",
            "ticks": 19381,
            "time": 58.850719291666664,
            "velocity": 0.6299212598425197
          },
          {
            "duration": 0.03053433333333544,
            "durationTicks": 8,
            "midi": 51,
            "name": "D#3",
            "ticks": 19401,
            "time": 58.927055124999995,
            "velocity": 0.6299212598425197
          },
          {
            "duration": 0.03816791666666575,
            "durationTicks": 10,
            "midi": 51,
            "name": "D#3",
            "ticks": 19415,
            "time": 58.98049020833333,
            "velocity": 0.6299212598425197
          },
          {
            "duration": 0.03816791666667285,
            "durationTicks": 10,
            "midi": 51,
            "name": "D#3",
            "ticks": 19435,
            "time": 59.05682604166666,
            "velocity": 0.6299212598425197
          },
          {
            "duration": 0.0419847083333309,
            "durationTicks": 11,
            "midi": 51,
            "name": "D#3",
            "ticks": 19448,
            "time": 59.10644433333333,
            "velocity": 0.6299212598425197
          },
          {
            "duration": 0.041984708333338006,
            "durationTicks": 11,
            "midi": 51,
            "name": "D#3",
            "ticks": 19468,
            "time": 59.18278016666666,
            "velocity": 0.6299212598425197
          },
          {
            "duration": 0.0419847083333309,
            "durationTicks": 11,
            "midi": 51,
            "name": "D#3",
            "ticks": 19483,
            "time": 59.240032041666666,
            "velocity": 0.6299212598425197
          },
          {
            "duration": 0.04580150000000316,
            "durationTicks": 12,
            "midi": 51,
            "name": "D#3",
            "ticks": 19500,
            "time": 59.304917499999995,
            "velocity": 0.6299212598425197
          },
          {
            "duration": 0.04580150000000316,
            "durationTicks": 12,
            "midi": 51,
            "name": "D#3",
            "ticks": 19517,
            "time": 59.36980295833333,
            "velocity": 0.6299212598425197
          },
          {
            "duration": 0.045801499999996054,
            "durationTicks": 12,
            "midi": 51,
            "name": "D#3",
            "ticks": 19536,
            "time": 59.442322,
            "velocity": 0.6299212598425197
          },
          {
            "duration": 0.0419847083333309,
            "durationTicks": 11,
            "midi": 51,
            "name": "D#3",
            "ticks": 19551,
            "time": 59.499573874999996,
            "velocity": 0.6299212598425197
          },
          {
            "duration": 0.03816791666666575,
            "durationTicks": 10,
            "midi": 51,
            "name": "D#3",
            "ticks": 19571,
            "time": 59.57590970833333,
            "velocity": 0.6299212598425197
          },
          {
            "duration": 0.03816791666666575,
            "durationTicks": 10,
            "midi": 51,
            "name": "D#3",
            "ticks": 19586,
            "time": 59.63316158333333,
            "velocity": 0.6299212598425197
          },
          {
            "duration": 0.03816791666666575,
            "durationTicks": 10,
            "midi": 51,
            "name": "D#3",
            "ticks": 19605,
            "time": 59.705680625,
            "velocity": 0.6299212598425197
          },
          {
            "duration": 0.0419847083333309,
            "durationTicks": 11,
            "midi": 51,
            "name": "D#3",
            "ticks": 19618,
            "time": 59.75529891666666,
            "velocity": 0.6299212598425197
          },
          {
            "duration": 0.041984708333338006,
            "durationTicks": 11,
            "midi": 51,
            "name": "D#3",
            "ticks": 19637,
            "time": 59.82781795833333,
            "velocity": 0.6299212598425197
          },
          {
            "duration": 0.04580150000000316,
            "durationTicks": 12,
            "midi": 51,
            "name": "D#3",
            "ticks": 19651,
            "time": 59.88125304166666,
            "velocity": 0.6299212598425197
          },
          {
            "duration": 0.042797541666665495,
            "durationTicks": 11,
            "midi": 51,
            "name": "D#3",
            "ticks": 19670,
            "time": 59.953772083333334,
            "velocity": 0.6299212598425197
          },
          {
            "duration": 0.05092587500000434,
            "durationTicks": 11,
            "midi": 51,
            "name": "D#3",
            "ticks": 19685,
            "time": 60.015088125,
            "velocity": 0.6299212598425197
          },
          {
            "duration": 0.05555549999999698,
            "durationTicks": 12,
            "midi": 51,
            "name": "D#3",
            "ticks": 19701,
            "time": 60.089162125,
            "velocity": 0.6299212598425197
          },
          {
            "duration": 0.05555550000000409,
            "durationTicks": 12,
            "midi": 51,
            "name": "D#3",
            "ticks": 19717,
            "time": 60.163236125,
            "velocity": 0.6299212598425197
          },
          {
            "duration": 0.05555549999999698,
            "durationTicks": 12,
            "midi": 51,
            "name": "D#3",
            "ticks": 19736,
            "time": 60.251199,
            "velocity": 0.6299212598425197
          },
          {
            "duration": 0.050925874999997234,
            "durationTicks": 11,
            "midi": 51,
            "name": "D#3",
            "ticks": 19751,
            "time": 60.320643375,
            "velocity": 0.6299212598425197
          },
          {
            "duration": 0.05092587500000434,
            "durationTicks": 11,
            "midi": 51,
            "name": "D#3",
            "ticks": 19770,
            "time": 60.40860625,
            "velocity": 0.6299212598425197
          },
          {
            "duration": 0.046296249999997485,
            "durationTicks": 10,
            "midi": 51,
            "name": "D#3",
            "ticks": 19785,
            "time": 60.478050625,
            "velocity": 0.6299212598425197
          },
          {
            "duration": 0.05555550000000409,
            "durationTicks": 12,
            "midi": 51,
            "name": "D#3",
            "ticks": 19801,
            "time": 60.552124625,
            "velocity": 0.6299212598425197
          },
          {
            "duration": 0.05555549999999698,
            "durationTicks": 12,
            "midi": 51,
            "name": "D#3",
            "ticks": 19821,
            "time": 60.644717125,
            "velocity": 0.6299212598425197
          },
          {
            "duration": 0.050925874999997234,
            "durationTicks": 11,
            "midi": 51,
            "name": "D#3",
            "ticks": 19837,
            "time": 60.718791125,
            "velocity": 0.6299212598425197
          },
          {
            "duration": 0.050925874999997234,
            "durationTicks": 11,
            "midi": 51,
            "name": "D#3",
            "ticks": 19852,
            "time": 60.7882355,
            "velocity": 0.6299212598425197
          },
          {
            "duration": 0.050925874999997234,
            "durationTicks": 11,
            "midi": 51,
            "name": "D#3",
            "ticks": 19873,
            "time": 60.885457625,
            "velocity": 0.6299212598425197
          },
          {
            "duration": 0.05092587500000434,
            "durationTicks": 11,
            "midi": 51,
            "name": "D#3",
            "ticks": 19886,
            "time": 60.94564275,
            "velocity": 0.6299212598425197
          },
          {
            "duration": 0.050925874999997234,
            "durationTicks": 11,
            "midi": 51,
            "name": "D#3",
            "ticks": 19905,
            "time": 61.033605625,
            "velocity": 0.6299212598425197
          },
          {
            "duration": 0.05092587500000434,
            "durationTicks": 11,
            "midi": 51,
            "name": "D#3",
            "ticks": 19920,
            "time": 61.103049999999996,
            "velocity": 0.6299212598425197
          },
          {
            "duration": 0.05092587500000434,
            "durationTicks": 11,
            "midi": 51,
            "name": "D#3",
            "ticks": 19941,
            "time": 61.200272125,
            "velocity": 0.6299212598425197
          },
          {
            "duration": 0.046296249999997485,
            "durationTicks": 10,
            "midi": 51,
            "name": "D#3",
            "ticks": 19955,
            "time": 61.265086875,
            "velocity": 0.6299212598425197
          },
          {
            "duration": 0.05555550000000409,
            "durationTicks": 12,
            "midi": 51,
            "name": "D#3",
            "ticks": 19972,
            "time": 61.3437905,
            "velocity": 0.6299212598425197
          },
          {
            "duration": 0.10185175000000157,
            "durationTicks": 22,
            "midi": 51,
            "name": "D#3",
            "ticks": 19995,
            "time": 61.450271875,
            "velocity": 0.6299212598425197
          },
          {
            "duration": 0.04629625000000459,
            "durationTicks": 10,
            "midi": 51,
            "name": "D#3",
            "ticks": 20023,
            "time": 61.579901375,
            "velocity": 0.6299212598425197
          },
          {
            "duration": 0.050925874999997234,
            "durationTicks": 11,
            "midi": 51,
            "name": "D#3",
            "ticks": 20042,
            "time": 61.66786425,
            "velocity": 0.6299212598425197
          },
          {
            "duration": 0.05092587500000434,
            "durationTicks": 11,
            "midi": 51,
            "name": "D#3",
            "ticks": 20057,
            "time": 61.737308625,
            "velocity": 0.6299212598425197
          },
          {
            "duration": 0.050925874999997234,
            "durationTicks": 11,
            "midi": 51,
            "name": "D#3",
            "ticks": 20077,
            "time": 61.829901125,
            "velocity": 0.6299212598425197
          },
          {
            "duration": 0.050925874999997234,
            "durationTicks": 11,
            "midi": 51,
            "name": "D#3",
            "ticks": 20091,
            "time": 61.894715875,
            "velocity": 0.6299212598425197
          },
          {
            "duration": 0.04629625000000459,
            "durationTicks": 10,
            "midi": 51,
            "name": "D#3",
            "ticks": 20110,
            "time": 61.98267875,
            "velocity": 0.6299212598425197
          },
          {
            "duration": 0.046296249999997485,
            "durationTicks": 10,
            "midi": 51,
            "name": "D#3",
            "ticks": 20125,
            "time": 62.052123125,
            "velocity": 0.6299212598425197
          },
          {
            "duration": 0.060185125000003836,
            "durationTicks": 13,
            "midi": 51,
            "name": "D#3",
            "ticks": 20141,
            "time": 62.126197125,
            "velocity": 0.6299212598425197
          },
          {
            "duration": 0.050925916666663795,
            "durationTicks": 7,
            "midi": 51,
            "name": "D#3",
            "ticks": 20158,
            "time": 62.20490075,
            "velocity": 0.6299212598425197
          },
          {
            "duration": 0.10000000000000142,
            "durationTicks": 12,
            "midi": 51,
            "name": "D#3",
            "ticks": 20172,
            "time": 62.31416,
            "velocity": 1
          }
        ],
        "endOfTrackTicks": 20184
      },
      {
        "channel": 9,
        "controlChanges": {
          "0": [
            {
              "number": 0,
              "ticks": 0,
              "time": 0,
              "value": 0
            }
          ],
          "1": [
            {
              "number": 1,
              "ticks": 0,
              "time": 0,
              "value": 0
            }
          ],
          "7": [
            {
              "number": 7,
              "ticks": 0,
              "time": 0,
              "value": 0.3937007874015748
            }
          ],
          "10": [
            {
              "number": 10,
              "ticks": 0,
              "time": 0,
              "value": 0.5118110236220472
            }
          ],
          "64": [
            {
              "number": 64,
              "ticks": 0,
              "time": 0,
              "value": 0
            }
          ]
        },
        "pitchBends": [
          {
            "ticks": 0,
            "time": 0,
            "value": 0
          }
        ],
        "instrument": {
          "family": "drums",
          "number": 0,
          "name": "standard kit"
        },
        "name": "Cymbal",
        "notes": [
          {
            "duration": 0.06647383333333333,
            "durationTicks": 23,
            "midi": 38,
            "name": "D2",
            "ticks": 0,
            "time": 0,
            "velocity": 1
          },
          {
            "duration": 0.08670499999999998,
            "durationTicks": 30,
            "midi": 57,
            "name": "A3",
            "ticks": 141,
            "time": 0.4075135,
            "velocity": 1
          },
          {
            "duration": 0.10115583333333356,
            "durationTicks": 35,
            "midi": 57,
            "name": "A3",
            "ticks": 352,
            "time": 1.0173386666666664,
            "velocity": 1
          },
          {
            "duration": 0.08670500000000003,
            "durationTicks": 30,
            "midi": 57,
            "name": "A3",
            "ticks": 580,
            "time": 1.6762966666666663,
            "velocity": 1
          },
          {
            "duration": 0.1040460000000003,
            "durationTicks": 36,
            "midi": 57,
            "name": "A3",
            "ticks": 830,
            "time": 2.398838333333333,
            "velocity": 1
          },
          {
            "duration": 0.09537549999999984,
            "durationTicks": 33,
            "midi": 57,
            "name": "A3",
            "ticks": 1071,
            "time": 3.0953684999999997,
            "velocity": 1
          },
          {
            "duration": 0.06647383333333323,
            "durationTicks": 23,
            "midi": 57,
            "name": "A3",
            "ticks": 1328,
            "time": 3.8381413333333327,
            "velocity": 1
          },
          {
            "duration": 0.07803450000000023,
            "durationTicks": 27,
            "midi": 57,
            "name": "A3",
            "ticks": 1552,
            "time": 4.485538666666666,
            "velocity": 1
          },
          {
            "duration": 0.07225416666666629,
            "durationTicks": 25,
            "midi": 57,
            "name": "A3",
            "ticks": 1795,
            "time": 5.187849166666666,
            "velocity": 1
          },
          {
            "duration": 0.0809246666666672,
            "durationTicks": 28,
            "midi": 57,
            "name": "A3",
            "ticks": 2035,
            "time": 5.8814891666666655,
            "velocity": 1
          },
          {
            "duration": 0.08670500000000025,
            "durationTicks": 30,
            "midi": 57,
            "name": "A3",
            "ticks": 2268,
            "time": 6.554897999999999,
            "velocity": 1
          },
          {
            "duration": 0.10982633333333247,
            "durationTicks": 38,
            "midi": 57,
            "name": "A3",
            "ticks": 2508,
            "time": 7.248537999999999,
            "velocity": 1
          },
          {
            "duration": 0.08670499999999937,
            "durationTicks": 30,
            "midi": 57,
            "name": "A3",
            "ticks": 2753,
            "time": 7.956628833333332,
            "velocity": 1
          },
          {
            "duration": 0.07803450000000112,
            "durationTicks": 27,
            "midi": 57,
            "name": "A3",
            "ticks": 2987,
            "time": 8.632927833333332,
            "velocity": 1
          },
          {
            "duration": 0.07803449999999934,
            "durationTicks": 27,
            "midi": 57,
            "name": "A3",
            "ticks": 3230,
            "time": 9.335238333333333,
            "velocity": 1
          },
          {
            "duration": 0.08670500000000025,
            "durationTicks": 30,
            "midi": 57,
            "name": "A3",
            "ticks": 3463,
            "time": 10.008647166666666,
            "velocity": 1
          },
          {
            "duration": 0.043352500000001015,
            "durationTicks": 15,
            "midi": 57,
            "name": "A3",
            "ticks": 3715,
            "time": 10.736969166666665,
            "velocity": 1
          },
          {
            "duration": 0.10982633333333425,
            "durationTicks": 38,
            "midi": 57,
            "name": "A3",
            "ticks": 3832,
            "time": 11.075118666666665,
            "velocity": 1
          },
          {
            "duration": 0.03179183333333491,
            "durationTicks": 11,
            "midi": 38,
            "name": "D2",
            "ticks": 4086,
            "time": 11.809220999999997,
            "velocity": 0.5826771653543307
          },
          {
            "duration": 0.028901666666664383,
            "durationTicks": 10,
            "midi": 38,
            "name": "D2",
            "ticks": 4105,
            "time": 11.864134166666666,
            "velocity": 0.6614173228346457
          },
          {
            "duration": 0.01445083333333308,
            "durationTicks": 5,
            "midi": 38,
            "name": "D2",
            "ticks": 4125,
            "time": 11.921937499999999,
            "velocity": 0.3779527559055118
          },
          {
            "duration": 0.017341000000001827,
            "durationTicks": 6,
            "midi": 38,
            "name": "D2",
            "ticks": 4145,
            "time": 11.97974083333333,
            "velocity": 0.30708661417322836
          },
          {
            "duration": 0.00867050000000269,
            "durationTicks": 3,
            "midi": 38,
            "name": "D2",
            "ticks": 4161,
            "time": 12.025983499999997,
            "velocity": 0.023622047244094488
          },
          {
            "duration": 0.028901666666667936,
            "durationTicks": 10,
            "midi": 38,
            "name": "D2",
            "ticks": 4175,
            "time": 12.066445833333331,
            "velocity": 0.7007874015748031
          },
          {
            "duration": 0.014450833333336632,
            "durationTicks": 5,
            "midi": 38,
            "name": "D2",
            "ticks": 4190,
            "time": 12.10979833333333,
            "velocity": 0.7007874015748031
          },
          {
            "duration": 0.03179183333333491,
            "durationTicks": 11,
            "midi": 38,
            "name": "D2",
            "ticks": 4207,
            "time": 12.158931166666664,
            "velocity": 0.7559055118110236
          },
          {
            "duration": 0.01734100000000005,
            "durationTicks": 6,
            "midi": 38,
            "name": "D2",
            "ticks": 4226,
            "time": 12.213844333333332,
            "velocity": 0.5826771653543307
          },
          {
            "duration": 0.028901666666664383,
            "durationTicks": 10,
            "midi": 38,
            "name": "D2",
            "ticks": 4241,
            "time": 12.257196833333333,
            "velocity": 0.7007874015748031
          },
          {
            "duration": 0.023121333333332217,
            "durationTicks": 8,
            "midi": 38,
            "name": "D2",
            "ticks": 4255,
            "time": 12.297659166666666,
            "velocity": 0.48031496062992124
          },
          {
            "duration": 0.04624266666666621,
            "durationTicks": 16,
            "midi": 38,
            "name": "D2",
            "ticks": 4272,
            "time": 12.346791999999999,
            "velocity": 0.8740157480314961
          },
          {
            "duration": 0.0202311666666688,
            "durationTicks": 7,
            "midi": 38,
            "name": "D2",
            "ticks": 4293,
            "time": 12.407485499999998,
            "velocity": 0.7007874015748031
          },
          {
            "duration": 0.04335249999999924,
            "durationTicks": 15,
            "midi": 38,
            "name": "D2",
            "ticks": 4310,
            "time": 12.456618333333331,
            "velocity": 1
          },
          {
            "duration": 0.04624266666666621,
            "durationTicks": 16,
            "midi": 38,
            "name": "D2",
            "ticks": 4433,
            "time": 12.812108833333333,
            "velocity": 1
          },
          {
            "duration": 0.03179183333333491,
            "durationTicks": 11,
            "midi": 38,
            "name": "D2",
            "ticks": 4560,
            "time": 13.179159999999998,
            "velocity": 1
          },
          {
            "duration": 0.01445083333333308,
            "durationTicks": 5,
            "midi": 40,
            "name": "E2",
            "ticks": 4562,
            "time": 13.184940333333332,
            "velocity": 0.5433070866141733
          },
          {
            "duration": 1.0549108333333361,
            "durationTicks": 365,
            "midi": 57,
            "name": "A3",
            "ticks": 4820,
            "time": 13.93060333333333,
            "velocity": 1
          },
          {
            "duration": 0.03757216666666707,
            "durationTicks": 13,
            "midi": 38,
            "name": "D2",
            "ticks": 5046,
            "time": 14.583780999999997,
            "velocity": 0.968503937007874
          },
          {
            "duration": 0.02890166666666616,
            "durationTicks": 10,
            "midi": 38,
            "name": "D2",
            "ticks": 5065,
            "time": 14.638694166666665,
            "velocity": 0.9763779527559056
          },
          {
            "duration": 0.008670499999999137,
            "durationTicks": 3,
            "midi": 38,
            "name": "D2",
            "ticks": 5082,
            "time": 14.687826999999999,
            "velocity": 0.4566929133858268
          },
          {
            "duration": 0.03179183333333313,
            "durationTicks": 11,
            "midi": 38,
            "name": "D2",
            "ticks": 5100,
            "time": 14.739849999999999,
            "velocity": 0.4330708661417323
          },
          {
            "duration": 0.01445083333333308,
            "durationTicks": 5,
            "midi": 38,
            "name": "D2",
            "ticks": 5115,
            "time": 14.783202499999998,
            "velocity": 0.2755905511811024
          },
          {
            "duration": 0.03179183333333313,
            "durationTicks": 11,
            "midi": 38,
            "name": "D2",
            "ticks": 5133,
            "time": 14.835225499999998,
            "velocity": 0.5669291338582677
          },
          {
            "duration": 0.014450833333334856,
            "durationTicks": 5,
            "midi": 38,
            "name": "D2",
            "ticks": 5150,
            "time": 14.884358333333331,
            "velocity": 0.4566929133858268
          },
          {
            "duration": 0.03179183333333491,
            "durationTicks": 11,
            "midi": 38,
            "name": "D2",
            "ticks": 5165,
            "time": 14.92771083333333,
            "velocity": 0.6614173228346457
          },
          {
            "duration": 0.017341000000001827,
            "durationTicks": 6,
            "midi": 38,
            "name": "D2",
            "ticks": 5182,
            "time": 14.976843666666664,
            "velocity": 0.5196850393700787
          },
          {
            "duration": 0.031791833333331354,
            "durationTicks": 11,
            "midi": 38,
            "name": "D2",
            "ticks": 5200,
            "time": 15.028866666666666,
            "velocity": 0.6220472440944882
          },
          {
            "duration": 0.01445083333333308,
            "durationTicks": 5,
            "midi": 38,
            "name": "D2",
            "ticks": 5216,
            "time": 15.075109333333332,
            "velocity": 0.30708661417322836
          },
          {
            "duration": 0.04624266666666621,
            "durationTicks": 16,
            "midi": 38,
            "name": "D2",
            "ticks": 5235,
            "time": 15.130022499999999,
            "velocity": 0.5669291338582677
          },
          {
            "duration": 0.028901666666667936,
            "durationTicks": 10,
            "midi": 38,
            "name": "D2",
            "ticks": 5256,
            "time": 15.190715999999997,
            "velocity": 0.9921259842519685
          },
          {
            "duration": 0.04335249999999924,
            "durationTicks": 15,
            "midi": 38,
            "name": "D2",
            "ticks": 5276,
            "time": 15.248519333333332,
            "velocity": 0.9448818897637795
          },
          {
            "duration": 0.04335249999999924,
            "durationTicks": 15,
            "midi": 38,
            "name": "D2",
            "ticks": 5390,
            "time": 15.577998333333332,
            "velocity": 1
          },
          {
            "duration": 0.03179183333333491,
            "durationTicks": 11,
            "midi": 38,
            "name": "D2",
            "ticks": 5518,
            "time": 15.947939666666665,
            "velocity": 1
          },
          {
            "duration": 0.9046221666666661,
            "durationTicks": 313,
            "midi": 57,
            "name": "A3",
            "ticks": 5770,
            "time": 16.676261666666665,
            "velocity": 1
          },
          {
            "duration": 0.03757216666666707,
            "durationTicks": 13,
            "midi": 38,
            "name": "D2",
            "ticks": 6001,
            "time": 17.343890166666664,
            "velocity": 0.9921259842519685
          },
          {
            "duration": 0.03179183333333313,
            "durationTicks": 11,
            "midi": 38,
            "name": "D2",
            "ticks": 6020,
            "time": 17.39880333333333,
            "velocity": 0.5669291338582677
          },
          {
            "duration": 0.03179183333333313,
            "durationTicks": 11,
            "midi": 38,
            "name": "D2",
            "ticks": 6038,
            "time": 17.45082633333333,
            "velocity": 0.6614173228346457
          },
          {
            "duration": 0.03179183333333668,
            "durationTicks": 11,
            "midi": 38,
            "name": "D2",
            "ticks": 6057,
            "time": 17.505739499999997,
            "velocity": 0.7007874015748031
          },
          {
            "duration": 0.020231166666665246,
            "durationTicks": 7,
            "midi": 38,
            "name": "D2",
            "ticks": 6076,
            "time": 17.560652666666666,
            "velocity": 0.5039370078740157
          },
          {
            "duration": 0.0346820000000001,
            "durationTicks": 12,
            "midi": 38,
            "name": "D2",
            "ticks": 6092,
            "time": 17.60689533333333,
            "velocity": 0.9763779527559056
          },
          {
            "duration": 0.03179183333333668,
            "durationTicks": 11,
            "midi": 38,
            "name": "D2",
            "ticks": 6111,
            "time": 17.661808499999996,
            "velocity": 0.7795275590551181
          },
          {
            "duration": 0.0346820000000001,
            "durationTicks": 12,
            "midi": 38,
            "name": "D2",
            "ticks": 6130,
            "time": 17.716721666666665,
            "velocity": 0.9921259842519685
          },
          {
            "duration": 0.0346820000000001,
            "durationTicks": 12,
            "midi": 38,
            "name": "D2",
            "ticks": 6150,
            "time": 17.774524999999997,
            "velocity": 0.6614173228346457
          },
          {
            "duration": 0.0346820000000001,
            "durationTicks": 12,
            "midi": 38,
            "name": "D2",
            "ticks": 6170,
            "time": 17.83232833333333,
            "velocity": 0.7322834645669292
          },
          {
            "duration": 0.0346820000000001,
            "durationTicks": 12,
            "midi": 38,
            "name": "D2",
            "ticks": 6187,
            "time": 17.881461166666664,
            "velocity": 0.8976377952755905
          },
          {
            "duration": 0.03179183333332958,
            "durationTicks": 11,
            "midi": 38,
            "name": "D2",
            "ticks": 6206,
            "time": 17.936374333333333,
            "velocity": 1
          },
          {
            "duration": 0.02890166666666616,
            "durationTicks": 10,
            "midi": 38,
            "name": "D2",
            "ticks": 6225,
            "time": 17.9912875,
            "velocity": 1
          },
          {
            "duration": 0.02890166666666616,
            "durationTicks": 10,
            "midi": 38,
            "name": "D2",
            "ticks": 6245,
            "time": 18.04909083333333,
            "velocity": 0.7559055118110236
          },
          {
            "duration": 0.02890166666666616,
            "durationTicks": 10,
            "midi": 38,
            "name": "D2",
            "ticks": 6362,
            "time": 18.38724033333333,
            "velocity": 0.6062992125984252
          },
          {
            "duration": 0.03757216666666707,
            "durationTicks": 13,
            "midi": 38,
            "name": "D2",
            "ticks": 6480,
            "time": 18.728279999999998,
            "velocity": 1
          },
          {
            "duration": 0.6994203333333324,
            "durationTicks": 242,
            "midi": 57,
            "name": "A3",
            "ticks": 6735,
            "time": 19.465272499999998,
            "velocity": 1
          },
          {
            "duration": 0.0346820000000001,
            "durationTicks": 12,
            "midi": 38,
            "name": "D2",
            "ticks": 6971,
            "time": 20.14735183333333,
            "velocity": 0.7559055118110236
          },
          {
            "duration": 0.0346820000000001,
            "durationTicks": 12,
            "midi": 38,
            "name": "D2",
            "ticks": 6990,
            "time": 20.202264999999997,
            "velocity": 0.5669291338582677
          },
          {
            "duration": 0.0202311666666688,
            "durationTicks": 7,
            "midi": 38,
            "name": "D2",
            "ticks": 7010,
            "time": 20.26006833333333,
            "velocity": 0.5196850393700787
          },
          {
            "duration": 0.03179183333333313,
            "durationTicks": 11,
            "midi": 38,
            "name": "D2",
            "ticks": 7030,
            "time": 20.317871666666665,
            "velocity": 0.6220472440944882
          },
          {
            "duration": 0.017341000000001827,
            "durationTicks": 6,
            "midi": 38,
            "name": "D2",
            "ticks": 7047,
            "time": 20.367004499999997,
            "velocity": 0.6220472440944882
          },
          {
            "duration": 0.03179183333333313,
            "durationTicks": 11,
            "midi": 38,
            "name": "D2",
            "ticks": 7065,
            "time": 20.4190275,
            "velocity": 0.7322834645669292
          },
          {
            "duration": 0.0346820000000001,
            "durationTicks": 12,
            "midi": 38,
            "name": "D2",
            "ticks": 7082,
            "time": 20.46816033333333,
            "velocity": 1
          },
          {
            "duration": 0.03757216666666707,
            "durationTicks": 13,
            "midi": 38,
            "name": "D2",
            "ticks": 7100,
            "time": 20.520183333333332,
            "velocity": 0.9921259842519685
          },
          {
            "duration": 0.03179183333333313,
            "durationTicks": 11,
            "midi": 38,
            "name": "D2",
            "ticks": 7117,
            "time": 20.569316166666663,
            "velocity": 0.7007874015748031
          },
          {
            "duration": 0.07225416666666362,
            "durationTicks": 25,
            "midi": 38,
            "name": "D2",
            "ticks": 7135,
            "time": 20.621339166666665,
            "velocity": 0.7559055118110236
          },
          {
            "duration": 0.03179183333333313,
            "durationTicks": 11,
            "midi": 38,
            "name": "D2",
            "ticks": 7166,
            "time": 20.71093433333333,
            "velocity": 0.7322834645669292
          },
          {
            "duration": 0.023121333333332217,
            "durationTicks": 8,
            "midi": 38,
            "name": "D2",
            "ticks": 7180,
            "time": 20.751396666666665,
            "velocity": 1
          },
          {
            "duration": 0.03757216666666707,
            "durationTicks": 13,
            "midi": 38,
            "name": "D2",
            "ticks": 7201,
            "time": 20.812090166666664,
            "velocity": 1
          },
          {
            "duration": 0.04335249999999746,
            "durationTicks": 15,
            "midi": 38,
            "name": "D2",
            "ticks": 7315,
            "time": 21.141569166666667,
            "velocity": 1
          },
          {
            "duration": 0.05780333333333232,
            "durationTicks": 20,
            "midi": 38,
            "name": "D2",
            "ticks": 7440,
            "time": 21.50284,
            "velocity": 1
          },
          {
            "duration": 0.09537549999999939,
            "durationTicks": 33,
            "midi": 57,
            "name": "A3",
            "ticks": 7682,
            "time": 22.20226033333333,
            "velocity": 1
          },
          {
            "duration": 0.028901666666669712,
            "durationTicks": 10,
            "midi": 38,
            "name": "D2",
            "ticks": 7795,
            "time": 22.528849166666664,
            "velocity": 0.7007874015748031
          },
          {
            "duration": 0.03179183333333313,
            "durationTicks": 11,
            "midi": 38,
            "name": "D2",
            "ticks": 7830,
            "time": 22.630004999999997,
            "velocity": 0.7007874015748031
          },
          {
            "duration": 0.03757216666666707,
            "durationTicks": 13,
            "midi": 38,
            "name": "D2",
            "ticks": 7862,
            "time": 22.72249033333333,
            "velocity": 1
          },
          {
            "duration": 0.03757216666666707,
            "durationTicks": 13,
            "midi": 38,
            "name": "D2",
            "ticks": 7905,
            "time": 22.8467675,
            "velocity": 1
          },
          {
            "duration": 0.023121333333332217,
            "durationTicks": 8,
            "midi": 38,
            "name": "D2",
            "ticks": 8026,
            "time": 23.196477666666667,
            "velocity": 1
          },
          {
            "duration": 0.023121333333339322,
            "durationTicks": 8,
            "midi": 38,
            "name": "D2",
            "ticks": 8275,
            "time": 23.91612916666666,
            "velocity": 0.48031496062992124
          },
          {
            "duration": 0.028901666666662607,
            "durationTicks": 10,
            "midi": 38,
            "name": "D2",
            "ticks": 8311,
            "time": 24.020175166666668,
            "velocity": 0.4566929133858268
          },
          {
            "duration": 0.034682000000003654,
            "durationTicks": 12,
            "midi": 38,
            "name": "D2",
            "ticks": 8348,
            "time": 24.12711133333333,
            "velocity": 0.7007874015748031
          },
          {
            "duration": 0.03757216666666707,
            "durationTicks": 13,
            "midi": 38,
            "name": "D2",
            "ticks": 8396,
            "time": 24.265839333333332,
            "velocity": 0.7322834645669292
          },
          {
            "duration": 0.03757216666666707,
            "durationTicks": 13,
            "midi": 38,
            "name": "D2",
            "ticks": 8516,
            "time": 24.61265933333333,
            "velocity": 0.8031496062992126
          },
          {
            "duration": 0.15317883333333882,
            "durationTicks": 53,
            "midi": 57,
            "name": "A3",
            "ticks": 8637,
            "time": 24.962369499999994,
            "velocity": 1
          },
          {
            "duration": 0.020231166666661693,
            "durationTicks": 7,
            "midi": 38,
            "name": "D2",
            "ticks": 8767,
            "time": 25.338091166666665,
            "velocity": 0.5433070866141733
          },
          {
            "duration": 0.028901666666673265,
            "durationTicks": 10,
            "midi": 38,
            "name": "D2",
            "ticks": 8800,
            "time": 25.43346666666666,
            "velocity": 0.4330708661417323
          },
          {
            "duration": 0.03757216666666707,
            "durationTicks": 13,
            "midi": 38,
            "name": "D2",
            "ticks": 8840,
            "time": 25.549073333333332,
            "velocity": 0.7007874015748031
          },
          {
            "duration": 0.03757216666666707,
            "durationTicks": 13,
            "midi": 38,
            "name": "D2",
            "ticks": 8882,
            "time": 25.67046033333333,
            "velocity": 1
          },
          {
            "duration": 0.04335249999999746,
            "durationTicks": 15,
            "midi": 38,
            "name": "D2",
            "ticks": 8995,
            "time": 25.997049166666663,
            "velocity": 1
          },
          {
            "duration": 0.04624266666667154,
            "durationTicks": 16,
            "midi": 57,
            "name": "A3",
            "ticks": 9002,
            "time": 26.01728033333333,
            "velocity": 1
          },
          {
            "duration": 0.046242666666664434,
            "durationTicks": 16,
            "midi": 38,
            "name": "D2",
            "ticks": 9110,
            "time": 26.329418333333333,
            "velocity": 1
          },
          {
            "duration": 0.05202300000000193,
            "durationTicks": 18,
            "midi": 57,
            "name": "A3",
            "ticks": 9120,
            "time": 26.358319999999996,
            "velocity": 1
          },
          {
            "duration": 0.043352500000001015,
            "durationTicks": 15,
            "midi": 38,
            "name": "D2",
            "ticks": 9230,
            "time": 26.67623833333333,
            "velocity": 1
          },
          {
            "duration": 0.05780333333333587,
            "durationTicks": 20,
            "midi": 57,
            "name": "A3",
            "ticks": 9240,
            "time": 26.705139999999997,
            "velocity": 1
          },
          {
            "duration": 0.043352500000001015,
            "durationTicks": 15,
            "midi": 38,
            "name": "D2",
            "ticks": 9351,
            "time": 27.025948499999995,
            "velocity": 1
          },
          {
            "duration": 0.06358366666666626,
            "durationTicks": 22,
            "midi": 57,
            "name": "A3",
            "ticks": 9357,
            "time": 27.043289499999997,
            "velocity": 1
          },
          {
            "duration": 0.03757216666666707,
            "durationTicks": 13,
            "midi": 38,
            "name": "D2",
            "ticks": 9472,
            "time": 27.375658666666666,
            "velocity": 1
          },
          {
            "duration": 0.06647383333333678,
            "durationTicks": 23,
            "midi": 57,
            "name": "A3",
            "ticks": 9477,
            "time": 27.390109499999994,
            "velocity": 1
          },
          {
            "duration": 0.07225416666666362,
            "durationTicks": 25,
            "midi": 57,
            "name": "A3",
            "ticks": 9601,
            "time": 27.748490166666667,
            "velocity": 1
          },
          {
            "duration": 0.03757216666666707,
            "durationTicks": 13,
            "midi": 38,
            "name": "D2",
            "ticks": 9602,
            "time": 27.75138033333333,
            "velocity": 0.6614173228346457
          },
          {
            "duration": 0.046242666666667986,
            "durationTicks": 16,
            "midi": 38,
            "name": "D2",
            "ticks": 9677,
            "time": 27.96814283333333,
            "velocity": 0.9921259842519685
          },
          {
            "duration": 0.06647383333334034,
            "durationTicks": 23,
            "midi": 57,
            "name": "A3",
            "ticks": 9698,
            "time": 28.028836333333327,
            "velocity": 1
          },
          {
            "duration": 0.04913283333333496,
            "durationTicks": 17,
            "midi": 38,
            "name": "D2",
            "ticks": 9760,
            "time": 28.20802666666666,
            "velocity": 0.8031496062992126
          },
          {
            "duration": 0.06647383333332968,
            "durationTicks": 23,
            "midi": 57,
            "name": "A3",
            "ticks": 9780,
            "time": 28.265829999999998,
            "velocity": 1
          },
          {
            "duration": 0.049132833333331405,
            "durationTicks": 17,
            "midi": 38,
            "name": "D2",
            "ticks": 9840,
            "time": 28.439239999999998,
            "velocity": 1
          },
          {
            "duration": 0.06358366666666981,
            "durationTicks": 22,
            "midi": 57,
            "name": "A3",
            "ticks": 9857,
            "time": 28.48837283333333,
            "velocity": 1
          },
          {
            "duration": 0.049132833333331405,
            "durationTicks": 17,
            "midi": 38,
            "name": "D2",
            "ticks": 9927,
            "time": 28.690684499999996,
            "velocity": 1
          },
          {
            "duration": 0.05780333333333232,
            "durationTicks": 20,
            "midi": 57,
            "name": "A3",
            "ticks": 9932,
            "time": 28.70513533333333,
            "velocity": 1
          },
          {
            "duration": 0.06069349999999929,
            "durationTicks": 21,
            "midi": 57,
            "name": "A3",
            "ticks": 10008,
            "time": 28.924788,
            "velocity": 1
          },
          {
            "duration": 0.04913283333333496,
            "durationTicks": 17,
            "midi": 38,
            "name": "D2",
            "ticks": 10012,
            "time": 28.936348666666664,
            "velocity": 1
          },
          {
            "duration": 0.06358366666666271,
            "durationTicks": 22,
            "midi": 57,
            "name": "A3",
            "ticks": 10087,
            "time": 29.153111166666665,
            "velocity": 1
          },
          {
            "duration": 0.046242666666667986,
            "durationTicks": 16,
            "midi": 38,
            "name": "D2",
            "ticks": 10088,
            "time": 29.15600133333333,
            "velocity": 1
          },
          {
            "duration": 0.07225416666666717,
            "durationTicks": 25,
            "midi": 57,
            "name": "A3",
            "ticks": 10162,
            "time": 29.369873666666663,
            "velocity": 1
          },
          {
            "duration": 0.046242666666667986,
            "durationTicks": 16,
            "midi": 38,
            "name": "D2",
            "ticks": 10167,
            "time": 29.384324499999995,
            "velocity": 1
          },
          {
            "duration": 0.08092466666666809,
            "durationTicks": 28,
            "midi": 57,
            "name": "A3",
            "ticks": 10240,
            "time": 29.595306666666662,
            "velocity": 1
          },
          {
            "duration": 0.046242666666664434,
            "durationTicks": 16,
            "midi": 38,
            "name": "D2",
            "ticks": 10243,
            "time": 29.603977166666663,
            "velocity": 0.7322834645669292
          },
          {
            "duration": 0.08092466666666454,
            "durationTicks": 28,
            "midi": 57,
            "name": "A3",
            "ticks": 10318,
            "time": 29.820739666666665,
            "velocity": 1
          },
          {
            "duration": 0.046242666666664434,
            "durationTicks": 16,
            "midi": 38,
            "name": "D2",
            "ticks": 10323,
            "time": 29.8351905,
            "velocity": 1
          },
          {
            "duration": 0.08670499999999848,
            "durationTicks": 30,
            "midi": 57,
            "name": "A3",
            "ticks": 10400,
            "time": 30.05773333333333,
            "velocity": 1
          },
          {
            "duration": 0.049132833333331405,
            "durationTicks": 17,
            "midi": 38,
            "name": "D2",
            "ticks": 10405,
            "time": 30.072184166666663,
            "velocity": 1
          },
          {
            "duration": 0.08670499999999848,
            "durationTicks": 30,
            "midi": 57,
            "name": "A3",
            "ticks": 10481,
            "time": 30.29183683333333,
            "velocity": 1
          },
          {
            "duration": 0.05202300000000193,
            "durationTicks": 18,
            "midi": 38,
            "name": "D2",
            "ticks": 10485,
            "time": 30.303397499999996,
            "velocity": 1
          },
          {
            "duration": 0.08092466666666809,
            "durationTicks": 28,
            "midi": 57,
            "name": "A3",
            "ticks": 10568,
            "time": 30.54328133333333,
            "velocity": 1
          },
          {
            "duration": 0.05780333333333232,
            "durationTicks": 20,
            "midi": 38,
            "name": "D2",
            "ticks": 10570,
            "time": 30.549061666666663,
            "velocity": 1
          },
          {
            "duration": 0.09248533333333597,
            "durationTicks": 32,
            "midi": 57,
            "name": "A3",
            "ticks": 11531,
            "time": 33.32651183333333,
            "velocity": 1
          },
          {
            "duration": 0.06069349999999929,
            "durationTicks": 21,
            "midi": 57,
            "name": "A3",
            "ticks": 11765,
            "time": 34.00281083333333,
            "velocity": 1
          },
          {
            "duration": 0.06069349999999929,
            "durationTicks": 21,
            "midi": 57,
            "name": "A3",
            "ticks": 11880,
            "time": 34.335179999999994,
            "velocity": 1
          },
          {
            "duration": 0.08092466666666809,
            "durationTicks": 28,
            "midi": 57,
            "name": "A3",
            "ticks": 11998,
            "time": 34.67621966666666,
            "velocity": 1
          },
          {
            "duration": 0.06647383333333323,
            "durationTicks": 23,
            "midi": 57,
            "name": "A3",
            "ticks": 12235,
            "time": 35.36118916666666,
            "velocity": 1
          },
          {
            "duration": 0.06358366666666626,
            "durationTicks": 22,
            "midi": 57,
            "name": "A3",
            "ticks": 12357,
            "time": 35.7137895,
            "velocity": 1
          },
          {
            "duration": 0.07803449999999401,
            "durationTicks": 27,
            "midi": 57,
            "name": "A3",
            "ticks": 12478,
            "time": 36.063499666666665,
            "velocity": 1
          },
          {
            "duration": 0.08092466666666809,
            "durationTicks": 28,
            "midi": 57,
            "name": "A3",
            "ticks": 12713,
            "time": 36.742688833333325,
            "velocity": 1
          },
          {
            "duration": 0.10404599999999675,
            "durationTicks": 36,
            "midi": 57,
            "name": "A3",
            "ticks": 12948,
            "time": 37.421878,
            "velocity": 1
          },
          {
            "duration": 0.08670500000000203,
            "durationTicks": 30,
            "midi": 57,
            "name": "A3",
            "ticks": 13190,
            "time": 38.12129833333333,
            "velocity": 1
          },
          {
            "duration": 0.089595166666669,
            "durationTicks": 31,
            "midi": 57,
            "name": "A3",
            "ticks": 13431,
            "time": 38.8178285,
            "velocity": 1
          },
          {
            "duration": 0.09248533333333597,
            "durationTicks": 32,
            "midi": 57,
            "name": "A3",
            "ticks": 13673,
            "time": 39.517248833333326,
            "velocity": 1
          },
          {
            "duration": 0.0895951666666619,
            "durationTicks": 31,
            "midi": 57,
            "name": "A3",
            "ticks": 13916,
            "time": 40.21955933333333,
            "velocity": 1
          },
          {
            "duration": 0.07225416666666717,
            "durationTicks": 25,
            "midi": 57,
            "name": "A3",
            "ticks": 14162,
            "time": 40.930540333333326,
            "velocity": 1
          },
          {
            "duration": 0.05780333333333232,
            "durationTicks": 20,
            "midi": 57,
            "name": "A3",
            "ticks": 14285,
            "time": 41.28603083333333,
            "velocity": 1
          },
          {
            "duration": 0.08670500000000203,
            "durationTicks": 30,
            "midi": 57,
            "name": "A3",
            "ticks": 14405,
            "time": 41.63285083333333,
            "velocity": 1
          },
          {
            "duration": 0.08092466666666809,
            "durationTicks": 28,
            "midi": 57,
            "name": "A3",
            "ticks": 14873,
            "time": 42.98544883333333,
            "velocity": 1
          },
          {
            "duration": 0.09248533333333597,
            "durationTicks": 32,
            "midi": 57,
            "name": "A3",
            "ticks": 15355,
            "time": 44.37850916666666,
            "velocity": 1
          },
          {
            "duration": 0.07803450000000822,
            "durationTicks": 27,
            "midi": 57,
            "name": "A3",
            "ticks": 15845,
            "time": 45.79469083333333,
            "velocity": 1
          },
          {
            "duration": 0.11450374999999724,
            "durationTicks": 30,
            "midi": 57,
            "name": "A3",
            "ticks": 16325,
            "time": 47.18660395833333,
            "velocity": 1
          },
          {
            "duration": 0.4312974583333329,
            "durationTicks": 113,
            "midi": 57,
            "name": "A3",
            "ticks": 17292,
            "time": 50.877441499999996,
            "velocity": 1
          },
          {
            "duration": 0.6908392916666628,
            "durationTicks": 181,
            "midi": 57,
            "name": "A3",
            "ticks": 17760,
            "time": 52.6637,
            "velocity": 1
          }
        ],
        "endOfTrackTicks": 17941
      },
      {
        "channel": 0,
        "controlChanges": {
          "1": [
            {
              "number": 1,
              "ticks": 0,
              "time": 0,
              "value": 0
            }
          ],
          "64": [
            {
              "number": 64,
              "ticks": 0,
              "time": 0,
              "value": 0
            }
          ]
        },
        "pitchBends": [
          {
            "ticks": 0,
            "time": 0,
            "value": 0
          }
        ],
        "instrument": {
          "family": "piano",
          "number": 0,
          "name": "acoustic grand piano"
        },
        "name": "",
        "notes": [],
        "endOfTrackTicks": 0
      },
      {
        "channel": 0,
        "controlChanges": {
          "1": [
            {
              "number": 1,
              "ticks": 0,
              "time": 0,
              "value": 0
            }
          ],
          "64": [
            {
              "number": 64,
              "ticks": 0,
              "time": 0,
              "value": 0
            }
          ]
        },
        "pitchBends": [
          {
            "ticks": 0,
            "time": 0,
            "value": 0
          }
        ],
        "instrument": {
          "family": "piano",
          "number": 0,
          "name": "acoustic grand piano"
        },
        "name": "",
        "notes": [],
        "endOfTrackTicks": 0
      },
      {
        "channel": 0,
        "controlChanges": {
          "1": [
            {
              "number": 1,
              "ticks": 0,
              "time": 0,
              "value": 0
            }
          ],
          "64": [
            {
              "number": 64,
              "ticks": 0,
              "time": 0,
              "value": 0
            }
          ]
        },
        "pitchBends": [
          {
            "ticks": 0,
            "time": 0,
            "value": 0
          }
        ],
        "instrument": {
          "family": "piano",
          "number": 0,
          "name": "acoustic grand piano"
        },
        "name": "",
        "notes": [],
        "endOfTrackTicks": 0
      },
      {
        "channel": 0,
        "controlChanges": {
          "1": [
            {
              "number": 1,
              "ticks": 0,
              "time": 0,
              "value": 0
            }
          ],
          "64": [
            {
              "number": 64,
              "ticks": 0,
              "time": 0,
              "value": 0
            }
          ]
        },
        "pitchBends": [
          {
            "ticks": 0,
            "time": 0,
            "value": 0
          }
        ],
        "instrument": {
          "family": "piano",
          "number": 0,
          "name": "acoustic grand piano"
        },
        "name": "",
        "notes": [],
        "endOfTrackTicks": 0
      },
      {
        "channel": 14,
        "controlChanges": {
          "0": [
            {
              "number": 0,
              "ticks": 0,
              "time": 0,
              "value": 0
            }
          ]
        },
        "pitchBends": [],
        "instrument": {
          "family": "sound effects",
          "number": 127,
          "name": "gunshot"
        },
        "name": "",
        "notes": [
          {
            "duration": 0.29768716666666784,
            "durationTicks": 103,
            "midi": 64,
            "name": "E4",
            "ticks": 3840,
            "time": 11.098239999999999,
            "velocity": 1
          },
          {
            "duration": 0.29768716666666784,
            "durationTicks": 103,
            "midi": 59,
            "name": "B3",
            "ticks": 3840,
            "time": 11.098239999999999,
            "velocity": 1
          },
          {
            "duration": 0.29768716666666784,
            "durationTicks": 103,
            "midi": 60,
            "name": "C4",
            "ticks": 3840,
            "time": 11.098239999999999,
            "velocity": 1
          },
          {
            "duration": 0.29768716666666784,
            "durationTicks": 103,
            "midi": 55,
            "name": "G3",
            "ticks": 3840,
            "time": 11.098239999999999,
            "velocity": 1
          },
          {
            "duration": 0.29768716666666784,
            "durationTicks": 103,
            "midi": 67,
            "name": "G4",
            "ticks": 4800,
            "time": 13.872799999999998,
            "velocity": 1
          },
          {
            "duration": 0.29768716666666784,
            "durationTicks": 103,
            "midi": 64,
            "name": "E4",
            "ticks": 4800,
            "time": 13.872799999999998,
            "velocity": 1
          },
          {
            "duration": 0.29768716666666784,
            "durationTicks": 103,
            "midi": 62,
            "name": "D4",
            "ticks": 4800,
            "time": 13.872799999999998,
            "velocity": 1
          },
          {
            "duration": 0.29768716666666784,
            "durationTicks": 103,
            "midi": 57,
            "name": "A3",
            "ticks": 4800,
            "time": 13.872799999999998,
            "velocity": 1
          },
          {
            "duration": 0.29768716666666606,
            "durationTicks": 103,
            "midi": 69,
            "name": "A4",
            "ticks": 5760,
            "time": 16.64736,
            "velocity": 1
          },
          {
            "duration": 0.29768716666666606,
            "durationTicks": 103,
            "midi": 59,
            "name": "B3",
            "ticks": 5760,
            "time": 16.64736,
            "velocity": 1
          },
          {
            "duration": 0.29768716666666606,
            "durationTicks": 103,
            "midi": 64,
            "name": "E4",
            "ticks": 5760,
            "time": 16.64736,
            "velocity": 1
          },
          {
            "duration": 0.2976871666666696,
            "durationTicks": 103,
            "midi": 60,
            "name": "C4",
            "ticks": 6720,
            "time": 19.421919999999997,
            "velocity": 1
          },
          {
            "duration": 0.2976871666666696,
            "durationTicks": 103,
            "midi": 55,
            "name": "G3",
            "ticks": 6720,
            "time": 19.421919999999997,
            "velocity": 1
          },
          {
            "duration": 0.2976871666666696,
            "durationTicks": 103,
            "midi": 59,
            "name": "B3",
            "ticks": 6720,
            "time": 19.421919999999997,
            "velocity": 1
          },
          {
            "duration": 0.29768716666666606,
            "durationTicks": 103,
            "midi": 59,
            "name": "B3",
            "ticks": 7680,
            "time": 22.196479999999998,
            "velocity": 1
          },
          {
            "duration": 0.29768716666666606,
            "durationTicks": 103,
            "midi": 62,
            "name": "D4",
            "ticks": 7680,
            "time": 22.196479999999998,
            "velocity": 1
          },
          {
            "duration": 0.2976871666666696,
            "durationTicks": 103,
            "midi": 57,
            "name": "A3",
            "ticks": 7710,
            "time": 22.283184999999996,
            "velocity": 1
          },
          {
            "duration": 0.29768716666666606,
            "durationTicks": 103,
            "midi": 59,
            "name": "B3",
            "ticks": 8160,
            "time": 23.583759999999998,
            "velocity": 1
          },
          {
            "duration": 0.29768716666666606,
            "durationTicks": 103,
            "midi": 55,
            "name": "G3",
            "ticks": 8160,
            "time": 23.583759999999998,
            "velocity": 1
          },
          {
            "duration": 0.29768716666666606,
            "durationTicks": 103,
            "midi": 59,
            "name": "B3",
            "ticks": 8640,
            "time": 24.97104,
            "velocity": 1
          },
          {
            "duration": 0.29768716666666606,
            "durationTicks": 103,
            "midi": 55,
            "name": "G3",
            "ticks": 8640,
            "time": 24.97104,
            "velocity": 1
          },
          {
            "duration": 0.2976871666666696,
            "durationTicks": 103,
            "midi": 57,
            "name": "A3",
            "ticks": 9120,
            "time": 26.358319999999996,
            "velocity": 1
          },
          {
            "duration": 0.2976871666666696,
            "durationTicks": 103,
            "midi": 59,
            "name": "B3",
            "ticks": 9120,
            "time": 26.358319999999996,
            "velocity": 1
          },
          {
            "duration": 0.2976871666666696,
            "durationTicks": 103,
            "midi": 55,
            "name": "G3",
            "ticks": 9120,
            "time": 26.358319999999996,
            "velocity": 1
          }
        ],
        "endOfTrackTicks": 9223
      },
      {
        "channel": 0,
        "controlChanges": {},
        "pitchBends": [],
        "instrument": {
          "family": "piano",
          "number": 0,
          "name": "acoustic grand piano"
        },
        "name": "",
        "notes": [
          {
            "duration": 0.29768716666666606,
            "durationTicks": 103,
            "midi": 65,
            "name": "F4",
            "ticks": 1440,
            "time": 4.16184,
            "velocity": 0.7874015748031497
          },
          {
            "duration": 0.29768716666666606,
            "durationTicks": 103,
            "midi": 84,
            "name": "C6",
            "ticks": 7680,
            "time": 22.196479999999998,
            "velocity": 0.7874015748031497
          },
          {
            "duration": 0.29768716666666606,
            "durationTicks": 103,
            "midi": 84,
            "name": "C6",
            "ticks": 8670,
            "time": 25.057744999999997,
            "velocity": 0.7874015748031497
          }
        ],
        "endOfTrackTicks": 8773
      },
      {
        "channel": 0,
        "controlChanges": {},
        "pitchBends": [],
        "instrument": {
          "family": "piano",
          "number": 0,
          "name": "acoustic grand piano"
        },
        "name": "",
        "notes": [],
        "endOfTrackTicks": 0
      }
    ]
  }