{
  "header": {
    "keySignatures": [
      {
        "key": "F",
        "scale": "major",
        "ticks": 0
      }
    ],
    "meta": [],
    "name": "",
    "ppq": 480,
    "tempos": [
      {
        "bpm": 40,
        "ticks": 0
      },
      {
        "bpm": 38.000008866668736,
        "ticks": 38372
      },
      {
        "bpm": 35.99999280000144,
        "ticks": 38604
      },
      {
        "bpm": 40,
        "ticks": 38868
      },
      {
        "bpm": 38.99998830000351,
        "ticks": 60816
      },
      {
        "bpm": 36.99999136666868,
        "ticks": 60984
      },
      {
        "bpm": 35.99999280000144,
        "ticks": 61088
      },
      {
        "bpm": 40,
        "ticks": 61232
      },
      {
        "bpm": 38.99998830000351,
        "ticks": 63536
      },
      {
        "bpm": 36.99999136666868,
        "ticks": 63680
      },
      {
        "bpm": 40,
        "ticks": 63824
      },
      {
        "bpm": 38.99998830000351,
        "ticks": 65016
      },
      {
        "bpm": 38.000008866668736,
        "ticks": 65240
      },
      {
        "bpm": 36.99999136666868,
        "ticks": 65752
      },
      {
        "bpm": 40,
        "ticks": 66232
      },
      {
        "bpm": 38.99998830000351,
        "ticks": 84416
      },
      {
        "bpm": 38.000008866668736,
        "ticks": 84544
      },
      {
        "bpm": 36.99999136666868,
        "ticks": 84680
      },
      {
        "bpm": 35.99999280000144,
        "ticks": 84688
      },
      {
        "bpm": 40,
        "ticks": 84952
      },
      {
        "bpm": 38.000008866668736,
        "ticks": 107376
      },
      {
        "bpm": 36.99999136666868,
        "ticks": 107576
      },
      {
        "bpm": 35.99999280000144,
        "ticks": 107776
      },
      {
        "bpm": 40,
        "ticks": 107992
      },
      {
        "bpm": 38.000008866668736,
        "ticks": 130360
      },
      {
        "bpm": 36.99999136666868,
        "ticks": 130600
      },
      {
        "bpm": 34.99999416666764,
        "ticks": 130800
      },
      {
        "bpm": 40.99998975000256,
        "ticks": 131216
      },
      {
        "bpm": 40,
        "ticks": 138240
      },
      {
        "bpm": 38.99998830000351,
        "ticks": 140488
      },
      {
        "bpm": 36.99999136666868,
        "ticks": 140744
      },
      {
        "bpm": 35.99999280000144,
        "ticks": 140936
      },
      {
        "bpm": 40,
        "ticks": 141120
      },
      {
        "bpm": 38.000008866668736,
        "ticks": 142088
      },
      {
        "bpm": 36.99999136666868,
        "ticks": 142232
      },
      {
        "bpm": 40,
        "ticks": 142480
      },
      {
        "bpm": 38.000008866668736,
        "ticks": 143440
      },
      {
        "bpm": 34.99999416666764,
        "ticks": 143680
      },
      {
        "bpm": 32,
        "ticks": 144008
      },
      {
        "bpm": 28.000001866666793,
        "ticks": 144160
      }
    ],
    "timeSignatures": [
      {
        "ticks": 0,
        "timeSignature": [
          3,
          4
        ],
        "measures": 0
      }
    ]
  },
  "tracks": [
    {
      "channel": 0,
      "controlChanges": {},
      "pitchBends": [],
      "instrument": {
        "family": "piano",
        "number": 0,
        "name": "acoustic grand piano"
      },
      "name": "Flauti",
      "notes": [],
      "endOfTrackTicks": 145440
    },
    {
      "channel": 0,
      "controlChanges": {
        "7": [
          {
            "number": 7,
            "ticks": 0,
            "time": 0,
            "value": 0.6692913385826772
          }
        ],
        "10": [
          {
            "number": 10,
            "ticks": 0,
            "time": 0,
            "value": 0.6299212598425197
          }
        ]
      },
      "pitchBends": [],
      "instrument": {
        "family": "pipe",
        "number": 73,
        "name": "flute"
      },
      "name": "",
      "notes": [
        {
          "duration": 0.5,
          "durationTicks": 160,
          "midi": 82,
          "name": "A#5",
          "ticks": 1920,
          "time": 6,
          "velocity": 0.41732283464566927
        },
        {
          "duration": 0.5,
          "durationTicks": 160,
          "midi": 84,
          "name": "C6",
          "ticks": 4800,
          "time": 15,
          "velocity": 0.41732283464566927
        },
        {
          "duration": 1.8624999999999972,
          "durationTicks": 596,
          "midi": 81,
          "name": "A5",
          "ticks": 11520,
          "time": 36,
          "velocity": 0.4330708661417323
        },
        {
          "duration": 0.1875,
          "durationTicks": 60,
          "midi": 82,
          "name": "A#5",
          "ticks": 12120,
          "time": 37.875,
          "velocity": 0.4330708661417323
        },
        {
          "duration": 0.1875,
          "durationTicks": 60,
          "midi": 81,
          "name": "A5",
          "ticks": 12180,
          "time": 38.0625,
          "velocity": 0.4330708661417323
        },
        {
          "duration": 0.1875,
          "durationTicks": 60,
          "midi": 80,
          "name": "G#5",
          "ticks": 12240,
          "time": 38.25,
          "velocity": 0.4330708661417323
        },
        {
          "duration": 0.1875,
          "durationTicks": 60,
          "midi": 81,
          "name": "A5",
          "ticks": 12300,
          "time": 38.4375,
          "velocity": 0.4330708661417323
        },
        {
          "duration": 0.1875,
          "durationTicks": 60,
          "midi": 80,
          "name": "G#5",
          "ticks": 12360,
          "time": 38.625,
          "velocity": 0.4330708661417323
        },
        {
          "duration": 0.1875,
          "durationTicks": 60,
          "midi": 81,
          "name": "A5",
          "ticks": 12420,
          "time": 38.8125,
          "velocity": 0.4330708661417323
        },
        {
          "duration": 0.375,
          "durationTicks": 120,
          "midi": 84,
          "name": "C6",
          "ticks": 12480,
          "time": 39,
          "velocity": 0.4330708661417323
        },
        {
          "duration": 0.375,
          "durationTicks": 120,
          "midi": 82,
          "name": "A#5",
          "ticks": 12600,
          "time": 39.375,
          "velocity": 0.4330708661417323
        },
        {
          "duration": 0.375,
          "durationTicks": 120,
          "midi": 81,
          "name": "A5",
          "ticks": 12720,
          "time": 39.75,
          "velocity": 0.4330708661417323
        },
        {
          "duration": 0.375,
          "durationTicks": 120,
          "midi": 79,
          "name": "G5",
          "ticks": 12840,
          "time": 40.125,
          "velocity": 0.4330708661417323
        },
        {
          "duration": 0.5625,
          "durationTicks": 180,
          "midi": 84,
          "name": "C6",
          "ticks": 12960,
          "time": 40.5,
          "velocity": 0.4330708661417323
        },
        {
          "duration": 0.17499999999999716,
          "durationTicks": 56,
          "midi": 81,
          "name": "A5",
          "ticks": 13140,
          "time": 41.0625,
          "velocity": 0.4330708661417323
        },
        {
          "duration": 1.4874999999999972,
          "durationTicks": 476,
          "midi": 77,
          "name": "F5",
          "ticks": 13200,
          "time": 41.25,
          "velocity": 0.4330708661417323
        },
        {
          "duration": 0.36249999999999716,
          "durationTicks": 116,
          "midi": 79,
          "name": "G5",
          "ticks": 13680,
          "time": 42.75,
          "velocity": 0.4330708661417323
        },
        {
          "duration": 0.3125,
          "durationTicks": 100,
          "midi": 81,
          "name": "A5",
          "ticks": 13800,
          "time": 43.125,
          "velocity": 0.4330708661417323
        },
        {
          "duration": 0.375,
          "durationTicks": 120,
          "midi": 81,
          "name": "A5",
          "ticks": 13920,
          "time": 43.5,
          "velocity": 0.4330708661417323
        },
        {
          "duration": 0.375,
          "durationTicks": 120,
          "midi": 79,
          "name": "G5",
          "ticks": 14040,
          "time": 43.875,
          "velocity": 0.4330708661417323
        },
        {
          "duration": 0.375,
          "durationTicks": 120,
          "midi": 77,
          "name": "F5",
          "ticks": 14160,
          "time": 44.25,
          "velocity": 0.4330708661417323
        },
        {
          "duration": 0.375,
          "durationTicks": 120,
          "midi": 76,
          "name": "E5",
          "ticks": 14280,
          "time": 44.625,
          "velocity": 0.4330708661417323
        },
        {
          "duration": 1.5,
          "durationTicks": 480,
          "midi": 77,
          "name": "F5",
          "ticks": 14400,
          "time": 45,
          "velocity": 0.4330708661417323
        },
        {
          "duration": 4.5,
          "durationTicks": 1440,
          "midi": 84,
          "name": "C6",
          "ticks": 25920,
          "time": 81,
          "velocity": 0.4330708661417323
        },
        {
          "duration": 1.5,
          "durationTicks": 480,
          "midi": 80,
          "name": "G#5",
          "ticks": 27360,
          "time": 85.5,
          "velocity": 0.4015748031496063
        },
        {
          "duration": 4.5,
          "durationTicks": 1440,
          "midi": 86,
          "name": "D6",
          "ticks": 28800,
          "time": 90,
          "velocity": 0.4330708661417323
        },
        {
          "duration": 1.5,
          "durationTicks": 480,
          "midi": 84,
          "name": "C6",
          "ticks": 30240,
          "time": 94.5,
          "velocity": 0.4330708661417323
        },
        {
          "duration": 0.75,
          "durationTicks": 240,
          "midi": 72,
          "name": "C5",
          "ticks": 30960,
          "time": 96.75,
          "velocity": 0.4330708661417323
        },
        {
          "duration": 0.75,
          "durationTicks": 240,
          "midi": 75,
          "name": "D#5",
          "ticks": 31200,
          "time": 97.5,
          "velocity": 0.4330708661417323
        },
        {
          "duration": 0.75,
          "durationTicks": 240,
          "midi": 79,
          "name": "G5",
          "ticks": 31440,
          "time": 98.25,
          "velocity": 0.4330708661417323
        },
        {
          "duration": 3,
          "durationTicks": 960,
          "midi": 84,
          "name": "C6",
          "ticks": 31680,
          "time": 99,
          "velocity": 0.5354330708661418
        },
        {
          "duration": 1.5,
          "durationTicks": 480,
          "midi": 85,
          "name": "C#6",
          "ticks": 32640,
          "time": 102,
          "velocity": 0.5354330708661418
        },
        {
          "duration": 1.5,
          "durationTicks": 480,
          "midi": 86,
          "name": "D6",
          "ticks": 33120,
          "time": 103.5,
          "velocity": 0.44881889763779526
        },
        {
          "duration": 1.5,
          "durationTicks": 480,
          "midi": 87,
          "name": "D#6",
          "ticks": 33600,
          "time": 105,
          "velocity": 0.5354330708661418
        },
        {
          "duration": 3,
          "durationTicks": 960,
          "midi": 88,
          "name": "E6",
          "ticks": 34080,
          "time": 106.5,
          "velocity": 0.44881889763779526
        },
        {
          "duration": 1.5,
          "durationTicks": 480,
          "midi": 89,
          "name": "F6",
          "ticks": 35040,
          "time": 109.5,
          "velocity": 0.44881889763779526
        },
        {
          "duration": 1.5,
          "durationTicks": 480,
          "midi": 89,
          "name": "F6",
          "ticks": 35520,
          "time": 111,
          "velocity": 0.5354330708661418
        },
        {
          "duration": 1.5,
          "durationTicks": 480,
          "midi": 90,
          "name": "F#6",
          "ticks": 36000,
          "time": 112.5,
          "velocity": 0.44881889763779526
        },
        {
          "duration": 1.5,
          "durationTicks": 480,
          "midi": 84,
          "name": "C6",
          "ticks": 36480,
          "time": 114,
          "velocity": 0.44881889763779526
        },
        {
          "duration": 1.5,
          "durationTicks": 480,
          "midi": 78,
          "name": "F#5",
          "ticks": 36960,
          "time": 115.5,
          "velocity": 0.44881889763779526
        },
        {
          "duration": 1.5,
          "durationTicks": 480,
          "midi": 78,
          "name": "F#5",
          "ticks": 37440,
          "time": 117,
          "velocity": 0.41732283464566927
        },
        {
          "duration": 0.75,
          "durationTicks": 240,
          "midi": 79,
          "name": "G5",
          "ticks": 37920,
          "time": 118.5,
          "velocity": 0.41732283464566927
        },
        {
          "duration": 0.7125000000000057,
          "durationTicks": 228,
          "midi": 79,
          "name": "G5",
          "ticks": 41040,
          "time": 128.37982456666666,
          "velocity": 0.30708661417322836
        },
        {
          "duration": 0.7249999999999943,
          "durationTicks": 232,
          "midi": 79,
          "name": "G5",
          "ticks": 41280,
          "time": 129.12982456666666,
          "velocity": 0.30708661417322836
        },
        {
          "duration": 0.7249999999999943,
          "durationTicks": 232,
          "midi": 79,
          "name": "G5",
          "ticks": 41520,
          "time": 129.87982456666666,
          "velocity": 0.30708661417322836
        },
        {
          "duration": 6,
          "durationTicks": 1920,
          "midi": 79,
          "name": "G5",
          "ticks": 41760,
          "time": 130.62982456666666,
          "velocity": 0.30708661417322836
        },
        {
          "duration": 0.7375000000000114,
          "durationTicks": 236,
          "midi": 84,
          "name": "C6",
          "ticks": 43920,
          "time": 137.37982456666666,
          "velocity": 0.30708661417322836
        },
        {
          "duration": 0.7375000000000114,
          "durationTicks": 236,
          "midi": 84,
          "name": "C6",
          "ticks": 44160,
          "time": 138.12982456666666,
          "velocity": 0.30708661417322836
        },
        {
          "duration": 0.7375000000000114,
          "durationTicks": 236,
          "midi": 84,
          "name": "C6",
          "ticks": 44400,
          "time": 138.87982456666666,
          "velocity": 0.30708661417322836
        },
        {
          "duration": 0.25,
          "durationTicks": 80,
          "midi": 87,
          "name": "D#6",
          "ticks": 49520,
          "time": 154.87982456666666,
          "velocity": 0.3937007874015748
        },
        {
          "duration": 0.16249999999999432,
          "durationTicks": 52,
          "midi": 86,
          "name": "D6",
          "ticks": 49600,
          "time": 155.12982456666666,
          "velocity": 0.3937007874015748
        },
        {
          "duration": 0.21250000000000568,
          "durationTicks": 68,
          "midi": 86,
          "name": "D6",
          "ticks": 49680,
          "time": 155.37982456666666,
          "velocity": 0.3937007874015748
        },
        {
          "duration": 0.21250000000000568,
          "durationTicks": 68,
          "midi": 86,
          "name": "D6",
          "ticks": 49760,
          "time": 155.62982456666666,
          "velocity": 0.3937007874015748
        },
        {
          "duration": 0.21250000000000568,
          "durationTicks": 68,
          "midi": 86,
          "name": "D6",
          "ticks": 49840,
          "time": 155.87982456666666,
          "velocity": 0.3937007874015748
        },
        {
          "duration": 0.7375000000000114,
          "durationTicks": 236,
          "midi": 86,
          "name": "D6",
          "ticks": 49920,
          "time": 156.12982456666666,
          "velocity": 0.3937007874015748
        },
        {
          "duration": 0.7375000000000114,
          "durationTicks": 236,
          "midi": 79,
          "name": "G5",
          "ticks": 50160,
          "time": 156.87982456666666,
          "velocity": 0.3937007874015748
        },
        {
          "duration": 0.25,
          "durationTicks": 80,
          "midi": 85,
          "name": "C#6",
          "ticks": 50480,
          "time": 157.87982456666666,
          "velocity": 0.3937007874015748
        },
        {
          "duration": 0.16249999999999432,
          "durationTicks": 52,
          "midi": 84,
          "name": "C6",
          "ticks": 50560,
          "time": 158.12982456666666,
          "velocity": 0.3937007874015748
        },
        {
          "duration": 0.21250000000000568,
          "durationTicks": 68,
          "midi": 84,
          "name": "C6",
          "ticks": 50640,
          "time": 158.37982456666666,
          "velocity": 0.3937007874015748
        },
        {
          "duration": 0.21250000000000568,
          "durationTicks": 68,
          "midi": 84,
          "name": "C6",
          "ticks": 50720,
          "time": 158.62982456666666,
          "velocity": 0.3937007874015748
        },
        {
          "duration": 0.21250000000000568,
          "durationTicks": 68,
          "midi": 84,
          "name": "C6",
          "ticks": 50800,
          "time": 158.87982456666666,
          "velocity": 0.3937007874015748
        },
        {
          "duration": 0.7375000000000114,
          "durationTicks": 236,
          "midi": 84,
          "name": "C6",
          "ticks": 50880,
          "time": 159.12982456666666,
          "velocity": 0.3937007874015748
        },
        {
          "duration": 0.7375000000000114,
          "durationTicks": 236,
          "midi": 77,
          "name": "F5",
          "ticks": 51120,
          "time": 159.87982456666666,
          "velocity": 0.3937007874015748
        },
        {
          "duration": 0.75,
          "durationTicks": 240,
          "midi": 85,
          "name": "C#6",
          "ticks": 52804,
          "time": 165.14232456666667,
          "velocity": 0.4251968503937008
        },
        {
          "duration": 0.75,
          "durationTicks": 240,
          "midi": 86,
          "name": "D6",
          "ticks": 53040,
          "time": 165.87982456666666,
          "velocity": 0.4409448818897638
        },
        {
          "duration": 0.75,
          "durationTicks": 240,
          "midi": 88,
          "name": "E6",
          "ticks": 53280,
          "time": 166.62982456666666,
          "velocity": 0.5118110236220472
        },
        {
          "duration": 0.75,
          "durationTicks": 240,
          "midi": 89,
          "name": "F6",
          "ticks": 53496,
          "time": 167.30482456666667,
          "velocity": 0.4409448818897638
        },
        {
          "duration": 0.75,
          "durationTicks": 240,
          "midi": 88,
          "name": "E6",
          "ticks": 53740,
          "time": 168.06732456666666,
          "velocity": 0.4409448818897638
        },
        {
          "duration": 0.6999999999999886,
          "durationTicks": 224,
          "midi": 86,
          "name": "D6",
          "ticks": 53996,
          "time": 168.86732456666667,
          "velocity": 0.4409448818897638
        },
        {
          "duration": 0.700000000000017,
          "durationTicks": 224,
          "midi": 84,
          "name": "C6",
          "ticks": 54240,
          "time": 169.62982456666666,
          "velocity": 0.4409448818897638
        },
        {
          "duration": 0.6999999999999886,
          "durationTicks": 224,
          "midi": 83,
          "name": "B5",
          "ticks": 54476,
          "time": 170.36732456666667,
          "velocity": 0.4409448818897638
        },
        {
          "duration": 1.5,
          "durationTicks": 480,
          "midi": 84,
          "name": "C6",
          "ticks": 54720,
          "time": 171.12982456666666,
          "velocity": 0.4409448818897638
        },
        {
          "duration": 0.75,
          "durationTicks": 240,
          "midi": 88,
          "name": "E6",
          "ticks": 56400,
          "time": 176.37982456666666,
          "velocity": 0.4094488188976378
        },
        {
          "duration": 0.75,
          "durationTicks": 240,
          "midi": 84,
          "name": "C6",
          "ticks": 56640,
          "time": 177.12982456666666,
          "velocity": 0.4094488188976378
        },
        {
          "duration": 1.0000000000000284,
          "durationTicks": 320,
          "midi": 79,
          "name": "G5",
          "ticks": 56880,
          "time": 177.87982456666666,
          "velocity": 0.4094488188976378
        },
        {
          "duration": 0.24999999999997158,
          "durationTicks": 80,
          "midi": 78,
          "name": "F#5",
          "ticks": 57200,
          "time": 178.87982456666668,
          "velocity": 0.4094488188976378
        },
        {
          "duration": 0.25,
          "durationTicks": 80,
          "midi": 79,
          "name": "G5",
          "ticks": 57280,
          "time": 179.12982456666666,
          "velocity": 0.4094488188976378
        },
        {
          "duration": 0.2500000000000284,
          "durationTicks": 80,
          "midi": 80,
          "name": "G#5",
          "ticks": 57360,
          "time": 179.37982456666666,
          "velocity": 0.4094488188976378
        },
        {
          "duration": 0.24999999999997158,
          "durationTicks": 80,
          "midi": 81,
          "name": "A5",
          "ticks": 57440,
          "time": 179.62982456666668,
          "velocity": 0.4094488188976378
        },
        {
          "duration": 0.25,
          "durationTicks": 80,
          "midi": 77,
          "name": "F5",
          "ticks": 57520,
          "time": 179.87982456666666,
          "velocity": 0.4094488188976378
        },
        {
          "duration": 0.75,
          "durationTicks": 240,
          "midi": 76,
          "name": "E5",
          "ticks": 57600,
          "time": 180.12982456666666,
          "velocity": 0.4094488188976378
        },
        {
          "duration": 0.75,
          "durationTicks": 240,
          "midi": 84,
          "name": "C6",
          "ticks": 59280,
          "time": 185.37982456666666,
          "velocity": 0.4094488188976378
        },
        {
          "duration": 0.75,
          "durationTicks": 240,
          "midi": 79,
          "name": "G5",
          "ticks": 59520,
          "time": 186.12982456666666,
          "velocity": 0.4094488188976378
        },
        {
          "duration": 1.0000000000000284,
          "durationTicks": 320,
          "midi": 76,
          "name": "E5",
          "ticks": 59760,
          "time": 186.87982456666666,
          "velocity": 0.4094488188976378
        },
        {
          "duration": 0.24999999999997158,
          "durationTicks": 80,
          "midi": 74,
          "name": "D5",
          "ticks": 60080,
          "time": 187.87982456666668,
          "velocity": 0.4094488188976378
        },
        {
          "duration": 0.25,
          "durationTicks": 80,
          "midi": 76,
          "name": "E5",
          "ticks": 60160,
          "time": 188.12982456666666,
          "velocity": 0.4094488188976378
        },
        {
          "duration": 0.2500000000000284,
          "durationTicks": 80,
          "midi": 79,
          "name": "G5",
          "ticks": 60240,
          "time": 188.37982456666666,
          "velocity": 0.4094488188976378
        },
        {
          "duration": 0.24999999999997158,
          "durationTicks": 80,
          "midi": 77,
          "name": "F5",
          "ticks": 60320,
          "time": 188.62982456666668,
          "velocity": 0.4094488188976378
        },
        {
          "duration": 0.21250000000000568,
          "durationTicks": 68,
          "midi": 74,
          "name": "D5",
          "ticks": 60400,
          "time": 188.87982456666666,
          "velocity": 0.4094488188976378
        },
        {
          "duration": 1.4987180833333582,
          "durationTicks": 476,
          "midi": 74,
          "name": "D5",
          "ticks": 60480,
          "time": 189.12982456666666,
          "velocity": 0.4015748031496063
        },
        {
          "duration": 0.8032746083333393,
          "durationTicks": 236,
          "midi": 72,
          "name": "C5",
          "ticks": 60960,
          "time": 190.64136316666668,
          "velocity": 0.3858267716535433
        },
        {
          "duration": 0.7901847499999803,
          "durationTicks": 240,
          "midi": 69,
          "name": "A4",
          "ticks": 65520,
          "time": 205.08166434999998,
          "velocity": 0.41732283464566927
        },
        {
          "duration": 0.8108110000000011,
          "durationTicks": 240,
          "midi": 73,
          "name": "C#5",
          "ticks": 65760,
          "time": 205.87184909999996,
          "velocity": 0.4330708661417323
        },
        {
          "duration": 0.808783966666681,
          "durationTicks": 240,
          "midi": 76,
          "name": "E5",
          "ticks": 66000,
          "time": 206.68266009999996,
          "velocity": 0.4409448818897638
        },
        {
          "duration": 4.5,
          "durationTicks": 1440,
          "midi": 81,
          "name": "A5",
          "ticks": 66240,
          "time": 207.49144406666665,
          "velocity": 0.5354330708661418
        },
        {
          "duration": 1.5,
          "durationTicks": 480,
          "midi": 79,
          "name": "G5",
          "ticks": 67680,
          "time": 211.99144406666665,
          "velocity": 0.4251968503937008
        },
        {
          "duration": 0.75,
          "durationTicks": 240,
          "midi": 70,
          "name": "A#4",
          "ticks": 68400,
          "time": 214.24144406666665,
          "velocity": 0.41732283464566927
        },
        {
          "duration": 0.75,
          "durationTicks": 240,
          "midi": 76,
          "name": "E5",
          "ticks": 68640,
          "time": 214.99144406666665,
          "velocity": 0.41732283464566927
        },
        {
          "duration": 0.75,
          "durationTicks": 240,
          "midi": 79,
          "name": "G5",
          "ticks": 68880,
          "time": 215.74144406666665,
          "velocity": 0.41732283464566927
        },
        {
          "duration": 4.5,
          "durationTicks": 1440,
          "midi": 82,
          "name": "A#5",
          "ticks": 69120,
          "time": 216.49144406666665,
          "velocity": 0.5354330708661418
        },
        {
          "duration": 1.5,
          "durationTicks": 480,
          "midi": 81,
          "name": "A5",
          "ticks": 70560,
          "time": 220.99144406666665,
          "velocity": 0.4251968503937008
        },
        {
          "duration": 0.75,
          "durationTicks": 240,
          "midi": 75,
          "name": "D#5",
          "ticks": 71280,
          "time": 223.24144406666665,
          "velocity": 0.41732283464566927
        },
        {
          "duration": 0.75,
          "durationTicks": 240,
          "midi": 81,
          "name": "A5",
          "ticks": 71520,
          "time": 223.99144406666665,
          "velocity": 0.41732283464566927
        },
        {
          "duration": 0.75,
          "durationTicks": 240,
          "midi": 84,
          "name": "C6",
          "ticks": 71760,
          "time": 224.74144406666665,
          "velocity": 0.41732283464566927
        },
        {
          "duration": 4.5,
          "durationTicks": 1440,
          "midi": 87,
          "name": "D#6",
          "ticks": 72000,
          "time": 225.49144406666665,
          "velocity": 0.5354330708661418
        },
        {
          "duration": 1.4625000000000057,
          "durationTicks": 468,
          "midi": 85,
          "name": "C#6",
          "ticks": 73440,
          "time": 229.99144406666665,
          "velocity": 0.5354330708661418
        },
        {
          "duration": 1.5,
          "durationTicks": 480,
          "midi": 84,
          "name": "C6",
          "ticks": 73920,
          "time": 231.49144406666665,
          "velocity": 0.5354330708661418
        },
        {
          "duration": 3,
          "durationTicks": 960,
          "midi": 89,
          "name": "F6",
          "ticks": 74400,
          "time": 232.99144406666665,
          "velocity": 0.5354330708661418
        },
        {
          "duration": 1.4625000000000057,
          "durationTicks": 468,
          "midi": 87,
          "name": "D#6",
          "ticks": 75360,
          "time": 235.99144406666665,
          "velocity": 0.5354330708661418
        },
        {
          "duration": 1.5,
          "durationTicks": 480,
          "midi": 86,
          "name": "D6",
          "ticks": 75840,
          "time": 237.49144406666665,
          "velocity": 0.5354330708661418
        },
        {
          "duration": 3,
          "durationTicks": 960,
          "midi": 91,
          "name": "G6",
          "ticks": 76320,
          "time": 238.99144406666665,
          "velocity": 0.5354330708661418
        },
        {
          "duration": 3,
          "durationTicks": 960,
          "midi": 89,
          "name": "F6",
          "ticks": 77280,
          "time": 241.99144406666665,
          "velocity": 0.5354330708661418
        },
        {
          "duration": 1.5,
          "durationTicks": 480,
          "midi": 87,
          "name": "D#6",
          "ticks": 78240,
          "time": 244.99144406666665,
          "velocity": 0.5354330708661418
        },
        {
          "duration": 1.5,
          "durationTicks": 480,
          "midi": 86,
          "name": "D6",
          "ticks": 78720,
          "time": 246.49144406666665,
          "velocity": 0.5354330708661418
        },
        {
          "duration": 0.75,
          "durationTicks": 240,
          "midi": 85,
          "name": "C#6",
          "ticks": 79200,
          "time": 247.99144406666665,
          "velocity": 0.5354330708661418
        },
        {
          "duration": 0.25,
          "durationTicks": 80,
          "midi": 81,
          "name": "A5",
          "ticks": 82080,
          "time": 256.99144406666665,
          "velocity": 0.4330708661417323
        },
        {
          "duration": 0.25,
          "durationTicks": 80,
          "midi": 80,
          "name": "G#5",
          "ticks": 82160,
          "time": 257.24144406666665,
          "velocity": 0.4330708661417323
        },
        {
          "duration": 0.25,
          "durationTicks": 80,
          "midi": 81,
          "name": "A5",
          "ticks": 82240,
          "time": 257.49144406666665,
          "velocity": 0.4330708661417323
        },
        {
          "duration": 0.25,
          "durationTicks": 80,
          "midi": 85,
          "name": "C#6",
          "ticks": 82320,
          "time": 257.74144406666665,
          "velocity": 0.4330708661417323
        },
        {
          "duration": 0.25,
          "durationTicks": 80,
          "midi": 83,
          "name": "B5",
          "ticks": 82400,
          "time": 257.99144406666665,
          "velocity": 0.4330708661417323
        },
        {
          "duration": 0.19999999999998863,
          "durationTicks": 64,
          "midi": 81,
          "name": "A5",
          "ticks": 82480,
          "time": 258.24144406666665,
          "velocity": 0.4330708661417323
        },
        {
          "duration": 0.25,
          "durationTicks": 80,
          "midi": 86,
          "name": "D6",
          "ticks": 82560,
          "time": 258.49144406666665,
          "velocity": 0.4330708661417323
        },
        {
          "duration": 0.25,
          "durationTicks": 80,
          "midi": 85,
          "name": "C#6",
          "ticks": 82640,
          "time": 258.74144406666665,
          "velocity": 0.4330708661417323
        },
        {
          "duration": 0.25,
          "durationTicks": 80,
          "midi": 86,
          "name": "D6",
          "ticks": 82720,
          "time": 258.99144406666665,
          "velocity": 0.4330708661417323
        },
        {
          "duration": 0.25,
          "durationTicks": 80,
          "midi": 89,
          "name": "F6",
          "ticks": 82800,
          "time": 259.24144406666665,
          "velocity": 0.4330708661417323
        },
        {
          "duration": 0.25,
          "durationTicks": 80,
          "midi": 88,
          "name": "E6",
          "ticks": 82880,
          "time": 259.49144406666665,
          "velocity": 0.4330708661417323
        },
        {
          "duration": 0.25,
          "durationTicks": 80,
          "midi": 86,
          "name": "D6",
          "ticks": 82960,
          "time": 259.74144406666665,
          "velocity": 0.4330708661417323
        },
        {
          "duration": 1.5,
          "durationTicks": 480,
          "midi": 85,
          "name": "C#6",
          "ticks": 83040,
          "time": 259.99144406666665,
          "velocity": 0.4330708661417323
        },
        {
          "duration": 0.25,
          "durationTicks": 80,
          "midi": 84,
          "name": "C6",
          "ticks": 83520,
          "time": 261.49144406666665,
          "velocity": 0.4330708661417323
        },
        {
          "duration": 0.25,
          "durationTicks": 80,
          "midi": 83,
          "name": "B5",
          "ticks": 83600,
          "time": 261.74144406666665,
          "velocity": 0.4330708661417323
        },
        {
          "duration": 0.25,
          "durationTicks": 80,
          "midi": 84,
          "name": "C6",
          "ticks": 83680,
          "time": 261.99144406666665,
          "velocity": 0.4330708661417323
        },
        {
          "duration": 0.25,
          "durationTicks": 80,
          "midi": 87,
          "name": "D#6",
          "ticks": 83760,
          "time": 262.24144406666665,
          "velocity": 0.4330708661417323
        },
        {
          "duration": 0.25,
          "durationTicks": 80,
          "midi": 86,
          "name": "D6",
          "ticks": 83840,
          "time": 262.49144406666665,
          "velocity": 0.4330708661417323
        },
        {
          "duration": 0.25,
          "durationTicks": 80,
          "midi": 84,
          "name": "C6",
          "ticks": 83920,
          "time": 262.74144406666665,
          "velocity": 0.4330708661417323
        },
        {
          "duration": 1.505128266666702,
          "durationTicks": 480,
          "midi": 83,
          "name": "B5",
          "ticks": 84000,
          "time": 262.99144406666665,
          "velocity": 0.4330708661417323
        },
        {
          "duration": 0.2577598333332958,
          "durationTicks": 80,
          "midi": 82,
          "name": "A#5",
          "ticks": 84480,
          "time": 264.49657233333335,
          "velocity": 0.4330708661417323
        },
        {
          "duration": 0.2631578333333664,
          "durationTicks": 80,
          "midi": 81,
          "name": "A5",
          "ticks": 84560,
          "time": 264.75433216666664,
          "velocity": 0.4330708661417323
        },
        {
          "duration": 0.2697170833333189,
          "durationTicks": 80,
          "midi": 82,
          "name": "A#5",
          "ticks": 84640,
          "time": 265.01749,
          "velocity": 0.4330708661417323
        },
        {
          "duration": 0.2777778333333458,
          "durationTicks": 80,
          "midi": 86,
          "name": "D6",
          "ticks": 84720,
          "time": 265.2872070833333,
          "velocity": 0.4330708661417323
        },
        {
          "duration": 0.277777833333289,
          "durationTicks": 80,
          "midi": 84,
          "name": "C6",
          "ticks": 84800,
          "time": 265.5649849166667,
          "velocity": 0.4330708661417323
        },
        {
          "duration": 0.2750000499999601,
          "durationTicks": 80,
          "midi": 82,
          "name": "A#5",
          "ticks": 84880,
          "time": 265.84276274999996,
          "velocity": 0.4330708661417323
        },
        {
          "duration": 0.75,
          "durationTicks": 240,
          "midi": 81,
          "name": "A5",
          "ticks": 84960,
          "time": 266.1177627999999,
          "velocity": 0.4330708661417323
        },
        {
          "duration": 0.5625,
          "durationTicks": 180,
          "midi": 77,
          "name": "F5",
          "ticks": 95280,
          "time": 298.3677627999999,
          "velocity": 0.48031496062992124
        },
        {
          "duration": 0.1875,
          "durationTicks": 60,
          "midi": 74,
          "name": "D5",
          "ticks": 95460,
          "time": 298.9302627999999,
          "velocity": 0.48031496062992124
        },
        {
          "duration": 0.5250000000000341,
          "durationTicks": 168,
          "midi": 82,
          "name": "A#5",
          "ticks": 95520,
          "time": 299.1177627999999,
          "velocity": 0.48031496062992124
        },
        {
          "duration": 0.5250000000000341,
          "durationTicks": 168,
          "midi": 86,
          "name": "D6",
          "ticks": 95760,
          "time": 299.8677627999999,
          "velocity": 0.48031496062992124
        },
        {
          "duration": 0.5625,
          "durationTicks": 180,
          "midi": 78,
          "name": "F#5",
          "ticks": 96240,
          "time": 301.3677627999999,
          "velocity": 0.48031496062992124
        },
        {
          "duration": 0.1875,
          "durationTicks": 60,
          "midi": 74,
          "name": "D5",
          "ticks": 96420,
          "time": 301.9302627999999,
          "velocity": 0.48031496062992124
        },
        {
          "duration": 0.5250000000000341,
          "durationTicks": 168,
          "midi": 81,
          "name": "A5",
          "ticks": 96480,
          "time": 302.1177627999999,
          "velocity": 0.48031496062992124
        },
        {
          "duration": 0.5250000000000341,
          "durationTicks": 168,
          "midi": 86,
          "name": "D6",
          "ticks": 96720,
          "time": 302.8677627999999,
          "velocity": 0.48031496062992124
        },
        {
          "duration": 0.5625,
          "durationTicks": 180,
          "midi": 79,
          "name": "G5",
          "ticks": 97200,
          "time": 304.3677627999999,
          "velocity": 0.48031496062992124
        },
        {
          "duration": 0.1875,
          "durationTicks": 60,
          "midi": 74,
          "name": "D5",
          "ticks": 97380,
          "time": 304.9302627999999,
          "velocity": 0.48031496062992124
        },
        {
          "duration": 0.5250000000000341,
          "durationTicks": 168,
          "midi": 82,
          "name": "A#5",
          "ticks": 97440,
          "time": 305.1177627999999,
          "velocity": 0.48031496062992124
        },
        {
          "duration": 0.5250000000000341,
          "durationTicks": 168,
          "midi": 86,
          "name": "D6",
          "ticks": 97680,
          "time": 305.8677627999999,
          "velocity": 0.48031496062992124
        },
        {
          "duration": 0.5625,
          "durationTicks": 180,
          "midi": 76,
          "name": "E5",
          "ticks": 98160,
          "time": 307.3677627999999,
          "velocity": 0.48031496062992124
        },
        {
          "duration": 0.1875,
          "durationTicks": 60,
          "midi": 72,
          "name": "C5",
          "ticks": 98340,
          "time": 307.9302627999999,
          "velocity": 0.48031496062992124
        },
        {
          "duration": 0.5250000000000341,
          "durationTicks": 168,
          "midi": 79,
          "name": "G5",
          "ticks": 98400,
          "time": 308.1177627999999,
          "velocity": 0.48031496062992124
        },
        {
          "duration": 0.5250000000000341,
          "durationTicks": 168,
          "midi": 84,
          "name": "C6",
          "ticks": 98640,
          "time": 308.8677627999999,
          "velocity": 0.48031496062992124
        },
        {
          "duration": 0.5625,
          "durationTicks": 180,
          "midi": 77,
          "name": "F5",
          "ticks": 99120,
          "time": 310.3677627999999,
          "velocity": 0.48031496062992124
        },
        {
          "duration": 0.1875,
          "durationTicks": 60,
          "midi": 72,
          "name": "C5",
          "ticks": 99300,
          "time": 310.9302627999999,
          "velocity": 0.48031496062992124
        },
        {
          "duration": 0.5250000000000341,
          "durationTicks": 168,
          "midi": 81,
          "name": "A5",
          "ticks": 99360,
          "time": 311.1177627999999,
          "velocity": 0.48031496062992124
        },
        {
          "duration": 0.5250000000000341,
          "durationTicks": 168,
          "midi": 84,
          "name": "C6",
          "ticks": 99600,
          "time": 311.8677627999999,
          "velocity": 0.41732283464566927
        },
        {
          "duration": 0.5625,
          "durationTicks": 180,
          "midi": 74,
          "name": "D5",
          "ticks": 100080,
          "time": 313.3677627999999,
          "velocity": 0.41732283464566927
        },
        {
          "duration": 0.1875,
          "durationTicks": 60,
          "midi": 71,
          "name": "B4",
          "ticks": 100260,
          "time": 313.9302627999999,
          "velocity": 0.41732283464566927
        },
        {
          "duration": 0.5250000000000341,
          "durationTicks": 168,
          "midi": 77,
          "name": "F5",
          "ticks": 100320,
          "time": 314.1177627999999,
          "velocity": 0.41732283464566927
        },
        {
          "duration": 0.5250000000000341,
          "durationTicks": 168,
          "midi": 83,
          "name": "B5",
          "ticks": 100560,
          "time": 314.8677627999999,
          "velocity": 0.41732283464566927
        },
        {
          "duration": 0.6500000000000341,
          "durationTicks": 208,
          "midi": 84,
          "name": "C6",
          "ticks": 100800,
          "time": 315.6177627999999,
          "velocity": 0.5354330708661418
        },
        {
          "duration": 0.5625,
          "durationTicks": 180,
          "midi": 84,
          "name": "C6",
          "ticks": 101040,
          "time": 316.3677627999999,
          "velocity": 0.5354330708661418
        },
        {
          "duration": 0.1875,
          "durationTicks": 60,
          "midi": 84,
          "name": "C6",
          "ticks": 101220,
          "time": 316.9302627999999,
          "velocity": 0.5354330708661418
        },
        {
          "duration": 0.7000000000000455,
          "durationTicks": 224,
          "midi": 84,
          "name": "C6",
          "ticks": 101280,
          "time": 317.1177627999999,
          "velocity": 0.5354330708661418
        },
        {
          "duration": 0.7000000000000455,
          "durationTicks": 224,
          "midi": 84,
          "name": "C6",
          "ticks": 101520,
          "time": 317.8677627999999,
          "velocity": 0.5354330708661418
        },
        {
          "duration": 0.7000000000000455,
          "durationTicks": 224,
          "midi": 84,
          "name": "C6",
          "ticks": 101760,
          "time": 318.6177627999999,
          "velocity": 0.5354330708661418
        },
        {
          "duration": 0.7000000000000455,
          "durationTicks": 224,
          "midi": 84,
          "name": "C6",
          "ticks": 102000,
          "time": 319.3677627999999,
          "velocity": 0.5354330708661418
        },
        {
          "duration": 0.6500000000000341,
          "durationTicks": 208,
          "midi": 84,
          "name": "C6",
          "ticks": 102240,
          "time": 320.1177627999999,
          "velocity": 0.5354330708661418
        },
        {
          "duration": 0.5625,
          "durationTicks": 180,
          "midi": 84,
          "name": "C6",
          "ticks": 102480,
          "time": 320.8677627999999,
          "velocity": 0.5354330708661418
        },
        {
          "duration": 0.1875,
          "durationTicks": 60,
          "midi": 84,
          "name": "C6",
          "ticks": 102660,
          "time": 321.4302627999999,
          "velocity": 0.5354330708661418
        },
        {
          "duration": 0.7000000000000455,
          "durationTicks": 224,
          "midi": 84,
          "name": "C6",
          "ticks": 102720,
          "time": 321.6177627999999,
          "velocity": 0.5354330708661418
        },
        {
          "duration": 0.7000000000000455,
          "durationTicks": 224,
          "midi": 84,
          "name": "C6",
          "ticks": 102960,
          "time": 322.3677627999999,
          "velocity": 0.5354330708661418
        },
        {
          "duration": 0.7000000000000455,
          "durationTicks": 224,
          "midi": 84,
          "name": "C6",
          "ticks": 103200,
          "time": 323.1177627999999,
          "velocity": 0.5354330708661418
        },
        {
          "duration": 0.7000000000000455,
          "durationTicks": 224,
          "midi": 84,
          "name": "C6",
          "ticks": 103440,
          "time": 323.8677627999999,
          "velocity": 0.5354330708661418
        },
        {
          "duration": 2.25,
          "durationTicks": 720,
          "midi": 84,
          "name": "C6",
          "ticks": 103680,
          "time": 324.6177627999999,
          "velocity": 0.49606299212598426
        },
        {
          "duration": 0.75,
          "durationTicks": 240,
          "midi": 85,
          "name": "C#6",
          "ticks": 104400,
          "time": 326.8677627999999,
          "velocity": 0.41732283464566927
        },
        {
          "duration": 0.75,
          "durationTicks": 240,
          "midi": 84,
          "name": "C6",
          "ticks": 104640,
          "time": 327.6177627999999,
          "velocity": 0.41732283464566927
        },
        {
          "duration": 0.75,
          "durationTicks": 240,
          "midi": 83,
          "name": "B5",
          "ticks": 104880,
          "time": 328.3677627999999,
          "velocity": 0.41732283464566927
        },
        {
          "duration": 2.25,
          "durationTicks": 720,
          "midi": 84,
          "name": "C6",
          "ticks": 105120,
          "time": 329.1177627999999,
          "velocity": 0.49606299212598426
        },
        {
          "duration": 0.75,
          "durationTicks": 240,
          "midi": 85,
          "name": "C#6",
          "ticks": 105840,
          "time": 331.3677627999999,
          "velocity": 0.41732283464566927
        },
        {
          "duration": 0.75,
          "durationTicks": 240,
          "midi": 84,
          "name": "C6",
          "ticks": 106080,
          "time": 332.1177627999999,
          "velocity": 0.41732283464566927
        },
        {
          "duration": 0.75,
          "durationTicks": 240,
          "midi": 83,
          "name": "B5",
          "ticks": 106320,
          "time": 332.8677627999999,
          "velocity": 0.41732283464566927
        },
        {
          "duration": 1.75,
          "durationTicks": 560,
          "midi": 84,
          "name": "C6",
          "ticks": 106560,
          "time": 333.6177627999999,
          "velocity": 0.41732283464566927
        },
        {
          "duration": 0.25,
          "durationTicks": 80,
          "midi": 85,
          "name": "C#6",
          "ticks": 107120,
          "time": 335.3677627999999,
          "velocity": 0.41732283464566927
        },
        {
          "duration": 0.25,
          "durationTicks": 80,
          "midi": 86,
          "name": "D6",
          "ticks": 107200,
          "time": 335.6177627999999,
          "velocity": 0.41732283464566927
        },
        {
          "duration": 0.20000000000004547,
          "durationTicks": 64,
          "midi": 84,
          "name": "C6",
          "ticks": 107280,
          "time": 335.8677627999999,
          "velocity": 0.41732283464566927
        },
        {
          "duration": 0.2078946999999971,
          "durationTicks": 64,
          "midi": 82,
          "name": "A#5",
          "ticks": 107360,
          "time": 336.1177627999999,
          "velocity": 0.41732283464566927
        },
        {
          "duration": 0.2105262666667045,
          "durationTicks": 64,
          "midi": 81,
          "name": "A5",
          "ticks": 107440,
          "time": 336.3782890666666,
          "velocity": 0.41732283464566927
        },
        {
          "duration": 0.21123751666669932,
          "durationTicks": 64,
          "midi": 79,
          "name": "G5",
          "ticks": 107520,
          "time": 336.64144689999995,
          "velocity": 0.41732283464566927
        },
        {
          "duration": 0.21621626666666316,
          "durationTicks": 64,
          "midi": 77,
          "name": "F5",
          "ticks": 107600,
          "time": 336.9067384833333,
          "velocity": 0.41732283464566927
        },
        {
          "duration": 0.21621626666666316,
          "durationTicks": 64,
          "midi": 76,
          "name": "E5",
          "ticks": 107680,
          "time": 337.1770088166666,
          "velocity": 0.41732283464566927
        },
        {
          "duration": 0.27627633333332824,
          "durationTicks": 80,
          "midi": 84,
          "name": "C6",
          "ticks": 107760,
          "time": 337.44727915,
          "velocity": 0.41732283464566927
        },
        {
          "duration": 0.2777778333333458,
          "durationTicks": 80,
          "midi": 82,
          "name": "A#5",
          "ticks": 107840,
          "time": 337.7235554833333,
          "velocity": 0.41732283464566927
        },
        {
          "duration": 0.2750000499999601,
          "durationTicks": 80,
          "midi": 79,
          "name": "G5",
          "ticks": 107920,
          "time": 338.00133331666666,
          "velocity": 0.41732283464566927
        },
        {
          "duration": 1.5,
          "durationTicks": 480,
          "midi": 77,
          "name": "F5",
          "ticks": 108000,
          "time": 338.2763333666666,
          "velocity": 0.3228346456692913
        },
        {
          "duration": 1.5,
          "durationTicks": 480,
          "midi": 79,
          "name": "G5",
          "ticks": 108480,
          "time": 339.7763333666666,
          "velocity": 0.3228346456692913
        },
        {
          "duration": 1.5,
          "durationTicks": 480,
          "midi": 81,
          "name": "A5",
          "ticks": 108960,
          "time": 341.2763333666666,
          "velocity": 0.3228346456692913
        },
        {
          "duration": 1.5,
          "durationTicks": 480,
          "midi": 82,
          "name": "A#5",
          "ticks": 109440,
          "time": 342.7763333666666,
          "velocity": 0.3228346456692913
        },
        {
          "duration": 0.75,
          "durationTicks": 240,
          "midi": 79,
          "name": "G5",
          "ticks": 109920,
          "time": 344.2763333666666,
          "velocity": 0.3228346456692913
        },
        {
          "duration": 1.5,
          "durationTicks": 480,
          "midi": 79,
          "name": "G5",
          "ticks": 110880,
          "time": 347.2763333666666,
          "velocity": 0.3228346456692913
        },
        {
          "duration": 1.5,
          "durationTicks": 480,
          "midi": 81,
          "name": "A5",
          "ticks": 111360,
          "time": 348.7763333666666,
          "velocity": 0.3228346456692913
        },
        {
          "duration": 1.5,
          "durationTicks": 480,
          "midi": 82,
          "name": "A#5",
          "ticks": 111840,
          "time": 350.2763333666666,
          "velocity": 0.3228346456692913
        },
        {
          "duration": 1.5,
          "durationTicks": 480,
          "midi": 84,
          "name": "C6",
          "ticks": 112320,
          "time": 351.7763333666666,
          "velocity": 0.3228346456692913
        },
        {
          "duration": 0.75,
          "durationTicks": 240,
          "midi": 81,
          "name": "A5",
          "ticks": 112800,
          "time": 353.2763333666666,
          "velocity": 0.3228346456692913
        },
        {
          "duration": 0.7250000000000227,
          "durationTicks": 232,
          "midi": 89,
          "name": "F6",
          "ticks": 113040,
          "time": 354.0263333666666,
          "velocity": 0.4015748031496063
        },
        {
          "duration": 0.7250000000000227,
          "durationTicks": 232,
          "midi": 89,
          "name": "F6",
          "ticks": 113280,
          "time": 354.7763333666666,
          "velocity": 0.4015748031496063
        },
        {
          "duration": 0.7250000000000227,
          "durationTicks": 232,
          "midi": 89,
          "name": "F6",
          "ticks": 113520,
          "time": 355.5263333666666,
          "velocity": 0.4015748031496063
        },
        {
          "duration": 1.5,
          "durationTicks": 480,
          "midi": 81,
          "name": "A5",
          "ticks": 117120,
          "time": 366.7763333666666,
          "velocity": 0.4015748031496063
        },
        {
          "duration": 1.5,
          "durationTicks": 480,
          "midi": 79,
          "name": "G5",
          "ticks": 117600,
          "time": 368.2763333666666,
          "velocity": 0.4015748031496063
        },
        {
          "duration": 1.5,
          "durationTicks": 480,
          "midi": 84,
          "name": "C6",
          "ticks": 118080,
          "time": 369.7763333666666,
          "velocity": 0.4015748031496063
        },
        {
          "duration": 1.5,
          "durationTicks": 480,
          "midi": 83,
          "name": "B5",
          "ticks": 118560,
          "time": 371.2763333666666,
          "velocity": 0.4015748031496063
        },
        {
          "duration": 1.5,
          "durationTicks": 480,
          "midi": 82,
          "name": "A#5",
          "ticks": 119040,
          "time": 372.7763333666666,
          "velocity": 0.4015748031496063
        },
        {
          "duration": 1.5,
          "durationTicks": 480,
          "midi": 81,
          "name": "A5",
          "ticks": 119520,
          "time": 374.2763333666666,
          "velocity": 0.4015748031496063
        },
        {
          "duration": 2.25,
          "durationTicks": 720,
          "midi": 82,
          "name": "A#5",
          "ticks": 120000,
          "time": 375.7763333666666,
          "velocity": 0.4015748031496063
        },
        {
          "duration": 0.75,
          "durationTicks": 240,
          "midi": 81,
          "name": "A5",
          "ticks": 120720,
          "time": 378.0263333666666,
          "velocity": 0.4015748031496063
        },
        {
          "duration": 0.75,
          "durationTicks": 240,
          "midi": 82,
          "name": "A#5",
          "ticks": 120960,
          "time": 378.7763333666666,
          "velocity": 0.4015748031496063
        },
        {
          "duration": 0.75,
          "durationTicks": 240,
          "midi": 83,
          "name": "B5",
          "ticks": 121200,
          "time": 379.5263333666666,
          "velocity": 0.4015748031496063
        },
        {
          "duration": 0.75,
          "durationTicks": 240,
          "midi": 85,
          "name": "C#6",
          "ticks": 121440,
          "time": 380.2763333666666,
          "velocity": 0.41732283464566927
        },
        {
          "duration": 0.75,
          "durationTicks": 240,
          "midi": 86,
          "name": "D6",
          "ticks": 121680,
          "time": 381.0263333666666,
          "velocity": 0.4251968503937008
        },
        {
          "duration": 0.75,
          "durationTicks": 240,
          "midi": 88,
          "name": "E6",
          "ticks": 122640,
          "time": 384.0263333666666,
          "velocity": 0.4645669291338583
        },
        {
          "duration": 0.75,
          "durationTicks": 240,
          "midi": 89,
          "name": "F6",
          "ticks": 122880,
          "time": 384.7763333666666,
          "velocity": 0.48031496062992124
        },
        {
          "duration": 0.7000000000000455,
          "durationTicks": 224,
          "midi": 91,
          "name": "G6",
          "ticks": 123120,
          "time": 385.5263333666666,
          "velocity": 0.4881889763779528
        },
        {
          "duration": 0.7000000000000455,
          "durationTicks": 224,
          "midi": 89,
          "name": "F6",
          "ticks": 123360,
          "time": 386.2763333666666,
          "velocity": 0.49606299212598426
        },
        {
          "duration": 0.7000000000000455,
          "durationTicks": 224,
          "midi": 88,
          "name": "E6",
          "ticks": 123600,
          "time": 387.0263333666666,
          "velocity": 0.5039370078740157
        },
        {
          "duration": 1.5,
          "durationTicks": 480,
          "midi": 89,
          "name": "F6",
          "ticks": 123840,
          "time": 387.7763333666666,
          "velocity": 0.4015748031496063
        },
        {
          "duration": 0.75,
          "durationTicks": 240,
          "midi": 84,
          "name": "C6",
          "ticks": 125520,
          "time": 393.0263333666666,
          "velocity": 0.4015748031496063
        },
        {
          "duration": 0.75,
          "durationTicks": 240,
          "midi": 81,
          "name": "A5",
          "ticks": 125760,
          "time": 393.7763333666666,
          "velocity": 0.4015748031496063
        },
        {
          "duration": 1,
          "durationTicks": 320,
          "midi": 77,
          "name": "F5",
          "ticks": 126000,
          "time": 394.5263333666666,
          "velocity": 0.4015748031496063
        },
        {
          "duration": 0.25000000000005684,
          "durationTicks": 80,
          "midi": 76,
          "name": "E5",
          "ticks": 126320,
          "time": 395.5263333666666,
          "velocity": 0.4015748031496063
        },
        {
          "duration": 0.24999999999994316,
          "durationTicks": 80,
          "midi": 79,
          "name": "G5",
          "ticks": 126400,
          "time": 395.7763333666667,
          "velocity": 0.4015748031496063
        },
        {
          "duration": 0.25,
          "durationTicks": 80,
          "midi": 82,
          "name": "A#5",
          "ticks": 126480,
          "time": 396.0263333666666,
          "velocity": 0.4015748031496063
        },
        {
          "duration": 0.25000000000005684,
          "durationTicks": 80,
          "midi": 79,
          "name": "G5",
          "ticks": 126560,
          "time": 396.2763333666666,
          "velocity": 0.4015748031496063
        },
        {
          "duration": 0.24999999999994316,
          "durationTicks": 80,
          "midi": 76,
          "name": "E5",
          "ticks": 126640,
          "time": 396.5263333666667,
          "velocity": 0.4015748031496063
        },
        {
          "duration": 0.75,
          "durationTicks": 240,
          "midi": 77,
          "name": "F5",
          "ticks": 126720,
          "time": 396.7763333666666,
          "velocity": 0.4015748031496063
        },
        {
          "duration": 0.7500000000000568,
          "durationTicks": 240,
          "midi": 89,
          "name": "F6",
          "ticks": 128400,
          "time": 402.0263333666666,
          "velocity": 0.4015748031496063
        },
        {
          "duration": 0.75,
          "durationTicks": 240,
          "midi": 84,
          "name": "C6",
          "ticks": 128640,
          "time": 402.7763333666667,
          "velocity": 0.4015748031496063
        },
        {
          "duration": 0.9999999999999432,
          "durationTicks": 320,
          "midi": 81,
          "name": "A5",
          "ticks": 128880,
          "time": 403.5263333666667,
          "velocity": 0.4015748031496063
        },
        {
          "duration": 0.2125000000000341,
          "durationTicks": 68,
          "midi": 84,
          "name": "C6",
          "ticks": 129200,
          "time": 404.5263333666666,
          "velocity": 0.4015748031496063
        },
        {
          "duration": 0.21249999999997726,
          "durationTicks": 68,
          "midi": 77,
          "name": "F5",
          "ticks": 129280,
          "time": 404.7763333666667,
          "velocity": 0.4015748031496063
        },
        {
          "duration": 0.21249999999997726,
          "durationTicks": 68,
          "midi": 79,
          "name": "G5",
          "ticks": 129360,
          "time": 405.0263333666667,
          "velocity": 0.4015748031496063
        },
        {
          "duration": 0.2125000000000341,
          "durationTicks": 68,
          "midi": 82,
          "name": "A#5",
          "ticks": 129440,
          "time": 405.2763333666666,
          "velocity": 0.4015748031496063
        },
        {
          "duration": 0.21249999999997726,
          "durationTicks": 68,
          "midi": 76,
          "name": "E5",
          "ticks": 129520,
          "time": 405.5263333666667,
          "velocity": 0.4015748031496063
        },
        {
          "duration": 1.5,
          "durationTicks": 480,
          "midi": 79,
          "name": "G5",
          "ticks": 129600,
          "time": 405.7763333666667,
          "velocity": 0.4015748031496063
        },
        {
          "duration": 0.75,
          "durationTicks": 240,
          "midi": 77,
          "name": "F5",
          "ticks": 130080,
          "time": 407.2763333666667,
          "velocity": 0.4015748031496063
        },
        {
          "duration": 0.18292687499996418,
          "durationTicks": 60,
          "midi": 78,
          "name": "F#5",
          "ticks": 133020,
          "time": 416.6021986083333,
          "velocity": 0.3543307086614173
        },
        {
          "duration": 0.18292687500002103,
          "durationTicks": 60,
          "midi": 79,
          "name": "G5",
          "ticks": 133080,
          "time": 416.7851254833333,
          "velocity": 0.3543307086614173
        },
        {
          "duration": 0.18292687500002103,
          "durationTicks": 60,
          "midi": 78,
          "name": "F#5",
          "ticks": 133140,
          "time": 416.9680523583333,
          "velocity": 0.3543307086614173
        },
        {
          "duration": 0.18292687499996418,
          "durationTicks": 60,
          "midi": 79,
          "name": "G5",
          "ticks": 133200,
          "time": 417.1509792333333,
          "velocity": 0.3464566929133858
        },
        {
          "duration": 0.18292687500002103,
          "durationTicks": 60,
          "midi": 81,
          "name": "A5",
          "ticks": 133260,
          "time": 417.3339061083333,
          "velocity": 0.3464566929133858
        },
        {
          "duration": 0.18292687500002103,
          "durationTicks": 60,
          "midi": 82,
          "name": "A#5",
          "ticks": 133320,
          "time": 417.5168329833333,
          "velocity": 0.33858267716535434
        },
        {
          "duration": 0.18292687499996418,
          "durationTicks": 60,
          "midi": 81,
          "name": "A5",
          "ticks": 133380,
          "time": 417.6997598583333,
          "velocity": 0.33858267716535434
        },
        {
          "duration": 0.18292687500002103,
          "durationTicks": 60,
          "midi": 84,
          "name": "C6",
          "ticks": 133440,
          "time": 417.8826867333333,
          "velocity": 0.33070866141732286
        },
        {
          "duration": 0.18292687499996418,
          "durationTicks": 60,
          "midi": 82,
          "name": "A#5",
          "ticks": 133500,
          "time": 418.0656136083333,
          "velocity": 0.3228346456692913
        },
        {
          "duration": 0.18292687500002103,
          "durationTicks": 60,
          "midi": 81,
          "name": "A5",
          "ticks": 133560,
          "time": 418.2485404833333,
          "velocity": 0.3228346456692913
        },
        {
          "duration": 0.18292687500002103,
          "durationTicks": 60,
          "midi": 79,
          "name": "G5",
          "ticks": 133620,
          "time": 418.4314673583333,
          "velocity": 0.31496062992125984
        },
        {
          "duration": 0.18292687499996418,
          "durationTicks": 60,
          "midi": 81,
          "name": "A5",
          "ticks": 133680,
          "time": 418.6143942333333,
          "velocity": 0.31496062992125984
        },
        {
          "duration": 0.18292687500002103,
          "durationTicks": 60,
          "midi": 79,
          "name": "G5",
          "ticks": 133740,
          "time": 418.7973211083333,
          "velocity": 0.30708661417322836
        },
        {
          "duration": 0.18292687500002103,
          "durationTicks": 60,
          "midi": 77,
          "name": "F5",
          "ticks": 133800,
          "time": 418.9802479833333,
          "velocity": 0.30708661417322836
        },
        {
          "duration": 0.18292687499996418,
          "durationTicks": 60,
          "midi": 76,
          "name": "E5",
          "ticks": 133860,
          "time": 419.1631748583333,
          "velocity": 0.30708661417322836
        },
        {
          "duration": 0.18292687500002103,
          "durationTicks": 60,
          "midi": 80,
          "name": "G#5",
          "ticks": 134460,
          "time": 420.9924436083333,
          "velocity": 0.4015748031496063
        },
        {
          "duration": 0.18292687499996418,
          "durationTicks": 60,
          "midi": 81,
          "name": "A5",
          "ticks": 134520,
          "time": 421.1753704833333,
          "velocity": 0.4015748031496063
        },
        {
          "duration": 0.18292687500002103,
          "durationTicks": 60,
          "midi": 80,
          "name": "G#5",
          "ticks": 134580,
          "time": 421.3582973583333,
          "velocity": 0.4015748031496063
        },
        {
          "duration": 0.18292687499996418,
          "durationTicks": 60,
          "midi": 81,
          "name": "A5",
          "ticks": 134640,
          "time": 421.5412242333333,
          "velocity": 0.4015748031496063
        },
        {
          "duration": 0.18292687500002103,
          "durationTicks": 60,
          "midi": 83,
          "name": "B5",
          "ticks": 134700,
          "time": 421.7241511083333,
          "velocity": 0.4015748031496063
        },
        {
          "duration": 0.18292687500002103,
          "durationTicks": 60,
          "midi": 84,
          "name": "C6",
          "ticks": 134760,
          "time": 421.9070779833333,
          "velocity": 0.4015748031496063
        },
        {
          "duration": 0.18292687499996418,
          "durationTicks": 60,
          "midi": 83,
          "name": "B5",
          "ticks": 134820,
          "time": 422.0900048583333,
          "velocity": 0.4015748031496063
        },
        {
          "duration": 0.18292687500002103,
          "durationTicks": 60,
          "midi": 86,
          "name": "D6",
          "ticks": 134880,
          "time": 422.2729317333333,
          "velocity": 0.4015748031496063
        },
        {
          "duration": 0.18292687500002103,
          "durationTicks": 60,
          "midi": 84,
          "name": "C6",
          "ticks": 134940,
          "time": 422.4558586083333,
          "velocity": 0.4015748031496063
        },
        {
          "duration": 0.18292687499996418,
          "durationTicks": 60,
          "midi": 82,
          "name": "A#5",
          "ticks": 135000,
          "time": 422.6387854833333,
          "velocity": 0.4015748031496063
        },
        {
          "duration": 0.18292687500002103,
          "durationTicks": 60,
          "midi": 81,
          "name": "A5",
          "ticks": 135060,
          "time": 422.8217123583333,
          "velocity": 0.4015748031496063
        },
        {
          "duration": 0.18292687499996418,
          "durationTicks": 60,
          "midi": 82,
          "name": "A#5",
          "ticks": 135120,
          "time": 423.0046392333333,
          "velocity": 0.4015748031496063
        },
        {
          "duration": 0.18292687500002103,
          "durationTicks": 60,
          "midi": 81,
          "name": "A5",
          "ticks": 135180,
          "time": 423.1875661083333,
          "velocity": 0.4015748031496063
        },
        {
          "duration": 0.18292687500002103,
          "durationTicks": 60,
          "midi": 79,
          "name": "G5",
          "ticks": 135240,
          "time": 423.3704929833333,
          "velocity": 0.4015748031496063
        },
        {
          "duration": 0.18292687499996418,
          "durationTicks": 60,
          "midi": 77,
          "name": "F5",
          "ticks": 135300,
          "time": 423.5534198583333,
          "velocity": 0.4015748031496063
        },
        {
          "duration": 1.875,
          "durationTicks": 600,
          "midi": 81,
          "name": "A5",
          "ticks": 138240,
          "time": 432.51683673333326,
          "velocity": 0.33858267716535434
        },
        {
          "duration": 0.1875,
          "durationTicks": 60,
          "midi": 82,
          "name": "A#5",
          "ticks": 138840,
          "time": 434.39183673333326,
          "velocity": 0.33858267716535434
        },
        {
          "duration": 0.1875,
          "durationTicks": 60,
          "midi": 81,
          "name": "A5",
          "ticks": 138900,
          "time": 434.57933673333326,
          "velocity": 0.33858267716535434
        },
        {
          "duration": 0.1875,
          "durationTicks": 60,
          "midi": 80,
          "name": "G#5",
          "ticks": 138960,
          "time": 434.76683673333326,
          "velocity": 0.33858267716535434
        },
        {
          "duration": 0.1875,
          "durationTicks": 60,
          "midi": 81,
          "name": "A5",
          "ticks": 139020,
          "time": 434.95433673333326,
          "velocity": 0.33858267716535434
        },
        {
          "duration": 0.1875,
          "durationTicks": 60,
          "midi": 80,
          "name": "G#5",
          "ticks": 139080,
          "time": 435.14183673333326,
          "velocity": 0.33858267716535434
        },
        {
          "duration": 0.1875,
          "durationTicks": 60,
          "midi": 81,
          "name": "A5",
          "ticks": 139140,
          "time": 435.32933673333326,
          "velocity": 0.33858267716535434
        },
        {
          "duration": 0.375,
          "durationTicks": 120,
          "midi": 84,
          "name": "C6",
          "ticks": 139200,
          "time": 435.51683673333326,
          "velocity": 0.33858267716535434
        },
        {
          "duration": 0.375,
          "durationTicks": 120,
          "midi": 82,
          "name": "A#5",
          "ticks": 139320,
          "time": 435.89183673333326,
          "velocity": 0.33858267716535434
        },
        {
          "duration": 0.375,
          "durationTicks": 120,
          "midi": 81,
          "name": "A5",
          "ticks": 139440,
          "time": 436.26683673333326,
          "velocity": 0.33858267716535434
        },
        {
          "duration": 0.375,
          "durationTicks": 120,
          "midi": 79,
          "name": "G5",
          "ticks": 139560,
          "time": 436.64183673333326,
          "velocity": 0.33858267716535434
        },
        {
          "duration": 0.5625,
          "durationTicks": 180,
          "midi": 84,
          "name": "C6",
          "ticks": 139680,
          "time": 437.01683673333326,
          "velocity": 0.33858267716535434
        },
        {
          "duration": 0.1875,
          "durationTicks": 60,
          "midi": 81,
          "name": "A5",
          "ticks": 139860,
          "time": 437.57933673333326,
          "velocity": 0.33858267716535434
        },
        {
          "duration": 1.5,
          "durationTicks": 480,
          "midi": 77,
          "name": "F5",
          "ticks": 139928,
          "time": 437.79183673333324,
          "velocity": 0.33070866141732286
        },
        {
          "duration": 0.37756413333335104,
          "durationTicks": 120,
          "midi": 79,
          "name": "G5",
          "ticks": 140400,
          "time": 439.26683673333326,
          "velocity": 0.30708661417322836
        },
        {
          "duration": 0.38461549999999534,
          "durationTicks": 120,
          "midi": 81,
          "name": "A5",
          "ticks": 140520,
          "time": 439.6444008666666,
          "velocity": 0.30708661417322836
        },
        {
          "duration": 0.3873874999999316,
          "durationTicks": 120,
          "midi": 81,
          "name": "A5",
          "ticks": 140640,
          "time": 440.0290163666666,
          "velocity": 0.2992125984251969
        },
        {
          "duration": 0.40540550000002895,
          "durationTicks": 120,
          "midi": 79,
          "name": "G5",
          "ticks": 140760,
          "time": 440.41640386666654,
          "velocity": 0.2992125984251969
        },
        {
          "duration": 0.41141150000004245,
          "durationTicks": 120,
          "midi": 77,
          "name": "F5",
          "ticks": 140880,
          "time": 440.82180936666657,
          "velocity": 0.2992125984251969
        },
        {
          "duration": 0.4166667499999903,
          "durationTicks": 120,
          "midi": 76,
          "name": "E5",
          "ticks": 141000,
          "time": 441.2332208666666,
          "velocity": 0.2992125984251969
        },
        {
          "duration": 0.75,
          "durationTicks": 240,
          "midi": 77,
          "name": "F5",
          "ticks": 141120,
          "time": 441.6498876166666,
          "velocity": 0.28346456692913385
        },
        {
          "duration": 0.26315783333330955,
          "durationTicks": 80,
          "midi": 79,
          "name": "G5",
          "ticks": 143600,
          "time": 449.51272541666657,
          "velocity": 0.4015748031496063
        },
        {
          "duration": 0.28571433333331697,
          "durationTicks": 80,
          "midi": 82,
          "name": "A#5",
          "ticks": 143680,
          "time": 449.7758832499999,
          "velocity": 0.4015748031496063
        },
        {
          "duration": 0.2857143333333738,
          "durationTicks": 80,
          "midi": 86,
          "name": "D6",
          "ticks": 143760,
          "time": 450.0615975833332,
          "velocity": 0.4015748031496063
        },
        {
          "duration": 0.28571433333331697,
          "durationTicks": 80,
          "midi": 84,
          "name": "C6",
          "ticks": 143840,
          "time": 450.34731191666657,
          "velocity": 0.4015748031496063
        },
        {
          "duration": 0.28571433333331697,
          "durationTicks": 80,
          "midi": 76,
          "name": "E5",
          "ticks": 143920,
          "time": 450.6330262499999,
          "velocity": 0.3937007874015748
        },
        {
          "duration": 2.0508927666666636,
          "durationTicks": 480,
          "midi": 79,
          "name": "G5",
          "ticks": 144000,
          "time": 450.9187405833332,
          "velocity": 0.3779527559055118
        },
        {
          "duration": 1.0714285000000245,
          "durationTicks": 240,
          "midi": 77,
          "name": "F5",
          "ticks": 144480,
          "time": 452.96963334999987,
          "velocity": 0.3779527559055118
        }
      ]
    },
    {
      "channel": 0,
      "controlChanges": {},
      "pitchBends": [],
      "instrument": {
        "family": "piano",
        "number": 0,
        "name": "acoustic grand piano"
      },
      "name": "Oboi",
      "notes": [],
      "endOfTrackTicks": 145440
    },
    {
      "channel": 1,
      "controlChanges": {
        "7": [
          {
            "number": 7,
            "ticks": 0,
            "time": 0,
            "value": 0.6692913385826772
          }
        ],
        "10": [
          {
            "number": 10,
            "ticks": 0,
            "time": 0,
            "value": 0.31496062992125984
          }
        ]
      },
      "pitchBends": [],
      "instrument": {
        "family": "reed",
        "number": 68,
        "name": "oboe"
      },
      "name": "",
      "notes": [
        {
          "duration": 0.5,
          "durationTicks": 160,
          "midi": 76,
          "name": "E5",
          "ticks": 1920,
          "time": 6,
          "velocity": 0.41732283464566927
        },
        {
          "duration": 0.5,
          "durationTicks": 160,
          "midi": 79,
          "name": "G5",
          "ticks": 1920,
          "time": 6,
          "velocity": 0.41732283464566927
        },
        {
          "duration": 0.5,
          "durationTicks": 160,
          "midi": 72,
          "name": "C5",
          "ticks": 4800,
          "time": 15,
          "velocity": 0.41732283464566927
        },
        {
          "duration": 0.5,
          "durationTicks": 160,
          "midi": 77,
          "name": "F5",
          "ticks": 4800,
          "time": 15,
          "velocity": 0.41732283464566927
        },
        {
          "duration": 1.6750000000000007,
          "durationTicks": 536,
          "midi": 74,
          "name": "D5",
          "ticks": 8640,
          "time": 27,
          "velocity": 0.5118110236220472
        },
        {
          "duration": 0.1875,
          "durationTicks": 60,
          "midi": 76,
          "name": "E5",
          "ticks": 9180,
          "time": 28.6875,
          "velocity": 0.5118110236220472
        },
        {
          "duration": 0.1875,
          "durationTicks": 60,
          "midi": 74,
          "name": "D5",
          "ticks": 9240,
          "time": 28.875,
          "velocity": 0.5039370078740157
        },
        {
          "duration": 0.1875,
          "durationTicks": 60,
          "midi": 73,
          "name": "C#5",
          "ticks": 9300,
          "time": 29.0625,
          "velocity": 0.5039370078740157
        },
        {
          "duration": 0.375,
          "durationTicks": 120,
          "midi": 74,
          "name": "D5",
          "ticks": 9360,
          "time": 29.25,
          "velocity": 0.5039370078740157
        },
        {
          "duration": 0.375,
          "durationTicks": 120,
          "midi": 76,
          "name": "E5",
          "ticks": 9480,
          "time": 29.625,
          "velocity": 0.5039370078740157
        },
        {
          "duration": 0.375,
          "durationTicks": 120,
          "midi": 79,
          "name": "G5",
          "ticks": 9600,
          "time": 30,
          "velocity": 0.5039370078740157
        },
        {
          "duration": 0.375,
          "durationTicks": 120,
          "midi": 77,
          "name": "F5",
          "ticks": 9720,
          "time": 30.375,
          "velocity": 0.5039370078740157
        },
        {
          "duration": 0.375,
          "durationTicks": 120,
          "midi": 76,
          "name": "E5",
          "ticks": 9840,
          "time": 30.75,
          "velocity": 0.49606299212598426
        },
        {
          "duration": 0.375,
          "durationTicks": 120,
          "midi": 74,
          "name": "D5",
          "ticks": 9960,
          "time": 31.125,
          "velocity": 0.49606299212598426
        },
        {
          "duration": 1.125,
          "durationTicks": 360,
          "midi": 74,
          "name": "D5",
          "ticks": 10080,
          "time": 31.5,
          "velocity": 0.49606299212598426
        },
        {
          "duration": 0.375,
          "durationTicks": 120,
          "midi": 72,
          "name": "C5",
          "ticks": 10440,
          "time": 32.625,
          "velocity": 0.49606299212598426
        },
        {
          "duration": 1.875,
          "durationTicks": 600,
          "midi": 72,
          "name": "C5",
          "ticks": 10560,
          "time": 33,
          "velocity": 0.49606299212598426
        },
        {
          "duration": 0.375,
          "durationTicks": 120,
          "midi": 73,
          "name": "C#5",
          "ticks": 11160,
          "time": 34.875,
          "velocity": 0.4881889763779528
        },
        {
          "duration": 0.375,
          "durationTicks": 120,
          "midi": 74,
          "name": "D5",
          "ticks": 11280,
          "time": 35.25,
          "velocity": 0.4881889763779528
        },
        {
          "duration": 0.375,
          "durationTicks": 120,
          "midi": 70,
          "name": "A#4",
          "ticks": 11400,
          "time": 35.625,
          "velocity": 0.4881889763779528
        },
        {
          "duration": 0.75,
          "durationTicks": 240,
          "midi": 69,
          "name": "A4",
          "ticks": 11520,
          "time": 36,
          "velocity": 0.4409448818897638
        },
        {
          "duration": 0.75,
          "durationTicks": 240,
          "midi": 67,
          "name": "G4",
          "ticks": 25200,
          "time": 78.75,
          "velocity": 0.4330708661417323
        },
        {
          "duration": 0.75,
          "durationTicks": 240,
          "midi": 72,
          "name": "C5",
          "ticks": 25440,
          "time": 79.5,
          "velocity": 0.4330708661417323
        },
        {
          "duration": 0.75,
          "durationTicks": 240,
          "midi": 75,
          "name": "D#5",
          "ticks": 25680,
          "time": 80.25,
          "velocity": 0.4330708661417323
        },
        {
          "duration": 4.5,
          "durationTicks": 1440,
          "midi": 75,
          "name": "D#5",
          "ticks": 25920,
          "time": 81,
          "velocity": 0.41732283464566927
        },
        {
          "duration": 4.5,
          "durationTicks": 1440,
          "midi": 79,
          "name": "G5",
          "ticks": 25920,
          "time": 81,
          "velocity": 0.4330708661417323
        },
        {
          "duration": 1.5,
          "durationTicks": 480,
          "midi": 74,
          "name": "D5",
          "ticks": 27360,
          "time": 85.5,
          "velocity": 0.4015748031496063
        },
        {
          "duration": 1.5,
          "durationTicks": 480,
          "midi": 77,
          "name": "F5",
          "ticks": 27360,
          "time": 85.5,
          "velocity": 0.4015748031496063
        },
        {
          "duration": 0.75,
          "durationTicks": 240,
          "midi": 68,
          "name": "G#4",
          "ticks": 28080,
          "time": 87.75,
          "velocity": 0.4330708661417323
        },
        {
          "duration": 0.75,
          "durationTicks": 240,
          "midi": 74,
          "name": "D5",
          "ticks": 28320,
          "time": 88.5,
          "velocity": 0.4330708661417323
        },
        {
          "duration": 0.75,
          "durationTicks": 240,
          "midi": 77,
          "name": "F5",
          "ticks": 28560,
          "time": 89.25,
          "velocity": 0.4330708661417323
        },
        {
          "duration": 4.5,
          "durationTicks": 1440,
          "midi": 77,
          "name": "F5",
          "ticks": 28800,
          "time": 90,
          "velocity": 0.4330708661417323
        },
        {
          "duration": 4.5,
          "durationTicks": 1440,
          "midi": 80,
          "name": "G#5",
          "ticks": 28800,
          "time": 90,
          "velocity": 0.4330708661417323
        },
        {
          "duration": 1.5,
          "durationTicks": 480,
          "midi": 75,
          "name": "D#5",
          "ticks": 30240,
          "time": 94.5,
          "velocity": 0.4330708661417323
        },
        {
          "duration": 1.5,
          "durationTicks": 480,
          "midi": 79,
          "name": "G5",
          "ticks": 30240,
          "time": 94.5,
          "velocity": 0.4330708661417323
        },
        {
          "duration": 0.75,
          "durationTicks": 240,
          "midi": 63,
          "name": "D#4",
          "ticks": 30960,
          "time": 96.75,
          "velocity": 0.4330708661417323
        },
        {
          "duration": 0.75,
          "durationTicks": 240,
          "midi": 67,
          "name": "G4",
          "ticks": 30960,
          "time": 96.75,
          "velocity": 0.4330708661417323
        },
        {
          "duration": 0.75,
          "durationTicks": 240,
          "midi": 67,
          "name": "G4",
          "ticks": 31200,
          "time": 97.5,
          "velocity": 0.4330708661417323
        },
        {
          "duration": 0.75,
          "durationTicks": 240,
          "midi": 72,
          "name": "C5",
          "ticks": 31200,
          "time": 97.5,
          "velocity": 0.4330708661417323
        },
        {
          "duration": 0.75,
          "durationTicks": 240,
          "midi": 72,
          "name": "C5",
          "ticks": 31440,
          "time": 98.25,
          "velocity": 0.4330708661417323
        },
        {
          "duration": 0.75,
          "durationTicks": 240,
          "midi": 75,
          "name": "D#5",
          "ticks": 31440,
          "time": 98.25,
          "velocity": 0.4330708661417323
        },
        {
          "duration": 1.5,
          "durationTicks": 480,
          "midi": 75,
          "name": "D#5",
          "ticks": 31680,
          "time": 99,
          "velocity": 0.5354330708661418
        },
        {
          "duration": 1.5,
          "durationTicks": 480,
          "midi": 79,
          "name": "G5",
          "ticks": 31680,
          "time": 99,
          "velocity": 0.5354330708661418
        },
        {
          "duration": 1.5,
          "durationTicks": 480,
          "midi": 72,
          "name": "C5",
          "ticks": 32160,
          "time": 100.5,
          "velocity": 0.4409448818897638
        },
        {
          "duration": 1.5,
          "durationTicks": 480,
          "midi": 84,
          "name": "C6",
          "ticks": 32160,
          "time": 100.5,
          "velocity": 0.4409448818897638
        },
        {
          "duration": 1.5,
          "durationTicks": 480,
          "midi": 73,
          "name": "C#5",
          "ticks": 32640,
          "time": 102,
          "velocity": 0.5354330708661418
        },
        {
          "duration": 3,
          "durationTicks": 960,
          "midi": 84,
          "name": "C6",
          "ticks": 32640,
          "time": 102,
          "velocity": 0.5354330708661418
        },
        {
          "duration": 1.5,
          "durationTicks": 480,
          "midi": 74,
          "name": "D5",
          "ticks": 33120,
          "time": 103.5,
          "velocity": 0.4409448818897638
        },
        {
          "duration": 1.5,
          "durationTicks": 480,
          "midi": 75,
          "name": "D#5",
          "ticks": 33600,
          "time": 105,
          "velocity": 0.4409448818897638
        },
        {
          "duration": 3,
          "durationTicks": 960,
          "midi": 84,
          "name": "C6",
          "ticks": 33600,
          "time": 105,
          "velocity": 0.5354330708661418
        },
        {
          "duration": 3,
          "durationTicks": 960,
          "midi": 76,
          "name": "E5",
          "ticks": 34080,
          "time": 106.5,
          "velocity": 0.4409448818897638
        },
        {
          "duration": 3,
          "durationTicks": 960,
          "midi": 84,
          "name": "C6",
          "ticks": 34560,
          "time": 108,
          "velocity": 0.5354330708661418
        },
        {
          "duration": 1.5,
          "durationTicks": 480,
          "midi": 77,
          "name": "F5",
          "ticks": 35040,
          "time": 109.5,
          "velocity": 0.4409448818897638
        },
        {
          "duration": 1.5,
          "durationTicks": 480,
          "midi": 77,
          "name": "F5",
          "ticks": 35520,
          "time": 111,
          "velocity": 0.5354330708661418
        },
        {
          "duration": 3,
          "durationTicks": 960,
          "midi": 84,
          "name": "C6",
          "ticks": 35520,
          "time": 111,
          "velocity": 0.5118110236220472
        },
        {
          "duration": 1.5,
          "durationTicks": 480,
          "midi": 78,
          "name": "F#5",
          "ticks": 36000,
          "time": 112.5,
          "velocity": 0.4409448818897638
        },
        {
          "duration": 1.5,
          "durationTicks": 480,
          "midi": 78,
          "name": "F#5",
          "ticks": 36480,
          "time": 114,
          "velocity": 0.41732283464566927
        },
        {
          "duration": 1.5,
          "durationTicks": 480,
          "midi": 72,
          "name": "C5",
          "ticks": 36960,
          "time": 115.5,
          "velocity": 0.41732283464566927
        },
        {
          "duration": 1.5,
          "durationTicks": 480,
          "midi": 75,
          "name": "D#5",
          "ticks": 37440,
          "time": 117,
          "velocity": 0.41732283464566927
        },
        {
          "duration": 0.75,
          "durationTicks": 240,
          "midi": 74,
          "name": "D5",
          "ticks": 37920,
          "time": 118.5,
          "velocity": 0.4015748031496063
        },
        {
          "duration": 0.37960524166666687,
          "durationTicks": 120,
          "midi": 79,
          "name": "G5",
          "ticks": 38280,
          "time": 119.625,
          "velocity": 0.4330708661417323
        },
        {
          "duration": 0.1842104833333309,
          "durationTicks": 56,
          "midi": 78,
          "name": "F#5",
          "ticks": 38400,
          "time": 120.00460524166667,
          "velocity": 0.47244094488188976
        },
        {
          "duration": 0.1842104833333309,
          "durationTicks": 56,
          "midi": 79,
          "name": "G5",
          "ticks": 38460,
          "time": 120.20197361666666,
          "velocity": 0.4645669291338583
        },
        {
          "duration": 0.1842104833333309,
          "durationTicks": 56,
          "midi": 81,
          "name": "A5",
          "ticks": 38520,
          "time": 120.39934199166666,
          "velocity": 0.4409448818897638
        },
        {
          "duration": 0.1900584833333454,
          "durationTicks": 56,
          "midi": 79,
          "name": "G5",
          "ticks": 38580,
          "time": 120.59671036666666,
          "velocity": 0.4330708661417323
        },
        {
          "duration": 0.19444448333332787,
          "durationTicks": 56,
          "midi": 77,
          "name": "F5",
          "ticks": 38640,
          "time": 120.80065774166667,
          "velocity": 0.4330708661417323
        },
        {
          "duration": 0.19444448333332787,
          "durationTicks": 56,
          "midi": 76,
          "name": "E5",
          "ticks": 38700,
          "time": 121.00899111666666,
          "velocity": 0.4330708661417323
        },
        {
          "duration": 0.19444448333334208,
          "durationTicks": 56,
          "midi": 77,
          "name": "F5",
          "ticks": 38760,
          "time": 121.21732449166666,
          "velocity": 0.4251968503937008
        },
        {
          "duration": 0.19166669999999897,
          "durationTicks": 56,
          "midi": 74,
          "name": "D5",
          "ticks": 38820,
          "time": 121.42565786666667,
          "velocity": 0.4251968503937008
        },
        {
          "duration": 1.5,
          "durationTicks": 480,
          "midi": 67,
          "name": "G4",
          "ticks": 38880,
          "time": 121.62982456666666,
          "velocity": 0.29133858267716534
        },
        {
          "duration": 1.5,
          "durationTicks": 480,
          "midi": 72,
          "name": "C5",
          "ticks": 38880,
          "time": 121.62982456666666,
          "velocity": 0.2992125984251969
        },
        {
          "duration": 1.5,
          "durationTicks": 480,
          "midi": 71,
          "name": "B4",
          "ticks": 39360,
          "time": 123.12982456666666,
          "velocity": 0.29133858267716534
        },
        {
          "duration": 1.5,
          "durationTicks": 480,
          "midi": 74,
          "name": "D5",
          "ticks": 39360,
          "time": 123.12982456666666,
          "velocity": 0.2992125984251969
        },
        {
          "duration": 1.5,
          "durationTicks": 480,
          "midi": 72,
          "name": "C5",
          "ticks": 39840,
          "time": 124.62982456666666,
          "velocity": 0.28346456692913385
        },
        {
          "duration": 1.5,
          "durationTicks": 480,
          "midi": 76,
          "name": "E5",
          "ticks": 39840,
          "time": 124.62982456666666,
          "velocity": 0.2992125984251969
        },
        {
          "duration": 1.5,
          "durationTicks": 480,
          "midi": 74,
          "name": "D5",
          "ticks": 40320,
          "time": 126.12982456666666,
          "velocity": 0.28346456692913385
        },
        {
          "duration": 1.5,
          "durationTicks": 480,
          "midi": 77,
          "name": "F5",
          "ticks": 40320,
          "time": 126.12982456666666,
          "velocity": 0.2992125984251969
        },
        {
          "duration": 0.75,
          "durationTicks": 240,
          "midi": 71,
          "name": "B4",
          "ticks": 40800,
          "time": 127.62982456666666,
          "velocity": 0.28346456692913385
        },
        {
          "duration": 0.75,
          "durationTicks": 240,
          "midi": 74,
          "name": "D5",
          "ticks": 40800,
          "time": 127.62982456666666,
          "velocity": 0.2992125984251969
        },
        {
          "duration": 1.5,
          "durationTicks": 480,
          "midi": 71,
          "name": "B4",
          "ticks": 41760,
          "time": 130.62982456666666,
          "velocity": 0.28346456692913385
        },
        {
          "duration": 1.5,
          "durationTicks": 480,
          "midi": 74,
          "name": "D5",
          "ticks": 41760,
          "time": 130.62982456666666,
          "velocity": 0.2992125984251969
        },
        {
          "duration": 1.5,
          "durationTicks": 480,
          "midi": 72,
          "name": "C5",
          "ticks": 42240,
          "time": 132.12982456666666,
          "velocity": 0.28346456692913385
        },
        {
          "duration": 1.5,
          "durationTicks": 480,
          "midi": 76,
          "name": "E5",
          "ticks": 42240,
          "time": 132.12982456666666,
          "velocity": 0.2992125984251969
        },
        {
          "duration": 1.5,
          "durationTicks": 480,
          "midi": 74,
          "name": "D5",
          "ticks": 42720,
          "time": 133.62982456666666,
          "velocity": 0.28346456692913385
        },
        {
          "duration": 1.5,
          "durationTicks": 480,
          "midi": 77,
          "name": "F5",
          "ticks": 42720,
          "time": 133.62982456666666,
          "velocity": 0.2992125984251969
        },
        {
          "duration": 1.5,
          "durationTicks": 480,
          "midi": 76,
          "name": "E5",
          "ticks": 43200,
          "time": 135.12982456666666,
          "velocity": 0.28346456692913385
        },
        {
          "duration": 1.5,
          "durationTicks": 480,
          "midi": 79,
          "name": "G5",
          "ticks": 43200,
          "time": 135.12982456666666,
          "velocity": 0.2992125984251969
        },
        {
          "duration": 0.75,
          "durationTicks": 240,
          "midi": 72,
          "name": "C5",
          "ticks": 43680,
          "time": 136.62982456666666,
          "velocity": 0.28346456692913385
        },
        {
          "duration": 0.75,
          "durationTicks": 240,
          "midi": 76,
          "name": "E5",
          "ticks": 43680,
          "time": 136.62982456666666,
          "velocity": 0.2992125984251969
        },
        {
          "duration": 0.7375000000000114,
          "durationTicks": 236,
          "midi": 72,
          "name": "C5",
          "ticks": 43920,
          "time": 137.37982456666666,
          "velocity": 0.4094488188976378
        },
        {
          "duration": 0.7375000000000114,
          "durationTicks": 236,
          "midi": 76,
          "name": "E5",
          "ticks": 43920,
          "time": 137.37982456666666,
          "velocity": 0.4094488188976378
        },
        {
          "duration": 0.7375000000000114,
          "durationTicks": 236,
          "midi": 72,
          "name": "C5",
          "ticks": 44160,
          "time": 138.12982456666666,
          "velocity": 0.4094488188976378
        },
        {
          "duration": 0.7375000000000114,
          "durationTicks": 236,
          "midi": 76,
          "name": "E5",
          "ticks": 44160,
          "time": 138.12982456666666,
          "velocity": 0.4094488188976378
        },
        {
          "duration": 0.7375000000000114,
          "durationTicks": 236,
          "midi": 72,
          "name": "C5",
          "ticks": 44400,
          "time": 138.87982456666666,
          "velocity": 0.4094488188976378
        },
        {
          "duration": 0.7375000000000114,
          "durationTicks": 236,
          "midi": 76,
          "name": "E5",
          "ticks": 44400,
          "time": 138.87982456666666,
          "velocity": 0.4094488188976378
        },
        {
          "duration": 1.5,
          "durationTicks": 480,
          "midi": 72,
          "name": "C5",
          "ticks": 48000,
          "time": 150.12982456666666,
          "velocity": 0.3937007874015748
        },
        {
          "duration": 1.5,
          "durationTicks": 480,
          "midi": 76,
          "name": "E5",
          "ticks": 48000,
          "time": 150.12982456666666,
          "velocity": 0.3937007874015748
        },
        {
          "duration": 1.5,
          "durationTicks": 480,
          "midi": 71,
          "name": "B4",
          "ticks": 48480,
          "time": 151.62982456666666,
          "velocity": 0.3937007874015748
        },
        {
          "duration": 1.5,
          "durationTicks": 480,
          "midi": 74,
          "name": "D5",
          "ticks": 48480,
          "time": 151.62982456666666,
          "velocity": 0.3937007874015748
        },
        {
          "duration": 1.5,
          "durationTicks": 480,
          "midi": 73,
          "name": "C#5",
          "ticks": 48960,
          "time": 153.12982456666666,
          "velocity": 0.3937007874015748
        },
        {
          "duration": 1.5,
          "durationTicks": 480,
          "midi": 79,
          "name": "G5",
          "ticks": 48960,
          "time": 153.12982456666666,
          "velocity": 0.3937007874015748
        },
        {
          "duration": 1.5,
          "durationTicks": 480,
          "midi": 72,
          "name": "C5",
          "ticks": 49440,
          "time": 154.62982456666666,
          "velocity": 0.3937007874015748
        },
        {
          "duration": 1.5,
          "durationTicks": 480,
          "midi": 78,
          "name": "F#5",
          "ticks": 49440,
          "time": 154.62982456666666,
          "velocity": 0.3937007874015748
        },
        {
          "duration": 1.5,
          "durationTicks": 480,
          "midi": 71,
          "name": "B4",
          "ticks": 49920,
          "time": 156.12982456666666,
          "velocity": 0.3937007874015748
        },
        {
          "duration": 1.5,
          "durationTicks": 480,
          "midi": 77,
          "name": "F5",
          "ticks": 49920,
          "time": 156.12982456666666,
          "velocity": 0.3937007874015748
        },
        {
          "duration": 1.5,
          "durationTicks": 480,
          "midi": 70,
          "name": "A#4",
          "ticks": 50400,
          "time": 157.62982456666666,
          "velocity": 0.3937007874015748
        },
        {
          "duration": 1.5,
          "durationTicks": 480,
          "midi": 76,
          "name": "E5",
          "ticks": 50400,
          "time": 157.62982456666666,
          "velocity": 0.3937007874015748
        },
        {
          "duration": 0.75,
          "durationTicks": 240,
          "midi": 77,
          "name": "F5",
          "ticks": 50872,
          "time": 159.10482456666665,
          "velocity": 0.3937007874015748
        },
        {
          "duration": 1.5,
          "durationTicks": 480,
          "midi": 69,
          "name": "A4",
          "ticks": 50876,
          "time": 159.11732456666667,
          "velocity": 0.3937007874015748
        },
        {
          "duration": 1.5,
          "durationTicks": 480,
          "midi": 74,
          "name": "D5",
          "ticks": 51112,
          "time": 159.85482456666665,
          "velocity": 0.3937007874015748
        },
        {
          "duration": 0.75,
          "durationTicks": 240,
          "midi": 69,
          "name": "A4",
          "ticks": 51364,
          "time": 160.64232456666667,
          "velocity": 0.3937007874015748
        },
        {
          "duration": 0.762500000000017,
          "durationTicks": 244,
          "midi": 72,
          "name": "C5",
          "ticks": 51600,
          "time": 161.37982456666666,
          "velocity": 0.3937007874015748
        },
        {
          "duration": 1.487499999999983,
          "durationTicks": 476,
          "midi": 72,
          "name": "C5",
          "ticks": 51604,
          "time": 161.39232456666667,
          "velocity": 0.3937007874015748
        },
        {
          "duration": 0.75,
          "durationTicks": 240,
          "midi": 77,
          "name": "F5",
          "ticks": 51840,
          "time": 162.12982456666666,
          "velocity": 0.3937007874015748
        },
        {
          "duration": 1.5,
          "durationTicks": 480,
          "midi": 71,
          "name": "B4",
          "ticks": 52072,
          "time": 162.85482456666665,
          "velocity": 0.4015748031496063
        },
        {
          "duration": 0.75,
          "durationTicks": 240,
          "midi": 78,
          "name": "F#5",
          "ticks": 52084,
          "time": 162.89232456666667,
          "velocity": 0.4015748031496063
        },
        {
          "duration": 0.75,
          "durationTicks": 240,
          "midi": 80,
          "name": "G#5",
          "ticks": 52316,
          "time": 163.61732456666667,
          "velocity": 0.4015748031496063
        },
        {
          "duration": 1.5,
          "durationTicks": 480,
          "midi": 69,
          "name": "A4",
          "ticks": 52320,
          "time": 163.62982456666666,
          "velocity": 0.4015748031496063
        },
        {
          "duration": 0.75,
          "durationTicks": 240,
          "midi": 81,
          "name": "A5",
          "ticks": 52544,
          "time": 164.32982456666667,
          "velocity": 0.41732283464566927
        },
        {
          "duration": 1.5,
          "durationTicks": 480,
          "midi": 67,
          "name": "G4",
          "ticks": 52560,
          "time": 164.37982456666666,
          "velocity": 0.41732283464566927
        },
        {
          "duration": 0.75,
          "durationTicks": 240,
          "midi": 73,
          "name": "C#5",
          "ticks": 52804,
          "time": 165.14232456666667,
          "velocity": 0.4251968503937008
        },
        {
          "duration": 0.75,
          "durationTicks": 240,
          "midi": 74,
          "name": "D5",
          "ticks": 53036,
          "time": 165.86732456666667,
          "velocity": 0.4409448818897638
        },
        {
          "duration": 1.5,
          "durationTicks": 480,
          "midi": 67,
          "name": "G4",
          "ticks": 53040,
          "time": 165.87982456666666,
          "velocity": 0.4409448818897638
        },
        {
          "duration": 0.75,
          "durationTicks": 240,
          "midi": 76,
          "name": "E5",
          "ticks": 53280,
          "time": 166.62982456666666,
          "velocity": 0.5118110236220472
        },
        {
          "duration": 0.75,
          "durationTicks": 240,
          "midi": 81,
          "name": "A5",
          "ticks": 53512,
          "time": 167.35482456666665,
          "velocity": 0.4409448818897638
        },
        {
          "duration": 0.75,
          "durationTicks": 240,
          "midi": 77,
          "name": "F5",
          "ticks": 53516,
          "time": 167.36732456666667,
          "velocity": 0.4409448818897638
        },
        {
          "duration": 0.75,
          "durationTicks": 240,
          "midi": 79,
          "name": "G5",
          "ticks": 53748,
          "time": 168.09232456666666,
          "velocity": 0.4409448818897638
        },
        {
          "duration": 0.75,
          "durationTicks": 240,
          "midi": 76,
          "name": "E5",
          "ticks": 53756,
          "time": 168.11732456666667,
          "velocity": 0.4409448818897638
        },
        {
          "duration": 0.700000000000017,
          "durationTicks": 224,
          "midi": 77,
          "name": "F5",
          "ticks": 54000,
          "time": 168.87982456666666,
          "velocity": 0.4409448818897638
        },
        {
          "duration": 0.6999999999999886,
          "durationTicks": 224,
          "midi": 74,
          "name": "D5",
          "ticks": 54004,
          "time": 168.89232456666667,
          "velocity": 0.4409448818897638
        },
        {
          "duration": 0.700000000000017,
          "durationTicks": 224,
          "midi": 76,
          "name": "E5",
          "ticks": 54232,
          "time": 169.60482456666665,
          "velocity": 0.4409448818897638
        },
        {
          "duration": 0.6999999999999886,
          "durationTicks": 224,
          "midi": 72,
          "name": "C5",
          "ticks": 54244,
          "time": 169.64232456666667,
          "velocity": 0.4409448818897638
        },
        {
          "duration": 0.700000000000017,
          "durationTicks": 224,
          "midi": 71,
          "name": "B4",
          "ticks": 54480,
          "time": 170.37982456666666,
          "velocity": 0.4409448818897638
        },
        {
          "duration": 0.6999999999999886,
          "durationTicks": 224,
          "midi": 74,
          "name": "D5",
          "ticks": 54484,
          "time": 170.39232456666667,
          "velocity": 0.4409448818897638
        },
        {
          "duration": 1.5,
          "durationTicks": 480,
          "midi": 72,
          "name": "C5",
          "ticks": 54720,
          "time": 171.12982456666666,
          "velocity": 0.4409448818897638
        },
        {
          "duration": 1.5,
          "durationTicks": 480,
          "midi": 72,
          "name": "C5",
          "ticks": 54748,
          "time": 171.21732456666666,
          "velocity": 0.4409448818897638
        },
        {
          "duration": 0.75,
          "durationTicks": 240,
          "midi": 84,
          "name": "C6",
          "ticks": 56400,
          "time": 176.37982456666666,
          "velocity": 0.4094488188976378
        },
        {
          "duration": 0.75,
          "durationTicks": 240,
          "midi": 79,
          "name": "G5",
          "ticks": 56640,
          "time": 177.12982456666666,
          "velocity": 0.4094488188976378
        },
        {
          "duration": 0.75,
          "durationTicks": 240,
          "midi": 76,
          "name": "E5",
          "ticks": 56880,
          "time": 177.87982456666666,
          "velocity": 0.4094488188976378
        },
        {
          "duration": 1.5,
          "durationTicks": 480,
          "midi": 74,
          "name": "D5",
          "ticks": 57120,
          "time": 178.62982456666666,
          "velocity": 0.4094488188976378
        },
        {
          "duration": 0.75,
          "durationTicks": 240,
          "midi": 72,
          "name": "C5",
          "ticks": 57600,
          "time": 180.12982456666666,
          "velocity": 0.4094488188976378
        },
        {
          "duration": 0.75,
          "durationTicks": 240,
          "midi": 79,
          "name": "G5",
          "ticks": 59280,
          "time": 185.37982456666666,
          "velocity": 0.4094488188976378
        },
        {
          "duration": 0.75,
          "durationTicks": 240,
          "midi": 76,
          "name": "E5",
          "ticks": 59520,
          "time": 186.12982456666666,
          "velocity": 0.4094488188976378
        },
        {
          "duration": 0.75,
          "durationTicks": 240,
          "midi": 72,
          "name": "C5",
          "ticks": 59760,
          "time": 186.87982456666666,
          "velocity": 0.4094488188976378
        },
        {
          "duration": 0.2500000000000284,
          "durationTicks": 80,
          "midi": 72,
          "name": "C5",
          "ticks": 60000,
          "time": 187.62982456666666,
          "velocity": 0.4094488188976378
        },
        {
          "duration": 0.24999999999997158,
          "durationTicks": 80,
          "midi": 71,
          "name": "B4",
          "ticks": 60080,
          "time": 187.87982456666668,
          "velocity": 0.4094488188976378
        },
        {
          "duration": 0.25,
          "durationTicks": 80,
          "midi": 72,
          "name": "C5",
          "ticks": 60160,
          "time": 188.12982456666666,
          "velocity": 0.4094488188976378
        },
        {
          "duration": 0.2500000000000284,
          "durationTicks": 80,
          "midi": 76,
          "name": "E5",
          "ticks": 60240,
          "time": 188.37982456666666,
          "velocity": 0.4094488188976378
        },
        {
          "duration": 0.24999999999997158,
          "durationTicks": 80,
          "midi": 74,
          "name": "D5",
          "ticks": 60320,
          "time": 188.62982456666668,
          "velocity": 0.4094488188976378
        },
        {
          "duration": 0.25,
          "durationTicks": 80,
          "midi": 71,
          "name": "B4",
          "ticks": 60400,
          "time": 188.87982456666666,
          "velocity": 0.4094488188976378
        },
        {
          "duration": 1.5115386000000228,
          "durationTicks": 480,
          "midi": 71,
          "name": "B4",
          "ticks": 60480,
          "time": 189.12982456666666,
          "velocity": 0.4015748031496063
        },
        {
          "duration": 0.8171634999999924,
          "durationTicks": 240,
          "midi": 72,
          "name": "C5",
          "ticks": 60960,
          "time": 190.64136316666668,
          "velocity": 0.3858267716535433
        },
        {
          "duration": 0.7901847499999803,
          "durationTicks": 240,
          "midi": 67,
          "name": "G4",
          "ticks": 65520,
          "time": 205.08166434999998,
          "velocity": 0.4094488188976378
        },
        {
          "duration": 0.7901847499999803,
          "durationTicks": 240,
          "midi": 69,
          "name": "A4",
          "ticks": 65520,
          "time": 205.08166434999998,
          "velocity": 0.4330708661417323
        },
        {
          "duration": 0.8108110000000011,
          "durationTicks": 240,
          "midi": 67,
          "name": "G4",
          "ticks": 65760,
          "time": 205.87184909999996,
          "velocity": 0.4094488188976378
        },
        {
          "duration": 0.8108110000000011,
          "durationTicks": 240,
          "midi": 73,
          "name": "C#5",
          "ticks": 65760,
          "time": 205.87184909999996,
          "velocity": 0.4330708661417323
        },
        {
          "duration": 0.808783966666681,
          "durationTicks": 240,
          "midi": 67,
          "name": "G4",
          "ticks": 66000,
          "time": 206.68266009999996,
          "velocity": 0.4094488188976378
        },
        {
          "duration": 0.808783966666681,
          "durationTicks": 240,
          "midi": 76,
          "name": "E5",
          "ticks": 66000,
          "time": 206.68266009999996,
          "velocity": 0.4330708661417323
        },
        {
          "duration": 4.5,
          "durationTicks": 1440,
          "midi": 74,
          "name": "D5",
          "ticks": 66240,
          "time": 207.49144406666665,
          "velocity": 0.5354330708661418
        },
        {
          "duration": 4.5,
          "durationTicks": 1440,
          "midi": 77,
          "name": "F5",
          "ticks": 66240,
          "time": 207.49144406666665,
          "velocity": 0.5354330708661418
        },
        {
          "duration": 1.5,
          "durationTicks": 480,
          "midi": 70,
          "name": "A#4",
          "ticks": 67680,
          "time": 211.99144406666665,
          "velocity": 0.4251968503937008
        },
        {
          "duration": 1.5,
          "durationTicks": 480,
          "midi": 76,
          "name": "E5",
          "ticks": 67680,
          "time": 211.99144406666665,
          "velocity": 0.4251968503937008
        },
        {
          "duration": 0.75,
          "durationTicks": 240,
          "midi": 64,
          "name": "E4",
          "ticks": 68400,
          "time": 214.24144406666665,
          "velocity": 0.41732283464566927
        },
        {
          "duration": 0.75,
          "durationTicks": 240,
          "midi": 67,
          "name": "G4",
          "ticks": 68400,
          "time": 214.24144406666665,
          "velocity": 0.41732283464566927
        },
        {
          "duration": 0.75,
          "durationTicks": 240,
          "midi": 67,
          "name": "G4",
          "ticks": 68640,
          "time": 214.99144406666665,
          "velocity": 0.41732283464566927
        },
        {
          "duration": 0.75,
          "durationTicks": 240,
          "midi": 70,
          "name": "A#4",
          "ticks": 68640,
          "time": 214.99144406666665,
          "velocity": 0.41732283464566927
        },
        {
          "duration": 0.75,
          "durationTicks": 240,
          "midi": 70,
          "name": "A#4",
          "ticks": 68880,
          "time": 215.74144406666665,
          "velocity": 0.41732283464566927
        },
        {
          "duration": 0.75,
          "durationTicks": 240,
          "midi": 76,
          "name": "E5",
          "ticks": 68880,
          "time": 215.74144406666665,
          "velocity": 0.41732283464566927
        },
        {
          "duration": 4.5,
          "durationTicks": 1440,
          "midi": 76,
          "name": "E5",
          "ticks": 69120,
          "time": 216.49144406666665,
          "velocity": 0.5354330708661418
        },
        {
          "duration": 4.5,
          "durationTicks": 1440,
          "midi": 79,
          "name": "G5",
          "ticks": 69120,
          "time": 216.49144406666665,
          "velocity": 0.5354330708661418
        },
        {
          "duration": 1.5,
          "durationTicks": 480,
          "midi": 75,
          "name": "D#5",
          "ticks": 70560,
          "time": 220.99144406666665,
          "velocity": 0.4251968503937008
        },
        {
          "duration": 1.5,
          "durationTicks": 480,
          "midi": 78,
          "name": "F#5",
          "ticks": 70560,
          "time": 220.99144406666665,
          "velocity": 0.4251968503937008
        },
        {
          "duration": 0.75,
          "durationTicks": 240,
          "midi": 69,
          "name": "A4",
          "ticks": 71280,
          "time": 223.24144406666665,
          "velocity": 0.41732283464566927
        },
        {
          "duration": 0.75,
          "durationTicks": 240,
          "midi": 72,
          "name": "C5",
          "ticks": 71280,
          "time": 223.24144406666665,
          "velocity": 0.41732283464566927
        },
        {
          "duration": 0.75,
          "durationTicks": 240,
          "midi": 72,
          "name": "C5",
          "ticks": 71520,
          "time": 223.99144406666665,
          "velocity": 0.41732283464566927
        },
        {
          "duration": 0.75,
          "durationTicks": 240,
          "midi": 75,
          "name": "D#5",
          "ticks": 71520,
          "time": 223.99144406666665,
          "velocity": 0.41732283464566927
        },
        {
          "duration": 0.75,
          "durationTicks": 240,
          "midi": 76,
          "name": "E5",
          "ticks": 71760,
          "time": 224.74144406666665,
          "velocity": 0.41732283464566927
        },
        {
          "duration": 0.75,
          "durationTicks": 240,
          "midi": 81,
          "name": "A5",
          "ticks": 71760,
          "time": 224.74144406666665,
          "velocity": 0.41732283464566927
        },
        {
          "duration": 1.4625000000000057,
          "durationTicks": 468,
          "midi": 78,
          "name": "F#5",
          "ticks": 72000,
          "time": 225.49144406666665,
          "velocity": 0.5354330708661418
        },
        {
          "duration": 1.4625000000000057,
          "durationTicks": 468,
          "midi": 82,
          "name": "A#5",
          "ticks": 72000,
          "time": 225.49144406666665,
          "velocity": 0.5354330708661418
        },
        {
          "duration": 3,
          "durationTicks": 960,
          "midi": 75,
          "name": "D#5",
          "ticks": 72480,
          "time": 226.99144406666665,
          "velocity": 0.5354330708661418
        },
        {
          "duration": 1.5,
          "durationTicks": 480,
          "midi": 78,
          "name": "F#5",
          "ticks": 72480,
          "time": 226.99144406666665,
          "velocity": 0.5354330708661418
        },
        {
          "duration": 1.5,
          "durationTicks": 480,
          "midi": 77,
          "name": "F5",
          "ticks": 72960,
          "time": 228.49144406666665,
          "velocity": 0.5354330708661418
        },
        {
          "duration": 1.4625000000000057,
          "durationTicks": 468,
          "midi": 73,
          "name": "C#5",
          "ticks": 73440,
          "time": 229.99144406666665,
          "velocity": 0.5354330708661418
        },
        {
          "duration": 3,
          "durationTicks": 960,
          "midi": 82,
          "name": "A#5",
          "ticks": 73440,
          "time": 229.99144406666665,
          "velocity": 0.5354330708661418
        },
        {
          "duration": 1.4625000000000057,
          "durationTicks": 468,
          "midi": 72,
          "name": "C5",
          "ticks": 73920,
          "time": 231.49144406666665,
          "velocity": 0.5354330708661418
        },
        {
          "duration": 3,
          "durationTicks": 960,
          "midi": 77,
          "name": "F5",
          "ticks": 74400,
          "time": 232.99144406666665,
          "velocity": 0.5354330708661418
        },
        {
          "duration": 1.5,
          "durationTicks": 480,
          "midi": 80,
          "name": "G#5",
          "ticks": 74400,
          "time": 232.99144406666665,
          "velocity": 0.5354330708661418
        },
        {
          "duration": 1.5,
          "durationTicks": 480,
          "midi": 79,
          "name": "G5",
          "ticks": 74880,
          "time": 234.49144406666665,
          "velocity": 0.5354330708661418
        },
        {
          "duration": 1.4625000000000057,
          "durationTicks": 468,
          "midi": 75,
          "name": "D#5",
          "ticks": 75360,
          "time": 235.99144406666665,
          "velocity": 0.5354330708661418
        },
        {
          "duration": 3,
          "durationTicks": 960,
          "midi": 84,
          "name": "C6",
          "ticks": 75360,
          "time": 235.99144406666665,
          "velocity": 0.5354330708661418
        },
        {
          "duration": 1.5,
          "durationTicks": 480,
          "midi": 74,
          "name": "D5",
          "ticks": 75840,
          "time": 237.49144406666665,
          "velocity": 0.5354330708661418
        },
        {
          "duration": 3,
          "durationTicks": 960,
          "midi": 79,
          "name": "G5",
          "ticks": 76320,
          "time": 238.99144406666665,
          "velocity": 0.5354330708661418
        },
        {
          "duration": 1.5,
          "durationTicks": 480,
          "midi": 82,
          "name": "A#5",
          "ticks": 76320,
          "time": 238.99144406666665,
          "velocity": 0.5354330708661418
        },
        {
          "duration": 4.5,
          "durationTicks": 1440,
          "midi": 81,
          "name": "A5",
          "ticks": 76800,
          "time": 240.49144406666665,
          "velocity": 0.5354330708661418
        },
        {
          "duration": 3,
          "durationTicks": 960,
          "midi": 77,
          "name": "F5",
          "ticks": 77280,
          "time": 241.99144406666665,
          "velocity": 0.5354330708661418
        },
        {
          "duration": 1.5,
          "durationTicks": 480,
          "midi": 75,
          "name": "D#5",
          "ticks": 78240,
          "time": 244.99144406666665,
          "velocity": 0.5354330708661418
        },
        {
          "duration": 1.5,
          "durationTicks": 480,
          "midi": 79,
          "name": "G5",
          "ticks": 78240,
          "time": 244.99144406666665,
          "velocity": 0.5354330708661418
        },
        {
          "duration": 1.5,
          "durationTicks": 480,
          "midi": 74,
          "name": "D5",
          "ticks": 78720,
          "time": 246.49144406666665,
          "velocity": 0.5354330708661418
        },
        {
          "duration": 1.5,
          "durationTicks": 480,
          "midi": 77,
          "name": "F5",
          "ticks": 78720,
          "time": 246.49144406666665,
          "velocity": 0.5354330708661418
        },
        {
          "duration": 0.75,
          "durationTicks": 240,
          "midi": 73,
          "name": "C#5",
          "ticks": 79200,
          "time": 247.99144406666665,
          "velocity": 0.5354330708661418
        },
        {
          "duration": 0.75,
          "durationTicks": 240,
          "midi": 76,
          "name": "E5",
          "ticks": 79200,
          "time": 247.99144406666665,
          "velocity": 0.5354330708661418
        },
        {
          "duration": 0.25,
          "durationTicks": 80,
          "midi": 69,
          "name": "A4",
          "ticks": 81120,
          "time": 253.99144406666665,
          "velocity": 0.4330708661417323
        },
        {
          "duration": 0.25,
          "durationTicks": 80,
          "midi": 68,
          "name": "G#4",
          "ticks": 81200,
          "time": 254.24144406666665,
          "velocity": 0.4251968503937008
        },
        {
          "duration": 0.25,
          "durationTicks": 80,
          "midi": 69,
          "name": "A4",
          "ticks": 81280,
          "time": 254.49144406666665,
          "velocity": 0.4330708661417323
        },
        {
          "duration": 0.25,
          "durationTicks": 80,
          "midi": 73,
          "name": "C#5",
          "ticks": 81360,
          "time": 254.74144406666665,
          "velocity": 0.4409448818897638
        },
        {
          "duration": 0.25,
          "durationTicks": 80,
          "midi": 71,
          "name": "B4",
          "ticks": 81440,
          "time": 254.99144406666665,
          "velocity": 0.4330708661417323
        },
        {
          "duration": 0.25,
          "durationTicks": 80,
          "midi": 69,
          "name": "A4",
          "ticks": 81520,
          "time": 255.24144406666665,
          "velocity": 0.41732283464566927
        },
        {
          "duration": 1.5,
          "durationTicks": 480,
          "midi": 80,
          "name": "G#5",
          "ticks": 82560,
          "time": 258.49144406666665,
          "velocity": 0.4330708661417323
        },
        {
          "duration": 0.25,
          "durationTicks": 80,
          "midi": 79,
          "name": "G5",
          "ticks": 83040,
          "time": 259.99144406666665,
          "velocity": 0.4330708661417323
        },
        {
          "duration": 0.25,
          "durationTicks": 80,
          "midi": 78,
          "name": "F#5",
          "ticks": 83120,
          "time": 260.24144406666665,
          "velocity": 0.4330708661417323
        },
        {
          "duration": 0.25,
          "durationTicks": 80,
          "midi": 79,
          "name": "G5",
          "ticks": 83200,
          "time": 260.49144406666665,
          "velocity": 0.4330708661417323
        },
        {
          "duration": 0.25,
          "durationTicks": 80,
          "midi": 82,
          "name": "A#5",
          "ticks": 83280,
          "time": 260.74144406666665,
          "velocity": 0.4330708661417323
        },
        {
          "duration": 0.25,
          "durationTicks": 80,
          "midi": 81,
          "name": "A5",
          "ticks": 83360,
          "time": 260.99144406666665,
          "velocity": 0.4330708661417323
        },
        {
          "duration": 0.25,
          "durationTicks": 80,
          "midi": 79,
          "name": "G5",
          "ticks": 83440,
          "time": 261.24144406666665,
          "velocity": 0.4330708661417323
        },
        {
          "duration": 1.5,
          "durationTicks": 480,
          "midi": 78,
          "name": "F#5",
          "ticks": 83520,
          "time": 261.49144406666665,
          "velocity": 0.4330708661417323
        },
        {
          "duration": 0.25,
          "durationTicks": 80,
          "midi": 77,
          "name": "F5",
          "ticks": 84000,
          "time": 262.99144406666665,
          "velocity": 0.4330708661417323
        },
        {
          "duration": 0.25,
          "durationTicks": 80,
          "midi": 76,
          "name": "E5",
          "ticks": 84080,
          "time": 263.24144406666665,
          "velocity": 0.4330708661417323
        },
        {
          "duration": 0.25,
          "durationTicks": 80,
          "midi": 77,
          "name": "F5",
          "ticks": 84160,
          "time": 263.49144406666665,
          "velocity": 0.4330708661417323
        },
        {
          "duration": 0.25,
          "durationTicks": 80,
          "midi": 80,
          "name": "G#5",
          "ticks": 84240,
          "time": 263.74144406666665,
          "velocity": 0.4330708661417323
        },
        {
          "duration": 0.25,
          "durationTicks": 80,
          "midi": 79,
          "name": "G5",
          "ticks": 84320,
          "time": 263.99144406666665,
          "velocity": 0.4330708661417323
        },
        {
          "duration": 0.2551282666667021,
          "durationTicks": 80,
          "midi": 77,
          "name": "F5",
          "ticks": 84400,
          "time": 264.24144406666665,
          "velocity": 0.4330708661417323
        },
        {
          "duration": 1.621190466666576,
          "durationTicks": 480,
          "midi": 70,
          "name": "A#4",
          "ticks": 84480,
          "time": 264.49657233333335,
          "velocity": 0.4330708661417323
        },
        {
          "duration": 1.621190466666576,
          "durationTicks": 480,
          "midi": 76,
          "name": "E5",
          "ticks": 84480,
          "time": 264.49657233333335,
          "velocity": 0.4330708661417323
        },
        {
          "duration": 0.75,
          "durationTicks": 240,
          "midi": 69,
          "name": "A4",
          "ticks": 84960,
          "time": 266.1177627999999,
          "velocity": 0.4330708661417323
        },
        {
          "duration": 0.75,
          "durationTicks": 240,
          "midi": 77,
          "name": "F5",
          "ticks": 84960,
          "time": 266.1177627999999,
          "velocity": 0.4330708661417323
        },
        {
          "duration": 0.5625,
          "durationTicks": 180,
          "midi": 70,
          "name": "A#4",
          "ticks": 95280,
          "time": 298.3677627999999,
          "velocity": 0.48031496062992124
        },
        {
          "duration": 0.5625,
          "durationTicks": 180,
          "midi": 74,
          "name": "D5",
          "ticks": 95280,
          "time": 298.3677627999999,
          "velocity": 0.48031496062992124
        },
        {
          "duration": 0.1875,
          "durationTicks": 60,
          "midi": 65,
          "name": "F4",
          "ticks": 95460,
          "time": 298.9302627999999,
          "velocity": 0.48031496062992124
        },
        {
          "duration": 0.1875,
          "durationTicks": 60,
          "midi": 70,
          "name": "A#4",
          "ticks": 95460,
          "time": 298.9302627999999,
          "velocity": 0.48031496062992124
        },
        {
          "duration": 0.5250000000000341,
          "durationTicks": 168,
          "midi": 74,
          "name": "D5",
          "ticks": 95520,
          "time": 299.1177627999999,
          "velocity": 0.48031496062992124
        },
        {
          "duration": 0.5250000000000341,
          "durationTicks": 168,
          "midi": 77,
          "name": "F5",
          "ticks": 95520,
          "time": 299.1177627999999,
          "velocity": 0.48031496062992124
        },
        {
          "duration": 0.5250000000000341,
          "durationTicks": 168,
          "midi": 79,
          "name": "G5",
          "ticks": 95760,
          "time": 299.8677627999999,
          "velocity": 0.48031496062992124
        },
        {
          "duration": 0.5250000000000341,
          "durationTicks": 168,
          "midi": 82,
          "name": "A#5",
          "ticks": 95760,
          "time": 299.8677627999999,
          "velocity": 0.48031496062992124
        },
        {
          "duration": 0.5625,
          "durationTicks": 180,
          "midi": 69,
          "name": "A4",
          "ticks": 96240,
          "time": 301.3677627999999,
          "velocity": 0.48031496062992124
        },
        {
          "duration": 0.5625,
          "durationTicks": 180,
          "midi": 74,
          "name": "D5",
          "ticks": 96240,
          "time": 301.3677627999999,
          "velocity": 0.48031496062992124
        },
        {
          "duration": 0.1875,
          "durationTicks": 60,
          "midi": 66,
          "name": "F#4",
          "ticks": 96420,
          "time": 301.9302627999999,
          "velocity": 0.48031496062992124
        },
        {
          "duration": 0.1875,
          "durationTicks": 60,
          "midi": 69,
          "name": "A4",
          "ticks": 96420,
          "time": 301.9302627999999,
          "velocity": 0.48031496062992124
        },
        {
          "duration": 0.5250000000000341,
          "durationTicks": 168,
          "midi": 74,
          "name": "D5",
          "ticks": 96480,
          "time": 302.1177627999999,
          "velocity": 0.48031496062992124
        },
        {
          "duration": 0.5250000000000341,
          "durationTicks": 168,
          "midi": 78,
          "name": "F#5",
          "ticks": 96480,
          "time": 302.1177627999999,
          "velocity": 0.48031496062992124
        },
        {
          "duration": 0.5250000000000341,
          "durationTicks": 168,
          "midi": 78,
          "name": "F#5",
          "ticks": 96720,
          "time": 302.8677627999999,
          "velocity": 0.48031496062992124
        },
        {
          "duration": 0.5250000000000341,
          "durationTicks": 168,
          "midi": 81,
          "name": "A5",
          "ticks": 96720,
          "time": 302.8677627999999,
          "velocity": 0.48031496062992124
        },
        {
          "duration": 0.5625,
          "durationTicks": 180,
          "midi": 70,
          "name": "A#4",
          "ticks": 97200,
          "time": 304.3677627999999,
          "velocity": 0.48031496062992124
        },
        {
          "duration": 0.5625,
          "durationTicks": 180,
          "midi": 74,
          "name": "D5",
          "ticks": 97200,
          "time": 304.3677627999999,
          "velocity": 0.48031496062992124
        },
        {
          "duration": 0.1875,
          "durationTicks": 60,
          "midi": 67,
          "name": "G4",
          "ticks": 97380,
          "time": 304.9302627999999,
          "velocity": 0.48031496062992124
        },
        {
          "duration": 0.1875,
          "durationTicks": 60,
          "midi": 70,
          "name": "A#4",
          "ticks": 97380,
          "time": 304.9302627999999,
          "velocity": 0.48031496062992124
        },
        {
          "duration": 0.5250000000000341,
          "durationTicks": 168,
          "midi": 74,
          "name": "D5",
          "ticks": 97440,
          "time": 305.1177627999999,
          "velocity": 0.48031496062992124
        },
        {
          "duration": 0.5250000000000341,
          "durationTicks": 168,
          "midi": 79,
          "name": "G5",
          "ticks": 97440,
          "time": 305.1177627999999,
          "velocity": 0.48031496062992124
        },
        {
          "duration": 0.5250000000000341,
          "durationTicks": 168,
          "midi": 79,
          "name": "G5",
          "ticks": 97680,
          "time": 305.8677627999999,
          "velocity": 0.48031496062992124
        },
        {
          "duration": 0.5250000000000341,
          "durationTicks": 168,
          "midi": 82,
          "name": "A#5",
          "ticks": 97680,
          "time": 305.8677627999999,
          "velocity": 0.48031496062992124
        },
        {
          "duration": 0.5625,
          "durationTicks": 180,
          "midi": 67,
          "name": "G4",
          "ticks": 98160,
          "time": 307.3677627999999,
          "velocity": 0.48031496062992124
        },
        {
          "duration": 0.5625,
          "durationTicks": 180,
          "midi": 72,
          "name": "C5",
          "ticks": 98160,
          "time": 307.3677627999999,
          "velocity": 0.48031496062992124
        },
        {
          "duration": 0.1875,
          "durationTicks": 60,
          "midi": 64,
          "name": "E4",
          "ticks": 98340,
          "time": 307.9302627999999,
          "velocity": 0.48031496062992124
        },
        {
          "duration": 0.1875,
          "durationTicks": 60,
          "midi": 67,
          "name": "G4",
          "ticks": 98340,
          "time": 307.9302627999999,
          "velocity": 0.48031496062992124
        },
        {
          "duration": 0.5250000000000341,
          "durationTicks": 168,
          "midi": 72,
          "name": "C5",
          "ticks": 98400,
          "time": 308.1177627999999,
          "velocity": 0.48031496062992124
        },
        {
          "duration": 0.5250000000000341,
          "durationTicks": 168,
          "midi": 76,
          "name": "E5",
          "ticks": 98400,
          "time": 308.1177627999999,
          "velocity": 0.48031496062992124
        },
        {
          "duration": 0.5250000000000341,
          "durationTicks": 168,
          "midi": 76,
          "name": "E5",
          "ticks": 98640,
          "time": 308.8677627999999,
          "velocity": 0.48031496062992124
        },
        {
          "duration": 0.5250000000000341,
          "durationTicks": 168,
          "midi": 79,
          "name": "G5",
          "ticks": 98640,
          "time": 308.8677627999999,
          "velocity": 0.48031496062992124
        },
        {
          "duration": 0.5625,
          "durationTicks": 180,
          "midi": 69,
          "name": "A4",
          "ticks": 99120,
          "time": 310.3677627999999,
          "velocity": 0.48031496062992124
        },
        {
          "duration": 0.5625,
          "durationTicks": 180,
          "midi": 72,
          "name": "C5",
          "ticks": 99120,
          "time": 310.3677627999999,
          "velocity": 0.48031496062992124
        },
        {
          "duration": 0.1875,
          "durationTicks": 60,
          "midi": 65,
          "name": "F4",
          "ticks": 99300,
          "time": 310.9302627999999,
          "velocity": 0.48031496062992124
        },
        {
          "duration": 0.1875,
          "durationTicks": 60,
          "midi": 69,
          "name": "A4",
          "ticks": 99300,
          "time": 310.9302627999999,
          "velocity": 0.48031496062992124
        },
        {
          "duration": 0.5250000000000341,
          "durationTicks": 168,
          "midi": 72,
          "name": "C5",
          "ticks": 99360,
          "time": 311.1177627999999,
          "velocity": 0.48031496062992124
        },
        {
          "duration": 0.5250000000000341,
          "durationTicks": 168,
          "midi": 77,
          "name": "F5",
          "ticks": 99360,
          "time": 311.1177627999999,
          "velocity": 0.48031496062992124
        },
        {
          "duration": 0.5250000000000341,
          "durationTicks": 168,
          "midi": 77,
          "name": "F5",
          "ticks": 99600,
          "time": 311.8677627999999,
          "velocity": 0.41732283464566927
        },
        {
          "duration": 0.5250000000000341,
          "durationTicks": 168,
          "midi": 81,
          "name": "A5",
          "ticks": 99600,
          "time": 311.8677627999999,
          "velocity": 0.41732283464566927
        },
        {
          "duration": 0.5625,
          "durationTicks": 180,
          "midi": 65,
          "name": "F4",
          "ticks": 100080,
          "time": 313.3677627999999,
          "velocity": 0.41732283464566927
        },
        {
          "duration": 0.5625,
          "durationTicks": 180,
          "midi": 71,
          "name": "B4",
          "ticks": 100080,
          "time": 313.3677627999999,
          "velocity": 0.41732283464566927
        },
        {
          "duration": 0.1875,
          "durationTicks": 60,
          "midi": 62,
          "name": "D4",
          "ticks": 100260,
          "time": 313.9302627999999,
          "velocity": 0.41732283464566927
        },
        {
          "duration": 0.1875,
          "durationTicks": 60,
          "midi": 65,
          "name": "F4",
          "ticks": 100260,
          "time": 313.9302627999999,
          "velocity": 0.41732283464566927
        },
        {
          "duration": 0.5250000000000341,
          "durationTicks": 168,
          "midi": 71,
          "name": "B4",
          "ticks": 100320,
          "time": 314.1177627999999,
          "velocity": 0.41732283464566927
        },
        {
          "duration": 0.5250000000000341,
          "durationTicks": 168,
          "midi": 74,
          "name": "D5",
          "ticks": 100320,
          "time": 314.1177627999999,
          "velocity": 0.41732283464566927
        },
        {
          "duration": 0.5250000000000341,
          "durationTicks": 168,
          "midi": 74,
          "name": "D5",
          "ticks": 100560,
          "time": 314.8677627999999,
          "velocity": 0.41732283464566927
        },
        {
          "duration": 0.5250000000000341,
          "durationTicks": 168,
          "midi": 77,
          "name": "F5",
          "ticks": 100560,
          "time": 314.8677627999999,
          "velocity": 0.41732283464566927
        },
        {
          "duration": 0.6500000000000341,
          "durationTicks": 208,
          "midi": 67,
          "name": "G4",
          "ticks": 100800,
          "time": 315.6177627999999,
          "velocity": 0.5354330708661418
        },
        {
          "duration": 0.6500000000000341,
          "durationTicks": 208,
          "midi": 76,
          "name": "E5",
          "ticks": 100800,
          "time": 315.6177627999999,
          "velocity": 0.5354330708661418
        },
        {
          "duration": 0.5625,
          "durationTicks": 180,
          "midi": 67,
          "name": "G4",
          "ticks": 101040,
          "time": 316.3677627999999,
          "velocity": 0.5354330708661418
        },
        {
          "duration": 0.5625,
          "durationTicks": 180,
          "midi": 76,
          "name": "E5",
          "ticks": 101040,
          "time": 316.3677627999999,
          "velocity": 0.5354330708661418
        },
        {
          "duration": 0.1875,
          "durationTicks": 60,
          "midi": 67,
          "name": "G4",
          "ticks": 101220,
          "time": 316.9302627999999,
          "velocity": 0.5354330708661418
        },
        {
          "duration": 0.1875,
          "durationTicks": 60,
          "midi": 76,
          "name": "E5",
          "ticks": 101220,
          "time": 316.9302627999999,
          "velocity": 0.5354330708661418
        },
        {
          "duration": 0.7000000000000455,
          "durationTicks": 224,
          "midi": 67,
          "name": "G4",
          "ticks": 101280,
          "time": 317.1177627999999,
          "velocity": 0.5354330708661418
        },
        {
          "duration": 0.7000000000000455,
          "durationTicks": 224,
          "midi": 76,
          "name": "E5",
          "ticks": 101280,
          "time": 317.1177627999999,
          "velocity": 0.5354330708661418
        },
        {
          "duration": 0.7000000000000455,
          "durationTicks": 224,
          "midi": 67,
          "name": "G4",
          "ticks": 101520,
          "time": 317.8677627999999,
          "velocity": 0.5354330708661418
        },
        {
          "duration": 0.7000000000000455,
          "durationTicks": 224,
          "midi": 76,
          "name": "E5",
          "ticks": 101520,
          "time": 317.8677627999999,
          "velocity": 0.5354330708661418
        },
        {
          "duration": 0.7000000000000455,
          "durationTicks": 224,
          "midi": 67,
          "name": "G4",
          "ticks": 101760,
          "time": 318.6177627999999,
          "velocity": 0.5354330708661418
        },
        {
          "duration": 0.7000000000000455,
          "durationTicks": 224,
          "midi": 76,
          "name": "E5",
          "ticks": 101760,
          "time": 318.6177627999999,
          "velocity": 0.5354330708661418
        },
        {
          "duration": 0.7000000000000455,
          "durationTicks": 224,
          "midi": 67,
          "name": "G4",
          "ticks": 102000,
          "time": 319.3677627999999,
          "velocity": 0.5354330708661418
        },
        {
          "duration": 0.7000000000000455,
          "durationTicks": 224,
          "midi": 76,
          "name": "E5",
          "ticks": 102000,
          "time": 319.3677627999999,
          "velocity": 0.5354330708661418
        },
        {
          "duration": 0.6500000000000341,
          "durationTicks": 208,
          "midi": 67,
          "name": "G4",
          "ticks": 102240,
          "time": 320.1177627999999,
          "velocity": 0.5354330708661418
        },
        {
          "duration": 0.6500000000000341,
          "durationTicks": 208,
          "midi": 76,
          "name": "E5",
          "ticks": 102240,
          "time": 320.1177627999999,
          "velocity": 0.5354330708661418
        },
        {
          "duration": 0.5625,
          "durationTicks": 180,
          "midi": 67,
          "name": "G4",
          "ticks": 102480,
          "time": 320.8677627999999,
          "velocity": 0.5354330708661418
        },
        {
          "duration": 0.5625,
          "durationTicks": 180,
          "midi": 76,
          "name": "E5",
          "ticks": 102480,
          "time": 320.8677627999999,
          "velocity": 0.5354330708661418
        },
        {
          "duration": 0.1875,
          "durationTicks": 60,
          "midi": 67,
          "name": "G4",
          "ticks": 102660,
          "time": 321.4302627999999,
          "velocity": 0.5354330708661418
        },
        {
          "duration": 0.1875,
          "durationTicks": 60,
          "midi": 76,
          "name": "E5",
          "ticks": 102660,
          "time": 321.4302627999999,
          "velocity": 0.5354330708661418
        },
        {
          "duration": 0.7000000000000455,
          "durationTicks": 224,
          "midi": 67,
          "name": "G4",
          "ticks": 102720,
          "time": 321.6177627999999,
          "velocity": 0.5354330708661418
        },
        {
          "duration": 0.7000000000000455,
          "durationTicks": 224,
          "midi": 76,
          "name": "E5",
          "ticks": 102720,
          "time": 321.6177627999999,
          "velocity": 0.5354330708661418
        },
        {
          "duration": 0.7000000000000455,
          "durationTicks": 224,
          "midi": 67,
          "name": "G4",
          "ticks": 102960,
          "time": 322.3677627999999,
          "velocity": 0.5354330708661418
        },
        {
          "duration": 0.7000000000000455,
          "durationTicks": 224,
          "midi": 76,
          "name": "E5",
          "ticks": 102960,
          "time": 322.3677627999999,
          "velocity": 0.5354330708661418
        },
        {
          "duration": 0.7000000000000455,
          "durationTicks": 224,
          "midi": 67,
          "name": "G4",
          "ticks": 103200,
          "time": 323.1177627999999,
          "velocity": 0.5354330708661418
        },
        {
          "duration": 0.7000000000000455,
          "durationTicks": 224,
          "midi": 76,
          "name": "E5",
          "ticks": 103200,
          "time": 323.1177627999999,
          "velocity": 0.5354330708661418
        },
        {
          "duration": 0.7000000000000455,
          "durationTicks": 224,
          "midi": 67,
          "name": "G4",
          "ticks": 103440,
          "time": 323.8677627999999,
          "velocity": 0.5354330708661418
        },
        {
          "duration": 0.7000000000000455,
          "durationTicks": 224,
          "midi": 76,
          "name": "E5",
          "ticks": 103440,
          "time": 323.8677627999999,
          "velocity": 0.5354330708661418
        },
        {
          "duration": 0.75,
          "durationTicks": 240,
          "midi": 67,
          "name": "G4",
          "ticks": 103680,
          "time": 324.6177627999999,
          "velocity": 0.48031496062992124
        },
        {
          "duration": 0.75,
          "durationTicks": 240,
          "midi": 76,
          "name": "E5",
          "ticks": 103680,
          "time": 324.6177627999999,
          "velocity": 0.48031496062992124
        },
        {
          "duration": 1.5,
          "durationTicks": 480,
          "midi": 76,
          "name": "E5",
          "ticks": 104160,
          "time": 326.1177627999999,
          "velocity": 0.3858267716535433
        },
        {
          "duration": 1.5,
          "durationTicks": 480,
          "midi": 79,
          "name": "G5",
          "ticks": 104160,
          "time": 326.1177627999999,
          "velocity": 0.3858267716535433
        },
        {
          "duration": 1.5,
          "durationTicks": 480,
          "midi": 77,
          "name": "F5",
          "ticks": 104640,
          "time": 327.6177627999999,
          "velocity": 0.3858267716535433
        },
        {
          "duration": 1.5,
          "durationTicks": 480,
          "midi": 80,
          "name": "G#5",
          "ticks": 104640,
          "time": 327.6177627999999,
          "velocity": 0.3858267716535433
        },
        {
          "duration": 0.75,
          "durationTicks": 240,
          "midi": 76,
          "name": "E5",
          "ticks": 105120,
          "time": 329.1177627999999,
          "velocity": 0.49606299212598426
        },
        {
          "duration": 0.75,
          "durationTicks": 240,
          "midi": 79,
          "name": "G5",
          "ticks": 105120,
          "time": 329.1177627999999,
          "velocity": 0.49606299212598426
        },
        {
          "duration": 1.5,
          "durationTicks": 480,
          "midi": 76,
          "name": "E5",
          "ticks": 105600,
          "time": 330.6177627999999,
          "velocity": 0.3858267716535433
        },
        {
          "duration": 1.5,
          "durationTicks": 480,
          "midi": 79,
          "name": "G5",
          "ticks": 105600,
          "time": 330.6177627999999,
          "velocity": 0.3858267716535433
        },
        {
          "duration": 1.5,
          "durationTicks": 480,
          "midi": 77,
          "name": "F5",
          "ticks": 106080,
          "time": 332.1177627999999,
          "velocity": 0.3858267716535433
        },
        {
          "duration": 1.5,
          "durationTicks": 480,
          "midi": 80,
          "name": "G#5",
          "ticks": 106080,
          "time": 332.1177627999999,
          "velocity": 0.3858267716535433
        },
        {
          "duration": 0.75,
          "durationTicks": 240,
          "midi": 76,
          "name": "E5",
          "ticks": 106560,
          "time": 333.6177627999999,
          "velocity": 0.3858267716535433
        },
        {
          "duration": 0.75,
          "durationTicks": 240,
          "midi": 79,
          "name": "G5",
          "ticks": 106560,
          "time": 333.6177627999999,
          "velocity": 0.3858267716535433
        },
        {
          "duration": 0.75,
          "durationTicks": 240,
          "midi": 76,
          "name": "E5",
          "ticks": 107040,
          "time": 335.1177627999999,
          "velocity": 0.3858267716535433
        },
        {
          "duration": 0.75,
          "durationTicks": 240,
          "midi": 79,
          "name": "G5",
          "ticks": 107040,
          "time": 335.1177627999999,
          "velocity": 0.3858267716535433
        },
        {
          "duration": 1.5,
          "durationTicks": 480,
          "midi": 72,
          "name": "C5",
          "ticks": 108000,
          "time": 338.2763333666666,
          "velocity": 0.3228346456692913
        },
        {
          "duration": 1.5,
          "durationTicks": 480,
          "midi": 76,
          "name": "E5",
          "ticks": 108480,
          "time": 339.7763333666666,
          "velocity": 0.3228346456692913
        },
        {
          "duration": 1.5,
          "durationTicks": 480,
          "midi": 77,
          "name": "F5",
          "ticks": 108960,
          "time": 341.2763333666666,
          "velocity": 0.3228346456692913
        },
        {
          "duration": 1.5,
          "durationTicks": 480,
          "midi": 79,
          "name": "G5",
          "ticks": 109440,
          "time": 342.7763333666666,
          "velocity": 0.3228346456692913
        },
        {
          "duration": 0.75,
          "durationTicks": 240,
          "midi": 76,
          "name": "E5",
          "ticks": 109920,
          "time": 344.2763333666666,
          "velocity": 0.3228346456692913
        },
        {
          "duration": 0.7250000000000227,
          "durationTicks": 232,
          "midi": 72,
          "name": "C5",
          "ticks": 110160,
          "time": 345.0263333666666,
          "velocity": 0.3937007874015748
        },
        {
          "duration": 0.7250000000000227,
          "durationTicks": 232,
          "midi": 84,
          "name": "C6",
          "ticks": 110160,
          "time": 345.0263333666666,
          "velocity": 0.3937007874015748
        },
        {
          "duration": 0.7250000000000227,
          "durationTicks": 232,
          "midi": 72,
          "name": "C5",
          "ticks": 110400,
          "time": 345.7763333666666,
          "velocity": 0.3937007874015748
        },
        {
          "duration": 0.7250000000000227,
          "durationTicks": 232,
          "midi": 84,
          "name": "C6",
          "ticks": 110400,
          "time": 345.7763333666666,
          "velocity": 0.3937007874015748
        },
        {
          "duration": 0.7250000000000227,
          "durationTicks": 232,
          "midi": 72,
          "name": "C5",
          "ticks": 110640,
          "time": 346.5263333666666,
          "velocity": 0.3937007874015748
        },
        {
          "duration": 0.7250000000000227,
          "durationTicks": 232,
          "midi": 84,
          "name": "C6",
          "ticks": 110640,
          "time": 346.5263333666666,
          "velocity": 0.3937007874015748
        },
        {
          "duration": 1.5,
          "durationTicks": 480,
          "midi": 76,
          "name": "E5",
          "ticks": 110880,
          "time": 347.2763333666666,
          "velocity": 0.3228346456692913
        },
        {
          "duration": 1.5,
          "durationTicks": 480,
          "midi": 77,
          "name": "F5",
          "ticks": 111360,
          "time": 348.7763333666666,
          "velocity": 0.3228346456692913
        },
        {
          "duration": 1.5,
          "durationTicks": 480,
          "midi": 79,
          "name": "G5",
          "ticks": 111840,
          "time": 350.2763333666666,
          "velocity": 0.3228346456692913
        },
        {
          "duration": 1.5,
          "durationTicks": 480,
          "midi": 81,
          "name": "A5",
          "ticks": 112320,
          "time": 351.7763333666666,
          "velocity": 0.3228346456692913
        },
        {
          "duration": 0.75,
          "durationTicks": 240,
          "midi": 77,
          "name": "F5",
          "ticks": 112800,
          "time": 353.2763333666666,
          "velocity": 0.3228346456692913
        },
        {
          "duration": 0.7250000000000227,
          "durationTicks": 232,
          "midi": 72,
          "name": "C5",
          "ticks": 113040,
          "time": 354.0263333666666,
          "velocity": 0.4015748031496063
        },
        {
          "duration": 0.7250000000000227,
          "durationTicks": 232,
          "midi": 81,
          "name": "A5",
          "ticks": 113040,
          "time": 354.0263333666666,
          "velocity": 0.4015748031496063
        },
        {
          "duration": 0.7250000000000227,
          "durationTicks": 232,
          "midi": 72,
          "name": "C5",
          "ticks": 113280,
          "time": 354.7763333666666,
          "velocity": 0.4015748031496063
        },
        {
          "duration": 0.7250000000000227,
          "durationTicks": 232,
          "midi": 81,
          "name": "A5",
          "ticks": 113280,
          "time": 354.7763333666666,
          "velocity": 0.4015748031496063
        },
        {
          "duration": 0.7250000000000227,
          "durationTicks": 232,
          "midi": 72,
          "name": "C5",
          "ticks": 113520,
          "time": 355.5263333666666,
          "velocity": 0.4015748031496063
        },
        {
          "duration": 0.7250000000000227,
          "durationTicks": 232,
          "midi": 81,
          "name": "A5",
          "ticks": 113520,
          "time": 355.5263333666666,
          "velocity": 0.4015748031496063
        },
        {
          "duration": 1.5,
          "durationTicks": 480,
          "midi": 77,
          "name": "F5",
          "ticks": 117120,
          "time": 366.7763333666666,
          "velocity": 0.4015748031496063
        },
        {
          "duration": 1.5,
          "durationTicks": 480,
          "midi": 76,
          "name": "E5",
          "ticks": 117600,
          "time": 368.2763333666666,
          "velocity": 0.3858267716535433
        },
        {
          "duration": 1.5,
          "durationTicks": 480,
          "midi": 78,
          "name": "F#5",
          "ticks": 118080,
          "time": 369.7763333666666,
          "velocity": 0.3700787401574803
        },
        {
          "duration": 1.5,
          "durationTicks": 480,
          "midi": 77,
          "name": "F5",
          "ticks": 118560,
          "time": 371.2763333666666,
          "velocity": 0.3700787401574803
        },
        {
          "duration": 0.25000000000005684,
          "durationTicks": 80,
          "midi": 80,
          "name": "G#5",
          "ticks": 118640,
          "time": 371.5263333666666,
          "velocity": 0.3937007874015748
        },
        {
          "duration": 0.24999999999994316,
          "durationTicks": 80,
          "midi": 79,
          "name": "G5",
          "ticks": 118720,
          "time": 371.7763333666667,
          "velocity": 0.3937007874015748
        },
        {
          "duration": 0.19999999999998863,
          "durationTicks": 64,
          "midi": 79,
          "name": "G5",
          "ticks": 118800,
          "time": 372.0263333666666,
          "velocity": 0.3937007874015748
        },
        {
          "duration": 0.20000000000004547,
          "durationTicks": 64,
          "midi": 79,
          "name": "G5",
          "ticks": 118880,
          "time": 372.2763333666666,
          "velocity": 0.3937007874015748
        },
        {
          "duration": 0.19999999999998863,
          "durationTicks": 64,
          "midi": 79,
          "name": "G5",
          "ticks": 118960,
          "time": 372.5263333666667,
          "velocity": 0.3937007874015748
        },
        {
          "duration": 1.5,
          "durationTicks": 480,
          "midi": 76,
          "name": "E5",
          "ticks": 119040,
          "time": 372.7763333666666,
          "velocity": 0.3700787401574803
        },
        {
          "duration": 0.75,
          "durationTicks": 240,
          "midi": 79,
          "name": "G5",
          "ticks": 119040,
          "time": 372.7763333666666,
          "velocity": 0.3937007874015748
        },
        {
          "duration": 0.75,
          "durationTicks": 240,
          "midi": 84,
          "name": "C6",
          "ticks": 119280,
          "time": 373.5263333666666,
          "velocity": 0.3937007874015748
        },
        {
          "duration": 1.5,
          "durationTicks": 480,
          "midi": 75,
          "name": "D#5",
          "ticks": 119520,
          "time": 374.2763333666666,
          "velocity": 0.3700787401574803
        },
        {
          "duration": 0.25000000000005684,
          "durationTicks": 80,
          "midi": 78,
          "name": "F#5",
          "ticks": 119600,
          "time": 374.5263333666666,
          "velocity": 0.3937007874015748
        },
        {
          "duration": 0.24999999999994316,
          "durationTicks": 80,
          "midi": 77,
          "name": "F5",
          "ticks": 119680,
          "time": 374.7763333666667,
          "velocity": 0.3937007874015748
        },
        {
          "duration": 0.19999999999998863,
          "durationTicks": 64,
          "midi": 77,
          "name": "F5",
          "ticks": 119760,
          "time": 375.0263333666666,
          "velocity": 0.3937007874015748
        },
        {
          "duration": 0.20000000000004547,
          "durationTicks": 64,
          "midi": 77,
          "name": "F5",
          "ticks": 119840,
          "time": 375.2763333666666,
          "velocity": 0.3937007874015748
        },
        {
          "duration": 0.19999999999998863,
          "durationTicks": 64,
          "midi": 77,
          "name": "F5",
          "ticks": 119920,
          "time": 375.5263333666667,
          "velocity": 0.3937007874015748
        },
        {
          "duration": 1.5,
          "durationTicks": 480,
          "midi": 74,
          "name": "D5",
          "ticks": 120000,
          "time": 375.7763333666666,
          "velocity": 0.3700787401574803
        },
        {
          "duration": 0.75,
          "durationTicks": 240,
          "midi": 77,
          "name": "F5",
          "ticks": 120000,
          "time": 375.7763333666666,
          "velocity": 0.3937007874015748
        },
        {
          "duration": 0.75,
          "durationTicks": 240,
          "midi": 82,
          "name": "A#5",
          "ticks": 120240,
          "time": 376.5263333666666,
          "velocity": 0.3937007874015748
        },
        {
          "duration": 0.75,
          "durationTicks": 240,
          "midi": 76,
          "name": "E5",
          "ticks": 120480,
          "time": 377.2763333666666,
          "velocity": 0.3700787401574803
        },
        {
          "duration": 1.5,
          "durationTicks": 480,
          "midi": 77,
          "name": "F5",
          "ticks": 120716,
          "time": 378.01383336666663,
          "velocity": 0.3700787401574803
        },
        {
          "duration": 0.75,
          "durationTicks": 240,
          "midi": 70,
          "name": "A#4",
          "ticks": 120960,
          "time": 378.7763333666666,
          "velocity": 0.3937007874015748
        },
        {
          "duration": 1.5,
          "durationTicks": 480,
          "midi": 76,
          "name": "E5",
          "ticks": 121192,
          "time": 379.50133336666664,
          "velocity": 0.3779527559055118
        },
        {
          "duration": 0.75,
          "durationTicks": 240,
          "midi": 71,
          "name": "B4",
          "ticks": 121200,
          "time": 379.5263333666666,
          "velocity": 0.4015748031496063
        },
        {
          "duration": 0.75,
          "durationTicks": 240,
          "midi": 73,
          "name": "C#5",
          "ticks": 121440,
          "time": 380.2763333666666,
          "velocity": 0.4015748031496063
        },
        {
          "duration": 0.75,
          "durationTicks": 240,
          "midi": 74,
          "name": "D5",
          "ticks": 121680,
          "time": 381.0263333666666,
          "velocity": 0.41732283464566927
        },
        {
          "duration": 0.75,
          "durationTicks": 240,
          "midi": 74,
          "name": "D5",
          "ticks": 121680,
          "time": 381.0263333666666,
          "velocity": 0.3937007874015748
        },
        {
          "duration": 0.75,
          "durationTicks": 240,
          "midi": 66,
          "name": "F#4",
          "ticks": 121920,
          "time": 381.7763333666666,
          "velocity": 0.4015748031496063
        },
        {
          "duration": 0.75,
          "durationTicks": 240,
          "midi": 78,
          "name": "F#5",
          "ticks": 121920,
          "time": 381.7763333666666,
          "velocity": 0.4251968503937008
        },
        {
          "duration": 0.75,
          "durationTicks": 240,
          "midi": 67,
          "name": "G4",
          "ticks": 122160,
          "time": 382.5263333666666,
          "velocity": 0.4094488188976378
        },
        {
          "duration": 0.75,
          "durationTicks": 240,
          "midi": 79,
          "name": "G5",
          "ticks": 122160,
          "time": 382.5263333666666,
          "velocity": 0.4409448818897638
        },
        {
          "duration": 0.7250000000000227,
          "durationTicks": 232,
          "midi": 69,
          "name": "A4",
          "ticks": 122400,
          "time": 383.2763333666666,
          "velocity": 0.4251968503937008
        },
        {
          "duration": 0.7125000000000341,
          "durationTicks": 228,
          "midi": 81,
          "name": "A5",
          "ticks": 122400,
          "time": 383.2763333666666,
          "velocity": 0.4409448818897638
        },
        {
          "duration": 0.75,
          "durationTicks": 240,
          "midi": 79,
          "name": "G5",
          "ticks": 122640,
          "time": 384.0263333666666,
          "velocity": 0.4409448818897638
        },
        {
          "duration": 0.75,
          "durationTicks": 240,
          "midi": 82,
          "name": "A#5",
          "ticks": 122640,
          "time": 384.0263333666666,
          "velocity": 0.4566929133858268
        },
        {
          "duration": 0.75,
          "durationTicks": 240,
          "midi": 77,
          "name": "F5",
          "ticks": 122880,
          "time": 384.7763333666666,
          "velocity": 0.4409448818897638
        },
        {
          "duration": 0.75,
          "durationTicks": 240,
          "midi": 84,
          "name": "C6",
          "ticks": 122880,
          "time": 384.7763333666666,
          "velocity": 0.4645669291338583
        },
        {
          "duration": 0.6875000000000568,
          "durationTicks": 220,
          "midi": 79,
          "name": "G5",
          "ticks": 123120,
          "time": 385.5263333666666,
          "velocity": 0.44881889763779526
        },
        {
          "duration": 0.7125000000000341,
          "durationTicks": 228,
          "midi": 82,
          "name": "A#5",
          "ticks": 123120,
          "time": 385.5263333666666,
          "velocity": 0.48031496062992124
        },
        {
          "duration": 0.6875000000000568,
          "durationTicks": 220,
          "midi": 77,
          "name": "F5",
          "ticks": 123360,
          "time": 386.2763333666666,
          "velocity": 0.4645669291338583
        },
        {
          "duration": 0.7125000000000341,
          "durationTicks": 228,
          "midi": 81,
          "name": "A5",
          "ticks": 123360,
          "time": 386.2763333666666,
          "velocity": 0.4881889763779528
        },
        {
          "duration": 0.6875000000000568,
          "durationTicks": 220,
          "midi": 76,
          "name": "E5",
          "ticks": 123600,
          "time": 387.0263333666666,
          "velocity": 0.47244094488188976
        },
        {
          "duration": 0.7125000000000341,
          "durationTicks": 228,
          "midi": 79,
          "name": "G5",
          "ticks": 123600,
          "time": 387.0263333666666,
          "velocity": 0.49606299212598426
        },
        {
          "duration": 1.5,
          "durationTicks": 480,
          "midi": 77,
          "name": "F5",
          "ticks": 123840,
          "time": 387.7763333666666,
          "velocity": 0.3700787401574803
        },
        {
          "duration": 1.5,
          "durationTicks": 480,
          "midi": 77,
          "name": "F5",
          "ticks": 123840,
          "time": 387.7763333666666,
          "velocity": 0.3700787401574803
        },
        {
          "duration": 0.75,
          "durationTicks": 240,
          "midi": 81,
          "name": "A5",
          "ticks": 125520,
          "time": 393.0263333666666,
          "velocity": 0.3858267716535433
        },
        {
          "duration": 0.75,
          "durationTicks": 240,
          "midi": 77,
          "name": "F5",
          "ticks": 125760,
          "time": 393.7763333666666,
          "velocity": 0.3858267716535433
        },
        {
          "duration": 0.75,
          "durationTicks": 240,
          "midi": 72,
          "name": "C5",
          "ticks": 126000,
          "time": 394.5263333666666,
          "velocity": 0.3858267716535433
        },
        {
          "duration": 1.5,
          "durationTicks": 480,
          "midi": 70,
          "name": "A#4",
          "ticks": 126240,
          "time": 395.2763333666666,
          "velocity": 0.3858267716535433
        },
        {
          "duration": 0.75,
          "durationTicks": 240,
          "midi": 69,
          "name": "A4",
          "ticks": 126720,
          "time": 396.7763333666666,
          "velocity": 0.3858267716535433
        },
        {
          "duration": 0.7500000000000568,
          "durationTicks": 240,
          "midi": 84,
          "name": "C6",
          "ticks": 128400,
          "time": 402.0263333666666,
          "velocity": 0.3858267716535433
        },
        {
          "duration": 0.75,
          "durationTicks": 240,
          "midi": 81,
          "name": "A5",
          "ticks": 128640,
          "time": 402.7763333666667,
          "velocity": 0.3858267716535433
        },
        {
          "duration": 1.5,
          "durationTicks": 480,
          "midi": 77,
          "name": "F5",
          "ticks": 128880,
          "time": 403.5263333666667,
          "velocity": 0.3858267716535433
        },
        {
          "duration": 0.75,
          "durationTicks": 240,
          "midi": 72,
          "name": "C5",
          "ticks": 129120,
          "time": 404.2763333666667,
          "velocity": 0.3858267716535433
        },
        {
          "duration": 0.7124999999999773,
          "durationTicks": 228,
          "midi": 70,
          "name": "A#4",
          "ticks": 129360,
          "time": 405.0263333666667,
          "velocity": 0.3858267716535433
        },
        {
          "duration": 0.7124999999999773,
          "durationTicks": 228,
          "midi": 76,
          "name": "E5",
          "ticks": 129360,
          "time": 405.0263333666667,
          "velocity": 0.3858267716535433
        },
        {
          "duration": 1.5,
          "durationTicks": 480,
          "midi": 70,
          "name": "A#4",
          "ticks": 129600,
          "time": 405.7763333666667,
          "velocity": 0.3858267716535433
        },
        {
          "duration": 1.5,
          "durationTicks": 480,
          "midi": 76,
          "name": "E5",
          "ticks": 129600,
          "time": 405.7763333666667,
          "velocity": 0.3858267716535433
        },
        {
          "duration": 0.75,
          "durationTicks": 240,
          "midi": 69,
          "name": "A4",
          "ticks": 130080,
          "time": 407.2763333666667,
          "velocity": 0.3858267716535433
        },
        {
          "duration": 0.75,
          "durationTicks": 240,
          "midi": 77,
          "name": "F5",
          "ticks": 130080,
          "time": 407.2763333666667,
          "velocity": 0.3858267716535433
        },
        {
          "duration": 1.6463418750000187,
          "durationTicks": 540,
          "midi": 74,
          "name": "D5",
          "ticks": 135360,
          "time": 423.7363467333333,
          "velocity": 0.4409448818897638
        },
        {
          "duration": 0.18292687500002103,
          "durationTicks": 60,
          "midi": 76,
          "name": "E5",
          "ticks": 135900,
          "time": 425.3826886083333,
          "velocity": 0.4409448818897638
        },
        {
          "duration": 0.18292687499996418,
          "durationTicks": 60,
          "midi": 74,
          "name": "D5",
          "ticks": 135960,
          "time": 425.5656154833333,
          "velocity": 0.4409448818897638
        },
        {
          "duration": 0.18292687500002103,
          "durationTicks": 60,
          "midi": 73,
          "name": "C#5",
          "ticks": 136020,
          "time": 425.7485423583333,
          "velocity": 0.4409448818897638
        },
        {
          "duration": 0.3658537499999852,
          "durationTicks": 120,
          "midi": 74,
          "name": "D5",
          "ticks": 136080,
          "time": 425.9314692333333,
          "velocity": 0.4409448818897638
        },
        {
          "duration": 0.3658537499999852,
          "durationTicks": 120,
          "midi": 76,
          "name": "E5",
          "ticks": 136200,
          "time": 426.2973229833333,
          "velocity": 0.4409448818897638
        },
        {
          "duration": 0.36585375000004206,
          "durationTicks": 120,
          "midi": 79,
          "name": "G5",
          "ticks": 136320,
          "time": 426.6631767333333,
          "velocity": 0.4409448818897638
        },
        {
          "duration": 0.3658537499999852,
          "durationTicks": 120,
          "midi": 77,
          "name": "F5",
          "ticks": 136440,
          "time": 427.0290304833333,
          "velocity": 0.4409448818897638
        },
        {
          "duration": 0.3658537499999852,
          "durationTicks": 120,
          "midi": 76,
          "name": "E5",
          "ticks": 136560,
          "time": 427.3948842333333,
          "velocity": 0.4409448818897638
        },
        {
          "duration": 0.3658537499999852,
          "durationTicks": 120,
          "midi": 74,
          "name": "D5",
          "ticks": 136680,
          "time": 427.7607379833333,
          "velocity": 0.4409448818897638
        },
        {
          "duration": 1.0975612500000125,
          "durationTicks": 360,
          "midi": 74,
          "name": "D5",
          "ticks": 136800,
          "time": 428.12659173333327,
          "velocity": 0.4409448818897638
        },
        {
          "duration": 0.3292683750000265,
          "durationTicks": 108,
          "midi": 72,
          "name": "C5",
          "ticks": 137160,
          "time": 429.2241529833333,
          "velocity": 0.4409448818897638
        },
        {
          "duration": 1.829268749999983,
          "durationTicks": 600,
          "midi": 72,
          "name": "C5",
          "ticks": 137280,
          "time": 429.5900067333333,
          "velocity": 0.4409448818897638
        },
        {
          "duration": 0.3658537499999852,
          "durationTicks": 120,
          "midi": 73,
          "name": "C#5",
          "ticks": 137880,
          "time": 431.4192754833333,
          "velocity": 0.4409448818897638
        },
        {
          "duration": 0.3658537499999852,
          "durationTicks": 120,
          "midi": 74,
          "name": "D5",
          "ticks": 138000,
          "time": 431.7851292333333,
          "velocity": 0.4409448818897638
        },
        {
          "duration": 0.3658537499999852,
          "durationTicks": 120,
          "midi": 70,
          "name": "A#4",
          "ticks": 138120,
          "time": 432.1509829833333,
          "velocity": 0.4409448818897638
        },
        {
          "duration": 0.75,
          "durationTicks": 240,
          "midi": 69,
          "name": "A4",
          "ticks": 138240,
          "time": 432.51683673333326,
          "velocity": 0.33070866141732286
        },
        {
          "duration": 2.0508927666666636,
          "durationTicks": 480,
          "midi": 70,
          "name": "A#4",
          "ticks": 144000,
          "time": 450.9187405833332,
          "velocity": 0.3543307086614173
        },
        {
          "duration": 2.0508927666666636,
          "durationTicks": 480,
          "midi": 76,
          "name": "E5",
          "ticks": 144000,
          "time": 450.9187405833332,
          "velocity": 0.3543307086614173
        },
        {
          "duration": 1.0714285000000245,
          "durationTicks": 240,
          "midi": 69,
          "name": "A4",
          "ticks": 144480,
          "time": 452.96963334999987,
          "velocity": 0.3464566929133858
        },
        {
          "duration": 1.0714285000000245,
          "durationTicks": 240,
          "midi": 77,
          "name": "F5",
          "ticks": 144480,
          "time": 452.96963334999987,
          "velocity": 0.3543307086614173
        }
      ]
    },
    {
      "channel": 0,
      "controlChanges": {},
      "pitchBends": [],
      "instrument": {
        "family": "piano",
        "number": 0,
        "name": "acoustic grand piano"
      },
      "name": "Fagotti",
      "notes": [],
      "endOfTrackTicks": 145440
    },
    {
      "channel": 2,
      "controlChanges": {
        "7": [
          {
            "number": 7,
            "ticks": 0,
            "time": 0,
            "value": 0.6692913385826772
          }
        ],
        "10": [
          {
            "number": 10,
            "ticks": 0,
            "time": 0,
            "value": 0.5511811023622047
          }
        ]
      },
      "pitchBends": [],
      "instrument": {
        "family": "reed",
        "number": 70,
        "name": "bassoon"
      },
      "name": "",
      "notes": [
        {
          "duration": 0.5,
          "durationTicks": 160,
          "midi": 58,
          "name": "A#3",
          "ticks": 1920,
          "time": 6,
          "velocity": 0.41732283464566927
        },
        {
          "duration": 0.5,
          "durationTicks": 160,
          "midi": 64,
          "name": "E4",
          "ticks": 1920,
          "time": 6,
          "velocity": 0.41732283464566927
        },
        {
          "duration": 0.5,
          "durationTicks": 160,
          "midi": 60,
          "name": "C4",
          "ticks": 4800,
          "time": 15,
          "velocity": 0.41732283464566927
        },
        {
          "duration": 0.5,
          "durationTicks": 160,
          "midi": 65,
          "name": "F4",
          "ticks": 4800,
          "time": 15,
          "velocity": 0.41732283464566927
        },
        {
          "duration": 4.5,
          "durationTicks": 1440,
          "midi": 58,
          "name": "A#3",
          "ticks": 8640,
          "time": 27,
          "velocity": 0.4881889763779528
        },
        {
          "duration": 4.5,
          "durationTicks": 1440,
          "midi": 62,
          "name": "D4",
          "ticks": 8640,
          "time": 27,
          "velocity": 0.4881889763779528
        },
        {
          "duration": 3,
          "durationTicks": 960,
          "midi": 57,
          "name": "A3",
          "ticks": 10080,
          "time": 31.5,
          "velocity": 0.4881889763779528
        },
        {
          "duration": 3,
          "durationTicks": 960,
          "midi": 60,
          "name": "C4",
          "ticks": 10080,
          "time": 31.5,
          "velocity": 0.4881889763779528
        },
        {
          "duration": 1.5,
          "durationTicks": 480,
          "midi": 55,
          "name": "G3",
          "ticks": 11040,
          "time": 34.5,
          "velocity": 0.48031496062992124
        },
        {
          "duration": 1.5,
          "durationTicks": 480,
          "midi": 58,
          "name": "A#3",
          "ticks": 11040,
          "time": 34.5,
          "velocity": 0.48031496062992124
        },
        {
          "duration": 1.8624999999999972,
          "durationTicks": 596,
          "midi": 57,
          "name": "A3",
          "ticks": 11520,
          "time": 36,
          "velocity": 0.4330708661417323
        },
        {
          "duration": 0.1875,
          "durationTicks": 60,
          "midi": 58,
          "name": "A#3",
          "ticks": 12120,
          "time": 37.875,
          "velocity": 0.4330708661417323
        },
        {
          "duration": 0.1875,
          "durationTicks": 60,
          "midi": 57,
          "name": "A3",
          "ticks": 12180,
          "time": 38.0625,
          "velocity": 0.4330708661417323
        },
        {
          "duration": 0.1875,
          "durationTicks": 60,
          "midi": 56,
          "name": "G#3",
          "ticks": 12240,
          "time": 38.25,
          "velocity": 0.4330708661417323
        },
        {
          "duration": 0.1875,
          "durationTicks": 60,
          "midi": 57,
          "name": "A3",
          "ticks": 12300,
          "time": 38.4375,
          "velocity": 0.4330708661417323
        },
        {
          "duration": 0.1875,
          "durationTicks": 60,
          "midi": 56,
          "name": "G#3",
          "ticks": 12360,
          "time": 38.625,
          "velocity": 0.4330708661417323
        },
        {
          "duration": 0.1875,
          "durationTicks": 60,
          "midi": 57,
          "name": "A3",
          "ticks": 12420,
          "time": 38.8125,
          "velocity": 0.4330708661417323
        },
        {
          "duration": 0.375,
          "durationTicks": 120,
          "midi": 60,
          "name": "C4",
          "ticks": 12480,
          "time": 39,
          "velocity": 0.4330708661417323
        },
        {
          "duration": 0.375,
          "durationTicks": 120,
          "midi": 58,
          "name": "A#3",
          "ticks": 12600,
          "time": 39.375,
          "velocity": 0.4330708661417323
        },
        {
          "duration": 0.375,
          "durationTicks": 120,
          "midi": 57,
          "name": "A3",
          "ticks": 12720,
          "time": 39.75,
          "velocity": 0.4330708661417323
        },
        {
          "duration": 0.375,
          "durationTicks": 120,
          "midi": 55,
          "name": "G3",
          "ticks": 12840,
          "time": 40.125,
          "velocity": 0.4330708661417323
        },
        {
          "duration": 0.5625,
          "durationTicks": 180,
          "midi": 60,
          "name": "C4",
          "ticks": 12960,
          "time": 40.5,
          "velocity": 0.4330708661417323
        },
        {
          "duration": 0.17499999999999716,
          "durationTicks": 56,
          "midi": 57,
          "name": "A3",
          "ticks": 13140,
          "time": 41.0625,
          "velocity": 0.4330708661417323
        },
        {
          "duration": 1.4874999999999972,
          "durationTicks": 476,
          "midi": 53,
          "name": "F3",
          "ticks": 13200,
          "time": 41.25,
          "velocity": 0.4330708661417323
        },
        {
          "duration": 0.36249999999999716,
          "durationTicks": 116,
          "midi": 55,
          "name": "G3",
          "ticks": 13680,
          "time": 42.75,
          "velocity": 0.4330708661417323
        },
        {
          "duration": 0.3375000000000057,
          "durationTicks": 108,
          "midi": 57,
          "name": "A3",
          "ticks": 13800,
          "time": 43.125,
          "velocity": 0.4330708661417323
        },
        {
          "duration": 0.375,
          "durationTicks": 120,
          "midi": 57,
          "name": "A3",
          "ticks": 13920,
          "time": 43.5,
          "velocity": 0.4330708661417323
        },
        {
          "duration": 0.375,
          "durationTicks": 120,
          "midi": 55,
          "name": "G3",
          "ticks": 14040,
          "time": 43.875,
          "velocity": 0.4330708661417323
        },
        {
          "duration": 0.375,
          "durationTicks": 120,
          "midi": 53,
          "name": "F3",
          "ticks": 14160,
          "time": 44.25,
          "velocity": 0.4330708661417323
        },
        {
          "duration": 0.375,
          "durationTicks": 120,
          "midi": 52,
          "name": "E3",
          "ticks": 14280,
          "time": 44.625,
          "velocity": 0.4330708661417323
        },
        {
          "duration": 0.75,
          "durationTicks": 240,
          "midi": 53,
          "name": "F3",
          "ticks": 14400,
          "time": 45,
          "velocity": 0.4330708661417323
        },
        {
          "duration": 0.75,
          "durationTicks": 240,
          "midi": 53,
          "name": "F3",
          "ticks": 14640,
          "time": 45.75,
          "velocity": 0.4015748031496063
        },
        {
          "duration": 0.75,
          "durationTicks": 240,
          "midi": 57,
          "name": "A3",
          "ticks": 14640,
          "time": 45.75,
          "velocity": 0.4015748031496063
        },
        {
          "duration": 0.75,
          "durationTicks": 240,
          "midi": 53,
          "name": "F3",
          "ticks": 14880,
          "time": 46.5,
          "velocity": 0.4015748031496063
        },
        {
          "duration": 0.75,
          "durationTicks": 240,
          "midi": 57,
          "name": "A3",
          "ticks": 14880,
          "time": 46.5,
          "velocity": 0.4015748031496063
        },
        {
          "duration": 0.75,
          "durationTicks": 240,
          "midi": 53,
          "name": "F3",
          "ticks": 15120,
          "time": 47.25,
          "velocity": 0.4015748031496063
        },
        {
          "duration": 0.75,
          "durationTicks": 240,
          "midi": 57,
          "name": "A3",
          "ticks": 15120,
          "time": 47.25,
          "velocity": 0.4015748031496063
        },
        {
          "duration": 0.75,
          "durationTicks": 240,
          "midi": 53,
          "name": "F3",
          "ticks": 15360,
          "time": 48,
          "velocity": 0.4015748031496063
        },
        {
          "duration": 0.75,
          "durationTicks": 240,
          "midi": 57,
          "name": "A3",
          "ticks": 15360,
          "time": 48,
          "velocity": 0.4015748031496063
        },
        {
          "duration": 0.75,
          "durationTicks": 240,
          "midi": 53,
          "name": "F3",
          "ticks": 15600,
          "time": 48.75,
          "velocity": 0.4015748031496063
        },
        {
          "duration": 0.75,
          "durationTicks": 240,
          "midi": 57,
          "name": "A3",
          "ticks": 15600,
          "time": 48.75,
          "velocity": 0.4015748031496063
        },
        {
          "duration": 0.75,
          "durationTicks": 240,
          "midi": 55,
          "name": "G3",
          "ticks": 15840,
          "time": 49.5,
          "velocity": 0.4015748031496063
        },
        {
          "duration": 0.75,
          "durationTicks": 240,
          "midi": 58,
          "name": "A#3",
          "ticks": 15840,
          "time": 49.5,
          "velocity": 0.4015748031496063
        },
        {
          "duration": 0.75,
          "durationTicks": 240,
          "midi": 55,
          "name": "G3",
          "ticks": 16080,
          "time": 50.25,
          "velocity": 0.4015748031496063
        },
        {
          "duration": 0.75,
          "durationTicks": 240,
          "midi": 58,
          "name": "A#3",
          "ticks": 16080,
          "time": 50.25,
          "velocity": 0.4015748031496063
        },
        {
          "duration": 0.75,
          "durationTicks": 240,
          "midi": 55,
          "name": "G3",
          "ticks": 16320,
          "time": 51,
          "velocity": 0.4015748031496063
        },
        {
          "duration": 0.75,
          "durationTicks": 240,
          "midi": 58,
          "name": "A#3",
          "ticks": 16320,
          "time": 51,
          "velocity": 0.4015748031496063
        },
        {
          "duration": 0.75,
          "durationTicks": 240,
          "midi": 55,
          "name": "G3",
          "ticks": 16560,
          "time": 51.75,
          "velocity": 0.4015748031496063
        },
        {
          "duration": 0.75,
          "durationTicks": 240,
          "midi": 58,
          "name": "A#3",
          "ticks": 16560,
          "time": 51.75,
          "velocity": 0.4015748031496063
        },
        {
          "duration": 0.75,
          "durationTicks": 240,
          "midi": 55,
          "name": "G3",
          "ticks": 16800,
          "time": 52.5,
          "velocity": 0.4015748031496063
        },
        {
          "duration": 0.75,
          "durationTicks": 240,
          "midi": 58,
          "name": "A#3",
          "ticks": 16800,
          "time": 52.5,
          "velocity": 0.4015748031496063
        },
        {
          "duration": 0.75,
          "durationTicks": 240,
          "midi": 55,
          "name": "G3",
          "ticks": 17040,
          "time": 53.25,
          "velocity": 0.4015748031496063
        },
        {
          "duration": 0.75,
          "durationTicks": 240,
          "midi": 58,
          "name": "A#3",
          "ticks": 17040,
          "time": 53.25,
          "velocity": 0.4015748031496063
        },
        {
          "duration": 0.75,
          "durationTicks": 240,
          "midi": 55,
          "name": "G3",
          "ticks": 17280,
          "time": 54,
          "velocity": 0.4015748031496063
        },
        {
          "duration": 0.75,
          "durationTicks": 240,
          "midi": 58,
          "name": "A#3",
          "ticks": 17280,
          "time": 54,
          "velocity": 0.4015748031496063
        },
        {
          "duration": 0.75,
          "durationTicks": 240,
          "midi": 55,
          "name": "G3",
          "ticks": 17520,
          "time": 54.75,
          "velocity": 0.4015748031496063
        },
        {
          "duration": 0.75,
          "durationTicks": 240,
          "midi": 58,
          "name": "A#3",
          "ticks": 17520,
          "time": 54.75,
          "velocity": 0.4015748031496063
        },
        {
          "duration": 0.75,
          "durationTicks": 240,
          "midi": 55,
          "name": "G3",
          "ticks": 17760,
          "time": 55.5,
          "velocity": 0.4015748031496063
        },
        {
          "duration": 0.75,
          "durationTicks": 240,
          "midi": 58,
          "name": "A#3",
          "ticks": 17760,
          "time": 55.5,
          "velocity": 0.4015748031496063
        },
        {
          "duration": 0.75,
          "durationTicks": 240,
          "midi": 52,
          "name": "E3",
          "ticks": 18000,
          "time": 56.25,
          "velocity": 0.4015748031496063
        },
        {
          "duration": 0.75,
          "durationTicks": 240,
          "midi": 55,
          "name": "G3",
          "ticks": 18000,
          "time": 56.25,
          "velocity": 0.4015748031496063
        },
        {
          "duration": 0.75,
          "durationTicks": 240,
          "midi": 52,
          "name": "E3",
          "ticks": 18240,
          "time": 57,
          "velocity": 0.4015748031496063
        },
        {
          "duration": 0.75,
          "durationTicks": 240,
          "midi": 55,
          "name": "G3",
          "ticks": 18240,
          "time": 57,
          "velocity": 0.4015748031496063
        },
        {
          "duration": 0.75,
          "durationTicks": 240,
          "midi": 52,
          "name": "E3",
          "ticks": 18480,
          "time": 57.75,
          "velocity": 0.4015748031496063
        },
        {
          "duration": 0.75,
          "durationTicks": 240,
          "midi": 55,
          "name": "G3",
          "ticks": 18480,
          "time": 57.75,
          "velocity": 0.4015748031496063
        },
        {
          "duration": 0.75,
          "durationTicks": 240,
          "midi": 53,
          "name": "F3",
          "ticks": 18720,
          "time": 58.5,
          "velocity": 0.4015748031496063
        },
        {
          "duration": 0.75,
          "durationTicks": 240,
          "midi": 57,
          "name": "A3",
          "ticks": 18720,
          "time": 58.5,
          "velocity": 0.4015748031496063
        },
        {
          "duration": 0.75,
          "durationTicks": 240,
          "midi": 57,
          "name": "A3",
          "ticks": 18960,
          "time": 59.25,
          "velocity": 0.4015748031496063
        },
        {
          "duration": 0.75,
          "durationTicks": 240,
          "midi": 60,
          "name": "C4",
          "ticks": 18960,
          "time": 59.25,
          "velocity": 0.4015748031496063
        },
        {
          "duration": 0.75,
          "durationTicks": 240,
          "midi": 57,
          "name": "A3",
          "ticks": 19200,
          "time": 60,
          "velocity": 0.4015748031496063
        },
        {
          "duration": 0.75,
          "durationTicks": 240,
          "midi": 60,
          "name": "C4",
          "ticks": 19200,
          "time": 60,
          "velocity": 0.4015748031496063
        },
        {
          "duration": 0.75,
          "durationTicks": 240,
          "midi": 57,
          "name": "A3",
          "ticks": 19440,
          "time": 60.75,
          "velocity": 0.4015748031496063
        },
        {
          "duration": 0.75,
          "durationTicks": 240,
          "midi": 60,
          "name": "C4",
          "ticks": 19440,
          "time": 60.75,
          "velocity": 0.4015748031496063
        },
        {
          "duration": 0.75,
          "durationTicks": 240,
          "midi": 57,
          "name": "A3",
          "ticks": 19680,
          "time": 61.5,
          "velocity": 0.4015748031496063
        },
        {
          "duration": 0.75,
          "durationTicks": 240,
          "midi": 60,
          "name": "C4",
          "ticks": 19680,
          "time": 61.5,
          "velocity": 0.4015748031496063
        },
        {
          "duration": 0.75,
          "durationTicks": 240,
          "midi": 57,
          "name": "A3",
          "ticks": 19920,
          "time": 62.25,
          "velocity": 0.4015748031496063
        },
        {
          "duration": 0.75,
          "durationTicks": 240,
          "midi": 60,
          "name": "C4",
          "ticks": 19920,
          "time": 62.25,
          "velocity": 0.4015748031496063
        },
        {
          "duration": 0.75,
          "durationTicks": 240,
          "midi": 55,
          "name": "G3",
          "ticks": 25200,
          "time": 78.75,
          "velocity": 0.4330708661417323
        },
        {
          "duration": 0.75,
          "durationTicks": 240,
          "midi": 60,
          "name": "C4",
          "ticks": 25440,
          "time": 79.5,
          "velocity": 0.4330708661417323
        },
        {
          "duration": 0.75,
          "durationTicks": 240,
          "midi": 63,
          "name": "D#4",
          "ticks": 25680,
          "time": 80.25,
          "velocity": 0.4330708661417323
        },
        {
          "duration": 4.5,
          "durationTicks": 1440,
          "midi": 60,
          "name": "C4",
          "ticks": 25920,
          "time": 81,
          "velocity": 0.4330708661417323
        },
        {
          "duration": 4.5,
          "durationTicks": 1440,
          "midi": 63,
          "name": "D#4",
          "ticks": 25920,
          "time": 81,
          "velocity": 0.4330708661417323
        },
        {
          "duration": 1.5,
          "durationTicks": 480,
          "midi": 62,
          "name": "D4",
          "ticks": 27360,
          "time": 85.5,
          "velocity": 0.4015748031496063
        },
        {
          "duration": 1.5,
          "durationTicks": 480,
          "midi": 65,
          "name": "F4",
          "ticks": 27360,
          "time": 85.5,
          "velocity": 0.4094488188976378
        },
        {
          "duration": 0.75,
          "durationTicks": 240,
          "midi": 56,
          "name": "G#3",
          "ticks": 28080,
          "time": 87.75,
          "velocity": 0.4330708661417323
        },
        {
          "duration": 0.75,
          "durationTicks": 240,
          "midi": 62,
          "name": "D4",
          "ticks": 28320,
          "time": 88.5,
          "velocity": 0.4330708661417323
        },
        {
          "duration": 0.75,
          "durationTicks": 240,
          "midi": 65,
          "name": "F4",
          "ticks": 28560,
          "time": 89.25,
          "velocity": 0.4330708661417323
        },
        {
          "duration": 4.5,
          "durationTicks": 1440,
          "midi": 59,
          "name": "B3",
          "ticks": 28800,
          "time": 90,
          "velocity": 0.4330708661417323
        },
        {
          "duration": 4.5,
          "durationTicks": 1440,
          "midi": 62,
          "name": "D4",
          "ticks": 28800,
          "time": 90,
          "velocity": 0.4330708661417323
        },
        {
          "duration": 1.5,
          "durationTicks": 480,
          "midi": 60,
          "name": "C4",
          "ticks": 30240,
          "time": 94.5,
          "velocity": 0.4330708661417323
        },
        {
          "duration": 1.5,
          "durationTicks": 480,
          "midi": 63,
          "name": "D#4",
          "ticks": 30240,
          "time": 94.5,
          "velocity": 0.4330708661417323
        },
        {
          "duration": 0.75,
          "durationTicks": 240,
          "midi": 60,
          "name": "C4",
          "ticks": 30960,
          "time": 96.75,
          "velocity": 0.4330708661417323
        },
        {
          "duration": 0.75,
          "durationTicks": 240,
          "midi": 63,
          "name": "D#4",
          "ticks": 30960,
          "time": 96.75,
          "velocity": 0.4330708661417323
        },
        {
          "duration": 0.75,
          "durationTicks": 240,
          "midi": 55,
          "name": "G3",
          "ticks": 31200,
          "time": 97.5,
          "velocity": 0.4330708661417323
        },
        {
          "duration": 0.75,
          "durationTicks": 240,
          "midi": 60,
          "name": "C4",
          "ticks": 31200,
          "time": 97.5,
          "velocity": 0.4330708661417323
        },
        {
          "duration": 0.75,
          "durationTicks": 240,
          "midi": 51,
          "name": "D#3",
          "ticks": 31440,
          "time": 98.25,
          "velocity": 0.4330708661417323
        },
        {
          "duration": 0.75,
          "durationTicks": 240,
          "midi": 55,
          "name": "G3",
          "ticks": 31440,
          "time": 98.25,
          "velocity": 0.4330708661417323
        },
        {
          "duration": 1.5,
          "durationTicks": 480,
          "midi": 48,
          "name": "C3",
          "ticks": 31680,
          "time": 99,
          "velocity": 0.5354330708661418
        },
        {
          "duration": 1.5,
          "durationTicks": 480,
          "midi": 51,
          "name": "D#3",
          "ticks": 31680,
          "time": 99,
          "velocity": 0.5354330708661418
        },
        {
          "duration": 1.5,
          "durationTicks": 480,
          "midi": 55,
          "name": "G3",
          "ticks": 32160,
          "time": 100.5,
          "velocity": 0.4409448818897638
        },
        {
          "duration": 1.5,
          "durationTicks": 480,
          "midi": 60,
          "name": "C4",
          "ticks": 32160,
          "time": 100.5,
          "velocity": 0.4409448818897638
        },
        {
          "duration": 3,
          "durationTicks": 960,
          "midi": 56,
          "name": "G#3",
          "ticks": 32640,
          "time": 102,
          "velocity": 0.5354330708661418
        },
        {
          "duration": 1.5,
          "durationTicks": 480,
          "midi": 61,
          "name": "C#4",
          "ticks": 32640,
          "time": 102,
          "velocity": 0.5354330708661418
        },
        {
          "duration": 1.5,
          "durationTicks": 480,
          "midi": 62,
          "name": "D4",
          "ticks": 33120,
          "time": 103.5,
          "velocity": 0.5354330708661418
        },
        {
          "duration": 3,
          "durationTicks": 960,
          "midi": 58,
          "name": "A#3",
          "ticks": 33600,
          "time": 105,
          "velocity": 0.5354330708661418
        },
        {
          "duration": 1.5,
          "durationTicks": 480,
          "midi": 63,
          "name": "D#4",
          "ticks": 33600,
          "time": 105,
          "velocity": 0.4409448818897638
        },
        {
          "duration": 3,
          "durationTicks": 960,
          "midi": 64,
          "name": "E4",
          "ticks": 34080,
          "time": 106.5,
          "velocity": 0.5354330708661418
        },
        {
          "duration": 3,
          "durationTicks": 960,
          "midi": 60,
          "name": "C4",
          "ticks": 34560,
          "time": 108,
          "velocity": 0.5354330708661418
        },
        {
          "duration": 1.5,
          "durationTicks": 480,
          "midi": 65,
          "name": "F4",
          "ticks": 35040,
          "time": 109.5,
          "velocity": 0.5354330708661418
        },
        {
          "duration": 3,
          "durationTicks": 960,
          "midi": 59,
          "name": "B3",
          "ticks": 35520,
          "time": 111,
          "velocity": 0.5354330708661418
        },
        {
          "duration": 1.5,
          "durationTicks": 480,
          "midi": 65,
          "name": "F4",
          "ticks": 35520,
          "time": 111,
          "velocity": 0.5354330708661418
        },
        {
          "duration": 1.5,
          "durationTicks": 480,
          "midi": 66,
          "name": "F#4",
          "ticks": 36000,
          "time": 112.5,
          "velocity": 0.5354330708661418
        },
        {
          "duration": 1.5,
          "durationTicks": 480,
          "midi": 55,
          "name": "G3",
          "ticks": 38880,
          "time": 121.62982456666666,
          "velocity": 0.28346456692913385
        },
        {
          "duration": 1.5,
          "durationTicks": 480,
          "midi": 60,
          "name": "C4",
          "ticks": 38880,
          "time": 121.62982456666666,
          "velocity": 0.29133858267716534
        },
        {
          "duration": 1.5,
          "durationTicks": 480,
          "midi": 59,
          "name": "B3",
          "ticks": 39360,
          "time": 123.12982456666666,
          "velocity": 0.28346456692913385
        },
        {
          "duration": 1.5,
          "durationTicks": 480,
          "midi": 62,
          "name": "D4",
          "ticks": 39360,
          "time": 123.12982456666666,
          "velocity": 0.29133858267716534
        },
        {
          "duration": 1.5,
          "durationTicks": 480,
          "midi": 60,
          "name": "C4",
          "ticks": 39840,
          "time": 124.62982456666666,
          "velocity": 0.28346456692913385
        },
        {
          "duration": 1.5,
          "durationTicks": 480,
          "midi": 64,
          "name": "E4",
          "ticks": 39840,
          "time": 124.62982456666666,
          "velocity": 0.29133858267716534
        },
        {
          "duration": 1.5,
          "durationTicks": 480,
          "midi": 62,
          "name": "D4",
          "ticks": 40320,
          "time": 126.12982456666666,
          "velocity": 0.28346456692913385
        },
        {
          "duration": 1.5,
          "durationTicks": 480,
          "midi": 65,
          "name": "F4",
          "ticks": 40320,
          "time": 126.12982456666666,
          "velocity": 0.29133858267716534
        },
        {
          "duration": 1.5,
          "durationTicks": 480,
          "midi": 59,
          "name": "B3",
          "ticks": 40800,
          "time": 127.62982456666666,
          "velocity": 0.28346456692913385
        },
        {
          "duration": 0.75,
          "durationTicks": 240,
          "midi": 62,
          "name": "D4",
          "ticks": 40800,
          "time": 127.62982456666666,
          "velocity": 0.29133858267716534
        },
        {
          "duration": 1.5,
          "durationTicks": 480,
          "midi": 59,
          "name": "B3",
          "ticks": 41760,
          "time": 130.62982456666666,
          "velocity": 0.28346456692913385
        },
        {
          "duration": 1.5,
          "durationTicks": 480,
          "midi": 62,
          "name": "D4",
          "ticks": 41760,
          "time": 130.62982456666666,
          "velocity": 0.29133858267716534
        },
        {
          "duration": 1.5,
          "durationTicks": 480,
          "midi": 60,
          "name": "C4",
          "ticks": 42240,
          "time": 132.12982456666666,
          "velocity": 0.28346456692913385
        },
        {
          "duration": 1.5,
          "durationTicks": 480,
          "midi": 64,
          "name": "E4",
          "ticks": 42240,
          "time": 132.12982456666666,
          "velocity": 0.29133858267716534
        },
        {
          "duration": 1.5,
          "durationTicks": 480,
          "midi": 62,
          "name": "D4",
          "ticks": 42720,
          "time": 133.62982456666666,
          "velocity": 0.28346456692913385
        },
        {
          "duration": 1.5,
          "durationTicks": 480,
          "midi": 65,
          "name": "F4",
          "ticks": 42720,
          "time": 133.62982456666666,
          "velocity": 0.29133858267716534
        },
        {
          "duration": 1.5,
          "durationTicks": 480,
          "midi": 64,
          "name": "E4",
          "ticks": 43200,
          "time": 135.12982456666666,
          "velocity": 0.28346456692913385
        },
        {
          "duration": 1.5,
          "durationTicks": 480,
          "midi": 67,
          "name": "G4",
          "ticks": 43200,
          "time": 135.12982456666666,
          "velocity": 0.29133858267716534
        },
        {
          "duration": 0.75,
          "durationTicks": 240,
          "midi": 60,
          "name": "C4",
          "ticks": 43680,
          "time": 136.62982456666666,
          "velocity": 0.28346456692913385
        },
        {
          "duration": 0.75,
          "durationTicks": 240,
          "midi": 64,
          "name": "E4",
          "ticks": 43680,
          "time": 136.62982456666666,
          "velocity": 0.29133858267716534
        },
        {
          "duration": 1.5,
          "durationTicks": 480,
          "midi": 55,
          "name": "G3",
          "ticks": 44640,
          "time": 139.62982456666666,
          "velocity": 0.3937007874015748
        },
        {
          "duration": 1.5,
          "durationTicks": 480,
          "midi": 61,
          "name": "C#4",
          "ticks": 44640,
          "time": 139.62982456666666,
          "velocity": 0.3937007874015748
        },
        {
          "duration": 1.5,
          "durationTicks": 480,
          "midi": 54,
          "name": "F#3",
          "ticks": 45120,
          "time": 141.12982456666666,
          "velocity": 0.3937007874015748
        },
        {
          "duration": 1.5,
          "durationTicks": 480,
          "midi": 60,
          "name": "C4",
          "ticks": 45120,
          "time": 141.12982456666666,
          "velocity": 0.3937007874015748
        },
        {
          "duration": 1.5,
          "durationTicks": 480,
          "midi": 53,
          "name": "F3",
          "ticks": 45600,
          "time": 142.62982456666666,
          "velocity": 0.3937007874015748
        },
        {
          "duration": 1.5,
          "durationTicks": 480,
          "midi": 59,
          "name": "B3",
          "ticks": 45600,
          "time": 142.62982456666666,
          "velocity": 0.3937007874015748
        },
        {
          "duration": 1.5,
          "durationTicks": 480,
          "midi": 52,
          "name": "E3",
          "ticks": 46080,
          "time": 144.12982456666666,
          "velocity": 0.3937007874015748
        },
        {
          "duration": 1.5,
          "durationTicks": 480,
          "midi": 58,
          "name": "A#3",
          "ticks": 46080,
          "time": 144.12982456666666,
          "velocity": 0.3937007874015748
        },
        {
          "duration": 1.5,
          "durationTicks": 480,
          "midi": 53,
          "name": "F3",
          "ticks": 46560,
          "time": 145.62982456666666,
          "velocity": 0.3937007874015748
        },
        {
          "duration": 1.5,
          "durationTicks": 480,
          "midi": 57,
          "name": "A3",
          "ticks": 46560,
          "time": 145.62982456666666,
          "velocity": 0.3937007874015748
        },
        {
          "duration": 0.75,
          "durationTicks": 240,
          "midi": 55,
          "name": "G3",
          "ticks": 47040,
          "time": 147.12982456666666,
          "velocity": 0.3937007874015748
        },
        {
          "duration": 0.75,
          "durationTicks": 240,
          "midi": 59,
          "name": "B3",
          "ticks": 47040,
          "time": 147.12982456666666,
          "velocity": 0.3937007874015748
        },
        {
          "duration": 0.75,
          "durationTicks": 240,
          "midi": 57,
          "name": "A3",
          "ticks": 47280,
          "time": 147.87982456666666,
          "velocity": 0.3937007874015748
        },
        {
          "duration": 0.75,
          "durationTicks": 240,
          "midi": 60,
          "name": "C4",
          "ticks": 47280,
          "time": 147.87982456666666,
          "velocity": 0.3937007874015748
        },
        {
          "duration": 0.75,
          "durationTicks": 240,
          "midi": 55,
          "name": "G3",
          "ticks": 49200,
          "time": 153.87982456666666,
          "velocity": 0.3937007874015748
        },
        {
          "duration": 0.75,
          "durationTicks": 240,
          "midi": 61,
          "name": "C#4",
          "ticks": 49200,
          "time": 153.87982456666666,
          "velocity": 0.3937007874015748
        },
        {
          "duration": 0.75,
          "durationTicks": 240,
          "midi": 54,
          "name": "F#3",
          "ticks": 49680,
          "time": 155.37982456666666,
          "velocity": 0.3937007874015748
        },
        {
          "duration": 0.75,
          "durationTicks": 240,
          "midi": 60,
          "name": "C4",
          "ticks": 49680,
          "time": 155.37982456666666,
          "velocity": 0.3937007874015748
        },
        {
          "duration": 0.75,
          "durationTicks": 240,
          "midi": 53,
          "name": "F3",
          "ticks": 50160,
          "time": 156.87982456666666,
          "velocity": 0.3937007874015748
        },
        {
          "duration": 0.75,
          "durationTicks": 240,
          "midi": 59,
          "name": "B3",
          "ticks": 50160,
          "time": 156.87982456666666,
          "velocity": 0.3937007874015748
        },
        {
          "duration": 0.75,
          "durationTicks": 240,
          "midi": 52,
          "name": "E3",
          "ticks": 50636,
          "time": 158.36732456666667,
          "velocity": 0.3937007874015748
        },
        {
          "duration": 0.75,
          "durationTicks": 240,
          "midi": 58,
          "name": "A#3",
          "ticks": 50656,
          "time": 158.42982456666667,
          "velocity": 0.3937007874015748
        },
        {
          "duration": 0.75,
          "durationTicks": 240,
          "midi": 53,
          "name": "F3",
          "ticks": 51116,
          "time": 159.86732456666667,
          "velocity": 0.3937007874015748
        },
        {
          "duration": 0.75,
          "durationTicks": 240,
          "midi": 57,
          "name": "A3",
          "ticks": 51120,
          "time": 159.87982456666666,
          "velocity": 0.3937007874015748
        },
        {
          "duration": 0.75,
          "durationTicks": 240,
          "midi": 59,
          "name": "B3",
          "ticks": 51352,
          "time": 160.60482456666665,
          "velocity": 0.3937007874015748
        },
        {
          "duration": 0.75,
          "durationTicks": 240,
          "midi": 55,
          "name": "G3",
          "ticks": 51368,
          "time": 160.65482456666666,
          "velocity": 0.3937007874015748
        },
        {
          "duration": 0.75,
          "durationTicks": 240,
          "midi": 57,
          "name": "A3",
          "ticks": 51592,
          "time": 161.35482456666665,
          "velocity": 0.3937007874015748
        },
        {
          "duration": 0.75,
          "durationTicks": 240,
          "midi": 60,
          "name": "C4",
          "ticks": 51600,
          "time": 161.37982456666666,
          "velocity": 0.3937007874015748
        },
        {
          "duration": 1.5,
          "durationTicks": 480,
          "midi": 50,
          "name": "D3",
          "ticks": 51840,
          "time": 162.12982456666666,
          "velocity": 0.3937007874015748
        },
        {
          "duration": 1.5,
          "durationTicks": 480,
          "midi": 50,
          "name": "D3",
          "ticks": 51848,
          "time": 162.15482456666666,
          "velocity": 0.3937007874015748
        },
        {
          "duration": 0.75,
          "durationTicks": 240,
          "midi": 52,
          "name": "E3",
          "ticks": 52320,
          "time": 163.62982456666666,
          "velocity": 0.4015748031496063
        },
        {
          "duration": 0.75,
          "durationTicks": 240,
          "midi": 52,
          "name": "E3",
          "ticks": 52324,
          "time": 163.64232456666667,
          "velocity": 0.4015748031496063
        },
        {
          "duration": 0.75,
          "durationTicks": 240,
          "midi": 53,
          "name": "F3",
          "ticks": 52560,
          "time": 164.37982456666666,
          "velocity": 0.41732283464566927
        },
        {
          "duration": 0.75,
          "durationTicks": 240,
          "midi": 53,
          "name": "F3",
          "ticks": 52560,
          "time": 164.37982456666666,
          "velocity": 0.41732283464566927
        },
        {
          "duration": 1.5,
          "durationTicks": 480,
          "midi": 46,
          "name": "A#2",
          "ticks": 52792,
          "time": 165.10482456666665,
          "velocity": 0.4251968503937008
        },
        {
          "duration": 1.5,
          "durationTicks": 480,
          "midi": 46,
          "name": "A#2",
          "ticks": 52796,
          "time": 165.11732456666667,
          "velocity": 0.4251968503937008
        },
        {
          "duration": 0.75,
          "durationTicks": 240,
          "midi": 48,
          "name": "C3",
          "ticks": 53280,
          "time": 166.62982456666666,
          "velocity": 0.5118110236220472
        },
        {
          "duration": 0.75,
          "durationTicks": 240,
          "midi": 48,
          "name": "C3",
          "ticks": 53284,
          "time": 166.64232456666667,
          "velocity": 0.4409448818897638
        },
        {
          "duration": 0.75,
          "durationTicks": 240,
          "midi": 59,
          "name": "B3",
          "ticks": 53516,
          "time": 167.36732456666667,
          "velocity": 0.4409448818897638
        },
        {
          "duration": 0.75,
          "durationTicks": 240,
          "midi": 59,
          "name": "B3",
          "ticks": 53528,
          "time": 167.40482456666666,
          "velocity": 0.4409448818897638
        },
        {
          "duration": 0.75,
          "durationTicks": 240,
          "midi": 60,
          "name": "C4",
          "ticks": 53748,
          "time": 168.09232456666666,
          "velocity": 0.4409448818897638
        },
        {
          "duration": 0.75,
          "durationTicks": 240,
          "midi": 60,
          "name": "C4",
          "ticks": 53764,
          "time": 168.14232456666667,
          "velocity": 0.4409448818897638
        },
        {
          "duration": 0.700000000000017,
          "durationTicks": 224,
          "midi": 57,
          "name": "A3",
          "ticks": 54000,
          "time": 168.87982456666666,
          "velocity": 0.4409448818897638
        },
        {
          "duration": 0.700000000000017,
          "durationTicks": 224,
          "midi": 65,
          "name": "F4",
          "ticks": 54000,
          "time": 168.87982456666666,
          "velocity": 0.4409448818897638
        },
        {
          "duration": 0.700000000000017,
          "durationTicks": 224,
          "midi": 64,
          "name": "E4",
          "ticks": 54232,
          "time": 169.60482456666665,
          "velocity": 0.4409448818897638
        },
        {
          "duration": 0.6999999999999886,
          "durationTicks": 224,
          "midi": 55,
          "name": "G3",
          "ticks": 54236,
          "time": 169.61732456666667,
          "velocity": 0.4409448818897638
        },
        {
          "duration": 0.6999999999999886,
          "durationTicks": 224,
          "midi": 53,
          "name": "F3",
          "ticks": 54468,
          "time": 170.34232456666666,
          "velocity": 0.4409448818897638
        },
        {
          "duration": 0.700000000000017,
          "durationTicks": 224,
          "midi": 62,
          "name": "D4",
          "ticks": 54472,
          "time": 170.35482456666665,
          "velocity": 0.4409448818897638
        },
        {
          "duration": 1.5,
          "durationTicks": 480,
          "midi": 52,
          "name": "E3",
          "ticks": 54720,
          "time": 171.12982456666666,
          "velocity": 0.4409448818897638
        },
        {
          "duration": 1.5,
          "durationTicks": 480,
          "midi": 60,
          "name": "C4",
          "ticks": 54720,
          "time": 171.12982456666666,
          "velocity": 0.4409448818897638
        },
        {
          "duration": 0.19999999999998863,
          "durationTicks": 64,
          "midi": 48,
          "name": "C3",
          "ticks": 56240,
          "time": 175.87982456666668,
          "velocity": 0.4094488188976378
        },
        {
          "duration": 0.19999999999998863,
          "durationTicks": 64,
          "midi": 52,
          "name": "E3",
          "ticks": 56240,
          "time": 175.87982456666668,
          "velocity": 0.4094488188976378
        },
        {
          "duration": 0.20000000000001705,
          "durationTicks": 64,
          "midi": 48,
          "name": "C3",
          "ticks": 56320,
          "time": 176.12982456666666,
          "velocity": 0.4094488188976378
        },
        {
          "duration": 0.20000000000001705,
          "durationTicks": 64,
          "midi": 52,
          "name": "E3",
          "ticks": 56320,
          "time": 176.12982456666666,
          "velocity": 0.4094488188976378
        },
        {
          "duration": 0.2500000000000284,
          "durationTicks": 80,
          "midi": 48,
          "name": "C3",
          "ticks": 56400,
          "time": 176.37982456666666,
          "velocity": 0.4094488188976378
        },
        {
          "duration": 0.2500000000000284,
          "durationTicks": 80,
          "midi": 52,
          "name": "E3",
          "ticks": 56400,
          "time": 176.37982456666666,
          "velocity": 0.4094488188976378
        },
        {
          "duration": 0.17499999999995453,
          "durationTicks": 56,
          "midi": 52,
          "name": "E3",
          "ticks": 56480,
          "time": 176.62982456666668,
          "velocity": 0.4094488188976378
        },
        {
          "duration": 0.17499999999995453,
          "durationTicks": 56,
          "midi": 55,
          "name": "G3",
          "ticks": 56480,
          "time": 176.62982456666668,
          "velocity": 0.4094488188976378
        },
        {
          "duration": 0.20000000000001705,
          "durationTicks": 64,
          "midi": 52,
          "name": "E3",
          "ticks": 56560,
          "time": 176.87982456666666,
          "velocity": 0.4094488188976378
        },
        {
          "duration": 0.20000000000001705,
          "durationTicks": 64,
          "midi": 55,
          "name": "G3",
          "ticks": 56560,
          "time": 176.87982456666666,
          "velocity": 0.4094488188976378
        },
        {
          "duration": 0.2500000000000284,
          "durationTicks": 80,
          "midi": 52,
          "name": "E3",
          "ticks": 56640,
          "time": 177.12982456666666,
          "velocity": 0.4094488188976378
        },
        {
          "duration": 0.2500000000000284,
          "durationTicks": 80,
          "midi": 55,
          "name": "G3",
          "ticks": 56640,
          "time": 177.12982456666666,
          "velocity": 0.4094488188976378
        },
        {
          "duration": 0.1624999999999659,
          "durationTicks": 52,
          "midi": 55,
          "name": "G3",
          "ticks": 56720,
          "time": 177.37982456666668,
          "velocity": 0.4094488188976378
        },
        {
          "duration": 0.1624999999999659,
          "durationTicks": 52,
          "midi": 60,
          "name": "C4",
          "ticks": 56720,
          "time": 177.37982456666668,
          "velocity": 0.4094488188976378
        },
        {
          "duration": 0.20000000000001705,
          "durationTicks": 64,
          "midi": 55,
          "name": "G3",
          "ticks": 56800,
          "time": 177.62982456666666,
          "velocity": 0.4094488188976378
        },
        {
          "duration": 0.20000000000001705,
          "durationTicks": 64,
          "midi": 60,
          "name": "C4",
          "ticks": 56800,
          "time": 177.62982456666666,
          "velocity": 0.4094488188976378
        },
        {
          "duration": 0.2500000000000284,
          "durationTicks": 80,
          "midi": 55,
          "name": "G3",
          "ticks": 56880,
          "time": 177.87982456666666,
          "velocity": 0.4094488188976378
        },
        {
          "duration": 0.2500000000000284,
          "durationTicks": 80,
          "midi": 60,
          "name": "C4",
          "ticks": 56880,
          "time": 177.87982456666666,
          "velocity": 0.4094488188976378
        },
        {
          "duration": 0.17499999999995453,
          "durationTicks": 56,
          "midi": 60,
          "name": "C4",
          "ticks": 56960,
          "time": 178.12982456666668,
          "velocity": 0.4094488188976378
        },
        {
          "duration": 0.17499999999995453,
          "durationTicks": 56,
          "midi": 64,
          "name": "E4",
          "ticks": 56960,
          "time": 178.12982456666668,
          "velocity": 0.4094488188976378
        },
        {
          "duration": 0.17500000000001137,
          "durationTicks": 56,
          "midi": 60,
          "name": "C4",
          "ticks": 57040,
          "time": 178.37982456666666,
          "velocity": 0.4094488188976378
        },
        {
          "duration": 0.17500000000001137,
          "durationTicks": 56,
          "midi": 64,
          "name": "E4",
          "ticks": 57040,
          "time": 178.37982456666666,
          "velocity": 0.4094488188976378
        },
        {
          "duration": 1.5,
          "durationTicks": 480,
          "midi": 59,
          "name": "B3",
          "ticks": 57120,
          "time": 178.62982456666666,
          "velocity": 0.4094488188976378
        },
        {
          "duration": 0.75,
          "durationTicks": 240,
          "midi": 65,
          "name": "F4",
          "ticks": 57120,
          "time": 178.62982456666666,
          "velocity": 0.4094488188976378
        },
        {
          "duration": 0.5625,
          "durationTicks": 180,
          "midi": 62,
          "name": "D4",
          "ticks": 57360,
          "time": 179.37982456666666,
          "velocity": 0.4094488188976378
        },
        {
          "duration": 0.1875,
          "durationTicks": 60,
          "midi": 67,
          "name": "G4",
          "ticks": 57540,
          "time": 179.94232456666666,
          "velocity": 0.4094488188976378
        },
        {
          "duration": 0.75,
          "durationTicks": 240,
          "midi": 60,
          "name": "C4",
          "ticks": 57600,
          "time": 180.12982456666666,
          "velocity": 0.4094488188976378
        },
        {
          "duration": 0.75,
          "durationTicks": 240,
          "midi": 67,
          "name": "G4",
          "ticks": 57600,
          "time": 180.12982456666666,
          "velocity": 0.4094488188976378
        },
        {
          "duration": 0.19999999999998863,
          "durationTicks": 64,
          "midi": 48,
          "name": "C3",
          "ticks": 59120,
          "time": 184.87982456666668,
          "velocity": 0.4094488188976378
        },
        {
          "duration": 0.19999999999998863,
          "durationTicks": 64,
          "midi": 52,
          "name": "E3",
          "ticks": 59120,
          "time": 184.87982456666668,
          "velocity": 0.4094488188976378
        },
        {
          "duration": 0.20000000000001705,
          "durationTicks": 64,
          "midi": 48,
          "name": "C3",
          "ticks": 59200,
          "time": 185.12982456666666,
          "velocity": 0.4094488188976378
        },
        {
          "duration": 0.20000000000001705,
          "durationTicks": 64,
          "midi": 52,
          "name": "E3",
          "ticks": 59200,
          "time": 185.12982456666666,
          "velocity": 0.4094488188976378
        },
        {
          "duration": 0.2500000000000284,
          "durationTicks": 80,
          "midi": 48,
          "name": "C3",
          "ticks": 59280,
          "time": 185.37982456666666,
          "velocity": 0.4094488188976378
        },
        {
          "duration": 0.2500000000000284,
          "durationTicks": 80,
          "midi": 52,
          "name": "E3",
          "ticks": 59280,
          "time": 185.37982456666666,
          "velocity": 0.4094488188976378
        },
        {
          "duration": 0.17499999999995453,
          "durationTicks": 56,
          "midi": 52,
          "name": "E3",
          "ticks": 59360,
          "time": 185.62982456666668,
          "velocity": 0.4094488188976378
        },
        {
          "duration": 0.17499999999995453,
          "durationTicks": 56,
          "midi": 55,
          "name": "G3",
          "ticks": 59360,
          "time": 185.62982456666668,
          "velocity": 0.4094488188976378
        },
        {
          "duration": 0.20000000000001705,
          "durationTicks": 64,
          "midi": 52,
          "name": "E3",
          "ticks": 59440,
          "time": 185.87982456666666,
          "velocity": 0.4094488188976378
        },
        {
          "duration": 0.20000000000001705,
          "durationTicks": 64,
          "midi": 55,
          "name": "G3",
          "ticks": 59440,
          "time": 185.87982456666666,
          "velocity": 0.4094488188976378
        },
        {
          "duration": 0.2500000000000284,
          "durationTicks": 80,
          "midi": 52,
          "name": "E3",
          "ticks": 59520,
          "time": 186.12982456666666,
          "velocity": 0.4094488188976378
        },
        {
          "duration": 0.2500000000000284,
          "durationTicks": 80,
          "midi": 55,
          "name": "G3",
          "ticks": 59520,
          "time": 186.12982456666666,
          "velocity": 0.4094488188976378
        },
        {
          "duration": 0.1624999999999659,
          "durationTicks": 52,
          "midi": 55,
          "name": "G3",
          "ticks": 59600,
          "time": 186.37982456666668,
          "velocity": 0.4094488188976378
        },
        {
          "duration": 0.1624999999999659,
          "durationTicks": 52,
          "midi": 60,
          "name": "C4",
          "ticks": 59600,
          "time": 186.37982456666668,
          "velocity": 0.4094488188976378
        },
        {
          "duration": 0.20000000000001705,
          "durationTicks": 64,
          "midi": 55,
          "name": "G3",
          "ticks": 59680,
          "time": 186.62982456666666,
          "velocity": 0.4094488188976378
        },
        {
          "duration": 0.20000000000001705,
          "durationTicks": 64,
          "midi": 60,
          "name": "C4",
          "ticks": 59680,
          "time": 186.62982456666666,
          "velocity": 0.4094488188976378
        },
        {
          "duration": 0.2500000000000284,
          "durationTicks": 80,
          "midi": 55,
          "name": "G3",
          "ticks": 59760,
          "time": 186.87982456666666,
          "velocity": 0.4094488188976378
        },
        {
          "duration": 0.2500000000000284,
          "durationTicks": 80,
          "midi": 60,
          "name": "C4",
          "ticks": 59760,
          "time": 186.87982456666666,
          "velocity": 0.4094488188976378
        },
        {
          "duration": 0.17499999999995453,
          "durationTicks": 56,
          "midi": 60,
          "name": "C4",
          "ticks": 59840,
          "time": 187.12982456666668,
          "velocity": 0.4094488188976378
        },
        {
          "duration": 0.17499999999995453,
          "durationTicks": 56,
          "midi": 64,
          "name": "E4",
          "ticks": 59840,
          "time": 187.12982456666668,
          "velocity": 0.4094488188976378
        },
        {
          "duration": 0.17500000000001137,
          "durationTicks": 56,
          "midi": 60,
          "name": "C4",
          "ticks": 59920,
          "time": 187.37982456666666,
          "velocity": 0.4094488188976378
        },
        {
          "duration": 0.17500000000001137,
          "durationTicks": 56,
          "midi": 64,
          "name": "E4",
          "ticks": 59920,
          "time": 187.37982456666666,
          "velocity": 0.4094488188976378
        },
        {
          "duration": 1.5,
          "durationTicks": 480,
          "midi": 55,
          "name": "G3",
          "ticks": 60000,
          "time": 187.62982456666666,
          "velocity": 0.4094488188976378
        },
        {
          "duration": 1.125,
          "durationTicks": 360,
          "midi": 67,
          "name": "G4",
          "ticks": 60000,
          "time": 187.62982456666666,
          "velocity": 0.4094488188976378
        },
        {
          "duration": 0.375,
          "durationTicks": 120,
          "midi": 65,
          "name": "F4",
          "ticks": 60360,
          "time": 188.75482456666666,
          "velocity": 0.4094488188976378
        },
        {
          "duration": 2.328702100000015,
          "durationTicks": 720,
          "midi": 55,
          "name": "G3",
          "ticks": 60480,
          "time": 189.12982456666666,
          "velocity": 0.3779527559055118
        },
        {
          "duration": 1.5115386000000228,
          "durationTicks": 480,
          "midi": 65,
          "name": "F4",
          "ticks": 60480,
          "time": 189.12982456666666,
          "velocity": 0.3937007874015748
        },
        {
          "duration": 0.8171634999999924,
          "durationTicks": 240,
          "midi": 64,
          "name": "E4",
          "ticks": 60960,
          "time": 190.64136316666668,
          "velocity": 0.3858267716535433
        },
        {
          "duration": 0.7499998250000033,
          "durationTicks": 228,
          "midi": 61,
          "name": "C#4",
          "ticks": 65520,
          "time": 205.08166434999998,
          "velocity": 0.4094488188976378
        },
        {
          "duration": 0.7499998250000033,
          "durationTicks": 228,
          "midi": 64,
          "name": "E4",
          "ticks": 65520,
          "time": 205.08166434999998,
          "velocity": 0.4094488188976378
        },
        {
          "duration": 0.7702704499999982,
          "durationTicks": 228,
          "midi": 61,
          "name": "C#4",
          "ticks": 65760,
          "time": 205.87184909999996,
          "velocity": 0.4094488188976378
        },
        {
          "duration": 0.7702704499999982,
          "durationTicks": 228,
          "midi": 64,
          "name": "E4",
          "ticks": 65760,
          "time": 205.87184909999996,
          "velocity": 0.4094488188976378
        },
        {
          "duration": 0.7702704499999982,
          "durationTicks": 228,
          "midi": 61,
          "name": "C#4",
          "ticks": 66000,
          "time": 206.68266009999996,
          "velocity": 0.4094488188976378
        },
        {
          "duration": 0.7702704499999982,
          "durationTicks": 228,
          "midi": 64,
          "name": "E4",
          "ticks": 66000,
          "time": 206.68266009999996,
          "velocity": 0.4094488188976378
        },
        {
          "duration": 4.5,
          "durationTicks": 1440,
          "midi": 62,
          "name": "D4",
          "ticks": 66240,
          "time": 207.49144406666665,
          "velocity": 0.5354330708661418
        },
        {
          "duration": 4.5,
          "durationTicks": 1440,
          "midi": 65,
          "name": "F4",
          "ticks": 66240,
          "time": 207.49144406666665,
          "velocity": 0.5354330708661418
        },
        {
          "duration": 1.5,
          "durationTicks": 480,
          "midi": 58,
          "name": "A#3",
          "ticks": 67680,
          "time": 211.99144406666665,
          "velocity": 0.4251968503937008
        },
        {
          "duration": 1.5,
          "durationTicks": 480,
          "midi": 64,
          "name": "E4",
          "ticks": 67680,
          "time": 211.99144406666665,
          "velocity": 0.4251968503937008
        },
        {
          "duration": 0.75,
          "durationTicks": 240,
          "midi": 58,
          "name": "A#3",
          "ticks": 68400,
          "time": 214.24144406666665,
          "velocity": 0.41732283464566927
        },
        {
          "duration": 0.75,
          "durationTicks": 240,
          "midi": 64,
          "name": "E4",
          "ticks": 68400,
          "time": 214.24144406666665,
          "velocity": 0.41732283464566927
        },
        {
          "duration": 0.75,
          "durationTicks": 240,
          "midi": 55,
          "name": "G3",
          "ticks": 68640,
          "time": 214.99144406666665,
          "velocity": 0.41732283464566927
        },
        {
          "duration": 0.75,
          "durationTicks": 240,
          "midi": 58,
          "name": "A#3",
          "ticks": 68640,
          "time": 214.99144406666665,
          "velocity": 0.41732283464566927
        },
        {
          "duration": 0.75,
          "durationTicks": 240,
          "midi": 52,
          "name": "E3",
          "ticks": 68880,
          "time": 215.74144406666665,
          "velocity": 0.41732283464566927
        },
        {
          "duration": 0.75,
          "durationTicks": 240,
          "midi": 55,
          "name": "G3",
          "ticks": 68880,
          "time": 215.74144406666665,
          "velocity": 0.41732283464566927
        },
        {
          "duration": 4.5,
          "durationTicks": 1440,
          "midi": 58,
          "name": "A#3",
          "ticks": 69120,
          "time": 216.49144406666665,
          "velocity": 0.5354330708661418
        },
        {
          "duration": 4.5,
          "durationTicks": 1440,
          "midi": 64,
          "name": "E4",
          "ticks": 69120,
          "time": 216.49144406666665,
          "velocity": 0.5354330708661418
        },
        {
          "duration": 1.5,
          "durationTicks": 480,
          "midi": 59,
          "name": "B3",
          "ticks": 70560,
          "time": 220.99144406666665,
          "velocity": 0.4251968503937008
        },
        {
          "duration": 1.5,
          "durationTicks": 480,
          "midi": 66,
          "name": "F#4",
          "ticks": 70560,
          "time": 220.99144406666665,
          "velocity": 0.4251968503937008
        },
        {
          "duration": 0.75,
          "durationTicks": 240,
          "midi": 63,
          "name": "D#4",
          "ticks": 71280,
          "time": 223.24144406666665,
          "velocity": 0.41732283464566927
        },
        {
          "duration": 0.75,
          "durationTicks": 240,
          "midi": 66,
          "name": "F#4",
          "ticks": 71280,
          "time": 223.24144406666665,
          "velocity": 0.41732283464566927
        },
        {
          "duration": 0.75,
          "durationTicks": 240,
          "midi": 60,
          "name": "C4",
          "ticks": 71520,
          "time": 223.99144406666665,
          "velocity": 0.41732283464566927
        },
        {
          "duration": 0.75,
          "durationTicks": 240,
          "midi": 63,
          "name": "D#4",
          "ticks": 71520,
          "time": 223.99144406666665,
          "velocity": 0.41732283464566927
        },
        {
          "duration": 0.75,
          "durationTicks": 240,
          "midi": 57,
          "name": "A3",
          "ticks": 71760,
          "time": 224.74144406666665,
          "velocity": 0.41732283464566927
        },
        {
          "duration": 0.75,
          "durationTicks": 240,
          "midi": 60,
          "name": "C4",
          "ticks": 71760,
          "time": 224.74144406666665,
          "velocity": 0.41732283464566927
        },
        {
          "duration": 1.5,
          "durationTicks": 480,
          "midi": 58,
          "name": "A#3",
          "ticks": 72000,
          "time": 225.49144406666665,
          "velocity": 0.5354330708661418
        },
        {
          "duration": 4.5,
          "durationTicks": 1440,
          "midi": 63,
          "name": "D#4",
          "ticks": 72000,
          "time": 225.49144406666665,
          "velocity": 0.5354330708661418
        },
        {
          "duration": 1.5,
          "durationTicks": 480,
          "midi": 54,
          "name": "F#3",
          "ticks": 72480,
          "time": 226.99144406666665,
          "velocity": 0.5354330708661418
        },
        {
          "duration": 1.5,
          "durationTicks": 480,
          "midi": 53,
          "name": "F3",
          "ticks": 72960,
          "time": 228.49144406666665,
          "velocity": 0.5354330708661418
        },
        {
          "duration": 3,
          "durationTicks": 960,
          "midi": 58,
          "name": "A#3",
          "ticks": 73440,
          "time": 229.99144406666665,
          "velocity": 0.5354330708661418
        },
        {
          "duration": 1.4625000000000057,
          "durationTicks": 468,
          "midi": 61,
          "name": "C#4",
          "ticks": 73440,
          "time": 229.99144406666665,
          "velocity": 0.5354330708661418
        },
        {
          "duration": 1.5,
          "durationTicks": 480,
          "midi": 60,
          "name": "C4",
          "ticks": 73920,
          "time": 231.49144406666665,
          "velocity": 0.5354330708661418
        },
        {
          "duration": 1.5,
          "durationTicks": 480,
          "midi": 56,
          "name": "G#3",
          "ticks": 74400,
          "time": 232.99144406666665,
          "velocity": 0.5354330708661418
        },
        {
          "duration": 3,
          "durationTicks": 960,
          "midi": 65,
          "name": "F4",
          "ticks": 74400,
          "time": 232.99144406666665,
          "velocity": 0.5354330708661418
        },
        {
          "duration": 1.5,
          "durationTicks": 480,
          "midi": 55,
          "name": "G3",
          "ticks": 74880,
          "time": 234.49144406666665,
          "velocity": 0.5354330708661418
        },
        {
          "duration": 3,
          "durationTicks": 960,
          "midi": 60,
          "name": "C4",
          "ticks": 75360,
          "time": 235.99144406666665,
          "velocity": 0.5354330708661418
        },
        {
          "duration": 1.4625000000000057,
          "durationTicks": 468,
          "midi": 63,
          "name": "D#4",
          "ticks": 75360,
          "time": 235.99144406666665,
          "velocity": 0.5354330708661418
        },
        {
          "duration": 1.5,
          "durationTicks": 480,
          "midi": 62,
          "name": "D4",
          "ticks": 75840,
          "time": 237.49144406666665,
          "velocity": 0.5354330708661418
        },
        {
          "duration": 1.5,
          "durationTicks": 480,
          "midi": 58,
          "name": "A#3",
          "ticks": 76320,
          "time": 238.99144406666665,
          "velocity": 0.5354330708661418
        },
        {
          "duration": 3,
          "durationTicks": 960,
          "midi": 67,
          "name": "G4",
          "ticks": 76320,
          "time": 238.99144406666665,
          "velocity": 0.5354330708661418
        },
        {
          "duration": 4.5,
          "durationTicks": 1440,
          "midi": 57,
          "name": "A3",
          "ticks": 76800,
          "time": 240.49144406666665,
          "velocity": 0.5354330708661418
        },
        {
          "duration": 3,
          "durationTicks": 960,
          "midi": 65,
          "name": "F4",
          "ticks": 77280,
          "time": 241.99144406666665,
          "velocity": 0.5354330708661418
        },
        {
          "duration": 1.5,
          "durationTicks": 480,
          "midi": 55,
          "name": "G3",
          "ticks": 78240,
          "time": 244.99144406666665,
          "velocity": 0.5354330708661418
        },
        {
          "duration": 1.5,
          "durationTicks": 480,
          "midi": 63,
          "name": "D#4",
          "ticks": 78240,
          "time": 244.99144406666665,
          "velocity": 0.5354330708661418
        },
        {
          "duration": 1.5,
          "durationTicks": 480,
          "midi": 53,
          "name": "F3",
          "ticks": 78720,
          "time": 246.49144406666665,
          "velocity": 0.5354330708661418
        },
        {
          "duration": 1.5,
          "durationTicks": 480,
          "midi": 62,
          "name": "D4",
          "ticks": 78720,
          "time": 246.49144406666665,
          "velocity": 0.5354330708661418
        },
        {
          "duration": 0.75,
          "durationTicks": 240,
          "midi": 52,
          "name": "E3",
          "ticks": 79200,
          "time": 247.99144406666665,
          "velocity": 0.5354330708661418
        },
        {
          "duration": 0.75,
          "durationTicks": 240,
          "midi": 61,
          "name": "C#4",
          "ticks": 79200,
          "time": 247.99144406666665,
          "velocity": 0.5354330708661418
        },
        {
          "duration": 0.25,
          "durationTicks": 80,
          "midi": 57,
          "name": "A3",
          "ticks": 80160,
          "time": 250.99144406666665,
          "velocity": 0.4409448818897638
        },
        {
          "duration": 0.25,
          "durationTicks": 80,
          "midi": 56,
          "name": "G#3",
          "ticks": 80240,
          "time": 251.24144406666665,
          "velocity": 0.4330708661417323
        },
        {
          "duration": 0.25,
          "durationTicks": 80,
          "midi": 57,
          "name": "A3",
          "ticks": 80320,
          "time": 251.49144406666665,
          "velocity": 0.4251968503937008
        },
        {
          "duration": 0.25,
          "durationTicks": 80,
          "midi": 61,
          "name": "C#4",
          "ticks": 80400,
          "time": 251.74144406666665,
          "velocity": 0.4251968503937008
        },
        {
          "duration": 0.25,
          "durationTicks": 80,
          "midi": 59,
          "name": "B3",
          "ticks": 80480,
          "time": 251.99144406666665,
          "velocity": 0.41732283464566927
        },
        {
          "duration": 0.25,
          "durationTicks": 80,
          "midi": 57,
          "name": "A3",
          "ticks": 80560,
          "time": 252.24144406666665,
          "velocity": 0.4094488188976378
        },
        {
          "duration": 1.621190466666576,
          "durationTicks": 480,
          "midi": 58,
          "name": "A#3",
          "ticks": 84480,
          "time": 264.49657233333335,
          "velocity": 0.4330708661417323
        },
        {
          "duration": 1.621190466666576,
          "durationTicks": 480,
          "midi": 64,
          "name": "E4",
          "ticks": 84480,
          "time": 264.49657233333335,
          "velocity": 0.4330708661417323
        },
        {
          "duration": 0.75,
          "durationTicks": 240,
          "midi": 57,
          "name": "A3",
          "ticks": 84960,
          "time": 266.1177627999999,
          "velocity": 0.4330708661417323
        },
        {
          "duration": 0.75,
          "durationTicks": 240,
          "midi": 65,
          "name": "F4",
          "ticks": 84960,
          "time": 266.1177627999999,
          "velocity": 0.4330708661417323
        },
        {
          "duration": 0.75,
          "durationTicks": 240,
          "midi": 58,
          "name": "A#3",
          "ticks": 90720,
          "time": 284.1177627999999,
          "velocity": 0.3937007874015748
        },
        {
          "duration": 0.75,
          "durationTicks": 240,
          "midi": 62,
          "name": "D4",
          "ticks": 90720,
          "time": 284.1177627999999,
          "velocity": 0.3937007874015748
        },
        {
          "duration": 0.75,
          "durationTicks": 240,
          "midi": 58,
          "name": "A#3",
          "ticks": 90960,
          "time": 284.8677627999999,
          "velocity": 0.3937007874015748
        },
        {
          "duration": 0.75,
          "durationTicks": 240,
          "midi": 62,
          "name": "D4",
          "ticks": 90960,
          "time": 284.8677627999999,
          "velocity": 0.3937007874015748
        },
        {
          "duration": 0.75,
          "durationTicks": 240,
          "midi": 58,
          "name": "A#3",
          "ticks": 91200,
          "time": 285.6177627999999,
          "velocity": 0.3937007874015748
        },
        {
          "duration": 0.75,
          "durationTicks": 240,
          "midi": 62,
          "name": "D4",
          "ticks": 91200,
          "time": 285.6177627999999,
          "velocity": 0.3937007874015748
        },
        {
          "duration": 0.75,
          "durationTicks": 240,
          "midi": 58,
          "name": "A#3",
          "ticks": 91440,
          "time": 286.3677627999999,
          "velocity": 0.3937007874015748
        },
        {
          "duration": 0.75,
          "durationTicks": 240,
          "midi": 62,
          "name": "D4",
          "ticks": 91440,
          "time": 286.3677627999999,
          "velocity": 0.3937007874015748
        },
        {
          "duration": 0.75,
          "durationTicks": 240,
          "midi": 58,
          "name": "A#3",
          "ticks": 91680,
          "time": 287.1177627999999,
          "velocity": 0.3937007874015748
        },
        {
          "duration": 0.75,
          "durationTicks": 240,
          "midi": 62,
          "name": "D4",
          "ticks": 91680,
          "time": 287.1177627999999,
          "velocity": 0.3937007874015748
        },
        {
          "duration": 0.75,
          "durationTicks": 240,
          "midi": 58,
          "name": "A#3",
          "ticks": 91920,
          "time": 287.8677627999999,
          "velocity": 0.3937007874015748
        },
        {
          "duration": 0.75,
          "durationTicks": 240,
          "midi": 62,
          "name": "D4",
          "ticks": 91920,
          "time": 287.8677627999999,
          "velocity": 0.3937007874015748
        },
        {
          "duration": 0.75,
          "durationTicks": 240,
          "midi": 60,
          "name": "C4",
          "ticks": 92160,
          "time": 288.6177627999999,
          "velocity": 0.3937007874015748
        },
        {
          "duration": 0.75,
          "durationTicks": 240,
          "midi": 63,
          "name": "D#4",
          "ticks": 92160,
          "time": 288.6177627999999,
          "velocity": 0.3937007874015748
        },
        {
          "duration": 0.75,
          "durationTicks": 240,
          "midi": 60,
          "name": "C4",
          "ticks": 92400,
          "time": 289.3677627999999,
          "velocity": 0.3937007874015748
        },
        {
          "duration": 0.75,
          "durationTicks": 240,
          "midi": 63,
          "name": "D#4",
          "ticks": 92400,
          "time": 289.3677627999999,
          "velocity": 0.3937007874015748
        },
        {
          "duration": 0.75,
          "durationTicks": 240,
          "midi": 60,
          "name": "C4",
          "ticks": 92640,
          "time": 290.1177627999999,
          "velocity": 0.3937007874015748
        },
        {
          "duration": 0.75,
          "durationTicks": 240,
          "midi": 63,
          "name": "D#4",
          "ticks": 92640,
          "time": 290.1177627999999,
          "velocity": 0.3937007874015748
        },
        {
          "duration": 0.75,
          "durationTicks": 240,
          "midi": 60,
          "name": "C4",
          "ticks": 92880,
          "time": 290.8677627999999,
          "velocity": 0.3937007874015748
        },
        {
          "duration": 0.75,
          "durationTicks": 240,
          "midi": 63,
          "name": "D#4",
          "ticks": 92880,
          "time": 290.8677627999999,
          "velocity": 0.3937007874015748
        },
        {
          "duration": 0.75,
          "durationTicks": 240,
          "midi": 60,
          "name": "C4",
          "ticks": 93120,
          "time": 291.6177627999999,
          "velocity": 0.3937007874015748
        },
        {
          "duration": 0.75,
          "durationTicks": 240,
          "midi": 63,
          "name": "D#4",
          "ticks": 93120,
          "time": 291.6177627999999,
          "velocity": 0.3937007874015748
        },
        {
          "duration": 0.75,
          "durationTicks": 240,
          "midi": 60,
          "name": "C4",
          "ticks": 93360,
          "time": 292.3677627999999,
          "velocity": 0.3937007874015748
        },
        {
          "duration": 0.75,
          "durationTicks": 240,
          "midi": 63,
          "name": "D#4",
          "ticks": 93360,
          "time": 292.3677627999999,
          "velocity": 0.3937007874015748
        },
        {
          "duration": 0.75,
          "durationTicks": 240,
          "midi": 60,
          "name": "C4",
          "ticks": 93600,
          "time": 293.1177627999999,
          "velocity": 0.3937007874015748
        },
        {
          "duration": 0.75,
          "durationTicks": 240,
          "midi": 63,
          "name": "D#4",
          "ticks": 93600,
          "time": 293.1177627999999,
          "velocity": 0.3937007874015748
        },
        {
          "duration": 0.75,
          "durationTicks": 240,
          "midi": 60,
          "name": "C4",
          "ticks": 93840,
          "time": 293.8677627999999,
          "velocity": 0.3937007874015748
        },
        {
          "duration": 0.75,
          "durationTicks": 240,
          "midi": 63,
          "name": "D#4",
          "ticks": 93840,
          "time": 293.8677627999999,
          "velocity": 0.3937007874015748
        },
        {
          "duration": 0.75,
          "durationTicks": 240,
          "midi": 60,
          "name": "C4",
          "ticks": 94080,
          "time": 294.6177627999999,
          "velocity": 0.3937007874015748
        },
        {
          "duration": 0.75,
          "durationTicks": 240,
          "midi": 63,
          "name": "D#4",
          "ticks": 94080,
          "time": 294.6177627999999,
          "velocity": 0.3937007874015748
        },
        {
          "duration": 0.75,
          "durationTicks": 240,
          "midi": 60,
          "name": "C4",
          "ticks": 94320,
          "time": 295.3677627999999,
          "velocity": 0.3937007874015748
        },
        {
          "duration": 0.75,
          "durationTicks": 240,
          "midi": 63,
          "name": "D#4",
          "ticks": 94320,
          "time": 295.3677627999999,
          "velocity": 0.3937007874015748
        },
        {
          "duration": 0.75,
          "durationTicks": 240,
          "midi": 60,
          "name": "C4",
          "ticks": 94560,
          "time": 296.1177627999999,
          "velocity": 0.3937007874015748
        },
        {
          "duration": 0.75,
          "durationTicks": 240,
          "midi": 63,
          "name": "D#4",
          "ticks": 94560,
          "time": 296.1177627999999,
          "velocity": 0.3937007874015748
        },
        {
          "duration": 0.75,
          "durationTicks": 240,
          "midi": 57,
          "name": "A3",
          "ticks": 94800,
          "time": 296.8677627999999,
          "velocity": 0.3937007874015748
        },
        {
          "duration": 0.75,
          "durationTicks": 240,
          "midi": 60,
          "name": "C4",
          "ticks": 94800,
          "time": 296.8677627999999,
          "velocity": 0.3937007874015748
        },
        {
          "duration": 0.5625,
          "durationTicks": 180,
          "midi": 58,
          "name": "A#3",
          "ticks": 95040,
          "time": 297.6177627999999,
          "velocity": 0.48031496062992124
        },
        {
          "duration": 0.1875,
          "durationTicks": 60,
          "midi": 46,
          "name": "A#2",
          "ticks": 95220,
          "time": 298.1802627999999,
          "velocity": 0.48031496062992124
        },
        {
          "duration": 0.5625,
          "durationTicks": 180,
          "midi": 50,
          "name": "D3",
          "ticks": 95280,
          "time": 298.3677627999999,
          "velocity": 0.48031496062992124
        },
        {
          "duration": 0.1875,
          "durationTicks": 60,
          "midi": 53,
          "name": "F3",
          "ticks": 95460,
          "time": 298.9302627999999,
          "velocity": 0.48031496062992124
        },
        {
          "duration": 0.5250000000000341,
          "durationTicks": 168,
          "midi": 58,
          "name": "A#3",
          "ticks": 95520,
          "time": 299.1177627999999,
          "velocity": 0.48031496062992124
        },
        {
          "duration": 0.5250000000000341,
          "durationTicks": 168,
          "midi": 46,
          "name": "A#2",
          "ticks": 95760,
          "time": 299.8677627999999,
          "velocity": 0.48031496062992124
        },
        {
          "duration": 0.1875,
          "durationTicks": 60,
          "midi": 48,
          "name": "C3",
          "ticks": 96180,
          "time": 301.1802627999999,
          "velocity": 0.48031496062992124
        },
        {
          "duration": 0.5625,
          "durationTicks": 180,
          "midi": 54,
          "name": "F#3",
          "ticks": 96240,
          "time": 301.3677627999999,
          "velocity": 0.48031496062992124
        },
        {
          "duration": 0.1875,
          "durationTicks": 60,
          "midi": 57,
          "name": "A3",
          "ticks": 96420,
          "time": 301.9302627999999,
          "velocity": 0.48031496062992124
        },
        {
          "duration": 0.5250000000000341,
          "durationTicks": 168,
          "midi": 60,
          "name": "C4",
          "ticks": 96480,
          "time": 302.1177627999999,
          "velocity": 0.48031496062992124
        },
        {
          "duration": 0.5250000000000341,
          "durationTicks": 168,
          "midi": 48,
          "name": "C3",
          "ticks": 96720,
          "time": 302.8677627999999,
          "velocity": 0.48031496062992124
        },
        {
          "duration": 0.1875,
          "durationTicks": 60,
          "midi": 46,
          "name": "A#2",
          "ticks": 97140,
          "time": 304.1802627999999,
          "velocity": 0.48031496062992124
        },
        {
          "duration": 0.5625,
          "durationTicks": 180,
          "midi": 50,
          "name": "D3",
          "ticks": 97200,
          "time": 304.3677627999999,
          "velocity": 0.48031496062992124
        },
        {
          "duration": 0.1875,
          "durationTicks": 60,
          "midi": 55,
          "name": "G3",
          "ticks": 97380,
          "time": 304.9302627999999,
          "velocity": 0.48031496062992124
        },
        {
          "duration": 0.5250000000000341,
          "durationTicks": 168,
          "midi": 58,
          "name": "A#3",
          "ticks": 97440,
          "time": 305.1177627999999,
          "velocity": 0.48031496062992124
        },
        {
          "duration": 0.5250000000000341,
          "durationTicks": 168,
          "midi": 46,
          "name": "A#2",
          "ticks": 97680,
          "time": 305.8677627999999,
          "velocity": 0.48031496062992124
        },
        {
          "duration": 0.1875,
          "durationTicks": 60,
          "midi": 46,
          "name": "A#2",
          "ticks": 98100,
          "time": 307.1802627999999,
          "velocity": 0.48031496062992124
        },
        {
          "duration": 0.5625,
          "durationTicks": 180,
          "midi": 52,
          "name": "E3",
          "ticks": 98160,
          "time": 307.3677627999999,
          "velocity": 0.48031496062992124
        },
        {
          "duration": 0.1875,
          "durationTicks": 60,
          "midi": 55,
          "name": "G3",
          "ticks": 98340,
          "time": 307.9302627999999,
          "velocity": 0.48031496062992124
        },
        {
          "duration": 0.5250000000000341,
          "durationTicks": 168,
          "midi": 58,
          "name": "A#3",
          "ticks": 98400,
          "time": 308.1177627999999,
          "velocity": 0.48031496062992124
        },
        {
          "duration": 0.5250000000000341,
          "durationTicks": 168,
          "midi": 46,
          "name": "A#2",
          "ticks": 98640,
          "time": 308.8677627999999,
          "velocity": 0.48031496062992124
        },
        {
          "duration": 0.1875,
          "durationTicks": 60,
          "midi": 45,
          "name": "A2",
          "ticks": 99060,
          "time": 310.1802627999999,
          "velocity": 0.48031496062992124
        },
        {
          "duration": 0.5625,
          "durationTicks": 180,
          "midi": 48,
          "name": "C3",
          "ticks": 99120,
          "time": 310.3677627999999,
          "velocity": 0.48031496062992124
        },
        {
          "duration": 0.1875,
          "durationTicks": 60,
          "midi": 53,
          "name": "F3",
          "ticks": 99300,
          "time": 310.9302627999999,
          "velocity": 0.48031496062992124
        },
        {
          "duration": 0.5250000000000341,
          "durationTicks": 168,
          "midi": 57,
          "name": "A3",
          "ticks": 99360,
          "time": 311.1177627999999,
          "velocity": 0.48031496062992124
        },
        {
          "duration": 0.5250000000000341,
          "durationTicks": 168,
          "midi": 45,
          "name": "A2",
          "ticks": 99600,
          "time": 311.8677627999999,
          "velocity": 0.41732283464566927
        },
        {
          "duration": 0.1875,
          "durationTicks": 60,
          "midi": 50,
          "name": "D3",
          "ticks": 100020,
          "time": 313.1802627999999,
          "velocity": 0.41732283464566927
        },
        {
          "duration": 0.5625,
          "durationTicks": 180,
          "midi": 53,
          "name": "F3",
          "ticks": 100080,
          "time": 313.3677627999999,
          "velocity": 0.41732283464566927
        },
        {
          "duration": 0.1875,
          "durationTicks": 60,
          "midi": 59,
          "name": "B3",
          "ticks": 100260,
          "time": 313.9302627999999,
          "velocity": 0.41732283464566927
        },
        {
          "duration": 0.5250000000000341,
          "durationTicks": 168,
          "midi": 62,
          "name": "D4",
          "ticks": 100320,
          "time": 314.1177627999999,
          "velocity": 0.41732283464566927
        },
        {
          "duration": 0.5250000000000341,
          "durationTicks": 168,
          "midi": 50,
          "name": "D3",
          "ticks": 100560,
          "time": 314.8677627999999,
          "velocity": 0.41732283464566927
        },
        {
          "duration": 0.6500000000000341,
          "durationTicks": 208,
          "midi": 48,
          "name": "C3",
          "ticks": 100800,
          "time": 315.6177627999999,
          "velocity": 0.5354330708661418
        },
        {
          "duration": 0.5625,
          "durationTicks": 180,
          "midi": 55,
          "name": "G3",
          "ticks": 101040,
          "time": 316.3677627999999,
          "velocity": 0.5354330708661418
        },
        {
          "duration": 0.5625,
          "durationTicks": 180,
          "midi": 64,
          "name": "E4",
          "ticks": 101040,
          "time": 316.3677627999999,
          "velocity": 0.5354330708661418
        },
        {
          "duration": 0.1875,
          "durationTicks": 60,
          "midi": 55,
          "name": "G3",
          "ticks": 101220,
          "time": 316.9302627999999,
          "velocity": 0.5354330708661418
        },
        {
          "duration": 0.1875,
          "durationTicks": 60,
          "midi": 64,
          "name": "E4",
          "ticks": 101220,
          "time": 316.9302627999999,
          "velocity": 0.5354330708661418
        },
        {
          "duration": 0.7000000000000455,
          "durationTicks": 224,
          "midi": 55,
          "name": "G3",
          "ticks": 101280,
          "time": 317.1177627999999,
          "velocity": 0.5354330708661418
        },
        {
          "duration": 0.7000000000000455,
          "durationTicks": 224,
          "midi": 64,
          "name": "E4",
          "ticks": 101280,
          "time": 317.1177627999999,
          "velocity": 0.5354330708661418
        },
        {
          "duration": 0.7000000000000455,
          "durationTicks": 224,
          "midi": 55,
          "name": "G3",
          "ticks": 101520,
          "time": 317.8677627999999,
          "velocity": 0.5354330708661418
        },
        {
          "duration": 0.7000000000000455,
          "durationTicks": 224,
          "midi": 64,
          "name": "E4",
          "ticks": 101520,
          "time": 317.8677627999999,
          "velocity": 0.5354330708661418
        },
        {
          "duration": 0.7000000000000455,
          "durationTicks": 224,
          "midi": 55,
          "name": "G3",
          "ticks": 101760,
          "time": 318.6177627999999,
          "velocity": 0.5354330708661418
        },
        {
          "duration": 0.7000000000000455,
          "durationTicks": 224,
          "midi": 64,
          "name": "E4",
          "ticks": 101760,
          "time": 318.6177627999999,
          "velocity": 0.5354330708661418
        },
        {
          "duration": 0.7000000000000455,
          "durationTicks": 224,
          "midi": 55,
          "name": "G3",
          "ticks": 102000,
          "time": 319.3677627999999,
          "velocity": 0.5354330708661418
        },
        {
          "duration": 0.7000000000000455,
          "durationTicks": 224,
          "midi": 64,
          "name": "E4",
          "ticks": 102000,
          "time": 319.3677627999999,
          "velocity": 0.5354330708661418
        },
        {
          "duration": 0.6500000000000341,
          "durationTicks": 208,
          "midi": 48,
          "name": "C3",
          "ticks": 102240,
          "time": 320.1177627999999,
          "velocity": 0.5354330708661418
        },
        {
          "duration": 0.5625,
          "durationTicks": 180,
          "midi": 55,
          "name": "G3",
          "ticks": 102480,
          "time": 320.8677627999999,
          "velocity": 0.5354330708661418
        },
        {
          "duration": 0.5625,
          "durationTicks": 180,
          "midi": 64,
          "name": "E4",
          "ticks": 102480,
          "time": 320.8677627999999,
          "velocity": 0.5354330708661418
        },
        {
          "duration": 0.1875,
          "durationTicks": 60,
          "midi": 55,
          "name": "G3",
          "ticks": 102660,
          "time": 321.4302627999999,
          "velocity": 0.5354330708661418
        },
        {
          "duration": 0.1875,
          "durationTicks": 60,
          "midi": 64,
          "name": "E4",
          "ticks": 102660,
          "time": 321.4302627999999,
          "velocity": 0.5354330708661418
        },
        {
          "duration": 0.7000000000000455,
          "durationTicks": 224,
          "midi": 55,
          "name": "G3",
          "ticks": 102720,
          "time": 321.6177627999999,
          "velocity": 0.5354330708661418
        },
        {
          "duration": 0.7000000000000455,
          "durationTicks": 224,
          "midi": 64,
          "name": "E4",
          "ticks": 102720,
          "time": 321.6177627999999,
          "velocity": 0.5354330708661418
        },
        {
          "duration": 0.7000000000000455,
          "durationTicks": 224,
          "midi": 55,
          "name": "G3",
          "ticks": 102960,
          "time": 322.3677627999999,
          "velocity": 0.5354330708661418
        },
        {
          "duration": 0.7000000000000455,
          "durationTicks": 224,
          "midi": 64,
          "name": "E4",
          "ticks": 102960,
          "time": 322.3677627999999,
          "velocity": 0.5354330708661418
        },
        {
          "duration": 0.7000000000000455,
          "durationTicks": 224,
          "midi": 55,
          "name": "G3",
          "ticks": 103200,
          "time": 323.1177627999999,
          "velocity": 0.5354330708661418
        },
        {
          "duration": 0.7000000000000455,
          "durationTicks": 224,
          "midi": 64,
          "name": "E4",
          "ticks": 103200,
          "time": 323.1177627999999,
          "velocity": 0.5354330708661418
        },
        {
          "duration": 0.7000000000000455,
          "durationTicks": 224,
          "midi": 55,
          "name": "G3",
          "ticks": 103440,
          "time": 323.8677627999999,
          "velocity": 0.5354330708661418
        },
        {
          "duration": 0.7000000000000455,
          "durationTicks": 224,
          "midi": 64,
          "name": "E4",
          "ticks": 103440,
          "time": 323.8677627999999,
          "velocity": 0.5354330708661418
        },
        {
          "duration": 0.75,
          "durationTicks": 240,
          "midi": 55,
          "name": "G3",
          "ticks": 103680,
          "time": 324.6177627999999,
          "velocity": 0.48031496062992124
        },
        {
          "duration": 0.75,
          "durationTicks": 240,
          "midi": 64,
          "name": "E4",
          "ticks": 103680,
          "time": 324.6177627999999,
          "velocity": 0.48031496062992124
        },
        {
          "duration": 1.5,
          "durationTicks": 480,
          "midi": 60,
          "name": "C4",
          "ticks": 103928,
          "time": 325.39276279999996,
          "velocity": 0.41732283464566927
        },
        {
          "duration": 0.75,
          "durationTicks": 240,
          "midi": 61,
          "name": "C#4",
          "ticks": 104400,
          "time": 326.8677627999999,
          "velocity": 0.41732283464566927
        },
        {
          "duration": 0.75,
          "durationTicks": 240,
          "midi": 60,
          "name": "C4",
          "ticks": 104624,
          "time": 327.56776279999997,
          "velocity": 0.41732283464566927
        },
        {
          "duration": 0.75,
          "durationTicks": 240,
          "midi": 59,
          "name": "B3",
          "ticks": 104868,
          "time": 328.33026279999996,
          "velocity": 0.41732283464566927
        },
        {
          "duration": 2.25,
          "durationTicks": 720,
          "midi": 60,
          "name": "C4",
          "ticks": 105120,
          "time": 329.1177627999999,
          "velocity": 0.49606299212598426
        },
        {
          "duration": 0.75,
          "durationTicks": 240,
          "midi": 61,
          "name": "C#4",
          "ticks": 105840,
          "time": 331.3677627999999,
          "velocity": 0.41732283464566927
        },
        {
          "duration": 0.75,
          "durationTicks": 240,
          "midi": 60,
          "name": "C4",
          "ticks": 106080,
          "time": 332.1177627999999,
          "velocity": 0.41732283464566927
        },
        {
          "duration": 0.75,
          "durationTicks": 240,
          "midi": 59,
          "name": "B3",
          "ticks": 106320,
          "time": 332.8677627999999,
          "velocity": 0.41732283464566927
        },
        {
          "duration": 1.75,
          "durationTicks": 560,
          "midi": 60,
          "name": "C4",
          "ticks": 106560,
          "time": 333.6177627999999,
          "velocity": 0.41732283464566927
        },
        {
          "duration": 0.25,
          "durationTicks": 80,
          "midi": 61,
          "name": "C#4",
          "ticks": 107120,
          "time": 335.3677627999999,
          "velocity": 0.41732283464566927
        },
        {
          "duration": 0.25,
          "durationTicks": 80,
          "midi": 62,
          "name": "D4",
          "ticks": 107200,
          "time": 335.6177627999999,
          "velocity": 0.41732283464566927
        },
        {
          "duration": 0.19999999999998863,
          "durationTicks": 64,
          "midi": 60,
          "name": "C4",
          "ticks": 107284,
          "time": 335.88026279999997,
          "velocity": 0.41732283464566927
        },
        {
          "duration": 0.20855259166665974,
          "durationTicks": 64,
          "midi": 58,
          "name": "A#3",
          "ticks": 107364,
          "time": 336.13026279999997,
          "velocity": 0.41732283464566927
        },
        {
          "duration": 0.2105262666667045,
          "durationTicks": 64,
          "midi": 57,
          "name": "A3",
          "ticks": 107440,
          "time": 336.3782890666666,
          "velocity": 0.41732283464566927
        },
        {
          "duration": 0.2108818916667019,
          "durationTicks": 64,
          "midi": 55,
          "name": "G3",
          "ticks": 107516,
          "time": 336.62828900833324,
          "velocity": 0.41732283464566927
        },
        {
          "duration": 0.21621626666666316,
          "durationTicks": 64,
          "midi": 53,
          "name": "F3",
          "ticks": 107596,
          "time": 336.89322496666665,
          "velocity": 0.41732283464566927
        },
        {
          "duration": 0.21621626666666316,
          "durationTicks": 64,
          "midi": 52,
          "name": "E3",
          "ticks": 107680,
          "time": 337.1770088166666,
          "velocity": 0.41732283464566927
        },
        {
          "duration": 0.27627633333332824,
          "durationTicks": 80,
          "midi": 60,
          "name": "C4",
          "ticks": 107760,
          "time": 337.44727915,
          "velocity": 0.41732283464566927
        },
        {
          "duration": 0.2777778333333458,
          "durationTicks": 80,
          "midi": 58,
          "name": "A#3",
          "ticks": 107840,
          "time": 337.7235554833333,
          "velocity": 0.41732283464566927
        },
        {
          "duration": 0.2750000499999601,
          "durationTicks": 80,
          "midi": 55,
          "name": "G3",
          "ticks": 107920,
          "time": 338.00133331666666,
          "velocity": 0.41732283464566927
        },
        {
          "duration": 1.5,
          "durationTicks": 480,
          "midi": 48,
          "name": "C3",
          "ticks": 108000,
          "time": 338.2763333666666,
          "velocity": 0.3228346456692913
        },
        {
          "duration": 1.5,
          "durationTicks": 480,
          "midi": 53,
          "name": "F3",
          "ticks": 108000,
          "time": 338.2763333666666,
          "velocity": 0.3228346456692913
        },
        {
          "duration": 1.5,
          "durationTicks": 480,
          "midi": 52,
          "name": "E3",
          "ticks": 108480,
          "time": 339.7763333666666,
          "velocity": 0.3228346456692913
        },
        {
          "duration": 1.5,
          "durationTicks": 480,
          "midi": 55,
          "name": "G3",
          "ticks": 108480,
          "time": 339.7763333666666,
          "velocity": 0.3228346456692913
        },
        {
          "duration": 1.5,
          "durationTicks": 480,
          "midi": 53,
          "name": "F3",
          "ticks": 108960,
          "time": 341.2763333666666,
          "velocity": 0.3228346456692913
        },
        {
          "duration": 1.5,
          "durationTicks": 480,
          "midi": 57,
          "name": "A3",
          "ticks": 108960,
          "time": 341.2763333666666,
          "velocity": 0.3228346456692913
        },
        {
          "duration": 1.5,
          "durationTicks": 480,
          "midi": 55,
          "name": "G3",
          "ticks": 109440,
          "time": 342.7763333666666,
          "velocity": 0.3228346456692913
        },
        {
          "duration": 1.5,
          "durationTicks": 480,
          "midi": 58,
          "name": "A#3",
          "ticks": 109440,
          "time": 342.7763333666666,
          "velocity": 0.3228346456692913
        },
        {
          "duration": 0.75,
          "durationTicks": 240,
          "midi": 52,
          "name": "E3",
          "ticks": 109920,
          "time": 344.2763333666666,
          "velocity": 0.3228346456692913
        },
        {
          "duration": 0.75,
          "durationTicks": 240,
          "midi": 55,
          "name": "G3",
          "ticks": 109920,
          "time": 344.2763333666666,
          "velocity": 0.3228346456692913
        },
        {
          "duration": 1.5,
          "durationTicks": 480,
          "midi": 52,
          "name": "E3",
          "ticks": 110880,
          "time": 347.2763333666666,
          "velocity": 0.3228346456692913
        },
        {
          "duration": 1.5,
          "durationTicks": 480,
          "midi": 55,
          "name": "G3",
          "ticks": 110880,
          "time": 347.2763333666666,
          "velocity": 0.3228346456692913
        },
        {
          "duration": 1.5,
          "durationTicks": 480,
          "midi": 53,
          "name": "F3",
          "ticks": 111360,
          "time": 348.7763333666666,
          "velocity": 0.3228346456692913
        },
        {
          "duration": 1.5,
          "durationTicks": 480,
          "midi": 57,
          "name": "A3",
          "ticks": 111360,
          "time": 348.7763333666666,
          "velocity": 0.3228346456692913
        },
        {
          "duration": 1.5,
          "durationTicks": 480,
          "midi": 55,
          "name": "G3",
          "ticks": 111840,
          "time": 350.2763333666666,
          "velocity": 0.3228346456692913
        },
        {
          "duration": 1.5,
          "durationTicks": 480,
          "midi": 58,
          "name": "A#3",
          "ticks": 111840,
          "time": 350.2763333666666,
          "velocity": 0.3228346456692913
        },
        {
          "duration": 1.5,
          "durationTicks": 480,
          "midi": 57,
          "name": "A3",
          "ticks": 112320,
          "time": 351.7763333666666,
          "velocity": 0.3228346456692913
        },
        {
          "duration": 1.5,
          "durationTicks": 480,
          "midi": 60,
          "name": "C4",
          "ticks": 112320,
          "time": 351.7763333666666,
          "velocity": 0.3228346456692913
        },
        {
          "duration": 0.75,
          "durationTicks": 240,
          "midi": 53,
          "name": "F3",
          "ticks": 112800,
          "time": 353.2763333666666,
          "velocity": 0.3228346456692913
        },
        {
          "duration": 0.75,
          "durationTicks": 240,
          "midi": 57,
          "name": "A3",
          "ticks": 112800,
          "time": 353.2763333666666,
          "velocity": 0.3228346456692913
        },
        {
          "duration": 1.5,
          "durationTicks": 480,
          "midi": 54,
          "name": "F#3",
          "ticks": 113760,
          "time": 356.2763333666666,
          "velocity": 0.3937007874015748
        },
        {
          "duration": 1.5,
          "durationTicks": 480,
          "midi": 60,
          "name": "C4",
          "ticks": 113760,
          "time": 356.2763333666666,
          "velocity": 0.3937007874015748
        },
        {
          "duration": 1.5,
          "durationTicks": 480,
          "midi": 53,
          "name": "F3",
          "ticks": 114240,
          "time": 357.7763333666666,
          "velocity": 0.3937007874015748
        },
        {
          "duration": 1.5,
          "durationTicks": 480,
          "midi": 59,
          "name": "B3",
          "ticks": 114240,
          "time": 357.7763333666666,
          "velocity": 0.3937007874015748
        },
        {
          "duration": 1.5,
          "durationTicks": 480,
          "midi": 52,
          "name": "E3",
          "ticks": 114720,
          "time": 359.2763333666666,
          "velocity": 0.3937007874015748
        },
        {
          "duration": 1.5,
          "durationTicks": 480,
          "midi": 58,
          "name": "A#3",
          "ticks": 114720,
          "time": 359.2763333666666,
          "velocity": 0.3937007874015748
        },
        {
          "duration": 1.5,
          "durationTicks": 480,
          "midi": 51,
          "name": "D#3",
          "ticks": 115200,
          "time": 360.7763333666666,
          "velocity": 0.3937007874015748
        },
        {
          "duration": 1.5,
          "durationTicks": 480,
          "midi": 57,
          "name": "A3",
          "ticks": 115200,
          "time": 360.7763333666666,
          "velocity": 0.3937007874015748
        },
        {
          "duration": 0.75,
          "durationTicks": 240,
          "midi": 55,
          "name": "G3",
          "ticks": 115680,
          "time": 362.2763333666666,
          "velocity": 0.3937007874015748
        },
        {
          "duration": 1.5,
          "durationTicks": 480,
          "midi": 58,
          "name": "A#3",
          "ticks": 115920,
          "time": 363.0263333666666,
          "velocity": 0.3937007874015748
        },
        {
          "duration": 0.75,
          "durationTicks": 240,
          "midi": 62,
          "name": "D4",
          "ticks": 115920,
          "time": 363.0263333666666,
          "velocity": 0.3937007874015748
        },
        {
          "duration": 0.75,
          "durationTicks": 240,
          "midi": 64,
          "name": "E4",
          "ticks": 116160,
          "time": 363.7763333666666,
          "velocity": 0.3937007874015748
        },
        {
          "duration": 0.75,
          "durationTicks": 240,
          "midi": 57,
          "name": "A3",
          "ticks": 116400,
          "time": 364.5263333666666,
          "velocity": 0.3937007874015748
        },
        {
          "duration": 0.75,
          "durationTicks": 240,
          "midi": 65,
          "name": "F4",
          "ticks": 116400,
          "time": 364.5263333666666,
          "velocity": 0.3937007874015748
        },
        {
          "duration": 0.75,
          "durationTicks": 240,
          "midi": 54,
          "name": "F#3",
          "ticks": 118320,
          "time": 370.5263333666666,
          "velocity": 0.3700787401574803
        },
        {
          "duration": 0.75,
          "durationTicks": 240,
          "midi": 60,
          "name": "C4",
          "ticks": 118320,
          "time": 370.5263333666666,
          "velocity": 0.3700787401574803
        },
        {
          "duration": 0.75,
          "durationTicks": 240,
          "midi": 53,
          "name": "F3",
          "ticks": 118800,
          "time": 372.0263333666666,
          "velocity": 0.3700787401574803
        },
        {
          "duration": 0.75,
          "durationTicks": 240,
          "midi": 59,
          "name": "B3",
          "ticks": 118800,
          "time": 372.0263333666666,
          "velocity": 0.3700787401574803
        },
        {
          "duration": 0.75,
          "durationTicks": 240,
          "midi": 52,
          "name": "E3",
          "ticks": 119280,
          "time": 373.5263333666666,
          "velocity": 0.3700787401574803
        },
        {
          "duration": 0.75,
          "durationTicks": 240,
          "midi": 58,
          "name": "A#3",
          "ticks": 119280,
          "time": 373.5263333666666,
          "velocity": 0.3700787401574803
        },
        {
          "duration": 0.75,
          "durationTicks": 240,
          "midi": 51,
          "name": "D#3",
          "ticks": 119760,
          "time": 375.0263333666666,
          "velocity": 0.3700787401574803
        },
        {
          "duration": 0.75,
          "durationTicks": 240,
          "midi": 57,
          "name": "A3",
          "ticks": 119760,
          "time": 375.0263333666666,
          "velocity": 0.3700787401574803
        },
        {
          "duration": 1.5,
          "durationTicks": 480,
          "midi": 58,
          "name": "A#3",
          "ticks": 120236,
          "time": 376.51383336666663,
          "velocity": 0.3700787401574803
        },
        {
          "duration": 0.75,
          "durationTicks": 240,
          "midi": 50,
          "name": "D3",
          "ticks": 120240,
          "time": 376.5263333666666,
          "velocity": 0.3700787401574803
        },
        {
          "duration": 0.75,
          "durationTicks": 240,
          "midi": 52,
          "name": "E3",
          "ticks": 120480,
          "time": 377.2763333666666,
          "velocity": 0.3700787401574803
        },
        {
          "duration": 0.75,
          "durationTicks": 240,
          "midi": 57,
          "name": "A3",
          "ticks": 120716,
          "time": 378.01383336666663,
          "velocity": 0.3700787401574803
        },
        {
          "duration": 0.75,
          "durationTicks": 240,
          "midi": 53,
          "name": "F3",
          "ticks": 120720,
          "time": 378.0263333666666,
          "velocity": 0.3700787401574803
        },
        {
          "duration": 1.5,
          "durationTicks": 480,
          "midi": 55,
          "name": "G3",
          "ticks": 120960,
          "time": 378.7763333666666,
          "velocity": 0.3700787401574803
        },
        {
          "duration": 0.75,
          "durationTicks": 240,
          "midi": 58,
          "name": "A#3",
          "ticks": 120960,
          "time": 378.7763333666666,
          "velocity": 0.3700787401574803
        },
        {
          "duration": 0.75,
          "durationTicks": 240,
          "midi": 59,
          "name": "B3",
          "ticks": 121200,
          "time": 379.5263333666666,
          "velocity": 0.3779527559055118
        },
        {
          "duration": 0.75,
          "durationTicks": 240,
          "midi": 57,
          "name": "A3",
          "ticks": 121424,
          "time": 380.22633336666667,
          "velocity": 0.3858267716535433
        },
        {
          "duration": 0.75,
          "durationTicks": 240,
          "midi": 61,
          "name": "C#4",
          "ticks": 121440,
          "time": 380.2763333666666,
          "velocity": 0.3858267716535433
        },
        {
          "duration": 1.5,
          "durationTicks": 480,
          "midi": 62,
          "name": "D4",
          "ticks": 121680,
          "time": 381.0263333666666,
          "velocity": 0.3937007874015748
        },
        {
          "duration": 0.75,
          "durationTicks": 240,
          "midi": 58,
          "name": "A#3",
          "ticks": 121684,
          "time": 381.0388333666666,
          "velocity": 0.3937007874015748
        },
        {
          "duration": 1.5,
          "durationTicks": 480,
          "midi": 51,
          "name": "D#3",
          "ticks": 121920,
          "time": 381.7763333666666,
          "velocity": 0.4015748031496063
        },
        {
          "duration": 1.4500000000000455,
          "durationTicks": 464,
          "midi": 60,
          "name": "C4",
          "ticks": 122160,
          "time": 382.5263333666666,
          "velocity": 0.4094488188976378
        },
        {
          "duration": 0.7000000000000455,
          "durationTicks": 224,
          "midi": 50,
          "name": "D3",
          "ticks": 122400,
          "time": 383.2763333666666,
          "velocity": 0.4251968503937008
        },
        {
          "duration": 1.4500000000000455,
          "durationTicks": 464,
          "midi": 64,
          "name": "E4",
          "ticks": 122636,
          "time": 384.01383336666663,
          "velocity": 0.4330708661417323
        },
        {
          "duration": 0.75,
          "durationTicks": 240,
          "midi": 55,
          "name": "G3",
          "ticks": 122640,
          "time": 384.0263333666666,
          "velocity": 0.4409448818897638
        },
        {
          "duration": 1.4499999999999886,
          "durationTicks": 464,
          "midi": 65,
          "name": "F4",
          "ticks": 122872,
          "time": 384.75133336666664,
          "velocity": 0.4409448818897638
        },
        {
          "duration": 0.75,
          "durationTicks": 240,
          "midi": 57,
          "name": "A3",
          "ticks": 122880,
          "time": 384.7763333666666,
          "velocity": 0.4409448818897638
        },
        {
          "duration": 0.6999999999999886,
          "durationTicks": 224,
          "midi": 62,
          "name": "D4",
          "ticks": 123112,
          "time": 385.50133336666664,
          "velocity": 0.44881889763779526
        },
        {
          "duration": 0.7000000000000455,
          "durationTicks": 224,
          "midi": 58,
          "name": "A#3",
          "ticks": 123120,
          "time": 385.5263333666666,
          "velocity": 0.44881889763779526
        },
        {
          "duration": 0.6999999999999886,
          "durationTicks": 224,
          "midi": 60,
          "name": "C4",
          "ticks": 123352,
          "time": 386.25133336666664,
          "velocity": 0.4645669291338583
        },
        {
          "duration": 0.7000000000000455,
          "durationTicks": 224,
          "midi": 57,
          "name": "A3",
          "ticks": 123360,
          "time": 386.2763333666666,
          "velocity": 0.4645669291338583
        },
        {
          "duration": 0.7000000000000455,
          "durationTicks": 224,
          "midi": 58,
          "name": "A#3",
          "ticks": 123596,
          "time": 387.01383336666663,
          "velocity": 0.47244094488188976
        },
        {
          "duration": 0.7000000000000455,
          "durationTicks": 224,
          "midi": 55,
          "name": "G3",
          "ticks": 123600,
          "time": 387.0263333666666,
          "velocity": 0.47244094488188976
        },
        {
          "duration": 0.6500000000000341,
          "durationTicks": 208,
          "midi": 53,
          "name": "F3",
          "ticks": 123840,
          "time": 387.7763333666666,
          "velocity": 0.3700787401574803
        },
        {
          "duration": 0.6500000000000341,
          "durationTicks": 208,
          "midi": 57,
          "name": "A3",
          "ticks": 123840,
          "time": 387.7763333666666,
          "velocity": 0.3700787401574803
        },
        {
          "duration": 0.75,
          "durationTicks": 240,
          "midi": 57,
          "name": "A3",
          "ticks": 124076,
          "time": 388.51383336666663,
          "velocity": 0.4015748031496063
        },
        {
          "duration": 0.75,
          "durationTicks": 240,
          "midi": 53,
          "name": "F3",
          "ticks": 124080,
          "time": 388.5263333666666,
          "velocity": 0.3937007874015748
        },
        {
          "duration": 0.75,
          "durationTicks": 240,
          "midi": 55,
          "name": "G3",
          "ticks": 124320,
          "time": 389.2763333666666,
          "velocity": 0.3937007874015748
        },
        {
          "duration": 0.75,
          "durationTicks": 240,
          "midi": 58,
          "name": "A#3",
          "ticks": 124320,
          "time": 389.2763333666666,
          "velocity": 0.4015748031496063
        },
        {
          "duration": 0.75,
          "durationTicks": 240,
          "midi": 57,
          "name": "A3",
          "ticks": 124560,
          "time": 390.0263333666666,
          "velocity": 0.3937007874015748
        },
        {
          "duration": 0.75,
          "durationTicks": 240,
          "midi": 60,
          "name": "C4",
          "ticks": 124560,
          "time": 390.0263333666666,
          "velocity": 0.4015748031496063
        },
        {
          "duration": 0.25,
          "durationTicks": 80,
          "midi": 58,
          "name": "A#3",
          "ticks": 124800,
          "time": 390.7763333666666,
          "velocity": 0.4015748031496063
        },
        {
          "duration": 0.25,
          "durationTicks": 80,
          "midi": 62,
          "name": "D4",
          "ticks": 124800,
          "time": 390.7763333666666,
          "velocity": 0.4015748031496063
        },
        {
          "duration": 0.25000000000005684,
          "durationTicks": 80,
          "midi": 57,
          "name": "A3",
          "ticks": 124880,
          "time": 391.0263333666666,
          "velocity": 0.4015748031496063
        },
        {
          "duration": 0.25000000000005684,
          "durationTicks": 80,
          "midi": 61,
          "name": "C#4",
          "ticks": 124880,
          "time": 391.0263333666666,
          "velocity": 0.4015748031496063
        },
        {
          "duration": 0.24999999999994316,
          "durationTicks": 80,
          "midi": 58,
          "name": "A#3",
          "ticks": 124960,
          "time": 391.2763333666667,
          "velocity": 0.4015748031496063
        },
        {
          "duration": 0.24999999999994316,
          "durationTicks": 80,
          "midi": 62,
          "name": "D4",
          "ticks": 124960,
          "time": 391.2763333666667,
          "velocity": 0.4015748031496063
        },
        {
          "duration": 0.25,
          "durationTicks": 80,
          "midi": 62,
          "name": "D4",
          "ticks": 125040,
          "time": 391.5263333666666,
          "velocity": 0.4015748031496063
        },
        {
          "duration": 0.25,
          "durationTicks": 80,
          "midi": 65,
          "name": "F4",
          "ticks": 125040,
          "time": 391.5263333666666,
          "velocity": 0.4015748031496063
        },
        {
          "duration": 0.25000000000005684,
          "durationTicks": 80,
          "midi": 60,
          "name": "C4",
          "ticks": 125120,
          "time": 391.7763333666666,
          "velocity": 0.4015748031496063
        },
        {
          "duration": 0.25000000000005684,
          "durationTicks": 80,
          "midi": 64,
          "name": "E4",
          "ticks": 125120,
          "time": 391.7763333666666,
          "velocity": 0.4015748031496063
        },
        {
          "duration": 0.24999999999994316,
          "durationTicks": 80,
          "midi": 58,
          "name": "A#3",
          "ticks": 125200,
          "time": 392.0263333666667,
          "velocity": 0.4015748031496063
        },
        {
          "duration": 0.24999999999994316,
          "durationTicks": 80,
          "midi": 62,
          "name": "D4",
          "ticks": 125200,
          "time": 392.0263333666667,
          "velocity": 0.4015748031496063
        },
        {
          "duration": 0.75,
          "durationTicks": 240,
          "midi": 53,
          "name": "F3",
          "ticks": 125280,
          "time": 392.2763333666666,
          "velocity": 0.3937007874015748
        },
        {
          "duration": 0.75,
          "durationTicks": 240,
          "midi": 57,
          "name": "A3",
          "ticks": 125280,
          "time": 392.2763333666666,
          "velocity": 0.4015748031496063
        },
        {
          "duration": 0.75,
          "durationTicks": 240,
          "midi": 57,
          "name": "A3",
          "ticks": 126956,
          "time": 397.51383336666663,
          "velocity": 0.4015748031496063
        },
        {
          "duration": 0.75,
          "durationTicks": 240,
          "midi": 53,
          "name": "F3",
          "ticks": 126960,
          "time": 397.5263333666666,
          "velocity": 0.3937007874015748
        },
        {
          "duration": 0.75,
          "durationTicks": 240,
          "midi": 55,
          "name": "G3",
          "ticks": 127200,
          "time": 398.2763333666666,
          "velocity": 0.3937007874015748
        },
        {
          "duration": 0.75,
          "durationTicks": 240,
          "midi": 58,
          "name": "A#3",
          "ticks": 127200,
          "time": 398.2763333666666,
          "velocity": 0.4015748031496063
        },
        {
          "duration": 0.75,
          "durationTicks": 240,
          "midi": 57,
          "name": "A3",
          "ticks": 127440,
          "time": 399.0263333666666,
          "velocity": 0.3937007874015748
        },
        {
          "duration": 0.75,
          "durationTicks": 240,
          "midi": 60,
          "name": "C4",
          "ticks": 127440,
          "time": 399.0263333666666,
          "velocity": 0.4015748031496063
        },
        {
          "duration": 0.25,
          "durationTicks": 80,
          "midi": 58,
          "name": "A#3",
          "ticks": 127680,
          "time": 399.7763333666666,
          "velocity": 0.4015748031496063
        },
        {
          "duration": 0.25,
          "durationTicks": 80,
          "midi": 62,
          "name": "D4",
          "ticks": 127680,
          "time": 399.7763333666666,
          "velocity": 0.4015748031496063
        },
        {
          "duration": 0.25000000000005684,
          "durationTicks": 80,
          "midi": 57,
          "name": "A3",
          "ticks": 127760,
          "time": 400.0263333666666,
          "velocity": 0.4015748031496063
        },
        {
          "duration": 0.25000000000005684,
          "durationTicks": 80,
          "midi": 61,
          "name": "C#4",
          "ticks": 127760,
          "time": 400.0263333666666,
          "velocity": 0.4015748031496063
        },
        {
          "duration": 0.24999999999994316,
          "durationTicks": 80,
          "midi": 58,
          "name": "A#3",
          "ticks": 127840,
          "time": 400.2763333666667,
          "velocity": 0.4015748031496063
        },
        {
          "duration": 0.24999999999994316,
          "durationTicks": 80,
          "midi": 62,
          "name": "D4",
          "ticks": 127840,
          "time": 400.2763333666667,
          "velocity": 0.4015748031496063
        },
        {
          "duration": 0.25,
          "durationTicks": 80,
          "midi": 62,
          "name": "D4",
          "ticks": 127920,
          "time": 400.5263333666666,
          "velocity": 0.4015748031496063
        },
        {
          "duration": 0.25,
          "durationTicks": 80,
          "midi": 65,
          "name": "F4",
          "ticks": 127920,
          "time": 400.5263333666666,
          "velocity": 0.4015748031496063
        },
        {
          "duration": 0.25000000000005684,
          "durationTicks": 80,
          "midi": 60,
          "name": "C4",
          "ticks": 128000,
          "time": 400.7763333666666,
          "velocity": 0.4015748031496063
        },
        {
          "duration": 0.25000000000005684,
          "durationTicks": 80,
          "midi": 64,
          "name": "E4",
          "ticks": 128000,
          "time": 400.7763333666666,
          "velocity": 0.4015748031496063
        },
        {
          "duration": 0.24999999999994316,
          "durationTicks": 80,
          "midi": 58,
          "name": "A#3",
          "ticks": 128080,
          "time": 401.0263333666667,
          "velocity": 0.4015748031496063
        },
        {
          "duration": 0.24999999999994316,
          "durationTicks": 80,
          "midi": 62,
          "name": "D4",
          "ticks": 128080,
          "time": 401.0263333666667,
          "velocity": 0.4015748031496063
        },
        {
          "duration": 0.75,
          "durationTicks": 240,
          "midi": 53,
          "name": "F3",
          "ticks": 128160,
          "time": 401.2763333666666,
          "velocity": 0.3937007874015748
        },
        {
          "duration": 0.75,
          "durationTicks": 240,
          "midi": 57,
          "name": "A3",
          "ticks": 128160,
          "time": 401.2763333666666,
          "velocity": 0.4015748031496063
        },
        {
          "duration": 0.7124999999999773,
          "durationTicks": 228,
          "midi": 58,
          "name": "A#3",
          "ticks": 129360,
          "time": 405.0263333666667,
          "velocity": 0.3858267716535433
        },
        {
          "duration": 0.7124999999999773,
          "durationTicks": 228,
          "midi": 64,
          "name": "E4",
          "ticks": 129360,
          "time": 405.0263333666667,
          "velocity": 0.3858267716535433
        },
        {
          "duration": 1.5,
          "durationTicks": 480,
          "midi": 58,
          "name": "A#3",
          "ticks": 129600,
          "time": 405.7763333666667,
          "velocity": 0.3858267716535433
        },
        {
          "duration": 1.5,
          "durationTicks": 480,
          "midi": 64,
          "name": "E4",
          "ticks": 129600,
          "time": 405.7763333666667,
          "velocity": 0.3858267716535433
        },
        {
          "duration": 0.75,
          "durationTicks": 240,
          "midi": 57,
          "name": "A3",
          "ticks": 130080,
          "time": 407.2763333666667,
          "velocity": 0.3858267716535433
        },
        {
          "duration": 0.75,
          "durationTicks": 240,
          "midi": 65,
          "name": "F4",
          "ticks": 130080,
          "time": 407.2763333666667,
          "velocity": 0.3858267716535433
        },
        {
          "duration": 0.18292687499996418,
          "durationTicks": 60,
          "midi": 54,
          "name": "F#3",
          "ticks": 133020,
          "time": 416.6021986083333,
          "velocity": 0.3543307086614173
        },
        {
          "duration": 0.18292687500002103,
          "durationTicks": 60,
          "midi": 55,
          "name": "G3",
          "ticks": 133080,
          "time": 416.7851254833333,
          "velocity": 0.3543307086614173
        },
        {
          "duration": 0.18292687500002103,
          "durationTicks": 60,
          "midi": 54,
          "name": "F#3",
          "ticks": 133140,
          "time": 416.9680523583333,
          "velocity": 0.3543307086614173
        },
        {
          "duration": 0.18292687499996418,
          "durationTicks": 60,
          "midi": 55,
          "name": "G3",
          "ticks": 133200,
          "time": 417.1509792333333,
          "velocity": 0.3464566929133858
        },
        {
          "duration": 0.18292687500002103,
          "durationTicks": 60,
          "midi": 57,
          "name": "A3",
          "ticks": 133260,
          "time": 417.3339061083333,
          "velocity": 0.3464566929133858
        },
        {
          "duration": 0.18292687500002103,
          "durationTicks": 60,
          "midi": 58,
          "name": "A#3",
          "ticks": 133320,
          "time": 417.5168329833333,
          "velocity": 0.33858267716535434
        },
        {
          "duration": 0.18292687499996418,
          "durationTicks": 60,
          "midi": 57,
          "name": "A3",
          "ticks": 133380,
          "time": 417.6997598583333,
          "velocity": 0.33858267716535434
        },
        {
          "duration": 0.18292687500002103,
          "durationTicks": 60,
          "midi": 60,
          "name": "C4",
          "ticks": 133440,
          "time": 417.8826867333333,
          "velocity": 0.33070866141732286
        },
        {
          "duration": 0.18292687499996418,
          "durationTicks": 60,
          "midi": 58,
          "name": "A#3",
          "ticks": 133500,
          "time": 418.0656136083333,
          "velocity": 0.3228346456692913
        },
        {
          "duration": 0.18292687500002103,
          "durationTicks": 60,
          "midi": 57,
          "name": "A3",
          "ticks": 133560,
          "time": 418.2485404833333,
          "velocity": 0.3228346456692913
        },
        {
          "duration": 0.18292687500002103,
          "durationTicks": 60,
          "midi": 55,
          "name": "G3",
          "ticks": 133620,
          "time": 418.4314673583333,
          "velocity": 0.31496062992125984
        },
        {
          "duration": 0.18292687499996418,
          "durationTicks": 60,
          "midi": 57,
          "name": "A3",
          "ticks": 133680,
          "time": 418.6143942333333,
          "velocity": 0.31496062992125984
        },
        {
          "duration": 0.18292687500002103,
          "durationTicks": 60,
          "midi": 55,
          "name": "G3",
          "ticks": 133740,
          "time": 418.7973211083333,
          "velocity": 0.30708661417322836
        },
        {
          "duration": 0.18292687500002103,
          "durationTicks": 60,
          "midi": 53,
          "name": "F3",
          "ticks": 133800,
          "time": 418.9802479833333,
          "velocity": 0.30708661417322836
        },
        {
          "duration": 0.18292687499996418,
          "durationTicks": 60,
          "midi": 52,
          "name": "E3",
          "ticks": 133860,
          "time": 419.1631748583333,
          "velocity": 0.30708661417322836
        },
        {
          "duration": 0.18292687500002103,
          "durationTicks": 60,
          "midi": 56,
          "name": "G#3",
          "ticks": 134460,
          "time": 420.9924436083333,
          "velocity": 0.4015748031496063
        },
        {
          "duration": 0.18292687499996418,
          "durationTicks": 60,
          "midi": 57,
          "name": "A3",
          "ticks": 134520,
          "time": 421.1753704833333,
          "velocity": 0.4015748031496063
        },
        {
          "duration": 0.18292687500002103,
          "durationTicks": 60,
          "midi": 56,
          "name": "G#3",
          "ticks": 134580,
          "time": 421.3582973583333,
          "velocity": 0.4015748031496063
        },
        {
          "duration": 0.18292687499996418,
          "durationTicks": 60,
          "midi": 57,
          "name": "A3",
          "ticks": 134640,
          "time": 421.5412242333333,
          "velocity": 0.4015748031496063
        },
        {
          "duration": 0.18292687500002103,
          "durationTicks": 60,
          "midi": 59,
          "name": "B3",
          "ticks": 134700,
          "time": 421.7241511083333,
          "velocity": 0.4015748031496063
        },
        {
          "duration": 0.18292687500002103,
          "durationTicks": 60,
          "midi": 60,
          "name": "C4",
          "ticks": 134760,
          "time": 421.9070779833333,
          "velocity": 0.4015748031496063
        },
        {
          "duration": 0.18292687499996418,
          "durationTicks": 60,
          "midi": 59,
          "name": "B3",
          "ticks": 134820,
          "time": 422.0900048583333,
          "velocity": 0.4015748031496063
        },
        {
          "duration": 0.18292687500002103,
          "durationTicks": 60,
          "midi": 62,
          "name": "D4",
          "ticks": 134880,
          "time": 422.2729317333333,
          "velocity": 0.4015748031496063
        },
        {
          "duration": 0.18292687500002103,
          "durationTicks": 60,
          "midi": 60,
          "name": "C4",
          "ticks": 134940,
          "time": 422.4558586083333,
          "velocity": 0.4015748031496063
        },
        {
          "duration": 0.18292687499996418,
          "durationTicks": 60,
          "midi": 58,
          "name": "A#3",
          "ticks": 135000,
          "time": 422.6387854833333,
          "velocity": 0.4015748031496063
        },
        {
          "duration": 0.18292687500002103,
          "durationTicks": 60,
          "midi": 57,
          "name": "A3",
          "ticks": 135060,
          "time": 422.8217123583333,
          "velocity": 0.4015748031496063
        },
        {
          "duration": 0.18292687499996418,
          "durationTicks": 60,
          "midi": 58,
          "name": "A#3",
          "ticks": 135120,
          "time": 423.0046392333333,
          "velocity": 0.4015748031496063
        },
        {
          "duration": 0.18292687500002103,
          "durationTicks": 60,
          "midi": 57,
          "name": "A3",
          "ticks": 135180,
          "time": 423.1875661083333,
          "velocity": 0.4015748031496063
        },
        {
          "duration": 0.18292687500002103,
          "durationTicks": 60,
          "midi": 55,
          "name": "G3",
          "ticks": 135240,
          "time": 423.3704929833333,
          "velocity": 0.4015748031496063
        },
        {
          "duration": 0.18292687499996418,
          "durationTicks": 60,
          "midi": 53,
          "name": "F3",
          "ticks": 135300,
          "time": 423.5534198583333,
          "velocity": 0.4015748031496063
        },
        {
          "duration": 4.390244999999993,
          "durationTicks": 1440,
          "midi": 58,
          "name": "A#3",
          "ticks": 135360,
          "time": 423.7363467333333,
          "velocity": 0.3937007874015748
        },
        {
          "duration": 4.390244999999993,
          "durationTicks": 1440,
          "midi": 62,
          "name": "D4",
          "ticks": 135360,
          "time": 423.7363467333333,
          "velocity": 0.3937007874015748
        },
        {
          "duration": 2.9268300000000522,
          "durationTicks": 960,
          "midi": 57,
          "name": "A3",
          "ticks": 136800,
          "time": 428.12659173333327,
          "velocity": 0.3937007874015748
        },
        {
          "duration": 2.9268300000000522,
          "durationTicks": 960,
          "midi": 60,
          "name": "C4",
          "ticks": 136800,
          "time": 428.12659173333327,
          "velocity": 0.3937007874015748
        },
        {
          "duration": 1.4634149999999408,
          "durationTicks": 480,
          "midi": 55,
          "name": "G3",
          "ticks": 137760,
          "time": 431.0534217333333,
          "velocity": 0.3937007874015748
        },
        {
          "duration": 1.4634149999999408,
          "durationTicks": 480,
          "midi": 58,
          "name": "A#3",
          "ticks": 137760,
          "time": 431.0534217333333,
          "velocity": 0.3937007874015748
        },
        {
          "duration": 1.8500000000000227,
          "durationTicks": 592,
          "midi": 57,
          "name": "A3",
          "ticks": 138240,
          "time": 432.51683673333326,
          "velocity": 0.33070866141732286
        },
        {
          "duration": 0.1875,
          "durationTicks": 60,
          "midi": 58,
          "name": "A#3",
          "ticks": 138840,
          "time": 434.39183673333326,
          "velocity": 0.33070866141732286
        },
        {
          "duration": 0.1875,
          "durationTicks": 60,
          "midi": 57,
          "name": "A3",
          "ticks": 138900,
          "time": 434.57933673333326,
          "velocity": 0.33070866141732286
        },
        {
          "duration": 0.1875,
          "durationTicks": 60,
          "midi": 56,
          "name": "G#3",
          "ticks": 138960,
          "time": 434.76683673333326,
          "velocity": 0.33070866141732286
        },
        {
          "duration": 0.1875,
          "durationTicks": 60,
          "midi": 57,
          "name": "A3",
          "ticks": 139020,
          "time": 434.95433673333326,
          "velocity": 0.33070866141732286
        },
        {
          "duration": 0.1875,
          "durationTicks": 60,
          "midi": 56,
          "name": "G#3",
          "ticks": 139080,
          "time": 435.14183673333326,
          "velocity": 0.33070866141732286
        },
        {
          "duration": 0.1875,
          "durationTicks": 60,
          "midi": 57,
          "name": "A3",
          "ticks": 139140,
          "time": 435.32933673333326,
          "velocity": 0.33070866141732286
        },
        {
          "duration": 0.375,
          "durationTicks": 120,
          "midi": 60,
          "name": "C4",
          "ticks": 139200,
          "time": 435.51683673333326,
          "velocity": 0.33070866141732286
        },
        {
          "duration": 0.375,
          "durationTicks": 120,
          "midi": 58,
          "name": "A#3",
          "ticks": 139320,
          "time": 435.89183673333326,
          "velocity": 0.33070866141732286
        },
        {
          "duration": 0.375,
          "durationTicks": 120,
          "midi": 57,
          "name": "A3",
          "ticks": 139440,
          "time": 436.26683673333326,
          "velocity": 0.33070866141732286
        },
        {
          "duration": 0.375,
          "durationTicks": 120,
          "midi": 55,
          "name": "G3",
          "ticks": 139560,
          "time": 436.64183673333326,
          "velocity": 0.33070866141732286
        },
        {
          "duration": 0.5625,
          "durationTicks": 180,
          "midi": 60,
          "name": "C4",
          "ticks": 139680,
          "time": 437.01683673333326,
          "velocity": 0.33070866141732286
        },
        {
          "duration": 0.1875,
          "durationTicks": 60,
          "midi": 57,
          "name": "A3",
          "ticks": 139860,
          "time": 437.57933673333326,
          "velocity": 0.3228346456692913
        },
        {
          "duration": 1.5,
          "durationTicks": 480,
          "midi": 53,
          "name": "F3",
          "ticks": 139912,
          "time": 437.7418367333333,
          "velocity": 0.31496062992125984
        },
        {
          "duration": 0.37756413333335104,
          "durationTicks": 120,
          "midi": 55,
          "name": "G3",
          "ticks": 140400,
          "time": 439.26683673333326,
          "velocity": 0.2992125984251969
        },
        {
          "duration": 0.3461539500000299,
          "durationTicks": 108,
          "midi": 57,
          "name": "A3",
          "ticks": 140520,
          "time": 439.6444008666666,
          "velocity": 0.2992125984251969
        },
        {
          "duration": 0.3873874999999316,
          "durationTicks": 120,
          "midi": 57,
          "name": "A3",
          "ticks": 140640,
          "time": 440.0290163666666,
          "velocity": 0.2992125984251969
        },
        {
          "duration": 0.40540550000002895,
          "durationTicks": 120,
          "midi": 55,
          "name": "G3",
          "ticks": 140760,
          "time": 440.41640386666654,
          "velocity": 0.29133858267716534
        },
        {
          "duration": 0.41141150000004245,
          "durationTicks": 120,
          "midi": 53,
          "name": "F3",
          "ticks": 140880,
          "time": 440.82180936666657,
          "velocity": 0.28346456692913385
        },
        {
          "duration": 0.4166667499999903,
          "durationTicks": 120,
          "midi": 52,
          "name": "E3",
          "ticks": 141000,
          "time": 441.2332208666666,
          "velocity": 0.28346456692913385
        },
        {
          "duration": 0.75,
          "durationTicks": 240,
          "midi": 53,
          "name": "F3",
          "ticks": 141120,
          "time": 441.6498876166666,
          "velocity": 0.2755905511811024
        },
        {
          "duration": 2.0508927666666636,
          "durationTicks": 480,
          "midi": 55,
          "name": "G3",
          "ticks": 144000,
          "time": 450.9187405833332,
          "velocity": 0.3543307086614173
        },
        {
          "duration": 2.0508927666666636,
          "durationTicks": 480,
          "midi": 64,
          "name": "E4",
          "ticks": 144000,
          "time": 450.9187405833332,
          "velocity": 0.3543307086614173
        },
        {
          "duration": 1.0714285000000245,
          "durationTicks": 240,
          "midi": 57,
          "name": "A3",
          "ticks": 144480,
          "time": 452.96963334999987,
          "velocity": 0.3543307086614173
        },
        {
          "duration": 1.0714285000000245,
          "durationTicks": 240,
          "midi": 65,
          "name": "F4",
          "ticks": 144480,
          "time": 452.96963334999987,
          "velocity": 0.3464566929133858
        }
      ]
    },
    {
      "channel": 0,
      "controlChanges": {},
      "pitchBends": [],
      "instrument": {
        "family": "piano",
        "number": 0,
        "name": "acoustic grand piano"
      },
      "name": "Corni",
      "notes": [],
      "endOfTrackTicks": 145440
    },
    {
      "channel": 3,
      "controlChanges": {
        "7": [
          {
            "number": 7,
            "ticks": 0,
            "time": 0,
            "value": 0.6692913385826772
          }
        ],
        "10": [
          {
            "number": 10,
            "ticks": 0,
            "time": 0,
            "value": 0.2440944881889764
          }
        ]
      },
      "pitchBends": [],
      "instrument": {
        "family": "brass",
        "number": 60,
        "name": "french horn"
      },
      "name": "",
      "notes": [
        {
          "duration": 0.5,
          "durationTicks": 160,
          "midi": 60,
          "name": "C4",
          "ticks": 1920,
          "time": 6,
          "velocity": 0.4330708661417323
        },
        {
          "duration": 0.5,
          "durationTicks": 160,
          "midi": 67,
          "name": "G4",
          "ticks": 1920,
          "time": 6,
          "velocity": 0.4330708661417323
        },
        {
          "duration": 0.5,
          "durationTicks": 160,
          "midi": 53,
          "name": "F3",
          "ticks": 4800,
          "time": 15,
          "velocity": 0.4330708661417323
        },
        {
          "duration": 0.5,
          "durationTicks": 160,
          "midi": 65,
          "name": "F4",
          "ticks": 4800,
          "time": 15,
          "velocity": 0.4330708661417323
        },
        {
          "duration": 4.5,
          "durationTicks": 1440,
          "midi": 53,
          "name": "F3",
          "ticks": 8640,
          "time": 27,
          "velocity": 0.4881889763779528
        },
        {
          "duration": 4.5,
          "durationTicks": 1440,
          "midi": 65,
          "name": "F4",
          "ticks": 8640,
          "time": 27,
          "velocity": 0.4881889763779528
        },
        {
          "duration": 4.5,
          "durationTicks": 1440,
          "midi": 48,
          "name": "C3",
          "ticks": 10080,
          "time": 31.5,
          "velocity": 0.4881889763779528
        },
        {
          "duration": 4.5,
          "durationTicks": 1440,
          "midi": 60,
          "name": "C4",
          "ticks": 10080,
          "time": 31.5,
          "velocity": 0.4881889763779528
        },
        {
          "duration": 0.75,
          "durationTicks": 240,
          "midi": 48,
          "name": "C3",
          "ticks": 14400,
          "time": 45,
          "velocity": 0.4015748031496063
        },
        {
          "duration": 0.75,
          "durationTicks": 240,
          "midi": 60,
          "name": "C4",
          "ticks": 14400,
          "time": 45,
          "velocity": 0.4015748031496063
        },
        {
          "duration": 0.75,
          "durationTicks": 240,
          "midi": 48,
          "name": "C3",
          "ticks": 14640,
          "time": 45.75,
          "velocity": 0.4015748031496063
        },
        {
          "duration": 0.75,
          "durationTicks": 240,
          "midi": 60,
          "name": "C4",
          "ticks": 14640,
          "time": 45.75,
          "velocity": 0.4015748031496063
        },
        {
          "duration": 0.75,
          "durationTicks": 240,
          "midi": 48,
          "name": "C3",
          "ticks": 14880,
          "time": 46.5,
          "velocity": 0.4015748031496063
        },
        {
          "duration": 0.75,
          "durationTicks": 240,
          "midi": 60,
          "name": "C4",
          "ticks": 14880,
          "time": 46.5,
          "velocity": 0.4015748031496063
        },
        {
          "duration": 0.75,
          "durationTicks": 240,
          "midi": 48,
          "name": "C3",
          "ticks": 15120,
          "time": 47.25,
          "velocity": 0.4015748031496063
        },
        {
          "duration": 0.75,
          "durationTicks": 240,
          "midi": 60,
          "name": "C4",
          "ticks": 15120,
          "time": 47.25,
          "velocity": 0.4015748031496063
        },
        {
          "duration": 0.75,
          "durationTicks": 240,
          "midi": 48,
          "name": "C3",
          "ticks": 15360,
          "time": 48,
          "velocity": 0.4015748031496063
        },
        {
          "duration": 0.75,
          "durationTicks": 240,
          "midi": 60,
          "name": "C4",
          "ticks": 15360,
          "time": 48,
          "velocity": 0.4015748031496063
        },
        {
          "duration": 0.75,
          "durationTicks": 240,
          "midi": 48,
          "name": "C3",
          "ticks": 15600,
          "time": 48.75,
          "velocity": 0.4015748031496063
        },
        {
          "duration": 0.75,
          "durationTicks": 240,
          "midi": 60,
          "name": "C4",
          "ticks": 15600,
          "time": 48.75,
          "velocity": 0.4015748031496063
        },
        {
          "duration": 0.75,
          "durationTicks": 240,
          "midi": 48,
          "name": "C3",
          "ticks": 15840,
          "time": 49.5,
          "velocity": 0.4015748031496063
        },
        {
          "duration": 0.75,
          "durationTicks": 240,
          "midi": 60,
          "name": "C4",
          "ticks": 15840,
          "time": 49.5,
          "velocity": 0.4015748031496063
        },
        {
          "duration": 0.75,
          "durationTicks": 240,
          "midi": 48,
          "name": "C3",
          "ticks": 16080,
          "time": 50.25,
          "velocity": 0.4015748031496063
        },
        {
          "duration": 0.75,
          "durationTicks": 240,
          "midi": 60,
          "name": "C4",
          "ticks": 16080,
          "time": 50.25,
          "velocity": 0.4015748031496063
        },
        {
          "duration": 0.75,
          "durationTicks": 240,
          "midi": 48,
          "name": "C3",
          "ticks": 16320,
          "time": 51,
          "velocity": 0.4015748031496063
        },
        {
          "duration": 0.75,
          "durationTicks": 240,
          "midi": 60,
          "name": "C4",
          "ticks": 16320,
          "time": 51,
          "velocity": 0.4015748031496063
        },
        {
          "duration": 0.75,
          "durationTicks": 240,
          "midi": 48,
          "name": "C3",
          "ticks": 16560,
          "time": 51.75,
          "velocity": 0.4015748031496063
        },
        {
          "duration": 0.75,
          "durationTicks": 240,
          "midi": 60,
          "name": "C4",
          "ticks": 16560,
          "time": 51.75,
          "velocity": 0.4015748031496063
        },
        {
          "duration": 0.75,
          "durationTicks": 240,
          "midi": 48,
          "name": "C3",
          "ticks": 16800,
          "time": 52.5,
          "velocity": 0.4015748031496063
        },
        {
          "duration": 0.75,
          "durationTicks": 240,
          "midi": 60,
          "name": "C4",
          "ticks": 16800,
          "time": 52.5,
          "velocity": 0.4015748031496063
        },
        {
          "duration": 0.75,
          "durationTicks": 240,
          "midi": 48,
          "name": "C3",
          "ticks": 17040,
          "time": 53.25,
          "velocity": 0.4015748031496063
        },
        {
          "duration": 0.75,
          "durationTicks": 240,
          "midi": 60,
          "name": "C4",
          "ticks": 17040,
          "time": 53.25,
          "velocity": 0.4015748031496063
        },
        {
          "duration": 0.75,
          "durationTicks": 240,
          "midi": 48,
          "name": "C3",
          "ticks": 17280,
          "time": 54,
          "velocity": 0.4015748031496063
        },
        {
          "duration": 0.75,
          "durationTicks": 240,
          "midi": 60,
          "name": "C4",
          "ticks": 17280,
          "time": 54,
          "velocity": 0.4015748031496063
        },
        {
          "duration": 0.75,
          "durationTicks": 240,
          "midi": 48,
          "name": "C3",
          "ticks": 17520,
          "time": 54.75,
          "velocity": 0.4015748031496063
        },
        {
          "duration": 0.75,
          "durationTicks": 240,
          "midi": 60,
          "name": "C4",
          "ticks": 17520,
          "time": 54.75,
          "velocity": 0.4015748031496063
        },
        {
          "duration": 0.75,
          "durationTicks": 240,
          "midi": 48,
          "name": "C3",
          "ticks": 17760,
          "time": 55.5,
          "velocity": 0.4015748031496063
        },
        {
          "duration": 0.75,
          "durationTicks": 240,
          "midi": 60,
          "name": "C4",
          "ticks": 17760,
          "time": 55.5,
          "velocity": 0.4015748031496063
        },
        {
          "duration": 0.75,
          "durationTicks": 240,
          "midi": 48,
          "name": "C3",
          "ticks": 18000,
          "time": 56.25,
          "velocity": 0.4015748031496063
        },
        {
          "duration": 0.75,
          "durationTicks": 240,
          "midi": 60,
          "name": "C4",
          "ticks": 18000,
          "time": 56.25,
          "velocity": 0.4015748031496063
        },
        {
          "duration": 0.75,
          "durationTicks": 240,
          "midi": 48,
          "name": "C3",
          "ticks": 18240,
          "time": 57,
          "velocity": 0.4015748031496063
        },
        {
          "duration": 0.75,
          "durationTicks": 240,
          "midi": 60,
          "name": "C4",
          "ticks": 18240,
          "time": 57,
          "velocity": 0.4015748031496063
        },
        {
          "duration": 0.75,
          "durationTicks": 240,
          "midi": 48,
          "name": "C3",
          "ticks": 18480,
          "time": 57.75,
          "velocity": 0.4015748031496063
        },
        {
          "duration": 0.75,
          "durationTicks": 240,
          "midi": 60,
          "name": "C4",
          "ticks": 18480,
          "time": 57.75,
          "velocity": 0.4015748031496063
        },
        {
          "duration": 0.75,
          "durationTicks": 240,
          "midi": 48,
          "name": "C3",
          "ticks": 18720,
          "time": 58.5,
          "velocity": 0.4015748031496063
        },
        {
          "duration": 0.75,
          "durationTicks": 240,
          "midi": 60,
          "name": "C4",
          "ticks": 18720,
          "time": 58.5,
          "velocity": 0.4015748031496063
        },
        {
          "duration": 0.75,
          "durationTicks": 240,
          "midi": 53,
          "name": "F3",
          "ticks": 18960,
          "time": 59.25,
          "velocity": 0.4015748031496063
        },
        {
          "duration": 0.75,
          "durationTicks": 240,
          "midi": 65,
          "name": "F4",
          "ticks": 18960,
          "time": 59.25,
          "velocity": 0.4015748031496063
        },
        {
          "duration": 0.75,
          "durationTicks": 240,
          "midi": 53,
          "name": "F3",
          "ticks": 19200,
          "time": 60,
          "velocity": 0.4015748031496063
        },
        {
          "duration": 0.75,
          "durationTicks": 240,
          "midi": 65,
          "name": "F4",
          "ticks": 19200,
          "time": 60,
          "velocity": 0.4015748031496063
        },
        {
          "duration": 0.75,
          "durationTicks": 240,
          "midi": 53,
          "name": "F3",
          "ticks": 19440,
          "time": 60.75,
          "velocity": 0.4015748031496063
        },
        {
          "duration": 0.75,
          "durationTicks": 240,
          "midi": 65,
          "name": "F4",
          "ticks": 19440,
          "time": 60.75,
          "velocity": 0.4015748031496063
        },
        {
          "duration": 0.75,
          "durationTicks": 240,
          "midi": 53,
          "name": "F3",
          "ticks": 19680,
          "time": 61.5,
          "velocity": 0.4015748031496063
        },
        {
          "duration": 0.75,
          "durationTicks": 240,
          "midi": 65,
          "name": "F4",
          "ticks": 19680,
          "time": 61.5,
          "velocity": 0.4015748031496063
        },
        {
          "duration": 0.75,
          "durationTicks": 240,
          "midi": 53,
          "name": "F3",
          "ticks": 19920,
          "time": 62.25,
          "velocity": 0.4015748031496063
        },
        {
          "duration": 0.75,
          "durationTicks": 240,
          "midi": 65,
          "name": "F4",
          "ticks": 19920,
          "time": 62.25,
          "velocity": 0.4015748031496063
        },
        {
          "duration": 6,
          "durationTicks": 1920,
          "midi": 48,
          "name": "C3",
          "ticks": 23040,
          "time": 72,
          "velocity": 0.3937007874015748
        },
        {
          "duration": 6,
          "durationTicks": 1920,
          "midi": 60,
          "name": "C4",
          "ticks": 23040,
          "time": 72,
          "velocity": 0.3937007874015748
        },
        {
          "duration": 6,
          "durationTicks": 1920,
          "midi": 48,
          "name": "C3",
          "ticks": 25920,
          "time": 81,
          "velocity": 0.4645669291338583
        },
        {
          "duration": 6,
          "durationTicks": 1920,
          "midi": 60,
          "name": "C4",
          "ticks": 25920,
          "time": 81,
          "velocity": 0.4566929133858268
        },
        {
          "duration": 6,
          "durationTicks": 1920,
          "midi": 48,
          "name": "C3",
          "ticks": 28800,
          "time": 90,
          "velocity": 0.4645669291338583
        },
        {
          "duration": 6,
          "durationTicks": 1920,
          "midi": 60,
          "name": "C4",
          "ticks": 28800,
          "time": 90,
          "velocity": 0.4645669291338583
        },
        {
          "duration": 3,
          "durationTicks": 960,
          "midi": 48,
          "name": "C3",
          "ticks": 31680,
          "time": 99,
          "velocity": 0.5354330708661418
        },
        {
          "duration": 3,
          "durationTicks": 960,
          "midi": 60,
          "name": "C4",
          "ticks": 31680,
          "time": 99,
          "velocity": 0.5354330708661418
        },
        {
          "duration": 3,
          "durationTicks": 960,
          "midi": 48,
          "name": "C3",
          "ticks": 32640,
          "time": 102,
          "velocity": 0.5354330708661418
        },
        {
          "duration": 3,
          "durationTicks": 960,
          "midi": 60,
          "name": "C4",
          "ticks": 32640,
          "time": 102,
          "velocity": 0.5354330708661418
        },
        {
          "duration": 3,
          "durationTicks": 960,
          "midi": 48,
          "name": "C3",
          "ticks": 33600,
          "time": 105,
          "velocity": 0.5354330708661418
        },
        {
          "duration": 3,
          "durationTicks": 960,
          "midi": 60,
          "name": "C4",
          "ticks": 33600,
          "time": 105,
          "velocity": 0.5354330708661418
        },
        {
          "duration": 3,
          "durationTicks": 960,
          "midi": 48,
          "name": "C3",
          "ticks": 34560,
          "time": 108,
          "velocity": 0.5354330708661418
        },
        {
          "duration": 3,
          "durationTicks": 960,
          "midi": 60,
          "name": "C4",
          "ticks": 34560,
          "time": 108,
          "velocity": 0.5354330708661418
        },
        {
          "duration": 3,
          "durationTicks": 960,
          "midi": 48,
          "name": "C3",
          "ticks": 35520,
          "time": 111,
          "velocity": 0.5354330708661418
        },
        {
          "duration": 3,
          "durationTicks": 960,
          "midi": 60,
          "name": "C4",
          "ticks": 35520,
          "time": 111,
          "velocity": 0.5354330708661418
        },
        {
          "duration": 6.737500000000011,
          "durationTicks": 2156,
          "midi": 67,
          "name": "G4",
          "ticks": 38880,
          "time": 121.62982456666666,
          "velocity": 0.4094488188976378
        },
        {
          "duration": 6.737500000000011,
          "durationTicks": 2156,
          "midi": 67,
          "name": "G4",
          "ticks": 38880,
          "time": 121.62982456666666,
          "velocity": 0.4094488188976378
        },
        {
          "duration": 0.7375000000000114,
          "durationTicks": 236,
          "midi": 67,
          "name": "G4",
          "ticks": 41040,
          "time": 128.37982456666666,
          "velocity": 0.4094488188976378
        },
        {
          "duration": 0.7375000000000114,
          "durationTicks": 236,
          "midi": 67,
          "name": "G4",
          "ticks": 41040,
          "time": 128.37982456666666,
          "velocity": 0.4094488188976378
        },
        {
          "duration": 0.7375000000000114,
          "durationTicks": 236,
          "midi": 67,
          "name": "G4",
          "ticks": 41280,
          "time": 129.12982456666666,
          "velocity": 0.4094488188976378
        },
        {
          "duration": 0.7375000000000114,
          "durationTicks": 236,
          "midi": 67,
          "name": "G4",
          "ticks": 41280,
          "time": 129.12982456666666,
          "velocity": 0.4094488188976378
        },
        {
          "duration": 0.7375000000000114,
          "durationTicks": 236,
          "midi": 67,
          "name": "G4",
          "ticks": 41520,
          "time": 129.87982456666666,
          "velocity": 0.4094488188976378
        },
        {
          "duration": 0.7375000000000114,
          "durationTicks": 236,
          "midi": 67,
          "name": "G4",
          "ticks": 41520,
          "time": 129.87982456666666,
          "velocity": 0.4094488188976378
        },
        {
          "duration": 6.737500000000011,
          "durationTicks": 2156,
          "midi": 67,
          "name": "G4",
          "ticks": 41760,
          "time": 130.62982456666666,
          "velocity": 0.4094488188976378
        },
        {
          "duration": 6.737500000000011,
          "durationTicks": 2156,
          "midi": 67,
          "name": "G4",
          "ticks": 41760,
          "time": 130.62982456666666,
          "velocity": 0.4094488188976378
        },
        {
          "duration": 0.7375000000000114,
          "durationTicks": 236,
          "midi": 60,
          "name": "C4",
          "ticks": 43920,
          "time": 137.37982456666666,
          "velocity": 0.4094488188976378
        },
        {
          "duration": 0.7375000000000114,
          "durationTicks": 236,
          "midi": 67,
          "name": "G4",
          "ticks": 43920,
          "time": 137.37982456666666,
          "velocity": 0.4094488188976378
        },
        {
          "duration": 0.7375000000000114,
          "durationTicks": 236,
          "midi": 60,
          "name": "C4",
          "ticks": 44160,
          "time": 138.12982456666666,
          "velocity": 0.4094488188976378
        },
        {
          "duration": 0.7375000000000114,
          "durationTicks": 236,
          "midi": 67,
          "name": "G4",
          "ticks": 44160,
          "time": 138.12982456666666,
          "velocity": 0.4094488188976378
        },
        {
          "duration": 0.7375000000000114,
          "durationTicks": 236,
          "midi": 60,
          "name": "C4",
          "ticks": 44400,
          "time": 138.87982456666666,
          "velocity": 0.4094488188976378
        },
        {
          "duration": 0.7375000000000114,
          "durationTicks": 236,
          "midi": 67,
          "name": "G4",
          "ticks": 44400,
          "time": 138.87982456666666,
          "velocity": 0.4094488188976378
        },
        {
          "duration": 0.23749999999998295,
          "durationTicks": 76,
          "midi": 60,
          "name": "C4",
          "ticks": 54800,
          "time": 171.37982456666668,
          "velocity": 0.3543307086614173
        },
        {
          "duration": 0.23749999999998295,
          "durationTicks": 76,
          "midi": 48,
          "name": "C3",
          "ticks": 54804,
          "time": 171.39232456666667,
          "velocity": 0.3543307086614173
        },
        {
          "duration": 0.23750000000001137,
          "durationTicks": 76,
          "midi": 60,
          "name": "C4",
          "ticks": 54880,
          "time": 171.62982456666666,
          "velocity": 0.3543307086614173
        },
        {
          "duration": 0.23749999999998295,
          "durationTicks": 76,
          "midi": 48,
          "name": "C3",
          "ticks": 54884,
          "time": 171.64232456666667,
          "velocity": 0.3543307086614173
        },
        {
          "duration": 0.23749999999998295,
          "durationTicks": 76,
          "midi": 48,
          "name": "C3",
          "ticks": 54956,
          "time": 171.86732456666667,
          "velocity": 0.3543307086614173
        },
        {
          "duration": 0.23749999999998295,
          "durationTicks": 76,
          "midi": 60,
          "name": "C4",
          "ticks": 54956,
          "time": 171.86732456666667,
          "velocity": 0.3543307086614173
        },
        {
          "duration": 0.23750000000001137,
          "durationTicks": 76,
          "midi": 48,
          "name": "C3",
          "ticks": 55036,
          "time": 172.11732456666664,
          "velocity": 0.3543307086614173
        },
        {
          "duration": 0.23750000000001137,
          "durationTicks": 76,
          "midi": 60,
          "name": "C4",
          "ticks": 55036,
          "time": 172.11732456666664,
          "velocity": 0.3543307086614173
        },
        {
          "duration": 0.23749999999998295,
          "durationTicks": 76,
          "midi": 48,
          "name": "C3",
          "ticks": 55116,
          "time": 172.36732456666667,
          "velocity": 0.3543307086614173
        },
        {
          "duration": 0.23749999999998295,
          "durationTicks": 76,
          "midi": 60,
          "name": "C4",
          "ticks": 55116,
          "time": 172.36732456666667,
          "velocity": 0.3543307086614173
        },
        {
          "duration": 0.23749999999998295,
          "durationTicks": 76,
          "midi": 48,
          "name": "C3",
          "ticks": 55196,
          "time": 172.61732456666667,
          "velocity": 0.3543307086614173
        },
        {
          "duration": 0.23750000000001137,
          "durationTicks": 76,
          "midi": 60,
          "name": "C4",
          "ticks": 55204,
          "time": 172.64232456666667,
          "velocity": 0.3543307086614173
        },
        {
          "duration": 0.23750000000001137,
          "durationTicks": 76,
          "midi": 48,
          "name": "C3",
          "ticks": 55276,
          "time": 172.86732456666664,
          "velocity": 0.3543307086614173
        },
        {
          "duration": 0.23749999999998295,
          "durationTicks": 76,
          "midi": 60,
          "name": "C4",
          "ticks": 55284,
          "time": 172.89232456666667,
          "velocity": 0.3543307086614173
        },
        {
          "duration": 0.23749999999998295,
          "durationTicks": 76,
          "midi": 48,
          "name": "C3",
          "ticks": 55356,
          "time": 173.11732456666667,
          "velocity": 0.3543307086614173
        },
        {
          "duration": 0.23749999999998295,
          "durationTicks": 76,
          "midi": 60,
          "name": "C4",
          "ticks": 55364,
          "time": 173.14232456666667,
          "velocity": 0.3543307086614173
        },
        {
          "duration": 0.23749999999998295,
          "durationTicks": 76,
          "midi": 48,
          "name": "C3",
          "ticks": 55436,
          "time": 173.36732456666667,
          "velocity": 0.3543307086614173
        },
        {
          "duration": 0.23749999999998295,
          "durationTicks": 76,
          "midi": 60,
          "name": "C4",
          "ticks": 55440,
          "time": 173.37982456666666,
          "velocity": 0.3543307086614173
        },
        {
          "duration": 0.23750000000001137,
          "durationTicks": 76,
          "midi": 48,
          "name": "C3",
          "ticks": 55516,
          "time": 173.61732456666664,
          "velocity": 0.3543307086614173
        },
        {
          "duration": 0.23749999999998295,
          "durationTicks": 76,
          "midi": 60,
          "name": "C4",
          "ticks": 55520,
          "time": 173.62982456666668,
          "velocity": 0.3543307086614173
        },
        {
          "duration": 0.23749999999998295,
          "durationTicks": 76,
          "midi": 48,
          "name": "C3",
          "ticks": 55596,
          "time": 173.86732456666667,
          "velocity": 0.3543307086614173
        },
        {
          "duration": 0.23750000000001137,
          "durationTicks": 76,
          "midi": 60,
          "name": "C4",
          "ticks": 55600,
          "time": 173.87982456666666,
          "velocity": 0.3543307086614173
        },
        {
          "duration": 0.23750000000001137,
          "durationTicks": 76,
          "midi": 48,
          "name": "C3",
          "ticks": 55672,
          "time": 174.10482456666665,
          "velocity": 0.3543307086614173
        },
        {
          "duration": 0.23750000000001137,
          "durationTicks": 76,
          "midi": 60,
          "name": "C4",
          "ticks": 55688,
          "time": 174.15482456666666,
          "velocity": 0.3543307086614173
        },
        {
          "duration": 0.23750000000001137,
          "durationTicks": 76,
          "midi": 48,
          "name": "C3",
          "ticks": 55752,
          "time": 174.35482456666665,
          "velocity": 0.3543307086614173
        },
        {
          "duration": 0.23750000000001137,
          "durationTicks": 76,
          "midi": 60,
          "name": "C4",
          "ticks": 55768,
          "time": 174.40482456666666,
          "velocity": 0.3543307086614173
        },
        {
          "duration": 0.23750000000001137,
          "durationTicks": 76,
          "midi": 48,
          "name": "C3",
          "ticks": 55832,
          "time": 174.60482456666665,
          "velocity": 0.3543307086614173
        },
        {
          "duration": 0.23750000000001137,
          "durationTicks": 76,
          "midi": 60,
          "name": "C4",
          "ticks": 55848,
          "time": 174.65482456666666,
          "velocity": 0.3543307086614173
        },
        {
          "duration": 0.23749999999998295,
          "durationTicks": 76,
          "midi": 48,
          "name": "C3",
          "ticks": 55916,
          "time": 174.86732456666667,
          "velocity": 0.3543307086614173
        },
        {
          "duration": 0.23750000000001137,
          "durationTicks": 76,
          "midi": 60,
          "name": "C4",
          "ticks": 55924,
          "time": 174.89232456666667,
          "velocity": 0.3543307086614173
        },
        {
          "duration": 0.23750000000001137,
          "durationTicks": 76,
          "midi": 48,
          "name": "C3",
          "ticks": 55996,
          "time": 175.11732456666664,
          "velocity": 0.3543307086614173
        },
        {
          "duration": 0.23749999999998295,
          "durationTicks": 76,
          "midi": 60,
          "name": "C4",
          "ticks": 56004,
          "time": 175.14232456666667,
          "velocity": 0.3543307086614173
        },
        {
          "duration": 0.23749999999998295,
          "durationTicks": 76,
          "midi": 48,
          "name": "C3",
          "ticks": 56076,
          "time": 175.36732456666667,
          "velocity": 0.3543307086614173
        },
        {
          "duration": 0.23749999999998295,
          "durationTicks": 76,
          "midi": 60,
          "name": "C4",
          "ticks": 56084,
          "time": 175.39232456666667,
          "velocity": 0.3543307086614173
        },
        {
          "duration": 0.75,
          "durationTicks": 240,
          "midi": 48,
          "name": "C3",
          "ticks": 56160,
          "time": 175.62982456666666,
          "velocity": 0.3543307086614173
        },
        {
          "duration": 0.75,
          "durationTicks": 240,
          "midi": 60,
          "name": "C4",
          "ticks": 56160,
          "time": 175.62982456666666,
          "velocity": 0.3543307086614173
        },
        {
          "duration": 0.23749999999998295,
          "durationTicks": 76,
          "midi": 60,
          "name": "C4",
          "ticks": 57680,
          "time": 180.37982456666668,
          "velocity": 0.3543307086614173
        },
        {
          "duration": 0.23749999999998295,
          "durationTicks": 76,
          "midi": 48,
          "name": "C3",
          "ticks": 57684,
          "time": 180.39232456666667,
          "velocity": 0.3543307086614173
        },
        {
          "duration": 0.23750000000001137,
          "durationTicks": 76,
          "midi": 60,
          "name": "C4",
          "ticks": 57760,
          "time": 180.62982456666666,
          "velocity": 0.3543307086614173
        },
        {
          "duration": 0.23749999999998295,
          "durationTicks": 76,
          "midi": 48,
          "name": "C3",
          "ticks": 57764,
          "time": 180.64232456666667,
          "velocity": 0.3543307086614173
        },
        {
          "duration": 0.23749999999998295,
          "durationTicks": 76,
          "midi": 48,
          "name": "C3",
          "ticks": 57836,
          "time": 180.86732456666667,
          "velocity": 0.3543307086614173
        },
        {
          "duration": 0.23749999999998295,
          "durationTicks": 76,
          "midi": 60,
          "name": "C4",
          "ticks": 57836,
          "time": 180.86732456666667,
          "velocity": 0.3543307086614173
        },
        {
          "duration": 0.23750000000001137,
          "durationTicks": 76,
          "midi": 48,
          "name": "C3",
          "ticks": 57916,
          "time": 181.11732456666664,
          "velocity": 0.3543307086614173
        },
        {
          "duration": 0.23750000000001137,
          "durationTicks": 76,
          "midi": 60,
          "name": "C4",
          "ticks": 57916,
          "time": 181.11732456666664,
          "velocity": 0.3543307086614173
        },
        {
          "duration": 0.23749999999998295,
          "durationTicks": 76,
          "midi": 48,
          "name": "C3",
          "ticks": 57996,
          "time": 181.36732456666667,
          "velocity": 0.3543307086614173
        },
        {
          "duration": 0.23749999999998295,
          "durationTicks": 76,
          "midi": 60,
          "name": "C4",
          "ticks": 57996,
          "time": 181.36732456666667,
          "velocity": 0.3543307086614173
        },
        {
          "duration": 0.23749999999998295,
          "durationTicks": 76,
          "midi": 48,
          "name": "C3",
          "ticks": 58076,
          "time": 181.61732456666667,
          "velocity": 0.3543307086614173
        },
        {
          "duration": 0.23750000000001137,
          "durationTicks": 76,
          "midi": 60,
          "name": "C4",
          "ticks": 58084,
          "time": 181.64232456666667,
          "velocity": 0.3543307086614173
        },
        {
          "duration": 0.23750000000001137,
          "durationTicks": 76,
          "midi": 48,
          "name": "C3",
          "ticks": 58156,
          "time": 181.86732456666664,
          "velocity": 0.3543307086614173
        },
        {
          "duration": 0.23749999999998295,
          "durationTicks": 76,
          "midi": 60,
          "name": "C4",
          "ticks": 58164,
          "time": 181.89232456666667,
          "velocity": 0.3543307086614173
        },
        {
          "duration": 0.23749999999998295,
          "durationTicks": 76,
          "midi": 48,
          "name": "C3",
          "ticks": 58236,
          "time": 182.11732456666667,
          "velocity": 0.3543307086614173
        },
        {
          "duration": 0.23749999999998295,
          "durationTicks": 76,
          "midi": 60,
          "name": "C4",
          "ticks": 58244,
          "time": 182.14232456666667,
          "velocity": 0.3543307086614173
        },
        {
          "duration": 0.23749999999998295,
          "durationTicks": 76,
          "midi": 48,
          "name": "C3",
          "ticks": 58316,
          "time": 182.36732456666667,
          "velocity": 0.3543307086614173
        },
        {
          "duration": 0.23749999999998295,
          "durationTicks": 76,
          "midi": 60,
          "name": "C4",
          "ticks": 58320,
          "time": 182.37982456666666,
          "velocity": 0.3543307086614173
        },
        {
          "duration": 0.23750000000001137,
          "durationTicks": 76,
          "midi": 48,
          "name": "C3",
          "ticks": 58396,
          "time": 182.61732456666664,
          "velocity": 0.3543307086614173
        },
        {
          "duration": 0.23749999999998295,
          "durationTicks": 76,
          "midi": 60,
          "name": "C4",
          "ticks": 58400,
          "time": 182.62982456666668,
          "velocity": 0.3543307086614173
        },
        {
          "duration": 0.23749999999998295,
          "durationTicks": 76,
          "midi": 48,
          "name": "C3",
          "ticks": 58476,
          "time": 182.86732456666667,
          "velocity": 0.3543307086614173
        },
        {
          "duration": 0.23750000000001137,
          "durationTicks": 76,
          "midi": 60,
          "name": "C4",
          "ticks": 58480,
          "time": 182.87982456666666,
          "velocity": 0.3543307086614173
        },
        {
          "duration": 0.23750000000001137,
          "durationTicks": 76,
          "midi": 48,
          "name": "C3",
          "ticks": 58552,
          "time": 183.10482456666665,
          "velocity": 0.3543307086614173
        },
        {
          "duration": 0.23750000000001137,
          "durationTicks": 76,
          "midi": 60,
          "name": "C4",
          "ticks": 58568,
          "time": 183.15482456666666,
          "velocity": 0.3543307086614173
        },
        {
          "duration": 0.23750000000001137,
          "durationTicks": 76,
          "midi": 48,
          "name": "C3",
          "ticks": 58632,
          "time": 183.35482456666665,
          "velocity": 0.3543307086614173
        },
        {
          "duration": 0.23750000000001137,
          "durationTicks": 76,
          "midi": 60,
          "name": "C4",
          "ticks": 58648,
          "time": 183.40482456666666,
          "velocity": 0.3543307086614173
        },
        {
          "duration": 0.23750000000001137,
          "durationTicks": 76,
          "midi": 48,
          "name": "C3",
          "ticks": 58712,
          "time": 183.60482456666665,
          "velocity": 0.3543307086614173
        },
        {
          "duration": 0.23750000000001137,
          "durationTicks": 76,
          "midi": 60,
          "name": "C4",
          "ticks": 58728,
          "time": 183.65482456666666,
          "velocity": 0.3543307086614173
        },
        {
          "duration": 0.23749999999998295,
          "durationTicks": 76,
          "midi": 48,
          "name": "C3",
          "ticks": 58796,
          "time": 183.86732456666667,
          "velocity": 0.3543307086614173
        },
        {
          "duration": 0.23750000000001137,
          "durationTicks": 76,
          "midi": 60,
          "name": "C4",
          "ticks": 58804,
          "time": 183.89232456666667,
          "velocity": 0.3543307086614173
        },
        {
          "duration": 0.23750000000001137,
          "durationTicks": 76,
          "midi": 48,
          "name": "C3",
          "ticks": 58876,
          "time": 184.11732456666664,
          "velocity": 0.3543307086614173
        },
        {
          "duration": 0.23749999999998295,
          "durationTicks": 76,
          "midi": 60,
          "name": "C4",
          "ticks": 58884,
          "time": 184.14232456666667,
          "velocity": 0.3543307086614173
        },
        {
          "duration": 0.23749999999998295,
          "durationTicks": 76,
          "midi": 48,
          "name": "C3",
          "ticks": 58956,
          "time": 184.36732456666667,
          "velocity": 0.3543307086614173
        },
        {
          "duration": 0.23749999999998295,
          "durationTicks": 76,
          "midi": 60,
          "name": "C4",
          "ticks": 58964,
          "time": 184.39232456666667,
          "velocity": 0.3543307086614173
        },
        {
          "duration": 0.75,
          "durationTicks": 240,
          "midi": 48,
          "name": "C3",
          "ticks": 59040,
          "time": 184.62982456666666,
          "velocity": 0.3543307086614173
        },
        {
          "duration": 0.75,
          "durationTicks": 240,
          "midi": 60,
          "name": "C4",
          "ticks": 59040,
          "time": 184.62982456666666,
          "velocity": 0.3543307086614173
        },
        {
          "duration": 0.7499998250000033,
          "durationTicks": 228,
          "midi": 69,
          "name": "A4",
          "ticks": 65520,
          "time": 205.08166434999998,
          "velocity": 0.4094488188976378
        },
        {
          "duration": 0.7702704499999982,
          "durationTicks": 228,
          "midi": 69,
          "name": "A4",
          "ticks": 65760,
          "time": 205.87184909999996,
          "velocity": 0.4094488188976378
        },
        {
          "duration": 0.7702704499999982,
          "durationTicks": 228,
          "midi": 69,
          "name": "A4",
          "ticks": 66000,
          "time": 206.68266009999996,
          "velocity": 0.4094488188976378
        },
        {
          "duration": 4.5,
          "durationTicks": 1440,
          "midi": 57,
          "name": "A3",
          "ticks": 66240,
          "time": 207.49144406666665,
          "velocity": 0.5354330708661418
        },
        {
          "duration": 4.5,
          "durationTicks": 1440,
          "midi": 69,
          "name": "A4",
          "ticks": 66240,
          "time": 207.49144406666665,
          "velocity": 0.5354330708661418
        },
        {
          "duration": 1.5,
          "durationTicks": 480,
          "midi": 67,
          "name": "G4",
          "ticks": 67680,
          "time": 211.99144406666665,
          "velocity": 0.4251968503937008
        },
        {
          "duration": 1.5,
          "durationTicks": 480,
          "midi": 67,
          "name": "G4",
          "ticks": 67680,
          "time": 211.99144406666665,
          "velocity": 0.4409448818897638
        },
        {
          "duration": 4.5,
          "durationTicks": 1440,
          "midi": 67,
          "name": "G4",
          "ticks": 69120,
          "time": 216.49144406666665,
          "velocity": 0.5354330708661418
        },
        {
          "duration": 4.5,
          "durationTicks": 1440,
          "midi": 70,
          "name": "A#4",
          "ticks": 69120,
          "time": 216.49144406666665,
          "velocity": 0.5354330708661418
        },
        {
          "duration": 1.5,
          "durationTicks": 480,
          "midi": 69,
          "name": "A4",
          "ticks": 70560,
          "time": 220.99144406666665,
          "velocity": 0.4251968503937008
        },
        {
          "duration": 1.5,
          "durationTicks": 480,
          "midi": 69,
          "name": "A4",
          "ticks": 70560,
          "time": 220.99144406666665,
          "velocity": 0.4251968503937008
        },
        {
          "duration": 2.9499999999999886,
          "durationTicks": 944,
          "midi": 53,
          "name": "F3",
          "ticks": 72960,
          "time": 228.49144406666665,
          "velocity": 0.5354330708661418
        },
        {
          "duration": 2.9499999999999886,
          "durationTicks": 944,
          "midi": 65,
          "name": "F4",
          "ticks": 72960,
          "time": 228.49144406666665,
          "velocity": 0.5354330708661418
        },
        {
          "duration": 3,
          "durationTicks": 960,
          "midi": 53,
          "name": "F3",
          "ticks": 73920,
          "time": 231.49144406666665,
          "velocity": 0.5354330708661418
        },
        {
          "duration": 3,
          "durationTicks": 960,
          "midi": 65,
          "name": "F4",
          "ticks": 73920,
          "time": 231.49144406666665,
          "velocity": 0.5354330708661418
        },
        {
          "duration": 3,
          "durationTicks": 960,
          "midi": 48,
          "name": "C3",
          "ticks": 74880,
          "time": 234.49144406666665,
          "velocity": 0.5354330708661418
        },
        {
          "duration": 3,
          "durationTicks": 960,
          "midi": 60,
          "name": "C4",
          "ticks": 74880,
          "time": 234.49144406666665,
          "velocity": 0.5354330708661418
        },
        {
          "duration": 3,
          "durationTicks": 960,
          "midi": 67,
          "name": "G4",
          "ticks": 75840,
          "time": 237.49144406666665,
          "velocity": 0.5354330708661418
        },
        {
          "duration": 3,
          "durationTicks": 960,
          "midi": 67,
          "name": "G4",
          "ticks": 75840,
          "time": 237.49144406666665,
          "velocity": 0.5354330708661418
        },
        {
          "duration": 1.5,
          "durationTicks": 480,
          "midi": 67,
          "name": "G4",
          "ticks": 76800,
          "time": 240.49144406666665,
          "velocity": 0.5354330708661418
        },
        {
          "duration": 3,
          "durationTicks": 960,
          "midi": 69,
          "name": "A4",
          "ticks": 76800,
          "time": 240.49144406666665,
          "velocity": 0.5354330708661418
        },
        {
          "duration": 1.5,
          "durationTicks": 480,
          "midi": 65,
          "name": "F4",
          "ticks": 77280,
          "time": 241.99144406666665,
          "velocity": 0.5354330708661418
        },
        {
          "duration": 1.621190466666576,
          "durationTicks": 480,
          "midi": 48,
          "name": "C3",
          "ticks": 84480,
          "time": 264.49657233333335,
          "velocity": 0.4330708661417323
        },
        {
          "duration": 1.621190466666576,
          "durationTicks": 480,
          "midi": 67,
          "name": "G4",
          "ticks": 84480,
          "time": 264.49657233333335,
          "velocity": 0.4330708661417323
        },
        {
          "duration": 0.75,
          "durationTicks": 240,
          "midi": 53,
          "name": "F3",
          "ticks": 84960,
          "time": 266.1177627999999,
          "velocity": 0.4330708661417323
        },
        {
          "duration": 0.75,
          "durationTicks": 240,
          "midi": 65,
          "name": "F4",
          "ticks": 84960,
          "time": 266.1177627999999,
          "velocity": 0.4330708661417323
        },
        {
          "duration": 0.75,
          "durationTicks": 240,
          "midi": 53,
          "name": "F3",
          "ticks": 90720,
          "time": 284.1177627999999,
          "velocity": 0.3937007874015748
        },
        {
          "duration": 0.75,
          "durationTicks": 240,
          "midi": 65,
          "name": "F4",
          "ticks": 90720,
          "time": 284.1177627999999,
          "velocity": 0.3937007874015748
        },
        {
          "duration": 0.75,
          "durationTicks": 240,
          "midi": 53,
          "name": "F3",
          "ticks": 90960,
          "time": 284.8677627999999,
          "velocity": 0.3937007874015748
        },
        {
          "duration": 0.75,
          "durationTicks": 240,
          "midi": 65,
          "name": "F4",
          "ticks": 90960,
          "time": 284.8677627999999,
          "velocity": 0.3937007874015748
        },
        {
          "duration": 0.75,
          "durationTicks": 240,
          "midi": 53,
          "name": "F3",
          "ticks": 91200,
          "time": 285.6177627999999,
          "velocity": 0.3937007874015748
        },
        {
          "duration": 0.75,
          "durationTicks": 240,
          "midi": 65,
          "name": "F4",
          "ticks": 91200,
          "time": 285.6177627999999,
          "velocity": 0.3937007874015748
        },
        {
          "duration": 0.75,
          "durationTicks": 240,
          "midi": 53,
          "name": "F3",
          "ticks": 91440,
          "time": 286.3677627999999,
          "velocity": 0.3937007874015748
        },
        {
          "duration": 0.75,
          "durationTicks": 240,
          "midi": 65,
          "name": "F4",
          "ticks": 91440,
          "time": 286.3677627999999,
          "velocity": 0.3937007874015748
        },
        {
          "duration": 0.75,
          "durationTicks": 240,
          "midi": 53,
          "name": "F3",
          "ticks": 91680,
          "time": 287.1177627999999,
          "velocity": 0.3937007874015748
        },
        {
          "duration": 0.75,
          "durationTicks": 240,
          "midi": 65,
          "name": "F4",
          "ticks": 91680,
          "time": 287.1177627999999,
          "velocity": 0.3937007874015748
        },
        {
          "duration": 0.75,
          "durationTicks": 240,
          "midi": 53,
          "name": "F3",
          "ticks": 91920,
          "time": 287.8677627999999,
          "velocity": 0.3937007874015748
        },
        {
          "duration": 0.75,
          "durationTicks": 240,
          "midi": 65,
          "name": "F4",
          "ticks": 91920,
          "time": 287.8677627999999,
          "velocity": 0.3937007874015748
        },
        {
          "duration": 0.75,
          "durationTicks": 240,
          "midi": 53,
          "name": "F3",
          "ticks": 92160,
          "time": 288.6177627999999,
          "velocity": 0.3937007874015748
        },
        {
          "duration": 0.75,
          "durationTicks": 240,
          "midi": 65,
          "name": "F4",
          "ticks": 92160,
          "time": 288.6177627999999,
          "velocity": 0.3937007874015748
        },
        {
          "duration": 0.75,
          "durationTicks": 240,
          "midi": 53,
          "name": "F3",
          "ticks": 92400,
          "time": 289.3677627999999,
          "velocity": 0.3937007874015748
        },
        {
          "duration": 0.75,
          "durationTicks": 240,
          "midi": 65,
          "name": "F4",
          "ticks": 92400,
          "time": 289.3677627999999,
          "velocity": 0.3937007874015748
        },
        {
          "duration": 0.75,
          "durationTicks": 240,
          "midi": 53,
          "name": "F3",
          "ticks": 92640,
          "time": 290.1177627999999,
          "velocity": 0.3937007874015748
        },
        {
          "duration": 0.75,
          "durationTicks": 240,
          "midi": 65,
          "name": "F4",
          "ticks": 92640,
          "time": 290.1177627999999,
          "velocity": 0.3937007874015748
        },
        {
          "duration": 0.75,
          "durationTicks": 240,
          "midi": 53,
          "name": "F3",
          "ticks": 92880,
          "time": 290.8677627999999,
          "velocity": 0.3937007874015748
        },
        {
          "duration": 0.75,
          "durationTicks": 240,
          "midi": 65,
          "name": "F4",
          "ticks": 92880,
          "time": 290.8677627999999,
          "velocity": 0.3937007874015748
        },
        {
          "duration": 0.75,
          "durationTicks": 240,
          "midi": 53,
          "name": "F3",
          "ticks": 93120,
          "time": 291.6177627999999,
          "velocity": 0.3937007874015748
        },
        {
          "duration": 0.75,
          "durationTicks": 240,
          "midi": 65,
          "name": "F4",
          "ticks": 93120,
          "time": 291.6177627999999,
          "velocity": 0.3937007874015748
        },
        {
          "duration": 0.75,
          "durationTicks": 240,
          "midi": 53,
          "name": "F3",
          "ticks": 93360,
          "time": 292.3677627999999,
          "velocity": 0.3937007874015748
        },
        {
          "duration": 0.75,
          "durationTicks": 240,
          "midi": 65,
          "name": "F4",
          "ticks": 93360,
          "time": 292.3677627999999,
          "velocity": 0.3937007874015748
        },
        {
          "duration": 0.75,
          "durationTicks": 240,
          "midi": 53,
          "name": "F3",
          "ticks": 93600,
          "time": 293.1177627999999,
          "velocity": 0.3937007874015748
        },
        {
          "duration": 0.75,
          "durationTicks": 240,
          "midi": 65,
          "name": "F4",
          "ticks": 93600,
          "time": 293.1177627999999,
          "velocity": 0.3937007874015748
        },
        {
          "duration": 0.75,
          "durationTicks": 240,
          "midi": 53,
          "name": "F3",
          "ticks": 93840,
          "time": 293.8677627999999,
          "velocity": 0.3937007874015748
        },
        {
          "duration": 0.75,
          "durationTicks": 240,
          "midi": 65,
          "name": "F4",
          "ticks": 93840,
          "time": 293.8677627999999,
          "velocity": 0.3937007874015748
        },
        {
          "duration": 0.75,
          "durationTicks": 240,
          "midi": 53,
          "name": "F3",
          "ticks": 94080,
          "time": 294.6177627999999,
          "velocity": 0.3937007874015748
        },
        {
          "duration": 0.75,
          "durationTicks": 240,
          "midi": 65,
          "name": "F4",
          "ticks": 94080,
          "time": 294.6177627999999,
          "velocity": 0.3937007874015748
        },
        {
          "duration": 0.75,
          "durationTicks": 240,
          "midi": 53,
          "name": "F3",
          "ticks": 94320,
          "time": 295.3677627999999,
          "velocity": 0.3937007874015748
        },
        {
          "duration": 0.75,
          "durationTicks": 240,
          "midi": 65,
          "name": "F4",
          "ticks": 94320,
          "time": 295.3677627999999,
          "velocity": 0.3937007874015748
        },
        {
          "duration": 0.75,
          "durationTicks": 240,
          "midi": 53,
          "name": "F3",
          "ticks": 94560,
          "time": 296.1177627999999,
          "velocity": 0.3937007874015748
        },
        {
          "duration": 0.75,
          "durationTicks": 240,
          "midi": 65,
          "name": "F4",
          "ticks": 94560,
          "time": 296.1177627999999,
          "velocity": 0.3937007874015748
        },
        {
          "duration": 0.75,
          "durationTicks": 240,
          "midi": 53,
          "name": "F3",
          "ticks": 94800,
          "time": 296.8677627999999,
          "velocity": 0.3937007874015748
        },
        {
          "duration": 0.75,
          "durationTicks": 240,
          "midi": 65,
          "name": "F4",
          "ticks": 94800,
          "time": 296.8677627999999,
          "velocity": 0.3937007874015748
        },
        {
          "duration": 0.75,
          "durationTicks": 240,
          "midi": 53,
          "name": "F3",
          "ticks": 95040,
          "time": 297.6177627999999,
          "velocity": 0.4409448818897638
        },
        {
          "duration": 0.75,
          "durationTicks": 240,
          "midi": 65,
          "name": "F4",
          "ticks": 95040,
          "time": 297.6177627999999,
          "velocity": 0.4409448818897638
        },
        {
          "duration": 0.5625,
          "durationTicks": 180,
          "midi": 65,
          "name": "F4",
          "ticks": 95280,
          "time": 298.3677627999999,
          "velocity": 0.48031496062992124
        },
        {
          "duration": 0.5625,
          "durationTicks": 180,
          "midi": 65,
          "name": "F4",
          "ticks": 95280,
          "time": 298.3677627999999,
          "velocity": 0.48031496062992124
        },
        {
          "duration": 0.1875,
          "durationTicks": 60,
          "midi": 65,
          "name": "F4",
          "ticks": 95460,
          "time": 298.9302627999999,
          "velocity": 0.48031496062992124
        },
        {
          "duration": 0.1875,
          "durationTicks": 60,
          "midi": 65,
          "name": "F4",
          "ticks": 95460,
          "time": 298.9302627999999,
          "velocity": 0.48031496062992124
        },
        {
          "duration": 0.5250000000000341,
          "durationTicks": 168,
          "midi": 65,
          "name": "F4",
          "ticks": 95520,
          "time": 299.1177627999999,
          "velocity": 0.48031496062992124
        },
        {
          "duration": 0.5250000000000341,
          "durationTicks": 168,
          "midi": 65,
          "name": "F4",
          "ticks": 95520,
          "time": 299.1177627999999,
          "velocity": 0.48031496062992124
        },
        {
          "duration": 0.5250000000000341,
          "durationTicks": 168,
          "midi": 67,
          "name": "G4",
          "ticks": 95760,
          "time": 299.8677627999999,
          "velocity": 0.48031496062992124
        },
        {
          "duration": 0.5250000000000341,
          "durationTicks": 168,
          "midi": 67,
          "name": "G4",
          "ticks": 95760,
          "time": 299.8677627999999,
          "velocity": 0.48031496062992124
        },
        {
          "duration": 0.5625,
          "durationTicks": 180,
          "midi": 69,
          "name": "A4",
          "ticks": 96240,
          "time": 301.3677627999999,
          "velocity": 0.48031496062992124
        },
        {
          "duration": 0.5625,
          "durationTicks": 180,
          "midi": 69,
          "name": "A4",
          "ticks": 96240,
          "time": 301.3677627999999,
          "velocity": 0.48031496062992124
        },
        {
          "duration": 0.1875,
          "durationTicks": 60,
          "midi": 69,
          "name": "A4",
          "ticks": 96420,
          "time": 301.9302627999999,
          "velocity": 0.48031496062992124
        },
        {
          "duration": 0.1875,
          "durationTicks": 60,
          "midi": 69,
          "name": "A4",
          "ticks": 96420,
          "time": 301.9302627999999,
          "velocity": 0.48031496062992124
        },
        {
          "duration": 0.5250000000000341,
          "durationTicks": 168,
          "midi": 69,
          "name": "A4",
          "ticks": 96480,
          "time": 302.1177627999999,
          "velocity": 0.48031496062992124
        },
        {
          "duration": 0.5250000000000341,
          "durationTicks": 168,
          "midi": 69,
          "name": "A4",
          "ticks": 96480,
          "time": 302.1177627999999,
          "velocity": 0.48031496062992124
        },
        {
          "duration": 0.5250000000000341,
          "durationTicks": 168,
          "midi": 69,
          "name": "A4",
          "ticks": 96720,
          "time": 302.8677627999999,
          "velocity": 0.48031496062992124
        },
        {
          "duration": 0.5250000000000341,
          "durationTicks": 168,
          "midi": 69,
          "name": "A4",
          "ticks": 96720,
          "time": 302.8677627999999,
          "velocity": 0.48031496062992124
        },
        {
          "duration": 0.5625,
          "durationTicks": 180,
          "midi": 67,
          "name": "G4",
          "ticks": 97200,
          "time": 304.3677627999999,
          "velocity": 0.48031496062992124
        },
        {
          "duration": 0.5625,
          "durationTicks": 180,
          "midi": 70,
          "name": "A#4",
          "ticks": 97200,
          "time": 304.3677627999999,
          "velocity": 0.48031496062992124
        },
        {
          "duration": 0.1875,
          "durationTicks": 60,
          "midi": 67,
          "name": "G4",
          "ticks": 97380,
          "time": 304.9302627999999,
          "velocity": 0.48031496062992124
        },
        {
          "duration": 0.1875,
          "durationTicks": 60,
          "midi": 70,
          "name": "A#4",
          "ticks": 97380,
          "time": 304.9302627999999,
          "velocity": 0.48031496062992124
        },
        {
          "duration": 0.5250000000000341,
          "durationTicks": 168,
          "midi": 67,
          "name": "G4",
          "ticks": 97440,
          "time": 305.1177627999999,
          "velocity": 0.48031496062992124
        },
        {
          "duration": 0.5250000000000341,
          "durationTicks": 168,
          "midi": 70,
          "name": "A#4",
          "ticks": 97440,
          "time": 305.1177627999999,
          "velocity": 0.48031496062992124
        },
        {
          "duration": 0.5250000000000341,
          "durationTicks": 168,
          "midi": 67,
          "name": "G4",
          "ticks": 97680,
          "time": 305.8677627999999,
          "velocity": 0.48031496062992124
        },
        {
          "duration": 0.5250000000000341,
          "durationTicks": 168,
          "midi": 70,
          "name": "A#4",
          "ticks": 97680,
          "time": 305.8677627999999,
          "velocity": 0.48031496062992124
        },
        {
          "duration": 0.5625,
          "durationTicks": 180,
          "midi": 60,
          "name": "C4",
          "ticks": 98160,
          "time": 307.3677627999999,
          "velocity": 0.48031496062992124
        },
        {
          "duration": 0.5625,
          "durationTicks": 180,
          "midi": 67,
          "name": "G4",
          "ticks": 98160,
          "time": 307.3677627999999,
          "velocity": 0.48031496062992124
        },
        {
          "duration": 0.1875,
          "durationTicks": 60,
          "midi": 60,
          "name": "C4",
          "ticks": 98340,
          "time": 307.9302627999999,
          "velocity": 0.48031496062992124
        },
        {
          "duration": 0.1875,
          "durationTicks": 60,
          "midi": 67,
          "name": "G4",
          "ticks": 98340,
          "time": 307.9302627999999,
          "velocity": 0.48031496062992124
        },
        {
          "duration": 0.5250000000000341,
          "durationTicks": 168,
          "midi": 60,
          "name": "C4",
          "ticks": 98400,
          "time": 308.1177627999999,
          "velocity": 0.48031496062992124
        },
        {
          "duration": 0.5250000000000341,
          "durationTicks": 168,
          "midi": 67,
          "name": "G4",
          "ticks": 98400,
          "time": 308.1177627999999,
          "velocity": 0.48031496062992124
        },
        {
          "duration": 0.5250000000000341,
          "durationTicks": 168,
          "midi": 60,
          "name": "C4",
          "ticks": 98640,
          "time": 308.8677627999999,
          "velocity": 0.48031496062992124
        },
        {
          "duration": 0.5250000000000341,
          "durationTicks": 168,
          "midi": 67,
          "name": "G4",
          "ticks": 98640,
          "time": 308.8677627999999,
          "velocity": 0.48031496062992124
        },
        {
          "duration": 0.5625,
          "durationTicks": 180,
          "midi": 65,
          "name": "F4",
          "ticks": 99120,
          "time": 310.3677627999999,
          "velocity": 0.48031496062992124
        },
        {
          "duration": 0.5625,
          "durationTicks": 180,
          "midi": 69,
          "name": "A4",
          "ticks": 99120,
          "time": 310.3677627999999,
          "velocity": 0.48031496062992124
        },
        {
          "duration": 0.1875,
          "durationTicks": 60,
          "midi": 65,
          "name": "F4",
          "ticks": 99300,
          "time": 310.9302627999999,
          "velocity": 0.48031496062992124
        },
        {
          "duration": 0.1875,
          "durationTicks": 60,
          "midi": 69,
          "name": "A4",
          "ticks": 99300,
          "time": 310.9302627999999,
          "velocity": 0.48031496062992124
        },
        {
          "duration": 0.5250000000000341,
          "durationTicks": 168,
          "midi": 65,
          "name": "F4",
          "ticks": 99360,
          "time": 311.1177627999999,
          "velocity": 0.48031496062992124
        },
        {
          "duration": 0.5250000000000341,
          "durationTicks": 168,
          "midi": 69,
          "name": "A4",
          "ticks": 99360,
          "time": 311.1177627999999,
          "velocity": 0.48031496062992124
        },
        {
          "duration": 0.5250000000000341,
          "durationTicks": 168,
          "midi": 65,
          "name": "F4",
          "ticks": 99600,
          "time": 311.8677627999999,
          "velocity": 0.41732283464566927
        },
        {
          "duration": 0.5250000000000341,
          "durationTicks": 168,
          "midi": 69,
          "name": "A4",
          "ticks": 99600,
          "time": 311.8677627999999,
          "velocity": 0.41732283464566927
        },
        {
          "duration": 0.5625,
          "durationTicks": 180,
          "midi": 53,
          "name": "F3",
          "ticks": 100080,
          "time": 313.3677627999999,
          "velocity": 0.41732283464566927
        },
        {
          "duration": 0.5625,
          "durationTicks": 180,
          "midi": 65,
          "name": "F4",
          "ticks": 100080,
          "time": 313.3677627999999,
          "velocity": 0.41732283464566927
        },
        {
          "duration": 0.1875,
          "durationTicks": 60,
          "midi": 53,
          "name": "F3",
          "ticks": 100260,
          "time": 313.9302627999999,
          "velocity": 0.41732283464566927
        },
        {
          "duration": 0.1875,
          "durationTicks": 60,
          "midi": 65,
          "name": "F4",
          "ticks": 100260,
          "time": 313.9302627999999,
          "velocity": 0.41732283464566927
        },
        {
          "duration": 0.5250000000000341,
          "durationTicks": 168,
          "midi": 53,
          "name": "F3",
          "ticks": 100320,
          "time": 314.1177627999999,
          "velocity": 0.41732283464566927
        },
        {
          "duration": 0.5250000000000341,
          "durationTicks": 168,
          "midi": 65,
          "name": "F4",
          "ticks": 100320,
          "time": 314.1177627999999,
          "velocity": 0.41732283464566927
        },
        {
          "duration": 0.5250000000000341,
          "durationTicks": 168,
          "midi": 53,
          "name": "F3",
          "ticks": 100560,
          "time": 314.8677627999999,
          "velocity": 0.41732283464566927
        },
        {
          "duration": 0.5250000000000341,
          "durationTicks": 168,
          "midi": 65,
          "name": "F4",
          "ticks": 100560,
          "time": 314.8677627999999,
          "velocity": 0.41732283464566927
        },
        {
          "duration": 0.6500000000000341,
          "durationTicks": 208,
          "midi": 48,
          "name": "C3",
          "ticks": 100800,
          "time": 315.6177627999999,
          "velocity": 0.5354330708661418
        },
        {
          "duration": 0.6500000000000341,
          "durationTicks": 208,
          "midi": 60,
          "name": "C4",
          "ticks": 100800,
          "time": 315.6177627999999,
          "velocity": 0.5354330708661418
        },
        {
          "duration": 0.5625,
          "durationTicks": 180,
          "midi": 48,
          "name": "C3",
          "ticks": 101040,
          "time": 316.3677627999999,
          "velocity": 0.5354330708661418
        },
        {
          "duration": 0.5625,
          "durationTicks": 180,
          "midi": 60,
          "name": "C4",
          "ticks": 101040,
          "time": 316.3677627999999,
          "velocity": 0.5354330708661418
        },
        {
          "duration": 0.1875,
          "durationTicks": 60,
          "midi": 48,
          "name": "C3",
          "ticks": 101220,
          "time": 316.9302627999999,
          "velocity": 0.5354330708661418
        },
        {
          "duration": 0.1875,
          "durationTicks": 60,
          "midi": 60,
          "name": "C4",
          "ticks": 101220,
          "time": 316.9302627999999,
          "velocity": 0.5354330708661418
        },
        {
          "duration": 0.7000000000000455,
          "durationTicks": 224,
          "midi": 48,
          "name": "C3",
          "ticks": 101280,
          "time": 317.1177627999999,
          "velocity": 0.5354330708661418
        },
        {
          "duration": 0.7000000000000455,
          "durationTicks": 224,
          "midi": 60,
          "name": "C4",
          "ticks": 101280,
          "time": 317.1177627999999,
          "velocity": 0.5354330708661418
        },
        {
          "duration": 0.7000000000000455,
          "durationTicks": 224,
          "midi": 48,
          "name": "C3",
          "ticks": 101520,
          "time": 317.8677627999999,
          "velocity": 0.5354330708661418
        },
        {
          "duration": 0.7000000000000455,
          "durationTicks": 224,
          "midi": 60,
          "name": "C4",
          "ticks": 101520,
          "time": 317.8677627999999,
          "velocity": 0.5354330708661418
        },
        {
          "duration": 0.7000000000000455,
          "durationTicks": 224,
          "midi": 48,
          "name": "C3",
          "ticks": 101760,
          "time": 318.6177627999999,
          "velocity": 0.5354330708661418
        },
        {
          "duration": 0.7000000000000455,
          "durationTicks": 224,
          "midi": 60,
          "name": "C4",
          "ticks": 101760,
          "time": 318.6177627999999,
          "velocity": 0.5354330708661418
        },
        {
          "duration": 0.7000000000000455,
          "durationTicks": 224,
          "midi": 48,
          "name": "C3",
          "ticks": 102000,
          "time": 319.3677627999999,
          "velocity": 0.5354330708661418
        },
        {
          "duration": 0.7000000000000455,
          "durationTicks": 224,
          "midi": 60,
          "name": "C4",
          "ticks": 102000,
          "time": 319.3677627999999,
          "velocity": 0.5354330708661418
        },
        {
          "duration": 0.6500000000000341,
          "durationTicks": 208,
          "midi": 48,
          "name": "C3",
          "ticks": 102240,
          "time": 320.1177627999999,
          "velocity": 0.5354330708661418
        },
        {
          "duration": 0.6500000000000341,
          "durationTicks": 208,
          "midi": 60,
          "name": "C4",
          "ticks": 102240,
          "time": 320.1177627999999,
          "velocity": 0.5354330708661418
        },
        {
          "duration": 0.5625,
          "durationTicks": 180,
          "midi": 48,
          "name": "C3",
          "ticks": 102480,
          "time": 320.8677627999999,
          "velocity": 0.5354330708661418
        },
        {
          "duration": 0.5625,
          "durationTicks": 180,
          "midi": 60,
          "name": "C4",
          "ticks": 102480,
          "time": 320.8677627999999,
          "velocity": 0.5354330708661418
        },
        {
          "duration": 0.1875,
          "durationTicks": 60,
          "midi": 48,
          "name": "C3",
          "ticks": 102660,
          "time": 321.4302627999999,
          "velocity": 0.5354330708661418
        },
        {
          "duration": 0.1875,
          "durationTicks": 60,
          "midi": 60,
          "name": "C4",
          "ticks": 102660,
          "time": 321.4302627999999,
          "velocity": 0.5354330708661418
        },
        {
          "duration": 0.7000000000000455,
          "durationTicks": 224,
          "midi": 48,
          "name": "C3",
          "ticks": 102720,
          "time": 321.6177627999999,
          "velocity": 0.5354330708661418
        },
        {
          "duration": 0.7000000000000455,
          "durationTicks": 224,
          "midi": 60,
          "name": "C4",
          "ticks": 102720,
          "time": 321.6177627999999,
          "velocity": 0.5354330708661418
        },
        {
          "duration": 0.7000000000000455,
          "durationTicks": 224,
          "midi": 48,
          "name": "C3",
          "ticks": 102960,
          "time": 322.3677627999999,
          "velocity": 0.5354330708661418
        },
        {
          "duration": 0.7000000000000455,
          "durationTicks": 224,
          "midi": 60,
          "name": "C4",
          "ticks": 102960,
          "time": 322.3677627999999,
          "velocity": 0.5354330708661418
        },
        {
          "duration": 0.7000000000000455,
          "durationTicks": 224,
          "midi": 48,
          "name": "C3",
          "ticks": 103200,
          "time": 323.1177627999999,
          "velocity": 0.5354330708661418
        },
        {
          "duration": 0.7000000000000455,
          "durationTicks": 224,
          "midi": 60,
          "name": "C4",
          "ticks": 103200,
          "time": 323.1177627999999,
          "velocity": 0.5354330708661418
        },
        {
          "duration": 0.7000000000000455,
          "durationTicks": 224,
          "midi": 48,
          "name": "C3",
          "ticks": 103440,
          "time": 323.8677627999999,
          "velocity": 0.5354330708661418
        },
        {
          "duration": 0.7000000000000455,
          "durationTicks": 224,
          "midi": 60,
          "name": "C4",
          "ticks": 103440,
          "time": 323.8677627999999,
          "velocity": 0.5354330708661418
        },
        {
          "duration": 4.5,
          "durationTicks": 1440,
          "midi": 48,
          "name": "C3",
          "ticks": 103680,
          "time": 324.6177627999999,
          "velocity": 0.48031496062992124
        },
        {
          "duration": 4.5,
          "durationTicks": 1440,
          "midi": 60,
          "name": "C4",
          "ticks": 103680,
          "time": 324.6177627999999,
          "velocity": 0.48031496062992124
        },
        {
          "duration": 5.25,
          "durationTicks": 1680,
          "midi": 48,
          "name": "C3",
          "ticks": 105120,
          "time": 329.1177627999999,
          "velocity": 0.48031496062992124
        },
        {
          "duration": 5.25,
          "durationTicks": 1680,
          "midi": 60,
          "name": "C4",
          "ticks": 105120,
          "time": 329.1177627999999,
          "velocity": 0.48031496062992124
        },
        {
          "duration": 6.75,
          "durationTicks": 2160,
          "midi": 48,
          "name": "C3",
          "ticks": 108000,
          "time": 338.2763333666666,
          "velocity": 0.3228346456692913
        },
        {
          "duration": 6.75,
          "durationTicks": 2160,
          "midi": 60,
          "name": "C4",
          "ticks": 108000,
          "time": 338.2763333666666,
          "velocity": 0.3228346456692913
        },
        {
          "duration": 0.7250000000000227,
          "durationTicks": 232,
          "midi": 48,
          "name": "C3",
          "ticks": 110160,
          "time": 345.0263333666666,
          "velocity": 0.4015748031496063
        },
        {
          "duration": 0.7250000000000227,
          "durationTicks": 232,
          "midi": 60,
          "name": "C4",
          "ticks": 110160,
          "time": 345.0263333666666,
          "velocity": 0.4015748031496063
        },
        {
          "duration": 0.7250000000000227,
          "durationTicks": 232,
          "midi": 48,
          "name": "C3",
          "ticks": 110400,
          "time": 345.7763333666666,
          "velocity": 0.4015748031496063
        },
        {
          "duration": 0.7250000000000227,
          "durationTicks": 232,
          "midi": 60,
          "name": "C4",
          "ticks": 110400,
          "time": 345.7763333666666,
          "velocity": 0.4015748031496063
        },
        {
          "duration": 0.7250000000000227,
          "durationTicks": 232,
          "midi": 48,
          "name": "C3",
          "ticks": 110640,
          "time": 346.5263333666666,
          "velocity": 0.4015748031496063
        },
        {
          "duration": 0.7250000000000227,
          "durationTicks": 232,
          "midi": 60,
          "name": "C4",
          "ticks": 110640,
          "time": 346.5263333666666,
          "velocity": 0.4015748031496063
        },
        {
          "duration": 4.5,
          "durationTicks": 1440,
          "midi": 48,
          "name": "C3",
          "ticks": 110880,
          "time": 347.2763333666666,
          "velocity": 0.3228346456692913
        },
        {
          "duration": 4.5,
          "durationTicks": 1440,
          "midi": 60,
          "name": "C4",
          "ticks": 110880,
          "time": 347.2763333666666,
          "velocity": 0.3228346456692913
        },
        {
          "duration": 2.25,
          "durationTicks": 720,
          "midi": 53,
          "name": "F3",
          "ticks": 112320,
          "time": 351.7763333666666,
          "velocity": 0.3228346456692913
        },
        {
          "duration": 2.25,
          "durationTicks": 720,
          "midi": 65,
          "name": "F4",
          "ticks": 112320,
          "time": 351.7763333666666,
          "velocity": 0.3228346456692913
        },
        {
          "duration": 0.7250000000000227,
          "durationTicks": 232,
          "midi": 53,
          "name": "F3",
          "ticks": 113040,
          "time": 354.0263333666666,
          "velocity": 0.4015748031496063
        },
        {
          "duration": 0.7250000000000227,
          "durationTicks": 232,
          "midi": 65,
          "name": "F4",
          "ticks": 113040,
          "time": 354.0263333666666,
          "velocity": 0.4015748031496063
        },
        {
          "duration": 0.7250000000000227,
          "durationTicks": 232,
          "midi": 53,
          "name": "F3",
          "ticks": 113280,
          "time": 354.7763333666666,
          "velocity": 0.4015748031496063
        },
        {
          "duration": 0.7250000000000227,
          "durationTicks": 232,
          "midi": 65,
          "name": "F4",
          "ticks": 113280,
          "time": 354.7763333666666,
          "velocity": 0.4015748031496063
        },
        {
          "duration": 0.7250000000000227,
          "durationTicks": 232,
          "midi": 53,
          "name": "F3",
          "ticks": 113520,
          "time": 355.5263333666666,
          "velocity": 0.4015748031496063
        },
        {
          "duration": 0.7250000000000227,
          "durationTicks": 232,
          "midi": 65,
          "name": "F4",
          "ticks": 113520,
          "time": 355.5263333666666,
          "velocity": 0.4015748031496063
        },
        {
          "duration": 1.5,
          "durationTicks": 480,
          "midi": 65,
          "name": "F4",
          "ticks": 117120,
          "time": 366.7763333666666,
          "velocity": 0.4015748031496063
        },
        {
          "duration": 1.5,
          "durationTicks": 480,
          "midi": 69,
          "name": "A4",
          "ticks": 117120,
          "time": 366.7763333666666,
          "velocity": 0.4015748031496063
        },
        {
          "duration": 1.5,
          "durationTicks": 480,
          "midi": 60,
          "name": "C4",
          "ticks": 117600,
          "time": 368.2763333666666,
          "velocity": 0.4015748031496063
        },
        {
          "duration": 1.5,
          "durationTicks": 480,
          "midi": 67,
          "name": "G4",
          "ticks": 117600,
          "time": 368.2763333666666,
          "velocity": 0.4015748031496063
        },
        {
          "duration": 0.75,
          "durationTicks": 240,
          "midi": 67,
          "name": "G4",
          "ticks": 122628,
          "time": 383.98883336666665,
          "velocity": 0.4330708661417323
        },
        {
          "duration": 0.75,
          "durationTicks": 240,
          "midi": 72,
          "name": "C5",
          "ticks": 122872,
          "time": 384.75133336666664,
          "velocity": 0.4409448818897638
        },
        {
          "duration": 0.75,
          "durationTicks": 240,
          "midi": 60,
          "name": "C4",
          "ticks": 122884,
          "time": 384.7888333666666,
          "velocity": 0.4409448818897638
        },
        {
          "duration": 0.6999999999999886,
          "durationTicks": 224,
          "midi": 70,
          "name": "A#4",
          "ticks": 123104,
          "time": 385.47633336666667,
          "velocity": 0.44881889763779526
        },
        {
          "duration": 0.7000000000000455,
          "durationTicks": 224,
          "midi": 67,
          "name": "G4",
          "ticks": 123116,
          "time": 385.51383336666663,
          "velocity": 0.44881889763779526
        },
        {
          "duration": 0.6999999999999886,
          "durationTicks": 224,
          "midi": 69,
          "name": "A4",
          "ticks": 123344,
          "time": 386.22633336666667,
          "velocity": 0.4645669291338583
        },
        {
          "duration": 0.7000000000000455,
          "durationTicks": 224,
          "midi": 65,
          "name": "F4",
          "ticks": 123360,
          "time": 386.2763333666666,
          "velocity": 0.4645669291338583
        },
        {
          "duration": 0.6999999999999886,
          "durationTicks": 224,
          "midi": 67,
          "name": "G4",
          "ticks": 123584,
          "time": 386.97633336666667,
          "velocity": 0.47244094488188976
        },
        {
          "duration": 0.7000000000000455,
          "durationTicks": 224,
          "midi": 64,
          "name": "E4",
          "ticks": 123596,
          "time": 387.01383336666663,
          "velocity": 0.47244094488188976
        },
        {
          "duration": 1.5,
          "durationTicks": 480,
          "midi": 65,
          "name": "F4",
          "ticks": 123840,
          "time": 387.7763333666666,
          "velocity": 0.3700787401574803
        },
        {
          "duration": 1.5,
          "durationTicks": 480,
          "midi": 53,
          "name": "F3",
          "ticks": 123848,
          "time": 387.80133336666665,
          "velocity": 0.3700787401574803
        },
        {
          "duration": 0.1875,
          "durationTicks": 60,
          "midi": 53,
          "name": "F3",
          "ticks": 125360,
          "time": 392.5263333666666,
          "velocity": 0.3858267716535433
        },
        {
          "duration": 0.1875,
          "durationTicks": 60,
          "midi": 57,
          "name": "A3",
          "ticks": 125360,
          "time": 392.5263333666666,
          "velocity": 0.3858267716535433
        },
        {
          "duration": 0.21249999999997726,
          "durationTicks": 68,
          "midi": 53,
          "name": "F3",
          "ticks": 125440,
          "time": 392.7763333666667,
          "velocity": 0.3858267716535433
        },
        {
          "duration": 0.21249999999997726,
          "durationTicks": 68,
          "midi": 57,
          "name": "A3",
          "ticks": 125440,
          "time": 392.7763333666667,
          "velocity": 0.3858267716535433
        },
        {
          "duration": 0.25,
          "durationTicks": 80,
          "midi": 53,
          "name": "F3",
          "ticks": 125520,
          "time": 393.0263333666666,
          "velocity": 0.3858267716535433
        },
        {
          "duration": 0.25,
          "durationTicks": 80,
          "midi": 57,
          "name": "A3",
          "ticks": 125520,
          "time": 393.0263333666666,
          "velocity": 0.3858267716535433
        },
        {
          "duration": 0.16250000000002274,
          "durationTicks": 52,
          "midi": 57,
          "name": "A3",
          "ticks": 125600,
          "time": 393.2763333666666,
          "velocity": 0.3858267716535433
        },
        {
          "duration": 0.16250000000002274,
          "durationTicks": 52,
          "midi": 60,
          "name": "C4",
          "ticks": 125600,
          "time": 393.2763333666666,
          "velocity": 0.3858267716535433
        },
        {
          "duration": 0.1875,
          "durationTicks": 60,
          "midi": 57,
          "name": "A3",
          "ticks": 125680,
          "time": 393.5263333666667,
          "velocity": 0.3858267716535433
        },
        {
          "duration": 0.1875,
          "durationTicks": 60,
          "midi": 60,
          "name": "C4",
          "ticks": 125680,
          "time": 393.5263333666667,
          "velocity": 0.3858267716535433
        },
        {
          "duration": 0.25,
          "durationTicks": 80,
          "midi": 57,
          "name": "A3",
          "ticks": 125760,
          "time": 393.7763333666666,
          "velocity": 0.3858267716535433
        },
        {
          "duration": 0.25,
          "durationTicks": 80,
          "midi": 60,
          "name": "C4",
          "ticks": 125760,
          "time": 393.7763333666666,
          "velocity": 0.3858267716535433
        },
        {
          "duration": 0.16250000000002274,
          "durationTicks": 52,
          "midi": 60,
          "name": "C4",
          "ticks": 125840,
          "time": 394.0263333666666,
          "velocity": 0.3858267716535433
        },
        {
          "duration": 0.16250000000002274,
          "durationTicks": 52,
          "midi": 65,
          "name": "F4",
          "ticks": 125840,
          "time": 394.0263333666666,
          "velocity": 0.3858267716535433
        },
        {
          "duration": 0.1875,
          "durationTicks": 60,
          "midi": 60,
          "name": "C4",
          "ticks": 125920,
          "time": 394.2763333666667,
          "velocity": 0.3858267716535433
        },
        {
          "duration": 0.1875,
          "durationTicks": 60,
          "midi": 65,
          "name": "F4",
          "ticks": 125920,
          "time": 394.2763333666667,
          "velocity": 0.3858267716535433
        },
        {
          "duration": 0.25,
          "durationTicks": 80,
          "midi": 60,
          "name": "C4",
          "ticks": 126000,
          "time": 394.5263333666666,
          "velocity": 0.3858267716535433
        },
        {
          "duration": 0.25,
          "durationTicks": 80,
          "midi": 65,
          "name": "F4",
          "ticks": 126000,
          "time": 394.5263333666666,
          "velocity": 0.3858267716535433
        },
        {
          "duration": 0.16250000000002274,
          "durationTicks": 52,
          "midi": 65,
          "name": "F4",
          "ticks": 126080,
          "time": 394.7763333666666,
          "velocity": 0.3858267716535433
        },
        {
          "duration": 0.25000000000005684,
          "durationTicks": 80,
          "midi": 69,
          "name": "A4",
          "ticks": 126080,
          "time": 394.7763333666666,
          "velocity": 0.3858267716535433
        },
        {
          "duration": 0.1875,
          "durationTicks": 60,
          "midi": 65,
          "name": "F4",
          "ticks": 126160,
          "time": 395.0263333666667,
          "velocity": 0.3858267716535433
        },
        {
          "duration": 0.1875,
          "durationTicks": 60,
          "midi": 69,
          "name": "A4",
          "ticks": 126160,
          "time": 395.0263333666667,
          "velocity": 0.3858267716535433
        },
        {
          "duration": 1.4875000000000114,
          "durationTicks": 476,
          "midi": 60,
          "name": "C4",
          "ticks": 126240,
          "time": 395.2763333666666,
          "velocity": 0.3858267716535433
        },
        {
          "duration": 1.4875000000000114,
          "durationTicks": 476,
          "midi": 67,
          "name": "G4",
          "ticks": 126240,
          "time": 395.2763333666666,
          "velocity": 0.3858267716535433
        },
        {
          "duration": 0.7375000000000114,
          "durationTicks": 236,
          "midi": 53,
          "name": "F3",
          "ticks": 126720,
          "time": 396.7763333666666,
          "velocity": 0.3858267716535433
        },
        {
          "duration": 0.7375000000000114,
          "durationTicks": 236,
          "midi": 65,
          "name": "F4",
          "ticks": 126720,
          "time": 396.7763333666666,
          "velocity": 0.3858267716535433
        },
        {
          "duration": 0.1875,
          "durationTicks": 60,
          "midi": 53,
          "name": "F3",
          "ticks": 128240,
          "time": 401.5263333666666,
          "velocity": 0.3858267716535433
        },
        {
          "duration": 0.1875,
          "durationTicks": 60,
          "midi": 57,
          "name": "A3",
          "ticks": 128240,
          "time": 401.5263333666666,
          "velocity": 0.3858267716535433
        },
        {
          "duration": 0.21249999999997726,
          "durationTicks": 68,
          "midi": 53,
          "name": "F3",
          "ticks": 128320,
          "time": 401.7763333666667,
          "velocity": 0.3858267716535433
        },
        {
          "duration": 0.21249999999997726,
          "durationTicks": 68,
          "midi": 57,
          "name": "A3",
          "ticks": 128320,
          "time": 401.7763333666667,
          "velocity": 0.3858267716535433
        },
        {
          "duration": 0.25,
          "durationTicks": 80,
          "midi": 53,
          "name": "F3",
          "ticks": 128400,
          "time": 402.0263333666666,
          "velocity": 0.3858267716535433
        },
        {
          "duration": 0.25,
          "durationTicks": 80,
          "midi": 57,
          "name": "A3",
          "ticks": 128400,
          "time": 402.0263333666666,
          "velocity": 0.3858267716535433
        },
        {
          "duration": 0.16250000000002274,
          "durationTicks": 52,
          "midi": 57,
          "name": "A3",
          "ticks": 128480,
          "time": 402.2763333666666,
          "velocity": 0.3858267716535433
        },
        {
          "duration": 0.16250000000002274,
          "durationTicks": 52,
          "midi": 60,
          "name": "C4",
          "ticks": 128480,
          "time": 402.2763333666666,
          "velocity": 0.3858267716535433
        },
        {
          "duration": 0.1875,
          "durationTicks": 60,
          "midi": 57,
          "name": "A3",
          "ticks": 128560,
          "time": 402.5263333666667,
          "velocity": 0.3858267716535433
        },
        {
          "duration": 0.1875,
          "durationTicks": 60,
          "midi": 60,
          "name": "C4",
          "ticks": 128560,
          "time": 402.5263333666667,
          "velocity": 0.3858267716535433
        },
        {
          "duration": 0.24999999999994316,
          "durationTicks": 80,
          "midi": 57,
          "name": "A3",
          "ticks": 128640,
          "time": 402.7763333666667,
          "velocity": 0.3858267716535433
        },
        {
          "duration": 0.24999999999994316,
          "durationTicks": 80,
          "midi": 60,
          "name": "C4",
          "ticks": 128640,
          "time": 402.7763333666667,
          "velocity": 0.3858267716535433
        },
        {
          "duration": 0.16250000000002274,
          "durationTicks": 52,
          "midi": 60,
          "name": "C4",
          "ticks": 128720,
          "time": 403.0263333666666,
          "velocity": 0.3858267716535433
        },
        {
          "duration": 0.16250000000002274,
          "durationTicks": 52,
          "midi": 65,
          "name": "F4",
          "ticks": 128720,
          "time": 403.0263333666666,
          "velocity": 0.3858267716535433
        },
        {
          "duration": 0.1875,
          "durationTicks": 60,
          "midi": 60,
          "name": "C4",
          "ticks": 128800,
          "time": 403.2763333666667,
          "velocity": 0.3858267716535433
        },
        {
          "duration": 0.1875,
          "durationTicks": 60,
          "midi": 65,
          "name": "F4",
          "ticks": 128800,
          "time": 403.2763333666667,
          "velocity": 0.3858267716535433
        },
        {
          "duration": 0.24999999999994316,
          "durationTicks": 80,
          "midi": 60,
          "name": "C4",
          "ticks": 128880,
          "time": 403.5263333666667,
          "velocity": 0.3858267716535433
        },
        {
          "duration": 0.24999999999994316,
          "durationTicks": 80,
          "midi": 65,
          "name": "F4",
          "ticks": 128880,
          "time": 403.5263333666667,
          "velocity": 0.3858267716535433
        },
        {
          "duration": 0.16250000000002274,
          "durationTicks": 52,
          "midi": 65,
          "name": "F4",
          "ticks": 128960,
          "time": 403.7763333666666,
          "velocity": 0.3858267716535433
        },
        {
          "duration": 0.25000000000005684,
          "durationTicks": 80,
          "midi": 69,
          "name": "A4",
          "ticks": 128960,
          "time": 403.7763333666666,
          "velocity": 0.3858267716535433
        },
        {
          "duration": 0.1875,
          "durationTicks": 60,
          "midi": 65,
          "name": "F4",
          "ticks": 129040,
          "time": 404.0263333666667,
          "velocity": 0.3858267716535433
        },
        {
          "duration": 0.1875,
          "durationTicks": 60,
          "midi": 69,
          "name": "A4",
          "ticks": 129040,
          "time": 404.0263333666667,
          "velocity": 0.3858267716535433
        },
        {
          "duration": 0.7374999999999545,
          "durationTicks": 236,
          "midi": 65,
          "name": "F4",
          "ticks": 129120,
          "time": 404.2763333666667,
          "velocity": 0.3858267716535433
        },
        {
          "duration": 0.7249999999999659,
          "durationTicks": 232,
          "midi": 69,
          "name": "A4",
          "ticks": 129120,
          "time": 404.2763333666667,
          "velocity": 0.3858267716535433
        },
        {
          "duration": 0.7374999999999545,
          "durationTicks": 236,
          "midi": 60,
          "name": "C4",
          "ticks": 129360,
          "time": 405.0263333666667,
          "velocity": 0.3858267716535433
        },
        {
          "duration": 0.7249999999999659,
          "durationTicks": 232,
          "midi": 67,
          "name": "G4",
          "ticks": 129360,
          "time": 405.0263333666667,
          "velocity": 0.3858267716535433
        },
        {
          "duration": 1.5,
          "durationTicks": 480,
          "midi": 60,
          "name": "C4",
          "ticks": 129600,
          "time": 405.7763333666667,
          "velocity": 0.3858267716535433
        },
        {
          "duration": 1.5,
          "durationTicks": 480,
          "midi": 67,
          "name": "G4",
          "ticks": 129600,
          "time": 405.7763333666667,
          "velocity": 0.3858267716535433
        },
        {
          "duration": 0.75,
          "durationTicks": 240,
          "midi": 53,
          "name": "F3",
          "ticks": 130080,
          "time": 407.2763333666667,
          "velocity": 0.3858267716535433
        },
        {
          "duration": 0.75,
          "durationTicks": 240,
          "midi": 65,
          "name": "F4",
          "ticks": 130080,
          "time": 407.2763333666667,
          "velocity": 0.3858267716535433
        },
        {
          "duration": 0.4878050000000371,
          "durationTicks": 160,
          "midi": 48,
          "name": "C3",
          "ticks": 132960,
          "time": 416.4192717333333,
          "velocity": 0.4645669291338583
        },
        {
          "duration": 0.4878050000000371,
          "durationTicks": 160,
          "midi": 60,
          "name": "C4",
          "ticks": 132960,
          "time": 416.4192717333333,
          "velocity": 0.4645669291338583
        },
        {
          "duration": 0.4878050000000371,
          "durationTicks": 160,
          "midi": 53,
          "name": "F3",
          "ticks": 134400,
          "time": 420.8095167333333,
          "velocity": 0.4645669291338583
        },
        {
          "duration": 0.4878050000000371,
          "durationTicks": 160,
          "midi": 65,
          "name": "F4",
          "ticks": 134400,
          "time": 420.8095167333333,
          "velocity": 0.4645669291338583
        },
        {
          "duration": 0.1875,
          "durationTicks": 60,
          "midi": 48,
          "name": "C3",
          "ticks": 141200,
          "time": 441.8998876166666,
          "velocity": 0.3858267716535433
        },
        {
          "duration": 0.1875,
          "durationTicks": 60,
          "midi": 60,
          "name": "C4",
          "ticks": 141200,
          "time": 441.8998876166666,
          "velocity": 0.3858267716535433
        },
        {
          "duration": 0.1875,
          "durationTicks": 60,
          "midi": 48,
          "name": "C3",
          "ticks": 141280,
          "time": 442.1498876166666,
          "velocity": 0.3858267716535433
        },
        {
          "duration": 0.1875,
          "durationTicks": 60,
          "midi": 60,
          "name": "C4",
          "ticks": 141280,
          "time": 442.1498876166666,
          "velocity": 0.3858267716535433
        },
        {
          "duration": 0.1875,
          "durationTicks": 60,
          "midi": 48,
          "name": "C3",
          "ticks": 141360,
          "time": 442.3998876166666,
          "velocity": 0.3858267716535433
        },
        {
          "duration": 0.1875,
          "durationTicks": 60,
          "midi": 60,
          "name": "C4",
          "ticks": 141360,
          "time": 442.3998876166666,
          "velocity": 0.3858267716535433
        },
        {
          "duration": 0.1875,
          "durationTicks": 60,
          "midi": 48,
          "name": "C3",
          "ticks": 141440,
          "time": 442.6498876166666,
          "velocity": 0.3858267716535433
        },
        {
          "duration": 0.1875,
          "durationTicks": 60,
          "midi": 60,
          "name": "C4",
          "ticks": 141440,
          "time": 442.6498876166666,
          "velocity": 0.3858267716535433
        },
        {
          "duration": 0.1875,
          "durationTicks": 60,
          "midi": 48,
          "name": "C3",
          "ticks": 141520,
          "time": 442.8998876166666,
          "velocity": 0.3858267716535433
        },
        {
          "duration": 0.1875,
          "durationTicks": 60,
          "midi": 60,
          "name": "C4",
          "ticks": 141520,
          "time": 442.8998876166666,
          "velocity": 0.3858267716535433
        },
        {
          "duration": 0.1875,
          "durationTicks": 60,
          "midi": 48,
          "name": "C3",
          "ticks": 141600,
          "time": 443.1498876166666,
          "velocity": 0.3858267716535433
        },
        {
          "duration": 0.1875,
          "durationTicks": 60,
          "midi": 60,
          "name": "C4",
          "ticks": 141600,
          "time": 443.1498876166666,
          "velocity": 0.3858267716535433
        },
        {
          "duration": 0.1875,
          "durationTicks": 60,
          "midi": 48,
          "name": "C3",
          "ticks": 141680,
          "time": 443.3998876166666,
          "velocity": 0.3858267716535433
        },
        {
          "duration": 0.1875,
          "durationTicks": 60,
          "midi": 60,
          "name": "C4",
          "ticks": 141680,
          "time": 443.3998876166666,
          "velocity": 0.3858267716535433
        },
        {
          "duration": 0.1875,
          "durationTicks": 60,
          "midi": 48,
          "name": "C3",
          "ticks": 141760,
          "time": 443.6498876166666,
          "velocity": 0.3858267716535433
        },
        {
          "duration": 0.1875,
          "durationTicks": 60,
          "midi": 60,
          "name": "C4",
          "ticks": 141760,
          "time": 443.6498876166666,
          "velocity": 0.3858267716535433
        },
        {
          "duration": 0.1875,
          "durationTicks": 60,
          "midi": 48,
          "name": "C3",
          "ticks": 141840,
          "time": 443.8998876166666,
          "velocity": 0.3858267716535433
        },
        {
          "duration": 0.1875,
          "durationTicks": 60,
          "midi": 60,
          "name": "C4",
          "ticks": 141840,
          "time": 443.8998876166666,
          "velocity": 0.3858267716535433
        },
        {
          "duration": 0.1875,
          "durationTicks": 60,
          "midi": 48,
          "name": "C3",
          "ticks": 141920,
          "time": 444.1498876166666,
          "velocity": 0.3858267716535433
        },
        {
          "duration": 0.1875,
          "durationTicks": 60,
          "midi": 60,
          "name": "C4",
          "ticks": 141920,
          "time": 444.1498876166666,
          "velocity": 0.3858267716535433
        },
        {
          "duration": 0.1875,
          "durationTicks": 60,
          "midi": 48,
          "name": "C3",
          "ticks": 142000,
          "time": 444.3998876166666,
          "velocity": 0.3858267716535433
        },
        {
          "duration": 0.1875,
          "durationTicks": 60,
          "midi": 60,
          "name": "C4",
          "ticks": 142000,
          "time": 444.3998876166666,
          "velocity": 0.3858267716535433
        },
        {
          "duration": 1.7740221333332897,
          "durationTicks": 540,
          "midi": 48,
          "name": "C3",
          "ticks": 142080,
          "time": 444.6498876166666,
          "velocity": 0.3858267716535433
        },
        {
          "duration": 1.7740221333332897,
          "durationTicks": 540,
          "midi": 60,
          "name": "C4",
          "ticks": 142080,
          "time": 444.6498876166666,
          "velocity": 0.3858267716535433
        },
        {
          "duration": 0.1875,
          "durationTicks": 60,
          "midi": 48,
          "name": "C3",
          "ticks": 142640,
          "time": 446.4864097499999,
          "velocity": 0.3858267716535433
        },
        {
          "duration": 0.1875,
          "durationTicks": 60,
          "midi": 60,
          "name": "C4",
          "ticks": 142640,
          "time": 446.4864097499999,
          "velocity": 0.3858267716535433
        },
        {
          "duration": 0.1875,
          "durationTicks": 60,
          "midi": 48,
          "name": "C3",
          "ticks": 142720,
          "time": 446.7364097499999,
          "velocity": 0.3858267716535433
        },
        {
          "duration": 0.1875,
          "durationTicks": 60,
          "midi": 60,
          "name": "C4",
          "ticks": 142720,
          "time": 446.7364097499999,
          "velocity": 0.3858267716535433
        },
        {
          "duration": 0.1875,
          "durationTicks": 60,
          "midi": 48,
          "name": "C3",
          "ticks": 142800,
          "time": 446.9864097499999,
          "velocity": 0.3858267716535433
        },
        {
          "duration": 0.1875,
          "durationTicks": 60,
          "midi": 60,
          "name": "C4",
          "ticks": 142800,
          "time": 446.9864097499999,
          "velocity": 0.3858267716535433
        },
        {
          "duration": 0.1875,
          "durationTicks": 60,
          "midi": 48,
          "name": "C3",
          "ticks": 142880,
          "time": 447.2364097499999,
          "velocity": 0.3858267716535433
        },
        {
          "duration": 0.1875,
          "durationTicks": 60,
          "midi": 60,
          "name": "C4",
          "ticks": 142880,
          "time": 447.2364097499999,
          "velocity": 0.3858267716535433
        },
        {
          "duration": 0.1875,
          "durationTicks": 60,
          "midi": 48,
          "name": "C3",
          "ticks": 142960,
          "time": 447.4864097499999,
          "velocity": 0.3858267716535433
        },
        {
          "duration": 0.1875,
          "durationTicks": 60,
          "midi": 60,
          "name": "C4",
          "ticks": 142960,
          "time": 447.4864097499999,
          "velocity": 0.3858267716535433
        },
        {
          "duration": 0.1875,
          "durationTicks": 60,
          "midi": 48,
          "name": "C3",
          "ticks": 143040,
          "time": 447.7364097499999,
          "velocity": 0.3858267716535433
        },
        {
          "duration": 0.1875,
          "durationTicks": 60,
          "midi": 60,
          "name": "C4",
          "ticks": 143040,
          "time": 447.7364097499999,
          "velocity": 0.3858267716535433
        },
        {
          "duration": 0.1875,
          "durationTicks": 60,
          "midi": 48,
          "name": "C3",
          "ticks": 143120,
          "time": 447.9864097499999,
          "velocity": 0.3858267716535433
        },
        {
          "duration": 0.1875,
          "durationTicks": 60,
          "midi": 60,
          "name": "C4",
          "ticks": 143120,
          "time": 447.9864097499999,
          "velocity": 0.3858267716535433
        },
        {
          "duration": 0.1875,
          "durationTicks": 60,
          "midi": 48,
          "name": "C3",
          "ticks": 143200,
          "time": 448.2364097499999,
          "velocity": 0.3858267716535433
        },
        {
          "duration": 0.1875,
          "durationTicks": 60,
          "midi": 60,
          "name": "C4",
          "ticks": 143200,
          "time": 448.2364097499999,
          "velocity": 0.3858267716535433
        },
        {
          "duration": 0.1875,
          "durationTicks": 60,
          "midi": 48,
          "name": "C3",
          "ticks": 143280,
          "time": 448.4864097499999,
          "velocity": 0.3858267716535433
        },
        {
          "duration": 0.1875,
          "durationTicks": 60,
          "midi": 60,
          "name": "C4",
          "ticks": 143280,
          "time": 448.4864097499999,
          "velocity": 0.3858267716535433
        },
        {
          "duration": 0.1875,
          "durationTicks": 60,
          "midi": 48,
          "name": "C3",
          "ticks": 143360,
          "time": 448.7364097499999,
          "velocity": 0.3858267716535433
        },
        {
          "duration": 0.1875,
          "durationTicks": 60,
          "midi": 60,
          "name": "C4",
          "ticks": 143360,
          "time": 448.7364097499999,
          "velocity": 0.3858267716535433
        },
        {
          "duration": 0.19736837499999638,
          "durationTicks": 60,
          "midi": 48,
          "name": "C3",
          "ticks": 143440,
          "time": 448.9864097499999,
          "velocity": 0.3858267716535433
        },
        {
          "duration": 0.19736837499999638,
          "durationTicks": 60,
          "midi": 60,
          "name": "C4",
          "ticks": 143440,
          "time": 448.9864097499999,
          "velocity": 0.3858267716535433
        },
        {
          "duration": 3.7200657666666643,
          "durationTicks": 960,
          "midi": 48,
          "name": "C3",
          "ticks": 143520,
          "time": 449.2495675833332,
          "velocity": 0.3858267716535433
        },
        {
          "duration": 4.791494266666689,
          "durationTicks": 1200,
          "midi": 60,
          "name": "C4",
          "ticks": 143520,
          "time": 449.2495675833332,
          "velocity": 0.3858267716535433
        },
        {
          "duration": 1.0714285000000245,
          "durationTicks": 240,
          "midi": 53,
          "name": "F3",
          "ticks": 144480,
          "time": 452.96963334999987,
          "velocity": 0.3858267716535433
        }
      ]
    },
    {
      "channel": 0,
      "controlChanges": {},
      "pitchBends": [],
      "instrument": {
        "family": "piano",
        "number": 0,
        "name": "acoustic grand piano"
      },
      "name": "Violini I.",
      "notes": [],
      "endOfTrackTicks": 146880
    },
    {
      "channel": 4,
      "controlChanges": {
        "7": [
          {
            "number": 7,
            "ticks": 0,
            "time": 0,
            "value": 1
          }
        ],
        "10": [
          {
            "number": 10,
            "ticks": 0,
            "time": 0,
            "value": 0.1968503937007874
          }
        ]
      },
      "pitchBends": [],
      "instrument": {
        "family": "ensemble",
        "number": 48,
        "name": "string ensemble 1"
      },
      "name": "",
      "notes": [
        {
          "duration": 1.125,
          "durationTicks": 360,
          "midi": 65,
          "name": "F4",
          "ticks": 0,
          "time": 0,
          "velocity": 0.4409448818897638
        },
        {
          "duration": 0.375,
          "durationTicks": 120,
          "midi": 60,
          "name": "C4",
          "ticks": 360,
          "time": 1.125,
          "velocity": 0.4409448818897638
        },
        {
          "duration": 2.6125,
          "durationTicks": 836,
          "midi": 69,
          "name": "A4",
          "ticks": 480,
          "time": 1.5,
          "velocity": 0.4409448818897638
        },
        {
          "duration": 0.17499999999999982,
          "durationTicks": 56,
          "midi": 67,
          "name": "G4",
          "ticks": 1320,
          "time": 4.125,
          "velocity": 0.4409448818897638
        },
        {
          "duration": 0.17499999999999982,
          "durationTicks": 56,
          "midi": 65,
          "name": "F4",
          "ticks": 1380,
          "time": 4.3125,
          "velocity": 0.4409448818897638
        },
        {
          "duration": 0.75,
          "durationTicks": 240,
          "midi": 64,
          "name": "E4",
          "ticks": 1440,
          "time": 4.5,
          "velocity": 0.4409448818897638
        },
        {
          "duration": 0.5,
          "durationTicks": 160,
          "midi": 70,
          "name": "A#4",
          "ticks": 1920,
          "time": 6,
          "velocity": 0.4881889763779528
        },
        {
          "duration": 1.125,
          "durationTicks": 360,
          "midi": 67,
          "name": "G4",
          "ticks": 2880,
          "time": 9,
          "velocity": 0.4409448818897638
        },
        {
          "duration": 0.375,
          "durationTicks": 120,
          "midi": 60,
          "name": "C4",
          "ticks": 3240,
          "time": 10.125,
          "velocity": 0.4409448818897638
        },
        {
          "duration": 2.6125000000000007,
          "durationTicks": 836,
          "midi": 70,
          "name": "A#4",
          "ticks": 3360,
          "time": 10.5,
          "velocity": 0.4409448818897638
        },
        {
          "duration": 0.1750000000000007,
          "durationTicks": 56,
          "midi": 69,
          "name": "A4",
          "ticks": 4200,
          "time": 13.125,
          "velocity": 0.4409448818897638
        },
        {
          "duration": 0.1750000000000007,
          "durationTicks": 56,
          "midi": 67,
          "name": "G4",
          "ticks": 4260,
          "time": 13.3125,
          "velocity": 0.4409448818897638
        },
        {
          "duration": 0.75,
          "durationTicks": 240,
          "midi": 65,
          "name": "F4",
          "ticks": 4320,
          "time": 13.5,
          "velocity": 0.4409448818897638
        },
        {
          "duration": 0.5,
          "durationTicks": 160,
          "midi": 72,
          "name": "C5",
          "ticks": 4800,
          "time": 15,
          "velocity": 0.47244094488188976
        },
        {
          "duration": 1.125,
          "durationTicks": 360,
          "midi": 77,
          "name": "F5",
          "ticks": 5760,
          "time": 18,
          "velocity": 0.4409448818897638
        },
        {
          "duration": 0.375,
          "durationTicks": 120,
          "midi": 72,
          "name": "C5",
          "ticks": 6120,
          "time": 19.125,
          "velocity": 0.4409448818897638
        },
        {
          "duration": 1.125,
          "durationTicks": 360,
          "midi": 81,
          "name": "A5",
          "ticks": 6240,
          "time": 19.5,
          "velocity": 0.4409448818897638
        },
        {
          "duration": 0.125,
          "durationTicks": 40,
          "midi": 79,
          "name": "G5",
          "ticks": 6600,
          "time": 20.625,
          "velocity": 0.4409448818897638
        },
        {
          "duration": 0.125,
          "durationTicks": 40,
          "midi": 77,
          "name": "F5",
          "ticks": 6640,
          "time": 20.75,
          "velocity": 0.4409448818897638
        },
        {
          "duration": 0.125,
          "durationTicks": 40,
          "midi": 76,
          "name": "E5",
          "ticks": 6680,
          "time": 20.875,
          "velocity": 0.4409448818897638
        },
        {
          "duration": 0.375,
          "durationTicks": 120,
          "midi": 79,
          "name": "G5",
          "ticks": 6720,
          "time": 21,
          "velocity": 0.4409448818897638
        },
        {
          "duration": 0.375,
          "durationTicks": 120,
          "midi": 77,
          "name": "F5",
          "ticks": 6840,
          "time": 21.375,
          "velocity": 0.4409448818897638
        },
        {
          "duration": 0.375,
          "durationTicks": 120,
          "midi": 76,
          "name": "E5",
          "ticks": 6960,
          "time": 21.75,
          "velocity": 0.4409448818897638
        },
        {
          "duration": 0.375,
          "durationTicks": 120,
          "midi": 74,
          "name": "D5",
          "ticks": 7080,
          "time": 22.125,
          "velocity": 0.4409448818897638
        },
        {
          "duration": 0.75,
          "durationTicks": 240,
          "midi": 72,
          "name": "C5",
          "ticks": 7200,
          "time": 22.5,
          "velocity": 0.4409448818897638
        },
        {
          "duration": 0.75,
          "durationTicks": 240,
          "midi": 71,
          "name": "B4",
          "ticks": 7440,
          "time": 23.25,
          "velocity": 0.4409448818897638
        },
        {
          "duration": 1.5,
          "durationTicks": 480,
          "midi": 70,
          "name": "A#4",
          "ticks": 7680,
          "time": 24,
          "velocity": 0.4409448818897638
        },
        {
          "duration": 1.5,
          "durationTicks": 480,
          "midi": 69,
          "name": "A4",
          "ticks": 8160,
          "time": 25.5,
          "velocity": 0.4409448818897638
        },
        {
          "duration": 1.6750000000000007,
          "durationTicks": 536,
          "midi": 74,
          "name": "D5",
          "ticks": 8640,
          "time": 27,
          "velocity": 0.5118110236220472
        },
        {
          "duration": 0.1875,
          "durationTicks": 60,
          "midi": 76,
          "name": "E5",
          "ticks": 9180,
          "time": 28.6875,
          "velocity": 0.5118110236220472
        },
        {
          "duration": 0.1875,
          "durationTicks": 60,
          "midi": 74,
          "name": "D5",
          "ticks": 9240,
          "time": 28.875,
          "velocity": 0.5039370078740157
        },
        {
          "duration": 0.1875,
          "durationTicks": 60,
          "midi": 73,
          "name": "C#5",
          "ticks": 9300,
          "time": 29.0625,
          "velocity": 0.5039370078740157
        },
        {
          "duration": 0.375,
          "durationTicks": 120,
          "midi": 74,
          "name": "D5",
          "ticks": 9360,
          "time": 29.25,
          "velocity": 0.5039370078740157
        },
        {
          "duration": 0.375,
          "durationTicks": 120,
          "midi": 76,
          "name": "E5",
          "ticks": 9480,
          "time": 29.625,
          "velocity": 0.5039370078740157
        },
        {
          "duration": 0.375,
          "durationTicks": 120,
          "midi": 79,
          "name": "G5",
          "ticks": 9600,
          "time": 30,
          "velocity": 0.5039370078740157
        },
        {
          "duration": 0.375,
          "durationTicks": 120,
          "midi": 77,
          "name": "F5",
          "ticks": 9720,
          "time": 30.375,
          "velocity": 0.5039370078740157
        },
        {
          "duration": 0.375,
          "durationTicks": 120,
          "midi": 76,
          "name": "E5",
          "ticks": 9840,
          "time": 30.75,
          "velocity": 0.49606299212598426
        },
        {
          "duration": 0.375,
          "durationTicks": 120,
          "midi": 74,
          "name": "D5",
          "ticks": 9960,
          "time": 31.125,
          "velocity": 0.49606299212598426
        },
        {
          "duration": 1.125,
          "durationTicks": 360,
          "midi": 74,
          "name": "D5",
          "ticks": 10080,
          "time": 31.5,
          "velocity": 0.49606299212598426
        },
        {
          "duration": 0.375,
          "durationTicks": 120,
          "midi": 72,
          "name": "C5",
          "ticks": 10440,
          "time": 32.625,
          "velocity": 0.49606299212598426
        },
        {
          "duration": 1.875,
          "durationTicks": 600,
          "midi": 72,
          "name": "C5",
          "ticks": 10560,
          "time": 33,
          "velocity": 0.49606299212598426
        },
        {
          "duration": 0.375,
          "durationTicks": 120,
          "midi": 73,
          "name": "C#5",
          "ticks": 11160,
          "time": 34.875,
          "velocity": 0.4881889763779528
        },
        {
          "duration": 0.375,
          "durationTicks": 120,
          "midi": 74,
          "name": "D5",
          "ticks": 11280,
          "time": 35.25,
          "velocity": 0.4881889763779528
        },
        {
          "duration": 0.375,
          "durationTicks": 120,
          "midi": 70,
          "name": "A#4",
          "ticks": 11400,
          "time": 35.625,
          "velocity": 0.4881889763779528
        },
        {
          "duration": 1.8624999999999972,
          "durationTicks": 596,
          "midi": 69,
          "name": "A4",
          "ticks": 11520,
          "time": 36,
          "velocity": 0.4330708661417323
        },
        {
          "duration": 0.1875,
          "durationTicks": 60,
          "midi": 70,
          "name": "A#4",
          "ticks": 12120,
          "time": 37.875,
          "velocity": 0.4330708661417323
        },
        {
          "duration": 0.1875,
          "durationTicks": 60,
          "midi": 69,
          "name": "A4",
          "ticks": 12180,
          "time": 38.0625,
          "velocity": 0.4330708661417323
        },
        {
          "duration": 0.1875,
          "durationTicks": 60,
          "midi": 68,
          "name": "G#4",
          "ticks": 12240,
          "time": 38.25,
          "velocity": 0.4330708661417323
        },
        {
          "duration": 0.1875,
          "durationTicks": 60,
          "midi": 69,
          "name": "A4",
          "ticks": 12300,
          "time": 38.4375,
          "velocity": 0.4330708661417323
        },
        {
          "duration": 0.1875,
          "durationTicks": 60,
          "midi": 68,
          "name": "G#4",
          "ticks": 12360,
          "time": 38.625,
          "velocity": 0.4330708661417323
        },
        {
          "duration": 0.1875,
          "durationTicks": 60,
          "midi": 69,
          "name": "A4",
          "ticks": 12420,
          "time": 38.8125,
          "velocity": 0.4330708661417323
        },
        {
          "duration": 0.375,
          "durationTicks": 120,
          "midi": 72,
          "name": "C5",
          "ticks": 12480,
          "time": 39,
          "velocity": 0.4330708661417323
        },
        {
          "duration": 0.375,
          "durationTicks": 120,
          "midi": 70,
          "name": "A#4",
          "ticks": 12600,
          "time": 39.375,
          "velocity": 0.4330708661417323
        },
        {
          "duration": 0.375,
          "durationTicks": 120,
          "midi": 69,
          "name": "A4",
          "ticks": 12720,
          "time": 39.75,
          "velocity": 0.4330708661417323
        },
        {
          "duration": 0.375,
          "durationTicks": 120,
          "midi": 67,
          "name": "G4",
          "ticks": 12840,
          "time": 40.125,
          "velocity": 0.4330708661417323
        },
        {
          "duration": 0.5625,
          "durationTicks": 180,
          "midi": 72,
          "name": "C5",
          "ticks": 12960,
          "time": 40.5,
          "velocity": 0.4330708661417323
        },
        {
          "duration": 0.17499999999999716,
          "durationTicks": 56,
          "midi": 69,
          "name": "A4",
          "ticks": 13140,
          "time": 41.0625,
          "velocity": 0.4330708661417323
        },
        {
          "duration": 1.4874999999999972,
          "durationTicks": 476,
          "midi": 65,
          "name": "F4",
          "ticks": 13200,
          "time": 41.25,
          "velocity": 0.4330708661417323
        },
        {
          "duration": 0.36249999999999716,
          "durationTicks": 116,
          "midi": 67,
          "name": "G4",
          "ticks": 13680,
          "time": 42.75,
          "velocity": 0.4330708661417323
        },
        {
          "duration": 0.32499999999999574,
          "durationTicks": 104,
          "midi": 69,
          "name": "A4",
          "ticks": 13800,
          "time": 43.125,
          "velocity": 0.4330708661417323
        },
        {
          "duration": 0.375,
          "durationTicks": 120,
          "midi": 69,
          "name": "A4",
          "ticks": 13920,
          "time": 43.5,
          "velocity": 0.4330708661417323
        },
        {
          "duration": 0.375,
          "durationTicks": 120,
          "midi": 67,
          "name": "G4",
          "ticks": 14040,
          "time": 43.875,
          "velocity": 0.4330708661417323
        },
        {
          "duration": 0.375,
          "durationTicks": 120,
          "midi": 65,
          "name": "F4",
          "ticks": 14160,
          "time": 44.25,
          "velocity": 0.4330708661417323
        },
        {
          "duration": 0.375,
          "durationTicks": 120,
          "midi": 64,
          "name": "E4",
          "ticks": 14280,
          "time": 44.625,
          "velocity": 0.4330708661417323
        },
        {
          "duration": 1.5,
          "durationTicks": 480,
          "midi": 65,
          "name": "F4",
          "ticks": 14400,
          "time": 45,
          "velocity": 0.4015748031496063
        },
        {
          "duration": 0.1875,
          "durationTicks": 60,
          "midi": 78,
          "name": "F#5",
          "ticks": 16380,
          "time": 51.1875,
          "velocity": 0.3937007874015748
        },
        {
          "duration": 0.1875,
          "durationTicks": 60,
          "midi": 79,
          "name": "G5",
          "ticks": 16440,
          "time": 51.375,
          "velocity": 0.3937007874015748
        },
        {
          "duration": 0.1875,
          "durationTicks": 60,
          "midi": 78,
          "name": "F#5",
          "ticks": 16500,
          "time": 51.5625,
          "velocity": 0.3937007874015748
        },
        {
          "duration": 0.1875,
          "durationTicks": 60,
          "midi": 79,
          "name": "G5",
          "ticks": 16560,
          "time": 51.75,
          "velocity": 0.3937007874015748
        },
        {
          "duration": 0.1875,
          "durationTicks": 60,
          "midi": 81,
          "name": "A5",
          "ticks": 16620,
          "time": 51.9375,
          "velocity": 0.3937007874015748
        },
        {
          "duration": 0.1875,
          "durationTicks": 60,
          "midi": 82,
          "name": "A#5",
          "ticks": 16680,
          "time": 52.125,
          "velocity": 0.3937007874015748
        },
        {
          "duration": 0.1875,
          "durationTicks": 60,
          "midi": 81,
          "name": "A5",
          "ticks": 16740,
          "time": 52.3125,
          "velocity": 0.3937007874015748
        },
        {
          "duration": 0.1875,
          "durationTicks": 60,
          "midi": 82,
          "name": "A#5",
          "ticks": 16800,
          "time": 52.5,
          "velocity": 0.3937007874015748
        },
        {
          "duration": 0.1875,
          "durationTicks": 60,
          "midi": 85,
          "name": "C#6",
          "ticks": 16860,
          "time": 52.6875,
          "velocity": 0.3937007874015748
        },
        {
          "duration": 0.1875,
          "durationTicks": 60,
          "midi": 86,
          "name": "D6",
          "ticks": 16920,
          "time": 52.875,
          "velocity": 0.3937007874015748
        },
        {
          "duration": 0.1875,
          "durationTicks": 60,
          "midi": 81,
          "name": "A5",
          "ticks": 16980,
          "time": 53.0625,
          "velocity": 0.3937007874015748
        },
        {
          "duration": 0.1875,
          "durationTicks": 60,
          "midi": 84,
          "name": "C6",
          "ticks": 17040,
          "time": 53.25,
          "velocity": 0.3937007874015748
        },
        {
          "duration": 0.1875,
          "durationTicks": 60,
          "midi": 82,
          "name": "A#5",
          "ticks": 17100,
          "time": 53.4375,
          "velocity": 0.3937007874015748
        },
        {
          "duration": 0.1875,
          "durationTicks": 60,
          "midi": 81,
          "name": "A5",
          "ticks": 17160,
          "time": 53.625,
          "velocity": 0.3937007874015748
        },
        {
          "duration": 0.1875,
          "durationTicks": 60,
          "midi": 79,
          "name": "G5",
          "ticks": 17220,
          "time": 53.8125,
          "velocity": 0.3937007874015748
        },
        {
          "duration": 1.5,
          "durationTicks": 480,
          "midi": 77,
          "name": "F5",
          "ticks": 17280,
          "time": 54,
          "velocity": 0.3937007874015748
        },
        {
          "duration": 0.75,
          "durationTicks": 240,
          "midi": 76,
          "name": "E5",
          "ticks": 17760,
          "time": 55.5,
          "velocity": 0.3937007874015748
        },
        {
          "duration": 0.1875,
          "durationTicks": 60,
          "midi": 80,
          "name": "G#5",
          "ticks": 19260,
          "time": 60.1875,
          "velocity": 0.3858267716535433
        },
        {
          "duration": 0.1875,
          "durationTicks": 60,
          "midi": 81,
          "name": "A5",
          "ticks": 19320,
          "time": 60.375,
          "velocity": 0.3937007874015748
        },
        {
          "duration": 0.1875,
          "durationTicks": 60,
          "midi": 80,
          "name": "G#5",
          "ticks": 19380,
          "time": 60.5625,
          "velocity": 0.3937007874015748
        },
        {
          "duration": 0.1875,
          "durationTicks": 60,
          "midi": 81,
          "name": "A5",
          "ticks": 19440,
          "time": 60.75,
          "velocity": 0.3937007874015748
        },
        {
          "duration": 0.1875,
          "durationTicks": 60,
          "midi": 83,
          "name": "B5",
          "ticks": 19500,
          "time": 60.9375,
          "velocity": 0.3937007874015748
        },
        {
          "duration": 0.1875,
          "durationTicks": 60,
          "midi": 84,
          "name": "C6",
          "ticks": 19560,
          "time": 61.125,
          "velocity": 0.3937007874015748
        },
        {
          "duration": 0.1875,
          "durationTicks": 60,
          "midi": 83,
          "name": "B5",
          "ticks": 19620,
          "time": 61.3125,
          "velocity": 0.4015748031496063
        },
        {
          "duration": 0.1875,
          "durationTicks": 60,
          "midi": 86,
          "name": "D6",
          "ticks": 19680,
          "time": 61.5,
          "velocity": 0.4015748031496063
        },
        {
          "duration": 0.1875,
          "durationTicks": 60,
          "midi": 84,
          "name": "C6",
          "ticks": 19740,
          "time": 61.6875,
          "velocity": 0.4015748031496063
        },
        {
          "duration": 0.1875,
          "durationTicks": 60,
          "midi": 83,
          "name": "B5",
          "ticks": 19800,
          "time": 61.875,
          "velocity": 0.4015748031496063
        },
        {
          "duration": 0.1875,
          "durationTicks": 60,
          "midi": 84,
          "name": "C6",
          "ticks": 19860,
          "time": 62.0625,
          "velocity": 0.4015748031496063
        },
        {
          "duration": 0.1875,
          "durationTicks": 60,
          "midi": 82,
          "name": "A#5",
          "ticks": 19920,
          "time": 62.25,
          "velocity": 0.4015748031496063
        },
        {
          "duration": 0.1875,
          "durationTicks": 60,
          "midi": 81,
          "name": "A5",
          "ticks": 19980,
          "time": 62.4375,
          "velocity": 0.4015748031496063
        },
        {
          "duration": 0.1875,
          "durationTicks": 60,
          "midi": 79,
          "name": "G5",
          "ticks": 20040,
          "time": 62.625,
          "velocity": 0.4015748031496063
        },
        {
          "duration": 0.1875,
          "durationTicks": 60,
          "midi": 77,
          "name": "F5",
          "ticks": 20100,
          "time": 62.8125,
          "velocity": 0.4015748031496063
        },
        {
          "duration": 1.125,
          "durationTicks": 360,
          "midi": 84,
          "name": "C6",
          "ticks": 20160,
          "time": 63,
          "velocity": 0.4015748031496063
        },
        {
          "duration": 0.375,
          "durationTicks": 120,
          "midi": 83,
          "name": "B5",
          "ticks": 20520,
          "time": 64.125,
          "velocity": 0.4015748031496063
        },
        {
          "duration": 2.25,
          "durationTicks": 720,
          "midi": 82,
          "name": "A#5",
          "ticks": 20640,
          "time": 64.5,
          "velocity": 0.4015748031496063
        },
        {
          "duration": 0.6625000000000085,
          "durationTicks": 212,
          "midi": 81,
          "name": "A5",
          "ticks": 21360,
          "time": 66.75,
          "velocity": 0.3858267716535433
        },
        {
          "duration": 1.125,
          "durationTicks": 360,
          "midi": 81,
          "name": "A5",
          "ticks": 21600,
          "time": 67.5,
          "velocity": 0.3858267716535433
        },
        {
          "duration": 0.2749999999999915,
          "durationTicks": 88,
          "midi": 79,
          "name": "G5",
          "ticks": 21960,
          "time": 68.625,
          "velocity": 0.3779527559055118
        },
        {
          "duration": 2.25,
          "durationTicks": 720,
          "midi": 79,
          "name": "G5",
          "ticks": 22080,
          "time": 69,
          "velocity": 0.3779527559055118
        },
        {
          "duration": 0.6499999999999915,
          "durationTicks": 208,
          "midi": 77,
          "name": "F5",
          "ticks": 22800,
          "time": 71.25,
          "velocity": 0.3700787401574803
        },
        {
          "duration": 1.8624999999999972,
          "durationTicks": 596,
          "midi": 77,
          "name": "F5",
          "ticks": 23040,
          "time": 72,
          "velocity": 0.36220472440944884
        },
        {
          "duration": 0.375,
          "durationTicks": 120,
          "midi": 76,
          "name": "E5",
          "ticks": 23640,
          "time": 73.875,
          "velocity": 0.36220472440944884
        },
        {
          "duration": 0.375,
          "durationTicks": 120,
          "midi": 74,
          "name": "D5",
          "ticks": 23760,
          "time": 74.25,
          "velocity": 0.3543307086614173
        },
        {
          "duration": 0.375,
          "durationTicks": 120,
          "midi": 72,
          "name": "C5",
          "ticks": 23880,
          "time": 74.625,
          "velocity": 0.3543307086614173
        },
        {
          "duration": 0.375,
          "durationTicks": 120,
          "midi": 71,
          "name": "B4",
          "ticks": 24000,
          "time": 75,
          "velocity": 0.3543307086614173
        },
        {
          "duration": 0.375,
          "durationTicks": 120,
          "midi": 70,
          "name": "A#4",
          "ticks": 24120,
          "time": 75.375,
          "velocity": 0.3543307086614173
        },
        {
          "duration": 0.375,
          "durationTicks": 120,
          "midi": 69,
          "name": "A4",
          "ticks": 24240,
          "time": 75.75,
          "velocity": 0.3543307086614173
        },
        {
          "duration": 0.32500000000000284,
          "durationTicks": 104,
          "midi": 72,
          "name": "C5",
          "ticks": 24360,
          "time": 76.125,
          "velocity": 0.3543307086614173
        },
        {
          "duration": 0.9249999999999972,
          "durationTicks": 296,
          "midi": 70,
          "name": "A#4",
          "ticks": 24480,
          "time": 76.5,
          "velocity": 0.3543307086614173
        },
        {
          "duration": 0.17499999999999716,
          "durationTicks": 56,
          "midi": 69,
          "name": "A4",
          "ticks": 24780,
          "time": 77.4375,
          "velocity": 0.3464566929133858
        },
        {
          "duration": 0.17499999999999716,
          "durationTicks": 56,
          "midi": 67,
          "name": "G4",
          "ticks": 24840,
          "time": 77.625,
          "velocity": 0.3464566929133858
        },
        {
          "duration": 0.17499999999999716,
          "durationTicks": 56,
          "midi": 69,
          "name": "A4",
          "ticks": 24900,
          "time": 77.8125,
          "velocity": 0.3464566929133858
        },
        {
          "duration": 1.4874999999999972,
          "durationTicks": 476,
          "midi": 67,
          "name": "G4",
          "ticks": 24960,
          "time": 78,
          "velocity": 0.3464566929133858
        },
        {
          "duration": 1.125,
          "durationTicks": 360,
          "midi": 79,
          "name": "G5",
          "ticks": 25920,
          "time": 81,
          "velocity": 0.49606299212598426
        },
        {
          "duration": 0.75,
          "durationTicks": 240,
          "midi": 75,
          "name": "D#5",
          "ticks": 26280,
          "time": 82.125,
          "velocity": 0.4251968503937008
        },
        {
          "duration": 0.75,
          "durationTicks": 240,
          "midi": 72,
          "name": "C5",
          "ticks": 26520,
          "time": 82.875,
          "velocity": 0.4251968503937008
        },
        {
          "duration": 0.75,
          "durationTicks": 240,
          "midi": 67,
          "name": "G4",
          "ticks": 26760,
          "time": 83.625,
          "velocity": 0.4251968503937008
        },
        {
          "duration": 0.7374999999999972,
          "durationTicks": 236,
          "midi": 63,
          "name": "D#4",
          "ticks": 27000,
          "time": 84.375,
          "velocity": 0.4251968503937008
        },
        {
          "duration": 0.36249999999999716,
          "durationTicks": 116,
          "midi": 60,
          "name": "C4",
          "ticks": 27240,
          "time": 85.125,
          "velocity": 0.4251968503937008
        },
        {
          "duration": 0.25,
          "durationTicks": 80,
          "midi": 61,
          "name": "C#4",
          "ticks": 27360,
          "time": 85.5,
          "velocity": 0.4251968503937008
        },
        {
          "duration": 0.1875,
          "durationTicks": 60,
          "midi": 62,
          "name": "D4",
          "ticks": 27440,
          "time": 85.75,
          "velocity": 0.4251968503937008
        },
        {
          "duration": 0.16250000000000853,
          "durationTicks": 52,
          "midi": 62,
          "name": "D4",
          "ticks": 27520,
          "time": 86,
          "velocity": 0.4251968503937008
        },
        {
          "duration": 0.2500000000000142,
          "durationTicks": 80,
          "midi": 61,
          "name": "C#4",
          "ticks": 27676,
          "time": 86.4875,
          "velocity": 0.4251968503937008
        },
        {
          "duration": 0.2499999999999858,
          "durationTicks": 80,
          "midi": 62,
          "name": "D4",
          "ticks": 27756,
          "time": 86.73750000000001,
          "velocity": 0.4251968503937008
        },
        {
          "duration": 0.2500000000000142,
          "durationTicks": 80,
          "midi": 61,
          "name": "C#4",
          "ticks": 27916,
          "time": 87.2375,
          "velocity": 0.4251968503937008
        },
        {
          "duration": 0.2499999999999858,
          "durationTicks": 80,
          "midi": 62,
          "name": "D4",
          "ticks": 27996,
          "time": 87.48750000000001,
          "velocity": 0.4251968503937008
        },
        {
          "duration": 0.2500000000000142,
          "durationTicks": 80,
          "midi": 61,
          "name": "C#4",
          "ticks": 28168,
          "time": 88.02499999999999,
          "velocity": 0.4251968503937008
        },
        {
          "duration": 0.25,
          "durationTicks": 80,
          "midi": 62,
          "name": "D4",
          "ticks": 28248,
          "time": 88.275,
          "velocity": 0.4251968503937008
        },
        {
          "duration": 0.2500000000000142,
          "durationTicks": 80,
          "midi": 61,
          "name": "C#4",
          "ticks": 28396,
          "time": 88.7375,
          "velocity": 0.4251968503937008
        },
        {
          "duration": 0.2499999999999858,
          "durationTicks": 80,
          "midi": 62,
          "name": "D4",
          "ticks": 28476,
          "time": 88.98750000000001,
          "velocity": 0.4251968503937008
        },
        {
          "duration": 0.2500000000000142,
          "durationTicks": 80,
          "midi": 61,
          "name": "C#4",
          "ticks": 28644,
          "time": 89.51249999999999,
          "velocity": 0.4251968503937008
        },
        {
          "duration": 0.25,
          "durationTicks": 80,
          "midi": 62,
          "name": "D4",
          "ticks": 28724,
          "time": 89.7625,
          "velocity": 0.4251968503937008
        },
        {
          "duration": 1.125,
          "durationTicks": 360,
          "midi": 80,
          "name": "G#5",
          "ticks": 28800,
          "time": 90,
          "velocity": 0.49606299212598426
        },
        {
          "duration": 0.75,
          "durationTicks": 240,
          "midi": 77,
          "name": "F5",
          "ticks": 29160,
          "time": 91.125,
          "velocity": 0.4251968503937008
        },
        {
          "duration": 0.75,
          "durationTicks": 240,
          "midi": 74,
          "name": "D5",
          "ticks": 29400,
          "time": 91.875,
          "velocity": 0.4251968503937008
        },
        {
          "duration": 0.75,
          "durationTicks": 240,
          "midi": 71,
          "name": "B4",
          "ticks": 29640,
          "time": 92.625,
          "velocity": 0.4251968503937008
        },
        {
          "duration": 0.75,
          "durationTicks": 240,
          "midi": 65,
          "name": "F4",
          "ticks": 29880,
          "time": 93.375,
          "velocity": 0.4251968503937008
        },
        {
          "duration": 0.3375000000000057,
          "durationTicks": 108,
          "midi": 62,
          "name": "D4",
          "ticks": 30120,
          "time": 94.125,
          "velocity": 0.4251968503937008
        },
        {
          "duration": 0.25,
          "durationTicks": 80,
          "midi": 62,
          "name": "D4",
          "ticks": 30240,
          "time": 94.5,
          "velocity": 0.4251968503937008
        },
        {
          "duration": 0.1875,
          "durationTicks": 60,
          "midi": 63,
          "name": "D#4",
          "ticks": 30320,
          "time": 94.75,
          "velocity": 0.4251968503937008
        },
        {
          "duration": 0.16250000000000853,
          "durationTicks": 52,
          "midi": 63,
          "name": "D#4",
          "ticks": 30400,
          "time": 95,
          "velocity": 0.4251968503937008
        },
        {
          "duration": 0.2500000000000142,
          "durationTicks": 80,
          "midi": 62,
          "name": "D4",
          "ticks": 30556,
          "time": 95.4875,
          "velocity": 0.4251968503937008
        },
        {
          "duration": 0.2499999999999858,
          "durationTicks": 80,
          "midi": 63,
          "name": "D#4",
          "ticks": 30636,
          "time": 95.73750000000001,
          "velocity": 0.4251968503937008
        },
        {
          "duration": 0.2500000000000142,
          "durationTicks": 80,
          "midi": 62,
          "name": "D4",
          "ticks": 30796,
          "time": 96.2375,
          "velocity": 0.4251968503937008
        },
        {
          "duration": 0.24999999999997158,
          "durationTicks": 80,
          "midi": 63,
          "name": "D#4",
          "ticks": 30876,
          "time": 96.48750000000001,
          "velocity": 0.4251968503937008
        },
        {
          "duration": 0.2499999999999858,
          "durationTicks": 80,
          "midi": 62,
          "name": "D4",
          "ticks": 31048,
          "time": 97.025,
          "velocity": 0.4251968503937008
        },
        {
          "duration": 0.2500000000000142,
          "durationTicks": 80,
          "midi": 63,
          "name": "D#4",
          "ticks": 31128,
          "time": 97.27499999999999,
          "velocity": 0.4251968503937008
        },
        {
          "duration": 0.2500000000000142,
          "durationTicks": 80,
          "midi": 62,
          "name": "D4",
          "ticks": 31276,
          "time": 97.7375,
          "velocity": 0.4251968503937008
        },
        {
          "duration": 0.24999999999997158,
          "durationTicks": 80,
          "midi": 63,
          "name": "D#4",
          "ticks": 31356,
          "time": 97.98750000000001,
          "velocity": 0.4251968503937008
        },
        {
          "duration": 0.2500000000000142,
          "durationTicks": 80,
          "midi": 62,
          "name": "D4",
          "ticks": 31524,
          "time": 98.51249999999999,
          "velocity": 0.4251968503937008
        },
        {
          "duration": 0.2500000000000142,
          "durationTicks": 80,
          "midi": 63,
          "name": "D#4",
          "ticks": 31604,
          "time": 98.7625,
          "velocity": 0.4251968503937008
        },
        {
          "duration": 1.125,
          "durationTicks": 360,
          "midi": 84,
          "name": "C6",
          "ticks": 31680,
          "time": 99,
          "velocity": 0.5433070866141733
        },
        {
          "duration": 0.737499999999983,
          "durationTicks": 236,
          "midi": 79,
          "name": "G5",
          "ticks": 32040,
          "time": 100.125,
          "velocity": 0.4330708661417323
        },
        {
          "duration": 0.737499999999983,
          "durationTicks": 236,
          "midi": 75,
          "name": "D#5",
          "ticks": 32280,
          "time": 100.875,
          "velocity": 0.4330708661417323
        },
        {
          "duration": 0.375,
          "durationTicks": 120,
          "midi": 72,
          "name": "C5",
          "ticks": 32520,
          "time": 101.625,
          "velocity": 0.4330708661417323
        },
        {
          "duration": 1.125,
          "durationTicks": 360,
          "midi": 84,
          "name": "C6",
          "ticks": 32640,
          "time": 102,
          "velocity": 0.5433070866141733
        },
        {
          "duration": 0.737499999999983,
          "durationTicks": 236,
          "midi": 80,
          "name": "G#5",
          "ticks": 33000,
          "time": 103.125,
          "velocity": 0.4330708661417323
        },
        {
          "duration": 0.737499999999983,
          "durationTicks": 236,
          "midi": 77,
          "name": "F5",
          "ticks": 33240,
          "time": 103.875,
          "velocity": 0.4330708661417323
        },
        {
          "duration": 0.375,
          "durationTicks": 120,
          "midi": 72,
          "name": "C5",
          "ticks": 33480,
          "time": 104.625,
          "velocity": 0.4330708661417323
        },
        {
          "duration": 1.125,
          "durationTicks": 360,
          "midi": 84,
          "name": "C6",
          "ticks": 33600,
          "time": 105,
          "velocity": 0.5433070866141733
        },
        {
          "duration": 0.737499999999983,
          "durationTicks": 236,
          "midi": 79,
          "name": "G5",
          "ticks": 33960,
          "time": 106.125,
          "velocity": 0.4330708661417323
        },
        {
          "duration": 0.737499999999983,
          "durationTicks": 236,
          "midi": 76,
          "name": "E5",
          "ticks": 34200,
          "time": 106.875,
          "velocity": 0.4330708661417323
        },
        {
          "duration": 0.375,
          "durationTicks": 120,
          "midi": 72,
          "name": "C5",
          "ticks": 34440,
          "time": 107.625,
          "velocity": 0.4330708661417323
        },
        {
          "duration": 1.125,
          "durationTicks": 360,
          "midi": 84,
          "name": "C6",
          "ticks": 34560,
          "time": 108,
          "velocity": 0.5433070866141733
        },
        {
          "duration": 0.737499999999983,
          "durationTicks": 236,
          "midi": 80,
          "name": "G#5",
          "ticks": 34920,
          "time": 109.125,
          "velocity": 0.4330708661417323
        },
        {
          "duration": 0.737499999999983,
          "durationTicks": 236,
          "midi": 77,
          "name": "F5",
          "ticks": 35160,
          "time": 109.875,
          "velocity": 0.4330708661417323
        },
        {
          "duration": 0.375,
          "durationTicks": 120,
          "midi": 72,
          "name": "C5",
          "ticks": 35400,
          "time": 110.625,
          "velocity": 0.4330708661417323
        },
        {
          "duration": 1.125,
          "durationTicks": 360,
          "midi": 87,
          "name": "D#6",
          "ticks": 35520,
          "time": 111,
          "velocity": 0.5433070866141733
        },
        {
          "duration": 0.737499999999983,
          "durationTicks": 236,
          "midi": 84,
          "name": "C6",
          "ticks": 35880,
          "time": 112.125,
          "velocity": 0.4330708661417323
        },
        {
          "duration": 0.737499999999983,
          "durationTicks": 236,
          "midi": 81,
          "name": "A5",
          "ticks": 36120,
          "time": 112.875,
          "velocity": 0.4330708661417323
        },
        {
          "duration": 0.737499999999983,
          "durationTicks": 236,
          "midi": 78,
          "name": "F#5",
          "ticks": 36360,
          "time": 113.625,
          "velocity": 0.4330708661417323
        },
        {
          "duration": 0.737499999999983,
          "durationTicks": 236,
          "midi": 75,
          "name": "D#5",
          "ticks": 36600,
          "time": 114.375,
          "velocity": 0.4330708661417323
        },
        {
          "duration": 0.375,
          "durationTicks": 120,
          "midi": 72,
          "name": "C5",
          "ticks": 36840,
          "time": 115.125,
          "velocity": 0.4330708661417323
        },
        {
          "duration": 0.375,
          "durationTicks": 120,
          "midi": 71,
          "name": "B4",
          "ticks": 36960,
          "time": 115.5,
          "velocity": 0.44881889763779526
        },
        {
          "duration": 0.375,
          "durationTicks": 120,
          "midi": 72,
          "name": "C5",
          "ticks": 37080,
          "time": 115.875,
          "velocity": 0.44881889763779526
        },
        {
          "duration": 0.375,
          "durationTicks": 120,
          "midi": 75,
          "name": "D#5",
          "ticks": 37200,
          "time": 116.25,
          "velocity": 0.44881889763779526
        },
        {
          "duration": 0.3374999999999915,
          "durationTicks": 108,
          "midi": 72,
          "name": "C5",
          "ticks": 37320,
          "time": 116.625,
          "velocity": 0.44881889763779526
        },
        {
          "duration": 1.8125,
          "durationTicks": 580,
          "midi": 72,
          "name": "C5",
          "ticks": 37440,
          "time": 117,
          "velocity": 0.44881889763779526
        },
        {
          "duration": 0.375,
          "durationTicks": 120,
          "midi": 71,
          "name": "B4",
          "ticks": 38040,
          "time": 118.875,
          "velocity": 0.44881889763779526
        },
        {
          "duration": 0.375,
          "durationTicks": 120,
          "midi": 69,
          "name": "A4",
          "ticks": 38160,
          "time": 119.25,
          "velocity": 0.44881889763779526
        },
        {
          "duration": 0.37960524166666687,
          "durationTicks": 120,
          "midi": 67,
          "name": "G4",
          "ticks": 38280,
          "time": 119.625,
          "velocity": 0.44881889763779526
        },
        {
          "duration": 0.1842104833333309,
          "durationTicks": 56,
          "midi": 66,
          "name": "F#4",
          "ticks": 38400,
          "time": 120.00460524166667,
          "velocity": 0.47244094488188976
        },
        {
          "duration": 0.1842104833333309,
          "durationTicks": 56,
          "midi": 67,
          "name": "G4",
          "ticks": 38460,
          "time": 120.20197361666666,
          "velocity": 0.4645669291338583
        },
        {
          "duration": 0.1842104833333309,
          "durationTicks": 56,
          "midi": 69,
          "name": "A4",
          "ticks": 38520,
          "time": 120.39934199166666,
          "velocity": 0.4566929133858268
        },
        {
          "duration": 0.1900584833333454,
          "durationTicks": 56,
          "midi": 67,
          "name": "G4",
          "ticks": 38580,
          "time": 120.59671036666666,
          "velocity": 0.44881889763779526
        },
        {
          "duration": 0.19444448333332787,
          "durationTicks": 56,
          "midi": 65,
          "name": "F4",
          "ticks": 38640,
          "time": 120.80065774166667,
          "velocity": 0.44881889763779526
        },
        {
          "duration": 0.19444448333332787,
          "durationTicks": 56,
          "midi": 64,
          "name": "E4",
          "ticks": 38700,
          "time": 121.00899111666666,
          "velocity": 0.44881889763779526
        },
        {
          "duration": 0.19444448333334208,
          "durationTicks": 56,
          "midi": 65,
          "name": "F4",
          "ticks": 38760,
          "time": 121.21732449166666,
          "velocity": 0.44881889763779526
        },
        {
          "duration": 0.19166669999999897,
          "durationTicks": 56,
          "midi": 62,
          "name": "D4",
          "ticks": 38820,
          "time": 121.42565786666667,
          "velocity": 0.44881889763779526
        },
        {
          "duration": 1.5,
          "durationTicks": 480,
          "midi": 60,
          "name": "C4",
          "ticks": 38880,
          "time": 121.62982456666666,
          "velocity": 0.44881889763779526
        },
        {
          "duration": 1.5,
          "durationTicks": 480,
          "midi": 62,
          "name": "D4",
          "ticks": 39360,
          "time": 123.12982456666666,
          "velocity": 0.4409448818897638
        },
        {
          "duration": 1.5,
          "durationTicks": 480,
          "midi": 64,
          "name": "E4",
          "ticks": 39840,
          "time": 124.62982456666666,
          "velocity": 0.4409448818897638
        },
        {
          "duration": 0.9250000000000114,
          "durationTicks": 296,
          "midi": 65,
          "name": "F4",
          "ticks": 40320,
          "time": 126.12982456666666,
          "velocity": 0.4409448818897638
        },
        {
          "duration": 0.17500000000001137,
          "durationTicks": 56,
          "midi": 67,
          "name": "G4",
          "ticks": 40620,
          "time": 127.06732456666666,
          "velocity": 0.44881889763779526
        },
        {
          "duration": 0.17500000000001137,
          "durationTicks": 56,
          "midi": 64,
          "name": "E4",
          "ticks": 40680,
          "time": 127.25482456666666,
          "velocity": 0.44881889763779526
        },
        {
          "duration": 0.17500000000001137,
          "durationTicks": 56,
          "midi": 65,
          "name": "F4",
          "ticks": 40740,
          "time": 127.44232456666666,
          "velocity": 0.44881889763779526
        },
        {
          "duration": 0.7375000000000114,
          "durationTicks": 236,
          "midi": 62,
          "name": "D4",
          "ticks": 40800,
          "time": 127.62982456666666,
          "velocity": 0.44881889763779526
        },
        {
          "duration": 1,
          "durationTicks": 320,
          "midi": 62,
          "name": "D4",
          "ticks": 41760,
          "time": 130.62982456666666,
          "velocity": 0.44881889763779526
        },
        {
          "duration": 0.25,
          "durationTicks": 80,
          "midi": 59,
          "name": "B3",
          "ticks": 42080,
          "time": 131.62982456666666,
          "velocity": 0.4409448818897638
        },
        {
          "duration": 0.25,
          "durationTicks": 80,
          "midi": 55,
          "name": "G3",
          "ticks": 42160,
          "time": 131.87982456666666,
          "velocity": 0.44881889763779526
        },
        {
          "duration": 1,
          "durationTicks": 320,
          "midi": 64,
          "name": "E4",
          "ticks": 42240,
          "time": 132.12982456666666,
          "velocity": 0.44881889763779526
        },
        {
          "duration": 0.25,
          "durationTicks": 80,
          "midi": 60,
          "name": "C4",
          "ticks": 42560,
          "time": 133.12982456666666,
          "velocity": 0.4409448818897638
        },
        {
          "duration": 0.25,
          "durationTicks": 80,
          "midi": 55,
          "name": "G3",
          "ticks": 42640,
          "time": 133.37982456666666,
          "velocity": 0.44881889763779526
        },
        {
          "duration": 1,
          "durationTicks": 320,
          "midi": 65,
          "name": "F4",
          "ticks": 42720,
          "time": 133.62982456666666,
          "velocity": 0.44881889763779526
        },
        {
          "duration": 0.25,
          "durationTicks": 80,
          "midi": 62,
          "name": "D4",
          "ticks": 43040,
          "time": 134.62982456666666,
          "velocity": 0.4409448818897638
        },
        {
          "duration": 0.25,
          "durationTicks": 80,
          "midi": 59,
          "name": "B3",
          "ticks": 43120,
          "time": 134.87982456666666,
          "velocity": 0.4566929133858268
        },
        {
          "duration": 0.9250000000000114,
          "durationTicks": 296,
          "midi": 67,
          "name": "G4",
          "ticks": 43200,
          "time": 135.12982456666666,
          "velocity": 0.4409448818897638
        },
        {
          "duration": 0.17500000000001137,
          "durationTicks": 56,
          "midi": 69,
          "name": "A4",
          "ticks": 43500,
          "time": 136.06732456666666,
          "velocity": 0.4409448818897638
        },
        {
          "duration": 0.17500000000001137,
          "durationTicks": 56,
          "midi": 65,
          "name": "F4",
          "ticks": 43560,
          "time": 136.25482456666666,
          "velocity": 0.44881889763779526
        },
        {
          "duration": 0.17500000000001137,
          "durationTicks": 56,
          "midi": 67,
          "name": "G4",
          "ticks": 43620,
          "time": 136.44232456666666,
          "velocity": 0.44881889763779526
        },
        {
          "duration": 0.7375000000000114,
          "durationTicks": 236,
          "midi": 64,
          "name": "E4",
          "ticks": 43680,
          "time": 136.62982456666666,
          "velocity": 0.4409448818897638
        },
        {
          "duration": 0.25,
          "durationTicks": 80,
          "midi": 82,
          "name": "A#5",
          "ticks": 44720,
          "time": 139.87982456666666,
          "velocity": 0.44881889763779526
        },
        {
          "duration": 0.16249999999999432,
          "durationTicks": 52,
          "midi": 81,
          "name": "A5",
          "ticks": 44800,
          "time": 140.12982456666666,
          "velocity": 0.4409448818897638
        },
        {
          "duration": 0.21250000000000568,
          "durationTicks": 68,
          "midi": 81,
          "name": "A5",
          "ticks": 44880,
          "time": 140.37982456666666,
          "velocity": 0.4409448818897638
        },
        {
          "duration": 0.21250000000000568,
          "durationTicks": 68,
          "midi": 81,
          "name": "A5",
          "ticks": 44960,
          "time": 140.62982456666666,
          "velocity": 0.4409448818897638
        },
        {
          "duration": 0.21250000000000568,
          "durationTicks": 68,
          "midi": 81,
          "name": "A5",
          "ticks": 45040,
          "time": 140.87982456666666,
          "velocity": 0.4409448818897638
        },
        {
          "duration": 0.75,
          "durationTicks": 240,
          "midi": 81,
          "name": "A5",
          "ticks": 45120,
          "time": 141.12982456666666,
          "velocity": 0.4566929133858268
        },
        {
          "duration": 0.75,
          "durationTicks": 240,
          "midi": 86,
          "name": "D6",
          "ticks": 45344,
          "time": 141.82982456666667,
          "velocity": 0.4409448818897638
        },
        {
          "duration": 0.25,
          "durationTicks": 80,
          "midi": 80,
          "name": "G#5",
          "ticks": 45680,
          "time": 142.87982456666666,
          "velocity": 0.44881889763779526
        },
        {
          "duration": 0.16249999999999432,
          "durationTicks": 52,
          "midi": 79,
          "name": "G5",
          "ticks": 45760,
          "time": 143.12982456666666,
          "velocity": 0.4409448818897638
        },
        {
          "duration": 0.21250000000000568,
          "durationTicks": 68,
          "midi": 79,
          "name": "G5",
          "ticks": 45840,
          "time": 143.37982456666666,
          "velocity": 0.4409448818897638
        },
        {
          "duration": 0.21250000000000568,
          "durationTicks": 68,
          "midi": 79,
          "name": "G5",
          "ticks": 45920,
          "time": 143.62982456666666,
          "velocity": 0.4409448818897638
        },
        {
          "duration": 0.21250000000000568,
          "durationTicks": 68,
          "midi": 79,
          "name": "G5",
          "ticks": 46000,
          "time": 143.87982456666666,
          "velocity": 0.4409448818897638
        },
        {
          "duration": 0.75,
          "durationTicks": 240,
          "midi": 79,
          "name": "G5",
          "ticks": 46080,
          "time": 144.12982456666666,
          "velocity": 0.4566929133858268
        },
        {
          "duration": 0.75,
          "durationTicks": 240,
          "midi": 84,
          "name": "C6",
          "ticks": 46320,
          "time": 144.87982456666666,
          "velocity": 0.4409448818897638
        },
        {
          "duration": 0.25,
          "durationTicks": 80,
          "midi": 79,
          "name": "G5",
          "ticks": 46640,
          "time": 145.87982456666666,
          "velocity": 0.4409448818897638
        },
        {
          "duration": 0.16249999999999432,
          "durationTicks": 52,
          "midi": 77,
          "name": "F5",
          "ticks": 46720,
          "time": 146.12982456666666,
          "velocity": 0.4409448818897638
        },
        {
          "duration": 0.21250000000000568,
          "durationTicks": 68,
          "midi": 77,
          "name": "F5",
          "ticks": 46796,
          "time": 146.36732456666667,
          "velocity": 0.4409448818897638
        },
        {
          "duration": 0.21250000000000568,
          "durationTicks": 68,
          "midi": 77,
          "name": "F5",
          "ticks": 46876,
          "time": 146.61732456666667,
          "velocity": 0.4409448818897638
        },
        {
          "duration": 0.21250000000000568,
          "durationTicks": 68,
          "midi": 77,
          "name": "F5",
          "ticks": 46956,
          "time": 146.86732456666667,
          "velocity": 0.4409448818897638
        },
        {
          "duration": 0.25,
          "durationTicks": 80,
          "midi": 77,
          "name": "F5",
          "ticks": 47040,
          "time": 147.12982456666666,
          "velocity": 0.4409448818897638
        },
        {
          "duration": 0.25,
          "durationTicks": 80,
          "midi": 79,
          "name": "G5",
          "ticks": 47120,
          "time": 147.37982456666666,
          "velocity": 0.4409448818897638
        },
        {
          "duration": 0.25,
          "durationTicks": 80,
          "midi": 77,
          "name": "F5",
          "ticks": 47200,
          "time": 147.62982456666666,
          "velocity": 0.4409448818897638
        },
        {
          "duration": 0.25,
          "durationTicks": 80,
          "midi": 76,
          "name": "E5",
          "ticks": 47280,
          "time": 147.87982456666666,
          "velocity": 0.4409448818897638
        },
        {
          "duration": 0.25,
          "durationTicks": 80,
          "midi": 77,
          "name": "F5",
          "ticks": 47360,
          "time": 148.12982456666666,
          "velocity": 0.4409448818897638
        },
        {
          "duration": 0.25,
          "durationTicks": 80,
          "midi": 76,
          "name": "E5",
          "ticks": 47440,
          "time": 148.37982456666666,
          "velocity": 0.4409448818897638
        },
        {
          "duration": 0.25,
          "durationTicks": 80,
          "midi": 73,
          "name": "C#5",
          "ticks": 47520,
          "time": 148.62982456666666,
          "velocity": 0.4409448818897638
        },
        {
          "duration": 0.25,
          "durationTicks": 80,
          "midi": 74,
          "name": "D5",
          "ticks": 47600,
          "time": 148.87982456666666,
          "velocity": 0.4409448818897638
        },
        {
          "duration": 0.25,
          "durationTicks": 80,
          "midi": 77,
          "name": "F5",
          "ticks": 47680,
          "time": 149.12982456666666,
          "velocity": 0.4409448818897638
        },
        {
          "duration": 0.25,
          "durationTicks": 80,
          "midi": 81,
          "name": "A5",
          "ticks": 47760,
          "time": 149.37982456666666,
          "velocity": 0.4409448818897638
        },
        {
          "duration": 0.25,
          "durationTicks": 80,
          "midi": 77,
          "name": "F5",
          "ticks": 47840,
          "time": 149.62982456666666,
          "velocity": 0.4409448818897638
        },
        {
          "duration": 0.25,
          "durationTicks": 80,
          "midi": 74,
          "name": "D5",
          "ticks": 47920,
          "time": 149.87982456666666,
          "velocity": 0.4409448818897638
        },
        {
          "duration": 1.5,
          "durationTicks": 480,
          "midi": 72,
          "name": "C5",
          "ticks": 48000,
          "time": 150.12982456666666,
          "velocity": 0.4409448818897638
        },
        {
          "duration": 0.25,
          "durationTicks": 80,
          "midi": 71,
          "name": "B4",
          "ticks": 48480,
          "time": 151.62982456666666,
          "velocity": 0.4409448818897638
        },
        {
          "duration": 0.25,
          "durationTicks": 80,
          "midi": 81,
          "name": "A5",
          "ticks": 48560,
          "time": 151.87982456666666,
          "velocity": 0.4409448818897638
        },
        {
          "duration": 0.16249999999999432,
          "durationTicks": 52,
          "midi": 79,
          "name": "G5",
          "ticks": 48640,
          "time": 152.12982456666666,
          "velocity": 0.4409448818897638
        },
        {
          "duration": 0.21250000000000568,
          "durationTicks": 68,
          "midi": 79,
          "name": "G5",
          "ticks": 48720,
          "time": 152.37982456666666,
          "velocity": 0.4409448818897638
        },
        {
          "duration": 0.21250000000000568,
          "durationTicks": 68,
          "midi": 79,
          "name": "G5",
          "ticks": 48800,
          "time": 152.62982456666666,
          "velocity": 0.4409448818897638
        },
        {
          "duration": 0.21250000000000568,
          "durationTicks": 68,
          "midi": 79,
          "name": "G5",
          "ticks": 48880,
          "time": 152.87982456666666,
          "velocity": 0.4409448818897638
        },
        {
          "duration": 0.21250000000000568,
          "durationTicks": 68,
          "midi": 79,
          "name": "G5",
          "ticks": 48960,
          "time": 153.12982456666666,
          "velocity": 0.4409448818897638
        },
        {
          "duration": 0.25,
          "durationTicks": 80,
          "midi": 82,
          "name": "A#5",
          "ticks": 49040,
          "time": 153.37982456666666,
          "velocity": 0.4409448818897638
        },
        {
          "duration": 0.16249999999999432,
          "durationTicks": 52,
          "midi": 81,
          "name": "A5",
          "ticks": 49120,
          "time": 153.62982456666666,
          "velocity": 0.4409448818897638
        },
        {
          "duration": 0.21250000000000568,
          "durationTicks": 68,
          "midi": 81,
          "name": "A5",
          "ticks": 49200,
          "time": 153.87982456666666,
          "velocity": 0.4409448818897638
        },
        {
          "duration": 0.21250000000000568,
          "durationTicks": 68,
          "midi": 81,
          "name": "A5",
          "ticks": 49280,
          "time": 154.12982456666666,
          "velocity": 0.4409448818897638
        },
        {
          "duration": 0.21250000000000568,
          "durationTicks": 68,
          "midi": 81,
          "name": "A5",
          "ticks": 49360,
          "time": 154.37982456666666,
          "velocity": 0.4409448818897638
        },
        {
          "duration": 0.75,
          "durationTicks": 240,
          "midi": 81,
          "name": "A5",
          "ticks": 49440,
          "time": 154.62982456666666,
          "velocity": 0.4566929133858268
        },
        {
          "duration": 0.75,
          "durationTicks": 240,
          "midi": 86,
          "name": "D6",
          "ticks": 49680,
          "time": 155.37982456666666,
          "velocity": 0.4409448818897638
        },
        {
          "duration": 0.25,
          "durationTicks": 80,
          "midi": 80,
          "name": "G#5",
          "ticks": 50000,
          "time": 156.37982456666666,
          "velocity": 0.4409448818897638
        },
        {
          "duration": 0.16249999999999432,
          "durationTicks": 52,
          "midi": 79,
          "name": "G5",
          "ticks": 50080,
          "time": 156.62982456666666,
          "velocity": 0.4409448818897638
        },
        {
          "duration": 0.21250000000000568,
          "durationTicks": 68,
          "midi": 79,
          "name": "G5",
          "ticks": 50160,
          "time": 156.87982456666666,
          "velocity": 0.4409448818897638
        },
        {
          "duration": 0.21250000000000568,
          "durationTicks": 68,
          "midi": 79,
          "name": "G5",
          "ticks": 50240,
          "time": 157.12982456666666,
          "velocity": 0.4409448818897638
        },
        {
          "duration": 0.21250000000000568,
          "durationTicks": 68,
          "midi": 79,
          "name": "G5",
          "ticks": 50320,
          "time": 157.37982456666666,
          "velocity": 0.4409448818897638
        },
        {
          "duration": 0.75,
          "durationTicks": 240,
          "midi": 79,
          "name": "G5",
          "ticks": 50400,
          "time": 157.62982456666666,
          "velocity": 0.4566929133858268
        },
        {
          "duration": 0.75,
          "durationTicks": 240,
          "midi": 84,
          "name": "C6",
          "ticks": 50640,
          "time": 158.37982456666666,
          "velocity": 0.4409448818897638
        },
        {
          "duration": 0.25,
          "durationTicks": 80,
          "midi": 79,
          "name": "G5",
          "ticks": 50960,
          "time": 159.37982456666666,
          "velocity": 0.4409448818897638
        },
        {
          "duration": 0.16249999999999432,
          "durationTicks": 52,
          "midi": 77,
          "name": "F5",
          "ticks": 51040,
          "time": 159.62982456666666,
          "velocity": 0.4409448818897638
        },
        {
          "duration": 0.21250000000000568,
          "durationTicks": 68,
          "midi": 77,
          "name": "F5",
          "ticks": 51120,
          "time": 159.87982456666666,
          "velocity": 0.4409448818897638
        },
        {
          "duration": 0.21250000000000568,
          "durationTicks": 68,
          "midi": 77,
          "name": "F5",
          "ticks": 51200,
          "time": 160.12982456666666,
          "velocity": 0.4409448818897638
        },
        {
          "duration": 0.21250000000000568,
          "durationTicks": 68,
          "midi": 77,
          "name": "F5",
          "ticks": 51280,
          "time": 160.37982456666666,
          "velocity": 0.4409448818897638
        },
        {
          "duration": 0.25,
          "durationTicks": 80,
          "midi": 77,
          "name": "F5",
          "ticks": 51360,
          "time": 160.62982456666666,
          "velocity": 0.4409448818897638
        },
        {
          "duration": 0.25,
          "durationTicks": 80,
          "midi": 79,
          "name": "G5",
          "ticks": 51440,
          "time": 160.87982456666666,
          "velocity": 0.4409448818897638
        },
        {
          "duration": 0.25,
          "durationTicks": 80,
          "midi": 77,
          "name": "F5",
          "ticks": 51520,
          "time": 161.12982456666666,
          "velocity": 0.4409448818897638
        },
        {
          "duration": 0.25,
          "durationTicks": 80,
          "midi": 76,
          "name": "E5",
          "ticks": 51600,
          "time": 161.37982456666666,
          "velocity": 0.4409448818897638
        },
        {
          "duration": 0.25,
          "durationTicks": 80,
          "midi": 77,
          "name": "F5",
          "ticks": 51680,
          "time": 161.62982456666666,
          "velocity": 0.4409448818897638
        },
        {
          "duration": 0.21250000000000568,
          "durationTicks": 68,
          "midi": 76,
          "name": "E5",
          "ticks": 51760,
          "time": 161.87982456666666,
          "velocity": 0.4409448818897638
        },
        {
          "duration": 0.25,
          "durationTicks": 80,
          "midi": 76,
          "name": "E5",
          "ticks": 51840,
          "time": 162.12982456666666,
          "velocity": 0.4409448818897638
        },
        {
          "duration": 0.21250000000000568,
          "durationTicks": 68,
          "midi": 74,
          "name": "D5",
          "ticks": 51920,
          "time": 162.37982456666666,
          "velocity": 0.4409448818897638
        },
        {
          "duration": 0.21250000000000568,
          "durationTicks": 68,
          "midi": 74,
          "name": "D5",
          "ticks": 52000,
          "time": 162.62982456666666,
          "velocity": 0.4409448818897638
        },
        {
          "duration": 0.21250000000000568,
          "durationTicks": 68,
          "midi": 74,
          "name": "D5",
          "ticks": 52080,
          "time": 162.87982456666666,
          "velocity": 0.4409448818897638
        },
        {
          "duration": 0.21250000000000568,
          "durationTicks": 68,
          "midi": 74,
          "name": "D5",
          "ticks": 52160,
          "time": 163.12982456666666,
          "velocity": 0.4409448818897638
        },
        {
          "duration": 0.21250000000000568,
          "durationTicks": 68,
          "midi": 74,
          "name": "D5",
          "ticks": 52240,
          "time": 163.37982456666666,
          "velocity": 0.44881889763779526
        },
        {
          "duration": 0.25,
          "durationTicks": 80,
          "midi": 74,
          "name": "D5",
          "ticks": 52320,
          "time": 163.62982456666666,
          "velocity": 0.4566929133858268
        },
        {
          "duration": 0.25,
          "durationTicks": 80,
          "midi": 76,
          "name": "E5",
          "ticks": 52400,
          "time": 163.87982456666666,
          "velocity": 0.4566929133858268
        },
        {
          "duration": 0.25,
          "durationTicks": 80,
          "midi": 74,
          "name": "D5",
          "ticks": 52480,
          "time": 164.12982456666666,
          "velocity": 0.4566929133858268
        },
        {
          "duration": 0.25,
          "durationTicks": 80,
          "midi": 72,
          "name": "C5",
          "ticks": 52560,
          "time": 164.37982456666666,
          "velocity": 0.4645669291338583
        },
        {
          "duration": 0.25,
          "durationTicks": 80,
          "midi": 74,
          "name": "D5",
          "ticks": 52640,
          "time": 164.62982456666666,
          "velocity": 0.47244094488188976
        },
        {
          "duration": 0.22499999999999432,
          "durationTicks": 72,
          "midi": 72,
          "name": "C5",
          "ticks": 52720,
          "time": 164.87982456666666,
          "velocity": 0.47244094488188976
        },
        {
          "duration": 0.25,
          "durationTicks": 80,
          "midi": 72,
          "name": "C5",
          "ticks": 52800,
          "time": 165.12982456666666,
          "velocity": 0.48031496062992124
        },
        {
          "duration": 0.16249999999999432,
          "durationTicks": 52,
          "midi": 70,
          "name": "A#4",
          "ticks": 52880,
          "time": 165.37982456666666,
          "velocity": 0.48031496062992124
        },
        {
          "duration": 0.21250000000000568,
          "durationTicks": 68,
          "midi": 70,
          "name": "A#4",
          "ticks": 52960,
          "time": 165.62982456666666,
          "velocity": 0.4881889763779528
        },
        {
          "duration": 0.21250000000000568,
          "durationTicks": 68,
          "midi": 70,
          "name": "A#4",
          "ticks": 53040,
          "time": 165.87982456666666,
          "velocity": 0.4881889763779528
        },
        {
          "duration": 0.21250000000000568,
          "durationTicks": 68,
          "midi": 70,
          "name": "A#4",
          "ticks": 53120,
          "time": 166.12982456666666,
          "velocity": 0.4881889763779528
        },
        {
          "duration": 0.21250000000000568,
          "durationTicks": 68,
          "midi": 70,
          "name": "A#4",
          "ticks": 53200,
          "time": 166.37982456666666,
          "velocity": 0.49606299212598426
        },
        {
          "duration": 0.25,
          "durationTicks": 80,
          "midi": 70,
          "name": "A#4",
          "ticks": 53280,
          "time": 166.62982456666666,
          "velocity": 0.5748031496062992
        },
        {
          "duration": 0.25,
          "durationTicks": 80,
          "midi": 72,
          "name": "C5",
          "ticks": 53360,
          "time": 166.87982456666666,
          "velocity": 0.49606299212598426
        },
        {
          "duration": 0.25,
          "durationTicks": 80,
          "midi": 70,
          "name": "A#4",
          "ticks": 53440,
          "time": 167.12982456666666,
          "velocity": 0.49606299212598426
        },
        {
          "duration": 0.25,
          "durationTicks": 80,
          "midi": 69,
          "name": "A4",
          "ticks": 53520,
          "time": 167.37982456666666,
          "velocity": 0.49606299212598426
        },
        {
          "duration": 0.25,
          "durationTicks": 80,
          "midi": 70,
          "name": "A#4",
          "ticks": 53600,
          "time": 167.62982456666666,
          "velocity": 0.49606299212598426
        },
        {
          "duration": 0.25,
          "durationTicks": 80,
          "midi": 69,
          "name": "A4",
          "ticks": 53680,
          "time": 167.87982456666666,
          "velocity": 0.49606299212598426
        },
        {
          "duration": 0.25,
          "durationTicks": 80,
          "midi": 67,
          "name": "G4",
          "ticks": 53760,
          "time": 168.12982456666666,
          "velocity": 0.49606299212598426
        },
        {
          "duration": 0.25,
          "durationTicks": 80,
          "midi": 69,
          "name": "A4",
          "ticks": 53840,
          "time": 168.37982456666666,
          "velocity": 0.49606299212598426
        },
        {
          "duration": 0.25,
          "durationTicks": 80,
          "midi": 67,
          "name": "G4",
          "ticks": 53920,
          "time": 168.62982456666666,
          "velocity": 0.49606299212598426
        },
        {
          "duration": 0.25,
          "durationTicks": 80,
          "midi": 65,
          "name": "F4",
          "ticks": 54000,
          "time": 168.87982456666666,
          "velocity": 0.49606299212598426
        },
        {
          "duration": 0.25,
          "durationTicks": 80,
          "midi": 67,
          "name": "G4",
          "ticks": 54080,
          "time": 169.12982456666666,
          "velocity": 0.49606299212598426
        },
        {
          "duration": 0.25,
          "durationTicks": 80,
          "midi": 65,
          "name": "F4",
          "ticks": 54160,
          "time": 169.37982456666666,
          "velocity": 0.49606299212598426
        },
        {
          "duration": 0.2500000000000284,
          "durationTicks": 80,
          "midi": 64,
          "name": "E4",
          "ticks": 54240,
          "time": 169.62982456666666,
          "velocity": 0.49606299212598426
        },
        {
          "duration": 0.24999999999997158,
          "durationTicks": 80,
          "midi": 65,
          "name": "F4",
          "ticks": 54320,
          "time": 169.87982456666668,
          "velocity": 0.49606299212598426
        },
        {
          "duration": 0.25,
          "durationTicks": 80,
          "midi": 64,
          "name": "E4",
          "ticks": 54400,
          "time": 170.12982456666666,
          "velocity": 0.49606299212598426
        },
        {
          "duration": 0.2500000000000284,
          "durationTicks": 80,
          "midi": 62,
          "name": "D4",
          "ticks": 54480,
          "time": 170.37982456666666,
          "velocity": 0.49606299212598426
        },
        {
          "duration": 0.24999999999997158,
          "durationTicks": 80,
          "midi": 64,
          "name": "E4",
          "ticks": 54560,
          "time": 170.62982456666668,
          "velocity": 0.49606299212598426
        },
        {
          "duration": 0.25,
          "durationTicks": 80,
          "midi": 62,
          "name": "D4",
          "ticks": 54640,
          "time": 170.87982456666666,
          "velocity": 0.49606299212598426
        },
        {
          "duration": 0.75,
          "durationTicks": 240,
          "midi": 60,
          "name": "C4",
          "ticks": 54720,
          "time": 171.12982456666666,
          "velocity": 0.49606299212598426
        },
        {
          "duration": 0.75,
          "durationTicks": 240,
          "midi": 76,
          "name": "E5",
          "ticks": 54972,
          "time": 171.91732456666665,
          "velocity": 0.3700787401574803
        },
        {
          "duration": 0.75,
          "durationTicks": 240,
          "midi": 77,
          "name": "F5",
          "ticks": 55188,
          "time": 172.59232456666666,
          "velocity": 0.3700787401574803
        },
        {
          "duration": 0.75,
          "durationTicks": 240,
          "midi": 79,
          "name": "G5",
          "ticks": 55440,
          "time": 173.37982456666666,
          "velocity": 0.3700787401574803
        },
        {
          "duration": 0.24999999999997158,
          "durationTicks": 80,
          "midi": 81,
          "name": "A5",
          "ticks": 55676,
          "time": 174.11732456666667,
          "velocity": 0.3700787401574803
        },
        {
          "duration": 0.25,
          "durationTicks": 80,
          "midi": 80,
          "name": "G#5",
          "ticks": 55764,
          "time": 174.39232456666667,
          "velocity": 0.3700787401574803
        },
        {
          "duration": 0.25,
          "durationTicks": 80,
          "midi": 81,
          "name": "A5",
          "ticks": 55836,
          "time": 174.61732456666667,
          "velocity": 0.3700787401574803
        },
        {
          "duration": 0.24999999999997158,
          "durationTicks": 80,
          "midi": 84,
          "name": "C6",
          "ticks": 55916,
          "time": 174.86732456666667,
          "velocity": 0.3700787401574803
        },
        {
          "duration": 0.24999999999997158,
          "durationTicks": 80,
          "midi": 83,
          "name": "B5",
          "ticks": 56000,
          "time": 175.12982456666668,
          "velocity": 0.3700787401574803
        },
        {
          "duration": 0.25,
          "durationTicks": 80,
          "midi": 81,
          "name": "A5",
          "ticks": 56080,
          "time": 175.37982456666666,
          "velocity": 0.3700787401574803
        },
        {
          "duration": 0.75,
          "durationTicks": 240,
          "midi": 79,
          "name": "G5",
          "ticks": 56160,
          "time": 175.62982456666666,
          "velocity": 0.3700787401574803
        },
        {
          "duration": 0.75,
          "durationTicks": 240,
          "midi": 76,
          "name": "E5",
          "ticks": 57840,
          "time": 180.87982456666666,
          "velocity": 0.3700787401574803
        },
        {
          "duration": 0.75,
          "durationTicks": 240,
          "midi": 77,
          "name": "F5",
          "ticks": 58080,
          "time": 181.62982456666666,
          "velocity": 0.3700787401574803
        },
        {
          "duration": 0.75,
          "durationTicks": 240,
          "midi": 79,
          "name": "G5",
          "ticks": 58320,
          "time": 182.37982456666666,
          "velocity": 0.3700787401574803
        },
        {
          "duration": 0.2500000000000284,
          "durationTicks": 80,
          "midi": 81,
          "name": "A5",
          "ticks": 58560,
          "time": 183.12982456666666,
          "velocity": 0.3700787401574803
        },
        {
          "duration": 0.24999999999997158,
          "durationTicks": 80,
          "midi": 80,
          "name": "G#5",
          "ticks": 58640,
          "time": 183.37982456666668,
          "velocity": 0.3700787401574803
        },
        {
          "duration": 0.25,
          "durationTicks": 80,
          "midi": 81,
          "name": "A5",
          "ticks": 58720,
          "time": 183.62982456666666,
          "velocity": 0.3700787401574803
        },
        {
          "duration": 0.2500000000000284,
          "durationTicks": 80,
          "midi": 84,
          "name": "C6",
          "ticks": 58800,
          "time": 183.87982456666666,
          "velocity": 0.3700787401574803
        },
        {
          "duration": 0.24999999999997158,
          "durationTicks": 80,
          "midi": 83,
          "name": "B5",
          "ticks": 58880,
          "time": 184.12982456666668,
          "velocity": 0.3700787401574803
        },
        {
          "duration": 0.25,
          "durationTicks": 80,
          "midi": 81,
          "name": "A5",
          "ticks": 58960,
          "time": 184.37982456666666,
          "velocity": 0.3700787401574803
        },
        {
          "duration": 0.75,
          "durationTicks": 240,
          "midi": 79,
          "name": "G5",
          "ticks": 59040,
          "time": 184.62982456666666,
          "velocity": 0.3700787401574803
        },
        {
          "duration": 1.7100833500000192,
          "durationTicks": 540,
          "midi": 60,
          "name": "C4",
          "ticks": 60480,
          "time": 189.12982456666666,
          "velocity": 0.3700787401574803
        },
        {
          "duration": 0.2732733333333499,
          "durationTicks": 80,
          "midi": 67,
          "name": "G4",
          "ticks": 61040,
          "time": 190.9074755,
          "velocity": 0.3700787401574803
        },
        {
          "duration": 0.2777778333333174,
          "durationTicks": 80,
          "midi": 65,
          "name": "F4",
          "ticks": 61120,
          "time": 191.18074883333335,
          "velocity": 0.3700787401574803
        },
        {
          "duration": 0.19861113333334401,
          "durationTicks": 60,
          "midi": 64,
          "name": "E4",
          "ticks": 61200,
          "time": 191.45852666666667,
          "velocity": 0.3700787401574803
        },
        {
          "duration": 0.25,
          "durationTicks": 80,
          "midi": 70,
          "name": "A#4",
          "ticks": 61280,
          "time": 191.71963780000002,
          "velocity": 0.3700787401574803
        },
        {
          "duration": 0.25,
          "durationTicks": 80,
          "midi": 69,
          "name": "A4",
          "ticks": 61360,
          "time": 191.96963780000002,
          "velocity": 0.3700787401574803
        },
        {
          "duration": 0.19999999999998863,
          "durationTicks": 64,
          "midi": 67,
          "name": "G4",
          "ticks": 61440,
          "time": 192.21963780000002,
          "velocity": 0.3700787401574803
        },
        {
          "duration": 0.25,
          "durationTicks": 80,
          "midi": 74,
          "name": "D5",
          "ticks": 61520,
          "time": 192.46963780000002,
          "velocity": 0.3700787401574803
        },
        {
          "duration": 0.25,
          "durationTicks": 80,
          "midi": 72,
          "name": "C5",
          "ticks": 61600,
          "time": 192.71963780000002,
          "velocity": 0.3700787401574803
        },
        {
          "duration": 0.25,
          "durationTicks": 80,
          "midi": 70,
          "name": "A#4",
          "ticks": 61680,
          "time": 192.96963780000002,
          "velocity": 0.3700787401574803
        },
        {
          "duration": 0.25,
          "durationTicks": 80,
          "midi": 69,
          "name": "A4",
          "ticks": 61760,
          "time": 193.21963780000002,
          "velocity": 0.3700787401574803
        },
        {
          "duration": 0.25,
          "durationTicks": 80,
          "midi": 67,
          "name": "G4",
          "ticks": 61840,
          "time": 193.46963780000002,
          "velocity": 0.3700787401574803
        },
        {
          "duration": 0.5625,
          "durationTicks": 180,
          "midi": 65,
          "name": "F4",
          "ticks": 61920,
          "time": 193.71963780000002,
          "velocity": 0.3700787401574803
        },
        {
          "duration": 0.1875,
          "durationTicks": 60,
          "midi": 64,
          "name": "E4",
          "ticks": 62100,
          "time": 194.28213780000002,
          "velocity": 0.3700787401574803
        },
        {
          "duration": 0.5625,
          "durationTicks": 180,
          "midi": 67,
          "name": "G4",
          "ticks": 62160,
          "time": 194.46963780000002,
          "velocity": 0.3700787401574803
        },
        {
          "duration": 0.1875,
          "durationTicks": 60,
          "midi": 66,
          "name": "F#4",
          "ticks": 62340,
          "time": 195.03213780000002,
          "velocity": 0.3700787401574803
        },
        {
          "duration": 0.5625,
          "durationTicks": 180,
          "midi": 69,
          "name": "A4",
          "ticks": 62400,
          "time": 195.21963780000002,
          "velocity": 0.3700787401574803
        },
        {
          "duration": 0.1875,
          "durationTicks": 60,
          "midi": 67,
          "name": "G4",
          "ticks": 62580,
          "time": 195.78213780000002,
          "velocity": 0.3700787401574803
        },
        {
          "duration": 0.5625,
          "durationTicks": 180,
          "midi": 70,
          "name": "A#4",
          "ticks": 62640,
          "time": 195.96963780000002,
          "velocity": 0.3700787401574803
        },
        {
          "duration": 0.1875,
          "durationTicks": 60,
          "midi": 69,
          "name": "A4",
          "ticks": 62820,
          "time": 196.53213780000002,
          "velocity": 0.3700787401574803
        },
        {
          "duration": 0.36249999999998295,
          "durationTicks": 116,
          "midi": 72,
          "name": "C5",
          "ticks": 62880,
          "time": 196.71963780000002,
          "velocity": 0.3700787401574803
        },
        {
          "duration": 0.36249999999998295,
          "durationTicks": 116,
          "midi": 70,
          "name": "A#4",
          "ticks": 63000,
          "time": 197.09463780000002,
          "velocity": 0.3700787401574803
        },
        {
          "duration": 0.36249999999998295,
          "durationTicks": 116,
          "midi": 67,
          "name": "G4",
          "ticks": 63120,
          "time": 197.46963780000002,
          "velocity": 0.3700787401574803
        },
        {
          "duration": 0.36249999999998295,
          "durationTicks": 116,
          "midi": 64,
          "name": "E4",
          "ticks": 63240,
          "time": 197.84463780000002,
          "velocity": 0.3700787401574803
        },
        {
          "duration": 1.798025200000012,
          "durationTicks": 560,
          "midi": 62,
          "name": "D4",
          "ticks": 63360,
          "time": 198.21963780000002,
          "velocity": 0.3700787401574803
        },
        {
          "duration": 0.25,
          "durationTicks": 80,
          "midi": 61,
          "name": "C#4",
          "ticks": 63920,
          "time": 200.01766300000003,
          "velocity": 0.3700787401574803
        },
        {
          "duration": 0.16249999999999432,
          "durationTicks": 52,
          "midi": 67,
          "name": "G4",
          "ticks": 64000,
          "time": 200.26766300000003,
          "velocity": 0.3700787401574803
        },
        {
          "duration": 0.25,
          "durationTicks": 80,
          "midi": 65,
          "name": "F4",
          "ticks": 64080,
          "time": 200.51766300000003,
          "velocity": 0.3700787401574803
        },
        {
          "duration": 0.1875,
          "durationTicks": 60,
          "midi": 64,
          "name": "E4",
          "ticks": 64160,
          "time": 200.76766300000003,
          "velocity": 0.3700787401574803
        },
        {
          "duration": 0.16249999999999432,
          "durationTicks": 52,
          "midi": 70,
          "name": "A#4",
          "ticks": 64240,
          "time": 201.01766300000003,
          "velocity": 0.3700787401574803
        },
        {
          "duration": 0.25,
          "durationTicks": 80,
          "midi": 69,
          "name": "A4",
          "ticks": 64320,
          "time": 201.26766300000003,
          "velocity": 0.3700787401574803
        },
        {
          "duration": 0.19999999999998863,
          "durationTicks": 64,
          "midi": 67,
          "name": "G4",
          "ticks": 64400,
          "time": 201.51766300000003,
          "velocity": 0.3700787401574803
        },
        {
          "duration": 0.16249999999999432,
          "durationTicks": 52,
          "midi": 76,
          "name": "E5",
          "ticks": 64480,
          "time": 201.76766300000003,
          "velocity": 0.3700787401574803
        },
        {
          "duration": 0.25,
          "durationTicks": 80,
          "midi": 74,
          "name": "D5",
          "ticks": 64560,
          "time": 202.01766300000003,
          "velocity": 0.3700787401574803
        },
        {
          "duration": 0.1875,
          "durationTicks": 60,
          "midi": 73,
          "name": "C#5",
          "ticks": 64640,
          "time": 202.26766300000003,
          "velocity": 0.3700787401574803
        },
        {
          "duration": 0.1875,
          "durationTicks": 60,
          "midi": 79,
          "name": "G5",
          "ticks": 64720,
          "time": 202.51766300000003,
          "velocity": 0.3700787401574803
        },
        {
          "duration": 0.375,
          "durationTicks": 120,
          "midi": 77,
          "name": "F5",
          "ticks": 64800,
          "time": 202.76766300000003,
          "velocity": 0.3700787401574803
        },
        {
          "duration": 0.3769230999999422,
          "durationTicks": 120,
          "midi": 76,
          "name": "E5",
          "ticks": 64920,
          "time": 203.14266300000003,
          "velocity": 0.3700787401574803
        },
        {
          "duration": 0.38461550000002376,
          "durationTicks": 120,
          "midi": 74,
          "name": "D5",
          "ticks": 65040,
          "time": 203.51958609999997,
          "velocity": 0.3700787401574803
        },
        {
          "duration": 0.3879892499999755,
          "durationTicks": 120,
          "midi": 73,
          "name": "C#5",
          "ticks": 65160,
          "time": 203.9042016,
          "velocity": 0.3700787401574803
        },
        {
          "duration": 0.3947367500000212,
          "durationTicks": 120,
          "midi": 70,
          "name": "A#4",
          "ticks": 65280,
          "time": 204.29219084999997,
          "velocity": 0.3700787401574803
        },
        {
          "duration": 0.39473674999999275,
          "durationTicks": 120,
          "midi": 69,
          "name": "A4",
          "ticks": 65400,
          "time": 204.6869276,
          "velocity": 0.3700787401574803
        },
        {
          "duration": 0.39473674999999275,
          "durationTicks": 120,
          "midi": 68,
          "name": "G#4",
          "ticks": 65520,
          "time": 205.08166434999998,
          "velocity": 0.3700787401574803
        },
        {
          "duration": 0.3954479999999876,
          "durationTicks": 120,
          "midi": 69,
          "name": "A4",
          "ticks": 65640,
          "time": 205.47640109999998,
          "velocity": 0.3700787401574803
        },
        {
          "duration": 0.40540550000000053,
          "durationTicks": 120,
          "midi": 68,
          "name": "G#4",
          "ticks": 65760,
          "time": 205.87184909999996,
          "velocity": 0.3700787401574803
        },
        {
          "duration": 0.40540550000000053,
          "durationTicks": 120,
          "midi": 69,
          "name": "A4",
          "ticks": 65880,
          "time": 206.27725459999996,
          "velocity": 0.3700787401574803
        },
        {
          "duration": 0.40540550000000053,
          "durationTicks": 120,
          "midi": 67,
          "name": "G4",
          "ticks": 66000,
          "time": 206.68266009999996,
          "velocity": 0.3700787401574803
        },
        {
          "duration": 0.4033784666666804,
          "durationTicks": 120,
          "midi": 64,
          "name": "E4",
          "ticks": 66120,
          "time": 207.08806559999996,
          "velocity": 0.3700787401574803
        },
        {
          "duration": 1.125,
          "durationTicks": 360,
          "midi": 81,
          "name": "A5",
          "ticks": 66240,
          "time": 207.49144406666665,
          "velocity": 0.5039370078740157
        },
        {
          "duration": 0.75,
          "durationTicks": 240,
          "midi": 77,
          "name": "F5",
          "ticks": 66580,
          "time": 208.55394406666665,
          "velocity": 0.4251968503937008
        },
        {
          "duration": 0.75,
          "durationTicks": 240,
          "midi": 74,
          "name": "D5",
          "ticks": 66832,
          "time": 209.34144406666664,
          "velocity": 0.4251968503937008
        },
        {
          "duration": 0.75,
          "durationTicks": 240,
          "midi": 69,
          "name": "A4",
          "ticks": 67080,
          "time": 210.11644406666665,
          "velocity": 0.4251968503937008
        },
        {
          "duration": 0.75,
          "durationTicks": 240,
          "midi": 65,
          "name": "F4",
          "ticks": 67320,
          "time": 210.86644406666665,
          "velocity": 0.4251968503937008
        },
        {
          "duration": 0.36249999999998295,
          "durationTicks": 116,
          "midi": 62,
          "name": "D4",
          "ticks": 67560,
          "time": 211.61644406666665,
          "velocity": 0.4251968503937008
        },
        {
          "duration": 0.25,
          "durationTicks": 80,
          "midi": 63,
          "name": "D#4",
          "ticks": 67680,
          "time": 211.99144406666665,
          "velocity": 0.4251968503937008
        },
        {
          "duration": 0.25,
          "durationTicks": 80,
          "midi": 64,
          "name": "E4",
          "ticks": 67760,
          "time": 212.24144406666665,
          "velocity": 0.4251968503937008
        },
        {
          "duration": 0.25,
          "durationTicks": 80,
          "midi": 64,
          "name": "E4",
          "ticks": 67840,
          "time": 212.49144406666665,
          "velocity": 0.4251968503937008
        },
        {
          "duration": 0.25,
          "durationTicks": 80,
          "midi": 63,
          "name": "D#4",
          "ticks": 67992,
          "time": 212.96644406666664,
          "velocity": 0.4251968503937008
        },
        {
          "duration": 0.25,
          "durationTicks": 80,
          "midi": 64,
          "name": "E4",
          "ticks": 68072,
          "time": 213.21644406666664,
          "velocity": 0.4251968503937008
        },
        {
          "duration": 0.25,
          "durationTicks": 80,
          "midi": 63,
          "name": "D#4",
          "ticks": 68232,
          "time": 213.71644406666664,
          "velocity": 0.4251968503937008
        },
        {
          "duration": 0.25,
          "durationTicks": 80,
          "midi": 64,
          "name": "E4",
          "ticks": 68312,
          "time": 213.96644406666664,
          "velocity": 0.4251968503937008
        },
        {
          "duration": 0.25,
          "durationTicks": 80,
          "midi": 63,
          "name": "D#4",
          "ticks": 68484,
          "time": 214.50394406666663,
          "velocity": 0.4251968503937008
        },
        {
          "duration": 0.25,
          "durationTicks": 80,
          "midi": 64,
          "name": "E4",
          "ticks": 68564,
          "time": 214.75394406666663,
          "velocity": 0.4251968503937008
        },
        {
          "duration": 0.25,
          "durationTicks": 80,
          "midi": 63,
          "name": "D#4",
          "ticks": 68720,
          "time": 215.24144406666665,
          "velocity": 0.4251968503937008
        },
        {
          "duration": 0.25,
          "durationTicks": 80,
          "midi": 64,
          "name": "E4",
          "ticks": 68800,
          "time": 215.49144406666665,
          "velocity": 0.4251968503937008
        },
        {
          "duration": 0.25,
          "durationTicks": 80,
          "midi": 63,
          "name": "D#4",
          "ticks": 68960,
          "time": 215.99144406666665,
          "velocity": 0.4251968503937008
        },
        {
          "duration": 0.25,
          "durationTicks": 80,
          "midi": 64,
          "name": "E4",
          "ticks": 69040,
          "time": 216.24144406666665,
          "velocity": 0.4251968503937008
        },
        {
          "duration": 1.125,
          "durationTicks": 360,
          "midi": 82,
          "name": "A#5",
          "ticks": 69120,
          "time": 216.49144406666665,
          "velocity": 0.5039370078740157
        },
        {
          "duration": 0.75,
          "durationTicks": 240,
          "midi": 79,
          "name": "G5",
          "ticks": 69452,
          "time": 217.52894406666664,
          "velocity": 0.4251968503937008
        },
        {
          "duration": 0.75,
          "durationTicks": 240,
          "midi": 76,
          "name": "E5",
          "ticks": 69712,
          "time": 218.34144406666664,
          "velocity": 0.4251968503937008
        },
        {
          "duration": 0.75,
          "durationTicks": 240,
          "midi": 70,
          "name": "A#4",
          "ticks": 69964,
          "time": 219.12894406666663,
          "velocity": 0.4251968503937008
        },
        {
          "duration": 0.75,
          "durationTicks": 240,
          "midi": 67,
          "name": "G4",
          "ticks": 70192,
          "time": 219.84144406666664,
          "velocity": 0.4251968503937008
        },
        {
          "duration": 0.36250000000001137,
          "durationTicks": 116,
          "midi": 64,
          "name": "E4",
          "ticks": 70432,
          "time": 220.59144406666664,
          "velocity": 0.4251968503937008
        },
        {
          "duration": 0.25,
          "durationTicks": 80,
          "midi": 65,
          "name": "F4",
          "ticks": 70560,
          "time": 220.99144406666665,
          "velocity": 0.4251968503937008
        },
        {
          "duration": 0.25,
          "durationTicks": 80,
          "midi": 66,
          "name": "F#4",
          "ticks": 70640,
          "time": 221.24144406666665,
          "velocity": 0.4251968503937008
        },
        {
          "duration": 0.19999999999998863,
          "durationTicks": 64,
          "midi": 66,
          "name": "F#4",
          "ticks": 70720,
          "time": 221.49144406666665,
          "velocity": 0.4251968503937008
        },
        {
          "duration": 0.25,
          "durationTicks": 80,
          "midi": 65,
          "name": "F4",
          "ticks": 70880,
          "time": 221.99144406666665,
          "velocity": 0.4251968503937008
        },
        {
          "duration": 0.25,
          "durationTicks": 80,
          "midi": 66,
          "name": "F#4",
          "ticks": 70960,
          "time": 222.24144406666665,
          "velocity": 0.4251968503937008
        },
        {
          "duration": 0.25,
          "durationTicks": 80,
          "midi": 65,
          "name": "F4",
          "ticks": 71120,
          "time": 222.74144406666665,
          "velocity": 0.4251968503937008
        },
        {
          "duration": 0.25,
          "durationTicks": 80,
          "midi": 66,
          "name": "F#4",
          "ticks": 71200,
          "time": 222.99144406666665,
          "velocity": 0.4251968503937008
        },
        {
          "duration": 0.25,
          "durationTicks": 80,
          "midi": 65,
          "name": "F4",
          "ticks": 71360,
          "time": 223.49144406666665,
          "velocity": 0.4251968503937008
        },
        {
          "duration": 0.25,
          "durationTicks": 80,
          "midi": 66,
          "name": "F#4",
          "ticks": 71440,
          "time": 223.74144406666665,
          "velocity": 0.4251968503937008
        },
        {
          "duration": 0.25,
          "durationTicks": 80,
          "midi": 65,
          "name": "F4",
          "ticks": 71592,
          "time": 224.21644406666664,
          "velocity": 0.4251968503937008
        },
        {
          "duration": 0.25,
          "durationTicks": 80,
          "midi": 66,
          "name": "F#4",
          "ticks": 71680,
          "time": 224.49144406666665,
          "velocity": 0.4251968503937008
        },
        {
          "duration": 0.25,
          "durationTicks": 80,
          "midi": 65,
          "name": "F4",
          "ticks": 71844,
          "time": 225.00394406666663,
          "velocity": 0.4251968503937008
        },
        {
          "duration": 0.25,
          "durationTicks": 80,
          "midi": 66,
          "name": "F#4",
          "ticks": 71920,
          "time": 225.24144406666665,
          "velocity": 0.4251968503937008
        },
        {
          "duration": 1.125,
          "durationTicks": 360,
          "midi": 82,
          "name": "A#5",
          "ticks": 72000,
          "time": 225.49144406666665,
          "velocity": 0.5039370078740157
        },
        {
          "duration": 0.75,
          "durationTicks": 240,
          "midi": 78,
          "name": "F#5",
          "ticks": 72360,
          "time": 226.61644406666665,
          "velocity": 0.4251968503937008
        },
        {
          "duration": 0.75,
          "durationTicks": 240,
          "midi": 75,
          "name": "D#5",
          "ticks": 72600,
          "time": 227.36644406666665,
          "velocity": 0.4251968503937008
        },
        {
          "duration": 0.375,
          "durationTicks": 120,
          "midi": 70,
          "name": "A#4",
          "ticks": 72840,
          "time": 228.11644406666665,
          "velocity": 0.4251968503937008
        },
        {
          "duration": 1.125,
          "durationTicks": 360,
          "midi": 82,
          "name": "A#5",
          "ticks": 72960,
          "time": 228.49144406666665,
          "velocity": 0.5039370078740157
        },
        {
          "duration": 0.75,
          "durationTicks": 240,
          "midi": 77,
          "name": "F5",
          "ticks": 73320,
          "time": 229.61644406666665,
          "velocity": 0.4251968503937008
        },
        {
          "duration": 0.75,
          "durationTicks": 240,
          "midi": 73,
          "name": "C#5",
          "ticks": 73560,
          "time": 230.36644406666665,
          "velocity": 0.4251968503937008
        },
        {
          "duration": 0.375,
          "durationTicks": 120,
          "midi": 70,
          "name": "A#4",
          "ticks": 73800,
          "time": 231.11644406666665,
          "velocity": 0.4251968503937008
        },
        {
          "duration": 1.125,
          "durationTicks": 360,
          "midi": 84,
          "name": "C6",
          "ticks": 73920,
          "time": 231.49144406666665,
          "velocity": 0.5039370078740157
        },
        {
          "duration": 0.75,
          "durationTicks": 240,
          "midi": 77,
          "name": "F5",
          "ticks": 74280,
          "time": 232.61644406666665,
          "velocity": 0.4251968503937008
        },
        {
          "duration": 0.75,
          "durationTicks": 240,
          "midi": 72,
          "name": "C5",
          "ticks": 74520,
          "time": 233.36644406666665,
          "velocity": 0.4251968503937008
        },
        {
          "duration": 0.375,
          "durationTicks": 120,
          "midi": 65,
          "name": "F4",
          "ticks": 74760,
          "time": 234.11644406666665,
          "velocity": 0.4251968503937008
        },
        {
          "duration": 1.125,
          "durationTicks": 360,
          "midi": 84,
          "name": "C6",
          "ticks": 74880,
          "time": 234.49144406666665,
          "velocity": 0.5039370078740157
        },
        {
          "duration": 0.75,
          "durationTicks": 240,
          "midi": 79,
          "name": "G5",
          "ticks": 75240,
          "time": 235.61644406666665,
          "velocity": 0.4251968503937008
        },
        {
          "duration": 0.75,
          "durationTicks": 240,
          "midi": 75,
          "name": "D#5",
          "ticks": 75480,
          "time": 236.36644406666665,
          "velocity": 0.4251968503937008
        },
        {
          "duration": 0.375,
          "durationTicks": 120,
          "midi": 72,
          "name": "C5",
          "ticks": 75720,
          "time": 237.11644406666665,
          "velocity": 0.4251968503937008
        },
        {
          "duration": 1.125,
          "durationTicks": 360,
          "midi": 86,
          "name": "D6",
          "ticks": 75840,
          "time": 237.49144406666665,
          "velocity": 0.5039370078740157
        },
        {
          "duration": 0.75,
          "durationTicks": 240,
          "midi": 79,
          "name": "G5",
          "ticks": 76200,
          "time": 238.61644406666665,
          "velocity": 0.4251968503937008
        },
        {
          "duration": 0.75,
          "durationTicks": 240,
          "midi": 74,
          "name": "D5",
          "ticks": 76440,
          "time": 239.36644406666665,
          "velocity": 0.4251968503937008
        },
        {
          "duration": 0.375,
          "durationTicks": 120,
          "midi": 67,
          "name": "G4",
          "ticks": 76680,
          "time": 240.11644406666665,
          "velocity": 0.4251968503937008
        },
        {
          "duration": 1.125,
          "durationTicks": 360,
          "midi": 86,
          "name": "D6",
          "ticks": 76800,
          "time": 240.49144406666665,
          "velocity": 0.5039370078740157
        },
        {
          "duration": 0.75,
          "durationTicks": 240,
          "midi": 81,
          "name": "A5",
          "ticks": 77160,
          "time": 241.61644406666665,
          "velocity": 0.4251968503937008
        },
        {
          "duration": 0.75,
          "durationTicks": 240,
          "midi": 77,
          "name": "F5",
          "ticks": 77400,
          "time": 242.36644406666665,
          "velocity": 0.4251968503937008
        },
        {
          "duration": 0.375,
          "durationTicks": 120,
          "midi": 74,
          "name": "D5",
          "ticks": 77640,
          "time": 243.11644406666665,
          "velocity": 0.4251968503937008
        },
        {
          "duration": 1.125,
          "durationTicks": 360,
          "midi": 82,
          "name": "A#5",
          "ticks": 77760,
          "time": 243.49144406666665,
          "velocity": 0.5039370078740157
        },
        {
          "duration": 0.75,
          "durationTicks": 240,
          "midi": 70,
          "name": "A#4",
          "ticks": 78120,
          "time": 244.61644406666665,
          "velocity": 0.4251968503937008
        },
        {
          "duration": 0.75,
          "durationTicks": 240,
          "midi": 67,
          "name": "G4",
          "ticks": 78360,
          "time": 245.36644406666665,
          "velocity": 0.4251968503937008
        },
        {
          "duration": 0.375,
          "durationTicks": 120,
          "midi": 63,
          "name": "D#4",
          "ticks": 78600,
          "time": 246.11644406666665,
          "velocity": 0.4251968503937008
        },
        {
          "duration": 0.25,
          "durationTicks": 80,
          "midi": 62,
          "name": "D4",
          "ticks": 78720,
          "time": 246.49144406666665,
          "velocity": 0.4409448818897638
        },
        {
          "duration": 0.25,
          "durationTicks": 80,
          "midi": 61,
          "name": "C#4",
          "ticks": 78800,
          "time": 246.74144406666665,
          "velocity": 0.4330708661417323
        },
        {
          "duration": 0.25,
          "durationTicks": 80,
          "midi": 62,
          "name": "D4",
          "ticks": 78880,
          "time": 246.99144406666665,
          "velocity": 0.4330708661417323
        },
        {
          "duration": 0.25,
          "durationTicks": 80,
          "midi": 65,
          "name": "F4",
          "ticks": 78960,
          "time": 247.24144406666665,
          "velocity": 0.4409448818897638
        },
        {
          "duration": 0.25,
          "durationTicks": 80,
          "midi": 64,
          "name": "E4",
          "ticks": 79040,
          "time": 247.49144406666665,
          "velocity": 0.4409448818897638
        },
        {
          "duration": 0.25,
          "durationTicks": 80,
          "midi": 62,
          "name": "D4",
          "ticks": 79120,
          "time": 247.74144406666665,
          "velocity": 0.4330708661417323
        },
        {
          "duration": 0.75,
          "durationTicks": 240,
          "midi": 61,
          "name": "C#4",
          "ticks": 79200,
          "time": 247.99144406666665,
          "velocity": 0.4251968503937008
        },
        {
          "duration": 0.25,
          "durationTicks": 80,
          "midi": 74,
          "name": "D5",
          "ticks": 80640,
          "time": 252.49144406666665,
          "velocity": 0.4409448818897638
        },
        {
          "duration": 0.25,
          "durationTicks": 80,
          "midi": 73,
          "name": "C#5",
          "ticks": 80720,
          "time": 252.74144406666665,
          "velocity": 0.4409448818897638
        },
        {
          "duration": 0.25,
          "durationTicks": 80,
          "midi": 74,
          "name": "D5",
          "ticks": 80800,
          "time": 252.99144406666665,
          "velocity": 0.4409448818897638
        },
        {
          "duration": 0.25,
          "durationTicks": 80,
          "midi": 77,
          "name": "F5",
          "ticks": 80880,
          "time": 253.24144406666665,
          "velocity": 0.4330708661417323
        },
        {
          "duration": 0.25,
          "durationTicks": 80,
          "midi": 76,
          "name": "E5",
          "ticks": 80960,
          "time": 253.49144406666665,
          "velocity": 0.4330708661417323
        },
        {
          "duration": 0.25,
          "durationTicks": 80,
          "midi": 74,
          "name": "D5",
          "ticks": 81040,
          "time": 253.74144406666665,
          "velocity": 0.4251968503937008
        },
        {
          "duration": 0.75,
          "durationTicks": 240,
          "midi": 73,
          "name": "C#5",
          "ticks": 81120,
          "time": 253.99144406666665,
          "velocity": 0.4330708661417323
        },
        {
          "duration": 1.5,
          "durationTicks": 480,
          "midi": 80,
          "name": "G#5",
          "ticks": 81600,
          "time": 255.49144406666665,
          "velocity": 0.41732283464566927
        },
        {
          "duration": 0.75,
          "durationTicks": 240,
          "midi": 81,
          "name": "A5",
          "ticks": 82080,
          "time": 256.99144406666665,
          "velocity": 0.41732283464566927
        },
        {
          "duration": 0.6875,
          "durationTicks": 220,
          "midi": 59,
          "name": "B3",
          "ticks": 82800,
          "time": 259.24144406666665,
          "velocity": 0.3858267716535433
        },
        {
          "duration": 0.6875,
          "durationTicks": 220,
          "midi": 68,
          "name": "G#4",
          "ticks": 82800,
          "time": 259.24144406666665,
          "velocity": 0.3858267716535433
        },
        {
          "duration": 0.6875,
          "durationTicks": 220,
          "midi": 57,
          "name": "A3",
          "ticks": 83280,
          "time": 260.74144406666665,
          "velocity": 0.3858267716535433
        },
        {
          "duration": 0.6875,
          "durationTicks": 220,
          "midi": 67,
          "name": "G4",
          "ticks": 83280,
          "time": 260.74144406666665,
          "velocity": 0.3858267716535433
        },
        {
          "duration": 0.6875,
          "durationTicks": 220,
          "midi": 57,
          "name": "A3",
          "ticks": 83760,
          "time": 262.24144406666665,
          "velocity": 0.3858267716535433
        },
        {
          "duration": 0.6875,
          "durationTicks": 220,
          "midi": 66,
          "name": "F#4",
          "ticks": 83760,
          "time": 262.24144406666665,
          "velocity": 0.3858267716535433
        },
        {
          "duration": 0.6910256833333506,
          "durationTicks": 220,
          "midi": 55,
          "name": "G3",
          "ticks": 84240,
          "time": 263.74144406666665,
          "velocity": 0.3858267716535433
        },
        {
          "duration": 0.6910256833333506,
          "durationTicks": 220,
          "midi": 65,
          "name": "F4",
          "ticks": 84240,
          "time": 263.74144406666665,
          "velocity": 0.3858267716535433
        },
        {
          "duration": 0.7638890416666868,
          "durationTicks": 220,
          "midi": 55,
          "name": "G3",
          "ticks": 84720,
          "time": 265.2872070833333,
          "velocity": 0.3858267716535433
        },
        {
          "duration": 0.7638890416666868,
          "durationTicks": 220,
          "midi": 64,
          "name": "E4",
          "ticks": 84720,
          "time": 265.2872070833333,
          "velocity": 0.3858267716535433
        },
        {
          "duration": 1.125,
          "durationTicks": 360,
          "midi": 65,
          "name": "F4",
          "ticks": 84960,
          "time": 266.1177627999999,
          "velocity": 0.4330708661417323
        },
        {
          "duration": 0.375,
          "durationTicks": 120,
          "midi": 60,
          "name": "C4",
          "ticks": 85320,
          "time": 267.2427627999999,
          "velocity": 0.4330708661417323
        },
        {
          "duration": 2.6125000000000114,
          "durationTicks": 836,
          "midi": 69,
          "name": "A4",
          "ticks": 85440,
          "time": 267.6177627999999,
          "velocity": 0.4330708661417323
        },
        {
          "duration": 0.1875,
          "durationTicks": 60,
          "midi": 67,
          "name": "G4",
          "ticks": 86280,
          "time": 270.2427627999999,
          "velocity": 0.4330708661417323
        },
        {
          "duration": 0.1875,
          "durationTicks": 60,
          "midi": 65,
          "name": "F4",
          "ticks": 86340,
          "time": 270.4302627999999,
          "velocity": 0.4330708661417323
        },
        {
          "duration": 0.75,
          "durationTicks": 240,
          "midi": 64,
          "name": "E4",
          "ticks": 86400,
          "time": 270.6177627999999,
          "velocity": 0.4330708661417323
        },
        {
          "duration": 0.75,
          "durationTicks": 240,
          "midi": 70,
          "name": "A#4",
          "ticks": 86880,
          "time": 272.1177627999999,
          "velocity": 0.49606299212598426
        },
        {
          "duration": 0.1875,
          "durationTicks": 60,
          "midi": 78,
          "name": "F#5",
          "ticks": 87900,
          "time": 275.3052627999999,
          "velocity": 0.4330708661417323
        },
        {
          "duration": 0.1875,
          "durationTicks": 60,
          "midi": 79,
          "name": "G5",
          "ticks": 87960,
          "time": 275.4927627999999,
          "velocity": 0.4330708661417323
        },
        {
          "duration": 0.1875,
          "durationTicks": 60,
          "midi": 78,
          "name": "F#5",
          "ticks": 88020,
          "time": 275.6802627999999,
          "velocity": 0.4330708661417323
        },
        {
          "duration": 0.1875,
          "durationTicks": 60,
          "midi": 79,
          "name": "G5",
          "ticks": 88080,
          "time": 275.8677627999999,
          "velocity": 0.4330708661417323
        },
        {
          "duration": 0.1875,
          "durationTicks": 60,
          "midi": 81,
          "name": "A5",
          "ticks": 88140,
          "time": 276.0552627999999,
          "velocity": 0.4330708661417323
        },
        {
          "duration": 0.1875,
          "durationTicks": 60,
          "midi": 82,
          "name": "A#5",
          "ticks": 88200,
          "time": 276.2427627999999,
          "velocity": 0.4330708661417323
        },
        {
          "duration": 0.1875,
          "durationTicks": 60,
          "midi": 81,
          "name": "A5",
          "ticks": 88260,
          "time": 276.4302627999999,
          "velocity": 0.4330708661417323
        },
        {
          "duration": 0.1875,
          "durationTicks": 60,
          "midi": 82,
          "name": "A#5",
          "ticks": 88320,
          "time": 276.6177627999999,
          "velocity": 0.4330708661417323
        },
        {
          "duration": 0.1875,
          "durationTicks": 60,
          "midi": 85,
          "name": "C#6",
          "ticks": 88380,
          "time": 276.8052627999999,
          "velocity": 0.4330708661417323
        },
        {
          "duration": 0.1875,
          "durationTicks": 60,
          "midi": 86,
          "name": "D6",
          "ticks": 88440,
          "time": 276.9927627999999,
          "velocity": 0.4330708661417323
        },
        {
          "duration": 0.1875,
          "durationTicks": 60,
          "midi": 81,
          "name": "A5",
          "ticks": 88500,
          "time": 277.1802627999999,
          "velocity": 0.4330708661417323
        },
        {
          "duration": 0.1875,
          "durationTicks": 60,
          "midi": 84,
          "name": "C6",
          "ticks": 88560,
          "time": 277.3677627999999,
          "velocity": 0.4330708661417323
        },
        {
          "duration": 0.1875,
          "durationTicks": 60,
          "midi": 82,
          "name": "A#5",
          "ticks": 88620,
          "time": 277.5552627999999,
          "velocity": 0.4330708661417323
        },
        {
          "duration": 0.1875,
          "durationTicks": 60,
          "midi": 81,
          "name": "A5",
          "ticks": 88680,
          "time": 277.7427627999999,
          "velocity": 0.4330708661417323
        },
        {
          "duration": 0.1875,
          "durationTicks": 60,
          "midi": 79,
          "name": "G5",
          "ticks": 88740,
          "time": 277.9302627999999,
          "velocity": 0.4330708661417323
        },
        {
          "duration": 0.1875,
          "durationTicks": 60,
          "midi": 77,
          "name": "F5",
          "ticks": 88800,
          "time": 278.1177627999999,
          "velocity": 0.4330708661417323
        },
        {
          "duration": 0.1875,
          "durationTicks": 60,
          "midi": 76,
          "name": "E5",
          "ticks": 88860,
          "time": 278.3052627999999,
          "velocity": 0.4330708661417323
        },
        {
          "duration": 0.1875,
          "durationTicks": 60,
          "midi": 81,
          "name": "A5",
          "ticks": 88920,
          "time": 278.4927627999999,
          "velocity": 0.4330708661417323
        },
        {
          "duration": 0.1875,
          "durationTicks": 60,
          "midi": 79,
          "name": "G5",
          "ticks": 88980,
          "time": 278.6802627999999,
          "velocity": 0.4330708661417323
        },
        {
          "duration": 0.1875,
          "durationTicks": 60,
          "midi": 77,
          "name": "F5",
          "ticks": 89040,
          "time": 278.8677627999999,
          "velocity": 0.4330708661417323
        },
        {
          "duration": 0.1875,
          "durationTicks": 60,
          "midi": 76,
          "name": "E5",
          "ticks": 89100,
          "time": 279.0552627999999,
          "velocity": 0.4330708661417323
        },
        {
          "duration": 0.1875,
          "durationTicks": 60,
          "midi": 74,
          "name": "D5",
          "ticks": 89160,
          "time": 279.2427627999999,
          "velocity": 0.4330708661417323
        },
        {
          "duration": 0.1875,
          "durationTicks": 60,
          "midi": 72,
          "name": "C5",
          "ticks": 89220,
          "time": 279.4302627999999,
          "velocity": 0.4330708661417323
        },
        {
          "duration": 0.1875,
          "durationTicks": 60,
          "midi": 70,
          "name": "A#4",
          "ticks": 89280,
          "time": 279.6177627999999,
          "velocity": 0.4330708661417323
        },
        {
          "duration": 0.1875,
          "durationTicks": 60,
          "midi": 69,
          "name": "A4",
          "ticks": 89340,
          "time": 279.8052627999999,
          "velocity": 0.4330708661417323
        },
        {
          "duration": 0.1875,
          "durationTicks": 60,
          "midi": 77,
          "name": "F5",
          "ticks": 89400,
          "time": 279.9927627999999,
          "velocity": 0.4330708661417323
        },
        {
          "duration": 0.1875,
          "durationTicks": 60,
          "midi": 75,
          "name": "D#5",
          "ticks": 89460,
          "time": 280.1802627999999,
          "velocity": 0.4330708661417323
        },
        {
          "duration": 0.1875,
          "durationTicks": 60,
          "midi": 74,
          "name": "D5",
          "ticks": 89520,
          "time": 280.3677627999999,
          "velocity": 0.4330708661417323
        },
        {
          "duration": 0.1875,
          "durationTicks": 60,
          "midi": 72,
          "name": "C5",
          "ticks": 89580,
          "time": 280.5552627999999,
          "velocity": 0.4330708661417323
        },
        {
          "duration": 0.1875,
          "durationTicks": 60,
          "midi": 70,
          "name": "A#4",
          "ticks": 89640,
          "time": 280.7427627999999,
          "velocity": 0.4330708661417323
        },
        {
          "duration": 0.1875,
          "durationTicks": 60,
          "midi": 69,
          "name": "A4",
          "ticks": 89700,
          "time": 280.9302627999999,
          "velocity": 0.4330708661417323
        },
        {
          "duration": 0.1875,
          "durationTicks": 60,
          "midi": 67,
          "name": "G4",
          "ticks": 89760,
          "time": 281.1177627999999,
          "velocity": 0.4330708661417323
        },
        {
          "duration": 0.1875,
          "durationTicks": 60,
          "midi": 65,
          "name": "F4",
          "ticks": 89820,
          "time": 281.3052627999999,
          "velocity": 0.4330708661417323
        },
        {
          "duration": 0.1875,
          "durationTicks": 60,
          "midi": 74,
          "name": "D5",
          "ticks": 89880,
          "time": 281.4927627999999,
          "velocity": 0.4330708661417323
        },
        {
          "duration": 0.1875,
          "durationTicks": 60,
          "midi": 72,
          "name": "C5",
          "ticks": 89940,
          "time": 281.6802627999999,
          "velocity": 0.4330708661417323
        },
        {
          "duration": 0.1875,
          "durationTicks": 60,
          "midi": 70,
          "name": "A#4",
          "ticks": 90000,
          "time": 281.8677627999999,
          "velocity": 0.4330708661417323
        },
        {
          "duration": 0.1875,
          "durationTicks": 60,
          "midi": 69,
          "name": "A4",
          "ticks": 90060,
          "time": 282.0552627999999,
          "velocity": 0.4330708661417323
        },
        {
          "duration": 0.1875,
          "durationTicks": 60,
          "midi": 67,
          "name": "G4",
          "ticks": 90120,
          "time": 282.2427627999999,
          "velocity": 0.4330708661417323
        },
        {
          "duration": 0.1875,
          "durationTicks": 60,
          "midi": 65,
          "name": "F4",
          "ticks": 90180,
          "time": 282.4302627999999,
          "velocity": 0.4330708661417323
        },
        {
          "duration": 0.1875,
          "durationTicks": 60,
          "midi": 64,
          "name": "E4",
          "ticks": 90240,
          "time": 282.6177627999999,
          "velocity": 0.4330708661417323
        },
        {
          "duration": 0.1875,
          "durationTicks": 60,
          "midi": 65,
          "name": "F4",
          "ticks": 90300,
          "time": 282.8052627999999,
          "velocity": 0.4330708661417323
        },
        {
          "duration": 0.1875,
          "durationTicks": 60,
          "midi": 67,
          "name": "G4",
          "ticks": 90360,
          "time": 282.9927627999999,
          "velocity": 0.4330708661417323
        },
        {
          "duration": 0.1875,
          "durationTicks": 60,
          "midi": 65,
          "name": "F4",
          "ticks": 90420,
          "time": 283.1802627999999,
          "velocity": 0.4330708661417323
        },
        {
          "duration": 0.1875,
          "durationTicks": 60,
          "midi": 63,
          "name": "D#4",
          "ticks": 90480,
          "time": 283.3677627999999,
          "velocity": 0.4330708661417323
        },
        {
          "duration": 0.1875,
          "durationTicks": 60,
          "midi": 62,
          "name": "D4",
          "ticks": 90540,
          "time": 283.5552627999999,
          "velocity": 0.4330708661417323
        },
        {
          "duration": 0.1875,
          "durationTicks": 60,
          "midi": 63,
          "name": "D#4",
          "ticks": 90600,
          "time": 283.7427627999999,
          "velocity": 0.4330708661417323
        },
        {
          "duration": 0.1875,
          "durationTicks": 60,
          "midi": 60,
          "name": "C4",
          "ticks": 90660,
          "time": 283.9302627999999,
          "velocity": 0.4330708661417323
        },
        {
          "duration": 1.5,
          "durationTicks": 480,
          "midi": 58,
          "name": "A#3",
          "ticks": 90720,
          "time": 284.1177627999999,
          "velocity": 0.4330708661417323
        },
        {
          "duration": 0.1875,
          "durationTicks": 60,
          "midi": 71,
          "name": "B4",
          "ticks": 92700,
          "time": 290.3052627999999,
          "velocity": 0.3937007874015748
        },
        {
          "duration": 0.1875,
          "durationTicks": 60,
          "midi": 72,
          "name": "C5",
          "ticks": 92760,
          "time": 290.4927627999999,
          "velocity": 0.3937007874015748
        },
        {
          "duration": 0.1875,
          "durationTicks": 60,
          "midi": 71,
          "name": "B4",
          "ticks": 92820,
          "time": 290.6802627999999,
          "velocity": 0.3937007874015748
        },
        {
          "duration": 0.1875,
          "durationTicks": 60,
          "midi": 72,
          "name": "C5",
          "ticks": 92880,
          "time": 290.8677627999999,
          "velocity": 0.3937007874015748
        },
        {
          "duration": 0.1875,
          "durationTicks": 60,
          "midi": 74,
          "name": "D5",
          "ticks": 92940,
          "time": 291.0552627999999,
          "velocity": 0.3937007874015748
        },
        {
          "duration": 0.1875,
          "durationTicks": 60,
          "midi": 75,
          "name": "D#5",
          "ticks": 93000,
          "time": 291.2427627999999,
          "velocity": 0.3937007874015748
        },
        {
          "duration": 0.1875,
          "durationTicks": 60,
          "midi": 74,
          "name": "D5",
          "ticks": 93060,
          "time": 291.4302627999999,
          "velocity": 0.3937007874015748
        },
        {
          "duration": 0.1875,
          "durationTicks": 60,
          "midi": 75,
          "name": "D#5",
          "ticks": 93120,
          "time": 291.6177627999999,
          "velocity": 0.3937007874015748
        },
        {
          "duration": 0.1875,
          "durationTicks": 60,
          "midi": 78,
          "name": "F#5",
          "ticks": 93180,
          "time": 291.8052627999999,
          "velocity": 0.3937007874015748
        },
        {
          "duration": 0.1875,
          "durationTicks": 60,
          "midi": 79,
          "name": "G5",
          "ticks": 93240,
          "time": 291.9927627999999,
          "velocity": 0.3937007874015748
        },
        {
          "duration": 0.1875,
          "durationTicks": 60,
          "midi": 74,
          "name": "D5",
          "ticks": 93300,
          "time": 292.1802627999999,
          "velocity": 0.3937007874015748
        },
        {
          "duration": 0.1875,
          "durationTicks": 60,
          "midi": 77,
          "name": "F5",
          "ticks": 93360,
          "time": 292.3677627999999,
          "velocity": 0.3937007874015748
        },
        {
          "duration": 0.1875,
          "durationTicks": 60,
          "midi": 75,
          "name": "D#5",
          "ticks": 93420,
          "time": 292.5552627999999,
          "velocity": 0.3937007874015748
        },
        {
          "duration": 0.1875,
          "durationTicks": 60,
          "midi": 74,
          "name": "D5",
          "ticks": 93480,
          "time": 292.7427627999999,
          "velocity": 0.3937007874015748
        },
        {
          "duration": 0.1875,
          "durationTicks": 60,
          "midi": 72,
          "name": "C5",
          "ticks": 93540,
          "time": 292.9302627999999,
          "velocity": 0.3937007874015748
        },
        {
          "duration": 1.5,
          "durationTicks": 480,
          "midi": 70,
          "name": "A#4",
          "ticks": 93600,
          "time": 293.1177627999999,
          "velocity": 0.3937007874015748
        },
        {
          "duration": 0.75,
          "durationTicks": 240,
          "midi": 69,
          "name": "A4",
          "ticks": 94080,
          "time": 294.6177627999999,
          "velocity": 0.3937007874015748
        },
        {
          "duration": 0.1875,
          "durationTicks": 60,
          "midi": 70,
          "name": "A#4",
          "ticks": 95100,
          "time": 297.8052627999999,
          "velocity": 0.4409448818897638
        },
        {
          "duration": 0.1875,
          "durationTicks": 60,
          "midi": 72,
          "name": "C5",
          "ticks": 95160,
          "time": 297.9927627999999,
          "velocity": 0.4409448818897638
        },
        {
          "duration": 0.1875,
          "durationTicks": 60,
          "midi": 74,
          "name": "D5",
          "ticks": 95220,
          "time": 298.1802627999999,
          "velocity": 0.4409448818897638
        },
        {
          "duration": 0.1875,
          "durationTicks": 60,
          "midi": 75,
          "name": "D#5",
          "ticks": 95280,
          "time": 298.3677627999999,
          "velocity": 0.4409448818897638
        },
        {
          "duration": 0.1875,
          "durationTicks": 60,
          "midi": 77,
          "name": "F5",
          "ticks": 95340,
          "time": 298.5552627999999,
          "velocity": 0.4409448818897638
        },
        {
          "duration": 0.1875,
          "durationTicks": 60,
          "midi": 79,
          "name": "G5",
          "ticks": 95400,
          "time": 298.7427627999999,
          "velocity": 0.4409448818897638
        },
        {
          "duration": 0.1875,
          "durationTicks": 60,
          "midi": 81,
          "name": "A5",
          "ticks": 95460,
          "time": 298.9302627999999,
          "velocity": 0.4409448818897638
        },
        {
          "duration": 0.1875,
          "durationTicks": 60,
          "midi": 84,
          "name": "C6",
          "ticks": 95520,
          "time": 299.1177627999999,
          "velocity": 0.4409448818897638
        },
        {
          "duration": 0.1875,
          "durationTicks": 60,
          "midi": 82,
          "name": "A#5",
          "ticks": 95580,
          "time": 299.3052627999999,
          "velocity": 0.4409448818897638
        },
        {
          "duration": 0.1875,
          "durationTicks": 60,
          "midi": 87,
          "name": "D#6",
          "ticks": 95640,
          "time": 299.4927627999999,
          "velocity": 0.4409448818897638
        },
        {
          "duration": 0.1875,
          "durationTicks": 60,
          "midi": 86,
          "name": "D6",
          "ticks": 95700,
          "time": 299.6802627999999,
          "velocity": 0.4409448818897638
        },
        {
          "duration": 0.1875,
          "durationTicks": 60,
          "midi": 84,
          "name": "C6",
          "ticks": 95760,
          "time": 299.8677627999999,
          "velocity": 0.4409448818897638
        },
        {
          "duration": 0.1875,
          "durationTicks": 60,
          "midi": 82,
          "name": "A#5",
          "ticks": 95820,
          "time": 300.0552627999999,
          "velocity": 0.4409448818897638
        },
        {
          "duration": 0.1875,
          "durationTicks": 60,
          "midi": 81,
          "name": "A5",
          "ticks": 95880,
          "time": 300.2427627999999,
          "velocity": 0.4409448818897638
        },
        {
          "duration": 0.1875,
          "durationTicks": 60,
          "midi": 79,
          "name": "G5",
          "ticks": 95940,
          "time": 300.4302627999999,
          "velocity": 0.4409448818897638
        },
        {
          "duration": 0.1875,
          "durationTicks": 60,
          "midi": 78,
          "name": "F#5",
          "ticks": 96000,
          "time": 300.6177627999999,
          "velocity": 0.4409448818897638
        },
        {
          "duration": 0.1875,
          "durationTicks": 60,
          "midi": 76,
          "name": "E5",
          "ticks": 96060,
          "time": 300.8052627999999,
          "velocity": 0.4409448818897638
        },
        {
          "duration": 0.1875,
          "durationTicks": 60,
          "midi": 74,
          "name": "D5",
          "ticks": 96120,
          "time": 300.9927627999999,
          "velocity": 0.4409448818897638
        },
        {
          "duration": 0.1875,
          "durationTicks": 60,
          "midi": 76,
          "name": "E5",
          "ticks": 96180,
          "time": 301.1802627999999,
          "velocity": 0.4409448818897638
        },
        {
          "duration": 0.1875,
          "durationTicks": 60,
          "midi": 78,
          "name": "F#5",
          "ticks": 96240,
          "time": 301.3677627999999,
          "velocity": 0.4409448818897638
        },
        {
          "duration": 0.1875,
          "durationTicks": 60,
          "midi": 79,
          "name": "G5",
          "ticks": 96300,
          "time": 301.5552627999999,
          "velocity": 0.4409448818897638
        },
        {
          "duration": 0.1875,
          "durationTicks": 60,
          "midi": 81,
          "name": "A5",
          "ticks": 96360,
          "time": 301.7427627999999,
          "velocity": 0.4409448818897638
        },
        {
          "duration": 0.1875,
          "durationTicks": 60,
          "midi": 82,
          "name": "A#5",
          "ticks": 96420,
          "time": 301.9302627999999,
          "velocity": 0.4409448818897638
        },
        {
          "duration": 0.1875,
          "durationTicks": 60,
          "midi": 84,
          "name": "C6",
          "ticks": 96480,
          "time": 302.1177627999999,
          "velocity": 0.4409448818897638
        },
        {
          "duration": 0.1875,
          "durationTicks": 60,
          "midi": 83,
          "name": "B5",
          "ticks": 96540,
          "time": 302.3052627999999,
          "velocity": 0.4409448818897638
        },
        {
          "duration": 0.1875,
          "durationTicks": 60,
          "midi": 86,
          "name": "D6",
          "ticks": 96600,
          "time": 302.4927627999999,
          "velocity": 0.4409448818897638
        },
        {
          "duration": 0.1875,
          "durationTicks": 60,
          "midi": 84,
          "name": "C6",
          "ticks": 96660,
          "time": 302.6802627999999,
          "velocity": 0.4409448818897638
        },
        {
          "duration": 0.1875,
          "durationTicks": 60,
          "midi": 82,
          "name": "A#5",
          "ticks": 96720,
          "time": 302.8677627999999,
          "velocity": 0.4409448818897638
        },
        {
          "duration": 0.1875,
          "durationTicks": 60,
          "midi": 81,
          "name": "A5",
          "ticks": 96780,
          "time": 303.0552627999999,
          "velocity": 0.4409448818897638
        },
        {
          "duration": 0.1875,
          "durationTicks": 60,
          "midi": 79,
          "name": "G5",
          "ticks": 96840,
          "time": 303.2427627999999,
          "velocity": 0.4409448818897638
        },
        {
          "duration": 0.1875,
          "durationTicks": 60,
          "midi": 78,
          "name": "F#5",
          "ticks": 96900,
          "time": 303.4302627999999,
          "velocity": 0.4409448818897638
        },
        {
          "duration": 0.1875,
          "durationTicks": 60,
          "midi": 79,
          "name": "G5",
          "ticks": 96960,
          "time": 303.6177627999999,
          "velocity": 0.4409448818897638
        },
        {
          "duration": 0.1875,
          "durationTicks": 60,
          "midi": 74,
          "name": "D5",
          "ticks": 97020,
          "time": 303.8052627999999,
          "velocity": 0.4409448818897638
        },
        {
          "duration": 0.1875,
          "durationTicks": 60,
          "midi": 76,
          "name": "E5",
          "ticks": 97080,
          "time": 303.9927627999999,
          "velocity": 0.4409448818897638
        },
        {
          "duration": 0.1875,
          "durationTicks": 60,
          "midi": 78,
          "name": "F#5",
          "ticks": 97140,
          "time": 304.1802627999999,
          "velocity": 0.4409448818897638
        },
        {
          "duration": 0.1875,
          "durationTicks": 60,
          "midi": 79,
          "name": "G5",
          "ticks": 97200,
          "time": 304.3677627999999,
          "velocity": 0.4409448818897638
        },
        {
          "duration": 0.1875,
          "durationTicks": 60,
          "midi": 78,
          "name": "F#5",
          "ticks": 97260,
          "time": 304.5552627999999,
          "velocity": 0.4409448818897638
        },
        {
          "duration": 0.1875,
          "durationTicks": 60,
          "midi": 81,
          "name": "A5",
          "ticks": 97320,
          "time": 304.7427627999999,
          "velocity": 0.4409448818897638
        },
        {
          "duration": 0.1875,
          "durationTicks": 60,
          "midi": 79,
          "name": "G5",
          "ticks": 97380,
          "time": 304.9302627999999,
          "velocity": 0.4409448818897638
        },
        {
          "duration": 0.1875,
          "durationTicks": 60,
          "midi": 82,
          "name": "A#5",
          "ticks": 97440,
          "time": 305.1177627999999,
          "velocity": 0.4409448818897638
        },
        {
          "duration": 0.1875,
          "durationTicks": 60,
          "midi": 81,
          "name": "A5",
          "ticks": 97500,
          "time": 305.3052627999999,
          "velocity": 0.4409448818897638
        },
        {
          "duration": 0.1875,
          "durationTicks": 60,
          "midi": 84,
          "name": "C6",
          "ticks": 97560,
          "time": 305.4927627999999,
          "velocity": 0.4409448818897638
        },
        {
          "duration": 0.1875,
          "durationTicks": 60,
          "midi": 82,
          "name": "A#5",
          "ticks": 97620,
          "time": 305.6802627999999,
          "velocity": 0.4409448818897638
        },
        {
          "duration": 0.1875,
          "durationTicks": 60,
          "midi": 86,
          "name": "D6",
          "ticks": 97680,
          "time": 305.8677627999999,
          "velocity": 0.4409448818897638
        },
        {
          "duration": 0.1875,
          "durationTicks": 60,
          "midi": 82,
          "name": "A#5",
          "ticks": 97740,
          "time": 306.0552627999999,
          "velocity": 0.4409448818897638
        },
        {
          "duration": 0.1875,
          "durationTicks": 60,
          "midi": 79,
          "name": "G5",
          "ticks": 97800,
          "time": 306.2427627999999,
          "velocity": 0.4409448818897638
        },
        {
          "duration": 0.1875,
          "durationTicks": 60,
          "midi": 77,
          "name": "F5",
          "ticks": 97860,
          "time": 306.4302627999999,
          "velocity": 0.4409448818897638
        },
        {
          "duration": 0.1875,
          "durationTicks": 60,
          "midi": 76,
          "name": "E5",
          "ticks": 97920,
          "time": 306.6177627999999,
          "velocity": 0.4409448818897638
        },
        {
          "duration": 0.1875,
          "durationTicks": 60,
          "midi": 74,
          "name": "D5",
          "ticks": 97980,
          "time": 306.8052627999999,
          "velocity": 0.4409448818897638
        },
        {
          "duration": 0.1875,
          "durationTicks": 60,
          "midi": 72,
          "name": "C5",
          "ticks": 98040,
          "time": 306.9927627999999,
          "velocity": 0.4409448818897638
        },
        {
          "duration": 0.1875,
          "durationTicks": 60,
          "midi": 74,
          "name": "D5",
          "ticks": 98100,
          "time": 307.1802627999999,
          "velocity": 0.4409448818897638
        },
        {
          "duration": 0.1875,
          "durationTicks": 60,
          "midi": 76,
          "name": "E5",
          "ticks": 98160,
          "time": 307.3677627999999,
          "velocity": 0.4409448818897638
        },
        {
          "duration": 0.1875,
          "durationTicks": 60,
          "midi": 77,
          "name": "F5",
          "ticks": 98220,
          "time": 307.5552627999999,
          "velocity": 0.4409448818897638
        },
        {
          "duration": 0.1875,
          "durationTicks": 60,
          "midi": 79,
          "name": "G5",
          "ticks": 98280,
          "time": 307.7427627999999,
          "velocity": 0.4409448818897638
        },
        {
          "duration": 0.1875,
          "durationTicks": 60,
          "midi": 81,
          "name": "A5",
          "ticks": 98340,
          "time": 307.9302627999999,
          "velocity": 0.4409448818897638
        },
        {
          "duration": 0.1875,
          "durationTicks": 60,
          "midi": 82,
          "name": "A#5",
          "ticks": 98400,
          "time": 308.1177627999999,
          "velocity": 0.4409448818897638
        },
        {
          "duration": 0.1875,
          "durationTicks": 60,
          "midi": 84,
          "name": "C6",
          "ticks": 98460,
          "time": 308.3052627999999,
          "velocity": 0.4409448818897638
        },
        {
          "duration": 0.1875,
          "durationTicks": 60,
          "midi": 86,
          "name": "D6",
          "ticks": 98520,
          "time": 308.4927627999999,
          "velocity": 0.4409448818897638
        },
        {
          "duration": 0.1875,
          "durationTicks": 60,
          "midi": 82,
          "name": "A#5",
          "ticks": 98580,
          "time": 308.6802627999999,
          "velocity": 0.4409448818897638
        },
        {
          "duration": 0.1875,
          "durationTicks": 60,
          "midi": 81,
          "name": "A5",
          "ticks": 98640,
          "time": 308.8677627999999,
          "velocity": 0.4409448818897638
        },
        {
          "duration": 0.1875,
          "durationTicks": 60,
          "midi": 79,
          "name": "G5",
          "ticks": 98700,
          "time": 309.0552627999999,
          "velocity": 0.4409448818897638
        },
        {
          "duration": 0.1875,
          "durationTicks": 60,
          "midi": 77,
          "name": "F5",
          "ticks": 98760,
          "time": 309.2427627999999,
          "velocity": 0.4409448818897638
        },
        {
          "duration": 0.1875,
          "durationTicks": 60,
          "midi": 76,
          "name": "E5",
          "ticks": 98820,
          "time": 309.4302627999999,
          "velocity": 0.4409448818897638
        },
        {
          "duration": 0.1875,
          "durationTicks": 60,
          "midi": 77,
          "name": "F5",
          "ticks": 98880,
          "time": 309.6177627999999,
          "velocity": 0.4409448818897638
        },
        {
          "duration": 0.1875,
          "durationTicks": 60,
          "midi": 72,
          "name": "C5",
          "ticks": 98940,
          "time": 309.8052627999999,
          "velocity": 0.4409448818897638
        },
        {
          "duration": 0.1875,
          "durationTicks": 60,
          "midi": 74,
          "name": "D5",
          "ticks": 99000,
          "time": 309.9927627999999,
          "velocity": 0.4409448818897638
        },
        {
          "duration": 0.1875,
          "durationTicks": 60,
          "midi": 76,
          "name": "E5",
          "ticks": 99060,
          "time": 310.1802627999999,
          "velocity": 0.4409448818897638
        },
        {
          "duration": 0.1875,
          "durationTicks": 60,
          "midi": 77,
          "name": "F5",
          "ticks": 99120,
          "time": 310.3677627999999,
          "velocity": 0.4409448818897638
        },
        {
          "duration": 0.1875,
          "durationTicks": 60,
          "midi": 79,
          "name": "G5",
          "ticks": 99180,
          "time": 310.5552627999999,
          "velocity": 0.4409448818897638
        },
        {
          "duration": 0.1875,
          "durationTicks": 60,
          "midi": 81,
          "name": "A5",
          "ticks": 99240,
          "time": 310.7427627999999,
          "velocity": 0.4409448818897638
        },
        {
          "duration": 0.1875,
          "durationTicks": 60,
          "midi": 82,
          "name": "A#5",
          "ticks": 99300,
          "time": 310.9302627999999,
          "velocity": 0.4409448818897638
        },
        {
          "duration": 0.1875,
          "durationTicks": 60,
          "midi": 84,
          "name": "C6",
          "ticks": 99360,
          "time": 311.1177627999999,
          "velocity": 0.4409448818897638
        },
        {
          "duration": 0.1875,
          "durationTicks": 60,
          "midi": 86,
          "name": "D6",
          "ticks": 99420,
          "time": 311.3052627999999,
          "velocity": 0.3937007874015748
        },
        {
          "duration": 0.1875,
          "durationTicks": 60,
          "midi": 84,
          "name": "C6",
          "ticks": 99480,
          "time": 311.4927627999999,
          "velocity": 0.3937007874015748
        },
        {
          "duration": 0.1875,
          "durationTicks": 60,
          "midi": 82,
          "name": "A#5",
          "ticks": 99540,
          "time": 311.6802627999999,
          "velocity": 0.3937007874015748
        },
        {
          "duration": 0.1875,
          "durationTicks": 60,
          "midi": 81,
          "name": "A5",
          "ticks": 99600,
          "time": 311.8677627999999,
          "velocity": 0.3937007874015748
        },
        {
          "duration": 0.1875,
          "durationTicks": 60,
          "midi": 79,
          "name": "G5",
          "ticks": 99660,
          "time": 312.0552627999999,
          "velocity": 0.3937007874015748
        },
        {
          "duration": 0.1875,
          "durationTicks": 60,
          "midi": 77,
          "name": "F5",
          "ticks": 99720,
          "time": 312.2427627999999,
          "velocity": 0.3937007874015748
        },
        {
          "duration": 0.1875,
          "durationTicks": 60,
          "midi": 76,
          "name": "E5",
          "ticks": 99780,
          "time": 312.4302627999999,
          "velocity": 0.3937007874015748
        },
        {
          "duration": 0.1875,
          "durationTicks": 60,
          "midi": 77,
          "name": "F5",
          "ticks": 99840,
          "time": 312.6177627999999,
          "velocity": 0.3937007874015748
        },
        {
          "duration": 0.1875,
          "durationTicks": 60,
          "midi": 79,
          "name": "G5",
          "ticks": 99900,
          "time": 312.8052627999999,
          "velocity": 0.3937007874015748
        },
        {
          "duration": 0.1875,
          "durationTicks": 60,
          "midi": 81,
          "name": "A5",
          "ticks": 99960,
          "time": 312.9927627999999,
          "velocity": 0.3937007874015748
        },
        {
          "duration": 0.1875,
          "durationTicks": 60,
          "midi": 79,
          "name": "G5",
          "ticks": 100020,
          "time": 313.1802627999999,
          "velocity": 0.3937007874015748
        },
        {
          "duration": 0.1875,
          "durationTicks": 60,
          "midi": 77,
          "name": "F5",
          "ticks": 100080,
          "time": 313.3677627999999,
          "velocity": 0.3937007874015748
        },
        {
          "duration": 0.1875,
          "durationTicks": 60,
          "midi": 76,
          "name": "E5",
          "ticks": 100140,
          "time": 313.5552627999999,
          "velocity": 0.3937007874015748
        },
        {
          "duration": 0.1875,
          "durationTicks": 60,
          "midi": 74,
          "name": "D5",
          "ticks": 100200,
          "time": 313.7427627999999,
          "velocity": 0.3937007874015748
        },
        {
          "duration": 0.1875,
          "durationTicks": 60,
          "midi": 72,
          "name": "C5",
          "ticks": 100260,
          "time": 313.9302627999999,
          "velocity": 0.3937007874015748
        },
        {
          "duration": 0.1875,
          "durationTicks": 60,
          "midi": 71,
          "name": "B4",
          "ticks": 100320,
          "time": 314.1177627999999,
          "velocity": 0.3937007874015748
        },
        {
          "duration": 0.1875,
          "durationTicks": 60,
          "midi": 69,
          "name": "A4",
          "ticks": 100380,
          "time": 314.3052627999999,
          "velocity": 0.3937007874015748
        },
        {
          "duration": 0.1875,
          "durationTicks": 60,
          "midi": 67,
          "name": "G4",
          "ticks": 100440,
          "time": 314.4927627999999,
          "velocity": 0.3937007874015748
        },
        {
          "duration": 0.1875,
          "durationTicks": 60,
          "midi": 65,
          "name": "F4",
          "ticks": 100500,
          "time": 314.6802627999999,
          "velocity": 0.3937007874015748
        },
        {
          "duration": 0.1875,
          "durationTicks": 60,
          "midi": 64,
          "name": "E4",
          "ticks": 100560,
          "time": 314.8677627999999,
          "velocity": 0.3937007874015748
        },
        {
          "duration": 0.1875,
          "durationTicks": 60,
          "midi": 62,
          "name": "D4",
          "ticks": 100620,
          "time": 315.0552627999999,
          "velocity": 0.3937007874015748
        },
        {
          "duration": 0.1875,
          "durationTicks": 60,
          "midi": 60,
          "name": "C4",
          "ticks": 100680,
          "time": 315.2427627999999,
          "velocity": 0.3937007874015748
        },
        {
          "duration": 0.1875,
          "durationTicks": 60,
          "midi": 59,
          "name": "B3",
          "ticks": 100740,
          "time": 315.4302627999999,
          "velocity": 0.3937007874015748
        },
        {
          "duration": 1.5,
          "durationTicks": 480,
          "midi": 60,
          "name": "C4",
          "ticks": 100800,
          "time": 315.6177627999999,
          "velocity": 0.5039370078740157
        },
        {
          "duration": 0.75,
          "durationTicks": 240,
          "midi": 55,
          "name": "G3",
          "ticks": 101520,
          "time": 317.8677627999999,
          "velocity": 0.48031496062992124
        },
        {
          "duration": 0.75,
          "durationTicks": 240,
          "midi": 64,
          "name": "E4",
          "ticks": 101520,
          "time": 317.8677627999999,
          "velocity": 0.48031496062992124
        },
        {
          "duration": 0.75,
          "durationTicks": 240,
          "midi": 72,
          "name": "C5",
          "ticks": 101520,
          "time": 317.8677627999999,
          "velocity": 0.48031496062992124
        },
        {
          "duration": 0.75,
          "durationTicks": 240,
          "midi": 60,
          "name": "C4",
          "ticks": 101760,
          "time": 318.6177627999999,
          "velocity": 0.48031496062992124
        },
        {
          "duration": 0.75,
          "durationTicks": 240,
          "midi": 67,
          "name": "G4",
          "ticks": 101760,
          "time": 318.6177627999999,
          "velocity": 0.48031496062992124
        },
        {
          "duration": 0.75,
          "durationTicks": 240,
          "midi": 76,
          "name": "E5",
          "ticks": 101760,
          "time": 318.6177627999999,
          "velocity": 0.48031496062992124
        },
        {
          "duration": 0.75,
          "durationTicks": 240,
          "midi": 67,
          "name": "G4",
          "ticks": 102000,
          "time": 319.3677627999999,
          "velocity": 0.48031496062992124
        },
        {
          "duration": 0.75,
          "durationTicks": 240,
          "midi": 72,
          "name": "C5",
          "ticks": 102000,
          "time": 319.3677627999999,
          "velocity": 0.48031496062992124
        },
        {
          "duration": 0.75,
          "durationTicks": 240,
          "midi": 79,
          "name": "G5",
          "ticks": 102000,
          "time": 319.3677627999999,
          "velocity": 0.48031496062992124
        },
        {
          "duration": 1.5,
          "durationTicks": 480,
          "midi": 67,
          "name": "G4",
          "ticks": 102240,
          "time": 320.1177627999999,
          "velocity": 0.48031496062992124
        },
        {
          "duration": 1.5,
          "durationTicks": 480,
          "midi": 76,
          "name": "E5",
          "ticks": 102240,
          "time": 320.1177627999999,
          "velocity": 0.48031496062992124
        },
        {
          "duration": 1.5,
          "durationTicks": 480,
          "midi": 84,
          "name": "C6",
          "ticks": 102240,
          "time": 320.1177627999999,
          "velocity": 0.48031496062992124
        },
        {
          "duration": 0.75,
          "durationTicks": 240,
          "midi": 55,
          "name": "G3",
          "ticks": 102960,
          "time": 322.3677627999999,
          "velocity": 0.48031496062992124
        },
        {
          "duration": 0.75,
          "durationTicks": 240,
          "midi": 64,
          "name": "E4",
          "ticks": 102960,
          "time": 322.3677627999999,
          "velocity": 0.48031496062992124
        },
        {
          "duration": 0.75,
          "durationTicks": 240,
          "midi": 72,
          "name": "C5",
          "ticks": 102960,
          "time": 322.3677627999999,
          "velocity": 0.48031496062992124
        },
        {
          "duration": 0.75,
          "durationTicks": 240,
          "midi": 60,
          "name": "C4",
          "ticks": 103200,
          "time": 323.1177627999999,
          "velocity": 0.48031496062992124
        },
        {
          "duration": 0.75,
          "durationTicks": 240,
          "midi": 67,
          "name": "G4",
          "ticks": 103200,
          "time": 323.1177627999999,
          "velocity": 0.48031496062992124
        },
        {
          "duration": 0.75,
          "durationTicks": 240,
          "midi": 76,
          "name": "E5",
          "ticks": 103200,
          "time": 323.1177627999999,
          "velocity": 0.48031496062992124
        },
        {
          "duration": 0.75,
          "durationTicks": 240,
          "midi": 64,
          "name": "E4",
          "ticks": 103440,
          "time": 323.8677627999999,
          "velocity": 0.48031496062992124
        },
        {
          "duration": 0.75,
          "durationTicks": 240,
          "midi": 72,
          "name": "C5",
          "ticks": 103440,
          "time": 323.8677627999999,
          "velocity": 0.48031496062992124
        },
        {
          "duration": 0.75,
          "durationTicks": 240,
          "midi": 79,
          "name": "G5",
          "ticks": 103440,
          "time": 323.8677627999999,
          "velocity": 0.48031496062992124
        },
        {
          "duration": 0.75,
          "durationTicks": 240,
          "midi": 67,
          "name": "G4",
          "ticks": 103680,
          "time": 324.6177627999999,
          "velocity": 0.48031496062992124
        },
        {
          "duration": 0.75,
          "durationTicks": 240,
          "midi": 76,
          "name": "E5",
          "ticks": 103680,
          "time": 324.6177627999999,
          "velocity": 0.48031496062992124
        },
        {
          "duration": 1.125,
          "durationTicks": 360,
          "midi": 84,
          "name": "C6",
          "ticks": 103680,
          "time": 324.6177627999999,
          "velocity": 0.48031496062992124
        },
        {
          "duration": 0.375,
          "durationTicks": 120,
          "midi": 79,
          "name": "G5",
          "ticks": 104040,
          "time": 325.7427627999999,
          "velocity": 0.4015748031496063
        },
        {
          "duration": 0.375,
          "durationTicks": 120,
          "midi": 76,
          "name": "E5",
          "ticks": 104160,
          "time": 326.1177627999999,
          "velocity": 0.4015748031496063
        },
        {
          "duration": 0.7375000000000114,
          "durationTicks": 236,
          "midi": 72,
          "name": "C5",
          "ticks": 104280,
          "time": 326.4927627999999,
          "velocity": 0.4015748031496063
        },
        {
          "duration": 0.7375000000000114,
          "durationTicks": 236,
          "midi": 73,
          "name": "C#5",
          "ticks": 104520,
          "time": 327.2427627999999,
          "velocity": 0.4015748031496063
        },
        {
          "duration": 0.7375000000000114,
          "durationTicks": 236,
          "midi": 72,
          "name": "C5",
          "ticks": 104760,
          "time": 327.9927627999999,
          "velocity": 0.4015748031496063
        },
        {
          "duration": 0.36250000000001137,
          "durationTicks": 116,
          "midi": 71,
          "name": "B4",
          "ticks": 105000,
          "time": 328.7427627999999,
          "velocity": 0.4015748031496063
        },
        {
          "duration": 1.125,
          "durationTicks": 360,
          "midi": 84,
          "name": "C6",
          "ticks": 105120,
          "time": 329.1177627999999,
          "velocity": 0.5354330708661418
        },
        {
          "duration": 0.375,
          "durationTicks": 120,
          "midi": 79,
          "name": "G5",
          "ticks": 105480,
          "time": 330.2427627999999,
          "velocity": 0.4015748031496063
        },
        {
          "duration": 0.375,
          "durationTicks": 120,
          "midi": 76,
          "name": "E5",
          "ticks": 105600,
          "time": 330.6177627999999,
          "velocity": 0.4015748031496063
        },
        {
          "duration": 0.7375000000000114,
          "durationTicks": 236,
          "midi": 72,
          "name": "C5",
          "ticks": 105720,
          "time": 330.9927627999999,
          "velocity": 0.4015748031496063
        },
        {
          "duration": 0.7375000000000114,
          "durationTicks": 236,
          "midi": 73,
          "name": "C#5",
          "ticks": 105960,
          "time": 331.7427627999999,
          "velocity": 0.4015748031496063
        },
        {
          "duration": 0.7375000000000114,
          "durationTicks": 236,
          "midi": 72,
          "name": "C5",
          "ticks": 106200,
          "time": 332.4927627999999,
          "velocity": 0.4015748031496063
        },
        {
          "duration": 0.375,
          "durationTicks": 120,
          "midi": 71,
          "name": "B4",
          "ticks": 106440,
          "time": 333.2427627999999,
          "velocity": 0.4015748031496063
        },
        {
          "duration": 1.75,
          "durationTicks": 560,
          "midi": 72,
          "name": "C5",
          "ticks": 106560,
          "time": 333.6177627999999,
          "velocity": 0.4094488188976378
        },
        {
          "duration": 0.25,
          "durationTicks": 80,
          "midi": 73,
          "name": "C#5",
          "ticks": 107120,
          "time": 335.3677627999999,
          "velocity": 0.4094488188976378
        },
        {
          "duration": 0.25,
          "durationTicks": 80,
          "midi": 74,
          "name": "D5",
          "ticks": 107200,
          "time": 335.6177627999999,
          "velocity": 0.4094488188976378
        },
        {
          "duration": 0.2125000000000341,
          "durationTicks": 68,
          "midi": 72,
          "name": "C5",
          "ticks": 107280,
          "time": 335.8677627999999,
          "velocity": 0.4094488188976378
        },
        {
          "duration": 0.2210525916667052,
          "durationTicks": 68,
          "midi": 70,
          "name": "A#4",
          "ticks": 107360,
          "time": 336.1177627999999,
          "velocity": 0.4094488188976378
        },
        {
          "duration": 0.22368415833335575,
          "durationTicks": 68,
          "midi": 69,
          "name": "A4",
          "ticks": 107440,
          "time": 336.3782890666666,
          "velocity": 0.4094488188976378
        },
        {
          "duration": 0.224751033333348,
          "durationTicks": 68,
          "midi": 67,
          "name": "G4",
          "ticks": 107520,
          "time": 336.64144689999995,
          "velocity": 0.4094488188976378
        },
        {
          "duration": 0.22972978333331184,
          "durationTicks": 68,
          "midi": 65,
          "name": "F4",
          "ticks": 107600,
          "time": 336.9067384833333,
          "velocity": 0.4094488188976378
        },
        {
          "duration": 0.2297297833333687,
          "durationTicks": 68,
          "midi": 64,
          "name": "E4",
          "ticks": 107680,
          "time": 337.1770088166666,
          "velocity": 0.4094488188976378
        },
        {
          "duration": 0.27627633333332824,
          "durationTicks": 80,
          "midi": 72,
          "name": "C5",
          "ticks": 107760,
          "time": 337.44727915,
          "velocity": 0.4094488188976378
        },
        {
          "duration": 0.2777778333333458,
          "durationTicks": 80,
          "midi": 70,
          "name": "A#4",
          "ticks": 107840,
          "time": 337.7235554833333,
          "velocity": 0.4094488188976378
        },
        {
          "duration": 0.2750000499999601,
          "durationTicks": 80,
          "midi": 67,
          "name": "G4",
          "ticks": 107920,
          "time": 338.00133331666666,
          "velocity": 0.4094488188976378
        },
        {
          "duration": 1.5,
          "durationTicks": 480,
          "midi": 65,
          "name": "F4",
          "ticks": 108000,
          "time": 338.2763333666666,
          "velocity": 0.4251968503937008
        },
        {
          "duration": 1.5,
          "durationTicks": 480,
          "midi": 67,
          "name": "G4",
          "ticks": 108480,
          "time": 339.7763333666666,
          "velocity": 0.4251968503937008
        },
        {
          "duration": 1.5,
          "durationTicks": 480,
          "midi": 69,
          "name": "A4",
          "ticks": 108960,
          "time": 341.2763333666666,
          "velocity": 0.4251968503937008
        },
        {
          "duration": 0.9375,
          "durationTicks": 300,
          "midi": 70,
          "name": "A#4",
          "ticks": 109440,
          "time": 342.7763333666666,
          "velocity": 0.4251968503937008
        },
        {
          "duration": 0.1875,
          "durationTicks": 60,
          "midi": 72,
          "name": "C5",
          "ticks": 109740,
          "time": 343.7138333666666,
          "velocity": 0.4251968503937008
        },
        {
          "duration": 0.1875,
          "durationTicks": 60,
          "midi": 69,
          "name": "A4",
          "ticks": 109800,
          "time": 343.9013333666666,
          "velocity": 0.4251968503937008
        },
        {
          "duration": 0.1875,
          "durationTicks": 60,
          "midi": 70,
          "name": "A#4",
          "ticks": 109860,
          "time": 344.0888333666666,
          "velocity": 0.4251968503937008
        },
        {
          "duration": 0.75,
          "durationTicks": 240,
          "midi": 67,
          "name": "G4",
          "ticks": 109920,
          "time": 344.2763333666666,
          "velocity": 0.4251968503937008
        },
        {
          "duration": 1,
          "durationTicks": 320,
          "midi": 67,
          "name": "G4",
          "ticks": 110880,
          "time": 347.2763333666666,
          "velocity": 0.4251968503937008
        },
        {
          "duration": 0.25,
          "durationTicks": 80,
          "midi": 64,
          "name": "E4",
          "ticks": 111200,
          "time": 348.2763333666666,
          "velocity": 0.4251968503937008
        },
        {
          "duration": 0.25,
          "durationTicks": 80,
          "midi": 60,
          "name": "C4",
          "ticks": 111280,
          "time": 348.5263333666666,
          "velocity": 0.4251968503937008
        },
        {
          "duration": 1,
          "durationTicks": 320,
          "midi": 69,
          "name": "A4",
          "ticks": 111360,
          "time": 348.7763333666666,
          "velocity": 0.4251968503937008
        },
        {
          "duration": 0.25,
          "durationTicks": 80,
          "midi": 65,
          "name": "F4",
          "ticks": 111680,
          "time": 349.7763333666666,
          "velocity": 0.4251968503937008
        },
        {
          "duration": 0.25,
          "durationTicks": 80,
          "midi": 60,
          "name": "C4",
          "ticks": 111760,
          "time": 350.0263333666666,
          "velocity": 0.4251968503937008
        },
        {
          "duration": 1,
          "durationTicks": 320,
          "midi": 70,
          "name": "A#4",
          "ticks": 111840,
          "time": 350.2763333666666,
          "velocity": 0.4251968503937008
        },
        {
          "duration": 0.25,
          "durationTicks": 80,
          "midi": 67,
          "name": "G4",
          "ticks": 112160,
          "time": 351.2763333666666,
          "velocity": 0.4251968503937008
        },
        {
          "duration": 0.25,
          "durationTicks": 80,
          "midi": 64,
          "name": "E4",
          "ticks": 112240,
          "time": 351.5263333666666,
          "velocity": 0.4251968503937008
        },
        {
          "duration": 0.9375,
          "durationTicks": 300,
          "midi": 72,
          "name": "C5",
          "ticks": 112320,
          "time": 351.7763333666666,
          "velocity": 0.4251968503937008
        },
        {
          "duration": 0.1875,
          "durationTicks": 60,
          "midi": 74,
          "name": "D5",
          "ticks": 112620,
          "time": 352.7138333666666,
          "velocity": 0.4251968503937008
        },
        {
          "duration": 0.1875,
          "durationTicks": 60,
          "midi": 70,
          "name": "A#4",
          "ticks": 112680,
          "time": 352.9013333666666,
          "velocity": 0.4251968503937008
        },
        {
          "duration": 0.1875,
          "durationTicks": 60,
          "midi": 72,
          "name": "C5",
          "ticks": 112740,
          "time": 353.0888333666666,
          "velocity": 0.4251968503937008
        },
        {
          "duration": 0.75,
          "durationTicks": 240,
          "midi": 69,
          "name": "A4",
          "ticks": 112800,
          "time": 353.2763333666666,
          "velocity": 0.4251968503937008
        },
        {
          "duration": 0.25,
          "durationTicks": 80,
          "midi": 75,
          "name": "D#5",
          "ticks": 113840,
          "time": 356.5263333666666,
          "velocity": 0.4251968503937008
        },
        {
          "duration": 0.25,
          "durationTicks": 80,
          "midi": 74,
          "name": "D5",
          "ticks": 113920,
          "time": 356.7763333666666,
          "velocity": 0.4251968503937008
        },
        {
          "duration": 0.2125000000000341,
          "durationTicks": 68,
          "midi": 74,
          "name": "D5",
          "ticks": 114000,
          "time": 357.0263333666666,
          "velocity": 0.4251968503937008
        },
        {
          "duration": 0.2125000000000341,
          "durationTicks": 68,
          "midi": 74,
          "name": "D5",
          "ticks": 114080,
          "time": 357.2763333666666,
          "velocity": 0.4251968503937008
        },
        {
          "duration": 0.2125000000000341,
          "durationTicks": 68,
          "midi": 74,
          "name": "D5",
          "ticks": 114160,
          "time": 357.5263333666666,
          "velocity": 0.4251968503937008
        },
        {
          "duration": 0.75,
          "durationTicks": 240,
          "midi": 74,
          "name": "D5",
          "ticks": 114240,
          "time": 357.7763333666666,
          "velocity": 0.4251968503937008
        },
        {
          "duration": 0.75,
          "durationTicks": 240,
          "midi": 79,
          "name": "G5",
          "ticks": 114480,
          "time": 358.5263333666666,
          "velocity": 0.4251968503937008
        },
        {
          "duration": 0.25,
          "durationTicks": 80,
          "midi": 73,
          "name": "C#5",
          "ticks": 114800,
          "time": 359.5263333666666,
          "velocity": 0.4251968503937008
        },
        {
          "duration": 0.25,
          "durationTicks": 80,
          "midi": 72,
          "name": "C5",
          "ticks": 114880,
          "time": 359.7763333666666,
          "velocity": 0.4251968503937008
        },
        {
          "duration": 0.2125000000000341,
          "durationTicks": 68,
          "midi": 72,
          "name": "C5",
          "ticks": 114960,
          "time": 360.0263333666666,
          "velocity": 0.4251968503937008
        },
        {
          "duration": 0.2125000000000341,
          "durationTicks": 68,
          "midi": 72,
          "name": "C5",
          "ticks": 115040,
          "time": 360.2763333666666,
          "velocity": 0.4251968503937008
        },
        {
          "duration": 0.2125000000000341,
          "durationTicks": 68,
          "midi": 72,
          "name": "C5",
          "ticks": 115120,
          "time": 360.5263333666666,
          "velocity": 0.4251968503937008
        },
        {
          "duration": 0.75,
          "durationTicks": 240,
          "midi": 72,
          "name": "C5",
          "ticks": 115200,
          "time": 360.7763333666666,
          "velocity": 0.4251968503937008
        },
        {
          "duration": 0.75,
          "durationTicks": 240,
          "midi": 77,
          "name": "F5",
          "ticks": 115440,
          "time": 361.5263333666666,
          "velocity": 0.4251968503937008
        },
        {
          "duration": 0.25,
          "durationTicks": 80,
          "midi": 72,
          "name": "C5",
          "ticks": 115760,
          "time": 362.5263333666666,
          "velocity": 0.4251968503937008
        },
        {
          "duration": 0.25,
          "durationTicks": 80,
          "midi": 70,
          "name": "A#4",
          "ticks": 115840,
          "time": 362.7763333666666,
          "velocity": 0.4251968503937008
        },
        {
          "duration": 0.2125000000000341,
          "durationTicks": 68,
          "midi": 70,
          "name": "A#4",
          "ticks": 115920,
          "time": 363.0263333666666,
          "velocity": 0.4251968503937008
        },
        {
          "duration": 0.2125000000000341,
          "durationTicks": 68,
          "midi": 70,
          "name": "A#4",
          "ticks": 116000,
          "time": 363.2763333666666,
          "velocity": 0.4251968503937008
        },
        {
          "duration": 0.2125000000000341,
          "durationTicks": 68,
          "midi": 70,
          "name": "A#4",
          "ticks": 116080,
          "time": 363.5263333666666,
          "velocity": 0.4251968503937008
        },
        {
          "duration": 0.25,
          "durationTicks": 80,
          "midi": 70,
          "name": "A#4",
          "ticks": 116160,
          "time": 363.7763333666666,
          "velocity": 0.4251968503937008
        },
        {
          "duration": 0.25,
          "durationTicks": 80,
          "midi": 72,
          "name": "C5",
          "ticks": 116240,
          "time": 364.0263333666666,
          "velocity": 0.4251968503937008
        },
        {
          "duration": 0.25,
          "durationTicks": 80,
          "midi": 70,
          "name": "A#4",
          "ticks": 116320,
          "time": 364.2763333666666,
          "velocity": 0.4251968503937008
        },
        {
          "duration": 0.25,
          "durationTicks": 80,
          "midi": 69,
          "name": "A4",
          "ticks": 116400,
          "time": 364.5263333666666,
          "velocity": 0.4251968503937008
        },
        {
          "duration": 0.25,
          "durationTicks": 80,
          "midi": 70,
          "name": "A#4",
          "ticks": 116480,
          "time": 364.7763333666666,
          "velocity": 0.4251968503937008
        },
        {
          "duration": 0.22500000000002274,
          "durationTicks": 72,
          "midi": 69,
          "name": "A4",
          "ticks": 116560,
          "time": 365.0263333666666,
          "velocity": 0.4251968503937008
        },
        {
          "duration": 0.22500000000002274,
          "durationTicks": 72,
          "midi": 66,
          "name": "F#4",
          "ticks": 116640,
          "time": 365.2763333666666,
          "velocity": 0.4251968503937008
        },
        {
          "duration": 0.22500000000002274,
          "durationTicks": 72,
          "midi": 67,
          "name": "G4",
          "ticks": 116720,
          "time": 365.5263333666666,
          "velocity": 0.4251968503937008
        },
        {
          "duration": 0.22500000000002274,
          "durationTicks": 72,
          "midi": 70,
          "name": "A#4",
          "ticks": 116800,
          "time": 365.7763333666666,
          "velocity": 0.4251968503937008
        },
        {
          "duration": 0.22500000000002274,
          "durationTicks": 72,
          "midi": 74,
          "name": "D5",
          "ticks": 116880,
          "time": 366.0263333666666,
          "velocity": 0.4251968503937008
        },
        {
          "duration": 0.22500000000002274,
          "durationTicks": 72,
          "midi": 70,
          "name": "A#4",
          "ticks": 116960,
          "time": 366.2763333666666,
          "velocity": 0.4251968503937008
        },
        {
          "duration": 0.22500000000002274,
          "durationTicks": 72,
          "midi": 67,
          "name": "G4",
          "ticks": 117040,
          "time": 366.5263333666666,
          "velocity": 0.4251968503937008
        },
        {
          "duration": 1.5125000000000455,
          "durationTicks": 484,
          "midi": 65,
          "name": "F4",
          "ticks": 117120,
          "time": 366.7763333666666,
          "velocity": 0.4251968503937008
        },
        {
          "duration": 0.25,
          "durationTicks": 80,
          "midi": 64,
          "name": "E4",
          "ticks": 117600,
          "time": 368.2763333666666,
          "velocity": 0.4251968503937008
        },
        {
          "duration": 0.25,
          "durationTicks": 80,
          "midi": 86,
          "name": "D6",
          "ticks": 117680,
          "time": 368.5263333666666,
          "velocity": 0.4251968503937008
        },
        {
          "duration": 0.25,
          "durationTicks": 80,
          "midi": 84,
          "name": "C6",
          "ticks": 117760,
          "time": 368.7763333666666,
          "velocity": 0.4251968503937008
        },
        {
          "duration": 0.2125000000000341,
          "durationTicks": 68,
          "midi": 84,
          "name": "C6",
          "ticks": 117840,
          "time": 369.0263333666666,
          "velocity": 0.4251968503937008
        },
        {
          "duration": 0.2125000000000341,
          "durationTicks": 68,
          "midi": 84,
          "name": "C6",
          "ticks": 117920,
          "time": 369.2763333666666,
          "velocity": 0.4251968503937008
        },
        {
          "duration": 0.2125000000000341,
          "durationTicks": 68,
          "midi": 84,
          "name": "C6",
          "ticks": 118000,
          "time": 369.5263333666666,
          "velocity": 0.4251968503937008
        },
        {
          "duration": 0.1875,
          "durationTicks": 60,
          "midi": 84,
          "name": "C6",
          "ticks": 118080,
          "time": 369.7763333666666,
          "velocity": 0.4251968503937008
        },
        {
          "duration": 0.25000000000005684,
          "durationTicks": 80,
          "midi": 87,
          "name": "D#6",
          "ticks": 118160,
          "time": 370.0263333666666,
          "velocity": 0.4251968503937008
        },
        {
          "duration": 0.24999999999994316,
          "durationTicks": 80,
          "midi": 86,
          "name": "D6",
          "ticks": 118240,
          "time": 370.2763333666667,
          "velocity": 0.4251968503937008
        },
        {
          "duration": 0.2125000000000341,
          "durationTicks": 68,
          "midi": 86,
          "name": "D6",
          "ticks": 118320,
          "time": 370.5263333666666,
          "velocity": 0.4251968503937008
        },
        {
          "duration": 0.2125000000000341,
          "durationTicks": 68,
          "midi": 86,
          "name": "D6",
          "ticks": 118400,
          "time": 370.7763333666666,
          "velocity": 0.4251968503937008
        },
        {
          "duration": 0.21249999999997726,
          "durationTicks": 68,
          "midi": 86,
          "name": "D6",
          "ticks": 118480,
          "time": 371.0263333666667,
          "velocity": 0.4251968503937008
        },
        {
          "duration": 0.75,
          "durationTicks": 240,
          "midi": 86,
          "name": "D6",
          "ticks": 118560,
          "time": 371.2763333666666,
          "velocity": 0.4251968503937008
        },
        {
          "duration": 0.75,
          "durationTicks": 240,
          "midi": 79,
          "name": "G5",
          "ticks": 118800,
          "time": 372.0263333666666,
          "velocity": 0.4251968503937008
        },
        {
          "duration": 0.25000000000005684,
          "durationTicks": 80,
          "midi": 85,
          "name": "C#6",
          "ticks": 119120,
          "time": 373.0263333666666,
          "velocity": 0.4251968503937008
        },
        {
          "duration": 0.24999999999994316,
          "durationTicks": 80,
          "midi": 84,
          "name": "C6",
          "ticks": 119200,
          "time": 373.2763333666667,
          "velocity": 0.4251968503937008
        },
        {
          "duration": 0.2125000000000341,
          "durationTicks": 68,
          "midi": 84,
          "name": "C6",
          "ticks": 119280,
          "time": 373.5263333666666,
          "velocity": 0.4251968503937008
        },
        {
          "duration": 0.2125000000000341,
          "durationTicks": 68,
          "midi": 84,
          "name": "C6",
          "ticks": 119360,
          "time": 373.7763333666666,
          "velocity": 0.4251968503937008
        },
        {
          "duration": 0.21249999999997726,
          "durationTicks": 68,
          "midi": 84,
          "name": "C6",
          "ticks": 119440,
          "time": 374.0263333666667,
          "velocity": 0.4251968503937008
        },
        {
          "duration": 0.75,
          "durationTicks": 240,
          "midi": 84,
          "name": "C6",
          "ticks": 119520,
          "time": 374.2763333666666,
          "velocity": 0.4251968503937008
        },
        {
          "duration": 0.75,
          "durationTicks": 240,
          "midi": 77,
          "name": "F5",
          "ticks": 119760,
          "time": 375.0263333666666,
          "velocity": 0.4251968503937008
        },
        {
          "duration": 0.25000000000005684,
          "durationTicks": 80,
          "midi": 84,
          "name": "C6",
          "ticks": 120080,
          "time": 376.0263333666666,
          "velocity": 0.4251968503937008
        },
        {
          "duration": 0.24999999999994316,
          "durationTicks": 80,
          "midi": 82,
          "name": "A#5",
          "ticks": 120160,
          "time": 376.2763333666667,
          "velocity": 0.4251968503937008
        },
        {
          "duration": 0.2125000000000341,
          "durationTicks": 68,
          "midi": 82,
          "name": "A#5",
          "ticks": 120240,
          "time": 376.5263333666666,
          "velocity": 0.4251968503937008
        },
        {
          "duration": 0.2125000000000341,
          "durationTicks": 68,
          "midi": 82,
          "name": "A#5",
          "ticks": 120320,
          "time": 376.7763333666666,
          "velocity": 0.4251968503937008
        },
        {
          "duration": 0.21249999999997726,
          "durationTicks": 68,
          "midi": 82,
          "name": "A#5",
          "ticks": 120400,
          "time": 377.0263333666667,
          "velocity": 0.4251968503937008
        },
        {
          "duration": 0.25,
          "durationTicks": 80,
          "midi": 82,
          "name": "A#5",
          "ticks": 120480,
          "time": 377.2763333666666,
          "velocity": 0.4251968503937008
        },
        {
          "duration": 0.25000000000005684,
          "durationTicks": 80,
          "midi": 84,
          "name": "C6",
          "ticks": 120560,
          "time": 377.5263333666666,
          "velocity": 0.4251968503937008
        },
        {
          "duration": 0.24999999999994316,
          "durationTicks": 80,
          "midi": 82,
          "name": "A#5",
          "ticks": 120640,
          "time": 377.7763333666667,
          "velocity": 0.4251968503937008
        },
        {
          "duration": 0.25,
          "durationTicks": 80,
          "midi": 81,
          "name": "A5",
          "ticks": 120720,
          "time": 378.0263333666666,
          "velocity": 0.4251968503937008
        },
        {
          "duration": 0.25000000000005684,
          "durationTicks": 80,
          "midi": 82,
          "name": "A#5",
          "ticks": 120800,
          "time": 378.2763333666666,
          "velocity": 0.4251968503937008
        },
        {
          "duration": 0.24999999999994316,
          "durationTicks": 80,
          "midi": 81,
          "name": "A5",
          "ticks": 120880,
          "time": 378.5263333666667,
          "velocity": 0.4251968503937008
        },
        {
          "duration": 0.25,
          "durationTicks": 80,
          "midi": 81,
          "name": "A5",
          "ticks": 120960,
          "time": 378.7763333666666,
          "velocity": 0.4251968503937008
        },
        {
          "duration": 0.25000000000005684,
          "durationTicks": 80,
          "midi": 79,
          "name": "G5",
          "ticks": 121040,
          "time": 379.0263333666666,
          "velocity": 0.4251968503937008
        },
        {
          "duration": 0.21249999999997726,
          "durationTicks": 68,
          "midi": 79,
          "name": "G5",
          "ticks": 121120,
          "time": 379.2763333666667,
          "velocity": 0.4251968503937008
        },
        {
          "duration": 0.2125000000000341,
          "durationTicks": 68,
          "midi": 79,
          "name": "G5",
          "ticks": 121200,
          "time": 379.5263333666666,
          "velocity": 0.4330708661417323
        },
        {
          "duration": 0.2125000000000341,
          "durationTicks": 68,
          "midi": 79,
          "name": "G5",
          "ticks": 121280,
          "time": 379.7763333666666,
          "velocity": 0.4330708661417323
        },
        {
          "duration": 0.21249999999997726,
          "durationTicks": 68,
          "midi": 79,
          "name": "G5",
          "ticks": 121360,
          "time": 380.0263333666667,
          "velocity": 0.4409448818897638
        },
        {
          "duration": 0.25,
          "durationTicks": 80,
          "midi": 79,
          "name": "G5",
          "ticks": 121440,
          "time": 380.2763333666666,
          "velocity": 0.4409448818897638
        },
        {
          "duration": 0.25000000000005684,
          "durationTicks": 80,
          "midi": 81,
          "name": "A5",
          "ticks": 121520,
          "time": 380.5263333666666,
          "velocity": 0.4409448818897638
        },
        {
          "duration": 0.24999999999994316,
          "durationTicks": 80,
          "midi": 79,
          "name": "G5",
          "ticks": 121600,
          "time": 380.7763333666667,
          "velocity": 0.4409448818897638
        },
        {
          "duration": 0.25,
          "durationTicks": 80,
          "midi": 77,
          "name": "F5",
          "ticks": 121680,
          "time": 381.0263333666666,
          "velocity": 0.44881889763779526
        },
        {
          "duration": 0.25000000000005684,
          "durationTicks": 80,
          "midi": 79,
          "name": "G5",
          "ticks": 121760,
          "time": 381.2763333666666,
          "velocity": 0.4566929133858268
        },
        {
          "duration": 0.24999999999994316,
          "durationTicks": 80,
          "midi": 77,
          "name": "F5",
          "ticks": 121840,
          "time": 381.5263333666667,
          "velocity": 0.4566929133858268
        },
        {
          "duration": 0.25,
          "durationTicks": 80,
          "midi": 77,
          "name": "F5",
          "ticks": 121920,
          "time": 381.7763333666666,
          "velocity": 0.4645669291338583
        },
        {
          "duration": 0.25000000000005684,
          "durationTicks": 80,
          "midi": 75,
          "name": "D#5",
          "ticks": 122000,
          "time": 382.0263333666666,
          "velocity": 0.47244094488188976
        },
        {
          "duration": 0.24999999999994316,
          "durationTicks": 80,
          "midi": 75,
          "name": "D#5",
          "ticks": 122080,
          "time": 382.2763333666667,
          "velocity": 0.47244094488188976
        },
        {
          "duration": 0.2125000000000341,
          "durationTicks": 68,
          "midi": 75,
          "name": "D#5",
          "ticks": 122160,
          "time": 382.5263333666666,
          "velocity": 0.47244094488188976
        },
        {
          "duration": 0.2125000000000341,
          "durationTicks": 68,
          "midi": 75,
          "name": "D#5",
          "ticks": 122240,
          "time": 382.7763333666666,
          "velocity": 0.48031496062992124
        },
        {
          "duration": 0.21249999999997726,
          "durationTicks": 68,
          "midi": 75,
          "name": "D#5",
          "ticks": 122320,
          "time": 383.0263333666667,
          "velocity": 0.48031496062992124
        },
        {
          "duration": 0.25,
          "durationTicks": 80,
          "midi": 75,
          "name": "D#5",
          "ticks": 122400,
          "time": 383.2763333666666,
          "velocity": 0.4881889763779528
        },
        {
          "duration": 0.25000000000005684,
          "durationTicks": 80,
          "midi": 77,
          "name": "F5",
          "ticks": 122480,
          "time": 383.5263333666666,
          "velocity": 0.4881889763779528
        },
        {
          "duration": 0.24999999999994316,
          "durationTicks": 80,
          "midi": 75,
          "name": "D#5",
          "ticks": 122560,
          "time": 383.7763333666667,
          "velocity": 0.4881889763779528
        },
        {
          "duration": 0.25,
          "durationTicks": 80,
          "midi": 74,
          "name": "D5",
          "ticks": 122640,
          "time": 384.0263333666666,
          "velocity": 0.49606299212598426
        },
        {
          "duration": 0.25000000000005684,
          "durationTicks": 80,
          "midi": 75,
          "name": "D#5",
          "ticks": 122720,
          "time": 384.2763333666666,
          "velocity": 0.49606299212598426
        },
        {
          "duration": 0.2249999999999659,
          "durationTicks": 72,
          "midi": 74,
          "name": "D5",
          "ticks": 122800,
          "time": 384.5263333666667,
          "velocity": 0.5039370078740157
        },
        {
          "duration": 0.25,
          "durationTicks": 80,
          "midi": 72,
          "name": "C5",
          "ticks": 122880,
          "time": 384.7763333666666,
          "velocity": 0.5039370078740157
        },
        {
          "duration": 0.25000000000005684,
          "durationTicks": 80,
          "midi": 74,
          "name": "D5",
          "ticks": 122960,
          "time": 385.0263333666666,
          "velocity": 0.5118110236220472
        },
        {
          "duration": 0.24999999999994316,
          "durationTicks": 80,
          "midi": 72,
          "name": "C5",
          "ticks": 123040,
          "time": 385.2763333666667,
          "velocity": 0.5196850393700787
        },
        {
          "duration": 0.25,
          "durationTicks": 80,
          "midi": 70,
          "name": "A#4",
          "ticks": 123120,
          "time": 385.5263333666666,
          "velocity": 0.5196850393700787
        },
        {
          "duration": 0.25000000000005684,
          "durationTicks": 80,
          "midi": 72,
          "name": "C5",
          "ticks": 123200,
          "time": 385.7763333666666,
          "velocity": 0.5275590551181102
        },
        {
          "duration": 0.2249999999999659,
          "durationTicks": 72,
          "midi": 70,
          "name": "A#4",
          "ticks": 123280,
          "time": 386.0263333666667,
          "velocity": 0.5275590551181102
        },
        {
          "duration": 0.25,
          "durationTicks": 80,
          "midi": 69,
          "name": "A4",
          "ticks": 123360,
          "time": 386.2763333666666,
          "velocity": 0.5354330708661418
        },
        {
          "duration": 0.25000000000005684,
          "durationTicks": 80,
          "midi": 70,
          "name": "A#4",
          "ticks": 123440,
          "time": 386.5263333666666,
          "velocity": 0.5354330708661418
        },
        {
          "duration": 0.24999999999994316,
          "durationTicks": 80,
          "midi": 69,
          "name": "A4",
          "ticks": 123520,
          "time": 386.7763333666667,
          "velocity": 0.5354330708661418
        },
        {
          "duration": 0.25,
          "durationTicks": 80,
          "midi": 67,
          "name": "G4",
          "ticks": 123600,
          "time": 387.0263333666666,
          "velocity": 0.5354330708661418
        },
        {
          "duration": 0.25000000000005684,
          "durationTicks": 80,
          "midi": 69,
          "name": "A4",
          "ticks": 123680,
          "time": 387.2763333666666,
          "velocity": 0.5433070866141733
        },
        {
          "duration": 0.24999999999994316,
          "durationTicks": 80,
          "midi": 67,
          "name": "G4",
          "ticks": 123760,
          "time": 387.5263333666667,
          "velocity": 0.5511811023622047
        },
        {
          "duration": 0.25,
          "durationTicks": 80,
          "midi": 65,
          "name": "F4",
          "ticks": 123840,
          "time": 387.7763333666666,
          "velocity": 0.3858267716535433
        },
        {
          "duration": 0.1875,
          "durationTicks": 60,
          "midi": 77,
          "name": "F5",
          "ticks": 123920,
          "time": 388.0263333666666,
          "velocity": 0.3858267716535433
        },
        {
          "duration": 0.1875,
          "durationTicks": 60,
          "midi": 77,
          "name": "F5",
          "ticks": 124000,
          "time": 388.2763333666667,
          "velocity": 0.3858267716535433
        },
        {
          "duration": 0.1875,
          "durationTicks": 60,
          "midi": 77,
          "name": "F5",
          "ticks": 124080,
          "time": 388.5263333666666,
          "velocity": 0.3858267716535433
        },
        {
          "duration": 0.1875,
          "durationTicks": 60,
          "midi": 77,
          "name": "F5",
          "ticks": 124160,
          "time": 388.7763333666666,
          "velocity": 0.3858267716535433
        },
        {
          "duration": 0.1875,
          "durationTicks": 60,
          "midi": 77,
          "name": "F5",
          "ticks": 124240,
          "time": 389.0263333666667,
          "velocity": 0.3858267716535433
        },
        {
          "duration": 0.1875,
          "durationTicks": 60,
          "midi": 77,
          "name": "F5",
          "ticks": 124320,
          "time": 389.2763333666666,
          "velocity": 0.3858267716535433
        },
        {
          "duration": 0.1875,
          "durationTicks": 60,
          "midi": 77,
          "name": "F5",
          "ticks": 124400,
          "time": 389.5263333666666,
          "velocity": 0.3858267716535433
        },
        {
          "duration": 0.1875,
          "durationTicks": 60,
          "midi": 77,
          "name": "F5",
          "ticks": 124480,
          "time": 389.7763333666667,
          "velocity": 0.3858267716535433
        },
        {
          "duration": 0.1875,
          "durationTicks": 60,
          "midi": 77,
          "name": "F5",
          "ticks": 124560,
          "time": 390.0263333666666,
          "velocity": 0.3858267716535433
        },
        {
          "duration": 0.1875,
          "durationTicks": 60,
          "midi": 77,
          "name": "F5",
          "ticks": 124640,
          "time": 390.2763333666666,
          "velocity": 0.3858267716535433
        },
        {
          "duration": 0.1875,
          "durationTicks": 60,
          "midi": 77,
          "name": "F5",
          "ticks": 124720,
          "time": 390.5263333666667,
          "velocity": 0.3858267716535433
        },
        {
          "duration": 0.1875,
          "durationTicks": 60,
          "midi": 77,
          "name": "F5",
          "ticks": 124800,
          "time": 390.7763333666666,
          "velocity": 0.3858267716535433
        },
        {
          "duration": 0.1875,
          "durationTicks": 60,
          "midi": 77,
          "name": "F5",
          "ticks": 124880,
          "time": 391.0263333666666,
          "velocity": 0.3858267716535433
        },
        {
          "duration": 0.1875,
          "durationTicks": 60,
          "midi": 77,
          "name": "F5",
          "ticks": 124960,
          "time": 391.2763333666667,
          "velocity": 0.3858267716535433
        },
        {
          "duration": 0.1875,
          "durationTicks": 60,
          "midi": 77,
          "name": "F5",
          "ticks": 125040,
          "time": 391.5263333666666,
          "velocity": 0.3858267716535433
        },
        {
          "duration": 0.1875,
          "durationTicks": 60,
          "midi": 77,
          "name": "F5",
          "ticks": 125120,
          "time": 391.7763333666666,
          "velocity": 0.3858267716535433
        },
        {
          "duration": 0.1875,
          "durationTicks": 60,
          "midi": 77,
          "name": "F5",
          "ticks": 125200,
          "time": 392.0263333666667,
          "velocity": 0.3858267716535433
        },
        {
          "duration": 0.75,
          "durationTicks": 240,
          "midi": 77,
          "name": "F5",
          "ticks": 125280,
          "time": 392.2763333666666,
          "velocity": 0.3858267716535433
        },
        {
          "duration": 0.1875,
          "durationTicks": 60,
          "midi": 89,
          "name": "F6",
          "ticks": 126800,
          "time": 397.0263333666666,
          "velocity": 0.3700787401574803
        },
        {
          "duration": 0.1875,
          "durationTicks": 60,
          "midi": 89,
          "name": "F6",
          "ticks": 126880,
          "time": 397.2763333666667,
          "velocity": 0.3700787401574803
        },
        {
          "duration": 0.1875,
          "durationTicks": 60,
          "midi": 89,
          "name": "F6",
          "ticks": 126960,
          "time": 397.5263333666666,
          "velocity": 0.3700787401574803
        },
        {
          "duration": 0.1875,
          "durationTicks": 60,
          "midi": 89,
          "name": "F6",
          "ticks": 127040,
          "time": 397.7763333666666,
          "velocity": 0.3700787401574803
        },
        {
          "duration": 0.1875,
          "durationTicks": 60,
          "midi": 89,
          "name": "F6",
          "ticks": 127120,
          "time": 398.0263333666667,
          "velocity": 0.3700787401574803
        },
        {
          "duration": 0.1875,
          "durationTicks": 60,
          "midi": 89,
          "name": "F6",
          "ticks": 127200,
          "time": 398.2763333666666,
          "velocity": 0.3700787401574803
        },
        {
          "duration": 0.1875,
          "durationTicks": 60,
          "midi": 89,
          "name": "F6",
          "ticks": 127280,
          "time": 398.5263333666666,
          "velocity": 0.3700787401574803
        },
        {
          "duration": 0.1875,
          "durationTicks": 60,
          "midi": 89,
          "name": "F6",
          "ticks": 127360,
          "time": 398.7763333666667,
          "velocity": 0.3700787401574803
        },
        {
          "duration": 0.1875,
          "durationTicks": 60,
          "midi": 89,
          "name": "F6",
          "ticks": 127440,
          "time": 399.0263333666666,
          "velocity": 0.3700787401574803
        },
        {
          "duration": 0.1875,
          "durationTicks": 60,
          "midi": 89,
          "name": "F6",
          "ticks": 127520,
          "time": 399.2763333666666,
          "velocity": 0.3700787401574803
        },
        {
          "duration": 0.1875,
          "durationTicks": 60,
          "midi": 89,
          "name": "F6",
          "ticks": 127600,
          "time": 399.5263333666667,
          "velocity": 0.3700787401574803
        },
        {
          "duration": 0.1875,
          "durationTicks": 60,
          "midi": 89,
          "name": "F6",
          "ticks": 127680,
          "time": 399.7763333666666,
          "velocity": 0.3700787401574803
        },
        {
          "duration": 0.1875,
          "durationTicks": 60,
          "midi": 89,
          "name": "F6",
          "ticks": 127760,
          "time": 400.0263333666666,
          "velocity": 0.3700787401574803
        },
        {
          "duration": 0.1875,
          "durationTicks": 60,
          "midi": 89,
          "name": "F6",
          "ticks": 127840,
          "time": 400.2763333666667,
          "velocity": 0.3700787401574803
        },
        {
          "duration": 0.1875,
          "durationTicks": 60,
          "midi": 89,
          "name": "F6",
          "ticks": 127920,
          "time": 400.5263333666666,
          "velocity": 0.3700787401574803
        },
        {
          "duration": 0.1875,
          "durationTicks": 60,
          "midi": 89,
          "name": "F6",
          "ticks": 128000,
          "time": 400.7763333666666,
          "velocity": 0.3700787401574803
        },
        {
          "duration": 0.1875,
          "durationTicks": 60,
          "midi": 89,
          "name": "F6",
          "ticks": 128080,
          "time": 401.0263333666667,
          "velocity": 0.3700787401574803
        },
        {
          "duration": 0.75,
          "durationTicks": 240,
          "midi": 89,
          "name": "F6",
          "ticks": 128160,
          "time": 401.2763333666666,
          "velocity": 0.3700787401574803
        },
        {
          "duration": 1.7499999999999432,
          "durationTicks": 560,
          "midi": 72,
          "name": "C5",
          "ticks": 129600,
          "time": 405.7763333666667,
          "velocity": 0.4251968503937008
        },
        {
          "duration": 0.16250000000002274,
          "durationTicks": 52,
          "midi": 81,
          "name": "A5",
          "ticks": 130160,
          "time": 407.5263333666666,
          "velocity": 0.4251968503937008
        },
        {
          "duration": 0.1624999999999659,
          "durationTicks": 52,
          "midi": 79,
          "name": "G5",
          "ticks": 130240,
          "time": 407.7763333666667,
          "velocity": 0.4251968503937008
        },
        {
          "duration": 0.1644736749999538,
          "durationTicks": 52,
          "midi": 77,
          "name": "F5",
          "ticks": 130320,
          "time": 408.0263333666667,
          "velocity": 0.4251968503937008
        },
        {
          "duration": 0.171052591666637,
          "durationTicks": 52,
          "midi": 76,
          "name": "E5",
          "ticks": 130400,
          "time": 408.2829122833333,
          "velocity": 0.4251968503937008
        },
        {
          "duration": 0.17105259166669384,
          "durationTicks": 52,
          "midi": 74,
          "name": "D5",
          "ticks": 130480,
          "time": 408.5460701166666,
          "velocity": 0.4251968503937008
        },
        {
          "duration": 0.2667140833332837,
          "durationTicks": 80,
          "midi": 72,
          "name": "C5",
          "ticks": 130560,
          "time": 408.80922795,
          "velocity": 0.4251968503937008
        },
        {
          "duration": 0.27027033333331474,
          "durationTicks": 80,
          "midi": 71,
          "name": "B4",
          "ticks": 130640,
          "time": 409.07594203333326,
          "velocity": 0.4251968503937008
        },
        {
          "duration": 0.2702703333333716,
          "durationTicks": 80,
          "midi": 70,
          "name": "A#4",
          "ticks": 130720,
          "time": 409.3462123666666,
          "velocity": 0.4251968503937008
        },
        {
          "duration": 0.28571433333331697,
          "durationTicks": 80,
          "midi": 69,
          "name": "A4",
          "ticks": 130800,
          "time": 409.61648269999995,
          "velocity": 0.4251968503937008
        },
        {
          "duration": 0.2857143333333738,
          "durationTicks": 80,
          "midi": 70,
          "name": "A#4",
          "ticks": 130880,
          "time": 409.90219703333327,
          "velocity": 0.4251968503937008
        },
        {
          "duration": 0.28571433333331697,
          "durationTicks": 80,
          "midi": 67,
          "name": "G4",
          "ticks": 130960,
          "time": 410.18791136666664,
          "velocity": 0.4251968503937008
        },
        {
          "duration": 1.1895472833333542,
          "durationTicks": 360,
          "midi": 65,
          "name": "F4",
          "ticks": 131040,
          "time": 410.47362569999996,
          "velocity": 0.4330708661417323
        },
        {
          "duration": 0.3658537499999852,
          "durationTicks": 120,
          "midi": 60,
          "name": "C4",
          "ticks": 131400,
          "time": 411.6631729833333,
          "velocity": 0.4330708661417323
        },
        {
          "duration": 2.56097625000001,
          "durationTicks": 840,
          "midi": 69,
          "name": "A4",
          "ticks": 131520,
          "time": 412.0290267333333,
          "velocity": 0.4330708661417323
        },
        {
          "duration": 0.18292687500002103,
          "durationTicks": 60,
          "midi": 67,
          "name": "G4",
          "ticks": 132360,
          "time": 414.5900029833333,
          "velocity": 0.4330708661417323
        },
        {
          "duration": 0.18292687499996418,
          "durationTicks": 60,
          "midi": 65,
          "name": "F4",
          "ticks": 132420,
          "time": 414.7729298583333,
          "velocity": 0.4330708661417323
        },
        {
          "duration": 0.7317075000000273,
          "durationTicks": 240,
          "midi": 64,
          "name": "E4",
          "ticks": 132480,
          "time": 414.9558567333333,
          "velocity": 0.4330708661417323
        },
        {
          "duration": 0.4878050000000371,
          "durationTicks": 160,
          "midi": 70,
          "name": "A#4",
          "ticks": 132960,
          "time": 416.4192717333333,
          "velocity": 0.49606299212598426
        },
        {
          "duration": 0.18292687499996418,
          "durationTicks": 60,
          "midi": 64,
          "name": "E4",
          "ticks": 133860,
          "time": 419.1631748583333,
          "velocity": 0.4330708661417323
        },
        {
          "duration": 0.7317075000000273,
          "durationTicks": 240,
          "midi": 65,
          "name": "F4",
          "ticks": 133920,
          "time": 419.3461017333333,
          "velocity": 0.4330708661417323
        },
        {
          "duration": 0.4878050000000371,
          "durationTicks": 160,
          "midi": 72,
          "name": "C5",
          "ticks": 134400,
          "time": 420.8095167333333,
          "velocity": 0.4566929133858268
        },
        {
          "duration": 1.6463418750000187,
          "durationTicks": 540,
          "midi": 74,
          "name": "D5",
          "ticks": 135360,
          "time": 423.7363467333333,
          "velocity": 0.4566929133858268
        },
        {
          "duration": 0.18292687500002103,
          "durationTicks": 60,
          "midi": 76,
          "name": "E5",
          "ticks": 135900,
          "time": 425.3826886083333,
          "velocity": 0.4566929133858268
        },
        {
          "duration": 0.18292687499996418,
          "durationTicks": 60,
          "midi": 74,
          "name": "D5",
          "ticks": 135960,
          "time": 425.5656154833333,
          "velocity": 0.4566929133858268
        },
        {
          "duration": 0.18292687500002103,
          "durationTicks": 60,
          "midi": 73,
          "name": "C#5",
          "ticks": 136020,
          "time": 425.7485423583333,
          "velocity": 0.4566929133858268
        },
        {
          "duration": 0.3658537499999852,
          "durationTicks": 120,
          "midi": 74,
          "name": "D5",
          "ticks": 136080,
          "time": 425.9314692333333,
          "velocity": 0.4566929133858268
        },
        {
          "duration": 0.3658537499999852,
          "durationTicks": 120,
          "midi": 76,
          "name": "E5",
          "ticks": 136200,
          "time": 426.2973229833333,
          "velocity": 0.4566929133858268
        },
        {
          "duration": 0.36585375000004206,
          "durationTicks": 120,
          "midi": 79,
          "name": "G5",
          "ticks": 136320,
          "time": 426.6631767333333,
          "velocity": 0.4566929133858268
        },
        {
          "duration": 0.3658537499999852,
          "durationTicks": 120,
          "midi": 77,
          "name": "F5",
          "ticks": 136440,
          "time": 427.0290304833333,
          "velocity": 0.4566929133858268
        },
        {
          "duration": 0.3658537499999852,
          "durationTicks": 120,
          "midi": 76,
          "name": "E5",
          "ticks": 136560,
          "time": 427.3948842333333,
          "velocity": 0.4566929133858268
        },
        {
          "duration": 0.3658537499999852,
          "durationTicks": 120,
          "midi": 74,
          "name": "D5",
          "ticks": 136680,
          "time": 427.7607379833333,
          "velocity": 0.4566929133858268
        },
        {
          "duration": 1.0975612500000125,
          "durationTicks": 360,
          "midi": 74,
          "name": "D5",
          "ticks": 136800,
          "time": 428.12659173333327,
          "velocity": 0.4566929133858268
        },
        {
          "duration": 0.3170732500000213,
          "durationTicks": 104,
          "midi": 72,
          "name": "C5",
          "ticks": 137160,
          "time": 429.2241529833333,
          "velocity": 0.4566929133858268
        },
        {
          "duration": 1.7926833749999673,
          "durationTicks": 588,
          "midi": 72,
          "name": "C5",
          "ticks": 137280,
          "time": 429.5900067333333,
          "velocity": 0.4566929133858268
        },
        {
          "duration": 0.3658537499999852,
          "durationTicks": 120,
          "midi": 73,
          "name": "C#5",
          "ticks": 137880,
          "time": 431.4192754833333,
          "velocity": 0.4566929133858268
        },
        {
          "duration": 0.3658537499999852,
          "durationTicks": 120,
          "midi": 74,
          "name": "D5",
          "ticks": 138000,
          "time": 431.7851292333333,
          "velocity": 0.4566929133858268
        },
        {
          "duration": 0.3658537499999852,
          "durationTicks": 120,
          "midi": 70,
          "name": "A#4",
          "ticks": 138120,
          "time": 432.1509829833333,
          "velocity": 0.4566929133858268
        },
        {
          "duration": 1.8374999999999773,
          "durationTicks": 588,
          "midi": 69,
          "name": "A4",
          "ticks": 138240,
          "time": 432.51683673333326,
          "velocity": 0.3858267716535433
        },
        {
          "duration": 0.1875,
          "durationTicks": 60,
          "midi": 70,
          "name": "A#4",
          "ticks": 138840,
          "time": 434.39183673333326,
          "velocity": 0.3858267716535433
        },
        {
          "duration": 0.1875,
          "durationTicks": 60,
          "midi": 69,
          "name": "A4",
          "ticks": 138900,
          "time": 434.57933673333326,
          "velocity": 0.3858267716535433
        },
        {
          "duration": 0.1875,
          "durationTicks": 60,
          "midi": 68,
          "name": "G#4",
          "ticks": 138960,
          "time": 434.76683673333326,
          "velocity": 0.3858267716535433
        },
        {
          "duration": 0.1875,
          "durationTicks": 60,
          "midi": 69,
          "name": "A4",
          "ticks": 139020,
          "time": 434.95433673333326,
          "velocity": 0.3858267716535433
        },
        {
          "duration": 0.1875,
          "durationTicks": 60,
          "midi": 68,
          "name": "G#4",
          "ticks": 139080,
          "time": 435.14183673333326,
          "velocity": 0.3858267716535433
        },
        {
          "duration": 0.1875,
          "durationTicks": 60,
          "midi": 69,
          "name": "A4",
          "ticks": 139140,
          "time": 435.32933673333326,
          "velocity": 0.3858267716535433
        },
        {
          "duration": 0.375,
          "durationTicks": 120,
          "midi": 72,
          "name": "C5",
          "ticks": 139200,
          "time": 435.51683673333326,
          "velocity": 0.3858267716535433
        },
        {
          "duration": 0.375,
          "durationTicks": 120,
          "midi": 70,
          "name": "A#4",
          "ticks": 139320,
          "time": 435.89183673333326,
          "velocity": 0.3858267716535433
        },
        {
          "duration": 0.375,
          "durationTicks": 120,
          "midi": 69,
          "name": "A4",
          "ticks": 139440,
          "time": 436.26683673333326,
          "velocity": 0.3858267716535433
        },
        {
          "duration": 0.375,
          "durationTicks": 120,
          "midi": 67,
          "name": "G4",
          "ticks": 139560,
          "time": 436.64183673333326,
          "velocity": 0.3858267716535433
        },
        {
          "duration": 0.5625,
          "durationTicks": 180,
          "midi": 72,
          "name": "C5",
          "ticks": 139680,
          "time": 437.01683673333326,
          "velocity": 0.3858267716535433
        },
        {
          "duration": 0.1875,
          "durationTicks": 60,
          "midi": 69,
          "name": "A4",
          "ticks": 139860,
          "time": 437.57933673333326,
          "velocity": 0.3779527559055118
        },
        {
          "duration": 1.5,
          "durationTicks": 480,
          "midi": 65,
          "name": "F4",
          "ticks": 139920,
          "time": 437.76683673333326,
          "velocity": 0.3700787401574803
        },
        {
          "duration": 0.37756413333335104,
          "durationTicks": 120,
          "midi": 67,
          "name": "G4",
          "ticks": 140400,
          "time": 439.26683673333326,
          "velocity": 0.3543307086614173
        },
        {
          "duration": 0.33333343333333687,
          "durationTicks": 104,
          "midi": 69,
          "name": "A4",
          "ticks": 140520,
          "time": 439.6444008666666,
          "velocity": 0.3543307086614173
        },
        {
          "duration": 0.3873874999999316,
          "durationTicks": 120,
          "midi": 69,
          "name": "A4",
          "ticks": 140640,
          "time": 440.0290163666666,
          "velocity": 0.3464566929133858
        },
        {
          "duration": 0.40540550000002895,
          "durationTicks": 120,
          "midi": 67,
          "name": "G4",
          "ticks": 140760,
          "time": 440.41640386666654,
          "velocity": 0.33858267716535434
        },
        {
          "duration": 0.41141150000004245,
          "durationTicks": 120,
          "midi": 65,
          "name": "F4",
          "ticks": 140880,
          "time": 440.82180936666657,
          "velocity": 0.33858267716535434
        },
        {
          "duration": 0.4166667499999903,
          "durationTicks": 120,
          "midi": 64,
          "name": "E4",
          "ticks": 141000,
          "time": 441.2332208666666,
          "velocity": 0.33858267716535434
        },
        {
          "duration": 0.75,
          "durationTicks": 240,
          "midi": 65,
          "name": "F4",
          "ticks": 141120,
          "time": 441.6498876166666,
          "velocity": 0.3228346456692913
        },
        {
          "duration": 0.26386908333336123,
          "durationTicks": 80,
          "midi": 64,
          "name": "E4",
          "ticks": 142160,
          "time": 444.9117296666666,
          "velocity": 0.4566929133858268
        },
        {
          "duration": 0.27027033333331474,
          "durationTicks": 80,
          "midi": 67,
          "name": "G4",
          "ticks": 142240,
          "time": 445.17559874999995,
          "velocity": 0.4566929133858268
        },
        {
          "duration": 0.27027033333331474,
          "durationTicks": 80,
          "midi": 70,
          "name": "A#4",
          "ticks": 142320,
          "time": 445.44586908333326,
          "velocity": 0.4566929133858268
        },
        {
          "duration": 0.27027033333331474,
          "durationTicks": 80,
          "midi": 67,
          "name": "G4",
          "ticks": 142400,
          "time": 445.7161394166666,
          "velocity": 0.4566929133858268
        },
        {
          "duration": 0.25,
          "durationTicks": 80,
          "midi": 64,
          "name": "E4",
          "ticks": 142480,
          "time": 445.9864097499999,
          "velocity": 0.4566929133858268
        },
        {
          "duration": 0.75,
          "durationTicks": 240,
          "midi": 65,
          "name": "F4",
          "ticks": 142560,
          "time": 446.2364097499999,
          "velocity": 0.4566929133858268
        },
        {
          "duration": 0.26315783333330955,
          "durationTicks": 80,
          "midi": 67,
          "name": "G4",
          "ticks": 143600,
          "time": 449.51272541666657,
          "velocity": 0.4566929133858268
        },
        {
          "duration": 0.28571433333331697,
          "durationTicks": 80,
          "midi": 70,
          "name": "A#4",
          "ticks": 143680,
          "time": 449.7758832499999,
          "velocity": 0.4566929133858268
        },
        {
          "duration": 0.2857143333333738,
          "durationTicks": 80,
          "midi": 74,
          "name": "D5",
          "ticks": 143760,
          "time": 450.0615975833332,
          "velocity": 0.4330708661417323
        },
        {
          "duration": 0.28571433333331697,
          "durationTicks": 80,
          "midi": 72,
          "name": "C5",
          "ticks": 143840,
          "time": 450.34731191666657,
          "velocity": 0.4251968503937008
        },
        {
          "duration": 0.28571433333331697,
          "durationTicks": 80,
          "midi": 64,
          "name": "E4",
          "ticks": 143920,
          "time": 450.6330262499999,
          "velocity": 0.4015748031496063
        },
        {
          "duration": 2.0508927666666636,
          "durationTicks": 480,
          "midi": 67,
          "name": "G4",
          "ticks": 144000,
          "time": 450.9187405833332,
          "velocity": 0.4015748031496063
        },
        {
          "duration": 1.0714285000000245,
          "durationTicks": 240,
          "midi": 65,
          "name": "F4",
          "ticks": 144480,
          "time": 452.96963334999987,
          "velocity": 0.3937007874015748
        },
        {
          "duration": 2.1428569999999922,
          "durationTicks": 480,
          "midi": 65,
          "name": "F4",
          "ticks": 145920,
          "time": 459.3982043499999,
          "velocity": 0.007874015748031496
        }
      ]
    },
    {
      "channel": 0,
      "controlChanges": {},
      "pitchBends": [],
      "instrument": {
        "family": "piano",
        "number": 0,
        "name": "acoustic grand piano"
      },
      "name": "Violini II.",
      "notes": [],
      "endOfTrackTicks": 145440
    },
    {
      "channel": 5,
      "controlChanges": {
        "7": [
          {
            "number": 7,
            "ticks": 0,
            "time": 0,
            "value": 0.8267716535433071
          }
        ],
        "10": [
          {
            "number": 10,
            "ticks": 0,
            "time": 0,
            "value": 0.3464566929133858
          }
        ]
      },
      "pitchBends": [],
      "instrument": {
        "family": "ensemble",
        "number": 48,
        "name": "string ensemble 1"
      },
      "name": "",
      "notes": [
        {
          "duration": 1.5,
          "durationTicks": 480,
          "midi": 57,
          "name": "A3",
          "ticks": 960,
          "time": 3,
          "velocity": 0.4251968503937008
        },
        {
          "duration": 0.75,
          "durationTicks": 240,
          "midi": 58,
          "name": "A#3",
          "ticks": 1440,
          "time": 4.5,
          "velocity": 0.4251968503937008
        },
        {
          "duration": 0.5,
          "durationTicks": 160,
          "midi": 55,
          "name": "G3",
          "ticks": 1920,
          "time": 6,
          "velocity": 0.4566929133858268
        },
        {
          "duration": 0.5,
          "durationTicks": 160,
          "midi": 64,
          "name": "E4",
          "ticks": 1920,
          "time": 6,
          "velocity": 0.4645669291338583
        },
        {
          "duration": 1.5,
          "durationTicks": 480,
          "midi": 64,
          "name": "E4",
          "ticks": 3840,
          "time": 12,
          "velocity": 0.41732283464566927
        },
        {
          "duration": 0.75,
          "durationTicks": 240,
          "midi": 65,
          "name": "F4",
          "ticks": 4320,
          "time": 13.5,
          "velocity": 0.41732283464566927
        },
        {
          "duration": 0.5,
          "durationTicks": 160,
          "midi": 57,
          "name": "A3",
          "ticks": 4800,
          "time": 15,
          "velocity": 0.4566929133858268
        },
        {
          "duration": 0.5,
          "durationTicks": 160,
          "midi": 65,
          "name": "F4",
          "ticks": 4800,
          "time": 15,
          "velocity": 0.4409448818897638
        },
        {
          "duration": 1.125,
          "durationTicks": 360,
          "midi": 65,
          "name": "F4",
          "ticks": 5760,
          "time": 18,
          "velocity": 0.4409448818897638
        },
        {
          "duration": 0.375,
          "durationTicks": 120,
          "midi": 60,
          "name": "C4",
          "ticks": 6120,
          "time": 19.125,
          "velocity": 0.4409448818897638
        },
        {
          "duration": 1.125,
          "durationTicks": 360,
          "midi": 69,
          "name": "A4",
          "ticks": 6240,
          "time": 19.5,
          "velocity": 0.4409448818897638
        },
        {
          "duration": 0.125,
          "durationTicks": 40,
          "midi": 67,
          "name": "G4",
          "ticks": 6600,
          "time": 20.625,
          "velocity": 0.4409448818897638
        },
        {
          "duration": 0.125,
          "durationTicks": 40,
          "midi": 65,
          "name": "F4",
          "ticks": 6640,
          "time": 20.75,
          "velocity": 0.4409448818897638
        },
        {
          "duration": 0.125,
          "durationTicks": 40,
          "midi": 64,
          "name": "E4",
          "ticks": 6680,
          "time": 20.875,
          "velocity": 0.4409448818897638
        },
        {
          "duration": 0.375,
          "durationTicks": 120,
          "midi": 67,
          "name": "G4",
          "ticks": 6720,
          "time": 21,
          "velocity": 0.4409448818897638
        },
        {
          "duration": 0.375,
          "durationTicks": 120,
          "midi": 65,
          "name": "F4",
          "ticks": 6840,
          "time": 21.375,
          "velocity": 0.4409448818897638
        },
        {
          "duration": 0.375,
          "durationTicks": 120,
          "midi": 64,
          "name": "E4",
          "ticks": 6960,
          "time": 21.75,
          "velocity": 0.4409448818897638
        },
        {
          "duration": 0.375,
          "durationTicks": 120,
          "midi": 62,
          "name": "D4",
          "ticks": 7080,
          "time": 22.125,
          "velocity": 0.4409448818897638
        },
        {
          "duration": 0.75,
          "durationTicks": 240,
          "midi": 60,
          "name": "C4",
          "ticks": 7200,
          "time": 22.5,
          "velocity": 0.4409448818897638
        },
        {
          "duration": 0.75,
          "durationTicks": 240,
          "midi": 59,
          "name": "B3",
          "ticks": 7440,
          "time": 23.25,
          "velocity": 0.4409448818897638
        },
        {
          "duration": 1.5,
          "durationTicks": 480,
          "midi": 58,
          "name": "A#3",
          "ticks": 7680,
          "time": 24,
          "velocity": 0.4409448818897638
        },
        {
          "duration": 1.5,
          "durationTicks": 480,
          "midi": 57,
          "name": "A3",
          "ticks": 8160,
          "time": 25.5,
          "velocity": 0.4409448818897638
        },
        {
          "duration": 0.375,
          "durationTicks": 120,
          "midi": 62,
          "name": "D4",
          "ticks": 8640,
          "time": 27,
          "velocity": 0.5118110236220472
        },
        {
          "duration": 0.375,
          "durationTicks": 120,
          "midi": 65,
          "name": "F4",
          "ticks": 8760,
          "time": 27.375,
          "velocity": 0.5118110236220472
        },
        {
          "duration": 0.1875,
          "durationTicks": 60,
          "midi": 65,
          "name": "F4",
          "ticks": 8880,
          "time": 27.75,
          "velocity": 0.5118110236220472
        },
        {
          "duration": 0.1875,
          "durationTicks": 60,
          "midi": 65,
          "name": "F4",
          "ticks": 9000,
          "time": 28.125,
          "velocity": 0.5118110236220472
        },
        {
          "duration": 0.375,
          "durationTicks": 120,
          "midi": 62,
          "name": "D4",
          "ticks": 9120,
          "time": 28.5,
          "velocity": 0.5118110236220472
        },
        {
          "duration": 0.375,
          "durationTicks": 120,
          "midi": 65,
          "name": "F4",
          "ticks": 9240,
          "time": 28.875,
          "velocity": 0.5039370078740157
        },
        {
          "duration": 0.1875,
          "durationTicks": 60,
          "midi": 65,
          "name": "F4",
          "ticks": 9360,
          "time": 29.25,
          "velocity": 0.5039370078740157
        },
        {
          "duration": 0.1875,
          "durationTicks": 60,
          "midi": 65,
          "name": "F4",
          "ticks": 9480,
          "time": 29.625,
          "velocity": 0.5039370078740157
        },
        {
          "duration": 0.375,
          "durationTicks": 120,
          "midi": 62,
          "name": "D4",
          "ticks": 9600,
          "time": 30,
          "velocity": 0.5039370078740157
        },
        {
          "duration": 0.375,
          "durationTicks": 120,
          "midi": 65,
          "name": "F4",
          "ticks": 9720,
          "time": 30.375,
          "velocity": 0.5039370078740157
        },
        {
          "duration": 0.1875,
          "durationTicks": 60,
          "midi": 65,
          "name": "F4",
          "ticks": 9840,
          "time": 30.75,
          "velocity": 0.49606299212598426
        },
        {
          "duration": 0.1875,
          "durationTicks": 60,
          "midi": 65,
          "name": "F4",
          "ticks": 9960,
          "time": 31.125,
          "velocity": 0.49606299212598426
        },
        {
          "duration": 0.375,
          "durationTicks": 120,
          "midi": 57,
          "name": "A3",
          "ticks": 10080,
          "time": 31.5,
          "velocity": 0.49606299212598426
        },
        {
          "duration": 0.375,
          "durationTicks": 120,
          "midi": 65,
          "name": "F4",
          "ticks": 10200,
          "time": 31.875,
          "velocity": 0.49606299212598426
        },
        {
          "duration": 0.1875,
          "durationTicks": 60,
          "midi": 65,
          "name": "F4",
          "ticks": 10320,
          "time": 32.25,
          "velocity": 0.49606299212598426
        },
        {
          "duration": 0.1875,
          "durationTicks": 60,
          "midi": 65,
          "name": "F4",
          "ticks": 10440,
          "time": 32.625,
          "velocity": 0.49606299212598426
        },
        {
          "duration": 0.375,
          "durationTicks": 120,
          "midi": 57,
          "name": "A3",
          "ticks": 10560,
          "time": 33,
          "velocity": 0.49606299212598426
        },
        {
          "duration": 0.375,
          "durationTicks": 120,
          "midi": 65,
          "name": "F4",
          "ticks": 10680,
          "time": 33.375,
          "velocity": 0.49606299212598426
        },
        {
          "duration": 0.1875,
          "durationTicks": 60,
          "midi": 65,
          "name": "F4",
          "ticks": 10800,
          "time": 33.75,
          "velocity": 0.49606299212598426
        },
        {
          "duration": 0.1875,
          "durationTicks": 60,
          "midi": 65,
          "name": "F4",
          "ticks": 10920,
          "time": 34.125,
          "velocity": 0.49606299212598426
        },
        {
          "duration": 0.375,
          "durationTicks": 120,
          "midi": 55,
          "name": "G3",
          "ticks": 11040,
          "time": 34.5,
          "velocity": 0.4881889763779528
        },
        {
          "duration": 0.375,
          "durationTicks": 120,
          "midi": 64,
          "name": "E4",
          "ticks": 11160,
          "time": 34.875,
          "velocity": 0.4881889763779528
        },
        {
          "duration": 0.1875,
          "durationTicks": 60,
          "midi": 64,
          "name": "E4",
          "ticks": 11280,
          "time": 35.25,
          "velocity": 0.4881889763779528
        },
        {
          "duration": 0.1875,
          "durationTicks": 60,
          "midi": 64,
          "name": "E4",
          "ticks": 11400,
          "time": 35.625,
          "velocity": 0.4881889763779528
        },
        {
          "duration": 0.375,
          "durationTicks": 120,
          "midi": 57,
          "name": "A3",
          "ticks": 11520,
          "time": 36,
          "velocity": 0.4251968503937008
        },
        {
          "duration": 0.375,
          "durationTicks": 120,
          "midi": 67,
          "name": "G4",
          "ticks": 11640,
          "time": 36.375,
          "velocity": 0.4251968503937008
        },
        {
          "duration": 0.1875,
          "durationTicks": 60,
          "midi": 67,
          "name": "G4",
          "ticks": 11760,
          "time": 36.75,
          "velocity": 0.4251968503937008
        },
        {
          "duration": 0.1875,
          "durationTicks": 60,
          "midi": 67,
          "name": "G4",
          "ticks": 11880,
          "time": 37.125,
          "velocity": 0.4251968503937008
        },
        {
          "duration": 0.375,
          "durationTicks": 120,
          "midi": 57,
          "name": "A3",
          "ticks": 12000,
          "time": 37.5,
          "velocity": 0.4251968503937008
        },
        {
          "duration": 0.375,
          "durationTicks": 120,
          "midi": 65,
          "name": "F4",
          "ticks": 12120,
          "time": 37.875,
          "velocity": 0.4251968503937008
        },
        {
          "duration": 0.1875,
          "durationTicks": 60,
          "midi": 65,
          "name": "F4",
          "ticks": 12240,
          "time": 38.25,
          "velocity": 0.4251968503937008
        },
        {
          "duration": 0.1875,
          "durationTicks": 60,
          "midi": 65,
          "name": "F4",
          "ticks": 12360,
          "time": 38.625,
          "velocity": 0.4251968503937008
        },
        {
          "duration": 0.375,
          "durationTicks": 120,
          "midi": 55,
          "name": "G3",
          "ticks": 12480,
          "time": 39,
          "velocity": 0.4251968503937008
        },
        {
          "duration": 0.375,
          "durationTicks": 120,
          "midi": 62,
          "name": "D4",
          "ticks": 12600,
          "time": 39.375,
          "velocity": 0.4251968503937008
        },
        {
          "duration": 0.1875,
          "durationTicks": 60,
          "midi": 62,
          "name": "D4",
          "ticks": 12720,
          "time": 39.75,
          "velocity": 0.4251968503937008
        },
        {
          "duration": 0.1875,
          "durationTicks": 60,
          "midi": 62,
          "name": "D4",
          "ticks": 12840,
          "time": 40.125,
          "velocity": 0.4251968503937008
        },
        {
          "duration": 0.375,
          "durationTicks": 120,
          "midi": 57,
          "name": "A3",
          "ticks": 12960,
          "time": 40.5,
          "velocity": 0.4251968503937008
        },
        {
          "duration": 0.375,
          "durationTicks": 120,
          "midi": 60,
          "name": "C4",
          "ticks": 13080,
          "time": 40.875,
          "velocity": 0.4251968503937008
        },
        {
          "duration": 0.1875,
          "durationTicks": 60,
          "midi": 60,
          "name": "C4",
          "ticks": 13200,
          "time": 41.25,
          "velocity": 0.4251968503937008
        },
        {
          "duration": 0.1875,
          "durationTicks": 60,
          "midi": 60,
          "name": "C4",
          "ticks": 13320,
          "time": 41.625,
          "velocity": 0.4251968503937008
        },
        {
          "duration": 0.375,
          "durationTicks": 120,
          "midi": 57,
          "name": "A3",
          "ticks": 13440,
          "time": 42,
          "velocity": 0.4251968503937008
        },
        {
          "duration": 0.375,
          "durationTicks": 120,
          "midi": 60,
          "name": "C4",
          "ticks": 13560,
          "time": 42.375,
          "velocity": 0.4251968503937008
        },
        {
          "duration": 0.1875,
          "durationTicks": 60,
          "midi": 60,
          "name": "C4",
          "ticks": 13680,
          "time": 42.75,
          "velocity": 0.4251968503937008
        },
        {
          "duration": 0.1875,
          "durationTicks": 60,
          "midi": 60,
          "name": "C4",
          "ticks": 13800,
          "time": 43.125,
          "velocity": 0.4251968503937008
        },
        {
          "duration": 0.375,
          "durationTicks": 120,
          "midi": 58,
          "name": "A#3",
          "ticks": 13920,
          "time": 43.5,
          "velocity": 0.4251968503937008
        },
        {
          "duration": 0.375,
          "durationTicks": 120,
          "midi": 60,
          "name": "C4",
          "ticks": 14040,
          "time": 43.875,
          "velocity": 0.4251968503937008
        },
        {
          "duration": 0.1875,
          "durationTicks": 60,
          "midi": 60,
          "name": "C4",
          "ticks": 14160,
          "time": 44.25,
          "velocity": 0.4251968503937008
        },
        {
          "duration": 0.1875,
          "durationTicks": 60,
          "midi": 60,
          "name": "C4",
          "ticks": 14280,
          "time": 44.625,
          "velocity": 0.4251968503937008
        },
        {
          "duration": 1.5,
          "durationTicks": 480,
          "midi": 60,
          "name": "C4",
          "ticks": 14400,
          "time": 45,
          "velocity": 0.4015748031496063
        },
        {
          "duration": 0.1875,
          "durationTicks": 60,
          "midi": 66,
          "name": "F#4",
          "ticks": 16380,
          "time": 51.1875,
          "velocity": 0.3937007874015748
        },
        {
          "duration": 0.1875,
          "durationTicks": 60,
          "midi": 67,
          "name": "G4",
          "ticks": 16440,
          "time": 51.375,
          "velocity": 0.3937007874015748
        },
        {
          "duration": 0.1875,
          "durationTicks": 60,
          "midi": 66,
          "name": "F#4",
          "ticks": 16500,
          "time": 51.5625,
          "velocity": 0.3937007874015748
        },
        {
          "duration": 0.1875,
          "durationTicks": 60,
          "midi": 67,
          "name": "G4",
          "ticks": 16560,
          "time": 51.75,
          "velocity": 0.3937007874015748
        },
        {
          "duration": 0.1875,
          "durationTicks": 60,
          "midi": 69,
          "name": "A4",
          "ticks": 16620,
          "time": 51.9375,
          "velocity": 0.3937007874015748
        },
        {
          "duration": 0.1875,
          "durationTicks": 60,
          "midi": 70,
          "name": "A#4",
          "ticks": 16680,
          "time": 52.125,
          "velocity": 0.3937007874015748
        },
        {
          "duration": 0.1875,
          "durationTicks": 60,
          "midi": 69,
          "name": "A4",
          "ticks": 16740,
          "time": 52.3125,
          "velocity": 0.3937007874015748
        },
        {
          "duration": 0.1875,
          "durationTicks": 60,
          "midi": 70,
          "name": "A#4",
          "ticks": 16800,
          "time": 52.5,
          "velocity": 0.3937007874015748
        },
        {
          "duration": 0.1875,
          "durationTicks": 60,
          "midi": 73,
          "name": "C#5",
          "ticks": 16860,
          "time": 52.6875,
          "velocity": 0.3937007874015748
        },
        {
          "duration": 0.1875,
          "durationTicks": 60,
          "midi": 74,
          "name": "D5",
          "ticks": 16920,
          "time": 52.875,
          "velocity": 0.3937007874015748
        },
        {
          "duration": 0.1875,
          "durationTicks": 60,
          "midi": 69,
          "name": "A4",
          "ticks": 16980,
          "time": 53.0625,
          "velocity": 0.3937007874015748
        },
        {
          "duration": 0.1875,
          "durationTicks": 60,
          "midi": 72,
          "name": "C5",
          "ticks": 17040,
          "time": 53.25,
          "velocity": 0.3937007874015748
        },
        {
          "duration": 0.1875,
          "durationTicks": 60,
          "midi": 70,
          "name": "A#4",
          "ticks": 17100,
          "time": 53.4375,
          "velocity": 0.3937007874015748
        },
        {
          "duration": 0.1875,
          "durationTicks": 60,
          "midi": 69,
          "name": "A4",
          "ticks": 17160,
          "time": 53.625,
          "velocity": 0.3937007874015748
        },
        {
          "duration": 0.1875,
          "durationTicks": 60,
          "midi": 67,
          "name": "G4",
          "ticks": 17220,
          "time": 53.8125,
          "velocity": 0.3937007874015748
        },
        {
          "duration": 1.5,
          "durationTicks": 480,
          "midi": 65,
          "name": "F4",
          "ticks": 17280,
          "time": 54,
          "velocity": 0.3937007874015748
        },
        {
          "duration": 0.75,
          "durationTicks": 240,
          "midi": 64,
          "name": "E4",
          "ticks": 17760,
          "time": 55.5,
          "velocity": 0.3937007874015748
        },
        {
          "duration": 0.1875,
          "durationTicks": 60,
          "midi": 68,
          "name": "G#4",
          "ticks": 19260,
          "time": 60.1875,
          "velocity": 0.3858267716535433
        },
        {
          "duration": 0.1875,
          "durationTicks": 60,
          "midi": 69,
          "name": "A4",
          "ticks": 19320,
          "time": 60.375,
          "velocity": 0.3937007874015748
        },
        {
          "duration": 0.1875,
          "durationTicks": 60,
          "midi": 68,
          "name": "G#4",
          "ticks": 19380,
          "time": 60.5625,
          "velocity": 0.3937007874015748
        },
        {
          "duration": 0.1875,
          "durationTicks": 60,
          "midi": 69,
          "name": "A4",
          "ticks": 19440,
          "time": 60.75,
          "velocity": 0.3937007874015748
        },
        {
          "duration": 0.1875,
          "durationTicks": 60,
          "midi": 71,
          "name": "B4",
          "ticks": 19500,
          "time": 60.9375,
          "velocity": 0.3937007874015748
        },
        {
          "duration": 0.1875,
          "durationTicks": 60,
          "midi": 72,
          "name": "C5",
          "ticks": 19560,
          "time": 61.125,
          "velocity": 0.3937007874015748
        },
        {
          "duration": 0.1875,
          "durationTicks": 60,
          "midi": 71,
          "name": "B4",
          "ticks": 19620,
          "time": 61.3125,
          "velocity": 0.4015748031496063
        },
        {
          "duration": 0.1875,
          "durationTicks": 60,
          "midi": 74,
          "name": "D5",
          "ticks": 19680,
          "time": 61.5,
          "velocity": 0.4015748031496063
        },
        {
          "duration": 0.1875,
          "durationTicks": 60,
          "midi": 72,
          "name": "C5",
          "ticks": 19740,
          "time": 61.6875,
          "velocity": 0.4015748031496063
        },
        {
          "duration": 0.1875,
          "durationTicks": 60,
          "midi": 71,
          "name": "B4",
          "ticks": 19800,
          "time": 61.875,
          "velocity": 0.4015748031496063
        },
        {
          "duration": 0.1875,
          "durationTicks": 60,
          "midi": 72,
          "name": "C5",
          "ticks": 19860,
          "time": 62.0625,
          "velocity": 0.4015748031496063
        },
        {
          "duration": 0.1875,
          "durationTicks": 60,
          "midi": 70,
          "name": "A#4",
          "ticks": 19920,
          "time": 62.25,
          "velocity": 0.4015748031496063
        },
        {
          "duration": 0.1875,
          "durationTicks": 60,
          "midi": 69,
          "name": "A4",
          "ticks": 19980,
          "time": 62.4375,
          "velocity": 0.4015748031496063
        },
        {
          "duration": 0.1875,
          "durationTicks": 60,
          "midi": 67,
          "name": "G4",
          "ticks": 20040,
          "time": 62.625,
          "velocity": 0.4015748031496063
        },
        {
          "duration": 0.1875,
          "durationTicks": 60,
          "midi": 65,
          "name": "F4",
          "ticks": 20100,
          "time": 62.8125,
          "velocity": 0.4015748031496063
        },
        {
          "duration": 1.125,
          "durationTicks": 360,
          "midi": 72,
          "name": "C5",
          "ticks": 20160,
          "time": 63,
          "velocity": 0.4015748031496063
        },
        {
          "duration": 0.375,
          "durationTicks": 120,
          "midi": 71,
          "name": "B4",
          "ticks": 20520,
          "time": 64.125,
          "velocity": 0.4015748031496063
        },
        {
          "duration": 2.25,
          "durationTicks": 720,
          "midi": 70,
          "name": "A#4",
          "ticks": 20640,
          "time": 64.5,
          "velocity": 0.4015748031496063
        },
        {
          "duration": 0.6625000000000085,
          "durationTicks": 212,
          "midi": 69,
          "name": "A4",
          "ticks": 21360,
          "time": 66.75,
          "velocity": 0.3858267716535433
        },
        {
          "duration": 1.125,
          "durationTicks": 360,
          "midi": 69,
          "name": "A4",
          "ticks": 21600,
          "time": 67.5,
          "velocity": 0.3858267716535433
        },
        {
          "duration": 0.2749999999999915,
          "durationTicks": 88,
          "midi": 67,
          "name": "G4",
          "ticks": 21960,
          "time": 68.625,
          "velocity": 0.3779527559055118
        },
        {
          "duration": 2.25,
          "durationTicks": 720,
          "midi": 67,
          "name": "G4",
          "ticks": 22080,
          "time": 69,
          "velocity": 0.3779527559055118
        },
        {
          "duration": 0.6499999999999915,
          "durationTicks": 208,
          "midi": 65,
          "name": "F4",
          "ticks": 22800,
          "time": 71.25,
          "velocity": 0.3700787401574803
        },
        {
          "duration": 1.8624999999999972,
          "durationTicks": 596,
          "midi": 65,
          "name": "F4",
          "ticks": 23040,
          "time": 72,
          "velocity": 0.36220472440944884
        },
        {
          "duration": 0.375,
          "durationTicks": 120,
          "midi": 64,
          "name": "E4",
          "ticks": 23640,
          "time": 73.875,
          "velocity": 0.36220472440944884
        },
        {
          "duration": 0.375,
          "durationTicks": 120,
          "midi": 62,
          "name": "D4",
          "ticks": 23760,
          "time": 74.25,
          "velocity": 0.3543307086614173
        },
        {
          "duration": 0.375,
          "durationTicks": 120,
          "midi": 60,
          "name": "C4",
          "ticks": 23880,
          "time": 74.625,
          "velocity": 0.3543307086614173
        },
        {
          "duration": 0.375,
          "durationTicks": 120,
          "midi": 59,
          "name": "B3",
          "ticks": 24000,
          "time": 75,
          "velocity": 0.3543307086614173
        },
        {
          "duration": 0.375,
          "durationTicks": 120,
          "midi": 58,
          "name": "A#3",
          "ticks": 24120,
          "time": 75.375,
          "velocity": 0.3543307086614173
        },
        {
          "duration": 0.375,
          "durationTicks": 120,
          "midi": 57,
          "name": "A3",
          "ticks": 24240,
          "time": 75.75,
          "velocity": 0.3543307086614173
        },
        {
          "duration": 0.32500000000000284,
          "durationTicks": 104,
          "midi": 60,
          "name": "C4",
          "ticks": 24360,
          "time": 76.125,
          "velocity": 0.3543307086614173
        },
        {
          "duration": 0.9249999999999972,
          "durationTicks": 296,
          "midi": 58,
          "name": "A#3",
          "ticks": 24480,
          "time": 76.5,
          "velocity": 0.3543307086614173
        },
        {
          "duration": 0.17499999999999716,
          "durationTicks": 56,
          "midi": 57,
          "name": "A3",
          "ticks": 24780,
          "time": 77.4375,
          "velocity": 0.3464566929133858
        },
        {
          "duration": 0.17499999999999716,
          "durationTicks": 56,
          "midi": 55,
          "name": "G3",
          "ticks": 24840,
          "time": 77.625,
          "velocity": 0.3464566929133858
        },
        {
          "duration": 0.17499999999999716,
          "durationTicks": 56,
          "midi": 57,
          "name": "A3",
          "ticks": 24900,
          "time": 77.8125,
          "velocity": 0.3464566929133858
        },
        {
          "duration": 1.4874999999999972,
          "durationTicks": 476,
          "midi": 55,
          "name": "G3",
          "ticks": 24960,
          "time": 78,
          "velocity": 0.3464566929133858
        },
        {
          "duration": 0.9124999999999943,
          "durationTicks": 292,
          "midi": 55,
          "name": "G3",
          "ticks": 25920,
          "time": 81,
          "velocity": 0.49606299212598426
        },
        {
          "duration": 0.7125000000000057,
          "durationTicks": 228,
          "midi": 55,
          "name": "G3",
          "ticks": 26280,
          "time": 82.125,
          "velocity": 0.4251968503937008
        },
        {
          "duration": 0.7125000000000057,
          "durationTicks": 228,
          "midi": 55,
          "name": "G3",
          "ticks": 26520,
          "time": 82.875,
          "velocity": 0.4251968503937008
        },
        {
          "duration": 0.7125000000000057,
          "durationTicks": 228,
          "midi": 55,
          "name": "G3",
          "ticks": 26760,
          "time": 83.625,
          "velocity": 0.4251968503937008
        },
        {
          "duration": 0.7125000000000057,
          "durationTicks": 228,
          "midi": 55,
          "name": "G3",
          "ticks": 27000,
          "time": 84.375,
          "velocity": 0.4251968503937008
        },
        {
          "duration": 0.36249999999999716,
          "durationTicks": 116,
          "midi": 55,
          "name": "G3",
          "ticks": 27240,
          "time": 85.125,
          "velocity": 0.4409448818897638
        },
        {
          "duration": 0.30000000000001137,
          "durationTicks": 96,
          "midi": 56,
          "name": "G#3",
          "ticks": 27360,
          "time": 85.5,
          "velocity": 0.4409448818897638
        },
        {
          "duration": 0.36249999999999716,
          "durationTicks": 116,
          "midi": 56,
          "name": "G#3",
          "ticks": 27480,
          "time": 85.875,
          "velocity": 0.4409448818897638
        },
        {
          "duration": 0.375,
          "durationTicks": 120,
          "midi": 56,
          "name": "G#3",
          "ticks": 27720,
          "time": 86.625,
          "velocity": 0.4409448818897638
        },
        {
          "duration": 0.375,
          "durationTicks": 120,
          "midi": 56,
          "name": "G#3",
          "ticks": 27960,
          "time": 87.375,
          "velocity": 0.4409448818897638
        },
        {
          "duration": 0.375,
          "durationTicks": 120,
          "midi": 56,
          "name": "G#3",
          "ticks": 28200,
          "time": 88.125,
          "velocity": 0.4409448818897638
        },
        {
          "duration": 0.375,
          "durationTicks": 120,
          "midi": 56,
          "name": "G#3",
          "ticks": 28440,
          "time": 88.875,
          "velocity": 0.4409448818897638
        },
        {
          "duration": 0.375,
          "durationTicks": 120,
          "midi": 56,
          "name": "G#3",
          "ticks": 28680,
          "time": 89.625,
          "velocity": 0.4409448818897638
        },
        {
          "duration": 0.30000000000001137,
          "durationTicks": 96,
          "midi": 59,
          "name": "B3",
          "ticks": 28800,
          "time": 90,
          "velocity": 0.4881889763779528
        },
        {
          "duration": 0.7125000000000057,
          "durationTicks": 228,
          "midi": 59,
          "name": "B3",
          "ticks": 28920,
          "time": 90.375,
          "velocity": 0.4645669291338583
        },
        {
          "duration": 0.7125000000000057,
          "durationTicks": 228,
          "midi": 59,
          "name": "B3",
          "ticks": 29160,
          "time": 91.125,
          "velocity": 0.4409448818897638
        },
        {
          "duration": 0.7125000000000057,
          "durationTicks": 228,
          "midi": 59,
          "name": "B3",
          "ticks": 29400,
          "time": 91.875,
          "velocity": 0.4409448818897638
        },
        {
          "duration": 0.7125000000000057,
          "durationTicks": 228,
          "midi": 59,
          "name": "B3",
          "ticks": 29640,
          "time": 92.625,
          "velocity": 0.4409448818897638
        },
        {
          "duration": 0.7125000000000057,
          "durationTicks": 228,
          "midi": 59,
          "name": "B3",
          "ticks": 29880,
          "time": 93.375,
          "velocity": 0.4409448818897638
        },
        {
          "duration": 0.38750000000000284,
          "durationTicks": 124,
          "midi": 59,
          "name": "B3",
          "ticks": 30120,
          "time": 94.125,
          "velocity": 0.4409448818897638
        },
        {
          "duration": 0.30000000000001137,
          "durationTicks": 96,
          "midi": 60,
          "name": "C4",
          "ticks": 30240,
          "time": 94.5,
          "velocity": 0.4409448818897638
        },
        {
          "duration": 0.36249999999999716,
          "durationTicks": 116,
          "midi": 60,
          "name": "C4",
          "ticks": 30356,
          "time": 94.8625,
          "velocity": 0.4409448818897638
        },
        {
          "duration": 0.36249999999999716,
          "durationTicks": 116,
          "midi": 60,
          "name": "C4",
          "ticks": 30600,
          "time": 95.625,
          "velocity": 0.4409448818897638
        },
        {
          "duration": 0.36250000000001137,
          "durationTicks": 116,
          "midi": 60,
          "name": "C4",
          "ticks": 30848,
          "time": 96.4,
          "velocity": 0.4409448818897638
        },
        {
          "duration": 0.36249999999998295,
          "durationTicks": 116,
          "midi": 60,
          "name": "C4",
          "ticks": 31080,
          "time": 97.125,
          "velocity": 0.4409448818897638
        },
        {
          "duration": 0.36249999999998295,
          "durationTicks": 116,
          "midi": 60,
          "name": "C4",
          "ticks": 31324,
          "time": 97.88750000000002,
          "velocity": 0.4409448818897638
        },
        {
          "duration": 0.36249999999998295,
          "durationTicks": 116,
          "midi": 60,
          "name": "C4",
          "ticks": 31560,
          "time": 98.625,
          "velocity": 0.4409448818897638
        },
        {
          "duration": 0.25,
          "durationTicks": 80,
          "midi": 60,
          "name": "C4",
          "ticks": 31680,
          "time": 99,
          "velocity": 0.5433070866141733
        },
        {
          "duration": 0.25,
          "durationTicks": 80,
          "midi": 60,
          "name": "C4",
          "ticks": 31760,
          "time": 99.25,
          "velocity": 0.5354330708661418
        },
        {
          "duration": 0.25,
          "durationTicks": 80,
          "midi": 60,
          "name": "C4",
          "ticks": 31840,
          "time": 99.5,
          "velocity": 0.5039370078740157
        },
        {
          "duration": 0.25,
          "durationTicks": 80,
          "midi": 60,
          "name": "C4",
          "ticks": 31920,
          "time": 99.75,
          "velocity": 0.4251968503937008
        },
        {
          "duration": 0.25,
          "durationTicks": 80,
          "midi": 60,
          "name": "C4",
          "ticks": 32000,
          "time": 100,
          "velocity": 0.4251968503937008
        },
        {
          "duration": 0.25,
          "durationTicks": 80,
          "midi": 60,
          "name": "C4",
          "ticks": 32080,
          "time": 100.25,
          "velocity": 0.4251968503937008
        },
        {
          "duration": 0.25,
          "durationTicks": 80,
          "midi": 60,
          "name": "C4",
          "ticks": 32160,
          "time": 100.5,
          "velocity": 0.4251968503937008
        },
        {
          "duration": 0.25,
          "durationTicks": 80,
          "midi": 60,
          "name": "C4",
          "ticks": 32240,
          "time": 100.75,
          "velocity": 0.4251968503937008
        },
        {
          "duration": 0.25,
          "durationTicks": 80,
          "midi": 60,
          "name": "C4",
          "ticks": 32320,
          "time": 101,
          "velocity": 0.4251968503937008
        },
        {
          "duration": 0.25,
          "durationTicks": 80,
          "midi": 60,
          "name": "C4",
          "ticks": 32400,
          "time": 101.25,
          "velocity": 0.4251968503937008
        },
        {
          "duration": 0.25,
          "durationTicks": 80,
          "midi": 60,
          "name": "C4",
          "ticks": 32480,
          "time": 101.5,
          "velocity": 0.4251968503937008
        },
        {
          "duration": 0.25,
          "durationTicks": 80,
          "midi": 60,
          "name": "C4",
          "ticks": 32560,
          "time": 101.75,
          "velocity": 0.4251968503937008
        },
        {
          "duration": 0.25,
          "durationTicks": 80,
          "midi": 60,
          "name": "C4",
          "ticks": 32640,
          "time": 102,
          "velocity": 0.4251968503937008
        },
        {
          "duration": 0.25,
          "durationTicks": 80,
          "midi": 60,
          "name": "C4",
          "ticks": 32720,
          "time": 102.25,
          "velocity": 0.4251968503937008
        },
        {
          "duration": 0.25,
          "durationTicks": 80,
          "midi": 60,
          "name": "C4",
          "ticks": 32800,
          "time": 102.5,
          "velocity": 0.4251968503937008
        },
        {
          "duration": 0.25,
          "durationTicks": 80,
          "midi": 60,
          "name": "C4",
          "ticks": 32880,
          "time": 102.75,
          "velocity": 0.4251968503937008
        },
        {
          "duration": 0.25,
          "durationTicks": 80,
          "midi": 60,
          "name": "C4",
          "ticks": 32960,
          "time": 103,
          "velocity": 0.4251968503937008
        },
        {
          "duration": 0.25,
          "durationTicks": 80,
          "midi": 60,
          "name": "C4",
          "ticks": 33040,
          "time": 103.25,
          "velocity": 0.4251968503937008
        },
        {
          "duration": 0.25,
          "durationTicks": 80,
          "midi": 62,
          "name": "D4",
          "ticks": 33120,
          "time": 103.5,
          "velocity": 0.4251968503937008
        },
        {
          "duration": 0.25,
          "durationTicks": 80,
          "midi": 62,
          "name": "D4",
          "ticks": 33200,
          "time": 103.75,
          "velocity": 0.4251968503937008
        },
        {
          "duration": 0.25,
          "durationTicks": 80,
          "midi": 62,
          "name": "D4",
          "ticks": 33280,
          "time": 104,
          "velocity": 0.4251968503937008
        },
        {
          "duration": 0.25,
          "durationTicks": 80,
          "midi": 62,
          "name": "D4",
          "ticks": 33360,
          "time": 104.25,
          "velocity": 0.4251968503937008
        },
        {
          "duration": 0.25,
          "durationTicks": 80,
          "midi": 62,
          "name": "D4",
          "ticks": 33440,
          "time": 104.5,
          "velocity": 0.4251968503937008
        },
        {
          "duration": 0.25,
          "durationTicks": 80,
          "midi": 62,
          "name": "D4",
          "ticks": 33520,
          "time": 104.75,
          "velocity": 0.4251968503937008
        },
        {
          "duration": 0.25,
          "durationTicks": 80,
          "midi": 63,
          "name": "D#4",
          "ticks": 33600,
          "time": 105,
          "velocity": 0.5433070866141733
        },
        {
          "duration": 0.25,
          "durationTicks": 80,
          "midi": 63,
          "name": "D#4",
          "ticks": 33680,
          "time": 105.25,
          "velocity": 0.5354330708661418
        },
        {
          "duration": 0.25,
          "durationTicks": 80,
          "midi": 63,
          "name": "D#4",
          "ticks": 33760,
          "time": 105.5,
          "velocity": 0.5039370078740157
        },
        {
          "duration": 0.25,
          "durationTicks": 80,
          "midi": 63,
          "name": "D#4",
          "ticks": 33840,
          "time": 105.75,
          "velocity": 0.4251968503937008
        },
        {
          "duration": 0.25,
          "durationTicks": 80,
          "midi": 63,
          "name": "D#4",
          "ticks": 33920,
          "time": 106,
          "velocity": 0.4251968503937008
        },
        {
          "duration": 0.25,
          "durationTicks": 80,
          "midi": 63,
          "name": "D#4",
          "ticks": 34000,
          "time": 106.25,
          "velocity": 0.4251968503937008
        },
        {
          "duration": 0.25,
          "durationTicks": 80,
          "midi": 64,
          "name": "E4",
          "ticks": 34080,
          "time": 106.5,
          "velocity": 0.4251968503937008
        },
        {
          "duration": 0.25,
          "durationTicks": 80,
          "midi": 64,
          "name": "E4",
          "ticks": 34160,
          "time": 106.75,
          "velocity": 0.4251968503937008
        },
        {
          "duration": 0.25,
          "durationTicks": 80,
          "midi": 64,
          "name": "E4",
          "ticks": 34240,
          "time": 107,
          "velocity": 0.4251968503937008
        },
        {
          "duration": 0.25,
          "durationTicks": 80,
          "midi": 64,
          "name": "E4",
          "ticks": 34320,
          "time": 107.25,
          "velocity": 0.4251968503937008
        },
        {
          "duration": 0.25,
          "durationTicks": 80,
          "midi": 64,
          "name": "E4",
          "ticks": 34400,
          "time": 107.5,
          "velocity": 0.4251968503937008
        },
        {
          "duration": 0.25,
          "durationTicks": 80,
          "midi": 64,
          "name": "E4",
          "ticks": 34480,
          "time": 107.75,
          "velocity": 0.4251968503937008
        },
        {
          "duration": 0.25,
          "durationTicks": 80,
          "midi": 64,
          "name": "E4",
          "ticks": 34560,
          "time": 108,
          "velocity": 0.5433070866141733
        },
        {
          "duration": 0.25,
          "durationTicks": 80,
          "midi": 64,
          "name": "E4",
          "ticks": 34640,
          "time": 108.25,
          "velocity": 0.5354330708661418
        },
        {
          "duration": 0.25,
          "durationTicks": 80,
          "midi": 64,
          "name": "E4",
          "ticks": 34720,
          "time": 108.5,
          "velocity": 0.5039370078740157
        },
        {
          "duration": 0.25,
          "durationTicks": 80,
          "midi": 64,
          "name": "E4",
          "ticks": 34800,
          "time": 108.75,
          "velocity": 0.4251968503937008
        },
        {
          "duration": 0.25,
          "durationTicks": 80,
          "midi": 64,
          "name": "E4",
          "ticks": 34880,
          "time": 109,
          "velocity": 0.4251968503937008
        },
        {
          "duration": 0.25,
          "durationTicks": 80,
          "midi": 64,
          "name": "E4",
          "ticks": 34960,
          "time": 109.25,
          "velocity": 0.4251968503937008
        },
        {
          "duration": 0.25,
          "durationTicks": 80,
          "midi": 65,
          "name": "F4",
          "ticks": 35040,
          "time": 109.5,
          "velocity": 0.4251968503937008
        },
        {
          "duration": 0.25,
          "durationTicks": 80,
          "midi": 65,
          "name": "F4",
          "ticks": 35120,
          "time": 109.75,
          "velocity": 0.4251968503937008
        },
        {
          "duration": 0.25,
          "durationTicks": 80,
          "midi": 65,
          "name": "F4",
          "ticks": 35200,
          "time": 110,
          "velocity": 0.4251968503937008
        },
        {
          "duration": 0.25,
          "durationTicks": 80,
          "midi": 65,
          "name": "F4",
          "ticks": 35280,
          "time": 110.25,
          "velocity": 0.4251968503937008
        },
        {
          "duration": 0.25,
          "durationTicks": 80,
          "midi": 65,
          "name": "F4",
          "ticks": 35360,
          "time": 110.5,
          "velocity": 0.4251968503937008
        },
        {
          "duration": 0.25,
          "durationTicks": 80,
          "midi": 65,
          "name": "F4",
          "ticks": 35440,
          "time": 110.75,
          "velocity": 0.4251968503937008
        },
        {
          "duration": 0.25,
          "durationTicks": 80,
          "midi": 65,
          "name": "F4",
          "ticks": 35520,
          "time": 111,
          "velocity": 0.5433070866141733
        },
        {
          "duration": 0.25,
          "durationTicks": 80,
          "midi": 65,
          "name": "F4",
          "ticks": 35600,
          "time": 111.25,
          "velocity": 0.5354330708661418
        },
        {
          "duration": 0.25,
          "durationTicks": 80,
          "midi": 65,
          "name": "F4",
          "ticks": 35680,
          "time": 111.5,
          "velocity": 0.49606299212598426
        },
        {
          "duration": 0.25,
          "durationTicks": 80,
          "midi": 65,
          "name": "F4",
          "ticks": 35760,
          "time": 111.75,
          "velocity": 0.4251968503937008
        },
        {
          "duration": 0.25,
          "durationTicks": 80,
          "midi": 65,
          "name": "F4",
          "ticks": 35840,
          "time": 112,
          "velocity": 0.4251968503937008
        },
        {
          "duration": 0.25,
          "durationTicks": 80,
          "midi": 65,
          "name": "F4",
          "ticks": 35920,
          "time": 112.25,
          "velocity": 0.4251968503937008
        },
        {
          "duration": 4.5,
          "durationTicks": 1440,
          "midi": 66,
          "name": "F#4",
          "ticks": 36000,
          "time": 112.5,
          "velocity": 0.4251968503937008
        },
        {
          "duration": 0.75,
          "durationTicks": 240,
          "midi": 67,
          "name": "G4",
          "ticks": 37440,
          "time": 117,
          "velocity": 0.4251968503937008
        },
        {
          "duration": 0.75,
          "durationTicks": 240,
          "midi": 55,
          "name": "G3",
          "ticks": 37920,
          "time": 118.5,
          "velocity": 0.4251968503937008
        },
        {
          "duration": 0.25,
          "durationTicks": 80,
          "midi": 55,
          "name": "G3",
          "ticks": 38880,
          "time": 121.62982456666666,
          "velocity": 0.3543307086614173
        },
        {
          "duration": 0.25,
          "durationTicks": 80,
          "midi": 60,
          "name": "C4",
          "ticks": 38960,
          "time": 121.87982456666666,
          "velocity": 0.3543307086614173
        },
        {
          "duration": 0.25,
          "durationTicks": 80,
          "midi": 64,
          "name": "E4",
          "ticks": 39040,
          "time": 122.12982456666666,
          "velocity": 0.3543307086614173
        },
        {
          "duration": 0.25,
          "durationTicks": 80,
          "midi": 67,
          "name": "G4",
          "ticks": 39120,
          "time": 122.37982456666666,
          "velocity": 0.3543307086614173
        },
        {
          "duration": 0.25,
          "durationTicks": 80,
          "midi": 64,
          "name": "E4",
          "ticks": 39200,
          "time": 122.62982456666666,
          "velocity": 0.3543307086614173
        },
        {
          "duration": 0.25,
          "durationTicks": 80,
          "midi": 60,
          "name": "C4",
          "ticks": 39280,
          "time": 122.87982456666666,
          "velocity": 0.3543307086614173
        },
        {
          "duration": 0.25,
          "durationTicks": 80,
          "midi": 55,
          "name": "G3",
          "ticks": 39360,
          "time": 123.12982456666666,
          "velocity": 0.3543307086614173
        },
        {
          "duration": 0.25,
          "durationTicks": 80,
          "midi": 59,
          "name": "B3",
          "ticks": 39440,
          "time": 123.37982456666666,
          "velocity": 0.3543307086614173
        },
        {
          "duration": 0.25,
          "durationTicks": 80,
          "midi": 62,
          "name": "D4",
          "ticks": 39520,
          "time": 123.62982456666666,
          "velocity": 0.3543307086614173
        },
        {
          "duration": 0.25,
          "durationTicks": 80,
          "midi": 67,
          "name": "G4",
          "ticks": 39600,
          "time": 123.87982456666666,
          "velocity": 0.3543307086614173
        },
        {
          "duration": 0.25,
          "durationTicks": 80,
          "midi": 62,
          "name": "D4",
          "ticks": 39680,
          "time": 124.12982456666666,
          "velocity": 0.3543307086614173
        },
        {
          "duration": 0.25,
          "durationTicks": 80,
          "midi": 59,
          "name": "B3",
          "ticks": 39760,
          "time": 124.37982456666666,
          "velocity": 0.3543307086614173
        },
        {
          "duration": 0.25,
          "durationTicks": 80,
          "midi": 55,
          "name": "G3",
          "ticks": 39840,
          "time": 124.62982456666666,
          "velocity": 0.3543307086614173
        },
        {
          "duration": 0.25,
          "durationTicks": 80,
          "midi": 60,
          "name": "C4",
          "ticks": 39920,
          "time": 124.87982456666666,
          "velocity": 0.3543307086614173
        },
        {
          "duration": 0.25,
          "durationTicks": 80,
          "midi": 64,
          "name": "E4",
          "ticks": 40000,
          "time": 125.12982456666666,
          "velocity": 0.3543307086614173
        },
        {
          "duration": 0.25,
          "durationTicks": 80,
          "midi": 67,
          "name": "G4",
          "ticks": 40080,
          "time": 125.37982456666666,
          "velocity": 0.3543307086614173
        },
        {
          "duration": 0.25,
          "durationTicks": 80,
          "midi": 64,
          "name": "E4",
          "ticks": 40160,
          "time": 125.62982456666666,
          "velocity": 0.3543307086614173
        },
        {
          "duration": 0.25,
          "durationTicks": 80,
          "midi": 60,
          "name": "C4",
          "ticks": 40240,
          "time": 125.87982456666666,
          "velocity": 0.3543307086614173
        },
        {
          "duration": 0.25,
          "durationTicks": 80,
          "midi": 55,
          "name": "G3",
          "ticks": 40320,
          "time": 126.12982456666666,
          "velocity": 0.3543307086614173
        },
        {
          "duration": 0.25,
          "durationTicks": 80,
          "midi": 59,
          "name": "B3",
          "ticks": 40400,
          "time": 126.37982456666666,
          "velocity": 0.3543307086614173
        },
        {
          "duration": 0.25,
          "durationTicks": 80,
          "midi": 62,
          "name": "D4",
          "ticks": 40480,
          "time": 126.62982456666666,
          "velocity": 0.3543307086614173
        },
        {
          "duration": 0.25,
          "durationTicks": 80,
          "midi": 67,
          "name": "G4",
          "ticks": 40560,
          "time": 126.87982456666666,
          "velocity": 0.3543307086614173
        },
        {
          "duration": 0.25,
          "durationTicks": 80,
          "midi": 62,
          "name": "D4",
          "ticks": 40640,
          "time": 127.12982456666666,
          "velocity": 0.3543307086614173
        },
        {
          "duration": 0.25,
          "durationTicks": 80,
          "midi": 59,
          "name": "B3",
          "ticks": 40720,
          "time": 127.37982456666666,
          "velocity": 0.3543307086614173
        },
        {
          "duration": 0.25,
          "durationTicks": 80,
          "midi": 55,
          "name": "G3",
          "ticks": 40800,
          "time": 127.62982456666666,
          "velocity": 0.3543307086614173
        },
        {
          "duration": 0.25,
          "durationTicks": 80,
          "midi": 59,
          "name": "B3",
          "ticks": 40880,
          "time": 127.87982456666666,
          "velocity": 0.3543307086614173
        },
        {
          "duration": 0.25,
          "durationTicks": 80,
          "midi": 62,
          "name": "D4",
          "ticks": 40960,
          "time": 128.12982456666666,
          "velocity": 0.3543307086614173
        },
        {
          "duration": 0.25,
          "durationTicks": 80,
          "midi": 67,
          "name": "G4",
          "ticks": 41040,
          "time": 128.37982456666666,
          "velocity": 0.3543307086614173
        },
        {
          "duration": 0.25,
          "durationTicks": 80,
          "midi": 62,
          "name": "D4",
          "ticks": 41120,
          "time": 128.62982456666666,
          "velocity": 0.3543307086614173
        },
        {
          "duration": 0.25,
          "durationTicks": 80,
          "midi": 59,
          "name": "B3",
          "ticks": 41200,
          "time": 128.87982456666666,
          "velocity": 0.3543307086614173
        },
        {
          "duration": 0.25,
          "durationTicks": 80,
          "midi": 55,
          "name": "G3",
          "ticks": 41280,
          "time": 129.12982456666666,
          "velocity": 0.3543307086614173
        },
        {
          "duration": 0.25,
          "durationTicks": 80,
          "midi": 59,
          "name": "B3",
          "ticks": 41360,
          "time": 129.37982456666666,
          "velocity": 0.3543307086614173
        },
        {
          "duration": 0.25,
          "durationTicks": 80,
          "midi": 62,
          "name": "D4",
          "ticks": 41440,
          "time": 129.62982456666666,
          "velocity": 0.3543307086614173
        },
        {
          "duration": 0.25,
          "durationTicks": 80,
          "midi": 67,
          "name": "G4",
          "ticks": 41520,
          "time": 129.87982456666666,
          "velocity": 0.3543307086614173
        },
        {
          "duration": 0.25,
          "durationTicks": 80,
          "midi": 62,
          "name": "D4",
          "ticks": 41600,
          "time": 130.12982456666666,
          "velocity": 0.3543307086614173
        },
        {
          "duration": 0.25,
          "durationTicks": 80,
          "midi": 59,
          "name": "B3",
          "ticks": 41680,
          "time": 130.37982456666666,
          "velocity": 0.3543307086614173
        },
        {
          "duration": 0.25,
          "durationTicks": 80,
          "midi": 55,
          "name": "G3",
          "ticks": 41760,
          "time": 130.62982456666666,
          "velocity": 0.3543307086614173
        },
        {
          "duration": 0.25,
          "durationTicks": 80,
          "midi": 59,
          "name": "B3",
          "ticks": 41840,
          "time": 130.87982456666666,
          "velocity": 0.3543307086614173
        },
        {
          "duration": 0.25,
          "durationTicks": 80,
          "midi": 62,
          "name": "D4",
          "ticks": 41920,
          "time": 131.12982456666666,
          "velocity": 0.3543307086614173
        },
        {
          "duration": 0.25,
          "durationTicks": 80,
          "midi": 67,
          "name": "G4",
          "ticks": 42000,
          "time": 131.37982456666666,
          "velocity": 0.3543307086614173
        },
        {
          "duration": 0.25,
          "durationTicks": 80,
          "midi": 62,
          "name": "D4",
          "ticks": 42080,
          "time": 131.62982456666666,
          "velocity": 0.3543307086614173
        },
        {
          "duration": 0.25,
          "durationTicks": 80,
          "midi": 59,
          "name": "B3",
          "ticks": 42160,
          "time": 131.87982456666666,
          "velocity": 0.3543307086614173
        },
        {
          "duration": 0.25,
          "durationTicks": 80,
          "midi": 55,
          "name": "G3",
          "ticks": 42240,
          "time": 132.12982456666666,
          "velocity": 0.3543307086614173
        },
        {
          "duration": 0.25,
          "durationTicks": 80,
          "midi": 60,
          "name": "C4",
          "ticks": 42320,
          "time": 132.37982456666666,
          "velocity": 0.3543307086614173
        },
        {
          "duration": 0.25,
          "durationTicks": 80,
          "midi": 64,
          "name": "E4",
          "ticks": 42400,
          "time": 132.62982456666666,
          "velocity": 0.3543307086614173
        },
        {
          "duration": 0.25,
          "durationTicks": 80,
          "midi": 67,
          "name": "G4",
          "ticks": 42480,
          "time": 132.87982456666666,
          "velocity": 0.3543307086614173
        },
        {
          "duration": 0.25,
          "durationTicks": 80,
          "midi": 64,
          "name": "E4",
          "ticks": 42560,
          "time": 133.12982456666666,
          "velocity": 0.3543307086614173
        },
        {
          "duration": 0.25,
          "durationTicks": 80,
          "midi": 60,
          "name": "C4",
          "ticks": 42640,
          "time": 133.37982456666666,
          "velocity": 0.3543307086614173
        },
        {
          "duration": 0.25,
          "durationTicks": 80,
          "midi": 55,
          "name": "G3",
          "ticks": 42720,
          "time": 133.62982456666666,
          "velocity": 0.3543307086614173
        },
        {
          "duration": 0.25,
          "durationTicks": 80,
          "midi": 59,
          "name": "B3",
          "ticks": 42800,
          "time": 133.87982456666666,
          "velocity": 0.3543307086614173
        },
        {
          "duration": 0.25,
          "durationTicks": 80,
          "midi": 62,
          "name": "D4",
          "ticks": 42880,
          "time": 134.12982456666666,
          "velocity": 0.3543307086614173
        },
        {
          "duration": 0.25,
          "durationTicks": 80,
          "midi": 67,
          "name": "G4",
          "ticks": 42960,
          "time": 134.37982456666666,
          "velocity": 0.3543307086614173
        },
        {
          "duration": 0.25,
          "durationTicks": 80,
          "midi": 65,
          "name": "F4",
          "ticks": 43040,
          "time": 134.62982456666666,
          "velocity": 0.3543307086614173
        },
        {
          "duration": 0.25,
          "durationTicks": 80,
          "midi": 62,
          "name": "D4",
          "ticks": 43120,
          "time": 134.87982456666666,
          "velocity": 0.3543307086614173
        },
        {
          "duration": 0.25,
          "durationTicks": 80,
          "midi": 55,
          "name": "G3",
          "ticks": 43200,
          "time": 135.12982456666666,
          "velocity": 0.3543307086614173
        },
        {
          "duration": 0.25,
          "durationTicks": 80,
          "midi": 60,
          "name": "C4",
          "ticks": 43280,
          "time": 135.37982456666666,
          "velocity": 0.3543307086614173
        },
        {
          "duration": 0.25,
          "durationTicks": 80,
          "midi": 64,
          "name": "E4",
          "ticks": 43360,
          "time": 135.62982456666666,
          "velocity": 0.3543307086614173
        },
        {
          "duration": 0.25,
          "durationTicks": 80,
          "midi": 67,
          "name": "G4",
          "ticks": 43440,
          "time": 135.87982456666666,
          "velocity": 0.3543307086614173
        },
        {
          "duration": 0.25,
          "durationTicks": 80,
          "midi": 64,
          "name": "E4",
          "ticks": 43520,
          "time": 136.12982456666666,
          "velocity": 0.3543307086614173
        },
        {
          "duration": 0.25,
          "durationTicks": 80,
          "midi": 60,
          "name": "C4",
          "ticks": 43600,
          "time": 136.37982456666666,
          "velocity": 0.3543307086614173
        },
        {
          "duration": 0.25,
          "durationTicks": 80,
          "midi": 55,
          "name": "G3",
          "ticks": 43680,
          "time": 136.62982456666666,
          "velocity": 0.3543307086614173
        },
        {
          "duration": 0.25,
          "durationTicks": 80,
          "midi": 60,
          "name": "C4",
          "ticks": 43760,
          "time": 136.87982456666666,
          "velocity": 0.3543307086614173
        },
        {
          "duration": 0.25,
          "durationTicks": 80,
          "midi": 64,
          "name": "E4",
          "ticks": 43840,
          "time": 137.12982456666666,
          "velocity": 0.3543307086614173
        },
        {
          "duration": 0.25,
          "durationTicks": 80,
          "midi": 67,
          "name": "G4",
          "ticks": 43920,
          "time": 137.37982456666666,
          "velocity": 0.3543307086614173
        },
        {
          "duration": 0.25,
          "durationTicks": 80,
          "midi": 64,
          "name": "E4",
          "ticks": 44000,
          "time": 137.62982456666666,
          "velocity": 0.3543307086614173
        },
        {
          "duration": 0.25,
          "durationTicks": 80,
          "midi": 60,
          "name": "C4",
          "ticks": 44080,
          "time": 137.87982456666666,
          "velocity": 0.3543307086614173
        },
        {
          "duration": 0.25,
          "durationTicks": 80,
          "midi": 55,
          "name": "G3",
          "ticks": 44160,
          "time": 138.12982456666666,
          "velocity": 0.3543307086614173
        },
        {
          "duration": 0.25,
          "durationTicks": 80,
          "midi": 60,
          "name": "C4",
          "ticks": 44240,
          "time": 138.37982456666666,
          "velocity": 0.3543307086614173
        },
        {
          "duration": 0.25,
          "durationTicks": 80,
          "midi": 64,
          "name": "E4",
          "ticks": 44320,
          "time": 138.62982456666666,
          "velocity": 0.3543307086614173
        },
        {
          "duration": 0.25,
          "durationTicks": 80,
          "midi": 67,
          "name": "G4",
          "ticks": 44400,
          "time": 138.87982456666666,
          "velocity": 0.3543307086614173
        },
        {
          "duration": 0.25,
          "durationTicks": 80,
          "midi": 64,
          "name": "E4",
          "ticks": 44480,
          "time": 139.12982456666666,
          "velocity": 0.3543307086614173
        },
        {
          "duration": 0.25,
          "durationTicks": 80,
          "midi": 60,
          "name": "C4",
          "ticks": 44560,
          "time": 139.37982456666666,
          "velocity": 0.3543307086614173
        },
        {
          "duration": 0.25,
          "durationTicks": 80,
          "midi": 55,
          "name": "G3",
          "ticks": 44640,
          "time": 139.62982456666666,
          "velocity": 0.3543307086614173
        },
        {
          "duration": 0.25,
          "durationTicks": 80,
          "midi": 61,
          "name": "C#4",
          "ticks": 44720,
          "time": 139.87982456666666,
          "velocity": 0.3543307086614173
        },
        {
          "duration": 0.25,
          "durationTicks": 80,
          "midi": 64,
          "name": "E4",
          "ticks": 44800,
          "time": 140.12982456666666,
          "velocity": 0.3543307086614173
        },
        {
          "duration": 0.25,
          "durationTicks": 80,
          "midi": 67,
          "name": "G4",
          "ticks": 44880,
          "time": 140.37982456666666,
          "velocity": 0.3543307086614173
        },
        {
          "duration": 0.25,
          "durationTicks": 80,
          "midi": 64,
          "name": "E4",
          "ticks": 44960,
          "time": 140.62982456666666,
          "velocity": 0.3543307086614173
        },
        {
          "duration": 0.25,
          "durationTicks": 80,
          "midi": 61,
          "name": "C#4",
          "ticks": 45040,
          "time": 140.87982456666666,
          "velocity": 0.3543307086614173
        },
        {
          "duration": 0.25,
          "durationTicks": 80,
          "midi": 60,
          "name": "C4",
          "ticks": 45120,
          "time": 141.12982456666666,
          "velocity": 0.3543307086614173
        },
        {
          "duration": 0.25,
          "durationTicks": 80,
          "midi": 62,
          "name": "D4",
          "ticks": 45200,
          "time": 141.37982456666666,
          "velocity": 0.3543307086614173
        },
        {
          "duration": 0.25,
          "durationTicks": 80,
          "midi": 66,
          "name": "F#4",
          "ticks": 45280,
          "time": 141.62982456666666,
          "velocity": 0.3543307086614173
        },
        {
          "duration": 0.25,
          "durationTicks": 80,
          "midi": 69,
          "name": "A4",
          "ticks": 45360,
          "time": 141.87982456666666,
          "velocity": 0.3543307086614173
        },
        {
          "duration": 0.25,
          "durationTicks": 80,
          "midi": 66,
          "name": "F#4",
          "ticks": 45440,
          "time": 142.12982456666666,
          "velocity": 0.3543307086614173
        },
        {
          "duration": 0.25,
          "durationTicks": 80,
          "midi": 62,
          "name": "D4",
          "ticks": 45520,
          "time": 142.37982456666666,
          "velocity": 0.3543307086614173
        },
        {
          "duration": 0.25,
          "durationTicks": 80,
          "midi": 59,
          "name": "B3",
          "ticks": 45600,
          "time": 142.62982456666666,
          "velocity": 0.3543307086614173
        },
        {
          "duration": 0.25,
          "durationTicks": 80,
          "midi": 62,
          "name": "D4",
          "ticks": 45680,
          "time": 142.87982456666666,
          "velocity": 0.3543307086614173
        },
        {
          "duration": 0.25,
          "durationTicks": 80,
          "midi": 65,
          "name": "F4",
          "ticks": 45760,
          "time": 143.12982456666666,
          "velocity": 0.3543307086614173
        },
        {
          "duration": 0.25,
          "durationTicks": 80,
          "midi": 67,
          "name": "G4",
          "ticks": 45840,
          "time": 143.37982456666666,
          "velocity": 0.3543307086614173
        },
        {
          "duration": 0.25,
          "durationTicks": 80,
          "midi": 65,
          "name": "F4",
          "ticks": 45920,
          "time": 143.62982456666666,
          "velocity": 0.3543307086614173
        },
        {
          "duration": 0.25,
          "durationTicks": 80,
          "midi": 62,
          "name": "D4",
          "ticks": 46000,
          "time": 143.87982456666666,
          "velocity": 0.3543307086614173
        },
        {
          "duration": 0.25,
          "durationTicks": 80,
          "midi": 58,
          "name": "A#3",
          "ticks": 46080,
          "time": 144.12982456666666,
          "velocity": 0.3543307086614173
        },
        {
          "duration": 0.25,
          "durationTicks": 80,
          "midi": 60,
          "name": "C4",
          "ticks": 46160,
          "time": 144.37982456666666,
          "velocity": 0.3543307086614173
        },
        {
          "duration": 0.25,
          "durationTicks": 80,
          "midi": 64,
          "name": "E4",
          "ticks": 46240,
          "time": 144.62982456666666,
          "velocity": 0.3543307086614173
        },
        {
          "duration": 0.25,
          "durationTicks": 80,
          "midi": 67,
          "name": "G4",
          "ticks": 46320,
          "time": 144.87982456666666,
          "velocity": 0.3543307086614173
        },
        {
          "duration": 0.25,
          "durationTicks": 80,
          "midi": 64,
          "name": "E4",
          "ticks": 46400,
          "time": 145.12982456666666,
          "velocity": 0.3543307086614173
        },
        {
          "duration": 0.25,
          "durationTicks": 80,
          "midi": 60,
          "name": "C4",
          "ticks": 46480,
          "time": 145.37982456666666,
          "velocity": 0.3543307086614173
        },
        {
          "duration": 0.25,
          "durationTicks": 80,
          "midi": 57,
          "name": "A3",
          "ticks": 46560,
          "time": 145.62982456666666,
          "velocity": 0.3543307086614173
        },
        {
          "duration": 0.25,
          "durationTicks": 80,
          "midi": 60,
          "name": "C4",
          "ticks": 46640,
          "time": 145.87982456666666,
          "velocity": 0.3543307086614173
        },
        {
          "duration": 0.25,
          "durationTicks": 80,
          "midi": 65,
          "name": "F4",
          "ticks": 46720,
          "time": 146.12982456666666,
          "velocity": 0.3543307086614173
        },
        {
          "duration": 0.25,
          "durationTicks": 80,
          "midi": 69,
          "name": "A4",
          "ticks": 46800,
          "time": 146.37982456666666,
          "velocity": 0.3543307086614173
        },
        {
          "duration": 0.25,
          "durationTicks": 80,
          "midi": 65,
          "name": "F4",
          "ticks": 46880,
          "time": 146.62982456666666,
          "velocity": 0.3543307086614173
        },
        {
          "duration": 0.25,
          "durationTicks": 80,
          "midi": 62,
          "name": "D4",
          "ticks": 46960,
          "time": 146.87982456666666,
          "velocity": 0.3543307086614173
        },
        {
          "duration": 0.25,
          "durationTicks": 80,
          "midi": 59,
          "name": "B3",
          "ticks": 47040,
          "time": 147.12982456666666,
          "velocity": 0.3543307086614173
        },
        {
          "duration": 0.25,
          "durationTicks": 80,
          "midi": 57,
          "name": "A3",
          "ticks": 47120,
          "time": 147.37982456666666,
          "velocity": 0.3543307086614173
        },
        {
          "duration": 0.25,
          "durationTicks": 80,
          "midi": 59,
          "name": "B3",
          "ticks": 47200,
          "time": 147.62982456666666,
          "velocity": 0.3543307086614173
        },
        {
          "duration": 0.25,
          "durationTicks": 80,
          "midi": 60,
          "name": "C4",
          "ticks": 47280,
          "time": 147.87982456666666,
          "velocity": 0.3543307086614173
        },
        {
          "duration": 0.25,
          "durationTicks": 80,
          "midi": 59,
          "name": "B3",
          "ticks": 47360,
          "time": 148.12982456666666,
          "velocity": 0.3543307086614173
        },
        {
          "duration": 0.25,
          "durationTicks": 80,
          "midi": 60,
          "name": "C4",
          "ticks": 47440,
          "time": 148.37982456666666,
          "velocity": 0.3543307086614173
        },
        {
          "duration": 0.25,
          "durationTicks": 80,
          "midi": 57,
          "name": "A3",
          "ticks": 47520,
          "time": 148.62982456666666,
          "velocity": 0.3543307086614173
        },
        {
          "duration": 0.25,
          "durationTicks": 80,
          "midi": 65,
          "name": "F4",
          "ticks": 47600,
          "time": 148.87982456666666,
          "velocity": 0.3543307086614173
        },
        {
          "duration": 0.25,
          "durationTicks": 80,
          "midi": 62,
          "name": "D4",
          "ticks": 47680,
          "time": 149.12982456666666,
          "velocity": 0.3543307086614173
        },
        {
          "duration": 0.25,
          "durationTicks": 80,
          "midi": 65,
          "name": "F4",
          "ticks": 47760,
          "time": 149.37982456666666,
          "velocity": 0.3543307086614173
        },
        {
          "duration": 0.25,
          "durationTicks": 80,
          "midi": 69,
          "name": "A4",
          "ticks": 47840,
          "time": 149.62982456666666,
          "velocity": 0.3543307086614173
        },
        {
          "duration": 0.25,
          "durationTicks": 80,
          "midi": 65,
          "name": "F4",
          "ticks": 47920,
          "time": 149.87982456666666,
          "velocity": 0.3543307086614173
        },
        {
          "duration": 0.25,
          "durationTicks": 80,
          "midi": 55,
          "name": "G3",
          "ticks": 48000,
          "time": 150.12982456666666,
          "velocity": 0.3543307086614173
        },
        {
          "duration": 0.25,
          "durationTicks": 80,
          "midi": 60,
          "name": "C4",
          "ticks": 48080,
          "time": 150.37982456666666,
          "velocity": 0.3543307086614173
        },
        {
          "duration": 0.25,
          "durationTicks": 80,
          "midi": 64,
          "name": "E4",
          "ticks": 48160,
          "time": 150.62982456666666,
          "velocity": 0.3543307086614173
        },
        {
          "duration": 0.25,
          "durationTicks": 80,
          "midi": 67,
          "name": "G4",
          "ticks": 48240,
          "time": 150.87982456666666,
          "velocity": 0.3543307086614173
        },
        {
          "duration": 0.25,
          "durationTicks": 80,
          "midi": 64,
          "name": "E4",
          "ticks": 48320,
          "time": 151.12982456666666,
          "velocity": 0.3543307086614173
        },
        {
          "duration": 0.25,
          "durationTicks": 80,
          "midi": 60,
          "name": "C4",
          "ticks": 48400,
          "time": 151.37982456666666,
          "velocity": 0.3543307086614173
        },
        {
          "duration": 0.25,
          "durationTicks": 80,
          "midi": 62,
          "name": "D4",
          "ticks": 48480,
          "time": 151.62982456666666,
          "velocity": 0.3543307086614173
        },
        {
          "duration": 0.25,
          "durationTicks": 80,
          "midi": 65,
          "name": "F4",
          "ticks": 48560,
          "time": 151.87982456666666,
          "velocity": 0.3543307086614173
        },
        {
          "duration": 0.25,
          "durationTicks": 80,
          "midi": 67,
          "name": "G4",
          "ticks": 48640,
          "time": 152.12982456666666,
          "velocity": 0.3543307086614173
        },
        {
          "duration": 0.25,
          "durationTicks": 80,
          "midi": 65,
          "name": "F4",
          "ticks": 48720,
          "time": 152.37982456666666,
          "velocity": 0.3543307086614173
        },
        {
          "duration": 0.25,
          "durationTicks": 80,
          "midi": 62,
          "name": "D4",
          "ticks": 48800,
          "time": 152.62982456666666,
          "velocity": 0.3543307086614173
        },
        {
          "duration": 0.25,
          "durationTicks": 80,
          "midi": 59,
          "name": "B3",
          "ticks": 48880,
          "time": 152.87982456666666,
          "velocity": 0.3543307086614173
        },
        {
          "duration": 0.25,
          "durationTicks": 80,
          "midi": 61,
          "name": "C#4",
          "ticks": 48960,
          "time": 153.12982456666666,
          "velocity": 0.3543307086614173
        },
        {
          "duration": 0.25,
          "durationTicks": 80,
          "midi": 64,
          "name": "E4",
          "ticks": 49040,
          "time": 153.37982456666666,
          "velocity": 0.3543307086614173
        },
        {
          "duration": 0.25,
          "durationTicks": 80,
          "midi": 67,
          "name": "G4",
          "ticks": 49120,
          "time": 153.62982456666666,
          "velocity": 0.3543307086614173
        },
        {
          "duration": 0.25,
          "durationTicks": 80,
          "midi": 69,
          "name": "A4",
          "ticks": 49200,
          "time": 153.87982456666666,
          "velocity": 0.3543307086614173
        },
        {
          "duration": 0.25,
          "durationTicks": 80,
          "midi": 67,
          "name": "G4",
          "ticks": 49280,
          "time": 154.12982456666666,
          "velocity": 0.3543307086614173
        },
        {
          "duration": 0.25,
          "durationTicks": 80,
          "midi": 64,
          "name": "E4",
          "ticks": 49360,
          "time": 154.37982456666666,
          "velocity": 0.3543307086614173
        },
        {
          "duration": 0.25,
          "durationTicks": 80,
          "midi": 60,
          "name": "C4",
          "ticks": 49440,
          "time": 154.62982456666666,
          "velocity": 0.3543307086614173
        },
        {
          "duration": 0.25,
          "durationTicks": 80,
          "midi": 62,
          "name": "D4",
          "ticks": 49520,
          "time": 154.87982456666666,
          "velocity": 0.3543307086614173
        },
        {
          "duration": 0.25,
          "durationTicks": 80,
          "midi": 66,
          "name": "F#4",
          "ticks": 49600,
          "time": 155.12982456666666,
          "velocity": 0.3543307086614173
        },
        {
          "duration": 0.25,
          "durationTicks": 80,
          "midi": 69,
          "name": "A4",
          "ticks": 49680,
          "time": 155.37982456666666,
          "velocity": 0.3543307086614173
        },
        {
          "duration": 0.25,
          "durationTicks": 80,
          "midi": 66,
          "name": "F#4",
          "ticks": 49760,
          "time": 155.62982456666666,
          "velocity": 0.3543307086614173
        },
        {
          "duration": 0.25,
          "durationTicks": 80,
          "midi": 62,
          "name": "D4",
          "ticks": 49840,
          "time": 155.87982456666666,
          "velocity": 0.3543307086614173
        },
        {
          "duration": 0.25,
          "durationTicks": 80,
          "midi": 59,
          "name": "B3",
          "ticks": 49920,
          "time": 156.12982456666666,
          "velocity": 0.3543307086614173
        },
        {
          "duration": 0.25,
          "durationTicks": 80,
          "midi": 62,
          "name": "D4",
          "ticks": 50000,
          "time": 156.37982456666666,
          "velocity": 0.3543307086614173
        },
        {
          "duration": 0.25,
          "durationTicks": 80,
          "midi": 65,
          "name": "F4",
          "ticks": 50080,
          "time": 156.62982456666666,
          "velocity": 0.3543307086614173
        },
        {
          "duration": 0.25,
          "durationTicks": 80,
          "midi": 67,
          "name": "G4",
          "ticks": 50160,
          "time": 156.87982456666666,
          "velocity": 0.3543307086614173
        },
        {
          "duration": 0.25,
          "durationTicks": 80,
          "midi": 65,
          "name": "F4",
          "ticks": 50240,
          "time": 157.12982456666666,
          "velocity": 0.3543307086614173
        },
        {
          "duration": 0.25,
          "durationTicks": 80,
          "midi": 62,
          "name": "D4",
          "ticks": 50320,
          "time": 157.37982456666666,
          "velocity": 0.3543307086614173
        },
        {
          "duration": 0.25,
          "durationTicks": 80,
          "midi": 58,
          "name": "A#3",
          "ticks": 50400,
          "time": 157.62982456666666,
          "velocity": 0.3543307086614173
        },
        {
          "duration": 0.25,
          "durationTicks": 80,
          "midi": 60,
          "name": "C4",
          "ticks": 50480,
          "time": 157.87982456666666,
          "velocity": 0.3543307086614173
        },
        {
          "duration": 0.25,
          "durationTicks": 80,
          "midi": 64,
          "name": "E4",
          "ticks": 50560,
          "time": 158.12982456666666,
          "velocity": 0.3543307086614173
        },
        {
          "duration": 0.25,
          "durationTicks": 80,
          "midi": 67,
          "name": "G4",
          "ticks": 50640,
          "time": 158.37982456666666,
          "velocity": 0.3543307086614173
        },
        {
          "duration": 0.25,
          "durationTicks": 80,
          "midi": 64,
          "name": "E4",
          "ticks": 50720,
          "time": 158.62982456666666,
          "velocity": 0.3543307086614173
        },
        {
          "duration": 0.25,
          "durationTicks": 80,
          "midi": 60,
          "name": "C4",
          "ticks": 50800,
          "time": 158.87982456666666,
          "velocity": 0.3543307086614173
        },
        {
          "duration": 0.25,
          "durationTicks": 80,
          "midi": 57,
          "name": "A3",
          "ticks": 50880,
          "time": 159.12982456666666,
          "velocity": 0.3543307086614173
        },
        {
          "duration": 0.25,
          "durationTicks": 80,
          "midi": 60,
          "name": "C4",
          "ticks": 50960,
          "time": 159.37982456666666,
          "velocity": 0.3543307086614173
        },
        {
          "duration": 0.25,
          "durationTicks": 80,
          "midi": 65,
          "name": "F4",
          "ticks": 51040,
          "time": 159.62982456666666,
          "velocity": 0.3543307086614173
        },
        {
          "duration": 0.25,
          "durationTicks": 80,
          "midi": 69,
          "name": "A4",
          "ticks": 51120,
          "time": 159.87982456666666,
          "velocity": 0.3543307086614173
        },
        {
          "duration": 0.25,
          "durationTicks": 80,
          "midi": 65,
          "name": "F4",
          "ticks": 51200,
          "time": 160.12982456666666,
          "velocity": 0.3543307086614173
        },
        {
          "duration": 0.25,
          "durationTicks": 80,
          "midi": 62,
          "name": "D4",
          "ticks": 51280,
          "time": 160.37982456666666,
          "velocity": 0.3543307086614173
        },
        {
          "duration": 0.25,
          "durationTicks": 80,
          "midi": 59,
          "name": "B3",
          "ticks": 51360,
          "time": 160.62982456666666,
          "velocity": 0.3543307086614173
        },
        {
          "duration": 0.25,
          "durationTicks": 80,
          "midi": 57,
          "name": "A3",
          "ticks": 51440,
          "time": 160.87982456666666,
          "velocity": 0.3543307086614173
        },
        {
          "duration": 0.25,
          "durationTicks": 80,
          "midi": 59,
          "name": "B3",
          "ticks": 51520,
          "time": 161.12982456666666,
          "velocity": 0.3543307086614173
        },
        {
          "duration": 0.25,
          "durationTicks": 80,
          "midi": 60,
          "name": "C4",
          "ticks": 51600,
          "time": 161.37982456666666,
          "velocity": 0.3543307086614173
        },
        {
          "duration": 0.25,
          "durationTicks": 80,
          "midi": 59,
          "name": "B3",
          "ticks": 51680,
          "time": 161.62982456666666,
          "velocity": 0.3543307086614173
        },
        {
          "duration": 0.25,
          "durationTicks": 80,
          "midi": 60,
          "name": "C4",
          "ticks": 51760,
          "time": 161.87982456666666,
          "velocity": 0.3543307086614173
        },
        {
          "duration": 0.25,
          "durationTicks": 80,
          "midi": 65,
          "name": "F4",
          "ticks": 51840,
          "time": 162.12982456666666,
          "velocity": 0.3543307086614173
        },
        {
          "duration": 0.25,
          "durationTicks": 80,
          "midi": 64,
          "name": "E4",
          "ticks": 51920,
          "time": 162.37982456666666,
          "velocity": 0.3543307086614173
        },
        {
          "duration": 0.25,
          "durationTicks": 80,
          "midi": 65,
          "name": "F4",
          "ticks": 52000,
          "time": 162.62982456666666,
          "velocity": 0.3543307086614173
        },
        {
          "duration": 0.25,
          "durationTicks": 80,
          "midi": 66,
          "name": "F#4",
          "ticks": 52080,
          "time": 162.87982456666666,
          "velocity": 0.36220472440944884
        },
        {
          "duration": 0.25,
          "durationTicks": 80,
          "midi": 64,
          "name": "E4",
          "ticks": 52160,
          "time": 163.12982456666666,
          "velocity": 0.36220472440944884
        },
        {
          "duration": 0.25,
          "durationTicks": 80,
          "midi": 66,
          "name": "F#4",
          "ticks": 52240,
          "time": 163.37982456666666,
          "velocity": 0.3700787401574803
        },
        {
          "duration": 0.25,
          "durationTicks": 80,
          "midi": 68,
          "name": "G#4",
          "ticks": 52320,
          "time": 163.62982456666666,
          "velocity": 0.3700787401574803
        },
        {
          "duration": 0.25,
          "durationTicks": 80,
          "midi": 66,
          "name": "F#4",
          "ticks": 52400,
          "time": 163.87982456666666,
          "velocity": 0.3700787401574803
        },
        {
          "duration": 0.25,
          "durationTicks": 80,
          "midi": 68,
          "name": "G#4",
          "ticks": 52480,
          "time": 164.12982456666666,
          "velocity": 0.3779527559055118
        },
        {
          "duration": 0.25,
          "durationTicks": 80,
          "midi": 69,
          "name": "A4",
          "ticks": 52560,
          "time": 164.37982456666666,
          "velocity": 0.3779527559055118
        },
        {
          "duration": 0.25,
          "durationTicks": 80,
          "midi": 68,
          "name": "G#4",
          "ticks": 52640,
          "time": 164.62982456666666,
          "velocity": 0.3858267716535433
        },
        {
          "duration": 0.25,
          "durationTicks": 80,
          "midi": 69,
          "name": "A4",
          "ticks": 52720,
          "time": 164.87982456666666,
          "velocity": 0.3858267716535433
        },
        {
          "duration": 0.25,
          "durationTicks": 80,
          "midi": 61,
          "name": "C#4",
          "ticks": 52800,
          "time": 165.12982456666666,
          "velocity": 0.3937007874015748
        },
        {
          "duration": 0.25,
          "durationTicks": 80,
          "midi": 60,
          "name": "C4",
          "ticks": 52880,
          "time": 165.37982456666666,
          "velocity": 0.3937007874015748
        },
        {
          "duration": 0.25,
          "durationTicks": 80,
          "midi": 61,
          "name": "C#4",
          "ticks": 52960,
          "time": 165.62982456666666,
          "velocity": 0.3937007874015748
        },
        {
          "duration": 0.25,
          "durationTicks": 80,
          "midi": 62,
          "name": "D4",
          "ticks": 53040,
          "time": 165.87982456666666,
          "velocity": 0.4015748031496063
        },
        {
          "duration": 0.25,
          "durationTicks": 80,
          "midi": 61,
          "name": "C#4",
          "ticks": 53120,
          "time": 166.12982456666666,
          "velocity": 0.4015748031496063
        },
        {
          "duration": 0.25,
          "durationTicks": 80,
          "midi": 62,
          "name": "D4",
          "ticks": 53200,
          "time": 166.37982456666666,
          "velocity": 0.4015748031496063
        },
        {
          "duration": 0.25,
          "durationTicks": 80,
          "midi": 64,
          "name": "E4",
          "ticks": 53280,
          "time": 166.62982456666666,
          "velocity": 0.47244094488188976
        },
        {
          "duration": 0.25,
          "durationTicks": 80,
          "midi": 62,
          "name": "D4",
          "ticks": 53360,
          "time": 166.87982456666666,
          "velocity": 0.4094488188976378
        },
        {
          "duration": 0.25,
          "durationTicks": 80,
          "midi": 64,
          "name": "E4",
          "ticks": 53440,
          "time": 167.12982456666666,
          "velocity": 0.4094488188976378
        },
        {
          "duration": 0.25,
          "durationTicks": 80,
          "midi": 65,
          "name": "F4",
          "ticks": 53520,
          "time": 167.37982456666666,
          "velocity": 0.4094488188976378
        },
        {
          "duration": 0.25,
          "durationTicks": 80,
          "midi": 67,
          "name": "G4",
          "ticks": 53600,
          "time": 167.62982456666666,
          "velocity": 0.4094488188976378
        },
        {
          "duration": 0.25,
          "durationTicks": 80,
          "midi": 65,
          "name": "F4",
          "ticks": 53680,
          "time": 167.87982456666666,
          "velocity": 0.4094488188976378
        },
        {
          "duration": 0.25,
          "durationTicks": 80,
          "midi": 64,
          "name": "E4",
          "ticks": 53760,
          "time": 168.12982456666666,
          "velocity": 0.4094488188976378
        },
        {
          "duration": 0.25,
          "durationTicks": 80,
          "midi": 65,
          "name": "F4",
          "ticks": 53840,
          "time": 168.37982456666666,
          "velocity": 0.4094488188976378
        },
        {
          "duration": 0.25,
          "durationTicks": 80,
          "midi": 64,
          "name": "E4",
          "ticks": 53920,
          "time": 168.62982456666666,
          "velocity": 0.4094488188976378
        },
        {
          "duration": 0.25,
          "durationTicks": 80,
          "midi": 62,
          "name": "D4",
          "ticks": 54000,
          "time": 168.87982456666666,
          "velocity": 0.4094488188976378
        },
        {
          "duration": 0.25,
          "durationTicks": 80,
          "midi": 64,
          "name": "E4",
          "ticks": 54080,
          "time": 169.12982456666666,
          "velocity": 0.4094488188976378
        },
        {
          "duration": 0.25,
          "durationTicks": 80,
          "midi": 62,
          "name": "D4",
          "ticks": 54160,
          "time": 169.37982456666666,
          "velocity": 0.4094488188976378
        },
        {
          "duration": 0.2500000000000284,
          "durationTicks": 80,
          "midi": 60,
          "name": "C4",
          "ticks": 54240,
          "time": 169.62982456666666,
          "velocity": 0.4094488188976378
        },
        {
          "duration": 0.24999999999997158,
          "durationTicks": 80,
          "midi": 62,
          "name": "D4",
          "ticks": 54320,
          "time": 169.87982456666668,
          "velocity": 0.4094488188976378
        },
        {
          "duration": 0.25,
          "durationTicks": 80,
          "midi": 60,
          "name": "C4",
          "ticks": 54400,
          "time": 170.12982456666666,
          "velocity": 0.4094488188976378
        },
        {
          "duration": 0.2500000000000284,
          "durationTicks": 80,
          "midi": 59,
          "name": "B3",
          "ticks": 54480,
          "time": 170.37982456666666,
          "velocity": 0.4094488188976378
        },
        {
          "duration": 0.24999999999997158,
          "durationTicks": 80,
          "midi": 60,
          "name": "C4",
          "ticks": 54560,
          "time": 170.62982456666668,
          "velocity": 0.4094488188976378
        },
        {
          "duration": 0.25,
          "durationTicks": 80,
          "midi": 59,
          "name": "B3",
          "ticks": 54640,
          "time": 170.87982456666666,
          "velocity": 0.4094488188976378
        },
        {
          "duration": 0.75,
          "durationTicks": 240,
          "midi": 60,
          "name": "C4",
          "ticks": 54720,
          "time": 171.12982456666666,
          "velocity": 0.4094488188976378
        },
        {
          "duration": 0.75,
          "durationTicks": 240,
          "midi": 60,
          "name": "C4",
          "ticks": 54960,
          "time": 171.87982456666666,
          "velocity": 0.3543307086614173
        },
        {
          "duration": 0.75,
          "durationTicks": 240,
          "midi": 62,
          "name": "D4",
          "ticks": 55192,
          "time": 172.60482456666665,
          "velocity": 0.3543307086614173
        },
        {
          "duration": 0.75,
          "durationTicks": 240,
          "midi": 64,
          "name": "E4",
          "ticks": 55432,
          "time": 173.35482456666665,
          "velocity": 0.3543307086614173
        },
        {
          "duration": 0.24999999999997158,
          "durationTicks": 80,
          "midi": 65,
          "name": "F4",
          "ticks": 55676,
          "time": 174.11732456666667,
          "velocity": 0.3543307086614173
        },
        {
          "duration": 0.25,
          "durationTicks": 80,
          "midi": 64,
          "name": "E4",
          "ticks": 55764,
          "time": 174.39232456666667,
          "velocity": 0.3543307086614173
        },
        {
          "duration": 0.25,
          "durationTicks": 80,
          "midi": 65,
          "name": "F4",
          "ticks": 55836,
          "time": 174.61732456666667,
          "velocity": 0.3543307086614173
        },
        {
          "duration": 0.2500000000000284,
          "durationTicks": 80,
          "midi": 69,
          "name": "A4",
          "ticks": 55920,
          "time": 174.87982456666666,
          "velocity": 0.3543307086614173
        },
        {
          "duration": 0.2500000000000284,
          "durationTicks": 80,
          "midi": 67,
          "name": "G4",
          "ticks": 55996,
          "time": 175.11732456666664,
          "velocity": 0.3543307086614173
        },
        {
          "duration": 0.25,
          "durationTicks": 80,
          "midi": 65,
          "name": "F4",
          "ticks": 56080,
          "time": 175.37982456666666,
          "velocity": 0.3543307086614173
        },
        {
          "duration": 0.75,
          "durationTicks": 240,
          "midi": 64,
          "name": "E4",
          "ticks": 56160,
          "time": 175.62982456666666,
          "velocity": 0.3543307086614173
        },
        {
          "duration": 0.75,
          "durationTicks": 240,
          "midi": 60,
          "name": "C4",
          "ticks": 57840,
          "time": 180.87982456666666,
          "velocity": 0.3543307086614173
        },
        {
          "duration": 0.75,
          "durationTicks": 240,
          "midi": 62,
          "name": "D4",
          "ticks": 58080,
          "time": 181.62982456666666,
          "velocity": 0.3543307086614173
        },
        {
          "duration": 0.75,
          "durationTicks": 240,
          "midi": 64,
          "name": "E4",
          "ticks": 58320,
          "time": 182.37982456666666,
          "velocity": 0.3543307086614173
        },
        {
          "duration": 0.2500000000000284,
          "durationTicks": 80,
          "midi": 65,
          "name": "F4",
          "ticks": 58560,
          "time": 183.12982456666666,
          "velocity": 0.3543307086614173
        },
        {
          "duration": 0.24999999999997158,
          "durationTicks": 80,
          "midi": 64,
          "name": "E4",
          "ticks": 58640,
          "time": 183.37982456666668,
          "velocity": 0.3543307086614173
        },
        {
          "duration": 0.25,
          "durationTicks": 80,
          "midi": 65,
          "name": "F4",
          "ticks": 58720,
          "time": 183.62982456666666,
          "velocity": 0.3543307086614173
        },
        {
          "duration": 0.2500000000000284,
          "durationTicks": 80,
          "midi": 69,
          "name": "A4",
          "ticks": 58800,
          "time": 183.87982456666666,
          "velocity": 0.3543307086614173
        },
        {
          "duration": 0.24999999999997158,
          "durationTicks": 80,
          "midi": 67,
          "name": "G4",
          "ticks": 58880,
          "time": 184.12982456666668,
          "velocity": 0.3543307086614173
        },
        {
          "duration": 0.25,
          "durationTicks": 80,
          "midi": 65,
          "name": "F4",
          "ticks": 58960,
          "time": 184.37982456666666,
          "velocity": 0.3543307086614173
        },
        {
          "duration": 0.75,
          "durationTicks": 240,
          "midi": 64,
          "name": "E4",
          "ticks": 59040,
          "time": 184.62982456666666,
          "velocity": 0.3543307086614173
        },
        {
          "duration": 2.298025200000012,
          "durationTicks": 720,
          "midi": 55,
          "name": "G3",
          "ticks": 63360,
          "time": 198.21963780000002,
          "velocity": 0.3543307086614173
        },
        {
          "duration": 0.32499999999998863,
          "durationTicks": 104,
          "midi": 57,
          "name": "A3",
          "ticks": 66240,
          "time": 207.49144406666665,
          "velocity": 0.49606299212598426
        },
        {
          "duration": 0.7125000000000057,
          "durationTicks": 228,
          "midi": 57,
          "name": "A3",
          "ticks": 66360,
          "time": 207.86644406666665,
          "velocity": 0.4645669291338583
        },
        {
          "duration": 0.7125000000000057,
          "durationTicks": 228,
          "midi": 57,
          "name": "A3",
          "ticks": 66600,
          "time": 208.61644406666665,
          "velocity": 0.41732283464566927
        },
        {
          "duration": 0.7125000000000057,
          "durationTicks": 228,
          "midi": 57,
          "name": "A3",
          "ticks": 66840,
          "time": 209.36644406666665,
          "velocity": 0.41732283464566927
        },
        {
          "duration": 0.7125000000000057,
          "durationTicks": 228,
          "midi": 57,
          "name": "A3",
          "ticks": 67080,
          "time": 210.11644406666665,
          "velocity": 0.41732283464566927
        },
        {
          "duration": 0.7125000000000057,
          "durationTicks": 228,
          "midi": 57,
          "name": "A3",
          "ticks": 67320,
          "time": 210.86644406666665,
          "velocity": 0.41732283464566927
        },
        {
          "duration": 0.375,
          "durationTicks": 120,
          "midi": 57,
          "name": "A3",
          "ticks": 67560,
          "time": 211.61644406666665,
          "velocity": 0.41732283464566927
        },
        {
          "duration": 0.32499999999998863,
          "durationTicks": 104,
          "midi": 58,
          "name": "A#3",
          "ticks": 67680,
          "time": 211.99144406666665,
          "velocity": 0.41732283464566927
        },
        {
          "duration": 0.375,
          "durationTicks": 120,
          "midi": 58,
          "name": "A#3",
          "ticks": 67800,
          "time": 212.36644406666665,
          "velocity": 0.41732283464566927
        },
        {
          "duration": 0.375,
          "durationTicks": 120,
          "midi": 58,
          "name": "A#3",
          "ticks": 68040,
          "time": 213.11644406666665,
          "velocity": 0.41732283464566927
        },
        {
          "duration": 0.375,
          "durationTicks": 120,
          "midi": 58,
          "name": "A#3",
          "ticks": 68280,
          "time": 213.86644406666665,
          "velocity": 0.41732283464566927
        },
        {
          "duration": 0.375,
          "durationTicks": 120,
          "midi": 58,
          "name": "A#3",
          "ticks": 68520,
          "time": 214.61644406666665,
          "velocity": 0.41732283464566927
        },
        {
          "duration": 0.375,
          "durationTicks": 120,
          "midi": 58,
          "name": "A#3",
          "ticks": 68760,
          "time": 215.36644406666665,
          "velocity": 0.41732283464566927
        },
        {
          "duration": 0.375,
          "durationTicks": 120,
          "midi": 58,
          "name": "A#3",
          "ticks": 69000,
          "time": 216.11644406666665,
          "velocity": 0.41732283464566927
        },
        {
          "duration": 0.32499999999998863,
          "durationTicks": 104,
          "midi": 55,
          "name": "G3",
          "ticks": 69120,
          "time": 216.49144406666665,
          "velocity": 0.49606299212598426
        },
        {
          "duration": 0.7125000000000057,
          "durationTicks": 228,
          "midi": 55,
          "name": "G3",
          "ticks": 69240,
          "time": 216.86644406666665,
          "velocity": 0.41732283464566927
        },
        {
          "duration": 0.7125000000000057,
          "durationTicks": 228,
          "midi": 55,
          "name": "G3",
          "ticks": 69480,
          "time": 217.61644406666665,
          "velocity": 0.41732283464566927
        },
        {
          "duration": 0.7125000000000057,
          "durationTicks": 228,
          "midi": 55,
          "name": "G3",
          "ticks": 69720,
          "time": 218.36644406666665,
          "velocity": 0.41732283464566927
        },
        {
          "duration": 0.7125000000000057,
          "durationTicks": 228,
          "midi": 55,
          "name": "G3",
          "ticks": 69960,
          "time": 219.11644406666665,
          "velocity": 0.41732283464566927
        },
        {
          "duration": 0.7125000000000057,
          "durationTicks": 228,
          "midi": 55,
          "name": "G3",
          "ticks": 70200,
          "time": 219.86644406666665,
          "velocity": 0.41732283464566927
        },
        {
          "duration": 0.38749999999998863,
          "durationTicks": 124,
          "midi": 55,
          "name": "G3",
          "ticks": 70440,
          "time": 220.61644406666665,
          "velocity": 0.41732283464566927
        },
        {
          "duration": 0.3375000000000057,
          "durationTicks": 108,
          "midi": 63,
          "name": "D#4",
          "ticks": 70560,
          "time": 220.99144406666665,
          "velocity": 0.41732283464566927
        },
        {
          "duration": 0.375,
          "durationTicks": 120,
          "midi": 63,
          "name": "D#4",
          "ticks": 70680,
          "time": 221.36644406666665,
          "velocity": 0.41732283464566927
        },
        {
          "duration": 0.375,
          "durationTicks": 120,
          "midi": 63,
          "name": "D#4",
          "ticks": 70920,
          "time": 222.11644406666665,
          "velocity": 0.41732283464566927
        },
        {
          "duration": 0.375,
          "durationTicks": 120,
          "midi": 63,
          "name": "D#4",
          "ticks": 71160,
          "time": 222.86644406666665,
          "velocity": 0.41732283464566927
        },
        {
          "duration": 0.375,
          "durationTicks": 120,
          "midi": 63,
          "name": "D#4",
          "ticks": 71400,
          "time": 223.61644406666665,
          "velocity": 0.41732283464566927
        },
        {
          "duration": 0.375,
          "durationTicks": 120,
          "midi": 63,
          "name": "D#4",
          "ticks": 71640,
          "time": 224.36644406666665,
          "velocity": 0.41732283464566927
        },
        {
          "duration": 0.375,
          "durationTicks": 120,
          "midi": 63,
          "name": "D#4",
          "ticks": 71880,
          "time": 225.11644406666665,
          "velocity": 0.41732283464566927
        },
        {
          "duration": 0.25,
          "durationTicks": 80,
          "midi": 66,
          "name": "F#4",
          "ticks": 72000,
          "time": 225.49144406666665,
          "velocity": 0.41732283464566927
        },
        {
          "duration": 0.25,
          "durationTicks": 80,
          "midi": 66,
          "name": "F#4",
          "ticks": 72080,
          "time": 225.74144406666665,
          "velocity": 0.41732283464566927
        },
        {
          "duration": 0.25,
          "durationTicks": 80,
          "midi": 66,
          "name": "F#4",
          "ticks": 72160,
          "time": 225.99144406666665,
          "velocity": 0.41732283464566927
        },
        {
          "duration": 0.25,
          "durationTicks": 80,
          "midi": 66,
          "name": "F#4",
          "ticks": 72240,
          "time": 226.24144406666665,
          "velocity": 0.41732283464566927
        },
        {
          "duration": 0.25,
          "durationTicks": 80,
          "midi": 66,
          "name": "F#4",
          "ticks": 72320,
          "time": 226.49144406666665,
          "velocity": 0.41732283464566927
        },
        {
          "duration": 0.25,
          "durationTicks": 80,
          "midi": 66,
          "name": "F#4",
          "ticks": 72400,
          "time": 226.74144406666665,
          "velocity": 0.41732283464566927
        },
        {
          "duration": 0.25,
          "durationTicks": 80,
          "midi": 66,
          "name": "F#4",
          "ticks": 72480,
          "time": 226.99144406666665,
          "velocity": 0.41732283464566927
        },
        {
          "duration": 0.25,
          "durationTicks": 80,
          "midi": 66,
          "name": "F#4",
          "ticks": 72560,
          "time": 227.24144406666665,
          "velocity": 0.41732283464566927
        },
        {
          "duration": 0.25,
          "durationTicks": 80,
          "midi": 66,
          "name": "F#4",
          "ticks": 72640,
          "time": 227.49144406666665,
          "velocity": 0.41732283464566927
        },
        {
          "duration": 0.25,
          "durationTicks": 80,
          "midi": 66,
          "name": "F#4",
          "ticks": 72720,
          "time": 227.74144406666665,
          "velocity": 0.41732283464566927
        },
        {
          "duration": 0.25,
          "durationTicks": 80,
          "midi": 66,
          "name": "F#4",
          "ticks": 72800,
          "time": 227.99144406666665,
          "velocity": 0.41732283464566927
        },
        {
          "duration": 0.25,
          "durationTicks": 80,
          "midi": 66,
          "name": "F#4",
          "ticks": 72880,
          "time": 228.24144406666665,
          "velocity": 0.41732283464566927
        },
        {
          "duration": 0.25,
          "durationTicks": 80,
          "midi": 65,
          "name": "F4",
          "ticks": 72960,
          "time": 228.49144406666665,
          "velocity": 0.41732283464566927
        },
        {
          "duration": 0.25,
          "durationTicks": 80,
          "midi": 65,
          "name": "F4",
          "ticks": 73040,
          "time": 228.74144406666665,
          "velocity": 0.41732283464566927
        },
        {
          "duration": 0.25,
          "durationTicks": 80,
          "midi": 65,
          "name": "F4",
          "ticks": 73120,
          "time": 228.99144406666665,
          "velocity": 0.41732283464566927
        },
        {
          "duration": 0.25,
          "durationTicks": 80,
          "midi": 65,
          "name": "F4",
          "ticks": 73200,
          "time": 229.24144406666665,
          "velocity": 0.41732283464566927
        },
        {
          "duration": 0.25,
          "durationTicks": 80,
          "midi": 65,
          "name": "F4",
          "ticks": 73280,
          "time": 229.49144406666665,
          "velocity": 0.41732283464566927
        },
        {
          "duration": 0.25,
          "durationTicks": 80,
          "midi": 65,
          "name": "F4",
          "ticks": 73360,
          "time": 229.74144406666665,
          "velocity": 0.41732283464566927
        },
        {
          "duration": 0.25,
          "durationTicks": 80,
          "midi": 70,
          "name": "A#4",
          "ticks": 73440,
          "time": 229.99144406666665,
          "velocity": 0.49606299212598426
        },
        {
          "duration": 0.25,
          "durationTicks": 80,
          "midi": 70,
          "name": "A#4",
          "ticks": 73520,
          "time": 230.24144406666665,
          "velocity": 0.41732283464566927
        },
        {
          "duration": 0.25,
          "durationTicks": 80,
          "midi": 70,
          "name": "A#4",
          "ticks": 73600,
          "time": 230.49144406666665,
          "velocity": 0.41732283464566927
        },
        {
          "duration": 0.25,
          "durationTicks": 80,
          "midi": 70,
          "name": "A#4",
          "ticks": 73680,
          "time": 230.74144406666665,
          "velocity": 0.41732283464566927
        },
        {
          "duration": 0.25,
          "durationTicks": 80,
          "midi": 70,
          "name": "A#4",
          "ticks": 73760,
          "time": 230.99144406666665,
          "velocity": 0.41732283464566927
        },
        {
          "duration": 0.25,
          "durationTicks": 80,
          "midi": 70,
          "name": "A#4",
          "ticks": 73840,
          "time": 231.24144406666665,
          "velocity": 0.41732283464566927
        },
        {
          "duration": 0.2500000000000284,
          "durationTicks": 80,
          "midi": 70,
          "name": "A#4",
          "ticks": 73916,
          "time": 231.47894406666663,
          "velocity": 0.41732283464566927
        },
        {
          "duration": 0.25,
          "durationTicks": 80,
          "midi": 70,
          "name": "A#4",
          "ticks": 74004,
          "time": 231.75394406666663,
          "velocity": 0.41732283464566927
        },
        {
          "duration": 0.25,
          "durationTicks": 80,
          "midi": 70,
          "name": "A#4",
          "ticks": 74076,
          "time": 231.97894406666663,
          "velocity": 0.41732283464566927
        },
        {
          "duration": 0.25,
          "durationTicks": 80,
          "midi": 70,
          "name": "A#4",
          "ticks": 74160,
          "time": 232.24144406666665,
          "velocity": 0.41732283464566927
        },
        {
          "duration": 0.25,
          "durationTicks": 80,
          "midi": 70,
          "name": "A#4",
          "ticks": 74240,
          "time": 232.49144406666665,
          "velocity": 0.41732283464566927
        },
        {
          "duration": 0.25,
          "durationTicks": 80,
          "midi": 70,
          "name": "A#4",
          "ticks": 74320,
          "time": 232.74144406666665,
          "velocity": 0.41732283464566927
        },
        {
          "duration": 0.25,
          "durationTicks": 80,
          "midi": 68,
          "name": "G#4",
          "ticks": 74400,
          "time": 232.99144406666665,
          "velocity": 0.41732283464566927
        },
        {
          "duration": 0.25,
          "durationTicks": 80,
          "midi": 68,
          "name": "G#4",
          "ticks": 74480,
          "time": 233.24144406666665,
          "velocity": 0.41732283464566927
        },
        {
          "duration": 0.25,
          "durationTicks": 80,
          "midi": 68,
          "name": "G#4",
          "ticks": 74560,
          "time": 233.49144406666665,
          "velocity": 0.41732283464566927
        },
        {
          "duration": 0.25,
          "durationTicks": 80,
          "midi": 68,
          "name": "G#4",
          "ticks": 74640,
          "time": 233.74144406666665,
          "velocity": 0.41732283464566927
        },
        {
          "duration": 0.25,
          "durationTicks": 80,
          "midi": 68,
          "name": "G#4",
          "ticks": 74720,
          "time": 233.99144406666665,
          "velocity": 0.41732283464566927
        },
        {
          "duration": 0.25,
          "durationTicks": 80,
          "midi": 68,
          "name": "G#4",
          "ticks": 74800,
          "time": 234.24144406666665,
          "velocity": 0.41732283464566927
        },
        {
          "duration": 0.25,
          "durationTicks": 80,
          "midi": 67,
          "name": "G4",
          "ticks": 74880,
          "time": 234.49144406666665,
          "velocity": 0.49606299212598426
        },
        {
          "duration": 0.25,
          "durationTicks": 80,
          "midi": 67,
          "name": "G4",
          "ticks": 74960,
          "time": 234.74144406666665,
          "velocity": 0.41732283464566927
        },
        {
          "duration": 0.25,
          "durationTicks": 80,
          "midi": 67,
          "name": "G4",
          "ticks": 75040,
          "time": 234.99144406666665,
          "velocity": 0.41732283464566927
        },
        {
          "duration": 0.25,
          "durationTicks": 80,
          "midi": 67,
          "name": "G4",
          "ticks": 75120,
          "time": 235.24144406666665,
          "velocity": 0.41732283464566927
        },
        {
          "duration": 0.25,
          "durationTicks": 80,
          "midi": 67,
          "name": "G4",
          "ticks": 75200,
          "time": 235.49144406666665,
          "velocity": 0.41732283464566927
        },
        {
          "duration": 0.25,
          "durationTicks": 80,
          "midi": 67,
          "name": "G4",
          "ticks": 75280,
          "time": 235.74144406666665,
          "velocity": 0.41732283464566927
        },
        {
          "duration": 0.25,
          "durationTicks": 80,
          "midi": 72,
          "name": "C5",
          "ticks": 75360,
          "time": 235.99144406666665,
          "velocity": 0.41732283464566927
        },
        {
          "duration": 0.25,
          "durationTicks": 80,
          "midi": 72,
          "name": "C5",
          "ticks": 75440,
          "time": 236.24144406666665,
          "velocity": 0.41732283464566927
        },
        {
          "duration": 0.25,
          "durationTicks": 80,
          "midi": 72,
          "name": "C5",
          "ticks": 75520,
          "time": 236.49144406666665,
          "velocity": 0.41732283464566927
        },
        {
          "duration": 0.25,
          "durationTicks": 80,
          "midi": 72,
          "name": "C5",
          "ticks": 75600,
          "time": 236.74144406666665,
          "velocity": 0.41732283464566927
        },
        {
          "duration": 0.25,
          "durationTicks": 80,
          "midi": 72,
          "name": "C5",
          "ticks": 75680,
          "time": 236.99144406666665,
          "velocity": 0.41732283464566927
        },
        {
          "duration": 0.25,
          "durationTicks": 80,
          "midi": 72,
          "name": "C5",
          "ticks": 75760,
          "time": 237.24144406666665,
          "velocity": 0.41732283464566927
        },
        {
          "duration": 0.25,
          "durationTicks": 80,
          "midi": 72,
          "name": "C5",
          "ticks": 75840,
          "time": 237.49144406666665,
          "velocity": 0.41732283464566927
        },
        {
          "duration": 0.25,
          "durationTicks": 80,
          "midi": 72,
          "name": "C5",
          "ticks": 75920,
          "time": 237.74144406666665,
          "velocity": 0.41732283464566927
        },
        {
          "duration": 0.25,
          "durationTicks": 80,
          "midi": 72,
          "name": "C5",
          "ticks": 76000,
          "time": 237.99144406666665,
          "velocity": 0.41732283464566927
        },
        {
          "duration": 0.25,
          "durationTicks": 80,
          "midi": 72,
          "name": "C5",
          "ticks": 76080,
          "time": 238.24144406666665,
          "velocity": 0.41732283464566927
        },
        {
          "duration": 0.25,
          "durationTicks": 80,
          "midi": 72,
          "name": "C5",
          "ticks": 76160,
          "time": 238.49144406666665,
          "velocity": 0.41732283464566927
        },
        {
          "duration": 0.25,
          "durationTicks": 80,
          "midi": 72,
          "name": "C5",
          "ticks": 76240,
          "time": 238.74144406666665,
          "velocity": 0.41732283464566927
        },
        {
          "duration": 0.25,
          "durationTicks": 80,
          "midi": 70,
          "name": "A#4",
          "ticks": 76320,
          "time": 238.99144406666665,
          "velocity": 0.41732283464566927
        },
        {
          "duration": 0.25,
          "durationTicks": 80,
          "midi": 70,
          "name": "A#4",
          "ticks": 76400,
          "time": 239.24144406666665,
          "velocity": 0.41732283464566927
        },
        {
          "duration": 0.25,
          "durationTicks": 80,
          "midi": 70,
          "name": "A#4",
          "ticks": 76480,
          "time": 239.49144406666665,
          "velocity": 0.41732283464566927
        },
        {
          "duration": 0.25,
          "durationTicks": 80,
          "midi": 70,
          "name": "A#4",
          "ticks": 76560,
          "time": 239.74144406666665,
          "velocity": 0.41732283464566927
        },
        {
          "duration": 0.25,
          "durationTicks": 80,
          "midi": 70,
          "name": "A#4",
          "ticks": 76640,
          "time": 239.99144406666665,
          "velocity": 0.41732283464566927
        },
        {
          "duration": 0.25,
          "durationTicks": 80,
          "midi": 70,
          "name": "A#4",
          "ticks": 76720,
          "time": 240.24144406666665,
          "velocity": 0.41732283464566927
        },
        {
          "duration": 0.25,
          "durationTicks": 80,
          "midi": 69,
          "name": "A4",
          "ticks": 76800,
          "time": 240.49144406666665,
          "velocity": 0.41732283464566927
        },
        {
          "duration": 0.25,
          "durationTicks": 80,
          "midi": 69,
          "name": "A4",
          "ticks": 76880,
          "time": 240.74144406666665,
          "velocity": 0.41732283464566927
        },
        {
          "duration": 0.25,
          "durationTicks": 80,
          "midi": 69,
          "name": "A4",
          "ticks": 76960,
          "time": 240.99144406666665,
          "velocity": 0.41732283464566927
        },
        {
          "duration": 0.25,
          "durationTicks": 80,
          "midi": 69,
          "name": "A4",
          "ticks": 77040,
          "time": 241.24144406666665,
          "velocity": 0.41732283464566927
        },
        {
          "duration": 0.25,
          "durationTicks": 80,
          "midi": 69,
          "name": "A4",
          "ticks": 77120,
          "time": 241.49144406666665,
          "velocity": 0.41732283464566927
        },
        {
          "duration": 0.25,
          "durationTicks": 80,
          "midi": 69,
          "name": "A4",
          "ticks": 77200,
          "time": 241.74144406666665,
          "velocity": 0.41732283464566927
        },
        {
          "duration": 0.25,
          "durationTicks": 80,
          "midi": 69,
          "name": "A4",
          "ticks": 77280,
          "time": 241.99144406666665,
          "velocity": 0.41732283464566927
        },
        {
          "duration": 0.25,
          "durationTicks": 80,
          "midi": 69,
          "name": "A4",
          "ticks": 77360,
          "time": 242.24144406666665,
          "velocity": 0.41732283464566927
        },
        {
          "duration": 0.25,
          "durationTicks": 80,
          "midi": 69,
          "name": "A4",
          "ticks": 77440,
          "time": 242.49144406666665,
          "velocity": 0.41732283464566927
        },
        {
          "duration": 0.25,
          "durationTicks": 80,
          "midi": 69,
          "name": "A4",
          "ticks": 77520,
          "time": 242.74144406666665,
          "velocity": 0.41732283464566927
        },
        {
          "duration": 0.25,
          "durationTicks": 80,
          "midi": 69,
          "name": "A4",
          "ticks": 77600,
          "time": 242.99144406666665,
          "velocity": 0.41732283464566927
        },
        {
          "duration": 0.25,
          "durationTicks": 80,
          "midi": 69,
          "name": "A4",
          "ticks": 77680,
          "time": 243.24144406666665,
          "velocity": 0.41732283464566927
        },
        {
          "duration": 0.25,
          "durationTicks": 80,
          "midi": 69,
          "name": "A4",
          "ticks": 77760,
          "time": 243.49144406666665,
          "velocity": 0.41732283464566927
        },
        {
          "duration": 0.25,
          "durationTicks": 80,
          "midi": 69,
          "name": "A4",
          "ticks": 77840,
          "time": 243.74144406666665,
          "velocity": 0.41732283464566927
        },
        {
          "duration": 0.25,
          "durationTicks": 80,
          "midi": 69,
          "name": "A4",
          "ticks": 77920,
          "time": 243.99144406666665,
          "velocity": 0.41732283464566927
        },
        {
          "duration": 0.25,
          "durationTicks": 80,
          "midi": 69,
          "name": "A4",
          "ticks": 78000,
          "time": 244.24144406666665,
          "velocity": 0.41732283464566927
        },
        {
          "duration": 0.25,
          "durationTicks": 80,
          "midi": 69,
          "name": "A4",
          "ticks": 78080,
          "time": 244.49144406666665,
          "velocity": 0.41732283464566927
        },
        {
          "duration": 0.25,
          "durationTicks": 80,
          "midi": 69,
          "name": "A4",
          "ticks": 78160,
          "time": 244.74144406666665,
          "velocity": 0.41732283464566927
        },
        {
          "duration": 0.25,
          "durationTicks": 80,
          "midi": 67,
          "name": "G4",
          "ticks": 78240,
          "time": 244.99144406666665,
          "velocity": 0.41732283464566927
        },
        {
          "duration": 0.25,
          "durationTicks": 80,
          "midi": 67,
          "name": "G4",
          "ticks": 78320,
          "time": 245.24144406666665,
          "velocity": 0.41732283464566927
        },
        {
          "duration": 0.25,
          "durationTicks": 80,
          "midi": 67,
          "name": "G4",
          "ticks": 78400,
          "time": 245.49144406666665,
          "velocity": 0.41732283464566927
        },
        {
          "duration": 0.25,
          "durationTicks": 80,
          "midi": 67,
          "name": "G4",
          "ticks": 78480,
          "time": 245.74144406666665,
          "velocity": 0.41732283464566927
        },
        {
          "duration": 0.25,
          "durationTicks": 80,
          "midi": 67,
          "name": "G4",
          "ticks": 78560,
          "time": 245.99144406666665,
          "velocity": 0.41732283464566927
        },
        {
          "duration": 0.25,
          "durationTicks": 80,
          "midi": 67,
          "name": "G4",
          "ticks": 78640,
          "time": 246.24144406666665,
          "velocity": 0.41732283464566927
        },
        {
          "duration": 0.75,
          "durationTicks": 240,
          "midi": 65,
          "name": "F4",
          "ticks": 78720,
          "time": 246.49144406666665,
          "velocity": 0.41732283464566927
        },
        {
          "duration": 0.25,
          "durationTicks": 80,
          "midi": 62,
          "name": "D4",
          "ticks": 78960,
          "time": 247.24144406666665,
          "velocity": 0.41732283464566927
        },
        {
          "duration": 0.25,
          "durationTicks": 80,
          "midi": 61,
          "name": "C#4",
          "ticks": 79040,
          "time": 247.49144406666665,
          "velocity": 0.41732283464566927
        },
        {
          "duration": 0.25,
          "durationTicks": 80,
          "midi": 59,
          "name": "B3",
          "ticks": 79120,
          "time": 247.74144406666665,
          "velocity": 0.41732283464566927
        },
        {
          "duration": 0.75,
          "durationTicks": 240,
          "midi": 57,
          "name": "A3",
          "ticks": 79200,
          "time": 247.99144406666665,
          "velocity": 0.4251968503937008
        },
        {
          "duration": 0.25,
          "durationTicks": 80,
          "midi": 62,
          "name": "D4",
          "ticks": 79680,
          "time": 249.49144406666665,
          "velocity": 0.4409448818897638
        },
        {
          "duration": 0.25,
          "durationTicks": 80,
          "midi": 61,
          "name": "C#4",
          "ticks": 79760,
          "time": 249.74144406666665,
          "velocity": 0.4409448818897638
        },
        {
          "duration": 0.25,
          "durationTicks": 80,
          "midi": 62,
          "name": "D4",
          "ticks": 79840,
          "time": 249.99144406666665,
          "velocity": 0.4330708661417323
        },
        {
          "duration": 0.25,
          "durationTicks": 80,
          "midi": 65,
          "name": "F4",
          "ticks": 79920,
          "time": 250.24144406666665,
          "velocity": 0.4251968503937008
        },
        {
          "duration": 0.25,
          "durationTicks": 80,
          "midi": 64,
          "name": "E4",
          "ticks": 80000,
          "time": 250.49144406666665,
          "velocity": 0.4251968503937008
        },
        {
          "duration": 0.25,
          "durationTicks": 80,
          "midi": 62,
          "name": "D4",
          "ticks": 80080,
          "time": 250.74144406666665,
          "velocity": 0.4251968503937008
        },
        {
          "duration": 0.75,
          "durationTicks": 240,
          "midi": 61,
          "name": "C#4",
          "ticks": 80160,
          "time": 250.99144406666665,
          "velocity": 0.4251968503937008
        },
        {
          "duration": 1.5,
          "durationTicks": 480,
          "midi": 68,
          "name": "G#4",
          "ticks": 80640,
          "time": 252.49144406666665,
          "velocity": 0.4015748031496063
        },
        {
          "duration": 0.75,
          "durationTicks": 240,
          "midi": 69,
          "name": "A4",
          "ticks": 81120,
          "time": 253.99144406666665,
          "velocity": 0.4015748031496063
        },
        {
          "duration": 0.25,
          "durationTicks": 80,
          "midi": 74,
          "name": "D5",
          "ticks": 81600,
          "time": 255.49144406666665,
          "velocity": 0.4330708661417323
        },
        {
          "duration": 0.25,
          "durationTicks": 80,
          "midi": 73,
          "name": "C#5",
          "ticks": 81680,
          "time": 255.74144406666665,
          "velocity": 0.4330708661417323
        },
        {
          "duration": 0.25,
          "durationTicks": 80,
          "midi": 74,
          "name": "D5",
          "ticks": 81760,
          "time": 255.99144406666665,
          "velocity": 0.4251968503937008
        },
        {
          "duration": 0.25,
          "durationTicks": 80,
          "midi": 77,
          "name": "F5",
          "ticks": 81840,
          "time": 256.24144406666665,
          "velocity": 0.4409448818897638
        },
        {
          "duration": 0.25,
          "durationTicks": 80,
          "midi": 76,
          "name": "E5",
          "ticks": 81920,
          "time": 256.49144406666665,
          "velocity": 0.4330708661417323
        },
        {
          "duration": 0.25,
          "durationTicks": 80,
          "midi": 74,
          "name": "D5",
          "ticks": 82000,
          "time": 256.74144406666665,
          "velocity": 0.41732283464566927
        },
        {
          "duration": 0.75,
          "durationTicks": 240,
          "midi": 73,
          "name": "C#5",
          "ticks": 82080,
          "time": 256.99144406666665,
          "velocity": 0.4094488188976378
        },
        {
          "duration": 0.6875,
          "durationTicks": 220,
          "midi": 62,
          "name": "D4",
          "ticks": 82800,
          "time": 259.24144406666665,
          "velocity": 0.3858267716535433
        },
        {
          "duration": 0.6875,
          "durationTicks": 220,
          "midi": 61,
          "name": "C#4",
          "ticks": 83280,
          "time": 260.74144406666665,
          "velocity": 0.3858267716535433
        },
        {
          "duration": 0.6875,
          "durationTicks": 220,
          "midi": 60,
          "name": "C4",
          "ticks": 83760,
          "time": 262.24144406666665,
          "velocity": 0.3858267716535433
        },
        {
          "duration": 0.6910256833333506,
          "durationTicks": 220,
          "midi": 59,
          "name": "B3",
          "ticks": 84240,
          "time": 263.74144406666665,
          "velocity": 0.3858267716535433
        },
        {
          "duration": 0.7638890416666868,
          "durationTicks": 220,
          "midi": 58,
          "name": "A#3",
          "ticks": 84720,
          "time": 265.2872070833333,
          "velocity": 0.3858267716535433
        },
        {
          "duration": 0.7125000000000341,
          "durationTicks": 228,
          "midi": 57,
          "name": "A3",
          "ticks": 84960,
          "time": 266.1177627999999,
          "velocity": 0.3543307086614173
        },
        {
          "duration": 0.7125000000000341,
          "durationTicks": 228,
          "midi": 60,
          "name": "C4",
          "ticks": 85200,
          "time": 266.8677627999999,
          "velocity": 0.3543307086614173
        },
        {
          "duration": 0.7125000000000341,
          "durationTicks": 228,
          "midi": 60,
          "name": "C4",
          "ticks": 85440,
          "time": 267.6177627999999,
          "velocity": 0.3543307086614173
        },
        {
          "duration": 0.7125000000000341,
          "durationTicks": 228,
          "midi": 60,
          "name": "C4",
          "ticks": 85680,
          "time": 268.3677627999999,
          "velocity": 0.3543307086614173
        },
        {
          "duration": 0.7125000000000341,
          "durationTicks": 228,
          "midi": 60,
          "name": "C4",
          "ticks": 85920,
          "time": 269.1177627999999,
          "velocity": 0.3543307086614173
        },
        {
          "duration": 0.7125000000000341,
          "durationTicks": 228,
          "midi": 60,
          "name": "C4",
          "ticks": 86160,
          "time": 269.8677627999999,
          "velocity": 0.3543307086614173
        },
        {
          "duration": 0.7125000000000341,
          "durationTicks": 228,
          "midi": 60,
          "name": "C4",
          "ticks": 86400,
          "time": 270.6177627999999,
          "velocity": 0.3543307086614173
        },
        {
          "duration": 0.7125000000000341,
          "durationTicks": 228,
          "midi": 60,
          "name": "C4",
          "ticks": 86640,
          "time": 271.3677627999999,
          "velocity": 0.3543307086614173
        },
        {
          "duration": 0.7125000000000341,
          "durationTicks": 228,
          "midi": 60,
          "name": "C4",
          "ticks": 86880,
          "time": 272.1177627999999,
          "velocity": 0.3543307086614173
        },
        {
          "duration": 0.7125000000000341,
          "durationTicks": 228,
          "midi": 60,
          "name": "C4",
          "ticks": 87120,
          "time": 272.8677627999999,
          "velocity": 0.3543307086614173
        },
        {
          "duration": 0.7125000000000341,
          "durationTicks": 228,
          "midi": 60,
          "name": "C4",
          "ticks": 87360,
          "time": 273.6177627999999,
          "velocity": 0.3543307086614173
        },
        {
          "duration": 0.7125000000000341,
          "durationTicks": 228,
          "midi": 60,
          "name": "C4",
          "ticks": 87600,
          "time": 274.3677627999999,
          "velocity": 0.3543307086614173
        },
        {
          "duration": 0.7125000000000341,
          "durationTicks": 228,
          "midi": 60,
          "name": "C4",
          "ticks": 87840,
          "time": 275.1177627999999,
          "velocity": 0.3543307086614173
        },
        {
          "duration": 0.7125000000000341,
          "durationTicks": 228,
          "midi": 60,
          "name": "C4",
          "ticks": 88080,
          "time": 275.8677627999999,
          "velocity": 0.3543307086614173
        },
        {
          "duration": 0.7125000000000341,
          "durationTicks": 228,
          "midi": 60,
          "name": "C4",
          "ticks": 88320,
          "time": 276.6177627999999,
          "velocity": 0.3543307086614173
        },
        {
          "duration": 0.7125000000000341,
          "durationTicks": 228,
          "midi": 60,
          "name": "C4",
          "ticks": 88560,
          "time": 277.3677627999999,
          "velocity": 0.3543307086614173
        },
        {
          "duration": 0.7125000000000341,
          "durationTicks": 228,
          "midi": 60,
          "name": "C4",
          "ticks": 88800,
          "time": 278.1177627999999,
          "velocity": 0.3543307086614173
        },
        {
          "duration": 0.7125000000000341,
          "durationTicks": 228,
          "midi": 60,
          "name": "C4",
          "ticks": 89040,
          "time": 278.8677627999999,
          "velocity": 0.3543307086614173
        },
        {
          "duration": 0.7125000000000341,
          "durationTicks": 228,
          "midi": 60,
          "name": "C4",
          "ticks": 89280,
          "time": 279.6177627999999,
          "velocity": 0.3543307086614173
        },
        {
          "duration": 0.7125000000000341,
          "durationTicks": 228,
          "midi": 60,
          "name": "C4",
          "ticks": 89520,
          "time": 280.3677627999999,
          "velocity": 0.3543307086614173
        },
        {
          "duration": 0.7125000000000341,
          "durationTicks": 228,
          "midi": 63,
          "name": "D#4",
          "ticks": 89760,
          "time": 281.1177627999999,
          "velocity": 0.3543307086614173
        },
        {
          "duration": 0.7125000000000341,
          "durationTicks": 228,
          "midi": 63,
          "name": "D#4",
          "ticks": 90000,
          "time": 281.8677627999999,
          "velocity": 0.3543307086614173
        },
        {
          "duration": 0.7125000000000341,
          "durationTicks": 228,
          "midi": 60,
          "name": "C4",
          "ticks": 90240,
          "time": 282.6177627999999,
          "velocity": 0.3543307086614173
        },
        {
          "duration": 0.7125000000000341,
          "durationTicks": 228,
          "midi": 60,
          "name": "C4",
          "ticks": 90480,
          "time": 283.3677627999999,
          "velocity": 0.3543307086614173
        },
        {
          "duration": 1.5,
          "durationTicks": 480,
          "midi": 58,
          "name": "A#3",
          "ticks": 90720,
          "time": 284.1177627999999,
          "velocity": 0.3543307086614173
        },
        {
          "duration": 0.1875,
          "durationTicks": 60,
          "midi": 59,
          "name": "B3",
          "ticks": 92700,
          "time": 290.3052627999999,
          "velocity": 0.3779527559055118
        },
        {
          "duration": 0.1875,
          "durationTicks": 60,
          "midi": 60,
          "name": "C4",
          "ticks": 92760,
          "time": 290.4927627999999,
          "velocity": 0.3779527559055118
        },
        {
          "duration": 0.1875,
          "durationTicks": 60,
          "midi": 59,
          "name": "B3",
          "ticks": 92820,
          "time": 290.6802627999999,
          "velocity": 0.3779527559055118
        },
        {
          "duration": 0.1875,
          "durationTicks": 60,
          "midi": 60,
          "name": "C4",
          "ticks": 92880,
          "time": 290.8677627999999,
          "velocity": 0.3779527559055118
        },
        {
          "duration": 0.1875,
          "durationTicks": 60,
          "midi": 62,
          "name": "D4",
          "ticks": 92940,
          "time": 291.0552627999999,
          "velocity": 0.3779527559055118
        },
        {
          "duration": 0.1875,
          "durationTicks": 60,
          "midi": 63,
          "name": "D#4",
          "ticks": 93000,
          "time": 291.2427627999999,
          "velocity": 0.3779527559055118
        },
        {
          "duration": 0.1875,
          "durationTicks": 60,
          "midi": 62,
          "name": "D4",
          "ticks": 93060,
          "time": 291.4302627999999,
          "velocity": 0.3779527559055118
        },
        {
          "duration": 0.1875,
          "durationTicks": 60,
          "midi": 63,
          "name": "D#4",
          "ticks": 93120,
          "time": 291.6177627999999,
          "velocity": 0.3779527559055118
        },
        {
          "duration": 0.1875,
          "durationTicks": 60,
          "midi": 66,
          "name": "F#4",
          "ticks": 93180,
          "time": 291.8052627999999,
          "velocity": 0.3779527559055118
        },
        {
          "duration": 0.1875,
          "durationTicks": 60,
          "midi": 67,
          "name": "G4",
          "ticks": 93240,
          "time": 291.9927627999999,
          "velocity": 0.3779527559055118
        },
        {
          "duration": 0.1875,
          "durationTicks": 60,
          "midi": 62,
          "name": "D4",
          "ticks": 93300,
          "time": 292.1802627999999,
          "velocity": 0.3779527559055118
        },
        {
          "duration": 0.1875,
          "durationTicks": 60,
          "midi": 65,
          "name": "F4",
          "ticks": 93360,
          "time": 292.3677627999999,
          "velocity": 0.3779527559055118
        },
        {
          "duration": 0.1875,
          "durationTicks": 60,
          "midi": 63,
          "name": "D#4",
          "ticks": 93420,
          "time": 292.5552627999999,
          "velocity": 0.3779527559055118
        },
        {
          "duration": 0.1875,
          "durationTicks": 60,
          "midi": 62,
          "name": "D4",
          "ticks": 93480,
          "time": 292.7427627999999,
          "velocity": 0.3779527559055118
        },
        {
          "duration": 0.1875,
          "durationTicks": 60,
          "midi": 60,
          "name": "C4",
          "ticks": 93540,
          "time": 292.9302627999999,
          "velocity": 0.3779527559055118
        },
        {
          "duration": 1.5,
          "durationTicks": 480,
          "midi": 58,
          "name": "A#3",
          "ticks": 93600,
          "time": 293.1177627999999,
          "velocity": 0.3779527559055118
        },
        {
          "duration": 0.75,
          "durationTicks": 240,
          "midi": 57,
          "name": "A3",
          "ticks": 94080,
          "time": 294.6177627999999,
          "velocity": 0.3779527559055118
        },
        {
          "duration": 0.1875,
          "durationTicks": 60,
          "midi": 64,
          "name": "E4",
          "ticks": 97920,
          "time": 306.6177627999999,
          "velocity": 0.4409448818897638
        },
        {
          "duration": 0.1875,
          "durationTicks": 60,
          "midi": 62,
          "name": "D4",
          "ticks": 97980,
          "time": 306.8052627999999,
          "velocity": 0.4409448818897638
        },
        {
          "duration": 0.1875,
          "durationTicks": 60,
          "midi": 60,
          "name": "C4",
          "ticks": 98040,
          "time": 306.9927627999999,
          "velocity": 0.4409448818897638
        },
        {
          "duration": 0.1875,
          "durationTicks": 60,
          "midi": 62,
          "name": "D4",
          "ticks": 98100,
          "time": 307.1802627999999,
          "velocity": 0.4409448818897638
        },
        {
          "duration": 0.1875,
          "durationTicks": 60,
          "midi": 64,
          "name": "E4",
          "ticks": 98160,
          "time": 307.3677627999999,
          "velocity": 0.4409448818897638
        },
        {
          "duration": 0.1875,
          "durationTicks": 60,
          "midi": 65,
          "name": "F4",
          "ticks": 98220,
          "time": 307.5552627999999,
          "velocity": 0.4409448818897638
        },
        {
          "duration": 0.1875,
          "durationTicks": 60,
          "midi": 67,
          "name": "G4",
          "ticks": 98280,
          "time": 307.7427627999999,
          "velocity": 0.4409448818897638
        },
        {
          "duration": 0.1875,
          "durationTicks": 60,
          "midi": 69,
          "name": "A4",
          "ticks": 98340,
          "time": 307.9302627999999,
          "velocity": 0.4409448818897638
        },
        {
          "duration": 0.1875,
          "durationTicks": 60,
          "midi": 70,
          "name": "A#4",
          "ticks": 98400,
          "time": 308.1177627999999,
          "velocity": 0.4409448818897638
        },
        {
          "duration": 0.1875,
          "durationTicks": 60,
          "midi": 72,
          "name": "C5",
          "ticks": 98460,
          "time": 308.3052627999999,
          "velocity": 0.4409448818897638
        },
        {
          "duration": 0.1875,
          "durationTicks": 60,
          "midi": 74,
          "name": "D5",
          "ticks": 98520,
          "time": 308.4927627999999,
          "velocity": 0.4409448818897638
        },
        {
          "duration": 0.1875,
          "durationTicks": 60,
          "midi": 70,
          "name": "A#4",
          "ticks": 98580,
          "time": 308.6802627999999,
          "velocity": 0.4409448818897638
        },
        {
          "duration": 0.1875,
          "durationTicks": 60,
          "midi": 69,
          "name": "A4",
          "ticks": 98640,
          "time": 308.8677627999999,
          "velocity": 0.4409448818897638
        },
        {
          "duration": 0.1875,
          "durationTicks": 60,
          "midi": 67,
          "name": "G4",
          "ticks": 98700,
          "time": 309.0552627999999,
          "velocity": 0.4409448818897638
        },
        {
          "duration": 0.1875,
          "durationTicks": 60,
          "midi": 65,
          "name": "F4",
          "ticks": 98760,
          "time": 309.2427627999999,
          "velocity": 0.4409448818897638
        },
        {
          "duration": 0.1875,
          "durationTicks": 60,
          "midi": 64,
          "name": "E4",
          "ticks": 98820,
          "time": 309.4302627999999,
          "velocity": 0.4409448818897638
        },
        {
          "duration": 0.1875,
          "durationTicks": 60,
          "midi": 65,
          "name": "F4",
          "ticks": 98880,
          "time": 309.6177627999999,
          "velocity": 0.4409448818897638
        },
        {
          "duration": 0.1875,
          "durationTicks": 60,
          "midi": 60,
          "name": "C4",
          "ticks": 98940,
          "time": 309.8052627999999,
          "velocity": 0.4409448818897638
        },
        {
          "duration": 0.1875,
          "durationTicks": 60,
          "midi": 62,
          "name": "D4",
          "ticks": 99000,
          "time": 309.9927627999999,
          "velocity": 0.4409448818897638
        },
        {
          "duration": 0.1875,
          "durationTicks": 60,
          "midi": 64,
          "name": "E4",
          "ticks": 99060,
          "time": 310.1802627999999,
          "velocity": 0.4409448818897638
        },
        {
          "duration": 0.1875,
          "durationTicks": 60,
          "midi": 65,
          "name": "F4",
          "ticks": 99120,
          "time": 310.3677627999999,
          "velocity": 0.4409448818897638
        },
        {
          "duration": 0.1875,
          "durationTicks": 60,
          "midi": 67,
          "name": "G4",
          "ticks": 99180,
          "time": 310.5552627999999,
          "velocity": 0.4409448818897638
        },
        {
          "duration": 0.1875,
          "durationTicks": 60,
          "midi": 69,
          "name": "A4",
          "ticks": 99240,
          "time": 310.7427627999999,
          "velocity": 0.4409448818897638
        },
        {
          "duration": 0.1875,
          "durationTicks": 60,
          "midi": 70,
          "name": "A#4",
          "ticks": 99300,
          "time": 310.9302627999999,
          "velocity": 0.4409448818897638
        },
        {
          "duration": 0.1875,
          "durationTicks": 60,
          "midi": 72,
          "name": "C5",
          "ticks": 99360,
          "time": 311.1177627999999,
          "velocity": 0.4409448818897638
        },
        {
          "duration": 0.1875,
          "durationTicks": 60,
          "midi": 74,
          "name": "D5",
          "ticks": 99420,
          "time": 311.3052627999999,
          "velocity": 0.3937007874015748
        },
        {
          "duration": 0.1875,
          "durationTicks": 60,
          "midi": 72,
          "name": "C5",
          "ticks": 99480,
          "time": 311.4927627999999,
          "velocity": 0.3937007874015748
        },
        {
          "duration": 0.1875,
          "durationTicks": 60,
          "midi": 70,
          "name": "A#4",
          "ticks": 99540,
          "time": 311.6802627999999,
          "velocity": 0.3937007874015748
        },
        {
          "duration": 0.1875,
          "durationTicks": 60,
          "midi": 69,
          "name": "A4",
          "ticks": 99600,
          "time": 311.8677627999999,
          "velocity": 0.3937007874015748
        },
        {
          "duration": 0.1875,
          "durationTicks": 60,
          "midi": 67,
          "name": "G4",
          "ticks": 99660,
          "time": 312.0552627999999,
          "velocity": 0.3937007874015748
        },
        {
          "duration": 0.1875,
          "durationTicks": 60,
          "midi": 65,
          "name": "F4",
          "ticks": 99720,
          "time": 312.2427627999999,
          "velocity": 0.3937007874015748
        },
        {
          "duration": 0.1875,
          "durationTicks": 60,
          "midi": 64,
          "name": "E4",
          "ticks": 99780,
          "time": 312.4302627999999,
          "velocity": 0.3937007874015748
        },
        {
          "duration": 0.1875,
          "durationTicks": 60,
          "midi": 65,
          "name": "F4",
          "ticks": 99840,
          "time": 312.6177627999999,
          "velocity": 0.3937007874015748
        },
        {
          "duration": 0.1875,
          "durationTicks": 60,
          "midi": 67,
          "name": "G4",
          "ticks": 99900,
          "time": 312.8052627999999,
          "velocity": 0.3937007874015748
        },
        {
          "duration": 0.1875,
          "durationTicks": 60,
          "midi": 69,
          "name": "A4",
          "ticks": 99960,
          "time": 312.9927627999999,
          "velocity": 0.3937007874015748
        },
        {
          "duration": 0.1875,
          "durationTicks": 60,
          "midi": 67,
          "name": "G4",
          "ticks": 100020,
          "time": 313.1802627999999,
          "velocity": 0.3937007874015748
        },
        {
          "duration": 0.1875,
          "durationTicks": 60,
          "midi": 65,
          "name": "F4",
          "ticks": 100080,
          "time": 313.3677627999999,
          "velocity": 0.3937007874015748
        },
        {
          "duration": 0.1875,
          "durationTicks": 60,
          "midi": 64,
          "name": "E4",
          "ticks": 100140,
          "time": 313.5552627999999,
          "velocity": 0.3937007874015748
        },
        {
          "duration": 0.1875,
          "durationTicks": 60,
          "midi": 62,
          "name": "D4",
          "ticks": 100200,
          "time": 313.7427627999999,
          "velocity": 0.3937007874015748
        },
        {
          "duration": 0.1875,
          "durationTicks": 60,
          "midi": 60,
          "name": "C4",
          "ticks": 100260,
          "time": 313.9302627999999,
          "velocity": 0.3937007874015748
        },
        {
          "duration": 0.1875,
          "durationTicks": 60,
          "midi": 59,
          "name": "B3",
          "ticks": 100320,
          "time": 314.1177627999999,
          "velocity": 0.3937007874015748
        },
        {
          "duration": 0.1875,
          "durationTicks": 60,
          "midi": 69,
          "name": "A4",
          "ticks": 100380,
          "time": 314.3052627999999,
          "velocity": 0.3937007874015748
        },
        {
          "duration": 0.1875,
          "durationTicks": 60,
          "midi": 67,
          "name": "G4",
          "ticks": 100440,
          "time": 314.4927627999999,
          "velocity": 0.3937007874015748
        },
        {
          "duration": 0.1875,
          "durationTicks": 60,
          "midi": 65,
          "name": "F4",
          "ticks": 100500,
          "time": 314.6802627999999,
          "velocity": 0.3937007874015748
        },
        {
          "duration": 0.1875,
          "durationTicks": 60,
          "midi": 64,
          "name": "E4",
          "ticks": 100560,
          "time": 314.8677627999999,
          "velocity": 0.3937007874015748
        },
        {
          "duration": 0.1875,
          "durationTicks": 60,
          "midi": 62,
          "name": "D4",
          "ticks": 100620,
          "time": 315.0552627999999,
          "velocity": 0.3937007874015748
        },
        {
          "duration": 0.1875,
          "durationTicks": 60,
          "midi": 60,
          "name": "C4",
          "ticks": 100680,
          "time": 315.2427627999999,
          "velocity": 0.3937007874015748
        },
        {
          "duration": 0.1875,
          "durationTicks": 60,
          "midi": 59,
          "name": "B3",
          "ticks": 100740,
          "time": 315.4302627999999,
          "velocity": 0.3937007874015748
        },
        {
          "duration": 1.5,
          "durationTicks": 480,
          "midi": 60,
          "name": "C4",
          "ticks": 100800,
          "time": 315.6177627999999,
          "velocity": 0.5039370078740157
        },
        {
          "duration": 0.75,
          "durationTicks": 240,
          "midi": 55,
          "name": "G3",
          "ticks": 101520,
          "time": 317.8677627999999,
          "velocity": 0.48031496062992124
        },
        {
          "duration": 0.75,
          "durationTicks": 240,
          "midi": 64,
          "name": "E4",
          "ticks": 101520,
          "time": 317.8677627999999,
          "velocity": 0.48031496062992124
        },
        {
          "duration": 0.75,
          "durationTicks": 240,
          "midi": 72,
          "name": "C5",
          "ticks": 101520,
          "time": 317.8677627999999,
          "velocity": 0.48031496062992124
        },
        {
          "duration": 0.75,
          "durationTicks": 240,
          "midi": 60,
          "name": "C4",
          "ticks": 101760,
          "time": 318.6177627999999,
          "velocity": 0.48031496062992124
        },
        {
          "duration": 0.75,
          "durationTicks": 240,
          "midi": 67,
          "name": "G4",
          "ticks": 101760,
          "time": 318.6177627999999,
          "velocity": 0.48031496062992124
        },
        {
          "duration": 0.75,
          "durationTicks": 240,
          "midi": 76,
          "name": "E5",
          "ticks": 101760,
          "time": 318.6177627999999,
          "velocity": 0.48031496062992124
        },
        {
          "duration": 0.75,
          "durationTicks": 240,
          "midi": 64,
          "name": "E4",
          "ticks": 102000,
          "time": 319.3677627999999,
          "velocity": 0.48031496062992124
        },
        {
          "duration": 0.75,
          "durationTicks": 240,
          "midi": 72,
          "name": "C5",
          "ticks": 102000,
          "time": 319.3677627999999,
          "velocity": 0.48031496062992124
        },
        {
          "duration": 0.75,
          "durationTicks": 240,
          "midi": 79,
          "name": "G5",
          "ticks": 102000,
          "time": 319.3677627999999,
          "velocity": 0.48031496062992124
        },
        {
          "duration": 1.5,
          "durationTicks": 480,
          "midi": 67,
          "name": "G4",
          "ticks": 102240,
          "time": 320.1177627999999,
          "velocity": 0.48031496062992124
        },
        {
          "duration": 1.5,
          "durationTicks": 480,
          "midi": 76,
          "name": "E5",
          "ticks": 102240,
          "time": 320.1177627999999,
          "velocity": 0.48031496062992124
        },
        {
          "duration": 1.5,
          "durationTicks": 480,
          "midi": 84,
          "name": "C6",
          "ticks": 102240,
          "time": 320.1177627999999,
          "velocity": 0.48031496062992124
        },
        {
          "duration": 0.75,
          "durationTicks": 240,
          "midi": 55,
          "name": "G3",
          "ticks": 102960,
          "time": 322.3677627999999,
          "velocity": 0.48031496062992124
        },
        {
          "duration": 0.75,
          "durationTicks": 240,
          "midi": 64,
          "name": "E4",
          "ticks": 102960,
          "time": 322.3677627999999,
          "velocity": 0.48031496062992124
        },
        {
          "duration": 0.75,
          "durationTicks": 240,
          "midi": 72,
          "name": "C5",
          "ticks": 102960,
          "time": 322.3677627999999,
          "velocity": 0.48031496062992124
        },
        {
          "duration": 0.75,
          "durationTicks": 240,
          "midi": 60,
          "name": "C4",
          "ticks": 103200,
          "time": 323.1177627999999,
          "velocity": 0.48031496062992124
        },
        {
          "duration": 0.75,
          "durationTicks": 240,
          "midi": 67,
          "name": "G4",
          "ticks": 103200,
          "time": 323.1177627999999,
          "velocity": 0.48031496062992124
        },
        {
          "duration": 0.75,
          "durationTicks": 240,
          "midi": 76,
          "name": "E5",
          "ticks": 103200,
          "time": 323.1177627999999,
          "velocity": 0.48031496062992124
        },
        {
          "duration": 0.75,
          "durationTicks": 240,
          "midi": 64,
          "name": "E4",
          "ticks": 103440,
          "time": 323.8677627999999,
          "velocity": 0.48031496062992124
        },
        {
          "duration": 0.75,
          "durationTicks": 240,
          "midi": 72,
          "name": "C5",
          "ticks": 103440,
          "time": 323.8677627999999,
          "velocity": 0.48031496062992124
        },
        {
          "duration": 0.75,
          "durationTicks": 240,
          "midi": 79,
          "name": "G5",
          "ticks": 103440,
          "time": 323.8677627999999,
          "velocity": 0.48031496062992124
        },
        {
          "duration": 0.25,
          "durationTicks": 80,
          "midi": 67,
          "name": "G4",
          "ticks": 103680,
          "time": 324.6177627999999,
          "velocity": 0.4881889763779528
        },
        {
          "duration": 0.25,
          "durationTicks": 80,
          "midi": 67,
          "name": "G4",
          "ticks": 103760,
          "time": 324.8677627999999,
          "velocity": 0.4881889763779528
        },
        {
          "duration": 0.25,
          "durationTicks": 80,
          "midi": 67,
          "name": "G4",
          "ticks": 103840,
          "time": 325.1177627999999,
          "velocity": 0.4881889763779528
        },
        {
          "duration": 0.25,
          "durationTicks": 80,
          "midi": 67,
          "name": "G4",
          "ticks": 103920,
          "time": 325.3677627999999,
          "velocity": 0.4015748031496063
        },
        {
          "duration": 0.25,
          "durationTicks": 80,
          "midi": 67,
          "name": "G4",
          "ticks": 104000,
          "time": 325.6177627999999,
          "velocity": 0.4015748031496063
        },
        {
          "duration": 0.25,
          "durationTicks": 80,
          "midi": 67,
          "name": "G4",
          "ticks": 104080,
          "time": 325.8677627999999,
          "velocity": 0.4015748031496063
        },
        {
          "duration": 0.25,
          "durationTicks": 80,
          "midi": 67,
          "name": "G4",
          "ticks": 104160,
          "time": 326.1177627999999,
          "velocity": 0.4015748031496063
        },
        {
          "duration": 0.25,
          "durationTicks": 80,
          "midi": 67,
          "name": "G4",
          "ticks": 104240,
          "time": 326.3677627999999,
          "velocity": 0.4015748031496063
        },
        {
          "duration": 0.25,
          "durationTicks": 80,
          "midi": 67,
          "name": "G4",
          "ticks": 104320,
          "time": 326.6177627999999,
          "velocity": 0.4015748031496063
        },
        {
          "duration": 0.25,
          "durationTicks": 80,
          "midi": 67,
          "name": "G4",
          "ticks": 104400,
          "time": 326.8677627999999,
          "velocity": 0.4015748031496063
        },
        {
          "duration": 0.25,
          "durationTicks": 80,
          "midi": 67,
          "name": "G4",
          "ticks": 104480,
          "time": 327.1177627999999,
          "velocity": 0.4015748031496063
        },
        {
          "duration": 0.25,
          "durationTicks": 80,
          "midi": 67,
          "name": "G4",
          "ticks": 104560,
          "time": 327.3677627999999,
          "velocity": 0.4015748031496063
        },
        {
          "duration": 0.25,
          "durationTicks": 80,
          "midi": 68,
          "name": "G#4",
          "ticks": 104640,
          "time": 327.6177627999999,
          "velocity": 0.4015748031496063
        },
        {
          "duration": 0.25,
          "durationTicks": 80,
          "midi": 68,
          "name": "G#4",
          "ticks": 104720,
          "time": 327.8677627999999,
          "velocity": 0.4015748031496063
        },
        {
          "duration": 0.25,
          "durationTicks": 80,
          "midi": 68,
          "name": "G#4",
          "ticks": 104800,
          "time": 328.1177627999999,
          "velocity": 0.4015748031496063
        },
        {
          "duration": 0.25,
          "durationTicks": 80,
          "midi": 68,
          "name": "G#4",
          "ticks": 104880,
          "time": 328.3677627999999,
          "velocity": 0.4015748031496063
        },
        {
          "duration": 0.25,
          "durationTicks": 80,
          "midi": 68,
          "name": "G#4",
          "ticks": 104960,
          "time": 328.6177627999999,
          "velocity": 0.4015748031496063
        },
        {
          "duration": 0.25,
          "durationTicks": 80,
          "midi": 68,
          "name": "G#4",
          "ticks": 105040,
          "time": 328.8677627999999,
          "velocity": 0.4015748031496063
        },
        {
          "duration": 0.25,
          "durationTicks": 80,
          "midi": 67,
          "name": "G4",
          "ticks": 105120,
          "time": 329.1177627999999,
          "velocity": 0.4881889763779528
        },
        {
          "duration": 0.25,
          "durationTicks": 80,
          "midi": 67,
          "name": "G4",
          "ticks": 105200,
          "time": 329.3677627999999,
          "velocity": 0.4881889763779528
        },
        {
          "duration": 0.25,
          "durationTicks": 80,
          "midi": 67,
          "name": "G4",
          "ticks": 105280,
          "time": 329.6177627999999,
          "velocity": 0.4881889763779528
        },
        {
          "duration": 0.25,
          "durationTicks": 80,
          "midi": 67,
          "name": "G4",
          "ticks": 105360,
          "time": 329.8677627999999,
          "velocity": 0.4015748031496063
        },
        {
          "duration": 0.25,
          "durationTicks": 80,
          "midi": 67,
          "name": "G4",
          "ticks": 105440,
          "time": 330.1177627999999,
          "velocity": 0.4015748031496063
        },
        {
          "duration": 0.25,
          "durationTicks": 80,
          "midi": 67,
          "name": "G4",
          "ticks": 105520,
          "time": 330.3677627999999,
          "velocity": 0.4015748031496063
        },
        {
          "duration": 0.25,
          "durationTicks": 80,
          "midi": 67,
          "name": "G4",
          "ticks": 105600,
          "time": 330.6177627999999,
          "velocity": 0.4015748031496063
        },
        {
          "duration": 0.25,
          "durationTicks": 80,
          "midi": 67,
          "name": "G4",
          "ticks": 105680,
          "time": 330.8677627999999,
          "velocity": 0.4015748031496063
        },
        {
          "duration": 0.25,
          "durationTicks": 80,
          "midi": 67,
          "name": "G4",
          "ticks": 105760,
          "time": 331.1177627999999,
          "velocity": 0.4015748031496063
        },
        {
          "duration": 0.25,
          "durationTicks": 80,
          "midi": 67,
          "name": "G4",
          "ticks": 105840,
          "time": 331.3677627999999,
          "velocity": 0.4015748031496063
        },
        {
          "duration": 0.25,
          "durationTicks": 80,
          "midi": 67,
          "name": "G4",
          "ticks": 105920,
          "time": 331.6177627999999,
          "velocity": 0.4015748031496063
        },
        {
          "duration": 0.25,
          "durationTicks": 80,
          "midi": 67,
          "name": "G4",
          "ticks": 106000,
          "time": 331.8677627999999,
          "velocity": 0.4015748031496063
        },
        {
          "duration": 0.25,
          "durationTicks": 80,
          "midi": 68,
          "name": "G#4",
          "ticks": 106080,
          "time": 332.1177627999999,
          "velocity": 0.4015748031496063
        },
        {
          "duration": 0.25,
          "durationTicks": 80,
          "midi": 68,
          "name": "G#4",
          "ticks": 106160,
          "time": 332.3677627999999,
          "velocity": 0.4015748031496063
        },
        {
          "duration": 0.25,
          "durationTicks": 80,
          "midi": 68,
          "name": "G#4",
          "ticks": 106240,
          "time": 332.6177627999999,
          "velocity": 0.4015748031496063
        },
        {
          "duration": 0.25,
          "durationTicks": 80,
          "midi": 68,
          "name": "G#4",
          "ticks": 106320,
          "time": 332.8677627999999,
          "velocity": 0.4015748031496063
        },
        {
          "duration": 0.25,
          "durationTicks": 80,
          "midi": 68,
          "name": "G#4",
          "ticks": 106400,
          "time": 333.1177627999999,
          "velocity": 0.4015748031496063
        },
        {
          "duration": 0.25,
          "durationTicks": 80,
          "midi": 68,
          "name": "G#4",
          "ticks": 106480,
          "time": 333.3677627999999,
          "velocity": 0.4015748031496063
        },
        {
          "duration": 1.125,
          "durationTicks": 360,
          "midi": 67,
          "name": "G4",
          "ticks": 106560,
          "time": 333.6177627999999,
          "velocity": 0.4015748031496063
        },
        {
          "duration": 0.375,
          "durationTicks": 120,
          "midi": 64,
          "name": "E4",
          "ticks": 106920,
          "time": 334.7427627999999,
          "velocity": 0.4015748031496063
        },
        {
          "duration": 0.6500000000000341,
          "durationTicks": 208,
          "midi": 67,
          "name": "G4",
          "ticks": 107040,
          "time": 335.1177627999999,
          "velocity": 0.4015748031496063
        },
        {
          "duration": 0.25,
          "durationTicks": 80,
          "midi": 57,
          "name": "A3",
          "ticks": 108000,
          "time": 338.2763333666666,
          "velocity": 0.4015748031496063
        },
        {
          "duration": 0.25,
          "durationTicks": 80,
          "midi": 60,
          "name": "C4",
          "ticks": 108080,
          "time": 338.5263333666666,
          "velocity": 0.4015748031496063
        },
        {
          "duration": 0.25,
          "durationTicks": 80,
          "midi": 65,
          "name": "F4",
          "ticks": 108160,
          "time": 338.7763333666666,
          "velocity": 0.4015748031496063
        },
        {
          "duration": 0.25,
          "durationTicks": 80,
          "midi": 69,
          "name": "A4",
          "ticks": 108240,
          "time": 339.0263333666666,
          "velocity": 0.4015748031496063
        },
        {
          "duration": 0.25,
          "durationTicks": 80,
          "midi": 65,
          "name": "F4",
          "ticks": 108320,
          "time": 339.2763333666666,
          "velocity": 0.4015748031496063
        },
        {
          "duration": 0.25,
          "durationTicks": 80,
          "midi": 60,
          "name": "C4",
          "ticks": 108400,
          "time": 339.5263333666666,
          "velocity": 0.4015748031496063
        },
        {
          "duration": 0.25,
          "durationTicks": 80,
          "midi": 58,
          "name": "A#3",
          "ticks": 108480,
          "time": 339.7763333666666,
          "velocity": 0.4015748031496063
        },
        {
          "duration": 0.25,
          "durationTicks": 80,
          "midi": 60,
          "name": "C4",
          "ticks": 108560,
          "time": 340.0263333666666,
          "velocity": 0.4015748031496063
        },
        {
          "duration": 0.25,
          "durationTicks": 80,
          "midi": 64,
          "name": "E4",
          "ticks": 108640,
          "time": 340.2763333666666,
          "velocity": 0.4015748031496063
        },
        {
          "duration": 0.25,
          "durationTicks": 80,
          "midi": 67,
          "name": "G4",
          "ticks": 108720,
          "time": 340.5263333666666,
          "velocity": 0.4015748031496063
        },
        {
          "duration": 0.25,
          "durationTicks": 80,
          "midi": 64,
          "name": "E4",
          "ticks": 108800,
          "time": 340.7763333666666,
          "velocity": 0.4015748031496063
        },
        {
          "duration": 0.25,
          "durationTicks": 80,
          "midi": 60,
          "name": "C4",
          "ticks": 108880,
          "time": 341.0263333666666,
          "velocity": 0.4015748031496063
        },
        {
          "duration": 0.25,
          "durationTicks": 80,
          "midi": 57,
          "name": "A3",
          "ticks": 108960,
          "time": 341.2763333666666,
          "velocity": 0.4015748031496063
        },
        {
          "duration": 0.25,
          "durationTicks": 80,
          "midi": 60,
          "name": "C4",
          "ticks": 109040,
          "time": 341.5263333666666,
          "velocity": 0.4015748031496063
        },
        {
          "duration": 0.25,
          "durationTicks": 80,
          "midi": 65,
          "name": "F4",
          "ticks": 109120,
          "time": 341.7763333666666,
          "velocity": 0.4015748031496063
        },
        {
          "duration": 0.25,
          "durationTicks": 80,
          "midi": 69,
          "name": "A4",
          "ticks": 109200,
          "time": 342.0263333666666,
          "velocity": 0.4015748031496063
        },
        {
          "duration": 0.25,
          "durationTicks": 80,
          "midi": 65,
          "name": "F4",
          "ticks": 109280,
          "time": 342.2763333666666,
          "velocity": 0.4015748031496063
        },
        {
          "duration": 0.25,
          "durationTicks": 80,
          "midi": 60,
          "name": "C4",
          "ticks": 109360,
          "time": 342.5263333666666,
          "velocity": 0.4015748031496063
        },
        {
          "duration": 0.25,
          "durationTicks": 80,
          "midi": 55,
          "name": "G3",
          "ticks": 109440,
          "time": 342.7763333666666,
          "velocity": 0.4015748031496063
        },
        {
          "duration": 0.25,
          "durationTicks": 80,
          "midi": 60,
          "name": "C4",
          "ticks": 109520,
          "time": 343.0263333666666,
          "velocity": 0.4015748031496063
        },
        {
          "duration": 0.25,
          "durationTicks": 80,
          "midi": 64,
          "name": "E4",
          "ticks": 109600,
          "time": 343.2763333666666,
          "velocity": 0.4015748031496063
        },
        {
          "duration": 0.25,
          "durationTicks": 80,
          "midi": 67,
          "name": "G4",
          "ticks": 109680,
          "time": 343.5263333666666,
          "velocity": 0.4015748031496063
        },
        {
          "duration": 0.25,
          "durationTicks": 80,
          "midi": 64,
          "name": "E4",
          "ticks": 109760,
          "time": 343.7763333666666,
          "velocity": 0.4015748031496063
        },
        {
          "duration": 0.25,
          "durationTicks": 80,
          "midi": 60,
          "name": "C4",
          "ticks": 109840,
          "time": 344.0263333666666,
          "velocity": 0.4015748031496063
        },
        {
          "duration": 0.25,
          "durationTicks": 80,
          "midi": 55,
          "name": "G3",
          "ticks": 109920,
          "time": 344.2763333666666,
          "velocity": 0.4015748031496063
        },
        {
          "duration": 0.25,
          "durationTicks": 80,
          "midi": 60,
          "name": "C4",
          "ticks": 110000,
          "time": 344.5263333666666,
          "velocity": 0.4015748031496063
        },
        {
          "duration": 0.25,
          "durationTicks": 80,
          "midi": 64,
          "name": "E4",
          "ticks": 110080,
          "time": 344.7763333666666,
          "velocity": 0.4015748031496063
        },
        {
          "duration": 0.25,
          "durationTicks": 80,
          "midi": 67,
          "name": "G4",
          "ticks": 110160,
          "time": 345.0263333666666,
          "velocity": 0.4015748031496063
        },
        {
          "duration": 0.25,
          "durationTicks": 80,
          "midi": 64,
          "name": "E4",
          "ticks": 110240,
          "time": 345.2763333666666,
          "velocity": 0.4015748031496063
        },
        {
          "duration": 0.25,
          "durationTicks": 80,
          "midi": 60,
          "name": "C4",
          "ticks": 110320,
          "time": 345.5263333666666,
          "velocity": 0.4015748031496063
        },
        {
          "duration": 0.25,
          "durationTicks": 80,
          "midi": 55,
          "name": "G3",
          "ticks": 110400,
          "time": 345.7763333666666,
          "velocity": 0.4015748031496063
        },
        {
          "duration": 0.25,
          "durationTicks": 80,
          "midi": 60,
          "name": "C4",
          "ticks": 110480,
          "time": 346.0263333666666,
          "velocity": 0.4015748031496063
        },
        {
          "duration": 0.25,
          "durationTicks": 80,
          "midi": 64,
          "name": "E4",
          "ticks": 110560,
          "time": 346.2763333666666,
          "velocity": 0.4015748031496063
        },
        {
          "duration": 0.25,
          "durationTicks": 80,
          "midi": 67,
          "name": "G4",
          "ticks": 110640,
          "time": 346.5263333666666,
          "velocity": 0.4015748031496063
        },
        {
          "duration": 0.25,
          "durationTicks": 80,
          "midi": 64,
          "name": "E4",
          "ticks": 110720,
          "time": 346.7763333666666,
          "velocity": 0.4015748031496063
        },
        {
          "duration": 0.25,
          "durationTicks": 80,
          "midi": 60,
          "name": "C4",
          "ticks": 110800,
          "time": 347.0263333666666,
          "velocity": 0.4015748031496063
        },
        {
          "duration": 0.25,
          "durationTicks": 80,
          "midi": 55,
          "name": "G3",
          "ticks": 110880,
          "time": 347.2763333666666,
          "velocity": 0.4015748031496063
        },
        {
          "duration": 0.25,
          "durationTicks": 80,
          "midi": 58,
          "name": "A#3",
          "ticks": 110960,
          "time": 347.5263333666666,
          "velocity": 0.4015748031496063
        },
        {
          "duration": 0.25,
          "durationTicks": 80,
          "midi": 60,
          "name": "C4",
          "ticks": 111040,
          "time": 347.7763333666666,
          "velocity": 0.4015748031496063
        },
        {
          "duration": 0.25,
          "durationTicks": 80,
          "midi": 64,
          "name": "E4",
          "ticks": 111120,
          "time": 348.0263333666666,
          "velocity": 0.4015748031496063
        },
        {
          "duration": 0.25,
          "durationTicks": 80,
          "midi": 60,
          "name": "C4",
          "ticks": 111192,
          "time": 348.25133336666664,
          "velocity": 0.4015748031496063
        },
        {
          "duration": 0.25,
          "durationTicks": 80,
          "midi": 55,
          "name": "G3",
          "ticks": 111280,
          "time": 348.5263333666666,
          "velocity": 0.4015748031496063
        },
        {
          "duration": 0.25,
          "durationTicks": 80,
          "midi": 57,
          "name": "A3",
          "ticks": 111360,
          "time": 348.7763333666666,
          "velocity": 0.4015748031496063
        },
        {
          "duration": 0.25,
          "durationTicks": 80,
          "midi": 60,
          "name": "C4",
          "ticks": 111432,
          "time": 349.00133336666664,
          "velocity": 0.4015748031496063
        },
        {
          "duration": 0.25,
          "durationTicks": 80,
          "midi": 64,
          "name": "E4",
          "ticks": 111520,
          "time": 349.2763333666666,
          "velocity": 0.4015748031496063
        },
        {
          "duration": 0.25,
          "durationTicks": 80,
          "midi": 65,
          "name": "F4",
          "ticks": 111600,
          "time": 349.5263333666666,
          "velocity": 0.4015748031496063
        },
        {
          "duration": 0.25,
          "durationTicks": 80,
          "midi": 60,
          "name": "C4",
          "ticks": 111680,
          "time": 349.7763333666666,
          "velocity": 0.4015748031496063
        },
        {
          "duration": 0.25,
          "durationTicks": 80,
          "midi": 57,
          "name": "A3",
          "ticks": 111760,
          "time": 350.0263333666666,
          "velocity": 0.4015748031496063
        },
        {
          "duration": 0.25,
          "durationTicks": 80,
          "midi": 58,
          "name": "A#3",
          "ticks": 111840,
          "time": 350.2763333666666,
          "velocity": 0.4015748031496063
        },
        {
          "duration": 0.25,
          "durationTicks": 80,
          "midi": 60,
          "name": "C4",
          "ticks": 111920,
          "time": 350.5263333666666,
          "velocity": 0.4015748031496063
        },
        {
          "duration": 0.25,
          "durationTicks": 80,
          "midi": 64,
          "name": "E4",
          "ticks": 112000,
          "time": 350.7763333666666,
          "velocity": 0.4015748031496063
        },
        {
          "duration": 0.25,
          "durationTicks": 80,
          "midi": 67,
          "name": "G4",
          "ticks": 112080,
          "time": 351.0263333666666,
          "velocity": 0.4015748031496063
        },
        {
          "duration": 0.25,
          "durationTicks": 80,
          "midi": 64,
          "name": "E4",
          "ticks": 112160,
          "time": 351.2763333666666,
          "velocity": 0.4015748031496063
        },
        {
          "duration": 0.25,
          "durationTicks": 80,
          "midi": 58,
          "name": "A#3",
          "ticks": 112240,
          "time": 351.5263333666666,
          "velocity": 0.4015748031496063
        },
        {
          "duration": 0.25,
          "durationTicks": 80,
          "midi": 57,
          "name": "A3",
          "ticks": 112320,
          "time": 351.7763333666666,
          "velocity": 0.4015748031496063
        },
        {
          "duration": 0.25,
          "durationTicks": 80,
          "midi": 60,
          "name": "C4",
          "ticks": 112400,
          "time": 352.0263333666666,
          "velocity": 0.4015748031496063
        },
        {
          "duration": 0.25,
          "durationTicks": 80,
          "midi": 65,
          "name": "F4",
          "ticks": 112480,
          "time": 352.2763333666666,
          "velocity": 0.4015748031496063
        },
        {
          "duration": 0.25,
          "durationTicks": 80,
          "midi": 69,
          "name": "A4",
          "ticks": 112560,
          "time": 352.5263333666666,
          "velocity": 0.4015748031496063
        },
        {
          "duration": 0.25,
          "durationTicks": 80,
          "midi": 65,
          "name": "F4",
          "ticks": 112640,
          "time": 352.7763333666666,
          "velocity": 0.4015748031496063
        },
        {
          "duration": 0.25,
          "durationTicks": 80,
          "midi": 60,
          "name": "C4",
          "ticks": 112720,
          "time": 353.0263333666666,
          "velocity": 0.4015748031496063
        },
        {
          "duration": 0.25,
          "durationTicks": 80,
          "midi": 57,
          "name": "A3",
          "ticks": 112800,
          "time": 353.2763333666666,
          "velocity": 0.4015748031496063
        },
        {
          "duration": 0.25,
          "durationTicks": 80,
          "midi": 60,
          "name": "C4",
          "ticks": 112880,
          "time": 353.5263333666666,
          "velocity": 0.4015748031496063
        },
        {
          "duration": 0.25,
          "durationTicks": 80,
          "midi": 65,
          "name": "F4",
          "ticks": 112960,
          "time": 353.7763333666666,
          "velocity": 0.4015748031496063
        },
        {
          "duration": 0.25,
          "durationTicks": 80,
          "midi": 69,
          "name": "A4",
          "ticks": 113040,
          "time": 354.0263333666666,
          "velocity": 0.4015748031496063
        },
        {
          "duration": 0.25,
          "durationTicks": 80,
          "midi": 65,
          "name": "F4",
          "ticks": 113120,
          "time": 354.2763333666666,
          "velocity": 0.4015748031496063
        },
        {
          "duration": 0.25,
          "durationTicks": 80,
          "midi": 60,
          "name": "C4",
          "ticks": 113200,
          "time": 354.5263333666666,
          "velocity": 0.4015748031496063
        },
        {
          "duration": 0.25,
          "durationTicks": 80,
          "midi": 57,
          "name": "A3",
          "ticks": 113280,
          "time": 354.7763333666666,
          "velocity": 0.4015748031496063
        },
        {
          "duration": 0.25,
          "durationTicks": 80,
          "midi": 60,
          "name": "C4",
          "ticks": 113360,
          "time": 355.0263333666666,
          "velocity": 0.4015748031496063
        },
        {
          "duration": 0.25,
          "durationTicks": 80,
          "midi": 65,
          "name": "F4",
          "ticks": 113440,
          "time": 355.2763333666666,
          "velocity": 0.4015748031496063
        },
        {
          "duration": 0.25,
          "durationTicks": 80,
          "midi": 69,
          "name": "A4",
          "ticks": 113520,
          "time": 355.5263333666666,
          "velocity": 0.4015748031496063
        },
        {
          "duration": 0.25,
          "durationTicks": 80,
          "midi": 65,
          "name": "F4",
          "ticks": 113600,
          "time": 355.7763333666666,
          "velocity": 0.4015748031496063
        },
        {
          "duration": 0.25,
          "durationTicks": 80,
          "midi": 60,
          "name": "C4",
          "ticks": 113680,
          "time": 356.0263333666666,
          "velocity": 0.4015748031496063
        },
        {
          "duration": 0.25,
          "durationTicks": 80,
          "midi": 57,
          "name": "A3",
          "ticks": 113760,
          "time": 356.2763333666666,
          "velocity": 0.4015748031496063
        },
        {
          "duration": 0.25,
          "durationTicks": 80,
          "midi": 60,
          "name": "C4",
          "ticks": 113840,
          "time": 356.5263333666666,
          "velocity": 0.4015748031496063
        },
        {
          "duration": 0.25,
          "durationTicks": 80,
          "midi": 62,
          "name": "D4",
          "ticks": 113920,
          "time": 356.7763333666666,
          "velocity": 0.4015748031496063
        },
        {
          "duration": 0.25,
          "durationTicks": 80,
          "midi": 66,
          "name": "F#4",
          "ticks": 114000,
          "time": 357.0263333666666,
          "velocity": 0.4015748031496063
        },
        {
          "duration": 0.25,
          "durationTicks": 80,
          "midi": 62,
          "name": "D4",
          "ticks": 114080,
          "time": 357.2763333666666,
          "velocity": 0.4015748031496063
        },
        {
          "duration": 0.25,
          "durationTicks": 80,
          "midi": 60,
          "name": "C4",
          "ticks": 114160,
          "time": 357.5263333666666,
          "velocity": 0.4015748031496063
        },
        {
          "duration": 0.25,
          "durationTicks": 80,
          "midi": 59,
          "name": "B3",
          "ticks": 114240,
          "time": 357.7763333666666,
          "velocity": 0.4015748031496063
        },
        {
          "duration": 0.25,
          "durationTicks": 80,
          "midi": 62,
          "name": "D4",
          "ticks": 114320,
          "time": 358.0263333666666,
          "velocity": 0.4015748031496063
        },
        {
          "duration": 0.25,
          "durationTicks": 80,
          "midi": 65,
          "name": "F4",
          "ticks": 114400,
          "time": 358.2763333666666,
          "velocity": 0.4015748031496063
        },
        {
          "duration": 0.25,
          "durationTicks": 80,
          "midi": 67,
          "name": "G4",
          "ticks": 114480,
          "time": 358.5263333666666,
          "velocity": 0.4015748031496063
        },
        {
          "duration": 0.25,
          "durationTicks": 80,
          "midi": 65,
          "name": "F4",
          "ticks": 114560,
          "time": 358.7763333666666,
          "velocity": 0.4015748031496063
        },
        {
          "duration": 0.25,
          "durationTicks": 80,
          "midi": 62,
          "name": "D4",
          "ticks": 114640,
          "time": 359.0263333666666,
          "velocity": 0.4015748031496063
        },
        {
          "duration": 0.25,
          "durationTicks": 80,
          "midi": 58,
          "name": "A#3",
          "ticks": 114720,
          "time": 359.2763333666666,
          "velocity": 0.4015748031496063
        },
        {
          "duration": 0.25,
          "durationTicks": 80,
          "midi": 60,
          "name": "C4",
          "ticks": 114800,
          "time": 359.5263333666666,
          "velocity": 0.4015748031496063
        },
        {
          "duration": 0.25,
          "durationTicks": 80,
          "midi": 64,
          "name": "E4",
          "ticks": 114880,
          "time": 359.7763333666666,
          "velocity": 0.4015748031496063
        },
        {
          "duration": 0.25,
          "durationTicks": 80,
          "midi": 67,
          "name": "G4",
          "ticks": 114960,
          "time": 360.0263333666666,
          "velocity": 0.4015748031496063
        },
        {
          "duration": 0.25,
          "durationTicks": 80,
          "midi": 64,
          "name": "E4",
          "ticks": 115040,
          "time": 360.2763333666666,
          "velocity": 0.4015748031496063
        },
        {
          "duration": 0.25,
          "durationTicks": 80,
          "midi": 60,
          "name": "C4",
          "ticks": 115120,
          "time": 360.5263333666666,
          "velocity": 0.4015748031496063
        },
        {
          "duration": 0.25,
          "durationTicks": 80,
          "midi": 57,
          "name": "A3",
          "ticks": 115200,
          "time": 360.7763333666666,
          "velocity": 0.4015748031496063
        },
        {
          "duration": 0.25,
          "durationTicks": 80,
          "midi": 60,
          "name": "C4",
          "ticks": 115280,
          "time": 361.0263333666666,
          "velocity": 0.4015748031496063
        },
        {
          "duration": 0.25,
          "durationTicks": 80,
          "midi": 63,
          "name": "D#4",
          "ticks": 115360,
          "time": 361.2763333666666,
          "velocity": 0.4015748031496063
        },
        {
          "duration": 0.25,
          "durationTicks": 80,
          "midi": 65,
          "name": "F4",
          "ticks": 115440,
          "time": 361.5263333666666,
          "velocity": 0.4015748031496063
        },
        {
          "duration": 0.25,
          "durationTicks": 80,
          "midi": 63,
          "name": "D#4",
          "ticks": 115520,
          "time": 361.7763333666666,
          "velocity": 0.4015748031496063
        },
        {
          "duration": 0.25,
          "durationTicks": 80,
          "midi": 60,
          "name": "C4",
          "ticks": 115600,
          "time": 362.0263333666666,
          "velocity": 0.4015748031496063
        },
        {
          "duration": 0.25,
          "durationTicks": 80,
          "midi": 58,
          "name": "A#3",
          "ticks": 115680,
          "time": 362.2763333666666,
          "velocity": 0.4015748031496063
        },
        {
          "duration": 0.25,
          "durationTicks": 80,
          "midi": 62,
          "name": "D4",
          "ticks": 115760,
          "time": 362.5263333666666,
          "velocity": 0.4015748031496063
        },
        {
          "duration": 0.25,
          "durationTicks": 80,
          "midi": 65,
          "name": "F4",
          "ticks": 115840,
          "time": 362.7763333666666,
          "velocity": 0.4015748031496063
        },
        {
          "duration": 0.25,
          "durationTicks": 80,
          "midi": 67,
          "name": "G4",
          "ticks": 115920,
          "time": 363.0263333666666,
          "velocity": 0.4015748031496063
        },
        {
          "duration": 0.25,
          "durationTicks": 80,
          "midi": 62,
          "name": "D4",
          "ticks": 116000,
          "time": 363.2763333666666,
          "velocity": 0.4015748031496063
        },
        {
          "duration": 0.25,
          "durationTicks": 80,
          "midi": 67,
          "name": "G4",
          "ticks": 116080,
          "time": 363.5263333666666,
          "velocity": 0.4015748031496063
        },
        {
          "duration": 0.25,
          "durationTicks": 80,
          "midi": 64,
          "name": "E4",
          "ticks": 116160,
          "time": 363.7763333666666,
          "velocity": 0.4015748031496063
        },
        {
          "duration": 0.25,
          "durationTicks": 80,
          "midi": 62,
          "name": "D4",
          "ticks": 116240,
          "time": 364.0263333666666,
          "velocity": 0.4015748031496063
        },
        {
          "duration": 0.25,
          "durationTicks": 80,
          "midi": 64,
          "name": "E4",
          "ticks": 116320,
          "time": 364.2763333666666,
          "velocity": 0.4015748031496063
        },
        {
          "duration": 0.25,
          "durationTicks": 80,
          "midi": 65,
          "name": "F4",
          "ticks": 116400,
          "time": 364.5263333666666,
          "velocity": 0.4015748031496063
        },
        {
          "duration": 0.25,
          "durationTicks": 80,
          "midi": 64,
          "name": "E4",
          "ticks": 116480,
          "time": 364.7763333666666,
          "velocity": 0.4015748031496063
        },
        {
          "duration": 0.25,
          "durationTicks": 80,
          "midi": 65,
          "name": "F4",
          "ticks": 116560,
          "time": 365.0263333666666,
          "velocity": 0.4015748031496063
        },
        {
          "duration": 0.25,
          "durationTicks": 80,
          "midi": 62,
          "name": "D4",
          "ticks": 116640,
          "time": 365.2763333666666,
          "velocity": 0.4015748031496063
        },
        {
          "duration": 0.25,
          "durationTicks": 80,
          "midi": 58,
          "name": "A#3",
          "ticks": 116720,
          "time": 365.5263333666666,
          "velocity": 0.4015748031496063
        },
        {
          "duration": 0.25,
          "durationTicks": 80,
          "midi": 55,
          "name": "G3",
          "ticks": 116800,
          "time": 365.7763333666666,
          "velocity": 0.4015748031496063
        },
        {
          "duration": 0.25,
          "durationTicks": 80,
          "midi": 58,
          "name": "A#3",
          "ticks": 116880,
          "time": 366.0263333666666,
          "velocity": 0.4015748031496063
        },
        {
          "duration": 0.25,
          "durationTicks": 80,
          "midi": 62,
          "name": "D4",
          "ticks": 116960,
          "time": 366.2763333666666,
          "velocity": 0.4015748031496063
        },
        {
          "duration": 0.25,
          "durationTicks": 80,
          "midi": 58,
          "name": "A#3",
          "ticks": 117040,
          "time": 366.5263333666666,
          "velocity": 0.4015748031496063
        },
        {
          "duration": 0.25,
          "durationTicks": 80,
          "midi": 57,
          "name": "A3",
          "ticks": 117120,
          "time": 366.7763333666666,
          "velocity": 0.4015748031496063
        },
        {
          "duration": 0.25,
          "durationTicks": 80,
          "midi": 60,
          "name": "C4",
          "ticks": 117200,
          "time": 367.0263333666666,
          "velocity": 0.4015748031496063
        },
        {
          "duration": 0.25,
          "durationTicks": 80,
          "midi": 65,
          "name": "F4",
          "ticks": 117280,
          "time": 367.2763333666666,
          "velocity": 0.4015748031496063
        },
        {
          "duration": 0.25,
          "durationTicks": 80,
          "midi": 69,
          "name": "A4",
          "ticks": 117360,
          "time": 367.5263333666666,
          "velocity": 0.4015748031496063
        },
        {
          "duration": 0.25,
          "durationTicks": 80,
          "midi": 65,
          "name": "F4",
          "ticks": 117440,
          "time": 367.7763333666666,
          "velocity": 0.4015748031496063
        },
        {
          "duration": 0.25,
          "durationTicks": 80,
          "midi": 60,
          "name": "C4",
          "ticks": 117520,
          "time": 368.0263333666666,
          "velocity": 0.4015748031496063
        },
        {
          "duration": 0.25,
          "durationTicks": 80,
          "midi": 58,
          "name": "A#3",
          "ticks": 117600,
          "time": 368.2763333666666,
          "velocity": 0.4015748031496063
        },
        {
          "duration": 0.25,
          "durationTicks": 80,
          "midi": 60,
          "name": "C4",
          "ticks": 117680,
          "time": 368.5263333666666,
          "velocity": 0.4015748031496063
        },
        {
          "duration": 0.25,
          "durationTicks": 80,
          "midi": 64,
          "name": "E4",
          "ticks": 117760,
          "time": 368.7763333666666,
          "velocity": 0.4015748031496063
        },
        {
          "duration": 0.25,
          "durationTicks": 80,
          "midi": 67,
          "name": "G4",
          "ticks": 117840,
          "time": 369.0263333666666,
          "velocity": 0.4015748031496063
        },
        {
          "duration": 0.25,
          "durationTicks": 80,
          "midi": 64,
          "name": "E4",
          "ticks": 117920,
          "time": 369.2763333666666,
          "velocity": 0.4015748031496063
        },
        {
          "duration": 0.25,
          "durationTicks": 80,
          "midi": 60,
          "name": "C4",
          "ticks": 118000,
          "time": 369.5263333666666,
          "velocity": 0.4015748031496063
        },
        {
          "duration": 0.25,
          "durationTicks": 80,
          "midi": 57,
          "name": "A3",
          "ticks": 118080,
          "time": 369.7763333666666,
          "velocity": 0.4015748031496063
        },
        {
          "duration": 0.25000000000005684,
          "durationTicks": 80,
          "midi": 60,
          "name": "C4",
          "ticks": 118160,
          "time": 370.0263333666666,
          "velocity": 0.4015748031496063
        },
        {
          "duration": 0.24999999999994316,
          "durationTicks": 80,
          "midi": 62,
          "name": "D4",
          "ticks": 118240,
          "time": 370.2763333666667,
          "velocity": 0.4015748031496063
        },
        {
          "duration": 0.25,
          "durationTicks": 80,
          "midi": 66,
          "name": "F#4",
          "ticks": 118320,
          "time": 370.5263333666666,
          "velocity": 0.4015748031496063
        },
        {
          "duration": 0.25000000000005684,
          "durationTicks": 80,
          "midi": 62,
          "name": "D4",
          "ticks": 118400,
          "time": 370.7763333666666,
          "velocity": 0.4015748031496063
        },
        {
          "duration": 0.24999999999994316,
          "durationTicks": 80,
          "midi": 60,
          "name": "C4",
          "ticks": 118480,
          "time": 371.0263333666667,
          "velocity": 0.4015748031496063
        },
        {
          "duration": 0.25,
          "durationTicks": 80,
          "midi": 59,
          "name": "B3",
          "ticks": 118560,
          "time": 371.2763333666666,
          "velocity": 0.4015748031496063
        },
        {
          "duration": 0.25000000000005684,
          "durationTicks": 80,
          "midi": 62,
          "name": "D4",
          "ticks": 118640,
          "time": 371.5263333666666,
          "velocity": 0.4015748031496063
        },
        {
          "duration": 0.24999999999994316,
          "durationTicks": 80,
          "midi": 65,
          "name": "F4",
          "ticks": 118720,
          "time": 371.7763333666667,
          "velocity": 0.4015748031496063
        },
        {
          "duration": 0.25,
          "durationTicks": 80,
          "midi": 67,
          "name": "G4",
          "ticks": 118800,
          "time": 372.0263333666666,
          "velocity": 0.4015748031496063
        },
        {
          "duration": 0.25000000000005684,
          "durationTicks": 80,
          "midi": 65,
          "name": "F4",
          "ticks": 118880,
          "time": 372.2763333666666,
          "velocity": 0.4015748031496063
        },
        {
          "duration": 0.24999999999994316,
          "durationTicks": 80,
          "midi": 62,
          "name": "D4",
          "ticks": 118960,
          "time": 372.5263333666667,
          "velocity": 0.4015748031496063
        },
        {
          "duration": 0.25,
          "durationTicks": 80,
          "midi": 58,
          "name": "A#3",
          "ticks": 119040,
          "time": 372.7763333666666,
          "velocity": 0.4015748031496063
        },
        {
          "duration": 0.25000000000005684,
          "durationTicks": 80,
          "midi": 60,
          "name": "C4",
          "ticks": 119120,
          "time": 373.0263333666666,
          "velocity": 0.4015748031496063
        },
        {
          "duration": 0.24999999999994316,
          "durationTicks": 80,
          "midi": 64,
          "name": "E4",
          "ticks": 119200,
          "time": 373.2763333666667,
          "velocity": 0.4015748031496063
        },
        {
          "duration": 0.25,
          "durationTicks": 80,
          "midi": 67,
          "name": "G4",
          "ticks": 119280,
          "time": 373.5263333666666,
          "velocity": 0.4015748031496063
        },
        {
          "duration": 0.25000000000005684,
          "durationTicks": 80,
          "midi": 64,
          "name": "E4",
          "ticks": 119360,
          "time": 373.7763333666666,
          "velocity": 0.4015748031496063
        },
        {
          "duration": 0.24999999999994316,
          "durationTicks": 80,
          "midi": 60,
          "name": "C4",
          "ticks": 119440,
          "time": 374.0263333666667,
          "velocity": 0.4015748031496063
        },
        {
          "duration": 0.25,
          "durationTicks": 80,
          "midi": 57,
          "name": "A3",
          "ticks": 119520,
          "time": 374.2763333666666,
          "velocity": 0.4015748031496063
        },
        {
          "duration": 0.25000000000005684,
          "durationTicks": 80,
          "midi": 60,
          "name": "C4",
          "ticks": 119600,
          "time": 374.5263333666666,
          "velocity": 0.4015748031496063
        },
        {
          "duration": 0.24999999999994316,
          "durationTicks": 80,
          "midi": 63,
          "name": "D#4",
          "ticks": 119680,
          "time": 374.7763333666667,
          "velocity": 0.4015748031496063
        },
        {
          "duration": 0.25,
          "durationTicks": 80,
          "midi": 65,
          "name": "F4",
          "ticks": 119760,
          "time": 375.0263333666666,
          "velocity": 0.4015748031496063
        },
        {
          "duration": 0.25000000000005684,
          "durationTicks": 80,
          "midi": 63,
          "name": "D#4",
          "ticks": 119840,
          "time": 375.2763333666666,
          "velocity": 0.4015748031496063
        },
        {
          "duration": 0.24999999999994316,
          "durationTicks": 80,
          "midi": 60,
          "name": "C4",
          "ticks": 119920,
          "time": 375.5263333666667,
          "velocity": 0.4015748031496063
        },
        {
          "duration": 0.25,
          "durationTicks": 80,
          "midi": 62,
          "name": "D4",
          "ticks": 120000,
          "time": 375.7763333666666,
          "velocity": 0.4015748031496063
        },
        {
          "duration": 0.25000000000005684,
          "durationTicks": 80,
          "midi": 65,
          "name": "F4",
          "ticks": 120080,
          "time": 376.0263333666666,
          "velocity": 0.4015748031496063
        },
        {
          "duration": 0.24999999999994316,
          "durationTicks": 80,
          "midi": 70,
          "name": "A#4",
          "ticks": 120160,
          "time": 376.2763333666667,
          "velocity": 0.4015748031496063
        },
        {
          "duration": 0.25,
          "durationTicks": 80,
          "midi": 74,
          "name": "D5",
          "ticks": 120240,
          "time": 376.5263333666666,
          "velocity": 0.4015748031496063
        },
        {
          "duration": 0.25000000000005684,
          "durationTicks": 80,
          "midi": 70,
          "name": "A#4",
          "ticks": 120320,
          "time": 376.7763333666666,
          "velocity": 0.4015748031496063
        },
        {
          "duration": 0.24999999999994316,
          "durationTicks": 80,
          "midi": 67,
          "name": "G4",
          "ticks": 120400,
          "time": 377.0263333666667,
          "velocity": 0.4015748031496063
        },
        {
          "duration": 0.25,
          "durationTicks": 80,
          "midi": 64,
          "name": "E4",
          "ticks": 120480,
          "time": 377.2763333666666,
          "velocity": 0.4015748031496063
        },
        {
          "duration": 0.25000000000005684,
          "durationTicks": 80,
          "midi": 62,
          "name": "D4",
          "ticks": 120560,
          "time": 377.5263333666666,
          "velocity": 0.4015748031496063
        },
        {
          "duration": 0.24999999999994316,
          "durationTicks": 80,
          "midi": 64,
          "name": "E4",
          "ticks": 120640,
          "time": 377.7763333666667,
          "velocity": 0.4015748031496063
        },
        {
          "duration": 0.25,
          "durationTicks": 80,
          "midi": 65,
          "name": "F4",
          "ticks": 120720,
          "time": 378.0263333666666,
          "velocity": 0.4015748031496063
        },
        {
          "duration": 0.25000000000005684,
          "durationTicks": 80,
          "midi": 64,
          "name": "E4",
          "ticks": 120800,
          "time": 378.2763333666666,
          "velocity": 0.4015748031496063
        },
        {
          "duration": 0.24999999999994316,
          "durationTicks": 80,
          "midi": 65,
          "name": "F4",
          "ticks": 120880,
          "time": 378.5263333666667,
          "velocity": 0.4015748031496063
        },
        {
          "duration": 0.25,
          "durationTicks": 80,
          "midi": 58,
          "name": "A#3",
          "ticks": 120960,
          "time": 378.7763333666666,
          "velocity": 0.4015748031496063
        },
        {
          "duration": 0.25000000000005684,
          "durationTicks": 80,
          "midi": 57,
          "name": "A3",
          "ticks": 121040,
          "time": 379.0263333666666,
          "velocity": 0.4015748031496063
        },
        {
          "duration": 0.24999999999994316,
          "durationTicks": 80,
          "midi": 58,
          "name": "A#3",
          "ticks": 121120,
          "time": 379.2763333666667,
          "velocity": 0.4015748031496063
        },
        {
          "duration": 0.25,
          "durationTicks": 80,
          "midi": 59,
          "name": "B3",
          "ticks": 121200,
          "time": 379.5263333666666,
          "velocity": 0.4015748031496063
        },
        {
          "duration": 0.25000000000005684,
          "durationTicks": 80,
          "midi": 57,
          "name": "A3",
          "ticks": 121280,
          "time": 379.7763333666666,
          "velocity": 0.4015748031496063
        },
        {
          "duration": 0.24999999999994316,
          "durationTicks": 80,
          "midi": 59,
          "name": "B3",
          "ticks": 121360,
          "time": 380.0263333666667,
          "velocity": 0.4094488188976378
        },
        {
          "duration": 0.25,
          "durationTicks": 80,
          "midi": 61,
          "name": "C#4",
          "ticks": 121440,
          "time": 380.2763333666666,
          "velocity": 0.41732283464566927
        },
        {
          "duration": 0.25000000000005684,
          "durationTicks": 80,
          "midi": 59,
          "name": "B3",
          "ticks": 121520,
          "time": 380.5263333666666,
          "velocity": 0.41732283464566927
        },
        {
          "duration": 0.24999999999994316,
          "durationTicks": 80,
          "midi": 61,
          "name": "C#4",
          "ticks": 121600,
          "time": 380.7763333666667,
          "velocity": 0.41732283464566927
        },
        {
          "duration": 0.25,
          "durationTicks": 80,
          "midi": 62,
          "name": "D4",
          "ticks": 121680,
          "time": 381.0263333666666,
          "velocity": 0.4251968503937008
        },
        {
          "duration": 0.25000000000005684,
          "durationTicks": 80,
          "midi": 61,
          "name": "C#4",
          "ticks": 121760,
          "time": 381.2763333666666,
          "velocity": 0.4251968503937008
        },
        {
          "duration": 0.24999999999994316,
          "durationTicks": 80,
          "midi": 62,
          "name": "D4",
          "ticks": 121840,
          "time": 381.5263333666667,
          "velocity": 0.4330708661417323
        },
        {
          "duration": 0.25,
          "durationTicks": 80,
          "midi": 66,
          "name": "F#4",
          "ticks": 121920,
          "time": 381.7763333666666,
          "velocity": 0.4409448818897638
        },
        {
          "duration": 0.25000000000005684,
          "durationTicks": 80,
          "midi": 65,
          "name": "F4",
          "ticks": 122000,
          "time": 382.0263333666666,
          "velocity": 0.4409448818897638
        },
        {
          "duration": 0.24999999999994316,
          "durationTicks": 80,
          "midi": 66,
          "name": "F#4",
          "ticks": 122080,
          "time": 382.2763333666667,
          "velocity": 0.4409448818897638
        },
        {
          "duration": 0.25,
          "durationTicks": 80,
          "midi": 67,
          "name": "G4",
          "ticks": 122160,
          "time": 382.5263333666666,
          "velocity": 0.4409448818897638
        },
        {
          "duration": 0.25000000000005684,
          "durationTicks": 80,
          "midi": 66,
          "name": "F#4",
          "ticks": 122240,
          "time": 382.7763333666666,
          "velocity": 0.4409448818897638
        },
        {
          "duration": 0.24999999999994316,
          "durationTicks": 80,
          "midi": 67,
          "name": "G4",
          "ticks": 122320,
          "time": 383.0263333666667,
          "velocity": 0.44881889763779526
        },
        {
          "duration": 0.25,
          "durationTicks": 80,
          "midi": 69,
          "name": "A4",
          "ticks": 122400,
          "time": 383.2763333666666,
          "velocity": 0.4566929133858268
        },
        {
          "duration": 0.25000000000005684,
          "durationTicks": 80,
          "midi": 67,
          "name": "G4",
          "ticks": 122480,
          "time": 383.5263333666666,
          "velocity": 0.4566929133858268
        },
        {
          "duration": 0.24999999999994316,
          "durationTicks": 80,
          "midi": 69,
          "name": "A4",
          "ticks": 122560,
          "time": 383.7763333666667,
          "velocity": 0.4645669291338583
        },
        {
          "duration": 0.25,
          "durationTicks": 80,
          "midi": 70,
          "name": "A#4",
          "ticks": 122640,
          "time": 384.0263333666666,
          "velocity": 0.4645669291338583
        },
        {
          "duration": 0.25000000000005684,
          "durationTicks": 80,
          "midi": 72,
          "name": "C5",
          "ticks": 122720,
          "time": 384.2763333666666,
          "velocity": 0.4645669291338583
        },
        {
          "duration": 0.24999999999994316,
          "durationTicks": 80,
          "midi": 70,
          "name": "A#4",
          "ticks": 122800,
          "time": 384.5263333666667,
          "velocity": 0.47244094488188976
        },
        {
          "duration": 0.25,
          "durationTicks": 80,
          "midi": 69,
          "name": "A4",
          "ticks": 122880,
          "time": 384.7763333666666,
          "velocity": 0.48031496062992124
        },
        {
          "duration": 0.25000000000005684,
          "durationTicks": 80,
          "midi": 70,
          "name": "A#4",
          "ticks": 122960,
          "time": 385.0263333666666,
          "velocity": 0.48031496062992124
        },
        {
          "duration": 0.24999999999994316,
          "durationTicks": 80,
          "midi": 69,
          "name": "A4",
          "ticks": 123040,
          "time": 385.2763333666667,
          "velocity": 0.4881889763779528
        },
        {
          "duration": 0.25,
          "durationTicks": 80,
          "midi": 67,
          "name": "G4",
          "ticks": 123120,
          "time": 385.5263333666666,
          "velocity": 0.4881889763779528
        },
        {
          "duration": 0.25000000000005684,
          "durationTicks": 80,
          "midi": 69,
          "name": "A4",
          "ticks": 123200,
          "time": 385.7763333666666,
          "velocity": 0.4881889763779528
        },
        {
          "duration": 0.24999999999994316,
          "durationTicks": 80,
          "midi": 67,
          "name": "G4",
          "ticks": 123280,
          "time": 386.0263333666667,
          "velocity": 0.4881889763779528
        },
        {
          "duration": 0.25,
          "durationTicks": 80,
          "midi": 65,
          "name": "F4",
          "ticks": 123360,
          "time": 386.2763333666666,
          "velocity": 0.49606299212598426
        },
        {
          "duration": 0.25000000000005684,
          "durationTicks": 80,
          "midi": 67,
          "name": "G4",
          "ticks": 123440,
          "time": 386.5263333666666,
          "velocity": 0.49606299212598426
        },
        {
          "duration": 0.24999999999994316,
          "durationTicks": 80,
          "midi": 65,
          "name": "F4",
          "ticks": 123520,
          "time": 386.7763333666667,
          "velocity": 0.5039370078740157
        },
        {
          "duration": 0.25,
          "durationTicks": 80,
          "midi": 64,
          "name": "E4",
          "ticks": 123600,
          "time": 387.0263333666666,
          "velocity": 0.5039370078740157
        },
        {
          "duration": 0.25000000000005684,
          "durationTicks": 80,
          "midi": 65,
          "name": "F4",
          "ticks": 123680,
          "time": 387.2763333666666,
          "velocity": 0.5118110236220472
        },
        {
          "duration": 0.24999999999994316,
          "durationTicks": 80,
          "midi": 64,
          "name": "E4",
          "ticks": 123760,
          "time": 387.5263333666667,
          "velocity": 0.5196850393700787
        },
        {
          "duration": 0.25,
          "durationTicks": 80,
          "midi": 65,
          "name": "F4",
          "ticks": 123840,
          "time": 387.7763333666666,
          "velocity": 0.3858267716535433
        },
        {
          "duration": 0.25000000000005684,
          "durationTicks": 80,
          "midi": 65,
          "name": "F4",
          "ticks": 123920,
          "time": 388.0263333666666,
          "velocity": 0.3858267716535433
        },
        {
          "duration": 0.24999999999994316,
          "durationTicks": 80,
          "midi": 65,
          "name": "F4",
          "ticks": 124000,
          "time": 388.2763333666667,
          "velocity": 0.3858267716535433
        },
        {
          "duration": 0.25,
          "durationTicks": 80,
          "midi": 65,
          "name": "F4",
          "ticks": 124080,
          "time": 388.5263333666666,
          "velocity": 0.3858267716535433
        },
        {
          "duration": 0.25000000000005684,
          "durationTicks": 80,
          "midi": 65,
          "name": "F4",
          "ticks": 124160,
          "time": 388.7763333666666,
          "velocity": 0.3858267716535433
        },
        {
          "duration": 0.24999999999994316,
          "durationTicks": 80,
          "midi": 65,
          "name": "F4",
          "ticks": 124240,
          "time": 389.0263333666667,
          "velocity": 0.3858267716535433
        },
        {
          "duration": 0.25,
          "durationTicks": 80,
          "midi": 65,
          "name": "F4",
          "ticks": 124320,
          "time": 389.2763333666666,
          "velocity": 0.3858267716535433
        },
        {
          "duration": 0.25000000000005684,
          "durationTicks": 80,
          "midi": 65,
          "name": "F4",
          "ticks": 124400,
          "time": 389.5263333666666,
          "velocity": 0.3858267716535433
        },
        {
          "duration": 0.24999999999994316,
          "durationTicks": 80,
          "midi": 65,
          "name": "F4",
          "ticks": 124480,
          "time": 389.7763333666667,
          "velocity": 0.3858267716535433
        },
        {
          "duration": 0.25,
          "durationTicks": 80,
          "midi": 65,
          "name": "F4",
          "ticks": 124560,
          "time": 390.0263333666666,
          "velocity": 0.3858267716535433
        },
        {
          "duration": 0.25000000000005684,
          "durationTicks": 80,
          "midi": 65,
          "name": "F4",
          "ticks": 124640,
          "time": 390.2763333666666,
          "velocity": 0.3858267716535433
        },
        {
          "duration": 0.24999999999994316,
          "durationTicks": 80,
          "midi": 65,
          "name": "F4",
          "ticks": 124720,
          "time": 390.5263333666667,
          "velocity": 0.3858267716535433
        },
        {
          "duration": 0.25,
          "durationTicks": 80,
          "midi": 65,
          "name": "F4",
          "ticks": 124800,
          "time": 390.7763333666666,
          "velocity": 0.3858267716535433
        },
        {
          "duration": 0.25000000000005684,
          "durationTicks": 80,
          "midi": 65,
          "name": "F4",
          "ticks": 124880,
          "time": 391.0263333666666,
          "velocity": 0.3858267716535433
        },
        {
          "duration": 0.24999999999994316,
          "durationTicks": 80,
          "midi": 65,
          "name": "F4",
          "ticks": 124960,
          "time": 391.2763333666667,
          "velocity": 0.3858267716535433
        },
        {
          "duration": 0.25,
          "durationTicks": 80,
          "midi": 65,
          "name": "F4",
          "ticks": 125040,
          "time": 391.5263333666666,
          "velocity": 0.3858267716535433
        },
        {
          "duration": 0.25000000000005684,
          "durationTicks": 80,
          "midi": 65,
          "name": "F4",
          "ticks": 125120,
          "time": 391.7763333666666,
          "velocity": 0.3858267716535433
        },
        {
          "duration": 0.24999999999994316,
          "durationTicks": 80,
          "midi": 65,
          "name": "F4",
          "ticks": 125200,
          "time": 392.0263333666667,
          "velocity": 0.3858267716535433
        },
        {
          "duration": 0.75,
          "durationTicks": 240,
          "midi": 65,
          "name": "F4",
          "ticks": 125280,
          "time": 392.2763333666666,
          "velocity": 0.3858267716535433
        },
        {
          "duration": 0.1875,
          "durationTicks": 60,
          "midi": 65,
          "name": "F4",
          "ticks": 126720,
          "time": 396.7763333666666,
          "velocity": 0.3543307086614173
        },
        {
          "duration": 0.1875,
          "durationTicks": 60,
          "midi": 65,
          "name": "F4",
          "ticks": 126800,
          "time": 397.0263333666666,
          "velocity": 0.3543307086614173
        },
        {
          "duration": 0.1875,
          "durationTicks": 60,
          "midi": 65,
          "name": "F4",
          "ticks": 126880,
          "time": 397.2763333666667,
          "velocity": 0.3543307086614173
        },
        {
          "duration": 0.1875,
          "durationTicks": 60,
          "midi": 65,
          "name": "F4",
          "ticks": 126960,
          "time": 397.5263333666666,
          "velocity": 0.3543307086614173
        },
        {
          "duration": 0.1875,
          "durationTicks": 60,
          "midi": 65,
          "name": "F4",
          "ticks": 127040,
          "time": 397.7763333666666,
          "velocity": 0.3543307086614173
        },
        {
          "duration": 0.1875,
          "durationTicks": 60,
          "midi": 65,
          "name": "F4",
          "ticks": 127120,
          "time": 398.0263333666667,
          "velocity": 0.3543307086614173
        },
        {
          "duration": 0.1875,
          "durationTicks": 60,
          "midi": 65,
          "name": "F4",
          "ticks": 127200,
          "time": 398.2763333666666,
          "velocity": 0.3543307086614173
        },
        {
          "duration": 0.1875,
          "durationTicks": 60,
          "midi": 65,
          "name": "F4",
          "ticks": 127280,
          "time": 398.5263333666666,
          "velocity": 0.3543307086614173
        },
        {
          "duration": 0.1875,
          "durationTicks": 60,
          "midi": 65,
          "name": "F4",
          "ticks": 127360,
          "time": 398.7763333666667,
          "velocity": 0.3543307086614173
        },
        {
          "duration": 0.1875,
          "durationTicks": 60,
          "midi": 65,
          "name": "F4",
          "ticks": 127440,
          "time": 399.0263333666666,
          "velocity": 0.3543307086614173
        },
        {
          "duration": 0.1875,
          "durationTicks": 60,
          "midi": 65,
          "name": "F4",
          "ticks": 127520,
          "time": 399.2763333666666,
          "velocity": 0.3543307086614173
        },
        {
          "duration": 0.1875,
          "durationTicks": 60,
          "midi": 65,
          "name": "F4",
          "ticks": 127600,
          "time": 399.5263333666667,
          "velocity": 0.3543307086614173
        },
        {
          "duration": 0.1875,
          "durationTicks": 60,
          "midi": 65,
          "name": "F4",
          "ticks": 127680,
          "time": 399.7763333666666,
          "velocity": 0.3543307086614173
        },
        {
          "duration": 0.1875,
          "durationTicks": 60,
          "midi": 65,
          "name": "F4",
          "ticks": 127760,
          "time": 400.0263333666666,
          "velocity": 0.3543307086614173
        },
        {
          "duration": 0.1875,
          "durationTicks": 60,
          "midi": 65,
          "name": "F4",
          "ticks": 127840,
          "time": 400.2763333666667,
          "velocity": 0.3543307086614173
        },
        {
          "duration": 0.1875,
          "durationTicks": 60,
          "midi": 65,
          "name": "F4",
          "ticks": 127920,
          "time": 400.5263333666666,
          "velocity": 0.3543307086614173
        },
        {
          "duration": 0.1875,
          "durationTicks": 60,
          "midi": 65,
          "name": "F4",
          "ticks": 128000,
          "time": 400.7763333666666,
          "velocity": 0.3543307086614173
        },
        {
          "duration": 0.1875,
          "durationTicks": 60,
          "midi": 65,
          "name": "F4",
          "ticks": 128080,
          "time": 401.0263333666667,
          "velocity": 0.3543307086614173
        },
        {
          "duration": 0.75,
          "durationTicks": 240,
          "midi": 65,
          "name": "F4",
          "ticks": 128160,
          "time": 401.2763333666666,
          "velocity": 0.3543307086614173
        },
        {
          "duration": 1.4634149999999977,
          "durationTicks": 480,
          "midi": 57,
          "name": "A3",
          "ticks": 132000,
          "time": 413.4924417333333,
          "velocity": 0.3779527559055118
        },
        {
          "duration": 0.7317075000000273,
          "durationTicks": 240,
          "midi": 58,
          "name": "A#3",
          "ticks": 132480,
          "time": 414.9558567333333,
          "velocity": 0.3779527559055118
        },
        {
          "duration": 0.4878050000000371,
          "durationTicks": 160,
          "midi": 55,
          "name": "G3",
          "ticks": 132960,
          "time": 416.4192717333333,
          "velocity": 0.4409448818897638
        },
        {
          "duration": 0.4878050000000371,
          "durationTicks": 160,
          "midi": 64,
          "name": "E4",
          "ticks": 132960,
          "time": 416.4192717333333,
          "velocity": 0.4409448818897638
        },
        {
          "duration": 0.18292687499996418,
          "durationTicks": 60,
          "midi": 58,
          "name": "A#3",
          "ticks": 133860,
          "time": 419.1631748583333,
          "velocity": 0.4330708661417323
        },
        {
          "duration": 0.7317075000000273,
          "durationTicks": 240,
          "midi": 57,
          "name": "A3",
          "ticks": 133920,
          "time": 419.3461017333333,
          "velocity": 0.4330708661417323
        },
        {
          "duration": 0.4878050000000371,
          "durationTicks": 160,
          "midi": 57,
          "name": "A3",
          "ticks": 134400,
          "time": 420.8095167333333,
          "velocity": 0.41732283464566927
        },
        {
          "duration": 0.4878050000000371,
          "durationTicks": 160,
          "midi": 65,
          "name": "F4",
          "ticks": 134400,
          "time": 420.8095167333333,
          "velocity": 0.41732283464566927
        },
        {
          "duration": 0.36585375000004206,
          "durationTicks": 120,
          "midi": 62,
          "name": "D4",
          "ticks": 135360,
          "time": 423.7363467333333,
          "velocity": 0.4015748031496063
        },
        {
          "duration": 0.3658537499999852,
          "durationTicks": 120,
          "midi": 65,
          "name": "F4",
          "ticks": 135480,
          "time": 424.1022004833333,
          "velocity": 0.4015748031496063
        },
        {
          "duration": 0.3048781250000161,
          "durationTicks": 100,
          "midi": 65,
          "name": "F4",
          "ticks": 135600,
          "time": 424.4680542333333,
          "velocity": 0.4015748031496063
        },
        {
          "duration": 0.3048781250000161,
          "durationTicks": 100,
          "midi": 65,
          "name": "F4",
          "ticks": 135720,
          "time": 424.8339079833333,
          "velocity": 0.4015748031496063
        },
        {
          "duration": 0.36585375000004206,
          "durationTicks": 120,
          "midi": 62,
          "name": "D4",
          "ticks": 135840,
          "time": 425.1997617333333,
          "velocity": 0.4015748031496063
        },
        {
          "duration": 0.3658537499999852,
          "durationTicks": 120,
          "midi": 65,
          "name": "F4",
          "ticks": 135960,
          "time": 425.5656154833333,
          "velocity": 0.4015748031496063
        },
        {
          "duration": 0.3048781250000161,
          "durationTicks": 100,
          "midi": 65,
          "name": "F4",
          "ticks": 136080,
          "time": 425.9314692333333,
          "velocity": 0.4015748031496063
        },
        {
          "duration": 0.3048781250000161,
          "durationTicks": 100,
          "midi": 65,
          "name": "F4",
          "ticks": 136200,
          "time": 426.2973229833333,
          "velocity": 0.4015748031496063
        },
        {
          "duration": 0.36585375000004206,
          "durationTicks": 120,
          "midi": 62,
          "name": "D4",
          "ticks": 136320,
          "time": 426.6631767333333,
          "velocity": 0.4015748031496063
        },
        {
          "duration": 0.3658537499999852,
          "durationTicks": 120,
          "midi": 65,
          "name": "F4",
          "ticks": 136440,
          "time": 427.0290304833333,
          "velocity": 0.4015748031496063
        },
        {
          "duration": 0.3048781250000161,
          "durationTicks": 100,
          "midi": 65,
          "name": "F4",
          "ticks": 136560,
          "time": 427.3948842333333,
          "velocity": 0.4015748031496063
        },
        {
          "duration": 0.3048781250000161,
          "durationTicks": 100,
          "midi": 65,
          "name": "F4",
          "ticks": 136680,
          "time": 427.7607379833333,
          "velocity": 0.4015748031496063
        },
        {
          "duration": 0.36585375000004206,
          "durationTicks": 120,
          "midi": 57,
          "name": "A3",
          "ticks": 136800,
          "time": 428.12659173333327,
          "velocity": 0.4015748031496063
        },
        {
          "duration": 0.3658537499999852,
          "durationTicks": 120,
          "midi": 65,
          "name": "F4",
          "ticks": 136920,
          "time": 428.4924454833333,
          "velocity": 0.4015748031496063
        },
        {
          "duration": 0.3048781250000161,
          "durationTicks": 100,
          "midi": 65,
          "name": "F4",
          "ticks": 137040,
          "time": 428.8582992333333,
          "velocity": 0.4015748031496063
        },
        {
          "duration": 0.3048781250000161,
          "durationTicks": 100,
          "midi": 65,
          "name": "F4",
          "ticks": 137160,
          "time": 429.2241529833333,
          "velocity": 0.4015748031496063
        },
        {
          "duration": 0.3658537499999852,
          "durationTicks": 120,
          "midi": 57,
          "name": "A3",
          "ticks": 137280,
          "time": 429.5900067333333,
          "velocity": 0.4015748031496063
        },
        {
          "duration": 0.3658537499999852,
          "durationTicks": 120,
          "midi": 65,
          "name": "F4",
          "ticks": 137400,
          "time": 429.9558604833333,
          "velocity": 0.4015748031496063
        },
        {
          "duration": 0.3048781250000161,
          "durationTicks": 100,
          "midi": 65,
          "name": "F4",
          "ticks": 137520,
          "time": 430.3217142333333,
          "velocity": 0.4015748031496063
        },
        {
          "duration": 0.3048781250000161,
          "durationTicks": 100,
          "midi": 65,
          "name": "F4",
          "ticks": 137640,
          "time": 430.6875679833333,
          "velocity": 0.4015748031496063
        },
        {
          "duration": 0.3658537499999852,
          "durationTicks": 120,
          "midi": 55,
          "name": "G3",
          "ticks": 137760,
          "time": 431.0534217333333,
          "velocity": 0.4015748031496063
        },
        {
          "duration": 0.3658537499999852,
          "durationTicks": 120,
          "midi": 64,
          "name": "E4",
          "ticks": 137880,
          "time": 431.4192754833333,
          "velocity": 0.4015748031496063
        },
        {
          "duration": 0.3048781250000161,
          "durationTicks": 100,
          "midi": 64,
          "name": "E4",
          "ticks": 138000,
          "time": 431.7851292333333,
          "velocity": 0.4015748031496063
        },
        {
          "duration": 0.3048781250000161,
          "durationTicks": 100,
          "midi": 64,
          "name": "E4",
          "ticks": 138120,
          "time": 432.1509829833333,
          "velocity": 0.4015748031496063
        },
        {
          "duration": 0.375,
          "durationTicks": 120,
          "midi": 57,
          "name": "A3",
          "ticks": 138240,
          "time": 432.51683673333326,
          "velocity": 0.33858267716535434
        },
        {
          "duration": 0.375,
          "durationTicks": 120,
          "midi": 67,
          "name": "G4",
          "ticks": 138360,
          "time": 432.89183673333326,
          "velocity": 0.33858267716535434
        },
        {
          "duration": 0.3125,
          "durationTicks": 100,
          "midi": 67,
          "name": "G4",
          "ticks": 138480,
          "time": 433.26683673333326,
          "velocity": 0.33858267716535434
        },
        {
          "duration": 0.3125,
          "durationTicks": 100,
          "midi": 67,
          "name": "G4",
          "ticks": 138600,
          "time": 433.64183673333326,
          "velocity": 0.33858267716535434
        },
        {
          "duration": 0.375,
          "durationTicks": 120,
          "midi": 57,
          "name": "A3",
          "ticks": 138720,
          "time": 434.01683673333326,
          "velocity": 0.33858267716535434
        },
        {
          "duration": 0.375,
          "durationTicks": 120,
          "midi": 65,
          "name": "F4",
          "ticks": 138840,
          "time": 434.39183673333326,
          "velocity": 0.33858267716535434
        },
        {
          "duration": 0.3125,
          "durationTicks": 100,
          "midi": 65,
          "name": "F4",
          "ticks": 138960,
          "time": 434.76683673333326,
          "velocity": 0.33858267716535434
        },
        {
          "duration": 0.3125,
          "durationTicks": 100,
          "midi": 65,
          "name": "F4",
          "ticks": 139080,
          "time": 435.14183673333326,
          "velocity": 0.33858267716535434
        },
        {
          "duration": 0.375,
          "durationTicks": 120,
          "midi": 55,
          "name": "G3",
          "ticks": 139200,
          "time": 435.51683673333326,
          "velocity": 0.33858267716535434
        },
        {
          "duration": 0.375,
          "durationTicks": 120,
          "midi": 62,
          "name": "D4",
          "ticks": 139320,
          "time": 435.89183673333326,
          "velocity": 0.33858267716535434
        },
        {
          "duration": 0.3125,
          "durationTicks": 100,
          "midi": 62,
          "name": "D4",
          "ticks": 139440,
          "time": 436.26683673333326,
          "velocity": 0.33858267716535434
        },
        {
          "duration": 0.3125,
          "durationTicks": 100,
          "midi": 62,
          "name": "D4",
          "ticks": 139560,
          "time": 436.64183673333326,
          "velocity": 0.33858267716535434
        },
        {
          "duration": 0.375,
          "durationTicks": 120,
          "midi": 57,
          "name": "A3",
          "ticks": 139680,
          "time": 437.01683673333326,
          "velocity": 0.33858267716535434
        },
        {
          "duration": 0.375,
          "durationTicks": 120,
          "midi": 60,
          "name": "C4",
          "ticks": 139800,
          "time": 437.39183673333326,
          "velocity": 0.33070866141732286
        },
        {
          "duration": 0.3125,
          "durationTicks": 100,
          "midi": 60,
          "name": "C4",
          "ticks": 139920,
          "time": 437.76683673333326,
          "velocity": 0.3228346456692913
        },
        {
          "duration": 0.3125,
          "durationTicks": 100,
          "midi": 60,
          "name": "C4",
          "ticks": 140040,
          "time": 438.14183673333326,
          "velocity": 0.3228346456692913
        },
        {
          "duration": 0.375,
          "durationTicks": 120,
          "midi": 57,
          "name": "A3",
          "ticks": 140160,
          "time": 438.51683673333326,
          "velocity": 0.31496062992125984
        },
        {
          "duration": 0.375,
          "durationTicks": 120,
          "midi": 60,
          "name": "C4",
          "ticks": 140280,
          "time": 438.89183673333326,
          "velocity": 0.30708661417322836
        },
        {
          "duration": 0.3134615500000564,
          "durationTicks": 100,
          "midi": 60,
          "name": "C4",
          "ticks": 140400,
          "time": 439.26683673333326,
          "velocity": 0.30708661417322836
        },
        {
          "duration": 0.3205129166667007,
          "durationTicks": 100,
          "midi": 60,
          "name": "C4",
          "ticks": 140520,
          "time": 439.6444008666666,
          "velocity": 0.30708661417322836
        },
        {
          "duration": 0.3873874999999316,
          "durationTicks": 120,
          "midi": 58,
          "name": "A#3",
          "ticks": 140640,
          "time": 440.0290163666666,
          "velocity": 0.2992125984251969
        },
        {
          "duration": 0.40540550000002895,
          "durationTicks": 120,
          "midi": 60,
          "name": "C4",
          "ticks": 140760,
          "time": 440.41640386666654,
          "velocity": 0.2992125984251969
        },
        {
          "duration": 0.3419670416666918,
          "durationTicks": 100,
          "midi": 60,
          "name": "C4",
          "ticks": 140880,
          "time": 440.82180936666657,
          "velocity": 0.29133858267716534
        },
        {
          "duration": 0.34722229166663965,
          "durationTicks": 100,
          "midi": 60,
          "name": "C4",
          "ticks": 141000,
          "time": 441.2332208666666,
          "velocity": 0.29133858267716534
        },
        {
          "duration": 0.75,
          "durationTicks": 240,
          "midi": 60,
          "name": "C4",
          "ticks": 141120,
          "time": 441.6498876166666,
          "velocity": 0.2125984251968504
        },
        {
          "duration": 1.5865221333332897,
          "durationTicks": 480,
          "midi": 58,
          "name": "A#3",
          "ticks": 142080,
          "time": 444.6498876166666,
          "velocity": 0.2992125984251969
        },
        {
          "duration": 0.75,
          "durationTicks": 240,
          "midi": 57,
          "name": "A3",
          "ticks": 142560,
          "time": 446.2364097499999,
          "velocity": 0.2992125984251969
        },
        {
          "duration": 1.6691730000000007,
          "durationTicks": 480,
          "midi": 58,
          "name": "A#3",
          "ticks": 143520,
          "time": 449.2495675833332,
          "velocity": 0.4015748031496063
        },
        {
          "duration": 2.0508927666666636,
          "durationTicks": 480,
          "midi": 58,
          "name": "A#3",
          "ticks": 144000,
          "time": 450.9187405833332,
          "velocity": 0.3700787401574803
        },
        {
          "duration": 1.0714285000000245,
          "durationTicks": 240,
          "midi": 57,
          "name": "A3",
          "ticks": 144480,
          "time": 452.96963334999987,
          "velocity": 0.3543307086614173
        }
      ]
    },
    {
      "channel": 0,
      "controlChanges": {},
      "pitchBends": [],
      "instrument": {
        "family": "piano",
        "number": 0,
        "name": "acoustic grand piano"
      },
      "name": "Viole",
      "notes": [],
      "endOfTrackTicks": 145440
    },
    {
      "channel": 6,
      "controlChanges": {
        "7": [
          {
            "number": 7,
            "ticks": 0,
            "time": 0,
            "value": 0.8267716535433071
          }
        ],
        "10": [
          {
            "number": 10,
            "ticks": 0,
            "time": 0,
            "value": 0.6771653543307087
          }
        ]
      },
      "pitchBends": [],
      "instrument": {
        "family": "ensemble",
        "number": 48,
        "name": "string ensemble 1"
      },
      "name": "",
      "notes": [
        {
          "duration": 2.25,
          "durationTicks": 720,
          "midi": 60,
          "name": "C4",
          "ticks": 960,
          "time": 3,
          "velocity": 0.4251968503937008
        },
        {
          "duration": 0.5,
          "durationTicks": 160,
          "midi": 48,
          "name": "C3",
          "ticks": 1920,
          "time": 6,
          "velocity": 0.4409448818897638
        },
        {
          "duration": 2.25,
          "durationTicks": 720,
          "midi": 60,
          "name": "C4",
          "ticks": 3840,
          "time": 12,
          "velocity": 0.41732283464566927
        },
        {
          "duration": 0.5,
          "durationTicks": 160,
          "midi": 57,
          "name": "A3",
          "ticks": 4800,
          "time": 15,
          "velocity": 0.4645669291338583
        },
        {
          "duration": 1.5,
          "durationTicks": 480,
          "midi": 52,
          "name": "E3",
          "ticks": 7680,
          "time": 24,
          "velocity": 0.3858267716535433
        },
        {
          "duration": 1.5,
          "durationTicks": 480,
          "midi": 53,
          "name": "F3",
          "ticks": 8160,
          "time": 25.5,
          "velocity": 0.4015748031496063
        },
        {
          "duration": 0.375,
          "durationTicks": 120,
          "midi": 58,
          "name": "A#3",
          "ticks": 8640,
          "time": 27,
          "velocity": 0.5118110236220472
        },
        {
          "duration": 0.375,
          "durationTicks": 120,
          "midi": 62,
          "name": "D4",
          "ticks": 8760,
          "time": 27.375,
          "velocity": 0.5118110236220472
        },
        {
          "duration": 0.1875,
          "durationTicks": 60,
          "midi": 62,
          "name": "D4",
          "ticks": 8880,
          "time": 27.75,
          "velocity": 0.5118110236220472
        },
        {
          "duration": 0.1875,
          "durationTicks": 60,
          "midi": 62,
          "name": "D4",
          "ticks": 9000,
          "time": 28.125,
          "velocity": 0.5118110236220472
        },
        {
          "duration": 0.375,
          "durationTicks": 120,
          "midi": 58,
          "name": "A#3",
          "ticks": 9120,
          "time": 28.5,
          "velocity": 0.5118110236220472
        },
        {
          "duration": 0.375,
          "durationTicks": 120,
          "midi": 62,
          "name": "D4",
          "ticks": 9240,
          "time": 28.875,
          "velocity": 0.5039370078740157
        },
        {
          "duration": 0.1875,
          "durationTicks": 60,
          "midi": 62,
          "name": "D4",
          "ticks": 9360,
          "time": 29.25,
          "velocity": 0.5039370078740157
        },
        {
          "duration": 0.1875,
          "durationTicks": 60,
          "midi": 62,
          "name": "D4",
          "ticks": 9480,
          "time": 29.625,
          "velocity": 0.5039370078740157
        },
        {
          "duration": 0.375,
          "durationTicks": 120,
          "midi": 58,
          "name": "A#3",
          "ticks": 9600,
          "time": 30,
          "velocity": 0.5039370078740157
        },
        {
          "duration": 0.375,
          "durationTicks": 120,
          "midi": 62,
          "name": "D4",
          "ticks": 9720,
          "time": 30.375,
          "velocity": 0.5039370078740157
        },
        {
          "duration": 0.1875,
          "durationTicks": 60,
          "midi": 62,
          "name": "D4",
          "ticks": 9840,
          "time": 30.75,
          "velocity": 0.49606299212598426
        },
        {
          "duration": 0.1875,
          "durationTicks": 60,
          "midi": 62,
          "name": "D4",
          "ticks": 9960,
          "time": 31.125,
          "velocity": 0.49606299212598426
        },
        {
          "duration": 0.375,
          "durationTicks": 120,
          "midi": 53,
          "name": "F3",
          "ticks": 10080,
          "time": 31.5,
          "velocity": 0.49606299212598426
        },
        {
          "duration": 0.375,
          "durationTicks": 120,
          "midi": 57,
          "name": "A3",
          "ticks": 10200,
          "time": 31.875,
          "velocity": 0.49606299212598426
        },
        {
          "duration": 0.1875,
          "durationTicks": 60,
          "midi": 57,
          "name": "A3",
          "ticks": 10320,
          "time": 32.25,
          "velocity": 0.49606299212598426
        },
        {
          "duration": 0.1875,
          "durationTicks": 60,
          "midi": 57,
          "name": "A3",
          "ticks": 10440,
          "time": 32.625,
          "velocity": 0.49606299212598426
        },
        {
          "duration": 0.375,
          "durationTicks": 120,
          "midi": 53,
          "name": "F3",
          "ticks": 10560,
          "time": 33,
          "velocity": 0.49606299212598426
        },
        {
          "duration": 0.375,
          "durationTicks": 120,
          "midi": 57,
          "name": "A3",
          "ticks": 10680,
          "time": 33.375,
          "velocity": 0.49606299212598426
        },
        {
          "duration": 0.1875,
          "durationTicks": 60,
          "midi": 57,
          "name": "A3",
          "ticks": 10800,
          "time": 33.75,
          "velocity": 0.49606299212598426
        },
        {
          "duration": 0.1875,
          "durationTicks": 60,
          "midi": 57,
          "name": "A3",
          "ticks": 10920,
          "time": 34.125,
          "velocity": 0.49606299212598426
        },
        {
          "duration": 0.375,
          "durationTicks": 120,
          "midi": 52,
          "name": "E3",
          "ticks": 11040,
          "time": 34.5,
          "velocity": 0.4881889763779528
        },
        {
          "duration": 0.375,
          "durationTicks": 120,
          "midi": 55,
          "name": "G3",
          "ticks": 11160,
          "time": 34.875,
          "velocity": 0.4881889763779528
        },
        {
          "duration": 0.1875,
          "durationTicks": 60,
          "midi": 55,
          "name": "G3",
          "ticks": 11280,
          "time": 35.25,
          "velocity": 0.4881889763779528
        },
        {
          "duration": 0.1875,
          "durationTicks": 60,
          "midi": 55,
          "name": "G3",
          "ticks": 11400,
          "time": 35.625,
          "velocity": 0.4881889763779528
        },
        {
          "duration": 0.375,
          "durationTicks": 120,
          "midi": 52,
          "name": "E3",
          "ticks": 11520,
          "time": 36,
          "velocity": 0.4251968503937008
        },
        {
          "duration": 0.375,
          "durationTicks": 120,
          "midi": 64,
          "name": "E4",
          "ticks": 11640,
          "time": 36.375,
          "velocity": 0.4251968503937008
        },
        {
          "duration": 0.1875,
          "durationTicks": 60,
          "midi": 64,
          "name": "E4",
          "ticks": 11760,
          "time": 36.75,
          "velocity": 0.4251968503937008
        },
        {
          "duration": 0.1875,
          "durationTicks": 60,
          "midi": 64,
          "name": "E4",
          "ticks": 11880,
          "time": 37.125,
          "velocity": 0.4251968503937008
        },
        {
          "duration": 0.375,
          "durationTicks": 120,
          "midi": 53,
          "name": "F3",
          "ticks": 12000,
          "time": 37.5,
          "velocity": 0.4251968503937008
        },
        {
          "duration": 0.375,
          "durationTicks": 120,
          "midi": 62,
          "name": "D4",
          "ticks": 12120,
          "time": 37.875,
          "velocity": 0.4251968503937008
        },
        {
          "duration": 0.1875,
          "durationTicks": 60,
          "midi": 62,
          "name": "D4",
          "ticks": 12240,
          "time": 38.25,
          "velocity": 0.4251968503937008
        },
        {
          "duration": 0.1875,
          "durationTicks": 60,
          "midi": 62,
          "name": "D4",
          "ticks": 12360,
          "time": 38.625,
          "velocity": 0.4251968503937008
        },
        {
          "duration": 0.375,
          "durationTicks": 120,
          "midi": 50,
          "name": "D3",
          "ticks": 12480,
          "time": 39,
          "velocity": 0.4251968503937008
        },
        {
          "duration": 0.375,
          "durationTicks": 120,
          "midi": 58,
          "name": "A#3",
          "ticks": 12600,
          "time": 39.375,
          "velocity": 0.4251968503937008
        },
        {
          "duration": 0.1875,
          "durationTicks": 60,
          "midi": 58,
          "name": "A#3",
          "ticks": 12720,
          "time": 39.75,
          "velocity": 0.4251968503937008
        },
        {
          "duration": 0.1875,
          "durationTicks": 60,
          "midi": 58,
          "name": "A#3",
          "ticks": 12840,
          "time": 40.125,
          "velocity": 0.4251968503937008
        },
        {
          "duration": 0.375,
          "durationTicks": 120,
          "midi": 48,
          "name": "C3",
          "ticks": 12960,
          "time": 40.5,
          "velocity": 0.4251968503937008
        },
        {
          "duration": 0.375,
          "durationTicks": 120,
          "midi": 57,
          "name": "A3",
          "ticks": 13080,
          "time": 40.875,
          "velocity": 0.4251968503937008
        },
        {
          "duration": 0.1875,
          "durationTicks": 60,
          "midi": 57,
          "name": "A3",
          "ticks": 13200,
          "time": 41.25,
          "velocity": 0.4251968503937008
        },
        {
          "duration": 0.1875,
          "durationTicks": 60,
          "midi": 57,
          "name": "A3",
          "ticks": 13320,
          "time": 41.625,
          "velocity": 0.4251968503937008
        },
        {
          "duration": 0.375,
          "durationTicks": 120,
          "midi": 48,
          "name": "C3",
          "ticks": 13440,
          "time": 42,
          "velocity": 0.4251968503937008
        },
        {
          "duration": 0.375,
          "durationTicks": 120,
          "midi": 57,
          "name": "A3",
          "ticks": 13560,
          "time": 42.375,
          "velocity": 0.4251968503937008
        },
        {
          "duration": 0.1875,
          "durationTicks": 60,
          "midi": 57,
          "name": "A3",
          "ticks": 13680,
          "time": 42.75,
          "velocity": 0.4251968503937008
        },
        {
          "duration": 0.1875,
          "durationTicks": 60,
          "midi": 57,
          "name": "A3",
          "ticks": 13800,
          "time": 43.125,
          "velocity": 0.4251968503937008
        },
        {
          "duration": 0.375,
          "durationTicks": 120,
          "midi": 48,
          "name": "C3",
          "ticks": 13920,
          "time": 43.5,
          "velocity": 0.4251968503937008
        },
        {
          "duration": 0.375,
          "durationTicks": 120,
          "midi": 58,
          "name": "A#3",
          "ticks": 14040,
          "time": 43.875,
          "velocity": 0.4251968503937008
        },
        {
          "duration": 0.1875,
          "durationTicks": 60,
          "midi": 58,
          "name": "A#3",
          "ticks": 14160,
          "time": 44.25,
          "velocity": 0.4251968503937008
        },
        {
          "duration": 0.1875,
          "durationTicks": 60,
          "midi": 58,
          "name": "A#3",
          "ticks": 14280,
          "time": 44.625,
          "velocity": 0.4251968503937008
        },
        {
          "duration": 0.75,
          "durationTicks": 240,
          "midi": 57,
          "name": "A3",
          "ticks": 14400,
          "time": 45,
          "velocity": 0.4015748031496063
        },
        {
          "duration": 2.612499999999997,
          "durationTicks": 836,
          "midi": 57,
          "name": "A3",
          "ticks": 14880,
          "time": 46.5,
          "velocity": 0.44881889763779526
        },
        {
          "duration": 0.17499999999999716,
          "durationTicks": 56,
          "midi": 55,
          "name": "G3",
          "ticks": 15720,
          "time": 49.125,
          "velocity": 0.44881889763779526
        },
        {
          "duration": 0.17499999999999716,
          "durationTicks": 56,
          "midi": 53,
          "name": "F3",
          "ticks": 15780,
          "time": 49.3125,
          "velocity": 0.44881889763779526
        },
        {
          "duration": 0.75,
          "durationTicks": 240,
          "midi": 52,
          "name": "E3",
          "ticks": 15840,
          "time": 49.5,
          "velocity": 0.44881889763779526
        },
        {
          "duration": 0.5625,
          "durationTicks": 180,
          "midi": 58,
          "name": "A#3",
          "ticks": 16320,
          "time": 51,
          "velocity": 0.49606299212598426
        },
        {
          "duration": 1.125,
          "durationTicks": 360,
          "midi": 55,
          "name": "G3",
          "ticks": 17280,
          "time": 54,
          "velocity": 0.44881889763779526
        },
        {
          "duration": 0.375,
          "durationTicks": 120,
          "midi": 48,
          "name": "C3",
          "ticks": 17640,
          "time": 55.125,
          "velocity": 0.4881889763779528
        },
        {
          "duration": 2.612499999999997,
          "durationTicks": 836,
          "midi": 58,
          "name": "A#3",
          "ticks": 17760,
          "time": 55.5,
          "velocity": 0.44881889763779526
        },
        {
          "duration": 0.1875,
          "durationTicks": 60,
          "midi": 57,
          "name": "A3",
          "ticks": 18600,
          "time": 58.125,
          "velocity": 0.44881889763779526
        },
        {
          "duration": 0.1875,
          "durationTicks": 60,
          "midi": 55,
          "name": "G3",
          "ticks": 18660,
          "time": 58.3125,
          "velocity": 0.44881889763779526
        },
        {
          "duration": 0.75,
          "durationTicks": 240,
          "midi": 53,
          "name": "F3",
          "ticks": 18720,
          "time": 58.5,
          "velocity": 0.44881889763779526
        },
        {
          "duration": 0.5625,
          "durationTicks": 180,
          "midi": 63,
          "name": "D#4",
          "ticks": 19200,
          "time": 60,
          "velocity": 0.44881889763779526
        },
        {
          "duration": 0.4375,
          "durationTicks": 140,
          "midi": 65,
          "name": "F4",
          "ticks": 20400,
          "time": 63.75,
          "velocity": 0.28346456692913385
        },
        {
          "duration": 0.4375,
          "durationTicks": 140,
          "midi": 65,
          "name": "F4",
          "ticks": 20640,
          "time": 64.5,
          "velocity": 0.2992125984251969
        },
        {
          "duration": 0.75,
          "durationTicks": 240,
          "midi": 65,
          "name": "F4",
          "ticks": 20880,
          "time": 65.25,
          "velocity": 0.31496062992125984
        },
        {
          "duration": 0.75,
          "durationTicks": 240,
          "midi": 64,
          "name": "E4",
          "ticks": 21120,
          "time": 66,
          "velocity": 0.31496062992125984
        },
        {
          "duration": 0.75,
          "durationTicks": 240,
          "midi": 63,
          "name": "D#4",
          "ticks": 21360,
          "time": 66.75,
          "velocity": 0.30708661417322836
        },
        {
          "duration": 0.4375,
          "durationTicks": 140,
          "midi": 62,
          "name": "D4",
          "ticks": 21840,
          "time": 68.25,
          "velocity": 0.2992125984251969
        },
        {
          "duration": 0.4375,
          "durationTicks": 140,
          "midi": 62,
          "name": "D4",
          "ticks": 22080,
          "time": 69,
          "velocity": 0.2992125984251969
        },
        {
          "duration": 0.75,
          "durationTicks": 240,
          "midi": 62,
          "name": "D4",
          "ticks": 22320,
          "time": 69.75,
          "velocity": 0.30708661417322836
        },
        {
          "duration": 0.75,
          "durationTicks": 240,
          "midi": 61,
          "name": "C#4",
          "ticks": 22560,
          "time": 70.5,
          "velocity": 0.30708661417322836
        },
        {
          "duration": 0.75,
          "durationTicks": 240,
          "midi": 60,
          "name": "C4",
          "ticks": 22800,
          "time": 71.25,
          "velocity": 0.30708661417322836
        },
        {
          "duration": 0.4375,
          "durationTicks": 140,
          "midi": 58,
          "name": "A#3",
          "ticks": 23280,
          "time": 72.75,
          "velocity": 0.30708661417322836
        },
        {
          "duration": 0.75,
          "durationTicks": 240,
          "midi": 58,
          "name": "A#3",
          "ticks": 23520,
          "time": 73.5,
          "velocity": 0.30708661417322836
        },
        {
          "duration": 0.6875,
          "durationTicks": 220,
          "midi": 52,
          "name": "E3",
          "ticks": 23760,
          "time": 74.25,
          "velocity": 0.30708661417322836
        },
        {
          "duration": 0.75,
          "durationTicks": 240,
          "midi": 55,
          "name": "G3",
          "ticks": 24000,
          "time": 75,
          "velocity": 0.30708661417322836
        },
        {
          "duration": 0.375,
          "durationTicks": 120,
          "midi": 53,
          "name": "F3",
          "ticks": 24240,
          "time": 75.75,
          "velocity": 0.30708661417322836
        },
        {
          "duration": 0.375,
          "durationTicks": 120,
          "midi": 57,
          "name": "A3",
          "ticks": 24360,
          "time": 76.125,
          "velocity": 0.30708661417322836
        },
        {
          "duration": 0.9249999999999972,
          "durationTicks": 296,
          "midi": 55,
          "name": "G3",
          "ticks": 24480,
          "time": 76.5,
          "velocity": 0.2992125984251969
        },
        {
          "duration": 0.17499999999999716,
          "durationTicks": 56,
          "midi": 53,
          "name": "F3",
          "ticks": 24780,
          "time": 77.4375,
          "velocity": 0.2992125984251969
        },
        {
          "duration": 0.17499999999999716,
          "durationTicks": 56,
          "midi": 52,
          "name": "E3",
          "ticks": 24840,
          "time": 77.625,
          "velocity": 0.2992125984251969
        },
        {
          "duration": 0.17499999999999716,
          "durationTicks": 56,
          "midi": 53,
          "name": "F3",
          "ticks": 24900,
          "time": 77.8125,
          "velocity": 0.2992125984251969
        },
        {
          "duration": 0.75,
          "durationTicks": 240,
          "midi": 52,
          "name": "E3",
          "ticks": 24960,
          "time": 78,
          "velocity": 0.2992125984251969
        },
        {
          "duration": 0.9124999999999943,
          "durationTicks": 292,
          "midi": 51,
          "name": "D#3",
          "ticks": 25920,
          "time": 81,
          "velocity": 0.49606299212598426
        },
        {
          "duration": 0.7125000000000057,
          "durationTicks": 228,
          "midi": 51,
          "name": "D#3",
          "ticks": 26264,
          "time": 82.075,
          "velocity": 0.4251968503937008
        },
        {
          "duration": 0.7125000000000057,
          "durationTicks": 228,
          "midi": 51,
          "name": "D#3",
          "ticks": 26504,
          "time": 82.825,
          "velocity": 0.4251968503937008
        },
        {
          "duration": 0.7125000000000057,
          "durationTicks": 228,
          "midi": 51,
          "name": "D#3",
          "ticks": 26748,
          "time": 83.5875,
          "velocity": 0.4251968503937008
        },
        {
          "duration": 0.7124999999999773,
          "durationTicks": 228,
          "midi": 51,
          "name": "D#3",
          "ticks": 26976,
          "time": 84.30000000000001,
          "velocity": 0.4251968503937008
        },
        {
          "duration": 0.36249999999999716,
          "durationTicks": 116,
          "midi": 51,
          "name": "D#3",
          "ticks": 27228,
          "time": 85.0875,
          "velocity": 0.4409448818897638
        },
        {
          "duration": 0.30000000000001137,
          "durationTicks": 96,
          "midi": 53,
          "name": "F3",
          "ticks": 27360,
          "time": 85.5,
          "velocity": 0.4409448818897638
        },
        {
          "duration": 0.36250000000001137,
          "durationTicks": 116,
          "midi": 53,
          "name": "F3",
          "ticks": 27472,
          "time": 85.85,
          "velocity": 0.4409448818897638
        },
        {
          "duration": 0.36249999999999716,
          "durationTicks": 116,
          "midi": 53,
          "name": "F3",
          "ticks": 27716,
          "time": 86.6125,
          "velocity": 0.4409448818897638
        },
        {
          "duration": 0.36249999999999716,
          "durationTicks": 116,
          "midi": 53,
          "name": "F3",
          "ticks": 27956,
          "time": 87.3625,
          "velocity": 0.4409448818897638
        },
        {
          "duration": 0.36249999999999716,
          "durationTicks": 116,
          "midi": 53,
          "name": "F3",
          "ticks": 28204,
          "time": 88.1375,
          "velocity": 0.4409448818897638
        },
        {
          "duration": 0.36249999999999716,
          "durationTicks": 116,
          "midi": 53,
          "name": "F3",
          "ticks": 28440,
          "time": 88.875,
          "velocity": 0.4409448818897638
        },
        {
          "duration": 0.36249999999999716,
          "durationTicks": 116,
          "midi": 53,
          "name": "F3",
          "ticks": 28676,
          "time": 89.6125,
          "velocity": 0.4409448818897638
        },
        {
          "duration": 0.30000000000001137,
          "durationTicks": 96,
          "midi": 53,
          "name": "F3",
          "ticks": 28800,
          "time": 90,
          "velocity": 0.4881889763779528
        },
        {
          "duration": 0.7125000000000057,
          "durationTicks": 228,
          "midi": 53,
          "name": "F3",
          "ticks": 28904,
          "time": 90.325,
          "velocity": 0.4645669291338583
        },
        {
          "duration": 0.7124999999999915,
          "durationTicks": 228,
          "midi": 53,
          "name": "F3",
          "ticks": 29132,
          "time": 91.03750000000001,
          "velocity": 0.4645669291338583
        },
        {
          "duration": 0.7125000000000057,
          "durationTicks": 228,
          "midi": 53,
          "name": "F3",
          "ticks": 29388,
          "time": 91.8375,
          "velocity": 0.4645669291338583
        },
        {
          "duration": 0.7125000000000057,
          "durationTicks": 228,
          "midi": 53,
          "name": "F3",
          "ticks": 29628,
          "time": 92.5875,
          "velocity": 0.4645669291338583
        },
        {
          "duration": 0.7125000000000057,
          "durationTicks": 228,
          "midi": 53,
          "name": "F3",
          "ticks": 29868,
          "time": 93.3375,
          "velocity": 0.4645669291338583
        },
        {
          "duration": 0.38750000000000284,
          "durationTicks": 124,
          "midi": 56,
          "name": "G#3",
          "ticks": 30116,
          "time": 94.1125,
          "velocity": 0.4645669291338583
        },
        {
          "duration": 0.30000000000001137,
          "durationTicks": 96,
          "midi": 55,
          "name": "G3",
          "ticks": 30240,
          "time": 94.5,
          "velocity": 0.4409448818897638
        },
        {
          "duration": 0.36250000000001137,
          "durationTicks": 116,
          "midi": 55,
          "name": "G3",
          "ticks": 30340,
          "time": 94.8125,
          "velocity": 0.4409448818897638
        },
        {
          "duration": 0.36249999999999716,
          "durationTicks": 116,
          "midi": 55,
          "name": "G3",
          "ticks": 30600,
          "time": 95.625,
          "velocity": 0.4409448818897638
        },
        {
          "duration": 0.36249999999998295,
          "durationTicks": 116,
          "midi": 55,
          "name": "G3",
          "ticks": 30840,
          "time": 96.375,
          "velocity": 0.4409448818897638
        },
        {
          "duration": 0.36249999999998295,
          "durationTicks": 116,
          "midi": 55,
          "name": "G3",
          "ticks": 31080,
          "time": 97.125,
          "velocity": 0.4409448818897638
        },
        {
          "duration": 0.36249999999998295,
          "durationTicks": 116,
          "midi": 55,
          "name": "G3",
          "ticks": 31320,
          "time": 97.875,
          "velocity": 0.4409448818897638
        },
        {
          "duration": 0.36249999999998295,
          "durationTicks": 116,
          "midi": 55,
          "name": "G3",
          "ticks": 31560,
          "time": 98.625,
          "velocity": 0.4409448818897638
        },
        {
          "duration": 0.25,
          "durationTicks": 80,
          "midi": 55,
          "name": "G3",
          "ticks": 31680,
          "time": 99,
          "velocity": 0.5433070866141733
        },
        {
          "duration": 0.25,
          "durationTicks": 80,
          "midi": 55,
          "name": "G3",
          "ticks": 31760,
          "time": 99.25,
          "velocity": 0.5354330708661418
        },
        {
          "duration": 0.25,
          "durationTicks": 80,
          "midi": 55,
          "name": "G3",
          "ticks": 31840,
          "time": 99.5,
          "velocity": 0.5039370078740157
        },
        {
          "duration": 0.25,
          "durationTicks": 80,
          "midi": 55,
          "name": "G3",
          "ticks": 31920,
          "time": 99.75,
          "velocity": 0.4251968503937008
        },
        {
          "duration": 0.25,
          "durationTicks": 80,
          "midi": 55,
          "name": "G3",
          "ticks": 32000,
          "time": 100,
          "velocity": 0.4251968503937008
        },
        {
          "duration": 0.25,
          "durationTicks": 80,
          "midi": 55,
          "name": "G3",
          "ticks": 32080,
          "time": 100.25,
          "velocity": 0.4251968503937008
        },
        {
          "duration": 0.25,
          "durationTicks": 80,
          "midi": 55,
          "name": "G3",
          "ticks": 32160,
          "time": 100.5,
          "velocity": 0.4251968503937008
        },
        {
          "duration": 0.25,
          "durationTicks": 80,
          "midi": 55,
          "name": "G3",
          "ticks": 32240,
          "time": 100.75,
          "velocity": 0.4251968503937008
        },
        {
          "duration": 0.25,
          "durationTicks": 80,
          "midi": 55,
          "name": "G3",
          "ticks": 32320,
          "time": 101,
          "velocity": 0.4251968503937008
        },
        {
          "duration": 0.25,
          "durationTicks": 80,
          "midi": 55,
          "name": "G3",
          "ticks": 32400,
          "time": 101.25,
          "velocity": 0.4251968503937008
        },
        {
          "duration": 0.25,
          "durationTicks": 80,
          "midi": 55,
          "name": "G3",
          "ticks": 32480,
          "time": 101.5,
          "velocity": 0.4251968503937008
        },
        {
          "duration": 0.25,
          "durationTicks": 80,
          "midi": 55,
          "name": "G3",
          "ticks": 32560,
          "time": 101.75,
          "velocity": 0.4251968503937008
        },
        {
          "duration": 0.25,
          "durationTicks": 80,
          "midi": 56,
          "name": "G#3",
          "ticks": 32640,
          "time": 102,
          "velocity": 0.4251968503937008
        },
        {
          "duration": 0.25,
          "durationTicks": 80,
          "midi": 56,
          "name": "G#3",
          "ticks": 32720,
          "time": 102.25,
          "velocity": 0.4251968503937008
        },
        {
          "duration": 0.25,
          "durationTicks": 80,
          "midi": 56,
          "name": "G#3",
          "ticks": 32800,
          "time": 102.5,
          "velocity": 0.4251968503937008
        },
        {
          "duration": 0.25,
          "durationTicks": 80,
          "midi": 56,
          "name": "G#3",
          "ticks": 32880,
          "time": 102.75,
          "velocity": 0.4251968503937008
        },
        {
          "duration": 0.25,
          "durationTicks": 80,
          "midi": 56,
          "name": "G#3",
          "ticks": 32960,
          "time": 103,
          "velocity": 0.4251968503937008
        },
        {
          "duration": 0.25,
          "durationTicks": 80,
          "midi": 56,
          "name": "G#3",
          "ticks": 33040,
          "time": 103.25,
          "velocity": 0.4251968503937008
        },
        {
          "duration": 0.25,
          "durationTicks": 80,
          "midi": 56,
          "name": "G#3",
          "ticks": 33120,
          "time": 103.5,
          "velocity": 0.4251968503937008
        },
        {
          "duration": 0.25,
          "durationTicks": 80,
          "midi": 56,
          "name": "G#3",
          "ticks": 33200,
          "time": 103.75,
          "velocity": 0.4251968503937008
        },
        {
          "duration": 0.25,
          "durationTicks": 80,
          "midi": 56,
          "name": "G#3",
          "ticks": 33280,
          "time": 104,
          "velocity": 0.4251968503937008
        },
        {
          "duration": 0.25,
          "durationTicks": 80,
          "midi": 56,
          "name": "G#3",
          "ticks": 33360,
          "time": 104.25,
          "velocity": 0.4251968503937008
        },
        {
          "duration": 0.25,
          "durationTicks": 80,
          "midi": 56,
          "name": "G#3",
          "ticks": 33440,
          "time": 104.5,
          "velocity": 0.4251968503937008
        },
        {
          "duration": 0.25,
          "durationTicks": 80,
          "midi": 56,
          "name": "G#3",
          "ticks": 33520,
          "time": 104.75,
          "velocity": 0.4251968503937008
        },
        {
          "duration": 0.25,
          "durationTicks": 80,
          "midi": 58,
          "name": "A#3",
          "ticks": 33600,
          "time": 105,
          "velocity": 0.5433070866141733
        },
        {
          "duration": 0.25,
          "durationTicks": 80,
          "midi": 58,
          "name": "A#3",
          "ticks": 33680,
          "time": 105.25,
          "velocity": 0.5354330708661418
        },
        {
          "duration": 0.25,
          "durationTicks": 80,
          "midi": 58,
          "name": "A#3",
          "ticks": 33760,
          "time": 105.5,
          "velocity": 0.5039370078740157
        },
        {
          "duration": 0.25,
          "durationTicks": 80,
          "midi": 58,
          "name": "A#3",
          "ticks": 33840,
          "time": 105.75,
          "velocity": 0.4251968503937008
        },
        {
          "duration": 0.25,
          "durationTicks": 80,
          "midi": 58,
          "name": "A#3",
          "ticks": 33920,
          "time": 106,
          "velocity": 0.4251968503937008
        },
        {
          "duration": 0.25,
          "durationTicks": 80,
          "midi": 58,
          "name": "A#3",
          "ticks": 34000,
          "time": 106.25,
          "velocity": 0.4251968503937008
        },
        {
          "duration": 0.25,
          "durationTicks": 80,
          "midi": 58,
          "name": "A#3",
          "ticks": 34080,
          "time": 106.5,
          "velocity": 0.4251968503937008
        },
        {
          "duration": 0.25,
          "durationTicks": 80,
          "midi": 58,
          "name": "A#3",
          "ticks": 34160,
          "time": 106.75,
          "velocity": 0.4251968503937008
        },
        {
          "duration": 0.25,
          "durationTicks": 80,
          "midi": 58,
          "name": "A#3",
          "ticks": 34240,
          "time": 107,
          "velocity": 0.4251968503937008
        },
        {
          "duration": 0.25,
          "durationTicks": 80,
          "midi": 58,
          "name": "A#3",
          "ticks": 34320,
          "time": 107.25,
          "velocity": 0.4251968503937008
        },
        {
          "duration": 0.25,
          "durationTicks": 80,
          "midi": 58,
          "name": "A#3",
          "ticks": 34400,
          "time": 107.5,
          "velocity": 0.4251968503937008
        },
        {
          "duration": 0.25,
          "durationTicks": 80,
          "midi": 58,
          "name": "A#3",
          "ticks": 34480,
          "time": 107.75,
          "velocity": 0.4251968503937008
        },
        {
          "duration": 0.25,
          "durationTicks": 80,
          "midi": 56,
          "name": "G#3",
          "ticks": 34560,
          "time": 108,
          "velocity": 0.5433070866141733
        },
        {
          "duration": 0.25,
          "durationTicks": 80,
          "midi": 56,
          "name": "G#3",
          "ticks": 34640,
          "time": 108.25,
          "velocity": 0.5354330708661418
        },
        {
          "duration": 0.25,
          "durationTicks": 80,
          "midi": 56,
          "name": "G#3",
          "ticks": 34720,
          "time": 108.5,
          "velocity": 0.5039370078740157
        },
        {
          "duration": 0.25,
          "durationTicks": 80,
          "midi": 56,
          "name": "G#3",
          "ticks": 34800,
          "time": 108.75,
          "velocity": 0.4251968503937008
        },
        {
          "duration": 0.25,
          "durationTicks": 80,
          "midi": 56,
          "name": "G#3",
          "ticks": 34880,
          "time": 109,
          "velocity": 0.4251968503937008
        },
        {
          "duration": 0.25,
          "durationTicks": 80,
          "midi": 56,
          "name": "G#3",
          "ticks": 34960,
          "time": 109.25,
          "velocity": 0.4251968503937008
        },
        {
          "duration": 0.25,
          "durationTicks": 80,
          "midi": 60,
          "name": "C4",
          "ticks": 35040,
          "time": 109.5,
          "velocity": 0.4251968503937008
        },
        {
          "duration": 0.25,
          "durationTicks": 80,
          "midi": 60,
          "name": "C4",
          "ticks": 35120,
          "time": 109.75,
          "velocity": 0.4251968503937008
        },
        {
          "duration": 0.25,
          "durationTicks": 80,
          "midi": 60,
          "name": "C4",
          "ticks": 35200,
          "time": 110,
          "velocity": 0.4251968503937008
        },
        {
          "duration": 0.25,
          "durationTicks": 80,
          "midi": 60,
          "name": "C4",
          "ticks": 35280,
          "time": 110.25,
          "velocity": 0.4251968503937008
        },
        {
          "duration": 0.25,
          "durationTicks": 80,
          "midi": 60,
          "name": "C4",
          "ticks": 35360,
          "time": 110.5,
          "velocity": 0.4251968503937008
        },
        {
          "duration": 0.25,
          "durationTicks": 80,
          "midi": 60,
          "name": "C4",
          "ticks": 35440,
          "time": 110.75,
          "velocity": 0.4251968503937008
        },
        {
          "duration": 0.25,
          "durationTicks": 80,
          "midi": 63,
          "name": "D#4",
          "ticks": 35520,
          "time": 111,
          "velocity": 0.5354330708661418
        },
        {
          "duration": 0.25,
          "durationTicks": 80,
          "midi": 63,
          "name": "D#4",
          "ticks": 35600,
          "time": 111.25,
          "velocity": 0.5354330708661418
        },
        {
          "duration": 0.25,
          "durationTicks": 80,
          "midi": 63,
          "name": "D#4",
          "ticks": 35680,
          "time": 111.5,
          "velocity": 0.49606299212598426
        },
        {
          "duration": 0.25,
          "durationTicks": 80,
          "midi": 63,
          "name": "D#4",
          "ticks": 35760,
          "time": 111.75,
          "velocity": 0.4251968503937008
        },
        {
          "duration": 0.25,
          "durationTicks": 80,
          "midi": 63,
          "name": "D#4",
          "ticks": 35840,
          "time": 112,
          "velocity": 0.4251968503937008
        },
        {
          "duration": 0.25,
          "durationTicks": 80,
          "midi": 63,
          "name": "D#4",
          "ticks": 35920,
          "time": 112.25,
          "velocity": 0.4251968503937008
        },
        {
          "duration": 4.5,
          "durationTicks": 1440,
          "midi": 63,
          "name": "D#4",
          "ticks": 36000,
          "time": 112.5,
          "velocity": 0.4251968503937008
        },
        {
          "duration": 0.75,
          "durationTicks": 240,
          "midi": 55,
          "name": "G3",
          "ticks": 37440,
          "time": 117,
          "velocity": 0.4251968503937008
        },
        {
          "duration": 0.75,
          "durationTicks": 240,
          "midi": 55,
          "name": "G3",
          "ticks": 37920,
          "time": 118.5,
          "velocity": 0.4251968503937008
        },
        {
          "duration": 1.5,
          "durationTicks": 480,
          "midi": 55,
          "name": "G3",
          "ticks": 38880,
          "time": 121.62982456666666,
          "velocity": 0.3543307086614173
        },
        {
          "duration": 1.5,
          "durationTicks": 480,
          "midi": 53,
          "name": "F3",
          "ticks": 39360,
          "time": 123.12982456666666,
          "velocity": 0.3543307086614173
        },
        {
          "duration": 1.5,
          "durationTicks": 480,
          "midi": 52,
          "name": "E3",
          "ticks": 39840,
          "time": 124.62982456666666,
          "velocity": 0.3543307086614173
        },
        {
          "duration": 1.5,
          "durationTicks": 480,
          "midi": 50,
          "name": "D3",
          "ticks": 40320,
          "time": 126.12982456666666,
          "velocity": 0.3543307086614173
        },
        {
          "duration": 1.5,
          "durationTicks": 480,
          "midi": 53,
          "name": "F3",
          "ticks": 41760,
          "time": 130.62982456666666,
          "velocity": 0.3543307086614173
        },
        {
          "duration": 1.5,
          "durationTicks": 480,
          "midi": 52,
          "name": "E3",
          "ticks": 42240,
          "time": 132.12982456666666,
          "velocity": 0.3543307086614173
        },
        {
          "duration": 1.5,
          "durationTicks": 480,
          "midi": 50,
          "name": "D3",
          "ticks": 42720,
          "time": 133.62982456666666,
          "velocity": 0.3543307086614173
        },
        {
          "duration": 1.5,
          "durationTicks": 480,
          "midi": 48,
          "name": "C3",
          "ticks": 43200,
          "time": 135.12982456666666,
          "velocity": 0.3543307086614173
        },
        {
          "duration": 1.5,
          "durationTicks": 480,
          "midi": 64,
          "name": "E4",
          "ticks": 44640,
          "time": 139.62982456666666,
          "velocity": 0.3543307086614173
        },
        {
          "duration": 3,
          "durationTicks": 960,
          "midi": 62,
          "name": "D4",
          "ticks": 45120,
          "time": 141.12982456666666,
          "velocity": 0.3543307086614173
        },
        {
          "duration": 2.25,
          "durationTicks": 720,
          "midi": 60,
          "name": "C4",
          "ticks": 46080,
          "time": 144.12982456666666,
          "velocity": 0.3543307086614173
        },
        {
          "duration": 1.5,
          "durationTicks": 480,
          "midi": 62,
          "name": "D4",
          "ticks": 46800,
          "time": 146.37982456666666,
          "velocity": 0.3543307086614173
        },
        {
          "duration": 0.75,
          "durationTicks": 240,
          "midi": 60,
          "name": "C4",
          "ticks": 47280,
          "time": 147.87982456666666,
          "velocity": 0.3543307086614173
        },
        {
          "duration": 1.5,
          "durationTicks": 480,
          "midi": 57,
          "name": "A3",
          "ticks": 47520,
          "time": 148.62982456666666,
          "velocity": 0.3543307086614173
        },
        {
          "duration": 3,
          "durationTicks": 960,
          "midi": 55,
          "name": "G3",
          "ticks": 48000,
          "time": 150.12982456666666,
          "velocity": 0.3543307086614173
        },
        {
          "duration": 1.5,
          "durationTicks": 480,
          "midi": 64,
          "name": "E4",
          "ticks": 48960,
          "time": 153.12982456666666,
          "velocity": 0.3543307086614173
        },
        {
          "duration": 2.9875000000000114,
          "durationTicks": 956,
          "midi": 62,
          "name": "D4",
          "ticks": 49440,
          "time": 154.62982456666666,
          "velocity": 0.3543307086614173
        },
        {
          "duration": 2.2375000000000114,
          "durationTicks": 716,
          "midi": 60,
          "name": "C4",
          "ticks": 50400,
          "time": 157.62982456666666,
          "velocity": 0.3543307086614173
        },
        {
          "duration": 1.4875000000000114,
          "durationTicks": 476,
          "midi": 62,
          "name": "D4",
          "ticks": 51120,
          "time": 159.87982456666666,
          "velocity": 0.3543307086614173
        },
        {
          "duration": 1.4875000000000114,
          "durationTicks": 476,
          "midi": 60,
          "name": "C4",
          "ticks": 51600,
          "time": 161.37982456666666,
          "velocity": 0.3543307086614173
        },
        {
          "duration": 1.4875000000000114,
          "durationTicks": 476,
          "midi": 59,
          "name": "B3",
          "ticks": 52080,
          "time": 162.87982456666666,
          "velocity": 0.36220472440944884
        },
        {
          "duration": 1.4875000000000114,
          "durationTicks": 476,
          "midi": 57,
          "name": "A3",
          "ticks": 52560,
          "time": 164.37982456666666,
          "velocity": 0.3779527559055118
        },
        {
          "duration": 1.4875000000000114,
          "durationTicks": 476,
          "midi": 55,
          "name": "G3",
          "ticks": 53040,
          "time": 165.87982456666666,
          "velocity": 0.4015748031496063
        },
        {
          "duration": 0.75,
          "durationTicks": 240,
          "midi": 59,
          "name": "B3",
          "ticks": 53520,
          "time": 167.37982456666666,
          "velocity": 0.4251968503937008
        },
        {
          "duration": 0.75,
          "durationTicks": 240,
          "midi": 60,
          "name": "C4",
          "ticks": 53760,
          "time": 168.12982456666666,
          "velocity": 0.4251968503937008
        },
        {
          "duration": 0.6750000000000114,
          "durationTicks": 216,
          "midi": 57,
          "name": "A3",
          "ticks": 54000,
          "time": 168.87982456666666,
          "velocity": 0.4251968503937008
        },
        {
          "duration": 0.6750000000000114,
          "durationTicks": 216,
          "midi": 55,
          "name": "G3",
          "ticks": 54240,
          "time": 169.62982456666666,
          "velocity": 0.4251968503937008
        },
        {
          "duration": 0.6750000000000114,
          "durationTicks": 216,
          "midi": 53,
          "name": "F3",
          "ticks": 54480,
          "time": 170.37982456666666,
          "velocity": 0.4251968503937008
        },
        {
          "duration": 1.5,
          "durationTicks": 480,
          "midi": 52,
          "name": "E3",
          "ticks": 54720,
          "time": 171.12982456666666,
          "velocity": 0.4251968503937008
        },
        {
          "duration": 2.25,
          "durationTicks": 720,
          "midi": 55,
          "name": "G3",
          "ticks": 57120,
          "time": 178.62982456666666,
          "velocity": 0.3543307086614173
        },
        {
          "duration": 1.5,
          "durationTicks": 480,
          "midi": 55,
          "name": "G3",
          "ticks": 60000,
          "time": 187.62982456666666,
          "velocity": 0.3543307086614173
        },
        {
          "duration": 0.75,
          "durationTicks": 240,
          "midi": 48,
          "name": "C3",
          "ticks": 60480,
          "time": 189.12982456666666,
          "velocity": 0.3543307086614173
        },
        {
          "duration": 0.7616079333333232,
          "durationTicks": 224,
          "midi": 60,
          "name": "C4",
          "ticks": 60960,
          "time": 190.64136316666668,
          "velocity": 0.3543307086614173
        },
        {
          "duration": 2.298025200000012,
          "durationTicks": 720,
          "midi": 52,
          "name": "E3",
          "ticks": 63360,
          "time": 198.21963780000002,
          "velocity": 0.3543307086614173
        },
        {
          "duration": 0.32500000000001705,
          "durationTicks": 104,
          "midi": 53,
          "name": "F3",
          "ticks": 66244,
          "time": 207.50394406666663,
          "velocity": 0.49606299212598426
        },
        {
          "duration": 0.7125000000000057,
          "durationTicks": 228,
          "midi": 53,
          "name": "F3",
          "ticks": 66360,
          "time": 207.86644406666665,
          "velocity": 0.4645669291338583
        },
        {
          "duration": 0.7124999999999773,
          "durationTicks": 228,
          "midi": 53,
          "name": "F3",
          "ticks": 66608,
          "time": 208.64144406666665,
          "velocity": 0.41732283464566927
        },
        {
          "duration": 0.7125000000000057,
          "durationTicks": 228,
          "midi": 53,
          "name": "F3",
          "ticks": 66844,
          "time": 209.37894406666663,
          "velocity": 0.41732283464566927
        },
        {
          "duration": 0.7124999999999773,
          "durationTicks": 228,
          "midi": 53,
          "name": "F3",
          "ticks": 67088,
          "time": 210.14144406666665,
          "velocity": 0.41732283464566927
        },
        {
          "duration": 0.7125000000000057,
          "durationTicks": 228,
          "midi": 53,
          "name": "F3",
          "ticks": 67320,
          "time": 210.86644406666665,
          "velocity": 0.41732283464566927
        },
        {
          "duration": 0.375,
          "durationTicks": 120,
          "midi": 53,
          "name": "F3",
          "ticks": 67560,
          "time": 211.61644406666665,
          "velocity": 0.41732283464566927
        },
        {
          "duration": 0.32499999999998863,
          "durationTicks": 104,
          "midi": 55,
          "name": "G3",
          "ticks": 67680,
          "time": 211.99144406666665,
          "velocity": 0.41732283464566927
        },
        {
          "duration": 0.32499999999998863,
          "durationTicks": 104,
          "midi": 55,
          "name": "G3",
          "ticks": 67808,
          "time": 212.39144406666665,
          "velocity": 0.41732283464566927
        },
        {
          "duration": 0.375,
          "durationTicks": 120,
          "midi": 55,
          "name": "G3",
          "ticks": 68048,
          "time": 213.14144406666665,
          "velocity": 0.41732283464566927
        },
        {
          "duration": 0.375,
          "durationTicks": 120,
          "midi": 55,
          "name": "G3",
          "ticks": 68288,
          "time": 213.89144406666665,
          "velocity": 0.41732283464566927
        },
        {
          "duration": 0.375,
          "durationTicks": 120,
          "midi": 55,
          "name": "G3",
          "ticks": 68528,
          "time": 214.64144406666665,
          "velocity": 0.41732283464566927
        },
        {
          "duration": 0.375,
          "durationTicks": 120,
          "midi": 55,
          "name": "G3",
          "ticks": 68776,
          "time": 215.41644406666663,
          "velocity": 0.41732283464566927
        },
        {
          "duration": 0.375,
          "durationTicks": 120,
          "midi": 55,
          "name": "G3",
          "ticks": 69008,
          "time": 216.14144406666665,
          "velocity": 0.41732283464566927
        },
        {
          "duration": 0.2874999999999943,
          "durationTicks": 92,
          "midi": 52,
          "name": "E3",
          "ticks": 69120,
          "time": 216.49144406666665,
          "velocity": 0.49606299212598426
        },
        {
          "duration": 0.7125000000000057,
          "durationTicks": 228,
          "midi": 52,
          "name": "E3",
          "ticks": 69224,
          "time": 216.81644406666663,
          "velocity": 0.41732283464566927
        },
        {
          "duration": 0.7125000000000057,
          "durationTicks": 228,
          "midi": 52,
          "name": "E3",
          "ticks": 69460,
          "time": 217.55394406666665,
          "velocity": 0.41732283464566927
        },
        {
          "duration": 0.7124999999999773,
          "durationTicks": 228,
          "midi": 52,
          "name": "E3",
          "ticks": 69708,
          "time": 218.32894406666665,
          "velocity": 0.41732283464566927
        },
        {
          "duration": 0.7125000000000057,
          "durationTicks": 228,
          "midi": 52,
          "name": "E3",
          "ticks": 69956,
          "time": 219.10394406666663,
          "velocity": 0.41732283464566927
        },
        {
          "duration": 0.7125000000000057,
          "durationTicks": 228,
          "midi": 52,
          "name": "E3",
          "ticks": 70192,
          "time": 219.84144406666664,
          "velocity": 0.41732283464566927
        },
        {
          "duration": 0.38750000000001705,
          "durationTicks": 124,
          "midi": 55,
          "name": "G3",
          "ticks": 70444,
          "time": 220.62894406666663,
          "velocity": 0.41732283464566927
        },
        {
          "duration": 0.32499999999998863,
          "durationTicks": 104,
          "midi": 57,
          "name": "A3",
          "ticks": 70560,
          "time": 220.99144406666665,
          "velocity": 0.41732283464566927
        },
        {
          "duration": 0.375,
          "durationTicks": 120,
          "midi": 57,
          "name": "A3",
          "ticks": 70680,
          "time": 221.36644406666665,
          "velocity": 0.41732283464566927
        },
        {
          "duration": 0.375,
          "durationTicks": 120,
          "midi": 57,
          "name": "A3",
          "ticks": 70920,
          "time": 222.11644406666665,
          "velocity": 0.41732283464566927
        },
        {
          "duration": 0.375,
          "durationTicks": 120,
          "midi": 57,
          "name": "A3",
          "ticks": 71160,
          "time": 222.86644406666665,
          "velocity": 0.41732283464566927
        },
        {
          "duration": 0.375,
          "durationTicks": 120,
          "midi": 57,
          "name": "A3",
          "ticks": 71400,
          "time": 223.61644406666665,
          "velocity": 0.41732283464566927
        },
        {
          "duration": 0.375,
          "durationTicks": 120,
          "midi": 57,
          "name": "A3",
          "ticks": 71632,
          "time": 224.34144406666664,
          "velocity": 0.41732283464566927
        },
        {
          "duration": 0.375,
          "durationTicks": 120,
          "midi": 57,
          "name": "A3",
          "ticks": 71880,
          "time": 225.11644406666665,
          "velocity": 0.41732283464566927
        },
        {
          "duration": 0.25,
          "durationTicks": 80,
          "midi": 58,
          "name": "A#3",
          "ticks": 72000,
          "time": 225.49144406666665,
          "velocity": 0.49606299212598426
        },
        {
          "duration": 0.25,
          "durationTicks": 80,
          "midi": 63,
          "name": "D#4",
          "ticks": 72080,
          "time": 225.74144406666665,
          "velocity": 0.4645669291338583
        },
        {
          "duration": 0.25,
          "durationTicks": 80,
          "midi": 63,
          "name": "D#4",
          "ticks": 72160,
          "time": 225.99144406666665,
          "velocity": 0.41732283464566927
        },
        {
          "duration": 0.25,
          "durationTicks": 80,
          "midi": 63,
          "name": "D#4",
          "ticks": 72240,
          "time": 226.24144406666665,
          "velocity": 0.41732283464566927
        },
        {
          "duration": 0.25,
          "durationTicks": 80,
          "midi": 63,
          "name": "D#4",
          "ticks": 72320,
          "time": 226.49144406666665,
          "velocity": 0.41732283464566927
        },
        {
          "duration": 0.25,
          "durationTicks": 80,
          "midi": 63,
          "name": "D#4",
          "ticks": 72400,
          "time": 226.74144406666665,
          "velocity": 0.41732283464566927
        },
        {
          "duration": 0.25,
          "durationTicks": 80,
          "midi": 63,
          "name": "D#4",
          "ticks": 72480,
          "time": 226.99144406666665,
          "velocity": 0.41732283464566927
        },
        {
          "duration": 0.25,
          "durationTicks": 80,
          "midi": 63,
          "name": "D#4",
          "ticks": 72560,
          "time": 227.24144406666665,
          "velocity": 0.41732283464566927
        },
        {
          "duration": 0.25,
          "durationTicks": 80,
          "midi": 63,
          "name": "D#4",
          "ticks": 72640,
          "time": 227.49144406666665,
          "velocity": 0.41732283464566927
        },
        {
          "duration": 0.25,
          "durationTicks": 80,
          "midi": 63,
          "name": "D#4",
          "ticks": 72720,
          "time": 227.74144406666665,
          "velocity": 0.41732283464566927
        },
        {
          "duration": 0.25,
          "durationTicks": 80,
          "midi": 63,
          "name": "D#4",
          "ticks": 72800,
          "time": 227.99144406666665,
          "velocity": 0.41732283464566927
        },
        {
          "duration": 0.25,
          "durationTicks": 80,
          "midi": 63,
          "name": "D#4",
          "ticks": 72880,
          "time": 228.24144406666665,
          "velocity": 0.41732283464566927
        },
        {
          "duration": 0.25,
          "durationTicks": 80,
          "midi": 63,
          "name": "D#4",
          "ticks": 72960,
          "time": 228.49144406666665,
          "velocity": 0.41732283464566927
        },
        {
          "duration": 0.25,
          "durationTicks": 80,
          "midi": 63,
          "name": "D#4",
          "ticks": 73040,
          "time": 228.74144406666665,
          "velocity": 0.41732283464566927
        },
        {
          "duration": 0.25,
          "durationTicks": 80,
          "midi": 63,
          "name": "D#4",
          "ticks": 73120,
          "time": 228.99144406666665,
          "velocity": 0.41732283464566927
        },
        {
          "duration": 0.25,
          "durationTicks": 80,
          "midi": 63,
          "name": "D#4",
          "ticks": 73200,
          "time": 229.24144406666665,
          "velocity": 0.41732283464566927
        },
        {
          "duration": 0.25,
          "durationTicks": 80,
          "midi": 63,
          "name": "D#4",
          "ticks": 73280,
          "time": 229.49144406666665,
          "velocity": 0.41732283464566927
        },
        {
          "duration": 0.25,
          "durationTicks": 80,
          "midi": 63,
          "name": "D#4",
          "ticks": 73360,
          "time": 229.74144406666665,
          "velocity": 0.41732283464566927
        },
        {
          "duration": 0.25,
          "durationTicks": 80,
          "midi": 61,
          "name": "C#4",
          "ticks": 73440,
          "time": 229.99144406666665,
          "velocity": 0.49606299212598426
        },
        {
          "duration": 0.25,
          "durationTicks": 80,
          "midi": 61,
          "name": "C#4",
          "ticks": 73520,
          "time": 230.24144406666665,
          "velocity": 0.41732283464566927
        },
        {
          "duration": 0.25,
          "durationTicks": 80,
          "midi": 61,
          "name": "C#4",
          "ticks": 73600,
          "time": 230.49144406666665,
          "velocity": 0.41732283464566927
        },
        {
          "duration": 0.25,
          "durationTicks": 80,
          "midi": 61,
          "name": "C#4",
          "ticks": 73680,
          "time": 230.74144406666665,
          "velocity": 0.41732283464566927
        },
        {
          "duration": 0.25,
          "durationTicks": 80,
          "midi": 61,
          "name": "C#4",
          "ticks": 73760,
          "time": 230.99144406666665,
          "velocity": 0.41732283464566927
        },
        {
          "duration": 0.25,
          "durationTicks": 80,
          "midi": 61,
          "name": "C#4",
          "ticks": 73840,
          "time": 231.24144406666665,
          "velocity": 0.41732283464566927
        },
        {
          "duration": 0.25,
          "durationTicks": 80,
          "midi": 60,
          "name": "C4",
          "ticks": 73920,
          "time": 231.49144406666665,
          "velocity": 0.41732283464566927
        },
        {
          "duration": 0.25,
          "durationTicks": 80,
          "midi": 60,
          "name": "C4",
          "ticks": 74000,
          "time": 231.74144406666665,
          "velocity": 0.41732283464566927
        },
        {
          "duration": 0.25,
          "durationTicks": 80,
          "midi": 60,
          "name": "C4",
          "ticks": 74080,
          "time": 231.99144406666665,
          "velocity": 0.41732283464566927
        },
        {
          "duration": 0.25,
          "durationTicks": 80,
          "midi": 60,
          "name": "C4",
          "ticks": 74160,
          "time": 232.24144406666665,
          "velocity": 0.41732283464566927
        },
        {
          "duration": 0.25,
          "durationTicks": 80,
          "midi": 60,
          "name": "C4",
          "ticks": 74240,
          "time": 232.49144406666665,
          "velocity": 0.41732283464566927
        },
        {
          "duration": 0.25,
          "durationTicks": 80,
          "midi": 60,
          "name": "C4",
          "ticks": 74320,
          "time": 232.74144406666665,
          "velocity": 0.41732283464566927
        },
        {
          "duration": 0.25,
          "durationTicks": 80,
          "midi": 65,
          "name": "F4",
          "ticks": 74400,
          "time": 232.99144406666665,
          "velocity": 0.41732283464566927
        },
        {
          "duration": 0.25,
          "durationTicks": 80,
          "midi": 65,
          "name": "F4",
          "ticks": 74480,
          "time": 233.24144406666665,
          "velocity": 0.41732283464566927
        },
        {
          "duration": 0.25,
          "durationTicks": 80,
          "midi": 65,
          "name": "F4",
          "ticks": 74560,
          "time": 233.49144406666665,
          "velocity": 0.41732283464566927
        },
        {
          "duration": 0.25,
          "durationTicks": 80,
          "midi": 65,
          "name": "F4",
          "ticks": 74640,
          "time": 233.74144406666665,
          "velocity": 0.41732283464566927
        },
        {
          "duration": 0.25,
          "durationTicks": 80,
          "midi": 65,
          "name": "F4",
          "ticks": 74720,
          "time": 233.99144406666665,
          "velocity": 0.41732283464566927
        },
        {
          "duration": 0.25,
          "durationTicks": 80,
          "midi": 65,
          "name": "F4",
          "ticks": 74800,
          "time": 234.24144406666665,
          "velocity": 0.41732283464566927
        },
        {
          "duration": 0.25,
          "durationTicks": 80,
          "midi": 65,
          "name": "F4",
          "ticks": 74880,
          "time": 234.49144406666665,
          "velocity": 0.49606299212598426
        },
        {
          "duration": 0.25,
          "durationTicks": 80,
          "midi": 65,
          "name": "F4",
          "ticks": 74960,
          "time": 234.74144406666665,
          "velocity": 0.41732283464566927
        },
        {
          "duration": 0.25,
          "durationTicks": 80,
          "midi": 65,
          "name": "F4",
          "ticks": 75040,
          "time": 234.99144406666665,
          "velocity": 0.41732283464566927
        },
        {
          "duration": 0.25,
          "durationTicks": 80,
          "midi": 65,
          "name": "F4",
          "ticks": 75120,
          "time": 235.24144406666665,
          "velocity": 0.41732283464566927
        },
        {
          "duration": 0.25,
          "durationTicks": 80,
          "midi": 65,
          "name": "F4",
          "ticks": 75200,
          "time": 235.49144406666665,
          "velocity": 0.41732283464566927
        },
        {
          "duration": 0.25,
          "durationTicks": 80,
          "midi": 65,
          "name": "F4",
          "ticks": 75280,
          "time": 235.74144406666665,
          "velocity": 0.41732283464566927
        },
        {
          "duration": 0.25,
          "durationTicks": 80,
          "midi": 63,
          "name": "D#4",
          "ticks": 75360,
          "time": 235.99144406666665,
          "velocity": 0.41732283464566927
        },
        {
          "duration": 0.25,
          "durationTicks": 80,
          "midi": 63,
          "name": "D#4",
          "ticks": 75440,
          "time": 236.24144406666665,
          "velocity": 0.41732283464566927
        },
        {
          "duration": 0.25,
          "durationTicks": 80,
          "midi": 63,
          "name": "D#4",
          "ticks": 75520,
          "time": 236.49144406666665,
          "velocity": 0.41732283464566927
        },
        {
          "duration": 0.25,
          "durationTicks": 80,
          "midi": 63,
          "name": "D#4",
          "ticks": 75600,
          "time": 236.74144406666665,
          "velocity": 0.41732283464566927
        },
        {
          "duration": 0.25,
          "durationTicks": 80,
          "midi": 63,
          "name": "D#4",
          "ticks": 75680,
          "time": 236.99144406666665,
          "velocity": 0.41732283464566927
        },
        {
          "duration": 0.25,
          "durationTicks": 80,
          "midi": 63,
          "name": "D#4",
          "ticks": 75760,
          "time": 237.24144406666665,
          "velocity": 0.41732283464566927
        },
        {
          "duration": 0.25,
          "durationTicks": 80,
          "midi": 62,
          "name": "D4",
          "ticks": 75840,
          "time": 237.49144406666665,
          "velocity": 0.41732283464566927
        },
        {
          "duration": 0.25,
          "durationTicks": 80,
          "midi": 62,
          "name": "D4",
          "ticks": 75920,
          "time": 237.74144406666665,
          "velocity": 0.41732283464566927
        },
        {
          "duration": 0.25,
          "durationTicks": 80,
          "midi": 62,
          "name": "D4",
          "ticks": 76000,
          "time": 237.99144406666665,
          "velocity": 0.41732283464566927
        },
        {
          "duration": 0.25,
          "durationTicks": 80,
          "midi": 62,
          "name": "D4",
          "ticks": 76080,
          "time": 238.24144406666665,
          "velocity": 0.41732283464566927
        },
        {
          "duration": 0.25,
          "durationTicks": 80,
          "midi": 62,
          "name": "D4",
          "ticks": 76160,
          "time": 238.49144406666665,
          "velocity": 0.41732283464566927
        },
        {
          "duration": 0.25,
          "durationTicks": 80,
          "midi": 62,
          "name": "D4",
          "ticks": 76240,
          "time": 238.74144406666665,
          "velocity": 0.41732283464566927
        },
        {
          "duration": 0.25,
          "durationTicks": 80,
          "midi": 67,
          "name": "G4",
          "ticks": 76320,
          "time": 238.99144406666665,
          "velocity": 0.41732283464566927
        },
        {
          "duration": 0.25,
          "durationTicks": 80,
          "midi": 67,
          "name": "G4",
          "ticks": 76400,
          "time": 239.24144406666665,
          "velocity": 0.41732283464566927
        },
        {
          "duration": 0.25,
          "durationTicks": 80,
          "midi": 67,
          "name": "G4",
          "ticks": 76480,
          "time": 239.49144406666665,
          "velocity": 0.41732283464566927
        },
        {
          "duration": 0.25,
          "durationTicks": 80,
          "midi": 67,
          "name": "G4",
          "ticks": 76560,
          "time": 239.74144406666665,
          "velocity": 0.41732283464566927
        },
        {
          "duration": 0.25,
          "durationTicks": 80,
          "midi": 67,
          "name": "G4",
          "ticks": 76640,
          "time": 239.99144406666665,
          "velocity": 0.41732283464566927
        },
        {
          "duration": 0.25,
          "durationTicks": 80,
          "midi": 67,
          "name": "G4",
          "ticks": 76720,
          "time": 240.24144406666665,
          "velocity": 0.41732283464566927
        },
        {
          "duration": 0.25,
          "durationTicks": 80,
          "midi": 67,
          "name": "G4",
          "ticks": 76800,
          "time": 240.49144406666665,
          "velocity": 0.41732283464566927
        },
        {
          "duration": 0.25,
          "durationTicks": 80,
          "midi": 67,
          "name": "G4",
          "ticks": 76880,
          "time": 240.74144406666665,
          "velocity": 0.41732283464566927
        },
        {
          "duration": 0.25,
          "durationTicks": 80,
          "midi": 67,
          "name": "G4",
          "ticks": 76960,
          "time": 240.99144406666665,
          "velocity": 0.41732283464566927
        },
        {
          "duration": 0.25,
          "durationTicks": 80,
          "midi": 67,
          "name": "G4",
          "ticks": 77040,
          "time": 241.24144406666665,
          "velocity": 0.41732283464566927
        },
        {
          "duration": 0.25,
          "durationTicks": 80,
          "midi": 67,
          "name": "G4",
          "ticks": 77120,
          "time": 241.49144406666665,
          "velocity": 0.41732283464566927
        },
        {
          "duration": 0.25,
          "durationTicks": 80,
          "midi": 67,
          "name": "G4",
          "ticks": 77200,
          "time": 241.74144406666665,
          "velocity": 0.41732283464566927
        },
        {
          "duration": 0.25,
          "durationTicks": 80,
          "midi": 65,
          "name": "F4",
          "ticks": 77280,
          "time": 241.99144406666665,
          "velocity": 0.41732283464566927
        },
        {
          "duration": 0.25,
          "durationTicks": 80,
          "midi": 65,
          "name": "F4",
          "ticks": 77360,
          "time": 242.24144406666665,
          "velocity": 0.41732283464566927
        },
        {
          "duration": 0.25,
          "durationTicks": 80,
          "midi": 65,
          "name": "F4",
          "ticks": 77440,
          "time": 242.49144406666665,
          "velocity": 0.41732283464566927
        },
        {
          "duration": 0.25,
          "durationTicks": 80,
          "midi": 65,
          "name": "F4",
          "ticks": 77520,
          "time": 242.74144406666665,
          "velocity": 0.41732283464566927
        },
        {
          "duration": 0.25,
          "durationTicks": 80,
          "midi": 65,
          "name": "F4",
          "ticks": 77600,
          "time": 242.99144406666665,
          "velocity": 0.41732283464566927
        },
        {
          "duration": 0.25,
          "durationTicks": 80,
          "midi": 65,
          "name": "F4",
          "ticks": 77680,
          "time": 243.24144406666665,
          "velocity": 0.41732283464566927
        },
        {
          "duration": 0.25,
          "durationTicks": 80,
          "midi": 65,
          "name": "F4",
          "ticks": 77760,
          "time": 243.49144406666665,
          "velocity": 0.41732283464566927
        },
        {
          "duration": 0.25,
          "durationTicks": 80,
          "midi": 65,
          "name": "F4",
          "ticks": 77840,
          "time": 243.74144406666665,
          "velocity": 0.41732283464566927
        },
        {
          "duration": 0.25,
          "durationTicks": 80,
          "midi": 65,
          "name": "F4",
          "ticks": 77920,
          "time": 243.99144406666665,
          "velocity": 0.41732283464566927
        },
        {
          "duration": 0.25,
          "durationTicks": 80,
          "midi": 65,
          "name": "F4",
          "ticks": 78000,
          "time": 244.24144406666665,
          "velocity": 0.41732283464566927
        },
        {
          "duration": 0.25,
          "durationTicks": 80,
          "midi": 65,
          "name": "F4",
          "ticks": 78080,
          "time": 244.49144406666665,
          "velocity": 0.41732283464566927
        },
        {
          "duration": 0.25,
          "durationTicks": 80,
          "midi": 65,
          "name": "F4",
          "ticks": 78160,
          "time": 244.74144406666665,
          "velocity": 0.41732283464566927
        },
        {
          "duration": 0.25,
          "durationTicks": 80,
          "midi": 63,
          "name": "D#4",
          "ticks": 78240,
          "time": 244.99144406666665,
          "velocity": 0.41732283464566927
        },
        {
          "duration": 0.25,
          "durationTicks": 80,
          "midi": 63,
          "name": "D#4",
          "ticks": 78320,
          "time": 245.24144406666665,
          "velocity": 0.41732283464566927
        },
        {
          "duration": 0.25,
          "durationTicks": 80,
          "midi": 63,
          "name": "D#4",
          "ticks": 78400,
          "time": 245.49144406666665,
          "velocity": 0.41732283464566927
        },
        {
          "duration": 0.25,
          "durationTicks": 80,
          "midi": 63,
          "name": "D#4",
          "ticks": 78480,
          "time": 245.74144406666665,
          "velocity": 0.41732283464566927
        },
        {
          "duration": 0.25,
          "durationTicks": 80,
          "midi": 63,
          "name": "D#4",
          "ticks": 78560,
          "time": 245.99144406666665,
          "velocity": 0.41732283464566927
        },
        {
          "duration": 0.25,
          "durationTicks": 80,
          "midi": 63,
          "name": "D#4",
          "ticks": 78640,
          "time": 246.24144406666665,
          "velocity": 0.41732283464566927
        },
        {
          "duration": 0.75,
          "durationTicks": 240,
          "midi": 62,
          "name": "D4",
          "ticks": 78720,
          "time": 246.49144406666665,
          "velocity": 0.41732283464566927
        },
        {
          "duration": 0.75,
          "durationTicks": 240,
          "midi": 53,
          "name": "F3",
          "ticks": 78960,
          "time": 247.24144406666665,
          "velocity": 0.41732283464566927
        },
        {
          "duration": 0.75,
          "durationTicks": 240,
          "midi": 52,
          "name": "E3",
          "ticks": 79200,
          "time": 247.99144406666665,
          "velocity": 0.41732283464566927
        },
        {
          "duration": 1.5,
          "durationTicks": 480,
          "midi": 58,
          "name": "A#3",
          "ticks": 80640,
          "time": 252.49144406666665,
          "velocity": 0.4015748031496063
        },
        {
          "duration": 0.75,
          "durationTicks": 240,
          "midi": 57,
          "name": "A3",
          "ticks": 81120,
          "time": 253.99144406666665,
          "velocity": 0.4015748031496063
        },
        {
          "duration": 1.5,
          "durationTicks": 480,
          "midi": 70,
          "name": "A#4",
          "ticks": 81600,
          "time": 255.49144406666665,
          "velocity": 0.4015748031496063
        },
        {
          "duration": 0.75,
          "durationTicks": 240,
          "midi": 69,
          "name": "A4",
          "ticks": 82080,
          "time": 256.99144406666665,
          "velocity": 0.4015748031496063
        },
        {
          "duration": 0.6875,
          "durationTicks": 220,
          "midi": 52,
          "name": "E3",
          "ticks": 82800,
          "time": 259.24144406666665,
          "velocity": 0.3858267716535433
        },
        {
          "duration": 0.6875,
          "durationTicks": 220,
          "midi": 52,
          "name": "E3",
          "ticks": 83280,
          "time": 260.74144406666665,
          "velocity": 0.3858267716535433
        },
        {
          "duration": 0.6875,
          "durationTicks": 220,
          "midi": 50,
          "name": "D3",
          "ticks": 83760,
          "time": 262.24144406666665,
          "velocity": 0.3858267716535433
        },
        {
          "duration": 0.6910256833333506,
          "durationTicks": 220,
          "midi": 50,
          "name": "D3",
          "ticks": 84240,
          "time": 263.74144406666665,
          "velocity": 0.3858267716535433
        },
        {
          "duration": 0.7125000000000341,
          "durationTicks": 228,
          "midi": 48,
          "name": "C3",
          "ticks": 84960,
          "time": 266.1177627999999,
          "velocity": 0.3543307086614173
        },
        {
          "duration": 0.7125000000000341,
          "durationTicks": 228,
          "midi": 53,
          "name": "F3",
          "ticks": 85200,
          "time": 266.8677627999999,
          "velocity": 0.3543307086614173
        },
        {
          "duration": 0.7125000000000341,
          "durationTicks": 228,
          "midi": 57,
          "name": "A3",
          "ticks": 85200,
          "time": 266.8677627999999,
          "velocity": 0.3543307086614173
        },
        {
          "duration": 0.7125000000000341,
          "durationTicks": 228,
          "midi": 53,
          "name": "F3",
          "ticks": 85440,
          "time": 267.6177627999999,
          "velocity": 0.3543307086614173
        },
        {
          "duration": 0.7125000000000341,
          "durationTicks": 228,
          "midi": 57,
          "name": "A3",
          "ticks": 85440,
          "time": 267.6177627999999,
          "velocity": 0.3543307086614173
        },
        {
          "duration": 0.7125000000000341,
          "durationTicks": 228,
          "midi": 53,
          "name": "F3",
          "ticks": 85680,
          "time": 268.3677627999999,
          "velocity": 0.3543307086614173
        },
        {
          "duration": 0.7125000000000341,
          "durationTicks": 228,
          "midi": 57,
          "name": "A3",
          "ticks": 85680,
          "time": 268.3677627999999,
          "velocity": 0.3543307086614173
        },
        {
          "duration": 0.7125000000000341,
          "durationTicks": 228,
          "midi": 53,
          "name": "F3",
          "ticks": 85920,
          "time": 269.1177627999999,
          "velocity": 0.3543307086614173
        },
        {
          "duration": 0.7125000000000341,
          "durationTicks": 228,
          "midi": 57,
          "name": "A3",
          "ticks": 85920,
          "time": 269.1177627999999,
          "velocity": 0.3543307086614173
        },
        {
          "duration": 0.7125000000000341,
          "durationTicks": 228,
          "midi": 53,
          "name": "F3",
          "ticks": 86160,
          "time": 269.8677627999999,
          "velocity": 0.3543307086614173
        },
        {
          "duration": 0.7125000000000341,
          "durationTicks": 228,
          "midi": 57,
          "name": "A3",
          "ticks": 86160,
          "time": 269.8677627999999,
          "velocity": 0.3543307086614173
        },
        {
          "duration": 0.7125000000000341,
          "durationTicks": 228,
          "midi": 55,
          "name": "G3",
          "ticks": 86400,
          "time": 270.6177627999999,
          "velocity": 0.3543307086614173
        },
        {
          "duration": 0.7125000000000341,
          "durationTicks": 228,
          "midi": 58,
          "name": "A#3",
          "ticks": 86400,
          "time": 270.6177627999999,
          "velocity": 0.3543307086614173
        },
        {
          "duration": 0.7125000000000341,
          "durationTicks": 228,
          "midi": 55,
          "name": "G3",
          "ticks": 86640,
          "time": 271.3677627999999,
          "velocity": 0.3543307086614173
        },
        {
          "duration": 0.7125000000000341,
          "durationTicks": 228,
          "midi": 58,
          "name": "A#3",
          "ticks": 86640,
          "time": 271.3677627999999,
          "velocity": 0.3543307086614173
        },
        {
          "duration": 0.7125000000000341,
          "durationTicks": 228,
          "midi": 55,
          "name": "G3",
          "ticks": 86880,
          "time": 272.1177627999999,
          "velocity": 0.3543307086614173
        },
        {
          "duration": 0.7125000000000341,
          "durationTicks": 228,
          "midi": 58,
          "name": "A#3",
          "ticks": 86880,
          "time": 272.1177627999999,
          "velocity": 0.3543307086614173
        },
        {
          "duration": 0.7125000000000341,
          "durationTicks": 228,
          "midi": 55,
          "name": "G3",
          "ticks": 87120,
          "time": 272.8677627999999,
          "velocity": 0.3543307086614173
        },
        {
          "duration": 0.7125000000000341,
          "durationTicks": 228,
          "midi": 58,
          "name": "A#3",
          "ticks": 87120,
          "time": 272.8677627999999,
          "velocity": 0.3543307086614173
        },
        {
          "duration": 0.7125000000000341,
          "durationTicks": 228,
          "midi": 55,
          "name": "G3",
          "ticks": 87360,
          "time": 273.6177627999999,
          "velocity": 0.3543307086614173
        },
        {
          "duration": 0.7125000000000341,
          "durationTicks": 228,
          "midi": 58,
          "name": "A#3",
          "ticks": 87360,
          "time": 273.6177627999999,
          "velocity": 0.3543307086614173
        },
        {
          "duration": 0.7125000000000341,
          "durationTicks": 228,
          "midi": 55,
          "name": "G3",
          "ticks": 87600,
          "time": 274.3677627999999,
          "velocity": 0.3543307086614173
        },
        {
          "duration": 0.7125000000000341,
          "durationTicks": 228,
          "midi": 58,
          "name": "A#3",
          "ticks": 87600,
          "time": 274.3677627999999,
          "velocity": 0.3543307086614173
        },
        {
          "duration": 0.7125000000000341,
          "durationTicks": 228,
          "midi": 55,
          "name": "G3",
          "ticks": 87840,
          "time": 275.1177627999999,
          "velocity": 0.3543307086614173
        },
        {
          "duration": 0.7125000000000341,
          "durationTicks": 228,
          "midi": 58,
          "name": "A#3",
          "ticks": 87840,
          "time": 275.1177627999999,
          "velocity": 0.3543307086614173
        },
        {
          "duration": 0.7125000000000341,
          "durationTicks": 228,
          "midi": 55,
          "name": "G3",
          "ticks": 88080,
          "time": 275.8677627999999,
          "velocity": 0.3543307086614173
        },
        {
          "duration": 0.7125000000000341,
          "durationTicks": 228,
          "midi": 58,
          "name": "A#3",
          "ticks": 88080,
          "time": 275.8677627999999,
          "velocity": 0.3543307086614173
        },
        {
          "duration": 0.7125000000000341,
          "durationTicks": 228,
          "midi": 55,
          "name": "G3",
          "ticks": 88320,
          "time": 276.6177627999999,
          "velocity": 0.3543307086614173
        },
        {
          "duration": 0.7125000000000341,
          "durationTicks": 228,
          "midi": 58,
          "name": "A#3",
          "ticks": 88320,
          "time": 276.6177627999999,
          "velocity": 0.3543307086614173
        },
        {
          "duration": 0.7125000000000341,
          "durationTicks": 228,
          "midi": 55,
          "name": "G3",
          "ticks": 88560,
          "time": 277.3677627999999,
          "velocity": 0.3543307086614173
        },
        {
          "duration": 0.7125000000000341,
          "durationTicks": 228,
          "midi": 58,
          "name": "A#3",
          "ticks": 88560,
          "time": 277.3677627999999,
          "velocity": 0.3543307086614173
        },
        {
          "duration": 0.7125000000000341,
          "durationTicks": 228,
          "midi": 55,
          "name": "G3",
          "ticks": 88800,
          "time": 278.1177627999999,
          "velocity": 0.3543307086614173
        },
        {
          "duration": 0.7125000000000341,
          "durationTicks": 228,
          "midi": 58,
          "name": "A#3",
          "ticks": 88800,
          "time": 278.1177627999999,
          "velocity": 0.3543307086614173
        },
        {
          "duration": 0.7125000000000341,
          "durationTicks": 228,
          "midi": 55,
          "name": "G3",
          "ticks": 89040,
          "time": 278.8677627999999,
          "velocity": 0.3543307086614173
        },
        {
          "duration": 0.7125000000000341,
          "durationTicks": 228,
          "midi": 58,
          "name": "A#3",
          "ticks": 89040,
          "time": 278.8677627999999,
          "velocity": 0.3543307086614173
        },
        {
          "duration": 0.7125000000000341,
          "durationTicks": 228,
          "midi": 53,
          "name": "F3",
          "ticks": 89280,
          "time": 279.6177627999999,
          "velocity": 0.3543307086614173
        },
        {
          "duration": 0.7125000000000341,
          "durationTicks": 228,
          "midi": 57,
          "name": "A3",
          "ticks": 89280,
          "time": 279.6177627999999,
          "velocity": 0.3543307086614173
        },
        {
          "duration": 0.7125000000000341,
          "durationTicks": 228,
          "midi": 53,
          "name": "F3",
          "ticks": 89520,
          "time": 280.3677627999999,
          "velocity": 0.3543307086614173
        },
        {
          "duration": 0.7125000000000341,
          "durationTicks": 228,
          "midi": 57,
          "name": "A3",
          "ticks": 89520,
          "time": 280.3677627999999,
          "velocity": 0.3543307086614173
        },
        {
          "duration": 0.7125000000000341,
          "durationTicks": 228,
          "midi": 53,
          "name": "F3",
          "ticks": 89760,
          "time": 281.1177627999999,
          "velocity": 0.3543307086614173
        },
        {
          "duration": 0.7125000000000341,
          "durationTicks": 228,
          "midi": 57,
          "name": "A3",
          "ticks": 89760,
          "time": 281.1177627999999,
          "velocity": 0.3543307086614173
        },
        {
          "duration": 0.7125000000000341,
          "durationTicks": 228,
          "midi": 53,
          "name": "F3",
          "ticks": 90000,
          "time": 281.8677627999999,
          "velocity": 0.3543307086614173
        },
        {
          "duration": 0.7125000000000341,
          "durationTicks": 228,
          "midi": 57,
          "name": "A3",
          "ticks": 90000,
          "time": 281.8677627999999,
          "velocity": 0.3543307086614173
        },
        {
          "duration": 0.7125000000000341,
          "durationTicks": 228,
          "midi": 48,
          "name": "C3",
          "ticks": 90240,
          "time": 282.6177627999999,
          "velocity": 0.3543307086614173
        },
        {
          "duration": 0.7125000000000341,
          "durationTicks": 228,
          "midi": 53,
          "name": "F3",
          "ticks": 90240,
          "time": 282.6177627999999,
          "velocity": 0.3543307086614173
        },
        {
          "duration": 0.7125000000000341,
          "durationTicks": 228,
          "midi": 51,
          "name": "D#3",
          "ticks": 90480,
          "time": 283.3677627999999,
          "velocity": 0.3543307086614173
        },
        {
          "duration": 0.7125000000000341,
          "durationTicks": 228,
          "midi": 53,
          "name": "F3",
          "ticks": 90480,
          "time": 283.3677627999999,
          "velocity": 0.3543307086614173
        },
        {
          "duration": 0.75,
          "durationTicks": 240,
          "midi": 50,
          "name": "D3",
          "ticks": 90720,
          "time": 284.1177627999999,
          "velocity": 0.3543307086614173
        },
        {
          "duration": 0.75,
          "durationTicks": 240,
          "midi": 53,
          "name": "F3",
          "ticks": 90720,
          "time": 284.1177627999999,
          "velocity": 0.3543307086614173
        },
        {
          "duration": 2.6125000000000114,
          "durationTicks": 836,
          "midi": 62,
          "name": "D4",
          "ticks": 91200,
          "time": 285.6177627999999,
          "velocity": 0.4409448818897638
        },
        {
          "duration": 0.1875,
          "durationTicks": 60,
          "midi": 60,
          "name": "C4",
          "ticks": 92040,
          "time": 288.2427627999999,
          "velocity": 0.4409448818897638
        },
        {
          "duration": 0.1875,
          "durationTicks": 60,
          "midi": 58,
          "name": "A#3",
          "ticks": 92100,
          "time": 288.4302627999999,
          "velocity": 0.4409448818897638
        },
        {
          "duration": 0.75,
          "durationTicks": 240,
          "midi": 57,
          "name": "A3",
          "ticks": 92160,
          "time": 288.6177627999999,
          "velocity": 0.4409448818897638
        },
        {
          "duration": 0.75,
          "durationTicks": 240,
          "midi": 63,
          "name": "D#4",
          "ticks": 92640,
          "time": 290.1177627999999,
          "velocity": 0.5039370078740157
        },
        {
          "duration": 0.1875,
          "durationTicks": 60,
          "midi": 59,
          "name": "B3",
          "ticks": 93660,
          "time": 293.3052627999999,
          "velocity": 0.3937007874015748
        },
        {
          "duration": 0.1875,
          "durationTicks": 60,
          "midi": 60,
          "name": "C4",
          "ticks": 93720,
          "time": 293.4927627999999,
          "velocity": 0.3937007874015748
        },
        {
          "duration": 0.1875,
          "durationTicks": 60,
          "midi": 59,
          "name": "B3",
          "ticks": 93780,
          "time": 293.6802627999999,
          "velocity": 0.3937007874015748
        },
        {
          "duration": 0.1875,
          "durationTicks": 60,
          "midi": 60,
          "name": "C4",
          "ticks": 93840,
          "time": 293.8677627999999,
          "velocity": 0.3937007874015748
        },
        {
          "duration": 0.1875,
          "durationTicks": 60,
          "midi": 62,
          "name": "D4",
          "ticks": 93900,
          "time": 294.0552627999999,
          "velocity": 0.3937007874015748
        },
        {
          "duration": 0.1875,
          "durationTicks": 60,
          "midi": 63,
          "name": "D#4",
          "ticks": 93960,
          "time": 294.2427627999999,
          "velocity": 0.3937007874015748
        },
        {
          "duration": 0.1875,
          "durationTicks": 60,
          "midi": 62,
          "name": "D4",
          "ticks": 94020,
          "time": 294.4302627999999,
          "velocity": 0.3937007874015748
        },
        {
          "duration": 0.1875,
          "durationTicks": 60,
          "midi": 63,
          "name": "D#4",
          "ticks": 94080,
          "time": 294.6177627999999,
          "velocity": 0.3937007874015748
        },
        {
          "duration": 0.1875,
          "durationTicks": 60,
          "midi": 66,
          "name": "F#4",
          "ticks": 94140,
          "time": 294.8052627999999,
          "velocity": 0.3937007874015748
        },
        {
          "duration": 0.1875,
          "durationTicks": 60,
          "midi": 67,
          "name": "G4",
          "ticks": 94200,
          "time": 294.9927627999999,
          "velocity": 0.3937007874015748
        },
        {
          "duration": 0.1875,
          "durationTicks": 60,
          "midi": 62,
          "name": "D4",
          "ticks": 94260,
          "time": 295.1802627999999,
          "velocity": 0.3937007874015748
        },
        {
          "duration": 0.1875,
          "durationTicks": 60,
          "midi": 65,
          "name": "F4",
          "ticks": 94320,
          "time": 295.3677627999999,
          "velocity": 0.3937007874015748
        },
        {
          "duration": 0.1875,
          "durationTicks": 60,
          "midi": 63,
          "name": "D#4",
          "ticks": 94380,
          "time": 295.5552627999999,
          "velocity": 0.3937007874015748
        },
        {
          "duration": 0.1875,
          "durationTicks": 60,
          "midi": 62,
          "name": "D4",
          "ticks": 94440,
          "time": 295.7427627999999,
          "velocity": 0.3937007874015748
        },
        {
          "duration": 0.1875,
          "durationTicks": 60,
          "midi": 60,
          "name": "C4",
          "ticks": 94500,
          "time": 295.9302627999999,
          "velocity": 0.3937007874015748
        },
        {
          "duration": 0.1875,
          "durationTicks": 60,
          "midi": 58,
          "name": "A#3",
          "ticks": 94560,
          "time": 296.1177627999999,
          "velocity": 0.3937007874015748
        },
        {
          "duration": 0.1875,
          "durationTicks": 60,
          "midi": 57,
          "name": "A3",
          "ticks": 94620,
          "time": 296.3052627999999,
          "velocity": 0.3937007874015748
        },
        {
          "duration": 0.1875,
          "durationTicks": 60,
          "midi": 60,
          "name": "C4",
          "ticks": 94680,
          "time": 296.4927627999999,
          "velocity": 0.3937007874015748
        },
        {
          "duration": 0.1875,
          "durationTicks": 60,
          "midi": 58,
          "name": "A#3",
          "ticks": 94740,
          "time": 296.6802627999999,
          "velocity": 0.3937007874015748
        },
        {
          "duration": 0.1875,
          "durationTicks": 60,
          "midi": 57,
          "name": "A3",
          "ticks": 94800,
          "time": 296.8677627999999,
          "velocity": 0.3937007874015748
        },
        {
          "duration": 0.1875,
          "durationTicks": 60,
          "midi": 55,
          "name": "G3",
          "ticks": 94860,
          "time": 297.0552627999999,
          "velocity": 0.3937007874015748
        },
        {
          "duration": 0.1875,
          "durationTicks": 60,
          "midi": 53,
          "name": "F3",
          "ticks": 94920,
          "time": 297.2427627999999,
          "velocity": 0.3937007874015748
        },
        {
          "duration": 0.1875,
          "durationTicks": 60,
          "midi": 51,
          "name": "D#3",
          "ticks": 94980,
          "time": 297.4302627999999,
          "velocity": 0.3937007874015748
        },
        {
          "duration": 0.75,
          "durationTicks": 240,
          "midi": 50,
          "name": "D3",
          "ticks": 95040,
          "time": 297.6177627999999,
          "velocity": 0.4409448818897638
        },
        {
          "duration": 0.75,
          "durationTicks": 240,
          "midi": 60,
          "name": "C4",
          "ticks": 96000,
          "time": 300.6177627999999,
          "velocity": 0.4409448818897638
        },
        {
          "duration": 0.75,
          "durationTicks": 240,
          "midi": 58,
          "name": "A#3",
          "ticks": 96960,
          "time": 303.6177627999999,
          "velocity": 0.4409448818897638
        },
        {
          "duration": 0.75,
          "durationTicks": 240,
          "midi": 58,
          "name": "A#3",
          "ticks": 97920,
          "time": 306.6177627999999,
          "velocity": 0.4409448818897638
        },
        {
          "duration": 0.75,
          "durationTicks": 240,
          "midi": 57,
          "name": "A3",
          "ticks": 98880,
          "time": 309.6177627999999,
          "velocity": 0.4409448818897638
        },
        {
          "duration": 0.75,
          "durationTicks": 240,
          "midi": 62,
          "name": "D4",
          "ticks": 99840,
          "time": 312.6177627999999,
          "velocity": 0.3937007874015748
        },
        {
          "duration": 0.1875,
          "durationTicks": 60,
          "midi": 60,
          "name": "C4",
          "ticks": 100860,
          "time": 315.8052627999999,
          "velocity": 0.5039370078740157
        },
        {
          "duration": 0.1875,
          "durationTicks": 60,
          "midi": 62,
          "name": "D4",
          "ticks": 100920,
          "time": 315.9927627999999,
          "velocity": 0.5039370078740157
        },
        {
          "duration": 0.1875,
          "durationTicks": 60,
          "midi": 64,
          "name": "E4",
          "ticks": 100980,
          "time": 316.1802627999999,
          "velocity": 0.5039370078740157
        },
        {
          "duration": 0.1875,
          "durationTicks": 60,
          "midi": 65,
          "name": "F4",
          "ticks": 101040,
          "time": 316.3677627999999,
          "velocity": 0.5039370078740157
        },
        {
          "duration": 0.1875,
          "durationTicks": 60,
          "midi": 67,
          "name": "G4",
          "ticks": 101100,
          "time": 316.5552627999999,
          "velocity": 0.5039370078740157
        },
        {
          "duration": 0.1875,
          "durationTicks": 60,
          "midi": 69,
          "name": "A4",
          "ticks": 101160,
          "time": 316.7427627999999,
          "velocity": 0.5039370078740157
        },
        {
          "duration": 0.1875,
          "durationTicks": 60,
          "midi": 71,
          "name": "B4",
          "ticks": 101220,
          "time": 316.9302627999999,
          "velocity": 0.5039370078740157
        },
        {
          "duration": 0.1875,
          "durationTicks": 60,
          "midi": 72,
          "name": "C5",
          "ticks": 101280,
          "time": 317.1177627999999,
          "velocity": 0.5039370078740157
        },
        {
          "duration": 0.1875,
          "durationTicks": 60,
          "midi": 76,
          "name": "E5",
          "ticks": 101340,
          "time": 317.3052627999999,
          "velocity": 0.5039370078740157
        },
        {
          "duration": 0.1875,
          "durationTicks": 60,
          "midi": 74,
          "name": "D5",
          "ticks": 101400,
          "time": 317.4927627999999,
          "velocity": 0.5039370078740157
        },
        {
          "duration": 0.1875,
          "durationTicks": 60,
          "midi": 72,
          "name": "C5",
          "ticks": 101460,
          "time": 317.6802627999999,
          "velocity": 0.5039370078740157
        },
        {
          "duration": 0.1875,
          "durationTicks": 60,
          "midi": 71,
          "name": "B4",
          "ticks": 101520,
          "time": 317.8677627999999,
          "velocity": 0.5039370078740157
        },
        {
          "duration": 0.1875,
          "durationTicks": 60,
          "midi": 69,
          "name": "A4",
          "ticks": 101580,
          "time": 318.0552627999999,
          "velocity": 0.5039370078740157
        },
        {
          "duration": 0.1875,
          "durationTicks": 60,
          "midi": 67,
          "name": "G4",
          "ticks": 101640,
          "time": 318.2427627999999,
          "velocity": 0.5039370078740157
        },
        {
          "duration": 0.1875,
          "durationTicks": 60,
          "midi": 66,
          "name": "F#4",
          "ticks": 101700,
          "time": 318.4302627999999,
          "velocity": 0.5039370078740157
        },
        {
          "duration": 0.1875,
          "durationTicks": 60,
          "midi": 67,
          "name": "G4",
          "ticks": 101760,
          "time": 318.6177627999999,
          "velocity": 0.5039370078740157
        },
        {
          "duration": 0.1875,
          "durationTicks": 60,
          "midi": 69,
          "name": "A4",
          "ticks": 101820,
          "time": 318.8052627999999,
          "velocity": 0.5039370078740157
        },
        {
          "duration": 0.1875,
          "durationTicks": 60,
          "midi": 67,
          "name": "G4",
          "ticks": 101880,
          "time": 318.9927627999999,
          "velocity": 0.5039370078740157
        },
        {
          "duration": 0.1875,
          "durationTicks": 60,
          "midi": 65,
          "name": "F4",
          "ticks": 101940,
          "time": 319.1802627999999,
          "velocity": 0.5039370078740157
        },
        {
          "duration": 0.1875,
          "durationTicks": 60,
          "midi": 64,
          "name": "E4",
          "ticks": 102000,
          "time": 319.3677627999999,
          "velocity": 0.5039370078740157
        },
        {
          "duration": 0.1875,
          "durationTicks": 60,
          "midi": 62,
          "name": "D4",
          "ticks": 102060,
          "time": 319.5552627999999,
          "velocity": 0.5039370078740157
        },
        {
          "duration": 0.1875,
          "durationTicks": 60,
          "midi": 60,
          "name": "C4",
          "ticks": 102120,
          "time": 319.7427627999999,
          "velocity": 0.5039370078740157
        },
        {
          "duration": 0.1875,
          "durationTicks": 60,
          "midi": 59,
          "name": "B3",
          "ticks": 102180,
          "time": 319.9302627999999,
          "velocity": 0.5039370078740157
        },
        {
          "duration": 0.375,
          "durationTicks": 120,
          "midi": 60,
          "name": "C4",
          "ticks": 102240,
          "time": 320.1177627999999,
          "velocity": 0.5039370078740157
        },
        {
          "duration": 0.1875,
          "durationTicks": 60,
          "midi": 62,
          "name": "D4",
          "ticks": 102360,
          "time": 320.4927627999999,
          "velocity": 0.5039370078740157
        },
        {
          "duration": 0.1875,
          "durationTicks": 60,
          "midi": 64,
          "name": "E4",
          "ticks": 102420,
          "time": 320.6802627999999,
          "velocity": 0.5039370078740157
        },
        {
          "duration": 0.1875,
          "durationTicks": 60,
          "midi": 65,
          "name": "F4",
          "ticks": 102480,
          "time": 320.8677627999999,
          "velocity": 0.5039370078740157
        },
        {
          "duration": 0.1875,
          "durationTicks": 60,
          "midi": 67,
          "name": "G4",
          "ticks": 102540,
          "time": 321.0552627999999,
          "velocity": 0.5039370078740157
        },
        {
          "duration": 0.1875,
          "durationTicks": 60,
          "midi": 69,
          "name": "A4",
          "ticks": 102600,
          "time": 321.2427627999999,
          "velocity": 0.5039370078740157
        },
        {
          "duration": 0.1875,
          "durationTicks": 60,
          "midi": 71,
          "name": "B4",
          "ticks": 102660,
          "time": 321.4302627999999,
          "velocity": 0.5039370078740157
        },
        {
          "duration": 0.1875,
          "durationTicks": 60,
          "midi": 72,
          "name": "C5",
          "ticks": 102720,
          "time": 321.6177627999999,
          "velocity": 0.5039370078740157
        },
        {
          "duration": 0.1875,
          "durationTicks": 60,
          "midi": 76,
          "name": "E5",
          "ticks": 102780,
          "time": 321.8052627999999,
          "velocity": 0.5039370078740157
        },
        {
          "duration": 0.1875,
          "durationTicks": 60,
          "midi": 74,
          "name": "D5",
          "ticks": 102840,
          "time": 321.9927627999999,
          "velocity": 0.5039370078740157
        },
        {
          "duration": 0.1875,
          "durationTicks": 60,
          "midi": 72,
          "name": "C5",
          "ticks": 102900,
          "time": 322.1802627999999,
          "velocity": 0.5039370078740157
        },
        {
          "duration": 0.1875,
          "durationTicks": 60,
          "midi": 71,
          "name": "B4",
          "ticks": 102960,
          "time": 322.3677627999999,
          "velocity": 0.5039370078740157
        },
        {
          "duration": 0.1875,
          "durationTicks": 60,
          "midi": 69,
          "name": "A4",
          "ticks": 103020,
          "time": 322.5552627999999,
          "velocity": 0.5039370078740157
        },
        {
          "duration": 0.1875,
          "durationTicks": 60,
          "midi": 67,
          "name": "G4",
          "ticks": 103080,
          "time": 322.7427627999999,
          "velocity": 0.5039370078740157
        },
        {
          "duration": 0.1875,
          "durationTicks": 60,
          "midi": 66,
          "name": "F#4",
          "ticks": 103140,
          "time": 322.9302627999999,
          "velocity": 0.5039370078740157
        },
        {
          "duration": 0.1875,
          "durationTicks": 60,
          "midi": 67,
          "name": "G4",
          "ticks": 103200,
          "time": 323.1177627999999,
          "velocity": 0.5039370078740157
        },
        {
          "duration": 0.1875,
          "durationTicks": 60,
          "midi": 69,
          "name": "A4",
          "ticks": 103260,
          "time": 323.3052627999999,
          "velocity": 0.5039370078740157
        },
        {
          "duration": 0.1875,
          "durationTicks": 60,
          "midi": 67,
          "name": "G4",
          "ticks": 103320,
          "time": 323.4927627999999,
          "velocity": 0.5039370078740157
        },
        {
          "duration": 0.1875,
          "durationTicks": 60,
          "midi": 65,
          "name": "F4",
          "ticks": 103380,
          "time": 323.6802627999999,
          "velocity": 0.5039370078740157
        },
        {
          "duration": 0.1875,
          "durationTicks": 60,
          "midi": 64,
          "name": "E4",
          "ticks": 103440,
          "time": 323.8677627999999,
          "velocity": 0.5039370078740157
        },
        {
          "duration": 0.1875,
          "durationTicks": 60,
          "midi": 62,
          "name": "D4",
          "ticks": 103500,
          "time": 324.0552627999999,
          "velocity": 0.5039370078740157
        },
        {
          "duration": 0.1875,
          "durationTicks": 60,
          "midi": 60,
          "name": "C4",
          "ticks": 103560,
          "time": 324.2427627999999,
          "velocity": 0.5039370078740157
        },
        {
          "duration": 0.1875,
          "durationTicks": 60,
          "midi": 59,
          "name": "B3",
          "ticks": 103620,
          "time": 324.4302627999999,
          "velocity": 0.5039370078740157
        },
        {
          "duration": 0.25,
          "durationTicks": 80,
          "midi": 60,
          "name": "C4",
          "ticks": 103680,
          "time": 324.6177627999999,
          "velocity": 0.4881889763779528
        },
        {
          "duration": 0.25,
          "durationTicks": 80,
          "midi": 64,
          "name": "E4",
          "ticks": 103760,
          "time": 324.8677627999999,
          "velocity": 0.4881889763779528
        },
        {
          "duration": 0.25,
          "durationTicks": 80,
          "midi": 64,
          "name": "E4",
          "ticks": 103840,
          "time": 325.1177627999999,
          "velocity": 0.4881889763779528
        },
        {
          "duration": 0.25,
          "durationTicks": 80,
          "midi": 64,
          "name": "E4",
          "ticks": 103920,
          "time": 325.3677627999999,
          "velocity": 0.4015748031496063
        },
        {
          "duration": 0.25,
          "durationTicks": 80,
          "midi": 64,
          "name": "E4",
          "ticks": 104000,
          "time": 325.6177627999999,
          "velocity": 0.4015748031496063
        },
        {
          "duration": 0.25,
          "durationTicks": 80,
          "midi": 64,
          "name": "E4",
          "ticks": 104080,
          "time": 325.8677627999999,
          "velocity": 0.4015748031496063
        },
        {
          "duration": 0.25,
          "durationTicks": 80,
          "midi": 64,
          "name": "E4",
          "ticks": 104160,
          "time": 326.1177627999999,
          "velocity": 0.4015748031496063
        },
        {
          "duration": 0.25,
          "durationTicks": 80,
          "midi": 64,
          "name": "E4",
          "ticks": 104240,
          "time": 326.3677627999999,
          "velocity": 0.4015748031496063
        },
        {
          "duration": 0.25,
          "durationTicks": 80,
          "midi": 64,
          "name": "E4",
          "ticks": 104320,
          "time": 326.6177627999999,
          "velocity": 0.4015748031496063
        },
        {
          "duration": 0.25,
          "durationTicks": 80,
          "midi": 64,
          "name": "E4",
          "ticks": 104400,
          "time": 326.8677627999999,
          "velocity": 0.4015748031496063
        },
        {
          "duration": 0.25,
          "durationTicks": 80,
          "midi": 64,
          "name": "E4",
          "ticks": 104480,
          "time": 327.1177627999999,
          "velocity": 0.4015748031496063
        },
        {
          "duration": 0.25,
          "durationTicks": 80,
          "midi": 64,
          "name": "E4",
          "ticks": 104560,
          "time": 327.3677627999999,
          "velocity": 0.4015748031496063
        },
        {
          "duration": 0.25,
          "durationTicks": 80,
          "midi": 65,
          "name": "F4",
          "ticks": 104640,
          "time": 327.6177627999999,
          "velocity": 0.4015748031496063
        },
        {
          "duration": 0.25,
          "durationTicks": 80,
          "midi": 65,
          "name": "F4",
          "ticks": 104720,
          "time": 327.8677627999999,
          "velocity": 0.4015748031496063
        },
        {
          "duration": 0.25,
          "durationTicks": 80,
          "midi": 65,
          "name": "F4",
          "ticks": 104800,
          "time": 328.1177627999999,
          "velocity": 0.4015748031496063
        },
        {
          "duration": 0.25,
          "durationTicks": 80,
          "midi": 65,
          "name": "F4",
          "ticks": 104880,
          "time": 328.3677627999999,
          "velocity": 0.4015748031496063
        },
        {
          "duration": 0.25,
          "durationTicks": 80,
          "midi": 65,
          "name": "F4",
          "ticks": 104960,
          "time": 328.6177627999999,
          "velocity": 0.4015748031496063
        },
        {
          "duration": 0.25,
          "durationTicks": 80,
          "midi": 65,
          "name": "F4",
          "ticks": 105040,
          "time": 328.8677627999999,
          "velocity": 0.4015748031496063
        },
        {
          "duration": 0.25,
          "durationTicks": 80,
          "midi": 64,
          "name": "E4",
          "ticks": 105120,
          "time": 329.1177627999999,
          "velocity": 0.4881889763779528
        },
        {
          "duration": 0.25,
          "durationTicks": 80,
          "midi": 64,
          "name": "E4",
          "ticks": 105200,
          "time": 329.3677627999999,
          "velocity": 0.4881889763779528
        },
        {
          "duration": 0.25,
          "durationTicks": 80,
          "midi": 64,
          "name": "E4",
          "ticks": 105280,
          "time": 329.6177627999999,
          "velocity": 0.4881889763779528
        },
        {
          "duration": 0.25,
          "durationTicks": 80,
          "midi": 64,
          "name": "E4",
          "ticks": 105360,
          "time": 329.8677627999999,
          "velocity": 0.4015748031496063
        },
        {
          "duration": 0.25,
          "durationTicks": 80,
          "midi": 64,
          "name": "E4",
          "ticks": 105440,
          "time": 330.1177627999999,
          "velocity": 0.4015748031496063
        },
        {
          "duration": 0.25,
          "durationTicks": 80,
          "midi": 64,
          "name": "E4",
          "ticks": 105520,
          "time": 330.3677627999999,
          "velocity": 0.4015748031496063
        },
        {
          "duration": 0.25,
          "durationTicks": 80,
          "midi": 64,
          "name": "E4",
          "ticks": 105600,
          "time": 330.6177627999999,
          "velocity": 0.4015748031496063
        },
        {
          "duration": 0.25,
          "durationTicks": 80,
          "midi": 64,
          "name": "E4",
          "ticks": 105680,
          "time": 330.8677627999999,
          "velocity": 0.4015748031496063
        },
        {
          "duration": 0.25,
          "durationTicks": 80,
          "midi": 64,
          "name": "E4",
          "ticks": 105760,
          "time": 331.1177627999999,
          "velocity": 0.4015748031496063
        },
        {
          "duration": 0.25,
          "durationTicks": 80,
          "midi": 64,
          "name": "E4",
          "ticks": 105840,
          "time": 331.3677627999999,
          "velocity": 0.4015748031496063
        },
        {
          "duration": 0.25,
          "durationTicks": 80,
          "midi": 64,
          "name": "E4",
          "ticks": 105920,
          "time": 331.6177627999999,
          "velocity": 0.4015748031496063
        },
        {
          "duration": 0.25,
          "durationTicks": 80,
          "midi": 64,
          "name": "E4",
          "ticks": 106000,
          "time": 331.8677627999999,
          "velocity": 0.4015748031496063
        },
        {
          "duration": 0.25,
          "durationTicks": 80,
          "midi": 65,
          "name": "F4",
          "ticks": 106080,
          "time": 332.1177627999999,
          "velocity": 0.4015748031496063
        },
        {
          "duration": 0.25,
          "durationTicks": 80,
          "midi": 65,
          "name": "F4",
          "ticks": 106160,
          "time": 332.3677627999999,
          "velocity": 0.4015748031496063
        },
        {
          "duration": 0.25,
          "durationTicks": 80,
          "midi": 65,
          "name": "F4",
          "ticks": 106240,
          "time": 332.6177627999999,
          "velocity": 0.4015748031496063
        },
        {
          "duration": 0.25,
          "durationTicks": 80,
          "midi": 65,
          "name": "F4",
          "ticks": 106320,
          "time": 332.8677627999999,
          "velocity": 0.4015748031496063
        },
        {
          "duration": 0.25,
          "durationTicks": 80,
          "midi": 65,
          "name": "F4",
          "ticks": 106400,
          "time": 333.1177627999999,
          "velocity": 0.4015748031496063
        },
        {
          "duration": 0.25,
          "durationTicks": 80,
          "midi": 65,
          "name": "F4",
          "ticks": 106480,
          "time": 333.3677627999999,
          "velocity": 0.4015748031496063
        },
        {
          "duration": 1.125,
          "durationTicks": 360,
          "midi": 64,
          "name": "E4",
          "ticks": 106560,
          "time": 333.6177627999999,
          "velocity": 0.4015748031496063
        },
        {
          "duration": 0.375,
          "durationTicks": 120,
          "midi": 60,
          "name": "C4",
          "ticks": 106920,
          "time": 334.7427627999999,
          "velocity": 0.4015748031496063
        },
        {
          "duration": 0.6500000000000341,
          "durationTicks": 208,
          "midi": 64,
          "name": "E4",
          "ticks": 107040,
          "time": 335.1177627999999,
          "velocity": 0.4015748031496063
        },
        {
          "duration": 1.5,
          "durationTicks": 480,
          "midi": 57,
          "name": "A3",
          "ticks": 108000,
          "time": 338.2763333666666,
          "velocity": 0.2992125984251969
        },
        {
          "duration": 1.5,
          "durationTicks": 480,
          "midi": 55,
          "name": "G3",
          "ticks": 108480,
          "time": 339.7763333666666,
          "velocity": 0.2992125984251969
        },
        {
          "duration": 1.5,
          "durationTicks": 480,
          "midi": 53,
          "name": "F3",
          "ticks": 108960,
          "time": 341.2763333666666,
          "velocity": 0.2992125984251969
        },
        {
          "duration": 1.5,
          "durationTicks": 480,
          "midi": 52,
          "name": "E3",
          "ticks": 109440,
          "time": 342.7763333666666,
          "velocity": 0.2992125984251969
        },
        {
          "duration": 1.5,
          "durationTicks": 480,
          "midi": 58,
          "name": "A#3",
          "ticks": 110880,
          "time": 347.2763333666666,
          "velocity": 0.2992125984251969
        },
        {
          "duration": 1.5,
          "durationTicks": 480,
          "midi": 57,
          "name": "A3",
          "ticks": 111360,
          "time": 348.7763333666666,
          "velocity": 0.2992125984251969
        },
        {
          "duration": 1.5,
          "durationTicks": 480,
          "midi": 55,
          "name": "G3",
          "ticks": 111840,
          "time": 350.2763333666666,
          "velocity": 0.2992125984251969
        },
        {
          "duration": 1.5,
          "durationTicks": 480,
          "midi": 53,
          "name": "F3",
          "ticks": 112320,
          "time": 351.7763333666666,
          "velocity": 0.2992125984251969
        },
        {
          "duration": 1.5,
          "durationTicks": 480,
          "midi": 57,
          "name": "A3",
          "ticks": 113760,
          "time": 356.2763333666666,
          "velocity": 0.3779527559055118
        },
        {
          "duration": 3,
          "durationTicks": 960,
          "midi": 55,
          "name": "G3",
          "ticks": 114240,
          "time": 357.7763333666666,
          "velocity": 0.3779527559055118
        },
        {
          "duration": 2.25,
          "durationTicks": 720,
          "midi": 53,
          "name": "F3",
          "ticks": 115200,
          "time": 360.7763333666666,
          "velocity": 0.3779527559055118
        },
        {
          "duration": 0.75,
          "durationTicks": 240,
          "midi": 50,
          "name": "D3",
          "ticks": 115920,
          "time": 363.0263333666666,
          "velocity": 0.3779527559055118
        },
        {
          "duration": 0.75,
          "durationTicks": 240,
          "midi": 55,
          "name": "G3",
          "ticks": 116160,
          "time": 363.7763333666666,
          "velocity": 0.3779527559055118
        },
        {
          "duration": 0.75,
          "durationTicks": 240,
          "midi": 53,
          "name": "F3",
          "ticks": 116400,
          "time": 364.5263333666666,
          "velocity": 0.3779527559055118
        },
        {
          "duration": 1.5,
          "durationTicks": 480,
          "midi": 62,
          "name": "D4",
          "ticks": 116640,
          "time": 365.2763333666666,
          "velocity": 0.3779527559055118
        },
        {
          "duration": 3,
          "durationTicks": 960,
          "midi": 60,
          "name": "C4",
          "ticks": 117120,
          "time": 366.7763333666666,
          "velocity": 0.3779527559055118
        },
        {
          "duration": 1.5,
          "durationTicks": 480,
          "midi": 57,
          "name": "A3",
          "ticks": 118080,
          "time": 369.7763333666666,
          "velocity": 0.3779527559055118
        },
        {
          "duration": 3,
          "durationTicks": 960,
          "midi": 55,
          "name": "G3",
          "ticks": 118560,
          "time": 371.2763333666666,
          "velocity": 0.3779527559055118
        },
        {
          "duration": 2.25,
          "durationTicks": 720,
          "midi": 53,
          "name": "F3",
          "ticks": 119520,
          "time": 374.2763333666666,
          "velocity": 0.3779527559055118
        },
        {
          "duration": 1.5,
          "durationTicks": 480,
          "midi": 55,
          "name": "G3",
          "ticks": 120236,
          "time": 376.51383336666663,
          "velocity": 0.3779527559055118
        },
        {
          "duration": 1.5,
          "durationTicks": 480,
          "midi": 53,
          "name": "F3",
          "ticks": 120712,
          "time": 378.00133336666664,
          "velocity": 0.3779527559055118
        },
        {
          "duration": 1.5,
          "durationTicks": 480,
          "midi": 52,
          "name": "E3",
          "ticks": 121196,
          "time": 379.51383336666663,
          "velocity": 0.3858267716535433
        },
        {
          "duration": 1.5,
          "durationTicks": 480,
          "midi": 50,
          "name": "D3",
          "ticks": 121672,
          "time": 381.00133336666664,
          "velocity": 0.4015748031496063
        },
        {
          "duration": 1.462500000000034,
          "durationTicks": 468,
          "midi": 48,
          "name": "C3",
          "ticks": 122156,
          "time": 382.51383336666663,
          "velocity": 0.41732283464566927
        },
        {
          "duration": 0.75,
          "durationTicks": 240,
          "midi": 50,
          "name": "D3",
          "ticks": 122636,
          "time": 384.01383336666663,
          "velocity": 0.4409448818897638
        },
        {
          "duration": 0.75,
          "durationTicks": 240,
          "midi": 52,
          "name": "E3",
          "ticks": 122864,
          "time": 384.72633336666667,
          "velocity": 0.44881889763779526
        },
        {
          "duration": 0.6750000000000114,
          "durationTicks": 216,
          "midi": 62,
          "name": "D4",
          "ticks": 123112,
          "time": 385.50133336666664,
          "velocity": 0.4645669291338583
        },
        {
          "duration": 0.6750000000000114,
          "durationTicks": 216,
          "midi": 60,
          "name": "C4",
          "ticks": 123348,
          "time": 386.23883336666665,
          "velocity": 0.47244094488188976
        },
        {
          "duration": 0.6750000000000114,
          "durationTicks": 216,
          "midi": 58,
          "name": "A#3",
          "ticks": 123596,
          "time": 387.01383336666663,
          "velocity": 0.48031496062992124
        },
        {
          "duration": 1.5,
          "durationTicks": 480,
          "midi": 57,
          "name": "A3",
          "ticks": 123840,
          "time": 387.7763333666666,
          "velocity": 0.3543307086614173
        },
        {
          "duration": 2.25,
          "durationTicks": 720,
          "midi": 60,
          "name": "C4",
          "ticks": 126240,
          "time": 395.2763333666666,
          "velocity": 0.3464566929133858
        },
        {
          "duration": 1.5,
          "durationTicks": 480,
          "midi": 60,
          "name": "C4",
          "ticks": 129120,
          "time": 404.2763333666667,
          "velocity": 0.3464566929133858
        },
        {
          "duration": 0.75,
          "durationTicks": 240,
          "midi": 65,
          "name": "F4",
          "ticks": 129600,
          "time": 405.7763333666667,
          "velocity": 0.3464566929133858
        },
        {
          "duration": 0.75,
          "durationTicks": 240,
          "midi": 53,
          "name": "F3",
          "ticks": 130080,
          "time": 407.2763333666667,
          "velocity": 0.4645669291338583
        },
        {
          "duration": 2.195122500000025,
          "durationTicks": 720,
          "midi": 60,
          "name": "C4",
          "ticks": 132000,
          "time": 413.4924417333333,
          "velocity": 0.3779527559055118
        },
        {
          "duration": 0.4878050000000371,
          "durationTicks": 160,
          "midi": 48,
          "name": "C3",
          "ticks": 132960,
          "time": 416.4192717333333,
          "velocity": 0.4409448818897638
        },
        {
          "duration": 0.4878050000000371,
          "durationTicks": 160,
          "midi": 60,
          "name": "C4",
          "ticks": 132960,
          "time": 416.4192717333333,
          "velocity": 0.4409448818897638
        },
        {
          "duration": 0.9146343749999915,
          "durationTicks": 300,
          "midi": 60,
          "name": "C4",
          "ticks": 133860,
          "time": 419.1631748583333,
          "velocity": 0.4330708661417323
        },
        {
          "duration": 0.4878050000000371,
          "durationTicks": 160,
          "midi": 57,
          "name": "A3",
          "ticks": 134400,
          "time": 420.8095167333333,
          "velocity": 0.4409448818897638
        },
        {
          "duration": 0.36585375000004206,
          "durationTicks": 120,
          "midi": 58,
          "name": "A#3",
          "ticks": 135360,
          "time": 423.7363467333333,
          "velocity": 0.4015748031496063
        },
        {
          "duration": 0.3658537499999852,
          "durationTicks": 120,
          "midi": 62,
          "name": "D4",
          "ticks": 135480,
          "time": 424.1022004833333,
          "velocity": 0.4015748031496063
        },
        {
          "duration": 0.3658537499999852,
          "durationTicks": 120,
          "midi": 62,
          "name": "D4",
          "ticks": 135600,
          "time": 424.4680542333333,
          "velocity": 0.4015748031496063
        },
        {
          "duration": 0.3658537499999852,
          "durationTicks": 120,
          "midi": 62,
          "name": "D4",
          "ticks": 135720,
          "time": 424.8339079833333,
          "velocity": 0.4015748031496063
        },
        {
          "duration": 0.36585375000004206,
          "durationTicks": 120,
          "midi": 58,
          "name": "A#3",
          "ticks": 135840,
          "time": 425.1997617333333,
          "velocity": 0.4015748031496063
        },
        {
          "duration": 0.3658537499999852,
          "durationTicks": 120,
          "midi": 62,
          "name": "D4",
          "ticks": 135960,
          "time": 425.5656154833333,
          "velocity": 0.4015748031496063
        },
        {
          "duration": 0.3658537499999852,
          "durationTicks": 120,
          "midi": 62,
          "name": "D4",
          "ticks": 136080,
          "time": 425.9314692333333,
          "velocity": 0.4015748031496063
        },
        {
          "duration": 0.3658537499999852,
          "durationTicks": 120,
          "midi": 62,
          "name": "D4",
          "ticks": 136200,
          "time": 426.2973229833333,
          "velocity": 0.4015748031496063
        },
        {
          "duration": 0.36585375000004206,
          "durationTicks": 120,
          "midi": 58,
          "name": "A#3",
          "ticks": 136320,
          "time": 426.6631767333333,
          "velocity": 0.4015748031496063
        },
        {
          "duration": 0.3658537499999852,
          "durationTicks": 120,
          "midi": 62,
          "name": "D4",
          "ticks": 136440,
          "time": 427.0290304833333,
          "velocity": 0.4015748031496063
        },
        {
          "duration": 0.3658537499999852,
          "durationTicks": 120,
          "midi": 62,
          "name": "D4",
          "ticks": 136560,
          "time": 427.3948842333333,
          "velocity": 0.4015748031496063
        },
        {
          "duration": 0.3658537499999852,
          "durationTicks": 120,
          "midi": 62,
          "name": "D4",
          "ticks": 136680,
          "time": 427.7607379833333,
          "velocity": 0.4015748031496063
        },
        {
          "duration": 0.36585375000004206,
          "durationTicks": 120,
          "midi": 53,
          "name": "F3",
          "ticks": 136800,
          "time": 428.12659173333327,
          "velocity": 0.4015748031496063
        },
        {
          "duration": 0.3658537499999852,
          "durationTicks": 120,
          "midi": 57,
          "name": "A3",
          "ticks": 136920,
          "time": 428.4924454833333,
          "velocity": 0.4015748031496063
        },
        {
          "duration": 0.3048781250000161,
          "durationTicks": 100,
          "midi": 57,
          "name": "A3",
          "ticks": 137040,
          "time": 428.8582992333333,
          "velocity": 0.4015748031496063
        },
        {
          "duration": 0.3048781250000161,
          "durationTicks": 100,
          "midi": 57,
          "name": "A3",
          "ticks": 137160,
          "time": 429.2241529833333,
          "velocity": 0.4015748031496063
        },
        {
          "duration": 0.3658537499999852,
          "durationTicks": 120,
          "midi": 53,
          "name": "F3",
          "ticks": 137280,
          "time": 429.5900067333333,
          "velocity": 0.4015748031496063
        },
        {
          "duration": 0.3658537499999852,
          "durationTicks": 120,
          "midi": 57,
          "name": "A3",
          "ticks": 137400,
          "time": 429.9558604833333,
          "velocity": 0.4015748031496063
        },
        {
          "duration": 0.3048781250000161,
          "durationTicks": 100,
          "midi": 57,
          "name": "A3",
          "ticks": 137520,
          "time": 430.3217142333333,
          "velocity": 0.4015748031496063
        },
        {
          "duration": 0.3048781250000161,
          "durationTicks": 100,
          "midi": 57,
          "name": "A3",
          "ticks": 137640,
          "time": 430.6875679833333,
          "velocity": 0.4015748031496063
        },
        {
          "duration": 0.3658537499999852,
          "durationTicks": 120,
          "midi": 52,
          "name": "E3",
          "ticks": 137760,
          "time": 431.0534217333333,
          "velocity": 0.4015748031496063
        },
        {
          "duration": 0.3658537499999852,
          "durationTicks": 120,
          "midi": 55,
          "name": "G3",
          "ticks": 137880,
          "time": 431.4192754833333,
          "velocity": 0.4015748031496063
        },
        {
          "duration": 0.3048781250000161,
          "durationTicks": 100,
          "midi": 55,
          "name": "G3",
          "ticks": 138000,
          "time": 431.7851292333333,
          "velocity": 0.4015748031496063
        },
        {
          "duration": 0.3048781250000161,
          "durationTicks": 100,
          "midi": 55,
          "name": "G3",
          "ticks": 138120,
          "time": 432.1509829833333,
          "velocity": 0.4015748031496063
        },
        {
          "duration": 0.375,
          "durationTicks": 120,
          "midi": 52,
          "name": "E3",
          "ticks": 138240,
          "time": 432.51683673333326,
          "velocity": 0.33858267716535434
        },
        {
          "duration": 0.375,
          "durationTicks": 120,
          "midi": 64,
          "name": "E4",
          "ticks": 138360,
          "time": 432.89183673333326,
          "velocity": 0.33858267716535434
        },
        {
          "duration": 0.3125,
          "durationTicks": 100,
          "midi": 64,
          "name": "E4",
          "ticks": 138480,
          "time": 433.26683673333326,
          "velocity": 0.33858267716535434
        },
        {
          "duration": 0.3125,
          "durationTicks": 100,
          "midi": 64,
          "name": "E4",
          "ticks": 138600,
          "time": 433.64183673333326,
          "velocity": 0.33858267716535434
        },
        {
          "duration": 0.375,
          "durationTicks": 120,
          "midi": 53,
          "name": "F3",
          "ticks": 138720,
          "time": 434.01683673333326,
          "velocity": 0.33858267716535434
        },
        {
          "duration": 0.375,
          "durationTicks": 120,
          "midi": 62,
          "name": "D4",
          "ticks": 138840,
          "time": 434.39183673333326,
          "velocity": 0.33858267716535434
        },
        {
          "duration": 0.3125,
          "durationTicks": 100,
          "midi": 62,
          "name": "D4",
          "ticks": 138960,
          "time": 434.76683673333326,
          "velocity": 0.33858267716535434
        },
        {
          "duration": 0.3125,
          "durationTicks": 100,
          "midi": 62,
          "name": "D4",
          "ticks": 139080,
          "time": 435.14183673333326,
          "velocity": 0.33858267716535434
        },
        {
          "duration": 0.375,
          "durationTicks": 120,
          "midi": 50,
          "name": "D3",
          "ticks": 139200,
          "time": 435.51683673333326,
          "velocity": 0.33858267716535434
        },
        {
          "duration": 0.375,
          "durationTicks": 120,
          "midi": 58,
          "name": "A#3",
          "ticks": 139320,
          "time": 435.89183673333326,
          "velocity": 0.33858267716535434
        },
        {
          "duration": 0.3125,
          "durationTicks": 100,
          "midi": 58,
          "name": "A#3",
          "ticks": 139440,
          "time": 436.26683673333326,
          "velocity": 0.33858267716535434
        },
        {
          "duration": 0.3125,
          "durationTicks": 100,
          "midi": 58,
          "name": "A#3",
          "ticks": 139560,
          "time": 436.64183673333326,
          "velocity": 0.33858267716535434
        },
        {
          "duration": 0.375,
          "durationTicks": 120,
          "midi": 48,
          "name": "C3",
          "ticks": 139680,
          "time": 437.01683673333326,
          "velocity": 0.33858267716535434
        },
        {
          "duration": 0.375,
          "durationTicks": 120,
          "midi": 57,
          "name": "A3",
          "ticks": 139800,
          "time": 437.39183673333326,
          "velocity": 0.33070866141732286
        },
        {
          "duration": 0.3125,
          "durationTicks": 100,
          "midi": 57,
          "name": "A3",
          "ticks": 139920,
          "time": 437.76683673333326,
          "velocity": 0.3228346456692913
        },
        {
          "duration": 0.3125,
          "durationTicks": 100,
          "midi": 57,
          "name": "A3",
          "ticks": 140040,
          "time": 438.14183673333326,
          "velocity": 0.3228346456692913
        },
        {
          "duration": 0.375,
          "durationTicks": 120,
          "midi": 48,
          "name": "C3",
          "ticks": 140160,
          "time": 438.51683673333326,
          "velocity": 0.31496062992125984
        },
        {
          "duration": 0.375,
          "durationTicks": 120,
          "midi": 57,
          "name": "A3",
          "ticks": 140280,
          "time": 438.89183673333326,
          "velocity": 0.30708661417322836
        },
        {
          "duration": 0.3134615500000564,
          "durationTicks": 100,
          "midi": 57,
          "name": "A3",
          "ticks": 140400,
          "time": 439.26683673333326,
          "velocity": 0.30708661417322836
        },
        {
          "duration": 0.3205129166667007,
          "durationTicks": 100,
          "midi": 57,
          "name": "A3",
          "ticks": 140520,
          "time": 439.6444008666666,
          "velocity": 0.30708661417322836
        },
        {
          "duration": 0.3873874999999316,
          "durationTicks": 120,
          "midi": 48,
          "name": "C3",
          "ticks": 140640,
          "time": 440.0290163666666,
          "velocity": 0.2992125984251969
        },
        {
          "duration": 0.40540550000002895,
          "durationTicks": 120,
          "midi": 58,
          "name": "A#3",
          "ticks": 140760,
          "time": 440.41640386666654,
          "velocity": 0.2992125984251969
        },
        {
          "duration": 0.3419670416666918,
          "durationTicks": 100,
          "midi": 58,
          "name": "A#3",
          "ticks": 140880,
          "time": 440.82180936666657,
          "velocity": 0.29133858267716534
        },
        {
          "duration": 0.34722229166663965,
          "durationTicks": 100,
          "midi": 58,
          "name": "A#3",
          "ticks": 141000,
          "time": 441.2332208666666,
          "velocity": 0.29133858267716534
        },
        {
          "duration": 0.75,
          "durationTicks": 240,
          "midi": 58,
          "name": "A#3",
          "ticks": 141120,
          "time": 441.6498876166666,
          "velocity": 0.2125984251968504
        },
        {
          "duration": 1.5865221333332897,
          "durationTicks": 480,
          "midi": 55,
          "name": "G3",
          "ticks": 142080,
          "time": 444.6498876166666,
          "velocity": 0.2992125984251969
        },
        {
          "duration": 0.75,
          "durationTicks": 240,
          "midi": 53,
          "name": "F3",
          "ticks": 142560,
          "time": 446.2364097499999,
          "velocity": 0.2992125984251969
        },
        {
          "duration": 1.2406015000000252,
          "durationTicks": 360,
          "midi": 52,
          "name": "E3",
          "ticks": 143520,
          "time": 449.2495675833332,
          "velocity": 0.3700787401574803
        },
        {
          "duration": 0.42857149999997546,
          "durationTicks": 120,
          "midi": 55,
          "name": "G3",
          "ticks": 143880,
          "time": 450.4901690833332,
          "velocity": 0.3700787401574803
        },
        {
          "duration": 2.0508927666666636,
          "durationTicks": 480,
          "midi": 52,
          "name": "E3",
          "ticks": 144000,
          "time": 450.9187405833332,
          "velocity": 0.3464566929133858
        },
        {
          "duration": 1.0714285000000245,
          "durationTicks": 240,
          "midi": 53,
          "name": "F3",
          "ticks": 144480,
          "time": 452.96963334999987,
          "velocity": 0.3464566929133858
        }
      ]
    },
    {
      "channel": 0,
      "controlChanges": {},
      "pitchBends": [],
      "instrument": {
        "family": "piano",
        "number": 0,
        "name": "acoustic grand piano"
      },
      "name": "Violoncelli",
      "notes": [],
      "endOfTrackTicks": 145440
    },
    {
      "channel": 7,
      "controlChanges": {
        "7": [
          {
            "number": 7,
            "ticks": 0,
            "time": 0,
            "value": 0.8267716535433071
          }
        ],
        "10": [
          {
            "number": 10,
            "ticks": 0,
            "time": 0,
            "value": 0.8267716535433071
          }
        ]
      },
      "pitchBends": [],
      "instrument": {
        "family": "ensemble",
        "number": 48,
        "name": "string ensemble 1"
      },
      "name": "",
      "notes": [
        {
          "duration": 1.5,
          "durationTicks": 480,
          "midi": 53,
          "name": "F3",
          "ticks": 960,
          "time": 3,
          "velocity": 0.4251968503937008
        },
        {
          "duration": 0.75,
          "durationTicks": 240,
          "midi": 55,
          "name": "G3",
          "ticks": 1440,
          "time": 4.5,
          "velocity": 0.4251968503937008
        },
        {
          "duration": 0.5,
          "durationTicks": 160,
          "midi": 48,
          "name": "C3",
          "ticks": 1920,
          "time": 6,
          "velocity": 0.4645669291338583
        },
        {
          "duration": 1.5,
          "durationTicks": 480,
          "midi": 58,
          "name": "A#3",
          "ticks": 3840,
          "time": 12,
          "velocity": 0.41732283464566927
        },
        {
          "duration": 0.75,
          "durationTicks": 240,
          "midi": 57,
          "name": "A3",
          "ticks": 4320,
          "time": 13.5,
          "velocity": 0.41732283464566927
        },
        {
          "duration": 0.5,
          "durationTicks": 160,
          "midi": 45,
          "name": "A2",
          "ticks": 4800,
          "time": 15,
          "velocity": 0.4645669291338583
        },
        {
          "duration": 1.5,
          "durationTicks": 480,
          "midi": 49,
          "name": "C#3",
          "ticks": 7680,
          "time": 24,
          "velocity": 0.3858267716535433
        },
        {
          "duration": 1.5,
          "durationTicks": 480,
          "midi": 50,
          "name": "D3",
          "ticks": 8160,
          "time": 25.5,
          "velocity": 0.4015748031496063
        },
        {
          "duration": 0.6749999999999972,
          "durationTicks": 216,
          "midi": 46,
          "name": "A#2",
          "ticks": 8640,
          "time": 27,
          "velocity": 0.5118110236220472
        },
        {
          "duration": 0.6749999999999972,
          "durationTicks": 216,
          "midi": 46,
          "name": "A#2",
          "ticks": 8880,
          "time": 27.75,
          "velocity": 0.5118110236220472
        },
        {
          "duration": 0.6749999999999972,
          "durationTicks": 216,
          "midi": 46,
          "name": "A#2",
          "ticks": 9120,
          "time": 28.5,
          "velocity": 0.5118110236220472
        },
        {
          "duration": 0.6749999999999972,
          "durationTicks": 216,
          "midi": 46,
          "name": "A#2",
          "ticks": 9360,
          "time": 29.25,
          "velocity": 0.5039370078740157
        },
        {
          "duration": 0.6749999999999972,
          "durationTicks": 216,
          "midi": 46,
          "name": "A#2",
          "ticks": 9600,
          "time": 30,
          "velocity": 0.5039370078740157
        },
        {
          "duration": 0.6749999999999972,
          "durationTicks": 216,
          "midi": 46,
          "name": "A#2",
          "ticks": 9840,
          "time": 30.75,
          "velocity": 0.49606299212598426
        },
        {
          "duration": 0.6749999999999972,
          "durationTicks": 216,
          "midi": 48,
          "name": "C3",
          "ticks": 10080,
          "time": 31.5,
          "velocity": 0.49606299212598426
        },
        {
          "duration": 0.6749999999999972,
          "durationTicks": 216,
          "midi": 48,
          "name": "C3",
          "ticks": 10320,
          "time": 32.25,
          "velocity": 0.49606299212598426
        },
        {
          "duration": 0.6749999999999972,
          "durationTicks": 216,
          "midi": 48,
          "name": "C3",
          "ticks": 10560,
          "time": 33,
          "velocity": 0.49606299212598426
        },
        {
          "duration": 0.6749999999999972,
          "durationTicks": 216,
          "midi": 48,
          "name": "C3",
          "ticks": 10800,
          "time": 33.75,
          "velocity": 0.49606299212598426
        },
        {
          "duration": 0.6749999999999972,
          "durationTicks": 216,
          "midi": 48,
          "name": "C3",
          "ticks": 11040,
          "time": 34.5,
          "velocity": 0.4881889763779528
        },
        {
          "duration": 0.6749999999999972,
          "durationTicks": 216,
          "midi": 48,
          "name": "C3",
          "ticks": 11280,
          "time": 35.25,
          "velocity": 0.4881889763779528
        },
        {
          "duration": 0.6749999999999972,
          "durationTicks": 216,
          "midi": 49,
          "name": "C#3",
          "ticks": 11520,
          "time": 36,
          "velocity": 0.4409448818897638
        },
        {
          "duration": 0.6749999999999972,
          "durationTicks": 216,
          "midi": 49,
          "name": "C#3",
          "ticks": 11760,
          "time": 36.75,
          "velocity": 0.4409448818897638
        },
        {
          "duration": 0.6749999999999972,
          "durationTicks": 216,
          "midi": 50,
          "name": "D3",
          "ticks": 12000,
          "time": 37.5,
          "velocity": 0.4409448818897638
        },
        {
          "duration": 0.6749999999999972,
          "durationTicks": 216,
          "midi": 50,
          "name": "D3",
          "ticks": 12240,
          "time": 38.25,
          "velocity": 0.4409448818897638
        },
        {
          "duration": 0.6749999999999972,
          "durationTicks": 216,
          "midi": 46,
          "name": "A#2",
          "ticks": 12480,
          "time": 39,
          "velocity": 0.4409448818897638
        },
        {
          "duration": 0.6749999999999972,
          "durationTicks": 216,
          "midi": 46,
          "name": "A#2",
          "ticks": 12720,
          "time": 39.75,
          "velocity": 0.4409448818897638
        },
        {
          "duration": 0.6749999999999972,
          "durationTicks": 216,
          "midi": 48,
          "name": "C3",
          "ticks": 12960,
          "time": 40.5,
          "velocity": 0.4409448818897638
        },
        {
          "duration": 0.6749999999999972,
          "durationTicks": 216,
          "midi": 48,
          "name": "C3",
          "ticks": 13200,
          "time": 41.25,
          "velocity": 0.4409448818897638
        },
        {
          "duration": 0.6749999999999972,
          "durationTicks": 216,
          "midi": 48,
          "name": "C3",
          "ticks": 13440,
          "time": 42,
          "velocity": 0.4409448818897638
        },
        {
          "duration": 0.6749999999999972,
          "durationTicks": 216,
          "midi": 48,
          "name": "C3",
          "ticks": 13680,
          "time": 42.75,
          "velocity": 0.4409448818897638
        },
        {
          "duration": 0.6749999999999972,
          "durationTicks": 216,
          "midi": 48,
          "name": "C3",
          "ticks": 13920,
          "time": 43.5,
          "velocity": 0.4409448818897638
        },
        {
          "duration": 0.6749999999999972,
          "durationTicks": 216,
          "midi": 48,
          "name": "C3",
          "ticks": 14160,
          "time": 44.25,
          "velocity": 0.4409448818897638
        },
        {
          "duration": 1.1000000000000014,
          "durationTicks": 352,
          "midi": 53,
          "name": "F3",
          "ticks": 14400,
          "time": 45,
          "velocity": 0.44881889763779526
        },
        {
          "duration": 0.375,
          "durationTicks": 120,
          "midi": 48,
          "name": "C3",
          "ticks": 14760,
          "time": 46.125,
          "velocity": 0.48031496062992124
        },
        {
          "duration": 2.612499999999997,
          "durationTicks": 836,
          "midi": 57,
          "name": "A3",
          "ticks": 14880,
          "time": 46.5,
          "velocity": 0.44881889763779526
        },
        {
          "duration": 0.17499999999999716,
          "durationTicks": 56,
          "midi": 55,
          "name": "G3",
          "ticks": 15720,
          "time": 49.125,
          "velocity": 0.44881889763779526
        },
        {
          "duration": 0.17499999999999716,
          "durationTicks": 56,
          "midi": 53,
          "name": "F3",
          "ticks": 15780,
          "time": 49.3125,
          "velocity": 0.44881889763779526
        },
        {
          "duration": 0.75,
          "durationTicks": 240,
          "midi": 52,
          "name": "E3",
          "ticks": 15840,
          "time": 49.5,
          "velocity": 0.44881889763779526
        },
        {
          "duration": 0.5625,
          "durationTicks": 180,
          "midi": 58,
          "name": "A#3",
          "ticks": 16320,
          "time": 51,
          "velocity": 0.49606299212598426
        },
        {
          "duration": 1.125,
          "durationTicks": 360,
          "midi": 55,
          "name": "G3",
          "ticks": 17280,
          "time": 54,
          "velocity": 0.44881889763779526
        },
        {
          "duration": 0.375,
          "durationTicks": 120,
          "midi": 48,
          "name": "C3",
          "ticks": 17640,
          "time": 55.125,
          "velocity": 0.4881889763779528
        },
        {
          "duration": 2.612499999999997,
          "durationTicks": 836,
          "midi": 58,
          "name": "A#3",
          "ticks": 17760,
          "time": 55.5,
          "velocity": 0.44881889763779526
        },
        {
          "duration": 0.1875,
          "durationTicks": 60,
          "midi": 57,
          "name": "A3",
          "ticks": 18600,
          "time": 58.125,
          "velocity": 0.44881889763779526
        },
        {
          "duration": 0.1875,
          "durationTicks": 60,
          "midi": 55,
          "name": "G3",
          "ticks": 18660,
          "time": 58.3125,
          "velocity": 0.44881889763779526
        },
        {
          "duration": 0.75,
          "durationTicks": 240,
          "midi": 53,
          "name": "F3",
          "ticks": 18720,
          "time": 58.5,
          "velocity": 0.44881889763779526
        },
        {
          "duration": 0.5625,
          "durationTicks": 180,
          "midi": 63,
          "name": "D#4",
          "ticks": 19200,
          "time": 60,
          "velocity": 0.44881889763779526
        },
        {
          "duration": 0.4375,
          "durationTicks": 140,
          "midi": 62,
          "name": "D4",
          "ticks": 20400,
          "time": 63.75,
          "velocity": 0.28346456692913385
        },
        {
          "duration": 0.4375,
          "durationTicks": 140,
          "midi": 62,
          "name": "D4",
          "ticks": 20640,
          "time": 64.5,
          "velocity": 0.2992125984251969
        },
        {
          "duration": 0.75,
          "durationTicks": 240,
          "midi": 62,
          "name": "D4",
          "ticks": 20880,
          "time": 65.25,
          "velocity": 0.31496062992125984
        },
        {
          "duration": 0.75,
          "durationTicks": 240,
          "midi": 61,
          "name": "C#4",
          "ticks": 21120,
          "time": 66,
          "velocity": 0.31496062992125984
        },
        {
          "duration": 0.75,
          "durationTicks": 240,
          "midi": 60,
          "name": "C4",
          "ticks": 21360,
          "time": 66.75,
          "velocity": 0.30708661417322836
        },
        {
          "duration": 0.4375,
          "durationTicks": 140,
          "midi": 59,
          "name": "B3",
          "ticks": 21840,
          "time": 68.25,
          "velocity": 0.29133858267716534
        },
        {
          "duration": 0.4375,
          "durationTicks": 140,
          "midi": 59,
          "name": "B3",
          "ticks": 22080,
          "time": 69,
          "velocity": 0.2992125984251969
        },
        {
          "duration": 0.75,
          "durationTicks": 240,
          "midi": 59,
          "name": "B3",
          "ticks": 22320,
          "time": 69.75,
          "velocity": 0.30708661417322836
        },
        {
          "duration": 0.75,
          "durationTicks": 240,
          "midi": 58,
          "name": "A#3",
          "ticks": 22560,
          "time": 70.5,
          "velocity": 0.30708661417322836
        },
        {
          "duration": 0.75,
          "durationTicks": 240,
          "midi": 57,
          "name": "A3",
          "ticks": 22800,
          "time": 71.25,
          "velocity": 0.30708661417322836
        },
        {
          "duration": 0.4375,
          "durationTicks": 140,
          "midi": 55,
          "name": "G3",
          "ticks": 23280,
          "time": 72.75,
          "velocity": 0.30708661417322836
        },
        {
          "duration": 0.4375,
          "durationTicks": 140,
          "midi": 55,
          "name": "G3",
          "ticks": 23520,
          "time": 73.5,
          "velocity": 0.30708661417322836
        },
        {
          "duration": 0.4375,
          "durationTicks": 140,
          "midi": 55,
          "name": "G3",
          "ticks": 23760,
          "time": 74.25,
          "velocity": 0.30708661417322836
        },
        {
          "duration": 0.75,
          "durationTicks": 240,
          "midi": 52,
          "name": "E3",
          "ticks": 24000,
          "time": 75,
          "velocity": 0.30708661417322836
        },
        {
          "duration": 0.75,
          "durationTicks": 240,
          "midi": 53,
          "name": "F3",
          "ticks": 24240,
          "time": 75.75,
          "velocity": 0.30708661417322836
        },
        {
          "duration": 2.25,
          "durationTicks": 720,
          "midi": 48,
          "name": "C3",
          "ticks": 24480,
          "time": 76.5,
          "velocity": 0.2992125984251969
        },
        {
          "duration": 0.75,
          "durationTicks": 240,
          "midi": 36,
          "name": "C2",
          "ticks": 25920,
          "time": 81,
          "velocity": 0.49606299212598426
        },
        {
          "duration": 0.7125000000000057,
          "durationTicks": 228,
          "midi": 48,
          "name": "C3",
          "ticks": 26148,
          "time": 81.7125,
          "velocity": 0.4251968503937008
        },
        {
          "duration": 0.7125000000000057,
          "durationTicks": 228,
          "midi": 48,
          "name": "C3",
          "ticks": 26400,
          "time": 82.5,
          "velocity": 0.4251968503937008
        },
        {
          "duration": 0.7125000000000057,
          "durationTicks": 228,
          "midi": 48,
          "name": "C3",
          "ticks": 26640,
          "time": 83.25,
          "velocity": 0.4251968503937008
        },
        {
          "duration": 0.7125000000000057,
          "durationTicks": 228,
          "midi": 48,
          "name": "C3",
          "ticks": 26880,
          "time": 84,
          "velocity": 0.4251968503937008
        },
        {
          "duration": 0.7125000000000057,
          "durationTicks": 228,
          "midi": 48,
          "name": "C3",
          "ticks": 27120,
          "time": 84.75,
          "velocity": 0.4251968503937008
        },
        {
          "duration": 0.7125000000000057,
          "durationTicks": 228,
          "midi": 48,
          "name": "C3",
          "ticks": 27360,
          "time": 85.5,
          "velocity": 0.4251968503937008
        },
        {
          "duration": 0.7125000000000057,
          "durationTicks": 228,
          "midi": 48,
          "name": "C3",
          "ticks": 27600,
          "time": 86.25,
          "velocity": 0.4251968503937008
        },
        {
          "duration": 0.7125000000000057,
          "durationTicks": 228,
          "midi": 48,
          "name": "C3",
          "ticks": 27840,
          "time": 87,
          "velocity": 0.4251968503937008
        },
        {
          "duration": 0.7125000000000057,
          "durationTicks": 228,
          "midi": 48,
          "name": "C3",
          "ticks": 28080,
          "time": 87.75,
          "velocity": 0.4251968503937008
        },
        {
          "duration": 0.7125000000000057,
          "durationTicks": 228,
          "midi": 48,
          "name": "C3",
          "ticks": 28320,
          "time": 88.5,
          "velocity": 0.4251968503937008
        },
        {
          "duration": 0.7125000000000057,
          "durationTicks": 228,
          "midi": 48,
          "name": "C3",
          "ticks": 28560,
          "time": 89.25,
          "velocity": 0.4251968503937008
        },
        {
          "duration": 0.75,
          "durationTicks": 240,
          "midi": 36,
          "name": "C2",
          "ticks": 28800,
          "time": 90,
          "velocity": 0.49606299212598426
        },
        {
          "duration": 0.7125000000000057,
          "durationTicks": 228,
          "midi": 48,
          "name": "C3",
          "ticks": 29040,
          "time": 90.75,
          "velocity": 0.4251968503937008
        },
        {
          "duration": 0.7125000000000057,
          "durationTicks": 228,
          "midi": 48,
          "name": "C3",
          "ticks": 29280,
          "time": 91.5,
          "velocity": 0.4251968503937008
        },
        {
          "duration": 0.7125000000000057,
          "durationTicks": 228,
          "midi": 48,
          "name": "C3",
          "ticks": 29520,
          "time": 92.25,
          "velocity": 0.4251968503937008
        },
        {
          "duration": 0.7125000000000057,
          "durationTicks": 228,
          "midi": 48,
          "name": "C3",
          "ticks": 29760,
          "time": 93,
          "velocity": 0.4251968503937008
        },
        {
          "duration": 0.7125000000000057,
          "durationTicks": 228,
          "midi": 48,
          "name": "C3",
          "ticks": 30000,
          "time": 93.75,
          "velocity": 0.4251968503937008
        },
        {
          "duration": 0.7125000000000057,
          "durationTicks": 228,
          "midi": 48,
          "name": "C3",
          "ticks": 30240,
          "time": 94.5,
          "velocity": 0.4251968503937008
        },
        {
          "duration": 0.7125000000000057,
          "durationTicks": 228,
          "midi": 48,
          "name": "C3",
          "ticks": 30480,
          "time": 95.25,
          "velocity": 0.4251968503937008
        },
        {
          "duration": 0.7124999999999915,
          "durationTicks": 228,
          "midi": 48,
          "name": "C3",
          "ticks": 30720,
          "time": 96,
          "velocity": 0.4251968503937008
        },
        {
          "duration": 0.7124999999999915,
          "durationTicks": 228,
          "midi": 48,
          "name": "C3",
          "ticks": 30960,
          "time": 96.75,
          "velocity": 0.4251968503937008
        },
        {
          "duration": 0.7124999999999915,
          "durationTicks": 228,
          "midi": 48,
          "name": "C3",
          "ticks": 31200,
          "time": 97.5,
          "velocity": 0.4251968503937008
        },
        {
          "duration": 0.7124999999999915,
          "durationTicks": 228,
          "midi": 48,
          "name": "C3",
          "ticks": 31440,
          "time": 98.25,
          "velocity": 0.4251968503937008
        },
        {
          "duration": 0.7124999999999915,
          "durationTicks": 228,
          "midi": 39,
          "name": "D#2",
          "ticks": 31680,
          "time": 99,
          "velocity": 0.5669291338582677
        },
        {
          "duration": 0.7124999999999915,
          "durationTicks": 228,
          "midi": 51,
          "name": "D#3",
          "ticks": 31920,
          "time": 99.75,
          "velocity": 0.4251968503937008
        },
        {
          "duration": 0.7124999999999915,
          "durationTicks": 228,
          "midi": 51,
          "name": "D#3",
          "ticks": 32160,
          "time": 100.5,
          "velocity": 0.4251968503937008
        },
        {
          "duration": 0.7124999999999915,
          "durationTicks": 228,
          "midi": 51,
          "name": "D#3",
          "ticks": 32400,
          "time": 101.25,
          "velocity": 0.4251968503937008
        },
        {
          "duration": 0.7124999999999915,
          "durationTicks": 228,
          "midi": 41,
          "name": "F2",
          "ticks": 32640,
          "time": 102,
          "velocity": 0.5669291338582677
        },
        {
          "duration": 0.7124999999999915,
          "durationTicks": 228,
          "midi": 53,
          "name": "F3",
          "ticks": 32880,
          "time": 102.75,
          "velocity": 0.4251968503937008
        },
        {
          "duration": 0.7124999999999915,
          "durationTicks": 228,
          "midi": 53,
          "name": "F3",
          "ticks": 33120,
          "time": 103.5,
          "velocity": 0.4251968503937008
        },
        {
          "duration": 0.7124999999999915,
          "durationTicks": 228,
          "midi": 53,
          "name": "F3",
          "ticks": 33360,
          "time": 104.25,
          "velocity": 0.4251968503937008
        },
        {
          "duration": 0.7124999999999915,
          "durationTicks": 228,
          "midi": 43,
          "name": "G2",
          "ticks": 33600,
          "time": 105,
          "velocity": 0.5669291338582677
        },
        {
          "duration": 0.7124999999999915,
          "durationTicks": 228,
          "midi": 55,
          "name": "G3",
          "ticks": 33840,
          "time": 105.75,
          "velocity": 0.4251968503937008
        },
        {
          "duration": 0.7124999999999915,
          "durationTicks": 228,
          "midi": 55,
          "name": "G3",
          "ticks": 34080,
          "time": 106.5,
          "velocity": 0.4251968503937008
        },
        {
          "duration": 0.7124999999999915,
          "durationTicks": 228,
          "midi": 55,
          "name": "G3",
          "ticks": 34320,
          "time": 107.25,
          "velocity": 0.4251968503937008
        },
        {
          "duration": 0.7124999999999915,
          "durationTicks": 228,
          "midi": 44,
          "name": "G#2",
          "ticks": 34560,
          "time": 108,
          "velocity": 0.5669291338582677
        },
        {
          "duration": 0.7124999999999915,
          "durationTicks": 228,
          "midi": 56,
          "name": "G#3",
          "ticks": 34800,
          "time": 108.75,
          "velocity": 0.4251968503937008
        },
        {
          "duration": 0.7124999999999915,
          "durationTicks": 228,
          "midi": 56,
          "name": "G#3",
          "ticks": 35040,
          "time": 109.5,
          "velocity": 0.4251968503937008
        },
        {
          "duration": 0.7124999999999915,
          "durationTicks": 228,
          "midi": 56,
          "name": "G#3",
          "ticks": 35280,
          "time": 110.25,
          "velocity": 0.4251968503937008
        },
        {
          "duration": 0.7124999999999915,
          "durationTicks": 228,
          "midi": 45,
          "name": "A2",
          "ticks": 35520,
          "time": 111,
          "velocity": 0.5669291338582677
        },
        {
          "duration": 0.7124999999999915,
          "durationTicks": 228,
          "midi": 57,
          "name": "A3",
          "ticks": 35760,
          "time": 111.75,
          "velocity": 0.4251968503937008
        },
        {
          "duration": 3,
          "durationTicks": 960,
          "midi": 57,
          "name": "A3",
          "ticks": 36000,
          "time": 112.5,
          "velocity": 0.4251968503937008
        },
        {
          "duration": 1.5,
          "durationTicks": 480,
          "midi": 56,
          "name": "G#3",
          "ticks": 36960,
          "time": 115.5,
          "velocity": 0.4094488188976378
        },
        {
          "duration": 0.75,
          "durationTicks": 240,
          "midi": 55,
          "name": "G3",
          "ticks": 37440,
          "time": 117,
          "velocity": 0.4015748031496063
        },
        {
          "duration": 0.75,
          "durationTicks": 240,
          "midi": 43,
          "name": "G2",
          "ticks": 37920,
          "time": 118.5,
          "velocity": 0.4251968503937008
        },
        {
          "duration": 1.5,
          "durationTicks": 480,
          "midi": 52,
          "name": "E3",
          "ticks": 38880,
          "time": 121.62982456666666,
          "velocity": 0.3543307086614173
        },
        {
          "duration": 1.5,
          "durationTicks": 480,
          "midi": 50,
          "name": "D3",
          "ticks": 39360,
          "time": 123.12982456666666,
          "velocity": 0.3543307086614173
        },
        {
          "duration": 1.5,
          "durationTicks": 480,
          "midi": 48,
          "name": "C3",
          "ticks": 39840,
          "time": 124.62982456666666,
          "velocity": 0.3543307086614173
        },
        {
          "duration": 1.5,
          "durationTicks": 480,
          "midi": 47,
          "name": "B2",
          "ticks": 40320,
          "time": 126.12982456666666,
          "velocity": 0.3543307086614173
        },
        {
          "duration": 1.5,
          "durationTicks": 480,
          "midi": 53,
          "name": "F3",
          "ticks": 41760,
          "time": 130.62982456666666,
          "velocity": 0.3543307086614173
        },
        {
          "duration": 1.5,
          "durationTicks": 480,
          "midi": 52,
          "name": "E3",
          "ticks": 42240,
          "time": 132.12982456666666,
          "velocity": 0.3543307086614173
        },
        {
          "duration": 1.5,
          "durationTicks": 480,
          "midi": 50,
          "name": "D3",
          "ticks": 42720,
          "time": 133.62982456666666,
          "velocity": 0.3543307086614173
        },
        {
          "duration": 1.5,
          "durationTicks": 480,
          "midi": 48,
          "name": "C3",
          "ticks": 43200,
          "time": 135.12982456666666,
          "velocity": 0.3543307086614173
        },
        {
          "duration": 0.75,
          "durationTicks": 240,
          "midi": 57,
          "name": "A3",
          "ticks": 44640,
          "time": 139.62982456666666,
          "velocity": 0.3700787401574803
        },
        {
          "duration": 0.75,
          "durationTicks": 240,
          "midi": 62,
          "name": "D4",
          "ticks": 45120,
          "time": 141.12982456666666,
          "velocity": 0.3700787401574803
        },
        {
          "duration": 0.75,
          "durationTicks": 240,
          "midi": 55,
          "name": "G3",
          "ticks": 45600,
          "time": 142.62982456666666,
          "velocity": 0.3700787401574803
        },
        {
          "duration": 0.75,
          "durationTicks": 240,
          "midi": 60,
          "name": "C4",
          "ticks": 46080,
          "time": 144.12982456666666,
          "velocity": 0.3700787401574803
        },
        {
          "duration": 1.5,
          "durationTicks": 480,
          "midi": 53,
          "name": "F3",
          "ticks": 46560,
          "time": 145.62982456666666,
          "velocity": 0.3700787401574803
        },
        {
          "duration": 0.75,
          "durationTicks": 240,
          "midi": 55,
          "name": "G3",
          "ticks": 47040,
          "time": 147.12982456666666,
          "velocity": 0.3700787401574803
        },
        {
          "duration": 0.75,
          "durationTicks": 240,
          "midi": 57,
          "name": "A3",
          "ticks": 47280,
          "time": 147.87982456666666,
          "velocity": 0.3700787401574803
        },
        {
          "duration": 0.75,
          "durationTicks": 240,
          "midi": 53,
          "name": "F3",
          "ticks": 47520,
          "time": 148.62982456666666,
          "velocity": 0.3700787401574803
        },
        {
          "duration": 0.75,
          "durationTicks": 240,
          "midi": 55,
          "name": "G3",
          "ticks": 48000,
          "time": 150.12982456666666,
          "velocity": 0.3700787401574803
        },
        {
          "duration": 0.75,
          "durationTicks": 240,
          "midi": 43,
          "name": "G2",
          "ticks": 48480,
          "time": 151.62982456666666,
          "velocity": 0.3700787401574803
        },
        {
          "duration": 0.75,
          "durationTicks": 240,
          "midi": 57,
          "name": "A3",
          "ticks": 48960,
          "time": 153.12982456666666,
          "velocity": 0.3700787401574803
        },
        {
          "duration": 0.75,
          "durationTicks": 240,
          "midi": 62,
          "name": "D4",
          "ticks": 49440,
          "time": 154.62982456666666,
          "velocity": 0.3700787401574803
        },
        {
          "duration": 0.75,
          "durationTicks": 240,
          "midi": 55,
          "name": "G3",
          "ticks": 49920,
          "time": 156.12982456666666,
          "velocity": 0.3700787401574803
        },
        {
          "duration": 0.75,
          "durationTicks": 240,
          "midi": 60,
          "name": "C4",
          "ticks": 50400,
          "time": 157.62982456666666,
          "velocity": 0.3700787401574803
        },
        {
          "duration": 1.5,
          "durationTicks": 480,
          "midi": 53,
          "name": "F3",
          "ticks": 50880,
          "time": 159.12982456666666,
          "velocity": 0.3700787401574803
        },
        {
          "duration": 0.75,
          "durationTicks": 240,
          "midi": 55,
          "name": "G3",
          "ticks": 51360,
          "time": 160.62982456666666,
          "velocity": 0.3700787401574803
        },
        {
          "duration": 0.75,
          "durationTicks": 240,
          "midi": 57,
          "name": "A3",
          "ticks": 51600,
          "time": 161.37982456666666,
          "velocity": 0.3700787401574803
        },
        {
          "duration": 1.5,
          "durationTicks": 480,
          "midi": 50,
          "name": "D3",
          "ticks": 51840,
          "time": 162.12982456666666,
          "velocity": 0.3700787401574803
        },
        {
          "duration": 0.75,
          "durationTicks": 240,
          "midi": 52,
          "name": "E3",
          "ticks": 52320,
          "time": 163.62982456666666,
          "velocity": 0.3858267716535433
        },
        {
          "duration": 0.75,
          "durationTicks": 240,
          "midi": 53,
          "name": "F3",
          "ticks": 52560,
          "time": 164.37982456666666,
          "velocity": 0.3937007874015748
        },
        {
          "duration": 1.5,
          "durationTicks": 480,
          "midi": 46,
          "name": "A#2",
          "ticks": 52800,
          "time": 165.12982456666666,
          "velocity": 0.4015748031496063
        },
        {
          "duration": 0.7125000000000057,
          "durationTicks": 228,
          "midi": 48,
          "name": "C3",
          "ticks": 53280,
          "time": 166.62982456666666,
          "velocity": 0.4881889763779528
        },
        {
          "duration": 0.75,
          "durationTicks": 240,
          "midi": 50,
          "name": "D3",
          "ticks": 53520,
          "time": 167.37982456666666,
          "velocity": 0.4251968503937008
        },
        {
          "duration": 0.75,
          "durationTicks": 240,
          "midi": 52,
          "name": "E3",
          "ticks": 53760,
          "time": 168.12982456666666,
          "velocity": 0.4251968503937008
        },
        {
          "duration": 0.6750000000000114,
          "durationTicks": 216,
          "midi": 53,
          "name": "F3",
          "ticks": 54000,
          "time": 168.87982456666666,
          "velocity": 0.4251968503937008
        },
        {
          "duration": 0.6750000000000114,
          "durationTicks": 216,
          "midi": 55,
          "name": "G3",
          "ticks": 54240,
          "time": 169.62982456666666,
          "velocity": 0.4251968503937008
        },
        {
          "duration": 0.6750000000000114,
          "durationTicks": 216,
          "midi": 43,
          "name": "G2",
          "ticks": 54480,
          "time": 170.37982456666666,
          "velocity": 0.4251968503937008
        },
        {
          "duration": 1.5,
          "durationTicks": 480,
          "midi": 48,
          "name": "C3",
          "ticks": 54720,
          "time": 171.12982456666666,
          "velocity": 0.4251968503937008
        },
        {
          "duration": 1.5,
          "durationTicks": 480,
          "midi": 55,
          "name": "G3",
          "ticks": 57120,
          "time": 178.62982456666666,
          "velocity": 0.3543307086614173
        },
        {
          "duration": 0.75,
          "durationTicks": 240,
          "midi": 60,
          "name": "C4",
          "ticks": 57600,
          "time": 180.12982456666666,
          "velocity": 0.3543307086614173
        },
        {
          "duration": 1.5,
          "durationTicks": 480,
          "midi": 55,
          "name": "G3",
          "ticks": 60000,
          "time": 187.62982456666666,
          "velocity": 0.3543307086614173
        },
        {
          "duration": 0.75,
          "durationTicks": 240,
          "midi": 48,
          "name": "C3",
          "ticks": 60480,
          "time": 189.12982456666666,
          "velocity": 0.3543307086614173
        },
        {
          "duration": 0.7616079333333232,
          "durationTicks": 224,
          "midi": 60,
          "name": "C4",
          "ticks": 60960,
          "time": 190.64136316666668,
          "velocity": 0.3543307086614173
        },
        {
          "duration": 2.298025200000012,
          "durationTicks": 720,
          "midi": 45,
          "name": "A2",
          "ticks": 63360,
          "time": 198.21963780000002,
          "velocity": 0.3543307086614173
        },
        {
          "duration": 0.75,
          "durationTicks": 240,
          "midi": 34,
          "name": "A#1",
          "ticks": 66240,
          "time": 207.49144406666665,
          "velocity": 0.49606299212598426
        },
        {
          "duration": 0.6624999999999943,
          "durationTicks": 212,
          "midi": 50,
          "name": "D3",
          "ticks": 66480,
          "time": 208.24144406666665,
          "velocity": 0.41732283464566927
        },
        {
          "duration": 0.6624999999999943,
          "durationTicks": 212,
          "midi": 50,
          "name": "D3",
          "ticks": 66720,
          "time": 208.99144406666665,
          "velocity": 0.41732283464566927
        },
        {
          "duration": 0.6624999999999943,
          "durationTicks": 212,
          "midi": 50,
          "name": "D3",
          "ticks": 66960,
          "time": 209.74144406666665,
          "velocity": 0.41732283464566927
        },
        {
          "duration": 0.6624999999999943,
          "durationTicks": 212,
          "midi": 50,
          "name": "D3",
          "ticks": 67200,
          "time": 210.49144406666665,
          "velocity": 0.41732283464566927
        },
        {
          "duration": 0.6624999999999943,
          "durationTicks": 212,
          "midi": 50,
          "name": "D3",
          "ticks": 67440,
          "time": 211.24144406666665,
          "velocity": 0.41732283464566927
        },
        {
          "duration": 0.6624999999999943,
          "durationTicks": 212,
          "midi": 50,
          "name": "D3",
          "ticks": 67680,
          "time": 211.99144406666665,
          "velocity": 0.41732283464566927
        },
        {
          "duration": 0.6624999999999943,
          "durationTicks": 212,
          "midi": 50,
          "name": "D3",
          "ticks": 67920,
          "time": 212.74144406666665,
          "velocity": 0.41732283464566927
        },
        {
          "duration": 0.6624999999999943,
          "durationTicks": 212,
          "midi": 50,
          "name": "D3",
          "ticks": 68160,
          "time": 213.49144406666665,
          "velocity": 0.41732283464566927
        },
        {
          "duration": 0.6624999999999943,
          "durationTicks": 212,
          "midi": 50,
          "name": "D3",
          "ticks": 68400,
          "time": 214.24144406666665,
          "velocity": 0.41732283464566927
        },
        {
          "duration": 0.6624999999999943,
          "durationTicks": 212,
          "midi": 50,
          "name": "D3",
          "ticks": 68640,
          "time": 214.99144406666665,
          "velocity": 0.41732283464566927
        },
        {
          "duration": 0.6624999999999943,
          "durationTicks": 212,
          "midi": 50,
          "name": "D3",
          "ticks": 68880,
          "time": 215.74144406666665,
          "velocity": 0.41732283464566927
        },
        {
          "duration": 0.6624999999999943,
          "durationTicks": 212,
          "midi": 37,
          "name": "C#2",
          "ticks": 69120,
          "time": 216.49144406666665,
          "velocity": 0.49606299212598426
        },
        {
          "duration": 0.6624999999999943,
          "durationTicks": 212,
          "midi": 49,
          "name": "C#3",
          "ticks": 69360,
          "time": 217.24144406666665,
          "velocity": 0.41732283464566927
        },
        {
          "duration": 0.6624999999999943,
          "durationTicks": 212,
          "midi": 49,
          "name": "C#3",
          "ticks": 69600,
          "time": 217.99144406666665,
          "velocity": 0.41732283464566927
        },
        {
          "duration": 0.6624999999999943,
          "durationTicks": 212,
          "midi": 49,
          "name": "C#3",
          "ticks": 69840,
          "time": 218.74144406666665,
          "velocity": 0.41732283464566927
        },
        {
          "duration": 0.6624999999999943,
          "durationTicks": 212,
          "midi": 49,
          "name": "C#3",
          "ticks": 70080,
          "time": 219.49144406666665,
          "velocity": 0.41732283464566927
        },
        {
          "duration": 0.6624999999999943,
          "durationTicks": 212,
          "midi": 49,
          "name": "C#3",
          "ticks": 70320,
          "time": 220.24144406666665,
          "velocity": 0.41732283464566927
        },
        {
          "duration": 0.6624999999999943,
          "durationTicks": 212,
          "midi": 48,
          "name": "C3",
          "ticks": 70560,
          "time": 220.99144406666665,
          "velocity": 0.41732283464566927
        },
        {
          "duration": 0.6624999999999943,
          "durationTicks": 212,
          "midi": 48,
          "name": "C3",
          "ticks": 70800,
          "time": 221.74144406666665,
          "velocity": 0.41732283464566927
        },
        {
          "duration": 0.6624999999999943,
          "durationTicks": 212,
          "midi": 48,
          "name": "C3",
          "ticks": 71040,
          "time": 222.49144406666665,
          "velocity": 0.41732283464566927
        },
        {
          "duration": 0.6624999999999943,
          "durationTicks": 212,
          "midi": 48,
          "name": "C3",
          "ticks": 71280,
          "time": 223.24144406666665,
          "velocity": 0.41732283464566927
        },
        {
          "duration": 0.6624999999999943,
          "durationTicks": 212,
          "midi": 48,
          "name": "C3",
          "ticks": 71520,
          "time": 223.99144406666665,
          "velocity": 0.41732283464566927
        },
        {
          "duration": 0.6624999999999943,
          "durationTicks": 212,
          "midi": 48,
          "name": "C3",
          "ticks": 71760,
          "time": 224.74144406666665,
          "velocity": 0.41732283464566927
        },
        {
          "duration": 0.6624999999999943,
          "durationTicks": 212,
          "midi": 46,
          "name": "A#2",
          "ticks": 72000,
          "time": 225.49144406666665,
          "velocity": 0.5118110236220472
        },
        {
          "duration": 0.6624999999999943,
          "durationTicks": 212,
          "midi": 58,
          "name": "A#3",
          "ticks": 72240,
          "time": 226.24144406666665,
          "velocity": 0.41732283464566927
        },
        {
          "duration": 0.6624999999999943,
          "durationTicks": 212,
          "midi": 58,
          "name": "A#3",
          "ticks": 72480,
          "time": 226.99144406666665,
          "velocity": 0.41732283464566927
        },
        {
          "duration": 0.6624999999999943,
          "durationTicks": 212,
          "midi": 58,
          "name": "A#3",
          "ticks": 72720,
          "time": 227.74144406666665,
          "velocity": 0.41732283464566927
        },
        {
          "duration": 0.6624999999999943,
          "durationTicks": 212,
          "midi": 46,
          "name": "A#2",
          "ticks": 72960,
          "time": 228.49144406666665,
          "velocity": 0.5118110236220472
        },
        {
          "duration": 0.6624999999999943,
          "durationTicks": 212,
          "midi": 58,
          "name": "A#3",
          "ticks": 73200,
          "time": 229.24144406666665,
          "velocity": 0.41732283464566927
        },
        {
          "duration": 0.6624999999999943,
          "durationTicks": 212,
          "midi": 58,
          "name": "A#3",
          "ticks": 73440,
          "time": 229.99144406666665,
          "velocity": 0.41732283464566927
        },
        {
          "duration": 0.6624999999999943,
          "durationTicks": 212,
          "midi": 58,
          "name": "A#3",
          "ticks": 73680,
          "time": 230.74144406666665,
          "velocity": 0.41732283464566927
        },
        {
          "duration": 0.6624999999999943,
          "durationTicks": 212,
          "midi": 41,
          "name": "F2",
          "ticks": 73920,
          "time": 231.49144406666665,
          "velocity": 0.5118110236220472
        },
        {
          "duration": 0.6624999999999943,
          "durationTicks": 212,
          "midi": 53,
          "name": "F3",
          "ticks": 74160,
          "time": 232.24144406666665,
          "velocity": 0.41732283464566927
        },
        {
          "duration": 0.6624999999999943,
          "durationTicks": 212,
          "midi": 53,
          "name": "F3",
          "ticks": 74400,
          "time": 232.99144406666665,
          "velocity": 0.41732283464566927
        },
        {
          "duration": 0.6624999999999943,
          "durationTicks": 212,
          "midi": 53,
          "name": "F3",
          "ticks": 74640,
          "time": 233.74144406666665,
          "velocity": 0.41732283464566927
        },
        {
          "duration": 0.6624999999999943,
          "durationTicks": 212,
          "midi": 36,
          "name": "C2",
          "ticks": 74880,
          "time": 234.49144406666665,
          "velocity": 0.5118110236220472
        },
        {
          "duration": 0.6624999999999943,
          "durationTicks": 212,
          "midi": 48,
          "name": "C3",
          "ticks": 75120,
          "time": 235.24144406666665,
          "velocity": 0.41732283464566927
        },
        {
          "duration": 0.6624999999999943,
          "durationTicks": 212,
          "midi": 48,
          "name": "C3",
          "ticks": 75360,
          "time": 235.99144406666665,
          "velocity": 0.41732283464566927
        },
        {
          "duration": 0.6624999999999943,
          "durationTicks": 212,
          "midi": 48,
          "name": "C3",
          "ticks": 75600,
          "time": 236.74144406666665,
          "velocity": 0.41732283464566927
        },
        {
          "duration": 0.6624999999999943,
          "durationTicks": 212,
          "midi": 43,
          "name": "G2",
          "ticks": 75840,
          "time": 237.49144406666665,
          "velocity": 0.5118110236220472
        },
        {
          "duration": 0.6624999999999943,
          "durationTicks": 212,
          "midi": 55,
          "name": "G3",
          "ticks": 76080,
          "time": 238.24144406666665,
          "velocity": 0.41732283464566927
        },
        {
          "duration": 0.6624999999999943,
          "durationTicks": 212,
          "midi": 55,
          "name": "G3",
          "ticks": 76320,
          "time": 238.99144406666665,
          "velocity": 0.41732283464566927
        },
        {
          "duration": 0.6624999999999943,
          "durationTicks": 212,
          "midi": 55,
          "name": "G3",
          "ticks": 76560,
          "time": 239.74144406666665,
          "velocity": 0.41732283464566927
        },
        {
          "duration": 0.6624999999999943,
          "durationTicks": 212,
          "midi": 50,
          "name": "D3",
          "ticks": 76800,
          "time": 240.49144406666665,
          "velocity": 0.5118110236220472
        },
        {
          "duration": 0.6624999999999943,
          "durationTicks": 212,
          "midi": 62,
          "name": "D4",
          "ticks": 77040,
          "time": 241.24144406666665,
          "velocity": 0.41732283464566927
        },
        {
          "duration": 0.6624999999999943,
          "durationTicks": 212,
          "midi": 62,
          "name": "D4",
          "ticks": 77280,
          "time": 241.99144406666665,
          "velocity": 0.41732283464566927
        },
        {
          "duration": 0.6624999999999943,
          "durationTicks": 212,
          "midi": 62,
          "name": "D4",
          "ticks": 77520,
          "time": 242.74144406666665,
          "velocity": 0.41732283464566927
        },
        {
          "duration": 0.6624999999999943,
          "durationTicks": 212,
          "midi": 43,
          "name": "G2",
          "ticks": 77760,
          "time": 243.49144406666665,
          "velocity": 0.5118110236220472
        },
        {
          "duration": 0.6624999999999943,
          "durationTicks": 212,
          "midi": 55,
          "name": "G3",
          "ticks": 78000,
          "time": 244.24144406666665,
          "velocity": 0.41732283464566927
        },
        {
          "duration": 0.6624999999999943,
          "durationTicks": 212,
          "midi": 55,
          "name": "G3",
          "ticks": 78240,
          "time": 244.99144406666665,
          "velocity": 0.41732283464566927
        },
        {
          "duration": 0.6624999999999943,
          "durationTicks": 212,
          "midi": 55,
          "name": "G3",
          "ticks": 78480,
          "time": 245.74144406666665,
          "velocity": 0.41732283464566927
        },
        {
          "duration": 0.6624999999999943,
          "durationTicks": 212,
          "midi": 56,
          "name": "G#3",
          "ticks": 78720,
          "time": 246.49144406666665,
          "velocity": 0.41732283464566927
        },
        {
          "duration": 0.6624999999999943,
          "durationTicks": 212,
          "midi": 56,
          "name": "G#3",
          "ticks": 78960,
          "time": 247.24144406666665,
          "velocity": 0.41732283464566927
        },
        {
          "duration": 0.6624999999999943,
          "durationTicks": 212,
          "midi": 57,
          "name": "A3",
          "ticks": 79200,
          "time": 247.99144406666665,
          "velocity": 0.41732283464566927
        },
        {
          "duration": 1.5,
          "durationTicks": 480,
          "midi": 46,
          "name": "A#2",
          "ticks": 79680,
          "time": 249.49144406666665,
          "velocity": 0.41732283464566927
        },
        {
          "duration": 0.75,
          "durationTicks": 240,
          "midi": 45,
          "name": "A2",
          "ticks": 80160,
          "time": 250.99144406666665,
          "velocity": 0.41732283464566927
        },
        {
          "duration": 1.5,
          "durationTicks": 480,
          "midi": 58,
          "name": "A#3",
          "ticks": 80640,
          "time": 252.49144406666665,
          "velocity": 0.3779527559055118
        },
        {
          "duration": 0.75,
          "durationTicks": 240,
          "midi": 57,
          "name": "A3",
          "ticks": 81120,
          "time": 253.99144406666665,
          "velocity": 0.3779527559055118
        },
        {
          "duration": 0.75,
          "durationTicks": 240,
          "midi": 52,
          "name": "E3",
          "ticks": 82560,
          "time": 258.49144406666665,
          "velocity": 0.41732283464566927
        },
        {
          "duration": 0.75,
          "durationTicks": 240,
          "midi": 57,
          "name": "A3",
          "ticks": 83040,
          "time": 259.99144406666665,
          "velocity": 0.41732283464566927
        },
        {
          "duration": 0.75,
          "durationTicks": 240,
          "midi": 50,
          "name": "D3",
          "ticks": 83520,
          "time": 261.49144406666665,
          "velocity": 0.41732283464566927
        },
        {
          "duration": 0.75,
          "durationTicks": 240,
          "midi": 55,
          "name": "G3",
          "ticks": 84000,
          "time": 262.99144406666665,
          "velocity": 0.41732283464566927
        },
        {
          "duration": 0.7906347499999811,
          "durationTicks": 240,
          "midi": 48,
          "name": "C3",
          "ticks": 84480,
          "time": 264.49657233333335,
          "velocity": 0.41732283464566927
        },
        {
          "duration": 1.5,
          "durationTicks": 480,
          "midi": 53,
          "name": "F3",
          "ticks": 84960,
          "time": 266.1177627999999,
          "velocity": 0.41732283464566927
        },
        {
          "duration": 1.5,
          "durationTicks": 480,
          "midi": 46,
          "name": "A#2",
          "ticks": 86400,
          "time": 270.6177627999999,
          "velocity": 0.4330708661417323
        },
        {
          "duration": 0.1875,
          "durationTicks": 60,
          "midi": 54,
          "name": "F#3",
          "ticks": 86940,
          "time": 272.3052627999999,
          "velocity": 0.4330708661417323
        },
        {
          "duration": 0.1875,
          "durationTicks": 60,
          "midi": 55,
          "name": "G3",
          "ticks": 87000,
          "time": 272.4927627999999,
          "velocity": 0.4330708661417323
        },
        {
          "duration": 0.1875,
          "durationTicks": 60,
          "midi": 54,
          "name": "F#3",
          "ticks": 87060,
          "time": 272.6802627999999,
          "velocity": 0.4330708661417323
        },
        {
          "duration": 0.1875,
          "durationTicks": 60,
          "midi": 55,
          "name": "G3",
          "ticks": 87120,
          "time": 272.8677627999999,
          "velocity": 0.4330708661417323
        },
        {
          "duration": 0.1875,
          "durationTicks": 60,
          "midi": 57,
          "name": "A3",
          "ticks": 87180,
          "time": 273.0552627999999,
          "velocity": 0.4330708661417323
        },
        {
          "duration": 0.1875,
          "durationTicks": 60,
          "midi": 58,
          "name": "A#3",
          "ticks": 87240,
          "time": 273.2427627999999,
          "velocity": 0.4330708661417323
        },
        {
          "duration": 0.1875,
          "durationTicks": 60,
          "midi": 57,
          "name": "A3",
          "ticks": 87300,
          "time": 273.4302627999999,
          "velocity": 0.4330708661417323
        },
        {
          "duration": 0.1875,
          "durationTicks": 60,
          "midi": 58,
          "name": "A#3",
          "ticks": 87360,
          "time": 273.6177627999999,
          "velocity": 0.4330708661417323
        },
        {
          "duration": 0.1875,
          "durationTicks": 60,
          "midi": 61,
          "name": "C#4",
          "ticks": 87420,
          "time": 273.8052627999999,
          "velocity": 0.4330708661417323
        },
        {
          "duration": 0.1875,
          "durationTicks": 60,
          "midi": 62,
          "name": "D4",
          "ticks": 87480,
          "time": 273.9927627999999,
          "velocity": 0.4330708661417323
        },
        {
          "duration": 0.1875,
          "durationTicks": 60,
          "midi": 57,
          "name": "A3",
          "ticks": 87540,
          "time": 274.1802627999999,
          "velocity": 0.4330708661417323
        },
        {
          "duration": 0.1875,
          "durationTicks": 60,
          "midi": 60,
          "name": "C4",
          "ticks": 87600,
          "time": 274.3677627999999,
          "velocity": 0.4330708661417323
        },
        {
          "duration": 0.1875,
          "durationTicks": 60,
          "midi": 58,
          "name": "A#3",
          "ticks": 87660,
          "time": 274.5552627999999,
          "velocity": 0.4330708661417323
        },
        {
          "duration": 0.1875,
          "durationTicks": 60,
          "midi": 57,
          "name": "A3",
          "ticks": 87720,
          "time": 274.7427627999999,
          "velocity": 0.4330708661417323
        },
        {
          "duration": 0.1875,
          "durationTicks": 60,
          "midi": 55,
          "name": "G3",
          "ticks": 87780,
          "time": 274.9302627999999,
          "velocity": 0.4330708661417323
        },
        {
          "duration": 1.5,
          "durationTicks": 480,
          "midi": 53,
          "name": "F3",
          "ticks": 87840,
          "time": 275.1177627999999,
          "velocity": 0.4330708661417323
        },
        {
          "duration": 0.75,
          "durationTicks": 240,
          "midi": 52,
          "name": "E3",
          "ticks": 88320,
          "time": 276.6177627999999,
          "velocity": 0.4330708661417323
        },
        {
          "duration": 0.75,
          "durationTicks": 240,
          "midi": 48,
          "name": "C3",
          "ticks": 88800,
          "time": 278.1177627999999,
          "velocity": 0.4094488188976378
        },
        {
          "duration": 0.75,
          "durationTicks": 240,
          "midi": 51,
          "name": "D#3",
          "ticks": 89280,
          "time": 279.6177627999999,
          "velocity": 0.4094488188976378
        },
        {
          "duration": 0.75,
          "durationTicks": 240,
          "midi": 48,
          "name": "C3",
          "ticks": 89760,
          "time": 281.1177627999999,
          "velocity": 0.4094488188976378
        },
        {
          "duration": 0.75,
          "durationTicks": 240,
          "midi": 45,
          "name": "A2",
          "ticks": 90240,
          "time": 282.6177627999999,
          "velocity": 0.4094488188976378
        },
        {
          "duration": 1.125,
          "durationTicks": 360,
          "midi": 58,
          "name": "A#3",
          "ticks": 90720,
          "time": 284.1177627999999,
          "velocity": 0.4409448818897638
        },
        {
          "duration": 0.375,
          "durationTicks": 120,
          "midi": 53,
          "name": "F3",
          "ticks": 91080,
          "time": 285.2427627999999,
          "velocity": 0.4409448818897638
        },
        {
          "duration": 2.6125000000000114,
          "durationTicks": 836,
          "midi": 62,
          "name": "D4",
          "ticks": 91200,
          "time": 285.6177627999999,
          "velocity": 0.4409448818897638
        },
        {
          "duration": 0.1875,
          "durationTicks": 60,
          "midi": 60,
          "name": "C4",
          "ticks": 92040,
          "time": 288.2427627999999,
          "velocity": 0.4409448818897638
        },
        {
          "duration": 0.1875,
          "durationTicks": 60,
          "midi": 58,
          "name": "A#3",
          "ticks": 92100,
          "time": 288.4302627999999,
          "velocity": 0.4409448818897638
        },
        {
          "duration": 0.75,
          "durationTicks": 240,
          "midi": 57,
          "name": "A3",
          "ticks": 92160,
          "time": 288.6177627999999,
          "velocity": 0.4409448818897638
        },
        {
          "duration": 0.75,
          "durationTicks": 240,
          "midi": 63,
          "name": "D#4",
          "ticks": 92640,
          "time": 290.1177627999999,
          "velocity": 0.5039370078740157
        },
        {
          "duration": 0.1875,
          "durationTicks": 60,
          "midi": 59,
          "name": "B3",
          "ticks": 93660,
          "time": 293.3052627999999,
          "velocity": 0.3937007874015748
        },
        {
          "duration": 0.1875,
          "durationTicks": 60,
          "midi": 60,
          "name": "C4",
          "ticks": 93720,
          "time": 293.4927627999999,
          "velocity": 0.3937007874015748
        },
        {
          "duration": 0.1875,
          "durationTicks": 60,
          "midi": 59,
          "name": "B3",
          "ticks": 93780,
          "time": 293.6802627999999,
          "velocity": 0.3937007874015748
        },
        {
          "duration": 0.1875,
          "durationTicks": 60,
          "midi": 60,
          "name": "C4",
          "ticks": 93840,
          "time": 293.8677627999999,
          "velocity": 0.3937007874015748
        },
        {
          "duration": 0.1875,
          "durationTicks": 60,
          "midi": 62,
          "name": "D4",
          "ticks": 93900,
          "time": 294.0552627999999,
          "velocity": 0.3937007874015748
        },
        {
          "duration": 0.1875,
          "durationTicks": 60,
          "midi": 63,
          "name": "D#4",
          "ticks": 93960,
          "time": 294.2427627999999,
          "velocity": 0.3937007874015748
        },
        {
          "duration": 0.1875,
          "durationTicks": 60,
          "midi": 62,
          "name": "D4",
          "ticks": 94020,
          "time": 294.4302627999999,
          "velocity": 0.3937007874015748
        },
        {
          "duration": 0.1875,
          "durationTicks": 60,
          "midi": 63,
          "name": "D#4",
          "ticks": 94080,
          "time": 294.6177627999999,
          "velocity": 0.3937007874015748
        },
        {
          "duration": 0.1875,
          "durationTicks": 60,
          "midi": 66,
          "name": "F#4",
          "ticks": 94140,
          "time": 294.8052627999999,
          "velocity": 0.3937007874015748
        },
        {
          "duration": 0.1875,
          "durationTicks": 60,
          "midi": 67,
          "name": "G4",
          "ticks": 94200,
          "time": 294.9927627999999,
          "velocity": 0.3937007874015748
        },
        {
          "duration": 0.1875,
          "durationTicks": 60,
          "midi": 62,
          "name": "D4",
          "ticks": 94260,
          "time": 295.1802627999999,
          "velocity": 0.3937007874015748
        },
        {
          "duration": 0.1875,
          "durationTicks": 60,
          "midi": 65,
          "name": "F4",
          "ticks": 94320,
          "time": 295.3677627999999,
          "velocity": 0.3937007874015748
        },
        {
          "duration": 0.1875,
          "durationTicks": 60,
          "midi": 63,
          "name": "D#4",
          "ticks": 94380,
          "time": 295.5552627999999,
          "velocity": 0.3937007874015748
        },
        {
          "duration": 0.1875,
          "durationTicks": 60,
          "midi": 62,
          "name": "D4",
          "ticks": 94440,
          "time": 295.7427627999999,
          "velocity": 0.3937007874015748
        },
        {
          "duration": 0.1875,
          "durationTicks": 60,
          "midi": 60,
          "name": "C4",
          "ticks": 94500,
          "time": 295.9302627999999,
          "velocity": 0.3937007874015748
        },
        {
          "duration": 0.1875,
          "durationTicks": 60,
          "midi": 58,
          "name": "A#3",
          "ticks": 94560,
          "time": 296.1177627999999,
          "velocity": 0.3937007874015748
        },
        {
          "duration": 0.1875,
          "durationTicks": 60,
          "midi": 57,
          "name": "A3",
          "ticks": 94620,
          "time": 296.3052627999999,
          "velocity": 0.3937007874015748
        },
        {
          "duration": 0.1875,
          "durationTicks": 60,
          "midi": 60,
          "name": "C4",
          "ticks": 94680,
          "time": 296.4927627999999,
          "velocity": 0.3937007874015748
        },
        {
          "duration": 0.1875,
          "durationTicks": 60,
          "midi": 58,
          "name": "A#3",
          "ticks": 94740,
          "time": 296.6802627999999,
          "velocity": 0.3937007874015748
        },
        {
          "duration": 0.1875,
          "durationTicks": 60,
          "midi": 57,
          "name": "A3",
          "ticks": 94800,
          "time": 296.8677627999999,
          "velocity": 0.3937007874015748
        },
        {
          "duration": 0.1875,
          "durationTicks": 60,
          "midi": 55,
          "name": "G3",
          "ticks": 94860,
          "time": 297.0552627999999,
          "velocity": 0.3937007874015748
        },
        {
          "duration": 0.1875,
          "durationTicks": 60,
          "midi": 53,
          "name": "F3",
          "ticks": 94920,
          "time": 297.2427627999999,
          "velocity": 0.3937007874015748
        },
        {
          "duration": 0.1875,
          "durationTicks": 60,
          "midi": 51,
          "name": "D#3",
          "ticks": 94980,
          "time": 297.4302627999999,
          "velocity": 0.3937007874015748
        },
        {
          "duration": 0.75,
          "durationTicks": 240,
          "midi": 50,
          "name": "D3",
          "ticks": 95040,
          "time": 297.6177627999999,
          "velocity": 0.4409448818897638
        },
        {
          "duration": 0.75,
          "durationTicks": 240,
          "midi": 60,
          "name": "C4",
          "ticks": 96000,
          "time": 300.6177627999999,
          "velocity": 0.4409448818897638
        },
        {
          "duration": 0.75,
          "durationTicks": 240,
          "midi": 58,
          "name": "A#3",
          "ticks": 96960,
          "time": 303.6177627999999,
          "velocity": 0.4409448818897638
        },
        {
          "duration": 0.75,
          "durationTicks": 240,
          "midi": 46,
          "name": "A#2",
          "ticks": 97920,
          "time": 306.6177627999999,
          "velocity": 0.4409448818897638
        },
        {
          "duration": 0.75,
          "durationTicks": 240,
          "midi": 57,
          "name": "A3",
          "ticks": 98880,
          "time": 309.6177627999999,
          "velocity": 0.4409448818897638
        },
        {
          "duration": 0.75,
          "durationTicks": 240,
          "midi": 50,
          "name": "D3",
          "ticks": 99840,
          "time": 312.6177627999999,
          "velocity": 0.3937007874015748
        },
        {
          "duration": 0.1875,
          "durationTicks": 60,
          "midi": 48,
          "name": "C3",
          "ticks": 100860,
          "time": 315.8052627999999,
          "velocity": 0.5039370078740157
        },
        {
          "duration": 0.1875,
          "durationTicks": 60,
          "midi": 50,
          "name": "D3",
          "ticks": 100920,
          "time": 315.9927627999999,
          "velocity": 0.5039370078740157
        },
        {
          "duration": 0.1875,
          "durationTicks": 60,
          "midi": 52,
          "name": "E3",
          "ticks": 100980,
          "time": 316.1802627999999,
          "velocity": 0.5039370078740157
        },
        {
          "duration": 0.1875,
          "durationTicks": 60,
          "midi": 53,
          "name": "F3",
          "ticks": 101040,
          "time": 316.3677627999999,
          "velocity": 0.5039370078740157
        },
        {
          "duration": 0.1875,
          "durationTicks": 60,
          "midi": 55,
          "name": "G3",
          "ticks": 101100,
          "time": 316.5552627999999,
          "velocity": 0.5039370078740157
        },
        {
          "duration": 0.1875,
          "durationTicks": 60,
          "midi": 57,
          "name": "A3",
          "ticks": 101160,
          "time": 316.7427627999999,
          "velocity": 0.5039370078740157
        },
        {
          "duration": 0.1875,
          "durationTicks": 60,
          "midi": 59,
          "name": "B3",
          "ticks": 101220,
          "time": 316.9302627999999,
          "velocity": 0.5039370078740157
        },
        {
          "duration": 0.1875,
          "durationTicks": 60,
          "midi": 60,
          "name": "C4",
          "ticks": 101280,
          "time": 317.1177627999999,
          "velocity": 0.5039370078740157
        },
        {
          "duration": 0.1875,
          "durationTicks": 60,
          "midi": 64,
          "name": "E4",
          "ticks": 101340,
          "time": 317.3052627999999,
          "velocity": 0.5039370078740157
        },
        {
          "duration": 0.1875,
          "durationTicks": 60,
          "midi": 62,
          "name": "D4",
          "ticks": 101400,
          "time": 317.4927627999999,
          "velocity": 0.5039370078740157
        },
        {
          "duration": 0.1875,
          "durationTicks": 60,
          "midi": 60,
          "name": "C4",
          "ticks": 101460,
          "time": 317.6802627999999,
          "velocity": 0.5039370078740157
        },
        {
          "duration": 0.1875,
          "durationTicks": 60,
          "midi": 59,
          "name": "B3",
          "ticks": 101520,
          "time": 317.8677627999999,
          "velocity": 0.5039370078740157
        },
        {
          "duration": 0.1875,
          "durationTicks": 60,
          "midi": 57,
          "name": "A3",
          "ticks": 101580,
          "time": 318.0552627999999,
          "velocity": 0.5039370078740157
        },
        {
          "duration": 0.1875,
          "durationTicks": 60,
          "midi": 55,
          "name": "G3",
          "ticks": 101640,
          "time": 318.2427627999999,
          "velocity": 0.5039370078740157
        },
        {
          "duration": 0.1875,
          "durationTicks": 60,
          "midi": 54,
          "name": "F#3",
          "ticks": 101700,
          "time": 318.4302627999999,
          "velocity": 0.5039370078740157
        },
        {
          "duration": 0.1875,
          "durationTicks": 60,
          "midi": 55,
          "name": "G3",
          "ticks": 101760,
          "time": 318.6177627999999,
          "velocity": 0.5039370078740157
        },
        {
          "duration": 0.1875,
          "durationTicks": 60,
          "midi": 57,
          "name": "A3",
          "ticks": 101820,
          "time": 318.8052627999999,
          "velocity": 0.5039370078740157
        },
        {
          "duration": 0.1875,
          "durationTicks": 60,
          "midi": 55,
          "name": "G3",
          "ticks": 101880,
          "time": 318.9927627999999,
          "velocity": 0.5039370078740157
        },
        {
          "duration": 0.1875,
          "durationTicks": 60,
          "midi": 53,
          "name": "F3",
          "ticks": 101940,
          "time": 319.1802627999999,
          "velocity": 0.5039370078740157
        },
        {
          "duration": 0.1875,
          "durationTicks": 60,
          "midi": 52,
          "name": "E3",
          "ticks": 102000,
          "time": 319.3677627999999,
          "velocity": 0.5039370078740157
        },
        {
          "duration": 0.1875,
          "durationTicks": 60,
          "midi": 50,
          "name": "D3",
          "ticks": 102060,
          "time": 319.5552627999999,
          "velocity": 0.5039370078740157
        },
        {
          "duration": 0.1875,
          "durationTicks": 60,
          "midi": 48,
          "name": "C3",
          "ticks": 102120,
          "time": 319.7427627999999,
          "velocity": 0.5039370078740157
        },
        {
          "duration": 0.1875,
          "durationTicks": 60,
          "midi": 47,
          "name": "B2",
          "ticks": 102180,
          "time": 319.9302627999999,
          "velocity": 0.5039370078740157
        },
        {
          "duration": 0.375,
          "durationTicks": 120,
          "midi": 48,
          "name": "C3",
          "ticks": 102240,
          "time": 320.1177627999999,
          "velocity": 0.5039370078740157
        },
        {
          "duration": 0.1875,
          "durationTicks": 60,
          "midi": 50,
          "name": "D3",
          "ticks": 102360,
          "time": 320.4927627999999,
          "velocity": 0.5039370078740157
        },
        {
          "duration": 0.1875,
          "durationTicks": 60,
          "midi": 52,
          "name": "E3",
          "ticks": 102420,
          "time": 320.6802627999999,
          "velocity": 0.5039370078740157
        },
        {
          "duration": 0.1875,
          "durationTicks": 60,
          "midi": 53,
          "name": "F3",
          "ticks": 102480,
          "time": 320.8677627999999,
          "velocity": 0.5039370078740157
        },
        {
          "duration": 0.1875,
          "durationTicks": 60,
          "midi": 55,
          "name": "G3",
          "ticks": 102540,
          "time": 321.0552627999999,
          "velocity": 0.5039370078740157
        },
        {
          "duration": 0.1875,
          "durationTicks": 60,
          "midi": 57,
          "name": "A3",
          "ticks": 102600,
          "time": 321.2427627999999,
          "velocity": 0.5039370078740157
        },
        {
          "duration": 0.1875,
          "durationTicks": 60,
          "midi": 59,
          "name": "B3",
          "ticks": 102660,
          "time": 321.4302627999999,
          "velocity": 0.5039370078740157
        },
        {
          "duration": 0.1875,
          "durationTicks": 60,
          "midi": 60,
          "name": "C4",
          "ticks": 102720,
          "time": 321.6177627999999,
          "velocity": 0.5039370078740157
        },
        {
          "duration": 0.1875,
          "durationTicks": 60,
          "midi": 64,
          "name": "E4",
          "ticks": 102780,
          "time": 321.8052627999999,
          "velocity": 0.5039370078740157
        },
        {
          "duration": 0.1875,
          "durationTicks": 60,
          "midi": 62,
          "name": "D4",
          "ticks": 102840,
          "time": 321.9927627999999,
          "velocity": 0.5039370078740157
        },
        {
          "duration": 0.1875,
          "durationTicks": 60,
          "midi": 60,
          "name": "C4",
          "ticks": 102900,
          "time": 322.1802627999999,
          "velocity": 0.5039370078740157
        },
        {
          "duration": 0.1875,
          "durationTicks": 60,
          "midi": 59,
          "name": "B3",
          "ticks": 102960,
          "time": 322.3677627999999,
          "velocity": 0.5039370078740157
        },
        {
          "duration": 0.1875,
          "durationTicks": 60,
          "midi": 57,
          "name": "A3",
          "ticks": 103020,
          "time": 322.5552627999999,
          "velocity": 0.5039370078740157
        },
        {
          "duration": 0.1875,
          "durationTicks": 60,
          "midi": 55,
          "name": "G3",
          "ticks": 103080,
          "time": 322.7427627999999,
          "velocity": 0.5039370078740157
        },
        {
          "duration": 0.1875,
          "durationTicks": 60,
          "midi": 54,
          "name": "F#3",
          "ticks": 103140,
          "time": 322.9302627999999,
          "velocity": 0.5039370078740157
        },
        {
          "duration": 0.1875,
          "durationTicks": 60,
          "midi": 55,
          "name": "G3",
          "ticks": 103200,
          "time": 323.1177627999999,
          "velocity": 0.5039370078740157
        },
        {
          "duration": 0.1875,
          "durationTicks": 60,
          "midi": 57,
          "name": "A3",
          "ticks": 103260,
          "time": 323.3052627999999,
          "velocity": 0.5039370078740157
        },
        {
          "duration": 0.1875,
          "durationTicks": 60,
          "midi": 55,
          "name": "G3",
          "ticks": 103320,
          "time": 323.4927627999999,
          "velocity": 0.5039370078740157
        },
        {
          "duration": 0.1875,
          "durationTicks": 60,
          "midi": 53,
          "name": "F3",
          "ticks": 103380,
          "time": 323.6802627999999,
          "velocity": 0.5039370078740157
        },
        {
          "duration": 0.1875,
          "durationTicks": 60,
          "midi": 52,
          "name": "E3",
          "ticks": 103440,
          "time": 323.8677627999999,
          "velocity": 0.5039370078740157
        },
        {
          "duration": 0.1875,
          "durationTicks": 60,
          "midi": 50,
          "name": "D3",
          "ticks": 103500,
          "time": 324.0552627999999,
          "velocity": 0.5039370078740157
        },
        {
          "duration": 0.1875,
          "durationTicks": 60,
          "midi": 48,
          "name": "C3",
          "ticks": 103560,
          "time": 324.2427627999999,
          "velocity": 0.5039370078740157
        },
        {
          "duration": 0.1875,
          "durationTicks": 60,
          "midi": 47,
          "name": "B2",
          "ticks": 103620,
          "time": 324.4302627999999,
          "velocity": 0.5039370078740157
        },
        {
          "duration": 0.75,
          "durationTicks": 240,
          "midi": 48,
          "name": "C3",
          "ticks": 103680,
          "time": 324.6177627999999,
          "velocity": 0.4881889763779528
        },
        {
          "duration": 0.75,
          "durationTicks": 240,
          "midi": 60,
          "name": "C4",
          "ticks": 103920,
          "time": 325.3677627999999,
          "velocity": 0.3779527559055118
        },
        {
          "duration": 0.75,
          "durationTicks": 240,
          "midi": 60,
          "name": "C4",
          "ticks": 104160,
          "time": 326.1177627999999,
          "velocity": 0.3779527559055118
        },
        {
          "duration": 0.75,
          "durationTicks": 240,
          "midi": 60,
          "name": "C4",
          "ticks": 104400,
          "time": 326.8677627999999,
          "velocity": 0.3779527559055118
        },
        {
          "duration": 0.75,
          "durationTicks": 240,
          "midi": 60,
          "name": "C4",
          "ticks": 104640,
          "time": 327.6177627999999,
          "velocity": 0.3779527559055118
        },
        {
          "duration": 0.75,
          "durationTicks": 240,
          "midi": 60,
          "name": "C4",
          "ticks": 104880,
          "time": 328.3677627999999,
          "velocity": 0.3779527559055118
        },
        {
          "duration": 0.75,
          "durationTicks": 240,
          "midi": 48,
          "name": "C3",
          "ticks": 105120,
          "time": 329.1177627999999,
          "velocity": 0.4881889763779528
        },
        {
          "duration": 0.75,
          "durationTicks": 240,
          "midi": 60,
          "name": "C4",
          "ticks": 105360,
          "time": 329.8677627999999,
          "velocity": 0.3779527559055118
        },
        {
          "duration": 0.75,
          "durationTicks": 240,
          "midi": 60,
          "name": "C4",
          "ticks": 105600,
          "time": 330.6177627999999,
          "velocity": 0.3779527559055118
        },
        {
          "duration": 0.75,
          "durationTicks": 240,
          "midi": 60,
          "name": "C4",
          "ticks": 105840,
          "time": 331.3677627999999,
          "velocity": 0.3779527559055118
        },
        {
          "duration": 0.75,
          "durationTicks": 240,
          "midi": 60,
          "name": "C4",
          "ticks": 106080,
          "time": 332.1177627999999,
          "velocity": 0.3779527559055118
        },
        {
          "duration": 0.75,
          "durationTicks": 240,
          "midi": 60,
          "name": "C4",
          "ticks": 106320,
          "time": 332.8677627999999,
          "velocity": 0.3779527559055118
        },
        {
          "duration": 0.75,
          "durationTicks": 240,
          "midi": 60,
          "name": "C4",
          "ticks": 106560,
          "time": 333.6177627999999,
          "velocity": 0.3779527559055118
        },
        {
          "duration": 0.75,
          "durationTicks": 240,
          "midi": 48,
          "name": "C3",
          "ticks": 107040,
          "time": 335.1177627999999,
          "velocity": 0.3779527559055118
        },
        {
          "duration": 1.5,
          "durationTicks": 480,
          "midi": 57,
          "name": "A3",
          "ticks": 108000,
          "time": 338.2763333666666,
          "velocity": 0.2992125984251969
        },
        {
          "duration": 1.5,
          "durationTicks": 480,
          "midi": 55,
          "name": "G3",
          "ticks": 108480,
          "time": 339.7763333666666,
          "velocity": 0.2992125984251969
        },
        {
          "duration": 1.5,
          "durationTicks": 480,
          "midi": 53,
          "name": "F3",
          "ticks": 108960,
          "time": 341.2763333666666,
          "velocity": 0.2992125984251969
        },
        {
          "duration": 1.5,
          "durationTicks": 480,
          "midi": 52,
          "name": "E3",
          "ticks": 109440,
          "time": 342.7763333666666,
          "velocity": 0.2992125984251969
        },
        {
          "duration": 1.5,
          "durationTicks": 480,
          "midi": 58,
          "name": "A#3",
          "ticks": 110880,
          "time": 347.2763333666666,
          "velocity": 0.2992125984251969
        },
        {
          "duration": 1.5,
          "durationTicks": 480,
          "midi": 57,
          "name": "A3",
          "ticks": 111360,
          "time": 348.7763333666666,
          "velocity": 0.2992125984251969
        },
        {
          "duration": 1.5,
          "durationTicks": 480,
          "midi": 55,
          "name": "G3",
          "ticks": 111840,
          "time": 350.2763333666666,
          "velocity": 0.2992125984251969
        },
        {
          "duration": 1.5,
          "durationTicks": 480,
          "midi": 53,
          "name": "F3",
          "ticks": 112320,
          "time": 351.7763333666666,
          "velocity": 0.2992125984251969
        },
        {
          "duration": 0.75,
          "durationTicks": 240,
          "midi": 50,
          "name": "D3",
          "ticks": 113760,
          "time": 356.2763333666666,
          "velocity": 0.3779527559055118
        },
        {
          "duration": 0.75,
          "durationTicks": 240,
          "midi": 55,
          "name": "G3",
          "ticks": 114240,
          "time": 357.7763333666666,
          "velocity": 0.3779527559055118
        },
        {
          "duration": 0.75,
          "durationTicks": 240,
          "midi": 48,
          "name": "C3",
          "ticks": 114720,
          "time": 359.2763333666666,
          "velocity": 0.3779527559055118
        },
        {
          "duration": 0.75,
          "durationTicks": 240,
          "midi": 53,
          "name": "F3",
          "ticks": 115200,
          "time": 360.7763333666666,
          "velocity": 0.3779527559055118
        },
        {
          "duration": 1.5,
          "durationTicks": 480,
          "midi": 46,
          "name": "A#2",
          "ticks": 115680,
          "time": 362.2763333666666,
          "velocity": 0.3779527559055118
        },
        {
          "duration": 0.75,
          "durationTicks": 240,
          "midi": 48,
          "name": "C3",
          "ticks": 116160,
          "time": 363.7763333666666,
          "velocity": 0.3779527559055118
        },
        {
          "duration": 0.75,
          "durationTicks": 240,
          "midi": 50,
          "name": "D3",
          "ticks": 116400,
          "time": 364.5263333666666,
          "velocity": 0.3779527559055118
        },
        {
          "duration": 0.75,
          "durationTicks": 240,
          "midi": 46,
          "name": "A#2",
          "ticks": 116640,
          "time": 365.2763333666666,
          "velocity": 0.3779527559055118
        },
        {
          "duration": 0.75,
          "durationTicks": 240,
          "midi": 48,
          "name": "C3",
          "ticks": 117120,
          "time": 366.7763333666666,
          "velocity": 0.3779527559055118
        },
        {
          "duration": 0.75,
          "durationTicks": 240,
          "midi": 60,
          "name": "C4",
          "ticks": 117600,
          "time": 368.2763333666666,
          "velocity": 0.3779527559055118
        },
        {
          "duration": 0.75,
          "durationTicks": 240,
          "midi": 62,
          "name": "D4",
          "ticks": 118080,
          "time": 369.7763333666666,
          "velocity": 0.3779527559055118
        },
        {
          "duration": 0.75,
          "durationTicks": 240,
          "midi": 55,
          "name": "G3",
          "ticks": 118560,
          "time": 371.2763333666666,
          "velocity": 0.3779527559055118
        },
        {
          "duration": 0.75,
          "durationTicks": 240,
          "midi": 60,
          "name": "C4",
          "ticks": 119040,
          "time": 372.7763333666666,
          "velocity": 0.3779527559055118
        },
        {
          "duration": 0.75,
          "durationTicks": 240,
          "midi": 53,
          "name": "F3",
          "ticks": 119520,
          "time": 374.2763333666666,
          "velocity": 0.3779527559055118
        },
        {
          "duration": 1.5,
          "durationTicks": 480,
          "midi": 58,
          "name": "A#3",
          "ticks": 120000,
          "time": 375.7763333666666,
          "velocity": 0.3779527559055118
        },
        {
          "duration": 0.75,
          "durationTicks": 240,
          "midi": 60,
          "name": "C4",
          "ticks": 120480,
          "time": 377.2763333666666,
          "velocity": 0.3779527559055118
        },
        {
          "duration": 0.75,
          "durationTicks": 240,
          "midi": 62,
          "name": "D4",
          "ticks": 120720,
          "time": 378.0263333666666,
          "velocity": 0.3779527559055118
        },
        {
          "duration": 1.5,
          "durationTicks": 480,
          "midi": 55,
          "name": "G3",
          "ticks": 120960,
          "time": 378.7763333666666,
          "velocity": 0.3779527559055118
        },
        {
          "duration": 0.75,
          "durationTicks": 240,
          "midi": 57,
          "name": "A3",
          "ticks": 121440,
          "time": 380.2763333666666,
          "velocity": 0.3937007874015748
        },
        {
          "duration": 0.75,
          "durationTicks": 240,
          "midi": 58,
          "name": "A#3",
          "ticks": 121680,
          "time": 381.0263333666666,
          "velocity": 0.4015748031496063
        },
        {
          "duration": 1.5,
          "durationTicks": 480,
          "midi": 51,
          "name": "D#3",
          "ticks": 121920,
          "time": 381.7763333666666,
          "velocity": 0.4094488188976378
        },
        {
          "duration": 0.7125000000000341,
          "durationTicks": 228,
          "midi": 50,
          "name": "D3",
          "ticks": 122400,
          "time": 383.2763333666666,
          "velocity": 0.4330708661417323
        },
        {
          "duration": 0.75,
          "durationTicks": 240,
          "midi": 55,
          "name": "G3",
          "ticks": 122640,
          "time": 384.0263333666666,
          "velocity": 0.4409448818897638
        },
        {
          "duration": 0.7125000000000341,
          "durationTicks": 228,
          "midi": 57,
          "name": "A3",
          "ticks": 122880,
          "time": 384.7763333666666,
          "velocity": 0.44881889763779526
        },
        {
          "duration": 0.7125000000000341,
          "durationTicks": 228,
          "midi": 58,
          "name": "A#3",
          "ticks": 123120,
          "time": 385.5263333666666,
          "velocity": 0.4645669291338583
        },
        {
          "duration": 0.7125000000000341,
          "durationTicks": 228,
          "midi": 60,
          "name": "C4",
          "ticks": 123360,
          "time": 386.2763333666666,
          "velocity": 0.47244094488188976
        },
        {
          "duration": 0.7125000000000341,
          "durationTicks": 228,
          "midi": 48,
          "name": "C3",
          "ticks": 123600,
          "time": 387.0263333666666,
          "velocity": 0.48031496062992124
        },
        {
          "duration": 0.75,
          "durationTicks": 240,
          "midi": 53,
          "name": "F3",
          "ticks": 123840,
          "time": 387.7763333666666,
          "velocity": 0.3779527559055118
        },
        {
          "duration": 1.5,
          "durationTicks": 480,
          "midi": 60,
          "name": "C4",
          "ticks": 126240,
          "time": 395.2763333666666,
          "velocity": 0.3464566929133858
        },
        {
          "duration": 0.75,
          "durationTicks": 240,
          "midi": 65,
          "name": "F4",
          "ticks": 126720,
          "time": 396.7763333666666,
          "velocity": 0.3464566929133858
        },
        {
          "duration": 1.5,
          "durationTicks": 480,
          "midi": 48,
          "name": "C3",
          "ticks": 129120,
          "time": 404.2763333666667,
          "velocity": 0.3464566929133858
        },
        {
          "duration": 0.75,
          "durationTicks": 240,
          "midi": 53,
          "name": "F3",
          "ticks": 129600,
          "time": 405.7763333666667,
          "velocity": 0.3464566929133858
        },
        {
          "duration": 0.75,
          "durationTicks": 240,
          "midi": 41,
          "name": "F2",
          "ticks": 130080,
          "time": 407.2763333666667,
          "velocity": 0.4645669291338583
        },
        {
          "duration": 1.4634149999999977,
          "durationTicks": 480,
          "midi": 53,
          "name": "F3",
          "ticks": 132000,
          "time": 413.4924417333333,
          "velocity": 0.3779527559055118
        },
        {
          "duration": 0.7317075000000273,
          "durationTicks": 240,
          "midi": 55,
          "name": "G3",
          "ticks": 132480,
          "time": 414.9558567333333,
          "velocity": 0.3779527559055118
        },
        {
          "duration": 0.4878050000000371,
          "durationTicks": 160,
          "midi": 43,
          "name": "G2",
          "ticks": 132960,
          "time": 416.4192717333333,
          "velocity": 0.4409448818897638
        },
        {
          "duration": 0.18292687499996418,
          "durationTicks": 60,
          "midi": 55,
          "name": "G3",
          "ticks": 133860,
          "time": 419.1631748583333,
          "velocity": 0.4330708661417323
        },
        {
          "duration": 0.7317075000000273,
          "durationTicks": 240,
          "midi": 57,
          "name": "A3",
          "ticks": 133920,
          "time": 419.3461017333333,
          "velocity": 0.4330708661417323
        },
        {
          "duration": 0.4878050000000371,
          "durationTicks": 160,
          "midi": 45,
          "name": "A2",
          "ticks": 134400,
          "time": 420.8095167333333,
          "velocity": 0.4409448818897638
        },
        {
          "duration": 0.7073172500000169,
          "durationTicks": 232,
          "midi": 46,
          "name": "A#2",
          "ticks": 135360,
          "time": 423.7363467333333,
          "velocity": 0.4015748031496063
        },
        {
          "duration": 0.7073172500000169,
          "durationTicks": 232,
          "midi": 46,
          "name": "A#2",
          "ticks": 135600,
          "time": 424.4680542333333,
          "velocity": 0.4015748031496063
        },
        {
          "duration": 0.7073172500000169,
          "durationTicks": 232,
          "midi": 46,
          "name": "A#2",
          "ticks": 135840,
          "time": 425.1997617333333,
          "velocity": 0.4015748031496063
        },
        {
          "duration": 0.7073172500000169,
          "durationTicks": 232,
          "midi": 46,
          "name": "A#2",
          "ticks": 136080,
          "time": 425.9314692333333,
          "velocity": 0.4015748031496063
        },
        {
          "duration": 0.7073172500000169,
          "durationTicks": 232,
          "midi": 46,
          "name": "A#2",
          "ticks": 136320,
          "time": 426.6631767333333,
          "velocity": 0.4015748031496063
        },
        {
          "duration": 0.7073172500000169,
          "durationTicks": 232,
          "midi": 46,
          "name": "A#2",
          "ticks": 136560,
          "time": 427.3948842333333,
          "velocity": 0.4015748031496063
        },
        {
          "duration": 0.7073172500000169,
          "durationTicks": 232,
          "midi": 48,
          "name": "C3",
          "ticks": 136800,
          "time": 428.12659173333327,
          "velocity": 0.4015748031496063
        },
        {
          "duration": 0.7073172500000169,
          "durationTicks": 232,
          "midi": 48,
          "name": "C3",
          "ticks": 137040,
          "time": 428.8582992333333,
          "velocity": 0.4015748031496063
        },
        {
          "duration": 0.70731724999996,
          "durationTicks": 232,
          "midi": 48,
          "name": "C3",
          "ticks": 137280,
          "time": 429.5900067333333,
          "velocity": 0.4015748031496063
        },
        {
          "duration": 0.7073172500000169,
          "durationTicks": 232,
          "midi": 48,
          "name": "C3",
          "ticks": 137520,
          "time": 430.3217142333333,
          "velocity": 0.4015748031496063
        },
        {
          "duration": 0.70731724999996,
          "durationTicks": 232,
          "midi": 48,
          "name": "C3",
          "ticks": 137760,
          "time": 431.0534217333333,
          "velocity": 0.4015748031496063
        },
        {
          "duration": 0.7073172500000169,
          "durationTicks": 232,
          "midi": 48,
          "name": "C3",
          "ticks": 138000,
          "time": 431.7851292333333,
          "velocity": 0.4015748031496063
        },
        {
          "duration": 0.7250000000000227,
          "durationTicks": 232,
          "midi": 49,
          "name": "C#3",
          "ticks": 138240,
          "time": 432.51683673333326,
          "velocity": 0.33858267716535434
        },
        {
          "duration": 0.7250000000000227,
          "durationTicks": 232,
          "midi": 49,
          "name": "C#3",
          "ticks": 138480,
          "time": 433.26683673333326,
          "velocity": 0.33858267716535434
        },
        {
          "duration": 0.7250000000000227,
          "durationTicks": 232,
          "midi": 50,
          "name": "D3",
          "ticks": 138720,
          "time": 434.01683673333326,
          "velocity": 0.33858267716535434
        },
        {
          "duration": 0.7250000000000227,
          "durationTicks": 232,
          "midi": 50,
          "name": "D3",
          "ticks": 138960,
          "time": 434.76683673333326,
          "velocity": 0.33858267716535434
        },
        {
          "duration": 0.7250000000000227,
          "durationTicks": 232,
          "midi": 46,
          "name": "A#2",
          "ticks": 139200,
          "time": 435.51683673333326,
          "velocity": 0.33858267716535434
        },
        {
          "duration": 0.7250000000000227,
          "durationTicks": 232,
          "midi": 46,
          "name": "A#2",
          "ticks": 139440,
          "time": 436.26683673333326,
          "velocity": 0.33858267716535434
        },
        {
          "duration": 0.7250000000000227,
          "durationTicks": 232,
          "midi": 48,
          "name": "C3",
          "ticks": 139680,
          "time": 437.01683673333326,
          "velocity": 0.33858267716535434
        },
        {
          "duration": 0.7250000000000227,
          "durationTicks": 232,
          "midi": 48,
          "name": "C3",
          "ticks": 139920,
          "time": 437.76683673333326,
          "velocity": 0.3228346456692913
        },
        {
          "duration": 0.7250000000000227,
          "durationTicks": 232,
          "midi": 48,
          "name": "C3",
          "ticks": 140160,
          "time": 438.51683673333326,
          "velocity": 0.31496062992125984
        },
        {
          "duration": 0.7365386000000171,
          "durationTicks": 232,
          "midi": 48,
          "name": "C3",
          "ticks": 140400,
          "time": 439.26683673333326,
          "velocity": 0.30708661417322836
        },
        {
          "duration": 0.7657659666666063,
          "durationTicks": 232,
          "midi": 48,
          "name": "C3",
          "ticks": 140640,
          "time": 440.0290163666666,
          "velocity": 0.2992125984251969
        },
        {
          "duration": 0.8003004666667266,
          "durationTicks": 232,
          "midi": 48,
          "name": "C3",
          "ticks": 140880,
          "time": 440.82180936666657,
          "velocity": 0.29133858267716534
        },
        {
          "duration": 0.75,
          "durationTicks": 240,
          "midi": 41,
          "name": "F2",
          "ticks": 141120,
          "time": 441.6498876166666,
          "velocity": 0.2125984251968504
        },
        {
          "duration": 1.5865221333332897,
          "durationTicks": 480,
          "midi": 48,
          "name": "C3",
          "ticks": 142080,
          "time": 444.6498876166666,
          "velocity": 0.2992125984251969
        },
        {
          "duration": 0.75,
          "durationTicks": 240,
          "midi": 53,
          "name": "F3",
          "ticks": 142560,
          "time": 446.2364097499999,
          "velocity": 0.2992125984251969
        },
        {
          "duration": 1.6691730000000007,
          "durationTicks": 480,
          "midi": 48,
          "name": "C3",
          "ticks": 143520,
          "time": 449.2495675833332,
          "velocity": 0.3700787401574803
        },
        {
          "duration": 3.122321266666688,
          "durationTicks": 720,
          "midi": 41,
          "name": "F2",
          "ticks": 144000,
          "time": 450.9187405833332,
          "velocity": 0.3543307086614173
        }
      ]
    },
    {
      "channel": 0,
      "controlChanges": {},
      "pitchBends": [],
      "instrument": {
        "family": "piano",
        "number": 0,
        "name": "acoustic grand piano"
      },
      "name": "Contrabassi",
      "notes": [],
      "endOfTrackTicks": 145440
    },
    {
      "channel": 8,
      "controlChanges": {
        "7": [
          {
            "number": 7,
            "ticks": 0,
            "time": 0,
            "value": 0.8267716535433071
          }
        ],
        "10": [
          {
            "number": 10,
            "ticks": 0,
            "time": 0,
            "value": 0.9448818897637795
          }
        ]
      },
      "pitchBends": [],
      "instrument": {
        "family": "ensemble",
        "number": 48,
        "name": "string ensemble 1"
      },
      "name": "",
      "notes": [
        {
          "duration": 1.5,
          "durationTicks": 480,
          "midi": 41,
          "name": "F2",
          "ticks": 960,
          "time": 3,
          "velocity": 0.4251968503937008
        },
        {
          "duration": 0.75,
          "durationTicks": 240,
          "midi": 43,
          "name": "G2",
          "ticks": 1440,
          "time": 4.5,
          "velocity": 0.41732283464566927
        },
        {
          "duration": 0.5,
          "durationTicks": 160,
          "midi": 36,
          "name": "C2",
          "ticks": 1920,
          "time": 6,
          "velocity": 0.4645669291338583
        },
        {
          "duration": 1.5,
          "durationTicks": 480,
          "midi": 46,
          "name": "A#2",
          "ticks": 3840,
          "time": 12,
          "velocity": 0.41732283464566927
        },
        {
          "duration": 0.75,
          "durationTicks": 240,
          "midi": 45,
          "name": "A2",
          "ticks": 4320,
          "time": 13.5,
          "velocity": 0.41732283464566927
        },
        {
          "duration": 0.5,
          "durationTicks": 160,
          "midi": 33,
          "name": "A1",
          "ticks": 4800,
          "time": 15,
          "velocity": 0.4645669291338583
        },
        {
          "duration": 1.5,
          "durationTicks": 480,
          "midi": 37,
          "name": "C#2",
          "ticks": 7680,
          "time": 24,
          "velocity": 0.3858267716535433
        },
        {
          "duration": 1.5,
          "durationTicks": 480,
          "midi": 38,
          "name": "D2",
          "ticks": 8160,
          "time": 25.5,
          "velocity": 0.4015748031496063
        },
        {
          "duration": 0.6749999999999972,
          "durationTicks": 216,
          "midi": 34,
          "name": "A#1",
          "ticks": 8640,
          "time": 27,
          "velocity": 0.5118110236220472
        },
        {
          "duration": 0.6749999999999972,
          "durationTicks": 216,
          "midi": 34,
          "name": "A#1",
          "ticks": 8880,
          "time": 27.75,
          "velocity": 0.5118110236220472
        },
        {
          "duration": 0.6749999999999972,
          "durationTicks": 216,
          "midi": 34,
          "name": "A#1",
          "ticks": 9120,
          "time": 28.5,
          "velocity": 0.5118110236220472
        },
        {
          "duration": 0.6749999999999972,
          "durationTicks": 216,
          "midi": 34,
          "name": "A#1",
          "ticks": 9360,
          "time": 29.25,
          "velocity": 0.5039370078740157
        },
        {
          "duration": 0.6749999999999972,
          "durationTicks": 216,
          "midi": 34,
          "name": "A#1",
          "ticks": 9600,
          "time": 30,
          "velocity": 0.5039370078740157
        },
        {
          "duration": 0.6749999999999972,
          "durationTicks": 216,
          "midi": 34,
          "name": "A#1",
          "ticks": 9840,
          "time": 30.75,
          "velocity": 0.49606299212598426
        },
        {
          "duration": 0.6749999999999972,
          "durationTicks": 216,
          "midi": 36,
          "name": "C2",
          "ticks": 10080,
          "time": 31.5,
          "velocity": 0.49606299212598426
        },
        {
          "duration": 0.6749999999999972,
          "durationTicks": 216,
          "midi": 36,
          "name": "C2",
          "ticks": 10320,
          "time": 32.25,
          "velocity": 0.49606299212598426
        },
        {
          "duration": 0.6749999999999972,
          "durationTicks": 216,
          "midi": 36,
          "name": "C2",
          "ticks": 10560,
          "time": 33,
          "velocity": 0.49606299212598426
        },
        {
          "duration": 0.6749999999999972,
          "durationTicks": 216,
          "midi": 36,
          "name": "C2",
          "ticks": 10800,
          "time": 33.75,
          "velocity": 0.49606299212598426
        },
        {
          "duration": 0.6749999999999972,
          "durationTicks": 216,
          "midi": 36,
          "name": "C2",
          "ticks": 11040,
          "time": 34.5,
          "velocity": 0.4881889763779528
        },
        {
          "duration": 0.6749999999999972,
          "durationTicks": 216,
          "midi": 36,
          "name": "C2",
          "ticks": 11280,
          "time": 35.25,
          "velocity": 0.4881889763779528
        },
        {
          "duration": 0.6749999999999972,
          "durationTicks": 216,
          "midi": 37,
          "name": "C#2",
          "ticks": 11520,
          "time": 36,
          "velocity": 0.4409448818897638
        },
        {
          "duration": 0.6749999999999972,
          "durationTicks": 216,
          "midi": 37,
          "name": "C#2",
          "ticks": 11760,
          "time": 36.75,
          "velocity": 0.4409448818897638
        },
        {
          "duration": 0.6749999999999972,
          "durationTicks": 216,
          "midi": 38,
          "name": "D2",
          "ticks": 12000,
          "time": 37.5,
          "velocity": 0.4409448818897638
        },
        {
          "duration": 0.6749999999999972,
          "durationTicks": 216,
          "midi": 38,
          "name": "D2",
          "ticks": 12240,
          "time": 38.25,
          "velocity": 0.4409448818897638
        },
        {
          "duration": 0.6749999999999972,
          "durationTicks": 216,
          "midi": 34,
          "name": "A#1",
          "ticks": 12480,
          "time": 39,
          "velocity": 0.4409448818897638
        },
        {
          "duration": 0.6749999999999972,
          "durationTicks": 216,
          "midi": 34,
          "name": "A#1",
          "ticks": 12720,
          "time": 39.75,
          "velocity": 0.4409448818897638
        },
        {
          "duration": 0.6749999999999972,
          "durationTicks": 216,
          "midi": 36,
          "name": "C2",
          "ticks": 12960,
          "time": 40.5,
          "velocity": 0.4409448818897638
        },
        {
          "duration": 0.6749999999999972,
          "durationTicks": 216,
          "midi": 36,
          "name": "C2",
          "ticks": 13200,
          "time": 41.25,
          "velocity": 0.4409448818897638
        },
        {
          "duration": 0.6749999999999972,
          "durationTicks": 216,
          "midi": 36,
          "name": "C2",
          "ticks": 13440,
          "time": 42,
          "velocity": 0.4409448818897638
        },
        {
          "duration": 0.6749999999999972,
          "durationTicks": 216,
          "midi": 36,
          "name": "C2",
          "ticks": 13680,
          "time": 42.75,
          "velocity": 0.4409448818897638
        },
        {
          "duration": 0.6749999999999972,
          "durationTicks": 216,
          "midi": 36,
          "name": "C2",
          "ticks": 13920,
          "time": 43.5,
          "velocity": 0.4409448818897638
        },
        {
          "duration": 0.6749999999999972,
          "durationTicks": 216,
          "midi": 36,
          "name": "C2",
          "ticks": 14160,
          "time": 44.25,
          "velocity": 0.4409448818897638
        },
        {
          "duration": 1.1000000000000014,
          "durationTicks": 352,
          "midi": 41,
          "name": "F2",
          "ticks": 14400,
          "time": 45,
          "velocity": 0.44881889763779526
        },
        {
          "duration": 0.375,
          "durationTicks": 120,
          "midi": 36,
          "name": "C2",
          "ticks": 14760,
          "time": 46.125,
          "velocity": 0.48031496062992124
        },
        {
          "duration": 2.612499999999997,
          "durationTicks": 836,
          "midi": 45,
          "name": "A2",
          "ticks": 14880,
          "time": 46.5,
          "velocity": 0.44881889763779526
        },
        {
          "duration": 0.17499999999999716,
          "durationTicks": 56,
          "midi": 43,
          "name": "G2",
          "ticks": 15720,
          "time": 49.125,
          "velocity": 0.44881889763779526
        },
        {
          "duration": 0.17499999999999716,
          "durationTicks": 56,
          "midi": 41,
          "name": "F2",
          "ticks": 15780,
          "time": 49.3125,
          "velocity": 0.44881889763779526
        },
        {
          "duration": 0.75,
          "durationTicks": 240,
          "midi": 40,
          "name": "E2",
          "ticks": 15840,
          "time": 49.5,
          "velocity": 0.44881889763779526
        },
        {
          "duration": 0.5625,
          "durationTicks": 180,
          "midi": 46,
          "name": "A#2",
          "ticks": 16320,
          "time": 51,
          "velocity": 0.49606299212598426
        },
        {
          "duration": 1.125,
          "durationTicks": 360,
          "midi": 43,
          "name": "G2",
          "ticks": 17280,
          "time": 54,
          "velocity": 0.44881889763779526
        },
        {
          "duration": 0.375,
          "durationTicks": 120,
          "midi": 36,
          "name": "C2",
          "ticks": 17640,
          "time": 55.125,
          "velocity": 0.48031496062992124
        },
        {
          "duration": 2.612499999999997,
          "durationTicks": 836,
          "midi": 46,
          "name": "A#2",
          "ticks": 17760,
          "time": 55.5,
          "velocity": 0.44881889763779526
        },
        {
          "duration": 0.1875,
          "durationTicks": 60,
          "midi": 45,
          "name": "A2",
          "ticks": 18600,
          "time": 58.125,
          "velocity": 0.44881889763779526
        },
        {
          "duration": 0.1875,
          "durationTicks": 60,
          "midi": 43,
          "name": "G2",
          "ticks": 18660,
          "time": 58.3125,
          "velocity": 0.44881889763779526
        },
        {
          "duration": 0.75,
          "durationTicks": 240,
          "midi": 41,
          "name": "F2",
          "ticks": 18720,
          "time": 58.5,
          "velocity": 0.44881889763779526
        },
        {
          "duration": 0.5625,
          "durationTicks": 180,
          "midi": 51,
          "name": "D#3",
          "ticks": 19200,
          "time": 60,
          "velocity": 0.44881889763779526
        },
        {
          "duration": 0.4375,
          "durationTicks": 140,
          "midi": 50,
          "name": "D3",
          "ticks": 20400,
          "time": 63.75,
          "velocity": 0.2992125984251969
        },
        {
          "duration": 0.4375,
          "durationTicks": 140,
          "midi": 50,
          "name": "D3",
          "ticks": 20640,
          "time": 64.5,
          "velocity": 0.31496062992125984
        },
        {
          "duration": 0.75,
          "durationTicks": 240,
          "midi": 50,
          "name": "D3",
          "ticks": 20880,
          "time": 65.25,
          "velocity": 0.31496062992125984
        },
        {
          "duration": 0.75,
          "durationTicks": 240,
          "midi": 49,
          "name": "C#3",
          "ticks": 21120,
          "time": 66,
          "velocity": 0.31496062992125984
        },
        {
          "duration": 0.75,
          "durationTicks": 240,
          "midi": 48,
          "name": "C3",
          "ticks": 21360,
          "time": 66.75,
          "velocity": 0.30708661417322836
        },
        {
          "duration": 0.4375,
          "durationTicks": 140,
          "midi": 47,
          "name": "B2",
          "ticks": 21840,
          "time": 68.25,
          "velocity": 0.30708661417322836
        },
        {
          "duration": 0.4375,
          "durationTicks": 140,
          "midi": 47,
          "name": "B2",
          "ticks": 22080,
          "time": 69,
          "velocity": 0.30708661417322836
        },
        {
          "duration": 0.75,
          "durationTicks": 240,
          "midi": 47,
          "name": "B2",
          "ticks": 22320,
          "time": 69.75,
          "velocity": 0.30708661417322836
        },
        {
          "duration": 0.75,
          "durationTicks": 240,
          "midi": 46,
          "name": "A#2",
          "ticks": 22560,
          "time": 70.5,
          "velocity": 0.30708661417322836
        },
        {
          "duration": 0.75,
          "durationTicks": 240,
          "midi": 46,
          "name": "A#2",
          "ticks": 22800,
          "time": 71.25,
          "velocity": 0.30708661417322836
        },
        {
          "duration": 0.4375,
          "durationTicks": 140,
          "midi": 43,
          "name": "G2",
          "ticks": 23280,
          "time": 72.75,
          "velocity": 0.30708661417322836
        },
        {
          "duration": 0.4375,
          "durationTicks": 140,
          "midi": 43,
          "name": "G2",
          "ticks": 23520,
          "time": 73.5,
          "velocity": 0.30708661417322836
        },
        {
          "duration": 0.4375,
          "durationTicks": 140,
          "midi": 43,
          "name": "G2",
          "ticks": 23760,
          "time": 74.25,
          "velocity": 0.30708661417322836
        },
        {
          "duration": 0.75,
          "durationTicks": 240,
          "midi": 40,
          "name": "E2",
          "ticks": 24000,
          "time": 75,
          "velocity": 0.30708661417322836
        },
        {
          "duration": 0.75,
          "durationTicks": 240,
          "midi": 41,
          "name": "F2",
          "ticks": 24240,
          "time": 75.75,
          "velocity": 0.30708661417322836
        },
        {
          "duration": 2.25,
          "durationTicks": 720,
          "midi": 36,
          "name": "C2",
          "ticks": 24480,
          "time": 76.5,
          "velocity": 0.2992125984251969
        },
        {
          "duration": 0.75,
          "durationTicks": 240,
          "midi": 24,
          "name": "C1",
          "ticks": 25920,
          "time": 81,
          "velocity": 0.49606299212598426
        },
        {
          "duration": 0.7125000000000057,
          "durationTicks": 228,
          "midi": 36,
          "name": "C2",
          "ticks": 26160,
          "time": 81.75,
          "velocity": 0.4251968503937008
        },
        {
          "duration": 0.7125000000000057,
          "durationTicks": 228,
          "midi": 36,
          "name": "C2",
          "ticks": 26400,
          "time": 82.5,
          "velocity": 0.4251968503937008
        },
        {
          "duration": 0.7125000000000057,
          "durationTicks": 228,
          "midi": 36,
          "name": "C2",
          "ticks": 26640,
          "time": 83.25,
          "velocity": 0.4251968503937008
        },
        {
          "duration": 0.7125000000000057,
          "durationTicks": 228,
          "midi": 36,
          "name": "C2",
          "ticks": 26880,
          "time": 84,
          "velocity": 0.4251968503937008
        },
        {
          "duration": 0.7125000000000057,
          "durationTicks": 228,
          "midi": 36,
          "name": "C2",
          "ticks": 27120,
          "time": 84.75,
          "velocity": 0.4251968503937008
        },
        {
          "duration": 0.7125000000000057,
          "durationTicks": 228,
          "midi": 36,
          "name": "C2",
          "ticks": 27360,
          "time": 85.5,
          "velocity": 0.4251968503937008
        },
        {
          "duration": 0.7125000000000057,
          "durationTicks": 228,
          "midi": 36,
          "name": "C2",
          "ticks": 27600,
          "time": 86.25,
          "velocity": 0.4251968503937008
        },
        {
          "duration": 0.7125000000000057,
          "durationTicks": 228,
          "midi": 36,
          "name": "C2",
          "ticks": 27840,
          "time": 87,
          "velocity": 0.4251968503937008
        },
        {
          "duration": 0.7125000000000057,
          "durationTicks": 228,
          "midi": 36,
          "name": "C2",
          "ticks": 28080,
          "time": 87.75,
          "velocity": 0.4251968503937008
        },
        {
          "duration": 0.7125000000000057,
          "durationTicks": 228,
          "midi": 36,
          "name": "C2",
          "ticks": 28320,
          "time": 88.5,
          "velocity": 0.4251968503937008
        },
        {
          "duration": 0.7125000000000057,
          "durationTicks": 228,
          "midi": 36,
          "name": "C2",
          "ticks": 28560,
          "time": 89.25,
          "velocity": 0.4251968503937008
        },
        {
          "duration": 0.75,
          "durationTicks": 240,
          "midi": 24,
          "name": "C1",
          "ticks": 28800,
          "time": 90,
          "velocity": 0.49606299212598426
        },
        {
          "duration": 0.7125000000000057,
          "durationTicks": 228,
          "midi": 36,
          "name": "C2",
          "ticks": 29040,
          "time": 90.75,
          "velocity": 0.4251968503937008
        },
        {
          "duration": 0.7125000000000057,
          "durationTicks": 228,
          "midi": 36,
          "name": "C2",
          "ticks": 29280,
          "time": 91.5,
          "velocity": 0.4251968503937008
        },
        {
          "duration": 0.7125000000000057,
          "durationTicks": 228,
          "midi": 36,
          "name": "C2",
          "ticks": 29520,
          "time": 92.25,
          "velocity": 0.4251968503937008
        },
        {
          "duration": 0.7125000000000057,
          "durationTicks": 228,
          "midi": 36,
          "name": "C2",
          "ticks": 29760,
          "time": 93,
          "velocity": 0.4251968503937008
        },
        {
          "duration": 0.7125000000000057,
          "durationTicks": 228,
          "midi": 36,
          "name": "C2",
          "ticks": 30000,
          "time": 93.75,
          "velocity": 0.4251968503937008
        },
        {
          "duration": 0.7125000000000057,
          "durationTicks": 228,
          "midi": 36,
          "name": "C2",
          "ticks": 30240,
          "time": 94.5,
          "velocity": 0.4251968503937008
        },
        {
          "duration": 0.7125000000000057,
          "durationTicks": 228,
          "midi": 36,
          "name": "C2",
          "ticks": 30480,
          "time": 95.25,
          "velocity": 0.4251968503937008
        },
        {
          "duration": 0.7124999999999915,
          "durationTicks": 228,
          "midi": 36,
          "name": "C2",
          "ticks": 30720,
          "time": 96,
          "velocity": 0.4251968503937008
        },
        {
          "duration": 0.7124999999999915,
          "durationTicks": 228,
          "midi": 36,
          "name": "C2",
          "ticks": 30960,
          "time": 96.75,
          "velocity": 0.4251968503937008
        },
        {
          "duration": 0.7124999999999915,
          "durationTicks": 228,
          "midi": 36,
          "name": "C2",
          "ticks": 31200,
          "time": 97.5,
          "velocity": 0.4251968503937008
        },
        {
          "duration": 0.7124999999999915,
          "durationTicks": 228,
          "midi": 36,
          "name": "C2",
          "ticks": 31440,
          "time": 98.25,
          "velocity": 0.4251968503937008
        },
        {
          "duration": 0.7124999999999915,
          "durationTicks": 228,
          "midi": 27,
          "name": "D#1",
          "ticks": 31680,
          "time": 99,
          "velocity": 0.5669291338582677
        },
        {
          "duration": 0.7124999999999915,
          "durationTicks": 228,
          "midi": 39,
          "name": "D#2",
          "ticks": 31920,
          "time": 99.75,
          "velocity": 0.4251968503937008
        },
        {
          "duration": 0.7124999999999915,
          "durationTicks": 228,
          "midi": 39,
          "name": "D#2",
          "ticks": 32160,
          "time": 100.5,
          "velocity": 0.4251968503937008
        },
        {
          "duration": 0.7124999999999915,
          "durationTicks": 228,
          "midi": 39,
          "name": "D#2",
          "ticks": 32400,
          "time": 101.25,
          "velocity": 0.4251968503937008
        },
        {
          "duration": 0.7124999999999915,
          "durationTicks": 228,
          "midi": 29,
          "name": "F1",
          "ticks": 32640,
          "time": 102,
          "velocity": 0.5669291338582677
        },
        {
          "duration": 0.7124999999999915,
          "durationTicks": 228,
          "midi": 41,
          "name": "F2",
          "ticks": 32880,
          "time": 102.75,
          "velocity": 0.4251968503937008
        },
        {
          "duration": 0.7124999999999915,
          "durationTicks": 228,
          "midi": 41,
          "name": "F2",
          "ticks": 33120,
          "time": 103.5,
          "velocity": 0.4251968503937008
        },
        {
          "duration": 0.7124999999999915,
          "durationTicks": 228,
          "midi": 41,
          "name": "F2",
          "ticks": 33360,
          "time": 104.25,
          "velocity": 0.4251968503937008
        },
        {
          "duration": 0.7124999999999915,
          "durationTicks": 228,
          "midi": 31,
          "name": "G1",
          "ticks": 33600,
          "time": 105,
          "velocity": 0.5669291338582677
        },
        {
          "duration": 0.7124999999999915,
          "durationTicks": 228,
          "midi": 43,
          "name": "G2",
          "ticks": 33840,
          "time": 105.75,
          "velocity": 0.4251968503937008
        },
        {
          "duration": 0.7124999999999915,
          "durationTicks": 228,
          "midi": 43,
          "name": "G2",
          "ticks": 34080,
          "time": 106.5,
          "velocity": 0.4251968503937008
        },
        {
          "duration": 0.7124999999999915,
          "durationTicks": 228,
          "midi": 43,
          "name": "G2",
          "ticks": 34320,
          "time": 107.25,
          "velocity": 0.4251968503937008
        },
        {
          "duration": 0.7124999999999915,
          "durationTicks": 228,
          "midi": 32,
          "name": "G#1",
          "ticks": 34560,
          "time": 108,
          "velocity": 0.5669291338582677
        },
        {
          "duration": 0.7124999999999915,
          "durationTicks": 228,
          "midi": 44,
          "name": "G#2",
          "ticks": 34800,
          "time": 108.75,
          "velocity": 0.4251968503937008
        },
        {
          "duration": 0.7124999999999915,
          "durationTicks": 228,
          "midi": 44,
          "name": "G#2",
          "ticks": 35040,
          "time": 109.5,
          "velocity": 0.4251968503937008
        },
        {
          "duration": 0.7124999999999915,
          "durationTicks": 228,
          "midi": 44,
          "name": "G#2",
          "ticks": 35280,
          "time": 110.25,
          "velocity": 0.4251968503937008
        },
        {
          "duration": 0.7124999999999915,
          "durationTicks": 228,
          "midi": 33,
          "name": "A1",
          "ticks": 35520,
          "time": 111,
          "velocity": 0.5669291338582677
        },
        {
          "duration": 0.7124999999999915,
          "durationTicks": 228,
          "midi": 45,
          "name": "A2",
          "ticks": 35760,
          "time": 111.75,
          "velocity": 0.4251968503937008
        },
        {
          "duration": 3,
          "durationTicks": 960,
          "midi": 45,
          "name": "A2",
          "ticks": 36000,
          "time": 112.5,
          "velocity": 0.4251968503937008
        },
        {
          "duration": 1.5,
          "durationTicks": 480,
          "midi": 44,
          "name": "G#2",
          "ticks": 36960,
          "time": 115.5,
          "velocity": 0.4094488188976378
        },
        {
          "duration": 0.75,
          "durationTicks": 240,
          "midi": 43,
          "name": "G2",
          "ticks": 37440,
          "time": 117,
          "velocity": 0.4015748031496063
        },
        {
          "duration": 0.75,
          "durationTicks": 240,
          "midi": 31,
          "name": "G1",
          "ticks": 37920,
          "time": 118.5,
          "velocity": 0.4251968503937008
        },
        {
          "duration": 1.5,
          "durationTicks": 480,
          "midi": 40,
          "name": "E2",
          "ticks": 38880,
          "time": 121.62982456666666,
          "velocity": 0.3543307086614173
        },
        {
          "duration": 1.5,
          "durationTicks": 480,
          "midi": 38,
          "name": "D2",
          "ticks": 39360,
          "time": 123.12982456666666,
          "velocity": 0.3543307086614173
        },
        {
          "duration": 1.5,
          "durationTicks": 480,
          "midi": 36,
          "name": "C2",
          "ticks": 39840,
          "time": 124.62982456666666,
          "velocity": 0.3543307086614173
        },
        {
          "duration": 1.5,
          "durationTicks": 480,
          "midi": 35,
          "name": "B1",
          "ticks": 40320,
          "time": 126.12982456666666,
          "velocity": 0.3543307086614173
        },
        {
          "duration": 1.5,
          "durationTicks": 480,
          "midi": 41,
          "name": "F2",
          "ticks": 41760,
          "time": 130.62982456666666,
          "velocity": 0.3543307086614173
        },
        {
          "duration": 1.5,
          "durationTicks": 480,
          "midi": 40,
          "name": "E2",
          "ticks": 42240,
          "time": 132.12982456666666,
          "velocity": 0.3543307086614173
        },
        {
          "duration": 1.5,
          "durationTicks": 480,
          "midi": 38,
          "name": "D2",
          "ticks": 42720,
          "time": 133.62982456666666,
          "velocity": 0.3543307086614173
        },
        {
          "duration": 1.5,
          "durationTicks": 480,
          "midi": 36,
          "name": "C2",
          "ticks": 43200,
          "time": 135.12982456666666,
          "velocity": 0.3543307086614173
        },
        {
          "duration": 0.75,
          "durationTicks": 240,
          "midi": 45,
          "name": "A2",
          "ticks": 44640,
          "time": 139.62982456666666,
          "velocity": 0.3700787401574803
        },
        {
          "duration": 0.75,
          "durationTicks": 240,
          "midi": 50,
          "name": "D3",
          "ticks": 45120,
          "time": 141.12982456666666,
          "velocity": 0.3700787401574803
        },
        {
          "duration": 0.75,
          "durationTicks": 240,
          "midi": 43,
          "name": "G2",
          "ticks": 45600,
          "time": 142.62982456666666,
          "velocity": 0.3700787401574803
        },
        {
          "duration": 0.75,
          "durationTicks": 240,
          "midi": 48,
          "name": "C3",
          "ticks": 46080,
          "time": 144.12982456666666,
          "velocity": 0.3700787401574803
        },
        {
          "duration": 1.5,
          "durationTicks": 480,
          "midi": 41,
          "name": "F2",
          "ticks": 46560,
          "time": 145.62982456666666,
          "velocity": 0.3700787401574803
        },
        {
          "duration": 0.75,
          "durationTicks": 240,
          "midi": 43,
          "name": "G2",
          "ticks": 47040,
          "time": 147.12982456666666,
          "velocity": 0.3700787401574803
        },
        {
          "duration": 0.75,
          "durationTicks": 240,
          "midi": 45,
          "name": "A2",
          "ticks": 47280,
          "time": 147.87982456666666,
          "velocity": 0.3700787401574803
        },
        {
          "duration": 0.75,
          "durationTicks": 240,
          "midi": 41,
          "name": "F2",
          "ticks": 47520,
          "time": 148.62982456666666,
          "velocity": 0.3700787401574803
        },
        {
          "duration": 0.75,
          "durationTicks": 240,
          "midi": 43,
          "name": "G2",
          "ticks": 48000,
          "time": 150.12982456666666,
          "velocity": 0.3700787401574803
        },
        {
          "duration": 0.75,
          "durationTicks": 240,
          "midi": 31,
          "name": "G1",
          "ticks": 48480,
          "time": 151.62982456666666,
          "velocity": 0.3700787401574803
        },
        {
          "duration": 0.75,
          "durationTicks": 240,
          "midi": 45,
          "name": "A2",
          "ticks": 48960,
          "time": 153.12982456666666,
          "velocity": 0.3700787401574803
        },
        {
          "duration": 0.75,
          "durationTicks": 240,
          "midi": 50,
          "name": "D3",
          "ticks": 49440,
          "time": 154.62982456666666,
          "velocity": 0.3700787401574803
        },
        {
          "duration": 0.75,
          "durationTicks": 240,
          "midi": 43,
          "name": "G2",
          "ticks": 49920,
          "time": 156.12982456666666,
          "velocity": 0.3700787401574803
        },
        {
          "duration": 0.75,
          "durationTicks": 240,
          "midi": 48,
          "name": "C3",
          "ticks": 50400,
          "time": 157.62982456666666,
          "velocity": 0.3700787401574803
        },
        {
          "duration": 1.5,
          "durationTicks": 480,
          "midi": 41,
          "name": "F2",
          "ticks": 50880,
          "time": 159.12982456666666,
          "velocity": 0.3700787401574803
        },
        {
          "duration": 0.75,
          "durationTicks": 240,
          "midi": 43,
          "name": "G2",
          "ticks": 51360,
          "time": 160.62982456666666,
          "velocity": 0.3700787401574803
        },
        {
          "duration": 0.75,
          "durationTicks": 240,
          "midi": 45,
          "name": "A2",
          "ticks": 51600,
          "time": 161.37982456666666,
          "velocity": 0.3700787401574803
        },
        {
          "duration": 1.5,
          "durationTicks": 480,
          "midi": 38,
          "name": "D2",
          "ticks": 51840,
          "time": 162.12982456666666,
          "velocity": 0.3700787401574803
        },
        {
          "duration": 0.75,
          "durationTicks": 240,
          "midi": 40,
          "name": "E2",
          "ticks": 52320,
          "time": 163.62982456666666,
          "velocity": 0.3858267716535433
        },
        {
          "duration": 0.75,
          "durationTicks": 240,
          "midi": 41,
          "name": "F2",
          "ticks": 52560,
          "time": 164.37982456666666,
          "velocity": 0.3937007874015748
        },
        {
          "duration": 1.5,
          "durationTicks": 480,
          "midi": 34,
          "name": "A#1",
          "ticks": 52800,
          "time": 165.12982456666666,
          "velocity": 0.4015748031496063
        },
        {
          "duration": 0.7125000000000057,
          "durationTicks": 228,
          "midi": 36,
          "name": "C2",
          "ticks": 53280,
          "time": 166.62982456666666,
          "velocity": 0.4881889763779528
        },
        {
          "duration": 0.75,
          "durationTicks": 240,
          "midi": 38,
          "name": "D2",
          "ticks": 53520,
          "time": 167.37982456666666,
          "velocity": 0.4251968503937008
        },
        {
          "duration": 0.75,
          "durationTicks": 240,
          "midi": 40,
          "name": "E2",
          "ticks": 53760,
          "time": 168.12982456666666,
          "velocity": 0.4251968503937008
        },
        {
          "duration": 0.6750000000000114,
          "durationTicks": 216,
          "midi": 41,
          "name": "F2",
          "ticks": 54000,
          "time": 168.87982456666666,
          "velocity": 0.4251968503937008
        },
        {
          "duration": 0.6750000000000114,
          "durationTicks": 216,
          "midi": 43,
          "name": "G2",
          "ticks": 54240,
          "time": 169.62982456666666,
          "velocity": 0.4251968503937008
        },
        {
          "duration": 0.6750000000000114,
          "durationTicks": 216,
          "midi": 31,
          "name": "G1",
          "ticks": 54480,
          "time": 170.37982456666666,
          "velocity": 0.4251968503937008
        },
        {
          "duration": 1.5,
          "durationTicks": 480,
          "midi": 36,
          "name": "C2",
          "ticks": 54720,
          "time": 171.12982456666666,
          "velocity": 0.4251968503937008
        },
        {
          "duration": 1.5,
          "durationTicks": 480,
          "midi": 43,
          "name": "G2",
          "ticks": 60000,
          "time": 187.62982456666666,
          "velocity": 0.3543307086614173
        },
        {
          "duration": 0.75,
          "durationTicks": 240,
          "midi": 36,
          "name": "C2",
          "ticks": 60480,
          "time": 189.12982456666666,
          "velocity": 0.3543307086614173
        },
        {
          "duration": 0.7616079333333232,
          "durationTicks": 224,
          "midi": 48,
          "name": "C3",
          "ticks": 60960,
          "time": 190.64136316666668,
          "velocity": 0.3543307086614173
        },
        {
          "duration": 2.298025200000012,
          "durationTicks": 720,
          "midi": 33,
          "name": "A1",
          "ticks": 63360,
          "time": 198.21963780000002,
          "velocity": 0.3543307086614173
        },
        {
          "duration": 0.75,
          "durationTicks": 240,
          "midi": 26,
          "name": "D1",
          "ticks": 66240,
          "time": 207.49144406666665,
          "velocity": 0.49606299212598426
        },
        {
          "duration": 0.6624999999999943,
          "durationTicks": 212,
          "midi": 38,
          "name": "D2",
          "ticks": 66480,
          "time": 208.24144406666665,
          "velocity": 0.41732283464566927
        },
        {
          "duration": 0.6624999999999943,
          "durationTicks": 212,
          "midi": 38,
          "name": "D2",
          "ticks": 66720,
          "time": 208.99144406666665,
          "velocity": 0.41732283464566927
        },
        {
          "duration": 0.6624999999999943,
          "durationTicks": 212,
          "midi": 38,
          "name": "D2",
          "ticks": 66960,
          "time": 209.74144406666665,
          "velocity": 0.41732283464566927
        },
        {
          "duration": 0.6624999999999943,
          "durationTicks": 212,
          "midi": 38,
          "name": "D2",
          "ticks": 67200,
          "time": 210.49144406666665,
          "velocity": 0.41732283464566927
        },
        {
          "duration": 0.6624999999999943,
          "durationTicks": 212,
          "midi": 38,
          "name": "D2",
          "ticks": 67440,
          "time": 211.24144406666665,
          "velocity": 0.41732283464566927
        },
        {
          "duration": 0.6624999999999943,
          "durationTicks": 212,
          "midi": 38,
          "name": "D2",
          "ticks": 67680,
          "time": 211.99144406666665,
          "velocity": 0.41732283464566927
        },
        {
          "duration": 0.6624999999999943,
          "durationTicks": 212,
          "midi": 38,
          "name": "D2",
          "ticks": 67920,
          "time": 212.74144406666665,
          "velocity": 0.41732283464566927
        },
        {
          "duration": 0.6624999999999943,
          "durationTicks": 212,
          "midi": 38,
          "name": "D2",
          "ticks": 68160,
          "time": 213.49144406666665,
          "velocity": 0.41732283464566927
        },
        {
          "duration": 0.6624999999999943,
          "durationTicks": 212,
          "midi": 38,
          "name": "D2",
          "ticks": 68400,
          "time": 214.24144406666665,
          "velocity": 0.41732283464566927
        },
        {
          "duration": 0.6624999999999943,
          "durationTicks": 212,
          "midi": 38,
          "name": "D2",
          "ticks": 68640,
          "time": 214.99144406666665,
          "velocity": 0.41732283464566927
        },
        {
          "duration": 0.6624999999999943,
          "durationTicks": 212,
          "midi": 38,
          "name": "D2",
          "ticks": 68880,
          "time": 215.74144406666665,
          "velocity": 0.41732283464566927
        },
        {
          "duration": 0.6624999999999943,
          "durationTicks": 212,
          "midi": 25,
          "name": "C#1",
          "ticks": 69120,
          "time": 216.49144406666665,
          "velocity": 0.49606299212598426
        },
        {
          "duration": 0.6624999999999943,
          "durationTicks": 212,
          "midi": 37,
          "name": "C#2",
          "ticks": 69360,
          "time": 217.24144406666665,
          "velocity": 0.41732283464566927
        },
        {
          "duration": 0.6624999999999943,
          "durationTicks": 212,
          "midi": 37,
          "name": "C#2",
          "ticks": 69600,
          "time": 217.99144406666665,
          "velocity": 0.41732283464566927
        },
        {
          "duration": 0.6624999999999943,
          "durationTicks": 212,
          "midi": 37,
          "name": "C#2",
          "ticks": 69840,
          "time": 218.74144406666665,
          "velocity": 0.41732283464566927
        },
        {
          "duration": 0.6624999999999943,
          "durationTicks": 212,
          "midi": 37,
          "name": "C#2",
          "ticks": 70080,
          "time": 219.49144406666665,
          "velocity": 0.41732283464566927
        },
        {
          "duration": 0.6624999999999943,
          "durationTicks": 212,
          "midi": 37,
          "name": "C#2",
          "ticks": 70320,
          "time": 220.24144406666665,
          "velocity": 0.41732283464566927
        },
        {
          "duration": 0.6624999999999943,
          "durationTicks": 212,
          "midi": 36,
          "name": "C2",
          "ticks": 70560,
          "time": 220.99144406666665,
          "velocity": 0.41732283464566927
        },
        {
          "duration": 0.6624999999999943,
          "durationTicks": 212,
          "midi": 36,
          "name": "C2",
          "ticks": 70800,
          "time": 221.74144406666665,
          "velocity": 0.41732283464566927
        },
        {
          "duration": 0.6624999999999943,
          "durationTicks": 212,
          "midi": 36,
          "name": "C2",
          "ticks": 71040,
          "time": 222.49144406666665,
          "velocity": 0.41732283464566927
        },
        {
          "duration": 0.6624999999999943,
          "durationTicks": 212,
          "midi": 36,
          "name": "C2",
          "ticks": 71280,
          "time": 223.24144406666665,
          "velocity": 0.41732283464566927
        },
        {
          "duration": 0.6624999999999943,
          "durationTicks": 212,
          "midi": 36,
          "name": "C2",
          "ticks": 71520,
          "time": 223.99144406666665,
          "velocity": 0.41732283464566927
        },
        {
          "duration": 0.6624999999999943,
          "durationTicks": 212,
          "midi": 36,
          "name": "C2",
          "ticks": 71760,
          "time": 224.74144406666665,
          "velocity": 0.41732283464566927
        },
        {
          "duration": 0.6624999999999943,
          "durationTicks": 212,
          "midi": 34,
          "name": "A#1",
          "ticks": 72000,
          "time": 225.49144406666665,
          "velocity": 0.5118110236220472
        },
        {
          "duration": 0.6624999999999943,
          "durationTicks": 212,
          "midi": 46,
          "name": "A#2",
          "ticks": 72240,
          "time": 226.24144406666665,
          "velocity": 0.41732283464566927
        },
        {
          "duration": 0.6624999999999943,
          "durationTicks": 212,
          "midi": 46,
          "name": "A#2",
          "ticks": 72480,
          "time": 226.99144406666665,
          "velocity": 0.41732283464566927
        },
        {
          "duration": 0.6624999999999943,
          "durationTicks": 212,
          "midi": 46,
          "name": "A#2",
          "ticks": 72720,
          "time": 227.74144406666665,
          "velocity": 0.41732283464566927
        },
        {
          "duration": 0.6624999999999943,
          "durationTicks": 212,
          "midi": 34,
          "name": "A#1",
          "ticks": 72960,
          "time": 228.49144406666665,
          "velocity": 0.5118110236220472
        },
        {
          "duration": 0.6624999999999943,
          "durationTicks": 212,
          "midi": 46,
          "name": "A#2",
          "ticks": 73200,
          "time": 229.24144406666665,
          "velocity": 0.41732283464566927
        },
        {
          "duration": 0.6624999999999943,
          "durationTicks": 212,
          "midi": 46,
          "name": "A#2",
          "ticks": 73440,
          "time": 229.99144406666665,
          "velocity": 0.41732283464566927
        },
        {
          "duration": 0.6624999999999943,
          "durationTicks": 212,
          "midi": 46,
          "name": "A#2",
          "ticks": 73680,
          "time": 230.74144406666665,
          "velocity": 0.41732283464566927
        },
        {
          "duration": 0.6624999999999943,
          "durationTicks": 212,
          "midi": 29,
          "name": "F1",
          "ticks": 73920,
          "time": 231.49144406666665,
          "velocity": 0.5118110236220472
        },
        {
          "duration": 0.6624999999999943,
          "durationTicks": 212,
          "midi": 41,
          "name": "F2",
          "ticks": 74160,
          "time": 232.24144406666665,
          "velocity": 0.41732283464566927
        },
        {
          "duration": 0.6624999999999943,
          "durationTicks": 212,
          "midi": 41,
          "name": "F2",
          "ticks": 74400,
          "time": 232.99144406666665,
          "velocity": 0.41732283464566927
        },
        {
          "duration": 0.6624999999999943,
          "durationTicks": 212,
          "midi": 41,
          "name": "F2",
          "ticks": 74640,
          "time": 233.74144406666665,
          "velocity": 0.41732283464566927
        },
        {
          "duration": 0.6624999999999943,
          "durationTicks": 212,
          "midi": 24,
          "name": "C1",
          "ticks": 74880,
          "time": 234.49144406666665,
          "velocity": 0.5118110236220472
        },
        {
          "duration": 0.6624999999999943,
          "durationTicks": 212,
          "midi": 36,
          "name": "C2",
          "ticks": 75120,
          "time": 235.24144406666665,
          "velocity": 0.41732283464566927
        },
        {
          "duration": 0.6624999999999943,
          "durationTicks": 212,
          "midi": 36,
          "name": "C2",
          "ticks": 75360,
          "time": 235.99144406666665,
          "velocity": 0.41732283464566927
        },
        {
          "duration": 0.6624999999999943,
          "durationTicks": 212,
          "midi": 36,
          "name": "C2",
          "ticks": 75600,
          "time": 236.74144406666665,
          "velocity": 0.41732283464566927
        },
        {
          "duration": 0.6624999999999943,
          "durationTicks": 212,
          "midi": 31,
          "name": "G1",
          "ticks": 75840,
          "time": 237.49144406666665,
          "velocity": 0.5118110236220472
        },
        {
          "duration": 0.6624999999999943,
          "durationTicks": 212,
          "midi": 43,
          "name": "G2",
          "ticks": 76080,
          "time": 238.24144406666665,
          "velocity": 0.41732283464566927
        },
        {
          "duration": 0.6624999999999943,
          "durationTicks": 212,
          "midi": 43,
          "name": "G2",
          "ticks": 76320,
          "time": 238.99144406666665,
          "velocity": 0.41732283464566927
        },
        {
          "duration": 0.6624999999999943,
          "durationTicks": 212,
          "midi": 43,
          "name": "G2",
          "ticks": 76560,
          "time": 239.74144406666665,
          "velocity": 0.41732283464566927
        },
        {
          "duration": 0.6624999999999943,
          "durationTicks": 212,
          "midi": 38,
          "name": "D2",
          "ticks": 76800,
          "time": 240.49144406666665,
          "velocity": 0.5118110236220472
        },
        {
          "duration": 0.6624999999999943,
          "durationTicks": 212,
          "midi": 50,
          "name": "D3",
          "ticks": 77040,
          "time": 241.24144406666665,
          "velocity": 0.41732283464566927
        },
        {
          "duration": 0.6624999999999943,
          "durationTicks": 212,
          "midi": 50,
          "name": "D3",
          "ticks": 77280,
          "time": 241.99144406666665,
          "velocity": 0.41732283464566927
        },
        {
          "duration": 0.6624999999999943,
          "durationTicks": 212,
          "midi": 50,
          "name": "D3",
          "ticks": 77520,
          "time": 242.74144406666665,
          "velocity": 0.41732283464566927
        },
        {
          "duration": 0.6624999999999943,
          "durationTicks": 212,
          "midi": 31,
          "name": "G1",
          "ticks": 77760,
          "time": 243.49144406666665,
          "velocity": 0.5118110236220472
        },
        {
          "duration": 0.6624999999999943,
          "durationTicks": 212,
          "midi": 43,
          "name": "G2",
          "ticks": 78000,
          "time": 244.24144406666665,
          "velocity": 0.41732283464566927
        },
        {
          "duration": 0.6624999999999943,
          "durationTicks": 212,
          "midi": 43,
          "name": "G2",
          "ticks": 78240,
          "time": 244.99144406666665,
          "velocity": 0.41732283464566927
        },
        {
          "duration": 0.6624999999999943,
          "durationTicks": 212,
          "midi": 43,
          "name": "G2",
          "ticks": 78480,
          "time": 245.74144406666665,
          "velocity": 0.41732283464566927
        },
        {
          "duration": 0.6624999999999943,
          "durationTicks": 212,
          "midi": 44,
          "name": "G#2",
          "ticks": 78720,
          "time": 246.49144406666665,
          "velocity": 0.41732283464566927
        },
        {
          "duration": 0.6624999999999943,
          "durationTicks": 212,
          "midi": 44,
          "name": "G#2",
          "ticks": 78960,
          "time": 247.24144406666665,
          "velocity": 0.41732283464566927
        },
        {
          "duration": 0.6624999999999943,
          "durationTicks": 212,
          "midi": 45,
          "name": "A2",
          "ticks": 79200,
          "time": 247.99144406666665,
          "velocity": 0.41732283464566927
        },
        {
          "duration": 1.5,
          "durationTicks": 480,
          "midi": 34,
          "name": "A#1",
          "ticks": 79680,
          "time": 249.49144406666665,
          "velocity": 0.41732283464566927
        },
        {
          "duration": 0.75,
          "durationTicks": 240,
          "midi": 33,
          "name": "A1",
          "ticks": 80160,
          "time": 250.99144406666665,
          "velocity": 0.41732283464566927
        },
        {
          "duration": 1.5,
          "durationTicks": 480,
          "midi": 46,
          "name": "A#2",
          "ticks": 80640,
          "time": 252.49144406666665,
          "velocity": 0.4015748031496063
        },
        {
          "duration": 0.75,
          "durationTicks": 240,
          "midi": 45,
          "name": "A2",
          "ticks": 81120,
          "time": 253.99144406666665,
          "velocity": 0.4015748031496063
        },
        {
          "duration": 0.75,
          "durationTicks": 240,
          "midi": 40,
          "name": "E2",
          "ticks": 82560,
          "time": 258.49144406666665,
          "velocity": 0.41732283464566927
        },
        {
          "duration": 0.75,
          "durationTicks": 240,
          "midi": 45,
          "name": "A2",
          "ticks": 83040,
          "time": 259.99144406666665,
          "velocity": 0.41732283464566927
        },
        {
          "duration": 0.75,
          "durationTicks": 240,
          "midi": 38,
          "name": "D2",
          "ticks": 83520,
          "time": 261.49144406666665,
          "velocity": 0.41732283464566927
        },
        {
          "duration": 0.75,
          "durationTicks": 240,
          "midi": 43,
          "name": "G2",
          "ticks": 84000,
          "time": 262.99144406666665,
          "velocity": 0.41732283464566927
        },
        {
          "duration": 0.7906347499999811,
          "durationTicks": 240,
          "midi": 36,
          "name": "C2",
          "ticks": 84480,
          "time": 264.49657233333335,
          "velocity": 0.41732283464566927
        },
        {
          "duration": 1.5,
          "durationTicks": 480,
          "midi": 41,
          "name": "F2",
          "ticks": 84960,
          "time": 266.1177627999999,
          "velocity": 0.41732283464566927
        },
        {
          "duration": 1.5,
          "durationTicks": 480,
          "midi": 34,
          "name": "A#1",
          "ticks": 86400,
          "time": 270.6177627999999,
          "velocity": 0.4330708661417323
        },
        {
          "duration": 0.1875,
          "durationTicks": 60,
          "midi": 42,
          "name": "F#2",
          "ticks": 86940,
          "time": 272.3052627999999,
          "velocity": 0.4330708661417323
        },
        {
          "duration": 0.1875,
          "durationTicks": 60,
          "midi": 43,
          "name": "G2",
          "ticks": 87000,
          "time": 272.4927627999999,
          "velocity": 0.4330708661417323
        },
        {
          "duration": 0.1875,
          "durationTicks": 60,
          "midi": 42,
          "name": "F#2",
          "ticks": 87060,
          "time": 272.6802627999999,
          "velocity": 0.4330708661417323
        },
        {
          "duration": 0.1875,
          "durationTicks": 60,
          "midi": 43,
          "name": "G2",
          "ticks": 87120,
          "time": 272.8677627999999,
          "velocity": 0.4330708661417323
        },
        {
          "duration": 0.1875,
          "durationTicks": 60,
          "midi": 45,
          "name": "A2",
          "ticks": 87180,
          "time": 273.0552627999999,
          "velocity": 0.4330708661417323
        },
        {
          "duration": 0.1875,
          "durationTicks": 60,
          "midi": 46,
          "name": "A#2",
          "ticks": 87240,
          "time": 273.2427627999999,
          "velocity": 0.4330708661417323
        },
        {
          "duration": 0.1875,
          "durationTicks": 60,
          "midi": 45,
          "name": "A2",
          "ticks": 87300,
          "time": 273.4302627999999,
          "velocity": 0.4330708661417323
        },
        {
          "duration": 0.1875,
          "durationTicks": 60,
          "midi": 46,
          "name": "A#2",
          "ticks": 87360,
          "time": 273.6177627999999,
          "velocity": 0.4330708661417323
        },
        {
          "duration": 0.1875,
          "durationTicks": 60,
          "midi": 49,
          "name": "C#3",
          "ticks": 87420,
          "time": 273.8052627999999,
          "velocity": 0.4330708661417323
        },
        {
          "duration": 0.1875,
          "durationTicks": 60,
          "midi": 50,
          "name": "D3",
          "ticks": 87480,
          "time": 273.9927627999999,
          "velocity": 0.4330708661417323
        },
        {
          "duration": 0.1875,
          "durationTicks": 60,
          "midi": 45,
          "name": "A2",
          "ticks": 87540,
          "time": 274.1802627999999,
          "velocity": 0.4330708661417323
        },
        {
          "duration": 0.1875,
          "durationTicks": 60,
          "midi": 48,
          "name": "C3",
          "ticks": 87600,
          "time": 274.3677627999999,
          "velocity": 0.4330708661417323
        },
        {
          "duration": 0.1875,
          "durationTicks": 60,
          "midi": 46,
          "name": "A#2",
          "ticks": 87660,
          "time": 274.5552627999999,
          "velocity": 0.4330708661417323
        },
        {
          "duration": 0.1875,
          "durationTicks": 60,
          "midi": 45,
          "name": "A2",
          "ticks": 87720,
          "time": 274.7427627999999,
          "velocity": 0.4330708661417323
        },
        {
          "duration": 0.1875,
          "durationTicks": 60,
          "midi": 43,
          "name": "G2",
          "ticks": 87780,
          "time": 274.9302627999999,
          "velocity": 0.4330708661417323
        },
        {
          "duration": 1.5,
          "durationTicks": 480,
          "midi": 41,
          "name": "F2",
          "ticks": 87840,
          "time": 275.1177627999999,
          "velocity": 0.4330708661417323
        },
        {
          "duration": 0.75,
          "durationTicks": 240,
          "midi": 40,
          "name": "E2",
          "ticks": 88320,
          "time": 276.6177627999999,
          "velocity": 0.4330708661417323
        },
        {
          "duration": 0.75,
          "durationTicks": 240,
          "midi": 36,
          "name": "C2",
          "ticks": 88800,
          "time": 278.1177627999999,
          "velocity": 0.4094488188976378
        },
        {
          "duration": 0.75,
          "durationTicks": 240,
          "midi": 39,
          "name": "D#2",
          "ticks": 89280,
          "time": 279.6177627999999,
          "velocity": 0.4094488188976378
        },
        {
          "duration": 0.75,
          "durationTicks": 240,
          "midi": 36,
          "name": "C2",
          "ticks": 89760,
          "time": 281.1177627999999,
          "velocity": 0.4094488188976378
        },
        {
          "duration": 0.75,
          "durationTicks": 240,
          "midi": 33,
          "name": "A1",
          "ticks": 90240,
          "time": 282.6177627999999,
          "velocity": 0.4094488188976378
        },
        {
          "duration": 1.125,
          "durationTicks": 360,
          "midi": 46,
          "name": "A#2",
          "ticks": 90720,
          "time": 284.1177627999999,
          "velocity": 0.4409448818897638
        },
        {
          "duration": 0.375,
          "durationTicks": 120,
          "midi": 41,
          "name": "F2",
          "ticks": 91080,
          "time": 285.2427627999999,
          "velocity": 0.4409448818897638
        },
        {
          "duration": 2.6125000000000114,
          "durationTicks": 836,
          "midi": 50,
          "name": "D3",
          "ticks": 91200,
          "time": 285.6177627999999,
          "velocity": 0.4409448818897638
        },
        {
          "duration": 0.1875,
          "durationTicks": 60,
          "midi": 48,
          "name": "C3",
          "ticks": 92040,
          "time": 288.2427627999999,
          "velocity": 0.4409448818897638
        },
        {
          "duration": 0.1875,
          "durationTicks": 60,
          "midi": 46,
          "name": "A#2",
          "ticks": 92100,
          "time": 288.4302627999999,
          "velocity": 0.4409448818897638
        },
        {
          "duration": 0.75,
          "durationTicks": 240,
          "midi": 45,
          "name": "A2",
          "ticks": 92160,
          "time": 288.6177627999999,
          "velocity": 0.4409448818897638
        },
        {
          "duration": 0.75,
          "durationTicks": 240,
          "midi": 51,
          "name": "D#3",
          "ticks": 92640,
          "time": 290.1177627999999,
          "velocity": 0.5039370078740157
        },
        {
          "duration": 0.1875,
          "durationTicks": 60,
          "midi": 47,
          "name": "B2",
          "ticks": 93660,
          "time": 293.3052627999999,
          "velocity": 0.3937007874015748
        },
        {
          "duration": 0.1875,
          "durationTicks": 60,
          "midi": 48,
          "name": "C3",
          "ticks": 93720,
          "time": 293.4927627999999,
          "velocity": 0.3937007874015748
        },
        {
          "duration": 0.1875,
          "durationTicks": 60,
          "midi": 47,
          "name": "B2",
          "ticks": 93780,
          "time": 293.6802627999999,
          "velocity": 0.3937007874015748
        },
        {
          "duration": 0.1875,
          "durationTicks": 60,
          "midi": 48,
          "name": "C3",
          "ticks": 93840,
          "time": 293.8677627999999,
          "velocity": 0.3937007874015748
        },
        {
          "duration": 0.1875,
          "durationTicks": 60,
          "midi": 50,
          "name": "D3",
          "ticks": 93900,
          "time": 294.0552627999999,
          "velocity": 0.3937007874015748
        },
        {
          "duration": 0.1875,
          "durationTicks": 60,
          "midi": 51,
          "name": "D#3",
          "ticks": 93960,
          "time": 294.2427627999999,
          "velocity": 0.3937007874015748
        },
        {
          "duration": 0.1875,
          "durationTicks": 60,
          "midi": 50,
          "name": "D3",
          "ticks": 94020,
          "time": 294.4302627999999,
          "velocity": 0.3937007874015748
        },
        {
          "duration": 0.1875,
          "durationTicks": 60,
          "midi": 51,
          "name": "D#3",
          "ticks": 94080,
          "time": 294.6177627999999,
          "velocity": 0.3937007874015748
        },
        {
          "duration": 0.1875,
          "durationTicks": 60,
          "midi": 54,
          "name": "F#3",
          "ticks": 94140,
          "time": 294.8052627999999,
          "velocity": 0.3937007874015748
        },
        {
          "duration": 0.1875,
          "durationTicks": 60,
          "midi": 55,
          "name": "G3",
          "ticks": 94200,
          "time": 294.9927627999999,
          "velocity": 0.3937007874015748
        },
        {
          "duration": 0.1875,
          "durationTicks": 60,
          "midi": 50,
          "name": "D3",
          "ticks": 94260,
          "time": 295.1802627999999,
          "velocity": 0.3937007874015748
        },
        {
          "duration": 0.1875,
          "durationTicks": 60,
          "midi": 53,
          "name": "F3",
          "ticks": 94320,
          "time": 295.3677627999999,
          "velocity": 0.3937007874015748
        },
        {
          "duration": 0.1875,
          "durationTicks": 60,
          "midi": 51,
          "name": "D#3",
          "ticks": 94380,
          "time": 295.5552627999999,
          "velocity": 0.3937007874015748
        },
        {
          "duration": 0.1875,
          "durationTicks": 60,
          "midi": 50,
          "name": "D3",
          "ticks": 94440,
          "time": 295.7427627999999,
          "velocity": 0.3937007874015748
        },
        {
          "duration": 0.1875,
          "durationTicks": 60,
          "midi": 48,
          "name": "C3",
          "ticks": 94500,
          "time": 295.9302627999999,
          "velocity": 0.3937007874015748
        },
        {
          "duration": 0.1875,
          "durationTicks": 60,
          "midi": 46,
          "name": "A#2",
          "ticks": 94560,
          "time": 296.1177627999999,
          "velocity": 0.3937007874015748
        },
        {
          "duration": 0.1875,
          "durationTicks": 60,
          "midi": 45,
          "name": "A2",
          "ticks": 94620,
          "time": 296.3052627999999,
          "velocity": 0.3937007874015748
        },
        {
          "duration": 0.1875,
          "durationTicks": 60,
          "midi": 48,
          "name": "C3",
          "ticks": 94680,
          "time": 296.4927627999999,
          "velocity": 0.3937007874015748
        },
        {
          "duration": 0.1875,
          "durationTicks": 60,
          "midi": 46,
          "name": "A#2",
          "ticks": 94740,
          "time": 296.6802627999999,
          "velocity": 0.3937007874015748
        },
        {
          "duration": 0.1875,
          "durationTicks": 60,
          "midi": 45,
          "name": "A2",
          "ticks": 94800,
          "time": 296.8677627999999,
          "velocity": 0.3937007874015748
        },
        {
          "duration": 0.1875,
          "durationTicks": 60,
          "midi": 43,
          "name": "G2",
          "ticks": 94860,
          "time": 297.0552627999999,
          "velocity": 0.3937007874015748
        },
        {
          "duration": 0.1875,
          "durationTicks": 60,
          "midi": 41,
          "name": "F2",
          "ticks": 94920,
          "time": 297.2427627999999,
          "velocity": 0.3937007874015748
        },
        {
          "duration": 0.1875,
          "durationTicks": 60,
          "midi": 39,
          "name": "D#2",
          "ticks": 94980,
          "time": 297.4302627999999,
          "velocity": 0.3937007874015748
        },
        {
          "duration": 0.75,
          "durationTicks": 240,
          "midi": 38,
          "name": "D2",
          "ticks": 95040,
          "time": 297.6177627999999,
          "velocity": 0.4409448818897638
        },
        {
          "duration": 0.75,
          "durationTicks": 240,
          "midi": 48,
          "name": "C3",
          "ticks": 96000,
          "time": 300.6177627999999,
          "velocity": 0.4409448818897638
        },
        {
          "duration": 0.75,
          "durationTicks": 240,
          "midi": 46,
          "name": "A#2",
          "ticks": 96960,
          "time": 303.6177627999999,
          "velocity": 0.4409448818897638
        },
        {
          "duration": 0.75,
          "durationTicks": 240,
          "midi": 34,
          "name": "A#1",
          "ticks": 97920,
          "time": 306.6177627999999,
          "velocity": 0.4409448818897638
        },
        {
          "duration": 0.75,
          "durationTicks": 240,
          "midi": 45,
          "name": "A2",
          "ticks": 98880,
          "time": 309.6177627999999,
          "velocity": 0.4409448818897638
        },
        {
          "duration": 0.75,
          "durationTicks": 240,
          "midi": 38,
          "name": "D2",
          "ticks": 99840,
          "time": 312.6177627999999,
          "velocity": 0.3937007874015748
        },
        {
          "duration": 0.1875,
          "durationTicks": 60,
          "midi": 36,
          "name": "C2",
          "ticks": 100860,
          "time": 315.8052627999999,
          "velocity": 0.5039370078740157
        },
        {
          "duration": 0.1875,
          "durationTicks": 60,
          "midi": 38,
          "name": "D2",
          "ticks": 100920,
          "time": 315.9927627999999,
          "velocity": 0.5039370078740157
        },
        {
          "duration": 0.1875,
          "durationTicks": 60,
          "midi": 40,
          "name": "E2",
          "ticks": 100980,
          "time": 316.1802627999999,
          "velocity": 0.5039370078740157
        },
        {
          "duration": 0.1875,
          "durationTicks": 60,
          "midi": 41,
          "name": "F2",
          "ticks": 101040,
          "time": 316.3677627999999,
          "velocity": 0.5039370078740157
        },
        {
          "duration": 0.1875,
          "durationTicks": 60,
          "midi": 43,
          "name": "G2",
          "ticks": 101100,
          "time": 316.5552627999999,
          "velocity": 0.5039370078740157
        },
        {
          "duration": 0.1875,
          "durationTicks": 60,
          "midi": 45,
          "name": "A2",
          "ticks": 101160,
          "time": 316.7427627999999,
          "velocity": 0.5039370078740157
        },
        {
          "duration": 0.1875,
          "durationTicks": 60,
          "midi": 47,
          "name": "B2",
          "ticks": 101220,
          "time": 316.9302627999999,
          "velocity": 0.5039370078740157
        },
        {
          "duration": 0.1875,
          "durationTicks": 60,
          "midi": 48,
          "name": "C3",
          "ticks": 101280,
          "time": 317.1177627999999,
          "velocity": 0.5039370078740157
        },
        {
          "duration": 0.1875,
          "durationTicks": 60,
          "midi": 52,
          "name": "E3",
          "ticks": 101340,
          "time": 317.3052627999999,
          "velocity": 0.5039370078740157
        },
        {
          "duration": 0.1875,
          "durationTicks": 60,
          "midi": 50,
          "name": "D3",
          "ticks": 101400,
          "time": 317.4927627999999,
          "velocity": 0.5039370078740157
        },
        {
          "duration": 0.1875,
          "durationTicks": 60,
          "midi": 48,
          "name": "C3",
          "ticks": 101460,
          "time": 317.6802627999999,
          "velocity": 0.5039370078740157
        },
        {
          "duration": 0.1875,
          "durationTicks": 60,
          "midi": 47,
          "name": "B2",
          "ticks": 101520,
          "time": 317.8677627999999,
          "velocity": 0.5039370078740157
        },
        {
          "duration": 0.1875,
          "durationTicks": 60,
          "midi": 45,
          "name": "A2",
          "ticks": 101580,
          "time": 318.0552627999999,
          "velocity": 0.5039370078740157
        },
        {
          "duration": 0.1875,
          "durationTicks": 60,
          "midi": 43,
          "name": "G2",
          "ticks": 101640,
          "time": 318.2427627999999,
          "velocity": 0.5039370078740157
        },
        {
          "duration": 0.1875,
          "durationTicks": 60,
          "midi": 42,
          "name": "F#2",
          "ticks": 101700,
          "time": 318.4302627999999,
          "velocity": 0.5039370078740157
        },
        {
          "duration": 0.1875,
          "durationTicks": 60,
          "midi": 43,
          "name": "G2",
          "ticks": 101760,
          "time": 318.6177627999999,
          "velocity": 0.5039370078740157
        },
        {
          "duration": 0.1875,
          "durationTicks": 60,
          "midi": 45,
          "name": "A2",
          "ticks": 101820,
          "time": 318.8052627999999,
          "velocity": 0.5039370078740157
        },
        {
          "duration": 0.1875,
          "durationTicks": 60,
          "midi": 43,
          "name": "G2",
          "ticks": 101880,
          "time": 318.9927627999999,
          "velocity": 0.5039370078740157
        },
        {
          "duration": 0.1875,
          "durationTicks": 60,
          "midi": 41,
          "name": "F2",
          "ticks": 101940,
          "time": 319.1802627999999,
          "velocity": 0.5039370078740157
        },
        {
          "duration": 0.1875,
          "durationTicks": 60,
          "midi": 40,
          "name": "E2",
          "ticks": 102000,
          "time": 319.3677627999999,
          "velocity": 0.5039370078740157
        },
        {
          "duration": 0.1875,
          "durationTicks": 60,
          "midi": 38,
          "name": "D2",
          "ticks": 102060,
          "time": 319.5552627999999,
          "velocity": 0.5039370078740157
        },
        {
          "duration": 0.1875,
          "durationTicks": 60,
          "midi": 36,
          "name": "C2",
          "ticks": 102120,
          "time": 319.7427627999999,
          "velocity": 0.5039370078740157
        },
        {
          "duration": 0.1875,
          "durationTicks": 60,
          "midi": 35,
          "name": "B1",
          "ticks": 102180,
          "time": 319.9302627999999,
          "velocity": 0.5039370078740157
        },
        {
          "duration": 0.375,
          "durationTicks": 120,
          "midi": 36,
          "name": "C2",
          "ticks": 102240,
          "time": 320.1177627999999,
          "velocity": 0.5039370078740157
        },
        {
          "duration": 0.1875,
          "durationTicks": 60,
          "midi": 38,
          "name": "D2",
          "ticks": 102360,
          "time": 320.4927627999999,
          "velocity": 0.5039370078740157
        },
        {
          "duration": 0.1875,
          "durationTicks": 60,
          "midi": 40,
          "name": "E2",
          "ticks": 102420,
          "time": 320.6802627999999,
          "velocity": 0.5039370078740157
        },
        {
          "duration": 0.1875,
          "durationTicks": 60,
          "midi": 41,
          "name": "F2",
          "ticks": 102480,
          "time": 320.8677627999999,
          "velocity": 0.5039370078740157
        },
        {
          "duration": 0.1875,
          "durationTicks": 60,
          "midi": 43,
          "name": "G2",
          "ticks": 102540,
          "time": 321.0552627999999,
          "velocity": 0.5039370078740157
        },
        {
          "duration": 0.1875,
          "durationTicks": 60,
          "midi": 45,
          "name": "A2",
          "ticks": 102600,
          "time": 321.2427627999999,
          "velocity": 0.5039370078740157
        },
        {
          "duration": 0.1875,
          "durationTicks": 60,
          "midi": 47,
          "name": "B2",
          "ticks": 102660,
          "time": 321.4302627999999,
          "velocity": 0.5039370078740157
        },
        {
          "duration": 0.1875,
          "durationTicks": 60,
          "midi": 48,
          "name": "C3",
          "ticks": 102720,
          "time": 321.6177627999999,
          "velocity": 0.5039370078740157
        },
        {
          "duration": 0.1875,
          "durationTicks": 60,
          "midi": 52,
          "name": "E3",
          "ticks": 102780,
          "time": 321.8052627999999,
          "velocity": 0.5039370078740157
        },
        {
          "duration": 0.1875,
          "durationTicks": 60,
          "midi": 50,
          "name": "D3",
          "ticks": 102840,
          "time": 321.9927627999999,
          "velocity": 0.5039370078740157
        },
        {
          "duration": 0.1875,
          "durationTicks": 60,
          "midi": 48,
          "name": "C3",
          "ticks": 102900,
          "time": 322.1802627999999,
          "velocity": 0.5039370078740157
        },
        {
          "duration": 0.1875,
          "durationTicks": 60,
          "midi": 47,
          "name": "B2",
          "ticks": 102960,
          "time": 322.3677627999999,
          "velocity": 0.5039370078740157
        },
        {
          "duration": 0.1875,
          "durationTicks": 60,
          "midi": 45,
          "name": "A2",
          "ticks": 103020,
          "time": 322.5552627999999,
          "velocity": 0.5039370078740157
        },
        {
          "duration": 0.1875,
          "durationTicks": 60,
          "midi": 43,
          "name": "G2",
          "ticks": 103080,
          "time": 322.7427627999999,
          "velocity": 0.5039370078740157
        },
        {
          "duration": 0.1875,
          "durationTicks": 60,
          "midi": 42,
          "name": "F#2",
          "ticks": 103140,
          "time": 322.9302627999999,
          "velocity": 0.5039370078740157
        },
        {
          "duration": 0.1875,
          "durationTicks": 60,
          "midi": 43,
          "name": "G2",
          "ticks": 103200,
          "time": 323.1177627999999,
          "velocity": 0.5039370078740157
        },
        {
          "duration": 0.1875,
          "durationTicks": 60,
          "midi": 45,
          "name": "A2",
          "ticks": 103260,
          "time": 323.3052627999999,
          "velocity": 0.5039370078740157
        },
        {
          "duration": 0.1875,
          "durationTicks": 60,
          "midi": 43,
          "name": "G2",
          "ticks": 103320,
          "time": 323.4927627999999,
          "velocity": 0.5039370078740157
        },
        {
          "duration": 0.1875,
          "durationTicks": 60,
          "midi": 41,
          "name": "F2",
          "ticks": 103380,
          "time": 323.6802627999999,
          "velocity": 0.5039370078740157
        },
        {
          "duration": 0.1875,
          "durationTicks": 60,
          "midi": 40,
          "name": "E2",
          "ticks": 103440,
          "time": 323.8677627999999,
          "velocity": 0.5039370078740157
        },
        {
          "duration": 0.1875,
          "durationTicks": 60,
          "midi": 38,
          "name": "D2",
          "ticks": 103500,
          "time": 324.0552627999999,
          "velocity": 0.5039370078740157
        },
        {
          "duration": 0.1875,
          "durationTicks": 60,
          "midi": 36,
          "name": "C2",
          "ticks": 103560,
          "time": 324.2427627999999,
          "velocity": 0.5039370078740157
        },
        {
          "duration": 0.1875,
          "durationTicks": 60,
          "midi": 35,
          "name": "B1",
          "ticks": 103620,
          "time": 324.4302627999999,
          "velocity": 0.5039370078740157
        },
        {
          "duration": 0.75,
          "durationTicks": 240,
          "midi": 36,
          "name": "C2",
          "ticks": 103680,
          "time": 324.6177627999999,
          "velocity": 0.4881889763779528
        },
        {
          "duration": 0.75,
          "durationTicks": 240,
          "midi": 48,
          "name": "C3",
          "ticks": 103920,
          "time": 325.3677627999999,
          "velocity": 0.3779527559055118
        },
        {
          "duration": 0.75,
          "durationTicks": 240,
          "midi": 48,
          "name": "C3",
          "ticks": 104160,
          "time": 326.1177627999999,
          "velocity": 0.3779527559055118
        },
        {
          "duration": 0.75,
          "durationTicks": 240,
          "midi": 48,
          "name": "C3",
          "ticks": 104400,
          "time": 326.8677627999999,
          "velocity": 0.3779527559055118
        },
        {
          "duration": 0.75,
          "durationTicks": 240,
          "midi": 48,
          "name": "C3",
          "ticks": 104640,
          "time": 327.6177627999999,
          "velocity": 0.3779527559055118
        },
        {
          "duration": 0.75,
          "durationTicks": 240,
          "midi": 48,
          "name": "C3",
          "ticks": 104880,
          "time": 328.3677627999999,
          "velocity": 0.3779527559055118
        },
        {
          "duration": 0.75,
          "durationTicks": 240,
          "midi": 36,
          "name": "C2",
          "ticks": 105120,
          "time": 329.1177627999999,
          "velocity": 0.4881889763779528
        },
        {
          "duration": 0.75,
          "durationTicks": 240,
          "midi": 48,
          "name": "C3",
          "ticks": 105360,
          "time": 329.8677627999999,
          "velocity": 0.3779527559055118
        },
        {
          "duration": 0.75,
          "durationTicks": 240,
          "midi": 48,
          "name": "C3",
          "ticks": 105600,
          "time": 330.6177627999999,
          "velocity": 0.3779527559055118
        },
        {
          "duration": 0.75,
          "durationTicks": 240,
          "midi": 48,
          "name": "C3",
          "ticks": 105840,
          "time": 331.3677627999999,
          "velocity": 0.3779527559055118
        },
        {
          "duration": 0.75,
          "durationTicks": 240,
          "midi": 48,
          "name": "C3",
          "ticks": 106080,
          "time": 332.1177627999999,
          "velocity": 0.3779527559055118
        },
        {
          "duration": 0.75,
          "durationTicks": 240,
          "midi": 48,
          "name": "C3",
          "ticks": 106320,
          "time": 332.8677627999999,
          "velocity": 0.3779527559055118
        },
        {
          "duration": 0.75,
          "durationTicks": 240,
          "midi": 48,
          "name": "C3",
          "ticks": 106560,
          "time": 333.6177627999999,
          "velocity": 0.3779527559055118
        },
        {
          "duration": 0.75,
          "durationTicks": 240,
          "midi": 36,
          "name": "C2",
          "ticks": 107040,
          "time": 335.1177627999999,
          "velocity": 0.3779527559055118
        },
        {
          "duration": 1.5,
          "durationTicks": 480,
          "midi": 45,
          "name": "A2",
          "ticks": 108000,
          "time": 338.2763333666666,
          "velocity": 0.2992125984251969
        },
        {
          "duration": 1.5,
          "durationTicks": 480,
          "midi": 43,
          "name": "G2",
          "ticks": 108480,
          "time": 339.7763333666666,
          "velocity": 0.2992125984251969
        },
        {
          "duration": 1.5,
          "durationTicks": 480,
          "midi": 41,
          "name": "F2",
          "ticks": 108960,
          "time": 341.2763333666666,
          "velocity": 0.2992125984251969
        },
        {
          "duration": 1.5,
          "durationTicks": 480,
          "midi": 40,
          "name": "E2",
          "ticks": 109440,
          "time": 342.7763333666666,
          "velocity": 0.2992125984251969
        },
        {
          "duration": 1.5,
          "durationTicks": 480,
          "midi": 46,
          "name": "A#2",
          "ticks": 110880,
          "time": 347.2763333666666,
          "velocity": 0.2992125984251969
        },
        {
          "duration": 1.5,
          "durationTicks": 480,
          "midi": 45,
          "name": "A2",
          "ticks": 111360,
          "time": 348.7763333666666,
          "velocity": 0.2992125984251969
        },
        {
          "duration": 1.5,
          "durationTicks": 480,
          "midi": 43,
          "name": "G2",
          "ticks": 111840,
          "time": 350.2763333666666,
          "velocity": 0.2992125984251969
        },
        {
          "duration": 1.5,
          "durationTicks": 480,
          "midi": 41,
          "name": "F2",
          "ticks": 112320,
          "time": 351.7763333666666,
          "velocity": 0.2992125984251969
        },
        {
          "duration": 0.75,
          "durationTicks": 240,
          "midi": 38,
          "name": "D2",
          "ticks": 113760,
          "time": 356.2763333666666,
          "velocity": 0.3779527559055118
        },
        {
          "duration": 0.75,
          "durationTicks": 240,
          "midi": 43,
          "name": "G2",
          "ticks": 114240,
          "time": 357.7763333666666,
          "velocity": 0.3779527559055118
        },
        {
          "duration": 0.75,
          "durationTicks": 240,
          "midi": 36,
          "name": "C2",
          "ticks": 114720,
          "time": 359.2763333666666,
          "velocity": 0.3779527559055118
        },
        {
          "duration": 0.75,
          "durationTicks": 240,
          "midi": 41,
          "name": "F2",
          "ticks": 115200,
          "time": 360.7763333666666,
          "velocity": 0.3779527559055118
        },
        {
          "duration": 1.5,
          "durationTicks": 480,
          "midi": 34,
          "name": "A#1",
          "ticks": 115680,
          "time": 362.2763333666666,
          "velocity": 0.3779527559055118
        },
        {
          "duration": 0.75,
          "durationTicks": 240,
          "midi": 36,
          "name": "C2",
          "ticks": 116160,
          "time": 363.7763333666666,
          "velocity": 0.3779527559055118
        },
        {
          "duration": 0.75,
          "durationTicks": 240,
          "midi": 38,
          "name": "D2",
          "ticks": 116400,
          "time": 364.5263333666666,
          "velocity": 0.3779527559055118
        },
        {
          "duration": 0.75,
          "durationTicks": 240,
          "midi": 34,
          "name": "A#1",
          "ticks": 116640,
          "time": 365.2763333666666,
          "velocity": 0.3779527559055118
        },
        {
          "duration": 0.75,
          "durationTicks": 240,
          "midi": 36,
          "name": "C2",
          "ticks": 117120,
          "time": 366.7763333666666,
          "velocity": 0.3779527559055118
        },
        {
          "duration": 0.75,
          "durationTicks": 240,
          "midi": 48,
          "name": "C3",
          "ticks": 117600,
          "time": 368.2763333666666,
          "velocity": 0.3779527559055118
        },
        {
          "duration": 0.75,
          "durationTicks": 240,
          "midi": 50,
          "name": "D3",
          "ticks": 118080,
          "time": 369.7763333666666,
          "velocity": 0.3779527559055118
        },
        {
          "duration": 0.75,
          "durationTicks": 240,
          "midi": 43,
          "name": "G2",
          "ticks": 118560,
          "time": 371.2763333666666,
          "velocity": 0.3779527559055118
        },
        {
          "duration": 0.75,
          "durationTicks": 240,
          "midi": 48,
          "name": "C3",
          "ticks": 119040,
          "time": 372.7763333666666,
          "velocity": 0.3779527559055118
        },
        {
          "duration": 0.75,
          "durationTicks": 240,
          "midi": 41,
          "name": "F2",
          "ticks": 119520,
          "time": 374.2763333666666,
          "velocity": 0.3779527559055118
        },
        {
          "duration": 1.5,
          "durationTicks": 480,
          "midi": 34,
          "name": "A#1",
          "ticks": 120000,
          "time": 375.7763333666666,
          "velocity": 0.3779527559055118
        },
        {
          "duration": 0.75,
          "durationTicks": 240,
          "midi": 36,
          "name": "C2",
          "ticks": 120480,
          "time": 377.2763333666666,
          "velocity": 0.3779527559055118
        },
        {
          "duration": 0.75,
          "durationTicks": 240,
          "midi": 38,
          "name": "D2",
          "ticks": 120720,
          "time": 378.0263333666666,
          "velocity": 0.3779527559055118
        },
        {
          "duration": 1.5,
          "durationTicks": 480,
          "midi": 43,
          "name": "G2",
          "ticks": 120960,
          "time": 378.7763333666666,
          "velocity": 0.3779527559055118
        },
        {
          "duration": 0.75,
          "durationTicks": 240,
          "midi": 45,
          "name": "A2",
          "ticks": 121440,
          "time": 380.2763333666666,
          "velocity": 0.3937007874015748
        },
        {
          "duration": 0.75,
          "durationTicks": 240,
          "midi": 46,
          "name": "A#2",
          "ticks": 121680,
          "time": 381.0263333666666,
          "velocity": 0.4015748031496063
        },
        {
          "duration": 1.5,
          "durationTicks": 480,
          "midi": 39,
          "name": "D#2",
          "ticks": 121920,
          "time": 381.7763333666666,
          "velocity": 0.4094488188976378
        },
        {
          "duration": 0.7125000000000341,
          "durationTicks": 228,
          "midi": 38,
          "name": "D2",
          "ticks": 122400,
          "time": 383.2763333666666,
          "velocity": 0.4330708661417323
        },
        {
          "duration": 0.75,
          "durationTicks": 240,
          "midi": 43,
          "name": "G2",
          "ticks": 122640,
          "time": 384.0263333666666,
          "velocity": 0.4409448818897638
        },
        {
          "duration": 0.7125000000000341,
          "durationTicks": 228,
          "midi": 45,
          "name": "A2",
          "ticks": 122880,
          "time": 384.7763333666666,
          "velocity": 0.44881889763779526
        },
        {
          "duration": 0.7125000000000341,
          "durationTicks": 228,
          "midi": 46,
          "name": "A#2",
          "ticks": 123120,
          "time": 385.5263333666666,
          "velocity": 0.4645669291338583
        },
        {
          "duration": 0.7125000000000341,
          "durationTicks": 228,
          "midi": 48,
          "name": "C3",
          "ticks": 123360,
          "time": 386.2763333666666,
          "velocity": 0.47244094488188976
        },
        {
          "duration": 0.7125000000000341,
          "durationTicks": 228,
          "midi": 36,
          "name": "C2",
          "ticks": 123600,
          "time": 387.0263333666666,
          "velocity": 0.48031496062992124
        },
        {
          "duration": 0.75,
          "durationTicks": 240,
          "midi": 41,
          "name": "F2",
          "ticks": 123840,
          "time": 387.7763333666666,
          "velocity": 0.3779527559055118
        },
        {
          "duration": 1.5,
          "durationTicks": 480,
          "midi": 48,
          "name": "C3",
          "ticks": 126240,
          "time": 395.2763333666666,
          "velocity": 0.3464566929133858
        },
        {
          "duration": 0.75,
          "durationTicks": 240,
          "midi": 53,
          "name": "F3",
          "ticks": 126720,
          "time": 396.7763333666666,
          "velocity": 0.3464566929133858
        },
        {
          "duration": 1.5,
          "durationTicks": 480,
          "midi": 36,
          "name": "C2",
          "ticks": 129120,
          "time": 404.2763333666667,
          "velocity": 0.3464566929133858
        },
        {
          "duration": 0.75,
          "durationTicks": 240,
          "midi": 41,
          "name": "F2",
          "ticks": 129600,
          "time": 405.7763333666667,
          "velocity": 0.3464566929133858
        },
        {
          "duration": 0.75,
          "durationTicks": 240,
          "midi": 29,
          "name": "F1",
          "ticks": 130080,
          "time": 407.2763333666667,
          "velocity": 0.4645669291338583
        },
        {
          "duration": 1.4634149999999977,
          "durationTicks": 480,
          "midi": 41,
          "name": "F2",
          "ticks": 132000,
          "time": 413.4924417333333,
          "velocity": 0.3779527559055118
        },
        {
          "duration": 0.7317075000000273,
          "durationTicks": 240,
          "midi": 43,
          "name": "G2",
          "ticks": 132480,
          "time": 414.9558567333333,
          "velocity": 0.3779527559055118
        },
        {
          "duration": 0.4878050000000371,
          "durationTicks": 160,
          "midi": 31,
          "name": "G1",
          "ticks": 132960,
          "time": 416.4192717333333,
          "velocity": 0.4409448818897638
        },
        {
          "duration": 0.18292687499996418,
          "durationTicks": 60,
          "midi": 43,
          "name": "G2",
          "ticks": 133860,
          "time": 419.1631748583333,
          "velocity": 0.4330708661417323
        },
        {
          "duration": 0.7317075000000273,
          "durationTicks": 240,
          "midi": 45,
          "name": "A2",
          "ticks": 133920,
          "time": 419.3461017333333,
          "velocity": 0.4330708661417323
        },
        {
          "duration": 0.4878050000000371,
          "durationTicks": 160,
          "midi": 33,
          "name": "A1",
          "ticks": 134400,
          "time": 420.8095167333333,
          "velocity": 0.4409448818897638
        },
        {
          "duration": 0.7073172500000169,
          "durationTicks": 232,
          "midi": 34,
          "name": "A#1",
          "ticks": 135360,
          "time": 423.7363467333333,
          "velocity": 0.4015748031496063
        },
        {
          "duration": 0.7073172500000169,
          "durationTicks": 232,
          "midi": 34,
          "name": "A#1",
          "ticks": 135600,
          "time": 424.4680542333333,
          "velocity": 0.4015748031496063
        },
        {
          "duration": 0.7073172500000169,
          "durationTicks": 232,
          "midi": 34,
          "name": "A#1",
          "ticks": 135840,
          "time": 425.1997617333333,
          "velocity": 0.4015748031496063
        },
        {
          "duration": 0.7073172500000169,
          "durationTicks": 232,
          "midi": 34,
          "name": "A#1",
          "ticks": 136080,
          "time": 425.9314692333333,
          "velocity": 0.4015748031496063
        },
        {
          "duration": 0.7073172500000169,
          "durationTicks": 232,
          "midi": 34,
          "name": "A#1",
          "ticks": 136320,
          "time": 426.6631767333333,
          "velocity": 0.4015748031496063
        },
        {
          "duration": 0.7073172500000169,
          "durationTicks": 232,
          "midi": 34,
          "name": "A#1",
          "ticks": 136560,
          "time": 427.3948842333333,
          "velocity": 0.4015748031496063
        },
        {
          "duration": 0.7073172500000169,
          "durationTicks": 232,
          "midi": 36,
          "name": "C2",
          "ticks": 136800,
          "time": 428.12659173333327,
          "velocity": 0.4015748031496063
        },
        {
          "duration": 0.7073172500000169,
          "durationTicks": 232,
          "midi": 36,
          "name": "C2",
          "ticks": 137040,
          "time": 428.8582992333333,
          "velocity": 0.4015748031496063
        },
        {
          "duration": 0.70731724999996,
          "durationTicks": 232,
          "midi": 36,
          "name": "C2",
          "ticks": 137280,
          "time": 429.5900067333333,
          "velocity": 0.4015748031496063
        },
        {
          "duration": 0.7073172500000169,
          "durationTicks": 232,
          "midi": 36,
          "name": "C2",
          "ticks": 137520,
          "time": 430.3217142333333,
          "velocity": 0.4015748031496063
        },
        {
          "duration": 0.70731724999996,
          "durationTicks": 232,
          "midi": 36,
          "name": "C2",
          "ticks": 137760,
          "time": 431.0534217333333,
          "velocity": 0.4015748031496063
        },
        {
          "duration": 0.7073172500000169,
          "durationTicks": 232,
          "midi": 36,
          "name": "C2",
          "ticks": 138000,
          "time": 431.7851292333333,
          "velocity": 0.4015748031496063
        },
        {
          "duration": 0.7250000000000227,
          "durationTicks": 232,
          "midi": 37,
          "name": "C#2",
          "ticks": 138240,
          "time": 432.51683673333326,
          "velocity": 0.33858267716535434
        },
        {
          "duration": 0.7250000000000227,
          "durationTicks": 232,
          "midi": 37,
          "name": "C#2",
          "ticks": 138480,
          "time": 433.26683673333326,
          "velocity": 0.33858267716535434
        },
        {
          "duration": 0.7250000000000227,
          "durationTicks": 232,
          "midi": 38,
          "name": "D2",
          "ticks": 138720,
          "time": 434.01683673333326,
          "velocity": 0.33858267716535434
        },
        {
          "duration": 0.7250000000000227,
          "durationTicks": 232,
          "midi": 38,
          "name": "D2",
          "ticks": 138960,
          "time": 434.76683673333326,
          "velocity": 0.33858267716535434
        },
        {
          "duration": 0.7250000000000227,
          "durationTicks": 232,
          "midi": 34,
          "name": "A#1",
          "ticks": 139200,
          "time": 435.51683673333326,
          "velocity": 0.33858267716535434
        },
        {
          "duration": 0.7250000000000227,
          "durationTicks": 232,
          "midi": 34,
          "name": "A#1",
          "ticks": 139440,
          "time": 436.26683673333326,
          "velocity": 0.33858267716535434
        },
        {
          "duration": 0.7250000000000227,
          "durationTicks": 232,
          "midi": 36,
          "name": "C2",
          "ticks": 139680,
          "time": 437.01683673333326,
          "velocity": 0.33858267716535434
        },
        {
          "duration": 0.7250000000000227,
          "durationTicks": 232,
          "midi": 36,
          "name": "C2",
          "ticks": 139920,
          "time": 437.76683673333326,
          "velocity": 0.3228346456692913
        },
        {
          "duration": 0.7250000000000227,
          "durationTicks": 232,
          "midi": 36,
          "name": "C2",
          "ticks": 140160,
          "time": 438.51683673333326,
          "velocity": 0.31496062992125984
        },
        {
          "duration": 0.7365386000000171,
          "durationTicks": 232,
          "midi": 36,
          "name": "C2",
          "ticks": 140400,
          "time": 439.26683673333326,
          "velocity": 0.30708661417322836
        },
        {
          "duration": 0.7657659666666063,
          "durationTicks": 232,
          "midi": 36,
          "name": "C2",
          "ticks": 140640,
          "time": 440.0290163666666,
          "velocity": 0.2992125984251969
        },
        {
          "duration": 0.8003004666667266,
          "durationTicks": 232,
          "midi": 36,
          "name": "C2",
          "ticks": 140880,
          "time": 440.82180936666657,
          "velocity": 0.29133858267716534
        },
        {
          "duration": 0.75,
          "durationTicks": 240,
          "midi": 29,
          "name": "F1",
          "ticks": 141120,
          "time": 441.6498876166666,
          "velocity": 0.2125984251968504
        },
        {
          "duration": 1.5865221333332897,
          "durationTicks": 480,
          "midi": 36,
          "name": "C2",
          "ticks": 142080,
          "time": 444.6498876166666,
          "velocity": 0.2992125984251969
        },
        {
          "duration": 0.75,
          "durationTicks": 240,
          "midi": 41,
          "name": "F2",
          "ticks": 142560,
          "time": 446.2364097499999,
          "velocity": 0.2992125984251969
        },
        {
          "duration": 1.6691730000000007,
          "durationTicks": 480,
          "midi": 36,
          "name": "C2",
          "ticks": 143520,
          "time": 449.2495675833332,
          "velocity": 0.3700787401574803
        },
        {
          "duration": 3.122321266666688,
          "durationTicks": 720,
          "midi": 29,
          "name": "F1",
          "ticks": 144000,
          "time": 450.9187405833332,
          "velocity": 0.3543307086614173
        }
      ]
    },
    {
      "channel": 0,
      "controlChanges": {},
      "pitchBends": [],
      "instrument": {
        "family": "piano",
        "number": 0,
        "name": "acoustic grand piano"
      },
      "name": "___________________________________________________\n\nKUNSTDERFUGE.COM LARGE CLASSICAL MIDI COLLECTION\nONCLASSICAL BY ALESSANDRO SIMONETTO, PROPRIETOR\n___________________________________________________\n\n! Attention: this file is under copyright !\n\n(c)onclassical, (c)cvikl, 2010\n___________________________________________________\n\nNO ONE MAY REPUBLISH THIS FILE WITHOUT PERMISSION\nCOMMERCIAL USES OF THIS FILE IS STRICTLY PROHIBITED\n___________________________________________________\n\nFiles & contributor's li",
      "notes": [],
      "endOfTrackTicks": 1440
    }
  ]
}